<svg xmlns="http://www.w3.org/2000/svg" width="300" height="300" viewBox="0 0 300 300">
<path d="M 158.04 105.26 L 157.74 106.18 C 157.44 107.11 157.96 108.11 158.89 108.41 C 159.82 108.71 160.82 108.20 161.12 107.27 L 161.41 106.34 C 161.72 105.41 161.20 104.41 160.27 104.11 C 159.34 103.81 158.34 104.32 158.04 105.26 Z M 157.70 106.12 L 157.37 107.05 C 157.03 108.01 157.54 109.06 158.49 109.39 C 159.45 109.73 160.50 109.23 160.84 108.27 L 161.16 107.33 C 161.50 106.38 161.00 105.33 160.04 104.99 C 159.08 104.66 158.03 105.16 157.70 106.12 Z M 157.34 106.94 L 156.95 107.89 C 156.56 108.87 157.02 109.98 158.00 110.37 C 158.97 110.77 160.08 110.30 160.48 109.33 L 160.86 108.38 C 161.26 107.40 160.79 106.29 159.82 105.90 C 158.85 105.50 157.74 105.97 157.34 106.94 Z M 156.96 107.78 L 156.56 108.62 C 156.10 109.58 156.51 110.74 157.48 111.20 C 158.45 111.66 159.60 111.25 160.06 110.29 L 160.47 109.45 C 160.93 108.48 160.52 107.32 159.55 106.86 C 158.58 106.40 157.42 106.81 156.96 107.78 Z M 156.59 108.55 L 156.15 109.39 C 155.65 110.34 156.01 111.52 156.96 112.02 C 157.91 112.52 159.09 112.15 159.59 111.20 L 160.03 110.36 C 160.53 109.41 160.17 108.23 159.22 107.73 C 158.27 107.23 157.09 107.60 156.59 108.55 Z M 156.17 109.37 L 155.67 110.26 C 155.16 111.20 155.50 112.38 156.44 112.90 C 157.38 113.42 158.56 113.07 159.08 112.13 L 159.57 111.23 C 160.09 110.29 159.74 109.11 158.80 108.60 C 157.86 108.08 156.68 108.43 156.17 109.37 Z M 155.67 110.26 L 155.15 111.22 C 154.63 112.16 154.98 113.34 155.92 113.86 C 156.85 114.37 158.03 114.03 158.55 113.09 L 159.07 112.13 C 159.59 111.19 159.25 110.01 158.31 109.50 C 157.37 108.98 156.19 109.33 155.67 110.26 Z M 155.14 111.24 L 154.67 112.12 C 154.16 113.06 154.52 114.24 155.46 114.74 C 156.40 115.25 157.58 114.89 158.08 113.95 L 158.56 113.07 C 159.06 112.13 158.71 110.95 157.76 110.45 C 156.82 109.94 155.65 110.30 155.14 111.24 Z M 154.67 112.14 L 154.19 113.05 C 153.69 114.00 154.06 115.16 155.00 115.66 C 155.95 116.15 157.12 115.79 157.61 114.84 L 158.09 113.93 C 158.58 112.99 158.22 111.82 157.27 111.33 C 156.33 110.83 155.16 111.20 154.67 112.14 Z M 154.19 113.07 L 153.72 113.98 C 153.24 114.92 153.61 116.08 154.56 116.57 C 155.50 117.05 156.66 116.68 157.15 115.73 L 157.61 114.83 C 158.10 113.88 157.73 112.72 156.78 112.23 C 155.83 111.75 154.67 112.12 154.19 113.07 Z M 153.72 113.99 L 153.28 114.87 C 152.80 115.82 153.19 116.97 154.13 117.45 C 155.08 117.92 156.24 117.54 156.71 116.59 L 157.15 115.72 C 157.63 114.77 157.24 113.61 156.30 113.14 C 155.35 112.66 154.19 113.04 153.72 113.99 Z M 153.28 114.89 L 152.81 115.84 C 152.35 116.79 152.74 117.93 153.69 118.40 C 154.64 118.86 155.79 118.47 156.25 117.52 L 156.72 116.57 C 157.18 115.62 156.79 114.47 155.84 114.01 C 154.89 113.55 153.74 113.94 153.28 114.89 Z M 152.81 115.86 L 152.37 116.79 C 151.92 117.74 152.33 118.88 153.28 119.33 C 154.23 119.78 155.36 119.37 155.81 118.42 L 156.26 117.49 C 156.71 116.54 156.30 115.40 155.35 114.95 C 154.40 114.50 153.26 114.91 152.81 115.86 Z M 152.37 116.82 L 151.97 117.68 C 151.54 118.63 151.95 119.76 152.90 120.20 C 153.85 120.63 154.97 120.22 155.41 119.27 L 155.81 118.40 C 156.25 117.45 155.83 116.33 154.89 115.89 C 153.94 115.45 152.81 115.87 152.37 116.82 Z M 151.98 117.70 L 151.59 118.55 C 151.16 119.49 151.58 120.61 152.53 121.04 C 153.47 121.47 154.59 121.05 155.02 120.10 L 155.40 119.26 C 155.83 118.31 155.42 117.20 154.47 116.77 C 153.53 116.33 152.41 116.75 151.98 117.70 Z M 151.60 118.55 L 151.20 119.44 C 150.77 120.39 151.18 121.50 152.13 121.92 C 153.07 122.35 154.18 121.93 154.60 120.99 L 155.01 120.10 C 155.44 119.16 155.02 118.05 154.08 117.62 C 153.14 117.19 152.03 117.61 151.60 118.55 Z M 151.20 119.45 L 150.79 120.36 C 150.37 121.30 150.78 122.40 151.72 122.82 C 152.66 123.25 153.77 122.83 154.19 121.89 L 154.60 120.99 C 155.02 120.05 154.61 118.94 153.67 118.52 C 152.73 118.09 151.63 118.51 151.20 119.45 Z M 150.80 120.36 L 150.38 121.29 C 149.96 122.23 150.37 123.33 151.31 123.75 C 152.25 124.17 153.35 123.75 153.77 122.82 L 154.18 121.89 C 154.61 120.95 154.19 119.85 153.25 119.43 C 152.32 119.01 151.22 119.43 150.80 120.36 Z M 150.38 121.30 L 149.98 122.20 C 149.57 123.13 149.99 124.23 150.92 124.64 C 151.85 125.06 152.95 124.64 153.36 123.71 L 153.76 122.81 C 154.18 121.88 153.76 120.78 152.82 120.37 C 151.89 119.95 150.80 120.37 150.38 121.30 Z M 149.99 122.21 L 149.58 123.12 C 149.17 124.05 149.59 125.14 150.52 125.55 C 151.45 125.96 152.54 125.54 152.95 124.61 L 153.36 123.70 C 153.77 122.77 153.35 121.68 152.42 121.27 C 151.49 120.86 150.40 121.28 149.99 122.21 Z M 149.59 123.13 L 149.18 124.05 C 148.77 124.98 149.19 126.06 150.12 126.47 C 151.05 126.88 152.13 126.46 152.54 125.53 L 152.95 124.61 C 153.36 123.68 152.94 122.60 152.01 122.19 C 151.08 121.78 150.00 122.20 149.59 123.13 Z M 149.19 124.06 L 148.78 124.98 C 148.38 125.90 148.80 126.98 149.72 127.39 C 150.64 127.79 151.72 127.37 152.13 126.45 L 152.53 125.53 C 152.94 124.60 152.52 123.53 151.60 123.12 C 150.67 122.71 149.59 123.13 149.19 124.06 Z M 148.79 124.98 L 148.39 125.89 C 147.99 126.81 148.40 127.88 149.32 128.29 C 150.24 128.69 151.32 128.27 151.72 127.35 L 152.12 126.45 C 152.52 125.53 152.11 124.46 151.19 124.05 C 150.27 123.65 149.19 124.06 148.79 124.98 Z M 148.40 125.89 L 148.00 126.80 C 147.59 127.72 148.01 128.79 148.92 129.19 C 149.84 129.59 150.91 129.18 151.31 128.26 L 151.71 127.35 C 152.12 126.44 151.70 125.37 150.79 124.96 C 149.87 124.56 148.80 124.98 148.40 125.89 Z M 148.00 126.80 L 147.60 127.73 C 147.19 128.64 147.61 129.71 148.52 130.11 C 149.43 130.51 150.49 130.10 150.90 129.19 L 151.30 128.26 C 151.71 127.35 151.29 126.28 150.38 125.88 C 149.47 125.48 148.41 125.89 148.00 126.80 Z M 147.60 127.73 L 147.20 128.64 C 146.80 129.55 147.21 130.61 148.12 131.01 C 149.02 131.41 150.08 131.00 150.48 130.10 L 150.89 129.18 C 151.29 128.28 150.88 127.22 149.97 126.82 C 149.07 126.41 148.01 126.82 147.60 127.73 Z M 147.21 128.65 L 146.80 129.56 C 146.40 130.46 146.81 131.52 147.71 131.92 C 148.61 132.32 149.67 131.91 150.07 131.01 L 150.48 130.10 C 150.88 129.19 150.47 128.14 149.57 127.74 C 148.67 127.34 147.61 127.74 147.21 128.65 Z M 146.81 129.56 L 146.40 130.48 C 146.00 131.37 146.41 132.42 147.30 132.82 C 148.20 133.22 149.25 132.82 149.65 131.93 L 150.06 131.01 C 150.46 130.11 150.06 129.06 149.16 128.66 C 148.27 128.26 147.21 128.66 146.81 129.56 Z M 146.41 130.47 L 146.00 131.39 C 145.60 132.28 146.00 133.33 146.89 133.73 C 147.78 134.13 148.83 133.74 149.23 132.84 L 149.64 131.93 C 150.04 131.04 149.65 129.99 148.75 129.59 C 147.86 129.19 146.81 129.58 146.41 130.47 Z M 146.01 131.39 L 145.60 132.30 C 145.20 133.18 145.59 134.23 146.48 134.63 C 147.36 135.03 148.41 134.64 148.81 133.75 L 149.22 132.85 C 149.62 131.96 149.23 130.92 148.34 130.51 C 147.46 130.11 146.41 130.50 146.01 131.39 Z M 145.61 132.30 L 145.20 133.20 C 144.80 134.08 145.19 135.12 146.07 135.52 C 146.95 135.92 147.99 135.53 148.39 134.65 L 148.80 133.75 C 149.20 132.87 148.81 131.83 147.93 131.43 C 147.05 131.03 146.01 131.42 145.61 132.30 Z M 145.20 133.21 L 144.79 134.12 C 144.40 135.00 144.79 136.03 145.67 136.43 C 146.55 136.82 147.58 136.43 147.97 135.55 L 148.38 134.64 C 148.78 133.77 148.39 132.73 147.51 132.34 C 146.63 131.94 145.60 132.33 145.20 133.21 Z M 144.80 134.13 L 144.39 135.06 C 144.00 135.94 144.39 136.96 145.27 137.35 C 146.15 137.74 147.17 137.34 147.56 136.47 L 147.97 135.54 C 148.36 134.66 147.96 133.64 147.09 133.25 C 146.21 132.86 145.18 133.26 144.80 134.13 Z M 144.39 135.08 L 143.99 136.01 C 143.61 136.89 144.01 137.90 144.89 138.28 C 145.76 138.66 146.78 138.25 147.16 137.38 L 147.56 136.45 C 147.94 135.57 147.53 134.56 146.66 134.18 C 145.78 133.80 144.77 134.20 144.39 135.08 Z M 143.99 136.02 L 143.59 136.96 C 143.22 137.83 143.63 138.84 144.50 139.21 C 145.38 139.58 146.39 139.18 146.76 138.30 L 147.15 137.36 C 147.52 136.49 147.12 135.48 146.24 135.11 C 145.37 134.74 144.36 135.15 143.99 136.02 Z M 143.60 136.97 L 143.21 137.89 C 142.84 138.76 143.25 139.77 144.12 140.13 C 144.99 140.50 145.99 140.09 146.36 139.22 L 146.75 138.29 C 147.12 137.42 146.71 136.42 145.84 136.06 C 144.97 135.69 143.97 136.10 143.60 136.97 Z M 143.22 137.90 L 142.84 138.79 C 142.48 139.66 142.88 140.65 143.75 141.02 C 144.61 141.38 145.61 140.97 145.98 140.11 L 146.35 139.22 C 146.72 138.35 146.31 137.35 145.44 136.99 C 144.58 136.63 143.58 137.03 143.22 137.90 Z M 142.85 138.79 L 142.48 139.67 C 142.11 140.53 142.51 141.52 143.37 141.89 C 144.23 142.25 145.22 141.85 145.59 140.99 L 145.97 140.11 C 146.33 139.25 145.93 138.26 145.07 137.89 C 144.21 137.53 143.22 137.93 142.85 138.79 Z M 142.49 139.66 L 142.11 140.54 C 141.74 141.39 142.13 142.39 142.99 142.75 C 143.84 143.12 144.84 142.73 145.20 141.87 L 145.58 141.00 C 145.95 140.14 145.56 139.15 144.70 138.78 C 143.85 138.42 142.85 138.81 142.49 139.66 Z M 142.12 140.54 L 141.72 141.45 C 141.35 142.30 141.73 143.29 142.58 143.66 C 143.43 144.03 144.42 143.65 144.79 142.80 L 145.19 141.88 C 145.57 141.03 145.18 140.04 144.33 139.67 C 143.48 139.30 142.49 139.69 142.12 140.54 Z M 141.72 141.45 L 141.29 142.43 C 140.92 143.27 141.30 144.26 142.15 144.63 C 142.99 145.01 143.98 144.62 144.35 143.78 L 144.79 142.80 C 145.16 141.95 144.78 140.97 143.93 140.59 C 143.09 140.22 142.10 140.60 141.72 141.45 Z M 141.30 142.43 L 140.93 143.27 C 140.55 144.11 140.93 145.10 141.78 145.47 C 142.62 145.84 143.60 145.46 143.98 144.62 L 144.35 143.78 C 144.72 142.94 144.34 141.95 143.50 141.58 C 142.66 141.21 141.67 141.59 141.30 142.43 Z M 140.93 143.28 L 140.53 144.18 C 140.16 145.02 140.55 146.00 141.39 146.37 C 142.23 146.74 143.21 146.36 143.58 145.51 L 143.98 144.61 C 144.34 143.77 143.96 142.79 143.12 142.42 C 142.28 142.05 141.30 142.43 140.93 143.28 Z M 140.53 144.19 L 140.13 145.13 C 139.76 145.97 140.15 146.95 140.99 147.31 C 141.84 147.67 142.81 147.29 143.18 146.44 L 143.58 145.50 C 143.94 144.66 143.56 143.68 142.71 143.32 C 141.87 142.96 140.89 143.34 140.53 144.19 Z M 140.12 145.15 L 139.72 146.11 C 139.37 146.95 139.76 147.92 140.61 148.28 C 141.45 148.63 142.42 148.23 142.78 147.39 L 143.18 146.43 C 143.53 145.58 143.14 144.61 142.29 144.26 C 141.45 143.90 140.48 144.30 140.12 145.15 Z M 139.71 146.13 L 139.32 147.10 C 138.98 147.95 139.39 148.91 140.24 149.25 C 141.09 149.59 142.05 149.18 142.39 148.33 L 142.78 147.36 C 143.12 146.52 142.71 145.55 141.86 145.21 C 141.02 144.87 140.05 145.28 139.71 146.13 Z M 139.32 147.13 L 138.95 148.09 C 138.63 148.94 139.06 149.89 139.91 150.22 C 140.76 150.54 141.71 150.11 142.04 149.26 L 142.40 148.31 C 142.73 147.45 142.30 146.50 141.45 146.17 C 140.59 145.85 139.64 146.28 139.32 147.13 Z M 138.95 148.11 L 138.60 149.06 C 138.29 149.91 138.73 150.86 139.59 151.17 C 140.45 151.48 141.39 151.04 141.70 150.18 L 142.05 149.23 C 142.36 148.38 141.91 147.43 141.06 147.12 C 140.20 146.81 139.26 147.26 138.95 148.11 Z M 138.60 149.08 L 138.27 150.02 C 137.97 150.88 138.42 151.82 139.28 152.11 C 140.14 152.41 141.08 151.96 141.38 151.10 L 141.71 150.16 C 142.01 149.30 141.55 148.37 140.69 148.07 C 139.84 147.77 138.90 148.22 138.60 149.08 Z M 138.27 150.03 L 137.95 150.97 C 137.66 151.83 138.12 152.76 138.98 153.05 C 139.84 153.34 140.77 152.88 141.06 152.03 L 141.38 151.09 C 141.67 150.23 141.21 149.30 140.35 149.01 C 139.49 148.71 138.56 149.17 138.27 150.03 Z M 137.95 150.98 L 137.64 151.91 C 137.35 152.77 137.82 153.70 138.68 153.99 C 139.53 154.27 140.46 153.81 140.75 152.95 L 141.06 152.02 C 141.35 151.16 140.89 150.23 140.03 149.94 C 139.17 149.66 138.24 150.12 137.95 150.98 Z M 137.64 151.91 L 137.62 151.98 C 137.33 152.84 137.80 153.77 138.66 154.05 C 139.51 154.34 140.44 153.87 140.73 153.01 L 140.75 152.95 C 141.04 152.09 140.57 151.16 139.71 150.88 C 138.85 150.59 137.93 151.06 137.64 151.91 Z"
      fill="black"
      fill-rule="nonzero" /><path d="M 153.08 123.65 L 153.75 122.87 C 154.38 122.15 154.29 121.05 153.57 120.43 C 152.84 119.80 151.75 119.89 151.13 120.61 L 150.46 121.38 C 149.83 122.11 149.92 123.20 150.64 123.83 C 151.37 124.45 152.46 124.37 153.08 123.65 Z M 153.68 122.98 L 154.38 122.27 C 155.07 121.58 155.06 120.47 154.38 119.79 C 153.69 119.11 152.59 119.11 151.90 119.80 L 151.20 120.51 C 150.52 121.19 150.52 122.30 151.20 122.98 C 151.89 123.67 153.00 123.66 153.68 122.98 Z M 154.20 122.45 L 154.98 121.87 C 155.77 121.29 155.93 120.18 155.35 119.40 C 154.77 118.61 153.66 118.45 152.88 119.03 L 152.09 119.61 C 151.31 120.19 151.14 121.30 151.72 122.09 C 152.30 122.87 153.41 123.04 154.20 122.45 Z M 154.67 122.07 L 155.47 121.71 C 156.37 121.30 156.76 120.24 156.35 119.34 C 155.94 118.45 154.89 118.05 153.99 118.46 L 153.19 118.83 C 152.29 119.24 151.90 120.30 152.31 121.19 C 152.72 122.09 153.77 122.48 154.67 122.07 Z M 155.17 121.83 L 156.06 121.60 C 157.02 121.36 157.60 120.38 157.36 119.42 C 157.12 118.46 156.14 117.88 155.18 118.12 L 154.29 118.34 C 153.33 118.59 152.75 119.56 152.99 120.53 C 153.23 121.49 154.21 122.07 155.17 121.83 Z M 155.85 121.65 L 156.87 121.52 C 157.86 121.40 158.56 120.49 158.43 119.50 C 158.31 118.51 157.40 117.81 156.41 117.94 L 155.39 118.07 C 154.40 118.20 153.70 119.10 153.83 120.09 C 153.96 121.08 154.86 121.78 155.85 121.65 Z M 156.75 121.54 L 157.90 121.47 C 158.91 121.41 159.67 120.55 159.61 119.55 C 159.55 118.55 158.69 117.79 157.68 117.85 L 156.53 117.92 C 155.53 117.98 154.77 118.84 154.83 119.84 C 154.89 120.84 155.75 121.60 156.75 121.54 Z M 157.85 121.48 L 158.80 121.45 C 159.80 121.42 160.59 120.58 160.56 119.57 C 160.52 118.56 159.68 117.78 158.68 117.81 L 157.74 117.84 C 156.73 117.87 155.94 118.71 155.97 119.72 C 156.01 120.73 156.85 121.51 157.85 121.48 Z M 158.77 121.45 L 159.77 121.43 C 160.78 121.41 161.58 120.58 161.56 119.58 C 161.54 118.57 160.71 117.77 159.70 117.79 L 158.70 117.81 C 157.70 117.83 156.90 118.66 156.91 119.66 C 156.93 120.67 157.76 121.47 158.77 121.45 Z M 159.75 121.43 L 160.78 121.42 C 161.79 121.41 162.60 120.59 162.59 119.58 C 162.58 118.58 161.76 117.77 160.75 117.78 L 159.72 117.79 C 158.71 117.80 157.90 118.62 157.91 119.63 C 157.92 120.63 158.75 121.44 159.75 121.43 Z M 160.77 121.42 L 161.81 121.42 C 162.81 121.42 163.62 120.60 163.62 119.59 C 163.62 118.58 162.80 117.77 161.79 117.77 L 160.76 117.78 C 159.75 117.78 158.94 118.60 158.94 119.61 C 158.95 120.61 159.77 121.43 160.77 121.42 Z M 161.80 121.42 L 162.80 121.42 C 163.81 121.42 164.63 120.60 164.62 119.60 C 164.62 118.59 163.81 117.77 162.80 117.77 L 161.80 117.77 C 160.79 117.78 159.98 118.59 159.98 119.60 C 159.98 120.60 160.79 121.42 161.80 121.42 Z M 162.80 121.42 L 163.84 121.42 C 164.85 121.42 165.66 120.60 165.66 119.60 C 165.66 118.59 164.85 117.78 163.84 117.78 L 162.80 117.78 C 161.80 117.78 160.98 118.59 160.98 119.60 C 160.98 120.60 161.80 121.42 162.80 121.42 Z M 163.84 121.41 L 164.84 121.41 C 165.84 121.41 166.65 120.60 166.65 119.60 C 166.65 118.60 165.84 117.78 164.84 117.78 L 163.84 117.78 C 162.84 117.78 162.03 118.60 162.03 119.60 C 162.03 120.60 162.84 121.41 163.84 121.41 Z M 164.84 121.40 L 165.82 121.40 C 166.82 121.40 167.62 120.59 167.62 119.60 C 167.62 118.60 166.82 117.79 165.82 117.79 L 164.84 117.79 C 163.85 117.79 163.04 118.60 163.04 119.60 C 163.04 120.59 163.85 121.40 164.84 121.40 Z M 165.82 121.39 L 166.80 121.39 C 167.79 121.39 168.60 120.59 168.60 119.60 C 168.60 118.60 167.79 117.80 166.80 117.80 L 165.82 117.80 C 164.83 117.80 164.02 118.60 164.02 119.60 C 164.02 120.59 164.83 121.39 165.82 121.39 Z M 166.80 121.39 L 167.79 121.39 C 168.78 121.39 169.58 120.58 169.58 119.60 C 169.58 118.61 168.78 117.81 167.79 117.81 L 166.80 117.81 C 165.81 117.81 165.01 118.61 165.01 119.60 C 165.01 120.58 165.81 121.39 166.80 121.39 Z M 167.79 121.38 L 168.76 121.38 C 169.74 121.38 170.54 120.58 170.54 119.60 C 170.54 118.62 169.75 117.82 168.76 117.82 L 167.79 117.82 C 166.81 117.81 166.01 118.61 166.01 119.59 C 166.01 120.58 166.80 121.38 167.79 121.38 Z M 168.75 121.37 L 169.75 121.37 C 170.73 121.38 171.53 120.59 171.53 119.61 C 171.54 118.63 170.75 117.83 169.77 117.83 L 168.77 117.83 C 167.79 117.82 167.00 118.61 166.99 119.59 C 166.99 120.57 167.78 121.36 168.75 121.37 Z M 169.74 121.36 L 170.76 121.38 C 171.73 121.39 172.53 120.61 172.54 119.63 C 172.55 118.66 171.77 117.86 170.80 117.85 L 169.78 117.84 C 168.81 117.83 168.01 118.61 168.00 119.58 C 167.99 120.56 168.77 121.35 169.74 121.36 Z M 170.74 121.37 L 171.76 121.39 C 172.72 121.41 173.52 120.64 173.55 119.67 C 173.57 118.70 172.80 117.90 171.83 117.88 L 170.81 117.86 C 169.85 117.84 169.04 118.61 169.02 119.58 C 169.00 120.54 169.77 121.35 170.74 121.37 Z M 171.73 121.38 L 172.75 121.41 C 173.71 121.44 174.52 120.69 174.55 119.73 C 174.58 118.77 173.83 117.96 172.87 117.93 L 171.85 117.89 C 170.89 117.86 170.08 118.61 170.05 119.57 C 170.02 120.54 170.77 121.34 171.73 121.38 Z M 172.72 121.40 L 173.76 121.45 C 174.72 121.50 175.53 120.77 175.58 119.81 C 175.63 118.86 174.89 118.04 173.94 117.99 L 172.90 117.94 C 171.94 117.89 171.13 118.63 171.08 119.58 C 171.03 120.54 171.76 121.35 172.72 121.40 Z M 173.73 121.44 L 174.75 121.51 C 175.70 121.57 176.52 120.86 176.58 119.91 C 176.64 118.96 175.93 118.14 174.98 118.08 L 173.97 118.01 C 173.02 117.94 172.20 118.66 172.13 119.61 C 172.07 120.55 172.79 121.37 173.73 121.44 Z M 174.72 121.49 L 175.71 121.57 C 176.65 121.65 177.48 120.96 177.55 120.02 C 177.63 119.08 176.94 118.26 176.00 118.18 L 175.01 118.09 C 174.07 118.01 173.25 118.71 173.17 119.65 C 173.09 120.59 173.78 121.41 174.72 121.49 Z M 175.69 121.56 L 176.65 121.66 C 177.58 121.75 178.41 121.07 178.50 120.14 C 178.60 119.21 177.92 118.38 176.99 118.29 L 176.03 118.19 C 175.10 118.10 174.27 118.78 174.17 119.71 C 174.08 120.63 174.76 121.46 175.69 121.56 Z M 176.62 121.64 L 177.60 121.76 C 178.52 121.87 179.35 121.21 179.46 120.29 C 179.57 119.36 178.91 118.53 177.99 118.42 L 177.02 118.31 C 176.09 118.20 175.26 118.85 175.15 119.78 C 175.04 120.70 175.70 121.53 176.62 121.64 Z M 177.56 121.74 L 178.57 121.88 C 179.48 122.01 180.33 121.37 180.45 120.46 C 180.58 119.55 179.94 118.70 179.03 118.57 L 178.02 118.43 C 177.11 118.31 176.27 118.94 176.14 119.86 C 176.01 120.77 176.65 121.62 177.56 121.74 Z M 178.52 121.87 L 179.50 122.03 C 180.41 122.19 181.27 121.58 181.42 120.67 C 181.57 119.77 180.96 118.91 180.06 118.76 L 179.08 118.59 C 178.17 118.44 177.31 119.05 177.16 119.95 C 177.01 120.86 177.62 121.71 178.52 121.87 Z M 179.44 122.01 L 180.41 122.21 C 181.30 122.40 182.18 121.83 182.37 120.93 C 182.55 120.04 181.98 119.16 181.08 118.98 L 180.12 118.77 C 179.22 118.59 178.35 119.16 178.16 120.06 C 177.98 120.95 178.55 121.83 179.44 122.01 Z M 180.34 122.19 L 181.30 122.43 C 182.18 122.66 183.07 122.12 183.30 121.24 C 183.52 120.36 182.99 119.47 182.11 119.24 L 181.15 119.00 C 180.27 118.78 179.37 119.31 179.15 120.19 C 178.93 121.07 179.46 121.97 180.34 122.19 Z M 181.23 122.41 L 182.17 122.69 C 183.04 122.96 183.96 122.47 184.22 121.60 C 184.48 120.73 183.99 119.81 183.12 119.55 L 182.18 119.27 C 181.31 119.00 180.39 119.49 180.13 120.36 C 179.87 121.23 180.36 122.15 181.23 122.41 Z M 182.12 122.68 L 183.06 123.00 C 183.92 123.29 184.85 122.83 185.14 121.98 C 185.44 121.12 184.98 120.19 184.12 119.89 L 183.18 119.57 C 182.32 119.28 181.39 119.74 181.09 120.59 C 180.80 121.45 181.26 122.38 182.12 122.68 Z M 183.02 122.98 L 183.97 123.33 C 184.82 123.64 185.76 123.21 186.07 122.36 C 186.38 121.51 185.95 120.57 185.10 120.25 L 184.16 119.91 C 183.31 119.59 182.36 120.03 182.05 120.88 C 181.74 121.73 182.17 122.67 183.02 122.98 Z M 183.95 123.32 L 184.89 123.68 C 185.73 124.01 186.68 123.59 187.01 122.74 C 187.33 121.90 186.91 120.95 186.06 120.62 L 185.12 120.26 C 184.27 119.94 183.33 120.36 183.00 121.21 C 182.68 122.05 183.10 123.00 183.95 123.32 Z M 184.89 123.68 L 185.13 123.78 C 185.97 124.10 186.92 123.68 187.25 122.84 C 187.58 122.00 187.16 121.05 186.31 120.72 L 186.07 120.63 C 185.22 120.30 184.28 120.72 183.95 121.56 C 183.62 122.41 184.04 123.35 184.89 123.68 Z"
      fill="black"
      fill-rule="nonzero" /><path d="M 155.50 145.19 L 156.32 144.66 C 157.12 144.14 157.35 143.07 156.83 142.27 C 156.31 141.47 155.24 141.24 154.43 141.76 L 153.62 142.29 C 152.81 142.81 152.59 143.88 153.11 144.68 C 153.63 145.48 154.70 145.71 155.50 145.19 Z M 156.29 144.68 L 157.12 144.16 C 157.93 143.66 158.19 142.59 157.68 141.78 C 157.18 140.97 156.12 140.72 155.30 141.22 L 154.47 141.74 C 153.65 142.24 153.40 143.31 153.91 144.12 C 154.41 144.93 155.47 145.18 156.29 144.68 Z M 157.06 144.20 L 157.93 143.71 C 158.76 143.24 159.06 142.19 158.59 141.36 C 158.13 140.52 157.07 140.23 156.24 140.69 L 155.37 141.18 C 154.53 141.65 154.24 142.71 154.70 143.54 C 155.17 144.37 156.23 144.67 157.06 144.20 Z M 157.84 143.76 L 158.76 143.31 C 159.62 142.90 159.98 141.86 159.57 141.00 C 159.15 140.14 158.12 139.78 157.26 140.20 L 156.33 140.65 C 155.47 141.06 155.11 142.10 155.53 142.96 C 155.94 143.82 156.98 144.18 157.84 143.76 Z M 158.65 143.36 L 159.59 142.99 C 160.48 142.63 160.91 141.63 160.56 140.74 C 160.20 139.86 159.20 139.42 158.31 139.78 L 157.37 140.15 C 156.48 140.50 156.05 141.51 156.40 142.39 C 156.76 143.28 157.76 143.71 158.65 143.36 Z M 159.49 143.02 L 160.46 142.70 C 161.37 142.40 161.86 141.42 161.56 140.52 C 161.26 139.61 160.28 139.12 159.38 139.42 L 158.41 139.74 C 157.50 140.05 157.01 141.02 157.31 141.93 C 157.61 142.83 158.59 143.32 159.49 143.02 Z M 160.40 142.71 L 161.38 142.43 C 162.29 142.17 162.82 141.21 162.55 140.30 C 162.29 139.39 161.34 138.86 160.42 139.12 L 159.44 139.41 C 158.53 139.67 158.00 140.62 158.27 141.54 C 158.53 142.45 159.48 142.98 160.40 142.71 Z M 161.33 142.44 L 162.29 142.19 C 163.21 141.95 163.76 141.01 163.52 140.09 C 163.28 139.18 162.34 138.63 161.43 138.86 L 160.47 139.12 C 159.55 139.35 159.00 140.29 159.24 141.21 C 159.48 142.13 160.42 142.68 161.33 142.44 Z M 162.27 142.19 L 163.22 141.95 C 164.14 141.73 164.70 140.80 164.47 139.88 C 164.24 138.96 163.31 138.40 162.40 138.63 L 161.45 138.86 C 160.53 139.09 159.97 140.02 160.20 140.94 C 160.43 141.86 161.35 142.42 162.27 142.19 Z M 163.21 141.95 L 164.18 141.72 C 165.09 141.50 165.66 140.57 165.44 139.66 C 165.22 138.74 164.30 138.18 163.38 138.40 L 162.41 138.63 C 161.49 138.85 160.93 139.78 161.15 140.69 C 161.37 141.61 162.29 142.17 163.21 141.95 Z M 164.15 141.71 L 165.10 141.50 C 166.01 141.29 166.59 140.38 166.38 139.47 C 166.17 138.55 165.26 137.98 164.35 138.19 L 163.40 138.40 C 162.49 138.61 161.92 139.52 162.12 140.43 C 162.33 141.35 163.24 141.92 164.15 141.71 Z M 165.06 141.50 L 166.03 141.30 C 166.95 141.11 167.54 140.22 167.35 139.31 C 167.16 138.39 166.27 137.80 165.35 137.99 L 164.38 138.19 C 163.47 138.37 162.88 139.27 163.07 140.18 C 163.26 141.10 164.15 141.69 165.06 141.50 Z M 165.99 141.30 L 166.97 141.12 C 167.88 140.96 168.49 140.08 168.33 139.17 C 168.16 138.26 167.29 137.65 166.37 137.81 L 165.39 137.99 C 164.48 138.15 163.87 139.03 164.04 139.94 C 164.20 140.86 165.08 141.46 165.99 141.30 Z M 166.94 141.12 L 167.86 140.97 C 168.77 140.83 169.40 139.97 169.25 139.06 C 169.11 138.14 168.25 137.52 167.33 137.67 L 166.41 137.82 C 165.50 137.96 164.87 138.82 165.02 139.73 C 165.16 140.64 166.02 141.27 166.94 141.12 Z M 167.84 140.97 L 168.82 140.82 C 169.73 140.69 170.36 139.85 170.23 138.94 C 170.09 138.03 169.25 137.40 168.34 137.53 L 167.36 137.67 C 166.45 137.81 165.82 138.65 165.95 139.56 C 166.08 140.47 166.93 141.10 167.84 140.97 Z M 168.80 140.82 L 169.82 140.68 C 170.73 140.55 171.36 139.72 171.24 138.81 C 171.11 137.90 170.28 137.27 169.37 137.40 L 168.35 137.54 C 167.45 137.66 166.81 138.50 166.94 139.40 C 167.06 140.31 167.90 140.94 168.80 140.82 Z M 169.81 140.67 L 170.86 140.53 C 171.76 140.41 172.39 139.58 172.27 138.68 C 172.15 137.78 171.32 137.14 170.42 137.26 L 169.38 137.40 C 168.48 137.52 167.84 138.35 167.96 139.25 C 168.08 140.16 168.91 140.79 169.81 140.67 Z M 170.85 140.52 L 171.35 140.46 C 172.25 140.34 172.88 139.52 172.76 138.62 C 172.64 137.72 171.82 137.09 170.92 137.21 L 170.42 137.27 C 169.52 137.39 168.89 138.21 169.01 139.11 C 169.13 140.01 169.95 140.64 170.85 140.52 Z"
      fill="black"
      fill-rule="nonzero" /><path d="M 156.28 154.20 L 157.30 154.20 C 158.24 154.20 159.00 153.44 159.00 152.50 C 159.00 151.56 158.24 150.79 157.30 150.79 L 156.28 150.79 C 155.34 150.79 154.58 151.56 154.58 152.50 C 154.58 153.44 155.34 154.20 156.28 154.20 Z M 157.30 154.20 L 158.31 154.20 C 159.25 154.20 160.01 153.44 160.01 152.50 C 160.01 151.55 159.25 150.79 158.31 150.79 L 157.30 150.79 C 156.36 150.79 155.59 151.55 155.59 152.50 C 155.59 153.44 156.36 154.20 157.30 154.20 Z M 158.31 154.21 L 159.29 154.21 C 160.24 154.21 161.01 153.44 161.01 152.50 C 161.01 151.55 160.24 150.79 159.29 150.79 L 158.31 150.79 C 157.36 150.79 156.60 151.55 156.60 152.50 C 156.60 153.44 157.36 154.21 158.31 154.21 Z M 159.29 154.21 L 160.29 154.21 C 161.24 154.21 162.01 153.44 162.01 152.50 C 162.01 151.55 161.24 150.78 160.29 150.78 L 159.29 150.78 C 158.35 150.78 157.58 151.55 157.58 152.50 C 157.58 153.44 158.35 154.21 159.29 154.21 Z M 160.29 154.21 L 161.29 154.21 C 162.24 154.21 163.01 153.44 163.01 152.50 C 163.01 151.55 162.24 150.78 161.29 150.78 L 160.29 150.78 C 159.34 150.78 158.57 151.55 158.57 152.50 C 158.57 153.44 159.34 154.21 160.29 154.21 Z M 161.29 154.22 L 162.28 154.22 C 163.23 154.22 164.00 153.45 164.00 152.50 C 164.00 151.55 163.23 150.78 162.28 150.78 L 161.29 150.78 C 160.34 150.78 159.57 151.55 159.57 152.50 C 159.57 153.45 160.34 154.22 161.29 154.22 Z M 162.28 154.22 L 163.26 154.22 C 164.21 154.22 164.98 153.45 164.98 152.50 C 164.98 151.55 164.21 150.78 163.26 150.78 L 162.28 150.78 C 161.33 150.78 160.56 151.55 160.56 152.50 C 160.56 153.45 161.33 154.22 162.28 154.22 Z M 163.26 154.22 L 164.24 154.22 C 165.19 154.22 165.96 153.45 165.96 152.50 C 165.96 151.55 165.19 150.78 164.24 150.78 L 163.26 150.78 C 162.31 150.78 161.54 151.55 161.54 152.50 C 161.54 153.45 162.31 154.22 163.26 154.22 Z M 164.24 154.22 L 165.25 154.22 C 166.20 154.22 166.97 153.45 166.97 152.50 C 166.97 151.55 166.20 150.78 165.25 150.78 L 164.24 150.78 C 163.29 150.78 162.52 151.55 162.52 152.50 C 162.52 153.45 163.29 154.22 164.24 154.22 Z M 165.25 154.22 L 166.28 154.22 C 167.23 154.22 168.00 153.45 168.00 152.50 C 168.00 151.55 167.23 150.78 166.28 150.78 L 165.25 150.78 C 164.30 150.78 163.53 151.55 163.53 152.50 C 163.53 153.45 164.30 154.22 165.25 154.22 Z M 166.28 154.22 L 167.26 154.22 C 168.21 154.22 168.98 153.45 168.98 152.50 C 168.98 151.55 168.21 150.78 167.26 150.78 L 166.28 150.78 C 165.33 150.78 164.56 151.55 164.56 152.50 C 164.56 153.45 165.33 154.22 166.28 154.22 Z M 167.26 154.22 L 168.26 154.22 C 169.21 154.22 169.98 153.45 169.98 152.50 C 169.98 151.55 169.21 150.78 168.26 150.78 L 167.26 150.78 C 166.31 150.78 165.54 151.55 165.54 152.50 C 165.54 153.45 166.31 154.22 167.26 154.22 Z M 168.26 154.21 L 169.27 154.21 C 170.22 154.21 170.99 153.45 170.99 152.50 C 170.99 151.55 170.22 150.78 169.27 150.78 L 168.26 150.78 C 167.31 150.78 166.54 151.55 166.54 152.50 C 166.54 153.45 167.31 154.21 168.26 154.21 Z M 169.27 154.21 L 170.30 154.21 C 171.25 154.21 172.02 153.45 172.02 152.50 C 172.02 151.55 171.25 150.78 170.30 150.78 L 169.27 150.78 C 168.32 150.78 167.56 151.55 167.56 152.50 C 167.55 153.44 168.32 154.21 169.27 154.21 Z M 170.27 154.21 L 171.30 154.23 C 172.25 154.25 173.03 153.50 173.05 152.55 C 173.06 151.60 172.31 150.82 171.36 150.80 L 170.33 150.78 C 169.39 150.76 168.60 151.52 168.59 152.46 C 168.57 153.41 169.32 154.19 170.27 154.21 Z M 171.20 154.23 L 172.20 154.30 C 173.14 154.37 173.96 153.67 174.04 152.72 C 174.11 151.78 173.40 150.96 172.46 150.88 L 171.46 150.81 C 170.52 150.74 169.70 151.44 169.62 152.39 C 169.55 153.33 170.26 154.15 171.20 154.23 Z M 172.02 154.28 L 172.96 154.45 C 173.89 154.62 174.78 154.00 174.95 153.07 C 175.12 152.14 174.50 151.25 173.57 151.08 L 172.63 150.91 C 171.70 150.74 170.81 151.36 170.64 152.29 C 170.47 153.22 171.09 154.11 172.02 154.28 Z M 172.68 154.37 L 173.64 154.72 C 174.53 155.05 175.51 154.59 175.84 153.70 C 176.16 152.82 175.70 151.83 174.82 151.51 L 173.85 151.16 C 172.97 150.83 171.98 151.29 171.66 152.18 C 171.34 153.06 171.79 154.04 172.68 154.37 Z M 173.27 154.53 L 174.08 155.08 C 174.86 155.61 175.92 155.41 176.46 154.63 C 176.99 153.85 176.78 152.79 176.01 152.26 L 175.19 151.70 C 174.41 151.17 173.35 151.38 172.82 152.16 C 172.29 152.93 172.49 154.00 173.27 154.53 Z M 173.69 154.71 L 174.28 155.48 C 174.85 156.22 175.92 156.36 176.67 155.79 C 177.42 155.22 177.56 154.15 176.99 153.40 L 176.40 152.63 C 175.82 151.89 174.75 151.74 174.01 152.32 C 173.26 152.89 173.12 153.96 173.69 154.71 Z M 174.02 154.98 L 174.32 155.87 C 174.62 156.76 175.58 157.24 176.47 156.94 C 177.36 156.65 177.84 155.68 177.54 154.79 L 177.24 153.90 C 176.95 153.01 175.99 152.53 175.10 152.83 C 174.21 153.13 173.73 154.09 174.02 154.98 Z M 174.25 155.45 L 174.32 156.44 C 174.38 157.37 175.19 158.07 176.12 158.01 C 177.04 157.94 177.75 157.14 177.68 156.21 L 177.61 155.22 C 177.55 154.29 176.75 153.59 175.82 153.65 C 174.89 153.71 174.19 154.52 174.25 155.45 Z M 174.34 156.10 L 174.20 157.12 C 174.08 158.03 174.72 158.88 175.63 159.00 C 176.55 159.13 177.39 158.49 177.52 157.57 L 177.66 156.55 C 177.78 155.64 177.14 154.79 176.23 154.67 C 175.31 154.54 174.47 155.18 174.34 156.10 Z M 174.29 156.81 L 173.98 157.73 C 173.68 158.60 174.14 159.54 175.01 159.84 C 175.88 160.13 176.82 159.67 177.12 158.80 L 177.43 157.88 C 177.73 157.02 177.26 156.07 176.40 155.78 C 175.53 155.48 174.58 155.94 174.29 156.81 Z M 174.10 157.46 L 173.68 158.22 C 173.23 159.02 173.51 160.03 174.31 160.47 C 175.11 160.92 176.12 160.64 176.56 159.84 L 176.99 159.07 C 177.44 158.28 177.15 157.27 176.35 156.82 C 175.56 156.38 174.55 156.66 174.10 157.46 Z M 173.81 158.03 L 173.23 158.78 C 172.68 159.50 172.82 160.54 173.54 161.09 C 174.27 161.65 175.31 161.51 175.86 160.78 L 176.43 160.03 C 176.99 159.31 176.85 158.27 176.12 157.72 C 175.40 157.16 174.36 157.30 173.81 158.03 Z M 173.33 158.66 L 172.61 159.44 C 171.99 160.11 172.03 161.16 172.70 161.78 C 173.37 162.40 174.41 162.36 175.03 161.69 L 175.76 160.90 C 176.38 160.23 176.34 159.19 175.67 158.57 C 175.00 157.95 173.95 157.99 173.33 158.66 Z M 172.66 159.39 L 171.86 160.18 C 171.21 160.81 171.20 161.86 171.84 162.51 C 172.48 163.16 173.52 163.17 174.17 162.53 L 174.98 161.74 C 175.63 161.10 175.64 160.06 175.00 159.41 C 174.36 158.76 173.31 158.75 172.66 159.39 Z M 171.88 160.15 L 171.20 160.80 C 170.54 161.42 170.51 162.47 171.13 163.13 C 171.76 163.79 172.80 163.82 173.46 163.20 L 174.15 162.55 C 174.81 161.93 174.84 160.88 174.22 160.22 C 173.59 159.56 172.55 159.53 171.88 160.15 Z M 171.22 160.78 L 170.48 161.46 C 169.81 162.08 169.77 163.12 170.38 163.79 C 171.00 164.46 172.04 164.50 172.71 163.89 L 173.45 163.21 C 174.12 162.60 174.16 161.55 173.55 160.88 C 172.93 160.21 171.89 160.17 171.22 160.78 Z M 170.50 161.45 L 169.73 162.14 C 169.05 162.74 168.99 163.78 169.60 164.46 C 170.21 165.14 171.25 165.20 171.92 164.59 L 172.70 163.90 C 173.37 163.29 173.43 162.25 172.82 161.58 C 172.22 160.90 171.18 160.84 170.50 161.45 Z M 169.74 162.12 L 168.96 162.81 C 168.27 163.40 168.20 164.44 168.80 165.13 C 169.40 165.82 170.44 165.89 171.12 165.29 L 171.91 164.61 C 172.59 164.01 172.66 162.97 172.07 162.28 C 171.47 161.60 170.43 161.53 169.74 162.12 Z M 168.98 162.79 L 168.20 163.45 C 167.50 164.04 167.42 165.08 168.00 165.77 C 168.59 166.47 169.63 166.55 170.32 165.97 L 171.10 165.30 C 171.80 164.72 171.88 163.68 171.30 162.99 C 170.71 162.29 169.67 162.21 168.98 162.79 Z M 168.22 163.44 L 167.44 164.07 C 166.73 164.65 166.63 165.68 167.20 166.39 C 167.78 167.09 168.81 167.20 169.52 166.62 L 170.30 165.98 C 171.00 165.41 171.11 164.37 170.53 163.67 C 169.96 162.97 168.92 162.86 168.22 163.44 Z M 167.46 164.05 L 166.65 164.68 C 165.94 165.24 165.81 166.28 166.37 166.99 C 166.93 167.71 167.96 167.84 168.68 167.28 L 169.49 166.64 C 170.20 166.09 170.33 165.05 169.77 164.34 C 169.21 163.62 168.18 163.49 167.46 164.05 Z M 166.68 164.66 L 165.89 165.25 C 165.17 165.79 165.01 166.82 165.56 167.55 C 166.10 168.28 167.13 168.43 167.86 167.89 L 168.65 167.30 C 169.38 166.76 169.53 165.73 168.98 165.00 C 168.44 164.27 167.41 164.12 166.68 164.66 Z M 165.92 165.23 L 165.13 165.79 C 164.39 166.32 164.22 167.34 164.75 168.08 C 165.27 168.82 166.30 169.00 167.04 168.47 L 167.83 167.91 C 168.57 167.38 168.74 166.35 168.22 165.61 C 167.69 164.88 166.66 164.70 165.92 165.23 Z M 165.16 165.77 L 164.35 166.33 C 163.60 166.84 163.41 167.86 163.92 168.61 C 164.44 169.36 165.46 169.55 166.21 169.04 L 167.02 168.48 C 167.77 167.97 167.96 166.95 167.44 166.20 C 166.93 165.45 165.91 165.26 165.16 165.77 Z M 164.37 166.32 L 163.52 166.88 C 162.77 167.39 162.56 168.41 163.07 169.16 C 163.57 169.92 164.59 170.12 165.35 169.61 L 166.19 169.05 C 166.95 168.54 167.15 167.52 166.65 166.77 C 166.14 166.02 165.12 165.81 164.37 166.32 Z M 163.53 166.88 L 162.71 167.42 C 161.96 167.91 161.75 168.93 162.25 169.69 C 162.74 170.45 163.76 170.66 164.52 170.16 L 165.34 169.62 C 166.10 169.12 166.31 168.10 165.81 167.34 C 165.31 166.59 164.29 166.38 163.53 166.88 Z M 162.72 167.41 L 161.88 167.96 C 161.12 168.45 160.90 169.47 161.40 170.23 C 161.89 170.99 162.91 171.21 163.67 170.71 L 164.51 170.17 C 165.27 169.67 165.49 168.65 165.00 167.89 C 164.50 167.13 163.48 166.91 162.72 167.41 Z M 161.89 167.95 L 161.02 168.50 C 160.26 168.99 160.04 170.01 160.52 170.77 C 161.01 171.54 162.03 171.76 162.79 171.27 L 163.66 170.72 C 164.42 170.23 164.65 169.22 164.16 168.45 C 163.67 167.69 162.65 167.46 161.89 167.95 Z M 161.04 168.49 L 160.17 169.04 C 159.40 169.52 159.17 170.53 159.65 171.30 C 160.13 172.07 161.14 172.31 161.91 171.82 L 162.78 171.28 C 163.55 170.80 163.78 169.79 163.30 169.02 C 162.82 168.25 161.81 168.01 161.04 168.49 Z M 160.19 169.03 L 159.33 169.55 C 158.55 170.02 158.31 171.03 158.78 171.81 C 159.25 172.58 160.26 172.83 161.04 172.36 L 161.90 171.83 C 162.67 171.36 162.92 170.35 162.44 169.58 C 161.97 168.80 160.96 168.55 160.19 169.03 Z M 159.35 169.54 L 158.51 170.03 C 157.73 170.49 157.47 171.50 157.93 172.28 C 158.39 173.06 159.40 173.32 160.18 172.86 L 161.02 172.37 C 161.80 171.91 162.06 170.90 161.60 170.12 C 161.14 169.34 160.13 169.08 159.35 169.54 Z M 158.54 170.01 L 157.58 170.55 C 156.78 171.00 156.50 172.00 156.95 172.79 C 157.39 173.58 158.39 173.87 159.18 173.42 L 160.15 172.88 C 160.95 172.44 161.23 171.43 160.78 170.64 C 160.34 169.85 159.34 169.56 158.54 170.01 Z M 157.62 170.53 L 156.69 171.01 C 155.88 171.43 155.57 172.43 156.00 173.24 C 156.42 174.04 157.41 174.35 158.22 173.93 L 159.15 173.45 C 159.95 173.02 160.26 172.03 159.84 171.22 C 159.42 170.42 158.42 170.11 157.62 170.53 Z M 156.74 170.99 L 155.85 171.41 C 155.03 171.81 154.69 172.80 155.08 173.62 C 155.48 174.44 156.47 174.78 157.29 174.39 L 158.17 173.96 C 158.99 173.56 159.34 172.58 158.94 171.75 C 158.54 170.93 157.56 170.59 156.74 170.99 Z M 155.90 171.39 L 155.05 171.76 C 154.21 172.13 153.83 173.11 154.20 173.94 C 154.56 174.78 155.54 175.16 156.37 174.79 L 157.23 174.41 C 158.07 174.05 158.45 173.07 158.08 172.24 C 157.71 171.40 156.74 171.02 155.90 171.39 Z M 155.10 171.73 L 154.19 172.09 C 153.34 172.43 152.92 173.39 153.26 174.24 C 153.59 175.09 154.55 175.51 155.40 175.18 L 156.31 174.82 C 157.17 174.49 157.59 173.52 157.25 172.67 C 156.92 171.82 155.96 171.40 155.10 171.73 Z M 154.25 172.05 L 152.97 172.49 C 152.09 172.79 151.62 173.75 151.92 174.63 C 152.23 175.50 153.18 175.97 154.06 175.67 L 155.35 175.22 C 156.22 174.92 156.69 173.96 156.39 173.09 C 156.08 172.21 155.13 171.74 154.25 172.05 Z M 152.97 172.45 L 152.01 172.77 C 151.11 173.07 150.62 174.04 150.92 174.94 C 151.22 175.84 152.19 176.33 153.09 176.03 L 154.06 175.71 C 154.96 175.41 155.44 174.43 155.14 173.53 C 154.84 172.63 153.87 172.15 152.97 172.45 Z M 151.74 172.84 L 151.37 173.03 C 150.51 173.48 150.18 174.54 150.63 175.40 C 151.08 176.27 152.14 176.60 153.00 176.15 L 153.37 175.96 C 154.23 175.51 154.56 174.45 154.11 173.58 C 153.66 172.72 152.60 172.39 151.74 172.84 Z M 152.00 176.40 L 152.68 176.46 C 153.67 176.57 154.57 175.84 154.67 174.84 C 154.77 173.84 154.04 172.95 153.04 172.85 L 152.37 172.78 C 151.37 172.68 150.48 173.41 150.38 174.41 C 150.28 175.40 151.01 176.29 152.00 176.40 Z M 152.71 176.54 L 154.05 176.64 C 155.09 176.72 155.99 175.94 156.07 174.91 C 156.15 173.87 155.38 172.96 154.34 172.88 L 153.01 172.78 C 151.97 172.70 151.06 173.47 150.98 174.51 C 150.90 175.55 151.68 176.46 152.71 176.54 Z M 153.77 176.64 L 154.70 176.84 C 155.73 177.08 156.76 176.43 156.99 175.39 C 157.23 174.36 156.58 173.33 155.54 173.09 L 154.62 172.89 C 153.58 172.65 152.55 173.30 152.32 174.34 C 152.09 175.37 152.74 176.40 153.77 176.64 Z M 154.47 176.79 L 155.39 177.11 C 156.39 177.47 157.50 176.95 157.85 175.94 C 158.21 174.94 157.69 173.84 156.68 173.48 L 155.77 173.15 C 154.76 172.79 153.66 173.32 153.30 174.32 C 152.94 175.33 153.47 176.43 154.47 176.79 Z M 155.25 177.07 L 156.21 177.49 C 157.19 177.93 158.33 177.49 158.77 176.51 C 159.20 175.53 158.76 174.39 157.78 173.95 L 156.82 173.52 C 155.85 173.09 154.70 173.53 154.26 174.51 C 153.83 175.49 154.27 176.63 155.25 177.07 Z M 156.15 177.47 L 157.01 177.89 C 157.98 178.36 159.14 177.95 159.61 176.99 C 160.08 176.02 159.67 174.86 158.71 174.39 L 157.84 173.97 C 156.88 173.50 155.71 173.91 155.24 174.88 C 154.78 175.84 155.18 177.00 156.15 177.47 Z M 156.99 177.89 L 157.86 178.32 C 158.82 178.79 159.99 178.40 160.47 177.44 C 160.95 176.48 160.56 175.31 159.59 174.83 L 158.73 174.40 C 157.77 173.92 156.60 174.31 156.12 175.27 C 155.64 176.24 156.03 177.41 156.99 177.89 Z M 157.85 178.32 L 158.76 178.77 C 159.72 179.26 160.89 178.87 161.38 177.90 C 161.86 176.94 161.47 175.77 160.51 175.28 L 159.60 174.83 C 158.64 174.34 157.46 174.73 156.98 175.69 C 156.49 176.66 156.88 177.83 157.85 178.32 Z M 158.76 178.78 L 159.70 179.25 C 160.67 179.73 161.84 179.34 162.33 178.37 C 162.81 177.41 162.42 176.23 161.45 175.75 L 160.51 175.28 C 159.54 174.79 158.36 175.19 157.88 176.15 C 157.40 177.12 157.79 178.29 158.76 178.78 Z M 159.71 179.26 L 160.62 179.70 C 161.59 180.18 162.76 179.78 163.24 178.81 C 163.72 177.84 163.32 176.66 162.34 176.18 L 161.44 175.74 C 160.47 175.26 159.29 175.66 158.82 176.63 C 158.34 177.61 158.74 178.78 159.71 179.26 Z M 160.63 179.71 L 161.50 180.13 C 162.48 180.60 163.65 180.19 164.12 179.22 C 164.59 178.24 164.18 177.07 163.21 176.60 L 162.33 176.18 C 161.36 175.71 160.19 176.11 159.71 177.09 C 159.24 178.06 159.65 179.24 160.63 179.71 Z M 161.51 180.13 L 162.40 180.56 C 163.38 181.03 164.55 180.62 165.02 179.64 C 165.48 178.66 165.07 177.49 164.10 177.02 L 163.20 176.60 C 162.23 176.13 161.05 176.54 160.59 177.52 C 160.12 178.49 160.53 179.67 161.51 180.13 Z M 162.40 180.56 L 163.31 181.00 C 164.29 181.47 165.46 181.06 165.93 180.08 C 166.40 179.10 165.99 177.93 165.01 177.46 L 164.10 177.02 C 163.12 176.56 161.95 176.97 161.48 177.95 C 161.01 178.92 161.42 180.10 162.40 180.56 Z M 163.31 181.00 L 164.25 181.45 C 165.22 181.92 166.40 181.51 166.87 180.54 C 167.34 179.56 166.93 178.39 165.95 177.92 L 165.01 177.46 C 164.04 176.99 162.86 177.40 162.39 178.38 C 161.92 179.36 162.33 180.53 163.31 181.00 Z M 164.24 181.45 L 165.05 181.84 C 166.03 182.32 167.20 181.91 167.68 180.94 C 168.15 179.96 167.74 178.79 166.77 178.31 L 165.96 177.92 C 164.98 177.44 163.81 177.85 163.33 178.82 C 162.86 179.80 163.27 180.97 164.24 181.45 Z M 165.05 181.84 L 165.86 182.24 C 166.84 182.71 168.01 182.31 168.49 181.34 C 168.96 180.36 168.56 179.19 167.58 178.71 L 166.77 178.32 C 165.80 177.84 164.62 178.24 164.15 179.22 C 163.67 180.19 164.08 181.37 165.05 181.84 Z M 165.87 182.24 L 166.72 182.65 C 167.69 183.13 168.87 182.72 169.34 181.75 C 169.81 180.77 169.41 179.60 168.43 179.12 L 167.58 178.71 C 166.60 178.24 165.43 178.64 164.96 179.62 C 164.48 180.59 164.89 181.77 165.87 182.24 Z M 166.73 182.66 L 167.64 183.09 C 168.61 183.56 169.79 183.15 170.25 182.17 C 170.72 181.19 170.31 180.02 169.33 179.55 L 168.42 179.12 C 167.45 178.65 166.27 179.06 165.81 180.04 C 165.34 181.02 165.75 182.19 166.73 182.66 Z M 167.65 183.10 L 168.63 183.56 C 169.61 184.02 170.78 183.60 171.24 182.62 C 171.70 181.64 171.28 180.47 170.30 180.01 L 169.32 179.55 C 168.34 179.09 167.17 179.51 166.71 180.49 C 166.25 181.47 166.67 182.64 167.65 183.10 Z M 168.65 183.57 L 169.70 184.05 C 170.68 184.50 171.85 184.07 172.30 183.09 C 172.75 182.10 172.32 180.94 171.34 180.49 L 170.28 180.00 C 169.30 179.55 168.13 179.98 167.68 180.97 C 167.23 181.95 167.66 183.11 168.65 183.57 Z M 169.72 184.06 L 170.55 184.43 C 171.53 184.87 172.69 184.43 173.14 183.45 C 173.58 182.46 173.14 181.30 172.15 180.85 L 171.32 180.48 C 170.33 180.04 169.17 180.48 168.73 181.47 C 168.29 182.45 168.73 183.61 169.72 184.06 Z M 170.56 184.43 L 171.43 184.82 C 172.42 185.26 173.58 184.81 174.01 183.82 C 174.45 182.83 174.00 181.67 173.01 181.24 L 172.14 180.85 C 171.15 180.41 169.99 180.86 169.56 181.85 C 169.12 182.84 169.57 184.00 170.56 184.43 Z M 171.44 184.82 L 172.35 185.22 C 173.34 185.65 174.49 185.19 174.92 184.20 C 175.35 183.21 174.90 182.06 173.91 181.63 L 173.00 181.23 C 172.01 180.80 170.86 181.26 170.43 182.25 C 170.00 183.24 170.45 184.39 171.44 184.82 Z M 172.36 185.22 L 173.29 185.62 C 174.28 186.04 175.43 185.59 175.86 184.59 C 176.28 183.60 175.82 182.45 174.83 182.03 L 173.90 181.63 C 172.91 181.20 171.76 181.66 171.33 182.65 C 170.91 183.64 171.37 184.79 172.36 185.22 Z M 173.30 185.62 L 174.25 186.02 C 175.24 186.44 176.39 185.98 176.81 184.99 C 177.23 183.99 176.77 182.85 175.77 182.43 L 174.82 182.03 C 173.83 181.60 172.68 182.07 172.26 183.06 C 171.84 184.05 172.31 185.20 173.30 185.62 Z M 174.26 186.02 L 175.22 186.43 C 176.21 186.84 177.35 186.37 177.77 185.38 C 178.19 184.38 177.72 183.24 176.72 182.83 L 175.76 182.43 C 174.77 182.01 173.63 182.48 173.21 183.47 C 172.80 184.47 173.27 185.61 174.26 186.02 Z M 175.23 186.43 L 176.19 186.82 C 177.18 187.23 178.32 186.76 178.73 185.76 C 179.14 184.77 178.67 183.63 177.67 183.22 L 176.71 182.82 C 175.72 182.41 174.58 182.89 174.17 183.88 C 173.76 184.88 174.23 186.02 175.23 186.43 Z M 176.20 186.82 L 177.15 187.21 C 178.15 187.62 179.28 187.14 179.69 186.14 C 180.09 185.15 179.61 184.01 178.62 183.61 L 177.66 183.22 C 176.67 182.81 175.53 183.29 175.13 184.29 C 174.72 185.28 175.20 186.42 176.20 186.82 Z M 177.16 187.21 L 178.20 187.62 C 179.20 188.02 180.32 187.54 180.72 186.54 C 181.12 185.55 180.64 184.42 179.64 184.03 L 178.60 183.61 C 177.61 183.21 176.48 183.70 176.08 184.69 C 175.69 185.68 176.17 186.81 177.16 187.21 Z M 178.22 187.62 L 179.23 188.02 C 180.22 188.41 181.34 187.92 181.73 186.93 C 182.12 185.94 181.63 184.82 180.64 184.43 L 179.63 184.03 C 178.64 183.64 177.52 184.13 177.13 185.12 C 176.74 186.11 177.23 187.23 178.22 187.62 Z M 179.24 188.01 L 180.22 188.39 C 181.21 188.77 182.32 188.28 182.70 187.30 C 183.08 186.31 182.59 185.20 181.61 184.82 L 180.63 184.44 C 179.64 184.06 178.53 184.55 178.15 185.53 C 177.77 186.52 178.26 187.62 179.24 188.01 Z M 180.24 188.38 L 181.18 188.74 C 182.16 189.12 183.26 188.63 183.64 187.65 C 184.01 186.67 183.52 185.57 182.54 185.19 L 181.60 184.83 C 180.62 184.46 179.52 184.94 179.14 185.92 C 178.77 186.90 179.26 188.00 180.24 188.38 Z M 181.19 188.73 L 182.10 189.08 C 183.08 189.45 184.17 188.95 184.53 187.98 C 184.90 187.01 184.41 185.92 183.44 185.55 L 182.53 185.20 C 181.56 184.83 180.47 185.32 180.10 186.30 C 179.73 187.27 180.22 188.36 181.19 188.73 Z M 182.11 189.07 L 182.97 189.39 C 183.94 189.75 185.02 189.26 185.39 188.29 C 185.75 187.32 185.26 186.24 184.29 185.88 L 183.43 185.56 C 182.46 185.19 181.38 185.68 181.01 186.65 C 180.65 187.62 181.14 188.70 182.11 189.07 Z M 182.98 189.38 L 183.79 189.68 C 184.76 190.04 185.83 189.55 186.19 188.58 C 186.54 187.62 186.05 186.55 185.09 186.19 L 184.28 185.89 C 183.31 185.53 182.24 186.02 181.88 186.99 C 181.53 187.95 182.02 189.02 182.98 189.38 Z M 183.80 189.66 L 184.84 190.04 C 185.79 190.39 186.85 189.90 187.20 188.95 C 187.55 187.99 187.06 186.94 186.11 186.59 L 185.08 186.21 C 184.12 185.85 183.06 186.34 182.71 187.30 C 182.36 188.25 182.85 189.31 183.80 189.66 Z M 184.86 190.02 L 185.86 190.38 C 186.80 190.72 187.84 190.23 188.18 189.29 C 188.52 188.35 188.03 187.31 187.09 186.97 L 186.09 186.61 C 185.15 186.27 184.11 186.76 183.77 187.70 C 183.43 188.64 183.92 189.68 184.86 190.02 Z M 185.88 190.36 L 186.81 190.68 C 187.74 191.01 188.75 190.52 189.08 189.59 C 189.41 188.66 188.92 187.64 187.99 187.32 L 187.06 186.99 C 186.13 186.67 185.11 187.15 184.79 188.08 C 184.46 189.01 184.95 190.03 185.88 190.36 Z M 186.84 190.66 L 187.72 190.96 C 188.63 191.27 189.63 190.78 189.94 189.86 C 190.25 188.94 189.76 187.95 188.84 187.64 L 187.96 187.34 C 187.04 187.03 186.05 187.52 185.74 188.44 C 185.43 189.36 185.92 190.35 186.84 190.66 Z M 187.75 190.94 L 188.61 191.21 C 189.52 191.51 190.49 191.01 190.78 190.10 C 191.07 189.20 190.57 188.23 189.67 187.93 L 188.81 187.66 C 187.90 187.36 186.93 187.86 186.64 188.77 C 186.35 189.67 186.84 190.64 187.75 190.94 Z M 188.64 191.20 L 189.58 191.49 C 190.48 191.76 191.43 191.26 191.71 190.36 C 191.98 189.46 191.48 188.51 190.58 188.24 L 189.64 187.95 C 188.74 187.67 187.79 188.18 187.51 189.08 C 187.24 189.98 187.75 190.93 188.64 191.20 Z M 189.61 191.48 L 190.57 191.76 C 191.46 192.02 192.40 191.51 192.66 190.61 C 192.92 189.72 192.40 188.78 191.51 188.52 L 190.55 188.24 C 189.66 187.98 188.72 188.50 188.46 189.39 C 188.20 190.28 188.71 191.22 189.61 191.48 Z M 190.58 191.75 L 191.55 192.02 C 192.44 192.27 193.36 191.75 193.61 190.87 C 193.86 189.98 193.34 189.05 192.46 188.80 L 191.49 188.53 C 190.60 188.28 189.68 188.80 189.43 189.69 C 189.18 190.58 189.70 191.50 190.58 191.75 Z M 191.56 192.01 L 192.53 192.28 C 193.41 192.52 194.33 192.00 194.57 191.12 C 194.81 190.24 194.29 189.32 193.41 189.08 L 192.44 188.81 C 191.56 188.57 190.65 189.09 190.40 189.97 C 190.16 190.86 190.68 191.77 191.56 192.01 Z M 192.54 192.27 L 193.11 192.43 C 193.99 192.66 194.90 192.15 195.14 191.27 C 195.38 190.39 194.86 189.49 193.98 189.25 L 193.41 189.09 C 192.53 188.85 191.62 189.37 191.38 190.25 C 191.14 191.12 191.66 192.03 192.54 192.27 Z"
      fill="black"
      fill-rule="nonzero" /></svg>