<svg xmlns="http://www.w3.org/2000/svg" width="300" height="300" viewBox="0 0 300 300">
<path d="M 136.18 111.46 L 137.24 111.65 C 138.24 111.84 139.20 111.18 139.38 110.18 C 139.57 109.18 138.91 108.22 137.91 108.03 L 136.86 107.84 C 135.86 107.65 134.90 108.31 134.71 109.31 C 134.53 110.31 135.18 111.27 136.18 111.46 Z M 137.23 111.65 L 138.27 111.85 C 139.27 112.03 140.23 111.38 140.42 110.38 C 140.61 109.38 139.95 108.42 138.95 108.23 L 137.91 108.03 C 136.92 107.85 135.95 108.50 135.77 109.50 C 135.58 110.50 136.23 111.46 137.23 111.65 Z M 138.26 111.85 L 139.27 112.04 C 140.27 112.23 141.23 111.58 141.42 110.58 C 141.62 109.58 140.96 108.62 139.97 108.43 L 138.96 108.23 C 137.96 108.04 137.00 108.69 136.80 109.69 C 136.61 110.69 137.27 111.65 138.26 111.85 Z M 139.26 112.04 L 140.22 112.23 C 141.22 112.43 142.19 111.78 142.38 110.78 C 142.58 109.79 141.93 108.82 140.94 108.62 L 139.98 108.43 C 138.98 108.23 138.01 108.88 137.81 109.87 C 137.61 110.87 138.26 111.84 139.26 112.04 Z M 140.20 112.22 L 141.11 112.41 C 142.10 112.62 143.07 111.98 143.28 110.99 C 143.49 109.99 142.85 109.02 141.86 108.81 L 140.95 108.62 C 139.96 108.41 138.99 109.05 138.78 110.05 C 138.57 111.04 139.21 112.02 140.20 112.22 Z M 141.08 112.39 L 142.07 112.61 C 143.06 112.83 144.03 112.22 144.25 111.23 C 144.47 110.25 143.85 109.27 142.87 109.05 L 141.88 108.83 C 140.90 108.61 139.92 109.23 139.70 110.21 C 139.48 111.20 140.10 112.17 141.08 112.39 Z M 142.04 112.57 L 143.04 112.81 C 144.00 113.05 144.97 112.46 145.20 111.50 C 145.44 110.55 144.85 109.58 143.89 109.34 L 142.90 109.10 C 141.94 108.86 140.97 109.45 140.73 110.41 C 140.50 111.36 141.09 112.33 142.04 112.57 Z M 143.02 112.76 L 143.95 113.01 C 144.87 113.26 145.83 112.71 146.08 111.78 C 146.33 110.85 145.78 109.90 144.85 109.65 L 143.92 109.40 C 142.99 109.15 142.04 109.70 141.79 110.63 C 141.54 111.55 142.09 112.51 143.02 112.76 Z M 143.93 112.95 L 144.85 113.22 C 145.74 113.47 146.68 112.96 146.94 112.06 C 147.20 111.16 146.68 110.22 145.78 109.96 L 144.87 109.70 C 143.97 109.44 143.03 109.96 142.77 110.86 C 142.51 111.76 143.03 112.69 143.93 112.95 Z M 144.84 113.18 L 145.75 113.45 C 146.63 113.71 147.55 113.21 147.81 112.34 C 148.08 111.46 147.58 110.54 146.70 110.28 L 145.79 110.00 C 144.91 109.74 143.99 110.24 143.73 111.12 C 143.46 111.99 143.96 112.92 144.84 113.18 Z M 145.75 113.44 L 146.68 113.72 C 147.55 113.99 148.47 113.50 148.73 112.63 C 149.00 111.76 148.51 110.84 147.64 110.57 L 146.71 110.29 C 145.84 110.02 144.92 110.51 144.65 111.38 C 144.39 112.25 144.88 113.17 145.75 113.44 Z M 146.67 113.72 L 147.64 114.01 C 148.50 114.28 149.42 113.80 149.69 112.93 C 149.96 112.06 149.47 111.14 148.61 110.88 L 147.64 110.58 C 146.78 110.31 145.86 110.80 145.59 111.66 C 145.32 112.53 145.81 113.45 146.67 113.72 Z M 147.63 114.01 L 148.62 114.32 C 149.48 114.59 150.40 114.10 150.67 113.24 C 150.94 112.37 150.46 111.45 149.59 111.19 L 148.61 110.88 C 147.74 110.61 146.82 111.09 146.55 111.96 C 146.29 112.82 146.77 113.74 147.63 114.01 Z M 148.62 114.31 L 149.29 114.53 C 150.16 114.80 151.08 114.32 151.35 113.45 C 151.62 112.59 151.13 111.67 150.27 111.40 L 149.59 111.19 C 148.73 110.92 147.81 111.40 147.54 112.26 C 147.27 113.13 147.75 114.04 148.62 114.31 Z"
      fill="black"
      fill-rule="nonzero" /><path d="M 127.01 138.01 L 127.84 138.11 C 128.85 138.24 129.77 137.52 129.89 136.50 C 130.02 135.49 129.30 134.57 128.28 134.44 L 127.46 134.34 C 126.45 134.22 125.53 134.94 125.40 135.96 C 125.28 136.97 126.00 137.89 127.01 138.01 Z M 127.93 138.14 L 128.83 138.20 C 129.85 138.28 130.74 137.50 130.82 136.48 C 130.89 135.45 130.12 134.56 129.09 134.49 L 128.19 134.42 C 127.17 134.35 126.28 135.12 126.20 136.14 C 126.13 137.17 126.90 138.06 127.93 138.14 Z M 128.97 138.22 L 130.03 138.22 C 131.06 138.21 131.90 137.37 131.90 136.33 C 131.89 135.30 131.05 134.46 130.01 134.46 L 128.95 134.47 C 127.92 134.47 127.08 135.31 127.08 136.35 C 127.09 137.39 127.93 138.23 128.97 138.22 Z M 130.17 138.22 L 131.34 138.13 C 132.38 138.05 133.15 137.14 133.07 136.10 C 132.99 135.06 132.08 134.28 131.04 134.36 L 129.87 134.46 C 128.83 134.54 128.05 135.45 128.14 136.49 C 128.22 137.53 129.13 138.31 130.17 138.22 Z M 131.43 138.13 L 132.32 138.01 C 133.36 137.88 134.09 136.93 133.96 135.89 C 133.82 134.85 132.87 134.12 131.84 134.25 L 130.94 134.37 C 129.90 134.50 129.17 135.45 129.31 136.49 C 129.44 137.53 130.39 138.26 131.43 138.13 Z M 132.37 138.00 L 133.34 137.85 C 134.37 137.69 135.08 136.72 134.92 135.69 C 134.76 134.65 133.79 133.95 132.76 134.11 L 131.79 134.26 C 130.75 134.42 130.05 135.39 130.21 136.42 C 130.37 137.46 131.34 138.16 132.37 138.00 Z M 133.37 137.85 L 134.39 137.67 C 135.42 137.49 136.11 136.51 135.93 135.48 C 135.75 134.45 134.77 133.76 133.74 133.94 L 132.72 134.11 C 131.69 134.29 131.00 135.27 131.18 136.30 C 131.36 137.34 132.34 138.03 133.37 137.85 Z M 134.41 137.67 L 135.45 137.47 C 136.48 137.28 137.15 136.29 136.96 135.27 C 136.77 134.24 135.78 133.56 134.76 133.75 L 133.72 133.94 C 132.69 134.13 132.01 135.12 132.20 136.15 C 132.39 137.18 133.38 137.86 134.41 137.67 Z M 135.46 137.47 L 136.49 137.27 C 137.52 137.07 138.19 136.08 137.99 135.05 C 137.79 134.03 136.80 133.36 135.77 133.55 L 134.74 133.75 C 133.72 133.95 133.04 134.94 133.24 135.97 C 133.44 137.00 134.43 137.67 135.46 137.47 Z M 136.50 137.27 L 137.50 137.07 C 138.52 136.87 139.19 135.88 138.99 134.85 C 138.79 133.83 137.79 133.16 136.77 133.36 L 135.77 133.55 C 134.74 133.76 134.07 134.75 134.28 135.78 C 134.48 136.80 135.47 137.47 136.50 137.27 Z M 137.49 137.07 L 138.58 136.86 C 139.61 136.66 140.28 135.67 140.08 134.64 C 139.88 133.62 138.88 132.95 137.86 133.15 L 136.77 133.36 C 135.75 133.56 135.08 134.55 135.28 135.58 C 135.48 136.60 136.47 137.27 137.49 137.07 Z M 138.58 136.86 L 139.61 136.66 C 140.63 136.46 141.30 135.47 141.10 134.44 C 140.90 133.42 139.91 132.75 138.89 132.95 L 137.86 133.15 C 136.84 133.35 136.17 134.34 136.37 135.36 C 136.57 136.39 137.56 137.05 138.58 136.86 Z M 139.61 136.65 L 140.59 136.46 C 141.61 136.26 142.27 135.27 142.07 134.25 C 141.88 133.23 140.89 132.57 139.87 132.77 L 138.89 132.96 C 137.87 133.16 137.21 134.14 137.40 135.16 C 137.60 136.18 138.59 136.85 139.61 136.65 Z M 140.59 136.46 L 141.53 136.27 C 142.54 136.07 143.20 135.09 143.00 134.07 C 142.80 133.05 141.82 132.39 140.80 132.59 L 139.86 132.77 C 138.85 132.97 138.18 133.96 138.38 134.98 C 138.59 135.99 139.57 136.66 140.59 136.46 Z M 141.53 136.27 L 142.44 136.08 C 143.46 135.88 144.11 134.89 143.91 133.88 C 143.71 132.87 142.72 132.21 141.70 132.41 L 140.79 132.59 C 139.78 132.80 139.12 133.78 139.33 134.80 C 139.53 135.81 140.52 136.47 141.53 136.27 Z M 142.45 136.08 L 143.38 135.89 C 144.39 135.68 145.04 134.69 144.83 133.68 C 144.63 132.67 143.64 132.02 142.63 132.23 L 141.70 132.42 C 140.69 132.63 140.03 133.61 140.24 134.62 C 140.45 135.64 141.44 136.29 142.45 136.08 Z M 143.39 135.88 L 144.34 135.68 C 145.35 135.47 145.99 134.48 145.78 133.47 C 145.57 132.47 144.58 131.82 143.58 132.03 L 142.62 132.23 C 141.61 132.44 140.97 133.43 141.18 134.44 C 141.39 135.45 142.38 136.09 143.39 135.88 Z M 144.34 135.68 L 145.30 135.48 C 146.31 135.27 146.95 134.28 146.74 133.28 C 146.53 132.27 145.55 131.63 144.54 131.83 L 143.58 132.03 C 142.57 132.24 141.93 133.23 142.14 134.23 C 142.34 135.24 143.33 135.89 144.34 135.68 Z M 145.29 135.48 L 146.27 135.28 C 147.27 135.08 147.93 134.10 147.72 133.09 C 147.52 132.09 146.54 131.44 145.54 131.64 L 144.55 131.84 C 143.55 132.04 142.90 133.02 143.10 134.02 C 143.30 135.03 144.28 135.68 145.29 135.48 Z M 146.25 135.28 L 147.26 135.09 C 148.26 134.90 148.92 133.93 148.73 132.92 C 148.54 131.92 147.57 131.26 146.57 131.45 L 145.56 131.64 C 144.55 131.83 143.89 132.80 144.08 133.80 C 144.27 134.81 145.24 135.47 146.25 135.28 Z M 147.23 135.09 L 148.26 134.91 C 149.27 134.73 149.94 133.77 149.76 132.77 C 149.58 131.76 148.63 131.09 147.62 131.27 L 146.59 131.45 C 145.59 131.62 144.91 132.58 145.09 133.59 C 145.27 134.59 146.23 135.26 147.23 135.09 Z M 148.23 134.91 L 149.27 134.74 C 150.27 134.58 150.96 133.63 150.80 132.63 C 150.63 131.62 149.69 130.94 148.68 131.10 L 147.65 131.27 C 146.64 131.43 145.96 132.37 146.12 133.38 C 146.28 134.38 147.23 135.07 148.23 134.91 Z M 149.24 134.74 L 150.28 134.59 C 151.28 134.44 151.98 133.51 151.83 132.50 C 151.68 131.50 150.75 130.80 149.74 130.95 L 148.71 131.10 C 147.70 131.25 147.01 132.18 147.16 133.19 C 147.30 134.19 148.24 134.89 149.24 134.74 Z M 150.25 134.59 L 151.26 134.45 C 152.26 134.31 152.97 133.39 152.83 132.39 C 152.70 131.38 151.77 130.68 150.77 130.82 L 149.76 130.95 C 148.76 131.09 148.06 132.01 148.19 133.01 C 148.33 134.02 149.25 134.72 150.25 134.59 Z M 151.24 134.45 L 152.19 134.33 C 153.19 134.21 153.90 133.30 153.78 132.29 C 153.66 131.29 152.75 130.58 151.75 130.70 L 150.79 130.82 C 149.79 130.94 149.08 131.85 149.20 132.85 C 149.32 133.86 150.24 134.57 151.24 134.45 Z M 152.16 134.33 L 153.16 134.22 C 154.16 134.12 154.88 133.22 154.78 132.22 C 154.67 131.21 153.77 130.49 152.77 130.60 L 151.77 130.70 C 150.77 130.81 150.05 131.71 150.15 132.71 C 150.26 133.71 151.16 134.44 152.16 134.33 Z M 153.06 134.23 L 154.24 134.16 C 155.24 134.11 156.01 133.26 155.96 132.25 C 155.91 131.25 155.05 130.48 154.05 130.53 L 152.87 130.59 C 151.87 130.65 151.10 131.50 151.15 132.50 C 151.20 133.51 152.05 134.28 153.06 134.23 Z M 153.86 134.14 L 154.77 134.28 C 155.76 134.44 156.68 133.76 156.84 132.77 C 156.99 131.78 156.32 130.85 155.33 130.70 L 154.42 130.56 C 153.43 130.40 152.50 131.08 152.35 132.07 C 152.20 133.06 152.87 133.99 153.86 134.14 Z M 153.99 133.95 L 154.61 134.41 C 155.42 134.99 156.55 134.81 157.14 134.00 C 157.72 133.19 157.54 132.06 156.73 131.48 L 156.11 131.03 C 155.30 130.44 154.17 130.62 153.58 131.43 C 153.00 132.24 153.18 133.37 153.99 133.95 Z M 154.02 133.67 L 154.36 134.42 C 154.76 135.33 155.83 135.75 156.74 135.34 C 157.65 134.94 158.06 133.87 157.66 132.96 L 157.32 132.21 C 156.92 131.30 155.85 130.89 154.94 131.29 C 154.03 131.70 153.62 132.76 154.02 133.67 Z M 154.21 133.90 L 154.33 134.89 C 154.44 135.87 155.34 136.58 156.33 136.47 C 157.32 136.35 158.03 135.46 157.91 134.47 L 157.80 133.48 C 157.68 132.49 156.78 131.78 155.80 131.90 C 154.81 132.02 154.10 132.91 154.21 133.90 Z M 154.32 134.54 L 154.24 135.64 C 154.16 136.64 154.91 137.50 155.90 137.58 C 156.89 137.65 157.76 136.91 157.83 135.92 L 157.92 134.81 C 157.99 133.82 157.25 132.95 156.26 132.88 C 155.26 132.80 154.40 133.55 154.32 134.54 Z M 154.28 135.37 L 154.05 136.39 C 153.82 137.36 154.43 138.32 155.40 138.55 C 156.37 138.77 157.34 138.17 157.56 137.20 L 157.79 136.18 C 158.02 135.21 157.41 134.25 156.44 134.02 C 155.47 133.80 154.50 134.41 154.28 135.37 Z M 154.11 136.17 L 153.79 137.06 C 153.44 138.00 153.92 139.03 154.86 139.37 C 155.79 139.72 156.83 139.24 157.17 138.30 L 157.49 137.41 C 157.84 136.48 157.36 135.44 156.42 135.10 C 155.49 134.76 154.45 135.24 154.11 136.17 Z M 153.85 136.91 L 153.43 137.79 C 153.00 138.69 153.38 139.76 154.28 140.19 C 155.18 140.62 156.25 140.24 156.68 139.34 L 157.10 138.46 C 157.53 137.56 157.15 136.49 156.25 136.06 C 155.35 135.63 154.28 136.01 153.85 136.91 Z M 153.48 137.69 L 152.98 138.59 C 152.49 139.45 152.80 140.55 153.67 141.04 C 154.54 141.52 155.63 141.22 156.12 140.35 L 156.63 139.45 C 157.11 138.58 156.80 137.48 155.94 137.00 C 155.07 136.51 153.97 136.82 153.48 137.69 Z M 153.01 138.53 L 152.46 139.44 C 151.94 140.28 152.20 141.39 153.05 141.91 C 153.90 142.43 155.01 142.17 155.53 141.32 L 156.09 140.41 C 156.61 139.56 156.34 138.45 155.49 137.93 C 154.64 137.41 153.53 137.68 153.01 138.53 Z M 152.47 139.41 L 151.92 140.27 C 151.39 141.11 151.63 142.22 152.47 142.76 C 153.31 143.29 154.42 143.05 154.96 142.21 L 155.51 141.35 C 156.05 140.51 155.80 139.39 154.96 138.86 C 154.13 138.32 153.01 138.57 152.47 139.41 Z M 151.94 140.25 L 151.36 141.11 C 150.82 141.94 151.05 143.06 151.88 143.61 C 152.71 144.16 153.83 143.93 154.38 143.10 L 154.95 142.23 C 155.50 141.40 155.27 140.28 154.43 139.73 C 153.60 139.18 152.48 139.41 151.94 140.25 Z M 151.37 141.09 L 150.80 141.94 C 150.24 142.77 150.46 143.89 151.29 144.45 C 152.11 145.01 153.24 144.79 153.80 143.96 L 154.37 143.12 C 154.93 142.29 154.71 141.17 153.88 140.61 C 153.06 140.05 151.93 140.27 151.37 141.09 Z M 150.81 141.92 L 150.26 142.72 C 149.69 143.54 149.90 144.67 150.72 145.24 C 151.54 145.81 152.66 145.60 153.23 144.78 L 153.79 143.98 C 154.35 143.16 154.15 142.03 153.33 141.47 C 152.51 140.90 151.38 141.10 150.81 141.92 Z M 150.27 142.70 L 149.68 143.54 C 149.10 144.35 149.29 145.48 150.10 146.06 C 150.92 146.64 152.05 146.45 152.63 145.63 L 153.22 144.80 C 153.80 143.98 153.61 142.85 152.79 142.28 C 151.98 141.70 150.85 141.89 150.27 142.70 Z M 149.69 143.51 L 149.06 144.37 C 148.47 145.18 148.64 146.31 149.45 146.90 C 150.25 147.50 151.39 147.32 151.98 146.52 L 152.61 145.66 C 153.21 144.85 153.03 143.72 152.23 143.12 C 151.42 142.53 150.29 142.70 149.69 143.51 Z M 149.08 144.34 L 148.50 145.10 C 147.89 145.90 148.05 147.04 148.84 147.65 C 149.64 148.25 150.78 148.10 151.39 147.30 L 151.96 146.54 C 152.57 145.75 152.42 144.61 151.62 144.00 C 150.82 143.39 149.68 143.55 149.08 144.34 Z M 148.51 145.09 L 147.95 145.80 C 147.34 146.59 147.48 147.73 148.27 148.35 C 149.06 148.97 150.20 148.83 150.82 148.03 L 151.38 147.32 C 151.99 146.53 151.85 145.39 151.06 144.77 C 150.27 144.15 149.12 144.29 148.51 145.09 Z M 147.95 145.79 L 147.35 146.56 C 146.73 147.35 146.87 148.50 147.66 149.12 C 148.45 149.74 149.59 149.60 150.21 148.81 L 150.82 148.04 C 151.44 147.25 151.30 146.11 150.51 145.49 C 149.72 144.86 148.57 145.00 147.95 145.79 Z M 147.35 146.56 L 146.73 147.34 C 146.11 148.13 146.24 149.28 147.04 149.90 C 147.83 150.53 148.97 150.39 149.60 149.60 L 150.22 148.82 C 150.84 148.02 150.70 146.88 149.91 146.25 C 149.12 145.63 147.97 145.76 147.35 146.56 Z M 146.73 147.33 L 146.10 148.13 C 145.47 148.92 145.61 150.07 146.40 150.70 C 147.19 151.32 148.34 151.19 148.97 150.40 L 149.60 149.60 C 150.23 148.81 150.09 147.66 149.30 147.04 C 148.51 146.41 147.36 146.54 146.73 147.33 Z M 146.10 148.12 L 145.48 148.90 C 144.85 149.70 144.98 150.85 145.77 151.48 C 146.56 152.11 147.72 151.98 148.35 151.19 L 148.97 150.41 C 149.60 149.61 149.47 148.46 148.68 147.83 C 147.88 147.20 146.73 147.33 146.10 148.12 Z M 145.48 148.89 L 144.86 149.67 C 144.22 150.46 144.35 151.62 145.14 152.25 C 145.93 152.89 147.08 152.76 147.72 151.97 L 148.34 151.20 C 148.98 150.41 148.85 149.25 148.06 148.62 C 147.27 147.98 146.12 148.10 145.48 148.89 Z M 144.87 149.66 L 144.23 150.43 C 143.58 151.22 143.70 152.38 144.48 153.02 C 145.27 153.67 146.43 153.55 147.07 152.77 L 147.71 151.99 C 148.35 151.20 148.24 150.05 147.45 149.40 C 146.67 148.76 145.51 148.87 144.87 149.66 Z M 144.24 150.41 L 143.60 151.18 C 142.94 151.95 143.04 153.12 143.82 153.77 C 144.60 154.43 145.76 154.33 146.42 153.55 L 147.06 152.79 C 147.72 152.01 147.62 150.85 146.84 150.19 C 146.06 149.54 144.90 149.64 144.24 150.41 Z M 143.61 151.16 L 142.96 151.90 C 142.30 152.67 142.38 153.84 143.15 154.51 C 143.93 155.17 145.09 155.09 145.76 154.32 L 146.40 153.57 C 147.07 152.80 146.99 151.63 146.21 150.97 C 145.44 150.30 144.28 150.38 143.61 151.16 Z M 142.97 151.89 L 142.31 152.65 C 141.64 153.42 141.72 154.59 142.49 155.26 C 143.26 155.93 144.43 155.85 145.10 155.08 L 145.76 154.33 C 146.43 153.56 146.35 152.39 145.58 151.71 C 144.81 151.04 143.64 151.12 142.97 151.89 Z M 142.30 152.65 L 141.64 153.42 C 140.97 154.20 141.05 155.37 141.83 156.04 C 142.60 156.71 143.77 156.62 144.44 155.85 L 145.11 155.08 C 145.78 154.30 145.69 153.13 144.92 152.46 C 144.14 151.79 142.97 151.88 142.30 152.65 Z M 141.62 153.43 L 140.97 154.20 C 140.31 154.98 140.41 156.15 141.19 156.82 C 141.98 157.48 143.15 157.38 143.81 156.60 L 144.46 155.84 C 145.12 155.05 145.03 153.88 144.24 153.22 C 143.46 152.55 142.28 152.65 141.62 153.43 Z M 140.97 154.20 L 140.32 154.97 C 139.65 155.76 139.76 156.94 140.55 157.60 C 141.33 158.26 142.51 158.16 143.17 157.37 L 143.82 156.60 C 144.48 155.81 144.38 154.63 143.59 153.97 C 142.80 153.31 141.63 153.41 140.97 154.20 Z M 140.32 154.96 L 139.67 155.73 C 139.00 156.52 139.10 157.70 139.89 158.36 C 140.68 159.03 141.86 158.93 142.52 158.15 L 143.17 157.38 C 143.84 156.59 143.74 155.41 142.95 154.75 C 142.17 154.08 140.99 154.18 140.32 154.96 Z M 139.68 155.71 L 139.02 156.47 C 138.34 157.25 138.43 158.43 139.21 159.11 C 139.99 159.79 141.17 159.71 141.85 158.93 L 142.51 158.17 C 143.19 157.39 143.11 156.20 142.33 155.52 C 141.55 154.84 140.36 154.93 139.68 155.71 Z M 139.04 156.44 L 138.35 157.20 C 137.66 157.97 137.72 159.16 138.49 159.85 C 139.26 160.55 140.45 160.49 141.15 159.72 L 141.83 158.96 C 142.53 158.18 142.47 157.00 141.70 156.30 C 140.93 155.60 139.74 155.67 139.04 156.44 Z M 138.37 157.18 L 137.69 157.90 C 136.99 158.67 137.03 159.86 137.79 160.57 C 138.56 161.28 139.75 161.23 140.46 160.47 L 141.13 159.74 C 141.84 158.98 141.80 157.78 141.03 157.07 C 140.27 156.37 139.08 156.41 138.37 157.18 Z M 137.70 157.89 L 137.04 158.59 C 136.32 159.35 136.36 160.55 137.12 161.27 C 137.88 161.98 139.07 161.95 139.79 161.18 L 140.45 160.48 C 141.17 159.72 141.13 158.52 140.37 157.81 C 139.61 157.09 138.41 157.13 137.70 157.89 Z M 137.03 158.59 L 136.42 159.25 C 135.70 160.01 135.74 161.21 136.50 161.93 C 137.26 162.64 138.46 162.61 139.18 161.84 L 139.79 161.19 C 140.51 160.43 140.47 159.23 139.71 158.51 C 138.95 157.79 137.75 157.83 137.03 158.59 Z M 136.40 159.25 L 135.76 159.94 C 135.05 160.71 135.09 161.92 135.86 162.63 C 136.63 163.34 137.84 163.30 138.55 162.53 L 139.19 161.84 C 139.91 161.07 139.86 159.86 139.09 159.15 C 138.32 158.44 137.12 158.48 136.40 159.25 Z M 135.74 159.96 L 135.04 160.74 C 134.33 161.52 134.39 162.72 135.17 163.43 C 135.95 164.13 137.16 164.07 137.86 163.29 L 138.57 162.51 C 139.28 161.73 139.22 160.53 138.44 159.82 C 137.66 159.12 136.45 159.18 135.74 159.96 Z M 135.02 160.75 L 134.32 161.54 C 133.62 162.33 133.70 163.54 134.49 164.24 C 135.28 164.94 136.49 164.86 137.19 164.07 L 137.88 163.28 C 138.58 162.49 138.51 161.28 137.72 160.58 C 136.92 159.88 135.72 159.96 135.02 160.75 Z M 134.30 161.55 L 133.69 162.25 C 133.00 163.06 133.09 164.27 133.89 164.96 C 134.69 165.65 135.90 165.57 136.60 164.77 L 137.20 164.06 C 137.90 163.26 137.81 162.05 137.01 161.35 C 136.21 160.66 135.00 160.75 134.30 161.55 Z M 133.67 162.26 L 133.03 163.02 C 132.34 163.83 132.44 165.05 133.25 165.74 C 134.06 166.43 135.28 166.33 135.97 165.52 L 136.61 164.76 C 137.30 163.95 137.20 162.73 136.39 162.04 C 135.58 161.35 134.36 161.45 133.67 162.26 Z M 133.01 163.03 L 132.35 163.83 C 131.66 164.65 131.78 165.87 132.60 166.56 C 133.42 167.24 134.64 167.13 135.33 166.30 L 135.99 165.51 C 136.67 164.68 136.56 163.46 135.74 162.78 C 134.91 162.10 133.69 162.21 133.01 163.03 Z M 132.33 163.84 L 131.66 164.66 C 130.99 165.49 131.11 166.72 131.95 167.39 C 132.78 168.07 134.01 167.94 134.69 167.11 L 135.35 166.29 C 136.03 165.46 135.90 164.23 135.06 163.55 C 134.23 162.88 133.00 163.01 132.33 163.84 Z M 131.64 164.67 L 130.98 165.50 C 130.32 166.35 130.46 167.58 131.31 168.25 C 132.16 168.92 133.39 168.77 134.06 167.92 L 134.71 167.09 C 135.38 166.24 135.23 165.02 134.38 164.35 C 133.54 163.68 132.31 163.82 131.64 164.67 Z M 130.95 165.53 L 130.31 166.38 C 129.65 167.24 129.82 168.47 130.69 169.13 C 131.55 169.79 132.79 169.62 133.44 168.75 L 134.09 167.90 C 134.74 167.03 134.57 165.80 133.71 165.15 C 132.84 164.49 131.61 164.66 130.95 165.53 Z M 130.27 166.41 L 129.67 167.25 C 129.03 168.13 129.23 169.37 130.12 170.01 C 131.01 170.64 132.24 170.44 132.88 169.56 L 133.48 168.72 C 134.12 167.83 133.92 166.60 133.03 165.96 C 132.14 165.32 130.91 165.52 130.27 166.41 Z M 129.62 167.30 L 129.07 168.12 C 128.46 169.03 128.70 170.27 129.61 170.88 C 130.53 171.49 131.76 171.24 132.37 170.33 L 132.92 169.51 C 133.54 168.60 133.29 167.36 132.38 166.75 C 131.47 166.14 130.23 166.38 129.62 167.30 Z M 129.02 168.19 L 128.52 169.00 C 127.94 169.94 128.24 171.17 129.18 171.74 C 130.13 172.32 131.35 172.02 131.93 171.08 L 132.43 170.27 C 133.00 169.33 132.70 168.10 131.76 167.52 C 130.82 166.95 129.59 167.24 129.02 168.19 Z M 128.45 169.09 L 127.97 169.98 C 127.45 170.96 127.82 172.18 128.80 172.70 C 129.77 173.23 130.99 172.86 131.52 171.88 L 132.00 170.99 C 132.52 170.01 132.15 168.79 131.18 168.27 C 130.20 167.74 128.98 168.11 128.45 169.09 Z M 127.87 170.15 L 127.42 171.23 C 126.98 172.27 127.47 173.46 128.51 173.89 C 129.54 174.33 130.73 173.84 131.16 172.80 L 131.62 171.72 C 132.05 170.68 131.57 169.49 130.53 169.06 C 129.50 168.63 128.31 169.11 127.87 170.15 Z M 127.28 171.58 L 127.07 172.54 C 126.83 173.65 127.54 174.75 128.65 174.99 C 129.76 175.23 130.85 174.52 131.09 173.42 L 131.30 172.45 C 131.54 171.34 130.84 170.25 129.73 170.01 C 128.62 169.77 127.52 170.47 127.28 171.58 Z M 127.03 173.29 L 127.14 174.06 C 127.32 175.19 128.38 175.97 129.51 175.80 C 130.65 175.62 131.43 174.56 131.26 173.43 L 131.14 172.66 C 130.96 171.53 129.90 170.75 128.77 170.92 C 127.63 171.10 126.85 172.16 127.03 173.29 Z M 127.72 175.23 L 128.23 175.74 C 129.05 176.56 130.38 176.56 131.20 175.74 C 132.02 174.92 132.02 173.59 131.20 172.77 L 130.68 172.25 C 129.86 171.44 128.53 171.44 127.71 172.26 C 126.89 173.08 126.90 174.41 127.72 175.23 Z M 129.05 176.26 L 129.91 176.54 C 131.02 176.91 132.21 176.31 132.58 175.21 C 132.95 174.10 132.35 172.91 131.25 172.54 L 130.38 172.25 C 129.27 171.88 128.08 172.48 127.71 173.59 C 127.34 174.69 127.94 175.89 129.05 176.26 Z M 130.32 176.65 L 131.45 176.78 C 132.61 176.93 133.67 176.10 133.81 174.94 C 133.95 173.78 133.12 172.72 131.96 172.58 L 130.84 172.44 C 129.68 172.30 128.62 173.12 128.48 174.29 C 128.33 175.45 129.16 176.50 130.32 176.65 Z M 131.60 176.80 L 132.73 176.86 C 133.91 176.92 134.90 176.02 134.96 174.84 C 135.02 173.67 134.12 172.67 132.94 172.61 L 131.81 172.56 C 130.64 172.50 129.64 173.40 129.58 174.57 C 129.52 175.75 130.43 176.75 131.60 176.80 Z M 132.78 176.87 L 133.80 176.89 C 134.98 176.93 135.96 176.00 135.99 174.82 C 136.02 173.64 135.09 172.66 133.92 172.63 L 132.89 172.61 C 131.72 172.57 130.74 173.50 130.71 174.68 C 130.68 175.86 131.60 176.84 132.78 176.87 Z M 133.83 176.90 L 134.86 176.91 C 136.04 176.93 137.01 175.99 137.02 174.81 C 137.04 173.63 136.10 172.66 134.92 172.64 L 133.89 172.63 C 132.71 172.61 131.74 173.56 131.73 174.73 C 131.71 175.91 132.65 176.88 133.83 176.90 Z M 134.88 176.91 L 135.89 176.92 C 137.07 176.92 138.03 175.97 138.03 174.79 C 138.04 173.61 137.09 172.65 135.91 172.65 L 134.90 172.64 C 133.72 172.64 132.76 173.59 132.76 174.77 C 132.75 175.95 133.70 176.91 134.88 176.91 Z M 135.90 176.92 L 136.84 176.92 C 138.02 176.92 138.98 175.97 138.98 174.79 C 138.98 173.61 138.02 172.65 136.84 172.65 L 135.90 172.65 C 134.72 172.64 133.76 173.60 133.76 174.78 C 133.76 175.96 134.72 176.92 135.90 176.92 Z M 136.84 176.92 L 137.93 176.92 C 139.11 176.92 140.07 175.96 140.07 174.78 C 140.07 173.60 139.11 172.65 137.93 172.65 L 136.84 172.65 C 135.66 172.65 134.70 173.60 134.70 174.78 C 134.70 175.96 135.66 176.92 136.84 176.92 Z M 137.93 176.92 L 138.92 176.92 C 140.10 176.92 141.05 175.96 141.05 174.78 C 141.05 173.60 140.10 172.65 138.92 172.65 L 137.93 172.65 C 136.75 172.65 135.79 173.60 135.79 174.78 C 135.79 175.96 136.75 176.92 137.93 176.92 Z M 138.92 176.92 L 139.86 176.92 C 141.04 176.92 142.00 175.96 142.00 174.78 C 142.00 173.60 141.04 172.65 139.86 172.65 L 138.92 172.65 C 137.74 172.65 136.78 173.60 136.78 174.78 C 136.78 175.96 137.74 176.92 138.92 176.92 Z M 139.86 176.92 L 140.83 176.92 C 142.01 176.92 142.96 175.96 142.96 174.78 C 142.96 173.60 142.01 172.65 140.83 172.65 L 139.86 172.65 C 138.68 172.65 137.73 173.60 137.73 174.78 C 137.73 175.96 138.68 176.92 139.86 176.92 Z M 140.83 176.92 L 141.82 176.92 C 143.00 176.92 143.96 175.96 143.96 174.78 C 143.96 173.60 143.00 172.65 141.82 172.65 L 140.83 172.65 C 139.65 172.65 138.69 173.60 138.69 174.78 C 138.69 175.96 139.65 176.92 140.83 176.92 Z M 141.82 176.92 L 142.84 176.92 C 144.01 176.92 144.97 175.96 144.97 174.78 C 144.97 173.61 144.01 172.65 142.84 172.65 L 141.82 172.65 C 140.64 172.65 139.69 173.61 139.69 174.78 C 139.69 175.96 140.64 176.92 141.82 176.92 Z M 142.84 176.92 L 143.84 176.92 C 145.02 176.92 145.97 175.96 145.97 174.78 C 145.97 173.61 145.02 172.65 143.84 172.65 L 142.84 172.65 C 141.66 172.65 140.70 173.61 140.70 174.78 C 140.70 175.96 141.66 176.92 142.84 176.92 Z M 143.84 176.91 L 144.86 176.91 C 146.04 176.91 146.99 175.96 146.99 174.78 C 146.99 173.61 146.04 172.65 144.86 172.65 L 143.84 172.65 C 142.67 172.65 141.71 173.61 141.71 174.78 C 141.71 175.96 142.67 176.91 143.84 176.91 Z M 144.86 176.91 L 145.86 176.91 C 147.03 176.91 147.98 175.96 147.98 174.78 C 147.98 173.61 147.03 172.66 145.86 172.66 L 144.86 172.66 C 143.69 172.66 142.73 173.61 142.73 174.78 C 142.73 175.96 143.69 176.91 144.86 176.91 Z M 145.86 176.91 L 146.85 176.91 C 148.02 176.91 148.97 175.96 148.97 174.78 C 148.97 173.61 148.02 172.66 146.85 172.66 L 145.86 172.66 C 144.68 172.66 143.73 173.61 143.73 174.78 C 143.73 175.96 144.68 176.91 145.86 176.91 Z M 146.85 176.90 L 147.83 176.90 C 149.00 176.90 149.95 175.95 149.95 174.78 C 149.95 173.61 149.00 172.67 147.83 172.67 L 146.85 172.67 C 145.68 172.67 144.73 173.61 144.73 174.78 C 144.73 175.95 145.68 176.90 146.85 176.90 Z M 147.83 176.90 L 148.82 176.90 C 149.98 176.90 150.93 175.95 150.93 174.78 C 150.93 173.62 149.98 172.67 148.82 172.67 L 147.83 172.67 C 146.66 172.67 145.72 173.62 145.72 174.78 C 145.72 175.95 146.66 176.90 147.83 176.90 Z M 148.82 176.89 L 149.82 176.89 C 150.99 176.89 151.93 175.95 151.93 174.78 C 151.93 173.62 150.99 172.68 149.82 172.68 L 148.82 172.68 C 147.65 172.68 146.71 173.62 146.71 174.78 C 146.71 175.95 147.65 176.89 148.82 176.89 Z M 149.82 176.89 L 150.84 176.89 C 152.00 176.89 152.94 175.94 152.94 174.78 C 152.94 173.62 152.00 172.68 150.84 172.68 L 149.82 172.68 C 148.66 172.68 147.72 173.62 147.72 174.78 C 147.72 175.94 148.66 176.89 149.82 176.89 Z M 150.84 176.88 L 151.82 176.88 C 152.98 176.88 153.91 175.94 153.91 174.78 C 153.91 173.63 152.98 172.69 151.82 172.69 L 150.84 172.69 C 149.68 172.69 148.74 173.63 148.75 174.79 C 148.75 175.94 149.68 176.88 150.84 176.88 Z M 151.83 176.87 L 152.82 176.86 C 153.98 176.86 154.91 175.92 154.90 174.77 C 154.90 173.62 153.96 172.69 152.81 172.70 L 151.81 172.70 C 150.66 172.70 149.73 173.64 149.74 174.79 C 149.74 175.94 150.68 176.87 151.83 176.87 Z M 152.84 176.85 L 153.85 176.84 C 154.99 176.83 155.91 175.90 155.90 174.75 C 155.89 173.61 154.96 172.69 153.81 172.70 L 152.80 172.71 C 151.65 172.72 150.73 173.65 150.74 174.80 C 150.75 175.94 151.69 176.86 152.84 176.85 Z M 153.86 176.83 L 154.87 176.82 C 156.00 176.80 156.91 175.86 156.89 174.72 C 156.87 173.58 155.94 172.67 154.80 172.69 L 153.79 172.71 C 152.66 172.73 151.75 173.67 151.77 174.81 C 151.78 175.94 152.72 176.85 153.86 176.83 Z M 154.88 176.81 L 155.87 176.78 C 157.00 176.75 157.89 175.81 157.86 174.67 C 157.83 173.54 156.89 172.65 155.76 172.68 L 154.78 172.70 C 153.64 172.73 152.75 173.68 152.78 174.81 C 152.81 175.94 153.75 176.84 154.88 176.81 Z M 155.89 176.77 L 156.88 176.73 C 158.01 176.69 158.89 175.74 158.85 174.61 C 158.80 173.49 157.86 172.61 156.73 172.65 L 155.73 172.69 C 154.61 172.73 153.73 173.68 153.77 174.81 C 153.81 175.93 154.76 176.81 155.89 176.77 Z M 156.91 176.72 L 157.93 176.67 C 159.05 176.61 159.91 175.65 159.85 174.54 C 159.79 173.42 158.84 172.55 157.72 172.61 L 156.70 172.66 C 155.58 172.72 154.72 173.67 154.78 174.79 C 154.84 175.91 155.79 176.77 156.91 176.72 Z M 157.95 176.65 L 158.94 176.59 C 160.05 176.51 160.89 175.55 160.82 174.44 C 160.75 173.33 159.79 172.49 158.68 172.56 L 157.69 172.63 C 156.58 172.70 155.74 173.66 155.81 174.77 C 155.88 175.88 156.84 176.72 157.95 176.65 Z M 158.96 176.57 L 159.92 176.50 C 161.02 176.41 161.85 175.45 161.76 174.34 C 161.68 173.24 160.71 172.42 159.61 172.50 L 158.65 172.58 C 157.55 172.66 156.73 173.63 156.81 174.73 C 156.90 175.83 157.86 176.66 158.96 176.57 Z M 159.94 176.48 L 160.93 176.39 C 162.02 176.30 162.83 175.33 162.73 174.24 C 162.64 173.15 161.67 172.34 160.58 172.44 L 159.59 172.52 C 158.50 172.62 157.69 173.58 157.79 174.67 C 157.89 175.77 158.85 176.57 159.94 176.48 Z M 160.94 176.37 L 161.96 176.28 C 163.04 176.17 163.84 175.21 163.74 174.13 C 163.63 173.05 162.67 172.26 161.59 172.36 L 160.57 172.45 C 159.49 172.56 158.69 173.52 158.79 174.60 C 158.90 175.68 159.86 176.48 160.94 176.37 Z M 161.97 176.26 L 163.01 176.16 C 164.08 176.05 164.86 175.09 164.76 174.02 C 164.65 172.95 163.70 172.17 162.62 172.27 L 161.58 172.37 C 160.51 172.48 159.73 173.44 159.83 174.51 C 159.94 175.58 160.90 176.37 161.97 176.26 Z M 163.01 176.14 L 164.00 176.04 C 165.06 175.93 165.83 174.98 165.73 173.92 C 165.62 172.86 164.67 172.08 163.61 172.19 L 162.62 172.29 C 161.56 172.40 160.79 173.35 160.89 174.41 C 161.00 175.47 161.95 176.24 163.01 176.14 Z M 164.00 176.02 L 165.00 175.91 C 166.05 175.81 166.82 174.87 166.71 173.82 C 166.60 172.77 165.66 172.00 164.61 172.11 L 163.61 172.21 C 162.56 172.32 161.79 173.26 161.90 174.31 C 162.01 175.36 162.95 176.12 164.00 176.02 Z M 165.00 175.89 L 166.01 175.79 C 167.05 175.68 167.80 174.75 167.70 173.71 C 167.59 172.68 166.66 171.92 165.62 172.03 L 164.61 172.13 C 163.58 172.24 162.82 173.17 162.93 174.20 C 163.03 175.24 163.96 176.00 165.00 175.89 Z M 166.00 175.77 L 167.00 175.67 C 168.03 175.56 168.78 174.64 168.67 173.62 C 168.57 172.59 167.65 171.84 166.62 171.95 L 165.63 172.05 C 164.60 172.15 163.85 173.07 163.95 174.10 C 164.06 175.12 164.98 175.87 166.00 175.77 Z M 167.00 175.65 L 168.00 175.54 C 169.02 175.44 169.76 174.54 169.65 173.52 C 169.55 172.51 168.65 171.76 167.63 171.87 L 166.63 171.97 C 165.61 172.07 164.87 172.97 164.97 173.99 C 165.07 175.01 165.98 175.75 167.00 175.65 Z M 167.99 175.52 L 169.02 175.42 C 170.02 175.32 170.75 174.43 170.66 173.43 C 170.56 172.42 169.66 171.69 168.66 171.79 L 167.64 171.89 C 166.63 171.99 165.90 172.88 166.00 173.88 C 166.10 174.89 166.99 175.62 167.99 175.52 Z M 169.01 175.40 L 170.01 175.31 C 171.00 175.21 171.72 174.33 171.63 173.34 C 171.53 172.35 170.65 171.62 169.66 171.71 L 168.67 171.81 C 167.67 171.90 166.95 172.79 167.04 173.78 C 167.14 174.77 168.02 175.50 169.01 175.40 Z M 170.00 175.28 L 170.98 175.19 C 171.96 175.10 172.68 174.23 172.58 173.25 C 172.49 172.27 171.62 171.55 170.64 171.64 L 169.67 171.74 C 168.69 171.83 167.97 172.70 168.06 173.68 C 168.15 174.66 169.02 175.38 170.00 175.28 Z M 170.97 175.17 L 171.94 175.08 C 172.91 174.99 173.62 174.13 173.53 173.16 C 173.44 172.20 172.58 171.48 171.61 171.58 L 170.65 171.67 C 169.68 171.76 168.97 172.61 169.06 173.58 C 169.15 174.55 170.01 175.26 170.97 175.17 Z M 171.94 175.06 L 172.95 174.96 C 173.91 174.87 174.61 174.03 174.52 173.07 C 174.43 172.11 173.58 171.41 172.62 171.50 L 171.61 171.60 C 170.66 171.68 169.96 172.53 170.05 173.49 C 170.14 174.45 170.98 175.15 171.94 175.06 Z M 172.95 174.95 L 173.95 174.85 C 174.90 174.76 175.60 173.92 175.51 172.98 C 175.42 172.03 174.58 171.33 173.63 171.42 L 172.63 171.52 C 171.68 171.61 170.98 172.45 171.07 173.39 C 171.16 174.34 172.00 175.04 172.95 174.95 Z M 173.95 174.83 L 174.95 174.74 C 175.89 174.65 176.57 173.82 176.48 172.88 C 176.39 171.94 175.56 171.26 174.62 171.34 L 173.63 171.44 C 172.69 171.53 172.01 172.36 172.09 173.30 C 172.18 174.24 173.02 174.92 173.95 174.83 Z M 174.95 174.72 L 175.93 174.63 C 176.86 174.54 177.54 173.71 177.45 172.78 C 177.36 171.86 176.53 171.18 175.60 171.27 L 174.62 171.36 C 173.70 171.45 173.02 172.28 173.11 173.21 C 173.20 174.13 174.02 174.81 174.95 174.72 Z M 175.93 174.61 L 176.87 174.52 C 177.79 174.43 178.46 173.61 178.37 172.69 C 178.28 171.77 177.46 171.10 176.54 171.19 L 175.60 171.28 C 174.68 171.37 174.01 172.19 174.10 173.11 C 174.19 174.03 175.01 174.71 175.93 174.61 Z M 176.87 174.51 L 177.81 174.42 C 178.72 174.33 179.40 173.52 179.31 172.60 C 179.22 171.69 178.40 171.02 177.49 171.10 L 176.55 171.20 C 175.63 171.28 174.96 172.10 175.05 173.01 C 175.14 173.93 175.95 174.60 176.87 174.51 Z M 177.80 174.42 L 178.77 174.33 C 179.69 174.25 180.36 173.44 180.28 172.53 C 180.20 171.61 179.39 170.94 178.48 171.02 L 177.50 171.11 C 176.59 171.19 175.91 172.00 175.99 172.91 C 176.08 173.83 176.88 174.50 177.80 174.42 Z M 178.76 174.32 L 179.81 174.24 C 180.72 174.17 181.40 173.37 181.32 172.46 C 181.25 171.55 180.45 170.87 179.54 170.94 L 178.50 171.03 C 177.59 171.10 176.91 171.90 176.98 172.81 C 177.05 173.72 177.85 174.40 178.76 174.32 Z M 179.79 174.24 L 180.80 174.17 C 181.70 174.11 182.39 173.32 182.33 172.41 C 182.27 171.50 181.48 170.82 180.57 170.88 L 179.56 170.95 C 178.66 171.01 177.97 171.80 178.03 172.70 C 178.09 173.61 178.88 174.30 179.79 174.24 Z M 180.78 174.16 L 181.71 174.11 C 182.62 174.06 183.31 173.28 183.26 172.37 C 183.20 171.47 182.42 170.78 181.52 170.83 L 180.59 170.88 C 179.68 170.94 178.99 171.71 179.04 172.62 C 179.10 173.53 179.87 174.22 180.78 174.16 Z M 181.70 174.11 L 182.68 174.06 C 183.59 174.01 184.28 173.24 184.23 172.33 C 184.19 171.43 183.41 170.73 182.51 170.78 L 181.53 170.83 C 180.62 170.88 179.93 171.65 179.97 172.56 C 180.02 173.46 180.79 174.16 181.70 174.11 Z M 182.67 174.06 L 183.69 174.01 C 184.60 173.96 185.29 173.20 185.25 172.29 C 185.21 171.39 184.44 170.69 183.53 170.73 L 182.51 170.78 C 181.61 170.82 180.91 171.59 180.95 172.50 C 181.00 173.40 181.77 174.10 182.67 174.06 Z M 183.69 174.01 L 184.73 173.96 C 185.64 173.92 186.34 173.15 186.29 172.25 C 186.25 171.34 185.49 170.64 184.58 170.68 L 183.54 170.73 C 182.63 170.77 181.93 171.54 181.97 172.44 C 182.01 173.35 182.78 174.05 183.69 174.01 Z M 184.73 173.96 L 185.79 173.91 C 186.69 173.87 187.39 173.11 187.35 172.20 C 187.31 171.30 186.55 170.60 185.65 170.64 L 184.59 170.69 C 183.68 170.72 182.98 171.49 183.02 172.39 C 183.06 173.30 183.83 174.00 184.73 173.96 Z M 185.79 173.91 L 186.06 173.90 C 186.96 173.86 187.66 173.10 187.62 172.19 C 187.58 171.29 186.82 170.59 185.92 170.63 L 185.65 170.64 C 184.74 170.68 184.04 171.44 184.08 172.35 C 184.12 173.25 184.89 173.95 185.79 173.91 Z"
      fill="black"
      fill-rule="nonzero" /></svg>