<svg xmlns="http://www.w3.org/2000/svg" width="300" height="300" viewBox="0 0 300 300">
<path d="M 117.01 108.34 L 117.52 109.12 C 118.04 109.93 119.13 110.17 119.94 109.64 C 120.75 109.12 120.98 108.03 120.46 107.22 L 119.96 106.44 C 119.43 105.63 118.35 105.40 117.53 105.92 C 116.72 106.44 116.49 107.53 117.01 108.34 Z M 117.61 109.30 L 118.21 110.03 C 118.83 110.80 119.96 110.91 120.72 110.28 C 121.48 109.66 121.59 108.54 120.97 107.77 L 120.37 107.04 C 119.74 106.28 118.62 106.16 117.86 106.79 C 117.09 107.41 116.98 108.54 117.61 109.30 Z M 118.45 110.32 L 119.24 110.96 C 120.02 111.59 121.17 111.47 121.80 110.69 C 122.43 109.91 122.31 108.77 121.53 108.13 L 120.73 107.49 C 119.95 106.86 118.81 106.98 118.17 107.76 C 117.54 108.54 117.67 109.69 118.45 110.32 Z M 119.57 111.20 L 120.47 111.64 C 121.38 112.09 122.48 111.72 122.93 110.80 C 123.38 109.89 123.01 108.79 122.09 108.34 L 121.20 107.90 C 120.29 107.45 119.18 107.82 118.73 108.73 C 118.28 109.65 118.66 110.75 119.57 111.20 Z M 120.72 111.75 L 121.57 112.02 C 122.54 112.33 123.58 111.79 123.89 110.82 C 124.20 109.85 123.66 108.81 122.69 108.50 L 121.84 108.23 C 120.87 107.92 119.83 108.46 119.52 109.43 C 119.21 110.40 119.75 111.44 120.72 111.75 Z M 121.72 112.06 L 122.67 112.27 C 123.67 112.50 124.65 111.87 124.88 110.88 C 125.10 109.89 124.48 108.90 123.49 108.68 L 122.54 108.46 C 121.54 108.24 120.56 108.86 120.33 109.85 C 120.11 110.84 120.73 111.83 121.72 112.06 Z M 122.78 112.29 L 123.81 112.46 C 124.81 112.63 125.75 111.95 125.92 110.95 C 126.09 109.94 125.41 109.00 124.41 108.83 L 123.38 108.66 C 122.38 108.49 121.43 109.17 121.27 110.17 C 121.10 111.18 121.78 112.12 122.78 112.29 Z M 123.88 112.47 L 124.95 112.60 C 125.96 112.73 126.87 112.01 127.00 111.01 C 127.13 110.00 126.41 109.09 125.41 108.96 L 124.34 108.82 C 123.33 108.70 122.41 109.41 122.29 110.42 C 122.16 111.42 122.87 112.34 123.88 112.47 Z M 125.00 112.60 L 126.09 112.71 C 127.09 112.81 127.99 112.07 128.09 111.07 C 128.19 110.06 127.45 109.17 126.45 109.07 L 125.36 108.96 C 124.35 108.86 123.46 109.59 123.36 110.60 C 123.26 111.60 123.99 112.50 125.00 112.60 Z M 126.12 112.70 L 127.21 112.79 C 128.21 112.87 129.09 112.13 129.17 111.13 C 129.25 110.13 128.51 109.25 127.51 109.16 L 126.42 109.08 C 125.42 108.99 124.54 109.74 124.46 110.74 C 124.37 111.74 125.12 112.62 126.12 112.70 Z M 127.23 112.77 L 128.30 112.85 C 129.29 112.91 130.15 112.17 130.22 111.18 C 130.29 110.18 129.54 109.32 128.55 109.26 L 127.48 109.18 C 126.49 109.11 125.63 109.86 125.56 110.85 C 125.50 111.84 126.24 112.70 127.23 112.77 Z M 128.32 112.83 L 129.34 112.89 C 130.32 112.95 131.16 112.20 131.22 111.22 C 131.28 110.24 130.53 109.39 129.55 109.33 L 128.53 109.27 C 127.55 109.22 126.70 109.96 126.65 110.95 C 126.59 111.93 127.34 112.77 128.32 112.83 Z M 129.35 112.87 L 130.32 112.92 C 131.29 112.97 132.12 112.22 132.17 111.25 C 132.22 110.28 131.47 109.45 130.50 109.40 L 129.54 109.35 C 128.56 109.30 127.74 110.05 127.68 111.02 C 127.63 111.99 128.38 112.82 129.35 112.87 Z M 130.33 112.90 L 131.23 112.95 C 132.19 112.99 133.00 112.25 133.05 111.29 C 133.09 110.32 132.35 109.51 131.39 109.46 L 130.49 109.42 C 129.53 109.38 128.71 110.12 128.67 111.08 C 128.62 112.04 129.37 112.86 130.33 112.90 Z M 131.23 112.93 L 132.30 112.97 C 133.25 113.02 134.05 112.28 134.10 111.33 C 134.14 110.38 133.40 109.57 132.45 109.53 L 131.38 109.48 C 130.43 109.44 129.63 110.18 129.58 111.13 C 129.54 112.08 130.28 112.88 131.23 112.93 Z M 132.30 112.95 L 133.35 113.00 C 134.29 113.04 135.08 112.31 135.13 111.37 C 135.17 110.43 134.44 109.63 133.50 109.59 L 132.45 109.55 C 131.51 109.51 130.71 110.24 130.67 111.18 C 130.63 112.12 131.36 112.91 132.30 112.95 Z M 133.35 112.98 L 134.29 113.02 C 135.22 113.06 136.01 112.34 136.04 111.41 C 136.08 110.48 135.36 109.69 134.43 109.65 L 133.49 109.61 C 132.56 109.57 131.78 110.29 131.74 111.22 C 131.70 112.16 132.42 112.94 133.35 112.98 Z M 134.29 113.00 L 135.17 113.04 C 136.09 113.08 136.87 112.37 136.91 111.45 C 136.95 110.53 136.23 109.75 135.31 109.71 L 134.43 109.67 C 133.51 109.63 132.73 110.35 132.69 111.27 C 132.66 112.19 133.37 112.96 134.29 113.00 Z M 135.17 113.03 L 136.07 113.07 C 136.99 113.10 137.76 112.39 137.80 111.48 C 137.83 110.57 137.12 109.80 136.21 109.76 L 135.31 109.72 C 134.40 109.68 133.63 110.39 133.59 111.31 C 133.55 112.22 134.26 112.99 135.17 113.03 Z M 136.08 113.06 L 137.04 113.10 C 137.95 113.13 138.71 112.42 138.75 111.50 C 138.78 110.59 138.07 109.83 137.16 109.80 L 136.20 109.76 C 135.29 109.73 134.52 110.44 134.49 111.35 C 134.46 112.26 135.17 113.03 136.08 113.06 Z M 137.05 113.09 L 138.13 113.12 C 139.04 113.14 139.79 112.42 139.81 111.52 C 139.84 110.61 139.12 109.85 138.21 109.83 L 137.14 109.80 C 136.23 109.78 135.47 110.49 135.45 111.40 C 135.43 112.31 136.15 113.07 137.05 113.09 Z M 138.14 113.11 L 139.15 113.13 C 140.06 113.14 140.81 112.42 140.82 111.51 C 140.83 110.61 140.11 109.86 139.20 109.85 L 138.20 109.83 C 137.29 109.82 136.54 110.54 136.53 111.45 C 136.51 112.35 137.24 113.10 138.14 113.11 Z M 139.16 113.13 L 140.11 113.14 C 141.01 113.15 141.75 112.42 141.76 111.51 C 141.77 110.61 141.04 109.87 140.14 109.86 L 139.19 109.85 C 138.29 109.84 137.55 110.57 137.54 111.47 C 137.53 112.38 138.26 113.12 139.16 113.13 Z M 140.11 113.14 L 141.12 113.14 C 142.02 113.15 142.76 112.42 142.77 111.52 C 142.77 110.61 142.04 109.87 141.14 109.87 L 140.13 109.86 C 139.23 109.85 138.49 110.58 138.48 111.49 C 138.48 112.39 139.21 113.13 140.11 113.14 Z M 141.12 113.14 L 142.16 113.15 C 143.06 113.16 143.80 112.43 143.81 111.52 C 143.81 110.62 143.08 109.88 142.18 109.87 L 141.14 109.87 C 140.23 109.86 139.49 110.59 139.49 111.49 C 139.48 112.40 140.21 113.14 141.12 113.14 Z M 142.15 113.15 L 143.21 113.16 C 144.11 113.17 144.85 112.44 144.86 111.53 C 144.87 110.63 144.14 109.89 143.24 109.88 L 142.18 109.87 C 141.28 109.87 140.54 110.59 140.53 111.50 C 140.52 112.40 141.25 113.14 142.15 113.15 Z M 143.20 113.16 L 144.24 113.17 C 145.15 113.18 145.89 112.46 145.90 111.55 C 145.91 110.65 145.19 109.91 144.29 109.90 L 143.25 109.88 C 142.34 109.87 141.60 110.60 141.59 111.50 C 141.58 112.40 142.30 113.15 143.20 113.16 Z M 144.24 113.17 L 145.25 113.19 C 146.16 113.20 146.90 112.48 146.92 111.58 C 146.93 110.68 146.21 109.93 145.31 109.91 L 144.29 109.90 C 143.39 109.88 142.64 110.60 142.63 111.51 C 142.61 112.41 143.33 113.15 144.24 113.17 Z M 145.25 113.19 L 146.25 113.21 C 147.15 113.23 147.90 112.51 147.92 111.61 C 147.94 110.70 147.22 109.95 146.32 109.94 L 145.31 109.91 C 144.41 109.90 143.66 110.61 143.64 111.52 C 143.62 112.42 144.34 113.17 145.25 113.19 Z M 146.24 113.21 L 147.23 113.23 C 148.14 113.25 148.89 112.54 148.91 111.63 C 148.93 110.73 148.22 109.98 147.31 109.96 L 146.32 109.94 C 145.42 109.91 144.67 110.63 144.65 111.53 C 144.62 112.44 145.34 113.19 146.24 113.21 Z M 147.23 113.23 L 148.22 113.26 C 149.12 113.28 149.87 112.57 149.89 111.66 C 149.92 110.76 149.20 110.01 148.30 109.98 L 147.32 109.96 C 146.41 109.94 145.66 110.65 145.64 111.55 C 145.61 112.46 146.33 113.21 147.23 113.23 Z M 148.22 113.26 L 148.81 113.27 C 149.72 113.30 150.47 112.58 150.49 111.68 C 150.51 110.78 149.80 110.02 148.90 110.00 L 148.30 109.98 C 147.40 109.96 146.65 110.67 146.62 111.58 C 146.60 112.48 147.31 113.23 148.22 113.26 Z"
      fill="black"
      fill-rule="nonzero" /><path d="M 120.61 129.46 L 121.61 129.46 C 122.59 129.46 123.38 128.67 123.38 127.69 C 123.38 126.71 122.59 125.92 121.61 125.92 L 120.61 125.92 C 119.63 125.92 118.84 126.71 118.84 127.69 C 118.84 128.67 119.63 129.46 120.61 129.46 Z M 121.61 129.47 L 122.61 129.47 C 123.60 129.47 124.40 128.67 124.40 127.69 C 124.40 126.70 123.60 125.91 122.61 125.91 L 121.61 125.91 C 120.63 125.91 119.83 126.70 119.83 127.69 C 119.83 128.67 120.63 129.47 121.61 129.47 Z M 122.61 129.48 L 123.61 129.48 C 124.60 129.48 125.41 128.68 125.41 127.69 C 125.41 126.70 124.60 125.90 123.61 125.90 L 122.61 125.90 C 121.62 125.90 120.82 126.70 120.82 127.69 C 120.82 128.68 121.62 129.48 122.61 129.48 Z M 123.61 129.49 L 124.61 129.49 C 125.61 129.49 126.41 128.68 126.41 127.69 C 126.41 126.69 125.61 125.89 124.61 125.89 L 123.61 125.89 C 122.62 125.89 121.81 126.69 121.81 127.69 C 121.81 128.68 122.62 129.49 123.61 129.49 Z M 124.61 129.50 L 125.64 129.50 C 126.64 129.50 127.45 128.69 127.45 127.69 C 127.45 126.69 126.64 125.88 125.64 125.88 L 124.61 125.88 C 123.61 125.88 122.80 126.69 122.80 127.69 C 122.80 128.69 123.61 129.50 124.61 129.50 Z M 125.64 129.50 L 126.67 129.50 C 127.68 129.50 128.49 128.69 128.49 127.69 C 128.49 126.69 127.68 125.88 126.67 125.88 L 125.64 125.88 C 124.64 125.88 123.83 126.69 123.83 127.69 C 123.83 128.69 124.64 129.50 125.64 129.50 Z M 126.67 129.50 L 127.68 129.50 C 128.68 129.50 129.49 128.69 129.49 127.69 C 129.49 126.69 128.68 125.88 127.68 125.88 L 126.67 125.88 C 125.67 125.88 124.86 126.69 124.86 127.69 C 124.86 128.69 125.67 129.50 126.67 129.50 Z M 127.68 129.50 L 128.64 129.50 C 129.64 129.50 130.45 128.69 130.45 127.69 C 130.45 126.69 129.64 125.88 128.64 125.88 L 127.68 125.88 C 126.68 125.88 125.87 126.69 125.87 127.69 C 125.87 128.69 126.68 129.50 127.68 129.50 Z M 128.64 129.50 L 129.65 129.50 C 130.65 129.50 131.46 128.69 131.46 127.69 C 131.46 126.69 130.65 125.88 129.65 125.88 L 128.64 125.88 C 127.64 125.88 126.83 126.69 126.83 127.69 C 126.83 128.69 127.64 129.50 128.64 129.50 Z M 129.65 129.50 L 130.67 129.50 C 131.67 129.50 132.48 128.69 132.48 127.69 C 132.48 126.69 131.67 125.88 130.67 125.88 L 129.65 125.88 C 128.65 125.88 127.84 126.69 127.84 127.69 C 127.84 128.69 128.65 129.50 129.65 129.50 Z M 130.67 129.50 L 131.64 129.50 C 132.64 129.50 133.45 128.69 133.45 127.69 C 133.45 126.69 132.64 125.88 131.64 125.88 L 130.67 125.88 C 129.67 125.88 128.86 126.69 128.86 127.69 C 128.86 128.69 129.67 129.50 130.67 129.50 Z M 131.64 129.50 L 132.61 129.50 C 133.61 129.50 134.42 128.69 134.42 127.69 C 134.42 126.69 133.61 125.88 132.61 125.88 L 131.64 125.88 C 130.64 125.88 129.83 126.69 129.83 127.69 C 129.83 128.69 130.64 129.50 131.64 129.50 Z M 132.61 129.50 L 133.61 129.50 C 134.61 129.50 135.42 128.69 135.42 127.69 C 135.42 126.69 134.61 125.88 133.61 125.88 L 132.61 125.88 C 131.61 125.88 130.80 126.69 130.80 127.69 C 130.80 128.69 131.61 129.50 132.61 129.50 Z M 133.61 129.49 L 134.62 129.49 C 135.61 129.49 136.42 128.69 136.42 127.69 C 136.42 126.69 135.61 125.88 134.62 125.88 L 133.61 125.88 C 132.62 125.88 131.81 126.69 131.81 127.69 C 131.81 128.69 132.62 129.49 133.61 129.49 Z M 134.62 129.49 L 135.61 129.49 C 136.60 129.49 137.41 128.68 137.41 127.69 C 137.41 126.69 136.60 125.89 135.61 125.89 L 134.62 125.89 C 133.62 125.89 132.82 126.69 132.82 127.69 C 132.82 128.68 133.62 129.49 134.62 129.49 Z M 135.61 129.49 L 136.56 129.49 C 137.56 129.49 138.36 128.69 138.36 127.69 C 138.36 126.70 137.56 125.89 136.57 125.89 L 135.61 125.89 C 134.62 125.89 133.81 126.69 133.81 127.69 C 133.81 128.68 134.61 129.49 135.61 129.49 Z M 136.55 129.49 L 137.52 129.49 C 138.51 129.50 139.33 128.70 139.33 127.71 C 139.34 126.72 138.54 125.91 137.55 125.90 L 136.58 125.89 C 135.59 125.88 134.78 126.68 134.77 127.68 C 134.76 128.67 135.56 129.48 136.55 129.49 Z M 137.50 129.49 L 138.53 129.51 C 139.52 129.53 140.34 128.75 140.36 127.76 C 140.38 126.77 139.60 125.95 138.61 125.92 L 137.57 125.90 C 136.58 125.88 135.76 126.67 135.74 127.66 C 135.72 128.65 136.51 129.47 137.50 129.49 Z M 138.50 129.51 L 139.54 129.55 C 140.53 129.59 141.36 128.82 141.40 127.83 C 141.44 126.84 140.67 126.01 139.68 125.97 L 138.64 125.93 C 137.65 125.89 136.81 126.66 136.78 127.65 C 136.74 128.64 137.51 129.47 138.50 129.51 Z M 139.47 129.55 L 140.51 129.63 C 141.49 129.71 142.36 128.97 142.43 127.98 C 142.51 127.00 141.77 126.13 140.79 126.05 L 139.75 125.97 C 138.76 125.89 137.90 126.63 137.82 127.62 C 137.75 128.61 138.48 129.47 139.47 129.55 Z M 140.36 129.61 L 141.37 129.77 C 142.34 129.93 143.26 129.27 143.42 128.29 C 143.58 127.32 142.92 126.40 141.94 126.24 L 140.93 126.07 C 139.96 125.91 139.04 126.58 138.88 127.55 C 138.72 128.53 139.38 129.45 140.36 129.61 Z M 141.11 129.71 L 142.01 130.00 C 142.96 130.30 143.96 129.77 144.26 128.83 C 144.56 127.89 144.04 126.88 143.10 126.58 L 142.20 126.30 C 141.25 126.00 140.25 126.52 139.95 127.46 C 139.65 128.41 140.17 129.41 141.11 129.71 Z M 141.60 129.80 L 142.41 130.31 C 143.24 130.84 144.35 130.59 144.88 129.76 C 145.40 128.92 145.16 127.82 144.32 127.29 L 143.51 126.78 C 142.68 126.25 141.57 126.50 141.04 127.33 C 140.52 128.17 140.76 129.27 141.60 129.80 Z M 141.99 129.93 L 142.59 130.67 C 143.21 131.43 144.33 131.54 145.10 130.92 C 145.86 130.29 145.97 129.17 145.35 128.41 L 144.74 127.67 C 144.12 126.91 143.00 126.80 142.24 127.42 C 141.47 128.05 141.36 129.17 141.99 129.93 Z M 142.34 130.25 L 142.75 131.19 C 143.15 132.08 144.19 132.49 145.09 132.10 C 145.99 131.70 146.40 130.66 146.00 129.76 L 145.59 128.82 C 145.20 127.93 144.15 127.52 143.25 127.91 C 142.36 128.31 141.95 129.35 142.34 130.25 Z M 142.65 130.88 L 142.88 131.84 C 143.11 132.80 144.07 133.38 145.02 133.16 C 145.97 132.93 146.56 131.97 146.33 131.02 L 146.10 130.06 C 145.87 129.11 144.92 128.52 143.97 128.75 C 143.01 128.98 142.43 129.93 142.65 130.88 Z M 142.85 131.64 L 142.97 132.60 C 143.08 133.57 143.96 134.26 144.93 134.15 C 145.90 134.03 146.59 133.15 146.48 132.18 L 146.36 131.22 C 146.25 130.25 145.36 129.56 144.40 129.68 C 143.43 129.80 142.73 130.68 142.85 131.64 Z M 142.96 132.44 L 142.98 133.45 C 143.01 134.43 143.82 135.20 144.80 135.17 C 145.77 135.14 146.54 134.33 146.51 133.36 L 146.49 132.34 C 146.46 131.37 145.65 130.60 144.67 130.63 C 143.70 130.65 142.93 131.46 142.96 132.44 Z M 142.99 133.30 L 142.93 134.34 C 142.87 135.32 143.61 136.15 144.58 136.21 C 145.56 136.27 146.39 135.52 146.45 134.55 L 146.51 133.51 C 146.57 132.54 145.83 131.70 144.85 131.64 C 143.88 131.59 143.04 132.33 142.99 133.30 Z M 142.94 134.19 L 142.80 135.20 C 142.66 136.16 143.33 137.06 144.29 137.20 C 145.25 137.34 146.15 136.67 146.29 135.71 L 146.43 134.70 C 146.57 133.74 145.90 132.84 144.94 132.70 C 143.98 132.56 143.08 133.23 142.94 134.19 Z M 142.83 135.06 L 142.61 136.00 C 142.39 136.95 142.98 137.90 143.93 138.12 C 144.87 138.34 145.82 137.74 146.04 136.80 L 146.26 135.85 C 146.48 134.90 145.89 133.96 144.94 133.74 C 143.99 133.52 143.04 134.11 142.83 135.06 Z M 142.64 135.88 L 142.35 136.82 C 142.06 137.75 142.58 138.73 143.51 139.02 C 144.44 139.31 145.42 138.79 145.71 137.86 L 146.00 136.92 C 146.29 135.99 145.77 135.01 144.84 134.72 C 143.92 134.43 142.93 134.95 142.64 135.88 Z M 142.39 136.71 L 142.03 137.66 C 141.68 138.56 142.14 139.58 143.04 139.92 C 143.95 140.27 144.97 139.82 145.31 138.91 L 145.67 137.97 C 146.02 137.06 145.57 136.05 144.66 135.70 C 143.75 135.35 142.74 135.81 142.39 136.71 Z M 142.07 137.57 L 141.64 138.52 C 141.25 139.41 141.65 140.44 142.53 140.84 C 143.42 141.23 144.46 140.84 144.85 139.95 L 145.28 139.00 C 145.67 138.11 145.27 137.07 144.39 136.68 C 143.50 136.28 142.46 136.68 142.07 137.57 Z M 141.68 138.46 L 141.25 139.31 C 140.82 140.18 141.17 141.24 142.04 141.67 C 142.91 142.10 143.96 141.74 144.39 140.87 L 144.82 140.01 C 145.25 139.15 144.90 138.09 144.03 137.66 C 143.16 137.23 142.11 137.59 141.68 138.46 Z M 141.28 139.26 L 140.81 140.12 C 140.35 140.98 140.67 142.04 141.52 142.50 C 142.38 142.96 143.44 142.64 143.90 141.79 L 144.36 140.93 C 144.82 140.07 144.50 139.01 143.65 138.55 C 142.80 138.09 141.74 138.41 141.28 139.26 Z M 140.84 140.08 L 140.34 140.95 C 139.85 141.78 140.14 142.85 140.98 143.34 C 141.81 143.82 142.88 143.54 143.37 142.70 L 143.87 141.83 C 144.36 141.00 144.07 139.93 143.23 139.44 C 142.40 138.96 141.33 139.24 140.84 140.08 Z M 140.37 140.90 L 139.83 141.77 C 139.32 142.59 139.57 143.67 140.40 144.18 C 141.22 144.69 142.30 144.43 142.80 143.61 L 143.34 142.74 C 143.85 141.92 143.59 140.85 142.77 140.34 C 141.95 139.83 140.87 140.08 140.37 140.90 Z M 139.86 141.73 L 139.29 142.60 C 138.76 143.41 138.98 144.49 139.79 145.02 C 140.60 145.55 141.68 145.32 142.21 144.52 L 142.78 143.65 C 143.31 142.85 143.08 141.76 142.27 141.23 C 141.47 140.70 140.39 140.93 139.86 141.73 Z M 139.32 142.56 L 138.80 143.32 C 138.25 144.11 138.44 145.19 139.24 145.74 C 140.03 146.29 141.11 146.09 141.66 145.30 L 142.18 144.55 C 142.73 143.76 142.53 142.67 141.74 142.12 C 140.95 141.58 139.86 141.77 139.32 142.56 Z M 138.82 143.28 L 138.29 144.02 C 137.72 144.79 137.89 145.88 138.67 146.45 C 139.44 147.01 140.53 146.84 141.10 146.07 L 141.63 145.33 C 142.20 144.56 142.03 143.47 141.25 142.90 C 140.48 142.34 139.39 142.51 138.82 143.28 Z M 138.32 143.98 L 137.74 144.73 C 137.16 145.48 137.30 146.57 138.06 147.16 C 138.81 147.74 139.90 147.61 140.49 146.85 L 141.06 146.10 C 141.65 145.34 141.51 144.26 140.75 143.67 C 140.00 143.08 138.91 143.22 138.32 143.98 Z M 137.78 144.69 L 137.15 145.46 C 136.54 146.20 136.65 147.29 137.39 147.90 C 138.13 148.50 139.22 148.39 139.82 147.65 L 140.45 146.88 C 141.06 146.14 140.95 145.05 140.21 144.45 C 139.47 143.84 138.38 143.95 137.78 144.69 Z M 137.18 145.43 L 136.48 146.24 C 135.86 146.96 135.94 148.04 136.66 148.67 C 137.38 149.29 138.47 149.21 139.09 148.49 L 139.79 147.69 C 140.41 146.97 140.33 145.88 139.61 145.25 C 138.89 144.63 137.80 144.71 137.18 145.43 Z M 136.52 146.21 L 135.74 147.06 C 135.10 147.76 135.15 148.85 135.86 149.49 C 136.56 150.13 137.65 150.07 138.28 149.37 L 139.06 148.52 C 139.70 147.82 139.65 146.73 138.95 146.09 C 138.24 145.45 137.16 145.50 136.52 146.21 Z M 135.77 147.03 L 135.10 147.74 C 134.44 148.43 134.47 149.52 135.16 150.17 C 135.85 150.82 136.94 150.79 137.59 150.10 L 138.26 149.40 C 138.91 148.71 138.88 147.62 138.19 146.97 C 137.51 146.32 136.42 146.35 135.77 147.03 Z M 135.11 147.72 L 134.43 148.43 C 133.76 149.11 133.78 150.19 134.46 150.86 C 135.14 151.52 136.22 151.51 136.89 150.83 L 137.57 150.12 C 138.24 149.44 138.22 148.36 137.54 147.69 C 136.86 147.03 135.77 147.04 135.11 147.72 Z M 134.44 148.41 L 133.72 149.13 C 133.05 149.80 133.05 150.89 133.72 151.56 C 134.39 152.23 135.48 152.23 136.16 151.56 L 136.87 150.84 C 137.55 150.17 137.55 149.08 136.87 148.41 C 136.20 147.74 135.11 147.74 134.44 148.41 Z M 133.73 149.11 L 133.00 149.83 C 132.31 150.50 132.30 151.59 132.97 152.27 C 133.63 152.95 134.72 152.96 135.40 152.30 L 136.14 151.58 C 136.82 150.91 136.84 149.82 136.17 149.14 C 135.51 148.46 134.42 148.45 133.73 149.11 Z M 133.01 149.82 L 132.26 150.54 C 131.57 151.19 131.54 152.29 132.20 152.98 C 132.86 153.66 133.95 153.69 134.64 153.03 L 135.39 152.31 C 136.08 151.65 136.11 150.56 135.45 149.87 C 134.79 149.18 133.70 149.16 133.01 149.82 Z M 132.27 150.52 L 131.52 151.22 C 130.82 151.88 130.79 152.97 131.44 153.67 C 132.09 154.36 133.18 154.40 133.88 153.75 L 134.63 153.04 C 135.33 152.39 135.36 151.30 134.71 150.60 C 134.06 149.91 132.97 149.87 132.27 150.52 Z M 131.53 151.21 L 130.79 151.89 C 130.09 152.53 130.04 153.63 130.69 154.33 C 131.33 155.04 132.43 155.08 133.13 154.44 L 133.87 153.76 C 134.57 153.12 134.62 152.02 133.98 151.32 C 133.33 150.61 132.24 150.56 131.53 151.21 Z M 130.81 151.87 L 130.09 152.51 C 129.38 153.15 129.31 154.25 129.95 154.96 C 130.59 155.67 131.69 155.73 132.40 155.10 L 133.12 154.45 C 133.83 153.82 133.89 152.72 133.25 152.01 C 132.61 151.29 131.52 151.23 130.81 151.87 Z M 130.10 152.49 L 129.25 153.24 C 128.52 153.87 128.45 154.97 129.08 155.69 C 129.70 156.41 130.80 156.49 131.52 155.86 L 132.38 155.11 C 133.11 154.49 133.18 153.39 132.55 152.67 C 131.92 151.94 130.83 151.87 130.10 152.49 Z M 129.26 153.22 L 128.43 153.92 C 127.70 154.54 127.60 155.63 128.22 156.37 C 128.84 157.11 129.94 157.20 130.68 156.58 L 131.51 155.88 C 132.24 155.26 132.34 154.16 131.72 153.43 C 131.10 152.69 130.00 152.60 129.26 153.22 Z M 128.45 153.90 L 127.66 154.54 C 126.91 155.15 126.80 156.25 127.42 157.00 C 128.03 157.75 129.13 157.86 129.87 157.25 L 130.66 156.60 C 131.41 155.99 131.52 154.89 130.91 154.14 C 130.30 153.40 129.20 153.28 128.45 153.90 Z M 127.67 154.52 L 126.92 155.13 C 126.16 155.73 126.04 156.83 126.64 157.59 C 127.25 158.35 128.35 158.47 129.11 157.86 L 129.86 157.26 C 130.62 156.66 130.74 155.55 130.14 154.80 C 129.53 154.04 128.43 153.92 127.67 154.52 Z M 126.93 155.11 L 126.20 155.68 C 125.44 156.29 125.30 157.39 125.91 158.15 C 126.51 158.92 127.61 159.05 128.38 158.45 L 129.10 157.88 C 129.87 157.28 130.00 156.17 129.40 155.41 C 128.80 154.64 127.69 154.51 126.93 155.11 Z M 126.20 155.68 L 125.49 156.23 C 124.73 156.83 124.59 157.94 125.19 158.71 C 125.79 159.48 126.90 159.61 127.67 159.01 L 128.38 158.46 C 129.14 157.86 129.28 156.75 128.68 155.98 C 128.08 155.21 126.97 155.08 126.20 155.68 Z M 125.49 156.23 L 124.71 156.84 C 123.94 157.44 123.81 158.56 124.41 159.33 C 125.02 160.10 126.13 160.23 126.90 159.62 L 127.68 159.01 C 128.45 158.41 128.58 157.29 127.97 156.52 C 127.37 155.76 126.25 155.62 125.49 156.23 Z M 124.70 156.84 L 123.90 157.47 C 123.13 158.08 123.00 159.20 123.61 159.97 C 124.23 160.74 125.34 160.87 126.11 160.26 L 126.91 159.62 C 127.68 159.01 127.81 157.89 127.20 157.12 C 126.59 156.35 125.47 156.23 124.70 156.84 Z M 123.89 157.47 L 123.11 158.10 C 122.34 158.71 122.21 159.84 122.83 160.61 C 123.44 161.38 124.57 161.50 125.34 160.89 L 126.13 160.26 C 126.90 159.64 127.02 158.52 126.40 157.75 C 125.79 156.97 124.66 156.85 123.89 157.47 Z M 123.10 158.09 L 122.32 158.72 C 121.55 159.34 121.43 160.47 122.05 161.24 C 122.68 162.01 123.81 162.14 124.58 161.51 L 125.35 160.89 C 126.12 160.27 126.24 159.14 125.62 158.36 C 125.00 157.59 123.87 157.47 123.10 158.09 Z M 122.31 158.71 L 121.55 159.33 C 120.78 159.96 120.66 161.10 121.29 161.87 C 121.92 162.64 123.05 162.76 123.83 162.13 L 124.59 161.52 C 125.36 160.89 125.48 159.75 124.85 158.98 C 124.22 158.20 123.09 158.09 122.31 158.71 Z M 121.54 159.33 L 120.77 159.96 C 120.00 160.59 119.88 161.73 120.51 162.51 C 121.15 163.28 122.29 163.40 123.06 162.77 L 123.84 162.14 C 124.61 161.50 124.73 160.36 124.09 159.59 C 123.46 158.81 122.32 158.70 121.54 159.33 Z M 120.76 159.96 L 119.97 160.61 C 119.20 161.25 119.09 162.40 119.73 163.17 C 120.37 163.94 121.51 164.05 122.28 163.41 L 123.07 162.76 C 123.85 162.13 123.96 160.98 123.32 160.21 C 122.68 159.43 121.54 159.33 120.76 159.96 Z M 119.96 160.62 L 119.19 161.27 C 118.42 161.92 118.32 163.07 118.97 163.83 C 119.61 164.60 120.76 164.70 121.53 164.05 L 122.30 163.40 C 123.07 162.76 123.16 161.61 122.52 160.84 C 121.87 160.08 120.73 159.98 119.96 160.62 Z M 119.16 161.29 L 118.41 161.94 C 117.66 162.60 117.57 163.75 118.23 164.51 C 118.89 165.27 120.04 165.35 120.80 164.69 L 121.55 164.04 C 122.31 163.38 122.39 162.23 121.73 161.47 C 121.07 160.71 119.92 160.63 119.16 161.29 Z M 118.38 161.97 L 117.66 162.63 C 116.91 163.30 116.86 164.45 117.53 165.20 C 118.21 165.94 119.36 166.00 120.10 165.32 L 120.83 164.66 C 121.57 163.99 121.63 162.84 120.95 162.09 C 120.28 161.35 119.13 161.29 118.38 161.97 Z M 117.61 162.66 L 116.80 163.43 C 116.08 164.14 116.05 165.29 116.76 166.02 C 117.46 166.75 118.62 166.77 119.34 166.07 L 120.15 165.29 C 120.88 164.59 120.90 163.43 120.20 162.70 C 119.50 161.98 118.34 161.95 117.61 162.66 Z M 116.71 163.49 L 115.87 164.39 C 115.17 165.15 115.22 166.33 115.98 167.02 C 116.73 167.72 117.91 167.67 118.61 166.92 L 119.44 166.01 C 120.14 165.26 120.09 164.08 119.34 163.38 C 118.58 162.69 117.40 162.73 116.71 163.49 Z M 115.68 164.56 L 115.11 165.37 C 114.50 166.23 114.71 167.41 115.57 168.02 C 116.43 168.63 117.62 168.42 118.22 167.56 L 118.79 166.75 C 119.40 165.90 119.20 164.71 118.34 164.10 C 117.48 163.49 116.29 163.70 115.68 164.56 Z M 114.78 165.97 L 114.62 166.60 C 114.34 167.64 114.96 168.71 116.00 168.98 C 117.04 169.26 118.11 168.64 118.38 167.60 L 118.55 166.97 C 118.83 165.93 118.21 164.86 117.17 164.58 C 116.13 164.31 115.06 164.93 114.78 165.97 Z M 115.04 168.45 L 115.42 168.86 C 116.17 169.66 117.42 169.71 118.23 168.97 C 119.03 168.22 119.08 166.97 118.33 166.16 L 117.95 165.75 C 117.21 164.95 115.95 164.90 115.15 165.64 C 114.35 166.39 114.30 167.64 115.04 168.45 Z M 116.46 169.48 L 117.33 169.66 C 118.42 169.90 119.49 169.21 119.72 168.12 C 119.95 167.04 119.26 165.97 118.18 165.73 L 117.30 165.55 C 116.22 165.31 115.15 166.00 114.91 167.09 C 114.68 168.17 115.37 169.24 116.46 169.48 Z M 117.67 169.73 L 118.87 169.78 C 119.99 169.83 120.94 168.96 120.99 167.84 C 121.04 166.71 120.16 165.77 119.04 165.72 L 117.84 165.67 C 116.72 165.62 115.77 166.49 115.72 167.61 C 115.68 168.74 116.55 169.68 117.67 169.73 Z M 118.95 169.81 L 120.14 169.81 C 121.27 169.81 122.20 168.89 122.20 167.76 C 122.20 166.62 121.28 165.70 120.15 165.70 L 118.96 165.70 C 117.82 165.69 116.90 166.61 116.90 167.75 C 116.90 168.88 117.82 169.80 118.95 169.81 Z M 120.14 169.82 L 121.18 169.82 C 122.32 169.82 123.25 168.89 123.25 167.75 C 123.25 166.61 122.32 165.69 121.18 165.69 L 120.14 165.69 C 119.00 165.69 118.08 166.61 118.08 167.75 C 118.08 168.89 119.00 169.82 120.14 169.82 Z M 121.18 169.82 L 122.21 169.82 C 123.35 169.82 124.28 168.90 124.28 167.75 C 124.28 166.61 123.35 165.68 122.21 165.68 L 121.18 165.68 C 120.04 165.68 119.11 166.61 119.11 167.75 C 119.11 168.90 120.04 169.82 121.18 169.82 Z M 122.21 169.83 L 123.20 169.83 C 124.35 169.83 125.28 168.90 125.28 167.75 C 125.28 166.61 124.35 165.68 123.20 165.68 L 122.21 165.68 C 121.06 165.68 120.13 166.61 120.13 167.75 C 120.13 168.90 121.06 169.83 122.21 169.83 Z M 123.20 169.83 L 124.13 169.83 C 125.28 169.83 126.21 168.90 126.21 167.75 C 126.21 166.60 125.28 165.67 124.13 165.67 L 123.20 165.67 C 122.05 165.67 121.12 166.60 121.12 167.75 C 121.12 168.90 122.05 169.83 123.20 169.83 Z M 124.13 169.84 L 125.22 169.84 C 126.37 169.84 127.30 168.91 127.31 167.76 C 127.31 166.61 126.38 165.67 125.23 165.67 L 124.14 165.67 C 122.99 165.67 122.05 166.60 122.05 167.75 C 122.04 168.90 122.98 169.83 124.13 169.84 Z M 125.18 169.84 L 126.17 169.86 C 127.32 169.88 128.27 168.97 128.30 167.81 C 128.32 166.66 127.40 165.71 126.25 165.69 L 125.26 165.67 C 124.11 165.65 123.16 166.56 123.14 167.72 C 123.11 168.87 124.03 169.82 125.18 169.84 Z M 126.10 169.86 L 127.04 169.91 C 128.19 169.97 129.17 169.09 129.24 167.94 C 129.30 166.79 128.42 165.81 127.27 165.74 L 126.32 165.69 C 125.17 165.63 124.19 166.51 124.13 167.66 C 124.06 168.81 124.95 169.80 126.10 169.86 Z M 126.94 169.90 L 127.88 170.00 C 129.03 170.12 130.06 169.29 130.18 168.14 C 130.30 167.00 129.46 165.97 128.32 165.85 L 127.37 165.75 C 126.22 165.63 125.20 166.46 125.08 167.61 C 124.96 168.75 125.79 169.78 126.94 169.90 Z M 127.79 169.99 L 128.76 170.14 C 129.91 170.31 130.97 169.52 131.14 168.38 C 131.31 167.24 130.52 166.18 129.38 166.01 L 128.41 165.86 C 127.27 165.69 126.20 166.48 126.03 167.62 C 125.86 168.76 126.65 169.82 127.79 169.99 Z M 128.71 170.13 L 129.71 170.30 C 130.84 170.50 131.93 169.75 132.13 168.61 C 132.33 167.47 131.57 166.39 130.43 166.19 L 129.44 166.01 C 128.30 165.81 127.22 166.57 127.02 167.71 C 126.82 168.84 127.57 169.93 128.71 170.13 Z M 129.68 170.30 L 130.69 170.49 C 131.82 170.70 132.92 169.96 133.13 168.82 C 133.34 167.69 132.60 166.60 131.46 166.38 L 130.46 166.19 C 129.32 165.98 128.23 166.73 128.02 167.86 C 127.80 168.99 128.55 170.09 129.68 170.30 Z M 130.69 170.49 L 131.65 170.67 C 132.79 170.88 133.88 170.14 134.09 169.01 C 134.31 167.87 133.56 166.78 132.43 166.56 L 131.46 166.38 C 130.33 166.17 129.24 166.91 129.02 168.05 C 128.81 169.18 129.56 170.27 130.69 170.49 Z M 131.65 170.67 L 132.62 170.86 C 133.76 171.07 134.85 170.33 135.07 169.20 C 135.29 168.07 134.54 166.97 133.41 166.75 L 132.44 166.57 C 131.30 166.35 130.21 167.09 129.99 168.22 C 129.77 169.36 130.51 170.45 131.65 170.67 Z M 132.61 170.85 L 133.60 171.05 C 134.73 171.28 135.83 170.55 136.06 169.42 C 136.28 168.28 135.55 167.18 134.42 166.96 L 133.43 166.76 C 132.30 166.53 131.20 167.26 130.97 168.39 C 130.74 169.53 131.47 170.63 132.61 170.85 Z M 133.57 171.05 L 134.55 171.26 C 135.68 171.50 136.79 170.78 137.03 169.65 C 137.27 168.52 136.55 167.41 135.42 167.17 L 134.44 166.96 C 133.32 166.72 132.21 167.44 131.97 168.57 C 131.72 169.70 132.44 170.81 133.57 171.05 Z M 134.53 171.25 L 135.47 171.46 C 136.60 171.72 137.72 171.01 137.97 169.88 C 138.22 168.76 137.52 167.64 136.39 167.39 L 135.44 167.17 C 134.32 166.92 133.20 167.63 132.95 168.75 C 132.69 169.88 133.40 171.00 134.53 171.25 Z M 135.46 171.46 L 136.43 171.68 C 137.56 171.94 138.68 171.24 138.94 170.12 C 139.20 168.99 138.50 167.87 137.37 167.61 L 136.40 167.39 C 135.28 167.13 134.16 167.83 133.90 168.96 C 133.64 170.08 134.34 171.20 135.46 171.46 Z M 136.43 171.68 L 137.43 171.91 C 138.55 172.17 139.68 171.47 139.93 170.35 C 140.19 169.23 139.49 168.11 138.37 167.85 L 137.37 167.62 C 136.25 167.36 135.13 168.06 134.87 169.18 C 134.61 170.30 135.31 171.42 136.43 171.68 Z M 137.44 171.91 L 138.44 172.14 C 139.56 172.39 140.68 171.69 140.93 170.57 C 141.19 169.44 140.48 168.33 139.36 168.07 L 138.36 167.85 C 137.24 167.59 136.12 168.30 135.87 169.42 C 135.61 170.54 136.32 171.66 137.44 171.91 Z M 138.45 172.14 L 139.43 172.36 C 140.55 172.61 141.66 171.90 141.91 170.77 C 142.16 169.65 141.45 168.54 140.33 168.29 L 139.35 168.07 C 138.22 167.82 137.11 168.53 136.86 169.65 C 136.61 170.78 137.32 171.89 138.45 172.14 Z M 139.43 172.36 L 140.42 172.57 C 141.54 172.82 142.65 172.11 142.90 170.99 C 143.15 169.86 142.44 168.75 141.31 168.51 L 140.33 168.29 C 139.20 168.04 138.09 168.75 137.84 169.88 C 137.60 171.00 138.31 172.11 139.43 172.36 Z M 140.42 172.57 L 141.40 172.79 C 142.52 173.04 143.63 172.33 143.88 171.21 C 144.13 170.08 143.42 168.97 142.30 168.72 L 141.32 168.51 C 140.19 168.26 139.08 168.97 138.83 170.09 C 138.59 171.21 139.29 172.32 140.42 172.57 Z M 141.39 172.78 L 142.35 173.00 C 143.47 173.26 144.59 172.56 144.84 171.44 C 145.10 170.32 144.40 169.20 143.28 168.95 L 142.31 168.73 C 141.19 168.47 140.07 169.18 139.82 170.30 C 139.56 171.42 140.27 172.53 141.39 172.78 Z M 142.34 173.00 L 143.34 173.23 C 144.46 173.49 145.58 172.80 145.84 171.69 C 146.10 170.57 145.41 169.45 144.29 169.19 L 143.29 168.96 C 142.17 168.70 141.06 169.39 140.80 170.50 C 140.53 171.62 141.23 172.73 142.34 173.00 Z M 143.34 173.22 L 144.31 173.46 C 145.42 173.72 146.54 173.04 146.80 171.93 C 147.07 170.82 146.38 169.70 145.27 169.43 L 144.30 169.20 C 143.19 168.93 142.07 169.62 141.81 170.73 C 141.54 171.84 142.23 172.96 143.34 173.22 Z M 144.31 173.45 L 145.27 173.68 C 146.37 173.94 147.49 173.26 147.75 172.15 C 148.02 171.05 147.33 169.93 146.23 169.67 L 145.27 169.44 C 144.16 169.17 143.05 169.86 142.79 170.97 C 142.52 172.07 143.20 173.19 144.31 173.45 Z M 145.28 173.68 L 146.23 173.90 C 147.34 174.16 148.44 173.47 148.70 172.37 C 148.96 171.26 148.27 170.15 147.17 169.90 L 146.21 169.67 C 145.11 169.41 144.00 170.10 143.74 171.20 C 143.49 172.31 144.17 173.42 145.28 173.68 Z M 146.25 173.90 L 147.23 174.12 C 148.33 174.37 149.43 173.68 149.68 172.57 C 149.93 171.47 149.24 170.37 148.13 170.12 L 147.15 169.90 C 146.05 169.65 144.95 170.34 144.70 171.44 C 144.45 172.55 145.14 173.64 146.25 173.90 Z M 147.23 174.11 L 148.21 174.33 C 149.31 174.58 150.40 173.89 150.65 172.79 C 150.90 171.69 150.20 170.59 149.10 170.35 L 148.13 170.13 C 147.03 169.88 145.94 170.57 145.69 171.67 C 145.44 172.77 146.13 173.86 147.23 174.11 Z M 148.21 174.32 L 149.18 174.54 C 150.27 174.79 151.36 174.11 151.61 173.01 C 151.86 171.92 151.18 170.83 150.08 170.58 L 149.11 170.36 C 148.01 170.11 146.92 170.79 146.67 171.89 C 146.42 172.98 147.11 174.07 148.21 174.32 Z M 149.16 174.53 L 150.14 174.76 C 151.23 175.02 152.32 174.34 152.57 173.25 C 152.83 172.17 152.16 171.07 151.07 170.82 L 150.09 170.59 C 149.01 170.33 147.91 171.01 147.66 172.09 C 147.40 173.18 148.08 174.27 149.16 174.53 Z M 150.12 174.75 L 151.10 174.98 C 152.18 175.25 153.27 174.59 153.53 173.51 C 153.80 172.43 153.14 171.34 152.06 171.07 L 151.08 170.83 C 150.00 170.57 148.91 171.23 148.65 172.31 C 148.38 173.39 149.04 174.48 150.12 174.75 Z M 151.09 174.97 L 152.06 175.21 C 153.14 175.48 154.22 174.83 154.49 173.75 C 154.76 172.68 154.10 171.59 153.03 171.33 L 152.06 171.09 C 150.99 170.82 149.90 171.47 149.64 172.55 C 149.37 173.62 150.02 174.70 151.09 174.97 Z M 152.07 175.20 L 153.04 175.44 C 154.10 175.70 155.18 175.05 155.44 173.98 C 155.71 172.92 155.05 171.84 153.99 171.58 L 153.02 171.34 C 151.96 171.08 150.88 171.73 150.62 172.79 C 150.35 173.86 151.00 174.94 152.07 175.20 Z M 153.05 175.43 L 154.03 175.66 C 155.09 175.91 156.16 175.26 156.41 174.20 C 156.66 173.14 156.01 172.07 154.95 171.82 L 153.97 171.59 C 152.91 171.33 151.84 171.99 151.59 173.05 C 151.34 174.11 151.99 175.18 153.05 175.43 Z M 154.05 175.65 L 155.03 175.88 C 156.08 176.12 157.13 175.46 157.38 174.41 C 157.62 173.35 156.96 172.30 155.91 172.06 L 154.93 171.83 C 153.88 171.59 152.82 172.24 152.58 173.30 C 152.34 174.35 152.99 175.41 154.05 175.65 Z M 155.04 175.86 L 156.01 176.08 C 157.06 176.32 158.10 175.67 158.34 174.62 C 158.58 173.57 157.92 172.53 156.87 172.29 L 155.90 172.07 C 154.85 171.83 153.81 172.49 153.57 173.54 C 153.33 174.58 153.99 175.63 155.04 175.86 Z M 156.02 176.07 L 156.98 176.29 C 158.02 176.52 159.05 175.87 159.29 174.83 C 159.52 173.79 158.87 172.76 157.83 172.52 L 156.87 172.30 C 155.83 172.07 154.79 172.72 154.56 173.76 C 154.32 174.80 154.98 175.84 156.02 176.07 Z M 156.98 176.27 L 157.93 176.49 C 158.96 176.72 159.99 176.07 160.22 175.04 C 160.46 174.01 159.81 172.99 158.78 172.76 L 157.83 172.54 C 156.80 172.31 155.77 172.95 155.54 173.98 C 155.31 175.01 155.95 176.04 156.98 176.27 Z M 157.94 176.47 L 158.90 176.68 C 159.92 176.91 160.94 176.27 161.16 175.25 C 161.39 174.23 160.75 173.22 159.73 172.99 L 158.77 172.78 C 157.75 172.55 156.74 173.19 156.51 174.21 C 156.28 175.23 156.92 176.24 157.94 176.47 Z M 158.92 176.67 L 159.91 176.88 C 160.92 177.10 161.92 176.46 162.14 175.45 C 162.36 174.44 161.72 173.44 160.71 173.22 L 159.72 173.01 C 158.71 172.79 157.71 173.43 157.49 174.44 C 157.27 175.45 157.91 176.45 158.92 176.67 Z M 159.93 176.86 L 160.93 177.07 C 161.93 177.28 162.91 176.64 163.12 175.64 C 163.33 174.64 162.69 173.66 161.69 173.45 L 160.69 173.24 C 159.68 173.03 158.71 173.68 158.50 174.68 C 158.29 175.68 158.93 176.66 159.93 176.86 Z M 160.95 177.05 L 161.94 177.25 C 162.93 177.45 163.89 176.80 164.09 175.81 C 164.28 174.82 163.64 173.86 162.65 173.67 L 161.66 173.47 C 160.67 173.27 159.71 173.92 159.52 174.91 C 159.32 175.90 159.96 176.86 160.95 177.05 Z M 161.96 177.23 L 162.96 177.42 C 163.94 177.60 164.88 176.96 165.07 175.98 C 165.25 175.01 164.61 174.06 163.63 173.88 L 162.63 173.69 C 161.66 173.50 160.71 174.14 160.53 175.12 C 160.34 176.10 160.98 177.04 161.96 177.23 Z M 162.98 177.40 L 163.96 177.58 C 164.93 177.75 165.85 177.11 166.03 176.15 C 166.21 175.18 165.57 174.25 164.60 174.08 L 163.62 173.90 C 162.65 173.72 161.72 174.36 161.55 175.33 C 161.37 176.29 162.01 177.22 162.98 177.40 Z M 163.98 177.56 L 164.97 177.73 C 165.92 177.90 166.83 177.26 167.00 176.31 C 167.17 175.35 166.53 174.44 165.58 174.27 L 164.59 174.10 C 163.63 173.93 162.72 174.57 162.55 175.52 C 162.38 176.48 163.02 177.39 163.98 177.56 Z M 164.98 177.71 L 166.00 177.88 C 166.94 178.04 167.84 177.41 168.00 176.46 C 168.16 175.52 167.52 174.62 166.58 174.46 L 165.56 174.29 C 164.62 174.13 163.72 174.77 163.56 175.71 C 163.40 176.66 164.04 177.55 164.98 177.71 Z M 166.01 177.87 L 166.98 178.02 C 167.92 178.18 168.80 177.54 168.95 176.61 C 169.10 175.67 168.47 174.79 167.53 174.64 L 166.56 174.48 C 165.63 174.33 164.75 174.96 164.59 175.90 C 164.44 176.83 165.08 177.71 166.01 177.87 Z M 166.99 178.01 L 167.95 178.16 C 168.87 178.30 169.74 177.67 169.89 176.75 C 170.03 175.82 169.40 174.96 168.48 174.81 L 167.52 174.66 C 166.60 174.51 165.73 175.14 165.58 176.07 C 165.44 176.99 166.07 177.86 166.99 178.01 Z M 167.95 178.14 L 168.93 178.29 C 169.85 178.44 170.70 177.81 170.85 176.89 C 170.99 175.98 170.36 175.12 169.45 174.98 L 168.47 174.83 C 167.56 174.68 166.70 175.31 166.55 176.22 C 166.41 177.14 167.04 178.00 167.95 178.14 Z M 168.94 178.28 L 169.93 178.43 C 170.84 178.57 171.69 177.95 171.82 177.04 C 171.96 176.13 171.34 175.28 170.43 175.14 L 169.44 174.99 C 168.53 174.85 167.68 175.48 167.54 176.39 C 167.40 177.30 168.03 178.14 168.94 178.28 Z M 169.94 178.42 L 170.93 178.57 C 171.84 178.70 172.68 178.07 172.81 177.17 C 172.94 176.26 172.31 175.42 171.41 175.29 L 170.42 175.15 C 169.51 175.02 168.67 175.64 168.54 176.55 C 168.41 177.45 169.04 178.29 169.94 178.42 Z M 170.95 178.56 L 171.90 178.69 C 172.81 178.81 173.63 178.18 173.76 177.28 C 173.88 176.38 173.25 175.55 172.35 175.43 L 171.39 175.30 C 170.49 175.18 169.66 175.81 169.54 176.71 C 169.42 177.61 170.05 178.44 170.95 178.56 Z M 171.92 178.69 L 172.82 178.80 C 173.72 178.92 174.54 178.29 174.66 177.39 C 174.78 176.49 174.14 175.67 173.24 175.55 L 172.34 175.43 C 171.44 175.32 170.62 175.95 170.50 176.85 C 170.38 177.75 171.02 178.57 171.92 178.69 Z M 172.82 178.80 L 173.79 178.93 C 174.68 179.04 175.51 178.41 175.62 177.51 C 175.74 176.61 175.10 175.79 174.20 175.67 L 173.24 175.55 C 172.34 175.44 171.52 176.07 171.41 176.97 C 171.29 177.87 171.93 178.69 172.82 178.80 Z M 173.78 178.93 L 174.84 179.07 C 175.73 179.19 176.56 178.56 176.68 177.66 C 176.80 176.76 176.17 175.94 175.27 175.82 L 174.21 175.68 C 173.32 175.56 172.49 176.19 172.37 177.08 C 172.25 177.98 172.88 178.81 173.78 178.93 Z M 174.82 179.06 L 175.84 179.21 C 176.73 179.34 177.56 178.71 177.69 177.82 C 177.82 176.92 177.19 176.09 176.30 175.97 L 175.28 175.82 C 174.39 175.69 173.56 176.32 173.43 177.21 C 173.30 178.11 173.93 178.94 174.82 179.06 Z M 175.83 179.21 L 176.74 179.34 C 177.63 179.48 178.47 178.86 178.60 177.96 C 178.73 177.07 178.12 176.24 177.22 176.10 L 176.31 175.97 C 175.41 175.83 174.58 176.45 174.45 177.35 C 174.31 178.24 174.93 179.07 175.83 179.21 Z M 176.73 179.34 L 177.70 179.49 C 178.60 179.63 179.43 179.01 179.57 178.12 C 179.71 177.23 179.09 176.39 178.20 176.25 L 177.23 176.10 C 176.34 175.97 175.50 176.58 175.36 177.47 C 175.23 178.37 175.84 179.20 176.73 179.34 Z M 177.70 179.49 L 178.71 179.65 C 179.61 179.79 180.45 179.18 180.58 178.28 C 180.72 177.39 180.11 176.55 179.22 176.41 L 178.21 176.25 C 177.31 176.11 176.47 176.73 176.33 177.62 C 176.20 178.51 176.81 179.35 177.70 179.49 Z M 178.71 179.65 L 179.76 179.81 C 180.65 179.95 181.49 179.34 181.63 178.45 C 181.77 177.56 181.16 176.72 180.27 176.58 L 179.22 176.41 C 178.33 176.27 177.49 176.88 177.35 177.78 C 177.21 178.67 177.82 179.51 178.71 179.65 Z M 179.75 179.81 L 180.81 179.98 C 181.70 180.12 182.54 179.51 182.69 178.62 C 182.83 177.73 182.22 176.89 181.33 176.75 L 180.27 176.58 C 179.38 176.44 178.54 177.05 178.39 177.94 C 178.25 178.83 178.86 179.67 179.75 179.81 Z"
      fill="black"
      fill-rule="nonzero" /></svg>