<svg xmlns="http://www.w3.org/2000/svg" width="300" height="300" viewBox="0 0 300 300">
<path d="M 114.03 121.96 L 115.03 122.01 C 115.97 122.05 116.76 121.33 116.81 120.39 C 116.85 119.45 116.13 118.66 115.19 118.61 L 114.19 118.56 C 113.25 118.52 112.46 119.24 112.41 120.18 C 112.37 121.12 113.09 121.91 114.03 121.96 Z M 114.98 121.99 L 115.98 122.07 C 116.91 122.14 117.72 121.44 117.79 120.51 C 117.86 119.58 117.17 118.77 116.24 118.70 L 115.24 118.62 C 114.31 118.55 113.50 119.25 113.43 120.18 C 113.36 121.11 114.05 121.92 114.98 121.99 Z M 115.88 122.05 L 116.87 122.18 C 117.79 122.30 118.63 121.66 118.76 120.74 C 118.88 119.82 118.24 118.98 117.32 118.86 L 116.33 118.72 C 115.41 118.60 114.57 119.24 114.44 120.16 C 114.32 121.08 114.96 121.92 115.88 122.05 Z M 116.75 122.15 L 117.65 122.34 C 118.55 122.53 119.43 121.95 119.62 121.04 C 119.81 120.14 119.23 119.25 118.33 119.07 L 117.43 118.88 C 116.53 118.69 115.65 119.27 115.46 120.18 C 115.27 121.08 115.85 121.97 116.75 122.15 Z M 117.59 122.33 L 118.53 122.55 C 119.42 122.77 120.33 122.22 120.54 121.32 C 120.76 120.42 120.21 119.52 119.31 119.30 L 118.38 119.08 C 117.48 118.86 116.58 119.41 116.36 120.31 C 116.14 121.21 116.70 122.11 117.59 122.33 Z M 118.55 122.56 L 119.58 122.79 C 120.48 122.99 121.38 122.43 121.58 121.53 C 121.79 120.63 121.22 119.73 120.32 119.53 L 119.29 119.30 C 118.39 119.09 117.49 119.66 117.29 120.56 C 117.08 121.46 117.65 122.35 118.55 122.56 Z M 119.65 122.80 L 120.63 122.98 C 121.54 123.14 122.41 122.55 122.57 121.64 C 122.74 120.74 122.14 119.87 121.23 119.70 L 120.25 119.52 C 119.35 119.36 118.48 119.96 118.31 120.86 C 118.15 121.77 118.75 122.63 119.65 122.80 Z M 120.69 122.97 L 121.63 123.11 C 122.53 123.24 123.36 122.62 123.50 121.72 C 123.63 120.82 123.01 119.98 122.11 119.85 L 121.17 119.71 C 120.27 119.58 119.44 120.20 119.30 121.10 C 119.17 122.00 119.79 122.84 120.69 122.97 Z M 121.66 123.09 L 122.66 123.22 C 123.55 123.33 124.36 122.70 124.48 121.81 C 124.59 120.92 123.96 120.10 123.07 119.99 L 122.07 119.86 C 121.18 119.75 120.36 120.38 120.25 121.28 C 120.14 122.17 120.77 122.98 121.66 123.09 Z M 122.68 123.20 L 123.72 123.32 C 124.60 123.42 125.40 122.78 125.50 121.90 C 125.60 121.02 124.96 120.23 124.08 120.13 L 123.04 120.01 C 122.16 119.91 121.37 120.54 121.27 121.42 C 121.17 122.31 121.80 123.10 122.68 123.20 Z M 123.73 123.30 L 124.79 123.41 C 125.66 123.50 126.45 122.87 126.54 122.00 C 126.63 121.13 126.00 120.35 125.13 120.26 L 124.07 120.15 C 123.20 120.05 122.42 120.68 122.32 121.55 C 122.23 122.42 122.86 123.21 123.73 123.30 Z M 124.80 123.40 L 124.95 123.42 C 125.82 123.51 126.59 122.88 126.68 122.02 C 126.77 121.15 126.14 120.38 125.28 120.29 L 125.13 120.27 C 124.26 120.18 123.49 120.81 123.40 121.67 C 123.31 122.53 123.93 123.31 124.80 123.40 Z"
      fill="black"
      fill-rule="nonzero" /><path d="M 111.32 137.63 L 112.28 137.39 C 113.16 137.17 113.69 136.28 113.47 135.41 C 113.25 134.53 112.37 134.00 111.49 134.22 L 110.53 134.46 C 109.65 134.68 109.12 135.57 109.34 136.44 C 109.56 137.32 110.45 137.85 111.32 137.63 Z M 112.29 137.39 L 113.26 137.14 C 114.13 136.92 114.66 136.03 114.44 135.16 C 114.22 134.29 113.33 133.76 112.45 133.98 L 111.49 134.22 C 110.61 134.44 110.08 135.33 110.31 136.21 C 110.53 137.08 111.42 137.61 112.29 137.39 Z M 113.26 137.14 L 114.24 136.89 C 115.11 136.66 115.63 135.77 115.41 134.90 C 115.18 134.03 114.29 133.50 113.42 133.73 L 112.45 133.98 C 111.57 134.21 111.05 135.10 111.27 135.97 C 111.50 136.84 112.39 137.37 113.26 137.14 Z M 114.25 136.88 L 115.16 136.64 C 116.03 136.41 116.55 135.51 116.31 134.64 C 116.08 133.77 115.19 133.26 114.32 133.49 L 113.41 133.73 C 112.54 133.96 112.02 134.86 112.25 135.73 C 112.48 136.60 113.38 137.12 114.25 136.88 Z M 115.18 136.64 L 116.08 136.38 C 116.95 136.14 117.45 135.24 117.21 134.37 C 116.97 133.50 116.07 133.00 115.20 133.24 L 114.30 133.50 C 113.43 133.74 112.92 134.64 113.17 135.51 C 113.41 136.37 114.31 136.88 115.18 136.64 Z M 116.11 136.37 L 117.07 136.08 C 117.93 135.83 118.42 134.92 118.17 134.06 C 117.91 133.19 117.00 132.70 116.14 132.96 L 115.17 133.25 C 114.31 133.51 113.82 134.42 114.08 135.28 C 114.34 136.14 115.25 136.63 116.11 136.37 Z M 117.10 136.07 L 118.16 135.73 C 119.02 135.46 119.49 134.54 119.21 133.69 C 118.94 132.83 118.02 132.36 117.17 132.63 L 116.11 132.97 C 115.25 133.25 114.78 134.17 115.06 135.02 C 115.33 135.88 116.25 136.35 117.10 136.07 Z M 118.19 135.73 L 119.12 135.41 C 119.97 135.12 120.43 134.19 120.14 133.34 C 119.85 132.49 118.92 132.04 118.07 132.32 L 117.14 132.64 C 116.29 132.93 115.83 133.86 116.12 134.71 C 116.41 135.56 117.33 136.01 118.19 135.73 Z M 119.13 135.41 L 120.10 135.08 C 120.95 134.78 121.40 133.85 121.11 133.00 C 120.82 132.15 119.89 131.70 119.03 131.99 L 118.06 132.32 C 117.21 132.62 116.76 133.55 117.05 134.40 C 117.35 135.25 118.28 135.70 119.13 135.41 Z M 120.09 135.08 L 121.07 134.75 C 121.92 134.46 122.38 133.53 122.10 132.68 C 121.81 131.82 120.88 131.36 120.02 131.65 L 119.04 131.98 C 118.19 132.27 117.73 133.20 118.02 134.06 C 118.30 134.91 119.23 135.37 120.09 135.08 Z M 121.04 134.76 L 122.00 134.46 C 122.86 134.19 123.34 133.26 123.06 132.40 C 122.79 131.54 121.87 131.06 121.00 131.34 L 120.05 131.64 C 119.18 131.91 118.71 132.84 118.98 133.70 C 119.26 134.56 120.18 135.04 121.04 134.76 Z M 121.94 134.48 L 122.96 134.20 C 123.83 133.95 124.34 133.04 124.10 132.17 C 123.85 131.29 122.94 130.78 122.07 131.03 L 121.06 131.31 C 120.18 131.56 119.67 132.47 119.92 133.34 C 120.16 134.22 121.07 134.73 121.94 134.48 Z M 122.82 134.24 L 123.98 134.02 C 124.88 133.85 125.47 132.99 125.30 132.09 C 125.13 131.19 124.26 130.60 123.36 130.77 L 122.20 130.98 C 121.31 131.15 120.71 132.02 120.88 132.92 C 121.06 133.82 121.92 134.41 122.82 134.24 Z M 123.62 134.07 L 124.54 134.09 C 125.47 134.12 126.24 133.39 126.26 132.47 C 126.29 131.54 125.56 130.77 124.64 130.75 L 123.71 130.72 C 122.79 130.69 122.02 131.42 121.99 132.35 C 121.97 133.27 122.70 134.04 123.62 134.07 Z M 123.79 133.91 L 124.45 134.26 C 125.28 134.70 126.30 134.39 126.74 133.57 C 127.18 132.74 126.87 131.72 126.05 131.28 L 125.39 130.93 C 124.56 130.49 123.54 130.80 123.10 131.62 C 122.66 132.45 122.97 133.47 123.79 133.91 Z M 123.73 133.53 L 124.13 134.32 C 124.55 135.16 125.57 135.50 126.41 135.07 C 127.25 134.65 127.58 133.63 127.16 132.79 L 126.77 132.01 C 126.35 131.17 125.33 130.83 124.49 131.25 C 123.65 131.67 123.31 132.70 123.73 133.53 Z M 123.95 133.75 L 124.07 134.79 C 124.18 135.72 125.02 136.39 125.96 136.29 C 126.89 136.18 127.56 135.34 127.45 134.40 L 127.33 133.36 C 127.23 132.43 126.38 131.76 125.45 131.87 C 124.52 131.97 123.85 132.82 123.95 133.75 Z M 124.06 134.50 L 124.00 135.52 C 123.95 136.46 124.66 137.27 125.60 137.32 C 126.54 137.38 127.35 136.66 127.40 135.72 L 127.46 134.70 C 127.52 133.76 126.80 132.95 125.86 132.90 C 124.93 132.84 124.12 133.56 124.06 134.50 Z M 124.03 135.32 L 123.87 136.19 C 123.71 137.11 124.33 138.00 125.25 138.16 C 126.18 138.32 127.07 137.71 127.23 136.78 L 127.38 135.92 C 127.54 134.99 126.93 134.11 126.00 133.94 C 125.07 133.78 124.19 134.40 124.03 135.32 Z M 123.91 136.01 L 123.65 136.94 C 123.39 137.84 123.91 138.79 124.81 139.05 C 125.72 139.31 126.66 138.78 126.92 137.88 L 127.19 136.95 C 127.45 136.05 126.93 135.11 126.02 134.85 C 125.12 134.58 124.17 135.11 123.91 136.01 Z M 123.69 136.80 L 123.29 137.86 C 122.95 138.74 123.39 139.72 124.27 140.06 C 125.15 140.40 126.13 139.96 126.47 139.08 L 126.88 138.02 C 127.21 137.14 126.77 136.15 125.89 135.82 C 125.02 135.48 124.03 135.92 123.69 136.80 Z M 123.32 137.77 L 122.93 138.66 C 122.54 139.52 122.93 140.53 123.79 140.91 C 124.65 141.30 125.66 140.91 126.04 140.05 L 126.44 139.16 C 126.82 138.30 126.43 137.29 125.57 136.91 C 124.71 136.53 123.70 136.91 123.32 137.77 Z M 122.94 138.62 L 122.54 139.46 C 122.14 140.31 122.50 141.33 123.35 141.73 C 124.20 142.14 125.21 141.78 125.62 140.93 L 126.02 140.09 C 126.43 139.24 126.07 138.22 125.22 137.82 C 124.37 137.41 123.35 137.77 122.94 138.62 Z M 122.56 139.43 L 122.11 140.32 C 121.69 141.17 122.03 142.19 122.87 142.61 C 123.71 143.03 124.74 142.69 125.16 141.85 L 125.61 140.96 C 126.03 140.12 125.69 139.09 124.85 138.67 C 124.00 138.25 122.98 138.59 122.56 139.43 Z M 122.12 140.30 L 121.64 141.23 C 121.21 142.06 121.53 143.09 122.37 143.53 C 123.21 143.96 124.24 143.63 124.67 142.80 L 125.15 141.87 C 125.58 141.04 125.26 140.01 124.42 139.57 C 123.59 139.14 122.56 139.47 122.12 140.30 Z M 121.65 141.21 L 121.15 142.15 C 120.71 142.98 121.02 144.01 121.85 144.46 C 122.68 144.90 123.71 144.59 124.16 143.75 L 124.66 142.82 C 125.10 141.99 124.79 140.95 123.96 140.51 C 123.13 140.07 122.10 140.38 121.65 141.21 Z M 121.16 142.13 L 120.65 143.07 C 120.20 143.89 120.50 144.93 121.32 145.38 C 122.15 145.83 123.19 145.53 123.64 144.70 L 124.15 143.77 C 124.60 142.94 124.30 141.91 123.47 141.46 C 122.65 141.00 121.61 141.31 121.16 142.13 Z M 120.66 143.05 L 120.11 144.02 C 119.65 144.84 119.94 145.88 120.77 146.34 C 121.59 146.80 122.63 146.51 123.09 145.69 L 123.63 144.72 C 124.09 143.90 123.80 142.86 122.98 142.40 C 122.15 141.94 121.12 142.23 120.66 143.05 Z M 120.12 144.01 L 119.58 144.95 C 119.11 145.77 119.40 146.81 120.22 147.28 C 121.03 147.74 122.07 147.46 122.54 146.64 L 123.08 145.70 C 123.54 144.88 123.26 143.84 122.44 143.38 C 121.63 142.91 120.58 143.19 120.12 144.01 Z M 119.59 144.94 L 119.07 145.84 C 118.60 146.65 118.88 147.69 119.69 148.16 C 120.51 148.64 121.55 148.36 122.02 147.54 L 122.54 146.65 C 123.01 145.84 122.73 144.79 121.91 144.32 C 121.10 143.85 120.06 144.13 119.59 144.94 Z M 119.07 145.83 L 118.59 146.67 C 118.11 147.48 118.39 148.53 119.20 149.00 C 120.01 149.47 121.05 149.20 121.53 148.38 L 122.02 147.55 C 122.49 146.74 122.21 145.69 121.40 145.22 C 120.59 144.75 119.55 145.02 119.07 145.83 Z M 118.59 146.67 L 118.14 147.44 C 117.66 148.26 117.94 149.30 118.75 149.77 C 119.56 150.24 120.60 149.97 121.08 149.16 L 121.53 148.38 C 122.00 147.57 121.73 146.53 120.91 146.06 C 120.10 145.58 119.06 145.86 118.59 146.67 Z M 118.13 147.45 L 117.63 148.32 C 117.16 149.13 117.44 150.17 118.25 150.64 C 119.07 151.11 120.10 150.84 120.57 150.02 L 121.08 149.15 C 121.55 148.34 121.27 147.30 120.46 146.83 C 119.64 146.36 118.60 146.64 118.13 147.45 Z M 117.63 148.33 L 117.10 149.26 C 116.64 150.07 116.92 151.11 117.74 151.57 C 118.55 152.04 119.59 151.75 120.05 150.94 L 120.58 150.01 C 121.04 149.20 120.76 148.16 119.94 147.70 C 119.13 147.23 118.09 147.52 117.63 148.33 Z M 117.10 149.26 L 116.63 150.08 C 116.17 150.90 116.46 151.93 117.27 152.39 C 118.08 152.86 119.12 152.57 119.58 151.76 L 120.05 150.93 C 120.51 150.12 120.23 149.09 119.41 148.62 C 118.60 148.16 117.56 148.45 117.10 149.26 Z M 116.64 150.08 L 116.19 150.85 C 115.73 151.66 116.01 152.70 116.81 153.16 C 117.62 153.63 118.66 153.35 119.12 152.54 L 119.57 151.76 C 120.04 150.96 119.76 149.92 118.95 149.46 C 118.14 148.99 117.11 149.27 116.64 150.08 Z M 116.21 150.84 L 115.71 151.68 C 115.23 152.48 115.50 153.51 116.30 153.99 C 117.10 154.46 118.14 154.20 118.61 153.40 L 119.11 152.56 C 119.59 151.76 119.32 150.72 118.52 150.25 C 117.72 149.77 116.68 150.04 116.21 150.84 Z M 115.72 151.67 L 115.20 152.53 C 114.73 153.33 114.99 154.36 115.79 154.84 C 116.59 155.32 117.62 155.06 118.10 154.26 L 118.61 153.40 C 119.09 152.60 118.83 151.57 118.03 151.09 C 117.23 150.61 116.19 150.87 115.72 151.67 Z M 115.20 152.54 L 114.69 153.42 C 114.22 154.22 114.48 155.25 115.29 155.72 C 116.09 156.19 117.12 155.92 117.59 155.12 L 118.10 154.24 C 118.57 153.44 118.30 152.41 117.50 151.94 C 116.70 151.47 115.67 151.74 115.20 152.54 Z M 114.67 153.45 L 114.18 154.32 C 113.73 155.13 114.01 156.15 114.82 156.60 C 115.63 157.06 116.65 156.77 117.11 155.96 L 117.60 155.09 C 118.05 154.28 117.77 153.26 116.96 152.81 C 116.15 152.35 115.13 152.64 114.67 153.45 Z M 114.17 154.34 L 113.70 155.22 C 113.26 156.04 113.56 157.05 114.37 157.49 C 115.19 157.93 116.21 157.63 116.65 156.82 L 117.12 155.94 C 117.56 155.12 117.26 154.11 116.44 153.67 C 115.63 153.23 114.61 153.53 114.17 154.34 Z M 113.69 155.24 L 113.22 156.13 C 112.79 156.94 113.11 157.96 113.92 158.39 C 114.74 158.82 115.75 158.50 116.18 157.69 L 116.65 156.80 C 117.08 155.98 116.77 154.97 115.95 154.54 C 115.13 154.11 114.12 154.42 113.69 155.24 Z M 113.22 156.13 L 112.76 157.02 C 112.33 157.84 112.65 158.85 113.47 159.27 C 114.29 159.70 115.29 159.38 115.72 158.56 L 116.18 157.68 C 116.61 156.86 116.29 155.85 115.48 155.43 C 114.66 155.00 113.65 155.32 113.22 156.13 Z M 112.76 157.02 L 112.31 157.89 C 111.89 158.71 112.20 159.71 113.02 160.14 C 113.84 160.56 114.84 160.25 115.27 159.43 L 115.72 158.56 C 116.14 157.74 115.83 156.74 115.01 156.31 C 114.19 155.89 113.19 156.21 112.76 157.02 Z M 112.31 157.90 L 111.85 158.78 C 111.43 159.60 111.75 160.60 112.57 161.02 C 113.39 161.44 114.39 161.12 114.81 160.31 L 115.27 159.42 C 115.69 158.61 115.37 157.60 114.55 157.18 C 113.73 156.76 112.73 157.08 112.31 157.90 Z M 111.85 158.79 L 111.39 159.71 C 110.97 160.52 111.30 161.52 112.12 161.94 C 112.94 162.35 113.94 162.03 114.35 161.21 L 114.81 160.30 C 115.23 159.48 114.90 158.48 114.08 158.06 C 113.27 157.65 112.27 157.98 111.85 158.79 Z M 111.39 159.72 L 110.94 160.62 C 110.53 161.44 110.87 162.43 111.68 162.84 C 112.50 163.25 113.50 162.91 113.91 162.10 L 114.35 161.19 C 114.76 160.38 114.43 159.38 113.61 158.97 C 112.79 158.57 111.79 158.90 111.39 159.72 Z M 110.94 160.63 L 110.49 161.54 C 110.09 162.36 110.44 163.35 111.26 163.75 C 112.08 164.15 113.07 163.81 113.47 162.99 L 113.91 162.08 C 114.31 161.26 113.97 160.27 113.15 159.87 C 112.33 159.47 111.34 159.81 110.94 160.63 Z M 110.49 161.56 L 110.06 162.47 C 109.67 163.29 110.01 164.27 110.84 164.67 C 111.66 165.06 112.64 164.71 113.03 163.89 L 113.47 162.98 C 113.86 162.15 113.51 161.17 112.69 160.78 C 111.87 160.39 110.88 160.73 110.49 161.56 Z M 110.05 162.48 L 109.64 163.38 C 109.25 164.20 109.61 165.18 110.43 165.56 C 111.26 165.95 112.24 165.59 112.62 164.77 L 113.04 163.87 C 113.42 163.05 113.06 162.07 112.24 161.69 C 111.42 161.30 110.44 161.66 110.05 162.48 Z M 109.63 163.39 L 109.20 164.34 C 108.83 165.17 109.19 166.14 110.02 166.52 C 110.85 166.89 111.82 166.52 112.19 165.70 L 112.62 164.75 C 113.00 163.92 112.63 162.95 111.81 162.58 C 110.98 162.20 110.01 162.57 109.63 163.39 Z M 109.20 164.35 L 108.79 165.27 C 108.43 166.10 108.80 167.06 109.62 167.43 C 110.45 167.80 111.42 167.43 111.79 166.60 L 112.20 165.69 C 112.56 164.86 112.19 163.89 111.37 163.52 C 110.54 163.16 109.57 163.53 109.20 164.35 Z M 108.80 165.27 L 108.40 166.16 C 108.04 166.99 108.41 167.96 109.24 168.32 C 110.06 168.69 111.03 168.31 111.39 167.49 L 111.79 166.60 C 112.15 165.77 111.78 164.80 110.95 164.44 C 110.13 164.07 109.16 164.45 108.80 165.27 Z M 108.41 166.16 L 108.05 166.97 C 107.68 167.79 108.05 168.75 108.88 169.12 C 109.70 169.49 110.67 169.11 111.03 168.29 L 111.39 167.49 C 111.76 166.66 111.38 165.70 110.56 165.33 C 109.74 164.97 108.77 165.34 108.41 166.16 Z M 108.05 166.97 L 107.71 167.75 C 107.34 168.57 107.71 169.54 108.54 169.90 C 109.36 170.26 110.32 169.89 110.68 169.07 L 111.03 168.29 C 111.39 167.47 111.02 166.50 110.20 166.14 C 109.38 165.78 108.42 166.15 108.05 166.97 Z M 107.70 167.77 L 107.32 168.65 C 106.96 169.48 107.34 170.43 108.17 170.79 C 108.99 171.15 109.95 170.77 110.30 169.94 L 110.69 169.06 C 111.04 168.23 110.66 167.27 109.84 166.92 C 109.01 166.56 108.06 166.94 107.70 167.77 Z M 107.31 168.67 L 106.87 169.73 C 106.53 170.56 106.92 171.51 107.75 171.85 C 108.57 172.20 109.52 171.81 109.87 170.98 L 110.31 169.92 C 110.66 169.09 110.26 168.14 109.44 167.80 C 108.61 167.45 107.66 167.85 107.31 168.67 Z M 106.87 169.75 L 106.47 170.75 C 106.13 171.58 106.54 172.52 107.37 172.85 C 108.19 173.19 109.14 172.79 109.47 171.96 L 109.87 170.96 C 110.21 170.13 109.81 169.19 108.98 168.85 C 108.15 168.52 107.20 168.92 106.87 169.75 Z M 106.47 170.76 L 106.12 171.66 C 105.79 172.49 106.20 173.42 107.03 173.75 C 107.86 174.08 108.80 173.67 109.12 172.84 L 109.47 171.94 C 109.80 171.11 109.39 170.17 108.56 169.85 C 107.73 169.52 106.79 169.93 106.47 170.76 Z M 106.12 171.67 L 105.75 172.63 C 105.43 173.46 105.84 174.39 106.67 174.71 C 107.50 175.03 108.44 174.61 108.75 173.78 L 109.12 172.82 C 109.44 171.99 109.02 171.06 108.19 170.74 C 107.36 170.43 106.43 170.84 106.12 171.67 Z M 105.75 172.64 L 105.38 173.63 C 105.07 174.46 105.49 175.38 106.32 175.69 C 107.15 176.00 108.08 175.58 108.39 174.75 L 108.75 173.77 C 109.06 172.94 108.64 172.01 107.81 171.70 C 106.98 171.39 106.06 171.81 105.75 172.64 Z M 105.38 173.65 L 105.02 174.63 C 104.72 175.46 105.15 176.38 105.98 176.68 C 106.81 176.98 107.73 176.55 108.03 175.72 L 108.39 174.74 C 108.69 173.90 108.26 172.99 107.43 172.69 C 106.60 172.39 105.68 172.82 105.38 173.65 Z M 105.02 174.65 L 104.69 175.61 C 104.40 176.44 104.84 177.35 105.67 177.64 C 106.50 177.93 107.41 177.49 107.70 176.66 L 108.03 175.70 C 108.32 174.87 107.88 173.96 107.05 173.67 C 106.22 173.38 105.31 173.82 105.02 174.65 Z M 104.68 175.64 L 104.34 176.67 C 104.07 177.51 104.53 178.40 105.36 178.68 C 106.20 178.95 107.09 178.49 107.37 177.66 L 107.70 176.63 C 107.98 175.79 107.52 174.89 106.69 174.62 C 105.85 174.35 104.95 174.80 104.68 175.64 Z M 104.33 176.73 L 103.93 178.12 C 103.69 178.96 104.18 179.84 105.02 180.08 C 105.86 180.32 106.74 179.83 106.98 178.99 L 107.38 177.60 C 107.62 176.76 107.13 175.89 106.29 175.64 C 105.45 175.40 104.58 175.89 104.33 176.73 Z M 103.92 178.22 L 103.69 179.23 C 103.51 180.08 104.05 180.92 104.90 181.11 C 105.75 181.30 106.59 180.76 106.77 179.91 L 107.00 178.89 C 107.18 178.04 106.64 177.20 105.79 177.02 C 104.94 176.83 104.10 177.37 103.92 178.22 Z M 103.67 179.48 L 103.63 180.04 C 103.58 180.90 104.24 181.65 105.10 181.70 C 105.97 181.75 106.71 181.10 106.76 180.23 L 106.80 179.67 C 106.85 178.80 106.19 178.06 105.33 178.01 C 104.47 177.95 103.72 178.61 103.67 179.48 Z M 105.46 181.68 L 105.71 181.64 C 106.56 181.49 107.13 180.69 106.99 179.83 C 106.85 178.98 106.04 178.41 105.19 178.55 L 104.94 178.59 C 104.09 178.74 103.51 179.54 103.66 180.40 C 103.80 181.25 104.61 181.82 105.46 181.68 Z M 106.80 180.87 L 107.33 179.97 C 107.76 179.22 107.50 178.26 106.75 177.83 C 106.01 177.40 105.05 177.66 104.62 178.40 L 104.10 179.31 C 103.67 180.06 103.92 181.02 104.67 181.45 C 105.42 181.88 106.37 181.62 106.80 180.87 Z M 107.42 179.77 L 107.89 178.61 C 108.21 177.82 107.83 176.91 107.03 176.58 C 106.23 176.26 105.32 176.64 105.00 177.44 L 104.53 178.60 C 104.20 179.40 104.59 180.31 105.39 180.63 C 106.19 180.96 107.10 180.57 107.42 179.77 Z M 107.93 178.51 L 108.21 177.65 C 108.47 176.82 108.02 175.95 107.20 175.68 C 106.38 175.42 105.50 175.87 105.23 176.69 L 104.96 177.55 C 104.69 178.37 105.14 179.25 105.96 179.51 C 106.78 179.78 107.66 179.33 107.93 178.51 Z M 108.22 177.59 L 108.49 176.65 C 108.72 175.82 108.24 174.96 107.41 174.72 C 106.58 174.49 105.72 174.97 105.48 175.80 L 105.22 176.74 C 104.98 177.57 105.47 178.43 106.30 178.67 C 107.13 178.90 107.99 178.42 108.22 177.59 Z M 108.50 176.62 L 108.76 175.61 C 108.98 174.77 108.48 173.92 107.64 173.70 C 106.81 173.48 105.96 173.98 105.74 174.82 L 105.48 175.83 C 105.26 176.67 105.76 177.52 106.59 177.74 C 107.43 177.95 108.28 177.45 108.50 176.62 Z M 108.76 175.59 L 109.04 174.52 C 109.25 173.68 108.74 172.83 107.91 172.62 C 107.07 172.41 106.22 172.91 106.01 173.75 L 105.74 174.83 C 105.53 175.66 106.03 176.51 106.87 176.73 C 107.70 176.94 108.55 176.43 108.76 175.59 Z M 109.04 174.52 L 109.27 173.60 C 109.48 172.76 108.98 171.91 108.15 171.70 C 107.31 171.49 106.46 171.99 106.25 172.83 L 106.01 173.75 C 105.80 174.58 106.30 175.43 107.14 175.64 C 107.97 175.86 108.82 175.35 109.04 174.52 Z M 109.27 173.61 L 109.51 172.67 C 109.73 171.84 109.24 170.99 108.40 170.77 C 107.57 170.55 106.72 171.04 106.50 171.88 L 106.25 172.81 C 106.03 173.65 106.53 174.50 107.36 174.72 C 108.20 174.94 109.05 174.44 109.27 173.61 Z M 109.51 172.69 L 109.78 171.73 C 110.00 170.90 109.52 170.04 108.69 169.81 C 107.85 169.58 107.00 170.07 106.77 170.90 L 106.50 171.86 C 106.27 172.69 106.76 173.55 107.59 173.78 C 108.42 174.01 109.28 173.52 109.51 172.69 Z M 109.77 171.75 L 110.06 170.77 C 110.30 169.94 109.82 169.08 109.00 168.84 C 108.17 168.59 107.30 169.07 107.06 169.89 L 106.77 170.87 C 106.53 171.70 107.00 172.57 107.83 172.81 C 108.66 173.05 109.53 172.58 109.77 171.75 Z M 110.05 170.80 L 110.36 169.81 C 110.62 168.99 110.16 168.11 109.34 167.85 C 108.51 167.59 107.64 168.05 107.38 168.87 L 107.07 169.87 C 106.81 170.69 107.27 171.56 108.09 171.82 C 108.91 172.08 109.79 171.62 110.05 170.80 Z M 110.35 169.85 L 110.68 168.85 C 110.96 168.04 110.53 167.15 109.71 166.87 C 108.89 166.59 108.01 167.03 107.73 167.85 L 107.39 168.84 C 107.11 169.66 107.55 170.54 108.37 170.82 C 109.18 171.10 110.07 170.66 110.35 169.85 Z M 110.67 168.89 L 111.03 167.91 C 111.33 167.10 110.92 166.20 110.11 165.90 C 109.30 165.60 108.40 166.02 108.10 166.83 L 107.74 167.81 C 107.44 168.62 107.86 169.52 108.67 169.81 C 109.48 170.11 110.37 169.70 110.67 168.89 Z M 111.02 167.94 L 111.40 166.97 C 111.72 166.17 111.32 165.26 110.52 164.95 C 109.72 164.63 108.81 165.03 108.50 165.83 L 108.12 166.80 C 107.80 167.60 108.20 168.50 109.00 168.82 C 109.80 169.13 110.71 168.74 111.02 167.94 Z M 111.39 167.00 L 111.78 166.06 C 112.11 165.26 111.73 164.35 110.94 164.02 C 110.14 163.69 109.23 164.07 108.90 164.86 L 108.51 165.80 C 108.18 166.60 108.55 167.51 109.35 167.84 C 110.15 168.17 111.06 167.80 111.39 167.00 Z M 111.77 166.08 L 112.16 165.18 C 112.51 164.39 112.15 163.47 111.36 163.13 C 110.57 162.79 109.65 163.15 109.30 163.94 L 108.91 164.84 C 108.56 165.63 108.93 166.55 109.72 166.89 C 110.51 167.24 111.43 166.87 111.77 166.08 Z M 112.15 165.21 L 112.54 164.36 C 112.90 163.57 112.55 162.65 111.77 162.29 C 110.98 161.93 110.06 162.28 109.70 163.07 L 109.31 163.91 C 108.95 164.70 109.30 165.62 110.09 165.98 C 110.87 166.34 111.80 165.99 112.15 165.21 Z M 112.53 164.38 L 112.98 163.44 C 113.35 162.66 113.02 161.73 112.24 161.36 C 111.46 160.99 110.53 161.32 110.16 162.10 L 109.71 163.04 C 109.34 163.82 109.67 164.75 110.45 165.12 C 111.23 165.49 112.16 165.16 112.53 164.38 Z M 112.96 163.47 L 113.43 162.55 C 113.82 161.78 113.51 160.84 112.74 160.45 C 111.97 160.06 111.03 160.37 110.64 161.14 L 110.17 162.06 C 109.79 162.83 110.09 163.77 110.86 164.16 C 111.63 164.55 112.57 164.24 112.96 163.47 Z M 113.41 162.59 L 113.87 161.74 C 114.29 160.98 114.01 160.03 113.25 159.62 C 112.49 159.20 111.55 159.48 111.13 160.24 L 110.67 161.10 C 110.25 161.85 110.53 162.80 111.29 163.21 C 112.04 163.63 112.99 163.35 113.41 162.59 Z M 113.84 161.78 L 114.33 160.97 C 114.77 160.23 114.52 159.27 113.78 158.83 C 113.04 158.39 112.08 158.64 111.64 159.38 L 111.16 160.19 C 110.72 160.93 110.96 161.89 111.71 162.33 C 112.45 162.77 113.41 162.53 113.84 161.78 Z M 114.30 161.02 L 114.82 160.20 C 115.29 159.48 115.09 158.51 114.36 158.05 C 113.64 157.58 112.67 157.79 112.20 158.51 L 111.67 159.33 C 111.21 160.05 111.41 161.02 112.14 161.48 C 112.86 161.95 113.83 161.75 114.30 161.02 Z M 114.79 160.26 L 115.38 159.42 C 115.88 158.71 115.72 157.74 115.01 157.24 C 114.31 156.74 113.33 156.91 112.84 157.61 L 112.24 158.46 C 111.74 159.16 111.91 160.13 112.61 160.63 C 113.32 161.13 114.29 160.96 114.79 160.26 Z M 115.34 159.48 L 115.97 158.68 C 116.50 158.00 116.39 157.02 115.71 156.49 C 115.03 155.95 114.05 156.07 113.52 156.75 L 112.88 157.55 C 112.35 158.22 112.47 159.21 113.14 159.74 C 113.82 160.27 114.80 160.16 115.34 159.48 Z M 115.90 158.76 L 116.56 158.03 C 117.14 157.39 117.08 156.40 116.44 155.82 C 115.80 155.25 114.82 155.30 114.24 155.94 L 113.58 156.67 C 113.01 157.31 113.06 158.30 113.70 158.87 C 114.34 159.45 115.33 159.40 115.90 158.76 Z M 116.46 158.13 L 117.23 157.42 C 117.87 156.84 117.91 155.85 117.32 155.21 C 116.74 154.58 115.75 154.53 115.11 155.12 L 114.34 155.83 C 113.70 156.42 113.66 157.41 114.25 158.04 C 114.83 158.68 115.82 158.72 116.46 158.13 Z M 117.03 157.60 L 117.99 156.98 C 118.72 156.51 118.93 155.53 118.46 154.79 C 117.98 154.06 117.00 153.85 116.27 154.32 L 115.31 154.94 C 114.58 155.42 114.37 156.40 114.84 157.13 C 115.32 157.86 116.30 158.07 117.03 157.60 Z M 117.45 157.23 L 118.28 157.06 C 119.15 156.88 119.71 156.04 119.54 155.17 C 119.36 154.30 118.51 153.73 117.64 153.91 L 116.81 154.08 C 115.94 154.25 115.38 155.10 115.55 155.97 C 115.73 156.84 116.58 157.40 117.45 157.23 Z M 117.07 156.85 L 117.66 157.23 C 118.41 157.72 119.42 157.51 119.91 156.75 C 120.40 156.00 120.19 154.99 119.43 154.50 L 118.85 154.12 C 118.09 153.63 117.08 153.84 116.59 154.60 C 116.10 155.35 116.32 156.36 117.07 156.85 Z M 117.03 156.52 L 117.39 157.34 C 117.76 158.17 118.73 158.55 119.56 158.19 C 120.39 157.83 120.77 156.86 120.41 156.02 L 120.05 155.20 C 119.69 154.37 118.72 153.99 117.88 154.35 C 117.05 154.72 116.67 155.69 117.03 156.52 Z M 117.27 157.00 L 117.49 158.11 C 117.67 159.01 118.54 159.59 119.44 159.42 C 120.34 159.24 120.92 158.37 120.75 157.47 L 120.53 156.36 C 120.35 155.46 119.48 154.88 118.58 155.05 C 117.68 155.23 117.10 156.10 117.27 157.00 Z M 117.46 157.97 L 117.57 159.02 C 117.67 159.93 118.50 160.59 119.42 160.49 C 120.33 160.39 121.00 159.57 120.89 158.65 L 120.78 157.60 C 120.68 156.69 119.85 156.03 118.93 156.13 C 118.02 156.23 117.36 157.05 117.46 157.97 Z M 117.56 158.95 L 117.63 159.85 C 117.70 160.78 118.50 161.47 119.42 161.40 C 120.34 161.33 121.04 160.53 120.97 159.61 L 120.90 158.71 C 120.84 157.79 120.03 157.10 119.11 157.16 C 118.19 157.23 117.50 158.03 117.56 158.95 Z M 117.63 159.81 L 117.67 160.77 C 117.72 161.70 118.50 162.41 119.42 162.37 C 120.35 162.32 121.06 161.54 121.02 160.61 L 120.97 159.65 C 120.93 158.73 120.14 158.01 119.22 158.06 C 118.30 158.10 117.58 158.89 117.63 159.81 Z M 117.67 160.74 L 117.70 161.79 C 117.73 162.72 118.50 163.45 119.42 163.42 C 120.35 163.39 121.07 162.62 121.05 161.70 L 121.02 160.65 C 120.99 159.72 120.22 158.99 119.30 159.02 C 118.37 159.04 117.64 159.81 117.67 160.74 Z M 117.70 161.77 L 117.72 162.91 C 117.73 163.83 118.49 164.57 119.42 164.56 C 120.34 164.54 121.08 163.78 121.07 162.85 L 121.05 161.72 C 121.04 160.79 120.27 160.06 119.35 160.07 C 118.42 160.08 117.68 160.85 117.70 161.77 Z M 117.72 162.90 L 117.73 163.84 C 117.73 164.77 118.49 165.51 119.42 165.50 C 120.34 165.49 121.09 164.73 121.08 163.81 L 121.07 162.86 C 121.06 161.94 120.30 161.20 119.38 161.21 C 118.45 161.21 117.71 161.97 117.72 162.90 Z M 117.73 163.83 L 117.73 164.83 C 117.74 165.76 118.49 166.50 119.42 166.50 C 120.34 166.49 121.09 165.74 121.08 164.81 L 121.08 163.81 C 121.07 162.89 120.32 162.14 119.39 162.15 C 118.47 162.15 117.72 162.91 117.73 163.83 Z M 117.73 164.83 L 117.73 165.85 C 117.74 166.78 118.49 167.53 119.42 167.52 C 120.34 167.52 121.09 166.77 121.09 165.84 L 121.08 164.81 C 121.08 163.89 120.33 163.14 119.40 163.14 C 118.48 163.15 117.73 163.90 117.73 164.83 Z M 117.73 165.85 L 117.74 166.88 C 117.74 167.81 118.49 168.56 119.42 168.56 C 120.34 168.56 121.09 167.80 121.09 166.88 L 121.09 165.84 C 121.08 164.92 120.33 164.17 119.41 164.17 C 118.48 164.17 117.73 164.92 117.73 165.85 Z M 117.74 166.88 L 117.74 167.90 C 117.74 168.83 118.49 169.58 119.41 169.58 C 120.34 169.58 121.09 168.83 121.09 167.90 L 121.09 166.88 C 121.09 165.95 120.34 165.21 119.41 165.21 C 118.49 165.21 117.74 165.96 117.74 166.88 Z M 117.74 167.90 L 117.74 168.90 C 117.74 169.83 118.49 170.58 119.41 170.58 C 120.34 170.58 121.09 169.83 121.09 168.90 L 121.09 167.90 C 121.09 166.98 120.34 166.23 119.41 166.23 C 118.49 166.23 117.74 166.98 117.74 167.90 Z M 117.74 168.90 L 117.74 169.94 C 117.74 170.87 118.49 171.61 119.41 171.61 C 120.34 171.61 121.09 170.86 121.09 169.94 L 121.09 168.90 C 121.09 167.98 120.34 167.23 119.41 167.23 C 118.49 167.23 117.74 167.98 117.74 168.90 Z M 117.74 169.95 L 117.75 170.94 C 117.75 171.86 118.50 172.61 119.42 172.61 C 120.34 172.60 121.09 171.85 121.09 170.93 L 121.08 169.94 C 121.08 169.01 120.33 168.27 119.41 168.27 C 118.49 168.28 117.74 169.03 117.74 169.95 Z M 117.75 170.95 L 117.76 171.93 C 117.77 172.85 118.52 173.58 119.44 173.58 C 120.36 173.57 121.10 172.81 121.09 171.90 L 121.08 170.92 C 121.07 170.00 120.32 169.26 119.40 169.27 C 118.48 169.28 117.74 170.03 117.75 170.95 Z M 117.77 171.94 L 117.78 172.92 C 117.80 173.83 118.56 174.56 119.47 174.55 C 120.39 174.53 121.12 173.77 121.10 172.86 L 121.09 171.88 C 121.07 170.96 120.31 170.23 119.40 170.25 C 118.48 170.27 117.75 171.02 117.77 171.94 Z M 117.79 172.93 L 117.82 173.93 C 117.84 174.85 118.60 175.57 119.52 175.54 C 120.43 175.52 121.15 174.75 121.13 173.84 L 121.10 172.84 C 121.07 171.93 120.31 171.21 119.40 171.23 C 118.48 171.26 117.76 172.02 117.79 172.93 Z M 117.82 173.95 L 117.86 174.96 C 117.90 175.87 118.66 176.58 119.58 176.55 C 120.49 176.51 121.20 175.74 121.16 174.83 L 121.12 173.82 C 121.09 172.91 120.32 172.20 119.41 172.24 C 118.50 172.27 117.79 173.04 117.82 173.95 Z M 117.87 174.98 L 117.92 176.01 C 117.96 176.91 118.73 177.62 119.64 177.57 C 120.55 177.53 121.25 176.76 121.21 175.85 L 121.16 174.82 C 121.11 173.91 120.34 173.21 119.43 173.25 C 118.52 173.30 117.82 174.07 117.87 174.98 Z M 117.92 176.02 L 117.98 177.05 C 118.03 177.96 118.80 178.65 119.71 178.60 C 120.61 178.55 121.31 177.78 121.26 176.87 L 121.20 175.84 C 121.15 174.93 120.38 174.24 119.47 174.29 C 118.57 174.34 117.87 175.11 117.92 176.02 Z M 117.99 177.06 L 118.05 178.08 C 118.10 178.98 118.88 179.66 119.78 179.61 C 120.68 179.56 121.37 178.78 121.31 177.88 L 121.25 176.86 C 121.20 175.96 120.42 175.27 119.52 175.33 C 118.62 175.38 117.93 176.16 117.99 177.06 Z M 118.05 178.08 L 118.11 179.05 C 118.17 179.95 118.95 180.63 119.85 180.58 C 120.75 180.52 121.43 179.74 121.37 178.84 L 121.31 177.87 C 121.25 176.97 120.47 176.29 119.57 176.35 C 118.68 176.41 117.99 177.18 118.05 178.08 Z M 118.12 179.06 L 118.19 180.04 C 118.25 180.94 119.02 181.61 119.92 181.55 C 120.81 181.49 121.49 180.72 121.43 179.82 L 121.36 178.84 C 121.30 177.94 120.53 177.27 119.63 177.33 C 118.74 177.39 118.06 178.16 118.12 179.06 Z M 118.20 180.05 L 118.28 181.17 C 118.34 182.06 119.11 182.73 120.00 182.67 C 120.89 182.60 121.56 181.83 121.50 180.94 L 121.42 179.82 C 121.36 178.93 120.58 178.26 119.69 178.32 C 118.80 178.39 118.13 179.16 118.20 180.05 Z M 118.29 181.19 L 118.38 182.19 C 118.45 183.07 119.23 183.73 120.11 183.65 C 120.99 183.58 121.65 182.80 121.57 181.92 L 121.49 180.92 C 121.41 180.04 120.63 179.38 119.75 179.46 C 118.87 179.53 118.22 180.31 118.29 181.19 Z M 118.39 182.23 L 118.49 183.14 C 118.59 184.01 119.37 184.64 120.25 184.55 C 121.12 184.45 121.75 183.66 121.66 182.79 L 121.55 181.88 C 121.46 181.01 120.67 180.38 119.80 180.47 C 118.93 180.57 118.30 181.35 118.39 182.23 Z M 118.51 183.20 L 118.64 184.09 C 118.77 184.96 119.57 185.55 120.44 185.43 C 121.30 185.30 121.90 184.50 121.77 183.63 L 121.64 182.73 C 121.51 181.87 120.71 181.27 119.84 181.40 C 118.98 181.53 118.38 182.33 118.51 183.20 Z M 118.67 184.18 L 118.87 185.17 C 119.05 186.02 119.88 186.56 120.73 186.38 C 121.58 186.21 122.13 185.38 121.95 184.53 L 121.75 183.54 C 121.57 182.69 120.74 182.15 119.89 182.32 C 119.04 182.50 118.49 183.33 118.67 184.18 Z M 118.91 185.31 L 119.20 186.25 C 119.46 187.08 120.34 187.54 121.16 187.29 C 121.99 187.04 122.46 186.16 122.20 185.33 L 121.91 184.38 C 121.65 183.56 120.78 183.09 119.95 183.35 C 119.12 183.60 118.66 184.48 118.91 185.31 Z M 119.28 186.43 L 119.69 187.34 C 120.04 188.13 120.97 188.48 121.75 188.13 C 122.54 187.77 122.89 186.85 122.54 186.06 L 122.13 185.15 C 121.77 184.36 120.85 184.01 120.06 184.37 C 119.27 184.72 118.92 185.65 119.28 186.43 Z M 119.79 187.53 L 120.29 188.34 C 120.75 189.08 121.71 189.30 122.44 188.85 C 123.18 188.39 123.40 187.43 122.95 186.70 L 122.44 185.88 C 121.98 185.15 121.02 184.92 120.29 185.38 C 119.56 185.83 119.33 186.79 119.79 187.53 Z M 120.38 188.47 L 120.98 189.26 C 121.51 189.94 122.49 190.07 123.17 189.55 C 123.86 189.02 123.99 188.04 123.46 187.36 L 122.86 186.57 C 122.34 185.89 121.36 185.76 120.67 186.28 C 119.99 186.80 119.86 187.78 120.38 188.47 Z M 121.04 189.33 L 121.70 190.10 C 122.27 190.75 123.25 190.83 123.90 190.27 C 124.56 189.70 124.63 188.72 124.07 188.06 L 123.41 187.29 C 122.84 186.64 121.86 186.56 121.20 187.12 C 120.55 187.69 120.48 188.67 121.04 189.33 Z M 121.73 190.13 L 122.23 190.69 C 122.81 191.33 123.79 191.38 124.44 190.80 C 125.08 190.23 125.13 189.24 124.55 188.60 L 124.05 188.04 C 123.47 187.40 122.48 187.34 121.84 187.92 C 121.20 188.50 121.15 189.48 121.73 190.13 Z"
      fill="black"
      fill-rule="nonzero" /><path d="M 140.05 150.88 L 139.24 151.46 C 138.50 152.01 138.33 153.05 138.88 153.80 C 139.42 154.54 140.46 154.71 141.21 154.17 L 142.01 153.58 C 142.76 153.04 142.92 151.99 142.38 151.25 C 141.84 150.50 140.79 150.34 140.05 150.88 Z M 139.24 151.46 L 138.43 152.04 C 137.68 152.59 137.52 153.64 138.06 154.39 C 138.61 155.14 139.66 155.31 140.41 154.76 L 141.22 154.18 C 141.97 153.63 142.13 152.58 141.59 151.82 C 141.04 151.07 139.99 150.91 139.24 151.46 Z M 138.42 152.03 L 137.61 152.63 C 136.86 153.18 136.69 154.24 137.24 154.99 C 137.80 155.75 138.86 155.91 139.61 155.36 L 140.42 154.77 C 141.18 154.22 141.34 153.16 140.79 152.40 C 140.24 151.65 139.18 151.48 138.42 152.03 Z M 137.60 152.62 L 136.79 153.22 C 136.03 153.77 135.87 154.84 136.42 155.60 C 136.98 156.36 138.04 156.52 138.80 155.97 L 139.62 155.37 C 140.38 154.81 140.54 153.75 139.99 152.99 C 139.43 152.23 138.36 152.06 137.60 152.62 Z M 136.78 153.21 L 135.97 153.82 C 135.21 154.37 135.04 155.44 135.60 156.20 C 136.16 156.97 137.23 157.13 137.99 156.57 L 138.81 155.97 C 139.57 155.41 139.73 154.34 139.17 153.58 C 138.61 152.82 137.54 152.66 136.78 153.21 Z M 135.97 153.81 L 135.15 154.41 C 134.39 154.97 134.23 156.04 134.79 156.80 C 135.34 157.56 136.42 157.73 137.18 157.17 L 137.99 156.57 C 138.75 156.01 138.92 154.94 138.36 154.18 C 137.80 153.42 136.73 153.25 135.97 153.81 Z M 135.16 154.40 L 134.36 154.98 C 133.59 155.54 133.43 156.61 133.98 157.38 C 134.54 158.14 135.61 158.31 136.38 157.76 L 137.18 157.18 C 137.94 156.62 138.11 155.54 137.55 154.78 C 137.00 154.01 135.92 153.84 135.16 154.40 Z M 134.37 154.97 L 133.60 155.52 C 132.83 156.08 132.65 157.15 133.21 157.92 C 133.76 158.69 134.84 158.87 135.61 158.31 L 136.37 157.76 C 137.14 157.21 137.32 156.14 136.76 155.37 C 136.21 154.59 135.14 154.42 134.37 154.97 Z M 133.60 155.52 L 132.84 156.06 C 132.07 156.62 131.89 157.69 132.44 158.46 C 132.99 159.24 134.06 159.42 134.84 158.87 L 135.60 158.32 C 136.38 157.77 136.56 156.69 136.00 155.92 C 135.45 155.15 134.38 154.97 133.60 155.52 Z M 132.84 156.06 L 132.03 156.64 C 131.25 157.19 131.07 158.27 131.63 159.04 C 132.18 159.82 133.26 160.00 134.03 159.45 L 134.84 158.87 C 135.61 158.32 135.79 157.24 135.24 156.46 C 134.69 155.69 133.61 155.51 132.84 156.06 Z M 132.02 156.64 L 131.12 157.29 C 130.35 157.84 130.17 158.92 130.73 159.69 C 131.29 160.47 132.36 160.64 133.14 160.09 L 134.04 159.44 C 134.81 158.89 134.99 157.81 134.43 157.04 C 133.88 156.26 132.80 156.08 132.02 156.64 Z M 131.11 157.29 L 130.33 157.86 C 129.56 158.42 129.39 159.50 129.95 160.27 C 130.51 161.04 131.60 161.22 132.37 160.65 L 133.15 160.08 C 133.92 159.52 134.09 158.44 133.53 157.67 C 132.97 156.90 131.89 156.73 131.11 157.29 Z M 130.31 157.87 L 129.50 158.48 C 128.73 159.05 128.58 160.14 129.15 160.90 C 129.72 161.67 130.81 161.82 131.57 161.25 L 132.39 160.64 C 133.15 160.07 133.31 158.98 132.74 158.22 C 132.16 157.45 131.08 157.30 130.31 157.87 Z M 129.46 158.50 L 128.65 159.14 C 127.90 159.74 127.76 160.83 128.36 161.58 C 128.95 162.33 130.04 162.46 130.79 161.87 L 131.60 161.23 C 132.36 160.64 132.49 159.55 131.90 158.80 C 131.31 158.04 130.22 157.91 129.46 158.50 Z M 128.60 159.18 L 127.82 159.83 C 127.09 160.45 127.00 161.55 127.61 162.28 C 128.23 163.01 129.33 163.11 130.06 162.49 L 130.84 161.83 C 131.57 161.22 131.66 160.12 131.05 159.39 C 130.43 158.66 129.33 158.56 128.60 159.18 Z M 127.75 159.90 L 127.01 160.59 C 126.31 161.25 126.28 162.35 126.93 163.05 C 127.59 163.75 128.69 163.78 129.39 163.12 L 130.13 162.43 C 130.83 161.77 130.87 160.67 130.21 159.97 C 129.55 159.27 128.45 159.24 127.75 159.90 Z M 126.89 160.72 L 126.09 161.63 C 125.46 162.36 125.54 163.46 126.27 164.09 C 127.00 164.72 128.10 164.64 128.72 163.91 L 129.52 163.00 C 130.15 162.27 130.07 161.17 129.34 160.54 C 128.61 159.91 127.51 159.99 126.89 160.72 Z M 125.89 161.91 L 125.41 162.76 C 124.93 163.60 125.23 164.66 126.06 165.14 C 126.90 165.62 127.96 165.32 128.44 164.49 L 128.92 163.63 C 129.40 162.80 129.11 161.73 128.27 161.26 C 127.43 160.78 126.37 161.07 125.89 161.91 Z M 125.20 163.35 L 125.08 164.12 C 124.93 165.07 125.57 165.97 126.53 166.12 C 127.48 166.27 128.37 165.62 128.52 164.67 L 128.65 163.90 C 128.80 162.95 128.15 162.05 127.20 161.90 C 126.25 161.75 125.35 162.40 125.20 163.35 Z M 125.20 165.10 L 125.52 165.81 C 125.91 166.69 126.94 167.09 127.82 166.70 C 128.70 166.31 129.10 165.28 128.71 164.40 L 128.40 163.69 C 128.01 162.81 126.98 162.41 126.10 162.80 C 125.21 163.19 124.82 164.22 125.20 165.10 Z M 125.99 166.43 L 126.71 167.04 C 127.45 167.66 128.55 167.57 129.17 166.83 C 129.79 166.10 129.69 165.00 128.96 164.38 L 128.24 163.77 C 127.50 163.15 126.40 163.24 125.78 163.98 C 125.16 164.71 125.25 165.81 125.99 166.43 Z M 127.04 167.26 L 128.07 167.78 C 128.93 168.22 129.98 167.88 130.41 167.02 C 130.85 166.17 130.51 165.12 129.65 164.68 L 128.62 164.16 C 127.77 163.72 126.72 164.06 126.28 164.92 C 125.85 165.78 126.19 166.82 127.04 167.26 Z M 128.24 167.85 L 129.18 168.21 C 130.08 168.55 131.08 168.10 131.42 167.21 C 131.76 166.32 131.31 165.32 130.42 164.98 L 129.48 164.62 C 128.59 164.28 127.59 164.72 127.25 165.61 C 126.90 166.51 127.35 167.51 128.24 167.85 Z M 129.29 168.23 L 130.23 168.52 C 131.13 168.80 132.09 168.30 132.37 167.40 C 132.66 166.50 132.16 165.54 131.25 165.25 L 130.31 164.96 C 129.41 164.68 128.45 165.18 128.17 166.08 C 127.88 166.98 128.39 167.94 129.29 168.23 Z M 130.32 168.53 L 131.30 168.78 C 132.21 169.01 133.13 168.47 133.37 167.57 C 133.60 166.66 133.06 165.74 132.15 165.50 L 131.16 165.25 C 130.26 165.01 129.34 165.56 129.10 166.46 C 128.87 167.37 129.41 168.29 130.32 168.53 Z M 131.39 168.78 L 132.40 168.99 C 133.30 169.18 134.19 168.59 134.38 167.69 C 134.56 166.78 133.98 165.90 133.08 165.71 L 132.07 165.50 C 131.16 165.32 130.28 165.90 130.09 166.80 C 129.90 167.71 130.48 168.59 131.39 168.78 Z M 132.49 168.98 L 133.48 169.14 C 134.38 169.28 135.23 168.66 135.37 167.76 C 135.50 166.86 134.89 166.01 133.98 165.87 L 132.99 165.72 C 132.09 165.58 131.24 166.20 131.10 167.10 C 130.97 168.00 131.58 168.84 132.49 168.98 Z M 133.56 169.13 L 134.53 169.23 C 135.42 169.33 136.23 168.68 136.32 167.78 C 136.42 166.88 135.77 166.08 134.87 165.98 L 133.90 165.88 C 133.01 165.79 132.20 166.44 132.11 167.33 C 132.01 168.23 132.66 169.03 133.56 169.13 Z M 134.59 169.22 L 135.57 169.28 C 136.46 169.34 137.23 168.67 137.29 167.78 C 137.35 166.89 136.67 166.12 135.78 166.06 L 134.81 166.00 C 133.92 165.94 133.15 166.61 133.09 167.50 C 133.03 168.39 133.70 169.16 134.59 169.22 Z M 135.62 169.27 L 136.62 169.30 C 137.50 169.34 138.24 168.65 138.28 167.77 C 138.31 166.89 137.62 166.15 136.74 166.12 L 135.74 166.08 C 134.86 166.05 134.12 166.73 134.08 167.61 C 134.05 168.49 134.74 169.23 135.62 169.27 Z M 136.65 169.28 L 137.70 169.30 C 138.57 169.32 139.29 168.63 139.30 167.76 C 139.32 166.89 138.63 166.17 137.76 166.16 L 136.71 166.13 C 135.84 166.12 135.12 166.81 135.11 167.68 C 135.09 168.55 135.78 169.27 136.65 169.28 Z M 137.71 169.29 L 138.66 169.31 C 139.52 169.32 140.23 168.62 140.24 167.76 C 140.25 166.89 139.56 166.19 138.70 166.18 L 137.75 166.17 C 136.88 166.16 136.17 166.85 136.16 167.71 C 136.15 168.58 136.85 169.28 137.71 169.29 Z M 138.67 169.30 L 139.65 169.31 C 140.51 169.32 141.21 168.62 141.22 167.76 C 141.23 166.89 140.53 166.19 139.67 166.18 L 138.69 166.18 C 137.83 166.17 137.12 166.87 137.11 167.73 C 137.11 168.59 137.80 169.30 138.67 169.30 Z M 139.65 169.31 L 140.66 169.31 C 141.52 169.32 142.22 168.62 142.22 167.76 C 142.23 166.89 141.53 166.19 140.67 166.19 L 139.66 166.18 C 138.80 166.18 138.10 166.88 138.09 167.74 C 138.09 168.60 138.79 169.31 139.65 169.31 Z M 140.66 169.31 L 141.68 169.31 C 142.55 169.32 143.25 168.62 143.25 167.75 C 143.25 166.89 142.55 166.19 141.69 166.19 L 140.66 166.19 C 139.80 166.19 139.10 166.89 139.10 167.75 C 139.10 168.61 139.80 169.31 140.66 169.31 Z M 141.69 169.31 L 142.72 169.31 C 143.58 169.31 144.28 168.62 144.28 167.75 C 144.28 166.89 143.58 166.19 142.72 166.19 L 141.69 166.19 C 140.82 166.19 140.12 166.89 140.12 167.75 C 140.12 168.61 140.82 169.31 141.69 169.31 Z M 142.72 169.31 L 143.02 169.31 C 143.88 169.31 144.58 168.61 144.58 167.75 C 144.58 166.89 143.88 166.19 143.02 166.19 L 142.72 166.19 C 141.86 166.19 141.16 166.89 141.16 167.75 C 141.16 168.61 141.86 169.31 142.72 169.31 Z"
      fill="black"
      fill-rule="nonzero" /><path d="M 147.61 134.01 L 148.34 133.37 C 149.04 132.73 149.11 131.65 148.47 130.94 C 147.84 130.23 146.76 130.17 146.05 130.80 L 145.32 131.45 C 144.61 132.08 144.55 133.17 145.18 133.87 C 145.82 134.58 146.90 134.64 147.61 134.01 Z M 148.30 133.40 L 149.05 132.76 C 149.78 132.15 149.87 131.06 149.26 130.34 C 148.64 129.61 147.55 129.52 146.83 130.13 L 146.08 130.77 C 145.35 131.38 145.26 132.47 145.88 133.20 C 146.49 133.92 147.58 134.01 148.30 133.40 Z M 148.99 132.82 L 149.79 132.20 C 150.55 131.63 150.69 130.54 150.12 129.79 C 149.54 129.03 148.45 128.88 147.70 129.46 L 146.89 130.08 C 146.14 130.66 145.99 131.74 146.57 132.50 C 147.15 133.25 148.23 133.40 148.99 132.82 Z M 149.70 132.27 L 150.53 131.72 C 151.33 131.20 151.54 130.12 151.02 129.33 C 150.49 128.53 149.42 128.32 148.62 128.84 L 147.79 129.39 C 146.99 129.92 146.78 130.99 147.31 131.79 C 147.83 132.58 148.90 132.80 149.70 132.27 Z M 150.44 131.78 L 151.23 131.33 C 152.06 130.85 152.34 129.80 151.87 128.97 C 151.39 128.14 150.34 127.85 149.51 128.33 L 148.72 128.78 C 147.89 129.26 147.60 130.31 148.08 131.14 C 148.55 131.97 149.61 132.26 150.44 131.78 Z M 151.15 131.37 L 152.02 130.93 C 152.87 130.50 153.21 129.46 152.77 128.60 C 152.34 127.75 151.30 127.41 150.44 127.85 L 149.58 128.29 C 148.73 128.72 148.39 129.76 148.83 130.62 C 149.26 131.47 150.30 131.80 151.15 131.37 Z M 151.96 130.96 L 152.89 130.53 C 153.76 130.12 154.14 129.09 153.73 128.23 C 153.33 127.36 152.30 126.98 151.44 127.39 L 150.50 127.82 C 149.63 128.22 149.26 129.25 149.66 130.12 C 150.06 130.99 151.09 131.36 151.96 130.96 Z M 152.85 130.55 L 153.86 130.11 C 154.74 129.73 155.14 128.71 154.76 127.83 C 154.38 126.96 153.36 126.55 152.49 126.93 L 151.48 127.37 C 150.60 127.75 150.19 128.77 150.57 129.64 C 150.95 130.52 151.97 130.93 152.85 130.55 Z M 153.83 130.12 L 154.77 129.74 C 155.65 129.37 156.07 128.36 155.71 127.48 C 155.34 126.59 154.33 126.17 153.44 126.53 L 152.51 126.92 C 151.63 127.28 151.21 128.30 151.57 129.18 C 151.94 130.06 152.95 130.49 153.83 130.12 Z M 154.74 129.75 L 155.68 129.37 C 156.57 129.02 157.01 128.02 156.65 127.13 C 156.30 126.24 155.29 125.80 154.40 126.15 L 153.47 126.53 C 152.58 126.88 152.14 127.89 152.49 128.77 C 152.85 129.66 153.85 130.10 154.74 129.75 Z M 155.66 129.38 L 156.62 129.02 C 157.51 128.68 157.96 127.68 157.62 126.78 C 157.28 125.89 156.28 125.44 155.39 125.78 L 154.43 126.14 C 153.53 126.49 153.08 127.49 153.42 128.38 C 153.76 129.27 154.76 129.72 155.66 129.38 Z M 156.59 129.03 L 157.55 128.68 C 158.45 128.36 158.91 127.36 158.59 126.46 C 158.26 125.56 157.27 125.10 156.37 125.42 L 155.41 125.77 C 154.51 126.10 154.05 127.09 154.37 127.99 C 154.70 128.89 155.69 129.35 156.59 129.03 Z M 157.52 128.69 L 158.46 128.37 C 159.36 128.06 159.85 127.08 159.54 126.17 C 159.23 125.27 158.24 124.78 157.34 125.09 L 156.40 125.41 C 155.49 125.72 155.01 126.71 155.32 127.61 C 155.63 128.52 156.61 129.00 157.52 128.69 Z M 158.42 128.38 L 159.39 128.08 C 160.30 127.79 160.81 126.81 160.52 125.90 C 160.23 124.99 159.26 124.48 158.35 124.77 L 157.37 125.08 C 156.46 125.37 155.96 126.34 156.24 127.25 C 156.53 128.17 157.51 128.67 158.42 128.38 Z M 159.34 128.09 L 160.36 127.80 C 161.28 127.54 161.81 126.58 161.55 125.66 C 161.29 124.74 160.33 124.21 159.41 124.47 L 158.40 124.76 C 157.48 125.02 156.94 125.98 157.20 126.90 C 157.46 127.82 158.42 128.35 159.34 128.09 Z M 160.30 127.82 L 161.27 127.58 C 162.20 127.35 162.77 126.41 162.54 125.48 C 162.31 124.55 161.37 123.99 160.44 124.22 L 159.47 124.46 C 158.54 124.68 157.98 125.62 158.21 126.55 C 158.43 127.48 159.37 128.05 160.30 127.82 Z M 161.21 127.59 L 162.15 127.39 C 163.09 127.20 163.69 126.28 163.49 125.34 C 163.29 124.41 162.37 123.81 161.44 124.00 L 160.50 124.20 C 159.56 124.40 158.97 125.32 159.16 126.25 C 159.36 127.19 160.28 127.79 161.21 127.59 Z M 162.10 127.40 L 163.03 127.24 C 163.97 127.07 164.59 126.17 164.43 125.23 C 164.26 124.29 163.36 123.66 162.42 123.83 L 161.50 123.99 C 160.55 124.16 159.93 125.06 160.09 126.00 C 160.26 126.94 161.16 127.57 162.10 127.40 Z M 162.97 127.25 L 163.94 127.10 C 164.89 126.97 165.54 126.09 165.41 125.14 C 165.27 124.20 164.39 123.54 163.44 123.68 L 162.47 123.82 C 161.53 123.96 160.87 124.84 161.01 125.78 C 161.15 126.73 162.03 127.38 162.97 127.25 Z M 163.89 127.11 L 164.88 127.00 C 165.83 126.88 166.50 126.02 166.39 125.08 C 166.28 124.13 165.42 123.45 164.47 123.56 L 163.49 123.68 C 162.54 123.79 161.86 124.65 161.98 125.59 C 162.09 126.54 162.95 127.22 163.89 127.11 Z M 164.83 127.00 L 165.83 126.91 C 166.78 126.82 167.48 125.98 167.39 125.03 C 167.31 124.08 166.47 123.38 165.52 123.47 L 164.52 123.56 C 163.57 123.64 162.87 124.48 162.95 125.43 C 163.04 126.38 163.88 127.09 164.83 127.00 Z M 165.78 126.91 L 166.80 126.85 C 167.75 126.78 168.47 125.96 168.41 125.01 C 168.35 124.06 167.53 123.33 166.57 123.40 L 165.56 123.46 C 164.61 123.53 163.89 124.35 163.95 125.30 C 164.01 126.25 164.83 126.97 165.78 126.91 Z M 166.76 126.85 L 167.77 126.81 C 168.72 126.76 169.46 125.96 169.42 125.01 C 169.38 124.05 168.58 123.31 167.62 123.35 L 166.61 123.40 C 165.66 123.44 164.92 124.24 164.96 125.19 C 165.00 126.15 165.80 126.89 166.76 126.85 Z M 167.72 126.81 L 168.73 126.79 C 169.69 126.78 170.45 125.99 170.43 125.04 C 170.42 124.09 169.64 123.32 168.68 123.34 L 167.67 123.35 C 166.72 123.37 165.96 124.15 165.97 125.10 C 165.98 126.06 166.77 126.82 167.72 126.81 Z M 168.67 126.79 L 169.67 126.82 C 170.63 126.84 171.42 126.08 171.44 125.13 C 171.47 124.18 170.71 123.39 169.76 123.36 L 168.75 123.34 C 167.80 123.31 167.00 124.07 166.98 125.02 C 166.96 125.98 167.71 126.77 168.67 126.79 Z M 169.58 126.81 L 170.58 126.89 C 171.53 126.96 172.36 126.25 172.43 125.30 C 172.50 124.35 171.79 123.52 170.84 123.44 L 169.85 123.37 C 168.90 123.29 168.07 124.01 167.99 124.96 C 167.92 125.91 168.63 126.74 169.58 126.81 Z M 170.46 126.87 L 171.44 127.01 C 172.38 127.15 173.26 126.50 173.39 125.55 C 173.53 124.61 172.88 123.73 171.93 123.60 L 170.96 123.46 C 170.01 123.32 169.14 123.97 169.00 124.92 C 168.87 125.86 169.52 126.74 170.46 126.87 Z M 171.29 126.99 L 172.28 127.22 C 173.21 127.43 174.14 126.85 174.35 125.93 C 174.57 125.00 173.99 124.07 173.06 123.86 L 172.08 123.63 C 171.15 123.41 170.22 123.99 170.00 124.92 C 169.79 125.84 170.37 126.77 171.29 126.99 Z M 172.13 127.17 L 173.07 127.49 C 173.97 127.79 174.95 127.30 175.25 126.40 C 175.55 125.50 175.07 124.52 174.16 124.22 L 173.22 123.90 C 172.32 123.60 171.34 124.09 171.04 124.99 C 170.74 125.89 171.22 126.87 172.13 127.17 Z M 172.91 127.43 L 173.82 127.83 C 174.69 128.22 175.71 127.83 176.09 126.96 C 176.48 126.09 176.09 125.07 175.22 124.68 L 174.32 124.28 C 173.45 123.89 172.43 124.28 172.04 125.15 C 171.66 126.02 172.05 127.04 172.91 127.43 Z M 173.67 127.75 L 174.53 128.24 C 175.35 128.72 176.41 128.43 176.88 127.60 C 177.35 126.78 177.06 125.73 176.24 125.25 L 175.38 124.76 C 174.55 124.29 173.50 124.58 173.03 125.40 C 172.55 126.23 172.84 127.28 173.67 127.75 Z M 174.39 128.16 L 175.17 128.71 C 175.95 129.25 177.02 129.07 177.57 128.29 C 178.12 127.51 177.93 126.44 177.16 125.89 L 176.37 125.34 C 175.60 124.79 174.52 124.98 173.98 125.76 C 173.43 126.54 173.62 127.61 174.39 128.16 Z M 175.06 128.62 L 175.81 129.24 C 176.53 129.86 177.62 129.76 178.23 129.03 C 178.84 128.31 178.75 127.22 178.02 126.61 L 177.27 125.98 C 176.54 125.37 175.46 125.47 174.85 126.19 C 174.24 126.92 174.33 128.00 175.06 128.62 Z M 175.71 129.15 L 176.42 129.86 C 177.10 130.52 178.19 130.51 178.85 129.84 C 179.52 129.16 179.51 128.07 178.83 127.41 L 178.12 126.70 C 177.44 126.04 176.35 126.05 175.69 126.72 C 175.02 127.40 175.03 128.49 175.71 129.15 Z M 176.34 129.77 L 177.03 130.55 C 177.66 131.26 178.74 131.32 179.45 130.69 C 180.16 130.06 180.23 128.98 179.60 128.27 L 178.91 127.49 C 178.29 126.78 177.20 126.72 176.49 127.35 C 175.78 127.97 175.71 129.06 176.34 129.77 Z M 176.96 130.46 L 177.58 131.26 C 178.17 132.00 179.24 132.13 179.99 131.55 C 180.74 130.97 180.87 129.89 180.28 129.14 L 179.67 128.35 C 179.08 127.60 178.00 127.47 177.26 128.06 C 176.51 128.64 176.38 129.72 176.96 130.46 Z M 177.53 131.18 L 178.09 131.98 C 178.63 132.76 179.70 132.95 180.48 132.40 C 181.25 131.86 181.44 130.79 180.90 130.02 L 180.34 129.21 C 179.79 128.44 178.73 128.25 177.95 128.79 C 177.18 129.34 176.99 130.41 177.53 131.18 Z M 178.05 131.91 L 178.58 132.76 C 179.08 133.56 180.14 133.80 180.94 133.30 C 181.74 132.79 181.98 131.74 181.48 130.93 L 180.95 130.09 C 180.44 129.29 179.38 129.05 178.58 129.55 C 177.78 130.05 177.54 131.11 178.05 131.91 Z M 178.54 132.68 L 179.03 133.57 C 179.50 134.39 180.54 134.68 181.36 134.22 C 182.19 133.76 182.48 132.71 182.02 131.89 L 181.52 131.01 C 181.06 130.18 180.01 129.89 179.19 130.35 C 178.37 130.82 178.07 131.86 178.54 132.68 Z M 178.99 133.49 L 179.45 134.41 C 179.87 135.25 180.90 135.59 181.74 135.17 C 182.59 134.75 182.93 133.73 182.51 132.88 L 182.05 131.97 C 181.63 131.12 180.61 130.78 179.76 131.20 C 178.92 131.62 178.57 132.65 178.99 133.49 Z M 179.41 134.33 L 179.81 135.24 C 180.19 136.11 181.20 136.50 182.06 136.13 C 182.93 135.75 183.32 134.74 182.95 133.88 L 182.55 132.96 C 182.17 132.09 181.16 131.70 180.29 132.08 C 179.43 132.46 179.04 133.46 179.41 134.33 Z M 179.78 135.17 L 180.14 136.09 C 180.47 136.97 181.46 137.41 182.34 137.08 C 183.22 136.74 183.66 135.76 183.33 134.87 L 182.98 133.95 C 182.64 133.07 181.65 132.63 180.77 132.96 C 179.89 133.30 179.45 134.29 179.78 135.17 Z M 180.11 136.02 L 180.42 136.96 C 180.72 137.86 181.69 138.34 182.58 138.04 C 183.48 137.75 183.96 136.78 183.66 135.89 L 183.35 134.94 C 183.05 134.05 182.09 133.57 181.19 133.86 C 180.30 134.16 179.81 135.13 180.11 136.02 Z M 180.41 136.90 L 180.68 137.86 C 180.95 138.77 181.89 139.29 182.80 139.03 C 183.70 138.76 184.22 137.82 183.96 136.91 L 183.68 135.95 C 183.42 135.05 182.48 134.52 181.57 134.79 C 180.67 135.05 180.14 135.99 180.41 136.90 Z M 180.67 137.80 L 180.92 138.79 C 181.15 139.70 182.07 140.25 182.99 140.02 C 183.90 139.79 184.45 138.87 184.22 137.95 L 183.98 136.97 C 183.75 136.06 182.82 135.50 181.91 135.73 C 180.99 135.96 180.44 136.89 180.67 137.80 Z M 180.91 138.74 L 181.13 139.75 C 181.33 140.67 182.24 141.25 183.16 141.05 C 184.08 140.85 184.66 139.94 184.46 139.02 L 184.23 138.01 C 184.03 137.09 183.12 136.50 182.20 136.71 C 181.29 136.91 180.70 137.82 180.91 138.74 Z M 181.12 139.71 L 181.32 140.75 C 181.50 141.67 182.39 142.27 183.31 142.10 C 184.24 141.92 184.84 141.03 184.66 140.10 L 184.46 139.06 C 184.29 138.14 183.39 137.54 182.47 137.71 C 181.55 137.89 180.94 138.78 181.12 139.71 Z M 181.31 140.71 L 181.49 141.73 C 181.64 142.66 182.52 143.29 183.45 143.13 C 184.38 142.97 185.00 142.10 184.84 141.17 L 184.67 140.14 C 184.51 139.21 183.64 138.59 182.71 138.75 C 181.78 138.90 181.16 139.78 181.31 140.71 Z M 181.48 141.70 L 181.63 142.69 C 181.77 143.62 182.63 144.26 183.56 144.13 C 184.49 143.99 185.13 143.12 184.99 142.19 L 184.85 141.20 C 184.71 140.27 183.85 139.63 182.92 139.77 C 181.99 139.91 181.35 140.77 181.48 141.70 Z M 181.63 142.66 L 181.75 143.59 C 181.87 144.53 182.72 145.18 183.65 145.06 C 184.58 144.94 185.24 144.09 185.12 143.16 L 185.00 142.23 C 184.88 141.29 184.03 140.64 183.09 140.76 C 182.16 140.88 181.51 141.73 181.63 142.66 Z M 181.74 143.56 L 181.85 144.56 C 181.96 145.49 182.79 146.16 183.73 146.06 C 184.66 145.96 185.33 145.12 185.23 144.19 L 185.12 143.19 C 185.02 142.26 184.18 141.59 183.25 141.69 C 182.32 141.79 181.64 142.63 181.74 143.56 Z M 181.85 144.52 L 181.94 145.57 C 182.02 146.51 182.84 147.20 183.77 147.12 C 184.71 147.04 185.40 146.22 185.32 145.29 L 185.23 144.23 C 185.15 143.30 184.33 142.60 183.40 142.68 C 182.47 142.76 181.77 143.58 181.85 144.52 Z M 181.94 145.53 L 182.00 146.49 C 182.05 147.42 182.86 148.13 183.79 148.08 C 184.73 148.02 185.44 147.22 185.38 146.28 L 185.32 145.33 C 185.27 144.39 184.46 143.68 183.53 143.74 C 182.60 143.79 181.88 144.60 181.94 145.53 Z M 182.00 146.46 L 182.04 147.38 C 182.08 148.31 182.87 149.03 183.81 148.99 C 184.74 148.95 185.46 148.16 185.42 147.23 L 185.38 146.31 C 185.34 145.37 184.55 144.65 183.61 144.69 C 182.68 144.73 181.96 145.53 182.00 146.46 Z M 182.04 147.37 L 182.07 148.25 C 182.11 149.18 182.90 149.91 183.83 149.87 C 184.77 149.83 185.49 149.04 185.45 148.11 L 185.42 147.23 C 185.38 146.30 184.60 145.57 183.66 145.61 C 182.73 145.65 182.00 146.44 182.04 147.37 Z M 182.08 148.24 L 182.11 149.17 C 182.14 150.10 182.92 150.83 183.86 150.80 C 184.79 150.77 185.52 149.98 185.49 149.05 L 185.45 148.12 C 185.42 147.19 184.64 146.46 183.71 146.49 C 182.77 146.52 182.04 147.30 182.08 148.24 Z M 182.11 149.16 L 182.14 150.19 C 182.16 151.12 182.94 151.86 183.87 151.83 C 184.80 151.81 185.54 151.03 185.51 150.10 L 185.49 149.07 C 185.46 148.13 184.68 147.40 183.75 147.42 C 182.82 147.45 182.08 148.22 182.11 149.16 Z M 182.14 150.17 L 182.16 151.32 C 182.17 152.25 182.94 152.99 183.88 152.97 C 184.81 152.96 185.55 152.19 185.53 151.26 L 185.51 150.11 C 185.50 149.18 184.73 148.44 183.79 148.46 C 182.86 148.47 182.12 149.24 182.14 150.17 Z M 182.16 151.30 L 182.17 152.28 C 182.18 153.21 182.94 153.96 183.87 153.95 C 184.80 153.94 185.55 153.18 185.54 152.25 L 185.53 151.27 C 185.52 150.34 184.76 149.59 183.83 149.60 C 182.90 149.61 182.15 150.37 182.16 151.30 Z M 182.17 152.28 L 182.18 153.31 C 182.18 154.24 182.94 154.99 183.87 154.98 C 184.80 154.98 185.55 154.22 185.55 153.29 L 185.54 152.26 C 185.53 151.33 184.78 150.58 183.85 150.58 C 182.92 150.59 182.17 151.35 182.17 152.28 Z M 182.18 153.30 L 182.18 154.34 C 182.18 155.27 182.94 156.03 183.87 156.02 C 184.80 156.02 185.55 155.26 185.55 154.33 L 185.54 153.29 C 185.54 152.36 184.79 151.61 183.86 151.61 C 182.93 151.62 182.18 152.37 182.18 153.30 Z M 182.18 154.34 L 182.18 155.35 C 182.19 156.28 182.94 157.03 183.87 157.03 C 184.80 157.03 185.55 156.28 185.55 155.35 L 185.55 154.34 C 185.55 153.41 184.79 152.66 183.86 152.66 C 182.93 152.66 182.18 153.41 182.18 154.34 Z M 182.19 155.35 L 182.19 156.30 C 182.19 157.22 182.94 157.98 183.87 157.98 C 184.79 157.98 185.55 157.22 185.55 156.30 L 185.55 155.35 C 185.55 154.42 184.79 153.67 183.87 153.67 C 182.94 153.67 182.19 154.42 182.19 155.35 Z M 182.19 156.29 L 182.19 157.33 C 182.18 158.26 182.93 159.01 183.86 159.01 C 184.78 159.02 185.54 158.27 185.54 157.34 L 185.54 156.30 C 185.55 155.37 184.80 154.62 183.87 154.62 C 182.94 154.62 182.19 155.37 182.19 156.29 Z M 182.19 157.30 L 182.17 158.25 C 182.15 159.18 182.88 159.94 183.81 159.96 C 184.73 159.98 185.50 159.25 185.52 158.32 L 185.54 157.37 C 185.55 156.45 184.82 155.68 183.90 155.66 C 182.97 155.64 182.21 156.38 182.19 157.30 Z M 182.18 158.19 L 182.12 159.15 C 182.07 160.07 182.78 160.86 183.70 160.91 C 184.62 160.96 185.41 160.25 185.46 159.33 L 185.51 158.38 C 185.56 157.46 184.86 156.67 183.94 156.62 C 183.02 156.57 182.23 157.28 182.18 158.19 Z M 182.13 159.08 L 182.03 160.12 C 181.94 161.04 182.61 161.85 183.53 161.94 C 184.44 162.03 185.26 161.36 185.34 160.45 L 185.45 159.40 C 185.54 158.49 184.87 157.67 183.95 157.58 C 183.04 157.50 182.22 158.16 182.13 159.08 Z M 182.04 160.07 L 181.92 161.00 C 181.80 161.91 182.44 162.74 183.35 162.86 C 184.26 162.98 185.09 162.34 185.21 161.43 L 185.34 160.50 C 185.45 159.59 184.81 158.76 183.90 158.64 C 183.00 158.52 182.16 159.16 182.04 160.07 Z M 181.93 160.96 L 181.78 161.96 C 181.64 162.87 182.26 163.71 183.17 163.85 C 184.07 163.99 184.92 163.37 185.06 162.46 L 185.21 161.46 C 185.34 160.56 184.72 159.71 183.82 159.57 C 182.91 159.44 182.06 160.06 181.93 160.96 Z M 181.78 161.94 L 181.61 162.97 C 181.46 163.87 182.07 164.73 182.98 164.88 C 183.88 165.02 184.73 164.41 184.88 163.51 L 185.05 162.48 C 185.20 161.58 184.59 160.73 183.69 160.58 C 182.78 160.43 181.93 161.04 181.78 161.94 Z M 181.62 162.96 L 181.44 163.97 C 181.28 164.88 181.88 165.73 182.78 165.89 C 183.68 166.05 184.54 165.44 184.70 164.54 L 184.88 163.53 C 185.03 162.62 184.43 161.77 183.53 161.61 C 182.63 161.45 181.77 162.06 181.62 162.96 Z M 181.44 163.97 L 181.27 164.93 C 181.10 165.83 181.70 166.69 182.60 166.85 C 183.50 167.02 184.36 166.42 184.52 165.52 L 184.69 164.55 C 184.86 163.65 184.26 162.80 183.36 162.63 C 182.46 162.47 181.60 163.07 181.44 163.97 Z M 181.27 164.93 L 181.08 165.98 C 180.91 166.87 181.50 167.73 182.40 167.90 C 183.29 168.06 184.15 167.47 184.32 166.58 L 184.51 165.53 C 184.68 164.63 184.09 163.77 183.19 163.61 C 182.30 163.44 181.44 164.03 181.27 164.93 Z M 181.09 165.96 L 180.89 166.94 C 180.72 167.82 181.29 168.69 182.18 168.87 C 183.07 169.04 183.94 168.46 184.11 167.57 L 184.31 166.60 C 184.48 165.71 183.91 164.84 183.02 164.67 C 182.13 164.49 181.26 165.07 181.09 165.96 Z M 180.91 166.90 L 180.70 167.83 C 180.50 168.71 181.06 169.59 181.94 169.78 C 182.82 169.98 183.69 169.43 183.89 168.54 L 184.10 167.61 C 184.30 166.73 183.74 165.86 182.86 165.66 C 181.98 165.46 181.11 166.02 180.91 166.90 Z M 180.72 167.78 L 180.48 168.72 C 180.25 169.59 180.77 170.48 181.64 170.70 C 182.52 170.93 183.40 170.40 183.63 169.53 L 183.87 168.59 C 184.10 167.72 183.57 166.84 182.70 166.61 C 181.83 166.39 180.94 166.91 180.72 167.78 Z M 180.50 168.67 L 180.22 169.59 C 179.97 170.45 180.46 171.35 181.32 171.61 C 182.18 171.86 183.08 171.37 183.33 170.51 L 183.61 169.59 C 183.86 168.73 183.37 167.83 182.51 167.57 C 181.65 167.32 180.75 167.81 180.50 168.67 Z M 180.24 169.55 L 179.93 170.49 C 179.65 171.34 180.11 172.25 180.96 172.53 C 181.81 172.81 182.73 172.35 183.01 171.50 L 183.31 170.56 C 183.59 169.71 183.13 168.79 182.28 168.52 C 181.44 168.24 180.52 168.70 180.24 169.55 Z M 179.95 170.45 L 179.60 171.41 C 179.30 172.24 179.74 173.17 180.58 173.47 C 181.42 173.77 182.34 173.34 182.64 172.50 L 182.99 171.54 C 183.29 170.70 182.85 169.78 182.02 169.47 C 181.18 169.17 180.25 169.61 179.95 170.45 Z M 179.62 171.36 L 179.25 172.32 C 178.93 173.15 179.33 174.08 180.16 174.41 C 180.99 174.73 181.93 174.32 182.25 173.49 L 182.62 172.54 C 182.95 171.71 182.54 170.78 181.71 170.45 C 180.88 170.13 179.95 170.54 179.62 171.36 Z M 179.27 172.27 L 178.88 173.20 C 178.53 174.02 178.91 174.96 179.72 175.31 C 180.54 175.66 181.49 175.28 181.83 174.46 L 182.23 173.54 C 182.58 172.72 182.20 171.77 181.38 171.43 C 180.56 171.08 179.62 171.46 179.27 172.27 Z M 178.91 173.15 L 178.46 174.08 C 178.09 174.88 178.43 175.84 179.23 176.22 C 180.03 176.60 180.99 176.25 181.36 175.45 L 181.81 174.51 C 182.18 173.71 181.84 172.76 181.04 172.38 C 180.24 172.00 179.28 172.35 178.91 173.15 Z M 178.51 174.01 L 178.03 174.90 C 177.62 175.67 177.91 176.64 178.69 177.06 C 179.47 177.47 180.43 177.18 180.85 176.40 L 181.32 175.52 C 181.74 174.74 181.44 173.78 180.67 173.36 C 179.89 172.94 178.92 173.24 178.51 174.01 Z M 178.09 174.81 L 177.57 175.65 C 177.11 176.39 177.34 177.37 178.09 177.83 C 178.83 178.30 179.81 178.07 180.28 177.32 L 180.79 176.49 C 181.26 175.74 181.03 174.76 180.28 174.30 C 179.53 173.83 178.55 174.07 178.09 174.81 Z M 177.64 175.55 L 177.07 176.35 C 176.55 177.06 176.71 178.05 177.42 178.56 C 178.13 179.07 179.12 178.92 179.63 178.21 L 180.21 177.41 C 180.72 176.70 180.56 175.71 179.85 175.20 C 179.15 174.69 178.16 174.85 177.64 175.55 Z M 177.15 176.25 L 176.51 177.00 C 175.95 177.66 176.03 178.66 176.69 179.22 C 177.35 179.79 178.35 179.71 178.92 179.05 L 179.55 178.30 C 180.12 177.64 180.04 176.64 179.37 176.08 C 178.71 175.51 177.71 175.59 177.15 176.25 Z M 176.62 176.90 L 175.91 177.58 C 175.29 178.19 175.28 179.19 175.88 179.81 C 176.49 180.43 177.49 180.44 178.11 179.84 L 178.81 179.15 C 179.44 178.54 179.45 177.54 178.84 176.92 C 178.23 176.30 177.24 176.29 176.62 176.90 Z M 176.04 177.47 L 175.26 178.08 C 174.57 178.62 174.45 179.60 174.98 180.29 C 175.51 180.97 176.50 181.10 177.19 180.56 L 177.97 179.95 C 178.66 179.42 178.78 178.43 178.25 177.75 C 177.72 177.06 176.73 176.94 176.04 177.47 Z M 175.43 177.97 L 174.56 178.48 C 173.81 178.91 173.56 179.87 173.99 180.62 C 174.43 181.37 175.39 181.62 176.14 181.19 L 177.01 180.68 C 177.76 180.24 178.01 179.28 177.58 178.54 C 177.14 177.79 176.18 177.53 175.43 177.97 Z M 174.78 178.37 L 173.83 178.74 C 173.03 179.06 172.63 179.96 172.94 180.77 C 173.26 181.57 174.16 181.97 174.97 181.66 L 175.92 181.29 C 176.72 180.97 177.12 180.07 176.81 179.26 C 176.49 178.46 175.59 178.06 174.78 178.37 Z M 174.06 178.67 L 173.08 178.89 C 172.24 179.08 171.71 179.92 171.89 180.76 C 172.08 181.60 172.92 182.13 173.76 181.94 L 174.74 181.73 C 175.58 181.54 176.11 180.70 175.93 179.86 C 175.74 179.02 174.90 178.49 174.06 178.67 Z M 173.28 178.86 L 172.26 178.95 C 171.40 179.03 170.77 179.79 170.85 180.65 C 170.92 181.51 171.68 182.14 172.54 182.06 L 173.56 181.97 C 174.42 181.90 175.05 181.14 174.98 180.28 C 174.90 179.42 174.14 178.79 173.28 178.86 Z M 172.45 178.95 L 171.44 178.92 C 170.57 178.89 169.85 179.57 169.83 180.43 C 169.80 181.30 170.48 182.02 171.34 182.04 L 172.36 182.07 C 173.22 182.10 173.94 181.42 173.96 180.55 C 173.99 179.69 173.31 178.97 172.45 178.95 Z M 171.62 178.93 L 170.64 178.79 C 169.79 178.67 169.00 179.26 168.87 180.11 C 168.75 180.96 169.34 181.76 170.19 181.88 L 171.16 182.02 C 172.02 182.15 172.81 181.56 172.93 180.71 C 173.06 179.85 172.47 179.06 171.62 178.93 Z M 170.84 178.83 L 169.88 178.56 C 169.05 178.33 168.19 178.81 167.96 179.64 C 167.72 180.47 168.21 181.34 169.04 181.57 L 170.00 181.84 C 170.82 182.07 171.69 181.59 171.92 180.76 C 172.15 179.93 171.67 179.07 170.84 178.83 Z M 170.10 178.64 L 169.19 178.24 C 168.41 177.88 167.48 178.23 167.13 179.02 C 166.78 179.80 167.13 180.73 167.91 181.08 L 168.82 181.49 C 169.60 181.84 170.53 181.49 170.88 180.71 C 171.24 179.92 170.89 179.00 170.10 178.64 Z M 169.40 178.35 L 168.58 177.82 C 167.85 177.35 166.89 177.56 166.42 178.29 C 165.95 179.01 166.16 179.98 166.89 180.44 L 167.71 180.97 C 168.43 181.44 169.40 181.23 169.87 180.50 C 170.33 179.78 170.12 178.81 169.40 178.35 Z M 168.74 177.94 L 167.98 177.30 C 167.32 176.74 166.34 176.83 165.78 177.48 C 165.22 178.14 165.31 179.13 165.97 179.68 L 166.73 180.32 C 167.39 180.88 168.37 180.80 168.93 180.14 C 169.48 179.48 169.40 178.49 168.74 177.94 Z M 168.09 177.40 L 167.40 176.70 C 166.80 176.08 165.81 176.06 165.20 176.67 C 164.58 177.27 164.57 178.26 165.17 178.87 L 165.86 179.58 C 166.46 180.20 167.45 180.21 168.06 179.61 C 168.68 179.01 168.69 178.02 168.09 177.40 Z M 167.47 176.77 L 166.85 176.04 C 166.29 175.38 165.31 175.30 164.65 175.86 C 163.99 176.42 163.91 177.41 164.47 178.06 L 165.10 178.80 C 165.66 179.45 166.64 179.53 167.30 178.97 C 167.95 178.41 168.03 177.43 167.47 176.77 Z M 166.90 176.09 L 166.28 175.31 C 165.76 174.63 164.78 174.50 164.09 175.03 C 163.41 175.56 163.29 176.54 163.82 177.22 L 164.43 178.01 C 164.96 178.69 165.94 178.81 166.62 178.28 C 167.30 177.76 167.42 176.78 166.90 176.09 Z M 166.31 175.34 L 165.71 174.52 C 165.20 173.82 164.23 173.67 163.53 174.18 C 162.83 174.68 162.68 175.66 163.19 176.36 L 163.79 177.18 C 164.30 177.88 165.27 178.03 165.97 177.52 C 166.67 177.02 166.82 176.04 166.31 175.34 Z M 165.72 174.54 L 165.13 173.69 C 164.63 172.99 163.66 172.82 162.95 173.32 C 162.25 173.81 162.08 174.79 162.58 175.49 L 163.17 176.34 C 163.67 177.04 164.64 177.21 165.35 176.71 C 166.05 176.22 166.22 175.24 165.72 174.54 Z M 165.13 173.70 L 164.99 173.49 C 164.49 172.78 163.52 172.61 162.81 173.11 C 162.11 173.60 161.93 174.57 162.43 175.28 L 162.57 175.49 C 163.07 176.19 164.04 176.36 164.75 175.87 C 165.45 175.38 165.62 174.40 165.13 173.70 Z"
      fill="black"
      fill-rule="nonzero" /><path d="M 157.79 134.95 L 157.59 136.05 C 157.43 136.97 158.04 137.86 158.96 138.02 C 159.89 138.19 160.77 137.58 160.94 136.65 L 161.14 135.55 C 161.30 134.63 160.69 133.74 159.77 133.58 C 158.84 133.41 157.96 134.03 157.79 134.95 Z M 157.58 136.05 L 157.38 137.14 C 157.21 138.07 157.83 138.96 158.76 139.13 C 159.70 139.30 160.59 138.68 160.76 137.75 L 160.95 136.66 C 161.12 135.72 160.50 134.83 159.57 134.66 C 158.64 134.49 157.75 135.11 157.58 136.05 Z M 157.36 137.13 L 157.17 138.21 C 157.00 139.15 157.63 140.05 158.57 140.22 C 159.51 140.39 160.41 139.76 160.58 138.82 L 160.77 137.75 C 160.94 136.81 160.32 135.91 159.38 135.74 C 158.43 135.57 157.53 136.19 157.36 137.13 Z M 157.15 138.20 L 156.97 139.25 C 156.80 140.20 157.43 141.11 158.38 141.28 C 159.33 141.45 160.24 140.82 160.41 139.87 L 160.60 138.82 C 160.77 137.87 160.14 136.96 159.18 136.79 C 158.23 136.62 157.33 137.25 157.15 138.20 Z M 156.95 139.25 L 156.77 140.25 C 156.60 141.21 157.24 142.13 158.20 142.30 C 159.16 142.47 160.07 141.83 160.25 140.88 L 160.43 139.87 C 160.60 138.91 159.96 137.99 159.00 137.82 C 158.04 137.65 157.12 138.29 156.95 139.25 Z M 156.75 140.25 L 156.58 141.21 C 156.41 142.18 157.06 143.10 158.02 143.28 C 158.99 143.45 159.92 142.80 160.09 141.84 L 160.26 140.88 C 160.43 139.91 159.79 138.98 158.82 138.81 C 157.85 138.64 156.93 139.28 156.75 140.25 Z M 156.57 141.21 L 156.41 142.11 C 156.23 143.09 156.89 144.02 157.86 144.20 C 158.84 144.37 159.77 143.72 159.95 142.74 L 160.11 141.84 C 160.28 140.86 159.63 139.93 158.65 139.75 C 157.67 139.58 156.74 140.23 156.57 141.21 Z M 156.39 142.11 L 156.24 142.95 C 156.07 143.94 156.73 144.88 157.72 145.05 C 158.70 145.23 159.64 144.57 159.82 143.58 L 159.96 142.74 C 160.14 141.75 159.48 140.81 158.49 140.64 C 157.50 140.47 156.56 141.13 156.39 142.11 Z M 156.23 142.95 L 156.06 143.92 C 155.89 144.92 156.55 145.86 157.55 146.04 C 158.54 146.21 159.49 145.54 159.66 144.55 L 159.83 143.58 C 160.00 142.58 159.34 141.64 158.34 141.46 C 157.35 141.29 156.40 141.96 156.23 142.95 Z M 156.05 143.93 L 155.85 145.12 C 155.68 146.12 156.35 147.07 157.35 147.24 C 158.35 147.41 159.30 146.74 159.47 145.74 L 159.67 144.54 C 159.84 143.54 159.17 142.60 158.17 142.43 C 157.17 142.26 156.22 142.93 156.05 143.93 Z M 155.85 145.13 L 155.68 146.13 C 155.52 147.13 156.20 148.08 157.20 148.24 C 158.19 148.41 159.14 147.73 159.30 146.73 L 159.47 145.73 C 159.63 144.73 158.96 143.79 157.96 143.62 C 156.96 143.46 156.01 144.13 155.85 145.13 Z M 155.68 146.14 L 155.54 147.01 C 155.38 148.01 156.06 148.95 157.06 149.11 C 158.06 149.27 159.00 148.59 159.16 147.59 L 159.30 146.72 C 159.47 145.72 158.79 144.78 157.79 144.62 C 156.79 144.46 155.84 145.14 155.68 146.14 Z M 155.54 147.01 L 155.41 147.82 C 155.25 148.82 155.93 149.76 156.93 149.92 C 157.94 150.08 158.88 149.40 159.04 148.40 L 159.17 147.59 C 159.32 146.59 158.64 145.65 157.64 145.49 C 156.64 145.33 155.70 146.01 155.54 147.01 Z M 155.41 147.82 L 155.27 148.72 C 155.11 149.72 155.79 150.66 156.79 150.82 C 157.79 150.98 158.73 150.30 158.89 149.30 L 159.04 148.40 C 159.20 147.40 158.52 146.46 157.52 146.30 C 156.52 146.14 155.57 146.82 155.41 147.82 Z M 155.27 148.71 L 155.11 149.68 C 154.95 150.68 155.63 151.62 156.63 151.79 C 157.63 151.95 158.57 151.27 158.73 150.27 L 158.89 149.30 C 159.05 148.30 158.37 147.36 157.37 147.20 C 156.37 147.04 155.43 147.71 155.27 148.71 Z M 155.11 149.68 L 154.95 150.67 C 154.79 151.67 155.46 152.62 156.46 152.78 C 157.47 152.94 158.41 152.26 158.57 151.26 L 158.73 150.27 C 158.90 149.27 158.22 148.33 157.22 148.16 C 156.22 148.00 155.27 148.68 155.11 149.68 Z M 154.95 150.68 L 154.78 151.70 C 154.62 152.70 155.30 153.64 156.30 153.80 C 157.30 153.96 158.25 153.28 158.41 152.28 L 158.57 151.26 C 158.73 150.26 158.05 149.32 157.05 149.16 C 156.05 149.00 155.11 149.68 154.95 150.68 Z M 154.78 151.70 L 154.63 152.68 C 154.47 153.68 155.15 154.62 156.15 154.78 C 157.16 154.94 158.10 154.25 158.25 153.25 L 158.41 152.28 C 158.57 151.28 157.88 150.34 156.88 150.18 C 155.88 150.02 154.94 150.70 154.78 151.70 Z M 154.63 152.68 L 154.48 153.65 C 154.32 154.65 155.01 155.59 156.01 155.74 C 157.01 155.90 157.95 155.21 158.11 154.21 L 158.26 153.24 C 158.41 152.24 157.72 151.30 156.72 151.15 C 155.72 151.00 154.78 151.68 154.63 152.68 Z M 154.48 153.65 L 154.33 154.64 C 154.18 155.64 154.87 156.58 155.87 156.73 C 156.87 156.88 157.81 156.19 157.96 155.19 L 158.11 154.20 C 158.26 153.20 157.57 152.27 156.57 152.11 C 155.56 151.96 154.63 152.65 154.48 153.65 Z M 154.33 154.65 L 154.18 155.66 C 154.03 156.66 154.72 157.60 155.73 157.74 C 156.73 157.89 157.66 157.20 157.81 156.19 L 157.96 155.18 C 158.11 154.18 157.41 153.25 156.41 153.10 C 155.41 152.95 154.48 153.65 154.33 154.65 Z M 154.18 155.67 L 154.03 156.68 C 153.89 157.69 154.58 158.62 155.59 158.76 C 156.59 158.91 157.52 158.21 157.66 157.21 L 157.81 156.19 C 157.96 155.19 157.26 154.25 156.26 154.11 C 155.25 153.97 154.32 154.66 154.18 155.67 Z M 154.03 156.69 L 153.89 157.67 C 153.75 158.68 154.45 159.60 155.46 159.74 C 156.46 159.88 157.39 159.18 157.53 158.18 L 157.66 157.20 C 157.80 156.20 157.10 155.27 156.10 155.13 C 155.10 154.99 154.17 155.69 154.03 156.69 Z M 153.90 157.68 L 153.76 158.68 C 153.63 159.68 154.33 160.60 155.33 160.74 C 156.33 160.87 157.25 160.17 157.39 159.17 L 157.52 158.17 C 157.66 157.17 156.96 156.25 155.96 156.11 C 154.95 155.98 154.03 156.68 153.90 157.68 Z M 153.76 158.69 L 153.63 159.69 C 153.51 160.69 154.21 161.61 155.21 161.74 C 156.21 161.87 157.13 161.16 157.26 160.16 L 157.39 159.16 C 157.52 158.16 156.81 157.24 155.81 157.11 C 154.81 156.98 153.89 157.69 153.76 158.69 Z M 153.64 159.70 L 153.51 160.70 C 153.39 161.70 154.10 162.61 155.11 162.73 C 156.11 162.85 157.02 162.14 157.14 161.14 L 157.26 160.14 C 157.38 159.14 156.67 158.23 155.67 158.11 C 154.67 157.99 153.76 158.70 153.64 159.70 Z M 153.52 160.71 L 153.40 161.72 C 153.29 162.72 154.01 163.62 155.01 163.73 C 156.01 163.85 156.91 163.13 157.02 162.13 L 157.14 161.12 C 157.25 160.12 156.53 159.22 155.53 159.11 C 154.53 159.00 153.63 159.72 153.52 160.71 Z M 153.40 161.73 L 153.30 162.75 C 153.19 163.74 153.92 164.64 154.92 164.74 C 155.92 164.85 156.81 164.12 156.91 163.12 L 157.02 162.11 C 157.12 161.11 156.40 160.22 155.40 160.12 C 154.40 160.01 153.51 160.74 153.40 161.73 Z M 153.30 162.76 L 153.20 163.75 C 153.10 164.75 153.83 165.64 154.83 165.74 C 155.82 165.84 156.71 165.11 156.81 164.11 L 156.91 163.11 C 157.01 162.12 156.28 161.23 155.29 161.13 C 154.29 161.03 153.40 161.76 153.30 162.76 Z M 153.21 163.76 L 153.11 164.74 C 153.01 165.73 153.74 166.62 154.73 166.72 C 155.73 166.81 156.61 166.09 156.71 165.09 L 156.81 164.11 C 156.91 163.11 156.18 162.23 155.18 162.13 C 154.19 162.03 153.30 162.76 153.21 163.76 Z M 153.12 164.74 L 153.02 165.71 C 152.92 166.70 153.64 167.59 154.63 167.69 C 155.62 167.79 156.51 167.06 156.61 166.07 L 156.71 165.10 C 156.81 164.11 156.08 163.22 155.09 163.12 C 154.10 163.02 153.22 163.74 153.12 164.74 Z M 153.02 165.70 L 152.92 166.71 C 152.81 167.69 153.53 168.58 154.51 168.69 C 155.50 168.79 156.39 168.08 156.49 167.09 L 156.60 166.08 C 156.71 165.10 155.99 164.21 155.00 164.10 C 154.02 164.00 153.13 164.71 153.02 165.70 Z M 152.92 166.70 L 152.81 167.71 C 152.71 168.69 153.41 169.57 154.40 169.68 C 155.38 169.79 156.27 169.08 156.37 168.10 L 156.48 167.09 C 156.59 166.11 155.88 165.23 154.90 165.12 C 153.92 165.01 153.03 165.72 152.92 166.70 Z M 152.82 167.71 L 152.71 168.70 C 152.61 169.68 153.31 170.56 154.29 170.67 C 155.27 170.77 156.15 170.07 156.26 169.09 L 156.37 168.10 C 156.47 167.12 155.77 166.24 154.79 166.13 C 153.81 166.02 152.93 166.73 152.82 167.71 Z M 152.72 168.71 L 152.62 169.69 C 152.52 170.67 153.22 171.54 154.20 171.64 C 155.17 171.74 156.05 171.04 156.15 170.06 L 156.25 169.08 C 156.35 168.10 155.64 167.23 154.67 167.13 C 153.69 167.03 152.82 167.74 152.72 168.71 Z M 152.62 169.71 L 152.53 170.72 C 152.44 171.69 153.15 172.55 154.12 172.64 C 155.10 172.73 155.96 172.02 156.05 171.05 L 156.14 170.04 C 156.23 169.07 155.52 168.21 154.55 168.12 C 153.58 168.03 152.71 168.74 152.62 169.71 Z M 152.54 170.74 L 152.45 171.76 C 152.37 172.73 153.09 173.57 154.06 173.65 C 155.03 173.73 155.88 173.02 155.96 172.05 L 156.04 171.03 C 156.12 170.06 155.40 169.21 154.43 169.13 C 153.47 169.05 152.62 169.77 152.54 170.74 Z M 152.46 171.77 L 152.38 172.77 C 152.31 173.73 153.03 174.57 153.99 174.65 C 154.95 174.72 155.79 174.00 155.87 173.04 L 155.95 172.04 C 156.02 171.08 155.30 170.24 154.34 170.16 C 153.38 170.09 152.54 170.81 152.46 171.77 Z M 152.40 172.77 L 152.32 173.74 C 152.24 174.70 152.96 175.53 153.91 175.61 C 154.87 175.68 155.71 174.97 155.78 174.01 L 155.86 173.04 C 155.93 172.08 155.22 171.25 154.26 171.17 C 153.31 171.10 152.47 171.81 152.40 172.77 Z M 152.33 173.73 L 152.25 174.68 C 152.17 175.63 152.87 176.46 153.82 176.54 C 154.77 176.62 155.61 175.92 155.69 174.97 L 155.77 174.03 C 155.85 173.07 155.15 172.24 154.20 172.16 C 153.25 172.08 152.41 172.78 152.33 173.73 Z M 152.26 174.66 L 152.17 175.59 C 152.08 176.54 152.78 177.37 153.72 177.46 C 154.66 177.55 155.50 176.86 155.59 175.92 L 155.68 174.99 C 155.77 174.04 155.08 173.20 154.13 173.11 C 153.19 173.02 152.35 173.72 152.26 174.66 Z M 152.18 175.58 L 152.09 176.55 C 151.99 177.48 152.68 178.32 153.61 178.41 C 154.55 178.51 155.39 177.82 155.48 176.89 L 155.58 175.92 C 155.67 174.99 154.99 174.15 154.05 174.06 C 153.11 173.96 152.28 174.65 152.18 175.58 Z M 152.10 176.55 L 151.99 177.58 C 151.90 178.51 152.58 179.34 153.51 179.43 C 154.44 179.53 155.27 178.85 155.37 177.92 L 155.47 176.89 C 155.57 175.95 154.89 175.12 153.96 175.03 C 153.02 174.94 152.19 175.61 152.10 176.55 Z M 152.00 177.58 L 151.90 178.64 C 151.81 179.57 152.49 180.39 153.41 180.48 C 154.34 180.57 155.16 179.90 155.25 178.97 L 155.36 177.91 C 155.45 176.99 154.77 176.16 153.85 176.07 C 152.92 175.98 152.10 176.66 152.00 177.58 Z M 151.91 178.65 L 151.82 179.62 C 151.73 180.54 152.41 181.36 153.33 181.45 C 154.25 181.53 155.07 180.86 155.15 179.93 L 155.25 178.96 C 155.33 178.04 154.66 177.22 153.73 177.14 C 152.81 177.05 152.00 177.73 151.91 178.65 Z M 151.82 179.63 L 151.73 180.64 C 151.65 181.56 152.32 182.37 153.24 182.46 C 154.16 182.54 154.97 181.86 155.05 180.95 L 155.15 179.93 C 155.23 179.01 154.55 178.20 153.64 178.12 C 152.72 178.03 151.91 178.71 151.82 179.63 Z M 151.74 180.65 L 151.65 181.68 C 151.57 182.59 152.24 183.40 153.16 183.48 C 154.07 183.56 154.87 182.88 154.95 181.97 L 155.05 180.94 C 155.13 180.03 154.45 179.22 153.54 179.14 C 152.63 179.06 151.82 179.74 151.74 180.65 Z M 151.66 181.68 L 151.57 182.70 C 151.49 183.61 152.17 184.41 153.07 184.48 C 153.98 184.56 154.78 183.89 154.86 182.98 L 154.95 181.97 C 155.03 181.06 154.35 180.26 153.44 180.18 C 152.53 180.10 151.73 180.78 151.66 181.68 Z M 151.58 182.70 L 151.50 183.69 C 151.42 184.59 152.09 185.39 153.00 185.46 C 153.90 185.54 154.70 184.86 154.77 183.96 L 154.85 182.97 C 154.93 182.07 154.25 181.28 153.35 181.20 C 152.45 181.13 151.65 181.80 151.58 182.70 Z M 151.51 183.70 L 151.42 184.80 C 151.35 185.70 152.02 186.48 152.92 186.55 C 153.82 186.62 154.60 185.95 154.67 185.05 L 154.76 183.95 C 154.83 183.05 154.16 182.27 153.26 182.20 C 152.36 182.13 151.58 182.80 151.51 183.70 Z M 151.44 184.81 L 151.36 185.82 C 151.30 186.71 151.96 187.48 152.85 187.55 C 153.74 187.61 154.52 186.95 154.58 186.06 L 154.66 185.04 C 154.72 184.16 154.06 183.38 153.17 183.32 C 152.28 183.25 151.50 183.92 151.44 184.81 Z M 151.38 185.82 L 151.31 186.78 C 151.25 187.66 151.91 188.42 152.79 188.48 C 153.67 188.54 154.44 187.88 154.50 187.00 L 154.57 186.05 C 154.63 185.17 153.97 184.41 153.09 184.34 C 152.21 184.28 151.44 184.94 151.38 185.82 Z M 151.33 186.78 L 151.26 187.70 C 151.20 188.57 151.86 189.33 152.73 189.39 C 153.60 189.45 154.36 188.79 154.42 187.92 L 154.48 187.00 C 154.54 186.13 153.88 185.37 153.01 185.31 C 152.14 185.25 151.39 185.91 151.33 186.78 Z M 151.27 187.70 L 151.27 187.81 C 151.21 188.68 151.86 189.43 152.72 189.49 C 153.59 189.55 154.34 188.89 154.40 188.03 L 154.41 187.92 C 154.47 187.05 153.81 186.30 152.95 186.24 C 152.08 186.18 151.33 186.83 151.27 187.70 Z"
      fill="black"
      fill-rule="nonzero" /></svg>