<svg xmlns="http://www.w3.org/2000/svg" width="300" height="300" viewBox="0 0 300 300">
<path d="M 144.65 97.12 L 145.38 97.72 C 146.16 98.36 147.30 98.25 147.94 97.47 C 148.57 96.70 148.46 95.56 147.69 94.92 L 146.96 94.32 C 146.18 93.68 145.04 93.79 144.40 94.56 C 143.77 95.34 143.88 96.48 144.65 97.12 Z M 145.42 97.78 L 146.20 98.37 C 147.00 98.99 148.15 98.83 148.77 98.03 C 149.38 97.23 149.23 96.08 148.43 95.46 L 147.65 94.86 C 146.85 94.25 145.70 94.40 145.08 95.20 C 144.46 96.01 144.62 97.16 145.42 97.78 Z M 146.28 98.45 L 147.15 99.03 C 148.00 99.60 149.15 99.38 149.72 98.53 C 150.29 97.68 150.06 96.53 149.21 95.96 L 148.34 95.38 C 147.49 94.81 146.34 95.03 145.77 95.88 C 145.20 96.73 145.43 97.88 146.28 98.45 Z M 147.26 99.11 L 148.08 99.57 C 148.97 100.08 150.10 99.77 150.61 98.88 C 151.12 97.99 150.81 96.86 149.92 96.35 L 149.10 95.88 C 148.21 95.38 147.07 95.69 146.57 96.58 C 146.06 97.47 146.37 98.60 147.26 99.11 Z M 148.18 99.61 L 149.01 100.02 C 149.92 100.47 151.02 100.10 151.47 99.20 C 151.93 98.29 151.56 97.19 150.65 96.73 L 149.81 96.32 C 148.91 95.87 147.80 96.24 147.35 97.14 C 146.90 98.05 147.27 99.15 148.18 99.61 Z M 149.09 100.03 L 150.01 100.44 C 150.92 100.85 151.99 100.44 152.40 99.53 C 152.81 98.62 152.40 97.55 151.49 97.14 L 150.57 96.73 C 149.66 96.32 148.59 96.73 148.18 97.64 C 147.77 98.55 148.18 99.62 149.09 100.03 Z M 150.07 100.43 L 151.06 100.84 C 151.97 101.22 153.01 100.79 153.38 99.88 C 153.76 98.97 153.33 97.93 152.42 97.55 L 151.43 97.14 C 150.52 96.77 149.48 97.20 149.10 98.11 C 148.72 99.02 149.16 100.06 150.07 100.43 Z M 151.10 100.83 L 152.11 101.23 C 153.01 101.58 154.03 101.13 154.38 100.23 C 154.73 99.32 154.29 98.30 153.38 97.95 L 152.37 97.56 C 151.47 97.21 150.45 97.66 150.10 98.56 C 149.75 99.46 150.20 100.48 151.10 100.83 Z M 152.14 101.21 L 153.10 101.57 C 154.00 101.91 155.00 101.46 155.33 100.56 C 155.67 99.66 155.22 98.66 154.32 98.33 L 153.36 97.97 C 152.46 97.63 151.46 98.08 151.12 98.98 C 150.79 99.88 151.24 100.88 152.14 101.21 Z M 153.11 101.56 L 154.09 101.92 C 154.98 102.25 155.96 101.80 156.29 100.91 C 156.62 100.02 156.17 99.03 155.28 98.71 L 154.31 98.34 C 153.42 98.01 152.43 98.47 152.10 99.36 C 151.77 100.24 152.23 101.23 153.11 101.56 Z M 154.09 101.90 L 155.05 102.26 C 155.92 102.58 156.90 102.14 157.23 101.26 C 157.55 100.39 157.11 99.41 156.23 99.08 L 155.28 98.72 C 154.40 98.40 153.42 98.84 153.10 99.72 C 152.77 100.60 153.21 101.57 154.09 101.90 Z M 155.04 102.23 L 155.94 102.58 C 156.80 102.91 157.77 102.48 158.11 101.62 C 158.44 100.75 158.01 99.79 157.14 99.45 L 156.24 99.11 C 155.38 98.77 154.41 99.20 154.07 100.07 C 153.74 100.93 154.17 101.90 155.04 102.23 Z M 155.91 102.55 L 156.86 102.94 C 157.70 103.28 158.67 102.88 159.02 102.03 C 159.37 101.18 158.96 100.21 158.11 99.87 L 157.17 99.48 C 156.32 99.13 155.35 99.54 155.01 100.39 C 154.66 101.24 155.07 102.21 155.91 102.55 Z M 156.81 102.91 L 157.79 103.35 C 158.62 103.72 159.60 103.35 159.97 102.52 C 160.35 101.69 159.98 100.71 159.15 100.34 L 158.16 99.90 C 157.33 99.52 156.35 99.89 155.98 100.73 C 155.61 101.56 155.98 102.53 156.81 102.91 Z M 157.75 103.32 L 158.61 103.75 C 159.43 104.15 160.41 103.81 160.81 102.99 C 161.21 102.18 160.87 101.19 160.06 100.79 L 159.19 100.37 C 158.38 99.97 157.39 100.31 156.99 101.12 C 156.59 101.94 156.93 102.92 157.75 103.32 Z M 158.58 103.73 L 159.38 104.14 C 160.18 104.55 161.17 104.24 161.59 103.44 C 162.01 102.63 161.69 101.64 160.89 101.22 L 160.09 100.81 C 159.28 100.40 158.29 100.71 157.88 101.51 C 157.46 102.32 157.78 103.31 158.58 103.73 Z M 159.37 104.13 L 159.50 104.20 C 160.30 104.62 161.29 104.31 161.71 103.51 C 162.13 102.71 161.82 101.72 161.02 101.30 L 160.89 101.23 C 160.09 100.81 159.10 101.12 158.68 101.92 C 158.26 102.72 158.57 103.71 159.37 104.13 Z"
      fill="black"
      fill-rule="nonzero" /><path d="M 136.52 111.99 L 137.44 111.99 C 138.44 111.99 139.25 111.17 139.25 110.17 C 139.25 109.17 138.43 108.36 137.43 108.36 L 136.52 108.36 C 135.52 108.37 134.70 109.18 134.71 110.18 C 134.71 111.18 135.52 111.99 136.52 111.99 Z M 137.46 111.97 L 138.39 111.95 C 139.38 111.94 140.17 111.12 140.16 110.13 C 140.14 109.14 139.33 108.35 138.34 108.37 L 137.41 108.38 C 136.42 108.40 135.63 109.21 135.64 110.20 C 135.66 111.19 136.47 111.98 137.46 111.97 Z M 138.44 111.93 L 139.41 111.89 C 140.39 111.85 141.15 111.03 141.11 110.06 C 141.08 109.08 140.25 108.32 139.28 108.35 L 138.30 108.39 C 137.32 108.43 136.56 109.25 136.60 110.23 C 136.64 111.21 137.46 111.97 138.44 111.93 Z M 139.47 111.87 L 140.51 111.79 C 141.47 111.73 142.20 110.89 142.13 109.93 C 142.06 108.96 141.23 108.24 140.26 108.31 L 139.22 108.38 C 138.26 108.45 137.53 109.28 137.60 110.25 C 137.67 111.21 138.50 111.94 139.47 111.87 Z M 140.57 111.77 L 141.69 111.65 C 142.64 111.55 143.33 110.69 143.22 109.75 C 143.12 108.80 142.27 108.11 141.32 108.21 L 140.20 108.33 C 139.25 108.43 138.57 109.29 138.67 110.23 C 138.77 111.18 139.62 111.87 140.57 111.77 Z M 141.74 111.64 L 142.66 111.51 C 143.60 111.38 144.26 110.51 144.13 109.56 C 144.00 108.62 143.12 107.96 142.18 108.09 L 141.27 108.22 C 140.32 108.35 139.67 109.22 139.80 110.17 C 139.93 111.11 140.80 111.77 141.74 111.64 Z M 142.70 111.52 L 143.66 111.37 C 144.61 111.21 145.25 110.32 145.10 109.37 C 144.94 108.42 144.05 107.78 143.10 107.93 L 142.14 108.08 C 141.19 108.24 140.55 109.13 140.70 110.08 C 140.85 111.03 141.75 111.67 142.70 111.52 Z M 143.69 111.38 L 144.68 111.20 C 145.63 111.03 146.27 110.12 146.10 109.16 C 145.93 108.21 145.02 107.57 144.06 107.74 L 143.07 107.92 C 142.11 108.09 141.48 109.00 141.65 109.96 C 141.82 110.91 142.73 111.55 143.69 111.38 Z M 144.70 111.21 L 145.71 111.02 C 146.68 110.83 147.31 109.90 147.12 108.94 C 146.94 107.98 146.01 107.35 145.05 107.54 L 144.04 107.73 C 143.08 107.91 142.45 108.84 142.63 109.80 C 142.81 110.77 143.74 111.40 144.70 111.21 Z M 145.73 111.03 L 146.75 110.82 C 147.72 110.63 148.35 109.69 148.15 108.72 C 147.95 107.75 147.01 107.12 146.04 107.32 L 145.03 107.52 C 144.06 107.72 143.43 108.66 143.63 109.63 C 143.82 110.60 144.77 111.22 145.73 111.03 Z M 146.77 110.84 L 147.77 110.63 C 148.75 110.42 149.37 109.47 149.17 108.49 C 148.97 107.52 148.01 106.89 147.04 107.10 L 146.03 107.31 C 145.05 107.51 144.43 108.47 144.63 109.44 C 144.84 110.42 145.79 111.04 146.77 110.84 Z M 147.78 110.63 L 148.83 110.41 C 149.81 110.20 150.44 109.24 150.23 108.26 C 150.02 107.28 149.05 106.65 148.07 106.86 L 147.02 107.09 C 146.04 107.30 145.42 108.26 145.63 109.24 C 145.84 110.22 146.80 110.84 147.78 110.63 Z M 148.84 110.40 L 149.93 110.17 C 150.91 109.95 151.53 108.99 151.32 108.01 C 151.10 107.04 150.14 106.42 149.16 106.63 L 148.07 106.87 C 147.09 107.08 146.47 108.04 146.68 109.02 C 146.90 110.00 147.86 110.62 148.84 110.40 Z M 149.93 110.15 L 150.98 109.93 C 151.95 109.71 152.56 108.75 152.35 107.78 C 152.13 106.81 151.17 106.20 150.20 106.41 L 149.16 106.64 C 148.19 106.85 147.58 107.81 147.79 108.78 C 148.00 109.75 148.96 110.37 149.93 110.15 Z M 150.97 109.91 L 151.96 109.70 C 152.92 109.49 153.53 108.53 153.32 107.57 C 153.11 106.61 152.15 106.00 151.19 106.21 L 150.21 106.42 C 149.24 106.64 148.63 107.59 148.85 108.55 C 149.06 109.52 150.01 110.13 150.97 109.91 Z M 151.95 109.69 L 152.87 109.49 C 153.83 109.28 154.43 108.33 154.22 107.37 C 154.01 106.42 153.07 105.81 152.11 106.02 L 151.19 106.22 C 150.24 106.43 149.63 107.37 149.84 108.33 C 150.05 109.29 150.99 109.90 151.95 109.69 Z M 152.86 109.48 L 153.70 109.30 C 154.65 109.09 155.26 108.16 155.05 107.20 C 154.85 106.25 153.91 105.64 152.96 105.85 L 152.12 106.03 C 151.17 106.23 150.56 107.17 150.77 108.12 C 150.97 109.07 151.91 109.68 152.86 109.48 Z M 153.68 109.29 L 154.65 109.09 C 155.59 108.89 156.20 107.97 156.01 107.02 C 155.81 106.07 154.89 105.46 153.94 105.66 L 152.98 105.86 C 152.03 106.05 151.42 106.98 151.62 107.93 C 151.81 108.87 152.74 109.48 153.68 109.29 Z M 154.63 109.07 L 155.58 108.89 C 156.52 108.70 157.13 107.79 156.95 106.85 C 156.76 105.91 155.85 105.30 154.91 105.48 L 153.96 105.67 C 153.02 105.86 152.41 106.77 152.59 107.71 C 152.78 108.65 153.69 109.26 154.63 109.07 Z M 155.58 108.87 L 156.51 108.68 C 157.44 108.50 158.04 107.59 157.86 106.66 C 157.67 105.73 156.77 105.13 155.84 105.32 L 154.91 105.50 C 153.98 105.69 153.37 106.59 153.56 107.52 C 153.75 108.45 154.65 109.05 155.58 108.87 Z M 156.52 108.67 L 157.50 108.46 C 158.42 108.27 159.02 107.37 158.82 106.45 C 158.63 105.53 157.73 104.94 156.81 105.13 L 155.82 105.33 C 154.90 105.53 154.31 106.43 154.51 107.35 C 154.70 108.27 155.60 108.86 156.52 108.67 Z M 157.52 108.44 L 158.47 108.23 C 159.38 108.03 159.95 107.13 159.75 106.22 C 159.55 105.31 158.65 104.74 157.74 104.94 L 156.79 105.15 C 155.88 105.35 155.31 106.25 155.51 107.16 C 155.71 108.07 156.61 108.64 157.52 108.44 Z M 158.48 108.22 L 159.41 108.01 C 160.32 107.80 160.88 106.90 160.67 105.99 C 160.47 105.09 159.56 104.52 158.66 104.73 L 157.73 104.95 C 156.82 105.16 156.26 106.06 156.47 106.96 C 156.67 107.87 157.58 108.43 158.48 108.22 Z M 159.42 108.00 L 160.41 107.77 C 161.31 107.56 161.86 106.66 161.65 105.76 C 161.44 104.86 160.54 104.30 159.64 104.51 L 158.65 104.74 C 157.75 104.95 157.19 105.85 157.41 106.75 C 157.62 107.65 158.52 108.21 159.42 108.00 Z M 160.41 107.76 L 161.42 107.52 C 162.32 107.31 162.87 106.41 162.66 105.52 C 162.45 104.62 161.55 104.06 160.66 104.28 L 159.64 104.52 C 158.74 104.73 158.19 105.62 158.40 106.52 C 158.61 107.42 159.51 107.97 160.41 107.76 Z M 161.42 107.52 L 162.43 107.28 C 163.33 107.07 163.88 106.18 163.67 105.28 C 163.46 104.39 162.57 103.83 161.67 104.04 L 160.66 104.28 C 159.77 104.49 159.21 105.38 159.42 106.28 C 159.63 107.17 160.52 107.73 161.42 107.52 Z M 162.42 107.28 L 163.44 107.04 C 164.33 106.84 164.89 105.95 164.69 105.06 C 164.48 104.17 163.59 103.61 162.70 103.81 L 161.68 104.05 C 160.79 104.25 160.23 105.14 160.44 106.03 C 160.64 106.92 161.53 107.48 162.42 107.28 Z M 163.43 107.04 L 164.50 106.80 C 165.39 106.61 165.95 105.72 165.75 104.83 C 165.55 103.94 164.67 103.38 163.78 103.58 L 162.71 103.82 C 161.82 104.01 161.26 104.90 161.46 105.79 C 161.66 106.68 162.54 107.24 163.43 107.04 Z M 164.48 106.80 L 165.49 106.59 C 166.38 106.40 166.95 105.52 166.76 104.63 C 166.57 103.74 165.69 103.17 164.80 103.36 L 163.79 103.58 C 162.90 103.77 162.34 104.65 162.53 105.54 C 162.72 106.43 163.59 106.99 164.48 106.80 Z M 165.48 106.59 L 166.43 106.39 C 167.32 106.20 167.89 105.33 167.71 104.44 C 167.52 103.55 166.65 102.98 165.77 103.17 L 164.81 103.37 C 163.92 103.55 163.35 104.42 163.54 105.31 C 163.72 106.20 164.59 106.77 165.48 106.59 Z M 166.42 106.39 L 167.33 106.20 C 168.22 106.02 168.79 105.16 168.61 104.27 C 168.43 103.38 167.57 102.81 166.68 102.99 L 165.78 103.17 C 164.89 103.35 164.31 104.21 164.49 105.10 C 164.67 105.99 165.54 106.56 166.42 106.39 Z M 167.32 106.20 L 168.29 106.01 C 169.17 105.84 169.75 104.98 169.58 104.09 C 169.40 103.20 168.54 102.62 167.65 102.80 L 166.69 102.99 C 165.80 103.16 165.22 104.02 165.40 104.91 C 165.57 105.80 166.43 106.38 167.32 106.20 Z M 168.28 106.01 L 169.28 105.82 C 170.17 105.65 170.75 104.79 170.58 103.90 C 170.41 103.02 169.56 102.43 168.67 102.60 L 167.66 102.80 C 166.77 102.97 166.19 103.83 166.36 104.71 C 166.53 105.60 167.39 106.18 168.28 106.01 Z M 169.28 105.82 L 170.25 105.64 C 171.14 105.47 171.72 104.62 171.55 103.73 C 171.39 102.84 170.53 102.25 169.64 102.42 L 168.67 102.60 C 167.79 102.77 167.20 103.63 167.37 104.52 C 167.53 105.40 168.39 105.99 169.28 105.82 Z M 170.24 105.64 L 171.19 105.46 C 172.08 105.30 172.67 104.44 172.50 103.56 C 172.34 102.67 171.48 102.08 170.59 102.24 L 169.65 102.42 C 168.76 102.59 168.17 103.44 168.34 104.33 C 168.50 105.22 169.36 105.81 170.24 105.64 Z M 171.19 105.46 L 171.43 105.42 C 172.32 105.25 172.91 104.40 172.74 103.51 C 172.58 102.62 171.73 102.04 170.84 102.20 L 170.59 102.24 C 169.71 102.41 169.12 103.26 169.28 104.15 C 169.45 105.04 170.30 105.63 171.19 105.46 Z"
      fill="black"
      fill-rule="nonzero" /><path d="M 138.91 116.25 L 138.75 117.22 C 138.58 118.17 139.22 119.07 140.17 119.23 C 141.12 119.40 142.02 118.76 142.18 117.81 L 142.35 116.84 C 142.51 115.89 141.88 114.99 140.93 114.83 C 139.98 114.66 139.08 115.30 138.91 116.25 Z M 138.75 117.23 L 138.58 118.20 C 138.42 119.15 139.06 120.05 140.01 120.21 C 140.96 120.37 141.86 119.73 142.02 118.78 L 142.18 117.81 C 142.34 116.86 141.70 115.96 140.75 115.80 C 139.81 115.64 138.91 116.28 138.75 117.23 Z M 138.58 118.22 L 138.42 119.21 C 138.27 120.16 138.91 121.05 139.86 121.20 C 140.81 121.36 141.71 120.71 141.86 119.76 L 142.02 118.77 C 142.18 117.82 141.53 116.93 140.58 116.77 C 139.63 116.62 138.73 117.26 138.58 118.22 Z M 138.42 119.22 L 138.26 120.23 C 138.12 121.18 138.77 122.07 139.72 122.21 C 140.68 122.36 141.56 121.71 141.71 120.75 L 141.86 119.75 C 142.01 118.80 141.35 117.91 140.40 117.76 C 139.45 117.62 138.56 118.27 138.42 119.22 Z M 138.26 120.25 L 138.13 121.18 C 137.99 122.14 138.66 123.02 139.61 123.15 C 140.56 123.29 141.45 122.62 141.58 121.67 L 141.71 120.73 C 141.85 119.78 141.18 118.90 140.23 118.76 C 139.28 118.63 138.39 119.29 138.26 120.25 Z M 138.12 121.20 L 138.00 122.17 C 137.88 123.12 138.55 124.00 139.51 124.12 C 140.47 124.24 141.34 123.57 141.46 122.61 L 141.59 121.65 C 141.71 120.69 141.03 119.82 140.08 119.69 C 139.12 119.57 138.25 120.25 138.12 121.20 Z M 137.99 122.19 L 137.88 123.19 C 137.77 124.15 138.46 125.02 139.42 125.13 C 140.38 125.24 141.25 124.55 141.35 123.59 L 141.47 122.59 C 141.58 121.63 140.89 120.76 139.93 120.65 C 138.97 120.54 138.10 121.23 137.99 122.19 Z M 137.88 123.22 L 137.77 124.26 C 137.68 125.23 138.38 126.08 139.35 126.18 C 140.31 126.27 141.16 125.57 141.26 124.60 L 141.36 123.56 C 141.45 122.60 140.75 121.74 139.79 121.65 C 138.83 121.55 137.97 122.26 137.88 123.22 Z M 137.77 124.29 L 137.69 125.22 C 137.61 126.19 138.33 127.03 139.30 127.11 C 140.26 127.19 141.11 126.47 141.19 125.51 L 141.26 124.58 C 141.34 123.61 140.62 122.77 139.66 122.69 C 138.69 122.61 137.85 123.33 137.77 124.29 Z M 137.69 125.25 L 137.63 126.13 C 137.56 127.10 138.29 127.94 139.26 128.00 C 140.23 128.07 141.07 127.34 141.13 126.37 L 141.19 125.49 C 141.26 124.52 140.53 123.68 139.56 123.61 C 138.59 123.55 137.75 124.28 137.69 125.25 Z M 137.62 126.15 L 137.57 127.09 C 137.51 128.06 138.26 128.89 139.23 128.95 C 140.20 129.00 141.03 128.26 141.08 127.29 L 141.14 126.35 C 141.19 125.38 140.45 124.55 139.48 124.49 C 138.51 124.44 137.67 125.18 137.62 126.15 Z M 137.56 127.11 L 137.52 128.12 C 137.48 129.09 138.23 129.92 139.20 129.96 C 140.18 130.00 141.00 129.25 141.05 128.27 L 141.09 127.27 C 141.13 126.29 140.38 125.47 139.40 125.43 C 138.43 125.38 137.61 126.14 137.56 127.11 Z M 137.51 128.14 L 137.48 129.22 C 137.44 130.19 138.21 131.01 139.19 131.04 C 140.16 131.08 140.98 130.31 141.02 129.33 L 141.05 128.25 C 141.08 127.28 140.32 126.46 139.34 126.42 C 138.36 126.39 137.55 127.16 137.51 128.14 Z M 137.47 129.23 L 137.44 130.40 C 137.42 131.38 138.20 132.20 139.18 132.22 C 140.16 132.24 140.97 131.47 140.99 130.49 L 141.02 129.32 C 141.04 128.34 140.27 127.52 139.29 127.50 C 138.31 127.48 137.50 128.25 137.47 129.23 Z M 137.44 130.42 L 137.42 131.37 C 137.41 132.35 138.19 133.16 139.17 133.18 C 140.16 133.20 140.96 132.41 140.98 131.43 L 141.00 130.48 C 141.01 129.49 140.23 128.68 139.25 128.67 C 138.27 128.65 137.46 129.44 137.44 130.42 Z M 137.42 131.38 L 137.41 132.37 C 137.40 133.35 138.19 134.16 139.17 134.17 C 140.15 134.18 140.96 133.39 140.97 132.41 L 140.98 131.42 C 141.00 130.44 140.21 129.63 139.22 129.62 C 138.24 129.61 137.43 130.40 137.42 131.38 Z M 137.41 132.37 L 137.40 133.39 C 137.39 134.38 138.18 135.18 139.17 135.19 C 140.15 135.20 140.96 134.40 140.97 133.42 L 140.97 132.40 C 140.98 131.42 140.19 130.61 139.21 130.60 C 138.22 130.60 137.42 131.39 137.41 132.37 Z M 137.40 133.40 L 137.39 134.43 C 137.39 135.41 138.18 136.22 139.17 136.22 C 140.16 136.23 140.96 135.43 140.96 134.45 L 140.97 133.41 C 140.97 132.43 140.18 131.62 139.19 131.62 C 138.21 131.61 137.40 132.41 137.40 133.40 Z M 137.39 134.43 L 137.39 135.46 C 137.38 136.45 138.18 137.26 139.17 137.26 C 140.16 137.26 140.96 136.46 140.96 135.47 L 140.97 134.44 C 140.97 133.45 140.17 132.65 139.18 132.65 C 138.20 132.64 137.39 133.44 137.39 134.43 Z M 137.38 135.47 L 137.38 136.49 C 137.38 137.48 138.18 138.28 139.17 138.28 C 140.16 138.28 140.96 137.48 140.97 136.49 L 140.97 135.47 C 140.97 134.48 140.17 133.68 139.18 133.68 C 138.19 133.68 137.38 134.48 137.38 135.47 Z M 137.38 136.49 L 137.38 137.48 C 137.38 138.47 138.18 139.27 139.17 139.28 C 140.16 139.28 140.97 138.47 140.97 137.48 L 140.97 136.49 C 140.97 135.50 140.17 134.69 139.17 134.69 C 138.18 134.69 137.38 135.50 137.38 136.49 Z M 137.38 137.48 L 137.38 138.51 C 137.38 139.50 138.18 140.30 139.17 140.30 C 140.17 140.30 140.97 139.50 140.97 138.51 L 140.97 137.48 C 140.97 136.49 140.17 135.68 139.17 135.68 C 138.18 135.68 137.38 136.49 137.38 137.48 Z M 137.38 138.51 L 137.38 139.60 C 137.38 140.59 138.18 141.40 139.17 141.40 C 140.17 141.40 140.97 140.59 140.97 139.60 L 140.97 138.51 C 140.97 137.51 140.17 136.71 139.17 136.71 C 138.18 136.71 137.38 137.51 137.38 138.51 Z M 137.38 139.60 L 137.38 140.63 C 137.38 141.63 138.18 142.43 139.17 142.43 C 140.17 142.43 140.97 141.63 140.97 140.63 L 140.97 139.60 C 140.97 138.61 140.17 137.80 139.17 137.80 C 138.18 137.80 137.38 138.61 137.38 139.60 Z M 137.38 140.63 L 137.38 141.62 C 137.38 142.62 138.18 143.42 139.17 143.42 C 140.17 143.42 140.97 142.62 140.97 141.62 L 140.97 140.63 C 140.97 139.64 140.17 138.84 139.17 138.84 C 138.18 138.84 137.38 139.64 137.38 140.63 Z M 137.38 141.62 L 137.38 142.58 C 137.38 143.57 138.18 144.38 139.17 144.38 C 140.17 144.38 140.97 143.57 140.97 142.58 L 140.97 141.62 C 140.97 140.63 140.17 139.82 139.17 139.82 C 138.18 139.82 137.38 140.63 137.38 141.62 Z M 137.38 142.58 L 137.38 143.51 C 137.38 144.51 138.18 145.31 139.17 145.31 C 140.17 145.31 140.97 144.51 140.97 143.51 L 140.97 142.58 C 140.97 141.59 140.17 140.78 139.17 140.78 C 138.18 140.78 137.38 141.59 137.38 142.58 Z M 137.38 143.51 L 137.38 144.45 C 137.38 145.44 138.18 146.25 139.17 146.25 C 140.17 146.25 140.97 145.44 140.97 144.45 L 140.97 143.51 C 140.97 142.52 140.17 141.72 139.17 141.72 C 138.18 141.72 137.38 142.52 137.38 143.51 Z M 137.38 144.45 L 137.38 145.43 C 137.38 146.42 138.18 147.22 139.17 147.22 C 140.17 147.22 140.97 146.42 140.97 145.43 L 140.97 144.45 C 140.97 143.46 140.17 142.65 139.17 142.65 C 138.18 142.65 137.38 143.46 137.38 144.45 Z M 137.38 145.43 L 137.38 146.41 C 137.38 147.40 138.18 148.21 139.17 148.21 C 140.16 148.21 140.97 147.40 140.97 146.41 L 140.97 145.43 C 140.97 144.44 140.16 143.63 139.17 143.63 C 138.18 143.63 137.38 144.44 137.38 145.43 Z M 137.38 146.41 L 137.38 147.40 C 137.38 148.39 138.18 149.20 139.17 149.20 C 140.16 149.20 140.96 148.39 140.96 147.40 L 140.96 146.41 C 140.96 145.42 140.16 144.62 139.17 144.62 C 138.18 144.62 137.38 145.42 137.38 146.41 Z M 137.38 147.40 L 137.38 148.41 C 137.38 149.40 138.19 150.20 139.17 150.20 C 140.16 150.20 140.96 149.40 140.96 148.41 L 140.96 147.40 C 140.96 146.42 140.16 145.62 139.17 145.62 C 138.19 145.62 137.38 146.42 137.38 147.40 Z M 137.39 148.41 L 137.39 149.43 C 137.39 150.42 138.19 151.21 139.17 151.21 C 140.16 151.21 140.96 150.42 140.96 149.43 L 140.96 148.41 C 140.96 147.42 140.16 146.62 139.17 146.62 C 138.19 146.62 137.39 147.42 137.39 148.41 Z M 137.39 149.43 L 137.39 150.47 C 137.39 151.45 138.19 152.25 139.17 152.25 C 140.16 152.25 140.96 151.45 140.96 150.47 L 140.96 149.43 C 140.96 148.44 140.16 147.65 139.17 147.65 C 138.19 147.65 137.39 148.44 137.39 149.43 Z M 137.40 150.47 L 137.40 151.54 C 137.40 152.52 138.19 153.32 139.17 153.32 C 140.15 153.32 140.95 152.52 140.95 151.54 L 140.95 150.47 C 140.95 149.49 140.15 148.69 139.17 148.69 C 138.19 148.69 137.40 149.49 137.40 150.47 Z M 137.40 151.54 L 137.40 152.60 C 137.40 153.58 138.20 154.37 139.17 154.37 C 140.15 154.37 140.94 153.58 140.94 152.60 L 140.94 151.54 C 140.94 150.56 140.15 149.77 139.17 149.77 C 138.20 149.77 137.40 150.56 137.40 151.54 Z M 137.41 152.60 L 137.41 153.64 C 137.41 154.61 138.20 155.40 139.17 155.40 C 140.15 155.40 140.93 154.61 140.93 153.64 L 140.93 152.60 C 140.93 151.63 140.15 150.84 139.17 150.84 C 138.20 150.84 137.41 151.63 137.41 152.60 Z M 137.42 153.64 L 137.42 154.62 C 137.42 155.59 138.21 156.38 139.17 156.38 C 140.14 156.38 140.93 155.59 140.93 154.62 L 140.93 153.64 C 140.93 152.67 140.14 151.88 139.17 151.88 C 138.21 151.88 137.42 152.67 137.42 153.64 Z M 137.43 154.62 L 137.43 155.54 C 137.43 156.51 138.21 157.29 139.17 157.29 C 140.14 157.29 140.92 156.51 140.92 155.54 L 140.92 154.62 C 140.92 153.66 140.14 152.88 139.17 152.88 C 138.21 152.88 137.43 153.66 137.43 154.62 Z M 137.44 155.54 L 137.44 156.56 C 137.44 157.52 138.22 158.30 139.17 158.30 C 140.13 158.30 140.91 157.52 140.91 156.56 L 140.91 155.54 C 140.91 154.58 140.13 153.81 139.17 153.81 C 138.22 153.81 137.44 154.58 137.44 155.54 Z M 137.45 156.56 L 137.45 157.67 C 137.45 158.62 138.22 159.39 139.17 159.39 C 140.13 159.39 140.90 158.62 140.90 157.67 L 140.90 156.56 C 140.90 155.61 140.13 154.84 139.17 154.84 C 138.22 154.84 137.45 155.61 137.45 156.56 Z M 137.46 157.67 L 137.46 158.62 C 137.46 159.56 138.23 160.33 139.17 160.33 C 140.12 160.33 140.88 159.56 140.88 158.62 L 140.88 157.67 C 140.88 156.72 140.12 155.96 139.17 155.96 C 138.23 155.96 137.46 156.72 137.46 157.67 Z M 137.47 158.62 L 137.47 159.49 C 137.47 160.43 138.23 161.19 139.17 161.19 C 140.11 161.19 140.87 160.43 140.87 159.49 L 140.87 158.62 C 140.87 157.68 140.11 156.92 139.17 156.92 C 138.23 156.92 137.47 157.68 137.47 158.62 Z M 137.48 159.49 L 137.48 160.44 C 137.48 161.37 138.24 162.13 139.17 162.13 C 140.11 162.13 140.86 161.37 140.86 160.44 L 140.86 159.49 C 140.86 158.56 140.11 157.80 139.17 157.80 C 138.24 157.80 137.48 158.55 137.48 159.49 Z M 137.49 160.43 L 137.49 161.42 C 137.48 162.35 138.23 163.11 139.16 163.11 C 140.09 163.12 140.85 162.37 140.85 161.44 L 140.86 160.44 C 140.86 159.51 140.11 158.76 139.18 158.75 C 138.25 158.75 137.49 159.50 137.49 160.43 Z M 137.49 161.41 L 137.48 162.42 C 137.47 163.35 138.22 164.11 139.14 164.12 C 140.07 164.13 140.83 163.39 140.84 162.46 L 140.85 161.45 C 140.86 160.52 140.11 159.76 139.19 159.75 C 138.26 159.74 137.50 160.49 137.49 161.41 Z M 137.49 162.41 L 137.47 163.41 C 137.45 164.33 138.18 165.10 139.10 165.11 C 140.03 165.13 140.79 164.40 140.81 163.48 L 140.83 162.48 C 140.85 161.55 140.12 160.79 139.19 160.77 C 138.27 160.75 137.51 161.48 137.49 162.41 Z M 137.47 163.39 L 137.44 164.38 C 137.41 165.30 138.13 166.07 139.05 166.10 C 139.97 166.13 140.74 165.41 140.77 164.49 L 140.80 163.50 C 140.83 162.58 140.11 161.81 139.19 161.78 C 138.27 161.75 137.50 162.47 137.47 163.39 Z M 137.45 164.35 L 137.40 165.36 C 137.35 166.27 138.05 167.05 138.97 167.10 C 139.89 167.15 140.67 166.44 140.71 165.52 L 140.76 164.52 C 140.81 163.60 140.10 162.82 139.19 162.78 C 138.27 162.73 137.49 163.44 137.45 164.35 Z M 137.40 165.33 L 137.33 166.33 C 137.27 167.24 137.96 168.03 138.87 168.10 C 139.78 168.16 140.57 167.47 140.64 166.56 L 140.71 165.56 C 140.77 164.64 140.08 163.85 139.17 163.79 C 138.26 163.73 137.47 164.41 137.40 165.33 Z M 137.34 166.30 L 137.25 167.27 C 137.17 168.18 137.84 168.98 138.75 169.06 C 139.66 169.15 140.46 168.48 140.54 167.57 L 140.63 166.59 C 140.71 165.69 140.04 164.88 139.13 164.80 C 138.22 164.72 137.42 165.39 137.34 166.30 Z M 137.26 167.24 L 137.15 168.23 C 137.06 169.14 137.71 169.95 138.62 170.04 C 139.52 170.14 140.33 169.48 140.43 168.58 L 140.54 167.59 C 140.63 166.69 139.98 165.88 139.07 165.78 C 138.17 165.68 137.35 166.34 137.26 167.24 Z M 137.16 168.21 L 137.04 169.22 C 136.93 170.13 137.58 170.94 138.48 171.05 C 139.38 171.16 140.20 170.51 140.31 169.61 L 140.43 168.60 C 140.53 167.70 139.89 166.88 138.99 166.77 C 138.08 166.66 137.26 167.31 137.16 168.21 Z M 137.04 169.21 L 136.92 170.22 C 136.80 171.12 137.44 171.94 138.34 172.06 C 139.24 172.17 140.06 171.53 140.17 170.63 L 140.30 169.62 C 140.41 168.72 139.78 167.90 138.88 167.79 C 137.98 167.67 137.16 168.31 137.04 169.21 Z M 136.92 170.22 L 136.79 171.23 C 136.67 172.13 137.31 172.95 138.21 173.06 C 139.10 173.18 139.93 172.55 140.04 171.65 L 140.17 170.64 C 140.29 169.74 139.65 168.92 138.76 168.80 C 137.86 168.68 137.03 169.32 136.92 170.22 Z M 136.79 171.22 L 136.66 172.23 C 136.54 173.12 137.17 173.95 138.07 174.07 C 138.97 174.18 139.79 173.55 139.91 172.65 L 140.04 171.65 C 140.16 170.75 139.53 169.93 138.63 169.81 C 137.73 169.69 136.91 170.33 136.79 171.22 Z M 136.66 172.23 L 136.53 173.19 C 136.41 174.09 137.04 174.92 137.94 175.03 C 138.84 175.15 139.66 174.52 139.78 173.62 L 139.91 172.65 C 140.03 171.76 139.40 170.93 138.50 170.82 C 137.60 170.70 136.78 171.33 136.66 172.23 Z M 136.53 173.20 L 136.39 174.23 C 136.28 175.13 136.91 175.95 137.80 176.07 C 138.70 176.19 139.52 175.55 139.64 174.66 L 139.78 173.62 C 139.90 172.73 139.27 171.90 138.37 171.79 C 137.47 171.67 136.65 172.30 136.53 173.20 Z M 136.40 174.22 L 136.26 175.22 C 136.14 176.11 136.77 176.94 137.67 177.06 C 138.56 177.18 139.39 176.55 139.51 175.66 L 139.64 174.66 C 139.76 173.77 139.13 172.94 138.24 172.82 C 137.34 172.70 136.52 173.33 136.40 174.22 Z M 136.26 175.21 L 136.13 176.16 C 136.00 177.06 136.62 177.89 137.52 178.01 C 138.41 178.14 139.24 177.52 139.37 176.62 L 139.51 175.67 C 139.63 174.77 139.01 173.94 138.11 173.82 C 137.22 173.69 136.39 174.31 136.26 175.21 Z M 136.13 176.14 L 135.99 177.06 C 135.85 177.95 136.47 178.79 137.36 178.93 C 138.25 179.06 139.09 178.45 139.23 177.56 L 139.37 176.64 C 139.50 175.75 138.89 174.91 138.00 174.77 C 137.10 174.64 136.27 175.25 136.13 176.14 Z M 135.99 177.04 L 135.84 177.96 C 135.69 178.85 136.29 179.70 137.18 179.85 C 138.08 179.99 138.92 179.39 139.07 178.50 L 139.22 177.58 C 139.37 176.69 138.77 175.84 137.88 175.69 C 136.99 175.54 136.14 176.15 135.99 177.04 Z M 135.84 177.94 L 135.66 178.94 C 135.50 179.82 136.09 180.68 136.98 180.84 C 137.87 181.00 138.72 180.41 138.88 179.52 L 139.06 178.52 C 139.23 177.64 138.64 176.78 137.75 176.62 C 136.86 176.46 136.01 177.05 135.84 177.94 Z M 135.67 178.91 L 135.46 179.97 C 135.28 180.86 135.86 181.72 136.75 181.90 C 137.64 182.07 138.50 181.49 138.67 180.60 L 138.88 179.54 C 139.05 178.66 138.47 177.80 137.59 177.62 C 136.70 177.45 135.84 178.03 135.67 178.91 Z M 135.46 179.96 L 135.28 180.86 C 135.10 181.75 135.67 182.61 136.55 182.79 C 137.44 182.97 138.30 182.40 138.48 181.52 L 138.67 180.62 C 138.85 179.73 138.28 178.87 137.39 178.69 C 136.51 178.50 135.64 179.08 135.46 179.96 Z M 135.28 180.85 L 135.08 181.81 C 134.89 182.70 135.46 183.57 136.34 183.75 C 137.23 183.94 138.09 183.37 138.28 182.49 L 138.48 181.53 C 138.67 180.64 138.10 179.77 137.22 179.59 C 136.33 179.40 135.46 179.97 135.28 180.85 Z M 135.08 181.81 L 134.86 182.82 C 134.67 183.70 135.24 184.57 136.12 184.76 C 137.01 184.95 137.87 184.38 138.06 183.50 L 138.28 182.49 C 138.47 181.61 137.90 180.74 137.02 180.55 C 136.14 180.36 135.27 180.92 135.08 181.81 Z M 134.86 182.81 L 134.64 183.85 C 134.45 184.73 135.01 185.60 135.90 185.79 C 136.78 185.98 137.65 185.42 137.84 184.54 L 138.06 183.50 C 138.25 182.62 137.69 181.75 136.81 181.56 C 135.92 181.37 135.05 181.93 134.86 182.81 Z M 134.64 183.85 L 134.52 184.39 C 134.33 185.27 134.89 186.14 135.78 186.33 C 136.66 186.52 137.53 185.96 137.72 185.08 L 137.84 184.54 C 138.03 183.65 137.47 182.78 136.59 182.59 C 135.70 182.40 134.83 182.96 134.64 183.85 Z"
      fill="black"
      fill-rule="nonzero" /><path d="M 149.63 131.01 L 150.54 130.57 C 151.43 130.14 151.80 129.08 151.37 128.20 C 150.94 127.31 149.88 126.94 149.00 127.37 L 148.08 127.81 C 147.20 128.24 146.83 129.30 147.25 130.19 C 147.68 131.07 148.74 131.44 149.63 131.01 Z M 150.54 130.58 L 151.46 130.14 C 152.34 129.71 152.71 128.64 152.29 127.76 C 151.86 126.87 150.79 126.50 149.91 126.93 L 148.99 127.37 C 148.11 127.79 147.74 128.86 148.16 129.75 C 148.59 130.63 149.66 131.00 150.54 130.58 Z M 151.46 130.14 L 152.36 129.71 C 153.25 129.28 153.62 128.21 153.19 127.32 C 152.76 126.43 151.70 126.06 150.81 126.49 L 149.91 126.92 C 149.02 127.35 148.64 128.42 149.07 129.31 C 149.50 130.19 150.57 130.57 151.46 130.14 Z M 152.36 129.71 L 153.24 129.29 C 154.14 128.86 154.51 127.79 154.09 126.90 C 153.66 126.01 152.59 125.63 151.70 126.06 L 150.81 126.48 C 149.92 126.91 149.54 127.98 149.97 128.87 C 150.39 129.76 151.46 130.14 152.36 129.71 Z M 153.24 129.29 L 154.08 128.89 C 154.97 128.47 155.35 127.40 154.93 126.50 C 154.51 125.61 153.44 125.23 152.54 125.66 L 151.70 126.05 C 150.81 126.48 150.43 127.55 150.85 128.44 C 151.28 129.33 152.35 129.71 153.24 129.29 Z M 154.07 128.88 L 154.88 128.50 C 155.77 128.09 156.15 127.03 155.74 126.14 C 155.32 125.25 154.26 124.86 153.37 125.28 L 152.56 125.66 C 151.67 126.08 151.28 127.14 151.70 128.03 C 152.12 128.92 153.18 129.30 154.07 128.88 Z M 154.86 128.49 L 155.71 128.10 C 156.60 127.70 156.99 126.65 156.58 125.76 C 156.17 124.88 155.13 124.49 154.24 124.90 L 153.39 125.29 C 152.50 125.69 152.12 126.74 152.52 127.63 C 152.93 128.51 153.98 128.90 154.86 128.49 Z M 155.69 128.10 L 156.62 127.68 C 157.50 127.29 157.89 126.25 157.50 125.37 C 157.10 124.49 156.07 124.09 155.19 124.49 L 154.26 124.90 C 153.38 125.30 152.99 126.33 153.38 127.22 C 153.78 128.10 154.81 128.49 155.69 128.10 Z M 156.60 127.67 L 157.64 127.22 C 158.51 126.84 158.91 125.81 158.53 124.94 C 158.15 124.06 157.12 123.66 156.25 124.04 L 155.21 124.50 C 154.33 124.88 153.93 125.90 154.31 126.78 C 154.70 127.66 155.72 128.06 156.60 127.67 Z M 157.62 127.21 L 158.51 126.83 C 159.39 126.46 159.79 125.45 159.42 124.57 C 159.04 123.70 158.03 123.29 157.16 123.67 L 156.26 124.05 C 155.39 124.42 154.98 125.43 155.36 126.31 C 155.73 127.18 156.74 127.59 157.62 127.21 Z M 158.50 126.83 L 159.34 126.47 C 160.21 126.11 160.62 125.10 160.25 124.23 C 159.88 123.36 158.88 122.95 158.01 123.32 L 157.17 123.67 C 156.30 124.04 155.89 125.04 156.26 125.92 C 156.62 126.79 157.63 127.20 158.50 126.83 Z M 159.33 126.47 L 160.22 126.10 C 161.09 125.73 161.50 124.73 161.14 123.86 C 160.77 122.99 159.77 122.58 158.90 122.95 L 158.01 123.32 C 157.14 123.68 156.73 124.68 157.10 125.55 C 157.46 126.42 158.46 126.83 159.33 126.47 Z M 160.21 126.09 L 161.15 125.71 C 162.01 125.35 162.42 124.35 162.06 123.48 C 161.70 122.61 160.71 122.20 159.84 122.56 L 158.91 122.95 C 158.04 123.31 157.63 124.31 157.99 125.18 C 158.35 126.04 159.35 126.46 160.21 126.09 Z M 161.14 125.70 L 162.10 125.30 C 162.97 124.95 163.38 123.95 163.02 123.09 C 162.66 122.22 161.67 121.81 160.80 122.17 L 159.84 122.57 C 158.98 122.93 158.57 123.92 158.93 124.78 C 159.28 125.65 160.28 126.06 161.14 125.70 Z M 162.10 125.30 L 163.08 124.89 C 163.94 124.54 164.35 123.55 164.00 122.69 C 163.64 121.83 162.65 121.42 161.79 121.77 L 160.81 122.18 C 159.95 122.53 159.54 123.52 159.89 124.38 C 160.25 125.24 161.24 125.65 162.10 125.30 Z M 163.08 124.89 L 164.07 124.48 C 164.93 124.12 165.34 123.14 164.98 122.28 C 164.63 121.42 163.64 121.01 162.78 121.37 L 161.79 121.78 C 160.93 122.13 160.52 123.12 160.88 123.97 C 161.23 124.83 162.22 125.24 163.08 124.89 Z M 164.07 124.47 L 165.04 124.07 C 165.89 123.72 166.30 122.74 165.95 121.88 C 165.59 121.03 164.61 120.62 163.76 120.97 L 162.79 121.37 C 161.93 121.73 161.52 122.71 161.88 123.56 C 162.23 124.42 163.21 124.83 164.07 124.47 Z M 165.04 124.07 L 165.97 123.68 C 166.82 123.33 167.23 122.35 166.88 121.50 C 166.52 120.64 165.55 120.24 164.69 120.59 L 163.76 120.98 C 162.91 121.33 162.50 122.31 162.85 123.16 C 163.21 124.01 164.18 124.42 165.04 124.07 Z M 165.97 123.67 L 166.90 123.29 C 167.75 122.94 168.15 121.96 167.80 121.11 C 167.45 120.26 166.48 119.86 165.63 120.21 L 164.70 120.60 C 163.84 120.95 163.44 121.92 163.79 122.77 C 164.14 123.62 165.12 124.03 165.97 123.67 Z M 166.90 123.28 L 167.82 122.90 C 168.67 122.55 169.07 121.58 168.72 120.73 C 168.37 119.88 167.40 119.48 166.55 119.83 L 165.63 120.22 C 164.78 120.57 164.38 121.54 164.73 122.39 C 165.08 123.23 166.05 123.64 166.90 123.28 Z M 167.82 122.90 L 168.74 122.51 C 169.59 122.16 169.99 121.20 169.64 120.35 C 169.29 119.51 168.32 119.10 167.47 119.46 L 166.55 119.84 C 165.71 120.19 165.31 121.16 165.66 122.00 C 166.01 122.85 166.98 123.25 167.82 122.90 Z M 168.74 122.51 L 169.66 122.13 C 170.50 121.78 170.90 120.81 170.55 119.97 C 170.20 119.13 169.24 118.73 168.40 119.08 L 167.48 119.46 C 166.63 119.81 166.23 120.78 166.58 121.62 C 166.93 122.46 167.90 122.86 168.74 122.51 Z M 169.66 122.12 L 170.58 121.74 C 171.42 121.39 171.81 120.43 171.46 119.59 C 171.12 118.75 170.15 118.35 169.31 118.70 L 168.40 119.08 C 167.56 119.43 167.16 120.40 167.51 121.23 C 167.86 122.07 168.82 122.47 169.66 122.12 Z M 170.57 121.74 L 171.49 121.36 C 172.33 121.01 172.72 120.05 172.38 119.21 C 172.03 118.38 171.07 117.98 170.23 118.33 L 169.32 118.71 C 168.48 119.06 168.08 120.02 168.43 120.85 C 168.78 121.69 169.74 122.09 170.57 121.74 Z M 171.49 121.36 L 171.76 121.24 C 172.60 120.89 172.99 119.94 172.65 119.10 C 172.30 118.27 171.34 117.87 170.51 118.22 L 170.23 118.33 C 169.40 118.68 169.00 119.64 169.35 120.47 C 169.69 121.31 170.65 121.70 171.49 121.36 Z"
      fill="black"
      fill-rule="nonzero" /><path d="M 152.12 117.10 L 151.61 117.95 C 151.11 118.78 151.38 119.86 152.21 120.36 C 153.04 120.86 154.12 120.59 154.62 119.76 L 155.13 118.91 C 155.63 118.08 155.36 117.00 154.53 116.50 C 153.70 116.00 152.62 116.27 152.12 117.10 Z M 151.58 117.99 L 151.09 118.86 C 150.62 119.71 150.92 120.79 151.77 121.26 C 152.62 121.74 153.69 121.43 154.17 120.59 L 154.66 119.72 C 155.13 118.87 154.83 117.79 153.98 117.32 C 153.13 116.84 152.05 117.14 151.58 117.99 Z M 151.04 118.95 L 150.60 119.86 C 150.18 120.74 150.55 121.80 151.43 122.22 C 152.31 122.65 153.37 122.28 153.79 121.39 L 154.23 120.49 C 154.65 119.61 154.28 118.55 153.40 118.13 C 152.52 117.70 151.46 118.07 151.04 118.95 Z M 150.53 120.00 L 150.19 120.91 C 149.84 121.83 150.30 122.85 151.22 123.20 C 152.14 123.55 153.17 123.08 153.51 122.17 L 153.86 121.25 C 154.20 120.34 153.74 119.31 152.82 118.96 C 151.91 118.62 150.88 119.08 150.53 120.00 Z M 150.14 121.06 L 149.88 121.97 C 149.62 122.92 150.18 123.90 151.13 124.16 C 152.07 124.42 153.05 123.87 153.32 122.92 L 153.57 122.01 C 153.83 121.06 153.27 120.08 152.32 119.82 C 151.38 119.56 150.40 120.12 150.14 121.06 Z M 149.85 122.10 L 149.66 123.07 C 149.48 124.04 150.11 124.97 151.07 125.16 C 152.04 125.35 152.97 124.72 153.16 123.75 L 153.35 122.78 C 153.54 121.82 152.91 120.88 151.94 120.69 C 150.97 120.51 150.04 121.14 149.85 122.10 Z M 149.64 123.18 L 149.51 124.22 C 149.38 125.20 150.07 126.09 151.05 126.22 C 152.03 126.34 152.92 125.65 153.05 124.68 L 153.18 123.64 C 153.31 122.66 152.62 121.77 151.64 121.64 C 150.66 121.52 149.77 122.21 149.64 123.18 Z M 149.50 124.30 L 149.42 125.34 C 149.34 126.32 150.07 127.18 151.05 127.26 C 152.04 127.34 152.90 126.61 152.98 125.62 L 153.06 124.59 C 153.14 123.61 152.40 122.75 151.42 122.67 C 150.44 122.59 149.58 123.32 149.50 124.30 Z M 149.41 125.41 L 149.37 126.37 C 149.33 127.36 150.10 128.19 151.08 128.23 C 152.07 128.27 152.90 127.51 152.94 126.52 L 152.98 125.56 C 153.02 124.57 152.26 123.74 151.27 123.70 C 150.29 123.66 149.45 124.42 149.41 125.41 Z M 149.37 126.44 L 149.37 127.44 C 149.37 128.43 150.16 129.23 151.15 129.23 C 152.13 129.24 152.93 128.44 152.94 127.46 L 152.94 126.45 C 152.94 125.47 152.15 124.67 151.16 124.67 C 150.18 124.66 149.37 125.46 149.37 126.44 Z M 149.37 127.52 L 149.41 128.54 C 149.45 129.52 150.28 130.29 151.27 130.25 C 152.25 130.21 153.01 129.38 152.97 128.40 L 152.93 127.38 C 152.89 126.39 152.06 125.63 151.08 125.67 C 150.10 125.71 149.33 126.54 149.37 127.52 Z M 149.42 128.63 L 149.51 129.65 C 149.60 130.63 150.47 131.35 151.45 131.26 C 152.43 131.17 153.15 130.31 153.06 129.33 L 152.97 128.31 C 152.88 127.33 152.01 126.61 151.03 126.69 C 150.05 126.78 149.33 127.65 149.42 128.63 Z M 149.53 129.75 L 149.68 130.77 C 149.83 131.74 150.73 132.41 151.70 132.27 C 152.67 132.12 153.34 131.22 153.20 130.25 L 153.04 129.23 C 152.90 128.26 151.99 127.59 151.02 127.73 C 150.05 127.88 149.38 128.78 149.53 129.75 Z M 149.71 130.87 L 149.92 131.88 C 150.12 132.83 151.06 133.44 152.01 133.24 C 152.97 133.04 153.58 132.10 153.38 131.15 L 153.17 130.14 C 152.96 129.19 152.03 128.58 151.07 128.78 C 150.12 128.98 149.51 129.92 149.71 130.87 Z M 149.96 131.96 L 150.22 132.94 C 150.47 133.88 151.43 134.43 152.36 134.18 C 153.30 133.94 153.85 132.98 153.60 132.04 L 153.34 131.06 C 153.09 130.13 152.13 129.57 151.20 129.82 C 150.26 130.07 149.71 131.03 149.96 131.96 Z M 150.25 133.01 L 150.55 133.96 C 150.84 134.87 151.81 135.38 152.73 135.09 C 153.64 134.81 154.15 133.83 153.86 132.92 L 153.57 131.97 C 153.28 131.05 152.31 130.55 151.39 130.83 C 150.47 131.12 149.96 132.10 150.25 133.01 Z M 150.58 134.01 L 150.90 134.92 C 151.22 135.82 152.21 136.29 153.11 135.97 C 154.00 135.65 154.47 134.66 154.15 133.77 L 153.83 132.86 C 153.51 131.96 152.53 131.49 151.63 131.81 C 150.73 132.13 150.26 133.11 150.58 134.01 Z M 150.94 134.97 L 151.32 135.94 C 151.66 136.82 152.65 137.25 153.53 136.91 C 154.41 136.56 154.84 135.57 154.50 134.69 L 154.12 133.72 C 153.78 132.84 152.79 132.41 151.91 132.75 C 151.03 133.10 150.59 134.09 150.94 134.97 Z M 151.35 135.98 L 151.76 136.93 C 152.13 137.79 153.12 138.19 153.98 137.82 C 154.84 137.46 155.24 136.46 154.87 135.60 L 154.46 134.65 C 154.10 133.79 153.10 133.39 152.24 133.76 C 151.38 134.13 150.98 135.12 151.35 135.98 Z M 151.80 136.98 L 152.22 137.88 C 152.61 138.71 153.61 139.08 154.45 138.68 C 155.28 138.29 155.65 137.29 155.25 136.45 L 154.83 135.56 C 154.44 134.72 153.44 134.36 152.60 134.75 C 151.77 135.14 151.40 136.14 151.80 136.98 Z M 152.26 137.92 L 152.69 138.76 C 153.11 139.58 154.11 139.90 154.92 139.48 C 155.74 139.07 156.06 138.07 155.64 137.25 L 155.21 136.41 C 154.80 135.59 153.80 135.27 152.98 135.69 C 152.16 136.10 151.84 137.10 152.26 137.92 Z M 152.73 138.81 L 153.22 139.69 C 153.66 140.48 154.67 140.77 155.46 140.32 C 156.26 139.88 156.54 138.87 156.09 138.08 L 155.60 137.20 C 155.16 136.41 154.15 136.12 153.36 136.57 C 152.57 137.01 152.28 138.02 152.73 138.81 Z M 153.25 139.74 L 153.78 140.60 C 154.25 141.38 155.27 141.62 156.04 141.15 C 156.82 140.68 157.06 139.67 156.59 138.89 L 156.06 138.03 C 155.59 137.25 154.58 137.01 153.80 137.48 C 153.03 137.95 152.78 138.96 153.25 139.74 Z M 153.80 140.64 L 154.34 141.46 C 154.83 142.22 155.85 142.44 156.61 141.95 C 157.37 141.46 157.59 140.44 157.10 139.68 L 156.56 138.85 C 156.07 138.09 155.05 137.87 154.29 138.37 C 153.53 138.86 153.31 139.88 153.80 140.64 Z M 154.35 141.48 L 154.78 142.13 C 155.28 142.88 156.30 143.09 157.06 142.59 C 157.81 142.09 158.02 141.07 157.52 140.31 L 157.08 139.66 C 156.58 138.91 155.56 138.70 154.81 139.20 C 154.05 139.70 153.85 140.72 154.35 141.48 Z"
      fill="black"
      fill-rule="nonzero" /><path d="M 161.23 110.74 L 160.77 111.54 C 160.28 112.39 160.57 113.49 161.43 113.98 C 162.28 114.47 163.38 114.18 163.87 113.32 L 164.33 112.53 C 164.82 111.67 164.53 110.58 163.67 110.09 C 162.82 109.59 161.72 109.89 161.23 110.74 Z M 160.73 111.63 L 160.30 112.49 C 159.86 113.37 160.22 114.44 161.10 114.88 C 161.98 115.31 163.05 114.96 163.49 114.08 L 163.92 113.23 C 164.36 112.35 164.00 111.28 163.12 110.84 C 162.24 110.40 161.17 110.75 160.73 111.63 Z M 160.23 112.66 L 159.88 113.63 C 159.54 114.55 160.00 115.57 160.92 115.91 C 161.84 116.25 162.86 115.78 163.20 114.86 L 163.56 113.90 C 163.90 112.98 163.43 111.96 162.51 111.62 C 161.60 111.28 160.57 111.74 160.23 112.66 Z M 159.82 113.84 L 159.58 114.86 C 159.36 115.81 159.95 116.76 160.90 116.99 C 161.85 117.21 162.80 116.62 163.02 115.67 L 163.26 114.65 C 163.48 113.70 162.89 112.75 161.94 112.52 C 160.99 112.30 160.04 112.89 159.82 113.84 Z M 159.56 115.04 L 159.45 115.90 C 159.32 116.86 160.00 117.74 160.96 117.87 C 161.92 117.99 162.81 117.32 162.93 116.35 L 163.04 115.49 C 163.17 114.53 162.49 113.65 161.53 113.52 C 160.57 113.40 159.69 114.07 159.56 115.04 Z M 159.44 116.01 L 159.38 116.95 C 159.32 117.92 160.05 118.75 161.02 118.81 C 161.98 118.87 162.81 118.14 162.87 117.18 L 162.93 116.24 C 163.00 115.27 162.26 114.44 161.30 114.38 C 160.34 114.32 159.51 115.05 159.44 116.01 Z M 159.39 117.04 L 159.38 118.05 C 159.37 119.01 160.14 119.80 161.10 119.81 C 162.06 119.82 162.84 119.06 162.85 118.10 L 162.87 117.09 C 162.88 116.13 162.11 115.34 161.15 115.33 C 160.19 115.32 159.40 116.09 159.39 117.04 Z M 159.39 118.13 L 159.42 119.20 C 159.45 120.15 160.25 120.90 161.21 120.87 C 162.16 120.84 162.91 120.04 162.88 119.09 L 162.84 118.02 C 162.81 117.07 162.01 116.32 161.06 116.35 C 160.11 116.38 159.36 117.18 159.39 118.13 Z M 159.44 119.26 L 159.51 120.38 C 159.58 121.33 160.40 122.04 161.34 121.98 C 162.29 121.91 163.00 121.09 162.94 120.15 L 162.86 119.03 C 162.80 118.08 161.98 117.37 161.03 117.43 C 160.09 117.50 159.37 118.32 159.44 119.26 Z M 159.53 120.43 L 159.63 121.49 C 159.73 122.43 160.56 123.11 161.50 123.02 C 162.44 122.92 163.12 122.09 163.03 121.15 L 162.93 120.09 C 162.83 119.16 162.00 118.47 161.06 118.56 C 160.12 118.66 159.43 119.49 159.53 120.43 Z M 159.64 121.52 L 159.77 122.56 C 159.88 123.49 160.73 124.15 161.66 124.04 C 162.59 123.93 163.26 123.08 163.14 122.15 L 163.02 121.11 C 162.91 120.18 162.06 119.52 161.13 119.63 C 160.20 119.74 159.53 120.59 159.64 121.52 Z M 159.78 122.58 L 159.92 123.62 C 160.05 124.54 160.90 125.19 161.83 125.06 C 162.75 124.94 163.40 124.08 163.27 123.16 L 163.13 122.13 C 163.01 121.20 162.15 120.55 161.23 120.68 C 160.30 120.80 159.65 121.66 159.78 122.58 Z M 159.93 123.63 L 160.08 124.65 C 160.21 125.57 161.07 126.20 161.99 126.07 C 162.91 125.93 163.55 125.08 163.41 124.16 L 163.26 123.14 C 163.13 122.22 162.28 121.59 161.36 121.72 C 160.44 121.86 159.80 122.71 159.93 123.63 Z M 160.09 124.65 L 160.23 125.63 C 160.37 126.54 161.22 127.18 162.14 127.04 C 163.06 126.90 163.69 126.05 163.55 125.13 L 163.40 124.15 C 163.27 123.24 162.41 122.61 161.50 122.74 C 160.58 122.88 159.95 123.73 160.09 124.65 Z M 160.24 125.62 L 160.38 126.55 C 160.51 127.46 161.36 128.09 162.27 127.96 C 163.18 127.83 163.81 126.98 163.68 126.07 L 163.54 125.14 C 163.41 124.23 162.56 123.60 161.65 123.73 C 160.74 123.86 160.11 124.71 160.24 125.62 Z M 160.38 126.53 L 160.52 127.53 C 160.64 128.44 161.48 129.08 162.39 128.96 C 163.29 128.83 163.93 128.00 163.81 127.09 L 163.68 126.09 C 163.55 125.18 162.72 124.54 161.81 124.66 C 160.90 124.79 160.26 125.62 160.38 126.53 Z M 160.51 127.50 L 160.63 128.55 C 160.74 129.46 161.56 130.12 162.47 130.01 C 163.38 129.91 164.03 129.09 163.93 128.18 L 163.81 127.12 C 163.71 126.21 162.89 125.56 161.98 125.66 C 161.07 125.76 160.41 126.59 160.51 127.50 Z M 160.63 128.51 L 160.71 129.48 C 160.79 130.40 161.59 131.07 162.51 130.99 C 163.42 130.92 164.10 130.11 164.02 129.20 L 163.93 128.23 C 163.86 127.31 163.05 126.64 162.14 126.71 C 161.23 126.79 160.55 127.60 160.63 128.51 Z M 160.71 129.44 L 160.76 130.38 C 160.82 131.29 161.60 131.99 162.51 131.94 C 163.43 131.89 164.12 131.10 164.07 130.19 L 164.02 129.25 C 163.97 128.34 163.19 127.64 162.27 127.69 C 161.36 127.74 160.66 128.52 160.71 129.44 Z M 160.76 130.33 L 160.79 131.28 C 160.82 132.19 161.58 132.91 162.49 132.89 C 163.41 132.86 164.13 132.10 164.10 131.18 L 164.07 130.23 C 164.05 129.32 163.29 128.60 162.37 128.63 C 161.46 128.65 160.74 129.42 160.76 130.33 Z M 160.79 131.24 L 160.79 132.24 C 160.80 133.16 161.55 133.90 162.46 133.89 C 163.38 133.89 164.12 133.14 164.11 132.22 L 164.10 131.22 C 164.10 130.30 163.35 129.57 162.44 129.57 C 161.52 129.58 160.78 130.32 160.79 131.24 Z M 160.79 132.20 L 160.77 133.23 C 160.75 134.15 161.48 134.91 162.40 134.93 C 163.32 134.95 164.08 134.22 164.09 133.30 L 164.11 132.27 C 164.13 131.35 163.40 130.59 162.48 130.57 C 161.57 130.56 160.81 131.28 160.79 132.20 Z M 160.77 133.18 L 160.72 134.20 C 160.67 135.12 161.37 135.90 162.29 135.95 C 163.21 136.00 163.99 135.29 164.04 134.38 L 164.10 133.35 C 164.14 132.43 163.44 131.65 162.52 131.60 C 161.60 131.56 160.82 132.26 160.77 133.18 Z M 160.72 134.13 L 160.62 135.11 C 160.54 136.02 161.21 136.84 162.13 136.93 C 163.04 137.02 163.86 136.34 163.95 135.43 L 164.04 134.45 C 164.13 133.53 163.46 132.72 162.54 132.63 C 161.62 132.54 160.81 133.21 160.72 134.13 Z M 160.63 135.00 L 160.47 135.99 C 160.32 136.91 160.94 137.77 161.85 137.92 C 162.77 138.06 163.63 137.45 163.77 136.53 L 163.94 135.54 C 164.09 134.62 163.47 133.76 162.55 133.61 C 161.64 133.47 160.78 134.08 160.63 135.00 Z M 160.50 135.84 L 160.23 136.86 C 160.00 137.76 160.53 138.68 161.43 138.91 C 162.33 139.15 163.25 138.61 163.48 137.71 L 163.75 136.69 C 163.98 135.79 163.45 134.87 162.55 134.64 C 161.65 134.40 160.73 134.94 160.50 135.84 Z M 160.27 136.70 L 159.94 137.61 C 159.62 138.48 160.06 139.45 160.94 139.77 C 161.81 140.10 162.78 139.65 163.10 138.78 L 163.44 137.87 C 163.76 137.00 163.31 136.03 162.44 135.70 C 161.57 135.38 160.60 135.83 160.27 136.70 Z M 159.98 137.48 L 159.60 138.32 C 159.20 139.17 159.57 140.17 160.42 140.57 C 161.27 140.96 162.28 140.59 162.67 139.74 L 163.06 138.90 C 163.45 138.05 163.08 137.05 162.23 136.66 C 161.38 136.26 160.38 136.63 159.98 137.48 Z M 159.63 138.23 L 159.16 139.11 C 158.72 139.95 159.04 140.98 159.87 141.42 C 160.70 141.86 161.73 141.54 162.17 140.71 L 162.64 139.83 C 163.08 138.99 162.76 137.96 161.93 137.52 C 161.10 137.08 160.07 137.40 159.63 138.23 Z M 159.19 139.03 L 158.68 139.89 C 158.19 140.71 158.46 141.76 159.28 142.25 C 160.09 142.73 161.15 142.47 161.63 141.65 L 162.14 140.79 C 162.63 139.97 162.36 138.92 161.55 138.43 C 160.73 137.95 159.67 138.22 159.19 139.03 Z M 158.71 139.81 L 158.16 140.64 C 157.63 141.44 157.85 142.52 158.65 143.05 C 159.44 143.58 160.52 143.36 161.05 142.56 L 161.60 141.73 C 162.13 140.93 161.91 139.86 161.12 139.33 C 160.32 138.80 159.24 139.01 158.71 139.81 Z M 158.21 140.55 L 157.42 141.60 C 156.84 142.37 156.99 143.46 157.76 144.04 C 158.52 144.62 159.62 144.47 160.20 143.70 L 160.99 142.65 C 161.57 141.89 161.42 140.79 160.66 140.21 C 159.89 139.63 158.80 139.78 158.21 140.55 Z M 157.59 141.40 L 157.01 141.97 C 156.32 142.64 156.30 143.74 156.97 144.43 C 157.64 145.13 158.75 145.14 159.44 144.47 L 160.02 143.91 C 160.72 143.23 160.73 142.13 160.06 141.44 C 159.39 140.75 158.29 140.73 157.59 141.40 Z M 159.96 143.06 L 159.93 142.74 C 159.85 141.78 159.00 141.07 158.04 141.16 C 157.08 141.24 156.38 142.09 156.46 143.05 L 156.49 143.37 C 156.58 144.33 157.42 145.04 158.38 144.95 C 159.34 144.87 160.05 144.02 159.96 143.06 Z M 159.75 143.66 L 160.20 142.74 C 160.62 141.89 160.27 140.85 159.41 140.43 C 158.55 140.01 157.51 140.36 157.09 141.22 L 156.64 142.13 C 156.22 142.99 156.58 144.03 157.43 144.45 C 158.29 144.87 159.33 144.52 159.75 143.66 Z M 160.03 143.00 L 160.83 141.91 C 161.39 141.15 161.23 140.07 160.46 139.51 C 159.70 138.94 158.62 139.11 158.06 139.87 L 157.26 140.96 C 156.70 141.73 156.86 142.80 157.63 143.37 C 158.39 143.93 159.47 143.77 160.03 143.00 Z M 160.67 142.09 L 161.35 141.39 C 162.01 140.71 162.00 139.63 161.32 138.97 C 160.64 138.31 159.56 138.32 158.90 139.00 L 158.22 139.70 C 157.56 140.38 157.57 141.46 158.25 142.12 C 158.93 142.78 160.01 142.76 160.67 142.09 Z M 161.25 141.48 L 162.02 140.81 C 162.73 140.19 162.80 139.11 162.18 138.40 C 161.56 137.69 160.48 137.62 159.77 138.24 L 159.00 138.91 C 158.29 139.53 158.22 140.61 158.84 141.32 C 159.46 142.03 160.54 142.10 161.25 141.48 Z M 161.94 140.87 L 162.75 140.24 C 163.49 139.66 163.63 138.59 163.05 137.84 C 162.47 137.10 161.40 136.97 160.65 137.55 L 159.84 138.18 C 159.10 138.76 158.97 139.83 159.55 140.57 C 160.12 141.32 161.20 141.45 161.94 140.87 Z M 162.69 140.28 L 163.50 139.70 C 164.27 139.15 164.44 138.09 163.90 137.32 C 163.35 136.56 162.28 136.38 161.52 136.93 L 160.71 137.51 C 159.94 138.06 159.77 139.12 160.32 139.89 C 160.86 140.65 161.93 140.83 162.69 140.28 Z M 163.45 139.73 L 164.33 139.14 C 165.11 138.62 165.32 137.56 164.80 136.78 C 164.28 136.00 163.23 135.79 162.45 136.31 L 161.57 136.90 C 160.79 137.42 160.58 138.48 161.10 139.26 C 161.62 140.04 162.67 140.25 163.45 139.73 Z M 164.26 139.17 L 165.12 138.66 C 165.92 138.18 166.18 137.14 165.70 136.34 C 165.22 135.54 164.18 135.28 163.38 135.76 L 162.52 136.28 C 161.72 136.76 161.46 137.80 161.94 138.60 C 162.42 139.40 163.46 139.65 164.26 139.17 Z M 165.02 138.70 L 165.87 138.26 C 166.70 137.84 167.03 136.83 166.60 136.01 C 166.18 135.18 165.17 134.85 164.34 135.28 L 163.49 135.71 C 162.66 136.14 162.34 137.15 162.76 137.97 C 163.18 138.80 164.19 139.13 165.02 138.70 Z M 165.74 138.31 L 166.66 137.94 C 167.52 137.59 167.92 136.61 167.57 135.76 C 167.22 134.91 166.25 134.50 165.40 134.85 L 164.48 135.23 C 163.62 135.58 163.22 136.55 163.57 137.40 C 163.91 138.26 164.89 138.66 165.74 138.31 Z M 166.48 137.99 L 167.57 137.69 C 168.45 137.44 168.97 136.53 168.72 135.64 C 168.47 134.76 167.56 134.24 166.67 134.49 L 165.58 134.79 C 164.70 135.04 164.18 135.95 164.43 136.84 C 164.68 137.72 165.59 138.24 166.48 137.99 Z M 167.18 137.74 L 168.16 137.70 C 169.07 137.67 169.78 136.90 169.75 135.99 C 169.71 135.08 168.94 134.36 168.03 134.40 L 167.06 134.44 C 166.14 134.47 165.43 135.24 165.47 136.15 C 165.50 137.07 166.27 137.78 167.18 137.74 Z M 167.32 137.51 L 168.00 137.87 C 168.81 138.30 169.80 137.99 170.23 137.19 C 170.66 136.39 170.36 135.39 169.55 134.96 L 168.87 134.60 C 168.07 134.17 167.07 134.47 166.64 135.28 C 166.21 136.08 166.52 137.08 167.32 137.51 Z M 167.25 137.01 L 167.53 137.75 C 167.86 138.59 168.81 139.01 169.66 138.69 C 170.51 138.36 170.93 137.41 170.60 136.56 L 170.31 135.82 C 169.98 134.97 169.03 134.56 168.18 134.88 C 167.34 135.21 166.92 136.16 167.25 137.01 Z M 167.42 137.18 L 167.44 138.19 C 167.45 139.09 168.20 139.82 169.10 139.80 C 170.01 139.79 170.73 139.05 170.72 138.14 L 170.71 137.13 C 170.69 136.22 169.95 135.50 169.04 135.51 C 168.13 135.52 167.41 136.27 167.42 137.18 Z M 167.46 137.90 L 167.28 139.03 C 167.13 139.92 167.74 140.77 168.63 140.91 C 169.53 141.06 170.37 140.45 170.52 139.56 L 170.70 138.43 C 170.84 137.53 170.24 136.69 169.34 136.54 C 168.45 136.40 167.60 137.00 167.46 137.90 Z M 167.31 138.86 L 167.03 139.87 C 166.79 140.75 167.31 141.65 168.18 141.89 C 169.06 142.13 169.96 141.62 170.20 140.74 L 170.48 139.73 C 170.72 138.85 170.20 137.95 169.33 137.71 C 168.46 137.47 167.55 137.98 167.31 138.86 Z M 167.07 139.75 L 166.73 140.68 C 166.42 141.53 166.86 142.47 167.72 142.78 C 168.57 143.09 169.51 142.65 169.82 141.80 L 170.16 140.87 C 170.47 140.02 170.03 139.07 169.18 138.76 C 168.32 138.45 167.38 138.89 167.07 139.75 Z M 166.77 140.58 L 166.37 141.49 C 166.01 142.32 166.39 143.29 167.22 143.65 C 168.06 144.02 169.03 143.64 169.39 142.81 L 169.79 141.90 C 170.15 141.06 169.77 140.09 168.94 139.73 C 168.10 139.37 167.13 139.75 166.77 140.58 Z M 166.40 141.42 L 165.96 142.33 C 165.56 143.14 165.89 144.13 166.71 144.53 C 167.53 144.93 168.51 144.59 168.91 143.78 L 169.36 142.87 C 169.76 142.06 169.42 141.07 168.61 140.67 C 167.79 140.27 166.80 140.61 166.40 141.42 Z M 165.98 142.29 L 165.52 143.15 C 165.10 143.95 165.41 144.95 166.22 145.37 C 167.02 145.80 168.02 145.49 168.45 144.68 L 168.90 143.82 C 169.32 143.01 169.01 142.02 168.20 141.59 C 167.40 141.17 166.40 141.48 165.98 142.29 Z M 165.53 143.12 L 165.06 143.98 C 164.62 144.78 164.92 145.79 165.72 146.23 C 166.52 146.67 167.53 146.37 167.97 145.57 L 168.44 144.71 C 168.88 143.91 168.58 142.90 167.78 142.46 C 166.98 142.02 165.97 142.32 165.53 143.12 Z M 165.07 143.96 L 164.57 144.83 C 164.12 145.63 164.40 146.65 165.20 147.10 C 166.00 147.55 167.02 147.27 167.47 146.47 L 167.96 145.59 C 168.41 144.79 168.13 143.78 167.33 143.33 C 166.53 142.88 165.52 143.16 165.07 143.96 Z M 164.58 144.81 L 164.06 145.70 C 163.60 146.50 163.87 147.52 164.67 147.98 C 165.47 148.44 166.49 148.17 166.95 147.37 L 167.46 146.48 C 167.93 145.69 167.65 144.66 166.85 144.20 C 166.06 143.74 165.04 144.02 164.58 144.81 Z M 164.06 145.69 L 163.57 146.54 C 163.10 147.33 163.37 148.36 164.17 148.83 C 164.96 149.29 165.99 149.03 166.46 148.23 L 166.95 147.38 C 167.42 146.59 167.15 145.56 166.35 145.09 C 165.56 144.63 164.53 144.89 164.06 145.69 Z M 163.57 146.53 L 163.09 147.34 C 162.62 148.14 162.88 149.17 163.68 149.64 C 164.48 150.11 165.51 149.84 165.98 149.04 L 166.46 148.24 C 166.93 147.44 166.66 146.41 165.86 145.94 C 165.07 145.47 164.04 145.73 163.57 146.53 Z M 163.08 147.34 L 162.59 148.18 C 162.12 148.98 162.39 150.01 163.19 150.48 C 163.99 150.95 165.02 150.68 165.49 149.88 L 165.99 149.05 C 166.46 148.25 166.19 147.21 165.39 146.74 C 164.59 146.27 163.56 146.54 163.08 147.34 Z M 162.58 148.18 L 162.07 149.06 C 161.60 149.86 161.87 150.89 162.68 151.36 C 163.48 151.83 164.51 151.56 164.99 150.76 L 165.50 149.88 C 165.97 149.08 165.70 148.04 164.89 147.57 C 164.09 147.10 163.06 147.37 162.58 148.18 Z M 162.06 149.06 L 161.53 149.99 C 161.06 150.80 161.34 151.84 162.15 152.30 C 162.96 152.77 163.99 152.49 164.46 151.68 L 164.99 150.75 C 165.46 149.94 165.18 148.91 164.37 148.44 C 163.57 147.97 162.53 148.25 162.06 149.06 Z M 161.52 150.00 L 161.01 150.88 C 160.55 151.70 160.84 152.73 161.65 153.20 C 162.47 153.66 163.50 153.37 163.96 152.56 L 164.47 151.67 C 164.93 150.86 164.64 149.82 163.83 149.36 C 163.02 148.90 161.98 149.18 161.52 150.00 Z M 161.01 150.89 L 160.52 151.76 C 160.06 152.58 160.35 153.62 161.17 154.08 C 161.99 154.54 163.03 154.24 163.49 153.42 L 163.97 152.55 C 164.43 151.73 164.14 150.70 163.32 150.24 C 162.50 149.78 161.46 150.07 161.01 150.89 Z M 160.51 151.77 L 160.02 152.66 C 159.56 153.48 159.86 154.52 160.68 154.98 C 161.51 155.43 162.54 155.13 163.00 154.31 L 163.49 153.42 C 163.95 152.59 163.65 151.56 162.83 151.10 C 162.00 150.64 160.97 150.94 160.51 151.77 Z M 160.01 152.66 L 159.52 153.56 C 159.06 154.39 159.37 155.43 160.19 155.88 C 161.02 156.33 162.06 156.03 162.51 155.20 L 163.01 154.31 C 163.46 153.48 163.16 152.44 162.33 151.99 C 161.50 151.53 160.46 151.84 160.01 152.66 Z M 159.51 153.56 L 159.03 154.45 C 158.58 155.28 158.89 156.32 159.72 156.78 C 160.55 157.23 161.59 156.92 162.04 156.09 L 162.52 155.20 C 162.97 154.37 162.66 153.33 161.83 152.88 C 161.00 152.42 159.96 152.73 159.51 153.56 Z M 159.02 154.46 L 158.56 155.32 C 158.11 156.15 158.42 157.19 159.26 157.64 C 160.09 158.09 161.14 157.78 161.58 156.94 L 162.05 156.08 C 162.50 155.25 162.18 154.20 161.35 153.76 C 160.51 153.31 159.47 153.62 159.02 154.46 Z M 158.55 155.32 L 158.02 156.31 C 157.58 157.15 157.90 158.20 158.74 158.64 C 159.58 159.09 160.62 158.77 161.07 157.93 L 161.59 156.94 C 162.04 156.10 161.72 155.05 160.88 154.61 C 160.04 154.16 159.00 154.48 158.55 155.32 Z M 158.01 156.32 L 157.52 157.28 C 157.07 158.12 157.40 159.17 158.25 159.61 C 159.10 160.05 160.14 159.72 160.59 158.87 L 161.08 157.92 C 161.52 157.07 161.19 156.03 160.34 155.59 C 159.50 155.15 158.45 155.48 158.01 156.32 Z M 157.50 157.29 L 157.05 158.18 C 156.62 159.04 156.97 160.08 157.82 160.51 C 158.68 160.94 159.73 160.60 160.16 159.74 L 160.60 158.85 C 161.03 158.00 160.69 156.95 159.83 156.52 C 158.97 156.09 157.93 156.44 157.50 157.29 Z M 157.03 158.21 L 156.63 159.04 C 156.22 159.91 156.59 160.95 157.46 161.36 C 158.33 161.78 159.37 161.41 159.78 160.54 L 160.18 159.71 C 160.59 158.84 160.23 157.80 159.36 157.39 C 158.49 156.97 157.45 157.34 157.03 158.21 Z M 156.61 159.08 L 156.20 160.00 C 155.81 160.88 156.21 161.92 157.10 162.31 C 157.98 162.70 159.02 162.30 159.41 161.41 L 159.81 160.50 C 160.20 159.61 159.80 158.58 158.91 158.19 C 158.03 157.80 157.00 158.20 156.61 159.08 Z M 156.14 160.13 L 155.74 161.32 C 155.42 162.24 155.91 163.23 156.83 163.55 C 157.74 163.87 158.74 163.38 159.06 162.46 L 159.47 161.28 C 159.78 160.36 159.29 159.36 158.38 159.05 C 157.46 158.73 156.46 159.22 156.14 160.13 Z M 155.64 161.96 L 155.67 162.65 C 155.71 163.62 156.53 164.37 157.50 164.33 C 158.47 164.29 159.22 163.47 159.18 162.50 L 159.16 161.82 C 159.11 160.85 158.29 160.09 157.32 160.13 C 156.35 160.17 155.60 160.99 155.64 161.96 Z M 157.37 164.34 L 157.88 164.36 C 158.85 164.39 159.67 163.63 159.70 162.66 C 159.73 161.68 158.97 160.87 158.00 160.83 L 157.49 160.81 C 156.51 160.78 155.70 161.54 155.66 162.52 C 155.63 163.49 156.39 164.30 157.37 164.34 Z M 158.73 164.17 L 159.57 163.75 C 160.44 163.31 160.79 162.25 160.35 161.38 C 159.91 160.51 158.85 160.16 157.98 160.60 L 157.15 161.02 C 156.27 161.46 155.92 162.52 156.36 163.39 C 156.80 164.26 157.86 164.61 158.73 164.17 Z M 159.75 163.65 L 160.77 162.96 C 161.59 162.42 161.81 161.32 161.26 160.51 C 160.72 159.70 159.62 159.48 158.81 160.02 L 157.79 160.70 C 156.98 161.25 156.76 162.34 157.30 163.16 C 157.84 163.97 158.94 164.19 159.75 163.65 Z M 160.85 162.92 L 161.70 162.29 C 162.48 161.71 162.65 160.60 162.07 159.81 C 161.49 159.02 160.38 158.86 159.59 159.44 L 158.74 160.07 C 157.95 160.65 157.79 161.76 158.37 162.55 C 158.95 163.33 160.06 163.50 160.85 162.92 Z M 161.73 162.26 L 162.45 161.70 C 163.22 161.10 163.36 159.99 162.76 159.22 C 162.16 158.44 161.05 158.30 160.27 158.91 L 159.56 159.46 C 158.78 160.07 158.64 161.18 159.25 161.95 C 159.85 162.72 160.96 162.86 161.73 162.26 Z M 162.47 161.69 L 163.22 161.09 C 163.99 160.47 164.11 159.36 163.50 158.59 C 162.88 157.83 161.77 157.71 161.00 158.32 L 160.25 158.92 C 159.49 159.53 159.37 160.65 159.98 161.42 C 160.59 162.18 161.71 162.30 162.47 161.69 Z M 163.24 161.08 L 164.04 160.42 C 164.80 159.80 164.91 158.68 164.29 157.92 C 163.67 157.16 162.55 157.05 161.79 157.67 L 160.99 158.33 C 160.23 158.95 160.11 160.07 160.73 160.83 C 161.36 161.59 162.48 161.70 163.24 161.08 Z M 164.05 160.42 L 164.93 159.69 C 165.69 159.07 165.80 157.95 165.18 157.19 C 164.56 156.43 163.44 156.32 162.68 156.94 L 161.79 157.67 C 161.03 158.29 160.92 159.41 161.54 160.17 C 162.16 160.94 163.28 161.05 164.05 160.42 Z M 164.93 159.70 L 165.70 159.07 C 166.46 158.45 166.57 157.33 165.95 156.57 C 165.33 155.80 164.21 155.69 163.45 156.31 L 162.68 156.94 C 161.92 157.56 161.80 158.68 162.43 159.44 C 163.05 160.21 164.17 160.32 164.93 159.70 Z M 165.69 159.08 L 166.50 158.43 C 167.26 157.81 167.38 156.68 166.76 155.92 C 166.14 155.16 165.02 155.04 164.25 155.66 L 163.45 156.31 C 162.69 156.93 162.57 158.05 163.19 158.81 C 163.81 159.58 164.93 159.70 165.69 159.08 Z M 166.49 158.43 L 167.31 157.77 C 168.08 157.16 168.20 156.04 167.58 155.27 C 166.97 154.50 165.85 154.38 165.08 154.99 L 164.26 155.65 C 163.49 156.27 163.37 157.39 163.98 158.16 C 164.60 158.92 165.72 159.05 166.49 158.43 Z M 167.30 157.78 L 168.11 157.14 C 168.89 156.53 169.02 155.41 168.40 154.63 C 167.79 153.86 166.67 153.73 165.90 154.34 L 165.09 154.99 C 164.32 155.60 164.19 156.72 164.80 157.49 C 165.41 158.26 166.53 158.39 167.30 157.78 Z M 168.10 157.15 L 168.88 156.54 C 169.66 155.94 169.80 154.82 169.20 154.04 C 168.59 153.26 167.47 153.12 166.70 153.73 L 165.91 154.33 C 165.14 154.94 165.00 156.06 165.60 156.83 C 166.20 157.61 167.32 157.75 168.10 157.15 Z M 168.86 156.55 L 169.59 156.01 C 170.37 155.41 170.53 154.29 169.94 153.51 C 169.34 152.72 168.22 152.57 167.44 153.16 L 166.71 153.71 C 165.93 154.30 165.77 155.42 166.37 156.21 C 166.96 156.99 168.08 157.15 168.86 156.55 Z M 169.55 156.04 L 170.54 155.33 C 171.34 154.76 171.52 153.64 170.95 152.84 C 170.38 152.04 169.26 151.86 168.46 152.43 L 167.48 153.13 C 166.67 153.71 166.49 154.82 167.06 155.62 C 167.64 156.42 168.75 156.61 169.55 156.04 Z M 170.46 155.39 L 171.32 154.84 C 172.15 154.31 172.39 153.21 171.86 152.37 C 171.33 151.54 170.23 151.30 169.39 151.83 L 168.54 152.37 C 167.70 152.90 167.46 154.01 167.99 154.84 C 168.52 155.67 169.63 155.92 170.46 155.39 Z M 171.20 154.92 L 171.99 154.49 C 172.86 154.03 173.19 152.94 172.72 152.07 C 172.26 151.20 171.17 150.87 170.30 151.33 L 169.51 151.75 C 168.64 152.22 168.31 153.31 168.77 154.18 C 169.24 155.05 170.33 155.38 171.20 154.92 Z M 171.84 154.57 L 172.67 154.22 C 173.58 153.83 174.01 152.78 173.62 151.87 C 173.23 150.95 172.18 150.52 171.27 150.91 L 170.44 151.26 C 169.53 151.65 169.10 152.70 169.49 153.61 C 169.87 154.53 170.93 154.95 171.84 154.57 Z M 172.46 154.30 L 173.50 154.00 C 174.46 153.73 175.01 152.73 174.74 151.78 C 174.47 150.82 173.47 150.26 172.51 150.54 L 171.47 150.83 C 170.51 151.10 169.96 152.10 170.23 153.06 C 170.50 154.02 171.50 154.57 172.46 154.30 Z M 173.03 154.08 L 174.00 154.07 C 175.00 154.06 175.80 153.23 175.78 152.23 C 175.77 151.23 174.95 150.43 173.95 150.44 L 172.98 150.46 C 171.98 150.47 171.18 151.29 171.19 152.29 C 171.21 153.30 172.03 154.10 173.03 154.08 Z M 173.08 153.85 L 173.82 154.26 C 174.70 154.75 175.81 154.43 176.30 153.56 C 176.79 152.68 176.47 151.57 175.60 151.08 L 174.86 150.67 C 173.98 150.18 172.87 150.49 172.38 151.37 C 171.89 152.25 172.21 153.36 173.08 153.85 Z M 173.12 153.57 L 173.52 154.28 C 174.02 155.16 175.13 155.47 176.01 154.97 C 176.89 154.47 177.20 153.36 176.70 152.48 L 176.30 151.77 C 175.80 150.89 174.69 150.59 173.81 151.08 C 172.93 151.58 172.63 152.69 173.12 153.57 Z M 173.34 153.83 L 173.59 154.79 C 173.83 155.77 174.82 156.36 175.80 156.11 C 176.78 155.87 177.37 154.88 177.12 153.90 L 176.88 152.94 C 176.63 151.96 175.64 151.37 174.67 151.61 C 173.69 151.86 173.10 152.85 173.34 153.83 Z M 173.54 154.55 L 173.67 155.65 C 173.78 156.66 174.68 157.38 175.68 157.27 C 176.68 157.15 177.40 156.25 177.29 155.25 L 177.17 154.14 C 177.06 153.14 176.15 152.42 175.15 152.53 C 174.15 152.64 173.43 153.55 173.54 154.55 Z M 173.66 155.52 L 173.70 156.60 C 173.74 157.61 174.58 158.40 175.59 158.36 C 176.60 158.32 177.38 157.47 177.34 156.46 L 177.30 155.38 C 177.26 154.38 176.41 153.59 175.41 153.63 C 174.40 153.67 173.62 154.52 173.66 155.52 Z M 173.70 156.52 L 173.69 157.49 C 173.68 158.50 174.49 159.32 175.49 159.33 C 176.50 159.34 177.32 158.53 177.33 157.53 L 177.34 156.55 C 177.35 155.55 176.54 154.72 175.54 154.71 C 174.53 154.70 173.71 155.51 173.70 156.52 Z M 173.69 157.40 L 173.63 158.37 C 173.57 159.38 174.33 160.24 175.34 160.30 C 176.34 160.36 177.21 159.60 177.27 158.60 L 177.33 157.62 C 177.39 156.62 176.63 155.75 175.62 155.69 C 174.62 155.63 173.75 156.39 173.69 157.40 Z M 173.64 158.27 L 173.53 159.27 C 173.41 160.27 174.12 161.17 175.12 161.29 C 176.12 161.41 177.02 160.69 177.14 159.69 L 177.26 158.70 C 177.37 157.70 176.66 156.79 175.66 156.68 C 174.66 156.56 173.76 157.28 173.64 158.27 Z M 173.54 159.17 L 173.36 160.21 C 173.19 161.19 173.86 162.13 174.84 162.31 C 175.83 162.48 176.77 161.81 176.95 160.83 L 177.12 159.79 C 177.30 158.80 176.63 157.86 175.64 157.69 C 174.65 157.52 173.71 158.18 173.54 159.17 Z M 173.38 160.12 L 173.18 161.02 C 172.97 162.00 173.58 162.97 174.56 163.18 C 175.54 163.40 176.51 162.78 176.73 161.80 L 176.93 160.91 C 177.14 159.93 176.53 158.96 175.55 158.74 C 174.57 158.53 173.60 159.14 173.38 160.12 Z M 173.20 160.95 L 172.96 161.88 C 172.71 162.85 173.29 163.84 174.26 164.10 C 175.23 164.35 176.22 163.77 176.47 162.80 L 176.71 161.87 C 176.96 160.90 176.38 159.91 175.41 159.65 C 174.44 159.40 173.45 159.98 173.20 160.95 Z M 172.97 161.83 L 172.69 162.79 C 172.41 163.75 172.97 164.76 173.93 165.04 C 174.89 165.32 175.90 164.77 176.18 163.81 L 176.45 162.85 C 176.74 161.89 176.18 160.88 175.22 160.60 C 174.26 160.32 173.25 160.87 172.97 161.83 Z M 172.71 162.75 L 172.39 163.74 C 172.09 164.69 172.62 165.71 173.57 166.01 C 174.53 166.31 175.54 165.79 175.85 164.83 L 176.16 163.85 C 176.46 162.89 175.94 161.88 174.98 161.57 C 174.03 161.27 173.01 161.80 172.71 162.75 Z M 172.41 163.70 L 172.06 164.71 C 171.74 165.66 172.25 166.69 173.20 167.01 C 174.14 167.33 175.17 166.82 175.49 165.88 L 175.84 164.87 C 176.16 163.92 175.65 162.89 174.70 162.57 C 173.76 162.25 172.73 162.76 172.41 163.70 Z M 172.08 164.69 L 171.72 165.69 C 171.38 166.63 171.87 167.66 172.81 168.00 C 173.75 168.34 174.79 167.84 175.12 166.90 L 175.48 165.90 C 175.82 164.96 175.33 163.93 174.39 163.59 C 173.45 163.26 172.41 163.75 172.08 164.69 Z M 171.73 165.67 L 171.36 166.66 C 171.01 167.60 171.49 168.64 172.42 168.98 C 173.36 169.33 174.40 168.85 174.75 167.92 L 175.11 166.92 C 175.46 165.99 174.98 164.95 174.05 164.60 C 173.11 164.26 172.08 164.73 171.73 165.67 Z M 171.37 166.64 L 171.00 167.62 C 170.64 168.55 171.10 169.59 172.03 169.95 C 172.96 170.31 174.01 169.84 174.36 168.91 L 174.74 167.94 C 175.09 167.01 174.63 165.96 173.70 165.61 C 172.77 165.25 171.73 165.72 171.37 166.64 Z M 171.00 167.60 L 170.63 168.54 C 170.27 169.47 170.72 170.51 171.65 170.88 C 172.57 171.24 173.62 170.79 173.98 169.86 L 174.35 168.93 C 174.72 168.00 174.26 166.96 173.34 166.59 C 172.42 166.23 171.37 166.68 171.00 167.60 Z M 170.64 168.53 L 170.29 169.40 C 169.91 170.32 170.36 171.37 171.28 171.75 C 172.20 172.12 173.24 171.68 173.62 170.76 L 173.97 169.88 C 174.35 168.96 173.90 167.91 172.98 167.54 C 172.07 167.16 171.02 167.61 170.64 168.53 Z M 170.30 169.39 L 169.93 170.27 C 169.54 171.18 169.98 172.24 170.89 172.62 C 171.80 173.00 172.85 172.57 173.24 171.66 L 173.61 170.77 C 173.99 169.86 173.56 168.81 172.64 168.43 C 171.73 168.04 170.68 168.47 170.30 169.39 Z M 169.94 170.25 L 169.49 171.29 C 169.09 172.20 169.51 173.25 170.41 173.65 C 171.32 174.04 172.38 173.63 172.77 172.72 L 173.22 171.68 C 173.62 170.77 173.20 169.72 172.30 169.32 C 171.39 168.93 170.34 169.34 169.94 170.25 Z M 169.50 171.27 L 169.10 172.16 C 168.70 173.06 169.10 174.12 169.99 174.52 C 170.89 174.93 171.95 174.53 172.35 173.63 L 172.76 172.74 C 173.16 171.84 172.76 170.78 171.86 170.38 C 170.96 169.97 169.91 170.37 169.50 171.27 Z M 169.11 172.16 L 168.74 172.96 C 168.33 173.85 168.73 174.91 169.62 175.32 C 170.51 175.73 171.57 175.33 171.98 174.44 L 172.34 173.64 C 172.75 172.74 172.36 171.69 171.47 171.28 C 170.57 170.87 169.52 171.26 169.11 172.16 Z M 168.74 172.97 L 168.35 173.84 C 167.95 174.73 168.35 175.78 169.24 176.18 C 170.13 176.58 171.18 176.19 171.59 175.29 L 171.98 174.43 C 172.38 173.54 171.98 172.49 171.09 172.08 C 170.19 171.68 169.15 172.08 168.74 172.97 Z M 168.36 173.84 L 167.95 174.76 C 167.55 175.65 167.95 176.70 168.84 177.09 C 169.73 177.49 170.78 177.09 171.18 176.20 L 171.58 175.29 C 171.98 174.40 171.58 173.35 170.69 172.95 C 169.80 172.55 168.75 172.95 168.36 173.84 Z M 167.96 174.74 L 167.54 175.65 C 167.14 176.53 167.52 177.58 168.41 177.99 C 169.29 178.39 170.34 178.01 170.75 177.12 L 171.16 176.22 C 171.57 175.33 171.18 174.28 170.30 173.88 C 169.41 173.47 168.37 173.86 167.96 174.74 Z M 167.57 175.61 L 167.13 176.50 C 166.70 177.37 167.06 178.43 167.93 178.85 C 168.80 179.28 169.86 178.92 170.29 178.05 L 170.72 177.16 C 171.15 176.29 170.79 175.24 169.92 174.81 C 169.05 174.38 167.99 174.74 167.57 175.61 Z M 167.15 176.47 L 166.69 177.35 C 166.25 178.21 166.58 179.26 167.44 179.71 C 168.30 180.16 169.36 179.82 169.81 178.96 L 170.26 178.08 C 170.71 177.22 170.37 176.17 169.52 175.72 C 168.66 175.27 167.60 175.61 167.15 176.47 Z M 166.71 177.34 L 166.24 178.23 C 165.78 179.08 166.11 180.14 166.96 180.59 C 167.81 181.04 168.87 180.72 169.32 179.86 L 169.79 178.97 C 170.25 178.12 169.92 177.06 169.07 176.61 C 168.22 176.16 167.16 176.48 166.71 177.34 Z M 166.24 178.24 L 165.79 179.08 C 165.35 179.94 165.67 180.99 166.53 181.43 C 167.38 181.88 168.43 181.55 168.88 180.70 L 169.32 179.85 C 169.77 179.00 169.44 177.95 168.59 177.50 C 167.74 177.06 166.68 177.38 166.24 178.24 Z M 165.80 179.09 L 165.36 179.92 C 164.92 180.77 165.25 181.82 166.10 182.26 C 166.95 182.70 168.00 182.37 168.44 181.52 L 168.87 180.69 C 169.32 179.84 168.98 178.80 168.13 178.35 C 167.28 177.91 166.24 178.24 165.80 179.09 Z M 165.38 179.91 L 164.91 180.80 C 164.46 181.64 164.78 182.69 165.62 183.13 C 166.46 183.58 167.51 183.26 167.96 182.42 L 168.43 181.53 C 168.88 180.69 168.56 179.65 167.72 179.20 C 166.87 178.75 165.83 179.07 165.38 179.91 Z M 164.93 180.77 L 164.39 181.74 C 163.92 182.57 164.22 183.62 165.05 184.08 C 165.88 184.54 166.93 184.25 167.39 183.42 L 167.93 182.45 C 168.40 181.62 168.10 180.57 167.27 180.11 C 166.44 179.64 165.39 179.94 164.93 180.77 Z M 164.41 181.71 L 163.94 182.52 C 163.46 183.34 163.73 184.39 164.55 184.87 C 165.36 185.35 166.41 185.07 166.89 184.26 L 167.37 183.45 C 167.85 182.63 167.57 181.58 166.76 181.10 C 165.94 180.62 164.89 180.89 164.41 181.71 Z M 163.95 182.50 L 163.44 183.35 C 162.94 184.15 163.20 185.21 164.01 185.70 C 164.81 186.19 165.87 185.93 166.36 185.13 L 166.88 184.28 C 167.37 183.47 167.11 182.42 166.30 181.93 C 165.50 181.43 164.44 181.69 163.95 182.50 Z M 163.45 183.33 L 162.91 184.20 C 162.40 184.99 162.64 186.05 163.44 186.55 C 164.24 187.05 165.29 186.81 165.80 186.01 L 166.34 185.15 C 166.84 184.35 166.60 183.29 165.81 182.79 C 165.01 182.29 163.95 182.53 163.45 183.33 Z M 162.92 184.18 L 162.36 185.04 C 161.85 185.83 162.07 186.89 162.86 187.40 C 163.65 187.91 164.70 187.69 165.22 186.90 L 165.78 186.03 C 166.29 185.24 166.07 184.19 165.28 183.68 C 164.49 183.17 163.44 183.39 162.92 184.18 Z M 162.38 185.03 L 161.81 185.88 C 161.29 186.65 161.49 187.71 162.27 188.23 C 163.05 188.75 164.11 188.55 164.63 187.77 L 165.20 186.92 C 165.72 186.14 165.51 185.08 164.73 184.56 C 163.96 184.04 162.90 184.25 162.38 185.03 Z M 161.83 185.85 L 161.25 186.68 C 160.72 187.45 160.91 188.50 161.67 189.04 C 162.44 189.57 163.49 189.38 164.03 188.62 L 164.60 187.79 C 165.14 187.02 164.95 185.97 164.19 185.44 C 163.42 184.90 162.37 185.09 161.83 185.85 Z M 161.28 186.66 L 160.70 187.46 C 160.15 188.21 160.31 189.26 161.06 189.81 C 161.81 190.36 162.86 190.20 163.41 189.45 L 164.00 188.65 C 164.55 187.90 164.38 186.85 163.63 186.30 C 162.89 185.75 161.83 185.91 161.28 186.66 Z M 160.73 187.42 L 160.12 188.20 C 159.56 188.93 159.69 189.98 160.42 190.55 C 161.15 191.12 162.20 190.99 162.77 190.26 L 163.37 189.48 C 163.94 188.75 163.81 187.70 163.08 187.13 C 162.35 186.56 161.30 186.69 160.73 187.42 Z M 160.16 188.16 L 159.53 188.93 C 158.94 189.64 159.04 190.69 159.74 191.28 C 160.45 191.87 161.50 191.77 162.09 191.06 L 162.73 190.30 C 163.32 189.59 163.22 188.54 162.51 187.95 C 161.80 187.36 160.75 187.46 160.16 188.16 Z M 159.57 188.89 L 158.87 189.67 C 158.26 190.35 158.32 191.40 159.00 192.02 C 159.68 192.63 160.73 192.57 161.34 191.89 L 162.05 191.10 C 162.66 190.42 162.60 189.37 161.92 188.76 C 161.23 188.15 160.19 188.20 159.57 188.89 Z M 158.93 189.62 L 158.20 190.36 C 157.55 191.01 157.56 192.06 158.21 192.70 C 158.86 193.34 159.91 193.34 160.55 192.69 L 161.29 191.94 C 161.93 191.29 161.92 190.24 161.27 189.60 C 160.62 188.96 159.57 188.97 158.93 189.62 Z M 158.28 190.29 L 157.53 190.95 C 156.85 191.56 156.78 192.60 157.39 193.28 C 157.99 193.96 159.03 194.03 159.72 193.42 L 160.47 192.76 C 161.15 192.15 161.21 191.11 160.61 190.43 C 160.01 189.75 158.96 189.68 158.28 190.29 Z M 157.65 190.86 L 156.90 191.41 C 156.17 191.94 156.01 192.97 156.54 193.71 C 157.08 194.44 158.11 194.60 158.84 194.06 L 159.59 193.51 C 160.33 192.98 160.49 191.95 159.95 191.22 C 159.42 190.48 158.39 190.32 157.65 190.86 Z M 157.11 191.28 L 156.20 191.76 C 155.40 192.18 155.09 193.17 155.51 193.97 C 155.93 194.77 156.92 195.09 157.72 194.66 L 158.63 194.19 C 159.43 193.77 159.74 192.78 159.32 191.98 C 158.90 191.17 157.91 190.86 157.11 191.28 Z M 156.47 191.65 L 155.51 191.95 C 154.65 192.23 154.17 193.15 154.45 194.01 C 154.72 194.87 155.64 195.35 156.50 195.08 L 157.46 194.77 C 158.32 194.50 158.80 193.58 158.53 192.72 C 158.25 191.85 157.33 191.38 156.47 191.65 Z M 155.71 191.90 L 154.77 192.07 C 153.88 192.24 153.29 193.09 153.45 193.98 C 153.62 194.87 154.47 195.46 155.36 195.30 L 156.30 195.13 C 157.19 194.96 157.78 194.11 157.62 193.22 C 157.46 192.33 156.60 191.74 155.71 191.90 Z M 154.85 192.06 L 154.34 192.13 C 153.44 192.25 152.81 193.08 152.93 193.97 C 153.06 194.87 153.88 195.50 154.78 195.38 L 155.28 195.31 C 156.18 195.19 156.81 194.36 156.69 193.47 C 156.57 192.57 155.74 191.94 154.85 192.06 Z"
      fill="black"
      fill-rule="nonzero" /><path d="M 151.64 162.75 L 152.23 161.86 C 152.76 161.05 152.54 159.97 151.73 159.43 C 150.93 158.90 149.84 159.12 149.31 159.93 L 148.72 160.82 C 148.19 161.62 148.41 162.71 149.22 163.24 C 150.02 163.78 151.11 163.56 151.64 162.75 Z M 152.06 162.19 L 152.74 161.51 C 153.45 160.80 153.45 159.64 152.74 158.93 C 152.03 158.21 150.88 158.21 150.16 158.92 L 149.48 159.60 C 148.77 160.31 148.76 161.47 149.48 162.18 C 150.19 162.90 151.34 162.90 152.06 162.19 Z M 152.00 162.03 L 152.88 161.76 C 153.88 161.46 154.45 160.40 154.14 159.39 C 153.84 158.39 152.78 157.83 151.77 158.13 L 150.90 158.40 C 149.90 158.70 149.33 159.76 149.64 160.77 C 149.94 161.77 151.00 162.33 152.00 162.03 Z M 151.95 161.85 L 152.76 162.01 C 153.81 162.22 154.83 161.54 155.04 160.49 C 155.25 159.44 154.57 158.42 153.52 158.21 L 152.71 158.05 C 151.66 157.84 150.64 158.52 150.43 159.57 C 150.22 160.62 150.90 161.64 151.95 161.85 Z M 152.35 161.89 L 153.25 162.29 C 154.23 162.73 155.38 162.29 155.82 161.31 C 156.26 160.33 155.82 159.18 154.84 158.74 L 153.94 158.34 C 152.96 157.90 151.81 158.34 151.37 159.32 C 150.93 160.30 151.37 161.45 152.35 161.89 Z M 153.06 162.20 L 153.99 162.75 C 154.92 163.29 156.12 162.98 156.66 162.05 C 157.21 161.12 156.90 159.92 155.97 159.38 L 155.03 158.83 C 154.10 158.29 152.91 158.60 152.36 159.53 C 151.82 160.46 152.13 161.66 153.06 162.20 Z M 153.90 162.70 L 154.80 163.29 C 155.70 163.88 156.92 163.63 157.51 162.73 C 158.11 161.82 157.85 160.61 156.95 160.01 L 156.05 159.43 C 155.15 158.83 153.94 159.08 153.34 159.99 C 152.75 160.89 153.00 162.11 153.90 162.70 Z M 154.78 163.28 L 155.69 163.89 C 156.58 164.50 157.80 164.26 158.41 163.36 C 159.02 162.47 158.78 161.24 157.88 160.64 L 156.97 160.02 C 156.07 159.42 154.85 159.65 154.25 160.55 C 153.64 161.45 153.88 162.67 154.78 163.28 Z M 155.68 163.89 L 156.50 164.45 C 157.40 165.06 158.62 164.83 159.23 163.93 C 159.84 163.03 159.61 161.81 158.71 161.20 L 157.89 160.64 C 156.99 160.03 155.77 160.26 155.16 161.16 C 154.55 162.06 154.78 163.28 155.68 163.89 Z M 156.50 164.45 L 157.27 164.98 C 158.17 165.60 159.39 165.37 160.01 164.47 C 160.62 163.58 160.39 162.35 159.50 161.74 L 158.72 161.20 C 157.82 160.59 156.60 160.82 155.99 161.71 C 155.37 162.61 155.60 163.83 156.50 164.45 Z M 157.27 164.98 L 158.04 165.51 C 158.93 166.13 160.16 165.90 160.78 165.01 C 161.39 164.11 161.17 162.89 160.27 162.27 L 159.50 161.74 C 158.61 161.12 157.38 161.35 156.77 162.24 C 156.15 163.14 156.37 164.36 157.27 164.98 Z M 158.04 165.51 L 158.82 166.05 C 159.72 166.67 160.95 166.45 161.56 165.55 C 162.18 164.66 161.95 163.43 161.06 162.81 L 160.27 162.27 C 159.38 161.65 158.15 161.88 157.54 162.77 C 156.92 163.67 157.14 164.90 158.04 165.51 Z M 158.83 166.06 L 159.66 166.62 C 160.56 167.23 161.78 167.00 162.40 166.10 C 163.01 165.21 162.78 163.98 161.88 163.37 L 161.05 162.81 C 160.15 162.19 158.93 162.43 158.31 163.32 C 157.70 164.22 157.94 165.45 158.83 166.06 Z M 159.68 166.63 L 160.55 167.21 C 161.46 167.82 162.68 167.57 163.28 166.67 C 163.88 165.76 163.64 164.54 162.73 163.94 L 161.86 163.36 C 160.95 162.75 159.73 163.00 159.13 163.91 C 158.53 164.81 158.77 166.03 159.68 166.63 Z M 160.57 167.23 L 161.40 167.76 C 162.32 168.35 163.53 168.09 164.12 167.18 C 164.71 166.26 164.45 165.05 163.54 164.46 L 162.71 163.92 C 161.79 163.33 160.58 163.59 159.99 164.51 C 159.40 165.42 159.66 166.64 160.57 167.23 Z M 161.42 167.78 L 162.24 168.29 C 163.16 168.87 164.37 168.59 164.95 167.67 C 165.53 166.75 165.25 165.54 164.33 164.96 L 163.52 164.44 C 162.60 163.87 161.38 164.14 160.80 165.06 C 160.22 165.98 160.50 167.20 161.42 167.78 Z M 162.25 168.30 L 163.10 168.82 C 164.02 169.40 165.24 169.11 165.81 168.19 C 166.38 167.26 166.10 166.05 165.17 165.48 L 164.32 164.95 C 163.40 164.38 162.19 164.66 161.61 165.59 C 161.04 166.51 161.33 167.73 162.25 168.30 Z M 163.10 168.83 L 163.98 169.37 C 164.91 169.94 166.12 169.65 166.69 168.72 C 167.26 167.80 166.97 166.59 166.05 166.02 L 165.17 165.47 C 164.24 164.90 163.03 165.19 162.46 166.12 C 161.89 167.04 162.18 168.26 163.10 168.83 Z M 163.98 169.37 L 164.86 169.91 C 165.79 170.48 167.00 170.19 167.57 169.27 C 168.14 168.34 167.85 167.13 166.93 166.56 L 166.05 166.02 C 165.12 165.45 163.91 165.73 163.34 166.66 C 162.77 167.58 163.06 168.80 163.98 169.37 Z M 164.86 169.91 L 165.69 170.42 C 166.62 171.00 167.83 170.71 168.40 169.79 C 168.97 168.86 168.69 167.65 167.76 167.08 L 166.93 166.56 C 166.01 165.99 164.79 166.27 164.22 167.20 C 163.65 168.12 163.94 169.33 164.86 169.91 Z M 165.69 170.42 L 166.54 170.95 C 167.46 171.52 168.67 171.24 169.25 170.31 C 169.82 169.39 169.54 168.18 168.61 167.61 L 167.77 167.08 C 166.84 166.51 165.63 166.79 165.06 167.71 C 164.49 168.64 164.77 169.85 165.69 170.42 Z M 166.54 170.95 L 167.40 171.48 C 168.32 172.05 169.53 171.77 170.10 170.85 C 170.68 169.93 170.39 168.71 169.47 168.14 L 168.62 167.61 C 167.69 167.04 166.48 167.32 165.91 168.24 C 165.34 169.16 165.62 170.37 166.54 170.95 Z M 167.40 171.48 L 168.26 172.01 C 169.18 172.59 170.39 172.30 170.97 171.38 C 171.54 170.46 171.25 169.25 170.33 168.68 L 169.47 168.14 C 168.55 167.57 167.34 167.85 166.77 168.77 C 166.19 169.70 166.48 170.91 167.40 171.48 Z M 168.26 172.01 L 169.12 172.55 C 170.04 173.12 171.25 172.83 171.82 171.91 C 172.39 170.99 172.11 169.78 171.19 169.21 L 170.33 168.68 C 169.41 168.11 168.20 168.39 167.63 169.31 C 167.06 170.23 167.34 171.44 168.26 172.01 Z M 169.12 172.55 L 169.97 173.07 C 170.90 173.64 172.11 173.36 172.67 172.43 C 173.24 171.51 172.96 170.30 172.04 169.73 L 171.18 169.21 C 170.26 168.64 169.05 168.92 168.48 169.85 C 167.92 170.77 168.20 171.98 169.12 172.55 Z M 169.98 173.07 L 170.83 173.60 C 171.75 174.16 172.96 173.88 173.52 172.95 C 174.09 172.03 173.81 170.82 172.88 170.26 L 172.03 169.73 C 171.11 169.17 169.90 169.45 169.34 170.37 C 168.77 171.30 169.05 172.50 169.98 173.07 Z M 170.83 173.59 L 171.68 174.12 C 172.60 174.69 173.80 174.40 174.37 173.48 C 174.94 172.56 174.65 171.35 173.73 170.78 L 172.88 170.26 C 171.96 169.69 170.75 169.98 170.19 170.90 C 169.62 171.82 169.91 173.03 170.83 173.59 Z M 171.67 174.12 L 172.53 174.64 C 173.45 175.21 174.65 174.92 175.22 174.00 C 175.79 173.08 175.50 171.88 174.58 171.31 L 173.73 170.78 C 172.81 170.21 171.61 170.50 171.04 171.42 C 170.47 172.34 170.75 173.55 171.67 174.12 Z M 172.52 174.64 L 173.38 175.17 C 174.30 175.73 175.50 175.45 176.07 174.53 C 176.64 173.61 176.36 172.41 175.44 171.84 L 174.59 171.31 C 173.67 170.74 172.46 171.03 171.89 171.94 C 171.32 172.86 171.61 174.07 172.52 174.64 Z M 173.38 175.16 L 174.23 175.69 C 175.14 176.26 176.35 175.98 176.92 175.06 C 177.49 174.15 177.21 172.94 176.29 172.37 L 175.44 171.84 C 174.52 171.27 173.32 171.55 172.75 172.47 C 172.18 173.39 172.46 174.59 173.38 175.16 Z M 174.23 175.69 L 175.08 176.22 C 175.99 176.79 177.20 176.51 177.77 175.60 C 178.34 174.68 178.06 173.48 177.14 172.91 L 176.29 172.38 C 175.38 171.81 174.17 172.09 173.60 173.00 C 173.03 173.91 173.31 175.12 174.23 175.69 Z M 175.08 176.21 L 175.93 176.74 C 176.84 177.32 178.04 177.04 178.61 176.13 C 179.18 175.22 178.90 174.02 177.99 173.45 L 177.14 172.91 C 176.23 172.34 175.03 172.62 174.46 173.53 C 173.89 174.44 174.17 175.64 175.08 176.21 Z M 175.93 176.74 L 176.77 177.27 C 177.68 177.84 178.88 177.57 179.45 176.66 C 180.02 175.75 179.74 174.55 178.84 173.98 L 177.99 173.45 C 177.08 172.88 175.89 173.15 175.31 174.06 C 174.74 174.97 175.02 176.17 175.93 176.74 Z M 176.77 177.27 L 177.62 177.80 C 178.53 178.37 179.73 178.10 180.30 177.20 C 180.87 176.29 180.60 175.09 179.69 174.52 L 178.84 173.98 C 177.93 173.41 176.73 173.69 176.16 174.59 C 175.59 175.50 175.86 176.69 176.77 177.27 Z M 177.63 177.80 L 178.48 178.34 C 179.39 178.91 180.58 178.64 181.15 177.73 C 181.72 176.83 181.45 175.64 180.55 175.07 L 179.69 174.53 C 178.79 173.96 177.59 174.23 177.02 175.13 C 176.45 176.03 176.72 177.23 177.63 177.80 Z M 178.48 178.34 L 179.33 178.87 C 180.23 179.44 181.43 179.17 181.99 178.27 C 182.56 177.37 182.29 176.17 181.39 175.60 L 180.54 175.07 C 179.64 174.50 178.45 174.77 177.88 175.67 C 177.31 176.57 177.58 177.77 178.48 178.34 Z M 179.33 178.87 L 180.17 179.40 C 181.07 179.96 182.26 179.69 182.83 178.79 C 183.40 177.89 183.13 176.70 182.23 176.14 L 181.39 175.61 C 180.49 175.04 179.30 175.31 178.73 176.21 C 178.16 177.11 178.43 178.30 179.33 178.87 Z M 180.18 179.39 L 181.01 179.92 C 181.91 180.48 183.09 180.21 183.66 179.31 C 184.22 178.41 183.95 177.23 183.05 176.66 L 182.22 176.14 C 181.32 175.57 180.14 175.84 179.57 176.74 C 179.01 177.64 179.28 178.83 180.18 179.39 Z M 181.01 179.91 L 181.87 180.45 C 182.77 181.01 183.95 180.74 184.52 179.84 C 185.08 178.95 184.81 177.76 183.91 177.20 L 183.05 176.66 C 182.15 176.10 180.97 176.37 180.41 177.27 C 179.84 178.17 180.12 179.35 181.01 179.91 Z M 181.88 180.45 L 182.73 180.98 C 183.63 181.54 184.81 181.27 185.37 180.38 C 185.93 179.48 185.66 178.30 184.76 177.74 L 183.91 177.21 C 183.01 176.65 181.83 176.92 181.27 177.81 C 180.71 178.71 180.98 179.89 181.88 180.45 Z M 182.73 180.98 L 183.58 181.51 C 184.47 182.07 185.64 181.80 186.21 180.91 C 186.77 180.02 186.50 178.84 185.61 178.28 L 184.76 177.75 C 183.87 177.19 182.69 177.46 182.13 178.35 C 181.57 179.24 181.84 180.42 182.73 180.98 Z M 183.57 181.50 L 184.41 182.03 C 185.30 182.59 186.47 182.33 187.03 181.44 C 187.59 180.55 187.33 179.38 186.44 178.82 L 185.61 178.29 C 184.72 177.73 183.55 177.99 182.99 178.88 C 182.42 179.76 182.69 180.94 183.57 181.50 Z M 184.40 182.02 L 185.24 182.55 C 186.12 183.12 187.29 182.86 187.86 181.98 C 188.42 181.10 188.17 179.93 187.29 179.37 L 186.45 178.83 C 185.57 178.26 184.40 178.52 183.83 179.40 C 183.27 180.28 183.52 181.45 184.40 182.02 Z M 185.23 182.54 L 186.08 183.09 C 186.95 183.66 188.12 183.41 188.69 182.54 C 189.26 181.67 189.01 180.50 188.14 179.93 L 187.29 179.38 C 186.42 178.81 185.25 179.05 184.68 179.93 C 184.11 180.80 184.36 181.97 185.23 182.54 Z M 186.07 183.08 L 186.91 183.63 C 187.77 184.20 188.94 183.96 189.51 183.09 C 190.09 182.23 189.85 181.06 188.98 180.49 L 188.14 179.94 C 187.27 179.37 186.11 179.61 185.54 180.47 C 184.96 181.34 185.20 182.51 186.07 183.08 Z M 186.90 183.62 L 187.73 184.17 C 188.60 184.75 189.76 184.51 190.33 183.65 C 190.91 182.78 190.67 181.62 189.81 181.05 L 188.98 180.50 C 188.12 179.92 186.95 180.16 186.38 181.02 C 185.81 181.88 186.04 183.05 186.90 183.62 Z M 187.73 184.17 L 188.56 184.71 C 189.42 185.29 190.58 185.06 191.15 184.20 C 191.72 183.34 191.49 182.18 190.63 181.60 L 189.81 181.05 C 188.95 180.48 187.79 180.71 187.21 181.57 C 186.64 182.43 186.87 183.59 187.73 184.17 Z M 188.56 184.71 L 189.37 185.25 C 190.22 185.82 191.38 185.59 191.95 184.73 C 192.52 183.88 192.29 182.72 191.44 182.15 L 190.63 181.61 C 189.77 181.04 188.62 181.27 188.05 182.12 C 187.48 182.98 187.71 184.14 188.56 184.71 Z M 189.36 185.23 L 190.17 185.78 C 191.02 186.35 192.17 186.13 192.74 185.29 C 193.32 184.44 193.10 183.29 192.25 182.72 L 191.44 182.17 C 190.59 181.59 189.44 181.81 188.87 182.66 C 188.29 183.51 188.52 184.66 189.36 185.23 Z M 190.16 185.76 L 190.98 186.33 C 191.81 186.91 192.96 186.71 193.54 185.87 C 194.12 185.04 193.92 183.89 193.08 183.31 L 192.26 182.74 C 191.43 182.16 190.28 182.36 189.70 183.20 C 189.12 184.03 189.32 185.18 190.16 185.76 Z M 190.96 186.30 L 191.79 186.91 C 192.61 187.50 193.76 187.32 194.35 186.50 C 194.94 185.68 194.76 184.53 193.94 183.94 L 193.11 183.34 C 192.29 182.74 191.14 182.93 190.55 183.75 C 189.95 184.56 190.14 185.71 190.96 186.30 Z M 191.77 186.88 L 192.57 187.48 C 193.37 188.09 194.51 187.93 195.12 187.13 C 195.73 186.33 195.57 185.18 194.77 184.58 L 193.97 183.97 C 193.16 183.36 192.02 183.52 191.41 184.32 C 190.80 185.13 190.96 186.27 191.77 186.88 Z M 192.54 187.45 L 193.31 188.07 C 194.10 188.69 195.24 188.56 195.86 187.77 C 196.49 186.99 196.35 185.85 195.57 185.22 L 194.79 184.61 C 194.01 183.98 192.87 184.12 192.25 184.90 C 191.62 185.68 191.75 186.83 192.54 187.45 Z M 193.28 188.03 L 194.05 188.68 C 194.82 189.32 195.96 189.22 196.60 188.45 C 197.24 187.69 197.14 186.55 196.37 185.91 L 195.60 185.26 C 194.84 184.62 193.70 184.72 193.06 185.48 C 192.41 186.25 192.52 187.39 193.28 188.03 Z M 194.02 188.64 L 194.77 189.31 C 195.52 189.97 196.65 189.90 197.32 189.16 C 197.98 188.42 197.91 187.28 197.17 186.62 L 196.41 185.95 C 195.67 185.29 194.53 185.35 193.87 186.10 C 193.21 186.84 193.27 187.98 194.02 188.64 Z M 194.73 189.26 L 195.46 189.96 C 196.18 190.64 197.31 190.61 198.00 189.90 C 198.68 189.18 198.65 188.05 197.94 187.36 L 197.21 186.67 C 196.49 185.98 195.36 186.01 194.67 186.73 C 193.99 187.44 194.02 188.58 194.73 189.26 Z M 195.42 189.90 L 196.15 190.66 C 196.83 191.36 197.96 191.38 198.67 190.70 C 199.38 190.01 199.40 188.89 198.71 188.18 L 197.98 187.42 C 197.30 186.71 196.17 186.69 195.46 187.38 C 194.75 188.06 194.73 189.19 195.42 189.90 Z M 196.10 190.58 L 196.80 191.37 C 197.44 192.11 198.56 192.18 199.29 191.54 C 200.02 190.90 200.10 189.78 199.46 189.04 L 198.76 188.25 C 198.12 187.52 197.00 187.44 196.27 188.09 C 195.53 188.73 195.46 189.85 196.10 190.58 Z M 196.75 191.29 L 197.37 192.09 C 197.97 192.85 199.07 192.98 199.83 192.39 C 200.59 191.79 200.73 190.69 200.13 189.93 L 199.51 189.13 C 198.91 188.37 197.81 188.23 197.05 188.83 C 196.28 189.43 196.15 190.53 196.75 191.29 Z M 197.32 191.99 L 197.86 192.78 C 198.40 193.57 199.48 193.78 200.27 193.24 C 201.06 192.70 201.26 191.62 200.73 190.83 L 200.18 190.03 C 199.64 189.24 198.56 189.03 197.77 189.57 C 196.98 190.11 196.78 191.19 197.32 191.99 Z M 197.80 192.66 L 198.26 193.46 C 198.73 194.29 199.78 194.57 200.60 194.10 C 201.43 193.63 201.72 192.58 201.24 191.76 L 200.78 190.95 C 200.31 190.13 199.26 189.84 198.44 190.31 C 197.62 190.78 197.33 191.83 197.80 192.66 Z M 198.20 193.30 L 198.62 194.26 C 199.00 195.12 200.01 195.51 200.87 195.13 C 201.73 194.75 202.11 193.74 201.73 192.89 L 201.31 191.92 C 200.93 191.06 199.92 190.68 199.06 191.06 C 198.21 191.44 197.82 192.44 198.20 193.30 Z M 198.58 194.10 L 198.90 195.05 C 199.19 195.93 200.14 196.40 201.02 196.11 C 201.90 195.82 202.38 194.87 202.09 193.99 L 201.77 193.04 C 201.48 192.16 200.53 191.69 199.65 191.98 C 198.77 192.27 198.29 193.22 198.58 194.10 Z M 198.89 194.94 L 199.13 195.87 C 199.37 196.75 200.27 197.28 201.16 197.05 C 202.05 196.82 202.58 195.91 202.34 195.02 L 202.10 194.09 C 201.86 193.21 200.95 192.68 200.07 192.91 C 199.18 193.14 198.65 194.05 198.89 194.94 Z M 199.14 195.83 L 199.24 196.26 C 199.46 197.15 200.34 197.69 201.23 197.48 C 202.11 197.26 202.65 196.37 202.44 195.49 L 202.34 195.06 C 202.12 194.18 201.23 193.63 200.35 193.85 C 199.47 194.06 198.92 194.95 199.14 195.83 Z"
      fill="black"
      fill-rule="nonzero" /></svg>