<svg xmlns="http://www.w3.org/2000/svg" width="300" height="300" viewBox="0 0 300 300">
<path d="M 138.50 100.45 L 137.90 101.17 C 137.29 101.91 137.39 103.00 138.13 103.61 C 138.86 104.22 139.96 104.12 140.57 103.39 L 141.17 102.66 C 141.78 101.92 141.68 100.83 140.94 100.22 C 140.21 99.61 139.11 99.71 138.50 100.45 Z M 137.86 101.23 L 137.27 102.00 C 136.69 102.76 136.83 103.85 137.59 104.43 C 138.35 105.01 139.44 104.86 140.02 104.10 L 140.61 103.33 C 141.19 102.57 141.05 101.48 140.29 100.90 C 139.53 100.32 138.44 100.47 137.86 101.23 Z M 137.20 102.10 L 136.63 102.96 C 136.11 103.77 136.33 104.84 137.13 105.36 C 137.93 105.89 139.00 105.66 139.53 104.86 L 140.09 104.00 C 140.62 103.20 140.39 102.13 139.59 101.60 C 138.79 101.08 137.72 101.30 137.20 102.10 Z M 136.55 103.10 L 136.06 104.01 C 135.61 104.85 135.93 105.90 136.78 106.35 C 137.62 106.80 138.67 106.49 139.12 105.64 L 139.61 104.73 C 140.06 103.89 139.74 102.84 138.90 102.39 C 138.05 101.94 137.00 102.25 136.55 103.10 Z M 136.01 104.13 L 135.60 105.05 C 135.21 105.93 135.61 106.95 136.49 107.33 C 137.36 107.72 138.39 107.32 138.77 106.45 L 139.18 105.52 C 139.56 104.65 139.16 103.63 138.29 103.24 C 137.41 102.86 136.39 103.25 136.01 104.13 Z M 135.56 105.14 L 135.20 106.11 C 134.87 107.01 135.32 108.00 136.22 108.34 C 137.12 108.67 138.11 108.22 138.45 107.32 L 138.81 106.35 C 139.14 105.46 138.69 104.46 137.79 104.13 C 136.89 103.79 135.90 104.25 135.56 105.14 Z M 135.17 106.19 L 134.87 107.16 C 134.58 108.07 135.09 109.04 136.00 109.33 C 136.91 109.62 137.89 109.11 138.17 108.20 L 138.48 107.24 C 138.76 106.32 138.26 105.35 137.35 105.06 C 136.43 104.77 135.46 105.28 135.17 106.19 Z M 134.84 107.25 L 134.59 108.22 C 134.36 109.15 134.91 110.09 135.84 110.33 C 136.77 110.57 137.71 110.01 137.95 109.08 L 138.20 108.11 C 138.44 107.18 137.88 106.24 136.95 106.00 C 136.03 105.76 135.08 106.32 134.84 107.25 Z M 134.57 108.34 L 134.38 109.38 C 134.21 110.32 134.83 111.22 135.77 111.39 C 136.71 111.56 137.61 110.94 137.78 110.00 L 137.97 108.96 C 138.15 108.02 137.52 107.12 136.58 106.95 C 135.64 106.78 134.74 107.40 134.57 108.34 Z M 134.36 109.52 L 134.26 110.49 C 134.17 111.44 134.86 112.28 135.81 112.38 C 136.77 112.47 137.61 111.78 137.71 110.83 L 137.80 109.86 C 137.90 108.91 137.20 108.06 136.25 107.97 C 135.30 107.87 134.45 108.57 134.36 109.52 Z M 134.26 110.62 L 134.24 111.56 C 134.22 112.52 134.98 113.31 135.93 113.33 C 136.89 113.34 137.68 112.59 137.70 111.63 L 137.71 110.69 C 137.73 109.73 136.97 108.95 136.02 108.93 C 135.06 108.91 134.27 109.67 134.26 110.62 Z M 134.24 111.70 L 134.31 112.74 C 134.36 113.69 135.18 114.42 136.13 114.36 C 137.08 114.31 137.81 113.49 137.75 112.54 L 137.69 111.49 C 137.63 110.54 136.81 109.82 135.86 109.87 C 134.91 109.93 134.19 110.75 134.24 111.70 Z M 134.35 113.01 L 134.56 113.99 C 134.77 114.92 135.68 115.51 136.61 115.31 C 137.54 115.10 138.13 114.19 137.92 113.26 L 137.71 112.27 C 137.51 111.35 136.59 110.76 135.66 110.96 C 134.74 111.16 134.15 112.08 134.35 113.01 Z M 134.75 114.46 L 135.20 115.27 C 135.66 116.10 136.71 116.39 137.53 115.93 C 138.36 115.47 138.65 114.43 138.19 113.60 L 137.74 112.79 C 137.28 111.97 136.24 111.67 135.41 112.13 C 134.58 112.59 134.29 113.63 134.75 114.46 Z M 135.67 115.81 L 136.38 116.33 C 137.14 116.90 138.21 116.75 138.77 115.99 C 139.34 115.24 139.18 114.17 138.43 113.60 L 137.72 113.07 C 136.96 112.51 135.89 112.66 135.33 113.42 C 134.77 114.17 134.92 115.24 135.67 115.81 Z M 136.85 116.58 L 137.78 116.90 C 138.66 117.20 139.63 116.73 139.94 115.84 C 140.25 114.95 139.77 113.98 138.88 113.68 L 137.96 113.36 C 137.07 113.05 136.10 113.52 135.79 114.41 C 135.49 115.30 135.96 116.27 136.85 116.58 Z M 138.07 116.96 L 139.13 117.13 C 140.05 117.28 140.92 116.64 141.07 115.72 C 141.21 114.79 140.58 113.92 139.65 113.78 L 138.59 113.61 C 137.67 113.46 136.80 114.09 136.65 115.02 C 136.51 115.95 137.14 116.82 138.07 116.96 Z M 139.28 117.14 L 140.31 117.21 C 141.24 117.27 142.05 116.56 142.11 115.63 C 142.17 114.69 141.46 113.89 140.53 113.83 L 139.50 113.76 C 138.57 113.70 137.76 114.41 137.70 115.34 C 137.64 116.28 138.35 117.08 139.28 117.14 Z M 140.42 117.21 L 141.42 117.21 C 142.36 117.20 143.11 116.44 143.11 115.51 C 143.11 114.57 142.35 113.82 141.41 113.82 L 140.41 113.83 C 139.48 113.83 138.72 114.59 138.73 115.53 C 138.73 116.46 139.49 117.22 140.42 117.21 Z M 141.55 117.20 L 142.55 117.12 C 143.48 117.05 144.18 116.24 144.10 115.31 C 144.03 114.38 143.22 113.68 142.29 113.75 L 141.29 113.83 C 140.35 113.90 139.66 114.72 139.73 115.65 C 139.80 116.58 140.62 117.27 141.55 117.20 Z M 142.69 117.11 L 143.68 116.95 C 144.60 116.80 145.22 115.93 145.08 115.01 C 144.93 114.09 144.06 113.46 143.14 113.61 L 142.15 113.77 C 141.23 113.92 140.60 114.79 140.75 115.71 C 140.90 116.63 141.76 117.25 142.69 117.11 Z M 143.81 116.92 L 144.80 116.68 C 145.70 116.45 146.26 115.54 146.03 114.63 C 145.81 113.72 144.89 113.17 143.98 113.39 L 143.00 113.63 C 142.09 113.86 141.54 114.78 141.76 115.68 C 141.99 116.59 142.91 117.15 143.81 116.92 Z M 144.88 116.66 L 145.84 116.38 C 146.74 116.11 147.25 115.16 146.98 114.26 C 146.72 113.36 145.77 112.85 144.87 113.12 L 143.90 113.40 C 143.00 113.67 142.49 114.62 142.76 115.52 C 143.03 116.42 143.98 116.93 144.88 116.66 Z M 145.85 116.38 L 146.80 116.10 C 147.70 115.82 148.21 114.87 147.94 113.96 C 147.67 113.06 146.71 112.55 145.81 112.82 L 144.86 113.11 C 143.96 113.38 143.45 114.34 143.72 115.24 C 143.99 116.15 144.95 116.66 145.85 116.38 Z M 146.73 116.12 L 147.74 115.86 C 148.66 115.63 149.22 114.70 148.98 113.78 C 148.75 112.86 147.81 112.30 146.90 112.54 L 145.88 112.80 C 144.96 113.03 144.41 113.96 144.64 114.88 C 144.87 115.80 145.81 116.36 146.73 116.12 Z M 147.53 115.91 L 148.59 115.78 C 149.54 115.66 150.21 114.80 150.09 113.86 C 149.97 112.91 149.11 112.24 148.17 112.36 L 147.11 112.49 C 146.16 112.61 145.49 113.47 145.61 114.41 C 145.73 115.36 146.59 116.03 147.53 115.91 Z M 148.10 115.77 L 149.01 115.92 C 149.95 116.07 150.84 115.44 150.99 114.50 C 151.15 113.56 150.51 112.67 149.57 112.52 L 148.66 112.37 C 147.72 112.21 146.84 112.85 146.68 113.79 C 146.53 114.73 147.16 115.62 148.10 115.77 Z M 148.20 115.56 L 148.84 116.08 C 149.58 116.68 150.67 116.56 151.27 115.82 C 151.87 115.08 151.76 113.99 151.02 113.39 L 150.38 112.88 C 149.64 112.28 148.55 112.39 147.95 113.13 C 147.35 113.87 147.46 114.96 148.20 115.56 Z M 148.36 115.45 L 148.73 116.27 C 149.12 117.13 150.15 117.52 151.02 117.12 C 151.89 116.72 152.27 115.70 151.87 114.83 L 151.50 114.02 C 151.10 113.15 150.08 112.77 149.21 113.16 C 148.34 113.56 147.96 114.58 148.36 115.45 Z M 148.61 115.90 L 148.82 116.92 C 149.01 117.86 149.93 118.46 150.86 118.26 C 151.80 118.07 152.40 117.16 152.20 116.22 L 151.99 115.20 C 151.80 114.26 150.88 113.66 149.95 113.86 C 149.02 114.05 148.41 114.97 148.61 115.90 Z M 148.79 116.74 L 148.90 117.86 C 149.00 118.81 149.84 119.50 150.79 119.41 C 151.74 119.32 152.43 118.47 152.34 117.52 L 152.23 116.40 C 152.14 115.45 151.29 114.76 150.34 114.85 C 149.39 114.95 148.70 115.79 148.79 116.74 Z M 148.90 117.78 L 148.95 118.74 C 149.00 119.69 149.81 120.43 150.76 120.38 C 151.71 120.33 152.44 119.52 152.39 118.57 L 152.35 117.60 C 152.30 116.65 151.49 115.92 150.54 115.97 C 149.58 116.01 148.85 116.83 148.90 117.78 Z M 148.95 118.66 L 148.95 119.64 C 148.96 120.59 149.73 121.35 150.68 121.35 C 151.63 121.35 152.40 120.57 152.40 119.62 L 152.39 118.65 C 152.39 117.70 151.61 116.93 150.66 116.93 C 149.71 116.94 148.95 117.71 148.95 118.66 Z M 148.96 119.54 L 148.91 120.54 C 148.86 121.49 149.59 122.30 150.54 122.35 C 151.48 122.39 152.29 121.66 152.34 120.72 L 152.39 119.72 C 152.44 118.77 151.71 117.96 150.76 117.91 C 149.81 117.86 149.01 118.59 148.96 119.54 Z M 148.92 120.44 L 148.80 121.49 C 148.70 122.43 149.38 123.28 150.32 123.38 C 151.26 123.49 152.11 122.81 152.21 121.87 L 152.33 120.82 C 152.43 119.88 151.75 119.03 150.81 118.93 C 149.87 118.82 149.02 119.50 148.92 120.44 Z M 148.82 121.40 L 148.67 122.31 C 148.52 123.24 149.15 124.12 150.09 124.27 C 151.02 124.43 151.90 123.79 152.05 122.86 L 152.20 121.95 C 152.35 121.02 151.72 120.14 150.78 119.99 C 149.85 119.84 148.97 120.47 148.82 121.40 Z M 148.69 122.25 L 148.50 123.20 C 148.31 124.12 148.91 125.02 149.83 125.21 C 150.75 125.40 151.65 124.80 151.84 123.88 L 152.03 122.92 C 152.22 122.00 151.62 121.10 150.70 120.92 C 149.78 120.73 148.88 121.33 148.69 122.25 Z M 148.51 123.15 L 148.28 124.13 C 148.07 125.05 148.64 125.96 149.55 126.18 C 150.46 126.39 151.38 125.82 151.59 124.91 L 151.82 123.93 C 152.04 123.01 151.47 122.10 150.56 121.88 C 149.64 121.67 148.73 122.24 148.51 123.15 Z M 148.30 124.09 L 148.03 125.10 C 147.80 126.01 148.34 126.94 149.25 127.17 C 150.15 127.41 151.08 126.87 151.32 125.96 L 151.58 124.95 C 151.82 124.04 151.27 123.12 150.37 122.88 C 149.46 122.64 148.53 123.19 148.30 124.09 Z M 148.05 125.07 L 147.76 126.09 C 147.51 126.98 148.03 127.92 148.93 128.17 C 149.83 128.43 150.76 127.90 151.02 127.00 L 151.30 125.99 C 151.56 125.09 151.03 124.16 150.13 123.90 C 149.24 123.65 148.30 124.17 148.05 125.07 Z M 147.77 126.06 L 147.49 127.00 C 147.23 127.89 147.73 128.83 148.62 129.10 C 149.52 129.36 150.46 128.86 150.72 127.97 L 151.00 127.03 C 151.27 126.14 150.76 125.20 149.87 124.93 C 148.98 124.66 148.04 125.17 147.77 126.06 Z M 147.51 126.98 L 147.21 127.92 C 146.93 128.81 147.42 129.75 148.31 130.03 C 149.19 130.31 150.14 129.81 150.41 128.93 L 150.71 127.98 C 150.99 127.10 150.50 126.16 149.61 125.88 C 148.73 125.60 147.78 126.09 147.51 126.98 Z M 147.22 127.90 L 146.91 128.86 C 146.62 129.73 147.10 130.68 147.98 130.97 C 148.86 131.25 149.80 130.78 150.09 129.90 L 150.40 128.95 C 150.69 128.07 150.21 127.12 149.33 126.83 C 148.45 126.55 147.51 127.03 147.22 127.90 Z M 146.92 128.84 L 146.60 129.80 C 146.30 130.67 146.77 131.62 147.64 131.91 C 148.51 132.21 149.46 131.74 149.76 130.87 L 150.08 129.91 C 150.38 129.04 149.91 128.09 149.04 127.80 C 148.16 127.50 147.22 127.97 146.92 128.84 Z M 146.61 129.79 L 146.27 130.75 C 145.97 131.62 146.43 132.57 147.30 132.87 C 148.16 133.17 149.11 132.71 149.41 131.84 L 149.75 130.88 C 150.05 130.01 149.59 129.07 148.72 128.76 C 147.86 128.46 146.91 128.92 146.61 129.79 Z M 146.28 130.74 L 145.95 131.68 C 145.64 132.54 146.09 133.49 146.95 133.80 C 147.81 134.11 148.76 133.66 149.07 132.79 L 149.40 131.85 C 149.71 130.99 149.26 130.04 148.40 129.74 C 147.54 129.43 146.59 129.88 146.28 130.74 Z M 145.96 131.68 L 145.62 132.61 C 145.31 133.47 145.75 134.41 146.60 134.72 C 147.46 135.03 148.40 134.59 148.71 133.74 L 149.06 132.80 C 149.37 131.95 148.93 131.00 148.07 130.69 C 147.21 130.38 146.27 130.82 145.96 131.68 Z M 145.63 132.60 L 145.28 133.54 C 144.96 134.39 145.40 135.33 146.24 135.65 C 147.09 135.97 148.04 135.53 148.36 134.68 L 148.70 133.75 C 149.02 132.90 148.59 131.95 147.74 131.64 C 146.89 131.32 145.94 131.75 145.63 132.60 Z M 145.29 133.53 L 144.93 134.47 C 144.61 135.31 145.04 136.25 145.88 136.57 C 146.72 136.90 147.67 136.47 147.99 135.63 L 148.34 134.69 C 148.66 133.85 148.24 132.91 147.40 132.58 C 146.56 132.26 145.61 132.69 145.29 133.53 Z M 144.95 134.46 L 144.58 135.39 C 144.25 136.23 144.67 137.17 145.50 137.50 C 146.34 137.83 147.28 137.41 147.61 136.58 L 147.97 135.64 C 148.30 134.80 147.89 133.86 147.05 133.53 C 146.22 133.21 145.27 133.62 144.95 134.46 Z M 144.59 135.38 L 144.22 136.32 C 143.89 137.15 144.29 138.09 145.12 138.42 C 145.95 138.75 146.89 138.35 147.22 137.52 L 147.60 136.59 C 147.93 135.76 147.53 134.81 146.70 134.48 C 145.87 134.15 144.93 134.55 144.59 135.38 Z M 144.23 136.31 L 143.84 137.25 C 143.50 138.07 143.89 139.02 144.72 139.35 C 145.54 139.69 146.48 139.30 146.82 138.48 L 147.21 137.53 C 147.55 136.71 147.16 135.77 146.33 135.43 C 145.51 135.09 144.57 135.48 144.23 136.31 Z M 143.85 137.24 L 143.46 138.18 C 143.11 138.99 143.49 139.93 144.31 140.28 C 145.12 140.62 146.06 140.24 146.41 139.43 L 146.81 138.49 C 147.15 137.68 146.77 136.74 145.96 136.39 C 145.14 136.04 144.20 136.42 143.85 137.24 Z M 143.47 138.16 L 143.07 139.08 C 142.71 139.89 143.08 140.83 143.89 141.19 C 144.69 141.54 145.63 141.17 145.99 140.37 L 146.39 139.44 C 146.75 138.64 146.38 137.70 145.57 137.34 C 144.77 136.99 143.83 137.35 143.47 138.16 Z M 143.08 139.07 L 142.67 139.97 C 142.31 140.77 142.66 141.71 143.46 142.07 C 144.26 142.44 145.20 142.08 145.56 141.29 L 145.97 140.38 C 146.34 139.58 145.98 138.64 145.18 138.28 C 144.39 137.92 143.45 138.27 143.08 139.07 Z M 142.69 139.95 L 142.27 140.83 C 141.90 141.62 142.24 142.56 143.02 142.94 C 143.81 143.31 144.75 142.97 145.13 142.18 L 145.54 141.30 C 145.92 140.52 145.58 139.57 144.79 139.20 C 144.00 138.83 143.06 139.16 142.69 139.95 Z M 142.29 140.81 L 141.86 141.69 C 141.47 142.47 141.79 143.41 142.57 143.80 C 143.35 144.18 144.29 143.86 144.68 143.08 L 145.11 142.21 C 145.50 141.43 145.18 140.48 144.40 140.10 C 143.62 139.71 142.68 140.03 142.29 140.81 Z M 141.87 141.66 L 141.42 142.53 C 141.02 143.30 141.32 144.25 142.09 144.65 C 142.86 145.05 143.80 144.75 144.20 143.98 L 144.66 143.11 C 145.06 142.34 144.76 141.39 143.99 140.99 C 143.22 140.59 142.27 140.89 141.87 141.66 Z M 141.44 142.50 L 140.97 143.36 C 140.55 144.11 140.83 145.07 141.59 145.49 C 142.34 145.90 143.30 145.63 143.71 144.87 L 144.19 144.01 C 144.60 143.25 144.33 142.30 143.57 141.88 C 142.81 141.46 141.86 141.74 141.44 142.50 Z M 140.99 143.33 L 140.49 144.18 C 140.06 144.93 140.31 145.89 141.06 146.32 C 141.80 146.76 142.76 146.50 143.20 145.76 L 143.69 144.90 C 144.13 144.15 143.88 143.19 143.13 142.76 C 142.38 142.32 141.42 142.58 140.99 143.33 Z M 140.51 144.15 L 139.98 145.02 C 139.53 145.76 139.76 146.72 140.49 147.17 C 141.23 147.62 142.19 147.39 142.64 146.65 L 143.18 145.79 C 143.63 145.05 143.40 144.09 142.66 143.64 C 141.92 143.18 140.96 143.42 140.51 144.15 Z M 140.00 144.99 L 139.45 145.84 C 138.99 146.57 139.20 147.53 139.92 148.00 C 140.65 148.47 141.61 148.26 142.08 147.53 L 142.62 146.68 C 143.09 145.96 142.88 144.99 142.16 144.52 C 141.43 144.06 140.46 144.27 140.00 144.99 Z M 139.47 145.82 L 138.94 146.61 C 138.46 147.33 138.66 148.30 139.37 148.77 C 140.09 149.25 141.06 149.06 141.54 148.34 L 142.06 147.55 C 142.54 146.83 142.35 145.87 141.63 145.39 C 140.91 144.91 139.95 145.10 139.47 145.82 Z M 138.95 146.59 L 138.40 147.40 C 137.91 148.11 138.09 149.08 138.80 149.57 C 139.51 150.06 140.49 149.88 140.97 149.17 L 141.53 148.36 C 142.01 147.65 141.83 146.67 141.12 146.19 C 140.41 145.70 139.44 145.88 138.95 146.59 Z M 138.41 147.39 L 137.83 148.21 C 137.34 148.92 137.51 149.89 138.21 150.39 C 138.92 150.88 139.89 150.71 140.39 150.00 L 140.96 149.18 C 141.46 148.47 141.29 147.50 140.58 147.01 C 139.87 146.51 138.90 146.68 138.41 147.39 Z M 137.84 148.21 L 137.24 149.04 C 136.74 149.74 136.91 150.72 137.61 151.22 C 138.32 151.72 139.29 151.55 139.79 150.85 L 140.38 150.01 C 140.88 149.31 140.71 148.33 140.01 147.84 C 139.31 147.34 138.33 147.50 137.84 148.21 Z M 137.25 149.04 L 136.64 149.88 C 136.14 150.58 136.31 151.56 137.01 152.06 C 137.71 152.56 138.68 152.40 139.18 151.69 L 139.79 150.85 C 140.29 150.15 140.13 149.18 139.42 148.67 C 138.72 148.17 137.75 148.34 137.25 149.04 Z M 136.65 149.88 L 136.18 150.53 C 135.68 151.23 135.84 152.20 136.54 152.70 C 137.24 153.21 138.21 153.05 138.72 152.35 L 139.18 151.70 C 139.69 151.00 139.52 150.02 138.82 149.52 C 138.12 149.02 137.15 149.18 136.65 149.88 Z"
      fill="black"
      fill-rule="nonzero" /><path d="M 130.09 127.41 L 129.69 128.30 C 129.32 129.14 129.69 130.13 130.53 130.50 C 131.37 130.88 132.36 130.50 132.73 129.66 L 133.14 128.77 C 133.51 127.93 133.14 126.94 132.29 126.57 C 131.45 126.19 130.47 126.57 130.09 127.41 Z M 129.67 128.35 L 129.30 129.27 C 128.95 130.12 129.36 131.10 130.21 131.44 C 131.06 131.79 132.03 131.38 132.38 130.53 L 132.76 129.61 C 133.10 128.76 132.69 127.79 131.84 127.44 C 130.99 127.09 130.02 127.50 129.67 128.35 Z M 129.26 129.37 L 128.94 130.34 C 128.65 131.21 129.12 132.15 129.99 132.44 C 130.86 132.74 131.81 132.26 132.10 131.39 L 132.42 130.43 C 132.71 129.55 132.24 128.61 131.37 128.32 C 130.49 128.03 129.55 128.50 129.26 129.37 Z M 128.89 130.49 L 128.65 131.53 C 128.45 132.42 129.00 133.32 129.90 133.53 C 130.80 133.73 131.69 133.18 131.90 132.28 L 132.14 131.24 C 132.35 130.34 131.79 129.45 130.89 129.24 C 130.00 129.03 129.10 129.59 128.89 130.49 Z M 128.62 131.77 L 128.53 132.81 C 128.46 133.73 129.14 134.53 130.06 134.61 C 130.97 134.68 131.78 134.00 131.85 133.08 L 131.94 132.04 C 132.01 131.12 131.33 130.32 130.41 130.24 C 129.49 130.17 128.69 130.85 128.62 131.77 Z M 128.55 133.24 L 128.72 134.16 C 128.88 135.07 129.75 135.67 130.65 135.51 C 131.56 135.35 132.16 134.48 132.00 133.57 L 131.83 132.65 C 131.67 131.74 130.80 131.14 129.90 131.30 C 128.99 131.47 128.39 132.33 128.55 133.24 Z M 129.01 134.85 L 129.52 135.55 C 130.06 136.29 131.10 136.46 131.85 135.92 C 132.59 135.37 132.75 134.33 132.21 133.59 L 131.70 132.89 C 131.16 132.15 130.12 131.98 129.38 132.52 C 128.64 133.06 128.47 134.10 129.01 134.85 Z M 130.07 136.02 L 130.90 136.47 C 131.70 136.91 132.71 136.62 133.15 135.82 C 133.59 135.02 133.29 134.01 132.49 133.57 L 131.66 133.12 C 130.86 132.68 129.86 132.97 129.42 133.77 C 128.98 134.58 129.27 135.58 130.07 136.02 Z M 131.27 136.61 L 132.28 136.88 C 133.16 137.12 134.06 136.60 134.30 135.72 C 134.53 134.85 134.01 133.94 133.14 133.71 L 132.12 133.44 C 131.25 133.20 130.35 133.72 130.11 134.60 C 129.88 135.47 130.40 136.37 131.27 136.61 Z M 132.46 136.91 L 133.48 137.06 C 134.37 137.20 135.20 136.59 135.34 135.70 C 135.47 134.81 134.86 133.98 133.97 133.84 L 132.95 133.69 C 132.07 133.55 131.24 134.16 131.10 135.05 C 130.96 135.94 131.57 136.77 132.46 136.91 Z M 133.57 137.06 L 134.52 137.15 C 135.40 137.23 136.19 136.58 136.28 135.70 C 136.36 134.81 135.71 134.02 134.83 133.94 L 133.88 133.85 C 133.00 133.76 132.21 134.41 132.12 135.29 C 132.04 136.18 132.69 136.97 133.57 137.06 Z M 134.59 137.13 L 135.56 137.19 C 136.44 137.24 137.19 136.56 137.24 135.68 C 137.29 134.80 136.62 134.05 135.74 134.00 L 134.76 133.95 C 133.88 133.90 133.13 134.58 133.08 135.45 C 133.03 136.33 133.71 137.09 134.59 137.13 Z M 135.61 137.17 L 136.68 137.20 C 137.55 137.22 138.27 136.54 138.30 135.67 C 138.32 134.80 137.63 134.07 136.76 134.05 L 135.69 134.02 C 134.82 134.00 134.10 134.68 134.08 135.55 C 134.05 136.42 134.74 137.15 135.61 137.17 Z M 136.70 137.19 L 137.68 137.20 C 138.54 137.21 139.25 136.52 139.27 135.66 C 139.28 134.79 138.59 134.08 137.72 134.07 L 136.74 134.06 C 135.88 134.05 135.17 134.74 135.16 135.60 C 135.15 136.47 135.84 137.18 136.70 137.19 Z M 137.69 137.20 L 138.71 137.21 C 139.57 137.21 140.28 136.52 140.28 135.66 C 140.29 134.79 139.59 134.09 138.73 134.08 L 137.71 134.07 C 136.85 134.07 136.14 134.76 136.14 135.63 C 136.13 136.49 136.83 137.20 137.69 137.20 Z M 138.71 137.21 L 139.75 137.21 C 140.61 137.21 141.31 136.52 141.31 135.65 C 141.32 134.79 140.62 134.09 139.76 134.09 L 138.72 134.08 C 137.86 134.08 137.16 134.78 137.16 135.64 C 137.15 136.50 137.85 137.20 138.71 137.21 Z M 139.75 137.21 L 140.75 137.21 C 141.61 137.21 142.31 136.51 142.32 135.65 C 142.32 134.79 141.62 134.09 140.75 134.09 L 139.75 134.09 C 138.89 134.09 138.19 134.78 138.19 135.65 C 138.19 136.51 138.89 137.21 139.75 137.21 Z M 140.75 137.21 L 141.81 137.21 C 142.67 137.21 143.37 136.51 143.37 135.65 C 143.37 134.79 142.67 134.09 141.81 134.09 L 140.75 134.09 C 139.89 134.09 139.19 134.79 139.19 135.65 C 139.19 136.51 139.89 137.21 140.75 137.21 Z M 141.81 137.21 L 142.85 137.21 C 143.71 137.21 144.41 136.51 144.41 135.65 C 144.41 134.79 143.71 134.09 142.85 134.09 L 141.81 134.09 C 140.95 134.09 140.25 134.79 140.25 135.65 C 140.25 136.51 140.95 137.21 141.81 137.21 Z M 142.85 137.21 L 143.80 137.21 C 144.67 137.21 145.36 136.51 145.36 135.65 C 145.36 134.79 144.67 134.09 143.80 134.09 L 142.85 134.09 C 141.98 134.09 141.28 134.79 141.28 135.65 C 141.28 136.51 141.98 137.21 142.85 137.21 Z M 143.80 137.21 L 144.61 137.21 C 145.47 137.21 146.17 136.51 146.17 135.65 C 146.17 134.79 145.47 134.09 144.61 134.09 L 143.80 134.09 C 142.94 134.09 142.24 134.79 142.24 135.65 C 142.24 136.51 142.94 137.21 143.80 137.21 Z"
      fill="black"
      fill-rule="nonzero" /><path d="M 151.01 140.74 L 150.64 141.68 C 150.30 142.54 150.73 143.51 151.59 143.85 C 152.45 144.19 153.42 143.76 153.76 142.90 L 154.13 141.97 C 154.47 141.10 154.04 140.13 153.18 139.79 C 152.32 139.46 151.35 139.88 151.01 140.74 Z M 150.64 141.66 L 150.27 142.59 C 149.92 143.45 150.33 144.43 151.19 144.77 C 152.05 145.12 153.03 144.71 153.38 143.85 L 153.76 142.92 C 154.10 142.06 153.69 141.08 152.83 140.73 C 151.97 140.39 150.99 140.80 150.64 141.66 Z M 150.28 142.56 L 149.89 143.47 C 149.52 144.32 149.92 145.31 150.77 145.68 C 151.62 146.04 152.61 145.65 152.98 144.79 L 153.37 143.88 C 153.73 143.03 153.34 142.04 152.49 141.67 C 151.63 141.31 150.64 141.70 150.28 142.56 Z M 149.90 143.42 L 149.49 144.32 C 149.10 145.16 149.47 146.16 150.31 146.55 C 151.15 146.94 152.16 146.58 152.55 145.73 L 152.96 144.84 C 153.35 144.00 152.98 143.00 152.14 142.61 C 151.30 142.21 150.30 142.58 149.90 143.42 Z M 149.51 144.28 L 149.07 145.17 C 148.66 146.00 149.00 147.01 149.84 147.42 C 150.67 147.83 151.68 147.49 152.10 146.65 L 152.53 145.77 C 152.94 144.93 152.60 143.92 151.76 143.51 C 150.93 143.10 149.92 143.45 149.51 144.28 Z M 149.08 145.15 L 148.62 146.05 C 148.20 146.88 148.54 147.90 149.37 148.32 C 150.20 148.74 151.22 148.40 151.64 147.57 L 152.09 146.67 C 152.51 145.84 152.17 144.82 151.34 144.40 C 150.51 143.98 149.50 144.32 149.08 145.15 Z M 148.62 146.06 L 148.17 146.96 C 147.75 147.79 148.09 148.80 148.92 149.22 C 149.76 149.64 150.77 149.30 151.19 148.47 L 151.64 147.56 C 152.06 146.73 151.72 145.72 150.88 145.30 C 150.05 144.88 149.03 145.22 148.62 146.06 Z M 148.16 146.98 L 147.72 147.87 C 147.32 148.71 147.67 149.72 148.51 150.13 C 149.35 150.54 150.36 150.18 150.77 149.34 L 151.20 148.45 C 151.61 147.61 151.25 146.60 150.41 146.19 C 149.57 145.78 148.56 146.14 148.16 146.98 Z M 147.71 147.90 L 147.29 148.82 C 146.90 149.67 147.27 150.67 148.12 151.06 C 148.96 151.45 149.97 151.08 150.36 150.23 L 150.78 149.31 C 151.17 148.47 150.80 147.46 149.95 147.07 C 149.10 146.68 148.10 147.05 147.71 147.90 Z M 147.27 148.86 L 146.87 149.78 C 146.51 150.64 146.90 151.63 147.76 152.00 C 148.62 152.37 149.61 151.97 149.98 151.11 L 150.38 150.19 C 150.74 149.33 150.35 148.34 149.49 147.97 C 148.63 147.61 147.64 148.00 147.27 148.86 Z M 146.85 149.84 L 146.48 150.80 C 146.14 151.67 146.58 152.65 147.45 152.99 C 148.32 153.33 149.29 152.89 149.63 152.02 L 150.00 151.06 C 150.34 150.19 149.91 149.21 149.04 148.87 C 148.17 148.54 147.19 148.97 146.85 149.84 Z M 146.45 150.88 L 146.13 151.83 C 145.84 152.72 146.31 153.67 147.20 153.97 C 148.08 154.26 149.04 153.79 149.34 152.90 L 149.66 151.95 C 149.95 151.06 149.48 150.11 148.59 149.81 C 147.71 149.52 146.75 149.99 146.45 150.88 Z M 146.11 151.92 L 145.85 152.86 C 145.60 153.76 146.13 154.69 147.03 154.94 C 147.93 155.18 148.86 154.65 149.11 153.76 L 149.36 152.81 C 149.61 151.91 149.08 150.98 148.18 150.74 C 147.28 150.49 146.35 151.02 146.11 151.92 Z M 145.82 152.99 L 145.61 154.06 C 145.43 154.97 146.03 155.86 146.95 156.04 C 147.86 156.21 148.75 155.62 148.93 154.70 L 149.14 153.63 C 149.31 152.72 148.71 151.83 147.80 151.65 C 146.88 151.47 146.00 152.07 145.82 152.99 Z M 145.58 154.33 L 145.55 155.37 C 145.53 156.31 146.27 157.08 147.20 157.11 C 148.13 157.13 148.91 156.39 148.93 155.46 L 148.96 154.42 C 148.98 153.49 148.25 152.71 147.31 152.69 C 146.38 152.67 145.61 153.40 145.58 154.33 Z M 145.69 156.07 L 146.01 156.84 C 146.37 157.70 147.36 158.10 148.22 157.74 C 149.08 157.37 149.48 156.38 149.12 155.53 L 148.80 154.76 C 148.44 153.90 147.45 153.50 146.59 153.86 C 145.73 154.22 145.33 155.21 145.69 156.07 Z M 146.83 157.69 L 147.54 158.04 C 148.38 158.45 149.38 158.10 149.79 157.27 C 150.20 156.43 149.85 155.42 149.01 155.02 L 148.30 154.67 C 147.47 154.26 146.46 154.61 146.05 155.44 C 145.64 156.28 145.99 157.29 146.83 157.69 Z M 148.27 158.20 L 149.27 158.21 C 150.20 158.21 150.95 157.47 150.96 156.55 C 150.96 155.62 150.22 154.87 149.30 154.86 L 148.29 154.86 C 147.37 154.85 146.61 155.59 146.61 156.52 C 146.60 157.44 147.34 158.19 148.27 158.20 Z M 149.67 158.15 L 150.79 157.89 C 151.68 157.67 152.23 156.78 152.02 155.89 C 151.81 154.99 150.92 154.44 150.02 154.65 L 148.90 154.92 C 148.01 155.13 147.46 156.03 147.67 156.92 C 147.88 157.81 148.78 158.36 149.67 158.15 Z M 151.02 157.80 L 151.94 157.44 C 152.79 157.10 153.20 156.13 152.86 155.28 C 152.51 154.43 151.55 154.02 150.70 154.37 L 149.79 154.73 C 148.94 155.08 148.53 156.04 148.87 156.89 C 149.21 157.74 150.18 158.15 151.02 157.80 Z M 152.07 157.37 L 152.97 156.92 C 153.78 156.50 154.11 155.51 153.69 154.70 C 153.28 153.88 152.29 153.56 151.47 153.97 L 150.57 154.43 C 149.76 154.84 149.43 155.84 149.85 156.65 C 150.26 157.46 151.25 157.79 152.07 157.37 Z M 153.04 156.88 L 153.91 156.38 C 154.71 155.93 154.98 154.92 154.53 154.13 C 154.08 153.34 153.08 153.06 152.28 153.51 L 151.41 154.01 C 150.61 154.46 150.34 155.47 150.79 156.26 C 151.24 157.05 152.24 157.33 153.04 156.88 Z M 153.93 156.37 L 154.77 155.88 C 155.55 155.42 155.81 154.41 155.35 153.62 C 154.89 152.84 153.89 152.58 153.10 153.04 L 152.27 153.52 C 151.48 153.98 151.22 154.99 151.68 155.78 C 152.14 156.56 153.15 156.83 153.93 156.37 Z M 154.75 155.89 L 155.56 155.43 C 156.35 154.98 156.63 153.97 156.18 153.18 C 155.73 152.39 154.72 152.11 153.93 152.56 L 153.12 153.02 C 152.33 153.47 152.05 154.48 152.50 155.27 C 152.95 156.06 153.95 156.34 154.75 155.89 Z M 155.52 155.45 L 156.38 155.00 C 157.18 154.57 157.49 153.58 157.07 152.77 C 156.64 151.97 155.64 151.66 154.84 152.08 L 153.98 152.54 C 153.17 152.96 152.86 153.96 153.29 154.76 C 153.71 155.57 154.71 155.88 155.52 155.45 Z M 156.32 155.03 L 157.29 154.56 C 158.11 154.17 158.46 153.18 158.07 152.36 C 157.67 151.54 156.69 151.19 155.87 151.59 L 154.90 152.05 C 154.08 152.45 153.73 153.43 154.12 154.25 C 154.52 155.07 155.50 155.42 156.32 155.03 Z M 157.24 154.59 L 158.16 154.19 C 158.99 153.83 159.38 152.85 159.01 152.02 C 158.65 151.18 157.68 150.80 156.84 151.16 L 155.92 151.56 C 155.09 151.92 154.70 152.90 155.07 153.73 C 155.43 154.57 156.40 154.95 157.24 154.59 Z M 158.11 154.21 L 159.05 153.84 C 159.90 153.51 160.31 152.54 159.98 151.69 C 159.64 150.85 158.68 150.43 157.83 150.77 L 156.89 151.14 C 156.04 151.47 155.62 152.44 155.96 153.28 C 156.30 154.13 157.26 154.55 158.11 154.21 Z M 158.99 153.87 L 159.97 153.52 C 160.84 153.21 161.29 152.26 160.98 151.40 C 160.67 150.54 159.73 150.09 158.86 150.39 L 157.88 150.74 C 157.02 151.05 156.57 152.00 156.88 152.86 C 157.18 153.72 158.13 154.17 158.99 153.87 Z M 159.90 153.55 L 160.88 153.25 C 161.76 152.98 162.26 152.05 161.99 151.17 C 161.72 150.29 160.79 149.80 159.91 150.07 L 158.93 150.37 C 158.05 150.63 157.56 151.56 157.83 152.44 C 158.10 153.32 159.03 153.82 159.90 153.55 Z M 160.79 153.28 L 161.73 153.05 C 162.63 152.83 163.18 151.93 162.96 151.03 C 162.74 150.14 161.84 149.59 160.95 149.81 L 160.00 150.04 C 159.11 150.25 158.56 151.16 158.78 152.05 C 158.99 152.94 159.90 153.49 160.79 153.28 Z M 161.57 153.09 L 162.72 152.92 C 163.64 152.80 164.28 151.95 164.15 151.03 C 164.02 150.12 163.18 149.48 162.26 149.61 L 161.11 149.77 C 160.19 149.90 159.55 150.74 159.68 151.66 C 159.81 152.57 160.65 153.21 161.57 153.09 Z M 162.45 152.95 L 163.47 152.98 C 164.40 153.00 165.18 152.27 165.20 151.34 C 165.23 150.41 164.49 149.63 163.56 149.61 L 162.54 149.58 C 161.61 149.56 160.83 150.29 160.81 151.22 C 160.79 152.15 161.52 152.92 162.45 152.95 Z M 163.08 152.93 L 163.94 153.16 C 164.84 153.41 165.77 152.87 166.02 151.97 C 166.26 151.07 165.73 150.14 164.82 149.89 L 163.96 149.66 C 163.06 149.41 162.13 149.95 161.88 150.85 C 161.64 151.75 162.17 152.68 163.08 152.93 Z M 163.44 152.95 L 164.17 153.42 C 164.95 153.94 166.01 153.73 166.52 152.94 C 167.04 152.16 166.83 151.10 166.04 150.58 L 165.32 150.11 C 164.53 149.59 163.48 149.81 162.96 150.59 C 162.44 151.37 162.66 152.43 163.44 152.95 Z M 163.75 153.04 L 164.33 153.79 C 164.90 154.54 165.97 154.68 166.72 154.10 C 167.47 153.53 167.61 152.46 167.03 151.71 L 166.46 150.96 C 165.88 150.22 164.81 150.08 164.06 150.65 C 163.32 151.23 163.18 152.30 163.75 153.04 Z M 164.11 153.43 L 164.52 154.37 C 164.89 155.23 165.90 155.63 166.77 155.25 C 167.63 154.88 168.03 153.87 167.65 153.01 L 167.25 152.07 C 166.87 151.21 165.87 150.81 165.00 151.18 C 164.13 151.56 163.74 152.57 164.11 153.43 Z M 164.43 154.11 L 164.68 155.11 C 164.91 156.02 165.84 156.58 166.76 156.35 C 167.68 156.11 168.23 155.18 168.00 154.27 L 167.74 153.27 C 167.51 152.35 166.58 151.80 165.67 152.03 C 164.75 152.26 164.19 153.19 164.43 154.11 Z M 164.65 154.94 L 164.78 155.85 C 164.92 156.78 165.79 157.43 166.72 157.29 C 167.66 157.16 168.31 156.29 168.17 155.35 L 168.03 154.44 C 167.90 153.50 167.03 152.86 166.09 152.99 C 165.15 153.13 164.51 154.00 164.65 154.94 Z M 164.77 155.74 L 164.84 156.71 C 164.92 157.65 165.74 158.36 166.69 158.28 C 167.63 158.21 168.33 157.38 168.26 156.44 L 168.18 155.46 C 168.11 154.52 167.28 153.82 166.34 153.89 C 165.39 153.97 164.69 154.79 164.77 155.74 Z M 164.84 156.64 L 164.88 157.69 C 164.91 158.63 165.71 159.37 166.65 159.34 C 167.60 159.30 168.34 158.51 168.30 157.56 L 168.26 156.51 C 168.23 155.57 167.43 154.83 166.49 154.86 C 165.54 154.90 164.80 155.69 164.84 156.64 Z M 164.88 157.65 L 164.90 158.68 C 164.91 159.63 165.69 160.38 166.64 160.37 C 167.58 160.35 168.34 159.57 168.32 158.63 L 168.30 157.59 C 168.29 156.65 167.51 155.90 166.56 155.91 C 165.62 155.93 164.86 156.71 164.88 157.65 Z M 164.90 158.66 L 164.90 159.59 C 164.90 160.53 165.67 161.30 166.62 161.29 C 167.57 161.29 168.33 160.52 168.33 159.57 L 168.32 158.65 C 168.32 157.70 167.55 156.94 166.60 156.94 C 165.65 156.95 164.89 157.72 164.90 158.66 Z M 164.90 159.56 L 164.89 160.53 C 164.87 161.47 165.63 162.25 166.58 162.26 C 167.52 162.28 168.30 161.52 168.31 160.58 L 168.32 159.60 C 168.34 158.66 167.58 157.88 166.64 157.87 C 165.69 157.85 164.91 158.61 164.90 159.56 Z M 164.89 160.48 L 164.85 161.50 C 164.81 162.45 165.55 163.24 166.49 163.28 C 167.44 163.32 168.23 162.58 168.27 161.64 L 168.31 160.62 C 168.35 159.68 167.61 158.88 166.67 158.84 C 165.72 158.80 164.93 159.54 164.89 160.48 Z M 164.85 161.45 L 164.77 162.51 C 164.71 163.45 165.42 164.27 166.36 164.34 C 167.30 164.40 168.12 163.70 168.19 162.75 L 168.27 161.69 C 168.33 160.75 167.63 159.93 166.68 159.86 C 165.74 159.80 164.92 160.50 164.85 161.45 Z M 164.78 162.44 L 164.66 163.51 C 164.56 164.45 165.24 165.29 166.18 165.40 C 167.12 165.50 167.96 164.82 168.07 163.88 L 168.18 162.82 C 168.29 161.88 167.61 161.03 166.67 160.93 C 165.73 160.82 164.89 161.50 164.78 162.44 Z M 164.67 163.44 L 164.52 164.47 C 164.38 165.41 165.02 166.28 165.96 166.42 C 166.89 166.56 167.76 165.91 167.90 164.98 L 168.06 163.95 C 168.19 163.01 167.55 162.14 166.62 162.00 C 165.68 161.86 164.81 162.51 164.67 163.44 Z M 164.53 164.42 L 164.34 165.45 C 164.18 166.38 164.80 167.27 165.72 167.43 C 166.65 167.60 167.54 166.98 167.71 166.06 L 167.89 165.03 C 168.06 164.10 167.44 163.21 166.51 163.04 C 165.58 162.88 164.70 163.49 164.53 164.42 Z M 164.35 165.41 L 164.15 166.41 C 163.96 167.34 164.55 168.24 165.48 168.43 C 166.40 168.62 167.30 168.02 167.49 167.10 L 167.70 166.10 C 167.89 165.17 167.29 164.27 166.37 164.08 C 165.45 163.89 164.54 164.49 164.35 165.41 Z M 164.16 166.38 L 163.94 167.34 C 163.73 168.25 164.30 169.17 165.22 169.38 C 166.14 169.59 167.05 169.01 167.26 168.10 L 167.48 167.14 C 167.69 166.22 167.12 165.30 166.20 165.10 C 165.28 164.89 164.37 165.46 164.16 166.38 Z M 163.95 167.31 L 163.73 168.20 C 163.50 169.11 164.06 170.03 164.97 170.26 C 165.88 170.49 166.81 169.93 167.03 169.02 L 167.25 168.13 C 167.48 167.21 166.92 166.29 166.01 166.06 C 165.10 165.84 164.17 166.39 163.95 167.31 Z M 163.74 168.16 L 163.45 169.25 C 163.20 170.15 163.74 171.09 164.64 171.33 C 165.55 171.58 166.48 171.04 166.73 170.13 L 167.02 169.05 C 167.27 168.14 166.73 167.21 165.82 166.97 C 164.92 166.72 163.98 167.26 163.74 168.16 Z M 163.46 169.21 L 163.17 170.20 C 162.90 171.10 163.41 172.04 164.31 172.31 C 165.21 172.58 166.15 172.06 166.42 171.17 L 166.71 170.17 C 166.98 169.28 166.47 168.33 165.57 168.07 C 164.67 167.80 163.73 168.31 163.46 169.21 Z M 163.18 170.17 L 162.90 171.06 C 162.61 171.95 163.10 172.90 163.99 173.18 C 164.88 173.47 165.83 172.98 166.12 172.09 L 166.40 171.20 C 166.69 170.31 166.20 169.36 165.31 169.08 C 164.42 168.79 163.47 169.28 163.18 170.17 Z M 162.91 171.04 L 162.63 171.88 C 162.33 172.76 162.81 173.71 163.69 174.01 C 164.57 174.31 165.52 173.83 165.82 172.95 L 166.10 172.11 C 166.40 171.23 165.93 170.27 165.04 169.98 C 164.16 169.68 163.21 170.16 162.91 171.04 Z M 162.64 171.87 L 162.31 172.81 C 162.01 173.69 162.48 174.65 163.36 174.95 C 164.23 175.25 165.19 174.78 165.49 173.90 L 165.81 172.96 C 166.11 172.08 165.65 171.13 164.77 170.83 C 163.89 170.52 162.94 170.99 162.64 171.87 Z M 162.32 172.81 L 161.99 173.75 C 161.69 174.62 162.15 175.57 163.02 175.88 C 163.89 176.18 164.85 175.72 165.15 174.85 L 165.48 173.91 C 165.78 173.04 165.32 172.08 164.45 171.78 C 163.58 171.47 162.63 171.94 162.32 172.81 Z M 162.00 173.74 L 161.67 174.68 C 161.36 175.55 161.81 176.51 162.68 176.81 C 163.55 177.12 164.50 176.67 164.81 175.80 L 165.14 174.86 C 165.45 173.99 165.00 173.04 164.13 172.73 C 163.26 172.42 162.31 172.87 162.00 173.74 Z M 161.68 174.68 L 161.34 175.60 C 161.02 176.47 161.47 177.42 162.33 177.73 C 163.19 178.05 164.15 177.60 164.46 176.74 L 164.80 175.81 C 165.11 174.95 164.67 174.00 163.80 173.68 C 162.94 173.37 161.99 173.81 161.68 174.68 Z M 161.35 175.59 L 161.00 176.53 C 160.68 177.38 161.12 178.34 161.98 178.65 C 162.83 178.97 163.79 178.54 164.11 177.68 L 164.45 176.75 C 164.77 175.89 164.33 174.94 163.48 174.62 C 162.62 174.30 161.67 174.74 161.35 175.59 Z M 161.01 176.52 L 160.65 177.46 C 160.33 178.31 160.76 179.26 161.61 179.59 C 162.46 179.91 163.42 179.48 163.74 178.63 L 164.10 177.69 C 164.42 176.84 163.99 175.88 163.14 175.56 C 162.29 175.24 161.33 175.67 161.01 176.52 Z M 160.66 177.45 L 160.32 178.33 C 160.00 179.18 160.42 180.13 161.26 180.46 C 162.11 180.78 163.06 180.36 163.39 179.52 L 163.73 178.64 C 164.06 177.79 163.64 176.84 162.79 176.51 C 161.94 176.18 160.99 176.61 160.66 177.45 Z M 160.33 178.32 L 160.03 179.09 C 159.69 179.93 160.11 180.88 160.95 181.22 C 161.79 181.55 162.74 181.14 163.07 180.30 L 163.38 179.53 C 163.71 178.69 163.30 177.73 162.46 177.40 C 161.62 177.07 160.67 177.48 160.33 178.32 Z M 160.04 179.07 L 159.69 179.92 C 159.35 180.75 159.75 181.71 160.58 182.05 C 161.41 182.39 162.37 182.00 162.71 181.16 L 163.06 180.32 C 163.41 179.48 163.01 178.53 162.17 178.18 C 161.34 177.84 160.39 178.24 160.04 179.07 Z M 159.71 179.90 L 159.29 180.87 C 158.93 181.70 159.31 182.65 160.14 183.01 C 160.96 183.37 161.92 182.98 162.28 182.16 L 162.70 181.19 C 163.05 180.36 162.67 179.40 161.85 179.05 C 161.02 178.69 160.06 179.07 159.71 179.90 Z M 159.30 180.85 L 158.78 182.00 C 158.42 182.82 158.78 183.78 159.60 184.15 C 160.42 184.51 161.38 184.15 161.75 183.33 L 162.26 182.18 C 162.63 181.36 162.27 180.40 161.45 180.03 C 160.63 179.67 159.67 180.03 159.30 180.85 Z M 158.79 181.99 L 158.44 182.76 C 158.06 183.57 158.42 184.53 159.23 184.91 C 160.04 185.28 161.00 184.93 161.38 184.12 L 161.73 183.35 C 162.11 182.53 161.76 181.57 160.94 181.20 C 160.13 180.82 159.17 181.18 158.79 181.99 Z M 158.45 182.75 L 158.05 183.58 C 157.67 184.39 158.02 185.35 158.83 185.73 C 159.64 186.11 160.60 185.76 160.98 184.96 L 161.37 184.13 C 161.75 183.32 161.40 182.35 160.60 181.97 C 159.79 181.59 158.83 181.94 158.45 182.75 Z M 158.06 183.57 L 157.64 184.45 C 157.25 185.26 157.60 186.22 158.40 186.61 C 159.20 186.99 160.17 186.65 160.55 185.85 L 160.97 184.96 C 161.36 184.16 161.02 183.20 160.21 182.81 C 159.41 182.43 158.45 182.77 158.06 183.57 Z M 157.65 184.45 L 157.20 185.37 C 156.81 186.17 157.14 187.13 157.94 187.52 C 158.75 187.91 159.71 187.58 160.10 186.77 L 160.55 185.85 C 160.94 185.05 160.60 184.09 159.80 183.70 C 159.00 183.31 158.04 183.64 157.65 184.45 Z M 157.21 185.36 L 156.74 186.30 C 156.35 187.10 156.67 188.06 157.47 188.46 C 158.27 188.85 159.23 188.52 159.63 187.73 L 160.09 186.78 C 160.49 185.99 160.16 185.02 159.36 184.63 C 158.56 184.23 157.60 184.56 157.21 185.36 Z M 156.75 186.29 L 156.27 187.25 C 155.87 188.04 156.19 189.01 156.98 189.41 C 157.77 189.81 158.74 189.49 159.14 188.69 L 159.62 187.74 C 160.02 186.94 159.70 185.98 158.90 185.58 C 158.11 185.18 157.14 185.50 156.75 186.29 Z M 156.27 187.24 L 155.78 188.20 C 155.38 188.99 155.69 189.95 156.48 190.36 C 157.27 190.76 158.24 190.45 158.64 189.66 L 159.13 188.70 C 159.53 187.91 159.22 186.95 158.43 186.54 C 157.64 186.14 156.68 186.45 156.27 187.24 Z M 155.79 188.19 L 155.29 189.15 C 154.88 189.94 155.18 190.91 155.96 191.32 C 156.75 191.73 157.72 191.42 158.13 190.64 L 158.63 189.67 C 159.04 188.89 158.74 187.92 157.95 187.51 C 157.17 187.10 156.20 187.40 155.79 188.19 Z M 155.30 189.14 L 154.78 190.12 C 154.36 190.90 154.65 191.86 155.43 192.28 C 156.21 192.70 157.18 192.40 157.59 191.63 L 158.11 190.65 C 158.53 189.87 158.24 188.90 157.46 188.49 C 156.68 188.07 155.71 188.36 155.30 189.14 Z M 154.79 190.11 L 154.27 191.05 C 153.85 191.82 154.13 192.79 154.90 193.21 C 155.67 193.63 156.64 193.35 157.06 192.58 L 157.58 191.64 C 158.00 190.87 157.72 189.90 156.95 189.48 C 156.18 189.05 155.21 189.33 154.79 190.11 Z M 154.28 191.03 L 153.77 191.94 C 153.34 192.70 153.61 193.67 154.38 194.10 C 155.14 194.53 156.11 194.26 156.54 193.50 L 157.05 192.59 C 157.48 191.83 157.21 190.86 156.45 190.43 C 155.68 190.00 154.72 190.27 154.28 191.03 Z M 153.79 191.92 L 153.29 192.78 C 152.85 193.54 153.11 194.51 153.86 194.94 C 154.62 195.38 155.58 195.13 156.02 194.37 L 156.52 193.51 C 156.96 192.76 156.71 191.79 155.95 191.35 C 155.20 190.91 154.23 191.17 153.79 191.92 Z M 153.31 192.77 L 152.82 193.58 C 152.37 194.32 152.61 195.29 153.36 195.74 C 154.10 196.19 155.07 195.95 155.52 195.20 L 156.01 194.39 C 156.45 193.64 156.21 192.68 155.47 192.23 C 154.72 191.78 153.75 192.02 153.31 192.77 Z M 152.84 193.56 L 152.37 194.31 C 151.91 195.04 152.13 196.01 152.87 196.47 C 153.60 196.93 154.57 196.71 155.03 195.97 L 155.50 195.22 C 155.96 194.48 155.74 193.52 155.00 193.06 C 154.27 192.60 153.30 192.82 152.84 193.56 Z M 152.39 194.28 L 151.86 195.10 C 151.38 195.82 151.58 196.79 152.31 197.26 C 153.03 197.74 154.00 197.54 154.47 196.81 L 155.01 196.00 C 155.48 195.28 155.28 194.31 154.56 193.83 C 153.83 193.36 152.86 193.56 152.39 194.28 Z M 151.88 195.06 L 151.24 195.97 C 150.75 196.68 150.92 197.65 151.63 198.15 C 152.33 198.65 153.31 198.47 153.80 197.77 L 154.45 196.85 C 154.94 196.14 154.77 195.17 154.06 194.67 C 153.35 194.18 152.38 194.35 151.88 195.06 Z M 151.27 195.93 L 150.67 196.74 C 150.15 197.43 150.29 198.41 150.98 198.93 C 151.67 199.45 152.65 199.31 153.17 198.62 L 153.77 197.81 C 154.29 197.12 154.15 196.14 153.46 195.62 C 152.77 195.10 151.79 195.24 151.27 195.93 Z M 150.69 196.71 L 150.11 197.44 C 149.57 198.12 149.69 199.10 150.36 199.64 C 151.04 200.17 152.02 200.06 152.56 199.38 L 153.14 198.65 C 153.68 197.97 153.56 196.99 152.89 196.46 C 152.21 195.92 151.23 196.03 150.69 196.71 Z M 150.13 197.42 L 149.56 198.11 C 149.01 198.78 149.11 199.76 149.77 200.31 C 150.44 200.86 151.42 200.76 151.97 200.10 L 152.54 199.40 C 153.09 198.74 152.99 197.76 152.33 197.21 C 151.66 196.66 150.68 196.75 150.13 197.42 Z M 149.56 198.10 L 149.38 198.33 C 148.83 198.99 148.92 199.97 149.58 200.53 C 150.24 201.08 151.23 200.99 151.78 200.33 L 151.96 200.10 C 152.52 199.44 152.43 198.46 151.76 197.90 C 151.10 197.35 150.12 197.44 149.56 198.10 Z"
      fill="black"
      fill-rule="nonzero" /><path d="M 137.43 165.97 L 137.31 167.02 C 137.21 167.98 137.90 168.85 138.86 168.95 C 139.82 169.06 140.69 168.37 140.80 167.41 L 140.91 166.36 C 141.02 165.39 140.33 164.53 139.37 164.42 C 138.41 164.31 137.54 165.00 137.43 165.97 Z M 137.29 167.08 L 137.21 168.11 C 137.14 169.08 137.86 169.93 138.84 170.01 C 139.81 170.08 140.66 169.36 140.74 168.38 L 140.82 167.35 C 140.89 166.38 140.17 165.53 139.19 165.45 C 138.22 165.37 137.37 166.10 137.29 167.08 Z M 137.19 168.23 L 137.18 169.22 C 137.18 170.21 137.97 171.01 138.96 171.02 C 139.94 171.03 140.75 170.23 140.75 169.25 L 140.76 168.25 C 140.77 167.27 139.97 166.47 138.99 166.46 C 138.00 166.45 137.20 167.25 137.19 168.23 Z M 137.18 169.44 L 137.29 170.37 C 137.40 171.36 138.29 172.07 139.28 171.95 C 140.27 171.84 140.98 170.95 140.86 169.96 L 140.76 169.03 C 140.65 168.04 139.75 167.33 138.76 167.45 C 137.78 167.56 137.07 168.45 137.18 169.44 Z M 137.34 170.69 L 137.62 171.62 C 137.92 172.58 138.93 173.12 139.89 172.82 C 140.85 172.53 141.38 171.52 141.09 170.56 L 140.81 169.63 C 140.52 168.68 139.50 168.14 138.55 168.43 C 137.59 168.72 137.05 169.74 137.34 170.69 Z M 137.76 171.96 L 138.23 172.82 C 138.71 173.70 139.81 174.02 140.69 173.55 C 141.57 173.07 141.90 171.96 141.42 171.08 L 140.95 170.22 C 140.48 169.34 139.37 169.01 138.49 169.49 C 137.61 169.97 137.28 171.07 137.76 171.96 Z M 138.39 173.07 L 139.00 173.85 C 139.62 174.64 140.76 174.78 141.56 174.17 C 142.35 173.55 142.49 172.40 141.87 171.61 L 141.26 170.83 C 140.64 170.04 139.50 169.90 138.71 170.52 C 137.91 171.13 137.77 172.28 138.39 173.07 Z M 139.15 174.02 L 139.87 174.74 C 140.58 175.45 141.73 175.46 142.44 174.75 C 143.16 174.04 143.16 172.89 142.45 172.17 L 141.73 171.45 C 141.02 170.74 139.87 170.73 139.15 171.44 C 138.44 172.15 138.44 173.30 139.15 174.02 Z M 139.97 174.84 L 140.69 175.46 C 141.45 176.11 142.60 176.03 143.26 175.26 C 143.91 174.50 143.83 173.35 143.07 172.70 L 142.35 172.08 C 141.58 171.42 140.43 171.51 139.78 172.27 C 139.12 173.03 139.21 174.18 139.97 174.84 Z M 140.77 175.52 L 141.55 176.11 C 142.34 176.72 143.48 176.57 144.09 175.77 C 144.70 174.98 144.55 173.84 143.76 173.23 L 142.98 172.63 C 142.19 172.02 141.05 172.17 140.44 172.97 C 139.82 173.77 139.98 174.91 140.77 175.52 Z M 141.62 176.16 L 142.44 176.73 C 143.27 177.31 144.40 177.10 144.97 176.28 C 145.54 175.46 145.34 174.33 144.51 173.75 L 143.69 173.18 C 142.86 172.61 141.73 172.81 141.16 173.63 C 140.59 174.46 140.79 175.59 141.62 176.16 Z M 142.50 176.77 L 143.38 177.34 C 144.22 177.88 145.35 177.63 145.89 176.79 C 146.43 175.95 146.18 174.83 145.34 174.29 L 144.46 173.72 C 143.62 173.18 142.50 173.42 141.95 174.27 C 141.41 175.11 141.66 176.23 142.50 176.77 Z M 143.43 177.36 L 144.26 177.86 C 145.11 178.38 146.22 178.10 146.74 177.25 C 147.26 176.40 146.98 175.29 146.13 174.77 L 145.30 174.27 C 144.44 173.75 143.33 174.02 142.82 174.88 C 142.30 175.73 142.57 176.84 143.43 177.36 Z M 144.30 177.87 L 145.13 178.35 C 145.99 178.85 147.09 178.55 147.58 177.69 C 148.08 176.83 147.78 175.73 146.92 175.24 L 146.09 174.76 C 145.23 174.26 144.13 174.56 143.64 175.42 C 143.14 176.28 143.44 177.38 144.30 177.87 Z M 145.17 178.36 L 146.04 178.84 C 146.90 179.31 147.98 178.99 148.46 178.13 C 148.93 177.27 148.62 176.18 147.75 175.71 L 146.89 175.23 C 146.02 174.76 144.94 175.07 144.46 175.94 C 143.99 176.80 144.30 177.88 145.17 178.36 Z M 146.07 178.84 L 146.98 179.32 C 147.85 179.77 148.92 179.44 149.37 178.57 C 149.83 177.70 149.49 176.63 148.62 176.17 L 147.72 175.70 C 146.85 175.25 145.78 175.58 145.32 176.45 C 144.87 177.32 145.20 178.39 146.07 178.84 Z M 147.01 179.32 L 147.96 179.79 C 148.83 180.23 149.89 179.87 150.32 179.00 C 150.76 178.13 150.40 177.07 149.53 176.64 L 148.59 176.17 C 147.72 175.73 146.66 176.09 146.22 176.96 C 145.79 177.83 146.14 178.89 147.01 179.32 Z M 147.99 179.80 L 148.88 180.22 C 149.75 180.63 150.80 180.26 151.21 179.39 C 151.63 178.52 151.26 177.47 150.38 177.06 L 149.50 176.64 C 148.62 176.22 147.58 176.59 147.16 177.46 C 146.75 178.34 147.12 179.38 147.99 179.80 Z M 148.91 180.22 L 149.80 180.62 C 150.67 181.02 151.70 180.63 152.09 179.76 C 152.49 178.88 152.10 177.85 151.23 177.46 L 150.35 177.06 C 149.48 176.66 148.45 177.05 148.05 177.92 C 147.66 178.79 148.04 179.82 148.91 180.22 Z M 149.83 180.62 L 150.74 181.01 C 151.61 181.39 152.62 180.99 153.00 180.12 C 153.38 179.25 152.98 178.23 152.11 177.85 L 151.20 177.46 C 150.33 177.08 149.31 177.48 148.94 178.35 C 148.56 179.23 148.96 180.24 149.83 180.62 Z M 150.77 181.01 L 151.70 181.39 C 152.57 181.75 153.57 181.34 153.93 180.47 C 154.29 179.60 153.88 178.60 153.01 178.24 L 152.07 177.86 C 151.20 177.50 150.21 177.91 149.85 178.78 C 149.49 179.65 149.90 180.65 150.77 181.01 Z M 151.73 181.39 L 152.69 181.77 C 153.56 182.11 154.54 181.68 154.88 180.82 C 155.22 179.95 154.80 178.97 153.93 178.62 L 152.97 178.25 C 152.11 177.90 151.12 178.33 150.78 179.20 C 150.44 180.07 150.87 181.05 151.73 181.39 Z M 152.72 181.76 L 153.70 182.13 C 154.56 182.45 155.53 182.01 155.85 181.15 C 156.18 180.28 155.74 179.32 154.87 178.99 L 153.90 178.63 C 153.03 178.30 152.07 178.74 151.74 179.61 C 151.42 180.47 151.86 181.44 152.72 181.76 Z M 153.73 182.13 L 154.63 182.45 C 155.49 182.75 156.44 182.30 156.75 181.44 C 157.06 180.57 156.61 179.62 155.74 179.32 L 154.84 179.00 C 153.98 178.69 153.03 179.14 152.72 180.00 C 152.41 180.87 152.87 181.82 153.73 182.13 Z M 154.66 182.44 L 155.58 182.75 C 156.44 183.04 157.38 182.58 157.67 181.71 C 157.96 180.85 157.49 179.92 156.63 179.63 L 155.71 179.32 C 154.85 179.03 153.91 179.49 153.62 180.36 C 153.33 181.22 153.80 182.15 154.66 182.44 Z M 155.61 182.75 L 156.55 183.04 C 157.41 183.31 158.33 182.84 158.60 181.98 C 158.87 181.12 158.40 180.20 157.54 179.93 L 156.60 179.63 C 155.74 179.36 154.82 179.84 154.55 180.70 C 154.28 181.56 154.75 182.47 155.61 182.75 Z M 156.59 183.04 L 157.55 183.32 C 158.41 183.58 159.31 183.09 159.56 182.23 C 159.81 181.37 159.32 180.47 158.46 180.22 L 157.50 179.93 C 156.64 179.68 155.74 180.17 155.49 181.03 C 155.24 181.89 155.73 182.79 156.59 183.04 Z M 157.58 183.32 L 158.57 183.59 C 159.43 183.82 160.31 183.32 160.54 182.46 C 160.78 181.61 160.27 180.72 159.42 180.49 L 158.43 180.22 C 157.57 179.99 156.69 180.49 156.46 181.35 C 156.22 182.20 156.73 183.09 157.58 183.32 Z M 158.61 183.58 L 159.62 183.84 C 160.47 184.05 161.34 183.53 161.55 182.68 C 161.77 181.83 161.25 180.96 160.39 180.75 L 159.38 180.49 C 158.53 180.28 157.66 180.80 157.45 181.65 C 157.24 182.50 157.75 183.37 158.61 183.58 Z M 159.65 183.84 L 160.62 184.06 C 161.47 184.25 162.32 183.72 162.52 182.87 C 162.71 182.02 162.18 181.17 161.33 180.97 L 160.36 180.75 C 159.51 180.56 158.66 181.09 158.47 181.94 C 158.27 182.79 158.80 183.64 159.65 183.84 Z M 160.65 184.06 L 161.60 184.26 C 162.45 184.44 163.29 183.89 163.47 183.04 C 163.65 182.19 163.10 181.35 162.25 181.17 L 161.30 180.97 C 160.45 180.79 159.61 181.34 159.43 182.19 C 159.25 183.04 159.79 183.88 160.65 184.06 Z M 161.62 184.26 L 162.59 184.45 C 163.45 184.62 164.27 184.06 164.44 183.21 C 164.61 182.36 164.05 181.53 163.20 181.36 L 162.23 181.17 C 161.38 181.00 160.55 181.56 160.38 182.41 C 160.21 183.26 160.77 184.09 161.62 184.26 Z M 162.61 184.45 L 163.59 184.63 C 164.45 184.79 165.27 184.23 165.43 183.38 C 165.58 182.52 165.02 181.70 164.17 181.54 L 163.18 181.36 C 162.33 181.20 161.51 181.77 161.35 182.62 C 161.19 183.47 161.76 184.29 162.61 184.45 Z M 163.61 184.63 L 164.60 184.81 C 165.46 184.96 166.27 184.39 166.42 183.54 C 166.57 182.68 166.00 181.87 165.15 181.72 L 164.15 181.54 C 163.30 181.39 162.49 181.96 162.34 182.81 C 162.18 183.67 162.75 184.48 163.61 184.63 Z M 164.61 184.81 L 165.62 184.98 C 166.47 185.13 167.28 184.55 167.43 183.70 C 167.57 182.85 167.00 182.04 166.15 181.89 L 165.14 181.72 C 164.29 181.58 163.48 182.15 163.33 183.00 C 163.19 183.85 163.76 184.66 164.61 184.81 Z M 165.62 184.98 L 166.63 185.15 C 167.48 185.29 168.29 184.72 168.43 183.86 C 168.58 183.01 168.00 182.21 167.15 182.06 L 166.14 181.89 C 165.29 181.75 164.48 182.33 164.34 183.18 C 164.20 184.03 164.77 184.84 165.62 184.98 Z M 166.63 185.15 L 167.03 185.21 C 167.88 185.35 168.69 184.78 168.83 183.93 C 168.97 183.08 168.40 182.27 167.55 182.13 L 167.15 182.07 C 166.30 181.92 165.49 182.50 165.35 183.35 C 165.21 184.20 165.78 185.00 166.63 185.15 Z"
      fill="black"
      fill-rule="nonzero" /></svg>