<svg xmlns="http://www.w3.org/2000/svg" width="300" height="300" viewBox="0 0 300 300">
<path d="M 134.32 101.58 L 135.13 100.99 C 135.87 100.45 136.04 99.40 135.50 98.66 C 134.96 97.91 133.92 97.75 133.17 98.29 L 132.36 98.88 C 131.61 99.42 131.45 100.46 131.99 101.21 C 132.53 101.95 133.57 102.12 134.32 101.58 Z M 135.10 101.08 L 135.93 100.53 C 136.73 100.01 136.95 98.93 136.42 98.14 C 135.90 97.34 134.83 97.12 134.03 97.65 L 133.20 98.20 C 132.40 98.72 132.18 99.79 132.71 100.59 C 133.23 101.38 134.30 101.60 135.10 101.08 Z M 135.83 100.66 L 136.71 100.19 C 137.57 99.72 137.90 98.64 137.43 97.77 C 136.97 96.91 135.89 96.58 135.02 97.05 L 134.14 97.52 C 133.27 97.98 132.94 99.06 133.41 99.93 C 133.88 100.80 134.96 101.13 135.83 100.66 Z M 136.53 100.31 L 137.37 99.98 C 138.31 99.61 138.77 98.56 138.40 97.62 C 138.04 96.68 136.98 96.22 136.04 96.59 L 135.20 96.92 C 134.26 97.29 133.80 98.35 134.17 99.28 C 134.53 100.22 135.59 100.68 136.53 100.31 Z M 137.23 100.04 L 138.14 99.77 C 139.11 99.48 139.66 98.46 139.37 97.49 C 139.09 96.52 138.07 95.97 137.10 96.26 L 136.19 96.53 C 135.22 96.82 134.67 97.84 134.95 98.81 C 135.24 99.78 136.26 100.33 137.23 100.04 Z M 138.08 99.79 L 139.09 99.53 C 140.07 99.28 140.66 98.28 140.41 97.30 C 140.16 96.31 139.15 95.72 138.17 95.98 L 137.16 96.24 C 136.18 96.49 135.59 97.49 135.84 98.47 C 136.09 99.45 137.10 100.05 138.08 99.79 Z M 139.09 99.54 L 140.12 99.27 C 141.10 99.02 141.69 98.01 141.44 97.03 C 141.18 96.04 140.17 95.45 139.19 95.71 L 138.17 95.97 C 137.18 96.23 136.59 97.23 136.85 98.22 C 137.10 99.20 138.11 99.79 139.09 99.54 Z M 140.14 99.26 L 141.06 99.01 C 142.04 98.74 142.62 97.72 142.35 96.74 C 142.08 95.76 141.06 95.19 140.08 95.46 L 139.16 95.71 C 138.18 95.98 137.61 97.00 137.88 97.98 C 138.15 98.96 139.16 99.54 140.14 99.26 Z M 141.08 99.00 L 142.05 98.72 C 143.03 98.44 143.59 97.42 143.31 96.44 C 143.02 95.46 142.00 94.90 141.02 95.18 L 140.06 95.46 C 139.08 95.75 138.52 96.77 138.80 97.75 C 139.09 98.72 140.11 99.29 141.08 99.00 Z M 142.07 98.72 L 143.06 98.42 C 144.03 98.13 144.58 97.10 144.29 96.13 C 144.00 95.15 142.97 94.60 142.00 94.89 L 141.01 95.19 C 140.03 95.48 139.48 96.51 139.77 97.48 C 140.07 98.46 141.09 99.01 142.07 98.72 Z M 143.07 98.42 L 144.06 98.11 C 145.03 97.81 145.58 96.77 145.27 95.80 C 144.97 94.83 143.94 94.29 142.97 94.59 L 141.98 94.90 C 141.01 95.20 140.47 96.23 140.77 97.20 C 141.07 98.17 142.10 98.72 143.07 98.42 Z M 144.08 98.10 L 145.01 97.80 C 145.98 97.49 146.51 96.46 146.20 95.49 C 145.89 94.52 144.86 93.99 143.89 94.30 L 142.95 94.60 C 141.99 94.91 141.46 95.94 141.77 96.91 C 142.08 97.88 143.11 98.41 144.08 98.10 Z M 145.03 97.78 L 145.93 97.48 C 146.89 97.16 147.41 96.13 147.09 95.17 C 146.77 94.21 145.73 93.69 144.78 94.01 L 143.87 94.32 C 142.91 94.64 142.40 95.67 142.72 96.63 C 143.04 97.59 144.07 98.10 145.03 97.78 Z M 145.96 97.46 L 146.87 97.14 C 147.82 96.80 148.31 95.77 147.98 94.82 C 147.65 93.87 146.61 93.38 145.66 93.71 L 144.75 94.03 C 143.80 94.37 143.31 95.41 143.64 96.35 C 143.98 97.30 145.01 97.79 145.96 97.46 Z M 146.90 97.11 L 147.84 96.76 C 148.78 96.41 149.25 95.37 148.90 94.43 C 148.55 93.50 147.50 93.03 146.57 93.38 L 145.63 93.74 C 144.70 94.09 144.23 95.13 144.58 96.06 C 144.93 96.99 145.97 97.47 146.90 97.11 Z M 147.88 96.74 L 148.87 96.34 C 149.79 95.97 150.23 94.92 149.86 94.00 C 149.49 93.08 148.45 92.64 147.53 93.01 L 146.54 93.41 C 145.62 93.78 145.17 94.82 145.54 95.74 C 145.91 96.66 146.96 97.11 147.88 96.74 Z M 148.90 96.31 L 149.82 95.92 C 150.73 95.53 151.15 94.48 150.76 93.58 C 150.38 92.67 149.33 92.25 148.42 92.64 L 147.50 93.03 C 146.59 93.42 146.17 94.47 146.56 95.37 C 146.94 96.28 147.99 96.70 148.90 96.31 Z M 149.85 95.90 L 150.76 95.49 C 151.65 95.09 152.05 94.04 151.65 93.15 C 151.25 92.25 150.21 91.85 149.31 92.25 L 148.40 92.66 C 147.51 93.06 147.10 94.11 147.50 95.00 C 147.90 95.89 148.95 96.30 149.85 95.90 Z M 150.78 95.47 L 151.71 95.04 C 152.59 94.63 152.97 93.58 152.57 92.70 C 152.16 91.81 151.11 91.43 150.23 91.84 L 149.29 92.27 C 148.41 92.68 148.03 93.73 148.44 94.61 C 148.85 95.49 149.89 95.88 150.78 95.47 Z M 151.72 95.02 L 152.65 94.57 C 153.53 94.15 153.89 93.11 153.48 92.23 C 153.06 91.36 152.01 90.99 151.14 91.41 L 150.21 91.86 C 149.34 92.28 148.97 93.32 149.39 94.20 C 149.81 95.07 150.85 95.43 151.72 95.02 Z M 152.67 94.55 L 153.58 94.10 C 154.44 93.67 154.79 92.63 154.36 91.77 C 153.94 90.91 152.89 90.56 152.03 90.98 L 151.12 91.43 C 150.26 91.86 149.91 92.90 150.34 93.76 C 150.76 94.63 151.81 94.98 152.67 94.55 Z M 153.59 94.08 L 154.46 93.64 C 155.31 93.20 155.65 92.16 155.21 91.31 C 154.77 90.46 153.73 90.12 152.88 90.56 L 152.02 91.00 C 151.17 91.44 150.83 92.48 151.27 93.33 C 151.70 94.18 152.74 94.52 153.59 94.08 Z M 154.48 93.61 L 155.43 93.11 C 156.26 92.66 156.58 91.62 156.13 90.78 C 155.68 89.95 154.64 89.63 153.81 90.08 L 152.86 90.58 C 152.03 91.03 151.71 92.07 152.16 92.91 C 152.60 93.74 153.64 94.06 154.48 93.61 Z M 155.46 93.07 L 156.37 92.55 C 157.19 92.08 157.47 91.04 157.01 90.23 C 156.54 89.41 155.50 89.13 154.69 89.59 L 153.77 90.11 C 152.96 90.58 152.67 91.62 153.14 92.43 C 153.61 93.25 154.65 93.53 155.46 93.07 Z M 156.42 92.50 L 157.26 91.98 C 158.05 91.48 158.29 90.44 157.79 89.65 C 157.30 88.86 156.26 88.63 155.47 89.12 L 154.63 89.64 C 153.85 90.14 153.61 91.18 154.10 91.97 C 154.60 92.75 155.64 92.99 156.42 92.50 Z M 157.32 91.91 L 158.10 91.37 C 158.85 90.84 159.03 89.80 158.50 89.04 C 157.97 88.29 156.93 88.11 156.18 88.64 L 155.40 89.18 C 154.65 89.71 154.47 90.75 155.00 91.51 C 155.53 92.26 156.57 92.44 157.32 91.91 Z M 158.17 91.29 L 158.90 90.71 C 159.61 90.14 159.72 89.10 159.15 88.39 C 158.58 87.67 157.54 87.56 156.83 88.13 L 156.10 88.71 C 155.39 89.29 155.28 90.33 155.85 91.04 C 156.42 91.75 157.46 91.86 158.17 91.29 Z M 158.97 90.63 L 159.69 89.98 C 160.36 89.36 160.41 88.32 159.79 87.65 C 159.18 86.98 158.14 86.94 157.47 87.55 L 156.75 88.21 C 156.08 88.82 156.04 89.86 156.65 90.53 C 157.26 91.20 158.30 91.25 158.97 90.63 Z M 159.75 89.91 L 160.45 89.21 C 161.08 88.56 161.07 87.52 160.43 86.88 C 159.78 86.25 158.74 86.26 158.10 86.91 L 157.41 87.61 C 156.77 88.26 156.78 89.30 157.43 89.94 C 158.08 90.57 159.12 90.56 159.75 89.91 Z M 160.49 89.16 L 161.16 88.42 C 161.77 87.75 161.73 86.71 161.06 86.10 C 160.39 85.49 159.35 85.54 158.74 86.21 L 158.06 86.95 C 157.45 87.62 157.50 88.66 158.17 89.27 C 158.84 89.88 159.88 89.83 160.49 89.16 Z M 161.19 88.39 L 161.85 87.62 C 162.45 86.94 162.37 85.90 161.69 85.31 C 161.01 84.72 159.97 84.79 159.38 85.47 L 158.71 86.24 C 158.12 86.92 158.19 87.96 158.88 88.55 C 159.56 89.14 160.60 89.07 161.19 88.39 Z M 161.86 87.61 L 162.30 87.10 C 162.89 86.41 162.81 85.37 162.12 84.79 C 161.43 84.20 160.40 84.28 159.81 84.97 L 159.37 85.48 C 158.78 86.17 158.87 87.21 159.55 87.79 C 160.24 88.38 161.28 88.30 161.86 87.61 Z"
      fill="black"
      fill-rule="nonzero" /><path d="M 147.99 98.52 L 147.68 99.52 C 147.40 100.44 147.91 101.41 148.83 101.69 C 149.75 101.97 150.72 101.46 151.00 100.54 L 151.31 99.55 C 151.59 98.63 151.08 97.66 150.16 97.37 C 149.24 97.09 148.27 97.60 147.99 98.52 Z M 147.68 99.54 L 147.39 100.52 C 147.12 101.44 147.64 102.41 148.57 102.68 C 149.49 102.95 150.45 102.42 150.72 101.50 L 151.01 100.52 C 151.28 99.60 150.75 98.63 149.83 98.36 C 148.91 98.09 147.95 98.62 147.68 99.54 Z M 147.37 100.57 L 147.12 101.52 C 146.88 102.45 147.43 103.40 148.36 103.65 C 149.29 103.89 150.24 103.34 150.49 102.41 L 150.74 101.45 C 150.98 100.53 150.43 99.57 149.50 99.33 C 148.57 99.09 147.62 99.64 147.37 100.57 Z M 147.10 101.60 L 146.90 102.54 C 146.70 103.48 147.30 104.41 148.24 104.61 C 149.18 104.81 150.10 104.21 150.30 103.27 L 150.50 102.33 C 150.70 101.39 150.11 100.47 149.17 100.27 C 148.23 100.07 147.30 100.66 147.10 101.60 Z M 146.88 102.66 L 146.74 103.69 C 146.60 104.64 147.26 105.52 148.21 105.66 C 149.16 105.80 150.04 105.13 150.18 104.18 L 150.33 103.15 C 150.46 102.20 149.80 101.32 148.85 101.18 C 147.90 101.05 147.02 101.71 146.88 102.66 Z M 146.72 103.80 L 146.65 104.79 C 146.57 105.74 147.29 106.58 148.25 106.66 C 149.20 106.73 150.04 106.01 150.11 105.06 L 150.19 104.07 C 150.26 103.12 149.55 102.28 148.59 102.20 C 147.63 102.13 146.80 102.85 146.72 103.80 Z M 146.64 104.86 L 146.61 105.82 C 146.58 106.78 147.33 107.58 148.29 107.62 C 149.25 107.65 150.05 106.90 150.08 105.94 L 150.12 104.98 C 150.15 104.02 149.40 103.22 148.44 103.18 C 147.48 103.15 146.68 103.90 146.64 104.86 Z M 146.61 105.85 L 146.60 106.81 C 146.58 107.76 147.35 108.55 148.30 108.57 C 149.26 108.58 150.05 107.82 150.07 106.86 L 150.08 105.91 C 150.10 104.95 149.33 104.16 148.38 104.15 C 147.42 104.13 146.63 104.89 146.61 105.85 Z M 146.61 106.82 L 146.60 107.81 C 146.59 108.76 147.36 109.54 148.31 109.54 C 149.27 109.55 150.04 108.78 150.05 107.83 L 150.06 106.85 C 150.06 105.89 149.30 105.12 148.34 105.11 C 147.39 105.10 146.61 105.87 146.61 106.82 Z M 146.61 107.82 L 146.61 108.85 C 146.61 109.80 147.37 110.57 148.32 110.57 C 149.27 110.57 150.04 109.80 150.04 108.86 L 150.04 107.82 C 150.04 106.87 149.28 106.10 148.33 106.10 C 147.38 106.10 146.61 106.87 146.61 107.82 Z M 146.62 108.86 L 146.62 109.80 C 146.62 110.74 147.38 111.50 148.32 111.50 C 149.27 111.50 150.03 110.74 150.03 109.80 L 150.03 108.85 C 150.03 107.91 149.27 107.15 148.32 107.15 C 147.38 107.15 146.62 107.91 146.62 108.86 Z M 146.63 109.80 L 146.63 110.75 C 146.64 111.68 147.40 112.44 148.33 112.43 C 149.27 112.43 150.02 111.67 150.02 110.73 L 150.02 109.79 C 150.02 108.85 149.25 108.10 148.32 108.10 C 147.38 108.10 146.63 108.87 146.63 109.80 Z M 146.65 110.76 L 146.66 111.77 C 146.66 112.70 147.43 113.44 148.35 113.43 C 149.28 113.42 150.03 112.66 150.02 111.73 L 150.01 110.72 C 150.00 109.79 149.24 109.05 148.31 109.06 C 147.38 109.07 146.64 109.83 146.65 110.76 Z M 146.67 111.78 L 146.69 112.87 C 146.71 113.79 147.47 114.52 148.39 114.51 C 149.31 114.49 150.05 113.72 150.03 112.80 L 150.01 111.72 C 149.99 110.80 149.23 110.06 148.31 110.08 C 147.38 110.10 146.65 110.86 146.67 111.78 Z M 146.70 112.88 L 146.73 113.88 C 146.76 114.80 147.52 115.52 148.44 115.49 C 149.36 115.47 150.08 114.70 150.05 113.78 L 150.02 112.79 C 149.99 111.87 149.23 111.15 148.31 111.17 C 147.39 111.20 146.67 111.97 146.70 112.88 Z M 146.73 113.89 L 146.77 114.87 C 146.80 115.78 147.57 116.49 148.48 116.46 C 149.40 116.43 150.11 115.66 150.08 114.75 L 150.04 113.77 C 150.01 112.86 149.24 112.14 148.33 112.18 C 147.41 112.21 146.70 112.98 146.73 113.89 Z M 146.77 114.87 L 146.81 115.88 C 146.85 116.79 147.62 117.50 148.53 117.46 C 149.44 117.43 150.15 116.66 150.11 115.75 L 150.07 114.74 C 150.04 113.83 149.27 113.12 148.36 113.16 C 147.45 113.19 146.74 113.96 146.77 114.87 Z M 146.82 115.87 L 146.86 116.90 C 146.89 117.80 147.65 118.51 148.56 118.48 C 149.47 118.45 150.18 117.68 150.15 116.77 L 150.11 115.75 C 150.07 114.84 149.31 114.13 148.40 114.17 C 147.49 114.20 146.78 114.96 146.82 115.87 Z M 146.86 116.89 L 146.89 117.92 C 146.92 118.82 147.68 119.53 148.59 119.50 C 149.49 119.48 150.21 118.72 150.18 117.81 L 150.14 116.78 C 150.11 115.87 149.35 115.16 148.45 115.19 C 147.54 115.22 146.83 115.98 146.86 116.89 Z M 146.90 117.90 L 146.92 118.92 C 146.94 119.83 147.69 120.54 148.60 120.52 C 149.50 120.50 150.22 119.75 150.20 118.84 L 150.17 117.82 C 150.15 116.92 149.40 116.20 148.50 116.23 C 147.59 116.25 146.87 117.00 146.90 117.90 Z M 146.92 118.91 L 146.94 119.91 C 146.95 120.82 147.70 121.54 148.60 121.53 C 149.51 121.51 150.23 120.77 150.21 119.86 L 150.20 118.86 C 150.18 117.95 149.44 117.23 148.53 117.24 C 147.63 117.26 146.91 118.00 146.92 118.91 Z M 146.94 119.90 L 146.95 120.90 C 146.95 121.81 147.69 122.53 148.60 122.53 C 149.50 122.52 150.23 121.78 150.22 120.87 L 150.21 119.87 C 150.21 118.97 149.47 118.24 148.56 118.25 C 147.66 118.26 146.93 119.00 146.94 119.90 Z M 146.95 120.90 L 146.95 121.89 C 146.95 122.79 147.69 123.53 148.59 123.52 C 149.50 123.52 150.23 122.78 150.23 121.88 L 150.22 120.88 C 150.22 119.98 149.48 119.25 148.58 119.25 C 147.67 119.26 146.94 119.99 146.95 120.90 Z M 146.95 121.89 L 146.95 122.88 C 146.95 123.78 147.69 124.51 148.59 124.51 C 149.49 124.51 150.23 123.78 150.23 122.87 L 150.23 121.88 C 150.22 120.98 149.49 120.25 148.59 120.25 C 147.68 120.25 146.95 120.98 146.95 121.89 Z M 146.95 122.88 L 146.95 123.31 C 146.95 124.22 147.69 124.95 148.59 124.95 C 149.49 124.95 150.23 124.21 150.23 123.31 L 150.23 122.88 C 150.23 121.97 149.49 121.24 148.59 121.24 C 147.69 121.24 146.95 121.97 146.95 122.88 Z"
      fill="black"
      fill-rule="nonzero" /><path d="M 152.45 114.13 L 153.10 113.29 C 153.67 112.55 153.54 111.49 152.80 110.92 C 152.06 110.34 151.00 110.48 150.42 111.22 L 149.77 112.06 C 149.20 112.80 149.33 113.86 150.07 114.44 C 150.81 115.01 151.88 114.87 152.45 114.13 Z M 153.10 113.31 L 153.75 112.48 C 154.33 111.74 154.20 110.67 153.46 110.09 C 152.72 109.51 151.65 109.64 151.07 110.38 L 150.42 111.20 C 149.84 111.94 149.97 113.02 150.71 113.60 C 151.45 114.18 152.52 114.05 153.10 113.31 Z M 153.74 112.51 L 154.38 111.72 C 154.97 110.98 154.86 109.90 154.12 109.30 C 153.38 108.71 152.30 108.83 151.71 109.57 L 151.07 110.36 C 150.48 111.09 150.59 112.17 151.33 112.77 C 152.07 113.36 153.15 113.24 153.74 112.51 Z M 154.37 111.75 L 154.98 111.01 C 155.60 110.28 155.50 109.19 154.77 108.58 C 154.04 107.97 152.95 108.06 152.34 108.80 L 151.72 109.53 C 151.11 110.26 151.20 111.35 151.93 111.97 C 152.67 112.58 153.75 112.48 154.37 111.75 Z M 154.96 111.06 L 155.58 110.36 C 156.22 109.64 156.15 108.55 155.44 107.91 C 154.72 107.27 153.62 107.34 152.99 108.05 L 152.36 108.75 C 151.73 109.47 151.79 110.56 152.51 111.20 C 153.22 111.84 154.32 111.77 154.96 111.06 Z M 155.53 110.43 L 156.29 109.64 C 156.97 108.96 156.96 107.85 156.27 107.18 C 155.59 106.51 154.48 106.51 153.81 107.20 L 153.04 107.98 C 152.36 108.67 152.37 109.77 153.06 110.45 C 153.75 111.12 154.85 111.11 155.53 110.43 Z M 156.22 109.72 L 156.96 109.05 C 157.68 108.41 157.73 107.30 157.08 106.58 C 156.44 105.87 155.33 105.81 154.62 106.46 L 153.88 107.13 C 153.16 107.77 153.11 108.88 153.75 109.60 C 154.40 110.31 155.51 110.37 156.22 109.72 Z M 156.89 109.12 L 157.61 108.53 C 158.37 107.93 158.48 106.82 157.87 106.07 C 157.26 105.32 156.16 105.20 155.41 105.81 L 154.68 106.39 C 153.93 107.00 153.82 108.11 154.43 108.86 C 155.03 109.61 156.14 109.73 156.89 109.12 Z M 157.56 108.58 L 158.30 108.03 C 159.08 107.46 159.24 106.36 158.66 105.58 C 158.08 104.80 156.98 104.63 156.20 105.21 L 155.46 105.76 C 154.68 106.34 154.52 107.44 155.10 108.22 C 155.68 109.00 156.78 109.16 157.56 108.58 Z M 158.25 108.07 L 159.03 107.53 C 159.83 106.97 160.03 105.88 159.48 105.08 C 158.92 104.28 157.83 104.09 157.03 104.64 L 156.25 105.18 C 155.45 105.73 155.25 106.83 155.81 107.62 C 156.36 108.42 157.45 108.62 158.25 108.07 Z M 159.00 107.55 L 159.84 106.99 C 160.65 106.46 160.87 105.37 160.33 104.56 C 159.80 103.75 158.71 103.53 157.90 104.06 L 157.06 104.62 C 156.26 105.15 156.03 106.24 156.57 107.05 C 157.10 107.86 158.19 108.08 159.00 107.55 Z M 159.82 107.00 L 160.72 106.42 C 161.54 105.90 161.77 104.81 161.25 104.00 C 160.72 103.18 159.64 102.95 158.82 103.47 L 157.92 104.05 C 157.11 104.58 156.87 105.66 157.40 106.48 C 157.92 107.29 159.00 107.53 159.82 107.00 Z M 160.71 106.42 L 161.54 105.89 C 162.35 105.37 162.59 104.29 162.07 103.48 C 161.55 102.67 160.48 102.43 159.66 102.95 L 158.83 103.48 C 158.02 104.00 157.78 105.07 158.30 105.89 C 158.82 106.70 159.90 106.94 160.71 106.42 Z M 161.54 105.87 L 162.40 105.32 C 163.20 104.80 163.44 103.73 162.92 102.93 C 162.41 102.12 161.34 101.89 160.53 102.41 L 159.67 102.96 C 158.86 103.48 158.63 104.55 159.15 105.35 C 159.66 106.16 160.73 106.39 161.54 105.87 Z M 162.40 105.30 L 163.26 104.75 C 164.05 104.23 164.28 103.17 163.76 102.37 C 163.25 101.58 162.18 101.35 161.39 101.87 L 160.53 102.42 C 159.74 102.94 159.51 104.00 160.03 104.80 C 160.54 105.59 161.60 105.82 162.40 105.30 Z M 163.26 104.73 L 164.08 104.19 C 164.86 103.67 165.08 102.61 164.56 101.83 C 164.04 101.04 162.98 100.83 162.20 101.35 L 161.38 101.89 C 160.60 102.41 160.39 103.46 160.90 104.25 C 161.42 105.03 162.48 105.25 163.26 104.73 Z M 164.09 104.16 L 164.99 103.54 C 165.76 103.02 165.95 101.97 165.43 101.20 C 164.90 100.43 163.85 100.23 163.08 100.76 L 162.19 101.37 C 161.42 101.90 161.22 102.95 161.75 103.72 C 162.28 104.49 163.33 104.69 164.09 104.16 Z M 165.00 103.51 L 165.82 102.93 C 166.57 102.40 166.75 101.35 166.21 100.60 C 165.68 99.85 164.63 99.68 163.88 100.21 L 163.07 100.79 C 162.31 101.33 162.14 102.37 162.67 103.12 C 163.21 103.87 164.25 104.05 165.00 103.51 Z M 165.83 102.91 L 166.59 102.35 C 167.33 101.81 167.49 100.78 166.95 100.04 C 166.41 99.30 165.38 99.14 164.64 99.68 L 163.88 100.24 C 163.14 100.77 162.98 101.81 163.52 102.55 C 164.05 103.29 165.09 103.45 165.83 102.91 Z M 166.59 102.34 L 166.94 102.08 C 167.67 101.54 167.82 100.51 167.28 99.78 C 166.75 99.05 165.72 98.90 164.99 99.44 L 164.64 99.69 C 163.91 100.23 163.75 101.26 164.29 101.99 C 164.83 102.72 165.86 102.88 166.59 102.34 Z"
      fill="black"
      fill-rule="nonzero" /><path d="M 137.17 110.08 L 136.55 110.88 C 135.99 111.62 136.13 112.68 136.87 113.25 C 137.61 113.82 138.67 113.68 139.23 112.94 L 139.85 112.13 C 140.42 111.39 140.28 110.33 139.54 109.77 C 138.80 109.20 137.74 109.34 137.17 110.08 Z M 136.54 110.89 L 135.94 111.70 C 135.38 112.45 135.53 113.50 136.27 114.06 C 137.02 114.63 138.08 114.48 138.64 113.73 L 139.24 112.93 C 139.80 112.18 139.65 111.12 138.91 110.56 C 138.16 110.00 137.11 110.15 136.54 110.89 Z M 135.92 111.73 L 135.33 112.53 C 134.79 113.29 134.96 114.35 135.71 114.89 C 136.47 115.44 137.52 115.27 138.07 114.52 L 138.65 113.71 C 139.20 112.95 139.03 111.90 138.28 111.35 C 137.52 110.80 136.47 110.97 135.92 111.73 Z M 135.31 112.57 L 134.75 113.39 C 134.23 114.16 134.42 115.21 135.19 115.73 C 135.96 116.26 137.01 116.06 137.54 115.29 L 138.10 114.48 C 138.62 113.71 138.42 112.66 137.65 112.13 C 136.88 111.61 135.83 111.80 135.31 112.57 Z M 134.71 113.44 L 134.17 114.30 C 133.68 115.09 133.91 116.13 134.71 116.63 C 135.50 117.13 136.54 116.89 137.04 116.10 L 137.58 115.24 C 138.08 114.45 137.84 113.40 137.05 112.91 C 136.25 112.41 135.21 112.65 134.71 113.44 Z M 134.12 114.36 L 133.62 115.24 C 133.16 116.06 133.45 117.10 134.27 117.56 C 135.09 118.03 136.13 117.74 136.59 116.92 L 137.09 116.04 C 137.55 115.22 137.26 114.18 136.45 113.71 C 135.63 113.25 134.59 113.54 134.12 114.36 Z M 133.57 115.31 L 133.13 116.20 C 132.70 117.05 133.04 118.08 133.89 118.51 C 134.74 118.93 135.77 118.59 136.20 117.74 L 136.64 116.85 C 137.07 116.00 136.73 114.97 135.88 114.54 C 135.03 114.12 134.00 114.46 133.57 115.31 Z M 133.07 116.28 L 132.68 117.18 C 132.30 118.05 132.70 119.07 133.58 119.45 C 134.45 119.84 135.48 119.44 135.86 118.56 L 136.25 117.66 C 136.63 116.78 136.23 115.76 135.35 115.38 C 134.48 115.00 133.46 115.40 133.07 116.28 Z M 132.63 117.26 L 132.28 118.22 C 131.95 119.13 132.41 120.13 133.31 120.47 C 134.22 120.80 135.22 120.34 135.56 119.43 L 135.91 118.47 C 136.24 117.57 135.78 116.56 134.87 116.23 C 133.97 115.90 132.97 116.36 132.63 117.26 Z M 132.23 118.32 L 131.93 119.30 C 131.65 120.23 132.18 121.22 133.11 121.50 C 134.05 121.78 135.03 121.25 135.31 120.32 L 135.60 119.33 C 135.88 118.40 135.36 117.42 134.42 117.14 C 133.49 116.86 132.51 117.39 132.23 118.32 Z M 131.89 119.40 L 131.66 120.37 C 131.44 121.33 132.03 122.28 132.98 122.51 C 133.94 122.74 134.90 122.14 135.12 121.19 L 135.35 120.22 C 135.58 119.26 134.99 118.31 134.03 118.08 C 133.07 117.85 132.12 118.45 131.89 119.40 Z M 131.62 120.47 L 131.46 121.41 C 131.29 122.39 131.95 123.31 132.93 123.48 C 133.90 123.65 134.83 123.00 135.00 122.02 L 135.16 121.08 C 135.33 120.11 134.67 119.18 133.70 119.01 C 132.72 118.84 131.79 119.50 131.62 120.47 Z M 131.43 121.55 L 131.33 122.61 C 131.24 123.61 131.97 124.49 132.97 124.58 C 133.97 124.67 134.85 123.94 134.94 122.94 L 135.04 121.88 C 135.13 120.88 134.39 120.00 133.40 119.91 C 132.40 119.82 131.52 120.55 131.43 121.55 Z M 131.31 122.86 L 131.36 123.86 C 131.40 124.86 132.26 125.64 133.27 125.60 C 134.27 125.55 135.05 124.69 135.00 123.69 L 134.96 122.69 C 134.91 121.69 134.06 120.91 133.05 120.96 C 132.04 121.00 131.26 121.86 131.31 122.86 Z M 131.40 124.24 L 131.64 125.14 C 131.90 126.12 132.90 126.71 133.89 126.45 C 134.87 126.20 135.45 125.19 135.20 124.21 L 134.96 123.30 C 134.70 122.32 133.70 121.73 132.71 121.99 C 131.73 122.25 131.14 123.26 131.40 124.24 Z M 131.82 125.60 L 132.29 126.42 C 132.80 127.30 133.94 127.60 134.82 127.09 C 135.70 126.57 136.00 125.44 135.49 124.56 L 135.02 123.75 C 134.50 122.86 133.37 122.56 132.49 123.07 C 131.60 123.59 131.30 124.72 131.82 125.60 Z M 132.57 126.80 L 133.26 127.49 C 133.99 128.22 135.16 128.23 135.89 127.50 C 136.62 126.78 136.62 125.60 135.90 124.88 L 135.21 124.18 C 134.48 123.45 133.31 123.45 132.58 124.17 C 131.85 124.89 131.85 126.07 132.57 126.80 Z M 133.58 127.76 L 134.46 128.32 C 135.33 128.88 136.48 128.63 137.04 127.76 C 137.60 126.89 137.34 125.74 136.48 125.18 L 135.59 124.61 C 134.72 124.06 133.57 124.31 133.01 125.18 C 132.46 126.04 132.71 127.20 133.58 127.76 Z M 134.74 128.48 L 135.65 128.86 C 136.60 129.26 137.70 128.81 138.10 127.86 C 138.50 126.91 138.05 125.81 137.10 125.41 L 136.20 125.03 C 135.24 124.63 134.15 125.07 133.74 126.03 C 133.34 126.98 133.79 128.08 134.74 128.48 Z M 135.86 128.94 L 136.82 129.21 C 137.82 129.50 138.86 128.92 139.14 127.93 C 139.43 126.93 138.85 125.90 137.86 125.61 L 136.89 125.33 C 135.90 125.05 134.86 125.62 134.57 126.62 C 134.29 127.61 134.86 128.65 135.86 128.94 Z M 136.98 129.26 L 137.98 129.45 C 139.00 129.65 139.99 128.98 140.18 127.96 C 140.38 126.95 139.72 125.96 138.70 125.76 L 137.70 125.57 C 136.68 125.37 135.70 126.04 135.50 127.06 C 135.30 128.07 135.97 129.06 136.98 129.26 Z M 138.11 129.47 L 139.12 129.60 C 140.15 129.72 141.09 128.99 141.22 127.96 C 141.34 126.93 140.61 125.99 139.58 125.86 L 138.57 125.74 C 137.54 125.61 136.60 126.35 136.47 127.38 C 136.35 128.41 137.08 129.35 138.11 129.47 Z M 139.23 129.61 L 140.25 129.67 C 141.28 129.74 142.18 128.95 142.24 127.92 C 142.31 126.88 141.53 125.99 140.49 125.92 L 139.47 125.85 C 138.44 125.79 137.54 126.57 137.48 127.61 C 137.41 128.65 138.19 129.54 139.23 129.61 Z M 140.32 129.68 L 141.31 129.70 C 142.35 129.72 143.21 128.90 143.23 127.86 C 143.26 126.82 142.44 125.96 141.40 125.94 L 140.41 125.92 C 139.37 125.89 138.51 126.71 138.49 127.75 C 138.46 128.79 139.29 129.65 140.32 129.68 Z M 141.35 129.70 L 142.32 129.70 C 143.36 129.70 144.21 128.87 144.21 127.83 C 144.21 126.79 143.37 125.94 142.33 125.94 L 141.36 125.94 C 140.32 125.94 139.48 126.78 139.47 127.81 C 139.47 128.85 140.31 129.70 141.35 129.70 Z M 142.34 129.70 L 143.32 129.69 C 144.36 129.68 145.19 128.83 145.18 127.80 C 145.18 126.76 144.33 125.92 143.29 125.93 L 142.31 125.94 C 141.27 125.95 140.44 126.80 140.45 127.84 C 140.46 128.88 141.31 129.71 142.34 129.70 Z M 143.40 129.69 L 144.39 129.64 C 145.43 129.58 146.22 128.70 146.17 127.67 C 146.12 126.63 145.23 125.83 144.20 125.89 L 143.21 125.94 C 142.17 125.99 141.38 126.87 141.43 127.91 C 141.48 128.94 142.37 129.74 143.40 129.69 Z M 144.54 129.62 L 145.55 129.49 C 146.58 129.36 147.30 128.42 147.17 127.39 C 147.04 126.36 146.10 125.64 145.07 125.77 L 144.06 125.90 C 143.03 126.04 142.30 126.98 142.44 128.00 C 142.57 129.03 143.51 129.75 144.54 129.62 Z M 145.72 129.45 L 146.64 129.25 C 147.65 129.02 148.28 128.02 148.06 127.01 C 147.83 126.00 146.83 125.37 145.82 125.60 L 144.90 125.81 C 143.89 126.03 143.26 127.04 143.49 128.04 C 143.71 129.05 144.72 129.68 145.72 129.45 Z M 146.78 129.21 L 147.71 128.92 C 148.69 128.62 149.24 127.57 148.94 126.59 C 148.64 125.60 147.59 125.05 146.61 125.35 L 145.68 125.64 C 144.70 125.94 144.14 126.99 144.45 127.97 C 144.75 128.96 145.80 129.51 146.78 129.21 Z M 147.80 128.88 L 148.76 128.53 C 149.73 128.17 150.22 127.10 149.86 126.14 C 149.50 125.17 148.43 124.68 147.47 125.04 L 146.51 125.39 C 145.55 125.75 145.06 126.82 145.41 127.78 C 145.77 128.75 146.84 129.24 147.80 128.88 Z M 148.83 128.50 L 149.82 128.09 C 150.76 127.69 151.21 126.61 150.82 125.66 C 150.43 124.71 149.34 124.27 148.39 124.66 L 147.41 125.07 C 146.46 125.46 146.01 126.55 146.40 127.49 C 146.80 128.44 147.88 128.89 148.83 128.50 Z M 149.86 128.06 L 150.73 127.67 C 151.66 127.26 152.08 126.16 151.67 125.23 C 151.25 124.30 150.16 123.88 149.23 124.30 L 148.35 124.68 C 147.42 125.10 147.00 126.19 147.42 127.12 C 147.83 128.06 148.92 128.47 149.86 128.06 Z M 150.76 127.64 L 151.65 127.22 C 152.57 126.79 152.96 125.69 152.53 124.78 C 152.10 123.86 151.00 123.47 150.08 123.90 L 149.19 124.32 C 148.27 124.76 147.88 125.85 148.32 126.77 C 148.75 127.69 149.85 128.08 150.76 127.64 Z M 151.69 127.19 L 152.59 126.74 C 153.49 126.28 153.86 125.19 153.40 124.29 C 152.95 123.38 151.85 123.02 150.95 123.48 L 150.05 123.93 C 149.15 124.38 148.78 125.48 149.24 126.38 C 149.69 127.28 150.79 127.65 151.69 127.19 Z M 152.63 126.71 L 153.54 126.22 C 154.42 125.74 154.75 124.64 154.28 123.76 C 153.80 122.88 152.70 122.54 151.82 123.02 L 150.91 123.51 C 150.03 123.98 149.70 125.08 150.17 125.97 C 150.65 126.85 151.75 127.18 152.63 126.71 Z M 153.58 126.18 L 154.45 125.68 C 155.31 125.18 155.61 124.08 155.11 123.22 C 154.61 122.36 153.51 122.06 152.65 122.56 L 151.78 123.06 C 150.92 123.55 150.62 124.65 151.12 125.52 C 151.61 126.38 152.72 126.68 153.58 126.18 Z M 154.48 125.64 L 155.32 125.13 C 156.16 124.62 156.43 123.52 155.91 122.67 C 155.40 121.83 154.30 121.57 153.46 122.08 L 152.62 122.59 C 151.77 123.11 151.51 124.21 152.02 125.05 C 152.54 125.89 153.64 126.16 154.48 125.64 Z M 155.34 125.10 L 156.18 124.56 C 157.00 124.04 157.24 122.94 156.72 122.12 C 156.19 121.29 155.10 121.05 154.27 121.58 L 153.43 122.11 C 152.61 122.64 152.37 123.73 152.89 124.56 C 153.42 125.38 154.52 125.63 155.34 125.10 Z M 156.19 124.54 L 157.03 123.98 C 157.84 123.45 158.07 122.36 157.53 121.55 C 157.00 120.74 155.91 120.52 155.10 121.05 L 154.26 121.61 C 153.45 122.14 153.23 123.23 153.76 124.04 C 154.29 124.85 155.38 125.07 156.19 124.54 Z M 157.04 123.96 L 157.89 123.39 C 158.68 122.85 158.89 121.77 158.36 120.98 C 157.82 120.18 156.74 119.97 155.95 120.50 L 155.10 121.07 C 154.30 121.61 154.09 122.69 154.62 123.49 C 155.16 124.28 156.24 124.49 157.04 123.96 Z M 157.88 123.37 L 158.70 122.82 C 159.49 122.28 159.70 121.21 159.16 120.42 C 158.63 119.63 157.56 119.43 156.77 119.96 L 155.95 120.52 C 155.16 121.06 154.96 122.13 155.49 122.91 C 156.02 123.70 157.10 123.91 157.88 123.37 Z M 158.70 122.80 L 159.52 122.24 C 160.30 121.71 160.50 120.65 159.96 119.87 C 159.43 119.09 158.37 118.89 157.59 119.42 L 156.77 119.98 C 155.99 120.51 155.79 121.57 156.32 122.35 C 156.86 123.13 157.92 123.33 158.70 122.80 Z M 159.51 122.23 L 160.34 121.66 C 161.11 121.13 161.31 120.08 160.77 119.30 C 160.24 118.53 159.19 118.34 158.42 118.87 L 157.59 119.43 C 156.82 119.96 156.62 121.02 157.16 121.79 C 157.69 122.56 158.74 122.76 159.51 122.23 Z M 160.34 121.65 L 161.16 121.07 C 161.93 120.55 162.12 119.50 161.59 118.73 C 161.06 117.97 160.01 117.78 159.25 118.31 L 158.42 118.88 C 157.65 119.41 157.46 120.46 157.99 121.22 C 158.52 121.99 159.57 122.18 160.34 121.65 Z M 161.16 121.06 L 161.99 120.48 C 162.75 119.95 162.93 118.91 162.41 118.15 C 161.88 117.40 160.84 117.21 160.08 117.74 L 159.25 118.32 C 158.49 118.85 158.31 119.89 158.84 120.65 C 159.36 121.40 160.41 121.59 161.16 121.06 Z M 161.99 120.47 L 162.82 119.88 C 163.57 119.36 163.75 118.32 163.22 117.57 C 162.69 116.82 161.66 116.64 160.91 117.17 L 160.08 117.75 C 159.33 118.28 159.15 119.32 159.68 120.07 C 160.21 120.82 161.24 121.00 161.99 120.47 Z M 162.82 119.88 L 163.65 119.29 C 164.39 118.76 164.56 117.73 164.03 116.98 C 163.50 116.24 162.47 116.07 161.73 116.60 L 160.90 117.18 C 160.16 117.71 159.99 118.74 160.52 119.49 C 161.05 120.23 162.08 120.40 162.82 119.88 Z M 163.65 119.28 L 164.47 118.69 C 165.21 118.16 165.37 117.13 164.84 116.39 C 164.31 115.65 163.28 115.48 162.54 116.02 L 161.72 116.60 C 160.98 117.14 160.82 118.17 161.35 118.91 C 161.88 119.65 162.91 119.81 163.65 119.28 Z M 164.48 118.68 L 165.28 118.09 C 166.01 117.55 166.17 116.52 165.63 115.79 C 165.10 115.06 164.07 114.90 163.33 115.44 L 162.53 116.03 C 161.80 116.56 161.64 117.59 162.18 118.33 C 162.71 119.06 163.74 119.22 164.48 118.68 Z M 165.29 118.08 L 166.08 117.48 C 166.81 116.94 166.96 115.91 166.41 115.19 C 165.87 114.46 164.84 114.31 164.12 114.86 L 163.32 115.45 C 162.60 115.99 162.45 117.02 162.99 117.75 C 163.54 118.47 164.57 118.62 165.29 118.08 Z M 166.10 117.47 L 166.89 116.86 C 167.61 116.31 167.74 115.28 167.19 114.56 C 166.64 113.84 165.61 113.71 164.90 114.26 L 164.10 114.87 C 163.38 115.42 163.25 116.45 163.80 117.17 C 164.35 117.88 165.38 118.02 166.10 117.47 Z M 166.91 116.85 L 167.70 116.22 C 168.41 115.66 168.54 114.63 167.98 113.92 C 167.42 113.21 166.39 113.09 165.68 113.65 L 164.88 114.27 C 164.17 114.83 164.05 115.86 164.61 116.57 C 165.17 117.28 166.20 117.40 166.91 116.85 Z M 167.71 116.21 L 168.49 115.58 C 169.20 115.02 169.31 113.99 168.75 113.28 C 168.18 112.58 167.15 112.46 166.45 113.03 L 165.67 113.66 C 164.96 114.22 164.85 115.25 165.41 115.96 C 165.98 116.66 167.01 116.78 167.71 116.21 Z M 168.50 115.58 L 169.27 114.95 C 169.97 114.38 170.08 113.35 169.51 112.65 C 168.94 111.95 167.91 111.84 167.21 112.41 L 166.44 113.04 C 165.74 113.61 165.63 114.64 166.20 115.34 C 166.77 116.04 167.80 116.15 168.50 115.58 Z M 169.28 114.95 L 170.04 114.32 C 170.74 113.75 170.84 112.72 170.27 112.02 C 169.70 111.32 168.67 111.22 167.97 111.79 L 167.20 112.42 C 166.50 112.99 166.40 114.02 166.97 114.72 C 167.55 115.42 168.58 115.52 169.28 114.95 Z M 170.04 114.32 L 170.32 114.10 C 171.02 113.52 171.12 112.49 170.54 111.79 C 169.97 111.09 168.94 110.99 168.24 111.57 L 167.96 111.79 C 167.27 112.36 167.17 113.40 167.74 114.09 C 168.31 114.79 169.34 114.89 170.04 114.32 Z"
      fill="black"
      fill-rule="nonzero" /><path d="M 141.91 133.13 L 141.36 133.90 C 140.77 134.73 140.97 135.89 141.81 136.47 C 142.64 137.06 143.80 136.86 144.38 136.03 L 144.93 135.25 C 145.52 134.42 145.32 133.26 144.48 132.68 C 143.65 132.09 142.49 132.29 141.91 133.13 Z M 141.34 133.93 L 140.80 134.73 C 140.23 135.57 140.45 136.72 141.30 137.29 C 142.14 137.87 143.29 137.64 143.86 136.80 L 144.41 136.00 C 144.98 135.15 144.75 134.00 143.91 133.43 C 143.06 132.86 141.91 133.08 141.34 133.93 Z M 140.76 134.78 L 140.23 135.63 C 139.69 136.50 139.95 137.64 140.82 138.18 C 141.69 138.72 142.83 138.46 143.37 137.60 L 143.90 136.74 C 144.44 135.88 144.18 134.74 143.31 134.19 C 142.45 133.65 141.31 133.92 140.76 134.78 Z M 140.19 135.71 L 139.66 136.64 C 139.16 137.53 139.48 138.66 140.37 139.16 C 141.26 139.66 142.39 139.34 142.89 138.45 L 143.41 137.52 C 143.91 136.63 143.60 135.50 142.70 135.00 C 141.81 134.50 140.69 134.82 140.19 135.71 Z M 139.62 136.72 L 139.18 137.61 C 138.73 138.52 139.10 139.63 140.02 140.09 C 140.93 140.54 142.04 140.17 142.50 139.25 L 142.94 138.37 C 143.39 137.45 143.02 136.34 142.10 135.89 C 141.19 135.43 140.07 135.81 139.62 136.72 Z M 139.15 137.67 L 138.74 138.59 C 138.32 139.52 138.74 140.62 139.67 141.04 C 140.60 141.46 141.70 141.04 142.12 140.11 L 142.53 139.19 C 142.95 138.25 142.53 137.16 141.60 136.74 C 140.66 136.32 139.57 136.74 139.15 137.67 Z M 138.72 138.64 L 138.32 139.59 C 137.93 140.53 138.39 141.62 139.33 142.01 C 140.28 142.40 141.36 141.95 141.75 141.00 L 142.14 140.05 C 142.53 139.11 142.08 138.02 141.13 137.63 C 140.19 137.24 139.11 137.70 138.72 138.64 Z M 138.31 139.63 L 137.94 140.58 C 137.58 141.54 138.06 142.61 139.01 142.97 C 139.97 143.34 141.04 142.86 141.40 141.91 L 141.77 140.96 C 142.13 140.00 141.66 138.93 140.70 138.56 C 139.74 138.20 138.67 138.68 138.31 139.63 Z M 137.93 140.62 L 137.60 141.55 C 137.25 142.51 137.76 143.57 138.72 143.92 C 139.69 144.26 140.75 143.76 141.09 142.79 L 141.42 141.87 C 141.76 140.90 141.26 139.84 140.30 139.50 C 139.33 139.15 138.27 139.66 137.93 140.62 Z M 137.58 141.59 L 137.24 142.63 C 136.92 143.60 137.45 144.65 138.42 144.97 C 139.39 145.29 140.44 144.77 140.76 143.79 L 141.11 142.75 C 141.43 141.78 140.90 140.73 139.93 140.41 C 138.95 140.09 137.90 140.62 137.58 141.59 Z M 137.22 142.68 L 136.92 143.66 C 136.63 144.65 137.19 145.68 138.17 145.98 C 139.15 146.27 140.19 145.72 140.48 144.73 L 140.78 143.75 C 141.07 142.76 140.52 141.73 139.54 141.43 C 138.55 141.14 137.52 141.69 137.22 142.68 Z M 136.91 143.71 L 136.65 144.65 C 136.39 145.64 136.97 146.66 137.96 146.93 C 138.95 147.20 139.98 146.61 140.24 145.62 L 140.50 144.68 C 140.77 143.69 140.18 142.67 139.19 142.40 C 138.20 142.13 137.18 142.72 136.91 143.71 Z M 136.64 144.70 L 136.42 145.59 C 136.18 146.59 136.80 147.60 137.80 147.84 C 138.80 148.08 139.80 147.46 140.04 146.46 L 140.26 145.57 C 140.50 144.57 139.89 143.57 138.89 143.32 C 137.89 143.08 136.88 143.70 136.64 144.70 Z M 136.41 145.64 L 136.20 146.63 C 135.99 147.63 136.64 148.62 137.64 148.83 C 138.65 149.04 139.64 148.40 139.85 147.39 L 140.06 146.41 C 140.27 145.40 139.62 144.42 138.62 144.20 C 137.61 143.99 136.62 144.64 136.41 145.64 Z M 136.19 146.69 L 136.02 147.67 C 135.85 148.69 136.53 149.65 137.54 149.83 C 138.56 150.00 139.52 149.32 139.70 148.31 L 139.86 147.33 C 140.04 146.31 139.36 145.35 138.34 145.17 C 137.33 145.00 136.36 145.68 136.19 146.69 Z M 136.01 147.75 L 135.88 148.73 C 135.75 149.75 136.47 150.69 137.49 150.82 C 138.51 150.95 139.45 150.23 139.58 149.21 L 139.71 148.23 C 139.84 147.21 139.12 146.27 138.10 146.14 C 137.08 146.01 136.14 146.73 136.01 147.75 Z M 135.87 148.82 L 135.79 149.84 C 135.70 150.86 136.47 151.76 137.49 151.85 C 138.52 151.93 139.42 151.17 139.51 150.14 L 139.59 149.12 C 139.68 148.10 138.91 147.19 137.89 147.11 C 136.86 147.03 135.96 147.79 135.87 148.82 Z M 135.78 149.97 L 135.77 151.04 C 135.76 152.07 136.58 152.92 137.61 152.93 C 138.64 152.94 139.49 152.12 139.50 151.09 L 139.51 150.01 C 139.53 148.98 138.70 148.14 137.67 148.12 C 136.64 148.11 135.79 148.94 135.78 149.97 Z M 135.79 151.31 L 135.92 152.30 C 136.06 153.32 137.00 154.04 138.02 153.90 C 139.04 153.76 139.75 152.82 139.62 151.80 L 139.48 150.81 C 139.34 149.79 138.41 149.08 137.38 149.22 C 136.36 149.35 135.65 150.29 135.79 151.31 Z M 136.06 152.80 L 136.42 153.61 C 136.83 154.55 137.93 154.97 138.88 154.56 C 139.82 154.14 140.24 153.04 139.83 152.10 L 139.47 151.30 C 139.06 150.35 137.96 149.93 137.01 150.34 C 136.07 150.76 135.64 151.86 136.06 152.80 Z M 136.91 154.27 L 137.57 154.84 C 138.35 155.51 139.53 155.42 140.20 154.64 C 140.88 153.86 140.79 152.68 140.01 152.01 L 139.34 151.44 C 138.56 150.77 137.38 150.85 136.71 151.64 C 136.04 152.42 136.12 153.59 136.91 154.27 Z M 138.16 155.18 L 139.08 155.51 C 140.05 155.86 141.12 155.36 141.47 154.39 C 141.82 153.42 141.31 152.35 140.34 152.00 L 139.42 151.67 C 138.45 151.32 137.38 151.83 137.03 152.79 C 136.69 153.76 137.19 154.83 138.16 155.18 Z M 139.46 155.61 L 140.57 155.76 C 141.59 155.90 142.53 155.19 142.68 154.17 C 142.82 153.15 142.10 152.20 141.08 152.06 L 139.97 151.91 C 138.95 151.77 138.01 152.48 137.86 153.50 C 137.72 154.52 138.44 155.46 139.46 155.61 Z M 140.76 155.78 L 141.72 155.81 C 142.75 155.84 143.61 155.04 143.64 154.01 C 143.68 152.98 142.87 152.11 141.84 152.08 L 140.89 152.05 C 139.86 152.01 139.00 152.82 138.96 153.85 C 138.93 154.88 139.73 155.74 140.76 155.78 Z M 141.86 155.81 L 142.86 155.77 C 143.89 155.72 144.69 154.85 144.64 153.82 C 144.60 152.80 143.73 152.00 142.70 152.04 L 141.70 152.08 C 140.67 152.12 139.87 152.99 139.92 154.02 C 139.96 155.05 140.83 155.85 141.86 155.81 Z M 143.00 155.75 L 144.02 155.63 C 145.04 155.51 145.77 154.58 145.65 153.56 C 145.52 152.54 144.59 151.81 143.57 151.93 L 142.56 152.05 C 141.54 152.17 140.81 153.10 140.93 154.12 C 141.05 155.15 141.98 155.88 143.00 155.75 Z M 144.17 155.60 L 145.17 155.40 C 146.18 155.19 146.83 154.20 146.62 153.19 C 146.41 152.19 145.42 151.54 144.41 151.75 L 143.42 151.96 C 142.41 152.17 141.76 153.15 141.97 154.16 C 142.18 155.17 143.17 155.81 144.17 155.60 Z M 145.33 155.36 L 146.20 155.09 C 147.18 154.80 147.74 153.75 147.44 152.77 C 147.14 151.79 146.10 151.23 145.12 151.53 L 144.25 151.79 C 143.27 152.09 142.71 153.13 143.01 154.11 C 143.31 155.10 144.35 155.65 145.33 155.36 Z M 146.33 155.05 L 147.20 154.71 C 148.16 154.33 148.63 153.25 148.26 152.30 C 147.88 151.34 146.80 150.86 145.85 151.24 L 144.98 151.58 C 144.02 151.95 143.55 153.03 143.92 153.99 C 144.30 154.95 145.38 155.42 146.33 155.05 Z M 147.31 154.66 L 148.21 154.25 C 149.14 153.81 149.55 152.71 149.12 151.77 C 148.68 150.84 147.58 150.43 146.64 150.86 L 145.74 151.28 C 144.81 151.71 144.40 152.82 144.83 153.75 C 145.27 154.69 146.37 155.09 147.31 154.66 Z M 148.28 154.21 L 149.25 153.71 C 150.16 153.24 150.53 152.12 150.06 151.21 C 149.59 150.29 148.46 149.93 147.55 150.40 L 146.58 150.90 C 145.66 151.37 145.30 152.49 145.77 153.41 C 146.24 154.32 147.36 154.68 148.28 154.21 Z M 149.29 153.69 L 150.19 153.20 C 151.09 152.71 151.43 151.58 150.94 150.68 C 150.45 149.78 149.32 149.44 148.42 149.93 L 147.51 150.42 C 146.61 150.91 146.27 152.04 146.76 152.94 C 147.25 153.85 148.38 154.18 149.29 153.69 Z M 150.21 153.19 L 151.04 152.73 C 151.94 152.23 152.27 151.10 151.77 150.20 C 151.27 149.30 150.14 148.98 149.24 149.47 L 148.40 149.94 C 147.50 150.44 147.18 151.57 147.68 152.47 C 148.17 153.37 149.31 153.69 150.21 153.19 Z M 151.05 152.72 L 151.93 152.23 C 152.82 151.72 153.14 150.59 152.64 149.69 C 152.13 148.80 150.99 148.48 150.10 148.99 L 149.23 149.48 C 148.33 149.99 148.01 151.12 148.52 152.02 C 149.02 152.91 150.16 153.23 151.05 152.72 Z M 151.94 152.22 L 152.83 151.71 C 153.72 151.20 154.03 150.07 153.52 149.17 C 153.02 148.28 151.88 147.97 150.99 148.48 L 150.09 148.99 C 149.20 149.50 148.89 150.64 149.40 151.53 C 149.91 152.42 151.04 152.73 151.94 152.22 Z M 152.84 151.71 L 153.74 151.19 C 154.63 150.68 154.93 149.54 154.42 148.65 C 153.91 147.76 152.77 147.45 151.88 147.97 L 150.98 148.49 C 150.09 149.00 149.78 150.14 150.30 151.03 C 150.81 151.92 151.95 152.22 152.84 151.71 Z M 153.74 151.19 L 154.63 150.68 C 155.52 150.16 155.82 149.02 155.30 148.13 C 154.79 147.24 153.65 146.94 152.76 147.46 L 151.87 147.97 C 150.98 148.49 150.68 149.62 151.20 150.51 C 151.71 151.40 152.85 151.71 153.74 151.19 Z M 154.63 150.67 L 155.53 150.15 C 156.42 149.63 156.72 148.49 156.20 147.61 C 155.68 146.72 154.54 146.42 153.66 146.94 L 152.76 147.46 C 151.87 147.98 151.57 149.11 152.09 150.00 C 152.60 150.89 153.74 151.19 154.63 150.67 Z M 155.53 150.15 L 156.44 149.62 C 157.33 149.10 157.63 147.96 157.11 147.07 C 156.59 146.19 155.46 145.89 154.57 146.40 L 153.66 146.94 C 152.77 147.45 152.47 148.59 152.99 149.48 C 153.50 150.37 154.64 150.67 155.53 150.15 Z M 156.44 149.62 L 157.31 149.11 C 158.20 148.60 158.51 147.46 157.99 146.57 C 157.48 145.68 156.34 145.38 155.45 145.89 L 154.57 146.40 C 153.69 146.92 153.38 148.05 153.90 148.94 C 154.41 149.83 155.55 150.13 156.44 149.62 Z M 157.31 149.11 L 158.16 148.63 C 159.05 148.12 159.36 146.98 158.85 146.09 C 158.34 145.20 157.20 144.89 156.31 145.40 L 155.46 145.89 C 154.57 146.40 154.26 147.53 154.77 148.42 C 155.28 149.32 156.42 149.62 157.31 149.11 Z M 158.14 148.63 L 158.98 148.16 C 159.88 147.66 160.19 146.53 159.69 145.64 C 159.19 144.74 158.06 144.42 157.17 144.92 L 156.33 145.39 C 155.43 145.90 155.12 147.03 155.62 147.92 C 156.12 148.82 157.25 149.13 158.14 148.63 Z M 158.96 148.17 L 159.80 147.72 C 160.69 147.23 161.03 146.10 160.53 145.20 C 160.04 144.30 158.92 143.97 158.02 144.46 L 157.18 144.92 C 156.29 145.41 155.95 146.53 156.45 147.43 C 156.94 148.33 158.06 148.66 158.96 148.17 Z M 159.77 147.73 L 160.62 147.28 C 161.53 146.80 161.87 145.68 161.40 144.78 C 160.92 143.87 159.80 143.52 158.89 144.00 L 158.04 144.45 C 157.14 144.93 156.79 146.05 157.27 146.95 C 157.74 147.86 158.87 148.21 159.77 147.73 Z M 160.59 147.30 L 161.46 146.86 C 162.37 146.40 162.74 145.28 162.27 144.37 C 161.81 143.45 160.70 143.09 159.78 143.55 L 158.92 143.99 C 158.01 144.45 157.64 145.56 158.10 146.48 C 158.56 147.39 159.68 147.76 160.59 147.30 Z M 161.42 146.87 L 162.31 146.45 C 163.23 146.00 163.62 144.90 163.18 143.98 C 162.73 143.05 161.62 142.66 160.70 143.11 L 159.82 143.53 C 158.89 143.98 158.51 145.09 158.95 146.01 C 159.39 146.93 160.50 147.32 161.42 146.87 Z M 162.27 146.46 L 163.19 146.05 C 164.12 145.62 164.53 144.53 164.11 143.59 C 163.69 142.66 162.59 142.25 161.66 142.67 L 160.74 143.09 C 159.81 143.52 159.40 144.61 159.82 145.55 C 160.24 146.48 161.34 146.89 162.27 146.46 Z M 163.15 146.06 L 164.11 145.65 C 165.05 145.25 165.49 144.16 165.08 143.22 C 164.68 142.28 163.59 141.85 162.65 142.25 L 161.69 142.66 C 160.75 143.06 160.32 144.15 160.72 145.09 C 161.12 146.03 162.21 146.47 163.15 146.06 Z M 164.07 145.67 L 165.03 145.28 C 165.98 144.90 166.44 143.82 166.06 142.87 C 165.68 141.93 164.60 141.47 163.65 141.85 L 162.69 142.23 C 161.74 142.61 161.28 143.69 161.66 144.64 C 162.05 145.59 163.12 146.05 164.07 145.67 Z M 165.00 145.30 L 165.95 144.94 C 166.90 144.58 167.39 143.51 167.02 142.55 C 166.66 141.59 165.59 141.11 164.64 141.47 L 163.68 141.83 C 162.73 142.19 162.25 143.26 162.61 144.22 C 162.97 145.18 164.04 145.66 165.00 145.30 Z M 165.91 144.95 L 166.88 144.61 C 167.85 144.26 168.35 143.20 168.01 142.24 C 167.67 141.28 166.61 140.77 165.64 141.11 L 164.67 141.46 C 163.71 141.80 163.20 142.86 163.55 143.82 C 163.89 144.79 164.95 145.29 165.91 144.95 Z M 166.85 144.62 L 167.82 144.30 C 168.79 143.98 169.32 142.93 169.00 141.96 C 168.67 140.98 167.63 140.46 166.65 140.78 L 165.68 141.10 C 164.71 141.42 164.18 142.47 164.50 143.44 C 164.83 144.41 165.87 144.94 166.85 144.62 Z M 167.78 144.31 L 168.73 144.02 C 169.71 143.72 170.27 142.69 169.97 141.71 C 169.67 140.73 168.63 140.18 167.65 140.47 L 166.70 140.76 C 165.72 141.06 165.16 142.10 165.46 143.08 C 165.76 144.06 166.80 144.61 167.78 144.31 Z M 168.68 144.04 L 169.61 143.78 C 170.60 143.51 171.18 142.49 170.91 141.51 C 170.64 140.52 169.62 139.94 168.63 140.21 L 167.71 140.46 C 166.72 140.73 166.13 141.75 166.40 142.74 C 166.67 143.72 167.69 144.31 168.68 144.04 Z M 169.54 143.80 L 170.56 143.56 C 171.56 143.33 172.18 142.33 171.95 141.34 C 171.71 140.34 170.72 139.72 169.72 139.95 L 168.70 140.19 C 167.70 140.42 167.08 141.42 167.31 142.42 C 167.54 143.41 168.54 144.03 169.54 143.80 Z M 170.47 143.58 L 171.52 143.39 C 172.53 143.21 173.19 142.24 173.01 141.23 C 172.83 140.23 171.86 139.56 170.85 139.74 L 169.81 139.93 C 168.80 140.11 168.13 141.08 168.31 142.09 C 168.50 143.10 169.46 143.77 170.47 143.58 Z M 171.42 143.41 L 172.40 143.28 C 173.42 143.16 174.14 142.23 174.01 141.21 C 173.88 140.19 172.95 139.47 171.94 139.60 L 170.95 139.72 C 169.93 139.85 169.21 140.78 169.34 141.80 C 169.47 142.82 170.40 143.54 171.42 143.41 Z M 172.30 143.29 L 173.24 143.23 C 174.27 143.15 175.04 142.26 174.96 141.24 C 174.89 140.22 174.00 139.45 172.98 139.52 L 172.03 139.59 C 171.01 139.66 170.24 140.55 170.32 141.58 C 170.39 142.60 171.28 143.37 172.30 143.29 Z M 173.15 143.23 L 174.08 143.21 C 175.10 143.19 175.91 142.34 175.89 141.31 C 175.87 140.29 175.02 139.47 173.99 139.50 L 173.07 139.52 C 172.04 139.54 171.23 140.39 171.25 141.42 C 171.28 142.44 172.13 143.25 173.15 143.23 Z M 173.99 143.21 L 175.05 143.24 C 176.08 143.26 176.93 142.45 176.96 141.43 C 176.98 140.40 176.17 139.55 175.14 139.52 L 174.08 139.49 C 173.05 139.47 172.20 140.28 172.17 141.31 C 172.15 142.33 172.96 143.19 173.99 143.21 Z M 174.93 143.23 L 175.96 143.33 C 176.98 143.42 177.89 142.67 177.98 141.64 C 178.08 140.62 177.32 139.71 176.30 139.62 L 175.27 139.53 C 174.24 139.43 173.34 140.19 173.24 141.21 C 173.15 142.23 173.90 143.14 174.93 143.23 Z M 175.79 143.31 L 176.75 143.49 C 177.77 143.68 178.74 143.01 178.93 141.99 C 179.12 140.98 178.45 140.01 177.44 139.82 L 176.47 139.64 C 175.46 139.45 174.48 140.12 174.30 141.13 C 174.11 142.15 174.78 143.12 175.79 143.31 Z M 176.52 143.43 L 177.38 143.71 C 178.37 144.03 179.42 143.50 179.74 142.52 C 180.06 141.53 179.52 140.48 178.54 140.16 L 177.67 139.88 C 176.69 139.56 175.64 140.09 175.32 141.07 C 175.00 142.06 175.53 143.11 176.52 143.43 Z M 177.05 143.57 L 177.93 144.06 C 178.83 144.57 179.97 144.24 180.48 143.34 C 180.98 142.44 180.66 141.30 179.75 140.79 L 178.88 140.30 C 177.97 139.80 176.83 140.12 176.33 141.02 C 175.82 141.92 176.15 143.07 177.05 143.57 Z M 177.61 143.84 L 178.34 144.48 C 179.12 145.16 180.31 145.08 180.99 144.30 C 181.67 143.52 181.59 142.34 180.81 141.66 L 180.07 141.01 C 179.29 140.33 178.11 140.41 177.43 141.19 C 176.75 141.97 176.83 143.16 177.61 143.84 Z M 178.13 144.28 L 178.78 145.04 C 179.44 145.84 180.63 145.95 181.42 145.28 C 182.22 144.61 182.33 143.43 181.66 142.63 L 181.02 141.86 C 180.35 141.07 179.16 140.96 178.37 141.63 C 177.57 142.29 177.47 143.48 178.13 144.28 Z M 178.67 144.91 L 179.22 145.70 C 179.81 146.56 180.98 146.77 181.84 146.18 C 182.69 145.59 182.91 144.42 182.32 143.56 L 181.77 142.77 C 181.18 141.91 180.00 141.70 179.15 142.29 C 178.29 142.88 178.08 144.05 178.67 144.91 Z M 179.15 145.60 L 179.65 146.44 C 180.19 147.34 181.35 147.63 182.24 147.09 C 183.13 146.55 183.43 145.40 182.89 144.50 L 182.39 143.66 C 181.85 142.77 180.69 142.48 179.80 143.01 C 178.90 143.55 178.61 144.71 179.15 145.60 Z M 179.59 146.34 L 180.06 147.24 C 180.54 148.17 181.68 148.53 182.60 148.06 C 183.53 147.58 183.90 146.44 183.42 145.51 L 182.95 144.61 C 182.47 143.68 181.33 143.31 180.41 143.79 C 179.48 144.27 179.11 145.41 179.59 146.34 Z M 180.00 147.13 L 180.42 148.09 C 180.84 149.04 181.95 149.48 182.91 149.06 C 183.87 148.65 184.31 147.53 183.89 146.57 L 183.47 145.62 C 183.05 144.66 181.94 144.22 180.98 144.64 C 180.02 145.06 179.59 146.18 180.00 147.13 Z M 180.37 147.98 L 180.67 148.80 C 181.03 149.78 182.12 150.29 183.10 149.93 C 184.08 149.57 184.59 148.48 184.23 147.50 L 183.93 146.68 C 183.57 145.70 182.49 145.19 181.50 145.55 C 180.52 145.91 180.02 147.00 180.37 147.98 Z M 180.64 148.70 L 180.91 149.58 C 181.21 150.58 182.26 151.15 183.27 150.84 C 184.27 150.54 184.83 149.48 184.53 148.48 L 184.27 147.60 C 183.96 146.60 182.91 146.03 181.91 146.34 C 180.90 146.64 180.34 147.70 180.64 148.70 Z M 180.88 149.48 L 181.11 150.45 C 181.36 151.46 182.39 152.09 183.40 151.84 C 184.42 151.59 185.04 150.57 184.80 149.55 L 184.56 148.58 C 184.31 147.57 183.29 146.94 182.27 147.19 C 181.25 147.44 180.63 148.46 180.88 149.48 Z M 181.09 150.36 L 181.31 151.44 C 181.50 152.47 182.50 153.14 183.53 152.94 C 184.55 152.74 185.22 151.75 185.03 150.72 L 184.81 149.64 C 184.62 148.61 183.62 147.94 182.59 148.14 C 181.57 148.34 180.90 149.33 181.09 150.36 Z M 181.29 151.38 L 181.45 152.40 C 181.62 153.43 182.59 154.14 183.62 153.98 C 184.65 153.82 185.36 152.85 185.20 151.81 L 185.04 150.79 C 184.87 149.76 183.91 149.05 182.87 149.21 C 181.84 149.37 181.13 150.34 181.29 151.38 Z M 181.45 152.36 L 181.56 153.23 C 181.70 154.27 182.65 155.00 183.69 154.86 C 184.73 154.73 185.46 153.77 185.32 152.73 L 185.21 151.86 C 185.07 150.82 184.12 150.09 183.08 150.23 C 182.04 150.36 181.31 151.32 181.45 152.36 Z M 181.56 153.20 L 181.66 154.13 C 181.78 155.17 182.72 155.92 183.76 155.80 C 184.80 155.68 185.55 154.74 185.43 153.70 L 185.33 152.77 C 185.21 151.73 184.27 150.98 183.23 151.10 C 182.19 151.22 181.44 152.16 181.56 153.20 Z M 181.66 154.10 L 181.76 155.09 C 181.86 156.13 182.79 156.89 183.83 156.79 C 184.87 156.69 185.63 155.76 185.53 154.72 L 185.44 153.73 C 185.33 152.69 184.41 151.93 183.36 152.03 C 182.32 152.13 181.56 153.06 181.66 154.10 Z M 181.75 155.06 L 181.84 156.09 C 181.93 157.14 182.84 157.91 183.89 157.83 C 184.93 157.74 185.71 156.82 185.62 155.78 L 185.54 154.75 C 185.45 153.70 184.53 152.93 183.49 153.01 C 182.44 153.10 181.67 154.02 181.75 155.06 Z M 181.84 156.07 L 181.91 157.13 C 181.98 158.18 182.89 158.97 183.93 158.90 C 184.98 158.83 185.77 157.92 185.70 156.87 L 185.62 155.81 C 185.55 154.76 184.65 153.97 183.60 154.04 C 182.55 154.11 181.76 155.02 181.84 156.07 Z M 181.91 157.11 L 181.97 158.21 C 182.03 159.25 182.92 160.06 183.97 160.00 C 185.02 159.94 185.82 159.04 185.76 158.00 L 185.70 156.90 C 185.64 155.85 184.75 155.05 183.70 155.11 C 182.65 155.17 181.85 156.06 181.91 157.11 Z M 181.97 158.18 L 182.01 159.28 C 182.06 160.33 182.94 161.14 183.99 161.10 C 185.04 161.05 185.85 160.17 185.81 159.12 L 185.76 158.02 C 185.72 156.97 184.83 156.16 183.78 156.20 C 182.74 156.25 181.92 157.13 181.97 158.18 Z M 182.01 159.26 L 182.04 160.34 C 182.08 161.39 182.95 162.22 184.00 162.18 C 185.05 162.15 185.88 161.27 185.84 160.22 L 185.81 159.14 C 185.78 158.09 184.90 157.27 183.85 157.30 C 182.80 157.33 181.98 158.21 182.01 159.26 Z M 182.04 160.32 L 182.07 161.40 C 182.09 162.45 182.96 163.28 184.01 163.26 C 185.06 163.24 185.89 162.37 185.87 161.32 L 185.85 160.24 C 185.82 159.19 184.95 158.36 183.90 158.38 C 182.85 158.41 182.02 159.27 182.04 160.32 Z M 182.07 161.39 L 182.08 162.44 C 182.09 163.49 182.96 164.33 184.01 164.32 C 185.06 164.30 185.90 163.44 185.88 162.39 L 185.87 161.34 C 185.86 160.29 184.99 159.45 183.94 159.46 C 182.89 159.47 182.05 160.34 182.07 161.39 Z M 182.08 162.43 L 182.09 163.44 C 182.09 164.49 182.95 165.34 184.00 165.33 C 185.05 165.33 185.90 164.47 185.89 163.42 L 185.88 162.41 C 185.88 161.35 185.02 160.51 183.97 160.51 C 182.92 160.52 182.07 161.38 182.08 162.43 Z M 182.08 163.43 L 182.08 164.39 C 182.08 165.44 182.94 166.29 183.99 166.29 C 185.04 166.29 185.89 165.44 185.89 164.39 L 185.89 163.43 C 185.89 162.38 185.04 161.53 183.99 161.53 C 182.94 161.53 182.08 162.38 182.08 163.43 Z M 182.08 164.38 L 182.08 165.27 C 182.07 166.32 182.92 167.18 183.97 167.18 C 185.02 167.19 185.88 166.34 185.89 165.29 L 185.89 164.40 C 185.90 163.35 185.05 162.49 184.00 162.49 C 182.95 162.48 182.09 163.33 182.08 164.38 Z M 182.08 165.26 L 182.07 166.20 C 182.06 167.26 182.90 168.12 183.95 168.13 C 185.00 168.14 185.86 167.30 185.87 166.25 L 185.89 165.30 C 185.90 164.25 185.06 163.39 184.00 163.38 C 182.95 163.36 182.09 164.21 182.08 165.26 Z M 182.07 166.18 L 182.04 167.27 C 182.02 168.32 182.85 169.19 183.91 169.22 C 184.96 169.24 185.83 168.41 185.85 167.35 L 185.87 166.27 C 185.90 165.22 185.06 164.35 184.01 164.32 C 182.96 164.30 182.09 165.13 182.07 166.18 Z M 182.05 167.23 L 182.00 168.18 C 181.96 169.23 182.77 170.12 183.82 170.17 C 184.87 170.21 185.76 169.40 185.81 168.35 L 185.85 167.40 C 185.90 166.35 185.08 165.46 184.03 165.41 C 182.98 165.36 182.09 166.18 182.05 167.23 Z M 182.01 168.12 L 181.94 169.03 C 181.86 170.08 182.64 170.99 183.69 171.07 C 184.74 171.15 185.65 170.37 185.73 169.32 L 185.80 168.41 C 185.88 167.36 185.10 166.45 184.05 166.37 C 183.00 166.29 182.09 167.07 182.01 168.12 Z M 181.94 168.97 L 181.84 169.93 C 181.72 170.97 182.48 171.91 183.52 172.03 C 184.56 172.14 185.50 171.39 185.62 170.35 L 185.73 169.38 C 185.84 168.34 185.09 167.40 184.04 167.28 C 183.00 167.17 182.06 167.92 181.94 168.97 Z M 181.84 169.88 L 181.72 170.78 C 181.58 171.82 182.31 172.78 183.35 172.92 C 184.39 173.06 185.35 172.33 185.49 171.29 L 185.61 170.39 C 185.75 169.35 185.02 168.39 183.98 168.25 C 182.94 168.11 181.98 168.84 181.84 169.88 Z M 181.73 170.75 L 181.58 171.70 C 181.43 172.74 182.14 173.71 183.18 173.86 C 184.21 174.02 185.18 173.31 185.34 172.27 L 185.49 171.32 C 185.64 170.28 184.93 169.31 183.89 169.15 C 182.86 169.00 181.89 169.71 181.73 170.75 Z M 181.59 171.67 L 181.42 172.67 C 181.25 173.71 181.95 174.69 182.98 174.86 C 184.02 175.03 185.00 174.33 185.17 173.30 L 185.34 172.30 C 185.51 171.26 184.81 170.28 183.78 170.11 C 182.74 169.94 181.76 170.64 181.59 171.67 Z M 181.43 172.65 L 181.24 173.68 C 181.05 174.71 181.74 175.70 182.77 175.89 C 183.80 176.07 184.79 175.39 184.98 174.35 L 185.17 173.32 C 185.35 172.29 184.67 171.30 183.63 171.12 C 182.60 170.93 181.61 171.62 181.43 172.65 Z M 181.24 173.65 L 181.04 174.69 C 180.84 175.72 181.51 176.71 182.54 176.91 C 183.57 177.11 184.57 176.44 184.77 175.41 L 184.97 174.38 C 185.17 173.35 184.50 172.35 183.47 172.15 C 182.44 171.95 181.45 172.62 181.24 173.65 Z M 181.05 174.66 L 180.83 175.69 C 180.62 176.72 181.27 177.72 182.30 177.94 C 183.32 178.16 184.33 177.50 184.55 176.47 L 184.77 175.44 C 184.98 174.42 184.33 173.41 183.30 173.19 C 182.27 172.98 181.27 173.63 181.05 174.66 Z M 180.84 175.66 L 180.60 176.70 C 180.37 177.72 181.00 178.74 182.03 178.97 C 183.05 179.21 184.06 178.57 184.30 177.55 L 184.54 176.51 C 184.77 175.49 184.14 174.47 183.12 174.23 C 182.10 174.00 181.08 174.63 180.84 175.66 Z M 180.61 176.66 L 180.36 177.65 C 180.11 178.67 180.72 179.70 181.74 179.95 C 182.75 180.21 183.78 179.60 184.04 178.58 L 184.29 177.59 C 184.54 176.57 183.93 175.54 182.91 175.29 C 181.90 175.03 180.87 175.65 180.61 176.66 Z M 180.38 177.61 L 180.11 178.57 C 179.83 179.57 180.43 180.61 181.43 180.89 C 182.44 181.17 183.48 180.58 183.76 179.57 L 184.02 178.62 C 184.30 177.62 183.71 176.57 182.70 176.29 C 181.70 176.02 180.65 176.61 180.38 177.61 Z M 180.13 178.52 L 179.85 179.43 C 179.55 180.43 180.11 181.49 181.11 181.79 C 182.11 182.09 183.17 181.53 183.47 180.53 L 183.74 179.62 C 184.05 178.62 183.48 177.56 182.48 177.26 C 181.49 176.96 180.43 177.52 180.13 178.52 Z M 179.87 179.39 L 179.57 180.28 C 179.24 181.27 179.78 182.34 180.77 182.67 C 181.76 183.00 182.82 182.46 183.15 181.47 L 183.45 180.58 C 183.78 179.59 183.24 178.52 182.26 178.19 C 181.27 177.86 180.20 178.40 179.87 179.39 Z M 179.59 180.23 L 179.23 181.21 C 178.88 182.19 179.38 183.27 180.35 183.63 C 181.33 183.99 182.41 183.49 182.77 182.51 L 183.13 181.53 C 183.49 180.55 182.99 179.47 182.01 179.11 C 181.03 178.75 179.95 179.25 179.59 180.23 Z M 179.26 181.16 L 178.88 182.10 C 178.49 183.07 178.96 184.16 179.92 184.55 C 180.89 184.93 181.98 184.47 182.37 183.50 L 182.74 182.56 C 183.13 181.60 182.66 180.51 181.70 180.12 C 180.74 179.73 179.64 180.20 179.26 181.16 Z M 178.90 182.06 L 178.51 182.96 C 178.10 183.91 178.54 185.01 179.49 185.42 C 180.44 185.84 181.54 185.40 181.95 184.45 L 182.34 183.55 C 182.76 182.60 182.32 181.50 181.37 181.08 C 180.42 180.67 179.32 181.11 178.90 182.06 Z M 178.54 182.92 L 178.13 183.79 C 177.70 184.73 178.11 185.84 179.04 186.27 C 179.98 186.71 181.09 186.30 181.53 185.36 L 181.93 184.49 C 182.36 183.55 181.96 182.44 181.02 182.01 C 180.08 181.57 178.97 181.98 178.54 182.92 Z M 178.16 183.75 L 177.71 184.66 C 177.26 185.58 177.64 186.70 178.56 187.15 C 179.49 187.60 180.61 187.22 181.06 186.30 L 181.50 185.40 C 181.96 184.47 181.58 183.36 180.65 182.90 C 179.73 182.45 178.61 182.83 178.16 183.75 Z M 177.75 184.60 L 177.28 185.48 C 176.79 186.38 177.13 187.51 178.03 188.00 C 178.93 188.48 180.06 188.15 180.54 187.24 L 181.02 186.36 C 181.51 185.46 181.17 184.33 180.27 183.84 C 179.37 183.36 178.24 183.69 177.75 184.60 Z M 177.34 185.39 L 176.82 186.23 C 176.28 187.09 176.54 188.23 177.41 188.77 C 178.28 189.31 179.42 189.05 179.95 188.18 L 180.48 187.34 C 181.02 186.47 180.75 185.33 179.88 184.79 C 179.02 184.26 177.88 184.52 177.34 185.39 Z M 176.91 186.10 L 176.32 186.89 C 175.72 187.71 175.88 188.86 176.70 189.47 C 177.51 190.07 178.66 189.91 179.27 189.09 L 179.86 188.30 C 180.47 187.49 180.30 186.34 179.49 185.73 C 178.67 185.12 177.52 185.29 176.91 186.10 Z M 176.45 186.76 L 175.80 187.47 C 175.11 188.21 175.16 189.37 175.90 190.05 C 176.65 190.73 177.81 190.69 178.49 189.94 L 179.14 189.23 C 179.83 188.49 179.78 187.33 179.03 186.65 C 178.29 185.96 177.13 186.01 176.45 186.76 Z M 175.95 187.33 L 175.21 187.98 C 174.46 188.64 174.38 189.78 175.04 190.54 C 175.69 191.30 176.84 191.38 177.60 190.72 L 178.34 190.08 C 179.09 189.42 179.17 188.27 178.51 187.51 C 177.85 186.75 176.71 186.68 175.95 187.33 Z M 175.39 187.86 L 174.56 188.42 C 173.74 188.98 173.53 190.11 174.09 190.93 C 174.65 191.75 175.78 191.96 176.60 191.40 L 177.42 190.84 C 178.25 190.28 178.46 189.15 177.90 188.33 C 177.33 187.50 176.21 187.29 175.39 187.86 Z M 174.76 188.32 L 173.84 188.79 C 172.96 189.24 172.62 190.33 173.07 191.21 C 173.52 192.09 174.61 192.43 175.49 191.98 L 176.40 191.50 C 177.28 191.05 177.63 189.97 177.17 189.09 C 176.72 188.21 175.64 187.86 174.76 188.32 Z M 174.04 188.72 L 173.10 189.07 C 172.18 189.41 171.71 190.43 172.05 191.35 C 172.39 192.28 173.42 192.74 174.34 192.40 L 175.28 192.05 C 176.21 191.71 176.67 190.68 176.33 189.76 C 175.99 188.84 174.97 188.37 174.04 188.72 Z M 173.27 189.03 L 172.30 189.29 C 171.36 189.53 170.80 190.50 171.04 191.44 C 171.29 192.38 172.25 192.94 173.19 192.69 L 174.17 192.44 C 175.11 192.19 175.67 191.23 175.42 190.29 C 175.17 189.35 174.21 188.78 173.27 189.03 Z M 172.43 189.28 L 171.43 189.46 C 170.48 189.64 169.86 190.54 170.03 191.49 C 170.21 192.43 171.11 193.06 172.06 192.89 L 173.06 192.70 C 174.00 192.53 174.63 191.62 174.46 190.68 C 174.28 189.73 173.38 189.10 172.43 189.28 Z M 171.53 189.47 L 170.53 189.59 C 169.59 189.71 168.92 190.57 169.04 191.51 C 169.15 192.45 170.01 193.12 170.96 193.00 L 171.96 192.88 C 172.90 192.76 173.57 191.91 173.45 190.96 C 173.33 190.02 172.48 189.35 171.53 189.47 Z M 170.61 189.60 L 169.63 189.68 C 168.70 189.75 168.00 190.57 168.07 191.50 C 168.14 192.44 168.96 193.14 169.89 193.07 L 170.88 192.99 C 171.81 192.92 172.51 192.10 172.44 191.17 C 172.37 190.23 171.55 189.53 170.61 189.60 Z M 169.71 189.69 L 168.68 189.72 C 167.75 189.75 167.02 190.53 167.05 191.46 C 167.08 192.39 167.86 193.12 168.79 193.09 L 169.82 193.06 C 170.75 193.03 171.48 192.25 171.45 191.32 C 171.42 190.39 170.64 189.66 169.71 189.69 Z M 168.79 189.74 L 167.80 189.71 C 166.88 189.68 166.11 190.40 166.08 191.32 C 166.05 192.24 166.77 193.01 167.69 193.04 L 168.68 193.08 C 169.60 193.10 170.37 192.38 170.40 191.46 C 170.43 190.54 169.71 189.77 168.79 189.74 Z M 167.93 189.73 L 166.96 189.62 C 166.05 189.51 165.23 190.17 165.13 191.08 C 165.03 191.98 165.68 192.81 166.59 192.91 L 167.56 193.02 C 168.47 193.12 169.29 192.47 169.39 191.56 C 169.49 190.65 168.84 189.83 167.93 189.73 Z M 167.11 189.66 L 166.14 189.45 C 165.25 189.27 164.38 189.84 164.20 190.73 C 164.01 191.62 164.58 192.49 165.47 192.67 L 166.44 192.87 C 167.33 193.06 168.20 192.49 168.38 191.60 C 168.57 190.71 168.00 189.84 167.11 189.66 Z M 166.28 189.49 L 165.40 189.23 C 164.53 188.97 163.62 189.47 163.36 190.33 C 163.10 191.20 163.60 192.11 164.46 192.37 L 165.34 192.63 C 166.21 192.89 167.12 192.40 167.38 191.53 C 167.63 190.66 167.14 189.75 166.28 189.49 Z M 165.50 189.27 L 164.60 188.93 C 163.75 188.61 162.81 189.04 162.49 189.89 C 162.18 190.74 162.61 191.68 163.46 192.00 L 164.36 192.33 C 165.20 192.65 166.15 192.22 166.46 191.37 C 166.78 190.53 166.35 189.58 165.50 189.27 Z M 164.69 188.97 L 163.76 188.56 C 162.93 188.20 161.96 188.57 161.60 189.40 C 161.24 190.23 161.62 191.19 162.44 191.56 L 163.37 191.96 C 164.20 192.33 165.16 191.95 165.53 191.12 C 165.89 190.29 165.51 189.33 164.69 188.97 Z M 163.83 188.59 L 162.87 188.12 C 162.06 187.72 161.08 188.05 160.68 188.86 C 160.28 189.67 160.61 190.65 161.42 191.05 L 162.37 191.52 C 163.18 191.93 164.17 191.59 164.57 190.78 C 164.97 189.97 164.64 188.99 163.83 188.59 Z M 162.93 188.15 L 162.02 187.66 C 161.23 187.23 160.23 187.52 159.80 188.32 C 159.37 189.11 159.67 190.11 160.46 190.54 L 161.37 191.03 C 162.16 191.46 163.16 191.16 163.59 190.37 C 164.02 189.57 163.72 188.58 162.93 188.15 Z M 162.06 187.68 L 161.22 187.19 C 160.44 186.74 159.44 187.01 158.99 187.79 C 158.53 188.57 158.80 189.57 159.58 190.03 L 160.42 190.51 C 161.21 190.97 162.21 190.70 162.66 189.92 C 163.11 189.13 162.85 188.13 162.06 187.68 Z M 161.26 187.22 L 160.41 186.70 C 159.64 186.22 158.63 186.46 158.16 187.23 C 157.69 188.01 157.93 189.01 158.70 189.49 L 159.55 190.01 C 160.32 190.48 161.33 190.24 161.80 189.47 C 162.27 188.70 162.03 187.69 161.26 187.22 Z M 160.45 186.72 L 159.60 186.17 C 158.84 185.68 157.82 185.89 157.33 186.65 C 156.84 187.41 157.06 188.42 157.82 188.91 L 158.67 189.46 C 159.43 189.96 160.44 189.74 160.93 188.98 C 161.42 188.22 161.20 187.21 160.45 186.72 Z M 159.63 186.19 L 158.78 185.61 C 158.04 185.10 157.02 185.30 156.51 186.04 C 156.00 186.79 156.19 187.81 156.94 188.32 L 157.78 188.89 C 158.53 189.40 159.55 189.21 160.06 188.46 C 160.57 187.72 160.38 186.70 159.63 186.19 Z M 158.82 185.63 L 157.98 185.04 C 157.25 184.51 156.23 184.68 155.70 185.41 C 155.17 186.15 155.34 187.17 156.07 187.70 L 156.91 188.29 C 157.64 188.82 158.67 188.65 159.19 187.92 C 159.72 187.18 159.55 186.16 158.82 185.63 Z M 158.01 185.06 L 157.21 184.46 C 156.49 183.91 155.46 184.06 154.92 184.78 C 154.38 185.50 154.52 186.53 155.24 187.07 L 156.04 187.67 C 156.77 188.22 157.79 188.07 158.34 187.35 C 158.88 186.63 158.74 185.60 158.01 185.06 Z M 157.24 184.47 L 156.45 183.86 C 155.74 183.30 154.71 183.42 154.15 184.13 C 153.59 184.85 153.72 185.88 154.43 186.43 L 155.22 187.05 C 155.93 187.61 156.96 187.48 157.51 186.77 C 158.07 186.06 157.95 185.03 157.24 184.47 Z M 156.47 183.87 L 155.69 183.24 C 154.99 182.68 153.96 182.78 153.39 183.49 C 152.82 184.19 152.93 185.22 153.63 185.79 L 154.41 186.42 C 155.11 186.99 156.14 186.88 156.71 186.17 C 157.28 185.47 157.17 184.44 156.47 183.87 Z M 155.71 183.26 L 154.94 182.62 C 154.24 182.04 153.21 182.14 152.63 182.84 C 152.06 183.53 152.15 184.56 152.85 185.14 L 153.62 185.78 C 154.31 186.35 155.35 186.26 155.92 185.56 C 156.50 184.86 156.40 183.83 155.71 183.26 Z M 154.95 182.63 L 154.18 181.98 C 153.49 181.40 152.46 181.49 151.88 182.19 C 151.29 182.88 151.38 183.91 152.08 184.49 L 152.84 185.13 C 153.53 185.71 154.57 185.62 155.15 184.93 C 155.73 184.24 155.64 183.21 154.95 182.63 Z M 154.18 181.99 L 153.76 181.63 C 153.06 181.04 152.03 181.13 151.45 181.82 C 150.87 182.51 150.95 183.54 151.64 184.13 L 152.07 184.49 C 152.76 185.07 153.80 184.98 154.38 184.29 C 154.96 183.60 154.88 182.57 154.18 181.99 Z"
      fill="black"
      fill-rule="nonzero" /><path d="M 140.73 143.00 L 141.78 143.18 C 142.77 143.34 143.70 142.67 143.86 141.69 C 144.02 140.71 143.36 139.78 142.37 139.61 L 141.33 139.44 C 140.34 139.28 139.41 139.94 139.25 140.93 C 139.09 141.91 139.75 142.84 140.73 143.00 Z M 141.79 143.19 L 142.82 143.36 C 143.82 143.52 144.75 142.84 144.91 141.85 C 145.07 140.85 144.39 139.92 143.40 139.76 L 142.37 139.59 C 141.37 139.43 140.44 140.11 140.28 141.11 C 140.12 142.10 140.80 143.04 141.79 143.19 Z M 142.84 143.38 L 143.83 143.53 C 144.84 143.68 145.78 142.99 145.93 141.98 C 146.08 140.97 145.38 140.04 144.38 139.89 L 143.38 139.74 C 142.38 139.59 141.44 140.28 141.29 141.29 C 141.14 142.29 141.83 143.23 142.84 143.38 Z M 143.86 143.55 L 144.80 143.68 C 145.82 143.81 146.75 143.09 146.89 142.07 C 147.02 141.05 146.30 140.12 145.28 139.99 L 144.35 139.86 C 143.33 139.73 142.39 140.45 142.26 141.47 C 142.13 142.49 142.84 143.42 143.86 143.55 Z M 144.85 143.70 L 145.82 143.79 C 146.85 143.90 147.77 143.15 147.88 142.12 C 147.98 141.09 147.23 140.17 146.20 140.06 L 145.23 139.97 C 144.20 139.86 143.28 140.61 143.18 141.64 C 143.07 142.67 143.82 143.59 144.85 143.70 Z M 145.90 143.81 L 146.90 143.86 C 147.94 143.93 148.83 143.13 148.89 142.10 C 148.95 141.06 148.16 140.17 147.12 140.11 L 146.12 140.05 C 145.09 139.99 144.20 140.78 144.14 141.82 C 144.07 142.86 144.87 143.75 145.90 143.81 Z M 146.98 143.87 L 147.94 143.88 C 148.98 143.90 149.84 143.08 149.86 142.04 C 149.88 141.00 149.05 140.14 148.01 140.13 L 147.05 140.11 C 146.01 140.09 145.15 140.92 145.13 141.95 C 145.11 142.99 145.94 143.85 146.98 143.87 Z M 147.99 143.89 L 148.99 143.88 C 150.03 143.87 150.86 143.02 150.85 141.98 C 150.84 140.94 149.99 140.11 148.96 140.12 L 147.96 140.13 C 146.92 140.13 146.09 140.98 146.10 142.02 C 146.11 143.06 146.96 143.89 147.99 143.89 Z M 149.01 143.87 L 149.99 143.85 C 151.03 143.83 151.85 142.97 151.83 141.94 C 151.81 140.90 150.95 140.08 149.91 140.10 L 148.93 140.12 C 147.90 140.14 147.07 141.00 147.10 142.04 C 147.12 143.07 147.98 143.89 149.01 143.87 Z M 150.01 143.84 L 151.03 143.81 C 152.07 143.78 152.87 142.91 152.84 141.88 C 152.81 140.85 151.94 140.04 150.91 140.07 L 149.89 140.11 C 148.86 140.14 148.05 141.00 148.08 142.04 C 148.12 143.07 148.98 143.88 150.01 143.84 Z M 151.06 143.80 L 152.08 143.75 C 153.11 143.70 153.90 142.83 153.85 141.80 C 153.80 140.77 152.93 139.98 151.90 140.03 L 150.88 140.08 C 149.85 140.13 149.06 141.01 149.11 142.03 C 149.16 143.06 150.03 143.85 151.06 143.80 Z M 152.13 143.74 L 153.11 143.67 C 154.13 143.60 154.90 142.71 154.83 141.69 C 154.75 140.66 153.86 139.89 152.84 139.97 L 151.86 140.04 C 150.84 140.11 150.07 141.00 150.14 142.03 C 150.21 143.05 151.10 143.82 152.13 143.74 Z M 153.17 143.65 L 154.24 143.54 C 155.25 143.43 155.98 142.52 155.87 141.50 C 155.76 140.49 154.85 139.76 153.84 139.87 L 152.77 139.99 C 151.76 140.10 151.03 141.01 151.14 142.02 C 151.25 143.03 152.16 143.76 153.17 143.65 Z M 154.32 143.50 L 155.30 143.35 C 156.30 143.20 156.98 142.27 156.83 141.28 C 156.68 140.29 155.75 139.60 154.75 139.75 L 153.77 139.90 C 152.77 140.06 152.09 140.98 152.24 141.98 C 152.39 142.97 153.32 143.66 154.32 143.50 Z M 155.37 143.32 L 156.30 143.14 C 157.28 142.95 157.91 142.01 157.73 141.03 C 157.54 140.06 156.59 139.42 155.62 139.61 L 154.69 139.79 C 153.71 139.98 153.07 140.92 153.26 141.90 C 153.45 142.87 154.40 143.51 155.37 143.32 Z M 156.35 143.11 L 157.30 142.89 C 158.26 142.68 158.86 141.72 158.64 140.76 C 158.42 139.81 157.47 139.21 156.51 139.42 L 155.56 139.64 C 154.61 139.86 154.01 140.81 154.22 141.77 C 154.44 142.73 155.40 143.33 156.35 143.11 Z M 157.34 142.87 L 158.30 142.63 C 159.25 142.38 159.82 141.42 159.58 140.48 C 159.34 139.53 158.38 138.96 157.43 139.20 L 156.47 139.45 C 155.52 139.69 154.95 140.65 155.19 141.59 C 155.43 142.54 156.40 143.11 157.34 142.87 Z M 158.33 142.61 L 159.30 142.34 C 160.23 142.09 160.78 141.12 160.53 140.19 C 160.27 139.25 159.31 138.70 158.37 138.96 L 157.40 139.22 C 156.47 139.48 155.92 140.44 156.18 141.38 C 156.43 142.31 157.39 142.86 158.33 142.61 Z M 159.31 142.32 L 160.27 142.05 C 161.19 141.79 161.73 140.83 161.47 139.90 C 161.21 138.98 160.25 138.44 159.32 138.70 L 158.36 138.97 C 157.44 139.24 156.90 140.20 157.16 141.12 C 157.42 142.05 158.39 142.59 159.31 142.32 Z M 160.27 142.04 L 161.23 141.76 C 162.15 141.50 162.68 140.54 162.41 139.62 C 162.15 138.71 161.19 138.18 160.27 138.44 L 159.32 138.72 C 158.40 138.98 157.87 139.94 158.13 140.86 C 158.40 141.77 159.36 142.30 160.27 142.04 Z M 161.23 141.75 L 162.20 141.47 C 163.11 141.21 163.63 140.25 163.37 139.34 C 163.10 138.43 162.15 137.91 161.24 138.17 L 160.27 138.45 C 159.36 138.72 158.84 139.67 159.10 140.58 C 159.37 141.49 160.32 142.02 161.23 141.75 Z M 162.20 141.46 L 163.17 141.18 C 164.07 140.91 164.59 139.97 164.33 139.06 C 164.06 138.16 163.12 137.64 162.21 137.90 L 161.24 138.18 C 160.34 138.45 159.82 139.39 160.08 140.30 C 160.35 141.20 161.29 141.72 162.20 141.46 Z M 163.16 141.17 L 164.12 140.89 C 165.02 140.62 165.54 139.68 165.28 138.78 C 165.01 137.89 164.07 137.37 163.17 137.63 L 162.21 137.91 C 161.32 138.17 160.80 139.11 161.06 140.01 C 161.32 140.91 162.26 141.43 163.16 141.17 Z M 164.12 140.88 L 165.08 140.60 C 165.97 140.34 166.49 139.40 166.23 138.51 C 165.97 137.61 165.03 137.10 164.14 137.36 L 163.18 137.64 C 162.28 137.90 161.77 138.84 162.03 139.73 C 162.29 140.62 163.23 141.14 164.12 140.88 Z M 165.08 140.59 L 166.04 140.31 C 166.93 140.05 167.44 139.12 167.18 138.23 C 166.92 137.34 165.99 136.83 165.10 137.09 L 164.14 137.37 C 163.25 137.63 162.74 138.56 163.00 139.45 C 163.26 140.34 164.19 140.85 165.08 140.59 Z M 166.04 140.30 L 167.01 140.01 C 167.89 139.76 168.40 138.83 168.14 137.95 C 167.88 137.06 166.95 136.56 166.07 136.82 L 165.10 137.10 C 164.22 137.36 163.71 138.28 163.97 139.17 C 164.23 140.05 165.15 140.56 166.04 140.30 Z M 167.01 140.00 L 167.97 139.72 C 168.85 139.45 169.35 138.53 169.09 137.65 C 168.83 136.77 167.90 136.28 167.02 136.54 L 166.06 136.83 C 165.19 137.09 164.69 138.01 164.95 138.89 C 165.21 139.77 166.14 140.27 167.01 140.00 Z M 167.99 139.70 L 168.94 139.41 C 169.81 139.14 170.29 138.21 170.02 137.34 C 169.75 136.47 168.83 135.98 167.95 136.26 L 167.01 136.55 C 166.14 136.82 165.65 137.75 165.92 138.62 C 166.19 139.49 167.12 139.97 167.99 139.70 Z M 168.96 139.39 L 169.92 139.08 C 170.78 138.79 171.25 137.86 170.97 137.00 C 170.68 136.14 169.75 135.67 168.89 135.95 L 167.93 136.27 C 167.07 136.56 166.60 137.49 166.88 138.35 C 167.17 139.21 168.10 139.68 168.96 139.39 Z M 169.94 139.07 L 170.89 138.74 C 171.74 138.45 172.20 137.52 171.91 136.66 C 171.61 135.80 170.68 135.34 169.82 135.64 L 168.87 135.96 C 168.01 136.26 167.56 137.19 167.85 138.05 C 168.14 138.91 169.08 139.36 169.94 139.07 Z M 170.88 138.74 L 171.81 138.43 C 172.67 138.14 173.13 137.21 172.85 136.35 C 172.56 135.49 171.63 135.03 170.77 135.32 L 169.83 135.64 C 168.97 135.93 168.51 136.86 168.80 137.71 C 169.09 138.57 170.02 139.03 170.88 138.74 Z M 171.78 138.44 L 172.70 138.15 C 173.56 137.88 174.04 136.96 173.77 136.09 C 173.49 135.23 172.57 134.75 171.71 135.02 L 170.80 135.31 C 169.94 135.59 169.46 136.51 169.73 137.37 C 170.00 138.23 170.92 138.71 171.78 138.44 Z M 172.66 138.16 L 173.58 137.89 C 174.45 137.64 174.95 136.73 174.69 135.86 C 174.44 134.99 173.53 134.50 172.67 134.75 L 171.75 135.01 C 170.88 135.27 170.38 136.18 170.63 137.04 C 170.88 137.91 171.79 138.41 172.66 138.16 Z M 173.55 137.90 L 174.53 137.63 C 175.41 137.40 175.92 136.50 175.68 135.62 C 175.45 134.75 174.55 134.24 173.67 134.47 L 172.69 134.74 C 171.82 134.98 171.31 135.88 171.54 136.75 C 171.78 137.62 172.68 138.14 173.55 137.90 Z M 174.52 137.64 L 175.51 137.38 C 176.39 137.15 176.91 136.25 176.68 135.38 C 176.46 134.50 175.56 133.98 174.69 134.21 L 173.69 134.47 C 172.81 134.70 172.29 135.59 172.52 136.47 C 172.75 137.34 173.64 137.87 174.52 137.64 Z M 175.51 137.38 L 176.43 137.14 C 177.30 136.92 177.83 136.03 177.61 135.15 C 177.38 134.28 176.49 133.75 175.61 133.97 L 174.69 134.21 C 173.82 134.43 173.29 135.32 173.51 136.20 C 173.74 137.07 174.63 137.60 175.51 137.38 Z M 176.42 137.14 L 177.39 136.90 C 178.27 136.68 178.80 135.79 178.58 134.91 C 178.36 134.03 177.47 133.50 176.59 133.72 L 175.62 133.97 C 174.74 134.19 174.21 135.08 174.43 135.96 C 174.65 136.84 175.54 137.37 176.42 137.14 Z M 177.39 136.90 L 178.40 136.65 C 179.27 136.43 179.81 135.54 179.59 134.66 C 179.37 133.78 178.48 133.25 177.60 133.47 L 176.59 133.72 C 175.72 133.94 175.19 134.83 175.41 135.71 C 175.63 136.59 176.51 137.12 177.39 136.90 Z M 178.40 136.65 L 179.22 136.44 C 180.10 136.22 180.63 135.33 180.41 134.46 C 180.20 133.58 179.31 133.05 178.43 133.26 L 177.60 133.47 C 176.72 133.69 176.19 134.58 176.41 135.46 C 176.63 136.33 177.52 136.87 178.40 136.65 Z"
      fill="black"
      fill-rule="nonzero" /><path d="M 114.59 189.00 L 115.63 188.72 C 116.59 188.46 117.16 187.46 116.90 186.49 C 116.64 185.53 115.64 184.96 114.67 185.22 L 113.63 185.51 C 112.67 185.77 112.10 186.77 112.36 187.73 C 112.62 188.70 113.62 189.27 114.59 189.00 Z M 115.64 188.75 L 116.66 188.47 C 117.65 188.20 118.23 187.19 117.96 186.20 C 117.69 185.22 116.68 184.64 115.69 184.91 L 114.66 185.19 C 113.68 185.46 113.10 186.47 113.37 187.46 C 113.64 188.44 114.65 189.02 115.64 188.75 Z M 116.67 188.51 L 117.67 188.24 C 118.67 187.96 119.26 186.93 118.99 185.93 C 118.72 184.92 117.68 184.33 116.68 184.60 L 115.68 184.87 C 114.68 185.15 114.09 186.18 114.36 187.18 C 114.63 188.19 115.67 188.78 116.67 188.51 Z M 117.67 188.27 L 118.62 188.01 C 119.65 187.74 120.25 186.69 119.97 185.66 C 119.70 184.64 118.65 184.04 117.62 184.31 L 116.67 184.57 C 115.65 184.85 115.05 185.90 115.32 186.92 C 115.60 187.94 116.65 188.55 117.67 188.27 Z M 118.63 188.05 L 119.52 187.81 C 120.56 187.53 121.18 186.46 120.90 185.42 C 120.62 184.38 119.55 183.76 118.51 184.04 L 117.62 184.28 C 116.58 184.56 115.96 185.63 116.24 186.67 C 116.52 187.71 117.59 188.33 118.63 188.05 Z M 119.52 187.84 L 120.47 187.59 C 121.53 187.31 122.16 186.22 121.88 185.17 C 121.60 184.11 120.51 183.48 119.46 183.76 L 118.51 184.01 C 117.45 184.29 116.82 185.37 117.10 186.43 C 117.38 187.49 118.46 188.12 119.52 187.84 Z M 120.47 187.61 L 121.49 187.34 C 122.56 187.06 123.20 185.97 122.92 184.90 C 122.64 183.83 121.55 183.19 120.48 183.47 L 119.46 183.74 C 118.39 184.02 117.75 185.11 118.03 186.18 C 118.31 187.25 119.40 187.88 120.47 187.61 Z M 121.49 187.35 L 122.43 187.10 C 123.50 186.82 124.14 185.73 123.86 184.66 C 123.58 183.59 122.49 182.94 121.41 183.22 L 120.48 183.47 C 119.41 183.74 118.77 184.84 119.05 185.91 C 119.32 186.98 120.42 187.63 121.49 187.35 Z M 122.43 187.11 L 123.34 186.87 C 124.41 186.58 125.06 185.48 124.77 184.41 C 124.49 183.33 123.38 182.69 122.31 182.98 L 121.41 183.22 C 120.33 183.50 119.69 184.60 119.97 185.68 C 120.26 186.75 121.36 187.39 122.43 187.11 Z M 123.36 186.87 L 124.25 186.63 C 125.32 186.34 125.96 185.23 125.66 184.15 C 125.37 183.07 124.26 182.44 123.18 182.73 L 122.29 182.97 C 121.22 183.27 120.58 184.38 120.88 185.45 C 121.17 186.53 122.28 187.17 123.36 186.87 Z M 124.26 186.63 L 125.16 186.38 C 126.24 186.08 126.87 184.96 126.57 183.88 C 126.26 182.80 125.15 182.18 124.07 182.48 L 123.17 182.73 C 122.09 183.03 121.46 184.15 121.77 185.23 C 122.07 186.30 123.19 186.93 124.26 186.63 Z M 125.17 186.38 L 126.12 186.11 C 127.20 185.80 127.83 184.68 127.52 183.60 C 127.21 182.52 126.09 181.90 125.01 182.21 L 124.06 182.48 C 122.98 182.78 122.36 183.91 122.66 184.98 C 122.97 186.06 124.09 186.69 125.17 186.38 Z M 126.13 186.11 L 127.14 185.82 C 128.22 185.51 128.84 184.39 128.53 183.31 C 128.22 182.23 127.10 181.60 126.02 181.91 L 125.01 182.20 C 123.93 182.51 123.30 183.64 123.61 184.72 C 123.92 185.80 125.05 186.42 126.13 186.11 Z M 127.14 185.83 L 128.16 185.54 C 129.24 185.23 129.86 184.10 129.55 183.02 C 129.24 181.93 128.12 181.31 127.03 181.62 L 126.02 181.91 C 124.93 182.22 124.31 183.35 124.62 184.43 C 124.93 185.51 126.06 186.14 127.14 185.83 Z M 128.15 185.54 L 129.05 185.28 C 130.13 184.98 130.76 183.85 130.45 182.76 C 130.14 181.68 129.01 181.05 127.93 181.36 L 127.04 181.61 C 125.95 181.92 125.32 183.05 125.63 184.14 C 125.94 185.22 127.07 185.85 128.15 185.54 Z M 129.05 185.29 L 129.98 185.02 C 131.06 184.71 131.69 183.58 131.38 182.50 C 131.07 181.41 129.94 180.78 128.86 181.09 L 127.93 181.36 C 126.84 181.67 126.21 182.80 126.52 183.88 C 126.83 184.97 127.96 185.60 129.05 185.29 Z M 129.98 185.02 L 130.94 184.75 C 132.03 184.44 132.66 183.30 132.34 182.22 C 132.03 181.13 130.90 180.50 129.82 180.82 L 128.85 181.09 C 127.77 181.40 127.14 182.53 127.45 183.62 C 127.76 184.71 128.89 185.33 129.98 185.02 Z M 130.95 184.75 L 131.94 184.46 C 133.03 184.15 133.66 183.01 133.34 181.93 C 133.03 180.84 131.89 180.21 130.81 180.53 L 129.81 180.81 C 128.72 181.13 128.10 182.26 128.41 183.35 C 128.72 184.44 129.86 185.06 130.95 184.75 Z M 131.95 184.46 L 132.98 184.16 C 134.07 183.84 134.69 182.71 134.37 181.62 C 134.06 180.53 132.92 179.91 131.83 180.23 L 130.80 180.53 C 129.71 180.84 129.09 181.98 129.41 183.07 C 129.72 184.15 130.86 184.78 131.95 184.46 Z M 132.99 184.16 L 133.92 183.89 C 135.00 183.56 135.63 182.42 135.30 181.34 C 134.98 180.25 133.84 179.63 132.76 179.95 L 131.83 180.23 C 130.74 180.55 130.12 181.69 130.44 182.77 C 130.76 183.86 131.90 184.48 132.99 184.16 Z M 133.92 183.88 L 134.85 183.61 C 135.94 183.28 136.56 182.14 136.23 181.05 C 135.91 179.97 134.77 179.35 133.68 179.68 L 132.75 179.95 C 131.67 180.28 131.05 181.42 131.37 182.50 C 131.70 183.59 132.84 184.21 133.92 183.88 Z M 134.86 183.60 L 135.81 183.32 C 136.89 182.99 137.51 181.85 137.18 180.76 C 136.85 179.68 135.71 179.07 134.62 179.39 L 133.68 179.68 C 132.59 180.00 131.98 181.15 132.30 182.23 C 132.63 183.32 133.77 183.93 134.86 183.60 Z M 135.81 183.32 L 136.78 183.02 C 137.86 182.69 138.47 181.55 138.14 180.47 C 137.81 179.38 136.67 178.77 135.59 179.10 L 134.62 179.39 C 133.54 179.72 132.93 180.87 133.26 181.95 C 133.58 183.03 134.73 183.64 135.81 183.32 Z M 136.78 183.02 L 137.76 182.72 C 138.84 182.39 139.45 181.25 139.12 180.16 C 138.79 179.08 137.64 178.47 136.56 178.80 L 135.58 179.10 C 134.50 179.43 133.89 180.58 134.22 181.66 C 134.55 182.74 135.70 183.35 136.78 183.02 Z M 137.76 182.72 L 138.75 182.42 C 139.83 182.08 140.44 180.94 140.11 179.86 C 139.77 178.78 138.63 178.17 137.55 178.50 L 136.56 178.81 C 135.48 179.14 134.87 180.28 135.20 181.36 C 135.53 182.45 136.68 183.05 137.76 182.72 Z M 138.75 182.42 L 139.71 182.12 C 140.79 181.79 141.40 180.64 141.06 179.56 C 140.73 178.48 139.58 177.87 138.50 178.21 L 137.54 178.50 C 136.46 178.84 135.86 179.98 136.19 181.06 C 136.52 182.14 137.67 182.75 138.75 182.42 Z M 139.71 182.12 L 140.65 181.83 C 141.73 181.49 142.34 180.34 142.00 179.26 C 141.67 178.19 140.52 177.58 139.44 177.92 L 138.50 178.21 C 137.42 178.54 136.82 179.69 137.15 180.77 C 137.49 181.85 138.63 182.45 139.71 182.12 Z M 140.66 181.82 L 141.60 181.53 C 142.68 181.19 143.28 180.04 142.95 178.97 C 142.61 177.89 141.46 177.29 140.38 177.62 L 139.44 177.92 C 138.36 178.26 137.76 179.40 138.09 180.48 C 138.43 181.56 139.58 182.16 140.66 181.82 Z M 141.61 181.53 L 142.56 181.23 C 143.64 180.89 144.23 179.74 143.90 178.66 C 143.56 177.59 142.41 176.99 141.33 177.33 L 140.38 177.63 C 139.30 177.96 138.70 179.11 139.04 180.19 C 139.38 181.27 140.53 181.86 141.61 181.53 Z M 142.56 181.22 L 143.52 180.92 C 144.60 180.58 145.19 179.43 144.85 178.35 C 144.51 177.28 143.36 176.68 142.29 177.03 L 141.33 177.33 C 140.25 177.67 139.66 178.82 140.00 179.89 C 140.34 180.97 141.49 181.57 142.56 181.22 Z M 143.53 180.92 L 144.49 180.61 C 145.56 180.26 146.16 179.11 145.81 178.04 C 145.47 176.97 144.32 176.37 143.24 176.72 L 142.28 177.03 C 141.21 177.37 140.61 178.52 140.96 179.60 C 141.30 180.67 142.45 181.26 143.53 180.92 Z M 144.50 180.60 L 145.47 180.29 C 146.54 179.94 147.13 178.79 146.78 177.72 C 146.43 176.65 145.28 176.06 144.21 176.41 L 143.24 176.72 C 142.17 177.07 141.58 178.22 141.93 179.29 C 142.27 180.37 143.42 180.95 144.50 180.60 Z M 145.47 180.29 L 146.39 179.98 C 147.46 179.63 148.05 178.48 147.70 177.41 C 147.34 176.34 146.19 175.76 145.12 176.11 L 144.20 176.41 C 143.13 176.76 142.55 177.91 142.90 178.98 C 143.25 180.05 144.40 180.64 145.47 180.29 Z M 146.40 179.98 L 147.32 179.67 C 148.39 179.32 148.97 178.17 148.61 177.10 C 148.26 176.03 147.11 175.45 146.04 175.81 L 145.12 176.11 C 144.05 176.47 143.47 177.62 143.83 178.69 C 144.18 179.75 145.33 180.33 146.40 179.98 Z M 147.33 179.67 L 148.26 179.36 C 149.32 179.00 149.90 177.85 149.54 176.79 C 149.19 175.72 148.04 175.15 146.97 175.50 L 146.04 175.81 C 144.97 176.17 144.40 177.32 144.75 178.38 C 145.11 179.45 146.26 180.02 147.33 179.67 Z M 148.26 179.35 L 149.20 179.04 C 150.26 178.68 150.84 177.53 150.48 176.47 C 150.12 175.40 148.97 174.83 147.91 175.19 L 146.97 175.51 C 145.91 175.86 145.33 177.01 145.69 178.07 C 146.05 179.14 147.20 179.71 148.26 179.35 Z M 149.20 179.03 L 150.16 178.71 C 151.22 178.35 151.79 177.20 151.43 176.14 C 151.07 175.08 149.93 174.51 148.87 174.87 L 147.91 175.19 C 146.85 175.55 146.28 176.70 146.64 177.76 C 146.99 178.82 148.14 179.39 149.20 179.03 Z M 150.16 178.71 L 151.13 178.38 C 152.19 178.02 152.75 176.88 152.40 175.82 C 152.04 174.76 150.89 174.19 149.84 174.55 L 148.87 174.87 C 147.81 175.23 147.24 176.38 147.60 177.44 C 147.95 178.50 149.10 179.06 150.16 178.71 Z M 151.13 178.38 L 152.11 178.04 C 153.17 177.69 153.74 176.54 153.38 175.49 C 153.02 174.43 151.88 173.86 150.82 174.22 L 149.84 174.55 C 148.78 174.91 148.21 176.05 148.57 177.11 C 148.93 178.16 150.07 178.73 151.13 178.38 Z M 152.11 178.04 L 153.05 177.72 C 154.11 177.37 154.68 176.23 154.32 175.17 C 153.97 174.12 152.83 173.55 151.77 173.90 L 150.83 174.22 C 149.77 174.58 149.20 175.72 149.56 176.77 C 149.91 177.83 151.06 178.40 152.11 178.04 Z M 153.05 177.72 L 154.00 177.40 C 155.05 177.05 155.61 175.91 155.26 174.86 C 154.91 173.81 153.77 173.24 152.72 173.59 L 151.77 173.91 C 150.72 174.26 150.15 175.40 150.51 176.45 C 150.86 177.51 152.00 178.07 153.05 177.72 Z M 153.99 177.40 L 154.94 177.08 C 155.99 176.73 156.56 175.59 156.21 174.54 C 155.86 173.49 154.72 172.93 153.67 173.28 L 152.72 173.60 C 151.67 173.95 151.10 175.08 151.45 176.13 C 151.80 177.18 152.94 177.75 153.99 177.40 Z M 154.94 177.08 L 155.90 176.76 C 156.95 176.41 157.51 175.28 157.16 174.23 C 156.82 173.18 155.68 172.61 154.63 172.96 L 153.68 173.28 C 152.63 173.63 152.06 174.76 152.41 175.81 C 152.76 176.86 153.89 177.43 154.94 177.08 Z M 155.89 176.76 L 156.85 176.44 C 157.90 176.09 158.47 174.96 158.12 173.92 C 157.77 172.87 156.64 172.30 155.60 172.65 L 154.64 172.97 C 153.59 173.31 153.02 174.44 153.37 175.49 C 153.72 176.54 154.85 177.10 155.89 176.76 Z M 156.85 176.44 L 157.80 176.12 C 158.85 175.78 159.42 174.65 159.07 173.61 C 158.73 172.56 157.60 171.99 156.56 172.34 L 155.60 172.65 C 154.56 173.00 153.99 174.12 154.33 175.17 C 154.68 176.21 155.80 176.78 156.85 176.44 Z M 157.80 176.12 L 158.75 175.81 C 159.79 175.46 160.36 174.34 160.02 173.30 C 159.68 172.26 158.55 171.69 157.51 172.03 L 156.56 172.34 C 155.52 172.68 154.95 173.80 155.29 174.85 C 155.63 175.89 156.76 176.46 157.80 176.12 Z M 158.74 175.80 L 159.69 175.50 C 160.73 175.16 161.30 174.04 160.96 173.00 C 160.62 171.96 159.50 171.39 158.46 171.73 L 157.52 172.03 C 156.48 172.37 155.91 173.49 156.24 174.53 C 156.58 175.57 157.70 176.14 158.74 175.80 Z M 159.68 175.49 L 160.66 175.18 C 161.70 174.84 162.27 173.73 161.93 172.69 C 161.60 171.65 160.48 171.08 159.44 171.41 L 158.47 171.73 C 157.43 172.06 156.86 173.18 157.19 174.22 C 157.53 175.26 158.64 175.83 159.68 175.49 Z M 160.65 175.18 L 161.61 174.87 C 162.65 174.54 163.22 173.43 162.89 172.39 C 162.56 171.35 161.45 170.78 160.41 171.11 L 159.45 171.42 C 158.41 171.75 157.84 172.86 158.17 173.90 C 158.50 174.93 159.61 175.51 160.65 175.18 Z M 161.60 174.87 L 162.56 174.57 C 163.59 174.24 164.17 173.13 163.84 172.10 C 163.51 171.06 162.41 170.48 161.37 170.81 L 160.42 171.11 C 159.38 171.44 158.81 172.55 159.13 173.58 C 159.46 174.62 160.57 175.19 161.60 174.87 Z M 162.55 174.56 L 163.50 174.27 C 164.53 173.94 165.11 172.84 164.79 171.81 C 164.46 170.77 163.36 170.20 162.33 170.52 L 161.38 170.81 C 160.34 171.14 159.77 172.24 160.09 173.27 C 160.41 174.31 161.51 174.89 162.55 174.56 Z M 163.49 174.26 L 164.43 173.97 C 165.47 173.66 166.05 172.56 165.73 171.53 C 165.41 170.49 164.32 169.91 163.28 170.23 L 162.34 170.52 C 161.30 170.84 160.72 171.94 161.04 172.97 C 161.36 174.00 162.45 174.58 163.49 174.26 Z M 164.42 173.97 L 165.37 173.68 C 166.40 173.37 166.99 172.28 166.67 171.25 C 166.36 170.22 165.27 169.63 164.24 169.95 L 163.29 170.23 C 162.26 170.55 161.68 171.64 161.99 172.67 C 162.30 173.70 163.39 174.28 164.42 173.97 Z M 165.36 173.68 L 166.31 173.40 C 167.34 173.09 167.93 172.01 167.62 170.97 C 167.32 169.94 166.23 169.36 165.20 169.66 L 164.25 169.95 C 163.22 170.26 162.63 171.34 162.94 172.37 C 163.25 173.40 164.33 173.99 165.36 173.68 Z M 166.30 173.40 L 167.25 173.12 C 168.28 172.81 168.87 171.73 168.57 170.71 C 168.27 169.68 167.19 169.09 166.16 169.39 L 165.21 169.67 C 164.18 169.97 163.59 171.05 163.89 172.08 C 164.19 173.11 165.27 173.70 166.30 173.40 Z M 167.24 173.11 L 168.20 172.84 C 169.22 172.54 169.81 171.47 169.52 170.44 C 169.22 169.41 168.15 168.82 167.12 169.12 L 166.17 169.39 C 165.14 169.69 164.55 170.76 164.84 171.79 C 165.14 172.82 166.21 173.41 167.24 173.11 Z M 168.19 172.83 L 169.15 172.56 C 170.17 172.27 170.76 171.20 170.47 170.17 C 170.18 169.15 169.11 168.55 168.08 168.85 L 167.13 169.12 C 166.10 169.41 165.51 170.48 165.80 171.51 C 166.09 172.53 167.16 173.13 168.19 172.83 Z M 169.14 172.55 L 170.10 172.28 C 171.12 171.99 171.72 170.93 171.43 169.91 C 171.14 168.88 170.08 168.29 169.05 168.58 L 168.09 168.85 C 167.07 169.14 166.47 170.20 166.76 171.23 C 167.05 172.25 168.12 172.84 169.14 172.55 Z M 170.10 172.28 L 171.06 172.01 C 172.08 171.72 172.68 170.66 172.39 169.64 C 172.10 168.62 171.05 168.03 170.03 168.31 L 169.06 168.58 C 168.04 168.87 167.45 169.93 167.73 170.95 C 168.02 171.97 169.08 172.56 170.10 172.28 Z M 171.06 172.00 L 172.03 171.73 C 173.04 171.45 173.64 170.39 173.35 169.37 C 173.07 168.36 172.02 167.76 171.00 168.05 L 170.03 168.32 C 169.01 168.60 168.42 169.66 168.70 170.67 C 168.99 171.69 170.04 172.28 171.06 172.00 Z M 172.02 171.72 L 172.99 171.45 C 174.01 171.17 174.60 170.12 174.32 169.11 C 174.04 168.09 172.99 167.50 171.97 167.78 L 171.00 168.05 C 169.99 168.33 169.40 169.39 169.68 170.40 C 169.96 171.41 171.01 172.01 172.02 171.72 Z M 172.99 171.45 L 173.97 171.18 C 174.98 170.90 175.57 169.85 175.29 168.84 C 175.01 167.83 173.96 167.24 172.95 167.52 L 171.98 167.79 C 170.97 168.07 170.37 169.12 170.65 170.13 C 170.94 171.14 171.98 171.73 172.99 171.45 Z M 173.96 171.17 L 174.94 170.90 C 175.95 170.62 176.54 169.58 176.26 168.57 C 175.98 167.56 174.93 166.97 173.92 167.25 L 172.95 167.52 C 171.94 167.80 171.35 168.85 171.63 169.85 C 171.91 170.86 172.96 171.45 173.96 171.17 Z M 174.94 170.90 L 175.91 170.63 C 176.91 170.35 177.50 169.31 177.22 168.30 C 176.94 167.30 175.90 166.71 174.90 166.99 L 173.93 167.26 C 172.92 167.54 172.33 168.58 172.61 169.58 C 172.89 170.59 173.93 171.18 174.94 170.90 Z M 175.91 170.62 L 176.88 170.35 C 177.88 170.07 178.47 169.03 178.19 168.03 C 177.91 167.03 176.87 166.45 175.87 166.72 L 174.90 166.99 C 173.90 167.27 173.31 168.31 173.59 169.31 C 173.87 170.31 174.91 170.90 175.91 170.62 Z M 176.88 170.35 L 177.84 170.08 C 178.84 169.80 179.42 168.76 179.15 167.77 C 178.87 166.77 177.83 166.18 176.84 166.46 L 175.87 166.73 C 174.87 167.01 174.29 168.04 174.57 169.04 C 174.84 170.04 175.88 170.62 176.88 170.35 Z M 177.84 170.07 L 178.80 169.80 C 179.80 169.53 180.38 168.50 180.10 167.50 C 179.82 166.50 178.79 165.92 177.80 166.20 L 176.84 166.47 C 175.84 166.74 175.26 167.77 175.54 168.77 C 175.81 169.77 176.85 170.35 177.84 170.07 Z M 178.80 169.80 L 179.75 169.53 C 180.74 169.26 181.32 168.23 181.05 167.24 C 180.77 166.24 179.74 165.66 178.75 165.94 L 177.80 166.20 C 176.80 166.48 176.22 167.51 176.50 168.50 C 176.78 169.50 177.81 170.08 178.80 169.80 Z M 179.75 169.53 L 180.70 169.26 C 181.69 168.99 182.27 167.96 181.99 166.97 C 181.72 165.98 180.69 165.40 179.70 165.68 L 178.75 165.94 C 177.76 166.22 177.18 167.25 177.46 168.24 C 177.73 169.23 178.76 169.81 179.75 169.53 Z M 180.70 169.26 L 181.70 168.98 C 182.69 168.70 183.27 167.68 182.99 166.69 C 182.72 165.71 181.69 165.13 180.70 165.40 L 179.70 165.68 C 178.71 165.96 178.14 166.98 178.41 167.97 C 178.69 168.96 179.71 169.54 180.70 169.26 Z M 181.70 168.98 L 182.69 168.70 C 183.68 168.43 184.25 167.40 183.98 166.42 C 183.70 165.43 182.68 164.85 181.69 165.13 L 180.70 165.41 C 179.72 165.68 179.14 166.70 179.42 167.69 C 179.69 168.68 180.71 169.25 181.70 168.98 Z M 182.69 168.70 L 183.67 168.43 C 184.65 168.15 185.23 167.13 184.95 166.15 C 184.68 165.16 183.65 164.58 182.67 164.86 L 181.69 165.13 C 180.71 165.41 180.13 166.43 180.41 167.41 C 180.68 168.40 181.70 168.97 182.69 168.70 Z M 183.66 168.42 L 184.63 168.16 C 185.61 167.88 186.18 166.86 185.91 165.88 C 185.64 164.89 184.62 164.32 183.63 164.59 L 182.67 164.86 C 181.69 165.14 181.11 166.16 181.39 167.14 C 181.66 168.12 182.68 168.70 183.66 168.42 Z M 184.62 168.15 L 185.57 167.89 C 186.55 167.62 187.13 166.60 186.86 165.62 C 186.58 164.63 185.56 164.06 184.58 164.33 L 183.63 164.60 C 182.65 164.87 182.08 165.89 182.35 166.87 C 182.62 167.85 183.64 168.43 184.62 168.15 Z M 185.57 167.89 L 186.50 167.63 C 187.48 167.36 188.06 166.34 187.78 165.36 C 187.51 164.38 186.50 163.80 185.51 164.08 L 184.58 164.33 C 183.60 164.61 183.03 165.62 183.30 166.61 C 183.57 167.59 184.59 168.16 185.57 167.89 Z M 186.50 167.63 L 187.45 167.37 C 188.43 167.09 189.00 166.08 188.73 165.10 C 188.46 164.12 187.44 163.54 186.46 163.82 L 185.52 164.08 C 184.54 164.35 183.96 165.36 184.23 166.34 C 184.50 167.32 185.52 167.90 186.50 167.63 Z M 187.44 167.36 L 188.44 167.09 C 189.42 166.82 190.00 165.80 189.73 164.82 C 189.46 163.85 188.45 163.27 187.47 163.54 L 186.46 163.82 C 185.48 164.09 184.91 165.10 185.18 166.08 C 185.45 167.06 186.46 167.63 187.44 167.36 Z M 188.44 167.09 L 189.43 166.82 C 190.41 166.55 190.98 165.53 190.71 164.56 C 190.44 163.58 189.43 163.00 188.45 163.27 L 187.47 163.54 C 186.49 163.81 185.91 164.82 186.18 165.80 C 186.45 166.78 187.46 167.36 188.44 167.09 Z M 189.43 166.81 L 190.39 166.55 C 191.37 166.28 191.94 165.27 191.67 164.29 C 191.40 163.31 190.39 162.74 189.41 163.01 L 188.45 163.27 C 187.47 163.54 186.90 164.55 187.17 165.53 C 187.44 166.51 188.45 167.08 189.43 166.81 Z M 190.39 166.55 L 191.34 166.28 C 192.32 166.01 192.89 165.00 192.62 164.02 C 192.35 163.05 191.34 162.48 190.36 162.75 L 189.41 163.01 C 188.44 163.28 187.86 164.29 188.13 165.27 C 188.41 166.24 189.42 166.82 190.39 166.55 Z M 191.35 166.28 L 192.28 166.02 C 193.26 165.75 193.83 164.74 193.55 163.76 C 193.28 162.79 192.27 162.22 191.30 162.49 L 190.36 162.75 C 189.39 163.02 188.81 164.03 189.09 165.01 C 189.36 165.98 190.37 166.55 191.35 166.28 Z M 192.29 166.02 L 193.23 165.75 C 194.21 165.48 194.77 164.46 194.50 163.49 C 194.23 162.52 193.21 161.95 192.24 162.22 L 191.29 162.49 C 190.32 162.76 189.75 163.78 190.02 164.75 C 190.30 165.72 191.31 166.29 192.29 166.02 Z M 193.24 165.75 L 194.28 165.46 C 195.25 165.18 195.82 164.16 195.54 163.19 C 195.26 162.21 194.25 161.65 193.27 161.92 L 192.23 162.22 C 191.26 162.50 190.69 163.51 190.97 164.49 C 191.25 165.47 192.26 166.03 193.24 165.75 Z M 194.28 165.46 L 195.30 165.17 C 196.28 164.89 196.84 163.87 196.56 162.89 C 196.27 161.91 195.25 161.34 194.27 161.63 L 193.26 161.92 C 192.28 162.20 191.72 163.22 192.00 164.20 C 192.28 165.18 193.31 165.75 194.28 165.46 Z M 195.30 165.18 L 196.28 164.89 C 197.26 164.61 197.82 163.58 197.54 162.60 C 197.25 161.61 196.22 161.05 195.24 161.34 L 194.27 161.62 C 193.28 161.91 192.72 162.94 193.01 163.92 C 193.29 164.90 194.32 165.46 195.30 165.18 Z M 196.29 164.90 L 197.21 164.63 C 198.20 164.33 198.76 163.30 198.47 162.31 C 198.17 161.33 197.14 160.77 196.15 161.06 L 195.23 161.33 C 194.24 161.62 193.68 162.66 193.97 163.64 C 194.27 164.63 195.30 165.19 196.29 164.90 Z M 197.22 164.63 L 198.08 164.37 C 199.07 164.08 199.63 163.03 199.34 162.05 C 199.04 161.06 198.00 160.50 197.01 160.79 L 196.15 161.05 C 195.16 161.35 194.60 162.39 194.89 163.38 C 195.19 164.37 196.23 164.93 197.22 164.63 Z M 198.09 164.38 L 199.08 164.08 C 200.07 163.77 200.63 162.73 200.33 161.73 C 200.02 160.74 198.98 160.19 197.98 160.49 L 197.00 160.79 C 196.01 161.09 195.45 162.14 195.75 163.13 C 196.05 164.12 197.10 164.68 198.09 164.38 Z M 199.09 164.08 L 200.04 163.79 C 201.03 163.48 201.58 162.43 201.28 161.43 C 200.97 160.44 199.92 159.89 198.93 160.19 L 197.98 160.49 C 196.99 160.79 196.43 161.84 196.73 162.84 C 197.04 163.83 198.09 164.38 199.09 164.08 Z M 200.04 163.79 L 200.96 163.51 C 201.95 163.20 202.51 162.15 202.20 161.15 C 201.90 160.16 200.84 159.60 199.85 159.90 L 198.93 160.19 C 197.93 160.49 197.38 161.55 197.68 162.54 C 197.99 163.54 199.04 164.10 200.04 163.79 Z M 200.95 163.51 L 201.89 163.23 C 202.88 162.93 203.45 161.87 203.15 160.88 C 202.85 159.88 201.79 159.31 200.79 159.61 L 199.85 159.90 C 198.86 160.20 198.29 161.25 198.59 162.25 C 198.89 163.25 199.95 163.82 200.95 163.51 Z M 201.87 163.24 L 202.78 162.97 C 203.78 162.68 204.36 161.63 204.06 160.62 C 203.77 159.62 202.72 159.05 201.72 159.34 L 200.81 159.61 C 199.80 159.90 199.23 160.95 199.52 161.96 C 199.82 162.96 200.87 163.53 201.87 163.24 Z M 202.77 162.98 L 203.70 162.71 C 204.70 162.42 205.29 161.37 205.00 160.37 C 204.71 159.36 203.66 158.78 202.65 159.07 L 201.73 159.33 C 200.72 159.62 200.14 160.67 200.43 161.68 C 200.72 162.68 201.76 163.27 202.77 162.98 Z M 203.69 162.72 L 204.66 162.44 C 205.67 162.16 206.26 161.11 205.97 160.10 C 205.69 159.09 204.64 158.51 203.63 158.79 L 202.66 159.06 C 201.65 159.35 201.07 160.40 201.35 161.40 C 201.64 162.41 202.68 163.00 203.69 162.72 Z M 204.66 162.44 L 205.66 162.17 C 206.67 161.88 207.26 160.84 206.97 159.83 C 206.69 158.82 205.64 158.23 204.63 158.51 L 203.64 158.79 C 202.63 159.07 202.03 160.12 202.32 161.13 C 202.60 162.14 203.65 162.73 204.66 162.44 Z M 205.65 162.17 L 206.66 161.89 C 207.67 161.61 208.26 160.56 207.98 159.55 C 207.70 158.54 206.65 157.95 205.64 158.23 L 204.63 158.51 C 203.62 158.79 203.03 159.83 203.31 160.85 C 203.59 161.86 204.64 162.45 205.65 162.17 Z"
      fill="black"
      fill-rule="nonzero" /></svg>