<svg xmlns="http://www.w3.org/2000/svg" width="300" height="300" viewBox="0 0 300 300">
<path d="M 156.72 98.33 L 155.89 98.71 C 155.06 99.10 154.70 100.09 155.09 100.92 C 155.48 101.75 156.47 102.11 157.30 101.72 L 158.13 101.33 C 158.96 100.94 159.32 99.96 158.93 99.13 C 158.54 98.30 157.55 97.94 156.72 98.33 Z M 155.84 98.72 L 154.99 99.14 C 154.16 99.56 153.83 100.57 154.25 101.40 C 154.67 102.23 155.68 102.56 156.51 102.15 L 157.35 101.72 C 158.18 101.30 158.52 100.29 158.10 99.46 C 157.68 98.63 156.67 98.30 155.84 98.72 Z M 154.91 99.16 L 154.03 99.66 C 153.21 100.13 152.93 101.17 153.40 101.99 C 153.86 102.80 154.90 103.09 155.72 102.62 L 156.60 102.12 C 157.41 101.66 157.70 100.62 157.23 99.80 C 156.77 98.98 155.72 98.70 154.91 99.16 Z M 153.92 99.70 L 153.00 100.31 C 152.21 100.84 151.99 101.91 152.52 102.70 C 153.05 103.50 154.12 103.72 154.91 103.19 L 155.83 102.58 C 156.63 102.05 156.84 100.98 156.32 100.19 C 155.79 99.39 154.72 99.17 153.92 99.70 Z M 152.91 100.36 L 152.12 100.96 C 151.35 101.54 151.20 102.63 151.78 103.40 C 152.36 104.17 153.46 104.32 154.22 103.73 L 155.01 103.14 C 155.78 102.56 155.93 101.46 155.35 100.70 C 154.77 99.93 153.67 99.78 152.91 100.36 Z M 152.06 101.00 L 151.28 101.64 C 150.54 102.26 150.43 103.36 151.05 104.10 C 151.67 104.85 152.77 104.95 153.51 104.33 L 154.29 103.69 C 155.03 103.08 155.13 101.98 154.52 101.23 C 153.90 100.49 152.80 100.38 152.06 101.00 Z M 151.24 101.67 L 150.47 102.35 C 149.74 102.99 149.66 104.09 150.30 104.82 C 150.94 105.55 152.04 105.62 152.77 104.99 L 153.55 104.31 C 154.28 103.67 154.35 102.56 153.72 101.83 C 153.08 101.11 151.97 101.03 151.24 101.67 Z M 150.44 102.37 L 149.68 103.06 C 148.96 103.71 148.90 104.82 149.55 105.54 C 150.21 106.26 151.32 106.31 152.03 105.66 L 152.80 104.97 C 153.52 104.32 153.57 103.21 152.92 102.49 C 152.27 101.77 151.16 101.72 150.44 102.37 Z M 149.66 103.07 L 148.93 103.75 C 148.22 104.41 148.17 105.52 148.83 106.23 C 149.49 106.95 150.60 106.99 151.32 106.33 L 152.05 105.65 C 152.76 104.99 152.81 103.88 152.15 103.17 C 151.49 102.45 150.37 102.41 149.66 103.07 Z M 148.93 103.74 L 148.20 104.42 C 147.49 105.08 147.44 106.19 148.11 106.91 C 148.77 107.62 149.88 107.66 150.60 107.00 L 151.32 106.33 C 152.04 105.67 152.08 104.55 151.42 103.84 C 150.75 103.13 149.64 103.08 148.93 103.74 Z M 148.20 104.41 L 147.48 105.08 C 146.77 105.74 146.72 106.85 147.38 107.57 C 148.04 108.29 149.16 108.33 149.87 107.67 L 150.59 107.01 C 151.31 106.35 151.36 105.23 150.69 104.51 C 150.03 103.80 148.92 103.75 148.20 104.41 Z M 147.48 105.08 L 146.78 105.72 C 146.07 106.38 146.02 107.49 146.68 108.21 C 147.34 108.93 148.45 108.98 149.17 108.32 L 149.87 107.67 C 150.59 107.01 150.63 105.90 149.98 105.18 C 149.32 104.46 148.20 104.42 147.48 105.08 Z M 146.78 105.72 L 146.07 106.38 C 145.35 107.04 145.31 108.16 145.97 108.87 C 146.63 109.59 147.74 109.63 148.46 108.97 L 149.17 108.31 C 149.89 107.65 149.94 106.54 149.28 105.82 C 148.62 105.11 147.50 105.06 146.78 105.72 Z M 146.06 106.38 L 145.29 107.10 C 144.58 107.76 144.54 108.88 145.20 109.59 C 145.86 110.31 146.98 110.35 147.69 109.69 L 148.46 108.97 C 149.18 108.31 149.22 107.19 148.56 106.48 C 147.89 105.76 146.78 105.72 146.06 106.38 Z M 145.29 107.10 L 144.63 107.72 C 143.92 108.38 143.88 109.50 144.54 110.21 C 145.21 110.92 146.32 110.96 147.04 110.30 L 147.69 109.68 C 148.41 109.02 148.44 107.90 147.78 107.19 C 147.11 106.48 146.00 106.44 145.29 107.10 Z M 144.62 107.72 L 143.97 108.34 C 143.26 109.01 143.23 110.12 143.90 110.83 C 144.56 111.54 145.68 111.57 146.39 110.91 L 147.04 110.29 C 147.75 109.62 147.78 108.51 147.12 107.80 C 146.45 107.09 145.33 107.06 144.62 107.72 Z M 143.97 108.34 L 143.27 109.00 C 142.57 109.67 142.54 110.79 143.21 111.50 C 143.88 112.20 145.00 112.23 145.70 111.56 L 146.40 110.90 C 147.10 110.23 147.13 109.11 146.46 108.41 C 145.79 107.70 144.67 107.67 143.97 108.34 Z M 143.26 109.01 L 142.54 109.71 C 141.83 110.39 141.81 111.50 142.49 112.20 C 143.16 112.91 144.28 112.93 144.98 112.25 L 145.71 111.55 C 146.41 110.88 146.43 109.76 145.76 109.06 C 145.08 108.36 143.97 108.33 143.26 109.01 Z M 142.53 109.72 L 141.77 110.46 C 141.07 111.14 141.06 112.25 141.74 112.95 C 142.42 113.65 143.54 113.66 144.23 112.98 L 144.99 112.24 C 145.69 111.56 145.70 110.45 145.02 109.75 C 144.34 109.05 143.23 109.04 142.53 109.72 Z M 141.76 110.47 L 140.98 111.24 C 140.29 111.92 140.28 113.04 140.97 113.73 C 141.65 114.43 142.77 114.43 143.46 113.75 L 144.24 112.97 C 144.93 112.29 144.94 111.17 144.26 110.48 C 143.57 109.79 142.45 109.78 141.76 110.47 Z M 140.97 111.25 L 140.19 112.03 C 139.50 112.73 139.51 113.84 140.20 114.53 C 140.89 115.21 142.01 115.21 142.69 114.52 L 143.47 113.74 C 144.16 113.04 144.16 111.93 143.46 111.24 C 142.77 110.55 141.66 110.56 140.97 111.25 Z M 140.18 112.05 L 139.48 112.76 C 138.80 113.46 138.81 114.57 139.51 115.25 C 140.21 115.93 141.32 115.92 142.00 115.23 L 142.70 114.51 C 143.38 113.81 143.37 112.70 142.67 112.02 C 141.98 111.34 140.86 111.35 140.18 112.05 Z M 139.47 112.77 L 138.77 113.50 C 138.10 114.20 138.12 115.32 138.82 115.99 C 139.52 116.67 140.63 116.65 141.31 115.94 L 142.01 115.21 C 142.69 114.51 142.66 113.40 141.96 112.72 C 141.26 112.05 140.15 112.07 139.47 112.77 Z M 138.76 113.51 L 138.06 114.25 C 137.39 114.96 137.42 116.07 138.13 116.74 C 138.83 117.41 139.95 117.38 140.62 116.67 L 141.32 115.93 C 141.99 115.23 141.96 114.11 141.25 113.45 C 140.54 112.78 139.43 112.81 138.76 113.51 Z M 138.05 114.27 L 137.36 115.01 C 136.70 115.72 136.74 116.83 137.45 117.49 C 138.16 118.16 139.27 118.12 139.93 117.41 L 140.63 116.66 C 141.29 115.95 141.25 114.84 140.54 114.18 C 139.83 113.52 138.71 113.55 138.05 114.27 Z M 137.35 115.02 L 136.67 115.77 C 136.01 116.48 136.06 117.59 136.78 118.25 C 137.49 118.90 138.60 118.85 139.26 118.14 L 139.94 117.40 C 140.60 116.68 140.55 115.57 139.83 114.91 C 139.12 114.26 138.01 114.31 137.35 115.02 Z M 136.66 115.78 L 135.99 116.52 C 135.34 117.24 135.40 118.35 136.12 119.00 C 136.84 119.64 137.95 119.59 138.60 118.87 L 139.27 118.13 C 139.92 117.41 139.86 116.30 139.14 115.65 C 138.42 115.00 137.31 115.06 136.66 115.78 Z M 135.98 116.53 L 135.34 117.26 C 134.70 117.98 134.77 119.09 135.49 119.73 C 136.22 120.37 137.33 120.31 137.97 119.58 L 138.61 118.85 C 139.25 118.13 139.19 117.02 138.46 116.38 C 137.73 115.73 136.62 115.80 135.98 116.53 Z M 135.33 117.27 L 134.66 118.05 C 134.02 118.78 134.10 119.89 134.84 120.52 C 135.57 121.16 136.68 121.08 137.31 120.34 L 137.98 119.57 C 138.62 118.83 138.54 117.72 137.80 117.09 C 137.07 116.46 135.96 116.54 135.33 117.27 Z M 134.64 118.06 L 133.95 118.88 C 133.33 119.62 133.42 120.73 134.17 121.35 C 134.91 121.98 136.02 121.88 136.64 121.14 L 137.33 120.33 C 137.95 119.59 137.86 118.48 137.12 117.85 C 136.37 117.23 135.27 117.32 134.64 118.06 Z M 133.94 118.89 L 133.28 119.68 C 132.67 120.43 132.77 121.55 133.53 122.16 C 134.28 122.78 135.39 122.67 136.01 121.92 L 136.66 121.13 C 137.28 120.38 137.17 119.26 136.42 118.65 C 135.67 118.03 134.55 118.14 133.94 118.89 Z M 133.27 119.70 L 132.64 120.47 C 132.03 121.23 132.15 122.35 132.92 122.96 C 133.68 123.57 134.79 123.45 135.40 122.69 L 136.02 121.91 C 136.64 121.15 136.51 120.03 135.75 119.42 C 134.99 118.81 133.88 118.93 133.27 119.70 Z M 132.63 120.48 L 132.03 121.25 C 131.42 122.02 131.56 123.13 132.33 123.74 C 133.10 124.34 134.21 124.21 134.82 123.44 L 135.42 122.67 C 136.02 121.90 135.89 120.79 135.12 120.18 C 134.35 119.58 133.23 119.71 132.63 120.48 Z M 132.01 121.26 L 131.43 122.01 C 130.84 122.79 130.98 123.91 131.76 124.50 C 132.54 125.10 133.65 124.96 134.25 124.18 L 134.83 123.43 C 135.43 122.65 135.29 121.53 134.51 120.93 C 133.73 120.34 132.61 120.48 132.01 121.26 Z M 131.42 122.02 L 130.85 122.77 C 130.26 123.55 130.41 124.67 131.20 125.27 C 131.98 125.86 133.10 125.71 133.69 124.92 L 134.26 124.17 C 134.86 123.39 134.70 122.27 133.92 121.68 C 133.13 121.08 132.02 121.23 131.42 122.02 Z M 130.84 122.77 L 130.22 123.60 C 129.63 124.39 129.79 125.51 130.59 126.10 C 131.38 126.70 132.50 126.53 133.09 125.74 L 133.71 124.92 C 134.30 124.13 134.14 123.00 133.35 122.41 C 132.55 121.82 131.43 121.98 130.84 122.77 Z M 130.21 123.60 L 129.61 124.42 C 129.02 125.22 129.19 126.35 129.99 126.94 C 130.79 127.53 131.91 127.36 132.50 126.56 L 133.10 125.74 C 133.69 124.94 133.52 123.81 132.72 123.22 C 131.92 122.63 130.80 122.80 130.21 123.60 Z M 129.59 124.43 L 129.00 125.24 C 128.42 126.05 128.60 127.18 129.40 127.77 C 130.21 128.35 131.34 128.17 131.92 127.36 L 132.52 126.55 C 133.10 125.74 132.92 124.61 132.11 124.03 C 131.31 123.44 130.18 123.62 129.59 124.43 Z M 128.99 125.25 L 128.41 126.06 C 127.83 126.87 128.02 128.01 128.83 128.59 C 129.65 129.17 130.78 128.98 131.36 128.17 L 131.94 127.36 C 132.52 126.54 132.33 125.41 131.52 124.83 C 130.70 124.25 129.57 124.43 128.99 125.25 Z M 128.39 126.07 L 127.83 126.87 C 127.25 127.69 127.45 128.83 128.28 129.41 C 129.10 129.98 130.24 129.79 130.81 128.96 L 131.38 128.16 C 131.96 127.34 131.76 126.20 130.93 125.62 C 130.11 125.04 128.97 125.24 128.39 126.07 Z M 127.82 126.88 L 127.26 127.68 C 126.69 128.51 126.90 129.65 127.73 130.22 C 128.56 130.80 129.70 130.59 130.28 129.76 L 130.83 128.95 C 131.40 128.12 131.19 126.98 130.36 126.41 C 129.53 125.83 128.39 126.04 127.82 126.88 Z M 127.25 127.69 L 126.69 128.52 C 126.12 129.36 126.34 130.50 127.18 131.07 C 128.02 131.64 129.16 131.42 129.73 130.58 L 130.29 129.75 C 130.86 128.91 130.64 127.76 129.80 127.19 C 128.96 126.63 127.82 126.85 127.25 127.69 Z M 126.67 128.53 L 126.12 129.36 C 125.56 130.21 125.80 131.35 126.65 131.91 C 127.49 132.47 128.64 132.24 129.20 131.39 L 129.75 130.56 C 130.31 129.71 130.07 128.57 129.23 128.01 C 128.38 127.45 127.23 127.68 126.67 128.53 Z M 126.11 129.37 L 125.57 130.21 C 125.02 131.06 125.26 132.21 126.12 132.76 C 126.98 133.32 128.13 133.07 128.68 132.21 L 129.22 131.38 C 129.77 130.52 129.52 129.37 128.66 128.82 C 127.80 128.27 126.66 128.51 126.11 129.37 Z M 125.55 130.22 L 125.02 131.07 C 124.48 131.93 124.74 133.08 125.61 133.62 C 126.48 134.17 127.62 133.91 128.17 133.04 L 128.70 132.19 C 129.24 131.33 128.98 130.18 128.11 129.64 C 127.24 129.09 126.10 129.35 125.55 130.22 Z M 125.01 131.08 L 124.48 131.94 C 123.95 132.82 124.22 133.97 125.10 134.50 C 125.98 135.04 127.12 134.76 127.66 133.88 L 128.18 133.02 C 128.72 132.14 128.44 131.00 127.56 130.46 C 126.69 129.93 125.54 130.20 125.01 131.08 Z M 124.46 131.96 L 123.93 132.86 C 123.41 133.74 123.70 134.89 124.59 135.42 C 125.47 135.94 126.62 135.65 127.15 134.76 L 127.68 133.86 C 128.20 132.98 127.91 131.83 127.02 131.31 C 126.13 130.78 124.99 131.07 124.46 131.96 Z M 123.91 132.88 L 123.39 133.80 C 122.87 134.70 123.18 135.84 124.08 136.35 C 124.98 136.87 126.12 136.56 126.64 135.66 L 127.16 134.74 C 127.68 133.84 127.37 132.70 126.47 132.19 C 125.57 131.67 124.43 131.98 123.91 132.88 Z M 123.37 133.82 L 122.86 134.74 C 122.36 135.65 122.69 136.79 123.60 137.29 C 124.51 137.79 125.65 137.46 126.15 136.55 L 126.66 135.64 C 127.16 134.73 126.82 133.59 125.92 133.09 C 125.01 132.59 123.87 132.92 123.37 133.82 Z M 122.84 134.77 L 122.37 135.67 C 121.89 136.59 122.24 137.73 123.16 138.21 C 124.08 138.69 125.22 138.34 125.70 137.42 L 126.17 136.52 C 126.66 135.60 126.30 134.46 125.38 133.98 C 124.46 133.50 123.32 133.85 122.84 134.77 Z M 122.34 135.71 L 121.92 136.56 C 121.47 137.50 121.85 138.63 122.79 139.09 C 123.72 139.55 124.85 139.16 125.31 138.23 L 125.73 137.37 C 126.19 136.44 125.80 135.31 124.87 134.85 C 123.93 134.39 122.80 134.78 122.34 135.71 Z M 121.89 136.63 L 121.50 137.50 C 121.08 138.46 121.51 139.58 122.46 140.00 C 123.42 140.42 124.54 139.99 124.96 139.04 L 125.35 138.16 C 125.77 137.21 125.34 136.09 124.38 135.67 C 123.43 135.24 122.31 135.67 121.89 136.63 Z M 121.43 137.68 L 121.06 138.81 C 120.73 139.80 121.28 140.87 122.27 141.20 C 123.27 141.53 124.34 140.98 124.67 139.99 L 125.03 138.86 C 125.36 137.86 124.82 136.79 123.82 136.47 C 122.83 136.14 121.75 136.68 121.43 137.68 Z M 120.96 139.40 L 120.96 140.29 C 120.96 141.34 121.82 142.19 122.87 142.19 C 123.92 142.19 124.77 141.33 124.77 140.28 L 124.77 139.39 C 124.76 138.34 123.91 137.49 122.86 137.49 C 121.81 137.49 120.96 138.35 120.96 139.40 Z M 121.38 141.48 L 121.89 142.12 C 122.55 142.94 123.75 143.07 124.57 142.41 C 125.39 141.75 125.52 140.54 124.86 139.72 L 124.35 139.09 C 123.69 138.27 122.49 138.14 121.67 138.80 C 120.84 139.46 120.71 140.66 121.38 141.48 Z M 122.68 142.70 L 123.41 142.99 C 124.40 143.37 125.51 142.89 125.89 141.90 C 126.27 140.91 125.79 139.80 124.80 139.42 L 124.07 139.14 C 123.08 138.75 121.97 139.24 121.59 140.23 C 121.21 141.21 121.69 142.32 122.68 142.70 Z M 123.78 143.10 L 124.70 143.26 C 125.75 143.44 126.74 142.74 126.92 141.69 C 127.10 140.65 126.40 139.65 125.36 139.47 L 124.43 139.31 C 123.39 139.13 122.40 139.83 122.22 140.88 C 122.04 141.92 122.74 142.92 123.78 143.10 Z M 124.89 143.28 L 125.95 143.36 C 127.01 143.43 127.93 142.64 128.01 141.58 C 128.09 140.52 127.29 139.60 126.23 139.52 L 125.17 139.45 C 124.11 139.37 123.19 140.17 123.11 141.23 C 123.04 142.28 123.83 143.21 124.89 143.28 Z M 126.06 143.37 L 127.17 143.38 C 128.24 143.40 129.11 142.55 129.13 141.49 C 129.15 140.43 128.30 139.55 127.23 139.53 L 126.12 139.52 C 125.06 139.50 124.18 140.35 124.17 141.41 C 124.15 142.47 125.00 143.35 126.06 143.37 Z M 127.23 143.39 L 128.31 143.37 C 129.38 143.35 130.23 142.48 130.21 141.41 C 130.19 140.35 129.32 139.50 128.25 139.51 L 127.17 139.53 C 126.11 139.55 125.26 140.43 125.28 141.49 C 125.29 142.56 126.17 143.40 127.23 143.39 Z M 128.35 143.37 L 129.38 143.34 C 130.45 143.30 131.28 142.40 131.25 141.34 C 131.21 140.27 130.32 139.44 129.25 139.48 L 128.21 139.51 C 127.15 139.55 126.32 140.44 126.35 141.51 C 126.39 142.57 127.28 143.41 128.35 143.37 Z M 129.42 143.33 L 130.38 143.28 C 131.45 143.22 132.26 142.31 132.20 141.25 C 132.14 140.18 131.23 139.37 130.17 139.43 L 129.21 139.48 C 128.14 139.54 127.33 140.45 127.39 141.51 C 127.45 142.58 128.36 143.39 129.42 143.33 Z M 130.43 143.28 L 131.38 143.20 C 132.44 143.11 133.23 142.18 133.15 141.12 C 133.06 140.06 132.13 139.27 131.07 139.35 L 130.12 139.43 C 129.06 139.51 128.27 140.45 128.35 141.51 C 128.44 142.57 129.37 143.36 130.43 143.28 Z M 131.43 143.20 L 132.42 143.09 C 133.48 142.98 134.25 142.03 134.14 140.97 C 134.02 139.91 133.07 139.14 132.01 139.25 L 131.02 139.36 C 129.96 139.47 129.19 140.42 129.30 141.48 C 129.41 142.54 130.37 143.31 131.43 143.20 Z M 132.46 143.09 L 133.46 142.96 C 134.52 142.83 135.27 141.86 135.13 140.81 C 135.00 139.75 134.04 139.00 132.98 139.13 L 131.98 139.26 C 130.92 139.39 130.17 140.35 130.30 141.41 C 130.43 142.47 131.40 143.22 132.46 143.09 Z M 133.48 142.96 L 134.40 142.83 C 135.46 142.69 136.20 141.71 136.05 140.66 C 135.91 139.60 134.93 138.86 133.88 139.01 L 132.95 139.13 C 131.90 139.28 131.16 140.25 131.31 141.31 C 131.45 142.36 132.42 143.10 133.48 142.96 Z M 134.41 142.83 L 135.39 142.69 C 136.45 142.53 137.18 141.56 137.03 140.50 C 136.88 139.45 135.90 138.71 134.84 138.87 L 133.86 139.01 C 132.81 139.16 132.08 140.14 132.23 141.19 C 132.38 142.25 133.36 142.98 134.41 142.83 Z M 135.40 142.69 L 136.42 142.53 C 137.47 142.38 138.20 141.39 138.04 140.34 C 137.89 139.29 136.90 138.56 135.85 138.72 L 134.83 138.87 C 133.78 139.03 133.05 140.01 133.21 141.06 C 133.37 142.12 134.35 142.84 135.40 142.69 Z M 136.43 142.53 L 137.46 142.37 C 138.51 142.21 139.24 141.23 139.07 140.18 C 138.91 139.12 137.93 138.40 136.88 138.56 L 135.84 138.72 C 134.79 138.88 134.07 139.86 134.23 140.92 C 134.39 141.97 135.37 142.69 136.43 142.53 Z M 137.46 142.37 L 138.49 142.22 C 139.54 142.05 140.26 141.07 140.10 140.02 C 139.94 138.96 138.95 138.24 137.90 138.40 L 136.87 138.56 C 135.82 138.72 135.10 139.71 135.26 140.76 C 135.42 141.81 136.41 142.54 137.46 142.37 Z M 138.49 142.21 L 139.51 142.06 C 140.56 141.90 141.28 140.91 141.12 139.86 C 140.96 138.81 139.97 138.08 138.92 138.25 L 137.90 138.40 C 136.85 138.57 136.13 139.55 136.29 140.60 C 136.45 141.65 137.44 142.38 138.49 142.21 Z M 139.51 142.06 L 140.52 141.90 C 141.58 141.74 142.30 140.76 142.14 139.70 C 141.98 138.65 140.99 137.93 139.94 138.09 L 138.92 138.25 C 137.87 138.41 137.15 139.39 137.31 140.44 C 137.47 141.50 138.45 142.22 139.51 142.06 Z M 140.52 141.90 L 141.51 141.74 C 142.56 141.58 143.28 140.60 143.12 139.55 C 142.96 138.50 141.98 137.78 140.93 137.94 L 139.94 138.10 C 138.89 138.26 138.17 139.24 138.33 140.29 C 138.49 141.34 139.47 142.06 140.52 141.90 Z M 141.51 141.74 L 142.49 141.59 C 143.54 141.43 144.25 140.45 144.09 139.40 C 143.93 138.35 142.95 137.64 141.90 137.80 L 140.93 137.95 C 139.88 138.11 139.16 139.09 139.33 140.14 C 139.49 141.18 140.47 141.90 141.51 141.74 Z M 142.49 141.59 L 143.46 141.44 C 144.50 141.27 145.22 140.29 145.06 139.25 C 144.89 138.20 143.91 137.49 142.87 137.65 L 141.90 137.80 C 140.85 137.96 140.14 138.94 140.30 139.99 C 140.47 141.04 141.45 141.75 142.49 141.59 Z M 143.46 141.43 L 144.44 141.28 C 145.48 141.11 146.19 140.13 146.03 139.09 C 145.86 138.04 144.88 137.33 143.84 137.50 L 142.86 137.65 C 141.82 137.82 141.11 138.80 141.27 139.84 C 141.44 140.89 142.42 141.60 143.46 141.43 Z M 144.45 141.27 L 145.45 141.11 C 146.49 140.94 147.19 139.96 147.02 138.92 C 146.85 137.88 145.87 137.17 144.83 137.34 L 143.83 137.50 C 142.79 137.67 142.08 138.65 142.25 139.69 C 142.42 140.74 143.40 141.44 144.45 141.27 Z M 145.45 141.10 L 146.47 140.93 C 147.51 140.76 148.21 139.78 148.04 138.74 C 147.87 137.70 146.89 137.00 145.85 137.18 L 144.83 137.35 C 143.79 137.52 143.09 138.50 143.26 139.54 C 143.43 140.57 144.41 141.28 145.45 141.10 Z M 146.48 140.93 L 147.50 140.76 C 148.53 140.58 149.23 139.60 149.06 138.57 C 148.88 137.53 147.90 136.83 146.87 137.01 L 145.85 137.18 C 144.81 137.35 144.11 138.33 144.29 139.37 C 144.46 140.40 145.44 141.10 146.48 140.93 Z M 147.50 140.75 L 148.50 140.58 C 149.53 140.41 150.23 139.43 150.05 138.40 C 149.88 137.37 148.90 136.67 147.87 136.84 L 146.87 137.01 C 145.84 137.19 145.14 138.16 145.31 139.20 C 145.49 140.23 146.46 140.93 147.50 140.75 Z M 148.50 140.58 L 149.46 140.42 C 150.49 140.25 151.19 139.27 151.02 138.24 C 150.85 137.21 149.87 136.52 148.84 136.69 L 147.87 136.85 C 146.84 137.02 146.15 137.99 146.32 139.02 C 146.49 140.06 147.46 140.75 148.50 140.58 Z M 149.46 140.42 L 150.37 140.27 C 151.40 140.10 152.10 139.13 151.93 138.10 C 151.76 137.07 150.79 136.37 149.76 136.54 L 148.85 136.69 C 147.82 136.86 147.12 137.83 147.29 138.86 C 147.46 139.89 148.43 140.58 149.46 140.42 Z M 150.36 140.26 L 151.46 140.09 C 152.48 139.93 153.19 138.97 153.03 137.94 C 152.86 136.91 151.90 136.21 150.88 136.37 L 149.78 136.55 C 148.75 136.71 148.05 137.67 148.21 138.70 C 148.37 139.72 149.33 140.42 150.36 140.26 Z M 151.45 140.08 L 152.47 139.93 C 153.49 139.77 154.20 138.82 154.05 137.80 C 153.89 136.78 152.94 136.07 151.92 136.23 L 150.89 136.38 C 149.87 136.53 149.16 137.49 149.32 138.51 C 149.47 139.53 150.42 140.23 151.45 140.08 Z M 152.46 139.92 L 153.41 139.78 C 154.43 139.63 155.14 138.69 154.99 137.67 C 154.84 136.66 153.90 135.95 152.88 136.10 L 151.93 136.24 C 150.91 136.38 150.21 137.33 150.35 138.34 C 150.50 139.36 151.44 140.07 152.46 139.92 Z M 153.41 139.77 L 154.31 139.65 C 155.32 139.50 156.03 138.56 155.88 137.55 C 155.74 136.54 154.80 135.83 153.79 135.98 L 152.89 136.11 C 151.87 136.25 151.17 137.19 151.31 138.20 C 151.46 139.21 152.39 139.92 153.41 139.77 Z M 154.31 139.64 L 155.27 139.50 C 156.28 139.35 156.98 138.42 156.84 137.41 C 156.69 136.40 155.76 135.70 154.75 135.85 L 153.79 135.99 C 152.78 136.13 152.08 137.07 152.22 138.07 C 152.37 139.08 153.30 139.78 154.31 139.64 Z M 155.28 139.49 L 156.27 139.35 C 157.27 139.20 157.97 138.27 157.82 137.26 C 157.67 136.26 156.74 135.56 155.74 135.71 L 154.75 135.85 C 153.74 136.00 153.05 136.93 153.19 137.94 C 153.34 138.94 154.27 139.64 155.28 139.49 Z M 156.27 139.34 L 157.25 139.20 C 158.25 139.05 158.94 138.12 158.80 137.12 C 158.65 136.12 157.72 135.43 156.72 135.57 L 155.74 135.72 C 154.74 135.86 154.04 136.79 154.19 137.79 C 154.34 138.80 155.27 139.49 156.27 139.34 Z M 157.25 139.19 L 158.24 139.05 C 159.23 138.90 159.92 137.98 159.78 136.98 C 159.63 135.98 158.71 135.29 157.71 135.43 L 156.72 135.58 C 155.72 135.72 155.03 136.65 155.18 137.65 C 155.32 138.65 156.25 139.34 157.25 139.19 Z M 158.23 139.04 L 159.22 138.90 C 160.22 138.76 160.90 137.83 160.76 136.84 C 160.62 135.84 159.69 135.15 158.70 135.30 L 157.71 135.44 C 156.72 135.58 156.03 136.51 156.17 137.50 C 156.31 138.50 157.24 139.19 158.23 139.04 Z M 159.22 138.89 L 160.21 138.75 C 161.20 138.61 161.89 137.69 161.75 136.70 C 161.60 135.70 160.68 135.02 159.69 135.16 L 158.70 135.30 C 157.71 135.45 157.02 136.37 157.16 137.36 C 157.31 138.35 158.23 139.04 159.22 138.89 Z M 160.21 138.74 L 161.20 138.60 C 162.19 138.46 162.87 137.54 162.73 136.55 C 162.59 135.57 161.67 134.88 160.68 135.02 L 159.69 135.17 C 158.71 135.31 158.02 136.23 158.16 137.21 C 158.31 138.20 159.22 138.89 160.21 138.74 Z M 161.20 138.59 L 162.20 138.45 C 163.18 138.31 163.86 137.39 163.72 136.41 C 163.58 135.42 162.66 134.74 161.68 134.89 L 160.68 135.03 C 159.70 135.17 159.02 136.09 159.16 137.07 C 159.30 138.05 160.22 138.74 161.20 138.59 Z M 162.20 138.44 L 163.20 138.29 C 164.18 138.15 164.86 137.24 164.72 136.26 C 164.57 135.28 163.66 134.60 162.68 134.75 L 161.68 134.89 C 160.70 135.04 160.02 135.95 160.16 136.93 C 160.31 137.91 161.22 138.59 162.20 138.44 Z M 163.20 138.29 L 164.20 138.14 C 165.17 137.99 165.84 137.09 165.70 136.11 C 165.55 135.13 164.65 134.46 163.67 134.61 L 162.68 134.75 C 161.70 134.90 161.03 135.81 161.17 136.78 C 161.32 137.76 162.23 138.43 163.20 138.29 Z M 164.20 138.13 L 165.17 137.98 C 166.14 137.84 166.81 136.93 166.67 135.96 C 166.52 134.99 165.61 134.32 164.64 134.47 L 163.67 134.61 C 162.69 134.76 162.03 135.67 162.17 136.64 C 162.32 137.61 163.23 138.28 164.20 138.13 Z M 165.18 137.98 L 166.03 137.85 C 167.00 137.70 167.66 136.79 167.51 135.82 C 167.36 134.86 166.46 134.19 165.49 134.34 L 164.64 134.47 C 163.67 134.62 163.01 135.53 163.15 136.50 C 163.30 137.46 164.21 138.13 165.18 137.98 Z M 166.03 137.84 L 166.87 137.71 C 167.83 137.56 168.49 136.66 168.34 135.69 C 168.19 134.73 167.29 134.07 166.33 134.22 L 165.49 134.35 C 164.53 134.50 163.86 135.40 164.01 136.36 C 164.16 137.33 165.07 137.99 166.03 137.84 Z M 166.86 137.70 L 167.81 137.56 C 168.77 137.41 169.43 136.51 169.28 135.55 C 169.13 134.59 168.24 133.93 167.28 134.08 L 166.33 134.22 C 165.37 134.37 164.71 135.27 164.86 136.23 C 165.01 137.19 165.90 137.85 166.86 137.70 Z M 167.80 137.55 L 168.92 137.39 C 169.88 137.24 170.54 136.35 170.39 135.39 C 170.25 134.44 169.36 133.78 168.40 133.92 L 167.28 134.09 C 166.33 134.23 165.67 135.12 165.81 136.08 C 165.95 137.04 166.84 137.70 167.80 137.55 Z M 168.91 137.38 L 170.04 137.22 C 170.99 137.08 171.65 136.19 171.52 135.24 C 171.38 134.28 170.49 133.62 169.54 133.76 L 168.41 133.92 C 167.45 134.06 166.79 134.95 166.93 135.90 C 167.07 136.86 167.96 137.52 168.91 137.38 Z M 170.03 137.21 L 170.95 137.08 C 171.90 136.95 172.56 136.06 172.42 135.11 C 172.29 134.16 171.41 133.50 170.45 133.63 L 169.54 133.76 C 168.59 133.90 167.93 134.78 168.06 135.74 C 168.20 136.69 169.08 137.35 170.03 137.21 Z M 170.95 137.08 L 171.93 136.94 C 172.88 136.80 173.54 135.92 173.40 134.97 C 173.27 134.02 172.39 133.36 171.44 133.50 L 170.45 133.64 C 169.50 133.77 168.84 134.65 168.98 135.61 C 169.12 136.56 170.00 137.22 170.95 137.08 Z M 171.93 136.93 L 172.96 136.79 C 173.90 136.65 174.56 135.77 174.42 134.82 C 174.29 133.87 173.41 133.22 172.46 133.35 L 171.43 133.50 C 170.49 133.64 169.83 134.52 169.97 135.47 C 170.10 136.41 170.98 137.07 171.93 136.93 Z M 172.96 136.78 L 174.00 136.63 C 174.95 136.49 175.60 135.61 175.46 134.66 C 175.32 133.72 174.44 133.07 173.50 133.20 L 172.46 133.36 C 171.51 133.50 170.86 134.38 171.00 135.32 C 171.14 136.27 172.01 136.92 172.96 136.78 Z M 174.01 136.62 L 175.05 136.46 C 175.99 136.32 176.64 135.44 176.50 134.50 C 176.35 133.56 175.47 132.91 174.53 133.05 L 173.49 133.21 C 172.55 133.35 171.90 134.23 172.05 135.17 C 172.19 136.12 173.07 136.76 174.01 136.62 Z M 175.06 136.46 L 176.07 136.30 C 177.00 136.15 177.65 135.27 177.50 134.33 C 177.35 133.39 176.47 132.75 175.53 132.90 L 174.52 133.06 C 173.58 133.21 172.94 134.09 173.09 135.03 C 173.24 135.97 174.12 136.61 175.06 136.46 Z M 176.08 136.29 L 177.09 136.12 C 178.03 135.97 178.66 135.09 178.50 134.15 C 178.35 133.22 177.46 132.58 176.53 132.74 L 175.52 132.91 C 174.58 133.06 173.95 133.95 174.11 134.88 C 174.26 135.82 175.14 136.45 176.08 136.29 Z M 177.11 136.11 L 178.24 135.91 C 179.16 135.74 179.78 134.86 179.62 133.93 C 179.45 133.01 178.57 132.39 177.64 132.55 L 176.51 132.76 C 175.59 132.92 174.97 133.80 175.13 134.73 C 175.30 135.66 176.18 136.27 177.11 136.11 Z M 178.26 135.88 L 179.29 135.69 C 180.20 135.51 180.80 134.63 180.62 133.71 C 180.45 132.80 179.57 132.20 178.65 132.38 L 177.62 132.58 C 176.71 132.75 176.11 133.63 176.29 134.55 C 176.46 135.46 177.34 136.06 178.26 135.88 Z M 179.30 135.66 L 180.26 135.47 C 181.16 135.29 181.74 134.40 181.56 133.50 C 181.37 132.60 180.49 132.02 179.59 132.20 L 178.64 132.40 C 177.73 132.58 177.15 133.46 177.34 134.37 C 177.52 135.27 178.40 135.85 179.30 135.66 Z M 180.27 135.45 L 181.17 135.25 C 182.06 135.06 182.63 134.19 182.44 133.30 C 182.25 132.41 181.37 131.84 180.48 132.03 L 179.58 132.23 C 178.69 132.42 178.12 133.29 178.31 134.18 C 178.50 135.07 179.38 135.64 180.27 135.45 Z M 181.18 135.23 L 182.05 135.04 C 182.93 134.85 183.48 133.98 183.29 133.10 C 183.10 132.22 182.23 131.67 181.35 131.86 L 180.48 132.05 C 179.60 132.25 179.04 133.12 179.24 133.99 C 179.43 134.87 180.30 135.43 181.18 135.23 Z M 182.05 135.03 L 182.31 134.97 C 183.18 134.78 183.73 133.91 183.54 133.04 C 183.34 132.17 182.48 131.62 181.61 131.81 L 181.35 131.87 C 180.48 132.07 179.93 132.93 180.12 133.80 C 180.31 134.67 181.18 135.22 182.05 135.03 Z"
      fill="black"
      fill-rule="nonzero" /><path d="M 145.06 119.58 L 145.19 120.53 C 145.33 121.50 146.23 122.18 147.20 122.04 C 148.17 121.90 148.84 121.01 148.71 120.04 L 148.57 119.08 C 148.44 118.11 147.54 117.44 146.57 117.57 C 145.60 117.71 144.92 118.61 145.06 119.58 Z M 145.18 120.55 L 145.32 121.51 C 145.47 122.49 146.39 123.17 147.36 123.02 C 148.34 122.87 149.02 121.95 148.87 120.98 L 148.72 120.02 C 148.57 119.04 147.66 118.36 146.68 118.51 C 145.70 118.66 145.03 119.57 145.18 120.55 Z M 145.31 121.55 L 145.48 122.53 C 145.65 123.52 146.59 124.18 147.57 124.01 C 148.56 123.84 149.22 122.90 149.05 121.91 L 148.88 120.94 C 148.71 119.95 147.77 119.29 146.79 119.46 C 145.80 119.63 145.14 120.57 145.31 121.55 Z M 145.47 122.59 L 145.67 123.58 C 145.87 124.57 146.84 125.21 147.83 125.01 C 148.83 124.81 149.47 123.84 149.26 122.85 L 149.06 121.85 C 148.86 120.86 147.89 120.22 146.90 120.42 C 145.91 120.63 145.27 121.59 145.47 122.59 Z M 145.67 123.65 L 145.92 124.68 C 146.16 125.67 147.16 126.28 148.15 126.04 C 149.15 125.80 149.76 124.80 149.52 123.81 L 149.27 122.78 C 149.03 121.79 148.02 121.18 147.03 121.42 C 146.04 121.66 145.43 122.66 145.67 123.65 Z M 145.93 124.75 L 146.20 125.71 C 146.48 126.70 147.51 127.27 148.50 126.99 C 149.49 126.71 150.06 125.68 149.78 124.69 L 149.51 123.73 C 149.23 122.75 148.20 122.17 147.21 122.45 C 146.22 122.73 145.65 123.76 145.93 124.75 Z M 146.21 125.76 L 146.52 126.73 C 146.82 127.71 147.87 128.26 148.85 127.95 C 149.83 127.64 150.38 126.59 150.07 125.61 L 149.77 124.64 C 149.46 123.66 148.41 123.11 147.43 123.42 C 146.45 123.73 145.90 124.78 146.21 125.76 Z M 146.53 126.76 L 146.85 127.73 C 147.18 128.71 148.23 129.23 149.21 128.91 C 150.18 128.58 150.71 127.53 150.38 126.55 L 150.06 125.58 C 149.73 124.60 148.68 124.08 147.70 124.40 C 146.73 124.73 146.20 125.78 146.53 126.76 Z M 146.86 127.75 L 147.19 128.71 C 147.52 129.68 148.58 130.20 149.55 129.86 C 150.53 129.52 151.04 128.46 150.71 127.49 L 150.38 126.53 C 150.04 125.56 148.98 125.04 148.01 125.38 C 147.04 125.71 146.52 126.78 146.86 127.75 Z M 147.19 128.71 L 147.51 129.64 C 147.85 130.61 148.91 131.13 149.88 130.79 C 150.85 130.45 151.37 129.39 151.03 128.42 L 150.71 127.49 C 150.37 126.52 149.31 126.00 148.34 126.34 C 147.36 126.67 146.85 127.74 147.19 128.71 Z M 147.50 129.62 L 147.83 130.58 C 148.16 131.55 149.21 132.08 150.19 131.75 C 151.16 131.42 151.69 130.36 151.36 129.38 L 151.03 128.43 C 150.71 127.46 149.65 126.93 148.67 127.26 C 147.70 127.59 147.17 128.65 147.50 129.62 Z M 147.82 130.55 L 148.14 131.54 C 148.45 132.52 149.50 133.06 150.48 132.74 C 151.46 132.43 152.00 131.38 151.68 130.40 L 151.37 129.41 C 151.05 128.43 150.00 127.89 149.02 128.21 C 148.04 128.52 147.50 129.57 147.82 130.55 Z M 148.13 131.52 L 148.42 132.47 C 148.72 133.45 149.77 134.00 150.75 133.70 C 151.73 133.40 152.29 132.35 151.98 131.37 L 151.69 130.42 C 151.39 129.44 150.35 128.89 149.36 129.19 C 148.38 129.49 147.83 130.53 148.13 131.52 Z M 148.41 132.45 L 148.69 133.38 C 148.98 134.36 150.02 134.93 151.00 134.64 C 151.99 134.34 152.56 133.31 152.26 132.32 L 151.99 131.39 C 151.70 130.40 150.66 129.84 149.67 130.13 C 148.69 130.42 148.12 131.46 148.41 132.45 Z M 148.68 133.36 L 148.95 134.29 C 149.24 135.28 150.27 135.85 151.26 135.57 C 152.25 135.29 152.82 134.25 152.54 133.26 L 152.27 132.33 C 151.98 131.34 150.95 130.77 149.96 131.06 C 148.97 131.34 148.40 132.37 148.68 133.36 Z M 148.95 134.29 L 149.21 135.19 C 149.49 136.18 150.52 136.76 151.51 136.48 C 152.50 136.20 153.07 135.17 152.79 134.18 L 152.54 133.27 C 152.26 132.28 151.23 131.70 150.24 131.98 C 149.25 132.26 148.67 133.29 148.95 134.29 Z M 149.20 135.19 L 149.46 136.11 C 149.74 137.10 150.77 137.68 151.76 137.40 C 152.75 137.12 153.33 136.10 153.05 135.10 L 152.80 134.18 C 152.52 133.19 151.49 132.61 150.50 132.89 C 149.51 133.17 148.93 134.20 149.20 135.19 Z M 149.46 136.10 L 149.72 137.05 C 150.00 138.05 151.02 138.63 152.02 138.36 C 153.01 138.08 153.59 137.05 153.32 136.06 L 153.06 135.11 C 152.78 134.12 151.75 133.53 150.76 133.81 C 149.77 134.08 149.19 135.11 149.46 136.10 Z M 149.72 137.05 L 149.99 138.03 C 150.26 139.03 151.28 139.61 152.28 139.34 C 153.27 139.07 153.86 138.05 153.59 137.06 L 153.32 136.07 C 153.05 135.08 152.03 134.49 151.03 134.76 C 150.04 135.03 149.45 136.05 149.72 137.05 Z M 149.99 138.03 L 150.26 139.05 C 150.53 140.04 151.55 140.64 152.54 140.37 C 153.54 140.11 154.13 139.08 153.86 138.09 L 153.59 137.06 C 153.33 136.07 152.30 135.48 151.31 135.74 C 150.31 136.01 149.72 137.03 149.99 138.03 Z M 150.26 139.04 L 150.51 140.00 C 150.77 141.00 151.79 141.60 152.79 141.34 C 153.78 141.07 154.38 140.06 154.12 139.06 L 153.87 138.10 C 153.61 137.10 152.59 136.50 151.59 136.77 C 150.59 137.03 150.00 138.04 150.26 139.04 Z M 150.51 139.99 L 150.75 140.94 C 151.00 141.94 152.02 142.54 153.02 142.29 C 154.02 142.03 154.62 141.01 154.36 140.02 L 154.12 139.07 C 153.86 138.07 152.85 137.47 151.85 137.72 C 150.85 137.98 150.25 139.00 150.51 139.99 Z M 150.75 140.93 L 150.99 141.90 C 151.24 142.90 152.25 143.51 153.25 143.26 C 154.25 143.01 154.86 142.00 154.61 141.00 L 154.37 140.03 C 154.12 139.03 153.10 138.42 152.10 138.67 C 151.10 138.92 150.50 139.93 150.75 140.93 Z M 150.99 141.89 L 151.22 142.87 C 151.47 143.87 152.47 144.49 153.48 144.24 C 154.48 144.00 155.09 142.99 154.85 141.99 L 154.61 141.01 C 154.37 140.01 153.36 139.39 152.36 139.64 C 151.36 139.88 150.74 140.89 150.99 141.89 Z M 151.22 142.86 L 151.45 143.85 C 151.69 144.85 152.69 145.48 153.69 145.24 C 154.70 145.01 155.32 144.00 155.08 143.00 L 154.85 142.01 C 154.62 141.00 153.61 140.38 152.61 140.62 C 151.61 140.85 150.99 141.85 151.22 142.86 Z M 151.45 143.83 L 151.67 144.83 C 151.90 145.83 152.90 146.47 153.90 146.24 C 154.91 146.01 155.54 145.02 155.31 144.01 L 155.09 143.02 C 154.86 142.01 153.87 141.38 152.86 141.61 C 151.86 141.83 151.22 142.83 151.45 143.83 Z M 151.67 144.81 L 151.88 145.79 C 152.09 146.80 153.09 147.44 154.09 147.23 C 155.10 147.01 155.74 146.02 155.53 145.01 L 155.32 144.03 C 155.10 143.02 154.11 142.38 153.10 142.60 C 152.10 142.81 151.45 143.80 151.67 144.81 Z M 151.88 145.77 L 152.08 146.75 C 152.28 147.76 153.27 148.41 154.27 148.21 C 155.28 148.00 155.93 147.02 155.73 146.01 L 155.53 145.03 C 155.32 144.02 154.34 143.37 153.33 143.58 C 152.32 143.78 151.67 144.77 151.88 145.77 Z M 152.07 146.74 L 152.26 147.72 C 152.46 148.73 153.44 149.39 154.45 149.19 C 155.46 148.99 156.12 148.01 155.92 147.00 L 155.73 146.02 C 155.54 145.01 154.56 144.35 153.55 144.55 C 152.54 144.75 151.88 145.73 152.07 146.74 Z M 152.26 147.70 L 152.44 148.68 C 152.63 149.69 153.61 150.36 154.62 150.17 C 155.63 149.98 156.30 149.01 156.11 148.00 L 155.92 147.02 C 155.74 146.01 154.76 145.34 153.75 145.53 C 152.74 145.72 152.07 146.69 152.26 147.70 Z M 152.44 148.67 L 152.62 149.65 C 152.80 150.67 153.77 151.34 154.78 151.16 C 155.79 150.98 156.47 150.01 156.29 149.00 L 156.11 148.01 C 155.93 147.00 154.96 146.32 153.95 146.51 C 152.93 146.69 152.26 147.66 152.44 148.67 Z M 152.62 149.64 L 152.79 150.63 C 152.96 151.65 153.93 152.32 154.94 152.15 C 155.95 151.97 156.63 151.01 156.46 150.00 L 156.29 149.01 C 156.11 147.99 155.15 147.31 154.13 147.49 C 153.12 147.66 152.44 148.63 152.62 149.64 Z M 152.79 150.62 L 152.95 151.60 C 153.12 152.61 154.08 153.30 155.09 153.13 C 156.11 152.96 156.79 151.99 156.62 150.98 L 156.46 150.01 C 156.29 148.99 155.33 148.31 154.32 148.48 C 153.30 148.65 152.62 149.61 152.79 150.62 Z M 152.95 151.58 L 153.11 152.57 C 153.27 153.58 154.23 154.27 155.24 154.11 C 156.26 153.94 156.95 152.99 156.78 151.97 L 156.62 150.99 C 156.46 149.98 155.50 149.29 154.49 149.45 C 153.47 149.61 152.78 150.57 152.95 151.58 Z M 153.10 152.55 L 153.26 153.54 C 153.41 154.56 154.36 155.25 155.38 155.10 C 156.40 154.94 157.09 153.99 156.94 152.97 L 156.78 151.99 C 156.63 150.97 155.68 150.27 154.66 150.43 C 153.64 150.59 152.95 151.54 153.10 152.55 Z M 153.26 153.52 L 153.40 154.52 C 153.55 155.53 154.49 156.24 155.51 156.09 C 156.53 155.94 157.23 155.00 157.08 153.98 L 156.94 152.99 C 156.79 151.97 155.85 151.27 154.83 151.41 C 153.81 151.56 153.11 152.51 153.26 153.52 Z M 153.40 154.50 L 153.53 155.50 C 153.67 156.52 154.61 157.23 155.63 157.09 C 156.65 156.95 157.36 156.01 157.22 154.99 L 157.08 154.00 C 156.95 152.98 156.01 152.27 154.99 152.41 C 153.97 152.54 153.26 153.48 153.40 154.50 Z M 153.53 155.48 L 153.66 156.48 C 153.79 157.50 154.72 158.22 155.74 158.09 C 156.76 157.96 157.48 157.03 157.35 156.02 L 157.22 155.01 C 157.09 153.99 156.16 153.27 155.14 153.40 C 154.13 153.53 153.40 154.46 153.53 155.48 Z M 153.66 156.46 L 153.77 157.45 C 153.89 158.47 154.81 159.20 155.83 159.09 C 156.85 158.97 157.58 158.05 157.47 157.03 L 157.35 156.04 C 157.23 155.02 156.31 154.28 155.29 154.40 C 154.27 154.52 153.54 155.44 153.66 156.46 Z M 153.77 157.43 L 153.87 158.43 C 153.98 159.45 154.90 160.19 155.92 160.08 C 156.94 159.97 157.68 159.06 157.57 158.04 L 157.47 157.04 C 157.36 156.02 156.45 155.28 155.42 155.39 C 154.40 155.50 153.66 156.41 153.77 157.43 Z M 153.87 158.41 L 153.97 159.40 C 154.06 160.42 154.97 161.17 155.99 161.08 C 157.01 160.98 157.76 160.07 157.67 159.05 L 157.57 158.06 C 157.47 157.03 156.57 156.29 155.55 156.38 C 154.53 156.48 153.78 157.39 153.87 158.41 Z M 153.97 159.39 L 154.05 160.38 C 154.14 161.40 155.04 162.16 156.06 162.07 C 157.08 161.99 157.84 161.09 157.75 160.07 L 157.67 159.07 C 157.58 158.05 156.68 157.29 155.66 157.38 C 154.64 157.47 153.88 158.36 153.97 159.39 Z M 154.05 160.37 L 154.13 161.37 C 154.21 162.39 155.10 163.15 156.12 163.07 C 157.14 162.99 157.91 162.10 157.83 161.08 L 157.75 160.08 C 157.67 159.06 156.78 158.30 155.76 158.37 C 154.74 158.45 153.97 159.35 154.05 160.37 Z M 154.13 161.35 L 154.20 162.35 C 154.27 163.37 155.16 164.14 156.18 164.07 C 157.20 164.00 157.97 163.12 157.90 162.09 L 157.83 161.09 C 157.76 160.07 156.87 159.30 155.85 159.37 C 154.83 159.44 154.06 160.33 154.13 161.35 Z M 154.20 162.34 L 154.26 163.34 C 154.33 164.36 155.21 165.14 156.23 165.08 C 157.25 165.01 158.03 164.13 157.96 163.11 L 157.90 162.11 C 157.84 161.09 156.96 160.31 155.93 160.37 C 154.91 160.44 154.14 161.32 154.20 162.34 Z M 154.26 163.33 L 154.32 164.34 C 154.38 165.36 155.25 166.14 156.27 166.08 C 157.29 166.02 158.07 165.15 158.02 164.13 L 157.96 163.12 C 157.90 162.10 157.03 161.32 156.01 161.38 C 154.99 161.44 154.21 162.31 154.26 163.33 Z M 154.32 164.32 L 154.37 165.33 C 154.42 166.35 155.29 167.13 156.31 167.08 C 157.33 167.03 158.12 166.16 158.07 165.14 L 158.02 164.14 C 157.97 163.12 157.10 162.33 156.08 162.38 C 155.05 162.44 154.27 163.30 154.32 164.32 Z M 154.37 165.32 L 154.42 166.32 C 154.46 167.34 155.32 168.13 156.34 168.08 C 157.36 168.04 158.15 167.17 158.11 166.15 L 158.06 165.15 C 158.02 164.13 157.16 163.34 156.14 163.39 C 155.12 163.43 154.33 164.30 154.37 165.32 Z M 154.42 166.31 L 154.46 167.30 C 154.50 168.32 155.36 169.12 156.38 169.08 C 157.39 169.03 158.19 168.18 158.15 167.16 L 158.11 166.16 C 158.07 165.14 157.21 164.35 156.19 164.39 C 155.17 164.43 154.38 165.29 154.42 166.31 Z M 154.46 167.29 L 154.49 168.28 C 154.53 169.30 155.38 170.10 156.40 170.06 C 157.42 170.03 158.22 169.17 158.18 168.15 L 158.15 167.16 C 158.11 166.14 157.25 165.35 156.24 165.38 C 155.22 165.42 154.42 166.28 154.46 167.29 Z M 154.49 168.28 L 154.53 169.28 C 154.56 170.30 155.41 171.10 156.43 171.07 C 157.45 171.03 158.25 170.18 158.21 169.16 L 158.18 168.16 C 158.15 167.14 157.30 166.34 156.28 166.37 C 155.26 166.41 154.46 167.26 154.49 168.28 Z M 154.53 169.27 L 154.56 170.28 C 154.59 171.29 155.43 172.10 156.45 172.07 C 157.47 172.04 158.27 171.19 158.24 170.17 L 158.21 169.17 C 158.18 168.15 157.33 167.35 156.32 167.38 C 155.30 167.41 154.50 168.26 154.53 169.27 Z M 154.56 170.27 L 154.58 171.27 C 154.61 172.29 155.45 173.09 156.47 173.06 C 157.48 173.04 158.29 172.19 158.26 171.18 L 158.24 170.18 C 158.21 169.16 157.37 168.36 156.35 168.38 C 155.34 168.41 154.53 169.25 154.56 170.27 Z M 154.58 171.26 L 154.61 172.26 C 154.63 173.27 155.47 174.08 156.48 174.06 C 157.50 174.04 158.30 173.20 158.28 172.18 L 158.26 171.18 C 158.24 170.17 157.40 169.36 156.38 169.38 C 155.37 169.41 154.56 170.25 154.58 171.26 Z M 154.61 172.25 L 154.62 173.25 C 154.64 174.26 155.48 175.07 156.49 175.05 C 157.51 175.03 158.31 174.20 158.30 173.18 L 158.28 172.19 C 158.26 171.17 157.43 170.37 156.41 170.38 C 155.40 170.40 154.59 171.24 154.61 172.25 Z M 154.63 173.24 L 154.64 174.24 C 154.65 175.25 155.49 176.06 156.50 176.05 C 157.51 176.03 158.32 175.20 158.31 174.19 L 158.30 173.19 C 158.28 172.18 157.45 171.37 156.44 171.38 C 155.42 171.39 154.61 172.23 154.63 173.24 Z M 154.64 174.23 L 154.65 175.27 C 154.66 176.28 155.49 177.10 156.50 177.09 C 157.51 177.08 158.33 176.25 158.32 175.24 L 158.31 174.20 C 158.30 173.18 157.47 172.37 156.46 172.38 C 155.44 172.39 154.63 173.22 154.64 174.23 Z M 154.66 175.27 L 154.66 176.30 C 154.67 177.31 155.49 178.13 156.50 178.12 C 157.51 178.11 158.33 177.29 158.32 176.28 L 158.31 175.24 C 158.31 174.23 157.48 173.42 156.47 173.43 C 155.46 173.43 154.65 174.26 154.66 175.27 Z M 154.67 176.30 L 154.67 177.32 C 154.67 178.33 155.49 179.14 156.50 179.14 C 157.51 179.14 158.32 178.32 158.32 177.31 L 158.32 176.29 C 158.31 175.28 157.49 174.46 156.48 174.47 C 155.48 174.47 154.66 175.29 154.67 176.30 Z M 154.67 177.32 L 154.67 178.31 C 154.68 179.32 155.49 180.13 156.50 180.13 C 157.51 180.13 158.32 179.31 158.32 178.31 L 158.32 177.31 C 158.31 176.30 157.50 175.49 156.49 175.49 C 155.48 175.49 154.67 176.31 154.67 177.32 Z M 154.68 178.31 L 154.68 179.27 C 154.68 180.28 155.49 181.09 156.50 181.09 C 157.50 181.09 158.32 180.27 158.32 179.27 L 158.32 178.31 C 158.31 177.31 157.50 176.49 156.50 176.49 C 155.49 176.49 154.68 177.31 154.68 178.31 Z M 154.68 179.27 L 154.68 180.25 C 154.68 181.26 155.49 182.07 156.50 182.07 C 157.50 182.07 158.31 181.26 158.31 180.25 L 158.31 179.27 C 158.31 178.27 157.50 177.46 156.50 177.46 C 155.49 177.46 154.68 178.27 154.68 179.27 Z M 154.69 180.25 L 154.68 181.34 C 154.68 182.34 155.49 183.15 156.49 183.15 C 157.49 183.16 158.31 182.35 158.31 181.35 L 158.31 180.26 C 158.31 179.26 157.50 178.44 156.50 178.44 C 155.50 178.44 154.69 179.25 154.69 180.25 Z M 154.69 181.33 L 154.68 182.35 C 154.67 183.35 155.48 184.16 156.47 184.17 C 157.47 184.18 158.29 183.37 158.29 182.37 L 158.30 181.36 C 158.31 180.36 157.51 179.54 156.51 179.54 C 155.51 179.53 154.70 180.33 154.69 181.33 Z M 154.69 182.33 L 154.67 183.29 C 154.65 184.28 155.44 185.10 156.44 185.12 C 157.43 185.14 158.25 184.35 158.27 183.35 L 158.29 182.40 C 158.31 181.40 157.52 180.58 156.52 180.56 C 155.53 180.54 154.70 181.33 154.69 182.33 Z M 154.67 183.25 L 154.64 184.16 C 154.60 185.16 155.38 185.99 156.37 186.03 C 157.36 186.06 158.20 185.29 158.23 184.29 L 158.27 183.38 C 158.30 182.39 157.53 181.56 156.54 181.52 C 155.54 181.49 154.71 182.26 154.67 183.25 Z M 154.65 184.12 L 154.59 185.05 C 154.53 186.04 155.28 186.89 156.27 186.95 C 157.26 187.01 158.11 186.26 158.17 185.27 L 158.23 184.34 C 158.29 183.35 157.54 182.50 156.55 182.44 C 155.56 182.38 154.71 183.13 154.65 184.12 Z M 154.60 184.99 L 154.51 185.93 C 154.41 186.91 155.13 187.78 156.12 187.88 C 157.10 187.98 157.97 187.26 158.07 186.28 L 158.16 185.34 C 158.25 184.35 157.53 183.48 156.55 183.38 C 155.57 183.29 154.70 184.01 154.60 184.99 Z M 154.52 185.86 L 154.39 186.84 C 154.25 187.81 154.93 188.71 155.91 188.84 C 156.88 188.98 157.78 188.30 157.92 187.33 L 158.05 186.35 C 158.19 185.37 157.51 184.47 156.53 184.34 C 155.56 184.20 154.66 184.88 154.52 185.86 Z M 154.41 186.76 L 154.21 187.82 C 154.04 188.79 154.68 189.71 155.64 189.89 C 156.61 190.06 157.53 189.42 157.71 188.46 L 157.90 187.40 C 158.07 186.43 157.43 185.51 156.47 185.33 C 155.50 185.16 154.58 185.80 154.41 186.76 Z M 154.23 187.77 L 154.02 188.72 C 153.82 189.67 154.42 190.62 155.38 190.82 C 156.33 191.03 157.27 190.42 157.48 189.47 L 157.69 188.52 C 157.90 187.56 157.29 186.62 156.33 186.41 C 155.38 186.20 154.44 186.81 154.23 187.77 Z M 154.04 188.68 L 153.81 189.62 C 153.58 190.57 154.16 191.52 155.11 191.75 C 156.06 191.98 157.01 191.40 157.24 190.45 L 157.47 189.51 C 157.70 188.56 157.11 187.61 156.17 187.38 C 155.22 187.15 154.27 187.73 154.04 188.68 Z M 153.82 189.59 L 153.57 190.57 C 153.32 191.51 153.88 192.48 154.82 192.72 C 155.76 192.97 156.72 192.41 156.97 191.47 L 157.23 190.48 C 157.47 189.54 156.91 188.58 155.97 188.34 C 155.03 188.09 154.07 188.65 153.82 189.59 Z M 153.58 190.55 L 153.30 191.54 C 153.04 192.48 153.58 193.44 154.51 193.71 C 155.45 193.97 156.41 193.42 156.68 192.49 L 156.95 191.49 C 157.22 190.56 156.67 189.59 155.74 189.33 C 154.81 189.07 153.84 189.61 153.58 190.55 Z M 153.31 191.52 L 153.02 192.51 C 152.74 193.43 153.27 194.41 154.19 194.68 C 155.12 194.96 156.09 194.43 156.37 193.51 L 156.66 192.52 C 156.94 191.59 156.41 190.62 155.49 190.34 C 154.56 190.07 153.59 190.59 153.31 191.52 Z M 153.03 192.48 L 152.71 193.48 C 152.42 194.40 152.93 195.38 153.85 195.67 C 154.76 195.96 155.74 195.45 156.03 194.54 L 156.35 193.53 C 156.64 192.62 156.14 191.64 155.22 191.35 C 154.30 191.06 153.32 191.56 153.03 192.48 Z M 152.74 193.45 L 152.38 194.50 C 152.07 195.40 152.56 196.38 153.46 196.69 C 154.37 197.00 155.35 196.51 155.66 195.61 L 156.01 194.57 C 156.32 193.66 155.84 192.68 154.93 192.37 C 154.03 192.07 153.05 192.55 152.74 193.45 Z M 152.41 194.46 L 152.05 195.43 C 151.72 196.32 152.17 197.31 153.06 197.64 C 153.95 197.97 154.94 197.51 155.27 196.62 L 155.63 195.65 C 155.96 194.76 155.50 193.77 154.61 193.45 C 153.73 193.12 152.74 193.57 152.41 194.46 Z M 152.08 195.39 L 151.72 196.29 C 151.36 197.16 151.78 198.15 152.65 198.50 C 153.52 198.86 154.51 198.44 154.86 197.57 L 155.23 196.67 C 155.59 195.80 155.17 194.81 154.30 194.45 C 153.43 194.10 152.44 194.52 152.08 195.39 Z M 151.76 196.23 L 151.38 197.05 C 151.00 197.90 151.37 198.90 152.22 199.29 C 153.07 199.67 154.07 199.30 154.45 198.45 L 154.82 197.63 C 155.21 196.78 154.83 195.78 153.99 195.40 C 153.14 195.01 152.14 195.39 151.76 196.23 Z M 151.44 196.98 L 150.97 197.87 C 150.55 198.69 150.86 199.70 151.68 200.12 C 152.49 200.55 153.50 200.23 153.93 199.42 L 154.40 198.52 C 154.82 197.71 154.51 196.70 153.69 196.27 C 152.87 195.85 151.87 196.16 151.44 196.98 Z M 151.05 197.79 L 150.51 198.67 C 150.03 199.44 150.28 200.46 151.05 200.93 C 151.83 201.40 152.84 201.16 153.32 200.38 L 153.86 199.50 C 154.33 198.73 154.08 197.71 153.31 197.24 C 152.53 196.77 151.52 197.01 151.05 197.79 Z M 150.58 198.60 L 150.03 199.39 C 149.52 200.13 149.71 201.14 150.45 201.65 C 151.19 202.16 152.20 201.97 152.71 201.23 L 153.25 200.45 C 153.76 199.71 153.57 198.70 152.83 198.19 C 152.10 197.68 151.09 197.87 150.58 198.60 Z M 150.08 199.37 L 149.63 199.97 C 149.11 200.69 149.27 201.69 149.98 202.21 C 150.70 202.73 151.70 202.58 152.22 201.86 L 152.66 201.26 C 153.19 200.54 153.03 199.54 152.31 199.02 C 151.60 198.50 150.60 198.65 150.08 199.37 Z"
      fill="black"
      fill-rule="nonzero" /></svg>