<svg xmlns="http://www.w3.org/2000/svg" width="300" height="300" viewBox="0 0 300 300">
<path d="M 153.19 75.37 L 153.16 76.43 C 153.14 77.40 153.90 78.21 154.88 78.24 C 155.85 78.26 156.66 77.50 156.69 76.52 L 156.72 75.47 C 156.75 74.49 155.98 73.68 155.00 73.66 C 154.03 73.63 153.22 74.40 153.19 75.37 Z M 153.16 76.42 L 153.13 77.46 C 153.10 78.44 153.87 79.25 154.84 79.28 C 155.82 79.31 156.64 78.54 156.67 77.56 L 156.70 76.52 C 156.72 75.55 155.96 74.73 154.98 74.70 C 154.00 74.68 153.18 75.44 153.16 76.42 Z M 153.12 77.45 L 153.09 78.46 C 153.06 79.44 153.82 80.26 154.81 80.29 C 155.79 80.33 156.61 79.56 156.64 78.58 L 156.67 77.57 C 156.70 76.59 155.93 75.77 154.95 75.74 C 153.97 75.70 153.15 76.47 153.12 77.45 Z M 153.08 78.45 L 153.05 79.41 C 153.01 80.39 153.77 81.22 154.76 81.26 C 155.74 81.30 156.57 80.53 156.61 79.54 L 156.65 78.59 C 156.68 77.60 155.92 76.77 154.93 76.74 C 153.95 76.70 153.12 77.47 153.08 78.45 Z M 153.04 79.39 L 153.00 80.30 C 152.95 81.28 153.71 82.12 154.70 82.17 C 155.69 82.21 156.52 81.45 156.57 80.46 L 156.61 79.56 C 156.66 78.57 155.90 77.74 154.91 77.69 C 153.92 77.64 153.09 78.41 153.04 79.39 Z M 153.00 80.28 L 152.95 81.15 C 152.89 82.14 153.65 82.99 154.63 83.04 C 155.62 83.10 156.47 82.35 156.52 81.36 L 156.57 80.48 C 156.63 79.49 155.87 78.65 154.89 78.59 C 153.90 78.54 153.05 79.29 153.00 80.28 Z M 152.94 81.14 L 152.89 82.05 C 152.83 83.04 153.58 83.89 154.57 83.95 C 155.56 84.01 156.41 83.26 156.47 82.27 L 156.52 81.37 C 156.59 80.38 155.83 79.53 154.85 79.47 C 153.86 79.40 153.01 80.16 152.94 81.14 Z M 152.89 82.05 L 152.82 83.05 C 152.76 84.04 153.52 84.90 154.50 84.96 C 155.49 85.02 156.35 84.27 156.41 83.28 L 156.47 82.27 C 156.53 81.28 155.78 80.43 154.79 80.37 C 153.80 80.31 152.95 81.06 152.89 82.05 Z M 152.82 83.06 L 152.75 84.25 C 152.70 85.24 153.45 86.09 154.44 86.15 C 155.43 86.21 156.28 85.45 156.34 84.46 L 156.41 83.27 C 156.47 82.28 155.71 81.43 154.72 81.37 C 153.73 81.31 152.88 82.07 152.82 83.06 Z M 152.75 84.26 L 152.70 85.20 C 152.65 86.19 153.41 87.04 154.40 87.09 C 155.39 87.15 156.24 86.38 156.29 85.39 L 156.34 84.45 C 156.40 83.46 155.63 82.61 154.64 82.56 C 153.65 82.51 152.80 83.27 152.75 84.26 Z M 152.70 85.21 L 152.65 86.15 C 152.60 87.14 153.37 87.98 154.36 88.03 C 155.35 88.08 156.20 87.32 156.25 86.33 L 156.29 85.39 C 156.34 84.39 155.58 83.55 154.59 83.50 C 153.59 83.45 152.75 84.22 152.70 85.21 Z M 152.65 86.15 L 152.61 87.16 C 152.56 88.15 153.33 88.99 154.32 89.04 C 155.31 89.08 156.15 88.32 156.20 87.32 L 156.25 86.32 C 156.29 85.33 155.53 84.49 154.53 84.44 C 153.54 84.39 152.70 85.16 152.65 86.15 Z M 152.61 87.16 L 152.56 88.20 C 152.52 89.19 153.29 90.03 154.28 90.08 C 155.27 90.12 156.11 89.35 156.15 88.36 L 156.20 87.32 C 156.24 86.33 155.47 85.49 154.48 85.44 C 153.49 85.40 152.65 86.17 152.61 87.16 Z M 152.56 88.21 L 152.52 89.26 C 152.48 90.26 153.25 91.09 154.24 91.13 C 155.23 91.17 156.07 90.40 156.11 89.41 L 156.15 88.35 C 156.19 87.36 155.42 86.52 154.43 86.48 C 153.44 86.44 152.60 87.21 152.56 88.21 Z M 152.52 89.27 L 152.48 90.32 C 152.44 91.31 153.22 92.15 154.21 92.19 C 155.20 92.22 156.04 91.45 156.07 90.45 L 156.11 89.40 C 156.15 88.41 155.37 87.58 154.38 87.54 C 153.39 87.50 152.55 88.28 152.52 89.27 Z M 152.48 90.33 L 152.44 91.35 C 152.41 92.34 153.19 93.17 154.18 93.21 C 155.17 93.24 156.01 92.46 156.04 91.47 L 156.07 90.45 C 156.11 89.45 155.33 88.62 154.33 88.59 C 153.34 88.56 152.51 89.34 152.48 90.33 Z M 152.45 91.36 L 152.42 92.43 C 152.39 93.42 153.17 94.25 154.16 94.27 C 155.15 94.30 155.98 93.52 156.01 92.53 L 156.04 91.46 C 156.07 90.47 155.28 89.64 154.29 89.61 C 153.30 89.59 152.47 90.37 152.45 91.36 Z M 152.42 92.44 L 152.40 93.55 C 152.38 94.54 153.16 95.36 154.15 95.38 C 155.14 95.40 155.96 94.61 155.98 93.62 L 156.00 92.52 C 156.02 91.53 155.24 90.71 154.25 90.69 C 153.26 90.67 152.44 91.45 152.42 92.44 Z M 152.40 93.56 L 152.39 94.60 C 152.37 95.58 153.16 96.39 154.15 96.41 C 155.13 96.42 155.94 95.64 155.96 94.65 L 155.97 93.61 C 155.99 92.63 155.20 91.82 154.21 91.80 C 153.23 91.79 152.42 92.57 152.40 93.56 Z M 152.39 94.61 L 152.39 95.59 C 152.38 96.57 153.17 97.37 154.15 97.38 C 155.13 97.39 155.93 96.60 155.94 95.62 L 155.95 94.64 C 155.96 93.66 155.17 92.85 154.19 92.85 C 153.21 92.84 152.40 93.63 152.39 94.61 Z M 152.39 95.60 L 152.39 96.53 C 152.38 97.51 153.17 98.31 154.15 98.31 C 155.13 98.32 155.93 97.53 155.93 96.55 L 155.94 95.61 C 155.94 94.63 155.15 93.84 154.17 93.83 C 153.19 93.83 152.40 94.62 152.39 95.60 Z M 152.40 96.54 L 152.39 97.45 C 152.39 98.43 153.18 99.22 154.16 99.22 C 155.13 99.22 155.92 98.43 155.92 97.46 L 155.93 96.54 C 155.93 95.57 155.14 94.78 154.16 94.78 C 153.19 94.78 152.40 95.57 152.40 96.54 Z M 152.40 97.46 L 152.40 98.41 C 152.40 99.38 153.19 100.16 154.16 100.16 C 155.13 100.16 155.92 99.38 155.92 98.41 L 155.92 97.46 C 155.92 96.49 155.13 95.70 154.16 95.70 C 153.19 95.70 152.40 96.49 152.40 97.46 Z M 152.41 98.41 L 152.41 99.41 C 152.41 100.38 153.19 101.16 154.16 101.16 C 155.13 101.16 155.91 100.38 155.91 99.41 L 155.91 98.41 C 155.91 97.44 155.13 96.66 154.16 96.66 C 153.19 96.66 152.41 97.44 152.41 98.41 Z M 152.42 99.41 L 152.42 100.42 C 152.42 101.38 153.20 102.16 154.16 102.16 C 155.12 102.16 155.90 101.38 155.90 100.42 L 155.90 99.41 C 155.90 98.45 155.12 97.67 154.16 97.67 C 153.20 97.67 152.42 98.45 152.42 99.41 Z M 152.42 100.42 L 152.42 101.42 C 152.42 102.38 153.20 103.15 154.16 103.15 C 155.12 103.15 155.89 102.38 155.89 101.42 L 155.89 100.42 C 155.89 99.46 155.12 98.68 154.16 98.68 C 153.20 98.68 152.42 99.46 152.42 100.42 Z M 152.43 101.42 L 152.43 102.41 C 152.43 103.37 153.21 104.14 154.16 104.14 C 155.11 104.14 155.89 103.37 155.89 102.41 L 155.89 101.42 C 155.89 100.47 155.11 99.69 154.16 99.69 C 153.21 99.69 152.43 100.47 152.43 101.42 Z M 152.44 102.41 L 152.44 103.40 C 152.44 104.35 153.21 105.12 154.16 105.12 C 155.11 105.12 155.88 104.35 155.88 103.40 L 155.88 102.41 C 155.88 101.46 155.11 100.70 154.16 100.70 C 153.21 100.70 152.44 101.46 152.44 102.41 Z M 152.45 103.40 L 152.45 104.43 C 152.45 105.38 153.22 106.14 154.16 106.14 C 155.10 106.14 155.87 105.38 155.87 104.43 L 155.87 103.40 C 155.87 102.46 155.10 101.69 154.16 101.69 C 153.22 101.69 152.45 102.46 152.45 103.40 Z M 152.46 104.43 L 152.46 105.45 C 152.46 106.39 153.22 107.15 154.16 107.15 C 155.10 107.15 155.86 106.39 155.86 105.45 L 155.86 104.43 C 155.86 103.49 155.10 102.73 154.16 102.73 C 153.22 102.73 152.46 103.49 152.46 104.43 Z M 152.47 105.45 L 152.47 106.45 C 152.47 107.38 153.23 108.14 154.16 108.14 C 155.09 108.14 155.85 107.38 155.85 106.45 L 155.85 105.45 C 155.85 104.52 155.09 103.76 154.16 103.76 C 153.23 103.76 152.47 104.52 152.47 105.45 Z M 152.48 106.45 L 152.48 107.44 C 152.48 108.36 153.23 109.12 154.16 109.12 C 155.09 109.12 155.84 108.36 155.84 107.44 L 155.84 106.45 C 155.84 105.52 155.09 104.77 154.16 104.77 C 153.23 104.77 152.48 105.52 152.48 106.45 Z M 152.49 107.44 L 152.49 108.41 C 152.49 109.33 153.24 110.07 154.16 110.07 C 155.08 110.07 155.83 109.33 155.83 108.41 L 155.83 107.44 C 155.83 106.52 155.08 105.77 154.16 105.77 C 153.24 105.77 152.49 106.52 152.49 107.44 Z M 152.50 108.41 L 152.50 109.45 C 152.50 110.36 153.24 111.11 154.16 111.11 C 155.08 111.11 155.82 110.36 155.82 109.45 L 155.82 108.41 C 155.82 107.49 155.08 106.75 154.16 106.75 C 153.24 106.75 152.50 107.49 152.50 108.41 Z M 152.51 109.45 L 152.50 110.47 C 152.50 111.38 153.24 112.13 154.16 112.13 C 155.07 112.13 155.81 111.39 155.81 110.48 L 155.81 109.45 C 155.81 108.54 155.07 107.79 154.16 107.79 C 153.25 107.79 152.51 108.53 152.51 109.45 Z M 152.51 110.47 L 152.51 111.47 C 152.50 112.38 153.24 113.12 154.15 113.12 C 155.06 113.12 155.80 112.39 155.80 111.48 L 155.81 110.48 C 155.81 109.57 155.07 108.83 154.16 108.82 C 153.25 108.82 152.51 109.56 152.51 110.47 Z M 152.51 111.46 L 152.50 112.43 C 152.50 113.34 153.23 114.08 154.13 114.09 C 155.04 114.09 155.78 113.36 155.79 112.46 L 155.80 111.49 C 155.80 110.58 155.07 109.84 154.17 109.83 C 153.26 109.82 152.52 110.55 152.51 111.46 Z M 152.51 112.42 L 152.49 113.39 C 152.48 114.30 153.20 115.04 154.11 115.05 C 155.01 115.07 155.76 114.34 155.77 113.44 L 155.78 112.46 C 155.80 111.56 155.07 110.82 154.17 110.80 C 153.26 110.79 152.52 111.51 152.51 112.42 Z M 152.50 113.38 L 152.47 114.41 C 152.45 115.31 153.17 116.06 154.08 116.08 C 154.98 116.10 155.73 115.38 155.75 114.48 L 155.77 113.45 C 155.79 112.55 155.07 111.80 154.17 111.78 C 153.26 111.76 152.51 112.48 152.50 113.38 Z M 152.47 114.40 L 152.45 115.40 C 152.42 116.30 153.14 117.05 154.04 117.08 C 154.94 117.10 155.70 116.39 155.72 115.48 L 155.75 114.49 C 155.77 113.58 155.06 112.83 154.16 112.81 C 153.25 112.78 152.50 113.49 152.47 114.40 Z M 152.45 115.39 L 152.42 116.37 C 152.39 117.27 153.10 118.03 154.00 118.06 C 154.91 118.09 155.66 117.38 155.69 116.47 L 155.72 115.49 C 155.75 114.59 155.04 113.83 154.13 113.80 C 153.23 113.78 152.48 114.49 152.45 115.39 Z M 152.42 116.37 L 152.39 117.15 C 152.36 118.06 153.07 118.81 153.97 118.84 C 154.88 118.87 155.63 118.17 155.66 117.26 L 155.69 116.48 C 155.72 115.57 155.01 114.82 154.11 114.79 C 153.20 114.76 152.45 115.46 152.42 116.37 Z"
      fill="black"
      fill-rule="nonzero" /><path d="M 144.62 95.87 L 145.50 95.67 C 146.46 95.44 147.06 94.48 146.83 93.51 C 146.61 92.55 145.64 91.95 144.68 92.17 L 143.80 92.38 C 142.84 92.60 142.24 93.57 142.47 94.53 C 142.69 95.50 143.66 96.10 144.62 95.87 Z M 145.52 95.66 L 146.44 95.44 C 147.40 95.20 147.98 94.22 147.74 93.26 C 147.50 92.29 146.53 91.71 145.56 91.95 L 144.65 92.18 C 143.69 92.42 143.10 93.39 143.35 94.36 C 143.59 95.32 144.56 95.90 145.52 95.66 Z M 146.48 95.43 L 147.47 95.15 C 148.43 94.88 148.99 93.89 148.72 92.93 C 148.45 91.97 147.46 91.42 146.50 91.68 L 145.52 91.96 C 144.56 92.23 144.00 93.22 144.27 94.18 C 144.53 95.14 145.53 95.69 146.48 95.43 Z M 147.53 95.14 L 148.61 94.80 C 149.56 94.50 150.09 93.48 149.79 92.53 C 149.49 91.58 148.47 91.06 147.52 91.36 L 146.44 91.70 C 145.49 92.00 144.96 93.01 145.26 93.96 C 145.56 94.91 146.58 95.44 147.53 95.14 Z M 148.66 94.77 L 149.53 94.47 C 150.47 94.15 150.96 93.12 150.64 92.18 C 150.31 91.25 149.29 90.75 148.35 91.07 L 147.48 91.38 C 146.54 91.70 146.04 92.73 146.37 93.67 C 146.69 94.60 147.72 95.10 148.66 94.77 Z M 149.55 94.44 L 150.48 94.10 C 151.40 93.77 151.88 92.74 151.54 91.82 C 151.20 90.90 150.18 90.42 149.26 90.76 L 148.33 91.10 C 147.41 91.44 146.93 92.46 147.27 93.38 C 147.61 94.31 148.63 94.78 149.55 94.44 Z M 150.49 94.08 L 151.45 93.72 C 152.36 93.37 152.82 92.35 152.47 91.44 C 152.13 90.53 151.11 90.08 150.20 90.42 L 149.24 90.79 C 148.33 91.13 147.88 92.15 148.22 93.06 C 148.57 93.97 149.58 94.43 150.49 94.08 Z M 151.46 93.69 L 152.43 93.32 C 153.32 92.97 153.77 91.96 153.42 91.06 C 153.07 90.16 152.06 89.72 151.16 90.07 L 150.20 90.44 C 149.30 90.79 148.85 91.80 149.20 92.70 C 149.55 93.60 150.56 94.04 151.46 93.69 Z M 152.43 93.30 L 153.38 92.92 C 154.27 92.58 154.70 91.57 154.36 90.69 C 154.01 89.80 153.00 89.36 152.12 89.71 L 151.16 90.09 C 150.28 90.44 149.84 91.44 150.19 92.32 C 150.54 93.21 151.54 93.65 152.43 93.30 Z M 153.38 92.91 L 154.35 92.52 C 155.23 92.18 155.66 91.18 155.31 90.31 C 154.97 89.43 153.97 89.00 153.10 89.34 L 152.12 89.73 C 151.24 90.07 150.81 91.07 151.16 91.95 C 151.51 92.82 152.50 93.25 153.38 92.91 Z M 154.35 92.51 L 155.31 92.13 C 156.18 91.78 156.61 90.80 156.27 89.93 C 155.92 89.06 154.94 88.63 154.07 88.98 L 153.10 89.36 C 152.23 89.70 151.80 90.68 152.15 91.55 C 152.49 92.43 153.47 92.85 154.35 92.51 Z M 155.31 92.11 L 156.24 91.75 C 157.10 91.41 157.53 90.43 157.18 89.57 C 156.84 88.71 155.87 88.28 155.01 88.62 L 154.08 88.99 C 153.21 89.33 152.79 90.30 153.13 91.17 C 153.47 92.03 154.44 92.45 155.31 92.11 Z M 156.23 91.73 L 157.14 91.38 C 157.99 91.04 158.41 90.07 158.08 89.22 C 157.74 88.36 156.77 87.94 155.92 88.28 L 155.01 88.64 C 154.16 88.97 153.74 89.94 154.07 90.79 C 154.41 91.65 155.38 92.07 156.23 91.73 Z M 157.13 91.36 L 158.02 91.01 C 158.87 90.68 159.29 89.72 158.95 88.87 C 158.62 88.02 157.66 87.61 156.81 87.94 L 155.92 88.29 C 155.08 88.63 154.66 89.58 154.99 90.43 C 155.33 91.28 156.28 91.70 157.13 91.36 Z M 158.02 91.00 L 158.34 90.87 C 159.18 90.54 159.60 89.59 159.27 88.75 C 158.93 87.91 157.98 87.49 157.14 87.82 L 156.82 87.95 C 155.97 88.28 155.56 89.23 155.89 90.08 C 156.22 90.92 157.18 91.33 158.02 91.00 Z"
      fill="black"
      fill-rule="nonzero" /><path d="M 142.62 107.03 L 143.63 107.11 C 144.61 107.18 145.45 106.45 145.53 105.48 C 145.60 104.50 144.87 103.65 143.90 103.58 L 142.89 103.51 C 141.91 103.43 141.06 104.16 140.99 105.14 C 140.92 106.11 141.65 106.96 142.62 107.03 Z M 143.69 107.12 L 144.69 107.16 C 145.67 107.20 146.50 106.44 146.54 105.46 C 146.58 104.48 145.82 103.65 144.84 103.61 L 143.84 103.57 C 142.86 103.53 142.03 104.29 141.99 105.27 C 141.95 106.25 142.71 107.07 143.69 107.12 Z M 144.81 107.16 L 145.80 107.14 C 146.78 107.11 147.56 106.29 147.53 105.31 C 147.50 104.33 146.69 103.56 145.71 103.58 L 144.72 103.61 C 143.74 103.64 142.96 104.45 142.99 105.43 C 143.02 106.41 143.83 107.19 144.81 107.16 Z M 145.98 107.12 L 146.87 107.01 C 147.84 106.89 148.53 106.00 148.41 105.03 C 148.29 104.05 147.40 103.36 146.43 103.49 L 145.53 103.60 C 144.56 103.72 143.87 104.61 143.99 105.58 C 144.12 106.55 145.00 107.24 145.98 107.12 Z M 147.04 106.97 L 147.93 106.77 C 148.88 106.56 149.47 105.61 149.26 104.66 C 149.05 103.71 148.11 103.11 147.16 103.33 L 146.27 103.53 C 145.32 103.74 144.72 104.68 144.93 105.63 C 145.14 106.58 146.09 107.18 147.04 106.97 Z M 148.04 106.72 L 149.01 106.44 C 149.94 106.16 150.47 105.19 150.19 104.26 C 149.92 103.34 148.94 102.81 148.02 103.08 L 147.05 103.37 C 146.12 103.65 145.59 104.62 145.87 105.54 C 146.14 106.47 147.11 107.00 148.04 106.72 Z M 149.07 106.40 L 150.16 106.03 C 151.07 105.73 151.56 104.74 151.25 103.84 C 150.95 102.93 149.96 102.44 149.05 102.75 L 147.96 103.12 C 147.05 103.42 146.57 104.41 146.87 105.31 C 147.18 106.22 148.16 106.71 149.07 106.40 Z M 150.18 106.01 L 151.07 105.70 C 151.96 105.38 152.43 104.40 152.11 103.50 C 151.80 102.61 150.81 102.14 149.92 102.46 L 149.03 102.77 C 148.14 103.09 147.67 104.07 147.99 104.96 C 148.30 105.86 149.29 106.33 150.18 106.01 Z M 151.07 105.69 L 152.02 105.35 C 152.91 105.03 153.37 104.05 153.05 103.16 C 152.73 102.27 151.75 101.81 150.86 102.13 L 149.91 102.47 C 149.02 102.79 148.56 103.77 148.88 104.66 C 149.20 105.54 150.18 106.01 151.07 105.69 Z M 152.02 105.33 L 152.99 104.98 C 153.87 104.66 154.33 103.69 154.01 102.80 C 153.69 101.92 152.72 101.47 151.84 101.79 L 150.86 102.14 C 149.98 102.46 149.52 103.43 149.84 104.32 C 150.16 105.20 151.13 105.65 152.02 105.33 Z M 152.99 104.97 L 153.96 104.62 C 154.84 104.30 155.29 103.33 154.97 102.46 C 154.66 101.58 153.69 101.13 152.81 101.44 L 151.84 101.80 C 150.96 102.11 150.51 103.08 150.83 103.96 C 151.14 104.83 152.11 105.29 152.99 104.97 Z M 153.95 104.61 L 154.89 104.27 C 155.76 103.96 156.22 103.00 155.91 102.13 C 155.59 101.26 154.64 100.81 153.76 101.12 L 152.82 101.45 C 151.95 101.76 151.50 102.72 151.81 103.59 C 152.12 104.47 153.08 104.92 153.95 104.61 Z M 154.88 104.27 L 155.91 103.91 C 156.78 103.61 157.24 102.66 156.93 101.79 C 156.63 100.92 155.68 100.46 154.81 100.76 L 153.78 101.12 C 152.91 101.42 152.45 102.37 152.75 103.24 C 153.06 104.11 154.01 104.57 154.88 104.27 Z M 155.89 103.91 L 156.88 103.57 C 157.74 103.28 158.21 102.34 157.92 101.47 C 157.62 100.60 156.68 100.14 155.81 100.43 L 154.83 100.76 C 153.96 101.06 153.50 102.00 153.79 102.87 C 154.08 103.73 155.02 104.20 155.89 103.91 Z M 156.86 103.57 L 157.78 103.27 C 158.65 102.98 159.12 102.05 158.83 101.18 C 158.55 100.32 157.61 99.85 156.75 100.13 L 155.83 100.43 C 154.96 100.72 154.49 101.65 154.78 102.52 C 155.06 103.39 155.99 103.86 156.86 103.57 Z M 157.77 103.26 L 158.65 102.98 C 159.52 102.70 159.99 101.77 159.71 100.91 C 159.43 100.04 158.51 99.57 157.64 99.85 L 156.76 100.14 C 155.90 100.41 155.42 101.34 155.70 102.21 C 155.98 103.07 156.91 103.54 157.77 103.26 Z M 158.65 102.97 L 159.04 102.85 C 159.90 102.57 160.37 101.65 160.10 100.79 C 159.82 99.93 158.90 99.45 158.03 99.73 L 157.65 99.85 C 156.79 100.13 156.31 101.05 156.59 101.92 C 156.87 102.78 157.79 103.25 158.65 102.97 Z"
      fill="black"
      fill-rule="nonzero" /><path d="M 134.86 127.07 L 135.89 127.04 C 136.87 127.01 137.64 126.19 137.61 125.21 C 137.57 124.23 136.75 123.46 135.77 123.49 L 134.74 123.53 C 133.76 123.56 132.99 124.38 133.02 125.36 C 133.06 126.34 133.88 127.11 134.86 127.07 Z M 135.92 127.04 L 136.94 126.99 C 137.92 126.94 138.67 126.11 138.63 125.13 C 138.58 124.15 137.74 123.40 136.77 123.44 L 135.75 123.49 C 134.77 123.54 134.01 124.37 134.06 125.35 C 134.11 126.33 134.94 127.09 135.92 127.04 Z M 137.00 126.98 L 137.99 126.90 C 138.97 126.82 139.69 125.97 139.61 124.99 C 139.53 124.01 138.68 123.29 137.70 123.37 L 136.71 123.45 C 135.73 123.53 135.00 124.39 135.09 125.36 C 135.17 126.34 136.02 127.07 137.00 126.98 Z M 138.09 126.89 L 139.04 126.76 C 140.01 126.63 140.69 125.74 140.55 124.77 C 140.42 123.80 139.53 123.12 138.56 123.25 L 137.61 123.38 C 136.64 123.51 135.96 124.40 136.09 125.37 C 136.22 126.34 137.11 127.02 138.09 126.89 Z M 139.17 126.74 L 140.13 126.53 C 141.09 126.32 141.70 125.38 141.49 124.42 C 141.28 123.47 140.34 122.86 139.38 123.07 L 138.42 123.27 C 137.46 123.48 136.86 124.42 137.06 125.38 C 137.27 126.34 138.21 126.94 139.17 126.74 Z M 140.28 126.49 L 141.21 126.20 C 142.15 125.91 142.67 124.92 142.38 123.99 C 142.09 123.05 141.10 122.53 140.17 122.82 L 139.23 123.10 C 138.30 123.39 137.78 124.38 138.06 125.32 C 138.35 126.25 139.34 126.78 140.28 126.49 Z M 141.34 126.16 L 142.26 125.80 C 143.17 125.44 143.61 124.41 143.26 123.50 C 142.90 122.59 141.88 122.14 140.97 122.50 L 140.05 122.86 C 139.14 123.22 138.69 124.24 139.04 125.15 C 139.40 126.06 140.43 126.51 141.34 126.16 Z M 142.34 125.76 L 143.28 125.33 C 144.17 124.93 144.56 123.88 144.16 122.99 C 143.75 122.10 142.70 121.71 141.82 122.11 L 140.88 122.54 C 139.99 122.94 139.60 123.99 140.00 124.88 C 140.41 125.77 141.45 126.16 142.34 125.76 Z M 143.33 125.30 L 144.16 124.89 C 145.04 124.46 145.39 123.40 144.96 122.53 C 144.53 121.65 143.47 121.30 142.60 121.73 L 141.77 122.14 C 140.89 122.57 140.53 123.63 140.97 124.50 C 141.40 125.38 142.46 125.74 143.33 125.30 Z M 144.19 124.87 L 145.04 124.43 C 145.91 123.98 146.24 122.92 145.80 122.06 C 145.35 121.19 144.28 120.86 143.42 121.31 L 142.57 121.75 C 141.70 122.20 141.37 123.26 141.82 124.12 C 142.26 124.99 143.33 125.32 144.19 124.87 Z M 145.06 124.42 L 145.95 123.94 C 146.81 123.48 147.13 122.42 146.67 121.56 C 146.21 120.71 145.15 120.39 144.29 120.84 L 143.40 121.32 C 142.55 121.78 142.23 122.84 142.68 123.70 C 143.14 124.55 144.21 124.87 145.06 124.42 Z M 145.96 123.93 L 146.88 123.43 C 147.73 122.96 148.04 121.90 147.58 121.05 C 147.12 120.20 146.05 119.89 145.20 120.35 L 144.28 120.86 C 143.43 121.32 143.12 122.38 143.58 123.23 C 144.05 124.08 145.11 124.39 145.96 123.93 Z M 146.89 123.42 L 147.80 122.92 C 148.64 122.45 148.95 121.39 148.48 120.54 C 148.02 119.70 146.95 119.39 146.11 119.86 L 145.20 120.36 C 144.35 120.83 144.05 121.89 144.51 122.73 C 144.98 123.58 146.04 123.88 146.89 123.42 Z M 147.80 122.91 L 148.63 122.45 C 149.47 121.98 149.77 120.92 149.30 120.08 C 148.84 119.24 147.78 118.94 146.94 119.40 L 146.11 119.86 C 145.27 120.33 144.96 121.39 145.43 122.23 C 145.90 123.07 146.96 123.37 147.80 122.91 Z M 148.63 122.44 L 149.48 121.96 C 150.32 121.50 150.62 120.44 150.15 119.60 C 149.68 118.77 148.62 118.47 147.79 118.94 L 146.94 119.41 C 146.10 119.88 145.80 120.94 146.27 121.77 C 146.74 122.61 147.79 122.91 148.63 122.44 Z M 149.48 121.96 L 150.36 121.46 C 151.19 120.99 151.48 119.94 151.01 119.11 C 150.54 118.28 149.49 117.98 148.66 118.45 L 147.78 118.95 C 146.95 119.42 146.66 120.47 147.13 121.30 C 147.60 122.13 148.65 122.43 149.48 121.96 Z M 150.36 121.45 L 151.25 120.94 C 152.08 120.47 152.36 119.41 151.89 118.59 C 151.42 117.76 150.37 117.48 149.54 117.95 L 148.65 118.46 C 147.82 118.94 147.54 119.99 148.01 120.81 C 148.49 121.64 149.54 121.93 150.36 121.45 Z M 151.26 120.93 L 152.17 120.40 C 152.99 119.92 153.27 118.87 152.79 118.05 C 152.31 117.23 151.26 116.95 150.44 117.43 L 149.53 117.96 C 148.71 118.44 148.44 119.49 148.92 120.31 C 149.39 121.13 150.44 121.41 151.26 120.93 Z M 152.18 120.38 L 153.00 119.90 C 153.81 119.42 154.07 118.37 153.59 117.55 C 153.11 116.74 152.06 116.48 151.24 116.96 L 150.43 117.44 C 149.62 117.93 149.35 118.98 149.84 119.79 C 150.32 120.60 151.37 120.87 152.18 120.38 Z M 153.00 119.89 L 153.81 119.40 C 154.61 118.92 154.87 117.87 154.39 117.06 C 153.90 116.26 152.85 116.00 152.04 116.48 L 151.24 116.97 C 150.43 117.46 150.17 118.51 150.66 119.31 C 151.15 120.12 152.20 120.38 153.00 119.89 Z M 153.81 119.39 L 154.64 118.89 C 155.44 118.40 155.69 117.36 155.20 116.55 C 154.72 115.75 153.67 115.50 152.87 115.99 L 152.04 116.49 C 151.24 116.98 150.99 118.03 151.47 118.83 C 151.96 119.63 153.01 119.88 153.81 119.39 Z M 154.64 118.88 L 155.49 118.36 C 156.29 117.87 156.54 116.83 156.05 116.03 C 155.56 115.23 154.52 114.98 153.72 115.47 L 152.87 115.99 C 152.07 116.48 151.82 117.53 152.31 118.33 C 152.80 119.12 153.84 119.37 154.64 118.88 Z M 155.49 118.36 L 156.37 117.82 C 157.16 117.33 157.41 116.29 156.92 115.49 C 156.43 114.70 155.39 114.45 154.60 114.94 L 153.72 115.48 C 152.92 115.97 152.67 117.01 153.16 117.80 C 153.65 118.60 154.69 118.85 155.49 118.36 Z M 156.36 117.81 L 157.27 117.26 C 158.07 116.77 158.32 115.73 157.83 114.94 C 157.34 114.15 156.31 113.90 155.51 114.38 L 154.60 114.94 C 153.81 115.43 153.56 116.46 154.05 117.26 C 154.53 118.05 155.57 118.30 156.36 117.81 Z M 157.27 117.25 L 158.18 116.70 C 158.97 116.22 159.22 115.18 158.74 114.39 C 158.26 113.60 157.22 113.35 156.43 113.83 L 155.52 114.39 C 154.73 114.87 154.48 115.90 154.96 116.69 C 155.44 117.49 156.47 117.74 157.27 117.25 Z M 158.17 116.70 L 159.06 116.16 C 159.85 115.68 160.10 114.65 159.62 113.86 C 159.14 113.07 158.11 112.82 157.32 113.30 L 156.44 113.83 C 155.64 114.31 155.39 115.34 155.87 116.13 C 156.35 116.92 157.38 117.18 158.17 116.70 Z M 159.05 116.16 L 159.95 115.62 C 160.74 115.14 161.00 114.12 160.52 113.32 C 160.04 112.53 159.02 112.28 158.23 112.76 L 157.33 113.30 C 156.54 113.77 156.28 114.80 156.76 115.59 C 157.24 116.38 158.26 116.64 159.05 116.16 Z M 159.95 115.62 L 160.84 115.08 C 161.63 114.61 161.89 113.58 161.41 112.79 C 160.94 112.00 159.92 111.75 159.13 112.22 L 158.23 112.76 C 157.44 113.23 157.19 114.25 157.66 115.04 C 158.13 115.83 159.16 116.09 159.95 115.62 Z M 160.84 115.08 L 161.72 114.55 C 162.51 114.08 162.76 113.06 162.29 112.27 C 161.82 111.48 160.80 111.23 160.01 111.70 L 159.13 112.22 C 158.34 112.69 158.09 113.71 158.56 114.50 C 159.03 115.29 160.05 115.55 160.84 115.08 Z M 161.71 114.55 L 162.56 114.05 C 163.35 113.58 163.61 112.56 163.14 111.77 C 162.67 110.98 161.65 110.73 160.86 111.19 L 160.02 111.70 C 159.23 112.17 158.97 113.19 159.44 113.97 C 159.91 114.76 160.92 115.02 161.71 114.55 Z M 162.56 114.05 L 163.36 113.57 C 164.14 113.10 164.40 112.09 163.94 111.30 C 163.47 110.51 162.46 110.25 161.67 110.72 L 160.87 111.20 C 160.08 111.66 159.82 112.68 160.29 113.46 C 160.75 114.25 161.77 114.51 162.56 114.05 Z M 163.35 113.57 L 164.23 113.05 C 165.01 112.59 165.28 111.58 164.81 110.79 C 164.35 110.00 163.34 109.74 162.55 110.21 L 161.67 110.72 C 160.89 111.19 160.63 112.20 161.09 112.99 C 161.55 113.77 162.57 114.03 163.35 113.57 Z M 164.22 113.05 L 165.22 112.47 C 166.01 112.00 166.27 110.99 165.81 110.21 C 165.35 109.42 164.34 109.16 163.55 109.62 L 162.56 110.21 C 161.77 110.67 161.51 111.68 161.97 112.46 C 162.43 113.25 163.44 113.51 164.22 113.05 Z M 165.21 112.47 L 166.10 111.95 C 166.88 111.50 167.15 110.49 166.69 109.71 C 166.24 108.92 165.23 108.65 164.44 109.11 L 163.56 109.62 C 162.78 110.08 162.51 111.08 162.97 111.87 C 163.42 112.66 164.43 112.92 165.21 112.47 Z M 166.09 111.96 L 166.88 111.50 C 167.67 111.05 167.94 110.05 167.49 109.26 C 167.04 108.47 166.03 108.20 165.25 108.65 L 164.45 109.11 C 163.66 109.56 163.39 110.56 163.84 111.35 C 164.30 112.14 165.30 112.41 166.09 111.96 Z M 166.87 111.50 L 167.61 111.08 C 168.40 110.64 168.68 109.64 168.23 108.85 C 167.79 108.06 166.78 107.78 166.00 108.23 L 165.26 108.65 C 164.47 109.10 164.19 110.10 164.64 110.88 C 165.08 111.67 166.08 111.95 166.87 111.50 Z M 167.59 111.09 L 168.73 110.47 C 169.52 110.03 169.81 109.04 169.37 108.24 C 168.93 107.45 167.94 107.16 167.15 107.60 L 166.01 108.22 C 165.22 108.66 164.93 109.65 165.37 110.45 C 165.81 111.24 166.80 111.53 167.59 111.09 Z M 168.62 110.52 L 169.52 110.11 C 170.34 109.73 170.70 108.75 170.32 107.93 C 169.94 107.11 168.97 106.75 168.15 107.13 L 167.25 107.55 C 166.43 107.93 166.07 108.90 166.45 109.72 C 166.83 110.54 167.80 110.90 168.62 110.52 Z M 167.51 109.58 L 167.62 109.74 C 168.15 110.47 169.18 110.63 169.91 110.10 C 170.64 109.56 170.80 108.54 170.27 107.81 L 170.16 107.65 C 169.62 106.92 168.60 106.76 167.87 107.30 C 167.14 107.83 166.98 108.85 167.51 109.58 Z M 167.72 107.68 L 167.26 108.20 C 166.65 108.88 166.71 109.92 167.39 110.52 C 168.07 111.12 169.10 111.06 169.71 110.38 L 170.17 109.86 C 170.77 109.19 170.71 108.15 170.04 107.55 C 169.36 106.94 168.32 107.00 167.72 107.68 Z M 167.33 108.11 L 166.56 108.86 C 165.91 109.50 165.89 110.54 166.52 111.19 C 167.16 111.85 168.20 111.86 168.85 111.23 L 169.63 110.47 C 170.28 109.84 170.30 108.80 169.66 108.14 C 169.03 107.49 167.99 107.48 167.33 108.11 Z M 166.58 108.84 L 165.66 109.69 C 164.99 110.32 164.96 111.36 165.58 112.03 C 166.21 112.70 167.25 112.73 167.92 112.11 L 168.84 111.25 C 169.50 110.63 169.54 109.58 168.91 108.91 C 168.29 108.25 167.24 108.21 166.58 108.84 Z M 165.65 109.69 L 164.79 110.51 C 164.12 111.13 164.09 112.18 164.72 112.85 C 165.35 113.52 166.40 113.55 167.07 112.92 L 167.93 112.11 C 168.60 111.48 168.63 110.43 168.00 109.76 C 167.37 109.10 166.32 109.07 165.65 109.69 Z M 164.77 110.52 L 164.02 111.25 C 163.36 111.89 163.34 112.94 163.98 113.60 C 164.62 114.26 165.67 114.27 166.33 113.64 L 167.08 112.91 C 167.74 112.27 167.76 111.22 167.12 110.56 C 166.49 109.90 165.43 109.88 164.77 110.52 Z M 164.00 111.26 L 163.31 111.95 C 162.66 112.60 162.66 113.65 163.31 114.30 C 163.95 114.95 165.01 114.96 165.66 114.31 L 166.35 113.62 C 167.00 112.97 167.00 111.92 166.35 111.27 C 165.70 110.62 164.65 110.62 164.00 111.26 Z M 163.29 111.97 L 162.64 112.64 C 162.00 113.30 162.01 114.35 162.67 114.99 C 163.33 115.63 164.38 115.62 165.02 114.96 L 165.68 114.29 C 166.32 113.63 166.30 112.58 165.65 111.94 C 164.99 111.30 163.93 111.31 163.29 111.97 Z M 162.62 112.66 L 161.99 113.32 C 161.36 113.98 161.39 115.04 162.06 115.67 C 162.73 116.31 163.78 116.28 164.41 115.61 L 165.04 114.95 C 165.67 114.28 165.64 113.22 164.98 112.59 C 164.31 111.96 163.25 111.99 162.62 112.66 Z M 161.98 113.33 L 161.35 114.01 C 160.72 114.69 160.77 115.74 161.44 116.37 C 162.12 117.00 163.18 116.95 163.81 116.27 L 164.43 115.60 C 165.06 114.92 165.02 113.86 164.34 113.23 C 163.66 112.61 162.60 112.65 161.98 113.33 Z M 161.33 114.02 L 160.67 114.75 C 160.05 115.44 160.11 116.50 160.80 117.12 C 161.49 117.74 162.55 117.68 163.17 116.99 L 163.82 116.26 C 164.44 115.57 164.39 114.51 163.70 113.90 C 163.01 113.28 161.95 113.33 161.33 114.02 Z M 160.66 114.77 L 159.95 115.57 C 159.34 116.27 159.41 117.33 160.10 117.95 C 160.80 118.56 161.86 118.49 162.48 117.79 L 163.18 116.98 C 163.80 116.28 163.72 115.22 163.03 114.61 C 162.33 114.00 161.27 114.07 160.66 114.77 Z M 159.93 115.58 L 159.25 116.38 C 158.65 117.08 158.73 118.15 159.43 118.75 C 160.14 119.36 161.21 119.28 161.81 118.57 L 162.49 117.78 C 163.10 117.07 163.02 116.01 162.31 115.40 C 161.60 114.80 160.54 114.88 159.93 115.58 Z M 159.24 116.38 L 158.61 117.13 C 158.01 117.84 158.10 118.91 158.81 119.51 C 159.53 120.11 160.59 120.02 161.20 119.31 L 161.82 118.56 C 162.43 117.85 162.34 116.78 161.62 116.18 C 160.91 115.58 159.84 115.67 159.24 116.38 Z M 158.60 117.14 L 157.95 117.92 C 157.35 118.64 157.45 119.71 158.17 120.31 C 158.89 120.90 159.96 120.81 160.56 120.09 L 161.21 119.30 C 161.81 118.58 161.71 117.51 160.99 116.91 C 160.27 116.32 159.20 116.42 158.60 117.14 Z M 157.94 117.92 L 157.28 118.72 C 156.69 119.45 156.80 120.52 157.52 121.12 C 158.25 121.71 159.32 121.60 159.92 120.88 L 160.57 120.08 C 161.17 119.35 161.06 118.28 160.33 117.68 C 159.60 117.09 158.53 117.20 157.94 117.92 Z M 157.27 118.73 L 156.63 119.53 C 156.04 120.27 156.16 121.34 156.90 121.93 C 157.63 122.52 158.71 122.40 159.30 121.66 L 159.93 120.87 C 160.52 120.13 160.40 119.06 159.67 118.47 C 158.93 117.88 157.86 118.00 157.27 118.73 Z M 156.61 119.54 L 155.99 120.34 C 155.41 121.08 155.54 122.16 156.29 122.74 C 157.03 123.32 158.11 123.19 158.69 122.45 L 159.31 121.65 C 159.90 120.91 159.76 119.83 159.02 119.25 C 158.27 118.66 157.20 118.80 156.61 119.54 Z M 155.97 120.35 L 155.31 121.22 C 154.74 121.98 154.89 123.06 155.65 123.63 C 156.40 124.20 157.48 124.06 158.05 123.30 L 158.71 122.43 C 159.29 121.67 159.14 120.59 158.38 120.02 C 157.62 119.45 156.54 119.60 155.97 120.35 Z M 155.29 121.24 L 154.69 122.07 C 154.12 122.84 154.29 123.92 155.06 124.48 C 155.83 125.04 156.91 124.88 157.47 124.11 L 158.08 123.28 C 158.64 122.51 158.47 121.43 157.70 120.87 C 156.93 120.30 155.85 120.47 155.29 121.24 Z M 154.67 122.09 L 154.10 122.88 C 153.55 123.66 153.73 124.74 154.51 125.30 C 155.30 125.85 156.38 125.66 156.93 124.88 L 157.49 124.09 C 158.05 123.31 157.86 122.23 157.08 121.67 C 156.30 121.12 155.22 121.30 154.67 122.09 Z M 154.08 122.90 L 153.55 123.66 C 153.01 124.46 153.21 125.54 154.00 126.08 C 154.79 126.63 155.87 126.43 156.42 125.64 L 156.95 124.87 C 157.49 124.08 157.29 122.99 156.50 122.45 C 155.71 121.90 154.63 122.10 154.08 122.90 Z M 153.54 123.68 L 152.99 124.49 C 152.45 125.29 152.67 126.38 153.47 126.92 C 154.27 127.45 155.35 127.24 155.89 126.44 L 156.43 125.62 C 156.97 124.82 156.76 123.74 155.96 123.20 C 155.16 122.66 154.08 122.88 153.54 123.68 Z M 152.98 124.51 L 152.42 125.36 C 151.89 126.17 152.11 127.25 152.92 127.78 C 153.73 128.31 154.81 128.09 155.34 127.28 L 155.90 126.43 C 156.43 125.62 156.21 124.53 155.40 124.00 C 154.59 123.47 153.51 123.70 152.98 124.51 Z M 152.40 125.37 L 151.87 126.21 C 151.34 127.03 151.58 128.11 152.40 128.63 C 153.21 129.16 154.29 128.92 154.82 128.10 L 155.35 127.27 C 155.88 126.45 155.64 125.37 154.82 124.84 C 154.01 124.32 152.92 124.56 152.40 125.37 Z M 151.85 126.23 L 151.33 127.06 C 150.82 127.88 151.07 128.96 151.89 129.48 C 152.71 129.99 153.80 129.74 154.31 128.92 L 154.83 128.09 C 155.34 127.27 155.09 126.18 154.27 125.67 C 153.45 125.16 152.37 125.41 151.85 126.23 Z M 151.32 127.07 L 150.80 127.92 C 150.30 128.75 150.56 129.83 151.39 130.34 C 152.22 130.84 153.30 130.58 153.81 129.75 L 154.32 128.90 C 154.83 128.07 154.57 126.99 153.74 126.49 C 152.91 125.98 151.83 126.24 151.32 127.07 Z M 150.79 127.94 L 150.28 128.80 C 149.78 129.64 150.06 130.72 150.89 131.22 C 151.73 131.71 152.81 131.44 153.31 130.60 L 153.82 129.74 C 154.32 128.90 154.04 127.82 153.20 127.32 C 152.37 126.82 151.29 127.10 150.79 127.94 Z M 150.26 128.83 L 149.77 129.69 C 149.28 130.54 149.58 131.61 150.42 132.10 C 151.27 132.58 152.34 132.29 152.83 131.44 L 153.32 130.58 C 153.81 129.73 153.51 128.65 152.67 128.17 C 151.82 127.69 150.74 127.98 150.26 128.83 Z M 149.75 129.72 L 149.27 130.59 C 148.80 131.44 149.12 132.51 149.97 132.98 C 150.83 133.45 151.90 133.14 152.37 132.28 L 152.85 131.41 C 153.31 130.56 153.00 129.49 152.15 129.02 C 151.29 128.55 150.22 128.86 149.75 129.72 Z M 149.25 130.62 L 148.80 131.49 C 148.35 132.36 148.68 133.42 149.55 133.87 C 150.42 134.33 151.49 133.99 151.94 133.12 L 152.39 132.25 C 152.84 131.38 152.51 130.32 151.64 129.86 C 150.77 129.41 149.70 129.75 149.25 130.62 Z M 148.78 131.52 L 148.34 132.41 C 147.91 133.29 148.27 134.35 149.15 134.78 C 150.03 135.21 151.09 134.85 151.52 133.98 L 151.96 133.09 C 152.39 132.21 152.03 131.15 151.15 130.72 C 150.27 130.28 149.21 130.64 148.78 131.52 Z M 148.32 132.45 L 147.90 133.36 C 147.49 134.25 147.87 135.30 148.76 135.71 C 149.65 136.13 150.71 135.74 151.12 134.85 L 151.54 133.94 C 151.95 133.05 151.57 131.99 150.68 131.58 C 149.79 131.17 148.73 131.56 148.32 132.45 Z M 147.88 133.39 L 147.47 134.33 C 147.08 135.23 147.49 136.28 148.39 136.67 C 149.29 137.06 150.34 136.65 150.73 135.75 L 151.14 134.81 C 151.53 133.91 151.12 132.87 150.22 132.47 C 149.32 132.08 148.27 132.49 147.88 133.39 Z M 147.45 134.37 L 147.07 135.30 C 146.70 136.21 147.14 137.25 148.05 137.62 C 148.96 137.99 150.00 137.55 150.37 136.64 L 150.75 135.71 C 151.12 134.80 150.68 133.76 149.77 133.39 C 148.86 133.02 147.82 133.46 147.45 134.37 Z M 147.05 135.35 L 146.70 136.30 C 146.35 137.22 146.82 138.24 147.74 138.59 C 148.66 138.93 149.69 138.46 150.03 137.54 L 150.39 136.59 C 150.73 135.67 150.26 134.65 149.34 134.30 C 148.42 133.96 147.40 134.43 147.05 135.35 Z M 146.67 136.36 L 146.36 137.31 C 146.05 138.25 146.56 139.25 147.49 139.56 C 148.43 139.87 149.43 139.36 149.74 138.43 L 150.06 137.48 C 150.36 136.54 149.86 135.54 148.92 135.23 C 147.99 134.92 146.98 135.43 146.67 136.36 Z M 146.33 137.40 L 146.07 138.38 C 145.81 139.33 146.37 140.30 147.32 140.56 C 148.27 140.82 149.24 140.26 149.50 139.31 L 149.77 138.34 C 150.03 137.39 149.47 136.41 148.52 136.15 C 147.57 135.89 146.59 136.45 146.33 137.40 Z M 146.04 138.52 L 145.84 139.61 C 145.66 140.58 146.30 141.51 147.26 141.68 C 148.23 141.86 149.16 141.22 149.34 140.25 L 149.54 139.17 C 149.71 138.20 149.07 137.27 148.11 137.09 C 147.14 136.92 146.21 137.56 146.04 138.52 Z M 145.81 139.89 L 145.79 140.88 C 145.76 141.86 146.54 142.68 147.52 142.70 C 148.50 142.72 149.32 141.95 149.34 140.97 L 149.36 139.98 C 149.39 138.99 148.61 138.18 147.63 138.16 C 146.65 138.13 145.83 138.91 145.81 139.89 Z M 145.84 141.36 L 146.06 142.20 C 146.30 143.15 147.27 143.72 148.22 143.48 C 149.17 143.24 149.74 142.27 149.50 141.32 L 149.28 140.48 C 149.04 139.53 148.07 138.96 147.12 139.20 C 146.17 139.45 145.60 140.41 145.84 141.36 Z M 146.40 142.88 L 147.00 143.60 C 147.61 144.36 148.72 144.48 149.48 143.86 C 150.24 143.25 150.36 142.13 149.74 141.38 L 149.15 140.65 C 148.53 139.89 147.42 139.77 146.66 140.39 C 145.91 141.01 145.79 142.12 146.40 142.88 Z M 147.52 144.03 L 148.40 144.51 C 149.25 144.98 150.32 144.67 150.78 143.81 C 151.25 142.96 150.94 141.89 150.09 141.43 L 149.21 140.95 C 148.36 140.48 147.29 140.79 146.83 141.65 C 146.36 142.50 146.67 143.56 147.52 144.03 Z M 148.83 144.67 L 149.84 144.91 C 150.77 145.13 151.72 144.56 151.94 143.62 C 152.17 142.68 151.59 141.74 150.65 141.51 L 149.65 141.27 C 148.71 141.04 147.77 141.62 147.54 142.56 C 147.32 143.50 147.89 144.44 148.83 144.67 Z M 150.19 144.95 L 151.15 144.98 C 152.11 145.01 152.91 144.26 152.95 143.30 C 152.98 142.34 152.22 141.53 151.26 141.50 L 150.30 141.47 C 149.34 141.44 148.53 142.19 148.50 143.15 C 148.47 144.11 149.23 144.92 150.19 144.95 Z M 151.47 144.96 L 152.45 144.81 C 153.40 144.67 154.05 143.78 153.91 142.83 C 153.76 141.88 152.88 141.23 151.93 141.37 L 150.94 141.52 C 150.00 141.67 149.34 142.55 149.49 143.50 C 149.63 144.45 150.52 145.10 151.47 144.96 Z M 152.73 144.74 L 153.72 144.41 C 154.62 144.12 155.12 143.14 154.82 142.23 C 154.52 141.32 153.54 140.82 152.63 141.12 L 151.65 141.44 C 150.74 141.74 150.24 142.72 150.54 143.63 C 150.84 144.54 151.82 145.04 152.73 144.74 Z M 153.92 144.33 L 154.73 143.94 C 155.59 143.53 155.95 142.50 155.54 141.63 C 155.13 140.77 154.10 140.41 153.24 140.82 L 152.43 141.21 C 151.57 141.62 151.20 142.65 151.62 143.51 C 152.03 144.38 153.06 144.74 153.92 144.33 Z M 154.86 143.86 L 155.69 143.37 C 156.51 142.88 156.78 141.82 156.29 141.01 C 155.80 140.19 154.75 139.92 153.93 140.41 L 153.10 140.90 C 152.28 141.39 152.02 142.45 152.50 143.26 C 152.99 144.08 154.05 144.35 154.86 143.86 Z M 155.78 143.30 L 156.64 142.71 C 157.42 142.17 157.62 141.10 157.08 140.32 C 156.54 139.54 155.48 139.34 154.70 139.88 L 153.84 140.48 C 153.06 141.01 152.86 142.08 153.40 142.86 C 153.94 143.64 155.00 143.84 155.78 143.30 Z M 156.70 142.66 L 157.58 141.99 C 158.33 141.42 158.48 140.35 157.91 139.60 C 157.34 138.85 156.26 138.70 155.51 139.27 L 154.64 139.93 C 153.88 140.50 153.74 141.58 154.31 142.33 C 154.88 143.08 155.95 143.23 156.70 142.66 Z M 157.61 141.96 L 158.38 141.35 C 159.11 140.76 159.23 139.68 158.64 138.95 C 158.05 138.21 156.98 138.10 156.25 138.69 L 155.48 139.30 C 154.74 139.89 154.62 140.96 155.21 141.70 C 155.80 142.43 156.88 142.55 157.61 141.96 Z M 158.40 141.33 L 159.18 140.68 C 159.91 140.08 160.01 139.00 159.41 138.28 C 158.81 137.56 157.74 137.46 157.01 138.05 L 156.23 138.70 C 155.50 139.30 155.40 140.38 156.00 141.10 C 156.60 141.83 157.68 141.93 158.40 141.33 Z M 159.19 140.66 L 159.98 140.00 C 160.69 139.40 160.78 138.33 160.18 137.61 C 159.57 136.89 158.50 136.80 157.78 137.41 L 157.00 138.07 C 156.28 138.67 156.19 139.74 156.80 140.46 C 157.40 141.18 158.48 141.27 159.19 140.66 Z M 159.98 140.00 L 160.74 139.35 C 161.45 138.74 161.54 137.67 160.93 136.96 C 160.33 136.24 159.26 136.16 158.54 136.76 L 157.78 137.41 C 157.07 138.02 156.98 139.09 157.59 139.80 C 158.19 140.52 159.26 140.61 159.98 140.00 Z M 160.74 139.35 L 161.63 138.60 C 162.35 137.99 162.44 136.92 161.83 136.21 C 161.23 135.49 160.16 135.40 159.44 136.00 L 158.55 136.76 C 157.83 137.37 157.74 138.44 158.34 139.15 C 158.95 139.87 160.02 139.96 160.74 139.35 Z M 161.60 138.64 L 162.60 137.84 C 163.34 137.25 163.46 136.18 162.87 135.44 C 162.28 134.70 161.20 134.58 160.46 135.17 L 159.47 135.97 C 158.73 136.56 158.61 137.63 159.20 138.37 C 159.79 139.11 160.86 139.23 161.60 138.64 Z M 162.44 137.98 L 163.15 137.54 C 163.96 137.04 164.21 135.97 163.71 135.16 C 163.21 134.35 162.14 134.10 161.33 134.60 L 160.62 135.03 C 159.81 135.54 159.56 136.60 160.06 137.41 C 160.56 138.23 161.63 138.48 162.44 137.98 Z M 161.56 137.68 L 161.87 137.81 C 162.76 138.18 163.78 137.76 164.16 136.87 C 164.53 135.99 164.11 134.96 163.22 134.59 L 162.92 134.46 C 162.03 134.09 161.01 134.50 160.63 135.39 C 160.26 136.28 160.68 137.30 161.56 137.68 Z M 160.84 135.77 L 160.63 136.62 C 160.39 137.56 160.96 138.52 161.91 138.76 C 162.85 138.99 163.80 138.42 164.04 137.48 L 164.25 136.63 C 164.49 135.68 163.92 134.73 162.98 134.49 C 162.03 134.26 161.08 134.83 160.84 135.77 Z M 160.72 136.32 L 160.19 137.50 C 159.78 138.39 160.18 139.44 161.07 139.84 C 161.95 140.25 163.00 139.85 163.41 138.97 L 163.94 137.78 C 164.35 136.89 163.95 135.84 163.06 135.44 C 162.18 135.04 161.13 135.43 160.72 136.32 Z M 160.22 137.41 L 159.76 138.29 C 159.30 139.16 159.64 140.23 160.51 140.69 C 161.37 141.15 162.45 140.81 162.90 139.94 L 163.37 139.06 C 163.82 138.19 163.49 137.12 162.62 136.66 C 161.75 136.21 160.68 136.54 160.22 137.41 Z M 159.78 138.25 L 159.30 139.12 C 158.82 139.98 159.13 141.06 159.99 141.54 C 160.84 142.02 161.93 141.71 162.40 140.85 L 162.89 139.98 C 163.36 139.13 163.06 138.04 162.20 137.56 C 161.34 137.09 160.26 137.39 159.78 138.25 Z M 159.29 139.11 L 158.80 139.99 C 158.32 140.85 158.63 141.94 159.49 142.42 C 160.35 142.90 161.43 142.59 161.92 141.73 L 162.41 140.85 C 162.89 139.99 162.58 138.91 161.72 138.43 C 160.86 137.95 159.78 138.25 159.29 139.11 Z M 158.79 140.02 L 158.32 140.88 C 157.85 141.75 158.18 142.84 159.05 143.30 C 159.92 143.77 161.00 143.45 161.47 142.58 L 161.93 141.71 C 162.40 140.84 162.07 139.75 161.21 139.29 C 160.34 138.82 159.25 139.15 158.79 140.02 Z M 158.30 140.91 L 157.84 141.80 C 157.39 142.68 157.74 143.76 158.61 144.21 C 159.49 144.66 160.57 144.32 161.02 143.44 L 161.48 142.55 C 161.94 141.67 161.59 140.59 160.71 140.14 C 159.83 139.69 158.75 140.03 158.30 140.91 Z M 157.83 141.82 L 157.38 142.72 C 156.93 143.61 157.29 144.69 158.18 145.13 C 159.07 145.57 160.14 145.21 160.59 144.33 L 161.04 143.42 C 161.48 142.54 161.12 141.46 160.24 141.02 C 159.35 140.57 158.27 140.93 157.83 141.82 Z M 157.37 142.73 L 156.92 143.64 C 156.49 144.53 156.85 145.61 157.75 146.05 C 158.64 146.48 159.71 146.12 160.15 145.22 L 160.59 144.32 C 161.03 143.42 160.66 142.35 159.77 141.91 C 158.88 141.48 157.81 141.84 157.37 142.73 Z M 156.92 143.65 L 156.48 144.56 C 156.05 145.45 156.42 146.53 157.31 146.96 C 158.21 147.39 159.28 147.02 159.72 146.12 L 160.16 145.22 C 160.59 144.32 160.21 143.25 159.32 142.81 C 158.42 142.38 157.35 142.76 156.92 143.65 Z M 156.47 144.57 L 156.04 145.47 C 155.62 146.37 156.00 147.44 156.90 147.87 C 157.80 148.30 158.87 147.91 159.30 147.01 L 159.72 146.11 C 160.15 145.21 159.77 144.14 158.87 143.71 C 157.97 143.29 156.90 143.67 156.47 144.57 Z M 156.03 145.48 L 155.62 146.38 C 155.20 147.29 155.59 148.36 156.50 148.78 C 157.40 149.19 158.47 148.80 158.89 147.90 L 159.31 147.00 C 159.72 146.10 159.33 145.02 158.43 144.61 C 157.52 144.19 156.45 144.58 156.03 145.48 Z M 155.61 146.40 L 155.22 147.28 C 154.81 148.19 155.21 149.25 156.12 149.66 C 157.03 150.07 158.10 149.66 158.51 148.75 L 158.90 147.88 C 159.31 146.97 158.90 145.90 157.99 145.49 C 157.08 145.09 156.02 145.49 155.61 146.40 Z M 155.20 147.32 L 154.82 148.22 C 154.43 149.14 154.87 150.19 155.78 150.58 C 156.70 150.97 157.76 150.53 158.15 149.62 L 158.53 148.72 C 158.91 147.80 158.48 146.74 157.56 146.35 C 156.64 145.97 155.58 146.40 155.20 147.32 Z M 154.80 148.28 L 154.43 149.23 C 154.08 150.16 154.55 151.21 155.48 151.56 C 156.41 151.91 157.46 151.44 157.81 150.51 L 158.17 149.56 C 158.52 148.62 158.06 147.58 157.12 147.23 C 156.19 146.88 155.15 147.35 154.80 148.28 Z M 154.41 149.31 L 154.07 150.31 C 153.76 151.26 154.28 152.28 155.22 152.59 C 156.17 152.91 157.19 152.39 157.50 151.45 L 157.84 150.44 C 158.15 149.49 157.63 148.47 156.69 148.16 C 155.74 147.84 154.72 148.36 154.41 149.31 Z M 154.04 150.42 L 153.77 151.45 C 153.52 152.41 154.09 153.40 155.06 153.65 C 156.02 153.91 157.01 153.33 157.26 152.37 L 157.54 151.34 C 157.79 150.38 157.21 149.39 156.25 149.13 C 155.28 148.88 154.30 149.46 154.04 150.42 Z M 153.73 151.64 L 153.58 152.65 C 153.43 153.63 154.10 154.55 155.09 154.70 C 156.08 154.86 157.00 154.18 157.15 153.19 L 157.30 152.18 C 157.45 151.20 156.78 150.27 155.79 150.12 C 154.81 149.97 153.88 150.65 153.73 151.64 Z M 153.56 152.98 L 153.59 153.90 C 153.62 154.89 154.45 155.68 155.45 155.64 C 156.45 155.61 157.23 154.78 157.20 153.78 L 157.17 152.86 C 157.14 151.87 156.30 151.08 155.31 151.11 C 154.31 151.15 153.53 151.98 153.56 152.98 Z M 153.72 154.52 L 154.09 155.42 C 154.46 156.34 155.51 156.79 156.43 156.41 C 157.36 156.04 157.80 154.99 157.43 154.07 L 157.06 153.16 C 156.69 152.24 155.64 151.80 154.72 152.17 C 153.80 152.54 153.35 153.59 153.72 154.52 Z M 154.62 156.12 L 155.36 156.73 C 156.12 157.36 157.24 157.26 157.87 156.50 C 158.51 155.74 158.40 154.61 157.64 153.98 L 156.90 153.37 C 156.14 152.74 155.01 152.84 154.38 153.60 C 153.75 154.36 153.86 155.49 154.62 156.12 Z M 156.17 157.10 L 157.14 157.28 C 158.11 157.46 159.03 156.82 159.21 155.86 C 159.39 154.90 158.75 153.97 157.79 153.79 L 156.82 153.61 C 155.86 153.43 154.93 154.07 154.75 155.03 C 154.57 156.00 155.21 156.92 156.17 157.10 Z M 157.88 157.25 L 158.76 157.04 C 159.71 156.82 160.30 155.86 160.07 154.91 C 159.84 153.96 158.89 153.38 157.94 153.61 L 157.06 153.82 C 156.11 154.04 155.52 155.00 155.75 155.95 C 155.98 156.90 156.93 157.48 157.88 157.25 Z M 159.15 156.90 L 160.04 156.45 C 160.91 156.01 161.25 154.95 160.81 154.08 C 160.37 153.21 159.31 152.86 158.44 153.30 L 157.55 153.75 C 156.68 154.19 156.34 155.25 156.78 156.12 C 157.22 156.99 158.28 157.34 159.15 156.90 Z M 160.22 156.34 L 161.09 155.76 C 161.91 155.22 162.12 154.12 161.58 153.31 C 161.04 152.50 159.95 152.28 159.13 152.82 L 158.26 153.41 C 157.45 153.95 157.23 155.05 157.77 155.86 C 158.31 156.67 159.41 156.88 160.22 156.34 Z M 161.17 155.71 L 162.02 155.07 C 162.80 154.49 162.96 153.39 162.38 152.60 C 161.80 151.82 160.70 151.66 159.91 152.24 L 159.06 152.88 C 158.28 153.46 158.12 154.56 158.70 155.34 C 159.28 156.12 160.39 156.29 161.17 155.71 Z M 162.04 155.05 L 162.86 154.42 C 163.63 153.83 163.78 152.73 163.19 151.96 C 162.60 151.18 161.49 151.04 160.72 151.63 L 159.90 152.26 C 159.12 152.85 158.98 153.96 159.57 154.73 C 160.16 155.50 161.27 155.65 162.04 155.05 Z M 162.87 154.41 L 163.65 153.81 C 164.41 153.21 164.55 152.11 163.95 151.34 C 163.36 150.58 162.25 150.44 161.49 151.04 L 160.71 151.64 C 159.94 152.24 159.81 153.34 160.40 154.11 C 161.00 154.87 162.10 155.01 162.87 154.41 Z M 163.65 153.80 L 164.39 153.22 C 165.16 152.62 165.29 151.52 164.69 150.75 C 164.09 149.99 162.99 149.86 162.23 150.46 L 161.48 151.04 C 160.72 151.64 160.59 152.74 161.19 153.50 C 161.78 154.27 162.89 154.40 163.65 153.80 Z M 164.39 153.22 L 165.13 152.64 C 165.89 152.05 166.03 150.95 165.44 150.18 C 164.84 149.42 163.74 149.28 162.98 149.88 L 162.24 150.45 C 161.47 151.05 161.34 152.15 161.93 152.91 C 162.52 153.68 163.63 153.81 164.39 153.22 Z M 165.11 152.65 L 165.89 152.07 C 166.66 151.48 166.81 150.38 166.22 149.61 C 165.64 148.84 164.54 148.69 163.77 149.28 L 162.99 149.86 C 162.22 150.45 162.07 151.55 162.66 152.32 C 163.24 153.09 164.34 153.24 165.11 152.65 Z M 165.86 152.09 L 166.71 151.47 C 167.49 150.90 167.66 149.80 167.09 149.02 C 166.52 148.24 165.43 148.07 164.65 148.64 L 163.80 149.26 C 163.01 149.83 162.84 150.92 163.41 151.70 C 163.98 152.48 165.08 152.66 165.86 152.09 Z M 166.68 151.49 L 167.50 150.92 C 168.29 150.36 168.49 149.27 167.93 148.48 C 167.38 147.69 166.29 147.49 165.50 148.04 L 164.68 148.61 C 163.88 149.17 163.69 150.26 164.24 151.05 C 164.80 151.84 165.89 152.04 166.68 151.49 Z M 167.47 150.93 L 168.30 150.38 C 169.10 149.84 169.32 148.75 168.78 147.95 C 168.24 147.15 167.15 146.93 166.35 147.47 L 165.52 148.03 C 164.72 148.56 164.50 149.65 165.04 150.45 C 165.58 151.26 166.67 151.47 167.47 150.93 Z M 168.27 150.40 L 169.14 149.84 C 169.95 149.32 170.18 148.23 169.66 147.42 C 169.14 146.61 168.05 146.37 167.24 146.90 L 166.38 147.45 C 165.57 147.98 165.33 149.06 165.85 149.87 C 166.38 150.69 167.46 150.92 168.27 150.40 Z M 169.11 149.86 L 169.97 149.32 C 170.80 148.82 171.05 147.74 170.55 146.92 C 170.04 146.09 168.96 145.84 168.14 146.34 L 167.27 146.88 C 166.45 147.39 166.19 148.46 166.70 149.29 C 167.21 150.11 168.28 150.37 169.11 149.86 Z M 169.93 149.35 L 170.84 148.82 C 171.68 148.33 171.96 147.26 171.48 146.43 C 170.99 145.59 169.92 145.31 169.08 145.79 L 168.18 146.32 C 167.34 146.81 167.06 147.88 167.54 148.71 C 168.03 149.55 169.10 149.83 169.93 149.35 Z M 170.79 148.85 L 171.71 148.36 C 172.56 147.90 172.88 146.84 172.43 145.99 C 171.97 145.14 170.91 144.82 170.06 145.27 L 169.14 145.76 C 168.29 146.22 167.96 147.28 168.42 148.13 C 168.87 148.98 169.93 149.31 170.79 148.85 Z M 171.63 148.40 L 172.52 147.98 C 173.39 147.56 173.76 146.52 173.35 145.64 C 172.93 144.77 171.89 144.40 171.02 144.81 L 170.13 145.24 C 169.26 145.65 168.89 146.69 169.30 147.57 C 169.72 148.44 170.76 148.81 171.63 148.40 Z M 172.43 148.02 L 173.29 147.67 C 174.18 147.30 174.62 146.28 174.25 145.39 C 173.89 144.49 172.87 144.06 171.97 144.42 L 171.11 144.77 C 170.21 145.14 169.78 146.16 170.15 147.05 C 170.51 147.95 171.53 148.38 172.43 148.02 Z M 173.17 147.71 L 174.11 147.40 C 175.03 147.10 175.54 146.12 175.24 145.20 C 174.94 144.28 173.95 143.78 173.04 144.07 L 172.09 144.38 C 171.17 144.68 170.67 145.67 170.97 146.58 C 171.26 147.50 172.25 148.01 173.17 147.71 Z M 173.97 147.44 L 174.93 147.22 C 175.87 147.00 176.46 146.06 176.24 145.12 C 176.02 144.18 175.08 143.60 174.14 143.81 L 173.18 144.04 C 172.24 144.25 171.65 145.19 171.87 146.13 C 172.09 147.07 173.03 147.66 173.97 147.44 Z M 174.77 147.25 L 175.76 147.11 C 176.72 146.98 177.39 146.10 177.26 145.15 C 177.13 144.19 176.25 143.52 175.29 143.65 L 174.30 143.78 C 173.34 143.92 172.67 144.80 172.80 145.75 C 172.93 146.71 173.82 147.38 174.77 147.25 Z M 175.60 147.13 L 176.68 147.08 C 177.64 147.04 178.39 146.23 178.35 145.27 C 178.31 144.30 177.50 143.55 176.53 143.59 L 175.46 143.64 C 174.49 143.68 173.75 144.49 173.79 145.45 C 173.82 146.42 174.64 147.17 175.60 147.13 Z M 176.44 147.07 L 177.50 147.17 C 178.46 147.26 179.31 146.56 179.40 145.60 C 179.49 144.65 178.79 143.80 177.83 143.70 L 176.77 143.60 C 175.81 143.51 174.96 144.21 174.87 145.17 C 174.78 146.13 175.48 146.98 176.44 147.07 Z M 177.05 147.07 L 177.92 147.39 C 178.82 147.73 179.82 147.27 180.16 146.37 C 180.49 145.47 180.04 144.47 179.14 144.13 L 178.28 143.81 C 177.38 143.47 176.38 143.93 176.04 144.83 C 175.70 145.73 176.15 146.73 177.05 147.07 Z M 177.19 146.86 L 177.71 147.49 C 178.32 148.22 179.41 148.33 180.14 147.72 C 180.88 147.11 180.98 146.02 180.38 145.29 L 179.86 144.66 C 179.25 143.93 178.16 143.82 177.43 144.43 C 176.69 145.04 176.59 146.13 177.19 146.86 Z M 177.37 146.69 L 177.53 147.60 C 177.70 148.52 178.58 149.14 179.51 148.97 C 180.43 148.81 181.05 147.92 180.88 147.00 L 180.72 146.09 C 180.55 145.16 179.67 144.55 178.74 144.71 C 177.82 144.88 177.20 145.76 177.37 146.69 Z M 177.54 147.21 L 177.48 148.29 C 177.44 149.21 178.15 149.99 179.07 150.04 C 179.99 150.09 180.77 149.38 180.82 148.46 L 180.87 147.38 C 180.92 146.46 180.21 145.67 179.29 145.63 C 178.37 145.58 177.58 146.29 177.54 147.21 Z M 177.52 148.19 L 177.45 148.73 C 177.35 149.64 178.01 150.45 178.91 150.55 C 179.81 150.65 180.63 150.00 180.73 149.10 L 180.79 148.55 C 180.89 147.65 180.24 146.83 179.33 146.73 C 178.43 146.63 177.62 147.29 177.52 148.19 Z"
      fill="black"
      fill-rule="nonzero" /><path d="M 160.99 154.02 L 161.10 155.01 C 161.21 156.00 162.10 156.72 163.09 156.61 C 164.08 156.49 164.79 155.60 164.68 154.61 L 164.57 153.62 C 164.46 152.63 163.57 151.92 162.58 152.03 C 161.59 152.14 160.88 153.03 160.99 154.02 Z M 161.09 155.02 L 161.21 156.01 C 161.32 157.00 162.22 157.72 163.21 157.60 C 164.20 157.49 164.92 156.59 164.80 155.60 L 164.69 154.61 C 164.57 153.61 163.68 152.90 162.68 153.02 C 161.69 153.13 160.98 154.03 161.09 155.02 Z M 161.20 156.03 L 161.32 157.02 C 161.45 158.01 162.35 158.72 163.35 158.60 C 164.34 158.48 165.05 157.57 164.93 156.58 L 164.81 155.58 C 164.68 154.59 163.78 153.88 162.78 154.00 C 161.79 154.13 161.08 155.03 161.20 156.03 Z M 161.32 157.04 L 161.45 158.03 C 161.59 159.03 162.50 159.73 163.50 159.59 C 164.50 159.46 165.20 158.54 165.06 157.55 L 164.93 156.55 C 164.80 155.56 163.88 154.86 162.88 154.99 C 161.89 155.12 161.19 156.04 161.32 157.04 Z M 161.45 158.06 L 161.60 159.05 C 161.74 160.05 162.67 160.74 163.67 160.59 C 164.67 160.44 165.36 159.51 165.22 158.51 L 165.07 157.52 C 164.92 156.52 163.99 155.83 162.99 155.98 C 161.99 156.13 161.30 157.06 161.45 158.06 Z M 161.59 159.08 L 161.76 160.07 C 161.93 161.07 162.87 161.75 163.87 161.58 C 164.87 161.41 165.55 160.47 165.38 159.47 L 165.22 158.48 C 165.05 157.48 164.10 156.80 163.10 156.97 C 162.10 157.13 161.43 158.08 161.59 159.08 Z M 161.76 160.11 L 161.94 161.06 C 162.13 162.06 163.09 162.71 164.09 162.53 C 165.09 162.34 165.74 161.38 165.56 160.38 L 165.38 159.43 C 165.19 158.43 164.23 157.77 163.23 157.96 C 162.23 158.15 161.58 159.11 161.76 160.11 Z M 161.95 161.09 L 162.15 162.05 C 162.35 163.04 163.33 163.68 164.32 163.47 C 165.32 163.27 165.95 162.29 165.75 161.30 L 165.55 160.35 C 165.34 159.35 164.37 158.71 163.38 158.92 C 162.38 159.12 161.74 160.10 161.95 161.09 Z M 162.15 162.08 L 162.37 163.04 C 162.59 164.03 163.58 164.65 164.57 164.43 C 165.56 164.20 166.18 163.22 165.96 162.23 L 165.74 161.27 C 165.52 160.28 164.53 159.65 163.54 159.88 C 162.55 160.10 161.93 161.09 162.15 162.08 Z M 162.37 163.07 L 162.61 164.04 C 162.85 165.02 163.84 165.63 164.83 165.39 C 165.82 165.15 166.43 164.16 166.19 163.17 L 165.95 162.20 C 165.71 161.21 164.72 160.60 163.73 160.84 C 162.74 161.08 162.14 162.08 162.37 163.07 Z M 162.62 164.06 L 162.87 165.05 C 163.12 166.03 164.12 166.63 165.11 166.37 C 166.09 166.12 166.69 165.12 166.43 164.13 L 166.18 163.15 C 165.93 162.16 164.93 161.57 163.94 161.82 C 162.96 162.07 162.36 163.08 162.62 164.06 Z M 162.87 165.07 L 163.14 166.07 C 163.41 167.05 164.42 167.64 165.40 167.37 C 166.38 167.11 166.96 166.10 166.70 165.12 L 166.43 164.11 C 166.17 163.13 165.15 162.55 164.17 162.81 C 163.19 163.08 162.61 164.09 162.87 165.07 Z M 163.15 166.09 L 163.42 167.06 C 163.70 168.04 164.71 168.61 165.69 168.34 C 166.67 168.07 167.24 167.05 166.97 166.07 L 166.70 165.10 C 166.42 164.12 165.41 163.55 164.43 163.82 C 163.45 164.10 162.88 165.11 163.15 166.09 Z M 163.42 167.07 L 163.70 168.04 C 163.98 169.02 165.00 169.58 165.98 169.30 C 166.96 169.02 167.52 168.00 167.24 167.02 L 166.96 166.06 C 166.68 165.08 165.66 164.52 164.69 164.80 C 163.71 165.08 163.14 166.10 163.42 167.07 Z M 163.70 168.05 L 163.99 169.02 C 164.27 169.99 165.29 170.55 166.27 170.27 C 167.24 169.99 167.81 168.96 167.52 167.99 L 167.24 167.02 C 166.95 166.04 165.93 165.48 164.96 165.76 C 163.98 166.05 163.42 167.07 163.70 168.05 Z M 163.99 169.02 L 164.27 169.99 C 164.56 170.97 165.58 171.53 166.56 171.24 C 167.53 170.96 168.09 169.94 167.81 168.96 L 167.52 167.99 C 167.24 167.01 166.21 166.45 165.24 166.74 C 164.26 167.02 163.70 168.04 163.99 169.02 Z M 164.27 169.99 L 164.55 170.96 C 164.84 171.94 165.86 172.50 166.84 172.21 C 167.81 171.93 168.37 170.91 168.09 169.93 L 167.81 168.96 C 167.52 167.99 166.50 167.43 165.52 167.71 C 164.55 167.99 163.99 169.02 164.27 169.99 Z M 164.55 170.95 L 164.83 171.91 C 165.11 172.89 166.13 173.46 167.10 173.17 C 168.08 172.89 168.65 171.87 168.37 170.90 L 168.09 169.94 C 167.81 168.96 166.79 168.40 165.81 168.68 C 164.84 168.96 164.27 169.98 164.55 170.95 Z M 164.82 171.90 L 165.09 172.84 C 165.36 173.82 166.38 174.39 167.35 174.12 C 168.33 173.84 168.91 172.83 168.63 171.85 L 168.37 170.91 C 168.09 169.93 167.08 169.36 166.10 169.63 C 165.12 169.91 164.55 170.92 164.82 171.90 Z M 165.08 172.82 L 165.36 173.85 C 165.62 174.83 166.63 175.41 167.61 175.15 C 168.59 174.88 169.18 173.87 168.91 172.89 L 168.64 171.87 C 168.37 170.88 167.36 170.30 166.38 170.57 C 165.40 170.83 164.82 171.84 165.08 172.82 Z M 165.35 173.83 L 165.61 174.84 C 165.86 175.82 166.87 176.42 167.85 176.17 C 168.84 175.91 169.43 174.91 169.18 173.93 L 168.92 172.91 C 168.67 171.93 167.66 171.33 166.68 171.59 C 165.69 171.84 165.10 172.84 165.35 173.83 Z M 165.60 174.82 L 165.84 175.80 C 166.08 176.79 167.08 177.40 168.07 177.16 C 169.06 176.92 169.66 175.92 169.42 174.93 L 169.18 173.95 C 168.94 172.96 167.95 172.35 166.96 172.59 C 165.97 172.83 165.36 173.83 165.60 174.82 Z M 165.84 175.78 L 166.06 176.74 C 166.29 177.73 167.27 178.35 168.27 178.12 C 169.26 177.89 169.88 176.90 169.65 175.91 L 169.43 174.95 C 169.20 173.96 168.21 173.34 167.22 173.57 C 166.23 173.80 165.61 174.79 165.84 175.78 Z M 166.05 176.72 L 166.26 177.65 C 166.47 178.65 167.45 179.28 168.45 179.06 C 169.44 178.85 170.07 177.87 169.86 176.87 L 169.65 175.94 C 169.44 174.94 168.46 174.31 167.46 174.53 C 166.47 174.74 165.84 175.72 166.05 176.72 Z M 166.25 177.63 L 166.44 178.55 C 166.64 179.55 167.61 180.19 168.61 179.99 C 169.61 179.79 170.25 178.81 170.05 177.82 L 169.86 176.90 C 169.66 175.90 168.69 175.26 167.69 175.46 C 166.69 175.66 166.05 176.63 166.25 177.63 Z M 166.43 178.53 L 166.62 179.49 C 166.81 180.49 167.77 181.14 168.77 180.95 C 169.77 180.76 170.42 179.80 170.23 178.80 L 170.05 177.84 C 169.86 176.84 168.90 176.19 167.90 176.38 C 166.90 176.56 166.25 177.53 166.43 178.53 Z M 166.61 179.46 L 166.78 180.42 C 166.95 181.42 167.91 182.09 168.91 181.92 C 169.91 181.74 170.58 180.79 170.40 179.79 L 170.24 178.83 C 170.06 177.83 169.11 177.16 168.11 177.33 C 167.11 177.51 166.44 178.46 166.61 179.46 Z M 166.78 180.39 L 166.93 181.36 C 167.09 182.36 168.03 183.05 169.03 182.89 C 170.04 182.73 170.72 181.79 170.56 180.79 L 170.41 179.82 C 170.25 178.82 169.31 178.13 168.30 178.29 C 167.30 178.45 166.62 179.39 166.78 180.39 Z M 166.93 181.33 L 167.07 182.32 C 167.21 183.32 168.14 184.02 169.15 183.88 C 170.15 183.73 170.85 182.80 170.71 181.80 L 170.56 180.81 C 170.42 179.81 169.49 179.11 168.49 179.25 C 167.48 179.40 166.78 180.33 166.93 181.33 Z M 167.06 182.29 L 167.19 183.31 C 167.32 184.31 168.24 185.03 169.25 184.90 C 170.26 184.77 170.97 183.85 170.84 182.84 L 170.71 181.83 C 170.58 180.82 169.66 180.11 168.65 180.24 C 167.65 180.37 166.94 181.29 167.06 182.29 Z M 167.19 183.28 L 167.31 184.32 C 167.43 185.32 168.33 186.05 169.34 185.93 C 170.35 185.82 171.07 184.91 170.96 183.90 L 170.84 182.87 C 170.73 181.86 169.82 181.14 168.81 181.25 C 167.80 181.37 167.08 182.28 167.19 183.28 Z M 167.31 184.29 L 167.41 185.31 C 167.52 186.32 168.42 187.05 169.42 186.95 C 170.43 186.85 171.16 185.95 171.06 184.94 L 170.96 183.92 C 170.86 182.92 169.96 182.18 168.95 182.28 C 167.94 182.39 167.21 183.29 167.31 184.29 Z M 167.41 185.29 L 167.51 186.33 C 167.60 187.33 168.49 188.08 169.50 187.98 C 170.51 187.89 171.25 187.00 171.16 185.99 L 171.06 184.96 C 170.97 183.95 170.08 183.21 169.07 183.30 C 168.06 183.39 167.32 184.29 167.41 185.29 Z M 167.51 186.31 L 167.59 187.34 C 167.68 188.35 168.56 189.10 169.57 189.01 C 170.57 188.93 171.32 188.05 171.24 187.04 L 171.16 186.01 C 171.07 185.00 170.19 184.25 169.18 184.34 C 168.18 184.42 167.43 185.30 167.51 186.31 Z M 167.59 187.32 L 167.67 188.33 C 167.74 189.34 168.62 190.09 169.62 190.02 C 170.63 189.95 171.39 189.07 171.31 188.06 L 171.24 187.06 C 171.17 186.05 170.29 185.29 169.28 185.37 C 168.28 185.44 167.52 186.32 167.59 187.32 Z M 167.67 188.31 L 167.73 189.27 C 167.79 190.28 168.66 191.04 169.67 190.98 C 170.67 190.92 171.44 190.05 171.37 189.04 L 171.31 188.08 C 171.25 187.07 170.38 186.31 169.38 186.37 C 168.37 186.44 167.60 187.31 167.67 188.31 Z M 167.73 189.25 L 167.78 190.25 C 167.84 191.25 168.69 192.02 169.70 191.97 C 170.70 191.92 171.48 191.06 171.42 190.06 L 171.37 189.06 C 171.32 188.06 170.46 187.28 169.46 187.34 C 168.45 187.39 167.68 188.25 167.73 189.25 Z M 167.79 190.21 L 167.82 191.35 C 167.86 192.35 168.70 193.14 169.70 193.11 C 170.70 193.07 171.49 192.23 171.46 191.23 L 171.42 190.09 C 171.39 189.09 170.55 188.30 169.54 188.34 C 168.54 188.37 167.75 189.21 167.79 190.21 Z M 167.83 191.28 L 167.83 192.30 C 167.82 193.30 168.63 194.11 169.63 194.11 C 170.63 194.12 171.44 193.31 171.45 192.31 L 171.45 191.30 C 171.45 190.30 170.65 189.48 169.65 189.48 C 168.65 189.48 167.83 190.28 167.83 191.28 Z M 167.84 192.20 L 167.78 193.12 C 167.73 194.11 168.48 194.96 169.48 195.02 C 170.47 195.08 171.32 194.32 171.38 193.33 L 171.44 192.41 C 171.49 191.41 170.73 190.56 169.74 190.50 C 168.75 190.45 167.89 191.20 167.84 192.20 Z M 167.80 192.99 L 167.69 193.85 C 167.56 194.83 168.25 195.73 169.24 195.86 C 170.22 195.99 171.12 195.30 171.25 194.31 L 171.36 193.45 C 171.49 192.47 170.80 191.57 169.82 191.44 C 168.83 191.31 167.93 192.00 167.80 192.99 Z M 167.73 193.66 L 167.49 194.66 C 167.26 195.62 167.85 196.59 168.81 196.82 C 169.77 197.05 170.74 196.46 170.97 195.50 L 171.21 194.50 C 171.44 193.54 170.85 192.57 169.89 192.34 C 168.93 192.11 167.96 192.70 167.73 193.66 Z M 167.60 194.37 L 167.20 195.27 C 166.81 196.17 167.22 197.22 168.12 197.61 C 169.02 198.01 170.07 197.60 170.47 196.70 L 170.86 195.79 C 171.25 194.89 170.84 193.84 169.94 193.45 C 169.04 193.06 167.99 193.47 167.60 194.37 Z M 167.43 194.90 L 166.84 195.67 C 166.24 196.44 166.38 197.55 167.15 198.15 C 167.93 198.75 169.04 198.61 169.64 197.84 L 170.24 197.07 C 170.84 196.30 170.69 195.18 169.92 194.58 C 169.15 193.98 168.03 194.12 167.43 194.90 Z M 167.20 195.33 L 166.43 195.89 C 165.64 196.46 165.47 197.56 166.04 198.35 C 166.61 199.14 167.72 199.31 168.50 198.74 L 169.28 198.18 C 170.06 197.61 170.24 196.50 169.66 195.72 C 169.09 194.93 167.99 194.75 167.20 195.33 Z M 166.82 195.69 L 165.91 196.05 C 165.01 196.41 164.58 197.43 164.93 198.32 C 165.29 199.22 166.31 199.66 167.21 199.30 L 168.12 198.94 C 169.01 198.58 169.45 197.56 169.09 196.66 C 168.74 195.77 167.72 195.33 166.82 195.69 Z M 166.30 195.96 L 165.30 196.11 C 164.35 196.25 163.70 197.14 163.84 198.09 C 163.98 199.03 164.87 199.69 165.82 199.54 L 166.82 199.39 C 167.77 199.25 168.42 198.36 168.28 197.41 C 168.13 196.47 167.25 195.82 166.30 195.96 Z M 165.72 196.11 L 164.69 196.02 C 163.74 195.93 162.90 196.62 162.81 197.57 C 162.72 198.52 163.42 199.35 164.37 199.44 L 165.40 199.54 C 166.34 199.63 167.18 198.93 167.27 197.99 C 167.36 197.04 166.66 196.20 165.72 196.11 Z M 165.10 196.12 L 164.25 195.82 C 163.36 195.50 162.39 195.97 162.07 196.85 C 161.75 197.74 162.22 198.72 163.11 199.03 L 163.95 199.34 C 164.84 199.65 165.82 199.19 166.14 198.30 C 166.45 197.42 165.99 196.44 165.10 196.12 Z M 164.55 195.98 L 163.75 195.50 C 162.95 195.02 161.91 195.28 161.44 196.08 C 160.96 196.89 161.22 197.92 162.02 198.40 L 162.81 198.88 C 163.61 199.36 164.65 199.10 165.13 198.30 C 165.61 197.49 165.35 196.46 164.55 195.98 Z M 163.94 195.65 L 163.17 195.03 C 162.45 194.44 161.39 194.55 160.81 195.27 C 160.23 195.99 160.34 197.04 161.06 197.63 L 161.83 198.25 C 162.55 198.84 163.60 198.73 164.19 198.01 C 164.77 197.29 164.66 196.23 163.94 195.65 Z M 163.28 195.15 L 162.52 194.39 C 161.86 193.75 160.81 193.76 160.17 194.41 C 159.53 195.06 159.53 196.11 160.19 196.75 L 160.95 197.51 C 161.60 198.15 162.65 198.14 163.29 197.49 C 163.94 196.84 163.93 195.79 163.28 195.15 Z M 162.58 194.48 L 161.85 193.67 C 161.25 192.99 160.21 192.93 159.53 193.54 C 158.85 194.14 158.80 195.18 159.40 195.86 L 160.12 196.67 C 160.73 197.34 161.77 197.40 162.45 196.80 C 163.12 196.19 163.18 195.15 162.58 194.48 Z M 161.89 193.72 L 161.28 192.99 C 160.70 192.29 159.67 192.20 158.98 192.78 C 158.28 193.35 158.18 194.39 158.76 195.08 L 159.37 195.81 C 159.95 196.50 160.98 196.60 161.67 196.02 C 162.37 195.44 162.46 194.41 161.89 193.72 Z M 161.31 193.02 L 160.70 192.25 C 160.14 191.54 159.11 191.42 158.40 191.98 C 157.69 192.54 157.57 193.57 158.13 194.28 L 158.74 195.05 C 159.30 195.76 160.33 195.88 161.04 195.32 C 161.75 194.76 161.87 193.73 161.31 193.02 Z M 160.71 192.27 L 160.10 191.47 C 159.56 190.76 158.53 190.62 157.81 191.17 C 157.09 191.72 156.95 192.74 157.50 193.46 L 158.11 194.26 C 158.66 194.98 159.69 195.12 160.41 194.57 C 161.13 194.02 161.26 192.99 160.71 192.27 Z M 160.12 191.49 L 159.50 190.67 C 158.96 189.94 157.94 189.79 157.21 190.33 C 156.49 190.87 156.34 191.90 156.88 192.62 L 157.49 193.45 C 158.03 194.17 159.06 194.32 159.78 193.78 C 160.51 193.24 160.66 192.21 160.12 191.49 Z M 159.51 190.68 L 158.90 189.84 C 158.36 189.11 157.34 188.96 156.61 189.49 C 155.88 190.03 155.72 191.05 156.26 191.78 L 156.87 192.61 C 157.41 193.34 158.43 193.50 159.16 192.97 C 159.89 192.43 160.05 191.41 159.51 190.68 Z M 158.90 189.85 L 158.53 189.34 C 158.00 188.61 156.97 188.45 156.24 188.98 C 155.51 189.52 155.35 190.54 155.89 191.27 L 156.26 191.78 C 156.79 192.51 157.81 192.67 158.54 192.13 C 159.27 191.60 159.43 190.58 158.90 189.85 Z"
      fill="black"
      fill-rule="nonzero" /><path d="M 151.07 167.26 L 150.73 168.15 C 150.39 169.05 150.84 170.06 151.74 170.41 C 152.64 170.75 153.65 170.30 154.00 169.39 L 154.33 168.51 C 154.68 167.61 154.22 166.60 153.32 166.25 C 152.42 165.91 151.41 166.36 151.07 167.26 Z M 150.73 168.14 L 150.38 169.04 C 150.03 169.94 150.48 170.95 151.38 171.30 C 152.28 171.65 153.29 171.21 153.64 170.31 L 153.99 169.41 C 154.34 168.51 153.90 167.50 153.00 167.15 C 152.10 166.80 151.08 167.24 150.73 168.14 Z M 150.39 169.02 L 150.02 169.94 C 149.65 170.84 150.08 171.86 150.98 172.22 C 151.87 172.58 152.89 172.15 153.25 171.26 L 153.63 170.33 C 153.99 169.44 153.56 168.42 152.67 168.06 C 151.78 167.69 150.76 168.12 150.39 169.02 Z M 150.03 169.91 L 149.61 170.87 C 149.23 171.76 149.64 172.79 150.53 173.17 C 151.41 173.55 152.44 173.14 152.82 172.26 L 153.24 171.29 C 153.62 170.40 153.21 169.38 152.33 169.00 C 151.44 168.61 150.41 169.02 150.03 169.91 Z M 149.63 170.84 L 149.21 171.75 C 148.81 172.63 149.20 173.67 150.07 174.07 C 150.95 174.47 151.99 174.08 152.39 173.21 L 152.81 172.29 C 153.21 171.41 152.82 170.38 151.95 169.98 C 151.07 169.57 150.03 169.96 149.63 170.84 Z M 149.22 171.72 L 148.79 172.62 C 148.38 173.49 148.74 174.54 149.62 174.95 C 150.49 175.37 151.53 175.00 151.95 174.13 L 152.38 173.24 C 152.80 172.36 152.43 171.32 151.56 170.90 C 150.69 170.48 149.64 170.85 149.22 171.72 Z M 148.80 172.60 L 148.35 173.51 C 147.92 174.38 148.28 175.43 149.15 175.86 C 150.02 176.29 151.07 175.93 151.50 175.06 L 151.95 174.15 C 152.37 173.28 152.02 172.23 151.15 171.80 C 150.28 171.37 149.23 171.73 148.80 172.60 Z M 148.35 173.50 L 147.89 174.41 C 147.46 175.27 147.81 176.33 148.68 176.77 C 149.54 177.20 150.60 176.85 151.04 175.99 L 151.49 175.07 C 151.93 174.21 151.58 173.15 150.71 172.71 C 149.85 172.28 148.79 172.63 148.35 173.50 Z M 147.89 174.40 L 147.44 175.30 C 147.00 176.16 147.35 177.22 148.21 177.66 C 149.08 178.10 150.14 177.76 150.58 176.89 L 151.04 175.99 C 151.48 175.13 151.13 174.07 150.26 173.63 C 149.39 173.19 148.33 173.53 147.89 174.40 Z M 147.44 175.30 L 146.97 176.22 C 146.53 177.09 146.88 178.15 147.75 178.59 C 148.61 179.03 149.68 178.68 150.12 177.81 L 150.58 176.89 C 151.02 176.02 150.68 174.96 149.81 174.52 C 148.94 174.08 147.88 174.43 147.44 175.30 Z M 146.97 176.22 L 146.50 177.14 C 146.06 178.01 146.41 179.07 147.28 179.51 C 148.15 179.95 149.21 179.60 149.65 178.74 L 150.12 177.81 C 150.56 176.94 150.21 175.88 149.34 175.44 C 148.47 175.00 147.41 175.35 146.97 176.22 Z M 146.50 177.14 L 146.05 178.03 C 145.61 178.90 145.95 179.96 146.82 180.40 C 147.69 180.84 148.75 180.50 149.19 179.63 L 149.65 178.74 C 150.09 177.87 149.74 176.81 148.88 176.37 C 148.01 175.92 146.94 176.27 146.50 177.14 Z M 146.05 178.02 L 145.61 178.89 C 145.16 179.75 145.50 180.82 146.37 181.26 C 147.23 181.71 148.30 181.37 148.74 180.50 L 149.19 179.64 C 149.64 178.77 149.30 177.71 148.43 177.26 C 147.56 176.81 146.50 177.15 146.05 178.02 Z M 145.61 178.87 L 145.17 179.72 C 144.72 180.58 145.05 181.65 145.91 182.10 C 146.77 182.55 147.84 182.22 148.29 181.36 L 148.74 180.52 C 149.19 179.65 148.86 178.59 148.00 178.13 C 147.14 177.68 146.07 178.01 145.61 178.87 Z M 145.18 179.70 L 144.77 180.46 C 144.31 181.32 144.62 182.39 145.48 182.85 C 146.34 183.31 147.41 182.99 147.87 182.14 L 148.28 181.38 C 148.75 180.52 148.43 179.45 147.57 178.99 C 146.71 178.52 145.64 178.84 145.18 179.70 Z M 144.78 180.44 L 144.35 181.22 C 143.88 182.07 144.18 183.14 145.03 183.61 C 145.88 184.09 146.96 183.78 147.43 182.93 L 147.86 182.15 C 148.33 181.30 148.03 180.23 147.18 179.76 C 146.32 179.29 145.25 179.59 144.78 180.44 Z M 144.36 181.20 L 143.89 182.03 C 143.41 182.88 143.70 183.95 144.55 184.43 C 145.39 184.91 146.47 184.62 146.95 183.77 L 147.42 182.95 C 147.90 182.10 147.60 181.03 146.76 180.54 C 145.91 180.06 144.84 180.36 144.36 181.20 Z M 143.90 182.02 L 143.37 182.93 C 142.88 183.77 143.16 184.85 144.00 185.34 C 144.84 185.83 145.92 185.54 146.41 184.70 L 146.94 183.79 C 147.43 182.95 147.14 181.87 146.30 181.38 C 145.46 180.90 144.38 181.18 143.90 182.02 Z M 143.37 182.93 L 142.77 183.96 C 142.27 184.79 142.55 185.87 143.39 186.36 C 144.22 186.85 145.30 186.58 145.79 185.74 L 146.40 184.71 C 146.89 183.87 146.61 182.80 145.78 182.30 C 144.94 181.81 143.87 182.09 143.37 182.93 Z M 142.77 183.95 L 142.27 184.80 C 141.78 185.63 142.05 186.70 142.88 187.20 C 143.72 187.69 144.79 187.42 145.29 186.59 L 145.79 185.74 C 146.28 184.91 146.01 183.84 145.18 183.34 C 144.34 182.85 143.27 183.12 142.77 183.95 Z M 142.28 184.79 L 141.77 185.65 C 141.28 186.47 141.55 187.55 142.38 188.04 C 143.20 188.54 144.28 188.27 144.77 187.44 L 145.28 186.59 C 145.77 185.76 145.50 184.68 144.68 184.19 C 143.85 183.70 142.77 183.97 142.28 184.79 Z M 141.78 185.65 L 141.25 186.53 C 140.75 187.36 141.02 188.43 141.85 188.92 C 142.67 189.42 143.74 189.15 144.24 188.32 L 144.77 187.44 C 145.26 186.61 144.99 185.54 144.17 185.05 C 143.34 184.55 142.27 184.82 141.78 185.65 Z M 141.25 186.53 L 140.71 187.44 C 140.22 188.26 140.48 189.33 141.31 189.82 C 142.13 190.31 143.20 190.04 143.69 189.22 L 144.23 188.32 C 144.72 187.50 144.46 186.43 143.63 185.94 C 142.81 185.45 141.75 185.71 141.25 186.53 Z M 140.72 187.44 L 140.18 188.34 C 139.69 189.16 139.95 190.22 140.77 190.71 C 141.59 191.20 142.65 190.94 143.14 190.12 L 143.68 189.22 C 144.17 188.40 143.91 187.34 143.09 186.85 C 142.27 186.36 141.21 186.62 140.72 187.44 Z M 140.18 188.34 L 139.66 189.21 C 139.17 190.03 139.43 191.09 140.25 191.58 C 141.06 192.07 142.12 191.80 142.61 190.99 L 143.14 190.12 C 143.63 189.30 143.36 188.24 142.55 187.75 C 141.73 187.26 140.67 187.52 140.18 188.34 Z M 139.66 189.22 L 139.17 190.04 C 138.68 190.86 138.94 191.91 139.75 192.40 C 140.57 192.89 141.62 192.63 142.11 191.81 L 142.61 190.98 C 143.10 190.17 142.83 189.12 142.02 188.63 C 141.21 188.14 140.15 188.40 139.66 189.22 Z M 139.17 190.05 L 138.61 190.99 C 138.12 191.80 138.39 192.85 139.20 193.33 C 140.01 193.82 141.06 193.56 141.54 192.75 L 142.10 191.81 C 142.59 191.00 142.33 189.95 141.52 189.46 C 140.71 188.98 139.66 189.24 139.17 190.05 Z M 138.62 191.00 L 138.02 192.00 C 137.54 192.81 137.80 193.85 138.61 194.33 C 139.41 194.81 140.45 194.55 140.93 193.74 L 141.53 192.74 C 142.01 191.93 141.75 190.89 140.95 190.41 C 140.14 189.93 139.10 190.19 138.62 191.00 Z M 138.03 192.01 L 137.51 192.89 C 137.03 193.69 137.30 194.72 138.10 195.20 C 138.90 195.67 139.93 195.41 140.40 194.61 L 140.92 193.73 C 141.40 192.93 141.13 191.90 140.33 191.43 C 139.53 190.95 138.50 191.22 138.03 192.01 Z M 137.52 192.91 L 137.06 193.69 C 136.59 194.49 136.86 195.51 137.65 195.97 C 138.45 196.44 139.47 196.17 139.93 195.38 L 140.39 194.59 C 140.86 193.80 140.59 192.78 139.80 192.31 C 139.00 191.85 137.98 192.11 137.52 192.91 Z M 137.06 193.71 L 136.65 194.43 C 136.19 195.22 136.46 196.23 137.25 196.69 C 138.04 197.15 139.05 196.88 139.51 196.09 L 139.92 195.36 C 140.38 194.57 140.11 193.56 139.32 193.11 C 138.53 192.65 137.52 192.92 137.06 193.71 Z M 136.65 194.45 L 136.19 195.27 C 135.74 196.06 136.02 197.06 136.80 197.51 C 137.59 197.95 138.59 197.68 139.04 196.89 L 139.50 196.07 C 139.95 195.28 139.67 194.28 138.88 193.83 C 138.10 193.39 137.10 193.66 136.65 194.45 Z M 136.18 195.28 L 135.69 196.17 C 135.25 196.96 135.54 197.96 136.33 198.40 C 137.12 198.83 138.11 198.55 138.55 197.76 L 139.04 196.87 C 139.48 196.08 139.20 195.09 138.41 194.65 C 137.62 194.21 136.62 194.49 136.18 195.28 Z M 135.68 196.18 L 135.21 197.05 C 134.78 197.84 135.07 198.84 135.86 199.27 C 136.65 199.70 137.65 199.41 138.08 198.62 L 138.56 197.75 C 138.99 196.96 138.70 195.96 137.91 195.53 C 137.11 195.09 136.12 195.39 135.68 196.18 Z M 135.21 197.05 L 134.74 197.91 C 134.31 198.71 134.60 199.70 135.40 200.13 C 136.19 200.56 137.19 200.27 137.62 199.47 L 138.08 198.61 C 138.51 197.82 138.22 196.83 137.43 196.39 C 136.63 195.96 135.64 196.26 135.21 197.05 Z M 134.74 197.91 L 134.68 198.02 C 134.25 198.81 134.55 199.80 135.34 200.24 C 136.14 200.67 137.13 200.37 137.56 199.58 L 137.62 199.47 C 138.05 198.68 137.75 197.68 136.96 197.25 C 136.16 196.82 135.17 197.12 134.74 197.91 Z"
      fill="black"
      fill-rule="nonzero" /><path d="M 180.90 175.51 L 181.88 175.68 C 182.86 175.86 183.81 175.20 183.98 174.21 C 184.16 173.23 183.50 172.29 182.51 172.11 L 181.53 171.94 C 180.54 171.76 179.60 172.42 179.43 173.41 C 179.25 174.39 179.91 175.33 180.90 175.51 Z M 181.85 175.68 L 182.83 175.87 C 183.82 176.05 184.77 175.41 184.96 174.43 C 185.14 173.44 184.50 172.49 183.51 172.30 L 182.54 172.11 C 181.55 171.93 180.60 172.57 180.41 173.56 C 180.22 174.54 180.87 175.49 181.85 175.68 Z M 182.78 175.86 L 183.76 176.07 C 184.74 176.29 185.70 175.67 185.92 174.69 C 186.13 173.71 185.52 172.74 184.54 172.53 L 183.56 172.31 C 182.58 172.10 181.62 172.72 181.40 173.69 C 181.19 174.67 181.80 175.64 182.78 175.86 Z M 183.68 176.05 L 184.65 176.31 C 185.62 176.56 186.61 175.98 186.87 175.02 C 187.12 174.05 186.54 173.05 185.58 172.80 L 184.61 172.54 C 183.64 172.29 182.65 172.87 182.39 173.84 C 182.14 174.80 182.71 175.80 183.68 176.05 Z M 184.56 176.28 L 185.51 176.59 C 186.46 176.90 187.49 176.37 187.80 175.42 C 188.10 174.47 187.58 173.44 186.63 173.13 L 185.67 172.83 C 184.72 172.52 183.69 173.04 183.39 174.00 C 183.08 174.95 183.60 175.97 184.56 176.28 Z M 185.40 176.55 L 186.32 176.91 C 187.25 177.28 188.30 176.82 188.67 175.89 C 189.04 174.96 188.58 173.91 187.65 173.54 L 186.74 173.18 C 185.81 172.81 184.75 173.26 184.38 174.19 C 184.01 175.12 184.47 176.18 185.40 176.55 Z M 186.21 176.87 L 187.10 177.28 C 188.00 177.71 189.08 177.32 189.51 176.41 C 189.94 175.51 189.55 174.43 188.64 174.00 L 187.76 173.58 C 186.85 173.16 185.77 173.55 185.34 174.45 C 184.92 175.36 185.31 176.44 186.21 176.87 Z M 187.01 177.24 L 187.88 177.71 C 188.77 178.18 189.86 177.85 190.34 176.97 C 190.81 176.09 190.48 174.99 189.60 174.51 L 188.73 174.04 C 187.85 173.57 186.75 173.90 186.27 174.78 C 185.80 175.66 186.13 176.76 187.01 177.24 Z M 187.81 177.67 L 188.68 178.18 C 189.54 178.69 190.65 178.41 191.16 177.55 C 191.67 176.69 191.39 175.58 190.53 175.07 L 189.67 174.55 C 188.81 174.04 187.70 174.32 187.19 175.18 C 186.67 176.04 186.95 177.15 187.81 177.67 Z M 188.62 178.15 L 189.48 178.70 C 190.32 179.24 191.44 179.00 191.98 178.16 C 192.52 177.32 192.28 176.20 191.44 175.66 L 190.59 175.10 C 189.75 174.56 188.63 174.80 188.08 175.64 C 187.54 176.48 187.78 177.60 188.62 178.15 Z M 189.43 178.67 L 190.28 179.25 C 191.10 179.82 192.23 179.61 192.79 178.78 C 193.36 177.96 193.15 176.83 192.33 176.27 L 191.48 175.69 C 190.66 175.12 189.53 175.33 188.97 176.15 C 188.40 176.97 188.61 178.10 189.43 178.67 Z M 190.24 179.23 L 191.11 179.85 C 191.92 180.44 193.05 180.25 193.64 179.44 C 194.22 178.63 194.04 177.50 193.23 176.91 L 192.36 176.29 C 191.55 175.70 190.42 175.89 189.83 176.70 C 189.25 177.51 189.43 178.64 190.24 179.23 Z M 191.08 179.84 L 191.93 180.47 C 192.74 181.07 193.88 180.91 194.48 180.10 C 195.08 179.30 194.91 178.16 194.11 177.56 L 193.26 176.93 C 192.45 176.33 191.31 176.49 190.71 177.30 C 190.11 178.10 190.28 179.24 191.08 179.84 Z M 191.91 180.47 L 192.73 181.09 C 193.54 181.71 194.68 181.55 195.29 180.75 C 195.90 179.95 195.75 178.81 194.95 178.20 L 194.13 177.57 C 193.33 176.96 192.18 177.11 191.57 177.91 C 190.96 178.71 191.11 179.86 191.91 180.47 Z M 192.72 181.09 L 193.50 181.70 C 194.30 182.31 195.45 182.17 196.07 181.37 C 196.69 180.57 196.54 179.42 195.74 178.80 L 194.96 178.20 C 194.16 177.58 193.01 177.73 192.39 178.53 C 191.78 179.32 191.92 180.47 192.72 181.09 Z M 193.50 181.70 L 194.23 182.27 C 195.03 182.89 196.19 182.74 196.81 181.94 C 197.43 181.14 197.28 179.98 196.48 179.36 L 195.75 178.80 C 194.95 178.18 193.79 178.32 193.17 179.13 C 192.55 179.93 192.70 181.08 193.50 181.70 Z M 194.24 182.28 L 195.02 182.87 C 195.83 183.49 196.98 183.33 197.60 182.53 C 198.21 181.72 198.06 180.56 197.25 179.95 L 196.47 179.35 C 195.66 178.74 194.51 178.89 193.89 179.70 C 193.28 180.51 193.43 181.66 194.24 182.28 Z M 195.04 182.89 L 195.87 183.50 C 196.69 184.10 197.84 183.93 198.44 183.11 C 199.05 182.30 198.87 181.15 198.06 180.54 L 197.23 179.93 C 196.41 179.33 195.26 179.50 194.66 180.32 C 194.05 181.14 194.23 182.29 195.04 182.89 Z M 195.91 183.52 L 196.69 184.07 C 197.52 184.66 198.66 184.46 199.25 183.63 C 199.83 182.81 199.63 181.66 198.81 181.08 L 198.02 180.53 C 197.19 179.94 196.05 180.14 195.47 180.97 C 194.88 181.79 195.08 182.94 195.91 183.52 Z M 196.73 184.09 L 197.52 184.63 C 198.36 185.19 199.49 184.97 200.06 184.13 C 200.62 183.29 200.40 182.16 199.56 181.59 L 198.77 181.06 C 197.93 180.49 196.80 180.72 196.23 181.55 C 195.67 182.39 195.89 183.53 196.73 184.09 Z M 197.55 184.64 L 198.35 185.16 C 199.19 185.71 200.32 185.46 200.87 184.62 C 201.42 183.77 201.18 182.64 200.33 182.09 L 199.53 181.58 C 198.69 181.03 197.56 181.27 197.01 182.12 C 196.46 182.96 196.70 184.09 197.55 184.64 Z M 198.37 185.17 L 199.17 185.67 C 200.02 186.21 201.15 185.95 201.68 185.10 C 202.22 184.25 201.96 183.13 201.11 182.59 L 200.31 182.08 C 199.46 181.55 198.33 181.81 197.80 182.66 C 197.26 183.51 197.52 184.63 198.37 185.17 Z M 199.20 185.68 L 200.05 186.20 C 200.91 186.73 202.03 186.45 202.55 185.60 C 203.07 184.74 202.80 183.62 201.94 183.10 L 201.09 182.58 C 200.23 182.06 199.11 182.33 198.59 183.19 C 198.07 184.04 198.34 185.16 199.20 185.68 Z M 200.08 186.22 L 200.98 186.74 C 201.84 187.25 202.95 186.96 203.46 186.09 C 203.96 185.23 203.67 184.12 202.81 183.61 L 201.91 183.09 C 201.05 182.58 199.94 182.87 199.43 183.74 C 198.93 184.60 199.22 185.71 200.08 186.22 Z M 201.01 186.75 L 201.93 187.27 C 202.80 187.76 203.90 187.45 204.39 186.58 C 204.88 185.71 204.57 184.61 203.70 184.12 L 202.78 183.60 C 201.91 183.11 200.81 183.42 200.32 184.29 C 199.83 185.16 200.14 186.26 201.01 186.75 Z M 201.96 187.28 L 202.80 187.73 C 203.67 188.20 204.76 187.87 205.23 186.99 C 205.70 186.12 205.37 185.03 204.50 184.56 L 203.66 184.11 C 202.79 183.64 201.70 183.97 201.23 184.84 C 200.76 185.72 201.09 186.81 201.96 187.28 Z M 202.83 187.73 L 203.68 188.16 C 204.56 188.61 205.63 188.27 206.08 187.39 C 206.53 186.51 206.18 185.44 205.31 184.99 L 204.46 184.55 C 203.58 184.11 202.51 184.45 202.06 185.33 C 201.61 186.20 201.96 187.28 202.83 187.73 Z M 203.71 188.16 L 204.59 188.60 C 205.47 189.03 206.53 188.67 206.96 187.79 C 207.39 186.91 207.03 185.85 206.15 185.42 L 205.28 184.99 C 204.40 184.56 203.34 184.92 202.91 185.80 C 202.48 186.67 202.84 187.73 203.71 188.16 Z M 204.62 188.59 L 205.54 189.03 C 206.42 189.45 207.47 189.07 207.88 188.20 C 208.30 187.32 207.92 186.28 207.05 185.86 L 206.12 185.42 C 205.25 185.01 204.20 185.38 203.79 186.26 C 203.37 187.13 203.75 188.18 204.62 188.59 Z M 205.57 189.03 L 206.55 189.48 C 207.42 189.88 208.45 189.50 208.85 188.62 C 209.26 187.75 208.87 186.72 208.00 186.32 L 207.02 185.87 C 206.15 185.47 205.12 185.85 204.72 186.72 C 204.31 187.59 204.70 188.63 205.57 189.03 Z M 206.57 189.47 L 207.51 189.89 C 208.38 190.28 209.40 189.89 209.79 189.02 C 210.18 188.15 209.79 187.13 208.92 186.74 L 207.98 186.32 C 207.11 185.93 206.09 186.32 205.70 187.19 C 205.31 188.06 205.70 189.08 206.57 189.47 Z M 207.52 189.88 L 208.46 190.30 C 209.33 190.68 210.34 190.29 210.72 189.43 C 211.11 188.57 210.72 187.56 209.85 187.17 L 208.91 186.75 C 208.04 186.37 207.03 186.76 206.65 187.62 C 206.27 188.49 206.66 189.50 207.52 189.88 Z M 208.47 190.29 L 209.42 190.71 C 210.28 191.09 211.28 190.71 211.66 189.85 C 212.05 188.99 211.66 187.99 210.80 187.61 L 209.85 187.18 C 208.99 186.80 207.99 187.19 207.61 188.05 C 207.23 188.90 207.61 189.91 208.47 190.29 Z M 209.42 190.70 L 210.36 191.12 C 211.20 191.50 212.20 191.12 212.59 190.28 C 212.97 189.43 212.59 188.43 211.74 188.05 L 210.81 187.62 C 209.96 187.24 208.96 187.62 208.58 188.47 C 208.19 189.32 208.57 190.31 209.42 190.70 Z M 210.34 191.10 L 211.24 191.52 C 212.08 191.91 213.07 191.54 213.46 190.70 C 213.85 189.87 213.49 188.87 212.65 188.48 L 211.75 188.07 C 210.92 187.68 209.92 188.04 209.53 188.88 C 209.14 189.72 209.51 190.71 210.34 191.10 Z M 211.22 191.49 L 212.05 191.90 C 212.87 192.30 213.87 191.95 214.27 191.13 C 214.67 190.31 214.33 189.31 213.50 188.91 L 212.67 188.51 C 211.85 188.11 210.85 188.45 210.45 189.27 C 210.05 190.10 210.39 191.09 211.22 191.49 Z M 212.00 191.86 L 213.01 192.40 C 213.82 192.82 214.82 192.51 215.24 191.71 C 215.67 190.90 215.36 189.90 214.55 189.48 L 213.55 188.94 C 212.74 188.52 211.74 188.83 211.31 189.63 C 210.89 190.44 211.20 191.44 212.00 191.86 Z M 212.95 192.36 L 213.85 192.88 C 214.64 193.34 215.65 193.08 216.11 192.29 C 216.57 191.51 216.30 190.50 215.52 190.04 L 214.61 189.51 C 213.83 189.06 212.82 189.32 212.36 190.11 C 211.90 190.89 212.17 191.90 212.95 192.36 Z M 213.80 192.85 L 214.59 193.35 C 215.36 193.84 216.38 193.62 216.86 192.85 C 217.35 192.08 217.13 191.07 216.36 190.58 L 215.57 190.08 C 214.80 189.59 213.79 189.81 213.30 190.58 C 212.81 191.35 213.04 192.36 213.80 192.85 Z M 214.56 193.33 L 215.30 193.82 C 216.05 194.33 217.07 194.13 217.57 193.38 C 218.08 192.62 217.88 191.61 217.13 191.10 L 216.39 190.61 C 215.64 190.10 214.62 190.30 214.12 191.05 C 213.61 191.80 213.81 192.82 214.56 193.33 Z M 215.29 193.81 L 215.44 193.91 C 216.18 194.42 217.20 194.23 217.71 193.48 C 218.22 192.74 218.03 191.72 217.28 191.21 L 217.13 191.11 C 216.39 190.60 215.37 190.79 214.86 191.54 C 214.35 192.28 214.54 193.30 215.29 193.81 Z"
      fill="black"
      fill-rule="nonzero" /></svg>