<svg xmlns="http://www.w3.org/2000/svg" width="300" height="300" viewBox="0 0 300 300">
<path d="M 126.95 102.46 L 127.87 102.42 C 128.88 102.38 129.67 101.53 129.63 100.52 C 129.59 99.50 128.74 98.71 127.73 98.75 L 126.80 98.79 C 125.79 98.83 125.00 99.68 125.04 100.70 C 125.08 101.71 125.93 102.50 126.95 102.46 Z M 127.86 102.44 L 128.83 102.40 C 129.85 102.37 130.65 101.51 130.61 100.49 C 130.57 99.47 129.72 98.67 128.70 98.71 L 127.74 98.74 C 126.71 98.78 125.92 99.63 125.95 100.65 C 125.99 101.67 126.84 102.47 127.86 102.44 Z M 128.81 102.42 L 129.85 102.39 C 130.88 102.36 131.69 101.51 131.66 100.48 C 131.63 99.45 130.78 98.64 129.75 98.67 L 128.71 98.70 C 127.68 98.72 126.87 99.58 126.90 100.61 C 126.93 101.63 127.78 102.44 128.81 102.42 Z M 129.83 102.40 L 130.86 102.38 C 131.89 102.36 132.71 101.51 132.69 100.48 C 132.68 99.44 131.82 98.62 130.79 98.64 L 129.77 98.66 C 128.73 98.67 127.91 99.53 127.93 100.56 C 127.95 101.59 128.80 102.42 129.83 102.40 Z M 130.85 102.39 L 131.77 102.37 C 132.81 102.36 133.64 101.51 133.62 100.47 C 133.61 99.44 132.76 98.61 131.72 98.62 L 130.80 98.63 C 129.76 98.65 128.93 99.50 128.95 100.53 C 128.96 101.57 129.81 102.40 130.85 102.39 Z M 131.78 102.38 L 132.76 102.36 C 133.80 102.34 134.63 101.48 134.61 100.45 C 134.59 99.41 133.73 98.58 132.69 98.60 L 131.71 98.62 C 130.67 98.64 129.85 99.50 129.87 100.53 C 129.89 101.57 130.74 102.39 131.78 102.38 Z M 132.79 102.36 L 133.82 102.33 C 134.85 102.29 135.67 101.43 135.64 100.39 C 135.61 99.35 134.74 98.54 133.70 98.57 L 132.67 98.60 C 131.63 98.63 130.82 99.50 130.85 100.54 C 130.88 101.58 131.75 102.39 132.79 102.36 Z M 133.85 102.33 L 134.92 102.27 C 135.96 102.22 136.76 101.34 136.71 100.30 C 136.65 99.26 135.77 98.46 134.73 98.52 L 133.66 98.57 C 132.63 98.62 131.83 99.51 131.88 100.54 C 131.93 101.58 132.82 102.38 133.85 102.33 Z M 134.97 102.27 L 136.02 102.19 C 137.06 102.11 137.84 101.21 137.76 100.17 C 137.68 99.14 136.77 98.36 135.74 98.44 L 134.69 98.52 C 133.65 98.60 132.87 99.50 132.95 100.54 C 133.03 101.57 133.93 102.35 134.97 102.27 Z M 136.07 102.19 L 137.10 102.08 C 138.13 101.98 138.88 101.06 138.78 100.02 C 138.68 98.99 137.75 98.23 136.72 98.34 L 135.69 98.44 C 134.66 98.55 133.90 99.47 134.01 100.50 C 134.11 101.54 135.03 102.29 136.07 102.19 Z M 137.13 102.08 L 138.15 101.96 C 139.18 101.83 139.92 100.90 139.80 99.86 C 139.67 98.83 138.74 98.10 137.71 98.22 L 136.68 98.34 C 135.65 98.47 134.92 99.40 135.04 100.43 C 135.16 101.47 136.10 102.20 137.13 102.08 Z M 138.18 101.95 L 139.18 101.82 C 140.21 101.68 140.93 100.73 140.79 99.70 C 140.65 98.67 139.70 97.95 138.68 98.09 L 137.68 98.23 C 136.65 98.37 135.93 99.31 136.07 100.34 C 136.21 101.37 137.15 102.09 138.18 101.95 Z M 139.20 101.81 L 140.16 101.67 C 141.18 101.52 141.89 100.57 141.74 99.54 C 141.59 98.51 140.64 97.80 139.61 97.95 L 138.65 98.10 C 137.63 98.25 136.92 99.20 137.07 100.23 C 137.22 101.25 138.17 101.96 139.20 101.81 Z M 140.17 101.67 L 141.15 101.51 C 142.18 101.35 142.88 100.39 142.72 99.37 C 142.56 98.35 141.60 97.65 140.57 97.81 L 139.60 97.96 C 138.57 98.12 137.87 99.08 138.03 100.10 C 138.19 101.13 139.15 101.83 140.17 101.67 Z M 141.17 101.50 L 142.22 101.33 C 143.24 101.16 143.93 100.20 143.76 99.18 C 143.59 98.17 142.63 97.48 141.61 97.64 L 140.56 97.82 C 139.54 97.98 138.85 98.94 139.02 99.96 C 139.19 100.98 140.15 101.67 141.17 101.50 Z M 142.23 101.32 L 143.21 101.15 C 144.22 100.97 144.90 100.01 144.72 99.00 C 144.55 97.99 143.58 97.31 142.57 97.49 L 141.60 97.66 C 140.58 97.83 139.91 98.79 140.08 99.81 C 140.26 100.82 141.22 101.49 142.23 101.32 Z M 143.22 101.14 L 144.16 100.97 C 145.16 100.78 145.83 99.82 145.65 98.81 C 145.46 97.81 144.50 97.14 143.49 97.33 L 142.56 97.50 C 141.55 97.68 140.89 98.65 141.07 99.65 C 141.26 100.65 142.22 101.32 143.22 101.14 Z M 144.17 100.95 L 145.10 100.78 C 146.10 100.59 146.75 99.62 146.56 98.62 C 146.37 97.63 145.41 96.97 144.41 97.16 L 143.48 97.34 C 142.48 97.53 141.83 98.49 142.02 99.49 C 142.21 100.49 143.17 101.14 144.17 100.95 Z M 145.11 100.76 L 146.07 100.58 C 147.06 100.38 147.71 99.42 147.51 98.42 C 147.31 97.43 146.35 96.79 145.36 96.98 L 144.40 97.17 C 143.41 97.37 142.76 98.33 142.96 99.32 C 143.15 100.32 144.12 100.96 145.11 100.76 Z M 146.08 100.57 L 147.05 100.37 C 148.04 100.17 148.67 99.20 148.47 98.22 C 148.27 97.23 147.31 96.59 146.32 96.79 L 145.35 96.99 C 144.36 97.19 143.73 98.16 143.93 99.14 C 144.13 100.13 145.09 100.77 146.08 100.57 Z M 147.06 100.36 L 148.05 100.15 C 149.03 99.95 149.66 98.98 149.45 98.00 C 149.25 97.02 148.29 96.39 147.31 96.60 L 146.32 96.80 C 145.33 97.01 144.70 97.97 144.91 98.95 C 145.11 99.93 146.08 100.56 147.06 100.36 Z M 148.05 100.14 L 149.04 99.93 C 150.02 99.72 150.64 98.76 150.44 97.79 C 150.23 96.81 149.27 96.19 148.29 96.40 L 147.30 96.61 C 146.33 96.81 145.70 97.77 145.91 98.75 C 146.12 99.73 147.08 100.35 148.05 100.14 Z M 149.05 99.92 L 150.00 99.72 C 150.97 99.51 151.59 98.55 151.38 97.58 C 151.17 96.61 150.21 95.99 149.24 96.20 L 148.29 96.41 C 147.32 96.61 146.70 97.57 146.91 98.54 C 147.12 99.51 148.08 100.13 149.05 99.92 Z M 150.00 99.71 L 150.97 99.50 C 151.94 99.28 152.55 98.33 152.34 97.36 C 152.13 96.40 151.17 95.79 150.21 96.00 L 149.24 96.21 C 148.27 96.42 147.66 97.37 147.87 98.34 C 148.08 99.31 149.04 99.92 150.00 99.71 Z M 150.98 99.49 L 151.96 99.27 C 152.92 99.05 153.53 98.10 153.32 97.14 C 153.10 96.18 152.15 95.58 151.19 95.79 L 150.20 96.01 C 149.24 96.22 148.64 97.17 148.85 98.13 C 149.06 99.09 150.02 99.70 150.98 99.49 Z M 151.97 99.26 L 152.97 99.03 C 153.93 98.82 154.53 97.87 154.31 96.91 C 154.10 95.96 153.15 95.36 152.19 95.57 L 151.19 95.80 C 150.23 96.01 149.63 96.96 149.85 97.92 C 150.06 98.87 151.01 99.47 151.97 99.26 Z M 152.98 99.02 L 153.94 98.80 C 154.89 98.58 155.48 97.64 155.27 96.69 C 155.05 95.74 154.10 95.14 153.15 95.36 L 152.19 95.58 C 151.24 95.80 150.64 96.74 150.86 97.69 C 151.08 98.64 152.03 99.24 152.98 99.02 Z M 153.94 98.79 L 154.91 98.57 C 155.86 98.35 156.45 97.41 156.23 96.46 C 156.01 95.52 155.07 94.93 154.12 95.15 L 153.15 95.37 C 152.21 95.59 151.62 96.53 151.83 97.47 C 152.05 98.42 153.00 99.01 153.94 98.79 Z M 154.91 98.56 L 155.89 98.34 C 156.83 98.12 157.42 97.18 157.20 96.24 C 156.98 95.30 156.05 94.71 155.11 94.93 L 154.13 95.15 C 153.19 95.37 152.60 96.31 152.81 97.25 C 153.03 98.19 153.97 98.78 154.91 98.56 Z M 155.88 98.33 L 156.86 98.11 C 157.80 97.90 158.39 96.96 158.18 96.03 C 157.96 95.09 157.03 94.50 156.09 94.71 L 155.11 94.94 C 154.17 95.15 153.59 96.08 153.80 97.02 C 154.01 97.96 154.94 98.54 155.88 98.33 Z M 156.85 98.10 L 157.84 97.88 C 158.77 97.68 159.36 96.75 159.15 95.82 C 158.95 94.88 158.02 94.29 157.09 94.50 L 156.10 94.72 C 155.17 94.93 154.58 95.85 154.79 96.79 C 154.99 97.72 155.92 98.31 156.85 98.10 Z M 157.83 97.88 L 158.81 97.67 C 159.74 97.46 160.33 96.55 160.13 95.62 C 159.93 94.69 159.01 94.09 158.08 94.30 L 157.10 94.51 C 156.17 94.71 155.58 95.63 155.78 96.56 C 155.98 97.49 156.90 98.08 157.83 97.88 Z M 158.80 97.66 L 159.78 97.45 C 160.71 97.25 161.30 96.34 161.10 95.41 C 160.90 94.48 159.99 93.89 159.06 94.09 L 158.08 94.30 C 157.16 94.50 156.57 95.41 156.77 96.34 C 156.97 97.27 157.88 97.86 158.80 97.66 Z M 159.78 97.44 L 160.76 97.23 C 161.68 97.03 162.27 96.12 162.07 95.20 C 161.87 94.28 160.96 93.69 160.04 93.89 L 159.06 94.10 C 158.14 94.30 157.56 95.21 157.75 96.13 C 157.95 97.05 158.86 97.64 159.78 97.44 Z M 160.76 97.22 L 161.74 97.01 C 162.65 96.81 163.23 95.90 163.03 94.98 C 162.83 94.07 161.92 93.49 161.01 93.69 L 160.04 93.90 C 159.12 94.10 158.54 95.01 158.74 95.92 C 158.94 96.84 159.85 97.42 160.76 97.22 Z M 161.74 97.00 L 162.65 96.79 C 163.56 96.59 164.13 95.68 163.93 94.77 C 163.72 93.86 162.82 93.29 161.91 93.49 L 161.00 93.70 C 160.09 93.90 159.52 94.81 159.72 95.72 C 159.93 96.63 160.83 97.20 161.74 97.00 Z M 162.66 96.78 L 163.56 96.58 C 164.46 96.37 165.03 95.46 164.82 94.56 C 164.61 93.65 163.70 93.09 162.80 93.29 L 161.90 93.50 C 160.99 93.71 160.43 94.62 160.64 95.52 C 160.85 96.43 161.75 96.99 162.66 96.78 Z M 163.56 96.57 L 164.50 96.35 C 165.40 96.14 165.96 95.24 165.75 94.34 C 165.54 93.43 164.64 92.87 163.73 93.08 L 162.80 93.30 C 161.89 93.51 161.33 94.41 161.54 95.32 C 161.75 96.22 162.66 96.78 163.56 96.57 Z M 164.49 96.34 L 165.49 96.11 C 166.39 95.90 166.95 95.00 166.74 94.10 C 166.53 93.21 165.63 92.65 164.74 92.86 L 163.74 93.09 C 162.84 93.30 162.28 94.20 162.49 95.10 C 162.70 95.99 163.60 96.55 164.49 96.34 Z M 165.49 96.11 L 166.57 95.86 C 167.47 95.65 168.03 94.76 167.82 93.86 C 167.62 92.96 166.72 92.41 165.83 92.61 L 164.74 92.86 C 163.84 93.07 163.29 93.96 163.49 94.86 C 163.70 95.75 164.59 96.31 165.49 96.11 Z M 166.57 95.85 L 167.56 95.63 C 168.45 95.42 169.01 94.54 168.81 93.64 C 168.61 92.75 167.72 92.19 166.83 92.39 L 165.83 92.62 C 164.94 92.82 164.38 93.71 164.58 94.60 C 164.78 95.49 165.67 96.06 166.57 95.85 Z M 167.55 95.63 L 168.54 95.40 C 169.43 95.21 170.00 94.32 169.80 93.43 C 169.60 92.53 168.71 91.97 167.82 92.17 L 166.83 92.39 C 165.94 92.59 165.38 93.48 165.58 94.37 C 165.78 95.26 166.66 95.83 167.55 95.63 Z M 168.54 95.40 L 169.55 95.18 C 170.44 94.98 171.01 94.10 170.81 93.21 C 170.61 92.31 169.73 91.75 168.84 91.95 L 167.82 92.17 C 166.93 92.37 166.37 93.25 166.56 94.15 C 166.76 95.04 167.65 95.60 168.54 95.40 Z M 169.55 95.18 L 170.57 94.95 C 171.46 94.76 172.02 93.88 171.82 92.98 C 171.63 92.09 170.75 91.53 169.86 91.73 L 168.84 91.95 C 167.95 92.15 167.39 93.03 167.58 93.92 C 167.78 94.81 168.66 95.37 169.55 95.18 Z M 170.56 94.95 L 171.56 94.73 C 172.45 94.54 173.01 93.66 172.82 92.77 C 172.62 91.88 171.74 91.32 170.85 91.51 L 169.86 91.73 C 168.97 91.92 168.41 92.80 168.60 93.69 C 168.80 94.58 169.67 95.14 170.56 94.95 Z M 171.56 94.73 L 172.50 94.52 C 173.39 94.33 173.95 93.45 173.76 92.57 C 173.57 91.68 172.69 91.11 171.80 91.31 L 170.86 91.51 C 169.97 91.71 169.40 92.58 169.60 93.47 C 169.79 94.36 170.67 94.92 171.56 94.73 Z M 172.50 94.52 L 173.52 94.30 C 174.41 94.11 174.97 93.23 174.78 92.35 C 174.58 91.46 173.71 90.90 172.82 91.09 L 171.80 91.31 C 170.92 91.50 170.35 92.38 170.55 93.26 C 170.74 94.15 171.61 94.71 172.50 94.52 Z M 173.52 94.30 L 174.62 94.06 C 175.51 93.87 176.07 93.00 175.88 92.11 C 175.69 91.22 174.81 90.66 173.93 90.85 L 172.82 91.09 C 171.94 91.28 171.37 92.16 171.57 93.04 C 171.76 93.93 172.63 94.49 173.52 94.30 Z M 174.62 94.06 L 175.59 93.85 C 176.48 93.66 177.04 92.79 176.85 91.90 C 176.66 91.02 175.79 90.45 174.90 90.64 L 173.93 90.85 C 173.04 91.04 172.48 91.92 172.67 92.80 C 172.86 93.69 173.73 94.25 174.62 94.06 Z M 175.59 93.85 L 176.48 93.66 C 177.37 93.47 177.93 92.60 177.74 91.71 C 177.55 90.83 176.68 90.26 175.80 90.45 L 174.90 90.64 C 174.02 90.83 173.46 91.71 173.65 92.59 C 173.84 93.48 174.71 94.04 175.59 93.85 Z M 176.48 93.66 L 177.33 93.47 C 178.22 93.28 178.78 92.41 178.59 91.53 C 178.40 90.65 177.53 90.08 176.65 90.27 L 175.80 90.45 C 174.91 90.64 174.35 91.51 174.54 92.40 C 174.73 93.28 175.60 93.85 176.48 93.66 Z"
      fill="black"
      fill-rule="nonzero" /><path d="M 143.01 95.87 L 143.09 96.75 C 143.17 97.73 144.03 98.45 145.01 98.37 C 145.99 98.28 146.71 97.42 146.62 96.44 L 146.55 95.56 C 146.46 94.58 145.60 93.86 144.62 93.95 C 143.64 94.03 142.92 94.90 143.01 95.87 Z M 143.09 96.77 L 143.18 97.71 C 143.27 98.68 144.14 99.40 145.11 99.30 C 146.09 99.21 146.81 98.34 146.71 97.37 L 146.62 96.43 C 146.53 95.45 145.66 94.74 144.69 94.83 C 143.71 94.92 142.99 95.79 143.09 96.77 Z M 143.18 97.73 L 143.29 98.79 C 143.40 99.76 144.27 100.47 145.25 100.37 C 146.22 100.26 146.93 99.38 146.82 98.41 L 146.71 97.35 C 146.61 96.37 145.73 95.67 144.75 95.77 C 143.78 95.88 143.07 96.75 143.18 97.73 Z M 143.30 98.81 L 143.43 99.87 C 143.54 100.85 144.43 101.54 145.40 101.42 C 146.37 101.31 147.06 100.42 146.95 99.45 L 146.82 98.39 C 146.70 97.42 145.82 96.72 144.85 96.84 C 143.87 96.96 143.18 97.84 143.30 98.81 Z M 143.43 99.89 L 143.56 100.88 C 143.69 101.84 144.57 102.53 145.54 102.40 C 146.51 102.27 147.19 101.39 147.07 100.42 L 146.94 99.43 C 146.81 98.47 145.93 97.78 144.96 97.91 C 143.99 98.04 143.31 98.92 143.43 99.89 Z M 143.57 100.89 L 143.71 101.92 C 143.85 102.88 144.73 103.55 145.70 103.42 C 146.66 103.29 147.33 102.40 147.20 101.44 L 147.06 100.41 C 146.92 99.45 146.04 98.77 145.07 98.91 C 144.11 99.04 143.44 99.93 143.57 100.89 Z M 143.72 101.93 L 143.87 102.96 C 144.01 103.91 144.90 104.57 145.86 104.43 C 146.82 104.29 147.48 103.41 147.34 102.45 L 147.19 101.42 C 147.05 100.47 146.16 99.81 145.20 99.95 C 144.25 100.08 143.59 100.97 143.72 101.93 Z M 143.89 102.97 L 144.04 103.95 C 144.19 104.90 145.08 105.55 146.03 105.40 C 146.98 105.25 147.63 104.36 147.48 103.41 L 147.33 102.44 C 147.18 101.48 146.29 100.83 145.34 100.98 C 144.39 101.13 143.74 102.02 143.89 102.97 Z M 144.06 103.97 L 144.24 105.04 C 144.40 105.98 145.29 106.62 146.23 106.46 C 147.17 106.30 147.80 105.41 147.64 104.47 L 147.46 103.39 C 147.30 102.45 146.41 101.82 145.47 101.98 C 144.53 102.14 143.90 103.03 144.06 103.97 Z M 144.27 105.07 L 144.46 106.10 C 144.64 107.03 145.53 107.64 146.45 107.46 C 147.38 107.29 147.98 106.40 147.81 105.47 L 147.61 104.44 C 147.44 103.51 146.55 102.91 145.63 103.08 C 144.70 103.26 144.09 104.15 144.27 105.07 Z M 144.49 106.13 L 144.68 107.05 C 144.87 107.95 145.76 108.54 146.66 108.35 C 147.57 108.17 148.15 107.28 147.97 106.37 L 147.78 105.45 C 147.59 104.54 146.71 103.96 145.80 104.15 C 144.89 104.33 144.31 105.22 144.49 106.13 Z M 144.71 107.06 L 144.89 107.87 C 145.08 108.76 145.96 109.33 146.85 109.14 C 147.74 108.95 148.31 108.07 148.11 107.18 L 147.94 106.36 C 147.75 105.47 146.87 104.90 145.98 105.10 C 145.09 105.29 144.52 106.17 144.71 107.06 Z"
      fill="black"
      fill-rule="nonzero" /><path d="M 155.97 85.21 L 155.88 86.19 C 155.79 87.19 156.53 88.07 157.53 88.16 C 158.53 88.25 159.41 87.51 159.49 86.51 L 159.58 85.53 C 159.67 84.53 158.93 83.65 157.93 83.56 C 156.94 83.47 156.06 84.21 155.97 85.21 Z M 155.87 86.18 L 155.77 87.17 C 155.67 88.17 156.41 89.07 157.42 89.16 C 158.42 89.26 159.32 88.52 159.41 87.52 L 159.51 86.53 C 159.60 85.52 158.87 84.63 157.86 84.53 C 156.86 84.43 155.96 85.17 155.87 86.18 Z M 155.76 87.14 L 155.65 88.15 C 155.53 89.16 156.26 90.07 157.27 90.18 C 158.28 90.30 159.20 89.57 159.31 88.56 L 159.42 87.55 C 159.54 86.54 158.81 85.62 157.80 85.51 C 156.79 85.40 155.87 86.13 155.76 87.14 Z M 155.64 88.11 L 155.54 88.90 C 155.41 89.92 156.12 90.84 157.14 90.98 C 158.15 91.11 159.08 90.39 159.21 89.38 L 159.31 88.59 C 159.45 87.58 158.73 86.65 157.72 86.52 C 156.70 86.38 155.77 87.10 155.64 88.11 Z M 155.54 88.89 L 155.43 89.73 C 155.29 90.74 156.00 91.67 157.01 91.81 C 158.03 91.95 158.96 91.24 159.10 90.22 L 159.21 89.39 C 159.35 88.38 158.64 87.45 157.62 87.31 C 156.61 87.17 155.68 87.88 155.54 88.89 Z M 155.43 89.74 L 155.30 90.72 C 155.17 91.73 155.89 92.66 156.90 92.79 C 157.91 92.92 158.83 92.21 158.97 91.20 L 159.09 90.21 C 159.22 89.20 158.51 88.28 157.50 88.15 C 156.49 88.01 155.56 88.73 155.43 89.74 Z M 155.31 90.75 L 155.16 91.95 C 155.04 92.96 155.77 93.88 156.78 94.00 C 157.79 94.11 158.70 93.39 158.82 92.38 L 158.97 91.18 C 159.08 90.17 158.36 89.25 157.35 89.13 C 156.34 89.01 155.42 89.73 155.31 90.75 Z M 155.16 91.97 L 155.05 93.02 C 154.95 94.03 155.68 94.94 156.69 95.05 C 157.70 95.15 158.60 94.42 158.71 93.41 L 158.82 92.36 C 158.93 91.35 158.20 90.45 157.19 90.34 C 156.18 90.23 155.27 90.96 155.16 91.97 Z M 155.06 93.04 L 154.97 93.93 C 154.87 94.94 155.60 95.84 156.61 95.94 C 157.62 96.04 158.51 95.30 158.62 94.30 L 158.70 93.40 C 158.80 92.39 158.07 91.49 157.06 91.39 C 156.06 91.29 155.16 92.03 155.06 93.04 Z M 154.97 93.94 L 154.88 94.91 C 154.79 95.91 155.52 96.80 156.53 96.90 C 157.53 96.99 158.42 96.26 158.52 95.25 L 158.61 94.29 C 158.70 93.28 157.97 92.39 156.96 92.30 C 155.96 92.20 155.07 92.94 154.97 93.94 Z M 154.89 94.91 L 154.79 95.93 C 154.70 96.93 155.44 97.81 156.44 97.91 C 157.44 98.00 158.33 97.26 158.42 96.26 L 158.51 95.25 C 158.60 94.25 157.87 93.36 156.87 93.27 C 155.87 93.18 154.98 93.91 154.89 94.91 Z M 154.80 95.93 L 154.71 96.98 C 154.62 97.98 155.35 98.86 156.35 98.95 C 157.35 99.04 158.23 98.30 158.32 97.30 L 158.41 96.26 C 158.50 95.26 157.76 94.38 156.77 94.29 C 155.77 94.20 154.89 94.94 154.80 95.93 Z M 154.71 96.98 L 154.62 98.04 C 154.53 99.04 155.27 99.91 156.26 100.00 C 157.25 100.09 158.13 99.35 158.22 98.36 L 158.31 97.30 C 158.40 96.31 157.66 95.43 156.67 95.34 C 155.68 95.25 154.80 95.99 154.71 96.98 Z M 154.63 98.05 L 154.54 99.10 C 154.45 100.09 155.18 100.96 156.17 101.05 C 157.16 101.13 158.04 100.40 158.12 99.41 L 158.21 98.35 C 158.30 97.37 157.56 96.49 156.57 96.41 C 155.58 96.32 154.71 97.06 154.63 98.05 Z M 154.54 99.10 L 154.45 100.13 C 154.37 101.12 155.10 101.99 156.09 102.07 C 157.07 102.16 157.94 101.42 158.03 100.44 L 158.11 99.41 C 158.20 98.42 157.47 97.55 156.48 97.47 C 155.49 97.38 154.63 98.12 154.54 99.10 Z M 154.47 100.14 L 154.37 101.28 C 154.29 102.26 155.01 103.12 155.99 103.20 C 156.97 103.28 157.84 102.56 157.92 101.58 L 158.01 100.44 C 158.10 99.46 157.37 98.59 156.39 98.51 C 155.41 98.43 154.55 99.16 154.47 100.14 Z M 154.39 101.28 L 154.29 102.39 C 154.21 103.36 154.93 104.21 155.90 104.29 C 156.87 104.37 157.72 103.65 157.81 102.68 L 157.90 101.58 C 157.98 100.61 157.26 99.75 156.29 99.67 C 155.32 99.59 154.47 100.31 154.39 101.28 Z M 154.31 102.39 L 154.22 103.44 C 154.14 104.40 154.85 105.24 155.81 105.32 C 156.77 105.41 157.62 104.69 157.70 103.73 L 157.79 102.68 C 157.87 101.72 157.16 100.88 156.20 100.80 C 155.24 100.72 154.39 101.43 154.31 102.39 Z M 154.24 103.44 L 154.16 104.43 C 154.08 105.38 154.78 106.21 155.73 106.30 C 156.68 106.38 157.51 105.68 157.59 104.73 L 157.68 103.74 C 157.76 102.79 157.06 101.95 156.11 101.87 C 155.16 101.79 154.32 102.49 154.24 103.44 Z M 154.18 104.43 L 154.09 105.36 C 154.01 106.30 154.70 107.13 155.64 107.21 C 156.58 107.29 157.41 106.60 157.49 105.66 L 157.57 104.73 C 157.66 103.79 156.97 102.96 156.03 102.88 C 155.09 102.80 154.26 103.49 154.18 104.43 Z M 154.11 105.36 L 154.03 106.23 C 153.95 107.16 154.63 107.98 155.55 108.07 C 156.48 108.15 157.30 107.47 157.39 106.54 L 157.47 105.67 C 157.56 104.74 156.88 103.92 155.95 103.83 C 155.02 103.75 154.20 104.43 154.11 105.36 Z M 154.05 106.22 L 153.96 107.14 C 153.87 108.05 154.54 108.87 155.46 108.96 C 156.37 109.05 157.19 108.38 157.28 107.47 L 157.37 106.55 C 157.46 105.63 156.79 104.82 155.88 104.73 C 154.96 104.64 154.14 105.31 154.05 106.22 Z M 153.97 107.12 L 153.85 108.20 C 153.75 109.11 154.41 109.93 155.32 110.03 C 156.23 110.13 157.05 109.47 157.15 108.56 L 157.27 107.48 C 157.37 106.57 156.71 105.75 155.80 105.65 C 154.89 105.55 154.07 106.21 153.97 107.12 Z M 153.86 108.17 L 153.74 109.17 C 153.62 110.08 154.26 110.91 155.17 111.02 C 156.07 111.14 156.90 110.49 157.02 109.59 L 157.14 108.59 C 157.26 107.68 156.62 106.86 155.71 106.74 C 154.80 106.63 153.98 107.27 153.86 108.17 Z M 153.75 109.13 L 153.60 110.08 C 153.47 110.98 154.09 111.82 154.99 111.95 C 155.89 112.09 156.73 111.47 156.86 110.57 L 157.00 109.63 C 157.14 108.73 156.52 107.89 155.62 107.75 C 154.72 107.62 153.88 108.24 153.75 109.13 Z M 153.62 110.03 L 153.45 110.95 C 153.29 111.84 153.88 112.70 154.78 112.86 C 155.67 113.02 156.52 112.43 156.68 111.53 L 156.85 110.62 C 157.01 109.72 156.42 108.87 155.52 108.71 C 154.63 108.55 153.78 109.14 153.62 110.03 Z M 153.47 110.90 L 153.26 111.85 C 153.08 112.73 153.64 113.60 154.53 113.79 C 155.41 113.98 156.28 113.41 156.47 112.53 L 156.67 111.58 C 156.86 110.70 156.29 109.83 155.41 109.64 C 154.52 109.45 153.65 110.02 153.47 110.90 Z M 153.28 111.80 L 153.04 112.77 C 152.83 113.65 153.37 114.53 154.25 114.74 C 155.13 114.96 156.01 114.42 156.23 113.54 L 156.46 112.57 C 156.67 111.69 156.13 110.81 155.25 110.60 C 154.37 110.38 153.49 110.92 153.28 111.80 Z M 153.05 112.74 L 152.80 113.71 C 152.57 114.58 153.09 115.48 153.96 115.71 C 154.84 115.94 155.73 115.41 155.96 114.54 L 156.22 113.57 C 156.45 112.69 155.92 111.80 155.05 111.57 C 154.17 111.34 153.28 111.86 153.05 112.74 Z M 152.80 113.69 L 152.53 114.66 C 152.29 115.53 152.80 116.43 153.68 116.67 C 154.55 116.91 155.45 116.40 155.69 115.53 L 155.96 114.56 C 156.20 113.69 155.69 112.78 154.81 112.54 C 153.94 112.30 153.04 112.82 152.80 113.69 Z M 152.54 114.65 L 152.35 115.31 C 152.11 116.18 152.62 117.08 153.49 117.33 C 154.36 117.57 155.26 117.06 155.50 116.19 L 155.69 115.54 C 155.93 114.67 155.42 113.76 154.55 113.52 C 153.68 113.27 152.78 113.78 152.54 114.65 Z"
      fill="black"
      fill-rule="nonzero" /><path d="M 147.90 114.29 L 148.91 114.32 C 149.86 114.36 150.66 113.61 150.69 112.66 C 150.73 111.71 149.98 110.91 149.03 110.88 L 148.02 110.84 C 147.07 110.81 146.27 111.55 146.24 112.50 C 146.20 113.46 146.95 114.25 147.90 114.29 Z M 148.93 114.36 L 149.94 114.38 C 150.91 114.41 151.71 113.64 151.74 112.67 C 151.76 111.69 150.99 110.89 150.02 110.86 L 149.01 110.84 C 148.04 110.82 147.23 111.59 147.21 112.56 C 147.19 113.53 147.96 114.34 148.93 114.36 Z M 149.98 114.42 L 150.97 114.42 C 151.96 114.42 152.77 113.62 152.77 112.62 C 152.77 111.63 151.96 110.83 150.97 110.83 L 149.98 110.83 C 148.98 110.83 148.18 111.63 148.18 112.63 C 148.18 113.62 148.98 114.42 149.98 114.42 Z M 151.03 114.44 L 151.95 114.41 C 152.95 114.37 153.74 113.53 153.70 112.53 C 153.67 111.52 152.82 110.74 151.82 110.77 L 150.90 110.81 C 149.90 110.84 149.11 111.68 149.15 112.69 C 149.19 113.69 150.03 114.48 151.03 114.44 Z M 152.02 114.39 L 152.88 114.33 C 153.87 114.25 154.62 113.38 154.54 112.38 C 154.46 111.39 153.59 110.64 152.60 110.72 L 151.74 110.79 C 150.75 110.87 150.00 111.74 150.08 112.73 C 150.16 113.73 151.03 114.47 152.02 114.39 Z M 152.95 114.29 L 153.88 114.18 C 154.86 114.06 155.56 113.18 155.44 112.20 C 155.32 111.22 154.44 110.53 153.46 110.65 L 152.53 110.76 C 151.55 110.87 150.85 111.76 150.97 112.74 C 151.09 113.71 151.97 114.41 152.95 114.29 Z M 153.94 114.14 L 155.02 113.98 C 155.98 113.83 156.63 112.94 156.49 111.98 C 156.34 111.02 155.44 110.37 154.49 110.52 L 153.41 110.68 C 152.45 110.83 151.80 111.72 151.94 112.68 C 152.09 113.63 152.98 114.29 153.94 114.14 Z M 155.05 113.94 L 156.15 113.75 C 157.09 113.59 157.72 112.69 157.55 111.75 C 157.39 110.81 156.49 110.19 155.55 110.35 L 154.46 110.55 C 153.52 110.71 152.89 111.61 153.06 112.55 C 153.22 113.48 154.12 114.11 155.05 113.94 Z M 156.17 113.73 L 157.01 113.57 C 157.94 113.40 158.55 112.51 158.37 111.58 C 158.20 110.65 157.31 110.04 156.38 110.21 L 155.54 110.37 C 154.61 110.55 154.00 111.44 154.17 112.37 C 154.35 113.30 155.24 113.91 156.17 113.73 Z M 157.02 113.56 L 157.93 113.38 C 158.86 113.20 159.46 112.31 159.28 111.39 C 159.10 110.47 158.21 109.87 157.28 110.05 L 156.37 110.23 C 155.45 110.40 154.85 111.30 155.03 112.22 C 155.21 113.14 156.10 113.74 157.02 113.56 Z M 157.94 113.37 L 158.91 113.18 C 159.83 113.00 160.42 112.11 160.24 111.19 C 160.06 110.28 159.17 109.68 158.25 109.86 L 157.28 110.06 C 156.36 110.24 155.77 111.13 155.95 112.05 C 156.13 112.96 157.02 113.56 157.94 113.37 Z M 158.91 113.17 L 159.93 112.96 C 160.84 112.78 161.43 111.89 161.25 110.98 C 161.06 110.07 160.17 109.48 159.26 109.67 L 158.25 109.87 C 157.34 110.06 156.75 110.95 156.93 111.86 C 157.12 112.77 158.00 113.35 158.91 113.17 Z M 159.93 112.95 L 160.99 112.74 C 161.89 112.55 162.47 111.67 162.29 110.76 C 162.10 109.86 161.22 109.28 160.31 109.46 L 159.26 109.68 C 158.36 109.86 157.77 110.75 157.96 111.65 C 158.15 112.56 159.03 113.14 159.93 112.95 Z M 160.99 112.73 L 162.06 112.51 C 162.96 112.32 163.54 111.44 163.35 110.54 C 163.17 109.64 162.29 109.06 161.39 109.25 L 160.31 109.47 C 159.41 109.66 158.83 110.54 159.02 111.44 C 159.21 112.34 160.09 112.92 160.99 112.73 Z M 162.06 112.50 L 162.88 112.33 C 163.78 112.14 164.35 111.27 164.17 110.37 C 163.98 109.48 163.11 108.90 162.21 109.09 L 161.39 109.26 C 160.49 109.44 159.92 110.32 160.10 111.21 C 160.29 112.11 161.16 112.69 162.06 112.50 Z"
      fill="black"
      fill-rule="nonzero" /><path d="M 130.85 130.77 L 131.81 130.56 C 132.78 130.34 133.39 129.38 133.17 128.41 C 132.96 127.44 132.00 126.83 131.03 127.04 L 130.06 127.26 C 129.09 127.48 128.48 128.44 128.70 129.41 C 128.91 130.38 129.88 130.99 130.85 130.77 Z M 131.83 130.60 L 132.79 130.38 C 133.78 130.15 134.40 129.17 134.18 128.17 C 133.95 127.18 132.97 126.56 131.98 126.79 L 131.01 127.01 C 130.02 127.23 129.40 128.22 129.62 129.21 C 129.85 130.20 130.83 130.82 131.83 130.60 Z M 132.81 130.41 L 133.79 130.18 C 134.80 129.95 135.42 128.93 135.19 127.92 C 134.95 126.91 133.94 126.28 132.92 126.52 L 131.95 126.75 C 130.94 126.99 130.32 128.00 130.55 129.01 C 130.79 130.02 131.80 130.65 132.81 130.41 Z M 133.82 130.22 L 134.79 129.98 C 135.82 129.72 136.45 128.68 136.20 127.65 C 135.94 126.62 134.90 125.99 133.87 126.25 L 132.89 126.49 C 131.86 126.74 131.23 127.78 131.49 128.81 C 131.74 129.84 132.78 130.47 133.82 130.22 Z M 134.83 130.01 L 135.82 129.75 C 136.86 129.48 137.49 128.40 137.22 127.36 C 136.94 126.31 135.87 125.68 134.82 125.95 L 133.83 126.21 C 132.79 126.49 132.16 127.56 132.43 128.61 C 132.71 129.66 133.78 130.29 134.83 130.01 Z M 135.85 129.76 L 136.85 129.48 C 137.91 129.19 138.52 128.09 138.23 127.04 C 137.93 125.99 136.84 125.37 135.79 125.67 L 134.78 125.95 C 133.73 126.24 133.12 127.33 133.41 128.39 C 133.71 129.44 134.80 130.06 135.85 129.76 Z M 136.88 129.47 L 137.87 129.18 C 138.92 128.87 139.52 127.77 139.21 126.72 C 138.90 125.67 137.80 125.07 136.75 125.38 L 135.76 125.68 C 134.71 125.98 134.11 127.08 134.42 128.13 C 134.73 129.18 135.83 129.78 136.88 129.47 Z M 137.89 129.17 L 138.86 128.87 C 139.91 128.56 140.49 127.45 140.17 126.41 C 139.86 125.36 138.75 124.78 137.71 125.09 L 136.74 125.39 C 135.69 125.71 135.11 126.81 135.42 127.86 C 135.74 128.90 136.85 129.49 137.89 129.17 Z M 138.87 128.87 L 139.80 128.58 C 140.84 128.25 141.42 127.14 141.10 126.10 C 140.77 125.06 139.67 124.48 138.63 124.81 L 137.70 125.10 C 136.66 125.43 136.08 126.53 136.40 127.57 C 136.73 128.61 137.83 129.19 138.87 128.87 Z M 139.81 128.57 L 140.71 128.29 C 141.75 127.96 142.32 126.85 142.00 125.81 C 141.67 124.77 140.56 124.20 139.52 124.53 L 138.62 124.81 C 137.58 125.14 137.01 126.25 137.34 127.29 C 137.67 128.33 138.77 128.90 139.81 128.57 Z M 140.71 128.28 L 141.72 127.96 C 142.76 127.63 143.33 126.52 143.00 125.49 C 142.67 124.46 141.56 123.89 140.53 124.22 L 139.52 124.54 C 138.49 124.87 137.92 125.97 138.25 127.00 C 138.58 128.04 139.68 128.61 140.71 128.28 Z M 141.72 127.94 L 142.66 127.64 C 143.69 127.31 144.26 126.21 143.93 125.19 C 143.60 124.16 142.50 123.60 141.47 123.93 L 140.53 124.23 C 139.51 124.56 138.94 125.65 139.27 126.68 C 139.60 127.71 140.70 128.27 141.72 127.94 Z M 142.67 127.63 L 143.58 127.33 C 144.60 127.00 145.16 125.91 144.83 124.89 C 144.50 123.87 143.41 123.31 142.39 123.64 L 141.47 123.94 C 140.45 124.27 139.89 125.36 140.22 126.38 C 140.55 127.40 141.65 127.96 142.67 127.63 Z M 143.58 127.32 L 144.49 127.02 C 145.51 126.69 146.06 125.60 145.73 124.59 C 145.40 123.58 144.31 123.03 143.30 123.36 L 142.38 123.66 C 141.37 123.99 140.82 125.07 141.15 126.09 C 141.48 127.10 142.57 127.65 143.58 127.32 Z M 144.50 127.01 L 145.40 126.72 C 146.40 126.38 146.95 125.30 146.62 124.29 C 146.29 123.29 145.20 122.74 144.20 123.07 L 143.30 123.37 C 142.29 123.70 141.74 124.78 142.07 125.79 C 142.40 126.80 143.49 127.34 144.50 127.01 Z M 145.40 126.71 L 146.34 126.40 C 147.34 126.07 147.88 124.99 147.55 123.98 C 147.22 122.98 146.14 122.44 145.14 122.77 L 144.20 123.08 C 143.20 123.41 142.65 124.49 142.98 125.49 C 143.31 126.50 144.40 127.04 145.40 126.71 Z M 146.33 126.39 L 147.31 126.07 C 148.30 125.74 148.85 124.66 148.52 123.67 C 148.19 122.67 147.11 122.13 146.11 122.46 L 145.14 122.78 C 144.14 123.11 143.60 124.18 143.93 125.18 C 144.26 126.18 145.34 126.72 146.33 126.39 Z M 147.30 126.06 L 148.30 125.73 C 149.29 125.41 149.83 124.34 149.51 123.34 C 149.18 122.35 148.11 121.81 147.11 122.13 L 146.12 122.46 C 145.12 122.79 144.58 123.86 144.91 124.85 C 145.24 125.85 146.31 126.39 147.30 126.06 Z M 148.29 125.73 L 149.20 125.43 C 150.19 125.11 150.73 124.04 150.41 123.05 C 150.08 122.06 149.02 121.52 148.03 121.84 L 147.12 122.14 C 146.13 122.47 145.59 123.53 145.91 124.52 C 146.24 125.51 147.30 126.05 148.29 125.73 Z M 149.20 125.42 L 150.13 125.12 C 151.11 124.80 151.65 123.73 151.33 122.75 C 151.01 121.76 149.95 121.23 148.96 121.55 L 148.03 121.85 C 147.04 122.17 146.51 123.23 146.83 124.22 C 147.15 125.21 148.21 125.74 149.20 125.42 Z M 150.13 125.11 L 151.08 124.80 C 152.06 124.47 152.60 123.42 152.28 122.44 C 151.95 121.46 150.90 120.92 149.92 121.24 L 148.96 121.56 C 147.98 121.88 147.45 122.93 147.77 123.91 C 148.09 124.90 149.15 125.43 150.13 125.11 Z M 151.08 124.79 L 152.06 124.46 C 153.04 124.14 153.57 123.09 153.24 122.12 C 152.92 121.14 151.87 120.61 150.90 120.93 L 149.92 121.25 C 148.94 121.57 148.41 122.63 148.73 123.60 C 149.05 124.58 150.11 125.11 151.08 124.79 Z M 152.06 124.45 L 153.03 124.13 C 154.00 123.81 154.52 122.76 154.20 121.79 C 153.88 120.82 152.83 120.30 151.86 120.62 L 150.89 120.94 C 149.92 121.26 149.40 122.31 149.72 123.28 C 150.04 124.25 151.09 124.78 152.06 124.45 Z M 153.03 124.12 L 153.95 123.81 C 154.91 123.49 155.43 122.45 155.11 121.48 C 154.78 120.52 153.74 120.00 152.77 120.32 L 151.86 120.63 C 150.89 120.95 150.37 122.00 150.70 122.96 C 151.02 123.93 152.07 124.45 153.03 124.12 Z M 153.95 123.80 L 154.88 123.49 C 155.84 123.16 156.36 122.12 156.03 121.16 C 155.71 120.20 154.67 119.69 153.71 120.01 L 152.77 120.33 C 151.81 120.66 151.30 121.70 151.62 122.66 C 151.95 123.61 152.99 124.13 153.95 123.80 Z M 154.88 123.48 L 155.83 123.16 C 156.79 122.83 157.30 121.79 156.97 120.84 C 156.65 119.89 155.61 119.38 154.66 119.70 L 153.71 120.02 C 152.75 120.35 152.24 121.38 152.57 122.34 C 152.89 123.29 153.93 123.80 154.88 123.48 Z M 155.83 123.15 L 156.80 122.82 C 157.75 122.49 158.26 121.46 157.93 120.51 C 157.61 119.56 156.58 119.05 155.63 119.38 L 154.66 119.71 C 153.71 120.03 153.20 121.07 153.53 122.01 C 153.85 122.96 154.88 123.47 155.83 123.15 Z M 156.80 122.81 L 157.78 122.47 C 158.72 122.15 159.23 121.12 158.90 120.18 C 158.58 119.23 157.55 118.73 156.61 119.05 L 155.63 119.39 C 154.68 119.71 154.18 120.74 154.50 121.68 C 154.83 122.63 155.85 123.13 156.80 122.81 Z M 157.78 122.46 L 158.73 122.14 C 159.67 121.82 160.17 120.80 159.85 119.86 C 159.53 118.92 158.50 118.41 157.56 118.74 L 156.61 119.06 C 155.67 119.38 155.17 120.40 155.49 121.34 C 155.81 122.28 156.84 122.79 157.78 122.46 Z M 158.72 122.13 L 159.68 121.80 C 160.62 121.48 161.11 120.47 160.79 119.53 C 160.48 118.60 159.46 118.10 158.52 118.42 L 157.57 118.75 C 156.63 119.06 156.13 120.08 156.45 121.02 C 156.77 121.95 157.79 122.45 158.72 122.13 Z M 159.68 121.79 L 160.63 121.46 C 161.56 121.15 162.06 120.14 161.74 119.21 C 161.42 118.28 160.41 117.78 159.48 118.10 L 158.53 118.43 C 157.60 118.75 157.10 119.76 157.42 120.68 C 157.74 121.61 158.75 122.11 159.68 121.79 Z M 160.63 121.46 L 161.58 121.13 C 162.50 120.82 163.00 119.81 162.68 118.89 C 162.36 117.96 161.36 117.47 160.44 117.79 L 159.49 118.11 C 158.56 118.43 158.07 119.43 158.39 120.35 C 158.70 121.28 159.71 121.77 160.63 121.46 Z M 161.58 121.12 L 162.51 120.80 C 163.43 120.49 163.92 119.49 163.60 118.57 C 163.29 117.65 162.29 117.16 161.37 117.48 L 160.44 117.80 C 159.52 118.11 159.03 119.11 159.35 120.03 C 159.66 120.95 160.66 121.44 161.58 121.12 Z M 162.51 120.79 L 163.46 120.46 C 164.38 120.15 164.86 119.16 164.55 118.25 C 164.24 117.33 163.25 116.85 162.33 117.16 L 161.37 117.49 C 160.46 117.80 159.98 118.79 160.29 119.71 C 160.60 120.62 161.59 121.11 162.51 120.79 Z M 163.46 120.46 L 164.44 120.12 C 165.35 119.81 165.84 118.82 165.52 117.91 C 165.21 117.00 164.22 116.52 163.32 116.83 L 162.33 117.17 C 161.43 117.48 160.94 118.47 161.25 119.38 C 161.57 120.28 162.55 120.77 163.46 120.46 Z M 164.44 120.11 L 165.40 119.78 C 166.30 119.47 166.78 118.49 166.47 117.58 C 166.16 116.68 165.17 116.20 164.27 116.51 L 163.32 116.84 C 162.41 117.15 161.93 118.14 162.24 119.04 C 162.56 119.94 163.54 120.42 164.44 120.11 Z M 165.40 119.77 L 166.33 119.45 C 167.23 119.14 167.70 118.15 167.39 117.26 C 167.08 116.36 166.10 115.88 165.20 116.20 L 164.27 116.52 C 163.37 116.83 162.90 117.81 163.21 118.71 C 163.52 119.61 164.50 120.08 165.40 119.77 Z M 166.33 119.44 L 167.24 119.12 C 168.14 118.80 168.60 117.82 168.29 116.93 C 167.97 116.04 167.00 115.57 166.10 115.89 L 165.19 116.21 C 164.30 116.52 163.83 117.50 164.15 118.39 C 164.46 119.28 165.44 119.75 166.33 119.44 Z M 167.25 119.11 L 168.19 118.77 C 169.08 118.45 169.54 117.48 169.22 116.59 C 168.90 115.70 167.93 115.24 167.04 115.56 L 166.10 115.90 C 165.21 116.21 164.75 117.19 165.07 118.08 C 165.39 118.96 166.36 119.42 167.25 119.11 Z M 168.20 118.76 L 169.17 118.41 C 170.05 118.08 170.50 117.11 170.18 116.23 C 169.86 115.35 168.89 114.89 168.00 115.22 L 167.03 115.57 C 166.15 115.89 165.70 116.86 166.02 117.75 C 166.34 118.63 167.32 119.08 168.20 118.76 Z M 169.17 118.40 L 170.12 118.05 C 170.99 117.72 171.44 116.75 171.12 115.87 C 170.80 115.00 169.82 114.55 168.95 114.87 L 168.00 115.22 C 167.12 115.55 166.68 116.52 167.00 117.40 C 167.32 118.27 168.30 118.72 169.17 118.40 Z M 170.12 118.04 L 171.04 117.70 C 171.91 117.37 172.35 116.40 172.03 115.53 C 171.71 114.66 170.74 114.22 169.87 114.54 L 168.95 114.88 C 168.07 115.21 167.63 116.18 167.96 117.05 C 168.28 117.92 169.25 118.36 170.12 118.04 Z M 171.04 117.69 L 171.93 117.36 C 172.80 117.03 173.24 116.07 172.92 115.20 C 172.59 114.33 171.63 113.89 170.76 114.21 L 169.87 114.55 C 169.00 114.87 168.56 115.84 168.88 116.70 C 169.21 117.57 170.17 118.01 171.04 117.69 Z M 171.93 117.35 L 172.93 116.98 C 173.80 116.65 174.24 115.69 173.91 114.83 C 173.59 113.96 172.63 113.52 171.77 113.85 L 170.76 114.22 C 169.90 114.54 169.46 115.50 169.78 116.37 C 170.10 117.23 171.06 117.67 171.93 117.35 Z M 172.93 116.97 L 173.89 116.61 C 174.75 116.29 175.19 115.33 174.86 114.47 C 174.54 113.61 173.58 113.17 172.72 113.49 L 171.76 113.85 C 170.90 114.18 170.47 115.13 170.79 116.00 C 171.11 116.86 172.07 117.29 172.93 116.97 Z M 173.90 116.60 L 174.80 116.26 C 175.66 115.93 176.08 114.97 175.76 114.12 C 175.43 113.26 174.47 112.83 173.62 113.16 L 172.71 113.50 C 171.86 113.83 171.43 114.79 171.76 115.64 C 172.08 116.50 173.04 116.93 173.90 116.60 Z M 174.81 116.25 L 175.69 115.90 C 176.54 115.57 176.96 114.61 176.63 113.76 C 176.29 112.91 175.33 112.49 174.48 112.82 L 173.61 113.17 C 172.76 113.50 172.34 114.46 172.67 115.31 C 173.00 116.16 173.96 116.58 174.81 116.25 Z M 175.71 115.89 L 176.63 115.51 C 177.48 115.17 177.88 114.21 177.54 113.36 C 177.19 112.52 176.23 112.12 175.39 112.46 L 174.47 112.84 C 173.62 113.18 173.22 114.14 173.56 114.99 C 173.91 115.83 174.87 116.23 175.71 115.89 Z M 176.65 115.50 L 177.56 115.12 C 178.39 114.77 178.78 113.80 178.43 112.96 C 178.08 112.13 177.11 111.73 176.27 112.09 L 175.37 112.47 C 174.53 112.82 174.14 113.79 174.50 114.63 C 174.85 115.46 175.81 115.86 176.65 115.50 Z M 177.57 115.11 L 178.50 114.71 C 179.33 114.35 179.71 113.38 179.35 112.55 C 178.99 111.72 178.02 111.33 177.19 111.69 L 176.26 112.10 C 175.43 112.46 175.05 113.43 175.41 114.26 C 175.77 115.09 176.74 115.47 177.57 115.11 Z M 178.51 114.73 L 179.39 114.34 C 180.23 113.97 180.61 112.99 180.24 112.15 C 179.87 111.31 178.89 110.92 178.05 111.29 L 177.17 111.68 C 176.33 112.05 175.95 113.03 176.32 113.87 C 176.69 114.71 177.67 115.10 178.51 114.73 Z M 179.41 114.38 L 180.32 113.98 C 181.19 113.60 181.58 112.59 181.19 111.72 C 180.81 110.86 179.80 110.47 178.93 110.85 L 178.03 111.25 C 177.16 111.63 176.77 112.64 177.15 113.51 C 177.53 114.38 178.55 114.77 179.41 114.38 Z M 180.34 114.03 L 181.28 113.61 C 182.17 113.22 182.57 112.18 182.18 111.28 C 181.78 110.39 180.74 109.99 179.85 110.39 L 178.91 110.80 C 178.02 111.20 177.62 112.24 178.01 113.13 C 178.41 114.02 179.45 114.42 180.34 114.03 Z M 181.30 113.66 L 182.12 113.29 C 183.03 112.89 183.44 111.82 183.04 110.90 C 182.63 109.98 181.56 109.57 180.64 109.98 L 179.82 110.34 C 178.91 110.75 178.50 111.82 178.90 112.74 C 179.31 113.65 180.38 114.06 181.30 113.66 Z"
      fill="black"
      fill-rule="nonzero" /><path d="M 147.19 132.64 L 146.35 133.26 C 145.57 133.83 145.40 134.92 145.97 135.70 C 146.54 136.48 147.64 136.65 148.42 136.08 L 149.26 135.47 C 150.04 134.90 150.21 133.81 149.64 133.02 C 149.07 132.24 147.97 132.07 147.19 132.64 Z M 146.26 133.31 L 145.48 133.96 C 144.73 134.58 144.63 135.70 145.26 136.45 C 145.88 137.20 146.99 137.30 147.74 136.67 L 148.52 136.03 C 149.27 135.40 149.37 134.29 148.74 133.54 C 148.12 132.79 147.00 132.69 146.26 133.31 Z M 145.29 134.12 L 144.64 134.83 C 143.98 135.56 144.04 136.69 144.77 137.35 C 145.50 138.01 146.63 137.96 147.29 137.23 L 147.93 136.51 C 148.60 135.78 148.54 134.65 147.81 133.99 C 147.08 133.33 145.95 133.39 145.29 134.12 Z M 144.40 135.14 L 143.93 135.97 C 143.45 136.84 143.75 137.93 144.61 138.42 C 145.48 138.91 146.57 138.60 147.06 137.74 L 147.53 136.91 C 148.02 136.05 147.71 134.95 146.85 134.47 C 145.99 133.98 144.89 134.28 144.40 135.14 Z M 143.78 136.33 L 143.49 137.27 C 143.20 138.22 143.74 139.22 144.69 139.51 C 145.64 139.80 146.64 139.27 146.93 138.32 L 147.22 137.38 C 147.51 136.43 146.97 135.43 146.02 135.14 C 145.07 134.85 144.07 135.38 143.78 136.33 Z M 143.43 137.55 L 143.29 138.56 C 143.15 139.54 143.84 140.45 144.82 140.59 C 145.81 140.72 146.72 140.04 146.86 139.05 L 147.00 138.04 C 147.13 137.06 146.44 136.15 145.46 136.01 C 144.47 135.87 143.56 136.56 143.43 137.55 Z M 143.27 138.73 L 143.23 139.70 C 143.19 140.70 143.97 141.54 144.96 141.58 C 145.95 141.62 146.79 140.84 146.83 139.85 L 146.87 138.88 C 146.91 137.88 146.14 137.04 145.14 137.00 C 144.15 136.96 143.31 137.74 143.27 138.73 Z M 143.23 139.84 L 143.27 140.78 C 143.30 141.77 144.14 142.55 145.13 142.51 C 146.13 142.47 146.90 141.64 146.87 140.64 L 146.83 139.71 C 146.80 138.71 145.96 137.94 144.96 137.98 C 143.97 138.01 143.19 138.85 143.23 139.84 Z M 143.28 140.93 L 143.40 141.92 C 143.53 142.91 144.43 143.61 145.42 143.48 C 146.40 143.36 147.10 142.46 146.98 141.47 L 146.85 140.48 C 146.73 139.50 145.83 138.80 144.84 138.92 C 143.86 139.05 143.16 139.95 143.28 140.93 Z M 143.43 142.09 L 143.67 143.14 C 143.89 144.11 144.85 144.73 145.82 144.51 C 146.79 144.29 147.40 143.33 147.18 142.36 L 146.95 141.30 C 146.73 140.33 145.77 139.72 144.80 139.94 C 143.83 140.15 143.22 141.12 143.43 142.09 Z M 143.71 143.29 L 144.01 144.25 C 144.31 145.19 145.31 145.72 146.26 145.42 C 147.21 145.13 147.74 144.12 147.44 143.17 L 147.14 142.22 C 146.85 141.27 145.84 140.74 144.89 141.04 C 143.94 141.33 143.42 142.34 143.71 143.29 Z M 144.05 144.34 L 144.40 145.28 C 144.75 146.20 145.78 146.67 146.71 146.32 C 147.63 145.97 148.10 144.94 147.75 144.02 L 147.40 143.08 C 147.05 142.15 146.02 141.69 145.10 142.03 C 144.17 142.38 143.70 143.41 144.05 144.34 Z M 144.43 145.34 L 144.83 146.28 C 145.22 147.19 146.26 147.62 147.17 147.24 C 148.08 146.85 148.50 145.81 148.12 144.90 L 147.72 143.95 C 147.34 143.05 146.29 142.62 145.39 143.00 C 144.48 143.38 144.05 144.43 144.43 145.34 Z M 144.86 146.33 L 145.28 147.26 C 145.69 148.15 146.74 148.55 147.63 148.14 C 148.52 147.74 148.92 146.69 148.52 145.79 L 148.09 144.86 C 147.69 143.97 146.64 143.57 145.74 143.98 C 144.85 144.38 144.45 145.43 144.86 146.33 Z M 145.30 147.28 L 145.73 148.17 C 146.14 149.06 147.20 149.43 148.08 149.01 C 148.96 148.59 149.34 147.54 148.92 146.66 L 148.50 145.77 C 148.08 144.88 147.02 144.51 146.14 144.93 C 145.26 145.35 144.88 146.40 145.30 147.28 Z M 145.75 148.19 L 146.22 149.16 C 146.65 150.03 147.70 150.39 148.57 149.96 C 149.44 149.54 149.80 148.48 149.37 147.61 L 148.90 146.64 C 148.47 145.77 147.42 145.41 146.55 145.84 C 145.68 146.27 145.32 147.32 145.75 148.19 Z M 146.25 149.17 L 146.71 150.08 C 147.14 150.93 148.19 151.27 149.04 150.84 C 149.90 150.40 150.24 149.36 149.80 148.51 L 149.35 147.60 C 148.91 146.75 147.87 146.41 147.01 146.84 C 146.16 147.27 145.82 148.32 146.25 149.17 Z M 146.74 150.09 L 147.19 150.94 C 147.63 151.78 148.67 152.10 149.51 151.66 C 150.34 151.22 150.67 150.18 150.22 149.34 L 149.77 148.49 C 149.33 147.65 148.30 147.33 147.46 147.77 C 146.62 148.22 146.30 149.25 146.74 150.09 Z M 147.22 150.96 L 147.67 151.79 C 148.12 152.61 149.15 152.91 149.97 152.46 C 150.80 152.01 151.10 150.98 150.65 150.16 L 150.19 149.33 C 149.74 148.51 148.71 148.21 147.89 148.66 C 147.07 149.11 146.77 150.14 147.22 150.96 Z M 147.70 151.80 L 148.18 152.64 C 148.64 153.44 149.66 153.73 150.47 153.27 C 151.27 152.81 151.56 151.78 151.10 150.98 L 150.62 150.14 C 150.16 149.33 149.14 149.05 148.33 149.51 C 147.52 149.97 147.24 150.99 147.70 151.80 Z M 148.20 152.66 L 148.70 153.50 C 149.17 154.30 150.19 154.56 150.99 154.09 C 151.78 153.62 152.04 152.60 151.57 151.80 L 151.07 150.96 C 150.60 150.16 149.58 149.90 148.79 150.37 C 147.99 150.84 147.73 151.86 148.20 152.66 Z M 148.72 153.52 L 149.25 154.38 C 149.73 155.16 150.76 155.40 151.54 154.92 C 152.32 154.44 152.56 153.42 152.08 152.64 L 151.55 151.78 C 151.07 151.00 150.04 150.76 149.26 151.24 C 148.48 151.72 148.24 152.74 148.72 153.52 Z M 149.28 154.40 L 149.84 155.28 C 150.34 156.04 151.36 156.26 152.12 155.77 C 152.89 155.28 153.11 154.26 152.62 153.49 L 152.05 152.62 C 151.56 151.85 150.54 151.63 149.77 152.12 C 149.01 152.62 148.79 153.64 149.28 154.40 Z M 149.87 155.30 L 150.40 156.10 C 150.91 156.86 151.93 157.06 152.68 156.55 C 153.44 156.05 153.64 155.03 153.13 154.27 L 152.59 153.47 C 152.09 152.72 151.07 152.51 150.31 153.02 C 149.56 153.53 149.36 154.55 149.87 155.30 Z M 150.42 156.12 L 150.98 156.94 C 151.50 157.68 152.52 157.87 153.26 157.35 C 154.01 156.84 154.20 155.82 153.68 155.07 L 153.12 154.25 C 152.60 153.51 151.58 153.32 150.84 153.84 C 150.09 154.35 149.90 155.37 150.42 156.12 Z M 150.99 156.95 L 151.57 157.77 C 152.09 158.51 153.12 158.69 153.86 158.17 C 154.60 157.65 154.77 156.63 154.25 155.89 L 153.67 155.06 C 153.15 154.32 152.13 154.14 151.39 154.66 C 150.65 155.18 150.47 156.21 150.99 156.95 Z M 151.58 157.78 L 152.17 158.61 C 152.69 159.35 153.72 159.52 154.45 159.00 C 155.19 158.47 155.36 157.45 154.84 156.71 L 154.25 155.88 C 153.72 155.14 152.70 154.97 151.96 155.49 C 151.23 156.02 151.05 157.04 151.58 157.78 Z M 152.17 158.61 L 152.46 159.02 C 152.99 159.76 154.01 159.93 154.75 159.40 C 155.48 158.88 155.65 157.85 155.13 157.12 L 154.84 156.71 C 154.31 155.97 153.29 155.80 152.55 156.33 C 151.82 156.85 151.65 157.88 152.17 158.61 Z"
      fill="black"
      fill-rule="nonzero" /><path d="M 151.28 136.96 L 152.07 136.31 C 152.87 135.64 152.98 134.46 152.31 133.66 C 151.65 132.86 150.46 132.75 149.66 133.42 L 148.88 134.07 C 148.08 134.73 147.97 135.92 148.64 136.72 C 149.30 137.52 150.49 137.63 151.28 136.96 Z M 152.03 136.37 L 152.82 135.76 C 153.65 135.12 153.81 133.92 153.17 133.09 C 152.53 132.26 151.34 132.10 150.51 132.74 L 149.71 133.36 C 148.88 134.00 148.72 135.19 149.36 136.02 C 150.00 136.85 151.19 137.01 152.03 136.37 Z M 152.71 135.86 L 153.53 135.32 C 154.42 134.75 154.67 133.56 154.09 132.67 C 153.52 131.78 152.33 131.53 151.44 132.11 L 150.62 132.64 C 149.73 133.22 149.48 134.41 150.06 135.29 C 150.63 136.18 151.82 136.43 152.71 135.86 Z M 153.33 135.45 L 154.20 135.02 C 155.15 134.56 155.55 133.40 155.08 132.45 C 154.62 131.49 153.46 131.09 152.51 131.56 L 151.64 131.99 C 150.68 132.45 150.29 133.61 150.75 134.56 C 151.22 135.52 152.38 135.91 153.33 135.45 Z M 153.98 135.11 L 154.90 134.79 C 155.91 134.44 156.44 133.35 156.09 132.34 C 155.74 131.34 154.65 130.81 153.64 131.16 L 152.72 131.48 C 151.72 131.82 151.19 132.92 151.54 133.92 C 151.88 134.93 152.98 135.46 153.98 135.11 Z M 154.74 134.83 L 155.73 134.59 C 156.76 134.33 157.38 133.29 157.13 132.26 C 156.87 131.23 155.83 130.61 154.80 130.87 L 153.81 131.11 C 152.78 131.37 152.16 132.41 152.41 133.44 C 152.67 134.46 153.71 135.09 154.74 134.83 Z M 155.63 134.60 L 156.59 134.41 C 157.62 134.21 158.30 133.21 158.10 132.18 C 157.90 131.14 156.89 130.46 155.86 130.66 L 154.90 130.85 C 153.87 131.05 153.19 132.05 153.39 133.09 C 153.59 134.12 154.59 134.80 155.63 134.60 Z M 156.52 134.42 L 157.47 134.27 C 158.51 134.10 159.21 133.13 159.05 132.09 C 158.88 131.05 157.91 130.35 156.87 130.51 L 155.92 130.66 C 154.89 130.83 154.18 131.80 154.35 132.84 C 154.51 133.88 155.49 134.58 156.52 134.42 Z M 157.41 134.26 L 158.42 134.14 C 159.45 134.00 160.19 133.05 160.05 132.02 C 159.92 130.98 158.97 130.25 157.93 130.38 L 156.93 130.51 C 155.89 130.65 155.16 131.59 155.29 132.63 C 155.43 133.67 156.38 134.40 157.41 134.26 Z M 158.36 134.13 L 159.42 134.03 C 160.45 133.92 161.21 133.00 161.10 131.97 C 161.00 130.93 160.08 130.18 159.04 130.28 L 157.99 130.38 C 156.95 130.49 156.20 131.41 156.30 132.45 C 156.40 133.48 157.33 134.24 158.36 134.13 Z M 159.37 134.02 L 160.36 133.95 C 161.39 133.87 162.16 132.98 162.09 131.94 C 162.01 130.91 161.11 130.14 160.08 130.21 L 159.09 130.28 C 158.06 130.36 157.28 131.26 157.36 132.29 C 157.44 133.32 158.33 134.10 159.37 134.02 Z M 160.32 133.94 L 161.30 133.89 C 162.33 133.84 163.12 132.96 163.07 131.93 C 163.01 130.90 162.14 130.11 161.11 130.16 L 160.12 130.22 C 159.09 130.27 158.30 131.15 158.35 132.18 C 158.41 133.21 159.29 134.00 160.32 133.94 Z M 161.27 133.89 L 162.28 133.85 C 163.30 133.81 164.10 132.95 164.07 131.92 C 164.03 130.90 163.17 130.10 162.14 130.13 L 161.14 130.17 C 160.11 130.21 159.31 131.07 159.35 132.10 C 159.38 133.12 160.25 133.92 161.27 133.89 Z M 162.26 133.84 L 163.27 133.82 C 164.30 133.79 165.10 132.94 165.08 131.92 C 165.05 130.90 164.21 130.09 163.18 130.12 L 162.16 130.14 C 161.14 130.17 160.34 131.02 160.36 132.04 C 160.39 133.06 161.23 133.87 162.26 133.84 Z M 163.26 133.81 L 164.28 133.79 C 165.29 133.78 166.11 132.94 166.09 131.92 C 166.08 130.90 165.24 130.09 164.22 130.11 L 163.20 130.12 C 162.18 130.14 161.37 130.98 161.39 132.00 C 161.40 133.01 162.24 133.83 163.26 133.81 Z M 164.25 133.79 L 165.27 133.78 C 166.28 133.78 167.10 132.96 167.10 131.94 C 167.09 130.93 166.27 130.11 165.25 130.11 L 164.24 130.11 C 163.23 130.12 162.41 130.94 162.41 131.96 C 162.42 132.97 163.24 133.79 164.25 133.79 Z M 165.22 133.78 L 166.22 133.80 C 167.23 133.82 168.07 133.02 168.09 132.01 C 168.12 131.00 167.31 130.16 166.30 130.14 L 165.30 130.12 C 164.29 130.10 163.45 130.90 163.43 131.91 C 163.41 132.92 164.21 133.76 165.22 133.78 Z M 166.15 133.79 L 167.15 133.85 C 168.15 133.91 169.02 133.15 169.08 132.14 C 169.14 131.13 168.37 130.27 167.37 130.21 L 166.37 130.15 C 165.37 130.09 164.50 130.85 164.44 131.86 C 164.38 132.86 165.15 133.73 166.15 133.79 Z M 167.05 133.84 L 168.03 133.95 C 169.03 134.07 169.93 133.35 170.04 132.35 C 170.16 131.35 169.44 130.45 168.44 130.34 L 167.47 130.22 C 166.47 130.11 165.56 130.82 165.45 131.82 C 165.33 132.82 166.05 133.72 167.05 133.84 Z M 167.90 133.93 L 168.92 134.12 C 169.91 134.30 170.86 133.65 171.04 132.66 C 171.22 131.68 170.57 130.73 169.59 130.55 L 168.57 130.36 C 167.58 130.18 166.63 130.83 166.45 131.81 C 166.27 132.80 166.92 133.74 167.90 133.93 Z M 168.79 134.08 L 169.78 134.34 C 170.75 134.60 171.74 134.02 172.00 133.05 C 172.25 132.09 171.67 131.09 170.70 130.84 L 169.71 130.58 C 168.75 130.33 167.76 130.90 167.50 131.87 C 167.25 132.84 167.83 133.83 168.79 134.08 Z M 169.66 134.30 L 170.60 134.63 C 171.54 134.95 172.57 134.45 172.90 133.50 C 173.22 132.56 172.72 131.53 171.77 131.20 L 170.83 130.88 C 169.89 130.56 168.86 131.06 168.53 132.01 C 168.21 132.95 168.71 133.98 169.66 134.30 Z M 170.48 134.57 L 171.36 134.95 C 172.27 135.34 173.33 134.92 173.73 134.00 C 174.12 133.09 173.69 132.03 172.78 131.63 L 171.90 131.26 C 170.98 130.86 169.92 131.29 169.53 132.20 C 169.13 133.12 169.56 134.18 170.48 134.57 Z M 171.22 134.88 L 172.13 135.37 C 173.01 135.83 174.10 135.50 174.56 134.62 C 175.03 133.75 174.70 132.65 173.82 132.19 L 172.91 131.70 C 172.04 131.24 170.95 131.57 170.48 132.45 C 170.01 133.32 170.34 134.41 171.22 134.88 Z M 171.98 135.27 L 172.82 135.83 C 173.65 136.38 174.77 136.16 175.32 135.33 C 175.87 134.50 175.64 133.39 174.81 132.84 L 173.97 132.28 C 173.14 131.73 172.03 131.95 171.48 132.78 C 170.93 133.61 171.15 134.72 171.98 135.27 Z M 172.68 135.73 L 173.44 136.34 C 174.20 136.97 175.34 136.86 175.96 136.09 C 176.59 135.33 176.48 134.19 175.71 133.57 L 174.96 132.95 C 174.19 132.32 173.06 132.43 172.43 133.20 C 171.80 133.97 171.92 135.10 172.68 135.73 Z M 173.31 136.22 L 173.99 136.90 C 174.69 137.60 175.83 137.60 176.53 136.90 C 177.22 136.20 177.22 135.07 176.52 134.37 L 175.84 133.69 C 175.14 132.99 174.01 132.99 173.31 133.69 C 172.61 134.39 172.61 135.52 173.31 136.22 Z M 173.88 136.77 L 174.51 137.54 C 175.14 138.30 176.26 138.41 177.02 137.79 C 177.79 137.16 177.90 136.03 177.27 135.27 L 176.64 134.50 C 176.01 133.74 174.89 133.63 174.12 134.26 C 173.36 134.88 173.25 136.01 173.88 136.77 Z M 174.41 137.39 L 174.96 138.22 C 175.50 139.04 176.61 139.26 177.43 138.72 C 178.25 138.17 178.47 137.07 177.92 136.25 L 177.37 135.42 C 176.83 134.60 175.72 134.38 174.90 134.92 C 174.09 135.47 173.86 136.57 174.41 137.39 Z M 174.87 138.06 L 175.34 138.95 C 175.80 139.82 176.87 140.15 177.74 139.69 C 178.61 139.23 178.94 138.16 178.48 137.29 L 178.01 136.41 C 177.55 135.54 176.48 135.21 175.61 135.67 C 174.74 136.12 174.41 137.20 174.87 138.06 Z M 175.27 138.80 L 175.63 139.66 C 176.00 140.56 177.04 141.00 177.94 140.62 C 178.84 140.25 179.27 139.22 178.90 138.31 L 178.54 137.45 C 178.17 136.55 177.14 136.12 176.24 136.49 C 175.33 136.86 174.90 137.89 175.27 138.80 Z M 175.58 139.50 L 175.86 140.41 C 176.14 141.34 177.12 141.87 178.05 141.59 C 178.98 141.30 179.51 140.32 179.23 139.39 L 178.95 138.48 C 178.67 137.55 177.69 137.02 176.76 137.30 C 175.83 137.59 175.30 138.57 175.58 139.50 Z M 175.82 140.24 L 176.02 141.24 C 176.21 142.19 177.13 142.81 178.08 142.62 C 179.03 142.43 179.65 141.51 179.46 140.56 L 179.26 139.56 C 179.08 138.61 178.15 137.99 177.20 138.18 C 176.25 138.37 175.64 139.29 175.82 140.24 Z M 176.00 141.07 L 176.11 142.16 C 176.21 143.11 177.06 143.81 178.02 143.72 C 178.98 143.62 179.68 142.77 179.58 141.81 L 179.48 140.73 C 179.38 139.77 178.53 139.07 177.57 139.16 C 176.61 139.26 175.91 140.11 176.00 141.07 Z M 176.11 142.02 L 176.13 142.98 C 176.15 143.94 176.94 144.70 177.90 144.68 C 178.86 144.66 179.62 143.87 179.60 142.91 L 179.58 141.95 C 179.57 140.99 178.77 140.23 177.81 140.25 C 176.85 140.26 176.09 141.06 176.11 142.02 Z M 176.14 142.86 L 176.09 143.87 C 176.04 144.82 176.78 145.63 177.73 145.68 C 178.69 145.73 179.50 144.99 179.55 144.04 L 179.60 143.03 C 179.64 142.08 178.91 141.27 177.95 141.22 C 177.00 141.17 176.19 141.91 176.14 142.86 Z M 176.11 143.74 L 175.98 144.75 C 175.86 145.70 176.53 146.56 177.48 146.68 C 178.42 146.80 179.28 146.13 179.40 145.18 L 179.53 144.17 C 179.65 143.22 178.98 142.36 178.03 142.24 C 177.09 142.13 176.23 142.79 176.11 143.74 Z M 176.01 144.61 L 175.80 145.60 C 175.60 146.53 176.19 147.44 177.12 147.64 C 178.04 147.84 178.96 147.25 179.16 146.32 L 179.37 145.33 C 179.57 144.40 178.98 143.49 178.05 143.29 C 177.12 143.09 176.21 143.68 176.01 144.61 Z M 175.86 145.42 L 175.54 146.39 C 175.24 147.28 175.73 148.25 176.62 148.54 C 177.52 148.84 178.48 148.35 178.78 147.46 L 179.10 146.50 C 179.40 145.60 178.91 144.63 178.01 144.34 C 177.12 144.04 176.15 144.53 175.86 145.42 Z M 175.62 146.19 L 175.19 147.12 C 174.78 147.96 175.14 148.98 175.99 149.38 C 176.84 149.78 177.85 149.42 178.25 148.57 L 178.69 147.65 C 179.10 146.80 178.73 145.79 177.89 145.39 C 177.04 144.99 176.03 145.35 175.62 146.19 Z M 175.29 146.95 L 174.76 147.79 C 174.27 148.58 174.51 149.62 175.29 150.12 C 176.08 150.61 177.12 150.37 177.62 149.58 L 178.15 148.74 C 178.64 147.95 178.41 146.91 177.62 146.42 C 176.83 145.92 175.79 146.16 175.29 146.95 Z M 174.87 147.66 L 174.27 148.43 C 173.70 149.16 173.83 150.21 174.56 150.78 C 175.29 151.35 176.34 151.22 176.91 150.49 L 177.51 149.72 C 178.08 148.99 177.95 147.94 177.22 147.37 C 176.49 146.80 175.44 146.93 174.87 147.66 Z M 174.37 148.33 L 173.70 149.05 C 173.08 149.72 173.12 150.78 173.79 151.40 C 174.47 152.02 175.52 151.98 176.14 151.31 L 176.81 150.59 C 177.43 149.92 177.39 148.86 176.72 148.24 C 176.04 147.62 174.99 147.66 174.37 148.33 Z M 173.79 148.97 L 173.06 149.66 C 172.39 150.28 172.36 151.33 172.98 152.00 C 173.61 152.67 174.66 152.70 175.33 152.07 L 176.06 151.39 C 176.72 150.76 176.76 149.71 176.13 149.05 C 175.50 148.38 174.46 148.35 173.79 148.97 Z M 173.14 149.59 L 172.37 150.23 C 171.67 150.81 171.57 151.85 172.15 152.55 C 172.73 153.26 173.77 153.36 174.47 152.78 L 175.24 152.14 C 175.95 151.56 176.05 150.52 175.47 149.81 C 174.88 149.11 173.84 149.01 173.14 149.59 Z M 172.45 150.17 L 171.64 150.76 C 170.91 151.30 170.75 152.33 171.29 153.07 C 171.83 153.80 172.86 153.96 173.59 153.42 L 174.40 152.83 C 175.13 152.29 175.29 151.26 174.75 150.53 C 174.21 149.79 173.18 149.63 172.45 150.17 Z M 171.71 150.72 L 170.88 151.27 C 170.12 151.77 169.91 152.79 170.41 153.54 C 170.91 154.30 171.93 154.51 172.69 154.01 L 173.52 153.47 C 174.28 152.97 174.49 151.95 173.99 151.19 C 173.49 150.43 172.47 150.22 171.71 150.72 Z M 170.94 151.23 L 170.09 151.74 C 169.31 152.20 169.06 153.21 169.52 153.99 C 169.98 154.77 170.99 155.02 171.77 154.56 L 172.62 154.05 C 173.40 153.59 173.66 152.58 173.19 151.80 C 172.73 151.02 171.72 150.77 170.94 151.23 Z M 170.15 151.70 L 169.28 152.18 C 168.48 152.61 168.18 153.60 168.61 154.40 C 169.04 155.20 170.04 155.49 170.83 155.06 L 171.71 154.59 C 172.51 154.16 172.80 153.17 172.37 152.37 C 171.94 151.57 170.95 151.27 170.15 151.70 Z M 169.33 152.15 L 168.43 152.59 C 167.62 152.99 167.29 153.97 167.68 154.78 C 168.08 155.60 169.07 155.93 169.88 155.53 L 170.78 155.09 C 171.59 154.69 171.92 153.71 171.53 152.90 C 171.13 152.08 170.14 151.75 169.33 152.15 Z M 168.48 152.57 L 167.56 152.98 C 166.74 153.35 166.37 154.32 166.74 155.15 C 167.11 155.97 168.08 156.34 168.91 155.97 L 169.83 155.55 C 170.65 155.18 171.02 154.21 170.65 153.39 C 170.28 152.56 169.31 152.20 168.48 152.57 Z M 167.61 152.96 L 166.67 153.35 C 165.83 153.70 165.43 154.65 165.78 155.49 C 166.12 156.33 167.08 156.72 167.92 156.38 L 168.86 155.99 C 169.70 155.64 170.09 154.68 169.75 153.85 C 169.40 153.01 168.45 152.62 167.61 152.96 Z M 166.71 153.33 L 165.76 153.70 C 164.91 154.02 164.49 154.96 164.81 155.81 C 165.13 156.65 166.08 157.08 166.92 156.76 L 167.87 156.39 C 168.72 156.07 169.14 155.13 168.82 154.28 C 168.50 153.44 167.56 153.01 166.71 153.33 Z M 165.80 153.68 L 164.85 154.01 C 164.00 154.31 163.55 155.24 163.84 156.09 C 164.14 156.95 165.07 157.40 165.93 157.10 L 166.88 156.77 C 167.73 156.48 168.18 155.54 167.89 154.69 C 167.59 153.84 166.66 153.38 165.80 153.68 Z M 164.90 153.99 L 163.97 154.29 C 163.11 154.56 162.62 155.47 162.89 156.34 C 163.16 157.20 164.08 157.68 164.95 157.41 L 165.88 157.12 C 166.74 156.85 167.22 155.93 166.95 155.07 C 166.68 154.20 165.76 153.72 164.90 153.99 Z M 164.02 154.27 L 163.06 154.53 C 162.18 154.77 161.67 155.67 161.91 156.55 C 162.15 157.42 163.05 157.93 163.92 157.69 L 164.89 157.43 C 165.76 157.19 166.28 156.29 166.04 155.42 C 165.80 154.54 164.90 154.03 164.02 154.27 Z M 163.12 154.52 L 162.14 154.74 C 161.26 154.94 160.71 155.82 160.91 156.70 C 161.12 157.58 161.99 158.14 162.88 157.93 L 163.85 157.71 C 164.74 157.51 165.29 156.63 165.08 155.75 C 164.88 154.87 164.00 154.32 163.12 154.52 Z M 162.22 154.73 L 161.25 154.90 C 160.36 155.06 159.77 155.91 159.93 156.80 C 160.09 157.69 160.94 158.28 161.83 158.12 L 162.80 157.95 C 163.69 157.79 164.28 156.94 164.12 156.05 C 163.96 155.16 163.11 154.57 162.22 154.73 Z M 161.33 154.89 L 160.35 155.02 C 159.45 155.14 158.82 155.96 158.94 156.86 C 159.06 157.76 159.88 158.39 160.78 158.27 L 161.76 158.14 C 162.66 158.02 163.29 157.19 163.17 156.30 C 163.05 155.40 162.22 154.77 161.33 154.89 Z M 160.42 155.01 L 159.43 155.10 C 158.53 155.18 157.86 155.97 157.94 156.87 C 158.02 157.78 158.82 158.44 159.72 158.36 L 160.71 158.27 C 161.61 158.19 162.27 157.40 162.19 156.50 C 162.11 155.60 161.32 154.93 160.42 155.01 Z M 159.52 155.09 L 158.52 155.13 C 157.61 155.16 156.90 155.91 156.93 156.82 C 156.96 157.72 157.72 158.43 158.62 158.40 L 159.63 158.37 C 160.53 158.34 161.24 157.58 161.21 156.68 C 161.18 155.77 160.42 155.06 159.52 155.09 Z M 158.63 155.13 L 157.63 155.09 C 156.73 155.05 155.96 155.76 155.93 156.66 C 155.89 157.56 156.60 158.32 157.50 158.36 L 158.50 158.40 C 159.41 158.44 160.17 157.73 160.21 156.83 C 160.24 155.92 159.54 155.16 158.63 155.13 Z M 157.78 155.10 L 156.79 154.97 C 155.90 154.85 155.07 155.48 154.95 156.37 C 154.83 157.27 155.46 158.09 156.36 158.21 L 157.35 158.35 C 158.24 158.47 159.07 157.84 159.19 156.94 C 159.31 156.05 158.68 155.22 157.78 155.10 Z M 156.98 155.01 L 155.99 154.75 C 155.11 154.52 154.22 155.05 153.99 155.92 C 153.77 156.80 154.29 157.69 155.17 157.92 L 156.16 158.18 C 157.04 158.40 157.93 157.88 158.16 157.00 C 158.39 156.13 157.86 155.23 156.98 155.01 Z M 156.22 154.83 L 155.30 154.44 C 154.47 154.08 153.50 154.47 153.15 155.30 C 152.80 156.13 153.18 157.10 154.02 157.45 L 154.94 157.84 C 155.77 158.19 156.73 157.81 157.09 156.97 C 157.44 156.14 157.05 155.18 156.22 154.83 Z M 155.56 154.57 L 154.74 154.04 C 153.98 153.54 152.97 153.75 152.47 154.51 C 151.98 155.26 152.19 156.28 152.94 156.77 L 153.76 157.31 C 154.51 157.81 155.53 157.60 156.03 156.84 C 156.52 156.09 156.31 155.07 155.56 154.57 Z M 155.01 154.25 L 154.33 153.58 C 153.70 152.93 152.66 152.93 152.02 153.56 C 151.38 154.20 151.37 155.23 152.01 155.88 L 152.68 156.56 C 153.31 157.20 154.35 157.21 154.99 156.57 C 155.63 155.93 155.64 154.90 155.01 154.25 Z M 154.55 153.84 L 154.02 153.03 C 153.53 152.27 152.52 152.05 151.76 152.55 C 151.00 153.04 150.78 154.05 151.27 154.81 L 151.79 155.62 C 152.29 156.38 153.30 156.59 154.06 156.10 C 154.82 155.61 155.04 154.60 154.55 153.84 Z M 154.16 153.27 L 153.76 152.36 C 153.40 151.52 152.44 151.14 151.61 151.50 C 150.77 151.85 150.39 152.82 150.75 153.65 L 151.14 154.57 C 151.50 155.40 152.46 155.79 153.30 155.43 C 154.13 155.07 154.51 154.11 154.16 153.27 Z M 153.84 152.57 L 153.56 151.56 C 153.32 150.68 152.41 150.17 151.54 150.41 C 150.66 150.66 150.15 151.56 150.39 152.43 L 150.67 153.44 C 150.91 154.32 151.82 154.83 152.69 154.59 C 153.57 154.34 154.08 153.44 153.84 152.57 Z M 153.60 151.73 L 153.43 150.72 C 153.29 149.83 152.44 149.22 151.54 149.37 C 150.65 149.51 150.04 150.36 150.19 151.26 L 150.35 152.26 C 150.50 153.16 151.35 153.77 152.24 153.62 C 153.14 153.47 153.74 152.63 153.60 151.73 Z M 153.45 150.86 L 153.37 149.84 C 153.30 148.94 152.50 148.26 151.59 148.34 C 150.69 148.41 150.01 149.20 150.08 150.11 L 150.17 151.12 C 150.24 152.03 151.04 152.71 151.94 152.63 C 152.85 152.56 153.53 151.76 153.45 150.86 Z M 153.38 149.95 L 153.36 148.93 C 153.34 148.02 152.59 147.30 151.68 147.31 C 150.77 147.33 150.04 148.08 150.06 149.00 L 150.08 150.01 C 150.09 150.92 150.85 151.65 151.76 151.63 C 152.67 151.61 153.40 150.86 153.38 149.95 Z M 153.36 149.02 L 153.40 148.03 C 153.42 147.12 152.71 146.35 151.79 146.32 C 150.88 146.29 150.11 147.01 150.09 147.93 L 150.05 148.91 C 150.02 149.83 150.74 150.59 151.66 150.62 C 152.57 150.65 153.33 149.93 153.36 149.02 Z M 153.40 148.11 L 153.48 147.07 C 153.55 146.16 152.86 145.36 151.95 145.29 C 151.03 145.22 150.23 145.90 150.16 146.82 L 150.08 147.85 C 150.01 148.77 150.70 149.56 151.61 149.63 C 152.53 149.70 153.33 149.02 153.40 148.11 Z M 153.47 147.16 L 153.60 146.14 C 153.72 145.23 153.08 144.39 152.17 144.27 C 151.26 144.16 150.42 144.80 150.30 145.71 L 150.17 146.73 C 150.05 147.64 150.69 148.47 151.60 148.59 C 152.52 148.71 153.35 148.07 153.47 147.16 Z M 153.59 146.26 L 153.78 145.31 C 153.96 144.40 153.38 143.52 152.48 143.34 C 151.57 143.16 150.69 143.74 150.51 144.64 L 150.32 145.59 C 150.13 146.50 150.72 147.38 151.62 147.56 C 152.52 147.74 153.40 147.16 153.59 146.26 Z M 153.75 145.45 L 154.02 144.53 C 154.28 143.64 153.77 142.71 152.89 142.45 C 152.00 142.19 151.07 142.70 150.81 143.59 L 150.54 144.50 C 150.28 145.39 150.79 146.32 151.67 146.58 C 152.56 146.84 153.49 146.33 153.75 145.45 Z M 153.96 144.71 L 154.36 143.76 C 154.72 142.91 154.32 141.93 153.46 141.57 C 152.61 141.21 151.63 141.61 151.27 142.46 L 150.87 143.41 C 150.51 144.26 150.91 145.24 151.76 145.60 C 152.62 145.96 153.60 145.56 153.96 144.71 Z M 154.23 144.01 L 154.76 143.18 C 155.26 142.39 155.03 141.36 154.24 140.86 C 153.46 140.36 152.42 140.59 151.93 141.38 L 151.40 142.21 C 150.90 143.00 151.13 144.03 151.91 144.53 C 152.70 145.03 153.74 144.80 154.23 144.01 Z M 154.52 143.48 L 155.22 142.79 C 155.88 142.14 155.89 141.08 155.24 140.42 C 154.58 139.75 153.52 139.74 152.86 140.40 L 152.16 141.08 C 151.50 141.73 151.49 142.80 152.14 143.46 C 152.80 144.12 153.86 144.13 154.52 143.48 Z M 154.85 143.08 L 155.75 142.58 C 156.57 142.13 156.87 141.10 156.42 140.29 C 155.97 139.47 154.94 139.17 154.13 139.62 L 153.22 140.11 C 152.41 140.56 152.11 141.59 152.56 142.41 C 153.01 143.23 154.03 143.53 154.85 143.08 Z M 155.30 142.76 L 156.27 142.55 C 157.19 142.35 157.77 141.44 157.58 140.53 C 157.38 139.61 156.47 139.03 155.55 139.23 L 154.58 139.44 C 153.66 139.64 153.08 140.54 153.28 141.46 C 153.48 142.38 154.38 142.96 155.30 142.76 Z M 155.68 142.58 L 156.61 142.71 C 157.54 142.84 158.40 142.18 158.53 141.24 C 158.66 140.31 158.00 139.45 157.07 139.32 L 156.14 139.19 C 155.21 139.07 154.35 139.72 154.22 140.66 C 154.09 141.59 154.75 142.45 155.68 142.58 Z M 155.98 142.50 L 156.77 142.96 C 157.59 143.43 158.64 143.16 159.12 142.34 C 159.59 141.52 159.31 140.47 158.50 139.99 L 157.70 139.53 C 156.88 139.05 155.83 139.33 155.35 140.15 C 154.88 140.97 155.16 142.02 155.98 142.50 Z M 156.43 142.70 L 157.15 143.41 C 157.83 144.08 158.92 144.07 159.58 143.39 C 160.25 142.71 160.24 141.63 159.56 140.96 L 158.84 140.25 C 158.16 139.59 157.07 139.60 156.41 140.27 C 155.75 140.95 155.75 142.04 156.43 142.70 Z M 157.03 143.27 L 157.70 144.10 C 158.30 144.83 159.38 144.94 160.12 144.34 C 160.85 143.74 160.96 142.66 160.36 141.92 L 159.69 141.10 C 159.09 140.36 158.01 140.25 157.27 140.86 C 156.53 141.46 156.43 142.54 157.03 143.27 Z M 157.68 144.07 L 158.30 144.86 C 158.88 145.60 159.96 145.73 160.71 145.14 C 161.46 144.55 161.58 143.47 161.00 142.73 L 160.38 141.94 C 159.79 141.20 158.71 141.07 157.96 141.66 C 157.22 142.25 157.09 143.33 157.68 144.07 Z M 158.33 144.90 L 158.99 145.67 C 159.60 146.40 160.69 146.49 161.41 145.87 C 162.14 145.26 162.22 144.17 161.61 143.45 L 160.96 142.68 C 160.34 141.95 159.26 141.86 158.53 142.48 C 157.81 143.09 157.72 144.18 158.33 144.90 Z M 159.09 145.78 L 159.80 146.49 C 160.47 147.16 161.56 147.15 162.23 146.48 C 162.90 145.81 162.89 144.72 162.22 144.05 L 161.51 143.34 C 160.84 142.67 159.75 142.67 159.08 143.35 C 158.41 144.02 158.41 145.11 159.09 145.78 Z M 159.99 146.65 L 160.85 147.28 C 161.61 147.85 162.69 147.69 163.25 146.93 C 163.82 146.17 163.66 145.09 162.89 144.53 L 162.03 143.89 C 161.27 143.32 160.19 143.48 159.63 144.24 C 159.06 145.00 159.22 146.08 159.99 146.65 Z M 161.15 147.46 L 162.07 147.89 C 162.93 148.28 163.95 147.91 164.35 147.05 C 164.74 146.19 164.37 145.18 163.51 144.78 L 162.59 144.35 C 161.73 143.96 160.72 144.33 160.32 145.19 C 159.92 146.04 160.29 147.06 161.15 147.46 Z M 162.56 148.02 L 163.47 148.14 C 164.40 148.27 165.26 147.62 165.39 146.69 C 165.52 145.75 164.87 144.90 163.93 144.77 L 163.02 144.64 C 162.09 144.52 161.23 145.17 161.10 146.10 C 160.98 147.03 161.63 147.89 162.56 148.02 Z M 164.17 148.08 L 165.04 147.83 C 165.94 147.57 166.45 146.63 166.19 145.74 C 165.93 144.84 165.00 144.32 164.10 144.58 L 163.23 144.83 C 162.33 145.09 161.82 146.03 162.08 146.93 C 162.34 147.82 163.28 148.34 164.17 148.08 Z M 165.52 147.58 L 166.33 147.02 C 167.09 146.49 167.28 145.45 166.75 144.69 C 166.22 143.93 165.18 143.74 164.42 144.27 L 163.61 144.83 C 162.85 145.36 162.67 146.40 163.19 147.16 C 163.72 147.92 164.76 148.11 165.52 147.58 Z M 166.51 146.85 L 167.28 146.12 C 167.94 145.50 167.97 144.45 167.35 143.79 C 166.72 143.12 165.67 143.09 165.01 143.72 L 164.24 144.44 C 163.58 145.07 163.55 146.11 164.17 146.78 C 164.80 147.44 165.84 147.47 166.51 146.85 Z M 167.30 146.08 L 167.42 145.96 C 168.06 145.32 168.06 144.28 167.42 143.64 C 166.78 143.00 165.74 143.00 165.10 143.64 L 164.98 143.76 C 164.34 144.40 164.34 145.44 164.98 146.08 C 165.62 146.72 166.66 146.72 167.30 146.08 Z"
      fill="black"
      fill-rule="nonzero" /><path d="M 164.25 133.07 L 163.38 133.61 C 162.54 134.13 162.29 135.24 162.81 136.08 C 163.34 136.92 164.44 137.17 165.28 136.65 L 166.15 136.11 C 166.99 135.58 167.25 134.48 166.72 133.64 C 166.20 132.80 165.09 132.54 164.25 133.07 Z M 163.23 133.73 L 162.45 134.34 C 161.67 134.95 161.54 136.07 162.15 136.85 C 162.76 137.62 163.89 137.76 164.66 137.15 L 165.44 136.53 C 166.21 135.92 166.35 134.80 165.74 134.02 C 165.13 133.25 164.00 133.12 163.23 133.73 Z M 162.16 134.64 L 161.56 135.40 C 160.95 136.17 161.07 137.29 161.84 137.90 C 162.61 138.51 163.73 138.38 164.34 137.61 L 164.95 136.85 C 165.56 136.08 165.43 134.96 164.66 134.35 C 163.89 133.74 162.77 133.87 162.16 134.64 Z M 161.31 135.87 L 160.97 136.75 C 160.62 137.65 161.07 138.67 161.97 139.02 C 162.88 139.37 163.90 138.92 164.25 138.02 L 164.59 137.14 C 164.94 136.23 164.49 135.21 163.59 134.86 C 162.68 134.51 161.66 134.96 161.31 135.87 Z M 160.90 137.17 L 160.77 138.16 C 160.65 139.10 161.32 139.97 162.27 140.09 C 163.22 140.21 164.08 139.54 164.20 138.59 L 164.32 137.60 C 164.44 136.65 163.77 135.79 162.83 135.67 C 161.88 135.55 161.02 136.22 160.90 137.17 Z M 160.79 138.50 L 160.87 139.54 C 160.94 140.47 161.76 141.17 162.69 141.10 C 163.62 141.03 164.32 140.22 164.25 139.28 L 164.18 138.25 C 164.11 137.31 163.29 136.61 162.36 136.68 C 161.42 136.75 160.72 137.57 160.79 138.50 Z M 160.95 139.83 L 161.20 140.80 C 161.43 141.69 162.35 142.23 163.24 141.99 C 164.13 141.76 164.67 140.85 164.43 139.95 L 164.18 138.99 C 163.95 138.09 163.03 137.56 162.14 137.79 C 161.25 138.02 160.71 138.94 160.95 139.83 Z M 161.29 141.03 L 161.69 141.94 C 162.05 142.79 163.03 143.17 163.87 142.81 C 164.71 142.44 165.10 141.47 164.73 140.63 L 164.34 139.72 C 163.98 138.87 163.00 138.49 162.16 138.85 C 161.31 139.22 160.93 140.19 161.29 141.03 Z M 161.78 142.11 L 162.28 142.98 C 162.74 143.77 163.75 144.04 164.54 143.58 C 165.33 143.13 165.60 142.12 165.14 141.33 L 164.64 140.46 C 164.18 139.67 163.17 139.40 162.38 139.86 C 161.59 140.31 161.32 141.32 161.78 142.11 Z M 162.37 143.10 L 162.94 143.92 C 163.46 144.67 164.49 144.85 165.23 144.33 C 165.98 143.81 166.16 142.79 165.64 142.04 L 165.06 141.21 C 164.54 140.47 163.52 140.29 162.77 140.81 C 162.03 141.33 161.85 142.35 162.37 143.10 Z M 162.99 143.99 L 163.60 144.78 C 164.16 145.49 165.19 145.63 165.91 145.07 C 166.62 144.52 166.75 143.49 166.20 142.77 L 165.59 141.98 C 165.04 141.27 164.01 141.13 163.29 141.69 C 162.57 142.24 162.44 143.27 162.99 143.99 Z M 163.61 144.78 L 164.22 145.57 C 164.78 146.29 165.81 146.42 166.52 145.86 C 167.24 145.31 167.37 144.28 166.81 143.56 L 166.20 142.77 C 165.64 142.06 164.61 141.92 163.90 142.48 C 163.18 143.03 163.05 144.06 163.61 144.78 Z M 164.18 145.51 L 164.75 146.33 C 165.28 147.07 166.30 147.24 167.04 146.72 C 167.78 146.20 167.95 145.17 167.43 144.43 L 166.85 143.62 C 166.33 142.88 165.31 142.70 164.57 143.23 C 163.83 143.75 163.65 144.77 164.18 145.51 Z M 164.67 146.21 L 165.16 147.05 C 165.62 147.83 166.63 148.10 167.41 147.64 C 168.20 147.18 168.46 146.17 168.00 145.39 L 167.51 144.55 C 167.05 143.76 166.05 143.50 165.26 143.96 C 164.48 144.42 164.21 145.43 164.67 146.21 Z M 165.07 146.90 L 165.47 147.79 C 165.85 148.62 166.83 149.00 167.67 148.62 C 168.50 148.24 168.87 147.26 168.50 146.42 L 168.10 145.54 C 167.72 144.70 166.74 144.33 165.90 144.70 C 165.07 145.08 164.69 146.06 165.07 146.90 Z M 165.39 147.62 L 165.69 148.57 C 165.98 149.46 166.92 149.94 167.80 149.66 C 168.68 149.38 169.17 148.43 168.89 147.55 L 168.58 146.60 C 168.30 145.71 167.35 145.23 166.47 145.51 C 165.59 145.79 165.11 146.74 165.39 147.62 Z M 165.63 148.39 L 165.83 149.42 C 166.01 150.33 166.91 150.93 167.82 150.75 C 168.74 150.56 169.33 149.67 169.15 148.76 L 168.95 147.73 C 168.77 146.82 167.88 146.22 166.96 146.40 C 166.04 146.59 165.45 147.48 165.63 148.39 Z M 165.79 149.24 L 165.88 150.22 C 165.97 151.16 166.80 151.85 167.74 151.77 C 168.68 151.68 169.37 150.85 169.28 149.91 L 169.19 148.93 C 169.11 147.99 168.27 147.30 167.33 147.39 C 166.40 147.47 165.70 148.31 165.79 149.24 Z M 165.86 150.06 L 165.86 151.08 C 165.86 152.03 166.63 152.80 167.58 152.80 C 168.53 152.80 169.31 152.03 169.31 151.08 L 169.31 150.07 C 169.31 149.11 168.54 148.34 167.58 148.34 C 166.63 148.34 165.86 149.11 165.86 150.06 Z M 165.85 150.91 L 165.75 151.92 C 165.66 152.88 166.36 153.73 167.32 153.82 C 168.28 153.91 169.13 153.21 169.22 152.25 L 169.32 151.24 C 169.41 150.29 168.71 149.44 167.75 149.34 C 166.79 149.25 165.94 149.95 165.85 150.91 Z M 165.76 151.73 L 165.57 152.71 C 165.37 153.66 165.98 154.59 166.94 154.78 C 167.89 154.98 168.81 154.36 169.01 153.41 L 169.21 152.44 C 169.40 151.49 168.79 150.56 167.84 150.36 C 166.89 150.17 165.96 150.78 165.76 151.73 Z M 165.61 152.51 L 165.34 153.33 C 165.04 154.26 165.54 155.26 166.47 155.56 C 167.40 155.86 168.40 155.36 168.70 154.43 L 168.97 153.61 C 169.27 152.68 168.76 151.68 167.83 151.38 C 166.91 151.08 165.91 151.59 165.61 152.51 Z M 165.40 153.17 L 165.04 153.98 C 164.65 154.87 165.05 155.91 165.94 156.31 C 166.84 156.70 167.88 156.30 168.28 155.41 L 168.64 154.60 C 169.03 153.70 168.63 152.66 167.74 152.27 C 166.84 151.87 165.80 152.27 165.40 153.17 Z M 165.10 153.85 L 164.64 154.70 C 164.18 155.56 164.50 156.64 165.36 157.10 C 166.22 157.56 167.30 157.24 167.76 156.38 L 168.22 155.53 C 168.68 154.67 168.36 153.60 167.50 153.13 C 166.64 152.67 165.57 152.99 165.10 153.85 Z M 164.68 154.63 L 164.12 155.57 C 163.62 156.41 163.89 157.50 164.73 158.00 C 165.56 158.51 166.65 158.23 167.15 157.40 L 167.72 156.45 C 168.22 155.62 167.95 154.53 167.11 154.03 C 166.28 153.52 165.19 153.79 164.68 154.63 Z M 164.14 155.54 L 163.53 156.51 C 163.01 157.34 163.26 158.43 164.09 158.95 C 164.91 159.47 166.01 159.22 166.53 158.39 L 167.14 157.43 C 167.66 156.60 167.41 155.51 166.58 154.99 C 165.75 154.47 164.66 154.72 164.14 155.54 Z M 163.53 156.50 L 163.05 157.27 C 162.52 158.09 162.76 159.19 163.59 159.71 C 164.41 160.24 165.51 160.00 166.03 159.17 L 166.52 158.40 C 167.05 157.58 166.80 156.48 165.98 155.96 C 165.15 155.43 164.06 155.68 163.53 156.50 Z M 163.05 157.26 L 162.52 158.08 C 161.99 158.91 162.23 160.00 163.06 160.53 C 163.88 161.06 164.98 160.82 165.50 160.00 L 166.03 159.18 C 166.56 158.35 166.32 157.26 165.50 156.73 C 164.67 156.20 163.58 156.44 163.05 157.26 Z M 162.53 158.08 L 161.97 158.93 C 161.44 159.76 161.68 160.85 162.50 161.38 C 163.32 161.91 164.42 161.68 164.95 160.86 L 165.50 160.00 C 166.03 159.18 165.80 158.08 164.97 157.55 C 164.15 157.02 163.06 157.26 162.53 158.08 Z M 161.98 158.93 L 161.41 159.81 C 160.87 160.63 161.11 161.72 161.93 162.26 C 162.75 162.79 163.85 162.56 164.38 161.74 L 164.95 160.86 C 165.48 160.04 165.25 158.94 164.43 158.41 C 163.61 157.88 162.51 158.11 161.98 158.93 Z M 161.41 159.80 L 160.84 160.68 C 160.30 161.50 160.53 162.60 161.35 163.13 C 162.17 163.67 163.27 163.44 163.80 162.62 L 164.38 161.74 C 164.91 160.92 164.68 159.82 163.86 159.29 C 163.04 158.75 161.95 158.98 161.41 159.80 Z M 160.84 160.68 L 160.27 161.54 C 159.73 162.36 159.96 163.46 160.77 163.99 C 161.59 164.53 162.69 164.31 163.23 163.49 L 163.80 162.62 C 164.34 161.81 164.11 160.71 163.29 160.17 C 162.48 159.63 161.38 159.86 160.84 160.68 Z M 160.27 161.54 L 159.72 162.37 C 159.18 163.19 159.40 164.29 160.21 164.83 C 161.03 165.37 162.13 165.15 162.67 164.33 L 163.22 163.49 C 163.76 162.68 163.54 161.58 162.73 161.04 C 161.91 160.50 160.81 160.72 160.27 161.54 Z M 159.72 162.37 L 159.06 163.35 C 158.52 164.17 158.73 165.27 159.55 165.81 C 160.36 166.36 161.46 166.14 162.00 165.33 L 162.66 164.34 C 163.21 163.53 162.99 162.43 162.18 161.88 C 161.36 161.34 160.26 161.56 159.72 162.37 Z M 159.06 163.35 L 158.44 164.27 C 157.89 165.08 158.11 166.18 158.92 166.73 C 159.73 167.28 160.83 167.06 161.37 166.25 L 162.00 165.33 C 162.55 164.52 162.33 163.42 161.52 162.87 C 160.71 162.33 159.61 162.54 159.06 163.35 Z M 158.44 164.27 L 157.86 165.12 C 157.31 165.93 157.52 167.03 158.33 167.58 C 159.14 168.13 160.24 167.92 160.79 167.11 L 161.37 166.26 C 161.92 165.45 161.71 164.35 160.90 163.80 C 160.10 163.25 158.99 163.46 158.44 164.27 Z M 157.86 165.12 L 157.32 165.91 C 156.77 166.71 156.98 167.82 157.79 168.37 C 158.59 168.92 159.70 168.71 160.25 167.91 L 160.79 167.12 C 161.34 166.31 161.13 165.21 160.32 164.66 C 159.52 164.10 158.42 164.31 157.86 165.12 Z M 157.32 165.91 L 156.83 166.63 C 156.28 167.44 156.48 168.54 157.29 169.09 C 158.10 169.64 159.20 169.44 159.75 168.63 L 160.25 167.91 C 160.80 167.10 160.59 166.00 159.79 165.44 C 158.98 164.89 157.88 165.10 157.32 165.91 Z M 156.83 166.63 L 156.34 167.35 C 155.79 168.16 156.00 169.26 156.81 169.81 C 157.62 170.36 158.72 170.15 159.27 169.34 L 159.76 168.63 C 160.31 167.82 160.10 166.72 159.29 166.17 C 158.48 165.62 157.38 165.82 156.83 166.63 Z M 156.34 167.36 L 155.72 168.28 C 155.17 169.09 155.39 170.19 156.20 170.73 C 157.01 171.28 158.11 171.06 158.66 170.25 L 159.27 169.33 C 159.82 168.52 159.60 167.42 158.79 166.87 C 157.98 166.33 156.88 166.55 156.34 167.36 Z M 155.71 168.30 L 155.17 169.12 C 154.64 169.94 154.86 171.03 155.68 171.56 C 156.49 172.10 157.59 171.87 158.12 171.06 L 158.66 170.23 C 159.20 169.42 158.97 168.32 158.16 167.79 C 157.34 167.25 156.25 167.48 155.71 168.30 Z M 155.16 169.14 L 154.67 169.91 C 154.14 170.73 154.38 171.82 155.20 172.35 C 156.02 172.87 157.11 172.63 157.63 171.82 L 158.13 171.04 C 158.66 170.22 158.42 169.13 157.60 168.61 C 156.78 168.08 155.69 168.32 155.16 169.14 Z M 154.66 169.93 L 154.19 170.68 C 153.67 171.51 153.92 172.59 154.74 173.11 C 155.56 173.63 156.65 173.38 157.17 172.55 L 157.64 171.80 C 158.16 170.98 157.91 169.89 157.09 169.37 C 156.26 168.86 155.18 169.11 154.66 169.93 Z M 154.18 170.70 L 153.71 171.47 C 153.20 172.29 153.45 173.37 154.28 173.88 C 155.10 174.39 156.18 174.14 156.69 173.31 L 157.17 172.54 C 157.68 171.72 157.42 170.63 156.60 170.13 C 155.77 169.62 154.69 169.87 154.18 170.70 Z M 153.70 171.48 L 153.19 172.32 C 152.69 173.14 152.95 174.22 153.78 174.72 C 154.61 175.23 155.68 174.96 156.19 174.14 L 156.70 173.30 C 157.20 172.47 156.94 171.40 156.11 170.89 C 155.28 170.39 154.21 170.65 153.70 171.48 Z M 153.19 172.33 L 152.63 173.26 C 152.13 174.09 152.40 175.16 153.23 175.66 C 154.05 176.16 155.13 175.89 155.62 175.06 L 156.19 174.13 C 156.68 173.30 156.42 172.23 155.59 171.73 C 154.76 171.23 153.69 171.50 153.19 172.33 Z M 152.63 173.27 L 152.11 174.15 C 151.61 174.97 151.88 176.05 152.71 176.54 C 153.54 177.03 154.61 176.76 155.10 175.93 L 155.62 175.06 C 156.12 174.23 155.85 173.16 155.02 172.67 C 154.19 172.17 153.12 172.44 152.63 173.27 Z M 152.11 174.15 L 151.62 174.97 C 151.13 175.79 151.41 176.86 152.23 177.35 C 153.06 177.84 154.13 177.57 154.62 176.74 L 155.10 175.93 C 155.59 175.10 155.32 174.03 154.49 173.54 C 153.66 173.05 152.60 173.33 152.11 174.15 Z M 151.62 174.98 L 151.12 175.84 C 150.63 176.66 150.91 177.73 151.74 178.21 C 152.56 178.70 153.63 178.42 154.11 177.59 L 154.62 176.73 C 155.10 175.91 154.83 174.84 154.00 174.36 C 153.17 173.87 152.11 174.15 151.62 174.98 Z M 151.12 175.84 L 150.60 176.74 C 150.12 177.56 150.40 178.62 151.23 179.10 C 152.05 179.59 153.12 179.30 153.60 178.48 L 154.11 177.59 C 154.60 176.76 154.31 175.70 153.49 175.22 C 152.66 174.74 151.60 175.02 151.12 175.84 Z M 150.60 176.75 L 150.08 177.65 C 149.60 178.48 149.89 179.54 150.72 180.01 C 151.55 180.49 152.60 180.20 153.08 179.37 L 153.60 178.47 C 154.07 177.64 153.79 176.58 152.96 176.11 C 152.13 175.63 151.07 175.92 150.60 176.75 Z M 150.07 177.66 L 149.56 178.57 C 149.09 179.41 149.38 180.46 150.22 180.93 C 151.05 181.40 152.10 181.10 152.57 180.27 L 153.08 179.36 C 153.55 178.53 153.26 177.48 152.43 177.01 C 151.60 176.54 150.54 176.83 150.07 177.66 Z M 149.56 178.59 L 149.05 179.51 C 148.59 180.34 148.89 181.39 149.72 181.85 C 150.55 182.31 151.60 182.01 152.06 181.18 L 152.57 180.26 C 153.03 179.43 152.73 178.38 151.90 177.92 C 151.07 177.46 150.02 177.76 149.56 178.59 Z M 149.05 179.53 L 148.56 180.43 C 148.11 181.26 148.42 182.30 149.25 182.75 C 150.08 183.20 151.12 182.90 151.57 182.06 L 152.06 181.16 C 152.51 180.33 152.20 179.29 151.37 178.84 C 150.54 178.39 149.50 178.69 149.05 179.53 Z M 148.56 180.45 L 148.09 181.33 C 147.64 182.16 147.96 183.20 148.79 183.64 C 149.62 184.08 150.65 183.77 151.10 182.94 L 151.57 182.05 C 152.01 181.22 151.70 180.18 150.87 179.74 C 150.03 179.30 149.00 179.61 148.56 180.45 Z M 148.09 181.35 L 147.63 182.21 C 147.20 183.05 147.52 184.07 148.35 184.51 C 149.18 184.94 150.21 184.62 150.64 183.79 L 151.10 182.92 C 151.53 182.09 151.21 181.06 150.38 180.63 C 149.55 180.20 148.52 180.52 148.09 181.35 Z M 147.64 182.23 L 147.20 183.08 C 146.77 183.91 147.10 184.92 147.93 185.35 C 148.76 185.78 149.78 185.45 150.21 184.62 L 150.64 183.77 C 151.07 182.94 150.74 181.93 149.91 181.50 C 149.08 181.07 148.06 181.40 147.64 182.23 Z M 147.20 183.09 L 146.73 184.02 C 146.31 184.85 146.65 185.86 147.47 186.28 C 148.30 186.70 149.32 186.37 149.73 185.54 L 150.21 184.61 C 150.62 183.78 150.29 182.76 149.46 182.35 C 148.63 181.93 147.62 182.26 147.20 183.09 Z M 146.73 184.04 L 146.26 184.99 C 145.86 185.82 146.20 186.82 147.03 187.23 C 147.86 187.64 148.87 187.29 149.27 186.46 L 149.74 185.52 C 150.14 184.69 149.80 183.68 148.97 183.28 C 148.14 182.87 147.14 183.21 146.73 184.04 Z M 146.26 185.01 L 145.83 185.92 C 145.44 186.76 145.80 187.75 146.63 188.14 C 147.46 188.54 148.46 188.18 148.85 187.34 L 149.28 186.43 C 149.67 185.60 149.31 184.61 148.48 184.21 C 147.65 183.82 146.65 184.18 146.26 185.01 Z M 145.82 185.96 L 145.43 186.83 C 145.06 187.67 145.44 188.66 146.28 189.03 C 147.12 189.40 148.10 189.02 148.48 188.18 L 148.86 187.31 C 149.23 186.47 148.85 185.48 148.01 185.11 C 147.17 184.74 146.19 185.12 145.82 185.96 Z M 145.42 186.89 L 145.07 187.76 C 144.72 188.61 145.13 189.57 145.98 189.92 C 146.83 190.26 147.79 189.85 148.14 189.00 L 148.49 188.13 C 148.83 187.28 148.43 186.31 147.58 185.97 C 146.73 185.63 145.76 186.04 145.42 186.89 Z M 145.04 187.82 L 144.69 188.81 C 144.38 189.67 144.83 190.62 145.69 190.93 C 146.55 191.24 147.50 190.79 147.81 189.93 L 148.16 188.94 C 148.47 188.08 148.02 187.13 147.16 186.82 C 146.30 186.51 145.35 186.96 145.04 187.82 Z M 144.66 188.87 L 144.36 189.82 C 144.09 190.69 144.57 191.63 145.45 191.90 C 146.33 192.18 147.26 191.69 147.54 190.82 L 147.83 189.87 C 148.11 188.99 147.62 188.06 146.75 187.78 C 145.87 187.51 144.94 187.99 144.66 188.87 Z M 144.35 189.85 L 144.08 190.78 C 143.82 191.66 144.34 192.59 145.22 192.84 C 146.11 193.10 147.03 192.59 147.29 191.70 L 147.55 190.78 C 147.81 189.89 147.30 188.97 146.41 188.71 C 145.53 188.46 144.60 188.97 144.35 189.85 Z M 144.07 190.79 L 143.96 191.18 C 143.71 192.07 144.23 192.99 145.12 193.24 C 146.01 193.49 146.93 192.97 147.18 192.08 L 147.29 191.69 C 147.54 190.80 147.02 189.88 146.13 189.63 C 145.25 189.38 144.32 189.90 144.07 190.79 Z"
      fill="black"
      fill-rule="nonzero" /><path d="M 168.29 165.32 L 169.35 165.29 C 170.35 165.27 171.14 164.44 171.12 163.44 C 171.09 162.44 170.26 161.65 169.27 161.68 L 168.21 161.70 C 167.21 161.72 166.42 162.55 166.44 163.55 C 166.47 164.55 167.29 165.34 168.29 165.32 Z M 169.33 165.31 L 170.37 165.30 C 171.38 165.29 172.19 164.46 172.18 163.45 C 172.17 162.44 171.34 161.63 170.33 161.64 L 169.29 161.65 C 168.28 161.66 167.47 162.49 167.48 163.50 C 167.49 164.52 168.32 165.33 169.33 165.31 Z M 170.33 165.33 L 171.34 165.34 C 172.36 165.35 173.20 164.53 173.22 163.51 C 173.23 162.49 172.41 161.65 171.39 161.63 L 170.38 161.62 C 169.35 161.60 168.51 162.42 168.50 163.45 C 168.48 164.47 169.30 165.31 170.33 165.33 Z M 171.26 165.36 L 172.23 165.41 C 173.27 165.47 174.15 164.67 174.21 163.64 C 174.26 162.60 173.47 161.72 172.43 161.66 L 171.46 161.61 C 170.43 161.56 169.54 162.35 169.49 163.39 C 169.43 164.42 170.23 165.30 171.26 165.36 Z M 172.12 165.43 L 173.03 165.53 C 174.07 165.65 175.01 164.90 175.13 163.85 C 175.25 162.81 174.50 161.87 173.45 161.75 L 172.55 161.65 C 171.50 161.53 170.56 162.28 170.44 163.32 C 170.33 164.37 171.08 165.31 172.12 165.43 Z M 172.86 165.52 L 173.87 165.73 C 174.91 165.95 175.93 165.28 176.14 164.23 C 176.36 163.19 175.69 162.18 174.64 161.96 L 173.63 161.75 C 172.59 161.54 171.57 162.21 171.36 163.25 C 171.14 164.29 171.81 165.31 172.86 165.52 Z M 173.66 165.70 L 174.60 166.01 C 175.62 166.34 176.72 165.78 177.05 164.75 C 177.38 163.73 176.82 162.63 175.79 162.30 L 174.86 161.99 C 173.83 161.66 172.73 162.22 172.40 163.25 C 172.07 164.27 172.63 165.37 173.66 165.70 Z M 174.39 165.95 L 175.28 166.35 C 176.27 166.80 177.44 166.35 177.89 165.36 C 178.33 164.36 177.89 163.19 176.89 162.75 L 176.00 162.35 C 175.01 161.90 173.84 162.35 173.39 163.34 C 172.95 164.34 173.39 165.51 174.39 165.95 Z M 175.10 166.29 L 175.97 166.78 C 176.93 167.33 178.15 166.99 178.69 166.03 C 179.24 165.06 178.90 163.84 177.94 163.30 L 177.07 162.81 C 176.11 162.26 174.89 162.60 174.34 163.56 C 173.80 164.53 174.14 165.75 175.10 166.29 Z M 175.84 166.72 L 176.60 167.23 C 177.53 167.84 178.78 167.58 179.40 166.65 C 180.01 165.72 179.76 164.47 178.83 163.86 L 178.07 163.36 C 177.14 162.74 175.88 163.00 175.27 163.93 C 174.66 164.86 174.91 166.11 175.84 166.72 Z M 176.51 167.18 L 177.27 167.73 C 178.17 168.40 179.44 168.20 180.11 167.30 C 180.77 166.40 180.58 165.13 179.67 164.47 L 178.91 163.91 C 178.01 163.25 176.74 163.44 176.08 164.34 C 175.42 165.24 175.61 166.51 176.51 167.18 Z M 177.20 167.69 L 177.98 168.31 C 178.86 169.02 180.14 168.87 180.84 168.00 C 181.54 167.12 181.40 165.84 180.52 165.13 L 179.74 164.51 C 178.87 163.81 177.59 163.95 176.88 164.83 C 176.18 165.71 176.32 166.99 177.20 167.69 Z M 177.92 168.28 L 178.72 168.96 C 179.58 169.69 180.87 169.59 181.60 168.74 C 182.34 167.88 182.24 166.59 181.38 165.85 L 180.58 165.17 C 179.72 164.44 178.43 164.54 177.70 165.39 C 176.96 166.25 177.06 167.54 177.92 168.28 Z M 178.68 168.93 L 179.49 169.67 C 180.34 170.43 181.63 170.36 182.39 169.52 C 183.15 168.68 183.08 167.38 182.24 166.62 L 181.42 165.88 C 180.58 165.12 179.28 165.19 178.52 166.03 C 177.76 166.88 177.83 168.17 178.68 168.93 Z M 179.46 169.65 L 180.21 170.35 C 181.04 171.12 182.34 171.08 183.12 170.25 C 183.90 169.42 183.85 168.11 183.02 167.34 L 182.27 166.64 C 181.44 165.86 180.14 165.91 179.36 166.74 C 178.59 167.57 178.63 168.87 179.46 169.65 Z M 180.18 170.33 L 180.93 171.05 C 181.76 171.84 183.06 171.81 183.85 170.99 C 184.64 170.17 184.62 168.87 183.79 168.08 L 183.04 167.35 C 182.22 166.56 180.92 166.59 180.13 167.41 C 179.34 168.23 179.36 169.54 180.18 170.33 Z M 180.91 171.04 L 181.65 171.76 C 182.47 172.56 183.77 172.55 184.58 171.74 C 185.38 170.92 185.37 169.62 184.55 168.82 L 183.81 168.09 C 183.00 167.29 181.69 167.30 180.89 168.11 C 180.09 168.93 180.10 170.24 180.91 171.04 Z M 181.63 171.75 L 182.34 172.46 C 183.15 173.27 184.46 173.27 185.27 172.47 C 186.08 171.66 186.08 170.35 185.28 169.54 L 184.57 168.83 C 183.76 168.02 182.45 168.01 181.64 168.82 C 180.83 169.63 180.83 170.94 181.63 171.75 Z M 182.33 172.45 L 182.99 173.13 C 183.79 173.95 185.10 173.96 185.92 173.16 C 186.74 172.36 186.76 171.05 185.96 170.23 L 185.29 169.55 C 184.49 168.73 183.18 168.72 182.36 169.52 C 181.54 170.32 181.53 171.63 182.33 172.45 Z M 182.97 173.11 L 183.70 173.87 C 184.49 174.70 185.81 174.73 186.63 173.93 C 187.46 173.14 187.49 171.82 186.70 170.99 L 185.97 170.24 C 185.18 169.41 183.86 169.38 183.03 170.18 C 182.21 170.97 182.18 172.29 182.97 173.11 Z M 183.68 173.85 L 184.40 174.62 C 185.18 175.46 186.50 175.50 187.34 174.72 C 188.17 173.94 188.22 172.62 187.43 171.78 L 186.71 171.01 C 185.93 170.17 184.61 170.13 183.78 170.91 C 182.94 171.70 182.89 173.01 183.68 173.85 Z M 184.38 174.61 L 185.03 175.31 C 185.81 176.16 187.12 176.22 187.97 175.44 C 188.81 174.67 188.87 173.35 188.10 172.51 L 187.45 171.80 C 186.67 170.95 185.36 170.89 184.51 171.67 C 183.67 172.44 183.61 173.76 184.38 174.61 Z M 185.02 175.30 L 185.64 175.99 C 186.41 176.84 187.72 176.90 188.58 176.13 C 189.43 175.37 189.49 174.05 188.72 173.20 L 188.11 172.52 C 187.34 171.66 186.02 171.60 185.17 172.37 C 184.32 173.14 184.25 174.45 185.02 175.30 Z M 185.64 175.99 L 186.28 176.70 C 187.05 177.55 188.37 177.62 189.22 176.85 C 190.07 176.08 190.14 174.77 189.37 173.92 L 188.72 173.20 C 187.96 172.35 186.64 172.28 185.79 173.05 C 184.94 173.82 184.87 175.13 185.64 175.99 Z M 186.29 176.70 L 186.96 177.45 C 187.73 178.30 189.04 178.36 189.90 177.59 C 190.75 176.82 190.81 175.51 190.04 174.66 L 189.37 173.91 C 188.60 173.06 187.28 173.00 186.43 173.77 C 185.58 174.54 185.52 175.85 186.29 176.70 Z M 186.96 177.45 L 187.64 178.19 C 188.41 179.04 189.72 179.11 190.57 178.34 C 191.42 177.57 191.49 176.26 190.72 175.41 L 190.04 174.66 C 189.27 173.81 187.96 173.75 187.11 174.52 C 186.26 175.28 186.20 176.60 186.96 177.45 Z M 187.64 178.19 L 188.31 178.93 C 189.08 179.78 190.39 179.85 191.24 179.08 C 192.09 178.31 192.15 177.00 191.39 176.15 L 190.72 175.41 C 189.95 174.56 188.64 174.50 187.79 175.26 C 186.94 176.03 186.88 177.34 187.64 178.19 Z M 188.31 178.93 L 189.00 179.69 C 189.76 180.54 191.07 180.61 191.92 179.84 C 192.77 179.08 192.84 177.77 192.07 176.92 L 191.39 176.15 C 190.62 175.30 189.31 175.24 188.46 176.00 C 187.61 176.77 187.54 178.08 188.31 178.93 Z M 189.00 179.69 L 189.67 180.43 C 190.43 181.28 191.74 181.35 192.59 180.59 C 193.44 179.83 193.51 178.52 192.75 177.67 L 192.08 176.92 C 191.31 176.07 190.00 176.00 189.15 176.76 C 188.30 177.53 188.23 178.84 189.00 179.69 Z M 189.67 180.43 L 190.32 181.16 C 191.08 182.01 192.39 182.08 193.24 181.32 C 194.09 180.56 194.16 179.25 193.40 178.40 L 192.75 177.67 C 191.98 176.82 190.68 176.75 189.83 177.51 C 188.98 178.27 188.91 179.58 189.67 180.43 Z M 190.32 181.16 L 190.98 181.89 C 191.74 182.74 193.05 182.82 193.89 182.06 C 194.74 181.30 194.82 179.99 194.06 179.14 L 193.40 178.41 C 192.64 177.56 191.33 177.49 190.49 178.24 C 189.64 179.00 189.56 180.31 190.32 181.16 Z M 190.99 181.89 L 191.66 182.64 C 192.41 183.49 193.71 183.56 194.56 182.80 C 195.41 182.05 195.48 180.74 194.72 179.90 L 194.05 179.15 C 193.30 178.30 191.99 178.23 191.15 178.99 C 190.30 179.74 190.23 181.04 190.99 181.89 Z M 191.66 182.64 L 192.33 183.38 C 193.08 184.23 194.38 184.30 195.22 183.54 C 196.07 182.79 196.14 181.49 195.39 180.65 L 194.72 179.90 C 193.96 179.06 192.67 178.99 191.82 179.74 C 190.98 180.50 190.91 181.79 191.66 182.64 Z M 192.33 183.37 L 192.99 184.11 C 193.74 184.95 195.03 185.03 195.87 184.27 C 196.71 183.52 196.79 182.23 196.04 181.39 L 195.38 180.66 C 194.63 179.81 193.34 179.74 192.50 180.49 C 191.66 181.24 191.58 182.53 192.33 183.37 Z M 192.99 184.10 L 193.60 184.79 C 194.35 185.63 195.64 185.70 196.47 184.95 C 197.31 184.21 197.39 182.92 196.64 182.08 L 196.03 181.40 C 195.29 180.56 194.00 180.48 193.16 181.23 C 192.32 181.98 192.25 183.26 192.99 184.10 Z M 193.61 184.78 L 194.24 185.49 C 194.98 186.33 196.26 186.41 197.10 185.66 C 197.94 184.92 198.01 183.64 197.27 182.80 L 196.64 182.09 C 195.89 181.25 194.61 181.18 193.78 181.92 C 192.94 182.66 192.86 183.94 193.61 184.78 Z M 194.24 185.48 L 194.94 186.27 C 195.67 187.10 196.95 187.18 197.78 186.45 C 198.62 185.71 198.70 184.43 197.96 183.60 L 197.27 182.81 C 196.53 181.98 195.26 181.90 194.42 182.64 C 193.58 183.37 193.50 184.65 194.24 185.48 Z M 194.94 186.26 L 195.62 187.04 C 196.36 187.87 197.63 187.96 198.46 187.22 C 199.29 186.49 199.38 185.22 198.64 184.39 L 197.96 183.61 C 197.23 182.78 195.96 182.69 195.12 183.42 C 194.29 184.16 194.21 185.42 194.94 186.26 Z M 195.63 187.03 L 196.26 187.75 C 196.98 188.58 198.24 188.66 199.07 187.94 C 199.90 187.21 199.99 185.95 199.26 185.12 L 198.64 184.40 C 197.91 183.57 196.65 183.49 195.82 184.21 C 194.99 184.94 194.90 186.20 195.63 187.03 Z M 196.26 187.73 L 196.92 188.49 C 197.64 189.32 198.89 189.41 199.72 188.69 C 200.55 187.97 200.64 186.72 199.92 185.89 L 199.26 185.13 C 198.54 184.30 197.29 184.21 196.46 184.93 C 195.63 185.65 195.54 186.91 196.26 187.73 Z M 196.92 188.48 L 197.60 189.26 C 198.31 190.09 199.56 190.18 200.38 189.47 C 201.21 188.76 201.30 187.51 200.59 186.69 L 199.91 185.90 C 199.20 185.08 197.96 184.98 197.13 185.70 C 196.30 186.41 196.21 187.65 196.92 188.48 Z M 197.60 189.25 L 198.28 190.04 C 198.98 190.86 200.22 190.96 201.05 190.26 C 201.87 189.55 201.97 188.32 201.26 187.49 L 200.59 186.70 C 199.88 185.88 198.64 185.78 197.82 186.48 C 197.00 187.19 196.90 188.43 197.60 189.25 Z M 198.29 190.02 L 198.97 190.83 C 199.66 191.65 200.89 191.75 201.71 191.06 C 202.53 190.37 202.63 189.14 201.94 188.32 L 201.26 187.51 C 200.56 186.69 199.34 186.59 198.52 187.28 C 197.70 187.97 197.59 189.20 198.29 190.02 Z M 198.98 190.79 L 199.65 191.60 C 200.32 192.42 201.53 192.53 202.34 191.86 C 203.15 191.19 203.27 189.98 202.60 189.17 L 201.92 188.36 C 201.25 187.54 200.05 187.43 199.24 188.10 C 198.42 188.77 198.31 189.98 198.98 190.79 Z M 199.66 191.55 L 200.30 192.34 C 200.94 193.15 202.12 193.28 202.92 192.64 C 203.73 191.99 203.86 190.82 203.22 190.01 L 202.59 189.22 C 201.94 188.41 200.76 188.28 199.96 188.92 C 199.15 189.57 199.02 190.75 199.66 191.55 Z M 200.30 192.28 L 200.89 193.06 C 201.50 193.86 202.65 194.02 203.45 193.41 C 204.26 192.80 204.41 191.65 203.80 190.84 L 203.21 190.07 C 202.60 189.27 201.45 189.11 200.65 189.72 C 199.85 190.33 199.69 191.48 200.30 192.28 Z M 200.88 192.98 L 201.42 193.74 C 201.99 194.55 203.11 194.74 203.92 194.17 C 204.72 193.60 204.91 192.48 204.34 191.67 L 203.80 190.92 C 203.23 190.11 202.12 189.92 201.31 190.49 C 200.50 191.06 200.31 192.18 200.88 192.98 Z M 201.41 193.66 L 201.97 194.53 C 202.49 195.34 203.58 195.58 204.39 195.05 C 205.21 194.53 205.44 193.44 204.92 192.63 L 204.36 191.76 C 203.83 190.94 202.75 190.71 201.93 191.23 C 201.12 191.76 200.88 192.84 201.41 193.66 Z M 201.95 194.45 L 202.46 195.32 C 202.94 196.14 204.00 196.42 204.82 195.94 C 205.64 195.46 205.92 194.40 205.44 193.58 L 204.93 192.71 C 204.45 191.88 203.39 191.61 202.57 192.09 C 201.75 192.57 201.47 193.63 201.95 194.45 Z M 202.46 195.26 L 202.93 196.12 C 203.38 196.94 204.40 197.24 205.23 196.80 C 206.05 196.35 206.35 195.32 205.91 194.50 L 205.44 193.64 C 204.99 192.82 203.96 192.51 203.14 192.96 C 202.32 193.41 202.01 194.43 202.46 195.26 Z M 202.94 196.08 L 203.38 196.91 C 203.80 197.73 204.81 198.05 205.63 197.62 C 206.44 197.19 206.76 196.19 206.33 195.37 L 205.89 194.54 C 205.47 193.72 204.46 193.41 203.64 193.83 C 202.83 194.26 202.51 195.27 202.94 196.08 Z"
      fill="black"
      fill-rule="nonzero" /></svg>