<svg xmlns="http://www.w3.org/2000/svg" width="300" height="300" viewBox="0 0 300 300">
<path d="M 130.00 105.56 L 129.40 106.30 C 128.83 107.02 128.95 108.07 129.67 108.64 C 130.39 109.22 131.44 109.10 132.01 108.38 L 132.60 107.63 C 133.17 106.91 133.06 105.87 132.34 105.29 C 131.62 104.72 130.57 104.84 130.00 105.56 Z M 129.38 106.31 L 128.78 107.08 C 128.21 107.81 128.34 108.87 129.07 109.44 C 129.81 110.01 130.87 109.88 131.44 109.14 L 132.04 108.37 C 132.61 107.64 132.47 106.58 131.74 106.01 C 131.00 105.44 129.95 105.57 129.38 106.31 Z M 128.74 107.10 L 128.13 107.92 C 127.57 108.67 127.73 109.74 128.48 110.30 C 129.24 110.86 130.30 110.70 130.86 109.95 L 131.47 109.13 C 132.03 108.37 131.88 107.31 131.12 106.75 C 130.37 106.19 129.30 106.34 128.74 107.10 Z M 128.09 107.95 L 127.53 108.75 C 126.99 109.53 127.18 110.60 127.95 111.14 C 128.73 111.68 129.80 111.49 130.34 110.72 L 130.90 109.92 C 131.44 109.14 131.25 108.07 130.48 107.53 C 129.70 106.99 128.64 107.18 128.09 107.95 Z M 127.52 108.79 L 127.03 109.52 C 126.51 110.31 126.72 111.37 127.51 111.89 C 128.29 112.41 129.35 112.19 129.87 111.41 L 130.36 110.68 C 130.88 109.89 130.66 108.84 129.88 108.32 C 129.09 107.79 128.04 108.01 127.52 108.79 Z M 127.03 109.56 L 126.52 110.36 C 126.01 111.14 126.24 112.19 127.03 112.69 C 127.81 113.19 128.86 112.96 129.36 112.18 L 129.87 111.38 C 130.38 110.59 130.15 109.55 129.36 109.04 C 128.57 108.54 127.53 108.77 127.03 109.56 Z M 126.52 110.38 L 125.97 111.26 C 125.49 112.04 125.73 113.07 126.51 113.56 C 127.29 114.05 128.32 113.81 128.81 113.03 L 129.36 112.15 C 129.85 111.36 129.61 110.33 128.82 109.85 C 128.04 109.36 127.01 109.60 126.52 110.38 Z M 125.98 111.28 L 125.39 112.24 C 124.91 113.03 125.16 114.04 125.94 114.52 C 126.72 115.00 127.74 114.75 128.22 113.97 L 128.81 113.01 C 129.28 112.23 129.04 111.21 128.26 110.73 C 127.48 110.25 126.46 110.50 125.98 111.28 Z M 125.40 112.26 L 124.88 113.11 C 124.41 113.89 124.66 114.90 125.44 115.36 C 126.21 115.83 127.22 115.59 127.69 114.81 L 128.21 113.96 C 128.68 113.18 128.43 112.17 127.65 111.70 C 126.88 111.23 125.87 111.48 125.40 112.26 Z M 124.89 113.12 L 124.42 113.90 C 123.96 114.67 124.21 115.68 124.98 116.14 C 125.75 116.60 126.75 116.35 127.22 115.58 L 127.69 114.80 C 128.15 114.03 127.90 113.03 127.13 112.56 C 126.36 112.10 125.35 112.35 124.89 113.12 Z M 124.42 113.91 L 123.93 114.74 C 123.47 115.51 123.73 116.50 124.50 116.96 C 125.27 117.42 126.26 117.17 126.72 116.40 L 127.21 115.57 C 127.67 114.80 127.42 113.81 126.65 113.35 C 125.88 112.89 124.88 113.14 124.42 113.91 Z M 123.94 114.75 L 123.43 115.61 C 122.98 116.37 123.23 117.36 124.00 117.82 C 124.77 118.27 125.76 118.01 126.21 117.25 L 126.72 116.39 C 127.17 115.62 126.91 114.63 126.15 114.18 C 125.38 113.72 124.39 113.98 123.94 114.75 Z M 123.43 115.62 L 122.91 116.51 C 122.47 117.28 122.72 118.26 123.49 118.71 C 124.26 119.15 125.24 118.89 125.68 118.13 L 126.21 117.24 C 126.65 116.47 126.39 115.49 125.63 115.04 C 124.86 114.59 123.88 114.85 123.43 115.62 Z M 122.91 116.52 L 122.38 117.45 C 121.94 118.21 122.21 119.19 122.97 119.63 C 123.74 120.07 124.71 119.80 125.15 119.04 L 125.68 118.12 C 126.12 117.35 125.86 116.38 125.09 115.94 C 124.33 115.50 123.35 115.76 122.91 116.52 Z M 122.39 117.46 L 121.85 118.40 C 121.42 119.17 121.69 120.13 122.45 120.57 C 123.21 121.00 124.18 120.73 124.61 119.97 L 125.15 119.03 C 125.58 118.26 125.31 117.29 124.55 116.86 C 123.79 116.43 122.82 116.70 122.39 117.46 Z M 121.85 118.42 L 121.35 119.31 C 120.93 120.07 121.20 121.04 121.96 121.46 C 122.73 121.89 123.69 121.61 124.11 120.85 L 124.61 119.96 C 125.04 119.19 124.77 118.23 124.00 117.81 C 123.24 117.38 122.28 117.65 121.85 118.42 Z M 121.35 119.32 L 120.87 120.20 C 120.45 120.96 120.73 121.92 121.49 122.34 C 122.26 122.76 123.22 122.48 123.64 121.72 L 124.12 120.84 C 124.54 120.07 124.26 119.12 123.49 118.70 C 122.73 118.28 121.77 118.56 121.35 119.32 Z M 120.86 120.21 L 120.39 121.10 C 119.98 121.87 120.26 122.82 121.03 123.23 C 121.80 123.65 122.75 123.36 123.16 122.59 L 123.64 121.70 C 124.05 120.94 123.76 119.98 123.00 119.57 C 122.23 119.16 121.28 119.45 120.86 120.21 Z M 120.38 121.12 L 119.91 122.01 C 119.51 122.78 119.81 123.73 120.58 124.13 C 121.35 124.54 122.30 124.24 122.70 123.47 L 123.17 122.58 C 123.57 121.81 123.28 120.86 122.51 120.45 C 121.74 120.05 120.79 120.35 120.38 121.12 Z M 119.91 122.03 L 119.45 122.92 C 119.06 123.70 119.36 124.64 120.14 125.04 C 120.91 125.43 121.85 125.12 122.25 124.35 L 122.71 123.45 C 123.10 122.68 122.79 121.74 122.02 121.34 C 121.25 120.95 120.30 121.25 119.91 122.03 Z M 119.44 122.94 L 119.00 123.84 C 118.62 124.62 118.94 125.56 119.71 125.94 C 120.49 126.33 121.43 126.01 121.81 125.23 L 122.25 124.33 C 122.64 123.56 122.32 122.62 121.54 122.23 C 120.77 121.85 119.83 122.17 119.44 122.94 Z M 118.99 123.86 L 118.57 124.76 C 118.19 125.54 118.53 126.47 119.31 126.85 C 120.09 127.22 121.02 126.89 121.39 126.11 L 121.82 125.21 C 122.19 124.43 121.86 123.49 121.08 123.12 C 120.30 122.75 119.36 123.08 118.99 123.86 Z M 118.56 124.78 L 118.15 125.68 C 117.79 126.46 118.14 127.39 118.92 127.75 C 119.71 128.11 120.63 127.76 120.99 126.98 L 121.40 126.08 C 121.76 125.30 121.41 124.37 120.63 124.01 C 119.84 123.65 118.92 124.00 118.56 124.78 Z M 118.14 125.71 L 117.73 126.65 C 117.38 127.44 117.75 128.36 118.54 128.71 C 119.33 129.05 120.25 128.69 120.59 127.90 L 121.00 126.95 C 121.35 126.16 120.98 125.24 120.19 124.90 C 119.40 124.55 118.48 124.92 118.14 125.71 Z M 117.72 126.68 L 117.33 127.62 C 117.00 128.41 117.38 129.33 118.17 129.66 C 118.97 129.99 119.88 129.61 120.21 128.81 L 120.60 127.87 C 120.93 127.08 120.55 126.16 119.76 125.83 C 118.96 125.50 118.05 125.88 117.72 126.68 Z M 117.32 127.64 L 116.95 128.57 C 116.63 129.37 117.02 130.28 117.82 130.60 C 118.62 130.92 119.53 130.53 119.85 129.72 L 120.22 128.79 C 120.54 127.99 120.15 127.08 119.35 126.76 C 118.54 126.44 117.64 126.84 117.32 127.64 Z M 116.94 128.59 L 116.59 129.52 C 116.28 130.32 116.68 131.23 117.48 131.54 C 118.29 131.84 119.19 131.44 119.50 130.64 L 119.86 129.71 C 120.17 128.90 119.76 128.00 118.96 127.69 C 118.15 127.38 117.25 127.78 116.94 128.59 Z M 116.58 129.53 L 116.24 130.46 C 115.93 131.27 116.35 132.17 117.15 132.47 C 117.96 132.77 118.86 132.36 119.16 131.55 L 119.51 130.62 C 119.81 129.81 119.40 128.92 118.59 128.61 C 117.78 128.31 116.88 128.73 116.58 129.53 Z M 116.23 130.47 L 115.90 131.39 C 115.60 132.20 116.02 133.10 116.83 133.39 C 117.64 133.69 118.53 133.27 118.83 132.46 L 119.16 131.54 C 119.46 130.73 119.04 129.83 118.23 129.54 C 117.42 129.24 116.53 129.66 116.23 130.47 Z M 115.89 131.40 L 115.56 132.32 C 115.27 133.13 115.69 134.03 116.50 134.32 C 117.31 134.61 118.20 134.19 118.50 133.38 L 118.83 132.46 C 119.12 131.65 118.70 130.75 117.89 130.46 C 117.08 130.17 116.19 130.59 115.89 131.40 Z M 115.56 132.32 L 115.51 132.47 C 115.22 133.28 115.64 134.17 116.45 134.46 C 117.26 134.76 118.15 134.33 118.45 133.52 L 118.50 133.38 C 118.79 132.57 118.37 131.67 117.56 131.38 C 116.75 131.09 115.85 131.51 115.56 132.32 Z"
      fill="black"
      fill-rule="nonzero" /><path d="M 135.89 114.80 L 135.49 115.68 C 135.11 116.51 135.48 117.49 136.32 117.87 C 137.15 118.25 138.13 117.88 138.51 117.05 L 138.91 116.17 C 139.29 115.33 138.92 114.35 138.08 113.97 C 137.25 113.60 136.27 113.97 135.89 114.80 Z M 135.49 115.69 L 135.09 116.59 C 134.71 117.42 135.09 118.40 135.92 118.78 C 136.76 119.15 137.74 118.77 138.11 117.94 L 138.52 117.04 C 138.89 116.20 138.51 115.22 137.68 114.85 C 136.84 114.47 135.86 114.85 135.49 115.69 Z M 135.08 116.60 L 134.67 117.55 C 134.31 118.39 134.69 119.36 135.53 119.73 C 136.37 120.09 137.35 119.71 137.71 118.86 L 138.12 117.92 C 138.49 117.08 138.10 116.11 137.26 115.74 C 136.42 115.38 135.44 115.76 135.08 116.60 Z M 134.66 117.56 L 134.29 118.45 C 133.93 119.30 134.33 120.27 135.18 120.63 C 136.02 120.98 137.00 120.58 137.35 119.73 L 137.72 118.85 C 138.08 118.00 137.68 117.03 136.83 116.67 C 135.99 116.32 135.01 116.72 134.66 117.56 Z M 134.28 118.47 L 133.92 119.35 C 133.57 120.20 133.98 121.17 134.83 121.52 C 135.68 121.86 136.65 121.46 137.00 120.61 L 137.36 119.72 C 137.71 118.87 137.30 117.90 136.45 117.56 C 135.60 117.21 134.63 117.62 134.28 118.47 Z M 133.92 119.35 L 133.54 120.28 C 133.19 121.14 133.60 122.11 134.45 122.45 C 135.30 122.80 136.28 122.39 136.62 121.54 L 137.00 120.61 C 137.35 119.75 136.94 118.78 136.09 118.43 C 135.23 118.09 134.26 118.50 133.92 119.35 Z M 133.54 120.28 L 133.13 121.26 C 132.78 122.11 133.19 123.09 134.04 123.44 C 134.89 123.79 135.87 123.38 136.22 122.53 L 136.62 121.55 C 136.97 120.69 136.57 119.72 135.71 119.37 C 134.86 119.02 133.89 119.42 133.54 120.28 Z M 133.13 121.24 L 132.77 122.12 C 132.41 122.97 132.81 123.95 133.66 124.31 C 134.51 124.66 135.49 124.26 135.85 123.41 L 136.22 122.54 C 136.58 121.69 136.18 120.71 135.32 120.35 C 134.47 119.99 133.49 120.39 133.13 121.24 Z M 132.77 122.10 L 132.41 122.92 C 132.05 123.77 132.44 124.76 133.29 125.13 C 134.14 125.49 135.12 125.10 135.49 124.25 L 135.85 123.43 C 136.22 122.58 135.82 121.59 134.97 121.23 C 134.12 120.86 133.14 121.25 132.77 122.10 Z M 132.42 122.90 L 132.03 123.77 C 131.65 124.62 132.03 125.61 132.88 125.99 C 133.73 126.37 134.72 125.99 135.10 125.14 L 135.49 124.27 C 135.87 123.43 135.49 122.43 134.64 122.05 C 133.79 121.68 132.80 122.06 132.42 122.90 Z M 132.04 123.75 L 131.61 124.68 C 131.22 125.52 131.58 126.52 132.43 126.91 C 133.27 127.30 134.27 126.94 134.66 126.09 L 135.09 125.16 C 135.48 124.32 135.12 123.32 134.27 122.93 C 133.43 122.54 132.43 122.91 132.04 123.75 Z M 131.61 124.66 L 131.14 125.65 C 130.73 126.49 131.09 127.50 131.93 127.90 C 132.77 128.31 133.77 127.95 134.18 127.11 L 134.66 126.12 C 135.06 125.28 134.70 124.27 133.87 123.87 C 133.03 123.46 132.02 123.82 131.61 124.66 Z M 131.14 125.63 L 130.67 126.57 C 130.26 127.41 130.60 128.42 131.44 128.84 C 132.27 129.25 133.29 128.91 133.70 128.08 L 134.17 127.14 C 134.58 126.30 134.24 125.29 133.41 124.87 C 132.57 124.45 131.56 124.80 131.14 125.63 Z M 130.68 126.56 L 130.28 127.35 C 129.85 128.18 130.18 129.20 131.02 129.62 C 131.85 130.04 132.87 129.72 133.29 128.88 L 133.69 128.09 C 134.12 127.26 133.79 126.24 132.96 125.82 C 132.13 125.40 131.11 125.73 130.68 126.56 Z M 130.29 127.33 L 129.85 128.16 C 129.42 128.98 129.74 130.01 130.57 130.44 C 131.40 130.87 132.42 130.55 132.85 129.72 L 133.28 128.90 C 133.71 128.07 133.40 127.05 132.57 126.62 C 131.74 126.18 130.72 126.50 130.29 127.33 Z M 129.86 128.14 L 129.40 129.00 C 128.96 129.82 129.27 130.85 130.09 131.29 C 130.92 131.73 131.94 131.42 132.38 130.60 L 132.84 129.74 C 133.28 128.92 132.97 127.89 132.15 127.45 C 131.33 127.01 130.30 127.32 129.86 128.14 Z M 129.41 128.99 L 128.92 129.87 C 128.48 130.69 128.78 131.72 129.59 132.17 C 130.41 132.62 131.44 132.32 131.89 131.50 L 132.37 130.61 C 132.82 129.79 132.52 128.77 131.71 128.32 C 130.89 127.87 129.86 128.17 129.41 128.99 Z M 128.93 129.86 L 128.42 130.77 C 127.96 131.59 128.25 132.62 129.07 133.07 C 129.88 133.53 130.91 133.24 131.37 132.43 L 131.88 131.51 C 132.34 130.70 132.05 129.67 131.23 129.21 C 130.42 128.76 129.39 129.05 128.93 129.86 Z M 128.43 130.76 L 127.89 131.69 C 127.43 132.50 127.70 133.53 128.51 134.00 C 129.32 134.46 130.35 134.19 130.82 133.38 L 131.36 132.44 C 131.82 131.63 131.54 130.60 130.74 130.13 C 129.93 129.67 128.89 129.95 128.43 130.76 Z M 127.90 131.68 L 127.34 132.63 C 126.86 133.43 127.13 134.47 127.94 134.94 C 128.74 135.42 129.77 135.15 130.25 134.35 L 130.81 133.39 C 131.28 132.59 131.02 131.55 130.21 131.08 C 129.41 130.61 128.37 130.87 127.90 131.68 Z M 127.35 132.61 L 126.81 133.50 C 126.33 134.30 126.58 135.34 127.38 135.82 C 128.18 136.30 129.22 136.05 129.70 135.25 L 130.24 134.36 C 130.72 133.56 130.46 132.52 129.67 132.04 C 128.87 131.56 127.83 131.82 127.35 132.61 Z M 126.82 133.49 L 126.28 134.37 C 125.79 135.16 126.04 136.20 126.83 136.69 C 127.62 137.18 128.66 136.93 129.15 136.14 L 129.69 135.26 C 130.18 134.47 129.94 133.43 129.14 132.94 C 128.35 132.45 127.31 132.70 126.82 133.49 Z M 126.29 134.36 L 125.74 135.24 C 125.24 136.02 125.48 137.06 126.27 137.56 C 127.05 138.05 128.10 137.82 128.59 137.03 L 129.14 136.15 C 129.64 135.36 129.40 134.32 128.61 133.83 C 127.82 133.33 126.78 133.57 126.29 134.36 Z M 125.74 135.23 L 125.19 136.10 C 124.69 136.88 124.92 137.92 125.70 138.42 C 126.48 138.92 127.53 138.69 128.03 137.91 L 128.58 137.04 C 129.08 136.26 128.85 135.21 128.07 134.71 C 127.29 134.21 126.25 134.44 125.74 135.23 Z M 125.20 136.09 L 124.64 136.94 C 124.13 137.72 124.36 138.76 125.13 139.27 C 125.91 139.78 126.96 139.55 127.46 138.78 L 128.02 137.92 C 128.52 137.14 128.30 136.10 127.52 135.59 C 126.74 135.09 125.70 135.31 125.20 136.09 Z M 124.65 136.93 L 124.10 137.77 C 123.59 138.55 123.80 139.59 124.57 140.10 C 125.35 140.61 126.39 140.40 126.90 139.62 L 127.45 138.78 C 127.96 138.01 127.75 136.97 126.98 136.46 C 126.20 135.95 125.16 136.16 124.65 136.93 Z M 124.10 137.76 L 123.56 138.57 C 123.05 139.34 123.25 140.39 124.03 140.90 C 124.80 141.42 125.84 141.21 126.35 140.44 L 126.90 139.63 C 127.41 138.86 127.20 137.82 126.43 137.30 C 125.66 136.78 124.62 136.99 124.10 137.76 Z M 123.57 138.57 L 123.04 139.34 C 122.52 140.11 122.72 141.15 123.49 141.67 C 124.26 142.19 125.30 141.99 125.82 141.22 L 126.35 140.45 C 126.87 139.68 126.67 138.64 125.90 138.12 C 125.13 137.60 124.09 137.80 123.57 138.57 Z M 123.05 139.33 L 122.51 140.12 C 121.98 140.89 122.18 141.93 122.94 142.45 C 123.70 142.98 124.74 142.78 125.27 142.02 L 125.81 141.23 C 126.34 140.47 126.14 139.43 125.38 138.90 C 124.62 138.38 123.58 138.57 123.05 139.33 Z M 122.52 140.12 L 121.95 140.93 C 121.42 141.69 121.61 142.73 122.36 143.26 C 123.12 143.79 124.16 143.60 124.69 142.84 L 125.26 142.03 C 125.79 141.27 125.60 140.23 124.85 139.70 C 124.09 139.18 123.05 139.36 122.52 140.12 Z M 121.96 140.92 L 121.41 141.70 C 120.87 142.45 121.05 143.49 121.80 144.03 C 122.55 144.56 123.59 144.38 124.12 143.63 L 124.68 142.85 C 125.21 142.10 125.03 141.06 124.28 140.53 C 123.54 140.00 122.50 140.17 121.96 140.92 Z M 121.42 141.70 L 120.86 142.46 C 120.33 143.21 120.49 144.24 121.23 144.78 C 121.98 145.32 123.01 145.15 123.55 144.41 L 124.11 143.64 C 124.64 142.90 124.48 141.86 123.74 141.33 C 122.99 140.79 121.96 140.95 121.42 141.70 Z M 120.87 142.46 L 120.31 143.23 C 119.77 143.97 119.92 145.00 120.66 145.54 C 121.40 146.08 122.43 145.93 122.97 145.19 L 123.54 144.42 C 124.08 143.68 123.92 142.65 123.19 142.10 C 122.45 141.56 121.42 141.72 120.87 142.46 Z M 120.32 143.22 L 119.72 144.02 C 119.18 144.75 119.33 145.78 120.06 146.33 C 120.79 146.87 121.82 146.72 122.37 145.99 L 122.96 145.19 C 123.50 144.46 123.35 143.43 122.62 142.89 C 121.89 142.34 120.86 142.49 120.32 143.22 Z M 119.73 144.02 L 119.10 144.86 C 118.56 145.58 118.70 146.61 119.43 147.16 C 120.15 147.70 121.18 147.56 121.73 146.83 L 122.36 145.99 C 122.90 145.27 122.76 144.24 122.03 143.69 C 121.31 143.15 120.28 143.29 119.73 144.02 Z M 119.11 144.86 L 118.47 145.71 C 117.92 146.43 118.06 147.46 118.78 148.00 C 119.51 148.55 120.53 148.40 121.08 147.68 L 121.72 146.83 C 122.27 146.11 122.13 145.08 121.40 144.54 C 120.68 143.99 119.66 144.13 119.11 144.86 Z M 118.47 145.71 L 117.89 146.48 C 117.34 147.19 117.48 148.22 118.20 148.76 C 118.92 149.31 119.95 149.17 120.49 148.45 L 121.07 147.68 C 121.62 146.96 121.48 145.94 120.76 145.39 C 120.04 144.85 119.02 144.99 118.47 145.71 Z M 117.89 146.48 L 117.28 147.28 C 116.74 148.00 116.88 149.02 117.60 149.56 C 118.32 150.11 119.34 149.96 119.88 149.25 L 120.49 148.45 C 121.03 147.73 120.89 146.71 120.17 146.16 C 119.46 145.62 118.44 145.76 117.89 146.48 Z M 117.29 147.28 L 116.66 148.11 C 116.12 148.82 116.26 149.84 116.98 150.38 C 117.70 150.93 118.72 150.78 119.26 150.07 L 119.88 149.24 C 120.42 148.53 120.28 147.51 119.56 146.97 C 118.85 146.42 117.83 146.57 117.29 147.28 Z M 116.66 148.11 L 116.03 148.95 C 115.50 149.67 115.64 150.68 116.36 151.22 C 117.07 151.76 118.09 151.62 118.63 150.90 L 119.26 150.06 C 119.79 149.35 119.65 148.33 118.93 147.79 C 118.22 147.25 117.20 147.40 116.66 148.11 Z M 116.03 148.96 L 115.41 149.80 C 114.87 150.51 115.02 151.53 115.74 152.06 C 116.45 152.60 117.47 152.45 118.00 151.73 L 118.63 150.89 C 119.16 150.18 119.01 149.16 118.30 148.63 C 117.58 148.09 116.57 148.24 116.03 148.96 Z M 115.41 149.80 L 114.79 150.63 C 114.26 151.35 114.42 152.36 115.13 152.89 C 115.85 153.42 116.86 153.27 117.39 152.55 L 118.00 151.72 C 118.53 151.01 118.38 149.99 117.66 149.46 C 116.95 148.93 115.94 149.09 115.41 149.80 Z M 114.79 150.64 L 114.20 151.45 C 113.68 152.17 113.84 153.18 114.56 153.70 C 115.27 154.23 116.28 154.07 116.81 153.35 L 117.39 152.54 C 117.92 151.82 117.76 150.81 117.04 150.29 C 116.32 149.77 115.31 149.92 114.79 150.64 Z M 114.20 151.47 L 113.64 152.24 C 113.12 152.97 113.29 153.97 114.01 154.49 C 114.74 155.00 115.74 154.84 116.26 154.11 L 116.81 153.34 C 117.33 152.61 117.16 151.61 116.44 151.09 C 115.72 150.58 114.71 150.74 114.20 151.47 Z M 113.63 152.26 L 113.05 153.10 C 112.54 153.83 112.72 154.83 113.45 155.33 C 114.17 155.84 115.17 155.66 115.68 154.93 L 116.26 154.09 C 116.77 153.37 116.59 152.37 115.86 151.86 C 115.14 151.36 114.14 151.54 113.63 152.26 Z M 113.04 153.13 L 112.37 154.12 C 111.88 154.85 112.08 155.84 112.81 156.34 C 113.55 156.83 114.54 156.63 115.03 155.90 L 115.69 154.91 C 116.18 154.17 115.98 153.18 115.25 152.69 C 114.52 152.20 113.53 152.40 113.04 153.13 Z M 112.36 154.15 L 111.78 155.06 C 111.31 155.80 111.53 156.78 112.27 157.25 C 113.01 157.72 113.99 157.51 114.47 156.77 L 115.04 155.86 C 115.52 155.12 115.30 154.14 114.56 153.67 C 113.82 153.19 112.83 153.41 112.36 154.15 Z M 111.77 155.09 L 111.26 155.93 C 110.81 156.67 111.05 157.65 111.79 158.10 C 112.54 158.56 113.51 158.32 113.97 157.57 L 114.48 156.73 C 114.93 155.99 114.70 155.01 113.95 154.56 C 113.20 154.10 112.23 154.34 111.77 155.09 Z M 111.25 155.95 L 110.79 156.74 C 110.35 157.49 110.61 158.46 111.36 158.90 C 112.11 159.34 113.08 159.08 113.52 158.33 L 113.98 157.54 C 114.42 156.79 114.16 155.83 113.41 155.39 C 112.66 154.95 111.69 155.20 111.25 155.95 Z M 110.79 156.76 L 110.36 157.52 C 109.93 158.27 110.20 159.23 110.95 159.66 C 111.71 160.09 112.66 159.82 113.09 159.07 L 113.52 158.31 C 113.95 157.56 113.68 156.60 112.93 156.17 C 112.18 155.74 111.22 156.01 110.79 156.76 Z M 110.36 157.53 L 110.04 158.10 C 109.62 158.85 109.89 159.81 110.64 160.23 C 111.40 160.65 112.35 160.38 112.77 159.63 L 113.09 159.06 C 113.51 158.30 113.24 157.35 112.49 156.93 C 111.74 156.51 110.78 156.78 110.36 157.53 Z"
      fill="black"
      fill-rule="nonzero" /><path d="M 125.59 142.85 L 126.19 143.67 C 126.72 144.40 127.75 144.57 128.48 144.03 C 129.22 143.50 129.38 142.47 128.85 141.74 L 128.25 140.92 C 127.72 140.18 126.69 140.02 125.96 140.55 C 125.22 141.09 125.06 142.11 125.59 142.85 Z M 126.11 143.63 L 126.66 144.46 C 127.17 145.24 128.21 145.46 128.99 144.95 C 129.77 144.44 129.98 143.39 129.47 142.62 L 128.93 141.78 C 128.42 141.00 127.37 140.78 126.59 141.29 C 125.81 141.80 125.60 142.85 126.11 143.63 Z M 126.54 144.34 L 127.00 145.22 C 127.44 146.06 128.48 146.38 129.33 145.94 C 130.17 145.50 130.50 144.45 130.05 143.61 L 129.59 142.74 C 129.15 141.89 128.11 141.57 127.26 142.01 C 126.42 142.46 126.09 143.50 126.54 144.34 Z M 126.88 145.01 L 127.21 145.91 C 127.54 146.82 128.54 147.28 129.45 146.95 C 130.36 146.62 130.82 145.62 130.49 144.71 L 130.17 143.82 C 129.84 142.91 128.83 142.44 127.93 142.77 C 127.02 143.10 126.55 144.10 126.88 145.01 Z M 127.15 145.73 L 127.38 146.68 C 127.61 147.62 128.56 148.20 129.50 147.97 C 130.44 147.74 131.02 146.79 130.79 145.85 L 130.55 144.89 C 130.32 143.95 129.38 143.38 128.44 143.61 C 127.49 143.84 126.92 144.78 127.15 145.73 Z M 127.35 146.57 L 127.53 147.59 C 127.70 148.55 128.61 149.18 129.57 149.01 C 130.52 148.85 131.16 147.93 130.99 146.98 L 130.81 145.96 C 130.64 145.00 129.73 144.37 128.78 144.53 C 127.82 144.70 127.18 145.61 127.35 146.57 Z M 127.53 147.55 L 127.67 148.50 C 127.82 149.46 128.71 150.12 129.67 149.97 C 130.63 149.83 131.29 148.93 131.14 147.97 L 131.00 147.02 C 130.85 146.06 129.96 145.40 129.00 145.55 C 128.04 145.69 127.38 146.59 127.53 147.55 Z M 127.67 148.48 L 127.80 149.43 C 127.93 150.39 128.82 151.06 129.78 150.92 C 130.74 150.79 131.41 149.90 131.28 148.94 L 131.15 147.99 C 131.01 147.03 130.13 146.36 129.16 146.50 C 128.20 146.63 127.53 147.52 127.67 148.48 Z M 127.80 149.40 L 127.92 150.41 C 128.04 151.37 128.92 152.05 129.88 151.93 C 130.84 151.81 131.53 150.94 131.41 149.97 L 131.28 148.97 C 131.16 148.01 130.29 147.32 129.32 147.44 C 128.36 147.56 127.68 148.44 127.80 149.40 Z M 127.92 150.38 L 128.03 151.44 C 128.14 152.40 129.00 153.10 129.96 153.00 C 130.93 152.90 131.62 152.03 131.52 151.07 L 131.41 150.01 C 131.31 149.04 130.44 148.34 129.48 148.45 C 128.52 148.55 127.82 149.41 127.92 150.38 Z M 128.03 151.41 L 128.12 152.37 C 128.20 153.33 129.05 154.04 130.01 153.96 C 130.98 153.87 131.69 153.02 131.61 152.06 L 131.52 151.10 C 131.44 150.14 130.59 149.43 129.62 149.51 C 128.66 149.59 127.95 150.44 128.03 151.41 Z M 128.12 152.34 L 128.19 153.30 C 128.26 154.26 129.10 154.99 130.06 154.91 C 131.02 154.84 131.74 154.01 131.67 153.05 L 131.60 152.08 C 131.53 151.12 130.69 150.40 129.73 150.47 C 128.77 150.54 128.05 151.38 128.12 152.34 Z M 128.19 153.28 L 128.26 154.28 C 128.32 155.24 129.15 155.97 130.11 155.91 C 131.06 155.85 131.79 155.02 131.73 154.06 L 131.67 153.06 C 131.61 152.10 130.78 151.38 129.82 151.44 C 128.86 151.50 128.13 152.32 128.19 153.28 Z M 128.26 154.27 L 128.32 155.30 C 128.38 156.26 129.20 156.99 130.15 156.94 C 131.11 156.88 131.84 156.06 131.79 155.11 L 131.73 154.07 C 131.67 153.12 130.85 152.39 129.90 152.44 C 128.94 152.49 128.21 153.31 128.26 154.27 Z M 128.33 155.30 L 128.38 156.35 C 128.43 157.31 129.25 158.04 130.20 157.99 C 131.15 157.94 131.89 157.12 131.84 156.17 L 131.78 155.11 C 131.73 154.16 130.92 153.43 129.96 153.48 C 129.01 153.53 128.28 154.34 128.33 155.30 Z M 128.39 156.35 L 128.44 157.33 C 128.49 158.28 129.30 159.01 130.25 158.96 C 131.20 158.91 131.93 158.10 131.88 157.15 L 131.83 156.17 C 131.78 155.22 130.97 154.49 130.02 154.54 C 129.07 154.59 128.34 155.40 128.39 156.35 Z M 128.45 157.32 L 128.50 158.32 C 128.55 159.26 129.35 159.99 130.30 159.94 C 131.24 159.89 131.97 159.09 131.92 158.15 L 131.87 157.15 C 131.82 156.21 131.02 155.48 130.07 155.53 C 129.13 155.58 128.40 156.38 128.45 157.32 Z M 128.51 158.32 L 128.56 159.32 C 128.61 160.26 129.41 160.98 130.34 160.94 C 131.28 160.89 132.01 160.09 131.96 159.15 L 131.91 158.15 C 131.86 157.21 131.06 156.49 130.12 156.53 C 129.19 156.58 128.46 157.38 128.51 158.32 Z M 128.57 159.32 L 128.62 160.33 C 128.67 161.27 129.46 161.98 130.39 161.94 C 131.33 161.89 132.05 161.10 132.00 160.16 L 131.95 159.15 C 131.90 158.22 131.11 157.50 130.18 157.55 C 129.24 157.59 128.52 158.39 128.57 159.32 Z M 128.63 160.33 L 128.68 161.34 C 128.73 162.27 129.52 162.98 130.44 162.94 C 131.37 162.89 132.09 162.10 132.04 161.17 L 131.99 160.16 C 131.95 159.24 131.15 158.52 130.23 158.57 C 129.30 158.61 128.58 159.40 128.63 160.33 Z M 128.69 161.34 L 128.74 162.36 C 128.79 163.29 129.57 164.00 130.50 163.95 C 131.42 163.90 132.13 163.12 132.08 162.19 L 132.03 161.17 C 131.99 160.25 131.20 159.54 130.28 159.58 C 129.35 159.63 128.64 160.42 128.69 161.34 Z M 128.75 162.36 L 128.80 163.38 C 128.85 164.30 129.63 165.01 130.55 164.96 C 131.47 164.91 132.17 164.13 132.13 163.21 L 132.07 162.19 C 132.03 161.28 131.25 160.57 130.33 160.62 C 129.41 160.66 128.70 161.44 128.75 162.36 Z M 128.81 163.38 L 128.86 164.39 C 128.91 165.30 129.69 166.00 130.60 165.95 C 131.51 165.91 132.21 165.13 132.17 164.22 L 132.12 163.21 C 132.07 162.30 131.29 161.60 130.38 161.64 C 129.47 161.69 128.76 162.47 128.81 163.38 Z M 128.87 164.39 L 128.92 165.38 C 128.97 166.28 129.74 166.98 130.65 166.93 C 131.56 166.89 132.26 166.11 132.21 165.21 L 132.16 164.22 C 132.11 163.31 131.34 162.61 130.43 162.66 C 129.52 162.71 128.82 163.48 128.87 164.39 Z M 128.93 165.38 L 128.98 166.35 C 129.03 167.25 129.80 167.95 130.70 167.90 C 131.61 167.85 132.30 167.08 132.25 166.18 L 132.20 165.20 C 132.15 164.30 131.38 163.61 130.48 163.66 C 129.58 163.71 128.88 164.48 128.93 165.38 Z M 128.99 166.35 L 129.05 167.36 C 129.10 168.26 129.86 168.94 130.76 168.89 C 131.66 168.84 132.35 168.08 132.30 167.18 L 132.24 166.18 C 132.19 165.28 131.43 164.59 130.53 164.64 C 129.63 164.69 128.94 165.46 128.99 166.35 Z M 129.06 167.36 L 129.12 168.38 C 129.17 169.27 129.94 169.95 130.83 169.90 C 131.72 169.85 132.40 169.08 132.35 168.19 L 132.29 167.17 C 132.23 166.28 131.47 165.60 130.58 165.66 C 129.69 165.71 129.01 166.47 129.06 167.36 Z M 129.13 168.39 L 129.20 169.39 C 129.26 170.28 130.02 170.95 130.91 170.88 C 131.80 170.82 132.46 170.06 132.40 169.17 L 132.34 168.17 C 132.28 167.29 131.51 166.62 130.62 166.68 C 129.74 166.74 129.07 167.51 129.13 168.39 Z M 129.21 169.41 L 129.29 170.40 C 129.36 171.28 130.13 171.93 131.01 171.86 C 131.89 171.78 132.55 171.01 132.47 170.13 L 132.39 169.15 C 132.32 168.27 131.55 167.62 130.67 167.69 C 129.79 167.76 129.14 168.53 129.21 169.41 Z M 129.30 170.43 L 129.40 171.40 C 129.49 172.27 130.27 172.91 131.14 172.82 C 132.02 172.73 132.65 171.95 132.56 171.08 L 132.46 170.10 C 132.37 169.23 131.59 168.60 130.72 168.68 C 129.85 168.77 129.21 169.55 129.30 170.43 Z M 129.41 171.44 L 129.54 172.43 C 129.65 173.29 130.44 173.91 131.30 173.80 C 132.17 173.69 132.78 172.90 132.67 172.03 L 132.55 171.04 C 132.44 170.17 131.65 169.56 130.78 169.67 C 129.92 169.78 129.30 170.57 129.41 171.44 Z M 129.55 172.46 L 129.69 173.45 C 129.82 174.31 130.62 174.91 131.48 174.78 C 132.34 174.65 132.94 173.85 132.81 172.99 L 132.67 172.00 C 132.54 171.14 131.74 170.54 130.88 170.67 C 130.02 170.80 129.42 171.60 129.55 172.46 Z M 129.70 173.47 L 129.86 174.46 C 130.00 175.31 130.81 175.90 131.66 175.76 C 132.52 175.62 133.10 174.81 132.96 173.95 L 132.80 172.97 C 132.66 172.11 131.86 171.53 131.00 171.67 C 130.14 171.81 129.56 172.62 129.70 173.47 Z M 129.87 174.47 L 130.04 175.46 C 130.18 176.31 131.00 176.88 131.85 176.73 C 132.70 176.59 133.27 175.78 133.13 174.92 L 132.96 173.94 C 132.81 173.09 132.00 172.52 131.15 172.66 C 130.29 172.81 129.72 173.62 129.87 174.47 Z M 130.04 175.46 L 130.16 176.12 C 130.31 176.97 131.12 177.53 131.97 177.38 C 132.82 177.23 133.39 176.42 133.24 175.57 L 133.12 174.92 C 132.97 174.07 132.16 173.50 131.31 173.65 C 130.46 173.80 129.89 174.61 130.04 175.46 Z"
      fill="black"
      fill-rule="nonzero" /><path d="M 150.78 95.44 L 150.07 96.16 C 149.41 96.83 149.41 97.90 150.08 98.57 C 150.74 99.23 151.82 99.23 152.49 98.56 L 153.20 97.85 C 153.86 97.18 153.86 96.10 153.19 95.44 C 152.52 94.77 151.44 94.78 150.78 95.44 Z M 150.04 96.17 L 149.35 96.89 C 148.69 97.57 148.71 98.66 149.39 99.31 C 150.07 99.97 151.16 99.95 151.81 99.27 L 152.51 98.55 C 153.17 97.87 153.15 96.79 152.47 96.13 C 151.79 95.47 150.70 95.49 150.04 96.17 Z M 149.31 96.92 L 148.64 97.66 C 148.00 98.36 148.05 99.45 148.75 100.09 C 149.46 100.73 150.55 100.68 151.19 99.98 L 151.86 99.24 C 152.49 98.54 152.44 97.45 151.74 96.81 C 151.03 96.17 149.95 96.22 149.31 96.92 Z M 148.58 97.71 L 147.96 98.46 C 147.35 99.20 147.45 100.29 148.19 100.90 C 148.93 101.51 150.02 101.40 150.62 100.67 L 151.24 99.92 C 151.85 99.18 151.75 98.09 151.02 97.49 C 150.28 96.88 149.19 96.98 148.58 97.71 Z M 147.90 98.54 L 147.32 99.32 C 146.75 100.09 146.92 101.18 147.69 101.74 C 148.46 102.31 149.54 102.15 150.11 101.38 L 150.69 100.60 C 151.26 99.82 151.09 98.74 150.32 98.17 C 149.55 97.60 148.47 97.77 147.90 98.54 Z M 147.26 99.40 L 146.71 100.25 C 146.19 101.05 146.42 102.13 147.22 102.65 C 148.03 103.17 149.10 102.94 149.63 102.14 L 150.17 101.29 C 150.70 100.49 150.47 99.41 149.66 98.89 C 148.86 98.37 147.78 98.60 147.26 99.40 Z M 146.66 100.33 L 146.14 101.23 C 145.66 102.07 145.95 103.13 146.79 103.61 C 147.62 104.09 148.69 103.79 149.16 102.96 L 149.68 102.05 C 150.16 101.22 149.87 100.16 149.03 99.68 C 148.19 99.20 147.13 99.49 146.66 100.33 Z M 146.09 101.32 L 145.64 102.22 C 145.21 103.08 145.56 104.13 146.42 104.56 C 147.28 104.99 148.33 104.64 148.76 103.78 L 149.21 102.88 C 149.64 102.02 149.29 100.97 148.43 100.54 C 147.57 100.11 146.52 100.45 146.09 101.32 Z M 145.59 102.32 L 145.19 103.26 C 144.81 104.14 145.23 105.17 146.11 105.55 C 147.00 105.93 148.02 105.51 148.40 104.63 L 148.80 103.69 C 149.18 102.80 148.77 101.77 147.88 101.40 C 147.00 101.02 145.97 101.43 145.59 102.32 Z M 145.14 103.39 L 144.82 104.33 C 144.52 105.24 145.01 106.23 145.92 106.54 C 146.84 106.85 147.83 106.36 148.13 105.44 L 148.45 104.50 C 148.76 103.58 148.27 102.60 147.35 102.29 C 146.44 101.98 145.45 102.47 145.14 103.39 Z M 144.77 104.53 L 144.56 105.53 C 144.36 106.47 144.96 107.40 145.91 107.60 C 146.85 107.80 147.78 107.19 147.98 106.25 L 148.19 105.25 C 148.39 104.30 147.78 103.38 146.84 103.18 C 145.90 102.98 144.97 103.58 144.77 104.53 Z M 144.53 105.87 L 144.51 106.90 C 144.50 107.87 145.27 108.65 146.23 108.67 C 147.19 108.68 147.98 107.91 148.00 106.95 L 148.01 105.91 C 148.02 104.95 147.25 104.16 146.29 104.15 C 145.33 104.14 144.54 104.91 144.53 105.87 Z M 144.60 107.44 L 144.88 108.33 C 145.16 109.25 146.13 109.76 147.04 109.48 C 147.96 109.19 148.47 108.22 148.19 107.31 L 147.91 106.41 C 147.63 105.50 146.66 104.99 145.74 105.27 C 144.83 105.55 144.32 106.52 144.60 107.44 Z M 145.21 108.93 L 145.79 109.62 C 146.40 110.35 147.49 110.44 148.22 109.83 C 148.95 109.21 149.04 108.13 148.43 107.40 L 147.85 106.71 C 147.24 105.98 146.15 105.89 145.42 106.50 C 144.69 107.11 144.60 108.20 145.21 108.93 Z M 146.23 109.97 L 147.03 110.46 C 147.84 110.94 148.89 110.68 149.38 109.87 C 149.86 109.06 149.60 108.01 148.79 107.52 L 147.99 107.04 C 147.18 106.55 146.13 106.81 145.64 107.62 C 145.16 108.43 145.42 109.49 146.23 109.97 Z M 147.34 110.59 L 148.31 110.93 C 149.20 111.24 150.17 110.78 150.48 109.90 C 150.79 109.01 150.33 108.04 149.44 107.73 L 148.47 107.39 C 147.59 107.08 146.62 107.54 146.31 108.42 C 146.00 109.31 146.46 110.28 147.34 110.59 Z M 148.54 110.98 L 149.60 111.20 C 150.51 111.38 151.40 110.80 151.58 109.89 C 151.77 108.98 151.19 108.09 150.28 107.90 L 149.22 107.68 C 148.31 107.50 147.42 108.08 147.23 108.99 C 147.04 109.90 147.63 110.79 148.54 110.98 Z M 149.77 111.21 L 150.81 111.31 C 151.72 111.40 152.54 110.73 152.63 109.82 C 152.72 108.90 152.05 108.08 151.14 107.99 L 150.10 107.89 C 149.18 107.80 148.37 108.47 148.28 109.38 C 148.19 110.30 148.85 111.12 149.77 111.21 Z M 150.97 111.31 L 151.99 111.31 C 152.90 111.31 153.64 110.56 153.64 109.65 C 153.64 108.73 152.90 107.99 151.99 107.99 L 150.97 108.00 C 150.06 108.00 149.31 108.74 149.32 109.65 C 149.32 110.57 150.06 111.31 150.97 111.31 Z M 152.16 111.29 L 153.14 111.18 C 154.04 111.09 154.70 110.28 154.60 109.37 C 154.50 108.47 153.69 107.81 152.79 107.91 L 151.81 108.01 C 150.91 108.11 150.25 108.92 150.35 109.83 C 150.45 110.73 151.26 111.38 152.16 111.29 Z M 153.33 111.14 L 154.29 110.92 C 155.16 110.72 155.71 109.84 155.51 108.96 C 155.31 108.08 154.43 107.53 153.55 107.73 L 152.60 107.95 C 151.72 108.16 151.17 109.03 151.37 109.91 C 151.57 110.79 152.45 111.34 153.33 111.14 Z M 154.48 110.85 L 155.43 110.50 C 156.28 110.19 156.70 109.25 156.39 108.41 C 156.08 107.57 155.15 107.14 154.31 107.45 L 153.36 107.81 C 152.52 108.12 152.09 109.05 152.40 109.89 C 152.71 110.73 153.64 111.16 154.48 110.85 Z M 155.60 110.41 L 156.48 109.97 C 157.27 109.57 157.59 108.60 157.19 107.81 C 156.79 107.01 155.82 106.69 155.03 107.09 L 154.15 107.54 C 153.35 107.94 153.03 108.91 153.43 109.70 C 153.83 110.49 154.80 110.81 155.60 110.41 Z M 156.59 109.89 L 157.42 109.38 C 158.18 108.92 158.41 107.94 157.95 107.18 C 157.49 106.43 156.50 106.19 155.75 106.66 L 154.92 107.17 C 154.16 107.63 153.93 108.61 154.39 109.37 C 154.85 110.12 155.84 110.36 156.59 109.89 Z M 157.49 109.33 L 158.30 108.77 C 159.03 108.27 159.21 107.28 158.71 106.55 C 158.21 105.83 157.21 105.65 156.49 106.15 L 155.68 106.71 C 154.95 107.21 154.77 108.20 155.27 108.93 C 155.77 109.65 156.77 109.83 157.49 109.33 Z M 158.35 108.74 L 159.15 108.15 C 159.85 107.62 160.00 106.62 159.47 105.92 C 158.95 105.21 157.95 105.06 157.24 105.59 L 156.44 106.18 C 155.74 106.71 155.59 107.71 156.11 108.41 C 156.64 109.12 157.64 109.27 158.35 108.74 Z M 159.16 108.13 L 159.99 107.50 C 160.69 106.96 160.82 105.96 160.29 105.26 C 159.75 104.56 158.75 104.43 158.05 104.97 L 157.22 105.60 C 156.52 106.14 156.39 107.14 156.93 107.84 C 157.46 108.54 158.47 108.67 159.16 108.13 Z M 159.97 107.53 L 160.98 106.80 C 161.70 106.27 161.86 105.27 161.33 104.55 C 160.81 103.83 159.80 103.67 159.08 104.19 L 158.07 104.93 C 157.36 105.45 157.20 106.46 157.72 107.18 C 158.24 107.90 159.25 108.06 159.97 107.53 Z M 160.72 106.98 L 161.52 106.61 C 162.34 106.23 162.69 105.26 162.31 104.44 C 161.94 103.62 160.96 103.26 160.14 103.64 L 159.35 104.01 C 158.53 104.39 158.17 105.36 158.55 106.18 C 158.93 107.00 159.90 107.36 160.72 106.98 Z M 159.68 106.31 L 160.01 106.64 C 160.67 107.28 161.72 107.26 162.35 106.60 C 162.99 105.95 162.98 104.90 162.32 104.26 L 161.98 103.94 C 161.33 103.30 160.28 103.32 159.64 103.97 C 159.01 104.63 159.02 105.68 159.68 106.31 Z M 159.51 105.29 L 159.42 106.22 C 159.34 107.13 160.01 107.94 160.92 108.03 C 161.83 108.11 162.64 107.45 162.73 106.53 L 162.82 105.61 C 162.91 104.70 162.24 103.89 161.33 103.80 C 160.41 103.71 159.60 104.38 159.51 105.29 Z M 159.48 105.92 L 159.14 107.11 C 158.90 108.00 159.41 108.91 160.29 109.16 C 161.18 109.41 162.10 108.90 162.34 108.01 L 162.68 106.82 C 162.93 105.94 162.41 105.02 161.53 104.77 C 160.64 104.53 159.73 105.04 159.48 105.92 Z M 159.18 106.99 L 158.84 107.94 C 158.52 108.80 158.97 109.75 159.83 110.07 C 160.69 110.38 161.65 109.94 161.96 109.08 L 162.31 108.13 C 162.62 107.27 162.18 106.31 161.31 106.00 C 160.45 105.69 159.50 106.13 159.18 106.99 Z M 158.87 107.87 L 158.50 108.75 C 158.15 109.60 158.55 110.57 159.40 110.92 C 160.24 111.27 161.22 110.87 161.57 110.02 L 161.93 109.15 C 162.29 108.30 161.89 107.33 161.04 106.97 C 160.19 106.62 159.22 107.02 158.87 107.87 Z M 158.51 108.71 L 158.11 109.64 C 157.74 110.48 158.12 111.46 158.96 111.83 C 159.80 112.20 160.78 111.82 161.15 110.98 L 161.56 110.06 C 161.93 109.22 161.55 108.24 160.71 107.86 C 159.87 107.49 158.88 107.88 158.51 108.71 Z M 158.11 109.64 L 157.68 110.61 C 157.31 111.45 157.69 112.43 158.53 112.80 C 159.37 113.17 160.35 112.79 160.72 111.95 L 161.15 110.98 C 161.52 110.14 161.14 109.16 160.30 108.79 C 159.46 108.42 158.48 108.80 158.11 109.64 Z M 157.67 110.62 L 157.29 111.52 C 156.92 112.36 157.31 113.34 158.16 113.71 C 159.00 114.07 159.98 113.68 160.34 112.83 L 160.73 111.93 C 161.09 111.09 160.70 110.11 159.86 109.75 C 159.01 109.39 158.03 109.78 157.67 110.62 Z M 157.28 111.53 L 156.88 112.48 C 156.53 113.33 156.93 114.30 157.77 114.66 C 158.62 115.01 159.60 114.62 159.95 113.77 L 160.35 112.82 C 160.71 111.97 160.31 110.99 159.46 110.64 C 158.61 110.28 157.63 110.68 157.28 111.53 Z M 156.87 112.49 L 156.48 113.45 C 156.14 114.30 156.55 115.28 157.40 115.62 C 158.25 115.97 159.23 115.56 159.57 114.71 L 159.96 113.75 C 160.31 112.90 159.90 111.93 159.05 111.58 C 158.19 111.23 157.22 111.64 156.87 112.49 Z M 156.47 113.46 L 156.11 114.39 C 155.77 115.25 156.19 116.22 157.05 116.56 C 157.91 116.90 158.88 116.48 159.22 115.62 L 159.58 114.69 C 159.92 113.83 159.50 112.86 158.64 112.52 C 157.78 112.19 156.81 112.61 156.47 113.46 Z M 156.10 114.41 L 155.71 115.43 C 155.39 116.30 155.82 117.26 156.69 117.59 C 157.55 117.91 158.52 117.48 158.84 116.61 L 159.23 115.59 C 159.55 114.73 159.12 113.77 158.25 113.44 C 157.39 113.11 156.42 113.55 156.10 114.41 Z M 155.70 115.47 L 155.36 116.44 C 155.05 117.31 155.50 118.27 156.37 118.58 C 157.25 118.88 158.20 118.43 158.51 117.56 L 158.86 116.58 C 159.16 115.71 158.71 114.76 157.84 114.45 C 156.97 114.14 156.01 114.59 155.70 115.47 Z M 155.34 116.47 L 155.05 117.37 C 154.75 118.25 155.23 119.20 156.11 119.49 C 156.99 119.78 157.93 119.30 158.22 118.43 L 158.52 117.52 C 158.81 116.65 158.34 115.70 157.46 115.41 C 156.58 115.12 155.63 115.59 155.34 116.47 Z M 155.04 117.40 L 154.76 118.28 C 154.49 119.16 154.98 120.10 155.87 120.38 C 156.75 120.65 157.69 120.16 157.96 119.27 L 158.23 118.40 C 158.51 117.51 158.01 116.57 157.13 116.30 C 156.25 116.03 155.31 116.52 155.04 117.40 Z M 154.75 118.31 L 154.48 119.27 C 154.22 120.16 154.74 121.09 155.63 121.34 C 156.51 121.60 157.44 121.09 157.70 120.20 L 157.97 119.24 C 158.23 118.35 157.71 117.42 156.82 117.17 C 155.94 116.91 155.01 117.42 154.75 118.31 Z M 154.46 119.33 L 154.22 120.29 C 154.00 121.19 154.55 122.10 155.45 122.32 C 156.34 122.54 157.25 122.00 157.47 121.10 L 157.71 120.14 C 157.93 119.24 157.39 118.33 156.49 118.11 C 155.59 117.89 154.68 118.43 154.46 119.33 Z M 154.21 120.38 L 154.01 121.37 C 153.83 122.27 154.43 123.15 155.33 123.33 C 156.24 123.51 157.12 122.92 157.30 122.01 L 157.49 121.02 C 157.67 120.11 157.08 119.23 156.17 119.05 C 155.26 118.88 154.38 119.47 154.21 120.38 Z M 154.00 121.49 L 153.87 122.59 C 153.76 123.51 154.41 124.34 155.33 124.45 C 156.24 124.56 157.07 123.90 157.18 122.99 L 157.31 121.88 C 157.42 120.97 156.77 120.14 155.85 120.03 C 154.94 119.92 154.11 120.58 154.00 121.49 Z M 153.87 122.87 L 153.92 123.88 C 153.96 124.79 154.74 125.50 155.65 125.45 C 156.56 125.41 157.27 124.63 157.23 123.72 L 157.18 122.71 C 157.14 121.80 156.36 121.09 155.45 121.14 C 154.53 121.18 153.82 121.96 153.87 122.87 Z M 154.07 124.48 L 154.42 125.24 C 154.80 126.07 155.78 126.43 156.60 126.05 C 157.43 125.68 157.79 124.70 157.42 123.87 L 157.07 123.11 C 156.69 122.29 155.71 121.92 154.89 122.30 C 154.06 122.68 153.70 123.65 154.07 124.48 Z M 155.18 126.02 L 155.96 126.41 C 156.76 126.82 157.75 126.49 158.15 125.69 C 158.56 124.88 158.24 123.90 157.43 123.49 L 156.66 123.10 C 155.85 122.69 154.87 123.01 154.46 123.82 C 154.05 124.62 154.37 125.61 155.18 126.02 Z M 156.79 126.57 L 157.82 126.50 C 158.71 126.45 159.40 125.68 159.34 124.79 C 159.29 123.89 158.52 123.21 157.62 123.27 L 156.60 123.33 C 155.70 123.38 155.02 124.15 155.08 125.05 C 155.13 125.94 155.90 126.62 156.79 126.57 Z M 158.36 126.37 L 159.28 125.97 C 160.10 125.62 160.48 124.67 160.13 123.86 C 159.78 123.04 158.83 122.66 158.01 123.01 L 157.09 123.41 C 156.27 123.76 155.89 124.70 156.24 125.52 C 156.59 126.34 157.54 126.72 158.36 126.37 Z M 159.59 125.79 L 160.33 125.26 C 161.05 124.73 161.21 123.73 160.69 123.01 C 160.17 122.29 159.16 122.13 158.44 122.65 L 157.71 123.19 C 156.99 123.71 156.83 124.71 157.35 125.43 C 157.87 126.15 158.87 126.31 159.59 125.79 Z M 160.48 125.13 L 161.22 124.44 C 161.86 123.83 161.90 122.82 161.29 122.17 C 160.69 121.52 159.67 121.49 159.02 122.10 L 158.29 122.78 C 157.64 123.39 157.61 124.41 158.21 125.05 C 158.82 125.70 159.84 125.73 160.48 125.13 Z M 161.29 124.36 L 162.04 123.55 C 162.65 122.90 162.61 121.89 161.96 121.28 C 161.31 120.68 160.30 120.72 159.70 121.37 L 158.95 122.18 C 158.34 122.82 158.38 123.84 159.03 124.44 C 159.68 125.04 160.69 125.01 161.29 124.36 Z M 162.07 123.51 L 162.75 122.74 C 163.34 122.07 163.27 121.06 162.60 120.48 C 161.94 119.90 160.93 119.96 160.34 120.63 L 159.67 121.40 C 159.08 122.07 159.15 123.08 159.82 123.66 C 160.48 124.25 161.49 124.18 162.07 123.51 Z M 162.76 122.73 L 163.42 121.97 C 163.99 121.30 163.92 120.29 163.25 119.71 C 162.58 119.13 161.57 119.21 160.99 119.88 L 160.34 120.64 C 159.76 121.31 159.84 122.32 160.51 122.90 C 161.17 123.47 162.18 123.40 162.76 122.73 Z M 163.42 121.96 L 164.08 121.19 C 164.66 120.52 164.58 119.51 163.91 118.94 C 163.24 118.36 162.23 118.44 161.66 119.11 L 160.99 119.88 C 160.42 120.55 160.49 121.56 161.16 122.13 C 161.83 122.71 162.84 122.63 163.42 121.96 Z M 164.07 121.20 L 164.74 120.44 C 165.32 119.77 165.25 118.77 164.58 118.19 C 163.92 117.61 162.91 117.67 162.33 118.34 L 161.67 119.10 C 161.09 119.76 161.16 120.77 161.82 121.35 C 162.48 121.93 163.49 121.86 164.07 121.20 Z M 164.72 120.46 L 165.40 119.70 C 165.99 119.04 165.94 118.04 165.29 117.45 C 164.63 116.85 163.63 116.91 163.03 117.56 L 162.35 118.32 C 161.76 118.97 161.81 119.98 162.46 120.57 C 163.12 121.16 164.13 121.11 164.72 120.46 Z M 165.36 119.76 L 166.27 118.84 C 166.89 118.21 166.89 117.19 166.26 116.57 C 165.63 115.95 164.62 115.95 163.99 116.58 L 163.08 117.50 C 162.46 118.13 162.46 119.14 163.09 119.77 C 163.72 120.39 164.73 120.39 165.36 119.76 Z M 166.09 119.01 L 166.88 118.43 C 167.60 117.90 167.75 116.89 167.23 116.17 C 166.70 115.45 165.69 115.30 164.97 115.83 L 164.18 116.41 C 163.46 116.93 163.30 117.94 163.83 118.66 C 164.36 119.38 165.37 119.54 166.09 119.01 Z M 166.03 118.75 L 166.62 118.71 C 167.52 118.66 168.20 117.88 168.14 116.99 C 168.09 116.09 167.31 115.41 166.42 115.47 L 165.82 115.50 C 164.92 115.56 164.24 116.34 164.30 117.23 C 164.36 118.13 165.13 118.81 166.03 118.75 Z M 165.11 117.91 L 165.43 118.47 C 165.89 119.25 166.89 119.51 167.67 119.06 C 168.45 118.60 168.71 117.60 168.26 116.82 L 167.93 116.27 C 167.48 115.49 166.48 115.22 165.70 115.68 C 164.92 116.13 164.65 117.13 165.11 117.91 Z M 165.22 117.85 L 165.34 118.83 C 165.45 119.73 166.27 120.37 167.17 120.25 C 168.07 120.14 168.71 119.32 168.59 118.42 L 168.47 117.44 C 168.36 116.54 167.54 115.91 166.64 116.02 C 165.74 116.13 165.10 116.95 165.22 117.85 Z M 165.32 118.55 L 165.27 119.75 C 165.23 120.66 165.93 121.43 166.84 121.47 C 167.75 121.51 168.52 120.80 168.56 119.90 L 168.61 118.70 C 168.65 117.79 167.95 117.02 167.04 116.98 C 166.13 116.94 165.36 117.65 165.32 118.55 Z M 165.29 119.57 L 165.11 120.66 C 164.97 121.56 165.58 122.40 166.48 122.55 C 167.38 122.69 168.22 122.08 168.37 121.18 L 168.54 120.08 C 168.68 119.18 168.07 118.34 167.17 118.20 C 166.27 118.05 165.43 118.67 165.29 119.57 Z M 165.14 120.51 L 164.90 121.47 C 164.67 122.35 165.20 123.24 166.09 123.47 C 166.97 123.70 167.87 123.16 168.09 122.28 L 168.34 121.33 C 168.56 120.45 168.03 119.55 167.15 119.32 C 166.27 119.10 165.37 119.63 165.14 120.51 Z M 164.93 121.36 L 164.62 122.29 C 164.34 123.16 164.80 124.09 165.67 124.37 C 166.53 124.66 167.46 124.19 167.75 123.33 L 168.06 122.39 C 168.34 121.53 167.88 120.60 167.01 120.31 C 166.15 120.03 165.22 120.49 164.93 121.36 Z M 164.65 122.22 L 164.29 123.16 C 163.96 124.01 164.39 124.96 165.24 125.28 C 166.09 125.61 167.04 125.18 167.36 124.34 L 167.72 123.40 C 168.05 122.55 167.62 121.60 166.77 121.27 C 165.92 120.95 164.97 121.37 164.65 122.22 Z M 164.30 123.13 L 163.92 124.08 C 163.58 124.92 163.98 125.88 164.82 126.22 C 165.66 126.56 166.62 126.16 166.96 125.32 L 167.35 124.37 C 167.69 123.53 167.29 122.57 166.45 122.23 C 165.61 121.88 164.65 122.29 164.30 123.13 Z M 163.92 124.07 L 163.53 125.02 C 163.18 125.85 163.58 126.81 164.41 127.16 C 165.25 127.51 166.21 127.11 166.56 126.28 L 166.95 125.33 C 167.30 124.49 166.90 123.53 166.07 123.18 C 165.23 122.83 164.27 123.23 163.92 124.07 Z M 163.54 125.01 L 163.14 125.96 C 162.78 126.79 163.17 127.75 164.01 128.10 C 164.84 128.45 165.80 128.06 166.15 127.23 L 166.55 126.28 C 166.90 125.45 166.51 124.49 165.68 124.14 C 164.85 123.79 163.89 124.18 163.54 125.01 Z M 163.14 125.95 L 162.75 126.86 C 162.39 127.69 162.77 128.65 163.60 129.01 C 164.43 129.37 165.39 128.99 165.75 128.16 L 166.14 127.24 C 166.50 126.41 166.12 125.45 165.29 125.09 C 164.46 124.74 163.50 125.12 163.14 125.95 Z M 162.76 126.85 L 162.38 127.72 C 162.01 128.54 162.39 129.51 163.21 129.87 C 164.04 130.23 165.00 129.86 165.36 129.03 L 165.74 128.17 C 166.10 127.34 165.73 126.38 164.91 126.02 C 164.08 125.66 163.12 126.03 162.76 126.85 Z M 162.39 127.70 L 161.94 128.69 C 161.57 129.51 161.93 130.48 162.75 130.85 C 163.57 131.22 164.54 130.85 164.91 130.04 L 165.35 129.05 C 165.72 128.23 165.36 127.26 164.54 126.89 C 163.72 126.52 162.76 126.88 162.39 127.70 Z M 161.95 128.67 L 161.53 129.57 C 161.14 130.38 161.49 131.35 162.31 131.73 C 163.12 132.12 164.09 131.77 164.47 130.95 L 164.89 130.06 C 165.28 129.24 164.93 128.27 164.12 127.89 C 163.30 127.51 162.33 127.86 161.95 128.67 Z M 161.54 129.54 L 161.12 130.39 C 160.73 131.19 161.06 132.17 161.86 132.57 C 162.67 132.96 163.64 132.63 164.04 131.83 L 164.46 130.98 C 164.86 130.17 164.52 129.20 163.72 128.80 C 162.91 128.40 161.94 128.74 161.54 129.54 Z M 161.14 130.36 L 160.70 131.22 C 160.29 132.02 160.60 133.00 161.40 133.41 C 162.20 133.82 163.18 133.51 163.59 132.71 L 164.03 131.85 C 164.44 131.05 164.12 130.07 163.33 129.66 C 162.53 129.25 161.55 129.57 161.14 130.36 Z M 160.71 131.20 L 160.24 132.08 C 159.82 132.88 160.12 133.86 160.91 134.28 C 161.71 134.70 162.69 134.40 163.11 133.61 L 163.58 132.73 C 164.00 131.93 163.69 130.95 162.90 130.53 C 162.11 130.11 161.13 130.41 160.71 131.20 Z M 160.25 132.07 L 159.77 132.96 C 159.34 133.75 159.64 134.73 160.42 135.16 C 161.21 135.58 162.20 135.29 162.62 134.50 L 163.10 133.62 C 163.53 132.83 163.23 131.85 162.45 131.42 C 161.66 130.99 160.67 131.29 160.25 132.07 Z M 159.77 132.96 L 159.32 133.78 C 158.90 134.57 159.19 135.55 159.97 135.98 C 160.76 136.41 161.74 136.12 162.17 135.33 L 162.62 134.51 C 163.05 133.72 162.76 132.74 161.97 132.31 C 161.18 131.88 160.20 132.17 159.77 132.96 Z M 159.33 133.78 L 158.93 134.49 C 158.50 135.28 158.79 136.26 159.57 136.69 C 160.36 137.12 161.34 136.84 161.77 136.05 L 162.16 135.33 C 162.60 134.55 162.31 133.57 161.53 133.14 C 160.74 132.71 159.76 132.99 159.33 133.78 Z M 158.94 134.48 L 158.49 135.28 C 158.06 136.06 158.33 137.04 159.11 137.48 C 159.89 137.92 160.88 137.64 161.32 136.86 L 161.76 136.06 C 162.20 135.29 161.92 134.30 161.14 133.86 C 160.36 133.43 159.38 133.70 158.94 134.48 Z M 158.50 135.26 L 157.96 136.20 C 157.52 136.97 157.78 137.96 158.56 138.41 C 159.33 138.85 160.32 138.59 160.77 137.81 L 161.31 136.88 C 161.75 136.10 161.49 135.12 160.71 134.67 C 159.94 134.22 158.95 134.49 158.50 135.26 Z M 157.97 136.18 L 157.35 137.24 C 156.89 138.01 157.15 139.00 157.92 139.46 C 158.68 139.91 159.68 139.66 160.13 138.89 L 160.76 137.83 C 161.21 137.06 160.96 136.07 160.19 135.62 C 159.42 135.16 158.43 135.42 157.97 136.18 Z M 157.35 137.23 L 156.91 137.97 C 156.45 138.74 156.69 139.73 157.46 140.19 C 158.22 140.65 159.22 140.40 159.68 139.64 L 160.12 138.90 C 160.58 138.13 160.34 137.14 159.57 136.68 C 158.81 136.22 157.81 136.47 157.35 137.23 Z M 156.91 137.97 L 156.42 138.77 C 155.96 139.53 156.20 140.53 156.96 140.99 C 157.73 141.45 158.72 141.21 159.18 140.45 L 159.67 139.65 C 160.14 138.88 159.90 137.89 159.13 137.43 C 158.37 136.96 157.38 137.20 156.91 137.97 Z M 156.43 138.76 L 155.90 139.61 C 155.44 140.37 155.67 141.37 156.43 141.84 C 157.19 142.31 158.19 142.07 158.66 141.31 L 159.18 140.46 C 159.65 139.70 159.41 138.70 158.65 138.23 C 157.89 137.77 156.89 138.00 156.43 138.76 Z M 155.91 139.61 L 155.36 140.49 C 154.89 141.25 155.12 142.25 155.88 142.72 C 156.64 143.19 157.64 142.95 158.11 142.20 L 158.65 141.31 C 159.13 140.55 158.89 139.56 158.13 139.09 C 157.37 138.62 156.38 138.85 155.91 139.61 Z M 155.36 140.49 L 154.80 141.38 C 154.33 142.14 154.55 143.14 155.31 143.61 C 156.07 144.09 157.07 143.86 157.54 143.10 L 158.10 142.20 C 158.58 141.44 158.35 140.45 157.59 139.97 C 156.83 139.50 155.84 139.73 155.36 140.49 Z M 154.80 141.38 L 154.23 142.28 C 153.76 143.03 153.98 144.03 154.74 144.51 C 155.49 144.99 156.49 144.76 156.97 144.01 L 157.54 143.11 C 158.01 142.35 157.79 141.35 157.03 140.88 C 156.28 140.40 155.28 140.62 154.80 141.38 Z M 154.24 142.27 L 153.67 143.15 C 153.19 143.91 153.41 144.91 154.16 145.39 C 154.92 145.87 155.92 145.65 156.40 144.90 L 156.96 144.01 C 157.45 143.26 157.23 142.26 156.47 141.78 C 155.72 141.30 154.72 141.52 154.24 142.27 Z M 153.68 143.14 L 153.05 144.10 C 152.57 144.85 152.78 145.86 153.53 146.35 C 154.28 146.83 155.29 146.62 155.77 145.87 L 156.40 144.91 C 156.88 144.16 156.67 143.15 155.92 142.67 C 155.17 142.18 154.16 142.39 153.68 143.14 Z M 153.05 144.09 L 152.43 145.04 C 151.94 145.79 152.15 146.80 152.90 147.29 C 153.65 147.78 154.66 147.57 155.16 146.82 L 155.77 145.88 C 156.27 145.13 156.06 144.12 155.31 143.62 C 154.55 143.13 153.55 143.34 153.05 144.09 Z M 152.43 145.03 L 151.84 145.92 C 151.35 146.67 151.55 147.69 152.31 148.18 C 153.06 148.68 154.07 148.47 154.57 147.72 L 155.16 146.83 C 155.66 146.08 155.45 145.06 154.70 144.56 C 153.94 144.07 152.93 144.27 152.43 145.03 Z M 151.84 145.91 L 151.28 146.75 C 150.78 147.51 150.99 148.53 151.75 149.03 C 152.51 149.53 153.52 149.32 154.02 148.56 L 154.58 147.72 C 155.08 146.97 154.87 145.95 154.11 145.45 C 153.36 144.95 152.34 145.16 151.84 145.91 Z M 151.28 146.75 L 150.76 147.53 C 150.26 148.29 150.48 149.31 151.24 149.81 C 152.00 150.31 153.02 150.10 153.52 149.34 L 154.03 148.56 C 154.53 147.80 154.32 146.78 153.56 146.28 C 152.80 145.78 151.78 145.99 151.28 146.75 Z M 150.75 147.53 L 150.29 148.25 C 149.79 149.02 150.01 150.05 150.78 150.54 C 151.55 151.04 152.57 150.82 153.07 150.05 L 153.53 149.33 C 154.03 148.57 153.81 147.54 153.04 147.04 C 152.27 146.55 151.25 146.77 150.75 147.53 Z M 150.26 148.27 L 149.66 149.24 C 149.17 150.02 149.41 151.05 150.19 151.54 C 150.97 152.03 152.00 151.79 152.49 151.01 L 153.09 150.03 C 153.58 149.25 153.34 148.22 152.56 147.74 C 151.78 147.25 150.75 147.49 150.26 148.27 Z M 149.60 149.31 L 148.99 150.42 C 148.54 151.23 148.84 152.26 149.65 152.70 C 150.46 153.15 151.49 152.86 151.94 152.04 L 152.54 150.94 C 152.99 150.12 152.70 149.10 151.88 148.65 C 151.07 148.20 150.05 148.50 149.60 149.31 Z M 148.83 150.75 L 148.64 151.39 C 148.37 152.30 148.89 153.24 149.79 153.51 C 150.69 153.78 151.63 153.26 151.90 152.36 L 152.09 151.71 C 152.36 150.81 151.85 149.87 150.95 149.60 C 150.04 149.33 149.10 149.85 148.83 150.75 Z M 149.67 153.49 L 149.97 153.60 C 150.86 153.93 151.85 153.47 152.18 152.59 C 152.51 151.70 152.05 150.71 151.17 150.38 L 150.87 150.27 C 149.98 149.94 148.99 150.39 148.66 151.28 C 148.33 152.17 148.79 153.16 149.67 153.49 Z M 151.32 153.54 L 152.07 153.17 C 152.92 152.76 153.28 151.73 152.86 150.88 C 152.45 150.02 151.42 149.67 150.56 150.08 L 149.82 150.44 C 148.96 150.86 148.61 151.89 149.02 152.74 C 149.44 153.59 150.47 153.95 151.32 153.54 Z M 152.26 153.06 L 153.35 152.35 C 154.15 151.83 154.37 150.76 153.85 149.97 C 153.33 149.17 152.26 148.95 151.47 149.47 L 150.37 150.19 C 149.58 150.71 149.36 151.77 149.88 152.57 C 150.40 153.36 151.46 153.58 152.26 153.06 Z M 153.40 152.31 L 154.28 151.69 C 155.06 151.14 155.24 150.07 154.70 149.29 C 154.15 148.52 153.08 148.34 152.30 148.88 L 151.42 149.51 C 150.65 150.05 150.46 151.13 151.01 151.90 C 151.56 152.68 152.63 152.86 153.40 152.31 Z M 154.30 151.68 L 155.03 151.15 C 155.80 150.59 155.98 149.52 155.42 148.75 C 154.87 147.98 153.79 147.81 153.02 148.36 L 152.29 148.89 C 151.52 149.45 151.35 150.52 151.90 151.29 C 152.46 152.06 153.53 152.23 154.30 151.68 Z M 155.03 151.14 L 155.82 150.58 C 156.59 150.02 156.76 148.95 156.21 148.18 C 155.65 147.41 154.58 147.24 153.81 147.80 L 153.02 148.37 C 152.26 148.92 152.08 149.99 152.64 150.76 C 153.19 151.53 154.27 151.70 155.03 151.14 Z M 155.82 150.58 L 156.65 149.98 C 157.42 149.43 157.59 148.36 157.04 147.59 C 156.49 146.82 155.42 146.64 154.65 147.20 L 153.82 147.79 C 153.05 148.35 152.87 149.42 153.42 150.19 C 153.98 150.95 155.05 151.13 155.82 150.58 Z M 156.64 149.98 L 157.52 149.36 C 158.29 148.82 158.47 147.75 157.92 146.98 C 157.38 146.21 156.31 146.02 155.54 146.57 L 154.66 147.19 C 153.89 147.74 153.71 148.80 154.25 149.57 C 154.80 150.35 155.87 150.53 156.64 149.98 Z M 157.50 149.37 L 158.42 148.74 C 159.19 148.20 159.39 147.14 158.85 146.36 C 158.32 145.58 157.25 145.39 156.47 145.93 L 155.56 146.56 C 154.78 147.10 154.58 148.16 155.12 148.94 C 155.66 149.71 156.72 149.91 157.50 149.37 Z M 158.40 148.75 L 159.25 148.18 C 160.03 147.65 160.24 146.59 159.72 145.81 C 159.19 145.03 158.13 144.82 157.35 145.34 L 156.49 145.91 C 155.71 146.44 155.50 147.50 156.03 148.28 C 156.55 149.07 157.61 149.28 158.40 148.75 Z M 159.23 148.19 L 160.10 147.62 C 160.88 147.10 161.10 146.05 160.59 145.26 C 160.07 144.47 159.02 144.25 158.23 144.77 L 157.36 145.33 C 156.58 145.85 156.36 146.91 156.87 147.69 C 157.39 148.48 158.44 148.70 159.23 148.19 Z M 160.08 147.63 L 160.95 147.07 C 161.74 146.56 161.97 145.51 161.46 144.72 C 160.96 143.93 159.90 143.70 159.11 144.21 L 158.24 144.76 C 157.45 145.27 157.22 146.32 157.73 147.11 C 158.24 147.90 159.29 148.13 160.08 147.63 Z M 160.94 147.07 L 161.80 146.53 C 162.59 146.03 162.83 144.98 162.33 144.19 C 161.83 143.40 160.78 143.16 159.99 143.66 L 159.13 144.20 C 158.33 144.70 158.10 145.75 158.60 146.54 C 159.10 147.33 160.14 147.57 160.94 147.07 Z M 161.79 146.53 L 162.63 146.01 C 163.42 145.51 163.67 144.47 163.17 143.68 C 162.68 142.88 161.63 142.64 160.84 143.13 L 160.00 143.65 C 159.20 144.15 158.96 145.19 159.45 145.99 C 159.95 146.78 160.99 147.03 161.79 146.53 Z M 162.62 146.01 L 163.43 145.51 C 164.22 145.03 164.47 143.99 163.98 143.19 C 163.49 142.39 162.45 142.15 161.66 142.63 L 160.85 143.13 C 160.05 143.62 159.80 144.66 160.29 145.46 C 160.78 146.25 161.82 146.50 162.62 146.01 Z M 163.42 145.52 L 164.27 145.00 C 165.06 144.52 165.31 143.48 164.83 142.68 C 164.35 141.89 163.31 141.63 162.51 142.12 L 161.67 142.63 C 160.87 143.12 160.62 144.15 161.10 144.95 C 161.58 145.75 162.62 146.00 163.42 145.52 Z M 164.26 145.00 L 165.13 144.48 C 165.92 144.00 166.18 142.97 165.70 142.17 C 165.22 141.37 164.19 141.12 163.39 141.59 L 162.52 142.12 C 161.73 142.60 161.47 143.63 161.95 144.42 C 162.43 145.22 163.46 145.48 164.26 145.00 Z M 165.12 144.48 L 165.95 143.98 C 166.75 143.51 167.01 142.48 166.54 141.68 C 166.06 140.89 165.04 140.63 164.24 141.10 L 163.40 141.59 C 162.61 142.07 162.35 143.10 162.82 143.89 C 163.29 144.69 164.32 144.95 165.12 144.48 Z M 165.94 143.98 L 166.77 143.49 C 167.57 143.03 167.83 142.00 167.37 141.21 C 166.90 140.41 165.88 140.14 165.08 140.61 L 164.25 141.10 C 163.45 141.57 163.19 142.59 163.66 143.38 C 164.12 144.18 165.15 144.45 165.94 143.98 Z M 166.76 143.49 L 167.62 143.00 C 168.41 142.53 168.68 141.51 168.22 140.72 C 167.76 139.92 166.74 139.65 165.94 140.12 L 165.09 140.61 C 164.30 141.07 164.03 142.09 164.49 142.89 C 164.95 143.68 165.97 143.95 166.76 143.49 Z M 167.61 142.99 L 168.49 142.49 C 169.28 142.03 169.56 141.01 169.10 140.22 C 168.64 139.42 167.63 139.15 166.83 139.61 L 165.95 140.12 C 165.16 140.57 164.88 141.59 165.34 142.38 C 165.80 143.18 166.82 143.45 167.61 142.99 Z M 168.48 142.49 L 169.35 141.99 C 170.15 141.54 170.42 140.53 169.97 139.73 C 169.51 138.94 168.50 138.66 167.71 139.11 L 166.84 139.61 C 166.04 140.06 165.77 141.08 166.22 141.87 C 166.68 142.67 167.69 142.94 168.48 142.49 Z M 169.34 142.00 L 170.24 141.49 C 171.04 141.05 171.32 140.04 170.87 139.24 C 170.42 138.44 169.42 138.16 168.62 138.60 L 167.72 139.11 C 166.92 139.56 166.64 140.57 167.08 141.36 C 167.53 142.16 168.54 142.45 169.34 142.00 Z M 170.22 141.50 L 171.13 141.01 C 171.93 140.57 172.23 139.56 171.79 138.76 C 171.35 137.96 170.35 137.66 169.55 138.10 L 168.64 138.59 C 167.83 139.03 167.54 140.04 167.97 140.84 C 168.41 141.64 169.42 141.94 170.22 141.50 Z M 171.10 141.02 L 172.01 140.55 C 172.82 140.12 173.13 139.12 172.71 138.31 C 172.28 137.50 171.28 137.19 170.47 137.61 L 169.57 138.08 C 168.76 138.51 168.45 139.51 168.87 140.32 C 169.29 141.13 170.29 141.44 171.10 141.02 Z M 171.97 140.57 L 172.84 140.14 C 173.66 139.73 174.00 138.74 173.60 137.92 C 173.19 137.10 172.20 136.77 171.38 137.17 L 170.51 137.60 C 169.69 138.00 169.35 138.99 169.76 139.81 C 170.16 140.63 171.15 140.97 171.97 140.57 Z M 172.78 140.17 L 173.80 139.72 C 174.64 139.35 175.02 138.37 174.65 137.53 C 174.28 136.70 173.30 136.32 172.47 136.69 L 171.44 137.14 C 170.61 137.51 170.23 138.48 170.60 139.32 C 170.97 140.16 171.94 140.54 172.78 140.17 Z M 173.68 139.78 L 174.82 139.38 C 175.69 139.08 176.15 138.14 175.85 137.27 C 175.55 136.40 174.61 135.93 173.73 136.23 L 172.59 136.63 C 171.72 136.93 171.26 137.87 171.56 138.74 C 171.86 139.62 172.81 140.08 173.68 139.78 Z M 174.55 139.47 L 175.49 139.31 C 176.41 139.17 177.03 138.30 176.88 137.39 C 176.73 136.47 175.87 135.85 174.95 136.00 L 174.01 136.15 C 173.09 136.30 172.47 137.16 172.62 138.08 C 172.77 138.99 173.63 139.62 174.55 139.47 Z M 174.91 139.32 L 175.63 139.45 C 176.55 139.62 177.43 139.01 177.60 138.09 C 177.77 137.17 177.16 136.29 176.24 136.12 L 175.53 135.99 C 174.61 135.82 173.72 136.43 173.55 137.35 C 173.38 138.27 173.99 139.15 174.91 139.32 Z M 174.68 138.95 L 175.19 139.49 C 175.84 140.18 176.92 140.22 177.60 139.58 C 178.29 138.93 178.33 137.86 177.69 137.17 L 177.18 136.62 C 176.54 135.93 175.46 135.90 174.77 136.54 C 174.08 137.18 174.04 138.26 174.68 138.95 Z M 174.79 138.75 L 175.02 139.68 C 175.26 140.59 176.19 141.14 177.10 140.91 C 178.01 140.67 178.56 139.74 178.33 138.83 L 178.09 137.91 C 177.86 136.99 176.93 136.44 176.02 136.68 C 175.10 136.91 174.55 137.84 174.79 138.75 Z M 174.97 139.33 L 175.02 140.45 C 175.06 141.39 175.86 142.13 176.80 142.08 C 177.74 142.04 178.47 141.25 178.43 140.30 L 178.38 139.18 C 178.34 138.24 177.54 137.50 176.60 137.55 C 175.66 137.59 174.93 138.38 174.97 139.33 Z M 175.02 140.34 L 174.99 141.28 C 174.97 142.22 175.72 143.00 176.66 143.02 C 177.60 143.05 178.39 142.30 178.41 141.36 L 178.43 140.42 C 178.46 139.48 177.71 138.69 176.77 138.67 C 175.82 138.65 175.04 139.39 175.02 140.34 Z M 175.00 141.20 L 174.94 142.09 C 174.87 143.03 175.59 143.84 176.53 143.91 C 177.47 143.97 178.28 143.26 178.35 142.32 L 178.41 141.43 C 178.47 140.49 177.76 139.68 176.82 139.61 C 175.88 139.55 175.06 140.26 175.00 141.20 Z M 174.95 141.99 L 174.83 142.96 C 174.71 143.90 175.38 144.75 176.31 144.87 C 177.25 144.98 178.10 144.32 178.22 143.38 L 178.34 142.41 C 178.45 141.48 177.79 140.62 176.85 140.51 C 175.91 140.39 175.06 141.06 174.95 141.99 Z M 174.84 142.87 L 174.64 143.97 C 174.47 144.90 175.09 145.78 176.02 145.95 C 176.95 146.12 177.84 145.51 178.00 144.58 L 178.20 143.48 C 178.37 142.55 177.76 141.66 176.83 141.49 C 175.90 141.32 175.01 141.94 174.84 142.87 Z M 174.66 143.89 L 174.41 144.95 C 174.20 145.87 174.77 146.78 175.69 147.00 C 176.61 147.21 177.53 146.64 177.74 145.72 L 177.99 144.66 C 178.20 143.74 177.63 142.82 176.71 142.61 C 175.79 142.40 174.87 142.97 174.66 143.89 Z M 174.43 144.90 L 174.17 145.85 C 173.93 146.77 174.48 147.70 175.39 147.94 C 176.30 148.18 177.24 147.64 177.48 146.73 L 177.73 145.77 C 177.97 144.86 177.43 143.92 176.51 143.68 C 175.60 143.44 174.67 143.98 174.43 144.90 Z M 174.18 145.82 L 173.90 146.82 C 173.64 147.73 174.17 148.68 175.07 148.93 C 175.98 149.19 176.93 148.67 177.18 147.76 L 177.47 146.76 C 177.73 145.85 177.20 144.90 176.29 144.65 C 175.39 144.39 174.44 144.92 174.18 145.82 Z M 173.90 146.80 L 173.60 147.81 C 173.33 148.72 173.84 149.67 174.75 149.94 C 175.65 150.21 176.60 149.70 176.87 148.79 L 177.18 147.78 C 177.45 146.88 176.94 145.93 176.03 145.65 C 175.13 145.38 174.18 145.90 173.90 146.80 Z M 173.61 147.79 L 173.30 148.78 C 173.02 149.68 173.52 150.64 174.42 150.92 C 175.32 151.20 176.28 150.70 176.56 149.80 L 176.87 148.81 C 177.15 147.91 176.65 146.95 175.75 146.67 C 174.85 146.39 173.89 146.89 173.61 147.79 Z M 173.30 148.77 L 173.01 149.70 C 172.72 150.59 173.21 151.56 174.11 151.84 C 175.01 152.13 175.97 151.64 176.26 150.74 L 176.56 149.81 C 176.85 148.91 176.35 147.95 175.45 147.66 C 174.55 147.37 173.59 147.87 173.30 148.77 Z M 173.01 149.68 L 172.69 150.65 C 172.40 151.54 172.89 152.51 173.78 152.80 C 174.68 153.10 175.64 152.61 175.94 151.71 L 176.26 150.75 C 176.55 149.85 176.06 148.89 175.17 148.59 C 174.27 148.30 173.31 148.79 173.01 149.68 Z M 172.70 150.63 L 172.36 151.63 C 172.06 152.52 172.54 153.49 173.43 153.79 C 174.32 154.10 175.29 153.62 175.59 152.73 L 175.93 151.73 C 176.23 150.84 175.76 149.87 174.86 149.57 C 173.97 149.26 173.01 149.74 172.70 150.63 Z M 172.38 151.61 L 172.06 152.50 C 171.74 153.39 172.21 154.36 173.09 154.67 C 173.98 154.99 174.95 154.53 175.26 153.64 L 175.58 152.75 C 175.89 151.86 175.43 150.89 174.55 150.58 C 173.66 150.26 172.69 150.73 172.38 151.61 Z M 172.07 152.48 L 171.75 153.35 C 171.42 154.23 171.87 155.21 172.75 155.53 C 173.62 155.86 174.60 155.41 174.93 154.53 L 175.25 153.66 C 175.58 152.79 175.13 151.81 174.25 151.48 C 173.38 151.16 172.40 151.60 172.07 152.48 Z M 171.76 153.33 L 171.40 154.25 C 171.07 155.13 171.50 156.11 172.37 156.44 C 173.24 156.78 174.22 156.35 174.56 155.47 L 174.92 154.55 C 175.25 153.68 174.82 152.70 173.95 152.36 C 173.08 152.03 172.10 152.46 171.76 153.33 Z M 171.41 154.24 L 171.06 155.13 C 170.72 156.00 171.15 156.98 172.01 157.32 C 172.88 157.66 173.86 157.24 174.20 156.37 L 174.55 155.48 C 174.89 154.62 174.47 153.64 173.60 153.29 C 172.73 152.95 171.75 153.38 171.41 154.24 Z M 171.07 155.12 L 170.69 156.07 C 170.34 156.93 170.76 157.91 171.63 158.26 C 172.49 158.61 173.47 158.19 173.82 157.32 L 174.20 156.38 C 174.54 155.51 174.12 154.53 173.26 154.19 C 172.40 153.84 171.41 154.26 171.07 155.12 Z M 170.70 156.06 L 170.30 157.03 C 169.95 157.89 170.36 158.87 171.22 159.22 C 172.08 159.57 173.07 159.16 173.42 158.30 L 173.81 157.33 C 174.16 156.47 173.75 155.49 172.89 155.14 C 172.03 154.79 171.05 155.20 170.70 156.06 Z M 170.31 157.02 L 169.91 157.97 C 169.56 158.82 169.97 159.81 170.82 160.16 C 171.68 160.52 172.66 160.11 173.02 159.25 L 173.41 158.31 C 173.77 157.45 173.36 156.47 172.50 156.11 C 171.65 155.76 170.66 156.16 170.31 157.02 Z M 169.92 157.96 L 169.54 158.85 C 169.18 159.70 169.58 160.68 170.43 161.04 C 171.28 161.41 172.27 161.01 172.63 160.16 L 173.01 159.27 C 173.37 158.41 172.97 157.43 172.12 157.07 C 171.27 156.71 170.28 157.10 169.92 157.96 Z M 169.56 158.83 L 169.10 159.88 C 168.73 160.72 169.11 161.71 169.96 162.08 C 170.80 162.45 171.78 162.07 172.16 161.22 L 172.62 160.17 C 172.99 159.33 172.60 158.34 171.76 157.97 C 170.91 157.60 169.93 157.98 169.56 158.83 Z M 169.12 159.86 L 168.69 160.78 C 168.31 161.62 168.68 162.60 169.52 162.98 C 170.35 163.36 171.34 163.00 171.72 162.16 L 172.14 161.24 C 172.52 160.40 172.15 159.42 171.32 159.04 C 170.48 158.66 169.50 159.03 169.12 159.86 Z M 168.71 160.77 L 168.32 161.61 C 167.93 162.44 168.28 163.42 169.11 163.81 C 169.93 164.20 170.92 163.84 171.30 163.02 L 171.70 162.18 C 172.09 161.35 171.73 160.37 170.91 159.98 C 170.08 159.59 169.10 159.95 168.71 160.77 Z M 168.33 161.61 L 167.94 162.43 C 167.55 163.25 167.89 164.23 168.71 164.62 C 169.53 165.01 170.51 164.66 170.90 163.84 L 171.29 163.02 C 171.68 162.20 171.34 161.22 170.52 160.83 C 169.70 160.44 168.72 160.79 168.33 161.61 Z M 167.94 162.43 L 167.51 163.33 C 167.12 164.15 167.46 165.12 168.28 165.51 C 169.09 165.90 170.07 165.56 170.46 164.75 L 170.89 163.84 C 171.28 163.03 170.94 162.05 170.12 161.66 C 169.31 161.27 168.33 161.61 167.94 162.43 Z M 167.52 163.33 L 167.08 164.23 C 166.69 165.04 167.03 166.01 167.83 166.40 C 168.64 166.80 169.62 166.46 170.01 165.65 L 170.45 164.75 C 170.84 163.94 170.51 162.97 169.70 162.57 C 168.89 162.18 167.91 162.52 167.52 163.33 Z M 167.09 164.21 L 166.65 165.11 C 166.25 165.91 166.58 166.88 167.38 167.28 C 168.18 167.68 169.15 167.36 169.55 166.56 L 170.00 165.66 C 170.40 164.86 170.07 163.89 169.27 163.49 C 168.47 163.09 167.49 163.41 167.09 164.21 Z M 166.66 165.09 L 166.21 165.96 C 165.80 166.76 166.11 167.73 166.91 168.14 C 167.70 168.55 168.68 168.24 169.09 167.45 L 169.54 166.57 C 169.95 165.78 169.64 164.80 168.84 164.39 C 168.05 163.98 167.07 164.30 166.66 165.09 Z M 166.23 165.95 L 165.76 166.82 C 165.34 167.60 165.64 168.58 166.43 169.00 C 167.21 169.42 168.19 169.12 168.61 168.34 L 169.07 167.46 C 169.49 166.68 169.19 165.70 168.41 165.28 C 167.62 164.86 166.65 165.16 166.23 165.95 Z M 165.77 166.81 L 165.29 167.69 C 164.87 168.47 165.16 169.45 165.93 169.87 C 166.71 170.30 167.69 170.01 168.11 169.23 L 168.60 168.35 C 169.02 167.57 168.73 166.59 167.95 166.17 C 167.18 165.74 166.20 166.03 165.77 166.81 Z M 165.30 167.69 L 164.83 168.54 C 164.40 169.32 164.68 170.29 165.46 170.72 C 166.23 171.14 167.21 170.86 167.63 170.09 L 168.10 169.24 C 168.53 168.46 168.25 167.49 167.48 167.06 C 166.70 166.63 165.73 166.91 165.30 167.69 Z M 164.84 168.53 L 164.39 169.33 C 163.96 170.10 164.23 171.07 165.00 171.50 C 165.77 171.94 166.75 171.66 167.18 170.89 L 167.62 170.10 C 168.06 169.33 167.78 168.35 167.01 167.92 C 166.24 167.49 165.27 167.77 164.84 168.53 Z M 164.41 169.32 L 163.92 170.16 C 163.48 170.92 163.74 171.89 164.50 172.33 C 165.26 172.77 166.23 172.51 166.67 171.75 L 167.16 170.91 C 167.60 170.15 167.34 169.18 166.58 168.74 C 165.82 168.30 164.85 168.55 164.41 169.32 Z M 163.94 170.14 L 163.39 171.04 C 162.94 171.79 163.18 172.77 163.93 173.22 C 164.68 173.67 165.65 173.43 166.11 172.68 L 166.65 171.78 C 167.11 171.03 166.87 170.05 166.12 169.60 C 165.37 169.15 164.39 169.39 163.94 170.14 Z M 163.41 171.02 L 162.84 171.92 C 162.37 172.66 162.59 173.64 163.33 174.10 C 164.07 174.57 165.05 174.35 165.51 173.61 L 166.09 172.71 C 166.55 171.97 166.33 170.99 165.59 170.53 C 164.86 170.06 163.88 170.28 163.41 171.02 Z M 162.86 171.90 L 162.33 172.69 C 161.85 173.42 162.05 174.40 162.78 174.88 C 163.51 175.36 164.49 175.16 164.97 174.43 L 165.50 173.64 C 165.98 172.91 165.78 171.93 165.05 171.45 C 164.32 170.97 163.34 171.17 162.86 171.90 Z M 162.35 172.67 L 161.78 173.50 C 161.29 174.21 161.47 175.19 162.19 175.69 C 162.91 176.18 163.89 176.00 164.38 175.28 L 164.95 174.46 C 165.44 173.74 165.26 172.76 164.54 172.26 C 163.83 171.77 162.84 171.95 162.35 172.67 Z M 161.80 173.47 L 161.21 174.30 C 160.70 175.01 160.86 175.99 161.57 176.50 C 162.27 177.01 163.26 176.85 163.77 176.14 L 164.36 175.31 C 164.87 174.60 164.71 173.62 164.00 173.11 C 163.30 172.60 162.31 172.76 161.80 173.47 Z M 161.23 174.27 L 160.61 175.10 C 160.09 175.79 160.23 176.78 160.92 177.30 C 161.61 177.82 162.60 177.68 163.12 176.99 L 163.74 176.17 C 164.26 175.47 164.13 174.49 163.43 173.97 C 162.74 173.44 161.75 173.58 161.23 174.27 Z M 160.64 175.06 L 160.00 175.86 C 159.46 176.54 159.57 177.53 160.25 178.07 C 160.93 178.61 161.92 178.50 162.46 177.82 L 163.09 177.02 C 163.63 176.35 163.52 175.36 162.85 174.82 C 162.17 174.28 161.18 174.39 160.64 175.06 Z M 160.04 175.82 L 159.35 176.62 C 158.79 177.28 158.86 178.27 159.52 178.84 C 160.18 179.40 161.17 179.32 161.73 178.66 L 162.42 177.86 C 162.99 177.20 162.91 176.21 162.25 175.65 C 161.59 175.08 160.60 175.16 160.04 175.82 Z M 159.39 176.58 L 158.70 177.33 C 158.11 177.97 158.15 178.96 158.78 179.55 C 159.42 180.13 160.41 180.10 161.00 179.46 L 161.69 178.71 C 162.28 178.07 162.24 177.08 161.61 176.50 C 160.97 175.91 159.98 175.94 159.39 176.58 Z M 158.75 177.28 L 158.04 177.98 C 157.42 178.59 157.42 179.58 158.03 180.20 C 158.64 180.81 159.63 180.82 160.24 180.21 L 160.95 179.51 C 161.56 178.90 161.57 177.91 160.96 177.30 C 160.35 176.68 159.36 176.68 158.75 177.28 Z M 158.09 177.94 L 157.37 178.58 C 156.73 179.16 156.68 180.15 157.26 180.79 C 157.84 181.43 158.83 181.48 159.47 180.90 L 160.19 180.26 C 160.83 179.68 160.88 178.69 160.30 178.05 C 159.72 177.41 158.73 177.36 158.09 177.94 Z M 157.43 178.53 L 156.70 179.14 C 156.03 179.68 155.93 180.67 156.47 181.33 C 157.02 182.00 158.00 182.10 158.67 181.56 L 159.41 180.95 C 160.08 180.41 160.18 179.42 159.63 178.76 C 159.09 178.09 158.10 177.99 157.43 178.53 Z M 156.76 179.09 L 155.94 179.69 C 155.25 180.20 155.09 181.18 155.60 181.87 C 156.11 182.57 157.09 182.72 157.79 182.21 L 158.61 181.61 C 159.30 181.10 159.45 180.12 158.94 179.42 C 158.43 178.73 157.46 178.58 156.76 179.09 Z M 156.00 179.65 L 155.16 180.20 C 154.45 180.68 154.25 181.65 154.73 182.37 C 155.21 183.09 156.18 183.28 156.90 182.80 L 157.73 182.25 C 158.45 181.77 158.64 180.80 158.16 180.08 C 157.68 179.36 156.71 179.17 156.00 179.65 Z M 155.21 180.18 L 154.36 180.70 C 153.63 181.16 153.40 182.12 153.86 182.85 C 154.31 183.58 155.28 183.81 156.01 183.35 L 156.85 182.83 C 157.59 182.37 157.81 181.41 157.36 180.68 C 156.90 179.95 155.94 179.72 155.21 180.18 Z M 154.39 180.69 L 153.54 181.19 C 152.80 181.63 152.55 182.59 152.99 183.33 C 153.43 184.07 154.39 184.32 155.13 183.88 L 155.98 183.37 C 156.72 182.93 156.97 181.97 156.53 181.23 C 156.09 180.49 155.13 180.25 154.39 180.69 Z M 153.54 181.19 L 153.19 181.40 C 152.44 181.83 152.19 182.79 152.63 183.53 C 153.07 184.28 154.02 184.53 154.77 184.09 L 155.12 183.88 C 155.87 183.44 156.12 182.49 155.68 181.74 C 155.24 181.00 154.29 180.75 153.54 181.19 Z"
      fill="black"
      fill-rule="nonzero" /><path d="M 137.05 139.43 L 137.76 140.07 C 138.46 140.70 139.54 140.65 140.17 139.95 C 140.80 139.25 140.74 138.18 140.05 137.54 L 139.34 136.90 C 138.64 136.27 137.56 136.33 136.93 137.03 C 136.30 137.73 136.35 138.80 137.05 139.43 Z M 137.74 140.11 L 138.47 140.76 C 139.19 141.40 140.29 141.33 140.93 140.62 C 141.57 139.90 141.51 138.80 140.79 138.16 L 140.06 137.51 C 139.35 136.87 138.25 136.93 137.61 137.65 C 136.97 138.37 137.03 139.47 137.74 140.11 Z M 138.46 140.79 L 139.22 141.46 C 139.96 142.11 141.08 142.03 141.73 141.29 C 142.37 140.56 142.30 139.43 141.56 138.79 L 140.80 138.12 C 140.06 137.47 138.94 137.55 138.29 138.29 C 137.65 139.03 137.72 140.15 138.46 140.79 Z M 139.21 141.50 L 140.02 142.19 C 140.78 142.84 141.93 142.75 142.58 141.99 C 143.23 141.22 143.13 140.08 142.37 139.43 L 141.57 138.74 C 140.80 138.09 139.66 138.19 139.01 138.95 C 138.36 139.71 138.45 140.85 139.21 141.50 Z M 140.03 142.22 L 140.79 142.85 C 141.57 143.50 142.72 143.39 143.37 142.61 C 144.02 141.83 143.91 140.68 143.13 140.03 L 142.37 139.40 C 141.59 138.75 140.43 138.86 139.78 139.64 C 139.14 140.42 139.25 141.58 140.03 142.22 Z M 140.80 142.87 L 141.59 143.51 C 142.38 144.15 143.54 144.03 144.18 143.24 C 144.82 142.45 144.69 141.29 143.91 140.65 L 143.11 140.01 C 142.32 139.37 141.17 139.50 140.53 140.29 C 139.89 141.07 140.01 142.23 140.80 142.87 Z M 141.60 143.53 L 142.40 144.16 C 143.20 144.79 144.36 144.66 144.99 143.86 C 145.63 143.06 145.49 141.90 144.69 141.27 L 143.89 140.64 C 143.10 140.00 141.94 140.14 141.30 140.94 C 140.67 141.73 140.81 142.89 141.60 143.53 Z M 142.41 144.17 L 143.20 144.78 C 144.00 145.41 145.16 145.27 145.79 144.46 C 146.42 143.66 146.27 142.49 145.47 141.87 L 144.68 141.25 C 143.88 140.63 142.72 140.77 142.09 141.58 C 141.46 142.38 141.61 143.55 142.41 144.17 Z M 143.21 144.80 L 144.01 145.41 C 144.83 146.04 145.99 145.88 146.61 145.07 C 147.23 144.25 147.08 143.09 146.26 142.47 L 145.46 141.85 C 144.64 141.23 143.48 141.39 142.86 142.20 C 142.24 143.01 142.39 144.18 143.21 144.80 Z M 144.02 145.43 L 144.83 146.03 C 145.65 146.65 146.82 146.48 147.43 145.66 C 148.05 144.84 147.88 143.67 147.06 143.06 L 146.25 142.45 C 145.43 141.84 144.26 142.01 143.65 142.83 C 143.03 143.65 143.20 144.81 144.02 145.43 Z M 144.85 146.05 L 145.63 146.62 C 146.46 147.23 147.63 147.05 148.23 146.22 C 148.84 145.39 148.66 144.23 147.83 143.62 L 147.05 143.04 C 146.22 142.44 145.05 142.62 144.45 143.44 C 143.84 144.27 144.02 145.44 144.85 146.05 Z M 145.64 146.63 L 146.44 147.21 C 147.27 147.81 148.44 147.62 149.04 146.79 C 149.64 145.95 149.45 144.79 148.62 144.19 L 147.82 143.61 C 146.99 143.01 145.83 143.20 145.22 144.03 C 144.62 144.87 144.81 146.03 145.64 146.63 Z M 146.45 147.22 L 147.22 147.77 C 148.06 148.37 149.22 148.17 149.82 147.33 C 150.42 146.50 150.23 145.33 149.39 144.73 L 148.61 144.18 C 147.78 143.58 146.61 143.77 146.01 144.61 C 145.41 145.45 145.61 146.62 146.45 147.22 Z M 147.22 147.77 L 148.00 148.32 C 148.84 148.92 150.01 148.72 150.60 147.88 C 151.20 147.04 151.00 145.87 150.16 145.28 L 149.38 144.73 C 148.54 144.13 147.38 144.33 146.78 145.17 C 146.18 146.01 146.38 147.18 147.22 147.77 Z M 148.00 148.33 L 148.81 148.90 C 149.66 149.50 150.82 149.30 151.42 148.45 C 152.02 147.61 151.81 146.44 150.97 145.84 L 150.16 145.27 C 149.31 144.68 148.15 144.88 147.55 145.72 C 146.95 146.57 147.16 147.73 148.00 148.33 Z M 148.81 148.91 L 149.66 149.50 C 150.51 150.10 151.68 149.89 152.27 149.05 C 152.87 148.20 152.66 147.03 151.82 146.44 L 150.97 145.84 C 150.12 145.25 148.95 145.45 148.36 146.30 C 147.76 147.14 147.97 148.31 148.81 148.91 Z M 149.66 149.51 L 150.53 150.11 C 151.37 150.70 152.54 150.50 153.14 149.65 C 153.73 148.80 153.53 147.63 152.68 147.04 L 151.82 146.43 C 150.97 145.84 149.80 146.05 149.21 146.89 C 148.61 147.74 148.82 148.91 149.66 149.51 Z M 150.53 150.11 L 151.30 150.65 C 152.15 151.25 153.32 151.04 153.91 150.19 C 154.51 149.34 154.30 148.17 153.45 147.58 L 152.68 147.04 C 151.83 146.44 150.66 146.65 150.06 147.50 C 149.47 148.35 149.68 149.52 150.53 150.11 Z M 151.30 150.65 L 152.09 151.21 C 152.94 151.81 154.11 151.60 154.71 150.75 C 155.31 149.90 155.10 148.73 154.25 148.14 L 153.45 147.58 C 152.60 146.98 151.43 147.19 150.84 148.04 C 150.24 148.88 150.45 150.06 151.30 150.65 Z M 152.09 151.21 L 152.91 151.79 C 153.76 152.39 154.93 152.18 155.53 151.34 C 156.13 150.49 155.92 149.32 155.08 148.72 L 154.26 148.14 C 153.41 147.54 152.23 147.74 151.64 148.59 C 151.04 149.44 151.24 150.61 152.09 151.21 Z M 152.90 151.78 L 153.74 152.38 C 154.59 152.98 155.76 152.79 156.36 151.94 C 156.97 151.09 156.77 149.92 155.92 149.32 L 155.08 148.72 C 154.24 148.12 153.06 148.32 152.46 149.16 C 151.86 150.01 152.06 151.18 152.90 151.78 Z M 153.73 152.38 L 154.59 152.99 C 155.43 153.60 156.61 153.41 157.22 152.57 C 157.82 151.72 157.63 150.55 156.79 149.94 L 155.93 149.32 C 155.09 148.72 153.91 148.91 153.31 149.75 C 152.70 150.60 152.89 151.77 153.73 152.38 Z M 154.58 152.99 L 155.37 153.56 C 156.21 154.17 157.38 153.99 158.00 153.15 C 158.61 152.31 158.42 151.13 157.58 150.52 L 156.80 149.95 C 155.96 149.33 154.78 149.52 154.17 150.36 C 153.56 151.20 153.74 152.38 154.58 152.99 Z M 155.36 153.55 L 156.15 154.14 C 156.98 154.75 158.16 154.57 158.78 153.74 C 159.40 152.90 159.22 151.72 158.38 151.11 L 157.59 150.52 C 156.76 149.91 155.58 150.09 154.96 150.92 C 154.34 151.76 154.52 152.94 155.36 153.55 Z M 156.14 154.13 L 156.93 154.72 C 157.77 155.35 158.95 155.18 159.57 154.34 C 160.19 153.51 160.02 152.33 159.19 151.71 L 158.39 151.11 C 157.56 150.49 156.38 150.66 155.75 151.49 C 155.13 152.33 155.30 153.51 156.14 154.13 Z M 156.92 154.72 L 157.73 155.33 C 158.56 155.95 159.74 155.79 160.37 154.96 C 160.99 154.13 160.83 152.95 160.00 152.32 L 159.20 151.71 C 158.37 151.09 157.18 151.25 156.56 152.08 C 155.93 152.91 156.09 154.09 156.92 154.72 Z M 157.72 155.32 L 158.53 155.94 C 159.35 156.57 160.54 156.42 161.17 155.59 C 161.80 154.76 161.65 153.58 160.82 152.95 L 160.01 152.33 C 159.18 151.70 158.00 151.85 157.37 152.68 C 156.74 153.50 156.89 154.69 157.72 155.32 Z M 158.52 155.93 L 159.33 156.57 C 160.16 157.20 161.34 157.05 161.98 156.23 C 162.62 155.41 162.47 154.23 161.64 153.59 L 160.83 152.96 C 160.01 152.32 158.82 152.47 158.19 153.29 C 157.55 154.11 157.70 155.30 158.52 155.93 Z M 159.32 156.56 L 160.08 157.15 C 160.90 157.80 162.09 157.66 162.73 156.84 C 163.37 156.02 163.23 154.83 162.41 154.19 L 161.65 153.60 C 160.84 152.95 159.65 153.09 159.01 153.91 C 158.36 154.73 158.51 155.92 159.32 156.56 Z M 160.07 157.15 L 160.83 157.75 C 161.65 158.40 162.83 158.27 163.48 157.45 C 164.13 156.64 164.00 155.45 163.18 154.81 L 162.42 154.20 C 161.61 153.55 160.42 153.68 159.77 154.50 C 159.12 155.31 159.26 156.50 160.07 157.15 Z M 160.82 157.74 L 161.59 158.36 C 162.40 159.02 163.58 158.89 164.24 158.09 C 164.89 157.28 164.77 156.09 163.96 155.44 L 163.19 154.81 C 162.38 154.16 161.20 154.29 160.54 155.09 C 159.89 155.90 160.01 157.09 160.82 157.74 Z M 161.58 158.35 L 162.35 158.99 C 163.15 159.65 164.34 159.54 165.00 158.73 C 165.66 157.93 165.55 156.74 164.75 156.08 L 163.97 155.45 C 163.17 154.78 161.98 154.90 161.32 155.70 C 160.66 156.51 160.77 157.69 161.58 158.35 Z M 162.34 158.98 L 163.12 159.63 C 163.91 160.30 165.10 160.20 165.77 159.40 C 166.44 158.60 166.34 157.41 165.54 156.75 L 164.76 156.09 C 163.96 155.42 162.77 155.53 162.10 156.33 C 161.44 157.12 161.54 158.31 162.34 158.98 Z M 163.10 159.62 L 163.89 160.30 C 164.68 160.97 165.87 160.88 166.55 160.09 C 167.22 159.30 167.13 158.11 166.34 157.43 L 165.55 156.76 C 164.76 156.08 163.57 156.17 162.90 156.97 C 162.22 157.76 162.31 158.95 163.10 159.62 Z M 163.88 160.28 L 164.64 160.95 C 165.43 161.63 166.62 161.55 167.30 160.77 C 167.98 159.98 167.90 158.79 167.12 158.11 L 166.35 157.44 C 165.57 156.76 164.38 156.84 163.70 157.63 C 163.01 158.41 163.09 159.60 163.88 160.28 Z M 164.63 160.94 L 165.37 161.60 C 166.15 162.29 167.34 162.22 168.03 161.44 C 168.72 160.66 168.65 159.47 167.87 158.78 L 167.13 158.12 C 166.35 157.43 165.16 157.50 164.47 158.28 C 163.78 159.06 163.85 160.25 164.63 160.94 Z M 165.36 161.59 L 166.11 162.26 C 166.88 162.96 168.07 162.90 168.77 162.12 C 169.46 161.35 169.40 160.16 168.63 159.47 L 167.89 158.79 C 167.11 158.10 165.92 158.16 165.23 158.93 C 164.53 159.70 164.59 160.89 165.36 161.59 Z M 166.10 162.25 L 166.84 162.93 C 167.61 163.64 168.80 163.58 169.50 162.82 C 170.20 162.05 170.15 160.86 169.39 160.16 L 168.64 159.48 C 167.88 158.77 166.69 158.83 165.98 159.59 C 165.28 160.36 165.33 161.55 166.10 162.25 Z M 166.83 162.92 L 167.57 163.61 C 168.33 164.32 169.52 164.28 170.23 163.52 C 170.94 162.76 170.90 161.57 170.14 160.86 L 169.40 160.17 C 168.64 159.46 167.45 159.51 166.74 160.26 C 166.03 161.02 166.07 162.21 166.83 162.92 Z M 167.56 163.60 L 168.29 164.29 C 169.04 165.00 170.23 164.97 170.95 164.22 C 171.66 163.46 171.63 162.27 170.87 161.56 L 170.15 160.87 C 169.39 160.16 168.20 160.19 167.49 160.94 C 166.77 161.70 166.81 162.89 167.56 163.60 Z M 168.28 164.28 L 169.00 164.97 C 169.74 165.68 170.93 165.66 171.65 164.91 C 172.37 164.16 172.35 162.97 171.60 162.26 L 170.88 161.57 C 170.14 160.85 168.95 160.87 168.23 161.62 C 167.51 162.37 167.53 163.56 168.28 164.28 Z M 168.99 164.96 L 169.72 165.67 C 170.46 166.40 171.65 166.38 172.38 165.64 C 173.10 164.90 173.09 163.71 172.34 162.98 L 171.61 162.27 C 170.87 161.54 169.68 161.56 168.95 162.30 C 168.23 163.04 168.24 164.23 168.99 164.96 Z M 169.71 165.66 L 170.44 166.39 C 171.18 167.12 172.37 167.11 173.10 166.38 C 173.83 165.64 173.82 164.45 173.09 163.72 L 172.35 162.99 C 171.62 162.26 170.43 162.27 169.70 163.01 C 168.97 163.74 168.97 164.93 169.71 165.66 Z M 170.43 166.37 L 171.14 167.09 C 171.87 167.83 173.06 167.83 173.80 167.10 C 174.53 166.38 174.54 165.19 173.81 164.45 L 173.10 163.73 C 172.37 163.00 171.18 162.99 170.44 163.72 C 169.71 164.45 169.70 165.64 170.43 166.37 Z M 171.13 167.08 L 171.83 167.79 C 172.55 168.54 173.74 168.55 174.48 167.83 C 175.22 167.11 175.24 165.92 174.51 165.18 L 173.82 164.46 C 173.10 163.72 171.91 163.71 171.17 164.43 C 170.43 165.15 170.41 166.34 171.13 167.08 Z M 171.82 167.78 L 172.50 168.49 C 173.22 169.24 174.40 169.26 175.15 168.55 C 175.89 167.83 175.92 166.65 175.20 165.90 L 174.52 165.19 C 173.81 164.44 172.62 164.42 171.87 165.13 C 171.13 165.85 171.10 167.04 171.82 167.78 Z M 172.49 168.48 L 173.16 169.19 C 173.87 169.94 175.05 169.97 175.80 169.26 C 176.55 168.55 176.59 167.37 175.88 166.62 L 175.21 165.91 C 174.50 165.16 173.32 165.12 172.57 165.83 C 171.81 166.54 171.78 167.73 172.49 168.48 Z M 173.15 169.17 L 173.81 169.89 C 174.52 170.65 175.70 170.69 176.46 169.99 C 177.21 169.29 177.26 168.10 176.55 167.35 L 175.89 166.63 C 175.19 165.87 174.00 165.83 173.24 166.53 C 172.49 167.23 172.44 168.42 173.15 169.17 Z M 173.81 169.88 L 174.49 170.63 C 175.19 171.39 176.37 171.44 177.13 170.75 C 177.89 170.05 177.95 168.87 177.25 168.11 L 176.56 167.36 C 175.87 166.60 174.68 166.54 173.92 167.24 C 173.16 167.94 173.11 169.12 173.81 169.88 Z M 174.49 170.62 L 175.16 171.37 C 175.85 172.13 177.03 172.19 177.80 171.50 C 178.56 170.81 178.62 169.63 177.93 168.87 L 177.26 168.12 C 176.57 167.35 175.39 167.29 174.62 167.98 C 173.86 168.67 173.79 169.85 174.49 170.62 Z M 175.16 171.36 L 175.82 172.11 C 176.51 172.88 177.69 172.94 178.46 172.26 C 179.22 171.57 179.29 170.39 178.61 169.62 L 177.94 168.88 C 177.25 168.11 176.08 168.04 175.31 168.73 C 174.54 169.41 174.47 170.59 175.16 171.36 Z M 175.82 172.10 L 176.47 172.84 C 177.15 173.62 178.33 173.69 179.10 173.01 C 179.88 172.33 179.95 171.15 179.27 170.38 L 178.61 169.63 C 177.93 168.86 176.75 168.79 175.98 169.47 C 175.21 170.15 175.14 171.33 175.82 172.10 Z M 176.47 172.84 L 177.12 173.58 C 177.80 174.35 178.97 174.43 179.75 173.76 C 180.52 173.08 180.60 171.90 179.92 171.13 L 179.27 170.39 C 178.60 169.61 177.42 169.53 176.65 170.21 C 175.87 170.89 175.79 172.06 176.47 172.84 Z M 177.12 173.57 L 177.77 174.32 C 178.44 175.10 179.61 175.18 180.39 174.51 C 181.17 173.84 181.25 172.66 180.58 171.89 L 179.93 171.14 C 179.25 170.36 178.08 170.28 177.30 170.95 C 176.53 171.62 176.44 172.80 177.12 173.57 Z M 177.76 174.32 L 178.43 175.09 C 179.10 175.87 180.27 175.96 181.05 175.29 C 181.83 174.62 181.91 173.44 181.24 172.67 L 180.58 171.89 C 179.91 171.11 178.74 171.03 177.96 171.70 C 177.18 172.37 177.09 173.54 177.76 174.32 Z M 178.43 175.08 L 179.08 175.85 C 179.75 176.63 180.92 176.72 181.70 176.06 C 182.48 175.39 182.57 174.22 181.90 173.44 L 181.25 172.67 C 180.58 171.89 179.41 171.80 178.63 172.47 C 177.85 173.13 177.76 174.31 178.43 175.08 Z M 179.08 175.85 L 179.73 176.61 C 180.40 177.39 181.57 177.48 182.35 176.82 C 183.13 176.16 183.22 174.99 182.56 174.21 L 181.91 173.44 C 181.24 172.66 180.07 172.57 179.29 173.23 C 178.51 173.90 178.42 175.07 179.08 175.85 Z M 179.73 176.61 L 180.37 177.36 C 181.03 178.14 182.20 178.24 182.98 177.58 C 183.76 176.92 183.86 175.75 183.20 174.97 L 182.56 174.21 C 181.89 173.43 180.73 173.33 179.95 174.00 C 179.17 174.66 179.07 175.83 179.73 176.61 Z M 180.37 177.36 L 181.01 178.11 C 181.67 178.89 182.83 178.99 183.61 178.33 C 184.39 177.67 184.49 176.50 183.83 175.72 L 183.20 174.97 C 182.54 174.19 181.37 174.09 180.59 174.75 C 179.81 175.41 179.71 176.58 180.37 177.36 Z M 181.01 178.11 L 181.65 178.87 C 182.31 179.65 183.48 179.75 184.26 179.10 C 185.04 178.44 185.14 177.27 184.48 176.49 L 183.83 175.72 C 183.17 174.94 182.01 174.84 181.23 175.50 C 180.45 176.16 180.35 177.33 181.01 178.11 Z M 181.66 178.87 L 182.32 179.66 C 182.97 180.44 184.14 180.53 184.92 179.88 C 185.70 179.22 185.80 178.06 185.14 177.28 L 184.48 176.49 C 183.82 175.71 182.66 175.61 181.88 176.27 C 181.10 176.93 181.00 178.09 181.66 178.87 Z M 182.32 179.66 L 182.97 180.43 C 183.63 181.21 184.79 181.30 185.57 180.64 C 186.35 179.99 186.45 178.82 185.79 178.05 L 185.14 177.28 C 184.48 176.50 183.31 176.40 182.54 177.06 C 181.76 177.72 181.66 178.88 182.32 179.66 Z M 182.98 180.43 L 183.62 181.19 C 184.28 181.96 185.45 182.06 186.22 181.40 C 186.99 180.74 187.09 179.57 186.43 178.80 L 185.78 178.04 C 185.12 177.27 183.96 177.18 183.19 177.84 C 182.41 178.50 182.32 179.66 182.98 180.43 Z M 183.63 181.20 L 184.27 181.94 C 184.93 182.71 186.10 182.79 186.87 182.13 C 187.64 181.47 187.72 180.31 187.06 179.54 L 186.42 178.79 C 185.76 178.02 184.60 177.94 183.83 178.60 C 183.06 179.26 182.97 180.43 183.63 181.20 Z M 184.28 181.95 L 184.93 182.68 C 185.59 183.45 186.75 183.52 187.52 182.86 C 188.28 182.19 188.36 181.03 187.69 180.26 L 187.05 179.53 C 186.38 178.76 185.22 178.69 184.46 179.35 C 183.69 180.02 183.61 181.18 184.28 181.95 Z M 184.94 182.69 L 185.61 183.45 C 186.29 184.21 187.45 184.28 188.20 183.60 C 188.96 182.93 189.03 181.77 188.35 181.01 L 187.68 180.25 C 187.00 179.50 185.85 179.43 185.09 180.10 C 184.33 180.78 184.26 181.93 184.94 182.69 Z M 185.63 183.46 L 186.30 184.20 C 186.97 184.95 188.13 185.01 188.88 184.34 C 189.63 183.66 189.69 182.50 189.02 181.75 L 188.34 181.01 C 187.67 180.25 186.51 180.20 185.76 180.87 C 185.01 181.55 184.95 182.71 185.63 183.46 Z M 186.30 184.21 L 186.97 184.94 C 187.65 185.69 188.81 185.74 189.56 185.06 C 190.30 184.38 190.36 183.23 189.68 182.48 L 189.01 181.75 C 188.33 181.00 187.17 180.95 186.43 181.63 C 185.68 182.30 185.63 183.46 186.30 184.21 Z M 186.98 184.94 L 187.64 185.67 C 188.32 186.42 189.48 186.47 190.22 185.79 C 190.97 185.11 191.02 183.96 190.34 183.21 L 189.67 182.48 C 188.99 181.74 187.84 181.69 187.10 182.36 C 186.35 183.04 186.30 184.20 186.98 184.94 Z M 187.65 185.67 L 188.32 186.41 C 189.00 187.15 190.15 187.21 190.89 186.53 C 191.64 185.85 191.69 184.70 191.01 183.96 L 190.34 183.22 C 189.66 182.47 188.51 182.42 187.77 183.10 C 187.02 183.77 186.97 184.92 187.65 185.67 Z M 188.32 186.40 L 189.03 187.18 C 189.70 187.93 190.85 187.99 191.59 187.31 C 192.34 186.64 192.39 185.49 191.72 184.75 L 191.01 183.97 C 190.34 183.22 189.19 183.16 188.45 183.84 C 187.71 184.51 187.65 185.66 188.32 186.40 Z M 189.03 187.18 L 189.72 187.95 C 190.39 188.69 191.54 188.75 192.28 188.08 C 193.02 187.42 193.08 186.27 192.41 185.53 L 191.72 184.76 C 191.05 184.01 189.91 183.95 189.16 184.62 C 188.42 185.29 188.36 186.43 189.03 187.18 Z M 189.72 187.94 L 190.39 188.69 C 191.05 189.43 192.20 189.49 192.94 188.83 C 193.68 188.16 193.75 187.02 193.08 186.28 L 192.41 185.53 C 191.75 184.79 190.61 184.73 189.86 185.39 C 189.12 186.06 189.06 187.20 189.72 187.94 Z M 190.39 188.68 L 191.02 189.39 C 191.68 190.13 192.82 190.19 193.56 189.53 C 194.30 188.87 194.37 187.73 193.71 186.99 L 193.08 186.28 C 192.42 185.54 191.28 185.48 190.54 186.14 C 189.79 186.80 189.73 187.94 190.39 188.68 Z M 191.02 189.38 L 191.67 190.11 C 192.33 190.85 193.47 190.92 194.21 190.26 C 194.95 189.60 195.01 188.46 194.35 187.72 L 193.70 186.99 C 193.05 186.25 191.91 186.19 191.17 186.85 C 190.43 187.51 190.37 188.64 191.02 189.38 Z M 191.67 190.10 L 192.33 190.84 C 192.98 191.58 194.11 191.65 194.85 191.00 C 195.59 190.34 195.66 189.21 195.01 188.47 L 194.35 187.73 C 193.70 186.99 192.57 186.92 191.83 187.58 C 191.09 188.23 191.02 189.36 191.67 190.10 Z M 192.32 190.82 L 192.95 191.55 C 193.59 192.29 194.72 192.38 195.46 191.73 C 196.20 191.09 196.29 189.97 195.64 189.22 L 195.01 188.49 C 194.37 187.75 193.25 187.67 192.50 188.31 C 191.76 188.95 191.68 190.08 192.32 190.82 Z M 192.94 191.52 L 193.58 192.30 C 194.21 193.05 195.33 193.15 196.08 192.52 C 196.83 191.89 196.93 190.78 196.30 190.02 L 195.66 189.25 C 195.03 188.50 193.91 188.40 193.16 189.03 C 192.41 189.65 192.31 190.77 192.94 191.52 Z M 193.57 192.27 L 194.19 193.03 C 194.80 193.79 195.91 193.91 196.67 193.30 C 197.43 192.69 197.54 191.58 196.93 190.82 L 196.32 190.05 C 195.70 189.29 194.59 189.17 193.84 189.79 C 193.08 190.40 192.96 191.51 193.57 192.27 Z M 194.17 193.00 L 194.79 193.80 C 195.39 194.56 196.49 194.70 197.26 194.11 C 198.02 193.51 198.16 192.40 197.56 191.64 L 196.95 190.85 C 196.35 190.08 195.25 189.94 194.48 190.54 C 193.71 191.14 193.58 192.24 194.17 193.00 Z M 194.78 193.77 L 195.40 194.59 C 195.98 195.37 197.07 195.52 197.85 194.94 C 198.62 194.36 198.78 193.27 198.20 192.49 L 197.58 191.67 C 197.00 190.90 195.90 190.74 195.13 191.32 C 194.36 191.90 194.20 193.00 194.78 193.77 Z M 195.38 194.56 L 195.97 195.38 C 196.53 196.17 197.62 196.35 198.40 195.79 C 199.18 195.23 199.36 194.14 198.80 193.36 L 198.21 192.53 C 197.65 191.75 196.57 191.57 195.78 192.13 C 195.00 192.69 194.82 193.77 195.38 194.56 Z M 195.95 195.33 L 196.51 196.17 C 197.04 196.97 198.11 197.18 198.91 196.65 C 199.71 196.12 199.92 195.04 199.39 194.24 L 198.83 193.41 C 198.30 192.61 197.22 192.40 196.42 192.93 C 195.63 193.46 195.41 194.54 195.95 195.33 Z M 196.48 196.10 L 197.01 196.98 C 197.51 197.79 198.56 198.05 199.37 197.56 C 200.18 197.07 200.44 196.01 199.95 195.20 L 199.42 194.32 C 198.92 193.51 197.87 193.25 197.06 193.74 C 196.25 194.23 195.99 195.29 196.48 196.10 Z M 196.99 196.89 L 197.45 197.76 C 197.89 198.58 198.92 198.89 199.75 198.45 C 200.57 198.00 200.88 196.98 200.44 196.15 L 199.98 195.29 C 199.53 194.46 198.51 194.15 197.68 194.60 C 196.85 195.04 196.54 196.07 196.99 196.89 Z M 197.43 197.67 L 197.84 198.54 C 198.24 199.38 199.23 199.74 200.07 199.35 C 200.91 198.95 201.27 197.95 200.87 197.11 L 200.46 196.24 C 200.07 195.40 199.07 195.04 198.23 195.44 C 197.39 195.83 197.03 196.83 197.43 197.67 Z M 197.83 198.47 L 198.20 199.36 C 198.55 200.20 199.52 200.60 200.37 200.25 C 201.21 199.90 201.61 198.93 201.26 198.09 L 200.89 197.19 C 200.54 196.35 199.57 195.95 198.72 196.30 C 197.88 196.65 197.48 197.62 197.83 198.47 Z M 198.20 199.30 L 198.54 200.21 C 198.86 201.06 199.81 201.49 200.65 201.17 C 201.50 200.85 201.93 199.90 201.61 199.06 L 201.26 198.14 C 200.94 197.30 200.00 196.87 199.15 197.19 C 198.31 197.51 197.88 198.45 198.20 199.30 Z M 198.55 200.17 L 198.88 201.12 C 199.18 201.97 200.11 202.41 200.95 202.11 C 201.79 201.81 202.23 200.89 201.94 200.05 L 201.60 199.10 C 201.30 198.25 200.38 197.81 199.54 198.11 C 198.69 198.41 198.25 199.33 198.55 200.17 Z M 198.89 201.10 L 199.22 202.07 C 199.51 202.91 200.41 203.36 201.25 203.07 C 202.09 202.79 202.54 201.88 202.26 201.04 L 201.93 200.07 C 201.64 199.23 200.73 198.78 199.90 199.07 C 199.06 199.35 198.61 200.26 198.89 201.10 Z M 199.23 202.06 L 199.42 202.61 C 199.70 203.45 200.60 203.90 201.43 203.62 C 202.26 203.34 202.71 202.44 202.43 201.61 L 202.24 201.05 C 201.97 200.22 201.07 199.77 200.24 200.05 C 199.40 200.33 198.96 201.23 199.23 202.06 Z"
      fill="black"
      fill-rule="nonzero" /></svg>