<svg xmlns="http://www.w3.org/2000/svg" width="300" height="300" viewBox="0 0 300 300">
<path d="M 120.15 124.89 L 119.77 125.83 C 119.40 126.74 119.84 127.78 120.75 128.15 C 121.65 128.52 122.69 128.08 123.06 127.17 L 123.45 126.24 C 123.82 125.33 123.38 124.29 122.47 123.92 C 121.56 123.55 120.53 123.98 120.15 124.89 Z M 119.78 125.82 L 119.39 126.75 C 119.01 127.65 119.44 128.69 120.35 129.07 C 121.25 129.45 122.29 129.02 122.67 128.11 L 123.06 127.19 C 123.44 126.28 123.01 125.24 122.10 124.86 C 121.20 124.48 120.15 124.91 119.78 125.82 Z M 119.40 126.72 L 119.00 127.64 C 118.61 128.54 119.03 129.59 119.93 129.98 C 120.83 130.37 121.88 129.95 122.27 129.05 L 122.66 128.14 C 123.05 127.24 122.64 126.19 121.74 125.80 C 120.84 125.41 119.79 125.82 119.40 126.72 Z M 119.02 127.60 L 118.60 128.50 C 118.19 129.39 118.58 130.45 119.48 130.86 C 120.37 131.27 121.43 130.88 121.84 129.99 L 122.25 129.09 C 122.66 128.20 122.27 127.14 121.38 126.73 C 120.49 126.32 119.43 126.71 119.02 127.60 Z M 118.62 128.46 L 118.17 129.37 C 117.74 130.25 118.10 131.32 118.98 131.75 C 119.86 132.19 120.93 131.83 121.37 130.94 L 121.82 130.03 C 122.25 129.15 121.89 128.08 121.01 127.65 C 120.13 127.21 119.06 127.58 118.62 128.46 Z M 118.19 129.33 L 117.73 130.22 C 117.27 131.09 117.61 132.17 118.48 132.62 C 119.36 133.08 120.43 132.74 120.89 131.87 L 121.35 130.98 C 121.81 130.11 121.47 129.03 120.59 128.58 C 119.72 128.12 118.65 128.46 118.19 129.33 Z M 117.74 130.19 L 117.27 131.06 C 116.80 131.93 117.12 133.01 117.99 133.48 C 118.85 133.95 119.94 133.63 120.40 132.76 L 120.88 131.89 C 121.34 131.03 121.02 129.94 120.16 129.48 C 119.29 129.01 118.21 129.33 117.74 130.19 Z M 117.28 131.05 L 116.81 131.90 C 116.33 132.76 116.64 133.85 117.50 134.32 C 118.37 134.80 119.45 134.49 119.93 133.62 L 120.40 132.77 C 120.87 131.91 120.56 130.83 119.70 130.35 C 118.84 129.87 117.75 130.19 117.28 131.05 Z M 116.81 131.90 L 116.34 132.75 C 115.86 133.61 116.17 134.70 117.04 135.17 C 117.90 135.65 118.98 135.33 119.46 134.47 L 119.93 133.62 C 120.40 132.76 120.09 131.68 119.23 131.20 C 118.37 130.73 117.28 131.04 116.81 131.90 Z M 116.33 132.76 L 115.86 133.64 C 115.39 134.50 115.71 135.59 116.58 136.05 C 117.44 136.52 118.53 136.20 118.99 135.33 L 119.47 134.46 C 119.93 133.59 119.61 132.51 118.74 132.04 C 117.88 131.57 116.80 131.90 116.33 132.76 Z M 115.84 133.67 L 115.36 134.59 C 114.91 135.47 115.25 136.54 116.13 136.99 C 117.00 137.45 118.08 137.10 118.53 136.23 L 119.01 135.31 C 119.46 134.43 119.12 133.36 118.24 132.90 C 117.37 132.45 116.30 132.79 115.84 133.67 Z M 115.35 134.63 L 114.93 135.48 C 114.50 136.36 114.86 137.43 115.74 137.86 C 116.62 138.29 117.69 137.93 118.12 137.05 L 118.54 136.19 C 118.97 135.31 118.61 134.25 117.73 133.82 C 116.85 133.38 115.78 133.75 115.35 134.63 Z M 114.92 135.52 L 114.52 136.40 C 114.11 137.29 114.49 138.34 115.37 138.75 C 116.26 139.16 117.31 138.77 117.72 137.89 L 118.13 137.01 C 118.54 136.12 118.15 135.07 117.27 134.66 C 116.39 134.25 115.34 134.64 114.92 135.52 Z M 114.51 136.44 L 114.11 137.37 C 113.72 138.26 114.12 139.29 115.01 139.68 C 115.90 140.07 116.93 139.66 117.32 138.77 L 117.73 137.85 C 118.11 136.96 117.71 135.92 116.82 135.54 C 115.93 135.15 114.90 135.55 114.51 136.44 Z M 114.10 137.41 L 113.71 138.38 C 113.34 139.27 113.77 140.29 114.66 140.65 C 115.56 141.02 116.57 140.59 116.94 139.69 L 117.33 138.73 C 117.69 137.84 117.26 136.82 116.37 136.46 C 115.48 136.09 114.46 136.52 114.10 137.41 Z M 113.70 138.43 L 113.34 139.39 C 113.00 140.28 113.46 141.28 114.35 141.62 C 115.25 141.95 116.24 141.50 116.58 140.61 L 116.94 139.65 C 117.28 138.75 116.82 137.75 115.93 137.42 C 115.03 137.08 114.04 137.53 113.70 138.43 Z M 113.34 139.43 L 113.02 140.36 C 112.71 141.25 113.18 142.23 114.07 142.54 C 114.96 142.85 115.94 142.38 116.25 141.49 L 116.58 140.56 C 116.89 139.67 116.42 138.69 115.52 138.38 C 114.63 138.07 113.65 138.54 113.34 139.43 Z M 113.03 140.39 L 112.71 141.34 C 112.42 142.23 112.90 143.19 113.79 143.48 C 114.68 143.77 115.64 143.29 115.93 142.40 L 116.25 141.45 C 116.54 140.57 116.05 139.61 115.17 139.32 C 114.28 139.02 113.32 139.51 113.03 140.39 Z M 112.73 141.37 L 112.42 142.33 C 112.14 143.21 112.63 144.15 113.51 144.43 C 114.40 144.71 115.34 144.22 115.62 143.34 L 115.92 142.38 C 116.20 141.50 115.71 140.55 114.83 140.28 C 113.95 140.00 113.00 140.49 112.73 141.37 Z M 112.44 142.35 L 112.14 143.32 C 111.87 144.19 112.36 145.12 113.23 145.39 C 114.11 145.66 115.03 145.17 115.30 144.29 L 115.60 143.32 C 115.87 142.45 115.38 141.52 114.51 141.25 C 113.63 140.98 112.71 141.47 112.44 142.35 Z M 112.15 143.32 L 112.01 143.79 C 111.74 144.66 112.23 145.58 113.10 145.84 C 113.96 146.11 114.88 145.62 115.15 144.75 L 115.29 144.28 C 115.56 143.42 115.07 142.50 114.20 142.23 C 113.33 141.97 112.42 142.46 112.15 143.32 Z"
      fill="black"
      fill-rule="nonzero" /><path d="M 130.20 135.70 L 129.68 136.42 C 129.12 137.20 129.30 138.29 130.08 138.85 C 130.85 139.41 131.94 139.23 132.50 138.45 L 133.02 137.72 C 133.58 136.95 133.41 135.86 132.63 135.30 C 131.85 134.74 130.76 134.92 130.20 135.70 Z M 129.68 136.43 L 129.14 137.18 C 128.58 137.96 128.76 139.05 129.54 139.60 C 130.32 140.16 131.40 139.98 131.96 139.20 L 132.50 138.45 C 133.06 137.67 132.88 136.58 132.10 136.03 C 131.32 135.47 130.24 135.65 129.68 136.43 Z M 129.13 137.19 L 128.56 137.99 C 128.01 138.77 128.19 139.86 128.97 140.41 C 129.75 140.97 130.84 140.79 131.39 140.00 L 131.97 139.20 C 132.52 138.42 132.34 137.33 131.56 136.78 C 130.77 136.22 129.69 136.41 129.13 137.19 Z M 128.56 138.00 L 127.93 138.89 C 127.38 139.67 127.57 140.75 128.35 141.30 C 129.14 141.86 130.22 141.67 130.77 140.88 L 131.40 140.00 C 131.95 139.21 131.76 138.13 130.98 137.58 C 130.19 137.03 129.11 137.22 128.56 138.00 Z M 127.93 138.89 L 127.32 139.76 C 126.77 140.55 126.97 141.63 127.75 142.18 C 128.54 142.73 129.62 142.53 130.17 141.75 L 130.78 140.88 C 131.33 140.09 131.13 139.01 130.35 138.46 C 129.56 137.91 128.48 138.10 127.93 138.89 Z M 127.32 139.77 L 126.78 140.54 C 126.23 141.33 126.43 142.42 127.22 142.96 C 128.01 143.51 129.10 143.31 129.64 142.52 L 130.18 141.74 C 130.72 140.95 130.53 139.87 129.74 139.32 C 128.95 138.78 127.86 138.98 127.32 139.77 Z M 126.77 140.54 L 126.21 141.36 C 125.67 142.15 125.87 143.24 126.66 143.79 C 127.45 144.33 128.54 144.13 129.08 143.34 L 129.65 142.52 C 130.19 141.73 129.99 140.64 129.20 140.09 C 128.41 139.55 127.32 139.75 126.77 140.54 Z M 126.21 141.36 L 125.63 142.20 C 125.08 143.00 125.28 144.09 126.08 144.63 C 126.87 145.18 127.96 144.98 128.51 144.18 L 129.09 143.34 C 129.63 142.54 129.43 141.46 128.64 140.91 C 127.84 140.36 126.75 140.56 126.21 141.36 Z M 125.62 142.20 L 125.04 143.06 C 124.49 143.85 124.69 144.94 125.49 145.49 C 126.29 146.04 127.38 145.84 127.92 145.04 L 128.51 144.19 C 129.06 143.39 128.86 142.30 128.06 141.75 C 127.26 141.20 126.17 141.40 125.62 142.20 Z M 125.03 143.05 L 124.45 143.90 C 123.90 144.70 124.10 145.80 124.90 146.35 C 125.70 146.90 126.79 146.69 127.34 145.89 L 127.93 145.04 C 128.48 144.25 128.27 143.15 127.48 142.60 C 126.68 142.05 125.58 142.25 125.03 143.05 Z M 124.45 143.90 L 123.87 144.74 C 123.31 145.54 123.51 146.63 124.31 147.19 C 125.11 147.74 126.21 147.54 126.76 146.74 L 127.34 145.90 C 127.89 145.10 127.69 144.00 126.89 143.45 C 126.09 142.90 125.00 143.10 124.45 143.90 Z M 123.87 144.73 L 123.26 145.61 C 122.70 146.41 122.90 147.51 123.70 148.07 C 124.50 148.62 125.60 148.42 126.15 147.62 L 126.76 146.74 C 127.32 145.94 127.12 144.85 126.32 144.29 C 125.52 143.74 124.42 143.93 123.87 144.73 Z M 123.26 145.61 L 122.67 146.46 C 122.11 147.26 122.31 148.36 123.11 148.91 C 123.91 149.47 125.01 149.27 125.57 148.47 L 126.15 147.62 C 126.71 146.82 126.51 145.72 125.71 145.17 C 124.91 144.61 123.81 144.81 123.26 145.61 Z M 122.66 146.46 L 122.10 147.28 C 121.54 148.08 121.74 149.18 122.54 149.74 C 123.35 150.29 124.45 150.09 125.00 149.29 L 125.57 148.47 C 126.12 147.67 125.92 146.57 125.12 146.01 C 124.32 145.46 123.22 145.66 122.66 146.46 Z M 122.09 147.28 L 121.54 148.09 C 120.99 148.89 121.19 149.99 122.00 150.54 C 122.80 151.10 123.90 150.89 124.46 150.09 L 125.01 149.28 C 125.56 148.48 125.35 147.38 124.55 146.83 C 123.74 146.27 122.64 146.48 122.09 147.28 Z M 121.53 148.09 L 121.00 148.88 C 120.45 149.69 120.66 150.80 121.47 151.34 C 122.28 151.89 123.38 151.68 123.93 150.87 L 124.46 150.08 C 125.01 149.27 124.80 148.17 123.99 147.62 C 123.18 147.07 122.08 147.28 121.53 148.09 Z M 120.99 148.90 L 120.45 149.71 C 119.91 150.52 120.13 151.62 120.95 152.16 C 121.76 152.70 122.86 152.48 123.40 151.66 L 123.94 150.86 C 124.48 150.04 124.26 148.94 123.44 148.40 C 122.63 147.86 121.53 148.08 120.99 148.90 Z M 120.44 149.72 L 119.89 150.57 C 119.36 151.39 119.59 152.49 120.41 153.02 C 121.24 153.55 122.33 153.32 122.87 152.50 L 123.41 151.65 C 123.95 150.83 123.71 149.73 122.89 149.20 C 122.07 148.67 120.97 148.90 120.44 149.72 Z M 119.88 150.58 L 119.34 151.43 C 118.82 152.26 119.06 153.35 119.89 153.88 C 120.72 154.40 121.81 154.16 122.34 153.33 L 122.87 152.48 C 123.40 151.66 123.15 150.56 122.33 150.04 C 121.50 149.51 120.41 149.76 119.88 150.58 Z M 119.34 151.44 L 118.81 152.29 C 118.29 153.12 118.55 154.21 119.38 154.73 C 120.21 155.25 121.30 154.99 121.82 154.16 L 122.34 153.32 C 122.86 152.49 122.61 151.39 121.78 150.88 C 120.95 150.36 119.85 150.61 119.34 151.44 Z M 118.80 152.30 L 118.28 153.15 C 117.77 153.98 118.03 155.07 118.87 155.58 C 119.70 156.09 120.79 155.83 121.30 155.00 L 121.82 154.15 C 122.33 153.32 122.07 152.23 121.24 151.72 C 120.40 151.21 119.31 151.47 118.80 152.30 Z M 118.28 153.16 L 117.76 154.01 C 117.26 154.84 117.53 155.93 118.36 156.44 C 119.20 156.94 120.29 156.68 120.79 155.84 L 121.31 154.99 C 121.81 154.15 121.55 153.07 120.71 152.56 C 119.87 152.05 118.79 152.32 118.28 153.16 Z M 117.76 154.01 L 117.21 154.93 C 116.71 155.77 116.98 156.86 117.82 157.36 C 118.66 157.86 119.74 157.59 120.24 156.75 L 120.80 155.83 C 121.30 155.00 121.03 153.91 120.19 153.41 C 119.35 152.91 118.26 153.18 117.76 154.01 Z M 117.21 154.94 L 116.68 155.85 C 116.18 156.68 116.46 157.77 117.29 158.26 C 118.13 158.76 119.21 158.48 119.71 157.65 L 120.24 156.74 C 120.74 155.90 120.47 154.82 119.63 154.33 C 118.79 153.83 117.71 154.11 117.21 154.94 Z M 116.68 155.86 L 116.16 156.73 C 115.67 157.57 115.95 158.65 116.79 159.14 C 117.63 159.63 118.71 159.35 119.20 158.51 L 119.71 157.63 C 120.20 156.80 119.92 155.72 119.08 155.23 C 118.24 154.74 117.17 155.02 116.68 155.86 Z M 116.16 156.74 L 115.68 157.57 C 115.20 158.41 115.49 159.48 116.32 159.97 C 117.16 160.45 118.24 160.16 118.72 159.32 L 119.20 158.50 C 119.68 157.66 119.40 156.58 118.56 156.10 C 117.72 155.62 116.65 155.90 116.16 156.74 Z M 115.68 157.58 L 115.23 158.38 C 114.75 159.22 115.05 160.29 115.89 160.77 C 116.73 161.25 117.79 160.95 118.27 160.11 L 118.72 159.31 C 119.20 158.47 118.91 157.40 118.07 156.93 C 117.23 156.45 116.16 156.74 115.68 157.58 Z M 115.23 158.41 L 114.73 159.31 C 114.27 160.15 114.57 161.20 115.41 161.67 C 116.25 162.13 117.31 161.83 117.77 160.99 L 118.27 160.09 C 118.73 159.25 118.43 158.19 117.59 157.73 C 116.75 157.26 115.69 157.57 115.23 158.41 Z M 114.73 159.34 L 114.28 160.19 C 113.83 161.03 114.15 162.07 114.99 162.52 C 115.83 162.96 116.87 162.65 117.32 161.81 L 117.77 160.95 C 118.22 160.11 117.90 159.07 117.06 158.63 C 116.22 158.18 115.18 158.50 114.73 159.34 Z M 114.28 160.22 L 113.84 161.09 C 113.41 161.93 113.74 162.96 114.58 163.38 C 115.42 163.81 116.45 163.48 116.88 162.64 L 117.32 161.77 C 117.75 160.93 117.41 159.91 116.57 159.48 C 115.74 159.05 114.71 159.38 114.28 160.22 Z M 113.84 161.12 L 113.42 161.97 C 113.00 162.81 113.35 163.83 114.19 164.24 C 115.02 164.65 116.04 164.31 116.45 163.47 L 116.87 162.61 C 117.29 161.78 116.94 160.76 116.11 160.35 C 115.27 159.94 114.25 160.28 113.84 161.12 Z M 113.42 161.99 L 113.05 162.76 C 112.64 163.60 112.99 164.61 113.83 165.01 C 114.67 165.41 115.67 165.06 116.08 164.23 L 116.45 163.45 C 116.85 162.62 116.50 161.61 115.67 161.21 C 114.83 160.80 113.82 161.15 113.42 161.99 Z M 113.05 162.78 L 112.64 163.62 C 112.25 164.46 112.60 165.46 113.44 165.86 C 114.28 166.25 115.28 165.90 115.68 165.06 L 116.08 164.21 C 116.47 163.38 116.12 162.38 115.28 161.98 C 114.44 161.58 113.44 161.94 113.05 162.78 Z M 112.64 163.63 L 112.21 164.56 C 111.82 165.39 112.18 166.39 113.02 166.78 C 113.86 167.17 114.85 166.81 115.24 165.97 L 115.68 165.05 C 116.07 164.21 115.70 163.22 114.87 162.83 C 114.03 162.43 113.04 162.80 112.64 163.63 Z M 112.21 164.57 L 111.75 165.57 C 111.36 166.41 111.73 167.40 112.57 167.79 C 113.40 168.17 114.39 167.81 114.78 166.97 L 115.24 165.96 C 115.63 165.13 115.26 164.14 114.43 163.75 C 113.59 163.36 112.60 163.73 112.21 164.57 Z M 111.75 165.58 L 111.29 166.60 C 110.91 167.43 111.28 168.42 112.11 168.80 C 112.95 169.18 113.94 168.81 114.32 167.98 L 114.78 166.96 C 115.16 166.12 114.79 165.14 113.95 164.76 C 113.12 164.38 112.13 164.75 111.75 165.58 Z M 111.29 166.61 L 110.91 167.44 C 110.54 168.28 110.91 169.26 111.74 169.63 C 112.58 170.01 113.56 169.64 113.94 168.80 L 114.32 167.97 C 114.69 167.13 114.32 166.15 113.48 165.78 C 112.65 165.40 111.67 165.77 111.29 166.61 Z M 110.92 167.45 L 110.52 168.32 C 110.15 169.15 110.52 170.13 111.36 170.51 C 112.19 170.88 113.17 170.51 113.55 169.67 L 113.94 168.80 C 114.31 167.96 113.94 166.99 113.10 166.61 C 112.27 166.24 111.29 166.61 110.92 167.45 Z M 110.53 168.32 L 110.12 169.23 C 109.75 170.06 110.13 171.04 110.96 171.41 C 111.79 171.78 112.77 171.41 113.14 170.57 L 113.54 169.67 C 113.92 168.84 113.54 167.86 112.71 167.49 C 111.87 167.12 110.90 167.49 110.53 168.32 Z M 110.12 169.23 L 109.71 170.16 C 109.34 171.00 109.72 171.97 110.55 172.34 C 111.38 172.71 112.35 172.33 112.72 171.50 L 113.14 170.57 C 113.51 169.74 113.13 168.76 112.30 168.39 C 111.47 168.03 110.49 168.40 110.12 169.23 Z M 109.71 170.17 L 109.29 171.12 C 108.92 171.95 109.30 172.92 110.13 173.29 C 110.96 173.66 111.93 173.28 112.30 172.45 L 112.72 171.50 C 113.09 170.67 112.71 169.70 111.88 169.33 C 111.05 168.96 110.08 169.34 109.71 170.17 Z M 109.29 171.12 L 108.87 172.08 C 108.50 172.91 108.88 173.88 109.71 174.25 C 110.53 174.61 111.50 174.24 111.87 173.41 L 112.30 172.45 C 112.66 171.62 112.29 170.65 111.46 170.28 C 110.63 169.92 109.66 170.29 109.29 171.12 Z M 108.87 172.08 L 108.50 172.93 C 108.13 173.75 108.51 174.72 109.33 175.09 C 110.16 175.45 111.13 175.08 111.50 174.25 L 111.87 173.41 C 112.23 172.58 111.86 171.61 111.03 171.25 C 110.21 170.88 109.24 171.26 108.87 172.08 Z"
      fill="black"
      fill-rule="nonzero" /><path d="M 119.19 162.26 L 119.69 163.14 C 120.17 163.99 121.25 164.29 122.11 163.81 C 122.96 163.33 123.26 162.25 122.78 161.39 L 122.29 160.51 C 121.80 159.66 120.72 159.36 119.87 159.84 C 119.01 160.32 118.71 161.40 119.19 162.26 Z M 119.66 163.09 L 120.12 163.98 C 120.58 164.84 121.65 165.18 122.52 164.73 C 123.39 164.28 123.73 163.20 123.27 162.33 L 122.81 161.44 C 122.36 160.58 121.28 160.24 120.42 160.69 C 119.55 161.14 119.21 162.22 119.66 163.09 Z M 120.07 163.87 L 120.47 164.77 C 120.86 165.67 121.91 166.08 122.81 165.69 C 123.71 165.29 124.12 164.25 123.72 163.35 L 123.33 162.44 C 122.93 161.54 121.88 161.13 120.99 161.53 C 120.09 161.92 119.68 162.97 120.07 163.87 Z M 120.41 164.61 L 120.71 165.54 C 121.01 166.47 122.01 166.98 122.95 166.68 C 123.88 166.38 124.39 165.38 124.09 164.44 L 123.79 163.51 C 123.48 162.58 122.48 162.07 121.55 162.37 C 120.61 162.67 120.10 163.67 120.41 164.61 Z M 120.66 165.37 L 120.88 166.34 C 121.09 167.30 122.04 167.90 123.00 167.69 C 123.95 167.48 124.56 166.53 124.35 165.57 L 124.13 164.61 C 123.92 163.65 122.97 163.04 122.01 163.25 C 121.05 163.47 120.45 164.42 120.66 165.37 Z M 120.85 166.21 L 121.00 167.21 C 121.14 168.19 122.04 168.86 123.01 168.72 C 123.99 168.58 124.66 167.68 124.52 166.70 L 124.37 165.70 C 124.23 164.73 123.33 164.05 122.36 164.19 C 121.38 164.33 120.71 165.24 120.85 166.21 Z M 120.98 167.13 L 121.07 168.05 C 121.17 169.03 122.04 169.74 123.02 169.65 C 123.99 169.56 124.71 168.69 124.62 167.71 L 124.53 166.79 C 124.44 165.81 123.57 165.09 122.59 165.19 C 121.61 165.28 120.89 166.15 120.98 167.13 Z M 121.06 167.99 L 121.12 168.90 C 121.18 169.88 122.03 170.63 123.02 170.56 C 124.00 170.50 124.75 169.65 124.68 168.67 L 124.63 167.76 C 124.56 166.78 123.72 166.03 122.73 166.09 C 121.75 166.16 121.00 167.01 121.06 167.99 Z M 121.11 168.85 L 121.15 169.85 C 121.19 170.84 122.02 171.61 123.01 171.57 C 124.00 171.53 124.77 170.70 124.73 169.71 L 124.69 168.71 C 124.65 167.72 123.82 166.96 122.83 166.99 C 121.85 167.03 121.08 167.86 121.11 168.85 Z M 121.15 169.82 L 121.17 170.94 C 121.20 171.93 122.02 172.72 123.01 172.70 C 124.00 172.68 124.78 171.85 124.76 170.86 L 124.73 169.74 C 124.71 168.75 123.89 167.97 122.90 167.99 C 121.91 168.01 121.13 168.83 121.15 169.82 Z M 121.17 170.93 L 121.18 171.95 C 121.20 172.94 122.01 173.74 123.00 173.72 C 123.99 173.71 124.79 172.90 124.78 171.91 L 124.76 170.88 C 124.75 169.89 123.94 169.10 122.94 169.11 C 121.95 169.12 121.16 169.94 121.17 170.93 Z M 121.18 171.94 L 121.19 172.95 C 121.20 173.94 122.01 174.74 123.00 174.73 C 123.99 174.72 124.79 173.91 124.78 172.92 L 124.78 171.92 C 124.77 170.92 123.96 170.13 122.97 170.13 C 121.97 170.14 121.18 170.95 121.18 171.94 Z M 121.19 172.94 L 121.19 173.98 C 121.20 174.97 122.01 175.77 123.00 175.76 C 123.99 175.76 124.79 174.95 124.79 173.96 L 124.78 172.92 C 124.78 171.93 123.97 171.13 122.98 171.14 C 121.99 171.14 121.19 171.95 121.19 172.94 Z M 121.19 173.97 L 121.20 175.01 C 121.20 176.00 122.00 176.80 123.00 176.80 C 123.99 176.80 124.79 175.99 124.79 175.00 L 124.79 173.96 C 124.79 172.97 123.98 172.17 122.99 172.17 C 122.00 172.17 121.19 172.98 121.19 173.97 Z M 121.20 175.00 L 121.20 176.00 C 121.20 176.99 122.00 177.80 122.99 177.80 C 123.99 177.80 124.79 176.99 124.79 176.00 L 124.79 175.00 C 124.79 174.01 123.98 173.21 122.99 173.21 C 122.00 173.21 121.20 174.01 121.20 175.00 Z M 121.20 176.00 L 121.20 177.03 C 121.20 178.02 122.00 178.82 122.99 178.82 C 123.99 178.82 124.79 178.02 124.79 177.03 L 124.79 176.00 C 124.79 175.01 123.99 174.21 122.99 174.21 C 122.00 174.21 121.20 175.01 121.20 176.00 Z M 121.20 177.03 L 121.20 178.10 C 121.20 179.09 122.01 179.89 123.00 179.89 C 123.98 179.89 124.79 179.09 124.79 178.10 L 124.78 177.02 C 124.78 176.03 123.98 175.23 122.99 175.23 C 122.00 175.24 121.20 176.04 121.20 177.03 Z M 121.21 178.10 L 121.21 179.08 C 121.22 180.07 122.02 180.87 123.00 180.86 C 123.99 180.86 124.79 180.06 124.78 179.07 L 124.78 178.09 C 124.78 177.11 123.97 176.31 122.99 176.31 C 122.00 176.32 121.21 177.12 121.21 178.10 Z M 121.22 179.09 L 121.23 180.03 C 121.24 181.01 122.04 181.80 123.02 181.79 C 124.00 181.79 124.79 180.98 124.78 180.00 L 124.78 179.06 C 124.77 178.08 123.97 177.29 122.98 177.30 C 122.00 177.31 121.21 178.11 121.22 179.09 Z M 121.23 180.04 L 121.25 181.00 C 121.26 181.98 122.07 182.76 123.05 182.74 C 124.03 182.73 124.81 181.92 124.79 180.94 L 124.78 179.99 C 124.76 179.01 123.96 178.23 122.98 178.24 C 122.00 178.26 121.22 179.06 121.23 180.04 Z M 121.26 181.03 L 121.30 182.06 C 121.33 183.04 122.14 183.80 123.11 183.77 C 124.08 183.73 124.84 182.92 124.81 181.95 L 124.78 180.91 C 124.75 179.94 123.93 179.18 122.96 179.21 C 121.99 179.24 121.23 180.06 121.26 181.03 Z M 121.31 182.15 L 121.40 183.17 C 121.48 184.13 122.32 184.85 123.28 184.77 C 124.24 184.69 124.95 183.85 124.88 182.89 L 124.79 181.87 C 124.72 180.91 123.87 180.19 122.91 180.27 C 121.95 180.35 121.24 181.19 121.31 182.15 Z M 121.43 183.32 L 121.60 184.29 C 121.76 185.23 122.65 185.86 123.59 185.70 C 124.54 185.54 125.17 184.64 125.01 183.70 L 124.84 182.74 C 124.68 181.80 123.79 181.16 122.85 181.32 C 121.90 181.49 121.27 182.38 121.43 183.32 Z M 121.68 184.53 L 121.98 185.46 C 122.28 186.35 123.25 186.84 124.15 186.54 C 125.05 186.24 125.53 185.27 125.24 184.38 L 124.93 183.45 C 124.63 182.55 123.66 182.07 122.76 182.37 C 121.86 182.67 121.38 183.64 121.68 184.53 Z M 122.14 185.76 L 122.64 186.63 C 123.11 187.44 124.14 187.72 124.95 187.26 C 125.77 186.79 126.04 185.76 125.58 184.95 L 125.08 184.07 C 124.61 183.26 123.58 182.98 122.77 183.45 C 121.96 183.91 121.68 184.95 122.14 185.76 Z M 122.81 186.84 L 123.42 187.60 C 124.00 188.32 125.05 188.43 125.77 187.86 C 126.49 187.28 126.60 186.23 126.03 185.51 L 125.41 184.75 C 124.84 184.03 123.79 183.91 123.07 184.49 C 122.35 185.07 122.23 186.12 122.81 186.84 Z M 123.51 187.67 L 124.04 188.24 C 124.65 188.91 125.70 188.95 126.37 188.33 C 127.03 187.71 127.08 186.67 126.46 186.00 L 125.94 185.44 C 125.32 184.77 124.28 184.73 123.61 185.34 C 122.94 185.96 122.90 187.00 123.51 187.67 Z"
      fill="black"
      fill-rule="nonzero" /><path d="M 140.03 132.59 L 139.74 133.56 C 139.44 134.55 140.01 135.60 141.00 135.89 C 142.00 136.19 143.04 135.62 143.34 134.63 L 143.63 133.66 C 143.92 132.67 143.36 131.62 142.36 131.33 C 141.37 131.03 140.32 131.60 140.03 132.59 Z M 139.72 133.63 L 139.47 134.59 C 139.21 135.60 139.82 136.62 140.82 136.88 C 141.82 137.14 142.85 136.53 143.11 135.53 L 143.36 134.56 C 143.61 133.56 143.01 132.53 142.01 132.28 C 141.00 132.02 139.98 132.62 139.72 133.63 Z M 139.44 134.73 L 139.27 135.71 C 139.09 136.73 139.77 137.70 140.79 137.88 C 141.81 138.07 142.78 137.39 142.96 136.37 L 143.13 135.39 C 143.32 134.37 142.64 133.40 141.62 133.22 C 140.60 133.04 139.63 133.71 139.44 134.73 Z M 139.25 135.93 L 139.19 136.95 C 139.13 137.98 139.91 138.87 140.95 138.93 C 141.98 138.99 142.86 138.20 142.92 137.17 L 142.98 136.15 C 143.04 135.12 142.26 134.23 141.22 134.17 C 140.19 134.11 139.31 134.90 139.25 135.93 Z M 139.20 137.27 L 139.31 138.27 C 139.43 139.30 140.36 140.03 141.38 139.92 C 142.41 139.80 143.14 138.87 143.03 137.85 L 142.91 136.85 C 142.80 135.82 141.87 135.09 140.84 135.20 C 139.82 135.32 139.08 136.25 139.20 137.27 Z M 139.42 138.72 L 139.76 139.62 C 140.13 140.59 141.20 141.08 142.17 140.71 C 143.13 140.35 143.62 139.27 143.26 138.31 L 142.92 137.40 C 142.55 136.43 141.48 135.95 140.51 136.31 C 139.54 136.67 139.06 137.75 139.42 138.72 Z M 140.05 140.12 L 140.63 140.85 C 141.27 141.65 142.44 141.79 143.24 141.15 C 144.04 140.51 144.18 139.34 143.54 138.54 L 142.97 137.81 C 142.33 137.01 141.16 136.87 140.36 137.51 C 139.55 138.15 139.42 139.31 140.05 140.12 Z M 141.02 141.18 L 141.81 141.75 C 142.63 142.34 143.78 142.15 144.37 141.33 C 144.96 140.51 144.77 139.36 143.95 138.77 L 143.16 138.20 C 142.34 137.61 141.19 137.80 140.60 138.62 C 140.01 139.45 140.20 140.59 141.02 141.18 Z M 142.18 141.93 L 143.14 142.33 C 144.06 142.72 145.12 142.29 145.51 141.37 C 145.89 140.45 145.46 139.39 144.54 139.00 L 143.58 138.60 C 142.66 138.21 141.60 138.64 141.21 139.56 C 140.83 140.48 141.26 141.54 142.18 141.93 Z M 143.46 142.41 L 144.46 142.63 C 145.42 142.84 146.37 142.23 146.58 141.26 C 146.79 140.30 146.18 139.35 145.22 139.14 L 144.22 138.92 C 143.26 138.71 142.31 139.32 142.10 140.29 C 141.89 141.25 142.50 142.20 143.46 142.41 Z M 144.74 142.64 L 145.74 142.70 C 146.71 142.75 147.54 142.00 147.59 141.03 C 147.64 140.06 146.90 139.23 145.92 139.18 L 144.93 139.12 C 143.96 139.07 143.13 139.82 143.08 140.79 C 143.02 141.76 143.77 142.59 144.74 142.64 Z M 146.03 142.67 L 147.03 142.55 C 147.99 142.44 148.67 141.58 148.56 140.62 C 148.45 139.67 147.59 138.98 146.63 139.09 L 145.63 139.20 C 144.68 139.31 143.99 140.18 144.10 141.13 C 144.21 142.09 145.07 142.78 146.03 142.67 Z M 147.35 142.47 L 148.31 142.17 C 149.22 141.88 149.72 140.92 149.44 140.01 C 149.15 139.10 148.19 138.59 147.28 138.87 L 146.32 139.17 C 145.41 139.46 144.90 140.43 145.18 141.34 C 145.47 142.25 146.44 142.75 147.35 142.47 Z M 148.62 142.02 L 149.48 141.54 C 150.31 141.08 150.61 140.04 150.15 139.21 C 149.69 138.38 148.64 138.09 147.82 138.55 L 146.96 139.03 C 146.13 139.48 145.84 140.53 146.30 141.35 C 146.76 142.18 147.80 142.48 148.62 142.02 Z M 149.71 141.38 L 150.49 140.76 C 151.23 140.17 151.35 139.10 150.77 138.37 C 150.18 137.63 149.11 137.51 148.38 138.09 L 147.59 138.71 C 146.86 139.29 146.73 140.36 147.32 141.10 C 147.90 141.84 148.97 141.96 149.71 141.38 Z M 150.62 140.63 L 151.34 139.91 C 152.00 139.26 152.01 138.19 151.35 137.52 C 150.70 136.86 149.62 136.85 148.96 137.51 L 148.24 138.22 C 147.58 138.88 147.57 139.95 148.23 140.61 C 148.89 141.28 149.96 141.28 150.62 140.63 Z M 151.41 139.83 L 152.06 139.09 C 152.68 138.40 152.62 137.33 151.92 136.72 C 151.23 136.10 150.16 136.16 149.55 136.86 L 148.89 137.60 C 148.28 138.29 148.34 139.35 149.03 139.97 C 149.73 140.59 150.79 140.52 151.41 139.83 Z M 152.10 139.05 L 152.66 138.37 C 153.25 137.66 153.15 136.60 152.44 136.01 C 151.73 135.42 150.67 135.52 150.08 136.23 L 149.52 136.90 C 148.92 137.61 149.02 138.67 149.73 139.26 C 150.45 139.86 151.50 139.76 152.10 139.05 Z M 152.68 138.34 L 153.25 137.62 C 153.82 136.89 153.70 135.84 152.97 135.26 C 152.24 134.69 151.19 134.82 150.61 135.54 L 150.05 136.26 C 149.47 136.99 149.60 138.04 150.33 138.62 C 151.05 139.19 152.11 139.07 152.68 138.34 Z M 153.27 137.59 L 153.88 136.78 C 154.44 136.04 154.29 134.99 153.55 134.43 C 152.81 133.88 151.76 134.02 151.20 134.76 L 150.59 135.57 C 150.03 136.31 150.18 137.36 150.92 137.92 C 151.66 138.48 152.71 138.33 153.27 137.59 Z M 153.90 136.76 L 154.59 135.82 C 155.13 135.07 154.97 134.02 154.22 133.47 C 153.47 132.93 152.42 133.09 151.88 133.84 L 151.19 134.78 C 150.64 135.53 150.80 136.58 151.55 137.13 C 152.30 137.68 153.35 137.51 153.90 136.76 Z M 154.59 135.81 L 155.16 135.02 C 155.70 134.27 155.53 133.22 154.78 132.68 C 154.02 132.14 152.97 132.31 152.43 133.06 L 151.87 133.85 C 151.33 134.60 151.50 135.65 152.25 136.19 C 153.00 136.73 154.05 136.56 154.59 135.81 Z M 155.16 135.02 L 155.73 134.22 C 156.27 133.46 156.10 132.42 155.34 131.88 C 154.59 131.34 153.54 131.51 153.00 132.27 L 152.43 133.07 C 151.89 133.82 152.06 134.87 152.82 135.41 C 153.57 135.95 154.62 135.77 155.16 135.02 Z M 155.73 134.22 L 156.33 133.38 C 156.87 132.63 156.70 131.58 155.94 131.04 C 155.19 130.50 154.14 130.67 153.60 131.43 L 153.00 132.26 C 152.46 133.02 152.63 134.07 153.39 134.61 C 154.14 135.15 155.19 134.98 155.73 134.22 Z M 156.33 133.39 L 156.95 132.54 C 157.49 131.78 157.32 130.73 156.56 130.19 C 155.81 129.64 154.76 129.82 154.21 130.57 L 153.60 131.42 C 153.06 132.18 153.23 133.23 153.98 133.77 C 154.74 134.31 155.79 134.14 156.33 133.39 Z M 156.94 132.54 L 157.55 131.70 C 158.10 130.95 157.93 129.90 157.18 129.35 C 156.43 128.81 155.38 128.97 154.83 129.72 L 154.22 130.56 C 153.67 131.31 153.84 132.37 154.59 132.91 C 155.34 133.46 156.39 133.29 156.94 132.54 Z M 157.54 131.72 L 158.14 130.91 C 158.69 130.17 158.53 129.11 157.79 128.56 C 157.04 128.00 155.98 128.16 155.43 128.91 L 154.84 129.71 C 154.28 130.46 154.44 131.51 155.19 132.07 C 155.94 132.62 156.99 132.46 157.54 131.72 Z M 158.13 130.93 L 158.79 130.06 C 159.36 129.32 159.21 128.26 158.47 127.70 C 157.73 127.13 156.67 127.27 156.11 128.02 L 155.44 128.89 C 154.88 129.63 155.02 130.69 155.76 131.25 C 156.50 131.82 157.56 131.67 158.13 130.93 Z M 158.77 130.10 L 159.48 129.20 C 160.07 128.48 159.95 127.41 159.22 126.83 C 158.50 126.24 157.43 126.36 156.85 127.09 L 156.13 127.98 C 155.55 128.71 155.67 129.77 156.39 130.36 C 157.12 130.94 158.18 130.82 158.77 130.10 Z M 159.45 129.26 L 160.11 128.49 C 160.72 127.78 160.65 126.71 159.94 126.10 C 159.23 125.49 158.16 125.56 157.55 126.27 L 156.89 127.04 C 156.27 127.74 156.35 128.81 157.06 129.43 C 157.76 130.04 158.83 129.96 159.45 129.26 Z M 160.05 128.56 L 160.68 127.90 C 161.33 127.22 161.31 126.15 160.64 125.50 C 159.96 124.85 158.89 124.87 158.24 125.55 L 157.61 126.20 C 156.96 126.88 156.98 127.95 157.65 128.60 C 158.33 129.25 159.41 129.23 160.05 128.56 Z M 160.61 127.98 L 161.22 127.42 C 161.91 126.79 161.96 125.71 161.33 125.02 C 160.69 124.33 159.62 124.28 158.92 124.91 L 158.31 125.47 C 157.62 126.10 157.57 127.18 158.20 127.87 C 158.84 128.56 159.91 128.61 160.61 127.98 Z M 161.08 127.54 L 162.01 126.86 C 162.77 126.30 162.94 125.23 162.38 124.47 C 161.82 123.71 160.75 123.55 159.99 124.11 L 159.06 124.79 C 158.30 125.35 158.14 126.41 158.70 127.17 C 159.25 127.93 160.32 128.10 161.08 127.54 Z M 161.70 127.05 L 162.61 126.65 C 163.47 126.26 163.86 125.25 163.48 124.38 C 163.09 123.52 162.08 123.13 161.22 123.51 L 160.31 123.92 C 159.44 124.30 159.05 125.31 159.44 126.18 C 159.82 127.04 160.83 127.43 161.70 127.05 Z M 161.88 126.80 L 162.68 126.81 C 163.63 126.83 164.41 126.07 164.43 125.12 C 164.44 124.17 163.69 123.39 162.73 123.37 L 161.94 123.36 C 160.99 123.34 160.21 124.10 160.19 125.05 C 160.17 126.00 160.93 126.78 161.88 126.80 Z M 161.62 126.43 L 162.28 126.97 C 163.02 127.57 164.11 127.46 164.71 126.72 C 165.31 125.98 165.20 124.89 164.46 124.29 L 163.79 123.75 C 163.05 123.15 161.97 123.27 161.37 124.01 C 160.76 124.75 160.88 125.83 161.62 126.43 Z M 161.84 126.43 L 162.32 127.35 C 162.76 128.20 163.81 128.53 164.65 128.08 C 165.50 127.64 165.82 126.60 165.38 125.76 L 164.90 124.83 C 164.46 123.99 163.42 123.66 162.57 124.10 C 161.73 124.54 161.40 125.59 161.84 126.43 Z M 162.20 127.04 L 162.50 128.07 C 162.77 128.99 163.73 129.51 164.64 129.24 C 165.56 128.97 166.08 128.01 165.81 127.10 L 165.51 126.07 C 165.24 125.15 164.28 124.63 163.37 124.90 C 162.45 125.17 161.93 126.13 162.20 127.04 Z M 162.46 127.88 L 162.63 128.86 C 162.79 129.80 163.69 130.42 164.62 130.26 C 165.56 130.10 166.19 129.20 166.03 128.27 L 165.85 127.29 C 165.69 126.35 164.80 125.72 163.86 125.89 C 162.92 126.05 162.29 126.94 162.46 127.88 Z M 162.61 128.73 L 162.71 129.72 C 162.80 130.67 163.64 131.37 164.59 131.27 C 165.53 131.18 166.23 130.34 166.14 129.39 L 166.04 128.40 C 165.95 127.45 165.11 126.76 164.16 126.85 C 163.22 126.94 162.52 127.78 162.61 128.73 Z M 162.71 129.64 L 162.75 130.65 C 162.80 131.59 163.61 132.33 164.56 132.28 C 165.50 132.23 166.24 131.43 166.19 130.48 L 166.14 129.48 C 166.09 128.53 165.29 127.80 164.34 127.84 C 163.39 127.89 162.66 128.70 162.71 129.64 Z M 162.76 130.60 L 162.78 131.59 C 162.80 132.54 163.59 133.29 164.53 133.26 C 165.48 133.24 166.23 132.46 166.21 131.51 L 166.18 130.52 C 166.16 129.58 165.38 128.83 164.43 128.85 C 163.49 128.87 162.74 129.66 162.76 130.60 Z M 162.79 131.57 L 162.80 132.57 C 162.80 133.51 163.57 134.27 164.52 134.26 C 165.46 134.25 166.22 133.48 166.21 132.54 L 166.20 131.54 C 166.19 130.60 165.42 129.84 164.48 129.85 C 163.54 129.85 162.78 130.62 162.79 131.57 Z M 162.81 132.56 L 162.81 133.56 C 162.81 134.50 163.57 135.26 164.51 135.26 C 165.44 135.26 166.20 134.50 166.20 133.56 L 166.20 132.55 C 166.20 131.62 165.44 130.86 164.50 130.86 C 163.56 130.86 162.80 131.62 162.81 132.56 Z M 162.82 133.56 L 162.82 134.52 C 162.82 135.45 163.57 136.21 164.50 136.21 C 165.44 136.21 166.19 135.45 166.19 134.52 L 166.19 133.56 C 166.19 132.63 165.44 131.87 164.50 131.87 C 163.57 131.87 162.82 132.63 162.82 133.56 Z M 162.83 134.52 L 162.83 135.51 C 162.83 136.44 163.58 137.19 164.50 137.19 C 165.43 137.19 166.18 136.44 166.18 135.51 L 166.18 134.52 C 166.18 133.59 165.43 132.84 164.50 132.84 C 163.58 132.84 162.83 133.59 162.83 134.52 Z M 162.84 135.51 L 162.84 136.55 C 162.84 137.47 163.58 138.21 164.50 138.21 C 165.42 138.21 166.17 137.47 166.17 136.55 L 166.17 135.51 C 166.17 134.59 165.42 133.84 164.50 133.84 C 163.58 133.84 162.84 134.59 162.84 135.51 Z M 162.85 136.54 L 162.84 137.52 C 162.84 138.44 163.58 139.18 164.50 139.18 C 165.41 139.19 166.16 138.45 166.16 137.53 L 166.16 136.55 C 166.16 135.64 165.42 134.89 164.51 134.89 C 163.59 134.89 162.85 135.63 162.85 136.54 Z M 162.85 137.48 L 162.82 138.46 C 162.80 139.37 163.52 140.13 164.43 140.15 C 165.34 140.18 166.10 139.46 166.13 138.55 L 166.15 137.57 C 166.18 136.66 165.46 135.90 164.55 135.88 C 163.63 135.85 162.87 136.57 162.85 137.48 Z M 162.83 138.37 L 162.75 139.37 C 162.68 140.28 163.35 141.08 164.26 141.15 C 165.16 141.23 165.96 140.55 166.03 139.64 L 166.12 138.64 C 166.19 137.73 165.52 136.94 164.61 136.86 C 163.70 136.79 162.91 137.46 162.83 138.37 Z M 162.77 139.24 L 162.60 140.26 C 162.45 141.15 163.05 142.00 163.95 142.15 C 164.84 142.30 165.69 141.70 165.84 140.80 L 166.01 139.78 C 166.16 138.89 165.56 138.04 164.67 137.89 C 163.77 137.74 162.92 138.34 162.77 139.24 Z M 162.64 140.09 L 162.38 141.04 C 162.13 141.91 162.64 142.81 163.51 143.06 C 164.39 143.30 165.29 142.79 165.53 141.92 L 165.80 140.97 C 166.04 140.10 165.53 139.19 164.66 138.95 C 163.79 138.71 162.88 139.22 162.64 140.09 Z M 162.42 140.90 L 162.08 141.81 C 161.76 142.66 162.18 143.61 163.03 143.93 C 163.88 144.25 164.82 143.82 165.14 142.97 L 165.49 142.06 C 165.81 141.21 165.38 140.26 164.53 139.94 C 163.69 139.63 162.74 140.05 162.42 140.90 Z M 162.11 141.72 L 161.70 142.64 C 161.33 143.46 161.70 144.43 162.53 144.80 C 163.35 145.17 164.32 144.81 164.69 143.98 L 165.10 143.06 C 165.47 142.24 165.11 141.27 164.28 140.90 C 163.45 140.53 162.49 140.90 162.11 141.72 Z M 161.73 142.58 L 161.28 143.50 C 160.88 144.31 161.21 145.29 162.02 145.69 C 162.83 146.09 163.81 145.76 164.21 144.95 L 164.67 144.04 C 165.07 143.22 164.73 142.24 163.92 141.84 C 163.11 141.44 162.13 141.77 161.73 142.58 Z M 161.29 143.48 L 160.93 144.19 C 160.51 144.99 160.83 145.98 161.63 146.39 C 162.44 146.80 163.43 146.49 163.84 145.68 L 164.20 144.97 C 164.61 144.17 164.30 143.18 163.49 142.77 C 162.69 142.36 161.70 142.67 161.29 143.48 Z"
      fill="black"
      fill-rule="nonzero" /><path d="M 150.89 116.41 L 150.52 117.35 C 150.15 118.28 150.61 119.33 151.54 119.69 C 152.46 120.06 153.51 119.60 153.88 118.67 L 154.25 117.74 C 154.61 116.81 154.16 115.76 153.23 115.40 C 152.30 115.03 151.25 115.48 150.89 116.41 Z M 150.49 117.39 L 150.14 118.33 C 149.80 119.27 150.29 120.32 151.23 120.66 C 152.18 121.01 153.22 120.52 153.57 119.57 L 153.91 118.63 C 154.26 117.69 153.77 116.64 152.82 116.30 C 151.88 115.95 150.83 116.44 150.49 117.39 Z M 150.10 118.42 L 149.81 119.37 C 149.51 120.34 150.06 121.37 151.03 121.66 C 152.00 121.96 153.03 121.41 153.33 120.44 L 153.61 119.49 C 153.91 118.51 153.36 117.49 152.39 117.19 C 151.42 116.90 150.39 117.45 150.10 118.42 Z M 149.76 119.51 L 149.55 120.48 C 149.33 121.48 149.97 122.46 150.97 122.68 C 151.97 122.89 152.95 122.26 153.17 121.26 L 153.37 120.30 C 153.59 119.30 152.96 118.31 151.96 118.10 C 150.96 117.88 149.98 118.52 149.76 119.51 Z M 149.52 120.63 L 149.39 121.62 C 149.26 122.63 149.98 123.56 150.99 123.69 C 152.01 123.82 152.94 123.11 153.07 122.09 L 153.20 121.11 C 153.33 120.09 152.61 119.17 151.60 119.03 C 150.58 118.90 149.65 119.62 149.52 120.63 Z M 149.38 121.73 L 149.32 122.73 C 149.25 123.75 150.02 124.63 151.04 124.70 C 152.06 124.77 152.94 124.00 153.01 122.98 L 153.08 121.98 C 153.15 120.96 152.38 120.07 151.36 120.01 C 150.33 119.94 149.45 120.71 149.38 121.73 Z M 149.31 122.80 L 149.28 123.81 C 149.25 124.83 150.06 125.68 151.08 125.71 C 152.10 125.75 152.95 124.94 152.98 123.92 L 153.02 122.91 C 153.05 121.89 152.24 121.03 151.22 121.00 C 150.20 120.97 149.34 121.77 149.31 122.80 Z M 149.29 123.84 L 149.28 124.79 C 149.27 125.81 150.08 126.64 151.10 126.66 C 152.11 126.67 152.95 125.86 152.96 124.84 L 152.97 123.89 C 152.99 122.87 152.17 122.04 151.16 122.02 C 150.14 122.01 149.31 122.82 149.29 123.84 Z M 149.31 124.83 L 149.32 125.80 C 149.32 126.80 150.14 127.60 151.14 127.60 C 152.15 127.59 152.95 126.77 152.94 125.77 L 152.93 124.80 C 152.93 123.80 152.11 122.99 151.11 123.00 C 150.10 123.01 149.30 123.83 149.31 124.83 Z M 149.34 125.86 L 149.39 126.86 C 149.43 127.85 150.26 128.62 151.25 128.57 C 152.23 128.53 153.00 127.70 152.96 126.72 L 152.91 125.71 C 152.87 124.72 152.04 123.96 151.05 124.00 C 150.07 124.04 149.30 124.87 149.34 125.86 Z M 149.42 126.94 L 149.51 128.00 C 149.59 128.97 150.44 129.69 151.41 129.61 C 152.38 129.53 153.09 128.68 153.01 127.71 L 152.92 126.64 C 152.84 125.67 151.99 124.96 151.02 125.04 C 150.06 125.12 149.34 125.97 149.42 126.94 Z M 149.54 128.07 L 149.66 129.06 C 149.78 130.01 150.65 130.68 151.60 130.57 C 152.55 130.45 153.22 129.58 153.11 128.63 L 152.98 127.64 C 152.86 126.69 152.00 126.02 151.05 126.14 C 150.09 126.25 149.42 127.12 149.54 128.07 Z M 149.69 129.10 L 149.84 130.11 C 149.98 131.05 150.86 131.69 151.80 131.55 C 152.73 131.41 153.38 130.53 153.23 129.59 L 153.08 128.58 C 152.94 127.65 152.06 127.00 151.12 127.15 C 150.19 127.29 149.54 128.16 149.69 129.10 Z M 149.86 130.14 L 150.04 131.15 C 150.19 132.07 151.07 132.69 151.99 132.54 C 152.92 132.38 153.54 131.50 153.38 130.58 L 153.21 129.57 C 153.05 128.64 152.18 128.02 151.25 128.18 C 150.33 128.34 149.71 129.21 149.86 130.14 Z M 150.06 131.16 L 150.23 132.13 C 150.39 133.05 151.26 133.65 152.18 133.49 C 153.09 133.33 153.70 132.46 153.54 131.54 L 153.36 130.57 C 153.20 129.66 152.33 129.05 151.41 129.21 C 150.50 129.37 149.89 130.24 150.06 131.16 Z M 150.25 132.13 L 150.42 133.14 C 150.58 134.04 151.45 134.64 152.35 134.48 C 153.25 134.32 153.86 133.46 153.70 132.56 L 153.52 131.55 C 153.36 130.65 152.50 130.04 151.59 130.20 C 150.69 130.36 150.09 131.22 150.25 132.13 Z M 150.43 133.12 L 150.60 134.15 C 150.75 135.05 151.61 135.65 152.51 135.50 C 153.41 135.35 154.01 134.50 153.86 133.60 L 153.69 132.58 C 153.54 131.68 152.69 131.07 151.79 131.22 C 150.89 131.37 150.28 132.22 150.43 133.12 Z M 150.60 134.12 L 150.75 135.08 C 150.89 135.98 151.73 136.60 152.63 136.46 C 153.52 136.33 154.14 135.49 154.01 134.59 L 153.86 133.63 C 153.72 132.73 152.89 132.11 151.99 132.25 C 151.09 132.38 150.47 133.22 150.60 134.12 Z M 150.75 135.05 L 150.87 135.99 C 150.99 136.89 151.82 137.52 152.72 137.40 C 153.61 137.28 154.25 136.46 154.13 135.56 L 154.01 134.62 C 153.89 133.72 153.06 133.09 152.17 133.21 C 151.27 133.33 150.63 134.15 150.75 135.05 Z M 150.87 135.95 L 150.98 136.92 C 151.08 137.82 151.89 138.47 152.78 138.37 C 153.68 138.27 154.33 137.47 154.24 136.57 L 154.13 135.60 C 154.03 134.70 153.22 134.05 152.33 134.15 C 151.43 134.24 150.78 135.05 150.87 135.95 Z M 150.98 136.89 L 151.07 137.88 C 151.15 138.79 151.94 139.45 152.84 139.37 C 153.75 139.29 154.41 138.49 154.33 137.59 L 154.24 136.60 C 154.16 135.70 153.36 135.03 152.46 135.11 C 151.56 135.20 150.90 135.99 150.98 136.89 Z M 151.07 137.87 L 151.14 138.87 C 151.22 139.77 152.00 140.44 152.91 140.37 C 153.81 140.30 154.48 139.51 154.41 138.61 L 154.33 137.61 C 154.26 136.71 153.47 136.03 152.57 136.11 C 151.67 136.18 150.99 136.97 151.07 137.87 Z M 151.14 138.86 L 151.20 139.62 C 151.27 140.52 152.05 141.20 152.95 141.13 C 153.86 141.06 154.53 140.28 154.47 139.37 L 154.41 138.62 C 154.34 137.72 153.56 137.04 152.65 137.11 C 151.75 137.18 151.08 137.96 151.14 138.86 Z"
      fill="black"
      fill-rule="nonzero" /><path d="M 145.81 154.22 L 146.80 154.45 C 147.75 154.67 148.70 154.07 148.92 153.12 C 149.14 152.16 148.54 151.21 147.59 151.00 L 146.60 150.77 C 145.64 150.55 144.69 151.15 144.48 152.10 C 144.26 153.06 144.85 154.01 145.81 154.22 Z M 146.92 154.44 L 147.91 154.60 C 148.86 154.74 149.75 154.10 149.90 153.15 C 150.05 152.20 149.40 151.31 148.45 151.16 L 147.46 151.01 C 146.52 150.86 145.63 151.50 145.48 152.45 C 145.33 153.40 145.98 154.29 146.92 154.44 Z M 148.16 154.58 L 149.14 154.60 C 150.08 154.61 150.86 153.86 150.87 152.91 C 150.88 151.97 150.13 151.20 149.19 151.19 L 148.20 151.17 C 147.26 151.16 146.49 151.91 146.48 152.86 C 146.46 153.80 147.22 154.57 148.16 154.58 Z M 149.48 154.54 L 150.39 154.37 C 151.31 154.19 151.90 153.31 151.73 152.40 C 151.55 151.49 150.67 150.89 149.76 151.07 L 148.84 151.24 C 147.93 151.42 147.34 152.30 147.51 153.21 C 147.69 154.12 148.57 154.72 149.48 154.54 Z M 150.67 154.27 L 151.56 153.93 C 152.42 153.60 152.85 152.64 152.52 151.78 C 152.19 150.92 151.22 150.49 150.37 150.82 L 149.48 151.16 C 148.62 151.49 148.19 152.45 148.52 153.31 C 148.85 154.17 149.81 154.60 150.67 154.27 Z M 151.71 153.85 L 152.62 153.39 C 153.43 152.98 153.76 151.98 153.34 151.17 C 152.93 150.35 151.93 150.02 151.12 150.44 L 150.21 150.90 C 149.40 151.31 149.07 152.31 149.49 153.13 C 149.90 153.94 150.90 154.27 151.71 153.85 Z M 152.68 153.35 L 153.63 152.81 C 154.42 152.36 154.69 151.36 154.25 150.57 C 153.80 149.78 152.80 149.50 152.00 149.95 L 151.06 150.48 C 150.27 150.93 149.99 151.94 150.44 152.73 C 150.88 153.52 151.89 153.79 152.68 153.35 Z M 153.63 152.80 L 154.50 152.30 C 155.29 151.85 155.56 150.85 155.11 150.07 C 154.66 149.28 153.66 149.01 152.87 149.46 L 152.00 149.96 C 151.22 150.41 150.94 151.41 151.39 152.19 C 151.84 152.98 152.84 153.25 153.63 152.80 Z M 154.49 152.31 L 155.39 151.80 C 156.17 151.36 156.45 150.36 156.01 149.57 C 155.56 148.78 154.56 148.50 153.78 148.95 L 152.88 149.45 C 152.10 149.90 151.82 150.90 152.26 151.69 C 152.71 152.47 153.71 152.75 154.49 152.31 Z M 155.37 151.81 L 156.26 151.32 C 157.05 150.88 157.34 149.89 156.90 149.09 C 156.46 148.30 155.47 148.02 154.68 148.45 L 153.79 148.94 C 153.00 149.38 152.71 150.38 153.15 151.17 C 153.58 151.96 154.58 152.25 155.37 151.81 Z M 156.24 151.33 L 157.10 150.87 C 157.90 150.44 158.20 149.45 157.77 148.65 C 157.34 147.86 156.35 147.56 155.55 147.98 L 154.69 148.44 C 153.90 148.87 153.60 149.86 154.02 150.66 C 154.45 151.46 155.44 151.76 156.24 151.33 Z M 157.06 150.90 L 158.18 150.34 C 158.99 149.94 159.32 148.95 158.92 148.14 C 158.51 147.32 157.53 146.99 156.72 147.40 L 155.59 147.96 C 154.78 148.36 154.45 149.35 154.85 150.16 C 155.26 150.97 156.24 151.30 157.06 150.90 Z M 158.00 150.43 L 158.97 150.09 C 159.83 149.79 160.29 148.84 159.98 147.98 C 159.68 147.11 158.73 146.66 157.87 146.96 L 156.90 147.31 C 156.03 147.61 155.58 148.56 155.88 149.42 C 156.19 150.28 157.13 150.74 158.00 150.43 Z M 158.13 150.17 L 158.71 150.28 C 159.62 150.44 160.49 149.83 160.65 148.92 C 160.81 148.01 160.21 147.14 159.30 146.98 L 158.71 146.88 C 157.80 146.72 156.93 147.32 156.77 148.23 C 156.61 149.14 157.22 150.01 158.13 150.17 Z M 157.35 149.00 L 157.48 149.57 C 157.69 150.49 158.59 151.06 159.51 150.85 C 160.42 150.65 160.99 149.74 160.79 148.83 L 160.66 148.26 C 160.45 147.34 159.54 146.77 158.63 146.98 C 157.72 147.18 157.14 148.09 157.35 149.00 Z M 157.45 148.84 L 157.24 149.83 C 157.04 150.76 157.64 151.67 158.57 151.87 C 159.50 152.06 160.41 151.47 160.61 150.54 L 160.82 149.56 C 161.01 148.63 160.42 147.71 159.49 147.52 C 158.56 147.32 157.65 147.91 157.45 148.84 Z M 157.28 149.58 L 156.80 150.89 C 156.47 151.80 156.93 152.80 157.84 153.14 C 158.74 153.47 159.75 153.01 160.08 152.10 L 160.56 150.79 C 160.90 149.88 160.43 148.88 159.53 148.54 C 158.62 148.21 157.62 148.67 157.28 149.58 Z M 156.82 150.80 L 156.46 151.64 C 156.07 152.54 156.49 153.58 157.38 153.96 C 158.28 154.35 159.31 153.93 159.70 153.04 L 160.06 152.19 C 160.45 151.30 160.03 150.26 159.14 149.88 C 158.24 149.49 157.20 149.91 156.82 150.80 Z M 156.46 151.61 L 156.06 152.51 C 155.65 153.40 156.05 154.45 156.94 154.86 C 157.83 155.26 158.88 154.87 159.28 153.97 L 159.69 153.07 C 160.09 152.18 159.70 151.13 158.81 150.73 C 157.92 150.32 156.87 150.72 156.46 151.61 Z M 156.06 152.49 L 155.62 153.43 C 155.21 154.32 155.59 155.38 156.48 155.79 C 157.37 156.21 158.43 155.82 158.84 154.93 L 159.28 153.99 C 159.69 153.10 159.31 152.05 158.42 151.63 C 157.53 151.22 156.47 151.60 156.06 152.49 Z M 155.62 153.43 L 155.17 154.37 C 154.76 155.26 155.14 156.33 156.04 156.74 C 156.93 157.16 157.99 156.77 158.41 155.88 L 158.85 154.93 C 159.27 154.04 158.88 152.98 157.99 152.56 C 157.09 152.15 156.03 152.53 155.62 153.43 Z M 155.16 154.38 L 154.74 155.31 C 154.32 156.21 154.72 157.27 155.62 157.68 C 156.51 158.10 157.58 157.70 157.99 156.80 L 158.42 155.87 C 158.83 154.97 158.44 153.91 157.54 153.50 C 156.64 153.09 155.58 153.48 155.16 154.38 Z M 154.72 155.33 L 154.30 156.28 C 153.90 157.18 154.32 158.24 155.22 158.64 C 156.13 159.04 157.19 158.63 157.59 157.72 L 158.01 156.78 C 158.41 155.87 158.00 154.81 157.09 154.41 C 156.18 154.01 155.12 154.42 154.72 155.33 Z M 154.29 156.31 L 153.89 157.28 C 153.51 158.19 153.95 159.25 154.86 159.62 C 155.78 160.00 156.83 159.57 157.21 158.65 L 157.61 157.69 C 157.99 156.77 157.55 155.72 156.63 155.34 C 155.72 154.96 154.66 155.40 154.29 156.31 Z M 153.87 157.32 L 153.52 158.24 C 153.16 159.17 153.62 160.21 154.55 160.57 C 155.48 160.92 156.52 160.46 156.87 159.53 L 157.23 158.61 C 157.58 157.68 157.12 156.64 156.19 156.28 C 155.27 155.93 154.23 156.39 153.87 157.32 Z M 153.50 158.29 L 153.18 159.20 C 152.84 160.13 153.33 161.16 154.27 161.49 C 155.21 161.83 156.23 161.34 156.57 160.40 L 156.89 159.49 C 157.22 158.55 156.73 157.53 155.80 157.19 C 154.86 156.86 153.83 157.35 153.50 158.29 Z M 153.16 159.23 L 152.86 160.15 C 152.54 161.09 153.06 162.11 154.00 162.43 C 154.94 162.74 155.96 162.23 156.27 161.28 L 156.58 160.36 C 156.89 159.42 156.38 158.40 155.44 158.09 C 154.49 157.78 153.48 158.29 153.16 159.23 Z M 152.85 160.18 L 152.56 161.09 C 152.26 162.04 152.79 163.05 153.74 163.35 C 154.69 163.64 155.70 163.12 156.00 162.17 L 156.28 161.26 C 156.58 160.31 156.05 159.30 155.11 159.00 C 154.16 158.70 153.15 159.23 152.85 160.18 Z M 152.56 161.11 L 152.28 162.02 C 152.00 162.97 152.54 163.98 153.49 164.26 C 154.44 164.55 155.45 164.01 155.73 163.05 L 156.00 162.14 C 156.29 161.19 155.75 160.19 154.80 159.90 C 153.85 159.62 152.84 160.16 152.56 161.11 Z M 152.28 162.04 L 152.01 162.99 C 151.73 163.94 152.29 164.94 153.24 165.21 C 154.20 165.49 155.19 164.93 155.47 163.98 L 155.74 163.03 C 156.01 162.08 155.46 161.08 154.50 160.81 C 153.55 160.53 152.55 161.09 152.28 162.04 Z M 152.00 163.01 L 151.73 163.99 C 151.47 164.95 152.04 165.93 153.00 166.20 C 153.96 166.46 154.95 165.89 155.21 164.93 L 155.47 163.95 C 155.73 163.00 155.17 162.01 154.21 161.75 C 153.25 161.48 152.26 162.05 152.00 163.01 Z M 151.73 164.01 L 151.47 165.02 C 151.22 165.98 151.80 166.96 152.76 167.21 C 153.72 167.46 154.71 166.88 154.95 165.92 L 155.21 164.91 C 155.46 163.95 154.88 162.97 153.92 162.72 C 152.96 162.47 151.98 163.05 151.73 164.01 Z M 151.46 165.04 L 151.22 166.06 C 150.98 167.03 151.58 168.00 152.54 168.23 C 153.51 168.47 154.48 167.87 154.71 166.91 L 154.96 165.89 C 155.19 164.93 154.60 163.96 153.64 163.72 C 152.67 163.49 151.70 164.08 151.46 165.04 Z M 151.21 166.09 L 150.99 167.04 C 150.77 168.01 151.38 168.97 152.35 169.19 C 153.31 169.41 154.28 168.81 154.50 167.84 L 154.72 166.89 C 154.94 165.92 154.33 164.96 153.36 164.73 C 152.40 164.51 151.43 165.12 151.21 166.09 Z M 150.99 167.06 L 150.78 168.04 C 150.57 169.01 151.19 169.96 152.16 170.17 C 153.12 170.38 154.08 169.76 154.29 168.80 L 154.50 167.82 C 154.71 166.85 154.09 165.90 153.12 165.69 C 152.16 165.48 151.20 166.10 150.99 167.06 Z M 150.78 168.06 L 150.58 169.04 C 150.38 170.01 151.01 170.96 151.98 171.15 C 152.94 171.35 153.89 170.73 154.09 169.76 L 154.29 168.77 C 154.49 167.81 153.86 166.86 152.89 166.66 C 151.93 166.47 150.98 167.09 150.78 168.06 Z M 150.58 169.06 L 150.39 170.05 C 150.20 171.02 150.83 171.96 151.80 172.15 C 152.77 172.33 153.71 171.70 153.89 170.73 L 154.09 169.74 C 154.27 168.77 153.64 167.84 152.67 167.65 C 151.70 167.46 150.77 168.09 150.58 169.06 Z M 150.39 170.07 L 150.21 171.07 C 150.03 172.03 150.67 172.96 151.64 173.14 C 152.61 173.32 153.54 172.67 153.71 171.71 L 153.89 170.71 C 154.07 169.75 153.43 168.82 152.46 168.64 C 151.49 168.46 150.57 169.10 150.39 170.07 Z M 150.21 171.08 L 150.04 172.08 C 149.87 173.05 150.52 173.97 151.49 174.14 C 152.45 174.30 153.37 173.66 153.54 172.69 L 153.71 171.69 C 153.88 170.72 153.23 169.80 152.26 169.63 C 151.29 169.47 150.38 170.12 150.21 171.08 Z M 150.04 172.10 L 149.87 173.12 C 149.72 174.09 150.37 175.00 151.34 175.15 C 152.31 175.31 153.22 174.65 153.37 173.69 L 153.54 172.67 C 153.70 171.70 153.04 170.79 152.07 170.63 C 151.10 170.48 150.19 171.13 150.04 172.10 Z M 149.87 173.14 L 149.72 174.14 C 149.58 175.11 150.24 176.01 151.21 176.16 C 152.17 176.30 153.07 175.64 153.22 174.68 L 153.37 173.67 C 153.52 172.70 152.85 171.80 151.89 171.65 C 150.92 171.51 150.02 172.17 149.87 173.14 Z M 149.72 174.16 L 149.58 175.16 C 149.45 176.12 150.12 177.01 151.08 177.15 C 152.05 177.29 152.94 176.61 153.08 175.65 L 153.22 174.66 C 153.35 173.69 152.68 172.80 151.72 172.66 C 150.75 172.53 149.86 173.20 149.72 174.16 Z M 149.59 175.18 L 149.46 176.15 C 149.33 177.12 150.01 178.00 150.97 178.13 C 151.94 178.25 152.82 177.57 152.94 176.61 L 153.07 175.63 C 153.20 174.67 152.52 173.79 151.56 173.66 C 150.60 173.53 149.71 174.21 149.59 175.18 Z M 149.46 176.17 L 149.35 177.13 C 149.23 178.09 149.91 178.97 150.88 179.08 C 151.84 179.20 152.71 178.51 152.83 177.55 L 152.94 176.59 C 153.06 175.63 152.37 174.76 151.41 174.64 C 150.45 174.53 149.58 175.21 149.46 176.17 Z M 149.35 177.15 L 149.24 178.16 C 149.13 179.12 149.83 179.98 150.78 180.09 C 151.74 180.19 152.61 179.50 152.71 178.54 L 152.82 177.53 C 152.93 176.57 152.24 175.71 151.28 175.61 C 150.32 175.50 149.45 176.19 149.35 177.15 Z M 149.24 178.18 L 149.14 179.21 C 149.05 180.17 149.75 181.02 150.70 181.11 C 151.66 181.21 152.51 180.51 152.60 179.55 L 152.71 178.52 C 152.80 177.57 152.10 176.71 151.15 176.62 C 150.19 176.53 149.34 177.22 149.24 178.18 Z M 149.15 179.23 L 149.06 180.23 C 148.97 181.19 149.68 182.03 150.63 182.11 C 151.58 182.20 152.42 181.49 152.51 180.54 L 152.60 179.53 C 152.68 178.58 151.98 177.74 151.03 177.66 C 150.07 177.57 149.23 178.27 149.15 179.23 Z M 149.06 180.25 L 148.99 181.23 C 148.91 182.18 149.62 183.01 150.57 183.09 C 151.51 183.16 152.35 182.46 152.42 181.51 L 152.50 180.53 C 152.58 179.58 151.87 178.74 150.92 178.67 C 149.97 178.59 149.14 179.30 149.06 180.25 Z M 148.99 181.24 L 148.92 182.20 C 148.85 183.15 149.56 183.97 150.51 184.04 C 151.45 184.11 152.27 183.40 152.35 182.46 L 152.42 181.50 C 152.49 180.55 151.78 179.73 150.83 179.66 C 149.89 179.59 149.06 180.30 148.99 181.24 Z M 148.93 182.21 L 148.86 183.21 C 148.79 184.15 149.51 184.96 150.45 185.03 C 151.39 185.09 152.20 184.38 152.27 183.44 L 152.34 182.45 C 152.40 181.51 151.69 180.69 150.75 180.62 C 149.81 180.56 148.99 181.27 148.93 182.21 Z M 148.87 183.22 L 148.81 184.24 C 148.75 185.18 149.46 185.99 150.40 186.04 C 151.34 186.10 152.14 185.39 152.20 184.45 L 152.26 183.43 C 152.32 182.49 151.60 181.68 150.67 181.63 C 149.73 181.57 148.92 182.28 148.87 183.22 Z M 148.81 184.27 L 148.77 185.27 C 148.73 186.20 149.45 186.99 150.38 187.04 C 151.31 187.08 152.10 186.36 152.14 185.42 L 152.19 184.42 C 152.23 183.49 151.51 182.70 150.58 182.66 C 149.65 182.62 148.86 183.34 148.81 184.27 Z M 148.78 185.31 L 148.76 186.29 C 148.73 187.22 149.47 187.99 150.40 188.01 C 151.33 188.03 152.09 187.30 152.12 186.37 L 152.14 185.38 C 152.16 184.46 151.42 183.69 150.49 183.67 C 149.57 183.65 148.80 184.38 148.78 185.31 Z M 148.76 186.35 L 148.77 187.32 C 148.78 188.24 149.54 188.98 150.46 188.97 C 151.38 188.96 152.12 188.21 152.12 187.28 L 152.11 186.31 C 152.10 185.39 151.34 184.65 150.42 184.66 C 149.50 184.67 148.76 185.43 148.76 186.35 Z M 148.78 187.38 L 148.83 188.39 C 148.88 189.30 149.66 190.01 150.57 189.97 C 151.49 189.92 152.20 189.14 152.15 188.23 L 152.11 187.22 C 152.06 186.30 151.28 185.59 150.36 185.64 C 149.45 185.68 148.74 186.46 148.78 187.38 Z M 148.84 188.44 L 148.92 189.44 C 149.00 190.35 149.80 191.03 150.71 190.96 C 151.62 190.88 152.30 190.08 152.23 189.17 L 152.15 188.17 C 152.07 187.26 151.27 186.58 150.36 186.65 C 149.44 186.73 148.77 187.53 148.84 188.44 Z M 148.93 189.48 L 149.04 190.47 C 149.13 191.38 149.95 192.04 150.86 191.94 C 151.76 191.84 152.42 191.03 152.32 190.12 L 152.22 189.13 C 152.12 188.22 151.31 187.56 150.40 187.66 C 149.49 187.76 148.84 188.57 148.93 189.48 Z M 149.05 190.49 L 149.16 191.48 C 149.27 192.38 150.09 193.03 151.00 192.92 C 151.90 192.81 152.54 191.99 152.44 191.08 L 152.32 190.10 C 152.21 189.19 151.39 188.55 150.48 188.66 C 149.58 188.77 148.94 189.59 149.05 190.49 Z M 149.17 191.49 L 149.21 191.84 C 149.32 192.74 150.15 193.38 151.05 193.26 C 151.95 193.15 152.59 192.33 152.48 191.43 L 152.43 191.08 C 152.32 190.18 151.50 189.54 150.60 189.65 C 149.70 189.76 149.06 190.58 149.17 191.49 Z"
      fill="black"
      fill-rule="nonzero" /><path d="M 157.95 167.04 L 158.49 167.85 C 159.05 168.68 160.18 168.91 161.01 168.35 C 161.85 167.79 162.07 166.66 161.52 165.83 L 160.98 165.02 C 160.42 164.18 159.29 163.96 158.46 164.52 C 157.62 165.07 157.39 166.20 157.95 167.04 Z M 158.42 167.74 L 158.91 168.60 C 159.41 169.47 160.52 169.78 161.40 169.28 C 162.27 168.78 162.57 167.67 162.08 166.79 L 161.59 165.93 C 161.09 165.06 159.98 164.76 159.10 165.25 C 158.23 165.75 157.92 166.87 158.42 167.74 Z M 158.80 168.38 L 159.19 169.33 C 159.57 170.27 160.63 170.72 161.57 170.34 C 162.50 169.96 162.95 168.89 162.57 167.96 L 162.19 167.01 C 161.81 166.07 160.74 165.62 159.80 166.00 C 158.87 166.38 158.42 167.45 158.80 168.38 Z M 159.10 169.07 L 159.33 170.02 C 159.56 171.00 160.55 171.61 161.53 171.37 C 162.51 171.14 163.12 170.15 162.89 169.17 L 162.66 168.22 C 162.42 167.24 161.44 166.63 160.45 166.87 C 159.47 167.10 158.86 168.09 159.10 169.07 Z M 159.30 169.89 L 159.46 170.89 C 159.63 171.88 160.57 172.56 161.57 172.39 C 162.56 172.23 163.24 171.29 163.08 170.29 L 162.91 169.30 C 162.75 168.30 161.80 167.62 160.81 167.79 C 159.81 167.95 159.14 168.90 159.30 169.89 Z M 159.47 170.91 L 159.65 171.92 C 159.83 172.91 160.79 173.57 161.78 173.39 C 162.77 173.21 163.43 172.25 163.25 171.26 L 163.07 170.26 C 162.89 169.26 161.94 168.61 160.94 168.79 C 159.95 168.97 159.29 169.92 159.47 170.91 Z M 159.70 172.10 L 159.98 173.06 C 160.26 174.03 161.27 174.59 162.24 174.31 C 163.21 174.02 163.77 173.01 163.49 172.04 L 163.21 171.08 C 162.93 170.11 161.91 169.55 160.94 169.83 C 159.97 170.11 159.42 171.13 159.70 172.10 Z M 160.11 173.36 L 160.56 174.26 C 161.00 175.15 162.09 175.52 162.99 175.07 C 163.89 174.62 164.25 173.53 163.80 172.63 L 163.35 171.74 C 162.91 170.84 161.82 170.48 160.92 170.93 C 160.02 171.38 159.66 172.47 160.11 173.36 Z M 160.79 174.58 L 161.41 175.34 C 162.04 176.11 163.17 176.22 163.93 175.59 C 164.70 174.97 164.82 173.84 164.19 173.07 L 163.57 172.31 C 162.94 171.54 161.81 171.43 161.04 172.06 C 160.28 172.68 160.16 173.81 160.79 174.58 Z M 161.74 175.63 L 162.54 176.22 C 163.32 176.81 164.44 176.65 165.02 175.86 C 165.61 175.08 165.44 173.97 164.66 173.38 L 163.86 172.78 C 163.07 172.20 161.96 172.36 161.38 173.14 C 160.79 173.93 160.95 175.04 161.74 175.63 Z M 162.91 176.41 L 163.82 176.80 C 164.71 177.18 165.74 176.76 166.12 175.87 C 166.50 174.98 166.08 173.95 165.19 173.57 L 164.29 173.19 C 163.40 172.81 162.37 173.22 161.99 174.11 C 161.61 175.00 162.02 176.03 162.91 176.41 Z M 164.13 176.88 L 165.12 177.10 C 166.06 177.30 166.98 176.71 167.18 175.77 C 167.39 174.84 166.80 173.91 165.86 173.71 L 164.88 173.49 C 163.94 173.29 163.02 173.88 162.81 174.82 C 162.61 175.75 163.20 176.68 164.13 176.88 Z M 165.38 177.11 L 166.40 177.18 C 167.35 177.24 168.16 176.52 168.22 175.58 C 168.28 174.63 167.57 173.82 166.62 173.76 L 165.60 173.69 C 164.66 173.63 163.84 174.35 163.78 175.29 C 163.72 176.24 164.44 177.05 165.38 177.11 Z M 166.65 177.16 L 167.63 177.08 C 168.56 177.01 169.26 176.19 169.19 175.26 C 169.11 174.32 168.29 173.63 167.36 173.70 L 166.38 173.78 C 165.44 173.85 164.75 174.67 164.82 175.60 C 164.90 176.54 165.71 177.23 166.65 177.16 Z M 167.90 177.02 L 168.86 176.78 C 169.76 176.56 170.31 175.65 170.08 174.75 C 169.86 173.85 168.95 173.30 168.05 173.52 L 167.09 173.76 C 166.19 173.98 165.64 174.89 165.87 175.79 C 166.09 176.69 167.00 177.24 167.90 177.02 Z M 169.14 176.67 L 170.01 176.28 C 170.85 175.90 171.23 174.91 170.85 174.08 C 170.47 173.24 169.49 172.86 168.65 173.24 L 167.77 173.63 C 166.93 174.01 166.56 175.00 166.93 175.84 C 167.31 176.67 168.30 177.05 169.14 176.67 Z M 170.24 176.14 L 171.07 175.59 C 171.84 175.09 172.05 174.07 171.55 173.31 C 171.05 172.54 170.03 172.33 169.27 172.83 L 168.43 173.38 C 167.66 173.88 167.45 174.90 167.95 175.66 C 168.45 176.43 169.47 176.64 170.24 176.14 Z M 171.21 175.48 L 171.98 174.85 C 172.68 174.28 172.78 173.24 172.20 172.54 C 171.63 171.84 170.59 171.74 169.89 172.32 L 169.13 172.94 C 168.43 173.52 168.33 174.55 168.90 175.25 C 169.48 175.95 170.51 176.05 171.21 175.48 Z M 172.05 174.78 L 172.72 174.15 C 173.38 173.53 173.41 172.50 172.79 171.84 C 172.17 171.18 171.14 171.15 170.48 171.76 L 169.81 172.39 C 169.15 173.01 169.12 174.04 169.74 174.70 C 170.36 175.36 171.40 175.39 172.05 174.78 Z M 172.78 174.10 L 173.46 173.39 C 174.09 172.74 174.07 171.70 173.42 171.08 C 172.77 170.45 171.73 170.47 171.10 171.11 L 170.42 171.82 C 169.79 172.47 169.81 173.51 170.46 174.13 C 171.11 174.76 172.15 174.74 172.78 174.10 Z M 173.50 173.34 L 174.19 172.57 C 174.80 171.89 174.74 170.86 174.06 170.26 C 173.39 169.65 172.36 169.71 171.75 170.39 L 171.06 171.16 C 170.46 171.84 170.52 172.87 171.19 173.47 C 171.86 174.08 172.90 174.02 173.50 173.34 Z M 174.23 172.53 L 174.93 171.69 C 175.51 170.99 175.42 169.96 174.73 169.38 C 174.03 168.80 173.00 168.89 172.42 169.59 L 171.72 170.43 C 171.14 171.12 171.23 172.15 171.92 172.73 C 172.62 173.31 173.65 173.22 174.23 172.53 Z M 174.96 171.65 L 175.57 170.88 C 176.13 170.17 176.01 169.14 175.31 168.58 C 174.60 168.02 173.57 168.14 173.01 168.85 L 172.39 169.62 C 171.83 170.33 171.95 171.36 172.66 171.92 C 173.37 172.48 174.40 172.36 174.96 171.65 Z M 175.59 170.86 L 176.18 170.08 C 176.73 169.36 176.59 168.34 175.87 167.79 C 175.15 167.24 174.13 167.38 173.58 168.10 L 172.99 168.87 C 172.44 169.59 172.58 170.62 173.30 171.17 C 174.01 171.72 175.04 171.58 175.59 170.86 Z M 176.20 170.06 L 176.79 169.26 C 177.33 168.54 177.18 167.51 176.45 166.97 C 175.72 166.43 174.70 166.59 174.16 167.31 L 173.57 168.11 C 173.03 168.84 173.18 169.87 173.91 170.40 C 174.63 170.94 175.66 170.79 176.20 170.06 Z M 176.80 169.25 L 177.40 168.43 C 177.93 167.70 177.77 166.67 177.04 166.14 C 176.30 165.61 175.28 165.77 174.75 166.50 L 174.15 167.32 C 173.62 168.06 173.78 169.08 174.51 169.61 C 175.24 170.14 176.27 169.98 176.80 169.25 Z M 177.40 168.42 L 178.00 167.59 C 178.53 166.85 178.36 165.83 177.63 165.30 C 176.89 164.77 175.87 164.94 175.34 165.68 L 174.74 166.51 C 174.22 167.24 174.38 168.27 175.12 168.79 C 175.85 169.32 176.88 169.15 177.40 168.42 Z M 178.00 167.58 L 178.43 166.98 C 178.96 166.24 178.79 165.22 178.05 164.70 C 177.32 164.17 176.30 164.34 175.77 165.08 L 175.34 165.68 C 174.81 166.42 174.98 167.44 175.72 167.96 C 176.46 168.49 177.48 168.32 178.00 167.58 Z"
      fill="black"
      fill-rule="nonzero" /><path d="M 183.92 109.12 L 183.20 109.81 C 182.47 110.51 182.44 111.67 183.14 112.41 C 183.84 113.14 185.01 113.16 185.74 112.46 L 186.46 111.77 C 187.19 111.07 187.22 109.91 186.52 109.17 C 185.82 108.44 184.66 108.41 183.92 109.12 Z M 183.16 109.84 L 182.45 110.55 C 181.74 111.28 181.75 112.45 182.47 113.16 C 183.20 113.87 184.36 113.87 185.08 113.14 L 185.78 112.43 C 186.50 111.70 186.49 110.54 185.76 109.82 C 185.04 109.11 183.87 109.12 183.16 109.84 Z M 182.38 110.63 L 181.72 111.38 C 181.05 112.15 181.12 113.32 181.89 113.99 C 182.66 114.66 183.83 114.58 184.50 113.82 L 185.16 113.07 C 185.83 112.30 185.75 111.13 184.98 110.46 C 184.22 109.78 183.05 109.86 182.38 110.63 Z M 181.61 111.50 L 181.04 112.28 C 180.43 113.11 180.61 114.27 181.44 114.88 C 182.27 115.48 183.43 115.30 184.03 114.48 L 184.61 113.69 C 185.21 112.87 185.03 111.71 184.21 111.10 C 183.38 110.50 182.22 110.68 181.61 111.50 Z M 180.93 112.44 L 180.45 113.27 C 179.93 114.16 180.23 115.30 181.12 115.81 C 182.00 116.33 183.14 116.03 183.66 115.14 L 184.14 114.32 C 184.66 113.43 184.36 112.29 183.47 111.77 C 182.59 111.26 181.45 111.56 180.93 112.44 Z M 180.35 113.46 L 179.95 114.37 C 179.53 115.31 179.96 116.41 180.90 116.82 C 181.84 117.24 182.94 116.81 183.36 115.87 L 183.76 114.96 C 184.17 114.02 183.75 112.92 182.81 112.50 C 181.86 112.09 180.76 112.51 180.35 113.46 Z M 179.87 114.57 L 179.55 115.58 C 179.25 116.56 179.80 117.61 180.79 117.91 C 181.77 118.22 182.82 117.67 183.12 116.68 L 183.44 115.67 C 183.74 114.69 183.19 113.64 182.20 113.34 C 181.22 113.03 180.17 113.58 179.87 114.57 Z M 179.50 115.76 L 179.31 116.73 C 179.11 117.74 179.76 118.73 180.77 118.93 C 181.79 119.14 182.77 118.48 182.98 117.47 L 183.17 116.50 C 183.38 115.49 182.72 114.50 181.71 114.30 C 180.70 114.09 179.71 114.75 179.50 115.76 Z M 179.29 116.87 L 179.16 117.87 C 179.03 118.90 179.76 119.83 180.78 119.96 C 181.81 120.09 182.74 119.36 182.87 118.34 L 183.00 117.33 C 183.13 116.31 182.40 115.37 181.38 115.25 C 180.35 115.12 179.42 115.84 179.29 116.87 Z M 179.15 117.98 L 179.08 119.00 C 179.01 120.03 179.79 120.92 180.82 120.99 C 181.85 121.06 182.74 120.28 182.81 119.25 L 182.88 118.23 C 182.95 117.20 182.17 116.31 181.14 116.24 C 180.11 116.17 179.22 116.95 179.15 117.98 Z M 179.08 119.08 L 179.05 120.09 C 179.03 121.12 179.85 121.97 180.88 122.00 C 181.91 122.02 182.77 121.20 182.79 120.17 L 182.81 119.17 C 182.84 118.14 182.02 117.28 180.99 117.26 C 179.96 117.23 179.10 118.05 179.08 119.08 Z M 179.06 120.17 L 179.08 121.17 C 179.10 122.20 179.95 123.02 180.98 123.00 C 182.01 122.98 182.83 122.13 182.81 121.10 L 182.79 120.09 C 182.77 119.06 181.92 118.24 180.89 118.26 C 179.86 118.28 179.04 119.13 179.06 120.17 Z M 179.09 121.29 L 179.17 122.28 C 179.26 123.30 180.15 124.06 181.18 123.98 C 182.20 123.89 182.96 122.99 182.88 121.97 L 182.80 120.98 C 182.71 119.96 181.81 119.20 180.79 119.28 C 179.77 119.37 179.00 120.26 179.09 121.29 Z M 179.20 122.46 L 179.38 123.41 C 179.56 124.42 180.53 125.08 181.54 124.90 C 182.54 124.71 183.21 123.75 183.02 122.74 L 182.85 121.79 C 182.66 120.78 181.70 120.12 180.69 120.30 C 179.68 120.49 179.02 121.45 179.20 122.46 Z M 179.44 123.63 L 179.74 124.58 C 180.05 125.55 181.09 126.09 182.06 125.79 C 183.03 125.48 183.56 124.44 183.26 123.47 L 182.96 122.52 C 182.65 121.55 181.62 121.01 180.65 121.32 C 179.67 121.63 179.14 122.66 179.44 123.63 Z M 179.83 124.79 L 180.24 125.69 C 180.67 126.62 181.75 127.02 182.68 126.60 C 183.60 126.18 184.00 125.09 183.58 124.17 L 183.17 123.27 C 182.75 122.34 181.66 121.94 180.74 122.36 C 179.82 122.78 179.41 123.87 179.83 124.79 Z M 180.33 125.85 L 180.84 126.72 C 181.34 127.60 182.46 127.90 183.34 127.39 C 184.21 126.88 184.51 125.76 184.00 124.89 L 183.50 124.01 C 182.99 123.14 181.87 122.84 181.00 123.35 C 180.12 123.86 179.82 124.98 180.33 125.85 Z M 180.92 126.84 L 181.50 127.69 C 182.08 128.52 183.21 128.73 184.04 128.16 C 184.87 127.58 185.08 126.45 184.51 125.62 L 183.92 124.77 C 183.35 123.94 182.21 123.73 181.38 124.30 C 180.56 124.88 180.35 126.01 180.92 126.84 Z M 181.59 127.79 L 182.22 128.58 C 182.85 129.36 183.99 129.49 184.78 128.86 C 185.56 128.23 185.69 127.09 185.06 126.30 L 184.42 125.52 C 183.79 124.73 182.65 124.61 181.87 125.24 C 181.08 125.87 180.96 127.01 181.59 127.79 Z M 182.32 128.69 L 183.01 129.42 C 183.70 130.14 184.85 130.18 185.57 129.49 C 186.30 128.80 186.33 127.65 185.65 126.93 L 184.96 126.20 C 184.27 125.47 183.12 125.44 182.39 126.12 C 181.67 126.81 181.63 127.96 182.32 128.69 Z M 183.16 129.55 L 183.96 130.23 C 184.72 130.87 185.86 130.78 186.51 130.02 C 187.15 129.26 187.06 128.12 186.30 127.48 L 185.50 126.80 C 184.74 126.15 183.60 126.25 182.95 127.01 C 182.31 127.77 182.40 128.90 183.16 129.55 Z M 184.18 130.37 L 185.01 130.89 C 185.85 131.41 186.96 131.16 187.48 130.31 C 188.00 129.47 187.75 128.37 186.90 127.84 L 186.08 127.33 C 185.24 126.81 184.13 127.06 183.61 127.90 C 183.08 128.75 183.34 129.85 184.18 130.37 Z M 185.27 131.01 L 186.15 131.38 C 187.05 131.76 188.10 131.33 188.48 130.42 C 188.86 129.51 188.43 128.47 187.52 128.09 L 186.64 127.72 C 185.74 127.34 184.69 127.77 184.31 128.68 C 183.93 129.59 184.36 130.63 185.27 131.01 Z M 186.41 131.45 L 187.37 131.69 C 188.32 131.92 189.28 131.34 189.51 130.39 C 189.75 129.44 189.17 128.48 188.22 128.25 L 187.25 128.01 C 186.30 127.78 185.35 128.36 185.11 129.31 C 184.88 130.26 185.46 131.22 186.41 131.45 Z M 187.62 131.72 L 188.63 131.82 C 189.60 131.91 190.46 131.21 190.55 130.24 C 190.65 129.27 189.94 128.41 188.98 128.32 L 187.97 128.22 C 187.00 128.12 186.14 128.83 186.04 129.80 C 185.95 130.76 186.66 131.62 187.62 131.72 Z M 188.89 131.81 L 189.89 131.76 C 190.85 131.72 191.59 130.90 191.55 129.94 C 191.50 128.98 190.69 128.23 189.73 128.28 L 188.72 128.33 C 187.76 128.37 187.02 129.19 187.06 130.15 C 187.11 131.11 187.93 131.85 188.89 131.81 Z M 190.18 131.71 L 191.13 131.50 C 192.06 131.30 192.66 130.38 192.45 129.44 C 192.25 128.51 191.33 127.92 190.39 128.12 L 189.44 128.33 C 188.51 128.53 187.91 129.46 188.12 130.39 C 188.32 131.32 189.24 131.91 190.18 131.71 Z M 191.46 131.39 L 192.36 130.99 C 193.22 130.61 193.62 129.59 193.24 128.72 C 192.85 127.85 191.84 127.46 190.97 127.84 L 190.07 128.24 C 189.20 128.62 188.80 129.64 189.19 130.51 C 189.57 131.38 190.59 131.77 191.46 131.39 Z M 192.63 130.83 L 193.44 130.27 C 194.22 129.74 194.42 128.67 193.89 127.89 C 193.35 127.11 192.28 126.91 191.50 127.44 L 190.69 128.00 C 189.91 128.54 189.71 129.61 190.25 130.39 C 190.78 131.17 191.85 131.37 192.63 130.83 Z M 193.63 130.12 L 194.38 129.42 C 195.08 128.78 195.12 127.70 194.49 127.01 C 193.85 126.31 192.76 126.27 192.07 126.91 L 191.31 127.60 C 190.62 128.24 190.57 129.32 191.21 130.02 C 191.85 130.71 192.94 130.76 193.63 130.12 Z M 194.49 129.31 L 195.13 128.60 C 195.77 127.91 195.71 126.83 195.02 126.19 C 194.32 125.56 193.24 125.61 192.60 126.31 L 191.96 127.02 C 191.33 127.72 191.38 128.79 192.08 129.43 C 192.78 130.06 193.86 130.01 194.49 129.31 Z M 195.19 128.54 L 195.82 127.77 C 196.42 127.04 196.31 125.96 195.58 125.36 C 194.85 124.77 193.77 124.88 193.17 125.61 L 192.55 126.38 C 191.95 127.11 192.06 128.18 192.79 128.78 C 193.52 129.38 194.60 129.27 195.19 128.54 Z M 195.85 127.73 L 196.48 126.92 C 197.05 126.17 196.91 125.10 196.17 124.52 C 195.42 123.95 194.34 124.09 193.77 124.83 L 193.14 125.64 C 192.57 126.39 192.71 127.46 193.45 128.04 C 194.20 128.62 195.27 128.48 195.85 127.73 Z M 196.49 126.91 L 197.17 126.02 C 197.74 125.26 197.60 124.19 196.84 123.62 C 196.09 123.04 195.01 123.19 194.44 123.94 L 193.76 124.84 C 193.18 125.59 193.33 126.67 194.08 127.24 C 194.84 127.81 195.91 127.67 196.49 126.91 Z M 197.14 126.09 L 197.92 125.15 C 198.53 124.41 198.43 123.31 197.70 122.70 C 196.96 122.09 195.87 122.19 195.25 122.93 L 194.47 123.87 C 193.86 124.61 193.96 125.70 194.70 126.31 C 195.43 126.93 196.53 126.83 197.14 126.09 Z M 197.68 125.43 L 198.36 124.90 C 199.12 124.29 199.26 123.18 198.65 122.41 C 198.05 121.65 196.94 121.51 196.17 122.12 L 195.50 122.65 C 194.73 123.25 194.60 124.36 195.20 125.13 C 195.80 125.90 196.91 126.03 197.68 125.43 Z M 196.70 125.21 L 197.16 125.36 C 198.10 125.67 199.11 125.16 199.42 124.22 C 199.73 123.28 199.22 122.26 198.28 121.95 L 197.83 121.80 C 196.89 121.49 195.87 122.00 195.56 122.94 C 195.25 123.88 195.76 124.90 196.70 125.21 Z M 196.00 124.23 L 196.24 124.95 C 196.56 125.90 197.58 126.41 198.53 126.10 C 199.48 125.78 199.99 124.76 199.67 123.81 L 199.43 123.09 C 199.12 122.14 198.10 121.63 197.15 121.94 C 196.20 122.26 195.69 123.28 196.00 124.23 Z M 196.16 124.58 L 196.28 125.68 C 196.39 126.68 197.28 127.40 198.28 127.29 C 199.27 127.18 199.99 126.29 199.88 125.29 L 199.76 124.19 C 199.65 123.19 198.76 122.47 197.76 122.58 C 196.77 122.69 196.05 123.58 196.16 124.58 Z M 196.26 125.55 L 196.30 126.84 C 196.34 127.84 197.18 128.63 198.18 128.59 C 199.19 128.56 199.98 127.72 199.94 126.71 L 199.90 125.43 C 199.87 124.42 199.02 123.63 198.02 123.67 C 197.01 123.70 196.23 124.54 196.26 125.55 Z M 196.30 126.78 L 196.30 127.74 C 196.31 128.75 197.13 129.56 198.13 129.56 C 199.14 129.55 199.95 128.73 199.95 127.73 L 199.95 126.77 C 199.94 125.76 199.12 124.95 198.11 124.95 C 197.11 124.96 196.30 125.78 196.30 126.78 Z M 196.30 127.70 L 196.29 128.67 C 196.27 129.68 197.07 130.51 198.08 130.53 C 199.08 130.54 199.91 129.74 199.93 128.74 L 199.95 127.77 C 199.97 126.76 199.17 125.93 198.16 125.91 C 197.15 125.89 196.32 126.69 196.30 127.70 Z M 196.29 128.62 L 196.25 129.62 C 196.20 130.62 196.98 131.47 197.99 131.52 C 198.99 131.56 199.84 130.78 199.89 129.78 L 199.93 128.78 C 199.97 127.78 199.19 126.93 198.19 126.88 C 197.18 126.84 196.33 127.62 196.29 128.62 Z M 196.25 129.57 L 196.18 130.60 C 196.10 131.60 196.86 132.47 197.87 132.54 C 198.87 132.61 199.74 131.86 199.81 130.85 L 199.88 129.82 C 199.96 128.82 199.20 127.95 198.19 127.88 C 197.19 127.81 196.32 128.56 196.25 129.57 Z M 196.18 130.55 L 196.08 131.59 C 195.98 132.59 196.71 133.49 197.71 133.58 C 198.72 133.68 199.61 132.95 199.71 131.95 L 199.81 130.90 C 199.91 129.90 199.17 129.01 198.17 128.91 C 197.17 128.81 196.28 129.54 196.18 130.55 Z M 196.08 131.55 L 195.96 132.57 C 195.84 133.57 196.55 134.48 197.55 134.60 C 198.55 134.73 199.45 134.01 199.58 133.01 L 199.70 131.99 C 199.82 130.99 199.11 130.08 198.11 129.96 C 197.11 129.84 196.20 130.55 196.08 131.55 Z M 195.96 132.54 L 195.82 133.58 C 195.68 134.57 196.37 135.49 197.37 135.63 C 198.37 135.77 199.29 135.08 199.43 134.08 L 199.57 133.05 C 199.71 132.05 199.01 131.13 198.02 130.99 C 197.02 130.85 196.10 131.55 195.96 132.54 Z M 195.82 133.55 L 195.67 134.57 C 195.52 135.56 196.20 136.49 197.20 136.64 C 198.19 136.79 199.12 136.11 199.27 135.11 L 199.42 134.10 C 199.58 133.11 198.89 132.18 197.90 132.03 C 196.90 131.87 195.97 132.56 195.82 133.55 Z M 195.67 134.55 L 195.52 135.51 C 195.36 136.51 196.03 137.44 197.03 137.60 C 198.02 137.76 198.96 137.08 199.11 136.09 L 199.27 135.13 C 199.43 134.13 198.75 133.20 197.76 133.04 C 196.76 132.88 195.83 133.56 195.67 134.55 Z M 195.52 135.50 L 195.36 136.45 C 195.20 137.44 195.87 138.38 196.86 138.55 C 197.85 138.71 198.79 138.04 198.96 137.05 L 199.11 136.10 C 199.28 135.11 198.61 134.17 197.61 134.00 C 196.62 133.84 195.68 134.51 195.52 135.50 Z M 195.36 136.44 L 195.18 137.52 C 195.01 138.52 195.68 139.46 196.67 139.62 C 197.66 139.79 198.60 139.12 198.77 138.13 L 198.95 137.05 C 199.12 136.06 198.45 135.12 197.46 134.95 C 196.47 134.78 195.53 135.45 195.36 136.44 Z M 195.18 137.51 L 195.01 138.47 C 194.84 139.46 195.50 140.41 196.49 140.58 C 197.48 140.75 198.42 140.09 198.60 139.10 L 198.77 138.14 C 198.94 137.15 198.28 136.21 197.29 136.04 C 196.30 135.86 195.36 136.52 195.18 137.51 Z M 195.02 138.46 L 194.85 139.37 C 194.67 140.36 195.32 141.30 196.31 141.49 C 197.29 141.67 198.24 141.02 198.42 140.03 L 198.59 139.12 C 198.78 138.13 198.12 137.18 197.14 137.00 C 196.15 136.82 195.20 137.47 195.02 138.46 Z M 194.86 139.35 L 194.67 140.28 C 194.48 141.27 195.12 142.22 196.11 142.41 C 197.09 142.61 198.04 141.97 198.24 140.98 L 198.42 140.05 C 198.61 139.07 197.97 138.11 196.99 137.92 C 196.00 137.73 195.05 138.37 194.86 139.35 Z M 194.68 140.27 L 194.48 141.24 C 194.28 142.23 194.91 143.18 195.89 143.38 C 196.87 143.58 197.83 142.95 198.03 141.97 L 198.23 141.00 C 198.43 140.01 197.80 139.06 196.82 138.86 C 195.84 138.66 194.88 139.29 194.68 140.27 Z M 194.49 141.24 L 194.28 142.23 C 194.07 143.21 194.70 144.17 195.68 144.37 C 196.66 144.57 197.61 143.95 197.82 142.97 L 198.02 141.98 C 198.23 141.00 197.60 140.04 196.62 139.84 C 195.65 139.63 194.69 140.26 194.49 141.24 Z M 194.28 142.23 L 194.08 143.22 C 193.87 144.19 194.50 145.15 195.47 145.35 C 196.45 145.56 197.40 144.93 197.61 143.96 L 197.81 142.97 C 198.02 141.99 197.39 141.04 196.42 140.84 C 195.44 140.63 194.49 141.26 194.28 142.23 Z M 194.08 143.22 L 193.87 144.22 C 193.67 145.19 194.30 146.14 195.27 146.34 C 196.25 146.55 197.20 145.92 197.40 144.95 L 197.60 143.95 C 197.81 142.98 197.18 142.03 196.21 141.82 C 195.23 141.62 194.28 142.25 194.08 143.22 Z M 193.88 144.22 L 193.68 145.20 C 193.48 146.17 194.10 147.12 195.07 147.32 C 196.05 147.52 197.00 146.89 197.20 145.92 L 197.40 144.94 C 197.60 143.97 196.97 143.02 196.00 142.82 C 195.03 142.62 194.08 143.25 193.88 144.22 Z M 193.68 145.19 L 193.48 146.16 C 193.28 147.13 193.90 148.08 194.87 148.28 C 195.84 148.49 196.79 147.86 196.99 146.89 L 197.19 145.93 C 197.39 144.96 196.77 144.01 195.80 143.81 C 194.83 143.60 193.88 144.23 193.68 145.19 Z M 193.49 146.15 L 193.28 147.12 C 193.07 148.08 193.69 149.03 194.65 149.24 C 195.62 149.45 196.57 148.83 196.78 147.87 L 196.98 146.90 C 197.19 145.94 196.58 144.99 195.61 144.78 C 194.64 144.57 193.69 145.19 193.49 146.15 Z M 193.28 147.11 L 193.07 148.07 C 192.86 149.03 193.46 149.98 194.43 150.20 C 195.39 150.41 196.34 149.80 196.56 148.84 L 196.77 147.88 C 196.98 146.92 196.38 145.96 195.41 145.75 C 194.45 145.54 193.50 146.14 193.28 147.11 Z M 193.08 148.06 L 192.86 149.04 C 192.64 150.00 193.24 150.95 194.20 151.17 C 195.16 151.38 196.12 150.78 196.33 149.82 L 196.55 148.84 C 196.77 147.88 196.16 146.93 195.20 146.72 C 194.24 146.50 193.29 147.10 193.08 148.06 Z M 192.86 149.04 L 192.64 150.04 C 192.42 150.99 193.02 151.95 193.98 152.16 C 194.94 152.38 195.89 151.77 196.11 150.81 L 196.33 149.82 C 196.54 148.86 195.94 147.91 194.98 147.70 C 194.02 147.48 193.07 148.08 192.86 149.04 Z M 192.64 150.04 L 192.43 151.01 C 192.21 151.97 192.82 152.91 193.78 153.13 C 194.73 153.34 195.68 152.73 195.89 151.77 L 196.10 150.81 C 196.31 149.85 195.71 148.90 194.75 148.69 C 193.80 148.48 192.85 149.09 192.64 150.04 Z M 192.43 151.02 L 192.22 151.99 C 192.01 152.95 192.61 153.89 193.57 154.10 C 194.52 154.30 195.47 153.70 195.68 152.74 L 195.89 151.77 C 196.10 150.81 195.49 149.87 194.53 149.66 C 193.58 149.46 192.64 150.06 192.43 151.02 Z M 192.22 152.00 L 192.01 152.98 C 191.80 153.93 192.41 154.87 193.36 155.08 C 194.32 155.28 195.26 154.68 195.46 153.72 L 195.67 152.74 C 195.88 151.79 195.27 150.85 194.32 150.64 C 193.36 150.43 192.42 151.04 192.22 152.00 Z M 192.01 152.98 L 191.80 153.97 C 191.59 154.92 192.20 155.86 193.15 156.06 C 194.10 156.27 195.04 155.66 195.25 154.71 L 195.46 153.72 C 195.66 152.77 195.06 151.83 194.10 151.63 C 193.15 151.42 192.21 152.03 192.01 152.98 Z M 191.80 153.97 L 191.59 154.94 C 191.39 155.89 192.00 156.83 192.95 157.03 C 193.90 157.23 194.83 156.63 195.03 155.68 L 195.24 154.71 C 195.45 153.76 194.84 152.82 193.89 152.62 C 192.94 152.41 192.01 153.02 191.80 153.97 Z M 191.60 154.94 L 191.39 155.92 C 191.19 156.87 191.79 157.80 192.74 158.00 C 193.69 158.20 194.62 157.60 194.82 156.65 L 195.03 155.68 C 195.23 154.73 194.63 153.80 193.68 153.59 C 192.73 153.39 191.80 154.00 191.60 154.94 Z M 191.39 155.92 L 191.18 156.90 C 190.98 157.85 191.59 158.78 192.53 158.98 C 193.48 159.18 194.41 158.58 194.61 157.63 L 194.82 156.65 C 195.02 155.70 194.42 154.77 193.47 154.57 C 192.52 154.37 191.59 154.98 191.39 155.92 Z M 191.19 156.91 L 190.98 157.88 C 190.78 158.82 191.39 159.75 192.33 159.95 C 193.28 160.15 194.20 159.55 194.40 158.60 L 194.61 157.63 C 194.81 156.68 194.20 155.76 193.26 155.56 C 192.31 155.36 191.39 155.96 191.19 156.91 Z M 190.99 157.88 L 190.79 158.84 C 190.59 159.78 191.19 160.70 192.13 160.90 C 193.08 161.10 194.00 160.49 194.20 159.55 L 194.40 158.60 C 194.60 157.66 193.99 156.73 193.05 156.54 C 192.11 156.34 191.18 156.94 190.99 157.88 Z M 190.79 158.83 L 190.59 159.80 C 190.39 160.74 190.99 161.67 191.93 161.87 C 192.86 162.06 193.79 161.46 193.99 160.53 L 194.19 159.56 C 194.39 158.62 193.79 157.69 192.85 157.49 C 191.91 157.29 190.99 157.89 190.79 158.83 Z M 190.59 159.80 L 190.38 160.79 C 190.17 161.73 190.77 162.65 191.70 162.85 C 192.64 163.06 193.56 162.46 193.77 161.52 L 193.98 160.53 C 194.18 159.60 193.59 158.67 192.65 158.47 C 191.72 158.27 190.79 158.86 190.59 159.80 Z M 190.38 160.78 L 190.16 161.78 C 189.95 162.71 190.54 163.64 191.47 163.85 C 192.40 164.06 193.33 163.47 193.54 162.54 L 193.76 161.54 C 193.97 160.60 193.38 159.68 192.45 159.47 C 191.52 159.26 190.59 159.85 190.38 160.78 Z M 190.16 161.77 L 189.94 162.75 C 189.72 163.68 190.30 164.61 191.23 164.82 C 192.16 165.04 193.09 164.46 193.30 163.53 L 193.53 162.55 C 193.74 161.62 193.16 160.69 192.24 160.48 C 191.31 160.26 190.38 160.84 190.16 161.77 Z M 189.94 162.74 L 189.71 163.73 C 189.49 164.66 190.07 165.58 190.99 165.80 C 191.92 166.02 192.85 165.45 193.06 164.52 L 193.30 163.53 C 193.51 162.61 192.94 161.68 192.01 161.46 C 191.09 161.25 190.16 161.82 189.94 162.74 Z M 189.72 163.73 L 189.49 164.71 C 189.27 165.63 189.84 166.56 190.76 166.77 C 191.68 166.99 192.61 166.42 192.83 165.50 L 193.06 164.52 C 193.28 163.60 192.70 162.67 191.78 162.46 C 190.86 162.24 189.94 162.81 189.72 163.73 Z M 189.49 164.71 L 189.27 165.67 C 189.05 166.59 189.62 167.51 190.54 167.72 C 191.46 167.94 192.38 167.37 192.60 166.45 L 192.82 165.50 C 193.04 164.58 192.47 163.65 191.55 163.44 C 190.63 163.22 189.71 163.79 189.49 164.71 Z M 189.27 165.67 L 189.03 166.69 C 188.82 167.61 189.39 168.53 190.31 168.74 C 191.23 168.95 192.15 168.38 192.36 167.46 L 192.60 166.44 C 192.81 165.52 192.24 164.61 191.32 164.39 C 190.40 164.18 189.48 164.75 189.27 165.67 Z M 189.04 166.69 L 188.81 167.67 C 188.60 168.59 189.18 169.50 190.09 169.71 C 191.01 169.92 191.92 169.35 192.13 168.43 L 192.36 167.46 C 192.57 166.54 192.00 165.62 191.08 165.41 C 190.16 165.20 189.25 165.78 189.04 166.69 Z M 188.82 167.67 L 188.60 168.62 C 188.38 169.53 188.95 170.45 189.87 170.66 C 190.78 170.87 191.70 170.30 191.91 169.39 L 192.13 168.44 C 192.34 167.52 191.77 166.61 190.86 166.40 C 189.94 166.18 189.03 166.75 188.82 167.67 Z M 188.60 168.61 L 188.38 169.56 C 188.16 170.47 188.72 171.39 189.63 171.60 C 190.54 171.82 191.46 171.26 191.68 170.35 L 191.90 169.40 C 192.12 168.49 191.56 167.57 190.65 167.35 C 189.73 167.14 188.82 167.70 188.60 168.61 Z M 188.38 169.55 L 188.14 170.53 C 187.92 171.44 188.47 172.35 189.38 172.58 C 190.29 172.80 191.20 172.25 191.43 171.34 L 191.67 170.36 C 191.89 169.45 191.34 168.53 190.43 168.31 C 189.52 168.09 188.61 168.64 188.38 169.55 Z M 188.14 170.52 L 187.90 171.50 C 187.67 172.40 188.22 173.32 189.13 173.55 C 190.03 173.78 190.95 173.23 191.18 172.32 L 191.42 171.35 C 191.65 170.44 191.10 169.52 190.20 169.29 C 189.29 169.07 188.37 169.62 188.14 170.52 Z M 187.90 171.49 L 187.66 172.46 C 187.43 173.36 187.98 174.28 188.88 174.51 C 189.79 174.73 190.70 174.19 190.93 173.28 L 191.18 172.32 C 191.40 171.42 190.86 170.50 189.95 170.27 C 189.05 170.04 188.13 170.59 187.90 171.49 Z M 187.66 172.46 L 187.43 173.39 C 187.20 174.29 187.75 175.20 188.66 175.43 C 189.56 175.65 190.47 175.10 190.70 174.20 L 190.93 173.28 C 191.16 172.38 190.61 171.46 189.70 171.23 C 188.80 171.01 187.89 171.56 187.66 172.46 Z M 187.43 173.39 L 187.21 174.30 C 186.98 175.20 187.53 176.11 188.44 176.34 C 189.34 176.56 190.25 176.01 190.47 175.11 L 190.70 174.20 C 190.92 173.30 190.37 172.38 189.47 172.16 C 188.57 171.94 187.66 172.49 187.43 173.39 Z M 187.21 174.30 L 186.97 175.26 C 186.75 176.15 187.29 177.07 188.19 177.29 C 189.09 177.52 190.01 176.97 190.23 176.07 L 190.47 175.11 C 190.69 174.21 190.15 173.30 189.25 173.08 C 188.35 172.85 187.44 173.40 187.21 174.30 Z M 186.98 175.25 L 186.71 176.29 C 186.48 177.19 187.02 178.10 187.92 178.33 C 188.82 178.56 189.73 178.02 189.96 177.12 L 190.23 176.08 C 190.45 175.18 189.91 174.27 189.02 174.04 C 188.12 173.81 187.21 174.35 186.98 175.25 Z M 186.72 176.28 L 186.47 177.22 C 186.23 178.11 186.77 179.03 187.66 179.27 C 188.55 179.50 189.47 178.97 189.71 178.07 L 189.95 177.13 C 190.19 176.24 189.65 175.32 188.76 175.09 C 187.87 174.85 186.95 175.39 186.72 176.28 Z M 186.47 177.21 L 186.22 178.15 C 185.98 179.04 186.50 179.95 187.39 180.20 C 188.28 180.44 189.20 179.91 189.44 179.02 L 189.70 178.09 C 189.94 177.20 189.42 176.28 188.53 176.03 C 187.64 175.79 186.72 176.32 186.47 177.21 Z M 186.23 178.13 L 185.95 179.10 C 185.69 179.99 186.21 180.91 187.10 181.17 C 187.98 181.42 188.91 180.91 189.16 180.02 L 189.44 179.04 C 189.69 178.16 189.17 177.23 188.29 176.98 C 187.40 176.73 186.48 177.24 186.23 178.13 Z M 185.96 179.08 L 185.66 180.07 C 185.39 180.95 185.89 181.88 186.77 182.15 C 187.65 182.41 188.58 181.92 188.85 181.03 L 189.15 180.04 C 189.41 179.16 188.91 178.23 188.03 177.97 C 187.15 177.70 186.22 178.20 185.96 179.08 Z M 185.67 180.04 L 185.35 181.03 C 185.07 181.90 185.55 182.84 186.43 183.12 C 187.30 183.40 188.24 182.92 188.52 182.05 L 188.84 181.06 C 189.12 180.19 188.64 179.25 187.76 178.97 C 186.89 178.69 185.95 179.17 185.67 180.04 Z M 185.37 180.99 L 185.03 181.97 C 184.72 182.83 185.18 183.78 186.05 184.08 C 186.91 184.38 187.86 183.93 188.16 183.06 L 188.50 182.08 C 188.81 181.22 188.35 180.27 187.48 179.97 C 186.62 179.67 185.67 180.12 185.37 180.99 Z M 185.04 181.93 L 184.69 182.88 C 184.36 183.74 184.80 184.69 185.65 185.02 C 186.51 185.34 187.47 184.91 187.79 184.05 L 188.15 183.10 C 188.47 182.24 188.04 181.29 187.18 180.96 C 186.32 180.64 185.37 181.07 185.04 181.93 Z M 184.70 182.85 L 184.33 183.78 C 184.00 184.63 184.41 185.59 185.26 185.93 C 186.11 186.26 187.07 185.85 187.40 185.00 L 187.77 184.08 C 188.11 183.23 187.70 182.27 186.85 181.93 C 186.00 181.59 185.04 182.01 184.70 182.85 Z M 184.35 183.76 L 183.97 184.67 C 183.62 185.51 184.02 186.48 184.86 186.82 C 185.70 187.17 186.67 186.77 187.01 185.93 L 187.39 185.02 C 187.74 184.18 187.34 183.22 186.50 182.87 C 185.66 182.52 184.69 182.92 184.35 183.76 Z M 183.98 184.66 L 183.60 185.56 C 183.25 186.40 183.64 187.36 184.47 187.71 C 185.31 188.07 186.27 187.68 186.63 186.84 L 187.01 185.94 C 187.36 185.10 186.97 184.14 186.13 183.79 C 185.30 183.43 184.33 183.83 183.98 184.66 Z M 183.60 185.56 L 183.55 185.69 C 183.20 186.52 183.59 187.48 184.42 187.84 C 185.25 188.19 186.22 187.80 186.57 186.97 L 186.62 186.84 C 186.98 186.01 186.59 185.04 185.75 184.69 C 184.92 184.34 183.96 184.73 183.60 185.56 Z"
      fill="black"
      fill-rule="nonzero" /><path d="M 178.72 144.78 L 179.29 145.57 C 179.87 146.36 180.97 146.53 181.76 145.96 C 182.55 145.39 182.73 144.28 182.16 143.49 L 181.58 142.70 C 181.01 141.91 179.90 141.74 179.11 142.31 C 178.32 142.88 178.15 143.99 178.72 144.78 Z M 179.26 145.61 L 179.85 146.40 C 180.44 147.20 181.58 147.38 182.38 146.78 C 183.19 146.19 183.36 145.05 182.77 144.25 L 182.19 143.46 C 181.59 142.65 180.46 142.48 179.65 143.07 C 178.84 143.66 178.67 144.80 179.26 145.61 Z M 179.82 146.44 L 180.43 147.24 C 181.05 148.06 182.21 148.22 183.03 147.60 C 183.85 146.98 184.01 145.81 183.39 144.99 L 182.79 144.20 C 182.17 143.38 181.00 143.22 180.18 143.84 C 179.37 144.46 179.20 145.62 179.82 146.44 Z M 180.41 147.29 L 181.04 148.09 C 181.69 148.92 182.89 149.06 183.72 148.41 C 184.54 147.76 184.68 146.56 184.03 145.73 L 183.40 144.93 C 182.75 144.11 181.55 143.97 180.73 144.62 C 179.90 145.27 179.76 146.47 180.41 147.29 Z M 181.04 148.15 L 181.70 148.95 C 182.38 149.78 183.61 149.89 184.44 149.21 C 185.27 148.52 185.38 147.29 184.70 146.46 L 184.04 145.67 C 183.35 144.84 182.12 144.72 181.29 145.41 C 180.46 146.10 180.35 147.33 181.04 148.15 Z M 181.71 149.00 L 182.38 149.77 C 183.10 150.59 184.34 150.67 185.16 149.96 C 185.98 149.24 186.07 148.00 185.35 147.18 L 184.68 146.41 C 183.96 145.59 182.72 145.51 181.90 146.22 C 181.08 146.94 181.00 148.18 181.71 149.00 Z M 182.41 149.80 L 183.10 150.56 C 183.83 151.37 185.08 151.43 185.88 150.70 C 186.69 149.96 186.75 148.72 186.02 147.91 L 185.33 147.15 C 184.59 146.34 183.35 146.28 182.54 147.02 C 181.74 147.75 181.68 148.99 182.41 149.80 Z M 183.12 150.58 L 183.81 151.33 C 184.55 152.12 185.80 152.17 186.60 151.42 C 187.39 150.68 187.44 149.44 186.70 148.64 L 186.00 147.89 C 185.26 147.10 184.01 147.05 183.22 147.79 C 182.42 148.54 182.37 149.78 183.12 150.58 Z M 183.82 151.34 L 184.50 152.05 C 185.24 152.85 186.49 152.88 187.29 152.14 C 188.08 151.39 188.11 150.14 187.37 149.35 L 186.69 148.63 C 185.94 147.84 184.69 147.80 183.90 148.55 C 183.11 149.29 183.07 150.54 183.82 151.34 Z M 184.50 152.06 L 185.15 152.74 C 185.89 153.54 187.14 153.57 187.94 152.82 C 188.73 152.07 188.76 150.83 188.02 150.03 L 187.37 149.35 C 186.62 148.55 185.37 148.52 184.58 149.27 C 183.78 150.01 183.75 151.26 184.50 152.06 Z M 185.14 152.74 L 185.87 153.52 C 186.61 154.32 187.86 154.36 188.66 153.61 C 189.46 152.87 189.50 151.62 188.76 150.82 L 188.02 150.04 C 187.28 149.24 186.03 149.20 185.23 149.95 C 184.44 150.69 184.39 151.94 185.14 152.74 Z M 185.86 153.51 L 186.54 154.25 C 187.28 155.05 188.53 155.10 189.33 154.36 C 190.13 153.62 190.18 152.37 189.44 151.57 L 188.76 150.83 C 188.02 150.03 186.78 149.98 185.98 150.72 C 185.17 151.46 185.12 152.71 185.86 153.51 Z M 186.54 154.24 L 187.19 154.95 C 187.92 155.76 189.17 155.81 189.97 155.08 C 190.78 154.34 190.83 153.10 190.10 152.29 L 189.45 151.58 C 188.71 150.77 187.47 150.72 186.66 151.45 C 185.86 152.19 185.80 153.43 186.54 154.24 Z M 187.18 154.95 L 187.83 155.66 C 188.56 156.47 189.81 156.52 190.62 155.79 C 191.42 155.06 191.48 153.81 190.75 153.00 L 190.10 152.29 C 189.37 151.49 188.12 151.43 187.32 152.16 C 186.51 152.90 186.45 154.14 187.18 154.95 Z M 187.83 155.66 L 188.48 156.37 C 189.21 157.17 190.46 157.23 191.26 156.50 C 192.07 155.76 192.12 154.52 191.39 153.71 L 190.75 153.00 C 190.01 152.20 188.77 152.14 187.96 152.88 C 187.16 153.61 187.10 154.86 187.83 155.66 Z M 188.48 156.37 L 189.14 157.09 C 189.87 157.90 191.12 157.95 191.92 157.22 C 192.73 156.49 192.78 155.24 192.05 154.44 L 191.39 153.71 C 190.66 152.91 189.41 152.85 188.61 153.58 C 187.80 154.31 187.74 155.56 188.48 156.37 Z M 189.13 157.09 L 189.81 157.83 C 190.54 158.64 191.78 158.70 192.59 157.97 C 193.40 157.24 193.46 156.00 192.73 155.19 L 192.06 154.44 C 191.33 153.64 190.08 153.57 189.27 154.30 C 188.47 155.03 188.40 156.28 189.13 157.09 Z M 189.80 157.82 L 190.49 158.59 C 191.21 159.40 192.46 159.47 193.27 158.75 C 194.08 158.02 194.15 156.78 193.43 155.97 L 192.74 155.20 C 192.01 154.39 190.77 154.32 189.96 155.05 C 189.15 155.77 189.08 157.01 189.80 157.82 Z M 190.48 158.58 L 191.14 159.33 C 191.86 160.15 193.10 160.22 193.92 159.51 C 194.73 158.79 194.81 157.55 194.09 156.73 L 193.43 155.98 C 192.72 155.17 191.47 155.09 190.66 155.81 C 189.84 156.52 189.76 157.77 190.48 158.58 Z M 191.14 159.32 L 191.78 160.06 C 192.49 160.88 193.73 160.96 194.55 160.25 C 195.37 159.54 195.45 158.30 194.74 157.48 L 194.10 156.74 C 193.39 155.92 192.15 155.84 191.33 156.55 C 190.51 157.26 190.42 158.50 191.14 159.32 Z M 191.77 160.05 L 192.42 160.80 C 193.13 161.62 194.37 161.72 195.19 161.01 C 196.01 160.30 196.10 159.06 195.40 158.24 L 194.75 157.49 C 194.04 156.67 192.80 156.58 191.98 157.28 C 191.16 157.99 191.07 159.23 191.77 160.05 Z M 192.42 160.80 L 193.08 161.57 C 193.79 162.39 195.02 162.48 195.84 161.78 C 196.67 161.08 196.76 159.84 196.06 159.02 L 195.40 158.25 C 194.69 157.43 193.46 157.33 192.63 158.04 C 191.81 158.74 191.72 159.98 192.42 160.80 Z M 193.08 161.56 L 193.75 162.35 C 194.46 163.17 195.69 163.26 196.51 162.56 C 197.33 161.86 197.43 160.62 196.73 159.80 L 196.06 159.02 C 195.35 158.20 194.12 158.10 193.30 158.81 C 192.48 159.51 192.38 160.74 193.08 161.56 Z M 193.76 162.35 L 194.39 163.09 C 195.10 163.91 196.33 164.00 197.15 163.30 C 197.97 162.60 198.06 161.37 197.36 160.55 L 196.72 159.80 C 196.02 158.98 194.79 158.89 193.97 159.59 C 193.15 160.29 193.05 161.53 193.76 162.35 Z M 194.40 163.09 L 195.04 163.84 C 195.74 164.66 196.97 164.75 197.79 164.05 C 198.61 163.35 198.70 162.11 198.00 161.29 L 197.36 160.55 C 196.66 159.73 195.42 159.64 194.61 160.34 C 193.79 161.04 193.69 162.27 194.40 163.09 Z M 195.04 163.83 L 195.69 164.59 C 196.39 165.41 197.62 165.50 198.44 164.80 C 199.25 164.10 199.35 162.87 198.65 162.06 L 198.00 161.30 C 197.30 160.48 196.07 160.39 195.25 161.09 C 194.43 161.79 194.34 163.02 195.04 163.83 Z M 195.69 164.59 L 196.35 165.36 C 197.05 166.18 198.27 166.27 199.09 165.57 C 199.91 164.87 200.00 163.64 199.31 162.83 L 198.65 162.06 C 197.95 161.24 196.72 161.15 195.90 161.85 C 195.09 162.54 194.99 163.77 195.69 164.59 Z M 196.35 165.35 L 197.01 166.13 C 197.71 166.95 198.93 167.05 199.75 166.35 C 200.57 165.65 200.67 164.43 199.97 163.61 L 199.31 162.83 C 198.61 162.01 197.38 161.92 196.57 162.61 C 195.75 163.31 195.65 164.54 196.35 165.35 Z M 197.01 166.13 L 197.65 166.89 C 198.35 167.70 199.57 167.81 200.39 167.11 C 201.21 166.42 201.31 165.19 200.61 164.38 L 199.97 163.62 C 199.28 162.80 198.05 162.70 197.23 163.39 C 196.42 164.08 196.32 165.31 197.01 166.13 Z M 197.65 166.88 L 198.30 167.64 C 198.99 168.46 200.21 168.56 201.03 167.87 C 201.85 167.18 201.95 165.96 201.26 165.14 L 200.61 164.38 C 199.92 163.56 198.70 163.46 197.88 164.15 C 197.07 164.84 196.96 166.07 197.65 166.88 Z M 198.30 167.64 L 198.95 168.41 C 199.64 169.22 200.86 169.33 201.67 168.64 C 202.49 167.95 202.59 166.72 201.90 165.91 L 201.26 165.14 C 200.57 164.33 199.35 164.22 198.53 164.91 C 197.71 165.60 197.61 166.82 198.30 167.64 Z M 198.95 168.41 L 199.60 169.17 C 200.29 169.99 201.51 170.09 202.32 169.40 C 203.14 168.71 203.24 167.49 202.55 166.68 L 201.90 165.91 C 201.21 165.09 199.99 164.99 199.18 165.68 C 198.36 166.37 198.26 167.59 198.95 168.41 Z M 199.60 169.17 L 200.25 169.94 C 200.94 170.75 202.16 170.85 202.97 170.16 C 203.78 169.47 203.88 168.26 203.19 167.44 L 202.54 166.68 C 201.86 165.86 200.64 165.76 199.82 166.45 C 199.01 167.14 198.91 168.36 199.60 169.17 Z M 200.26 169.94 L 200.91 170.70 C 201.60 171.51 202.81 171.61 203.62 170.92 C 204.43 170.23 204.53 169.01 203.84 168.20 L 203.19 167.44 C 202.50 166.63 201.28 166.53 200.47 167.22 C 199.66 167.91 199.57 169.13 200.26 169.94 Z M 200.91 170.71 L 201.56 171.47 C 202.25 172.27 203.47 172.37 204.28 171.68 C 205.08 170.98 205.18 169.77 204.49 168.96 L 203.83 168.20 C 203.14 167.40 201.93 167.30 201.12 167.99 C 200.31 168.68 200.22 169.90 200.91 170.71 Z M 201.57 171.47 L 202.22 172.22 C 202.91 173.03 204.12 173.12 204.93 172.43 C 205.73 171.74 205.82 170.52 205.13 169.72 L 204.48 168.96 C 203.79 168.16 202.58 168.07 201.77 168.76 C 200.97 169.45 200.88 170.66 201.57 171.47 Z M 202.22 172.22 L 202.87 172.98 C 203.56 173.78 204.77 173.87 205.58 173.18 C 206.38 172.49 206.47 171.28 205.78 170.48 L 205.13 169.72 C 204.44 168.92 203.23 168.83 202.42 169.52 C 201.62 170.21 201.53 171.42 202.22 172.22 Z M 202.87 172.98 L 203.52 173.73 C 204.21 174.54 205.42 174.63 206.22 173.94 C 207.03 173.25 207.12 172.04 206.43 171.24 L 205.78 170.48 C 205.09 169.68 203.88 169.59 203.08 170.27 C 202.28 170.96 202.18 172.17 202.87 172.98 Z M 203.52 173.73 L 204.17 174.49 C 204.86 175.29 206.06 175.39 206.87 174.70 C 207.67 174.02 207.77 172.81 207.08 172.01 L 206.43 171.25 C 205.74 170.44 204.54 170.35 203.73 171.03 C 202.93 171.72 202.84 172.93 203.52 173.73 Z M 204.17 174.48 L 204.81 175.24 C 205.50 176.05 206.70 176.15 207.50 175.46 C 208.31 174.78 208.41 173.58 207.72 172.77 L 207.08 172.01 C 206.40 171.21 205.19 171.11 204.39 171.79 C 203.59 172.48 203.49 173.68 204.17 174.48 Z M 204.82 175.24 L 205.46 176.00 C 206.14 176.80 207.34 176.90 208.14 176.23 C 208.95 175.55 209.05 174.35 208.37 173.54 L 207.72 172.78 C 207.05 171.98 205.84 171.87 205.04 172.55 C 204.24 173.23 204.14 174.43 204.82 175.24 Z M 205.46 175.99 L 206.10 176.76 C 206.78 177.56 207.98 177.67 208.78 176.99 C 209.59 176.31 209.69 175.12 209.01 174.31 L 208.37 173.55 C 207.69 172.74 206.49 172.64 205.69 173.32 C 204.89 173.99 204.78 175.19 205.46 175.99 Z M 206.11 176.76 L 206.75 177.52 C 207.42 178.33 208.62 178.43 209.42 177.76 C 210.23 177.08 210.33 175.89 209.66 175.08 L 209.01 174.32 C 208.34 173.51 207.14 173.41 206.34 174.08 C 205.54 174.76 205.43 175.95 206.11 176.76 Z M 206.75 177.52 L 207.40 178.29 C 208.07 179.09 209.26 179.19 210.06 178.52 C 210.87 177.85 210.97 176.66 210.30 175.86 L 209.65 175.09 C 208.98 174.29 207.79 174.18 206.99 174.85 C 206.19 175.53 206.08 176.72 206.75 177.52 Z M 207.40 178.29 L 208.07 179.08 C 208.74 179.88 209.93 179.98 210.73 179.31 C 211.52 178.64 211.63 177.45 210.96 176.65 L 210.29 175.86 C 209.62 175.06 208.43 174.96 207.63 175.63 C 206.84 176.30 206.73 177.49 207.40 178.29 Z M 208.07 179.07 L 208.73 179.86 C 209.40 180.66 210.59 180.77 211.38 180.10 C 212.18 179.43 212.29 178.24 211.62 177.45 L 210.95 176.66 C 210.29 175.86 209.10 175.75 208.30 176.42 C 207.51 177.09 207.40 178.28 208.07 179.07 Z M 208.74 179.86 L 209.39 180.64 C 210.05 181.43 211.24 181.54 212.03 180.87 C 212.83 180.21 212.93 179.02 212.26 178.23 L 211.61 177.45 C 210.95 176.65 209.76 176.55 208.97 177.22 C 208.17 177.88 208.07 179.07 208.74 179.86 Z M 209.39 180.63 L 210.03 181.39 C 210.69 182.18 211.87 182.29 212.66 181.62 C 213.45 180.96 213.56 179.78 212.90 178.99 L 212.26 178.23 C 211.60 177.44 210.42 177.33 209.62 178.00 C 208.83 178.66 208.73 179.84 209.39 180.63 Z M 210.03 181.39 L 210.64 182.12 C 211.30 182.91 212.48 183.01 213.27 182.35 C 214.06 181.69 214.17 180.51 213.50 179.72 L 212.89 178.99 C 212.23 178.20 211.05 178.10 210.26 178.76 C 209.47 179.42 209.37 180.60 210.03 181.39 Z M 210.65 182.11 L 211.32 182.92 C 211.98 183.71 213.15 183.81 213.94 183.15 C 214.72 182.49 214.83 181.32 214.17 180.53 L 213.50 179.73 C 212.84 178.94 211.67 178.84 210.88 179.49 C 210.09 180.15 209.99 181.33 210.65 182.11 Z M 211.32 182.91 L 211.99 183.71 C 212.64 184.50 213.81 184.60 214.60 183.95 C 215.38 183.29 215.49 182.12 214.83 181.34 L 214.17 180.54 C 213.51 179.75 212.34 179.65 211.56 180.30 C 210.77 180.96 210.66 182.13 211.32 182.91 Z M 211.99 183.71 L 212.62 184.47 C 213.28 185.25 214.44 185.36 215.22 184.71 C 216.01 184.05 216.12 182.89 215.46 182.11 L 214.83 181.35 C 214.18 180.56 213.02 180.45 212.23 181.11 C 211.45 181.76 211.34 182.92 211.99 183.71 Z M 212.63 184.46 L 213.23 185.19 C 213.88 185.97 215.04 186.08 215.82 185.43 C 216.60 184.79 216.71 183.63 216.06 182.84 L 215.46 182.11 C 214.81 181.33 213.65 181.22 212.87 181.87 C 212.09 182.52 211.98 183.68 212.63 184.46 Z M 213.23 185.18 L 213.82 185.90 C 214.46 186.68 215.62 186.79 216.40 186.15 C 217.18 185.51 217.30 184.35 216.65 183.57 L 216.06 182.85 C 215.42 182.07 214.27 181.96 213.48 182.60 C 212.70 183.24 212.59 184.40 213.23 185.18 Z M 213.82 185.88 L 214.41 186.61 C 215.05 187.40 216.19 187.52 216.98 186.89 C 217.76 186.25 217.88 185.10 217.25 184.32 L 216.66 183.59 C 216.02 182.80 214.87 182.68 214.09 183.32 C 213.31 183.95 213.19 185.10 213.82 185.88 Z M 214.40 186.59 L 215.00 187.35 C 215.61 188.14 216.76 188.28 217.55 187.66 C 218.34 187.04 218.48 185.90 217.86 185.11 L 217.26 184.35 C 216.64 183.56 215.50 183.42 214.71 184.04 C 213.92 184.65 213.78 185.80 214.40 186.59 Z M 214.98 187.31 L 215.60 188.15 C 216.20 188.95 217.33 189.11 218.13 188.51 C 218.93 187.91 219.10 186.78 218.50 185.98 L 217.88 185.15 C 217.28 184.35 216.14 184.18 215.34 184.78 C 214.54 185.38 214.38 186.51 214.98 187.31 Z M 215.58 188.11 L 216.18 188.96 C 216.76 189.77 217.89 189.96 218.70 189.38 C 219.51 188.80 219.70 187.68 219.12 186.87 L 218.52 186.02 C 217.94 185.21 216.81 185.02 216.00 185.59 C 215.19 186.17 215.00 187.30 215.58 188.11 Z M 216.17 188.92 L 216.71 189.72 C 217.27 190.54 218.39 190.75 219.21 190.19 C 220.03 189.63 220.24 188.52 219.68 187.70 L 219.14 186.90 C 218.58 186.08 217.46 185.87 216.64 186.43 C 215.82 186.98 215.61 188.10 216.17 188.92 Z M 216.70 189.69 L 217.25 190.53 C 217.79 191.36 218.90 191.60 219.73 191.06 C 220.56 190.52 220.79 189.41 220.25 188.58 L 219.70 187.73 C 219.16 186.90 218.05 186.67 217.22 187.21 C 216.39 187.75 216.16 188.86 216.70 189.69 Z M 217.24 190.50 L 217.78 191.37 C 218.30 192.21 219.40 192.47 220.24 191.95 C 221.07 191.43 221.33 190.33 220.81 189.49 L 220.26 188.62 C 219.74 187.78 218.64 187.52 217.81 188.04 C 216.97 188.56 216.72 189.66 217.24 190.50 Z M 217.76 191.33 L 218.28 192.22 C 218.78 193.06 219.86 193.35 220.71 192.85 C 221.56 192.35 221.84 191.27 221.35 190.42 L 220.83 189.53 C 220.33 188.69 219.24 188.40 218.40 188.90 C 217.55 189.40 217.27 190.48 217.76 191.33 Z M 218.26 192.16 L 218.74 193.05 C 219.21 193.91 220.28 194.23 221.14 193.76 C 222.00 193.30 222.32 192.22 221.85 191.37 L 221.37 190.47 C 220.90 189.61 219.83 189.30 218.97 189.76 C 218.11 190.23 217.79 191.30 218.26 192.16 Z M 218.72 192.98 L 219.19 193.94 C 219.61 194.81 220.67 195.17 221.54 194.75 C 222.41 194.32 222.77 193.27 222.34 192.39 L 221.88 191.44 C 221.45 190.57 220.40 190.20 219.53 190.63 C 218.65 191.06 218.29 192.11 218.72 192.98 Z M 219.16 193.85 L 219.56 194.78 C 219.93 195.66 220.96 196.08 221.84 195.70 C 222.73 195.33 223.14 194.30 222.76 193.42 L 222.37 192.49 C 221.99 191.60 220.97 191.19 220.08 191.56 C 219.20 191.94 218.79 192.96 219.16 193.85 Z M 219.54 194.68 L 219.86 195.60 C 220.18 196.49 221.17 196.96 222.07 196.64 C 222.97 196.32 223.43 195.34 223.11 194.44 L 222.79 193.52 C 222.47 192.62 221.48 192.15 220.58 192.47 C 219.68 192.79 219.22 193.78 219.54 194.68 Z M 219.84 195.49 L 220.10 196.40 C 220.36 197.31 221.31 197.84 222.22 197.58 C 223.13 197.32 223.65 196.37 223.39 195.46 L 223.13 194.55 C 222.87 193.64 221.93 193.11 221.02 193.37 C 220.11 193.63 219.59 194.58 219.84 195.49 Z M 220.09 196.28 L 220.29 197.24 C 220.49 198.15 221.39 198.74 222.30 198.54 C 223.22 198.35 223.80 197.45 223.61 196.53 L 223.41 195.58 C 223.21 194.66 222.31 194.08 221.40 194.27 C 220.48 194.47 219.90 195.37 220.09 196.28 Z M 220.29 197.13 L 220.44 198.12 C 220.57 199.04 221.43 199.67 222.35 199.53 C 223.27 199.40 223.90 198.54 223.76 197.62 L 223.62 196.64 C 223.48 195.72 222.62 195.08 221.70 195.22 C 220.78 195.36 220.15 196.21 220.29 197.13 Z M 220.44 198.04 L 220.54 199.04 C 220.64 199.95 221.46 200.62 222.37 200.52 C 223.29 200.43 223.96 199.61 223.86 198.69 L 223.76 197.70 C 223.66 196.78 222.84 196.11 221.93 196.21 C 221.01 196.30 220.34 197.12 220.44 198.04 Z M 220.55 198.99 L 220.62 199.99 C 220.69 200.90 221.49 201.58 222.40 201.52 C 223.31 201.45 224.00 200.65 223.93 199.74 L 223.85 198.74 C 223.79 197.83 222.99 197.14 222.08 197.21 C 221.17 197.28 220.48 198.07 220.55 198.99 Z M 220.63 199.97 L 220.68 200.76 C 220.74 201.66 221.52 202.35 222.43 202.30 C 223.34 202.24 224.03 201.46 223.97 200.55 L 223.92 199.76 C 223.86 198.85 223.08 198.16 222.17 198.22 C 221.27 198.28 220.58 199.06 220.63 199.97 Z"
      fill="black"
      fill-rule="nonzero" /></svg>