<svg xmlns="http://www.w3.org/2000/svg" width="300" height="300" viewBox="0 0 300 300">
<path d="M 122.75 86.23 L 122.32 87.16 C 121.92 88.03 122.29 89.06 123.16 89.46 C 124.03 89.86 125.06 89.48 125.47 88.61 L 125.89 87.69 C 126.30 86.82 125.92 85.79 125.05 85.39 C 124.18 84.98 123.15 85.36 122.75 86.23 Z M 122.32 87.14 L 121.89 88.06 C 121.48 88.93 121.85 89.96 122.72 90.37 C 123.59 90.78 124.63 90.41 125.04 89.54 L 125.47 88.63 C 125.88 87.76 125.50 86.72 124.63 86.31 C 123.76 85.90 122.73 86.27 122.32 87.14 Z M 121.89 88.03 L 121.46 88.93 C 121.04 89.79 121.40 90.84 122.26 91.26 C 123.13 91.68 124.17 91.32 124.60 90.45 L 125.03 89.56 C 125.45 88.70 125.09 87.65 124.23 87.23 C 123.36 86.81 122.32 87.17 121.89 88.03 Z M 121.47 88.89 L 121.02 89.77 C 120.58 90.63 120.92 91.68 121.78 92.12 C 122.64 92.56 123.69 92.22 124.14 91.36 L 124.58 90.49 C 125.03 89.63 124.69 88.58 123.83 88.13 C 122.97 87.69 121.91 88.03 121.47 88.89 Z M 121.03 89.73 L 120.56 90.61 C 120.10 91.46 120.42 92.53 121.27 92.99 C 122.12 93.45 123.19 93.13 123.65 92.28 L 124.12 91.40 C 124.58 90.55 124.27 89.48 123.41 89.02 C 122.56 88.56 121.50 88.88 121.03 89.73 Z M 120.56 90.60 L 120.08 91.47 C 119.62 92.33 119.93 93.39 120.79 93.86 C 121.64 94.32 122.71 94.01 123.18 93.15 L 123.65 92.29 C 124.11 91.43 123.80 90.36 122.95 89.90 C 122.09 89.43 121.02 89.75 120.56 90.60 Z M 120.07 91.50 L 119.60 92.39 C 119.15 93.25 119.49 94.32 120.35 94.77 C 121.21 95.22 122.28 94.88 122.73 94.02 L 123.20 93.13 C 123.65 92.27 123.31 91.20 122.45 90.75 C 121.58 90.30 120.52 90.63 120.07 91.50 Z M 119.57 92.44 L 119.15 93.33 C 118.72 94.21 119.10 95.27 119.98 95.69 C 120.86 96.11 121.92 95.73 122.34 94.85 L 122.76 93.96 C 123.19 93.08 122.81 92.03 121.93 91.60 C 121.05 91.18 119.99 91.56 119.57 92.44 Z M 119.10 93.41 L 118.72 94.33 C 118.35 95.23 118.78 96.27 119.68 96.65 C 120.59 97.02 121.62 96.59 122.00 95.69 L 122.38 94.77 C 122.76 93.87 122.33 92.83 121.42 92.45 C 120.52 92.08 119.48 92.50 119.10 93.41 Z M 118.68 94.44 L 118.35 95.39 C 118.04 96.32 118.54 97.33 119.47 97.65 C 120.40 97.96 121.41 97.46 121.72 96.53 L 122.04 95.58 C 122.36 94.65 121.86 93.64 120.93 93.32 C 120.00 93.01 118.99 93.51 118.68 94.44 Z M 118.31 95.54 L 118.07 96.52 C 117.83 97.48 118.41 98.44 119.37 98.68 C 120.32 98.91 121.29 98.33 121.52 97.38 L 121.77 96.39 C 122.00 95.43 121.42 94.47 120.46 94.23 C 119.51 94.00 118.54 94.58 118.31 95.54 Z M 118.03 96.71 L 117.88 97.79 C 117.75 98.76 118.43 99.66 119.41 99.79 C 120.39 99.92 121.28 99.24 121.42 98.26 L 121.56 97.19 C 121.69 96.21 121.01 95.31 120.03 95.18 C 119.06 95.05 118.16 95.74 118.03 96.71 Z M 117.87 98.04 L 117.88 99.08 C 117.89 100.06 118.69 100.85 119.68 100.84 C 120.66 100.83 121.45 100.03 121.44 99.04 L 121.43 98.01 C 121.42 97.02 120.62 96.23 119.63 96.24 C 118.65 96.25 117.86 97.06 117.87 98.04 Z M 117.92 99.45 L 118.13 100.37 C 118.34 101.33 119.30 101.93 120.26 101.72 C 121.22 101.50 121.82 100.55 121.61 99.59 L 121.40 98.67 C 121.18 97.71 120.23 97.11 119.27 97.32 C 118.31 97.54 117.70 98.49 117.92 99.45 Z M 118.35 100.92 L 118.82 101.67 C 119.34 102.51 120.44 102.77 121.27 102.25 C 122.11 101.73 122.37 100.63 121.85 99.80 L 121.38 99.04 C 120.86 98.20 119.76 97.94 118.93 98.46 C 118.09 98.98 117.83 100.08 118.35 100.92 Z M 119.29 102.18 L 120.06 102.73 C 120.86 103.31 121.97 103.13 122.54 102.33 C 123.12 101.53 122.94 100.42 122.14 99.84 L 121.38 99.29 C 120.58 98.72 119.47 98.90 118.89 99.69 C 118.32 100.49 118.50 101.61 119.29 102.18 Z M 120.49 102.96 L 121.44 103.31 C 122.37 103.65 123.39 103.17 123.72 102.25 C 124.06 101.33 123.59 100.31 122.67 99.97 L 121.71 99.62 C 120.79 99.28 119.77 99.75 119.43 100.68 C 119.09 101.60 119.56 102.62 120.49 102.96 Z M 121.70 103.38 L 122.71 103.58 C 123.67 103.78 124.61 103.16 124.80 102.19 C 125.00 101.23 124.38 100.30 123.42 100.10 L 122.41 99.90 C 121.45 99.70 120.51 100.32 120.31 101.28 C 120.12 102.25 120.74 103.18 121.70 103.38 Z M 122.85 103.61 L 123.78 103.72 C 124.76 103.83 125.64 103.14 125.76 102.16 C 125.87 101.19 125.18 100.31 124.20 100.19 L 123.27 100.08 C 122.30 99.96 121.42 100.66 121.30 101.63 C 121.18 102.61 121.88 103.49 122.85 103.61 Z M 123.88 103.73 L 124.86 103.79 C 125.84 103.85 126.69 103.10 126.75 102.13 C 126.81 101.15 126.07 100.30 125.09 100.24 L 124.10 100.18 C 123.13 100.12 122.28 100.86 122.22 101.84 C 122.16 102.82 122.90 103.66 123.88 103.73 Z M 124.93 103.79 L 125.99 103.81 C 126.97 103.84 127.78 103.06 127.80 102.08 C 127.83 101.10 127.05 100.28 126.07 100.26 L 125.02 100.24 C 124.04 100.22 123.22 100.99 123.20 101.97 C 123.18 102.95 123.95 103.77 124.93 103.79 Z M 126.03 103.82 L 127.06 103.82 C 128.04 103.82 128.83 103.02 128.83 102.04 C 128.83 101.06 128.04 100.26 127.06 100.26 L 126.03 100.26 C 125.04 100.26 124.25 101.06 124.25 102.04 C 124.25 103.02 125.05 103.82 126.03 103.82 Z M 127.09 103.81 L 128.09 103.79 C 129.07 103.78 129.85 102.96 129.83 101.98 C 129.81 101.00 129.00 100.22 128.02 100.24 L 127.02 100.26 C 126.04 100.28 125.26 101.09 125.28 102.07 C 125.30 103.05 126.11 103.83 127.09 103.81 Z M 128.14 103.79 L 129.16 103.74 C 130.14 103.70 130.90 102.86 130.85 101.88 C 130.80 100.90 129.97 100.15 128.99 100.20 L 127.97 100.24 C 126.99 100.29 126.24 101.12 126.28 102.10 C 126.33 103.08 127.16 103.84 128.14 103.79 Z M 129.23 103.74 L 130.24 103.65 C 131.22 103.56 131.94 102.70 131.85 101.73 C 131.77 100.75 130.91 100.03 129.93 100.11 L 128.92 100.20 C 127.94 100.29 127.22 101.15 127.31 102.12 C 127.39 103.10 128.25 103.82 129.23 103.74 Z M 130.34 103.64 L 131.32 103.50 C 132.29 103.36 132.96 102.46 132.82 101.49 C 132.68 100.52 131.78 99.85 130.81 99.98 L 129.84 100.12 C 128.87 100.26 128.19 101.16 128.33 102.13 C 128.47 103.10 129.37 103.78 130.34 103.64 Z M 131.44 103.47 L 132.45 103.25 C 133.41 103.05 134.01 102.10 133.81 101.14 C 133.60 100.19 132.65 99.58 131.70 99.79 L 130.69 100.01 C 129.73 100.22 129.12 101.16 129.33 102.12 C 129.54 103.08 130.49 103.68 131.44 103.47 Z M 132.58 103.22 L 133.53 102.94 C 134.47 102.66 135.00 101.67 134.73 100.74 C 134.45 99.80 133.46 99.26 132.52 99.54 L 131.57 99.82 C 130.63 100.10 130.10 101.09 130.37 102.02 C 130.65 102.96 131.64 103.50 132.58 103.22 Z M 133.63 102.90 L 134.55 102.57 C 135.47 102.24 135.95 101.22 135.61 100.30 C 135.28 99.38 134.26 98.91 133.34 99.24 L 132.42 99.57 C 131.50 99.91 131.03 100.92 131.36 101.84 C 131.69 102.76 132.71 103.24 133.63 102.90 Z M 134.62 102.54 L 135.53 102.16 C 136.44 101.79 136.87 100.76 136.50 99.86 C 136.12 98.95 135.09 98.52 134.19 98.89 L 133.27 99.27 C 132.37 99.64 131.94 100.68 132.31 101.58 C 132.68 102.48 133.72 102.91 134.62 102.54 Z M 135.57 102.15 L 136.44 101.76 C 137.34 101.37 137.74 100.32 137.35 99.43 C 136.95 98.54 135.91 98.13 135.01 98.53 L 134.15 98.91 C 133.25 99.31 132.85 100.35 133.24 101.24 C 133.64 102.14 134.68 102.54 135.57 102.15 Z M 136.47 101.75 L 137.36 101.33 C 138.25 100.92 138.63 99.87 138.22 98.99 C 137.81 98.10 136.76 97.72 135.87 98.13 L 134.98 98.54 C 134.10 98.95 133.72 100.01 134.13 100.89 C 134.54 101.78 135.59 102.16 136.47 101.75 Z M 137.39 101.32 L 138.30 100.88 C 139.17 100.45 139.54 99.40 139.11 98.52 C 138.69 97.64 137.63 97.28 136.75 97.70 L 135.84 98.14 C 134.97 98.57 134.60 99.63 135.03 100.50 C 135.45 101.38 136.51 101.75 137.39 101.32 Z M 138.32 100.87 L 139.25 100.40 C 140.12 99.96 140.47 98.90 140.03 98.03 C 139.59 97.16 138.53 96.81 137.66 97.24 L 136.73 97.71 C 135.86 98.15 135.51 99.21 135.95 100.09 C 136.39 100.96 137.45 101.31 138.32 100.87 Z M 139.27 100.39 L 140.11 99.95 C 140.98 99.50 141.32 98.44 140.87 97.57 C 140.42 96.71 139.35 96.37 138.49 96.82 L 137.64 97.25 C 136.78 97.70 136.44 98.77 136.89 99.63 C 137.34 100.50 138.40 100.84 139.27 100.39 Z M 140.13 99.94 L 140.95 99.50 C 141.81 99.05 142.14 97.98 141.68 97.12 C 141.22 96.26 140.16 95.93 139.30 96.39 L 138.47 96.83 C 137.61 97.28 137.29 98.35 137.74 99.21 C 138.20 100.07 139.27 100.40 140.13 99.94 Z M 140.97 99.49 L 141.82 99.03 C 142.68 98.56 142.99 97.49 142.53 96.64 C 142.06 95.78 140.99 95.47 140.14 95.93 L 139.28 96.40 C 138.43 96.86 138.11 97.93 138.58 98.79 C 139.04 99.64 140.11 99.96 140.97 99.49 Z M 141.84 99.02 L 142.73 98.52 C 143.58 98.04 143.88 96.97 143.41 96.12 C 142.94 95.27 141.86 94.97 141.01 95.44 L 140.12 95.94 C 139.27 96.42 138.97 97.49 139.44 98.34 C 139.92 99.19 140.99 99.49 141.84 99.02 Z M 142.75 98.51 L 143.68 97.97 C 144.53 97.49 144.82 96.41 144.34 95.57 C 143.85 94.73 142.78 94.44 141.94 94.92 L 141.00 95.45 C 140.16 95.94 139.86 97.01 140.35 97.85 C 140.83 98.70 141.90 98.99 142.75 98.51 Z M 143.70 97.96 L 144.58 97.45 C 145.42 96.96 145.70 95.88 145.21 95.04 C 144.72 94.20 143.65 93.92 142.81 94.41 L 141.92 94.93 C 141.09 95.42 140.80 96.49 141.29 97.33 C 141.78 98.17 142.86 98.45 143.70 97.96 Z M 144.59 97.44 L 145.42 96.95 C 146.25 96.45 146.53 95.38 146.04 94.54 C 145.54 93.71 144.46 93.43 143.63 93.92 L 142.80 94.42 C 141.96 94.91 141.69 95.99 142.18 96.82 C 142.68 97.66 143.75 97.93 144.59 97.44 Z M 145.42 96.94 L 146.28 96.44 C 147.11 95.94 147.38 94.86 146.89 94.03 C 146.39 93.20 145.32 92.92 144.48 93.42 L 143.63 93.93 C 142.79 94.42 142.52 95.50 143.02 96.33 C 143.51 97.17 144.59 97.44 145.42 96.94 Z M 146.27 96.44 L 147.15 95.92 C 147.98 95.43 148.26 94.35 147.76 93.52 C 147.27 92.68 146.19 92.41 145.36 92.90 L 144.49 93.42 C 143.65 93.91 143.38 94.99 143.87 95.82 C 144.37 96.65 145.44 96.93 146.27 96.44 Z M 147.14 95.92 L 148.02 95.40 C 148.86 94.92 149.14 93.84 148.65 93.01 C 148.16 92.17 147.09 91.89 146.25 92.38 L 145.37 92.90 C 144.53 93.39 144.25 94.46 144.74 95.30 C 145.23 96.13 146.30 96.41 147.14 95.92 Z M 148.01 95.41 L 148.90 94.90 C 149.74 94.42 150.02 93.35 149.54 92.51 C 149.06 91.67 147.99 91.38 147.15 91.86 L 146.26 92.37 C 145.43 92.86 145.14 93.93 145.62 94.77 C 146.10 95.60 147.17 95.89 148.01 95.41 Z M 148.88 94.91 L 149.77 94.41 C 150.62 93.94 150.92 92.87 150.45 92.03 C 149.98 91.18 148.91 90.88 148.07 91.35 L 147.17 91.85 C 146.33 92.33 146.02 93.39 146.50 94.24 C 146.97 95.08 148.04 95.38 148.88 94.91 Z M 149.75 94.42 L 150.72 93.90 C 151.57 93.44 151.89 92.38 151.43 91.53 C 150.97 90.68 149.91 90.36 149.06 90.82 L 148.09 91.34 C 147.24 91.80 146.92 92.86 147.38 93.71 C 147.84 94.56 148.90 94.88 149.75 94.42 Z M 150.68 93.91 L 151.63 93.43 C 152.49 92.99 152.83 91.93 152.39 91.08 C 151.95 90.22 150.90 89.88 150.04 90.32 L 149.09 90.81 C 148.23 91.25 147.89 92.30 148.33 93.16 C 148.77 94.02 149.83 94.35 150.68 93.91 Z M 151.59 93.45 L 152.52 93.00 C 153.38 92.58 153.75 91.54 153.33 90.67 C 152.91 89.80 151.86 89.44 151.00 89.86 L 150.08 90.30 C 149.21 90.72 148.84 91.76 149.26 92.63 C 149.68 93.50 150.73 93.86 151.59 93.45 Z M 152.47 93.02 L 153.36 92.62 C 154.24 92.23 154.63 91.20 154.23 90.32 C 153.84 89.44 152.81 89.05 151.93 89.44 L 151.04 89.84 C 150.16 90.23 149.77 91.26 150.16 92.14 C 150.56 93.02 151.59 93.41 152.47 93.02 Z M 153.30 92.65 L 154.15 92.30 C 155.04 91.94 155.47 90.92 155.10 90.03 C 154.74 89.14 153.73 88.71 152.83 89.07 L 151.99 89.42 C 151.10 89.78 150.67 90.80 151.03 91.69 C 151.39 92.58 152.41 93.01 153.30 92.65 Z M 154.07 92.33 L 155.00 92.00 C 155.91 91.69 156.38 90.69 156.06 89.78 C 155.75 88.88 154.75 88.40 153.85 88.72 L 152.91 89.04 C 152.01 89.36 151.53 90.36 151.85 91.26 C 152.17 92.17 153.16 92.65 154.07 92.33 Z M 154.87 92.04 L 155.95 91.75 C 156.88 91.51 157.43 90.55 157.18 89.62 C 156.93 88.69 155.97 88.14 155.05 88.39 L 153.97 88.68 C 153.04 88.93 152.49 89.88 152.74 90.81 C 152.99 91.74 153.94 92.29 154.87 92.04 Z M 155.77 91.79 L 156.75 91.64 C 157.70 91.49 158.35 90.59 158.20 89.64 C 158.05 88.69 157.15 88.04 156.20 88.19 L 155.22 88.35 C 154.27 88.50 153.62 89.40 153.77 90.35 C 153.93 91.30 154.82 91.95 155.77 91.79 Z M 156.53 91.66 L 157.43 91.63 C 158.40 91.60 159.15 90.79 159.12 89.83 C 159.09 88.87 158.29 88.11 157.32 88.14 L 156.42 88.17 C 155.46 88.20 154.70 89.01 154.73 89.97 C 154.76 90.94 155.57 91.69 156.53 91.66 Z M 157.16 91.62 L 158.10 91.74 C 159.06 91.86 159.93 91.18 160.05 90.22 C 160.17 89.26 159.49 88.39 158.53 88.27 L 157.59 88.15 C 156.63 88.03 155.76 88.71 155.64 89.67 C 155.52 90.63 156.21 91.50 157.16 91.62 Z M 157.76 91.66 L 158.72 91.99 C 159.64 92.30 160.63 91.81 160.94 90.89 C 161.25 89.97 160.76 88.98 159.84 88.67 L 158.88 88.34 C 157.96 88.03 156.97 88.53 156.66 89.44 C 156.35 90.36 156.84 91.35 157.76 91.66 Z M 158.32 91.79 L 159.12 92.33 C 159.93 92.86 161.02 92.64 161.55 91.83 C 162.09 91.02 161.87 89.93 161.06 89.40 L 160.25 88.86 C 159.44 88.33 158.35 88.55 157.82 89.36 C 157.29 90.17 157.51 91.26 158.32 91.79 Z M 158.74 91.99 L 159.33 92.69 C 159.95 93.44 161.06 93.54 161.81 92.92 C 162.55 92.29 162.65 91.19 162.03 90.44 L 161.44 89.73 C 160.82 88.99 159.71 88.89 158.96 89.51 C 158.22 90.14 158.12 91.24 158.74 91.99 Z M 159.09 92.32 L 159.48 93.15 C 159.89 94.03 160.94 94.41 161.82 94.00 C 162.70 93.58 163.08 92.54 162.67 91.66 L 162.27 90.82 C 161.86 89.94 160.81 89.56 159.93 89.98 C 159.05 90.39 158.67 91.44 159.09 92.32 Z M 159.38 92.88 L 159.65 93.86 C 159.91 94.80 160.88 95.34 161.82 95.08 C 162.76 94.82 163.30 93.85 163.04 92.91 L 162.77 91.93 C 162.51 91.00 161.54 90.45 160.60 90.71 C 159.66 90.97 159.12 91.94 159.38 92.88 Z M 159.61 93.70 L 159.81 94.76 C 159.98 95.72 160.90 96.36 161.85 96.18 C 162.81 96.01 163.44 95.10 163.27 94.14 L 163.08 93.07 C 162.91 92.12 161.99 91.48 161.03 91.65 C 160.08 91.83 159.44 92.74 159.61 93.70 Z M 159.80 94.69 L 159.92 95.59 C 160.05 96.55 160.94 97.23 161.90 97.10 C 162.86 96.96 163.54 96.08 163.41 95.11 L 163.28 94.21 C 163.15 93.25 162.26 92.58 161.30 92.71 C 160.34 92.84 159.66 93.73 159.80 94.69 Z M 159.91 95.54 L 160.02 96.50 C 160.12 97.47 160.99 98.17 161.96 98.06 C 162.92 97.96 163.62 97.09 163.52 96.12 L 163.41 95.16 C 163.31 94.20 162.44 93.50 161.47 93.60 C 160.51 93.71 159.81 94.57 159.91 95.54 Z M 160.01 96.46 L 160.10 97.48 C 160.18 98.45 161.03 99.17 162.00 99.09 C 162.97 99.01 163.69 98.15 163.61 97.19 L 163.52 96.16 C 163.44 95.19 162.59 94.48 161.62 94.56 C 160.65 94.64 159.93 95.49 160.01 96.46 Z M 160.10 97.45 L 160.17 98.53 C 160.23 99.50 161.07 100.24 162.04 100.18 C 163.01 100.11 163.74 99.27 163.68 98.30 L 163.61 97.22 C 163.55 96.25 162.71 95.51 161.74 95.58 C 160.77 95.64 160.03 96.48 160.10 97.45 Z M 160.17 98.51 L 160.21 99.43 C 160.26 100.41 161.09 101.15 162.06 101.10 C 163.03 101.05 163.78 100.23 163.73 99.26 L 163.68 98.33 C 163.63 97.36 162.81 96.61 161.83 96.66 C 160.86 96.71 160.12 97.54 160.17 98.51 Z M 160.21 99.41 L 160.25 100.31 C 160.29 101.28 161.10 102.04 162.08 102.00 C 163.05 101.96 163.80 101.14 163.77 100.17 L 163.73 99.28 C 163.69 98.30 162.87 97.55 161.90 97.59 C 160.93 97.62 160.17 98.44 160.21 99.41 Z M 160.25 100.29 L 160.27 101.24 C 160.30 102.21 161.11 102.98 162.09 102.95 C 163.06 102.92 163.82 102.11 163.79 101.14 L 163.77 100.19 C 163.74 99.22 162.93 98.45 161.95 98.48 C 160.98 98.51 160.22 99.32 160.25 100.29 Z M 160.27 101.22 L 160.29 102.23 C 160.31 103.20 161.12 103.97 162.09 103.95 C 163.06 103.93 163.83 103.13 163.81 102.16 L 163.79 101.15 C 163.78 100.18 162.97 99.41 162.00 99.43 C 161.03 99.45 160.26 100.25 160.27 101.22 Z M 160.29 102.21 L 160.31 103.29 C 160.32 104.26 161.12 105.04 162.09 105.03 C 163.06 105.02 163.84 104.22 163.83 103.25 L 163.82 102.17 C 163.80 101.20 163.01 100.42 162.03 100.43 C 161.06 100.44 160.28 101.24 160.29 102.21 Z M 160.31 103.28 L 160.31 104.43 C 160.32 105.40 161.11 106.19 162.08 106.18 C 163.05 106.18 163.84 105.39 163.83 104.41 L 163.83 103.26 C 163.82 102.29 163.03 101.50 162.06 101.51 C 161.09 101.51 160.30 102.30 160.31 103.28 Z M 160.31 104.42 L 160.31 105.40 C 160.31 106.37 161.10 107.16 162.07 107.16 C 163.04 107.16 163.83 106.38 163.83 105.40 L 163.83 104.42 C 163.83 103.45 163.05 102.66 162.08 102.66 C 161.10 102.66 160.31 103.45 160.31 104.42 Z M 160.31 105.39 L 160.30 106.37 C 160.30 107.34 161.08 108.14 162.05 108.14 C 163.02 108.15 163.82 107.37 163.82 106.40 L 163.83 105.41 C 163.84 104.44 163.06 103.65 162.08 103.64 C 161.11 103.63 160.32 104.41 160.31 105.39 Z M 160.30 106.36 L 160.29 107.37 C 160.27 108.34 161.05 109.14 162.02 109.15 C 162.99 109.17 163.79 108.39 163.81 107.42 L 163.82 106.41 C 163.84 105.44 163.06 104.64 162.09 104.62 C 161.12 104.61 160.32 105.39 160.30 106.36 Z M 160.29 107.35 L 160.27 108.38 C 160.24 109.35 161.01 110.16 161.98 110.18 C 162.96 110.20 163.76 109.43 163.78 108.46 L 163.81 107.43 C 163.83 106.46 163.06 105.66 162.09 105.63 C 161.12 105.61 160.31 106.38 160.29 107.35 Z M 160.27 108.36 L 160.23 109.39 C 160.20 110.36 160.96 111.18 161.93 111.21 C 162.90 111.24 163.72 110.48 163.75 109.51 L 163.78 108.48 C 163.81 107.51 163.05 106.69 162.08 106.66 C 161.11 106.63 160.30 107.39 160.27 108.36 Z M 160.23 109.37 L 160.19 110.39 C 160.14 111.36 160.90 112.19 161.87 112.23 C 162.84 112.27 163.66 111.52 163.70 110.55 L 163.75 109.53 C 163.79 108.56 163.04 107.74 162.07 107.69 C 161.10 107.65 160.28 108.40 160.23 109.37 Z M 160.19 110.37 L 160.13 111.37 C 160.07 112.34 160.81 113.17 161.78 113.22 C 162.75 113.28 163.59 112.54 163.64 111.57 L 163.70 110.57 C 163.76 109.60 163.02 108.77 162.05 108.71 C 161.08 108.66 160.25 109.40 160.19 110.37 Z M 160.13 111.33 L 160.06 112.35 C 159.98 113.31 160.71 114.16 161.68 114.23 C 162.65 114.31 163.49 113.58 163.56 112.61 L 163.64 111.60 C 163.71 110.63 162.99 109.79 162.02 109.71 C 161.05 109.64 160.21 110.37 160.13 111.33 Z M 160.06 112.31 L 159.95 113.47 C 159.85 114.43 160.56 115.29 161.52 115.39 C 162.49 115.48 163.35 114.78 163.44 113.81 L 163.56 112.65 C 163.65 111.69 162.95 110.83 161.98 110.73 C 161.02 110.64 160.16 111.34 160.06 112.31 Z M 159.95 113.43 L 159.82 114.52 C 159.71 115.48 160.39 116.35 161.35 116.47 C 162.31 116.58 163.19 115.90 163.30 114.94 L 163.44 113.85 C 163.55 112.89 162.87 112.02 161.91 111.90 C 160.95 111.78 160.07 112.47 159.95 113.43 Z M 159.83 114.48 L 159.69 115.50 C 159.55 116.45 160.22 117.34 161.17 117.47 C 162.13 117.61 163.02 116.94 163.15 115.99 L 163.30 114.97 C 163.43 114.01 162.77 113.13 161.81 112.99 C 160.85 112.86 159.97 113.52 159.83 114.48 Z M 159.69 115.47 L 159.55 116.41 C 159.40 117.37 160.05 118.26 161.00 118.41 C 161.95 118.56 162.85 117.91 163.00 116.95 L 163.15 116.01 C 163.30 115.06 162.64 114.16 161.69 114.01 C 160.74 113.87 159.84 114.52 159.69 115.47 Z M 159.55 116.39 L 159.41 117.26 C 159.25 118.21 159.89 119.11 160.84 119.27 C 161.79 119.43 162.69 118.79 162.85 117.84 L 162.99 116.97 C 163.15 116.02 162.51 115.12 161.56 114.96 C 160.61 114.80 159.71 115.44 159.55 116.39 Z M 159.41 117.26 L 159.27 118.09 C 159.11 119.04 159.74 119.94 160.69 120.10 C 161.64 120.26 162.54 119.63 162.70 118.68 L 162.84 117.84 C 163.01 116.90 162.37 116.00 161.42 115.83 C 160.47 115.67 159.57 116.31 159.41 117.26 Z M 159.27 118.09 L 159.11 119.05 C 158.95 119.99 159.58 120.89 160.53 121.05 C 161.47 121.21 162.37 120.58 162.53 119.63 L 162.70 118.68 C 162.86 117.73 162.22 116.83 161.28 116.67 C 160.33 116.51 159.43 117.15 159.27 118.09 Z M 159.12 119.04 L 158.95 119.95 C 158.79 120.89 159.41 121.79 160.35 121.96 C 161.30 122.12 162.20 121.50 162.36 120.56 L 162.53 119.64 C 162.69 118.70 162.07 117.80 161.12 117.63 C 160.18 117.47 159.28 118.09 159.12 119.04 Z M 158.96 119.92 L 158.78 120.86 C 158.60 121.80 159.21 122.71 160.15 122.89 C 161.08 123.07 161.99 122.46 162.17 121.52 L 162.35 120.58 C 162.54 119.64 161.92 118.74 160.99 118.56 C 160.05 118.37 159.14 118.99 158.96 119.92 Z M 158.79 120.83 L 158.57 121.88 C 158.37 122.81 158.96 123.72 159.89 123.92 C 160.82 124.12 161.74 123.53 161.94 122.60 L 162.16 121.55 C 162.36 120.62 161.77 119.71 160.84 119.51 C 159.91 119.31 158.99 119.90 158.79 120.83 Z M 158.58 121.85 L 158.35 122.83 C 158.14 123.76 158.71 124.68 159.64 124.90 C 160.56 125.11 161.48 124.53 161.70 123.61 L 161.93 122.63 C 162.14 121.70 161.57 120.78 160.64 120.56 C 159.72 120.35 158.79 120.92 158.58 121.85 Z M 158.36 122.81 L 158.13 123.75 C 157.90 124.67 158.47 125.60 159.39 125.82 C 160.31 126.05 161.24 125.49 161.46 124.57 L 161.69 123.63 C 161.92 122.71 161.35 121.78 160.43 121.55 C 159.51 121.33 158.58 121.89 158.36 122.81 Z M 158.13 123.73 L 157.88 124.72 C 157.65 125.64 158.20 126.57 159.12 126.81 C 160.03 127.04 160.97 126.49 161.20 125.57 L 161.46 124.58 C 161.69 123.66 161.14 122.73 160.22 122.50 C 159.30 122.26 158.37 122.82 158.13 123.73 Z M 157.89 124.71 L 157.62 125.72 C 157.37 126.63 157.92 127.57 158.83 127.81 C 159.74 128.06 160.68 127.51 160.93 126.60 L 161.20 125.59 C 161.44 124.67 160.90 123.74 159.98 123.49 C 159.07 123.25 158.13 123.79 157.89 124.71 Z M 157.62 125.70 L 157.34 126.71 C 157.09 127.62 157.62 128.57 158.53 128.82 C 159.44 129.07 160.39 128.54 160.64 127.63 L 160.92 126.62 C 161.17 125.71 160.64 124.77 159.73 124.51 C 158.82 124.26 157.88 124.79 157.62 125.70 Z M 157.35 126.69 L 157.07 127.67 C 156.81 128.57 157.33 129.52 158.23 129.79 C 159.14 130.05 160.08 129.53 160.35 128.62 L 160.63 127.65 C 160.89 126.74 160.37 125.79 159.47 125.53 C 158.56 125.27 157.62 125.79 157.35 126.69 Z M 157.08 127.64 L 156.78 128.61 C 156.51 129.51 157.01 130.46 157.91 130.74 C 158.81 131.01 159.76 130.51 160.04 129.61 L 160.34 128.65 C 160.61 127.75 160.11 126.79 159.21 126.52 C 158.31 126.24 157.36 126.74 157.08 127.64 Z M 156.80 128.57 L 156.43 129.70 C 156.13 130.58 156.61 131.55 157.50 131.84 C 158.39 132.14 159.35 131.66 159.65 130.77 L 160.02 129.64 C 160.32 128.76 159.84 127.79 158.95 127.50 C 158.06 127.20 157.10 127.68 156.80 128.57 Z M 156.45 129.65 L 156.09 130.64 C 155.77 131.51 156.22 132.48 157.10 132.80 C 157.97 133.12 158.94 132.67 159.26 131.80 L 159.62 130.81 C 159.94 129.94 159.49 128.97 158.62 128.65 C 157.74 128.33 156.77 128.78 156.45 129.65 Z M 156.12 130.59 L 155.77 131.47 C 155.43 132.33 155.84 133.30 156.70 133.65 C 157.56 133.99 158.54 133.57 158.88 132.72 L 159.23 131.84 C 159.58 130.98 159.16 130.01 158.30 129.66 C 157.44 129.32 156.47 129.74 156.12 130.59 Z M 155.80 131.43 L 155.45 132.23 C 155.09 133.07 155.48 134.05 156.32 134.41 C 157.16 134.78 158.14 134.39 158.51 133.55 L 158.85 132.75 C 159.22 131.91 158.83 130.93 157.99 130.57 C 157.15 130.20 156.17 130.59 155.80 131.43 Z M 155.48 132.19 L 155.08 133.05 C 154.70 133.88 155.06 134.86 155.89 135.25 C 156.71 135.63 157.70 135.27 158.08 134.44 L 158.48 133.58 C 158.87 132.76 158.51 131.77 157.68 131.39 C 156.85 131.00 155.87 131.36 155.48 132.19 Z M 155.12 132.98 L 154.65 133.89 C 154.23 134.69 154.54 135.69 155.34 136.11 C 156.15 136.53 157.15 136.22 157.57 135.42 L 158.04 134.51 C 158.47 133.70 158.15 132.71 157.35 132.29 C 156.54 131.86 155.55 132.17 155.12 132.98 Z M 154.73 133.75 L 154.20 134.57 C 153.70 135.33 153.91 136.34 154.67 136.84 C 155.43 137.34 156.45 137.13 156.94 136.37 L 157.48 135.55 C 157.98 134.80 157.77 133.78 157.01 133.28 C 156.25 132.78 155.23 132.99 154.73 133.75 Z M 154.35 134.37 L 153.71 135.09 C 153.10 135.76 153.16 136.80 153.83 137.41 C 154.51 138.01 155.54 137.96 156.15 137.28 L 156.79 136.57 C 157.40 135.89 157.34 134.85 156.67 134.25 C 155.99 133.64 154.96 133.70 154.35 134.37 Z M 153.92 134.90 L 153.17 135.49 C 152.45 136.04 152.33 137.07 152.89 137.78 C 153.45 138.50 154.48 138.62 155.19 138.06 L 155.94 137.47 C 156.65 136.92 156.77 135.89 156.22 135.18 C 155.66 134.46 154.63 134.34 153.92 134.90 Z M 153.34 135.37 L 152.49 135.88 C 151.71 136.34 151.46 137.34 151.92 138.12 C 152.38 138.90 153.39 139.15 154.16 138.69 L 155.02 138.18 C 155.79 137.72 156.05 136.71 155.58 135.94 C 155.12 135.16 154.12 134.90 153.34 135.37 Z M 152.59 135.82 L 151.68 136.28 C 150.87 136.68 150.54 137.66 150.95 138.47 C 151.35 139.28 152.33 139.61 153.14 139.20 L 154.06 138.75 C 154.87 138.34 155.19 137.36 154.79 136.55 C 154.39 135.74 153.40 135.41 152.59 135.82 Z M 151.72 136.26 L 151.08 136.55 C 150.26 136.93 149.91 137.91 150.29 138.73 C 150.67 139.55 151.64 139.90 152.46 139.52 L 153.10 139.22 C 153.92 138.84 154.28 137.87 153.89 137.05 C 153.51 136.23 152.54 135.87 151.72 136.26 Z"
      fill="black"
      fill-rule="nonzero" /><path d="M 138.14 105.55 L 137.69 106.46 C 137.26 107.32 137.61 108.37 138.47 108.80 C 139.34 109.23 140.38 108.88 140.81 108.02 L 141.27 107.11 C 141.70 106.25 141.35 105.20 140.48 104.77 C 139.62 104.34 138.57 104.69 138.14 105.55 Z M 137.68 106.46 L 137.24 107.37 C 136.81 108.23 137.17 109.28 138.03 109.71 C 138.90 110.13 139.95 109.78 140.37 108.91 L 140.82 108.01 C 141.25 107.14 140.89 106.10 140.02 105.67 C 139.16 105.24 138.11 105.60 137.68 106.46 Z M 137.23 107.38 L 136.80 108.28 C 136.38 109.16 136.74 110.20 137.62 110.62 C 138.49 111.04 139.53 110.67 139.95 109.80 L 140.38 108.90 C 140.80 108.03 140.43 106.98 139.56 106.56 C 138.69 106.15 137.65 106.51 137.23 107.38 Z M 136.78 108.31 L 136.37 109.20 C 135.96 110.08 136.35 111.12 137.22 111.53 C 138.10 111.93 139.14 111.55 139.55 110.67 L 139.96 109.78 C 140.37 108.90 139.98 107.86 139.11 107.45 C 138.23 107.05 137.19 107.43 136.78 108.31 Z M 136.35 109.24 L 135.96 110.13 C 135.58 111.01 135.98 112.05 136.87 112.43 C 137.75 112.82 138.79 112.42 139.17 111.53 L 139.56 110.64 C 139.95 109.75 139.55 108.72 138.66 108.33 C 137.77 107.95 136.74 108.35 136.35 109.24 Z M 135.95 110.17 L 135.58 111.06 C 135.22 111.96 135.65 112.98 136.55 113.35 C 137.44 113.71 138.47 113.28 138.83 112.38 L 139.19 111.49 C 139.56 110.59 139.12 109.57 138.23 109.21 C 137.33 108.84 136.31 109.27 135.95 110.17 Z M 135.56 111.11 L 135.22 112.03 C 134.89 112.94 135.35 113.95 136.26 114.29 C 137.16 114.62 138.17 114.16 138.51 113.25 L 138.85 112.33 C 139.19 111.42 138.72 110.42 137.81 110.08 C 136.91 109.74 135.90 110.21 135.56 111.11 Z M 135.20 112.09 L 134.88 113.06 C 134.58 113.97 135.07 114.97 135.99 115.27 C 136.91 115.58 137.90 115.08 138.21 114.16 L 138.53 113.20 C 138.83 112.28 138.34 111.29 137.42 110.98 C 136.50 110.67 135.51 111.17 135.20 112.09 Z M 134.86 113.11 L 134.57 114.11 C 134.29 115.04 134.82 116.02 135.75 116.29 C 136.68 116.57 137.65 116.04 137.93 115.11 L 138.22 114.11 C 138.50 113.18 137.97 112.20 137.04 111.93 C 136.11 111.65 135.14 112.18 134.86 113.11 Z M 134.55 114.16 L 134.30 115.11 C 134.06 116.04 134.61 117.00 135.55 117.25 C 136.48 117.50 137.44 116.94 137.69 116.00 L 137.94 115.06 C 138.19 114.12 137.63 113.17 136.70 112.92 C 135.76 112.67 134.80 113.23 134.55 114.16 Z M 134.30 115.15 L 134.06 116.13 C 133.84 117.07 134.42 118.01 135.36 118.24 C 136.29 118.46 137.24 117.88 137.46 116.94 L 137.70 115.96 C 137.92 115.02 137.34 114.08 136.40 113.85 C 135.46 113.63 134.52 114.21 134.30 115.15 Z M 134.05 116.17 L 133.84 117.17 C 133.64 118.11 134.24 119.04 135.18 119.24 C 136.13 119.44 137.05 118.84 137.26 117.90 L 137.47 116.90 C 137.67 115.96 137.07 115.03 136.13 114.83 C 135.18 114.63 134.26 115.23 134.05 116.17 Z M 133.84 117.21 L 133.65 118.21 C 133.47 119.16 134.09 120.07 135.04 120.24 C 135.98 120.42 136.90 119.80 137.07 118.85 L 137.26 117.86 C 137.44 116.91 136.82 116.00 135.87 115.82 C 134.92 115.64 134.01 116.27 133.84 117.21 Z M 133.64 118.26 L 133.48 119.24 C 133.33 120.19 133.98 121.08 134.93 121.24 C 135.88 121.39 136.77 120.74 136.92 119.79 L 137.08 118.81 C 137.23 117.86 136.59 116.97 135.64 116.81 C 134.69 116.66 133.80 117.31 133.64 118.26 Z M 133.49 119.30 L 133.35 120.37 C 133.23 121.32 133.90 122.19 134.85 122.30 C 135.80 122.42 136.67 121.75 136.78 120.80 L 136.92 119.73 C 137.04 118.79 136.37 117.92 135.42 117.80 C 134.47 117.68 133.60 118.35 133.49 119.30 Z M 133.36 120.45 L 133.28 121.48 C 133.21 122.42 133.91 123.24 134.86 123.32 C 135.80 123.39 136.62 122.69 136.70 121.74 L 136.78 120.72 C 136.85 119.78 136.15 118.95 135.20 118.88 C 134.26 118.80 133.43 119.51 133.36 120.45 Z M 133.29 121.58 L 133.27 122.56 C 133.26 123.49 134.00 124.27 134.94 124.29 C 135.88 124.30 136.65 123.55 136.67 122.62 L 136.69 121.64 C 136.70 120.70 135.96 119.93 135.02 119.91 C 134.08 119.89 133.31 120.64 133.29 121.58 Z M 133.29 122.68 L 133.34 123.62 C 133.39 124.55 134.19 125.26 135.12 125.21 C 136.05 125.15 136.76 124.36 136.70 123.43 L 136.65 122.49 C 136.60 121.56 135.81 120.85 134.88 120.90 C 133.95 120.96 133.24 121.75 133.29 122.68 Z M 133.37 123.76 L 133.51 124.73 C 133.64 125.65 134.49 126.28 135.41 126.15 C 136.32 126.01 136.95 125.17 136.82 124.25 L 136.68 123.28 C 136.54 122.37 135.70 121.74 134.78 121.87 C 133.87 122.00 133.24 122.85 133.37 123.76 Z M 133.55 124.87 L 133.78 125.85 C 133.99 126.74 134.88 127.30 135.77 127.09 C 136.67 126.88 137.22 125.98 137.01 125.09 L 136.78 124.11 C 136.57 123.22 135.68 122.67 134.78 122.88 C 133.89 123.09 133.34 123.98 133.55 124.87 Z M 133.81 125.95 L 134.10 126.90 C 134.37 127.78 135.29 128.27 136.16 128.00 C 137.04 127.74 137.53 126.82 137.26 125.94 L 136.98 124.99 C 136.71 124.12 135.79 123.62 134.91 123.89 C 134.04 124.15 133.55 125.08 133.81 125.95 Z M 134.13 126.96 L 134.45 127.90 C 134.75 128.76 135.68 129.21 136.54 128.92 C 137.40 128.62 137.86 127.68 137.56 126.82 L 137.24 125.89 C 136.94 125.03 136.01 124.57 135.15 124.87 C 134.29 125.16 133.83 126.10 134.13 126.96 Z M 134.46 127.91 L 134.58 128.24 C 134.88 129.09 135.82 129.54 136.67 129.23 C 137.53 128.93 137.97 127.99 137.67 127.14 L 137.55 126.81 C 137.25 125.96 136.31 125.51 135.46 125.82 C 134.60 126.12 134.16 127.06 134.46 127.91 Z"
      fill="black"
      fill-rule="nonzero" /><path d="M 147.71 111.11 L 147.71 112.09 C 147.71 113.01 148.46 113.76 149.38 113.76 C 150.31 113.76 151.06 113.01 151.06 112.09 L 151.06 111.11 C 151.06 110.18 150.31 109.43 149.38 109.43 C 148.46 109.43 147.71 110.18 147.71 111.11 Z M 147.71 112.09 L 147.71 113.07 C 147.71 114.00 148.46 114.75 149.38 114.75 C 150.31 114.75 151.06 114.00 151.06 113.07 L 151.06 112.09 C 151.06 111.16 150.31 110.41 149.38 110.41 C 148.46 110.41 147.71 111.16 147.71 112.09 Z M 147.71 113.07 L 147.71 114.08 C 147.71 115.00 148.46 115.75 149.38 115.75 C 150.31 115.75 151.06 115.00 151.06 114.08 L 151.06 113.07 C 151.06 112.15 150.31 111.40 149.38 111.40 C 148.46 111.40 147.71 112.15 147.71 113.07 Z M 147.71 114.08 L 147.71 115.10 C 147.71 116.03 148.46 116.78 149.38 116.78 C 150.31 116.78 151.06 116.03 151.06 115.10 L 151.06 114.08 C 151.06 113.15 150.31 112.40 149.38 112.40 C 148.46 112.40 147.71 113.15 147.71 114.08 Z M 147.71 115.10 L 147.71 116.10 C 147.71 117.03 148.46 117.78 149.38 117.78 C 150.31 117.78 151.06 117.03 151.06 116.11 L 151.06 115.11 C 151.06 114.18 150.31 113.43 149.39 113.43 C 148.46 113.43 147.71 114.18 147.71 115.10 Z M 147.71 116.09 L 147.70 117.10 C 147.69 118.02 148.43 118.78 149.36 118.79 C 150.28 118.80 151.03 118.06 151.04 117.14 L 151.05 116.12 C 151.06 115.20 150.32 114.44 149.40 114.43 C 148.48 114.42 147.72 115.17 147.71 116.09 Z M 147.71 117.07 L 147.68 118.08 C 147.65 119.00 148.37 119.77 149.29 119.79 C 150.21 119.82 150.98 119.10 151.01 118.18 L 151.04 117.17 C 151.07 116.25 150.34 115.48 149.42 115.45 C 148.50 115.42 147.73 116.15 147.71 117.07 Z M 147.68 118.03 L 147.62 119.01 C 147.57 119.93 148.27 120.72 149.18 120.77 C 150.10 120.83 150.89 120.13 150.94 119.21 L 151.00 118.23 C 151.06 117.31 150.36 116.52 149.44 116.47 C 148.53 116.41 147.74 117.11 147.68 118.03 Z M 147.63 118.94 L 147.53 119.92 C 147.44 120.83 148.10 121.65 149.01 121.75 C 149.92 121.84 150.74 121.18 150.83 120.27 L 150.93 119.29 C 151.03 118.37 150.37 117.56 149.46 117.46 C 148.54 117.37 147.73 118.03 147.63 118.94 Z M 147.55 119.85 L 147.40 120.81 C 147.26 121.72 147.88 122.56 148.78 122.70 C 149.68 122.84 150.53 122.22 150.67 121.31 L 150.82 120.35 C 150.95 119.44 150.33 118.60 149.43 118.46 C 148.53 118.32 147.68 118.94 147.55 119.85 Z M 147.42 120.75 L 147.23 121.71 C 147.05 122.60 147.63 123.47 148.53 123.65 C 149.42 123.82 150.28 123.24 150.46 122.35 L 150.65 121.38 C 150.82 120.49 150.24 119.62 149.35 119.45 C 148.46 119.27 147.59 119.85 147.42 120.75 Z M 147.24 121.66 L 147.02 122.65 C 146.81 123.53 147.37 124.42 148.25 124.62 C 149.13 124.82 150.01 124.27 150.22 123.38 L 150.44 122.40 C 150.65 121.51 150.09 120.63 149.21 120.43 C 148.33 120.23 147.44 120.78 147.24 121.66 Z M 147.03 122.62 L 146.78 123.61 C 146.56 124.49 147.09 125.38 147.97 125.60 C 148.85 125.82 149.74 125.29 149.96 124.41 L 150.21 123.41 C 150.43 122.54 149.89 121.65 149.01 121.43 C 148.14 121.21 147.25 121.74 147.03 122.62 Z M 146.79 123.59 L 146.52 124.59 C 146.30 125.46 146.82 126.36 147.69 126.58 C 148.57 126.81 149.46 126.29 149.69 125.42 L 149.95 124.43 C 150.18 123.55 149.66 122.66 148.78 122.43 C 147.91 122.20 147.01 122.72 146.79 123.59 Z M 146.53 124.57 L 146.26 125.56 C 146.02 126.44 146.53 127.34 147.41 127.57 C 148.28 127.81 149.18 127.30 149.42 126.43 L 149.69 125.43 C 149.93 124.56 149.41 123.66 148.54 123.42 C 147.67 123.18 146.77 123.70 146.53 124.57 Z M 146.26 125.55 L 145.99 126.52 C 145.75 127.39 146.25 128.29 147.12 128.53 C 147.99 128.78 148.90 128.27 149.14 127.40 L 149.41 126.44 C 149.66 125.57 149.15 124.66 148.28 124.42 C 147.41 124.17 146.51 124.68 146.26 125.55 Z M 145.99 126.50 L 145.73 127.43 C 145.47 128.30 145.97 129.20 146.84 129.46 C 147.71 129.71 148.62 129.21 148.87 128.34 L 149.14 127.41 C 149.39 126.55 148.89 125.64 148.02 125.39 C 147.15 125.13 146.25 125.63 145.99 126.50 Z M 145.73 127.41 L 145.41 128.47 C 145.16 129.33 145.65 130.24 146.51 130.50 C 147.38 130.76 148.29 130.27 148.55 129.41 L 148.87 128.35 C 149.13 127.49 148.63 126.57 147.77 126.31 C 146.90 126.06 145.99 126.55 145.73 127.41 Z M 145.42 128.45 L 145.13 129.39 C 144.86 130.26 145.34 131.17 146.21 131.44 C 147.07 131.71 147.99 131.23 148.26 130.36 L 148.55 129.42 C 148.81 128.56 148.33 127.64 147.47 127.37 C 146.60 127.10 145.69 127.59 145.42 128.45 Z M 145.13 129.39 L 144.85 130.27 C 144.58 131.13 145.06 132.05 145.92 132.32 C 146.78 132.59 147.70 132.11 147.97 131.25 L 148.25 130.37 C 148.52 129.51 148.05 128.59 147.18 128.32 C 146.32 128.05 145.40 128.52 145.13 129.39 Z M 144.85 130.26 L 144.77 130.51 C 144.50 131.37 144.98 132.29 145.84 132.57 C 146.70 132.84 147.62 132.36 147.89 131.50 L 147.97 131.26 C 148.25 130.39 147.77 129.47 146.91 129.20 C 146.05 128.93 145.13 129.40 144.85 130.26 Z"
      fill="black"
      fill-rule="nonzero" /><path d="M 112.57 159.67 L 112.73 160.68 C 112.88 161.67 113.80 162.35 114.80 162.20 C 115.79 162.05 116.47 161.13 116.32 160.13 L 116.17 159.12 C 116.02 158.13 115.10 157.45 114.10 157.60 C 113.11 157.75 112.42 158.67 112.57 159.67 Z M 112.72 160.64 L 112.85 161.64 C 112.99 162.64 113.90 163.34 114.90 163.21 C 115.89 163.08 116.59 162.16 116.46 161.17 L 116.33 160.17 C 116.20 159.17 115.28 158.47 114.29 158.60 C 113.29 158.73 112.59 159.65 112.72 160.64 Z M 112.85 161.58 L 112.94 162.56 C 113.03 163.56 113.92 164.29 114.92 164.20 C 115.92 164.10 116.65 163.22 116.56 162.22 L 116.47 161.24 C 116.37 160.24 115.49 159.50 114.49 159.60 C 113.49 159.69 112.75 160.58 112.85 161.58 Z M 112.93 162.45 L 112.97 163.36 C 113.00 164.37 113.84 165.15 114.85 165.12 C 115.85 165.08 116.63 164.24 116.60 163.24 L 116.57 162.32 C 116.53 161.32 115.69 160.53 114.69 160.57 C 113.68 160.61 112.90 161.45 112.93 162.45 Z M 112.97 163.24 L 112.94 164.14 C 112.91 165.15 113.69 165.98 114.70 166.02 C 115.70 166.05 116.54 165.26 116.57 164.26 L 116.60 163.36 C 116.63 162.36 115.84 161.52 114.84 161.49 C 113.84 161.45 113.00 162.24 112.97 163.24 Z M 112.95 164.04 L 112.86 165.03 C 112.77 166.03 113.51 166.91 114.51 166.99 C 115.50 167.08 116.38 166.35 116.47 165.35 L 116.56 164.36 C 116.65 163.36 115.91 162.48 114.91 162.40 C 113.92 162.31 113.04 163.04 112.95 164.04 Z M 112.87 164.96 L 112.72 166.11 C 112.60 167.10 113.30 168.00 114.29 168.13 C 115.28 168.26 116.19 167.56 116.32 166.57 L 116.46 165.42 C 116.59 164.43 115.89 163.52 114.90 163.39 C 113.90 163.27 113.00 163.97 112.87 164.96 Z M 112.73 166.07 L 112.59 166.99 C 112.45 167.98 113.13 168.90 114.12 169.04 C 115.11 169.19 116.03 168.50 116.17 167.51 L 116.31 166.60 C 116.46 165.61 115.77 164.69 114.78 164.55 C 113.79 164.40 112.87 165.08 112.73 166.07 Z M 112.60 166.97 L 112.45 167.94 C 112.29 168.92 112.97 169.85 113.96 170.00 C 114.94 170.16 115.87 169.48 116.02 168.49 L 116.17 167.53 C 116.33 166.54 115.65 165.62 114.66 165.46 C 113.67 165.31 112.75 165.99 112.60 166.97 Z M 112.45 167.93 L 112.29 168.94 C 112.13 169.93 112.80 170.86 113.79 171.01 C 114.78 171.17 115.70 170.50 115.86 169.51 L 116.02 168.50 C 116.18 167.51 115.50 166.58 114.52 166.43 C 113.53 166.27 112.60 166.94 112.45 167.93 Z M 112.29 168.95 L 112.12 169.98 C 111.97 170.97 112.64 171.89 113.63 172.05 C 114.61 172.20 115.54 171.53 115.70 170.54 L 115.86 169.51 C 116.02 168.52 115.34 167.60 114.36 167.44 C 113.37 167.29 112.44 167.96 112.29 168.95 Z M 112.12 169.99 L 111.97 171.01 C 111.81 172.00 112.49 172.92 113.48 173.08 C 114.46 173.23 115.39 172.55 115.54 171.56 L 115.70 170.54 C 115.85 169.55 115.17 168.63 114.19 168.47 C 113.20 168.32 112.28 169.00 112.12 169.99 Z M 111.97 171.03 L 111.82 172.03 C 111.67 173.02 112.35 173.94 113.34 174.08 C 114.33 174.23 115.25 173.55 115.39 172.56 L 115.54 171.55 C 115.68 170.56 115.00 169.65 114.01 169.50 C 113.03 169.36 112.11 170.04 111.97 171.03 Z M 111.82 172.05 L 111.69 173.04 C 111.55 174.03 112.24 174.93 113.23 175.07 C 114.21 175.20 115.12 174.51 115.25 173.52 L 115.39 172.54 C 115.52 171.55 114.83 170.65 113.85 170.51 C 112.86 170.38 111.95 171.07 111.82 172.05 Z M 111.69 173.07 L 111.57 174.03 C 111.46 175.01 112.15 175.91 113.14 176.03 C 114.12 176.15 115.01 175.45 115.13 174.46 L 115.25 173.50 C 115.37 172.52 114.67 171.62 113.69 171.50 C 112.70 171.39 111.81 172.08 111.69 173.07 Z M 111.58 174.06 L 111.48 175.03 C 111.37 176.01 112.08 176.89 113.06 176.99 C 114.04 177.09 114.92 176.38 115.02 175.41 L 115.13 174.44 C 115.23 173.46 114.52 172.58 113.54 172.47 C 112.56 172.37 111.68 173.08 111.58 174.06 Z M 111.48 175.06 L 111.39 176.06 C 111.30 177.03 112.03 177.90 113.00 177.98 C 113.98 178.07 114.84 177.35 114.93 176.37 L 115.02 175.38 C 115.11 174.40 114.39 173.54 113.41 173.45 C 112.43 173.36 111.57 174.08 111.48 175.06 Z M 111.40 176.08 L 111.32 177.12 C 111.25 178.10 111.98 178.94 112.95 179.02 C 113.92 179.09 114.77 178.36 114.84 177.39 L 114.92 176.35 C 115.00 175.37 114.27 174.53 113.29 174.45 C 112.32 174.38 111.47 175.11 111.40 176.08 Z M 111.33 177.15 L 111.26 178.16 C 111.20 179.13 111.94 179.96 112.91 180.02 C 113.88 180.08 114.71 179.35 114.77 178.38 L 114.84 177.36 C 114.90 176.40 114.16 175.56 113.19 175.50 C 112.22 175.44 111.39 176.18 111.33 177.15 Z M 111.27 178.17 L 111.22 179.22 C 111.16 180.18 111.90 181.01 112.87 181.06 C 113.84 181.11 114.66 180.37 114.71 179.40 L 114.77 178.36 C 114.82 177.40 114.08 176.57 113.11 176.52 C 112.15 176.47 111.32 177.21 111.27 178.17 Z M 111.22 179.23 L 111.17 180.27 C 111.13 181.24 111.87 182.05 112.84 182.09 C 113.80 182.14 114.61 181.39 114.66 180.43 L 114.70 179.39 C 114.75 178.43 114.00 177.61 113.04 177.57 C 112.08 177.52 111.27 178.27 111.22 179.23 Z M 111.18 180.29 L 111.14 181.30 C 111.10 182.26 111.85 183.06 112.81 183.10 C 113.77 183.14 114.57 182.39 114.61 181.44 L 114.65 180.42 C 114.69 179.46 113.94 178.66 112.98 178.62 C 112.03 178.58 111.22 179.33 111.18 180.29 Z M 111.15 181.31 L 111.12 182.27 C 111.09 183.22 111.83 184.02 112.79 184.05 C 113.74 184.09 114.54 183.34 114.57 182.39 L 114.60 181.43 C 114.63 180.47 113.89 179.67 112.93 179.64 C 111.98 179.61 111.18 180.36 111.15 181.31 Z M 111.13 182.28 L 111.10 183.30 C 111.07 184.24 111.82 185.03 112.77 185.06 C 113.72 185.08 114.51 184.34 114.53 183.39 L 114.56 182.37 C 114.59 181.43 113.84 180.64 112.89 180.61 C 111.94 180.58 111.15 181.33 111.13 182.28 Z M 111.11 183.33 L 111.11 184.48 C 111.10 185.42 111.86 186.19 112.80 186.19 C 113.74 186.20 114.50 185.44 114.51 184.50 L 114.52 183.35 C 114.53 182.41 113.77 181.65 112.83 181.64 C 111.89 181.63 111.12 182.39 111.11 183.33 Z M 111.13 184.59 L 111.18 185.55 C 111.23 186.48 112.03 187.19 112.96 187.14 C 113.89 187.09 114.60 186.29 114.54 185.36 L 114.49 184.40 C 114.44 183.47 113.64 182.76 112.71 182.81 C 111.78 182.86 111.07 183.66 111.13 184.59 Z M 111.22 185.75 L 111.37 186.60 C 111.54 187.50 112.40 188.11 113.31 187.94 C 114.21 187.78 114.82 186.92 114.65 186.01 L 114.50 185.17 C 114.34 184.26 113.48 183.66 112.57 183.82 C 111.67 183.98 111.06 184.84 111.22 185.75 Z M 111.47 186.89 L 111.84 187.86 C 112.17 188.71 113.12 189.14 113.97 188.81 C 114.82 188.49 115.25 187.53 114.93 186.68 L 114.56 185.71 C 114.23 184.86 113.28 184.44 112.42 184.76 C 111.57 185.09 111.15 186.04 111.47 186.89 Z M 112.04 188.22 L 112.66 189.09 C 113.19 189.83 114.22 190.00 114.96 189.48 C 115.70 188.95 115.87 187.92 115.34 187.18 L 114.72 186.32 C 114.19 185.58 113.17 185.40 112.43 185.93 C 111.69 186.46 111.52 187.48 112.04 188.22 Z M 113.26 189.60 L 113.96 189.95 C 114.77 190.36 115.75 190.04 116.16 189.23 C 116.57 188.43 116.25 187.44 115.44 187.03 L 114.74 186.68 C 113.94 186.27 112.95 186.59 112.54 187.40 C 112.13 188.20 112.45 189.19 113.26 189.60 Z M 115.40 189.97 L 115.99 189.69 C 116.81 189.31 117.16 188.33 116.77 187.51 C 116.38 186.70 115.41 186.35 114.59 186.73 L 114.00 187.01 C 113.18 187.40 112.83 188.38 113.22 189.19 C 113.61 190.01 114.58 190.36 115.40 189.97 Z M 116.58 189.22 L 117.18 188.45 C 117.74 187.73 117.61 186.70 116.90 186.15 C 116.18 185.59 115.16 185.72 114.60 186.44 L 114.00 187.21 C 113.45 187.92 113.57 188.95 114.29 189.50 C 115.00 190.06 116.03 189.93 116.58 189.22 Z M 117.31 188.26 L 117.97 187.12 C 118.42 186.34 118.15 185.34 117.37 184.89 C 116.59 184.43 115.59 184.70 115.14 185.48 L 114.48 186.62 C 114.02 187.40 114.29 188.40 115.07 188.86 C 115.85 189.31 116.86 189.04 117.31 188.26 Z M 117.99 187.09 L 118.42 186.29 C 118.86 185.50 118.56 184.51 117.77 184.07 C 116.98 183.64 115.98 183.93 115.55 184.72 L 115.11 185.52 C 114.68 186.31 114.97 187.31 115.77 187.74 C 116.56 188.17 117.55 187.88 117.99 187.09 Z M 118.43 186.29 L 118.89 185.43 C 119.32 184.63 119.03 183.64 118.23 183.21 C 117.44 182.78 116.44 183.07 116.01 183.87 L 115.55 184.73 C 115.12 185.52 115.41 186.52 116.21 186.95 C 117.00 187.38 118.00 187.08 118.43 186.29 Z M 118.89 185.43 L 119.38 184.52 C 119.81 183.73 119.51 182.73 118.72 182.30 C 117.92 181.87 116.93 182.17 116.50 182.97 L 116.01 183.87 C 115.58 184.66 115.88 185.66 116.67 186.09 C 117.47 186.52 118.46 186.22 118.89 185.43 Z M 119.38 184.53 L 119.88 183.61 C 120.31 182.82 120.02 181.82 119.23 181.39 C 118.43 180.96 117.44 181.25 117.01 182.04 L 116.50 182.96 C 116.07 183.75 116.36 184.75 117.16 185.18 C 117.95 185.61 118.94 185.32 119.38 184.53 Z M 119.87 183.62 L 120.38 182.71 C 120.82 181.92 120.53 180.92 119.74 180.48 C 118.96 180.05 117.96 180.33 117.52 181.12 L 117.01 182.03 C 116.57 182.82 116.86 183.82 117.65 184.26 C 118.44 184.70 119.43 184.41 119.87 183.62 Z M 120.37 182.73 L 120.84 181.91 C 121.29 181.12 121.01 180.12 120.23 179.68 C 119.44 179.23 118.44 179.50 118.00 180.28 L 117.53 181.10 C 117.08 181.89 117.35 182.89 118.14 183.34 C 118.92 183.78 119.92 183.51 120.37 182.73 Z M 120.83 181.93 L 121.30 181.12 C 121.76 180.34 121.50 179.34 120.72 178.88 C 119.94 178.42 118.94 178.68 118.48 179.46 L 118.01 180.27 C 117.55 181.05 117.81 182.05 118.59 182.51 C 119.37 182.97 120.37 182.71 120.83 181.93 Z M 121.29 181.14 L 121.78 180.32 C 122.25 179.55 122.00 178.54 121.23 178.08 C 120.45 177.61 119.45 177.86 118.98 178.63 L 118.49 179.45 C 118.02 180.22 118.27 181.23 119.04 181.69 C 119.82 182.16 120.82 181.91 121.29 181.14 Z M 121.77 180.34 L 122.30 179.49 C 122.78 178.72 122.54 177.71 121.77 177.24 C 121.00 176.76 119.99 177.00 119.52 177.77 L 118.99 178.62 C 118.51 179.38 118.75 180.39 119.52 180.87 C 120.29 181.35 121.30 181.11 121.77 180.34 Z M 122.29 179.50 L 122.87 178.59 C 123.35 177.83 123.12 176.82 122.36 176.33 C 121.59 175.85 120.58 176.08 120.10 176.84 L 119.52 177.75 C 119.04 178.52 119.27 179.53 120.03 180.01 C 120.80 180.49 121.81 180.27 122.29 179.50 Z M 122.86 178.60 L 123.44 177.70 C 123.93 176.94 123.71 175.93 122.94 175.44 C 122.18 174.95 121.17 175.17 120.68 175.93 L 120.10 176.84 C 119.62 177.60 119.84 178.61 120.60 179.10 C 121.36 179.58 122.37 179.36 122.86 178.60 Z M 123.43 177.71 L 123.96 176.90 C 124.45 176.14 124.23 175.13 123.47 174.64 C 122.71 174.14 121.70 174.36 121.21 175.12 L 120.69 175.93 C 120.20 176.68 120.41 177.70 121.17 178.19 C 121.93 178.68 122.94 178.46 123.43 177.71 Z M 123.95 176.91 L 124.50 176.07 C 125.00 175.31 124.78 174.29 124.03 173.80 C 123.27 173.31 122.26 173.52 121.76 174.27 L 121.21 175.11 C 120.72 175.87 120.93 176.89 121.69 177.38 C 122.44 177.88 123.46 177.66 123.95 176.91 Z M 124.50 176.07 L 125.07 175.21 C 125.56 174.46 125.36 173.44 124.60 172.94 C 123.85 172.45 122.83 172.65 122.33 173.41 L 121.77 174.27 C 121.27 175.02 121.48 176.04 122.23 176.54 C 122.98 177.03 124.00 176.83 124.50 176.07 Z M 125.06 175.22 L 125.64 174.36 C 126.14 173.60 125.94 172.59 125.18 172.08 C 124.43 171.58 123.42 171.79 122.91 172.54 L 122.34 173.40 C 121.84 174.15 122.04 175.17 122.79 175.67 C 123.54 176.17 124.56 175.97 125.06 175.22 Z M 125.63 174.36 L 126.21 173.51 C 126.71 172.76 126.52 171.74 125.77 171.24 C 125.02 170.73 124.00 170.93 123.50 171.68 L 122.92 172.53 C 122.41 173.28 122.61 174.30 123.36 174.80 C 124.11 175.31 125.13 175.11 125.63 174.36 Z M 126.20 173.52 L 126.77 172.69 C 127.28 171.94 127.09 170.93 126.34 170.41 C 125.60 169.90 124.58 170.09 124.07 170.84 L 123.50 171.67 C 122.99 172.41 123.18 173.43 123.93 173.94 C 124.67 174.45 125.69 174.26 126.20 173.52 Z M 126.76 172.70 L 127.32 171.90 C 127.84 171.16 127.65 170.14 126.91 169.62 C 126.17 169.10 125.15 169.29 124.63 170.03 L 124.08 170.83 C 123.56 171.57 123.74 172.59 124.48 173.11 C 125.22 173.63 126.25 173.44 126.76 172.70 Z M 127.31 171.91 L 127.99 170.97 C 128.51 170.23 128.34 169.21 127.60 168.68 C 126.87 168.16 125.85 168.33 125.32 169.06 L 124.64 170.01 C 124.12 170.75 124.29 171.77 125.03 172.30 C 125.76 172.82 126.78 172.65 127.31 171.91 Z M 127.97 170.98 L 128.61 170.12 C 129.14 169.39 128.99 168.36 128.26 167.83 C 127.53 167.29 126.50 167.45 125.97 168.18 L 125.33 169.05 C 124.80 169.78 124.96 170.80 125.68 171.33 C 126.41 171.87 127.44 171.71 127.97 170.98 Z M 128.60 170.13 L 129.20 169.34 C 129.74 168.61 129.60 167.59 128.88 167.04 C 128.16 166.50 127.13 166.64 126.59 167.36 L 125.98 168.16 C 125.44 168.88 125.58 169.91 126.30 170.45 C 127.02 171.00 128.05 170.86 128.60 170.13 Z M 129.18 169.35 L 129.76 168.62 C 130.31 167.90 130.18 166.87 129.47 166.32 C 128.76 165.76 127.73 165.89 127.17 166.61 L 126.60 167.35 C 126.04 168.06 126.17 169.09 126.89 169.64 C 127.60 170.20 128.63 170.07 129.18 169.35 Z M 129.74 168.63 L 130.30 167.94 C 130.86 167.23 130.75 166.20 130.04 165.64 C 129.33 165.08 128.30 165.19 127.74 165.90 L 127.19 166.59 C 126.62 167.30 126.74 168.33 127.44 168.89 C 128.15 169.45 129.18 169.34 129.74 168.63 Z M 130.28 167.96 L 130.88 167.22 C 131.46 166.53 131.35 165.49 130.65 164.92 C 129.96 164.35 128.92 164.45 128.35 165.15 L 127.75 165.88 C 127.18 166.58 127.28 167.61 127.98 168.19 C 128.68 168.76 129.71 168.66 130.28 167.96 Z M 130.86 167.25 L 131.52 166.47 C 132.11 165.79 132.03 164.75 131.34 164.17 C 130.65 163.58 129.62 163.66 129.03 164.35 L 128.37 165.13 C 127.79 165.82 127.87 166.85 128.56 167.43 C 129.25 168.02 130.28 167.94 130.86 167.25 Z M 131.49 166.51 L 132.15 165.78 C 132.76 165.11 132.71 164.07 132.04 163.47 C 131.37 162.86 130.33 162.91 129.73 163.58 L 129.06 164.31 C 128.46 164.98 128.51 166.02 129.18 166.63 C 129.85 167.23 130.88 167.18 131.49 166.51 Z M 132.11 165.83 L 132.79 165.13 C 133.43 164.49 133.42 163.45 132.78 162.82 C 132.14 162.18 131.10 162.19 130.47 162.83 L 129.78 163.53 C 129.14 164.17 129.15 165.21 129.79 165.84 C 130.43 166.48 131.47 166.47 132.11 165.83 Z M 132.73 165.19 L 133.47 164.52 C 134.14 163.91 134.18 162.88 133.58 162.21 C 132.97 161.54 131.93 161.49 131.26 162.10 L 130.53 162.77 C 129.86 163.38 129.81 164.42 130.42 165.08 C 131.03 165.75 132.06 165.80 132.73 165.19 Z M 133.39 164.60 L 134.32 163.86 C 135.03 163.30 135.15 162.26 134.58 161.55 C 134.02 160.84 132.98 160.72 132.27 161.29 L 131.34 162.02 C 130.63 162.59 130.51 163.62 131.08 164.34 C 131.64 165.05 132.68 165.17 133.39 164.60 Z M 134.19 163.98 L 135.12 163.38 C 135.89 162.89 136.12 161.86 135.62 161.08 C 135.12 160.31 134.09 160.08 133.32 160.58 L 132.40 161.17 C 131.62 161.67 131.39 162.70 131.89 163.47 C 132.39 164.25 133.42 164.47 134.19 163.98 Z M 134.86 163.54 L 135.70 163.20 C 136.56 162.84 136.97 161.86 136.61 161.00 C 136.26 160.14 135.28 159.73 134.42 160.08 L 133.58 160.42 C 132.72 160.78 132.31 161.76 132.66 162.62 C 133.01 163.48 134.00 163.89 134.86 163.54 Z M 134.99 163.34 L 135.70 163.37 C 136.64 163.41 137.43 162.67 137.47 161.73 C 137.51 160.79 136.77 160.00 135.83 159.96 L 135.12 159.94 C 134.18 159.90 133.39 160.63 133.35 161.57 C 133.32 162.51 134.05 163.30 134.99 163.34 Z M 134.48 162.81 L 135.02 163.42 C 135.65 164.13 136.74 164.20 137.45 163.57 C 138.17 162.94 138.23 161.85 137.60 161.13 L 137.06 160.52 C 136.43 159.81 135.34 159.74 134.62 160.38 C 133.91 161.01 133.85 162.10 134.48 162.81 Z M 134.63 162.77 L 134.93 163.78 C 135.20 164.71 136.17 165.24 137.09 164.97 C 138.02 164.70 138.55 163.73 138.28 162.81 L 137.99 161.79 C 137.72 160.86 136.75 160.33 135.82 160.60 C 134.89 160.87 134.36 161.84 134.63 162.77 Z M 134.86 163.56 L 135.02 164.65 C 135.17 165.62 136.06 166.29 137.03 166.14 C 138.00 166.00 138.66 165.10 138.52 164.13 L 138.35 163.03 C 138.21 162.07 137.31 161.40 136.35 161.55 C 135.38 161.69 134.71 162.59 134.86 163.56 Z M 135.00 164.60 L 135.12 165.59 C 135.24 166.57 136.12 167.27 137.09 167.15 C 138.07 167.04 138.77 166.15 138.65 165.18 L 138.53 164.19 C 138.42 163.21 137.54 162.51 136.56 162.63 C 135.59 162.74 134.89 163.63 135.00 164.60 Z M 135.12 165.59 L 135.23 166.58 C 135.35 167.56 136.23 168.26 137.21 168.14 C 138.18 168.03 138.88 167.15 138.77 166.17 L 138.66 165.18 C 138.54 164.20 137.66 163.50 136.68 163.62 C 135.70 163.73 135.00 164.61 135.12 165.59 Z M 135.23 166.62 L 135.37 167.61 C 135.50 168.59 136.41 169.27 137.38 169.14 C 138.36 169.00 139.04 168.10 138.91 167.12 L 138.77 166.13 C 138.64 165.15 137.73 164.47 136.76 164.61 C 135.78 164.74 135.10 165.64 135.23 166.62 Z M 135.38 167.68 L 135.55 168.66 C 135.73 169.64 136.66 170.28 137.63 170.11 C 138.60 169.94 139.25 169.01 139.07 168.04 L 138.90 167.05 C 138.73 166.08 137.80 165.43 136.82 165.61 C 135.85 165.78 135.20 166.71 135.38 167.68 Z M 135.57 168.74 L 135.79 169.72 C 136.00 170.69 136.96 171.29 137.92 171.08 C 138.89 170.86 139.50 169.90 139.28 168.94 L 139.06 167.96 C 138.84 167.00 137.89 166.39 136.92 166.60 C 135.96 166.82 135.35 167.78 135.57 168.74 Z M 135.81 169.80 L 136.07 170.77 C 136.33 171.72 137.32 172.28 138.27 172.02 C 139.22 171.76 139.78 170.78 139.52 169.82 L 139.26 168.86 C 139.00 167.90 138.01 167.34 137.06 167.60 C 136.11 167.86 135.55 168.85 135.81 169.80 Z M 136.10 170.86 L 136.40 171.79 C 136.71 172.73 137.73 173.25 138.67 172.94 C 139.61 172.63 140.12 171.61 139.81 170.67 L 139.50 169.74 C 139.19 168.80 138.18 168.29 137.24 168.60 C 136.30 168.90 135.79 169.92 136.10 170.86 Z M 136.44 171.90 L 136.81 172.81 C 137.18 173.73 138.22 174.18 139.14 173.81 C 140.06 173.44 140.50 172.40 140.13 171.48 L 139.77 170.57 C 139.40 169.65 138.36 169.20 137.44 169.57 C 136.52 169.94 136.08 170.98 136.44 171.90 Z M 136.87 172.94 L 137.31 173.83 C 137.75 174.72 138.83 175.08 139.71 174.64 C 140.60 174.20 140.96 173.12 140.52 172.24 L 140.07 171.35 C 139.63 170.46 138.56 170.10 137.67 170.54 C 136.79 170.98 136.43 172.06 136.87 172.94 Z M 137.39 173.98 L 137.93 174.85 C 138.45 175.69 139.55 175.96 140.40 175.44 C 141.24 174.92 141.50 173.81 140.98 172.97 L 140.44 172.10 C 139.92 171.25 138.82 170.99 137.97 171.51 C 137.13 172.03 136.87 173.13 137.39 173.98 Z M 138.02 174.98 L 138.62 175.79 C 139.21 176.58 140.33 176.74 141.12 176.15 C 141.92 175.56 142.08 174.44 141.49 173.65 L 140.89 172.84 C 140.30 172.05 139.18 171.89 138.39 172.48 C 137.59 173.07 137.43 174.19 138.02 174.98 Z M 138.71 175.89 L 139.38 176.66 C 140.03 177.41 141.16 177.48 141.90 176.83 C 142.65 176.18 142.72 175.05 142.07 174.31 L 141.40 173.54 C 140.75 172.79 139.62 172.72 138.88 173.37 C 138.13 174.02 138.06 175.15 138.71 175.89 Z M 139.48 176.76 L 140.19 177.47 C 140.90 178.16 142.03 178.14 142.72 177.44 C 143.41 176.73 143.40 175.60 142.69 174.91 L 141.98 174.20 C 141.27 173.51 140.14 173.53 139.45 174.23 C 138.76 174.94 138.77 176.07 139.48 176.76 Z M 140.32 177.57 L 141.09 178.20 C 141.86 178.83 142.98 178.71 143.61 177.95 C 144.23 177.18 144.11 176.05 143.35 175.43 L 142.57 174.80 C 141.81 174.18 140.68 174.29 140.06 175.06 C 139.43 175.82 139.55 176.95 140.32 177.57 Z M 141.26 178.32 L 142.14 178.88 C 142.97 179.41 144.07 179.16 144.60 178.33 C 145.13 177.50 144.88 176.40 144.05 175.87 L 143.18 175.31 C 142.35 174.78 141.25 175.03 140.72 175.86 C 140.19 176.69 140.43 177.79 141.26 178.32 Z M 142.34 178.99 L 143.23 179.40 C 144.12 179.82 145.17 179.43 145.59 178.54 C 146.01 177.65 145.62 176.60 144.73 176.18 L 143.85 175.76 C 142.96 175.35 141.90 175.73 141.49 176.62 C 141.07 177.51 141.45 178.57 142.34 178.99 Z M 143.44 179.48 L 144.34 179.77 C 145.27 180.07 146.27 179.56 146.57 178.63 C 146.88 177.70 146.36 176.70 145.43 176.40 L 144.53 176.10 C 143.59 175.80 142.60 176.31 142.29 177.24 C 141.99 178.18 142.50 179.18 143.44 179.48 Z M 144.53 179.82 L 145.49 180.01 C 146.44 180.21 147.38 179.59 147.57 178.63 C 147.77 177.67 147.15 176.74 146.19 176.54 L 145.24 176.35 C 144.28 176.15 143.35 176.77 143.15 177.73 C 142.96 178.69 143.58 179.62 144.53 179.82 Z M 145.64 180.04 L 146.63 180.14 C 147.60 180.25 148.48 179.55 148.59 178.58 C 148.69 177.61 147.99 176.73 147.02 176.63 L 146.03 176.52 C 145.06 176.41 144.19 177.11 144.08 178.08 C 143.97 179.05 144.67 179.93 145.64 180.04 Z M 146.75 180.15 L 147.78 180.20 C 148.76 180.24 149.59 179.49 149.63 178.51 C 149.67 177.53 148.92 176.71 147.94 176.66 L 146.91 176.62 C 145.93 176.57 145.10 177.33 145.06 178.31 C 145.02 179.28 145.77 180.11 146.75 180.15 Z M 147.86 180.20 L 148.81 180.20 C 149.79 180.20 150.58 179.41 150.58 178.43 C 150.58 177.45 149.79 176.66 148.81 176.66 L 147.86 176.66 C 146.88 176.66 146.09 177.46 146.09 178.43 C 146.09 179.41 146.89 180.20 147.86 180.20 Z M 148.92 180.19 L 149.91 180.13 C 150.88 180.07 151.62 179.23 151.56 178.26 C 151.50 177.29 150.66 176.55 149.69 176.61 L 148.70 176.67 C 147.73 176.73 146.99 177.57 147.05 178.54 C 147.11 179.51 147.95 180.25 148.92 180.19 Z M 150.05 180.11 L 151.07 179.96 C 152.03 179.82 152.70 178.92 152.55 177.96 C 152.41 177.00 151.52 176.33 150.55 176.48 L 149.54 176.63 C 148.58 176.77 147.91 177.67 148.05 178.63 C 148.20 179.59 149.09 180.26 150.05 180.11 Z M 151.24 179.93 L 152.20 179.68 C 153.14 179.45 153.71 178.49 153.47 177.55 C 153.23 176.60 152.28 176.03 151.33 176.27 L 150.38 176.51 C 149.44 176.75 148.87 177.71 149.11 178.65 C 149.34 179.59 150.30 180.16 151.24 179.93 Z M 152.36 179.63 L 153.21 179.33 C 154.13 179.00 154.60 177.99 154.27 177.08 C 153.94 176.16 152.94 175.69 152.02 176.02 L 151.17 176.32 C 150.26 176.65 149.78 177.66 150.11 178.57 C 150.44 179.49 151.45 179.96 152.36 179.63 Z M 153.35 179.27 L 154.23 178.87 C 155.11 178.47 155.50 177.43 155.10 176.54 C 154.70 175.66 153.65 175.27 152.77 175.67 L 151.89 176.07 C 151.01 176.47 150.62 177.52 151.02 178.40 C 151.42 179.28 152.46 179.67 153.35 179.27 Z M 154.34 178.81 L 155.25 178.32 C 156.11 177.85 156.42 176.78 155.95 175.93 C 155.49 175.08 154.42 174.77 153.57 175.23 L 152.66 175.73 C 151.80 176.19 151.49 177.26 151.95 178.11 C 152.42 178.97 153.49 179.28 154.34 178.81 Z M 155.35 178.26 L 156.30 177.66 C 157.13 177.14 157.37 176.06 156.86 175.24 C 156.34 174.42 155.26 174.17 154.44 174.68 L 153.48 175.29 C 152.66 175.80 152.41 176.89 152.92 177.71 C 153.44 178.53 154.52 178.78 155.35 178.26 Z M 156.37 177.61 L 157.18 177.05 C 157.98 176.50 158.18 175.41 157.62 174.61 C 157.07 173.81 155.98 173.62 155.18 174.17 L 154.37 174.73 C 153.57 175.28 153.38 176.37 153.93 177.17 C 154.48 177.97 155.57 178.17 156.37 177.61 Z M 157.23 177.02 L 158.05 176.41 C 158.82 175.83 158.99 174.74 158.41 173.96 C 157.83 173.18 156.73 173.02 155.96 173.59 L 155.14 174.20 C 154.36 174.78 154.20 175.88 154.77 176.66 C 155.35 177.43 156.45 177.60 157.23 177.02 Z M 158.08 176.38 L 158.90 175.74 C 159.66 175.15 159.79 174.04 159.19 173.28 C 158.60 172.52 157.49 172.39 156.73 172.98 L 155.92 173.62 C 155.16 174.22 155.02 175.32 155.62 176.08 C 156.22 176.85 157.32 176.98 158.08 176.38 Z M 158.93 175.72 L 159.72 175.07 C 160.46 174.45 160.57 173.35 159.95 172.60 C 159.34 171.85 158.24 171.75 157.49 172.36 L 156.70 173.01 C 155.95 173.63 155.85 174.73 156.46 175.48 C 157.08 176.22 158.18 176.33 158.93 175.72 Z M 159.75 175.04 L 160.49 174.40 C 161.22 173.76 161.30 172.66 160.67 171.93 C 160.04 171.20 158.93 171.12 158.20 171.75 L 157.46 172.39 C 156.73 173.02 156.65 174.13 157.28 174.86 C 157.91 175.59 159.02 175.67 159.75 175.04 Z M 160.52 174.36 L 161.28 173.67 C 161.99 173.02 162.05 171.92 161.40 171.20 C 160.75 170.49 159.64 170.44 158.93 171.09 L 158.17 171.78 C 157.45 172.43 157.40 173.54 158.05 174.25 C 158.70 174.96 159.81 175.01 160.52 174.36 Z M 161.32 173.63 L 162.08 172.88 C 162.77 172.21 162.78 171.10 162.11 170.42 C 161.44 169.73 160.33 169.72 159.64 170.39 L 158.88 171.14 C 158.20 171.81 158.18 172.91 158.86 173.60 C 159.53 174.29 160.64 174.30 161.32 173.63 Z M 162.14 172.82 L 162.81 172.10 C 163.46 171.40 163.42 170.30 162.72 169.64 C 162.01 168.99 160.91 169.03 160.26 169.73 L 159.59 170.45 C 158.94 171.15 158.98 172.25 159.68 172.91 C 160.38 173.56 161.48 173.52 162.14 172.82 Z M 162.86 172.03 L 163.47 171.31 C 164.08 170.58 163.99 169.48 163.25 168.87 C 162.52 168.25 161.42 168.35 160.81 169.08 L 160.20 169.80 C 159.59 170.54 159.69 171.63 160.42 172.25 C 161.15 172.86 162.25 172.77 162.86 172.03 Z M 163.52 171.24 L 164.09 170.49 C 164.66 169.73 164.51 168.64 163.75 168.06 C 162.99 167.49 161.91 167.64 161.33 168.40 L 160.76 169.15 C 160.18 169.91 160.33 171.00 161.09 171.58 C 161.85 172.15 162.94 172.00 163.52 171.24 Z M 164.13 170.41 L 164.70 169.58 C 165.23 168.80 165.03 167.73 164.24 167.19 C 163.46 166.66 162.39 166.86 161.85 167.64 L 161.29 168.47 C 160.75 169.26 160.95 170.33 161.74 170.87 C 162.52 171.40 163.60 171.20 164.13 170.41 Z M 164.75 169.49 L 165.26 168.62 C 165.75 167.81 165.48 166.75 164.67 166.27 C 163.85 165.79 162.80 166.05 162.32 166.87 L 161.80 167.74 C 161.32 168.55 161.58 169.60 162.40 170.09 C 163.21 170.57 164.26 170.30 164.75 169.49 Z M 165.32 168.50 L 165.76 167.60 C 166.18 166.75 165.83 165.73 164.98 165.31 C 164.14 164.90 163.12 165.25 162.70 166.09 L 162.26 166.99 C 161.84 167.84 162.19 168.86 163.04 169.28 C 163.88 169.69 164.91 169.34 165.32 168.50 Z M 165.83 167.43 L 166.17 166.50 C 166.50 165.62 166.05 164.64 165.17 164.32 C 164.29 163.99 163.31 164.44 162.98 165.32 L 162.64 166.26 C 162.31 167.14 162.76 168.11 163.64 168.44 C 164.52 168.76 165.50 168.31 165.83 167.43 Z M 166.23 166.27 L 166.46 165.20 C 166.66 164.28 166.08 163.38 165.17 163.18 C 164.25 162.98 163.35 163.56 163.16 164.48 L 162.92 165.55 C 162.72 166.47 163.30 167.37 164.22 167.57 C 165.13 167.76 166.03 167.18 166.23 166.27 Z M 166.50 164.88 L 166.52 163.86 C 166.54 162.93 165.81 162.16 164.88 162.14 C 163.95 162.11 163.17 162.85 163.15 163.78 L 163.12 164.80 C 163.10 165.73 163.84 166.50 164.77 166.52 C 165.70 166.55 166.47 165.81 166.50 164.88 Z M 166.47 163.43 L 166.26 162.54 C 166.04 161.64 165.13 161.08 164.23 161.30 C 163.33 161.52 162.77 162.42 162.99 163.33 L 163.20 164.22 C 163.42 165.12 164.33 165.67 165.23 165.46 C 166.13 165.24 166.69 164.33 166.47 163.43 Z M 166.00 161.98 L 165.49 161.25 C 164.97 160.49 163.92 160.31 163.16 160.83 C 162.40 161.36 162.22 162.40 162.74 163.16 L 163.25 163.89 C 163.77 164.65 164.82 164.84 165.58 164.31 C 166.34 163.78 166.52 162.74 166.00 161.98 Z M 165.07 160.84 L 164.30 160.30 C 163.54 159.77 162.50 159.96 161.97 160.71 C 161.45 161.47 161.63 162.51 162.39 163.04 L 163.16 163.58 C 163.92 164.10 164.96 163.92 165.49 163.16 C 166.01 162.41 165.83 161.37 165.07 160.84 Z M 163.99 160.14 L 163.04 159.73 C 162.19 159.38 161.22 159.77 160.86 160.62 C 160.50 161.46 160.90 162.44 161.74 162.80 L 162.70 163.20 C 163.54 163.56 164.52 163.16 164.87 162.31 C 165.23 161.47 164.83 160.49 163.99 160.14 Z M 162.90 159.69 L 161.88 159.36 C 161.01 159.08 160.08 159.57 159.80 160.44 C 159.52 161.31 160.00 162.24 160.87 162.52 L 161.89 162.84 C 162.76 163.12 163.69 162.64 163.97 161.77 C 164.25 160.90 163.77 159.97 162.90 159.69 Z M 161.84 159.35 L 160.86 159.07 C 159.98 158.81 159.06 159.32 158.81 160.20 C 158.55 161.08 159.06 162.00 159.94 162.25 L 160.92 162.53 C 161.80 162.79 162.72 162.28 162.97 161.40 C 163.22 160.52 162.72 159.60 161.84 159.35 Z M 160.84 159.06 L 159.86 158.79 C 158.98 158.55 158.06 159.07 157.82 159.96 C 157.58 160.84 158.10 161.75 158.99 162.00 L 159.96 162.26 C 160.85 162.50 161.76 161.98 162.00 161.10 C 162.24 160.21 161.72 159.30 160.84 159.06 Z M 159.85 158.78 L 158.91 158.53 C 158.02 158.29 157.10 158.82 156.87 159.71 C 156.63 160.60 157.16 161.52 158.05 161.75 L 159.00 162.00 C 159.89 162.24 160.80 161.71 161.04 160.82 C 161.27 159.93 160.74 159.02 159.85 158.78 Z M 158.91 158.52 L 157.92 158.26 C 157.02 158.02 156.11 158.56 155.87 159.45 C 155.63 160.34 156.17 161.26 157.06 161.50 L 158.05 161.76 C 158.94 162.00 159.86 161.46 160.10 160.57 C 160.33 159.68 159.80 158.76 158.91 158.52 Z M 157.90 158.24 L 156.93 158.00 C 156.03 157.77 155.11 158.31 154.88 159.22 C 154.65 160.12 155.20 161.04 156.10 161.27 L 157.07 161.52 C 157.98 161.75 158.90 161.20 159.13 160.30 C 159.36 159.39 158.81 158.47 157.90 158.24 Z M 156.89 157.97 L 155.94 157.76 C 155.02 157.55 154.11 158.13 153.90 159.05 C 153.70 159.97 154.28 160.88 155.20 161.08 L 156.15 161.29 C 157.06 161.50 157.98 160.92 158.18 160.00 C 158.38 159.08 157.80 158.17 156.89 157.97 Z M 155.85 157.73 L 154.60 157.52 C 153.67 157.37 152.78 158.00 152.63 158.94 C 152.47 159.87 153.11 160.76 154.04 160.91 L 155.29 161.12 C 156.22 161.27 157.11 160.64 157.26 159.70 C 157.41 158.76 156.78 157.88 155.85 157.73 Z M 154.52 157.50 L 153.55 157.39 C 152.61 157.28 151.75 157.97 151.64 158.92 C 151.54 159.86 152.22 160.72 153.17 160.83 L 154.13 160.93 C 155.08 161.04 155.94 160.36 156.04 159.41 C 156.15 158.46 155.46 157.60 154.52 157.50 Z M 153.09 160.82 L 153.25 160.85 C 154.20 161.00 155.09 160.36 155.24 159.41 C 155.39 158.46 154.75 157.57 153.80 157.42 L 153.64 157.39 C 152.69 157.24 151.80 157.89 151.65 158.83 C 151.50 159.78 152.14 160.67 153.09 160.82 Z M 153.45 160.87 L 154.41 160.91 C 155.37 160.96 156.18 160.21 156.23 159.25 C 156.27 158.29 155.52 157.48 154.56 157.44 L 153.60 157.40 C 152.64 157.36 151.83 158.10 151.79 159.06 C 151.75 160.02 152.49 160.83 153.45 160.87 Z M 154.59 160.91 L 155.96 160.83 C 156.92 160.77 157.65 159.95 157.59 158.99 C 157.53 158.03 156.71 157.30 155.75 157.36 L 154.38 157.44 C 153.42 157.50 152.69 158.32 152.75 159.28 C 152.81 160.24 153.64 160.97 154.59 160.91 Z M 156.18 160.80 L 157.14 160.62 C 158.09 160.43 158.71 159.52 158.52 158.58 C 158.34 157.64 157.43 157.02 156.49 157.20 L 155.52 157.38 C 154.58 157.57 153.96 158.48 154.14 159.42 C 154.33 160.36 155.24 160.98 156.18 160.80 Z M 157.31 160.58 L 158.25 160.30 C 159.18 160.03 159.71 159.06 159.44 158.14 C 159.16 157.22 158.20 156.69 157.28 156.96 L 156.33 157.24 C 155.40 157.51 154.88 158.47 155.15 159.40 C 155.42 160.32 156.38 160.85 157.31 160.58 Z M 158.37 160.26 L 159.32 159.91 C 160.22 159.57 160.68 158.57 160.35 157.67 C 160.01 156.77 159.01 156.31 158.11 156.64 L 157.16 157.00 C 156.26 157.33 155.80 158.34 156.13 159.24 C 156.47 160.14 157.47 160.60 158.37 160.26 Z M 159.40 159.88 L 160.35 159.47 C 161.23 159.09 161.64 158.06 161.26 157.18 C 160.88 156.30 159.85 155.89 158.97 156.27 L 158.03 156.68 C 157.14 157.06 156.73 158.08 157.12 158.97 C 157.50 159.85 158.52 160.26 159.40 159.88 Z M 160.40 159.44 L 161.26 159.04 C 162.13 158.63 162.51 157.59 162.10 156.72 C 161.69 155.85 160.65 155.48 159.78 155.89 L 158.92 156.29 C 158.05 156.70 157.67 157.74 158.08 158.61 C 158.49 159.48 159.53 159.85 160.40 159.44 Z M 161.30 159.02 L 162.16 158.59 C 163.02 158.16 163.37 157.12 162.94 156.26 C 162.52 155.39 161.47 155.04 160.61 155.47 L 159.74 155.90 C 158.88 156.33 158.53 157.38 158.96 158.24 C 159.39 159.10 160.44 159.45 161.30 159.02 Z M 162.18 158.58 L 163.07 158.12 C 163.93 157.68 164.26 156.63 163.82 155.78 C 163.38 154.92 162.33 154.58 161.47 155.03 L 160.59 155.48 C 159.73 155.93 159.39 156.98 159.84 157.83 C 160.28 158.69 161.33 159.02 162.18 158.58 Z M 163.08 158.12 L 164.01 157.63 C 164.86 157.19 165.19 156.13 164.74 155.28 C 164.30 154.43 163.24 154.10 162.39 154.54 L 161.46 155.03 C 160.61 155.48 160.28 156.53 160.73 157.38 C 161.17 158.24 162.23 158.57 163.08 158.12 Z M 164.01 157.64 L 164.93 157.15 C 165.78 156.71 166.11 155.65 165.67 154.80 C 165.22 153.95 164.16 153.62 163.31 154.06 L 162.39 154.54 C 161.54 154.99 161.21 156.04 161.65 156.90 C 162.10 157.75 163.15 158.08 164.01 157.64 Z M 164.92 157.16 L 165.83 156.69 C 166.69 156.24 167.02 155.19 166.58 154.33 C 166.13 153.48 165.08 153.14 164.22 153.59 L 163.32 154.06 C 162.46 154.50 162.13 155.56 162.57 156.41 C 163.01 157.27 164.07 157.60 164.92 157.16 Z M 165.83 156.69 L 166.75 156.22 C 167.60 155.78 167.94 154.72 167.50 153.86 C 167.06 153.01 166.00 152.67 165.15 153.11 L 164.23 153.58 C 163.37 154.02 163.03 155.08 163.47 155.94 C 163.92 156.79 164.97 157.13 165.83 156.69 Z M 166.74 156.22 L 167.64 155.76 C 168.50 155.32 168.85 154.27 168.41 153.41 C 167.97 152.55 166.91 152.21 166.05 152.65 L 165.15 153.11 C 164.29 153.55 163.95 154.60 164.39 155.46 C 164.83 156.32 165.88 156.66 166.74 156.22 Z M 167.64 155.77 L 168.50 155.33 C 169.36 154.89 169.71 153.84 169.27 152.98 C 168.84 152.11 167.78 151.77 166.92 152.21 L 166.06 152.64 C 165.19 153.08 164.85 154.13 165.29 154.99 C 165.72 155.86 166.77 156.20 167.64 155.77 Z M 168.49 155.34 L 169.38 154.90 C 170.24 154.46 170.59 153.41 170.16 152.54 C 169.73 151.68 168.68 151.33 167.81 151.76 L 166.93 152.20 C 166.06 152.63 165.71 153.68 166.14 154.55 C 166.57 155.42 167.63 155.77 168.49 155.34 Z M 169.36 154.91 L 170.24 154.48 C 171.11 154.06 171.47 153.01 171.05 152.13 C 170.63 151.26 169.58 150.90 168.70 151.32 L 167.83 151.75 C 166.95 152.17 166.59 153.22 167.01 154.09 C 167.44 154.97 168.49 155.33 169.36 154.91 Z M 170.21 154.50 L 171.08 154.09 C 171.96 153.68 172.34 152.64 171.93 151.76 C 171.52 150.88 170.48 150.49 169.60 150.90 L 168.73 151.31 C 167.85 151.72 167.47 152.76 167.88 153.64 C 168.29 154.52 169.33 154.90 170.21 154.50 Z M 171.05 154.11 L 171.96 153.71 C 172.85 153.31 173.26 152.27 172.87 151.38 C 172.47 150.49 171.43 150.09 170.54 150.48 L 169.63 150.89 C 168.74 151.28 168.33 152.32 168.73 153.21 C 169.12 154.10 170.16 154.50 171.05 154.11 Z M 171.93 153.72 L 172.85 153.34 C 173.75 152.96 174.17 151.93 173.80 151.03 C 173.42 150.13 172.39 149.71 171.49 150.09 L 170.57 150.47 C 169.68 150.84 169.25 151.88 169.63 152.77 C 170.00 153.67 171.04 154.10 171.93 153.72 Z M 172.83 153.35 L 173.69 153.00 C 174.59 152.64 175.03 151.61 174.66 150.71 C 174.30 149.80 173.27 149.37 172.37 149.73 L 171.51 150.08 C 170.61 150.44 170.17 151.47 170.53 152.37 C 170.90 153.27 171.92 153.71 172.83 153.35 Z M 173.67 153.01 L 174.59 152.65 C 175.50 152.30 175.94 151.28 175.59 150.37 C 175.24 149.46 174.21 149.01 173.31 149.36 L 172.39 149.72 C 171.48 150.08 171.03 151.10 171.38 152.01 C 171.74 152.91 172.76 153.36 173.67 153.01 Z M 174.57 152.66 L 175.53 152.29 C 176.45 151.95 176.90 150.93 176.56 150.02 C 176.21 149.11 175.20 148.65 174.28 148.99 L 173.32 149.36 C 172.41 149.70 171.95 150.72 172.30 151.63 C 172.64 152.54 173.66 153.00 174.57 152.66 Z M 175.52 152.30 L 176.51 151.93 C 177.42 151.60 177.89 150.58 177.55 149.67 C 177.22 148.75 176.20 148.29 175.29 148.62 L 174.30 148.99 C 173.38 149.33 172.92 150.34 173.25 151.25 C 173.59 152.17 174.61 152.64 175.52 152.30 Z M 176.49 151.94 L 177.49 151.58 C 178.41 151.25 178.88 150.24 178.55 149.32 C 178.23 148.41 177.21 147.93 176.30 148.26 L 175.30 148.62 C 174.38 148.95 173.91 149.96 174.24 150.88 C 174.57 151.79 175.58 152.27 176.49 151.94 Z M 177.48 151.59 L 178.45 151.25 C 179.37 150.93 179.86 149.92 179.54 149.00 C 179.22 148.08 178.21 147.59 177.29 147.91 L 176.31 148.25 C 175.39 148.57 174.90 149.58 175.22 150.50 C 175.55 151.42 176.55 151.91 177.48 151.59 Z M 178.43 151.26 L 179.40 150.94 C 180.33 150.63 180.83 149.62 180.52 148.69 C 180.20 147.77 179.20 147.27 178.27 147.58 L 177.31 147.90 C 176.38 148.21 175.88 149.22 176.19 150.14 C 176.50 151.07 177.50 151.57 178.43 151.26 Z M 179.37 150.95 L 180.33 150.65 C 181.27 150.35 181.78 149.35 181.49 148.41 C 181.19 147.48 180.19 146.96 179.25 147.26 L 178.30 147.56 C 177.36 147.86 176.84 148.86 177.14 149.80 C 177.44 150.73 178.44 151.25 179.37 150.95 Z M 180.30 150.66 L 181.25 150.38 C 182.19 150.10 182.73 149.10 182.45 148.16 C 182.17 147.22 181.18 146.68 180.23 146.96 L 179.28 147.24 C 178.34 147.53 177.80 148.52 178.09 149.46 C 178.37 150.40 179.36 150.94 180.30 150.66 Z M 181.21 150.39 L 182.16 150.14 C 183.11 149.87 183.67 148.89 183.41 147.94 C 183.15 146.99 182.16 146.43 181.21 146.69 L 180.27 146.95 C 179.32 147.21 178.76 148.19 179.02 149.14 C 179.28 150.09 180.26 150.65 181.21 150.39 Z M 182.11 150.15 L 183.08 149.92 C 184.04 149.68 184.63 148.71 184.39 147.75 C 184.15 146.78 183.18 146.20 182.22 146.43 L 181.26 146.67 C 180.29 146.91 179.71 147.88 179.94 148.84 C 180.18 149.80 181.15 150.39 182.11 150.15 Z M 183.03 149.93 L 184.03 149.72 C 185.00 149.51 185.62 148.55 185.42 147.58 C 185.21 146.61 184.25 145.99 183.28 146.20 L 182.27 146.41 C 181.30 146.62 180.68 147.58 180.89 148.55 C 181.10 149.52 182.06 150.14 183.03 149.93 Z M 183.98 149.73 L 184.98 149.55 C 185.96 149.37 186.61 148.43 186.43 147.45 C 186.25 146.47 185.31 145.82 184.32 146.00 L 183.33 146.18 C 182.35 146.36 181.70 147.30 181.88 148.28 C 182.06 149.27 183.00 149.92 183.98 149.73 Z M 184.93 149.57 L 185.91 149.42 C 186.90 149.26 187.58 148.34 187.42 147.35 C 187.27 146.36 186.34 145.68 185.36 145.83 L 184.37 145.98 C 183.38 146.14 182.71 147.06 182.86 148.05 C 183.01 149.04 183.94 149.72 184.93 149.57 Z M 185.86 149.43 L 186.83 149.31 C 187.83 149.18 188.53 148.27 188.41 147.27 C 188.28 146.27 187.37 145.57 186.37 145.70 L 185.40 145.82 C 184.41 145.94 183.70 146.86 183.83 147.85 C 183.95 148.85 184.86 149.56 185.86 149.43 Z M 186.78 149.32 L 187.79 149.22 C 188.79 149.12 189.52 148.22 189.42 147.22 C 189.32 146.22 188.43 145.48 187.42 145.58 L 186.42 145.68 C 185.41 145.78 184.68 146.68 184.78 147.68 C 184.88 148.69 185.78 149.42 186.78 149.32 Z M 187.72 149.23 L 188.81 149.16 C 189.82 149.10 190.59 148.23 190.53 147.21 C 190.46 146.20 189.59 145.43 188.58 145.50 L 187.49 145.57 C 186.48 145.63 185.71 146.51 185.77 147.52 C 185.84 148.53 186.71 149.30 187.72 149.23 Z M 188.71 149.18 L 189.74 149.17 C 190.76 149.16 191.58 148.33 191.58 147.31 C 191.57 146.29 190.74 145.47 189.72 145.48 L 188.68 145.48 C 187.66 145.49 186.84 146.32 186.85 147.34 C 186.85 148.36 187.69 149.18 188.71 149.18 Z M 189.58 149.17 L 190.54 149.25 C 191.56 149.33 192.45 148.57 192.54 147.55 C 192.62 146.53 191.86 145.63 190.84 145.55 L 189.88 145.47 C 188.86 145.39 187.96 146.15 187.88 147.17 C 187.80 148.20 188.56 149.09 189.58 149.17 Z M 190.30 149.23 L 191.15 149.41 C 192.16 149.62 193.15 148.98 193.37 147.97 C 193.58 146.96 192.94 145.97 191.93 145.76 L 191.08 145.58 C 190.07 145.36 189.08 146.00 188.86 147.01 C 188.65 148.02 189.29 149.01 190.30 149.23 Z M 190.78 149.30 L 191.72 149.71 C 192.67 150.13 193.77 149.70 194.19 148.75 C 194.61 147.81 194.18 146.70 193.23 146.28 L 192.30 145.87 C 191.35 145.45 190.25 145.88 189.83 146.83 C 189.41 147.77 189.84 148.88 190.78 149.30 Z M 191.35 149.50 L 192.13 150.09 C 192.96 150.71 194.14 150.54 194.76 149.71 C 195.38 148.88 195.22 147.70 194.39 147.08 L 193.61 146.49 C 192.77 145.87 191.60 146.04 190.97 146.87 C 190.35 147.70 190.52 148.88 191.35 149.50 Z M 191.89 149.88 L 192.57 150.60 C 193.29 151.35 194.48 151.38 195.23 150.67 C 195.99 149.95 196.02 148.75 195.30 148.00 L 194.62 147.28 C 193.91 146.53 192.71 146.50 191.96 147.21 C 191.20 147.93 191.17 149.12 191.89 149.88 Z M 192.45 150.47 L 193.06 151.23 C 193.70 152.05 194.89 152.19 195.71 151.55 C 196.53 150.90 196.67 149.71 196.02 148.89 L 195.42 148.13 C 194.77 147.31 193.59 147.17 192.77 147.81 C 191.95 148.46 191.81 149.65 192.45 150.47 Z M 192.99 151.14 L 193.55 151.95 C 194.14 152.81 195.32 153.02 196.18 152.42 C 197.04 151.83 197.25 150.65 196.65 149.79 L 196.09 148.98 C 195.50 148.12 194.32 147.91 193.46 148.51 C 192.60 149.11 192.39 150.29 192.99 151.14 Z M 193.48 151.86 L 194.01 152.72 C 194.55 153.61 195.72 153.89 196.61 153.35 C 197.51 152.81 197.79 151.64 197.24 150.75 L 196.72 149.88 C 196.17 148.99 195.01 148.71 194.11 149.25 C 193.22 149.80 192.94 150.96 193.48 151.86 Z M 193.95 152.62 L 194.43 153.53 C 194.92 154.45 196.06 154.81 196.99 154.32 C 197.92 153.83 198.27 152.69 197.78 151.76 L 197.30 150.85 C 196.82 149.92 195.67 149.57 194.74 150.06 C 193.82 150.54 193.46 151.69 193.95 152.62 Z M 194.38 153.43 L 194.75 154.23 C 195.18 155.19 196.30 155.61 197.26 155.18 C 198.21 154.74 198.63 153.62 198.20 152.67 L 197.83 151.86 C 197.40 150.90 196.28 150.48 195.32 150.92 C 194.37 151.35 193.95 152.47 194.38 153.43 Z M 194.71 154.15 L 195.06 155.02 C 195.44 155.99 196.55 156.47 197.52 156.08 C 198.49 155.69 198.97 154.59 198.58 153.62 L 198.24 152.75 C 197.85 151.78 196.75 151.30 195.77 151.69 C 194.80 152.07 194.32 153.18 194.71 154.15 Z M 195.03 154.95 L 195.37 155.90 C 195.72 156.89 196.80 157.41 197.78 157.06 C 198.77 156.71 199.29 155.63 198.94 154.64 L 198.61 153.69 C 198.26 152.70 197.18 152.18 196.19 152.53 C 195.20 152.88 194.68 153.96 195.03 154.95 Z M 195.35 155.85 L 195.69 156.92 C 196.01 157.91 197.08 158.46 198.07 158.14 C 199.07 157.82 199.62 156.76 199.30 155.76 L 198.96 154.69 C 198.64 153.70 197.57 153.15 196.58 153.47 C 195.58 153.79 195.03 154.85 195.35 155.85 Z M 195.68 156.88 L 195.97 157.85 C 196.27 158.86 197.33 159.42 198.33 159.12 C 199.33 158.82 199.90 157.77 199.60 156.77 L 199.31 155.79 C 199.01 154.79 197.95 154.22 196.95 154.52 C 195.95 154.82 195.38 155.88 195.68 156.88 Z M 195.97 157.83 L 196.25 158.79 C 196.53 159.79 197.58 160.37 198.59 160.09 C 199.59 159.80 200.17 158.75 199.88 157.75 L 199.61 156.79 C 199.32 155.78 198.27 155.20 197.26 155.49 C 196.26 155.78 195.68 156.83 195.97 157.83 Z M 196.24 158.77 L 196.52 159.77 C 196.80 160.77 197.84 161.36 198.84 161.08 C 199.85 160.80 200.44 159.76 200.16 158.76 L 199.88 157.76 C 199.60 156.76 198.56 156.17 197.56 156.45 C 196.55 156.73 195.96 157.77 196.24 158.77 Z M 196.52 159.75 L 196.79 160.75 C 197.06 161.76 198.09 162.35 199.10 162.08 C 200.10 161.81 200.70 160.78 200.43 159.77 L 200.16 158.77 C 199.89 157.77 198.86 157.17 197.85 157.44 C 196.84 157.71 196.25 158.74 196.52 159.75 Z M 196.78 160.73 L 197.04 161.71 C 197.30 162.72 198.33 163.33 199.33 163.06 C 200.34 162.80 200.95 161.78 200.68 160.77 L 200.43 159.79 C 200.17 158.78 199.14 158.18 198.13 158.44 C 197.13 158.70 196.52 159.73 196.78 160.73 Z M 197.04 161.70 L 197.27 162.63 C 197.52 163.64 198.54 164.25 199.55 164.00 C 200.56 163.75 201.17 162.73 200.92 161.72 L 200.69 160.79 C 200.43 159.78 199.41 159.17 198.41 159.42 C 197.40 159.67 196.79 160.69 197.04 161.70 Z M 197.28 162.61 L 197.54 163.71 C 197.77 164.72 198.78 165.34 199.78 165.10 C 200.79 164.86 201.41 163.86 201.17 162.85 L 200.91 161.75 C 200.68 160.74 199.67 160.12 198.66 160.36 C 197.66 160.60 197.04 161.60 197.28 162.61 Z M 197.55 163.68 L 197.77 164.69 C 197.99 165.69 198.98 166.32 199.98 166.10 C 200.97 165.88 201.60 164.89 201.38 163.89 L 201.16 162.88 C 200.94 161.89 199.95 161.26 198.96 161.48 C 197.96 161.70 197.33 162.68 197.55 163.68 Z M 197.79 164.66 L 197.98 165.60 C 198.19 166.59 199.15 167.23 200.14 167.03 C 201.13 166.82 201.77 165.85 201.56 164.87 L 201.37 163.92 C 201.16 162.93 200.20 162.30 199.21 162.50 C 198.22 162.71 197.58 163.67 197.79 164.66 Z M 198.00 165.58 L 198.17 166.48 C 198.36 167.46 199.31 168.10 200.29 167.91 C 201.27 167.72 201.91 166.77 201.72 165.79 L 201.55 164.89 C 201.36 163.91 200.41 163.27 199.43 163.46 C 198.45 163.65 197.81 164.60 198.00 165.58 Z M 198.19 166.46 L 198.37 167.40 C 198.55 168.37 199.48 169.01 200.45 168.83 C 201.42 168.65 202.06 167.72 201.88 166.75 L 201.70 165.81 C 201.52 164.84 200.59 164.20 199.62 164.38 C 198.65 164.56 198.01 165.49 198.19 166.46 Z M 198.39 167.39 L 198.57 168.38 C 198.75 169.34 199.66 169.97 200.62 169.80 C 201.57 169.63 202.21 168.71 202.03 167.75 L 201.85 166.76 C 201.68 165.81 200.76 165.17 199.81 165.35 C 198.85 165.52 198.22 166.44 198.39 167.39 Z M 198.60 168.38 L 198.78 169.36 C 198.95 170.30 199.85 170.93 200.79 170.76 C 201.73 170.58 202.36 169.68 202.19 168.74 L 202.01 167.76 C 201.84 166.82 200.94 166.19 199.99 166.36 C 199.05 166.54 198.43 167.44 198.60 168.38 Z M 198.81 169.36 L 198.99 170.34 C 199.16 171.26 200.05 171.87 200.97 171.70 C 201.90 171.53 202.51 170.64 202.34 169.71 L 202.16 168.74 C 201.99 167.82 201.10 167.20 200.17 167.38 C 199.25 167.55 198.63 168.44 198.81 169.36 Z M 199.01 170.35 L 199.20 171.33 C 199.38 172.24 200.26 172.84 201.17 172.66 C 202.09 172.49 202.68 171.60 202.50 170.69 L 202.31 169.71 C 202.14 168.79 201.25 168.20 200.34 168.37 C 199.43 168.55 198.83 169.43 199.01 170.35 Z M 199.22 171.33 L 199.41 172.32 C 199.59 173.23 200.47 173.82 201.37 173.64 C 202.27 173.46 202.86 172.58 202.68 171.68 L 202.49 170.69 C 202.31 169.79 201.43 169.20 200.53 169.38 C 199.63 169.55 199.04 170.43 199.22 171.33 Z M 199.42 172.31 L 199.61 173.29 C 199.78 174.19 200.64 174.78 201.54 174.61 C 202.44 174.44 203.03 173.58 202.86 172.68 L 202.68 171.70 C 202.51 170.80 201.64 170.21 200.74 170.38 C 199.84 170.54 199.25 171.41 199.42 172.31 Z M 199.61 173.25 L 199.77 174.22 C 199.92 175.12 200.77 175.73 201.66 175.58 C 202.56 175.43 203.17 174.58 203.02 173.69 L 202.86 172.71 C 202.71 171.82 201.86 171.21 200.96 171.36 C 200.07 171.51 199.46 172.36 199.61 173.25 Z M 199.77 174.17 L 199.90 175.17 C 200.02 176.06 200.85 176.70 201.74 176.58 C 202.64 176.46 203.27 175.63 203.15 174.74 L 203.02 173.74 C 202.90 172.84 202.08 172.21 201.18 172.33 C 200.28 172.45 199.65 173.27 199.77 174.17 Z M 199.90 175.12 L 200.00 176.12 C 200.09 177.02 200.90 177.67 201.80 177.58 C 202.70 177.48 203.35 176.68 203.26 175.78 L 203.16 174.79 C 203.06 173.89 202.26 173.23 201.36 173.32 C 200.46 173.42 199.81 174.22 199.90 175.12 Z M 200.00 176.09 L 200.08 177.08 C 200.16 177.98 200.95 178.65 201.85 178.57 C 202.75 178.50 203.42 177.70 203.34 176.80 L 203.26 175.81 C 203.19 174.91 202.39 174.24 201.49 174.32 C 200.59 174.39 199.92 175.18 200.00 176.09 Z M 200.08 177.06 L 200.14 177.83 C 200.21 178.73 200.99 179.40 201.89 179.33 C 202.79 179.27 203.47 178.48 203.40 177.58 L 203.34 176.82 C 203.28 175.92 202.49 175.24 201.59 175.31 C 200.69 175.38 200.01 176.16 200.08 177.06 Z"
      fill="black"
      fill-rule="nonzero" /></svg>