<svg xmlns="http://www.w3.org/2000/svg" width="300" height="300" viewBox="0 0 300 300">
<path d="M 133.83 130.54 L 134.90 130.58 C 135.89 130.62 136.72 129.85 136.76 128.87 C 136.80 127.88 136.03 127.05 135.05 127.01 L 133.97 126.96 C 132.99 126.92 132.16 127.69 132.12 128.68 C 132.08 129.66 132.84 130.50 133.83 130.54 Z M 134.90 130.58 L 135.96 130.62 C 136.95 130.66 137.78 129.89 137.82 128.91 C 137.86 127.92 137.09 127.09 136.10 127.05 L 135.04 127.01 C 134.06 126.97 133.23 127.74 133.19 128.72 C 133.15 129.71 133.91 130.54 134.90 130.58 Z M 135.96 130.62 L 137.00 130.66 C 137.98 130.70 138.82 129.93 138.85 128.95 C 138.89 127.96 138.12 127.13 137.13 127.09 L 136.10 127.05 C 135.11 127.01 134.28 127.78 134.24 128.77 C 134.20 129.75 134.97 130.59 135.96 130.62 Z M 137.00 130.67 L 138.00 130.70 C 138.99 130.74 139.82 129.97 139.85 128.98 C 139.89 127.99 139.12 127.16 138.13 127.12 L 137.13 127.09 C 136.14 127.05 135.31 127.82 135.28 128.81 C 135.24 129.80 136.01 130.63 137.00 130.67 Z M 138.00 130.70 L 138.96 130.73 C 139.94 130.77 140.77 129.99 140.81 129.00 C 140.84 128.02 140.06 127.19 139.07 127.15 L 138.12 127.12 C 137.14 127.09 136.31 127.86 136.27 128.85 C 136.24 129.84 137.02 130.67 138.00 130.70 Z M 138.96 130.74 L 139.86 130.76 C 140.84 130.79 141.67 130.01 141.70 129.02 C 141.73 128.03 140.95 127.21 139.96 127.18 L 139.07 127.15 C 138.08 127.12 137.25 127.90 137.22 128.89 C 137.20 129.88 137.97 130.71 138.96 130.74 Z M 139.87 130.76 L 140.95 130.78 C 141.94 130.81 142.76 130.02 142.78 129.03 C 142.81 128.04 142.02 127.22 141.03 127.20 L 139.95 127.18 C 138.96 127.16 138.14 127.94 138.12 128.93 C 138.09 129.92 138.88 130.74 139.87 130.76 Z M 140.97 130.78 L 141.98 130.80 C 142.97 130.81 143.78 130.02 143.79 129.03 C 143.81 128.04 143.02 127.23 142.03 127.22 L 141.02 127.21 C 140.03 127.19 139.22 127.98 139.21 128.97 C 139.19 129.96 139.98 130.77 140.97 130.78 Z M 141.99 130.79 L 142.95 130.80 C 143.94 130.81 144.74 130.01 144.75 129.03 C 144.76 128.04 143.96 127.23 142.98 127.23 L 142.02 127.22 C 141.03 127.22 140.23 128.01 140.22 129.00 C 140.21 129.98 141.01 130.79 141.99 130.79 Z M 142.96 130.80 L 143.91 130.80 C 144.90 130.80 145.70 130.00 145.70 129.02 C 145.70 128.03 144.90 127.23 143.92 127.23 L 142.97 127.23 C 141.98 127.23 141.18 128.03 141.18 129.01 C 141.18 130.00 141.98 130.80 142.96 130.80 Z M 143.91 130.79 L 144.85 130.79 C 145.83 130.79 146.63 130.00 146.63 129.02 C 146.63 128.03 145.83 127.24 144.85 127.24 L 143.91 127.24 C 142.93 127.24 142.14 128.03 142.14 129.02 C 142.14 130.00 142.93 130.79 143.91 130.79 Z M 144.86 130.79 L 145.79 130.78 C 146.77 130.78 147.56 129.98 147.56 129.00 C 147.55 128.03 146.76 127.24 145.78 127.24 L 144.84 127.24 C 143.87 127.25 143.08 128.04 143.08 129.02 C 143.08 130.00 143.88 130.79 144.86 130.79 Z M 145.81 130.77 L 146.79 130.76 C 147.76 130.74 148.54 129.94 148.52 128.97 C 148.51 127.99 147.71 127.22 146.73 127.23 L 145.76 127.25 C 144.78 127.27 144.01 128.07 144.02 129.04 C 144.04 130.01 144.84 130.79 145.81 130.77 Z M 146.82 130.75 L 147.84 130.71 C 148.81 130.68 149.57 129.87 149.54 128.90 C 149.50 127.93 148.69 127.18 147.72 127.21 L 146.70 127.24 C 145.74 127.28 144.98 128.09 145.01 129.06 C 145.05 130.02 145.86 130.78 146.82 130.75 Z M 147.89 130.70 L 148.95 130.64 C 149.91 130.58 150.65 129.76 150.59 128.80 C 150.53 127.84 149.71 127.10 148.75 127.16 L 147.68 127.22 C 146.72 127.28 145.99 128.10 146.05 129.06 C 146.10 130.02 146.93 130.76 147.89 130.70 Z M 149.00 130.62 L 150.05 130.53 C 151.01 130.45 151.71 129.61 151.63 128.66 C 151.55 127.70 150.71 127.00 149.76 127.08 L 148.70 127.17 C 147.75 127.25 147.04 128.09 147.12 129.05 C 147.21 130.00 148.05 130.71 149.00 130.62 Z M 150.10 130.52 L 151.13 130.40 C 152.08 130.30 152.76 129.45 152.65 128.50 C 152.55 127.55 151.69 126.87 150.75 126.98 L 149.71 127.10 C 148.77 127.20 148.09 128.05 148.19 129.00 C 148.30 129.94 149.15 130.62 150.10 130.52 Z M 151.16 130.39 L 152.20 130.25 C 153.13 130.13 153.79 129.27 153.67 128.33 C 153.55 127.39 152.69 126.73 151.75 126.86 L 150.72 126.99 C 149.78 127.12 149.12 127.98 149.24 128.91 C 149.36 129.85 150.23 130.51 151.16 130.39 Z M 152.22 130.24 L 153.23 130.09 C 154.16 129.95 154.80 129.09 154.66 128.16 C 154.53 127.23 153.66 126.59 152.73 126.72 L 151.72 126.87 C 150.79 127.01 150.15 127.87 150.29 128.80 C 150.43 129.73 151.29 130.38 152.22 130.24 Z M 153.25 130.08 L 154.20 129.92 C 155.12 129.78 155.75 128.91 155.60 127.99 C 155.46 127.06 154.59 126.44 153.67 126.58 L 152.71 126.74 C 151.79 126.88 151.16 127.75 151.31 128.68 C 151.46 129.60 152.32 130.23 153.25 130.08 Z M 154.22 129.91 L 155.17 129.75 C 156.08 129.59 156.70 128.72 156.54 127.81 C 156.38 126.89 155.51 126.28 154.60 126.43 L 153.65 126.60 C 152.73 126.75 152.12 127.62 152.28 128.54 C 152.43 129.45 153.30 130.07 154.22 129.91 Z M 155.18 129.74 L 156.30 129.53 C 157.21 129.37 157.81 128.50 157.64 127.59 C 157.47 126.68 156.60 126.08 155.69 126.24 L 154.58 126.45 C 153.67 126.61 153.07 127.48 153.24 128.39 C 153.40 129.30 154.27 129.90 155.18 129.74 Z M 156.32 129.52 L 157.29 129.33 C 158.19 129.15 158.78 128.28 158.60 127.38 C 158.42 126.48 157.55 125.89 156.65 126.07 L 155.68 126.26 C 154.77 126.43 154.19 127.31 154.36 128.21 C 154.54 129.11 155.41 129.70 156.32 129.52 Z M 157.30 129.32 L 158.18 129.13 C 159.08 128.95 159.65 128.07 159.47 127.18 C 159.28 126.29 158.41 125.71 157.52 125.90 L 156.63 126.08 C 155.74 126.26 155.16 127.14 155.35 128.03 C 155.53 128.93 156.41 129.50 157.30 129.32 Z M 158.19 129.12 L 159.04 128.94 C 159.93 128.75 160.50 127.88 160.31 126.99 C 160.12 126.10 159.25 125.54 158.36 125.72 L 157.51 125.91 C 156.62 126.09 156.05 126.97 156.24 127.86 C 156.43 128.75 157.30 129.31 158.19 129.12 Z M 159.05 128.94 L 159.93 128.75 C 160.81 128.55 161.38 127.68 161.18 126.79 C 160.99 125.91 160.11 125.34 159.23 125.54 L 158.35 125.73 C 157.46 125.92 156.90 126.80 157.10 127.68 C 157.29 128.57 158.17 129.13 159.05 128.94 Z M 159.94 128.74 L 160.91 128.52 C 161.79 128.32 162.34 127.44 162.14 126.56 C 161.94 125.67 161.05 125.12 160.17 125.32 L 159.21 125.54 C 158.33 125.75 157.78 126.63 157.98 127.51 C 158.18 128.39 159.06 128.94 159.94 128.74 Z M 160.92 128.52 L 162.03 128.25 C 162.91 128.03 163.45 127.15 163.24 126.27 C 163.03 125.39 162.14 124.85 161.26 125.06 L 160.15 125.33 C 159.27 125.54 158.73 126.43 158.95 127.31 C 159.16 128.19 160.04 128.73 160.92 128.52 Z M 162.05 128.24 L 162.94 128.02 C 163.82 127.80 164.35 126.91 164.13 126.03 C 163.91 125.15 163.02 124.62 162.14 124.84 L 161.24 125.07 C 160.37 125.29 159.83 126.18 160.06 127.05 C 160.28 127.93 161.17 128.46 162.05 128.24 Z M 162.95 128.01 L 163.85 127.78 C 164.73 127.56 165.25 126.66 165.03 125.79 C 164.80 124.91 163.91 124.38 163.03 124.61 L 162.13 124.84 C 161.25 125.07 160.73 125.96 160.95 126.84 C 161.18 127.71 162.07 128.24 162.95 128.01 Z M 163.86 127.78 L 164.82 127.53 C 165.69 127.30 166.22 126.40 165.99 125.53 C 165.76 124.65 164.86 124.13 163.99 124.36 L 163.03 124.61 C 162.15 124.84 161.63 125.74 161.86 126.61 C 162.09 127.49 162.98 128.01 163.86 127.78 Z M 164.82 127.53 L 165.83 127.26 C 166.71 127.03 167.23 126.13 167.00 125.26 C 166.77 124.38 165.87 123.86 165.00 124.09 L 163.99 124.36 C 163.11 124.59 162.59 125.49 162.82 126.36 C 163.05 127.24 163.95 127.76 164.82 127.53 Z M 165.83 127.26 L 166.87 126.98 C 167.75 126.75 168.27 125.85 168.03 124.98 C 167.80 124.11 166.91 123.59 166.03 123.82 L 164.99 124.09 C 164.12 124.33 163.60 125.22 163.83 126.10 C 164.06 126.97 164.96 127.49 165.83 127.26 Z M 166.87 126.98 L 167.74 126.75 C 168.62 126.52 169.14 125.62 168.90 124.75 C 168.67 123.87 167.77 123.35 166.90 123.59 L 166.03 123.82 C 165.16 124.05 164.64 124.95 164.87 125.82 C 165.10 126.70 166.00 127.21 166.87 126.98 Z"
      fill="black"
      fill-rule="nonzero" /><path d="M 157.98 112.20 L 157.02 112.54 C 156.08 112.86 155.59 113.88 155.91 114.82 C 156.24 115.75 157.26 116.24 158.19 115.92 L 159.16 115.58 C 160.09 115.26 160.58 114.24 160.26 113.30 C 159.93 112.37 158.91 111.88 157.98 112.20 Z M 157.00 112.55 L 156.05 112.89 C 155.12 113.22 154.64 114.25 154.97 115.18 C 155.30 116.11 156.33 116.59 157.26 116.25 L 158.21 115.91 C 159.14 115.58 159.62 114.55 159.29 113.62 C 158.95 112.69 157.93 112.21 157.00 112.55 Z M 156.01 112.90 L 155.09 113.25 C 154.17 113.61 153.71 114.64 154.06 115.57 C 154.41 116.49 155.45 116.95 156.37 116.59 L 157.29 116.24 C 158.22 115.89 158.68 114.85 158.32 113.93 C 157.97 113.01 156.93 112.55 156.01 112.90 Z M 155.03 113.27 L 154.11 113.66 C 153.20 114.05 152.77 115.10 153.16 116.02 C 153.54 116.93 154.60 117.35 155.51 116.97 L 156.43 116.58 C 157.34 116.19 157.77 115.14 157.38 114.22 C 156.99 113.31 155.94 112.89 155.03 113.27 Z M 154.01 113.69 L 153.10 114.14 C 152.20 114.57 151.82 115.66 152.26 116.56 C 152.70 117.46 153.78 117.83 154.68 117.39 L 155.60 116.94 C 156.50 116.51 156.87 115.42 156.44 114.52 C 156.00 113.62 154.91 113.25 154.01 113.69 Z M 152.97 114.17 L 152.12 114.66 C 151.24 115.17 150.94 116.29 151.45 117.17 C 151.95 118.05 153.08 118.35 153.95 117.84 L 154.81 117.35 C 155.68 116.85 155.99 115.72 155.48 114.85 C 154.97 113.97 153.85 113.67 152.97 114.17 Z M 151.98 114.73 L 151.20 115.27 C 150.36 115.86 150.15 117.02 150.73 117.86 C 151.32 118.70 152.48 118.91 153.32 118.32 L 154.10 117.78 C 154.94 117.19 155.15 116.04 154.56 115.19 C 153.98 114.35 152.82 114.14 151.98 114.73 Z M 151.04 115.37 L 150.34 115.98 C 149.55 116.65 149.46 117.83 150.13 118.61 C 150.80 119.40 151.98 119.49 152.77 118.82 L 153.47 118.22 C 154.26 117.55 154.35 116.37 153.68 115.58 C 153.01 114.80 151.83 114.70 151.04 115.37 Z M 150.19 116.11 L 149.51 116.82 C 148.80 117.57 148.83 118.76 149.58 119.48 C 150.33 120.19 151.52 120.16 152.24 119.41 L 152.91 118.69 C 153.63 117.94 153.60 116.75 152.84 116.04 C 152.09 115.32 150.90 115.35 150.19 116.11 Z M 149.39 116.96 L 148.71 117.82 C 148.07 118.64 148.22 119.83 149.04 120.47 C 149.86 121.11 151.05 120.96 151.69 120.14 L 152.36 119.27 C 153.00 118.45 152.85 117.27 152.03 116.63 C 151.21 115.99 150.03 116.13 149.39 116.96 Z M 148.63 117.93 L 148.12 118.68 C 147.54 119.55 147.77 120.72 148.64 121.31 C 149.50 121.89 150.68 121.66 151.26 120.79 L 151.77 120.04 C 152.35 119.17 152.12 117.99 151.25 117.41 C 150.39 116.83 149.21 117.06 148.63 117.93 Z M 148.07 118.76 L 147.57 119.59 C 147.03 120.48 147.31 121.65 148.21 122.19 C 149.10 122.73 150.26 122.44 150.81 121.55 L 151.31 120.72 C 151.85 119.82 151.56 118.66 150.67 118.12 C 149.78 117.58 148.61 117.87 148.07 118.76 Z M 147.53 119.66 L 147.04 120.56 C 146.53 121.47 146.87 122.62 147.78 123.13 C 148.70 123.63 149.85 123.29 150.35 122.38 L 150.85 121.48 C 151.35 120.56 151.01 119.41 150.10 118.91 C 149.18 118.41 148.03 118.74 147.53 119.66 Z M 147.00 120.62 L 146.53 121.57 C 146.06 122.50 146.44 123.64 147.37 124.11 C 148.31 124.57 149.45 124.20 149.91 123.26 L 150.39 122.31 C 150.85 121.38 150.48 120.24 149.54 119.77 C 148.60 119.31 147.47 119.69 147.00 120.62 Z M 146.50 121.63 L 146.06 122.61 C 145.63 123.56 146.05 124.68 147.00 125.11 C 147.96 125.54 149.08 125.12 149.51 124.17 L 149.95 123.19 C 150.38 122.24 149.95 121.12 149.00 120.69 C 148.05 120.26 146.93 120.68 146.50 121.63 Z M 146.03 122.67 L 145.63 123.65 C 145.23 124.61 145.70 125.72 146.66 126.12 C 147.63 126.51 148.74 126.05 149.13 125.08 L 149.53 124.10 C 149.93 123.14 149.47 122.03 148.50 121.63 C 147.53 121.24 146.43 121.70 146.03 122.67 Z M 145.61 123.69 L 145.25 124.66 C 144.88 125.64 145.37 126.73 146.35 127.10 C 147.33 127.47 148.42 126.97 148.79 126.00 L 149.15 125.03 C 149.52 124.05 149.03 122.96 148.05 122.59 C 147.07 122.22 145.98 122.72 145.61 123.69 Z M 145.23 124.69 L 144.90 125.62 C 144.55 126.61 145.07 127.69 146.06 128.04 C 147.04 128.39 148.12 127.87 148.47 126.89 L 148.80 125.96 C 149.15 124.97 148.64 123.89 147.65 123.54 C 146.66 123.19 145.58 123.71 145.23 124.69 Z M 144.90 125.65 L 144.60 126.52 C 144.26 127.51 144.79 128.59 145.78 128.92 C 146.78 129.26 147.85 128.73 148.19 127.74 L 148.48 126.86 C 148.82 125.87 148.29 124.80 147.30 124.46 C 146.31 124.13 145.23 124.66 144.90 125.65 Z M 144.60 126.54 L 144.26 127.55 C 143.93 128.54 144.47 129.61 145.46 129.94 C 146.46 130.27 147.53 129.73 147.86 128.73 L 148.19 127.72 C 148.52 126.73 147.98 125.66 146.99 125.33 C 145.99 125.01 144.92 125.54 144.60 126.54 Z M 144.26 127.56 L 143.95 128.52 C 143.63 129.51 144.18 130.58 145.17 130.89 C 146.17 131.21 147.23 130.67 147.55 129.67 L 147.86 128.72 C 148.18 127.73 147.63 126.66 146.64 126.34 C 145.64 126.02 144.58 126.57 144.26 127.56 Z M 143.95 128.54 L 143.67 129.44 C 143.36 130.44 143.91 131.49 144.91 131.80 C 145.91 132.11 146.96 131.56 147.27 130.56 L 147.55 129.66 C 147.86 128.66 147.31 127.60 146.31 127.29 C 145.32 126.98 144.26 127.54 143.95 128.54 Z M 143.66 129.46 L 143.39 130.37 C 143.09 131.37 143.66 132.42 144.66 132.72 C 145.66 133.01 146.71 132.45 147.01 131.45 L 147.28 130.54 C 147.58 129.54 147.01 128.49 146.01 128.19 C 145.01 127.90 143.96 128.46 143.66 129.46 Z M 143.39 130.38 L 143.12 131.33 C 142.83 132.33 143.40 133.37 144.40 133.66 C 145.40 133.95 146.44 133.38 146.73 132.38 L 147.01 131.43 C 147.30 130.44 146.72 129.39 145.72 129.10 C 144.73 128.81 143.68 129.39 143.39 130.38 Z M 143.12 131.33 L 142.84 132.30 C 142.55 133.30 143.13 134.34 144.13 134.63 C 145.12 134.91 146.17 134.34 146.45 133.34 L 146.73 132.37 C 147.02 131.37 146.44 130.33 145.44 130.05 C 144.45 129.76 143.41 130.33 143.12 131.33 Z M 142.84 132.30 L 142.56 133.28 C 142.27 134.28 142.84 135.32 143.84 135.61 C 144.83 135.90 145.87 135.32 146.16 134.33 L 146.45 133.34 C 146.74 132.35 146.17 131.31 145.17 131.02 C 144.17 130.73 143.13 131.30 142.84 132.30 Z M 142.56 133.27 L 142.29 134.19 C 141.99 135.18 142.56 136.23 143.55 136.52 C 144.54 136.82 145.59 136.25 145.88 135.26 L 146.15 134.34 C 146.45 133.35 145.89 132.31 144.89 132.01 C 143.90 131.72 142.86 132.28 142.56 133.27 Z M 142.30 134.18 L 142.01 135.12 C 141.71 136.11 142.27 137.16 143.25 137.46 C 144.24 137.76 145.29 137.20 145.59 136.21 L 145.87 135.27 C 146.17 134.28 145.62 133.24 144.63 132.94 C 143.64 132.64 142.60 133.19 142.30 134.18 Z M 142.02 135.12 L 141.72 136.09 C 141.41 137.07 141.96 138.12 142.95 138.42 C 143.93 138.73 144.97 138.18 145.28 137.19 L 145.58 136.22 C 145.89 135.24 145.34 134.19 144.35 133.89 C 143.37 133.58 142.32 134.13 142.02 135.12 Z M 141.72 136.08 L 141.41 137.06 C 141.10 138.04 141.65 139.09 142.63 139.40 C 143.61 139.71 144.66 139.16 144.96 138.18 L 145.27 137.20 C 145.58 136.22 145.04 135.17 144.06 134.86 C 143.08 134.55 142.03 135.10 141.72 136.08 Z M 141.42 137.06 L 141.12 138.01 C 140.81 138.98 141.35 140.03 142.33 140.34 C 143.30 140.65 144.35 140.11 144.66 139.13 L 144.96 138.18 C 145.27 137.21 144.73 136.16 143.75 135.85 C 142.77 135.54 141.73 136.08 141.42 137.06 Z M 141.13 138.01 L 140.82 138.97 C 140.51 139.94 141.05 140.98 142.02 141.29 C 142.99 141.60 144.03 141.07 144.34 140.09 L 144.65 139.13 C 144.96 138.16 144.42 137.12 143.45 136.81 C 142.48 136.50 141.44 137.03 141.13 138.01 Z M 140.82 138.98 L 140.52 139.94 C 140.21 140.91 140.75 141.94 141.72 142.25 C 142.69 142.56 143.73 142.02 144.03 141.05 L 144.34 140.09 C 144.65 139.12 144.11 138.08 143.14 137.77 C 142.17 137.47 141.13 138.01 140.82 138.98 Z M 140.52 139.95 L 140.23 140.90 C 139.92 141.87 140.46 142.90 141.43 143.20 C 142.40 143.50 143.43 142.97 143.73 142.00 L 144.03 141.04 C 144.33 140.07 143.79 139.04 142.82 138.74 C 141.86 138.44 140.83 138.98 140.52 139.95 Z M 140.23 140.92 L 139.93 141.89 C 139.64 142.86 140.18 143.88 141.15 144.17 C 142.11 144.47 143.14 143.92 143.43 142.96 L 143.73 141.98 C 144.02 141.02 143.48 140.00 142.51 139.70 C 141.55 139.41 140.52 139.95 140.23 140.92 Z M 139.93 141.91 L 139.65 142.86 C 139.37 143.83 139.92 144.84 140.88 145.13 C 141.85 145.41 142.86 144.86 143.15 143.89 L 143.43 142.94 C 143.71 141.98 143.16 140.96 142.20 140.68 C 141.23 140.39 140.22 140.94 139.93 141.91 Z M 139.65 142.88 L 139.38 143.83 C 139.11 144.80 139.67 145.80 140.64 146.07 C 141.60 146.35 142.60 145.79 142.88 144.82 L 143.15 143.87 C 143.42 142.91 142.86 141.91 141.90 141.63 C 140.93 141.36 139.93 141.92 139.65 142.88 Z M 139.39 143.86 L 139.13 144.81 C 138.87 145.77 139.44 146.77 140.40 147.03 C 141.36 147.29 142.36 146.72 142.62 145.75 L 142.88 144.80 C 143.14 143.84 142.57 142.84 141.60 142.58 C 140.64 142.32 139.65 142.89 139.39 143.86 Z M 139.13 144.83 L 138.88 145.79 C 138.63 146.75 139.21 147.74 140.17 147.99 C 141.13 148.24 142.12 147.66 142.37 146.70 L 142.62 145.73 C 142.87 144.77 142.29 143.79 141.33 143.54 C 140.36 143.29 139.38 143.87 139.13 144.83 Z M 138.89 145.80 L 138.64 146.77 C 138.39 147.73 138.97 148.70 139.93 148.95 C 140.88 149.20 141.86 148.62 142.11 147.66 L 142.36 146.69 C 142.61 145.73 142.03 144.76 141.07 144.51 C 140.11 144.26 139.13 144.84 138.89 145.80 Z M 138.65 146.76 L 138.39 147.73 C 138.14 148.68 138.71 149.66 139.66 149.91 C 140.61 150.16 141.59 149.59 141.84 148.64 L 142.10 147.67 C 142.35 146.72 141.78 145.74 140.83 145.49 C 139.88 145.24 138.90 145.81 138.65 146.76 Z M 138.41 147.71 L 138.14 148.68 C 137.87 149.62 138.42 150.60 139.37 150.86 C 140.31 151.13 141.29 150.58 141.56 149.63 L 141.83 148.66 C 142.09 147.72 141.54 146.74 140.59 146.48 C 139.65 146.21 138.67 146.77 138.41 147.71 Z M 138.15 148.65 L 137.87 149.62 C 137.59 150.55 138.12 151.53 139.06 151.81 C 140.00 152.09 140.98 151.55 141.26 150.62 L 141.54 149.66 C 141.82 148.72 141.28 147.74 140.35 147.46 C 139.41 147.18 138.43 147.72 138.15 148.65 Z M 137.88 149.60 L 137.59 150.56 C 137.30 151.49 137.83 152.47 138.75 152.75 C 139.68 153.04 140.67 152.52 140.95 151.59 L 141.24 150.63 C 141.53 149.70 141.00 148.72 140.08 148.44 C 139.15 148.15 138.16 148.67 137.88 149.60 Z M 137.60 150.56 L 137.30 151.51 C 137.02 152.43 137.54 153.41 138.46 153.70 C 139.38 153.98 140.36 153.47 140.65 152.54 L 140.94 151.59 C 141.23 150.67 140.71 149.69 139.78 149.40 C 138.86 149.12 137.88 149.63 137.60 150.56 Z M 137.31 151.52 L 137.02 152.47 C 136.74 153.39 137.26 154.36 138.18 154.64 C 139.10 154.92 140.07 154.40 140.35 153.48 L 140.64 152.53 C 140.92 151.61 140.40 150.64 139.48 150.36 C 138.56 150.08 137.59 150.60 137.31 151.52 Z M 137.02 152.48 L 136.74 153.44 C 136.47 154.35 136.99 155.32 137.91 155.59 C 138.83 155.87 139.79 155.34 140.06 154.43 L 140.35 153.47 C 140.62 152.55 140.10 151.59 139.18 151.32 C 138.26 151.04 137.30 151.56 137.02 152.48 Z M 136.75 153.44 L 136.46 154.39 C 136.19 155.31 136.71 156.27 137.62 156.54 C 138.54 156.81 139.50 156.29 139.77 155.38 L 140.06 154.42 C 140.33 153.51 139.81 152.55 138.90 152.28 C 137.98 152.00 137.02 152.52 136.75 153.44 Z M 136.47 154.39 L 136.18 155.35 C 135.90 156.26 136.42 157.22 137.32 157.49 C 138.23 157.77 139.19 157.26 139.47 156.35 L 139.76 155.39 C 140.04 154.48 139.53 153.52 138.62 153.24 C 137.71 152.97 136.75 153.48 136.47 154.39 Z M 136.19 155.33 L 135.90 156.27 C 135.61 157.17 136.11 158.13 137.01 158.42 C 137.91 158.70 138.87 158.20 139.16 157.30 L 139.46 156.37 C 139.74 155.46 139.24 154.50 138.34 154.22 C 137.44 153.93 136.48 154.43 136.19 155.33 Z M 135.91 156.25 L 135.60 157.18 C 135.31 158.08 135.79 159.04 136.69 159.34 C 137.58 159.63 138.55 159.14 138.84 158.25 L 139.15 157.32 C 139.44 156.42 138.95 155.46 138.06 155.17 C 137.16 154.87 136.20 155.36 135.91 156.25 Z M 135.61 157.17 L 135.29 158.12 C 134.99 159.01 135.47 159.97 136.36 160.27 C 137.25 160.57 138.22 160.09 138.51 159.20 L 138.83 158.26 C 139.13 157.37 138.65 156.40 137.76 156.11 C 136.87 155.81 135.91 156.29 135.61 157.17 Z M 135.30 158.12 L 134.97 159.09 C 134.67 159.97 135.15 160.93 136.03 161.23 C 136.92 161.53 137.88 161.06 138.18 160.17 L 138.51 159.20 C 138.81 158.32 138.33 157.36 137.45 157.06 C 136.56 156.76 135.60 157.23 135.30 158.12 Z M 134.98 159.09 L 134.65 160.06 C 134.35 160.94 134.82 161.90 135.71 162.19 C 136.59 162.49 137.55 162.02 137.84 161.14 L 138.17 160.17 C 138.47 159.29 138.00 158.33 137.12 158.03 C 136.23 157.73 135.28 158.21 134.98 159.09 Z M 134.66 160.06 L 134.33 161.02 C 134.03 161.90 134.51 162.85 135.38 163.15 C 136.26 163.44 137.22 162.97 137.52 162.09 L 137.84 161.14 C 138.14 160.26 137.67 159.30 136.79 159.01 C 135.91 158.71 134.95 159.18 134.66 160.06 Z M 134.34 161.01 L 134.01 161.97 C 133.71 162.85 134.18 163.80 135.05 164.10 C 135.93 164.40 136.88 163.93 137.18 163.06 L 137.51 162.10 C 137.81 161.22 137.34 160.27 136.47 159.97 C 135.59 159.67 134.64 160.14 134.34 161.01 Z M 134.02 161.96 L 133.69 162.91 C 133.38 163.78 133.84 164.73 134.71 165.04 C 135.58 165.34 136.53 164.88 136.84 164.01 L 137.17 163.07 C 137.48 162.20 137.02 161.24 136.15 160.94 C 135.28 160.63 134.32 161.09 134.02 161.96 Z M 133.70 162.89 L 133.37 163.79 C 133.05 164.65 133.50 165.61 134.36 165.93 C 135.23 166.24 136.18 165.80 136.50 164.93 L 136.83 164.03 C 137.14 163.17 136.70 162.21 135.83 161.89 C 134.97 161.58 134.01 162.02 133.70 162.89 Z M 133.38 163.77 L 133.08 164.55 C 132.75 165.41 133.18 166.37 134.04 166.70 C 134.90 167.03 135.86 166.60 136.19 165.74 L 136.49 164.95 C 136.81 164.10 136.39 163.14 135.53 162.81 C 134.67 162.48 133.71 162.91 133.38 163.77 Z M 133.09 164.53 L 132.77 165.34 C 132.43 166.20 132.85 167.16 133.70 167.50 C 134.56 167.83 135.52 167.42 135.86 166.56 L 136.18 165.76 C 136.51 164.90 136.10 163.94 135.24 163.60 C 134.39 163.26 133.43 163.68 133.09 164.53 Z M 132.78 165.34 L 132.42 166.23 C 132.08 167.07 132.49 168.04 133.34 168.38 C 134.19 168.72 135.15 168.31 135.49 167.46 L 135.85 166.57 C 136.19 165.72 135.78 164.76 134.93 164.42 C 134.08 164.07 133.12 164.49 132.78 165.34 Z M 132.42 166.23 L 132.01 167.25 C 131.67 168.10 132.08 169.06 132.93 169.40 C 133.78 169.75 134.74 169.33 135.08 168.49 L 135.49 167.46 C 135.83 166.61 135.42 165.65 134.57 165.31 C 133.73 164.97 132.76 165.38 132.42 166.23 Z M 132.01 167.26 L 131.56 168.39 C 131.22 169.24 131.64 170.20 132.48 170.53 C 133.33 170.87 134.29 170.46 134.63 169.61 L 135.08 168.48 C 135.42 167.63 135.00 166.67 134.15 166.33 C 133.31 166.00 132.35 166.41 132.01 167.26 Z M 131.56 168.40 L 131.23 169.24 C 130.89 170.09 131.31 171.05 132.16 171.38 C 133.01 171.72 133.96 171.30 134.30 170.45 L 134.63 169.60 C 134.96 168.76 134.55 167.80 133.70 167.46 C 132.85 167.13 131.89 167.55 131.56 168.40 Z M 131.23 169.25 L 130.87 170.16 C 130.54 171.01 130.96 171.97 131.80 172.30 C 132.65 172.63 133.61 172.21 133.94 171.36 L 134.30 170.45 C 134.63 169.60 134.21 168.64 133.36 168.31 C 132.51 167.98 131.56 168.40 131.23 169.25 Z M 130.87 170.16 L 130.50 171.12 C 130.17 171.97 130.59 172.93 131.43 173.26 C 132.28 173.59 133.24 173.17 133.57 172.32 L 133.94 171.36 C 134.27 170.51 133.85 169.56 133.00 169.23 C 132.15 168.90 131.20 169.32 130.87 170.16 Z M 130.50 171.13 L 130.12 172.11 C 129.79 172.96 130.21 173.91 131.06 174.24 C 131.91 174.57 132.86 174.15 133.19 173.30 L 133.57 172.31 C 133.89 171.47 133.47 170.51 132.63 170.19 C 131.78 169.86 130.82 170.28 130.50 171.13 Z M 130.12 172.11 L 129.74 173.10 C 129.41 173.95 129.83 174.90 130.68 175.23 C 131.53 175.55 132.48 175.13 132.81 174.28 L 133.19 173.30 C 133.51 172.45 133.09 171.50 132.24 171.17 C 131.39 170.84 130.44 171.27 130.12 172.11 Z M 129.74 173.10 L 129.36 174.08 C 129.04 174.92 129.46 175.87 130.31 176.20 C 131.16 176.52 132.11 176.10 132.43 175.25 L 132.81 174.28 C 133.13 173.43 132.71 172.48 131.86 172.16 C 131.01 171.83 130.06 172.26 129.74 173.10 Z M 129.36 174.08 L 129.01 175.01 C 128.68 175.86 129.11 176.81 129.96 177.13 C 130.80 177.46 131.75 177.03 132.08 176.18 L 132.43 175.25 C 132.76 174.40 132.33 173.45 131.48 173.13 C 130.64 172.81 129.69 173.23 129.36 174.08 Z M 129.01 175.02 L 128.66 175.94 C 128.33 176.79 128.76 177.74 129.61 178.06 C 130.46 178.38 131.40 177.96 131.73 177.11 L 132.08 176.18 C 132.40 175.33 131.97 174.38 131.12 174.06 C 130.28 173.74 129.33 174.17 129.01 175.02 Z M 128.65 175.95 L 128.23 177.09 C 127.91 177.93 128.34 178.88 129.18 179.20 C 130.03 179.52 130.98 179.09 131.30 178.24 L 131.73 177.10 C 132.04 176.26 131.62 175.31 130.77 174.99 C 129.92 174.67 128.97 175.10 128.65 175.95 Z M 128.23 177.09 L 127.85 178.10 C 127.53 178.95 127.96 179.90 128.81 180.21 C 129.66 180.53 130.61 180.10 130.92 179.25 L 131.30 178.24 C 131.61 177.39 131.18 176.44 130.33 176.13 C 129.49 175.81 128.54 176.24 128.23 177.09 Z M 127.85 178.11 L 127.51 179.02 C 127.20 179.87 127.63 180.81 128.48 181.13 C 129.33 181.44 130.27 181.00 130.59 180.16 L 130.92 179.24 C 131.24 178.39 130.80 177.45 129.95 177.14 C 129.10 176.82 128.16 177.26 127.85 178.11 Z M 127.51 179.02 L 127.20 179.87 C 126.89 180.72 127.33 181.66 128.18 181.97 C 129.03 182.28 129.97 181.84 130.28 180.99 L 130.59 180.15 C 130.90 179.30 130.46 178.36 129.61 178.05 C 128.76 177.74 127.82 178.17 127.51 179.02 Z M 127.20 179.87 L 126.91 180.67 C 126.60 181.52 127.04 182.46 127.89 182.77 C 128.74 183.08 129.68 182.64 129.99 181.79 L 130.28 180.99 C 130.59 180.14 130.15 179.20 129.30 178.89 C 128.45 178.58 127.51 179.02 127.20 179.87 Z M 126.91 180.67 L 126.79 180.99 C 126.48 181.84 126.92 182.78 127.77 183.09 C 128.62 183.40 129.56 182.96 129.87 182.11 L 129.99 181.79 C 130.29 180.94 129.86 180.00 129.01 179.70 C 128.16 179.39 127.22 179.82 126.91 180.67 Z"
      fill="black"
      fill-rule="nonzero" /><path d="M 145.77 146.53 L 145.77 147.56 C 145.77 148.55 146.57 149.35 147.56 149.35 C 148.55 149.35 149.36 148.55 149.36 147.56 L 149.36 146.53 C 149.36 145.54 148.55 144.73 147.56 144.73 C 146.57 144.73 145.77 145.54 145.77 146.53 Z M 145.76 147.55 L 145.75 148.58 C 145.75 149.57 146.56 150.38 147.55 150.39 C 148.55 150.39 149.36 149.58 149.36 148.59 L 149.37 147.56 C 149.37 146.56 148.56 145.75 147.57 145.75 C 146.57 145.75 145.76 146.56 145.76 147.55 Z M 145.74 148.57 L 145.74 149.58 C 145.73 150.58 146.54 151.40 147.54 151.41 C 148.54 151.42 149.36 150.61 149.37 149.61 L 149.38 148.59 C 149.38 147.59 148.57 146.77 147.57 146.77 C 146.57 146.76 145.75 147.57 145.74 148.57 Z M 145.73 149.57 L 145.71 150.56 C 145.70 151.57 146.51 152.40 147.51 152.42 C 148.52 152.43 149.35 151.62 149.37 150.61 L 149.38 149.62 C 149.39 148.61 148.59 147.78 147.58 147.77 C 146.57 147.75 145.74 148.56 145.73 149.57 Z M 145.70 150.55 L 145.68 151.52 C 145.66 152.53 146.46 153.37 147.47 153.40 C 148.49 153.42 149.33 152.62 149.35 151.60 L 149.38 150.63 C 149.40 149.62 148.60 148.78 147.58 148.75 C 146.57 148.73 145.73 149.53 145.70 150.55 Z M 145.67 151.50 L 145.64 152.45 C 145.60 153.47 146.40 154.33 147.42 154.36 C 148.44 154.40 149.29 153.60 149.33 152.58 L 149.36 151.63 C 149.40 150.61 148.60 149.75 147.58 149.71 C 146.56 149.68 145.71 150.48 145.67 151.50 Z M 145.63 152.43 L 145.58 153.39 C 145.53 154.41 146.32 155.28 147.34 155.33 C 148.36 155.38 149.23 154.60 149.28 153.57 L 149.33 152.61 C 149.38 151.59 148.60 150.72 147.57 150.67 C 146.55 150.62 145.68 151.41 145.63 152.43 Z M 145.58 153.37 L 145.52 154.33 C 145.46 155.35 146.24 156.23 147.26 156.29 C 148.28 156.36 149.16 155.58 149.23 154.56 L 149.29 153.60 C 149.35 152.57 148.57 151.69 147.55 151.63 C 146.53 151.57 145.65 152.35 145.58 153.37 Z M 145.52 154.31 L 145.45 155.28 C 145.38 156.31 146.15 157.20 147.18 157.27 C 148.20 157.34 149.09 156.57 149.16 155.55 L 149.23 154.57 C 149.30 153.55 148.53 152.66 147.51 152.59 C 146.48 152.51 145.59 153.29 145.52 154.31 Z M 145.45 155.27 L 145.37 156.29 C 145.30 157.31 146.06 158.21 147.09 158.29 C 148.11 158.36 149.01 157.60 149.09 156.57 L 149.16 155.56 C 149.24 154.53 148.47 153.64 147.45 153.56 C 146.42 153.48 145.53 154.25 145.45 155.27 Z M 145.37 156.29 L 145.29 157.36 C 145.21 158.39 145.98 159.29 147.00 159.37 C 148.03 159.45 148.92 158.68 149.00 157.65 L 149.09 156.57 C 149.17 155.55 148.40 154.65 147.37 154.57 C 146.35 154.49 145.45 155.26 145.37 156.29 Z M 145.29 157.37 L 145.21 158.38 C 145.13 159.40 145.90 160.30 146.93 160.38 C 147.96 160.46 148.85 159.69 148.93 158.66 L 149.01 157.65 C 149.08 156.62 148.31 155.73 147.29 155.65 C 146.26 155.57 145.36 156.34 145.29 157.37 Z M 145.21 158.38 L 145.13 159.42 C 145.06 160.45 145.83 161.34 146.85 161.42 C 147.88 161.49 148.78 160.72 148.85 159.70 L 148.93 158.65 C 149.01 157.63 148.23 156.73 147.21 156.66 C 146.18 156.58 145.28 157.35 145.21 158.38 Z M 145.13 159.42 L 145.06 160.48 C 144.98 161.50 145.76 162.40 146.78 162.47 C 147.81 162.54 148.71 161.77 148.78 160.74 L 148.85 159.69 C 148.93 158.66 148.15 157.77 147.13 157.70 C 146.10 157.62 145.20 158.40 145.13 159.42 Z M 145.05 160.48 L 144.98 161.51 C 144.91 162.54 145.69 163.43 146.72 163.50 C 147.75 163.57 148.64 162.80 148.71 161.77 L 148.78 160.74 C 148.85 159.71 148.07 158.82 147.04 158.75 C 146.02 158.68 145.12 159.45 145.05 160.48 Z M 144.98 161.52 L 144.92 162.51 C 144.86 163.54 145.64 164.42 146.67 164.49 C 147.70 164.55 148.58 163.77 148.65 162.74 L 148.71 161.76 C 148.78 160.73 147.99 159.84 146.97 159.78 C 145.94 159.71 145.05 160.49 144.98 161.52 Z M 144.92 162.52 L 144.87 163.43 C 144.81 164.46 145.60 165.34 146.63 165.40 C 147.66 165.46 148.54 164.67 148.60 163.64 L 148.65 162.73 C 148.71 161.70 147.92 160.82 146.89 160.76 C 145.86 160.70 144.98 161.49 144.92 162.52 Z M 144.87 163.45 L 144.81 164.61 C 144.77 165.64 145.56 166.52 146.59 166.56 C 147.62 166.61 148.49 165.82 148.54 164.79 L 148.60 163.62 C 148.64 162.59 147.85 161.72 146.82 161.67 C 145.79 161.62 144.92 162.42 144.87 163.45 Z M 144.82 164.64 L 144.78 165.70 C 144.75 166.73 145.56 167.59 146.59 167.62 C 147.61 167.65 148.47 166.85 148.50 165.82 L 148.54 164.76 C 148.57 163.73 147.76 162.87 146.74 162.84 C 145.71 162.81 144.85 163.62 144.82 164.64 Z M 144.79 165.72 L 144.77 166.63 C 144.75 167.65 145.57 168.50 146.59 168.52 C 147.61 168.54 148.46 167.73 148.48 166.70 L 148.50 165.80 C 148.52 164.77 147.71 163.93 146.68 163.91 C 145.66 163.89 144.81 164.70 144.79 165.72 Z M 144.78 166.63 L 144.76 167.47 C 144.74 168.49 145.56 169.33 146.58 169.35 C 147.60 169.37 148.44 168.55 148.46 167.53 L 148.48 166.70 C 148.49 165.68 147.68 164.84 146.66 164.82 C 145.64 164.80 144.80 165.61 144.78 166.63 Z M 144.77 167.45 L 144.74 168.43 C 144.72 169.45 145.52 170.29 146.54 170.32 C 147.56 170.35 148.40 169.54 148.43 168.53 L 148.45 167.55 C 148.48 166.53 147.68 165.68 146.66 165.66 C 145.64 165.63 144.80 166.43 144.77 167.45 Z M 144.75 168.42 L 144.72 169.42 C 144.69 170.43 145.48 171.28 146.50 171.31 C 147.51 171.34 148.36 170.54 148.39 169.53 L 148.42 168.53 C 148.45 167.52 147.66 166.67 146.64 166.64 C 145.63 166.61 144.78 167.41 144.75 168.42 Z M 144.72 169.42 L 144.70 170.44 C 144.67 171.45 145.47 172.29 146.48 172.32 C 147.49 172.35 148.33 171.55 148.36 170.54 L 148.39 169.52 C 148.41 168.51 147.62 167.67 146.61 167.64 C 145.59 167.61 144.75 168.41 144.72 169.42 Z M 144.70 170.46 L 144.69 171.46 C 144.67 172.46 145.47 173.30 146.48 173.31 C 147.49 173.33 148.32 172.53 148.34 171.52 L 148.35 170.52 C 148.37 169.51 147.57 168.68 146.56 168.66 C 145.55 168.65 144.72 169.45 144.70 170.46 Z M 144.69 171.47 L 144.68 172.47 C 144.68 173.48 145.48 174.30 146.49 174.31 C 147.49 174.32 148.32 173.51 148.32 172.50 L 148.33 171.50 C 148.34 170.50 147.53 169.67 146.53 169.67 C 145.52 169.66 144.70 170.47 144.69 171.47 Z M 144.69 172.48 L 144.69 173.49 C 144.69 174.49 145.50 175.31 146.50 175.31 C 147.50 175.31 148.31 174.50 148.32 173.50 L 148.32 172.49 C 148.32 171.49 147.51 170.68 146.51 170.67 C 145.51 170.67 144.69 171.48 144.69 172.48 Z M 144.69 173.49 L 144.69 174.49 C 144.69 175.49 145.50 176.30 146.50 176.30 C 147.50 176.30 148.31 175.49 148.31 174.49 L 148.31 173.49 C 148.31 172.50 147.50 171.69 146.50 171.69 C 145.50 171.69 144.69 172.50 144.69 173.49 Z M 144.70 174.49 L 144.70 175.48 C 144.70 176.48 145.51 177.28 146.50 177.28 C 147.50 177.28 148.30 176.48 148.30 175.48 L 148.30 174.49 C 148.30 173.50 147.50 172.69 146.50 172.69 C 145.51 172.69 144.70 173.50 144.70 174.49 Z M 144.71 175.48 L 144.71 176.48 C 144.71 177.47 145.51 178.27 146.50 178.27 C 147.49 178.27 148.29 177.47 148.29 176.48 L 148.29 175.48 C 148.29 174.49 147.49 173.69 146.50 173.69 C 145.51 173.69 144.71 174.49 144.71 175.48 Z M 144.71 176.48 L 144.71 177.50 C 144.71 178.48 145.51 179.28 146.50 179.28 C 147.49 179.28 148.29 178.48 148.29 177.50 L 148.29 176.48 C 148.29 175.49 147.49 174.69 146.50 174.69 C 145.51 174.69 144.71 175.49 144.71 176.48 Z M 144.72 177.50 L 144.72 178.40 C 144.72 179.38 145.52 180.18 146.50 180.18 C 147.48 180.18 148.28 179.38 148.28 178.40 L 148.28 177.50 C 148.28 176.51 147.48 175.72 146.50 175.72 C 145.52 175.72 144.72 176.51 144.72 177.50 Z M 144.73 178.40 L 144.73 179.35 C 144.73 180.33 145.52 181.12 146.50 181.12 C 147.48 181.12 148.27 180.33 148.27 179.35 L 148.27 178.40 C 148.27 177.42 147.48 176.63 146.50 176.63 C 145.52 176.63 144.73 177.42 144.73 178.40 Z M 144.74 179.35 L 144.74 180.38 C 144.74 181.35 145.53 182.14 146.50 182.14 C 147.47 182.14 148.26 181.35 148.26 180.38 L 148.26 179.35 C 148.26 178.38 147.47 177.60 146.50 177.60 C 145.53 177.60 144.74 178.38 144.74 179.35 Z M 144.75 180.38 L 144.75 181.49 C 144.75 182.46 145.54 183.24 146.50 183.24 C 147.47 183.24 148.25 182.46 148.25 181.49 L 148.25 180.38 C 148.25 179.42 147.47 178.63 146.50 178.63 C 145.54 178.63 144.75 179.42 144.75 180.38 Z M 144.76 181.49 L 144.76 182.45 C 144.76 183.41 145.54 184.19 146.50 184.18 C 147.46 184.18 148.24 183.40 148.24 182.44 L 148.24 181.49 C 148.24 180.53 147.46 179.75 146.50 179.75 C 145.54 179.75 144.76 180.53 144.76 181.49 Z M 144.77 182.45 L 144.77 183.45 C 144.78 184.41 145.56 185.18 146.52 185.18 C 147.47 185.17 148.25 184.39 148.24 183.43 L 148.24 182.44 C 148.23 181.48 147.45 180.71 146.49 180.71 C 145.54 180.72 144.76 181.50 144.77 182.45 Z M 144.78 183.47 L 144.79 184.49 C 144.81 185.44 145.59 186.21 146.54 186.19 C 147.50 186.18 148.26 185.40 148.25 184.44 L 148.23 183.42 C 148.22 182.47 147.44 181.70 146.48 181.72 C 145.53 181.73 144.77 182.51 144.78 183.47 Z M 144.80 184.51 L 144.83 185.54 C 144.85 186.49 145.64 187.24 146.59 187.21 C 147.54 187.19 148.29 186.40 148.27 185.45 L 148.24 184.42 C 148.22 183.47 147.43 182.72 146.48 182.75 C 145.53 182.77 144.78 183.56 144.80 184.51 Z M 144.83 185.56 L 144.87 186.57 C 144.91 187.51 145.71 188.25 146.66 188.21 C 147.61 188.17 148.34 187.37 148.30 186.42 L 148.26 185.42 C 148.22 184.47 147.42 183.74 146.47 183.78 C 145.53 183.82 144.79 184.62 144.83 185.56 Z M 144.89 186.61 L 144.96 187.68 C 145.02 188.62 145.83 189.33 146.77 189.27 C 147.71 189.21 148.43 188.40 148.36 187.46 L 148.29 186.38 C 148.23 185.44 147.41 184.73 146.47 184.79 C 145.53 184.86 144.82 185.67 144.89 186.61 Z M 144.98 187.74 L 145.08 188.77 C 145.18 189.70 146.01 190.37 146.94 190.28 C 147.87 190.18 148.55 189.35 148.45 188.42 L 148.35 187.40 C 148.25 186.47 147.42 185.79 146.49 185.88 C 145.56 185.98 144.88 186.81 144.98 187.74 Z M 145.10 188.84 L 145.25 189.82 C 145.39 190.74 146.24 191.37 147.16 191.23 C 148.08 191.09 148.71 190.24 148.58 189.32 L 148.43 188.34 C 148.29 187.43 147.43 186.79 146.52 186.93 C 145.60 187.07 144.96 187.92 145.10 188.84 Z M 145.28 189.91 L 145.47 190.84 C 145.66 191.74 146.55 192.32 147.45 192.13 C 148.35 191.94 148.93 191.06 148.74 190.15 L 148.55 189.23 C 148.36 188.32 147.47 187.74 146.57 187.93 C 145.67 188.12 145.09 189.01 145.28 189.91 Z M 145.51 190.95 L 145.77 191.88 C 146.02 192.76 146.94 193.27 147.82 193.03 C 148.70 192.78 149.22 191.86 148.97 190.98 L 148.70 190.04 C 148.45 189.16 147.54 188.65 146.65 188.90 C 145.77 189.15 145.26 190.06 145.51 190.95 Z M 145.82 191.99 L 146.16 192.94 C 146.47 193.80 147.42 194.24 148.27 193.93 C 149.13 193.62 149.58 192.67 149.27 191.82 L 148.92 190.87 C 148.61 190.01 147.67 189.56 146.81 189.87 C 145.95 190.18 145.51 191.13 145.82 191.99 Z M 146.20 193.02 L 146.59 193.94 C 146.94 194.77 147.91 195.17 148.75 194.81 C 149.58 194.45 149.97 193.49 149.62 192.65 L 149.23 191.73 C 148.87 190.90 147.91 190.50 147.07 190.86 C 146.23 191.22 145.84 192.18 146.20 193.02 Z M 146.61 193.99 L 147.03 194.88 C 147.41 195.71 148.39 196.06 149.21 195.68 C 150.03 195.30 150.39 194.32 150.01 193.50 L 149.59 192.60 C 149.21 191.78 148.23 191.42 147.41 191.80 C 146.59 192.19 146.23 193.16 146.61 193.99 Z M 147.04 194.90 L 147.28 195.39 C 147.67 196.21 148.65 196.55 149.46 196.16 C 150.28 195.77 150.62 194.79 150.23 193.97 L 150.00 193.48 C 149.61 192.67 148.63 192.32 147.81 192.71 C 146.99 193.11 146.65 194.08 147.04 194.90 Z"
      fill="black"
      fill-rule="nonzero" /><path d="M 146.79 144.62 L 147.68 145.03 C 148.60 145.46 149.70 145.06 150.13 144.13 C 150.55 143.21 150.15 142.12 149.23 141.69 L 148.34 141.27 C 147.41 140.85 146.32 141.25 145.89 142.17 C 145.46 143.09 145.86 144.19 146.79 144.62 Z M 147.78 145.11 L 148.70 145.47 C 149.67 145.85 150.76 145.37 151.13 144.40 C 151.51 143.43 151.03 142.34 150.06 141.96 L 149.14 141.61 C 148.17 141.23 147.08 141.71 146.70 142.68 C 146.33 143.65 146.81 144.74 147.78 145.11 Z M 148.91 145.58 L 149.90 145.83 C 150.93 146.08 151.97 145.46 152.23 144.43 C 152.48 143.40 151.86 142.36 150.83 142.10 L 149.84 141.85 C 148.82 141.60 147.77 142.22 147.52 143.25 C 147.26 144.28 147.89 145.32 148.91 145.58 Z M 150.19 145.90 L 151.12 145.98 C 152.18 146.08 153.13 145.29 153.23 144.23 C 153.33 143.16 152.54 142.21 151.47 142.12 L 150.54 142.03 C 149.47 141.93 148.53 142.72 148.43 143.78 C 148.33 144.85 149.12 145.80 150.19 145.90 Z M 151.34 145.99 L 152.31 145.97 C 153.38 145.94 154.23 145.05 154.21 143.98 C 154.18 142.91 153.29 142.06 152.22 142.08 L 151.25 142.11 C 150.18 142.13 149.33 143.02 149.35 144.09 C 149.38 145.17 150.27 146.02 151.34 145.99 Z M 152.46 145.96 L 153.48 145.86 C 154.55 145.75 155.33 144.80 155.23 143.74 C 155.12 142.67 154.17 141.89 153.10 141.99 L 152.08 142.09 C 151.01 142.20 150.23 143.15 150.34 144.22 C 150.44 145.28 151.39 146.06 152.46 145.96 Z M 153.56 145.85 L 154.61 145.70 C 155.67 145.55 156.41 144.57 156.26 143.51 C 156.11 142.45 155.13 141.71 154.06 141.86 L 153.02 142.01 C 151.96 142.15 151.22 143.14 151.37 144.20 C 151.52 145.26 152.50 146.00 153.56 145.85 Z M 154.64 145.69 L 155.59 145.54 C 156.65 145.37 157.37 144.37 157.20 143.32 C 157.03 142.26 156.03 141.54 154.98 141.71 L 154.03 141.87 C 152.97 142.04 152.25 143.03 152.42 144.09 C 152.59 145.14 153.59 145.86 154.64 145.69 Z M 155.61 145.53 L 156.59 145.37 C 157.64 145.19 158.35 144.19 158.17 143.13 C 157.99 142.08 156.99 141.37 155.94 141.55 L 154.96 141.72 C 153.91 141.90 153.20 142.90 153.38 143.95 C 153.56 145.00 154.56 145.71 155.61 145.53 Z M 156.59 145.36 L 157.59 145.19 C 158.64 145.01 159.35 144.01 159.17 142.96 C 158.98 141.91 157.98 141.20 156.93 141.38 L 155.93 141.56 C 154.88 141.74 154.17 142.74 154.36 143.79 C 154.54 144.84 155.54 145.55 156.59 145.36 Z M 157.58 145.19 L 158.61 145.02 C 159.66 144.84 160.37 143.84 160.19 142.79 C 160.01 141.74 159.02 141.03 157.97 141.21 L 156.94 141.38 C 155.89 141.56 155.18 142.56 155.36 143.61 C 155.54 144.66 156.53 145.37 157.58 145.19 Z M 158.59 145.02 L 159.52 144.87 C 160.57 144.70 161.28 143.71 161.11 142.66 C 160.95 141.61 159.96 140.89 158.91 141.06 L 157.98 141.21 C 156.93 141.38 156.22 142.37 156.38 143.42 C 156.55 144.47 157.54 145.19 158.59 145.02 Z M 159.49 144.87 L 160.44 144.73 C 161.49 144.57 162.21 143.59 162.06 142.54 C 161.90 141.49 160.92 140.76 159.87 140.92 L 158.93 141.06 C 157.88 141.22 157.15 142.20 157.31 143.25 C 157.46 144.30 158.44 145.03 159.49 144.87 Z M 160.41 144.73 L 161.39 144.60 C 162.44 144.46 163.18 143.49 163.04 142.44 C 162.90 141.38 161.93 140.65 160.87 140.79 L 159.90 140.92 C 158.84 141.06 158.10 142.03 158.25 143.08 C 158.39 144.14 159.36 144.87 160.41 144.73 Z M 161.36 144.60 L 162.39 144.48 C 163.44 144.35 164.19 143.40 164.07 142.34 C 163.94 141.29 162.98 140.54 161.93 140.66 L 160.90 140.79 C 159.85 140.91 159.10 141.87 159.22 142.92 C 159.35 143.98 160.31 144.73 161.36 144.60 Z M 162.36 144.48 L 163.44 144.37 C 164.50 144.26 165.26 143.31 165.15 142.26 C 165.05 141.20 164.10 140.44 163.05 140.55 L 161.96 140.66 C 160.91 140.77 160.14 141.72 160.25 142.77 C 160.36 143.82 161.30 144.59 162.36 144.48 Z M 163.42 144.37 L 164.40 144.28 C 165.45 144.18 166.23 143.25 166.14 142.20 C 166.04 141.14 165.11 140.36 164.06 140.46 L 163.07 140.55 C 162.02 140.64 161.24 141.57 161.34 142.63 C 161.43 143.68 162.36 144.46 163.42 144.37 Z M 164.38 144.28 L 165.39 144.20 C 166.45 144.12 167.24 143.19 167.15 142.14 C 167.07 141.09 166.15 140.30 165.09 140.38 L 164.08 140.46 C 163.02 140.54 162.24 141.46 162.32 142.52 C 162.40 143.57 163.32 144.36 164.38 144.28 Z M 165.37 144.20 L 166.40 144.13 C 167.45 144.06 168.25 143.14 168.18 142.09 C 168.11 141.03 167.19 140.24 166.14 140.31 L 165.11 140.38 C 164.06 140.45 163.26 141.37 163.33 142.42 C 163.41 143.47 164.32 144.27 165.37 144.20 Z M 166.38 144.13 L 167.40 144.07 C 168.45 144.01 169.26 143.10 169.20 142.05 C 169.13 140.99 168.23 140.19 167.17 140.25 L 166.16 140.31 C 165.10 140.37 164.30 141.28 164.36 142.33 C 164.42 143.39 165.33 144.19 166.38 144.13 Z M 167.38 144.07 L 168.37 144.02 C 169.42 143.97 170.23 143.07 170.18 142.02 C 170.13 140.96 169.23 140.15 168.18 140.20 L 167.19 140.25 C 166.14 140.30 165.32 141.20 165.38 142.25 C 165.43 143.31 166.33 144.12 167.38 144.07 Z M 168.35 144.02 L 169.36 143.98 C 170.41 143.94 171.23 143.05 171.19 142.00 C 171.15 140.94 170.26 140.12 169.21 140.16 L 168.20 140.20 C 167.14 140.24 166.32 141.13 166.36 142.19 C 166.41 143.24 167.29 144.06 168.35 144.02 Z M 169.33 143.98 L 170.44 143.95 C 171.49 143.93 172.33 143.05 172.30 142.00 C 172.28 140.95 171.40 140.11 170.35 140.14 L 169.24 140.16 C 168.18 140.19 167.35 141.06 167.37 142.12 C 167.40 143.17 168.27 144.00 169.33 143.98 Z M 170.39 143.95 L 171.41 143.96 C 172.46 143.96 173.32 143.11 173.32 142.06 C 173.33 141.01 172.48 140.15 171.43 140.14 L 170.41 140.14 C 169.35 140.13 168.50 140.98 168.49 142.03 C 168.48 143.09 169.33 143.95 170.39 143.95 Z M 171.33 143.95 L 172.27 144.00 C 173.32 144.05 174.22 143.24 174.27 142.19 C 174.32 141.14 173.51 140.25 172.46 140.19 L 171.51 140.15 C 170.46 140.10 169.57 140.91 169.52 141.96 C 169.47 143.01 170.28 143.90 171.33 143.95 Z M 172.16 143.99 L 173.05 144.08 C 174.09 144.20 175.03 143.44 175.14 142.40 C 175.25 141.35 174.50 140.41 173.45 140.30 L 172.57 140.21 C 171.53 140.09 170.59 140.85 170.47 141.89 C 170.36 142.94 171.12 143.87 172.16 143.99 Z M 172.89 144.06 L 173.88 144.25 C 174.91 144.45 175.90 143.77 176.10 142.74 C 176.30 141.71 175.63 140.72 174.60 140.52 L 173.61 140.33 C 172.58 140.13 171.58 140.80 171.39 141.83 C 171.19 142.86 171.86 143.86 172.89 144.06 Z M 173.68 144.19 L 174.64 144.49 C 175.64 144.80 176.70 144.23 177.01 143.23 C 177.31 142.23 176.75 141.17 175.75 140.86 L 174.79 140.57 C 173.79 140.26 172.73 140.83 172.43 141.83 C 172.12 142.83 172.68 143.89 173.68 144.19 Z M 174.42 144.40 L 175.32 144.80 C 176.27 145.23 177.39 144.80 177.82 143.85 C 178.24 142.89 177.81 141.78 176.86 141.35 L 175.97 140.95 C 175.01 140.52 173.89 140.95 173.47 141.90 C 173.04 142.86 173.47 143.98 174.42 144.40 Z M 175.10 144.69 L 175.93 145.19 C 176.82 145.74 177.98 145.46 178.53 144.57 C 179.07 143.68 178.79 142.52 177.90 141.97 L 177.07 141.47 C 176.19 140.92 175.02 141.20 174.48 142.09 C 173.94 142.98 174.22 144.14 175.10 144.69 Z M 175.75 145.06 L 176.48 145.64 C 177.30 146.29 178.48 146.15 179.13 145.34 C 179.78 144.52 179.64 143.34 178.82 142.69 L 178.09 142.11 C 177.27 141.46 176.09 141.60 175.44 142.41 C 174.79 143.23 174.93 144.41 175.75 145.06 Z M 176.33 145.51 L 177.03 146.19 C 177.77 146.92 178.96 146.92 179.69 146.18 C 180.42 145.44 180.41 144.25 179.67 143.52 L 178.97 142.83 C 178.24 142.10 177.04 142.11 176.31 142.85 C 175.58 143.58 175.59 144.78 176.33 145.51 Z M 176.91 146.06 L 177.57 146.85 C 178.24 147.65 179.42 147.76 180.22 147.09 C 181.01 146.42 181.12 145.24 180.45 144.44 L 179.79 143.65 C 179.13 142.85 177.94 142.75 177.14 143.42 C 176.35 144.08 176.24 145.27 176.91 146.06 Z M 177.48 146.73 L 178.08 147.58 C 178.68 148.42 179.85 148.62 180.70 148.02 C 181.54 147.42 181.74 146.25 181.14 145.41 L 180.54 144.56 C 179.94 143.72 178.77 143.52 177.93 144.12 C 177.08 144.72 176.88 145.89 177.48 146.73 Z M 178.02 147.48 L 178.51 148.27 C 179.05 149.15 180.21 149.42 181.09 148.88 C 181.97 148.33 182.24 147.18 181.70 146.30 L 181.20 145.50 C 180.66 144.62 179.50 144.35 178.62 144.90 C 177.74 145.44 177.47 146.60 178.02 147.48 Z M 178.46 148.18 L 178.93 149.04 C 179.42 149.95 180.56 150.28 181.47 149.79 C 182.38 149.29 182.71 148.15 182.21 147.24 L 181.75 146.39 C 181.25 145.48 180.11 145.15 179.20 145.64 C 178.30 146.14 177.96 147.28 178.46 148.18 Z M 178.88 148.95 L 179.33 149.87 C 179.77 150.80 180.89 151.19 181.82 150.75 C 182.75 150.30 183.15 149.18 182.70 148.25 L 182.26 147.33 C 181.81 146.40 180.69 146.01 179.76 146.46 C 178.83 146.90 178.44 148.02 178.88 148.95 Z M 179.29 149.78 L 179.70 150.76 C 180.10 151.71 181.19 152.16 182.14 151.76 C 183.10 151.36 183.54 150.26 183.15 149.31 L 182.74 148.34 C 182.34 147.38 181.24 146.93 180.29 147.33 C 179.34 147.73 178.89 148.83 179.29 149.78 Z M 179.66 150.67 L 180.02 151.66 C 180.38 152.63 181.45 153.14 182.42 152.78 C 183.39 152.43 183.89 151.36 183.54 150.39 L 183.18 149.40 C 182.83 148.43 181.75 147.92 180.78 148.28 C 179.81 148.63 179.31 149.70 179.66 150.67 Z M 180.00 151.59 L 180.31 152.58 C 180.62 153.56 181.67 154.11 182.65 153.80 C 183.64 153.49 184.18 152.44 183.87 151.46 L 183.56 150.47 C 183.25 149.48 182.20 148.94 181.22 149.25 C 180.24 149.56 179.69 150.60 180.00 151.59 Z M 180.30 152.52 L 180.57 153.52 C 180.85 154.51 181.88 155.09 182.87 154.82 C 183.86 154.54 184.44 153.51 184.17 152.52 L 183.89 151.52 C 183.61 150.53 182.59 149.95 181.59 150.22 C 180.60 150.50 180.02 151.53 180.30 152.52 Z M 180.56 153.47 L 180.81 154.45 C 181.05 155.45 182.06 156.06 183.06 155.81 C 184.06 155.56 184.67 154.55 184.42 153.55 L 184.18 152.57 C 183.93 151.57 182.92 150.96 181.92 151.21 C 180.93 151.46 180.32 152.47 180.56 153.47 Z M 180.80 154.40 L 181.01 155.34 C 181.23 156.35 182.22 156.98 183.23 156.76 C 184.23 156.54 184.86 155.54 184.64 154.54 L 184.43 153.60 C 184.21 152.60 183.22 151.96 182.21 152.18 C 181.21 152.41 180.58 153.40 180.80 154.40 Z M 181.00 155.30 L 181.19 156.27 C 181.39 157.27 182.37 157.93 183.37 157.73 C 184.38 157.53 185.04 156.55 184.84 155.55 L 184.65 154.58 C 184.45 153.58 183.47 152.92 182.46 153.12 C 181.46 153.32 180.80 154.30 181.00 155.30 Z M 181.18 156.22 L 181.37 157.28 C 181.54 158.29 182.50 158.97 183.51 158.80 C 184.52 158.63 185.19 157.67 185.02 156.66 L 184.84 155.59 C 184.67 154.58 183.71 153.90 182.70 154.08 C 181.69 154.25 181.01 155.21 181.18 156.22 Z M 181.36 157.23 L 181.50 158.19 C 181.64 159.21 182.57 159.91 183.59 159.77 C 184.60 159.63 185.30 158.69 185.16 157.68 L 185.03 156.71 C 184.88 155.70 183.95 155.00 182.94 155.14 C 181.93 155.28 181.22 156.21 181.36 157.23 Z M 181.50 158.15 L 181.60 159.07 C 181.72 160.08 182.63 160.81 183.64 160.70 C 184.65 160.58 185.38 159.67 185.27 158.66 L 185.16 157.73 C 185.05 156.72 184.14 155.99 183.12 156.10 C 182.11 156.22 181.38 157.13 181.50 158.15 Z M 181.60 159.04 L 181.69 159.98 C 181.79 160.99 182.68 161.73 183.70 161.64 C 184.71 161.54 185.45 160.64 185.36 159.63 L 185.27 158.69 C 185.17 157.68 184.27 156.93 183.26 157.03 C 182.25 157.13 181.51 158.02 181.60 159.04 Z M 181.69 159.96 L 181.77 160.94 C 181.86 161.95 182.75 162.70 183.76 162.62 C 184.77 162.53 185.52 161.64 185.44 160.63 L 185.35 159.65 C 185.27 158.64 184.38 157.89 183.37 157.97 C 182.36 158.06 181.61 158.95 181.69 159.96 Z M 181.78 160.92 L 181.85 161.93 C 181.93 162.94 182.81 163.69 183.82 163.62 C 184.83 163.54 185.59 162.66 185.51 161.65 L 185.43 160.65 C 185.36 159.64 184.48 158.88 183.47 158.96 C 182.46 159.03 181.70 159.91 181.78 160.92 Z M 181.85 161.92 L 181.93 162.94 C 182.00 163.95 182.88 164.71 183.88 164.63 C 184.89 164.56 185.65 163.69 185.58 162.68 L 185.51 161.66 C 185.44 160.65 184.56 159.89 183.55 159.96 C 182.54 160.03 181.78 160.91 181.85 161.92 Z M 181.93 162.93 L 182.00 163.91 C 182.07 164.92 182.94 165.68 183.95 165.61 C 184.96 165.54 185.72 164.66 185.65 163.65 L 185.58 162.68 C 185.51 161.67 184.63 160.91 183.63 160.98 C 182.62 161.05 181.86 161.93 181.93 162.93 Z M 182.00 163.91 L 182.07 164.88 C 182.14 165.89 183.01 166.65 184.01 166.58 C 185.02 166.51 185.78 165.64 185.71 164.63 L 185.64 163.66 C 185.57 162.65 184.70 161.89 183.70 161.96 C 182.69 162.03 181.93 162.90 182.00 163.91 Z M 182.07 164.88 L 182.14 165.88 C 182.21 166.89 183.07 167.65 184.08 167.58 C 185.08 167.51 185.84 166.64 185.77 165.64 L 185.71 164.64 C 185.64 163.63 184.77 162.87 183.77 162.94 C 182.76 163.01 182.00 163.88 182.07 164.88 Z M 182.14 165.88 L 182.21 166.91 C 182.27 167.92 183.14 168.68 184.14 168.61 C 185.14 168.55 185.90 167.68 185.84 166.68 L 185.77 165.64 C 185.71 164.64 184.84 163.88 183.84 163.95 C 182.84 164.01 182.08 164.88 182.14 165.88 Z M 182.21 166.91 L 182.27 167.91 C 182.34 168.91 183.20 169.67 184.20 169.61 C 185.20 169.54 185.96 168.68 185.90 167.68 L 185.84 166.68 C 185.77 165.68 184.91 164.92 183.91 164.98 C 182.91 165.05 182.15 165.91 182.21 166.91 Z M 182.28 167.90 L 182.34 168.91 C 182.40 169.91 183.26 170.67 184.25 170.61 C 185.25 170.55 186.01 169.69 185.96 168.70 L 185.89 167.69 C 185.83 166.69 184.98 165.93 183.98 165.99 C 182.98 166.05 182.22 166.90 182.28 167.90 Z M 182.34 168.91 L 182.40 169.92 C 182.46 170.91 183.31 171.68 184.31 171.62 C 185.30 171.56 186.07 170.71 186.01 169.71 L 185.95 168.70 C 185.90 167.70 185.04 166.94 184.04 167.00 C 183.05 167.06 182.28 167.91 182.34 168.91 Z M 182.40 169.91 L 182.45 170.90 C 182.51 171.90 183.36 172.66 184.35 172.61 C 185.35 172.56 186.11 171.71 186.06 170.71 L 186.01 169.72 C 185.95 168.72 185.10 167.96 184.11 168.01 C 183.11 168.07 182.35 168.91 182.40 169.91 Z M 182.46 170.89 L 182.51 171.92 C 182.55 172.91 183.40 173.68 184.39 173.63 C 185.38 173.58 186.15 172.74 186.10 171.74 L 186.05 170.72 C 186.01 169.73 185.16 168.96 184.17 169.01 C 183.18 169.06 182.41 169.90 182.46 170.89 Z M 182.51 171.91 L 182.55 172.93 C 182.60 173.92 183.43 174.69 184.43 174.65 C 185.42 174.61 186.19 173.77 186.14 172.78 L 186.10 171.75 C 186.06 170.76 185.22 169.99 184.23 170.04 C 183.24 170.08 182.47 170.92 182.51 171.91 Z M 182.56 172.92 L 182.59 173.91 C 182.63 174.90 183.47 175.67 184.46 175.63 C 185.45 175.59 186.22 174.76 186.18 173.77 L 186.14 172.78 C 186.10 171.79 185.27 171.02 184.28 171.06 C 183.29 171.10 182.52 171.93 182.56 172.92 Z M 182.60 173.91 L 182.63 174.87 C 182.67 175.86 183.50 176.63 184.49 176.59 C 185.48 176.56 186.25 175.73 186.21 174.74 L 186.18 173.77 C 186.14 172.79 185.31 172.01 184.32 172.05 C 183.33 172.09 182.56 172.92 182.60 173.91 Z M 182.64 174.87 L 182.67 175.87 C 182.71 176.85 183.54 177.63 184.52 177.59 C 185.51 177.55 186.28 176.73 186.24 175.74 L 186.21 174.74 C 186.17 173.75 185.34 172.98 184.36 173.02 C 183.37 173.05 182.60 173.88 182.64 174.87 Z M 182.68 175.86 L 182.71 176.87 C 182.74 177.85 183.57 178.62 184.55 178.59 C 185.54 178.56 186.31 177.73 186.28 176.75 L 186.24 175.74 C 186.21 174.76 185.38 173.99 184.40 174.02 C 183.41 174.05 182.64 174.88 182.68 175.86 Z M 182.71 176.86 L 182.74 177.86 C 182.77 178.84 183.59 179.61 184.58 179.58 C 185.56 179.55 186.33 178.73 186.30 177.75 L 186.27 176.76 C 186.24 175.77 185.42 175.00 184.44 175.03 C 183.46 175.06 182.68 175.88 182.71 176.86 Z M 182.75 177.84 L 182.77 178.81 C 182.79 179.79 183.60 180.57 184.58 180.55 C 185.56 180.53 186.34 179.72 186.32 178.74 L 186.30 177.76 C 186.28 176.78 185.46 176.01 184.48 176.03 C 183.50 176.05 182.73 176.86 182.75 177.84 Z M 182.77 178.80 L 182.78 179.71 C 182.80 180.69 183.60 181.47 184.58 181.46 C 185.56 181.45 186.34 180.64 186.33 179.67 L 186.32 178.75 C 186.30 177.77 185.50 176.99 184.52 177.00 C 183.54 177.01 182.76 177.82 182.77 178.80 Z M 182.79 179.70 L 182.79 180.66 C 182.80 181.63 183.59 182.42 184.57 182.41 C 185.55 182.41 186.34 181.61 186.33 180.64 L 186.32 179.68 C 186.32 178.70 185.52 177.91 184.55 177.92 C 183.57 177.93 182.78 178.72 182.79 179.70 Z M 182.80 180.65 L 182.80 181.69 C 182.80 182.67 183.59 183.46 184.57 183.45 C 185.54 183.45 186.33 182.66 186.33 181.69 L 186.33 180.64 C 186.32 179.67 185.53 178.88 184.56 178.88 C 183.58 178.88 182.79 179.67 182.80 180.65 Z M 182.80 181.69 L 182.80 182.76 C 182.80 183.73 183.59 184.52 184.56 184.52 C 185.54 184.52 186.32 183.73 186.32 182.76 L 186.32 181.69 C 186.32 180.72 185.54 179.93 184.56 179.93 C 183.59 179.93 182.80 180.72 182.80 181.69 Z M 182.80 182.76 L 182.80 183.70 C 182.80 184.67 183.59 185.46 184.56 185.46 C 185.53 185.46 186.32 184.67 186.32 183.70 L 186.32 182.76 C 186.32 181.79 185.53 181.00 184.56 181.00 C 183.59 181.00 182.80 181.79 182.80 182.76 Z M 182.81 183.70 L 182.81 184.69 C 182.81 185.66 183.59 186.45 184.56 186.45 C 185.53 186.45 186.32 185.66 186.32 184.69 L 186.32 183.70 C 186.32 182.73 185.53 181.94 184.56 181.94 C 183.59 181.94 182.81 182.73 182.81 183.70 Z M 182.81 184.69 L 182.81 185.72 C 182.81 186.69 183.59 187.48 184.56 187.48 C 185.53 187.48 186.32 186.69 186.32 185.72 L 186.32 184.69 C 186.32 183.72 185.53 182.94 184.56 182.94 C 183.59 182.94 182.81 183.72 182.81 184.69 Z M 182.81 185.72 L 182.81 186.76 C 182.81 187.73 183.60 188.51 184.56 188.51 C 185.53 188.51 186.31 187.73 186.31 186.76 L 186.31 185.72 C 186.31 184.75 185.53 183.97 184.56 183.97 C 183.60 183.97 182.81 184.75 182.81 185.72 Z M 182.81 186.76 L 182.81 187.79 C 182.81 188.76 183.60 189.54 184.56 189.54 C 185.53 189.54 186.31 188.76 186.31 187.79 L 186.31 186.76 C 186.31 185.80 185.53 185.01 184.56 185.01 C 183.60 185.01 182.81 185.80 182.81 186.76 Z M 182.82 187.79 L 182.82 188.90 C 182.82 189.86 183.60 190.65 184.56 190.65 C 185.53 190.65 186.31 189.86 186.31 188.90 L 186.31 187.79 C 186.31 186.83 185.53 186.05 184.56 186.05 C 183.60 186.05 182.82 186.83 182.82 187.79 Z M 182.82 188.90 L 182.82 189.96 C 182.82 190.92 183.60 191.70 184.56 191.70 C 185.52 191.70 186.30 190.92 186.30 189.96 L 186.30 188.90 C 186.30 187.94 185.52 187.16 184.56 187.16 C 183.60 187.16 182.82 187.94 182.82 188.90 Z M 182.83 189.96 L 182.83 190.96 C 182.83 191.91 183.61 192.69 184.56 192.69 C 185.52 192.69 186.30 191.91 186.30 190.96 L 186.30 189.96 C 186.30 189.00 185.52 188.23 184.56 188.23 C 183.61 188.23 182.83 189.00 182.83 189.96 Z M 182.84 190.96 L 182.84 191.89 C 182.84 192.84 183.61 193.61 184.56 193.61 C 185.52 193.61 186.29 192.84 186.29 191.89 L 186.29 190.96 C 186.29 190.00 185.52 189.23 184.56 189.23 C 183.61 189.23 182.84 190.00 182.84 190.96 Z M 182.84 191.89 L 182.84 192.83 C 182.84 193.78 183.61 194.55 184.56 194.55 C 185.51 194.55 186.28 193.78 186.28 192.83 L 186.28 191.89 C 186.28 190.94 185.51 190.17 184.56 190.17 C 183.61 190.17 182.84 190.94 182.84 191.89 Z M 182.85 192.80 L 182.83 193.86 C 182.81 194.81 183.56 195.59 184.51 195.61 C 185.45 195.63 186.24 194.88 186.25 193.93 L 186.28 192.87 C 186.30 191.92 185.54 191.14 184.60 191.12 C 183.65 191.10 182.87 191.85 182.85 192.80 Z M 182.84 193.71 L 182.74 194.67 C 182.64 195.61 183.31 196.45 184.25 196.55 C 185.19 196.65 186.03 195.97 186.13 195.04 L 186.24 194.08 C 186.34 193.14 185.66 192.30 184.73 192.20 C 183.79 192.10 182.95 192.77 182.84 193.71 Z M 182.80 194.39 L 182.55 195.29 C 182.30 196.20 182.82 197.13 183.73 197.39 C 184.63 197.64 185.57 197.11 185.82 196.21 L 186.07 195.31 C 186.33 194.41 185.80 193.47 184.89 193.21 C 183.99 192.96 183.05 193.49 182.80 194.39 Z M 182.67 194.99 L 182.26 195.81 C 181.84 196.65 182.17 197.67 183.01 198.09 C 183.84 198.51 184.86 198.17 185.28 197.34 L 185.70 196.51 C 186.12 195.68 185.78 194.66 184.95 194.24 C 184.11 193.82 183.10 194.15 182.67 194.99 Z M 182.38 195.62 L 181.82 196.43 C 181.29 197.20 181.49 198.25 182.26 198.77 C 183.02 199.30 184.07 199.11 184.60 198.34 L 185.16 197.53 C 185.69 196.76 185.49 195.71 184.73 195.19 C 183.96 194.66 182.91 194.85 182.38 195.62 Z M 181.91 196.33 L 181.25 197.14 C 180.67 197.86 180.79 198.92 181.51 199.50 C 182.23 200.08 183.29 199.97 183.87 199.25 L 184.52 198.44 C 185.10 197.72 184.99 196.66 184.27 196.08 C 183.54 195.50 182.49 195.61 181.91 196.33 Z M 181.29 197.10 L 180.77 197.71 C 180.17 198.41 180.25 199.46 180.96 200.07 C 181.66 200.67 182.71 200.59 183.31 199.88 L 183.83 199.28 C 184.43 198.58 184.35 197.52 183.65 196.92 C 182.95 196.32 181.89 196.40 181.29 197.10 Z"
      fill="black"
      fill-rule="nonzero" /><path d="M 148.82 167.43 L 149.64 166.90 C 150.49 166.35 150.74 165.22 150.19 164.37 C 149.65 163.53 148.52 163.28 147.67 163.83 L 146.84 164.36 C 145.99 164.90 145.74 166.03 146.29 166.88 C 146.84 167.73 147.97 167.98 148.82 167.43 Z M 149.64 166.92 L 150.47 166.40 C 151.34 165.86 151.60 164.72 151.06 163.86 C 150.51 163.00 149.38 162.73 148.51 163.28 L 147.68 163.80 C 146.81 164.34 146.55 165.48 147.09 166.34 C 147.64 167.20 148.77 167.47 149.64 166.92 Z M 150.45 166.43 L 151.30 165.92 C 152.18 165.40 152.47 164.26 151.95 163.37 C 151.42 162.49 150.28 162.20 149.40 162.73 L 148.54 163.24 C 147.66 163.77 147.37 164.91 147.90 165.79 C 148.42 166.67 149.56 166.96 150.45 166.43 Z M 151.26 165.97 L 152.14 165.48 C 153.04 164.98 153.37 163.84 152.87 162.93 C 152.37 162.03 151.23 161.70 150.32 162.20 L 149.44 162.69 C 148.54 163.19 148.21 164.33 148.71 165.24 C 149.21 166.14 150.35 166.47 151.26 165.97 Z M 152.07 165.53 L 152.99 165.08 C 153.92 164.61 154.30 163.47 153.83 162.54 C 153.37 161.61 152.23 161.23 151.30 161.69 L 150.39 162.15 C 149.45 162.62 149.07 163.75 149.54 164.68 C 150.01 165.62 151.14 166.00 152.07 165.53 Z M 152.91 165.12 L 153.79 164.73 C 154.75 164.30 155.18 163.18 154.75 162.23 C 154.33 161.27 153.21 160.84 152.25 161.26 L 151.37 161.65 C 150.42 162.08 149.99 163.20 150.41 164.15 C 150.83 165.11 151.95 165.54 152.91 165.12 Z M 153.72 164.75 L 154.63 164.39 C 155.60 164.00 156.07 162.90 155.69 161.93 C 155.30 160.96 154.20 160.49 153.23 160.87 L 152.32 161.24 C 151.35 161.63 150.88 162.73 151.26 163.70 C 151.65 164.67 152.75 165.14 153.72 164.75 Z M 154.58 164.40 L 155.52 164.06 C 156.50 163.70 157.00 162.62 156.64 161.64 C 156.28 160.66 155.20 160.16 154.22 160.52 L 153.28 160.86 C 152.30 161.22 151.80 162.30 152.16 163.28 C 152.52 164.26 153.60 164.76 154.58 164.40 Z M 155.48 164.07 L 156.44 163.74 C 157.42 163.40 157.95 162.33 157.61 161.35 C 157.27 160.36 156.20 159.84 155.22 160.18 L 154.26 160.51 C 153.27 160.84 152.75 161.92 153.09 162.90 C 153.42 163.88 154.49 164.41 155.48 164.07 Z M 156.41 163.74 L 157.39 163.42 C 158.38 163.10 158.92 162.04 158.59 161.05 C 158.27 160.06 157.21 159.53 156.22 159.85 L 155.24 160.17 C 154.26 160.50 153.72 161.56 154.04 162.54 C 154.37 163.53 155.43 164.07 156.41 163.74 Z M 157.38 163.42 L 158.38 163.10 C 159.37 162.78 159.91 161.73 159.60 160.74 C 159.28 159.76 158.22 159.21 157.24 159.53 L 156.24 159.85 C 155.25 160.17 154.71 161.22 155.02 162.21 C 155.34 163.19 156.40 163.74 157.38 163.42 Z M 158.37 163.10 L 159.38 162.78 C 160.37 162.47 160.91 161.42 160.60 160.43 C 160.29 159.45 159.24 158.91 158.26 159.22 L 157.25 159.54 C 156.27 159.85 155.72 160.89 156.03 161.88 C 156.34 162.86 157.39 163.41 158.37 163.10 Z M 159.37 162.77 L 160.36 162.46 C 161.34 162.16 161.89 161.12 161.59 160.14 C 161.28 159.16 160.24 158.61 159.26 158.91 L 158.27 159.22 C 157.29 159.53 156.74 160.57 157.04 161.55 C 157.35 162.53 158.39 163.08 159.37 162.77 Z M 160.35 162.46 L 161.31 162.17 C 162.29 161.87 162.84 160.83 162.54 159.85 C 162.24 158.88 161.21 158.33 160.23 158.62 L 159.27 158.92 C 158.29 159.22 157.74 160.25 158.04 161.23 C 158.34 162.21 159.38 162.76 160.35 162.46 Z M 161.30 162.16 L 162.21 161.89 C 163.18 161.60 163.74 160.57 163.44 159.60 C 163.15 158.62 162.13 158.07 161.15 158.36 L 160.24 158.63 C 159.27 158.92 158.71 159.95 159.01 160.92 C 159.30 161.90 160.32 162.45 161.30 162.16 Z M 162.19 161.89 L 163.13 161.61 C 164.10 161.33 164.66 160.31 164.38 159.34 C 164.10 158.37 163.08 157.81 162.11 158.09 L 161.17 158.36 C 160.20 158.64 159.64 159.66 159.92 160.63 C 160.20 161.61 161.22 162.17 162.19 161.89 Z M 163.10 161.60 L 164.17 161.31 C 165.14 161.04 165.71 160.04 165.44 159.07 C 165.17 158.10 164.17 157.54 163.20 157.81 L 162.13 158.10 C 161.17 158.37 160.60 159.37 160.87 160.34 C 161.14 161.30 162.14 161.87 163.10 161.60 Z M 164.15 161.29 L 165.10 161.04 C 166.05 160.78 166.62 159.80 166.37 158.84 C 166.12 157.89 165.13 157.32 164.18 157.57 L 163.23 157.82 C 162.27 158.08 161.70 159.06 161.95 160.02 C 162.21 160.97 163.19 161.54 164.15 161.29 Z M 165.08 161.02 L 165.95 160.79 C 166.90 160.55 167.46 159.58 167.22 158.63 C 166.97 157.69 166.01 157.12 165.06 157.36 L 164.19 157.59 C 163.24 157.84 162.68 158.80 162.92 159.75 C 163.17 160.70 164.13 161.26 165.08 161.02 Z M 165.95 160.77 L 166.75 160.56 C 167.69 160.32 168.25 159.36 168.01 158.43 C 167.76 157.49 166.80 156.93 165.87 157.17 L 165.06 157.38 C 164.12 157.63 163.56 158.59 163.81 159.52 C 164.05 160.46 165.01 161.02 165.95 160.77 Z M 166.75 160.55 L 167.58 160.33 C 168.51 160.09 169.06 159.14 168.82 158.21 C 168.57 157.28 167.62 156.72 166.69 156.97 L 165.87 157.19 C 164.94 157.43 164.38 158.38 164.63 159.31 C 164.87 160.24 165.82 160.80 166.75 160.55 Z M 167.57 160.32 L 168.52 160.08 C 169.44 159.84 169.99 158.89 169.75 157.97 C 169.51 157.04 168.57 156.49 167.64 156.73 L 166.70 156.98 C 165.77 157.22 165.22 158.16 165.46 159.09 C 165.70 160.01 166.65 160.57 167.57 160.32 Z M 168.50 160.07 L 169.66 159.77 C 170.58 159.54 171.13 158.61 170.90 157.69 C 170.67 156.77 169.73 156.21 168.81 156.45 L 167.66 156.74 C 166.74 156.97 166.18 157.91 166.42 158.83 C 166.65 159.75 167.59 160.30 168.50 160.07 Z M 169.65 159.77 L 170.63 159.52 C 171.55 159.30 172.10 158.37 171.88 157.45 C 171.65 156.54 170.72 155.98 169.80 156.21 L 168.82 156.45 C 167.91 156.68 167.35 157.61 167.58 158.52 C 167.81 159.44 168.73 160.00 169.65 159.77 Z M 170.62 159.52 L 171.56 159.29 C 172.47 159.06 173.03 158.14 172.81 157.23 C 172.58 156.31 171.66 155.76 170.75 155.98 L 169.81 156.21 C 168.90 156.44 168.34 157.36 168.56 158.27 C 168.79 159.18 169.71 159.74 170.62 159.52 Z M 171.56 159.28 L 172.55 159.04 C 173.46 158.82 174.02 157.90 173.80 156.99 C 173.58 156.08 172.66 155.52 171.75 155.74 L 170.75 155.99 C 169.84 156.21 169.29 157.12 169.51 158.03 C 169.73 158.95 170.65 159.50 171.56 159.28 Z M 172.55 159.04 L 173.57 158.79 C 174.48 158.57 175.04 157.66 174.82 156.75 C 174.61 155.84 173.69 155.28 172.78 155.50 L 171.76 155.75 C 170.85 155.97 170.29 156.88 170.51 157.79 C 170.73 158.69 171.64 159.25 172.55 159.04 Z M 173.57 158.78 L 174.59 158.54 C 175.50 158.33 176.06 157.42 175.84 156.52 C 175.63 155.61 174.72 155.05 173.81 155.26 L 172.79 155.51 C 171.89 155.72 171.33 156.63 171.54 157.53 C 171.75 158.44 172.66 159.00 173.57 158.78 Z M 174.58 158.54 L 175.57 158.31 C 176.47 158.10 177.03 157.19 176.82 156.29 C 176.61 155.39 175.71 154.83 174.81 155.04 L 173.82 155.27 C 172.92 155.48 172.36 156.38 172.57 157.28 C 172.78 158.19 173.68 158.75 174.58 158.54 Z M 175.56 158.30 L 176.58 158.07 C 177.48 157.87 178.04 156.97 177.84 156.07 C 177.63 155.17 176.73 154.61 175.83 154.81 L 174.82 155.04 C 173.92 155.25 173.35 156.14 173.56 157.05 C 173.76 157.95 174.66 158.51 175.56 158.30 Z M 176.56 158.07 L 177.69 157.82 C 178.58 157.62 179.15 156.73 178.95 155.83 C 178.75 154.94 177.87 154.37 176.97 154.57 L 175.85 154.82 C 174.95 155.01 174.38 155.90 174.58 156.80 C 174.78 157.70 175.67 158.27 176.56 158.07 Z M 177.67 157.82 L 178.67 157.60 C 179.57 157.41 180.14 156.53 179.95 155.63 C 179.76 154.74 178.88 154.17 177.98 154.36 L 176.98 154.57 C 176.08 154.76 175.51 155.64 175.70 156.54 C 175.90 157.43 176.78 158.01 177.67 157.82 Z M 178.66 157.60 L 179.57 157.41 C 180.47 157.22 181.04 156.35 180.86 155.46 C 180.67 154.57 179.80 153.99 178.91 154.17 L 177.99 154.36 C 177.10 154.55 176.53 155.42 176.71 156.31 C 176.89 157.21 177.77 157.78 178.66 157.60 Z M 179.56 157.40 L 180.43 157.23 C 181.32 157.05 181.89 156.18 181.71 155.29 C 181.53 154.40 180.67 153.83 179.78 154.01 L 178.91 154.18 C 178.02 154.36 177.45 155.23 177.63 156.12 C 177.81 157.01 178.67 157.58 179.56 157.40 Z M 180.42 157.22 L 180.77 157.15 C 181.66 156.98 182.24 156.11 182.06 155.23 C 181.88 154.34 181.02 153.76 180.13 153.94 L 179.78 154.01 C 178.89 154.19 178.32 155.05 178.50 155.94 C 178.67 156.83 179.54 157.40 180.42 157.22 Z"
      fill="black"
      fill-rule="nonzero" /><path d="M 149.40 182.64 L 150.31 182.71 C 151.35 182.79 152.26 182.01 152.34 180.97 C 152.42 179.93 151.64 179.02 150.60 178.94 L 149.70 178.87 C 148.66 178.79 147.75 179.57 147.67 180.61 C 147.59 181.65 148.37 182.55 149.40 182.64 Z M 150.33 182.71 L 151.28 182.77 C 152.32 182.84 153.22 182.05 153.29 181.01 C 153.36 179.97 152.57 179.07 151.53 179.00 L 150.58 178.94 C 149.54 178.87 148.64 179.66 148.57 180.70 C 148.50 181.74 149.29 182.64 150.33 182.71 Z M 151.32 182.77 L 152.36 182.82 C 153.40 182.87 154.28 182.06 154.33 181.02 C 154.37 179.98 153.57 179.09 152.53 179.05 L 151.49 179.00 C 150.45 178.95 149.57 179.76 149.52 180.80 C 149.47 181.84 150.28 182.73 151.32 182.77 Z M 152.40 182.82 L 153.49 182.84 C 154.53 182.86 155.39 182.04 155.41 181.00 C 155.43 179.95 154.61 179.09 153.57 179.07 L 152.48 179.05 C 151.44 179.03 150.58 179.85 150.56 180.89 C 150.53 181.94 151.36 182.80 152.40 182.82 Z M 153.53 182.84 L 154.52 182.84 C 155.56 182.84 156.40 181.99 156.40 180.95 C 156.40 179.91 155.55 179.07 154.51 179.07 L 153.53 179.07 C 152.49 179.07 151.64 179.92 151.64 180.96 C 151.64 182.00 152.49 182.84 153.53 182.84 Z M 154.55 182.83 L 155.59 182.81 C 156.62 182.79 157.44 181.93 157.42 180.90 C 157.40 179.86 156.54 179.04 155.51 179.06 L 154.48 179.08 C 153.44 179.10 152.62 179.96 152.64 180.99 C 152.66 182.03 153.52 182.85 154.55 182.83 Z M 155.63 182.80 L 156.66 182.76 C 157.69 182.72 158.49 181.84 158.45 180.81 C 158.41 179.78 157.53 178.98 156.50 179.02 L 155.47 179.06 C 154.43 179.11 153.63 179.98 153.68 181.01 C 153.72 182.05 154.59 182.85 155.63 182.80 Z M 156.71 182.75 L 157.70 182.68 C 158.73 182.61 159.50 181.72 159.43 180.69 C 159.36 179.66 158.47 178.89 157.44 178.96 L 156.45 179.03 C 155.42 179.10 154.65 179.99 154.72 181.02 C 154.79 182.05 155.68 182.82 156.71 182.75 Z M 157.77 182.66 L 158.81 182.55 C 159.83 182.44 160.56 181.53 160.45 180.51 C 160.34 179.49 159.42 178.75 158.41 178.86 L 157.37 178.98 C 156.35 179.09 155.62 180.00 155.73 181.02 C 155.84 182.04 156.75 182.78 157.77 182.66 Z M 158.90 182.52 L 159.93 182.35 C 160.93 182.19 161.61 181.25 161.45 180.25 C 161.29 179.25 160.35 178.57 159.35 178.73 L 158.31 178.90 C 157.31 179.06 156.63 180.00 156.80 181.00 C 156.96 182.00 157.90 182.68 158.90 182.52 Z M 160.02 182.31 L 160.96 182.11 C 161.93 181.90 162.56 180.94 162.35 179.97 C 162.14 178.99 161.18 178.37 160.21 178.57 L 159.27 178.77 C 158.29 178.98 157.66 179.94 157.87 180.92 C 158.08 181.89 159.04 182.52 160.02 182.31 Z M 161.01 182.07 L 161.91 181.85 C 162.87 181.61 163.45 180.65 163.22 179.69 C 162.98 178.74 162.02 178.15 161.06 178.39 L 160.16 178.61 C 159.20 178.85 158.62 179.81 158.85 180.76 C 159.09 181.72 160.05 182.31 161.01 182.07 Z M 161.92 181.82 L 162.83 181.59 C 163.77 181.35 164.34 180.39 164.10 179.45 C 163.86 178.51 162.90 177.94 161.96 178.18 L 161.05 178.41 C 160.11 178.66 159.54 179.61 159.78 180.56 C 160.02 181.50 160.98 182.06 161.92 181.82 Z M 162.83 181.57 L 163.77 181.33 C 164.70 181.09 165.26 180.13 165.02 179.20 C 164.78 178.27 163.82 177.71 162.89 177.95 L 161.95 178.20 C 161.02 178.44 160.46 179.39 160.71 180.33 C 160.95 181.26 161.90 181.82 162.83 181.57 Z M 163.78 181.31 L 164.76 181.05 C 165.68 180.80 166.23 179.85 165.98 178.93 C 165.73 178.01 164.79 177.46 163.86 177.71 L 162.88 177.97 C 161.96 178.22 161.41 179.17 161.66 180.09 C 161.91 181.01 162.86 181.56 163.78 181.31 Z M 164.77 181.03 L 165.80 180.75 C 166.71 180.49 167.24 179.55 166.99 178.63 C 166.74 177.72 165.79 177.19 164.88 177.44 L 163.85 177.73 C 162.94 177.98 162.41 178.93 162.66 179.84 C 162.91 180.75 163.86 181.29 164.77 181.03 Z M 165.81 180.73 L 166.74 180.46 C 167.64 180.20 168.16 179.26 167.90 178.36 C 167.64 177.45 166.70 176.93 165.80 177.19 L 164.87 177.46 C 163.97 177.72 163.44 178.66 163.70 179.56 C 163.96 180.47 164.91 180.99 165.81 180.73 Z M 166.75 180.44 L 167.71 180.16 C 168.60 179.90 169.11 178.96 168.85 178.07 C 168.58 177.17 167.65 176.66 166.75 176.93 L 165.79 177.21 C 164.90 177.47 164.39 178.41 164.65 179.30 C 164.92 180.20 165.85 180.71 166.75 180.44 Z M 167.71 180.15 L 168.68 179.85 C 169.57 179.59 170.07 178.66 169.80 177.77 C 169.54 176.89 168.61 176.39 167.72 176.65 L 166.75 176.94 C 165.87 177.21 165.36 178.14 165.63 179.02 C 165.89 179.91 166.82 180.41 167.71 180.15 Z M 168.68 179.84 L 169.65 179.55 C 170.53 179.28 171.02 178.36 170.76 177.48 C 170.50 176.60 169.57 176.11 168.69 176.37 L 167.72 176.66 C 166.85 176.93 166.35 177.85 166.61 178.73 C 166.88 179.61 167.80 180.10 168.68 179.84 Z M 169.65 179.54 L 170.62 179.24 C 171.49 178.98 171.99 178.06 171.72 177.19 C 171.46 176.32 170.54 175.82 169.67 176.09 L 168.70 176.38 C 167.83 176.64 167.33 177.56 167.59 178.44 C 167.86 179.31 168.78 179.80 169.65 179.54 Z M 170.62 179.24 L 171.59 178.95 C 172.46 178.68 172.95 177.77 172.69 176.90 C 172.42 176.03 171.51 175.54 170.64 175.80 L 169.67 176.09 C 168.80 176.35 168.31 177.27 168.57 178.14 C 168.84 179.01 169.75 179.50 170.62 179.24 Z M 171.59 178.94 L 172.54 178.65 C 173.41 178.39 173.90 177.47 173.63 176.60 C 173.37 175.74 172.45 175.25 171.59 175.51 L 170.63 175.80 C 169.77 176.07 169.28 176.99 169.54 177.85 C 169.81 178.72 170.72 179.21 171.59 178.94 Z M 172.55 178.65 L 173.49 178.36 C 174.36 178.09 174.84 177.17 174.57 176.31 C 174.31 175.44 173.39 174.96 172.52 175.23 L 171.58 175.52 C 170.72 175.79 170.23 176.70 170.50 177.57 C 170.77 178.43 171.68 178.92 172.55 178.65 Z M 173.50 178.35 L 174.45 178.05 C 175.31 177.78 175.79 176.86 175.51 176.00 C 175.24 175.14 174.32 174.66 173.46 174.93 L 172.51 175.23 C 171.65 175.50 171.17 176.42 171.45 177.28 C 171.72 178.15 172.64 178.63 173.50 178.35 Z M 174.46 178.05 L 175.41 177.74 C 176.27 177.46 176.74 176.54 176.46 175.68 C 176.18 174.82 175.26 174.35 174.40 174.63 L 173.45 174.94 C 172.59 175.21 172.12 176.14 172.40 177.00 C 172.67 177.86 173.60 178.33 174.46 178.05 Z M 175.41 177.74 L 176.36 177.43 C 177.22 177.15 177.69 176.22 177.41 175.36 C 177.13 174.50 176.20 174.04 175.34 174.32 L 174.39 174.63 C 173.53 174.91 173.07 175.84 173.35 176.70 C 173.63 177.56 174.56 178.02 175.41 177.74 Z M 176.37 177.43 L 177.32 177.11 C 178.18 176.83 178.64 175.90 178.36 175.04 C 178.07 174.18 177.15 173.72 176.29 174.00 L 175.34 174.32 C 174.48 174.60 174.02 175.53 174.30 176.39 C 174.58 177.25 175.51 177.71 176.37 177.43 Z M 177.32 177.11 L 178.05 176.87 C 178.91 176.58 179.37 175.65 179.09 174.80 C 178.80 173.94 177.87 173.48 177.02 173.76 L 176.29 174.01 C 175.43 174.29 174.97 175.22 175.25 176.08 C 175.54 176.93 176.46 177.40 177.32 177.11 Z"
      fill="black"
      fill-rule="nonzero" /></svg>