<svg xmlns="http://www.w3.org/2000/svg" width="300" height="300" viewBox="0 0 300 300">
<path d="M 151.52 141.12 L 150.76 141.69 C 149.90 142.34 149.73 143.57 150.37 144.43 C 151.02 145.29 152.25 145.47 153.11 144.82 L 153.88 144.24 C 154.74 143.59 154.91 142.37 154.26 141.50 C 153.61 140.64 152.39 140.47 151.52 141.12 Z M 150.74 141.70 L 149.97 142.30 C 149.11 142.96 148.95 144.19 149.61 145.05 C 150.27 145.90 151.50 146.06 152.35 145.40 L 153.13 144.81 C 153.99 144.15 154.15 142.92 153.49 142.06 C 152.83 141.21 151.60 141.05 150.74 141.70 Z M 149.94 142.32 L 149.13 142.96 C 148.29 143.64 148.15 144.87 148.83 145.72 C 149.50 146.56 150.74 146.70 151.58 146.02 L 152.38 145.38 C 153.23 144.71 153.36 143.47 152.69 142.63 C 152.01 141.78 150.78 141.65 149.94 142.32 Z M 149.10 142.99 L 148.38 143.60 C 147.55 144.29 147.44 145.53 148.14 146.36 C 148.83 147.18 150.07 147.29 150.90 146.60 L 151.62 145.99 C 152.44 145.30 152.55 144.06 151.86 143.24 C 151.16 142.41 149.93 142.30 149.10 142.99 Z M 148.36 143.62 L 147.71 144.18 C 146.90 144.89 146.81 146.12 147.51 146.94 C 148.22 147.75 149.46 147.84 150.27 147.14 L 150.92 146.57 C 151.74 145.87 151.82 144.63 151.12 143.82 C 150.41 143.00 149.18 142.91 148.36 143.62 Z M 147.71 144.19 L 147.00 144.81 C 146.19 145.51 146.11 146.75 146.81 147.56 C 147.52 148.37 148.76 148.45 149.57 147.74 L 150.28 147.13 C 151.09 146.42 151.17 145.19 150.46 144.37 C 149.75 143.56 148.52 143.48 147.71 144.19 Z M 147.01 144.80 L 146.22 145.49 C 145.41 146.19 145.32 147.42 146.02 148.24 C 146.73 149.05 147.95 149.14 148.77 148.43 L 149.56 147.75 C 150.37 147.04 150.46 145.81 149.76 145.00 C 149.05 144.19 147.82 144.10 147.01 144.80 Z M 146.23 145.48 L 145.33 146.25 C 144.52 146.94 144.42 148.17 145.11 148.98 C 145.81 149.80 147.03 149.90 147.85 149.21 L 148.75 148.44 C 149.57 147.75 149.67 146.52 148.97 145.70 C 148.28 144.89 147.05 144.79 146.23 145.48 Z M 145.35 146.24 L 144.57 146.89 C 143.74 147.57 143.63 148.79 144.32 149.62 C 145.00 150.44 146.22 150.55 147.05 149.87 L 147.83 149.22 C 148.65 148.53 148.77 147.31 148.08 146.49 C 147.40 145.66 146.18 145.55 145.35 146.24 Z M 144.58 146.88 L 143.82 147.50 C 142.99 148.18 142.87 149.40 143.54 150.23 C 144.22 151.06 145.44 151.18 146.27 150.50 L 147.03 149.88 C 147.86 149.20 147.98 147.98 147.31 147.15 C 146.63 146.32 145.41 146.20 144.58 146.88 Z M 143.83 147.49 L 143.03 148.13 C 142.20 148.81 142.07 150.03 142.74 150.86 C 143.41 151.69 144.63 151.82 145.46 151.15 L 146.26 150.51 C 147.09 149.84 147.23 148.62 146.55 147.79 C 145.88 146.95 144.66 146.82 143.83 147.49 Z M 143.04 148.13 L 142.23 148.78 C 141.39 149.44 141.25 150.66 141.92 151.50 C 142.58 152.34 143.80 152.47 144.64 151.81 L 145.45 151.16 C 146.29 150.49 146.43 149.27 145.76 148.44 C 145.10 147.60 143.88 147.46 143.04 148.13 Z M 142.23 148.77 L 141.42 149.41 C 140.58 150.08 140.43 151.29 141.09 152.13 C 141.76 152.97 142.97 153.12 143.81 152.46 L 144.63 151.81 C 145.47 151.15 145.62 149.93 144.95 149.09 C 144.29 148.25 143.07 148.11 142.23 148.77 Z M 141.43 149.41 L 140.63 150.03 C 139.78 150.69 139.63 151.90 140.29 152.75 C 140.95 153.59 142.16 153.74 143.01 153.08 L 143.81 152.46 C 144.65 151.81 144.80 150.59 144.14 149.75 C 143.49 148.90 142.27 148.75 141.43 149.41 Z M 140.64 150.02 L 139.87 150.61 C 139.03 151.26 138.87 152.48 139.52 153.33 C 140.17 154.17 141.39 154.33 142.24 153.68 L 143.00 153.09 C 143.85 152.44 144.00 151.22 143.35 150.38 C 142.70 149.53 141.48 149.37 140.64 150.02 Z M 139.88 150.60 L 139.08 151.21 C 138.23 151.86 138.06 153.07 138.71 153.92 C 139.36 154.78 140.57 154.94 141.42 154.30 L 142.22 153.69 C 143.08 153.04 143.24 151.83 142.60 150.97 C 141.95 150.12 140.74 149.96 139.88 150.60 Z M 139.09 151.21 L 138.32 151.79 C 137.47 152.42 137.29 153.64 137.93 154.49 C 138.57 155.35 139.78 155.52 140.64 154.88 L 141.41 154.30 C 142.26 153.66 142.44 152.45 141.80 151.60 C 141.16 150.74 139.95 150.57 139.09 151.21 Z M 138.33 151.78 L 137.58 152.34 C 136.72 152.97 136.54 154.18 137.17 155.04 C 137.81 155.90 139.02 156.08 139.87 155.44 L 140.63 154.89 C 141.49 154.25 141.67 153.04 141.03 152.18 C 140.40 151.33 139.19 151.15 138.33 151.78 Z M 137.58 152.34 L 136.81 152.90 C 135.95 153.53 135.77 154.74 136.40 155.60 C 137.03 156.46 138.24 156.64 139.10 156.01 L 139.87 155.45 C 140.73 154.81 140.91 153.61 140.28 152.75 C 139.65 151.89 138.44 151.70 137.58 152.34 Z M 136.82 152.90 L 136.01 153.50 C 135.15 154.13 134.96 155.33 135.59 156.19 C 136.22 157.05 137.43 157.24 138.29 156.60 L 139.10 156.01 C 139.96 155.38 140.14 154.17 139.51 153.31 C 138.88 152.45 137.67 152.27 136.82 152.90 Z M 136.00 153.50 L 135.12 154.15 C 134.26 154.78 134.08 155.99 134.71 156.85 C 135.35 157.70 136.55 157.89 137.41 157.25 L 138.29 156.60 C 139.15 155.97 139.33 154.76 138.70 153.91 C 138.07 153.05 136.86 152.87 136.00 153.50 Z M 135.12 154.16 L 134.33 154.74 C 133.48 155.37 133.30 156.58 133.94 157.43 C 134.57 158.29 135.78 158.46 136.63 157.83 L 137.41 157.25 C 138.27 156.61 138.44 155.41 137.81 154.55 C 137.18 153.70 135.97 153.52 135.12 154.16 Z M 134.33 154.74 L 133.53 155.34 C 132.68 155.98 132.50 157.18 133.14 158.04 C 133.77 158.89 134.98 159.06 135.83 158.43 L 136.64 157.83 C 137.49 157.19 137.66 155.98 137.03 155.13 C 136.39 154.28 135.18 154.10 134.33 154.74 Z M 133.52 155.34 L 132.69 155.97 C 131.84 156.60 131.67 157.81 132.31 158.66 C 132.95 159.51 134.15 159.69 135.00 159.05 L 135.84 158.42 C 136.69 157.78 136.86 156.58 136.22 155.73 C 135.58 154.87 134.38 154.70 133.52 155.34 Z M 132.69 155.97 L 131.84 156.60 C 131.00 157.25 130.83 158.45 131.47 159.30 C 132.11 160.15 133.31 160.32 134.16 159.68 L 135.01 159.05 C 135.86 158.41 136.03 157.20 135.39 156.35 C 134.75 155.50 133.54 155.33 132.69 155.97 Z M 131.84 156.61 L 131.00 157.24 C 130.16 157.88 129.99 159.09 130.63 159.94 C 131.27 160.79 132.48 160.96 133.33 160.31 L 134.17 159.68 C 135.02 159.04 135.18 157.83 134.54 156.98 C 133.90 156.13 132.69 155.96 131.84 156.61 Z M 131.00 157.24 L 130.19 157.86 C 129.34 158.50 129.18 159.71 129.82 160.56 C 130.47 161.41 131.68 161.57 132.52 160.93 L 133.33 160.31 C 134.18 159.67 134.35 158.46 133.70 157.61 C 133.06 156.76 131.85 156.60 131.00 157.24 Z M 130.19 157.86 L 129.42 158.45 C 128.57 159.10 128.41 160.31 129.06 161.15 C 129.71 162.00 130.92 162.16 131.76 161.51 L 132.53 160.92 C 133.37 160.28 133.53 159.07 132.89 158.22 C 132.24 157.38 131.03 157.22 130.19 157.86 Z M 129.41 158.45 L 128.63 159.06 C 127.79 159.71 127.63 160.92 128.28 161.76 C 128.93 162.60 130.14 162.76 130.99 162.11 L 131.77 161.51 C 132.61 160.86 132.77 159.65 132.12 158.80 C 131.47 157.96 130.26 157.80 129.41 158.45 Z M 128.62 159.06 L 127.62 159.84 C 126.78 160.50 126.63 161.71 127.29 162.55 C 127.94 163.39 129.16 163.54 129.99 162.88 L 131.00 162.10 C 131.84 161.45 131.98 160.23 131.33 159.40 C 130.67 158.56 129.46 158.41 128.62 159.06 Z M 127.60 159.86 L 126.77 160.52 C 125.94 161.18 125.80 162.40 126.47 163.23 C 127.13 164.06 128.35 164.20 129.18 163.53 L 130.01 162.87 C 130.84 162.21 130.98 160.99 130.32 160.16 C 129.65 159.33 128.44 159.19 127.60 159.86 Z M 126.75 160.53 L 126.05 161.11 C 125.23 161.78 125.11 163.00 125.78 163.82 C 126.46 164.65 127.68 164.77 128.50 164.09 L 129.20 163.52 C 130.03 162.84 130.15 161.63 129.47 160.80 C 128.79 159.98 127.58 159.86 126.75 160.53 Z M 126.03 161.13 L 125.42 161.64 C 124.61 162.33 124.50 163.55 125.19 164.36 C 125.88 165.18 127.10 165.28 127.92 164.59 L 128.53 164.07 C 129.34 163.39 129.44 162.17 128.75 161.35 C 128.06 160.54 126.84 160.44 126.03 161.13 Z M 125.39 161.66 L 124.72 162.25 C 123.91 162.96 123.83 164.18 124.54 164.99 C 125.24 165.79 126.47 165.87 127.27 165.16 L 127.95 164.57 C 128.75 163.87 128.83 162.64 128.12 161.84 C 127.42 161.03 126.19 160.96 125.39 161.66 Z M 124.66 162.29 L 123.94 162.97 C 123.16 163.71 123.12 164.94 123.86 165.72 C 124.60 166.50 125.83 166.54 126.62 165.80 L 127.33 165.12 C 128.11 164.39 128.15 163.15 127.41 162.37 C 126.67 161.59 125.44 161.55 124.66 162.29 Z M 123.84 163.05 L 123.17 163.77 C 122.43 164.56 122.48 165.81 123.27 166.54 C 124.06 167.28 125.31 167.24 126.04 166.44 L 126.72 165.72 C 127.45 164.93 127.41 163.68 126.61 162.95 C 125.82 162.21 124.58 162.25 123.84 163.05 Z M 123.05 163.89 L 122.41 164.71 C 121.74 165.57 121.89 166.81 122.75 167.48 C 123.60 168.15 124.85 168.00 125.52 167.14 L 126.16 166.33 C 126.84 165.47 126.68 164.22 125.83 163.55 C 124.97 162.88 123.72 163.03 123.05 163.89 Z M 122.28 164.86 L 121.69 165.78 C 121.11 166.71 121.38 167.95 122.31 168.53 C 123.24 169.12 124.47 168.85 125.06 167.92 L 125.65 166.99 C 126.24 166.06 125.96 164.83 125.03 164.24 C 124.10 163.65 122.87 163.93 122.28 164.86 Z M 121.54 166.04 L 121.12 166.98 C 120.68 168.00 121.14 169.19 122.16 169.63 C 123.17 170.08 124.36 169.62 124.81 168.60 L 125.22 167.66 C 125.67 166.64 125.20 165.46 124.19 165.01 C 123.17 164.56 121.98 165.02 121.54 166.04 Z M 120.95 167.52 L 120.84 168.37 C 120.69 169.49 121.47 170.51 122.58 170.66 C 123.69 170.81 124.71 170.03 124.86 168.92 L 124.98 168.06 C 125.13 166.95 124.35 165.93 123.24 165.78 C 122.12 165.63 121.10 166.41 120.95 167.52 Z M 120.96 169.44 L 121.27 170.16 C 121.71 171.20 122.91 171.69 123.95 171.25 C 124.99 170.81 125.48 169.60 125.04 168.56 L 124.74 167.85 C 124.30 166.80 123.09 166.32 122.05 166.76 C 121.01 167.20 120.52 168.40 120.96 169.44 Z M 121.85 170.96 L 122.56 171.54 C 123.45 172.26 124.75 172.12 125.47 171.24 C 126.19 170.35 126.05 169.05 125.16 168.33 L 124.45 167.76 C 123.57 167.04 122.27 167.18 121.55 168.06 C 120.83 168.95 120.97 170.25 121.85 170.96 Z M 122.95 171.81 L 124.00 172.31 C 125.03 172.82 126.27 172.39 126.78 171.35 C 127.28 170.32 126.85 169.07 125.82 168.57 L 124.77 168.07 C 123.74 167.56 122.50 167.99 121.99 169.03 C 121.49 170.06 121.92 171.30 122.95 171.81 Z M 124.14 172.39 L 125.08 172.76 C 126.16 173.19 127.37 172.66 127.80 171.59 C 128.22 170.51 127.70 169.30 126.62 168.87 L 125.68 168.50 C 124.60 168.07 123.39 168.60 122.96 169.67 C 122.54 170.75 123.06 171.96 124.14 172.39 Z M 125.13 172.78 L 126.03 173.12 C 127.12 173.52 128.32 172.96 128.72 171.88 C 129.12 170.79 128.57 169.59 127.48 169.19 L 126.58 168.85 C 125.49 168.45 124.29 169.01 123.89 170.09 C 123.49 171.18 124.04 172.38 125.13 172.78 Z M 126.06 173.13 L 127.02 173.47 C 128.11 173.85 129.31 173.28 129.69 172.19 C 130.08 171.10 129.51 169.90 128.42 169.51 L 127.46 169.18 C 126.37 168.79 125.17 169.36 124.78 170.45 C 124.40 171.54 124.97 172.74 126.06 173.13 Z M 127.03 173.47 L 128.02 173.81 C 129.11 174.19 130.30 173.61 130.68 172.52 C 131.06 171.42 130.48 170.23 129.39 169.85 L 128.40 169.51 C 127.31 169.13 126.11 169.71 125.73 170.80 C 125.36 171.90 125.94 173.09 127.03 173.47 Z M 128.02 173.82 L 129.00 174.15 C 130.10 174.53 131.29 173.95 131.67 172.85 C 132.05 171.76 131.47 170.56 130.37 170.19 L 129.39 169.85 C 128.29 169.47 127.09 170.05 126.72 171.15 C 126.34 172.24 126.92 173.44 128.02 173.82 Z M 128.99 174.15 L 129.96 174.49 C 131.05 174.87 132.25 174.29 132.63 173.20 C 133.02 172.10 132.44 170.91 131.34 170.53 L 130.38 170.19 C 129.28 169.81 128.09 170.38 127.70 171.48 C 127.32 172.57 127.90 173.77 128.99 174.15 Z M 129.95 174.49 L 130.89 174.82 C 131.99 175.21 133.19 174.64 133.57 173.54 C 133.96 172.45 133.39 171.25 132.30 170.87 L 131.35 170.53 C 130.26 170.14 129.06 170.71 128.67 171.81 C 128.29 172.90 128.86 174.10 129.95 174.49 Z M 130.88 174.82 L 131.81 175.15 C 132.90 175.54 134.11 174.98 134.50 173.89 C 134.89 172.80 134.33 171.60 133.24 171.21 L 132.31 170.87 C 131.22 170.48 130.02 171.04 129.62 172.13 C 129.23 173.22 129.79 174.42 130.88 174.82 Z M 131.81 175.15 L 132.74 175.49 C 133.82 175.88 135.03 175.33 135.42 174.24 C 135.82 173.15 135.26 171.95 134.18 171.55 L 133.25 171.21 C 132.16 170.81 130.95 171.37 130.56 172.46 C 130.16 173.55 130.72 174.75 131.81 175.15 Z M 132.73 175.48 L 133.67 175.83 C 134.75 176.23 135.96 175.68 136.36 174.59 C 136.76 173.51 136.21 172.30 135.12 171.90 L 134.18 171.55 C 133.10 171.15 131.89 171.71 131.49 172.79 C 131.09 173.88 131.64 175.08 132.73 175.48 Z M 133.66 175.83 L 134.57 176.16 C 135.66 176.57 136.86 176.02 137.26 174.93 C 137.67 173.85 137.12 172.65 136.03 172.24 L 135.13 171.90 C 134.04 171.50 132.84 172.05 132.43 173.13 C 132.03 174.22 132.58 175.42 133.66 175.83 Z M 134.57 176.16 L 135.49 176.50 C 136.57 176.91 137.77 176.36 138.18 175.28 C 138.58 174.20 138.04 173.00 136.96 172.60 L 136.04 172.25 C 134.96 171.84 133.76 172.39 133.35 173.47 C 132.94 174.55 133.49 175.75 134.57 176.16 Z M 135.49 176.50 L 136.42 176.85 C 137.50 177.26 138.70 176.72 139.11 175.64 C 139.51 174.57 138.97 173.36 137.90 172.96 L 136.96 172.60 C 135.89 172.20 134.69 172.74 134.28 173.81 C 133.87 174.89 134.41 176.09 135.49 176.50 Z M 136.42 176.84 L 137.37 177.21 C 138.44 177.61 139.64 177.08 140.05 176.01 C 140.46 174.93 139.92 173.73 138.85 173.33 L 137.90 172.96 C 136.83 172.56 135.63 173.09 135.22 174.16 C 134.81 175.24 135.35 176.44 136.42 176.84 Z M 137.37 177.20 L 138.32 177.57 C 139.39 177.98 140.59 177.44 141.00 176.38 C 141.41 175.31 140.87 174.11 139.81 173.70 L 138.85 173.33 C 137.78 172.92 136.59 173.46 136.18 174.52 C 135.77 175.59 136.30 176.79 137.37 177.20 Z M 138.32 177.56 L 139.26 177.92 C 140.33 178.33 141.52 177.81 141.93 176.74 C 142.34 175.68 141.82 174.49 140.75 174.08 L 139.81 173.71 C 138.75 173.30 137.55 173.83 137.14 174.89 C 136.73 175.95 137.26 177.14 138.32 177.56 Z M 139.26 177.91 L 140.20 178.28 C 141.26 178.69 142.45 178.17 142.86 177.11 C 143.27 176.06 142.75 174.87 141.70 174.46 L 140.75 174.09 C 139.70 173.68 138.51 174.20 138.10 175.25 C 137.69 176.31 138.21 177.50 139.26 177.91 Z M 140.20 178.26 L 141.14 178.63 C 142.19 179.04 143.37 178.53 143.78 177.48 C 144.19 176.43 143.68 175.25 142.63 174.84 L 141.70 174.47 C 140.65 174.06 139.47 174.58 139.06 175.62 C 138.64 176.67 139.16 177.85 140.20 178.26 Z M 141.14 178.61 L 142.07 178.98 C 143.11 179.39 144.29 178.89 144.70 177.85 C 145.11 176.81 144.60 175.64 143.56 175.23 L 142.63 174.86 C 141.60 174.44 140.42 174.95 140.01 175.99 C 139.60 177.03 140.11 178.20 141.14 178.61 Z M 142.07 178.97 L 142.99 179.34 C 144.02 179.75 145.19 179.25 145.60 178.22 C 146.01 177.19 145.51 176.02 144.48 175.61 L 143.56 175.24 C 142.53 174.83 141.37 175.33 140.95 176.36 C 140.54 177.39 141.04 178.56 142.07 178.97 Z M 142.99 179.32 L 143.93 179.70 C 144.95 180.11 146.11 179.61 146.52 178.59 C 146.93 177.57 146.44 176.41 145.42 176.00 L 144.48 175.62 C 143.46 175.21 142.30 175.71 141.89 176.73 C 141.48 177.75 141.97 178.91 142.99 179.32 Z M 143.93 179.67 L 144.89 180.06 C 145.90 180.47 147.05 179.99 147.46 178.98 C 147.87 177.97 147.38 176.82 146.38 176.41 L 145.42 176.02 C 144.41 175.61 143.26 176.10 142.85 177.11 C 142.44 178.11 142.92 179.26 143.93 179.67 Z M 144.89 180.04 L 145.83 180.43 C 146.82 180.84 147.96 180.36 148.37 179.37 C 148.78 178.38 148.31 177.24 147.31 176.83 L 146.38 176.44 C 145.38 176.03 144.24 176.50 143.83 177.50 C 143.42 178.49 143.90 179.63 144.89 180.04 Z M 145.82 180.40 L 146.73 180.78 C 147.71 181.20 148.84 180.74 149.25 179.76 C 149.67 178.78 149.21 177.65 148.23 177.24 L 147.32 176.85 C 146.34 176.44 145.21 176.90 144.80 177.88 C 144.38 178.86 144.84 179.99 145.82 180.40 Z M 146.73 180.75 L 147.61 181.14 C 148.57 181.55 149.69 181.11 150.11 180.15 C 150.53 179.18 150.08 178.06 149.12 177.65 L 148.23 177.26 C 147.27 176.85 146.15 177.29 145.73 178.26 C 145.32 179.22 145.76 180.34 146.73 180.75 Z M 147.60 181.10 L 148.50 181.50 C 149.44 181.93 150.55 181.50 150.97 180.55 C 151.39 179.61 150.97 178.50 150.02 178.08 L 149.13 177.68 C 148.18 177.26 147.07 177.68 146.65 178.63 C 146.23 179.57 146.65 180.68 147.60 181.10 Z M 148.48 181.47 L 149.38 181.88 C 150.31 182.31 151.40 181.91 151.83 180.98 C 152.26 180.06 151.86 178.96 150.93 178.53 L 150.04 178.12 C 149.11 177.69 148.01 178.09 147.58 179.01 C 147.16 179.94 147.56 181.04 148.48 181.47 Z M 149.37 181.84 L 150.25 182.27 C 151.16 182.71 152.24 182.33 152.68 181.43 C 153.11 180.53 152.74 179.44 151.84 179.01 L 150.95 178.58 C 150.05 178.14 148.96 178.52 148.53 179.42 C 148.09 180.32 148.47 181.40 149.37 181.84 Z M 150.24 182.23 L 151.12 182.68 C 152.00 183.13 153.07 182.78 153.52 181.90 C 153.97 181.02 153.62 179.95 152.74 179.50 L 151.86 179.05 C 150.98 178.61 149.91 178.95 149.46 179.83 C 149.01 180.71 149.36 181.78 150.24 182.23 Z M 151.11 182.63 L 152.00 183.12 C 152.86 183.57 153.92 183.25 154.37 182.40 C 154.83 181.55 154.51 180.49 153.66 180.03 L 152.76 179.55 C 151.91 179.09 150.85 179.41 150.39 180.26 C 149.94 181.12 150.26 182.18 151.11 182.63 Z M 151.99 183.08 L 152.83 183.55 C 153.66 184.01 154.71 183.72 155.17 182.89 C 155.64 182.06 155.34 181.01 154.51 180.54 L 153.68 180.07 C 152.84 179.60 151.79 179.90 151.33 180.73 C 150.86 181.56 151.16 182.61 151.99 183.08 Z M 152.81 183.52 L 153.67 184.01 C 154.48 184.49 155.53 184.21 156.00 183.39 C 156.47 182.58 156.19 181.54 155.38 181.06 L 154.52 180.57 C 153.71 180.10 152.67 180.37 152.19 181.19 C 151.72 182.00 152.00 183.05 152.81 183.52 Z M 153.66 183.99 L 154.53 184.50 C 155.33 184.98 156.37 184.71 156.84 183.91 C 157.32 183.11 157.05 182.08 156.25 181.60 L 155.38 181.09 C 154.58 180.61 153.55 180.88 153.07 181.68 C 152.60 182.48 152.86 183.51 153.66 183.99 Z M 154.53 184.48 L 155.41 185.01 C 156.20 185.48 157.22 185.23 157.69 184.44 C 158.17 183.65 157.91 182.63 157.13 182.15 L 156.25 181.62 C 155.46 181.15 154.44 181.40 153.96 182.19 C 153.49 182.98 153.74 184.01 154.53 184.48 Z M 155.41 184.99 L 156.22 185.48 C 157.00 185.95 158.02 185.70 158.49 184.92 C 158.96 184.15 158.71 183.13 157.93 182.66 L 157.12 182.17 C 156.34 181.70 155.33 181.95 154.86 182.72 C 154.38 183.50 154.63 184.52 155.41 184.99 Z"
      fill="black"
      fill-rule="nonzero" /></svg>