<svg xmlns="http://www.w3.org/2000/svg" width="300" height="300" viewBox="0 0 300 300">
<path d="M 128.73 134.78 L 127.57 135.41 C 126.65 135.90 126.31 137.05 126.80 137.96 C 127.29 138.88 128.44 139.23 129.36 138.73 L 130.52 138.11 C 131.44 137.61 131.78 136.47 131.29 135.55 C 130.79 134.63 129.65 134.29 128.73 134.78 Z M 127.57 135.37 L 126.51 135.92 C 125.57 136.41 125.21 137.57 125.70 138.51 C 126.19 139.45 127.35 139.82 128.29 139.33 L 129.35 138.77 C 130.29 138.28 130.66 137.12 130.17 136.18 C 129.68 135.24 128.52 134.88 127.57 135.37 Z M 126.56 135.86 L 125.69 136.28 C 124.71 136.74 124.30 137.91 124.77 138.88 C 125.23 139.86 126.40 140.27 127.37 139.80 L 128.24 139.39 C 129.22 138.92 129.63 137.75 129.16 136.78 C 128.70 135.81 127.53 135.40 126.56 135.86 Z M 125.86 136.17 L 125.28 136.38 C 124.25 136.75 123.71 137.89 124.08 138.92 C 124.45 139.95 125.59 140.49 126.62 140.12 L 127.20 139.91 C 128.23 139.54 128.77 138.40 128.40 137.37 C 128.03 136.34 126.89 135.80 125.86 136.17 Z M 127.31 136.76 L 127.12 136.59 C 126.30 135.85 125.03 135.91 124.28 136.73 C 123.53 137.55 123.59 138.82 124.41 139.57 L 124.60 139.74 C 125.42 140.48 126.69 140.42 127.44 139.60 C 128.19 138.78 128.13 137.51 127.31 136.76 Z M 127.40 139.29 L 127.92 138.58 C 128.59 137.68 128.40 136.41 127.50 135.74 C 126.60 135.07 125.33 135.26 124.66 136.17 L 124.14 136.88 C 123.47 137.78 123.66 139.05 124.56 139.71 C 125.46 140.38 126.73 140.19 127.40 139.29 Z M 127.79 138.77 L 128.80 137.68 C 129.57 136.86 129.52 135.56 128.70 134.79 C 127.87 134.02 126.58 134.07 125.81 134.89 L 124.80 135.98 C 124.03 136.80 124.07 138.10 124.90 138.87 C 125.72 139.64 127.02 139.59 127.79 138.77 Z M 128.78 137.72 L 129.42 137.06 C 130.21 136.24 130.19 134.94 129.37 134.16 C 128.56 133.37 127.26 133.39 126.47 134.20 L 125.83 134.86 C 125.04 135.67 125.06 136.97 125.87 137.76 C 126.69 138.55 127.99 138.53 128.78 137.72 Z M 129.41 137.07 L 130.11 136.36 C 130.90 135.55 130.89 134.25 130.08 133.45 C 129.27 132.66 127.97 132.67 127.18 133.48 L 126.48 134.19 C 125.68 135.00 125.69 136.30 126.50 137.09 C 127.31 137.89 128.62 137.88 129.41 137.07 Z M 130.10 136.37 L 130.83 135.63 C 131.63 134.82 131.63 133.52 130.82 132.72 C 130.01 131.92 128.71 131.93 127.91 132.74 L 127.18 133.47 C 126.38 134.28 126.39 135.58 127.19 136.38 C 128.00 137.18 129.30 137.17 130.10 136.37 Z M 130.83 135.64 L 131.57 134.90 C 132.37 134.09 132.37 132.79 131.56 131.98 C 130.75 131.18 129.45 131.18 128.65 131.99 L 127.91 132.73 C 127.11 133.54 127.11 134.84 127.92 135.64 C 128.72 136.45 130.03 136.44 130.83 135.64 Z M 131.57 134.90 L 132.29 134.18 C 133.09 133.37 133.09 132.06 132.29 131.26 C 131.48 130.45 130.17 130.45 129.37 131.26 L 128.65 131.98 C 127.84 132.79 127.84 134.10 128.65 134.90 C 129.45 135.71 130.76 135.71 131.57 134.90 Z M 132.29 134.18 L 133.03 133.44 C 133.83 132.63 133.83 131.33 133.03 130.52 C 132.22 129.71 130.91 129.71 130.11 130.52 L 129.37 131.26 C 128.56 132.07 128.56 133.37 129.37 134.18 C 130.18 134.99 131.48 134.99 132.29 134.18 Z M 133.03 133.44 L 133.78 132.69 C 134.58 131.88 134.58 130.57 133.77 129.77 C 132.97 128.96 131.66 128.96 130.85 129.77 L 130.11 130.52 C 129.30 131.33 129.30 132.64 130.11 133.44 C 130.92 134.25 132.22 134.25 133.03 133.44 Z M 133.78 132.68 L 134.48 131.97 C 135.28 131.16 135.28 129.86 134.47 129.06 C 133.66 128.25 132.35 128.26 131.55 129.07 L 130.85 129.78 C 130.05 130.59 130.06 131.89 130.87 132.70 C 131.67 133.50 132.98 133.49 133.78 132.68 Z M 134.49 131.96 L 135.16 131.27 C 135.96 130.46 135.94 129.16 135.13 128.36 C 134.31 127.57 133.01 127.58 132.21 128.40 L 131.54 129.08 C 130.75 129.90 130.76 131.20 131.58 132.00 C 132.39 132.79 133.70 132.77 134.49 131.96 Z M 135.17 131.26 L 135.83 130.57 C 136.61 129.75 136.59 128.45 135.77 127.67 C 134.94 126.88 133.64 126.91 132.86 127.73 L 132.20 128.41 C 131.42 129.23 131.44 130.54 132.26 131.32 C 133.08 132.11 134.39 132.08 135.17 131.26 Z M 135.84 130.56 L 136.50 129.86 C 137.27 129.03 137.23 127.73 136.40 126.95 C 135.57 126.17 134.27 126.22 133.50 127.05 L 132.84 127.75 C 132.07 128.58 132.11 129.88 132.94 130.65 C 133.77 131.43 135.07 131.38 135.84 130.56 Z M 136.51 129.84 L 137.17 129.12 C 137.94 128.28 137.88 126.98 137.05 126.22 C 136.21 125.45 134.92 125.51 134.15 126.34 L 133.49 127.06 C 132.72 127.90 132.77 129.20 133.61 129.96 C 134.44 130.73 135.74 130.67 136.51 129.84 Z M 137.18 129.11 L 137.85 128.37 C 138.61 127.53 138.55 126.23 137.71 125.47 C 136.87 124.71 135.57 124.77 134.81 125.61 L 134.14 126.35 C 133.38 127.19 133.44 128.49 134.28 129.25 C 135.12 130.01 136.42 129.94 137.18 129.11 Z M 137.85 128.36 L 138.53 127.61 C 139.29 126.77 139.22 125.47 138.38 124.72 C 137.54 123.96 136.25 124.02 135.49 124.86 L 134.81 125.62 C 134.05 126.46 134.12 127.75 134.96 128.51 C 135.80 129.27 137.09 129.20 137.85 128.36 Z M 138.53 127.61 L 139.22 126.85 C 139.98 126.01 139.91 124.72 139.07 123.96 C 138.24 123.20 136.94 123.26 136.19 124.10 L 135.50 124.86 C 134.74 125.70 134.80 126.99 135.64 127.75 C 136.48 128.51 137.77 128.45 138.53 127.61 Z M 139.21 126.85 L 139.86 126.13 C 140.62 125.30 140.56 124.01 139.73 123.25 C 138.89 122.49 137.60 122.55 136.84 123.38 L 136.19 124.10 C 135.43 124.93 135.49 126.22 136.33 126.98 C 137.16 127.74 138.45 127.68 139.21 126.85 Z M 139.85 126.14 L 140.51 125.42 C 141.27 124.59 141.21 123.30 140.39 122.54 C 139.56 121.78 138.27 121.84 137.51 122.67 L 136.85 123.38 C 136.09 124.21 136.15 125.50 136.98 126.26 C 137.81 127.02 139.09 126.96 139.85 126.14 Z M 140.50 125.42 L 141.18 124.69 C 141.93 123.86 141.88 122.58 141.06 121.82 C 140.23 121.06 138.95 121.11 138.19 121.94 L 137.52 122.67 C 136.76 123.49 136.81 124.78 137.64 125.53 C 138.46 126.29 139.74 126.24 140.50 125.42 Z M 141.17 124.68 L 141.86 123.94 C 142.61 123.11 142.56 121.84 141.74 121.08 C 140.92 120.32 139.64 120.37 138.88 121.20 L 138.20 121.94 C 137.44 122.76 137.49 124.04 138.31 124.80 C 139.13 125.56 140.41 125.50 141.17 124.68 Z M 141.85 123.93 L 142.56 123.16 C 143.31 122.34 143.26 121.07 142.44 120.32 C 141.62 119.56 140.35 119.62 139.59 120.43 L 138.89 121.20 C 138.13 122.02 138.19 123.30 139.01 124.05 C 139.83 124.80 141.10 124.75 141.85 123.93 Z M 142.56 123.16 L 143.23 122.42 C 143.98 121.61 143.92 120.34 143.11 119.59 C 142.29 118.84 141.02 118.89 140.27 119.71 L 139.60 120.44 C 138.85 121.26 138.90 122.53 139.72 123.28 C 140.54 124.03 141.81 123.97 142.56 123.16 Z M 143.22 122.42 L 143.89 121.69 C 144.64 120.87 144.58 119.61 143.77 118.86 C 142.95 118.12 141.69 118.17 140.94 118.98 L 140.27 119.72 C 139.53 120.53 139.58 121.79 140.40 122.54 C 141.21 123.29 142.48 123.23 143.22 122.42 Z M 143.88 121.68 L 144.56 120.94 C 145.31 120.13 145.25 118.87 144.44 118.13 C 143.63 117.39 142.38 117.44 141.63 118.25 L 140.95 118.99 C 140.21 119.80 140.26 121.06 141.07 121.80 C 141.88 122.54 143.14 122.49 143.88 121.68 Z M 144.55 120.94 L 145.24 120.20 C 145.98 119.39 145.93 118.14 145.13 117.40 C 144.32 116.66 143.07 116.71 142.33 117.51 L 141.64 118.25 C 140.90 119.05 140.95 120.31 141.75 121.05 C 142.56 121.79 143.81 121.74 144.55 120.94 Z M 145.23 120.20 L 145.91 119.46 C 146.66 118.66 146.61 117.42 145.82 116.67 C 145.02 115.93 143.77 115.97 143.03 116.77 L 142.34 117.51 C 141.60 118.30 141.64 119.55 142.44 120.29 C 143.24 121.04 144.48 120.99 145.23 120.20 Z M 145.90 119.46 L 146.59 118.73 C 147.33 117.94 147.30 116.70 146.51 115.96 C 145.72 115.21 144.48 115.25 143.74 116.04 L 143.05 116.77 C 142.30 117.55 142.34 118.80 143.13 119.54 C 143.91 120.28 145.15 120.25 145.90 119.46 Z M 146.57 118.74 L 147.26 118.01 C 148.01 117.23 147.98 116.00 147.21 115.25 C 146.43 114.51 145.20 114.53 144.45 115.31 L 143.75 116.03 C 143.01 116.81 143.03 118.05 143.81 118.79 C 144.59 119.54 145.82 119.51 146.57 118.74 Z M 147.24 118.01 L 147.94 117.30 C 148.68 116.53 148.67 115.31 147.90 114.56 C 147.14 113.81 145.91 113.83 145.16 114.60 L 144.47 115.31 C 143.72 116.08 143.74 117.30 144.51 118.05 C 145.27 118.79 146.50 118.78 147.24 118.01 Z M 147.92 117.30 L 148.62 116.59 C 149.36 115.83 149.35 114.62 148.60 113.87 C 147.84 113.13 146.62 113.14 145.88 113.89 L 145.18 114.60 C 144.44 115.36 144.45 116.57 145.20 117.32 C 145.96 118.06 147.18 118.05 147.92 117.30 Z M 148.60 116.58 L 149.30 115.88 C 150.04 115.13 150.04 113.92 149.29 113.18 C 148.55 112.44 147.34 112.44 146.59 113.19 L 145.89 113.90 C 145.15 114.64 145.16 115.85 145.90 116.59 C 146.65 117.34 147.86 117.33 148.60 116.58 Z M 149.29 115.87 L 150.00 115.16 C 150.74 114.42 150.74 113.22 150.00 112.48 C 149.26 111.74 148.06 111.75 147.32 112.49 L 146.61 113.20 C 145.87 113.94 145.87 115.14 146.61 115.87 C 147.35 116.61 148.55 116.61 149.29 115.87 Z M 149.99 115.15 L 150.69 114.45 C 151.42 113.72 151.42 112.53 150.69 111.79 C 149.95 111.06 148.76 111.06 148.03 111.79 L 147.33 112.49 C 146.59 113.23 146.60 114.42 147.33 115.15 C 148.06 115.89 149.25 115.89 149.99 115.15 Z M 150.68 114.44 L 151.36 113.76 C 152.09 113.03 152.09 111.85 151.36 111.12 C 150.64 110.39 149.46 110.39 148.73 111.12 L 148.04 111.80 C 147.31 112.53 147.31 113.71 148.04 114.44 C 148.77 115.17 149.95 115.17 150.68 114.44 Z M 151.35 113.75 L 152.05 113.06 C 152.77 112.34 152.78 111.17 152.06 110.44 C 151.34 109.71 150.17 109.71 149.44 110.43 L 148.74 111.12 C 148.01 111.84 148.01 113.02 148.73 113.74 C 149.45 114.47 150.62 114.47 151.35 113.75 Z M 152.03 113.06 L 152.74 112.36 C 153.47 111.64 153.48 110.48 152.77 109.76 C 152.06 109.03 150.89 109.02 150.17 109.73 L 149.46 110.43 C 148.73 111.14 148.72 112.31 149.43 113.03 C 150.14 113.76 151.31 113.77 152.03 113.06 Z M 152.73 112.35 L 153.45 111.65 C 154.18 110.95 154.20 109.80 153.50 109.07 C 152.80 108.35 151.64 108.33 150.92 109.03 L 150.19 109.73 C 149.47 110.43 149.45 111.59 150.15 112.31 C 150.85 113.04 152.00 113.05 152.73 112.35 Z M 153.43 111.65 L 154.18 110.94 C 154.90 110.26 154.93 109.11 154.24 108.39 C 153.56 107.66 152.41 107.63 151.69 108.32 L 150.94 109.03 C 150.22 109.71 150.19 110.86 150.87 111.58 C 151.56 112.31 152.71 112.34 153.43 111.65 Z M 154.15 110.95 L 154.89 110.26 C 155.62 109.59 155.66 108.45 154.99 107.72 C 154.31 107.00 153.17 106.95 152.45 107.63 L 151.71 108.32 C 150.98 108.99 150.94 110.13 151.62 110.85 C 152.29 111.58 153.43 111.62 154.15 110.95 Z M 154.87 110.26 L 155.59 109.60 C 156.32 108.94 156.38 107.82 155.71 107.09 C 155.05 106.36 153.93 106.31 153.20 106.97 L 152.47 107.63 C 151.74 108.29 151.69 109.42 152.35 110.14 C 153.01 110.87 154.14 110.92 154.87 110.26 Z M 155.57 109.60 L 156.31 108.94 C 157.04 108.30 157.10 107.18 156.45 106.45 C 155.80 105.72 154.69 105.66 153.96 106.31 L 153.22 106.97 C 152.49 107.62 152.43 108.73 153.08 109.46 C 153.73 110.19 154.84 110.25 155.57 109.60 Z M 156.29 108.94 L 157.04 108.28 C 157.77 107.65 157.84 106.54 157.20 105.81 C 156.56 105.08 155.46 105.01 154.73 105.65 L 153.98 106.31 C 153.25 106.95 153.18 108.05 153.82 108.78 C 154.46 109.51 155.56 109.58 156.29 108.94 Z M 157.02 108.28 L 157.79 107.62 C 158.51 106.99 158.59 105.90 157.96 105.17 C 157.33 104.44 156.24 104.37 155.51 104.99 L 154.75 105.65 C 154.02 106.28 153.94 107.38 154.57 108.10 C 155.20 108.83 156.30 108.91 157.02 108.28 Z M 157.77 107.62 L 158.54 106.96 C 159.26 106.34 159.35 105.25 158.73 104.53 C 158.11 103.81 157.02 103.72 156.30 104.34 L 155.53 105.00 C 154.80 105.62 154.72 106.70 155.34 107.43 C 155.96 108.15 157.04 108.24 157.77 107.62 Z M 158.52 106.95 L 159.30 106.29 C 160.02 105.69 160.11 104.61 159.50 103.89 C 158.89 103.16 157.82 103.07 157.09 103.68 L 156.32 104.34 C 155.59 104.95 155.50 106.03 156.11 106.75 C 156.72 107.47 157.80 107.56 158.52 106.95 Z M 159.29 106.29 L 160.05 105.65 C 160.77 105.05 160.86 103.98 160.26 103.26 C 159.66 102.54 158.59 102.45 157.87 103.05 L 157.11 103.69 C 156.39 104.29 156.29 105.36 156.90 106.08 C 157.50 106.80 158.57 106.89 159.29 106.29 Z M 160.04 105.65 L 160.81 105.01 C 161.53 104.41 161.62 103.35 161.03 102.63 C 160.43 101.91 159.36 101.82 158.65 102.41 L 157.88 103.05 C 157.16 103.65 157.06 104.72 157.66 105.43 C 158.26 106.15 159.32 106.25 160.04 105.65 Z M 160.80 105.01 L 161.57 104.37 C 162.28 103.78 162.38 102.72 161.79 102.00 C 161.20 101.29 160.14 101.19 159.43 101.78 L 158.66 102.42 C 157.94 103.01 157.84 104.07 158.43 104.78 C 159.02 105.50 160.08 105.60 160.80 105.01 Z M 161.56 104.37 L 162.33 103.73 C 163.05 103.14 163.15 102.09 162.56 101.38 C 161.98 100.66 160.92 100.56 160.21 101.15 L 159.44 101.78 C 158.72 102.37 158.62 103.42 159.21 104.14 C 159.79 104.85 160.85 104.95 161.56 104.37 Z M 162.32 103.73 L 163.10 103.09 C 163.81 102.51 163.92 101.46 163.34 100.75 C 162.76 100.04 161.71 99.93 161.00 100.52 L 160.22 101.15 C 159.51 101.73 159.40 102.78 159.98 103.49 C 160.56 104.20 161.61 104.31 162.32 103.73 Z M 163.09 103.09 L 163.87 102.46 C 164.58 101.88 164.69 100.84 164.11 100.13 C 163.53 99.42 162.49 99.31 161.78 99.89 L 161.00 100.52 C 160.29 101.10 160.19 102.14 160.76 102.85 C 161.34 103.56 162.38 103.67 163.09 103.09 Z M 163.86 102.45 L 164.65 101.82 C 165.35 101.25 165.46 100.21 164.89 99.50 C 164.32 98.79 163.28 98.68 162.57 99.26 L 161.79 99.89 C 161.08 100.46 160.97 101.50 161.54 102.21 C 162.12 102.92 163.15 103.03 163.86 102.45 Z M 164.64 101.82 L 165.43 101.19 C 166.14 100.62 166.25 99.58 165.68 98.87 C 165.11 98.17 164.07 98.05 163.36 98.62 L 162.58 99.26 C 161.87 99.83 161.76 100.86 162.33 101.57 C 162.90 102.28 163.93 102.39 164.64 101.82 Z M 165.42 101.19 L 166.21 100.56 C 166.92 99.99 167.03 98.96 166.47 98.25 C 165.90 97.54 164.86 97.42 164.15 97.99 L 163.37 98.62 C 162.66 99.19 162.55 100.22 163.11 100.93 C 163.68 101.64 164.72 101.76 165.42 101.19 Z M 166.21 100.56 L 166.99 99.93 C 167.70 99.37 167.82 98.33 167.25 97.62 C 166.69 96.91 165.65 96.80 164.94 97.36 L 164.16 97.99 C 163.45 98.56 163.33 99.59 163.90 100.30 C 164.47 101.01 165.50 101.13 166.21 100.56 Z M 166.99 99.93 L 167.77 99.31 C 168.48 98.75 168.60 97.71 168.03 97.00 C 167.47 96.30 166.44 96.18 165.73 96.74 L 164.95 97.36 C 164.24 97.93 164.12 98.96 164.68 99.67 C 165.25 100.38 166.28 100.50 166.99 99.93 Z M 167.77 99.31 L 168.55 98.70 C 169.26 98.13 169.38 97.10 168.81 96.39 C 168.25 95.68 167.22 95.56 166.51 96.12 L 165.73 96.74 C 165.02 97.30 164.90 98.34 165.46 99.05 C 166.03 99.76 167.06 99.88 167.77 99.31 Z M 168.54 98.70 L 169.32 98.09 C 170.03 97.52 170.15 96.49 169.59 95.78 C 169.02 95.07 167.99 94.95 167.28 95.51 L 166.51 96.12 C 165.80 96.69 165.68 97.72 166.24 98.43 C 166.80 99.14 167.83 99.26 168.54 98.70 Z M 169.32 98.09 L 170.11 97.46 C 170.82 96.90 170.94 95.87 170.38 95.16 C 169.82 94.45 168.79 94.33 168.07 94.89 L 167.28 95.51 C 166.57 96.07 166.45 97.11 167.01 97.82 C 167.57 98.53 168.60 98.65 169.32 98.09 Z M 170.11 97.46 L 170.90 96.84 C 171.61 96.28 171.74 95.24 171.17 94.53 C 170.61 93.82 169.58 93.70 168.87 94.26 L 168.07 94.88 C 167.36 95.45 167.24 96.48 167.80 97.19 C 168.36 97.90 169.40 98.03 170.11 97.46 Z M 170.90 96.84 L 171.69 96.22 C 172.40 95.66 172.53 94.62 171.96 93.91 C 171.40 93.19 170.36 93.07 169.65 93.64 L 168.86 94.26 C 168.15 94.82 168.03 95.86 168.59 96.57 C 169.16 97.28 170.19 97.40 170.90 96.84 Z M 171.69 96.22 L 172.48 95.60 C 173.19 95.04 173.31 94.00 172.74 93.29 C 172.18 92.57 171.14 92.45 170.43 93.02 L 169.65 93.64 C 168.93 94.20 168.81 95.24 169.38 95.95 C 169.94 96.67 170.98 96.79 171.69 96.22 Z M 172.48 95.60 L 173.26 94.98 C 173.97 94.41 174.09 93.38 173.52 92.66 C 172.95 91.95 171.91 91.83 171.20 92.40 L 170.42 93.02 C 169.71 93.59 169.59 94.62 170.16 95.34 C 170.73 96.05 171.77 96.17 172.48 95.60 Z M 173.26 94.98 L 174.04 94.36 C 174.75 93.79 174.86 92.75 174.29 92.04 C 173.72 91.32 172.68 91.21 171.97 91.78 L 171.19 92.40 C 170.48 92.97 170.37 94.01 170.94 94.73 C 171.51 95.44 172.55 95.55 173.26 94.98 Z M 174.04 94.36 L 174.82 93.73 C 175.53 93.16 175.64 92.12 175.06 91.40 C 174.49 90.69 173.44 90.58 172.73 91.16 L 171.96 91.78 C 171.25 92.36 171.14 93.40 171.71 94.11 C 172.29 94.83 173.33 94.94 174.04 94.36 Z M 174.83 93.73 L 175.60 93.10 C 176.31 92.52 176.42 91.47 175.84 90.76 C 175.26 90.05 174.21 89.94 173.50 90.52 L 172.72 91.16 C 172.01 91.74 171.91 92.79 172.49 93.50 C 173.07 94.21 174.12 94.32 174.83 93.73 Z M 175.61 93.10 L 176.38 92.47 C 177.10 91.88 177.20 90.83 176.61 90.12 C 176.03 89.41 174.98 89.30 174.26 89.89 L 173.49 90.52 C 172.78 91.11 172.68 92.16 173.26 92.87 C 173.85 93.59 174.90 93.69 175.61 93.10 Z M 176.39 92.47 L 177.16 91.83 C 177.87 91.24 177.97 90.19 177.39 89.47 C 176.80 88.76 175.74 88.66 175.03 89.25 L 174.26 89.89 C 173.54 90.48 173.44 91.53 174.03 92.25 C 174.62 92.96 175.68 93.06 176.39 92.47 Z M 177.17 91.83 L 177.94 91.20 C 178.65 90.60 178.75 89.54 178.16 88.83 C 177.56 88.11 176.50 88.01 175.79 88.61 L 175.02 89.25 C 174.30 89.84 174.21 90.90 174.80 91.62 C 175.39 92.33 176.45 92.43 177.17 91.83 Z M 177.94 91.20 L 178.71 90.56 C 179.43 89.96 179.52 88.90 178.93 88.18 C 178.33 87.47 177.27 87.37 176.55 87.97 L 175.78 88.60 C 175.07 89.20 174.97 90.27 175.57 90.98 C 176.16 91.70 177.23 91.80 177.94 91.20 Z M 178.72 90.56 L 179.25 90.12 C 179.97 89.52 180.06 88.45 179.46 87.73 C 178.87 87.02 177.80 86.92 177.08 87.52 L 176.55 87.96 C 175.83 88.56 175.73 89.63 176.33 90.35 C 176.93 91.07 178.00 91.16 178.72 90.56 Z"
      fill="black"
      fill-rule="nonzero" /></svg>