<svg xmlns="http://www.w3.org/2000/svg" width="300" height="300" viewBox="0 0 300 300">
<path d="M 139.56 165.24 L 139.21 166.17 C 138.85 167.12 139.33 168.19 140.29 168.55 C 141.24 168.92 142.31 168.44 142.67 167.48 L 143.03 166.55 C 143.39 165.60 142.91 164.53 141.95 164.16 C 141.00 163.80 139.93 164.28 139.56 165.24 Z M 139.13 166.45 L 138.93 167.40 C 138.72 168.40 139.37 169.38 140.37 169.59 C 141.37 169.79 142.35 169.15 142.56 168.15 L 142.76 167.20 C 142.97 166.20 142.32 165.22 141.32 165.01 C 140.32 164.80 139.34 165.45 139.13 166.45 Z M 138.91 167.99 L 139.02 168.98 C 139.14 169.99 140.06 170.72 141.08 170.60 C 142.09 170.49 142.82 169.57 142.70 168.55 L 142.59 167.56 C 142.47 166.54 141.55 165.81 140.53 165.93 C 139.52 166.05 138.79 166.97 138.91 167.99 Z M 139.19 169.57 L 139.57 170.36 C 140.02 171.28 141.13 171.67 142.05 171.23 C 142.97 170.78 143.36 169.67 142.92 168.75 L 142.54 167.96 C 142.09 167.03 140.98 166.65 140.06 167.09 C 139.13 167.53 138.75 168.64 139.19 169.57 Z M 139.75 170.67 L 140.32 171.43 C 140.94 172.25 142.10 172.42 142.93 171.81 C 143.75 171.19 143.92 170.03 143.30 169.21 L 142.73 168.44 C 142.12 167.62 140.95 167.45 140.13 168.07 C 139.31 168.68 139.14 169.85 139.75 170.67 Z M 140.46 171.60 L 141.17 172.35 C 141.88 173.10 143.06 173.14 143.81 172.43 C 144.55 171.73 144.59 170.55 143.88 169.80 L 143.17 169.04 C 142.46 168.29 141.28 168.26 140.54 168.96 C 139.79 169.67 139.75 170.85 140.46 171.60 Z M 141.27 172.45 L 142.07 173.18 C 142.83 173.88 144.01 173.83 144.71 173.06 C 145.40 172.30 145.35 171.12 144.59 170.43 L 143.79 169.70 C 143.03 169.00 141.85 169.06 141.15 169.82 C 140.46 170.58 140.51 171.76 141.27 172.45 Z M 142.14 173.25 L 142.98 173.94 C 143.78 174.60 144.96 174.48 145.61 173.69 C 146.27 172.89 146.15 171.71 145.36 171.06 L 144.52 170.36 C 143.72 169.71 142.54 169.82 141.89 170.62 C 141.23 171.42 141.34 172.59 142.14 173.25 Z M 143.04 173.99 L 143.89 174.63 C 144.72 175.26 145.89 175.09 146.51 174.27 C 147.13 173.44 146.97 172.27 146.15 171.65 L 145.30 171.01 C 144.47 170.39 143.30 170.55 142.68 171.37 C 142.06 172.20 142.22 173.37 143.04 173.99 Z M 143.96 174.68 L 144.79 175.26 C 145.64 175.84 146.80 175.63 147.39 174.78 C 147.98 173.93 147.77 172.77 146.92 172.18 L 146.08 171.60 C 145.23 171.02 144.07 171.23 143.48 172.08 C 142.89 172.93 143.11 174.09 143.96 174.68 Z M 144.86 175.30 L 145.67 175.81 C 146.54 176.36 147.69 176.10 148.24 175.22 C 148.79 174.35 148.53 173.19 147.66 172.64 L 146.85 172.13 C 145.98 171.58 144.82 171.85 144.27 172.72 C 143.72 173.59 143.98 174.75 144.86 175.30 Z M 145.74 175.85 L 146.55 176.32 C 147.45 176.83 148.59 176.51 149.10 175.61 C 149.61 174.71 149.30 173.57 148.40 173.06 L 147.59 172.60 C 146.69 172.09 145.54 172.40 145.03 173.30 C 144.52 174.20 144.84 175.34 145.74 175.85 Z M 146.65 176.37 L 147.57 176.83 C 148.50 177.29 149.62 176.91 150.08 175.98 C 150.54 175.06 150.16 173.93 149.24 173.47 L 148.31 173.01 C 147.38 172.55 146.26 172.93 145.80 173.86 C 145.34 174.78 145.72 175.91 146.65 176.37 Z M 147.69 176.88 L 148.59 177.26 C 149.55 177.65 150.64 177.20 151.04 176.25 C 151.44 175.29 150.99 174.20 150.03 173.80 L 149.12 173.42 C 148.17 173.03 147.07 173.48 146.68 174.43 C 146.28 175.39 146.73 176.48 147.69 176.88 Z M 148.71 177.30 L 149.63 177.61 C 150.61 177.94 151.67 177.42 152.00 176.44 C 152.33 175.46 151.81 174.40 150.83 174.07 L 149.91 173.75 C 148.93 173.42 147.87 173.95 147.54 174.93 C 147.21 175.91 147.73 176.97 148.71 177.30 Z M 149.74 177.64 L 150.69 177.90 C 151.68 178.17 152.71 177.59 152.99 176.59 C 153.26 175.59 152.67 174.56 151.67 174.29 L 150.72 174.03 C 149.72 173.76 148.69 174.35 148.42 175.35 C 148.15 176.34 148.74 177.37 149.74 177.64 Z M 150.79 177.93 L 151.77 178.14 C 152.78 178.35 153.77 177.71 153.99 176.70 C 154.21 175.69 153.56 174.69 152.55 174.47 L 151.57 174.27 C 150.56 174.05 149.56 174.69 149.35 175.71 C 149.13 176.72 149.78 177.71 150.79 177.93 Z M 151.87 178.16 L 152.86 178.31 C 153.88 178.48 154.84 177.78 155.00 176.76 C 155.17 175.73 154.47 174.78 153.45 174.61 L 152.45 174.46 C 151.43 174.29 150.47 174.99 150.31 176.01 C 150.15 177.03 150.84 177.99 151.87 178.16 Z M 152.96 178.33 L 153.96 178.43 C 154.99 178.54 155.91 177.79 156.01 176.76 C 156.12 175.73 155.37 174.81 154.34 174.70 L 153.35 174.60 C 152.32 174.49 151.40 175.24 151.29 176.27 C 151.18 177.30 151.93 178.22 152.96 178.33 Z M 154.06 178.44 L 155.05 178.49 C 156.08 178.54 156.96 177.74 157.01 176.71 C 157.07 175.68 156.27 174.80 155.24 174.74 L 154.24 174.70 C 153.21 174.64 152.33 175.44 152.28 176.47 C 152.23 177.51 153.02 178.39 154.06 178.44 Z M 155.13 178.49 L 156.13 178.50 C 157.16 178.50 158.01 177.67 158.01 176.63 C 158.02 175.60 157.19 174.76 156.15 174.75 L 155.16 174.74 C 154.12 174.74 153.28 175.57 153.27 176.60 C 153.26 177.64 154.10 178.48 155.13 178.49 Z M 156.19 178.50 L 157.20 178.47 C 158.23 178.44 159.05 177.58 159.02 176.55 C 158.99 175.51 158.13 174.70 157.10 174.72 L 156.09 174.75 C 155.06 174.78 154.24 175.64 154.27 176.67 C 154.29 177.71 155.15 178.52 156.19 178.50 Z M 157.25 178.47 L 158.19 178.41 C 159.22 178.35 160.01 177.47 159.95 176.44 C 159.89 175.40 159.01 174.61 157.98 174.67 L 157.04 174.73 C 156.01 174.78 155.22 175.67 155.28 176.70 C 155.33 177.74 156.22 178.53 157.25 178.47 Z M 158.31 178.40 L 159.27 178.28 C 160.30 178.16 161.03 177.23 160.91 176.20 C 160.78 175.17 159.85 174.44 158.82 174.57 L 157.86 174.68 C 156.83 174.81 156.10 175.74 156.22 176.77 C 156.35 177.80 157.28 178.53 158.31 178.40 Z M 159.46 178.25 L 160.46 178.03 C 161.47 177.80 162.10 176.80 161.87 175.79 C 161.65 174.78 160.64 174.14 159.63 174.37 L 158.64 174.60 C 157.63 174.82 156.99 175.83 157.22 176.84 C 157.45 177.85 158.45 178.48 159.46 178.25 Z M 160.68 177.96 L 161.65 177.62 C 162.63 177.27 163.14 176.20 162.79 175.22 C 162.44 174.25 161.37 173.74 160.40 174.09 L 159.42 174.44 C 158.44 174.78 157.93 175.85 158.28 176.83 C 158.63 177.80 159.70 178.31 160.68 177.96 Z M 161.84 177.54 L 162.70 177.12 C 163.64 176.67 164.03 175.55 163.58 174.62 C 163.13 173.69 162.01 173.30 161.08 173.75 L 160.21 174.16 C 159.28 174.61 158.89 175.73 159.34 176.66 C 159.79 177.60 160.91 177.99 161.84 177.54 Z M 162.83 177.06 L 163.70 176.55 C 164.59 176.04 164.90 174.89 164.39 174.00 C 163.87 173.10 162.72 172.79 161.83 173.31 L 160.95 173.81 C 160.06 174.33 159.75 175.47 160.27 176.37 C 160.78 177.27 161.93 177.57 162.83 177.06 Z M 163.79 176.50 L 164.65 175.93 C 165.52 175.36 165.76 174.20 165.19 173.34 C 164.62 172.47 163.46 172.23 162.59 172.80 L 161.73 173.37 C 160.87 173.93 160.63 175.10 161.20 175.96 C 161.77 176.83 162.93 177.07 163.79 176.50 Z M 164.72 175.88 L 165.55 175.28 C 166.39 174.67 166.57 173.50 165.96 172.66 C 165.35 171.82 164.18 171.64 163.35 172.25 L 162.52 172.85 C 161.68 173.46 161.50 174.63 162.11 175.47 C 162.72 176.31 163.89 176.49 164.72 175.88 Z M 165.62 175.23 L 166.43 174.58 C 167.24 173.94 167.37 172.76 166.73 171.95 C 166.08 171.14 164.91 171.01 164.10 171.65 L 163.28 172.30 C 162.47 172.94 162.34 174.12 162.98 174.93 C 163.63 175.74 164.81 175.87 165.62 175.23 Z M 166.49 174.53 L 167.26 173.86 C 168.04 173.18 168.13 172.00 167.45 171.22 C 166.77 170.44 165.59 170.36 164.80 171.03 L 164.03 171.70 C 163.25 172.38 163.17 173.56 163.85 174.35 C 164.53 175.13 165.71 175.21 166.49 174.53 Z M 167.33 173.80 L 168.04 173.12 C 168.79 172.40 168.82 171.22 168.11 170.47 C 167.39 169.72 166.21 169.69 165.46 170.41 L 164.74 171.09 C 163.99 171.81 163.96 172.99 164.68 173.74 C 165.39 174.49 166.58 174.52 167.33 173.80 Z M 168.11 173.05 L 168.78 172.35 C 169.49 171.60 169.46 170.42 168.71 169.70 C 167.97 168.99 166.78 169.02 166.07 169.77 L 165.40 170.47 C 164.68 171.22 164.71 172.40 165.46 173.12 C 166.21 173.83 167.39 173.80 168.11 173.05 Z M 168.84 172.28 L 169.48 171.54 C 170.16 170.76 170.07 169.58 169.29 168.90 C 168.51 168.23 167.33 168.31 166.65 169.09 L 166.01 169.83 C 165.33 170.61 165.42 171.80 166.20 172.47 C 166.98 173.15 168.16 173.06 168.84 172.28 Z M 169.53 171.48 L 170.15 170.69 C 170.79 169.88 170.66 168.70 169.84 168.06 C 169.03 167.42 167.86 167.56 167.22 168.37 L 166.59 169.16 C 165.95 169.97 166.09 171.15 166.90 171.79 C 167.72 172.43 168.89 172.29 169.53 171.48 Z M 170.20 170.63 L 170.79 169.82 C 171.39 168.98 171.21 167.81 170.37 167.21 C 169.54 166.60 168.37 166.79 167.76 167.62 L 167.17 168.43 C 166.56 169.27 166.75 170.44 167.59 171.05 C 168.42 171.65 169.59 171.47 170.20 170.63 Z M 170.82 169.77 L 171.38 168.94 C 171.96 168.08 171.73 166.92 170.88 166.34 C 170.02 165.76 168.86 165.99 168.28 166.85 L 167.72 167.67 C 167.14 168.53 167.37 169.69 168.23 170.27 C 169.08 170.85 170.25 170.62 170.82 169.77 Z M 171.41 168.89 L 171.94 168.06 C 172.49 167.19 172.24 166.03 171.36 165.48 C 170.49 164.92 169.34 165.18 168.78 166.05 L 168.25 166.89 C 167.70 167.76 167.96 168.92 168.83 169.47 C 169.70 170.02 170.86 169.77 171.41 168.89 Z M 171.97 168.01 L 172.46 167.18 C 172.99 166.30 172.70 165.15 171.82 164.62 C 170.93 164.09 169.78 164.38 169.25 165.26 L 168.76 166.10 C 168.23 166.98 168.52 168.13 169.40 168.66 C 170.29 169.19 171.44 168.90 171.97 168.01 Z M 172.50 167.13 L 172.97 166.27 C 173.47 165.36 173.14 164.23 172.24 163.73 C 171.33 163.23 170.20 163.56 169.70 164.46 L 169.22 165.32 C 168.72 166.22 169.05 167.36 169.96 167.86 C 170.86 168.36 172.00 168.03 172.50 167.13 Z M 173.01 166.20 L 173.45 165.30 C 173.91 164.38 173.54 163.25 172.61 162.79 C 171.69 162.33 170.57 162.71 170.11 163.63 L 169.66 164.53 C 169.20 165.45 169.58 166.58 170.50 167.04 C 171.42 167.50 172.55 167.12 173.01 166.20 Z M 173.49 165.22 L 173.91 164.26 C 174.33 163.32 173.90 162.22 172.96 161.80 C 172.01 161.39 170.91 161.81 170.49 162.76 L 170.07 163.71 C 169.66 164.66 170.08 165.76 171.03 166.18 C 171.97 166.59 173.07 166.16 173.49 165.22 Z M 173.94 164.18 L 174.31 163.24 C 174.68 162.28 174.20 161.20 173.24 160.82 C 172.28 160.45 171.19 160.93 170.82 161.90 L 170.46 162.84 C 170.09 163.80 170.57 164.88 171.53 165.25 C 172.49 165.63 173.57 165.15 173.94 164.18 Z M 174.33 163.17 L 174.67 162.20 C 175.00 161.23 174.48 160.16 173.50 159.83 C 172.53 159.50 171.47 160.02 171.13 160.99 L 170.80 161.96 C 170.46 162.94 170.98 164.00 171.96 164.33 C 172.94 164.67 174.00 164.15 174.33 163.17 Z M 174.68 162.15 L 174.98 161.17 C 175.29 160.18 174.73 159.14 173.75 158.83 C 172.76 158.53 171.72 159.08 171.41 160.07 L 171.11 161.05 C 170.81 162.03 171.36 163.08 172.35 163.38 C 173.34 163.68 174.38 163.13 174.68 162.15 Z M 175.00 161.12 L 175.26 160.16 C 175.54 159.17 174.96 158.14 173.96 157.87 C 172.97 157.59 171.94 158.17 171.66 159.17 L 171.40 160.12 C 171.12 161.11 171.71 162.14 172.70 162.42 C 173.69 162.69 174.72 162.11 175.00 161.12 Z M 175.28 160.11 L 175.51 159.15 C 175.76 158.15 175.15 157.14 174.15 156.89 C 173.15 156.64 172.14 157.26 171.89 158.26 L 171.65 159.22 C 171.40 160.22 172.01 161.23 173.01 161.48 C 174.02 161.72 175.03 161.11 175.28 160.11 Z M 175.53 159.09 L 175.75 158.06 C 175.96 157.05 175.32 156.06 174.31 155.84 C 173.30 155.63 172.31 156.27 172.10 157.28 L 171.88 158.32 C 171.66 159.33 172.31 160.32 173.31 160.53 C 174.32 160.74 175.31 160.10 175.53 159.09 Z M 175.76 157.98 L 175.92 157.01 C 176.09 155.99 175.41 155.03 174.39 154.86 C 173.37 154.69 172.41 155.38 172.24 156.39 L 172.08 157.36 C 171.91 158.38 172.60 159.34 173.61 159.51 C 174.63 159.68 175.59 158.99 175.76 157.98 Z M 175.94 156.92 L 176.05 155.98 C 176.17 154.96 175.44 154.03 174.41 153.91 C 173.39 153.78 172.46 154.52 172.34 155.54 L 172.23 156.48 C 172.11 157.50 172.84 158.43 173.86 158.55 C 174.89 158.68 175.81 157.94 175.94 156.92 Z M 176.06 155.89 L 176.13 154.93 C 176.20 153.90 175.43 153.01 174.40 152.94 C 173.37 152.86 172.48 153.63 172.40 154.66 L 172.33 155.62 C 172.26 156.65 173.03 157.55 174.06 157.62 C 175.09 157.69 175.98 156.92 176.06 155.89 Z M 176.13 154.87 L 176.17 153.87 C 176.20 152.84 175.40 151.98 174.37 151.94 C 173.34 151.90 172.47 152.70 172.44 153.73 L 172.40 154.73 C 172.36 155.76 173.17 156.62 174.19 156.66 C 175.22 156.70 176.09 155.90 176.13 154.87 Z M 176.17 153.83 L 176.18 152.82 C 176.20 151.79 175.37 150.94 174.34 150.93 C 173.31 150.91 172.46 151.74 172.45 152.77 L 172.44 153.78 C 172.42 154.81 173.24 155.65 174.28 155.67 C 175.31 155.68 176.15 154.86 176.17 153.83 Z M 176.18 152.80 L 176.18 151.79 C 176.19 150.76 175.35 149.92 174.32 149.92 C 173.29 149.92 172.45 150.75 172.45 151.78 L 172.45 152.79 C 172.45 153.82 173.28 154.66 174.31 154.66 C 175.34 154.66 176.18 153.83 176.18 152.80 Z M 176.18 151.78 L 176.18 150.80 C 176.18 149.77 175.34 148.93 174.31 148.93 C 173.28 148.93 172.45 149.77 172.45 150.80 L 172.45 151.79 C 172.45 152.82 173.29 153.65 174.32 153.65 C 175.35 153.65 176.18 152.81 176.18 151.78 Z M 176.18 150.78 L 176.17 149.80 C 176.16 148.77 175.32 147.94 174.29 147.95 C 173.26 147.95 172.43 148.80 172.44 149.83 L 172.45 150.82 C 172.46 151.85 173.30 152.67 174.33 152.66 C 175.36 152.66 176.19 151.81 176.18 150.78 Z M 176.17 149.77 L 176.15 148.76 C 176.12 147.73 175.27 146.92 174.24 146.94 C 173.21 146.97 172.40 147.82 172.42 148.85 L 172.44 149.86 C 172.47 150.89 173.32 151.70 174.35 151.68 C 175.38 151.65 176.20 150.80 176.17 149.77 Z M 176.15 148.72 L 176.10 147.72 C 176.05 146.69 175.18 145.89 174.15 145.94 C 173.13 145.99 172.33 146.86 172.38 147.89 L 172.42 148.89 C 172.47 149.92 173.34 150.72 174.37 150.67 C 175.40 150.62 176.19 149.75 176.15 148.72 Z M 176.10 147.67 L 176.03 146.72 C 175.96 145.69 175.06 144.92 174.04 144.99 C 173.01 145.07 172.24 145.96 172.31 146.99 L 172.38 147.94 C 172.45 148.96 173.34 149.74 174.37 149.66 C 175.40 149.59 176.17 148.70 176.10 147.67 Z M 176.02 146.66 L 175.92 145.68 C 175.81 144.65 174.90 143.91 173.87 144.02 C 172.85 144.12 172.11 145.04 172.21 146.07 L 172.32 147.05 C 172.42 148.07 173.34 148.81 174.36 148.71 C 175.39 148.60 176.13 147.68 176.02 146.66 Z M 175.91 145.60 L 175.77 144.59 C 175.62 143.57 174.67 142.87 173.65 143.01 C 172.63 143.16 171.93 144.11 172.08 145.13 L 172.22 146.14 C 172.37 147.16 173.32 147.86 174.34 147.72 C 175.35 147.57 176.06 146.62 175.91 145.60 Z M 175.75 144.51 L 175.55 143.48 C 175.36 142.46 174.38 141.80 173.37 142.00 C 172.36 142.19 171.70 143.17 171.89 144.18 L 172.09 145.21 C 172.28 146.22 173.26 146.88 174.27 146.69 C 175.28 146.50 175.95 145.52 175.75 144.51 Z M 175.54 143.39 L 175.31 142.43 C 175.07 141.43 174.06 140.81 173.06 141.05 C 172.06 141.29 171.44 142.29 171.68 143.29 L 171.91 144.26 C 172.15 145.26 173.15 145.88 174.16 145.64 C 175.16 145.40 175.78 144.40 175.54 143.39 Z M 175.29 142.36 L 175.02 141.39 C 174.75 140.40 173.72 139.82 172.73 140.09 C 171.73 140.37 171.15 141.39 171.43 142.39 L 171.70 143.36 C 171.97 144.35 173.00 144.93 173.99 144.66 C 174.98 144.38 175.56 143.36 175.29 142.36 Z M 175.00 141.34 L 174.70 140.37 C 174.40 139.39 173.35 138.84 172.37 139.14 C 171.39 139.45 170.84 140.49 171.14 141.47 L 171.44 142.44 C 171.75 143.42 172.79 143.97 173.78 143.67 C 174.76 143.36 175.31 142.32 175.00 141.34 Z M 174.69 140.32 L 174.37 139.38 C 174.04 138.40 172.98 137.88 172.00 138.21 C 171.03 138.54 170.51 139.60 170.84 140.57 L 171.16 141.52 C 171.49 142.50 172.55 143.02 173.52 142.69 C 174.50 142.36 175.02 141.30 174.69 140.32 Z M 174.35 139.34 L 174.00 138.36 C 173.64 137.40 172.57 136.90 171.61 137.25 C 170.64 137.61 170.14 138.68 170.50 139.64 L 170.85 140.62 C 171.21 141.58 172.28 142.08 173.24 141.73 C 174.21 141.37 174.71 140.30 174.35 139.34 Z M 173.98 138.32 L 173.60 137.34 C 173.22 136.38 172.13 135.91 171.17 136.29 C 170.22 136.67 169.75 137.75 170.12 138.71 L 170.51 139.69 C 170.89 140.65 171.97 141.12 172.93 140.74 C 173.89 140.36 174.36 139.28 173.98 138.32 Z M 173.58 137.29 L 173.18 136.37 C 172.77 135.42 171.67 134.98 170.73 135.39 C 169.78 135.80 169.34 136.89 169.75 137.84 L 170.14 138.76 C 170.55 139.71 171.65 140.15 172.60 139.74 C 173.55 139.33 173.98 138.23 173.58 137.29 Z M 173.16 136.31 L 172.75 135.45 C 172.31 134.52 171.20 134.12 170.26 134.56 C 169.33 135.00 168.93 136.11 169.37 137.04 L 169.77 137.90 C 170.21 138.83 171.33 139.24 172.26 138.80 C 173.20 138.36 173.60 137.24 173.16 136.31 Z M 172.72 135.38 L 172.28 134.54 C 171.80 133.62 170.67 133.27 169.76 133.74 C 168.84 134.22 168.48 135.35 168.96 136.27 L 169.40 137.11 C 169.88 138.03 171.01 138.38 171.93 137.91 C 172.84 137.43 173.20 136.30 172.72 135.38 Z M 172.23 134.44 L 171.73 133.61 C 171.20 132.72 170.05 132.43 169.16 132.96 C 168.27 133.49 167.98 134.64 168.51 135.53 L 169.01 136.37 C 169.54 137.25 170.70 137.54 171.58 137.01 C 172.47 136.48 172.76 135.33 172.23 134.44 Z M 171.65 133.48 L 171.08 132.68 C 170.48 131.84 169.31 131.64 168.47 132.24 C 167.62 132.84 167.42 134.01 168.02 134.86 L 168.59 135.66 C 169.19 136.50 170.36 136.70 171.21 136.10 C 172.05 135.50 172.25 134.33 171.65 133.48 Z M 170.99 132.56 L 170.31 131.76 C 169.64 130.97 168.46 130.87 167.66 131.54 C 166.87 132.21 166.77 133.40 167.45 134.19 L 168.12 134.99 C 168.79 135.78 169.98 135.88 170.77 135.20 C 171.56 134.53 171.66 133.35 170.99 132.56 Z M 170.22 131.66 L 169.54 130.96 C 168.81 130.21 167.61 130.20 166.87 130.93 C 166.13 131.66 166.12 132.85 166.85 133.59 L 167.54 134.30 C 168.26 135.04 169.46 135.05 170.20 134.32 C 170.94 133.59 170.95 132.40 170.22 131.66 Z M 169.47 130.88 L 168.71 130.19 C 167.95 129.49 166.75 129.54 166.05 130.31 C 165.34 131.07 165.39 132.27 166.16 132.97 L 166.91 133.67 C 167.68 134.37 168.88 134.32 169.58 133.55 C 170.29 132.78 170.24 131.59 169.47 130.88 Z M 168.66 130.13 L 167.87 129.47 C 167.07 128.80 165.87 128.90 165.20 129.70 C 164.53 130.50 164.63 131.70 165.43 132.37 L 166.22 133.03 C 167.02 133.71 168.21 133.60 168.89 132.80 C 169.56 132.00 169.46 130.81 168.66 130.13 Z M 167.81 129.42 L 167.03 128.82 C 166.20 128.18 165.01 128.33 164.37 129.16 C 163.73 129.99 163.88 131.18 164.71 131.82 L 165.49 132.43 C 166.32 133.07 167.51 132.91 168.15 132.08 C 168.79 131.25 168.64 130.06 167.81 129.42 Z M 166.96 128.76 L 166.08 128.15 C 165.22 127.54 164.03 127.76 163.43 128.62 C 162.83 129.49 163.04 130.68 163.91 131.28 L 164.78 131.89 C 165.65 132.49 166.84 132.27 167.44 131.41 C 168.04 130.54 167.82 129.36 166.96 128.76 Z M 165.99 128.07 L 165.13 127.55 C 164.22 127.00 163.04 127.29 162.49 128.20 C 161.95 129.10 162.24 130.28 163.14 130.83 L 164.00 131.35 C 164.91 131.90 166.09 131.61 166.64 130.70 C 167.18 129.80 166.89 128.62 165.99 128.07 Z M 165.02 127.48 L 164.18 127.04 C 163.23 126.55 162.07 126.92 161.58 127.87 C 161.09 128.82 161.46 129.98 162.41 130.47 L 163.25 130.90 C 164.20 131.39 165.36 131.02 165.85 130.08 C 166.34 129.13 165.97 127.97 165.02 127.48 Z M 164.08 126.98 L 163.20 126.59 C 162.22 126.16 161.08 126.60 160.64 127.58 C 160.21 128.56 160.65 129.71 161.63 130.14 L 162.51 130.53 C 163.49 130.96 164.63 130.52 165.07 129.54 C 165.50 128.56 165.06 127.42 164.08 126.98 Z M 163.10 126.55 L 162.16 126.19 C 161.16 125.82 160.04 126.33 159.66 127.33 C 159.28 128.34 159.79 129.46 160.80 129.84 L 161.73 130.19 C 162.74 130.57 163.86 130.06 164.24 129.05 C 164.61 128.04 164.10 126.92 163.10 126.55 Z M 162.04 126.15 L 161.07 125.86 C 160.04 125.55 158.96 126.14 158.65 127.17 C 158.34 128.21 158.93 129.29 159.96 129.60 L 160.92 129.89 C 161.96 130.19 163.04 129.60 163.35 128.57 C 163.66 127.54 163.07 126.45 162.04 126.15 Z M 160.92 125.82 L 159.94 125.61 C 158.88 125.39 157.85 126.07 157.63 127.12 C 157.40 128.18 158.08 129.22 159.14 129.44 L 160.12 129.64 C 161.17 129.86 162.21 129.19 162.43 128.13 C 162.65 127.07 161.97 126.04 160.92 125.82 Z M 159.76 125.58 L 158.77 125.47 C 157.69 125.35 156.72 126.12 156.60 127.19 C 156.48 128.27 157.25 129.23 158.33 129.36 L 159.32 129.47 C 160.39 129.59 161.36 128.82 161.48 127.74 C 161.60 126.67 160.83 125.70 159.76 125.58 Z M 158.58 125.46 L 157.58 125.44 C 156.50 125.42 155.61 126.29 155.59 127.37 C 155.58 128.45 156.44 129.34 157.52 129.36 L 158.52 129.37 C 159.60 129.39 160.49 128.52 160.50 127.44 C 160.52 126.36 159.66 125.47 158.58 125.46 Z M 157.38 125.45 L 156.38 125.53 C 155.30 125.63 154.50 126.58 154.60 127.65 C 154.69 128.73 155.64 129.53 156.72 129.44 L 157.72 129.35 C 158.80 129.26 159.59 128.31 159.50 127.23 C 159.41 126.15 158.46 125.35 157.38 125.45 Z M 156.18 125.56 L 155.20 125.75 C 154.14 125.95 153.44 126.98 153.64 128.04 C 153.84 129.10 154.87 129.80 155.94 129.60 L 156.92 129.41 C 157.98 129.21 158.68 128.18 158.47 127.12 C 158.27 126.05 157.24 125.36 156.18 125.56 Z M 155.00 125.80 L 154.04 126.09 C 153.00 126.40 152.42 127.49 152.73 128.53 C 153.04 129.57 154.14 130.15 155.17 129.84 L 156.13 129.55 C 157.17 129.24 157.76 128.14 157.44 127.11 C 157.13 126.07 156.04 125.48 155.00 125.80 Z M 153.84 126.16 L 152.92 126.55 C 151.92 126.98 151.46 128.13 151.89 129.12 C 152.31 130.12 153.46 130.58 154.46 130.16 L 155.38 129.77 C 156.37 129.34 156.84 128.19 156.41 127.19 C 155.99 126.20 154.83 125.73 153.84 126.16 Z M 152.72 126.65 L 151.90 127.12 C 150.96 127.65 150.63 128.85 151.16 129.79 C 151.70 130.73 152.90 131.06 153.84 130.53 L 154.66 130.06 C 155.60 129.52 155.93 128.33 155.39 127.38 C 154.86 126.44 153.66 126.11 152.72 126.65 Z M 151.73 127.22 L 150.94 127.78 C 150.06 128.41 149.85 129.63 150.48 130.52 C 151.10 131.40 152.33 131.61 153.21 130.98 L 154.00 130.42 C 154.89 129.80 155.10 128.57 154.47 127.69 C 153.84 126.80 152.62 126.59 151.73 127.22 Z M 150.83 127.87 L 150.03 128.52 C 149.19 129.21 149.08 130.45 149.77 131.29 C 150.46 132.13 151.69 132.24 152.53 131.55 L 153.33 130.90 C 154.16 130.21 154.28 128.97 153.59 128.13 C 152.90 127.29 151.67 127.18 150.83 127.87 Z M 149.96 128.58 L 149.20 129.27 C 148.40 130.00 148.33 131.24 149.06 132.04 C 149.79 132.85 151.03 132.91 151.84 132.19 L 152.60 131.50 C 153.40 130.77 153.47 129.53 152.74 128.72 C 152.01 127.92 150.77 127.85 149.96 128.58 Z M 149.16 129.30 L 148.44 129.99 C 147.66 130.74 147.63 131.98 148.38 132.77 C 149.13 133.55 150.37 133.58 151.16 132.83 L 151.88 132.15 C 152.66 131.40 152.69 130.16 151.94 129.37 C 151.19 128.58 149.95 128.55 149.16 129.30 Z M 148.41 130.02 L 147.69 130.74 C 146.92 131.51 146.92 132.75 147.69 133.52 C 148.45 134.29 149.70 134.29 150.47 133.52 L 151.19 132.80 C 151.96 132.04 151.96 130.79 151.20 130.02 C 150.43 129.25 149.18 129.25 148.41 130.02 Z M 147.66 130.77 L 146.96 131.50 C 146.20 132.29 146.23 133.53 147.01 134.29 C 147.80 135.04 149.04 135.01 149.79 134.23 L 150.50 133.50 C 151.25 132.71 151.23 131.46 150.44 130.71 C 149.66 129.96 148.41 129.98 147.66 130.77 Z M 146.92 131.54 L 146.23 132.29 C 145.49 133.10 145.55 134.34 146.35 135.08 C 147.15 135.81 148.40 135.76 149.13 134.95 L 149.83 134.20 C 150.56 133.39 150.51 132.15 149.70 131.41 C 148.90 130.68 147.66 130.73 146.92 131.54 Z M 146.19 132.33 L 145.51 133.13 C 144.79 133.95 144.88 135.19 145.70 135.90 C 146.53 136.62 147.77 136.53 148.48 135.71 L 149.17 134.91 C 149.88 134.09 149.79 132.85 148.97 132.14 C 148.15 131.42 146.90 131.51 146.19 132.33 Z M 145.47 133.17 L 144.84 133.94 C 144.15 134.78 144.28 136.02 145.12 136.71 C 145.96 137.40 147.21 137.27 147.89 136.43 L 148.52 135.66 C 149.21 134.82 149.08 133.58 148.24 132.89 C 147.40 132.20 146.16 132.33 145.47 133.17 Z M 144.80 133.99 L 144.23 134.74 C 143.56 135.60 143.73 136.84 144.59 137.50 C 145.45 138.16 146.69 138.00 147.35 137.14 L 147.93 136.38 C 148.59 135.52 148.43 134.29 147.57 133.62 C 146.70 132.96 145.47 133.12 144.80 133.99 Z M 144.19 134.79 L 143.60 135.60 C 142.97 136.49 143.17 137.72 144.05 138.35 C 144.93 138.99 146.17 138.79 146.80 137.90 L 147.39 137.09 C 148.02 136.21 147.82 134.97 146.94 134.34 C 146.06 133.70 144.83 133.90 144.19 134.79 Z M 143.56 135.66 L 143.00 136.50 C 142.40 137.41 142.65 138.63 143.55 139.23 C 144.46 139.83 145.68 139.59 146.28 138.68 L 146.84 137.84 C 147.44 136.94 147.20 135.72 146.29 135.11 C 145.39 134.51 144.17 134.76 143.56 135.66 Z M 142.96 136.58 L 142.45 137.42 C 141.89 138.35 142.19 139.56 143.12 140.12 C 144.05 140.68 145.26 140.38 145.82 139.45 L 146.33 138.61 C 146.89 137.68 146.59 136.47 145.66 135.91 C 144.73 135.35 143.52 135.65 142.96 136.58 Z M 142.40 137.50 L 141.94 138.37 C 141.43 139.32 141.79 140.52 142.75 141.03 C 143.70 141.54 144.90 141.18 145.41 140.22 L 145.87 139.36 C 146.38 138.40 146.02 137.21 145.07 136.70 C 144.11 136.19 142.92 136.55 142.40 137.50 Z M 141.89 138.46 L 141.47 139.36 C 141.01 140.34 141.44 141.51 142.42 141.97 C 143.41 142.43 144.58 142.01 145.04 141.02 L 145.46 140.13 C 145.92 139.14 145.49 137.97 144.51 137.51 C 143.52 137.05 142.35 137.48 141.89 138.46 Z M 141.43 139.45 L 141.06 140.38 C 140.65 141.38 141.13 142.53 142.14 142.94 C 143.15 143.35 144.29 142.86 144.70 141.86 L 145.08 140.93 C 145.49 139.92 145.00 138.78 144.00 138.37 C 142.99 137.96 141.84 138.44 141.43 139.45 Z M 141.03 140.46 L 140.70 141.38 C 140.34 142.40 140.87 143.53 141.90 143.89 C 142.92 144.25 144.04 143.72 144.41 142.69 L 144.73 141.77 C 145.10 140.75 144.56 139.63 143.54 139.26 C 142.51 138.90 141.39 139.44 141.03 140.46 Z M 140.68 141.44 L 140.40 142.33 C 140.07 143.36 140.65 144.47 141.68 144.80 C 142.72 145.12 143.82 144.55 144.15 143.51 L 144.43 142.63 C 144.76 141.59 144.18 140.49 143.14 140.16 C 142.11 139.83 141.00 140.41 140.68 141.44 Z M 140.38 142.38 L 140.11 143.33 C 139.81 144.38 140.41 145.46 141.46 145.76 C 142.50 146.06 143.59 145.46 143.89 144.42 L 144.17 143.46 C 144.47 142.42 143.86 141.33 142.82 141.03 C 141.77 140.73 140.68 141.33 140.38 142.38 Z M 140.10 143.37 L 139.82 144.41 C 139.54 145.46 140.16 146.54 141.21 146.82 C 142.26 147.10 143.34 146.48 143.62 145.43 L 143.90 144.38 C 144.18 143.33 143.56 142.25 142.51 141.97 C 141.46 141.69 140.38 142.32 140.10 143.37 Z M 139.82 144.43 L 139.57 145.40 C 139.30 146.45 139.93 147.52 140.99 147.79 C 142.04 148.06 143.11 147.42 143.38 146.37 L 143.63 145.41 C 143.90 144.36 143.26 143.29 142.21 143.02 C 141.16 142.75 140.09 143.38 139.82 144.43 Z M 139.57 145.41 L 139.33 146.37 C 139.07 147.42 139.71 148.49 140.76 148.75 C 141.81 149.01 142.88 148.37 143.14 147.32 L 143.38 146.36 C 143.64 145.30 143.00 144.24 141.95 143.98 C 140.90 143.71 139.83 144.36 139.57 145.41 Z M 139.32 146.38 L 139.09 147.37 C 138.83 148.43 139.48 149.49 140.54 149.75 C 141.59 150.00 142.65 149.35 142.91 148.30 L 143.15 147.30 C 143.40 146.25 142.75 145.19 141.70 144.93 C 140.64 144.68 139.58 145.33 139.32 146.38 Z M 139.08 147.39 L 138.85 148.39 C 138.60 149.44 139.26 150.50 140.32 150.75 C 141.37 151.00 142.43 150.34 142.68 149.28 L 142.91 148.28 C 143.16 147.22 142.50 146.17 141.44 145.92 C 140.39 145.67 139.33 146.33 139.08 147.39 Z M 138.84 148.40 L 138.62 149.40 C 138.38 150.46 139.05 151.51 140.11 151.75 C 141.17 151.98 142.22 151.32 142.46 150.26 L 142.68 149.26 C 142.92 148.20 142.25 147.15 141.19 146.92 C 140.13 146.68 139.08 147.34 138.84 148.40 Z M 138.62 149.42 L 138.39 150.46 C 138.17 151.53 138.85 152.57 139.91 152.80 C 140.97 153.02 142.01 152.34 142.24 151.28 L 142.46 150.24 C 142.69 149.18 142.01 148.13 140.95 147.91 C 139.89 147.68 138.84 148.36 138.62 149.42 Z M 138.39 150.49 L 138.19 151.49 C 137.98 152.55 138.67 153.59 139.73 153.80 C 140.80 154.01 141.83 153.32 142.04 152.26 L 142.24 151.26 C 142.46 150.19 141.77 149.16 140.70 148.95 C 139.64 148.73 138.60 149.42 138.39 150.49 Z M 138.18 151.52 L 138.01 152.48 C 137.81 153.54 138.51 154.57 139.58 154.77 C 140.65 154.96 141.67 154.26 141.87 153.19 L 142.05 152.23 C 142.25 151.16 141.54 150.14 140.47 149.94 C 139.41 149.74 138.38 150.45 138.18 151.52 Z M 138.00 152.51 L 137.85 153.43 C 137.67 154.50 138.39 155.51 139.46 155.69 C 140.53 155.87 141.54 155.15 141.72 154.08 L 141.88 153.16 C 142.06 152.09 141.34 151.08 140.27 150.90 C 139.20 150.72 138.18 151.44 138.00 152.51 Z M 137.84 153.46 L 137.69 154.49 C 137.53 155.57 138.27 156.57 139.34 156.73 C 140.41 156.89 141.41 156.15 141.57 155.07 L 141.73 154.04 C 141.89 152.97 141.15 151.97 140.07 151.81 C 139.00 151.65 138.00 152.39 137.84 153.46 Z M 137.68 154.53 L 137.55 155.53 C 137.41 156.61 138.17 157.60 139.25 157.73 C 140.32 157.87 141.31 157.12 141.45 156.04 L 141.58 155.04 C 141.72 153.96 140.96 152.98 139.88 152.84 C 138.81 152.70 137.82 153.46 137.68 154.53 Z M 137.55 155.56 L 137.44 156.53 C 137.32 157.61 138.09 158.58 139.17 158.70 C 140.25 158.83 141.22 158.05 141.34 156.97 L 141.45 156.01 C 141.57 154.93 140.80 153.96 139.72 153.84 C 138.64 153.71 137.67 154.49 137.55 155.56 Z M 137.44 156.55 L 137.34 157.50 C 137.23 158.58 138.02 159.54 139.10 159.65 C 140.18 159.76 141.14 158.97 141.25 157.89 L 141.34 156.95 C 141.45 155.87 140.67 154.91 139.59 154.80 C 138.51 154.69 137.55 155.48 137.44 156.55 Z M 137.34 157.52 L 137.26 158.46 C 137.16 159.54 137.96 160.49 139.04 160.59 C 140.12 160.69 141.07 159.89 141.17 158.81 L 141.25 157.87 C 141.35 156.79 140.55 155.84 139.47 155.74 C 138.39 155.64 137.44 156.44 137.34 157.52 Z M 137.25 158.50 L 137.18 159.48 C 137.11 160.56 137.92 161.50 139.01 161.57 C 140.09 161.65 141.02 160.84 141.10 159.75 L 141.17 158.77 C 141.25 157.69 140.43 156.75 139.35 156.68 C 138.27 156.60 137.33 157.42 137.25 158.50 Z M 137.18 159.52 L 137.13 160.59 C 137.08 161.67 137.92 162.59 139.00 162.64 C 140.08 162.70 141.00 161.86 141.05 160.78 L 141.10 159.71 C 141.15 158.63 140.32 157.71 139.24 157.66 C 138.15 157.61 137.23 158.44 137.18 159.52 Z M 137.13 160.63 L 137.10 161.60 C 137.07 162.68 137.93 163.59 139.01 163.62 C 140.09 163.65 140.99 162.79 141.02 161.71 L 141.05 160.74 C 141.08 159.66 140.23 158.75 139.15 158.72 C 138.06 158.69 137.16 159.55 137.13 160.63 Z M 137.10 161.63 L 137.09 162.62 C 137.07 163.70 137.94 164.59 139.02 164.61 C 140.10 164.63 140.99 163.76 141.01 162.68 L 141.02 161.69 C 141.04 160.60 140.18 159.71 139.09 159.70 C 138.01 159.68 137.12 160.54 137.10 161.63 Z M 137.09 162.64 L 137.08 163.66 C 137.08 164.74 137.95 165.63 139.03 165.63 C 140.11 165.64 140.99 164.77 141.00 163.69 L 141.01 162.66 C 141.02 161.58 140.14 160.70 139.06 160.69 C 137.98 160.68 137.10 161.55 137.09 162.64 Z M 137.09 163.67 L 137.08 164.70 C 137.08 165.78 137.96 166.66 139.04 166.66 C 140.12 166.66 141.00 165.79 141.00 164.71 L 141.00 163.68 C 141.00 162.60 140.13 161.72 139.05 161.72 C 137.97 161.72 137.09 162.59 137.09 163.67 Z M 137.08 164.70 L 137.08 165.73 C 137.08 166.81 137.96 167.68 139.04 167.68 C 140.12 167.68 141.00 166.81 141.00 165.73 L 141.00 164.70 C 141.00 163.62 140.12 162.75 139.04 162.75 C 137.96 162.75 137.09 163.62 137.08 164.70 Z M 137.09 165.73 L 137.09 166.75 C 137.09 167.83 137.96 168.70 139.04 168.70 C 140.12 168.70 140.99 167.83 140.99 166.75 L 140.99 165.73 C 140.99 164.65 140.12 163.77 139.04 163.77 C 137.96 163.77 137.09 164.65 137.09 165.73 Z M 137.09 166.75 L 137.09 167.74 C 137.09 168.82 137.96 169.70 139.04 169.70 C 140.12 169.70 140.99 168.82 140.99 167.74 L 140.99 166.75 C 140.99 165.67 140.12 164.80 139.04 164.80 C 137.96 164.80 137.09 165.67 137.09 166.75 Z M 137.09 167.74 L 137.09 168.72 C 137.09 169.80 137.96 170.67 139.04 170.67 C 140.12 170.67 140.99 169.80 140.99 168.72 L 140.99 167.74 C 140.99 166.67 140.12 165.80 139.04 165.80 C 137.96 165.80 137.09 166.67 137.09 167.74 Z M 137.09 168.72 L 137.09 169.71 C 137.09 170.78 137.97 171.65 139.04 171.65 C 140.12 171.65 140.99 170.78 140.99 169.71 L 140.99 168.72 C 140.99 167.65 140.12 166.78 139.04 166.78 C 137.97 166.78 137.09 167.65 137.09 168.72 Z M 137.10 169.71 L 137.10 170.71 C 137.10 171.79 137.97 172.66 139.05 172.65 C 140.12 172.65 140.99 171.78 140.99 170.71 L 140.99 169.70 C 140.98 168.63 140.11 167.76 139.04 167.76 C 137.96 167.76 137.09 168.63 137.10 169.71 Z M 137.10 170.72 L 137.11 171.73 C 137.11 172.81 137.99 173.67 139.07 173.66 C 140.14 173.65 141.00 172.77 141.00 171.70 L 140.99 170.69 C 140.98 169.62 140.10 168.75 139.03 168.76 C 137.95 168.77 137.09 169.65 137.10 170.72 Z M 137.11 171.76 L 137.13 172.76 C 137.15 173.83 138.04 174.68 139.11 174.66 C 140.18 174.64 141.04 173.75 141.02 172.68 L 140.99 171.68 C 140.97 170.60 140.08 169.75 139.01 169.77 C 137.94 169.79 137.08 170.68 137.11 171.76 Z M 137.13 172.79 L 137.17 173.78 C 137.21 174.86 138.11 175.69 139.19 175.65 C 140.26 175.61 141.09 174.71 141.05 173.63 L 141.01 172.64 C 140.97 171.57 140.07 170.73 139.00 170.77 C 137.92 170.82 137.09 171.72 137.13 172.79 Z M 137.17 173.83 L 137.23 174.86 C 137.30 175.93 138.22 176.74 139.29 176.68 C 140.37 176.61 141.18 175.69 141.11 174.62 L 141.05 173.59 C 140.98 172.52 140.06 171.70 138.99 171.77 C 137.92 171.83 137.10 172.76 137.17 173.83 Z M 137.24 174.89 L 137.32 175.90 C 137.40 176.97 138.34 177.76 139.41 177.68 C 140.48 177.59 141.28 176.65 141.19 175.58 L 141.11 174.58 C 141.02 173.51 140.09 172.71 139.02 172.80 C 137.95 172.88 137.15 173.82 137.24 174.89 Z M 137.32 175.91 L 137.41 176.90 C 137.50 177.97 138.45 178.75 139.52 178.66 C 140.59 178.56 141.38 177.62 141.28 176.55 L 141.19 175.57 C 141.09 174.50 140.15 173.71 139.08 173.80 C 138.01 173.90 137.22 174.85 137.32 175.91 Z M 137.41 176.90 L 137.50 177.87 C 137.59 178.94 138.54 179.73 139.61 179.63 C 140.68 179.53 141.46 178.59 141.37 177.52 L 141.28 176.55 C 141.18 175.48 140.24 174.69 139.17 174.79 C 138.10 174.88 137.31 175.83 137.41 176.90 Z M 137.50 177.86 L 137.58 178.86 C 137.67 179.93 138.61 180.72 139.68 180.63 C 140.75 180.54 141.54 179.60 141.45 178.53 L 141.37 177.53 C 141.28 176.46 140.34 175.67 139.27 175.76 C 138.20 175.85 137.40 176.79 137.50 177.86 Z M 137.58 178.85 L 137.66 179.84 C 137.75 180.91 138.69 181.71 139.76 181.62 C 140.83 181.53 141.62 180.59 141.53 179.52 L 141.45 178.53 C 141.36 177.46 140.43 176.67 139.36 176.76 C 138.29 176.84 137.49 177.78 137.58 178.85 Z M 137.66 179.84 L 137.74 180.84 C 137.83 181.91 138.77 182.70 139.84 182.61 C 140.91 182.52 141.71 181.59 141.62 180.52 L 141.53 179.52 C 141.44 178.45 140.51 177.66 139.44 177.75 C 138.37 177.84 137.57 178.78 137.66 179.84 Z M 137.75 180.85 L 137.84 181.85 C 137.93 182.92 138.87 183.71 139.94 183.61 C 141.01 183.52 141.80 182.57 141.70 181.50 L 141.62 180.50 C 141.52 179.44 140.58 178.65 139.51 178.74 C 138.44 178.84 137.65 179.78 137.75 180.85 Z M 137.84 181.87 L 137.94 182.88 C 138.05 183.94 139.00 184.72 140.07 184.61 C 141.14 184.50 141.91 183.55 141.80 182.48 L 141.70 181.48 C 141.59 180.41 140.64 179.64 139.57 179.75 C 138.51 179.85 137.73 180.81 137.84 181.87 Z M 137.94 182.92 L 138.07 183.92 C 138.20 184.98 139.17 185.74 140.23 185.61 C 141.30 185.48 142.05 184.51 141.92 183.44 L 141.80 182.44 C 141.67 181.38 140.70 180.62 139.64 180.75 C 138.57 180.88 137.81 181.85 137.94 182.92 Z M 138.07 183.97 L 138.23 184.95 C 138.39 186.01 139.38 186.74 140.44 186.58 C 141.50 186.42 142.23 185.42 142.06 184.36 L 141.91 183.38 C 141.75 182.32 140.76 181.60 139.70 181.76 C 138.64 181.92 137.91 182.91 138.07 183.97 Z M 138.24 185.04 L 138.44 186.03 C 138.65 187.08 139.67 187.76 140.72 187.55 C 141.77 187.34 142.46 186.32 142.25 185.27 L 142.05 184.28 C 141.84 183.23 140.82 182.55 139.77 182.75 C 138.71 182.96 138.03 183.99 138.24 185.04 Z M 138.47 186.16 L 138.73 187.12 C 139.01 188.15 140.08 188.76 141.11 188.48 C 142.15 188.20 142.76 187.13 142.48 186.10 L 142.22 185.14 C 141.93 184.10 140.87 183.49 139.83 183.77 C 138.80 184.05 138.19 185.12 138.47 186.16 Z M 138.79 187.30 L 139.14 188.22 C 139.52 189.22 140.64 189.73 141.64 189.35 C 142.64 188.97 143.15 187.85 142.77 186.84 L 142.42 185.92 C 142.04 184.92 140.92 184.41 139.91 184.79 C 138.91 185.17 138.41 186.29 138.79 187.30 Z M 139.23 188.43 L 139.70 189.32 C 140.19 190.27 141.37 190.63 142.32 190.14 C 143.27 189.64 143.63 188.47 143.14 187.52 L 142.67 186.63 C 142.18 185.68 141.00 185.32 140.05 185.81 C 139.10 186.31 138.74 187.48 139.23 188.43 Z M 139.82 189.52 L 140.39 190.34 C 141.00 191.23 142.20 191.45 143.09 190.84 C 143.97 190.23 144.19 189.02 143.58 188.14 L 143.01 187.32 C 142.41 186.43 141.20 186.21 140.32 186.82 C 139.43 187.43 139.21 188.63 139.82 189.52 Z M 140.51 190.50 L 141.16 191.27 C 141.86 192.09 143.08 192.19 143.90 191.50 C 144.71 190.80 144.81 189.58 144.12 188.76 L 143.46 187.99 C 142.77 187.17 141.55 187.07 140.73 187.76 C 139.92 188.46 139.81 189.68 140.51 190.50 Z M 141.28 191.39 L 141.99 192.09 C 142.74 192.85 143.97 192.84 144.72 192.08 C 145.48 191.32 145.47 190.10 144.71 189.34 L 144.01 188.64 C 143.25 187.89 142.02 187.89 141.27 188.65 C 140.51 189.41 140.52 190.64 141.28 191.39 Z M 142.10 192.20 L 142.88 192.85 C 143.70 193.54 144.92 193.44 145.61 192.62 C 146.30 191.80 146.19 190.58 145.37 189.89 L 144.60 189.24 C 143.78 188.55 142.56 188.66 141.87 189.47 C 141.18 190.29 141.29 191.51 142.10 192.20 Z M 143.01 192.95 L 143.83 193.54 C 144.71 194.15 145.91 193.95 146.53 193.07 C 147.15 192.20 146.94 190.99 146.07 190.38 L 145.24 189.79 C 144.37 189.18 143.16 189.38 142.55 190.26 C 141.93 191.13 142.14 192.33 143.01 192.95 Z M 143.95 193.61 L 144.79 194.12 C 145.70 194.67 146.89 194.38 147.44 193.46 C 148.00 192.55 147.70 191.36 146.79 190.81 L 145.95 190.30 C 145.04 189.75 143.85 190.04 143.30 190.96 C 142.74 191.87 143.04 193.06 143.95 193.61 Z M 144.88 194.17 L 145.74 194.63 C 146.69 195.13 147.86 194.78 148.36 193.83 C 148.86 192.89 148.51 191.72 147.57 191.22 L 146.70 190.76 C 145.76 190.25 144.59 190.61 144.08 191.55 C 143.58 192.49 143.94 193.66 144.88 194.17 Z M 145.82 194.67 L 146.73 195.10 C 147.70 195.56 148.85 195.15 149.31 194.19 C 149.77 193.22 149.36 192.07 148.39 191.61 L 147.49 191.18 C 146.52 190.72 145.37 191.13 144.91 192.09 C 144.45 193.06 144.86 194.21 145.82 194.67 Z M 146.86 195.16 L 147.79 195.52 C 148.78 195.91 149.90 195.42 150.29 194.43 C 150.68 193.44 150.20 192.32 149.20 191.92 L 148.27 191.56 C 147.28 191.17 146.16 191.66 145.77 192.65 C 145.37 193.64 145.86 194.76 146.86 195.16 Z M 147.97 195.58 L 148.92 195.85 C 149.95 196.14 151.01 195.55 151.31 194.52 C 151.60 193.50 151.00 192.43 149.98 192.13 L 149.02 191.86 C 148.00 191.57 146.93 192.17 146.64 193.20 C 146.34 194.22 146.94 195.29 147.97 195.58 Z M 149.13 195.90 L 150.12 196.06 C 151.17 196.24 152.17 195.52 152.34 194.47 C 152.51 193.42 151.80 192.42 150.75 192.25 L 149.76 192.09 C 148.71 191.91 147.71 192.63 147.54 193.68 C 147.37 194.73 148.08 195.73 149.13 195.90 Z M 150.28 196.08 L 151.28 196.16 C 152.34 196.24 153.27 195.45 153.36 194.39 C 153.44 193.32 152.64 192.39 151.58 192.31 L 150.59 192.23 C 149.52 192.15 148.59 192.94 148.51 194.01 C 148.42 195.07 149.22 196.00 150.28 196.08 Z M 151.37 196.17 L 152.37 196.20 C 153.43 196.23 154.33 195.39 154.36 194.33 C 154.39 193.26 153.55 192.37 152.49 192.33 L 151.49 192.30 C 150.42 192.27 149.53 193.11 149.50 194.17 C 149.46 195.24 150.30 196.13 151.37 196.17 Z M 152.40 196.20 L 153.39 196.21 C 154.46 196.23 155.34 195.37 155.35 194.31 C 155.37 193.24 154.52 192.36 153.45 192.35 L 152.45 192.33 C 151.39 192.32 150.51 193.17 150.49 194.24 C 150.48 195.31 151.33 196.18 152.40 196.20 Z M 153.41 196.21 L 154.41 196.22 C 155.48 196.22 156.35 195.36 156.35 194.29 C 156.36 193.23 155.50 192.36 154.43 192.35 L 153.43 192.35 C 152.36 192.34 151.49 193.20 151.49 194.27 C 151.48 195.34 152.34 196.21 153.41 196.21 Z M 154.42 196.22 L 155.43 196.22 C 156.49 196.22 157.36 195.35 157.36 194.29 C 157.36 193.22 156.50 192.35 155.43 192.35 L 154.42 192.35 C 153.35 192.35 152.49 193.22 152.49 194.28 C 152.49 195.35 153.35 196.22 154.42 196.22 Z M 155.43 196.22 L 156.41 196.22 C 157.47 196.22 158.34 195.35 158.34 194.29 C 158.34 193.22 157.47 192.35 156.41 192.35 L 155.43 192.35 C 154.36 192.35 153.49 193.22 153.49 194.29 C 153.49 195.35 154.36 196.22 155.43 196.22 Z M 156.41 196.22 L 157.40 196.22 C 158.47 196.22 159.34 195.35 159.34 194.29 C 159.34 193.22 158.47 192.35 157.40 192.35 L 156.41 192.35 C 155.34 192.35 154.47 193.22 154.47 194.29 C 154.47 195.35 155.34 196.22 156.41 196.22 Z M 157.40 196.22 L 158.42 196.22 C 159.49 196.22 160.36 195.36 160.36 194.29 C 160.36 193.21 159.49 192.35 158.42 192.35 L 157.40 192.35 C 156.33 192.35 155.46 193.21 155.46 194.29 C 155.46 195.36 156.33 196.22 157.40 196.22 Z M 158.42 196.23 L 159.41 196.23 C 160.49 196.23 161.35 195.36 161.35 194.29 C 161.35 193.21 160.49 192.34 159.41 192.34 L 158.42 192.34 C 157.35 192.34 156.48 193.21 156.48 194.29 C 156.48 195.36 157.35 196.23 158.42 196.23 Z M 159.41 196.23 L 160.41 196.23 C 161.48 196.23 162.35 195.36 162.35 194.29 C 162.35 193.21 161.48 192.34 160.41 192.34 L 159.41 192.34 C 158.34 192.34 157.47 193.21 157.47 194.29 C 157.47 195.36 158.34 196.23 159.41 196.23 Z M 160.41 196.23 L 161.42 196.23 C 162.49 196.23 163.36 195.36 163.36 194.29 C 163.36 193.21 162.49 192.34 161.42 192.34 L 160.41 192.34 C 159.34 192.34 158.47 193.21 158.47 194.29 C 158.47 195.36 159.34 196.23 160.41 196.23 Z M 161.42 196.23 L 162.43 196.23 C 163.50 196.23 164.37 195.36 164.37 194.29 C 164.37 193.21 163.50 192.34 162.43 192.34 L 161.42 192.34 C 160.35 192.34 159.48 193.21 159.48 194.29 C 159.48 195.36 160.35 196.23 161.42 196.23 Z M 162.43 196.23 L 163.44 196.23 C 164.51 196.23 165.38 195.36 165.38 194.29 C 165.38 193.21 164.51 192.34 163.44 192.34 L 162.43 192.34 C 161.36 192.34 160.49 193.21 160.49 194.29 C 160.49 195.36 161.36 196.23 162.43 196.23 Z M 163.44 196.23 L 164.44 196.23 C 165.51 196.23 166.38 195.36 166.38 194.29 C 166.38 193.21 165.51 192.34 164.44 192.34 L 163.44 192.34 C 162.36 192.34 161.49 193.21 161.49 194.29 C 161.49 195.36 162.36 196.23 163.44 196.23 Z M 164.44 196.23 L 165.43 196.23 C 166.50 196.23 167.37 195.36 167.37 194.29 C 167.37 193.21 166.50 192.34 165.43 192.34 L 164.44 192.34 C 163.36 192.34 162.49 193.21 162.49 194.29 C 162.49 195.36 163.36 196.23 164.44 196.23 Z M 165.42 196.23 L 166.44 196.24 C 167.52 196.24 168.39 195.38 168.40 194.30 C 168.41 193.22 167.54 192.35 166.46 192.34 L 165.44 192.34 C 164.36 192.33 163.49 193.20 163.48 194.28 C 163.47 195.35 164.34 196.23 165.42 196.23 Z M 166.38 196.24 L 167.38 196.28 C 168.46 196.32 169.37 195.47 169.41 194.40 C 169.44 193.32 168.60 192.41 167.52 192.37 L 166.52 192.34 C 165.44 192.30 164.54 193.14 164.50 194.22 C 164.46 195.30 165.30 196.20 166.38 196.24 Z M 167.26 196.27 L 168.24 196.37 C 169.31 196.48 170.27 195.69 170.38 194.62 C 170.48 193.54 169.70 192.58 168.62 192.48 L 167.65 192.38 C 166.57 192.27 165.61 193.06 165.51 194.13 C 165.40 195.21 166.19 196.17 167.26 196.27 Z M 168.05 196.35 L 169.03 196.54 C 170.09 196.75 171.12 196.06 171.33 194.99 C 171.54 193.93 170.85 192.90 169.79 192.69 L 168.81 192.50 C 167.75 192.29 166.72 192.98 166.51 194.04 C 166.30 195.11 166.99 196.14 168.05 196.35 Z M 168.85 196.49 L 169.81 196.78 C 170.85 197.09 171.94 196.50 172.25 195.46 C 172.55 194.42 171.96 193.33 170.93 193.02 L 169.97 192.74 C 168.93 192.43 167.84 193.02 167.53 194.06 C 167.22 195.09 167.81 196.19 168.85 196.49 Z M 169.68 196.74 L 170.61 197.09 C 171.63 197.46 172.76 196.95 173.13 195.94 C 173.51 194.92 173.00 193.79 171.99 193.41 L 171.05 193.06 C 170.04 192.69 168.91 193.20 168.53 194.21 C 168.15 195.23 168.67 196.36 169.68 196.74 Z M 170.53 197.05 L 171.44 197.44 C 172.44 197.86 173.59 197.40 174.01 196.40 C 174.44 195.40 173.97 194.25 172.97 193.83 L 172.06 193.44 C 171.07 193.02 169.92 193.49 169.49 194.48 C 169.07 195.48 169.54 196.63 170.53 197.05 Z M 171.38 197.41 L 172.27 197.83 C 173.26 198.29 174.42 197.87 174.88 196.89 C 175.34 195.90 174.92 194.74 173.94 194.28 L 173.04 193.86 C 172.06 193.40 170.89 193.82 170.43 194.80 C 169.97 195.78 170.40 196.95 171.38 197.41 Z M 172.19 197.79 L 173.08 198.26 C 174.04 198.76 175.23 198.39 175.73 197.43 C 176.24 196.48 175.87 195.29 174.91 194.79 L 174.02 194.32 C 173.06 193.81 171.87 194.18 171.37 195.14 C 170.87 196.10 171.23 197.29 172.19 197.79 Z M 172.99 198.21 L 173.86 198.72 C 174.79 199.28 176.00 198.97 176.55 198.04 C 177.10 197.11 176.80 195.91 175.87 195.35 L 175.00 194.84 C 174.07 194.28 172.86 194.59 172.31 195.52 C 171.76 196.45 172.06 197.65 172.99 198.21 Z M 173.76 198.66 L 174.59 199.22 C 175.48 199.84 176.70 199.61 177.31 198.71 C 177.92 197.82 177.69 196.60 176.80 195.99 L 175.97 195.42 C 175.08 194.81 173.86 195.04 173.24 195.93 C 172.63 196.82 172.86 198.05 173.76 198.66 Z M 174.45 199.13 L 175.23 199.76 C 176.07 200.44 177.31 200.32 177.99 199.48 C 178.68 198.64 178.55 197.40 177.71 196.72 L 176.93 196.08 C 176.09 195.40 174.85 195.53 174.17 196.37 C 173.49 197.21 173.61 198.44 174.45 199.13 Z M 175.08 199.62 L 175.77 200.32 C 176.53 201.09 177.78 201.10 178.55 200.34 C 179.32 199.58 179.33 198.34 178.56 197.57 L 177.87 196.86 C 177.11 196.09 175.86 196.08 175.09 196.84 C 174.32 197.60 174.31 198.85 175.08 199.62 Z M 175.60 200.12 L 176.19 200.91 C 176.84 201.78 178.07 201.95 178.93 201.31 C 179.80 200.66 179.98 199.43 179.33 198.56 L 178.74 197.77 C 178.09 196.90 176.86 196.72 175.99 197.37 C 175.13 198.02 174.95 199.25 175.60 200.12 Z M 176.03 200.65 L 176.49 201.53 C 177.00 202.49 178.19 202.85 179.14 202.34 C 180.10 201.83 180.46 200.65 179.96 199.69 L 179.49 198.81 C 178.98 197.86 177.80 197.49 176.84 198.00 C 175.88 198.51 175.52 199.70 176.03 200.65 Z M 176.36 201.23 L 176.69 202.20 C 177.03 203.23 178.15 203.78 179.17 203.43 C 180.20 203.09 180.75 201.98 180.41 200.95 L 180.08 199.98 C 179.74 198.96 178.62 198.40 177.60 198.75 C 176.57 199.09 176.02 200.21 176.36 201.23 Z M 176.62 201.92 L 176.79 202.88 C 176.98 203.95 177.99 204.66 179.06 204.47 C 180.13 204.28 180.84 203.26 180.65 202.20 L 180.48 201.23 C 180.29 200.17 179.27 199.45 178.21 199.64 C 177.14 199.83 176.43 200.85 176.62 201.92 Z M 176.76 202.66 L 176.83 203.67 C 176.90 204.75 177.83 205.57 178.91 205.50 C 179.99 205.43 180.81 204.50 180.74 203.42 L 180.68 202.41 C 180.61 201.33 179.67 200.51 178.59 200.58 C 177.51 200.65 176.69 201.58 176.76 202.66 Z M 176.82 203.50 L 176.80 204.52 C 176.78 205.60 177.64 206.50 178.72 206.52 C 179.81 206.54 180.70 205.68 180.72 204.60 L 180.74 203.58 C 180.77 202.50 179.91 201.60 178.82 201.58 C 177.74 201.56 176.84 202.42 176.82 203.50 Z M 176.81 204.39 L 176.72 205.40 C 176.63 206.48 177.43 207.43 178.50 207.53 C 179.58 207.62 180.53 206.82 180.63 205.74 L 180.71 204.73 C 180.81 203.65 180.01 202.70 178.93 202.61 C 177.86 202.51 176.91 203.31 176.81 204.39 Z M 176.75 205.26 L 176.59 206.27 C 176.42 207.34 177.14 208.34 178.20 208.51 C 179.26 208.68 180.26 207.96 180.43 206.90 L 180.60 205.89 C 180.77 204.82 180.05 203.82 178.99 203.65 C 177.92 203.48 176.92 204.20 176.75 205.26 Z M 176.64 206.07 L 176.39 207.02 C 176.10 208.05 176.71 209.12 177.74 209.40 C 178.77 209.68 179.84 209.07 180.12 208.04 L 180.38 207.09 C 180.66 206.06 180.05 205.00 179.02 204.72 C 177.99 204.44 176.93 205.04 176.64 206.07 Z M 176.49 206.78 L 176.11 207.67 C 175.69 208.64 176.14 209.77 177.11 210.19 C 178.09 210.60 179.22 210.15 179.64 209.18 L 180.02 208.29 C 180.43 207.32 179.98 206.19 179.01 205.77 C 178.03 205.35 176.90 205.80 176.49 206.78 Z M 176.26 207.43 L 175.74 208.26 C 175.19 209.15 175.47 210.32 176.36 210.87 C 177.25 211.42 178.42 211.14 178.97 210.25 L 179.48 209.42 C 180.03 208.53 179.76 207.36 178.87 206.81 C 177.98 206.26 176.81 206.54 176.26 207.43 Z M 175.88 208.11 L 175.27 208.90 C 174.64 209.72 174.79 210.89 175.60 211.52 C 176.42 212.15 177.59 212.00 178.22 211.19 L 178.83 210.39 C 179.46 209.58 179.31 208.41 178.50 207.78 C 177.68 207.15 176.51 207.30 175.88 208.11 Z M 175.36 208.84 L 174.70 209.61 C 174.03 210.37 174.11 211.53 174.88 212.19 C 175.64 212.86 176.80 212.78 177.46 212.01 L 178.13 211.24 C 178.79 210.48 178.71 209.33 177.95 208.66 C 177.18 208.00 176.03 208.08 175.36 208.84 Z M 174.73 209.61 L 174.56 209.79 C 173.89 210.54 173.96 211.68 174.70 212.35 C 175.45 213.02 176.59 212.95 177.26 212.21 L 177.43 212.02 C 178.09 211.27 178.03 210.13 177.28 209.46 C 176.54 208.80 175.39 208.86 174.73 209.61 Z"
      fill="black"
      fill-rule="nonzero" /></svg>