<svg xmlns="http://www.w3.org/2000/svg" width="300" height="300" viewBox="0 0 300 300">
<path d="M 190.51 123.27 L 189.57 122.98 C 188.59 122.68 187.56 123.22 187.26 124.20 C 186.96 125.17 187.50 126.21 188.48 126.51 L 189.42 126.80 C 190.40 127.10 191.43 126.56 191.73 125.58 C 192.03 124.61 191.49 123.57 190.51 123.27 Z M 189.48 122.95 L 188.52 122.70 C 187.53 122.44 186.52 123.04 186.26 124.03 C 186.01 125.03 186.61 126.04 187.60 126.29 L 188.56 126.54 C 189.55 126.79 190.56 126.20 190.82 125.21 C 191.07 124.21 190.48 123.20 189.48 122.95 Z M 188.35 122.66 L 187.35 122.50 C 186.34 122.34 185.38 123.03 185.22 124.05 C 185.06 125.06 185.75 126.01 186.77 126.17 L 187.77 126.33 C 188.78 126.49 189.74 125.80 189.90 124.79 C 190.06 123.77 189.37 122.82 188.35 122.66 Z M 187.14 122.47 L 186.21 122.44 C 185.18 122.39 184.31 123.20 184.27 124.22 C 184.23 125.25 185.03 126.12 186.06 126.16 L 186.98 126.20 C 188.01 126.24 188.88 125.44 188.92 124.41 C 188.96 123.38 188.16 122.52 187.14 122.47 Z M 186.06 122.44 L 185.09 122.48 C 184.06 122.52 183.26 123.39 183.31 124.42 C 183.35 125.45 184.22 126.25 185.25 126.21 L 186.22 126.16 C 187.25 126.12 188.05 125.25 188.00 124.22 C 187.96 123.19 187.09 122.39 186.06 122.44 Z M 185.01 122.48 L 183.97 122.57 C 182.95 122.66 182.19 123.57 182.28 124.59 C 182.37 125.62 183.27 126.38 184.30 126.29 L 185.33 126.20 C 186.36 126.11 187.12 125.21 187.03 124.18 C 186.94 123.15 186.04 122.39 185.01 122.48 Z M 183.95 122.57 L 182.95 122.67 C 181.92 122.77 181.17 123.69 181.27 124.71 C 181.37 125.74 182.29 126.49 183.32 126.39 L 184.32 126.29 C 185.35 126.19 186.10 125.28 186.00 124.25 C 185.90 123.22 184.98 122.47 183.95 122.57 Z M 182.96 122.67 L 182.11 122.75 C 181.09 122.84 180.33 123.76 180.43 124.78 C 180.52 125.81 181.43 126.57 182.46 126.47 L 183.31 126.39 C 184.33 126.30 185.09 125.39 184.99 124.36 C 184.90 123.33 183.99 122.57 182.96 122.67 Z M 182.13 122.75 L 181.21 122.83 C 180.18 122.91 179.42 123.82 179.51 124.85 C 179.59 125.88 180.50 126.64 181.53 126.55 L 182.45 126.47 C 183.48 126.38 184.24 125.48 184.15 124.45 C 184.06 123.42 183.16 122.66 182.13 122.75 Z M 181.22 122.82 L 180.22 122.90 C 179.19 122.98 178.42 123.88 178.50 124.91 C 178.58 125.94 179.48 126.71 180.51 126.63 L 181.51 126.55 C 182.54 126.47 183.31 125.57 183.23 124.54 C 183.15 123.51 182.25 122.74 181.22 122.82 Z M 180.23 122.90 L 179.11 122.98 C 178.08 123.05 177.31 123.95 177.38 124.98 C 177.45 126.01 178.35 126.79 179.38 126.71 L 180.49 126.63 C 181.52 126.56 182.30 125.67 182.23 124.64 C 182.16 123.60 181.26 122.83 180.23 122.90 Z M 179.13 122.98 L 177.98 123.05 C 176.95 123.12 176.16 124.01 176.23 125.04 C 176.30 126.07 177.19 126.85 178.22 126.79 L 179.36 126.71 C 180.40 126.65 181.18 125.76 181.11 124.73 C 181.05 123.70 180.16 122.91 179.13 122.98 Z M 177.99 123.05 L 177.00 123.11 C 175.97 123.17 175.18 124.05 175.24 125.09 C 175.30 126.12 176.18 126.91 177.22 126.85 L 178.21 126.79 C 179.24 126.73 180.03 125.84 179.97 124.81 C 179.91 123.78 179.02 122.99 177.99 123.05 Z M 177.00 123.10 L 175.97 123.16 C 174.94 123.22 174.14 124.10 174.20 125.14 C 174.26 126.17 175.14 126.96 176.18 126.91 L 177.21 126.85 C 178.25 126.79 179.04 125.91 178.98 124.87 C 178.92 123.84 178.04 123.05 177.00 123.10 Z M 175.97 123.16 L 174.92 123.22 C 173.89 123.27 173.09 124.16 173.15 125.19 C 173.20 126.23 174.09 127.02 175.12 126.97 L 176.17 126.91 C 177.21 126.85 178.00 125.97 177.95 124.93 C 177.89 123.90 177.01 123.11 175.97 123.16 Z M 174.92 123.22 L 173.88 123.27 C 172.85 123.33 172.05 124.21 172.10 125.25 C 172.16 126.28 173.04 127.08 174.08 127.02 L 175.12 126.97 C 176.16 126.91 176.95 126.03 176.90 124.99 C 176.84 123.96 175.96 123.16 174.92 123.22 Z M 173.88 123.27 L 172.87 123.32 C 171.84 123.38 171.04 124.26 171.10 125.30 C 171.15 126.34 172.04 127.13 173.07 127.08 L 174.08 127.02 C 175.12 126.97 175.91 126.08 175.86 125.05 C 175.80 124.01 174.92 123.21 173.88 123.27 Z M 172.87 123.32 L 171.93 123.37 C 170.89 123.43 170.09 124.32 170.15 125.35 C 170.21 126.39 171.09 127.19 172.13 127.13 L 173.08 127.08 C 174.11 127.02 174.91 126.14 174.85 125.10 C 174.80 124.06 173.91 123.27 172.87 123.32 Z M 171.92 123.37 L 170.85 123.43 C 169.81 123.49 169.02 124.38 169.08 125.42 C 169.14 126.46 170.03 127.25 171.07 127.19 L 172.14 127.13 C 173.17 127.07 173.97 126.18 173.91 125.14 C 173.85 124.11 172.96 123.31 171.92 123.37 Z M 170.84 123.43 L 169.69 123.50 C 168.65 123.57 167.86 124.46 167.93 125.50 C 167.99 126.54 168.89 127.33 169.92 127.26 L 171.08 127.19 C 172.11 127.13 172.90 126.23 172.84 125.20 C 172.78 124.16 171.88 123.37 170.84 123.43 Z M 169.69 123.50 L 168.71 123.57 C 167.67 123.63 166.88 124.53 166.95 125.57 C 167.02 126.61 167.91 127.39 168.95 127.33 L 169.93 127.26 C 170.97 127.20 171.76 126.30 171.69 125.26 C 171.62 124.22 170.73 123.43 169.69 123.50 Z M 168.71 123.56 L 167.84 123.62 C 166.80 123.69 166.01 124.58 166.08 125.62 C 166.14 126.66 167.04 127.45 168.08 127.38 L 168.95 127.33 C 169.99 127.26 170.78 126.36 170.71 125.32 C 170.64 124.29 169.75 123.50 168.71 123.56 Z M 167.85 123.62 L 166.99 123.67 C 165.95 123.73 165.16 124.62 165.22 125.66 C 165.28 126.71 166.17 127.50 167.21 127.44 L 168.07 127.39 C 169.11 127.32 169.90 126.43 169.84 125.39 C 169.78 124.35 168.89 123.56 167.85 123.62 Z M 167.00 123.67 L 165.99 123.72 C 164.95 123.78 164.15 124.66 164.20 125.71 C 164.26 126.75 165.15 127.55 166.19 127.49 L 167.20 127.44 C 168.24 127.38 169.04 126.50 168.99 125.45 C 168.93 124.41 168.04 123.61 167.00 123.67 Z M 165.98 123.72 L 164.97 123.78 C 163.93 123.84 163.14 124.73 163.20 125.77 C 163.26 126.81 164.15 127.61 165.19 127.55 L 166.19 127.49 C 167.24 127.43 168.03 126.54 167.97 125.50 C 167.91 124.46 167.02 123.66 165.98 123.72 Z M 164.94 123.78 L 163.96 123.85 C 162.92 123.93 162.14 124.84 162.22 125.88 C 162.29 126.92 163.20 127.70 164.24 127.62 L 165.22 127.55 C 166.26 127.47 167.04 126.56 166.96 125.52 C 166.89 124.48 165.98 123.70 164.94 123.78 Z M 163.89 123.86 L 162.88 123.97 C 161.85 124.08 161.10 125.02 161.21 126.05 C 161.32 127.09 162.26 127.84 163.29 127.72 L 164.30 127.61 C 165.34 127.50 166.09 126.57 165.98 125.53 C 165.86 124.49 164.93 123.75 163.89 123.86 Z M 162.79 123.98 L 161.79 124.14 C 160.76 124.31 160.06 125.27 160.23 126.30 C 160.39 127.33 161.36 128.04 162.39 127.87 L 163.39 127.71 C 164.42 127.55 165.12 126.58 164.95 125.55 C 164.79 124.52 163.82 123.82 162.79 123.98 Z M 161.68 124.16 L 160.73 124.38 C 159.71 124.60 159.07 125.61 159.29 126.63 C 159.52 127.65 160.53 128.29 161.55 128.06 L 162.50 127.85 C 163.52 127.62 164.16 126.61 163.94 125.59 C 163.71 124.58 162.70 123.94 161.68 124.16 Z M 160.60 124.41 L 159.66 124.69 C 158.66 124.99 158.09 126.04 158.39 127.04 C 158.69 128.04 159.74 128.61 160.74 128.31 L 161.68 128.03 C 162.68 127.73 163.25 126.68 162.95 125.68 C 162.65 124.68 161.60 124.11 160.60 124.41 Z M 159.52 124.74 L 158.59 125.09 C 157.62 125.47 157.13 126.56 157.51 127.53 C 157.88 128.51 158.97 128.99 159.94 128.62 L 160.87 128.26 C 161.85 127.89 162.33 126.80 161.96 125.82 C 161.59 124.85 160.50 124.36 159.52 124.74 Z M 158.47 125.15 L 157.56 125.57 C 156.61 126.02 156.21 127.14 156.65 128.09 C 157.10 129.03 158.22 129.44 159.17 128.99 L 160.07 128.56 C 161.02 128.12 161.42 127.00 160.98 126.05 C 160.53 125.11 159.41 124.70 158.47 125.15 Z M 157.44 125.63 L 156.59 126.11 C 155.68 126.61 155.36 127.76 155.86 128.67 C 156.37 129.59 157.52 129.91 158.43 129.40 L 159.28 128.93 C 160.19 128.42 160.52 127.27 160.01 126.36 C 159.50 125.45 158.35 125.13 157.44 125.63 Z M 156.48 126.18 L 155.68 126.70 C 154.81 127.27 154.57 128.44 155.14 129.31 C 155.71 130.18 156.88 130.43 157.75 129.86 L 158.55 129.33 C 159.42 128.76 159.67 127.59 159.09 126.72 C 158.52 125.85 157.35 125.60 156.48 126.18 Z M 155.56 126.79 L 154.76 127.41 C 153.94 128.05 153.80 129.23 154.44 130.06 C 155.08 130.88 156.27 131.03 157.09 130.38 L 157.88 129.77 C 158.70 129.12 158.85 127.94 158.21 127.11 C 157.57 126.29 156.38 126.15 155.56 126.79 Z M 154.64 127.51 L 153.85 128.24 C 153.09 128.95 153.05 130.15 153.76 130.91 C 154.47 131.68 155.66 131.72 156.43 131.01 L 157.21 130.28 C 157.98 129.57 158.02 128.37 157.31 127.61 C 156.60 126.84 155.40 126.80 154.64 127.51 Z M 153.75 128.34 L 153.09 129.06 C 152.38 129.83 152.43 131.02 153.20 131.73 C 153.96 132.44 155.16 132.39 155.87 131.62 L 156.53 130.91 C 157.24 130.14 157.19 128.95 156.42 128.24 C 155.66 127.53 154.46 127.58 153.75 128.34 Z M 153.02 129.15 L 152.37 129.93 C 151.72 130.74 151.84 131.93 152.64 132.59 C 153.45 133.25 154.64 133.13 155.30 132.32 L 155.94 131.54 C 156.60 130.73 156.48 129.54 155.67 128.88 C 154.87 128.22 153.68 128.34 153.02 129.15 Z M 152.31 130.02 L 151.71 130.85 C 151.10 131.70 151.29 132.88 152.14 133.49 C 152.98 134.10 154.16 133.91 154.77 133.06 L 155.37 132.23 C 155.98 131.39 155.79 130.21 154.94 129.60 C 154.10 128.99 152.92 129.18 152.31 130.02 Z M 151.64 130.95 L 151.11 131.79 C 150.56 132.68 150.82 133.84 151.71 134.40 C 152.59 134.95 153.76 134.69 154.31 133.80 L 154.84 132.96 C 155.39 132.08 155.13 130.91 154.24 130.36 C 153.36 129.80 152.20 130.07 151.64 130.95 Z M 151.04 131.92 L 150.58 132.80 C 150.09 133.72 150.45 134.86 151.37 135.35 C 152.29 135.83 153.43 135.48 153.92 134.56 L 154.38 133.68 C 154.87 132.76 154.51 131.61 153.59 131.13 C 152.67 130.64 151.53 131.00 151.04 131.92 Z M 150.51 132.93 L 150.13 133.82 C 149.72 134.78 150.16 135.89 151.12 136.30 C 152.08 136.71 153.19 136.27 153.60 135.31 L 153.98 134.42 C 154.40 133.46 153.95 132.35 152.99 131.94 C 152.04 131.53 150.93 131.97 150.51 132.93 Z M 150.08 133.94 L 149.76 134.88 C 149.41 135.86 149.93 136.94 150.92 137.29 C 151.90 137.63 152.98 137.11 153.32 136.13 L 153.65 135.19 C 153.99 134.21 153.47 133.13 152.49 132.78 C 151.51 132.44 150.43 132.96 150.08 133.94 Z M 149.73 134.97 L 149.44 135.97 C 149.14 136.97 149.72 138.02 150.72 138.32 C 151.72 138.61 152.77 138.03 153.06 137.03 L 153.35 136.03 C 153.65 135.03 153.07 133.98 152.07 133.69 C 151.07 133.40 150.02 133.97 149.73 134.97 Z M 149.42 136.03 L 149.18 136.96 C 148.92 137.97 149.52 139.00 150.53 139.26 C 151.54 139.52 152.57 138.92 152.84 137.91 L 153.08 136.98 C 153.34 135.97 152.73 134.94 151.72 134.67 C 150.71 134.41 149.68 135.02 149.42 136.03 Z M 149.17 137.00 L 148.94 137.98 C 148.70 139.00 149.33 140.01 150.34 140.25 C 151.36 140.49 152.38 139.86 152.61 138.85 L 152.84 137.87 C 153.08 136.85 152.45 135.83 151.44 135.60 C 150.42 135.36 149.41 135.99 149.17 137.00 Z M 148.93 138.02 L 148.72 139.02 C 148.50 140.04 149.15 141.04 150.16 141.26 C 151.18 141.48 152.19 140.83 152.41 139.81 L 152.62 138.81 C 152.84 137.79 152.19 136.79 151.17 136.57 C 150.15 136.35 149.15 137.00 148.93 138.02 Z M 148.71 139.05 L 148.51 140.05 C 148.31 141.07 148.98 142.06 150.00 142.26 C 151.02 142.47 152.02 141.80 152.22 140.78 L 152.41 139.78 C 152.62 138.76 151.95 137.76 150.93 137.56 C 149.90 137.36 148.91 138.03 148.71 139.05 Z M 148.51 140.08 L 148.33 141.07 C 148.15 142.09 148.83 143.07 149.85 143.26 C 150.88 143.44 151.86 142.76 152.05 141.73 L 152.22 140.74 C 152.41 139.72 151.72 138.74 150.70 138.55 C 149.67 138.37 148.69 139.05 148.51 140.08 Z M 148.32 141.10 L 148.17 142.08 C 148.00 143.11 148.70 144.08 149.73 144.25 C 150.76 144.41 151.73 143.71 151.89 142.68 L 152.05 141.70 C 152.22 140.67 151.52 139.70 150.49 139.54 C 149.46 139.37 148.49 140.07 148.32 141.10 Z M 148.16 142.11 L 148.02 143.08 C 147.87 144.11 148.59 145.07 149.62 145.22 C 150.65 145.37 151.61 144.65 151.76 143.62 L 151.90 142.65 C 152.05 141.62 151.33 140.66 150.30 140.51 C 149.27 140.37 148.31 141.08 148.16 142.11 Z M 148.02 143.11 L 147.89 144.09 C 147.76 145.13 148.49 146.07 149.52 146.21 C 150.55 146.34 151.50 145.61 151.63 144.58 L 151.76 143.59 C 151.89 142.56 151.17 141.62 150.13 141.48 C 149.10 141.35 148.15 142.08 148.02 143.11 Z M 147.89 144.11 L 147.77 145.12 C 147.64 146.15 148.38 147.09 149.42 147.22 C 150.45 147.34 151.39 146.60 151.51 145.57 L 151.63 144.56 C 151.76 143.52 151.02 142.59 149.98 142.46 C 148.95 142.34 148.01 143.08 147.89 144.11 Z M 147.77 145.13 L 147.67 146.02 C 147.55 147.06 148.30 147.99 149.33 148.11 C 150.37 148.22 151.30 147.48 151.42 146.44 L 151.52 145.55 C 151.63 144.52 150.89 143.58 149.85 143.47 C 148.82 143.35 147.88 144.10 147.77 145.13 Z M 147.67 146.04 L 147.57 146.98 C 147.47 148.01 148.22 148.94 149.26 149.04 C 150.29 149.15 151.22 148.39 151.32 147.36 L 151.42 146.42 C 151.52 145.39 150.77 144.46 149.73 144.36 C 148.70 144.25 147.77 145.01 147.67 146.04 Z M 147.57 147.00 L 147.48 147.99 C 147.39 149.02 148.16 149.94 149.19 150.03 C 150.23 150.12 151.14 149.36 151.23 148.32 L 151.32 147.33 C 151.41 146.30 150.65 145.38 149.61 145.29 C 148.58 145.20 147.66 145.96 147.57 147.00 Z M 147.48 148.02 L 147.41 149.06 C 147.33 150.10 148.11 151.00 149.14 151.07 C 150.18 151.15 151.08 150.37 151.16 149.34 L 151.23 148.29 C 151.31 147.26 150.53 146.36 149.50 146.28 C 148.46 146.20 147.56 146.98 147.48 148.02 Z M 147.41 149.09 L 147.34 150.20 C 147.28 151.23 148.08 152.12 149.11 152.18 C 150.15 152.24 151.04 151.45 151.10 150.41 L 151.16 149.31 C 151.22 148.27 150.42 147.38 149.39 147.32 C 148.35 147.26 147.46 148.06 147.41 149.09 Z M 147.34 150.23 L 147.30 151.25 C 147.26 152.28 148.07 153.16 149.10 153.20 C 150.14 153.24 151.01 152.43 151.06 151.40 L 151.10 150.38 C 151.14 149.34 150.33 148.47 149.29 148.43 C 148.26 148.39 147.38 149.19 147.34 150.23 Z M 147.30 151.27 L 147.28 152.29 C 147.25 153.32 148.07 154.19 149.10 154.21 C 150.14 154.24 151.00 153.42 151.03 152.38 L 151.06 151.37 C 151.08 150.33 150.26 149.47 149.23 149.45 C 148.19 149.42 147.33 150.24 147.30 151.27 Z M 147.28 152.31 L 147.26 153.34 C 147.25 154.37 148.07 155.22 149.11 155.24 C 150.14 155.26 151.00 154.43 151.01 153.39 L 151.03 152.36 C 151.04 151.33 150.22 150.48 149.18 150.46 C 148.15 150.44 147.29 151.27 147.28 152.31 Z M 147.26 153.35 L 147.25 154.38 C 147.25 155.41 148.08 156.26 149.12 156.27 C 150.15 156.27 151.00 155.44 151.01 154.40 L 151.01 153.38 C 151.02 152.34 150.19 151.50 149.15 151.49 C 148.11 151.48 147.27 152.32 147.26 153.35 Z M 147.26 154.39 L 147.26 155.40 C 147.26 156.43 148.10 157.27 149.13 157.27 C 150.17 157.27 151.01 156.43 151.01 155.40 L 151.00 154.39 C 151.00 153.35 150.16 152.52 149.13 152.52 C 148.09 152.52 147.26 153.36 147.26 154.39 Z M 147.26 155.41 L 147.26 156.38 C 147.27 157.42 148.11 158.25 149.15 158.24 C 150.18 158.24 151.02 157.39 151.01 156.36 L 151.00 155.39 C 151.00 154.35 150.15 153.52 149.12 153.52 C 148.08 153.53 147.25 154.38 147.26 155.41 Z M 147.26 156.39 L 147.28 157.43 C 147.29 158.46 148.14 159.29 149.17 159.28 C 150.21 159.27 151.03 158.42 151.02 157.38 L 151.01 156.35 C 151.00 155.31 150.15 154.48 149.11 154.50 C 148.08 154.51 147.25 155.36 147.26 156.39 Z M 147.28 157.45 L 147.30 158.53 C 147.33 159.56 148.18 160.38 149.21 160.36 C 150.25 160.34 151.07 159.48 151.04 158.45 L 151.02 157.37 C 151.00 156.33 150.14 155.51 149.11 155.54 C 148.08 155.56 147.26 156.41 147.28 157.45 Z M 147.31 158.57 L 147.35 159.58 C 147.39 160.61 148.26 161.41 149.29 161.37 C 150.33 161.32 151.13 160.45 151.08 159.42 L 151.04 158.41 C 151.00 157.38 150.13 156.58 149.09 156.62 C 148.06 156.67 147.26 157.54 147.31 158.57 Z M 147.35 159.64 L 147.42 160.59 C 147.50 161.62 148.40 162.39 149.42 162.31 C 150.45 162.23 151.22 161.34 151.15 160.31 L 151.08 159.36 C 151.00 158.33 150.11 157.56 149.08 157.64 C 148.05 157.71 147.28 158.61 147.35 159.64 Z M 147.43 160.67 L 147.54 161.58 C 147.66 162.60 148.59 163.33 149.61 163.21 C 150.63 163.09 151.36 162.17 151.24 161.14 L 151.14 160.23 C 151.02 159.21 150.09 158.48 149.07 158.60 C 148.05 158.72 147.31 159.64 147.43 160.67 Z M 147.56 161.68 L 147.73 162.66 C 147.90 163.67 148.87 164.35 149.88 164.17 C 150.89 164.00 151.57 163.03 151.40 162.02 L 151.23 161.04 C 151.05 160.03 150.09 159.35 149.07 159.53 C 148.06 159.70 147.38 160.67 147.56 161.68 Z M 147.75 162.76 L 147.99 163.77 C 148.22 164.77 149.22 165.40 150.22 165.16 C 151.22 164.93 151.84 163.93 151.61 162.93 L 151.37 161.92 C 151.14 160.92 150.14 160.29 149.14 160.53 C 148.14 160.76 147.52 161.76 147.75 162.76 Z M 148.01 163.86 L 148.29 164.84 C 148.57 165.82 149.60 166.39 150.59 166.11 C 151.57 165.83 152.14 164.80 151.86 163.82 L 151.58 162.84 C 151.30 161.86 150.27 161.28 149.29 161.57 C 148.30 161.85 147.73 162.88 148.01 163.86 Z M 148.32 164.91 L 148.62 165.83 C 148.94 166.80 149.99 167.33 150.97 167.01 C 151.94 166.68 152.47 165.63 152.14 164.66 L 151.84 163.74 C 151.52 162.77 150.47 162.24 149.49 162.57 C 148.52 162.89 147.99 163.94 148.32 164.91 Z M 148.65 165.89 L 148.98 166.80 C 149.34 167.76 150.41 168.25 151.37 167.89 C 152.33 167.53 152.82 166.46 152.46 165.51 L 152.12 164.60 C 151.76 163.64 150.69 163.15 149.73 163.51 C 148.77 163.87 148.29 164.93 148.65 165.89 Z M 149.02 166.88 L 149.42 167.81 C 149.82 168.75 150.90 169.18 151.84 168.78 C 152.78 168.38 153.22 167.29 152.82 166.35 L 152.42 165.43 C 152.02 164.49 150.93 164.05 149.99 164.45 C 149.05 164.85 148.62 165.94 149.02 166.88 Z M 149.47 167.92 L 149.91 168.78 C 150.37 169.69 151.48 170.06 152.39 169.59 C 153.30 169.13 153.66 168.02 153.20 167.11 L 152.76 166.25 C 152.30 165.34 151.19 164.97 150.28 165.43 C 149.37 165.89 149.01 167.01 149.47 167.92 Z M 149.98 168.90 L 150.49 169.75 C 151.02 170.62 152.15 170.90 153.03 170.37 C 153.90 169.85 154.18 168.71 153.65 167.84 L 153.13 166.99 C 152.61 166.12 151.47 165.84 150.60 166.37 C 149.73 166.90 149.45 168.03 149.98 168.90 Z M 150.57 169.86 L 151.13 170.66 C 151.72 171.50 152.87 171.70 153.70 171.11 C 154.53 170.53 154.73 169.38 154.14 168.55 L 153.58 167.74 C 152.99 166.91 151.84 166.71 151.01 167.29 C 150.18 167.88 149.98 169.02 150.57 169.86 Z M 151.20 170.75 L 151.83 171.55 C 152.46 172.34 153.62 172.47 154.41 171.84 C 155.21 171.21 155.34 170.06 154.71 169.26 L 154.08 168.46 C 153.45 167.67 152.29 167.53 151.50 168.16 C 150.70 168.80 150.57 169.95 151.20 170.75 Z M 151.90 171.62 L 152.57 172.38 C 153.25 173.14 154.41 173.21 155.17 172.54 C 155.92 171.86 155.99 170.70 155.32 169.94 L 154.64 169.18 C 153.97 168.43 152.81 168.36 152.05 169.03 C 151.29 169.70 151.23 170.86 151.90 171.62 Z M 152.65 172.46 L 153.35 173.16 C 154.07 173.87 155.23 173.87 155.95 173.15 C 156.66 172.43 156.66 171.27 155.94 170.56 L 155.24 169.86 C 154.52 169.15 153.36 169.15 152.65 169.87 C 151.93 170.59 151.94 171.75 152.65 172.46 Z M 153.46 173.26 L 154.23 173.90 C 155.00 174.56 156.16 174.46 156.81 173.69 C 157.46 172.92 157.36 171.76 156.59 171.11 L 155.83 170.46 C 155.06 169.81 153.90 169.90 153.25 170.68 C 152.59 171.45 152.69 172.60 153.46 173.26 Z M 154.38 174.02 L 155.19 174.56 C 156.02 175.13 157.16 174.92 157.73 174.08 C 158.29 173.25 158.08 172.11 157.24 171.54 L 156.44 170.99 C 155.61 170.43 154.47 170.64 153.90 171.48 C 153.33 172.31 153.55 173.45 154.38 174.02 Z M 155.36 174.66 L 156.24 175.14 C 157.13 175.61 158.24 175.27 158.71 174.38 C 159.19 173.49 158.85 172.39 157.96 171.91 L 157.07 171.44 C 156.18 170.97 155.08 171.31 154.60 172.20 C 154.13 173.09 154.47 174.19 155.36 174.66 Z M 156.40 175.21 L 157.30 175.59 C 158.23 175.97 159.30 175.54 159.69 174.61 C 160.08 173.68 159.64 172.61 158.71 172.23 L 157.81 171.84 C 156.88 171.46 155.81 171.89 155.42 172.82 C 155.03 173.75 155.47 174.82 156.40 175.21 Z M 157.42 175.63 L 158.37 175.95 C 159.33 176.28 160.36 175.77 160.68 174.82 C 161.01 173.87 160.50 172.83 159.55 172.51 L 158.60 172.18 C 157.64 171.86 156.61 172.37 156.29 173.32 C 155.96 174.27 156.47 175.30 157.42 175.63 Z M 158.48 175.98 L 159.46 176.25 C 160.43 176.52 161.43 175.96 161.70 174.99 C 161.97 174.02 161.40 173.02 160.43 172.75 L 159.45 172.48 C 158.48 172.21 157.48 172.78 157.21 173.74 C 156.94 174.71 157.51 175.71 158.48 175.98 Z M 159.56 176.28 L 160.54 176.49 C 161.52 176.70 162.49 176.08 162.70 175.10 C 162.91 174.12 162.29 173.16 161.31 172.94 L 160.33 172.73 C 159.35 172.52 158.39 173.14 158.17 174.12 C 157.96 175.10 158.58 176.06 159.56 176.28 Z M 160.65 176.51 L 161.61 176.65 C 162.59 176.81 163.52 176.13 163.67 175.14 C 163.83 174.15 163.15 173.23 162.16 173.07 L 161.20 172.93 C 160.22 172.77 159.29 173.45 159.14 174.44 C 158.98 175.43 159.66 176.35 160.65 176.51 Z M 161.72 176.67 L 162.67 176.75 C 163.66 176.85 164.54 176.11 164.63 175.12 C 164.73 174.13 164.00 173.24 163.00 173.15 L 162.05 173.06 C 161.06 172.97 160.17 173.70 160.08 174.70 C 159.99 175.69 160.72 176.57 161.72 176.67 Z M 162.76 176.76 L 163.75 176.80 C 164.75 176.84 165.59 176.07 165.63 175.07 C 165.67 174.07 164.90 173.23 163.90 173.19 L 162.91 173.15 C 161.91 173.11 161.07 173.88 161.03 174.88 C 160.99 175.87 161.76 176.72 162.76 176.76 Z M 163.81 176.80 L 164.89 176.81 C 165.88 176.82 166.70 176.02 166.71 175.02 C 166.72 174.03 165.92 173.21 164.92 173.20 L 163.84 173.19 C 162.85 173.18 162.03 173.98 162.02 174.98 C 162.01 175.97 162.81 176.79 163.81 176.80 Z M 164.92 176.81 L 165.88 176.80 C 166.87 176.79 167.67 175.97 167.66 174.98 C 167.66 173.98 166.84 173.18 165.85 173.19 L 164.89 173.20 C 163.89 173.21 163.09 174.03 163.10 175.02 C 163.11 176.02 163.92 176.82 164.92 176.81 Z M 165.92 176.80 L 166.94 176.76 C 167.93 176.73 168.71 175.89 168.68 174.90 C 168.64 173.91 167.81 173.13 166.81 173.16 L 165.80 173.20 C 164.81 173.23 164.03 174.06 164.06 175.06 C 164.10 176.05 164.93 176.83 165.92 176.80 Z M 167.00 176.76 L 168.03 176.69 C 169.03 176.61 169.77 175.75 169.70 174.76 C 169.63 173.77 168.77 173.02 167.78 173.09 L 166.75 173.16 C 165.75 173.24 165.01 174.10 165.08 175.09 C 165.15 176.08 166.01 176.83 167.00 176.76 Z M 168.13 176.68 L 169.13 176.55 C 170.12 176.43 170.82 175.53 170.70 174.54 C 170.58 173.55 169.67 172.85 168.69 172.97 L 167.68 173.10 C 166.69 173.22 165.99 174.12 166.12 175.11 C 166.24 176.10 167.14 176.80 168.13 176.68 Z M 169.27 176.53 L 170.26 176.33 C 171.23 176.13 171.86 175.17 171.66 174.20 C 171.46 173.23 170.51 172.60 169.53 172.80 L 168.55 173.00 C 167.58 173.20 166.95 174.15 167.15 175.12 C 167.35 176.10 168.30 176.73 169.27 176.53 Z M 170.43 176.28 L 171.42 175.97 C 172.37 175.67 172.90 174.66 172.60 173.71 C 172.31 172.76 171.30 172.24 170.35 172.53 L 169.36 172.84 C 168.41 173.14 167.88 174.15 168.18 175.10 C 168.47 176.05 169.48 176.58 170.43 176.28 Z M 171.59 175.91 L 172.50 175.52 C 173.41 175.13 173.84 174.08 173.45 173.16 C 173.07 172.25 172.01 171.82 171.09 172.21 L 170.18 172.59 C 169.27 172.98 168.84 174.04 169.23 174.95 C 169.61 175.87 170.67 176.30 171.59 175.91 Z M 172.62 175.46 L 173.48 175.02 C 174.37 174.57 174.71 173.48 174.26 172.60 C 173.81 171.72 172.72 171.37 171.84 171.82 L 170.97 172.27 C 170.09 172.72 169.74 173.80 170.20 174.69 C 170.65 175.57 171.73 175.92 172.62 175.46 Z M 173.55 174.98 L 174.39 174.50 C 175.25 174.01 175.55 172.91 175.06 172.05 C 174.57 171.19 173.47 170.89 172.61 171.38 L 171.77 171.86 C 170.91 172.35 170.61 173.45 171.10 174.31 C 171.59 175.17 172.69 175.47 173.55 174.98 Z M 174.43 174.48 L 175.23 174.00 C 176.08 173.48 176.35 172.38 175.84 171.53 C 175.33 170.68 174.23 170.41 173.38 170.92 L 172.57 171.40 C 171.72 171.91 171.45 173.02 171.96 173.87 C 172.47 174.72 173.58 174.99 174.43 174.48 Z M 175.28 173.97 L 176.09 173.44 C 176.92 172.90 177.16 171.79 176.62 170.96 C 176.08 170.12 174.97 169.88 174.14 170.42 L 173.33 170.95 C 172.49 171.49 172.26 172.60 172.79 173.43 C 173.33 174.27 174.45 174.50 175.28 173.97 Z M 176.16 173.40 L 176.98 172.81 C 177.78 172.24 177.97 171.11 177.40 170.31 C 176.82 169.50 175.70 169.31 174.89 169.88 L 174.07 170.47 C 173.26 171.04 173.07 172.17 173.65 172.97 C 174.23 173.78 175.35 173.97 176.16 173.40 Z M 177.05 172.75 L 177.89 172.09 C 178.66 171.47 178.79 170.34 178.17 169.57 C 177.55 168.79 176.42 168.66 175.65 169.28 L 174.82 169.94 C 174.04 170.56 173.91 171.69 174.53 172.47 C 175.15 173.24 176.28 173.37 177.05 172.75 Z M 177.96 172.03 L 178.73 171.34 C 179.47 170.68 179.53 169.55 178.87 168.81 C 178.21 168.07 177.08 168.00 176.34 168.66 L 175.57 169.34 C 174.83 170.00 174.77 171.14 175.43 171.88 C 176.09 172.62 177.22 172.69 177.96 172.03 Z M 178.79 171.29 L 179.52 170.58 C 180.22 169.88 180.24 168.74 179.54 168.03 C 178.85 167.33 177.71 167.31 177.00 168.01 L 176.28 168.72 C 175.57 169.41 175.55 170.55 176.25 171.26 C 176.94 171.97 178.08 171.98 178.79 171.29 Z M 179.56 170.53 L 180.27 169.78 C 180.96 169.06 180.93 167.92 180.21 167.24 C 179.49 166.56 178.35 166.59 177.67 167.31 L 176.96 168.05 C 176.27 168.77 176.30 169.91 177.02 170.59 C 177.74 171.28 178.88 171.25 179.56 170.53 Z M 180.31 169.73 L 180.99 168.98 C 181.65 168.23 181.58 167.10 180.84 166.44 C 180.09 165.78 178.96 165.85 178.30 166.59 L 177.63 167.35 C 176.97 168.09 177.04 169.23 177.78 169.89 C 178.52 170.55 179.66 170.48 180.31 169.73 Z M 181.03 168.93 L 181.65 168.18 C 182.28 167.42 182.18 166.29 181.41 165.65 C 180.65 165.02 179.52 165.12 178.88 165.89 L 178.26 166.63 C 177.63 167.40 177.73 168.53 178.50 169.17 C 179.26 169.80 180.39 169.69 181.03 168.93 Z M 181.69 168.13 L 182.33 167.30 C 182.94 166.51 182.79 165.38 182.00 164.78 C 181.22 164.17 180.09 164.32 179.48 165.10 L 178.84 165.94 C 178.23 166.73 178.38 167.85 179.17 168.46 C 179.95 169.07 181.08 168.92 181.69 168.13 Z M 182.38 167.23 L 182.98 166.38 C 183.55 165.56 183.35 164.44 182.54 163.87 C 181.73 163.30 180.60 163.50 180.03 164.31 L 179.43 165.17 C 178.86 165.98 179.06 167.10 179.88 167.67 C 180.69 168.24 181.81 168.05 182.38 167.23 Z M 183.03 166.31 L 183.55 165.49 C 184.08 164.65 183.83 163.53 182.99 163.00 C 182.15 162.47 181.03 162.72 180.50 163.56 L 179.99 164.38 C 179.45 165.22 179.71 166.33 180.55 166.87 C 181.39 167.40 182.50 167.15 183.03 166.31 Z M 183.59 165.42 L 184.05 164.62 C 184.54 163.76 184.25 162.66 183.39 162.16 C 182.52 161.66 181.42 161.96 180.93 162.82 L 180.46 163.63 C 179.97 164.49 180.26 165.59 181.13 166.09 C 181.99 166.58 183.09 166.29 183.59 165.42 Z M 184.08 164.57 L 184.52 163.74 C 184.99 162.86 184.66 161.77 183.78 161.30 C 182.90 160.83 181.81 161.16 181.34 162.04 L 180.90 162.87 C 180.43 163.75 180.76 164.84 181.64 165.31 C 182.52 165.78 183.61 165.45 184.08 164.57 Z M 184.55 163.69 L 184.98 162.81 C 185.42 161.92 185.05 160.84 184.16 160.40 C 183.26 159.96 182.18 160.33 181.74 161.22 L 181.31 162.09 C 180.87 162.99 181.24 164.07 182.14 164.51 C 183.03 164.95 184.11 164.58 184.55 163.69 Z M 185.02 162.74 L 185.42 161.83 C 185.82 160.91 185.40 159.84 184.49 159.44 C 183.57 159.04 182.50 159.46 182.10 160.38 L 181.70 161.29 C 181.30 162.21 181.72 163.27 182.63 163.68 C 183.55 164.08 184.62 163.66 185.02 162.74 Z M 185.46 161.74 L 185.83 160.76 C 186.18 159.82 185.71 158.78 184.77 158.43 C 183.84 158.07 182.79 158.54 182.44 159.48 L 182.07 160.46 C 181.71 161.40 182.19 162.44 183.12 162.80 C 184.06 163.15 185.10 162.68 185.46 161.74 Z M 185.86 160.67 L 186.17 159.71 C 186.47 158.76 185.95 157.73 184.99 157.43 C 184.04 157.12 183.01 157.65 182.71 158.61 L 182.40 159.57 C 182.10 160.52 182.62 161.54 183.58 161.85 C 184.53 162.15 185.56 161.63 185.86 160.67 Z M 186.19 159.64 L 186.46 158.65 C 186.73 157.68 186.16 156.68 185.19 156.42 C 184.22 156.15 183.22 156.72 182.95 157.69 L 182.68 158.68 C 182.42 159.65 182.99 160.65 183.96 160.91 C 184.93 161.18 185.93 160.61 186.19 159.64 Z M 186.48 158.59 L 186.72 157.60 C 186.95 156.62 186.34 155.64 185.36 155.41 C 184.38 155.18 183.40 155.78 183.17 156.76 L 182.93 157.75 C 182.70 158.73 183.31 159.72 184.29 159.95 C 185.27 160.18 186.25 159.57 186.48 158.59 Z M 186.73 157.54 L 186.93 156.58 C 187.13 155.59 186.48 154.63 185.50 154.43 C 184.51 154.23 183.54 154.87 183.34 155.86 L 183.15 156.82 C 182.95 157.81 183.59 158.77 184.58 158.97 C 185.57 159.17 186.53 158.53 186.73 157.54 Z M 186.94 156.52 L 187.11 155.52 C 187.27 154.53 186.60 153.58 185.60 153.42 C 184.60 153.25 183.66 153.93 183.49 154.93 L 183.33 155.92 C 183.16 156.92 183.84 157.86 184.84 158.03 C 185.84 158.19 186.78 157.52 186.94 156.52 Z M 187.12 155.45 L 187.24 154.47 C 187.37 153.46 186.65 152.54 185.64 152.42 C 184.64 152.30 183.72 153.01 183.60 154.02 L 183.48 155.00 C 183.35 156.01 184.07 156.92 185.08 157.05 C 186.08 157.17 187.00 156.45 187.12 155.45 Z M 187.25 154.39 L 187.33 153.42 C 187.41 152.41 186.66 151.52 185.65 151.44 C 184.64 151.36 183.75 152.11 183.67 153.12 L 183.59 154.09 C 183.51 155.11 184.26 155.99 185.27 156.08 C 186.28 156.16 187.17 155.40 187.25 154.39 Z M 187.34 153.36 L 187.39 152.35 C 187.44 151.34 186.65 150.47 185.63 150.43 C 184.62 150.38 183.75 151.16 183.71 152.18 L 183.66 153.19 C 183.61 154.20 184.40 155.07 185.41 155.11 C 186.43 155.16 187.29 154.38 187.34 153.36 Z M 187.39 152.31 L 187.42 151.31 C 187.44 150.29 186.63 149.45 185.61 149.42 C 184.59 149.40 183.74 150.21 183.72 151.23 L 183.70 152.23 C 183.68 153.25 184.49 154.09 185.51 154.11 C 186.53 154.14 187.37 153.33 187.39 152.31 Z M 187.42 151.25 L 187.41 150.22 C 187.40 149.20 186.56 148.38 185.54 148.39 C 184.52 148.41 183.70 149.24 183.71 150.26 L 183.72 151.29 C 183.73 152.31 184.57 153.13 185.59 153.12 C 186.61 153.11 187.43 152.27 187.42 151.25 Z M 187.41 150.14 L 187.35 149.12 C 187.29 148.10 186.41 147.32 185.39 147.38 C 184.37 147.44 183.59 148.32 183.65 149.34 L 183.71 150.35 C 183.77 151.38 184.64 152.16 185.67 152.10 C 186.69 152.04 187.47 151.16 187.41 150.14 Z M 187.34 148.99 L 187.21 148.02 C 187.08 147.01 186.15 146.29 185.13 146.42 C 184.11 146.56 183.40 147.49 183.53 148.51 L 183.66 149.48 C 183.79 150.49 184.72 151.21 185.74 151.08 C 186.76 150.94 187.47 150.01 187.34 148.99 Z M 187.18 147.83 L 186.93 146.81 C 186.69 145.81 185.68 145.19 184.69 145.44 C 183.69 145.68 183.07 146.68 183.32 147.68 L 183.56 148.70 C 183.80 149.70 184.81 150.31 185.81 150.07 C 186.81 149.83 187.42 148.83 187.18 147.83 Z M 186.87 146.61 L 186.54 145.69 C 186.19 144.72 185.12 144.22 184.15 144.57 C 183.19 144.92 182.69 145.99 183.04 146.96 L 183.37 147.88 C 183.72 148.84 184.79 149.34 185.76 148.99 C 186.72 148.64 187.22 147.57 186.87 146.61 Z M 186.48 145.54 L 186.08 144.67 C 185.65 143.74 184.55 143.33 183.61 143.76 C 182.68 144.19 182.27 145.29 182.70 146.23 L 183.10 147.10 C 183.53 148.03 184.63 148.44 185.56 148.01 C 186.50 147.58 186.91 146.48 186.48 145.54 Z M 186.04 144.60 L 185.62 143.77 C 185.14 142.85 184.02 142.50 183.11 142.97 C 182.19 143.44 181.83 144.56 182.31 145.48 L 182.73 146.30 C 183.21 147.22 184.33 147.58 185.24 147.11 C 186.16 146.63 186.52 145.51 186.04 144.60 Z M 185.58 143.70 L 185.10 142.86 C 184.60 141.97 183.46 141.65 182.56 142.16 C 181.67 142.67 181.36 143.81 181.86 144.70 L 182.34 145.54 C 182.85 146.44 183.99 146.75 184.88 146.24 C 185.78 145.73 186.09 144.60 185.58 143.70 Z M 185.06 142.79 L 184.51 141.91 C 183.97 141.04 182.82 140.78 181.94 141.32 C 181.07 141.87 180.81 143.02 181.35 143.89 L 181.90 144.77 C 182.45 145.64 183.60 145.91 184.47 145.36 C 185.34 144.82 185.61 143.67 185.06 142.79 Z M 184.47 141.85 L 183.89 140.99 C 183.30 140.14 182.14 139.92 181.29 140.50 C 180.44 141.08 180.23 142.24 180.81 143.09 L 181.39 143.95 C 181.97 144.80 183.14 145.02 183.99 144.44 C 184.84 143.86 185.05 142.70 184.47 141.85 Z M 183.85 140.94 L 183.26 140.13 C 182.65 139.30 181.48 139.11 180.65 139.72 C 179.82 140.33 179.64 141.50 180.25 142.33 L 180.84 143.14 C 181.45 143.97 182.61 144.16 183.45 143.55 C 184.28 142.94 184.46 141.77 183.85 140.94 Z M 183.23 140.09 L 182.61 139.28 C 181.98 138.46 180.81 138.31 179.99 138.93 C 179.17 139.56 179.02 140.73 179.65 141.55 L 180.27 142.36 C 180.90 143.18 182.07 143.34 182.89 142.71 C 183.71 142.08 183.86 140.91 183.23 140.09 Z M 182.58 139.25 L 181.95 138.46 C 181.31 137.66 180.14 137.53 179.33 138.17 C 178.53 138.82 178.40 139.99 179.04 140.80 L 179.67 141.58 C 180.32 142.38 181.49 142.51 182.29 141.87 C 183.10 141.23 183.23 140.05 182.58 139.25 Z M 181.93 138.43 L 181.28 137.66 C 180.62 136.87 179.44 136.77 178.66 137.43 C 177.87 138.09 177.76 139.27 178.42 140.06 L 179.07 140.83 C 179.73 141.62 180.91 141.72 181.70 141.06 C 182.49 140.40 182.59 139.22 181.93 138.43 Z M 181.25 137.62 L 180.58 136.87 C 179.90 136.10 178.72 136.03 177.95 136.71 C 177.17 137.40 177.10 138.58 177.79 139.35 L 178.46 140.10 C 179.14 140.87 180.32 140.94 181.09 140.26 C 181.86 139.57 181.93 138.39 181.25 137.62 Z M 180.53 136.82 L 179.86 136.12 C 179.15 135.37 177.97 135.34 177.22 136.06 C 176.48 136.77 176.45 137.95 177.16 138.70 L 177.84 139.40 C 178.55 140.14 179.73 140.17 180.48 139.46 C 181.22 138.74 181.25 137.56 180.53 136.82 Z M 179.81 136.06 L 179.10 135.37 C 178.36 134.66 177.17 134.68 176.46 135.42 C 175.74 136.16 175.76 137.34 176.50 138.06 L 177.22 138.75 C 177.96 139.46 179.14 139.44 179.86 138.70 C 180.57 137.96 180.55 136.78 179.81 136.06 Z M 179.05 135.33 L 178.35 134.70 C 177.58 134.00 176.40 134.06 175.71 134.83 C 175.02 135.59 175.08 136.77 175.84 137.47 L 176.55 138.10 C 177.31 138.79 178.49 138.73 179.18 137.97 C 179.88 137.20 179.82 136.02 179.05 135.33 Z M 178.30 134.66 L 177.55 134.02 C 176.77 133.35 175.59 133.45 174.92 134.23 C 174.25 135.02 174.35 136.20 175.14 136.86 L 175.89 137.50 C 176.67 138.17 177.85 138.07 178.52 137.29 C 179.18 136.50 179.09 135.33 178.30 134.66 Z M 177.50 133.98 L 176.70 133.35 C 175.90 132.70 174.73 132.84 174.08 133.64 C 173.44 134.45 173.58 135.62 174.38 136.26 L 175.18 136.90 C 175.99 137.54 177.16 137.41 177.80 136.60 C 178.44 135.80 178.31 134.62 177.50 133.98 Z M 176.65 133.31 L 175.81 132.69 C 174.99 132.08 173.82 132.25 173.21 133.08 C 172.60 133.91 172.77 135.07 173.60 135.68 L 174.44 136.30 C 175.26 136.91 176.43 136.74 177.04 135.91 C 177.65 135.08 177.48 133.92 176.65 133.31 Z M 175.75 132.65 L 174.91 132.07 C 174.06 131.49 172.90 131.71 172.32 132.56 C 171.74 133.41 171.96 134.57 172.81 135.15 L 173.66 135.73 C 174.51 136.30 175.67 136.08 176.25 135.23 C 176.83 134.38 176.61 133.22 175.75 132.65 Z M 174.84 132.02 L 173.98 131.49 C 173.11 130.95 171.96 131.21 171.41 132.09 C 170.87 132.97 171.14 134.12 172.01 134.66 L 172.88 135.20 C 173.75 135.74 174.90 135.47 175.45 134.59 C 175.99 133.72 175.72 132.57 174.84 132.02 Z M 173.91 131.44 L 173.04 130.96 C 172.14 130.45 171.00 130.77 170.50 131.68 C 169.99 132.58 170.31 133.71 171.22 134.22 L 172.09 134.71 C 172.99 135.21 174.13 134.89 174.63 133.99 C 175.13 133.09 174.81 131.95 173.91 131.44 Z M 172.96 130.91 L 172.09 130.48 C 171.16 130.02 170.04 130.40 169.58 131.33 C 169.12 132.25 169.50 133.38 170.43 133.83 L 171.30 134.27 C 172.22 134.72 173.35 134.34 173.81 133.42 C 174.26 132.49 173.88 131.37 172.96 130.91 Z M 171.99 130.43 L 171.04 130.03 C 170.09 129.62 168.99 130.07 168.58 131.02 C 168.18 131.98 168.62 133.08 169.58 133.48 L 170.52 133.88 C 171.48 134.29 172.58 133.84 172.98 132.89 C 173.39 131.93 172.94 130.83 171.99 130.43 Z M 170.94 129.98 L 169.99 129.64 C 169.01 129.30 167.93 129.81 167.59 130.79 C 167.24 131.77 167.75 132.85 168.73 133.20 L 169.68 133.53 C 170.66 133.88 171.74 133.36 172.09 132.38 C 172.43 131.40 171.92 130.33 170.94 129.98 Z M 169.89 129.61 L 168.95 129.33 C 167.95 129.04 166.90 129.61 166.60 130.61 C 166.31 131.61 166.88 132.66 167.89 132.96 L 168.83 133.23 C 169.83 133.53 170.88 132.95 171.18 131.95 C 171.47 130.95 170.90 129.90 169.89 129.61 Z M 168.87 129.30 L 167.91 129.07 C 166.89 128.82 165.87 129.45 165.62 130.46 C 165.37 131.48 166.00 132.51 167.02 132.75 L 167.97 132.99 C 168.99 133.23 170.01 132.61 170.26 131.59 C 170.51 130.57 169.88 129.55 168.87 129.30 Z M 167.84 129.04 L 166.84 128.85 C 165.81 128.64 164.81 129.31 164.61 130.34 C 164.40 131.37 165.07 132.37 166.10 132.58 L 167.09 132.78 C 168.12 132.98 169.13 132.31 169.33 131.28 C 169.54 130.25 168.87 129.25 167.84 129.04 Z M 166.76 128.83 L 165.78 128.67 C 164.73 128.51 163.76 129.23 163.60 130.27 C 163.43 131.31 164.15 132.29 165.19 132.45 L 166.18 132.60 C 167.22 132.76 168.20 132.05 168.36 131.01 C 168.52 129.96 167.81 128.99 166.76 128.83 Z M 165.70 128.66 L 164.71 128.55 C 163.66 128.43 162.71 129.19 162.60 130.24 C 162.48 131.29 163.24 132.24 164.29 132.35 L 165.27 132.46 C 166.32 132.58 167.27 131.82 167.39 130.77 C 167.50 129.72 166.75 128.77 165.70 128.66 Z M 164.63 128.53 L 163.62 128.47 C 162.57 128.40 161.65 129.20 161.58 130.26 C 161.51 131.31 162.31 132.23 163.37 132.30 L 164.37 132.37 C 165.43 132.44 166.35 131.64 166.42 130.58 C 166.49 129.52 165.69 128.60 164.63 128.53 Z M 163.55 128.46 L 162.54 128.43 C 161.48 128.40 160.59 129.24 160.56 130.31 C 160.54 131.37 161.38 132.26 162.44 132.29 L 163.45 132.31 C 164.51 132.34 165.40 131.50 165.42 130.43 C 165.45 129.37 164.61 128.48 163.55 128.46 Z M 162.47 128.42 L 161.48 128.43 C 160.41 128.44 159.56 129.32 159.57 130.39 C 159.58 131.46 160.45 132.31 161.52 132.30 L 162.51 132.29 C 163.58 132.28 164.44 131.41 164.43 130.34 C 164.42 129.27 163.54 128.41 162.47 128.42 Z M 161.42 128.43 L 160.43 128.47 C 159.36 128.51 158.53 129.41 158.57 130.48 C 158.61 131.55 159.51 132.39 160.59 132.35 L 161.58 132.31 C 162.65 132.26 163.48 131.36 163.44 130.29 C 163.40 129.22 162.49 128.39 161.42 128.43 Z M 160.36 128.47 L 159.37 128.54 C 158.29 128.62 157.49 129.56 157.57 130.63 C 157.66 131.70 158.59 132.51 159.66 132.42 L 160.66 132.35 C 161.73 132.27 162.53 131.33 162.45 130.26 C 162.37 129.19 161.43 128.38 160.36 128.47 Z M 159.25 128.55 L 158.26 128.68 C 157.19 128.83 156.45 129.81 156.59 130.88 C 156.74 131.95 157.72 132.70 158.79 132.55 L 159.78 132.42 C 160.85 132.27 161.60 131.29 161.45 130.22 C 161.30 129.15 160.32 128.40 159.25 128.55 Z M 158.11 128.71 L 157.13 128.92 C 156.07 129.15 155.40 130.20 155.64 131.26 C 155.87 132.31 156.91 132.98 157.97 132.75 L 158.95 132.53 C 160.01 132.30 160.67 131.25 160.44 130.20 C 160.21 129.14 159.16 128.47 158.11 128.71 Z M 156.95 128.96 L 156.00 129.27 C 154.97 129.59 154.40 130.70 154.72 131.73 C 155.05 132.76 156.16 133.34 157.19 133.01 L 158.14 132.71 C 159.18 132.38 159.75 131.27 159.42 130.24 C 159.09 129.21 157.99 128.63 156.95 128.96 Z M 155.85 129.32 L 154.92 129.70 C 153.91 130.11 153.43 131.26 153.84 132.26 C 154.26 133.27 155.40 133.75 156.41 133.34 L 157.34 132.96 C 158.35 132.55 158.83 131.40 158.42 130.39 C 158.01 129.38 156.86 128.90 155.85 129.32 Z M 154.78 129.75 L 153.89 130.20 C 152.92 130.69 152.52 131.87 153.01 132.85 C 153.50 133.82 154.68 134.22 155.66 133.73 L 156.55 133.28 C 157.52 132.80 157.92 131.61 157.43 130.64 C 156.94 129.66 155.76 129.27 154.78 129.75 Z M 153.73 130.29 L 152.66 130.95 C 151.73 131.53 151.44 132.75 152.02 133.67 C 152.59 134.60 153.81 134.89 154.74 134.31 L 155.81 133.64 C 156.74 133.07 157.03 131.85 156.45 130.92 C 155.88 130.00 154.66 129.71 153.73 130.29 Z M 152.33 131.20 L 151.67 131.84 C 150.88 132.59 150.85 133.84 151.60 134.63 C 152.36 135.42 153.61 135.45 154.40 134.70 L 155.06 134.06 C 155.85 133.31 155.88 132.05 155.13 131.27 C 154.37 130.48 153.12 130.45 152.33 131.20 Z M 151.19 133.95 L 151.35 134.36 C 151.72 135.38 152.85 135.90 153.86 135.52 C 154.88 135.15 155.40 134.02 155.02 133.00 L 154.87 132.59 C 154.50 131.57 153.37 131.05 152.35 131.43 C 151.34 131.80 150.82 132.93 151.19 133.95 Z M 152.82 135.56 L 153.75 135.74 C 154.79 135.94 155.79 135.26 155.99 134.22 C 156.19 133.19 155.51 132.19 154.48 131.99 L 153.55 131.81 C 152.51 131.61 151.51 132.29 151.31 133.32 C 151.11 134.35 151.79 135.36 152.82 135.56 Z M 154.01 135.70 L 155.12 135.76 C 156.13 135.82 157.00 135.04 157.06 134.03 C 157.12 133.01 156.34 132.14 155.32 132.08 L 154.22 132.02 C 153.20 131.97 152.33 132.74 152.28 133.76 C 152.22 134.78 153.00 135.65 154.01 135.70 Z"
      fill="black"
      fill-rule="nonzero" /></svg>