<svg xmlns="http://www.w3.org/2000/svg" width="300" height="300" viewBox="0 0 300 300">
<path d="M 142.16 141.58 L 141.07 141.28 C 140.09 141.02 139.09 141.60 138.83 142.58 C 138.57 143.55 139.15 144.56 140.12 144.82 L 141.22 145.11 C 142.20 145.37 143.20 144.79 143.46 143.81 C 143.72 142.84 143.14 141.84 142.16 141.58 Z M 140.77 141.20 L 139.79 141.11 C 138.77 141.02 137.86 141.77 137.77 142.79 C 137.67 143.81 138.42 144.71 139.44 144.81 L 140.42 144.90 C 141.44 144.99 142.35 144.24 142.44 143.22 C 142.54 142.20 141.79 141.30 140.77 141.20 Z M 138.90 141.22 L 138.17 141.52 C 137.21 141.92 136.76 143.02 137.15 143.98 C 137.55 144.94 138.65 145.39 139.61 145.00 L 140.34 144.70 C 141.30 144.30 141.75 143.20 141.36 142.24 C 140.96 141.28 139.86 140.82 138.90 141.22 Z M 137.25 142.30 L 136.86 142.97 C 136.33 143.87 136.64 145.04 137.55 145.57 C 138.45 146.10 139.62 145.79 140.15 144.88 L 140.54 144.22 C 141.07 143.31 140.76 142.15 139.85 141.62 C 138.95 141.09 137.78 141.39 137.25 142.30 Z M 136.63 143.52 L 136.42 144.49 C 136.20 145.52 136.85 146.54 137.88 146.77 C 138.92 147.00 139.94 146.34 140.16 145.31 L 140.38 144.33 C 140.60 143.30 139.95 142.28 138.91 142.05 C 137.88 141.83 136.86 142.48 136.63 143.52 Z M 136.37 144.74 L 136.27 145.93 C 136.18 146.99 136.97 147.92 138.03 148.01 C 139.09 148.10 140.02 147.32 140.11 146.26 L 140.21 145.06 C 140.30 144.00 139.52 143.07 138.46 142.98 C 137.39 142.89 136.46 143.68 136.37 144.74 Z M 136.26 146.01 L 136.21 147.07 C 136.17 148.14 137.00 149.04 138.07 149.08 C 139.14 149.12 140.04 148.29 140.08 147.22 L 140.13 146.17 C 140.17 145.10 139.34 144.20 138.27 144.16 C 137.20 144.11 136.30 144.95 136.26 146.01 Z M 136.21 147.10 L 136.19 148.13 C 136.16 149.20 137.01 150.09 138.08 150.11 C 139.16 150.14 140.04 149.29 140.07 148.21 L 140.09 147.19 C 140.11 146.11 139.26 145.23 138.19 145.20 C 137.12 145.18 136.23 146.03 136.21 147.10 Z M 136.18 148.15 L 136.17 149.18 C 136.16 150.25 137.02 151.13 138.10 151.14 C 139.17 151.15 140.05 150.29 140.06 149.22 L 140.07 148.19 C 140.08 147.12 139.22 146.24 138.15 146.23 C 137.07 146.22 136.19 147.08 136.18 148.15 Z M 136.17 149.19 L 136.16 150.18 C 136.16 151.25 137.03 152.13 138.11 152.13 C 139.18 152.13 140.06 151.26 140.06 150.19 L 140.06 149.20 C 140.07 148.13 139.20 147.25 138.12 147.25 C 137.05 147.25 136.17 148.12 136.17 149.19 Z M 136.16 150.18 L 136.16 151.19 C 136.16 152.27 137.04 153.14 138.11 153.14 C 139.19 153.14 140.06 152.27 140.06 151.19 L 140.06 150.18 C 140.06 149.11 139.19 148.23 138.11 148.23 C 137.04 148.23 136.16 149.11 136.16 150.18 Z M 136.16 151.21 L 136.17 152.24 C 136.17 153.32 137.06 154.19 138.13 154.18 C 139.21 154.17 140.08 153.29 140.07 152.22 L 140.07 151.18 C 140.06 150.10 139.18 149.23 138.10 149.24 C 137.02 149.25 136.15 150.13 136.16 151.21 Z M 136.17 152.29 L 136.20 153.25 C 136.23 154.33 137.13 155.18 138.21 155.15 C 139.29 155.11 140.14 154.21 140.10 153.13 L 140.07 152.17 C 140.04 151.09 139.14 150.24 138.06 150.28 C 136.98 150.31 136.13 151.21 136.17 152.29 Z M 136.20 153.34 L 136.27 154.28 C 136.35 155.36 137.28 156.17 138.36 156.09 C 139.44 156.01 140.25 155.08 140.17 154.00 L 140.10 153.05 C 140.02 151.97 139.08 151.16 138.01 151.24 C 136.93 151.32 136.12 152.26 136.20 153.34 Z M 136.28 154.38 L 136.39 155.31 C 136.52 156.39 137.50 157.15 138.57 157.02 C 139.64 156.89 140.41 155.91 140.28 154.84 L 140.16 153.90 C 140.03 152.83 139.05 152.07 137.98 152.20 C 136.91 152.33 136.15 153.31 136.28 154.38 Z M 136.40 155.39 L 136.56 156.37 C 136.74 157.43 137.74 158.16 138.81 157.98 C 139.88 157.81 140.60 156.80 140.42 155.73 L 140.26 154.76 C 140.09 153.69 139.08 152.97 138.02 153.15 C 136.95 153.32 136.23 154.33 136.40 155.39 Z M 136.57 156.43 L 136.77 157.44 C 136.98 158.50 138.01 159.19 139.07 158.98 C 140.13 158.77 140.82 157.74 140.61 156.68 L 140.41 155.67 C 140.20 154.61 139.17 153.92 138.11 154.13 C 137.05 154.34 136.36 155.37 136.57 156.43 Z M 136.78 157.49 L 137.01 158.49 C 137.24 159.54 138.29 160.21 139.34 159.97 C 140.40 159.73 141.06 158.69 140.83 157.63 L 140.60 156.63 C 140.37 155.58 139.32 154.91 138.27 155.15 C 137.21 155.39 136.55 156.43 136.78 157.49 Z M 137.02 158.53 L 137.25 159.48 C 137.51 160.53 138.56 161.17 139.61 160.91 C 140.66 160.66 141.31 159.60 141.05 158.55 L 140.82 157.60 C 140.56 156.55 139.50 155.90 138.45 156.16 C 137.40 156.42 136.76 157.48 137.02 158.53 Z M 137.26 159.51 L 137.51 160.48 C 137.79 161.52 138.86 162.15 139.90 161.87 C 140.95 161.60 141.57 160.53 141.30 159.48 L 141.04 158.52 C 140.77 157.47 139.70 156.85 138.65 157.12 C 137.61 157.40 136.98 158.46 137.26 159.51 Z M 137.52 160.51 L 137.79 161.49 C 138.08 162.53 139.16 163.13 140.20 162.84 C 141.25 162.55 141.85 161.47 141.56 160.43 L 141.29 159.45 C 141.00 158.41 139.92 157.81 138.88 158.10 C 137.84 158.39 137.23 159.47 137.52 160.51 Z M 137.80 161.52 L 138.08 162.47 C 138.39 163.50 139.48 164.09 140.52 163.79 C 141.55 163.48 142.14 162.39 141.84 161.36 L 141.55 160.40 C 141.25 159.37 140.16 158.78 139.12 159.08 C 138.09 159.39 137.49 160.48 137.80 161.52 Z M 138.09 162.50 L 138.37 163.38 C 138.69 164.42 139.79 164.99 140.82 164.67 C 141.85 164.34 142.43 163.25 142.10 162.21 L 141.83 161.33 C 141.50 160.30 140.41 159.72 139.37 160.04 C 138.34 160.37 137.77 161.47 138.09 162.50 Z M 138.38 163.42 L 138.69 164.33 C 139.03 165.35 140.14 165.91 141.16 165.57 C 142.19 165.22 142.74 164.12 142.40 163.09 L 142.09 162.18 C 141.75 161.16 140.64 160.60 139.62 160.94 C 138.59 161.29 138.04 162.39 138.38 163.42 Z M 138.70 164.37 L 139.04 165.32 C 139.40 166.34 140.52 166.87 141.54 166.51 C 142.56 166.15 143.09 165.03 142.72 164.01 L 142.38 163.05 C 142.02 162.04 140.90 161.51 139.89 161.87 C 138.87 162.23 138.34 163.35 138.70 164.37 Z M 139.05 165.36 L 139.44 166.38 C 139.82 167.39 140.95 167.89 141.96 167.51 C 142.97 167.13 143.48 166.00 143.10 164.99 L 142.71 163.97 C 142.33 162.96 141.20 162.45 140.19 162.84 C 139.18 163.22 138.67 164.35 139.05 165.36 Z M 139.45 166.41 L 139.83 167.35 C 140.24 168.36 141.37 168.84 142.38 168.44 C 143.38 168.04 143.86 166.90 143.46 165.90 L 143.08 164.95 C 142.68 163.95 141.54 163.47 140.54 163.87 C 139.54 164.27 139.05 165.41 139.45 166.41 Z M 139.85 167.38 L 140.24 168.32 C 140.66 169.32 141.80 169.78 142.80 169.37 C 143.79 168.95 144.26 167.80 143.84 166.81 L 143.45 165.87 C 143.03 164.87 141.89 164.41 140.89 164.82 C 139.90 165.24 139.43 166.39 139.85 167.38 Z M 140.25 168.35 L 140.67 169.30 C 141.10 170.29 142.25 170.74 143.24 170.31 C 144.23 169.87 144.68 168.72 144.25 167.73 L 143.83 166.78 C 143.40 165.80 142.25 165.34 141.26 165.77 C 140.27 166.21 139.82 167.36 140.25 168.35 Z M 140.68 169.32 L 141.10 170.25 C 141.55 171.24 142.70 171.67 143.69 171.23 C 144.67 170.78 145.10 169.62 144.66 168.64 L 144.24 167.71 C 143.79 166.73 142.63 166.29 141.65 166.74 C 140.67 167.18 140.23 168.34 140.68 169.32 Z M 141.11 170.28 L 141.53 171.17 C 141.99 172.15 143.16 172.56 144.13 172.10 C 145.11 171.64 145.52 170.48 145.06 169.50 L 144.64 168.62 C 144.18 167.64 143.02 167.22 142.05 167.68 C 141.07 168.14 140.65 169.31 141.11 170.28 Z M 141.55 171.21 L 142.01 172.12 C 142.49 173.09 143.66 173.48 144.62 173.00 C 145.59 172.52 145.98 171.35 145.50 170.39 L 145.05 169.47 C 144.57 168.50 143.40 168.11 142.43 168.59 C 141.47 169.07 141.07 170.24 141.55 171.21 Z M 142.04 172.17 L 142.56 173.16 C 143.07 174.11 144.25 174.47 145.20 173.96 C 146.15 173.45 146.51 172.27 146.00 171.32 L 145.47 170.33 C 144.97 169.38 143.78 169.03 142.84 169.53 C 141.89 170.04 141.53 171.22 142.04 172.17 Z M 142.60 173.22 L 143.10 174.08 C 143.64 175.01 144.84 175.32 145.77 174.78 C 146.70 174.23 147.01 173.04 146.46 172.11 L 145.96 171.25 C 145.42 170.32 144.23 170.01 143.30 170.56 C 142.37 171.10 142.06 172.29 142.60 173.22 Z M 143.14 174.15 L 143.63 174.91 C 144.21 175.81 145.42 176.07 146.32 175.49 C 147.23 174.91 147.49 173.71 146.91 172.80 L 146.42 172.04 C 145.84 171.14 144.63 170.87 143.73 171.45 C 142.82 172.04 142.56 173.24 143.14 174.15 Z M 143.68 174.98 L 144.21 175.74 C 144.83 176.62 146.05 176.83 146.93 176.21 C 147.81 175.59 148.02 174.37 147.40 173.49 L 146.86 172.73 C 146.24 171.85 145.03 171.64 144.15 172.26 C 143.27 172.88 143.06 174.10 143.68 174.98 Z M 144.27 175.81 L 144.89 176.61 C 145.55 177.46 146.77 177.61 147.62 176.95 C 148.47 176.29 148.62 175.07 147.96 174.22 L 147.34 173.42 C 146.68 172.57 145.46 172.42 144.61 173.08 C 143.76 173.74 143.61 174.96 144.27 175.81 Z M 144.96 176.69 L 145.61 177.44 C 146.32 178.25 147.55 178.33 148.36 177.62 C 149.17 176.91 149.25 175.68 148.54 174.87 L 147.89 174.13 C 147.18 173.32 145.95 173.24 145.14 173.95 C 144.34 174.66 144.25 175.88 144.96 176.69 Z M 145.70 177.53 L 146.38 178.22 C 147.14 178.98 148.37 178.99 149.14 178.23 C 149.90 177.47 149.90 176.24 149.15 175.48 L 148.46 174.79 C 147.70 174.02 146.47 174.02 145.71 174.77 C 144.94 175.53 144.94 176.76 145.70 177.53 Z M 146.48 178.31 L 147.21 178.95 C 148.02 179.66 149.24 179.58 149.95 178.78 C 150.66 177.97 150.59 176.74 149.78 176.03 L 149.05 175.39 C 148.24 174.68 147.02 174.76 146.31 175.57 C 145.60 176.37 145.67 177.60 146.48 178.31 Z M 147.32 179.04 L 148.12 179.64 C 148.98 180.29 150.20 180.12 150.84 179.26 C 151.49 178.40 151.32 177.18 150.46 176.54 L 149.66 175.94 C 148.80 175.29 147.59 175.46 146.94 176.32 C 146.29 177.18 146.47 178.40 147.32 179.04 Z M 148.25 179.73 L 149.13 180.29 C 150.04 180.86 151.24 180.59 151.81 179.68 C 152.38 178.77 152.11 177.57 151.20 177.00 L 150.32 176.45 C 149.42 175.87 148.22 176.15 147.65 177.05 C 147.07 177.96 147.35 179.16 148.25 179.73 Z M 149.27 180.36 L 150.11 180.80 C 151.06 181.30 152.24 180.93 152.73 179.98 C 153.23 179.03 152.86 177.86 151.91 177.36 L 151.07 176.92 C 150.12 176.43 148.94 176.79 148.45 177.74 C 147.95 178.69 148.32 179.87 149.27 180.36 Z M 150.25 180.87 L 151.16 181.25 C 152.14 181.67 153.28 181.22 153.70 180.23 C 154.12 179.25 153.66 178.11 152.68 177.69 L 151.77 177.30 C 150.79 176.88 149.65 177.34 149.23 178.32 C 148.81 179.31 149.27 180.45 150.25 180.87 Z M 151.31 181.31 L 152.28 181.63 C 153.29 181.97 154.39 181.41 154.72 180.40 C 155.06 179.38 154.51 178.29 153.49 177.95 L 152.52 177.63 C 151.51 177.30 150.41 177.85 150.08 178.86 C 149.74 179.88 150.29 180.97 151.31 181.31 Z M 152.44 181.67 L 153.45 181.91 C 154.49 182.16 155.54 181.51 155.78 180.47 C 156.02 179.43 155.38 178.39 154.34 178.15 L 153.33 177.91 C 152.29 177.66 151.25 178.31 151.00 179.35 C 150.76 180.39 151.40 181.43 152.44 181.67 Z M 153.61 181.94 L 154.57 182.08 C 155.63 182.24 156.61 181.51 156.77 180.46 C 156.92 179.40 156.20 178.42 155.14 178.26 L 154.18 178.12 C 153.13 177.96 152.15 178.69 151.99 179.74 C 151.83 180.80 152.56 181.78 153.61 181.94 Z M 154.69 182.09 L 155.68 182.18 C 156.74 182.27 157.67 181.48 157.77 180.42 C 157.86 179.36 157.07 178.43 156.01 178.34 L 155.02 178.25 C 153.96 178.16 153.03 178.95 152.94 180.01 C 152.85 181.07 153.63 182.00 154.69 182.09 Z M 155.77 182.18 L 156.78 182.22 C 157.84 182.26 158.74 181.44 158.78 180.38 C 158.82 179.32 158.00 178.42 156.94 178.38 L 155.93 178.34 C 154.87 178.29 153.97 179.12 153.93 180.18 C 153.88 181.24 154.71 182.13 155.77 182.18 Z M 156.84 182.22 L 157.86 182.23 C 158.92 182.24 159.79 181.39 159.80 180.33 C 159.81 179.28 158.97 178.41 157.91 178.39 L 156.88 178.38 C 155.82 178.37 154.96 179.22 154.94 180.28 C 154.93 181.34 155.78 182.20 156.84 182.22 Z M 157.90 182.22 L 158.95 182.22 C 160.00 182.21 160.85 181.35 160.85 180.29 C 160.84 179.23 159.98 178.38 158.92 178.39 L 157.87 178.40 C 156.82 178.41 155.97 179.27 155.97 180.32 C 155.98 181.38 156.84 182.23 157.90 182.22 Z M 159.00 182.21 L 160.03 182.17 C 161.08 182.14 161.91 181.26 161.87 180.21 C 161.84 179.15 160.96 178.33 159.90 178.37 L 158.87 178.40 C 157.82 178.43 156.99 179.32 157.03 180.37 C 157.06 181.42 157.94 182.24 159.00 182.21 Z M 160.11 182.16 L 161.10 182.09 C 162.15 182.01 162.93 181.10 162.86 180.05 C 162.78 179.01 161.87 178.22 160.82 178.30 L 159.83 178.38 C 158.78 178.45 158.00 179.36 158.07 180.41 C 158.15 181.46 159.06 182.24 160.11 182.16 Z M 161.22 182.07 L 162.15 181.94 C 163.19 181.80 163.92 180.85 163.78 179.81 C 163.63 178.78 162.68 178.05 161.65 178.19 L 160.71 178.32 C 159.67 178.46 158.95 179.41 159.09 180.45 C 159.23 181.49 160.18 182.21 161.22 182.07 Z M 162.32 181.91 L 163.32 181.68 C 164.33 181.44 164.97 180.43 164.73 179.42 C 164.50 178.40 163.49 177.77 162.47 178.00 L 161.48 178.23 C 160.46 178.47 159.83 179.48 160.06 180.49 C 160.30 181.51 161.31 182.14 162.32 181.91 Z M 163.52 181.61 L 164.46 181.28 C 165.44 180.94 165.96 179.86 165.61 178.89 C 165.27 177.91 164.20 177.39 163.22 177.73 L 162.27 178.07 C 161.29 178.41 160.78 179.48 161.12 180.46 C 161.46 181.44 162.54 181.96 163.52 181.61 Z M 164.64 181.20 L 165.51 180.79 C 166.45 180.35 166.85 179.24 166.41 178.30 C 165.97 177.36 164.86 176.96 163.92 177.40 L 163.04 177.81 C 162.11 178.25 161.71 179.37 162.15 180.30 C 162.58 181.24 163.70 181.64 164.64 181.20 Z M 165.64 180.72 L 166.49 180.24 C 167.38 179.73 167.70 178.59 167.19 177.69 C 166.68 176.80 165.54 176.48 164.64 176.99 L 163.80 177.47 C 162.90 177.98 162.59 179.12 163.10 180.02 C 163.60 180.91 164.74 181.23 165.64 180.72 Z M 166.58 180.18 L 167.42 179.63 C 168.28 179.07 168.52 177.92 167.96 177.05 C 167.40 176.19 166.24 175.95 165.38 176.51 L 164.55 177.05 C 163.69 177.61 163.44 178.77 164.00 179.63 C 164.57 180.49 165.72 180.74 166.58 180.18 Z M 167.52 179.56 L 168.32 178.96 C 169.14 178.34 169.31 177.18 168.69 176.35 C 168.07 175.53 166.91 175.36 166.09 175.98 L 165.28 176.58 C 164.46 177.20 164.29 178.36 164.91 179.19 C 165.53 180.01 166.69 180.18 167.52 179.56 Z M 168.42 178.87 L 169.18 178.21 C 169.96 177.54 170.04 176.36 169.36 175.59 C 168.69 174.81 167.51 174.73 166.74 175.41 L 165.98 176.07 C 165.21 176.74 165.13 177.92 165.80 178.69 C 166.47 179.46 167.65 179.55 168.42 178.87 Z M 169.29 178.11 L 169.97 177.41 C 170.69 176.68 170.68 175.50 169.95 174.78 C 169.22 174.06 168.04 174.07 167.32 174.81 L 166.63 175.51 C 165.92 176.24 165.93 177.42 166.66 178.13 C 167.39 178.85 168.57 178.84 169.29 178.11 Z M 170.06 177.31 L 170.71 176.56 C 171.37 175.78 171.28 174.61 170.50 173.94 C 169.72 173.27 168.55 173.37 167.88 174.15 L 167.24 174.90 C 166.57 175.68 166.66 176.85 167.44 177.52 C 168.22 178.19 169.39 178.09 170.06 177.31 Z M 170.77 176.48 L 171.38 175.68 C 172.01 174.86 171.85 173.70 171.04 173.08 C 170.22 172.45 169.06 172.61 168.43 173.42 L 167.82 174.22 C 167.19 175.04 167.35 176.21 168.16 176.83 C 168.98 177.45 170.15 177.30 170.77 176.48 Z M 171.43 175.62 L 172.00 174.81 C 172.59 173.97 172.39 172.81 171.55 172.22 C 170.71 171.63 169.55 171.83 168.96 172.67 L 168.39 173.48 C 167.80 174.32 168.00 175.48 168.84 176.07 C 169.68 176.66 170.84 176.46 171.43 175.62 Z M 172.03 174.76 L 172.57 173.94 C 173.13 173.08 172.89 171.93 172.04 171.37 C 171.18 170.80 170.03 171.04 169.46 171.90 L 168.93 172.72 C 168.36 173.58 168.60 174.73 169.46 175.29 C 170.32 175.85 171.47 175.62 172.03 174.76 Z M 172.60 173.89 L 173.13 173.03 C 173.66 172.16 173.39 171.01 172.51 170.48 C 171.64 169.94 170.49 170.22 169.96 171.09 L 169.43 171.95 C 168.90 172.83 169.17 173.97 170.05 174.50 C 170.92 175.04 172.07 174.76 172.60 173.89 Z M 173.16 172.98 L 173.66 172.09 C 174.17 171.20 173.86 170.06 172.97 169.55 C 172.08 169.05 170.94 169.36 170.43 170.25 L 169.93 171.15 C 169.42 172.04 169.73 173.17 170.62 173.68 C 171.51 174.19 172.65 173.87 173.16 172.98 Z M 173.69 172.04 L 174.16 171.15 C 174.64 170.24 174.29 169.11 173.38 168.64 C 172.48 168.16 171.35 168.51 170.87 169.41 L 170.41 170.30 C 169.93 171.21 170.28 172.33 171.18 172.81 C 172.09 173.29 173.22 172.94 173.69 172.04 Z M 174.19 171.10 L 174.63 170.19 C 175.08 169.27 174.70 168.16 173.77 167.71 C 172.85 167.26 171.74 167.64 171.29 168.56 L 170.85 169.47 C 170.40 170.39 170.78 171.50 171.70 171.95 C 172.63 172.40 173.74 172.02 174.19 171.10 Z M 174.66 170.14 L 175.07 169.22 C 175.49 168.28 175.07 167.18 174.13 166.76 C 173.19 166.34 172.09 166.76 171.67 167.70 L 171.26 168.62 C 170.84 169.55 171.26 170.65 172.20 171.08 C 173.13 171.50 174.23 171.08 174.66 170.14 Z M 175.09 169.17 L 175.47 168.24 C 175.86 167.29 175.40 166.20 174.45 165.81 C 173.50 165.42 172.41 165.88 172.02 166.83 L 171.65 167.75 C 171.26 168.71 171.71 169.79 172.66 170.18 C 173.62 170.57 174.70 170.12 175.09 169.17 Z M 175.50 168.18 L 175.82 167.29 C 176.18 166.33 175.68 165.26 174.72 164.90 C 173.75 164.54 172.68 165.04 172.33 166.00 L 172.00 166.89 C 171.64 167.86 172.14 168.93 173.10 169.29 C 174.07 169.64 175.14 169.15 175.50 168.18 Z M 175.85 167.23 L 176.14 166.33 C 176.46 165.35 175.93 164.30 174.95 163.98 C 173.97 163.65 172.92 164.19 172.60 165.17 L 172.30 166.07 C 171.98 167.05 172.51 168.10 173.49 168.42 C 174.47 168.74 175.53 168.21 175.85 167.23 Z M 176.16 166.27 L 176.44 165.32 C 176.73 164.33 176.16 163.29 175.17 163.00 C 174.18 162.72 173.14 163.28 172.86 164.27 L 172.58 165.23 C 172.29 166.22 172.86 167.25 173.85 167.54 C 174.84 167.83 175.87 167.26 176.16 166.27 Z M 176.45 165.27 L 176.72 164.24 C 176.99 163.24 176.39 162.22 175.39 161.96 C 174.39 161.70 173.37 162.29 173.11 163.29 L 172.84 164.32 C 172.58 165.32 173.18 166.34 174.18 166.60 C 175.17 166.86 176.19 166.27 176.45 165.27 Z M 176.74 164.20 L 176.97 163.21 C 177.21 162.20 176.60 161.20 175.59 160.95 C 174.59 160.71 173.58 161.33 173.34 162.33 L 173.10 163.33 C 172.86 164.33 173.48 165.34 174.48 165.58 C 175.48 165.82 176.49 165.20 176.74 164.20 Z M 176.98 163.18 L 177.20 162.19 C 177.43 161.19 176.79 160.18 175.79 159.96 C 174.78 159.73 173.78 160.37 173.55 161.37 L 173.33 162.36 C 173.11 163.37 173.74 164.37 174.75 164.60 C 175.75 164.82 176.76 164.19 176.98 163.18 Z M 177.21 162.17 L 177.42 161.15 C 177.63 160.14 176.98 159.15 175.97 158.94 C 174.96 158.73 173.97 159.38 173.76 160.39 L 173.55 161.40 C 173.34 162.41 173.98 163.40 175.00 163.62 C 176.01 163.83 177.00 163.18 177.21 162.17 Z M 177.43 161.12 L 177.62 160.11 C 177.81 159.10 177.15 158.12 176.13 157.92 C 175.12 157.73 174.14 158.40 173.94 159.41 L 173.75 160.42 C 173.56 161.44 174.22 162.42 175.24 162.61 C 176.25 162.80 177.23 162.14 177.43 161.12 Z M 177.63 160.08 L 177.79 159.11 C 177.96 158.09 177.28 157.12 176.26 156.95 C 175.24 156.78 174.27 157.47 174.10 158.49 L 173.93 159.45 C 173.76 160.47 174.45 161.44 175.47 161.61 C 176.49 161.78 177.46 161.10 177.63 160.08 Z M 177.80 159.06 L 177.95 157.99 C 178.09 156.97 177.37 156.02 176.35 155.88 C 175.32 155.74 174.38 156.45 174.23 157.48 L 174.09 158.54 C 173.95 159.57 174.66 160.51 175.69 160.66 C 176.71 160.80 177.66 160.08 177.80 159.06 Z M 177.96 157.92 L 178.06 156.87 C 178.16 155.84 177.41 154.92 176.38 154.82 C 175.35 154.72 174.43 155.47 174.33 156.50 L 174.22 157.55 C 174.12 158.58 174.88 159.50 175.91 159.60 C 176.94 159.70 177.86 158.95 177.96 157.92 Z M 178.07 156.80 L 178.12 155.84 C 178.19 154.80 177.40 153.92 176.37 153.85 C 175.33 153.79 174.44 154.58 174.38 155.61 L 174.32 156.57 C 174.26 157.61 175.05 158.49 176.08 158.56 C 177.12 158.62 178.00 157.83 178.07 156.80 Z M 178.13 155.79 L 178.16 154.88 C 178.19 153.85 177.38 152.98 176.34 152.95 C 175.30 152.91 174.44 153.73 174.40 154.76 L 174.38 155.67 C 174.34 156.70 175.16 157.57 176.19 157.60 C 177.23 157.63 178.10 156.82 178.13 155.79 Z M 178.16 154.85 L 178.17 153.87 C 178.19 152.83 177.36 151.98 176.33 151.96 C 175.29 151.94 174.43 152.77 174.42 153.81 L 174.40 154.79 C 174.39 155.83 175.21 156.68 176.25 156.70 C 177.29 156.72 178.14 155.89 178.16 154.85 Z M 178.18 153.84 L 178.18 152.84 C 178.18 151.80 177.34 150.96 176.30 150.96 C 175.26 150.96 174.42 151.80 174.42 152.83 L 174.42 153.84 C 174.42 154.87 175.26 155.72 176.29 155.72 C 177.33 155.72 178.17 154.88 178.18 153.84 Z M 178.18 152.81 L 178.16 151.81 C 178.14 150.77 177.29 149.94 176.25 149.96 C 175.21 149.98 174.38 150.84 174.40 151.87 L 174.42 152.87 C 174.44 153.91 175.29 154.73 176.33 154.72 C 177.37 154.70 178.19 153.84 178.18 152.81 Z M 178.16 151.77 L 178.12 150.79 C 178.08 149.75 177.21 148.94 176.17 148.98 C 175.13 149.02 174.32 149.90 174.36 150.93 L 174.40 151.92 C 174.44 152.95 175.32 153.76 176.35 153.72 C 177.39 153.68 178.20 152.81 178.16 151.77 Z M 178.12 150.73 L 178.05 149.75 C 177.97 148.72 177.07 147.94 176.04 148.01 C 175.00 148.09 174.22 148.99 174.30 150.02 L 174.36 151.00 C 174.44 152.03 175.34 152.81 176.38 152.74 C 177.41 152.66 178.19 151.76 178.12 150.73 Z M 178.04 149.66 L 177.92 148.67 C 177.79 147.64 176.86 146.90 175.82 147.03 C 174.79 147.15 174.06 148.09 174.18 149.12 L 174.30 150.12 C 174.43 151.15 175.37 151.88 176.40 151.76 C 177.43 151.63 178.17 150.69 178.04 149.66 Z M 177.90 148.55 L 177.71 147.53 C 177.52 146.51 176.54 145.83 175.51 146.02 C 174.49 146.22 173.82 147.20 174.01 148.22 L 174.20 149.24 C 174.39 150.27 175.37 150.94 176.40 150.75 C 177.42 150.56 178.10 149.57 177.90 148.55 Z M 177.69 147.41 L 177.46 146.50 C 177.20 145.49 176.17 144.89 175.16 145.14 C 174.15 145.40 173.54 146.43 173.80 147.44 L 174.03 148.34 C 174.29 149.35 175.32 149.96 176.33 149.70 C 177.34 149.45 177.94 148.42 177.69 147.41 Z M 177.43 146.40 L 177.13 145.47 C 176.82 144.48 175.76 143.92 174.77 144.24 C 173.77 144.55 173.22 145.61 173.53 146.60 L 173.83 147.54 C 174.14 148.53 175.20 149.08 176.20 148.77 C 177.19 148.46 177.74 147.40 177.43 146.40 Z M 177.10 145.38 L 176.75 144.42 C 176.38 143.44 175.30 142.95 174.32 143.31 C 173.34 143.67 172.85 144.76 173.21 145.73 L 173.56 146.69 C 173.93 147.67 175.01 148.17 175.99 147.81 C 176.97 147.44 177.47 146.36 177.10 145.38 Z M 176.72 144.34 L 176.30 143.36 C 175.89 142.40 174.78 141.95 173.82 142.36 C 172.87 142.77 172.42 143.88 172.82 144.84 L 173.24 145.81 C 173.65 146.77 174.75 147.22 175.71 146.81 C 176.67 146.41 177.12 145.30 176.72 144.34 Z M 176.27 143.29 L 175.83 142.36 C 175.38 141.42 174.25 141.02 173.31 141.46 C 172.37 141.91 171.97 143.04 172.42 143.98 L 172.86 144.91 C 173.30 145.85 174.43 146.25 175.37 145.80 C 176.31 145.36 176.71 144.23 176.27 143.29 Z M 175.79 142.28 L 175.30 141.37 C 174.81 140.45 173.67 140.10 172.75 140.59 C 171.83 141.08 171.48 142.22 171.97 143.14 L 172.45 144.06 C 172.94 144.98 174.09 145.33 175.01 144.84 C 175.93 144.35 176.28 143.20 175.79 142.28 Z M 175.25 141.28 L 174.73 140.42 C 174.19 139.53 173.03 139.24 172.14 139.78 C 171.25 140.32 170.96 141.48 171.50 142.37 L 172.02 143.23 C 172.56 144.13 173.72 144.41 174.61 143.87 C 175.51 143.33 175.79 142.17 175.25 141.28 Z M 174.66 140.31 L 174.11 139.52 C 173.50 138.67 172.33 138.47 171.47 139.07 C 170.62 139.67 170.42 140.85 171.02 141.70 L 171.57 142.48 C 172.17 143.34 173.35 143.54 174.20 142.94 C 175.06 142.34 175.26 141.16 174.66 140.31 Z M 173.99 139.37 L 173.31 138.59 C 172.62 137.81 171.43 137.73 170.64 138.41 C 169.86 139.10 169.78 140.29 170.46 141.08 L 171.14 141.85 C 171.82 142.64 173.02 142.72 173.80 142.04 C 174.59 141.35 174.67 140.16 173.99 139.37 Z M 173.16 138.44 L 172.41 137.76 C 171.64 137.06 170.44 137.11 169.74 137.88 C 169.04 138.65 169.09 139.85 169.86 140.55 L 170.61 141.23 C 171.38 141.93 172.58 141.88 173.28 141.11 C 173.98 140.34 173.93 139.14 173.16 138.44 Z M 172.28 137.65 L 171.52 137.07 C 170.69 136.43 169.51 136.59 168.87 137.42 C 168.24 138.25 168.40 139.43 169.22 140.07 L 169.99 140.65 C 170.82 141.29 172.00 141.13 172.63 140.30 C 173.27 139.47 173.11 138.29 172.28 137.65 Z M 171.46 137.03 L 170.90 136.63 C 170.05 136.03 168.87 136.23 168.27 137.08 C 167.67 137.93 167.87 139.11 168.72 139.71 L 169.28 140.11 C 170.13 140.71 171.31 140.51 171.91 139.66 C 172.51 138.81 172.31 137.63 171.46 137.03 Z"
      fill="black"
      fill-rule="nonzero" /></svg>