<svg xmlns="http://www.w3.org/2000/svg" width="300" height="300" viewBox="0 0 300 300">
<path d="M 143.38 183.79 L 144.33 183.67 C 145.34 183.55 146.07 182.62 145.94 181.60 C 145.82 180.58 144.89 179.86 143.87 179.99 L 142.92 180.10 C 141.91 180.23 141.18 181.16 141.31 182.18 C 141.43 183.19 142.36 183.92 143.38 183.79 Z M 144.25 183.67 L 145.23 183.59 C 146.25 183.51 147.00 182.61 146.92 181.59 C 146.83 180.58 145.94 179.82 144.92 179.91 L 143.94 179.99 C 142.93 180.07 142.17 180.97 142.26 181.99 C 142.34 183.00 143.23 183.76 144.25 183.67 Z M 145.10 183.59 L 146.14 183.58 C 147.15 183.57 147.97 182.73 147.96 181.72 C 147.95 180.70 147.11 179.88 146.10 179.90 L 145.06 179.91 C 144.04 179.92 143.22 180.75 143.24 181.77 C 143.25 182.79 144.08 183.60 145.10 183.59 Z M 145.98 183.57 L 146.95 183.64 C 147.96 183.71 148.84 182.95 148.92 181.94 C 148.99 180.93 148.23 180.05 147.22 179.98 L 146.25 179.91 C 145.24 179.83 144.36 180.59 144.29 181.60 C 144.21 182.61 144.97 183.49 145.98 183.57 Z M 146.83 183.62 L 147.80 183.76 C 148.80 183.90 149.73 183.21 149.87 182.21 C 150.02 181.21 149.32 180.28 148.32 180.14 L 147.35 180.00 C 146.35 179.86 145.42 180.55 145.28 181.55 C 145.14 182.55 145.83 183.47 146.83 183.62 Z M 147.70 183.73 L 148.70 183.94 C 149.69 184.13 150.65 183.50 150.85 182.51 C 151.05 181.52 150.41 180.56 149.42 180.37 L 148.42 180.16 C 147.44 179.97 146.48 180.60 146.28 181.59 C 146.08 182.58 146.72 183.54 147.70 183.73 Z M 148.62 183.91 L 149.62 184.16 C 150.59 184.41 151.58 183.82 151.83 182.85 C 152.07 181.88 151.49 180.89 150.51 180.65 L 149.51 180.39 C 148.54 180.15 147.55 180.73 147.31 181.70 C 147.06 182.68 147.65 183.66 148.62 183.91 Z M 149.54 184.13 L 150.54 184.44 C 151.50 184.73 152.51 184.20 152.80 183.24 C 153.09 182.29 152.56 181.28 151.60 180.98 L 150.60 180.68 C 149.64 180.38 148.63 180.92 148.34 181.88 C 148.05 182.83 148.58 183.84 149.54 184.13 Z M 150.45 184.40 L 151.42 184.76 C 152.36 185.10 153.39 184.62 153.73 183.68 C 154.07 182.75 153.59 181.72 152.66 181.38 L 151.69 181.02 C 150.76 180.68 149.72 181.16 149.38 182.09 C 149.04 183.03 149.52 184.06 150.45 184.40 Z M 151.32 184.71 L 152.22 185.10 C 153.13 185.50 154.19 185.09 154.59 184.19 C 154.98 183.28 154.57 182.22 153.67 181.82 L 152.76 181.43 C 151.86 181.03 150.80 181.44 150.40 182.34 C 150.00 183.25 150.41 184.31 151.32 184.71 Z M 152.10 185.04 L 152.93 185.48 C 153.79 185.95 154.88 185.62 155.34 184.75 C 155.81 183.88 155.48 182.80 154.62 182.34 L 153.79 181.89 C 152.92 181.43 151.84 181.75 151.37 182.62 C 150.91 183.49 151.23 184.57 152.10 185.04 Z M 152.76 185.37 L 153.61 185.95 C 154.41 186.51 155.52 186.31 156.08 185.50 C 156.63 184.70 156.43 183.59 155.63 183.03 L 154.78 182.45 C 153.97 181.89 152.87 182.09 152.31 182.90 C 151.75 183.70 151.95 184.81 152.76 185.37 Z M 153.38 185.75 L 154.07 186.43 C 154.76 187.12 155.88 187.11 156.57 186.42 C 157.25 185.73 157.24 184.61 156.55 183.93 L 155.86 183.24 C 155.16 182.56 154.05 182.56 153.36 183.25 C 152.68 183.95 152.68 185.06 153.38 185.75 Z M 153.83 186.12 L 154.36 186.95 C 154.88 187.77 155.96 188.01 156.78 187.49 C 157.60 186.97 157.84 185.88 157.32 185.07 L 156.79 184.24 C 156.27 183.42 155.19 183.18 154.37 183.70 C 153.55 184.22 153.31 185.31 153.83 186.12 Z M 154.19 186.59 L 154.52 187.50 C 154.84 188.41 155.84 188.89 156.74 188.56 C 157.65 188.24 158.13 187.25 157.81 186.34 L 157.48 185.43 C 157.16 184.52 156.16 184.04 155.26 184.36 C 154.35 184.69 153.87 185.68 154.19 186.59 Z M 154.44 187.19 L 154.60 188.18 C 154.75 189.13 155.64 189.78 156.59 189.63 C 157.54 189.48 158.19 188.58 158.04 187.63 L 157.88 186.65 C 157.73 185.70 156.84 185.05 155.89 185.20 C 154.94 185.35 154.29 186.24 154.44 187.19 Z M 154.58 187.90 L 154.58 188.93 C 154.58 189.89 155.35 190.67 156.31 190.67 C 157.27 190.67 158.05 189.90 158.06 188.93 L 158.06 187.91 C 158.06 186.95 157.28 186.17 156.32 186.17 C 155.36 186.17 154.58 186.94 154.58 187.90 Z M 154.60 188.64 L 154.44 189.64 C 154.28 190.58 154.91 191.48 155.86 191.64 C 156.81 191.80 157.70 191.16 157.86 190.21 L 158.03 189.22 C 158.19 188.27 157.55 187.38 156.60 187.22 C 155.66 187.06 154.76 187.70 154.60 188.64 Z M 154.51 189.33 L 154.17 190.27 C 153.85 191.17 154.31 192.17 155.22 192.50 C 156.12 192.82 157.12 192.36 157.45 191.45 L 157.79 190.52 C 158.11 189.61 157.65 188.62 156.74 188.29 C 155.84 187.96 154.84 188.43 154.51 189.33 Z M 154.29 190.01 L 153.80 190.87 C 153.34 191.72 153.64 192.78 154.48 193.25 C 155.32 193.72 156.39 193.41 156.86 192.57 L 157.34 191.71 C 157.81 190.87 157.50 189.80 156.66 189.33 C 155.82 188.86 154.75 189.17 154.29 190.01 Z M 153.91 190.69 L 153.32 191.50 C 152.75 192.29 152.93 193.38 153.71 193.95 C 154.49 194.52 155.59 194.35 156.16 193.56 L 156.75 192.75 C 157.32 191.97 157.14 190.87 156.36 190.31 C 155.58 189.74 154.48 189.91 153.91 190.69 Z M 153.40 191.39 L 152.77 192.13 C 152.14 192.87 152.23 193.98 152.97 194.61 C 153.71 195.24 154.82 195.16 155.45 194.42 L 156.08 193.68 C 156.71 192.94 156.62 191.83 155.88 191.19 C 155.14 190.56 154.03 190.65 153.40 191.39 Z M 152.81 192.06 L 152.17 192.75 C 151.50 193.46 151.53 194.59 152.25 195.26 C 152.97 195.93 154.09 195.89 154.76 195.18 L 155.41 194.49 C 156.08 193.77 156.04 192.65 155.32 191.97 C 154.61 191.30 153.48 191.34 152.81 192.06 Z M 152.19 192.70 L 151.49 193.41 C 150.80 194.11 150.80 195.25 151.51 195.94 C 152.21 196.64 153.35 196.63 154.04 195.93 L 154.74 195.22 C 155.44 194.52 155.43 193.38 154.72 192.69 C 154.02 191.99 152.88 192.00 152.19 192.70 Z M 151.49 193.38 L 150.75 194.12 C 150.04 194.83 150.03 195.97 150.74 196.68 C 151.44 197.39 152.59 197.40 153.30 196.69 L 154.04 195.95 C 154.75 195.25 154.76 194.10 154.05 193.39 C 153.35 192.68 152.20 192.68 151.49 193.38 Z M 150.73 194.12 L 149.92 194.93 C 149.20 195.65 149.21 196.80 149.92 197.52 C 150.64 198.23 151.79 198.23 152.51 197.51 L 153.32 196.70 C 154.03 195.98 154.03 194.83 153.31 194.11 C 152.60 193.40 151.44 193.40 150.73 194.12 Z M 149.87 194.96 L 149.06 195.82 C 148.36 196.56 148.40 197.73 149.14 198.42 C 149.88 199.12 151.05 199.08 151.74 198.34 L 152.55 197.48 C 153.25 196.74 153.22 195.58 152.47 194.88 C 151.73 194.18 150.57 194.22 149.87 194.96 Z M 148.96 195.92 L 148.30 196.73 C 147.66 197.53 147.78 198.70 148.58 199.34 C 149.38 199.98 150.55 199.86 151.19 199.06 L 151.85 198.25 C 152.49 197.45 152.37 196.28 151.57 195.64 C 150.77 194.99 149.60 195.12 148.96 195.92 Z M 148.09 197.01 L 147.73 197.71 C 147.24 198.62 147.58 199.75 148.50 200.24 C 149.41 200.72 150.54 200.38 151.03 199.47 L 151.40 198.78 C 151.88 197.86 151.54 196.73 150.63 196.24 C 149.71 195.76 148.58 196.10 148.09 197.01 Z M 147.53 198.95 L 147.65 199.55 C 147.85 200.57 148.84 201.23 149.86 201.03 C 150.88 200.83 151.54 199.84 151.34 198.82 L 151.22 198.22 C 151.02 197.20 150.03 196.54 149.01 196.74 C 147.99 196.95 147.33 197.94 147.53 198.95 Z M 148.66 200.87 L 149.44 201.26 C 150.37 201.72 151.50 201.33 151.96 200.40 C 152.42 199.47 152.04 198.34 151.11 197.88 L 150.33 197.49 C 149.39 197.03 148.26 197.42 147.80 198.35 C 147.35 199.28 147.73 200.41 148.66 200.87 Z M 149.82 201.40 L 151.00 201.69 C 152.01 201.94 153.03 201.33 153.29 200.32 C 153.54 199.31 152.92 198.28 151.91 198.03 L 150.73 197.74 C 149.72 197.49 148.70 198.10 148.45 199.11 C 148.19 200.12 148.81 201.14 149.82 201.40 Z M 150.96 201.68 L 151.94 201.95 C 152.94 202.23 153.98 201.64 154.25 200.63 C 154.53 199.63 153.94 198.59 152.94 198.32 L 151.96 198.04 C 150.96 197.77 149.92 198.36 149.64 199.36 C 149.36 200.36 149.95 201.40 150.96 201.68 Z M 151.83 201.92 L 152.78 202.24 C 153.77 202.57 154.84 202.05 155.17 201.06 C 155.51 200.08 154.98 199.01 153.99 198.67 L 153.04 198.35 C 152.06 198.01 150.99 198.54 150.65 199.53 C 150.32 200.51 150.85 201.58 151.83 201.92 Z M 152.68 202.20 L 153.62 202.58 C 154.58 202.98 155.68 202.51 156.08 201.55 C 156.47 200.58 156.00 199.48 155.04 199.09 L 154.10 198.71 C 153.13 198.32 152.03 198.78 151.64 199.75 C 151.25 200.71 151.71 201.81 152.68 202.20 Z M 153.51 202.53 L 154.41 202.97 C 155.35 203.43 156.48 203.03 156.93 202.10 C 157.38 201.16 156.99 200.03 156.06 199.58 L 155.15 199.14 C 154.21 198.69 153.09 199.08 152.63 200.02 C 152.18 200.95 152.57 202.08 153.51 202.53 Z M 154.28 202.90 L 155.14 203.40 C 156.04 203.92 157.19 203.62 157.71 202.72 C 158.24 201.82 157.93 200.67 157.03 200.14 L 156.18 199.65 C 155.28 199.12 154.13 199.43 153.61 200.33 C 153.08 201.23 153.39 202.38 154.28 202.90 Z M 155.00 203.31 L 155.80 203.87 C 156.65 204.47 157.82 204.27 158.42 203.42 C 159.02 202.57 158.82 201.40 157.97 200.80 L 157.17 200.23 C 156.32 199.63 155.15 199.84 154.55 200.69 C 153.95 201.54 154.15 202.71 155.00 203.31 Z M 155.66 203.77 L 156.42 204.41 C 157.21 205.09 158.40 204.99 159.07 204.20 C 159.75 203.40 159.65 202.22 158.86 201.54 L 158.10 200.90 C 157.31 200.23 156.12 200.32 155.45 201.12 C 154.77 201.91 154.87 203.10 155.66 203.77 Z M 156.30 204.30 L 157.04 205.04 C 157.77 205.78 158.96 205.79 159.70 205.05 C 160.44 204.32 160.44 203.13 159.71 202.39 L 158.98 201.65 C 158.24 200.92 157.05 200.91 156.32 201.64 C 155.58 202.37 155.57 203.57 156.30 204.30 Z M 156.95 204.94 L 157.56 205.65 C 158.23 206.44 159.42 206.53 160.21 205.85 C 161.00 205.18 161.09 203.99 160.41 203.20 L 159.80 202.49 C 159.12 201.70 157.94 201.61 157.15 202.29 C 156.36 202.97 156.27 204.16 156.95 204.94 Z M 157.48 205.56 L 158.07 206.34 C 158.70 207.17 159.88 207.33 160.71 206.71 C 161.54 206.08 161.70 204.90 161.07 204.07 L 160.48 203.29 C 159.86 202.46 158.68 202.30 157.85 202.93 C 157.02 203.55 156.86 204.73 157.48 205.56 Z M 158.01 206.25 L 158.57 207.09 C 159.14 207.96 160.31 208.19 161.17 207.62 C 162.04 207.04 162.27 205.88 161.70 205.01 L 161.14 204.17 C 160.56 203.30 159.40 203.07 158.53 203.64 C 157.67 204.22 157.43 205.38 158.01 206.25 Z M 158.50 206.99 L 159.02 207.89 C 159.54 208.79 160.69 209.10 161.59 208.58 C 162.49 208.06 162.80 206.91 162.28 206.01 L 161.76 205.11 C 161.24 204.21 160.09 203.90 159.19 204.42 C 158.29 204.94 157.98 206.09 158.50 206.99 Z M 158.96 207.78 L 159.43 208.72 C 159.88 209.65 161.01 210.04 161.94 209.58 C 162.88 209.12 163.26 208.00 162.80 207.06 L 162.34 206.12 C 161.88 205.19 160.75 204.80 159.82 205.26 C 158.89 205.72 158.51 206.85 158.96 207.78 Z M 159.38 208.61 L 159.78 209.58 C 160.17 210.54 161.27 210.99 162.23 210.59 C 163.19 210.20 163.65 209.10 163.25 208.14 L 162.85 207.17 C 162.46 206.21 161.36 205.76 160.40 206.15 C 159.44 206.55 158.98 207.65 159.38 208.61 Z M 159.74 209.48 L 160.08 210.45 C 160.42 211.43 161.50 211.95 162.48 211.60 C 163.46 211.26 163.97 210.19 163.63 209.21 L 163.29 208.23 C 162.94 207.25 161.87 206.74 160.89 207.08 C 159.91 207.42 159.39 208.50 159.74 209.48 Z M 160.05 210.37 L 160.34 211.32 C 160.63 212.32 161.68 212.89 162.68 212.59 C 163.67 212.30 164.24 211.25 163.94 210.25 L 163.66 209.29 C 163.36 208.30 162.31 207.73 161.32 208.03 C 160.32 208.32 159.76 209.37 160.05 210.37 Z M 160.32 211.24 L 160.55 212.17 C 160.80 213.17 161.82 213.79 162.83 213.53 C 163.84 213.28 164.45 212.26 164.20 211.25 L 163.97 210.33 C 163.71 209.32 162.69 208.71 161.68 208.96 C 160.68 209.21 160.06 210.24 160.32 211.24 Z M 160.53 212.08 L 160.72 213.06 C 160.93 214.08 161.92 214.74 162.94 214.54 C 163.96 214.33 164.62 213.34 164.41 212.32 L 164.22 211.34 C 164.01 210.32 163.02 209.66 162.00 209.86 C 160.98 210.07 160.32 211.06 160.53 212.08 Z M 160.71 212.97 L 160.85 213.96 C 161.01 214.99 161.96 215.70 162.99 215.55 C 164.02 215.39 164.73 214.44 164.58 213.41 L 164.43 212.42 C 164.28 211.39 163.32 210.68 162.29 210.83 C 161.27 210.98 160.56 211.94 160.71 212.97 Z M 160.84 213.86 L 160.93 214.82 C 161.03 215.86 161.95 216.62 162.99 216.52 C 164.02 216.42 164.78 215.50 164.68 214.47 L 164.59 213.51 C 164.49 212.47 163.57 211.71 162.54 211.81 C 161.50 211.91 160.74 212.83 160.84 213.86 Z M 160.93 214.75 L 160.98 215.73 C 161.04 216.77 161.92 217.57 162.96 217.51 C 164.00 217.45 164.80 216.57 164.74 215.53 L 164.69 214.54 C 164.63 213.51 163.75 212.71 162.71 212.76 C 161.67 212.82 160.87 213.71 160.93 214.75 Z M 160.98 215.68 L 161.00 216.66 C 161.03 217.70 161.89 218.52 162.93 218.49 C 163.98 218.47 164.80 217.60 164.77 216.56 L 164.74 215.58 C 164.72 214.54 163.85 213.72 162.81 213.75 C 161.77 213.77 160.95 214.64 160.98 215.68 Z M 161.00 216.58 L 160.98 217.59 C 160.97 218.63 161.80 219.49 162.84 219.50 C 163.88 219.52 164.74 218.69 164.76 217.65 L 164.77 216.64 C 164.79 215.60 163.96 214.74 162.92 214.72 C 161.87 214.71 161.02 215.54 161.00 216.58 Z M 160.99 217.45 L 160.90 218.46 C 160.81 219.50 161.58 220.42 162.62 220.51 C 163.66 220.60 164.57 219.83 164.66 218.79 L 164.75 217.78 C 164.84 216.74 164.07 215.83 163.03 215.74 C 162.00 215.64 161.08 216.41 160.99 217.45 Z M 160.93 218.26 L 160.73 219.25 C 160.53 220.27 161.20 221.26 162.22 221.46 C 163.25 221.67 164.24 221.00 164.44 219.97 L 164.64 218.99 C 164.84 217.97 164.17 216.98 163.15 216.77 C 162.12 216.57 161.13 217.24 160.93 218.26 Z M 160.81 218.97 L 160.46 219.93 C 160.11 220.91 160.62 222.00 161.60 222.35 C 162.58 222.71 163.67 222.20 164.02 221.21 L 164.37 220.25 C 164.72 219.27 164.21 218.18 163.23 217.83 C 162.25 217.48 161.16 217.99 160.81 218.97 Z M 160.58 219.66 L 160.09 220.56 C 159.59 221.48 159.92 222.63 160.84 223.13 C 161.75 223.63 162.90 223.30 163.41 222.38 L 163.90 221.48 C 164.40 220.57 164.07 219.42 163.15 218.91 C 162.24 218.41 161.09 218.75 160.58 219.66 Z M 160.22 220.36 L 159.63 221.17 C 159.02 222.01 159.21 223.20 160.05 223.81 C 160.90 224.42 162.08 224.23 162.69 223.39 L 163.28 222.58 C 163.89 221.74 163.70 220.55 162.86 219.94 C 162.01 219.33 160.83 219.52 160.22 220.36 Z M 159.74 221.03 L 159.11 221.75 C 158.42 222.53 158.50 223.73 159.28 224.42 C 160.06 225.11 161.26 225.03 161.95 224.25 L 162.58 223.53 C 163.27 222.75 163.20 221.55 162.41 220.86 C 161.63 220.17 160.43 220.24 159.74 221.03 Z M 159.21 221.64 L 158.50 222.34 C 157.75 223.07 157.74 224.26 158.47 225.01 C 159.20 225.76 160.40 225.77 161.15 225.04 L 161.85 224.35 C 162.60 223.62 162.61 222.42 161.88 221.67 C 161.15 220.93 159.95 220.91 159.21 221.64 Z M 158.62 222.23 L 157.87 222.84 C 157.06 223.51 156.95 224.70 157.61 225.51 C 158.28 226.32 159.47 226.43 160.28 225.77 L 161.03 225.15 C 161.83 224.48 161.95 223.29 161.28 222.48 C 160.62 221.68 159.43 221.56 158.62 222.23 Z M 158.01 222.74 L 157.19 223.29 C 156.32 223.88 156.10 225.06 156.69 225.93 C 157.27 226.79 158.45 227.02 159.32 226.43 L 160.14 225.87 C 161.00 225.29 161.23 224.11 160.64 223.24 C 160.06 222.38 158.88 222.15 158.01 222.74 Z M 157.32 223.21 L 156.44 223.71 C 155.53 224.22 155.21 225.38 155.72 226.29 C 156.24 227.20 157.39 227.52 158.30 227.01 L 159.18 226.51 C 160.09 226.00 160.42 224.84 159.90 223.93 C 159.39 223.02 158.23 222.70 157.32 223.21 Z M 156.54 223.65 L 155.66 224.08 C 154.71 224.54 154.32 225.68 154.78 226.62 C 155.24 227.56 156.38 227.95 157.32 227.50 L 158.21 227.06 C 159.15 226.60 159.54 225.47 159.08 224.53 C 158.62 223.58 157.49 223.19 156.54 223.65 Z M 155.73 224.05 L 154.79 224.45 C 153.83 224.87 153.39 225.99 153.81 226.95 C 154.22 227.91 155.34 228.36 156.30 227.94 L 157.24 227.53 C 158.21 227.12 158.65 226.00 158.23 225.03 C 157.81 224.07 156.70 223.63 155.73 224.05 Z M 154.86 224.42 L 153.91 224.79 C 152.93 225.17 152.44 226.27 152.82 227.25 C 153.20 228.23 154.30 228.72 155.29 228.34 L 156.24 227.97 C 157.22 227.59 157.70 226.49 157.32 225.51 C 156.94 224.53 155.84 224.04 154.86 224.42 Z M 153.98 224.76 L 153.00 225.10 C 152.01 225.44 151.48 226.52 151.82 227.52 C 152.16 228.51 153.24 229.04 154.24 228.70 L 155.22 228.37 C 156.21 228.03 156.74 226.94 156.40 225.95 C 156.06 224.95 154.97 224.42 153.98 224.76 Z M 153.08 225.07 L 152.08 225.36 C 151.07 225.66 150.49 226.72 150.78 227.73 C 151.08 228.74 152.14 229.32 153.15 229.02 L 154.16 228.73 C 155.17 228.43 155.75 227.37 155.45 226.36 C 155.15 225.35 154.09 224.77 153.08 225.07 Z M 152.17 225.34 L 151.21 225.57 C 150.19 225.81 149.56 226.84 149.80 227.86 C 150.04 228.89 151.07 229.52 152.10 229.28 L 153.05 229.05 C 154.08 228.81 154.71 227.78 154.47 226.75 C 154.23 225.73 153.20 225.10 152.17 225.34 Z M 151.32 225.54 L 150.39 225.71 C 149.36 225.90 148.67 226.89 148.86 227.93 C 149.04 228.97 150.04 229.65 151.07 229.47 L 152.00 229.30 C 153.03 229.11 153.72 228.12 153.53 227.08 C 153.35 226.05 152.35 225.36 151.32 225.54 Z M 150.50 225.70 L 149.57 225.81 C 148.52 225.94 147.78 226.90 147.91 227.94 C 148.04 228.99 148.99 229.73 150.04 229.60 L 150.97 229.48 C 152.01 229.35 152.76 228.40 152.63 227.35 C 152.50 226.31 151.54 225.57 150.50 225.70 Z M 149.66 225.80 L 148.70 225.87 C 147.65 225.95 146.86 226.87 146.94 227.92 C 147.02 228.97 147.93 229.76 148.98 229.68 L 149.94 229.61 C 150.99 229.53 151.78 228.62 151.70 227.56 C 151.63 226.51 150.71 225.72 149.66 225.80 Z M 148.77 225.87 L 147.74 225.91 C 146.69 225.95 145.87 226.83 145.91 227.89 C 145.95 228.94 146.83 229.76 147.89 229.72 L 148.92 229.68 C 149.97 229.64 150.79 228.76 150.75 227.70 C 150.71 226.65 149.83 225.83 148.77 225.87 Z M 147.78 225.91 L 146.75 225.93 C 145.69 225.94 144.85 226.81 144.87 227.87 C 144.89 228.92 145.76 229.76 146.81 229.74 L 147.85 229.72 C 148.90 229.70 149.74 228.83 149.72 227.78 C 149.70 226.73 148.83 225.89 147.78 225.91 Z M 146.78 225.93 L 145.78 225.93 C 144.73 225.93 143.88 226.78 143.88 227.84 C 143.88 228.89 144.73 229.74 145.79 229.74 L 146.78 229.74 C 147.83 229.74 148.69 228.88 148.69 227.83 C 148.69 226.78 147.83 225.93 146.78 225.93 Z M 145.83 225.93 L 144.81 225.90 C 143.75 225.87 142.88 226.70 142.85 227.76 C 142.82 228.81 143.65 229.68 144.71 229.71 L 145.73 229.74 C 146.78 229.77 147.66 228.94 147.69 227.88 C 147.72 226.83 146.89 225.96 145.83 225.93 Z M 144.89 225.91 L 143.87 225.84 C 142.82 225.77 141.91 226.56 141.84 227.61 C 141.77 228.66 142.56 229.56 143.61 229.64 L 144.63 229.71 C 145.67 229.78 146.58 228.99 146.65 227.94 C 146.73 226.89 145.93 225.98 144.89 225.91 Z M 143.99 225.85 L 142.99 225.72 C 141.95 225.58 140.99 226.31 140.85 227.35 C 140.71 228.39 141.44 229.35 142.48 229.49 L 143.49 229.62 C 144.53 229.76 145.49 229.03 145.62 227.99 C 145.76 226.95 145.03 225.99 143.99 225.85 Z M 143.16 225.77 L 142.12 225.53 C 141.11 225.29 140.10 225.92 139.86 226.94 C 139.63 227.95 140.26 228.97 141.27 229.20 L 142.31 229.44 C 143.33 229.68 144.34 229.04 144.57 228.03 C 144.81 227.01 144.17 226.00 143.16 225.77 Z M 142.32 225.60 L 141.39 225.28 C 140.42 224.93 139.35 225.45 139.01 226.42 C 138.67 227.39 139.18 228.45 140.15 228.80 L 141.08 229.12 C 142.05 229.47 143.12 228.96 143.46 227.98 C 143.80 227.01 143.29 225.95 142.32 225.60 Z M 141.57 225.38 L 140.73 224.97 C 139.81 224.52 138.71 224.90 138.26 225.82 C 137.82 226.74 138.20 227.84 139.12 228.29 L 139.96 228.70 C 140.88 229.14 141.98 228.76 142.43 227.84 C 142.87 226.93 142.49 225.82 141.57 225.38 Z M 140.90 225.09 L 140.06 224.56 C 139.21 224.02 138.09 224.27 137.55 225.12 C 137.01 225.97 137.26 227.10 138.11 227.64 L 138.95 228.17 C 139.80 228.70 140.92 228.45 141.46 227.60 C 142.00 226.75 141.75 225.63 140.90 225.09 Z M 140.21 224.70 L 139.43 224.07 C 138.65 223.45 137.53 223.57 136.91 224.35 C 136.29 225.12 136.41 226.25 137.18 226.87 L 137.97 227.50 C 138.74 228.12 139.87 227.99 140.49 227.22 C 141.11 226.45 140.98 225.32 140.21 224.70 Z M 139.55 224.22 L 138.85 223.52 C 138.15 222.83 137.04 222.84 136.35 223.53 C 135.66 224.22 135.67 225.34 136.36 226.02 L 137.06 226.72 C 137.75 227.41 138.87 227.41 139.56 226.71 C 140.24 226.02 140.24 224.90 139.55 224.22 Z M 138.94 223.67 L 138.32 222.91 C 137.71 222.17 136.61 222.06 135.87 222.67 C 135.13 223.28 135.03 224.38 135.64 225.12 L 136.26 225.88 C 136.87 226.62 137.97 226.72 138.71 226.11 C 139.45 225.50 139.55 224.41 138.94 223.67 Z M 138.40 223.07 L 137.86 222.25 C 137.33 221.46 136.27 221.25 135.49 221.77 C 134.70 222.30 134.49 223.36 135.01 224.14 L 135.55 224.96 C 136.08 225.75 137.14 225.96 137.93 225.44 C 138.71 224.91 138.93 223.85 138.40 223.07 Z M 137.93 222.42 L 137.46 221.53 C 137.03 220.70 136.01 220.38 135.19 220.81 C 134.37 221.24 134.05 222.26 134.48 223.09 L 134.94 223.98 C 135.37 224.80 136.39 225.12 137.21 224.69 C 138.04 224.26 138.36 223.24 137.93 222.42 Z M 137.51 221.69 L 137.14 220.76 C 136.80 219.91 135.84 219.49 134.98 219.83 C 134.13 220.17 133.72 221.14 134.05 221.99 L 134.43 222.92 C 134.77 223.77 135.73 224.19 136.58 223.85 C 137.44 223.51 137.85 222.54 137.51 221.69 Z M 137.17 220.89 L 136.89 219.96 C 136.62 219.09 135.70 218.60 134.83 218.86 C 133.95 219.13 133.47 220.06 133.73 220.93 L 134.02 221.86 C 134.29 222.73 135.21 223.22 136.08 222.95 C 136.95 222.68 137.44 221.76 137.17 220.89 Z M 136.90 220.04 L 136.66 219.06 C 136.43 218.18 135.54 217.64 134.66 217.87 C 133.78 218.09 133.24 218.99 133.47 219.87 L 133.72 220.85 C 133.94 221.73 134.84 222.26 135.72 222.04 C 136.60 221.81 137.13 220.92 136.90 220.04 Z M 136.66 219.10 L 136.43 218.10 C 136.23 217.21 135.35 216.66 134.47 216.86 C 133.59 217.06 133.03 217.94 133.23 218.83 L 133.46 219.83 C 133.66 220.71 134.54 221.26 135.43 221.06 C 136.31 220.86 136.86 219.98 136.66 219.10 Z M 136.43 218.11 L 136.40 217.94 C 136.20 217.06 135.32 216.50 134.44 216.70 C 133.56 216.89 133.00 217.77 133.20 218.65 L 133.23 218.82 C 133.43 219.70 134.31 220.26 135.19 220.06 C 136.07 219.86 136.63 218.99 136.43 218.11 Z"
      fill="black"
      fill-rule="nonzero" /></svg>