<svg xmlns="http://www.w3.org/2000/svg" width="300" height="300" viewBox="0 0 300 300">
<path d="M 149.23 177.61 L 148.84 178.51 C 148.42 179.48 148.86 180.60 149.83 181.02 C 150.79 181.43 151.91 180.99 152.33 180.03 L 152.72 179.12 C 153.14 178.16 152.70 177.04 151.73 176.62 C 150.77 176.20 149.65 176.65 149.23 177.61 Z M 148.83 178.53 L 148.44 179.44 C 148.03 180.41 148.49 181.53 149.45 181.94 C 150.42 182.35 151.54 181.90 151.95 180.93 L 152.34 180.01 C 152.75 179.05 152.30 177.93 151.33 177.52 C 150.36 177.11 149.24 177.56 148.83 178.53 Z M 148.43 179.47 L 148.05 180.40 C 147.66 181.38 148.12 182.49 149.10 182.88 C 150.07 183.28 151.18 182.81 151.58 181.84 L 151.96 180.90 C 152.36 179.93 151.89 178.82 150.91 178.42 C 149.94 178.03 148.83 178.49 148.43 179.47 Z M 148.04 180.44 L 147.68 181.38 C 147.30 182.36 147.79 183.46 148.77 183.84 C 149.75 184.21 150.85 183.73 151.23 182.74 L 151.59 181.81 C 151.97 180.82 151.48 179.72 150.50 179.34 C 149.52 178.97 148.42 179.45 148.04 180.44 Z M 147.66 181.40 L 147.32 182.35 C 146.95 183.33 147.46 184.43 148.45 184.79 C 149.44 185.15 150.53 184.65 150.89 183.66 L 151.24 182.72 C 151.60 181.73 151.10 180.63 150.11 180.27 C 149.12 179.91 148.03 180.41 147.66 181.40 Z M 147.31 182.36 L 146.97 183.30 C 146.61 184.29 147.13 185.39 148.12 185.74 C 149.11 186.10 150.20 185.59 150.56 184.60 L 150.90 183.65 C 151.26 182.66 150.74 181.57 149.75 181.21 C 148.76 180.85 147.67 181.37 147.31 182.36 Z M 146.97 183.30 L 146.64 184.22 C 146.28 185.21 146.79 186.31 147.78 186.67 C 148.77 187.03 149.86 186.52 150.22 185.53 L 150.56 184.60 C 150.92 183.61 150.41 182.52 149.42 182.16 C 148.43 181.80 147.33 182.31 146.97 183.30 Z M 146.64 184.21 L 146.32 185.07 C 145.95 186.06 146.45 187.16 147.44 187.53 C 148.43 187.89 149.53 187.39 149.90 186.40 L 150.22 185.54 C 150.59 184.55 150.08 183.45 149.10 183.09 C 148.11 182.72 147.01 183.22 146.64 184.21 Z M 146.32 185.07 L 145.98 185.96 C 145.61 186.94 146.11 188.05 147.10 188.42 C 148.09 188.79 149.19 188.29 149.56 187.30 L 149.90 186.41 C 150.27 185.42 149.77 184.32 148.78 183.95 C 147.79 183.58 146.69 184.08 146.32 185.07 Z M 145.98 185.96 L 145.62 186.94 C 145.25 187.93 145.76 189.03 146.75 189.39 C 147.74 189.76 148.84 189.26 149.21 188.27 L 149.57 187.29 C 149.93 186.30 149.43 185.20 148.44 184.83 C 147.45 184.47 146.35 184.97 145.98 185.96 Z M 145.61 186.95 L 145.25 187.96 C 144.89 188.95 145.40 190.05 146.40 190.41 C 147.39 190.77 148.49 190.25 148.85 189.26 L 149.21 188.25 C 149.57 187.26 149.06 186.16 148.06 185.80 C 147.07 185.44 145.97 185.96 145.61 186.95 Z M 145.24 187.97 L 144.92 188.89 C 144.56 189.89 145.09 190.99 146.08 191.34 C 147.08 191.69 148.18 191.17 148.53 190.17 L 148.85 189.25 C 149.21 188.25 148.68 187.16 147.68 186.80 C 146.69 186.45 145.59 186.97 145.24 187.97 Z M 144.91 188.90 L 144.57 189.87 C 144.23 190.87 144.75 191.96 145.75 192.31 C 146.75 192.66 147.85 192.13 148.19 191.13 L 148.53 190.16 C 148.88 189.16 148.35 188.07 147.35 187.72 C 146.35 187.37 145.26 187.90 144.91 188.90 Z M 144.57 189.87 L 144.23 190.85 C 143.89 191.85 144.42 192.95 145.42 193.29 C 146.42 193.64 147.51 193.11 147.86 192.11 L 148.20 191.13 C 148.54 190.13 148.01 189.04 147.01 188.69 C 146.01 188.34 144.92 188.87 144.57 189.87 Z M 144.23 190.85 L 143.90 191.81 C 143.55 192.81 144.09 193.90 145.09 194.25 C 146.09 194.59 147.18 194.06 147.53 193.06 L 147.86 192.11 C 148.20 191.11 147.67 190.01 146.67 189.67 C 145.67 189.32 144.58 189.85 144.23 190.85 Z M 143.90 191.80 L 143.56 192.77 C 143.22 193.78 143.74 194.87 144.75 195.22 C 145.75 195.57 146.84 195.04 147.19 194.04 L 147.53 193.07 C 147.88 192.06 147.35 190.97 146.35 190.62 C 145.34 190.27 144.25 190.80 143.90 191.80 Z M 143.56 192.77 L 143.21 193.77 C 142.86 194.77 143.39 195.87 144.39 196.22 C 145.39 196.57 146.49 196.04 146.84 195.04 L 147.19 194.04 C 147.54 193.04 147.01 191.94 146.01 191.59 C 145.01 191.24 143.91 191.77 143.56 192.77 Z M 143.21 193.78 L 142.89 194.71 C 142.54 195.71 143.08 196.80 144.08 197.15 C 145.08 197.50 146.17 196.96 146.52 195.96 L 146.84 195.04 C 147.19 194.03 146.65 192.94 145.65 192.59 C 144.65 192.25 143.56 192.78 143.21 193.78 Z M 142.88 194.73 L 142.59 195.62 C 142.25 196.62 142.79 197.71 143.80 198.05 C 144.80 198.38 145.89 197.84 146.23 196.84 L 146.53 195.94 C 146.86 194.94 146.32 193.85 145.31 193.51 C 144.31 193.18 143.22 193.72 142.88 194.73 Z M 142.58 195.65 L 142.29 196.55 C 141.97 197.57 142.53 198.64 143.54 198.96 C 144.55 199.28 145.63 198.72 145.95 197.71 L 146.24 196.81 C 146.56 195.79 146.00 194.72 144.99 194.40 C 143.97 194.08 142.90 194.64 142.58 195.65 Z M 142.28 196.60 L 142.00 197.55 C 141.70 198.56 142.29 199.63 143.31 199.92 C 144.33 200.22 145.39 199.64 145.69 198.62 L 145.96 197.67 C 146.26 196.65 145.67 195.59 144.66 195.29 C 143.64 194.99 142.57 195.58 142.28 196.60 Z M 141.98 197.61 L 141.74 198.58 C 141.47 199.61 142.10 200.65 143.12 200.91 C 144.15 201.18 145.20 200.56 145.46 199.53 L 145.70 198.55 C 145.97 197.53 145.35 196.48 144.32 196.22 C 143.29 195.96 142.25 196.58 141.98 197.61 Z M 141.72 198.66 L 141.51 199.65 C 141.29 200.69 141.96 201.71 143.00 201.93 C 144.04 202.14 145.05 201.48 145.27 200.44 L 145.48 199.45 C 145.69 198.41 145.03 197.39 143.99 197.17 C 142.95 196.96 141.93 197.62 141.72 198.66 Z M 141.49 199.76 L 141.33 200.84 C 141.17 201.89 141.90 202.86 142.95 203.02 C 144.00 203.18 144.97 202.45 145.13 201.40 L 145.29 200.33 C 145.44 199.28 144.72 198.30 143.67 198.15 C 142.62 197.99 141.65 198.72 141.49 199.76 Z M 141.31 201.02 L 141.25 202.12 C 141.20 203.18 142.01 204.09 143.07 204.14 C 144.12 204.20 145.03 203.39 145.09 202.33 L 145.15 201.23 C 145.20 200.17 144.39 199.26 143.33 199.21 C 142.28 199.15 141.37 199.96 141.31 201.02 Z M 141.26 202.46 L 141.38 203.42 C 141.51 204.47 142.47 205.22 143.52 205.09 C 144.57 204.96 145.32 204.01 145.19 202.95 L 145.07 202.00 C 144.95 200.94 143.99 200.19 142.94 200.32 C 141.89 200.45 141.14 201.41 141.26 202.46 Z M 141.57 204.05 L 141.93 204.76 C 142.41 205.71 143.56 206.09 144.51 205.61 C 145.45 205.13 145.83 203.98 145.36 203.03 L 145.00 202.32 C 144.52 201.38 143.37 201.00 142.42 201.47 C 141.48 201.95 141.10 203.10 141.57 204.05 Z M 142.66 205.54 L 143.31 205.93 C 144.22 206.48 145.40 206.18 145.94 205.28 C 146.49 204.37 146.19 203.19 145.29 202.64 L 144.63 202.25 C 143.72 201.71 142.54 202.00 142.00 202.91 C 141.46 203.82 141.75 205.00 142.66 205.54 Z M 144.10 206.19 L 145.03 206.29 C 146.09 206.41 147.03 205.65 147.14 204.59 C 147.25 203.54 146.49 202.60 145.44 202.48 L 144.50 202.38 C 143.45 202.27 142.51 203.03 142.40 204.09 C 142.28 205.14 143.04 206.08 144.10 206.19 Z M 145.45 206.29 L 146.65 206.16 C 147.70 206.04 148.45 205.09 148.33 204.04 C 148.21 202.99 147.26 202.23 146.21 202.35 L 145.02 202.49 C 143.97 202.61 143.21 203.56 143.33 204.61 C 143.45 205.66 144.40 206.41 145.45 206.29 Z M 146.83 206.12 L 147.84 205.91 C 148.87 205.69 149.53 204.68 149.31 203.64 C 149.09 202.61 148.08 201.95 147.04 202.17 L 146.03 202.38 C 145.00 202.60 144.34 203.62 144.56 204.65 C 144.78 205.68 145.79 206.34 146.83 206.12 Z M 147.91 205.89 L 148.87 205.65 C 149.90 205.39 150.51 204.34 150.25 203.32 C 149.99 202.30 148.95 201.68 147.93 201.94 L 146.97 202.19 C 145.94 202.45 145.32 203.49 145.59 204.51 C 145.85 205.54 146.89 206.15 147.91 205.89 Z M 148.91 205.64 L 149.91 205.36 C 150.93 205.08 151.52 204.02 151.24 203.00 C 150.95 201.99 149.90 201.39 148.88 201.67 L 147.89 201.95 C 146.87 202.23 146.27 203.29 146.56 204.31 C 146.84 205.32 147.89 205.92 148.91 205.64 Z M 149.93 205.35 L 150.92 205.07 C 151.94 204.77 152.52 203.71 152.23 202.70 C 151.94 201.68 150.88 201.10 149.86 201.39 L 148.86 201.68 C 147.85 201.97 147.26 203.03 147.56 204.05 C 147.85 205.06 148.91 205.65 149.93 205.35 Z M 150.92 205.07 L 151.89 204.79 C 152.91 204.49 153.49 203.43 153.20 202.42 C 152.91 201.40 151.85 200.82 150.83 201.11 L 149.86 201.39 C 148.85 201.68 148.26 202.74 148.56 203.76 C 148.85 204.77 149.91 205.36 150.92 205.07 Z M 151.87 204.79 L 152.90 204.51 C 153.92 204.23 154.52 203.17 154.24 202.15 C 153.96 201.14 152.91 200.54 151.89 200.82 L 150.85 201.10 C 149.84 201.39 149.24 202.44 149.52 203.46 C 149.80 204.48 150.85 205.07 151.87 204.79 Z M 152.86 204.52 L 153.91 204.26 C 154.94 204.00 155.56 202.96 155.31 201.94 C 155.05 200.91 154.01 200.29 152.99 200.54 L 151.93 200.81 C 150.91 201.06 150.28 202.10 150.54 203.13 C 150.79 204.15 151.83 204.77 152.86 204.52 Z M 153.85 204.27 L 154.81 204.07 C 155.84 203.85 156.50 202.83 156.29 201.80 C 156.07 200.76 155.05 200.10 154.01 200.32 L 153.05 200.53 C 152.02 200.75 151.36 201.76 151.58 202.80 C 151.80 203.83 152.81 204.49 153.85 204.27 Z M 154.73 204.08 L 155.63 203.93 C 156.67 203.76 157.38 202.77 157.20 201.73 C 157.03 200.68 156.04 199.98 155.00 200.16 L 154.10 200.31 C 153.05 200.48 152.35 201.47 152.52 202.51 C 152.70 203.56 153.69 204.26 154.73 204.08 Z M 155.53 203.95 L 156.48 203.84 C 157.53 203.72 158.28 202.77 158.16 201.72 C 158.04 200.67 157.09 199.91 156.04 200.03 L 155.10 200.14 C 154.04 200.26 153.29 201.21 153.41 202.26 C 153.53 203.31 154.48 204.07 155.53 203.95 Z M 156.31 203.85 L 157.34 203.83 C 158.40 203.80 159.23 202.92 159.20 201.86 C 159.18 200.80 158.29 199.96 157.24 199.99 L 156.21 200.02 C 155.15 200.05 154.31 200.93 154.34 201.99 C 154.37 203.05 155.25 203.88 156.31 203.85 Z M 157.04 203.81 L 158.01 203.94 C 159.06 204.07 160.02 203.33 160.16 202.28 C 160.30 201.23 159.55 200.26 158.50 200.13 L 157.53 200.00 C 156.48 199.87 155.52 200.61 155.38 201.66 C 155.25 202.72 155.99 203.68 157.04 203.81 Z M 157.59 203.84 L 158.48 204.17 C 159.47 204.54 160.58 204.03 160.95 203.03 C 161.32 202.04 160.81 200.93 159.82 200.56 L 158.92 200.23 C 157.93 199.86 156.82 200.37 156.45 201.37 C 156.08 202.36 156.59 203.47 157.59 203.84 Z M 158.05 203.94 L 158.83 204.49 C 159.70 205.09 160.90 204.88 161.51 204.00 C 162.11 203.13 161.90 201.93 161.03 201.33 L 160.24 200.78 C 159.37 200.18 158.17 200.40 157.57 201.27 C 156.96 202.14 157.18 203.34 158.05 203.94 Z M 158.54 204.24 L 159.24 204.96 C 159.98 205.73 161.19 205.75 161.96 205.01 C 162.72 204.27 162.74 203.06 162.01 202.29 L 161.31 201.57 C 160.58 200.81 159.36 200.78 158.59 201.52 C 157.83 202.26 157.81 203.48 158.54 204.24 Z M 159.06 204.74 L 159.66 205.59 C 160.27 206.45 161.47 206.65 162.34 206.04 C 163.20 205.42 163.41 204.22 162.79 203.36 L 162.19 202.51 C 161.57 201.65 160.37 201.44 159.51 202.06 C 158.64 202.68 158.44 203.88 159.06 204.74 Z M 159.54 205.40 L 160.02 206.27 C 160.53 207.20 161.70 207.54 162.63 207.03 C 163.56 206.51 163.90 205.34 163.39 204.41 L 162.91 203.54 C 162.40 202.61 161.23 202.27 160.30 202.79 C 159.37 203.30 159.03 204.47 159.54 205.40 Z M 159.93 206.09 L 160.31 206.99 C 160.72 207.97 161.85 208.42 162.83 208.01 C 163.81 207.60 164.27 206.47 163.85 205.49 L 163.47 204.59 C 163.06 203.61 161.93 203.16 160.95 203.57 C 159.98 203.98 159.52 205.11 159.93 206.09 Z M 160.25 206.81 L 160.54 207.77 C 160.86 208.78 161.94 209.35 162.95 209.03 C 163.97 208.72 164.53 207.64 164.22 206.62 L 163.92 205.67 C 163.60 204.65 162.52 204.09 161.51 204.40 C 160.50 204.72 159.93 205.80 160.25 206.81 Z M 160.50 207.60 L 160.72 208.62 C 160.94 209.66 161.96 210.32 163.00 210.09 C 164.04 209.87 164.70 208.85 164.48 207.81 L 164.26 206.79 C 164.04 205.75 163.01 205.09 161.98 205.32 C 160.94 205.54 160.28 206.56 160.50 207.60 Z M 160.69 208.47 L 160.83 209.47 C 160.97 210.52 161.94 211.26 162.99 211.12 C 164.05 210.97 164.78 210.01 164.64 208.95 L 164.50 207.96 C 164.36 206.90 163.39 206.17 162.34 206.31 C 161.29 206.45 160.55 207.42 160.69 208.47 Z M 160.82 209.37 L 160.90 210.39 C 160.99 211.44 161.91 212.23 162.97 212.15 C 164.03 212.06 164.82 211.14 164.73 210.08 L 164.65 209.06 C 164.57 208.00 163.64 207.21 162.58 207.30 C 161.52 207.38 160.73 208.31 160.82 209.37 Z M 160.90 210.31 L 160.94 211.32 C 160.98 212.38 161.87 213.20 162.93 213.16 C 163.99 213.12 164.82 212.23 164.78 211.17 L 164.74 210.16 C 164.69 209.10 163.80 208.27 162.74 208.31 C 161.68 208.36 160.85 209.25 160.90 210.31 Z M 160.94 211.26 L 160.95 212.23 C 160.96 213.29 161.83 214.14 162.89 214.12 C 163.95 214.11 164.80 213.24 164.79 212.18 L 164.78 211.22 C 164.76 210.16 163.90 209.31 162.83 209.32 C 161.77 209.33 160.92 210.20 160.94 211.26 Z M 160.95 212.17 L 160.93 213.19 C 160.91 214.25 161.76 215.13 162.82 215.14 C 163.88 215.16 164.75 214.32 164.77 213.26 L 164.79 212.24 C 164.80 211.18 163.96 210.30 162.90 210.29 C 161.84 210.27 160.97 211.11 160.95 212.17 Z M 160.94 213.06 L 160.86 214.03 C 160.77 215.09 161.55 216.02 162.61 216.10 C 163.66 216.19 164.59 215.41 164.68 214.35 L 164.76 213.39 C 164.85 212.33 164.07 211.40 163.01 211.31 C 161.96 211.23 161.03 212.01 160.94 213.06 Z M 160.89 213.82 L 160.70 214.79 C 160.49 215.82 161.17 216.83 162.21 217.04 C 163.25 217.24 164.25 216.57 164.46 215.53 L 164.65 214.56 C 164.85 213.53 164.18 212.52 163.14 212.31 C 162.10 212.11 161.09 212.78 160.89 213.82 Z M 160.76 214.55 L 160.45 215.49 C 160.12 216.49 160.66 217.58 161.66 217.91 C 162.67 218.24 163.75 217.70 164.09 216.70 L 164.40 215.76 C 164.73 214.76 164.19 213.67 163.18 213.34 C 162.18 213.01 161.10 213.55 160.76 214.55 Z M 160.52 215.31 L 160.12 216.21 C 159.69 217.18 160.12 218.31 161.09 218.74 C 162.05 219.17 163.18 218.74 163.62 217.77 L 164.02 216.87 C 164.45 215.91 164.01 214.78 163.05 214.34 C 162.08 213.91 160.95 214.35 160.52 215.31 Z M 160.18 216.10 L 159.70 217.00 C 159.20 217.94 159.56 219.10 160.49 219.59 C 161.43 220.09 162.58 219.73 163.08 218.79 L 163.56 217.89 C 164.05 216.95 163.70 215.80 162.76 215.30 C 161.83 214.81 160.67 215.16 160.18 216.10 Z M 159.74 216.92 L 159.22 217.80 C 158.68 218.71 158.98 219.88 159.88 220.42 C 160.79 220.96 161.96 220.67 162.51 219.76 L 163.03 218.88 C 163.57 217.97 163.27 216.80 162.37 216.26 C 161.46 215.72 160.29 216.01 159.74 216.92 Z M 159.26 217.73 L 158.71 218.58 C 158.13 219.46 158.37 220.65 159.26 221.23 C 160.14 221.81 161.33 221.56 161.91 220.68 L 162.46 219.83 C 163.04 218.94 162.79 217.76 161.91 217.18 C 161.03 216.60 159.84 216.85 159.26 217.73 Z M 158.76 218.51 L 158.17 219.32 C 157.55 220.18 157.74 221.37 158.60 221.99 C 159.45 222.61 160.65 222.42 161.27 221.56 L 161.85 220.75 C 162.47 219.89 162.28 218.70 161.43 218.08 C 160.57 217.46 159.38 217.65 158.76 218.51 Z M 158.23 219.24 L 157.62 220.00 C 156.95 220.82 157.08 222.02 157.90 222.69 C 158.72 223.35 159.92 223.23 160.58 222.41 L 161.20 221.65 C 161.86 220.83 161.74 219.62 160.92 218.96 C 160.10 218.29 158.90 218.42 158.23 219.24 Z M 157.69 219.91 L 157.02 220.65 C 156.31 221.43 156.37 222.63 157.14 223.34 C 157.92 224.06 159.13 224.00 159.84 223.22 L 160.51 222.49 C 161.22 221.71 161.17 220.50 160.39 219.79 C 159.61 219.08 158.40 219.14 157.69 219.91 Z M 157.09 220.57 L 156.41 221.25 C 155.66 221.99 155.65 223.20 156.39 223.95 C 157.13 224.70 158.34 224.71 159.09 223.97 L 159.77 223.29 C 160.52 222.55 160.53 221.35 159.79 220.59 C 159.05 219.84 157.84 219.83 157.09 220.57 Z M 156.47 221.19 L 155.74 221.85 C 154.96 222.55 154.90 223.76 155.60 224.54 C 156.31 225.32 157.52 225.39 158.30 224.68 L 159.02 224.03 C 159.81 223.32 159.87 222.12 159.16 221.33 C 158.46 220.55 157.25 220.49 156.47 221.19 Z M 155.80 221.80 L 155.03 222.44 C 154.22 223.11 154.10 224.32 154.78 225.13 C 155.45 225.94 156.65 226.05 157.46 225.38 L 158.24 224.73 C 159.05 224.06 159.16 222.86 158.49 222.05 C 157.82 221.24 156.61 221.12 155.80 221.80 Z M 155.09 222.39 L 154.26 223.02 C 153.43 223.66 153.27 224.86 153.91 225.70 C 154.55 226.53 155.75 226.69 156.58 226.05 L 157.40 225.42 C 158.24 224.78 158.40 223.59 157.76 222.75 C 157.12 221.91 155.92 221.76 155.09 222.39 Z M 154.33 222.98 L 153.49 223.57 C 152.63 224.18 152.42 225.37 153.03 226.23 C 153.63 227.08 154.82 227.29 155.68 226.69 L 156.52 226.09 C 157.38 225.49 157.59 224.30 156.98 223.44 C 156.37 222.58 155.19 222.38 154.33 222.98 Z M 153.56 223.53 L 152.71 224.08 C 151.82 224.65 151.57 225.82 152.14 226.70 C 152.70 227.59 153.88 227.84 154.76 227.27 L 155.61 226.73 C 156.49 226.16 156.75 224.98 156.18 224.10 C 155.61 223.22 154.44 222.96 153.56 223.53 Z M 152.78 224.04 L 151.91 224.54 C 151.01 225.07 150.70 226.22 151.22 227.13 C 151.75 228.03 152.91 228.34 153.81 227.82 L 154.68 227.31 C 155.59 226.79 155.90 225.63 155.37 224.73 C 154.85 223.82 153.69 223.51 152.78 224.04 Z M 152.01 224.50 L 151.12 224.95 C 150.19 225.42 149.82 226.56 150.30 227.49 C 150.77 228.42 151.90 228.79 152.83 228.31 L 153.72 227.86 C 154.65 227.39 155.02 226.25 154.54 225.32 C 154.07 224.39 152.93 224.03 152.01 224.50 Z M 151.23 224.91 L 150.32 225.30 C 149.37 225.71 148.93 226.82 149.35 227.77 C 149.76 228.72 150.87 229.16 151.82 228.75 L 152.72 228.36 C 153.68 227.94 154.11 226.84 153.70 225.88 C 153.29 224.93 152.18 224.49 151.23 224.91 Z M 150.45 225.26 L 149.50 225.60 C 148.52 225.94 148.01 227.01 148.36 227.98 C 148.70 228.96 149.77 229.47 150.74 229.12 L 151.69 228.79 C 152.67 228.44 153.18 227.38 152.84 226.40 C 152.49 225.43 151.42 224.92 150.45 225.26 Z M 149.63 225.57 L 148.67 225.83 C 147.68 226.10 147.09 227.13 147.37 228.12 C 147.64 229.11 148.66 229.69 149.65 229.42 L 150.61 229.15 C 151.60 228.88 152.18 227.86 151.91 226.87 C 151.64 225.88 150.62 225.29 149.63 225.57 Z M 148.79 225.81 L 147.82 226.01 C 146.82 226.22 146.17 227.19 146.38 228.19 C 146.58 229.19 147.56 229.84 148.56 229.63 L 149.53 229.43 C 150.53 229.23 151.17 228.25 150.97 227.25 C 150.76 226.25 149.79 225.61 148.79 225.81 Z M 147.93 226.01 L 146.94 226.15 C 145.94 226.29 145.24 227.21 145.38 228.22 C 145.52 229.22 146.45 229.92 147.45 229.78 L 148.44 229.64 C 149.44 229.50 150.14 228.57 150.00 227.57 C 149.86 226.56 148.93 225.86 147.93 226.01 Z M 147.05 226.15 L 146.04 226.23 C 145.03 226.31 144.29 227.19 144.37 228.19 C 144.45 229.19 145.33 229.94 146.33 229.86 L 147.35 229.77 C 148.35 229.69 149.09 228.82 149.01 227.81 C 148.93 226.81 148.05 226.07 147.05 226.15 Z M 146.16 226.25 L 145.15 226.26 C 144.15 226.27 143.36 227.09 143.37 228.08 C 143.38 229.07 144.20 229.87 145.19 229.85 L 146.20 229.84 C 147.20 229.83 147.99 229.02 147.98 228.02 C 147.97 227.03 147.15 226.23 146.16 226.25 Z M 145.30 226.28 L 144.30 226.21 C 143.32 226.14 142.47 226.88 142.40 227.86 C 142.33 228.84 143.07 229.69 144.05 229.76 L 145.04 229.83 C 146.02 229.90 146.87 229.16 146.94 228.18 C 147.01 227.21 146.28 226.35 145.30 226.28 Z M 144.48 226.25 L 143.53 226.09 C 142.57 225.92 141.66 226.55 141.49 227.51 C 141.32 228.47 141.96 229.38 142.91 229.55 L 143.87 229.72 C 144.82 229.88 145.74 229.25 145.91 228.29 C 146.08 227.34 145.44 226.42 144.48 226.25 Z M 143.74 226.16 L 142.74 225.85 C 141.83 225.56 140.85 226.07 140.57 226.98 C 140.28 227.90 140.79 228.87 141.70 229.16 L 142.70 229.47 C 143.61 229.76 144.59 229.25 144.87 228.34 C 145.16 227.42 144.65 226.45 143.74 226.16 Z M 142.96 225.96 L 142.04 225.52 C 141.19 225.12 140.17 225.48 139.76 226.33 C 139.36 227.19 139.72 228.21 140.57 228.61 L 141.49 229.05 C 142.34 229.45 143.36 229.09 143.77 228.24 C 144.17 227.38 143.81 226.36 142.96 225.96 Z M 142.24 225.66 L 141.42 225.12 C 140.64 224.61 139.60 224.82 139.08 225.60 C 138.57 226.38 138.78 227.42 139.56 227.94 L 140.38 228.47 C 141.15 228.99 142.20 228.77 142.71 228.00 C 143.23 227.22 143.01 226.17 142.24 225.66 Z M 141.60 225.29 L 140.88 224.64 C 140.20 224.03 139.14 224.09 138.53 224.77 C 137.92 225.46 137.97 226.51 138.66 227.12 L 139.38 227.77 C 140.07 228.38 141.12 228.32 141.73 227.64 C 142.35 226.95 142.29 225.90 141.60 225.29 Z M 141.04 224.83 L 140.40 224.05 C 139.82 223.35 138.78 223.25 138.07 223.84 C 137.37 224.42 137.27 225.46 137.86 226.16 L 138.50 226.94 C 139.08 227.64 140.12 227.74 140.83 227.16 C 141.53 226.57 141.63 225.53 141.04 224.83 Z M 140.50 224.20 L 139.96 223.38 C 139.46 222.62 138.44 222.40 137.68 222.90 C 136.92 223.40 136.71 224.42 137.21 225.18 L 137.75 226.01 C 138.25 226.77 139.27 226.98 140.03 226.48 C 140.79 225.98 141.00 224.96 140.50 224.20 Z M 140.00 223.45 L 139.53 222.65 C 139.07 221.86 138.07 221.60 137.29 222.05 C 136.50 222.51 136.24 223.51 136.70 224.30 L 137.17 225.11 C 137.62 225.89 138.63 226.15 139.41 225.70 C 140.19 225.24 140.46 224.24 140.00 223.45 Z"
      fill="black"
      fill-rule="nonzero" /><path d="M 152.82 186.24 L 153.78 186.40 C 154.76 186.55 155.68 185.88 155.84 184.90 C 155.99 183.92 155.32 183.00 154.34 182.84 L 153.38 182.69 C 152.40 182.54 151.48 183.21 151.32 184.19 C 151.17 185.17 151.84 186.09 152.82 186.24 Z M 153.81 186.45 L 154.79 186.59 C 155.80 186.73 156.73 186.02 156.87 185.01 C 157.01 183.99 156.30 183.06 155.29 182.92 L 154.31 182.79 C 153.30 182.65 152.37 183.36 152.23 184.37 C 152.09 185.38 152.80 186.31 153.81 186.45 Z M 154.85 186.65 L 155.86 186.75 C 156.90 186.85 157.84 186.09 157.94 185.05 C 158.05 184.00 157.29 183.07 156.24 182.97 L 155.23 182.86 C 154.19 182.76 153.25 183.52 153.15 184.56 C 153.04 185.61 153.80 186.54 154.85 186.65 Z M 155.95 186.78 L 156.93 186.83 C 157.99 186.89 158.90 186.08 158.96 185.01 C 159.01 183.95 158.20 183.04 157.14 182.99 L 156.15 182.93 C 155.09 182.88 154.18 183.69 154.13 184.75 C 154.07 185.82 154.88 186.72 155.95 186.78 Z M 157.02 186.81 L 157.98 186.82 C 159.03 186.83 159.89 185.98 159.90 184.93 C 159.91 183.88 159.06 183.02 158.01 183.01 L 157.05 183.00 C 156.00 183.00 155.14 183.84 155.13 184.90 C 155.12 185.95 155.97 186.81 157.02 186.81 Z M 158.06 186.78 L 159.06 186.75 C 160.09 186.71 160.89 185.85 160.86 184.83 C 160.83 183.80 159.97 182.99 158.94 183.02 L 157.94 183.06 C 156.91 183.09 156.10 183.95 156.14 184.98 C 156.17 186.00 157.03 186.81 158.06 186.78 Z M 159.12 186.70 L 160.16 186.63 C 161.16 186.57 161.92 185.70 161.85 184.70 C 161.79 183.69 160.92 182.93 159.92 183.00 L 158.88 183.07 C 157.88 183.14 157.12 184.00 157.18 185.00 C 157.25 186.01 158.12 186.77 159.12 186.70 Z M 160.21 186.59 L 161.20 186.50 C 162.18 186.40 162.90 185.53 162.81 184.55 C 162.72 183.57 161.85 182.85 160.87 182.95 L 159.87 183.04 C 158.89 183.14 158.17 184.01 158.26 184.99 C 158.36 185.97 159.23 186.68 160.21 186.59 Z M 161.24 186.47 L 162.21 186.35 C 163.17 186.24 163.86 185.37 163.75 184.40 C 163.63 183.44 162.76 182.75 161.80 182.86 L 160.83 182.98 C 159.87 183.09 159.18 183.96 159.29 184.93 C 159.41 185.89 160.28 186.58 161.24 186.47 Z M 162.24 186.32 L 163.23 186.19 C 164.17 186.06 164.84 185.19 164.71 184.24 C 164.58 183.30 163.71 182.63 162.76 182.76 L 161.77 182.89 C 160.83 183.02 160.16 183.89 160.29 184.84 C 160.42 185.79 161.29 186.45 162.24 186.32 Z M 163.24 186.17 L 164.25 186.02 C 165.18 185.88 165.83 185.01 165.69 184.08 C 165.56 183.14 164.69 182.50 163.75 182.64 L 162.75 182.78 C 161.81 182.92 161.17 183.79 161.30 184.72 C 161.44 185.66 162.31 186.30 163.24 186.17 Z M 164.26 185.99 L 165.28 185.83 C 166.20 185.69 166.83 184.83 166.69 183.91 C 166.55 182.99 165.68 182.36 164.76 182.50 L 163.74 182.66 C 162.82 182.80 162.19 183.66 162.34 184.58 C 162.48 185.50 163.34 186.14 164.26 185.99 Z M 165.29 185.82 L 166.26 185.66 C 167.17 185.52 167.79 184.66 167.65 183.75 C 167.50 182.84 166.65 182.22 165.73 182.36 L 164.76 182.52 C 163.85 182.66 163.23 183.52 163.37 184.43 C 163.52 185.34 164.37 185.96 165.29 185.82 Z M 166.26 185.65 L 167.25 185.49 C 168.15 185.35 168.77 184.49 168.62 183.59 C 168.47 182.68 167.62 182.07 166.71 182.21 L 165.73 182.37 C 164.82 182.52 164.21 183.37 164.36 184.28 C 164.50 185.19 165.36 185.80 166.26 185.65 Z M 167.25 185.49 L 168.24 185.32 C 169.14 185.17 169.75 184.32 169.60 183.42 C 169.45 182.52 168.60 181.91 167.70 182.06 L 166.71 182.22 C 165.81 182.37 165.20 183.22 165.35 184.12 C 165.50 185.02 166.35 185.63 167.25 185.49 Z M 168.24 185.31 L 169.23 185.15 C 170.13 185.00 170.74 184.15 170.59 183.26 C 170.44 182.36 169.59 181.75 168.70 181.90 L 167.70 182.07 C 166.80 182.22 166.20 183.06 166.35 183.96 C 166.50 184.86 167.34 185.46 168.24 185.31 Z M 169.23 185.14 L 169.95 185.02 C 170.84 184.88 171.44 184.03 171.29 183.14 C 171.14 182.24 170.30 181.64 169.41 181.79 L 168.70 181.91 C 167.80 182.06 167.20 182.90 167.35 183.80 C 167.50 184.69 168.34 185.29 169.23 185.14 Z"
      fill="black"
      fill-rule="nonzero" /></svg>