<svg xmlns="http://www.w3.org/2000/svg" width="300" height="300" viewBox="0 0 300 300">
<path d="M 131.02 145.00 L 131.06 144.02 C 131.10 143.10 130.39 142.33 129.47 142.29 C 128.55 142.25 127.77 142.97 127.74 143.89 L 127.70 144.87 C 127.66 145.79 128.37 146.56 129.29 146.60 C 130.21 146.64 130.99 145.92 131.02 145.00 Z M 131.06 144.04 L 131.12 143.05 C 131.16 142.13 130.46 141.35 129.54 141.30 C 128.62 141.25 127.83 141.96 127.79 142.88 L 127.73 143.87 C 127.69 144.79 128.39 145.57 129.31 145.62 C 130.23 145.67 131.02 144.96 131.06 144.04 Z M 131.12 143.09 L 131.19 142.08 C 131.26 141.16 130.57 140.36 129.65 140.29 C 128.73 140.22 127.93 140.91 127.86 141.83 L 127.79 142.84 C 127.72 143.76 128.41 144.56 129.33 144.63 C 130.24 144.70 131.05 144.01 131.12 143.09 Z M 131.19 142.14 L 131.30 141.13 C 131.40 140.21 130.74 139.39 129.82 139.29 C 128.90 139.19 128.07 139.85 127.97 140.77 L 127.86 141.78 C 127.76 142.70 128.43 143.52 129.35 143.62 C 130.27 143.72 131.09 143.06 131.19 142.14 Z M 131.31 141.20 L 131.45 140.21 C 131.59 139.28 130.95 138.42 130.03 138.29 C 129.10 138.15 128.24 138.79 128.11 139.71 L 127.96 140.71 C 127.83 141.63 128.47 142.49 129.39 142.63 C 130.31 142.76 131.17 142.12 131.31 141.20 Z M 131.46 140.28 L 131.65 139.29 C 131.83 138.37 131.23 137.47 130.30 137.29 C 129.37 137.11 128.47 137.72 128.29 138.65 L 128.10 139.64 C 127.92 140.56 128.53 141.46 129.46 141.64 C 130.39 141.82 131.28 141.21 131.46 140.28 Z M 131.65 139.39 L 131.90 138.42 C 132.13 137.49 131.56 136.55 130.63 136.32 C 129.70 136.09 128.76 136.65 128.53 137.58 L 128.29 138.55 C 128.06 139.48 128.62 140.42 129.55 140.65 C 130.48 140.88 131.42 140.32 131.65 139.39 Z M 131.88 138.54 L 132.19 137.57 C 132.49 136.65 131.98 135.66 131.06 135.37 C 130.14 135.07 129.15 135.58 128.86 136.50 L 128.55 137.47 C 128.25 138.39 128.76 139.37 129.68 139.67 C 130.60 139.96 131.59 139.46 131.88 138.54 Z M 132.17 137.70 L 132.54 136.76 C 132.91 135.86 132.47 134.83 131.56 134.46 C 130.65 134.10 129.62 134.54 129.26 135.44 L 128.88 136.37 C 128.52 137.28 128.96 138.31 129.86 138.68 C 130.77 139.04 131.80 138.60 132.17 137.70 Z M 132.50 136.89 L 132.94 136.00 C 133.37 135.11 133.00 134.04 132.12 133.61 C 131.23 133.18 130.16 133.54 129.73 134.43 L 129.29 135.32 C 128.86 136.21 129.23 137.28 130.12 137.71 C 131.00 138.14 132.07 137.77 132.50 136.89 Z M 132.90 136.11 L 133.39 135.25 C 133.88 134.39 133.59 133.29 132.72 132.79 C 131.86 132.30 130.76 132.59 130.26 133.46 L 129.77 134.32 C 129.27 135.18 129.57 136.28 130.44 136.78 C 131.30 137.27 132.40 136.97 132.90 136.11 Z M 133.34 135.35 L 133.90 134.50 C 134.45 133.66 134.22 132.54 133.38 131.99 C 132.55 131.44 131.42 131.67 130.87 132.51 L 130.31 133.36 C 129.76 134.19 129.99 135.32 130.83 135.87 C 131.66 136.42 132.79 136.19 133.34 135.35 Z M 133.85 134.59 L 134.45 133.78 C 135.05 132.97 134.88 131.83 134.07 131.23 C 133.26 130.63 132.12 130.80 131.52 131.61 L 130.92 132.42 C 130.32 133.23 130.49 134.37 131.30 134.97 C 132.11 135.57 133.25 135.40 133.85 134.59 Z M 134.41 133.85 L 135.02 133.09 C 135.66 132.31 135.55 131.15 134.76 130.51 C 133.97 129.87 132.82 129.99 132.18 130.78 L 131.56 131.54 C 130.92 132.32 131.04 133.48 131.83 134.12 C 132.61 134.76 133.77 134.64 134.41 133.85 Z M 134.98 133.16 L 135.65 132.40 C 136.32 131.64 136.25 130.48 135.49 129.80 C 134.73 129.13 133.57 129.20 132.89 129.96 L 132.22 130.71 C 131.55 131.47 131.62 132.64 132.38 133.31 C 133.14 133.99 134.31 133.92 134.98 133.16 Z M 135.61 132.46 L 136.30 131.74 C 137.00 131.00 136.97 129.83 136.23 129.12 C 135.49 128.42 134.32 128.44 133.62 129.18 L 132.93 129.90 C 132.22 130.64 132.25 131.82 132.99 132.52 C 133.73 133.23 134.90 133.20 135.61 132.46 Z M 136.27 131.78 L 136.97 131.08 C 137.70 130.36 137.70 129.18 136.97 128.45 C 136.25 127.72 135.07 127.72 134.35 128.45 L 133.64 129.14 C 132.92 129.87 132.91 131.05 133.64 131.77 C 134.36 132.50 135.54 132.50 136.27 131.78 Z M 136.95 131.10 L 137.65 130.43 C 138.39 129.71 138.41 128.53 137.70 127.79 C 136.98 127.05 135.80 127.03 135.06 127.74 L 134.36 128.42 C 133.62 129.14 133.60 130.32 134.32 131.06 C 135.03 131.80 136.21 131.82 136.95 131.10 Z M 137.64 130.45 L 138.36 129.77 C 139.11 129.06 139.14 127.88 138.44 127.13 C 137.73 126.38 136.54 126.34 135.79 127.05 L 135.07 127.72 C 134.32 128.43 134.29 129.62 134.99 130.37 C 135.70 131.12 136.89 131.16 137.64 130.45 Z M 138.33 129.80 L 139.08 129.12 C 139.85 128.43 139.91 127.24 139.22 126.47 C 138.52 125.70 137.34 125.64 136.57 126.34 L 135.81 127.02 C 135.05 127.71 134.99 128.90 135.68 129.67 C 136.38 130.44 137.56 130.50 138.33 129.80 Z M 139.05 129.16 L 139.82 128.50 C 140.61 127.82 140.70 126.63 140.02 125.85 C 139.35 125.06 138.16 124.97 137.37 125.64 L 136.60 126.30 C 135.81 126.98 135.72 128.17 136.40 128.96 C 137.07 129.74 138.26 129.84 139.05 129.16 Z M 139.79 128.53 L 140.54 127.92 C 141.35 127.26 141.47 126.07 140.81 125.26 C 140.16 124.46 138.97 124.33 138.16 124.99 L 137.40 125.61 C 136.60 126.27 136.47 127.45 137.13 128.26 C 137.79 129.07 138.98 129.19 139.79 128.53 Z M 140.51 127.94 L 141.31 127.33 C 142.13 126.68 142.27 125.50 141.63 124.67 C 140.99 123.85 139.80 123.71 138.98 124.35 L 138.19 124.97 C 137.37 125.61 137.22 126.79 137.86 127.62 C 138.51 128.44 139.69 128.58 140.51 127.94 Z M 141.28 127.35 L 142.10 126.73 C 142.93 126.10 143.10 124.91 142.47 124.08 C 141.84 123.24 140.65 123.08 139.82 123.71 L 139.00 124.33 C 138.17 124.96 138.00 126.14 138.63 126.98 C 139.26 127.81 140.45 127.98 141.28 127.35 Z M 142.08 126.75 L 142.90 126.15 C 143.74 125.53 143.92 124.34 143.30 123.50 C 142.68 122.65 141.49 122.47 140.65 123.09 L 139.84 123.69 C 138.99 124.31 138.81 125.50 139.43 126.34 C 140.05 127.19 141.24 127.37 142.08 126.75 Z M 142.88 126.16 L 143.70 125.58 C 144.55 124.96 144.74 123.78 144.13 122.93 C 143.52 122.07 142.34 121.88 141.48 122.49 L 140.67 123.08 C 139.81 123.69 139.62 124.88 140.23 125.73 C 140.84 126.58 142.03 126.77 142.88 126.16 Z M 143.68 125.59 L 144.50 125.02 C 145.36 124.42 145.57 123.23 144.97 122.37 C 144.37 121.51 143.19 121.30 142.33 121.90 L 141.50 122.47 C 140.64 123.08 140.43 124.26 141.03 125.12 C 141.63 125.98 142.82 126.19 143.68 125.59 Z M 144.48 125.04 L 145.30 124.48 C 146.17 123.89 146.40 122.71 145.81 121.84 C 145.23 120.97 144.04 120.74 143.17 121.33 L 142.35 121.88 C 141.48 122.47 141.25 123.65 141.84 124.52 C 142.42 125.40 143.61 125.62 144.48 125.04 Z M 145.27 124.50 L 146.13 123.95 C 147.01 123.38 147.26 122.20 146.69 121.31 C 146.12 120.43 144.94 120.18 144.05 120.75 L 143.20 121.31 C 142.32 121.88 142.06 123.06 142.64 123.94 C 143.21 124.82 144.39 125.08 145.27 124.50 Z M 146.09 123.97 L 146.95 123.45 C 147.84 122.89 148.12 121.72 147.57 120.82 C 147.02 119.93 145.84 119.65 144.95 120.20 L 144.09 120.73 C 143.19 121.28 142.92 122.45 143.47 123.35 C 144.02 124.25 145.20 124.53 146.09 123.97 Z M 146.90 123.47 L 147.76 122.98 C 148.67 122.45 148.98 121.28 148.45 120.37 C 147.92 119.46 146.75 119.15 145.84 119.68 L 144.99 120.17 C 144.08 120.70 143.77 121.87 144.30 122.78 C 144.82 123.69 145.99 124.00 146.90 123.47 Z M 147.71 123.01 L 148.58 122.54 C 149.51 122.03 149.85 120.88 149.35 119.95 C 148.85 119.02 147.69 118.68 146.76 119.18 L 145.89 119.65 C 144.97 120.15 144.62 121.31 145.12 122.23 C 145.62 123.16 146.78 123.51 147.71 123.01 Z M 148.52 122.57 L 149.42 122.12 C 150.36 121.65 150.75 120.50 150.28 119.56 C 149.81 118.61 148.66 118.23 147.72 118.70 L 146.82 119.15 C 145.87 119.62 145.49 120.77 145.96 121.71 C 146.43 122.65 147.58 123.04 148.52 122.57 Z M 149.36 122.15 L 150.27 121.73 C 151.23 121.29 151.65 120.16 151.21 119.20 C 150.78 118.24 149.64 117.82 148.68 118.26 L 147.77 118.67 C 146.81 119.11 146.39 120.24 146.83 121.20 C 147.27 122.16 148.40 122.58 149.36 122.15 Z M 150.21 121.76 L 151.13 121.37 C 152.10 120.97 152.57 119.85 152.16 118.88 C 151.75 117.90 150.64 117.44 149.66 117.85 L 148.74 118.23 C 147.77 118.64 147.31 119.75 147.71 120.73 C 148.12 121.70 149.24 122.16 150.21 121.76 Z M 151.07 121.40 L 151.98 121.05 C 152.97 120.68 153.47 119.58 153.10 118.59 C 152.73 117.61 151.62 117.11 150.64 117.48 L 149.72 117.82 C 148.74 118.19 148.24 119.29 148.61 120.28 C 148.98 121.27 150.08 121.77 151.07 121.40 Z M 151.90 121.08 L 152.83 120.78 C 153.84 120.45 154.38 119.37 154.06 118.37 C 153.73 117.37 152.65 116.82 151.65 117.15 L 150.72 117.45 C 149.71 117.78 149.17 118.86 149.49 119.86 C 149.82 120.86 150.90 121.41 151.90 121.08 Z M 152.73 120.81 L 153.70 120.55 C 154.72 120.28 155.33 119.24 155.06 118.22 C 154.79 117.20 153.74 116.59 152.72 116.86 L 151.75 117.12 C 150.73 117.39 150.12 118.43 150.39 119.45 C 150.67 120.47 151.71 121.08 152.73 120.81 Z M 153.59 120.58 L 154.59 120.38 C 155.62 120.18 156.30 119.17 156.09 118.14 C 155.89 117.10 154.88 116.43 153.85 116.63 L 152.84 116.83 C 151.81 117.04 151.13 118.04 151.34 119.08 C 151.54 120.11 152.55 120.78 153.59 120.58 Z M 154.48 120.40 L 155.42 120.27 C 156.46 120.13 157.19 119.16 157.05 118.12 C 156.91 117.07 155.94 116.34 154.90 116.48 L 153.96 116.61 C 152.91 116.76 152.18 117.72 152.32 118.77 C 152.47 119.81 153.43 120.54 154.48 120.40 Z M 155.33 120.28 L 156.32 120.19 C 157.37 120.10 158.14 119.17 158.05 118.11 C 157.95 117.06 157.02 116.29 155.97 116.38 L 154.98 116.47 C 153.93 116.57 153.16 117.50 153.25 118.55 C 153.35 119.60 154.28 120.38 155.33 120.28 Z M 156.25 120.20 L 157.27 120.14 C 158.32 120.08 159.13 119.18 159.07 118.13 C 159.02 117.07 158.11 116.26 157.06 116.32 L 156.04 116.38 C 154.98 116.44 154.17 117.34 154.23 118.39 C 154.29 119.45 155.19 120.26 156.25 120.20 Z M 157.21 120.14 L 158.27 120.12 C 159.32 120.09 160.16 119.21 160.13 118.15 C 160.10 117.10 159.22 116.26 158.17 116.29 L 157.11 116.32 C 156.06 116.35 155.22 117.23 155.25 118.28 C 155.28 119.34 156.16 120.17 157.21 120.14 Z M 158.22 120.12 L 159.25 120.12 C 160.31 120.11 161.17 119.25 161.16 118.20 C 161.16 117.14 160.30 116.28 159.24 116.29 L 158.21 116.29 C 157.15 116.29 156.30 117.15 156.30 118.21 C 156.30 119.27 157.16 120.12 158.22 120.12 Z M 159.19 120.11 L 160.22 120.14 C 161.28 120.18 162.16 119.34 162.19 118.29 C 162.22 117.23 161.39 116.35 160.33 116.32 L 159.31 116.29 C 158.25 116.26 157.37 117.09 157.34 118.14 C 157.30 119.20 158.14 120.08 159.19 120.11 Z M 160.14 120.14 L 161.14 120.21 C 162.19 120.29 163.11 119.50 163.19 118.45 C 163.27 117.39 162.48 116.48 161.42 116.40 L 160.42 116.32 C 159.37 116.24 158.45 117.03 158.37 118.09 C 158.29 119.14 159.08 120.06 160.14 120.14 Z M 161.02 120.20 L 161.97 120.33 C 163.01 120.48 163.98 119.74 164.12 118.70 C 164.27 117.65 163.54 116.68 162.49 116.54 L 161.54 116.41 C 160.49 116.27 159.53 117.00 159.38 118.05 C 159.24 119.09 159.97 120.06 161.02 120.20 Z M 161.80 120.30 L 162.73 120.51 C 163.76 120.75 164.78 120.11 165.02 119.07 C 165.25 118.04 164.61 117.02 163.58 116.78 L 162.66 116.57 C 161.62 116.33 160.60 116.98 160.36 118.01 C 160.13 119.04 160.77 120.07 161.80 120.30 Z M 162.52 120.45 L 163.40 120.76 C 164.40 121.12 165.49 120.59 165.84 119.59 C 166.19 118.60 165.67 117.50 164.67 117.15 L 163.79 116.84 C 162.79 116.49 161.70 117.02 161.35 118.01 C 161.00 119.01 161.52 120.10 162.52 120.45 Z M 163.20 120.68 L 164.08 121.10 C 165.03 121.57 166.17 121.17 166.63 120.22 C 167.10 119.26 166.70 118.12 165.75 117.66 L 164.87 117.24 C 163.92 116.78 162.78 117.17 162.32 118.12 C 161.85 119.08 162.25 120.22 163.20 120.68 Z M 163.92 121.02 L 164.84 121.57 C 165.74 122.12 166.92 121.83 167.46 120.92 C 168.01 120.02 167.72 118.84 166.81 118.29 L 165.90 117.74 C 165.00 117.20 163.82 117.49 163.27 118.39 C 162.73 119.30 163.02 120.47 163.92 121.02 Z M 164.74 121.51 L 165.53 122.05 C 166.40 122.65 167.59 122.42 168.19 121.55 C 168.78 120.68 168.56 119.49 167.69 118.89 L 166.91 118.35 C 166.04 117.76 164.84 117.98 164.25 118.85 C 163.65 119.72 163.87 120.91 164.74 121.51 Z M 165.47 122.01 L 166.21 122.56 C 167.06 123.18 168.26 123.00 168.89 122.15 C 169.52 121.31 169.34 120.11 168.49 119.48 L 167.75 118.93 C 166.90 118.30 165.70 118.48 165.07 119.33 C 164.44 120.18 164.62 121.38 165.47 122.01 Z M 166.16 122.52 L 166.93 123.13 C 167.76 123.78 168.97 123.64 169.62 122.81 C 170.28 121.98 170.13 120.78 169.30 120.12 L 168.53 119.51 C 167.70 118.86 166.50 119.00 165.84 119.83 C 165.19 120.66 165.33 121.87 166.16 122.52 Z M 166.89 123.09 L 167.68 123.76 C 168.49 124.43 169.70 124.33 170.38 123.52 C 171.06 122.70 170.95 121.50 170.14 120.82 L 169.35 120.16 C 168.54 119.48 167.33 119.59 166.65 120.40 C 165.97 121.21 166.08 122.41 166.89 123.09 Z M 167.64 123.72 L 168.44 124.43 C 169.23 125.13 170.44 125.06 171.14 124.27 C 171.85 123.48 171.77 122.27 170.98 121.56 L 170.18 120.85 C 169.39 120.15 168.18 120.23 167.48 121.02 C 166.78 121.81 166.85 123.02 167.64 123.72 Z M 168.40 124.39 L 169.20 125.14 C 169.97 125.86 171.18 125.83 171.90 125.06 C 172.63 124.29 172.59 123.08 171.82 122.35 L 171.02 121.60 C 170.25 120.88 169.04 120.92 168.32 121.68 C 167.59 122.45 167.63 123.67 168.40 124.39 Z M 169.16 125.10 L 169.85 125.79 C 170.59 126.54 171.81 126.53 172.55 125.79 C 173.30 125.04 173.30 123.82 172.55 123.08 L 171.86 122.39 C 171.11 121.64 169.90 121.65 169.15 122.39 C 168.41 123.14 168.41 124.36 169.16 125.10 Z M 169.81 125.75 L 170.49 126.46 C 171.22 127.23 172.43 127.26 173.20 126.53 C 173.96 125.80 173.99 124.59 173.26 123.82 L 172.58 123.11 C 171.85 122.35 170.64 122.32 169.88 123.05 C 169.11 123.78 169.08 124.99 169.81 125.75 Z M 170.46 126.43 L 171.12 127.17 C 171.83 127.95 173.05 128.01 173.83 127.30 C 174.61 126.59 174.67 125.38 173.96 124.59 L 173.29 123.86 C 172.58 123.08 171.37 123.02 170.59 123.73 C 169.81 124.44 169.75 125.65 170.46 126.43 Z M 171.10 127.13 L 171.75 127.89 C 172.45 128.69 173.65 128.77 174.45 128.08 C 175.25 127.39 175.34 126.18 174.64 125.38 L 173.99 124.62 C 173.29 123.83 172.09 123.74 171.29 124.43 C 170.49 125.13 170.40 126.34 171.10 127.13 Z M 171.73 127.86 L 172.38 128.64 C 173.05 129.45 174.26 129.56 175.07 128.88 C 175.88 128.21 175.99 127.00 175.32 126.19 L 174.67 125.41 C 173.99 124.60 172.79 124.49 171.97 125.17 C 171.16 125.84 171.05 127.05 171.73 127.86 Z M 172.35 128.61 L 172.99 129.41 C 173.66 130.23 174.86 130.37 175.68 129.70 C 176.51 129.04 176.64 127.84 175.98 127.01 L 175.34 126.22 C 174.68 125.39 173.47 125.26 172.65 125.92 C 171.82 126.58 171.69 127.79 172.35 128.61 Z M 172.97 129.38 L 173.61 130.21 C 174.26 131.04 175.46 131.20 176.30 130.55 C 177.13 129.90 177.28 128.70 176.64 127.86 L 176.00 127.04 C 175.35 126.20 174.15 126.05 173.31 126.70 C 172.48 127.35 172.33 128.55 172.97 129.38 Z M 173.60 130.18 L 174.23 131.03 C 174.86 131.87 176.06 132.05 176.91 131.41 C 177.75 130.78 177.92 129.58 177.29 128.74 L 176.66 127.89 C 176.02 127.04 174.82 126.87 173.98 127.51 C 173.13 128.14 172.96 129.34 173.60 130.18 Z M 174.21 131.00 L 174.83 131.85 C 175.45 132.71 176.64 132.90 177.49 132.28 C 178.35 131.66 178.54 130.47 177.92 129.61 L 177.31 128.76 C 176.69 127.91 175.49 127.72 174.64 128.33 C 173.78 128.95 173.59 130.15 174.21 131.00 Z M 174.81 131.83 L 175.40 132.67 C 176.00 133.53 177.19 133.74 178.06 133.14 C 178.92 132.54 179.13 131.35 178.53 130.48 L 177.94 129.64 C 177.34 128.77 176.15 128.56 175.28 129.17 C 174.42 129.77 174.21 130.96 174.81 131.83 Z M 175.38 132.64 L 175.93 133.46 C 176.52 134.34 177.70 134.57 178.58 133.98 C 179.45 133.40 179.69 132.21 179.10 131.34 L 178.55 130.51 C 177.96 129.64 176.77 129.40 175.90 129.99 C 175.02 130.58 174.79 131.76 175.38 132.64 Z M 175.91 133.43 L 176.42 134.22 C 176.99 135.11 178.17 135.37 179.05 134.80 C 179.94 134.23 180.20 133.05 179.63 132.17 L 179.12 131.37 C 178.55 130.48 177.37 130.22 176.49 130.79 C 175.60 131.36 175.34 132.54 175.91 133.43 Z M 176.39 134.18 L 176.88 134.97 C 177.42 135.88 178.59 136.16 179.49 135.62 C 180.39 135.07 180.68 133.90 180.14 133.00 L 179.66 132.21 C 179.11 131.31 177.94 131.02 177.04 131.56 C 176.14 132.11 175.85 133.28 176.39 134.18 Z M 176.84 134.91 L 177.39 135.91 C 177.90 136.83 179.06 137.16 179.98 136.65 C 180.90 136.14 181.23 134.98 180.72 134.06 L 180.17 133.07 C 179.66 132.15 178.50 131.81 177.58 132.32 C 176.66 132.83 176.33 133.99 176.84 134.91 Z M 177.35 135.83 L 177.81 136.75 C 178.27 137.69 179.41 138.08 180.35 137.62 C 181.29 137.15 181.68 136.01 181.22 135.07 L 180.77 134.15 C 180.30 133.21 179.16 132.82 178.22 133.28 C 177.28 133.74 176.89 134.88 177.35 135.83 Z M 177.77 136.66 L 178.14 137.53 C 178.55 138.49 179.67 138.94 180.63 138.53 C 181.59 138.12 182.04 137.00 181.63 136.04 L 181.26 135.17 C 180.85 134.20 179.73 133.75 178.77 134.17 C 177.80 134.58 177.36 135.69 177.77 136.66 Z M 178.11 137.43 L 178.41 138.27 C 178.77 139.26 179.86 139.76 180.84 139.40 C 181.83 139.04 182.33 137.95 181.97 136.97 L 181.66 136.13 C 181.30 135.15 180.22 134.64 179.23 135.00 C 178.25 135.36 177.75 136.45 178.11 137.43 Z M 178.39 138.19 L 178.67 139.10 C 178.98 140.10 180.04 140.66 181.04 140.35 C 182.04 140.04 182.60 138.98 182.29 137.98 L 182.00 137.06 C 181.69 136.06 180.63 135.51 179.63 135.82 C 178.63 136.13 178.08 137.19 178.39 138.19 Z M 178.65 139.01 L 178.90 139.98 C 179.16 140.99 180.19 141.60 181.20 141.33 C 182.21 141.07 182.82 140.04 182.56 139.03 L 182.31 138.07 C 182.05 137.06 181.02 136.45 180.01 136.71 C 179.00 136.97 178.39 138.00 178.65 139.01 Z M 178.88 139.88 L 179.07 140.86 C 179.28 141.88 180.28 142.54 181.30 142.33 C 182.32 142.12 182.98 141.12 182.78 140.10 L 182.58 139.13 C 182.37 138.10 181.37 137.44 180.35 137.65 C 179.33 137.86 178.67 138.86 178.88 139.88 Z M 179.06 140.76 L 179.21 141.76 C 179.37 142.79 180.33 143.49 181.36 143.34 C 182.39 143.18 183.10 142.22 182.94 141.19 L 182.79 140.19 C 182.63 139.16 181.67 138.46 180.64 138.61 C 179.61 138.77 178.90 139.73 179.06 140.76 Z M 179.20 141.67 L 179.31 142.67 C 179.42 143.71 180.35 144.46 181.38 144.35 C 182.42 144.24 183.17 143.31 183.06 142.27 L 182.95 141.27 C 182.84 140.24 181.91 139.49 180.88 139.60 C 179.84 139.71 179.09 140.64 179.20 141.67 Z M 179.31 142.60 L 179.38 143.62 C 179.45 144.65 180.35 145.43 181.38 145.36 C 182.42 145.29 183.20 144.39 183.13 143.35 L 183.06 142.34 C 182.99 141.31 182.09 140.52 181.05 140.60 C 180.02 140.67 179.23 141.57 179.31 142.60 Z M 179.37 143.57 L 179.42 144.57 C 179.46 145.61 180.34 146.41 181.38 146.37 C 182.42 146.32 183.22 145.45 183.18 144.41 L 183.13 143.40 C 183.09 142.37 182.21 141.56 181.17 141.61 C 180.14 141.65 179.33 142.53 179.37 143.57 Z M 179.42 144.54 L 179.44 145.52 C 179.47 146.56 180.33 147.38 181.37 147.35 C 182.41 147.32 183.23 146.46 183.20 145.42 L 183.18 144.44 C 183.15 143.40 182.29 142.58 181.25 142.61 C 180.21 142.64 179.39 143.50 179.42 144.54 Z M 179.44 145.49 L 179.46 146.52 C 179.47 147.56 180.32 148.39 181.35 148.38 C 182.39 148.37 183.22 147.52 183.21 146.48 L 183.20 145.45 C 183.19 144.41 182.34 143.58 181.30 143.59 C 180.26 143.61 179.43 144.46 179.44 145.49 Z M 179.46 146.45 L 179.43 147.45 C 179.40 148.48 180.22 149.35 181.25 149.38 C 182.28 149.40 183.15 148.59 183.18 147.56 L 183.20 146.55 C 183.23 145.52 182.42 144.66 181.39 144.63 C 180.35 144.60 179.49 145.41 179.46 146.45 Z M 179.45 147.30 L 179.34 148.28 C 179.23 149.30 179.97 150.22 181.00 150.33 C 182.03 150.44 182.95 149.70 183.06 148.67 L 183.16 147.70 C 183.27 146.68 182.53 145.75 181.50 145.64 C 180.48 145.53 179.56 146.28 179.45 147.30 Z M 179.38 148.07 L 179.17 149.01 C 178.94 150.01 179.57 151.01 180.58 151.24 C 181.58 151.46 182.58 150.83 182.81 149.83 L 183.02 148.88 C 183.24 147.88 182.61 146.88 181.61 146.66 C 180.60 146.43 179.61 147.06 179.38 148.07 Z M 179.24 148.79 L 178.91 149.70 C 178.56 150.67 179.07 151.73 180.04 152.08 C 181.00 152.42 182.07 151.92 182.41 150.95 L 182.74 150.04 C 183.09 149.08 182.58 148.01 181.61 147.67 C 180.65 147.32 179.58 147.82 179.24 148.79 Z M 178.98 149.54 L 178.56 150.44 C 178.12 151.37 178.52 152.47 179.45 152.91 C 180.38 153.34 181.48 152.95 181.92 152.02 L 182.34 151.12 C 182.78 150.19 182.38 149.08 181.45 148.65 C 180.52 148.21 179.42 148.61 178.98 149.54 Z M 178.62 150.33 L 178.12 151.23 C 177.62 152.12 177.94 153.24 178.83 153.74 C 179.72 154.24 180.85 153.92 181.35 153.03 L 181.85 152.13 C 182.35 151.24 182.03 150.11 181.14 149.61 C 180.25 149.12 179.12 149.43 178.62 150.33 Z M 178.17 151.15 L 177.64 152.01 C 177.10 152.88 177.36 154.01 178.23 154.55 C 179.09 155.09 180.23 154.83 180.77 153.96 L 181.30 153.10 C 181.84 152.24 181.58 151.10 180.71 150.56 C 179.85 150.02 178.71 150.29 178.17 151.15 Z M 177.68 151.96 L 177.12 152.78 C 176.55 153.62 176.77 154.77 177.61 155.34 C 178.46 155.90 179.60 155.68 180.17 154.84 L 180.73 154.02 C 181.29 153.17 181.07 152.03 180.23 151.46 C 179.39 150.89 178.25 151.11 177.68 151.96 Z M 177.16 152.73 L 176.57 153.54 C 175.97 154.36 176.15 155.51 176.97 156.10 C 177.79 156.70 178.94 156.52 179.53 155.70 L 180.12 154.89 C 180.72 154.07 180.54 152.93 179.72 152.33 C 178.91 151.73 177.76 151.91 177.16 152.73 Z M 176.62 153.49 L 175.99 154.28 C 175.37 155.08 175.50 156.22 176.30 156.85 C 177.09 157.47 178.24 157.34 178.86 156.55 L 179.49 155.76 C 180.11 154.96 179.97 153.81 179.18 153.19 C 178.39 152.56 177.24 152.70 176.62 153.49 Z M 176.04 154.23 L 175.39 154.99 C 174.74 155.76 174.83 156.91 175.59 157.56 C 176.36 158.22 177.51 158.13 178.16 157.36 L 178.81 156.60 C 179.47 155.83 179.38 154.68 178.61 154.03 C 177.85 153.38 176.70 153.47 176.04 154.23 Z M 175.44 154.95 L 174.76 155.68 C 174.08 156.41 174.13 157.56 174.86 158.24 C 175.60 158.92 176.75 158.88 177.43 158.14 L 178.11 157.41 C 178.79 156.67 178.74 155.53 178.01 154.84 C 177.27 154.16 176.12 154.21 175.44 154.95 Z M 174.82 155.63 L 174.11 156.34 C 173.41 157.05 173.41 158.20 174.12 158.90 C 174.83 159.60 175.97 159.60 176.68 158.89 L 177.38 158.19 C 178.08 157.48 178.08 156.33 177.37 155.63 C 176.67 154.92 175.52 154.93 174.82 155.63 Z M 174.16 156.30 L 173.43 156.99 C 172.70 157.67 172.67 158.81 173.35 159.54 C 174.03 160.26 175.17 160.30 175.90 159.62 L 176.63 158.93 C 177.35 158.25 177.39 157.11 176.71 156.38 C 176.03 155.66 174.89 155.62 174.16 156.30 Z M 173.47 156.95 L 172.73 157.61 C 171.99 158.27 171.92 159.40 172.58 160.15 C 173.23 160.89 174.37 160.96 175.11 160.31 L 175.86 159.65 C 176.60 158.99 176.67 157.86 176.01 157.11 C 175.36 156.37 174.22 156.30 173.47 156.95 Z M 172.77 157.58 L 172.01 158.21 C 171.25 158.85 171.15 159.98 171.79 160.74 C 172.42 161.50 173.55 161.60 174.31 160.97 L 175.07 160.33 C 175.83 159.70 175.94 158.57 175.30 157.81 C 174.66 157.05 173.53 156.95 172.77 157.58 Z M 172.05 158.19 L 171.27 158.81 C 170.49 159.43 170.36 160.55 170.98 161.33 C 171.59 162.10 172.72 162.23 173.49 161.62 L 174.28 161.00 C 175.05 160.38 175.18 159.25 174.57 158.48 C 173.95 157.70 172.82 157.57 172.05 158.19 Z M 171.30 158.79 L 170.49 159.40 C 169.71 159.99 169.55 161.12 170.15 161.90 C 170.74 162.69 171.87 162.85 172.65 162.25 L 173.46 161.64 C 174.25 161.04 174.40 159.92 173.81 159.13 C 173.21 158.35 172.09 158.19 171.30 158.79 Z M 170.53 159.38 L 169.70 159.98 C 168.90 160.55 168.72 161.67 169.30 162.47 C 169.88 163.27 171.00 163.45 171.80 162.87 L 172.62 162.27 C 173.42 161.69 173.60 160.58 173.02 159.78 C 172.44 158.98 171.32 158.80 170.53 159.38 Z M 169.73 159.96 L 168.89 160.54 C 168.08 161.10 167.88 162.21 168.44 163.02 C 169.01 163.83 170.12 164.03 170.93 163.47 L 171.77 162.89 C 172.58 162.33 172.78 161.21 172.21 160.40 C 171.65 159.59 170.54 159.39 169.73 159.96 Z M 168.92 160.52 L 168.08 161.08 C 167.26 161.63 167.04 162.73 167.58 163.55 C 168.13 164.37 169.24 164.60 170.06 164.05 L 170.90 163.49 C 171.72 162.94 171.94 161.84 171.39 161.02 C 170.85 160.20 169.74 159.97 168.92 160.52 Z M 168.11 161.06 L 167.28 161.59 C 166.45 162.12 166.20 163.22 166.73 164.05 C 167.26 164.88 168.36 165.13 169.19 164.60 L 170.02 164.07 C 170.85 163.54 171.10 162.44 170.57 161.61 C 170.04 160.78 168.94 160.53 168.11 161.06 Z M 167.32 161.57 L 166.46 162.09 C 165.61 162.59 165.34 163.69 165.85 164.53 C 166.36 165.37 167.45 165.64 168.29 165.14 L 169.15 164.62 C 170.00 164.11 170.27 163.02 169.76 162.18 C 169.26 161.33 168.16 161.06 167.32 161.57 Z M 166.50 162.06 L 165.60 162.57 C 164.75 163.05 164.44 164.13 164.93 164.99 C 165.41 165.84 166.49 166.15 167.35 165.67 L 168.25 165.16 C 169.10 164.68 169.41 163.60 168.92 162.74 C 168.44 161.89 167.36 161.58 166.50 162.06 Z M 165.66 162.54 L 164.78 163.00 C 163.91 163.45 163.58 164.52 164.03 165.39 C 164.48 166.26 165.55 166.60 166.42 166.15 L 167.29 165.69 C 168.16 165.24 168.50 164.17 168.05 163.30 C 167.60 162.43 166.53 162.09 165.66 162.54 Z M 164.83 162.98 L 163.97 163.39 C 163.09 163.81 162.72 164.87 163.14 165.75 C 163.57 166.63 164.62 167.00 165.50 166.58 L 166.37 166.17 C 167.25 165.74 167.62 164.69 167.20 163.81 C 166.77 162.93 165.72 162.55 164.83 162.98 Z M 164.03 163.37 L 163.11 163.78 C 162.22 164.17 161.82 165.21 162.21 166.10 C 162.61 166.99 163.65 167.39 164.54 167.00 L 165.45 166.60 C 166.34 166.21 166.74 165.17 166.35 164.27 C 165.96 163.38 164.92 162.98 164.03 163.37 Z M 163.18 163.76 L 162.25 164.13 C 161.35 164.49 160.91 165.51 161.27 166.41 C 161.63 167.31 162.65 167.75 163.55 167.39 L 164.48 167.02 C 165.38 166.66 165.81 165.64 165.45 164.74 C 165.10 163.84 164.08 163.40 163.18 163.76 Z M 162.32 164.12 L 161.38 164.45 C 160.47 164.77 159.99 165.77 160.32 166.68 C 160.64 167.58 161.64 168.06 162.54 167.74 L 163.48 167.40 C 164.39 167.08 164.86 166.08 164.54 165.18 C 164.22 164.27 163.22 163.79 162.32 164.12 Z M 161.45 164.44 L 160.57 164.71 C 159.65 164.99 159.14 165.97 159.43 166.88 C 159.71 167.79 160.68 168.30 161.60 168.02 L 162.47 167.75 C 163.39 167.46 163.90 166.49 163.61 165.58 C 163.33 164.66 162.36 164.15 161.45 164.44 Z M 160.65 164.70 L 159.79 164.92 C 158.87 165.16 158.32 166.10 158.56 167.02 C 158.79 167.94 159.73 168.49 160.65 168.25 L 161.51 168.03 C 162.43 167.79 162.99 166.85 162.75 165.93 C 162.51 165.01 161.57 164.46 160.65 164.70 Z M 159.89 164.91 L 158.93 165.10 C 158.00 165.29 157.40 166.19 157.59 167.11 C 157.77 168.04 158.67 168.64 159.59 168.46 L 160.55 168.26 C 161.48 168.08 162.08 167.18 161.90 166.26 C 161.71 165.33 160.81 164.73 159.89 164.91 Z M 159.03 165.10 L 157.92 165.25 C 156.99 165.38 156.34 166.24 156.47 167.17 C 156.60 168.09 157.45 168.74 158.38 168.61 L 159.49 168.46 C 160.42 168.33 161.07 167.48 160.94 166.55 C 160.81 165.62 159.96 164.97 159.03 165.10 Z M 158.00 165.25 L 156.96 165.35 C 156.03 165.43 155.35 166.25 155.43 167.18 C 155.51 168.11 156.33 168.79 157.26 168.71 L 158.30 168.61 C 159.23 168.53 159.91 167.71 159.83 166.78 C 159.75 165.85 158.93 165.17 158.00 165.25 Z M 157.02 165.35 L 156.03 165.41 C 155.10 165.46 154.39 166.25 154.44 167.17 C 154.50 168.10 155.29 168.81 156.21 168.76 L 157.20 168.70 C 158.13 168.65 158.84 167.86 158.78 166.93 C 158.73 166.01 157.94 165.30 157.02 165.35 Z M 156.08 165.41 L 155.05 165.44 C 154.12 165.46 153.39 166.22 153.41 167.14 C 153.44 168.07 154.20 168.80 155.12 168.78 L 156.16 168.75 C 157.08 168.73 157.81 167.96 157.79 167.04 C 157.77 166.12 157.00 165.39 156.08 165.41 Z M 155.10 165.44 L 154.06 165.43 C 153.14 165.42 152.39 166.16 152.38 167.07 C 152.37 167.99 153.10 168.75 154.02 168.76 L 155.07 168.77 C 155.98 168.78 156.74 168.04 156.75 167.12 C 156.76 166.21 156.02 165.45 155.10 165.44 Z M 154.13 165.44 L 153.11 165.39 C 152.20 165.34 151.42 166.04 151.37 166.95 C 151.32 167.86 152.02 168.64 152.93 168.69 L 153.95 168.75 C 154.86 168.80 155.64 168.10 155.69 167.18 C 155.74 166.27 155.04 165.49 154.13 165.44 Z M 153.20 165.40 L 152.25 165.30 C 151.34 165.20 150.53 165.85 150.43 166.76 C 150.34 167.67 150.99 168.48 151.90 168.58 L 152.85 168.68 C 153.75 168.78 154.56 168.12 154.66 167.22 C 154.76 166.31 154.10 165.50 153.20 165.40 Z M 152.38 165.32 L 151.26 165.11 C 150.37 164.94 149.51 165.52 149.34 166.41 C 149.17 167.30 149.75 168.16 150.64 168.34 L 151.76 168.55 C 152.65 168.72 153.52 168.14 153.69 167.25 C 153.86 166.35 153.27 165.49 152.38 165.32 Z M 151.42 165.15 L 150.43 164.86 C 149.56 164.60 148.65 165.10 148.40 165.97 C 148.14 166.84 148.64 167.75 149.51 168.01 L 150.49 168.30 C 151.36 168.55 152.27 168.06 152.53 167.19 C 152.78 166.32 152.29 165.40 151.42 165.15 Z M 150.56 164.90 L 149.68 164.56 C 148.83 164.23 147.88 164.66 147.56 165.50 C 147.23 166.35 147.65 167.30 148.50 167.62 L 149.38 167.96 C 150.23 168.29 151.17 167.87 151.50 167.02 C 151.83 166.18 151.41 165.23 150.56 164.90 Z M 149.75 164.59 L 148.92 164.23 C 148.10 163.86 147.13 164.23 146.76 165.06 C 146.39 165.88 146.76 166.85 147.59 167.22 L 148.42 167.59 C 149.25 167.96 150.22 167.58 150.58 166.76 C 150.95 165.93 150.58 164.96 149.75 164.59 Z M 148.94 164.24 L 148.74 164.14 C 147.92 163.76 146.95 164.12 146.57 164.94 C 146.19 165.77 146.55 166.74 147.37 167.12 L 147.57 167.21 C 148.39 167.59 149.37 167.23 149.74 166.41 C 150.12 165.59 149.76 164.61 148.94 164.24 Z"
      fill="black"
      fill-rule="nonzero" /><path d="M 130.12 132.38 L 130.06 131.01 C 130.01 130.01 129.16 129.23 128.15 129.27 C 127.15 129.32 126.37 130.17 126.41 131.18 L 126.47 132.55 C 126.52 133.56 127.37 134.33 128.38 134.29 C 129.39 134.24 130.17 133.39 130.12 132.38 Z M 130.11 130.95 L 130.07 130.35 C 129.98 129.31 129.08 128.54 128.04 128.62 C 127.01 128.70 126.23 129.60 126.31 130.64 L 126.36 131.24 C 126.44 132.28 127.35 133.05 128.38 132.97 C 129.42 132.89 130.19 131.99 130.11 130.95 Z M 126.28 130.43 L 126.26 130.95 C 126.22 132.01 127.05 132.89 128.10 132.93 C 129.16 132.97 130.04 132.14 130.08 131.09 L 130.10 130.56 C 130.14 129.51 129.31 128.62 128.26 128.58 C 127.20 128.55 126.32 129.37 126.28 130.43 Z M 126.26 131.01 L 126.25 132.23 C 126.25 133.28 127.10 134.14 128.16 134.15 C 129.21 134.15 130.07 133.30 130.08 132.24 L 130.08 131.03 C 130.09 129.97 129.23 129.11 128.18 129.11 C 127.12 129.10 126.26 129.96 126.26 131.01 Z M 126.25 132.24 L 126.25 133.41 C 126.25 134.46 127.11 135.32 128.17 135.32 C 129.22 135.32 130.08 134.46 130.08 133.41 L 130.08 132.24 C 130.08 131.18 129.22 130.32 128.17 130.32 C 127.11 130.32 126.25 131.18 126.25 132.24 Z M 126.25 133.40 L 126.25 134.33 C 126.24 135.39 127.10 136.25 128.16 136.25 C 129.21 136.26 130.07 135.40 130.08 134.35 L 130.08 133.41 C 130.08 132.36 129.23 131.50 128.17 131.49 C 127.12 131.49 126.26 132.34 126.25 133.40 Z M 126.25 134.31 L 126.23 135.30 C 126.22 136.36 127.07 137.23 128.13 137.24 C 129.18 137.25 130.05 136.41 130.07 135.35 L 130.08 134.36 C 130.09 133.30 129.24 132.44 128.19 132.42 C 127.13 132.41 126.26 133.26 126.25 134.31 Z M 126.23 135.28 L 126.21 136.34 C 126.18 137.39 127.01 138.28 128.07 138.30 C 129.13 138.33 130.01 137.49 130.04 136.43 L 130.07 135.37 C 130.09 134.32 129.26 133.43 128.20 133.41 C 127.14 133.38 126.26 134.22 126.23 135.28 Z M 126.20 136.31 L 126.16 137.36 C 126.12 138.42 126.94 139.31 128.00 139.35 C 129.06 139.40 129.96 138.57 130.00 137.51 L 130.04 136.46 C 130.08 135.40 129.26 134.51 128.20 134.47 C 127.14 134.42 126.25 135.25 126.20 136.31 Z M 126.16 137.33 L 126.11 138.33 C 126.05 139.39 126.86 140.29 127.92 140.35 C 128.99 140.41 129.89 139.59 129.95 138.53 L 130.00 137.54 C 130.06 136.48 129.24 135.57 128.18 135.51 C 127.12 135.46 126.22 136.27 126.16 137.33 Z M 126.10 138.31 L 126.04 139.33 C 125.98 140.39 126.78 141.31 127.85 141.37 C 128.91 141.44 129.82 140.63 129.89 139.57 L 129.95 138.55 C 130.02 137.48 129.21 136.57 128.14 136.50 C 127.08 136.44 126.17 137.25 126.10 138.31 Z M 126.04 139.32 L 125.97 140.34 C 125.90 141.41 126.70 142.33 127.77 142.40 C 128.83 142.47 129.75 141.66 129.82 140.60 L 129.89 139.58 C 129.96 138.51 129.16 137.59 128.09 137.52 C 127.03 137.45 126.11 138.26 126.04 139.32 Z M 125.97 140.34 L 125.90 141.33 C 125.82 142.40 126.63 143.32 127.69 143.40 C 128.76 143.47 129.68 142.67 129.76 141.60 L 129.83 140.61 C 129.90 139.54 129.10 138.62 128.03 138.54 C 126.96 138.47 126.04 139.27 125.97 140.34 Z M 125.89 141.33 L 125.82 142.37 C 125.75 143.44 126.55 144.37 127.62 144.44 C 128.69 144.52 129.61 143.71 129.69 142.64 L 129.76 141.60 C 129.83 140.54 129.03 139.61 127.96 139.54 C 126.90 139.46 125.97 140.27 125.89 141.33 Z M 125.82 142.38 L 125.75 143.45 C 125.67 144.52 126.48 145.44 127.55 145.52 C 128.62 145.59 129.55 144.78 129.62 143.71 L 129.69 142.64 C 129.76 141.57 128.95 140.64 127.88 140.57 C 126.82 140.50 125.89 141.31 125.82 142.38 Z M 125.74 143.47 L 125.68 144.46 C 125.62 145.53 126.44 146.45 127.51 146.51 C 128.58 146.57 129.50 145.76 129.56 144.69 L 129.62 143.69 C 129.68 142.62 128.87 141.70 127.80 141.64 C 126.73 141.58 125.81 142.39 125.74 143.47 Z M 125.68 144.49 L 125.64 145.42 C 125.59 146.49 126.43 147.40 127.50 147.45 C 128.57 147.49 129.48 146.66 129.53 145.59 L 129.57 144.66 C 129.61 143.58 128.78 142.68 127.71 142.63 C 126.64 142.58 125.73 143.41 125.68 144.49 Z M 125.64 145.47 L 125.62 146.49 C 125.60 147.56 126.45 148.45 127.53 148.47 C 128.61 148.49 129.49 147.63 129.51 146.56 L 129.53 145.54 C 129.55 144.46 128.69 143.58 127.62 143.56 C 126.54 143.54 125.66 144.39 125.64 145.47 Z M 125.62 146.64 L 125.69 147.75 C 125.75 148.82 126.68 149.64 127.75 149.57 C 128.83 149.51 129.65 148.58 129.58 147.51 L 129.51 146.40 C 129.45 145.33 128.52 144.51 127.45 144.57 C 126.37 144.64 125.55 145.57 125.62 146.64 Z M 125.77 148.21 L 126.04 149.07 C 126.36 150.10 127.45 150.68 128.48 150.35 C 129.51 150.03 130.09 148.94 129.77 147.91 L 129.50 147.05 C 129.18 146.02 128.08 145.44 127.05 145.76 C 126.02 146.08 125.45 147.18 125.77 148.21 Z M 126.64 149.99 L 127.23 150.48 C 128.06 151.18 129.29 151.07 129.99 150.24 C 130.68 149.41 130.57 148.18 129.75 147.48 L 129.16 146.99 C 128.33 146.30 127.10 146.40 126.40 147.23 C 125.71 148.06 125.82 149.29 126.64 149.99 Z M 128.33 150.93 L 129.23 151.01 C 130.31 151.10 131.25 150.30 131.34 149.22 C 131.43 148.14 130.63 147.19 129.55 147.11 L 128.65 147.03 C 127.57 146.94 126.63 147.74 126.54 148.82 C 126.45 149.90 127.25 150.84 128.33 150.93 Z M 129.88 150.95 L 130.94 150.68 C 131.99 150.41 132.62 149.34 132.35 148.29 C 132.08 147.25 131.01 146.62 129.96 146.89 L 128.90 147.16 C 127.85 147.43 127.23 148.50 127.50 149.55 C 127.77 150.59 128.83 151.22 129.88 150.95 Z M 131.32 150.54 L 132.27 150.07 C 133.24 149.59 133.64 148.42 133.16 147.45 C 132.68 146.48 131.51 146.08 130.54 146.56 L 129.59 147.03 C 128.62 147.50 128.22 148.68 128.70 149.65 C 129.17 150.62 130.35 151.02 131.32 150.54 Z M 132.49 149.94 L 133.33 149.38 C 134.22 148.78 134.47 147.57 133.87 146.67 C 133.27 145.77 132.05 145.53 131.15 146.13 L 130.31 146.69 C 129.42 147.29 129.17 148.50 129.77 149.40 C 130.38 150.30 131.59 150.54 132.49 149.94 Z M 133.44 149.30 L 134.24 148.68 C 135.09 148.02 135.24 146.79 134.58 145.93 C 133.91 145.08 132.68 144.93 131.83 145.59 L 131.04 146.21 C 130.18 146.88 130.03 148.11 130.69 148.96 C 131.36 149.81 132.59 149.97 133.44 149.30 Z M 134.27 148.65 L 135.04 148.02 C 135.87 147.34 135.99 146.10 135.31 145.27 C 134.62 144.44 133.39 144.31 132.56 145.00 L 131.79 145.63 C 130.96 146.31 130.84 147.54 131.52 148.38 C 132.21 149.21 133.44 149.33 134.27 148.65 Z M 135.03 148.03 L 135.78 147.42 C 136.61 146.74 136.74 145.51 136.06 144.67 C 135.39 143.84 134.16 143.71 133.32 144.39 L 132.57 144.99 C 131.73 145.67 131.60 146.90 132.28 147.74 C 132.96 148.58 134.19 148.70 135.03 148.03 Z M 135.77 147.41 L 136.53 146.79 C 137.37 146.12 137.49 144.89 136.81 144.06 C 136.14 143.23 134.91 143.10 134.08 143.78 L 133.32 144.39 C 132.49 145.07 132.36 146.29 133.04 147.13 C 133.72 147.96 134.94 148.09 135.77 147.41 Z M 136.55 146.77 L 137.34 146.11 C 138.17 145.42 138.27 144.20 137.59 143.38 C 136.90 142.56 135.68 142.45 134.86 143.13 L 134.06 143.80 C 133.24 144.49 133.13 145.71 133.82 146.53 C 134.51 147.35 135.73 147.46 136.55 146.77 Z M 137.37 146.07 L 138.10 145.44 C 138.90 144.74 138.98 143.53 138.29 142.72 C 137.59 141.92 136.37 141.83 135.57 142.53 L 134.84 143.17 C 134.04 143.86 133.95 145.08 134.65 145.88 C 135.35 146.69 136.56 146.77 137.37 146.07 Z M 138.11 145.41 L 138.84 144.75 C 139.63 144.05 139.70 142.84 138.99 142.05 C 138.29 141.27 137.08 141.20 136.29 141.90 L 135.56 142.56 C 134.77 143.27 134.70 144.48 135.41 145.26 C 136.11 146.05 137.32 146.12 138.11 145.41 Z M 138.85 144.73 L 139.60 144.04 C 140.38 143.33 140.43 142.13 139.72 141.36 C 139.02 140.58 137.82 140.53 137.04 141.24 L 136.29 141.93 C 135.51 142.63 135.46 143.84 136.17 144.61 C 136.87 145.38 138.07 145.44 138.85 144.73 Z M 139.60 144.02 L 140.36 143.32 C 141.13 142.61 141.17 141.42 140.46 140.65 C 139.76 139.89 138.56 139.84 137.80 140.55 L 137.04 141.26 C 136.28 141.96 136.23 143.16 136.94 143.92 C 137.65 144.68 138.84 144.73 139.60 144.02 Z M 140.36 143.29 L 141.12 142.58 C 141.87 141.87 141.91 140.69 141.20 139.94 C 140.50 139.19 139.32 139.15 138.57 139.86 L 137.81 140.58 C 137.06 141.28 137.02 142.46 137.72 143.21 C 138.43 143.96 139.60 144.00 140.36 143.29 Z M 141.10 142.54 L 141.85 141.83 C 142.59 141.14 142.62 139.98 141.92 139.25 C 141.23 138.52 140.07 138.48 139.34 139.18 L 138.59 139.89 C 137.85 140.59 137.82 141.74 138.52 142.48 C 139.21 143.21 140.37 143.24 141.10 142.54 Z M 141.84 141.79 L 142.56 141.10 C 143.27 140.42 143.29 139.29 142.60 138.57 C 141.92 137.86 140.79 137.84 140.08 138.53 L 139.36 139.22 C 138.64 139.90 138.62 141.03 139.31 141.75 C 139.99 142.46 141.12 142.48 141.84 141.79 Z M 142.54 141.06 L 143.22 140.39 C 143.91 139.72 143.92 138.61 143.25 137.92 C 142.57 137.23 141.46 137.22 140.78 137.90 L 140.09 138.57 C 139.40 139.24 139.39 140.35 140.07 141.04 C 140.74 141.73 141.85 141.74 142.54 141.06 Z M 143.21 140.35 L 143.92 139.64 C 144.59 138.97 144.59 137.88 143.92 137.22 C 143.25 136.55 142.16 136.55 141.49 137.22 L 140.78 137.93 C 140.12 138.61 140.12 139.69 140.79 140.36 C 141.46 141.03 142.55 141.02 143.21 140.35 Z M 143.92 139.61 L 144.63 138.88 C 145.28 138.21 145.26 137.14 144.59 136.49 C 143.92 135.84 142.85 135.86 142.20 136.53 L 141.50 137.26 C 140.85 137.92 140.86 138.99 141.53 139.64 C 142.20 140.29 143.27 140.28 143.92 139.61 Z M 144.62 138.85 L 145.30 138.14 C 145.93 137.48 145.91 136.42 145.24 135.79 C 144.57 135.15 143.52 135.18 142.88 135.85 L 142.21 136.55 C 141.57 137.22 141.60 138.28 142.27 138.91 C 142.93 139.54 143.99 139.52 144.62 138.85 Z M 145.29 138.12 L 145.81 137.58 C 146.43 136.91 146.40 135.87 145.74 135.25 C 145.08 134.62 144.04 134.65 143.41 135.31 L 142.89 135.86 C 142.27 136.52 142.30 137.57 142.96 138.19 C 143.62 138.81 144.66 138.79 145.29 138.12 Z"
      fill="black"
      fill-rule="nonzero" /></svg>