<svg xmlns="http://www.w3.org/2000/svg" width="300" height="300" viewBox="0 0 300 300">
<path d="M 125.15 106.93 L 125.97 107.28 C 126.89 107.67 127.95 107.24 128.34 106.32 C 128.73 105.40 128.30 104.34 127.38 103.95 L 126.56 103.60 C 125.64 103.21 124.58 103.64 124.19 104.56 C 123.80 105.48 124.23 106.54 125.15 106.93 Z M 126.05 107.33 L 126.93 107.65 C 127.87 108.00 128.92 107.52 129.27 106.57 C 129.62 105.62 129.13 104.57 128.19 104.23 L 127.31 103.90 C 126.36 103.56 125.31 104.04 124.96 104.99 C 124.62 105.93 125.10 106.98 126.05 107.33 Z M 127.07 107.72 L 128.07 107.99 C 129.05 108.26 130.07 107.68 130.33 106.70 C 130.60 105.72 130.03 104.71 129.04 104.44 L 128.04 104.16 C 127.06 103.89 126.05 104.47 125.78 105.45 C 125.51 106.44 126.09 107.45 127.07 107.72 Z M 128.24 108.05 L 129.34 108.23 C 130.35 108.41 131.31 107.73 131.48 106.72 C 131.66 105.71 130.98 104.75 129.97 104.57 L 128.87 104.38 C 127.86 104.21 126.90 104.89 126.73 105.90 C 126.55 106.91 127.23 107.87 128.24 108.05 Z M 129.47 108.26 L 130.44 108.35 C 131.47 108.45 132.38 107.70 132.48 106.68 C 132.58 105.65 131.83 104.74 130.80 104.64 L 129.83 104.55 C 128.81 104.45 127.89 105.20 127.80 106.22 C 127.70 107.25 128.45 108.16 129.47 108.26 Z M 130.53 108.36 L 131.56 108.41 C 132.59 108.47 133.46 107.67 133.52 106.64 C 133.57 105.62 132.78 104.74 131.75 104.69 L 130.72 104.63 C 129.69 104.58 128.81 105.37 128.76 106.40 C 128.71 107.43 129.50 108.31 130.53 108.36 Z M 131.62 108.42 L 132.67 108.43 C 133.70 108.45 134.55 107.63 134.57 106.60 C 134.58 105.57 133.76 104.72 132.73 104.70 L 131.68 104.68 C 130.65 104.67 129.80 105.49 129.79 106.52 C 129.77 107.55 130.59 108.40 131.62 108.42 Z M 132.72 108.43 L 133.73 108.43 C 134.77 108.42 135.59 107.57 135.58 106.54 C 135.57 105.51 134.73 104.68 133.70 104.69 L 132.68 104.70 C 131.65 104.71 130.82 105.55 130.83 106.59 C 130.84 107.62 131.69 108.44 132.72 108.43 Z M 133.78 108.42 L 134.74 108.39 C 135.77 108.36 136.58 107.50 136.55 106.46 C 136.51 105.43 135.65 104.63 134.62 104.66 L 133.65 104.69 C 132.62 104.72 131.82 105.59 131.85 106.62 C 131.88 107.65 132.75 108.46 133.78 108.42 Z M 134.79 108.39 L 135.95 108.32 C 136.98 108.26 137.76 107.37 137.70 106.34 C 137.63 105.31 136.75 104.53 135.72 104.59 L 134.56 104.66 C 133.54 104.73 132.75 105.61 132.81 106.64 C 132.88 107.67 133.76 108.45 134.79 108.39 Z M 136.02 108.31 L 137.01 108.21 C 138.03 108.11 138.78 107.20 138.68 106.17 C 138.58 105.15 137.66 104.40 136.64 104.50 L 135.65 104.60 C 134.62 104.70 133.88 105.61 133.98 106.64 C 134.08 107.66 134.99 108.41 136.02 108.31 Z M 137.07 108.20 L 137.97 108.08 C 138.99 107.94 139.70 107.00 139.56 105.98 C 139.42 104.97 138.49 104.25 137.47 104.39 L 136.57 104.51 C 135.55 104.65 134.84 105.59 134.98 106.61 C 135.12 107.63 136.05 108.34 137.07 108.20 Z M 138.02 108.07 L 138.92 107.92 C 139.94 107.76 140.62 106.80 140.45 105.79 C 140.29 104.77 139.33 104.09 138.32 104.25 L 137.42 104.40 C 136.40 104.57 135.72 105.52 135.88 106.54 C 136.05 107.55 137.01 108.24 138.02 108.07 Z M 138.96 107.91 L 139.92 107.74 C 140.93 107.55 141.59 106.58 141.41 105.57 C 141.22 104.56 140.25 103.90 139.24 104.08 L 138.28 104.26 C 137.27 104.45 136.61 105.42 136.79 106.43 C 136.98 107.43 137.95 108.10 138.96 107.91 Z M 139.95 107.73 L 140.94 107.52 C 141.94 107.32 142.59 106.34 142.38 105.34 C 142.18 104.33 141.20 103.69 140.20 103.89 L 139.21 104.09 C 138.21 104.30 137.56 105.28 137.77 106.28 C 137.97 107.28 138.95 107.93 139.95 107.73 Z M 140.97 107.51 L 141.98 107.29 C 142.97 107.07 143.60 106.08 143.38 105.08 C 143.16 104.09 142.17 103.46 141.17 103.68 L 140.17 103.90 C 139.17 104.12 138.54 105.11 138.76 106.11 C 138.98 107.11 139.97 107.74 140.97 107.51 Z M 142.00 107.28 L 142.95 107.05 C 143.94 106.82 144.56 105.82 144.32 104.83 C 144.08 103.84 143.09 103.23 142.10 103.46 L 141.15 103.69 C 140.15 103.92 139.54 104.92 139.78 105.91 C 140.01 106.90 141.01 107.52 142.00 107.28 Z M 142.97 107.05 L 143.94 106.81 C 144.92 106.56 145.53 105.56 145.28 104.57 C 145.03 103.59 144.03 102.98 143.05 103.23 L 142.08 103.47 C 141.09 103.72 140.49 104.72 140.74 105.70 C 140.98 106.69 141.98 107.29 142.97 107.05 Z M 143.94 106.80 L 144.93 106.55 C 145.91 106.30 146.50 105.30 146.25 104.31 C 146.00 103.33 145.00 102.74 144.02 102.99 L 143.04 103.24 C 142.05 103.49 141.46 104.49 141.71 105.47 C 141.96 106.45 142.96 107.05 143.94 106.80 Z M 144.93 106.54 L 145.91 106.29 C 146.89 106.04 147.48 105.05 147.23 104.06 C 146.98 103.08 145.98 102.49 145.00 102.74 L 144.02 102.99 C 143.04 103.24 142.45 104.24 142.70 105.22 C 142.95 106.20 143.94 106.79 144.93 106.54 Z M 145.90 106.29 L 146.87 106.05 C 147.85 105.80 148.45 104.80 148.20 103.82 C 147.95 102.84 146.95 102.25 145.98 102.50 L 145.01 102.74 C 144.03 102.99 143.43 103.99 143.68 104.97 C 143.93 105.95 144.92 106.54 145.90 106.29 Z M 146.87 106.04 L 147.84 105.80 C 148.82 105.55 149.41 104.56 149.17 103.58 C 148.92 102.60 147.93 102.01 146.95 102.26 L 145.98 102.50 C 145.00 102.75 144.41 103.74 144.66 104.72 C 144.90 105.70 145.89 106.29 146.87 106.04 Z M 147.84 105.79 L 148.81 105.54 C 149.79 105.30 150.38 104.31 150.13 103.34 C 149.88 102.36 148.89 101.77 147.92 102.02 L 146.95 102.26 C 145.98 102.51 145.39 103.50 145.63 104.47 C 145.88 105.45 146.87 106.04 147.84 105.79 Z M 148.81 105.54 L 149.78 105.29 C 150.75 105.05 151.34 104.06 151.09 103.09 C 150.84 102.12 149.85 101.53 148.88 101.78 L 147.92 102.02 C 146.95 102.27 146.36 103.26 146.61 104.23 C 146.86 105.20 147.84 105.79 148.81 105.54 Z M 149.78 105.29 L 150.75 105.04 C 151.71 104.79 152.29 103.80 152.04 102.83 C 151.79 101.87 150.80 101.29 149.84 101.54 L 148.88 101.79 C 147.91 102.04 147.33 103.02 147.58 103.99 C 147.83 104.96 148.82 105.54 149.78 105.29 Z M 150.76 105.03 L 151.72 104.77 C 152.68 104.51 153.25 103.53 153.00 102.57 C 152.74 101.60 151.75 101.03 150.79 101.29 L 149.83 101.55 C 148.87 101.80 148.29 102.79 148.55 103.75 C 148.81 104.71 149.79 105.28 150.76 105.03 Z M 151.73 104.76 L 152.71 104.49 C 153.66 104.23 154.22 103.24 153.96 102.28 C 153.69 101.33 152.70 100.77 151.75 101.03 L 150.78 101.30 C 149.82 101.56 149.26 102.55 149.52 103.51 C 149.79 104.46 150.78 105.02 151.73 104.76 Z M 152.72 104.48 L 153.70 104.19 C 154.65 103.92 155.20 102.93 154.93 101.98 C 154.65 101.03 153.66 100.48 152.71 100.76 L 151.73 101.04 C 150.78 101.32 150.24 102.31 150.51 103.26 C 150.78 104.21 151.78 104.75 152.72 104.48 Z M 153.72 104.18 L 154.70 103.89 C 155.64 103.60 156.17 102.61 155.89 101.67 C 155.61 100.73 154.62 100.20 153.68 100.48 L 152.70 100.77 C 151.75 101.05 151.22 102.05 151.50 102.99 C 151.79 103.93 152.78 104.46 153.72 104.18 Z M 154.71 103.88 L 155.67 103.58 C 156.60 103.29 157.12 102.30 156.84 101.37 C 156.55 100.43 155.56 99.91 154.62 100.20 L 153.67 100.49 C 152.73 100.78 152.21 101.77 152.49 102.70 C 152.78 103.64 153.77 104.16 154.71 103.88 Z M 155.67 103.57 L 156.59 103.28 C 157.52 102.99 158.03 102.01 157.74 101.08 C 157.45 100.15 156.46 99.63 155.54 99.92 L 154.62 100.21 C 153.69 100.50 153.17 101.48 153.46 102.41 C 153.75 103.34 154.74 103.86 155.67 103.57 Z M 156.59 103.27 L 157.44 103.00 C 158.36 102.71 158.88 101.73 158.58 100.80 C 158.29 99.88 157.31 99.37 156.38 99.66 L 155.53 99.93 C 154.61 100.22 154.10 101.21 154.39 102.13 C 154.68 103.05 155.67 103.57 156.59 103.27 Z M 157.45 102.99 L 158.32 102.71 C 159.24 102.41 159.74 101.43 159.44 100.51 C 159.14 99.59 158.16 99.09 157.24 99.39 L 156.37 99.67 C 155.46 99.97 154.95 100.96 155.25 101.87 C 155.55 102.79 156.54 103.29 157.45 102.99 Z M 158.34 102.70 L 159.30 102.37 C 160.21 102.06 160.70 101.07 160.39 100.16 C 160.08 99.25 159.09 98.77 158.18 99.08 L 157.22 99.40 C 156.31 99.71 155.83 100.70 156.14 101.61 C 156.44 102.52 157.43 103.00 158.34 102.70 Z M 159.32 102.35 L 160.42 101.96 C 161.32 101.64 161.79 100.65 161.47 99.75 C 161.15 98.85 160.16 98.38 159.26 98.70 L 158.16 99.09 C 157.26 99.41 156.79 100.40 157.11 101.30 C 157.43 102.20 158.42 102.67 159.32 102.35 Z M 160.43 101.95 L 161.31 101.63 C 162.21 101.30 162.67 100.31 162.34 99.42 C 162.01 98.52 161.02 98.06 160.13 98.39 L 159.25 98.71 C 158.35 99.04 157.89 100.03 158.22 100.93 C 158.55 101.82 159.54 102.28 160.43 101.95 Z M 161.32 101.62 L 162.27 101.27 C 163.16 100.93 163.61 99.94 163.28 99.05 C 162.95 98.16 161.96 97.71 161.07 98.04 L 160.12 98.40 C 159.23 98.73 158.78 99.72 159.11 100.61 C 159.44 101.50 160.43 101.95 161.32 101.62 Z M 162.28 101.26 L 163.26 100.88 C 164.15 100.55 164.59 99.56 164.26 98.67 C 163.92 97.79 162.93 97.34 162.04 97.68 L 161.06 98.05 C 160.18 98.39 159.73 99.38 160.07 100.26 C 160.41 101.15 161.40 101.59 162.28 101.26 Z M 163.27 100.87 L 164.25 100.50 C 165.13 100.15 165.57 99.16 165.22 98.28 C 164.88 97.40 163.89 96.97 163.01 97.31 L 162.04 97.69 C 161.16 98.03 160.72 99.02 161.06 99.90 C 161.40 100.78 162.39 101.22 163.27 100.87 Z M 164.26 100.49 L 165.19 100.12 C 166.07 99.77 166.50 98.78 166.15 97.90 C 165.80 97.03 164.81 96.60 163.94 96.95 L 163.00 97.32 C 162.13 97.67 161.70 98.66 162.05 99.53 C 162.39 100.41 163.38 100.83 164.26 100.49 Z M 165.21 100.10 L 166.17 99.71 C 167.04 99.36 167.45 98.36 167.10 97.50 C 166.74 96.63 165.75 96.21 164.88 96.57 L 163.92 96.96 C 163.05 97.32 162.64 98.31 162.99 99.17 C 163.35 100.04 164.34 100.46 165.21 100.10 Z M 166.19 99.69 L 167.24 99.24 C 168.10 98.87 168.49 97.88 168.13 97.02 C 167.76 96.17 166.77 95.77 165.91 96.14 L 164.86 96.59 C 164.00 96.96 163.61 97.95 163.97 98.80 C 164.34 99.66 165.33 100.06 166.19 99.69 Z M 167.26 99.21 L 168.17 98.81 C 169.01 98.43 169.38 97.44 169.00 96.60 C 168.62 95.75 167.63 95.38 166.79 95.76 L 165.89 96.16 C 165.05 96.54 164.67 97.53 165.05 98.37 C 165.43 99.22 166.42 99.59 167.26 99.21 Z M 168.18 98.78 L 168.99 98.40 C 169.82 98.02 170.17 97.03 169.78 96.20 C 169.40 95.37 168.41 95.02 167.58 95.40 L 166.78 95.78 C 165.95 96.17 165.59 97.16 165.98 97.98 C 166.37 98.81 167.35 99.17 168.18 98.78 Z M 168.99 98.39 L 169.53 98.13 C 170.35 97.74 170.70 96.76 170.31 95.94 C 169.92 95.12 168.94 94.77 168.12 95.16 L 167.58 95.42 C 166.76 95.81 166.41 96.79 166.80 97.61 C 167.19 98.43 168.17 98.78 168.99 98.39 Z"
      fill="black"
      fill-rule="nonzero" /><path d="M 142.67 111.39 L 142.29 112.35 C 141.93 113.24 142.37 114.26 143.26 114.62 C 144.16 114.97 145.17 114.54 145.53 113.64 L 145.91 112.68 C 146.27 111.79 145.83 110.77 144.94 110.41 C 144.04 110.06 143.03 110.49 142.67 111.39 Z M 142.28 112.36 L 141.91 113.32 C 141.56 114.21 142.00 115.23 142.90 115.58 C 143.80 115.93 144.81 115.48 145.16 114.58 L 145.54 113.63 C 145.89 112.73 145.44 111.72 144.54 111.37 C 143.64 111.02 142.63 111.46 142.28 112.36 Z M 141.90 113.34 L 141.55 114.28 C 141.21 115.19 141.67 116.19 142.58 116.53 C 143.48 116.87 144.49 116.41 144.82 115.50 L 145.18 114.56 C 145.51 113.65 145.05 112.65 144.15 112.31 C 143.24 111.97 142.23 112.43 141.90 113.34 Z M 141.53 114.32 L 141.21 115.25 C 140.90 116.16 141.38 117.16 142.30 117.47 C 143.21 117.79 144.21 117.30 144.52 116.39 L 144.84 115.46 C 145.15 114.55 144.67 113.55 143.76 113.24 C 142.84 112.92 141.85 113.41 141.53 114.32 Z M 141.19 115.31 L 140.91 116.24 C 140.62 117.16 141.14 118.14 142.07 118.42 C 142.99 118.71 143.97 118.19 144.26 117.26 L 144.54 116.33 C 144.82 115.41 144.30 114.43 143.38 114.14 C 142.45 113.86 141.48 114.38 141.19 115.31 Z M 140.88 116.32 L 140.62 117.35 C 140.38 118.29 140.95 119.24 141.88 119.48 C 142.82 119.72 143.78 119.16 144.02 118.22 L 144.28 117.18 C 144.52 116.24 143.95 115.29 143.01 115.05 C 142.08 114.81 141.12 115.38 140.88 116.32 Z M 140.60 117.44 L 140.40 118.43 C 140.21 119.38 140.82 120.31 141.77 120.50 C 142.72 120.69 143.64 120.08 143.84 119.13 L 144.04 118.13 C 144.23 117.18 143.61 116.26 142.66 116.07 C 141.71 115.87 140.79 116.49 140.60 117.44 Z M 140.38 118.52 L 140.24 119.47 C 140.09 120.43 140.75 121.32 141.71 121.47 C 142.66 121.62 143.56 120.96 143.71 120.00 L 143.85 119.04 C 144.00 118.09 143.34 117.19 142.38 117.05 C 141.42 116.90 140.53 117.56 140.38 118.52 Z M 140.23 119.55 L 140.13 120.48 C 140.02 121.44 140.72 122.31 141.68 122.41 C 142.65 122.51 143.51 121.81 143.62 120.85 L 143.72 119.92 C 143.82 118.96 143.12 118.09 142.16 117.99 C 141.19 117.89 140.33 118.58 140.23 119.55 Z M 140.12 120.55 L 140.06 121.54 C 139.99 122.51 140.73 123.35 141.69 123.41 C 142.66 123.47 143.50 122.74 143.56 121.77 L 143.62 120.78 C 143.69 119.81 142.95 118.97 141.98 118.91 C 141.02 118.85 140.18 119.58 140.12 120.55 Z M 140.05 121.61 L 140.02 122.59 C 140.00 123.56 140.76 124.36 141.73 124.39 C 142.70 124.42 143.50 123.66 143.53 122.69 L 143.56 121.71 C 143.59 120.74 142.83 119.93 141.86 119.90 C 140.89 119.87 140.08 120.64 140.05 121.61 Z M 140.03 122.63 L 140.02 123.63 C 140.01 124.60 140.79 125.39 141.76 125.39 C 142.73 125.40 143.52 124.62 143.53 123.65 L 143.53 122.65 C 143.54 121.68 142.76 120.89 141.79 120.88 C 140.82 120.88 140.03 121.66 140.03 122.63 Z M 140.02 123.64 L 140.02 124.62 C 140.02 125.59 140.80 126.38 141.77 126.38 C 142.74 126.38 143.52 125.59 143.52 124.62 L 143.52 123.64 C 143.52 122.67 142.74 121.89 141.77 121.89 C 140.80 121.89 140.02 122.67 140.02 123.64 Z M 140.02 124.63 L 140.02 125.59 C 140.03 126.56 140.81 127.34 141.77 127.34 C 142.74 127.34 143.52 126.56 143.52 125.59 L 143.52 124.62 C 143.52 123.66 142.73 122.87 141.77 122.88 C 140.80 122.88 140.02 123.66 140.02 124.63 Z M 140.03 125.60 L 140.03 126.61 C 140.04 127.57 140.82 128.35 141.78 128.34 C 142.75 128.34 143.52 127.55 143.52 126.59 L 143.52 125.59 C 143.51 124.62 142.73 123.85 141.77 123.85 C 140.80 123.85 140.03 124.64 140.03 125.60 Z M 140.04 126.61 L 140.05 127.65 C 140.06 128.61 140.84 129.38 141.80 129.37 C 142.76 129.36 143.53 128.58 143.52 127.62 L 143.51 126.58 C 143.51 125.62 142.72 124.85 141.76 124.86 C 140.80 124.87 140.03 125.65 140.04 126.61 Z M 140.05 127.66 L 140.07 128.64 C 140.08 129.60 140.87 130.36 141.83 130.34 C 142.78 130.33 143.55 129.54 143.53 128.59 L 143.52 127.61 C 143.50 126.65 142.72 125.89 141.76 125.90 C 140.80 125.91 140.04 126.70 140.05 127.66 Z M 140.08 128.66 L 140.10 129.57 C 140.13 130.52 140.92 131.27 141.87 131.24 C 142.82 131.22 143.57 130.43 143.55 129.47 L 143.52 128.57 C 143.50 127.62 142.71 126.87 141.75 126.89 C 140.80 126.92 140.05 127.71 140.08 128.66 Z M 140.11 129.61 L 140.16 130.55 C 140.21 131.50 141.01 132.23 141.95 132.18 C 142.90 132.13 143.63 131.33 143.58 130.38 L 143.54 129.44 C 143.49 128.49 142.69 127.76 141.74 127.81 C 140.79 127.86 140.07 128.66 140.11 129.61 Z M 140.17 130.60 L 140.25 131.61 C 140.33 132.55 141.15 133.25 142.09 133.17 C 143.02 133.10 143.72 132.28 143.65 131.34 L 143.57 130.33 C 143.49 129.39 142.67 128.69 141.74 128.77 C 140.80 128.84 140.10 129.66 140.17 130.60 Z M 140.27 131.67 L 140.39 132.76 C 140.50 133.69 141.34 134.36 142.27 134.25 C 143.20 134.15 143.87 133.31 143.76 132.38 L 143.63 131.28 C 143.53 130.35 142.69 129.69 141.76 129.79 C 140.83 129.90 140.16 130.74 140.27 131.67 Z M 140.41 132.82 L 140.56 133.85 C 140.70 134.77 141.56 135.40 142.48 135.27 C 143.40 135.13 144.04 134.27 143.90 133.35 L 143.74 132.32 C 143.61 131.40 142.75 130.77 141.83 130.90 C 140.91 131.04 140.27 131.90 140.41 132.82 Z M 140.58 133.89 L 140.75 134.86 C 140.91 135.77 141.78 136.38 142.69 136.22 C 143.60 136.06 144.21 135.20 144.05 134.28 L 143.88 133.31 C 143.73 132.40 142.86 131.79 141.94 131.95 C 141.03 132.11 140.42 132.98 140.58 133.89 Z M 140.76 134.89 L 140.95 135.89 C 141.13 136.80 142.00 137.39 142.91 137.22 C 143.82 137.04 144.41 136.17 144.24 135.26 L 144.04 134.26 C 143.87 133.35 142.99 132.76 142.09 132.93 C 141.18 133.10 140.59 133.98 140.76 134.89 Z M 140.96 135.91 L 141.17 136.93 C 141.36 137.83 142.24 138.41 143.14 138.23 C 144.04 138.04 144.62 137.16 144.43 136.26 L 144.23 135.24 C 144.04 134.34 143.16 133.76 142.26 133.95 C 141.36 134.13 140.78 135.01 140.96 135.91 Z M 141.18 136.94 L 141.39 137.95 C 141.59 138.84 142.47 139.41 143.36 139.22 C 144.26 139.03 144.83 138.15 144.64 137.25 L 144.43 136.25 C 144.23 135.35 143.35 134.78 142.46 134.97 C 141.56 135.16 140.99 136.04 141.18 136.94 Z M 141.40 137.95 L 141.62 138.93 C 141.81 139.82 142.69 140.38 143.58 140.19 C 144.47 139.99 145.04 139.11 144.84 138.22 L 144.63 137.25 C 144.44 136.36 143.56 135.79 142.66 135.99 C 141.77 136.18 141.21 137.06 141.40 137.95 Z M 141.62 138.93 L 141.84 139.91 C 142.03 140.80 142.91 141.36 143.80 141.16 C 144.69 140.97 145.25 140.09 145.06 139.20 L 144.84 138.22 C 144.64 137.33 143.76 136.77 142.88 136.97 C 141.99 137.16 141.43 138.04 141.62 138.93 Z M 141.84 139.91 L 142.08 141.00 C 142.28 141.89 143.16 142.45 144.04 142.25 C 144.93 142.06 145.49 141.18 145.29 140.30 L 145.05 139.20 C 144.86 138.32 143.98 137.76 143.09 137.95 C 142.21 138.15 141.65 139.02 141.84 139.91 Z M 142.08 141.00 L 142.30 142.00 C 142.50 142.89 143.37 143.45 144.26 143.25 C 145.15 143.06 145.71 142.18 145.51 141.30 L 145.29 140.30 C 145.10 139.41 144.22 138.85 143.34 139.05 C 142.45 139.24 141.89 140.12 142.08 141.00 Z M 142.31 142.00 L 142.51 142.94 C 142.70 143.82 143.58 144.38 144.46 144.19 C 145.35 143.99 145.91 143.12 145.71 142.23 L 145.51 141.30 C 145.32 140.41 144.44 139.85 143.56 140.05 C 142.67 140.24 142.11 141.12 142.31 142.00 Z M 142.51 142.94 L 142.71 143.83 C 142.90 144.71 143.77 145.27 144.66 145.08 C 145.54 144.89 146.10 144.01 145.91 143.13 L 145.71 142.23 C 145.52 141.35 144.65 140.79 143.76 140.98 C 142.88 141.18 142.32 142.05 142.51 142.94 Z M 142.71 143.83 L 142.82 144.36 C 143.02 145.24 143.89 145.80 144.77 145.61 C 145.66 145.41 146.22 144.54 146.02 143.66 L 145.91 143.13 C 145.71 142.24 144.84 141.69 143.96 141.88 C 143.07 142.07 142.52 142.94 142.71 143.83 Z"
      fill="black"
      fill-rule="nonzero" /><path d="M 159.92 113.37 L 159.92 114.39 C 159.92 115.43 160.77 116.27 161.80 116.27 C 162.84 116.26 163.68 115.42 163.68 114.38 L 163.68 113.36 C 163.67 112.32 162.83 111.48 161.79 111.48 C 160.76 111.48 159.92 112.33 159.92 113.37 Z M 159.92 114.42 L 159.93 115.43 C 159.95 116.47 160.80 117.30 161.84 117.28 C 162.88 117.27 163.71 116.41 163.69 115.37 L 163.68 114.36 C 163.66 113.32 162.81 112.49 161.77 112.51 C 160.73 112.52 159.90 113.38 159.92 114.42 Z M 159.94 115.48 L 159.98 116.47 C 160.02 117.50 160.89 118.31 161.93 118.27 C 162.97 118.23 163.77 117.35 163.73 116.31 L 163.69 115.33 C 163.65 114.29 162.77 113.48 161.74 113.52 C 160.70 113.57 159.89 114.44 159.94 115.48 Z M 159.98 116.54 L 160.06 117.50 C 160.14 118.53 161.05 119.30 162.09 119.22 C 163.12 119.13 163.89 118.23 163.81 117.19 L 163.73 116.24 C 163.64 115.20 162.73 114.43 161.70 114.52 C 160.66 114.60 159.89 115.51 159.98 116.54 Z M 160.07 117.59 L 160.19 118.53 C 160.33 119.56 161.28 120.28 162.31 120.14 C 163.34 120.01 164.06 119.06 163.92 118.03 L 163.80 117.09 C 163.66 116.07 162.71 115.34 161.68 115.48 C 160.65 115.62 159.93 116.57 160.07 117.59 Z M 160.21 118.61 L 160.37 119.56 C 160.55 120.58 161.53 121.27 162.55 121.09 C 163.57 120.91 164.26 119.93 164.08 118.91 L 163.91 117.95 C 163.73 116.93 162.75 116.25 161.73 116.43 C 160.71 116.61 160.03 117.58 160.21 118.61 Z M 160.38 119.60 L 160.59 120.63 C 160.79 121.64 161.78 122.31 162.80 122.10 C 163.82 121.90 164.48 120.91 164.27 119.89 L 164.07 118.87 C 163.87 117.85 162.88 117.19 161.86 117.39 C 160.84 117.59 160.18 118.58 160.38 119.60 Z M 160.59 120.64 L 160.80 121.64 C 161.01 122.66 162.00 123.31 163.02 123.10 C 164.03 122.89 164.69 121.90 164.48 120.88 L 164.27 119.88 C 164.06 118.86 163.07 118.21 162.05 118.42 C 161.03 118.63 160.38 119.62 160.59 120.64 Z M 160.80 121.64 L 161.00 122.62 C 161.21 123.63 162.20 124.29 163.22 124.08 C 164.23 123.87 164.89 122.88 164.68 121.86 L 164.48 120.88 C 164.27 119.86 163.27 119.21 162.26 119.42 C 161.24 119.63 160.59 120.62 160.80 121.64 Z M 161.00 122.62 L 161.21 123.63 C 161.42 124.65 162.42 125.30 163.43 125.09 C 164.45 124.88 165.10 123.88 164.89 122.87 L 164.68 121.86 C 164.47 120.84 163.47 120.19 162.46 120.40 C 161.44 120.61 160.79 121.61 161.00 122.62 Z M 161.21 123.64 L 161.43 124.64 C 161.64 125.65 162.63 126.30 163.65 126.09 C 164.66 125.87 165.31 124.88 165.10 123.86 L 164.88 122.86 C 164.67 121.85 163.68 121.20 162.66 121.41 C 161.65 121.63 161.00 122.62 161.21 123.64 Z M 161.43 124.65 L 161.63 125.60 C 161.85 126.61 162.85 127.26 163.86 127.04 C 164.87 126.82 165.52 125.83 165.30 124.81 L 165.09 123.86 C 164.87 122.85 163.88 122.20 162.87 122.42 C 161.85 122.64 161.21 123.63 161.43 124.65 Z M 161.64 125.61 L 161.87 126.67 C 162.10 127.68 163.10 128.31 164.11 128.09 C 165.11 127.87 165.75 126.87 165.53 125.86 L 165.29 124.80 C 165.07 123.79 164.07 123.16 163.06 123.38 C 162.05 123.61 161.42 124.61 161.64 125.61 Z M 161.88 126.67 L 162.10 127.65 C 162.33 128.66 163.32 129.29 164.33 129.06 C 165.34 128.83 165.97 127.84 165.74 126.83 L 165.52 125.85 C 165.29 124.85 164.30 124.22 163.29 124.44 C 162.28 124.67 161.65 125.67 161.88 126.67 Z M 162.10 127.64 L 162.31 128.58 C 162.53 129.58 163.53 130.21 164.53 129.99 C 165.53 129.77 166.17 128.78 165.94 127.77 L 165.74 126.84 C 165.52 125.83 164.52 125.20 163.52 125.42 C 162.51 125.64 161.88 126.64 162.10 127.64 Z M 162.31 128.55 L 162.50 129.49 C 162.71 130.49 163.70 131.13 164.70 130.92 C 165.71 130.71 166.35 129.73 166.14 128.72 L 165.94 127.79 C 165.73 126.79 164.75 126.15 163.75 126.36 C 162.74 126.57 162.10 127.55 162.31 128.55 Z M 162.50 129.46 L 162.69 130.41 C 162.88 131.41 163.85 132.07 164.86 131.87 C 165.86 131.68 166.52 130.70 166.32 129.70 L 166.14 128.75 C 165.94 127.75 164.97 127.09 163.97 127.29 C 162.96 127.48 162.31 128.45 162.50 129.46 Z M 162.69 130.39 L 162.87 131.37 C 163.05 132.37 164.02 133.03 165.02 132.85 C 166.03 132.66 166.69 131.70 166.50 130.70 L 166.32 129.72 C 166.14 128.71 165.17 128.05 164.17 128.24 C 163.17 128.42 162.50 129.38 162.69 130.39 Z M 162.87 131.36 L 163.05 132.36 C 163.23 133.36 164.19 134.03 165.20 133.85 C 166.20 133.67 166.86 132.71 166.68 131.71 L 166.50 130.70 C 166.32 129.70 165.36 129.03 164.36 129.22 C 163.36 129.40 162.69 130.36 162.87 131.36 Z M 163.06 132.36 L 163.24 133.36 C 163.42 134.36 164.38 135.03 165.38 134.84 C 166.38 134.66 167.04 133.70 166.86 132.70 L 166.68 131.70 C 166.50 130.70 165.54 130.04 164.54 130.22 C 163.54 130.41 162.88 131.36 163.06 132.36 Z M 163.25 133.37 L 163.42 134.32 C 163.61 135.32 164.57 135.98 165.56 135.79 C 166.56 135.61 167.22 134.65 167.03 133.65 L 166.85 132.70 C 166.67 131.70 165.71 131.04 164.71 131.23 C 163.72 131.42 163.06 132.37 163.25 133.37 Z M 163.43 134.33 L 163.61 135.30 C 163.80 136.29 164.75 136.95 165.75 136.76 C 166.74 136.57 167.40 135.62 167.21 134.62 L 167.03 133.65 C 166.84 132.66 165.88 132.00 164.89 132.19 C 163.90 132.38 163.24 133.33 163.43 134.33 Z M 163.62 135.30 L 163.80 136.29 C 163.99 137.28 164.94 137.94 165.93 137.75 C 166.92 137.57 167.58 136.61 167.39 135.62 L 167.20 134.63 C 167.02 133.63 166.07 132.98 165.07 133.17 C 164.08 133.35 163.43 134.31 163.62 135.30 Z M 163.81 136.29 L 163.99 137.31 C 164.17 138.29 165.12 138.95 166.11 138.77 C 167.10 138.59 167.76 137.64 167.57 136.65 L 167.39 135.63 C 167.21 134.64 166.26 133.99 165.27 134.17 C 164.28 134.35 163.62 135.30 163.81 136.29 Z M 164.00 137.30 L 164.17 138.27 C 164.35 139.26 165.29 139.91 166.28 139.74 C 167.27 139.56 167.92 138.62 167.74 137.63 L 167.57 136.66 C 167.39 135.67 166.45 135.01 165.46 135.19 C 164.48 135.37 163.82 136.31 164.00 137.30 Z M 164.18 138.26 L 164.35 139.25 C 164.52 140.23 165.46 140.89 166.44 140.72 C 167.43 140.55 168.08 139.61 167.91 138.63 L 167.74 137.64 C 167.57 136.65 166.63 136.00 165.65 136.17 C 164.66 136.34 164.01 137.28 164.18 138.26 Z M 164.36 139.24 L 164.53 140.24 C 164.69 141.22 165.62 141.88 166.61 141.71 C 167.59 141.54 168.24 140.61 168.08 139.63 L 167.91 138.63 C 167.74 137.65 166.81 137.00 165.83 137.16 C 164.85 137.33 164.19 138.26 164.36 139.24 Z M 164.53 140.23 L 164.70 141.22 C 164.86 142.20 165.79 142.86 166.76 142.69 C 167.74 142.53 168.40 141.60 168.24 140.63 L 168.07 139.64 C 167.91 138.66 166.98 138.00 166.00 138.16 C 165.03 138.33 164.37 139.25 164.53 140.23 Z M 164.70 141.21 L 164.87 142.20 C 165.03 143.18 165.95 143.84 166.92 143.68 C 167.89 143.52 168.55 142.60 168.39 141.62 L 168.23 140.63 C 168.07 139.66 167.15 139.00 166.18 139.16 C 165.20 139.32 164.54 140.24 164.70 141.21 Z M 164.87 142.20 L 165.03 143.19 C 165.19 144.16 166.10 144.82 167.07 144.66 C 168.04 144.51 168.70 143.59 168.55 142.62 L 168.39 141.63 C 168.23 140.66 167.32 140.00 166.35 140.15 C 165.38 140.31 164.71 141.23 164.87 142.20 Z M 165.04 143.18 L 165.19 144.16 C 165.34 145.13 166.25 145.80 167.22 145.64 C 168.19 145.49 168.85 144.58 168.70 143.61 L 168.54 142.63 C 168.39 141.66 167.48 141.00 166.51 141.15 C 165.54 141.30 164.88 142.21 165.04 143.18 Z M 165.20 144.16 L 165.35 145.14 C 165.50 146.11 166.40 146.77 167.37 146.62 C 168.33 146.47 168.99 145.57 168.85 144.60 L 168.69 143.62 C 168.54 142.65 167.64 141.99 166.67 142.14 C 165.71 142.29 165.05 143.19 165.20 144.16 Z M 165.35 145.14 L 165.50 146.12 C 165.65 147.09 166.55 147.75 167.51 147.60 C 168.48 147.45 169.14 146.55 168.99 145.59 L 168.84 144.60 C 168.69 143.64 167.79 142.98 166.83 143.13 C 165.87 143.27 165.21 144.17 165.35 145.14 Z M 165.51 146.12 L 165.66 147.10 C 165.80 148.06 166.69 148.72 167.65 148.58 C 168.62 148.43 169.28 147.54 169.13 146.58 L 168.99 145.60 C 168.84 144.64 167.95 143.97 166.99 144.12 C 166.03 144.26 165.36 145.16 165.51 146.12 Z M 165.66 147.09 L 165.81 148.08 C 165.95 149.04 166.84 149.70 167.80 149.56 C 168.75 149.42 169.41 148.53 169.27 147.57 L 169.13 146.58 C 168.99 145.63 168.10 144.96 167.14 145.10 C 166.18 145.25 165.52 146.14 165.66 147.09 Z M 165.81 148.08 L 165.95 149.07 C 166.09 150.03 166.98 150.69 167.93 150.55 C 168.89 150.41 169.55 149.53 169.41 148.57 L 169.27 147.58 C 169.13 146.62 168.25 145.96 167.29 146.10 C 166.34 146.24 165.67 147.12 165.81 148.08 Z M 165.96 149.06 L 166.10 150.06 C 166.23 151.01 167.11 151.67 168.06 151.54 C 169.01 151.41 169.68 150.53 169.55 149.58 L 169.41 148.58 C 169.28 147.63 168.40 146.96 167.44 147.10 C 166.49 147.23 165.82 148.11 165.96 149.06 Z M 166.10 150.05 L 166.23 151.04 C 166.36 151.99 167.23 152.66 168.18 152.53 C 169.13 152.40 169.80 151.53 169.67 150.58 L 169.54 149.59 C 169.41 148.64 168.54 147.97 167.59 148.10 C 166.64 148.22 165.97 149.10 166.10 150.05 Z M 166.24 151.03 L 166.36 152.02 C 166.49 152.97 167.35 153.64 168.30 153.52 C 169.25 153.40 169.92 152.53 169.80 151.58 L 169.67 150.59 C 169.55 149.64 168.68 148.97 167.73 149.09 C 166.78 149.22 166.12 150.08 166.24 151.03 Z M 166.37 152.01 L 166.49 153.00 C 166.61 153.95 167.47 154.62 168.42 154.50 C 169.36 154.39 170.03 153.52 169.92 152.58 L 169.79 151.59 C 169.67 150.64 168.81 149.97 167.87 150.09 C 166.92 150.21 166.25 151.07 166.37 152.01 Z M 166.50 153.00 L 166.62 153.99 C 166.73 154.93 167.59 155.60 168.53 155.49 C 169.47 155.37 170.15 154.52 170.03 153.58 L 169.91 152.58 C 169.80 151.64 168.94 150.97 168.00 151.09 C 167.05 151.20 166.38 152.06 166.50 153.00 Z M 166.62 153.99 L 166.74 154.98 C 166.86 155.92 167.71 156.59 168.65 156.48 C 169.59 156.36 170.26 155.51 170.14 154.57 L 170.03 153.58 C 169.91 152.64 169.06 151.97 168.12 152.08 C 167.18 152.19 166.51 153.05 166.62 153.99 Z M 166.75 154.98 L 166.87 155.96 C 166.98 156.90 167.83 157.57 168.76 157.46 C 169.70 157.35 170.37 156.50 170.26 155.56 L 170.14 154.57 C 170.03 153.64 169.18 152.97 168.24 153.08 C 167.31 153.19 166.64 154.04 166.75 154.98 Z M 166.87 155.96 L 166.99 156.95 C 167.09 157.89 167.94 158.56 168.87 158.45 C 169.81 158.34 170.48 157.49 170.37 156.56 L 170.25 155.57 C 170.14 154.63 169.30 153.96 168.36 154.07 C 167.43 154.18 166.76 155.03 166.87 155.96 Z M 166.99 156.95 L 167.10 157.94 C 167.21 158.87 168.05 159.54 168.98 159.44 C 169.91 159.33 170.58 158.49 170.47 157.56 L 170.36 156.57 C 170.26 155.63 169.42 154.97 168.49 155.07 C 167.56 155.18 166.89 156.02 166.99 156.95 Z M 167.11 157.93 L 167.22 158.93 C 167.32 159.86 168.15 160.53 169.08 160.43 C 170.01 160.33 170.68 159.50 170.58 158.57 L 170.47 157.57 C 170.37 156.64 169.54 155.97 168.61 156.07 C 167.68 156.17 167.01 157.01 167.11 157.93 Z M 167.22 158.92 L 167.32 159.90 C 167.41 160.83 168.24 161.50 169.17 161.41 C 170.10 161.31 170.77 160.49 170.67 159.56 L 170.57 158.58 C 170.48 157.65 169.65 156.98 168.73 157.07 C 167.80 157.17 167.12 158.00 167.22 158.92 Z M 167.32 159.89 L 167.42 160.87 C 167.51 161.80 168.33 162.47 169.25 162.38 C 170.18 162.29 170.86 161.47 170.77 160.55 L 170.67 159.57 C 170.58 158.64 169.76 157.97 168.83 158.06 C 167.91 158.15 167.23 158.97 167.32 159.89 Z M 167.42 160.87 L 167.51 161.85 C 167.60 162.78 168.42 163.45 169.34 163.37 C 170.27 163.28 170.94 162.46 170.86 161.54 L 170.76 160.55 C 170.68 159.63 169.86 158.95 168.93 159.04 C 168.01 159.12 167.33 159.94 167.42 160.87 Z M 167.52 161.85 L 167.61 162.85 C 167.70 163.78 168.51 164.45 169.43 164.37 C 170.36 164.28 171.03 163.46 170.95 162.54 L 170.85 161.54 C 170.77 160.62 169.95 159.94 169.03 160.03 C 168.11 160.11 167.43 160.93 167.52 161.85 Z M 167.62 162.86 L 167.71 163.88 C 167.80 164.80 168.61 165.48 169.53 165.39 C 170.45 165.30 171.13 164.49 171.04 163.57 L 170.94 162.54 C 170.86 161.62 170.04 160.95 169.12 161.04 C 168.20 161.12 167.53 161.94 167.62 162.86 Z M 167.72 163.89 L 167.81 164.89 C 167.90 165.81 168.72 166.48 169.63 166.39 C 170.55 166.30 171.22 165.49 171.13 164.57 L 171.04 163.57 C 170.95 162.65 170.13 161.98 169.22 162.07 C 168.30 162.16 167.63 162.97 167.72 163.89 Z M 167.82 164.89 L 167.92 165.91 C 168.01 166.82 168.82 167.49 169.73 167.40 C 170.65 167.31 171.32 166.50 171.23 165.58 L 171.13 164.57 C 171.04 163.65 170.23 162.98 169.31 163.07 C 168.40 163.16 167.73 163.98 167.82 164.89 Z M 167.92 165.90 L 168.02 166.92 C 168.11 167.83 168.92 168.50 169.83 168.41 C 170.74 168.32 171.41 167.51 171.32 166.59 L 171.23 165.58 C 171.14 164.67 170.32 164.00 169.41 164.09 C 168.50 164.18 167.83 164.99 167.92 165.90 Z M 168.02 166.91 L 168.11 167.90 C 168.20 168.81 169.01 169.48 169.92 169.40 C 170.83 169.31 171.50 168.50 171.41 167.59 L 171.32 166.60 C 171.24 165.69 170.43 165.02 169.51 165.10 C 168.60 165.19 167.93 166.00 168.02 166.91 Z M 168.12 167.89 L 168.20 168.86 C 168.28 169.77 169.09 170.45 170.00 170.36 C 170.91 170.28 171.58 169.48 171.50 168.57 L 171.41 167.60 C 171.33 166.69 170.53 166.02 169.62 166.10 C 168.71 166.18 168.03 166.98 168.12 167.89 Z M 168.20 168.85 L 168.29 169.92 C 168.37 170.83 169.16 171.51 170.07 171.43 C 170.98 171.36 171.66 170.56 171.59 169.65 L 171.50 168.58 C 171.42 167.67 170.63 166.99 169.72 167.07 C 168.81 167.14 168.13 167.94 168.20 168.85 Z M 168.29 169.91 L 168.37 170.92 C 168.43 171.83 169.22 172.51 170.13 172.45 C 171.04 172.38 171.72 171.59 171.66 170.68 L 171.58 169.67 C 171.52 168.76 170.73 168.08 169.82 168.14 C 168.91 168.21 168.23 169.00 168.29 169.91 Z M 168.37 170.91 L 168.43 171.87 C 168.49 172.78 169.27 173.47 170.18 173.41 C 171.09 173.35 171.78 172.57 171.72 171.66 L 171.66 170.69 C 171.60 169.79 170.81 169.10 169.91 169.16 C 169.00 169.21 168.31 170.00 168.37 170.91 Z M 168.43 171.86 L 168.49 172.79 C 168.54 173.70 169.31 174.39 170.22 174.34 C 171.13 174.29 171.82 173.51 171.77 172.61 L 171.72 171.67 C 171.67 170.77 170.89 170.07 169.98 170.12 C 169.08 170.18 168.38 170.95 168.43 171.86 Z M 168.49 172.78 L 168.54 173.81 C 168.58 174.72 169.35 175.42 170.26 175.38 C 171.17 175.33 171.86 174.56 171.82 173.65 L 171.77 172.62 C 171.72 171.71 170.95 171.01 170.05 171.06 C 169.14 171.10 168.44 171.87 168.49 172.78 Z M 168.54 173.81 L 168.58 174.81 C 168.62 175.72 169.39 176.42 170.29 176.38 C 171.20 176.34 171.90 175.58 171.86 174.67 L 171.82 173.66 C 171.78 172.76 171.01 172.06 170.11 172.09 C 169.20 172.13 168.50 172.90 168.54 173.81 Z M 168.58 174.81 L 168.62 175.79 C 168.66 176.69 169.42 177.40 170.33 177.36 C 171.23 177.32 171.94 176.56 171.90 175.66 L 171.86 174.68 C 171.83 173.77 171.06 173.07 170.16 173.10 C 169.25 173.14 168.55 173.90 168.58 174.81 Z M 168.62 175.79 L 168.66 176.71 C 168.70 177.61 169.46 178.32 170.36 178.28 C 171.27 178.25 171.97 177.49 171.93 176.58 L 171.90 175.66 C 171.86 174.75 171.10 174.05 170.20 174.08 C 169.29 174.12 168.59 174.88 168.62 175.79 Z M 168.66 176.71 L 168.69 177.59 C 168.73 178.50 169.49 179.20 170.39 179.17 C 171.30 179.13 172.00 178.37 171.97 177.47 L 171.93 176.58 C 171.90 175.68 171.14 174.97 170.24 175.01 C 169.33 175.04 168.63 175.80 168.66 176.71 Z M 168.69 177.58 L 168.72 178.54 C 168.75 179.44 169.51 180.15 170.41 180.12 C 171.32 180.09 172.03 179.34 172.00 178.43 L 171.97 177.48 C 171.94 176.57 171.18 175.86 170.28 175.89 C 169.38 175.92 168.67 176.68 168.69 177.58 Z M 168.72 178.52 L 168.75 179.62 C 168.77 180.52 169.52 181.24 170.42 181.22 C 171.33 181.20 172.04 180.45 172.02 179.54 L 172.00 178.45 C 171.98 177.54 171.23 176.83 170.32 176.85 C 169.42 176.87 168.70 177.62 168.72 178.52 Z M 168.75 179.60 L 168.76 180.62 C 168.78 181.53 169.52 182.25 170.42 182.24 C 171.33 182.22 172.05 181.48 172.04 180.58 L 172.02 179.56 C 172.01 178.65 171.27 177.93 170.36 177.94 C 169.46 177.96 168.74 178.70 168.75 179.60 Z M 168.76 180.61 L 168.77 181.51 C 168.78 182.41 169.52 183.14 170.42 183.13 C 171.33 183.12 172.05 182.39 172.04 181.48 L 172.04 180.59 C 172.03 179.68 171.29 178.96 170.39 178.96 C 169.48 178.97 168.76 179.71 168.76 180.61 Z M 168.77 181.50 L 168.78 182.47 C 168.78 183.37 169.52 184.10 170.42 184.10 C 171.32 184.09 172.05 183.36 172.05 182.45 L 172.04 181.49 C 172.04 180.58 171.30 179.85 170.40 179.86 C 169.50 179.86 168.77 180.60 168.77 181.50 Z M 168.78 182.47 L 168.78 183.49 C 168.78 184.39 169.52 185.12 170.42 185.12 C 171.32 185.12 172.05 184.38 172.05 183.48 L 172.05 182.46 C 172.05 181.55 171.31 180.82 170.41 180.82 C 169.50 180.83 168.77 181.56 168.78 182.47 Z M 168.78 183.48 L 168.78 184.55 C 168.78 185.45 169.51 186.18 170.42 186.18 C 171.32 186.18 172.05 185.45 172.05 184.54 L 172.05 183.48 C 172.05 182.58 171.32 181.84 170.41 181.85 C 169.51 181.85 168.78 182.58 168.78 183.48 Z M 168.78 184.54 L 168.78 185.63 C 168.78 186.53 169.51 187.27 170.42 187.27 C 171.32 187.27 172.05 186.53 172.05 185.63 L 172.05 184.54 C 172.05 183.64 171.32 182.91 170.42 182.91 C 169.51 182.91 168.78 183.64 168.78 184.54 Z M 168.78 185.63 L 168.78 186.33 C 168.78 187.23 169.51 187.96 170.42 187.96 C 171.32 187.96 172.05 187.23 172.05 186.33 L 172.05 185.63 C 172.05 184.73 171.32 183.99 170.42 183.99 C 169.51 183.99 168.78 184.73 168.78 185.63 Z"
      fill="black"
      fill-rule="nonzero" /><path d="M 147.58 130.11 L 148.54 130.05 C 149.51 129.99 150.25 129.15 150.19 128.18 C 150.13 127.21 149.29 126.47 148.32 126.53 L 147.36 126.59 C 146.39 126.66 145.66 127.49 145.72 128.46 C 145.78 129.43 146.61 130.17 147.58 130.11 Z M 148.57 130.05 L 149.53 129.98 C 150.51 129.91 151.23 129.06 151.16 128.08 C 151.09 127.11 150.24 126.38 149.26 126.46 L 148.30 126.53 C 147.32 126.60 146.59 127.45 146.67 128.43 C 146.74 129.40 147.59 130.13 148.57 130.05 Z M 149.58 129.98 L 150.57 129.88 C 151.54 129.78 152.25 128.91 152.15 127.94 C 152.05 126.96 151.18 126.25 150.21 126.35 L 149.22 126.45 C 148.24 126.55 147.53 127.42 147.63 128.40 C 147.73 129.37 148.61 130.08 149.58 129.98 Z M 150.63 129.88 L 151.66 129.74 C 152.63 129.60 153.31 128.70 153.17 127.73 C 153.04 126.75 152.14 126.08 151.16 126.21 L 150.14 126.35 C 149.17 126.49 148.49 127.39 148.63 128.36 C 148.76 129.34 149.66 130.01 150.63 129.88 Z M 151.73 129.72 L 152.73 129.54 C 153.69 129.36 154.33 128.44 154.16 127.47 C 153.98 126.50 153.05 125.86 152.08 126.04 L 151.09 126.22 C 150.12 126.40 149.48 127.33 149.66 128.29 C 149.84 129.26 150.77 129.90 151.73 129.72 Z M 152.79 129.51 L 153.72 129.30 C 154.67 129.09 155.27 128.15 155.06 127.20 C 154.85 126.25 153.90 125.65 152.95 125.86 L 152.02 126.07 C 151.07 126.28 150.47 127.22 150.69 128.17 C 150.90 129.12 151.84 129.72 152.79 129.51 Z M 153.76 129.27 L 154.72 129.03 C 155.65 128.79 156.22 127.85 155.98 126.92 C 155.75 125.99 154.80 125.42 153.87 125.66 L 152.91 125.90 C 151.98 126.13 151.42 127.08 151.65 128.01 C 151.89 128.94 152.83 129.50 153.76 129.27 Z M 154.75 128.99 L 155.72 128.73 C 156.64 128.48 157.18 127.54 156.93 126.63 C 156.68 125.71 155.74 125.17 154.83 125.42 L 153.85 125.69 C 152.93 125.94 152.40 126.88 152.64 127.79 C 152.89 128.70 153.83 129.24 154.75 128.99 Z M 155.74 128.70 L 156.73 128.42 C 157.63 128.16 158.15 127.23 157.89 126.33 C 157.63 125.43 156.70 124.91 155.80 125.17 L 154.81 125.45 C 153.92 125.71 153.40 126.64 153.65 127.54 C 153.91 128.44 154.84 128.95 155.74 128.70 Z M 156.73 128.39 L 157.73 128.10 C 158.61 127.84 159.12 126.92 158.86 126.04 C 158.61 125.15 157.68 124.65 156.80 124.90 L 155.80 125.20 C 154.92 125.45 154.41 126.38 154.67 127.26 C 154.93 128.14 155.85 128.65 156.73 128.39 Z"
      fill="black"
      fill-rule="nonzero" /><path d="M 151.41 142.66 L 152.38 142.38 C 153.32 142.11 153.87 141.13 153.60 140.19 C 153.33 139.25 152.35 138.70 151.40 138.97 L 150.43 139.25 C 149.49 139.52 148.95 140.50 149.22 141.44 C 149.49 142.39 150.47 142.93 151.41 142.66 Z M 152.39 142.38 L 153.35 142.10 C 154.29 141.83 154.83 140.84 154.56 139.90 C 154.29 138.96 153.30 138.42 152.36 138.69 L 151.40 138.97 C 150.46 139.25 149.91 140.23 150.19 141.17 C 150.46 142.11 151.45 142.66 152.39 142.38 Z M 153.36 142.10 L 154.32 141.81 C 155.26 141.53 155.79 140.54 155.51 139.61 C 155.23 138.67 154.24 138.13 153.31 138.41 L 152.35 138.70 C 151.41 138.98 150.88 139.96 151.16 140.90 C 151.44 141.84 152.42 142.38 153.36 142.10 Z M 154.34 141.81 L 155.28 141.51 C 156.22 141.22 156.74 140.23 156.45 139.29 C 156.16 138.36 155.17 137.83 154.23 138.12 L 153.29 138.42 C 152.35 138.71 151.83 139.70 152.12 140.64 C 152.41 141.57 153.40 142.10 154.34 141.81 Z M 155.31 141.50 L 156.25 141.19 C 157.18 140.89 157.69 139.89 157.39 138.96 C 157.08 138.03 156.09 137.53 155.16 137.83 L 154.21 138.14 C 153.28 138.44 152.77 139.44 153.08 140.37 C 153.38 141.30 154.38 141.80 155.31 141.50 Z M 156.27 141.18 L 157.21 140.86 C 158.14 140.54 158.63 139.54 158.31 138.62 C 158.00 137.70 157.00 137.21 156.08 137.52 L 155.14 137.84 C 154.21 138.16 153.72 139.16 154.04 140.08 C 154.35 141.00 155.35 141.49 156.27 141.18 Z M 157.23 140.84 L 158.18 140.51 C 159.09 140.18 159.57 139.18 159.24 138.26 C 158.92 137.35 157.91 136.88 157.00 137.20 L 156.06 137.54 C 155.14 137.86 154.67 138.87 154.99 139.78 C 155.32 140.69 156.32 141.17 157.23 140.84 Z M 158.19 140.49 L 159.13 140.14 C 160.03 139.81 160.49 138.81 160.16 137.90 C 159.83 137.00 158.82 136.54 157.92 136.87 L 156.98 137.22 C 156.08 137.55 155.62 138.55 155.95 139.46 C 156.29 140.36 157.29 140.82 158.19 140.49 Z M 159.14 140.12 L 160.06 139.77 C 160.95 139.43 161.40 138.43 161.06 137.54 C 160.72 136.65 159.73 136.21 158.84 136.54 L 157.91 136.90 C 157.02 137.23 156.57 138.23 156.91 139.12 C 157.25 140.01 158.25 140.46 159.14 140.12 Z M 160.06 139.74 L 161.00 139.38 C 161.87 139.04 162.31 138.06 161.97 137.18 C 161.63 136.30 160.65 135.87 159.77 136.21 L 158.83 136.57 C 157.96 136.91 157.52 137.89 157.86 138.77 C 158.20 139.65 159.19 140.08 160.06 139.74 Z M 161.00 139.36 L 161.94 138.99 C 162.80 138.65 163.23 137.68 162.89 136.81 C 162.55 135.95 161.58 135.53 160.71 135.86 L 159.77 136.23 C 158.91 136.57 158.49 137.54 158.82 138.41 C 159.16 139.27 160.13 139.69 161.00 139.36 Z M 161.93 138.97 L 162.40 138.78 C 163.26 138.45 163.68 137.49 163.34 136.63 C 163.01 135.78 162.04 135.36 161.19 135.70 L 160.72 135.88 C 159.87 136.22 159.45 137.18 159.78 138.03 C 160.12 138.89 161.08 139.30 161.93 138.97 Z"
      fill="black"
      fill-rule="nonzero" /><path d="M 126.22 163.55 L 127.27 163.49 C 128.25 163.43 128.99 162.60 128.93 161.62 C 128.88 160.64 128.04 159.90 127.06 159.96 L 126.02 160.02 C 125.04 160.07 124.30 160.91 124.35 161.89 C 124.41 162.86 125.25 163.61 126.22 163.55 Z M 127.28 163.54 L 128.31 163.47 C 129.31 163.41 130.07 162.54 130.01 161.54 C 129.95 160.54 129.08 159.78 128.08 159.84 L 127.05 159.91 C 126.05 159.97 125.29 160.84 125.35 161.84 C 125.42 162.84 126.28 163.60 127.28 163.54 Z M 128.33 163.52 L 129.33 163.44 C 130.36 163.37 131.13 162.47 131.05 161.44 C 130.98 160.42 130.08 159.65 129.06 159.72 L 128.06 159.80 C 127.03 159.87 126.26 160.77 126.34 161.80 C 126.41 162.82 127.31 163.59 128.33 163.52 Z M 129.37 163.49 L 130.32 163.40 C 131.38 163.30 132.15 162.37 132.05 161.32 C 131.96 160.27 131.02 159.49 129.97 159.59 L 129.02 159.68 C 127.97 159.77 127.19 160.71 127.29 161.76 C 127.39 162.81 128.32 163.59 129.37 163.49 Z M 130.38 163.43 L 131.36 163.31 C 132.42 163.18 133.19 162.21 133.06 161.15 C 132.93 160.08 131.96 159.31 130.89 159.44 L 129.91 159.56 C 128.85 159.69 128.08 160.66 128.21 161.73 C 128.34 162.80 129.31 163.56 130.38 163.43 Z M 131.42 163.32 L 132.40 163.17 C 133.47 163.00 134.21 162.00 134.04 160.92 C 133.88 159.85 132.87 159.12 131.80 159.28 L 130.82 159.44 C 129.75 159.60 129.02 160.61 129.18 161.68 C 129.35 162.75 130.35 163.49 131.42 163.32 Z M 132.46 163.16 L 133.42 162.98 C 134.49 162.78 135.20 161.75 135.00 160.68 C 134.80 159.61 133.77 158.91 132.70 159.11 L 131.74 159.29 C 130.67 159.49 129.96 160.52 130.16 161.59 C 130.36 162.66 131.39 163.36 132.46 163.16 Z M 133.47 162.98 L 134.45 162.77 C 135.52 162.55 136.20 161.50 135.98 160.43 C 135.75 159.36 134.71 158.68 133.64 158.91 L 132.65 159.11 C 131.58 159.34 130.90 160.39 131.13 161.45 C 131.35 162.52 132.40 163.20 133.47 162.98 Z M 134.47 162.77 L 135.39 162.57 C 136.46 162.33 137.13 161.27 136.89 160.21 C 136.66 159.14 135.60 158.46 134.53 158.70 L 133.61 158.91 C 132.55 159.14 131.87 160.20 132.11 161.27 C 132.35 162.34 133.40 163.01 134.47 162.77 Z M 135.40 162.57 L 136.33 162.36 C 137.40 162.12 138.07 161.05 137.83 159.98 C 137.58 158.91 136.52 158.24 135.45 158.49 L 134.52 158.70 C 133.45 158.94 132.78 160.01 133.02 161.08 C 133.27 162.15 134.33 162.82 135.40 162.57 Z M 136.34 162.36 L 137.32 162.14 C 138.39 161.89 139.06 160.82 138.81 159.75 C 138.56 158.68 137.49 158.01 136.42 158.26 L 135.44 158.48 C 134.37 158.73 133.70 159.80 133.95 160.87 C 134.20 161.94 135.27 162.61 136.34 162.36 Z M 137.32 162.14 L 138.34 161.90 C 139.42 161.65 140.09 160.58 139.84 159.51 C 139.59 158.43 138.51 157.76 137.44 158.01 L 136.42 158.25 C 135.34 158.50 134.67 159.58 134.92 160.65 C 135.18 161.73 136.25 162.39 137.32 162.14 Z M 138.35 161.91 L 139.37 161.67 C 140.45 161.42 141.12 160.34 140.86 159.27 C 140.61 158.19 139.54 157.52 138.46 157.77 L 137.44 158.01 C 136.36 158.26 135.69 159.34 135.94 160.41 C 136.19 161.49 137.27 162.16 138.35 161.91 Z M 139.37 161.67 L 140.30 161.46 C 141.38 161.21 142.05 160.13 141.80 159.05 C 141.55 157.97 140.47 157.30 139.39 157.55 L 138.46 157.77 C 137.38 158.02 136.71 159.10 136.96 160.17 C 137.21 161.25 138.29 161.92 139.37 161.67 Z M 140.30 161.46 L 141.26 161.24 C 142.33 160.99 143.01 159.91 142.76 158.83 C 142.51 157.75 141.43 157.08 140.35 157.33 L 139.39 157.55 C 138.31 157.80 137.64 158.88 137.89 159.96 C 138.14 161.04 139.22 161.71 140.30 161.46 Z M 141.26 161.24 L 142.23 161.01 C 143.31 160.76 143.99 159.68 143.74 158.60 C 143.49 157.52 142.41 156.85 141.33 157.10 L 140.35 157.33 C 139.27 157.58 138.60 158.66 138.85 159.74 C 139.10 160.82 140.17 161.49 141.26 161.24 Z M 142.23 161.01 L 143.23 160.78 C 144.31 160.53 144.98 159.45 144.73 158.37 C 144.48 157.29 143.41 156.62 142.32 156.87 L 141.33 157.10 C 140.25 157.35 139.57 158.43 139.82 159.51 C 140.07 160.59 141.15 161.26 142.23 161.01 Z M 143.23 160.78 L 144.25 160.55 C 145.33 160.30 146.00 159.22 145.75 158.14 C 145.50 157.05 144.42 156.38 143.34 156.63 L 142.32 156.87 C 141.24 157.12 140.57 158.20 140.82 159.28 C 141.07 160.36 142.15 161.03 143.23 160.78 Z M 144.25 160.55 L 145.20 160.33 C 146.28 160.08 146.95 159.00 146.70 157.92 C 146.45 156.83 145.37 156.16 144.29 156.41 L 143.34 156.63 C 142.26 156.88 141.58 157.96 141.84 159.04 C 142.09 160.13 143.17 160.80 144.25 160.55 Z M 145.20 160.33 L 146.16 160.11 C 147.24 159.86 147.91 158.78 147.66 157.70 C 147.41 156.61 146.33 155.94 145.25 156.19 L 144.29 156.41 C 143.21 156.66 142.53 157.74 142.78 158.82 C 143.03 159.91 144.11 160.58 145.20 160.33 Z M 146.15 160.11 L 147.12 159.89 C 148.21 159.64 148.88 158.56 148.64 157.48 C 148.39 156.39 147.31 155.72 146.22 155.96 L 145.25 156.19 C 144.17 156.43 143.49 157.51 143.74 158.60 C 143.99 159.68 145.07 160.36 146.15 160.11 Z M 147.12 159.89 L 148.10 159.67 C 149.19 159.42 149.87 158.34 149.62 157.26 C 149.38 156.17 148.30 155.49 147.21 155.74 L 146.23 155.96 C 145.14 156.21 144.46 157.29 144.71 158.37 C 144.96 159.45 146.03 160.14 147.12 159.89 Z M 148.10 159.67 L 149.09 159.45 C 150.17 159.21 150.86 158.13 150.62 157.04 C 150.38 155.96 149.30 155.27 148.21 155.52 L 147.22 155.74 C 146.13 155.98 145.45 157.05 145.69 158.14 C 145.93 159.23 147.01 159.91 148.10 159.67 Z M 149.08 159.45 L 150.08 159.23 C 151.17 159.00 151.86 157.92 151.62 156.84 C 151.38 155.75 150.31 155.06 149.22 155.30 L 148.22 155.51 C 147.13 155.75 146.45 156.82 146.68 157.91 C 146.92 159.00 147.99 159.69 149.08 159.45 Z M 150.07 159.24 L 151.04 159.03 C 152.13 158.80 152.83 157.73 152.60 156.64 C 152.36 155.55 151.29 154.85 150.21 155.08 L 149.23 155.29 C 148.14 155.52 147.45 156.59 147.68 157.68 C 147.91 158.77 148.98 159.47 150.07 159.24 Z M 151.04 159.03 L 152.02 158.82 C 153.11 158.60 153.81 157.53 153.58 156.44 C 153.35 155.35 152.28 154.65 151.19 154.88 L 150.21 155.08 C 149.12 155.31 148.42 156.38 148.65 157.47 C 148.88 158.56 149.95 159.26 151.04 159.03 Z M 152.01 158.83 L 152.99 158.62 C 154.09 158.40 154.79 157.33 154.56 156.24 C 154.34 155.15 153.27 154.45 152.18 154.68 L 151.20 154.88 C 150.11 155.10 149.41 156.17 149.63 157.26 C 149.86 158.35 150.92 159.05 152.01 158.83 Z M 152.99 158.62 L 153.97 158.42 C 155.06 158.20 155.77 157.14 155.55 156.05 C 155.32 154.95 154.26 154.25 153.17 154.47 L 152.18 154.67 C 151.09 154.90 150.39 155.96 150.61 157.05 C 150.84 158.14 151.90 158.85 152.99 158.62 Z M 153.97 158.42 L 154.95 158.22 C 156.04 158.00 156.75 156.94 156.53 155.85 C 156.30 154.76 155.24 154.05 154.15 154.27 L 153.17 154.47 C 152.08 154.70 151.37 155.76 151.60 156.85 C 151.82 157.94 152.88 158.65 153.97 158.42 Z M 154.95 158.22 L 155.93 158.02 C 157.02 157.80 157.73 156.74 157.50 155.65 C 157.28 154.56 156.22 153.85 155.13 154.07 L 154.15 154.27 C 153.06 154.50 152.35 155.56 152.58 156.65 C 152.80 157.74 153.86 158.45 154.95 158.22 Z M 155.93 158.02 L 156.93 157.82 C 158.02 157.59 158.72 156.53 158.50 155.44 C 158.28 154.35 157.21 153.65 156.12 153.87 L 155.12 154.08 C 154.03 154.30 153.33 155.36 153.55 156.46 C 153.78 157.55 154.84 158.25 155.93 158.02 Z M 156.93 157.82 L 157.92 157.61 C 159.01 157.39 159.71 156.32 159.49 155.23 C 159.26 154.14 158.20 153.44 157.11 153.67 L 156.12 153.87 C 155.03 154.10 154.33 155.16 154.55 156.25 C 154.78 157.34 155.84 158.04 156.93 157.82 Z M 157.92 157.61 L 158.90 157.41 C 159.99 157.19 160.70 156.12 160.47 155.03 C 160.25 153.94 159.18 153.24 158.09 153.46 L 157.11 153.67 C 156.02 153.89 155.32 154.96 155.54 156.05 C 155.77 157.14 156.83 157.84 157.92 157.61 Z M 158.90 157.41 L 159.88 157.21 C 160.97 156.99 161.67 155.92 161.44 154.83 C 161.22 153.74 160.15 153.04 159.06 153.26 L 158.09 153.47 C 157.00 153.69 156.30 154.75 156.52 155.84 C 156.75 156.93 157.81 157.63 158.90 157.41 Z M 159.87 157.21 L 160.84 157.01 C 161.93 156.79 162.63 155.72 162.41 154.64 C 162.19 153.55 161.12 152.84 160.03 153.07 L 159.07 153.26 C 157.98 153.49 157.27 154.55 157.50 155.64 C 157.72 156.73 158.79 157.43 159.87 157.21 Z M 160.84 157.01 L 161.80 156.82 C 162.89 156.60 163.60 155.53 163.38 154.44 C 163.16 153.35 162.09 152.65 161.00 152.87 L 160.04 153.07 C 158.95 153.29 158.24 154.35 158.46 155.44 C 158.68 156.53 159.75 157.23 160.84 157.01 Z M 161.80 156.82 L 162.78 156.62 C 163.87 156.40 164.57 155.34 164.36 154.25 C 164.14 153.16 163.08 152.46 161.99 152.67 L 161.01 152.87 C 159.92 153.09 159.21 154.15 159.43 155.24 C 159.65 156.33 160.71 157.03 161.80 156.82 Z M 162.78 156.62 L 163.75 156.42 C 164.84 156.21 165.55 155.15 165.33 154.06 C 165.11 152.97 164.06 152.26 162.97 152.48 L 161.99 152.68 C 160.90 152.89 160.19 153.95 160.41 155.04 C 160.63 156.13 161.69 156.84 162.78 156.62 Z M 163.75 156.42 L 164.73 156.23 C 165.81 156.01 166.52 154.96 166.31 153.87 C 166.09 152.78 165.03 152.07 163.94 152.29 L 162.97 152.48 C 161.88 152.70 161.17 153.75 161.39 154.84 C 161.60 155.93 162.66 156.64 163.75 156.42 Z M 164.73 156.23 L 165.71 156.03 C 166.79 155.82 167.50 154.76 167.28 153.67 C 167.07 152.59 166.01 151.88 164.92 152.10 L 163.94 152.29 C 162.86 152.51 162.15 153.56 162.37 154.65 C 162.58 155.74 163.64 156.44 164.73 156.23 Z M 165.71 156.03 L 166.69 155.84 C 167.78 155.62 168.49 154.56 168.27 153.48 C 168.05 152.39 167.00 151.69 165.91 151.90 L 164.92 152.10 C 163.84 152.31 163.13 153.37 163.35 154.46 C 163.56 155.54 164.62 156.25 165.71 156.03 Z M 166.70 155.83 L 167.69 155.63 C 168.78 155.42 169.48 154.36 169.26 153.28 C 169.04 152.19 167.99 151.49 166.90 151.70 L 165.91 151.90 C 164.82 152.12 164.12 153.18 164.34 154.26 C 164.56 155.35 165.61 156.05 166.70 155.83 Z M 167.69 155.63 L 168.69 155.43 C 169.78 155.21 170.48 154.16 170.26 153.07 C 170.04 151.99 168.99 151.29 167.91 151.51 L 166.90 151.71 C 165.82 151.93 165.12 152.98 165.34 154.06 C 165.55 155.15 166.61 155.85 167.69 155.63 Z M 168.69 155.43 L 169.69 155.23 C 170.77 155.01 171.47 153.96 171.26 152.88 C 171.04 151.80 169.99 151.10 168.91 151.31 L 167.91 151.51 C 166.83 151.73 166.13 152.78 166.34 153.86 C 166.56 154.94 167.61 155.64 168.69 155.43 Z M 169.68 155.23 L 170.67 155.03 C 171.75 154.82 172.45 153.77 172.24 152.69 C 172.03 151.61 170.98 150.91 169.90 151.12 L 168.92 151.31 C 167.84 151.52 167.13 152.57 167.34 153.65 C 167.55 154.73 168.60 155.44 169.68 155.23 Z M 170.66 155.03 L 171.63 154.85 C 172.71 154.64 173.42 153.60 173.21 152.52 C 173.01 151.44 171.96 150.73 170.88 150.94 L 169.92 151.12 C 168.84 151.33 168.13 152.37 168.33 153.45 C 168.54 154.53 169.58 155.24 170.66 155.03 Z M 171.61 154.85 L 172.55 154.67 C 173.63 154.48 174.35 153.44 174.15 152.36 C 173.95 151.28 172.92 150.57 171.84 150.77 L 170.90 150.94 C 169.82 151.13 169.10 152.17 169.30 153.25 C 169.50 154.33 170.53 155.04 171.61 154.85 Z M 172.53 154.67 L 173.59 154.49 C 174.66 154.31 175.39 153.28 175.20 152.20 C 175.02 151.13 173.99 150.40 172.92 150.59 L 171.86 150.77 C 170.78 150.95 170.06 151.98 170.24 153.05 C 170.43 154.13 171.45 154.86 172.53 154.67 Z M 173.56 154.49 L 174.58 154.33 C 175.65 154.15 176.39 153.14 176.21 152.06 C 176.04 150.98 175.03 150.25 173.95 150.43 L 172.94 150.59 C 171.86 150.76 171.13 151.78 171.30 152.85 C 171.47 153.93 172.49 154.66 173.56 154.49 Z M 174.56 154.32 L 175.54 154.17 C 176.61 154.01 177.35 153.00 177.19 151.93 C 177.02 150.85 176.02 150.11 174.94 150.28 L 173.97 150.43 C 172.89 150.59 172.15 151.60 172.32 152.67 C 172.48 153.75 173.49 154.49 174.56 154.32 Z M 175.53 154.17 L 176.48 154.03 C 177.55 153.87 178.29 152.87 178.14 151.80 C 177.98 150.72 176.98 149.98 175.91 150.14 L 174.95 150.28 C 173.88 150.44 173.14 151.44 173.30 152.51 C 173.46 153.59 174.46 154.33 175.53 154.17 Z M 176.48 154.02 L 177.42 153.88 C 178.49 153.73 179.23 152.73 179.08 151.66 C 178.92 150.59 177.92 149.85 176.85 150.01 L 175.91 150.15 C 174.84 150.31 174.10 151.30 174.26 152.37 C 174.41 153.44 175.41 154.18 176.48 154.02 Z M 177.42 153.87 L 178.44 153.73 C 179.50 153.57 180.24 152.58 180.08 151.51 C 179.92 150.45 178.93 149.71 177.86 149.87 L 176.85 150.02 C 175.79 150.17 175.05 151.17 175.21 152.23 C 175.37 153.30 176.36 154.03 177.42 153.87 Z M 178.43 153.72 L 179.43 153.57 C 180.49 153.41 181.23 152.42 181.07 151.36 C 180.91 150.30 179.92 149.57 178.86 149.73 L 177.87 149.88 C 176.80 150.03 176.07 151.02 176.23 152.08 C 176.39 153.14 177.37 153.87 178.43 153.72 Z M 179.43 153.56 L 180.41 153.42 C 181.47 153.26 182.20 152.28 182.04 151.22 C 181.89 150.17 180.91 149.44 179.85 149.59 L 178.87 149.74 C 177.81 149.89 177.08 150.87 177.23 151.93 C 177.39 152.99 178.37 153.72 179.43 153.56 Z M 180.41 153.41 L 181.38 153.27 C 182.43 153.12 183.16 152.14 183.01 151.09 C 182.85 150.04 181.88 149.31 180.83 149.46 L 179.86 149.60 C 178.80 149.75 178.07 150.73 178.23 151.78 C 178.38 152.83 179.35 153.56 180.41 153.41 Z M 181.37 153.26 L 182.38 153.12 C 183.42 152.97 184.15 152.01 184.01 150.96 C 183.86 149.91 182.89 149.18 181.85 149.33 L 180.84 149.47 C 179.79 149.61 179.06 150.58 179.20 151.63 C 179.35 152.68 180.32 153.41 181.37 153.26 Z M 182.36 153.11 L 183.38 152.97 C 184.42 152.83 185.15 151.88 185.01 150.83 C 184.87 149.79 183.91 149.06 182.87 149.20 L 181.86 149.34 C 180.81 149.48 180.08 150.43 180.22 151.48 C 180.36 152.52 181.32 153.25 182.36 153.11 Z M 183.37 152.96 L 184.36 152.84 C 185.39 152.70 186.12 151.75 185.99 150.72 C 185.86 149.68 184.91 148.95 183.87 149.08 L 182.88 149.21 C 181.84 149.34 181.11 150.29 181.25 151.33 C 181.38 152.37 182.33 153.10 183.37 152.96 Z M 184.35 152.83 L 185.31 152.71 C 186.34 152.58 187.07 151.64 186.94 150.61 C 186.82 149.58 185.88 148.84 184.84 148.97 L 183.88 149.09 C 182.85 149.22 182.12 150.16 182.25 151.19 C 182.38 152.22 183.32 152.95 184.35 152.83 Z M 185.30 152.69 L 186.31 152.57 C 187.33 152.45 188.06 151.52 187.94 150.50 C 187.82 149.47 186.89 148.74 185.86 148.86 L 184.86 148.98 C 183.83 149.11 183.10 150.04 183.22 151.06 C 183.35 152.09 184.28 152.82 185.30 152.69 Z M 186.29 152.56 L 187.31 152.45 C 188.33 152.33 189.06 151.41 188.95 150.39 C 188.83 149.38 187.91 148.64 186.90 148.76 L 185.88 148.88 C 184.86 148.99 184.13 149.91 184.24 150.93 C 184.36 151.94 185.28 152.68 186.29 152.56 Z M 187.29 152.43 L 188.27 152.33 C 189.29 152.23 190.02 151.33 189.92 150.32 C 189.81 149.30 188.91 148.57 187.90 148.67 L 186.92 148.77 C 185.91 148.88 185.17 149.78 185.27 150.79 C 185.38 151.80 186.28 152.54 187.29 152.43 Z M 188.25 152.32 L 189.20 152.24 C 190.20 152.15 190.94 151.27 190.86 150.26 C 190.77 149.25 189.88 148.51 188.88 148.60 L 187.93 148.68 C 186.92 148.77 186.18 149.66 186.27 150.66 C 186.35 151.67 187.24 152.41 188.25 152.32 Z M 189.16 152.23 L 190.10 152.16 C 191.10 152.09 191.85 151.23 191.78 150.23 C 191.71 149.23 190.85 148.48 189.85 148.55 L 188.91 148.61 C 187.91 148.68 187.16 149.55 187.23 150.55 C 187.30 151.54 188.16 152.30 189.16 152.23 Z M 190.07 152.15 L 191.03 152.10 C 192.02 152.04 192.78 151.19 192.72 150.20 C 192.67 149.21 191.82 148.45 190.83 148.51 L 189.87 148.56 C 188.88 148.61 188.12 149.46 188.18 150.45 C 188.23 151.45 189.08 152.20 190.07 152.15 Z M 191.02 152.08 L 192.04 152.03 C 193.03 151.99 193.79 151.15 193.74 150.16 C 193.69 149.18 192.85 148.42 191.87 148.47 L 190.84 148.52 C 189.86 148.57 189.10 149.40 189.15 150.39 C 189.19 151.37 190.03 152.13 191.02 152.08 Z M 192.04 152.02 L 193.09 151.97 C 194.06 151.92 194.82 151.09 194.77 150.12 C 194.73 149.14 193.90 148.39 192.92 148.43 L 191.87 148.48 C 190.90 148.53 190.14 149.36 190.19 150.33 C 190.24 151.31 191.06 152.07 192.04 152.02 Z M 193.09 151.96 L 194.07 151.91 C 195.04 151.86 195.79 151.04 195.74 150.07 C 195.70 149.10 194.87 148.35 193.90 148.40 L 192.92 148.45 C 191.95 148.49 191.20 149.32 191.25 150.29 C 191.30 151.25 192.12 152.00 193.09 151.96 Z M 194.07 151.90 L 195.10 151.85 C 196.06 151.80 196.80 150.99 196.76 150.02 C 196.71 149.06 195.90 148.32 194.93 148.36 L 193.91 148.41 C 192.95 148.46 192.20 149.27 192.25 150.24 C 192.29 151.20 193.11 151.94 194.07 151.90 Z M 195.09 151.83 L 196.12 151.79 C 197.07 151.75 197.81 150.94 197.77 149.99 C 197.73 149.03 196.92 148.29 195.97 148.33 L 194.94 148.38 C 193.99 148.42 193.25 149.23 193.29 150.18 C 193.33 151.14 194.14 151.88 195.09 151.83 Z M 196.11 151.78 L 197.10 151.74 C 198.04 151.71 198.78 150.91 198.75 149.96 C 198.71 149.01 197.92 148.27 196.97 148.31 L 195.98 148.35 C 195.03 148.38 194.29 149.18 194.33 150.12 C 194.36 151.07 195.16 151.81 196.11 151.78 Z M 197.08 151.73 L 198.16 151.70 C 199.10 151.67 199.84 150.89 199.82 149.95 C 199.79 149.01 199.01 148.27 198.07 148.29 L 196.99 148.32 C 196.05 148.35 195.31 149.13 195.33 150.07 C 195.36 151.01 196.14 151.75 197.08 151.73 Z M 198.14 151.68 L 199.16 151.67 C 200.09 151.65 200.83 150.89 200.82 149.96 C 200.81 149.03 200.04 148.28 199.11 148.30 L 198.09 148.31 C 197.16 148.32 196.41 149.09 196.43 150.02 C 196.44 150.95 197.21 151.70 198.14 151.68 Z M 199.14 151.65 L 200.10 151.65 C 201.02 151.64 201.77 150.89 201.76 149.97 C 201.76 149.05 201.00 148.30 200.08 148.31 L 199.12 148.31 C 198.20 148.32 197.46 149.07 197.46 149.99 C 197.47 150.91 198.22 151.66 199.14 151.65 Z M 200.09 151.63 L 200.92 151.63 C 201.83 151.63 202.58 150.89 202.57 149.97 C 202.57 149.06 201.83 148.32 200.92 148.32 L 200.09 148.32 C 199.17 148.32 198.43 149.06 198.44 149.98 C 198.44 150.89 199.18 151.63 200.09 151.63 Z"
      fill="black"
      fill-rule="nonzero" /></svg>