<svg xmlns="http://www.w3.org/2000/svg" width="300" height="300" viewBox="0 0 300 300">
<path d="M 117.90 99.03 L 118.75 99.47 C 119.63 99.92 120.70 99.57 121.15 98.69 C 121.60 97.81 121.25 96.73 120.37 96.28 L 119.53 95.85 C 118.65 95.40 117.57 95.75 117.12 96.63 C 116.67 97.51 117.02 98.58 117.90 99.03 Z M 118.84 99.54 L 119.73 99.93 C 120.65 100.33 121.73 99.91 122.13 98.99 C 122.53 98.07 122.11 97.00 121.18 96.59 L 120.29 96.20 C 119.37 95.80 118.29 96.23 117.89 97.15 C 117.49 98.07 117.91 99.14 118.84 99.54 Z M 119.92 100.04 L 120.91 100.34 C 121.89 100.64 122.92 100.09 123.22 99.11 C 123.52 98.13 122.97 97.09 121.99 96.79 L 121.00 96.49 C 120.02 96.19 118.98 96.74 118.68 97.72 C 118.38 98.70 118.94 99.74 119.92 100.04 Z M 121.14 100.42 L 122.06 100.57 C 123.08 100.74 124.04 100.05 124.22 99.03 C 124.39 98.01 123.70 97.04 122.67 96.87 L 121.76 96.71 C 120.73 96.54 119.77 97.23 119.60 98.26 C 119.43 99.28 120.12 100.25 121.14 100.42 Z M 122.25 100.60 L 123.16 100.65 C 124.20 100.72 125.09 99.93 125.16 98.89 C 125.22 97.86 124.43 96.96 123.39 96.90 L 122.48 96.84 C 121.44 96.77 120.55 97.56 120.49 98.60 C 120.42 99.64 121.21 100.53 122.25 100.60 Z M 123.30 100.66 L 124.30 100.64 C 125.34 100.63 126.17 99.77 126.15 98.73 C 126.14 97.69 125.28 96.86 124.24 96.88 L 123.25 96.89 C 122.21 96.91 121.38 97.76 121.39 98.80 C 121.41 99.84 122.26 100.67 123.30 100.66 Z M 124.41 100.64 L 125.49 100.56 C 126.52 100.48 127.30 99.57 127.22 98.54 C 127.14 97.50 126.24 96.72 125.20 96.80 L 124.13 96.88 C 123.09 96.96 122.31 97.87 122.39 98.90 C 122.47 99.94 123.38 100.72 124.41 100.64 Z M 125.58 100.55 L 126.68 100.41 C 127.71 100.28 128.45 99.34 128.32 98.31 C 128.19 97.28 127.25 96.54 126.21 96.67 L 125.11 96.81 C 124.08 96.94 123.35 97.88 123.47 98.91 C 123.60 99.95 124.54 100.68 125.58 100.55 Z M 126.75 100.40 L 127.75 100.24 C 128.77 100.07 129.47 99.11 129.31 98.08 C 129.14 97.06 128.18 96.36 127.15 96.52 L 126.15 96.68 C 125.12 96.85 124.43 97.81 124.59 98.84 C 124.76 99.87 125.72 100.56 126.75 100.40 Z M 127.79 100.23 L 128.81 100.04 C 129.83 99.85 130.50 98.87 130.31 97.85 C 130.13 96.83 129.15 96.15 128.13 96.34 L 127.11 96.53 C 126.09 96.72 125.41 97.70 125.60 98.72 C 125.79 99.74 126.77 100.42 127.79 100.23 Z M 128.84 100.03 L 129.85 99.82 C 130.87 99.62 131.52 98.63 131.32 97.61 C 131.11 96.60 130.12 95.94 129.10 96.15 L 128.09 96.35 C 127.08 96.56 126.42 97.55 126.63 98.57 C 126.84 99.58 127.83 100.24 128.84 100.03 Z M 129.88 99.82 L 130.85 99.60 C 131.86 99.38 132.51 98.39 132.29 97.38 C 132.07 96.37 131.07 95.72 130.06 95.94 L 129.08 96.15 C 128.07 96.37 127.43 97.37 127.65 98.38 C 127.87 99.39 128.86 100.03 129.88 99.82 Z M 130.87 99.60 L 131.78 99.39 C 132.79 99.16 133.43 98.16 133.20 97.16 C 132.97 96.15 131.97 95.51 130.96 95.74 L 130.05 95.95 C 129.04 96.18 128.40 97.18 128.63 98.18 C 128.86 99.19 129.86 99.83 130.87 99.60 Z M 131.79 99.38 L 132.87 99.14 C 133.88 98.91 134.50 97.90 134.27 96.90 C 134.04 95.90 133.04 95.27 132.04 95.50 L 130.96 95.75 C 129.95 95.98 129.32 96.98 129.56 97.98 C 129.79 98.99 130.79 99.62 131.79 99.38 Z M 132.88 99.13 L 133.88 98.89 C 134.88 98.66 135.50 97.66 135.27 96.66 C 135.04 95.66 134.04 95.04 133.04 95.27 L 132.03 95.51 C 131.03 95.74 130.41 96.74 130.65 97.74 C 130.88 98.74 131.88 99.36 132.88 99.13 Z M 133.89 98.88 L 134.80 98.66 C 135.80 98.43 136.41 97.44 136.18 96.44 C 135.94 95.45 134.95 94.83 133.96 95.07 L 133.04 95.28 C 132.04 95.52 131.43 96.51 131.66 97.51 C 131.90 98.50 132.89 99.12 133.89 98.88 Z M 134.80 98.66 L 135.68 98.45 C 136.67 98.22 137.28 97.22 137.05 96.24 C 136.81 95.25 135.82 94.64 134.83 94.87 L 133.96 95.08 C 132.97 95.31 132.36 96.30 132.59 97.29 C 132.82 98.28 133.81 98.89 134.80 98.66 Z M 135.67 98.44 L 136.62 98.22 C 137.60 97.99 138.21 97.00 137.98 96.02 C 137.75 95.04 136.77 94.43 135.78 94.66 L 134.84 94.88 C 133.85 95.11 133.24 96.09 133.47 97.08 C 133.70 98.06 134.69 98.67 135.67 98.44 Z M 136.61 98.21 L 137.58 97.99 C 138.56 97.76 139.17 96.78 138.94 95.80 C 138.71 94.82 137.73 94.21 136.75 94.44 L 135.78 94.66 C 134.80 94.89 134.19 95.87 134.42 96.85 C 134.65 97.83 135.63 98.44 136.61 98.21 Z M 137.58 97.98 L 138.56 97.75 C 139.54 97.52 140.15 96.55 139.92 95.57 C 139.69 94.59 138.71 93.98 137.73 94.21 L 136.75 94.44 C 135.77 94.67 135.17 95.65 135.39 96.63 C 135.62 97.60 136.60 98.21 137.58 97.98 Z M 138.56 97.74 L 139.56 97.51 C 140.53 97.28 141.13 96.31 140.90 95.33 C 140.67 94.36 139.70 93.76 138.72 93.99 L 137.73 94.22 C 136.76 94.45 136.16 95.43 136.39 96.40 C 136.62 97.37 137.59 97.97 138.56 97.74 Z M 139.56 97.50 L 140.54 97.27 C 141.50 97.03 142.10 96.06 141.87 95.10 C 141.64 94.13 140.66 93.53 139.70 93.76 L 138.72 94.00 C 137.75 94.23 137.16 95.20 137.39 96.17 C 137.62 97.14 138.59 97.73 139.56 97.50 Z M 140.54 97.26 L 141.52 97.02 C 142.48 96.78 143.07 95.81 142.84 94.85 C 142.60 93.89 141.63 93.30 140.67 93.53 L 139.69 93.77 C 138.73 94.01 138.14 94.98 138.38 95.94 C 138.61 96.90 139.58 97.49 140.54 97.26 Z M 141.53 97.00 L 142.50 96.76 C 143.46 96.52 144.04 95.55 143.80 94.60 C 143.56 93.64 142.59 93.06 141.63 93.30 L 140.66 93.55 C 139.71 93.79 139.13 94.75 139.37 95.71 C 139.61 96.66 140.58 97.24 141.53 97.00 Z M 142.51 96.75 L 143.49 96.49 C 144.44 96.25 145.01 95.28 144.76 94.33 C 144.52 93.38 143.55 92.81 142.60 93.06 L 141.62 93.31 C 140.67 93.56 140.10 94.53 140.35 95.48 C 140.60 96.43 141.56 97.00 142.51 96.75 Z M 143.50 96.48 L 144.48 96.22 C 145.42 95.97 145.98 95.00 145.73 94.05 C 145.47 93.11 144.51 92.56 143.56 92.81 L 142.59 93.07 C 141.64 93.33 141.09 94.29 141.34 95.24 C 141.59 96.18 142.56 96.74 143.50 96.48 Z M 144.49 96.21 L 145.44 95.95 C 146.38 95.69 146.93 94.72 146.67 93.78 C 146.41 92.85 145.44 92.30 144.51 92.56 L 143.55 92.82 C 142.62 93.08 142.07 94.05 142.33 94.98 C 142.59 95.92 143.55 96.47 144.49 96.21 Z M 145.45 95.94 L 146.39 95.67 C 147.32 95.41 147.86 94.45 147.60 93.52 C 147.34 92.59 146.38 92.04 145.45 92.30 L 144.51 92.57 C 143.57 92.83 143.03 93.79 143.29 94.72 C 143.55 95.65 144.52 96.20 145.45 95.94 Z M 146.39 95.66 L 147.36 95.39 C 148.29 95.13 148.83 94.17 148.57 93.25 C 148.31 92.32 147.35 91.78 146.42 92.04 L 145.45 92.31 C 144.52 92.57 143.98 93.53 144.24 94.46 C 144.50 95.38 145.46 95.92 146.39 95.66 Z M 147.36 95.38 L 148.33 95.11 C 149.25 94.86 149.79 93.90 149.53 92.98 C 149.28 92.06 148.32 91.52 147.40 91.78 L 146.43 92.05 C 145.51 92.30 144.97 93.26 145.22 94.18 C 145.48 95.10 146.44 95.64 147.36 95.38 Z M 148.32 95.11 L 149.27 94.84 C 150.19 94.59 150.73 93.64 150.48 92.73 C 150.23 91.81 149.28 91.27 148.36 91.52 L 147.41 91.78 C 146.49 92.04 145.95 92.98 146.20 93.90 C 146.45 94.82 147.40 95.36 148.32 95.11 Z M 149.26 94.84 L 150.24 94.58 C 151.15 94.33 151.69 93.39 151.45 92.47 C 151.20 91.56 150.26 91.02 149.34 91.26 L 148.37 91.53 C 147.46 91.77 146.91 92.72 147.16 93.63 C 147.41 94.54 148.35 95.09 149.26 94.84 Z M 150.23 94.57 L 151.20 94.31 C 152.12 94.07 152.66 93.13 152.42 92.22 C 152.17 91.31 151.24 90.77 150.33 91.01 L 149.35 91.27 C 148.44 91.51 147.90 92.45 148.14 93.36 C 148.38 94.27 149.32 94.81 150.23 94.57 Z M 151.20 94.30 L 152.16 94.05 C 153.06 93.81 153.60 92.88 153.36 91.97 C 153.12 91.07 152.19 90.52 151.29 90.76 L 150.33 91.02 C 149.42 91.26 148.88 92.19 149.12 93.09 C 149.36 94.00 150.29 94.54 151.20 94.30 Z M 152.16 94.04 L 153.07 93.80 C 153.97 93.56 154.51 92.63 154.27 91.73 C 154.02 90.83 153.10 90.29 152.20 90.53 L 151.28 90.77 C 150.38 91.01 149.85 91.94 150.09 92.84 C 150.33 93.75 151.25 94.28 152.16 94.04 Z M 153.07 93.79 L 153.96 93.55 C 154.86 93.30 155.39 92.38 155.15 91.48 C 154.90 90.58 153.97 90.05 153.08 90.30 L 152.19 90.54 C 151.29 90.78 150.76 91.71 151.01 92.61 C 151.25 93.51 152.18 94.03 153.07 93.79 Z M 153.98 93.54 L 154.94 93.27 C 155.83 93.01 156.35 92.09 156.09 91.19 C 155.84 90.30 154.91 89.78 154.02 90.04 L 153.06 90.31 C 152.17 90.56 151.65 91.49 151.90 92.38 C 152.16 93.27 153.08 93.79 153.98 93.54 Z M 154.95 93.26 L 156.03 92.94 C 156.92 92.68 157.42 91.75 157.16 90.86 C 156.90 89.98 155.97 89.47 155.08 89.73 L 154.01 90.05 C 153.12 90.31 152.61 91.24 152.87 92.12 C 153.14 93.01 154.07 93.52 154.95 93.26 Z M 156.04 92.93 L 156.95 92.65 C 157.83 92.38 158.33 91.45 158.06 90.57 C 157.79 89.69 156.86 89.19 155.98 89.46 L 155.07 89.74 C 154.19 90.01 153.69 90.94 153.96 91.82 C 154.23 92.70 155.16 93.20 156.04 92.93 Z M 156.97 92.64 L 157.93 92.34 C 158.81 92.06 159.29 91.12 159.01 90.24 C 158.73 89.37 157.80 88.89 156.92 89.16 L 155.96 89.47 C 155.08 89.75 154.60 90.69 154.88 91.56 C 155.16 92.44 156.09 92.92 156.97 92.64 Z M 157.96 92.32 L 158.94 91.99 C 159.81 91.70 160.27 90.76 159.98 89.89 C 159.69 89.02 158.75 88.55 157.88 88.85 L 156.90 89.18 C 156.03 89.47 155.56 90.41 155.85 91.28 C 156.15 92.15 157.09 92.62 157.96 92.32 Z M 158.97 91.98 L 159.93 91.63 C 160.79 91.32 161.24 90.37 160.92 89.51 C 160.61 88.65 159.66 88.20 158.80 88.51 L 157.84 88.86 C 156.98 89.17 156.54 90.12 156.85 90.98 C 157.16 91.84 158.11 92.29 158.97 91.98 Z M 159.98 91.61 L 160.94 91.22 C 161.79 90.88 162.20 89.92 161.86 89.07 C 161.52 88.22 160.56 87.81 159.71 88.15 L 158.75 88.54 C 157.90 88.88 157.49 89.84 157.83 90.69 C 158.17 91.53 159.13 91.95 159.98 91.61 Z M 161.01 91.19 L 161.97 90.76 C 162.80 90.38 163.17 89.41 162.79 88.58 C 162.42 87.74 161.44 87.38 160.61 87.75 L 159.65 88.18 C 158.82 88.56 158.45 89.53 158.82 90.36 C 159.20 91.20 160.18 91.56 161.01 91.19 Z M 162.02 90.73 L 162.90 90.29 C 163.72 89.88 164.05 88.89 163.64 88.08 C 163.24 87.27 162.25 86.94 161.44 87.34 L 160.56 87.78 C 159.74 88.18 159.41 89.17 159.82 89.99 C 160.22 90.80 161.21 91.13 162.02 90.73 Z M 162.94 90.26 L 163.77 89.82 C 164.58 89.40 164.88 88.40 164.46 87.60 C 164.03 86.80 163.04 86.50 162.24 86.92 L 161.40 87.36 C 160.60 87.79 160.30 88.78 160.72 89.58 C 161.14 90.38 162.14 90.69 162.94 90.26 Z M 163.79 89.81 L 164.19 89.60 C 164.98 89.17 165.28 88.17 164.85 87.38 C 164.42 86.58 163.42 86.28 162.63 86.71 L 162.23 86.93 C 161.43 87.36 161.13 88.36 161.57 89.15 C 162.00 89.95 162.99 90.24 163.79 89.81 Z"
      fill="black"
      fill-rule="nonzero" /><path d="M 134.49 88.93 L 134.12 89.81 C 133.74 90.69 134.15 91.71 135.04 92.08 C 135.92 92.46 136.94 92.05 137.32 91.17 L 137.69 90.30 C 138.06 89.41 137.65 88.39 136.77 88.02 C 135.88 87.64 134.86 88.05 134.49 88.93 Z M 134.08 89.87 L 133.74 90.78 C 133.40 91.69 133.86 92.70 134.76 93.03 C 135.67 93.37 136.67 92.91 137.01 92.01 L 137.35 91.10 C 137.69 90.19 137.23 89.19 136.33 88.85 C 135.42 88.51 134.42 88.97 134.08 89.87 Z M 133.68 90.92 L 133.40 91.91 C 133.14 92.84 133.68 93.81 134.62 94.08 C 135.55 94.34 136.52 93.80 136.79 92.86 L 137.07 91.88 C 137.33 90.94 136.79 89.97 135.85 89.70 C 134.92 89.44 133.95 89.98 133.68 90.92 Z M 133.36 92.08 L 133.18 93.09 C 133.01 94.05 133.65 94.97 134.61 95.14 C 135.57 95.31 136.48 94.67 136.65 93.71 L 136.83 92.69 C 137.00 91.73 136.36 90.82 135.40 90.65 C 134.44 90.48 133.53 91.12 133.36 92.08 Z M 133.16 93.23 L 133.06 94.23 C 132.97 95.20 133.69 96.06 134.66 96.15 C 135.63 96.24 136.49 95.53 136.58 94.56 L 136.67 93.56 C 136.77 92.59 136.05 91.73 135.08 91.64 C 134.11 91.55 133.25 92.26 133.16 93.23 Z M 133.06 94.32 L 133.02 95.35 C 132.98 96.32 133.74 97.14 134.71 97.18 C 135.68 97.22 136.50 96.47 136.54 95.49 L 136.59 94.47 C 136.63 93.49 135.87 92.67 134.90 92.63 C 133.92 92.59 133.10 93.35 133.06 94.32 Z M 133.02 95.41 L 133.01 96.42 C 133.01 97.40 133.79 98.19 134.76 98.20 C 135.74 98.20 136.53 97.42 136.54 96.45 L 136.54 95.43 C 136.55 94.46 135.77 93.67 134.79 93.66 C 133.82 93.65 133.03 94.44 133.02 95.41 Z M 133.02 96.46 L 133.03 97.46 C 133.04 98.44 133.84 99.21 134.81 99.20 C 135.78 99.19 136.56 98.39 136.54 97.42 L 136.53 96.41 C 136.52 95.44 135.72 94.67 134.75 94.68 C 133.78 94.69 133.00 95.49 133.02 96.46 Z M 133.05 97.49 L 133.08 98.55 C 133.10 99.51 133.91 100.27 134.87 100.24 C 135.83 100.21 136.59 99.41 136.56 98.44 L 136.53 97.39 C 136.50 96.43 135.70 95.67 134.74 95.70 C 133.77 95.73 133.02 96.53 133.05 97.49 Z M 133.10 98.60 L 133.16 99.57 C 133.21 100.52 134.03 101.25 134.97 101.19 C 135.92 101.14 136.65 100.32 136.59 99.37 L 136.54 98.40 C 136.48 97.45 135.67 96.72 134.72 96.78 C 133.77 96.83 133.05 97.65 133.10 98.60 Z M 133.19 99.64 L 133.28 100.59 C 133.38 101.52 134.21 102.20 135.14 102.11 C 136.07 102.01 136.75 101.18 136.66 100.25 L 136.56 99.30 C 136.47 98.37 135.64 97.69 134.70 97.78 C 133.77 97.88 133.09 98.71 133.19 99.64 Z M 133.31 100.67 L 133.45 101.58 C 133.59 102.50 134.44 103.13 135.36 102.99 C 136.28 102.85 136.91 102.00 136.77 101.08 L 136.63 100.17 C 136.49 99.25 135.64 98.62 134.72 98.76 C 133.80 98.90 133.17 99.75 133.31 100.67 Z M 133.47 101.65 L 133.66 102.59 C 133.83 103.49 134.71 104.08 135.62 103.90 C 136.52 103.72 137.11 102.85 136.93 101.94 L 136.75 101.01 C 136.57 100.10 135.69 99.52 134.79 99.69 C 133.88 99.87 133.29 100.75 133.47 101.65 Z M 133.68 102.64 L 133.91 103.63 C 134.12 104.52 135.01 105.08 135.90 104.87 C 136.80 104.66 137.35 103.76 137.14 102.87 L 136.91 101.88 C 136.70 100.99 135.80 100.44 134.91 100.65 C 134.02 100.86 133.47 101.75 133.68 102.64 Z M 133.93 103.67 L 134.21 104.73 C 134.44 105.61 135.34 106.14 136.22 105.91 C 137.10 105.67 137.63 104.77 137.40 103.89 L 137.12 102.83 C 136.89 101.95 135.99 101.43 135.10 101.66 C 134.22 101.89 133.70 102.79 133.93 103.67 Z M 134.22 104.76 L 134.47 105.65 C 134.72 106.52 135.63 107.03 136.50 106.79 C 137.37 106.54 137.88 105.63 137.64 104.76 L 137.39 103.87 C 137.14 102.99 136.23 102.48 135.36 102.73 C 134.48 102.98 133.98 103.88 134.22 104.76 Z M 134.48 105.67 L 134.75 106.61 C 135.01 107.48 135.92 107.98 136.79 107.72 C 137.66 107.47 138.16 106.56 137.91 105.69 L 137.63 104.75 C 137.38 103.88 136.47 103.38 135.59 103.63 C 134.72 103.88 134.22 104.80 134.48 105.67 Z M 134.76 106.62 L 135.05 107.59 C 135.31 108.46 136.22 108.95 137.09 108.69 C 137.96 108.43 138.45 107.52 138.19 106.65 L 137.90 105.68 C 137.64 104.81 136.73 104.31 135.86 104.57 C 134.99 104.83 134.50 105.75 134.76 106.62 Z M 135.05 107.60 L 135.36 108.59 C 135.62 109.46 136.53 109.95 137.40 109.68 C 138.27 109.42 138.75 108.51 138.49 107.64 L 138.19 106.64 C 137.93 105.78 137.01 105.29 136.15 105.55 C 135.28 105.81 134.79 106.73 135.05 107.60 Z M 135.36 108.59 L 135.58 109.33 C 135.85 110.19 136.76 110.68 137.63 110.42 C 138.49 110.15 138.98 109.24 138.71 108.37 L 138.49 107.64 C 138.23 106.77 137.31 106.29 136.45 106.55 C 135.58 106.81 135.09 107.73 135.36 108.59 Z"
      fill="black"
      fill-rule="nonzero" /><path d="M 142.15 88.42 L 142.30 89.39 C 142.44 90.36 143.35 91.03 144.32 90.88 C 145.29 90.74 145.96 89.83 145.82 88.86 L 145.67 87.89 C 145.52 86.92 144.62 86.25 143.65 86.40 C 142.68 86.54 142.01 87.45 142.15 88.42 Z M 142.32 89.40 L 142.48 90.38 C 142.64 91.34 143.54 91.99 144.50 91.83 C 145.45 91.68 146.10 90.77 145.95 89.82 L 145.79 88.84 C 145.63 87.89 144.73 87.24 143.78 87.39 C 142.82 87.55 142.17 88.45 142.32 89.40 Z M 142.51 90.42 L 142.70 91.41 C 142.87 92.35 143.78 92.97 144.72 92.79 C 145.65 92.62 146.27 91.71 146.10 90.77 L 145.92 89.78 C 145.74 88.84 144.84 88.22 143.90 88.40 C 142.96 88.57 142.34 89.48 142.51 90.42 Z M 142.73 91.46 L 142.95 92.45 C 143.15 93.37 144.06 93.95 144.98 93.75 C 145.90 93.55 146.49 92.64 146.29 91.72 L 146.07 90.72 C 145.86 89.80 144.95 89.22 144.03 89.42 C 143.11 89.63 142.53 90.54 142.73 91.46 Z M 142.97 92.49 L 143.21 93.45 C 143.44 94.36 144.36 94.92 145.27 94.69 C 146.18 94.46 146.73 93.54 146.50 92.63 L 146.26 91.67 C 146.04 90.76 145.12 90.21 144.21 90.44 C 143.30 90.66 142.74 91.58 142.97 92.49 Z M 143.22 93.47 L 143.47 94.44 C 143.70 95.35 144.63 95.89 145.53 95.66 C 146.44 95.42 146.98 94.50 146.75 93.59 L 146.50 92.62 C 146.26 91.71 145.34 91.17 144.43 91.40 C 143.53 91.64 142.99 92.56 143.22 93.47 Z M 143.47 94.42 L 143.71 95.40 C 143.93 96.31 144.85 96.86 145.75 96.64 C 146.66 96.41 147.21 95.50 146.99 94.59 L 146.75 93.61 C 146.53 92.71 145.61 92.16 144.71 92.38 C 143.80 92.60 143.25 93.52 143.47 94.42 Z M 143.70 95.35 L 143.91 96.33 C 144.11 97.24 145.00 97.82 145.91 97.62 C 146.82 97.43 147.40 96.54 147.20 95.63 L 147.00 94.65 C 146.80 93.74 145.91 93.16 145.00 93.35 C 144.09 93.54 143.51 94.44 143.70 95.35 Z M 143.91 96.25 L 144.07 97.23 C 144.22 98.14 145.08 98.76 145.99 98.61 C 146.91 98.46 147.52 97.59 147.37 96.68 L 147.21 95.70 C 147.06 94.79 146.20 94.17 145.28 94.33 C 144.37 94.48 143.76 95.34 143.91 96.25 Z M 144.07 97.16 L 144.19 98.14 C 144.30 99.05 145.13 99.70 146.04 99.59 C 146.95 99.48 147.60 98.65 147.49 97.74 L 147.37 96.75 C 147.26 95.84 146.43 95.19 145.52 95.30 C 144.61 95.42 143.96 96.25 144.07 97.16 Z M 144.19 98.08 L 144.28 99.08 C 144.36 99.99 145.16 100.66 146.06 100.58 C 146.97 100.51 147.65 99.71 147.57 98.80 L 147.49 97.80 C 147.41 96.89 146.61 96.22 145.70 96.29 C 144.79 96.37 144.12 97.17 144.19 98.08 Z M 144.29 99.03 L 144.34 100.03 C 144.39 100.93 145.16 101.63 146.07 101.58 C 146.97 101.53 147.67 100.75 147.62 99.85 L 147.57 98.85 C 147.52 97.94 146.74 97.25 145.84 97.30 C 144.93 97.35 144.24 98.12 144.29 99.03 Z M 144.34 99.98 L 144.37 100.95 C 144.39 101.86 145.14 102.57 146.04 102.55 C 146.95 102.52 147.66 101.77 147.64 100.87 L 147.62 99.90 C 147.59 98.99 146.84 98.28 145.94 98.30 C 145.03 98.32 144.32 99.07 144.34 99.98 Z M 144.37 100.89 L 144.35 101.88 C 144.34 102.79 145.06 103.53 145.97 103.54 C 146.87 103.55 147.61 102.83 147.63 101.93 L 147.64 100.93 C 147.65 100.03 146.93 99.29 146.03 99.27 C 145.12 99.26 144.38 99.98 144.37 100.89 Z M 144.36 101.80 L 144.29 102.81 C 144.23 103.71 144.92 104.49 145.82 104.55 C 146.72 104.61 147.50 103.92 147.56 103.02 L 147.62 102.01 C 147.68 101.11 147.00 100.33 146.10 100.27 C 145.19 100.21 144.41 100.90 144.36 101.80 Z M 144.30 102.71 L 144.17 103.73 C 144.06 104.63 144.69 105.45 145.59 105.56 C 146.48 105.68 147.30 105.04 147.42 104.14 L 147.55 103.12 C 147.66 102.22 147.03 101.40 146.13 101.29 C 145.23 101.18 144.41 101.81 144.30 102.71 Z M 144.19 103.62 L 143.99 104.60 C 143.82 105.49 144.40 106.35 145.29 106.53 C 146.17 106.70 147.03 106.12 147.21 105.23 L 147.40 104.25 C 147.58 103.37 147.00 102.51 146.11 102.33 C 145.22 102.16 144.36 102.73 144.19 103.62 Z M 144.02 104.50 L 143.76 105.48 C 143.53 106.35 144.06 107.25 144.93 107.48 C 145.81 107.71 146.70 107.18 146.93 106.31 L 147.19 105.33 C 147.42 104.46 146.89 103.56 146.02 103.33 C 145.14 103.10 144.24 103.63 144.02 104.50 Z M 143.78 105.39 L 143.48 106.35 C 143.20 107.21 143.67 108.14 144.53 108.41 C 145.40 108.69 146.32 108.22 146.60 107.36 L 146.91 106.40 C 147.19 105.53 146.71 104.61 145.85 104.33 C 144.99 104.05 144.06 104.53 143.78 105.39 Z M 143.50 106.27 L 143.15 107.20 C 142.82 108.05 143.25 109.00 144.10 109.32 C 144.95 109.64 145.90 109.22 146.22 108.37 L 146.57 107.44 C 146.90 106.59 146.47 105.64 145.62 105.32 C 144.77 104.99 143.82 105.42 143.50 106.27 Z M 143.18 107.12 L 142.77 108.05 C 142.40 108.88 142.78 109.85 143.61 110.22 C 144.44 110.59 145.42 110.21 145.78 109.38 L 146.19 108.45 C 146.55 107.61 146.18 106.64 145.34 106.28 C 144.51 105.91 143.54 106.29 143.18 107.12 Z M 142.80 107.98 L 142.34 108.91 C 141.93 109.72 142.26 110.71 143.08 111.12 C 143.89 111.52 144.88 111.19 145.29 110.38 L 145.75 109.45 C 146.16 108.63 145.83 107.64 145.01 107.24 C 144.20 106.83 143.21 107.16 142.80 107.98 Z M 142.36 108.84 L 141.88 109.72 C 141.44 110.52 141.73 111.53 142.53 111.97 C 143.33 112.41 144.33 112.12 144.77 111.32 L 145.26 110.44 C 145.70 109.64 145.41 108.64 144.61 108.19 C 143.81 107.75 142.81 108.04 142.36 108.84 Z M 141.90 109.67 L 141.40 110.51 C 140.94 111.30 141.19 112.31 141.98 112.78 C 142.77 113.25 143.78 112.99 144.25 112.21 L 144.75 111.37 C 145.22 110.58 144.96 109.57 144.17 109.10 C 143.39 108.63 142.37 108.89 141.90 109.67 Z M 141.42 110.47 L 140.90 111.30 C 140.41 112.08 140.65 113.11 141.42 113.60 C 142.20 114.08 143.23 113.85 143.72 113.07 L 144.24 112.24 C 144.73 111.46 144.49 110.44 143.71 109.95 C 142.93 109.46 141.91 109.69 141.42 110.47 Z M 140.91 111.26 L 140.34 112.13 C 139.83 112.90 140.04 113.94 140.81 114.45 C 141.58 114.96 142.62 114.75 143.13 113.98 L 143.70 113.11 C 144.21 112.34 144.00 111.30 143.23 110.79 C 142.46 110.28 141.42 110.49 140.91 111.26 Z M 140.37 112.06 L 139.79 112.87 C 139.24 113.62 139.40 114.67 140.15 115.22 C 140.90 115.77 141.96 115.60 142.51 114.85 L 143.09 114.05 C 143.64 113.30 143.48 112.24 142.73 111.69 C 141.97 111.15 140.92 111.31 140.37 112.06 Z M 139.85 112.77 L 139.23 113.50 C 138.63 114.21 138.72 115.28 139.43 115.89 C 140.15 116.49 141.22 116.40 141.82 115.68 L 142.44 114.95 C 143.05 114.24 142.95 113.17 142.24 112.56 C 141.52 111.96 140.45 112.05 139.85 112.77 Z M 139.34 113.35 L 138.40 114.25 C 137.71 114.90 137.69 115.99 138.34 116.68 C 139.00 117.36 140.08 117.39 140.77 116.73 L 141.71 115.83 C 142.40 115.18 142.43 114.09 141.77 113.41 C 141.12 112.72 140.03 112.69 139.34 113.35 Z M 138.52 114.09 L 137.74 114.69 C 136.96 115.28 136.81 116.38 137.40 117.15 C 137.99 117.92 139.09 118.07 139.86 117.48 L 140.65 116.89 C 141.42 116.30 141.57 115.20 140.98 114.43 C 140.40 113.66 139.29 113.51 138.52 114.09 Z M 140.53 115.65 L 140.51 115.59 C 140.27 114.63 139.30 114.05 138.35 114.29 C 137.39 114.53 136.81 115.50 137.05 116.46 L 137.07 116.52 C 137.31 117.48 138.28 118.06 139.23 117.82 C 140.19 117.58 140.77 116.61 140.53 115.65 Z M 139.92 117.41 L 140.68 116.79 C 141.45 116.17 141.56 115.04 140.94 114.27 C 140.31 113.50 139.18 113.38 138.41 114.01 L 137.65 114.63 C 136.88 115.26 136.76 116.39 137.39 117.16 C 138.02 117.93 139.15 118.04 139.92 117.41 Z M 140.58 116.87 L 141.68 116.09 C 142.49 115.52 142.69 114.40 142.12 113.59 C 141.55 112.78 140.43 112.59 139.62 113.16 L 138.51 113.94 C 137.70 114.51 137.51 115.62 138.08 116.43 C 138.65 117.24 139.77 117.44 140.58 116.87 Z M 141.59 116.14 L 142.43 115.62 C 143.27 115.10 143.53 114.00 143.01 113.16 C 142.50 112.33 141.40 112.07 140.56 112.58 L 139.71 113.11 C 138.88 113.62 138.62 114.72 139.13 115.56 C 139.65 116.40 140.75 116.66 141.59 116.14 Z M 142.36 115.64 L 143.24 115.14 C 144.09 114.66 144.39 113.59 143.91 112.74 C 143.44 111.89 142.36 111.59 141.51 112.07 L 140.63 112.56 C 139.78 113.04 139.48 114.12 139.96 114.97 C 140.44 115.82 141.51 116.12 142.36 115.64 Z M 143.19 115.15 L 144.08 114.69 C 144.93 114.24 145.26 113.19 144.82 112.33 C 144.37 111.48 143.32 111.15 142.46 111.59 L 141.57 112.06 C 140.72 112.50 140.39 113.56 140.83 114.41 C 141.28 115.27 142.33 115.60 143.19 115.15 Z M 144.03 114.69 L 144.94 114.24 C 145.80 113.82 146.15 112.79 145.73 111.93 C 145.31 111.08 144.28 110.72 143.42 111.14 L 142.51 111.59 C 141.66 112.01 141.30 113.04 141.72 113.90 C 142.14 114.75 143.17 115.11 144.03 114.69 Z M 144.90 114.24 L 145.82 113.81 C 146.67 113.41 147.04 112.40 146.65 111.55 C 146.25 110.70 145.24 110.33 144.39 110.72 L 143.47 111.15 C 142.61 111.54 142.24 112.56 142.64 113.41 C 143.03 114.26 144.05 114.63 144.90 114.24 Z M 145.78 113.80 L 146.69 113.40 C 147.53 113.02 147.91 112.03 147.54 111.18 C 147.16 110.34 146.17 109.96 145.32 110.33 L 144.42 110.73 C 143.57 111.11 143.19 112.10 143.57 112.95 C 143.95 113.79 144.94 114.17 145.78 113.80 Z M 146.67 113.38 L 147.49 113.02 C 148.33 112.65 148.71 111.68 148.34 110.84 C 147.98 110.01 147.00 109.62 146.17 109.99 L 145.34 110.35 C 144.51 110.71 144.12 111.69 144.49 112.53 C 144.85 113.36 145.83 113.74 146.67 113.38 Z"
      fill="black"
      fill-rule="nonzero" /><path d="M 114.34 130.02 L 115.14 130.50 C 115.99 131.01 117.09 130.74 117.60 129.89 C 118.11 129.04 117.84 127.94 116.99 127.43 L 116.19 126.95 C 115.34 126.44 114.24 126.71 113.73 127.56 C 113.22 128.41 113.49 129.51 114.34 130.02 Z M 115.23 130.60 L 116.09 131.04 C 116.99 131.50 118.10 131.14 118.56 130.24 C 119.02 129.33 118.66 128.23 117.76 127.77 L 116.90 127.33 C 115.99 126.87 114.89 127.23 114.43 128.13 C 113.97 129.04 114.33 130.14 115.23 130.60 Z M 116.29 131.17 L 117.27 131.52 C 118.24 131.87 119.32 131.35 119.67 130.38 C 120.01 129.40 119.50 128.33 118.52 127.98 L 117.55 127.63 C 116.57 127.29 115.50 127.80 115.15 128.77 C 114.81 129.75 115.32 130.83 116.29 131.17 Z M 117.53 131.62 L 118.54 131.82 C 119.58 132.02 120.58 131.34 120.78 130.31 C 120.98 129.27 120.30 128.27 119.27 128.07 L 118.26 127.87 C 117.22 127.67 116.22 128.35 116.02 129.39 C 115.82 130.42 116.50 131.42 117.53 131.62 Z M 118.76 131.86 L 119.74 131.94 C 120.79 132.02 121.72 131.22 121.80 130.17 C 121.88 129.11 121.09 128.18 120.03 128.10 L 119.05 128.03 C 117.99 127.94 117.07 128.74 116.99 129.80 C 116.91 130.85 117.70 131.78 118.76 131.86 Z M 119.87 131.94 L 120.90 131.95 C 121.97 131.95 122.83 131.09 122.84 130.03 C 122.84 128.97 121.98 128.10 120.92 128.10 L 119.89 128.10 C 118.83 128.09 117.96 128.95 117.96 130.01 C 117.95 131.07 118.81 131.94 119.87 131.94 Z M 121.00 131.95 L 122.04 131.90 C 123.10 131.85 123.92 130.94 123.87 129.88 C 123.82 128.82 122.92 128.00 121.85 128.05 L 120.82 128.10 C 119.76 128.15 118.94 129.05 118.99 130.12 C 119.04 131.18 119.94 132.00 121.00 131.95 Z M 122.11 131.89 L 123.10 131.81 C 124.16 131.71 124.95 130.78 124.85 129.72 C 124.76 128.66 123.83 127.88 122.77 127.97 L 121.78 128.06 C 120.72 128.15 119.93 129.08 120.03 130.14 C 120.12 131.20 121.05 131.98 122.11 131.89 Z M 123.17 131.80 L 124.24 131.67 C 125.30 131.54 126.05 130.58 125.92 129.52 C 125.79 128.46 124.83 127.71 123.77 127.84 L 122.70 127.98 C 121.64 128.11 120.89 129.07 121.02 130.12 C 121.15 131.18 122.11 131.93 123.17 131.80 Z M 124.31 131.66 L 125.30 131.50 C 126.35 131.33 127.07 130.35 126.90 129.30 C 126.74 128.25 125.75 127.53 124.70 127.70 L 123.71 127.85 C 122.66 128.02 121.94 129.01 122.11 130.06 C 122.28 131.11 123.26 131.82 124.31 131.66 Z M 125.36 131.49 L 126.30 131.31 C 127.34 131.12 128.03 130.11 127.83 129.07 C 127.63 128.02 126.63 127.34 125.59 127.53 L 124.65 127.71 C 123.60 127.90 122.92 128.91 123.11 129.95 C 123.31 131.00 124.31 131.68 125.36 131.49 Z M 126.33 131.30 L 127.25 131.11 C 128.29 130.90 128.96 129.89 128.75 128.85 C 128.54 127.81 127.52 127.14 126.48 127.35 L 125.55 127.54 C 124.52 127.75 123.84 128.77 124.06 129.81 C 124.27 130.85 125.29 131.52 126.33 131.30 Z M 127.27 131.11 L 128.23 130.91 C 129.26 130.69 129.93 129.67 129.71 128.63 C 129.49 127.59 128.47 126.93 127.43 127.15 L 126.47 127.35 C 125.44 127.57 124.77 128.59 124.99 129.63 C 125.21 130.66 126.23 131.33 127.27 131.11 Z M 128.24 130.90 L 129.22 130.68 C 130.26 130.46 130.91 129.43 130.68 128.40 C 130.45 127.37 129.43 126.71 128.40 126.94 L 127.42 127.16 C 126.39 127.38 125.73 128.41 125.96 129.44 C 126.19 130.47 127.21 131.13 128.24 130.90 Z M 129.25 130.68 L 130.23 130.44 C 131.26 130.20 131.90 129.17 131.66 128.15 C 131.42 127.12 130.39 126.48 129.36 126.72 L 128.37 126.95 C 127.34 127.19 126.71 128.22 126.95 129.25 C 127.19 130.28 128.22 130.92 129.25 130.68 Z M 130.26 130.43 L 131.24 130.19 C 132.26 129.93 132.88 128.89 132.62 127.87 C 132.36 126.84 131.32 126.22 130.30 126.48 L 129.33 126.73 C 128.30 126.99 127.68 128.03 127.94 129.05 C 128.20 130.07 129.24 130.69 130.26 130.43 Z M 131.27 130.18 L 132.22 129.92 C 133.24 129.64 133.84 128.59 133.56 127.58 C 133.29 126.56 132.24 125.96 131.22 126.24 L 130.27 126.50 C 129.25 126.77 128.65 127.82 128.93 128.83 C 129.20 129.85 130.25 130.45 131.27 130.18 Z M 132.24 129.91 L 133.19 129.64 C 134.21 129.35 134.79 128.30 134.51 127.29 C 134.22 126.28 133.17 125.69 132.16 125.98 L 131.20 126.25 C 130.19 126.53 129.61 127.58 129.89 128.59 C 130.17 129.60 131.23 130.19 132.24 129.91 Z M 133.20 129.63 L 134.17 129.36 C 135.18 129.07 135.76 128.02 135.48 127.01 C 135.19 126.00 134.14 125.42 133.13 125.71 L 132.16 125.98 C 131.15 126.27 130.57 127.32 130.85 128.33 C 131.14 129.33 132.19 129.92 133.20 129.63 Z M 134.16 129.35 L 135.12 129.09 C 136.13 128.80 136.71 127.76 136.43 126.75 C 136.15 125.75 135.10 125.16 134.10 125.44 L 133.14 125.71 C 132.13 125.99 131.55 127.03 131.83 128.04 C 132.11 129.05 133.16 129.64 134.16 129.35 Z M 135.11 129.08 L 136.06 128.82 C 137.07 128.54 137.66 127.50 137.38 126.50 C 137.10 125.49 136.06 124.90 135.06 125.18 L 134.10 125.44 C 133.10 125.72 132.51 126.76 132.79 127.77 C 133.07 128.77 134.11 129.36 135.11 129.08 Z M 136.07 128.81 L 137.03 128.54 C 138.04 128.26 138.62 127.22 138.34 126.22 C 138.06 125.22 137.02 124.64 136.02 124.92 L 135.05 125.19 C 134.05 125.47 133.47 126.50 133.75 127.51 C 134.03 128.51 135.07 129.09 136.07 128.81 Z M 137.05 128.53 L 138.02 128.25 C 139.02 127.97 139.59 126.93 139.31 125.93 C 139.02 124.93 137.98 124.36 136.98 124.64 L 136.01 124.92 C 135.01 125.21 134.44 126.25 134.72 127.25 C 135.01 128.24 136.05 128.82 137.05 128.53 Z M 138.04 128.24 L 139.01 127.95 C 140.00 127.65 140.56 126.61 140.26 125.62 C 139.96 124.63 138.92 124.07 137.93 124.37 L 136.96 124.66 C 135.97 124.95 135.41 126.00 135.71 126.99 C 136.01 127.98 137.05 128.54 138.04 128.24 Z M 139.03 127.94 L 139.98 127.64 C 140.96 127.33 141.51 126.29 141.20 125.30 C 140.89 124.32 139.85 123.77 138.86 124.08 L 137.91 124.38 C 136.93 124.69 136.38 125.73 136.69 126.72 C 136.99 127.70 138.04 128.25 139.03 127.94 Z M 139.99 127.63 L 140.94 127.33 C 141.92 127.01 142.46 125.96 142.15 124.99 C 141.83 124.01 140.78 123.47 139.81 123.78 L 138.85 124.09 C 137.87 124.40 137.34 125.45 137.65 126.43 C 137.96 127.41 139.01 127.95 139.99 127.63 Z M 140.94 127.32 L 141.90 127.01 C 142.87 126.70 143.41 125.65 143.09 124.68 C 142.78 123.70 141.73 123.17 140.76 123.48 L 139.81 123.79 C 138.83 124.10 138.30 125.15 138.61 126.12 C 138.92 127.10 139.97 127.63 140.94 127.32 Z M 141.89 127.01 L 142.84 126.71 C 143.81 126.40 144.35 125.36 144.04 124.38 C 143.73 123.41 142.70 122.87 141.72 123.18 L 140.77 123.49 C 139.80 123.79 139.26 124.83 139.57 125.81 C 139.87 126.78 140.91 127.32 141.89 127.01 Z M 142.83 126.70 L 143.78 126.41 C 144.76 126.10 145.30 125.07 145.00 124.10 C 144.70 123.13 143.66 122.59 142.69 122.89 L 141.74 123.19 C 140.76 123.49 140.22 124.52 140.52 125.49 C 140.82 126.46 141.86 127.00 142.83 126.70 Z M 143.77 126.40 L 144.73 126.11 C 145.70 125.81 146.25 124.79 145.95 123.82 C 145.65 122.85 144.63 122.30 143.66 122.60 L 142.70 122.89 C 141.73 123.19 141.19 124.21 141.48 125.18 C 141.78 126.15 142.80 126.70 143.77 126.40 Z M 144.72 126.11 L 145.68 125.82 C 146.65 125.53 147.19 124.51 146.90 123.54 C 146.61 122.57 145.59 122.02 144.62 122.32 L 143.67 122.61 C 142.70 122.90 142.15 123.92 142.44 124.88 C 142.74 125.85 143.76 126.40 144.72 126.11 Z M 145.67 125.81 L 146.63 125.53 C 147.59 125.24 148.14 124.22 147.85 123.26 C 147.56 122.29 146.54 121.75 145.58 122.04 L 144.63 122.32 C 143.66 122.61 143.12 123.63 143.41 124.59 C 143.70 125.55 144.71 126.10 145.67 125.81 Z M 146.63 125.52 L 147.57 125.24 C 148.53 124.95 149.08 123.94 148.79 122.98 C 148.50 122.02 147.49 121.47 146.53 121.76 L 145.58 122.04 C 144.62 122.33 144.08 123.34 144.37 124.30 C 144.65 125.26 145.67 125.81 146.63 125.52 Z M 147.57 125.23 L 148.52 124.95 C 149.47 124.66 150.02 123.66 149.73 122.70 C 149.45 121.74 148.44 121.20 147.48 121.48 L 146.53 121.76 C 145.58 122.05 145.03 123.06 145.32 124.01 C 145.60 124.97 146.61 125.52 147.57 125.23 Z M 148.51 124.94 L 149.47 124.66 C 150.43 124.38 150.97 123.38 150.69 122.42 C 150.41 121.47 149.41 120.92 148.46 121.20 L 147.49 121.48 C 146.54 121.77 145.99 122.77 146.27 123.72 C 146.55 124.68 147.55 125.22 148.51 124.94 Z M 149.46 124.66 L 150.44 124.37 C 151.40 124.10 151.95 123.10 151.67 122.15 C 151.39 121.20 150.40 120.65 149.45 120.92 L 148.47 121.21 C 147.51 121.48 146.96 122.48 147.24 123.43 C 147.51 124.38 148.51 124.93 149.46 124.66 Z M 150.43 124.37 L 151.41 124.09 C 152.36 123.82 152.91 122.84 152.64 121.88 C 152.37 120.93 151.38 120.38 150.43 120.65 L 149.46 120.93 C 148.51 121.20 147.95 122.18 148.22 123.14 C 148.49 124.09 149.48 124.64 150.43 124.37 Z M 151.40 124.09 L 152.38 123.82 C 153.33 123.55 153.88 122.57 153.62 121.62 C 153.36 120.67 152.37 120.12 151.43 120.38 L 150.44 120.65 C 149.50 120.92 148.94 121.90 149.20 122.85 C 149.47 123.80 150.45 124.35 151.40 124.09 Z M 152.37 123.81 L 153.34 123.54 C 154.29 123.28 154.84 122.31 154.58 121.36 C 154.32 120.42 153.35 119.86 152.40 120.12 L 151.43 120.39 C 150.49 120.65 149.93 121.62 150.19 122.57 C 150.45 123.51 151.43 124.07 152.37 123.81 Z M 153.34 123.54 L 154.28 123.28 C 155.22 123.02 155.78 122.05 155.52 121.11 C 155.26 120.17 154.29 119.61 153.35 119.87 L 152.41 120.13 C 151.47 120.38 150.91 121.35 151.17 122.30 C 151.42 123.24 152.40 123.79 153.34 123.54 Z M 154.28 123.28 L 155.21 123.02 C 156.15 122.77 156.70 121.80 156.45 120.86 C 156.19 119.92 155.22 119.37 154.29 119.62 L 153.35 119.88 C 152.42 120.13 151.86 121.10 152.12 122.04 C 152.37 122.97 153.34 123.53 154.28 123.28 Z M 155.20 123.02 L 156.13 122.77 C 157.06 122.52 157.62 121.55 157.36 120.62 C 157.11 119.68 156.15 119.13 155.21 119.38 L 154.29 119.63 C 153.35 119.88 152.80 120.84 153.05 121.78 C 153.31 122.72 154.27 123.27 155.20 123.02 Z M 156.12 122.76 L 157.06 122.51 C 158.00 122.26 158.55 121.30 158.30 120.37 C 158.05 119.44 157.09 118.88 156.16 119.13 L 155.22 119.39 C 154.28 119.64 153.73 120.59 153.98 121.53 C 154.23 122.46 155.19 123.01 156.12 122.76 Z M 157.06 122.50 L 158.07 122.24 C 159.00 121.99 159.55 121.03 159.30 120.10 C 159.05 119.18 158.10 118.62 157.17 118.87 L 156.16 119.14 C 155.23 119.39 154.68 120.34 154.93 121.27 C 155.18 122.20 156.13 122.75 157.06 122.50 Z M 158.06 122.23 L 159.01 121.98 C 159.94 121.73 160.49 120.78 160.25 119.86 C 160.00 118.93 159.05 118.38 158.12 118.62 L 157.17 118.87 C 156.25 119.12 155.69 120.07 155.94 121.00 C 156.18 121.92 157.13 122.48 158.06 122.23 Z M 159.01 121.98 L 159.92 121.74 C 160.85 121.49 161.40 120.55 161.16 119.62 C 160.92 118.70 159.97 118.14 159.04 118.39 L 158.13 118.63 C 157.20 118.87 156.65 119.82 156.89 120.74 C 157.14 121.67 158.08 122.22 159.01 121.98 Z M 159.92 121.73 L 160.88 121.48 C 161.81 121.24 162.36 120.30 162.12 119.38 C 161.88 118.45 160.94 117.90 160.01 118.14 L 159.05 118.39 C 158.13 118.63 157.57 119.57 157.81 120.50 C 158.05 121.42 159.00 121.97 159.92 121.73 Z M 160.88 121.48 L 161.88 121.22 C 162.80 120.99 163.35 120.05 163.12 119.13 C 162.88 118.21 161.94 117.65 161.02 117.89 L 160.02 118.14 C 159.10 118.38 158.54 119.32 158.78 120.24 C 159.02 121.16 159.96 121.71 160.88 121.48 Z M 161.87 121.22 L 162.88 120.96 C 163.80 120.73 164.36 119.80 164.13 118.88 C 163.90 117.96 162.97 117.40 162.05 117.63 L 161.03 117.89 C 160.11 118.12 159.55 119.05 159.78 119.97 C 160.01 120.89 160.95 121.45 161.87 121.22 Z M 162.87 120.96 L 163.89 120.71 C 164.81 120.49 165.37 119.56 165.14 118.64 C 164.92 117.72 163.99 117.16 163.07 117.39 L 162.06 117.63 C 161.14 117.86 160.58 118.79 160.80 119.71 C 161.03 120.63 161.96 121.19 162.87 120.96 Z M 163.88 120.71 L 164.86 120.47 C 165.78 120.25 166.34 119.33 166.12 118.42 C 165.90 117.50 164.98 116.93 164.06 117.15 L 163.08 117.39 C 162.16 117.61 161.60 118.53 161.82 119.45 C 162.04 120.36 162.96 120.93 163.88 120.71 Z M 164.85 120.47 L 165.83 120.24 C 166.74 120.03 167.31 119.11 167.09 118.20 C 166.88 117.28 165.97 116.72 165.05 116.93 L 164.07 117.16 C 163.16 117.37 162.59 118.29 162.81 119.20 C 163.02 120.12 163.94 120.68 164.85 120.47 Z M 165.82 120.23 L 166.79 120.01 C 167.70 119.80 168.27 118.89 168.06 117.98 C 167.85 117.07 166.94 116.50 166.03 116.71 L 165.06 116.94 C 164.15 117.15 163.58 118.05 163.79 118.96 C 164.00 119.88 164.91 120.44 165.82 120.23 Z M 166.79 120.01 L 167.75 119.79 C 168.66 119.58 169.23 118.68 169.02 117.77 C 168.82 116.86 167.91 116.29 167.01 116.50 L 166.04 116.72 C 165.13 116.92 164.56 117.83 164.77 118.74 C 164.97 119.64 165.88 120.21 166.79 120.01 Z M 167.75 119.78 L 168.72 119.56 C 169.62 119.36 170.19 118.46 169.98 117.55 C 169.78 116.65 168.88 116.08 167.98 116.29 L 167.01 116.50 C 166.11 116.71 165.54 117.61 165.74 118.51 C 165.95 119.42 166.85 119.98 167.75 119.78 Z M 168.71 119.56 L 168.95 119.50 C 169.85 119.30 170.41 118.41 170.21 117.50 C 170.01 116.60 169.11 116.04 168.21 116.24 L 167.98 116.29 C 167.08 116.49 166.51 117.39 166.71 118.29 C 166.92 119.19 167.81 119.76 168.71 119.56 Z"
      fill="black"
      fill-rule="nonzero" /><path d="M 133.43 138.75 L 133.31 139.68 C 133.20 140.64 133.88 141.51 134.83 141.63 C 135.79 141.74 136.66 141.06 136.78 140.11 L 136.89 139.18 C 137.01 138.22 136.33 137.35 135.37 137.23 C 134.41 137.12 133.54 137.80 133.43 138.75 Z M 133.31 139.71 L 133.20 140.67 C 133.10 141.63 133.79 142.49 134.75 142.60 C 135.71 142.70 136.57 142.01 136.68 141.05 L 136.78 140.08 C 136.88 139.12 136.19 138.26 135.23 138.16 C 134.27 138.06 133.41 138.75 133.31 139.71 Z M 133.20 140.72 L 133.11 141.76 C 133.03 142.72 133.75 143.56 134.71 143.64 C 135.68 143.72 136.52 143.00 136.60 142.04 L 136.68 141.00 C 136.76 140.04 136.05 139.20 135.08 139.12 C 134.12 139.04 133.28 139.76 133.20 140.72 Z M 133.11 141.81 L 133.06 142.81 C 133.01 143.77 133.75 144.60 134.72 144.65 C 135.68 144.69 136.51 143.95 136.55 142.98 L 136.61 141.99 C 136.65 141.02 135.91 140.20 134.94 140.15 C 133.98 140.10 133.16 140.84 133.11 141.81 Z M 133.05 142.87 L 133.04 143.82 C 133.02 144.79 133.79 145.59 134.76 145.61 C 135.73 145.62 136.53 144.85 136.54 143.88 L 136.56 142.93 C 136.58 141.96 135.80 141.16 134.83 141.14 C 133.87 141.13 133.07 141.90 133.05 142.87 Z M 133.03 143.89 L 133.06 144.90 C 133.08 145.87 133.88 146.64 134.85 146.61 C 135.82 146.59 136.59 145.79 136.57 144.82 L 136.55 143.81 C 136.52 142.84 135.72 142.07 134.75 142.10 C 133.78 142.12 133.01 142.92 133.03 143.89 Z M 133.06 144.98 L 133.13 146.02 C 133.20 146.99 134.05 147.72 135.02 147.65 C 135.99 147.58 136.71 146.73 136.64 145.76 L 136.57 144.73 C 136.50 143.76 135.65 143.03 134.68 143.10 C 133.72 143.17 132.99 144.02 133.06 144.98 Z M 133.14 146.12 L 133.28 147.17 C 133.41 148.13 134.29 148.81 135.26 148.68 C 136.22 148.55 136.90 147.67 136.77 146.70 L 136.63 145.66 C 136.51 144.70 135.62 144.02 134.66 144.15 C 133.69 144.28 133.01 145.16 133.14 146.12 Z M 133.30 147.27 L 133.50 148.26 C 133.69 149.21 134.61 149.83 135.56 149.65 C 136.51 149.46 137.13 148.54 136.94 147.59 L 136.75 146.60 C 136.56 145.65 135.64 145.03 134.69 145.21 C 133.74 145.40 133.12 146.32 133.30 147.27 Z M 133.53 148.34 L 133.77 149.32 C 134.00 150.26 134.94 150.83 135.88 150.60 C 136.81 150.37 137.38 149.42 137.15 148.49 L 136.91 147.51 C 136.68 146.57 135.74 146.00 134.80 146.23 C 133.87 146.46 133.30 147.41 133.53 148.34 Z M 133.80 149.37 L 134.07 150.34 C 134.33 151.26 135.28 151.80 136.20 151.54 C 137.12 151.28 137.66 150.33 137.40 149.41 L 137.13 148.44 C 136.87 147.52 135.91 146.98 134.99 147.24 C 134.07 147.50 133.54 148.45 133.80 149.37 Z M 134.09 150.37 L 134.38 151.32 C 134.65 152.23 135.61 152.74 136.52 152.47 C 137.42 152.19 137.94 151.23 137.66 150.32 L 137.38 149.38 C 137.11 148.47 136.15 147.95 135.24 148.23 C 134.33 148.50 133.82 149.46 134.09 150.37 Z M 134.39 151.32 L 134.69 152.29 C 134.96 153.19 135.92 153.69 136.82 153.42 C 137.72 153.14 138.22 152.19 137.95 151.29 L 137.65 150.32 C 137.37 149.42 136.42 148.91 135.52 149.19 C 134.62 149.47 134.11 150.42 134.39 151.32 Z M 134.70 152.28 L 135.00 153.27 C 135.27 154.16 136.22 154.66 137.11 154.39 C 138.00 154.12 138.51 153.18 138.24 152.28 L 137.93 151.29 C 137.66 150.40 136.72 149.90 135.82 150.17 C 134.93 150.44 134.43 151.39 134.70 152.28 Z M 135.01 153.26 L 135.30 154.22 C 135.57 155.10 136.50 155.60 137.39 155.34 C 138.28 155.07 138.78 154.14 138.51 153.25 L 138.22 152.29 C 137.96 151.41 137.02 150.90 136.13 151.17 C 135.25 151.44 134.75 152.37 135.01 153.26 Z M 135.31 154.21 L 135.59 155.14 C 135.85 156.02 136.78 156.52 137.66 156.26 C 138.54 156.00 139.04 155.07 138.78 154.19 L 138.50 153.26 C 138.24 152.38 137.31 151.88 136.43 152.14 C 135.55 152.40 135.05 153.33 135.31 154.21 Z M 135.60 155.13 L 135.88 156.06 C 136.13 156.94 137.05 157.44 137.92 157.18 C 138.79 156.92 139.29 156.01 139.04 155.13 L 138.76 154.20 C 138.51 153.33 137.59 152.83 136.72 153.09 C 135.85 153.34 135.35 154.26 135.60 155.13 Z M 135.88 156.06 L 136.16 157.03 C 136.42 157.90 137.33 158.40 138.20 158.15 C 139.07 157.89 139.57 156.98 139.32 156.11 L 139.03 155.14 C 138.78 154.27 137.87 153.77 137.00 154.02 C 136.13 154.28 135.63 155.19 135.88 156.06 Z M 136.16 157.02 L 136.44 157.98 C 136.69 158.85 137.60 159.36 138.47 159.11 C 139.34 158.86 139.84 157.95 139.59 157.08 L 139.32 156.12 C 139.06 155.25 138.16 154.74 137.29 155.00 C 136.42 155.25 135.91 156.15 136.16 157.02 Z M 136.44 157.98 L 136.71 158.93 C 136.96 159.80 137.87 160.31 138.74 160.06 C 139.61 159.81 140.11 158.90 139.86 158.03 L 139.59 157.08 C 139.34 156.21 138.44 155.71 137.57 155.96 C 136.70 156.20 136.19 157.11 136.44 157.98 Z M 136.72 158.93 L 136.90 159.58 C 137.15 160.45 138.05 160.95 138.92 160.70 C 139.79 160.46 140.30 159.55 140.05 158.68 L 139.86 158.03 C 139.62 157.16 138.71 156.66 137.84 156.91 C 136.97 157.16 136.47 158.06 136.72 158.93 Z"
      fill="black"
      fill-rule="nonzero" /><path d="M 139.80 139.19 L 140.55 138.56 C 141.33 137.91 141.44 136.74 140.78 135.95 C 140.12 135.17 138.95 135.06 138.16 135.72 L 137.41 136.35 C 136.63 137.01 136.53 138.18 137.19 138.96 C 137.84 139.75 139.01 139.85 139.80 139.19 Z M 140.49 138.62 L 141.28 138.02 C 142.09 137.39 142.24 136.22 141.61 135.40 C 140.99 134.59 139.82 134.44 139.00 135.06 L 138.22 135.67 C 137.40 136.29 137.25 137.46 137.88 138.28 C 138.51 139.10 139.68 139.25 140.49 138.62 Z M 141.16 138.11 L 142.00 137.56 C 142.87 137.00 143.12 135.84 142.55 134.97 C 141.99 134.10 140.83 133.86 139.96 134.42 L 139.12 134.97 C 138.25 135.53 138.00 136.69 138.57 137.56 C 139.13 138.43 140.29 138.67 141.16 138.11 Z M 141.83 137.67 L 142.73 137.22 C 143.65 136.75 144.03 135.62 143.56 134.70 C 143.09 133.77 141.97 133.40 141.04 133.86 L 140.14 134.31 C 139.21 134.78 138.84 135.91 139.31 136.84 C 139.77 137.76 140.90 138.14 141.83 137.67 Z M 142.55 137.29 L 143.47 136.94 C 144.44 136.57 144.93 135.49 144.56 134.52 C 144.19 133.55 143.11 133.07 142.14 133.43 L 141.22 133.79 C 140.25 134.15 139.76 135.24 140.13 136.21 C 140.50 137.17 141.58 137.66 142.55 137.29 Z M 143.34 136.98 L 144.31 136.69 C 145.30 136.40 145.86 135.36 145.57 134.37 C 145.28 133.38 144.24 132.82 143.25 133.11 L 142.28 133.40 C 141.29 133.69 140.72 134.73 141.01 135.72 C 141.31 136.71 142.35 137.27 143.34 136.98 Z M 144.21 136.71 L 145.19 136.48 C 146.19 136.25 146.82 135.24 146.58 134.24 C 146.34 133.24 145.34 132.62 144.34 132.85 L 143.35 133.09 C 142.35 133.32 141.73 134.33 141.97 135.33 C 142.20 136.33 143.20 136.95 144.21 136.71 Z M 145.11 136.49 L 146.11 136.30 C 147.12 136.11 147.78 135.14 147.59 134.13 C 147.40 133.12 146.43 132.46 145.42 132.65 L 144.42 132.84 C 143.41 133.04 142.75 134.01 142.94 135.02 C 143.13 136.02 144.11 136.68 145.11 136.49 Z M 146.05 136.31 L 147.05 136.15 C 148.06 136.00 148.75 135.05 148.60 134.04 C 148.44 133.03 147.50 132.34 146.49 132.49 L 145.49 132.65 C 144.48 132.80 143.78 133.75 143.94 134.76 C 144.09 135.77 145.04 136.46 146.05 136.31 Z M 146.99 136.16 L 147.97 136.04 C 148.98 135.92 149.70 135.00 149.58 133.99 C 149.46 132.98 148.55 132.25 147.53 132.38 L 146.55 132.49 C 145.54 132.61 144.82 133.53 144.94 134.54 C 145.06 135.55 145.97 136.28 146.99 136.16 Z M 147.92 136.04 L 148.89 135.95 C 149.91 135.86 150.65 134.97 150.56 133.95 C 150.47 132.94 149.58 132.20 148.56 132.29 L 147.59 132.38 C 146.58 132.47 145.83 133.36 145.92 134.37 C 146.01 135.38 146.91 136.13 147.92 136.04 Z M 148.85 135.95 L 149.84 135.88 C 150.86 135.81 151.62 134.94 151.55 133.93 C 151.48 132.92 150.61 132.15 149.60 132.22 L 148.60 132.29 C 147.59 132.36 146.83 133.23 146.90 134.24 C 146.97 135.25 147.84 136.02 148.85 135.95 Z M 149.81 135.88 L 150.81 135.83 C 151.82 135.79 152.60 134.93 152.55 133.92 C 152.50 132.91 151.64 132.13 150.63 132.18 L 149.63 132.22 C 148.62 132.27 147.84 133.13 147.89 134.14 C 147.94 135.15 148.80 135.93 149.81 135.88 Z M 150.77 135.83 L 151.77 135.80 C 152.78 135.78 153.58 134.93 153.55 133.93 C 153.52 132.92 152.68 132.12 151.67 132.15 L 150.67 132.18 C 149.66 132.21 148.87 133.05 148.89 134.06 C 148.92 135.06 149.76 135.86 150.77 135.83 Z M 151.74 135.80 L 152.74 135.79 C 153.75 135.78 154.56 134.96 154.55 133.95 C 154.54 132.95 153.72 132.14 152.71 132.14 L 151.71 132.15 C 150.70 132.16 149.89 132.98 149.90 133.99 C 149.91 135.00 150.73 135.81 151.74 135.80 Z M 152.69 135.79 L 153.71 135.81 C 154.72 135.83 155.55 135.03 155.57 134.02 C 155.58 133.01 154.78 132.18 153.78 132.16 L 152.76 132.15 C 151.75 132.13 150.92 132.93 150.90 133.94 C 150.88 134.94 151.68 135.77 152.69 135.79 Z M 153.61 135.80 L 154.61 135.87 C 155.62 135.95 156.49 135.19 156.56 134.19 C 156.63 133.19 155.88 132.31 154.87 132.24 L 153.87 132.17 C 152.87 132.10 152.00 132.85 151.93 133.86 C 151.86 134.86 152.61 135.73 153.61 135.80 Z M 154.46 135.85 L 155.43 136.01 C 156.42 136.17 157.35 135.49 157.51 134.50 C 157.67 133.51 156.99 132.58 156.00 132.42 L 155.03 132.26 C 154.04 132.11 153.11 132.78 152.95 133.77 C 152.79 134.76 153.47 135.70 154.46 135.85 Z M 155.22 135.96 L 156.16 136.23 C 157.13 136.50 158.13 135.95 158.41 134.98 C 158.68 134.02 158.13 133.01 157.16 132.74 L 156.21 132.47 C 155.25 132.19 154.25 132.75 153.97 133.71 C 153.69 134.68 154.25 135.68 155.22 135.96 Z M 155.94 136.14 L 156.85 136.54 C 157.77 136.94 158.83 136.52 159.23 135.60 C 159.63 134.69 159.21 133.62 158.30 133.22 L 157.39 132.82 C 156.47 132.42 155.40 132.84 155.00 133.76 C 154.60 134.68 155.02 135.74 155.94 136.14 Z M 156.66 136.44 L 157.52 136.95 C 158.38 137.45 159.49 137.16 160.00 136.30 C 160.50 135.44 160.21 134.33 159.35 133.83 L 158.49 133.32 C 157.63 132.82 156.52 133.11 156.01 133.97 C 155.51 134.83 155.80 135.94 156.66 136.44 Z M 157.36 136.84 L 158.17 137.43 C 158.97 138.03 160.10 137.86 160.69 137.06 C 161.29 136.26 161.12 135.13 160.32 134.53 L 159.51 133.94 C 158.71 133.34 157.58 133.51 156.99 134.32 C 156.39 135.12 156.56 136.25 157.36 136.84 Z M 158.04 137.32 L 158.78 137.98 C 159.52 138.65 160.65 138.59 161.32 137.85 C 161.98 137.11 161.92 135.97 161.18 135.31 L 160.45 134.65 C 159.71 133.98 158.57 134.04 157.91 134.78 C 157.24 135.52 157.30 136.66 158.04 137.32 Z M 158.66 137.85 L 159.33 138.59 C 160.00 139.32 161.13 139.37 161.86 138.70 C 162.59 138.03 162.64 136.90 161.97 136.17 L 161.30 135.43 C 160.63 134.70 159.50 134.65 158.77 135.32 C 158.04 135.99 157.99 137.12 158.66 137.85 Z M 159.22 138.44 L 159.82 139.25 C 160.41 140.04 161.53 140.21 162.32 139.62 C 163.11 139.03 163.27 137.91 162.69 137.12 L 162.08 136.31 C 161.50 135.52 160.38 135.36 159.59 135.95 C 158.79 136.53 158.63 137.65 159.22 138.44 Z M 159.72 139.10 L 160.22 139.94 C 160.72 140.78 161.82 141.06 162.66 140.56 C 163.51 140.06 163.78 138.97 163.28 138.12 L 162.78 137.28 C 162.28 136.43 161.19 136.16 160.34 136.66 C 159.50 137.16 159.22 138.25 159.72 139.10 Z M 160.15 139.78 L 160.56 140.66 C 160.97 141.55 162.03 141.93 162.92 141.51 C 163.80 141.10 164.18 140.04 163.77 139.16 L 163.36 138.28 C 162.94 137.39 161.89 137.01 161.00 137.42 C 160.11 137.84 159.73 138.90 160.15 139.78 Z M 160.50 140.51 L 160.84 141.45 C 161.18 142.37 162.19 142.84 163.11 142.51 C 164.03 142.17 164.50 141.16 164.17 140.24 L 163.82 139.30 C 163.49 138.38 162.48 137.91 161.56 138.25 C 160.64 138.58 160.17 139.59 160.50 140.51 Z M 160.81 141.31 L 161.08 142.32 C 161.34 143.25 162.31 143.81 163.25 143.55 C 164.19 143.29 164.74 142.32 164.48 141.38 L 164.20 140.38 C 163.95 139.44 162.98 138.89 162.04 139.15 C 161.10 139.40 160.55 140.38 160.81 141.31 Z M 161.06 142.20 L 161.25 143.16 C 161.45 144.11 162.38 144.72 163.33 144.53 C 164.28 144.34 164.89 143.41 164.70 142.46 L 164.50 141.50 C 164.31 140.55 163.38 139.93 162.43 140.12 C 161.48 140.32 160.87 141.25 161.06 142.20 Z M 161.24 143.07 L 161.39 144.03 C 161.53 144.98 162.42 145.64 163.38 145.50 C 164.33 145.36 164.99 144.47 164.85 143.51 L 164.71 142.55 C 164.57 141.59 163.68 140.93 162.72 141.07 C 161.76 141.22 161.10 142.11 161.24 143.07 Z M 161.38 143.95 L 161.49 144.95 C 161.59 145.91 162.45 146.60 163.41 146.50 C 164.37 146.40 165.06 145.54 164.96 144.58 L 164.86 143.58 C 164.75 142.62 163.89 141.93 162.93 142.03 C 161.97 142.13 161.28 142.99 161.38 143.95 Z M 161.49 144.89 L 161.56 145.92 C 161.63 146.88 162.47 147.60 163.43 147.53 C 164.39 147.46 165.11 146.62 165.04 145.66 L 164.96 144.64 C 164.89 143.68 164.06 142.96 163.10 143.03 C 162.14 143.10 161.42 143.93 161.49 144.89 Z M 161.57 145.87 L 161.61 146.91 C 161.66 147.87 162.47 148.60 163.43 148.56 C 164.39 148.51 165.13 147.70 165.08 146.74 L 165.03 145.71 C 164.99 144.75 164.17 144.01 163.22 144.06 C 162.26 144.10 161.52 144.92 161.57 145.87 Z M 161.62 146.87 L 161.65 147.86 C 161.67 148.81 162.46 149.57 163.42 149.54 C 164.38 149.52 165.13 148.72 165.10 147.77 L 165.08 146.78 C 165.05 145.82 164.26 145.07 163.30 145.09 C 162.35 145.12 161.59 145.91 161.62 146.87 Z M 161.65 147.81 L 161.65 148.81 C 161.64 149.76 162.41 150.53 163.37 150.54 C 164.32 150.54 165.09 149.77 165.10 148.82 L 165.10 147.82 C 165.10 146.87 164.33 146.09 163.38 146.09 C 162.43 146.09 161.65 146.86 161.65 147.81 Z M 161.66 148.74 L 161.61 149.75 C 161.57 150.69 162.31 151.49 163.26 151.53 C 164.21 151.57 165.01 150.84 165.05 149.89 L 165.09 148.89 C 165.13 147.94 164.39 147.14 163.44 147.10 C 162.50 147.06 161.70 147.79 161.66 148.74 Z M 161.63 149.66 L 161.54 150.67 C 161.45 151.61 162.15 152.44 163.09 152.52 C 164.03 152.61 164.86 151.91 164.94 150.97 L 165.03 149.97 C 165.12 149.03 164.42 148.20 163.48 148.11 C 162.54 148.03 161.71 148.72 161.63 149.66 Z M 161.55 150.57 L 161.41 151.57 C 161.27 152.50 161.91 153.37 162.84 153.50 C 163.77 153.64 164.64 153.00 164.78 152.07 L 164.93 151.07 C 165.06 150.14 164.42 149.27 163.49 149.13 C 162.56 149.00 161.69 149.64 161.55 150.57 Z M 161.43 151.47 L 161.22 152.46 C 161.03 153.37 161.61 154.27 162.53 154.47 C 163.45 154.66 164.35 154.08 164.54 153.16 L 164.75 152.17 C 164.95 151.25 164.36 150.35 163.44 150.16 C 162.53 149.96 161.63 150.55 161.43 151.47 Z M 161.25 152.37 L 160.99 153.34 C 160.74 154.24 161.28 155.17 162.18 155.41 C 163.08 155.66 164.01 155.12 164.25 154.22 L 164.51 153.25 C 164.76 152.35 164.23 151.42 163.32 151.18 C 162.42 150.93 161.50 151.47 161.25 152.37 Z M 161.02 153.26 L 160.71 154.21 C 160.42 155.09 160.90 156.04 161.79 156.33 C 162.67 156.62 163.62 156.14 163.91 155.25 L 164.22 154.30 C 164.51 153.42 164.03 152.47 163.14 152.18 C 162.26 151.89 161.31 152.37 161.02 153.26 Z M 160.74 154.13 L 160.39 155.05 C 160.06 155.92 160.50 156.89 161.36 157.22 C 162.23 157.54 163.20 157.11 163.53 156.24 L 163.88 155.32 C 164.20 154.46 163.77 153.49 162.90 153.16 C 162.04 152.83 161.07 153.27 160.74 154.13 Z M 160.43 154.99 L 160.03 155.92 C 159.66 156.77 160.05 157.75 160.90 158.11 C 161.74 158.48 162.73 158.09 163.09 157.24 L 163.49 156.31 C 163.86 155.46 163.47 154.48 162.62 154.12 C 161.77 153.75 160.79 154.14 160.43 154.99 Z M 160.06 155.85 L 159.62 156.77 C 159.22 157.59 159.56 158.59 160.39 158.99 C 161.21 159.39 162.21 159.05 162.61 158.22 L 163.05 157.31 C 163.46 156.48 163.11 155.49 162.29 155.08 C 161.46 154.68 160.46 155.03 160.06 155.85 Z M 159.66 156.70 L 159.18 157.57 C 158.74 158.38 159.04 159.38 159.84 159.82 C 160.64 160.26 161.65 159.97 162.09 159.16 L 162.57 158.29 C 163.01 157.49 162.71 156.48 161.91 156.04 C 161.11 155.60 160.10 155.90 159.66 156.70 Z M 159.23 157.51 L 158.71 158.35 C 158.24 159.13 158.48 160.14 159.26 160.62 C 160.04 161.09 161.06 160.85 161.53 160.07 L 162.04 159.23 C 162.52 158.45 162.27 157.44 161.50 156.96 C 160.72 156.48 159.70 156.73 159.23 157.51 Z M 158.76 158.28 L 158.20 159.10 C 157.69 159.85 157.89 160.88 158.64 161.39 C 159.39 161.90 160.41 161.70 160.93 160.95 L 161.48 160.13 C 161.99 159.38 161.80 158.36 161.05 157.85 C 160.30 157.34 159.27 157.53 158.76 158.28 Z M 158.26 159.03 L 157.63 159.86 C 157.08 160.58 157.22 161.61 157.95 162.16 C 158.67 162.71 159.70 162.57 160.25 161.85 L 160.87 161.02 C 161.42 160.30 161.28 159.27 160.56 158.72 C 159.84 158.17 158.81 158.31 158.26 159.03 Z M 157.69 159.79 L 157.03 160.56 C 156.44 161.25 156.53 162.28 157.21 162.87 C 157.90 163.46 158.94 163.38 159.53 162.69 L 160.19 161.92 C 160.77 161.23 160.69 160.19 160.00 159.60 C 159.32 159.02 158.28 159.10 157.69 159.79 Z M 157.10 160.48 L 156.42 161.19 C 155.79 161.83 155.80 162.87 156.45 163.50 C 157.10 164.13 158.14 164.12 158.77 163.47 L 159.46 162.76 C 160.09 162.12 160.07 161.08 159.42 160.45 C 158.77 159.82 157.74 159.83 157.10 160.48 Z M 156.51 161.10 L 155.79 161.74 C 155.11 162.35 155.05 163.38 155.65 164.06 C 156.25 164.73 157.28 164.79 157.96 164.19 L 158.68 163.55 C 159.36 162.95 159.42 161.92 158.82 161.24 C 158.22 160.56 157.18 160.50 156.51 161.10 Z M 155.90 161.65 L 155.06 162.27 C 154.34 162.81 154.18 163.83 154.72 164.56 C 155.26 165.29 156.29 165.44 157.01 164.90 L 157.85 164.28 C 158.57 163.75 158.73 162.72 158.19 161.99 C 157.65 161.27 156.63 161.12 155.90 161.65 Z M 155.20 162.18 L 154.34 162.69 C 153.57 163.16 153.31 164.16 153.78 164.94 C 154.24 165.72 155.25 165.97 156.02 165.50 L 156.88 164.99 C 157.66 164.53 157.91 163.52 157.44 162.75 C 156.98 161.97 155.97 161.72 155.20 162.18 Z M 154.48 162.62 L 153.60 163.04 C 152.79 163.42 152.44 164.40 152.83 165.22 C 153.22 166.03 154.19 166.38 155.01 165.99 L 155.88 165.58 C 156.70 165.19 157.05 164.21 156.66 163.40 C 156.27 162.58 155.30 162.23 154.48 162.62 Z M 153.75 162.98 L 152.82 163.31 C 151.97 163.62 151.53 164.56 151.84 165.41 C 152.15 166.26 153.09 166.70 153.94 166.39 L 154.87 166.05 C 155.72 165.74 156.15 164.80 155.84 163.95 C 155.53 163.10 154.59 162.67 153.75 162.98 Z M 152.94 163.28 L 151.98 163.54 C 151.11 163.79 150.60 164.69 150.84 165.56 C 151.09 166.43 151.99 166.94 152.86 166.70 L 153.82 166.43 C 154.69 166.19 155.20 165.28 154.96 164.41 C 154.71 163.54 153.81 163.03 152.94 163.28 Z M 152.06 163.52 L 151.09 163.74 C 150.20 163.94 149.65 164.82 149.85 165.70 C 150.05 166.58 150.92 167.14 151.81 166.94 L 152.78 166.72 C 153.66 166.52 154.22 165.64 154.02 164.76 C 153.82 163.88 152.94 163.33 152.06 163.52 Z M 151.12 163.74 L 150.35 163.89 C 149.46 164.07 148.89 164.94 149.07 165.82 C 149.25 166.71 150.11 167.28 151.00 167.10 L 151.77 166.95 C 152.66 166.77 153.23 165.90 153.05 165.02 C 152.87 164.13 152.01 163.56 151.12 163.74 Z"
      fill="black"
      fill-rule="nonzero" /><path d="M 141.39 153.17 L 142.16 152.79 C 143.05 152.35 143.41 151.28 142.97 150.39 C 142.54 149.51 141.47 149.15 140.58 149.58 L 139.80 149.97 C 138.92 150.40 138.56 151.48 138.99 152.36 C 139.43 153.24 140.50 153.61 141.39 153.17 Z M 142.13 152.81 L 142.97 152.42 C 143.86 152.00 144.25 150.94 143.84 150.04 C 143.42 149.14 142.36 148.75 141.46 149.17 L 140.62 149.56 C 139.72 149.97 139.33 151.04 139.75 151.94 C 140.16 152.84 141.23 153.23 142.13 152.81 Z M 142.90 152.46 L 143.86 152.06 C 144.78 151.68 145.22 150.63 144.84 149.71 C 144.46 148.79 143.41 148.36 142.49 148.73 L 141.53 149.13 C 140.61 149.51 140.17 150.56 140.55 151.48 C 140.93 152.40 141.98 152.84 142.90 152.46 Z M 143.79 152.09 L 144.86 151.70 C 145.80 151.37 146.29 150.33 145.95 149.40 C 145.61 148.46 144.58 147.98 143.64 148.31 L 142.57 148.70 C 141.63 149.04 141.15 150.07 141.48 151.01 C 141.82 151.94 142.85 152.43 143.79 152.09 Z M 144.80 151.71 L 145.72 151.41 C 146.66 151.11 147.17 150.11 146.87 149.17 C 146.57 148.23 145.56 147.71 144.62 148.01 L 143.71 148.31 C 142.77 148.61 142.25 149.62 142.55 150.55 C 142.86 151.49 143.86 152.01 144.80 151.71 Z M 145.67 151.40 L 146.66 151.10 C 147.59 150.82 148.11 149.85 147.84 148.92 C 147.56 147.99 146.58 147.46 145.65 147.74 L 144.67 148.03 C 143.74 148.31 143.21 149.29 143.49 150.22 C 143.77 151.15 144.74 151.67 145.67 151.40 Z M 146.62 151.08 L 147.63 150.80 C 148.55 150.54 149.08 149.58 148.83 148.67 C 148.57 147.75 147.61 147.21 146.70 147.47 L 145.69 147.76 C 144.77 148.02 144.23 148.97 144.49 149.89 C 144.75 150.81 145.71 151.34 146.62 151.08 Z M 147.61 150.77 L 148.60 150.50 C 149.51 150.26 150.04 149.33 149.80 148.43 C 149.55 147.52 148.62 146.98 147.72 147.23 L 146.72 147.50 C 145.82 147.74 145.28 148.67 145.53 149.58 C 145.77 150.48 146.70 151.02 147.61 150.77 Z M 148.58 150.48 L 149.52 150.24 C 150.41 150.01 150.95 149.10 150.72 148.21 C 150.49 147.32 149.58 146.78 148.68 147.01 L 147.74 147.25 C 146.85 147.48 146.32 148.39 146.55 149.28 C 146.78 150.17 147.69 150.71 148.58 150.48 Z M 149.50 150.22 L 150.59 149.95 C 151.48 149.73 152.02 148.84 151.80 147.96 C 151.58 147.08 150.69 146.54 149.81 146.75 L 148.71 147.02 C 147.82 147.24 147.28 148.13 147.50 149.02 C 147.72 149.90 148.61 150.44 149.50 150.22 Z M 150.57 149.95 L 151.60 149.71 C 152.48 149.51 153.03 148.63 152.83 147.74 C 152.62 146.86 151.74 146.31 150.86 146.51 L 149.83 146.75 C 148.94 146.96 148.39 147.84 148.60 148.72 C 148.80 149.61 149.69 150.16 150.57 149.95 Z M 151.58 149.72 L 152.49 149.52 C 153.38 149.32 153.94 148.45 153.74 147.56 C 153.55 146.68 152.68 146.12 151.79 146.31 L 150.88 146.51 C 150.00 146.70 149.43 147.58 149.63 148.46 C 149.82 149.35 150.70 149.91 151.58 149.72 Z M 152.48 149.52 L 153.33 149.34 C 154.21 149.15 154.78 148.28 154.59 147.40 C 154.41 146.51 153.54 145.95 152.65 146.13 L 151.80 146.31 C 150.92 146.50 150.35 147.37 150.54 148.25 C 150.72 149.14 151.59 149.70 152.48 149.52 Z M 153.32 149.34 L 153.40 149.32 C 154.28 149.14 154.85 148.27 154.66 147.39 C 154.48 146.50 153.61 145.93 152.73 146.12 L 152.66 146.13 C 151.77 146.32 151.20 147.18 151.39 148.07 C 151.57 148.96 152.44 149.52 153.32 149.34 Z"
      fill="black"
      fill-rule="nonzero" /><path d="M 143.31 154.55 L 142.75 155.45 C 142.27 156.22 142.51 157.23 143.28 157.71 C 144.06 158.19 145.07 157.95 145.55 157.18 L 146.11 156.28 C 146.58 155.51 146.35 154.49 145.57 154.02 C 144.80 153.54 143.79 153.78 143.31 154.55 Z M 142.73 155.45 L 142.19 156.33 C 141.71 157.11 141.96 158.14 142.74 158.62 C 143.53 159.09 144.55 158.85 145.03 158.06 L 145.57 157.18 C 146.05 156.40 145.80 155.37 145.02 154.89 C 144.23 154.42 143.21 154.66 142.73 155.45 Z M 142.17 156.34 L 141.66 157.20 C 141.18 157.99 141.44 159.02 142.24 159.50 C 143.04 159.97 144.07 159.71 144.54 158.91 L 145.05 158.06 C 145.53 157.26 145.27 156.23 144.47 155.75 C 143.67 155.28 142.64 155.54 142.17 156.34 Z M 141.63 157.22 L 141.16 158.03 C 140.70 158.85 140.98 159.88 141.80 160.35 C 142.61 160.81 143.65 160.52 144.11 159.71 L 144.58 158.89 C 145.04 158.08 144.75 157.04 143.94 156.58 C 143.12 156.12 142.09 156.40 141.63 157.22 Z M 141.11 158.09 L 140.55 159.18 C 140.12 160.03 140.46 161.06 141.30 161.49 C 142.14 161.92 143.18 161.59 143.61 160.74 L 144.16 159.65 C 144.59 158.81 144.26 157.77 143.41 157.34 C 142.57 156.91 141.54 157.25 141.11 158.09 Z M 140.42 159.47 L 140.13 160.42 C 139.86 161.34 140.38 162.30 141.30 162.58 C 142.21 162.85 143.18 162.33 143.45 161.41 L 143.74 160.46 C 144.01 159.54 143.49 158.58 142.57 158.30 C 141.66 158.03 140.69 158.55 140.42 159.47 Z M 140.27 161.78 L 140.56 162.28 C 141.04 163.12 142.11 163.41 142.94 162.93 C 143.78 162.46 144.08 161.39 143.60 160.55 L 143.31 160.05 C 142.83 159.21 141.77 158.92 140.93 159.40 C 140.09 159.88 139.80 160.95 140.27 161.78 Z M 142.02 163.17 L 142.75 163.19 C 143.72 163.23 144.53 162.47 144.56 161.50 C 144.60 160.54 143.84 159.72 142.87 159.69 L 142.14 159.66 C 141.17 159.63 140.36 160.39 140.33 161.35 C 140.29 162.32 141.05 163.13 142.02 163.17 Z M 143.22 163.14 L 144.25 162.89 C 145.19 162.66 145.76 161.72 145.54 160.78 C 145.31 159.85 144.37 159.27 143.43 159.50 L 142.40 159.75 C 141.46 159.97 140.89 160.91 141.11 161.85 C 141.34 162.79 142.28 163.36 143.22 163.14 Z M 144.45 162.82 L 145.59 162.39 C 146.49 162.05 146.95 161.05 146.61 160.16 C 146.27 159.26 145.27 158.80 144.37 159.14 L 143.23 159.57 C 142.33 159.90 141.88 160.90 142.21 161.80 C 142.55 162.70 143.55 163.16 144.45 162.82 Z M 145.72 162.33 L 146.64 161.89 C 147.50 161.49 147.87 160.46 147.47 159.60 C 147.06 158.74 146.04 158.37 145.18 158.77 L 144.25 159.20 C 143.39 159.61 143.02 160.63 143.42 161.50 C 143.83 162.36 144.85 162.73 145.72 162.33 Z M 146.73 161.83 L 147.59 161.35 C 148.42 160.90 148.73 159.86 148.27 159.04 C 147.82 158.21 146.78 157.91 145.96 158.36 L 145.09 158.83 C 144.26 159.29 143.96 160.32 144.41 161.15 C 144.86 161.98 145.90 162.28 146.73 161.83 Z M 147.65 161.30 L 148.50 160.78 C 149.30 160.30 149.55 159.26 149.07 158.46 C 148.58 157.66 147.54 157.41 146.74 157.90 L 145.90 158.41 C 145.10 158.90 144.85 159.94 145.33 160.74 C 145.82 161.53 146.86 161.79 147.65 161.30 Z M 148.54 160.74 L 149.39 160.18 C 150.16 159.68 150.38 158.64 149.88 157.87 C 149.37 157.10 148.33 156.88 147.56 157.38 L 146.71 157.94 C 145.94 158.44 145.72 159.48 146.22 160.25 C 146.73 161.03 147.76 161.24 148.54 160.74 Z M 149.40 160.16 L 150.20 159.62 C 150.96 159.11 151.16 158.08 150.65 157.32 C 150.13 156.56 149.10 156.36 148.34 156.87 L 147.55 157.41 C 146.79 157.92 146.59 158.95 147.10 159.71 C 147.61 160.47 148.64 160.67 149.40 160.16 Z M 150.21 159.61 L 151.03 159.04 C 151.78 158.52 151.97 157.49 151.45 156.74 C 150.92 155.99 149.89 155.80 149.14 156.32 L 148.33 156.89 C 147.58 157.41 147.39 158.44 147.91 159.19 C 148.43 159.94 149.46 160.13 150.21 159.61 Z M 151.04 159.03 L 151.86 158.44 C 152.61 157.91 152.78 156.88 152.25 156.14 C 151.73 155.40 150.70 155.22 149.95 155.75 L 149.13 156.34 C 148.39 156.86 148.21 157.89 148.74 158.64 C 149.27 159.38 150.30 159.55 151.04 159.03 Z M 151.88 158.43 L 152.71 157.82 C 153.44 157.29 153.60 156.26 153.07 155.53 C 152.54 154.79 151.51 154.63 150.77 155.16 L 149.94 155.77 C 149.21 156.30 149.05 157.33 149.58 158.06 C 150.11 158.80 151.14 158.96 151.88 158.43 Z M 152.72 157.81 L 153.55 157.19 C 154.27 156.65 154.42 155.62 153.88 154.90 C 153.34 154.17 152.31 154.02 151.59 154.56 L 150.76 155.18 C 150.03 155.72 149.88 156.75 150.42 157.47 C 150.97 158.20 151.99 158.35 152.72 157.81 Z M 153.56 157.18 L 154.38 156.56 C 155.10 156.01 155.23 154.98 154.68 154.26 C 154.13 153.54 153.10 153.40 152.39 153.95 L 151.57 154.58 C 150.85 155.12 150.71 156.15 151.26 156.87 C 151.81 157.59 152.84 157.73 153.56 157.18 Z M 154.40 156.54 L 155.19 155.92 C 155.90 155.35 156.02 154.32 155.46 153.61 C 154.90 152.90 153.87 152.78 153.16 153.34 L 152.37 153.97 C 151.66 154.53 151.53 155.56 152.09 156.27 C 152.66 156.98 153.69 157.10 154.40 156.54 Z M 155.21 155.89 L 155.97 155.27 C 156.67 154.70 156.77 153.67 156.20 152.97 C 155.62 152.27 154.59 152.17 153.89 152.74 L 153.13 153.36 C 152.44 153.94 152.33 154.97 152.91 155.67 C 153.48 156.37 154.51 156.47 155.21 155.89 Z M 156.00 155.25 L 156.75 154.60 C 157.44 154.01 157.51 152.97 156.92 152.29 C 156.33 151.60 155.30 151.53 154.61 152.12 L 153.86 152.77 C 153.18 153.36 153.10 154.39 153.69 155.08 C 154.28 155.76 155.32 155.84 156.00 155.25 Z M 156.79 154.57 L 157.55 153.87 C 158.22 153.26 158.26 152.22 157.65 151.56 C 157.04 150.89 156.01 150.84 155.34 151.45 L 154.58 152.15 C 153.91 152.76 153.86 153.80 154.47 154.46 C 155.08 155.13 156.12 155.18 156.79 154.57 Z M 157.58 153.84 L 158.29 153.15 C 158.94 152.53 158.97 151.49 158.34 150.84 C 157.71 150.19 156.68 150.17 156.02 150.79 L 155.31 151.48 C 154.66 152.11 154.64 153.14 155.26 153.79 C 155.89 154.45 156.93 154.47 157.58 153.84 Z M 158.31 153.14 L 159.00 152.46 C 159.64 151.82 159.64 150.79 159.01 150.14 C 158.37 149.50 157.33 149.50 156.69 150.13 L 156.01 150.81 C 155.36 151.45 155.36 152.48 156.00 153.13 C 156.63 153.77 157.67 153.77 158.31 153.14 Z M 159.00 152.45 L 159.26 152.20 C 159.90 151.56 159.90 150.52 159.26 149.88 C 158.62 149.24 157.58 149.24 156.94 149.88 L 156.69 150.14 C 156.05 150.78 156.05 151.81 156.69 152.45 C 157.33 153.09 158.36 153.09 159.00 152.45 Z"
      fill="black"
      fill-rule="nonzero" /><path d="M 146.82 141.21 L 146.42 142.16 C 146.05 143.04 146.46 144.06 147.35 144.43 C 148.23 144.81 149.25 144.39 149.62 143.51 L 150.02 142.56 C 150.39 141.67 149.98 140.66 149.09 140.28 C 148.21 139.91 147.19 140.33 146.82 141.21 Z M 146.39 142.28 L 146.07 143.23 C 145.76 144.13 146.24 145.11 147.14 145.41 C 148.04 145.72 149.02 145.24 149.32 144.34 L 149.65 143.39 C 149.96 142.49 149.48 141.51 148.58 141.21 C 147.68 140.90 146.70 141.38 146.39 142.28 Z M 146.02 143.48 L 145.84 144.43 C 145.68 145.36 146.29 146.25 147.22 146.42 C 148.15 146.58 149.04 145.97 149.20 145.04 L 149.37 144.09 C 149.54 143.16 148.93 142.27 148.00 142.11 C 147.07 141.94 146.18 142.55 146.02 143.48 Z M 145.83 144.82 L 145.88 145.73 C 145.92 146.66 146.71 147.38 147.65 147.34 C 148.58 147.29 149.30 146.50 149.26 145.57 L 149.21 144.66 C 149.17 143.72 148.38 143.00 147.44 143.05 C 146.51 143.09 145.79 143.88 145.83 144.82 Z M 145.96 146.11 L 146.22 147.02 C 146.47 147.90 147.40 148.42 148.29 148.16 C 149.18 147.91 149.69 146.98 149.44 146.09 L 149.18 145.19 C 148.92 144.30 147.99 143.78 147.11 144.04 C 146.22 144.29 145.70 145.22 145.96 146.11 Z M 146.35 147.31 L 146.83 148.24 C 147.24 149.05 148.24 149.37 149.05 148.96 C 149.87 148.54 150.19 147.54 149.78 146.73 L 149.30 145.80 C 148.89 144.99 147.89 144.66 147.07 145.08 C 146.26 145.50 145.94 146.49 146.35 147.31 Z M 146.96 148.43 L 147.57 149.30 C 148.09 150.04 149.12 150.22 149.86 149.70 C 150.60 149.17 150.78 148.15 150.26 147.40 L 149.64 146.53 C 149.12 145.79 148.09 145.62 147.35 146.14 C 146.61 146.66 146.43 147.69 146.96 148.43 Z M 147.65 149.40 L 148.29 150.17 C 148.87 150.86 149.90 150.96 150.60 150.38 C 151.30 149.80 151.39 148.76 150.81 148.07 L 150.18 147.30 C 149.60 146.60 148.56 146.51 147.86 147.09 C 147.17 147.67 147.07 148.71 147.65 149.40 Z M 148.31 150.20 L 148.98 150.98 C 149.58 151.66 150.62 151.73 151.31 151.14 C 152.00 150.54 152.07 149.50 151.47 148.81 L 150.79 148.03 C 150.19 147.35 149.15 147.27 148.47 147.87 C 147.78 148.47 147.71 149.51 148.31 150.20 Z M 148.96 150.96 L 149.61 151.74 C 150.20 152.44 151.24 152.53 151.95 151.94 C 152.65 151.36 152.74 150.31 152.15 149.61 L 151.50 148.83 C 150.91 148.13 149.86 148.03 149.16 148.62 C 148.46 149.21 148.37 150.26 148.96 150.96 Z M 149.54 151.66 L 150.11 152.44 C 150.66 153.18 151.70 153.35 152.44 152.80 C 153.18 152.26 153.34 151.22 152.80 150.47 L 152.22 149.69 C 151.68 148.95 150.64 148.79 149.90 149.33 C 149.15 149.87 148.99 150.92 149.54 151.66 Z M 149.99 152.28 L 150.48 153.16 C 150.93 153.97 151.96 154.26 152.77 153.81 C 153.58 153.35 153.87 152.32 153.42 151.51 L 152.93 150.63 C 152.47 149.82 151.44 149.53 150.63 149.99 C 149.82 150.44 149.53 151.47 149.99 152.28 Z M 150.34 152.95 L 150.69 153.85 C 151.03 154.74 152.02 155.18 152.91 154.84 C 153.79 154.50 154.24 153.51 153.90 152.62 L 153.55 151.72 C 153.22 150.83 152.22 150.39 151.33 150.73 C 150.45 151.07 150.00 152.06 150.34 152.95 Z M 150.59 153.64 L 150.81 154.60 C 151.04 155.55 151.99 156.13 152.93 155.90 C 153.87 155.68 154.45 154.73 154.23 153.79 L 154.00 152.83 C 153.77 151.89 152.83 151.31 151.89 151.53 C 150.94 151.76 150.36 152.70 150.59 153.64 Z M 150.75 154.44 L 150.89 155.46 C 151.02 156.44 151.93 157.12 152.90 156.99 C 153.88 156.85 154.56 155.95 154.43 154.97 L 154.29 153.95 C 154.16 152.98 153.26 152.29 152.28 152.43 C 151.30 152.56 150.62 153.46 150.75 154.44 Z M 150.86 155.35 L 150.93 156.33 C 151.01 157.33 151.87 158.07 152.87 158.00 C 153.86 157.93 154.61 157.06 154.53 156.07 L 154.46 155.08 C 154.39 154.09 153.52 153.34 152.53 153.42 C 151.53 153.49 150.79 154.36 150.86 155.35 Z M 150.92 156.25 L 150.95 157.27 C 150.98 158.27 151.82 159.06 152.82 159.03 C 153.82 159.00 154.60 158.17 154.57 157.17 L 154.54 156.15 C 154.51 155.15 153.68 154.36 152.68 154.39 C 151.68 154.42 150.89 155.25 150.92 156.25 Z M 150.95 157.20 L 150.94 158.23 C 150.93 159.23 151.73 160.06 152.74 160.07 C 153.74 160.08 154.56 159.27 154.57 158.27 L 154.58 157.24 C 154.59 156.24 153.79 155.41 152.78 155.40 C 151.78 155.39 150.96 156.20 150.95 157.20 Z M 150.93 158.16 L 150.88 159.15 C 150.84 160.16 151.61 161.01 152.62 161.06 C 153.63 161.11 154.48 160.33 154.53 159.32 L 154.58 158.33 C 154.62 157.33 153.85 156.47 152.84 156.42 C 151.83 156.38 150.98 157.15 150.93 158.16 Z M 150.88 159.07 L 150.79 160.10 C 150.70 161.11 151.44 162.00 152.45 162.09 C 153.45 162.18 154.34 161.44 154.43 160.44 L 154.53 159.40 C 154.62 158.40 153.88 157.51 152.87 157.41 C 151.87 157.32 150.98 158.06 150.88 159.07 Z M 150.80 160.01 L 150.66 161.01 C 150.52 162.01 151.21 162.94 152.22 163.08 C 153.22 163.22 154.14 162.52 154.28 161.52 L 154.42 160.53 C 154.56 159.53 153.87 158.60 152.87 158.46 C 151.87 158.32 150.94 159.01 150.80 160.01 Z M 150.67 160.93 L 150.49 161.88 C 150.31 162.87 150.96 163.83 151.95 164.01 C 152.95 164.20 153.90 163.55 154.09 162.55 L 154.27 161.60 C 154.45 160.61 153.80 159.66 152.81 159.47 C 151.82 159.28 150.86 159.93 150.67 160.93 Z M 150.51 161.82 L 150.30 162.77 C 150.08 163.75 150.70 164.73 151.68 164.95 C 152.67 165.17 153.64 164.55 153.86 163.56 L 154.08 162.61 C 154.30 161.63 153.68 160.65 152.69 160.43 C 151.70 160.21 150.73 160.83 150.51 161.82 Z M 150.30 162.74 L 150.10 163.56 C 149.87 164.54 150.47 165.53 151.45 165.77 C 152.43 166.01 153.42 165.41 153.65 164.43 L 153.86 163.60 C 154.09 162.62 153.49 161.63 152.51 161.39 C 151.53 161.15 150.54 161.76 150.30 162.74 Z M 150.11 163.54 L 149.89 164.41 C 149.63 165.39 150.22 166.38 151.20 166.64 C 152.17 166.89 153.17 166.30 153.42 165.33 L 153.65 164.45 C 153.90 163.47 153.31 162.48 152.34 162.23 C 151.36 161.97 150.36 162.56 150.11 163.54 Z M 149.89 164.39 L 149.63 165.35 C 149.37 166.32 149.94 167.32 150.91 167.59 C 151.88 167.85 152.89 167.28 153.15 166.31 L 153.41 165.35 C 153.68 164.38 153.10 163.37 152.13 163.11 C 151.16 162.84 150.16 163.42 149.89 164.39 Z M 149.64 165.33 L 149.33 166.40 C 149.06 167.36 149.62 168.37 150.59 168.65 C 151.55 168.93 152.56 168.36 152.84 167.40 L 153.14 166.33 C 153.42 165.36 152.86 164.35 151.89 164.08 C 150.92 163.80 149.92 164.36 149.64 165.33 Z M 149.34 166.38 L 149.03 167.42 C 148.75 168.38 149.30 169.39 150.26 169.68 C 151.23 169.96 152.24 169.41 152.53 168.45 L 152.83 167.41 C 153.12 166.45 152.57 165.44 151.60 165.15 C 150.64 164.87 149.63 165.42 149.34 166.38 Z M 149.04 167.41 L 148.78 168.26 C 148.49 169.22 149.03 170.24 149.99 170.53 C 150.95 170.82 151.97 170.28 152.26 169.32 L 152.52 168.46 C 152.81 167.50 152.27 166.48 151.31 166.19 C 150.35 165.90 149.33 166.44 149.04 167.41 Z M 148.79 168.25 L 148.50 169.16 C 148.21 170.11 148.74 171.13 149.70 171.43 C 150.66 171.73 151.68 171.19 151.97 170.23 L 152.26 169.33 C 152.55 168.37 152.02 167.35 151.06 167.05 C 150.10 166.76 149.08 167.29 148.79 168.25 Z M 148.51 169.14 L 148.21 170.09 C 147.90 171.05 148.43 172.07 149.38 172.37 C 150.34 172.68 151.36 172.15 151.67 171.20 L 151.97 170.25 C 152.27 169.29 151.75 168.27 150.79 167.97 C 149.84 167.66 148.81 168.19 148.51 169.14 Z M 148.21 170.08 L 147.89 171.06 C 147.58 172.01 148.10 173.04 149.05 173.35 C 150.00 173.66 151.02 173.14 151.34 172.19 L 151.66 171.21 C 151.97 170.26 151.45 169.23 150.50 168.92 C 149.55 168.61 148.53 169.13 148.21 170.08 Z M 147.90 171.05 L 147.56 172.05 C 147.24 173.00 147.75 174.02 148.69 174.35 C 149.64 174.67 150.67 174.16 150.99 173.21 L 151.33 172.21 C 151.65 171.26 151.14 170.23 150.19 169.91 C 149.25 169.59 148.22 170.10 147.90 171.05 Z M 147.57 172.03 L 147.21 173.05 C 146.88 173.99 147.38 175.02 148.32 175.35 C 149.26 175.68 150.30 175.19 150.63 174.24 L 150.98 173.23 C 151.31 172.28 150.82 171.25 149.87 170.92 C 148.93 170.59 147.90 171.09 147.57 172.03 Z M 147.22 173.03 L 146.85 174.04 C 146.51 174.98 147.00 176.01 147.94 176.35 C 148.87 176.69 149.91 176.21 150.25 175.27 L 150.62 174.26 C 150.96 173.33 150.47 172.29 149.54 171.95 C 148.60 171.61 147.56 172.09 147.22 173.03 Z M 146.87 174.02 L 146.49 175.00 C 146.14 175.94 146.61 176.98 147.55 177.33 C 148.48 177.68 149.52 177.21 149.87 176.28 L 150.24 175.29 C 150.59 174.36 150.12 173.32 149.19 172.97 C 148.26 172.62 147.22 173.09 146.87 174.02 Z M 146.50 174.99 L 146.13 175.96 C 145.77 176.89 146.22 177.93 147.15 178.29 C 148.07 178.65 149.12 178.19 149.48 177.27 L 149.86 176.29 C 150.22 175.37 149.76 174.32 148.83 173.96 C 147.91 173.60 146.87 174.06 146.50 174.99 Z M 146.14 175.95 L 145.75 176.90 C 145.38 177.82 145.83 178.86 146.75 179.23 C 147.67 179.60 148.71 179.16 149.08 178.24 L 149.47 177.28 C 149.84 176.36 149.39 175.32 148.47 174.95 C 147.55 174.58 146.51 175.03 146.14 175.95 Z M 145.76 176.89 L 145.38 177.82 C 145.00 178.73 145.44 179.78 146.35 180.15 C 147.27 180.53 148.31 180.10 148.69 179.18 L 149.07 178.25 C 149.45 177.34 149.01 176.29 148.10 175.91 C 147.19 175.54 146.14 175.97 145.76 176.89 Z M 145.39 177.80 L 145.01 178.70 C 144.63 179.61 145.05 180.66 145.96 181.04 C 146.87 181.43 147.91 181.00 148.30 180.09 L 148.68 179.20 C 149.06 178.29 148.64 177.24 147.73 176.86 C 146.82 176.47 145.78 176.90 145.39 177.80 Z M 145.02 178.69 L 144.65 179.55 C 144.25 180.45 144.67 181.50 145.57 181.89 C 146.47 182.28 147.52 181.87 147.91 180.97 L 148.29 180.11 C 148.68 179.21 148.27 178.16 147.36 177.77 C 146.46 177.37 145.41 177.79 145.02 178.69 Z M 144.66 179.54 L 144.28 180.39 C 143.88 181.29 144.28 182.34 145.17 182.74 C 146.07 183.14 147.12 182.74 147.52 181.84 L 147.90 180.98 C 148.30 180.09 147.90 179.04 147.00 178.64 C 146.11 178.24 145.06 178.64 144.66 179.54 Z M 144.29 180.38 L 143.87 181.30 C 143.46 182.19 143.85 183.24 144.74 183.64 C 145.63 184.05 146.68 183.66 147.09 182.77 L 147.51 181.85 C 147.91 180.97 147.52 179.92 146.63 179.51 C 145.75 179.10 144.70 179.49 144.29 180.38 Z M 143.88 181.28 L 143.47 182.16 C 143.05 183.04 143.43 184.09 144.31 184.51 C 145.19 184.92 146.24 184.55 146.66 183.67 L 147.07 182.79 C 147.49 181.91 147.11 180.86 146.23 180.44 C 145.35 180.03 144.30 180.40 143.88 181.28 Z M 143.48 182.15 L 143.06 183.01 C 142.64 183.88 143.01 184.93 143.88 185.36 C 144.75 185.78 145.80 185.42 146.22 184.54 L 146.64 183.68 C 147.06 182.81 146.70 181.76 145.83 181.33 C 144.95 180.91 143.90 181.28 143.48 182.15 Z M 143.08 183.00 L 142.64 183.88 C 142.22 184.74 142.57 185.79 143.44 186.22 C 144.30 186.65 145.35 186.29 145.78 185.43 L 146.21 184.55 C 146.64 183.69 146.28 182.64 145.42 182.21 C 144.55 181.78 143.50 182.14 143.08 183.00 Z M 142.65 183.87 L 142.20 184.78 C 141.77 185.64 142.12 186.69 142.97 187.12 C 143.83 187.55 144.88 187.20 145.31 186.34 L 145.77 185.43 C 146.20 184.57 145.85 183.53 144.99 183.10 C 144.13 182.66 143.09 183.01 142.65 183.87 Z M 142.21 184.78 L 141.73 185.72 C 141.30 186.57 141.65 187.61 142.50 188.05 C 143.36 188.48 144.40 188.13 144.83 187.28 L 145.30 186.34 C 145.74 185.49 145.39 184.44 144.54 184.01 C 143.68 183.58 142.64 183.92 142.21 184.78 Z M 141.74 185.72 L 141.28 186.62 C 140.85 187.48 141.19 188.52 142.04 188.95 C 142.90 189.38 143.93 189.04 144.37 188.18 L 144.82 187.28 C 145.26 186.43 144.91 185.39 144.06 184.96 C 143.21 184.53 142.17 184.87 141.74 185.72 Z M 141.29 186.63 L 140.81 187.56 C 140.38 188.41 140.72 189.45 141.57 189.88 C 142.42 190.31 143.46 189.97 143.89 189.12 L 144.36 188.18 C 144.79 187.33 144.45 186.30 143.60 185.87 C 142.75 185.44 141.72 185.78 141.29 186.63 Z M 140.82 187.57 L 140.34 188.51 C 139.91 189.36 140.25 190.39 141.10 190.82 C 141.95 191.25 142.98 190.91 143.40 190.06 L 143.88 189.11 C 144.31 188.27 143.97 187.24 143.12 186.81 C 142.28 186.38 141.24 186.72 140.82 187.57 Z M 140.34 188.52 L 139.88 189.45 C 139.45 190.29 139.79 191.32 140.64 191.74 C 141.48 192.17 142.51 191.83 142.93 190.98 L 143.40 190.05 C 143.82 189.21 143.48 188.18 142.64 187.76 C 141.80 187.33 140.77 187.67 140.34 188.52 Z M 139.88 189.45 L 139.44 190.34 C 139.02 191.19 139.36 192.21 140.20 192.63 C 141.04 193.05 142.07 192.71 142.49 191.87 L 142.93 190.98 C 143.35 190.13 143.01 189.11 142.17 188.69 C 141.33 188.27 140.30 188.61 139.88 189.45 Z M 139.44 190.35 L 139.03 191.18 C 138.61 192.02 138.96 193.04 139.80 193.46 C 140.64 193.87 141.66 193.53 142.07 192.69 L 142.48 191.86 C 142.90 191.02 142.55 190.00 141.71 189.58 C 140.87 189.17 139.85 189.51 139.44 190.35 Z M 139.03 191.20 L 138.55 192.18 C 138.15 193.02 138.50 194.03 139.34 194.44 C 140.18 194.85 141.19 194.50 141.60 193.66 L 142.07 192.67 C 142.48 191.83 142.13 190.82 141.29 190.41 C 140.45 190.00 139.44 190.36 139.03 191.20 Z M 138.55 192.20 L 138.06 193.25 C 137.67 194.09 138.03 195.09 138.87 195.48 C 139.71 195.88 140.71 195.52 141.10 194.68 L 141.59 193.63 C 141.99 192.79 141.63 191.79 140.79 191.40 C 139.95 191.00 138.95 191.36 138.55 192.20 Z M 138.06 193.28 L 137.68 194.14 C 137.30 194.98 137.67 195.97 138.51 196.34 C 139.35 196.72 140.34 196.35 140.71 195.51 L 141.10 194.65 C 141.48 193.81 141.11 192.82 140.27 192.44 C 139.43 192.07 138.44 192.44 138.06 193.28 Z M 137.68 194.17 L 137.35 194.92 C 136.99 195.75 137.37 196.73 138.21 197.09 C 139.05 197.45 140.02 197.07 140.38 196.23 L 140.71 195.48 C 141.07 194.65 140.69 193.67 139.85 193.31 C 139.02 192.95 138.04 193.33 137.68 194.17 Z M 137.36 194.93 L 137.23 195.23 C 136.87 196.06 137.26 197.03 138.09 197.39 C 138.93 197.74 139.89 197.36 140.25 196.52 L 140.38 196.22 C 140.74 195.39 140.35 194.42 139.52 194.07 C 138.68 193.71 137.72 194.09 137.36 194.93 Z"
      fill="black"
      fill-rule="nonzero" /><path d="M 151.34 173.00 L 152.41 172.92 C 153.40 172.84 154.15 171.98 154.07 170.99 C 154.00 169.99 153.13 169.25 152.14 169.32 L 151.07 169.40 C 150.08 169.48 149.33 170.34 149.41 171.34 C 149.48 172.33 150.35 173.07 151.34 173.00 Z M 152.39 172.94 L 153.44 172.87 C 154.45 172.81 155.21 171.94 155.14 170.93 C 155.08 169.93 154.21 169.17 153.20 169.23 L 152.15 169.30 C 151.15 169.37 150.39 170.24 150.45 171.24 C 150.52 172.25 151.39 173.01 152.39 172.94 Z M 153.41 172.90 L 154.42 172.85 C 155.44 172.81 156.22 171.94 156.18 170.93 C 156.13 169.91 155.27 169.12 154.25 169.16 L 153.24 169.21 C 152.22 169.25 151.43 170.12 151.48 171.14 C 151.53 172.15 152.39 172.94 153.41 172.90 Z M 154.35 172.87 L 155.31 172.87 C 156.34 172.85 157.17 172.01 157.16 170.98 C 157.15 169.95 156.30 169.12 155.27 169.13 L 154.32 169.14 C 153.29 169.15 152.46 170.00 152.47 171.03 C 152.48 172.06 153.32 172.89 154.35 172.87 Z M 155.21 172.88 L 156.13 172.92 C 157.17 172.97 158.05 172.16 158.10 171.12 C 158.14 170.08 157.34 169.20 156.29 169.15 L 155.37 169.11 C 154.33 169.07 153.45 169.87 153.40 170.91 C 153.36 171.96 154.17 172.84 155.21 172.88 Z M 155.96 172.93 L 156.97 173.06 C 158.01 173.20 158.96 172.46 159.10 171.42 C 159.24 170.38 158.51 169.42 157.46 169.28 L 156.46 169.15 C 155.42 169.01 154.46 169.75 154.32 170.79 C 154.19 171.83 154.92 172.79 155.96 172.93 Z M 156.77 173.03 L 157.70 173.26 C 158.73 173.51 159.76 172.87 160.01 171.85 C 160.26 170.82 159.63 169.78 158.60 169.54 L 157.66 169.31 C 156.64 169.06 155.60 169.69 155.35 170.72 C 155.11 171.75 155.74 172.78 156.77 173.03 Z M 157.53 173.22 L 158.45 173.54 C 159.46 173.88 160.56 173.34 160.90 172.34 C 161.24 171.33 160.71 170.24 159.70 169.89 L 158.77 169.57 C 157.77 169.23 156.67 169.77 156.33 170.77 C 155.98 171.78 156.52 172.87 157.53 173.22 Z M 158.34 173.50 L 159.24 173.87 C 160.23 174.28 161.36 173.81 161.77 172.82 C 162.17 171.83 161.70 170.70 160.71 170.29 L 159.82 169.92 C 158.83 169.52 157.70 169.99 157.29 170.98 C 156.88 171.97 157.35 173.10 158.34 173.50 Z M 159.18 173.85 L 160.00 174.22 C 160.97 174.67 162.12 174.23 162.56 173.26 C 163.01 172.28 162.57 171.13 161.60 170.69 L 160.78 170.32 C 159.80 169.87 158.65 170.31 158.21 171.28 C 157.77 172.26 158.20 173.41 159.18 173.85 Z M 159.95 174.20 L 160.82 174.63 C 161.79 175.09 162.95 174.69 163.42 173.72 C 163.88 172.76 163.48 171.59 162.51 171.13 L 161.64 170.71 C 160.67 170.24 159.51 170.64 159.05 171.61 C 158.58 172.58 158.98 173.74 159.95 174.20 Z M 160.79 174.61 L 161.71 175.08 C 162.66 175.57 163.83 175.18 164.32 174.23 C 164.81 173.27 164.43 172.10 163.47 171.61 L 162.55 171.14 C 161.59 170.66 160.42 171.04 159.94 171.99 C 159.45 172.95 159.83 174.12 160.79 174.61 Z M 161.67 175.06 L 162.63 175.58 C 163.58 176.08 164.76 175.72 165.27 174.77 C 165.77 173.82 165.41 172.64 164.46 172.14 L 163.50 171.63 C 162.55 171.12 161.38 171.48 160.87 172.43 C 160.37 173.38 160.72 174.56 161.67 175.06 Z M 162.61 175.56 L 163.55 176.08 C 164.49 176.60 165.67 176.26 166.19 175.32 C 166.72 174.38 166.37 173.19 165.43 172.67 L 164.49 172.15 C 163.55 171.63 162.37 171.97 161.85 172.91 C 161.32 173.86 161.67 175.04 162.61 175.56 Z M 163.53 176.07 L 164.42 176.58 C 165.36 177.11 166.55 176.79 167.08 175.85 C 167.61 174.92 167.29 173.73 166.35 173.20 L 165.45 172.68 C 164.52 172.15 163.33 172.48 162.80 173.41 C 162.26 174.35 162.59 175.54 163.53 176.07 Z M 164.41 176.57 L 165.30 177.09 C 166.23 177.64 167.42 177.32 167.97 176.39 C 168.51 175.46 168.19 174.27 167.27 173.73 L 166.37 173.21 C 165.44 172.66 164.25 172.98 163.70 173.91 C 163.16 174.84 163.48 176.03 164.41 176.57 Z M 165.29 177.09 L 166.17 177.61 C 167.09 178.16 168.29 177.86 168.84 176.93 C 169.39 176.01 169.08 174.81 168.16 174.26 L 167.28 173.74 C 166.35 173.19 165.16 173.49 164.61 174.42 C 164.06 175.34 164.36 176.54 165.29 177.09 Z M 166.15 177.60 L 167.00 178.11 C 167.92 178.67 169.12 178.37 169.67 177.45 C 170.23 176.53 169.93 175.33 169.01 174.78 L 168.17 174.27 C 167.25 173.71 166.05 174.00 165.49 174.93 C 164.94 175.85 165.23 177.04 166.15 177.60 Z M 166.99 178.10 L 167.77 178.59 C 168.69 179.15 169.89 178.87 170.46 177.95 C 171.02 177.03 170.73 175.83 169.81 175.27 L 169.02 174.78 C 168.11 174.22 166.91 174.51 166.34 175.42 C 165.78 176.34 166.07 177.54 166.99 178.10 Z M 167.76 178.58 L 168.71 179.17 C 169.62 179.74 170.82 179.46 171.39 178.55 C 171.96 177.64 171.68 176.44 170.77 175.87 L 169.83 175.28 C 168.91 174.71 167.71 174.99 167.14 175.90 C 166.57 176.81 166.85 178.01 167.76 178.58 Z M 168.70 179.16 L 169.57 179.71 C 170.47 180.29 171.67 180.02 172.25 179.12 C 172.83 178.21 172.56 177.01 171.65 176.44 L 170.79 175.88 C 169.88 175.30 168.68 175.57 168.10 176.48 C 167.53 177.38 167.79 178.58 168.70 179.16 Z M 169.55 179.70 L 170.35 180.22 C 171.24 180.80 172.44 180.55 173.03 179.65 C 173.61 178.76 173.36 177.55 172.46 176.97 L 171.67 176.45 C 170.77 175.86 169.57 176.12 168.99 177.01 C 168.40 177.91 168.65 179.11 169.55 179.70 Z M 170.33 180.20 L 171.09 180.71 C 171.98 181.30 173.18 181.06 173.77 180.17 C 174.37 179.28 174.12 178.08 173.24 177.49 L 172.48 176.98 C 171.59 176.39 170.39 176.63 169.80 177.52 C 169.20 178.41 169.44 179.61 170.33 180.20 Z M 171.08 180.69 L 171.88 181.23 C 172.76 181.83 173.96 181.60 174.56 180.72 C 175.15 179.84 174.92 178.64 174.04 178.04 L 173.24 177.50 C 172.36 176.90 171.16 177.13 170.57 178.02 C 169.97 178.90 170.20 180.10 171.08 180.69 Z M 171.87 181.22 L 172.69 181.78 C 173.56 182.38 174.75 182.15 175.35 181.28 C 175.95 180.41 175.73 179.21 174.86 178.61 L 174.05 178.06 C 173.17 177.46 171.98 177.68 171.38 178.55 C 170.78 179.42 171.00 180.62 171.87 181.22 Z M 172.69 181.76 L 173.51 182.34 C 174.38 182.94 175.57 182.72 176.17 181.85 C 176.77 180.99 176.55 179.80 175.68 179.20 L 174.86 178.63 C 173.99 178.03 172.80 178.24 172.20 179.11 C 171.60 179.98 171.82 181.16 172.69 181.76 Z M 173.52 182.33 L 174.36 182.91 C 175.22 183.51 176.41 183.30 177.00 182.44 C 177.60 181.57 177.39 180.39 176.53 179.79 L 175.68 179.21 C 174.82 178.61 173.64 178.82 173.04 179.69 C 172.44 180.55 172.66 181.73 173.52 182.33 Z M 174.37 182.90 L 175.20 183.48 C 176.05 184.07 177.23 183.86 177.82 183.00 C 178.42 182.15 178.20 180.97 177.35 180.38 L 176.52 179.80 C 175.66 179.21 174.49 179.42 173.90 180.28 C 173.30 181.13 173.51 182.31 174.37 182.90 Z M 175.20 183.47 L 176.04 184.05 C 176.89 184.64 178.05 184.43 178.64 183.58 C 179.23 182.73 179.03 181.57 178.18 180.97 L 177.34 180.39 C 176.50 179.80 175.33 180.01 174.74 180.86 C 174.15 181.71 174.35 182.87 175.20 183.47 Z M 176.04 184.03 L 176.86 184.61 C 177.70 185.20 178.86 185.00 179.45 184.16 C 180.04 183.32 179.84 182.16 179.00 181.57 L 178.18 180.99 C 177.34 180.40 176.18 180.60 175.59 181.44 C 175.00 182.28 175.20 183.44 176.04 184.03 Z M 176.86 184.59 L 177.65 185.16 C 178.48 185.75 179.64 185.56 180.23 184.72 C 180.82 183.89 180.63 182.74 179.80 182.15 L 179.00 181.58 C 178.17 180.99 177.02 181.19 176.43 182.02 C 175.83 182.85 176.03 184.00 176.86 184.59 Z M 177.65 185.14 L 178.50 185.76 C 179.32 186.35 180.46 186.17 181.06 185.35 C 181.65 184.53 181.47 183.39 180.65 182.79 L 179.80 182.17 C 178.98 181.58 177.84 181.76 177.24 182.58 C 176.65 183.40 176.83 184.54 177.65 185.14 Z M 178.49 185.73 L 179.29 186.33 C 180.10 186.93 181.24 186.76 181.84 185.95 C 182.44 185.15 182.27 184.01 181.46 183.41 L 180.66 182.81 C 179.85 182.21 178.71 182.38 178.11 183.19 C 177.51 183.99 177.68 185.13 178.49 185.73 Z M 179.28 186.31 L 180.05 186.89 C 180.85 187.50 181.98 187.34 182.59 186.54 C 183.19 185.75 183.03 184.61 182.24 184.01 L 181.47 183.43 C 180.67 182.82 179.54 182.98 178.93 183.77 C 178.33 184.57 178.49 185.71 179.28 186.31 Z M 180.04 186.87 L 180.77 187.44 C 181.56 188.04 182.69 187.90 183.30 187.11 C 183.90 186.32 183.76 185.19 182.97 184.59 L 182.24 184.02 C 181.45 183.42 180.32 183.56 179.72 184.35 C 179.11 185.14 179.26 186.27 180.04 186.87 Z M 180.77 187.42 L 181.50 187.99 C 182.27 188.60 183.40 188.47 184.01 187.69 C 184.62 186.91 184.49 185.79 183.71 185.18 L 182.98 184.60 C 182.20 183.99 181.07 184.13 180.46 184.91 C 179.85 185.68 179.99 186.81 180.77 187.42 Z M 181.49 187.98 L 182.27 188.60 C 183.04 189.22 184.16 189.09 184.78 188.33 C 185.39 187.56 185.27 186.44 184.50 185.82 L 183.72 185.19 C 182.95 184.58 181.83 184.70 181.21 185.47 C 180.60 186.24 180.72 187.36 181.49 187.98 Z M 182.26 188.59 L 183.14 189.30 C 183.89 189.92 185.01 189.81 185.63 189.05 C 186.25 188.29 186.14 187.17 185.38 186.55 L 184.51 185.84 C 183.75 185.22 182.63 185.33 182.01 186.09 C 181.39 186.85 181.50 187.97 182.26 188.59 Z M 183.13 189.28 L 183.79 189.84 C 184.54 190.46 185.66 190.36 186.28 189.61 C 186.90 188.85 186.80 187.74 186.05 187.11 L 185.39 186.56 C 184.64 185.94 183.52 186.04 182.90 186.79 C 182.27 187.55 182.38 188.66 183.13 189.28 Z M 183.78 189.82 L 184.49 190.42 C 185.23 191.06 186.34 190.97 186.98 190.23 C 187.61 189.48 187.52 188.37 186.78 187.74 L 186.07 187.13 C 185.32 186.50 184.21 186.59 183.58 187.33 C 182.94 188.07 183.03 189.19 183.78 189.82 Z M 184.46 190.40 L 185.21 191.06 C 185.94 191.71 187.06 191.64 187.70 190.91 C 188.35 190.18 188.28 189.07 187.55 188.42 L 186.80 187.76 C 186.07 187.12 184.96 187.18 184.31 187.91 C 183.67 188.64 183.74 189.76 184.46 190.40 Z M 185.19 191.03 L 185.96 191.75 C 186.67 192.41 187.79 192.37 188.45 191.66 C 189.11 190.94 189.06 189.83 188.35 189.17 L 187.58 188.45 C 186.86 187.79 185.75 187.83 185.09 188.55 C 184.43 189.26 184.47 190.37 185.19 191.03 Z M 185.93 191.72 L 186.72 192.49 C 187.41 193.17 188.52 193.16 189.20 192.46 C 189.88 191.77 189.87 190.66 189.18 189.98 L 188.39 189.21 C 187.69 188.53 186.58 188.54 185.90 189.23 C 185.22 189.93 185.23 191.04 185.93 191.72 Z M 186.69 192.45 L 187.39 193.18 C 188.06 193.87 189.16 193.89 189.86 193.22 C 190.56 192.55 190.58 191.44 189.91 190.75 L 189.21 190.02 C 188.54 189.32 187.43 189.30 186.73 189.97 C 186.04 190.64 186.02 191.75 186.69 192.45 Z M 187.37 193.13 L 188.02 193.85 C 188.67 194.56 189.76 194.60 190.47 193.96 C 191.18 193.31 191.23 192.21 190.58 191.50 L 189.93 190.79 C 189.28 190.08 188.18 190.03 187.47 190.68 C 186.77 191.33 186.72 192.43 187.37 193.13 Z M 188.01 193.81 L 188.66 194.56 C 189.29 195.27 190.38 195.34 191.09 194.71 C 191.80 194.08 191.87 192.99 191.25 192.28 L 190.59 191.54 C 189.96 190.83 188.88 190.76 188.16 191.38 C 187.45 192.01 187.38 193.10 188.01 193.81 Z M 188.66 194.53 L 189.31 195.29 C 189.92 196.01 191.00 196.09 191.72 195.48 C 192.43 194.87 192.52 193.79 191.90 193.07 L 191.25 192.31 C 190.64 191.59 189.56 191.51 188.85 192.12 C 188.13 192.73 188.05 193.81 188.66 194.53 Z M 189.31 195.27 L 189.97 196.05 C 190.56 196.77 191.63 196.86 192.35 196.26 C 193.06 195.66 193.16 194.60 192.56 193.88 L 191.90 193.10 C 191.30 192.38 190.24 192.29 189.52 192.89 C 188.81 193.49 188.71 194.55 189.31 195.27 Z M 189.97 196.03 L 190.62 196.82 C 191.21 197.54 192.27 197.64 192.98 197.05 C 193.70 196.46 193.80 195.40 193.21 194.69 L 192.55 193.90 C 191.96 193.18 190.91 193.08 190.19 193.67 C 189.48 194.26 189.38 195.32 189.97 196.03 Z M 190.63 196.81 L 191.17 197.46 C 191.75 198.17 192.80 198.27 193.50 197.69 C 194.21 197.11 194.32 196.06 193.73 195.35 L 193.20 194.70 C 192.62 193.99 191.57 193.89 190.86 194.47 C 190.15 195.05 190.05 196.10 190.63 196.81 Z"
      fill="black"
      fill-rule="nonzero" /></svg>