<svg xmlns="http://www.w3.org/2000/svg" width="300" height="300" viewBox="0 0 300 300">
<path d="M 149.11 112.30 L 148.97 113.27 C 148.83 114.30 149.55 115.25 150.58 115.40 C 151.61 115.55 152.56 114.83 152.71 113.79 L 152.84 112.83 C 152.99 111.80 152.27 110.84 151.24 110.70 C 150.21 110.55 149.25 111.27 149.11 112.30 Z M 148.94 113.28 L 148.81 114.26 C 148.68 115.31 149.42 116.27 150.47 116.41 C 151.52 116.55 152.48 115.81 152.61 114.76 L 152.74 113.78 C 152.88 112.73 152.14 111.77 151.09 111.63 C 150.04 111.49 149.07 112.23 148.94 113.28 Z M 148.78 114.30 L 148.67 115.30 C 148.55 116.37 149.33 117.33 150.40 117.45 C 151.47 117.56 152.43 116.79 152.54 115.72 L 152.65 114.72 C 152.77 113.65 151.99 112.69 150.92 112.57 C 149.85 112.46 148.89 113.23 148.78 114.30 Z M 148.63 115.36 L 148.55 116.37 C 148.47 117.46 149.28 118.41 150.37 118.50 C 151.46 118.58 152.41 117.77 152.50 116.68 L 152.58 115.66 C 152.66 114.58 151.85 113.62 150.76 113.54 C 149.67 113.45 148.72 114.27 148.63 115.36 Z M 148.54 116.43 L 148.49 117.37 C 148.44 118.47 149.29 119.40 150.39 119.45 C 151.49 119.50 152.42 118.65 152.47 117.56 L 152.51 116.62 C 152.56 115.52 151.72 114.59 150.62 114.54 C 149.52 114.49 148.59 115.34 148.54 116.43 Z M 148.49 117.41 L 148.47 118.39 C 148.44 119.49 149.31 120.40 150.41 120.43 C 151.51 120.45 152.42 119.58 152.45 118.49 L 152.47 117.51 C 152.50 116.41 151.63 115.50 150.53 115.48 C 149.43 115.45 148.52 116.32 148.49 117.41 Z M 148.47 118.42 L 148.46 119.43 C 148.45 120.53 149.33 121.43 150.43 121.44 C 151.53 121.45 152.42 120.57 152.43 119.47 L 152.44 118.46 C 152.46 117.36 151.57 116.46 150.48 116.45 C 149.38 116.44 148.48 117.32 148.47 118.42 Z M 148.46 119.45 L 148.46 120.51 C 148.46 121.61 149.35 122.50 150.44 122.50 C 151.54 122.50 152.43 121.61 152.43 120.52 L 152.43 119.46 C 152.44 118.36 151.55 117.47 150.45 117.47 C 149.36 117.47 148.46 118.35 148.46 119.45 Z M 148.46 120.51 L 148.46 121.56 C 148.46 122.65 149.35 123.54 150.45 123.54 C 151.54 123.54 152.43 122.65 152.43 121.56 L 152.43 120.51 C 152.43 119.42 151.54 118.53 150.45 118.53 C 149.35 118.53 148.46 119.42 148.46 120.51 Z M 148.47 121.56 L 148.47 122.60 C 148.47 123.69 149.36 124.58 150.45 124.58 C 151.55 124.57 152.43 123.69 152.43 122.59 L 152.43 121.55 C 152.42 120.46 151.54 119.57 150.44 119.57 C 149.35 119.58 148.46 120.47 148.47 121.56 Z M 148.47 122.61 L 148.48 123.64 C 148.48 124.73 149.37 125.61 150.47 125.60 C 151.56 125.60 152.44 124.71 152.43 123.62 L 152.43 122.58 C 152.42 121.49 151.53 120.61 150.44 120.62 C 149.34 120.63 148.46 121.52 148.47 122.61 Z M 148.48 123.65 L 148.49 124.64 C 148.51 125.73 149.40 126.61 150.49 126.59 C 151.58 126.58 152.45 125.68 152.44 124.59 L 152.43 123.60 C 152.41 122.51 151.52 121.64 150.43 121.65 C 149.34 121.67 148.47 122.56 148.48 123.65 Z M 148.50 124.67 L 148.52 125.59 C 148.54 126.68 149.45 127.54 150.54 127.51 C 151.62 127.49 152.48 126.58 152.46 125.50 L 152.44 124.57 C 152.41 123.48 151.51 122.62 150.42 122.65 C 149.33 122.67 148.47 123.58 148.50 124.67 Z M 148.52 125.63 L 148.57 126.73 C 148.62 127.81 149.53 128.66 150.62 128.61 C 151.70 128.56 152.55 127.65 152.50 126.56 L 152.45 125.46 C 152.41 124.37 151.49 123.53 150.41 123.58 C 149.32 123.62 148.48 124.54 148.52 125.63 Z M 148.58 126.77 L 148.64 127.77 C 148.72 128.85 149.65 129.67 150.73 129.60 C 151.81 129.53 152.63 128.59 152.56 127.51 L 152.49 126.52 C 152.42 125.43 151.49 124.62 150.41 124.69 C 149.32 124.76 148.51 125.69 148.58 126.77 Z M 148.65 127.81 L 148.73 128.74 C 148.83 129.82 149.78 130.61 150.85 130.52 C 151.93 130.42 152.73 129.48 152.63 128.40 L 152.55 127.47 C 152.46 126.39 151.51 125.60 150.43 125.69 C 149.35 125.78 148.56 126.73 148.65 127.81 Z M 148.74 128.77 L 148.84 129.70 C 148.94 130.77 149.90 131.56 150.97 131.45 C 152.05 131.34 152.83 130.38 152.72 129.31 L 152.62 128.37 C 152.52 127.30 151.56 126.52 150.49 126.63 C 149.41 126.74 148.63 127.69 148.74 128.77 Z M 148.84 129.71 L 148.95 130.69 C 149.06 131.76 150.02 132.53 151.09 132.41 C 152.16 132.30 152.93 131.34 152.82 130.27 L 152.71 129.30 C 152.60 128.23 151.64 127.45 150.57 127.57 C 149.50 127.68 148.72 128.64 148.84 129.71 Z M 148.95 130.69 L 149.06 131.69 C 149.18 132.76 150.14 133.53 151.21 133.41 C 152.28 133.29 153.05 132.33 152.93 131.26 L 152.82 130.26 C 152.70 129.19 151.73 128.43 150.67 128.54 C 149.60 128.66 148.83 129.63 148.95 130.69 Z M 149.06 131.69 L 149.18 132.72 C 149.30 133.79 150.26 134.56 151.32 134.44 C 152.39 134.32 153.16 133.36 153.04 132.29 L 152.92 131.26 C 152.80 130.20 151.84 129.43 150.78 129.55 C 149.71 129.67 148.94 130.63 149.06 131.69 Z M 149.18 132.72 L 149.29 133.69 C 149.40 134.75 150.36 135.52 151.43 135.40 C 152.49 135.29 153.26 134.33 153.14 133.26 L 153.04 132.29 C 152.92 131.23 151.96 130.46 150.90 130.58 C 149.83 130.70 149.06 131.65 149.18 132.72 Z M 149.29 133.68 L 149.40 134.67 C 149.51 135.73 150.47 136.50 151.53 136.39 C 152.59 136.27 153.36 135.32 153.25 134.25 L 153.14 133.27 C 153.03 132.20 152.07 131.44 151.01 131.55 C 149.94 131.66 149.18 132.62 149.29 133.68 Z M 149.40 134.67 L 149.51 135.67 C 149.62 136.73 150.57 137.50 151.63 137.39 C 152.69 137.28 153.46 136.33 153.35 135.26 L 153.24 134.26 C 153.13 133.20 152.18 132.43 151.12 132.54 C 150.06 132.65 149.29 133.60 149.40 134.67 Z M 149.51 135.67 L 149.61 136.68 C 149.72 137.74 150.67 138.51 151.73 138.40 C 152.79 138.29 153.56 137.34 153.45 136.28 L 153.35 135.27 C 153.24 134.21 152.29 133.44 151.23 133.55 C 150.17 133.66 149.40 134.61 149.51 135.67 Z M 149.62 136.67 L 149.72 137.66 C 149.83 138.72 150.77 139.49 151.83 139.38 C 152.89 139.27 153.66 138.32 153.55 137.27 L 153.45 136.28 C 153.34 135.22 152.40 134.45 151.34 134.56 C 150.28 134.67 149.51 135.62 149.62 136.67 Z M 149.72 137.66 L 149.82 138.65 C 149.93 139.71 150.87 140.48 151.93 140.37 C 152.98 140.26 153.75 139.32 153.65 138.26 L 153.55 137.27 C 153.44 136.21 152.50 135.44 151.44 135.55 C 150.38 135.66 149.61 136.60 149.72 137.66 Z M 149.82 138.65 L 149.93 139.65 C 150.03 140.71 150.97 141.48 152.03 141.37 C 153.08 141.26 153.85 140.32 153.74 139.27 L 153.64 138.27 C 153.54 137.21 152.60 136.44 151.54 136.55 C 150.49 136.65 149.72 137.59 149.82 138.65 Z M 149.93 139.65 L 150.03 140.65 C 150.13 141.70 151.07 142.47 152.13 142.37 C 153.18 142.26 153.95 141.32 153.84 140.27 L 153.74 139.27 C 153.64 138.22 152.70 137.45 151.64 137.55 C 150.59 137.66 149.82 138.60 149.93 139.65 Z M 150.03 140.65 L 150.13 141.63 C 150.23 142.68 151.17 143.45 152.22 143.34 C 153.27 143.24 154.04 142.30 153.94 141.25 L 153.84 140.27 C 153.73 139.22 152.80 138.45 151.74 138.56 C 150.69 138.66 149.93 139.60 150.03 140.65 Z M 150.13 141.63 L 150.23 142.62 C 150.33 143.67 151.27 144.43 152.32 144.33 C 153.37 144.22 154.13 143.29 154.03 142.24 L 153.93 141.25 C 153.83 140.20 152.89 139.44 151.84 139.54 C 150.79 139.64 150.03 140.58 150.13 141.63 Z M 150.23 142.61 L 150.33 143.62 C 150.43 144.66 151.37 145.43 152.41 145.33 C 153.46 145.23 154.23 144.29 154.13 143.25 L 154.03 142.24 C 153.93 141.20 152.99 140.43 151.95 140.53 C 150.90 140.63 150.13 141.57 150.23 142.61 Z M 150.33 143.61 L 150.43 144.63 C 150.53 145.67 151.46 146.44 152.51 146.34 C 153.55 146.24 154.32 145.31 154.22 144.26 L 154.12 143.25 C 154.02 142.20 153.09 141.44 152.05 141.54 C 151.00 141.64 150.23 142.57 150.33 143.61 Z M 150.43 144.62 L 150.53 145.62 C 150.62 146.67 151.55 147.44 152.59 147.34 C 153.64 147.24 154.41 146.32 154.31 145.27 L 154.22 144.27 C 154.12 143.22 153.19 142.46 152.15 142.55 C 151.10 142.65 150.34 143.57 150.43 144.62 Z M 150.53 145.61 L 150.62 146.62 C 150.71 147.67 151.63 148.44 152.67 148.34 C 153.72 148.25 154.49 147.33 154.40 146.29 L 154.31 145.28 C 154.22 144.24 153.30 143.47 152.25 143.56 C 151.21 143.65 150.44 144.57 150.53 145.61 Z M 150.62 146.61 L 150.70 147.61 C 150.79 148.65 151.70 149.43 152.74 149.34 C 153.78 149.26 154.56 148.34 154.47 147.30 L 154.39 146.30 C 154.31 145.26 153.40 144.48 152.35 144.57 C 151.31 144.65 150.54 145.57 150.62 146.61 Z M 150.70 147.59 L 150.77 148.57 C 150.85 149.61 151.75 150.39 152.79 150.32 C 153.83 150.24 154.62 149.34 154.54 148.30 L 154.47 147.32 C 154.40 146.28 153.49 145.50 152.45 145.57 C 151.41 145.64 150.63 146.55 150.70 147.59 Z M 150.77 148.54 L 150.84 149.57 C 150.90 150.61 151.79 151.41 152.83 151.34 C 153.87 151.28 154.66 150.39 154.60 149.35 L 154.54 148.32 C 154.48 147.28 153.59 146.49 152.55 146.55 C 151.51 146.61 150.71 147.50 150.77 148.54 Z M 150.84 149.55 L 150.88 150.55 C 150.93 151.59 151.81 152.39 152.85 152.34 C 153.89 152.29 154.70 151.41 154.65 150.37 L 154.60 149.37 C 154.55 148.33 153.67 147.53 152.63 147.58 C 151.59 147.63 150.79 148.51 150.84 149.55 Z M 150.89 150.53 L 150.92 151.52 C 150.97 152.56 151.84 153.36 152.88 153.32 C 153.92 153.28 154.73 152.41 154.68 151.37 L 154.65 150.39 C 154.60 149.35 153.73 148.54 152.69 148.58 C 151.65 148.62 150.84 149.50 150.89 150.53 Z M 150.93 151.51 L 150.96 152.49 C 151.00 153.53 151.87 154.34 152.91 154.30 C 153.94 154.27 154.75 153.40 154.72 152.36 L 154.68 151.38 C 154.65 150.34 153.77 149.53 152.74 149.57 C 151.70 149.60 150.89 150.47 150.93 151.51 Z M 150.96 152.49 L 151.00 153.50 C 151.03 154.53 151.90 155.34 152.94 155.31 C 153.98 155.27 154.79 154.40 154.75 153.36 L 154.71 152.36 C 154.68 151.32 153.81 150.51 152.77 150.55 C 151.74 150.59 150.93 151.46 150.96 152.49 Z M 151.00 153.50 L 151.04 154.50 C 151.07 155.53 151.94 156.34 152.97 156.31 C 154.01 156.27 154.82 155.40 154.78 154.37 L 154.75 153.36 C 154.71 152.33 153.84 151.52 152.81 151.56 C 151.77 151.59 150.96 152.46 151.00 153.50 Z M 151.04 154.50 L 151.07 155.50 C 151.11 156.53 151.98 157.34 153.01 157.30 C 154.04 157.27 154.85 156.40 154.82 155.37 L 154.78 154.37 C 154.74 153.34 153.88 152.53 152.84 152.56 C 151.81 152.60 151.00 153.47 151.04 154.50 Z M 151.08 155.50 L 151.11 156.50 C 151.15 157.53 152.01 158.34 153.05 158.30 C 154.08 158.26 154.89 157.40 154.85 156.37 L 154.81 155.37 C 154.78 154.33 153.91 153.53 152.88 153.56 C 151.85 153.60 151.04 154.47 151.08 155.50 Z M 151.11 156.50 L 151.15 157.51 C 151.18 158.54 152.05 159.34 153.08 159.31 C 154.11 159.27 154.92 158.41 154.88 157.37 L 154.85 156.37 C 154.81 155.34 153.95 154.53 152.91 154.56 C 151.88 154.60 151.08 155.47 151.11 156.50 Z M 151.15 157.50 L 151.18 158.50 C 151.21 159.53 152.08 160.33 153.11 160.30 C 154.14 160.27 154.94 159.41 154.91 158.38 L 154.88 157.38 C 154.85 156.35 153.99 155.54 152.96 155.57 C 151.93 155.61 151.12 156.47 151.15 157.50 Z M 151.18 158.48 L 151.21 159.47 C 151.23 160.50 152.09 161.31 153.12 161.29 C 154.15 161.26 154.96 160.41 154.94 159.38 L 154.91 158.39 C 154.88 157.36 154.03 156.55 153.00 156.57 C 151.97 156.60 151.16 157.45 151.18 158.48 Z M 151.21 159.45 L 151.23 160.46 C 151.24 161.49 152.09 162.31 153.12 162.29 C 154.15 162.27 154.97 161.43 154.95 160.40 L 154.93 159.40 C 154.92 158.37 154.07 157.55 153.04 157.56 C 152.01 157.58 151.19 158.43 151.21 159.45 Z M 151.23 160.44 L 151.23 161.44 C 151.24 162.47 152.08 163.30 153.11 163.29 C 154.14 163.28 154.96 162.44 154.96 161.42 L 154.95 160.41 C 154.94 159.38 154.10 158.56 153.07 158.57 C 152.05 158.57 151.22 159.41 151.23 160.44 Z M 151.24 161.44 L 151.24 162.43 C 151.24 163.46 152.08 164.29 153.10 164.29 C 154.13 164.29 154.96 163.45 154.96 162.42 L 154.95 161.43 C 154.95 160.40 154.12 159.57 153.09 159.57 C 152.06 159.57 151.23 160.41 151.24 161.44 Z M 151.24 162.43 L 151.24 163.42 C 151.24 164.45 152.07 165.28 153.10 165.28 C 154.12 165.28 154.96 164.45 154.96 163.42 L 154.96 162.43 C 154.96 161.40 154.12 160.57 153.10 160.57 C 152.07 160.57 151.24 161.40 151.24 162.43 Z M 151.24 163.42 L 151.24 164.41 C 151.24 165.44 152.07 166.27 153.10 166.27 C 154.12 166.27 154.95 165.44 154.95 164.41 L 154.95 163.42 C 154.95 162.40 154.12 161.56 153.10 161.56 C 152.07 161.56 151.24 162.40 151.24 163.42 Z M 151.24 164.41 L 151.24 165.40 C 151.24 166.43 152.07 167.26 153.10 167.26 C 154.12 167.26 154.95 166.43 154.95 165.40 L 154.95 164.41 C 154.95 163.39 154.12 162.55 153.10 162.55 C 152.07 162.55 151.24 163.39 151.24 164.41 Z M 151.24 165.40 L 151.24 166.41 C 151.24 167.44 152.07 168.27 153.10 168.27 C 154.12 168.27 154.95 167.44 154.95 166.41 L 154.95 165.40 C 154.95 164.38 154.12 163.55 153.10 163.55 C 152.07 163.55 151.24 164.38 151.24 165.40 Z M 151.25 166.41 L 151.24 167.37 C 151.24 168.39 152.07 169.22 153.10 169.22 C 154.12 169.22 154.95 168.39 154.95 167.37 L 154.95 166.41 C 154.95 165.39 154.12 164.56 153.10 164.56 C 152.08 164.56 151.25 165.39 151.25 166.41 Z M 151.25 167.36 L 151.24 168.31 C 151.24 169.33 152.06 170.17 153.08 170.17 C 154.11 170.18 154.94 169.35 154.95 168.33 L 154.95 167.38 C 154.95 166.36 154.13 165.52 153.11 165.52 C 152.08 165.51 151.25 166.34 151.25 167.36 Z M 151.24 168.29 L 151.23 169.29 C 151.21 170.31 152.03 171.15 153.05 171.17 C 154.07 171.18 154.91 170.37 154.93 169.35 L 154.94 168.35 C 154.96 167.33 154.14 166.48 153.12 166.47 C 152.10 166.45 151.26 167.27 151.24 168.29 Z M 151.23 169.27 L 151.20 170.33 C 151.17 171.35 151.97 172.20 152.99 172.23 C 154.01 172.26 154.87 171.46 154.90 170.44 L 154.93 169.37 C 154.96 168.35 154.15 167.50 153.13 167.47 C 152.11 167.44 151.26 168.24 151.23 169.27 Z M 151.20 170.30 L 151.16 171.29 C 151.11 172.31 151.90 173.18 152.92 173.23 C 153.93 173.27 154.80 172.48 154.85 171.47 L 154.89 170.47 C 154.94 169.45 154.15 168.58 153.13 168.54 C 152.11 168.49 151.25 169.28 151.20 170.30 Z M 151.16 171.26 L 151.09 172.23 C 151.03 173.25 151.80 174.13 152.81 174.20 C 153.83 174.26 154.71 173.49 154.78 172.48 L 154.84 171.50 C 154.91 170.48 154.14 169.61 153.12 169.54 C 152.11 169.47 151.23 170.24 151.16 171.26 Z M 151.10 172.18 L 151.01 173.19 C 150.91 174.20 151.66 175.10 152.67 175.19 C 153.69 175.29 154.59 174.54 154.68 173.53 L 154.77 172.52 C 154.87 171.51 154.12 170.61 153.11 170.52 C 152.09 170.42 151.19 171.17 151.10 172.18 Z M 151.01 173.13 L 150.89 174.14 C 150.76 175.15 151.48 176.08 152.49 176.20 C 153.50 176.33 154.42 175.61 154.55 174.60 L 154.67 173.59 C 154.80 172.57 154.08 171.65 153.07 171.53 C 152.06 171.40 151.14 172.12 151.01 173.13 Z M 150.90 174.07 L 150.73 175.08 C 150.56 176.09 151.24 177.04 152.25 177.20 C 153.25 177.37 154.20 176.69 154.37 175.69 L 154.54 174.67 C 154.70 173.67 154.02 172.72 153.02 172.55 C 152.01 172.39 151.07 173.07 150.90 174.07 Z M 150.75 174.99 L 150.52 176.05 C 150.30 177.05 150.93 178.03 151.92 178.25 C 152.91 178.47 153.89 177.84 154.11 176.85 L 154.35 175.78 C 154.56 174.79 153.94 173.81 152.94 173.59 C 151.95 173.37 150.97 174.00 150.75 174.99 Z M 150.55 175.93 L 150.25 176.97 C 149.96 177.94 150.52 178.96 151.50 179.25 C 152.47 179.53 153.49 178.97 153.77 178.00 L 154.08 176.97 C 154.36 175.99 153.80 174.97 152.83 174.69 C 151.86 174.40 150.84 174.96 150.55 175.93 Z M 150.31 176.81 L 149.93 177.75 C 149.56 178.69 150.02 179.75 150.96 180.13 C 151.91 180.50 152.97 180.04 153.34 179.10 L 153.72 178.16 C 154.09 177.22 153.63 176.15 152.69 175.78 C 151.75 175.41 150.68 175.87 150.31 176.81 Z M 150.04 177.54 L 149.59 178.35 C 149.10 179.24 149.42 180.35 150.31 180.84 C 151.19 181.32 152.30 181.00 152.79 180.12 L 153.24 179.31 C 153.73 178.42 153.41 177.31 152.52 176.82 C 151.64 176.33 150.53 176.66 150.04 177.54 Z M 149.79 178.07 L 149.22 178.75 C 148.57 179.53 148.68 180.68 149.45 181.32 C 150.22 181.97 151.37 181.86 152.02 181.09 L 152.59 180.40 C 153.23 179.63 153.13 178.48 152.36 177.84 C 151.59 177.19 150.44 177.29 149.79 178.07 Z M 149.64 178.40 L 148.84 178.91 C 148.00 179.45 147.76 180.57 148.30 181.41 C 148.84 182.25 149.96 182.50 150.80 181.96 L 151.60 181.44 C 152.44 180.90 152.68 179.78 152.14 178.94 C 151.60 178.10 150.48 177.86 149.64 178.40 Z M 149.52 178.67 L 148.60 178.83 C 147.63 178.99 146.97 179.92 147.14 180.89 C 147.30 181.87 148.23 182.52 149.20 182.36 L 150.12 182.20 C 151.10 182.04 151.75 181.11 151.59 180.14 C 151.42 179.16 150.50 178.50 149.52 178.67 Z M 149.30 178.86 L 148.27 178.63 C 147.32 178.40 146.37 179.00 146.15 179.95 C 145.93 180.90 146.52 181.86 147.47 182.08 L 148.50 182.32 C 149.45 182.54 150.41 181.95 150.63 180.99 C 150.85 180.04 150.26 179.09 149.30 178.86 Z M 148.71 178.81 L 147.91 178.38 C 147.06 177.91 146.00 178.23 145.53 179.08 C 145.07 179.93 145.39 181.00 146.24 181.46 L 147.04 181.89 C 147.89 182.36 148.95 182.04 149.42 181.19 C 149.88 180.34 149.56 179.27 148.71 178.81 Z M 148.11 178.52 L 147.39 177.99 C 146.62 177.42 145.54 177.58 144.96 178.35 C 144.39 179.12 144.55 180.21 145.32 180.78 L 146.04 181.31 C 146.81 181.89 147.90 181.73 148.47 180.96 C 149.04 180.19 148.88 179.10 148.11 178.52 Z M 147.50 178.10 L 146.76 177.44 C 146.05 176.81 144.96 176.88 144.33 177.59 C 143.70 178.30 143.77 179.39 144.48 180.02 L 145.22 180.67 C 145.93 181.30 147.01 181.24 147.65 180.53 C 148.28 179.82 148.21 178.73 147.50 178.10 Z M 146.83 177.53 L 146.08 176.78 C 145.42 176.12 144.34 176.12 143.67 176.78 C 143.01 177.45 143.01 178.53 143.67 179.19 L 144.42 179.94 C 145.08 180.60 146.16 180.60 146.83 179.94 C 147.49 179.27 147.49 178.19 146.83 177.53 Z M 146.12 176.84 L 145.38 176.04 C 144.75 175.35 143.68 175.31 142.99 175.94 C 142.31 176.57 142.26 177.64 142.89 178.32 L 143.63 179.13 C 144.27 179.82 145.33 179.86 146.02 179.23 C 146.71 178.60 146.75 177.53 146.12 176.84 Z M 145.40 176.09 L 144.67 175.25 C 144.07 174.55 143.01 174.48 142.31 175.08 C 141.62 175.69 141.54 176.74 142.15 177.44 L 142.87 178.28 C 143.48 178.97 144.53 179.05 145.23 178.44 C 145.93 177.84 146.00 176.78 145.40 176.09 Z M 144.68 175.28 L 143.99 174.44 C 143.40 173.74 142.35 173.64 141.65 174.23 C 140.94 174.82 140.85 175.87 141.44 176.57 L 142.13 177.41 C 142.72 178.11 143.77 178.21 144.47 177.62 C 145.18 177.03 145.27 175.98 144.68 175.28 Z M 144.00 174.47 L 143.33 173.64 C 142.76 172.93 141.71 172.82 141.00 173.39 C 140.29 173.96 140.18 175.01 140.75 175.72 L 141.42 176.55 C 142.00 177.26 143.04 177.37 143.75 176.80 C 144.46 176.22 144.57 175.18 144.00 174.47 Z M 143.34 173.66 L 142.70 172.85 C 142.14 172.13 141.10 172.01 140.39 172.57 C 139.67 173.13 139.54 174.17 140.11 174.89 L 140.74 175.70 C 141.31 176.42 142.35 176.54 143.06 175.98 C 143.78 175.41 143.91 174.38 143.34 173.66 Z M 142.71 172.86 L 142.11 172.08 C 141.56 171.36 140.52 171.23 139.80 171.78 C 139.08 172.33 138.94 173.37 139.50 174.09 L 140.10 174.87 C 140.65 175.59 141.69 175.73 142.41 175.17 C 143.13 174.62 143.27 173.59 142.71 172.86 Z M 142.12 172.10 L 141.56 171.35 C 141.01 170.63 139.98 170.49 139.25 171.03 C 138.53 171.58 138.39 172.61 138.93 173.34 L 139.49 174.08 C 140.04 174.80 141.07 174.94 141.80 174.40 C 142.52 173.85 142.66 172.82 142.12 172.10 Z M 141.56 171.36 L 140.99 170.61 C 140.45 169.88 139.43 169.74 138.70 170.28 C 137.97 170.82 137.83 171.85 138.37 172.57 L 138.93 173.33 C 139.47 174.05 140.50 174.20 141.23 173.66 C 141.95 173.12 142.10 172.09 141.56 171.36 Z M 141.00 170.62 L 140.34 169.72 C 139.80 169.00 138.77 168.85 138.05 169.38 C 137.32 169.92 137.17 170.95 137.70 171.67 L 138.37 172.57 C 138.90 173.29 139.93 173.44 140.66 172.91 C 141.38 172.37 141.54 171.34 141.00 170.62 Z M 140.34 169.73 L 139.75 168.92 C 139.21 168.19 138.19 168.04 137.46 168.57 C 136.73 169.11 136.57 170.13 137.11 170.86 L 137.70 171.67 C 138.24 172.40 139.26 172.55 139.99 172.02 C 140.72 171.48 140.88 170.46 140.34 169.73 Z M 139.75 168.93 L 139.20 168.18 C 138.67 167.45 137.65 167.29 136.92 167.82 C 136.18 168.35 136.02 169.38 136.56 170.11 L 137.11 170.86 C 137.64 171.59 138.66 171.75 139.39 171.22 C 140.12 170.68 140.28 169.66 139.75 168.93 Z M 139.20 168.18 L 138.66 167.44 C 138.13 166.71 137.11 166.54 136.38 167.08 C 135.65 167.61 135.49 168.63 136.02 169.36 L 136.56 170.10 C 137.09 170.84 138.11 171.00 138.84 170.47 C 139.57 169.93 139.74 168.91 139.20 168.18 Z M 138.66 167.44 L 138.08 166.63 C 137.55 165.90 136.52 165.74 135.79 166.27 C 135.06 166.80 134.90 167.83 135.43 168.56 L 136.02 169.36 C 136.55 170.09 137.57 170.26 138.30 169.72 C 139.04 169.19 139.20 168.17 138.66 167.44 Z M 138.07 166.63 L 137.48 165.82 C 136.95 165.09 135.93 164.93 135.20 165.47 C 134.47 166.00 134.31 167.03 134.84 167.75 L 135.43 168.56 C 135.97 169.29 136.99 169.45 137.72 168.91 C 138.45 168.38 138.61 167.36 138.07 166.63 Z M 137.48 165.81 L 136.88 165.01 C 136.35 164.28 135.32 164.13 134.59 164.67 C 133.87 165.20 133.71 166.23 134.25 166.96 L 134.85 167.76 C 135.39 168.49 136.41 168.64 137.14 168.10 C 137.86 167.57 138.02 166.54 137.48 165.81 Z M 136.88 165.00 L 136.28 164.21 C 135.74 163.48 134.71 163.34 133.99 163.88 C 133.27 164.42 133.12 165.45 133.66 166.17 L 134.26 166.96 C 134.80 167.69 135.83 167.83 136.55 167.29 C 137.27 166.75 137.42 165.72 136.88 165.00 Z M 136.28 164.20 L 135.68 163.41 C 135.13 162.69 134.10 162.56 133.38 163.10 C 132.67 163.65 132.53 164.68 133.07 165.40 L 133.67 166.18 C 134.22 166.90 135.25 167.04 135.97 166.49 C 136.68 165.94 136.82 164.92 136.28 164.20 Z M 135.67 163.41 L 135.06 162.61 C 134.51 161.90 133.48 161.77 132.77 162.32 C 132.05 162.87 131.92 163.90 132.47 164.61 L 133.08 165.41 C 133.63 166.12 134.66 166.25 135.38 165.70 C 136.09 165.15 136.22 164.12 135.67 163.41 Z M 135.06 162.61 L 134.43 161.80 C 133.88 161.09 132.85 160.96 132.13 161.52 C 131.42 162.07 131.29 163.10 131.85 163.81 L 132.47 164.62 C 133.03 165.33 134.06 165.46 134.77 164.91 C 135.48 164.35 135.61 163.32 135.06 162.61 Z M 134.43 161.80 L 133.80 161.00 C 133.24 160.29 132.21 160.16 131.50 160.72 C 130.79 161.28 130.67 162.31 131.22 163.02 L 131.85 163.82 C 132.41 164.53 133.44 164.65 134.15 164.10 C 134.86 163.54 134.98 162.51 134.43 161.80 Z M 133.79 160.99 L 133.16 160.19 C 132.60 159.48 131.57 159.37 130.86 159.93 C 130.15 160.49 130.03 161.52 130.60 162.23 L 131.23 163.02 C 131.79 163.73 132.82 163.85 133.53 163.29 C 134.24 162.73 134.36 161.70 133.79 160.99 Z M 133.15 160.18 L 132.53 159.40 C 131.96 158.70 130.93 158.59 130.22 159.15 C 129.52 159.72 129.41 160.75 129.97 161.45 L 130.60 162.24 C 131.17 162.94 132.20 163.05 132.90 162.49 C 133.61 161.92 133.72 160.89 133.15 160.18 Z M 132.51 159.39 L 131.90 158.64 C 131.33 157.94 130.29 157.84 129.60 158.41 C 128.90 158.99 128.80 160.02 129.37 160.72 L 129.98 161.47 C 130.56 162.16 131.59 162.27 132.29 161.69 C 132.99 161.12 133.09 160.09 132.51 159.39 Z M 131.88 158.62 L 131.21 157.82 C 130.62 157.13 129.59 157.04 128.90 157.63 C 128.21 158.21 128.12 159.25 128.71 159.94 L 129.39 160.74 C 129.97 161.43 131.00 161.51 131.69 160.93 C 132.38 160.35 132.47 159.31 131.88 158.62 Z M 131.19 157.80 L 130.54 157.05 C 129.95 156.37 128.91 156.30 128.23 156.89 C 127.55 157.48 127.47 158.52 128.07 159.20 L 128.72 159.95 C 129.32 160.63 130.35 160.71 131.03 160.11 C 131.71 159.52 131.79 158.49 131.19 157.80 Z M 130.53 157.04 L 129.89 156.32 C 129.29 155.64 128.26 155.58 127.58 156.17 C 126.90 156.77 126.84 157.81 127.44 158.48 L 128.08 159.21 C 128.68 159.89 129.71 159.95 130.39 159.35 C 131.06 158.75 131.13 157.72 130.53 157.04 Z M 129.89 156.31 L 129.65 156.05 C 129.05 155.38 128.02 155.32 127.34 155.92 C 126.67 156.52 126.61 157.55 127.21 158.23 L 127.44 158.49 C 128.04 159.16 129.07 159.22 129.75 158.62 C 130.43 158.02 130.49 156.99 129.89 156.31 Z"
      fill="black"
      fill-rule="nonzero" /><path d="M 122.16 140.41 L 121.67 141.18 C 121.15 142.01 121.39 143.10 122.22 143.62 C 123.04 144.15 124.14 143.90 124.66 143.07 L 125.15 142.30 C 125.67 141.47 125.43 140.38 124.60 139.86 C 123.78 139.34 122.69 139.58 122.16 140.41 Z M 121.64 141.18 L 121.13 141.99 C 120.61 142.83 120.87 143.94 121.71 144.47 C 122.56 144.99 123.67 144.73 124.19 143.89 L 124.70 143.08 C 125.22 142.23 124.96 141.12 124.12 140.60 C 123.27 140.07 122.16 140.33 121.64 141.18 Z M 121.09 142.00 L 120.56 142.88 C 120.04 143.75 120.33 144.88 121.20 145.39 C 122.07 145.91 123.19 145.63 123.71 144.76 L 124.24 143.88 C 124.76 143.01 124.47 141.88 123.60 141.36 C 122.73 140.84 121.61 141.13 121.09 142.00 Z M 120.52 142.90 L 119.99 143.84 C 119.48 144.73 119.79 145.87 120.68 146.38 C 121.58 146.88 122.71 146.57 123.22 145.68 L 123.75 144.74 C 124.26 143.85 123.95 142.71 123.06 142.20 C 122.16 141.70 121.03 142.01 120.52 142.90 Z M 119.97 143.87 L 119.52 144.69 C 119.03 145.59 119.36 146.72 120.26 147.21 C 121.17 147.71 122.30 147.37 122.79 146.47 L 123.24 145.65 C 123.73 144.75 123.40 143.61 122.50 143.12 C 121.59 142.63 120.46 142.96 119.97 143.87 Z M 119.52 144.71 L 119.06 145.59 C 118.58 146.49 118.93 147.61 119.83 148.09 C 120.73 148.56 121.85 148.22 122.33 147.32 L 122.79 146.44 C 123.27 145.54 122.93 144.42 122.02 143.94 C 121.12 143.46 120.00 143.81 119.52 144.71 Z M 119.06 145.61 L 118.59 146.52 C 118.13 147.42 118.48 148.53 119.38 148.99 C 120.28 149.46 121.39 149.11 121.86 148.20 L 122.33 147.29 C 122.79 146.39 122.44 145.28 121.54 144.82 C 120.64 144.35 119.53 144.71 119.06 145.61 Z M 118.60 146.54 L 118.13 147.47 C 117.67 148.37 118.03 149.46 118.93 149.92 C 119.83 150.37 120.93 150.01 121.38 149.11 L 121.85 148.18 C 122.31 147.29 121.95 146.19 121.05 145.73 C 120.15 145.28 119.05 145.64 118.60 146.54 Z M 118.13 147.49 L 117.67 148.41 C 117.23 149.31 117.60 150.40 118.49 150.84 C 119.39 151.28 120.47 150.92 120.92 150.02 L 121.38 149.10 C 121.82 148.20 121.45 147.12 120.56 146.67 C 119.66 146.23 118.58 146.59 118.13 147.49 Z M 117.68 148.43 L 117.25 149.33 C 116.81 150.22 117.18 151.29 118.07 151.73 C 118.96 152.16 120.04 151.79 120.47 150.90 L 120.91 150.01 C 121.34 149.11 120.97 148.04 120.08 147.61 C 119.19 147.17 118.12 147.54 117.68 148.43 Z M 117.25 149.35 L 116.83 150.24 C 116.41 151.12 116.78 152.19 117.67 152.61 C 118.55 153.03 119.61 152.66 120.04 151.77 L 120.46 150.88 C 120.89 149.99 120.51 148.93 119.63 148.51 C 118.74 148.09 117.68 148.46 117.25 149.35 Z M 116.84 150.26 L 116.42 151.15 C 116.01 152.04 116.39 153.08 117.27 153.50 C 118.15 153.91 119.20 153.53 119.61 152.65 L 120.03 151.75 C 120.44 150.87 120.06 149.82 119.18 149.41 C 118.30 149.00 117.25 149.38 116.84 150.26 Z M 116.43 151.17 L 116.01 152.08 C 115.61 152.96 115.99 154.00 116.87 154.40 C 117.75 154.80 118.78 154.41 119.19 153.54 L 119.60 152.63 C 120.00 151.75 119.62 150.71 118.74 150.31 C 117.86 149.91 116.83 150.30 116.43 151.17 Z M 116.02 152.11 L 115.60 153.04 C 115.21 153.91 115.60 154.93 116.48 155.32 C 117.35 155.71 118.37 155.32 118.76 154.45 L 119.18 153.52 C 119.57 152.64 119.18 151.62 118.30 151.23 C 117.43 150.84 116.41 151.23 116.02 152.11 Z M 115.61 153.06 L 115.19 154.01 C 114.81 154.88 115.21 155.89 116.08 156.27 C 116.95 156.65 117.96 156.25 118.34 155.39 L 118.75 154.43 C 119.13 153.56 118.74 152.55 117.87 152.17 C 117.00 151.79 115.99 152.19 115.61 153.06 Z M 115.19 154.03 L 114.78 155.00 C 114.41 155.86 114.81 156.87 115.68 157.24 C 116.55 157.61 117.55 157.20 117.92 156.34 L 118.34 155.37 C 118.71 154.50 118.30 153.50 117.44 153.13 C 116.57 152.76 115.56 153.16 115.19 154.03 Z M 114.78 155.01 L 114.38 155.96 C 114.02 156.83 114.43 157.83 115.30 158.19 C 116.16 158.55 117.16 158.14 117.52 157.28 L 117.92 156.32 C 118.28 155.46 117.87 154.46 117.01 154.10 C 116.14 153.74 115.15 154.14 114.78 155.01 Z M 114.39 155.98 L 114.01 156.90 C 113.65 157.76 114.07 158.75 114.93 159.10 C 115.79 159.46 116.78 159.05 117.14 158.18 L 117.52 157.26 C 117.87 156.40 117.46 155.41 116.60 155.06 C 115.73 154.70 114.74 155.11 114.39 155.98 Z M 114.01 156.91 L 113.67 157.77 C 113.32 158.63 113.73 159.62 114.59 159.96 C 115.46 160.31 116.44 159.89 116.78 159.03 L 117.13 158.17 C 117.48 157.31 117.06 156.33 116.20 155.98 C 115.34 155.63 114.36 156.05 114.01 156.91 Z M 113.67 157.79 L 113.28 158.79 C 112.94 159.65 113.36 160.62 114.22 160.96 C 115.08 161.29 116.05 160.87 116.39 160.01 L 116.78 159.02 C 117.12 158.16 116.70 157.19 115.84 156.85 C 114.98 156.51 114.01 156.93 113.67 157.79 Z M 113.28 158.81 L 112.90 159.79 C 112.58 160.65 113.01 161.61 113.87 161.94 C 114.73 162.27 115.69 161.83 116.01 160.97 L 116.39 159.99 C 116.71 159.13 116.28 158.17 115.42 157.84 C 114.56 157.52 113.60 157.95 113.28 158.81 Z M 112.90 159.82 L 112.58 160.70 C 112.27 161.56 112.72 162.51 113.58 162.82 C 114.44 163.13 115.39 162.69 115.70 161.83 L 116.02 160.95 C 116.33 160.09 115.88 159.14 115.02 158.83 C 114.16 158.52 113.21 158.96 112.90 159.82 Z M 112.58 160.73 L 112.30 161.57 C 112.00 162.43 112.46 163.37 113.32 163.66 C 114.18 163.96 115.12 163.50 115.41 162.63 L 115.70 161.80 C 115.99 160.94 115.53 160.00 114.67 159.71 C 113.81 159.41 112.88 159.87 112.58 160.73 Z M 112.29 161.60 L 112.02 162.43 C 111.74 163.29 112.21 164.22 113.08 164.50 C 113.94 164.78 114.87 164.30 115.15 163.44 L 115.42 162.61 C 115.70 161.75 115.22 160.82 114.36 160.54 C 113.50 160.26 112.57 160.73 112.29 161.60 Z M 112.02 162.45 L 111.74 163.34 C 111.47 164.21 111.95 165.13 112.82 165.40 C 113.68 165.67 114.60 165.19 114.87 164.32 L 115.15 163.42 C 115.42 162.56 114.94 161.64 114.07 161.37 C 113.21 161.10 112.29 161.58 112.02 162.45 Z M 111.74 163.36 L 111.43 164.37 C 111.16 165.24 111.65 166.16 112.52 166.42 C 113.39 166.68 114.30 166.19 114.56 165.33 L 114.87 164.31 C 115.14 163.44 114.65 162.53 113.78 162.26 C 112.91 162.00 112.00 162.49 111.74 163.36 Z M 111.43 164.38 L 111.11 165.42 C 110.86 166.29 111.35 167.20 112.22 167.46 C 113.08 167.72 114.00 167.23 114.26 166.36 L 114.57 165.32 C 114.82 164.45 114.33 163.54 113.46 163.28 C 112.60 163.02 111.68 163.51 111.43 164.38 Z M 111.11 165.42 L 110.84 166.33 C 110.58 167.20 111.08 168.11 111.95 168.37 C 112.82 168.63 113.73 168.13 113.99 167.26 L 114.26 166.36 C 114.52 165.49 114.02 164.57 113.15 164.31 C 112.28 164.06 111.37 164.55 111.11 165.42 Z M 110.83 166.33 L 110.55 167.30 C 110.30 168.18 110.80 169.09 111.67 169.35 C 112.55 169.60 113.46 169.10 113.72 168.23 L 114.00 167.26 C 114.25 166.38 113.75 165.47 112.88 165.21 C 112.00 164.96 111.09 165.46 110.83 166.33 Z M 110.54 167.31 L 110.26 168.31 C 110.01 169.19 110.51 170.10 111.39 170.35 C 112.27 170.60 113.19 170.10 113.44 169.22 L 113.73 168.22 C 113.98 167.34 113.47 166.42 112.59 166.17 C 111.71 165.92 110.79 166.43 110.54 167.31 Z M 110.25 168.32 L 109.97 169.32 C 109.72 170.20 110.24 171.12 111.13 171.36 C 112.01 171.61 112.93 171.09 113.17 170.21 L 113.45 169.21 C 113.70 168.32 113.18 167.41 112.29 167.16 C 111.41 166.91 110.49 167.43 110.25 168.32 Z M 109.96 169.33 L 109.70 170.32 C 109.46 171.21 109.99 172.12 110.88 172.36 C 111.77 172.59 112.69 172.06 112.92 171.17 L 113.18 170.19 C 113.42 169.30 112.89 168.39 112.00 168.15 C 111.11 167.91 110.20 168.44 109.96 169.33 Z M 109.69 170.34 L 109.43 171.38 C 109.20 172.28 109.75 173.18 110.64 173.41 C 111.54 173.63 112.44 173.09 112.67 172.20 L 112.93 171.15 C 113.15 170.26 112.61 169.35 111.72 169.13 C 110.82 168.90 109.91 169.45 109.69 170.34 Z M 109.43 171.41 L 109.19 172.40 C 108.98 173.30 109.54 174.19 110.43 174.40 C 111.33 174.61 112.22 174.06 112.43 173.17 L 112.67 172.17 C 112.88 171.28 112.32 170.38 111.43 170.17 C 110.53 169.96 109.64 170.51 109.43 171.41 Z M 109.19 172.42 L 108.98 173.38 C 108.78 174.27 109.34 175.16 110.24 175.36 C 111.13 175.56 112.02 175.00 112.22 174.10 L 112.43 173.15 C 112.63 172.25 112.07 171.36 111.18 171.16 C 110.28 170.96 109.39 171.53 109.19 172.42 Z M 108.98 173.39 L 108.78 174.32 C 108.59 175.22 109.16 176.10 110.05 176.29 C 110.94 176.48 111.82 175.92 112.02 175.02 L 112.22 174.09 C 112.41 173.20 111.84 172.31 110.95 172.12 C 110.06 171.93 109.17 172.50 108.98 173.39 Z M 108.78 174.33 L 108.65 174.97 C 108.46 175.86 109.03 176.74 109.92 176.93 C 110.81 177.12 111.69 176.55 111.88 175.66 L 112.01 175.02 C 112.20 174.12 111.63 173.25 110.74 173.06 C 109.85 172.87 108.97 173.44 108.78 174.33 Z"
      fill="black"
      fill-rule="nonzero" /><path d="M 159.20 142.58 L 160.17 142.72 C 161.21 142.86 162.17 142.14 162.32 141.09 C 162.47 140.05 161.74 139.09 160.70 138.94 L 159.73 138.80 C 158.69 138.65 157.72 139.38 157.57 140.42 C 157.43 141.47 158.15 142.43 159.20 142.58 Z M 160.13 142.71 L 161.11 142.87 C 162.15 143.03 163.12 142.32 163.29 141.28 C 163.45 140.24 162.74 139.26 161.70 139.10 L 160.73 138.94 C 159.69 138.78 158.71 139.49 158.55 140.53 C 158.38 141.57 159.09 142.55 160.13 142.71 Z M 161.04 142.86 L 162.02 143.04 C 163.05 143.24 164.06 142.56 164.25 141.53 C 164.45 140.49 163.77 139.49 162.74 139.29 L 161.76 139.11 C 160.73 138.91 159.73 139.59 159.53 140.62 C 159.33 141.66 160.01 142.66 161.04 142.86 Z M 161.93 143.02 L 162.91 143.26 C 163.94 143.51 164.97 142.88 165.22 141.85 C 165.46 140.83 164.83 139.80 163.81 139.55 L 162.83 139.31 C 161.80 139.07 160.77 139.70 160.52 140.72 C 160.28 141.75 160.91 142.78 161.93 143.02 Z M 162.80 143.23 L 163.79 143.53 C 164.80 143.84 165.87 143.27 166.17 142.27 C 166.48 141.26 165.92 140.19 164.91 139.88 L 163.92 139.58 C 162.91 139.27 161.84 139.84 161.54 140.85 C 161.23 141.85 161.79 142.92 162.80 143.23 Z M 163.68 143.50 L 164.62 143.85 C 165.61 144.22 166.71 143.72 167.08 142.74 C 167.46 141.75 166.96 140.65 165.97 140.28 L 165.02 139.92 C 164.03 139.55 162.93 140.05 162.56 141.03 C 162.19 142.02 162.69 143.12 163.68 143.50 Z M 164.54 143.82 L 165.48 144.23 C 166.45 144.65 167.58 144.20 167.99 143.23 C 168.41 142.26 167.97 141.13 167.00 140.71 L 166.05 140.31 C 165.08 139.89 163.96 140.33 163.54 141.30 C 163.12 142.28 163.57 143.40 164.54 143.82 Z M 165.42 144.20 L 166.35 144.64 C 167.30 145.09 168.45 144.68 168.90 143.72 C 169.35 142.76 168.94 141.62 167.98 141.17 L 167.05 140.74 C 166.10 140.28 164.95 140.70 164.50 141.65 C 164.05 142.61 164.46 143.75 165.42 144.20 Z M 166.31 144.63 L 167.20 145.07 C 168.15 145.54 169.31 145.15 169.78 144.20 C 170.25 143.25 169.86 142.10 168.91 141.63 L 168.01 141.18 C 167.06 140.71 165.91 141.10 165.44 142.05 C 164.97 143.00 165.36 144.16 166.31 144.63 Z M 167.19 145.07 L 168.04 145.49 C 168.99 145.97 170.15 145.59 170.62 144.64 C 171.10 143.69 170.72 142.53 169.77 142.06 L 168.92 141.63 C 167.97 141.15 166.81 141.53 166.34 142.48 C 165.86 143.43 166.24 144.59 167.19 145.07 Z M 168.05 145.51 L 169.04 146.00 C 170.00 146.47 171.16 146.08 171.63 145.12 C 172.10 144.17 171.71 143.01 170.75 142.53 L 169.76 142.04 C 168.81 141.57 167.65 141.96 167.17 142.92 C 166.70 143.88 167.09 145.03 168.05 145.51 Z M 169.06 146.02 L 169.99 146.47 C 170.96 146.93 172.12 146.53 172.59 145.56 C 173.05 144.59 172.64 143.43 171.68 142.96 L 170.74 142.51 C 169.77 142.05 168.61 142.46 168.14 143.42 C 167.68 144.39 168.09 145.55 169.06 146.02 Z M 170.00 146.49 L 170.87 146.90 C 171.85 147.35 173.02 146.93 173.48 145.95 C 173.93 144.98 173.51 143.81 172.53 143.35 L 171.66 142.95 C 170.69 142.49 169.52 142.91 169.06 143.89 C 168.60 144.86 169.03 146.03 170.00 146.49 Z M 170.88 146.91 L 171.70 147.29 C 172.69 147.74 173.86 147.31 174.31 146.33 C 174.77 145.34 174.33 144.17 173.35 143.71 L 172.53 143.34 C 171.54 142.88 170.37 143.31 169.92 144.30 C 169.46 145.29 169.89 146.46 170.88 146.91 Z M 171.70 147.30 L 172.61 147.72 C 173.61 148.17 174.78 147.74 175.23 146.74 C 175.69 145.75 175.25 144.58 174.26 144.12 L 173.35 143.70 C 172.35 143.25 171.18 143.69 170.72 144.68 C 170.27 145.67 170.71 146.85 171.70 147.30 Z M 172.62 147.72 L 173.53 148.14 C 174.52 148.59 175.70 148.14 176.15 147.15 C 176.60 146.15 176.16 144.98 175.16 144.53 L 174.25 144.11 C 173.26 143.66 172.08 144.11 171.63 145.10 C 171.18 146.10 171.62 147.27 172.62 147.72 Z M 173.54 148.14 L 174.44 148.54 C 175.44 148.99 176.61 148.54 177.06 147.54 C 177.50 146.54 177.05 145.36 176.05 144.92 L 175.15 144.52 C 174.15 144.07 172.98 144.52 172.53 145.52 C 172.09 146.52 172.54 147.70 173.54 148.14 Z M 174.45 148.55 L 175.36 148.95 C 176.36 149.38 177.53 148.92 177.97 147.92 C 178.41 146.91 177.95 145.74 176.94 145.30 L 176.04 144.91 C 175.03 144.47 173.86 144.93 173.42 145.94 C 172.98 146.94 173.45 148.12 174.45 148.55 Z M 175.37 148.95 L 176.28 149.34 C 177.29 149.77 178.46 149.30 178.89 148.29 C 179.32 147.28 178.85 146.12 177.84 145.69 L 176.93 145.30 C 175.92 144.87 174.75 145.34 174.32 146.35 C 173.89 147.36 174.36 148.52 175.37 148.95 Z M 176.30 149.34 L 177.22 149.73 C 178.23 150.15 179.39 149.68 179.82 148.67 C 180.24 147.66 179.77 146.50 178.76 146.07 L 177.83 145.68 C 176.82 145.26 175.66 145.74 175.23 146.75 C 174.81 147.76 175.29 148.92 176.30 149.34 Z M 177.23 149.73 L 178.16 150.12 C 179.17 150.54 180.33 150.06 180.75 149.05 C 181.17 148.04 180.69 146.88 179.68 146.46 L 178.75 146.08 C 177.74 145.65 176.58 146.13 176.16 147.14 C 175.74 148.15 176.22 149.31 177.23 149.73 Z M 178.16 150.12 L 179.08 150.50 C 180.09 150.92 181.25 150.44 181.67 149.44 C 182.09 148.43 181.61 147.27 180.61 146.85 L 179.68 146.47 C 178.67 146.05 177.52 146.52 177.10 147.53 C 176.68 148.54 177.15 149.70 178.16 150.12 Z M 179.09 150.50 L 180.01 150.88 C 181.01 151.30 182.17 150.83 182.59 149.82 C 183.01 148.81 182.53 147.66 181.53 147.24 L 180.60 146.85 C 179.60 146.44 178.44 146.91 178.02 147.92 C 177.60 148.92 178.08 150.08 179.09 150.50 Z M 180.01 150.88 L 180.93 151.26 C 181.94 151.68 183.09 151.21 183.51 150.20 C 183.93 149.20 183.45 148.05 182.45 147.63 L 181.53 147.24 C 180.52 146.82 179.37 147.30 178.95 148.30 C 178.53 149.31 179.01 150.46 180.01 150.88 Z M 180.93 151.26 L 181.86 151.65 C 182.87 152.06 184.02 151.59 184.44 150.59 C 184.85 149.59 184.38 148.44 183.38 148.02 L 182.45 147.63 C 181.45 147.21 180.29 147.69 179.88 148.69 C 179.46 149.69 179.93 150.84 180.93 151.26 Z M 181.86 151.64 L 182.79 152.03 C 183.79 152.45 184.94 151.98 185.36 150.98 C 185.78 149.98 185.31 148.83 184.31 148.41 L 183.38 148.02 C 182.38 147.61 181.23 148.08 180.81 149.08 C 180.39 150.07 180.86 151.22 181.86 151.64 Z M 182.79 152.02 L 183.71 152.41 C 184.70 152.83 185.85 152.37 186.27 151.38 C 186.69 150.38 186.23 149.23 185.23 148.81 L 184.31 148.42 C 183.32 148.00 182.17 148.46 181.75 149.46 C 181.33 150.45 181.79 151.60 182.79 152.02 Z M 183.69 152.40 L 184.61 152.80 C 185.59 153.22 186.74 152.77 187.17 151.78 C 187.60 150.79 187.14 149.64 186.15 149.22 L 185.24 148.82 C 184.25 148.39 183.11 148.85 182.68 149.84 C 182.25 150.83 182.71 151.97 183.69 152.40 Z M 184.59 152.78 L 185.51 153.19 C 186.49 153.63 187.64 153.18 188.08 152.20 C 188.51 151.22 188.07 150.07 187.09 149.64 L 186.17 149.23 C 185.19 148.79 184.04 149.24 183.60 150.22 C 183.17 151.20 183.61 152.35 184.59 152.78 Z M 185.50 153.18 L 186.40 153.59 C 187.37 154.03 188.52 153.61 188.97 152.63 C 189.41 151.66 188.98 150.51 188.01 150.07 L 187.10 149.65 C 186.13 149.21 184.98 149.64 184.54 150.61 C 184.09 151.58 184.52 152.73 185.50 153.18 Z M 186.39 153.57 L 187.28 154.00 C 188.25 154.45 189.40 154.04 189.85 153.07 C 190.30 152.11 189.89 150.96 188.92 150.51 L 188.03 150.08 C 187.06 149.63 185.91 150.04 185.46 151.01 C 185.01 151.97 185.42 153.12 186.39 153.57 Z M 187.27 153.98 L 188.12 154.39 C 189.07 154.85 190.22 154.45 190.68 153.50 C 191.15 152.55 190.75 151.40 189.79 150.94 L 188.94 150.53 C 187.99 150.06 186.84 150.46 186.38 151.41 C 185.92 152.37 186.31 153.51 187.27 153.98 Z M 188.10 154.36 L 188.97 154.81 C 189.91 155.28 191.05 154.90 191.53 153.97 C 192.00 153.03 191.63 151.88 190.69 151.41 L 189.82 150.97 C 188.88 150.49 187.73 150.87 187.26 151.81 C 186.78 152.74 187.16 153.89 188.10 154.36 Z M 188.94 154.77 L 189.86 155.26 C 190.78 155.75 191.92 155.40 192.41 154.48 C 192.90 153.56 192.55 152.42 191.63 151.92 L 190.72 151.44 C 189.80 150.95 188.65 151.30 188.16 152.22 C 187.67 153.14 188.02 154.28 188.94 154.77 Z M 189.83 155.23 L 190.71 155.72 C 191.61 156.23 192.75 155.91 193.26 155.01 C 193.77 154.10 193.45 152.96 192.54 152.45 L 191.66 151.96 C 190.76 151.45 189.61 151.77 189.11 152.67 C 188.60 153.58 188.92 154.72 189.83 155.23 Z M 190.67 155.69 L 191.52 156.19 C 192.41 156.72 193.55 156.43 194.08 155.55 C 194.60 154.66 194.31 153.52 193.43 152.99 L 192.58 152.49 C 191.69 151.96 190.55 152.25 190.03 153.14 C 189.50 154.02 189.79 155.16 190.67 155.69 Z M 191.48 156.15 L 192.33 156.70 C 193.19 157.25 194.34 157.00 194.89 156.14 C 195.44 155.28 195.19 154.14 194.33 153.59 L 193.47 153.04 C 192.61 152.49 191.47 152.74 190.92 153.60 C 190.37 154.46 190.62 155.60 191.48 156.15 Z M 192.27 156.64 L 193.11 157.23 C 193.94 157.81 195.08 157.61 195.66 156.78 C 196.25 155.95 196.05 154.81 195.22 154.23 L 194.39 153.64 C 193.56 153.06 192.41 153.26 191.83 154.09 C 191.25 154.91 191.45 156.06 192.27 156.64 Z M 193.03 157.15 L 193.83 157.78 C 194.62 158.41 195.76 158.27 196.38 157.49 C 197.01 156.70 196.88 155.56 196.09 154.94 L 195.29 154.30 C 194.51 153.68 193.36 153.81 192.74 154.60 C 192.12 155.38 192.25 156.53 193.03 157.15 Z M 193.76 157.69 L 194.51 158.36 C 195.24 159.03 196.37 158.97 197.04 158.24 C 197.70 157.51 197.64 156.37 196.91 155.71 L 196.16 155.03 C 195.43 154.37 194.30 154.42 193.63 155.16 C 192.97 155.89 193.03 157.02 193.76 157.69 Z M 194.45 158.26 L 195.14 158.98 C 195.82 159.67 196.93 159.69 197.63 159.01 C 198.32 158.33 198.34 157.22 197.66 156.52 L 196.97 155.81 C 196.29 155.12 195.18 155.10 194.48 155.78 C 193.79 156.45 193.77 157.57 194.45 158.26 Z M 195.09 158.88 L 195.74 159.63 C 196.36 160.35 197.45 160.43 198.18 159.80 C 198.90 159.18 198.98 158.09 198.35 157.37 L 197.71 156.62 C 197.08 155.90 195.99 155.82 195.27 156.44 C 194.55 157.07 194.47 158.16 195.09 158.88 Z M 195.70 159.54 L 196.31 160.33 C 196.89 161.07 197.96 161.20 198.70 160.63 C 199.44 160.05 199.58 158.98 199.00 158.24 L 198.39 157.46 C 197.81 156.71 196.75 156.58 196.00 157.15 C 195.26 157.73 195.13 158.80 195.70 159.54 Z M 196.27 160.24 L 196.84 161.06 C 197.37 161.83 198.41 162.02 199.18 161.50 C 199.94 160.97 200.14 159.92 199.61 159.16 L 199.04 158.33 C 198.52 157.57 197.47 157.37 196.70 157.90 C 195.94 158.42 195.74 159.47 196.27 160.24 Z M 196.79 160.96 L 197.30 161.82 C 197.76 162.61 198.79 162.88 199.58 162.41 C 200.37 161.94 200.64 160.92 200.17 160.13 L 199.66 159.27 C 199.19 158.47 198.17 158.21 197.38 158.68 C 196.59 159.14 196.32 160.16 196.79 160.96 Z M 197.24 161.69 L 197.68 162.58 C 198.07 163.41 199.06 163.75 199.88 163.36 C 200.70 162.96 201.05 161.98 200.65 161.16 L 200.22 160.26 C 199.83 159.44 198.84 159.09 198.02 159.48 C 197.20 159.88 196.85 160.87 197.24 161.69 Z M 197.62 162.43 L 197.96 163.36 C 198.27 164.22 199.22 164.65 200.07 164.34 C 200.92 164.03 201.36 163.09 201.04 162.24 L 200.70 161.31 C 200.39 160.46 199.45 160.02 198.60 160.33 C 197.75 160.64 197.31 161.58 197.62 162.43 Z M 197.92 163.23 L 198.19 164.19 C 198.42 165.06 199.32 165.58 200.20 165.34 C 201.07 165.10 201.58 164.20 201.35 163.33 L 201.08 162.37 C 200.85 161.50 199.95 160.98 199.07 161.22 C 198.20 161.46 197.69 162.36 197.92 163.23 Z M 198.16 164.10 L 198.37 165.08 C 198.56 165.96 199.43 166.53 200.31 166.34 C 201.20 166.16 201.76 165.29 201.57 164.40 L 201.37 163.42 C 201.18 162.54 200.31 161.97 199.43 162.16 C 198.54 162.35 197.98 163.22 198.16 164.10 Z M 198.36 165.03 L 198.54 166.02 C 198.70 166.91 199.55 167.50 200.44 167.34 C 201.33 167.18 201.92 166.33 201.76 165.44 L 201.58 164.45 C 201.42 163.56 200.57 162.97 199.68 163.13 C 198.79 163.29 198.20 164.14 198.36 165.03 Z M 198.54 166.01 L 198.57 166.17 C 198.72 167.06 199.57 167.66 200.46 167.51 C 201.35 167.35 201.94 166.51 201.79 165.62 L 201.76 165.45 C 201.61 164.56 200.76 163.97 199.87 164.12 C 198.98 164.27 198.38 165.12 198.54 166.01 Z"
      fill="black"
      fill-rule="nonzero" /></svg>