<svg xmlns="http://www.w3.org/2000/svg" width="300" height="300" viewBox="0 0 300 300">
<path d="M 138.84 139.53 L 139.78 139.70 C 140.76 139.86 141.68 139.21 141.85 138.23 C 142.01 137.26 141.36 136.34 140.39 136.17 L 139.44 136.01 C 138.47 135.84 137.54 136.50 137.38 137.47 C 137.21 138.44 137.86 139.37 138.84 139.53 Z M 139.79 139.76 L 140.75 139.91 C 141.76 140.08 142.71 139.39 142.87 138.38 C 143.04 137.38 142.35 136.43 141.34 136.27 L 140.38 136.11 C 139.37 135.95 138.43 136.63 138.26 137.64 C 138.10 138.64 138.78 139.59 139.79 139.76 Z M 140.78 139.98 L 141.77 140.12 C 142.81 140.27 143.78 139.55 143.93 138.51 C 144.08 137.47 143.36 136.50 142.32 136.35 L 141.32 136.20 C 140.28 136.05 139.31 136.77 139.16 137.82 C 139.01 138.86 139.73 139.82 140.78 139.98 Z M 141.81 140.18 L 142.85 140.31 C 143.93 140.44 144.91 139.67 145.04 138.60 C 145.17 137.52 144.40 136.54 143.32 136.41 L 142.28 136.28 C 141.20 136.15 140.22 136.92 140.09 138.00 C 139.96 139.07 140.73 140.05 141.81 140.18 Z M 142.90 140.35 L 143.90 140.44 C 145.00 140.55 145.98 139.74 146.08 138.65 C 146.19 137.55 145.38 136.57 144.29 136.47 L 143.28 136.37 C 142.18 136.27 141.20 137.07 141.10 138.17 C 140.99 139.27 141.80 140.24 142.90 140.35 Z M 143.95 140.45 L 144.97 140.53 C 146.07 140.61 147.03 139.78 147.11 138.68 C 147.20 137.58 146.37 136.62 145.27 136.54 L 144.24 136.46 C 143.14 136.38 142.18 137.21 142.10 138.31 C 142.02 139.41 142.84 140.37 143.95 140.45 Z M 145.00 140.53 L 146.02 140.59 C 147.12 140.65 148.07 139.81 148.13 138.71 C 148.20 137.61 147.36 136.66 146.26 136.60 L 145.24 136.54 C 144.14 136.47 143.19 137.31 143.13 138.42 C 143.06 139.52 143.90 140.46 145.00 140.53 Z M 146.05 140.59 L 147.03 140.63 C 148.13 140.68 149.07 139.83 149.11 138.73 C 149.16 137.63 148.31 136.69 147.21 136.64 L 146.23 136.60 C 145.13 136.55 144.19 137.40 144.14 138.50 C 144.09 139.61 144.95 140.54 146.05 140.59 Z M 147.05 140.63 L 148.07 140.67 C 149.18 140.70 150.10 139.84 150.13 138.74 C 150.17 137.63 149.31 136.71 148.20 136.68 L 147.18 136.64 C 146.08 136.61 145.16 137.47 145.12 138.57 C 145.09 139.68 145.95 140.60 147.05 140.63 Z M 148.10 140.66 L 149.14 140.68 C 150.24 140.70 151.15 139.83 151.17 138.73 C 151.19 137.63 150.32 136.72 149.21 136.70 L 148.18 136.68 C 147.08 136.66 146.17 137.53 146.15 138.63 C 146.13 139.73 147.00 140.64 148.10 140.66 Z M 149.16 140.68 L 150.13 140.69 C 151.23 140.69 152.12 139.81 152.13 138.71 C 152.14 137.62 151.26 136.72 150.16 136.71 L 149.19 136.70 C 148.09 136.70 147.20 137.58 147.19 138.68 C 147.18 139.77 148.06 140.67 149.16 140.68 Z M 150.14 140.68 L 151.08 140.68 C 152.18 140.68 153.06 139.80 153.06 138.70 C 153.07 137.61 152.18 136.72 151.09 136.72 L 150.15 136.72 C 149.05 136.72 148.16 137.60 148.16 138.70 C 148.16 139.79 149.05 140.68 150.14 140.68 Z M 151.08 140.68 L 152.05 140.68 C 153.15 140.68 154.03 139.79 154.03 138.70 C 154.03 137.61 153.15 136.72 152.05 136.72 L 151.08 136.72 C 149.99 136.72 149.11 137.61 149.11 138.70 C 149.11 139.79 149.99 140.68 151.08 140.68 Z M 152.05 140.67 L 153.05 140.67 C 154.14 140.67 155.02 139.79 155.02 138.70 C 155.02 137.61 154.14 136.73 153.05 136.73 L 152.05 136.73 C 150.97 136.73 150.08 137.61 150.08 138.70 C 150.08 139.79 150.97 140.67 152.05 140.67 Z M 153.05 140.66 L 154.07 140.66 C 155.15 140.66 156.03 139.78 156.03 138.70 C 156.03 137.61 155.15 136.74 154.07 136.74 L 153.05 136.74 C 151.96 136.74 151.08 137.61 151.08 138.70 C 151.08 139.78 151.96 140.66 153.05 140.66 Z M 154.07 140.66 L 155.06 140.66 C 156.14 140.66 157.02 139.78 157.02 138.70 C 157.02 137.62 156.14 136.74 155.06 136.74 L 154.07 136.74 C 152.98 136.74 152.11 137.62 152.11 138.70 C 152.11 139.78 152.98 140.66 154.07 140.66 Z M 155.06 140.65 L 156.03 140.65 C 157.11 140.65 157.98 139.78 157.98 138.70 C 157.98 137.62 157.11 136.75 156.03 136.75 L 155.06 136.75 C 153.98 136.75 153.11 137.62 153.11 138.70 C 153.11 139.78 153.98 140.65 155.06 140.65 Z M 156.03 140.64 L 157.04 140.64 C 158.11 140.64 158.98 139.77 158.98 138.70 C 158.98 137.63 158.11 136.76 157.04 136.76 L 156.03 136.76 C 154.96 136.76 154.09 137.63 154.09 138.70 C 154.09 139.77 154.96 140.64 156.03 140.64 Z M 157.04 140.63 L 158.07 140.63 C 159.13 140.63 160.00 139.77 160.00 138.70 C 160.00 137.63 159.13 136.77 158.07 136.77 L 157.04 136.77 C 155.97 136.77 155.10 137.63 155.10 138.70 C 155.10 139.77 155.97 140.63 157.04 140.63 Z M 158.07 140.62 L 159.07 140.62 C 160.13 140.62 160.99 139.76 160.99 138.70 C 160.99 137.64 160.13 136.78 159.07 136.78 L 158.07 136.78 C 157.01 136.78 156.15 137.64 156.15 138.70 C 156.15 139.76 157.01 140.62 158.07 140.62 Z M 159.07 140.61 L 160.07 140.61 C 161.13 140.61 161.98 139.75 161.98 138.70 C 161.98 137.64 161.13 136.79 160.07 136.79 L 159.07 136.79 C 158.01 136.79 157.16 137.64 157.16 138.70 C 157.16 139.75 158.01 140.61 159.07 140.61 Z M 160.07 140.60 L 161.08 140.60 C 162.13 140.60 162.98 139.75 162.98 138.70 C 162.98 137.65 162.13 136.80 161.08 136.80 L 160.07 136.80 C 159.02 136.80 158.17 137.65 158.17 138.70 C 158.17 139.75 159.02 140.60 160.07 140.60 Z M 161.08 140.59 L 162.08 140.59 C 163.13 140.59 163.97 139.74 163.97 138.70 C 163.97 137.66 163.13 136.81 162.08 136.81 L 161.08 136.81 C 160.04 136.81 159.19 137.66 159.19 138.70 C 159.19 139.74 160.04 140.59 161.08 140.59 Z M 162.08 140.58 L 163.10 140.58 C 164.14 140.58 164.98 139.74 164.98 138.70 C 164.98 137.66 164.14 136.82 163.10 136.82 L 162.08 136.82 C 161.05 136.82 160.21 137.66 160.21 138.70 C 160.21 139.74 161.05 140.58 162.08 140.58 Z M 163.10 140.56 L 164.11 140.56 C 165.14 140.56 165.98 139.73 165.98 138.70 C 165.98 137.67 165.14 136.84 164.11 136.84 L 163.10 136.84 C 162.07 136.84 161.24 137.67 161.24 138.70 C 161.24 139.73 162.07 140.56 163.10 140.56 Z M 164.11 140.55 L 165.11 140.55 C 166.13 140.55 166.96 139.72 166.96 138.70 C 166.96 137.68 166.13 136.85 165.11 136.85 L 164.11 136.85 C 163.09 136.85 162.26 137.68 162.26 138.70 C 162.26 139.72 163.09 140.55 164.11 140.55 Z M 165.11 140.54 L 166.09 140.54 C 167.10 140.54 167.93 139.72 167.93 138.70 C 167.93 137.68 167.10 136.86 166.09 136.86 L 165.11 136.86 C 164.09 136.86 163.27 137.68 163.27 138.70 C 163.27 139.72 164.09 140.54 165.11 140.54 Z M 166.09 140.53 L 167.09 140.53 C 168.10 140.53 168.92 139.71 168.92 138.70 C 168.92 137.69 168.10 136.87 167.09 136.87 L 166.09 136.87 C 165.08 136.87 164.26 137.69 164.26 138.70 C 164.26 139.71 165.08 140.53 166.09 140.53 Z M 167.09 140.52 L 168.10 140.52 C 169.10 140.52 169.92 139.70 169.92 138.70 C 169.92 137.70 169.10 136.88 168.10 136.88 L 167.09 136.88 C 166.09 136.88 165.27 137.70 165.27 138.70 C 165.27 139.70 166.09 140.52 167.09 140.52 Z M 168.10 140.51 L 169.09 140.51 C 170.09 140.51 170.90 139.70 170.90 138.70 C 170.90 137.70 170.09 136.89 169.09 136.89 L 168.10 136.89 C 167.10 136.89 166.29 137.70 166.29 138.70 C 166.29 139.70 167.10 140.51 168.10 140.51 Z M 169.09 140.49 L 170.08 140.49 C 171.07 140.49 171.88 139.69 171.88 138.70 C 171.88 137.71 171.07 136.91 170.08 136.91 L 169.09 136.91 C 168.10 136.91 167.30 137.71 167.30 138.70 C 167.30 139.69 168.10 140.49 169.09 140.49 Z M 170.08 140.48 L 171.11 140.48 C 172.10 140.48 172.90 139.68 172.90 138.70 C 172.90 137.72 172.10 136.92 171.11 136.92 L 170.08 136.92 C 169.10 136.92 168.30 137.72 168.30 138.70 C 168.30 139.68 169.10 140.48 170.08 140.48 Z M 171.11 140.47 L 172.12 140.47 C 173.10 140.47 173.89 139.68 173.89 138.70 C 173.89 137.72 173.10 136.93 172.12 136.93 L 171.11 136.93 C 170.14 136.93 169.34 137.72 169.34 138.70 C 169.34 139.68 170.14 140.47 171.11 140.47 Z M 172.12 140.46 L 173.10 140.46 C 174.07 140.46 174.86 139.67 174.86 138.70 C 174.86 137.73 174.07 136.94 173.10 136.94 L 172.12 136.94 C 171.15 136.94 170.37 137.73 170.37 138.70 C 170.37 139.67 171.15 140.46 172.12 140.46 Z M 173.10 140.44 L 174.05 140.44 C 175.01 140.44 175.79 139.66 175.79 138.70 C 175.79 137.74 175.01 136.96 174.04 136.96 L 173.10 136.96 C 172.14 136.96 171.36 137.74 171.36 138.70 C 171.36 139.66 172.14 140.44 173.10 140.44 Z M 174.05 140.43 L 174.99 140.43 C 175.94 140.42 176.72 139.65 176.71 138.69 C 176.71 137.73 175.93 136.96 174.97 136.96 L 174.04 136.97 C 173.08 136.97 172.31 137.75 172.31 138.71 C 172.32 139.66 173.10 140.43 174.05 140.43 Z M 175.00 140.42 L 176.00 140.40 C 176.95 140.39 177.71 139.61 177.69 138.66 C 177.68 137.71 176.90 136.95 175.95 136.96 L 174.96 136.98 C 174.01 136.99 173.25 137.77 173.26 138.72 C 173.27 139.67 174.05 140.43 175.00 140.42 Z M 176.02 140.39 L 177.12 140.36 C 178.06 140.34 178.81 139.55 178.78 138.61 C 178.76 137.67 177.98 136.92 177.03 136.95 L 175.93 136.98 C 174.99 137.00 174.24 137.78 174.27 138.73 C 174.29 139.67 175.08 140.41 176.02 140.39 Z M 177.14 140.35 L 178.10 140.32 C 179.04 140.28 179.77 139.50 179.74 138.56 C 179.70 137.62 178.91 136.89 177.98 136.92 L 177.02 136.96 C 176.08 136.99 175.35 137.78 175.38 138.72 C 175.41 139.65 176.20 140.38 177.14 140.35 Z M 178.11 140.31 L 179.13 140.27 C 180.06 140.23 180.79 139.44 180.75 138.51 C 180.71 137.58 179.92 136.85 178.99 136.89 L 177.97 136.93 C 177.04 136.97 176.31 137.76 176.35 138.69 C 176.39 139.62 177.18 140.35 178.11 140.31 Z M 179.13 140.26 L 180.17 140.21 C 181.09 140.18 181.82 139.39 181.78 138.47 C 181.74 137.54 180.96 136.82 180.03 136.86 L 178.99 136.90 C 178.06 136.94 177.34 137.72 177.38 138.65 C 177.42 139.58 178.20 140.30 179.13 140.26 Z M 180.16 140.21 L 181.17 140.17 C 182.09 140.13 182.81 139.35 182.77 138.43 C 182.74 137.51 181.96 136.79 181.04 136.82 L 180.03 136.86 C 179.11 136.90 178.39 137.68 178.43 138.60 C 178.46 139.52 179.24 140.24 180.16 140.21 Z M 181.15 140.16 L 182.20 140.13 C 183.12 140.10 183.84 139.33 183.82 138.41 C 183.79 137.49 183.02 136.77 182.10 136.80 L 181.05 136.83 C 180.13 136.86 179.41 137.63 179.44 138.55 C 179.47 139.47 180.24 140.19 181.15 140.16 Z M 182.18 140.12 L 183.24 140.10 C 184.16 140.08 184.89 139.33 184.87 138.41 C 184.85 137.50 184.10 136.77 183.18 136.79 L 182.12 136.81 C 181.21 136.82 180.48 137.58 180.49 138.50 C 180.51 139.41 181.27 140.14 182.18 140.12 Z M 183.23 140.09 L 184.19 140.09 C 185.10 140.08 185.83 139.33 185.82 138.42 C 185.82 137.51 185.07 136.78 184.16 136.79 L 183.20 136.79 C 182.29 136.80 181.56 137.55 181.56 138.46 C 181.57 139.37 182.32 140.10 183.23 140.09 Z M 184.18 140.08 L 185.09 140.08 C 185.99 140.08 186.73 139.34 186.73 138.43 C 186.73 137.53 185.99 136.79 185.08 136.79 L 184.17 136.79 C 183.27 136.79 182.53 137.53 182.53 138.44 C 182.53 139.34 183.27 140.08 184.18 140.08 Z M 185.08 140.07 L 185.16 140.07 C 186.06 140.07 186.79 139.34 186.79 138.43 C 186.79 137.53 186.06 136.80 185.16 136.80 L 185.08 136.80 C 184.18 136.80 183.45 137.53 183.45 138.43 C 183.45 139.34 184.18 140.07 185.08 140.07 Z"
      fill="black"
      fill-rule="nonzero" /><path d="M 139.11 160.99 L 139.11 162.06 C 139.11 163.03 139.89 163.81 140.86 163.81 C 141.83 163.81 142.61 163.03 142.61 162.06 L 142.61 160.99 C 142.61 160.02 141.83 159.24 140.86 159.24 C 139.89 159.24 139.11 160.02 139.11 160.99 Z M 139.07 162.06 L 139.07 163.11 C 139.07 164.10 139.87 164.91 140.86 164.91 C 141.85 164.91 142.65 164.10 142.65 163.11 L 142.65 162.06 C 142.65 161.07 141.85 160.27 140.86 160.27 C 139.87 160.27 139.07 161.07 139.07 162.06 Z M 139.02 163.11 L 139.02 164.13 C 139.02 165.15 139.85 165.97 140.86 165.97 C 141.88 165.97 142.70 165.15 142.70 164.13 L 142.70 163.11 C 142.70 162.10 141.88 161.28 140.86 161.28 C 139.85 161.28 139.02 162.10 139.02 163.11 Z M 138.98 164.13 L 138.98 165.09 C 138.98 166.13 139.82 166.97 140.86 166.97 C 141.90 166.97 142.74 166.13 142.74 165.09 L 142.74 164.13 C 142.74 163.09 141.90 162.25 140.86 162.25 C 139.82 162.25 138.98 163.09 138.98 164.13 Z M 138.94 165.09 L 138.94 166.00 C 138.94 167.06 139.80 167.92 140.86 167.92 C 141.92 167.92 142.78 167.06 142.78 166.00 L 142.78 165.09 C 142.78 164.03 141.92 163.17 140.86 163.17 C 139.80 163.17 138.94 164.03 138.94 165.09 Z M 138.92 166.00 L 138.92 167.07 C 138.92 168.15 139.79 169.02 140.86 169.02 C 141.93 169.02 142.81 168.15 142.81 167.07 L 142.81 166.00 C 142.81 164.92 141.93 164.05 140.86 164.05 C 139.79 164.05 138.92 164.92 138.92 166.00 Z M 138.91 167.07 L 138.91 168.05 C 138.91 169.13 139.78 170.00 140.86 170.00 C 141.94 170.00 142.81 169.13 142.81 168.05 L 142.81 167.07 C 142.81 166.00 141.94 165.12 140.86 165.12 C 139.78 165.12 138.91 166.00 138.91 167.07 Z M 138.90 168.05 L 138.90 169.00 C 138.90 170.08 139.78 170.96 140.86 170.96 C 141.94 170.96 142.82 170.08 142.82 169.00 L 142.82 168.05 C 142.82 166.97 141.94 166.09 140.86 166.09 C 139.78 166.09 138.90 166.97 138.90 168.05 Z M 138.90 169.00 L 138.90 169.95 C 138.90 171.03 139.78 171.91 140.86 171.91 C 141.95 171.91 142.82 171.03 142.82 169.95 L 142.82 169.00 C 142.82 167.92 141.95 167.04 140.86 167.04 C 139.78 167.04 138.90 167.92 138.90 169.00 Z M 138.89 169.95 L 138.89 170.91 C 138.89 171.99 139.77 172.88 140.86 172.88 C 141.95 172.88 142.83 171.99 142.83 170.91 L 142.83 169.95 C 142.83 168.86 141.95 167.98 140.86 167.98 C 139.77 167.98 138.89 168.86 138.89 169.95 Z M 138.88 170.91 L 138.88 171.91 C 138.88 173.00 139.77 173.89 140.86 173.89 C 141.95 173.89 142.84 173.00 142.84 171.91 L 142.84 170.91 C 142.84 169.81 141.95 168.93 140.86 168.93 C 139.77 168.93 138.88 169.81 138.88 170.91 Z M 138.88 171.91 L 138.88 172.96 C 138.88 174.05 139.77 174.94 140.86 174.94 C 141.96 174.94 142.84 174.05 142.84 172.96 L 142.84 171.91 C 142.84 170.82 141.96 169.93 140.86 169.93 C 139.77 169.93 138.88 170.82 138.88 171.91 Z M 138.87 172.96 L 138.87 173.97 C 138.87 175.07 139.76 175.96 140.86 175.96 C 141.96 175.96 142.85 175.07 142.85 173.97 L 142.85 172.96 C 142.85 171.86 141.96 170.97 140.86 170.97 C 139.76 170.97 138.87 171.86 138.87 172.96 Z M 138.87 173.98 L 138.87 174.96 C 138.87 176.06 139.77 176.95 140.87 176.94 C 141.97 176.94 142.86 176.04 142.86 174.94 L 142.85 173.96 C 142.85 172.86 141.96 171.97 140.85 171.98 C 139.75 171.98 138.86 172.88 138.87 173.98 Z M 138.87 174.98 L 138.88 175.97 C 138.89 177.07 139.80 177.96 140.90 177.94 C 142.00 177.93 142.89 177.02 142.87 175.92 L 142.86 174.93 C 142.85 173.82 141.94 172.94 140.84 172.95 C 139.74 172.97 138.85 173.87 138.87 174.98 Z M 138.88 176.00 L 138.91 177.01 C 138.94 178.12 139.86 178.99 140.96 178.96 C 142.06 178.93 142.93 178.01 142.90 176.90 L 142.88 175.89 C 142.85 174.79 141.93 173.92 140.82 173.95 C 139.72 173.98 138.85 174.90 138.88 176.00 Z M 138.90 177.05 L 138.95 178.08 C 139.01 179.18 139.95 180.04 141.05 179.98 C 142.16 179.93 143.01 178.99 142.96 177.89 L 142.91 176.86 C 142.85 175.76 141.91 174.90 140.81 174.96 C 139.70 175.01 138.85 175.95 138.90 177.05 Z M 138.95 178.13 L 139.02 179.10 C 139.10 180.21 140.06 181.04 141.17 180.96 C 142.27 180.88 143.11 179.92 143.03 178.82 L 142.96 177.84 C 142.88 176.73 141.92 175.90 140.81 175.98 C 139.70 176.06 138.87 177.02 138.95 178.13 Z M 139.03 179.16 L 139.12 180.15 C 139.23 181.25 140.21 182.06 141.32 181.95 C 142.42 181.84 143.23 180.86 143.12 179.75 L 143.02 178.76 C 142.92 177.66 141.93 176.85 140.83 176.96 C 139.73 177.07 138.92 178.05 139.03 179.16 Z M 139.13 180.20 L 139.25 181.20 C 139.39 182.30 140.40 183.08 141.50 182.94 C 142.60 182.80 143.38 181.80 143.24 180.70 L 143.12 179.70 C 142.98 178.60 141.97 177.82 140.87 177.96 C 139.77 178.10 138.99 179.10 139.13 180.20 Z M 139.26 181.26 L 139.42 182.26 C 139.59 183.36 140.62 184.11 141.72 183.94 C 142.82 183.76 143.57 182.73 143.39 181.63 L 143.24 180.63 C 143.06 179.54 142.03 178.79 140.93 178.96 C 139.84 179.13 139.09 180.16 139.26 181.26 Z M 139.43 182.33 L 139.62 183.33 C 139.83 184.42 140.88 185.13 141.98 184.92 C 143.07 184.71 143.78 183.66 143.58 182.57 L 143.38 181.57 C 143.17 180.48 142.12 179.76 141.03 179.97 C 139.93 180.18 139.22 181.24 139.43 182.33 Z M 139.63 183.40 L 139.86 184.39 C 140.11 185.48 141.19 186.15 142.28 185.90 C 143.36 185.66 144.04 184.57 143.79 183.49 L 143.56 182.50 C 143.31 181.41 142.23 180.73 141.15 180.98 C 140.06 181.23 139.38 182.31 139.63 183.40 Z M 139.88 184.46 L 140.14 185.44 C 140.43 186.51 141.53 187.15 142.61 186.86 C 143.68 186.58 144.32 185.47 144.03 184.39 L 143.77 183.42 C 143.48 182.34 142.38 181.71 141.30 181.99 C 140.23 182.28 139.59 183.39 139.88 184.46 Z M 140.16 185.51 L 140.46 186.47 C 140.79 187.53 141.91 188.12 142.98 187.80 C 144.04 187.47 144.64 186.34 144.31 185.27 L 144.01 184.32 C 143.68 183.26 142.55 182.66 141.49 182.99 C 140.43 183.32 139.83 184.45 140.16 185.51 Z M 140.48 186.54 L 140.81 187.47 C 141.18 188.51 142.33 189.06 143.38 188.69 C 144.43 188.32 144.98 187.17 144.61 186.12 L 144.28 185.20 C 143.91 184.15 142.76 183.60 141.71 183.97 C 140.66 184.34 140.11 185.49 140.48 186.54 Z M 140.84 187.55 L 141.23 188.49 C 141.65 189.52 142.82 190.02 143.85 189.60 C 144.88 189.18 145.38 188.01 144.96 186.98 L 144.58 186.03 C 144.16 185.00 142.98 184.51 141.95 184.92 C 140.92 185.34 140.42 186.52 140.84 187.55 Z M 141.27 188.59 L 141.70 189.51 C 142.17 190.52 143.37 190.96 144.38 190.48 C 145.39 190.01 145.82 188.82 145.35 187.81 L 144.92 186.88 C 144.45 185.87 143.25 185.44 142.24 185.91 C 141.23 186.38 140.80 187.58 141.27 188.59 Z M 141.75 189.61 L 142.22 190.49 C 142.75 191.47 143.97 191.84 144.95 191.31 C 145.92 190.79 146.29 189.57 145.77 188.59 L 145.30 187.71 C 144.77 186.73 143.56 186.36 142.58 186.89 C 141.60 187.41 141.23 188.63 141.75 189.61 Z M 142.28 190.58 L 142.79 191.42 C 143.37 192.36 144.60 192.66 145.55 192.08 C 146.50 191.51 146.80 190.27 146.22 189.32 L 145.71 188.49 C 145.13 187.55 143.90 187.25 142.95 187.82 C 142.00 188.40 141.70 189.64 142.28 190.58 Z M 142.86 191.51 L 143.41 192.31 C 144.04 193.22 145.29 193.45 146.20 192.82 C 147.11 192.19 147.34 190.94 146.71 190.03 L 146.15 189.23 C 145.52 188.32 144.27 188.09 143.36 188.72 C 142.45 189.35 142.22 190.60 142.86 191.51 Z M 143.49 192.41 L 144.11 193.19 C 144.80 194.05 146.06 194.19 146.92 193.51 C 147.78 192.82 147.92 191.56 147.24 190.70 L 146.62 189.92 C 145.93 189.06 144.68 188.92 143.81 189.61 C 142.95 190.29 142.81 191.55 143.49 192.41 Z M 144.22 193.30 L 144.90 194.02 C 145.65 194.83 146.91 194.87 147.71 194.12 C 148.51 193.37 148.55 192.11 147.80 191.30 L 147.13 190.58 C 146.37 189.78 145.12 189.74 144.31 190.49 C 143.51 191.24 143.47 192.50 144.22 193.30 Z M 145.03 194.14 L 145.78 194.81 C 146.60 195.54 147.85 195.47 148.58 194.65 C 149.31 193.83 149.23 192.58 148.42 191.85 L 147.67 191.19 C 146.85 190.46 145.60 190.53 144.87 191.35 C 144.14 192.16 144.21 193.42 145.03 194.14 Z M 145.93 194.92 L 146.73 195.51 C 147.61 196.16 148.84 195.97 149.49 195.09 C 150.13 194.21 149.95 192.98 149.07 192.33 L 148.27 191.74 C 147.39 191.10 146.16 191.29 145.51 192.16 C 144.86 193.04 145.05 194.28 145.93 194.92 Z M 146.88 195.60 L 147.70 196.09 C 148.63 196.65 149.83 196.36 150.39 195.43 C 150.95 194.51 150.66 193.30 149.73 192.74 L 148.92 192.25 C 147.99 191.68 146.78 191.98 146.22 192.91 C 145.66 193.83 145.96 195.04 146.88 195.60 Z M 147.85 196.16 L 148.73 196.60 C 149.70 197.08 150.86 196.68 151.34 195.72 C 151.82 194.76 151.43 193.59 150.46 193.11 L 149.58 192.67 C 148.62 192.20 147.45 192.59 146.97 193.55 C 146.49 194.51 146.89 195.68 147.85 196.16 Z M 148.89 196.65 L 149.84 197.03 C 150.83 197.42 151.95 196.93 152.34 195.94 C 152.74 194.95 152.25 193.83 151.26 193.43 L 150.31 193.06 C 149.32 192.67 148.20 193.15 147.80 194.14 C 147.41 195.14 147.90 196.26 148.89 196.65 Z M 149.99 197.07 L 151.00 197.37 C 152.01 197.68 153.08 197.10 153.39 196.09 C 153.69 195.07 153.12 194.00 152.10 193.70 L 151.10 193.39 C 150.09 193.09 149.02 193.66 148.71 194.68 C 148.40 195.69 148.98 196.76 149.99 197.07 Z M 151.15 197.39 L 152.16 197.61 C 153.19 197.83 154.20 197.18 154.42 196.15 C 154.64 195.12 153.99 194.11 152.96 193.89 L 151.95 193.67 C 150.92 193.45 149.91 194.11 149.69 195.13 C 149.47 196.16 150.13 197.17 151.15 197.39 Z M 152.29 197.61 L 153.31 197.76 C 154.34 197.91 155.29 197.20 155.44 196.17 C 155.59 195.15 154.88 194.19 153.86 194.04 L 152.83 193.89 C 151.81 193.74 150.85 194.45 150.70 195.48 C 150.55 196.50 151.26 197.46 152.29 197.61 Z M 153.40 197.75 L 154.42 197.85 C 155.45 197.95 156.35 197.20 156.45 196.18 C 156.55 195.16 155.81 194.25 154.78 194.15 L 153.76 194.05 C 152.74 193.95 151.83 194.70 151.73 195.72 C 151.64 196.74 152.38 197.65 153.40 197.75 Z M 154.49 197.83 L 155.48 197.89 C 156.49 197.96 157.36 197.19 157.43 196.17 C 157.49 195.16 156.72 194.29 155.71 194.23 L 154.72 194.17 C 153.71 194.10 152.83 194.87 152.77 195.89 C 152.71 196.90 153.48 197.77 154.49 197.83 Z M 155.52 197.87 L 156.46 197.91 C 157.46 197.95 158.30 197.17 158.34 196.17 C 158.38 195.17 157.60 194.32 156.60 194.28 L 155.66 194.25 C 154.66 194.21 153.82 194.99 153.78 195.99 C 153.74 196.99 154.52 197.83 155.52 197.87 Z M 156.48 197.89 L 157.58 197.91 C 158.57 197.94 159.39 197.16 159.41 196.17 C 159.44 195.18 158.65 194.36 157.67 194.33 L 156.57 194.31 C 155.58 194.28 154.76 195.06 154.74 196.05 C 154.71 197.04 155.50 197.86 156.48 197.89 Z M 157.61 197.89 L 158.61 197.90 C 159.59 197.90 160.38 197.12 160.39 196.15 C 160.40 195.17 159.61 194.37 158.64 194.37 L 157.64 194.36 C 156.66 194.35 155.86 195.14 155.86 196.11 C 155.85 197.08 156.63 197.88 157.61 197.89 Z M 158.65 197.87 L 159.59 197.86 C 160.55 197.85 161.32 197.06 161.31 196.10 C 161.30 195.14 160.51 194.37 159.55 194.38 L 158.61 194.39 C 157.65 194.41 156.88 195.19 156.89 196.15 C 156.90 197.11 157.69 197.88 158.65 197.87 Z M 159.63 197.83 L 160.57 197.80 C 161.52 197.77 162.26 196.98 162.23 196.03 C 162.19 195.09 161.40 194.34 160.46 194.38 L 159.52 194.41 C 158.57 194.44 157.83 195.23 157.86 196.18 C 157.89 197.12 158.68 197.86 159.63 197.83 Z M 160.61 197.78 L 161.59 197.73 C 162.52 197.67 163.24 196.87 163.19 195.93 C 163.13 195.00 162.33 194.28 161.39 194.34 L 160.42 194.39 C 159.48 194.45 158.76 195.25 158.82 196.19 C 158.87 197.12 159.67 197.84 160.61 197.78 Z M 161.65 197.71 L 162.64 197.62 C 163.57 197.53 164.25 196.71 164.17 195.79 C 164.08 194.86 163.26 194.18 162.33 194.26 L 161.34 194.35 C 160.41 194.44 159.73 195.26 159.81 196.19 C 159.90 197.11 160.72 197.80 161.65 197.71 Z M 162.71 197.60 L 163.72 197.46 C 164.64 197.34 165.28 196.49 165.16 195.57 C 165.03 194.66 164.18 194.02 163.27 194.14 L 162.26 194.28 C 161.34 194.41 160.70 195.25 160.83 196.17 C 160.95 197.08 161.80 197.73 162.71 197.60 Z M 163.81 197.44 L 164.77 197.26 C 165.68 197.08 166.27 196.21 166.10 195.31 C 165.93 194.40 165.06 193.81 164.15 193.98 L 163.18 194.16 C 162.28 194.34 161.69 195.21 161.86 196.11 C 162.03 197.02 162.90 197.61 163.81 197.44 Z M 164.84 197.23 L 165.80 197.01 C 166.69 196.80 167.24 195.90 167.03 195.01 C 166.82 194.12 165.93 193.57 165.04 193.78 L 164.08 194.00 C 163.19 194.21 162.64 195.11 162.85 196.00 C 163.06 196.89 163.95 197.44 164.84 197.23 Z M 165.84 196.99 L 166.81 196.73 C 167.70 196.50 168.22 195.59 167.99 194.71 C 167.75 193.82 166.84 193.30 165.96 193.54 L 164.99 193.79 C 164.11 194.03 163.58 194.94 163.82 195.82 C 164.05 196.70 164.96 197.23 165.84 196.99 Z M 166.84 196.72 L 167.83 196.44 C 168.71 196.19 169.21 195.28 168.97 194.40 C 168.72 193.53 167.81 193.02 166.93 193.27 L 165.94 193.55 C 165.06 193.80 164.55 194.71 164.80 195.58 C 165.05 196.46 165.96 196.97 166.84 196.72 Z M 167.84 196.43 L 168.81 196.15 C 169.68 195.90 170.18 194.99 169.93 194.12 C 169.68 193.24 168.77 192.74 167.89 192.99 L 166.92 193.27 C 166.05 193.52 165.55 194.44 165.80 195.31 C 166.05 196.18 166.96 196.69 167.84 196.43 Z M 168.82 196.15 L 169.79 195.86 C 170.66 195.61 171.16 194.69 170.90 193.82 C 170.64 192.95 169.73 192.45 168.86 192.71 L 167.89 193.00 C 167.02 193.25 166.52 194.17 166.78 195.04 C 167.03 195.91 167.94 196.40 168.82 196.15 Z M 169.80 195.86 L 170.77 195.56 C 171.63 195.30 172.12 194.38 171.86 193.51 C 171.59 192.65 170.68 192.16 169.81 192.42 L 168.85 192.72 C 167.98 192.98 167.49 193.90 167.75 194.76 C 168.02 195.63 168.93 196.12 169.80 195.86 Z M 170.79 195.55 L 171.73 195.25 C 172.59 194.97 173.06 194.05 172.79 193.19 C 172.51 192.33 171.59 191.85 170.73 192.13 L 169.79 192.43 C 168.92 192.71 168.45 193.63 168.73 194.49 C 169.00 195.35 169.93 195.83 170.79 195.55 Z M 171.76 195.24 L 172.74 194.90 C 173.59 194.60 174.05 193.67 173.75 192.82 C 173.45 191.96 172.52 191.51 171.67 191.81 L 170.69 192.14 C 169.84 192.44 169.38 193.37 169.68 194.23 C 169.98 195.08 170.91 195.53 171.76 195.24 Z M 172.78 194.89 L 173.73 194.53 C 174.58 194.21 175.01 193.26 174.69 192.42 C 174.37 191.57 173.43 191.14 172.58 191.46 L 171.63 191.82 C 170.78 192.14 170.35 193.08 170.67 193.93 C 170.99 194.77 171.93 195.20 172.78 194.89 Z M 173.77 194.51 L 174.68 194.14 C 175.52 193.80 175.92 192.85 175.58 192.01 C 175.24 191.17 174.29 190.77 173.45 191.11 L 172.54 191.48 C 171.70 191.82 171.30 192.77 171.64 193.61 C 171.98 194.45 172.94 194.85 173.77 194.51 Z M 174.72 194.13 L 175.60 193.74 C 176.43 193.38 176.81 192.42 176.45 191.59 C 176.09 190.76 175.12 190.38 174.29 190.74 L 173.41 191.12 C 172.59 191.48 172.21 192.45 172.57 193.28 C 172.93 194.11 173.89 194.49 174.72 194.13 Z M 175.63 193.73 L 176.55 193.30 C 177.38 192.92 177.73 191.95 177.35 191.13 C 176.97 190.31 176.00 189.95 175.18 190.33 L 174.26 190.76 C 173.44 191.14 173.08 192.11 173.46 192.93 C 173.84 193.75 174.81 194.11 175.63 193.73 Z M 176.58 193.29 L 177.48 192.85 C 178.29 192.46 178.63 191.48 178.24 190.67 C 177.84 189.85 176.87 189.51 176.05 189.91 L 175.15 190.34 C 174.34 190.74 174.00 191.72 174.39 192.53 C 174.79 193.34 175.77 193.68 176.58 193.29 Z M 177.49 192.85 L 178.38 192.41 C 179.19 192.01 179.52 191.02 179.12 190.21 C 178.71 189.40 177.73 189.07 176.92 189.48 L 176.04 189.92 C 175.23 190.32 174.90 191.30 175.30 192.11 C 175.70 192.92 176.68 193.25 177.49 192.85 Z M 178.38 192.41 L 178.59 192.30 C 179.40 191.90 179.73 190.91 179.33 190.10 C 178.92 189.30 177.94 188.97 177.13 189.37 L 176.92 189.48 C 176.11 189.88 175.78 190.87 176.19 191.67 C 176.59 192.48 177.57 192.81 178.38 192.41 Z"
      fill="black"
      fill-rule="nonzero" /><path d="M 190.49 117.11 L 191.34 117.51 C 192.24 117.93 193.31 117.55 193.73 116.65 C 194.15 115.75 193.77 114.69 192.87 114.26 L 192.02 113.86 C 191.12 113.44 190.06 113.82 189.63 114.72 C 189.21 115.62 189.60 116.68 190.49 117.11 Z M 191.25 117.46 L 192.09 117.92 C 192.96 118.40 194.05 118.08 194.53 117.21 C 195.00 116.34 194.69 115.25 193.82 114.78 L 192.97 114.31 C 192.10 113.84 191.01 114.15 190.54 115.02 C 190.06 115.89 190.38 116.98 191.25 117.46 Z M 191.92 117.82 L 192.75 118.40 C 193.56 118.97 194.68 118.78 195.25 117.97 C 195.82 117.16 195.63 116.04 194.82 115.47 L 193.99 114.88 C 193.18 114.31 192.06 114.50 191.49 115.31 C 190.92 116.12 191.11 117.24 191.92 117.82 Z M 192.55 118.24 L 193.31 118.96 C 194.03 119.64 195.17 119.61 195.85 118.89 C 196.53 118.17 196.50 117.03 195.78 116.35 L 195.02 115.63 C 194.30 114.95 193.16 114.98 192.48 115.70 C 191.80 116.42 191.83 117.56 192.55 118.24 Z M 193.17 118.79 L 193.78 119.53 C 194.41 120.28 195.53 120.39 196.29 119.76 C 197.04 119.13 197.15 118.01 196.52 117.26 L 195.91 116.52 C 195.29 115.76 194.17 115.66 193.41 116.28 C 192.65 116.91 192.55 118.03 193.17 118.79 Z M 193.72 119.40 L 194.29 120.23 C 194.85 121.02 195.95 121.21 196.74 120.66 C 197.53 120.10 197.73 119.01 197.17 118.21 L 196.59 117.38 C 196.04 116.59 194.94 116.40 194.15 116.95 C 193.35 117.51 193.16 118.60 193.72 119.40 Z M 194.26 120.12 L 194.80 121.01 C 195.30 121.82 196.36 122.08 197.18 121.58 C 197.99 121.08 198.25 120.01 197.75 119.20 L 197.21 118.32 C 196.71 117.50 195.65 117.24 194.83 117.74 C 194.01 118.24 193.76 119.31 194.26 120.12 Z M 194.77 120.92 L 195.26 121.82 C 195.72 122.65 196.75 122.95 197.58 122.50 C 198.41 122.05 198.71 121.01 198.26 120.18 L 197.77 119.28 C 197.32 118.46 196.28 118.15 195.45 118.60 C 194.63 119.05 194.32 120.09 194.77 120.92 Z M 195.25 121.74 L 195.71 122.68 C 196.12 123.52 197.13 123.86 197.97 123.45 C 198.80 123.04 199.15 122.03 198.74 121.20 L 198.28 120.26 C 197.87 119.42 196.86 119.07 196.02 119.48 C 195.18 119.89 194.84 120.91 195.25 121.74 Z M 195.69 122.61 L 196.11 123.56 C 196.48 124.41 197.47 124.79 198.31 124.42 C 199.16 124.05 199.55 123.06 199.17 122.22 L 198.76 121.27 C 198.38 120.42 197.40 120.03 196.55 120.41 C 195.70 120.78 195.32 121.76 195.69 122.61 Z M 196.10 123.50 L 196.46 124.42 C 196.80 125.28 197.77 125.69 198.62 125.35 C 199.47 125.02 199.89 124.05 199.55 123.20 L 199.19 122.28 C 198.85 121.42 197.88 121.01 197.03 121.35 C 196.18 121.69 195.76 122.65 196.10 123.50 Z M 196.46 124.38 L 196.79 125.28 C 197.11 126.14 198.06 126.57 198.91 126.26 C 199.77 125.94 200.20 124.99 199.89 124.14 L 199.55 123.24 C 199.24 122.38 198.29 121.95 197.43 122.26 C 196.58 122.58 196.14 123.53 196.46 124.38 Z M 196.79 125.26 L 197.01 125.85 C 197.31 126.71 198.25 127.15 199.10 126.85 C 199.96 126.54 200.40 125.60 200.10 124.75 L 199.88 124.16 C 199.58 123.30 198.64 122.86 197.78 123.16 C 196.93 123.47 196.49 124.41 196.79 125.26 Z"
      fill="black"
      fill-rule="nonzero" /><path d="M 202.62 112.31 L 203.19 113.04 C 203.78 113.80 204.87 113.93 205.63 113.34 C 206.39 112.75 206.52 111.65 205.93 110.90 L 205.36 110.17 C 204.77 109.41 203.67 109.28 202.92 109.87 C 202.16 110.46 202.03 111.55 202.62 112.31 Z M 203.14 113.03 L 203.72 113.80 C 204.30 114.58 205.41 114.74 206.19 114.16 C 206.98 113.57 207.14 112.47 206.55 111.69 L 205.98 110.91 C 205.39 110.13 204.28 109.97 203.50 110.55 C 202.72 111.14 202.56 112.24 203.14 113.03 Z M 203.66 113.76 L 204.25 114.62 C 204.81 115.44 205.92 115.65 206.74 115.08 C 207.56 114.52 207.77 113.41 207.21 112.59 L 206.62 111.73 C 206.06 110.91 204.94 110.70 204.12 111.26 C 203.30 111.82 203.10 112.94 203.66 113.76 Z M 204.19 114.56 L 204.72 115.43 C 205.25 116.28 206.37 116.54 207.22 116.02 C 208.07 115.49 208.33 114.37 207.81 113.52 L 207.27 112.65 C 206.74 111.80 205.63 111.54 204.77 112.06 C 203.92 112.59 203.66 113.71 204.19 114.56 Z M 204.69 115.37 L 205.17 116.21 C 205.67 117.08 206.77 117.39 207.64 116.89 C 208.51 116.40 208.81 115.29 208.32 114.42 L 207.84 113.58 C 207.34 112.71 206.24 112.41 205.37 112.90 C 204.50 113.39 204.20 114.50 204.69 115.37 Z M 205.16 116.17 L 205.64 117.06 C 206.11 117.94 207.20 118.27 208.08 117.80 C 208.95 117.33 209.28 116.24 208.81 115.37 L 208.33 114.47 C 207.86 113.60 206.77 113.27 205.90 113.74 C 205.02 114.21 204.70 115.29 205.16 116.17 Z M 205.64 117.03 L 206.11 117.95 C 206.56 118.82 207.64 119.17 208.51 118.72 C 209.39 118.27 209.73 117.19 209.28 116.32 L 208.81 115.40 C 208.36 114.53 207.29 114.18 206.41 114.63 C 205.54 115.08 205.19 116.15 205.64 117.03 Z M 206.12 117.92 L 206.57 118.83 C 207.01 119.71 208.07 120.06 208.94 119.63 C 209.81 119.19 210.17 118.13 209.73 117.26 L 209.28 116.35 C 208.84 115.47 207.78 115.12 206.91 115.55 C 206.04 115.99 205.68 117.05 206.12 117.92 Z M 206.58 118.81 L 207.04 119.75 C 207.46 120.61 208.50 120.97 209.37 120.55 C 210.24 120.13 210.60 119.09 210.18 118.22 L 209.72 117.28 C 209.30 116.42 208.26 116.06 207.39 116.48 C 206.52 116.90 206.16 117.94 206.58 118.81 Z M 207.06 119.72 L 207.49 120.63 C 207.90 121.49 208.92 121.85 209.78 121.44 C 210.63 121.04 211.00 120.01 210.59 119.16 L 210.16 118.25 C 209.75 117.39 208.73 117.03 207.87 117.43 C 207.02 117.84 206.65 118.87 207.06 119.72 Z M 207.51 120.61 L 207.93 121.50 C 208.33 122.34 209.33 122.71 210.18 122.31 C 211.02 121.92 211.38 120.91 210.99 120.07 L 210.57 119.18 C 210.17 118.33 209.17 117.97 208.33 118.37 C 207.48 118.76 207.12 119.77 207.51 120.61 Z M 207.96 121.48 L 208.37 122.36 C 208.75 123.19 209.74 123.55 210.57 123.17 C 211.40 122.78 211.76 121.80 211.37 120.97 L 210.96 120.09 C 210.58 119.26 209.59 118.90 208.76 119.28 C 207.93 119.67 207.57 120.65 207.96 121.48 Z M 208.38 122.36 L 208.47 122.54 C 208.85 123.36 209.82 123.72 210.65 123.34 C 211.47 122.96 211.82 121.98 211.44 121.16 L 211.36 120.97 C 210.98 120.15 210.00 119.80 209.18 120.18 C 208.36 120.56 208.00 121.53 208.38 122.36 Z"
      fill="black"
      fill-rule="nonzero" /></svg>