<svg xmlns="http://www.w3.org/2000/svg" width="300" height="300" viewBox="0 0 300 300">
<path d="M 134.18 132.61 L 135.13 132.96 C 136.09 133.32 137.16 132.84 137.52 131.87 C 137.88 130.91 137.39 129.84 136.43 129.49 L 135.48 129.13 C 134.52 128.77 133.45 129.26 133.09 130.22 C 132.73 131.18 133.22 132.25 134.18 132.61 Z M 135.17 133.02 L 136.12 133.34 C 137.12 133.68 138.19 133.14 138.53 132.15 C 138.86 131.15 138.33 130.08 137.33 129.75 L 136.38 129.43 C 135.39 129.09 134.31 129.63 133.98 130.62 C 133.64 131.61 134.18 132.69 135.17 133.02 Z M 136.24 133.42 L 137.20 133.67 C 138.23 133.94 139.29 133.32 139.56 132.29 C 139.84 131.25 139.22 130.19 138.18 129.92 L 137.22 129.67 C 136.18 129.40 135.12 130.02 134.85 131.05 C 134.58 132.09 135.20 133.15 136.24 133.42 Z M 137.38 133.75 L 138.36 133.90 C 139.44 134.07 140.46 133.33 140.62 132.25 C 140.79 131.17 140.05 130.16 138.97 129.99 L 137.99 129.84 C 136.91 129.67 135.90 130.41 135.73 131.49 C 135.57 132.57 136.30 133.58 137.38 133.75 Z M 138.61 133.95 L 139.55 133.98 C 140.65 134.01 141.58 133.15 141.61 132.04 C 141.65 130.94 140.78 130.01 139.67 129.98 L 138.73 129.95 C 137.63 129.92 136.70 130.78 136.67 131.89 C 136.63 132.99 137.50 133.91 138.61 133.95 Z M 139.75 133.98 L 140.72 133.91 C 141.82 133.83 142.65 132.87 142.57 131.77 C 142.50 130.67 141.54 129.84 140.44 129.91 L 139.47 129.98 C 138.37 130.06 137.54 131.02 137.62 132.12 C 137.69 133.22 138.65 134.05 139.75 133.98 Z M 140.86 133.89 L 141.85 133.75 C 142.94 133.60 143.71 132.59 143.55 131.49 C 143.40 130.40 142.39 129.64 141.29 129.79 L 140.30 129.93 C 139.20 130.08 138.44 131.10 138.60 132.19 C 138.75 133.28 139.76 134.05 140.86 133.89 Z M 141.93 133.74 L 142.96 133.55 C 144.05 133.35 144.77 132.31 144.57 131.22 C 144.37 130.14 143.33 129.42 142.24 129.62 L 141.21 129.80 C 140.12 130.00 139.41 131.05 139.60 132.13 C 139.80 133.22 140.85 133.94 141.93 133.74 Z M 142.99 133.54 L 143.97 133.35 C 145.05 133.13 145.75 132.08 145.53 131.00 C 145.32 129.91 144.26 129.21 143.18 129.43 L 142.21 129.62 C 141.13 129.84 140.43 130.89 140.64 131.97 C 140.86 133.06 141.91 133.76 142.99 133.54 Z M 143.97 133.34 L 144.91 133.15 C 145.99 132.93 146.68 131.88 146.46 130.80 C 146.24 129.72 145.19 129.02 144.11 129.24 L 143.17 129.43 C 142.10 129.65 141.40 130.71 141.62 131.79 C 141.84 132.87 142.89 133.56 143.97 133.34 Z M 144.91 133.15 L 145.88 132.94 C 146.95 132.72 147.64 131.66 147.42 130.59 C 147.20 129.51 146.14 128.82 145.06 129.05 L 144.10 129.25 C 143.02 129.47 142.33 130.53 142.56 131.60 C 142.78 132.68 143.84 133.37 144.91 133.15 Z M 145.88 132.94 L 146.88 132.73 C 147.95 132.50 148.64 131.44 148.41 130.37 C 148.18 129.30 147.12 128.61 146.05 128.84 L 145.06 129.05 C 143.98 129.28 143.30 130.33 143.53 131.41 C 143.76 132.48 144.81 133.17 145.88 132.94 Z M 146.88 132.72 L 147.91 132.50 C 148.98 132.27 149.66 131.22 149.43 130.14 C 149.19 129.07 148.14 128.39 147.07 128.62 L 146.05 128.85 C 144.97 129.08 144.29 130.13 144.53 131.20 C 144.76 132.27 145.81 132.95 146.88 132.72 Z M 147.91 132.50 L 148.95 132.27 C 150.02 132.04 150.69 130.98 150.46 129.91 C 150.22 128.84 149.17 128.17 148.10 128.40 L 147.06 128.63 C 146.00 128.86 145.32 129.92 145.55 130.99 C 145.79 132.05 146.84 132.73 147.91 132.50 Z M 148.95 132.26 L 149.98 132.03 C 151.05 131.80 151.72 130.74 151.48 129.68 C 151.24 128.61 150.19 127.94 149.13 128.18 L 148.10 128.41 C 147.03 128.65 146.36 129.70 146.60 130.76 C 146.83 131.83 147.89 132.50 148.95 132.26 Z M 149.99 132.03 L 151.01 131.80 C 152.07 131.56 152.74 130.50 152.50 129.44 C 152.26 128.38 151.21 127.72 150.14 127.96 L 149.12 128.19 C 148.06 128.43 147.39 129.48 147.63 130.54 C 147.87 131.60 148.93 132.27 149.99 132.03 Z M 151.02 131.79 L 152.01 131.56 C 153.07 131.32 153.73 130.27 153.48 129.21 C 153.24 128.15 152.19 127.49 151.13 127.73 L 150.14 127.96 C 149.08 128.20 148.42 129.26 148.66 130.31 C 148.91 131.37 149.96 132.03 151.02 131.79 Z M 152.02 131.55 L 152.95 131.33 C 154.01 131.09 154.66 130.04 154.41 128.98 C 154.17 127.93 153.12 127.28 152.06 127.52 L 151.13 127.74 C 150.07 127.99 149.42 129.04 149.66 130.09 C 149.91 131.15 150.96 131.80 152.02 131.55 Z M 152.96 131.33 L 153.84 131.12 C 154.89 130.87 155.54 129.81 155.28 128.76 C 155.03 127.72 153.98 127.07 152.93 127.32 L 152.05 127.53 C 151.01 127.78 150.36 128.83 150.61 129.88 C 150.86 130.93 151.92 131.58 152.96 131.33 Z M 153.85 131.11 L 154.86 130.86 C 155.90 130.60 156.54 129.54 156.28 128.50 C 156.02 127.46 154.97 126.82 153.92 127.08 L 152.92 127.33 C 151.88 127.59 151.24 128.64 151.50 129.69 C 151.76 130.73 152.81 131.36 153.85 131.11 Z M 154.87 130.85 L 155.79 130.61 C 156.83 130.35 157.46 129.30 157.19 128.26 C 156.93 127.22 155.87 126.59 154.84 126.86 L 153.92 127.09 C 152.88 127.35 152.25 128.41 152.51 129.45 C 152.78 130.48 153.83 131.11 154.87 130.85 Z M 155.79 130.61 L 156.72 130.37 C 157.75 130.11 158.37 129.06 158.11 128.03 C 157.85 126.99 156.80 126.37 155.77 126.63 L 154.84 126.87 C 153.81 127.13 153.18 128.18 153.44 129.21 C 153.71 130.24 154.75 130.87 155.79 130.61 Z M 156.70 130.37 L 157.71 130.12 C 158.74 129.86 159.37 128.82 159.12 127.79 C 158.86 126.76 157.82 126.13 156.79 126.39 L 155.78 126.63 C 154.75 126.89 154.12 127.93 154.38 128.96 C 154.63 129.99 155.67 130.62 156.70 130.37 Z M 157.69 130.12 L 158.57 129.91 C 159.60 129.66 160.23 128.63 159.99 127.60 C 159.74 126.57 158.71 125.93 157.68 126.18 L 156.81 126.39 C 155.78 126.63 155.14 127.67 155.39 128.70 C 155.63 129.73 156.66 130.36 157.69 130.12 Z M 158.56 129.91 L 159.51 129.69 C 160.54 129.45 161.18 128.42 160.94 127.39 C 160.70 126.36 159.67 125.72 158.64 125.96 L 157.69 126.18 C 156.66 126.42 156.02 127.45 156.26 128.48 C 156.50 129.51 157.53 130.15 158.56 129.91 Z M 159.50 129.68 L 160.50 129.46 C 161.53 129.22 162.17 128.20 161.94 127.17 C 161.70 126.15 160.68 125.50 159.65 125.73 L 158.65 125.96 C 157.62 126.19 156.98 127.22 157.21 128.24 C 157.45 129.27 158.47 129.92 159.50 129.68 Z M 160.49 129.46 L 161.51 129.23 C 162.54 129.00 163.19 127.99 162.96 126.96 C 162.73 125.93 161.72 125.28 160.69 125.51 L 159.66 125.73 C 158.64 125.96 157.99 126.98 158.21 128.01 C 158.44 129.04 159.46 129.68 160.49 129.46 Z M 161.50 129.23 L 162.53 129.01 C 163.55 128.79 164.21 127.78 163.99 126.75 C 163.77 125.72 162.75 125.07 161.73 125.29 L 160.70 125.51 C 159.67 125.73 159.02 126.74 159.24 127.77 C 159.46 128.80 160.47 129.45 161.50 129.23 Z M 162.51 129.01 L 163.56 128.79 C 164.58 128.58 165.24 127.57 165.03 126.55 C 164.81 125.52 163.81 124.86 162.78 125.07 L 161.74 125.29 C 160.71 125.50 160.05 126.51 160.27 127.54 C 160.48 128.56 161.49 129.22 162.51 129.01 Z M 163.54 128.79 L 164.56 128.59 C 165.59 128.38 166.26 127.39 166.05 126.36 C 165.85 125.33 164.85 124.67 163.82 124.87 L 162.80 125.07 C 161.77 125.28 161.11 126.27 161.31 127.30 C 161.51 128.33 162.51 128.99 163.54 128.79 Z M 164.54 128.59 L 165.53 128.40 C 166.56 128.21 167.23 127.23 167.04 126.20 C 166.85 125.17 165.87 124.50 164.84 124.69 L 163.85 124.87 C 162.82 125.06 162.14 126.05 162.33 127.07 C 162.52 128.10 163.51 128.78 164.54 128.59 Z M 165.50 128.40 L 166.46 128.24 C 167.49 128.07 168.18 127.10 168.00 126.07 C 167.83 125.04 166.86 124.35 165.83 124.52 L 164.87 124.69 C 163.84 124.86 163.15 125.83 163.32 126.86 C 163.50 127.89 164.47 128.58 165.50 128.40 Z M 166.42 128.24 L 167.35 128.10 C 168.38 127.95 169.09 126.99 168.94 125.97 C 168.78 124.94 167.83 124.23 166.80 124.38 L 165.87 124.52 C 164.84 124.67 164.13 125.63 164.28 126.66 C 164.44 127.69 165.39 128.40 166.42 128.24 Z M 167.31 128.11 L 168.31 127.98 C 169.34 127.86 170.07 126.92 169.95 125.89 C 169.82 124.86 168.88 124.13 167.85 124.25 L 166.84 124.38 C 165.81 124.51 165.08 125.45 165.21 126.48 C 165.34 127.51 166.28 128.24 167.31 128.11 Z M 168.26 127.99 L 169.28 127.89 C 170.32 127.79 171.07 126.87 170.97 125.84 C 170.87 124.81 169.95 124.05 168.92 124.15 L 167.90 124.25 C 166.87 124.35 166.11 125.27 166.21 126.30 C 166.31 127.33 167.23 128.09 168.26 127.99 Z M 169.24 127.89 L 170.23 127.82 C 171.26 127.75 172.04 126.85 171.97 125.81 C 171.89 124.78 170.99 124.00 169.96 124.07 L 168.96 124.15 C 167.93 124.22 167.15 125.12 167.23 126.16 C 167.30 127.19 168.20 127.97 169.24 127.89 Z M 170.19 127.82 L 171.16 127.77 C 172.20 127.72 172.99 126.84 172.94 125.80 C 172.89 124.77 172.00 123.97 170.97 124.02 L 170.00 124.07 C 168.96 124.13 168.16 125.01 168.22 126.04 C 168.27 127.08 169.15 127.88 170.19 127.82 Z M 171.13 127.77 L 172.13 127.74 C 173.17 127.71 173.98 126.84 173.94 125.80 C 173.91 124.76 173.04 123.95 172.00 123.99 L 171.00 124.02 C 169.96 124.06 169.15 124.92 169.19 125.96 C 169.22 127.00 170.09 127.81 171.13 127.77 Z M 172.08 127.74 L 173.14 127.73 C 174.17 127.73 175.01 126.88 175.00 125.85 C 175.00 124.81 174.15 123.98 173.11 123.98 L 172.05 123.99 C 171.02 123.99 170.18 124.84 170.19 125.88 C 170.20 126.91 171.04 127.75 172.08 127.74 Z M 173.03 127.73 L 174.03 127.78 C 175.07 127.84 175.95 127.04 176.00 126.01 C 176.06 124.97 175.26 124.09 174.23 124.04 L 173.22 123.99 C 172.19 123.93 171.31 124.73 171.25 125.76 C 171.20 126.79 171.99 127.68 173.03 127.73 Z M 173.85 127.76 L 174.78 127.90 C 175.81 128.06 176.76 127.35 176.91 126.33 C 177.07 125.31 176.37 124.36 175.34 124.20 L 174.41 124.06 C 173.39 123.90 172.44 124.61 172.28 125.63 C 172.13 126.65 172.83 127.61 173.85 127.76 Z M 174.49 127.83 L 175.42 128.13 C 176.41 128.45 177.46 127.91 177.78 126.93 C 178.09 125.95 177.56 124.89 176.57 124.57 L 175.64 124.27 C 174.66 123.96 173.60 124.49 173.28 125.48 C 172.97 126.46 173.51 127.51 174.49 127.83 Z M 175.05 127.96 L 175.91 128.47 C 176.80 128.99 177.95 128.69 178.47 127.80 C 178.99 126.91 178.69 125.77 177.80 125.25 L 176.94 124.74 C 176.05 124.22 174.91 124.52 174.39 125.41 C 173.86 126.30 174.16 127.44 175.05 127.96 Z M 175.58 128.22 L 176.29 128.89 C 177.04 129.59 178.22 129.55 178.93 128.80 C 179.63 128.05 179.60 126.87 178.85 126.17 L 178.13 125.50 C 177.38 124.79 176.20 124.83 175.50 125.58 C 174.79 126.33 174.83 127.51 175.58 128.22 Z M 176.06 128.62 L 176.58 129.34 C 177.18 130.18 178.35 130.37 179.18 129.76 C 180.02 129.16 180.21 128.00 179.60 127.16 L 179.08 126.43 C 178.48 125.60 177.31 125.41 176.48 126.01 C 175.64 126.62 175.45 127.78 176.06 128.62 Z M 176.43 129.09 L 176.81 129.85 C 177.27 130.77 178.39 131.14 179.31 130.68 C 180.23 130.22 180.60 129.10 180.14 128.18 L 179.76 127.41 C 179.30 126.49 178.18 126.12 177.25 126.59 C 176.33 127.05 175.96 128.17 176.43 129.09 Z M 176.71 129.61 L 177.02 130.53 C 177.35 131.51 178.41 132.03 179.38 131.70 C 180.36 131.37 180.88 130.32 180.55 129.34 L 180.24 128.42 C 179.91 127.44 178.85 126.92 177.88 127.25 C 176.90 127.58 176.38 128.63 176.71 129.61 Z M 176.96 130.33 L 177.21 131.46 C 177.42 132.47 178.42 133.11 179.42 132.89 C 180.43 132.67 181.07 131.68 180.85 130.67 L 180.61 129.54 C 180.39 128.53 179.40 127.89 178.39 128.11 C 177.38 128.33 176.74 129.32 176.96 130.33 Z M 177.18 131.32 L 177.32 132.34 C 177.46 133.37 178.41 134.08 179.43 133.94 C 180.45 133.79 181.16 132.85 181.02 131.83 L 180.88 130.81 C 180.74 129.79 179.79 129.07 178.77 129.21 C 177.75 129.36 177.04 130.30 177.18 131.32 Z M 177.31 132.26 L 177.40 133.18 C 177.49 134.21 178.40 134.96 179.43 134.87 C 180.46 134.77 181.21 133.86 181.12 132.84 L 181.03 131.91 C 180.94 130.89 180.03 130.13 179.00 130.23 C 177.97 130.32 177.22 131.23 177.31 132.26 Z M 177.39 133.11 L 177.44 134.10 C 177.50 135.13 178.38 135.92 179.41 135.86 C 180.44 135.81 181.23 134.93 181.18 133.90 L 181.12 132.91 C 181.07 131.88 180.19 131.09 179.16 131.14 C 178.13 131.20 177.34 132.08 177.39 133.11 Z M 177.44 134.02 L 177.46 135.05 C 177.47 136.09 178.32 136.91 179.35 136.90 C 180.39 136.88 181.21 136.03 181.19 135.00 L 181.18 133.97 C 181.16 132.94 180.31 132.11 179.28 132.13 C 178.25 132.14 177.43 132.99 177.44 134.02 Z M 177.46 134.98 L 177.43 136.03 C 177.40 137.06 178.22 137.92 179.25 137.95 C 180.28 137.98 181.14 137.16 181.17 136.13 L 181.19 135.08 C 181.22 134.04 180.41 133.19 179.38 133.16 C 178.34 133.13 177.48 133.95 177.46 134.98 Z M 177.43 135.94 L 177.36 137.00 C 177.28 138.03 178.05 138.92 179.08 139.00 C 180.11 139.07 181.01 138.30 181.09 137.27 L 181.16 136.22 C 181.24 135.19 180.46 134.29 179.43 134.21 C 178.40 134.14 177.51 134.91 177.43 135.94 Z M 177.37 136.89 L 177.23 137.95 C 177.10 138.97 177.82 139.91 178.85 140.04 C 179.87 140.17 180.81 139.45 180.94 138.43 L 181.08 137.37 C 181.21 136.35 180.48 135.41 179.46 135.28 C 178.44 135.14 177.50 135.87 177.37 136.89 Z M 177.25 137.83 L 177.04 138.92 C 176.84 139.94 177.51 140.92 178.52 141.11 C 179.54 141.31 180.52 140.64 180.71 139.63 L 180.92 138.54 C 181.12 137.53 180.45 136.55 179.44 136.35 C 178.42 136.16 177.44 136.82 177.25 137.83 Z M 177.06 138.82 L 176.80 139.85 C 176.55 140.86 177.16 141.87 178.16 142.12 C 179.16 142.38 180.18 141.77 180.43 140.77 L 180.69 139.73 C 180.94 138.73 180.33 137.72 179.33 137.46 C 178.33 137.21 177.31 137.82 177.06 138.82 Z M 176.82 139.77 L 176.53 140.74 C 176.23 141.73 176.79 142.78 177.78 143.07 C 178.77 143.37 179.81 142.81 180.11 141.83 L 180.40 140.85 C 180.70 139.86 180.15 138.82 179.16 138.52 C 178.17 138.22 177.12 138.78 176.82 139.77 Z M 176.55 140.68 L 176.24 141.58 C 175.90 142.56 176.42 143.62 177.40 143.96 C 178.38 144.30 179.44 143.78 179.78 142.80 L 180.09 141.89 C 180.42 140.92 179.91 139.85 178.93 139.52 C 177.95 139.18 176.89 139.70 176.55 140.68 Z M 176.26 141.54 L 175.94 142.37 C 175.58 143.34 176.07 144.42 177.04 144.78 C 178.00 145.14 179.08 144.65 179.44 143.69 L 179.76 142.85 C 180.12 141.88 179.63 140.80 178.66 140.44 C 177.70 140.08 176.62 140.57 176.26 141.54 Z M 175.95 142.34 L 175.59 143.27 C 175.21 144.23 175.68 145.32 176.64 145.70 C 177.60 146.08 178.69 145.61 179.07 144.65 L 179.43 143.72 C 179.81 142.75 179.34 141.67 178.38 141.29 C 177.42 140.91 176.33 141.38 175.95 142.34 Z M 175.60 143.25 L 175.19 144.24 C 174.80 145.19 175.26 146.28 176.22 146.67 C 177.17 147.06 178.26 146.61 178.65 145.65 L 179.05 144.67 C 179.45 143.71 178.99 142.62 178.03 142.23 C 177.08 141.84 175.99 142.30 175.60 143.25 Z M 175.21 144.22 L 174.83 145.10 C 174.43 146.05 174.87 147.14 175.82 147.55 C 176.76 147.95 177.86 147.51 178.26 146.56 L 178.64 145.68 C 179.04 144.73 178.60 143.63 177.65 143.23 C 176.71 142.83 175.61 143.27 175.21 144.22 Z M 174.84 145.08 L 174.47 145.92 C 174.06 146.86 174.48 147.96 175.43 148.38 C 176.37 148.79 177.47 148.36 177.88 147.42 L 178.25 146.58 C 178.66 145.64 178.24 144.54 177.30 144.13 C 176.35 143.71 175.26 144.14 174.84 145.08 Z M 174.48 145.91 L 174.09 146.78 C 173.67 147.72 174.08 148.82 175.02 149.24 C 175.96 149.66 177.06 149.25 177.48 148.31 L 177.87 147.44 C 178.29 146.50 177.87 145.40 176.94 144.98 C 176.00 144.56 174.90 144.97 174.48 145.91 Z M 174.10 146.77 L 173.68 147.68 C 173.25 148.62 173.66 149.72 174.59 150.14 C 175.52 150.57 176.63 150.16 177.05 149.23 L 177.47 148.32 C 177.90 147.39 177.49 146.29 176.56 145.86 C 175.62 145.43 174.52 145.84 174.10 146.77 Z M 173.69 147.67 L 173.26 148.59 C 172.83 149.51 173.23 150.61 174.15 151.05 C 175.08 151.48 176.18 151.08 176.61 150.16 L 177.04 149.24 C 177.48 148.32 177.08 147.21 176.15 146.78 C 175.23 146.35 174.12 146.75 173.69 147.67 Z M 173.27 148.57 L 172.84 149.47 C 172.40 150.39 172.78 151.49 173.70 151.94 C 174.62 152.38 175.73 151.99 176.17 151.07 L 176.60 150.17 C 177.04 149.25 176.66 148.15 175.74 147.71 C 174.82 147.26 173.72 147.65 173.27 148.57 Z M 172.86 149.45 L 172.40 150.37 C 171.95 151.28 172.32 152.39 173.23 152.84 C 174.14 153.29 175.24 152.92 175.70 152.01 L 176.15 151.09 C 176.61 150.18 176.23 149.08 175.32 148.62 C 174.41 148.17 173.31 148.54 172.86 149.45 Z M 172.41 150.35 L 171.96 151.25 C 171.49 152.15 171.85 153.25 172.75 153.72 C 173.66 154.18 174.76 153.82 175.22 152.92 L 175.68 152.03 C 176.14 151.12 175.79 150.02 174.88 149.56 C 173.98 149.09 172.88 149.45 172.41 150.35 Z M 171.97 151.23 L 171.51 152.11 C 171.04 153.00 171.39 154.11 172.28 154.57 C 173.18 155.04 174.28 154.70 174.75 153.80 L 175.21 152.93 C 175.68 152.04 175.33 150.93 174.44 150.46 C 173.54 149.99 172.44 150.34 171.97 151.23 Z M 171.52 152.10 L 171.06 152.97 C 170.59 153.86 170.92 154.96 171.81 155.43 C 172.70 155.91 173.80 155.57 174.28 154.68 L 174.74 153.81 C 175.21 152.92 174.88 151.82 173.99 151.35 C 173.10 150.87 172.00 151.21 171.52 152.10 Z M 171.07 152.96 L 170.60 153.84 C 170.12 154.72 170.45 155.82 171.33 156.30 C 172.22 156.78 173.32 156.45 173.79 155.57 L 174.27 154.69 C 174.74 153.81 174.41 152.70 173.53 152.23 C 172.65 151.75 171.55 152.08 171.07 152.96 Z M 170.61 153.84 L 170.13 154.71 C 169.65 155.59 169.97 156.69 170.85 157.16 C 171.73 157.64 172.82 157.32 173.30 156.45 L 173.78 155.57 C 174.26 154.69 173.94 153.60 173.06 153.12 C 172.19 152.64 171.09 152.96 170.61 153.84 Z M 170.14 154.71 L 169.66 155.58 C 169.17 156.45 169.49 157.55 170.36 158.03 C 171.23 158.51 172.33 158.20 172.81 157.33 L 173.29 156.45 C 173.77 155.58 173.46 154.48 172.59 154.00 C 171.72 153.52 170.62 153.84 170.14 154.71 Z M 169.67 155.58 L 169.19 156.44 C 168.70 157.31 169.01 158.40 169.88 158.88 C 170.74 159.36 171.83 159.05 172.32 158.19 L 172.80 157.33 C 173.28 156.46 172.97 155.37 172.10 154.89 C 171.24 154.41 170.15 154.72 169.67 155.58 Z M 169.19 156.45 L 168.71 157.32 C 168.23 158.18 168.53 159.26 169.39 159.74 C 170.25 160.23 171.34 159.92 171.82 159.06 L 172.31 158.19 C 172.79 157.33 172.48 156.24 171.62 155.76 C 170.76 155.28 169.68 155.59 169.19 156.45 Z M 168.71 157.32 L 168.22 158.21 C 167.74 159.06 168.05 160.14 168.91 160.62 C 169.76 161.10 170.84 160.79 171.32 159.94 L 171.81 159.05 C 172.29 158.20 171.98 157.12 171.13 156.64 C 170.27 156.16 169.19 156.47 168.71 157.32 Z M 168.23 158.22 L 167.74 159.09 C 167.27 159.95 167.58 161.02 168.43 161.49 C 169.29 161.96 170.36 161.66 170.83 160.80 L 171.32 159.92 C 171.79 159.07 171.48 158.00 170.62 157.53 C 169.77 157.05 168.70 157.36 168.23 158.22 Z M 167.75 159.11 L 167.27 159.98 C 166.80 160.83 167.11 161.90 167.97 162.36 C 168.82 162.83 169.88 162.52 170.35 161.67 L 170.83 160.79 C 171.29 159.94 170.98 158.87 170.13 158.41 C 169.28 157.94 168.21 158.25 167.75 159.11 Z M 167.27 159.99 L 166.79 160.87 C 166.33 161.72 166.65 162.78 167.49 163.24 C 168.34 163.70 169.40 163.39 169.86 162.54 L 170.34 161.66 C 170.80 160.81 170.49 159.75 169.64 159.29 C 168.79 158.83 167.73 159.14 167.27 159.99 Z M 166.80 160.88 L 166.32 161.76 C 165.86 162.60 166.18 163.66 167.02 164.12 C 167.87 164.57 168.92 164.26 169.38 163.42 L 169.86 162.53 C 170.32 161.69 170.00 160.63 169.16 160.18 C 168.31 159.72 167.26 160.03 166.80 160.88 Z M 166.33 161.76 L 165.87 162.62 C 165.41 163.46 165.73 164.51 166.57 164.96 C 167.41 165.42 168.46 165.10 168.91 164.26 L 169.37 163.41 C 169.83 162.57 169.51 161.52 168.67 161.07 C 167.83 160.61 166.78 160.92 166.33 161.76 Z M 165.88 162.63 L 165.41 163.49 C 164.96 164.33 165.27 165.37 166.11 165.82 C 166.94 166.27 167.98 165.96 168.44 165.12 L 168.90 164.26 C 169.35 163.42 169.04 162.38 168.20 161.93 C 167.37 161.48 166.33 161.79 165.88 162.63 Z M 165.41 163.50 L 164.94 164.39 C 164.49 165.23 164.81 166.26 165.64 166.71 C 166.47 167.15 167.51 166.84 167.95 166.01 L 168.43 165.11 C 168.87 164.28 168.56 163.25 167.73 162.80 C 166.90 162.36 165.86 162.67 165.41 163.50 Z M 164.94 164.40 L 164.46 165.31 C 164.02 166.14 164.34 167.17 165.17 167.61 C 166.00 168.05 167.03 167.73 167.46 166.90 L 167.95 166.00 C 168.39 165.17 168.07 164.14 167.24 163.70 C 166.41 163.26 165.38 163.57 164.94 164.40 Z M 164.47 165.32 L 164.00 166.21 C 163.57 167.04 163.88 168.06 164.71 168.50 C 165.54 168.93 166.56 168.61 166.99 167.78 L 167.46 166.89 C 167.89 166.07 167.57 165.05 166.75 164.61 C 165.92 164.18 164.90 164.50 164.47 165.32 Z M 164.01 166.22 L 163.54 167.12 C 163.11 167.95 163.43 168.96 164.25 169.39 C 165.07 169.82 166.09 169.50 166.52 168.68 L 166.99 167.77 C 167.42 166.95 167.10 165.94 166.27 165.51 C 165.45 165.08 164.43 165.40 164.01 166.22 Z M 163.54 167.13 L 163.08 168.02 C 162.65 168.84 162.97 169.85 163.79 170.28 C 164.61 170.70 165.62 170.38 166.05 169.56 L 166.51 168.67 C 166.94 167.85 166.62 166.84 165.80 166.41 C 164.98 165.99 163.97 166.31 163.54 167.13 Z M 163.09 168.02 L 162.63 168.91 C 162.20 169.72 162.52 170.73 163.34 171.15 C 164.16 171.58 165.16 171.26 165.58 170.44 L 166.04 169.56 C 166.47 168.74 166.15 167.74 165.33 167.31 C 164.52 166.89 163.51 167.21 163.09 168.02 Z M 162.63 168.91 L 162.16 169.83 C 161.73 170.64 162.05 171.65 162.86 172.07 C 163.67 172.49 164.68 172.17 165.10 171.36 L 165.58 170.44 C 166.00 169.63 165.68 168.63 164.87 168.20 C 164.06 167.78 163.06 168.10 162.63 168.91 Z M 162.16 169.83 L 161.70 170.71 C 161.28 171.52 161.59 172.52 162.40 172.94 C 163.21 173.37 164.21 173.05 164.63 172.24 L 165.09 171.36 C 165.51 170.55 165.20 169.55 164.39 169.13 C 163.58 168.71 162.58 169.02 162.16 169.83 Z M 161.71 170.72 L 161.26 171.57 C 160.84 172.38 161.15 173.38 161.96 173.80 C 162.77 174.22 163.76 173.90 164.18 173.10 L 164.63 172.24 C 165.05 171.43 164.74 170.44 163.93 170.02 C 163.12 169.60 162.13 169.91 161.71 170.72 Z M 161.26 171.58 L 160.81 172.45 C 160.39 173.26 160.70 174.25 161.50 174.67 C 162.31 175.09 163.30 174.78 163.72 173.97 L 164.18 173.10 C 164.60 172.29 164.29 171.30 163.48 170.88 C 162.68 170.46 161.68 170.77 161.26 171.58 Z M 160.81 172.45 L 160.34 173.34 C 159.92 174.14 160.23 175.14 161.04 175.56 C 161.84 175.98 162.83 175.67 163.25 174.86 L 163.72 173.97 C 164.14 173.17 163.83 172.18 163.02 171.76 C 162.22 171.34 161.23 171.65 160.81 172.45 Z M 160.35 173.34 L 159.88 174.22 C 159.46 175.02 159.77 176.01 160.57 176.44 C 161.37 176.86 162.36 176.55 162.78 175.75 L 163.25 174.86 C 163.67 174.06 163.36 173.07 162.56 172.65 C 161.76 172.23 160.77 172.54 160.35 173.34 Z M 159.89 174.22 L 159.43 175.08 C 159.01 175.87 159.31 176.87 160.11 177.29 C 160.91 177.71 161.90 177.41 162.32 176.61 L 162.78 175.75 C 163.20 174.95 162.90 173.96 162.10 173.54 C 161.30 173.11 160.31 173.42 159.89 174.22 Z M 159.44 175.07 L 159.01 175.86 C 158.58 176.65 158.88 177.65 159.67 178.08 C 160.47 178.51 161.46 178.21 161.89 177.41 L 162.32 176.62 C 162.75 175.83 162.45 174.83 161.65 174.40 C 160.86 173.97 159.87 174.27 159.44 175.07 Z M 159.02 175.84 L 158.56 176.68 C 158.12 177.47 158.40 178.46 159.20 178.90 C 159.99 179.34 160.98 179.05 161.42 178.26 L 161.88 177.43 C 162.32 176.64 162.03 175.64 161.24 175.20 C 160.45 174.76 159.46 175.05 159.02 175.84 Z M 158.57 176.66 L 158.04 177.58 C 157.59 178.36 157.87 179.36 158.65 179.81 C 159.44 180.26 160.44 179.99 160.89 179.20 L 161.41 178.28 C 161.86 177.49 161.59 176.49 160.80 176.05 C 160.01 175.60 159.01 175.87 158.57 176.66 Z M 158.05 177.56 L 157.52 178.47 C 157.06 179.25 157.32 180.25 158.10 180.71 C 158.88 181.17 159.89 180.91 160.34 180.13 L 160.88 179.22 C 161.33 178.44 161.07 177.43 160.29 176.98 C 159.51 176.52 158.51 176.78 158.05 177.56 Z M 157.52 178.45 L 157.06 179.23 C 156.59 180.01 156.85 181.02 157.62 181.48 C 158.40 181.95 159.41 181.69 159.87 180.92 L 160.34 180.14 C 160.80 179.36 160.55 178.35 159.77 177.89 C 159.00 177.42 157.99 177.68 157.52 178.45 Z M 157.06 179.22 L 156.55 180.06 C 156.08 180.83 156.33 181.84 157.11 182.31 C 157.89 182.78 158.90 182.54 159.37 181.76 L 159.87 180.93 C 160.34 180.15 160.09 179.14 159.32 178.67 C 158.54 178.20 157.53 178.45 157.06 179.22 Z M 156.55 180.05 L 156.02 180.92 C 155.55 181.70 155.79 182.71 156.57 183.19 C 157.35 183.66 158.36 183.42 158.83 182.64 L 159.37 181.77 C 159.84 180.99 159.59 179.98 158.82 179.50 C 158.04 179.03 157.03 179.27 156.55 180.05 Z M 156.02 180.92 L 155.47 181.82 C 154.99 182.60 155.23 183.61 156.01 184.09 C 156.79 184.57 157.80 184.32 158.28 183.55 L 158.83 182.64 C 159.31 181.87 159.07 180.85 158.29 180.38 C 157.51 179.90 156.50 180.14 156.02 180.92 Z M 155.47 181.82 L 154.90 182.74 C 154.42 183.51 154.67 184.53 155.44 185.01 C 156.22 185.49 157.24 185.24 157.72 184.47 L 158.28 183.55 C 158.76 182.77 158.52 181.75 157.74 181.28 C 156.96 180.80 155.94 181.04 155.47 181.82 Z M 154.90 182.73 L 154.77 182.94 C 154.30 183.72 154.54 184.74 155.32 185.21 C 156.10 185.69 157.12 185.45 157.59 184.67 L 157.72 184.47 C 158.20 183.69 157.96 182.67 157.18 182.19 C 156.40 181.71 155.38 181.96 154.90 182.73 Z"
      fill="black"
      fill-rule="nonzero" /><path d="M 129.79 157.26 L 130.82 157.26 C 131.91 157.26 132.79 156.37 132.79 155.28 C 132.79 154.19 131.91 153.31 130.81 153.31 L 129.79 153.31 C 128.70 153.31 127.82 154.19 127.82 155.28 C 127.82 156.37 128.70 157.26 129.79 157.26 Z M 130.82 157.27 L 131.83 157.26 C 132.93 157.26 133.82 156.38 133.82 155.28 C 133.81 154.19 132.93 153.30 131.83 153.30 L 130.81 153.30 C 129.72 153.30 128.83 154.19 128.83 155.28 C 128.83 156.38 129.72 157.27 130.82 157.27 Z M 131.84 157.27 L 132.85 157.27 C 133.95 157.27 134.84 156.38 134.83 155.28 C 134.83 154.18 133.94 153.29 132.84 153.29 L 131.83 153.29 C 130.73 153.29 129.84 154.19 129.84 155.29 C 129.84 156.39 130.74 157.27 131.84 157.27 Z M 132.85 157.28 L 133.85 157.27 C 134.95 157.27 135.85 156.37 135.84 155.27 C 135.84 154.16 134.94 153.27 133.83 153.28 L 132.84 153.28 C 131.73 153.29 130.84 154.18 130.84 155.29 C 130.85 156.39 131.75 157.28 132.85 157.28 Z M 133.86 157.28 L 134.84 157.28 C 135.95 157.27 136.84 156.37 136.83 155.26 C 136.83 154.15 135.92 153.26 134.81 153.26 L 133.83 153.27 C 132.72 153.28 131.83 154.18 131.84 155.29 C 131.84 156.40 132.75 157.29 133.86 157.28 Z M 134.85 157.28 L 135.82 157.28 C 136.93 157.26 137.82 156.35 137.81 155.24 C 137.80 154.13 136.89 153.23 135.78 153.25 L 134.81 153.25 C 133.69 153.27 132.80 154.18 132.81 155.29 C 132.82 156.40 133.73 157.30 134.85 157.28 Z M 135.83 157.28 L 136.92 157.26 C 138.03 157.25 138.92 156.33 138.91 155.22 C 138.89 154.10 137.97 153.21 136.86 153.22 L 135.77 153.24 C 134.65 153.26 133.76 154.17 133.78 155.29 C 133.79 156.40 134.71 157.30 135.83 157.28 Z M 136.93 157.26 L 137.98 157.24 C 139.10 157.22 139.98 156.30 139.96 155.18 C 139.94 154.07 139.01 153.18 137.90 153.20 L 136.84 153.22 C 135.73 153.25 134.84 154.17 134.87 155.29 C 134.89 156.40 135.81 157.29 136.93 157.26 Z M 138.00 157.24 L 139.01 157.22 C 140.12 157.18 141.00 156.25 140.97 155.14 C 140.94 154.02 140.01 153.14 138.89 153.17 L 137.88 153.20 C 136.76 153.23 135.89 154.16 135.92 155.28 C 135.95 156.40 136.88 157.28 138.00 157.24 Z M 139.02 157.22 L 139.98 157.18 C 141.10 157.14 141.97 156.20 141.93 155.08 C 141.89 153.96 140.95 153.09 139.83 153.14 L 138.87 153.17 C 137.75 153.21 136.88 154.15 136.93 155.27 C 136.97 156.39 137.91 157.26 139.02 157.22 Z M 140.01 157.18 L 140.91 157.13 C 142.03 157.08 142.89 156.13 142.83 155.01 C 142.77 153.89 141.82 153.03 140.70 153.09 L 139.80 153.14 C 138.69 153.19 137.83 154.14 137.88 155.26 C 137.94 156.38 138.89 157.24 140.01 157.18 Z M 140.94 157.13 L 142.01 157.06 C 143.13 156.98 143.97 156.02 143.89 154.90 C 143.82 153.79 142.85 152.94 141.74 153.02 L 140.67 153.09 C 139.55 153.17 138.71 154.13 138.79 155.25 C 138.86 156.36 139.83 157.21 140.94 157.13 Z M 142.05 157.05 L 143.07 156.96 C 144.18 156.87 145.00 155.89 144.90 154.78 C 144.81 153.67 143.83 152.84 142.72 152.94 L 141.70 153.03 C 140.59 153.12 139.77 154.10 139.86 155.21 C 139.96 156.33 140.94 157.15 142.05 157.05 Z M 143.09 156.96 L 144.05 156.86 C 145.16 156.75 145.96 155.76 145.85 154.65 C 145.74 153.54 144.75 152.74 143.64 152.85 L 142.69 152.95 C 141.58 153.06 140.77 154.05 140.89 155.15 C 141.00 156.26 141.99 157.07 143.09 156.96 Z M 144.07 156.85 L 144.99 156.75 C 146.10 156.63 146.89 155.64 146.77 154.53 C 146.65 153.43 145.66 152.63 144.55 152.75 L 143.63 152.86 C 142.52 152.98 141.73 153.97 141.85 155.07 C 141.97 156.18 142.96 156.97 144.07 156.85 Z M 145.00 156.74 L 145.98 156.63 C 147.08 156.51 147.88 155.52 147.75 154.42 C 147.63 153.32 146.64 152.53 145.54 152.65 L 144.55 152.76 C 143.45 152.88 142.66 153.88 142.78 154.98 C 142.91 156.08 143.90 156.87 145.00 156.74 Z M 145.99 156.63 L 146.98 156.51 C 148.08 156.38 148.86 155.39 148.73 154.29 C 148.60 153.20 147.61 152.41 146.52 152.54 L 145.53 152.66 C 144.43 152.79 143.65 153.78 143.78 154.87 C 143.91 155.97 144.90 156.75 145.99 156.63 Z M 147.00 156.50 L 148.00 156.37 C 149.09 156.23 149.86 155.24 149.72 154.15 C 149.58 153.06 148.58 152.29 147.49 152.43 L 146.50 152.55 C 145.41 152.69 144.64 153.69 144.78 154.78 C 144.92 155.87 145.91 156.64 147.00 156.50 Z M 148.03 156.36 L 149.02 156.22 C 150.10 156.06 150.85 155.06 150.70 153.98 C 150.54 152.89 149.54 152.14 148.46 152.30 L 147.47 152.44 C 146.38 152.59 145.63 153.60 145.78 154.68 C 145.94 155.76 146.94 156.51 148.03 156.36 Z M 149.04 156.20 L 150.02 156.05 C 151.10 155.88 151.83 154.87 151.66 153.79 C 151.49 152.72 150.48 151.98 149.40 152.16 L 148.43 152.31 C 147.35 152.48 146.62 153.49 146.79 154.57 C 146.96 155.64 147.97 156.37 149.04 156.20 Z M 150.04 156.04 L 151.03 155.87 C 152.09 155.69 152.81 154.68 152.63 153.61 C 152.45 152.54 151.44 151.82 150.37 152.00 L 149.39 152.17 C 148.32 152.35 147.60 153.36 147.78 154.43 C 147.96 155.50 148.97 156.22 150.04 156.04 Z M 151.03 155.86 L 152.03 155.68 C 153.09 155.50 153.80 154.49 153.62 153.43 C 153.43 152.36 152.42 151.65 151.36 151.84 L 150.36 152.01 C 149.30 152.20 148.59 153.21 148.78 154.27 C 148.96 155.33 149.97 156.04 151.03 155.86 Z M 152.03 155.67 L 153.03 155.50 C 154.08 155.31 154.78 154.31 154.60 153.25 C 154.42 152.20 153.41 151.49 152.36 151.68 L 151.36 151.85 C 150.31 152.04 149.60 153.04 149.79 154.10 C 149.97 155.15 150.97 155.86 152.03 155.67 Z M 153.02 155.48 L 154.02 155.31 C 155.06 155.12 155.76 154.13 155.58 153.08 C 155.40 152.03 154.40 151.33 153.35 151.52 L 152.36 151.69 C 151.31 151.87 150.61 152.87 150.80 153.92 C 150.98 154.96 151.98 155.66 153.02 155.48 Z M 154.02 155.29 L 155.00 155.12 C 156.04 154.94 156.74 153.95 156.55 152.91 C 156.37 151.87 155.38 151.18 154.34 151.36 L 153.35 151.53 C 152.32 151.72 151.62 152.70 151.81 153.74 C 151.99 154.78 152.98 155.48 154.02 155.29 Z M 155.01 155.10 L 155.98 154.93 C 157.01 154.75 157.69 153.76 157.51 152.73 C 157.33 151.70 156.34 151.02 155.31 151.20 L 154.34 151.37 C 153.31 151.56 152.63 152.54 152.81 153.57 C 152.99 154.60 153.98 155.29 155.01 155.10 Z M 155.98 154.91 L 156.99 154.73 C 158.01 154.54 158.68 153.56 158.49 152.54 C 158.31 151.52 157.33 150.85 156.31 151.03 L 155.31 151.22 C 154.29 151.41 153.61 152.38 153.80 153.40 C 153.99 154.42 154.97 155.10 155.98 154.91 Z M 157.00 154.71 L 157.99 154.52 C 158.99 154.33 159.65 153.35 159.46 152.34 C 159.27 151.34 158.30 150.67 157.29 150.87 L 156.30 151.06 C 155.29 151.25 154.63 152.22 154.82 153.23 C 155.01 154.24 155.99 154.90 157.00 154.71 Z M 158.00 154.50 L 158.97 154.30 C 159.96 154.10 160.61 153.13 160.41 152.14 C 160.21 151.14 159.24 150.49 158.24 150.69 L 157.28 150.89 C 156.28 151.09 155.63 152.06 155.83 153.05 C 156.03 154.05 157.00 154.70 158.00 154.50 Z M 158.98 154.28 L 159.94 154.07 C 160.93 153.87 161.56 152.90 161.35 151.92 C 161.14 150.93 160.17 150.31 159.19 150.51 L 158.23 150.72 C 157.24 150.93 156.62 151.89 156.83 152.88 C 157.03 153.86 158.00 154.49 158.98 154.28 Z M 159.96 154.05 L 160.94 153.83 C 161.91 153.61 162.52 152.64 162.30 151.67 C 162.08 150.71 161.11 150.10 160.15 150.32 L 159.17 150.54 C 158.20 150.76 157.59 151.72 157.81 152.69 C 158.03 153.66 159.00 154.27 159.96 154.05 Z M 160.96 153.80 L 161.93 153.56 C 162.89 153.33 163.47 152.37 163.24 151.41 C 163.01 150.46 162.04 149.88 161.09 150.11 L 160.12 150.35 C 159.17 150.58 158.58 151.54 158.82 152.49 C 159.05 153.45 160.01 154.03 160.96 153.80 Z M 161.96 153.53 L 162.93 153.28 C 163.86 153.03 164.42 152.07 164.17 151.13 C 163.93 150.20 162.97 149.64 162.03 149.88 L 161.06 150.14 C 160.13 150.39 159.57 151.35 159.82 152.28 C 160.06 153.22 161.02 153.78 161.96 153.53 Z M 162.96 153.25 L 163.89 152.98 C 164.81 152.71 165.34 151.76 165.08 150.84 C 164.82 149.92 163.86 149.38 162.94 149.65 L 162.00 149.92 C 161.08 150.18 160.55 151.14 160.81 152.06 C 161.08 152.98 162.04 153.51 162.96 153.25 Z M 163.92 152.95 L 164.86 152.66 C 165.76 152.38 166.27 151.42 165.99 150.52 C 165.71 149.62 164.75 149.11 163.85 149.39 L 162.91 149.68 C 162.01 149.96 161.50 150.91 161.78 151.82 C 162.06 152.72 163.02 153.23 163.92 152.95 Z M 164.88 152.63 L 165.84 152.31 C 166.73 152.02 167.21 151.07 166.92 150.18 C 166.63 149.29 165.67 148.81 164.78 149.10 L 163.83 149.42 C 162.94 149.71 162.46 150.66 162.75 151.55 C 163.04 152.44 163.99 152.92 164.88 152.63 Z M 165.86 152.28 L 166.83 151.95 C 167.70 151.65 168.16 150.70 167.86 149.83 C 167.55 148.95 166.60 148.49 165.73 148.80 L 164.77 149.13 C 163.89 149.43 163.43 150.38 163.74 151.25 C 164.04 152.13 164.99 152.59 165.86 152.28 Z M 166.84 151.93 L 167.76 151.60 C 168.62 151.29 169.06 150.34 168.75 149.48 C 168.44 148.62 167.49 148.17 166.63 148.48 L 165.72 148.81 C 164.86 149.12 164.41 150.07 164.72 150.94 C 165.03 151.80 165.98 152.24 166.84 151.93 Z M 167.77 151.59 L 168.71 151.24 C 169.56 150.93 170.00 149.98 169.68 149.12 C 169.37 148.26 168.41 147.83 167.56 148.14 L 166.62 148.49 C 165.76 148.81 165.33 149.76 165.64 150.62 C 165.96 151.47 166.91 151.91 167.77 151.59 Z M 168.71 151.24 L 169.67 150.88 C 170.52 150.56 170.95 149.61 170.63 148.75 C 170.31 147.90 169.36 147.47 168.50 147.79 L 167.55 148.15 C 166.70 148.47 166.27 149.42 166.59 150.28 C 166.91 151.13 167.86 151.56 168.71 151.24 Z M 169.67 150.87 L 170.43 150.59 C 171.28 150.26 171.71 149.31 171.38 148.46 C 171.06 147.61 170.11 147.19 169.26 147.51 L 168.50 147.80 C 167.65 148.12 167.22 149.07 167.55 149.92 C 167.87 150.77 168.82 151.20 169.67 150.87 Z"
      fill="black"
      fill-rule="nonzero" /></svg>