<svg xmlns="http://www.w3.org/2000/svg" width="300" height="300" viewBox="0 0 300 300">
<path d="M 112.15 135.69 L 113.11 135.61 C 114.17 135.52 114.94 134.59 114.85 133.54 C 114.76 132.49 113.83 131.71 112.78 131.80 L 111.82 131.89 C 110.77 131.98 109.99 132.91 110.08 133.96 C 110.18 135.01 111.10 135.79 112.15 135.69 Z M 113.12 135.61 L 114.09 135.53 C 115.14 135.43 115.92 134.50 115.82 133.45 C 115.73 132.40 114.80 131.62 113.75 131.71 L 112.78 131.80 C 111.72 131.89 110.95 132.82 111.04 133.88 C 111.13 134.93 112.06 135.71 113.12 135.61 Z M 114.09 135.53 L 115.08 135.44 C 116.13 135.35 116.91 134.42 116.82 133.36 C 116.72 132.31 115.79 131.53 114.74 131.62 L 113.75 131.71 C 112.69 131.80 111.91 132.74 112.01 133.79 C 112.10 134.85 113.03 135.63 114.09 135.53 Z M 115.08 135.45 L 116.10 135.35 C 117.16 135.26 117.94 134.32 117.84 133.27 C 117.75 132.21 116.81 131.43 115.76 131.52 L 114.73 131.62 C 113.68 131.71 112.90 132.65 112.99 133.71 C 113.09 134.76 114.02 135.54 115.08 135.45 Z M 116.10 135.36 L 117.14 135.26 C 118.20 135.17 118.98 134.23 118.88 133.17 C 118.79 132.11 117.85 131.33 116.79 131.43 L 115.75 131.52 C 114.69 131.62 113.91 132.56 114.01 133.62 C 114.11 134.67 115.05 135.45 116.10 135.36 Z M 117.14 135.27 L 118.16 135.17 C 119.22 135.07 120.00 134.13 119.90 133.07 C 119.80 132.01 118.86 131.23 117.80 131.33 L 116.79 131.42 C 115.72 131.52 114.94 132.46 115.04 133.52 C 115.14 134.58 116.08 135.37 117.14 135.27 Z M 118.16 135.18 L 119.18 135.08 C 120.25 134.98 121.03 134.03 120.93 132.97 C 120.83 131.91 119.88 131.13 118.82 131.23 L 117.79 131.32 C 116.73 131.42 115.95 132.37 116.05 133.43 C 116.15 134.50 117.09 135.28 118.16 135.18 Z M 119.19 135.08 L 120.20 134.99 C 121.26 134.88 122.05 133.94 121.94 132.87 C 121.84 131.81 120.89 131.02 119.83 131.13 L 118.82 131.22 C 117.75 131.33 116.97 132.27 117.07 133.34 C 117.17 134.40 118.12 135.18 119.19 135.08 Z M 120.20 134.99 L 121.19 134.89 C 122.25 134.79 123.03 133.84 122.93 132.77 C 122.83 131.70 121.88 130.92 120.81 131.03 L 119.83 131.12 C 118.76 131.23 117.98 132.18 118.08 133.24 C 118.18 134.31 119.13 135.09 120.20 134.99 Z M 121.19 134.90 L 122.16 134.80 C 123.23 134.69 124.01 133.74 123.90 132.67 C 123.79 131.60 122.84 130.82 121.77 130.93 L 120.80 131.02 C 119.73 131.13 118.95 132.08 119.06 133.15 C 119.17 134.22 120.12 135.00 121.19 134.90 Z M 122.16 134.80 L 123.21 134.70 C 124.28 134.59 125.06 133.63 124.95 132.56 C 124.84 131.49 123.89 130.71 122.81 130.82 L 121.77 130.93 C 120.70 131.03 119.92 131.99 120.02 133.06 C 120.13 134.13 121.09 134.91 122.16 134.80 Z M 123.21 134.70 L 124.20 134.60 C 125.27 134.49 126.05 133.53 125.94 132.46 C 125.83 131.39 124.87 130.61 123.80 130.72 L 122.81 130.82 C 121.74 130.93 120.96 131.89 121.07 132.96 C 121.18 134.03 122.14 134.81 123.21 134.70 Z M 124.19 134.60 L 125.15 134.50 C 126.22 134.39 127.01 133.43 126.90 132.36 C 126.79 131.29 125.83 130.51 124.76 130.62 L 123.80 130.72 C 122.73 130.82 121.95 131.78 122.06 132.85 C 122.16 133.93 123.12 134.71 124.19 134.60 Z M 125.15 134.50 L 126.11 134.41 C 127.19 134.30 127.97 133.34 127.87 132.27 C 127.76 131.20 126.80 130.41 125.73 130.52 L 124.76 130.62 C 123.69 130.72 122.91 131.68 123.01 132.75 C 123.12 133.82 124.07 134.61 125.15 134.50 Z M 126.11 134.41 L 127.03 134.32 C 128.10 134.22 128.89 133.27 128.79 132.19 C 128.69 131.12 127.74 130.33 126.66 130.43 L 125.74 130.52 C 124.66 130.62 123.88 131.57 123.98 132.65 C 124.08 133.72 125.03 134.51 126.11 134.41 Z M 127.02 134.32 L 127.99 134.24 C 129.06 134.14 129.85 133.19 129.76 132.11 C 129.66 131.04 128.71 130.24 127.63 130.34 L 126.67 130.43 C 125.59 130.53 124.80 131.48 124.90 132.55 C 125.00 133.63 125.95 134.42 127.02 134.32 Z M 127.98 134.24 L 128.98 134.15 C 130.06 134.06 130.86 133.11 130.76 132.03 C 130.67 130.96 129.72 130.16 128.64 130.25 L 127.64 130.34 C 126.56 130.43 125.77 131.38 125.86 132.46 C 125.96 133.53 126.90 134.33 127.98 134.24 Z M 128.98 134.15 L 130.02 134.06 C 131.10 133.97 131.90 133.03 131.81 131.95 C 131.72 130.87 130.78 130.07 129.70 130.16 L 128.65 130.25 C 127.58 130.34 126.78 131.29 126.87 132.36 C 126.96 133.44 127.90 134.24 128.98 134.15 Z M 130.02 134.06 L 131.04 133.98 C 132.12 133.90 132.92 132.95 132.84 131.87 C 132.75 130.80 131.81 129.99 130.73 130.08 L 129.71 130.16 C 128.63 130.25 127.83 131.19 127.91 132.27 C 128.00 133.35 128.94 134.15 130.02 134.06 Z M 131.04 133.98 L 132.02 133.91 C 133.10 133.82 133.91 132.88 133.82 131.80 C 133.74 130.72 132.79 129.92 131.72 130.00 L 130.74 130.08 C 129.66 130.16 128.85 131.11 128.94 132.18 C 129.02 133.26 129.96 134.07 131.04 133.98 Z M 132.02 133.91 L 133.02 133.83 C 134.10 133.74 134.91 132.80 134.82 131.72 C 134.74 130.65 133.80 129.84 132.72 129.92 L 131.72 130.00 C 130.64 130.09 129.83 131.03 129.92 132.11 C 130.00 133.18 130.94 133.99 132.02 133.91 Z M 133.03 133.83 L 134.04 133.75 C 135.11 133.66 135.92 132.72 135.83 131.64 C 135.75 130.56 134.80 129.76 133.73 129.84 L 132.72 129.92 C 131.64 130.01 130.83 130.95 130.92 132.03 C 131.01 133.11 131.95 133.91 133.03 133.83 Z M 134.04 133.75 L 135.05 133.66 C 136.13 133.57 136.93 132.63 136.84 131.55 C 136.75 130.47 135.81 129.67 134.73 129.76 L 133.72 129.84 C 132.64 129.93 131.84 130.88 131.93 131.96 C 132.02 133.04 132.97 133.84 134.04 133.75 Z M 135.06 133.66 L 136.07 133.57 C 137.15 133.48 137.94 132.53 137.85 131.45 C 137.75 130.37 136.80 129.58 135.72 129.67 L 134.72 129.76 C 133.64 129.86 132.84 130.81 132.94 131.88 C 133.03 132.96 133.98 133.76 135.06 133.66 Z M 136.08 133.57 L 137.10 133.48 C 138.17 133.38 138.96 132.42 138.86 131.34 C 138.76 130.27 137.80 129.48 136.73 129.58 L 135.71 129.67 C 134.63 129.77 133.84 130.73 133.95 131.81 C 134.05 132.88 135.00 133.67 136.08 133.57 Z M 137.10 133.48 L 138.10 133.38 C 139.18 133.27 139.97 132.31 139.86 131.24 C 139.75 130.16 138.80 129.37 137.72 129.48 L 136.72 129.58 C 135.64 129.68 134.86 130.64 134.96 131.72 C 135.07 132.80 136.03 133.58 137.10 133.48 Z M 138.11 133.38 L 139.10 133.28 C 140.17 133.17 140.96 132.21 140.85 131.13 C 140.74 130.06 139.78 129.27 138.71 129.38 L 137.72 129.48 C 136.64 129.59 135.86 130.55 135.96 131.62 C 136.07 132.70 137.03 133.48 138.11 133.38 Z M 139.09 133.28 L 140.07 133.18 C 141.15 133.07 141.94 132.11 141.83 131.04 C 141.72 129.96 140.76 129.18 139.69 129.28 L 138.71 129.38 C 137.63 129.49 136.85 130.45 136.95 131.52 C 137.06 132.60 138.02 133.38 139.09 133.28 Z M 140.07 133.18 L 141.05 133.09 C 142.13 132.98 142.92 132.03 142.81 130.95 C 142.71 129.88 141.75 129.09 140.68 129.19 L 139.69 129.28 C 138.62 129.39 137.83 130.34 137.93 131.42 C 138.04 132.50 138.99 133.28 140.07 133.18 Z M 141.04 133.09 L 142.04 132.99 C 143.12 132.90 143.91 131.94 143.81 130.87 C 143.71 129.79 142.76 129.00 141.69 129.10 L 140.69 129.19 C 139.61 129.29 138.82 130.24 138.92 131.32 C 139.02 132.39 139.97 133.18 141.04 133.09 Z M 142.04 132.99 L 143.04 132.91 C 144.11 132.81 144.91 131.86 144.81 130.79 C 144.72 129.71 143.77 128.92 142.69 129.01 L 141.69 129.10 C 140.62 129.19 139.82 130.14 139.92 131.22 C 140.01 132.30 140.96 133.09 142.04 132.99 Z M 143.04 132.91 L 144.03 132.82 C 145.11 132.72 145.90 131.77 145.81 130.70 C 145.71 129.62 144.76 128.83 143.69 128.92 L 142.69 129.01 C 141.62 129.11 140.82 130.06 140.92 131.13 C 141.01 132.21 141.96 133.00 143.04 132.91 Z M 144.04 132.82 L 145.03 132.73 C 146.10 132.63 146.90 131.68 146.80 130.60 C 146.70 129.53 145.75 128.74 144.68 128.84 L 143.68 128.92 C 142.61 129.02 141.82 129.97 141.91 131.05 C 142.01 132.12 142.96 132.91 144.04 132.82 Z M 145.04 132.72 L 146.04 132.63 C 147.11 132.53 147.90 131.57 147.80 130.50 C 147.69 129.43 146.74 128.64 145.67 128.74 L 144.67 128.84 C 143.59 128.94 142.81 129.89 142.91 130.97 C 143.01 132.04 143.96 132.83 145.04 132.72 Z M 146.05 132.63 L 147.06 132.52 C 148.13 132.42 148.92 131.46 148.81 130.39 C 148.70 129.32 147.74 128.54 146.67 128.64 L 145.66 128.75 C 144.59 128.85 143.80 129.81 143.91 130.88 C 144.02 131.95 144.98 132.73 146.05 132.63 Z M 147.07 132.52 L 148.08 132.41 C 149.14 132.30 149.92 131.35 149.81 130.28 C 149.70 129.21 148.74 128.43 147.67 128.54 L 146.67 128.65 C 145.60 128.76 144.82 129.72 144.93 130.78 C 145.04 131.85 146.00 132.63 147.07 132.52 Z M 148.08 132.41 L 149.07 132.31 C 150.14 132.19 150.91 131.24 150.80 130.17 C 150.68 129.10 149.73 128.33 148.66 128.44 L 147.67 128.55 C 146.60 128.66 145.83 129.62 145.94 130.68 C 146.05 131.75 147.01 132.52 148.08 132.41 Z M 149.07 132.30 L 150.04 132.20 C 151.11 132.09 151.88 131.13 151.77 130.07 C 151.65 129.00 150.70 128.23 149.63 128.34 L 148.66 128.44 C 147.60 128.56 146.82 129.51 146.93 130.58 C 147.05 131.64 148.00 132.42 149.07 132.30 Z M 150.03 132.20 L 151.04 132.10 C 152.10 131.99 152.88 131.04 152.77 129.97 C 152.66 128.91 151.71 128.13 150.64 128.24 L 149.64 128.34 C 148.58 128.45 147.80 129.41 147.91 130.47 C 148.02 131.53 148.97 132.31 150.03 132.20 Z M 151.03 132.09 L 152.05 131.99 C 153.11 131.89 153.89 130.94 153.78 129.88 C 153.68 128.81 152.73 128.04 151.67 128.14 L 150.65 128.24 C 149.59 128.35 148.81 129.30 148.92 130.36 C 149.02 131.42 149.97 132.20 151.03 132.09 Z M 152.05 131.99 L 153.04 131.89 C 154.10 131.79 154.88 130.85 154.77 129.78 C 154.67 128.72 153.73 127.95 152.67 128.05 L 151.67 128.15 C 150.61 128.25 149.84 129.19 149.94 130.25 C 150.04 131.31 150.99 132.09 152.05 131.99 Z M 153.04 131.89 L 154.01 131.79 C 155.07 131.69 155.85 130.75 155.74 129.69 C 155.64 128.63 154.70 127.86 153.64 127.96 L 152.67 128.05 C 151.61 128.16 150.84 129.10 150.94 130.16 C 151.04 131.21 151.98 131.99 153.04 131.89 Z M 154.01 131.79 L 154.98 131.70 C 156.04 131.59 156.81 130.66 156.71 129.60 C 156.61 128.54 155.67 127.77 154.61 127.87 L 153.64 127.97 C 152.59 128.07 151.81 129.01 151.92 130.06 C 152.02 131.12 152.96 131.89 154.01 131.79 Z M 154.98 131.69 L 155.97 131.59 C 157.02 131.49 157.79 130.55 157.69 129.50 C 157.59 128.45 156.65 127.68 155.60 127.78 L 154.61 127.88 C 153.56 127.98 152.79 128.92 152.89 129.97 C 152.99 131.02 153.93 131.79 154.98 131.69 Z M 155.98 131.59 L 156.96 131.49 C 158.01 131.38 158.78 130.45 158.67 129.40 C 158.56 128.35 157.63 127.58 156.58 127.69 L 155.59 127.79 C 154.54 127.89 153.78 128.83 153.88 129.88 C 153.99 130.93 154.93 131.69 155.98 131.59 Z M 156.97 131.48 L 157.96 131.38 C 159.01 131.27 159.77 130.33 159.66 129.29 C 159.55 128.24 158.61 127.48 157.57 127.59 L 156.57 127.69 C 155.53 127.80 154.77 128.74 154.87 129.78 C 154.98 130.83 155.92 131.59 156.97 131.48 Z M 157.97 131.37 L 158.98 131.26 C 160.02 131.15 160.78 130.21 160.66 129.17 C 160.55 128.13 159.62 127.37 158.57 127.49 L 157.56 127.60 C 156.52 127.71 155.76 128.64 155.88 129.69 C 155.99 130.73 156.93 131.48 157.97 131.37 Z M 158.99 131.26 L 159.99 131.14 C 161.03 131.03 161.78 130.09 161.66 129.05 C 161.54 128.01 160.61 127.27 159.57 127.38 L 158.57 127.49 C 157.53 127.61 156.78 128.55 156.90 129.58 C 157.01 130.62 157.95 131.37 158.99 131.26 Z M 159.99 131.14 L 161.00 131.02 C 162.04 130.90 162.78 129.97 162.66 128.93 C 162.54 127.90 161.61 127.16 160.57 127.27 L 159.56 127.39 C 158.53 127.51 157.79 128.44 157.91 129.48 C 158.02 130.51 158.96 131.25 159.99 131.14 Z M 161.00 131.01 L 162.00 130.90 C 163.03 130.78 163.77 129.85 163.65 128.82 C 163.53 127.79 162.60 127.05 161.57 127.17 L 160.57 127.28 C 159.54 127.40 158.81 128.33 158.92 129.36 C 159.04 130.39 159.97 131.13 161.00 131.01 Z M 162.00 130.89 L 162.97 130.78 C 164.00 130.66 164.73 129.73 164.61 128.71 C 164.50 127.68 163.57 126.94 162.54 127.06 L 161.57 127.17 C 160.55 127.29 159.81 128.22 159.93 129.25 C 160.05 130.27 160.98 131.01 162.00 130.89 Z M 162.97 130.77 L 164.01 130.65 C 165.03 130.53 165.76 129.61 165.65 128.59 C 165.53 127.57 164.61 126.83 163.59 126.95 L 162.55 127.07 C 161.52 127.19 160.79 128.11 160.91 129.13 C 161.03 130.15 161.95 130.89 162.97 130.77 Z M 164.01 130.64 L 165.02 130.53 C 166.03 130.41 166.76 129.49 166.64 128.47 C 166.53 127.46 165.61 126.73 164.59 126.84 L 163.58 126.96 C 162.57 127.08 161.84 128.00 161.96 129.01 C 162.07 130.03 162.99 130.76 164.01 130.64 Z M 165.02 130.52 L 165.99 130.40 C 167.00 130.28 167.72 129.36 167.60 128.35 C 167.48 127.34 166.56 126.62 165.55 126.74 L 164.58 126.85 C 163.57 126.98 162.85 127.89 162.97 128.90 C 163.09 129.92 164.01 130.64 165.02 130.52 Z M 166.00 130.39 L 166.96 130.27 C 167.96 130.14 168.67 129.22 168.54 128.21 C 168.42 127.21 167.50 126.50 166.49 126.63 L 165.54 126.75 C 164.53 126.88 163.82 127.80 163.95 128.80 C 164.08 129.81 165.00 130.52 166.00 130.39 Z M 166.97 130.26 L 167.97 130.12 C 168.97 129.98 169.67 129.06 169.53 128.06 C 169.39 127.06 168.47 126.36 167.47 126.50 L 166.47 126.64 C 165.47 126.78 164.78 127.70 164.92 128.70 C 165.05 129.70 165.97 130.39 166.97 130.26 Z M 167.98 130.11 L 168.97 129.97 C 169.96 129.82 170.65 128.90 170.51 127.91 C 170.37 126.92 169.45 126.23 168.45 126.37 L 167.46 126.51 C 166.47 126.65 165.78 127.57 165.92 128.57 C 166.06 129.56 166.99 130.25 167.98 130.11 Z M 168.96 129.96 L 169.95 129.82 C 170.94 129.68 171.63 128.76 171.49 127.77 C 171.35 126.79 170.43 126.10 169.44 126.24 L 168.46 126.38 C 167.47 126.52 166.78 127.43 166.92 128.42 C 167.06 129.41 167.98 130.10 168.96 129.96 Z M 169.93 129.81 L 170.93 129.68 C 171.91 129.55 172.60 128.64 172.47 127.66 C 172.34 126.67 171.44 125.98 170.45 126.11 L 169.46 126.25 C 168.47 126.38 167.78 127.28 167.91 128.27 C 168.04 129.25 168.95 129.94 169.93 129.81 Z M 170.91 129.67 L 171.91 129.55 C 172.89 129.42 173.58 128.53 173.46 127.55 C 173.34 126.57 172.44 125.87 171.46 126.00 L 170.47 126.12 C 169.49 126.24 168.79 127.14 168.91 128.12 C 169.04 129.10 169.93 129.79 170.91 129.67 Z M 171.90 129.54 L 172.89 129.42 C 173.86 129.30 174.56 128.42 174.44 127.44 C 174.33 126.47 173.44 125.77 172.47 125.89 L 171.47 126.00 C 170.50 126.12 169.80 127.01 169.92 127.98 C 170.03 128.96 170.92 129.66 171.90 129.54 Z M 172.88 129.41 L 173.85 129.30 C 174.82 129.18 175.52 128.30 175.40 127.33 C 175.29 126.36 174.41 125.67 173.44 125.78 L 172.47 125.89 C 171.50 126.01 170.80 126.89 170.92 127.86 C 171.03 128.83 171.91 129.53 172.88 129.41 Z M 173.85 129.29 L 174.75 129.18 C 175.72 129.07 176.41 128.19 176.29 127.22 C 176.18 126.26 175.30 125.57 174.33 125.68 L 173.44 125.79 C 172.47 125.90 171.78 126.78 171.89 127.75 C 172.01 128.71 172.89 129.40 173.85 129.29 Z M 174.75 129.17 L 175.70 129.06 C 176.66 128.94 177.34 128.07 177.23 127.11 C 177.11 126.14 176.24 125.46 175.27 125.58 L 174.33 125.69 C 173.37 125.81 172.68 126.68 172.80 127.64 C 172.92 128.61 173.79 129.29 174.75 129.17 Z M 175.70 129.05 L 176.75 128.92 C 177.70 128.80 178.38 127.93 178.26 126.97 C 178.14 126.01 177.27 125.33 176.31 125.45 L 175.27 125.58 C 174.31 125.70 173.63 126.58 173.75 127.53 C 173.87 128.49 174.74 129.17 175.70 129.05 Z M 176.75 128.91 L 177.82 128.78 C 178.77 128.65 179.45 127.78 179.33 126.83 C 179.20 125.88 178.33 125.20 177.38 125.33 L 176.31 125.46 C 175.36 125.58 174.68 126.46 174.81 127.41 C 174.93 128.36 175.80 129.03 176.75 128.91 Z M 177.82 128.77 L 178.78 128.64 C 179.73 128.52 180.40 127.65 180.27 126.70 C 180.15 125.75 179.28 125.08 178.33 125.21 L 177.38 125.33 C 176.43 125.46 175.76 126.33 175.88 127.27 C 176.01 128.22 176.88 128.89 177.82 128.77 Z M 178.78 128.64 L 179.79 128.50 C 180.74 128.38 181.40 127.51 181.27 126.56 C 181.15 125.62 180.28 124.96 179.34 125.08 L 178.33 125.22 C 177.38 125.34 176.72 126.21 176.85 127.15 C 176.97 128.10 177.84 128.76 178.78 128.64 Z M 179.80 128.49 L 180.82 128.35 C 181.76 128.23 182.42 127.36 182.29 126.42 C 182.17 125.48 181.30 124.82 180.36 124.95 L 179.33 125.09 C 178.39 125.22 177.73 126.08 177.86 127.02 C 177.99 127.96 178.85 128.62 179.80 128.49 Z M 180.83 128.35 L 181.85 128.20 C 182.78 128.07 183.43 127.21 183.30 126.27 C 183.17 125.34 182.31 124.68 181.37 124.81 L 180.35 124.96 C 179.42 125.09 178.77 125.95 178.90 126.89 C 179.03 127.82 179.89 128.48 180.83 128.35 Z M 181.85 128.20 L 182.85 128.05 C 183.78 127.92 184.42 127.05 184.29 126.12 C 184.15 125.19 183.29 124.54 182.36 124.68 L 181.36 124.82 C 180.43 124.96 179.79 125.82 179.92 126.75 C 180.06 127.68 180.92 128.33 181.85 128.20 Z M 182.86 128.04 L 183.94 127.88 C 184.86 127.74 185.50 126.87 185.36 125.95 C 185.22 125.02 184.36 124.39 183.43 124.53 L 182.35 124.69 C 181.42 124.83 180.79 125.69 180.93 126.62 C 181.07 127.54 181.93 128.18 182.86 128.04 Z M 183.95 127.86 L 184.95 127.70 C 185.86 127.56 186.49 126.70 186.35 125.78 C 186.20 124.87 185.34 124.24 184.43 124.38 L 183.42 124.54 C 182.51 124.69 181.88 125.55 182.02 126.46 C 182.17 127.38 183.03 128.01 183.95 127.86 Z M 184.95 127.69 L 185.90 127.53 C 186.81 127.39 187.43 126.53 187.28 125.62 C 187.13 124.71 186.28 124.10 185.37 124.24 L 184.42 124.40 C 183.51 124.55 182.89 125.40 183.04 126.31 C 183.19 127.22 184.05 127.84 184.95 127.69 Z M 185.91 127.52 L 186.83 127.37 C 187.73 127.22 188.34 126.37 188.19 125.47 C 188.04 124.57 187.19 123.96 186.28 124.11 L 185.37 124.26 C 184.46 124.41 183.86 125.26 184.00 126.16 C 184.15 127.06 185.01 127.67 185.91 127.52 Z M 186.83 127.36 L 187.05 127.32 C 187.95 127.17 188.56 126.32 188.41 125.43 C 188.26 124.53 187.41 123.93 186.51 124.08 L 186.28 124.11 C 185.39 124.26 184.78 125.11 184.93 126.01 C 185.08 126.90 185.93 127.51 186.83 127.36 Z"
      fill="black"
      fill-rule="nonzero" /><path d="M 131.92 118.36 L 131.96 119.23 C 132.01 120.23 132.86 121.00 133.87 120.96 C 134.87 120.91 135.64 120.05 135.60 119.05 L 135.55 118.18 C 135.50 117.18 134.65 116.40 133.65 116.45 C 132.64 116.50 131.87 117.35 131.92 118.36 Z M 131.94 119.28 L 132.01 120.21 C 132.09 121.23 132.97 121.99 133.99 121.91 C 135.01 121.83 135.77 120.95 135.69 119.93 L 135.62 119.00 C 135.54 117.98 134.65 117.22 133.64 117.30 C 132.62 117.38 131.86 118.26 131.94 119.28 Z M 131.99 120.30 L 132.12 121.36 C 132.25 122.39 133.18 123.12 134.21 122.99 C 135.23 122.86 135.96 121.93 135.84 120.91 L 135.71 119.84 C 135.58 118.82 134.65 118.09 133.62 118.21 C 132.60 118.34 131.87 119.27 131.99 120.30 Z M 132.12 121.45 L 132.30 122.50 C 132.47 123.53 133.45 124.22 134.47 124.05 C 135.50 123.87 136.20 122.90 136.02 121.87 L 135.84 120.82 C 135.67 119.79 134.69 119.10 133.66 119.27 C 132.63 119.44 131.94 120.42 132.12 121.45 Z M 132.30 122.56 L 132.48 123.47 C 132.69 124.49 133.69 125.16 134.71 124.95 C 135.74 124.75 136.41 123.75 136.20 122.72 L 136.02 121.81 C 135.81 120.78 134.81 120.12 133.79 120.33 C 132.76 120.53 132.09 121.53 132.30 122.56 Z M 132.49 123.49 L 132.70 124.47 C 132.92 125.49 133.93 126.14 134.95 125.92 C 135.97 125.70 136.62 124.70 136.40 123.67 L 136.19 122.70 C 135.97 121.68 134.96 121.03 133.94 121.25 C 132.92 121.47 132.27 122.47 132.49 123.49 Z M 132.71 124.48 L 132.93 125.49 C 133.16 126.51 134.17 127.16 135.19 126.93 C 136.20 126.71 136.85 125.70 136.62 124.68 L 136.40 123.66 C 136.17 122.64 135.16 122.00 134.14 122.23 C 133.12 122.45 132.48 123.46 132.71 124.48 Z M 132.93 125.49 L 133.16 126.52 C 133.38 127.54 134.39 128.18 135.41 127.96 C 136.43 127.73 137.07 126.72 136.85 125.71 L 136.62 124.68 C 136.39 123.66 135.39 123.02 134.37 123.24 C 133.35 123.47 132.71 124.47 132.93 125.49 Z M 133.16 126.51 L 133.38 127.52 C 133.59 128.54 134.59 129.19 135.61 128.97 C 136.63 128.76 137.28 127.75 137.06 126.74 L 136.85 125.72 C 136.63 124.70 135.63 124.05 134.61 124.27 C 133.59 124.49 132.94 125.49 133.16 126.51 Z M 133.38 127.50 L 133.58 128.49 C 133.78 129.51 134.77 130.17 135.79 129.97 C 136.80 129.77 137.46 128.78 137.26 127.76 L 137.06 126.76 C 136.86 125.74 135.87 125.08 134.85 125.29 C 133.84 125.49 133.18 126.48 133.38 127.50 Z M 133.58 128.47 L 133.76 129.44 C 133.95 130.46 134.93 131.12 135.94 130.94 C 136.95 130.75 137.62 129.78 137.43 128.76 L 137.25 127.79 C 137.07 126.77 136.09 126.11 135.08 126.29 C 134.07 126.48 133.40 127.45 133.58 128.47 Z M 133.77 129.42 L 133.94 130.38 C 134.11 131.39 135.07 132.07 136.08 131.90 C 137.09 131.72 137.76 130.77 137.59 129.76 L 137.43 128.79 C 137.25 127.78 136.30 127.10 135.29 127.28 C 134.28 127.45 133.60 128.41 133.77 129.42 Z M 133.95 130.36 L 134.10 131.34 C 134.26 132.34 135.21 133.02 136.21 132.86 C 137.22 132.70 137.90 131.76 137.74 130.76 L 137.58 129.78 C 137.42 128.78 136.48 128.09 135.47 128.25 C 134.47 128.41 133.79 129.36 133.95 130.36 Z M 134.11 131.32 L 134.26 132.32 C 134.41 133.31 135.35 134.00 136.34 133.85 C 137.34 133.70 138.03 132.77 137.88 131.77 L 137.73 130.77 C 137.58 129.78 136.65 129.09 135.65 129.24 C 134.65 129.39 133.96 130.32 134.11 131.32 Z M 134.27 132.30 L 134.42 133.32 C 134.56 134.32 135.48 135.01 136.48 134.86 C 137.47 134.72 138.16 133.80 138.02 132.81 L 137.87 131.79 C 137.73 130.79 136.81 130.10 135.81 130.25 C 134.82 130.39 134.13 131.31 134.27 132.30 Z M 134.43 133.31 L 134.57 134.35 C 134.71 135.34 135.62 136.03 136.61 135.90 C 137.60 135.76 138.29 134.85 138.15 133.86 L 138.01 132.82 C 137.87 131.83 136.96 131.14 135.97 131.28 C 134.98 131.41 134.29 132.33 134.43 133.31 Z M 134.58 134.34 L 134.72 135.38 C 134.85 136.37 135.75 137.06 136.74 136.93 C 137.72 136.79 138.42 135.89 138.28 134.90 L 138.15 133.87 C 138.01 132.88 137.11 132.19 136.12 132.32 C 135.14 132.45 134.45 133.36 134.58 134.34 Z M 134.73 135.37 L 134.86 136.38 C 134.98 137.36 135.88 138.05 136.86 137.92 C 137.84 137.80 138.53 136.90 138.41 135.92 L 138.28 134.91 C 138.15 133.93 137.25 133.24 136.27 133.37 C 135.29 133.49 134.60 134.39 134.73 135.37 Z M 134.86 136.37 L 134.98 137.32 C 135.10 138.30 135.99 138.99 136.97 138.87 C 137.94 138.75 138.64 137.86 138.52 136.88 L 138.40 135.93 C 138.28 134.95 137.39 134.26 136.41 134.38 C 135.44 134.50 134.74 135.39 134.86 136.37 Z M 134.99 137.31 L 135.10 138.26 C 135.22 139.24 136.10 139.93 137.07 139.82 C 138.04 139.70 138.73 138.82 138.62 137.85 L 138.51 136.89 C 138.39 135.92 137.51 135.23 136.54 135.34 C 135.57 135.45 134.87 136.33 134.99 137.31 Z M 135.11 138.25 L 135.23 139.37 C 135.34 140.34 136.20 141.04 137.17 140.93 C 138.14 140.83 138.84 139.96 138.73 138.99 L 138.61 137.87 C 138.51 136.90 137.64 136.20 136.67 136.31 C 135.70 136.41 135.01 137.28 135.11 138.25 Z M 135.24 139.35 L 135.34 140.32 C 135.43 141.28 136.29 141.99 137.25 141.89 C 138.21 141.80 138.91 140.94 138.82 139.98 L 138.72 139.01 C 138.63 138.05 137.77 137.35 136.81 137.44 C 135.85 137.53 135.15 138.39 135.24 139.35 Z M 135.35 140.31 L 135.43 141.19 C 135.51 142.15 136.35 142.85 137.31 142.77 C 138.26 142.68 138.97 141.84 138.88 140.89 L 138.80 140.00 C 138.72 139.04 137.88 138.34 136.92 138.42 C 135.97 138.51 135.26 139.35 135.35 140.31 Z M 135.44 141.18 L 135.52 142.13 C 135.60 143.08 136.43 143.78 137.38 143.70 C 138.33 143.62 139.03 142.79 138.95 141.84 L 138.87 140.89 C 138.79 139.94 137.96 139.24 137.01 139.32 C 136.06 139.40 135.36 140.24 135.44 141.18 Z M 135.52 142.12 L 135.61 143.12 C 135.68 144.07 136.51 144.77 137.46 144.69 C 138.40 144.62 139.11 143.79 139.03 142.84 L 138.95 141.84 C 138.87 140.90 138.04 140.19 137.10 140.27 C 136.15 140.35 135.45 141.18 135.52 142.12 Z M 135.61 143.11 L 135.68 144.11 C 135.75 145.05 136.58 145.76 137.52 145.69 C 138.46 145.62 139.17 144.80 139.10 143.85 L 139.02 142.85 C 138.95 141.91 138.13 141.21 137.19 141.28 C 136.25 141.35 135.54 142.17 135.61 143.11 Z M 135.69 144.09 L 135.75 145.09 C 135.81 146.03 136.62 146.74 137.56 146.68 C 138.51 146.62 139.22 145.81 139.16 144.87 L 139.09 143.87 C 139.03 142.93 138.22 142.22 137.28 142.28 C 136.34 142.34 135.63 143.15 135.69 144.09 Z M 135.76 145.07 L 135.81 146.07 C 135.86 147.01 136.66 147.73 137.60 147.68 C 138.54 147.63 139.26 146.83 139.21 145.89 L 139.15 144.89 C 139.10 143.95 138.30 143.23 137.36 143.28 C 136.43 143.33 135.71 144.14 135.76 145.07 Z M 135.82 146.06 L 135.86 147.06 C 135.91 147.99 136.70 148.72 137.63 148.67 C 138.57 148.63 139.29 147.84 139.25 146.90 L 139.20 145.91 C 139.16 144.97 138.37 144.25 137.43 144.29 C 136.50 144.33 135.77 145.13 135.82 146.06 Z M 135.87 147.05 L 135.91 147.97 C 135.95 148.90 136.74 149.62 137.67 149.58 C 138.60 149.54 139.32 148.75 139.28 147.82 L 139.24 146.90 C 139.20 145.97 138.41 145.25 137.48 145.29 C 136.55 145.33 135.83 146.12 135.87 147.05 Z M 135.91 147.96 L 135.95 148.79 C 135.99 149.72 136.77 150.44 137.70 150.40 C 138.63 150.36 139.35 149.58 139.31 148.65 L 139.28 147.82 C 139.24 146.89 138.45 146.17 137.52 146.21 C 136.59 146.25 135.87 147.03 135.91 147.96 Z M 135.95 148.79 L 135.99 149.73 C 136.03 150.66 136.81 151.38 137.74 151.34 C 138.66 151.30 139.39 150.52 139.35 149.59 L 139.31 148.65 C 139.27 147.72 138.49 147.00 137.56 147.04 C 136.63 147.08 135.91 147.86 135.95 148.79 Z M 135.99 149.72 L 136.04 150.87 C 136.07 151.79 136.85 152.51 137.78 152.48 C 138.70 152.44 139.42 151.66 139.39 150.74 L 139.34 149.59 C 139.31 148.67 138.53 147.95 137.60 147.98 C 136.68 148.02 135.96 148.80 135.99 149.72 Z M 136.04 150.86 L 136.08 151.97 C 136.11 152.89 136.89 153.61 137.81 153.58 C 138.74 153.54 139.46 152.77 139.42 151.84 L 139.38 150.74 C 139.35 149.82 138.58 149.10 137.65 149.13 C 136.73 149.16 136.01 149.94 136.04 150.86 Z M 136.08 151.96 L 136.12 152.91 C 136.15 153.83 136.92 154.55 137.85 154.52 C 138.77 154.48 139.49 153.71 139.46 152.79 L 139.42 151.85 C 139.39 150.92 138.61 150.20 137.69 150.24 C 136.77 150.27 136.05 151.04 136.08 151.96 Z M 136.12 152.91 L 136.16 153.92 C 136.19 154.84 136.96 155.56 137.88 155.53 C 138.80 155.49 139.52 154.72 139.49 153.80 L 139.45 152.79 C 139.42 151.87 138.65 151.15 137.73 151.18 C 136.81 151.21 136.09 151.99 136.12 152.91 Z M 136.16 153.92 L 136.20 154.97 C 136.23 155.89 137.01 156.61 137.93 156.57 C 138.85 156.54 139.56 155.76 139.53 154.84 L 139.49 153.80 C 139.45 152.88 138.68 152.16 137.76 152.19 C 136.84 152.23 136.12 153.00 136.16 153.92 Z M 136.20 154.97 L 136.24 156.03 C 136.28 156.95 137.06 157.66 137.97 157.62 C 138.89 157.59 139.61 156.81 139.57 155.89 L 139.53 154.84 C 139.49 153.92 138.71 153.21 137.80 153.24 C 136.88 153.28 136.16 154.06 136.20 154.97 Z M 136.25 156.04 L 136.29 157.07 C 136.33 157.98 137.11 158.69 138.03 158.65 C 138.94 158.61 139.65 157.83 139.61 156.92 L 139.57 155.89 C 139.52 154.97 138.75 154.26 137.83 154.30 C 136.91 154.34 136.20 155.12 136.25 156.04 Z M 136.29 157.08 L 136.34 158.05 C 136.39 158.96 137.17 159.67 138.08 159.62 C 139.00 159.58 139.70 158.80 139.66 157.88 L 139.61 156.91 C 139.56 155.99 138.78 155.29 137.87 155.33 C 136.95 155.38 136.25 156.16 136.29 157.08 Z M 136.35 158.06 L 136.42 159.24 C 136.47 160.15 137.26 160.85 138.17 160.79 C 139.08 160.74 139.78 159.96 139.72 159.04 L 139.65 157.87 C 139.60 156.95 138.82 156.26 137.90 156.31 C 136.99 156.37 136.29 157.15 136.35 158.06 Z M 136.42 159.26 L 136.50 160.31 C 136.56 161.22 137.35 161.91 138.26 161.84 C 139.17 161.78 139.86 160.99 139.79 160.08 L 139.72 159.02 C 139.65 158.11 138.86 157.43 137.95 157.49 C 137.04 157.56 136.36 158.35 136.42 159.26 Z M 136.50 160.33 L 136.58 161.29 C 136.66 162.20 137.45 162.88 138.36 162.80 C 139.26 162.73 139.94 161.93 139.87 161.03 L 139.79 160.06 C 139.71 159.16 138.92 158.48 138.01 158.55 C 137.11 158.63 136.43 159.42 136.50 160.33 Z M 136.59 161.31 L 136.67 162.21 C 136.75 163.11 137.55 163.78 138.45 163.70 C 139.35 163.62 140.02 162.82 139.94 161.92 L 139.86 161.01 C 139.78 160.11 138.98 159.44 138.08 159.52 C 137.17 159.60 136.51 160.40 136.59 161.31 Z M 136.67 162.21 L 136.75 163.00 C 136.83 163.90 137.63 164.56 138.53 164.48 C 139.43 164.39 140.09 163.59 140.01 162.69 L 139.94 161.91 C 139.85 161.01 139.05 160.35 138.15 160.43 C 137.25 160.51 136.59 161.31 136.67 162.21 Z"
      fill="black"
      fill-rule="nonzero" /><path d="M 156.74 109.62 L 157.59 110.16 C 158.45 110.72 159.60 110.46 160.16 109.60 C 160.71 108.73 160.46 107.58 159.59 107.03 L 158.74 106.49 C 157.88 105.93 156.72 106.19 156.17 107.05 C 155.62 107.92 155.87 109.07 156.74 109.62 Z M 157.42 110.12 L 158.21 110.72 C 159.05 111.37 160.26 111.20 160.90 110.36 C 161.54 109.52 161.38 108.32 160.54 107.67 L 159.75 107.07 C 158.91 106.43 157.70 106.59 157.06 107.43 C 156.42 108.27 156.58 109.48 157.42 110.12 Z M 157.93 110.54 L 158.60 111.27 C 159.34 112.07 160.59 112.11 161.39 111.37 C 162.19 110.63 162.24 109.38 161.50 108.58 L 160.82 107.85 C 160.08 107.05 158.83 107.01 158.03 107.75 C 157.23 108.49 157.18 109.74 157.93 110.54 Z M 158.31 110.94 L 158.76 111.70 C 159.31 112.66 160.55 112.99 161.51 112.43 C 162.47 111.87 162.79 110.64 162.23 109.67 L 161.79 108.91 C 161.23 107.95 160.00 107.63 159.04 108.18 C 158.08 108.74 157.75 109.98 158.31 110.94 Z M 158.60 111.39 L 158.92 112.25 C 159.31 113.29 160.47 113.83 161.52 113.44 C 162.56 113.05 163.10 111.88 162.71 110.84 L 162.39 109.98 C 162.00 108.94 160.83 108.40 159.79 108.79 C 158.74 109.18 158.21 110.35 158.60 111.39 Z M 158.85 112.05 L 159.11 113.03 C 159.38 114.11 160.49 114.76 161.57 114.48 C 162.65 114.21 163.30 113.10 163.02 112.02 L 162.77 111.04 C 162.49 109.96 161.39 109.30 160.31 109.58 C 159.23 109.86 158.58 110.96 158.85 112.05 Z M 159.08 112.92 L 159.30 114.02 C 159.51 115.12 160.58 115.83 161.68 115.62 C 162.77 115.40 163.49 114.34 163.27 113.24 L 163.05 112.13 C 162.83 111.03 161.77 110.32 160.67 110.54 C 159.58 110.76 158.86 111.82 159.08 112.92 Z M 159.29 113.98 L 159.47 115.00 C 159.66 116.10 160.71 116.83 161.82 116.64 C 162.92 116.45 163.65 115.40 163.46 114.29 L 163.28 113.28 C 163.08 112.18 162.03 111.44 160.93 111.64 C 159.83 111.83 159.09 112.88 159.29 113.98 Z M 159.47 114.98 L 159.63 115.97 C 159.82 117.08 160.86 117.82 161.97 117.63 C 163.07 117.45 163.81 116.40 163.63 115.30 L 163.46 114.31 C 163.28 113.21 162.23 112.46 161.13 112.65 C 160.02 112.83 159.28 113.88 159.47 114.98 Z M 159.63 115.96 L 159.79 116.98 C 159.97 118.08 161.01 118.83 162.12 118.65 C 163.22 118.48 163.97 117.44 163.79 116.33 L 163.63 115.31 C 163.45 114.21 162.41 113.46 161.31 113.64 C 160.20 113.81 159.45 114.85 159.63 115.96 Z M 159.79 116.96 L 159.95 117.97 C 160.12 119.08 161.15 119.84 162.26 119.67 C 163.36 119.50 164.12 118.46 163.95 117.36 L 163.80 116.34 C 163.63 115.24 162.59 114.48 161.49 114.65 C 160.38 114.82 159.62 115.86 159.79 116.96 Z M 159.94 117.96 L 160.09 118.94 C 160.25 120.05 161.28 120.82 162.39 120.65 C 163.49 120.49 164.26 119.46 164.10 118.36 L 163.95 117.37 C 163.79 116.27 162.76 115.50 161.66 115.66 C 160.55 115.82 159.78 116.85 159.94 117.96 Z M 160.09 118.92 L 160.23 119.95 C 160.38 121.06 161.40 121.84 162.51 121.69 C 163.62 121.54 164.39 120.51 164.24 119.41 L 164.10 118.37 C 163.95 117.27 162.93 116.49 161.82 116.64 C 160.71 116.79 159.93 117.81 160.09 118.92 Z M 160.22 119.93 L 160.35 120.98 C 160.49 122.10 161.51 122.88 162.62 122.74 C 163.73 122.61 164.52 121.59 164.38 120.48 L 164.24 119.43 C 164.11 118.32 163.09 117.53 161.98 117.67 C 160.87 117.81 160.08 118.82 160.22 119.93 Z M 160.35 120.96 L 160.47 121.95 C 160.59 123.06 161.60 123.86 162.71 123.73 C 163.82 123.60 164.62 122.60 164.49 121.48 L 164.38 120.50 C 164.25 119.39 163.25 118.59 162.14 118.72 C 161.02 118.85 160.23 119.85 160.35 120.96 Z M 160.46 121.93 L 160.56 122.87 C 160.68 123.98 161.68 124.78 162.79 124.66 C 163.91 124.55 164.71 123.55 164.59 122.43 L 164.49 121.50 C 164.37 120.39 163.37 119.58 162.26 119.70 C 161.15 119.82 160.34 120.82 160.46 121.93 Z M 160.56 122.86 L 160.66 123.79 C 160.78 124.90 161.77 125.71 162.88 125.60 C 164.00 125.48 164.81 124.49 164.69 123.37 L 164.59 122.44 C 164.48 121.33 163.48 120.52 162.37 120.64 C 161.26 120.75 160.45 121.75 160.56 122.86 Z M 160.66 123.79 L 160.76 124.77 C 160.88 125.88 161.87 126.69 162.98 126.57 C 164.10 126.46 164.90 125.46 164.79 124.35 L 164.69 123.37 C 164.57 122.26 163.58 121.45 162.47 121.57 C 161.35 121.68 160.55 122.68 160.66 123.79 Z M 160.76 124.76 L 160.86 125.75 C 160.98 126.86 161.97 127.67 163.08 127.56 C 164.19 127.45 165.00 126.45 164.89 125.34 L 164.79 124.35 C 164.68 123.24 163.68 122.43 162.57 122.54 C 161.46 122.66 160.65 123.65 160.76 124.76 Z M 160.86 125.75 L 160.96 126.75 C 161.07 127.86 162.07 128.68 163.18 128.56 C 164.29 128.45 165.10 127.46 164.99 126.35 L 164.89 125.34 C 164.78 124.23 163.79 123.42 162.67 123.53 C 161.56 123.64 160.75 124.63 160.86 125.75 Z M 160.96 126.75 L 161.06 127.75 C 161.17 128.86 162.16 129.68 163.27 129.57 C 164.38 129.46 165.20 128.47 165.09 127.36 L 164.99 126.35 C 164.88 125.24 163.89 124.43 162.78 124.54 C 161.67 124.64 160.85 125.63 160.96 126.75 Z M 161.06 127.75 L 161.15 128.72 C 161.26 129.83 162.25 130.65 163.36 130.54 C 164.47 130.43 165.29 129.45 165.18 128.33 L 165.09 127.36 C 164.98 126.25 163.99 125.44 162.88 125.54 C 161.77 125.65 160.96 126.63 161.06 127.75 Z M 161.15 128.72 L 161.25 129.71 C 161.36 130.82 162.34 131.64 163.45 131.53 C 164.56 131.42 165.38 130.44 165.27 129.33 L 165.18 128.33 C 165.07 127.22 164.09 126.41 162.98 126.51 C 161.86 126.62 161.05 127.61 161.15 128.72 Z M 161.25 129.71 L 161.35 130.72 C 161.46 131.83 162.45 132.65 163.56 132.54 C 164.67 132.43 165.48 131.44 165.37 130.33 L 165.27 129.32 C 165.16 128.21 164.18 127.40 163.07 127.51 C 161.96 127.62 161.14 128.60 161.25 129.71 Z M 161.35 130.73 L 161.46 131.75 C 161.57 132.86 162.56 133.67 163.67 133.56 C 164.78 133.45 165.58 132.45 165.47 131.35 L 165.37 130.32 C 165.26 129.21 164.26 128.41 163.16 128.52 C 162.05 128.63 161.24 129.62 161.35 130.73 Z M 161.46 131.76 L 161.56 132.74 C 161.68 133.85 162.67 134.65 163.78 134.53 C 164.89 134.42 165.69 133.42 165.57 132.31 L 165.47 131.34 C 165.35 130.23 164.36 129.43 163.25 129.54 C 162.14 129.66 161.34 130.66 161.46 131.76 Z M 161.56 132.75 L 161.67 133.73 C 161.79 134.84 162.78 135.64 163.89 135.52 C 165.00 135.40 165.80 134.41 165.68 133.30 L 165.57 132.31 C 165.45 131.21 164.46 130.40 163.35 130.52 C 162.24 130.64 161.44 131.64 161.56 132.75 Z M 161.67 133.73 L 161.78 134.72 C 161.89 135.83 162.88 136.63 163.99 136.51 C 165.10 136.40 165.90 135.41 165.78 134.30 L 165.68 133.30 C 165.56 132.20 164.57 131.40 163.46 131.51 C 162.36 131.63 161.56 132.62 161.67 133.73 Z M 161.78 134.71 L 161.87 135.71 C 161.98 136.82 162.97 137.63 164.07 137.52 C 165.18 137.41 165.99 136.43 165.88 135.32 L 165.78 134.31 C 165.67 133.21 164.69 132.40 163.58 132.51 C 162.48 132.62 161.67 133.60 161.78 134.71 Z M 161.87 135.69 L 161.96 136.69 C 162.06 137.80 163.03 138.62 164.14 138.52 C 165.24 138.43 166.06 137.45 165.97 136.34 L 165.88 135.34 C 165.79 134.24 164.81 133.42 163.70 133.51 C 162.60 133.61 161.78 134.58 161.87 135.69 Z M 161.96 136.67 L 162.04 137.66 C 162.12 138.76 163.08 139.59 164.19 139.51 C 165.30 139.43 166.13 138.46 166.04 137.36 L 165.97 136.37 C 165.88 135.26 164.92 134.43 163.81 134.51 C 162.71 134.60 161.88 135.56 161.96 136.67 Z M 162.04 137.64 L 162.11 138.64 C 162.18 139.75 163.14 140.58 164.24 140.51 C 165.35 140.43 166.18 139.47 166.11 138.37 L 166.04 137.37 C 165.97 136.26 165.01 135.43 163.90 135.50 C 162.80 135.58 161.96 136.54 162.04 137.64 Z M 162.11 138.63 L 162.17 139.64 C 162.24 140.74 163.20 141.58 164.30 141.51 C 165.41 141.43 166.25 140.48 166.17 139.38 L 166.11 138.37 C 166.04 137.27 165.08 136.43 163.98 136.50 C 162.87 136.57 162.03 137.53 162.11 138.63 Z M 162.17 139.64 L 162.24 140.64 C 162.31 141.75 163.27 142.58 164.37 142.51 C 165.47 142.44 166.31 141.48 166.24 140.38 L 166.17 139.37 C 166.10 138.27 165.14 137.43 164.04 137.51 C 162.94 137.58 162.10 138.53 162.17 139.64 Z M 162.24 140.65 L 162.31 141.65 C 162.39 142.75 163.35 143.58 164.45 143.50 C 165.55 143.42 166.38 142.47 166.30 141.37 L 166.23 140.37 C 166.16 139.27 165.20 138.44 164.10 138.52 C 163.00 138.59 162.17 139.55 162.24 140.65 Z M 162.32 141.66 L 162.39 142.65 C 162.47 143.75 163.43 144.57 164.53 144.49 C 165.63 144.40 166.46 143.45 166.38 142.35 L 166.30 141.36 C 166.22 140.26 165.26 139.43 164.16 139.51 C 163.06 139.60 162.23 140.56 162.32 141.66 Z M 162.39 142.65 L 162.47 143.65 C 162.56 144.74 163.52 145.56 164.62 145.48 C 165.72 145.39 166.54 144.43 166.45 143.33 L 166.37 142.34 C 166.29 141.24 165.33 140.42 164.23 140.51 C 163.13 140.59 162.31 141.55 162.39 142.65 Z M 162.48 143.65 L 162.56 144.65 C 162.64 145.75 163.61 146.56 164.70 146.47 C 165.80 146.39 166.62 145.43 166.53 144.33 L 166.45 143.33 C 166.36 142.23 165.40 141.41 164.30 141.50 C 163.20 141.59 162.39 142.55 162.48 143.65 Z M 162.56 144.65 L 162.64 145.66 C 162.73 146.75 163.69 147.57 164.79 147.48 C 165.88 147.39 166.70 146.43 166.61 145.34 L 166.53 144.33 C 166.44 143.23 165.48 142.42 164.38 142.51 C 163.29 142.59 162.47 143.55 162.56 144.65 Z M 162.64 145.66 L 162.73 146.67 C 162.81 147.76 163.77 148.58 164.87 148.49 C 165.96 148.40 166.78 147.44 166.69 146.35 L 166.61 145.34 C 166.52 144.24 165.56 143.43 164.46 143.52 C 163.37 143.61 162.56 144.56 162.64 145.66 Z M 162.73 146.67 L 162.81 147.68 C 162.90 148.77 163.86 149.58 164.95 149.50 C 166.04 149.41 166.85 148.45 166.76 147.36 L 166.68 146.35 C 166.59 145.26 165.64 144.44 164.55 144.53 C 163.46 144.62 162.64 145.57 162.73 146.67 Z M 162.81 147.68 L 162.90 148.69 C 162.98 149.77 163.94 150.59 165.03 150.50 C 166.12 150.41 166.93 149.46 166.84 148.37 L 166.76 147.36 C 166.67 146.27 165.72 145.46 164.63 145.55 C 163.54 145.63 162.73 146.59 162.81 147.68 Z M 162.90 148.69 L 162.98 149.68 C 163.07 150.77 164.03 151.57 165.11 151.49 C 166.20 151.40 167.01 150.44 166.92 149.36 L 166.84 148.36 C 166.75 147.28 165.79 146.47 164.71 146.56 C 163.62 146.65 162.81 147.60 162.90 148.69 Z M 162.99 149.68 L 163.07 150.65 C 163.16 151.73 164.11 152.54 165.20 152.45 C 166.28 152.36 167.09 151.40 167.00 150.32 L 166.91 149.35 C 166.82 148.27 165.87 147.46 164.79 147.55 C 163.70 147.64 162.89 148.60 162.99 149.68 Z M 163.07 150.65 L 163.16 151.70 C 163.26 152.78 164.21 153.58 165.29 153.49 C 166.38 153.40 167.18 152.44 167.08 151.36 L 166.99 150.31 C 166.90 149.23 165.94 148.43 164.86 148.52 C 163.78 148.62 162.98 149.57 163.07 150.65 Z M 163.17 151.70 L 163.26 152.72 C 163.35 153.80 164.31 154.59 165.39 154.50 C 166.47 154.40 167.26 153.45 167.17 152.37 L 167.08 151.36 C 166.98 150.28 166.03 149.48 164.95 149.57 C 163.87 149.67 163.07 150.62 163.17 151.70 Z M 163.26 152.71 L 163.35 153.70 C 163.44 154.78 164.39 155.57 165.47 155.48 C 166.55 155.38 167.35 154.43 167.25 153.35 L 167.16 152.37 C 167.07 151.29 166.12 150.50 165.04 150.59 C 163.96 150.69 163.17 151.64 163.26 152.71 Z M 163.35 153.69 L 163.43 154.65 C 163.52 155.73 164.47 156.53 165.55 156.43 C 166.62 156.34 167.42 155.40 167.33 154.32 L 167.25 153.36 C 167.16 152.28 166.21 151.49 165.13 151.58 C 164.06 151.67 163.26 152.62 163.35 153.69 Z M 163.44 154.64 L 163.52 155.63 C 163.60 156.71 164.54 157.51 165.62 157.42 C 166.69 157.34 167.49 156.40 167.40 155.32 L 167.33 154.33 C 167.24 153.26 166.30 152.46 165.23 152.54 C 164.15 152.63 163.35 153.57 163.44 154.64 Z M 163.52 155.63 L 163.59 156.63 C 163.68 157.71 164.61 158.51 165.68 158.43 C 166.76 158.35 167.56 157.41 167.48 156.34 L 167.40 155.33 C 167.32 154.26 166.39 153.46 165.31 153.54 C 164.24 153.62 163.44 154.55 163.52 155.63 Z M 163.60 156.63 L 163.67 157.63 C 163.75 158.70 164.69 159.50 165.76 159.42 C 166.83 159.34 167.63 158.41 167.55 157.34 L 167.47 156.34 C 167.39 155.27 166.46 154.47 165.39 154.55 C 164.32 154.63 163.52 155.56 163.60 156.63 Z M 163.68 157.63 L 163.75 158.62 C 163.84 159.68 164.77 160.48 165.84 160.40 C 166.91 160.31 167.70 159.38 167.62 158.31 L 167.54 157.33 C 167.46 156.26 166.53 155.46 165.46 155.55 C 164.39 155.63 163.59 156.56 163.68 157.63 Z M 163.76 158.63 L 163.85 159.63 C 163.94 160.69 164.87 161.48 165.94 161.39 C 167.00 161.30 167.79 160.36 167.70 159.30 L 167.62 158.30 C 167.52 157.23 166.59 156.44 165.52 156.54 C 164.46 156.63 163.67 157.56 163.76 158.63 Z M 163.85 159.64 L 163.94 160.64 C 164.04 161.70 164.98 162.49 166.04 162.39 C 167.11 162.29 167.89 161.35 167.79 160.29 L 167.70 159.28 C 167.60 158.22 166.66 157.44 165.60 157.54 C 164.53 157.64 163.75 158.58 163.85 159.64 Z M 163.95 160.65 L 164.04 161.64 C 164.14 162.70 165.08 163.48 166.14 163.38 C 167.20 163.28 167.98 162.34 167.88 161.28 L 167.78 160.28 C 167.68 159.22 166.74 158.44 165.68 158.55 C 164.62 158.65 163.85 159.59 163.95 160.65 Z M 164.04 161.64 L 164.14 162.62 C 164.23 163.68 165.17 164.46 166.23 164.36 C 167.29 164.26 168.06 163.32 167.97 162.27 L 167.88 161.28 C 167.78 160.22 166.84 159.44 165.78 159.54 C 164.73 159.64 163.95 160.58 164.04 161.64 Z M 164.14 162.61 L 164.23 163.62 C 164.32 164.68 165.25 165.46 166.30 165.37 C 167.36 165.28 168.14 164.35 168.05 163.29 L 167.96 162.28 C 167.87 161.22 166.94 160.44 165.89 160.53 C 164.83 160.62 164.05 161.55 164.14 162.61 Z M 164.23 163.61 L 164.31 164.62 C 164.39 165.67 165.31 166.46 166.37 166.37 C 167.42 166.29 168.21 165.37 168.13 164.31 L 168.05 163.30 C 167.96 162.25 167.04 161.46 165.99 161.55 C 164.93 161.63 164.15 162.55 164.23 163.61 Z M 164.31 164.61 L 164.39 165.60 C 164.47 166.65 165.38 167.44 166.44 167.36 C 167.49 167.28 168.28 166.37 168.20 165.31 L 168.12 164.32 C 168.04 163.27 167.13 162.48 166.07 162.56 C 165.02 162.64 164.23 163.56 164.31 164.61 Z M 164.39 165.60 L 164.47 166.57 C 164.54 167.62 165.46 168.41 166.51 168.33 C 167.56 168.25 168.34 167.34 168.27 166.29 L 168.19 165.31 C 168.11 164.27 167.20 163.48 166.15 163.56 C 165.10 163.64 164.31 164.55 164.39 165.60 Z M 164.47 166.57 L 164.55 167.58 C 164.63 168.62 165.54 169.40 166.59 169.32 C 167.64 169.24 168.42 168.33 168.34 167.28 L 168.26 166.28 C 168.18 165.24 167.27 164.45 166.22 164.53 C 165.17 164.61 164.39 165.53 164.47 166.57 Z M 164.55 167.58 L 164.64 168.57 C 164.72 169.61 165.63 170.39 166.68 170.30 C 167.72 170.22 168.50 169.31 168.41 168.26 L 168.33 167.27 C 168.25 166.23 167.33 165.46 166.29 165.54 C 165.25 165.63 164.47 166.54 164.55 167.58 Z M 164.64 168.58 L 164.73 169.58 C 164.82 170.62 165.74 171.38 166.78 171.29 C 167.81 171.20 168.58 170.29 168.49 169.25 L 168.40 168.25 C 168.31 167.21 167.40 166.44 166.36 166.54 C 165.32 166.63 164.55 167.54 164.64 168.58 Z M 164.74 169.59 L 164.83 170.55 C 164.93 171.59 165.84 172.35 166.88 172.25 C 167.92 172.15 168.67 171.23 168.58 170.20 L 168.48 169.23 C 168.39 168.20 167.47 167.44 166.43 167.54 C 165.40 167.64 164.64 168.55 164.74 169.59 Z M 164.84 170.56 L 164.93 171.52 C 165.04 172.55 165.96 173.31 166.99 173.20 C 168.02 173.10 168.77 172.18 168.67 171.15 L 168.57 170.19 C 168.46 169.16 167.54 168.40 166.51 168.51 C 165.48 168.61 164.73 169.53 164.84 170.56 Z M 164.94 171.53 L 165.05 172.53 C 165.16 173.56 166.08 174.30 167.10 174.19 C 168.13 174.08 168.87 173.16 168.76 172.14 L 168.66 171.14 C 168.55 170.11 167.63 169.37 166.60 169.48 C 165.58 169.59 164.83 170.51 164.94 171.53 Z M 165.06 172.54 L 165.17 173.58 C 165.29 174.61 166.21 175.34 167.23 175.23 C 168.25 175.12 168.98 174.20 168.87 173.17 L 168.76 172.13 C 168.64 171.11 167.72 170.37 166.70 170.48 C 165.68 170.60 164.94 171.52 165.06 172.54 Z M 165.18 173.59 L 165.30 174.60 C 165.41 175.62 166.33 176.35 167.35 176.23 C 168.37 176.11 169.10 175.19 168.98 174.18 L 168.86 173.17 C 168.75 172.15 167.83 171.42 166.81 171.54 C 165.79 171.65 165.06 172.57 165.18 173.59 Z M 165.30 174.62 L 165.43 175.63 C 165.56 176.64 166.49 177.36 167.50 177.23 C 168.51 177.10 169.23 176.17 169.10 175.16 L 168.97 174.15 C 168.84 173.14 167.91 172.42 166.90 172.55 C 165.89 172.68 165.17 173.61 165.30 174.62 Z M 165.45 175.68 L 165.60 176.68 C 165.76 177.69 166.70 178.38 167.71 178.22 C 168.71 178.06 169.40 177.12 169.24 176.12 L 169.09 175.11 C 168.93 174.11 167.99 173.42 166.98 173.58 C 165.98 173.73 165.29 174.67 165.45 175.68 Z M 165.62 176.76 L 165.82 177.73 C 166.01 178.72 166.98 179.37 167.98 179.17 C 168.97 178.97 169.62 178.00 169.42 177.01 L 169.22 176.04 C 169.02 175.04 168.06 174.40 167.06 174.60 C 166.07 174.80 165.42 175.76 165.62 176.76 Z M 165.85 177.84 L 166.12 178.83 C 166.38 179.80 167.38 180.38 168.35 180.12 C 169.33 179.86 169.91 178.85 169.65 177.88 L 169.38 176.89 C 169.12 175.92 168.12 175.34 167.14 175.60 C 166.17 175.86 165.59 176.87 165.85 177.84 Z M 166.17 178.95 L 166.51 179.91 C 166.84 180.86 167.87 181.35 168.81 181.02 C 169.76 180.69 170.26 179.66 169.93 178.72 L 169.59 177.75 C 169.26 176.81 168.23 176.31 167.28 176.64 C 166.34 176.97 165.84 178.01 166.17 178.95 Z M 166.56 180.00 L 166.93 180.91 C 167.31 181.82 168.36 182.26 169.28 181.88 C 170.19 181.50 170.63 180.45 170.25 179.53 L 169.87 178.63 C 169.50 177.71 168.45 177.28 167.53 177.66 C 166.62 178.04 166.18 179.09 166.56 180.00 Z M 166.97 180.95 L 167.37 181.83 C 167.77 182.72 168.82 183.12 169.72 182.72 C 170.61 182.31 171.01 181.26 170.61 180.37 L 170.21 179.49 C 169.81 178.60 168.76 178.20 167.86 178.60 C 166.97 179.00 166.57 180.06 166.97 180.95 Z M 167.38 181.83 L 167.41 181.89 C 167.81 182.77 168.86 183.16 169.75 182.76 C 170.64 182.35 171.03 181.30 170.62 180.42 L 170.59 180.36 C 170.19 179.47 169.14 179.08 168.25 179.49 C 167.36 179.90 166.98 180.95 167.38 181.83 Z"
      fill="black"
      fill-rule="nonzero" /></svg>