<svg xmlns="http://www.w3.org/2000/svg" width="300" height="300" viewBox="0 0 300 300">
<path d="M 127.06 130.65 L 127.58 129.41 C 127.97 128.48 127.53 127.41 126.61 127.02 C 125.68 126.63 124.61 127.07 124.22 128.00 L 123.70 129.24 C 123.31 130.17 123.75 131.24 124.68 131.63 C 125.60 132.02 126.67 131.58 127.06 130.65 Z M 127.75 129.04 L 127.85 128.50 C 128.03 127.48 127.36 126.51 126.34 126.32 C 125.32 126.13 124.34 126.81 124.15 127.82 L 124.06 128.36 C 123.87 129.38 124.54 130.36 125.56 130.55 C 126.58 130.74 127.56 130.06 127.75 129.04 Z M 124.66 126.80 L 124.30 127.15 C 123.55 127.89 123.54 129.10 124.28 129.85 C 125.02 130.61 126.23 130.62 126.98 129.88 L 127.34 129.53 C 128.09 128.79 128.10 127.58 127.36 126.83 C 126.62 126.07 125.42 126.06 124.66 126.80 Z M 124.12 127.35 L 123.58 128.06 C 122.93 128.90 123.09 130.10 123.93 130.74 C 124.77 131.39 125.98 131.23 126.62 130.39 L 127.16 129.68 C 127.81 128.84 127.65 127.64 126.81 127.00 C 125.97 126.35 124.76 126.51 124.12 127.35 Z M 123.54 128.11 L 122.87 129.04 C 122.26 129.90 122.46 131.10 123.32 131.72 C 124.18 132.33 125.37 132.13 125.99 131.27 L 126.66 130.34 C 127.27 129.48 127.07 128.28 126.21 127.66 C 125.35 127.05 124.15 127.25 123.54 128.11 Z M 122.85 129.07 L 122.15 130.09 C 121.55 130.96 121.77 132.16 122.64 132.76 C 123.51 133.36 124.71 133.14 125.31 132.27 L 126.01 131.24 C 126.61 130.37 126.39 129.18 125.52 128.58 C 124.65 127.98 123.45 128.20 122.85 129.07 Z M 122.14 130.11 L 121.53 131.02 C 120.94 131.89 121.18 133.08 122.06 133.67 C 122.94 134.26 124.13 134.03 124.71 133.15 L 125.32 132.24 C 125.91 131.36 125.67 130.18 124.79 129.59 C 123.92 129.00 122.73 129.23 122.14 130.11 Z M 121.52 131.04 L 121.00 131.86 C 120.42 132.74 120.67 133.92 121.55 134.49 C 122.44 135.07 123.62 134.82 124.19 133.94 L 124.72 133.12 C 125.30 132.24 125.05 131.06 124.16 130.48 C 123.28 129.91 122.10 130.16 121.52 131.04 Z M 120.99 131.88 L 120.48 132.69 C 119.92 133.58 120.19 134.75 121.08 135.31 C 121.96 135.87 123.14 135.60 123.69 134.71 L 124.20 133.91 C 124.76 133.02 124.49 131.85 123.61 131.29 C 122.72 130.73 121.55 131.00 120.99 131.88 Z M 120.47 132.72 L 119.96 133.56 C 119.41 134.45 119.70 135.62 120.59 136.16 C 121.48 136.70 122.64 136.42 123.19 135.53 L 123.70 134.69 C 124.25 133.79 123.96 132.63 123.07 132.09 C 122.18 131.54 121.02 131.83 120.47 132.72 Z M 119.95 133.58 L 119.41 134.50 C 118.88 135.39 119.17 136.55 120.07 137.08 C 120.96 137.61 122.12 137.32 122.65 136.42 L 123.19 135.51 C 123.72 134.61 123.43 133.46 122.53 132.93 C 121.64 132.40 120.48 132.69 119.95 133.58 Z M 119.41 134.52 L 118.97 135.26 C 118.45 136.15 118.75 137.30 119.65 137.83 C 120.54 138.35 121.69 138.05 122.21 137.15 L 122.65 136.41 C 123.17 135.51 122.87 134.36 121.97 133.84 C 121.08 133.32 119.93 133.62 119.41 134.52 Z M 118.98 135.27 L 118.51 136.08 C 118.00 136.97 118.30 138.11 119.20 138.63 C 120.09 139.14 121.23 138.84 121.75 137.94 L 122.21 137.14 C 122.73 136.24 122.42 135.10 121.53 134.59 C 120.63 134.07 119.49 134.38 118.98 135.27 Z M 118.51 136.09 L 118.03 136.94 C 117.52 137.84 117.83 138.97 118.72 139.48 C 119.62 139.99 120.75 139.68 121.26 138.78 L 121.75 137.93 C 122.26 137.04 121.94 135.90 121.05 135.39 C 120.16 134.88 119.02 135.20 118.51 136.09 Z M 118.03 136.96 L 117.52 137.85 C 117.02 138.75 117.34 139.88 118.23 140.38 C 119.12 140.88 120.25 140.56 120.75 139.67 L 121.26 138.77 C 121.76 137.88 121.44 136.75 120.55 136.25 C 119.66 135.75 118.53 136.06 118.03 136.96 Z M 117.53 137.87 L 117.01 138.80 C 116.51 139.69 116.83 140.82 117.72 141.31 C 118.62 141.81 119.74 141.48 120.23 140.59 L 120.75 139.66 C 121.25 138.77 120.93 137.64 120.04 137.15 C 119.14 136.65 118.02 136.98 117.53 137.87 Z M 117.01 138.81 L 116.48 139.78 C 115.99 140.67 116.32 141.79 117.21 142.27 C 118.10 142.76 119.22 142.44 119.70 141.55 L 120.23 140.58 C 120.72 139.69 120.39 138.57 119.50 138.09 C 118.61 137.60 117.50 137.92 117.01 138.81 Z M 116.48 139.79 L 115.98 140.72 C 115.50 141.61 115.83 142.72 116.72 143.20 C 117.61 143.68 118.72 143.35 119.20 142.46 L 119.70 141.53 C 120.18 140.64 119.85 139.53 118.96 139.05 C 118.07 138.57 116.96 138.90 116.48 139.79 Z M 115.99 140.73 L 115.50 141.64 C 115.03 142.53 115.36 143.63 116.25 144.10 C 117.13 144.58 118.23 144.24 118.70 143.36 L 119.19 142.44 C 119.66 141.56 119.33 140.46 118.45 139.99 C 117.56 139.51 116.46 139.85 115.99 140.73 Z M 115.51 141.66 L 115.03 142.57 C 114.56 143.45 114.90 144.54 115.78 145.01 C 116.66 145.47 117.75 145.14 118.21 144.26 L 118.70 143.34 C 119.16 142.46 118.82 141.37 117.94 140.91 C 117.06 140.44 115.97 140.78 115.51 141.66 Z M 115.03 142.59 L 114.56 143.49 C 114.10 144.37 114.44 145.45 115.32 145.91 C 116.19 146.37 117.27 146.03 117.73 145.15 L 118.20 144.24 C 118.66 143.37 118.32 142.29 117.45 141.83 C 116.57 141.37 115.49 141.71 115.03 142.59 Z M 114.57 143.51 L 114.11 144.40 C 113.66 145.27 114.00 146.34 114.87 146.79 C 115.74 147.24 116.81 146.90 117.26 146.03 L 117.72 145.14 C 118.17 144.27 117.83 143.20 116.96 142.74 C 116.09 142.29 115.02 142.64 114.57 143.51 Z M 114.11 144.41 L 113.67 145.28 C 113.23 146.15 113.57 147.21 114.44 147.65 C 115.31 148.09 116.37 147.75 116.81 146.88 L 117.25 146.02 C 117.70 145.15 117.35 144.09 116.49 143.64 C 115.62 143.20 114.56 143.55 114.11 144.41 Z M 113.68 145.29 L 113.26 146.13 C 112.82 146.99 113.17 148.04 114.03 148.48 C 114.90 148.91 115.95 148.56 116.38 147.70 L 116.80 146.87 C 117.24 146.01 116.89 144.95 116.03 144.52 C 115.17 144.08 114.12 144.43 113.68 145.29 Z M 113.27 146.14 L 112.81 147.06 C 112.38 147.92 112.73 148.96 113.59 149.39 C 114.45 149.82 115.49 149.47 115.92 148.61 L 116.37 147.69 C 116.80 146.83 116.45 145.79 115.59 145.36 C 114.74 144.93 113.69 145.28 113.27 146.14 Z M 112.81 147.08 L 112.37 148.00 C 111.95 148.85 112.31 149.88 113.16 150.30 C 114.02 150.72 115.05 150.36 115.46 149.51 L 115.91 148.59 C 116.33 147.74 115.97 146.71 115.12 146.29 C 114.26 145.87 113.23 146.23 112.81 147.08 Z M 112.37 148.02 L 111.95 148.91 C 111.55 149.76 111.91 150.78 112.77 151.18 C 113.62 151.58 114.64 151.22 115.04 150.37 L 115.46 149.48 C 115.86 148.63 115.50 147.61 114.65 147.21 C 113.79 146.81 112.78 147.17 112.37 148.02 Z M 111.96 148.93 L 111.56 149.81 C 111.17 150.66 111.54 151.67 112.39 152.06 C 113.24 152.45 114.24 152.07 114.63 151.22 L 115.03 150.34 C 115.42 149.49 115.05 148.49 114.20 148.10 C 113.35 147.71 112.35 148.09 111.96 148.93 Z M 111.56 149.84 L 111.17 150.73 C 110.79 151.58 111.17 152.57 112.02 152.94 C 112.87 153.32 113.86 152.94 114.23 152.09 L 114.63 151.20 C 115.00 150.35 114.62 149.36 113.77 148.98 C 112.92 148.61 111.93 148.99 111.56 149.84 Z M 111.17 150.76 L 110.78 151.68 C 110.42 152.53 110.81 153.51 111.65 153.87 C 112.50 154.23 113.48 153.83 113.84 152.99 L 114.23 152.06 C 114.59 151.22 114.20 150.24 113.35 149.88 C 112.51 149.52 111.53 149.91 111.17 150.76 Z M 110.78 151.70 L 110.39 152.65 C 110.04 153.50 110.44 154.46 111.28 154.81 C 112.13 155.16 113.10 154.76 113.44 153.91 L 113.84 152.97 C 114.18 152.12 113.78 151.15 112.94 150.81 C 112.09 150.46 111.12 150.86 110.78 151.70 Z M 110.38 152.66 L 109.99 153.63 C 109.65 154.48 110.06 155.44 110.90 155.78 C 111.75 156.13 112.71 155.72 113.05 154.87 L 113.45 153.90 C 113.79 153.06 113.38 152.09 112.53 151.75 C 111.69 151.41 110.73 151.82 110.38 152.66 Z M 109.99 153.64 L 109.61 154.61 C 109.27 155.45 109.68 156.41 110.52 156.75 C 111.37 157.09 112.33 156.68 112.67 155.83 L 113.05 154.87 C 113.39 154.02 112.98 153.06 112.14 152.72 C 111.29 152.39 110.33 152.80 109.99 153.64 Z M 109.61 154.61 L 109.23 155.55 C 108.90 156.39 109.31 157.35 110.15 157.69 C 110.99 158.03 111.95 157.62 112.29 156.77 L 112.66 155.83 C 113.00 154.99 112.59 154.03 111.75 153.69 C 110.90 153.36 109.95 153.77 109.61 154.61 Z M 109.24 155.54 L 108.88 156.43 C 108.54 157.27 108.94 158.23 109.78 158.57 C 110.62 158.91 111.58 158.50 111.92 157.66 L 112.28 156.78 C 112.62 155.94 112.22 154.98 111.38 154.64 C 110.54 154.30 109.58 154.70 109.24 155.54 Z M 108.89 156.42 L 108.51 157.33 C 108.16 158.16 108.55 159.12 109.39 159.47 C 110.22 159.82 111.18 159.43 111.53 158.59 L 111.91 157.68 C 112.26 156.84 111.87 155.88 111.03 155.54 C 110.20 155.19 109.24 155.58 108.89 156.42 Z M 108.52 157.30 L 108.06 158.34 C 107.70 159.17 108.07 160.13 108.90 160.50 C 109.73 160.86 110.69 160.49 111.06 159.66 L 111.52 158.62 C 111.88 157.79 111.51 156.83 110.68 156.46 C 109.85 156.10 108.89 156.47 108.52 157.30 Z M 108.08 158.31 L 107.66 159.20 C 107.28 160.02 107.63 160.99 108.45 161.37 C 109.27 161.76 110.24 161.40 110.63 160.59 L 111.04 159.70 C 111.43 158.88 111.07 157.90 110.26 157.52 C 109.44 157.13 108.46 157.49 108.08 158.31 Z M 107.67 159.17 L 107.28 159.97 C 106.88 160.78 107.22 161.76 108.03 162.16 C 108.84 162.56 109.83 162.22 110.22 161.41 L 110.61 160.61 C 111.01 159.80 110.68 158.82 109.86 158.42 C 109.05 158.02 108.07 158.36 107.67 159.17 Z M 107.29 159.96 L 107.07 160.39 C 106.67 161.20 107.00 162.18 107.81 162.58 C 108.62 162.99 109.60 162.66 110.00 161.85 L 110.22 161.42 C 110.62 160.61 110.29 159.63 109.48 159.22 C 108.67 158.82 107.69 159.15 107.29 159.96 Z"
      fill="black"
      fill-rule="nonzero" /><path d="M 118.52 148.99 L 119.60 149.06 C 120.52 149.12 121.31 148.41 121.37 147.49 C 121.43 146.57 120.72 145.77 119.80 145.72 L 118.72 145.65 C 117.80 145.60 117.00 146.30 116.95 147.22 C 116.89 148.14 117.59 148.94 118.52 148.99 Z M 119.37 149.11 L 120.35 149.29 C 121.30 149.47 122.22 148.85 122.40 147.90 C 122.58 146.95 121.95 146.04 121.01 145.86 L 120.03 145.67 C 119.08 145.49 118.16 146.11 117.98 147.06 C 117.80 148.01 118.42 148.93 119.37 149.11 Z M 119.80 149.17 L 120.56 149.59 C 121.44 150.07 122.55 149.75 123.04 148.87 C 123.52 147.99 123.20 146.89 122.32 146.40 L 121.56 145.98 C 120.68 145.50 119.57 145.82 119.08 146.70 C 118.60 147.58 118.92 148.68 119.80 149.17 Z M 119.93 149.07 L 120.39 149.72 C 120.98 150.56 122.14 150.75 122.98 150.16 C 123.81 149.57 124.01 148.41 123.42 147.57 L 122.96 146.92 C 122.36 146.08 121.20 145.89 120.37 146.48 C 119.53 147.07 119.33 148.23 119.93 149.07 Z M 120.13 149.24 L 120.44 150.15 C 120.77 151.13 121.82 151.65 122.80 151.33 C 123.78 151.00 124.30 149.95 123.98 148.97 L 123.67 148.05 C 123.35 147.08 122.29 146.55 121.31 146.88 C 120.33 147.20 119.81 148.26 120.13 149.24 Z M 120.37 149.91 L 120.59 151.08 C 120.78 152.10 121.76 152.76 122.78 152.57 C 123.79 152.38 124.46 151.40 124.27 150.38 L 124.05 149.21 C 123.86 148.19 122.88 147.53 121.86 147.72 C 120.84 147.91 120.17 148.89 120.37 149.91 Z M 120.57 151.00 L 120.71 151.95 C 120.86 152.97 121.81 153.68 122.84 153.53 C 123.87 153.38 124.58 152.43 124.43 151.40 L 124.29 150.46 C 124.14 149.43 123.18 148.72 122.16 148.87 C 121.13 149.02 120.42 149.98 120.57 151.00 Z M 120.70 151.92 L 120.83 152.86 C 120.96 153.89 121.91 154.62 122.94 154.48 C 123.97 154.35 124.69 153.40 124.56 152.37 L 124.43 151.43 C 124.30 150.40 123.35 149.68 122.32 149.81 C 121.29 149.95 120.57 150.89 120.70 151.92 Z M 120.82 152.84 L 120.94 153.84 C 121.06 154.87 122.00 155.61 123.03 155.49 C 124.06 155.37 124.80 154.43 124.68 153.40 L 124.56 152.40 C 124.44 151.36 123.50 150.63 122.47 150.75 C 121.44 150.87 120.70 151.81 120.82 152.84 Z M 120.94 153.82 L 121.05 154.86 C 121.16 155.90 122.09 156.64 123.12 156.53 C 124.16 156.42 124.90 155.50 124.79 154.46 L 124.68 153.42 C 124.57 152.39 123.65 151.64 122.61 151.75 C 121.58 151.86 120.83 152.79 120.94 153.82 Z M 121.05 154.84 L 121.15 155.90 C 121.24 156.94 122.16 157.70 123.20 157.60 C 124.24 157.50 125.00 156.58 124.90 155.54 L 124.80 154.48 C 124.70 153.45 123.78 152.69 122.74 152.79 C 121.71 152.88 120.95 153.80 121.05 154.84 Z M 121.14 155.88 L 121.23 156.95 C 121.32 157.99 122.23 158.76 123.26 158.68 C 124.30 158.59 125.07 157.68 124.99 156.64 L 124.90 155.57 C 124.82 154.53 123.91 153.76 122.87 153.84 C 121.83 153.93 121.06 154.84 121.14 155.88 Z M 121.23 156.93 L 121.30 158.00 C 121.38 159.04 122.28 159.82 123.32 159.75 C 124.36 159.67 125.14 158.77 125.07 157.73 L 124.99 156.66 C 124.92 155.63 124.02 154.84 122.98 154.92 C 121.94 154.99 121.16 155.89 121.23 156.93 Z M 121.30 157.98 L 121.37 159.02 C 121.43 160.06 122.32 160.85 123.36 160.78 C 124.40 160.72 125.20 159.82 125.13 158.79 L 125.07 157.75 C 125.00 156.71 124.11 155.92 123.07 155.98 C 122.03 156.05 121.24 156.94 121.30 157.98 Z M 121.37 159.00 L 121.42 159.99 C 121.48 161.03 122.36 161.83 123.40 161.77 C 124.44 161.71 125.24 160.83 125.19 159.79 L 125.13 158.80 C 125.08 157.76 124.19 156.96 123.15 157.02 C 122.11 157.07 121.31 157.96 121.37 159.00 Z M 121.42 159.98 L 121.46 160.90 C 121.52 161.94 122.40 162.75 123.44 162.69 C 124.48 162.64 125.28 161.76 125.23 160.72 L 125.19 159.79 C 125.14 158.75 124.25 157.95 123.21 158.00 C 122.17 158.05 121.37 158.94 121.42 159.98 Z M 121.47 160.90 L 121.51 161.89 C 121.56 162.93 122.44 163.74 123.48 163.69 C 124.52 163.64 125.32 162.76 125.28 161.72 L 125.23 160.72 C 125.18 159.68 124.30 158.88 123.26 158.93 C 122.22 158.98 121.42 159.86 121.47 160.90 Z M 121.52 161.89 L 121.56 162.94 C 121.61 163.98 122.49 164.78 123.53 164.74 C 124.56 164.69 125.37 163.81 125.32 162.77 L 125.27 161.72 C 125.22 160.68 124.35 159.88 123.31 159.93 C 122.27 159.98 121.47 160.86 121.52 161.89 Z M 121.57 162.95 L 121.62 163.91 C 121.67 164.94 122.54 165.74 123.58 165.69 C 124.61 165.64 125.41 164.76 125.36 163.73 L 125.31 162.77 C 125.26 161.74 124.39 160.94 123.35 160.99 C 122.32 161.04 121.52 161.91 121.57 162.95 Z M 121.62 163.92 L 121.67 164.85 C 121.73 165.87 122.61 166.66 123.64 166.61 C 124.67 166.55 125.46 165.68 125.40 164.65 L 125.35 163.72 C 125.30 162.69 124.42 161.90 123.39 161.96 C 122.36 162.01 121.57 162.89 121.62 163.92 Z M 121.68 164.86 L 121.74 165.83 C 121.80 166.86 122.69 167.64 123.71 167.58 C 124.74 167.51 125.52 166.63 125.45 165.61 L 125.39 164.63 C 125.33 163.61 124.45 162.83 123.42 162.89 C 122.40 162.95 121.62 163.83 121.68 164.86 Z M 121.75 165.84 L 121.82 166.84 C 121.88 167.86 122.76 168.64 123.78 168.57 C 124.80 168.50 125.58 167.62 125.51 166.60 L 125.44 165.60 C 125.38 164.58 124.50 163.81 123.48 163.87 C 122.46 163.94 121.68 164.82 121.75 165.84 Z M 121.82 166.84 L 121.89 167.85 C 121.96 168.86 122.83 169.63 123.85 169.57 C 124.86 169.50 125.63 168.62 125.57 167.61 L 125.50 166.60 C 125.44 165.59 124.56 164.82 123.54 164.88 C 122.53 164.95 121.76 165.83 121.82 166.84 Z M 121.90 167.84 L 121.96 168.84 C 122.02 169.85 122.88 170.62 123.90 170.56 C 124.91 170.50 125.68 169.64 125.62 168.63 L 125.56 167.62 C 125.50 166.61 124.63 165.84 123.62 165.90 C 122.61 165.96 121.84 166.83 121.90 167.84 Z M 121.97 168.83 L 122.02 169.84 C 122.07 170.84 122.93 171.62 123.93 171.56 C 124.94 171.51 125.71 170.65 125.66 169.65 L 125.61 168.64 C 125.56 167.63 124.70 166.86 123.69 166.91 C 122.69 166.96 121.91 167.82 121.97 168.83 Z M 122.03 169.83 L 122.08 170.83 C 122.13 171.83 122.98 172.60 123.98 172.55 C 124.98 172.50 125.75 171.65 125.70 170.64 L 125.65 169.65 C 125.60 168.65 124.75 167.88 123.75 167.93 C 122.75 167.98 121.98 168.83 122.03 169.83 Z M 122.08 170.83 L 122.14 171.82 C 122.19 172.82 123.05 173.58 124.04 173.53 C 125.04 173.47 125.80 172.62 125.75 171.62 L 125.69 170.64 C 125.64 169.64 124.79 168.88 123.79 168.93 C 122.79 168.99 122.03 169.84 122.08 170.83 Z M 122.15 171.84 L 122.21 172.84 C 122.28 173.83 123.13 174.58 124.12 174.52 C 125.12 174.46 125.87 173.60 125.80 172.61 L 125.74 171.61 C 125.67 170.61 124.82 169.86 123.83 169.93 C 122.84 169.99 122.08 170.85 122.15 171.84 Z M 122.23 172.85 L 122.30 173.85 C 122.36 174.84 123.22 175.58 124.20 175.51 C 125.19 175.44 125.93 174.59 125.86 173.60 L 125.79 172.60 C 125.72 171.62 124.87 170.87 123.88 170.94 C 122.90 171.01 122.16 171.87 122.23 172.85 Z M 122.31 173.85 L 122.37 174.84 C 122.44 175.82 123.29 176.56 124.27 176.49 C 125.25 176.43 125.98 175.58 125.92 174.60 L 125.85 173.61 C 125.78 172.63 124.94 171.89 123.96 171.95 C 122.98 172.02 122.24 172.87 122.31 173.85 Z M 122.38 174.83 L 122.43 175.67 C 122.49 176.64 123.33 177.39 124.30 177.33 C 125.28 177.27 126.02 176.43 125.96 175.46 L 125.91 174.61 C 125.85 173.64 125.01 172.90 124.04 172.96 C 123.07 173.01 122.32 173.85 122.38 174.83 Z M 122.44 175.66 L 122.49 176.49 C 122.54 177.46 123.37 178.20 124.34 178.15 C 125.31 178.09 126.05 177.26 126.00 176.29 L 125.95 175.46 C 125.90 174.49 125.07 173.75 124.10 173.81 C 123.13 173.86 122.39 174.69 122.44 175.66 Z M 122.50 176.50 L 122.55 177.45 C 122.61 178.42 123.44 179.15 124.41 179.10 C 125.37 179.04 126.11 178.21 126.05 177.24 L 125.99 176.29 C 125.93 175.32 125.10 174.59 124.14 174.64 C 123.17 174.70 122.44 175.53 122.50 176.50 Z M 122.56 177.47 L 122.64 178.63 C 122.71 179.59 123.54 180.32 124.50 180.25 C 125.46 180.19 126.18 179.36 126.12 178.40 L 126.04 177.23 C 125.97 176.27 125.14 175.55 124.18 175.61 C 123.22 175.68 122.50 176.51 122.56 177.47 Z M 122.65 178.65 L 122.73 179.77 C 122.81 180.72 123.64 181.44 124.59 181.37 C 125.55 181.29 126.26 180.46 126.19 179.51 L 126.11 178.39 C 126.04 177.43 125.20 176.72 124.25 176.79 C 123.29 176.86 122.58 177.69 122.65 178.65 Z M 122.74 179.78 L 122.82 180.71 C 122.89 181.66 123.73 182.37 124.68 182.29 C 125.63 182.21 126.34 181.38 126.26 180.43 L 126.19 179.50 C 126.11 178.55 125.28 177.84 124.33 177.91 C 123.37 177.99 122.66 178.82 122.74 179.78 Z M 122.82 180.71 L 122.91 181.71 C 122.99 182.66 123.82 183.36 124.77 183.28 C 125.72 183.20 126.42 182.37 126.34 181.42 L 126.26 180.42 C 126.18 179.47 125.34 178.77 124.39 178.85 C 123.45 178.93 122.74 179.76 122.82 180.71 Z M 122.91 181.72 L 123.00 182.76 C 123.09 183.70 123.92 184.40 124.86 184.32 C 125.81 184.24 126.51 183.40 126.43 182.46 L 126.33 181.42 C 126.25 180.47 125.42 179.77 124.47 179.86 C 123.53 179.94 122.83 180.77 122.91 181.72 Z M 123.01 182.76 L 123.11 183.82 C 123.19 184.76 124.03 185.46 124.97 185.37 C 125.91 185.28 126.60 184.45 126.52 183.51 L 126.42 182.45 C 126.33 181.51 125.50 180.82 124.56 180.90 C 123.62 180.99 122.92 181.82 123.01 182.76 Z M 123.11 183.83 L 123.21 184.87 C 123.30 185.81 124.14 186.50 125.07 186.41 C 126.01 186.32 126.70 185.49 126.61 184.55 L 126.51 183.50 C 126.42 182.56 125.59 181.88 124.65 181.97 C 123.71 182.06 123.02 182.89 123.11 183.83 Z M 123.22 184.88 L 123.32 185.89 C 123.41 186.82 124.25 187.50 125.18 187.41 C 126.12 187.32 126.80 186.48 126.71 185.55 L 126.60 184.54 C 126.51 183.60 125.68 182.92 124.74 183.02 C 123.81 183.11 123.12 183.94 123.22 184.88 Z M 123.33 185.90 L 123.43 186.91 C 123.53 187.84 124.37 188.52 125.30 188.42 C 126.23 188.32 126.91 187.48 126.81 186.55 L 126.70 185.54 C 126.60 184.60 125.76 183.93 124.83 184.03 C 123.90 184.13 123.23 184.97 123.33 185.90 Z M 123.45 186.93 L 123.59 188.12 C 123.69 189.04 124.53 189.70 125.46 189.59 C 126.38 189.49 127.04 188.65 126.94 187.72 L 126.80 186.53 C 126.69 185.61 125.85 184.95 124.92 185.06 C 124.00 185.16 123.34 186.00 123.45 186.93 Z M 123.60 188.14 L 123.74 189.19 C 123.87 190.11 124.71 190.75 125.63 190.63 C 126.54 190.51 127.19 189.66 127.06 188.74 L 126.92 187.69 C 126.80 186.78 125.95 186.13 125.04 186.26 C 124.12 186.38 123.48 187.23 123.60 188.14 Z M 123.76 189.23 L 123.91 190.17 C 124.05 191.08 124.90 191.70 125.81 191.56 C 126.72 191.41 127.34 190.56 127.20 189.65 L 127.05 188.71 C 126.90 187.80 126.05 187.18 125.14 187.32 C 124.23 187.47 123.61 188.32 123.76 189.23 Z M 123.93 190.22 L 124.09 191.08 C 124.26 191.98 125.12 192.57 126.02 192.40 C 126.92 192.23 127.51 191.37 127.34 190.47 L 127.18 189.61 C 127.01 188.71 126.14 188.12 125.25 188.29 C 124.35 188.46 123.76 189.32 123.93 190.22 Z M 124.11 191.14 L 124.30 191.97 C 124.49 192.85 125.37 193.41 126.26 193.21 C 127.14 193.02 127.70 192.14 127.50 191.25 L 127.32 190.42 C 127.12 189.54 126.24 188.98 125.36 189.18 C 124.47 189.37 123.92 190.25 124.11 191.14 Z M 124.32 192.02 L 124.57 193.00 C 124.80 193.87 125.69 194.40 126.56 194.17 C 127.44 193.94 127.97 193.05 127.74 192.18 L 127.48 191.20 C 127.26 190.32 126.36 189.80 125.49 190.03 C 124.61 190.25 124.09 191.15 124.32 192.02 Z M 124.58 193.05 L 124.86 194.01 C 125.12 194.88 126.03 195.37 126.90 195.12 C 127.76 194.86 128.26 193.95 128.01 193.09 L 127.72 192.13 C 127.47 191.26 126.56 190.76 125.69 191.02 C 124.83 191.27 124.33 192.18 124.58 193.05 Z M 124.88 194.04 L 125.18 194.99 C 125.45 195.85 126.37 196.33 127.23 196.06 C 128.09 195.78 128.57 194.86 128.30 194.00 L 128.00 193.05 C 127.72 192.19 126.80 191.71 125.94 191.99 C 125.08 192.26 124.60 193.18 124.88 194.04 Z M 125.18 195.01 L 125.49 195.95 C 125.78 196.81 126.70 197.28 127.56 196.99 C 128.42 196.71 128.89 195.79 128.60 194.93 L 128.29 193.98 C 128.01 193.13 127.08 192.66 126.22 192.94 C 125.36 193.23 124.90 194.15 125.18 195.01 Z M 125.49 195.96 L 125.55 196.13 C 125.84 196.99 126.76 197.45 127.62 197.16 C 128.48 196.88 128.94 195.95 128.66 195.09 L 128.60 194.92 C 128.31 194.07 127.39 193.60 126.53 193.89 C 125.67 194.17 125.21 195.10 125.49 195.96 Z"
      fill="black"
      fill-rule="nonzero" /><path d="M 149.21 117.85 L 148.68 118.68 C 148.15 119.51 148.40 120.61 149.23 121.14 C 150.06 121.66 151.16 121.42 151.68 120.59 L 152.21 119.75 C 152.74 118.92 152.49 117.82 151.66 117.30 C 150.83 116.77 149.74 117.02 149.21 117.85 Z M 148.65 118.72 L 148.14 119.57 C 147.63 120.41 147.91 121.51 148.75 122.02 C 149.59 122.53 150.69 122.25 151.20 121.41 L 151.71 120.56 C 152.22 119.71 151.94 118.62 151.10 118.11 C 150.25 117.60 149.16 117.87 148.65 118.72 Z M 148.09 119.64 L 147.62 120.52 C 147.15 121.39 147.48 122.48 148.35 122.95 C 149.22 123.41 150.30 123.09 150.77 122.22 L 151.25 121.34 C 151.71 120.47 151.39 119.38 150.52 118.91 C 149.65 118.44 148.56 118.77 148.09 119.64 Z M 147.56 120.63 L 147.14 121.56 C 146.73 122.46 147.14 123.52 148.04 123.93 C 148.95 124.34 150.01 123.94 150.42 123.03 L 150.83 122.11 C 151.24 121.20 150.84 120.14 149.93 119.73 C 149.03 119.32 147.96 119.73 147.56 120.63 Z M 147.08 121.69 L 146.75 122.62 C 146.42 123.55 146.91 124.58 147.85 124.92 C 148.79 125.25 149.82 124.76 150.15 123.82 L 150.48 122.90 C 150.81 121.96 150.32 120.93 149.38 120.60 C 148.44 120.26 147.41 120.75 147.08 121.69 Z M 146.71 122.74 L 146.45 123.71 C 146.18 124.67 146.75 125.66 147.71 125.92 C 148.67 126.19 149.66 125.62 149.93 124.66 L 150.19 123.70 C 150.45 122.74 149.89 121.74 148.93 121.48 C 147.97 121.22 146.98 121.78 146.71 122.74 Z M 146.42 123.82 L 146.21 124.81 C 146.01 125.78 146.64 126.74 147.62 126.94 C 148.59 127.14 149.55 126.51 149.75 125.54 L 149.95 124.55 C 150.16 123.57 149.53 122.62 148.55 122.42 C 147.57 122.21 146.62 122.84 146.42 123.82 Z M 146.19 124.91 L 146.05 125.90 C 145.90 126.89 146.58 127.81 147.57 127.96 C 148.56 128.10 149.48 127.42 149.62 126.43 L 149.77 125.44 C 149.92 124.45 149.23 123.53 148.25 123.38 C 147.26 123.24 146.34 123.92 146.19 124.91 Z M 146.04 126.00 L 145.94 127.03 C 145.85 128.02 146.58 128.90 147.57 129.00 C 148.56 129.09 149.44 128.36 149.54 127.37 L 149.63 126.34 C 149.73 125.35 149.00 124.47 148.01 124.37 C 147.01 124.28 146.13 125.01 146.04 126.00 Z M 145.94 127.11 L 145.89 128.13 C 145.84 129.12 146.60 129.97 147.59 130.02 C 148.58 130.07 149.43 129.30 149.48 128.31 L 149.53 127.29 C 149.58 126.30 148.82 125.46 147.83 125.40 C 146.84 125.35 145.99 126.12 145.94 127.11 Z M 145.90 128.18 L 145.88 129.18 C 145.86 130.17 146.64 130.98 147.63 131.00 C 148.61 131.02 149.43 130.24 149.45 129.25 L 149.47 128.26 C 149.49 127.27 148.71 126.46 147.72 126.43 C 146.74 126.41 145.92 127.20 145.90 128.18 Z M 145.89 129.21 L 145.88 130.17 C 145.88 131.15 146.67 131.95 147.65 131.95 C 148.64 131.96 149.44 131.16 149.44 130.18 L 149.44 129.22 C 149.45 128.24 148.65 127.44 147.67 127.44 C 146.69 127.43 145.89 128.23 145.89 129.21 Z M 145.90 130.18 L 145.90 131.19 C 145.90 132.17 146.69 132.96 147.66 132.95 C 148.64 132.95 149.43 132.16 149.43 131.19 L 149.43 130.17 C 149.42 129.20 148.63 128.41 147.66 128.41 C 146.68 128.41 145.89 129.20 145.90 130.18 Z M 145.92 131.21 L 145.93 132.21 C 145.94 133.17 146.74 133.94 147.70 133.93 C 148.67 133.92 149.44 133.12 149.42 132.16 L 149.41 131.16 C 149.40 130.20 148.60 129.43 147.64 129.44 C 146.67 129.46 145.90 130.25 145.92 131.21 Z M 145.95 132.26 L 145.99 133.24 C 146.03 134.19 146.84 134.93 147.79 134.89 C 148.74 134.85 149.48 134.05 149.44 133.09 L 149.40 132.11 C 149.36 131.16 148.56 130.42 147.60 130.46 C 146.65 130.50 145.91 131.30 145.95 132.26 Z M 146.01 133.31 L 146.10 134.27 C 146.17 135.21 147.00 135.91 147.94 135.83 C 148.88 135.75 149.58 134.92 149.50 133.98 L 149.42 133.02 C 149.34 132.08 148.52 131.38 147.57 131.46 C 146.63 131.54 145.94 132.37 146.01 133.31 Z M 146.12 134.34 L 146.24 135.25 C 146.36 136.18 147.21 136.84 148.14 136.71 C 149.06 136.59 149.72 135.74 149.60 134.82 L 149.48 133.91 C 149.36 132.98 148.51 132.32 147.58 132.45 C 146.65 132.57 146.00 133.42 146.12 134.34 Z M 146.26 135.32 L 146.43 136.28 C 146.58 137.20 147.45 137.81 148.37 137.65 C 149.28 137.49 149.90 136.62 149.74 135.71 L 149.57 134.75 C 149.42 133.83 148.55 133.22 147.63 133.38 C 146.72 133.54 146.10 134.41 146.26 135.32 Z M 146.45 136.34 L 146.67 137.37 C 146.86 138.27 147.74 138.84 148.64 138.65 C 149.55 138.46 150.12 137.58 149.93 136.68 L 149.71 135.65 C 149.52 134.75 148.64 134.17 147.74 134.36 C 146.84 134.55 146.26 135.44 146.45 136.34 Z M 146.69 137.42 L 146.95 138.46 C 147.16 139.35 148.06 139.89 148.95 139.68 C 149.83 139.46 150.38 138.57 150.16 137.68 L 149.91 136.63 C 149.69 135.74 148.80 135.20 147.91 135.41 C 147.02 135.63 146.47 136.53 146.69 137.42 Z M 146.96 138.49 L 147.22 139.46 C 147.45 140.34 148.36 140.86 149.24 140.63 C 150.12 140.39 150.64 139.49 150.41 138.61 L 150.15 137.65 C 149.91 136.76 149.01 136.24 148.13 136.48 C 147.25 136.71 146.73 137.61 146.96 138.49 Z M 147.23 139.48 L 147.50 140.47 C 147.75 141.35 148.66 141.86 149.53 141.61 C 150.41 141.37 150.92 140.46 150.67 139.58 L 150.40 138.59 C 150.15 137.71 149.24 137.20 148.37 137.45 C 147.49 137.69 146.98 138.60 147.23 139.48 Z M 147.51 140.48 L 147.80 141.47 C 148.05 142.34 148.96 142.84 149.83 142.59 C 150.70 142.34 151.21 141.43 150.95 140.56 L 150.67 139.57 C 150.42 138.70 149.51 138.19 148.63 138.45 C 147.76 138.70 147.26 139.61 147.51 140.48 Z M 147.80 141.47 L 148.08 142.42 C 148.33 143.29 149.25 143.79 150.11 143.54 C 150.98 143.28 151.48 142.37 151.23 141.50 L 150.95 140.55 C 150.69 139.68 149.78 139.18 148.91 139.44 C 148.04 139.69 147.55 140.60 147.80 141.47 Z M 148.08 142.42 L 148.37 143.41 C 148.62 144.28 149.53 144.78 150.40 144.53 C 151.27 144.27 151.77 143.36 151.52 142.49 L 151.23 141.50 C 150.97 140.64 150.06 140.14 149.19 140.39 C 148.33 140.64 147.83 141.55 148.08 142.42 Z M 148.37 143.41 L 148.66 144.43 C 148.91 145.30 149.82 145.80 150.69 145.55 C 151.56 145.30 152.06 144.40 151.81 143.53 L 151.52 142.50 C 151.27 141.63 150.36 141.13 149.49 141.38 C 148.62 141.63 148.12 142.54 148.37 143.41 Z M 148.66 144.43 L 148.93 145.37 C 149.18 146.24 150.08 146.74 150.95 146.49 C 151.82 146.25 152.33 145.34 152.08 144.47 L 151.81 143.53 C 151.57 142.66 150.66 142.16 149.79 142.40 C 148.92 142.65 148.42 143.56 148.66 144.43 Z M 148.93 145.36 L 149.18 146.25 C 149.42 147.12 150.33 147.63 151.20 147.38 C 152.07 147.14 152.57 146.24 152.33 145.37 L 152.08 144.48 C 151.84 143.61 150.93 143.10 150.06 143.34 C 149.19 143.59 148.68 144.49 148.93 145.36 Z M 149.18 146.25 L 149.27 146.57 C 149.51 147.44 150.41 147.95 151.28 147.71 C 152.16 147.46 152.66 146.56 152.42 145.69 L 152.33 145.37 C 152.09 144.50 151.18 143.99 150.31 144.23 C 149.44 144.48 148.93 145.38 149.18 146.25 Z"
      fill="black"
      fill-rule="nonzero" /><path d="M 151.77 121.56 L 152.46 120.86 C 153.17 120.12 153.16 118.95 152.42 118.23 C 151.69 117.52 150.52 117.53 149.80 118.26 L 149.12 118.96 C 148.40 119.70 148.42 120.87 149.15 121.59 C 149.88 122.30 151.06 122.29 151.77 121.56 Z M 152.32 120.98 L 153.07 120.35 C 153.86 119.69 153.96 118.52 153.30 117.74 C 152.64 116.95 151.47 116.85 150.68 117.51 L 149.93 118.14 C 149.15 118.80 149.05 119.97 149.71 120.76 C 150.37 121.54 151.54 121.64 152.32 120.98 Z M 152.78 120.55 L 153.66 120.07 C 154.55 119.57 154.88 118.44 154.38 117.54 C 153.88 116.65 152.75 116.32 151.86 116.82 L 150.98 117.31 C 150.08 117.81 149.76 118.94 150.25 119.83 C 150.75 120.73 151.88 121.05 152.78 120.55 Z M 153.26 120.23 L 154.20 119.97 C 155.19 119.69 155.76 118.67 155.49 117.68 C 155.21 116.69 154.19 116.12 153.20 116.39 L 152.26 116.66 C 151.27 116.93 150.70 117.95 150.97 118.94 C 151.25 119.93 152.27 120.50 153.26 120.23 Z M 153.87 120.02 L 154.86 119.93 C 155.88 119.84 156.63 118.94 156.53 117.92 C 156.44 116.90 155.54 116.15 154.52 116.25 L 153.53 116.34 C 152.52 116.43 151.77 117.33 151.86 118.35 C 151.95 119.36 152.85 120.11 153.87 120.02 Z M 154.62 119.93 L 155.65 119.97 C 156.67 120.01 157.53 119.22 157.57 118.20 C 157.61 117.18 156.81 116.33 155.80 116.29 L 154.76 116.25 C 153.75 116.21 152.89 117.00 152.85 118.02 C 152.81 119.03 153.60 119.89 154.62 119.93 Z M 155.45 119.95 L 156.45 120.10 C 157.46 120.25 158.40 119.56 158.55 118.56 C 158.70 117.56 158.01 116.62 157.01 116.47 L 156.00 116.31 C 155.00 116.16 154.06 116.85 153.91 117.85 C 153.75 118.86 154.44 119.79 155.45 119.95 Z M 156.24 120.05 L 157.24 120.32 C 158.21 120.59 159.22 120.02 159.49 119.05 C 159.76 118.07 159.19 117.06 158.21 116.80 L 157.22 116.52 C 156.25 116.25 155.24 116.82 154.97 117.79 C 154.70 118.77 155.27 119.78 156.24 120.05 Z M 157.01 120.23 L 157.94 120.62 C 158.86 121.02 159.93 120.59 160.32 119.67 C 160.71 118.75 160.29 117.68 159.37 117.29 L 158.44 116.89 C 157.52 116.50 156.45 116.92 156.06 117.84 C 155.66 118.77 156.09 119.83 157.01 120.23 Z M 157.75 120.51 L 158.58 121.00 C 159.44 121.50 160.54 121.21 161.04 120.35 C 161.54 119.50 161.25 118.40 160.40 117.90 L 159.56 117.41 C 158.70 116.90 157.60 117.19 157.10 118.05 C 156.60 118.90 156.89 120.00 157.75 120.51 Z M 158.46 120.89 L 159.25 121.46 C 160.05 122.03 161.16 121.85 161.73 121.05 C 162.30 120.25 162.12 119.14 161.32 118.57 L 160.52 118.00 C 159.73 117.43 158.62 117.61 158.04 118.41 C 157.47 119.21 157.66 120.32 158.46 120.89 Z M 159.18 121.39 L 159.92 121.99 C 160.68 122.60 161.79 122.48 162.40 121.72 C 163.02 120.96 162.90 119.85 162.14 119.24 L 161.39 118.64 C 160.63 118.03 159.52 118.15 158.91 118.91 C 158.30 119.67 158.42 120.78 159.18 121.39 Z M 159.86 121.92 L 160.59 122.58 C 161.32 123.23 162.43 123.17 163.08 122.45 C 163.73 121.72 163.66 120.61 162.94 119.96 L 162.20 119.30 C 161.48 118.65 160.37 118.72 159.72 119.44 C 159.07 120.16 159.13 121.28 159.86 121.92 Z M 160.53 122.51 L 161.25 123.23 C 161.93 123.92 163.04 123.92 163.73 123.24 C 164.41 122.55 164.41 121.44 163.73 120.76 L 163.01 120.03 C 162.32 119.35 161.21 119.35 160.53 120.03 C 159.84 120.72 159.84 121.83 160.53 122.51 Z M 161.18 123.16 L 161.86 123.92 C 162.51 124.64 163.61 124.71 164.33 124.07 C 165.05 123.43 165.12 122.32 164.48 121.60 L 163.79 120.84 C 163.15 120.11 162.05 120.05 161.33 120.69 C 160.61 121.33 160.54 122.43 161.18 123.16 Z M 161.81 123.84 L 162.42 124.62 C 163.02 125.37 164.11 125.50 164.86 124.90 C 165.62 124.31 165.75 123.21 165.15 122.46 L 164.53 121.68 C 163.94 120.93 162.84 120.80 162.09 121.40 C 161.34 121.99 161.21 123.09 161.81 123.84 Z M 162.37 124.54 L 162.95 125.36 C 163.50 126.14 164.58 126.33 165.37 125.77 C 166.15 125.22 166.33 124.14 165.78 123.36 L 165.20 122.54 C 164.65 121.76 163.57 121.57 162.78 122.12 C 162.00 122.68 161.82 123.76 162.37 124.54 Z M 162.90 125.28 L 163.44 126.13 C 163.95 126.94 165.02 127.18 165.82 126.67 C 166.63 126.16 166.87 125.10 166.36 124.29 L 165.82 123.44 C 165.32 122.63 164.25 122.39 163.44 122.90 C 162.64 123.41 162.40 124.47 162.90 125.28 Z M 163.40 126.05 L 163.89 126.93 C 164.35 127.76 165.40 128.06 166.23 127.59 C 167.06 127.13 167.36 126.09 166.89 125.26 L 166.40 124.38 C 165.94 123.55 164.90 123.25 164.07 123.71 C 163.24 124.17 162.94 125.22 163.40 126.05 Z M 163.85 126.84 L 164.29 127.74 C 164.70 128.60 165.72 128.95 166.57 128.54 C 167.42 128.13 167.78 127.11 167.37 126.26 L 166.93 125.35 C 166.52 124.50 165.50 124.14 164.65 124.55 C 163.80 124.96 163.44 125.98 163.85 126.84 Z M 164.25 127.65 L 164.63 128.57 C 164.99 129.44 165.99 129.86 166.86 129.50 C 167.73 129.14 168.15 128.15 167.79 127.28 L 167.41 126.35 C 167.05 125.48 166.05 125.06 165.18 125.42 C 164.31 125.78 163.89 126.78 164.25 127.65 Z M 164.60 128.47 L 164.92 129.41 C 165.23 130.30 166.19 130.78 167.08 130.47 C 167.97 130.17 168.44 129.20 168.14 128.32 L 167.82 127.37 C 167.51 126.49 166.55 126.01 165.66 126.32 C 164.77 126.62 164.30 127.59 164.60 128.47 Z M 164.90 129.32 L 165.16 130.26 C 165.41 131.16 166.34 131.69 167.24 131.44 C 168.14 131.19 168.67 130.26 168.42 129.36 L 168.16 128.41 C 167.91 127.51 166.98 126.98 166.08 127.23 C 165.18 127.48 164.65 128.41 164.90 129.32 Z M 165.14 130.16 L 165.34 131.08 C 165.53 131.99 166.43 132.57 167.34 132.37 C 168.25 132.18 168.83 131.28 168.64 130.37 L 168.44 129.45 C 168.24 128.54 167.35 127.96 166.44 128.16 C 165.52 128.35 164.94 129.25 165.14 130.16 Z M 165.33 130.99 L 165.48 131.95 C 165.63 132.87 166.49 133.49 167.41 133.34 C 168.33 133.19 168.95 132.33 168.80 131.41 L 168.65 130.45 C 168.50 129.54 167.64 128.91 166.72 129.06 C 165.80 129.21 165.18 130.08 165.33 130.99 Z M 165.48 131.88 L 165.60 132.89 C 165.70 133.81 166.54 134.46 167.46 134.36 C 168.38 134.25 169.04 133.41 168.93 132.49 L 168.81 131.48 C 168.70 130.56 167.87 129.90 166.95 130.01 C 166.03 130.12 165.37 130.96 165.48 131.88 Z M 165.60 132.83 L 165.69 133.91 C 165.76 134.83 166.57 135.52 167.49 135.44 C 168.41 135.36 169.09 134.56 169.02 133.64 L 168.93 132.55 C 168.85 131.63 168.04 130.95 167.12 131.02 C 166.20 131.10 165.52 131.91 165.60 132.83 Z M 165.69 133.87 L 165.75 134.87 C 165.80 135.79 166.59 136.49 167.51 136.44 C 168.42 136.39 169.13 135.60 169.07 134.68 L 169.02 133.68 C 168.96 132.76 168.18 132.06 167.26 132.11 C 166.34 132.16 165.64 132.95 165.69 133.87 Z M 165.75 134.82 L 165.78 135.86 C 165.80 136.77 166.57 137.50 167.48 137.47 C 168.40 137.45 169.13 136.68 169.10 135.76 L 169.07 134.73 C 169.05 133.81 168.28 133.09 167.36 133.12 C 166.45 133.14 165.72 133.91 165.75 134.82 Z M 165.78 135.79 L 165.77 136.82 C 165.76 137.74 166.49 138.49 167.41 138.50 C 168.32 138.51 169.07 137.78 169.08 136.86 L 169.10 135.83 C 169.11 134.91 168.37 134.16 167.46 134.15 C 166.54 134.14 165.79 134.87 165.78 135.79 Z M 165.78 136.73 L 165.71 137.73 C 165.65 138.64 166.34 139.43 167.25 139.49 C 168.16 139.55 168.95 138.86 169.01 137.95 L 169.08 136.95 C 169.14 136.04 168.45 135.25 167.54 135.19 C 166.62 135.13 165.84 135.82 165.78 136.73 Z M 165.73 137.60 L 165.59 138.53 C 165.47 139.43 166.09 140.27 166.99 140.40 C 167.89 140.53 168.73 139.90 168.86 139.00 L 168.99 138.07 C 169.12 137.17 168.50 136.34 167.59 136.21 C 166.69 136.08 165.86 136.70 165.73 137.60 Z M 165.64 138.34 L 165.35 139.39 C 165.12 140.27 165.64 141.17 166.52 141.41 C 167.39 141.64 168.30 141.12 168.53 140.25 L 168.82 139.19 C 169.05 138.32 168.53 137.41 167.65 137.18 C 166.78 136.94 165.87 137.46 165.64 138.34 Z M 165.44 139.16 L 165.04 140.08 C 164.68 140.91 165.06 141.88 165.89 142.24 C 166.72 142.60 167.69 142.22 168.05 141.39 L 168.45 140.47 C 168.81 139.64 168.43 138.67 167.60 138.31 C 166.77 137.95 165.80 138.33 165.44 139.16 Z M 165.14 139.89 L 164.65 140.71 C 164.18 141.48 164.43 142.49 165.21 142.96 C 165.98 143.43 166.99 143.17 167.46 142.40 L 167.95 141.58 C 168.42 140.81 168.17 139.80 167.39 139.33 C 166.61 138.86 165.61 139.11 165.14 139.89 Z M 164.74 140.57 L 164.18 141.33 C 163.63 142.06 163.78 143.08 164.51 143.62 C 165.23 144.16 166.26 144.02 166.80 143.29 L 167.37 142.53 C 167.91 141.81 167.76 140.78 167.03 140.24 C 166.31 139.70 165.28 139.85 164.74 140.57 Z M 164.25 141.24 L 163.61 141.98 C 163.02 142.67 163.10 143.70 163.78 144.29 C 164.47 144.88 165.50 144.80 166.09 144.12 L 166.73 143.38 C 167.32 142.69 167.24 141.66 166.56 141.07 C 165.87 140.48 164.84 140.56 164.25 141.24 Z M 163.69 141.89 L 162.99 142.59 C 162.36 143.23 162.36 144.27 163.00 144.91 C 163.64 145.55 164.67 145.55 165.31 144.91 L 166.01 144.20 C 166.65 143.56 166.65 142.53 166.01 141.89 C 165.37 141.25 164.33 141.25 163.69 141.89 Z M 163.09 142.50 L 162.32 143.16 C 161.63 143.75 161.55 144.78 162.14 145.47 C 162.72 146.16 163.75 146.24 164.44 145.65 L 165.21 145.00 C 165.90 144.41 165.99 143.38 165.40 142.69 C 164.81 142.00 163.78 141.92 163.09 142.50 Z M 162.43 143.08 L 161.60 143.66 C 160.87 144.19 160.70 145.21 161.22 145.95 C 161.75 146.68 162.77 146.85 163.51 146.33 L 164.33 145.74 C 165.07 145.21 165.24 144.19 164.71 143.46 C 164.19 142.72 163.17 142.55 162.43 143.08 Z M 161.72 143.59 L 160.87 144.09 C 160.09 144.55 159.84 145.56 160.30 146.33 C 160.76 147.11 161.76 147.37 162.54 146.91 L 163.39 146.41 C 164.17 145.95 164.43 144.94 163.96 144.16 C 163.50 143.39 162.50 143.13 161.72 143.59 Z M 161.00 144.02 L 160.10 144.45 C 159.28 144.84 158.93 145.82 159.32 146.64 C 159.71 147.45 160.69 147.80 161.50 147.41 L 162.41 146.98 C 163.23 146.59 163.57 145.61 163.18 144.80 C 162.79 143.98 161.82 143.63 161.00 144.02 Z M 160.24 144.39 L 159.29 144.74 C 158.44 145.04 158.00 145.98 158.31 146.83 C 158.62 147.68 159.56 148.12 160.41 147.81 L 161.36 147.47 C 162.21 147.16 162.65 146.23 162.34 145.38 C 162.03 144.53 161.09 144.08 160.24 144.39 Z M 159.47 144.68 L 158.47 144.92 C 157.59 145.14 157.05 146.02 157.26 146.90 C 157.47 147.78 158.36 148.32 159.24 148.11 L 160.23 147.87 C 161.11 147.65 161.65 146.77 161.44 145.89 C 161.23 145.01 160.35 144.47 159.47 144.68 Z M 158.67 144.89 L 157.62 145.00 C 156.73 145.10 156.08 145.91 156.18 146.81 C 156.28 147.71 157.08 148.36 157.98 148.26 L 159.03 148.14 C 159.93 148.04 160.58 147.23 160.48 146.34 C 160.38 145.44 159.57 144.79 158.67 144.89 Z M 157.86 145.00 L 156.85 144.96 C 155.94 144.92 155.18 145.63 155.15 146.53 C 155.12 147.44 155.82 148.20 156.73 148.23 L 157.74 148.27 C 158.65 148.30 159.41 147.59 159.44 146.69 C 159.47 145.79 158.77 145.03 157.86 145.00 Z M 157.14 145.00 L 156.21 144.79 C 155.33 144.59 154.45 145.15 154.26 146.03 C 154.06 146.91 154.62 147.79 155.50 147.98 L 156.43 148.19 C 157.31 148.39 158.19 147.83 158.38 146.95 C 158.58 146.07 158.02 145.19 157.14 145.00 Z M 156.58 144.92 L 155.74 144.50 C 154.93 144.10 153.95 144.43 153.55 145.24 C 153.15 146.05 153.48 147.03 154.29 147.44 L 155.13 147.85 C 155.94 148.25 156.92 147.92 157.32 147.11 C 157.72 146.30 157.39 145.32 156.58 144.92 Z M 156.12 144.76 L 155.40 144.10 C 154.73 143.49 153.69 143.54 153.08 144.21 C 152.47 144.88 152.52 145.92 153.19 146.53 L 153.91 147.18 C 154.58 147.79 155.62 147.74 156.23 147.07 C 156.84 146.40 156.79 145.37 156.12 144.76 Z M 155.63 144.37 L 155.06 143.56 C 154.54 142.82 153.51 142.64 152.77 143.16 C 152.03 143.69 151.86 144.71 152.38 145.45 L 152.96 146.26 C 153.48 147.00 154.50 147.18 155.24 146.65 C 155.98 146.13 156.16 145.11 155.63 144.37 Z M 155.18 143.75 L 154.71 142.84 C 154.30 142.04 153.31 141.72 152.50 142.13 C 151.70 142.54 151.38 143.53 151.79 144.34 L 152.26 145.25 C 152.67 146.06 153.66 146.38 154.47 145.96 C 155.27 145.55 155.59 144.56 155.18 143.75 Z M 154.77 142.97 L 154.38 142.02 C 154.04 141.18 153.08 140.78 152.24 141.13 C 151.40 141.47 151.00 142.43 151.35 143.27 L 151.73 144.22 C 152.08 145.06 153.04 145.46 153.88 145.11 C 154.72 144.76 155.12 143.81 154.77 142.97 Z M 154.42 142.13 L 154.10 141.17 C 153.82 140.30 152.88 139.84 152.02 140.13 C 151.16 140.41 150.70 141.35 150.98 142.21 L 151.30 143.17 C 151.59 144.03 152.52 144.49 153.38 144.21 C 154.25 143.92 154.71 142.99 154.42 142.13 Z M 154.14 141.27 L 153.89 140.32 C 153.66 139.43 152.76 138.91 151.88 139.14 C 151.00 139.37 150.47 140.26 150.70 141.14 L 150.95 142.10 C 151.18 142.98 152.08 143.51 152.96 143.28 C 153.84 143.05 154.37 142.15 154.14 141.27 Z M 153.92 140.43 L 153.74 139.45 C 153.57 138.56 152.71 137.96 151.81 138.13 C 150.92 138.29 150.33 139.16 150.49 140.05 L 150.67 141.03 C 150.84 141.93 151.70 142.52 152.59 142.35 C 153.49 142.19 154.08 141.33 153.92 140.43 Z M 153.76 139.57 L 153.65 138.57 C 153.55 137.66 152.73 137.01 151.82 137.11 C 150.91 137.21 150.26 138.02 150.36 138.93 L 150.47 139.93 C 150.57 140.84 151.39 141.50 152.29 141.40 C 153.20 141.30 153.86 140.48 153.76 139.57 Z M 153.66 138.67 L 153.61 137.69 C 153.57 136.77 152.79 136.06 151.88 136.11 C 150.96 136.15 150.25 136.93 150.30 137.85 L 150.35 138.83 C 150.39 139.75 151.17 140.45 152.08 140.41 C 153.00 140.36 153.71 139.59 153.66 138.67 Z M 153.62 137.76 L 153.62 136.76 C 153.61 135.84 152.86 135.09 151.94 135.10 C 151.02 135.11 150.28 135.86 150.28 136.78 L 150.29 137.78 C 150.30 138.70 151.05 139.44 151.97 139.43 C 152.89 139.43 153.63 138.68 153.62 137.76 Z M 153.62 136.86 L 153.68 135.84 C 153.74 134.92 153.03 134.12 152.11 134.07 C 151.18 134.02 150.39 134.72 150.34 135.65 L 150.28 136.67 C 150.22 137.59 150.93 138.39 151.85 138.44 C 152.78 138.49 153.57 137.79 153.62 136.86 Z M 153.66 136.11 L 153.87 135.15 C 154.08 134.24 153.50 133.34 152.59 133.13 C 151.68 132.93 150.77 133.51 150.57 134.42 L 150.36 135.38 C 150.16 136.29 150.73 137.19 151.64 137.40 C 152.55 137.60 153.46 137.02 153.66 136.11 Z M 153.72 135.60 L 154.17 134.77 C 154.62 133.94 154.32 132.91 153.49 132.46 C 152.67 132.01 151.63 132.31 151.18 133.14 L 150.73 133.97 C 150.28 134.79 150.58 135.83 151.41 136.28 C 152.23 136.73 153.27 136.43 153.72 135.60 Z M 153.84 135.20 L 154.54 134.54 C 155.23 133.89 155.26 132.82 154.62 132.13 C 153.98 131.44 152.90 131.41 152.21 132.05 L 151.51 132.71 C 150.83 133.35 150.79 134.43 151.44 135.12 C 152.08 135.81 153.16 135.84 153.84 135.20 Z M 154.22 134.77 L 155.10 134.27 C 155.92 133.81 156.20 132.77 155.74 131.96 C 155.28 131.14 154.24 130.85 153.42 131.32 L 152.54 131.82 C 151.72 132.28 151.44 133.32 151.90 134.14 C 152.36 134.95 153.40 135.24 154.22 134.77 Z M 154.81 134.40 L 155.80 134.06 C 156.68 133.76 157.16 132.79 156.85 131.91 C 156.55 131.02 155.59 130.55 154.70 130.85 L 153.71 131.19 C 152.83 131.49 152.35 132.46 152.66 133.34 C 152.96 134.23 153.92 134.70 154.81 134.40 Z M 155.50 134.12 L 156.55 133.96 C 157.47 133.82 158.10 132.96 157.96 132.04 C 157.82 131.12 156.96 130.49 156.04 130.63 L 155.00 130.79 C 154.08 130.93 153.45 131.79 153.59 132.71 C 153.73 133.63 154.58 134.26 155.50 134.12 Z M 156.17 133.96 L 157.16 134.03 C 158.08 134.10 158.88 133.41 158.95 132.50 C 159.01 131.58 158.33 130.78 157.41 130.71 L 156.42 130.64 C 155.51 130.57 154.71 131.25 154.64 132.17 C 154.57 133.09 155.26 133.89 156.17 133.96 Z M 156.65 133.89 L 157.50 134.24 C 158.34 134.60 159.30 134.20 159.65 133.36 C 160.00 132.52 159.61 131.56 158.77 131.21 L 157.92 130.85 C 157.08 130.50 156.12 130.90 155.77 131.74 C 155.42 132.58 155.81 133.54 156.65 133.89 Z M 156.96 133.87 L 157.61 134.53 C 158.24 135.18 159.28 135.19 159.93 134.56 C 160.57 133.92 160.58 132.89 159.95 132.24 L 159.30 131.58 C 158.67 130.93 157.63 130.92 156.99 131.56 C 156.34 132.19 156.33 133.23 156.96 133.87 Z M 157.30 134.08 L 157.72 134.99 C 158.11 135.80 159.08 136.15 159.90 135.77 C 160.72 135.38 161.07 134.41 160.69 133.59 L 160.26 132.69 C 159.88 131.87 158.90 131.52 158.08 131.91 C 157.26 132.29 156.91 133.27 157.30 134.08 Z M 157.60 134.60 L 157.80 135.64 C 157.97 136.53 158.83 137.11 159.71 136.94 C 160.60 136.77 161.18 135.91 161.01 135.02 L 160.81 133.98 C 160.64 133.09 159.78 132.51 158.90 132.68 C 158.01 132.85 157.43 133.71 157.60 134.60 Z M 157.77 135.34 L 157.77 136.27 C 157.78 137.17 158.52 137.90 159.42 137.89 C 160.33 137.89 161.05 137.15 161.05 136.25 L 161.04 135.32 C 161.04 134.42 160.30 133.69 159.39 133.69 C 158.49 133.70 157.76 134.44 157.77 135.34 Z M 157.79 136.04 L 157.66 137.01 C 157.54 137.91 158.17 138.73 159.06 138.85 C 159.96 138.97 160.78 138.34 160.90 137.45 L 161.03 136.47 C 161.15 135.58 160.52 134.75 159.63 134.63 C 158.73 134.51 157.91 135.14 157.79 136.04 Z M 157.69 136.82 L 157.44 137.83 C 157.21 138.71 157.74 139.60 158.62 139.82 C 159.49 140.05 160.38 139.52 160.61 138.65 L 160.87 137.64 C 161.09 136.76 160.56 135.87 159.69 135.64 C 158.81 135.42 157.92 135.95 157.69 136.82 Z M 157.48 137.68 L 157.12 138.67 C 156.81 139.52 157.25 140.46 158.10 140.77 C 158.95 141.08 159.89 140.64 160.20 139.79 L 160.56 138.80 C 160.87 137.95 160.43 137.01 159.58 136.70 C 158.73 136.39 157.79 136.83 157.48 137.68 Z M 157.17 138.56 L 156.75 139.48 C 156.38 140.31 156.75 141.28 157.57 141.65 C 158.40 142.02 159.37 141.65 159.74 140.83 L 160.15 139.90 C 160.53 139.08 160.16 138.11 159.33 137.74 C 158.51 137.37 157.54 137.73 157.17 138.56 Z M 156.78 139.41 L 156.32 140.32 C 155.91 141.13 156.23 142.12 157.03 142.53 C 157.84 142.94 158.82 142.62 159.24 141.81 L 159.70 140.90 C 160.11 140.10 159.79 139.11 158.99 138.70 C 158.18 138.29 157.20 138.61 156.78 139.41 Z M 156.34 140.28 L 155.86 141.15 C 155.42 141.94 155.71 142.94 156.50 143.38 C 157.29 143.82 158.29 143.53 158.73 142.74 L 159.21 141.86 C 159.65 141.07 159.36 140.07 158.57 139.63 C 157.78 139.20 156.78 139.48 156.34 140.28 Z M 155.87 141.12 L 155.38 141.98 C 154.93 142.76 155.20 143.77 155.98 144.22 C 156.77 144.67 157.77 144.40 158.22 143.62 L 158.72 142.76 C 159.17 141.98 158.90 140.97 158.11 140.52 C 157.33 140.07 156.32 140.34 155.87 141.12 Z M 155.38 141.96 L 154.84 142.88 C 154.38 143.66 154.65 144.67 155.44 145.13 C 156.22 145.59 157.23 145.33 157.69 144.54 L 158.23 143.63 C 158.69 142.84 158.42 141.83 157.64 141.37 C 156.85 140.91 155.84 141.18 155.38 141.96 Z M 154.83 142.87 L 154.34 143.71 C 153.87 144.50 154.14 145.53 154.93 145.99 C 155.72 146.46 156.75 146.19 157.21 145.40 L 157.71 144.55 C 158.17 143.76 157.91 142.74 157.11 142.27 C 156.32 141.81 155.30 142.07 154.83 142.87 Z M 154.32 143.71 L 153.84 144.53 C 153.38 145.33 153.65 146.36 154.45 146.83 C 155.26 147.29 156.29 147.02 156.75 146.22 L 157.23 145.40 C 157.69 144.59 157.42 143.56 156.62 143.10 C 155.81 142.63 154.78 142.91 154.32 143.71 Z M 153.82 144.56 L 153.21 145.66 C 152.76 146.47 153.06 147.50 153.88 147.95 C 154.69 148.40 155.72 148.11 156.17 147.29 L 156.78 146.19 C 157.23 145.37 156.93 144.34 156.12 143.89 C 155.30 143.44 154.27 143.74 153.82 144.56 Z M 153.12 145.85 L 152.76 146.74 C 152.42 147.61 152.84 148.60 153.71 148.94 C 154.58 149.29 155.57 148.86 155.91 147.99 L 156.27 147.10 C 156.61 146.23 156.19 145.24 155.32 144.90 C 154.45 144.55 153.46 144.98 153.12 145.85 Z M 153.02 148.43 L 153.24 148.71 C 153.83 149.44 154.90 149.55 155.63 148.97 C 156.35 148.38 156.47 147.31 155.88 146.58 L 155.66 146.30 C 155.07 145.57 154.00 145.46 153.27 146.05 C 152.54 146.63 152.43 147.70 153.02 148.43 Z M 155.19 149.22 L 155.96 148.92 C 156.83 148.57 157.25 147.58 156.91 146.71 C 156.56 145.85 155.57 145.42 154.70 145.77 L 153.94 146.07 C 153.07 146.42 152.64 147.40 152.99 148.27 C 153.33 149.14 154.32 149.57 155.19 149.22 Z M 156.19 148.80 L 157.32 148.14 C 158.12 147.67 158.39 146.63 157.92 145.82 C 157.44 145.01 156.41 144.74 155.60 145.22 L 154.47 145.88 C 153.66 146.35 153.40 147.39 153.87 148.20 C 154.34 149.01 155.38 149.28 156.19 148.80 Z M 157.36 148.11 L 158.26 147.54 C 159.05 147.04 159.29 146.00 158.79 145.21 C 158.29 144.42 157.25 144.18 156.46 144.68 L 155.56 145.25 C 154.76 145.75 154.53 146.79 155.03 147.58 C 155.52 148.37 156.57 148.61 157.36 148.11 Z M 158.27 147.53 L 159.11 146.99 C 159.90 146.49 160.13 145.45 159.63 144.66 C 159.13 143.88 158.09 143.65 157.30 144.15 L 156.45 144.69 C 155.67 145.19 155.44 146.23 155.94 147.02 C 156.44 147.80 157.48 148.03 158.27 147.53 Z M 159.11 146.98 L 159.97 146.44 C 160.75 145.94 160.98 144.90 160.49 144.12 C 159.99 143.34 158.95 143.11 158.17 143.61 L 157.31 144.15 C 156.53 144.65 156.30 145.69 156.79 146.47 C 157.29 147.25 158.33 147.48 159.11 146.98 Z M 159.95 146.44 L 160.81 145.90 C 161.59 145.42 161.83 144.39 161.34 143.61 C 160.85 142.82 159.82 142.59 159.04 143.07 L 158.19 143.61 C 157.41 144.09 157.17 145.12 157.65 145.90 C 158.14 146.69 159.17 146.92 159.95 146.44 Z M 160.78 145.91 L 161.66 145.38 C 162.45 144.91 162.70 143.89 162.23 143.10 C 161.76 142.32 160.74 142.06 159.95 142.53 L 159.07 143.07 C 158.28 143.54 158.03 144.56 158.50 145.34 C 158.97 146.13 159.99 146.38 160.78 145.91 Z M 161.63 145.39 L 162.52 144.88 C 163.31 144.43 163.58 143.41 163.13 142.62 C 162.67 141.83 161.66 141.56 160.87 142.01 L 159.98 142.52 C 159.19 142.98 158.92 143.99 159.37 144.78 C 159.83 145.57 160.84 145.85 161.63 145.39 Z M 162.50 144.89 L 163.36 144.41 C 164.15 143.97 164.44 142.96 164.00 142.17 C 163.55 141.37 162.55 141.09 161.75 141.53 L 160.89 142.01 C 160.10 142.45 159.81 143.45 160.26 144.25 C 160.70 145.04 161.70 145.33 162.50 144.89 Z M 163.34 144.41 L 164.19 143.95 C 164.98 143.52 165.28 142.52 164.84 141.72 C 164.41 140.93 163.41 140.63 162.62 141.07 L 161.77 141.53 C 160.97 141.96 160.68 142.96 161.11 143.75 C 161.55 144.55 162.54 144.84 163.34 144.41 Z M 164.18 143.95 L 164.36 143.85 C 165.15 143.42 165.45 142.43 165.01 141.63 C 164.58 140.84 163.59 140.54 162.80 140.97 L 162.62 141.07 C 161.83 141.50 161.53 142.49 161.96 143.29 C 162.39 144.08 163.39 144.38 164.18 143.95 Z"
      fill="black"
      fill-rule="nonzero" /><path d="M 146.36 170.76 L 145.95 171.68 C 145.56 172.54 145.94 173.56 146.80 173.95 C 147.67 174.34 148.68 173.96 149.07 173.09 L 149.49 172.17 C 149.88 171.31 149.49 170.30 148.63 169.91 C 147.77 169.52 146.75 169.90 146.36 170.76 Z M 145.90 171.72 L 145.52 172.65 C 145.15 173.54 145.57 174.56 146.46 174.92 C 147.35 175.29 148.37 174.87 148.74 173.98 L 149.12 173.05 C 149.49 172.17 149.07 171.15 148.18 170.78 C 147.29 170.41 146.27 170.83 145.90 171.72 Z M 145.45 172.74 L 145.13 173.68 C 144.81 174.61 145.31 175.62 146.23 175.93 C 147.16 176.25 148.17 175.75 148.49 174.83 L 148.81 173.89 C 149.12 172.96 148.63 171.95 147.70 171.64 C 146.77 171.32 145.76 171.81 145.45 172.74 Z M 145.06 173.84 L 144.83 174.80 C 144.60 175.77 145.20 176.73 146.17 176.96 C 147.13 177.19 148.10 176.59 148.33 175.63 L 148.55 174.66 C 148.78 173.70 148.18 172.73 147.22 172.51 C 146.25 172.28 145.29 172.88 145.06 173.84 Z M 144.79 174.98 L 144.66 175.96 C 144.53 176.95 145.23 177.85 146.21 177.98 C 147.20 178.11 148.11 177.42 148.24 176.43 L 148.37 175.45 C 148.50 174.46 147.80 173.56 146.82 173.43 C 145.83 173.29 144.92 173.99 144.79 174.98 Z M 144.65 176.09 L 144.59 177.09 C 144.53 178.09 145.29 178.94 146.29 179.00 C 147.28 179.05 148.13 178.30 148.19 177.30 L 148.25 176.30 C 148.31 175.31 147.55 174.45 146.56 174.39 C 145.56 174.34 144.71 175.10 144.65 176.09 Z M 144.59 177.17 L 144.57 178.19 C 144.56 179.18 145.36 180.00 146.36 180.01 C 147.35 180.02 148.17 179.23 148.18 178.23 L 148.20 177.22 C 148.21 176.22 147.41 175.40 146.41 175.39 C 145.42 175.38 144.60 176.18 144.59 177.17 Z M 144.58 178.23 L 144.59 179.24 C 144.61 180.23 145.42 181.03 146.42 181.01 C 147.42 181.00 148.21 180.18 148.20 179.18 L 148.18 178.18 C 148.17 177.18 147.35 176.39 146.35 176.40 C 145.36 176.42 144.56 177.24 144.58 178.23 Z M 144.59 179.30 L 144.64 180.30 C 144.69 181.29 145.54 182.06 146.53 182.01 C 147.53 181.96 148.29 181.12 148.24 180.12 L 148.19 179.12 C 148.14 178.13 147.30 177.36 146.31 177.41 C 145.31 177.46 144.55 178.30 144.59 179.30 Z M 144.65 180.38 L 144.75 181.38 C 144.84 182.37 145.72 183.09 146.71 183.00 C 147.70 182.90 148.43 182.02 148.33 181.03 L 148.24 180.04 C 148.14 179.05 147.26 178.32 146.27 178.42 C 145.28 178.52 144.56 179.39 144.65 180.38 Z M 144.77 181.48 L 144.91 182.42 C 145.07 183.40 145.98 184.07 146.96 183.92 C 147.94 183.76 148.61 182.84 148.46 181.87 L 148.31 180.93 C 148.16 179.95 147.24 179.28 146.26 179.43 C 145.28 179.58 144.61 180.50 144.77 181.48 Z M 144.94 182.52 L 145.14 183.43 C 145.35 184.40 146.30 185.01 147.26 184.80 C 148.23 184.59 148.84 183.64 148.63 182.67 L 148.43 181.76 C 148.22 180.80 147.27 180.19 146.31 180.40 C 145.34 180.60 144.73 181.56 144.94 182.52 Z M 145.17 183.51 L 145.42 184.46 C 145.67 185.41 146.64 185.98 147.59 185.73 C 148.54 185.48 149.10 184.50 148.85 183.56 L 148.60 182.60 C 148.35 181.65 147.38 181.08 146.43 181.33 C 145.48 181.58 144.91 182.56 145.17 183.51 Z M 145.44 184.51 L 145.75 185.55 C 146.02 186.49 147.01 187.02 147.94 186.74 C 148.88 186.47 149.41 185.49 149.14 184.55 L 148.83 183.51 C 148.55 182.57 147.57 182.04 146.64 182.31 C 145.70 182.59 145.17 183.57 145.44 184.51 Z M 145.76 185.57 L 146.06 186.52 C 146.35 187.45 147.33 187.97 148.26 187.68 C 149.18 187.40 149.70 186.41 149.42 185.49 L 149.12 184.53 C 148.83 183.60 147.85 183.09 146.92 183.37 C 146.00 183.66 145.48 184.64 145.76 185.57 Z M 146.07 186.53 L 146.37 187.48 C 146.66 188.40 147.64 188.91 148.56 188.62 C 149.48 188.33 149.99 187.35 149.70 186.43 L 149.40 185.48 C 149.11 184.56 148.13 184.05 147.21 184.34 C 146.29 184.63 145.78 185.61 146.07 186.53 Z M 146.38 187.48 L 146.69 188.46 C 146.98 189.37 147.96 189.88 148.87 189.59 C 149.79 189.30 150.29 188.33 150.00 187.41 L 149.69 186.43 C 149.40 185.52 148.43 185.01 147.51 185.30 C 146.60 185.59 146.09 186.57 146.38 187.48 Z M 146.70 188.46 L 147.01 189.44 C 147.30 190.35 148.27 190.85 149.18 190.56 C 150.09 190.27 150.59 189.30 150.30 188.40 L 149.99 187.42 C 149.71 186.51 148.74 186.00 147.83 186.29 C 146.92 186.58 146.41 187.55 146.70 188.46 Z M 147.02 189.43 L 147.32 190.38 C 147.60 191.28 148.56 191.79 149.47 191.50 C 150.37 191.22 150.88 190.26 150.59 189.35 L 150.30 188.40 C 150.01 187.50 149.05 187.00 148.15 187.28 C 147.24 187.56 146.74 188.52 147.02 189.43 Z M 147.33 190.36 L 147.64 191.39 C 147.91 192.29 148.87 192.80 149.77 192.52 C 150.67 192.24 151.17 191.29 150.90 190.39 L 150.58 189.37 C 150.31 188.47 149.36 187.96 148.46 188.24 C 147.56 188.51 147.05 189.46 147.33 190.36 Z M 147.65 191.37 L 147.94 192.35 C 148.20 193.25 149.14 193.76 150.04 193.49 C 150.93 193.23 151.44 192.29 151.18 191.40 L 150.89 190.41 C 150.62 189.52 149.68 189.01 148.79 189.27 C 147.90 189.54 147.38 190.47 147.65 191.37 Z M 147.95 192.33 L 148.21 193.27 C 148.47 194.16 149.39 194.67 150.28 194.42 C 151.17 194.17 151.69 193.24 151.44 192.35 L 151.17 191.42 C 150.92 190.53 149.99 190.01 149.10 190.26 C 148.21 190.52 147.70 191.44 147.95 192.33 Z M 148.22 193.25 L 148.47 194.16 C 148.71 195.04 149.63 195.56 150.51 195.32 C 151.39 195.08 151.92 194.17 151.67 193.29 L 151.43 192.37 C 151.19 191.49 150.27 190.97 149.39 191.21 C 148.50 191.45 147.98 192.36 148.22 193.25 Z M 148.48 194.14 L 148.72 195.05 C 148.95 195.93 149.85 196.46 150.73 196.23 C 151.61 196.00 152.14 195.10 151.91 194.21 L 151.67 193.30 C 151.44 192.42 150.54 191.90 149.66 192.13 C 148.78 192.36 148.25 193.26 148.48 194.14 Z M 148.72 195.03 L 148.95 195.96 C 149.17 196.84 150.07 197.37 150.95 197.15 C 151.83 196.93 152.36 196.04 152.14 195.16 L 151.91 194.23 C 151.68 193.35 150.79 192.82 149.91 193.04 C 149.03 193.26 148.50 194.15 148.72 195.03 Z M 148.95 195.95 L 149.19 196.91 C 149.40 197.79 150.29 198.33 151.17 198.12 C 152.05 197.90 152.59 197.01 152.38 196.13 L 152.14 195.17 C 151.92 194.29 151.04 193.75 150.16 193.96 C 149.28 194.18 148.74 195.07 148.95 195.95 Z M 149.19 196.90 L 149.43 197.92 C 149.64 198.80 150.52 199.34 151.40 199.13 C 152.28 198.92 152.83 198.04 152.62 197.15 L 152.37 196.14 C 152.16 195.26 151.28 194.72 150.40 194.93 C 149.52 195.14 148.98 196.02 149.19 196.90 Z M 149.43 197.91 L 149.66 198.90 C 149.87 199.78 150.75 200.32 151.63 200.11 C 152.51 199.91 153.06 199.03 152.85 198.14 L 152.62 197.16 C 152.41 196.28 151.53 195.73 150.65 195.94 C 149.77 196.15 149.22 197.03 149.43 197.91 Z M 149.66 198.89 L 149.88 199.82 C 150.08 200.70 150.96 201.25 151.84 201.05 C 152.72 200.84 153.27 199.96 153.07 199.08 L 152.85 198.15 C 152.64 197.27 151.76 196.72 150.88 196.93 C 150.00 197.13 149.46 198.01 149.66 198.89 Z M 149.88 199.82 L 150.10 200.79 C 150.31 201.67 151.19 202.22 152.07 202.02 C 152.95 201.81 153.50 200.93 153.29 200.05 L 153.07 199.08 C 152.86 198.20 151.98 197.65 151.10 197.86 C 150.22 198.06 149.67 198.94 149.88 199.82 Z M 150.10 200.79 L 150.33 201.78 C 150.54 202.67 151.42 203.21 152.30 203.01 C 153.18 202.81 153.73 201.93 153.52 201.05 L 153.29 200.05 C 153.09 199.17 152.21 198.62 151.33 198.83 C 150.45 199.03 149.90 199.91 150.10 200.79 Z M 150.33 201.78 L 150.57 202.79 C 150.77 203.68 151.65 204.22 152.53 204.02 C 153.41 203.82 153.96 202.94 153.76 202.06 L 153.52 201.05 C 153.32 200.17 152.44 199.62 151.56 199.82 C 150.68 200.02 150.13 200.90 150.33 201.78 Z M 150.57 202.79 L 150.71 203.41 C 150.91 204.29 151.79 204.84 152.67 204.64 C 153.55 204.43 154.10 203.55 153.90 202.67 L 153.76 202.06 C 153.55 201.18 152.67 200.63 151.79 200.83 C 150.91 201.03 150.36 201.91 150.57 202.79 Z"
      fill="black"
      fill-rule="nonzero" /><path d="M 151.64 168.91 L 151.86 167.86 C 152.06 166.90 151.44 165.97 150.49 165.77 C 149.53 165.57 148.60 166.19 148.40 167.14 L 148.19 168.19 C 147.99 169.15 148.60 170.08 149.56 170.28 C 150.51 170.47 151.45 169.86 151.64 168.91 Z M 151.85 168.01 L 152.14 167.04 C 152.42 166.09 151.88 165.10 150.93 164.81 C 149.99 164.53 148.99 165.07 148.71 166.02 L 148.42 166.99 C 148.14 167.93 148.67 168.93 149.62 169.21 C 150.57 169.50 151.56 168.96 151.85 168.01 Z M 152.02 167.38 L 152.46 166.57 C 152.93 165.68 152.60 164.58 151.72 164.11 C 150.83 163.64 149.73 163.97 149.26 164.85 L 148.82 165.67 C 148.35 166.55 148.68 167.65 149.57 168.13 C 150.45 168.60 151.55 168.27 152.02 167.38 Z M 152.09 167.07 L 152.76 166.47 C 153.52 165.78 153.57 164.62 152.89 163.87 C 152.21 163.12 151.05 163.06 150.29 163.74 L 149.62 164.35 C 148.87 165.03 148.82 166.19 149.50 166.95 C 150.18 167.70 151.34 167.75 152.09 167.07 Z M 152.29 166.81 L 153.17 166.42 C 154.11 166.00 154.53 164.89 154.11 163.95 C 153.69 163.01 152.59 162.59 151.65 163.01 L 150.77 163.40 C 149.83 163.82 149.41 164.92 149.82 165.86 C 150.24 166.80 151.35 167.23 152.29 166.81 Z M 152.83 166.56 L 153.86 166.32 C 154.88 166.09 155.51 165.07 155.28 164.05 C 155.04 163.03 154.03 162.40 153.01 162.63 L 151.99 162.87 C 150.97 163.10 150.33 164.12 150.56 165.14 C 150.80 166.15 151.81 166.79 152.83 166.56 Z M 153.68 166.37 L 154.66 166.24 C 155.70 166.11 156.44 165.15 156.30 164.10 C 156.16 163.05 155.20 162.31 154.16 162.45 L 153.18 162.58 C 152.14 162.72 151.40 163.68 151.54 164.73 C 151.68 165.77 152.64 166.51 153.68 166.37 Z M 154.56 166.26 L 155.50 166.18 C 156.56 166.10 157.34 165.17 157.26 164.12 C 157.17 163.06 156.25 162.27 155.19 162.36 L 154.25 162.44 C 153.19 162.52 152.41 163.45 152.49 164.50 C 152.58 165.56 153.51 166.35 154.56 166.26 Z M 155.44 166.19 L 156.44 166.14 C 157.50 166.09 158.31 165.19 158.26 164.13 C 158.21 163.07 157.31 162.26 156.26 162.31 L 155.25 162.35 C 154.20 162.40 153.38 163.30 153.43 164.36 C 153.48 165.42 154.38 166.24 155.44 166.19 Z M 156.39 166.15 L 157.47 166.12 C 158.53 166.09 159.37 165.21 159.34 164.15 C 159.32 163.09 158.44 162.25 157.38 162.28 L 156.30 162.30 C 155.24 162.33 154.40 163.21 154.42 164.27 C 154.45 165.33 155.33 166.17 156.39 166.15 Z M 157.45 166.12 L 158.44 166.11 C 159.50 166.09 160.35 165.22 160.34 164.16 C 160.32 163.10 159.45 162.25 158.39 162.26 L 157.40 162.28 C 156.34 162.29 155.49 163.16 155.50 164.22 C 155.51 165.29 156.39 166.13 157.45 166.12 Z M 158.43 166.11 L 159.41 166.10 C 160.48 166.09 161.33 165.23 161.32 164.16 C 161.32 163.10 160.45 162.25 159.39 162.25 L 158.40 162.26 C 157.34 162.27 156.49 163.14 156.49 164.20 C 156.50 165.26 157.37 166.11 158.43 166.11 Z M 159.40 166.10 L 160.42 166.10 C 161.48 166.10 162.34 165.24 162.34 164.17 C 162.34 163.11 161.48 162.25 160.41 162.25 L 159.40 162.25 C 158.34 162.26 157.48 163.12 157.48 164.18 C 157.48 165.24 158.34 166.10 159.40 166.10 Z M 160.41 166.10 L 161.43 166.11 C 162.49 166.11 163.36 165.25 163.36 164.19 C 163.37 163.13 162.51 162.26 161.45 162.26 L 160.42 162.25 C 159.36 162.25 158.50 163.11 158.49 164.17 C 158.49 165.23 159.34 166.10 160.41 166.10 Z M 161.42 166.11 L 162.44 166.12 C 163.50 166.13 164.37 165.27 164.38 164.21 C 164.39 163.15 163.54 162.28 162.48 162.27 L 161.46 162.26 C 160.40 162.25 159.53 163.10 159.52 164.16 C 159.51 165.22 160.36 166.09 161.42 166.11 Z M 162.42 166.11 L 163.45 166.13 C 164.51 166.15 165.38 165.30 165.40 164.24 C 165.42 163.18 164.57 162.31 163.51 162.29 L 162.49 162.27 C 161.43 162.25 160.55 163.10 160.53 164.16 C 160.52 165.22 161.36 166.10 162.42 166.11 Z M 163.42 166.13 L 164.42 166.16 C 165.48 166.19 166.37 165.36 166.40 164.30 C 166.43 163.24 165.60 162.35 164.54 162.32 L 163.54 162.29 C 162.48 162.26 161.59 163.09 161.56 164.15 C 161.53 165.21 162.36 166.10 163.42 166.13 Z M 164.38 166.16 L 165.37 166.21 C 166.43 166.26 167.33 165.45 167.39 164.39 C 167.44 163.34 166.63 162.43 165.57 162.38 L 164.58 162.32 C 163.52 162.27 162.62 163.08 162.56 164.14 C 162.51 165.20 163.32 166.10 164.38 166.16 Z M 165.31 166.20 L 166.30 166.28 C 167.35 166.37 168.28 165.59 168.37 164.53 C 168.45 163.48 167.67 162.55 166.61 162.46 L 165.63 162.38 C 164.57 162.30 163.65 163.08 163.56 164.14 C 163.47 165.19 164.26 166.12 165.31 166.20 Z M 166.23 166.27 L 167.21 166.39 C 168.26 166.52 169.21 165.76 169.34 164.72 C 169.46 163.67 168.71 162.71 167.66 162.59 L 166.68 162.47 C 165.63 162.35 164.68 163.10 164.55 164.15 C 164.43 165.20 165.18 166.15 166.23 166.27 Z M 167.14 166.38 L 168.10 166.53 C 169.15 166.69 170.12 165.98 170.29 164.94 C 170.45 163.89 169.74 162.92 168.70 162.75 L 167.73 162.60 C 166.69 162.44 165.71 163.15 165.55 164.19 C 165.38 165.24 166.10 166.21 167.14 166.38 Z M 168.04 166.51 L 169.01 166.70 C 170.05 166.90 171.05 166.22 171.25 165.19 C 171.44 164.15 170.77 163.15 169.73 162.95 L 168.76 162.77 C 167.72 162.57 166.72 163.25 166.53 164.28 C 166.33 165.32 167.01 166.32 168.04 166.51 Z M 168.96 166.68 L 169.94 166.90 C 170.97 167.13 171.98 166.48 172.21 165.46 C 172.44 164.43 171.79 163.41 170.77 163.19 L 169.78 162.97 C 168.76 162.74 167.74 163.39 167.51 164.42 C 167.29 165.44 167.93 166.46 168.96 166.68 Z M 169.90 166.89 L 170.89 167.13 C 171.90 167.39 172.93 166.77 173.19 165.75 C 173.44 164.73 172.82 163.70 171.80 163.45 L 170.81 163.20 C 169.79 162.95 168.76 163.57 168.51 164.59 C 168.26 165.60 168.88 166.63 169.90 166.89 Z M 170.85 167.12 L 171.82 167.38 C 172.83 167.66 173.87 167.06 174.15 166.05 C 174.42 165.04 173.82 164.00 172.81 163.73 L 171.84 163.46 C 170.83 163.19 169.79 163.78 169.51 164.79 C 169.24 165.80 169.84 166.84 170.85 167.12 Z M 171.79 167.37 L 172.73 167.65 C 173.73 167.94 174.78 167.36 175.08 166.36 C 175.37 165.36 174.79 164.31 173.79 164.02 L 172.85 163.74 C 171.85 163.45 170.80 164.02 170.50 165.02 C 170.21 166.03 170.79 167.08 171.79 167.37 Z M 172.70 167.63 L 173.65 167.93 C 174.64 168.24 175.70 167.69 176.01 166.69 C 176.32 165.70 175.77 164.64 174.77 164.33 L 173.83 164.03 C 172.83 163.72 171.77 164.27 171.46 165.27 C 171.15 166.26 171.70 167.32 172.70 167.63 Z M 173.61 167.91 L 174.56 168.23 C 175.55 168.56 176.61 168.03 176.94 167.05 C 177.27 166.06 176.74 165.00 175.76 164.66 L 174.81 164.34 C 173.82 164.01 172.76 164.54 172.43 165.53 C 172.10 166.51 172.63 167.58 173.61 167.91 Z M 174.52 168.21 L 175.48 168.56 C 176.45 168.91 177.53 168.40 177.88 167.43 C 178.23 166.45 177.72 165.38 176.75 165.03 L 175.80 164.68 C 174.82 164.33 173.75 164.84 173.40 165.81 C 173.04 166.79 173.55 167.86 174.52 168.21 Z M 175.44 168.54 L 176.39 168.90 C 177.36 169.28 178.44 168.80 178.81 167.83 C 179.18 166.87 178.70 165.78 177.74 165.41 L 176.79 165.04 C 175.82 164.67 174.74 165.15 174.37 166.12 C 173.99 167.08 174.48 168.17 175.44 168.54 Z M 176.35 168.88 L 177.30 169.27 C 178.25 169.67 179.35 169.21 179.74 168.26 C 180.13 167.31 179.68 166.21 178.72 165.82 L 177.78 165.43 C 176.82 165.04 175.73 165.49 175.34 166.45 C 174.95 167.40 175.40 168.49 176.35 168.88 Z M 177.26 169.25 L 178.19 169.66 C 179.13 170.08 180.23 169.65 180.65 168.71 C 181.06 167.77 180.64 166.67 179.70 166.26 L 178.76 165.85 C 177.82 165.43 176.72 165.85 176.31 166.80 C 175.89 167.74 176.32 168.83 177.26 169.25 Z M 178.15 169.64 L 179.06 170.07 C 179.98 170.51 181.09 170.12 181.53 169.19 C 181.97 168.27 181.58 167.16 180.65 166.72 L 179.74 166.28 C 178.82 165.84 177.71 166.24 177.27 167.16 C 176.83 168.09 177.22 169.20 178.15 169.64 Z M 179.01 170.04 L 179.88 170.49 C 180.79 170.96 181.91 170.60 182.37 169.69 C 182.84 168.79 182.49 167.67 181.58 167.20 L 180.70 166.75 C 179.80 166.28 178.68 166.64 178.21 167.54 C 177.74 168.45 178.10 169.57 179.01 170.04 Z M 179.82 170.45 L 180.66 170.93 C 181.55 171.43 182.68 171.11 183.18 170.23 C 183.68 169.34 183.37 168.21 182.48 167.71 L 181.64 167.24 C 180.75 166.74 179.62 167.05 179.12 167.94 C 178.62 168.83 178.94 169.95 179.82 170.45 Z M 180.59 170.88 L 181.50 171.45 C 182.36 171.99 183.50 171.73 184.04 170.87 C 184.58 170.01 184.32 168.87 183.46 168.33 L 182.55 167.76 C 181.69 167.22 180.55 167.48 180.01 168.34 C 179.47 169.20 179.73 170.34 180.59 170.88 Z M 181.43 171.39 L 182.26 171.98 C 183.09 172.56 184.23 172.36 184.82 171.54 C 185.40 170.71 185.20 169.57 184.37 168.99 L 183.54 168.39 C 182.71 167.81 181.57 168.01 180.98 168.84 C 180.40 169.66 180.60 170.81 181.43 171.39 Z M 182.19 171.91 L 182.96 172.52 C 183.75 173.14 184.89 173.01 185.52 172.22 C 186.14 171.43 186.01 170.28 185.22 169.66 L 184.45 169.05 C 183.66 168.43 182.51 168.56 181.89 169.35 C 181.26 170.14 181.40 171.29 182.19 171.91 Z M 182.88 172.45 L 183.58 173.07 C 184.33 173.74 185.48 173.67 186.15 172.92 C 186.81 172.17 186.74 171.02 186.00 170.36 L 185.29 169.73 C 184.54 169.07 183.40 169.13 182.73 169.88 C 182.06 170.63 182.13 171.78 182.88 172.45 Z M 183.51 172.99 L 184.21 173.70 C 184.92 174.41 186.06 174.41 186.77 173.71 C 187.48 173.00 187.48 171.86 186.78 171.15 L 186.07 170.44 C 185.37 169.73 184.22 169.73 183.52 170.43 C 182.81 171.14 182.80 172.28 183.51 172.99 Z M 184.13 173.60 L 184.79 174.36 C 185.44 175.12 186.57 175.20 187.33 174.56 C 188.08 173.91 188.17 172.77 187.52 172.02 L 186.86 171.25 C 186.21 170.50 185.08 170.41 184.32 171.06 C 183.57 171.71 183.48 172.84 184.13 173.60 Z M 184.71 174.24 L 185.28 175.04 C 185.86 175.84 186.98 176.02 187.78 175.44 C 188.58 174.86 188.76 173.74 188.18 172.94 L 187.60 172.14 C 187.02 171.34 185.90 171.16 185.10 171.74 C 184.30 172.32 184.13 173.44 184.71 174.24 Z M 185.21 174.90 L 185.71 175.74 C 186.21 176.58 187.30 176.86 188.15 176.35 C 188.99 175.85 189.27 174.76 188.76 173.91 L 188.26 173.08 C 187.75 172.23 186.66 171.96 185.82 172.46 C 184.98 172.97 184.70 174.06 185.21 174.90 Z M 185.64 175.60 L 186.07 176.49 C 186.50 177.37 187.55 177.74 188.43 177.32 C 189.31 176.89 189.68 175.83 189.26 174.95 L 188.83 174.06 C 188.40 173.18 187.35 172.81 186.47 173.23 C 185.59 173.66 185.22 174.72 185.64 175.60 Z M 186.02 176.34 L 186.38 177.28 C 186.72 178.19 187.73 178.64 188.64 178.30 C 189.55 177.96 190.00 176.95 189.66 176.04 L 189.31 175.10 C 188.97 174.20 187.95 173.74 187.05 174.08 C 186.14 174.42 185.68 175.44 186.02 176.34 Z M 186.34 177.13 L 186.61 178.09 C 186.87 179.02 187.83 179.56 188.76 179.30 C 189.69 179.04 190.23 178.08 189.97 177.15 L 189.70 176.19 C 189.44 175.26 188.48 174.72 187.55 174.98 C 186.62 175.24 186.08 176.20 186.34 177.13 Z M 186.59 177.94 L 186.77 178.92 C 186.95 179.86 187.86 180.48 188.80 180.30 C 189.74 180.13 190.35 179.22 190.18 178.28 L 189.99 177.30 C 189.81 176.36 188.91 175.75 187.97 175.92 C 187.03 176.10 186.41 177.01 186.59 177.94 Z M 186.77 178.77 L 186.86 179.76 C 186.96 180.70 187.80 181.39 188.74 181.30 C 189.69 181.20 190.38 180.36 190.28 179.42 L 190.18 178.43 C 190.09 177.49 189.25 176.80 188.30 176.89 C 187.36 176.99 186.67 177.83 186.77 178.77 Z M 186.87 179.61 L 186.88 180.60 C 186.89 181.54 187.67 182.30 188.61 182.29 C 189.55 182.27 190.30 181.50 190.29 180.56 L 190.28 179.57 C 190.26 178.63 189.49 177.87 188.55 177.89 C 187.61 177.90 186.86 178.67 186.87 179.61 Z M 186.90 180.46 L 186.83 181.46 C 186.76 182.39 187.46 183.20 188.39 183.27 C 189.32 183.34 190.13 182.64 190.20 181.71 L 190.27 180.71 C 190.34 179.78 189.64 178.97 188.71 178.90 C 187.78 178.83 186.97 179.53 186.90 180.46 Z M 186.85 181.33 L 186.70 182.30 C 186.56 183.22 187.19 184.07 188.10 184.22 C 189.02 184.36 189.88 183.73 190.02 182.82 L 190.17 181.84 C 190.31 180.93 189.68 180.07 188.77 179.93 C 187.85 179.79 187.00 180.41 186.85 181.33 Z M 186.74 182.18 L 186.52 183.11 C 186.30 184.01 186.86 184.91 187.76 185.12 C 188.65 185.33 189.55 184.78 189.76 183.88 L 189.98 182.94 C 190.20 182.05 189.64 181.15 188.74 180.94 C 187.85 180.72 186.95 181.28 186.74 182.18 Z M 186.56 182.99 L 186.26 183.94 C 185.98 184.81 186.46 185.75 187.33 186.02 C 188.20 186.30 189.14 185.82 189.42 184.95 L 189.72 184.00 C 190.00 183.13 189.52 182.20 188.64 181.92 C 187.77 181.64 186.84 182.12 186.56 182.99 Z M 186.31 183.82 L 185.92 184.77 C 185.57 185.62 185.98 186.58 186.82 186.93 C 187.67 187.27 188.63 186.87 188.98 186.02 L 189.37 185.07 C 189.71 184.22 189.31 183.26 188.46 182.91 C 187.62 182.57 186.65 182.97 186.31 183.82 Z M 185.97 184.66 L 185.52 185.57 C 185.12 186.38 185.45 187.37 186.26 187.78 C 187.07 188.18 188.06 187.85 188.47 187.04 L 188.92 186.13 C 189.33 185.32 189.00 184.33 188.18 183.92 C 187.37 183.52 186.38 183.85 185.97 184.66 Z M 185.57 185.48 L 185.09 186.32 C 184.63 187.10 184.90 188.11 185.68 188.56 C 186.47 189.02 187.47 188.75 187.93 187.97 L 188.42 187.13 C 188.87 186.35 188.61 185.34 187.82 184.88 C 187.04 184.43 186.03 184.69 185.57 185.48 Z M 185.13 186.24 L 184.59 187.08 C 184.09 187.83 184.30 188.85 185.06 189.35 C 185.82 189.85 186.84 189.63 187.33 188.88 L 187.88 188.04 C 188.38 187.28 188.17 186.27 187.41 185.77 C 186.65 185.27 185.63 185.48 185.13 186.24 Z M 184.63 187.01 L 184.04 187.84 C 183.50 188.57 183.67 189.60 184.40 190.13 C 185.14 190.66 186.16 190.50 186.69 189.76 L 187.29 188.94 C 187.82 188.20 187.66 187.18 186.92 186.65 C 186.19 186.12 185.16 186.28 184.63 187.01 Z M 184.08 187.78 L 183.44 188.59 C 182.88 189.30 183.00 190.33 183.71 190.90 C 184.42 191.46 185.45 191.34 186.01 190.62 L 186.65 189.82 C 187.21 189.11 187.09 188.08 186.38 187.51 C 185.67 186.95 184.64 187.07 184.08 187.78 Z M 183.48 188.55 L 182.86 189.27 C 182.28 189.96 182.36 190.99 183.05 191.58 C 183.74 192.17 184.77 192.08 185.36 191.39 L 185.97 190.67 C 186.56 189.98 186.48 188.95 185.79 188.36 C 185.10 187.78 184.07 187.86 183.48 188.55 Z M 182.90 189.23 L 182.27 189.92 C 181.66 190.58 181.71 191.62 182.37 192.23 C 183.04 192.84 184.08 192.79 184.69 192.13 L 185.32 191.44 C 185.93 190.77 185.88 189.74 185.21 189.13 C 184.55 188.51 183.51 188.56 182.90 189.23 Z M 182.31 189.87 L 181.64 190.56 C 181.00 191.20 181.01 192.24 181.65 192.87 C 182.30 193.51 183.33 193.50 183.97 192.86 L 184.65 192.17 C 185.28 191.53 185.27 190.49 184.63 189.85 C 183.98 189.22 182.95 189.23 182.31 189.87 Z M 181.68 190.52 L 180.94 191.21 C 180.29 191.84 180.26 192.87 180.88 193.53 C 181.50 194.18 182.54 194.21 183.19 193.59 L 183.93 192.90 C 184.58 192.28 184.61 191.24 183.99 190.58 C 183.37 189.93 182.33 189.90 181.68 190.52 Z M 180.98 191.18 L 180.18 191.89 C 179.50 192.49 179.44 193.52 180.04 194.20 C 180.64 194.88 181.67 194.94 182.35 194.34 L 183.15 193.63 C 183.83 193.03 183.89 192.00 183.29 191.32 C 182.69 190.64 181.66 190.58 180.98 191.18 Z M 180.21 191.86 L 179.41 192.53 C 178.71 193.11 178.62 194.14 179.20 194.84 C 179.78 195.53 180.81 195.63 181.51 195.05 L 182.31 194.37 C 183.01 193.79 183.10 192.76 182.52 192.07 C 181.94 191.37 180.91 191.28 180.21 191.86 Z M 179.44 192.51 L 178.67 193.12 C 177.96 193.69 177.84 194.72 178.41 195.42 C 178.97 196.13 180.00 196.25 180.71 195.68 L 181.48 195.07 C 182.18 194.51 182.30 193.48 181.74 192.77 C 181.17 192.06 180.14 191.95 179.44 192.51 Z M 178.69 193.10 L 177.88 193.72 C 177.17 194.27 177.03 195.30 177.58 196.02 C 178.13 196.74 179.16 196.87 179.88 196.32 L 180.68 195.70 C 181.40 195.15 181.54 194.12 180.99 193.41 C 180.44 192.69 179.41 192.55 178.69 193.10 Z M 177.91 193.70 L 177.08 194.32 C 176.35 194.85 176.20 195.88 176.73 196.61 C 177.27 197.33 178.30 197.49 179.02 196.95 L 179.85 196.34 C 180.58 195.80 180.73 194.78 180.20 194.05 C 179.66 193.32 178.64 193.17 177.91 193.70 Z M 177.10 194.30 L 176.27 194.89 C 175.53 195.42 175.36 196.44 175.88 197.18 C 176.40 197.91 177.42 198.09 178.16 197.56 L 179.00 196.97 C 179.74 196.45 179.91 195.42 179.39 194.69 C 178.86 193.95 177.84 193.78 177.10 194.30 Z M 176.29 194.88 L 175.46 195.44 C 174.71 195.95 174.52 196.97 175.03 197.72 C 175.54 198.46 176.56 198.66 177.30 198.15 L 178.13 197.58 C 178.88 197.07 179.08 196.05 178.57 195.31 C 178.06 194.56 177.04 194.37 176.29 194.88 Z M 175.49 195.42 L 174.68 195.95 C 173.92 196.44 173.71 197.45 174.20 198.21 C 174.69 198.97 175.71 199.18 176.46 198.69 L 177.27 198.17 C 178.03 197.68 178.25 196.66 177.76 195.90 C 177.26 195.14 176.25 194.93 175.49 195.42 Z M 174.72 195.92 L 173.76 196.51 C 172.98 196.98 172.74 197.98 173.21 198.76 C 173.68 199.53 174.68 199.78 175.46 199.31 L 176.42 198.72 C 177.20 198.25 177.44 197.24 176.97 196.47 C 176.50 195.70 175.50 195.45 174.72 195.92 Z M 173.81 196.48 L 172.88 197.00 C 172.09 197.44 171.81 198.44 172.25 199.22 C 172.69 200.01 173.68 200.30 174.47 199.86 L 175.40 199.34 C 176.19 198.90 176.48 197.90 176.04 197.11 C 175.60 196.32 174.60 196.04 173.81 196.48 Z M 172.94 196.97 L 172.05 197.42 C 171.24 197.82 170.92 198.81 171.33 199.62 C 171.74 200.42 172.72 200.75 173.53 200.34 L 174.41 199.89 C 175.22 199.48 175.54 198.49 175.14 197.69 C 174.73 196.88 173.74 196.56 172.94 196.97 Z M 172.11 197.39 L 171.26 197.77 C 170.43 198.15 170.07 199.12 170.44 199.94 C 170.82 200.76 171.79 201.13 172.61 200.75 L 173.46 200.37 C 174.29 199.99 174.65 199.02 174.28 198.20 C 173.91 197.38 172.94 197.01 172.11 197.39 Z M 171.32 197.74 L 170.50 198.08 C 169.66 198.41 169.25 199.37 169.59 200.20 C 169.92 201.04 170.88 201.45 171.72 201.11 L 172.54 200.78 C 173.38 200.45 173.79 199.49 173.45 198.65 C 173.12 197.81 172.16 197.41 171.32 197.74 Z M 170.57 198.05 L 169.61 198.38 C 168.75 198.68 168.30 199.61 168.60 200.47 C 168.89 201.32 169.83 201.77 170.68 201.48 L 171.64 201.14 C 172.50 200.85 172.95 199.91 172.65 199.06 C 172.36 198.20 171.42 197.75 170.57 198.05 Z M 169.69 198.36 L 168.71 198.64 C 167.84 198.89 167.34 199.80 167.59 200.67 C 167.84 201.54 168.75 202.04 169.62 201.79 L 170.60 201.50 C 171.47 201.25 171.97 200.34 171.72 199.47 C 171.46 198.60 170.56 198.10 169.69 198.36 Z M 168.78 198.62 L 167.82 198.85 C 166.94 199.06 166.40 199.94 166.61 200.82 C 166.82 201.70 167.70 202.24 168.58 202.04 L 169.54 201.81 C 170.42 201.60 170.96 200.71 170.75 199.84 C 170.54 198.96 169.66 198.41 168.78 198.62 Z M 167.89 198.84 L 166.95 199.02 C 166.06 199.18 165.48 200.04 165.65 200.93 C 165.82 201.82 166.67 202.40 167.56 202.23 L 168.51 202.05 C 169.39 201.88 169.98 201.02 169.81 200.14 C 169.64 199.25 168.78 198.67 167.89 198.84 Z M 167.02 199.00 L 166.03 199.15 C 165.14 199.28 164.52 200.12 164.65 201.01 C 164.78 201.90 165.62 202.52 166.51 202.39 L 167.50 202.24 C 168.39 202.11 169.01 201.28 168.87 200.38 C 168.74 199.49 167.91 198.87 167.02 199.00 Z M 166.09 199.14 L 165.09 199.26 C 164.19 199.36 163.54 200.17 163.64 201.07 C 163.75 201.96 164.56 202.61 165.45 202.51 L 166.45 202.40 C 167.35 202.29 168.00 201.48 167.90 200.59 C 167.80 199.69 166.99 199.04 166.09 199.14 Z M 165.13 199.25 L 164.14 199.34 C 163.24 199.42 162.57 200.21 162.65 201.11 C 162.73 202.01 163.52 202.68 164.42 202.60 L 165.41 202.51 C 166.31 202.43 166.98 201.64 166.90 200.74 C 166.82 199.84 166.03 199.17 165.13 199.25 Z M 164.16 199.34 L 163.18 199.41 C 162.27 199.48 161.60 200.26 161.66 201.16 C 161.73 202.07 162.52 202.74 163.42 202.67 L 164.40 202.60 C 165.30 202.53 165.98 201.75 165.91 200.85 C 165.85 199.95 165.06 199.27 164.16 199.34 Z M 163.18 199.41 L 163.06 199.42 C 162.16 199.48 161.48 200.27 161.54 201.17 C 161.61 202.07 162.39 202.75 163.29 202.68 L 163.41 202.68 C 164.32 202.61 164.99 201.83 164.93 200.93 C 164.87 200.02 164.08 199.35 163.18 199.41 Z"
      fill="black"
      fill-rule="nonzero" /><path d="M 155.40 185.49 L 156.07 184.85 C 156.78 184.16 156.80 183.03 156.12 182.32 C 155.43 181.61 154.30 181.58 153.59 182.27 L 152.92 182.91 C 152.21 183.60 152.18 184.73 152.87 185.44 C 153.55 186.16 154.69 186.18 155.40 185.49 Z M 155.92 184.99 L 156.68 184.40 C 157.47 183.80 157.62 182.68 157.02 181.89 C 156.42 181.10 155.30 180.95 154.51 181.55 L 153.74 182.13 C 152.95 182.73 152.80 183.86 153.40 184.65 C 154.00 185.43 155.13 185.59 155.92 184.99 Z M 156.38 184.60 L 157.33 184.14 C 158.22 183.71 158.60 182.63 158.17 181.74 C 157.74 180.84 156.66 180.46 155.77 180.89 L 154.81 181.35 C 153.92 181.78 153.54 182.86 153.97 183.76 C 154.40 184.65 155.48 185.03 156.38 184.60 Z M 156.99 184.27 L 157.93 184.04 C 158.90 183.79 159.49 182.81 159.25 181.84 C 159.01 180.87 158.02 180.28 157.05 180.53 L 156.11 180.76 C 155.14 181.00 154.55 181.99 154.79 182.96 C 155.03 183.93 156.02 184.52 156.99 184.27 Z M 157.72 184.09 L 158.71 183.97 C 159.71 183.84 160.42 182.93 160.29 181.93 C 160.17 180.93 159.26 180.22 158.26 180.35 L 157.27 180.47 C 156.27 180.60 155.56 181.51 155.68 182.51 C 155.81 183.51 156.72 184.22 157.72 184.09 Z M 158.59 183.99 L 159.63 183.93 C 160.64 183.88 161.42 183.01 161.36 182.00 C 161.30 180.98 160.44 180.21 159.42 180.27 L 158.38 180.32 C 157.37 180.38 156.59 181.25 156.65 182.26 C 156.71 183.27 157.57 184.05 158.59 183.99 Z M 159.56 183.95 L 160.59 183.93 C 161.61 183.91 162.43 183.07 162.41 182.05 C 162.39 181.03 161.55 180.21 160.53 180.23 L 159.49 180.25 C 158.47 180.27 157.66 181.11 157.68 182.13 C 157.69 183.15 158.54 183.97 159.56 183.95 Z M 160.56 183.94 L 161.60 183.94 C 162.62 183.94 163.46 183.11 163.46 182.08 C 163.45 181.05 162.62 180.22 161.59 180.22 L 160.56 180.22 C 159.53 180.22 158.69 181.06 158.70 182.08 C 158.70 183.11 159.53 183.94 160.56 183.94 Z M 161.59 183.94 L 162.66 183.94 C 163.69 183.94 164.52 183.11 164.52 182.08 C 164.52 181.05 163.69 180.22 162.66 180.22 L 161.59 180.22 C 160.57 180.22 159.73 181.05 159.73 182.08 C 159.73 183.11 160.57 183.94 161.59 183.94 Z M 162.66 183.94 L 163.62 183.94 C 164.65 183.94 165.48 183.11 165.48 182.08 C 165.48 181.05 164.65 180.22 163.62 180.22 L 162.66 180.22 C 161.63 180.22 160.80 181.05 160.80 182.08 C 160.80 183.11 161.63 183.94 162.66 183.94 Z M 163.62 183.94 L 164.55 183.94 C 165.58 183.94 166.41 183.11 166.41 182.08 C 166.41 181.06 165.58 180.22 164.55 180.22 L 163.62 180.22 C 162.60 180.22 161.77 181.06 161.77 182.08 C 161.77 183.11 162.60 183.94 163.62 183.94 Z M 164.55 183.93 L 165.50 183.93 C 166.52 183.93 167.35 183.10 167.35 182.08 C 167.35 181.06 166.52 180.23 165.50 180.23 L 164.55 180.23 C 163.53 180.23 162.71 181.06 162.71 182.08 C 162.71 183.10 163.53 183.93 164.55 183.93 Z M 165.50 183.91 L 166.48 183.91 C 167.49 183.91 168.31 183.09 168.31 182.08 C 168.31 181.07 167.49 180.25 166.48 180.25 L 165.50 180.25 C 164.49 180.25 163.67 181.07 163.67 182.08 C 163.67 183.09 164.49 183.91 165.50 183.91 Z M 166.48 183.89 L 167.50 183.89 C 168.51 183.89 169.32 183.08 169.32 182.08 C 169.32 181.08 168.51 180.27 167.50 180.27 L 166.48 180.27 C 165.48 180.27 164.67 181.08 164.67 182.08 C 164.67 183.08 165.48 183.89 166.48 183.89 Z M 167.50 183.88 L 168.53 183.88 C 169.52 183.88 170.33 183.07 170.33 182.08 C 170.33 181.09 169.52 180.28 168.53 180.28 L 167.50 180.28 C 166.51 180.28 165.71 181.09 165.71 182.08 C 165.71 183.07 166.51 183.88 167.50 183.88 Z M 168.52 183.86 L 169.49 183.86 C 170.47 183.86 171.27 183.07 171.27 182.09 C 171.28 181.11 170.48 180.31 169.50 180.31 L 168.53 180.30 C 167.55 180.30 166.76 181.09 166.75 182.08 C 166.75 183.06 167.54 183.85 168.52 183.86 Z M 169.47 183.84 L 170.47 183.85 C 171.44 183.86 172.23 183.09 172.25 182.12 C 172.26 181.15 171.48 180.36 170.52 180.34 L 169.52 180.33 C 168.55 180.32 167.76 181.09 167.74 182.06 C 167.73 183.03 168.51 183.82 169.47 183.84 Z M 170.44 183.83 L 171.46 183.86 C 172.41 183.89 173.21 183.14 173.24 182.18 C 173.27 181.23 172.52 180.43 171.57 180.40 L 170.55 180.37 C 169.59 180.34 168.79 181.09 168.76 182.04 C 168.73 183.00 169.48 183.80 170.44 183.83 Z M 171.41 183.84 L 172.45 183.90 C 173.40 183.95 174.21 183.23 174.26 182.29 C 174.31 181.34 173.59 180.54 172.65 180.48 L 171.61 180.42 C 170.67 180.37 169.86 181.09 169.80 182.03 C 169.75 182.97 170.47 183.78 171.41 183.84 Z M 172.39 183.87 L 173.44 183.97 C 174.37 184.06 175.19 183.38 175.28 182.45 C 175.37 181.52 174.69 180.69 173.76 180.61 L 172.71 180.50 C 171.78 180.42 170.96 181.10 170.87 182.03 C 170.78 182.96 171.46 183.78 172.39 183.87 Z M 173.33 183.94 L 174.35 184.11 C 175.26 184.26 176.12 183.64 176.27 182.72 C 176.42 181.81 175.80 180.95 174.88 180.80 L 173.87 180.64 C 172.96 180.49 172.10 181.11 171.95 182.02 C 171.80 182.93 172.42 183.79 173.33 183.94 Z M 174.18 184.05 L 175.11 184.31 C 176.00 184.55 176.91 184.03 177.15 183.15 C 177.39 182.26 176.87 181.35 175.99 181.11 L 175.05 180.85 C 174.17 180.61 173.26 181.13 173.01 182.02 C 172.77 182.90 173.29 183.81 174.18 184.05 Z M 174.86 184.20 L 175.72 184.60 C 176.54 184.98 177.52 184.62 177.90 183.80 C 178.28 182.97 177.92 182.00 177.10 181.61 L 176.24 181.22 C 175.42 180.84 174.44 181.20 174.06 182.02 C 173.68 182.84 174.04 183.82 174.86 184.20 Z M 175.40 184.40 L 176.19 185.02 C 176.91 185.57 177.93 185.44 178.49 184.73 C 179.05 184.02 178.92 182.99 178.21 182.43 L 177.41 181.81 C 176.70 181.26 175.67 181.39 175.11 182.10 C 174.56 182.81 174.69 183.84 175.40 184.40 Z M 175.97 184.81 L 176.62 185.54 C 177.22 186.22 178.25 186.29 178.93 185.69 C 179.61 185.09 179.68 184.06 179.08 183.38 L 178.43 182.64 C 177.83 181.96 176.80 181.90 176.12 182.49 C 175.44 183.09 175.37 184.13 175.97 184.81 Z M 176.52 185.42 L 177.10 186.22 C 177.63 186.95 178.65 187.12 179.39 186.59 C 180.12 186.06 180.28 185.03 179.75 184.30 L 179.17 183.50 C 178.64 182.77 177.62 182.61 176.89 183.14 C 176.16 183.67 175.99 184.69 176.52 185.42 Z"
      fill="black"
      fill-rule="nonzero" /><path d="M 154.24 202.14 L 155.13 202.65 C 155.95 203.11 156.99 202.83 157.46 202.01 C 157.93 201.19 157.65 200.15 156.83 199.68 L 155.94 199.17 C 155.12 198.70 154.07 198.98 153.60 199.80 C 153.14 200.62 153.42 201.67 154.24 202.14 Z M 155.17 202.74 L 156.07 203.20 C 156.94 203.64 158.01 203.30 158.45 202.42 C 158.90 201.55 158.55 200.49 157.68 200.04 L 156.78 199.59 C 155.91 199.14 154.84 199.49 154.40 200.36 C 153.96 201.23 154.30 202.30 155.17 202.74 Z M 156.21 203.33 L 157.13 203.68 C 158.07 204.05 159.14 203.58 159.50 202.64 C 159.86 201.69 159.40 200.63 158.45 200.27 L 157.54 199.91 C 156.59 199.55 155.53 200.02 155.17 200.96 C 154.80 201.90 155.27 202.96 156.21 203.33 Z M 157.40 203.81 L 158.31 204.01 C 159.33 204.23 160.33 203.58 160.55 202.56 C 160.76 201.55 160.12 200.55 159.10 200.33 L 158.18 200.14 C 157.17 199.92 156.17 200.57 155.95 201.58 C 155.74 202.60 156.38 203.59 157.40 203.81 Z M 158.63 204.06 L 159.55 204.10 C 160.60 204.14 161.48 203.32 161.52 202.28 C 161.56 201.24 160.74 200.36 159.70 200.32 L 158.78 200.28 C 157.74 200.24 156.86 201.05 156.82 202.10 C 156.78 203.14 157.59 204.02 158.63 204.06 Z M 159.80 204.08 L 160.78 203.99 C 161.81 203.89 162.57 202.98 162.48 201.94 C 162.38 200.91 161.47 200.15 160.43 200.24 L 159.45 200.33 C 158.42 200.43 157.66 201.35 157.76 202.38 C 157.85 203.41 158.77 204.17 159.80 204.08 Z M 160.94 203.96 L 161.99 203.77 C 163.01 203.58 163.69 202.61 163.50 201.59 C 163.32 200.58 162.35 199.90 161.33 200.08 L 160.27 200.27 C 159.26 200.46 158.58 201.43 158.76 202.45 C 158.95 203.47 159.92 204.14 160.94 203.96 Z M 162.07 203.74 L 163.04 203.52 C 164.05 203.29 164.67 202.29 164.45 201.29 C 164.22 200.29 163.22 199.66 162.22 199.89 L 161.25 200.11 C 160.25 200.34 159.62 201.34 159.85 202.34 C 160.08 203.34 161.07 203.97 162.07 203.74 Z M 163.08 203.49 L 163.99 203.26 C 164.98 203.02 165.58 202.01 165.33 201.03 C 165.08 200.04 164.08 199.44 163.09 199.69 L 162.18 199.92 C 161.20 200.16 160.60 201.17 160.84 202.15 C 161.09 203.14 162.09 203.74 163.08 203.49 Z M 164.01 203.24 L 164.97 202.98 C 165.94 202.72 166.52 201.72 166.26 200.75 C 166.00 199.77 165.00 199.20 164.02 199.46 L 163.07 199.71 C 162.10 199.97 161.52 200.97 161.78 201.95 C 162.04 202.92 163.04 203.50 164.01 203.24 Z M 164.98 202.96 L 165.98 202.69 C 166.94 202.42 167.50 201.42 167.23 200.45 C 166.96 199.49 165.96 198.93 165.00 199.20 L 164.01 199.48 C 163.05 199.75 162.48 200.75 162.75 201.71 C 163.02 202.67 164.02 203.23 164.98 202.96 Z M 165.99 202.66 L 167.01 202.37 C 167.96 202.09 168.51 201.10 168.23 200.15 C 167.96 199.20 166.96 198.65 166.01 198.93 L 164.99 199.22 C 164.04 199.50 163.49 200.49 163.77 201.44 C 164.04 202.39 165.04 202.94 165.99 202.66 Z M 167.01 202.35 L 168.01 202.05 C 168.95 201.78 169.49 200.79 169.21 199.85 C 168.93 198.91 167.94 198.37 167.00 198.65 L 166.01 198.95 C 165.07 199.22 164.53 200.21 164.81 201.15 C 165.09 202.09 166.07 202.63 167.01 202.35 Z M 168.01 202.03 L 168.97 201.75 C 169.90 201.47 170.42 200.49 170.15 199.56 C 169.87 198.63 168.89 198.10 167.96 198.38 L 167.00 198.67 C 166.08 198.95 165.55 199.93 165.83 200.86 C 166.11 201.78 167.08 202.31 168.01 202.03 Z M 168.97 201.73 L 169.93 201.44 C 170.85 201.16 171.36 200.19 171.09 199.27 C 170.81 198.35 169.84 197.84 168.92 198.11 L 167.96 198.40 C 167.04 198.68 166.53 199.65 166.80 200.57 C 167.08 201.48 168.05 202.00 168.97 201.73 Z M 169.92 201.42 L 170.89 201.12 C 171.79 200.85 172.30 199.89 172.03 198.98 C 171.76 198.08 170.80 197.57 169.89 197.84 L 168.93 198.13 C 168.02 198.41 167.51 199.37 167.78 200.27 C 168.06 201.18 169.02 201.69 169.92 201.42 Z M 170.88 201.10 L 171.84 200.81 C 172.74 200.54 173.24 199.60 172.97 198.70 C 172.70 197.81 171.76 197.30 170.86 197.57 L 169.90 197.86 C 169.00 198.13 168.50 199.08 168.77 199.97 C 169.04 200.87 169.98 201.38 170.88 201.10 Z M 171.83 200.80 L 172.78 200.51 C 173.67 200.25 174.17 199.31 173.91 198.43 C 173.64 197.54 172.71 197.04 171.82 197.30 L 170.87 197.59 C 169.98 197.85 169.48 198.79 169.74 199.67 C 170.01 200.56 170.94 201.06 171.83 200.80 Z M 172.77 200.50 L 173.75 200.21 C 174.63 199.95 175.13 199.03 174.87 198.15 C 174.61 197.27 173.69 196.77 172.81 197.03 L 171.83 197.31 C 170.95 197.57 170.45 198.50 170.71 199.38 C 170.97 200.26 171.89 200.76 172.77 200.50 Z M 173.74 200.21 L 174.71 199.93 C 175.59 199.67 176.09 198.75 175.84 197.88 C 175.58 197.00 174.66 196.49 173.78 196.75 L 172.81 197.03 C 171.94 197.29 171.43 198.20 171.69 199.08 C 171.94 199.96 172.86 200.46 173.74 200.21 Z M 174.70 199.92 L 175.66 199.65 C 176.54 199.40 177.05 198.48 176.79 197.61 C 176.54 196.73 175.63 196.22 174.75 196.48 L 173.79 196.75 C 172.91 197.00 172.41 197.92 172.66 198.79 C 172.91 199.67 173.83 200.18 174.70 199.92 Z M 175.66 199.64 L 176.61 199.37 C 177.49 199.12 177.99 198.21 177.75 197.34 C 177.50 196.46 176.59 195.96 175.71 196.21 L 174.76 196.48 C 173.88 196.73 173.38 197.64 173.62 198.51 C 173.87 199.39 174.78 199.89 175.66 199.64 Z M 176.61 199.37 L 177.56 199.10 C 178.43 198.85 178.94 197.95 178.69 197.07 C 178.45 196.20 177.54 195.69 176.67 195.94 L 175.72 196.21 C 174.84 196.46 174.34 197.36 174.58 198.24 C 174.83 199.11 175.74 199.62 176.61 199.37 Z M 177.56 199.10 L 178.21 198.91 C 179.08 198.67 179.59 197.76 179.34 196.89 C 179.10 196.02 178.19 195.51 177.32 195.76 L 176.67 195.94 C 175.80 196.19 175.29 197.09 175.54 197.97 C 175.78 198.84 176.69 199.34 177.56 199.10 Z"
      fill="black"
      fill-rule="nonzero" /></svg>