<svg xmlns="http://www.w3.org/2000/svg" width="300" height="300" viewBox="0 0 300 300">
<path d="M 113.05 132.19 L 113.91 131.89 C 114.78 131.60 115.25 130.65 114.96 129.78 C 114.66 128.91 113.72 128.44 112.84 128.74 L 111.98 129.03 C 111.11 129.32 110.64 130.27 110.94 131.14 C 111.23 132.01 112.18 132.48 113.05 132.19 Z M 113.84 131.93 L 114.75 131.67 C 115.64 131.42 116.16 130.49 115.91 129.60 C 115.66 128.71 114.73 128.19 113.84 128.44 L 112.92 128.70 C 112.03 128.95 111.51 129.88 111.76 130.77 C 112.02 131.67 112.94 132.18 113.84 131.93 Z M 114.61 131.72 L 115.64 131.52 C 116.55 131.35 117.16 130.46 116.98 129.54 C 116.81 128.63 115.92 128.03 115.00 128.20 L 113.98 128.40 C 113.06 128.57 112.46 129.46 112.63 130.37 C 112.81 131.29 113.69 131.89 114.61 131.72 Z M 115.47 131.55 L 116.51 131.46 C 117.45 131.37 118.14 130.55 118.05 129.61 C 117.97 128.68 117.14 127.99 116.21 128.08 L 115.17 128.17 C 114.23 128.26 113.55 129.08 113.63 130.01 C 113.72 130.95 114.54 131.64 115.47 131.55 Z M 116.38 131.46 L 117.33 131.44 C 118.27 131.43 119.01 130.66 119.00 129.73 C 118.99 128.80 118.22 128.05 117.29 128.06 L 116.34 128.08 C 115.40 128.09 114.66 128.86 114.67 129.79 C 114.68 130.72 115.45 131.47 116.38 131.46 Z M 117.23 131.43 L 118.24 131.48 C 119.17 131.52 119.95 130.80 119.99 129.87 C 120.03 128.95 119.32 128.16 118.39 128.12 L 117.38 128.08 C 116.46 128.04 115.67 128.75 115.63 129.68 C 115.59 130.60 116.31 131.39 117.23 131.43 Z M 118.15 131.46 L 119.19 131.56 C 120.10 131.65 120.92 130.98 121.01 130.06 C 121.10 129.15 120.43 128.33 119.51 128.24 L 118.48 128.14 C 117.56 128.05 116.75 128.72 116.66 129.64 C 116.57 130.55 117.24 131.37 118.15 131.46 Z M 119.10 131.53 L 120.13 131.69 C 121.03 131.83 121.87 131.21 122.01 130.31 C 122.15 129.41 121.53 128.56 120.63 128.42 L 119.60 128.27 C 118.70 128.13 117.85 128.75 117.71 129.65 C 117.58 130.55 118.20 131.40 119.10 131.53 Z M 120.03 131.66 L 121.07 131.89 C 121.96 132.08 122.83 131.51 123.02 130.63 C 123.21 129.74 122.65 128.87 121.76 128.68 L 120.72 128.45 C 119.84 128.26 118.96 128.83 118.77 129.71 C 118.58 130.60 119.14 131.47 120.03 131.66 Z M 120.97 131.84 L 122.01 132.14 C 122.87 132.39 123.77 131.89 124.02 131.03 C 124.27 130.17 123.77 129.27 122.91 129.02 L 121.87 128.72 C 121.01 128.47 120.11 128.97 119.86 129.83 C 119.61 130.69 120.11 131.59 120.97 131.84 Z M 121.90 132.09 L 122.86 132.44 C 123.69 132.75 124.61 132.33 124.92 131.49 C 125.23 130.66 124.80 129.74 123.97 129.43 L 123.01 129.08 C 122.18 128.77 121.26 129.19 120.95 130.03 C 120.64 130.86 121.07 131.78 121.90 132.09 Z M 122.75 132.38 L 123.62 132.78 C 124.41 133.14 125.36 132.80 125.72 132.00 C 126.09 131.20 125.74 130.26 124.95 129.89 L 124.08 129.49 C 123.28 129.13 122.34 129.48 121.97 130.27 C 121.61 131.07 121.95 132.01 122.75 132.38 Z M 123.51 132.70 L 124.28 133.14 C 125.04 133.57 125.99 133.30 126.42 132.55 C 126.85 131.80 126.58 130.84 125.83 130.41 L 125.06 129.97 C 124.30 129.54 123.34 129.81 122.92 130.56 C 122.49 131.32 122.75 132.27 123.51 132.70 Z M 124.15 133.04 L 125.02 133.67 C 125.72 134.17 126.69 134.01 127.20 133.31 C 127.70 132.61 127.54 131.64 126.84 131.13 L 125.97 130.51 C 125.27 130.00 124.29 130.16 123.79 130.87 C 123.29 131.57 123.45 132.54 124.15 133.04 Z M 124.89 133.56 L 125.63 134.22 C 126.27 134.80 127.25 134.74 127.83 134.10 C 128.40 133.46 128.35 132.47 127.71 131.90 L 126.97 131.24 C 126.33 130.66 125.34 130.72 124.76 131.36 C 124.19 132.00 124.24 132.99 124.89 133.56 Z M 125.55 134.15 L 126.21 134.83 C 126.81 135.45 127.80 135.46 128.42 134.85 C 129.04 134.25 129.05 133.26 128.44 132.65 L 127.78 131.97 C 127.18 131.35 126.19 131.34 125.57 131.94 C 124.96 132.55 124.95 133.53 125.55 134.15 Z M 126.19 134.81 L 126.37 134.99 C 126.96 135.62 127.95 135.65 128.57 135.06 C 129.20 134.47 129.23 133.48 128.64 132.85 L 128.46 132.67 C 127.87 132.04 126.88 132.01 126.26 132.60 C 125.63 133.19 125.60 134.18 126.19 134.81 Z"
      fill="black"
      fill-rule="nonzero" /><path d="M 113.04 169.60 L 112.18 170.68 C 111.59 171.41 111.71 172.49 112.44 173.08 C 113.18 173.67 114.25 173.55 114.84 172.81 L 115.71 171.74 C 116.30 171.01 116.18 169.93 115.44 169.34 C 114.71 168.75 113.63 168.87 113.04 169.60 Z M 112.19 170.66 L 111.40 171.62 C 110.80 172.34 110.91 173.42 111.64 174.02 C 112.36 174.62 113.44 174.52 114.04 173.79 L 114.83 172.83 C 115.43 172.10 115.33 171.03 114.60 170.43 C 113.87 169.83 112.79 169.93 112.19 170.66 Z M 111.44 171.57 L 110.80 172.30 C 110.17 173.00 110.24 174.08 110.94 174.71 C 111.65 175.33 112.73 175.27 113.36 174.56 L 114.00 173.84 C 114.63 173.13 114.56 172.05 113.86 171.43 C 113.15 170.80 112.07 170.86 111.44 171.57 Z M 110.94 172.15 L 110.52 172.53 C 109.81 173.15 109.75 174.23 110.37 174.94 C 111.00 175.65 112.08 175.71 112.79 175.09 L 113.21 174.71 C 113.92 174.08 113.98 173.00 113.36 172.30 C 112.73 171.59 111.65 171.52 110.94 172.15 Z M 112.84 172.57 L 112.69 172.44 C 112.01 171.79 110.93 171.81 110.28 172.49 C 109.62 173.17 109.65 174.25 110.33 174.91 L 110.47 175.04 C 111.15 175.69 112.23 175.67 112.89 174.99 C 113.54 174.31 113.52 173.23 112.84 172.57 Z M 113.14 174.19 L 113.38 173.45 C 113.66 172.55 113.17 171.59 112.27 171.30 C 111.37 171.01 110.41 171.51 110.12 172.41 L 109.88 173.15 C 109.60 174.05 110.09 175.01 110.99 175.30 C 111.89 175.59 112.85 175.09 113.14 174.19 Z M 113.31 173.62 L 113.83 172.46 C 114.21 171.60 113.83 170.59 112.96 170.20 C 112.10 169.82 111.09 170.21 110.71 171.07 L 110.19 172.23 C 109.80 173.09 110.19 174.11 111.05 174.49 C 111.92 174.87 112.93 174.49 113.31 173.62 Z M 113.80 172.52 L 114.39 171.32 C 114.81 170.48 114.46 169.45 113.61 169.04 C 112.76 168.62 111.74 168.97 111.32 169.82 L 110.74 171.01 C 110.32 171.86 110.67 172.88 111.51 173.30 C 112.36 173.71 113.38 173.36 113.80 172.52 Z M 114.37 171.35 L 114.84 170.44 C 115.27 169.61 114.94 168.58 114.11 168.15 C 113.27 167.72 112.24 168.04 111.81 168.88 L 111.34 169.79 C 110.91 170.63 111.24 171.65 112.07 172.09 C 112.91 172.52 113.94 172.19 114.37 171.35 Z M 114.82 170.46 L 115.31 169.55 C 115.75 168.72 115.44 167.69 114.61 167.25 C 113.78 166.81 112.75 167.12 112.31 167.95 L 111.82 168.87 C 111.38 169.70 111.70 170.72 112.53 171.16 C 113.36 171.61 114.38 171.29 114.82 170.46 Z M 115.30 169.56 L 115.79 168.66 C 116.24 167.84 115.93 166.81 115.11 166.36 C 114.29 165.91 113.26 166.22 112.81 167.04 L 112.32 167.94 C 111.87 168.76 112.18 169.79 113.00 170.24 C 113.82 170.68 114.85 170.38 115.30 169.56 Z M 115.78 168.67 L 116.26 167.80 C 116.71 166.99 116.42 165.96 115.60 165.50 C 114.79 165.05 113.76 165.34 113.30 166.16 L 112.82 167.03 C 112.37 167.84 112.66 168.87 113.48 169.32 C 114.30 169.78 115.32 169.48 115.78 168.67 Z M 116.25 167.81 L 116.71 167.00 C 117.16 166.19 116.88 165.16 116.07 164.70 C 115.26 164.25 114.23 164.53 113.77 165.34 L 113.31 166.15 C 112.86 166.96 113.14 167.99 113.95 168.45 C 114.76 168.91 115.79 168.62 116.25 167.81 Z M 116.69 167.01 L 117.24 166.05 C 117.71 165.25 117.43 164.22 116.63 163.76 C 115.83 163.30 114.81 163.57 114.34 164.37 L 113.79 165.33 C 113.33 166.13 113.60 167.16 114.40 167.62 C 115.20 168.08 116.23 167.81 116.69 167.01 Z M 117.22 166.06 L 117.74 165.19 C 118.21 164.40 117.95 163.38 117.16 162.91 C 116.37 162.44 115.35 162.70 114.88 163.49 L 114.36 164.36 C 113.90 165.15 114.16 166.17 114.95 166.64 C 115.74 167.11 116.76 166.85 117.22 166.06 Z M 117.72 165.20 L 118.21 164.39 C 118.69 163.61 118.44 162.60 117.66 162.12 C 116.89 161.65 115.87 161.89 115.40 162.67 L 114.90 163.48 C 114.43 164.26 114.67 165.28 115.45 165.75 C 116.23 166.22 117.24 165.98 117.72 165.20 Z M 118.19 164.40 L 118.69 163.60 C 119.17 162.84 118.93 161.83 118.17 161.35 C 117.40 160.87 116.39 161.10 115.91 161.87 L 115.42 162.66 C 114.94 163.43 115.17 164.44 115.94 164.92 C 116.70 165.40 117.71 165.16 118.19 164.40 Z M 118.67 163.61 L 119.19 162.79 C 119.68 162.03 119.45 161.03 118.70 160.54 C 117.94 160.06 116.93 160.29 116.45 161.04 L 115.93 161.87 C 115.45 162.62 115.67 163.63 116.43 164.11 C 117.18 164.59 118.19 164.37 118.67 163.61 Z M 119.18 162.79 L 119.72 161.95 C 120.21 161.20 119.99 160.20 119.24 159.72 C 118.49 159.23 117.49 159.45 117.01 160.20 L 116.47 161.04 C 115.98 161.79 116.20 162.79 116.95 163.27 C 117.70 163.76 118.70 163.54 119.18 162.79 Z M 119.71 161.95 L 120.26 161.10 C 120.75 160.36 120.54 159.37 119.79 158.88 C 119.05 158.40 118.06 158.61 117.57 159.35 L 117.02 160.20 C 116.54 160.94 116.75 161.93 117.49 162.42 C 118.23 162.90 119.23 162.69 119.71 161.95 Z M 120.25 161.10 L 120.80 160.26 C 121.29 159.53 121.08 158.54 120.35 158.05 C 119.61 157.57 118.62 157.77 118.14 158.51 L 117.58 159.35 C 117.10 160.09 117.30 161.08 118.04 161.56 C 118.78 162.04 119.77 161.84 120.25 161.10 Z M 120.79 160.26 L 121.35 159.43 C 121.83 158.70 121.63 157.71 120.90 157.23 C 120.17 156.74 119.18 156.94 118.70 157.67 L 118.15 158.51 C 117.66 159.24 117.86 160.23 118.59 160.71 C 119.33 161.19 120.31 160.99 120.79 160.26 Z M 121.34 159.43 L 121.89 158.60 C 122.38 157.88 122.19 156.90 121.46 156.41 C 120.73 155.92 119.75 156.12 119.26 156.84 L 118.71 157.67 C 118.22 158.40 118.42 159.38 119.14 159.87 C 119.87 160.35 120.85 160.16 121.34 159.43 Z M 121.88 158.61 L 122.44 157.79 C 122.93 157.07 122.75 156.09 122.03 155.60 C 121.31 155.11 120.33 155.29 119.84 156.01 L 119.28 156.83 C 118.78 157.55 118.97 158.53 119.69 159.03 C 120.41 159.52 121.39 159.33 121.88 158.61 Z M 122.43 157.81 L 123.01 156.98 C 123.50 156.27 123.33 155.29 122.62 154.79 C 121.91 154.29 120.93 154.46 120.43 155.17 L 119.85 156.00 C 119.35 156.71 119.52 157.69 120.24 158.19 C 120.95 158.69 121.93 158.52 122.43 157.81 Z M 122.99 157.00 L 123.56 156.21 C 124.07 155.51 123.91 154.53 123.21 154.02 C 122.51 153.51 121.53 153.67 121.02 154.37 L 120.45 155.16 C 119.94 155.86 120.10 156.84 120.80 157.35 C 121.50 157.86 122.48 157.70 122.99 157.00 Z M 123.55 156.22 L 124.14 155.43 C 124.66 154.73 124.51 153.75 123.81 153.23 C 123.12 152.72 122.14 152.86 121.62 153.56 L 121.03 154.35 C 120.52 155.05 120.66 156.03 121.36 156.55 C 122.05 157.06 123.03 156.92 123.55 156.22 Z M 124.13 155.43 L 124.74 154.63 C 125.26 153.94 125.12 152.96 124.43 152.44 C 123.74 151.92 122.76 152.05 122.24 152.74 L 121.63 153.55 C 121.11 154.24 121.25 155.22 121.94 155.74 C 122.63 156.26 123.61 156.12 124.13 155.43 Z M 124.73 154.63 L 125.35 153.82 C 125.87 153.14 125.74 152.15 125.05 151.63 C 124.37 151.11 123.39 151.24 122.86 151.93 L 122.24 152.74 C 121.72 153.43 121.85 154.41 122.54 154.93 C 123.23 155.45 124.21 155.32 124.73 154.63 Z M 125.35 153.82 L 125.95 153.04 C 126.47 152.35 126.34 151.37 125.66 150.85 C 124.97 150.32 123.99 150.45 123.47 151.14 L 122.87 151.93 C 122.34 152.61 122.47 153.59 123.16 154.12 C 123.84 154.64 124.82 154.51 125.35 153.82 Z M 125.95 153.04 L 126.55 152.25 C 127.08 151.57 126.95 150.59 126.27 150.06 C 125.58 149.53 124.60 149.66 124.08 150.35 L 123.47 151.13 C 122.95 151.82 123.07 152.80 123.76 153.32 C 124.44 153.85 125.42 153.72 125.95 153.04 Z M 126.55 152.25 L 127.16 151.46 C 127.69 150.78 127.57 149.80 126.88 149.27 C 126.20 148.74 125.22 148.87 124.69 149.55 L 124.08 150.34 C 123.55 151.02 123.68 152.00 124.36 152.53 C 125.04 153.06 126.02 152.93 126.55 152.25 Z M 127.16 151.47 L 127.78 150.67 C 128.31 149.99 128.19 149.01 127.51 148.48 C 126.83 147.95 125.85 148.07 125.32 148.75 L 124.70 149.54 C 124.17 150.22 124.29 151.21 124.97 151.74 C 125.65 152.27 126.63 152.15 127.16 151.47 Z M 127.78 150.68 L 128.40 149.89 C 128.93 149.21 128.81 148.23 128.14 147.70 C 127.46 147.16 126.48 147.28 125.94 147.96 L 125.32 148.74 C 124.79 149.42 124.91 150.40 125.58 150.94 C 126.26 151.47 127.24 151.35 127.78 150.68 Z M 128.39 149.90 L 129.01 149.12 C 129.55 148.44 129.44 147.46 128.76 146.92 C 128.09 146.39 127.11 146.50 126.57 147.17 L 125.95 147.95 C 125.41 148.62 125.52 149.61 126.20 150.14 C 126.87 150.68 127.85 150.57 128.39 149.90 Z M 129.01 149.12 L 129.63 148.35 C 130.17 147.67 130.07 146.69 129.40 146.15 C 128.72 145.61 127.74 145.72 127.20 146.39 L 126.57 147.17 C 126.03 147.84 126.14 148.82 126.81 149.36 C 127.48 149.90 128.46 149.80 129.01 149.12 Z M 129.63 148.35 L 130.26 147.57 C 130.80 146.91 130.70 145.92 130.04 145.38 C 129.37 144.83 128.38 144.94 127.84 145.60 L 127.21 146.38 C 126.66 147.05 126.76 148.03 127.43 148.58 C 128.10 149.12 129.08 149.02 129.63 148.35 Z M 130.26 147.58 L 130.89 146.80 C 131.44 146.14 131.35 145.15 130.68 144.61 C 130.02 144.06 129.03 144.15 128.48 144.82 L 127.84 145.60 C 127.30 146.26 127.39 147.25 128.06 147.79 C 128.72 148.34 129.71 148.25 130.26 147.58 Z M 130.89 146.81 L 131.52 146.05 C 132.07 145.39 131.98 144.40 131.32 143.85 C 130.65 143.30 129.67 143.39 129.12 144.06 L 128.49 144.81 C 127.94 145.48 128.03 146.46 128.69 147.01 C 129.35 147.56 130.34 147.47 130.89 146.81 Z M 131.52 146.06 L 132.15 145.29 C 132.71 144.63 132.62 143.65 131.96 143.10 C 131.30 142.54 130.31 142.63 129.76 143.29 L 129.12 144.05 C 128.57 144.71 128.66 145.70 129.32 146.25 C 129.98 146.80 130.96 146.72 131.52 146.06 Z M 132.15 145.30 L 132.79 144.53 C 133.35 143.87 133.26 142.88 132.60 142.33 C 131.94 141.78 130.96 141.86 130.40 142.52 L 129.76 143.29 C 129.21 143.95 129.29 144.94 129.95 145.49 C 130.61 146.04 131.60 145.96 132.15 145.30 Z M 132.80 144.53 L 133.44 143.75 C 134.00 143.09 133.91 142.11 133.25 141.55 C 132.59 141.00 131.60 141.09 131.05 141.75 L 130.40 142.52 C 129.85 143.18 129.94 144.17 130.60 144.72 C 131.26 145.28 132.24 145.19 132.80 144.53 Z M 133.45 143.75 L 134.10 142.96 C 134.65 142.30 134.56 141.32 133.90 140.76 C 133.24 140.21 132.25 140.30 131.70 140.97 L 131.05 141.75 C 130.50 142.41 130.59 143.40 131.25 143.95 C 131.91 144.50 132.90 144.41 133.45 143.75 Z M 134.10 142.96 L 134.76 142.17 C 135.31 141.51 135.22 140.52 134.55 139.97 C 133.89 139.42 132.91 139.51 132.36 140.18 L 131.70 140.97 C 131.15 141.63 131.24 142.62 131.91 143.17 C 132.57 143.72 133.55 143.62 134.10 142.96 Z M 134.76 142.17 L 135.41 141.39 C 135.96 140.72 135.86 139.74 135.20 139.19 C 134.54 138.64 133.55 138.73 133.00 139.40 L 132.35 140.18 C 131.80 140.84 131.90 141.83 132.56 142.38 C 133.23 142.93 134.21 142.83 134.76 142.17 Z M 135.41 141.39 L 136.04 140.62 C 136.59 139.96 136.50 138.97 135.84 138.42 C 135.17 137.87 134.19 137.97 133.64 138.63 L 133.00 139.39 C 132.45 140.06 132.55 141.04 133.21 141.59 C 133.87 142.14 134.86 142.05 135.41 141.39 Z M 136.04 140.62 L 136.65 139.89 C 137.20 139.23 137.11 138.24 136.45 137.69 C 135.79 137.14 134.80 137.23 134.25 137.89 L 133.64 138.63 C 133.09 139.29 133.18 140.27 133.84 140.82 C 134.50 141.38 135.49 141.29 136.04 140.62 Z M 136.65 139.90 L 137.33 139.09 C 137.88 138.43 137.80 137.44 137.14 136.89 C 136.48 136.33 135.49 136.42 134.94 137.08 L 134.26 137.89 C 133.70 138.55 133.79 139.53 134.45 140.09 C 135.11 140.64 136.09 140.56 136.65 139.90 Z M 137.32 139.09 L 137.97 138.32 C 138.53 137.66 138.45 136.68 137.79 136.12 C 137.14 135.56 136.15 135.65 135.59 136.30 L 134.94 137.07 C 134.38 137.73 134.46 138.72 135.12 139.27 C 135.78 139.83 136.76 139.75 137.32 139.09 Z M 137.97 138.33 L 138.60 137.59 C 139.16 136.93 139.08 135.95 138.43 135.39 C 137.77 134.83 136.79 134.90 136.23 135.56 L 135.60 136.30 C 135.04 136.95 135.11 137.94 135.77 138.50 C 136.43 139.06 137.41 138.98 137.97 138.33 Z M 138.60 137.59 L 139.17 136.93 C 139.73 136.27 139.65 135.29 138.99 134.73 C 138.34 134.17 137.35 134.24 136.79 134.90 L 136.23 135.56 C 135.67 136.21 135.74 137.20 136.40 137.76 C 137.05 138.32 138.04 138.24 138.60 137.59 Z"
      fill="black"
      fill-rule="nonzero" /><path d="M 150.25 113.53 L 150.04 114.48 C 149.84 115.40 150.42 116.30 151.33 116.50 C 152.25 116.70 153.15 116.12 153.35 115.21 L 153.56 114.26 C 153.76 113.34 153.18 112.44 152.27 112.24 C 151.35 112.04 150.45 112.61 150.25 113.53 Z M 150.04 114.46 L 149.82 115.42 C 149.61 116.34 150.17 117.25 151.08 117.46 C 152.00 117.67 152.91 117.11 153.12 116.20 L 153.35 115.23 C 153.56 114.32 152.99 113.41 152.08 113.19 C 151.17 112.98 150.26 113.55 150.04 114.46 Z M 149.83 115.38 L 149.57 116.37 C 149.34 117.28 149.88 118.20 150.79 118.44 C 151.69 118.68 152.62 118.13 152.85 117.23 L 153.11 116.24 C 153.35 115.33 152.80 114.41 151.90 114.17 C 150.99 113.93 150.07 114.48 149.83 115.38 Z M 149.59 116.32 L 149.32 117.24 C 149.05 118.14 149.57 119.08 150.47 119.34 C 151.36 119.60 152.31 119.09 152.57 118.19 L 152.84 117.28 C 153.10 116.38 152.59 115.44 151.69 115.17 C 150.79 114.91 149.85 115.42 149.59 116.32 Z M 149.33 117.21 L 149.04 118.14 C 148.76 119.03 149.26 119.98 150.15 120.26 C 151.04 120.53 151.99 120.04 152.27 119.15 L 152.56 118.22 C 152.84 117.33 152.34 116.38 151.45 116.10 C 150.56 115.82 149.61 116.32 149.33 117.21 Z M 149.04 118.14 L 148.74 119.11 C 148.46 120.00 148.95 120.95 149.84 121.23 C 150.73 121.51 151.68 121.01 151.96 120.12 L 152.27 119.15 C 152.55 118.26 152.05 117.31 151.16 117.03 C 150.27 116.75 149.32 117.24 149.04 118.14 Z M 148.73 119.13 L 148.43 120.15 C 148.16 121.04 148.67 121.98 149.56 122.25 C 150.46 122.52 151.40 122.01 151.66 121.11 L 151.97 120.10 C 152.23 119.20 151.73 118.26 150.83 118.00 C 149.94 117.73 149.00 118.24 148.73 119.13 Z M 148.41 120.18 L 148.16 121.12 C 147.91 122.02 148.44 122.95 149.34 123.20 C 150.24 123.45 151.17 122.92 151.42 122.02 L 151.68 121.08 C 151.93 120.18 151.40 119.25 150.49 119.00 C 149.59 118.75 148.66 119.28 148.41 120.18 Z M 148.14 121.15 L 147.89 122.12 C 147.66 123.03 148.21 123.96 149.12 124.19 C 150.04 124.42 150.96 123.87 151.19 122.96 L 151.44 121.99 C 151.67 121.07 151.12 120.15 150.21 119.92 C 149.30 119.68 148.37 120.24 148.14 121.15 Z M 147.87 122.15 L 147.64 123.13 C 147.43 124.06 148.00 124.98 148.92 125.19 C 149.84 125.41 150.76 124.84 150.98 123.92 L 151.21 122.93 C 151.43 122.01 150.86 121.09 149.93 120.87 C 149.01 120.65 148.09 121.22 147.87 122.15 Z M 147.63 123.16 L 147.41 124.15 C 147.21 125.08 147.80 126.00 148.73 126.20 C 149.66 126.40 150.58 125.81 150.78 124.88 L 151.00 123.89 C 151.20 122.96 150.61 122.04 149.67 121.84 C 148.74 121.64 147.83 122.23 147.63 123.16 Z M 147.40 124.18 L 147.20 125.17 C 147.02 126.11 147.63 127.02 148.57 127.20 C 149.50 127.39 150.41 126.78 150.60 125.84 L 150.79 124.85 C 150.98 123.92 150.37 123.01 149.43 122.82 C 148.49 122.64 147.58 123.25 147.40 124.18 Z M 147.20 125.20 L 147.02 126.18 C 146.86 127.12 147.48 128.02 148.42 128.19 C 149.36 128.36 150.26 127.73 150.43 126.79 L 150.60 125.81 C 150.77 124.87 150.14 123.97 149.20 123.80 C 148.26 123.64 147.37 124.26 147.20 125.20 Z M 147.02 126.22 L 146.86 127.20 C 146.71 128.14 147.36 129.02 148.30 129.17 C 149.24 129.32 150.13 128.68 150.28 127.74 L 150.43 126.76 C 150.58 125.82 149.94 124.93 149.00 124.78 C 148.06 124.63 147.17 125.27 147.02 126.22 Z M 146.86 127.23 L 146.72 128.22 C 146.59 129.16 147.25 130.04 148.19 130.17 C 149.13 130.30 150.01 129.64 150.14 128.70 L 150.28 127.71 C 150.41 126.76 149.75 125.89 148.81 125.76 C 147.87 125.62 146.99 126.28 146.86 127.23 Z M 146.72 128.25 L 146.60 129.17 C 146.49 130.12 147.16 130.98 148.10 131.10 C 149.05 131.21 149.91 130.54 150.03 129.59 L 150.14 128.67 C 150.26 127.72 149.59 126.86 148.64 126.75 C 147.70 126.63 146.83 127.30 146.72 128.25 Z M 146.60 129.20 L 146.51 130.07 C 146.41 131.02 147.09 131.87 148.04 131.97 C 148.99 132.07 149.84 131.39 149.94 130.44 L 150.03 129.57 C 150.13 128.62 149.45 127.77 148.50 127.67 C 147.55 127.57 146.70 128.25 146.60 129.20 Z M 146.51 130.10 L 146.43 131.03 C 146.34 131.98 147.04 132.82 147.99 132.90 C 148.93 132.99 149.77 132.29 149.85 131.34 L 149.94 130.41 C 150.02 129.47 149.32 128.63 148.38 128.54 C 147.43 128.46 146.59 129.16 146.51 130.10 Z M 146.43 131.06 L 146.35 132.07 C 146.28 133.02 147.00 133.84 147.94 133.91 C 148.89 133.98 149.71 133.27 149.78 132.32 L 149.85 131.31 C 149.92 130.37 149.21 129.54 148.26 129.47 C 147.32 129.41 146.49 130.12 146.43 131.06 Z M 146.35 132.10 L 146.29 133.22 C 146.24 134.16 146.96 134.97 147.91 135.03 C 148.85 135.08 149.66 134.36 149.72 133.41 L 149.78 132.29 C 149.83 131.35 149.11 130.54 148.16 130.48 C 147.22 130.43 146.41 131.15 146.35 132.10 Z M 146.29 133.24 L 146.25 134.33 C 146.20 135.27 146.94 136.07 147.88 136.11 C 148.83 136.15 149.63 135.42 149.67 134.47 L 149.71 133.39 C 149.75 132.44 149.02 131.64 148.08 131.60 C 147.13 131.56 146.33 132.29 146.29 133.24 Z M 146.25 134.34 L 146.22 135.28 C 146.18 136.22 146.92 137.01 147.87 137.04 C 148.81 137.08 149.60 136.34 149.63 135.39 L 149.66 134.46 C 149.70 133.51 148.96 132.72 148.01 132.69 C 147.07 132.66 146.28 133.40 146.25 134.34 Z M 146.22 135.29 L 146.19 136.28 C 146.17 137.22 146.91 138.00 147.85 138.03 C 148.79 138.05 149.57 137.31 149.60 136.37 L 149.63 135.38 C 149.65 134.44 148.91 133.66 147.97 133.63 C 147.03 133.61 146.25 134.35 146.22 135.29 Z M 146.20 136.28 L 146.17 137.30 C 146.15 138.24 146.90 139.02 147.83 139.04 C 148.77 139.06 149.55 138.32 149.57 137.38 L 149.60 136.36 C 149.62 135.42 148.87 134.64 147.94 134.62 C 147.00 134.60 146.22 135.34 146.20 136.28 Z M 146.18 137.31 L 146.16 138.35 C 146.14 139.28 146.88 140.06 147.82 140.08 C 148.76 140.09 149.53 139.35 149.55 138.41 L 149.57 137.37 C 149.59 136.44 148.84 135.66 147.91 135.65 C 146.97 135.63 146.19 136.37 146.18 137.31 Z M 146.16 138.35 L 146.14 139.39 C 146.13 140.33 146.88 141.10 147.81 141.11 C 148.75 141.13 149.52 140.38 149.53 139.44 L 149.55 138.41 C 149.56 137.47 148.82 136.70 147.88 136.69 C 146.94 136.67 146.18 137.42 146.16 138.35 Z M 146.15 139.40 L 146.14 140.42 C 146.12 141.36 146.87 142.12 147.80 142.13 C 148.74 142.15 149.50 141.40 149.51 140.47 L 149.53 139.44 C 149.54 138.51 148.79 137.74 147.86 137.73 C 146.93 137.72 146.16 138.46 146.15 139.40 Z M 146.14 140.43 L 146.13 141.44 C 146.12 142.37 146.87 143.14 147.80 143.14 C 148.73 143.15 149.49 142.41 149.50 141.48 L 149.51 140.46 C 149.52 139.53 148.77 138.77 147.84 138.76 C 146.91 138.75 146.15 139.50 146.14 140.43 Z M 146.14 141.45 L 146.13 142.61 C 146.12 143.54 146.87 144.30 147.79 144.31 C 148.72 144.31 149.48 143.57 149.48 142.64 L 149.49 141.47 C 149.50 140.55 148.75 139.79 147.83 139.78 C 146.90 139.77 146.14 140.52 146.14 141.45 Z M 146.14 142.62 L 146.13 143.72 C 146.13 144.64 146.87 145.39 147.79 145.39 C 148.71 145.40 149.46 144.66 149.47 143.74 L 149.47 142.64 C 149.48 141.72 148.74 140.97 147.81 140.96 C 146.89 140.96 146.14 141.70 146.14 142.62 Z M 146.14 143.72 L 146.14 144.75 C 146.14 145.66 146.88 146.41 147.79 146.41 C 148.71 146.42 149.45 145.68 149.45 144.76 L 149.46 143.73 C 149.46 142.82 148.72 142.07 147.81 142.07 C 146.89 142.07 146.15 142.81 146.14 143.72 Z M 146.15 144.75 L 146.15 145.71 C 146.15 146.62 146.88 147.36 147.79 147.36 C 148.70 147.36 149.44 146.62 149.44 145.72 L 149.44 144.76 C 149.44 143.85 148.71 143.11 147.80 143.11 C 146.89 143.11 146.15 143.84 146.15 144.75 Z M 146.16 145.71 L 146.16 146.59 C 146.16 147.50 146.89 148.23 147.79 148.23 C 148.70 148.23 149.43 147.50 149.43 146.60 L 149.43 145.71 C 149.43 144.81 148.70 144.08 147.80 144.08 C 146.89 144.08 146.16 144.81 146.16 145.71 Z M 146.17 146.60 L 146.17 147.48 C 146.17 148.37 146.90 149.10 147.79 149.10 C 148.69 149.10 149.42 148.37 149.42 147.48 L 149.42 146.60 C 149.42 145.70 148.69 144.97 147.79 144.97 C 146.90 144.97 146.17 145.70 146.17 146.60 Z M 146.18 147.48 L 146.18 148.60 C 146.18 149.49 146.90 150.22 147.79 150.22 C 148.69 150.22 149.41 149.49 149.41 148.60 L 149.41 147.48 C 149.41 146.58 148.69 145.86 147.79 145.86 C 146.90 145.86 146.18 146.58 146.18 147.48 Z M 146.18 148.60 L 146.18 149.59 C 146.18 150.48 146.90 151.20 147.79 151.20 C 148.68 151.20 149.40 150.48 149.40 149.59 L 149.40 148.60 C 149.40 147.71 148.68 146.99 147.79 146.99 C 146.90 146.99 146.18 147.71 146.18 148.60 Z M 146.19 149.59 L 146.19 150.51 C 146.19 151.39 146.91 152.11 147.79 152.11 C 148.68 152.11 149.40 151.39 149.40 150.51 L 149.40 149.59 C 149.40 148.71 148.68 147.99 147.79 147.99 C 146.91 147.99 146.19 148.71 146.19 149.59 Z M 146.20 150.51 L 146.20 151.43 C 146.20 152.31 146.91 153.03 147.79 153.03 C 148.68 153.03 149.39 152.31 149.39 151.43 L 149.39 150.51 C 149.39 149.63 148.67 148.91 147.79 148.91 C 146.91 148.91 146.20 149.63 146.20 150.51 Z M 146.20 151.44 L 146.20 152.42 C 146.20 153.30 146.92 154.01 147.80 154.01 C 148.68 154.01 149.39 153.29 149.39 152.42 L 149.39 151.43 C 149.38 150.55 148.67 149.84 147.79 149.84 C 146.91 149.84 146.20 150.56 146.20 151.44 Z M 146.21 152.43 L 146.21 153.43 C 146.22 154.31 146.93 155.01 147.81 155.01 C 148.69 155.00 149.40 154.28 149.39 153.41 L 149.38 152.41 C 149.38 151.53 148.66 150.82 147.78 150.83 C 146.91 150.83 146.20 151.55 146.21 152.43 Z M 146.22 153.44 L 146.23 154.46 C 146.24 155.34 146.96 156.04 147.84 156.02 C 148.71 156.01 149.41 155.29 149.40 154.42 L 149.39 153.39 C 149.37 152.52 148.65 151.82 147.78 151.83 C 146.90 151.84 146.20 152.56 146.22 153.44 Z M 146.23 154.48 L 146.25 155.37 C 146.28 156.25 147.00 156.94 147.88 156.92 C 148.75 156.90 149.44 156.17 149.42 155.30 L 149.40 154.40 C 149.38 153.53 148.65 152.83 147.78 152.86 C 146.90 152.88 146.21 153.60 146.23 154.48 Z M 146.26 155.39 L 146.29 156.34 C 146.32 157.21 147.06 157.89 147.93 157.86 C 148.80 157.83 149.48 157.10 149.45 156.22 L 149.42 155.28 C 149.39 154.40 148.65 153.72 147.78 153.75 C 146.91 153.79 146.23 154.52 146.26 155.39 Z M 146.30 156.36 L 146.35 157.38 C 146.39 158.25 147.13 158.93 148.00 158.88 C 148.87 158.84 149.54 158.10 149.50 157.23 L 149.45 156.20 C 149.40 155.33 148.66 154.66 147.79 154.70 C 146.92 154.75 146.25 155.49 146.30 156.36 Z M 146.35 157.41 L 146.42 158.53 C 146.48 159.40 147.22 160.06 148.09 160.01 C 148.96 159.95 149.62 159.20 149.56 158.34 L 149.49 157.21 C 149.44 156.34 148.69 155.68 147.82 155.74 C 146.96 155.79 146.30 156.54 146.35 157.41 Z M 146.43 158.55 L 146.49 159.49 C 146.56 160.35 147.31 161.00 148.18 160.94 C 149.05 160.87 149.70 160.12 149.63 159.25 L 149.56 158.32 C 149.50 157.45 148.74 156.80 147.88 156.87 C 147.01 156.93 146.36 157.69 146.43 158.55 Z M 146.50 159.50 L 146.58 160.49 C 146.65 161.35 147.41 161.99 148.28 161.92 C 149.14 161.85 149.78 161.09 149.71 160.23 L 149.63 159.24 C 149.56 158.37 148.80 157.73 147.93 157.80 C 147.07 157.88 146.42 158.64 146.50 159.50 Z M 146.58 160.50 L 146.68 161.52 C 146.76 162.38 147.52 163.02 148.39 162.94 C 149.25 162.86 149.88 162.09 149.80 161.23 L 149.71 160.21 C 149.63 159.35 148.86 158.71 148.00 158.79 C 147.14 158.87 146.50 159.64 146.58 160.50 Z M 146.68 161.54 L 146.79 162.56 C 146.88 163.42 147.65 164.05 148.51 163.96 C 149.37 163.87 150.00 163.10 149.91 162.24 L 149.80 161.21 C 149.71 160.35 148.94 159.72 148.08 159.81 C 147.22 159.90 146.59 160.67 146.68 161.54 Z M 146.79 162.58 L 146.91 163.59 C 147.01 164.45 147.78 165.07 148.64 164.97 C 149.50 164.87 150.12 164.09 150.02 163.23 L 149.90 162.22 C 149.80 161.36 149.03 160.74 148.17 160.84 C 147.31 160.94 146.69 161.72 146.79 162.58 Z M 146.91 163.62 L 147.05 164.69 C 147.16 165.54 147.95 166.15 148.81 166.04 C 149.66 165.92 150.27 165.14 150.16 164.28 L 150.02 163.21 C 149.91 162.35 149.12 161.75 148.26 161.86 C 147.40 161.97 146.80 162.76 146.91 163.62 Z M 147.06 164.71 L 147.21 165.77 C 147.34 166.62 148.13 167.21 148.99 167.09 C 149.84 166.96 150.43 166.17 150.31 165.31 L 150.15 164.26 C 150.03 163.40 149.23 162.81 148.38 162.94 C 147.52 163.06 146.93 163.86 147.06 164.71 Z M 147.22 165.80 L 147.38 166.79 C 147.53 167.64 148.33 168.22 149.18 168.08 C 150.03 167.94 150.61 167.13 150.47 166.28 L 150.30 165.28 C 150.16 164.43 149.35 163.86 148.50 164.00 C 147.65 164.14 147.08 164.94 147.22 165.80 Z M 147.39 166.82 L 147.56 167.76 C 147.72 168.60 148.54 169.16 149.39 169.01 C 150.24 168.85 150.79 168.03 150.64 167.18 L 150.46 166.25 C 150.30 165.40 149.49 164.84 148.64 165.00 C 147.79 165.16 147.23 165.97 147.39 166.82 Z M 147.57 167.79 L 147.76 168.69 C 147.94 169.53 148.76 170.07 149.61 169.90 C 150.45 169.72 150.99 168.89 150.82 168.05 L 150.63 167.15 C 150.45 166.30 149.62 165.76 148.78 165.94 C 147.94 166.12 147.39 166.95 147.57 167.79 Z M 147.78 168.76 L 148.12 170.10 C 148.34 170.94 149.19 171.44 150.02 171.23 C 150.86 171.01 151.36 170.16 151.15 169.32 L 150.80 167.98 C 150.59 167.14 149.73 166.64 148.90 166.86 C 148.06 167.07 147.56 167.92 147.78 168.76 Z M 148.25 170.44 L 148.56 171.02 C 148.96 171.78 149.90 172.08 150.67 171.67 C 151.43 171.27 151.72 170.33 151.32 169.57 L 151.02 168.99 C 150.61 168.22 149.67 167.93 148.91 168.33 C 148.14 168.73 147.85 169.68 148.25 170.44 Z M 151.36 170.93 L 151.53 170.57 C 151.88 169.78 151.53 168.86 150.75 168.50 C 149.96 168.15 149.04 168.50 148.68 169.28 L 148.52 169.65 C 148.16 170.44 148.51 171.36 149.30 171.72 C 150.08 172.07 151.01 171.72 151.36 170.93 Z M 151.66 170.10 L 151.74 169.38 C 151.83 168.52 151.21 167.75 150.36 167.65 C 149.50 167.56 148.73 168.18 148.63 169.03 L 148.55 169.75 C 148.46 170.61 149.08 171.38 149.93 171.48 C 150.79 171.57 151.56 170.95 151.66 170.10 Z M 151.74 169.29 L 151.80 168.28 C 151.85 167.42 151.19 166.69 150.33 166.64 C 149.47 166.59 148.73 167.25 148.68 168.11 L 148.63 169.12 C 148.58 169.98 149.24 170.72 150.10 170.76 C 150.96 170.81 151.70 170.15 151.74 169.29 Z M 151.80 168.25 L 151.84 167.04 C 151.87 166.18 151.19 165.46 150.33 165.43 C 149.47 165.41 148.75 166.08 148.72 166.94 L 148.68 168.15 C 148.65 169.01 149.33 169.73 150.19 169.76 C 151.05 169.79 151.77 169.11 151.80 168.25 Z M 151.84 167.03 L 151.87 165.72 C 151.89 164.86 151.21 164.14 150.35 164.12 C 149.48 164.10 148.77 164.79 148.75 165.65 L 148.72 166.96 C 148.70 167.82 149.38 168.53 150.24 168.55 C 151.10 168.57 151.82 167.89 151.84 167.03 Z M 151.87 165.72 L 151.87 165.53 C 151.89 164.67 151.21 163.96 150.35 163.94 C 149.48 163.92 148.77 164.60 148.75 165.46 L 148.75 165.65 C 148.73 166.51 149.41 167.23 150.28 167.25 C 151.14 167.26 151.85 166.58 151.87 165.72 Z"
      fill="black"
      fill-rule="nonzero" /><path d="M 149.22 116.64 L 149.11 115.56 C 149.01 114.63 148.18 113.95 147.25 114.05 C 146.31 114.14 145.64 114.98 145.73 115.91 L 145.84 116.98 C 145.94 117.92 146.77 118.59 147.70 118.50 C 148.63 118.40 149.31 117.57 149.22 116.64 Z M 149.13 115.75 L 149.14 114.75 C 149.15 113.81 148.39 113.03 147.45 113.02 C 146.50 113.01 145.73 113.77 145.72 114.71 L 145.71 115.72 C 145.70 116.66 146.46 117.43 147.40 117.44 C 148.34 117.45 149.12 116.70 149.13 115.75 Z M 149.08 115.21 L 149.33 114.35 C 149.60 113.44 149.08 112.48 148.16 112.22 C 147.25 111.95 146.30 112.47 146.03 113.38 L 145.78 114.25 C 145.51 115.16 146.04 116.11 146.95 116.38 C 147.86 116.65 148.81 116.12 149.08 115.21 Z M 148.99 114.99 L 149.56 114.33 C 150.18 113.60 150.09 112.51 149.37 111.89 C 148.65 111.27 147.56 111.36 146.94 112.08 L 146.37 112.75 C 145.75 113.47 145.84 114.56 146.56 115.18 C 147.29 115.80 148.37 115.71 148.99 114.99 Z M 149.19 114.66 L 150.01 114.13 C 150.81 113.61 151.04 112.54 150.53 111.73 C 150.01 110.93 148.93 110.70 148.13 111.22 L 147.31 111.75 C 146.51 112.27 146.27 113.34 146.79 114.14 C 147.31 114.95 148.39 115.18 149.19 114.66 Z M 149.84 114.23 L 150.82 113.75 C 151.68 113.33 152.03 112.29 151.61 111.43 C 151.19 110.57 150.15 110.21 149.29 110.63 L 148.31 111.11 C 147.45 111.53 147.09 112.57 147.51 113.44 C 147.93 114.30 148.97 114.65 149.84 114.23 Z M 150.80 113.76 L 151.71 113.33 C 152.57 112.92 152.94 111.88 152.53 111.02 C 152.12 110.15 151.08 109.78 150.21 110.19 L 149.31 110.62 C 148.44 111.03 148.07 112.07 148.48 112.94 C 148.89 113.81 149.93 114.18 150.80 113.76 Z M 151.72 113.33 L 152.62 112.89 C 153.48 112.47 153.84 111.42 153.42 110.56 C 153.00 109.70 151.95 109.34 151.09 109.76 L 150.19 110.20 C 149.33 110.62 148.97 111.66 149.39 112.53 C 149.82 113.39 150.86 113.75 151.72 113.33 Z M 152.63 112.88 L 153.54 112.43 C 154.40 112.00 154.75 110.95 154.32 110.09 C 153.89 109.23 152.84 108.88 151.98 109.31 L 151.08 109.76 C 150.21 110.20 149.87 111.24 150.30 112.10 C 150.73 112.96 151.77 113.31 152.63 112.88 Z M 153.55 112.43 L 154.45 111.97 C 155.31 111.54 155.65 110.49 155.21 109.63 C 154.78 108.77 153.73 108.43 152.87 108.86 L 151.97 109.32 C 151.11 109.75 150.77 110.80 151.20 111.66 C 151.64 112.52 152.69 112.86 153.55 112.43 Z M 154.45 111.97 L 155.25 111.56 C 156.11 111.12 156.45 110.07 156.01 109.22 C 155.57 108.36 154.52 108.02 153.66 108.46 L 152.86 108.86 C 152.01 109.30 151.67 110.35 152.10 111.21 C 152.54 112.07 153.59 112.41 154.45 111.97 Z M 155.24 111.57 L 156.07 111.14 C 156.93 110.71 157.28 109.66 156.84 108.80 C 156.40 107.94 155.35 107.60 154.49 108.03 L 153.66 108.45 C 152.81 108.89 152.46 109.94 152.90 110.80 C 153.33 111.66 154.38 112.00 155.24 111.57 Z M 156.06 111.15 L 156.96 110.70 C 157.83 110.27 158.18 109.23 157.75 108.36 C 157.32 107.50 156.27 107.15 155.41 107.58 L 154.51 108.03 C 153.64 108.46 153.29 109.50 153.72 110.37 C 154.15 111.23 155.20 111.58 156.06 111.15 Z M 156.95 110.71 L 157.96 110.22 C 158.83 109.80 159.19 108.76 158.77 107.89 C 158.36 107.02 157.31 106.66 156.44 107.08 L 155.43 107.57 C 154.56 107.99 154.20 109.03 154.62 109.90 C 155.04 110.77 156.08 111.13 156.95 110.71 Z M 157.95 110.23 L 158.83 109.81 C 159.70 109.40 160.08 108.36 159.67 107.49 C 159.26 106.62 158.22 106.24 157.35 106.65 L 156.46 107.07 C 155.59 107.48 155.22 108.52 155.62 109.39 C 156.03 110.26 157.07 110.64 157.95 110.23 Z M 158.82 109.82 L 159.71 109.41 C 160.58 109.01 160.97 107.97 160.56 107.09 C 160.16 106.22 159.13 105.84 158.25 106.24 L 157.36 106.65 C 156.49 107.05 156.10 108.09 156.51 108.96 C 156.91 109.84 157.94 110.22 158.82 109.82 Z M 159.70 109.41 L 160.63 108.99 C 161.50 108.59 161.89 107.56 161.50 106.69 C 161.10 105.81 160.07 105.42 159.19 105.82 L 158.26 106.24 C 157.38 106.63 156.99 107.66 157.39 108.54 C 157.79 109.42 158.82 109.81 159.70 109.41 Z M 160.62 108.99 L 161.57 108.57 C 162.44 108.18 162.84 107.15 162.45 106.27 C 162.06 105.39 161.03 105.00 160.15 105.39 L 159.20 105.81 C 158.32 106.20 157.93 107.23 158.32 108.11 C 158.71 108.99 159.74 109.39 160.62 108.99 Z M 161.56 108.58 L 162.50 108.16 C 163.38 107.78 163.78 106.75 163.40 105.87 C 163.01 104.99 161.99 104.59 161.10 104.97 L 160.16 105.39 C 159.28 105.77 158.88 106.80 159.26 107.68 C 159.65 108.56 160.68 108.96 161.56 108.58 Z M 162.49 108.17 L 163.41 107.77 C 164.29 107.39 164.70 106.37 164.32 105.48 C 163.94 104.60 162.92 104.19 162.03 104.57 L 161.11 104.97 C 160.23 105.35 159.82 106.37 160.20 107.26 C 160.58 108.14 161.61 108.55 162.49 108.17 Z M 163.40 107.77 L 164.39 107.35 C 165.28 106.98 165.69 105.96 165.32 105.08 C 164.95 104.19 163.93 103.78 163.04 104.15 L 162.05 104.57 C 161.16 104.94 160.75 105.96 161.12 106.85 C 161.49 107.73 162.51 108.15 163.40 107.77 Z M 164.37 107.36 L 165.33 106.97 C 166.22 106.61 166.65 105.59 166.29 104.70 C 165.92 103.82 164.91 103.39 164.02 103.75 L 163.06 104.14 C 162.17 104.51 161.75 105.52 162.11 106.41 C 162.47 107.30 163.48 107.72 164.37 107.36 Z M 165.31 106.97 L 166.23 106.61 C 167.12 106.26 167.56 105.26 167.21 104.37 C 166.86 103.47 165.86 103.03 164.97 103.38 L 164.04 103.74 C 163.15 104.09 162.71 105.10 163.06 105.99 C 163.41 106.88 164.42 107.32 165.31 106.97 Z M 166.20 106.62 L 167.10 106.29 C 168.00 105.95 168.45 104.96 168.12 104.06 C 167.79 103.16 166.79 102.71 165.89 103.04 L 164.99 103.38 C 164.10 103.71 163.64 104.71 163.97 105.60 C 164.31 106.50 165.31 106.96 166.20 106.62 Z M 167.07 106.30 L 167.96 105.98 C 168.86 105.67 169.34 104.68 169.02 103.78 C 168.71 102.88 167.72 102.40 166.82 102.72 L 165.92 103.03 C 165.02 103.35 164.55 104.34 164.86 105.24 C 165.18 106.14 166.17 106.61 167.07 106.30 Z M 167.93 105.99 L 168.88 105.68 C 169.79 105.38 170.29 104.41 169.99 103.50 C 169.69 102.59 168.72 102.10 167.81 102.40 L 166.85 102.71 C 165.94 103.01 165.45 103.98 165.75 104.89 C 166.04 105.80 167.02 106.29 167.93 105.99 Z M 168.85 105.69 L 169.83 105.39 C 170.74 105.12 171.26 104.15 170.98 103.24 C 170.71 102.33 169.74 101.81 168.83 102.09 L 167.85 102.39 C 166.93 102.66 166.42 103.63 166.69 104.54 C 166.97 105.45 167.93 105.97 168.85 105.69 Z M 169.79 105.40 L 170.77 105.13 C 171.69 104.88 172.23 103.93 171.97 103.01 C 171.72 102.09 170.77 101.55 169.85 101.81 L 168.87 102.08 C 167.95 102.33 167.41 103.28 167.67 104.20 C 167.92 105.12 168.87 105.66 169.79 105.40 Z M 170.73 105.14 L 171.68 104.90 C 172.61 104.67 173.17 103.74 172.94 102.81 C 172.71 101.89 171.77 101.33 170.85 101.56 L 169.89 101.80 C 168.97 102.03 168.40 102.96 168.63 103.89 C 168.87 104.81 169.80 105.37 170.73 105.14 Z M 171.63 104.91 L 172.57 104.71 C 173.50 104.51 174.08 103.59 173.88 102.66 C 173.68 101.73 172.76 101.14 171.83 101.34 L 170.90 101.55 C 169.97 101.75 169.38 102.67 169.58 103.60 C 169.79 104.53 170.70 105.12 171.63 104.91 Z M 172.50 104.72 L 173.57 104.53 C 174.51 104.36 175.13 103.47 174.96 102.53 C 174.79 101.59 173.90 100.97 172.96 101.14 L 171.89 101.33 C 170.96 101.50 170.33 102.40 170.50 103.33 C 170.67 104.27 171.57 104.89 172.50 104.72 Z M 173.50 104.54 L 174.51 104.40 C 175.45 104.27 176.11 103.40 175.98 102.46 C 175.85 101.52 174.98 100.86 174.04 100.99 L 173.03 101.13 C 172.09 101.26 171.43 102.13 171.56 103.07 C 171.69 104.01 172.56 104.67 173.50 104.54 Z M 174.44 104.41 L 175.40 104.31 C 176.34 104.22 177.03 103.38 176.94 102.43 C 176.85 101.48 176.00 100.79 175.06 100.89 L 174.10 100.98 C 173.16 101.08 172.46 101.92 172.56 102.87 C 172.65 103.81 173.50 104.50 174.44 104.41 Z M 175.34 104.32 L 176.28 104.26 C 177.23 104.19 177.95 103.37 177.89 102.42 C 177.83 101.48 177.01 100.76 176.06 100.82 L 175.11 100.88 C 174.16 100.94 173.45 101.76 173.51 102.71 C 173.57 103.66 174.39 104.38 175.34 104.32 Z M 176.20 104.26 L 177.23 104.24 C 178.18 104.22 178.94 103.43 178.92 102.48 C 178.90 101.53 178.12 100.78 177.17 100.80 L 176.14 100.82 C 175.19 100.83 174.43 101.62 174.45 102.57 C 174.47 103.52 175.25 104.28 176.20 104.26 Z M 177.06 104.23 L 178.04 104.31 C 178.99 104.39 179.82 103.68 179.90 102.73 C 179.97 101.79 179.27 100.96 178.32 100.88 L 177.34 100.80 C 176.39 100.73 175.56 101.43 175.48 102.38 C 175.41 103.33 176.11 104.16 177.06 104.23 Z M 177.78 104.27 L 178.72 104.50 C 179.64 104.72 180.57 104.15 180.80 103.23 C 181.02 102.31 180.45 101.38 179.53 101.15 L 178.59 100.92 C 177.66 100.70 176.73 101.27 176.51 102.19 C 176.28 103.11 176.85 104.05 177.78 104.27 Z M 178.41 104.39 L 179.26 104.78 C 180.13 105.18 181.15 104.80 181.54 103.93 C 181.94 103.07 181.56 102.05 180.70 101.65 L 179.84 101.26 C 178.98 100.86 177.95 101.24 177.56 102.11 C 177.16 102.97 177.54 103.99 178.41 104.39 Z M 179.00 104.63 L 179.81 105.19 C 180.59 105.73 181.66 105.54 182.20 104.76 C 182.74 103.98 182.55 102.91 181.77 102.36 L 180.96 101.80 C 180.18 101.26 179.11 101.45 178.57 102.24 C 178.02 103.02 178.22 104.09 179.00 104.63 Z M 179.60 105.02 L 180.34 105.74 C 181.03 106.39 182.12 106.37 182.78 105.68 C 183.44 105.00 183.41 103.91 182.73 103.25 L 181.98 102.53 C 181.29 101.88 180.20 101.90 179.54 102.59 C 178.89 103.27 178.91 104.36 179.60 105.02 Z M 180.19 105.57 L 180.80 106.33 C 181.39 107.07 182.47 107.19 183.22 106.60 C 183.96 106.01 184.08 104.93 183.49 104.18 L 182.88 103.42 C 182.29 102.68 181.20 102.56 180.46 103.15 C 179.72 103.74 179.60 104.82 180.19 105.57 Z M 180.69 106.18 L 181.19 106.96 C 181.70 107.76 182.76 108.00 183.56 107.49 C 184.36 106.98 184.60 105.92 184.09 105.12 L 183.60 104.33 C 183.09 103.53 182.02 103.29 181.22 103.80 C 180.42 104.31 180.18 105.38 180.69 106.18 Z M 181.11 106.83 L 181.57 107.70 C 182.00 108.55 183.04 108.88 183.88 108.44 C 184.73 108.00 185.06 106.97 184.62 106.12 L 184.17 105.25 C 183.73 104.40 182.69 104.07 181.85 104.51 C 181.01 104.95 180.68 105.98 181.11 106.83 Z M 181.51 107.59 L 181.93 108.56 C 182.30 109.43 183.31 109.84 184.18 109.47 C 185.05 109.09 185.46 108.09 185.09 107.21 L 184.67 106.24 C 184.30 105.37 183.29 104.96 182.42 105.33 C 181.55 105.70 181.14 106.71 181.51 107.59 Z M 181.89 108.46 L 182.25 109.48 C 182.57 110.37 183.55 110.84 184.45 110.52 C 185.34 110.20 185.81 109.22 185.49 108.33 L 185.12 107.31 C 184.80 106.42 183.82 105.95 182.93 106.27 C 182.04 106.59 181.57 107.57 181.89 108.46 Z M 182.23 109.41 L 182.53 110.37 C 182.81 111.28 183.77 111.78 184.67 111.50 C 185.58 111.22 186.08 110.26 185.81 109.36 L 185.51 108.40 C 185.23 107.49 184.27 106.99 183.36 107.27 C 182.46 107.55 181.95 108.51 182.23 109.41 Z M 182.51 110.32 L 182.79 111.31 C 183.04 112.23 183.99 112.76 184.90 112.51 C 185.81 112.26 186.34 111.31 186.09 110.40 L 185.82 109.41 C 185.57 108.50 184.62 107.96 183.71 108.21 C 182.80 108.47 182.26 109.41 182.51 110.32 Z M 182.78 111.28 L 183.03 112.27 C 183.26 113.19 184.20 113.74 185.11 113.51 C 186.03 113.28 186.58 112.35 186.35 111.43 L 186.10 110.44 C 185.87 109.52 184.94 108.97 184.02 109.20 C 183.10 109.43 182.55 110.36 182.78 111.28 Z M 183.03 112.24 L 183.26 113.21 C 183.47 114.13 184.39 114.70 185.31 114.48 C 186.23 114.27 186.80 113.35 186.59 112.43 L 186.36 111.46 C 186.14 110.54 185.22 109.97 184.30 110.19 C 183.38 110.40 182.81 111.33 183.03 112.24 Z M 183.25 113.19 L 183.47 114.15 C 183.67 115.07 184.59 115.65 185.51 115.45 C 186.43 115.24 187.01 114.33 186.80 113.41 L 186.59 112.45 C 186.38 111.53 185.47 110.95 184.55 111.15 C 183.63 111.36 183.05 112.27 183.25 113.19 Z M 183.46 114.13 L 183.69 115.18 C 183.88 116.10 184.79 116.69 185.71 116.49 C 186.63 116.29 187.22 115.39 187.03 114.46 L 186.80 113.42 C 186.61 112.50 185.70 111.91 184.78 112.11 C 183.86 112.30 183.27 113.21 183.46 114.13 Z M 183.68 115.16 L 183.88 116.12 C 184.07 117.05 184.97 117.65 185.89 117.46 C 186.81 117.27 187.41 116.37 187.22 115.45 L 187.03 114.48 C 186.84 113.56 185.94 112.96 185.02 113.15 C 184.09 113.34 183.50 114.24 183.68 115.16 Z M 183.88 116.11 L 184.06 117.05 C 184.24 117.97 185.14 118.57 186.06 118.39 C 186.98 118.21 187.59 117.32 187.41 116.39 L 187.23 115.46 C 187.05 114.54 186.15 113.93 185.23 114.11 C 184.30 114.29 183.70 115.19 183.88 116.11 Z M 184.06 117.04 L 184.24 117.98 C 184.42 118.90 185.31 119.51 186.23 119.33 C 187.16 119.16 187.76 118.27 187.59 117.34 L 187.41 116.40 C 187.23 115.48 186.34 114.87 185.42 115.05 C 184.49 115.22 183.88 116.11 184.06 117.04 Z M 184.24 117.97 L 184.42 118.93 C 184.59 119.86 185.48 120.47 186.41 120.29 C 187.33 120.12 187.94 119.23 187.77 118.31 L 187.59 117.35 C 187.41 116.42 186.52 115.82 185.60 115.99 C 184.68 116.16 184.07 117.05 184.24 117.97 Z M 184.42 118.92 L 184.60 119.91 C 184.77 120.84 185.65 121.45 186.57 121.28 C 187.50 121.12 188.11 120.23 187.94 119.31 L 187.77 118.32 C 187.60 117.40 186.71 116.78 185.79 116.95 C 184.87 117.12 184.25 118.00 184.42 118.92 Z M 184.60 119.89 L 184.77 120.90 C 184.92 121.82 185.80 122.44 186.73 122.29 C 187.65 122.13 188.27 121.25 188.12 120.33 L 187.95 119.33 C 187.79 118.40 186.91 117.78 185.99 117.94 C 185.06 118.09 184.44 118.97 184.60 119.89 Z M 184.76 120.87 L 184.92 121.87 C 185.06 122.80 185.93 123.43 186.85 123.29 C 187.78 123.15 188.41 122.28 188.27 121.36 L 188.12 120.35 C 187.98 119.43 187.11 118.79 186.18 118.93 C 185.26 119.08 184.62 119.94 184.76 120.87 Z M 184.91 121.84 L 185.05 122.83 C 185.17 123.76 186.03 124.41 186.95 124.28 C 187.88 124.16 188.53 123.31 188.41 122.38 L 188.28 121.39 C 188.15 120.46 187.30 119.81 186.37 119.93 C 185.44 120.06 184.79 120.91 184.91 121.84 Z M 185.05 122.80 L 185.16 123.79 C 185.27 124.72 186.12 125.38 187.05 125.27 C 187.98 125.16 188.64 124.32 188.53 123.39 L 188.41 122.40 C 188.30 121.47 187.46 120.81 186.53 120.92 C 185.60 121.03 184.93 121.88 185.05 122.80 Z M 185.16 123.78 L 185.27 124.77 C 185.38 125.70 186.21 126.37 187.14 126.26 C 188.07 126.16 188.74 125.32 188.64 124.39 L 188.53 123.40 C 188.43 122.47 187.59 121.80 186.66 121.91 C 185.73 122.01 185.06 122.85 185.16 123.78 Z M 185.27 124.76 L 185.38 125.77 C 185.48 126.70 186.32 127.37 187.25 127.27 C 188.18 127.16 188.85 126.33 188.75 125.40 L 188.64 124.40 C 188.54 123.47 187.70 122.80 186.77 122.90 C 185.84 123.00 185.17 123.83 185.27 124.76 Z M 185.38 125.77 L 185.49 126.74 C 185.60 127.67 186.44 128.34 187.36 128.23 C 188.29 128.13 188.96 127.29 188.86 126.36 L 188.75 125.39 C 188.64 124.46 187.80 123.80 186.88 123.90 C 185.95 124.01 185.28 124.84 185.38 125.77 Z M 185.49 126.75 L 185.61 127.73 C 185.71 128.66 186.55 129.33 187.48 129.22 C 188.41 129.11 189.08 128.27 188.97 127.35 L 188.86 126.36 C 188.75 125.43 187.91 124.77 186.98 124.87 C 186.05 124.98 185.39 125.82 185.49 126.75 Z M 185.61 127.73 L 185.72 128.73 C 185.83 129.66 186.66 130.32 187.59 130.22 C 188.52 130.11 189.19 129.27 189.08 128.35 L 188.97 127.35 C 188.86 126.42 188.02 125.75 187.10 125.86 C 186.17 125.96 185.50 126.80 185.61 127.73 Z M 185.72 128.72 L 185.83 129.73 C 185.93 130.66 186.77 131.33 187.70 131.23 C 188.63 131.13 189.30 130.29 189.19 129.36 L 189.08 128.35 C 188.98 127.42 188.14 126.76 187.22 126.86 C 186.29 126.96 185.62 127.79 185.72 128.72 Z M 185.83 129.72 L 185.94 130.72 C 186.03 131.65 186.86 132.32 187.79 132.23 C 188.72 132.13 189.39 131.30 189.30 130.37 L 189.19 129.37 C 189.10 128.45 188.27 127.77 187.34 127.87 C 186.41 127.96 185.74 128.80 185.83 129.72 Z M 185.94 130.71 L 186.03 131.70 C 186.12 132.63 186.95 133.31 187.88 133.22 C 188.81 133.13 189.48 132.30 189.39 131.37 L 189.30 130.38 C 189.21 129.45 188.38 128.77 187.45 128.86 C 186.52 128.96 185.84 129.78 185.94 130.71 Z M 186.03 131.69 L 186.12 132.68 C 186.21 133.61 187.03 134.30 187.96 134.21 C 188.89 134.12 189.57 133.30 189.49 132.37 L 189.39 131.38 C 189.31 130.45 188.49 129.77 187.56 129.85 C 186.63 129.94 185.95 130.76 186.03 131.69 Z M 186.12 132.68 L 186.21 133.68 C 186.30 134.61 187.12 135.29 188.04 135.21 C 188.97 135.13 189.66 134.31 189.58 133.38 L 189.49 132.38 C 189.40 131.45 188.58 130.76 187.66 130.85 C 186.73 130.93 186.04 131.75 186.12 132.68 Z M 186.21 133.68 L 186.30 134.68 C 186.38 135.61 187.20 136.30 188.13 136.22 C 189.06 136.14 189.74 135.32 189.66 134.39 L 189.58 133.38 C 189.49 132.45 188.68 131.77 187.75 131.85 C 186.82 131.93 186.13 132.75 186.21 133.68 Z M 186.30 134.68 L 186.39 135.68 C 186.47 136.60 187.29 137.29 188.21 137.21 C 189.14 137.13 189.83 136.31 189.75 135.39 L 189.66 134.39 C 189.58 133.46 188.76 132.78 187.84 132.86 C 186.91 132.94 186.22 133.75 186.30 134.68 Z M 186.39 135.68 L 186.48 136.67 C 186.56 137.60 187.37 138.29 188.30 138.21 C 189.23 138.13 189.91 137.31 189.83 136.38 L 189.75 135.39 C 189.67 134.46 188.85 133.77 187.92 133.85 C 187.00 133.93 186.31 134.75 186.39 135.68 Z M 186.48 136.67 L 186.56 137.67 C 186.64 138.60 187.46 139.29 188.39 139.21 C 189.31 139.13 190.00 138.31 189.92 137.38 L 189.83 136.38 C 189.75 135.46 188.94 134.77 188.01 134.85 C 187.08 134.93 186.40 135.75 186.48 136.67 Z M 186.56 137.67 L 186.65 138.67 C 186.73 139.60 187.55 140.28 188.47 140.20 C 189.40 140.12 190.09 139.31 190.01 138.38 L 189.92 137.38 C 189.84 136.46 189.02 135.77 188.10 135.85 C 187.17 135.93 186.48 136.75 186.56 137.67 Z M 186.65 138.67 L 186.74 139.66 C 186.82 140.59 187.63 141.27 188.56 141.19 C 189.49 141.11 190.17 140.29 190.09 139.37 L 190.00 138.38 C 189.92 137.45 189.11 136.77 188.18 136.85 C 187.26 136.93 186.57 137.74 186.65 138.67 Z M 186.74 139.66 L 186.82 140.64 C 186.90 141.57 187.72 142.25 188.64 142.17 C 189.57 142.09 190.26 141.28 190.18 140.35 L 190.09 139.37 C 190.01 138.44 189.19 137.76 188.27 137.84 C 187.34 137.92 186.66 138.73 186.74 139.66 Z M 186.82 140.64 L 186.91 141.63 C 186.99 142.56 187.80 143.24 188.73 143.16 C 189.66 143.08 190.34 142.27 190.26 141.34 L 190.17 140.35 C 190.09 139.43 189.28 138.74 188.35 138.82 C 187.43 138.90 186.74 139.72 186.82 140.64 Z M 186.91 141.63 L 187.00 142.63 C 187.07 143.55 187.89 144.24 188.81 144.16 C 189.74 144.08 190.43 143.26 190.35 142.34 L 190.26 141.34 C 190.18 140.42 189.37 139.73 188.44 139.81 C 187.52 139.89 186.83 140.70 186.91 141.63 Z M 187.00 142.62 L 187.08 143.64 C 187.16 144.56 187.97 145.25 188.90 145.17 C 189.82 145.09 190.51 144.28 190.43 143.36 L 190.35 142.34 C 190.27 141.42 189.45 140.73 188.53 140.81 C 187.60 140.89 186.92 141.70 187.00 142.62 Z M 187.08 143.64 L 187.17 144.64 C 187.24 145.57 188.05 146.25 188.98 146.18 C 189.90 146.10 190.59 145.29 190.51 144.36 L 190.43 143.36 C 190.35 142.43 189.54 141.75 188.62 141.82 C 187.69 141.90 187.01 142.71 187.08 143.64 Z M 187.17 144.64 L 187.25 145.65 C 187.32 146.57 188.14 147.26 189.06 147.19 C 189.98 147.11 190.67 146.30 190.60 145.38 L 190.51 144.37 C 190.44 143.44 189.63 142.75 188.70 142.83 C 187.78 142.90 187.09 143.72 187.17 144.64 Z M 187.25 145.65 L 187.33 146.66 C 187.41 147.58 188.22 148.27 189.14 148.19 C 190.07 148.12 190.75 147.31 190.68 146.39 L 190.59 145.38 C 190.52 144.45 189.71 143.76 188.79 143.84 C 187.86 143.92 187.17 144.73 187.25 145.65 Z M 187.33 146.66 L 187.42 147.66 C 187.49 148.58 188.30 149.27 189.23 149.19 C 190.15 149.11 190.83 148.30 190.76 147.38 L 190.68 146.38 C 190.60 145.46 189.79 144.77 188.87 144.85 C 187.94 144.93 187.26 145.74 187.33 146.66 Z M 187.42 147.66 L 187.50 148.63 C 187.58 149.55 188.39 150.23 189.31 150.16 C 190.23 150.08 190.92 149.27 190.84 148.34 L 190.76 147.38 C 190.68 146.45 189.87 145.77 188.95 145.85 C 188.02 145.93 187.34 146.74 187.42 147.66 Z M 187.50 148.63 L 187.60 149.69 C 187.68 150.61 188.49 151.29 189.41 151.21 C 190.33 151.13 191.01 150.31 190.93 149.39 L 190.84 148.34 C 190.76 147.42 189.94 146.74 189.02 146.82 C 188.10 146.90 187.42 147.71 187.50 148.63 Z M 187.60 149.69 L 187.69 150.70 C 187.77 151.62 188.59 152.30 189.51 152.22 C 190.43 152.14 191.10 151.32 191.02 150.40 L 190.93 149.39 C 190.85 148.47 190.03 147.79 189.11 147.87 C 188.19 147.96 187.51 148.77 187.60 149.69 Z M 187.69 150.70 L 187.78 151.68 C 187.86 152.60 188.67 153.28 189.59 153.20 C 190.51 153.11 191.19 152.30 191.11 151.38 L 191.02 150.40 C 190.94 149.48 190.12 148.81 189.21 148.89 C 188.29 148.97 187.61 149.78 187.69 150.70 Z M 187.78 151.68 L 187.86 152.63 C 187.94 153.55 188.75 154.23 189.67 154.15 C 190.59 154.07 191.27 153.26 191.19 152.34 L 191.11 151.39 C 191.03 150.47 190.22 149.79 189.30 149.87 C 188.38 149.95 187.70 150.76 187.78 151.68 Z M 187.86 152.62 L 187.95 153.62 C 188.02 154.54 188.83 155.22 189.74 155.15 C 190.66 155.07 191.35 154.27 191.27 153.35 L 191.19 152.35 C 191.11 151.43 190.31 150.75 189.39 150.82 C 188.47 150.90 187.79 151.70 187.86 152.62 Z M 187.95 153.61 L 188.02 154.62 C 188.09 155.53 188.89 156.22 189.81 156.15 C 190.73 156.08 191.42 155.28 191.35 154.36 L 191.27 153.36 C 191.20 152.44 190.40 151.75 189.48 151.82 C 188.56 151.89 187.88 152.69 187.95 153.61 Z M 188.02 154.61 L 188.10 155.60 C 188.16 156.52 188.96 157.21 189.88 157.14 C 190.79 157.08 191.48 156.28 191.42 155.36 L 191.34 154.37 C 191.28 153.45 190.48 152.76 189.57 152.83 C 188.65 152.90 187.96 153.69 188.02 154.61 Z M 188.10 155.60 L 188.17 156.58 C 188.23 157.49 189.03 158.18 189.94 158.12 C 190.86 158.06 191.55 157.26 191.48 156.35 L 191.41 155.36 C 191.35 154.45 190.56 153.76 189.64 153.82 C 188.72 153.89 188.03 154.68 188.10 155.60 Z M 188.17 156.58 L 188.24 157.58 C 188.30 158.50 189.10 159.19 190.01 159.12 C 190.93 159.06 191.62 158.27 191.55 157.35 L 191.48 156.35 C 191.42 155.43 190.62 154.74 189.71 154.81 C 188.79 154.87 188.10 155.66 188.17 156.58 Z M 188.24 157.59 L 188.31 158.59 C 188.38 159.50 189.17 160.19 190.08 160.12 C 191.00 160.06 191.69 159.27 191.62 158.35 L 191.55 157.35 C 191.48 156.44 190.69 155.75 189.78 155.81 C 188.87 155.88 188.18 156.67 188.24 157.59 Z M 188.32 158.59 L 188.39 159.58 C 188.45 160.49 189.24 161.18 190.16 161.11 C 191.07 161.05 191.76 160.26 191.69 159.34 L 191.62 158.35 C 191.55 157.44 190.76 156.75 189.85 156.82 C 188.94 156.88 188.25 157.68 188.32 158.59 Z M 188.39 159.58 L 188.46 160.57 C 188.53 161.48 189.32 162.17 190.23 162.10 C 191.14 162.04 191.82 161.24 191.76 160.33 L 191.69 159.34 C 191.62 158.43 190.83 157.75 189.92 157.81 C 189.01 157.88 188.32 158.67 188.39 159.58 Z M 188.46 160.57 L 188.54 161.59 C 188.60 162.50 189.39 163.18 190.30 163.11 C 191.21 163.05 191.90 162.26 191.83 161.35 L 191.76 160.33 C 191.69 159.42 190.90 158.74 189.99 158.81 C 189.08 158.87 188.40 159.66 188.46 160.57 Z M 188.54 161.58 L 188.61 162.58 C 188.67 163.49 189.46 164.18 190.37 164.11 C 191.28 164.05 191.96 163.26 191.90 162.35 L 191.83 161.35 C 191.76 160.44 190.98 159.76 190.07 159.82 C 189.16 159.89 188.48 160.67 188.54 161.58 Z M 188.61 162.58 L 188.68 163.56 C 188.74 164.47 189.52 165.15 190.42 165.09 C 191.33 165.04 192.02 164.25 191.96 163.35 L 191.90 162.36 C 191.84 161.46 191.05 160.77 190.15 160.83 C 189.24 160.89 188.55 161.67 188.61 162.58 Z M 188.68 163.55 L 188.73 164.48 C 188.78 165.39 189.56 166.08 190.47 166.03 C 191.37 165.98 192.06 165.20 192.01 164.29 L 191.96 163.36 C 191.91 162.45 191.13 161.76 190.22 161.81 C 189.32 161.87 188.63 162.64 188.68 163.55 Z M 188.73 164.47 L 188.78 165.39 C 188.83 166.30 189.60 166.99 190.50 166.95 C 191.41 166.90 192.10 166.13 192.06 165.23 L 192.01 164.30 C 191.96 163.40 191.19 162.70 190.29 162.75 C 189.38 162.80 188.69 163.57 188.73 164.47 Z M 188.78 165.39 L 188.83 166.38 C 188.88 167.28 189.65 167.98 190.55 167.93 C 191.45 167.89 192.15 167.12 192.10 166.21 L 192.05 165.23 C 192.01 164.33 191.24 163.63 190.34 163.68 C 189.43 163.72 188.74 164.49 188.78 165.39 Z M 188.84 166.38 L 188.90 167.48 C 188.95 168.38 189.71 169.07 190.61 169.03 C 191.52 168.98 192.21 168.21 192.16 167.31 L 192.10 166.21 C 192.05 165.31 191.28 164.62 190.38 164.67 C 189.48 164.71 188.79 165.48 188.84 166.38 Z M 188.90 167.49 L 188.96 168.49 C 189.01 169.38 189.78 170.07 190.68 170.02 C 191.58 169.96 192.27 169.19 192.21 168.29 L 192.15 167.30 C 192.10 166.40 191.33 165.72 190.43 165.77 C 189.53 165.82 188.85 166.59 188.90 167.49 Z M 188.96 168.49 L 189.02 169.49 C 189.08 170.39 189.85 171.07 190.75 171.01 C 191.64 170.96 192.33 170.19 192.27 169.29 L 192.21 168.29 C 192.15 167.39 191.38 166.71 190.49 166.77 C 189.59 166.82 188.91 167.59 188.96 168.49 Z M 189.03 169.49 L 189.09 170.52 C 189.14 171.42 189.91 172.10 190.81 172.05 C 191.70 171.99 192.38 171.22 192.33 170.33 L 192.27 169.29 C 192.21 168.40 191.44 167.72 190.55 167.77 C 189.65 167.83 188.97 168.59 189.03 169.49 Z M 189.09 170.52 L 189.15 171.55 C 189.20 172.44 189.97 173.12 190.86 173.07 C 191.75 173.02 192.44 172.26 192.39 171.36 L 192.33 170.33 C 192.28 169.44 191.51 168.76 190.62 168.81 C 189.72 168.86 189.04 169.62 189.09 170.52 Z M 189.15 171.54 L 189.20 172.52 C 189.25 173.41 190.01 174.10 190.90 174.06 C 191.79 174.01 192.48 173.25 192.43 172.36 L 192.38 171.37 C 192.34 170.48 191.58 169.79 190.69 169.84 C 189.80 169.88 189.11 170.64 189.15 171.54 Z M 189.21 172.50 L 189.25 173.62 C 189.28 174.51 190.02 175.20 190.91 175.17 C 191.80 175.14 192.50 174.40 192.47 173.51 L 192.43 172.39 C 192.40 171.50 191.65 170.80 190.76 170.83 C 189.87 170.86 189.18 171.61 189.21 172.50 Z M 189.25 173.55 L 189.24 174.60 C 189.23 175.49 189.94 176.22 190.83 176.23 C 191.72 176.24 192.44 175.53 192.45 174.64 L 192.46 173.58 C 192.47 172.69 191.76 171.97 190.87 171.96 C 189.99 171.95 189.26 172.66 189.25 173.55 Z M 189.26 174.45 L 189.16 175.39 C 189.06 176.26 189.69 177.05 190.57 177.15 C 191.45 177.24 192.24 176.61 192.33 175.73 L 192.43 174.79 C 192.53 173.92 191.90 173.13 191.02 173.03 C 190.14 172.94 189.35 173.57 189.26 174.45 Z M 189.21 175.14 L 188.98 175.97 C 188.75 176.82 189.25 177.70 190.10 177.93 C 190.94 178.16 191.82 177.66 192.05 176.81 L 192.28 175.98 C 192.51 175.13 192.01 174.26 191.16 174.02 C 190.32 173.79 189.44 174.29 189.21 175.14 Z M 189.14 175.62 L 188.62 176.54 C 188.19 177.30 188.46 178.26 189.22 178.69 C 189.98 179.12 190.95 178.85 191.38 178.09 L 191.90 177.17 C 192.32 176.41 192.05 175.44 191.29 175.01 C 190.53 174.58 189.56 174.86 189.14 175.62 Z M 188.99 176.10 L 188.25 176.72 C 187.58 177.28 187.48 178.27 188.04 178.94 C 188.59 179.61 189.59 179.70 190.26 179.15 L 191.01 178.53 C 191.68 177.97 191.77 176.98 191.21 176.31 C 190.66 175.64 189.66 175.54 188.99 176.10 Z M 189.04 176.38 L 188.14 176.50 C 187.28 176.61 186.67 177.40 186.79 178.26 C 186.90 179.12 187.69 179.72 188.55 179.61 L 189.46 179.49 C 190.32 179.37 190.92 178.59 190.81 177.73 C 190.69 176.87 189.90 176.26 189.04 176.38 Z M 188.94 176.61 L 188.21 176.31 C 187.41 175.98 186.50 176.36 186.17 177.16 C 185.84 177.96 186.23 178.88 187.02 179.20 L 187.75 179.50 C 188.55 179.83 189.46 179.45 189.79 178.65 C 190.12 177.85 189.74 176.94 188.94 176.61 Z M 188.56 176.51 L 187.81 175.94 C 187.12 175.42 186.14 175.56 185.62 176.25 C 185.10 176.93 185.23 177.91 185.92 178.44 L 186.68 179.01 C 187.37 179.53 188.35 179.39 188.87 178.70 C 189.39 178.01 189.25 177.03 188.56 176.51 Z M 187.97 176.08 L 187.21 175.32 C 186.60 174.71 185.61 174.70 185.00 175.31 C 184.39 175.92 184.39 176.91 184.99 177.52 L 185.76 178.29 C 186.37 178.90 187.36 178.90 187.97 178.29 C 188.58 177.69 188.58 176.70 187.97 176.08 Z M 187.30 175.41 L 186.55 174.53 C 185.99 173.87 185.01 173.78 184.35 174.34 C 183.69 174.89 183.60 175.88 184.16 176.54 L 184.91 177.43 C 185.46 178.09 186.45 178.17 187.11 177.61 C 187.77 177.06 187.85 176.07 187.30 175.41 Z M 186.59 174.59 L 185.95 173.74 C 185.43 173.06 184.45 172.93 183.76 173.45 C 183.08 173.97 182.95 174.95 183.47 175.64 L 184.11 176.48 C 184.63 177.16 185.61 177.30 186.30 176.77 C 186.98 176.25 187.12 175.27 186.59 174.59 Z M 185.98 173.79 L 185.38 172.94 C 184.88 172.24 183.91 172.07 183.21 172.57 C 182.50 173.07 182.34 174.04 182.84 174.74 L 183.44 175.59 C 183.94 176.30 184.91 176.46 185.61 175.96 C 186.32 175.46 186.48 174.49 185.98 173.79 Z M 185.41 172.97 L 184.84 172.13 C 184.36 171.42 183.40 171.23 182.68 171.71 C 181.96 172.18 181.77 173.15 182.25 173.87 L 182.81 174.71 C 183.29 175.43 184.26 175.62 184.98 175.14 C 185.69 174.66 185.89 173.69 185.41 172.97 Z M 184.86 172.16 L 184.34 171.35 C 183.88 170.62 182.91 170.41 182.19 170.88 C 181.46 171.34 181.25 172.31 181.71 173.03 L 182.23 173.84 C 182.70 174.57 183.66 174.78 184.39 174.32 C 185.11 173.85 185.33 172.89 184.86 172.16 Z M 184.36 171.37 L 183.84 170.53 C 183.39 169.80 182.42 169.57 181.69 170.02 C 180.96 170.48 180.73 171.44 181.18 172.17 L 181.70 173.01 C 182.15 173.74 183.12 173.97 183.85 173.52 C 184.58 173.07 184.81 172.11 184.36 171.37 Z M 183.85 170.55 L 183.30 169.64 C 182.86 168.90 181.90 168.66 181.16 169.10 C 180.42 169.55 180.18 170.50 180.63 171.24 L 181.17 172.15 C 181.61 172.89 182.57 173.13 183.31 172.69 C 184.05 172.25 184.29 171.29 183.85 170.55 Z M 183.31 169.66 L 182.82 168.81 C 182.39 168.07 181.43 167.82 180.69 168.25 C 179.94 168.69 179.69 169.64 180.13 170.39 L 180.62 171.23 C 181.05 171.97 182.01 172.22 182.75 171.79 C 183.50 171.36 183.75 170.40 183.31 169.66 Z M 182.83 168.82 L 182.37 168.02 C 181.94 167.27 180.98 167.01 180.24 167.44 C 179.49 167.87 179.23 168.82 179.66 169.57 L 180.12 170.38 C 180.55 171.12 181.50 171.38 182.25 170.95 C 183.00 170.53 183.26 169.57 182.83 168.82 Z M 182.37 168.02 L 182.30 167.91 C 181.88 167.16 180.92 166.90 180.17 167.33 C 179.43 167.75 179.17 168.71 179.59 169.46 L 179.66 169.57 C 180.08 170.32 181.04 170.58 181.79 170.15 C 182.54 169.72 182.80 168.77 182.37 168.02 Z"
      fill="black"
      fill-rule="nonzero" /><path d="M 160.09 113.47 L 160.51 114.29 C 160.93 115.12 161.95 115.44 162.77 115.02 C 163.60 114.60 163.93 113.58 163.51 112.75 L 163.09 111.93 C 162.66 111.10 161.65 110.77 160.82 111.20 C 159.99 111.62 159.66 112.64 160.09 113.47 Z M 160.48 114.23 L 160.88 115.10 C 161.28 115.94 162.28 116.30 163.12 115.91 C 163.97 115.51 164.33 114.51 163.94 113.66 L 163.53 112.80 C 163.14 111.96 162.14 111.60 161.29 111.99 C 160.45 112.39 160.08 113.39 160.48 114.23 Z M 160.84 115.00 L 161.20 115.93 C 161.54 116.80 162.52 117.23 163.39 116.89 C 164.26 116.55 164.69 115.57 164.35 114.70 L 163.98 113.76 C 163.64 112.90 162.66 112.47 161.79 112.81 C 160.93 113.15 160.50 114.13 160.84 115.00 Z M 161.16 115.80 L 161.47 116.86 C 161.74 117.75 162.68 118.26 163.57 118.00 C 164.47 117.73 164.98 116.79 164.71 115.89 L 164.40 114.84 C 164.13 113.94 163.19 113.43 162.30 113.70 C 161.40 113.97 160.89 114.91 161.16 115.80 Z M 161.45 116.73 L 161.65 117.68 C 161.84 118.59 162.74 119.17 163.65 118.97 C 164.55 118.78 165.13 117.88 164.94 116.98 L 164.74 116.02 C 164.54 115.12 163.65 114.54 162.74 114.73 C 161.83 114.93 161.25 115.82 161.45 116.73 Z M 161.65 117.59 L 161.81 118.59 C 161.96 119.50 162.81 120.12 163.72 119.97 C 164.62 119.83 165.24 118.97 165.10 118.07 L 164.94 117.07 C 164.79 116.16 163.94 115.54 163.03 115.69 C 162.13 115.83 161.51 116.68 161.65 117.59 Z M 161.82 118.52 L 161.95 119.55 C 162.05 120.45 162.87 121.10 163.77 120.99 C 164.68 120.88 165.32 120.06 165.21 119.16 L 165.09 118.13 C 164.98 117.23 164.16 116.59 163.26 116.70 C 162.36 116.80 161.71 117.62 161.82 118.52 Z M 161.96 119.50 L 162.05 120.53 C 162.13 121.42 162.93 122.08 163.82 122.00 C 164.71 121.91 165.37 121.12 165.29 120.23 L 165.20 119.21 C 165.11 118.31 164.32 117.66 163.43 117.74 C 162.54 117.82 161.88 118.61 161.96 119.50 Z M 162.07 120.49 L 162.14 121.47 C 162.20 122.35 162.96 123.02 163.85 122.96 C 164.73 122.90 165.40 122.13 165.34 121.24 L 165.27 120.27 C 165.21 119.38 164.45 118.71 163.56 118.78 C 162.68 118.84 162.01 119.60 162.07 120.49 Z M 162.15 121.43 L 162.20 122.53 C 162.25 123.41 162.99 124.09 163.87 124.04 C 164.75 124.00 165.43 123.25 165.38 122.37 L 165.33 121.28 C 165.28 120.40 164.54 119.72 163.66 119.77 C 162.78 119.81 162.11 120.56 162.15 121.43 Z M 162.21 122.50 L 162.24 123.55 C 162.27 124.42 163.00 125.11 163.87 125.08 C 164.75 125.05 165.43 124.32 165.41 123.45 L 165.38 122.41 C 165.35 121.53 164.62 120.85 163.75 120.87 C 162.87 120.90 162.19 121.63 162.21 122.50 Z M 162.25 123.52 L 162.26 124.48 C 162.28 125.35 162.99 126.04 163.86 126.03 C 164.73 126.02 165.42 125.30 165.41 124.43 L 165.40 123.48 C 165.39 122.61 164.67 121.91 163.80 121.92 C 162.93 121.94 162.24 122.65 162.25 123.52 Z M 162.27 124.46 L 162.27 125.36 C 162.28 126.23 162.98 126.93 163.84 126.93 C 164.71 126.92 165.41 126.22 165.41 125.36 L 165.40 124.45 C 165.40 123.59 164.70 122.89 163.83 122.89 C 162.97 122.89 162.27 123.59 162.27 124.46 Z M 162.28 125.36 L 162.28 126.31 C 162.27 127.17 162.97 127.87 163.83 127.88 C 164.70 127.88 165.40 127.18 165.40 126.32 L 165.40 125.36 C 165.40 124.50 164.71 123.80 163.84 123.80 C 162.98 123.80 162.28 124.49 162.28 125.36 Z M 162.28 126.28 L 162.26 127.25 C 162.24 128.12 162.92 128.83 163.78 128.85 C 164.64 128.87 165.36 128.19 165.38 127.33 L 165.40 126.35 C 165.42 125.49 164.74 124.77 163.87 124.75 C 163.01 124.73 162.30 125.42 162.28 126.28 Z M 162.26 127.19 L 162.19 128.19 C 162.13 129.05 162.78 129.79 163.64 129.85 C 164.50 129.91 165.25 129.26 165.31 128.40 L 165.37 127.40 C 165.43 126.54 164.78 125.79 163.92 125.73 C 163.06 125.68 162.32 126.33 162.26 127.19 Z M 162.20 128.09 L 162.07 129.11 C 161.96 129.96 162.56 130.75 163.41 130.86 C 164.27 130.97 165.05 130.37 165.16 129.51 L 165.30 128.49 C 165.41 127.64 164.81 126.86 163.95 126.74 C 163.10 126.63 162.31 127.23 162.20 128.09 Z M 162.08 129.01 L 161.90 129.95 C 161.74 130.80 162.29 131.61 163.14 131.78 C 163.98 131.94 164.80 131.39 164.97 130.54 L 165.15 129.61 C 165.31 128.76 164.76 127.94 163.91 127.78 C 163.07 127.61 162.25 128.17 162.08 129.01 Z M 161.92 129.89 L 161.69 130.85 C 161.49 131.69 162.00 132.53 162.84 132.73 C 163.68 132.93 164.52 132.41 164.72 131.58 L 164.95 130.61 C 165.15 129.77 164.63 128.93 163.79 128.73 C 162.96 128.53 162.11 129.05 161.92 129.89 Z M 161.69 130.81 L 161.43 131.80 C 161.21 132.64 161.71 133.49 162.54 133.71 C 163.37 133.93 164.23 133.44 164.45 132.60 L 164.71 131.61 C 164.93 130.78 164.44 129.93 163.60 129.71 C 162.77 129.49 161.92 129.98 161.69 130.81 Z M 161.44 131.79 L 161.16 132.79 C 160.93 133.62 161.41 134.48 162.24 134.71 C 163.07 134.94 163.93 134.45 164.17 133.62 L 164.45 132.62 C 164.68 131.79 164.19 130.93 163.36 130.70 C 162.53 130.47 161.67 130.95 161.44 131.79 Z M 161.16 132.78 L 161.14 132.84 C 160.91 133.67 161.39 134.53 162.22 134.76 C 163.05 135.00 163.92 134.51 164.15 133.68 L 164.17 133.63 C 164.40 132.80 163.91 131.94 163.09 131.70 C 162.26 131.47 161.39 131.95 161.16 132.78 Z"
      fill="black"
      fill-rule="nonzero" /><path d="M 158.96 125.11 L 159.99 125.02 C 160.91 124.93 161.59 124.11 161.50 123.19 C 161.41 122.26 160.59 121.59 159.67 121.67 L 158.64 121.77 C 157.72 121.86 157.04 122.68 157.13 123.60 C 157.22 124.53 158.04 125.20 158.96 125.11 Z M 159.99 125.02 L 161.02 124.92 C 161.94 124.83 162.62 124.01 162.53 123.08 C 162.44 122.16 161.61 121.48 160.69 121.57 L 159.67 121.67 C 158.74 121.76 158.07 122.58 158.16 123.51 C 158.25 124.43 159.07 125.11 159.99 125.02 Z M 161.03 124.92 L 162.03 124.82 C 162.96 124.72 163.63 123.90 163.54 122.97 C 163.44 122.04 162.61 121.37 161.69 121.46 L 160.68 121.57 C 159.75 121.66 159.08 122.49 159.18 123.42 C 159.27 124.34 160.10 125.02 161.03 124.92 Z M 162.05 124.82 L 163.03 124.71 C 163.96 124.61 164.63 123.78 164.52 122.85 C 164.42 121.92 163.59 121.25 162.66 121.35 L 161.67 121.46 C 160.75 121.56 160.08 122.40 160.18 123.33 C 160.28 124.25 161.12 124.92 162.05 124.82 Z M 163.05 124.71 L 164.00 124.60 C 164.93 124.49 165.59 123.64 165.48 122.71 C 165.37 121.79 164.52 121.12 163.60 121.24 L 162.64 121.35 C 161.71 121.46 161.05 122.31 161.16 123.24 C 161.28 124.16 162.12 124.83 163.05 124.71 Z M 164.03 124.59 L 165.03 124.45 C 165.95 124.33 166.60 123.48 166.47 122.55 C 166.35 121.63 165.50 120.98 164.58 121.11 L 163.57 121.24 C 162.65 121.37 162.00 122.22 162.13 123.14 C 162.25 124.07 163.10 124.72 164.03 124.59 Z M 165.05 124.43 L 166.07 124.28 C 166.98 124.14 167.60 123.29 167.47 122.38 C 167.33 121.47 166.48 120.85 165.57 120.98 L 164.56 121.13 C 163.65 121.27 163.02 122.12 163.16 123.03 C 163.29 123.94 164.14 124.56 165.05 124.43 Z M 166.07 124.25 L 167.06 124.09 C 167.95 123.95 168.56 123.12 168.42 122.22 C 168.28 121.33 167.44 120.72 166.55 120.86 L 165.57 121.01 C 164.67 121.15 164.06 121.99 164.20 122.88 C 164.34 123.77 165.18 124.39 166.07 124.25 Z M 167.05 124.06 L 168.01 123.91 C 168.89 123.78 169.49 122.96 169.35 122.08 C 169.22 121.21 168.40 120.60 167.52 120.74 L 166.56 120.89 C 165.68 121.02 165.08 121.84 165.22 122.72 C 165.35 123.60 166.17 124.20 167.05 124.06 Z M 167.99 123.89 L 168.95 123.75 C 169.81 123.63 170.41 122.83 170.28 121.97 C 170.16 121.10 169.36 120.50 168.50 120.63 L 167.54 120.77 C 166.68 120.89 166.08 121.69 166.20 122.55 C 166.33 123.41 167.13 124.01 167.99 123.89 Z M 168.92 123.74 L 169.90 123.62 C 170.76 123.51 171.36 122.73 171.26 121.87 C 171.15 121.02 170.37 120.41 169.51 120.52 L 168.53 120.64 C 167.67 120.75 167.06 121.53 167.17 122.38 C 167.28 123.24 168.06 123.85 168.92 123.74 Z M 169.88 123.62 L 170.87 123.51 C 171.73 123.41 172.34 122.64 172.25 121.79 C 172.16 120.93 171.39 120.31 170.53 120.41 L 169.54 120.51 C 168.68 120.61 168.06 121.38 168.16 122.24 C 168.25 123.09 169.02 123.71 169.88 123.62 Z M 170.85 123.51 L 171.85 123.41 C 172.71 123.33 173.33 122.57 173.25 121.71 C 173.17 120.85 172.40 120.22 171.54 120.31 L 170.55 120.40 C 169.69 120.49 169.06 121.25 169.15 122.11 C 169.23 122.97 169.99 123.59 170.85 123.51 Z M 171.84 123.41 L 172.84 123.32 C 173.69 123.25 174.33 122.49 174.25 121.63 C 174.17 120.77 173.41 120.14 172.55 120.21 L 171.55 120.31 C 170.70 120.38 170.06 121.14 170.14 122.00 C 170.22 122.86 170.98 123.49 171.84 123.41 Z M 172.83 123.32 L 173.39 123.27 C 174.25 123.20 174.89 122.44 174.81 121.58 C 174.74 120.72 173.98 120.09 173.12 120.16 L 172.56 120.21 C 171.70 120.29 171.06 121.05 171.14 121.91 C 171.22 122.77 171.97 123.40 172.83 123.32 Z"
      fill="black"
      fill-rule="nonzero" /><path d="M 155.75 135.19 L 155.07 135.91 C 154.46 136.57 154.49 137.61 155.15 138.23 C 155.81 138.84 156.84 138.81 157.46 138.15 L 158.14 137.43 C 158.75 136.77 158.72 135.74 158.06 135.12 C 157.41 134.50 156.37 134.53 155.75 135.19 Z M 155.07 135.92 L 154.39 136.65 C 153.78 137.31 153.81 138.35 154.48 138.96 C 155.14 139.58 156.17 139.54 156.79 138.88 L 157.46 138.15 C 158.08 137.48 158.04 136.45 157.38 135.84 C 156.72 135.22 155.68 135.26 155.07 135.92 Z M 154.38 136.67 L 153.70 137.42 C 153.09 138.08 153.14 139.12 153.81 139.72 C 154.48 140.33 155.51 140.28 156.12 139.61 L 156.80 138.86 C 157.40 138.19 157.35 137.16 156.69 136.55 C 156.02 135.95 154.98 136.00 154.38 136.67 Z M 153.66 137.44 L 152.81 138.44 C 152.22 139.13 152.30 140.17 152.99 140.76 C 153.68 141.35 154.72 141.27 155.31 140.58 L 156.16 139.58 C 156.75 138.89 156.67 137.85 155.98 137.26 C 155.29 136.67 154.25 136.75 153.66 137.44 Z M 152.58 138.73 L 152.29 139.27 C 151.86 140.09 152.17 141.10 152.98 141.53 C 153.80 141.97 154.81 141.66 155.24 140.84 L 155.53 140.29 C 155.96 139.48 155.66 138.47 154.84 138.03 C 154.03 137.60 153.02 137.91 152.58 138.73 Z M 154.44 141.61 L 154.88 141.41 C 155.74 141.05 156.13 140.05 155.76 139.20 C 155.39 138.34 154.40 137.94 153.54 138.31 L 153.10 138.51 C 152.24 138.88 151.85 139.87 152.22 140.73 C 152.59 141.58 153.58 141.98 154.44 141.61 Z M 155.14 141.28 L 155.82 140.84 C 156.60 140.33 156.82 139.28 156.31 138.49 C 155.80 137.71 154.74 137.49 153.96 138.00 L 153.29 138.45 C 152.50 138.96 152.28 140.01 152.80 140.79 C 153.31 141.58 154.36 141.80 155.14 141.28 Z M 155.86 140.81 L 156.74 140.20 C 157.51 139.66 157.70 138.60 157.16 137.84 C 156.62 137.07 155.56 136.88 154.79 137.42 L 153.92 138.03 C 153.15 138.57 152.96 139.63 153.50 140.40 C 154.04 141.16 155.09 141.35 155.86 140.81 Z M 156.75 140.19 L 157.75 139.49 C 158.51 138.94 158.69 137.88 158.15 137.11 C 157.60 136.35 156.54 136.17 155.77 136.72 L 154.78 137.42 C 154.02 137.97 153.84 139.03 154.38 139.79 C 154.93 140.56 155.99 140.74 156.75 140.19 Z M 157.74 139.49 L 158.75 138.78 C 159.52 138.23 159.70 137.17 159.16 136.40 C 158.62 135.64 157.56 135.45 156.79 136.00 L 155.78 136.71 C 155.01 137.25 154.83 138.32 155.37 139.08 C 155.91 139.85 156.98 140.03 157.74 139.49 Z M 158.74 138.79 L 159.60 138.20 C 160.37 137.66 160.57 136.60 160.03 135.83 C 159.50 135.05 158.44 134.86 157.66 135.39 L 156.80 135.98 C 156.03 136.52 155.83 137.58 156.37 138.35 C 156.90 139.13 157.96 139.32 158.74 138.79 Z M 159.58 138.21 L 160.42 137.65 C 161.20 137.13 161.41 136.07 160.88 135.29 C 160.36 134.50 159.30 134.29 158.52 134.82 L 157.68 135.38 C 156.90 135.90 156.69 136.96 157.22 137.74 C 157.74 138.52 158.80 138.73 159.58 138.21 Z M 160.40 137.66 L 161.22 137.13 C 162.01 136.61 162.23 135.56 161.72 134.77 C 161.21 133.98 160.15 133.76 159.36 134.27 L 158.54 134.81 C 157.75 135.32 157.53 136.37 158.04 137.16 C 158.55 137.95 159.61 138.17 160.40 137.66 Z M 161.20 137.14 L 162.03 136.62 C 162.82 136.11 163.06 135.06 162.56 134.27 C 162.06 133.47 161.00 133.24 160.21 133.74 L 159.38 134.26 C 158.59 134.76 158.35 135.81 158.85 136.61 C 159.35 137.40 160.41 137.64 161.20 137.14 Z M 162.01 136.63 L 162.85 136.11 C 163.65 135.62 163.90 134.57 163.41 133.77 C 162.91 132.97 161.87 132.72 161.07 133.21 L 160.23 133.73 C 159.43 134.22 159.17 135.27 159.67 136.07 C 160.16 136.87 161.21 137.12 162.01 136.63 Z M 162.83 136.12 L 163.61 135.65 C 164.42 135.17 164.68 134.12 164.20 133.32 C 163.72 132.51 162.67 132.25 161.87 132.73 L 161.08 133.20 C 160.28 133.69 160.01 134.73 160.50 135.54 C 160.98 136.34 162.02 136.60 162.83 136.12 Z M 163.60 135.66 L 164.39 135.19 C 165.20 134.72 165.47 133.68 165.00 132.87 C 164.52 132.06 163.48 131.79 162.67 132.26 L 161.88 132.73 C 161.07 133.20 160.80 134.24 161.28 135.05 C 161.75 135.86 162.79 136.13 163.60 135.66 Z M 164.38 135.20 L 165.21 134.72 C 166.02 134.25 166.30 133.21 165.83 132.40 C 165.37 131.59 164.33 131.31 163.52 131.78 L 162.69 132.26 C 161.88 132.72 161.60 133.76 162.06 134.57 C 162.53 135.38 163.57 135.66 164.38 135.20 Z M 165.20 134.72 L 166.07 134.23 C 166.88 133.77 167.17 132.74 166.71 131.92 C 166.25 131.11 165.22 130.82 164.41 131.28 L 163.53 131.78 C 162.72 132.24 162.43 133.27 162.89 134.08 C 163.35 134.89 164.38 135.18 165.20 134.72 Z M 166.06 134.23 L 166.98 133.72 C 167.80 133.26 168.09 132.24 167.64 131.42 C 167.19 130.60 166.16 130.31 165.34 130.76 L 164.42 131.28 C 163.60 131.73 163.31 132.76 163.76 133.58 C 164.22 134.39 165.24 134.68 166.06 134.23 Z M 166.97 133.72 L 167.96 133.18 C 168.77 132.73 169.07 131.71 168.63 130.89 C 168.18 130.07 167.15 129.78 166.34 130.22 L 165.35 130.76 C 164.54 131.21 164.24 132.23 164.68 133.05 C 165.13 133.87 166.16 134.17 166.97 133.72 Z M 167.95 133.18 L 168.82 132.71 C 169.64 132.27 169.94 131.24 169.50 130.43 C 169.06 129.61 168.03 129.31 167.22 129.75 L 166.35 130.22 C 165.53 130.66 165.23 131.69 165.67 132.50 C 166.11 133.32 167.13 133.62 167.95 133.18 Z M 168.81 132.71 L 169.69 132.23 C 170.51 131.80 170.81 130.78 170.38 129.96 C 169.94 129.15 168.92 128.84 168.10 129.28 L 167.23 129.75 C 166.41 130.19 166.10 131.21 166.54 132.02 C 166.98 132.84 168.00 133.15 168.81 132.71 Z M 169.68 132.23 L 170.59 131.75 C 171.40 131.32 171.71 130.31 171.28 129.49 C 170.84 128.68 169.83 128.37 169.01 128.80 L 168.11 129.28 C 167.30 129.71 166.99 130.73 167.42 131.54 C 167.86 132.36 168.87 132.67 169.68 132.23 Z M 170.58 131.75 L 171.49 131.27 C 172.30 130.84 172.61 129.83 172.18 129.02 C 171.75 128.20 170.74 127.89 169.93 128.32 L 169.02 128.80 C 168.21 129.23 167.89 130.24 168.32 131.06 C 168.75 131.87 169.76 132.18 170.58 131.75 Z M 171.48 131.27 L 172.39 130.79 C 173.20 130.37 173.52 129.36 173.09 128.55 C 172.66 127.73 171.66 127.42 170.85 127.85 L 169.94 128.32 C 169.12 128.75 168.81 129.75 169.24 130.57 C 169.66 131.38 170.67 131.69 171.48 131.27 Z M 172.38 130.79 L 173.28 130.32 C 174.09 129.90 174.41 128.90 173.98 128.09 C 173.56 127.28 172.56 126.96 171.75 127.38 L 170.85 127.85 C 170.04 128.27 169.72 129.27 170.15 130.08 C 170.57 130.90 171.57 131.21 172.38 130.79 Z M 173.27 130.32 L 174.14 129.88 C 174.95 129.46 175.27 128.46 174.85 127.65 C 174.43 126.84 173.43 126.52 172.62 126.94 L 171.75 127.38 C 170.94 127.80 170.62 128.80 171.04 129.61 C 171.46 130.42 172.46 130.74 173.27 130.32 Z M 174.13 129.87 L 175.08 129.39 C 175.89 128.98 176.21 127.98 175.79 127.17 C 175.38 126.36 174.39 126.04 173.58 126.46 L 172.63 126.94 C 171.82 127.35 171.50 128.35 171.91 129.16 C 172.33 129.97 173.32 130.29 174.13 129.87 Z M 175.06 129.38 L 176.06 128.88 C 176.87 128.47 177.19 127.49 176.79 126.68 C 176.38 125.88 175.40 125.55 174.59 125.96 L 173.59 126.46 C 172.78 126.87 172.46 127.85 172.87 128.66 C 173.27 129.47 174.26 129.79 175.06 129.38 Z M 176.05 128.88 L 176.98 128.41 C 177.79 128.01 178.12 127.04 177.72 126.23 C 177.32 125.43 176.34 125.10 175.54 125.50 L 174.60 125.96 C 173.80 126.36 173.47 127.34 173.87 128.14 C 174.27 128.95 175.24 129.28 176.05 128.88 Z M 176.97 128.41 L 177.85 127.98 C 178.65 127.58 178.98 126.62 178.59 125.82 C 178.20 125.01 177.23 124.68 176.43 125.07 L 175.55 125.50 C 174.75 125.90 174.42 126.86 174.81 127.67 C 175.20 128.47 176.17 128.80 176.97 128.41 Z M 177.84 127.97 L 178.67 127.57 C 179.47 127.18 179.80 126.23 179.42 125.43 C 179.03 124.63 178.07 124.29 177.27 124.68 L 176.44 125.08 C 175.64 125.46 175.31 126.42 175.69 127.22 C 176.08 128.02 177.04 128.35 177.84 127.97 Z M 178.65 127.56 L 179.44 127.19 C 180.24 126.81 180.58 125.86 180.20 125.07 C 179.82 124.27 178.87 123.93 178.08 124.31 L 177.29 124.69 C 176.49 125.06 176.15 126.01 176.53 126.81 C 176.91 127.60 177.86 127.94 178.65 127.56 Z M 179.43 127.18 L 180.39 126.74 C 181.18 126.37 181.53 125.42 181.16 124.63 C 180.79 123.84 179.84 123.50 179.05 123.87 L 178.09 124.31 C 177.30 124.68 176.96 125.63 177.33 126.42 C 177.70 127.21 178.64 127.55 179.43 127.18 Z M 180.37 126.74 L 181.33 126.30 C 182.12 125.94 182.47 125.00 182.11 124.21 C 181.75 123.42 180.81 123.07 180.02 123.43 L 179.07 123.87 C 178.27 124.23 177.92 125.16 178.28 125.96 C 178.65 126.75 179.58 127.10 180.37 126.74 Z M 181.31 126.30 L 182.21 125.91 C 183.01 125.55 183.37 124.63 183.02 123.83 C 182.67 123.04 181.74 122.68 180.94 123.03 L 180.04 123.43 C 179.25 123.78 178.89 124.71 179.24 125.50 C 179.59 126.30 180.52 126.66 181.31 126.30 Z M 182.19 125.91 L 183.04 125.55 C 183.84 125.21 184.21 124.29 183.87 123.49 C 183.54 122.70 182.62 122.32 181.82 122.66 L 180.97 123.02 C 180.17 123.36 179.80 124.28 180.14 125.08 C 180.47 125.88 181.39 126.25 182.19 125.91 Z M 183.01 125.56 L 184.10 125.13 C 184.90 124.81 185.30 123.90 184.98 123.10 C 184.66 122.30 183.76 121.90 182.95 122.22 L 181.86 122.65 C 181.06 122.97 180.66 123.88 180.98 124.68 C 181.29 125.48 182.20 125.88 183.01 125.56 Z M 183.92 125.18 L 184.95 124.92 C 185.79 124.70 186.29 123.85 186.07 123.02 C 185.86 122.18 185.01 121.68 184.17 121.89 L 183.14 122.16 C 182.30 122.38 181.80 123.23 182.01 124.06 C 182.23 124.90 183.08 125.40 183.92 125.18 Z M 183.57 124.61 L 183.94 124.91 C 184.60 125.46 185.59 125.36 186.13 124.69 C 186.68 124.02 186.58 123.04 185.91 122.50 L 185.55 122.20 C 184.88 121.65 183.90 121.75 183.35 122.42 C 182.81 123.08 182.91 124.07 183.57 124.61 Z M 183.47 123.14 L 183.26 123.69 C 182.95 124.50 183.35 125.40 184.15 125.71 C 184.96 126.02 185.86 125.62 186.17 124.82 L 186.38 124.26 C 186.69 123.46 186.29 122.56 185.49 122.25 C 184.68 121.94 183.78 122.34 183.47 123.14 Z M 183.39 123.43 L 182.90 124.22 C 182.45 124.95 182.67 125.91 183.40 126.37 C 184.14 126.82 185.10 126.59 185.55 125.86 L 186.04 125.08 C 186.49 124.34 186.27 123.38 185.53 122.93 C 184.80 122.47 183.84 122.70 183.39 123.43 Z M 182.96 124.13 L 182.28 125.08 C 181.78 125.78 181.95 126.76 182.65 127.26 C 183.35 127.76 184.32 127.59 184.82 126.89 L 185.50 125.95 C 186.00 125.24 185.83 124.27 185.13 123.77 C 184.43 123.27 183.46 123.43 182.96 124.13 Z M 182.30 125.05 L 181.53 126.08 C 181.02 126.77 181.16 127.75 181.84 128.26 C 182.53 128.78 183.51 128.64 184.03 127.95 L 184.80 126.92 C 185.32 126.23 185.18 125.25 184.49 124.74 C 183.80 124.22 182.82 124.36 182.30 125.05 Z M 181.54 126.07 L 181.43 126.22 C 180.91 126.90 181.04 127.88 181.73 128.40 C 182.42 128.92 183.40 128.79 183.92 128.10 L 184.03 127.96 C 184.55 127.27 184.41 126.29 183.72 125.77 C 183.04 125.25 182.06 125.38 181.54 126.07 Z"
      fill="black"
      fill-rule="nonzero" /><path d="M 162.95 149.40 L 162.75 150.40 C 162.58 151.26 163.13 152.10 163.99 152.27 C 164.85 152.44 165.69 151.88 165.86 151.03 L 166.06 150.02 C 166.23 149.16 165.67 148.33 164.81 148.16 C 163.96 147.98 163.12 148.54 162.95 149.40 Z M 162.74 150.40 L 162.54 151.40 C 162.37 152.27 162.93 153.11 163.79 153.28 C 164.66 153.45 165.50 152.89 165.67 152.02 L 165.87 151.03 C 166.04 150.16 165.48 149.32 164.61 149.15 C 163.75 148.98 162.91 149.54 162.74 150.40 Z M 162.53 151.40 L 162.34 152.39 C 162.17 153.26 162.74 154.10 163.60 154.27 C 164.47 154.44 165.32 153.87 165.49 153.00 L 165.68 152.02 C 165.85 151.15 165.28 150.31 164.41 150.14 C 163.54 149.97 162.70 150.54 162.53 151.40 Z M 162.33 152.39 L 162.15 153.36 C 161.98 154.23 162.55 155.08 163.43 155.24 C 164.30 155.41 165.14 154.84 165.31 153.96 L 165.50 153.00 C 165.66 152.13 165.09 151.28 164.22 151.11 C 163.34 150.95 162.50 151.52 162.33 152.39 Z M 162.14 153.37 L 161.96 154.31 C 161.80 155.19 162.38 156.04 163.26 156.20 C 164.14 156.36 164.98 155.78 165.14 154.90 L 165.32 153.96 C 165.48 153.08 164.90 152.23 164.02 152.07 C 163.14 151.91 162.30 152.49 162.14 153.37 Z M 161.95 154.33 L 161.79 155.27 C 161.64 156.15 162.23 156.99 163.11 157.15 C 164.00 157.30 164.84 156.71 164.99 155.82 L 165.15 154.88 C 165.30 154.00 164.71 153.16 163.83 153.01 C 162.95 152.86 162.11 153.45 161.95 154.33 Z M 161.78 155.30 L 161.64 156.26 C 161.51 157.14 162.12 157.97 163.00 158.10 C 163.89 158.24 164.72 157.63 164.85 156.74 L 164.99 155.79 C 165.13 154.90 164.52 154.08 163.63 153.94 C 162.75 153.81 161.92 154.42 161.78 155.30 Z M 161.63 156.30 L 161.51 157.30 C 161.40 158.19 162.04 159.00 162.93 159.11 C 163.82 159.22 164.63 158.58 164.74 157.69 L 164.86 156.70 C 164.97 155.80 164.33 155.00 163.44 154.89 C 162.55 154.78 161.74 155.41 161.63 156.30 Z M 161.51 157.36 L 161.41 158.43 C 161.34 159.32 162.00 160.11 162.89 160.19 C 163.79 160.26 164.57 159.60 164.65 158.71 L 164.74 157.64 C 164.82 156.74 164.16 155.95 163.27 155.88 C 162.37 155.80 161.58 156.46 161.51 157.36 Z M 161.41 158.48 L 161.35 159.51 C 161.31 160.41 161.99 161.17 162.89 161.22 C 163.79 161.27 164.55 160.58 164.60 159.68 L 164.66 158.65 C 164.70 157.76 164.02 156.99 163.12 156.94 C 162.22 156.90 161.46 157.58 161.41 158.48 Z M 161.35 159.57 L 161.33 160.62 C 161.32 161.52 162.03 162.26 162.93 162.28 C 163.83 162.29 164.57 161.58 164.58 160.68 L 164.60 159.63 C 164.62 158.73 163.90 157.99 163.01 157.97 C 162.11 157.96 161.37 158.67 161.35 159.57 Z M 161.34 160.69 L 161.36 161.74 C 161.39 162.64 162.13 163.35 163.03 163.33 C 163.92 163.30 164.63 162.56 164.61 161.66 L 164.58 160.61 C 164.56 159.71 163.81 159.01 162.92 159.03 C 162.02 159.05 161.31 159.80 161.34 160.69 Z M 161.37 161.84 L 161.45 162.84 C 161.53 163.73 162.31 164.40 163.21 164.32 C 164.10 164.25 164.76 163.46 164.69 162.57 L 164.60 161.57 C 164.53 160.67 163.74 160.01 162.85 160.09 C 161.96 160.16 161.29 160.95 161.37 161.84 Z M 161.47 162.98 L 161.63 163.88 C 161.78 164.76 162.61 165.36 163.50 165.21 C 164.38 165.06 164.97 164.22 164.82 163.34 L 164.67 162.43 C 164.52 161.55 163.68 160.96 162.80 161.11 C 161.92 161.26 161.32 162.09 161.47 162.98 Z M 161.69 164.12 L 162.03 165.14 C 162.32 165.98 163.23 166.44 164.08 166.15 C 164.92 165.87 165.38 164.96 165.10 164.11 L 164.76 163.10 C 164.47 162.25 163.56 161.79 162.71 162.08 C 161.87 162.36 161.41 163.28 161.69 164.12 Z M 162.20 165.46 L 162.73 166.32 C 163.19 167.07 164.18 167.31 164.93 166.85 C 165.68 166.38 165.92 165.40 165.46 164.65 L 164.93 163.79 C 164.46 163.03 163.48 162.80 162.73 163.26 C 161.97 163.72 161.74 164.71 162.20 165.46 Z M 162.94 166.56 L 163.57 167.24 C 164.16 167.88 165.16 167.91 165.80 167.31 C 166.44 166.72 166.47 165.72 165.88 165.08 L 165.25 164.41 C 164.65 163.77 163.65 163.73 163.01 164.33 C 162.38 164.92 162.34 165.92 162.94 166.56 Z M 163.67 167.32 L 164.12 167.72 C 164.76 168.30 165.75 168.25 166.33 167.61 C 166.91 166.96 166.86 165.97 166.22 165.39 L 165.77 164.99 C 165.13 164.42 164.14 164.47 163.56 165.11 C 162.98 165.75 163.03 166.74 163.67 167.32 Z"
      fill="black"
      fill-rule="nonzero" /><path d="M 162.91 150.27 L 163.72 150.54 C 164.62 150.83 165.58 150.35 165.88 149.45 C 166.17 148.56 165.69 147.60 164.79 147.30 L 163.98 147.03 C 163.08 146.74 162.12 147.22 161.82 148.11 C 161.53 149.01 162.01 149.97 162.91 150.27 Z M 163.75 150.53 L 164.62 150.81 C 165.51 151.09 166.46 150.60 166.75 149.71 C 167.03 148.82 166.53 147.87 165.64 147.58 L 164.77 147.31 C 163.88 147.03 162.93 147.52 162.65 148.41 C 162.37 149.30 162.86 150.25 163.75 150.53 Z M 164.66 150.80 L 165.66 151.09 C 166.54 151.35 167.47 150.84 167.73 149.96 C 167.99 149.07 167.48 148.14 166.59 147.88 L 165.60 147.59 C 164.72 147.33 163.78 147.84 163.53 148.73 C 163.27 149.61 163.78 150.55 164.66 150.80 Z M 165.70 151.09 L 166.84 151.39 C 167.73 151.63 168.64 151.10 168.88 150.21 C 169.11 149.33 168.58 148.42 167.70 148.18 L 166.55 147.88 C 165.66 147.64 164.75 148.17 164.52 149.06 C 164.28 149.95 164.81 150.86 165.70 151.09 Z M 166.88 151.39 L 167.79 151.62 C 168.68 151.84 169.57 151.29 169.79 150.41 C 170.01 149.52 169.47 148.63 168.58 148.41 L 167.66 148.19 C 166.78 147.97 165.88 148.51 165.67 149.39 C 165.45 150.28 165.99 151.17 166.88 151.39 Z M 167.80 151.61 L 168.79 151.85 C 169.67 152.06 170.56 151.52 170.77 150.64 C 170.98 149.75 170.44 148.86 169.56 148.65 L 168.57 148.42 C 167.69 148.20 166.80 148.75 166.59 149.63 C 166.37 150.51 166.92 151.40 167.80 151.61 Z M 168.78 151.84 L 169.80 152.09 C 170.68 152.30 171.57 151.77 171.78 150.89 C 171.99 150.01 171.45 149.12 170.58 148.91 L 169.56 148.66 C 168.68 148.45 167.79 148.98 167.58 149.86 C 167.37 150.74 167.90 151.63 168.78 151.84 Z M 169.78 152.08 L 170.79 152.34 C 171.67 152.56 172.56 152.03 172.78 151.16 C 173.00 150.29 172.47 149.40 171.60 149.17 L 170.59 148.92 C 169.72 148.69 168.83 149.22 168.61 150.10 C 168.38 150.97 168.91 151.86 169.78 152.08 Z M 170.76 152.32 L 171.73 152.59 C 172.60 152.83 173.49 152.32 173.73 151.45 C 173.97 150.59 173.46 149.69 172.60 149.46 L 171.63 149.19 C 170.76 148.95 169.87 149.46 169.63 150.32 C 169.39 151.19 169.90 152.08 170.76 152.32 Z M 171.68 152.57 L 172.69 152.88 C 173.54 153.15 174.45 152.68 174.72 151.83 C 174.98 150.97 174.51 150.07 173.66 149.80 L 172.65 149.48 C 171.80 149.21 170.89 149.68 170.62 150.54 C 170.35 151.39 170.82 152.30 171.68 152.57 Z M 172.58 152.83 L 173.69 153.27 C 174.51 153.60 175.45 153.20 175.77 152.38 C 176.10 151.55 175.70 150.62 174.88 150.29 L 173.77 149.85 C 172.94 149.52 172.01 149.92 171.68 150.75 C 171.35 151.57 171.75 152.50 172.58 152.83 Z M 173.49 153.16 L 174.35 153.66 C 175.11 154.09 176.08 153.83 176.52 153.07 C 176.96 152.30 176.69 151.33 175.93 150.89 L 175.07 150.40 C 174.31 149.96 173.34 150.23 172.90 150.99 C 172.46 151.75 172.73 152.73 173.49 153.16 Z M 174.06 153.43 L 174.67 153.99 C 175.30 154.59 176.30 154.55 176.90 153.92 C 177.49 153.28 177.46 152.28 176.82 151.69 L 176.22 151.12 C 175.58 150.53 174.58 150.56 173.99 151.20 C 173.39 151.83 173.43 152.83 174.06 153.43 Z M 174.35 153.55 L 174.72 154.28 C 175.11 155.05 176.05 155.36 176.82 154.97 C 177.60 154.58 177.90 153.64 177.51 152.86 L 177.14 152.13 C 176.75 151.36 175.81 151.05 175.04 151.44 C 174.26 151.83 173.96 152.77 174.35 153.55 Z M 174.55 153.68 L 174.62 154.61 C 174.68 155.47 175.43 156.12 176.29 156.06 C 177.16 155.99 177.81 155.24 177.74 154.38 L 177.68 153.46 C 177.62 152.60 176.87 151.95 176.00 152.01 C 175.14 152.07 174.49 152.82 174.55 153.68 Z M 174.66 154.10 L 174.40 155.09 C 174.18 155.93 174.69 156.79 175.52 157.01 C 176.36 157.22 177.22 156.72 177.44 155.88 L 177.70 154.89 C 177.92 154.05 177.42 153.19 176.58 152.98 C 175.74 152.76 174.88 153.26 174.66 154.10 Z M 174.54 154.74 L 174.03 155.67 C 173.62 156.43 173.90 157.39 174.66 157.80 C 175.43 158.22 176.38 157.94 176.80 157.17 L 177.31 156.24 C 177.72 155.47 177.44 154.52 176.67 154.10 C 175.91 153.69 174.95 153.97 174.54 154.74 Z M 174.16 155.45 L 173.57 156.22 C 173.03 156.91 173.16 157.91 173.85 158.44 C 174.55 158.98 175.54 158.85 176.08 158.16 L 176.67 157.39 C 177.20 156.70 177.08 155.70 176.38 155.17 C 175.69 154.63 174.70 154.76 174.16 155.45 Z M 173.66 156.09 L 172.96 156.83 C 172.36 157.47 172.39 158.49 173.03 159.09 C 173.67 159.70 174.69 159.67 175.29 159.02 L 175.99 158.28 C 176.59 157.64 176.56 156.63 175.92 156.02 C 175.27 155.42 174.26 155.45 173.66 156.09 Z M 173.02 156.75 L 172.27 157.46 C 171.62 158.07 171.59 159.09 172.20 159.74 C 172.81 160.39 173.84 160.42 174.48 159.81 L 175.23 159.10 C 175.88 158.49 175.91 157.47 175.30 156.82 C 174.69 156.17 173.67 156.14 173.02 156.75 Z M 172.30 157.41 L 171.55 158.07 C 170.88 158.66 170.81 159.69 171.41 160.37 C 172.00 161.04 173.03 161.11 173.70 160.51 L 174.45 159.85 C 175.13 159.26 175.19 158.23 174.60 157.56 C 174.01 156.88 172.98 156.82 172.30 157.41 Z M 171.56 158.04 L 170.85 158.65 C 170.16 159.24 170.08 160.28 170.67 160.97 C 171.25 161.66 172.29 161.74 172.98 161.15 L 173.69 160.54 C 174.38 159.95 174.47 158.91 173.88 158.22 C 173.29 157.54 172.25 157.45 171.56 158.04 Z M 170.85 158.64 L 170.12 159.25 C 169.42 159.84 169.34 160.89 169.92 161.58 C 170.51 162.28 171.56 162.37 172.25 161.78 L 172.98 161.16 C 173.68 160.58 173.76 159.53 173.17 158.84 C 172.59 158.14 171.54 158.05 170.85 158.64 Z M 170.11 159.25 L 169.34 159.90 C 168.64 160.50 168.55 161.55 169.15 162.25 C 169.74 162.95 170.79 163.03 171.49 162.44 L 172.26 161.78 C 172.96 161.19 173.05 160.14 172.45 159.44 C 171.86 158.74 170.81 158.65 170.11 159.25 Z M 169.32 159.90 L 168.49 160.63 C 167.79 161.23 167.71 162.29 168.32 162.99 C 168.92 163.69 169.98 163.76 170.68 163.16 L 171.51 162.44 C 172.21 161.83 172.29 160.77 171.68 160.07 C 171.08 159.38 170.02 159.30 169.32 159.90 Z M 168.47 160.63 L 167.74 161.27 C 167.05 161.89 166.98 162.95 167.60 163.65 C 168.22 164.35 169.28 164.41 169.98 163.79 L 170.70 163.15 C 171.40 162.54 171.46 161.47 170.85 160.77 C 170.23 160.08 169.16 160.01 168.47 160.63 Z M 167.72 161.27 L 166.96 161.95 C 166.27 162.58 166.21 163.66 166.84 164.35 C 167.47 165.05 168.54 165.11 169.24 164.48 L 170.00 163.79 C 170.70 163.16 170.75 162.09 170.12 161.39 C 169.49 160.70 168.42 160.64 167.72 161.27 Z M 166.94 161.96 L 166.18 162.66 C 165.48 163.30 165.44 164.39 166.08 165.08 C 166.72 165.78 167.80 165.82 168.50 165.18 L 169.26 164.47 C 169.96 163.83 170.00 162.75 169.36 162.06 C 168.72 161.36 167.64 161.32 166.94 161.96 Z M 166.15 162.67 L 165.41 163.37 C 164.71 164.02 164.68 165.12 165.34 165.81 C 165.99 166.50 167.08 166.53 167.77 165.88 L 168.52 165.18 C 169.21 164.52 169.25 163.43 168.59 162.74 C 167.94 162.05 166.85 162.01 166.15 162.67 Z M 165.38 163.38 L 164.68 164.06 C 163.99 164.73 163.98 165.83 164.65 166.51 C 165.31 167.20 166.41 167.22 167.10 166.55 L 167.80 165.87 C 168.49 165.20 168.51 164.10 167.84 163.41 C 167.17 162.73 166.07 162.71 165.38 163.38 Z M 164.64 164.09 L 163.72 165.03 C 163.05 165.72 163.06 166.83 163.75 167.50 C 164.44 168.17 165.55 168.16 166.22 167.47 L 167.14 166.52 C 167.82 165.83 167.80 164.73 167.11 164.05 C 166.42 163.38 165.31 163.39 164.64 164.09 Z M 163.62 165.14 L 162.90 166.02 C 162.29 166.77 162.40 167.87 163.14 168.48 C 163.89 169.09 164.99 168.98 165.60 168.24 L 166.32 167.36 C 166.93 166.61 166.82 165.51 166.08 164.90 C 165.33 164.29 164.23 164.40 163.62 165.14 Z M 162.61 166.51 L 162.39 167.10 C 162.05 168.01 162.51 169.02 163.41 169.36 C 164.31 169.70 165.32 169.24 165.66 168.34 L 165.88 167.75 C 166.23 166.84 165.77 165.84 164.87 165.50 C 163.96 165.15 162.96 165.61 162.61 166.51 Z M 163.05 169.16 L 163.40 169.40 C 164.19 169.94 165.28 169.74 165.82 168.94 C 166.36 168.14 166.15 167.06 165.36 166.52 L 165.01 166.28 C 164.21 165.74 163.13 165.95 162.58 166.74 C 162.04 167.54 162.25 168.62 163.05 169.16 Z M 164.48 169.69 L 165.30 169.64 C 166.26 169.58 166.98 168.76 166.92 167.80 C 166.86 166.85 166.04 166.13 165.09 166.18 L 164.27 166.23 C 163.32 166.29 162.59 167.11 162.65 168.07 C 162.71 169.02 163.53 169.75 164.48 169.69 Z M 165.60 169.58 L 166.76 169.30 C 167.68 169.08 168.25 168.15 168.03 167.23 C 167.81 166.31 166.88 165.74 165.96 165.96 L 164.80 166.24 C 163.88 166.47 163.31 167.39 163.53 168.31 C 163.75 169.23 164.68 169.80 165.60 169.58 Z M 166.89 169.24 L 168.11 168.84 C 169.00 168.55 169.49 167.59 169.19 166.70 C 168.90 165.81 167.94 165.32 167.05 165.62 L 165.83 166.02 C 164.94 166.31 164.46 167.27 164.75 168.16 C 165.04 169.05 166.00 169.54 166.89 169.24 Z M 168.18 168.80 L 169.11 168.45 C 169.98 168.12 170.41 167.15 170.08 166.28 C 169.75 165.41 168.78 164.97 167.91 165.30 L 166.98 165.66 C 166.12 165.99 165.68 166.96 166.01 167.83 C 166.34 168.69 167.31 169.13 168.18 168.80 Z M 169.14 168.41 L 170.10 168.02 C 170.95 167.67 171.35 166.70 171.00 165.85 C 170.65 165.00 169.68 164.60 168.83 164.95 L 167.88 165.34 C 167.03 165.69 166.63 166.66 166.97 167.51 C 167.32 168.36 168.30 168.76 169.14 168.41 Z M 170.12 167.99 L 171.07 167.58 C 171.90 167.22 172.28 166.25 171.92 165.42 C 171.56 164.58 170.59 164.20 169.76 164.56 L 168.81 164.98 C 167.98 165.34 167.60 166.31 167.96 167.14 C 168.32 167.97 169.29 168.35 170.12 167.99 Z M 171.08 167.55 L 172.00 167.14 C 172.82 166.77 173.18 165.81 172.81 164.99 C 172.44 164.17 171.48 163.81 170.66 164.18 L 169.74 164.59 C 168.92 164.96 168.56 165.92 168.93 166.74 C 169.30 167.56 170.26 167.92 171.08 167.55 Z M 172.01 167.11 L 172.87 166.72 C 173.67 166.34 174.02 165.39 173.65 164.58 C 173.27 163.78 172.32 163.43 171.51 163.80 L 170.65 164.20 C 169.85 164.57 169.50 165.53 169.87 166.33 C 170.25 167.14 171.20 167.49 172.01 167.11 Z M 172.87 166.70 L 173.89 166.21 C 174.69 165.83 175.03 164.88 174.65 164.09 C 174.27 163.29 173.32 162.96 172.53 163.33 L 171.50 163.82 C 170.71 164.20 170.37 165.15 170.75 165.94 C 171.13 166.74 172.08 167.07 172.87 166.70 Z M 173.90 166.20 L 174.82 165.75 C 175.60 165.37 175.93 164.42 175.55 163.63 C 175.17 162.85 174.22 162.52 173.43 162.90 L 172.52 163.35 C 171.73 163.73 171.40 164.68 171.79 165.47 C 172.17 166.25 173.12 166.58 173.90 166.20 Z M 174.83 165.74 L 175.67 165.32 C 176.45 164.93 176.77 163.98 176.38 163.20 C 175.99 162.43 175.04 162.11 174.27 162.50 L 173.42 162.92 C 172.64 163.31 172.33 164.25 172.71 165.03 C 173.10 165.81 174.05 166.12 174.83 165.74 Z M 175.68 165.30 L 176.49 164.89 C 177.26 164.50 177.57 163.56 177.18 162.79 C 176.79 162.02 175.84 161.71 175.07 162.10 L 174.26 162.51 C 173.49 162.90 173.18 163.84 173.57 164.61 C 173.96 165.39 174.90 165.69 175.68 165.30 Z M 176.49 164.88 L 177.37 164.44 C 178.13 164.04 178.44 163.10 178.04 162.33 C 177.65 161.57 176.71 161.26 175.94 161.66 L 175.07 162.11 C 174.30 162.50 174.00 163.44 174.39 164.21 C 174.78 164.97 175.72 165.28 176.49 164.88 Z M 177.37 164.43 L 178.26 163.98 C 179.02 163.58 179.32 162.64 178.93 161.88 C 178.53 161.11 177.59 160.81 176.83 161.20 L 175.94 161.66 C 175.17 162.05 174.87 162.99 175.27 163.76 C 175.66 164.53 176.60 164.83 177.37 164.43 Z M 178.25 163.98 L 179.15 163.52 C 179.92 163.12 180.22 162.18 179.82 161.42 C 179.43 160.65 178.49 160.35 177.72 160.74 L 176.83 161.20 C 176.06 161.60 175.76 162.54 176.15 163.30 C 176.55 164.07 177.49 164.37 178.25 163.98 Z M 179.15 163.52 L 180.05 163.06 C 180.81 162.67 181.12 161.73 180.72 160.96 C 180.33 160.19 179.39 159.89 178.62 160.28 L 177.73 160.74 C 176.96 161.13 176.65 162.07 177.05 162.84 C 177.44 163.61 178.38 163.91 179.15 163.52 Z M 180.04 163.06 L 180.93 162.61 C 181.70 162.22 182.00 161.28 181.61 160.52 C 181.23 159.75 180.29 159.44 179.52 159.83 L 178.63 160.28 C 177.86 160.67 177.55 161.61 177.94 162.38 C 178.33 163.14 179.27 163.45 180.04 163.06 Z M 180.92 162.62 L 181.82 162.17 C 182.59 161.78 182.90 160.84 182.51 160.07 C 182.12 159.30 181.18 158.99 180.41 159.38 L 179.52 159.83 C 178.75 160.21 178.44 161.15 178.83 161.92 C 179.22 162.69 180.15 163.00 180.92 162.62 Z M 181.82 162.17 L 182.71 161.72 C 183.48 161.33 183.80 160.39 183.41 159.62 C 183.02 158.85 182.09 158.54 181.31 158.93 L 180.42 159.38 C 179.65 159.76 179.33 160.70 179.72 161.47 C 180.11 162.24 181.04 162.55 181.82 162.17 Z M 182.71 161.72 L 183.24 161.45 C 184.01 161.07 184.32 160.13 183.94 159.36 C 183.55 158.59 182.61 158.28 181.84 158.66 L 181.32 158.93 C 180.54 159.31 180.23 160.25 180.62 161.02 C 181.00 161.79 181.94 162.10 182.71 161.72 Z"
      fill="black"
      fill-rule="nonzero" /></svg>