<svg xmlns="http://www.w3.org/2000/svg" width="300" height="300" viewBox="0 0 300 300">
<path d="M 124.61 108.26 L 124.37 109.40 C 124.19 110.27 124.74 111.12 125.61 111.30 C 126.48 111.48 127.33 110.92 127.51 110.06 L 127.75 108.91 C 127.93 108.05 127.37 107.20 126.50 107.01 C 125.64 106.83 124.79 107.39 124.61 108.26 Z M 124.35 109.50 L 124.20 110.56 C 124.07 111.44 124.68 112.26 125.56 112.38 C 126.43 112.51 127.25 111.90 127.37 111.02 L 127.53 109.96 C 127.65 109.08 127.04 108.27 126.17 108.14 C 125.29 108.01 124.48 108.62 124.35 109.50 Z M 124.18 110.83 L 124.20 111.73 C 124.22 112.61 124.95 113.32 125.84 113.30 C 126.72 113.28 127.43 112.55 127.41 111.66 L 127.39 110.76 C 127.37 109.87 126.64 109.17 125.75 109.19 C 124.86 109.21 124.16 109.94 124.18 110.83 Z M 124.33 112.34 L 124.64 113.03 C 124.99 113.85 125.94 114.22 126.75 113.86 C 127.57 113.50 127.94 112.56 127.58 111.74 L 127.28 111.05 C 126.92 110.24 125.97 109.87 125.16 110.22 C 124.35 110.58 123.98 111.53 124.33 112.34 Z M 125.27 113.77 L 125.99 114.20 C 126.75 114.66 127.75 114.42 128.21 113.65 C 128.67 112.89 128.42 111.90 127.66 111.44 L 126.94 111.01 C 126.18 110.54 125.19 110.79 124.73 111.55 C 124.26 112.32 124.51 113.31 125.27 113.77 Z M 126.54 114.42 L 127.56 114.60 C 128.44 114.76 129.29 114.17 129.44 113.29 C 129.60 112.41 129.01 111.56 128.13 111.40 L 127.11 111.22 C 126.23 111.06 125.38 111.65 125.22 112.53 C 125.07 113.42 125.65 114.26 126.54 114.42 Z M 127.76 114.63 L 128.89 114.69 C 129.79 114.74 130.56 114.04 130.60 113.14 C 130.65 112.24 129.96 111.47 129.05 111.43 L 127.93 111.37 C 127.02 111.33 126.26 112.02 126.21 112.92 C 126.17 113.82 126.86 114.59 127.76 114.63 Z M 128.94 114.69 L 129.90 114.71 C 130.79 114.73 131.54 114.02 131.56 113.12 C 131.58 112.22 130.87 111.47 129.97 111.45 L 129.01 111.43 C 128.11 111.41 127.37 112.12 127.35 113.02 C 127.33 113.92 128.04 114.67 128.94 114.69 Z M 129.92 114.69 L 130.92 114.70 C 131.80 114.71 132.53 114.00 132.54 113.11 C 132.55 112.22 131.84 111.49 130.95 111.48 L 129.95 111.47 C 129.06 111.46 128.34 112.18 128.33 113.06 C 128.32 113.95 129.03 114.68 129.92 114.69 Z M 130.93 114.68 L 131.95 114.68 C 132.83 114.69 133.54 113.98 133.55 113.10 C 133.55 112.22 132.84 111.51 131.97 111.51 L 130.94 111.50 C 130.06 111.50 129.35 112.21 129.35 113.09 C 129.34 113.96 130.05 114.68 130.93 114.68 Z M 131.96 114.67 L 132.99 114.67 C 133.86 114.67 134.56 113.96 134.56 113.10 C 134.56 112.23 133.86 111.53 132.99 111.53 L 131.96 111.52 C 131.09 111.52 130.39 112.23 130.39 113.09 C 130.39 113.96 131.09 114.67 131.96 114.67 Z M 132.99 114.66 L 134.00 114.66 C 134.86 114.66 135.56 113.96 135.56 113.10 C 135.56 112.23 134.86 111.53 134.00 111.53 L 132.99 111.53 C 132.13 111.53 131.43 112.23 131.43 113.10 C 131.43 113.96 132.13 114.66 132.99 114.66 Z M 134.00 114.66 L 135.00 114.66 C 135.86 114.66 136.56 113.96 136.56 113.10 C 136.56 112.23 135.86 111.53 135.00 111.53 L 134.00 111.53 C 133.13 111.53 132.44 112.23 132.44 113.10 C 132.44 113.96 133.13 114.66 134.00 114.66 Z M 135.00 114.66 L 136.00 114.66 C 136.86 114.66 137.56 113.96 137.56 113.10 C 137.56 112.23 136.86 111.53 136.00 111.53 L 135.00 111.53 C 134.14 111.53 133.44 112.23 133.44 113.10 C 133.44 113.96 134.14 114.66 135.00 114.66 Z M 136.00 114.66 L 136.99 114.66 C 137.85 114.66 138.55 113.96 138.55 113.10 C 138.55 112.23 137.85 111.53 136.99 111.53 L 136.00 111.53 C 135.13 111.53 134.43 112.23 134.43 113.10 C 134.43 113.96 135.13 114.66 136.00 114.66 Z M 136.99 114.66 L 137.18 114.66 C 138.05 114.66 138.74 113.96 138.74 113.10 C 138.74 112.23 138.05 111.54 137.18 111.54 L 136.99 111.54 C 136.13 111.54 135.43 112.23 135.43 113.10 C 135.43 113.96 136.13 114.66 136.99 114.66 Z"
      fill="black"
      fill-rule="nonzero" /><path d="M 120.02 127.45 L 120.04 128.59 C 120.06 129.50 120.81 130.22 121.72 130.21 C 122.63 130.19 123.35 129.44 123.34 128.53 L 123.31 127.39 C 123.30 126.48 122.55 125.76 121.64 125.78 C 120.73 125.79 120.00 126.54 120.02 127.45 Z M 120.06 128.80 L 120.21 129.80 C 120.34 130.70 121.17 131.32 122.07 131.19 C 122.97 131.06 123.60 130.22 123.46 129.32 L 123.32 128.32 C 123.19 127.42 122.35 126.80 121.45 126.93 C 120.55 127.06 119.93 127.90 120.06 128.80 Z M 120.39 130.35 L 120.78 131.08 C 121.22 131.88 122.22 132.17 123.02 131.74 C 123.82 131.31 124.11 130.31 123.68 129.51 L 123.28 128.77 C 122.85 127.98 121.85 127.68 121.05 128.11 C 120.25 128.55 119.95 129.55 120.39 130.35 Z M 121.49 131.76 L 122.15 132.10 C 122.97 132.51 123.96 132.18 124.37 131.37 C 124.78 130.56 124.45 129.57 123.64 129.16 L 122.98 128.82 C 122.16 128.41 121.17 128.74 120.76 129.55 C 120.35 130.36 120.68 131.35 121.49 131.76 Z M 122.84 132.27 L 123.75 132.31 C 124.66 132.34 125.43 131.63 125.46 130.72 C 125.49 129.81 124.78 129.05 123.87 129.02 L 122.96 128.98 C 122.05 128.95 121.29 129.66 121.25 130.57 C 121.22 131.48 121.93 132.24 122.84 132.27 Z M 124.14 132.27 L 125.25 132.05 C 126.14 131.87 126.72 131.01 126.54 130.12 C 126.36 129.23 125.50 128.65 124.61 128.83 L 123.49 129.05 C 122.60 129.23 122.02 130.09 122.20 130.98 C 122.38 131.87 123.25 132.45 124.14 132.27 Z M 125.46 132.00 L 126.50 131.64 C 127.36 131.35 127.82 130.42 127.52 129.56 C 127.23 128.70 126.30 128.24 125.44 128.53 L 124.40 128.88 C 123.54 129.17 123.08 130.11 123.37 130.97 C 123.66 131.83 124.60 132.29 125.46 132.00 Z M 126.60 131.60 L 127.46 131.24 C 128.30 130.89 128.69 129.92 128.34 129.09 C 127.99 128.25 127.03 127.86 126.19 128.21 L 125.33 128.57 C 124.50 128.93 124.10 129.89 124.46 130.72 C 124.81 131.56 125.77 131.95 126.60 131.60 Z M 127.52 131.21 L 128.42 130.79 C 129.24 130.40 129.59 129.43 129.20 128.61 C 128.82 127.79 127.84 127.44 127.02 127.82 L 126.13 128.24 C 125.31 128.63 124.96 129.60 125.35 130.42 C 125.73 131.24 126.71 131.59 127.52 131.21 Z M 128.45 130.77 L 129.37 130.31 C 130.18 129.90 130.50 128.92 130.10 128.11 C 129.69 127.30 128.71 126.98 127.90 127.38 L 126.99 127.84 C 126.18 128.25 125.85 129.23 126.26 130.04 C 126.66 130.85 127.65 131.17 128.45 130.77 Z M 129.39 130.29 L 130.32 129.81 C 131.13 129.39 131.44 128.41 131.02 127.61 C 130.61 126.81 129.62 126.50 128.82 126.91 L 127.89 127.40 C 127.09 127.81 126.77 128.80 127.19 129.60 C 127.60 130.40 128.59 130.71 129.39 130.29 Z M 130.33 129.81 L 131.27 129.32 C 132.07 128.90 132.38 127.92 131.96 127.12 C 131.54 126.32 130.56 126.01 129.76 126.42 L 128.82 126.91 C 128.02 127.33 127.71 128.32 128.13 129.11 C 128.54 129.91 129.53 130.22 130.33 129.81 Z M 131.26 129.32 L 132.18 128.85 C 132.99 128.44 133.30 127.45 132.89 126.65 C 132.48 125.85 131.50 125.53 130.69 125.94 L 129.77 126.42 C 128.97 126.83 128.65 127.81 129.06 128.61 C 129.47 129.42 130.46 129.73 131.26 129.32 Z M 132.17 128.86 L 133.09 128.40 C 133.90 127.99 134.23 127.01 133.82 126.21 C 133.42 125.40 132.44 125.07 131.63 125.47 L 130.71 125.93 C 129.90 126.34 129.57 127.32 129.98 128.12 C 130.38 128.93 131.36 129.26 132.17 128.86 Z M 133.07 128.41 L 133.98 127.98 C 134.79 127.59 135.14 126.61 134.75 125.79 C 134.36 124.98 133.38 124.63 132.56 125.02 L 131.65 125.46 C 130.84 125.85 130.49 126.83 130.88 127.64 C 131.28 128.46 132.25 128.80 133.07 128.41 Z M 133.95 127.99 L 134.84 127.59 C 135.67 127.22 136.03 126.24 135.66 125.42 C 135.29 124.59 134.31 124.23 133.49 124.60 L 132.60 125.01 C 131.77 125.38 131.40 126.35 131.78 127.18 C 132.15 128.00 133.12 128.37 133.95 127.99 Z M 134.80 127.61 L 135.67 127.25 C 136.51 126.90 136.90 125.93 136.55 125.10 C 136.20 124.26 135.24 123.87 134.40 124.22 L 133.53 124.58 C 132.69 124.93 132.30 125.89 132.65 126.73 C 133.00 127.57 133.96 127.96 134.80 127.61 Z M 135.60 127.28 L 136.73 126.87 C 137.58 126.56 138.02 125.61 137.71 124.75 C 137.40 123.90 136.45 123.46 135.60 123.77 L 134.47 124.18 C 133.61 124.49 133.17 125.44 133.49 126.30 C 133.80 127.15 134.74 127.59 135.60 127.28 Z M 136.59 126.93 L 137.66 126.64 C 138.55 126.40 139.08 125.49 138.84 124.61 C 138.61 123.72 137.70 123.19 136.81 123.43 L 135.73 123.71 C 134.85 123.95 134.32 124.86 134.56 125.75 C 134.79 126.63 135.70 127.16 136.59 126.93 Z M 137.39 126.70 L 138.30 126.62 C 139.22 126.53 139.90 125.72 139.81 124.80 C 139.73 123.88 138.91 123.20 137.99 123.28 L 137.08 123.37 C 136.16 123.45 135.48 124.27 135.57 125.19 C 135.65 126.11 136.47 126.79 137.39 126.70 Z M 137.73 126.58 L 138.43 126.76 C 139.33 126.99 140.25 126.45 140.48 125.55 C 140.71 124.64 140.17 123.73 139.26 123.49 L 138.56 123.32 C 137.66 123.09 136.74 123.63 136.51 124.53 C 136.28 125.43 136.83 126.35 137.73 126.58 Z M 137.53 126.19 L 138.03 126.82 C 138.62 127.55 139.68 127.66 140.41 127.08 C 141.14 126.49 141.26 125.42 140.67 124.70 L 140.17 124.07 C 139.58 123.34 138.51 123.22 137.78 123.81 C 137.06 124.39 136.94 125.46 137.53 126.19 Z M 137.68 126.04 L 137.84 127.01 C 138.00 127.94 138.87 128.56 139.80 128.41 C 140.72 128.25 141.35 127.37 141.19 126.45 L 141.03 125.47 C 140.87 124.55 139.99 123.93 139.07 124.08 C 138.14 124.24 137.52 125.11 137.68 126.04 Z M 137.82 126.61 L 137.73 127.76 C 137.66 128.70 138.36 129.52 139.30 129.59 C 140.24 129.66 141.06 128.95 141.13 128.02 L 141.21 126.86 C 141.28 125.92 140.58 125.11 139.64 125.04 C 138.71 124.97 137.89 125.67 137.82 126.61 Z M 137.75 127.57 L 137.59 128.44 C 137.41 129.36 138.01 130.26 138.94 130.43 C 139.86 130.61 140.76 130.01 140.93 129.08 L 141.10 128.21 C 141.28 127.29 140.68 126.39 139.75 126.22 C 138.83 126.04 137.93 126.64 137.75 127.57 Z M 137.61 128.31 L 137.36 129.23 C 137.12 130.14 137.65 131.08 138.56 131.32 C 139.47 131.57 140.41 131.03 140.66 130.12 L 140.91 129.21 C 141.15 128.30 140.62 127.36 139.71 127.11 C 138.80 126.87 137.86 127.40 137.61 128.31 Z M 137.39 129.13 L 137.06 130.10 C 136.76 130.99 137.24 131.96 138.13 132.26 C 139.03 132.57 140.00 132.09 140.30 131.19 L 140.63 130.23 C 140.93 129.33 140.45 128.36 139.56 128.06 C 138.67 127.76 137.70 128.23 137.39 129.13 Z M 137.09 130.02 L 136.69 131.04 C 136.34 131.92 136.77 132.91 137.65 133.26 C 138.52 133.61 139.52 133.18 139.87 132.30 L 140.27 131.28 C 140.62 130.40 140.19 129.40 139.31 129.06 C 138.44 128.71 137.44 129.14 137.09 130.02 Z M 136.71 130.98 L 136.29 131.94 C 135.90 132.80 136.30 133.81 137.16 134.19 C 138.02 134.58 139.04 134.18 139.42 133.32 L 139.84 132.36 C 140.22 131.50 139.83 130.49 138.97 130.10 C 138.10 129.72 137.09 130.11 136.71 130.98 Z M 136.31 131.89 L 135.86 132.82 C 135.46 133.68 135.82 134.70 136.67 135.10 C 137.53 135.51 138.55 135.15 138.96 134.29 L 139.40 133.36 C 139.80 132.51 139.44 131.49 138.59 131.08 C 137.73 130.68 136.71 131.04 136.31 131.89 Z M 135.88 132.79 L 135.41 133.72 C 134.99 134.56 135.33 135.59 136.17 136.02 C 137.02 136.44 138.05 136.10 138.47 135.26 L 138.94 134.33 C 139.36 133.48 139.03 132.45 138.18 132.03 C 137.34 131.60 136.31 131.94 135.88 132.79 Z M 135.43 133.68 L 134.95 134.58 C 134.51 135.42 134.83 136.46 135.66 136.90 C 136.50 137.34 137.54 137.02 137.98 136.19 L 138.46 135.29 C 138.90 134.45 138.58 133.41 137.74 132.97 C 136.91 132.53 135.87 132.85 135.43 133.68 Z M 134.97 134.56 L 134.50 135.40 C 134.04 136.23 134.34 137.27 135.17 137.73 C 135.99 138.19 137.04 137.89 137.50 137.06 L 137.96 136.22 C 138.42 135.39 138.12 134.35 137.30 133.89 C 136.47 133.43 135.43 133.73 134.97 134.56 Z M 134.52 135.37 L 134.00 136.26 C 133.52 137.07 133.80 138.12 134.61 138.60 C 135.43 139.08 136.48 138.80 136.96 137.99 L 137.48 137.09 C 137.95 136.28 137.68 135.23 136.86 134.75 C 136.04 134.27 135.00 134.55 134.52 135.37 Z M 134.02 136.22 L 133.46 137.13 C 132.96 137.93 133.20 138.99 134.00 139.49 C 134.81 139.99 135.86 139.74 136.36 138.94 L 136.93 138.03 C 137.43 137.22 137.19 136.17 136.38 135.67 C 135.58 135.17 134.52 135.41 134.02 136.22 Z M 133.48 137.09 L 132.95 137.89 C 132.43 138.68 132.65 139.74 133.44 140.26 C 134.22 140.79 135.29 140.57 135.81 139.78 L 136.34 138.98 C 136.86 138.19 136.64 137.13 135.85 136.60 C 135.06 136.08 134.00 136.30 133.48 137.09 Z M 132.97 137.87 L 132.45 138.62 C 131.92 139.40 132.12 140.46 132.90 141.00 C 133.68 141.53 134.74 141.33 135.28 140.55 L 135.79 139.80 C 136.33 139.02 136.13 137.96 135.35 137.42 C 134.57 136.89 133.50 137.09 132.97 137.87 Z M 132.46 138.61 L 131.92 139.40 C 131.38 140.18 131.58 141.24 132.35 141.78 C 133.13 142.31 134.20 142.12 134.73 141.34 L 135.27 140.56 C 135.81 139.78 135.62 138.71 134.84 138.18 C 134.06 137.64 132.99 137.84 132.46 138.61 Z M 131.92 139.40 L 131.35 140.21 C 130.82 140.99 131.01 142.05 131.79 142.59 C 132.57 143.13 133.63 142.93 134.17 142.16 L 134.73 141.34 C 135.27 140.56 135.07 139.50 134.30 138.96 C 133.52 138.42 132.46 138.62 131.92 139.40 Z M 131.36 140.20 L 130.78 141.03 C 130.24 141.80 130.43 142.87 131.20 143.41 C 131.97 143.95 133.04 143.77 133.58 142.99 L 134.16 142.17 C 134.70 141.39 134.52 140.33 133.74 139.78 C 132.97 139.24 131.90 139.43 131.36 140.20 Z M 130.80 141.01 L 130.20 141.84 C 129.65 142.60 129.82 143.67 130.59 144.22 C 131.36 144.77 132.42 144.60 132.98 143.83 L 133.57 143.01 C 134.12 142.24 133.95 141.18 133.18 140.62 C 132.41 140.07 131.35 140.25 130.80 141.01 Z M 130.22 141.82 L 129.63 142.61 C 129.06 143.37 129.22 144.44 129.98 145.00 C 130.74 145.57 131.81 145.41 132.37 144.65 L 132.96 143.85 C 133.52 143.10 133.36 142.03 132.61 141.46 C 131.85 140.90 130.78 141.06 130.22 141.82 Z M 129.64 142.60 L 129.03 143.40 C 128.46 144.15 128.61 145.22 129.36 145.79 C 130.11 146.36 131.18 146.21 131.75 145.46 L 132.36 144.66 C 132.92 143.91 132.78 142.84 132.03 142.27 C 131.28 141.70 130.21 141.85 129.64 142.60 Z M 129.04 143.39 L 128.43 144.19 C 127.86 144.93 128.00 146.00 128.74 146.58 C 129.49 147.15 130.56 147.01 131.13 146.26 L 131.74 145.47 C 132.32 144.72 132.18 143.65 131.43 143.08 C 130.68 142.51 129.62 142.65 129.04 143.39 Z M 128.43 144.19 L 127.82 144.98 C 127.25 145.72 127.38 146.79 128.13 147.37 C 128.87 147.94 129.94 147.80 130.51 147.06 L 131.13 146.27 C 131.70 145.52 131.56 144.45 130.82 143.88 C 130.08 143.31 129.01 143.44 128.43 144.19 Z M 127.82 144.98 L 127.21 145.77 C 126.64 146.51 126.78 147.58 127.52 148.15 C 128.26 148.73 129.33 148.59 129.90 147.84 L 130.51 147.06 C 131.08 146.31 130.95 145.25 130.20 144.67 C 129.46 144.10 128.39 144.24 127.82 144.98 Z M 127.21 145.78 L 126.60 146.57 C 126.03 147.31 126.18 148.38 126.92 148.95 C 127.66 149.52 128.73 149.38 129.30 148.63 L 129.90 147.84 C 130.47 147.10 130.33 146.03 129.59 145.46 C 128.85 144.89 127.78 145.03 127.21 145.78 Z M 126.60 146.58 L 125.99 147.38 C 125.43 148.12 125.57 149.18 126.32 149.75 C 127.06 150.31 128.12 150.17 128.69 149.43 L 129.30 148.63 C 129.86 147.88 129.72 146.82 128.98 146.25 C 128.23 145.69 127.17 145.83 126.60 146.58 Z M 125.99 147.38 L 125.40 148.17 C 124.84 148.91 124.99 149.97 125.74 150.53 C 126.48 151.10 127.54 150.95 128.10 150.20 L 128.69 149.42 C 129.25 148.67 129.10 147.61 128.36 147.05 C 127.61 146.49 126.55 146.64 125.99 147.38 Z M 125.40 148.18 L 124.81 148.97 C 124.25 149.71 124.41 150.77 125.16 151.33 C 125.90 151.88 126.96 151.73 127.52 150.98 L 128.11 150.19 C 128.66 149.44 128.51 148.39 127.76 147.83 C 127.01 147.27 125.96 147.43 125.40 148.18 Z M 124.81 148.97 L 124.21 149.78 C 123.66 150.53 123.82 151.58 124.56 152.14 C 125.31 152.69 126.37 152.53 126.92 151.78 L 127.52 150.98 C 128.07 150.23 127.91 149.17 127.17 148.62 C 126.42 148.07 125.36 148.22 124.81 148.97 Z M 124.21 149.78 L 123.60 150.61 C 123.05 151.36 123.21 152.42 123.96 152.97 C 124.71 153.52 125.76 153.36 126.31 152.61 L 126.92 151.78 C 127.47 151.03 127.31 149.98 126.56 149.43 C 125.81 148.88 124.76 149.04 124.21 149.78 Z M 123.60 150.62 L 123.01 151.43 C 122.46 152.18 122.62 153.23 123.37 153.78 C 124.12 154.32 125.17 154.16 125.72 153.41 L 126.31 152.60 C 126.86 151.86 126.70 150.81 125.95 150.26 C 125.20 149.71 124.15 149.87 123.60 150.62 Z M 123.01 151.43 L 122.41 152.25 C 121.87 153.00 122.03 154.05 122.78 154.59 C 123.53 155.14 124.57 154.98 125.12 154.23 L 125.72 153.41 C 126.26 152.66 126.10 151.61 125.35 151.07 C 124.60 150.52 123.55 150.68 123.01 151.43 Z M 122.41 152.26 L 121.82 153.07 C 121.28 153.82 121.45 154.87 122.20 155.41 C 122.94 155.95 123.99 155.78 124.53 155.04 L 125.12 154.22 C 125.66 153.47 125.49 152.43 124.75 151.88 C 124.00 151.34 122.95 151.51 122.41 152.26 Z M 121.82 153.08 L 121.25 153.88 C 120.71 154.63 120.88 155.68 121.63 156.21 C 122.38 156.75 123.43 156.57 123.96 155.82 L 124.53 155.03 C 125.07 154.28 124.90 153.23 124.15 152.70 C 123.40 152.16 122.35 152.33 121.82 153.08 Z M 121.24 153.89 L 120.64 154.75 C 120.11 155.50 120.29 156.54 121.05 157.07 C 121.80 157.60 122.84 157.42 123.37 156.66 L 123.97 155.81 C 124.50 155.06 124.32 154.02 123.56 153.49 C 122.81 152.96 121.77 153.14 121.24 153.89 Z M 120.64 154.76 L 120.06 155.58 C 119.54 156.34 119.73 157.38 120.48 157.90 C 121.24 158.42 122.27 158.24 122.80 157.48 L 123.37 156.65 C 123.90 155.90 123.71 154.86 122.96 154.34 C 122.20 153.81 121.16 154.00 120.64 154.76 Z M 120.06 155.59 L 119.51 156.39 C 118.99 157.15 119.18 158.18 119.93 158.70 C 120.68 159.22 121.72 159.04 122.24 158.28 L 122.80 157.48 C 123.32 156.72 123.13 155.69 122.38 155.17 C 121.62 154.64 120.59 154.83 120.06 155.59 Z M 119.51 156.39 L 118.96 157.19 C 118.43 157.94 118.62 158.97 119.37 159.50 C 120.12 160.02 121.16 159.83 121.68 159.08 L 122.24 158.28 C 122.76 157.53 122.57 156.50 121.82 155.97 C 121.07 155.45 120.04 155.64 119.51 156.39 Z M 118.96 157.19 L 118.39 158.01 C 117.86 158.76 118.04 159.79 118.79 160.32 C 119.54 160.84 120.57 160.66 121.10 159.91 L 121.68 159.09 C 122.20 158.34 122.02 157.30 121.27 156.78 C 120.52 156.25 119.49 156.44 118.96 157.19 Z M 118.38 158.02 L 117.81 158.84 C 117.29 159.59 117.48 160.62 118.23 161.14 C 118.98 161.66 120.01 161.47 120.53 160.72 L 121.10 159.90 C 121.62 159.15 121.43 158.12 120.68 157.60 C 119.93 157.08 118.90 157.27 118.38 158.02 Z M 117.80 158.86 L 117.25 159.69 C 116.74 160.44 116.94 161.47 117.70 161.98 C 118.46 162.48 119.48 162.28 119.99 161.53 L 120.54 160.70 C 121.05 159.94 120.85 158.92 120.09 158.41 C 119.34 157.90 118.31 158.10 117.80 158.86 Z M 117.23 159.72 L 116.74 160.49 C 116.25 161.26 116.47 162.28 117.24 162.77 C 118.00 163.26 119.02 163.03 119.51 162.27 L 120.01 161.49 C 120.50 160.73 120.27 159.71 119.51 159.22 C 118.74 158.73 117.72 158.95 117.23 159.72 Z M 116.72 160.53 L 116.23 161.33 C 115.76 162.10 116.01 163.11 116.78 163.59 C 117.56 164.06 118.57 163.81 119.04 163.03 L 119.53 162.23 C 120.00 161.46 119.75 160.45 118.98 159.98 C 118.20 159.50 117.19 159.75 116.72 160.53 Z M 116.22 161.36 L 115.71 162.24 C 115.26 163.02 115.52 164.02 116.31 164.48 C 117.09 164.93 118.09 164.66 118.54 163.88 L 119.05 163.00 C 119.51 162.22 119.24 161.22 118.46 160.76 C 117.68 160.31 116.67 160.58 116.22 161.36 Z M 115.70 162.26 L 115.16 163.24 C 114.72 164.03 115.00 165.02 115.79 165.46 C 116.57 165.90 117.57 165.62 118.01 164.83 L 118.55 163.86 C 118.99 163.07 118.71 162.07 117.92 161.63 C 117.13 161.19 116.14 161.48 115.70 162.26 Z M 115.15 163.26 L 114.72 164.06 C 114.29 164.85 114.58 165.84 115.37 166.27 C 116.16 166.69 117.15 166.40 117.58 165.61 L 118.01 164.81 C 118.44 164.02 118.15 163.03 117.36 162.61 C 116.57 162.18 115.58 162.47 115.15 163.26 Z M 114.72 164.08 L 114.26 164.94 C 113.84 165.73 114.15 166.71 114.94 167.13 C 115.73 167.55 116.71 167.24 117.13 166.45 L 117.58 165.59 C 118.00 164.80 117.70 163.82 116.90 163.40 C 116.11 162.98 115.13 163.29 114.72 164.08 Z M 114.26 164.97 L 113.80 165.87 C 113.39 166.67 113.71 167.64 114.50 168.04 C 115.30 168.45 116.27 168.13 116.67 167.33 L 117.13 166.43 C 117.54 165.63 117.22 164.66 116.43 164.26 C 115.63 163.85 114.66 164.17 114.26 164.97 Z M 113.79 165.90 L 113.33 166.84 C 112.95 167.64 113.28 168.60 114.08 168.99 C 114.88 169.38 115.84 169.04 116.22 168.24 L 116.68 167.30 C 117.07 166.51 116.73 165.55 115.93 165.16 C 115.14 164.77 114.18 165.11 113.79 165.90 Z M 113.32 166.88 L 112.89 167.84 C 112.52 168.64 112.87 169.59 113.68 169.96 C 114.48 170.32 115.43 169.97 115.80 169.17 L 116.23 168.21 C 116.60 167.40 116.25 166.46 115.44 166.09 C 114.64 165.72 113.69 166.08 113.32 166.88 Z M 112.87 167.89 L 112.33 169.18 C 111.99 169.99 112.37 170.92 113.18 171.26 C 113.99 171.60 114.93 171.22 115.27 170.41 L 115.81 169.12 C 116.15 168.31 115.77 167.37 114.96 167.03 C 114.15 166.69 113.21 167.08 112.87 167.89 Z M 112.32 169.22 L 111.87 170.38 C 111.56 171.20 111.96 172.12 112.77 172.43 C 113.59 172.75 114.51 172.35 114.82 171.53 L 115.27 170.37 C 115.59 169.55 115.19 168.64 114.37 168.32 C 113.56 168.00 112.64 168.41 112.32 169.22 Z M 111.87 170.41 L 111.61 171.10 C 111.31 171.91 111.73 172.82 112.54 173.12 C 113.36 173.43 114.26 173.01 114.57 172.20 L 114.82 171.51 C 115.13 170.69 114.71 169.78 113.90 169.48 C 113.08 169.18 112.18 169.59 111.87 170.41 Z M 114.57 172.12 L 114.76 171.56 C 115.03 170.74 114.58 169.85 113.76 169.58 C 112.94 169.32 112.05 169.76 111.79 170.58 L 111.60 171.14 C 111.33 171.96 111.78 172.85 112.60 173.12 C 113.42 173.39 114.30 172.94 114.57 172.12 Z M 114.75 171.57 L 115.06 170.65 C 115.33 169.83 114.89 168.94 114.07 168.67 C 113.25 168.39 112.37 168.84 112.10 169.66 L 111.79 170.58 C 111.52 171.40 111.96 172.28 112.78 172.55 C 113.60 172.83 114.48 172.38 114.75 171.57 Z M 115.06 170.65 L 115.44 169.52 C 115.72 168.70 115.28 167.81 114.46 167.54 C 113.64 167.26 112.76 167.70 112.48 168.52 L 112.10 169.65 C 111.82 170.47 112.26 171.35 113.08 171.63 C 113.90 171.91 114.78 171.47 115.06 170.65 Z M 115.44 169.52 L 115.85 168.32 C 116.13 167.51 115.69 166.62 114.88 166.34 C 114.06 166.06 113.17 166.50 112.89 167.31 L 112.48 168.51 C 112.20 169.33 112.64 170.21 113.46 170.49 C 114.27 170.77 115.16 170.34 115.44 169.52 Z M 115.85 168.33 L 116.24 167.21 C 116.52 166.40 116.09 165.50 115.28 165.22 C 114.47 164.94 113.58 165.36 113.29 166.18 L 112.90 167.30 C 112.61 168.12 113.04 169.01 113.86 169.29 C 114.67 169.58 115.56 169.15 115.85 168.33 Z M 116.23 167.23 L 116.59 166.24 C 116.89 165.43 116.47 164.53 115.66 164.24 C 114.86 163.94 113.96 164.36 113.66 165.17 L 113.30 166.16 C 113.00 166.97 113.42 167.86 114.23 168.16 C 115.04 168.46 115.93 168.04 116.23 167.23 Z M 116.58 166.28 L 116.94 165.39 C 117.26 164.59 116.87 163.68 116.07 163.36 C 115.27 163.04 114.36 163.43 114.04 164.23 L 113.68 165.12 C 113.36 165.92 113.75 166.83 114.55 167.15 C 115.35 167.47 116.26 167.08 116.58 166.28 Z M 116.91 165.45 L 117.30 164.59 C 117.65 163.81 117.30 162.88 116.51 162.53 C 115.73 162.17 114.80 162.52 114.45 163.31 L 114.06 164.16 C 113.71 164.95 114.06 165.87 114.85 166.23 C 115.63 166.58 116.56 166.23 116.91 165.45 Z M 117.26 164.66 L 117.70 163.80 C 118.10 163.04 117.79 162.10 117.03 161.70 C 116.26 161.31 115.32 161.61 114.93 162.38 L 114.48 163.24 C 114.09 164.01 114.39 164.95 115.16 165.34 C 115.93 165.73 116.87 165.43 117.26 164.66 Z M 117.67 163.87 L 118.14 163.04 C 118.57 162.29 118.31 161.34 117.56 160.91 C 116.81 160.48 115.86 160.74 115.43 161.49 L 114.96 162.32 C 114.53 163.06 114.79 164.02 115.54 164.45 C 116.29 164.87 117.24 164.61 117.67 163.87 Z M 118.11 163.09 L 118.63 162.26 C 119.08 161.52 118.86 160.56 118.12 160.11 C 117.39 159.66 116.43 159.88 115.97 160.61 L 115.46 161.45 C 115.01 162.18 115.23 163.14 115.96 163.59 C 116.70 164.05 117.66 163.82 118.11 163.09 Z M 118.60 162.29 L 119.16 161.44 C 119.64 160.72 119.44 159.75 118.72 159.28 C 118.00 158.81 117.03 159.01 116.56 159.73 L 116.00 160.58 C 115.52 161.30 115.72 162.27 116.44 162.74 C 117.16 163.21 118.13 163.01 118.60 162.29 Z M 119.14 161.47 L 119.73 160.62 C 120.22 159.91 120.05 158.94 119.34 158.45 C 118.63 157.96 117.65 158.14 117.16 158.85 L 116.58 159.70 C 116.09 160.41 116.26 161.38 116.97 161.87 C 117.68 162.36 118.65 162.18 119.14 161.47 Z M 119.71 160.65 L 120.31 159.82 C 120.82 159.12 120.66 158.15 119.97 157.64 C 119.27 157.13 118.29 157.29 117.79 157.99 L 117.18 158.82 C 116.68 159.52 116.83 160.49 117.53 161.00 C 118.23 161.50 119.21 161.35 119.71 160.65 Z M 120.29 159.85 L 120.92 159.02 C 121.44 158.34 121.31 157.36 120.62 156.84 C 119.93 156.32 118.95 156.45 118.43 157.14 L 117.81 157.96 C 117.29 158.65 117.42 159.63 118.11 160.15 C 118.79 160.67 119.77 160.53 120.29 159.85 Z M 120.89 159.05 L 121.57 158.21 C 122.11 157.53 122.00 156.55 121.32 156.01 C 120.65 155.48 119.67 155.59 119.13 156.26 L 118.46 157.11 C 117.92 157.78 118.03 158.76 118.70 159.30 C 119.37 159.84 120.36 159.73 120.89 159.05 Z M 121.54 158.24 L 122.20 157.46 C 122.76 156.80 122.68 155.82 122.02 155.26 C 121.36 154.70 120.38 154.79 119.82 155.44 L 119.16 156.23 C 118.60 156.89 118.68 157.87 119.34 158.43 C 120.00 158.98 120.99 158.90 121.54 158.24 Z M 122.17 157.49 L 122.82 156.77 C 123.40 156.13 123.34 155.14 122.70 154.56 C 122.06 153.99 121.07 154.04 120.50 154.69 L 119.85 155.41 C 119.27 156.05 119.33 157.04 119.97 157.62 C 120.61 158.19 121.60 158.14 122.17 157.49 Z M 122.79 156.80 L 123.43 156.13 C 124.02 155.50 124.00 154.51 123.37 153.92 C 122.75 153.33 121.76 153.35 121.17 153.98 L 120.53 154.65 C 119.93 155.28 119.96 156.27 120.59 156.86 C 121.21 157.45 122.20 157.43 122.79 156.80 Z M 123.40 156.16 L 124.11 155.45 C 124.72 154.85 124.72 153.86 124.12 153.25 C 123.51 152.64 122.52 152.63 121.91 153.24 L 121.20 153.95 C 120.59 154.55 120.58 155.54 121.19 156.15 C 121.80 156.76 122.79 156.77 123.40 156.16 Z M 124.07 155.49 L 124.83 154.78 C 125.46 154.19 125.50 153.21 124.91 152.58 C 124.32 151.95 123.34 151.91 122.70 152.50 L 121.94 153.21 C 121.31 153.79 121.28 154.78 121.87 155.41 C 122.45 156.04 123.44 156.08 124.07 155.49 Z M 124.80 154.82 L 125.54 154.16 C 126.19 153.59 126.26 152.61 125.69 151.96 C 125.12 151.31 124.14 151.24 123.49 151.81 L 122.74 152.46 C 122.09 153.03 122.03 154.02 122.59 154.67 C 123.16 155.32 124.15 155.38 124.80 154.82 Z M 125.51 154.19 L 126.24 153.59 C 126.91 153.04 127.00 152.06 126.45 151.39 C 125.91 150.73 124.92 150.63 124.26 151.18 L 123.52 151.78 C 122.86 152.33 122.76 153.31 123.31 153.98 C 123.86 154.64 124.84 154.74 125.51 154.19 Z M 126.20 153.62 L 127.01 153.00 C 127.69 152.47 127.81 151.49 127.29 150.81 C 126.76 150.13 125.78 150.00 125.10 150.53 L 124.29 151.15 C 123.61 151.68 123.49 152.66 124.01 153.34 C 124.54 154.02 125.52 154.15 126.20 153.62 Z M 126.95 153.04 L 127.78 152.46 C 128.48 151.96 128.65 150.99 128.16 150.28 C 127.66 149.58 126.69 149.41 125.98 149.90 L 125.15 150.49 C 124.45 150.98 124.28 151.96 124.77 152.66 C 125.27 153.37 126.24 153.54 126.95 153.04 Z M 127.68 152.52 L 128.52 152.02 C 129.26 151.57 129.50 150.61 129.05 149.87 C 128.61 149.14 127.65 148.90 126.91 149.34 L 126.08 149.84 C 125.34 150.29 125.10 151.25 125.54 151.99 C 125.99 152.72 126.95 152.96 127.68 152.52 Z M 128.38 152.10 L 129.31 151.66 C 130.09 151.29 130.43 150.36 130.06 149.57 C 129.69 148.79 128.75 148.46 127.97 148.83 L 127.05 149.26 C 126.26 149.63 125.93 150.57 126.30 151.35 C 126.67 152.13 127.60 152.47 128.38 152.10 Z M 129.06 151.77 L 130.08 151.49 C 130.93 151.25 131.42 150.38 131.19 149.53 C 130.95 148.69 130.08 148.20 129.23 148.43 L 128.21 148.71 C 127.37 148.95 126.88 149.82 127.11 150.67 C 127.35 151.51 128.22 152.01 129.06 151.77 Z M 129.52 151.57 L 130.43 151.65 C 131.32 151.72 132.10 151.06 132.18 150.17 C 132.25 149.29 131.59 148.50 130.70 148.43 L 129.80 148.35 C 128.91 148.27 128.13 148.93 128.05 149.82 C 127.97 150.71 128.63 151.49 129.52 151.57 Z M 129.55 151.32 L 130.17 151.81 C 130.88 152.38 131.91 152.26 132.47 151.55 C 133.04 150.84 132.92 149.81 132.21 149.25 L 131.59 148.75 C 130.88 148.19 129.85 148.31 129.28 149.02 C 128.72 149.72 128.84 150.76 129.55 151.32 Z M 129.71 151.27 L 130.11 152.08 C 130.52 152.90 131.52 153.23 132.34 152.82 C 133.15 152.41 133.48 151.41 133.07 150.59 L 132.67 149.79 C 132.26 148.97 131.26 148.64 130.45 149.05 C 129.63 149.46 129.30 150.46 129.71 151.27 Z M 129.98 151.76 L 130.25 152.80 C 130.48 153.70 131.40 154.23 132.29 154.00 C 133.18 153.76 133.72 152.85 133.48 151.95 L 133.21 150.91 C 132.98 150.02 132.06 149.48 131.17 149.72 C 130.27 149.95 129.74 150.87 129.98 151.76 Z M 130.20 152.63 L 130.37 153.73 C 130.51 154.66 131.37 155.29 132.29 155.15 C 133.21 155.01 133.84 154.15 133.70 153.23 L 133.53 152.12 C 133.39 151.20 132.53 150.57 131.61 150.71 C 130.69 150.85 130.06 151.71 130.20 152.63 Z M 130.35 153.65 L 130.44 154.51 C 130.53 155.44 131.36 156.12 132.29 156.03 C 133.22 155.94 133.90 155.11 133.80 154.18 L 133.72 153.31 C 133.63 152.38 132.80 151.70 131.87 151.80 C 130.94 151.89 130.26 152.72 130.35 153.65 Z M 130.43 154.46 L 130.49 155.38 C 130.55 156.31 131.36 157.02 132.29 156.96 C 133.22 156.90 133.93 156.09 133.87 155.16 L 133.81 154.24 C 133.75 153.30 132.94 152.60 132.01 152.66 C 131.08 152.72 130.37 153.52 130.43 154.46 Z M 130.49 155.34 L 130.53 156.34 C 130.57 157.27 131.35 158.00 132.29 157.96 C 133.22 157.93 133.95 157.14 133.91 156.20 L 133.87 155.20 C 133.83 154.27 133.05 153.54 132.11 153.58 C 131.18 153.62 130.45 154.40 130.49 155.34 Z M 130.53 156.31 L 130.55 157.41 C 130.57 158.34 131.35 159.08 132.28 159.06 C 133.22 159.04 133.96 158.27 133.94 157.33 L 133.91 156.23 C 133.89 155.30 133.12 154.56 132.18 154.58 C 131.25 154.60 130.51 155.37 130.53 156.31 Z M 130.55 157.39 L 130.57 158.50 C 130.58 159.44 131.34 160.18 132.28 160.17 C 133.21 160.16 133.96 159.39 133.95 158.46 L 133.94 157.35 C 133.92 156.41 133.16 155.67 132.22 155.68 C 131.29 155.69 130.54 156.46 130.55 157.39 Z M 130.57 158.49 L 130.57 159.45 C 130.58 160.39 131.34 161.14 132.28 161.13 C 133.21 161.12 133.96 160.36 133.96 159.43 L 133.95 158.47 C 133.94 157.54 133.18 156.78 132.25 156.79 C 131.31 156.80 130.56 157.56 130.57 158.49 Z M 130.57 159.44 L 130.58 160.44 C 130.58 161.38 131.34 162.13 132.27 162.13 C 133.20 162.13 133.96 161.37 133.96 160.44 L 133.96 159.44 C 133.95 158.50 133.20 157.75 132.26 157.75 C 131.33 157.75 130.57 158.51 130.57 159.44 Z M 130.58 160.43 L 130.57 161.46 C 130.57 162.40 131.32 163.16 132.25 163.16 C 133.19 163.17 133.95 162.41 133.95 161.48 L 133.96 160.45 C 133.96 159.52 133.21 158.76 132.28 158.75 C 131.34 158.75 130.58 159.50 130.58 160.43 Z M 130.57 161.45 L 130.56 162.48 C 130.54 163.42 131.29 164.18 132.22 164.20 C 133.16 164.21 133.92 163.46 133.94 162.53 L 133.95 161.49 C 133.96 160.56 133.22 159.79 132.28 159.78 C 131.35 159.77 130.58 160.51 130.57 161.45 Z M 130.56 162.47 L 130.53 163.49 C 130.51 164.42 131.25 165.20 132.18 165.22 C 133.11 165.24 133.89 164.50 133.91 163.57 L 133.94 162.55 C 133.96 161.61 133.22 160.84 132.29 160.82 C 131.35 160.79 130.58 161.53 130.56 162.47 Z M 130.53 163.47 L 130.50 164.46 C 130.46 165.39 131.19 166.18 132.12 166.21 C 133.06 166.24 133.84 165.52 133.87 164.58 L 133.91 163.59 C 133.94 162.66 133.22 161.88 132.28 161.84 C 131.35 161.81 130.57 162.54 130.53 163.47 Z M 130.50 164.43 L 130.45 165.42 C 130.40 166.35 131.11 167.15 132.04 167.20 C 132.97 167.25 133.77 166.53 133.82 165.60 L 133.87 164.61 C 133.92 163.68 133.21 162.89 132.28 162.84 C 131.35 162.79 130.55 163.50 130.50 164.43 Z M 130.46 165.39 L 130.38 166.36 C 130.32 167.29 131.01 168.09 131.94 168.16 C 132.86 168.23 133.67 167.53 133.74 166.61 L 133.81 165.63 C 133.88 164.71 133.18 163.90 132.26 163.84 C 131.33 163.77 130.52 164.46 130.46 165.39 Z M 130.39 166.33 L 130.31 167.28 C 130.22 168.20 130.90 169.02 131.82 169.10 C 132.74 169.18 133.56 168.51 133.64 167.58 L 133.73 166.64 C 133.81 165.72 133.13 164.90 132.21 164.82 C 131.29 164.73 130.48 165.41 130.39 166.33 Z M 130.32 167.26 L 130.22 168.21 C 130.12 169.13 130.79 169.95 131.70 170.04 C 132.62 170.14 133.44 169.47 133.53 168.56 L 133.63 167.61 C 133.73 166.69 133.06 165.87 132.15 165.77 C 131.23 165.68 130.41 166.34 130.32 167.26 Z M 130.22 168.20 L 130.11 169.18 C 130.01 170.09 130.67 170.92 131.58 171.02 C 132.49 171.12 133.31 170.46 133.42 169.55 L 133.53 168.57 C 133.63 167.66 132.97 166.84 132.06 166.73 C 131.15 166.63 130.33 167.29 130.22 168.20 Z M 130.12 169.18 L 130.00 170.22 C 129.90 171.13 130.55 171.95 131.46 172.05 C 132.36 172.16 133.18 171.51 133.29 170.60 L 133.41 169.56 C 133.51 168.65 132.86 167.83 131.95 167.72 C 131.05 167.62 130.23 168.27 130.12 169.18 Z M 130.01 170.22 L 129.89 171.27 C 129.79 172.18 130.44 172.99 131.34 173.10 C 132.24 173.20 133.06 172.55 133.16 171.65 L 133.28 170.60 C 133.39 169.69 132.74 168.87 131.83 168.77 C 130.93 168.67 130.11 169.32 130.01 170.22 Z M 129.89 171.28 L 129.78 172.28 C 129.68 173.19 130.33 174.00 131.24 174.10 C 132.14 174.20 132.95 173.55 133.05 172.64 L 133.16 171.64 C 133.26 170.74 132.61 169.93 131.71 169.83 C 130.80 169.73 129.99 170.38 129.89 171.28 Z M 129.79 172.29 L 129.68 173.33 C 129.58 174.23 130.23 175.04 131.13 175.13 C 132.03 175.23 132.83 174.58 132.93 173.68 L 133.04 172.64 C 133.14 171.74 132.49 170.93 131.59 170.84 C 130.69 170.74 129.88 171.39 129.79 172.29 Z M 129.68 173.34 L 129.57 174.40 C 129.48 175.29 130.13 176.09 131.03 176.19 C 131.92 176.28 132.72 175.63 132.82 174.73 L 132.92 173.67 C 133.02 172.78 132.37 171.98 131.47 171.89 C 130.58 171.79 129.78 172.45 129.68 173.34 Z M 129.58 174.40 L 129.48 175.45 C 129.39 176.34 130.04 177.14 130.93 177.23 C 131.82 177.31 132.62 176.66 132.71 175.77 L 132.81 174.72 C 132.90 173.83 132.25 173.04 131.36 172.95 C 130.46 172.86 129.67 173.51 129.58 174.40 Z M 129.48 175.46 L 129.39 176.47 C 129.30 177.36 129.95 178.15 130.84 178.23 C 131.73 178.31 132.52 177.66 132.60 176.77 L 132.70 175.76 C 132.78 174.87 132.13 174.09 131.24 174.00 C 130.35 173.92 129.57 174.57 129.48 175.46 Z M 129.39 176.48 L 129.31 177.43 C 129.23 178.31 129.88 179.10 130.77 179.17 C 131.65 179.25 132.44 178.60 132.51 177.71 L 132.60 176.76 C 132.68 175.88 132.02 175.10 131.14 175.02 C 130.25 174.94 129.47 175.59 129.39 176.48 Z M 129.31 177.44 L 129.24 178.31 C 129.17 179.19 129.83 179.97 130.71 180.04 C 131.59 180.11 132.37 179.45 132.44 178.57 L 132.51 177.70 C 132.58 176.82 131.92 176.04 131.04 175.97 C 130.16 175.90 129.38 176.56 129.31 177.44 Z M 129.25 178.34 L 129.16 179.66 C 129.10 180.54 129.77 181.30 130.65 181.35 C 131.53 181.41 132.29 180.74 132.35 179.86 L 132.43 178.54 C 132.49 177.66 131.82 176.90 130.94 176.85 C 130.06 176.79 129.30 177.46 129.25 178.34 Z M 129.17 179.72 L 129.14 180.77 C 129.12 181.64 129.81 182.37 130.69 182.39 C 131.56 182.42 132.29 181.72 132.31 180.85 L 132.34 179.80 C 132.36 178.93 131.67 178.20 130.80 178.17 C 129.92 178.15 129.19 178.84 129.17 179.72 Z M 129.15 180.87 L 129.19 181.73 C 129.22 182.60 129.95 183.28 130.82 183.25 C 131.69 183.21 132.37 182.48 132.34 181.61 L 132.30 180.75 C 132.27 179.88 131.54 179.20 130.67 179.23 C 129.80 179.27 129.12 180.00 129.15 180.87 Z M 129.21 181.86 L 129.30 182.63 C 129.41 183.49 130.19 184.10 131.05 183.99 C 131.91 183.89 132.52 183.11 132.41 182.25 L 132.31 181.48 C 132.21 180.62 131.43 180.01 130.57 180.12 C 129.71 180.22 129.10 181.00 129.21 181.86 Z M 129.33 182.77 L 129.54 183.72 C 129.72 184.56 130.55 185.10 131.40 184.91 C 132.24 184.73 132.77 183.90 132.59 183.05 L 132.38 182.11 C 132.20 181.26 131.36 180.73 130.52 180.91 C 129.68 181.10 129.15 181.93 129.33 182.77 Z M 129.57 183.83 L 129.85 184.79 C 130.09 185.62 130.96 186.09 131.79 185.84 C 132.61 185.60 133.09 184.73 132.84 183.91 L 132.56 182.95 C 132.32 182.12 131.45 181.65 130.62 181.89 C 129.79 182.13 129.32 183.00 129.57 183.83 Z M 129.87 184.85 L 130.19 185.80 C 130.47 186.62 131.35 187.06 132.17 186.79 C 132.98 186.51 133.42 185.62 133.15 184.81 L 132.82 183.85 C 132.55 183.03 131.66 182.59 130.85 182.87 C 130.03 183.14 129.59 184.03 129.87 184.85 Z M 130.19 185.82 L 130.27 186.04 C 130.56 186.86 131.44 187.29 132.26 187.00 C 133.07 186.72 133.50 185.83 133.22 185.02 L 133.14 184.79 C 132.86 183.98 131.97 183.55 131.16 183.83 C 130.34 184.11 129.91 185.00 130.19 185.82 Z"
      fill="black"
      fill-rule="nonzero" /><path d="M 145.66 148.73 L 144.65 148.74 C 143.75 148.75 143.02 149.49 143.03 150.40 C 143.04 151.31 143.78 152.03 144.68 152.03 L 145.69 152.02 C 146.59 152.01 147.32 151.27 147.31 150.36 C 147.31 149.45 146.56 148.72 145.66 148.73 Z M 144.56 148.73 L 143.57 148.79 C 142.65 148.85 141.96 149.64 142.02 150.55 C 142.08 151.47 142.87 152.16 143.78 152.10 L 144.78 152.04 C 145.69 151.98 146.39 151.19 146.33 150.28 C 146.27 149.36 145.48 148.67 144.56 148.73 Z M 143.38 148.79 L 142.40 148.97 C 141.49 149.13 140.88 150.00 141.04 150.92 C 141.20 151.83 142.08 152.44 142.99 152.27 L 143.97 152.10 C 144.88 151.94 145.49 151.07 145.33 150.15 C 145.17 149.24 144.29 148.63 143.38 148.79 Z M 142.14 149.02 L 141.23 149.33 C 140.35 149.64 139.88 150.60 140.18 151.49 C 140.49 152.37 141.45 152.84 142.34 152.54 L 143.25 152.22 C 144.13 151.92 144.60 150.96 144.30 150.07 C 143.99 149.19 143.03 148.72 142.14 149.02 Z M 141.02 149.41 L 140.15 149.85 C 139.31 150.27 138.96 151.29 139.39 152.14 C 139.81 152.98 140.83 153.32 141.67 152.90 L 142.55 152.46 C 143.39 152.04 143.73 151.01 143.31 150.17 C 142.89 149.33 141.86 148.99 141.02 149.41 Z M 140.02 149.91 L 139.15 150.44 C 138.34 150.93 138.09 151.99 138.58 152.79 C 139.07 153.60 140.13 153.86 140.94 153.37 L 141.80 152.84 C 142.61 152.34 142.87 151.29 142.37 150.48 C 141.88 149.67 140.83 149.42 140.02 149.91 Z M 139.08 150.47 L 138.22 151.05 C 137.43 151.58 137.22 152.65 137.74 153.44 C 138.27 154.23 139.35 154.44 140.14 153.91 L 141.00 153.33 C 141.79 152.80 142.00 151.73 141.48 150.94 C 140.95 150.15 139.87 149.94 139.08 150.47 Z M 138.19 151.06 L 137.36 151.63 C 136.58 152.17 136.38 153.25 136.92 154.04 C 137.46 154.82 138.54 155.02 139.33 154.48 L 140.16 153.91 C 140.95 153.36 141.15 152.28 140.60 151.50 C 140.06 150.71 138.98 150.51 138.19 151.06 Z M 137.35 151.63 L 136.52 152.22 C 135.74 152.77 135.55 153.85 136.10 154.63 C 136.65 155.42 137.73 155.61 138.52 155.06 L 139.34 154.47 C 140.13 153.92 140.32 152.84 139.77 152.06 C 139.21 151.27 138.13 151.08 137.35 151.63 Z M 136.51 152.22 L 135.70 152.80 C 134.91 153.36 134.73 154.45 135.29 155.23 C 135.85 156.01 136.94 156.19 137.72 155.63 L 138.53 155.05 C 139.31 154.49 139.49 153.41 138.93 152.62 C 138.38 151.84 137.29 151.66 136.51 152.22 Z M 135.68 152.80 L 134.87 153.39 C 134.09 153.96 133.91 155.05 134.48 155.83 C 135.05 156.61 136.14 156.79 136.92 156.22 L 137.74 155.63 C 138.52 155.06 138.69 153.97 138.12 153.19 C 137.55 152.41 136.46 152.23 135.68 152.80 Z M 134.84 153.40 L 134.02 154.02 C 133.24 154.60 133.08 155.70 133.67 156.48 C 134.25 157.25 135.35 157.41 136.12 156.83 L 136.95 156.21 C 137.72 155.63 137.88 154.53 137.30 153.75 C 136.72 152.98 135.62 152.82 134.84 153.40 Z M 133.97 154.04 L 133.20 154.66 C 132.43 155.27 132.31 156.38 132.92 157.14 C 133.53 157.91 134.64 158.03 135.40 157.42 L 136.17 156.80 C 136.94 156.19 137.06 155.08 136.45 154.32 C 135.84 153.56 134.73 153.43 133.97 154.04 Z M 133.12 154.71 L 132.40 155.34 C 131.67 155.99 131.60 157.12 132.25 157.85 C 132.90 158.59 134.02 158.66 134.76 158.01 L 135.48 157.37 C 136.21 156.72 136.28 155.60 135.63 154.86 C 134.98 154.13 133.86 154.06 133.12 154.71 Z M 132.27 155.46 L 131.51 156.28 C 130.83 157.00 130.87 158.13 131.60 158.80 C 132.32 159.48 133.45 159.44 134.12 158.72 L 134.89 157.89 C 135.56 157.17 135.52 156.04 134.80 155.37 C 134.08 154.70 132.95 154.73 132.27 155.46 Z M 131.23 156.65 L 130.78 157.50 C 130.31 158.37 130.64 159.46 131.52 159.92 C 132.39 160.39 133.48 160.06 133.95 159.19 L 134.40 158.34 C 134.86 157.47 134.53 156.38 133.66 155.92 C 132.79 155.45 131.70 155.78 131.23 156.65 Z M 130.57 158.50 L 130.64 159.29 C 130.73 160.28 131.61 161.01 132.60 160.92 C 133.59 160.83 134.32 159.96 134.23 158.97 L 134.16 158.18 C 134.07 157.19 133.19 156.46 132.20 156.55 C 131.21 156.64 130.48 157.51 130.57 158.50 Z M 131.02 160.25 L 131.54 160.90 C 132.16 161.68 133.29 161.81 134.07 161.20 C 134.85 160.58 134.98 159.45 134.36 158.67 L 133.85 158.02 C 133.23 157.24 132.10 157.11 131.32 157.72 C 130.54 158.34 130.41 159.47 131.02 160.25 Z M 131.87 161.22 L 132.69 161.84 C 133.48 162.44 134.61 162.29 135.21 161.50 C 135.81 160.71 135.65 159.58 134.86 158.98 L 134.04 158.36 C 133.25 157.76 132.12 157.91 131.52 158.70 C 130.92 159.49 131.08 160.62 131.87 161.22 Z M 132.86 161.95 L 133.87 162.55 C 134.72 163.05 135.81 162.77 136.32 161.92 C 136.82 161.07 136.54 159.97 135.69 159.47 L 134.69 158.87 C 133.84 158.37 132.74 158.65 132.24 159.50 C 131.73 160.35 132.01 161.45 132.86 161.95 Z M 133.95 162.58 L 134.83 163.05 C 135.70 163.51 136.78 163.18 137.24 162.31 C 137.70 161.44 137.37 160.37 136.50 159.91 L 135.61 159.44 C 134.75 158.98 133.67 159.31 133.21 160.17 C 132.75 161.04 133.08 162.12 133.95 162.58 Z M 134.88 163.06 L 135.78 163.50 C 136.65 163.93 137.71 163.57 138.14 162.70 C 138.57 161.83 138.21 160.77 137.34 160.34 L 136.45 159.90 C 135.58 159.47 134.52 159.82 134.09 160.70 C 133.66 161.57 134.01 162.62 134.88 163.06 Z M 135.82 163.50 L 136.73 163.93 C 137.60 164.33 138.64 163.96 139.05 163.09 C 139.46 162.21 139.08 161.18 138.21 160.77 L 137.30 160.34 C 136.43 159.93 135.39 160.31 134.98 161.18 C 134.57 162.05 134.95 163.09 135.82 163.50 Z M 136.76 163.92 L 137.68 164.33 C 138.55 164.73 139.57 164.34 139.96 163.47 C 140.35 162.60 139.97 161.57 139.10 161.18 L 138.17 160.77 C 137.30 160.38 136.28 160.77 135.89 161.64 C 135.50 162.51 135.89 163.53 136.76 163.92 Z M 137.71 164.32 L 138.62 164.72 C 139.49 165.10 140.49 164.70 140.87 163.84 C 141.24 162.97 140.85 161.97 139.98 161.59 L 139.07 161.19 C 138.20 160.82 137.20 161.21 136.82 162.08 C 136.45 162.94 136.84 163.95 137.71 164.32 Z M 138.65 164.71 L 139.57 165.10 C 140.42 165.46 141.41 165.06 141.77 164.20 C 142.13 163.34 141.73 162.36 140.88 161.99 L 139.96 161.61 C 139.10 161.24 138.11 161.64 137.75 162.50 C 137.39 163.36 137.79 164.35 138.65 164.71 Z M 139.59 165.08 L 140.52 165.46 C 141.36 165.81 142.33 165.40 142.68 164.56 C 143.03 163.71 142.63 162.74 141.78 162.39 L 140.85 162.01 C 140.00 161.66 139.03 162.07 138.69 162.91 C 138.34 163.76 138.74 164.73 139.59 165.08 Z M 140.54 165.44 L 141.47 165.82 C 142.31 166.15 143.26 165.74 143.60 164.90 C 143.93 164.07 143.53 163.11 142.69 162.78 L 141.75 162.41 C 140.91 162.07 139.96 162.48 139.63 163.32 C 139.29 164.16 139.70 165.11 140.54 165.44 Z M 141.50 165.80 L 142.45 166.17 C 143.28 166.50 144.22 166.08 144.54 165.25 C 144.86 164.42 144.45 163.48 143.62 163.16 L 142.67 162.79 C 141.83 162.47 140.90 162.88 140.57 163.71 C 140.25 164.54 140.66 165.48 141.50 165.80 Z M 142.46 166.16 L 143.42 166.53 C 144.24 166.84 145.17 166.43 145.48 165.60 C 145.80 164.77 145.38 163.85 144.56 163.53 L 143.60 163.17 C 142.77 162.86 141.85 163.27 141.54 164.10 C 141.22 164.92 141.64 165.85 142.46 166.16 Z M 143.43 166.51 L 144.37 166.87 C 145.19 167.18 146.10 166.77 146.41 165.95 C 146.72 165.13 146.31 164.21 145.49 163.90 L 144.55 163.55 C 143.73 163.24 142.81 163.65 142.50 164.47 C 142.19 165.29 142.61 166.20 143.43 166.51 Z M 144.37 166.86 L 145.28 167.20 C 146.09 167.51 147.00 167.11 147.31 166.29 C 147.62 165.48 147.21 164.57 146.40 164.26 L 145.49 163.92 C 144.68 163.61 143.77 164.01 143.46 164.83 C 143.15 165.64 143.56 166.55 144.37 166.86 Z M 145.27 167.19 L 146.21 167.56 C 147.02 167.87 147.92 167.47 148.24 166.67 C 148.55 165.87 148.16 164.96 147.35 164.64 L 146.41 164.28 C 145.60 163.96 144.70 164.36 144.38 165.16 C 144.07 165.97 144.47 166.88 145.27 167.19 Z M 146.20 167.55 L 147.14 167.93 C 147.94 168.25 148.85 167.86 149.17 167.06 C 149.50 166.26 149.11 165.35 148.31 165.03 L 147.36 164.65 C 146.56 164.33 145.66 164.72 145.33 165.52 C 145.01 166.32 145.40 167.23 146.20 167.55 Z M 147.13 167.92 L 148.04 168.30 C 148.84 168.63 149.75 168.25 150.08 167.45 C 150.41 166.65 150.03 165.74 149.23 165.41 L 148.32 165.04 C 147.52 164.71 146.61 165.09 146.28 165.89 C 145.95 166.68 146.33 167.60 147.13 167.92 Z M 148.04 168.30 L 148.92 168.66 C 149.71 168.99 150.63 168.62 150.96 167.82 C 151.29 167.03 150.91 166.11 150.12 165.78 L 149.23 165.41 C 148.44 165.08 147.52 165.46 147.19 166.26 C 146.86 167.05 147.24 167.96 148.04 168.30 Z"
      fill="black"
      fill-rule="nonzero" /><path d="M 152.58 129.93 L 153.45 129.92 C 154.40 129.92 155.16 129.14 155.15 128.20 C 155.14 127.25 154.37 126.49 153.42 126.50 L 152.55 126.51 C 151.61 126.52 150.85 127.29 150.86 128.23 C 150.86 129.18 151.64 129.94 152.58 129.93 Z M 153.53 129.94 L 154.45 129.89 C 155.40 129.83 156.13 129.02 156.08 128.07 C 156.03 127.11 155.21 126.39 154.26 126.44 L 153.34 126.49 C 152.39 126.54 151.66 127.36 151.71 128.31 C 151.77 129.26 152.58 129.99 153.53 129.94 Z M 154.59 129.89 L 155.60 129.75 C 156.55 129.62 157.22 128.74 157.09 127.79 C 156.96 126.84 156.08 126.17 155.13 126.30 L 154.12 126.44 C 153.17 126.57 152.50 127.44 152.63 128.40 C 152.76 129.35 153.64 130.02 154.59 129.89 Z M 155.76 129.73 L 156.92 129.47 C 157.86 129.25 158.45 128.30 158.23 127.36 C 158.01 126.41 157.07 125.83 156.13 126.05 L 154.97 126.31 C 154.03 126.53 153.44 127.48 153.66 128.42 C 153.88 129.36 154.82 129.95 155.76 129.73 Z M 157.04 129.44 L 157.88 129.18 C 158.81 128.90 159.33 127.91 159.05 126.98 C 158.76 126.05 157.77 125.53 156.84 125.81 L 156.00 126.07 C 155.07 126.36 154.55 127.34 154.84 128.27 C 155.12 129.20 156.11 129.73 157.04 129.44 Z M 157.95 129.16 L 158.85 128.84 C 159.77 128.52 160.25 127.52 159.93 126.60 C 159.60 125.68 158.60 125.20 157.68 125.52 L 156.78 125.83 C 155.86 126.16 155.38 127.16 155.70 128.08 C 156.02 129.00 157.03 129.48 157.95 129.16 Z M 158.89 128.83 L 159.83 128.47 C 160.74 128.13 161.20 127.11 160.86 126.20 C 160.51 125.29 159.49 124.83 158.58 125.17 L 157.64 125.53 C 156.73 125.88 156.27 126.90 156.61 127.81 C 156.96 128.72 157.98 129.18 158.89 128.83 Z M 159.86 128.46 L 160.83 128.08 C 161.74 127.72 162.18 126.69 161.82 125.78 C 161.46 124.88 160.43 124.44 159.53 124.80 L 158.56 125.18 C 157.65 125.54 157.21 126.57 157.57 127.47 C 157.93 128.38 158.95 128.82 159.86 128.46 Z M 160.84 128.07 L 161.82 127.67 C 162.73 127.31 163.16 126.28 162.79 125.37 C 162.42 124.47 161.40 124.04 160.49 124.40 L 159.51 124.80 C 158.61 125.17 158.18 126.20 158.54 127.10 C 158.91 128.00 159.94 128.44 160.84 128.07 Z M 161.82 127.67 L 162.79 127.28 C 163.70 126.91 164.13 125.88 163.76 124.98 C 163.39 124.07 162.36 123.64 161.46 124.01 L 160.49 124.40 C 159.59 124.77 159.15 125.80 159.52 126.71 C 159.89 127.61 160.92 128.04 161.82 127.67 Z M 162.78 127.28 L 163.82 126.86 C 164.72 126.50 165.16 125.47 164.80 124.57 C 164.44 123.67 163.41 123.23 162.50 123.59 L 161.47 124.01 C 160.56 124.37 160.13 125.40 160.49 126.30 C 160.85 127.20 161.88 127.64 162.78 127.28 Z M 163.80 126.87 L 164.82 126.47 C 165.72 126.11 166.17 125.09 165.82 124.19 C 165.46 123.28 164.44 122.83 163.53 123.19 L 162.52 123.59 C 161.61 123.94 161.17 124.97 161.52 125.87 C 161.88 126.78 162.90 127.22 163.80 126.87 Z M 164.81 126.47 L 165.77 126.10 C 166.68 125.75 167.13 124.73 166.78 123.83 C 166.43 122.92 165.42 122.47 164.51 122.82 L 163.54 123.19 C 162.64 123.54 162.19 124.55 162.53 125.46 C 162.88 126.37 163.90 126.82 164.81 126.47 Z M 165.76 126.10 L 166.67 125.76 C 167.58 125.42 168.03 124.41 167.69 123.50 C 167.35 122.59 166.34 122.13 165.43 122.47 L 164.52 122.82 C 163.62 123.16 163.16 124.17 163.50 125.08 C 163.84 125.98 164.85 126.44 165.76 126.10 Z M 166.66 125.76 L 167.51 125.45 C 168.41 125.11 168.88 124.11 168.54 123.20 C 168.21 122.29 167.20 121.82 166.30 122.16 L 165.45 122.47 C 164.54 122.81 164.07 123.81 164.41 124.72 C 164.74 125.63 165.75 126.09 166.66 125.76 Z M 167.49 125.45 L 168.38 125.13 C 169.29 124.80 169.76 123.80 169.43 122.89 C 169.10 121.98 168.10 121.51 167.19 121.84 L 166.31 122.16 C 165.40 122.49 164.93 123.49 165.26 124.40 C 165.58 125.30 166.59 125.78 167.49 125.45 Z M 168.36 125.13 L 169.39 124.77 C 170.30 124.45 170.78 123.46 170.46 122.55 C 170.14 121.64 169.15 121.16 168.24 121.48 L 167.21 121.84 C 166.30 122.16 165.82 123.15 166.14 124.06 C 166.46 124.97 167.45 125.45 168.36 125.13 Z M 169.37 124.78 L 170.30 124.46 C 171.21 124.16 171.70 123.17 171.39 122.26 C 171.09 121.34 170.10 120.85 169.19 121.16 L 168.26 121.47 C 167.35 121.78 166.85 122.77 167.16 123.68 C 167.47 124.59 168.46 125.08 169.37 124.78 Z M 170.28 124.47 L 171.15 124.18 C 172.07 123.89 172.57 122.91 172.28 122.00 C 171.98 121.08 171.00 120.58 170.09 120.87 L 169.21 121.15 C 168.30 121.45 167.79 122.43 168.09 123.34 C 168.38 124.26 169.36 124.76 170.28 124.47 Z M 171.13 124.19 L 172.03 123.91 C 172.95 123.63 173.46 122.66 173.18 121.75 C 172.90 120.83 171.93 120.31 171.02 120.59 L 170.11 120.87 C 169.20 121.15 168.68 122.12 168.96 123.04 C 169.24 123.95 170.21 124.47 171.13 124.19 Z M 172.01 123.92 L 172.95 123.64 C 173.87 123.38 174.40 122.41 174.13 121.49 C 173.87 120.57 172.90 120.04 171.98 120.31 L 171.04 120.59 C 170.12 120.86 169.59 121.82 169.86 122.74 C 170.13 123.66 171.09 124.19 172.01 123.92 Z M 172.93 123.65 L 173.90 123.38 C 174.82 123.12 175.36 122.17 175.10 121.24 C 174.85 120.32 173.89 119.78 172.97 120.04 L 172.00 120.31 C 171.08 120.57 170.54 121.52 170.80 122.44 C 171.06 123.37 172.01 123.91 172.93 123.65 Z M 173.88 123.38 L 174.87 123.12 C 175.80 122.87 176.35 121.92 176.10 120.99 C 175.85 120.07 174.90 119.52 173.98 119.77 L 172.99 120.03 C 172.06 120.28 171.51 121.23 171.76 122.16 C 172.01 123.08 172.96 123.63 173.88 123.38 Z M 174.86 123.12 L 175.82 122.87 C 176.75 122.63 177.30 121.69 177.06 120.76 C 176.82 119.83 175.88 119.28 174.95 119.52 L 173.99 119.77 C 173.06 120.01 172.51 120.95 172.75 121.88 C 172.99 122.80 173.93 123.36 174.86 123.12 Z M 175.80 122.87 L 176.78 122.63 C 177.71 122.40 178.27 121.47 178.04 120.54 C 177.82 119.61 176.88 119.04 175.95 119.27 L 174.97 119.51 C 174.04 119.74 173.48 120.68 173.71 121.61 C 173.93 122.54 174.87 123.10 175.80 122.87 Z M 176.75 122.64 L 177.73 122.41 C 178.66 122.20 179.24 121.27 179.03 120.34 C 178.82 119.41 177.89 118.83 176.96 119.04 L 175.98 119.27 C 175.04 119.48 174.46 120.41 174.68 121.34 C 174.89 122.27 175.82 122.85 176.75 122.64 Z M 177.69 122.42 L 178.68 122.22 C 179.62 122.02 180.22 121.11 180.03 120.17 C 179.83 119.24 178.92 118.64 177.98 118.83 L 176.99 119.03 C 176.06 119.23 175.46 120.14 175.65 121.08 C 175.84 122.01 176.76 122.61 177.69 122.42 Z M 178.64 122.22 L 179.65 122.04 C 180.59 121.87 181.21 120.97 181.04 120.03 C 180.87 119.09 179.97 118.47 179.03 118.64 L 178.03 118.82 C 177.09 118.99 176.46 119.89 176.63 120.83 C 176.80 121.77 177.70 122.39 178.64 122.22 Z M 179.60 122.05 L 180.58 121.90 C 181.53 121.76 182.18 120.88 182.03 119.93 C 181.89 118.99 181.01 118.34 180.07 118.48 L 179.08 118.63 C 178.14 118.78 177.49 119.66 177.63 120.60 C 177.77 121.54 178.65 122.19 179.60 122.05 Z M 180.53 121.91 L 181.50 121.79 C 182.44 121.68 183.12 120.82 183.00 119.87 C 182.89 118.92 182.03 118.25 181.08 118.36 L 180.12 118.48 C 179.17 118.59 178.50 119.45 178.61 120.40 C 178.73 121.35 179.59 122.02 180.53 121.91 Z M 181.44 121.80 L 182.36 121.71 C 183.31 121.63 184.01 120.79 183.92 119.84 C 183.84 118.89 183.00 118.19 182.05 118.27 L 181.14 118.36 C 180.19 118.44 179.49 119.28 179.57 120.23 C 179.66 121.18 180.49 121.88 181.44 121.80 Z M 182.31 121.72 L 183.24 121.66 C 184.19 121.60 184.92 120.79 184.86 119.84 C 184.80 118.88 183.99 118.16 183.04 118.22 L 182.10 118.27 C 181.15 118.33 180.42 119.15 180.48 120.10 C 180.54 121.05 181.35 121.77 182.31 121.72 Z M 183.20 121.66 L 184.22 121.63 C 185.17 121.59 185.92 120.79 185.88 119.84 C 185.85 118.89 185.05 118.14 184.10 118.18 L 183.08 118.21 C 182.12 118.25 181.38 119.05 181.41 120.00 C 181.45 120.95 182.25 121.70 183.20 121.66 Z M 184.19 121.63 L 185.29 121.61 C 186.24 121.59 187.00 120.80 186.98 119.85 C 186.96 118.90 186.17 118.14 185.22 118.16 L 184.13 118.18 C 183.17 118.19 182.42 118.98 182.43 119.93 C 182.45 120.89 183.24 121.65 184.19 121.63 Z M 185.26 121.61 L 186.19 121.60 C 187.14 121.60 187.91 120.82 187.90 119.87 C 187.90 118.91 187.12 118.15 186.17 118.15 L 185.24 118.16 C 184.29 118.16 183.52 118.94 183.53 119.89 C 183.53 120.84 184.31 121.61 185.26 121.61 Z M 186.14 121.60 L 187.13 121.62 C 188.09 121.64 188.87 120.88 188.89 119.93 C 188.91 118.98 188.15 118.19 187.20 118.17 L 186.21 118.15 C 185.26 118.13 184.47 118.89 184.45 119.84 C 184.43 120.80 185.19 121.58 186.14 121.60 Z M 187.07 121.62 L 188.09 121.68 C 189.05 121.73 189.86 121.00 189.92 120.05 C 189.97 119.10 189.24 118.28 188.29 118.23 L 187.26 118.17 C 186.31 118.12 185.50 118.85 185.44 119.80 C 185.39 120.75 186.12 121.56 187.07 121.62 Z M 188.00 121.67 L 189.04 121.78 C 189.99 121.89 190.84 121.20 190.94 120.25 C 191.05 119.31 190.36 118.46 189.42 118.35 L 188.38 118.24 C 187.43 118.13 186.58 118.82 186.48 119.77 C 186.37 120.71 187.06 121.57 188.00 121.67 Z M 188.92 121.77 L 189.95 121.95 C 190.88 122.12 191.78 121.50 191.95 120.56 C 192.12 119.62 191.50 118.72 190.56 118.55 L 189.54 118.37 C 188.60 118.20 187.70 118.82 187.53 119.76 C 187.36 120.70 187.98 121.60 188.92 121.77 Z M 189.80 121.92 L 190.79 122.19 C 191.71 122.44 192.66 121.90 192.91 120.98 C 193.16 120.06 192.62 119.11 191.70 118.86 L 190.71 118.59 C 189.79 118.34 188.84 118.88 188.59 119.80 C 188.34 120.72 188.88 121.67 189.80 121.92 Z M 190.63 122.14 L 191.58 122.50 C 192.47 122.84 193.47 122.39 193.81 121.50 C 194.15 120.61 193.70 119.61 192.81 119.27 L 191.86 118.91 C 190.97 118.57 189.97 119.02 189.63 119.91 C 189.30 120.80 189.74 121.80 190.63 122.14 Z M 191.42 122.43 L 192.31 122.87 C 193.16 123.30 194.19 122.96 194.62 122.11 C 195.05 121.26 194.71 120.22 193.86 119.79 L 192.97 119.34 C 192.12 118.91 191.08 119.26 190.65 120.11 C 190.22 120.96 190.57 122.00 191.42 122.43 Z M 192.14 122.78 L 192.96 123.31 C 193.76 123.83 194.83 123.61 195.35 122.81 C 195.87 122.01 195.65 120.94 194.85 120.42 L 194.03 119.89 C 193.23 119.37 192.16 119.59 191.64 120.39 C 191.12 121.19 191.34 122.26 192.14 122.78 Z M 192.80 123.19 L 193.55 123.82 C 194.28 124.43 195.37 124.33 195.98 123.60 C 196.59 122.87 196.49 121.78 195.76 121.17 L 195.01 120.54 C 194.28 119.93 193.19 120.03 192.58 120.76 C 191.97 121.49 192.07 122.58 192.80 123.19 Z M 193.39 123.67 L 194.05 124.37 C 194.70 125.07 195.80 125.10 196.49 124.45 C 197.18 123.79 197.22 122.70 196.56 122.01 L 195.91 121.31 C 195.26 120.61 194.16 120.58 193.47 121.23 C 192.77 121.89 192.74 122.98 193.39 123.67 Z M 193.93 124.23 L 194.51 125.00 C 195.08 125.76 196.16 125.92 196.93 125.34 C 197.69 124.77 197.84 123.69 197.27 122.93 L 196.69 122.15 C 196.11 121.39 195.03 121.24 194.27 121.81 C 193.51 122.38 193.35 123.46 193.93 124.23 Z M 194.42 124.86 L 194.93 125.71 C 195.43 126.52 196.49 126.78 197.30 126.28 C 198.12 125.79 198.38 124.72 197.88 123.91 L 197.36 123.06 C 196.87 122.25 195.80 121.99 194.99 122.49 C 194.18 122.99 193.92 124.05 194.42 124.86 Z M 194.86 125.58 L 195.32 126.49 C 195.75 127.35 196.78 127.69 197.64 127.26 C 198.49 126.84 198.83 125.80 198.41 124.95 L 197.95 124.04 C 197.52 123.18 196.48 122.84 195.63 123.27 C 194.78 123.69 194.44 124.73 194.86 125.58 Z M 195.27 126.39 L 195.67 127.35 C 196.04 128.23 197.05 128.65 197.93 128.28 C 198.81 127.92 199.23 126.90 198.86 126.02 L 198.46 125.06 C 198.09 124.18 197.08 123.76 196.20 124.13 C 195.32 124.50 194.90 125.51 195.27 126.39 Z M 195.64 127.26 L 195.99 128.25 C 196.30 129.15 197.29 129.62 198.19 129.30 C 199.09 128.99 199.56 128.00 199.24 127.10 L 198.89 126.12 C 198.58 125.22 197.59 124.74 196.69 125.06 C 195.79 125.38 195.32 126.36 195.64 127.26 Z M 195.96 128.18 L 196.27 129.18 C 196.54 130.09 197.51 130.61 198.42 130.33 C 199.33 130.05 199.85 129.09 199.57 128.18 L 199.27 127.17 C 198.99 126.26 198.03 125.75 197.11 126.02 C 196.20 126.30 195.69 127.26 195.96 128.18 Z M 196.25 129.12 L 196.51 130.12 C 196.76 131.04 197.70 131.59 198.62 131.35 C 199.54 131.11 200.09 130.16 199.85 129.24 L 199.59 128.24 C 199.34 127.32 198.40 126.77 197.48 127.01 C 196.56 127.25 196.01 128.20 196.25 129.12 Z M 196.50 130.07 L 196.73 131.04 C 196.94 131.97 197.87 132.55 198.80 132.34 C 199.72 132.12 200.30 131.20 200.09 130.27 L 199.86 129.29 C 199.65 128.36 198.72 127.78 197.79 128.00 C 196.87 128.21 196.29 129.14 196.50 130.07 Z M 196.72 131.00 L 196.90 131.92 C 197.09 132.86 198.00 133.46 198.94 133.27 C 199.87 133.08 200.48 132.17 200.29 131.24 L 200.10 130.31 C 199.91 129.38 199.00 128.78 198.06 128.96 C 197.13 129.15 196.53 130.06 196.72 131.00 Z M 196.89 131.87 L 197.07 132.88 C 197.23 133.82 198.13 134.45 199.07 134.29 C 200.01 134.12 200.63 133.23 200.47 132.29 L 200.29 131.28 C 200.13 130.34 199.24 129.71 198.30 129.88 C 197.36 130.04 196.73 130.94 196.89 131.87 Z M 197.06 132.83 L 197.21 133.87 C 197.34 134.82 198.22 135.47 199.16 135.34 C 200.10 135.21 200.76 134.33 200.63 133.39 L 200.48 132.34 C 200.35 131.40 199.47 130.74 198.53 130.87 C 197.58 131.01 196.93 131.88 197.06 132.83 Z M 197.20 133.82 L 197.30 134.77 C 197.41 135.72 198.26 136.40 199.21 136.30 C 200.15 136.20 200.84 135.34 200.74 134.40 L 200.63 133.45 C 200.53 132.50 199.68 131.81 198.73 131.91 C 197.78 132.02 197.10 132.87 197.20 133.82 Z M 197.30 134.73 L 197.38 135.65 C 197.46 136.60 198.29 137.30 199.24 137.22 C 200.19 137.14 200.90 136.31 200.82 135.36 L 200.74 134.44 C 200.66 133.49 199.83 132.78 198.88 132.86 C 197.93 132.94 197.22 133.78 197.30 134.73 Z M 197.38 135.63 L 197.45 136.60 C 197.52 137.55 198.35 138.26 199.30 138.19 C 200.25 138.12 200.96 137.29 200.89 136.34 L 200.82 135.37 C 200.75 134.42 199.92 133.71 198.97 133.78 C 198.02 133.85 197.30 134.68 197.38 135.63 Z M 197.45 136.59 L 197.52 137.59 C 197.58 138.54 198.40 139.26 199.36 139.20 C 200.31 139.13 201.03 138.31 200.96 137.36 L 200.89 136.35 C 200.83 135.40 200.00 134.68 199.05 134.75 C 198.10 134.81 197.38 135.63 197.45 136.59 Z M 197.51 137.58 L 197.57 138.59 C 197.63 139.54 198.45 140.27 199.40 140.21 C 200.35 140.15 201.08 139.34 201.02 138.38 L 200.96 137.38 C 200.91 136.42 200.09 135.70 199.14 135.75 C 198.19 135.81 197.46 136.62 197.51 137.58 Z M 197.57 138.56 L 197.62 139.56 C 197.66 140.51 198.47 141.25 199.42 141.20 C 200.37 141.16 201.11 140.35 201.07 139.40 L 201.02 138.41 C 200.98 137.46 200.17 136.72 199.22 136.76 C 198.27 136.80 197.53 137.61 197.57 138.56 Z M 197.62 139.52 L 197.64 140.55 C 197.67 141.50 198.46 142.25 199.41 142.23 C 200.37 142.20 201.12 141.41 201.10 140.46 L 201.07 139.43 C 201.04 138.48 200.25 137.73 199.30 137.75 C 198.34 137.78 197.59 138.57 197.62 139.52 Z M 197.64 140.52 L 197.65 141.51 C 197.66 142.47 198.45 143.23 199.40 143.22 C 200.35 143.21 201.12 142.43 201.11 141.47 L 201.10 140.48 C 201.09 139.53 200.30 138.76 199.35 138.77 C 198.40 138.79 197.63 139.57 197.64 140.52 Z M 197.65 141.50 L 197.66 142.48 C 197.66 143.43 198.43 144.21 199.39 144.20 C 200.34 144.20 201.11 143.43 201.11 142.47 L 201.11 141.49 C 201.11 140.53 200.33 139.76 199.38 139.76 C 198.42 139.77 197.65 140.54 197.65 141.50 Z M 197.66 142.48 L 197.66 143.46 C 197.66 144.42 198.43 145.19 199.38 145.19 C 200.34 145.19 201.11 144.42 201.11 143.46 L 201.11 142.48 C 201.11 141.52 200.34 140.75 199.38 140.75 C 198.43 140.75 197.66 141.52 197.66 142.48 Z M 197.66 143.46 L 197.66 144.47 C 197.66 145.42 198.43 146.19 199.38 146.19 C 200.34 146.19 201.11 145.42 201.11 144.47 L 201.11 143.46 C 201.11 142.51 200.34 141.74 199.38 141.74 C 198.43 141.74 197.66 142.51 197.66 143.46 Z M 197.66 144.47 L 197.66 145.47 C 197.66 146.43 198.43 147.20 199.38 147.20 C 200.34 147.20 201.11 146.43 201.11 145.47 L 201.11 144.47 C 201.11 143.51 200.34 142.74 199.38 142.74 C 198.43 142.74 197.66 143.51 197.66 144.47 Z M 197.66 145.47 L 197.66 146.48 C 197.66 147.43 198.43 148.20 199.38 148.20 C 200.34 148.20 201.11 147.43 201.11 146.48 L 201.11 145.47 C 201.11 144.52 200.34 143.74 199.38 143.74 C 198.43 143.74 197.66 144.52 197.66 145.47 Z M 197.66 146.48 L 197.66 147.48 C 197.66 148.44 198.43 149.21 199.38 149.21 C 200.34 149.21 201.11 148.44 201.11 147.48 L 201.11 146.48 C 201.11 145.52 200.34 144.75 199.38 144.75 C 198.43 144.75 197.66 145.52 197.66 146.48 Z M 197.66 147.48 L 197.66 148.48 C 197.66 149.43 198.43 150.21 199.38 150.21 C 200.34 150.21 201.11 149.43 201.11 148.48 L 201.11 147.48 C 201.11 146.53 200.34 145.75 199.38 145.75 C 198.43 145.75 197.66 146.53 197.66 147.48 Z M 197.66 148.48 L 197.66 149.47 C 197.66 150.43 198.43 151.20 199.38 151.20 C 200.34 151.20 201.11 150.43 201.11 149.47 L 201.11 148.48 C 201.11 147.53 200.34 146.75 199.38 146.75 C 198.43 146.75 197.66 147.53 197.66 148.48 Z M 197.66 149.47 L 197.65 150.47 C 197.65 151.43 198.42 152.20 199.38 152.21 C 200.33 152.21 201.10 151.44 201.11 150.48 L 201.11 149.48 C 201.11 148.52 200.34 147.75 199.39 147.75 C 198.43 147.74 197.66 148.51 197.66 149.47 Z M 197.65 150.45 L 197.63 151.45 C 197.62 152.40 198.38 153.19 199.33 153.21 C 200.28 153.22 201.07 152.46 201.09 151.51 L 201.11 150.51 C 201.12 149.56 200.36 148.77 199.41 148.75 C 198.46 148.73 197.67 149.49 197.65 150.45 Z M 197.64 151.40 L 197.59 152.39 C 197.54 153.34 198.28 154.15 199.23 154.20 C 200.18 154.25 200.99 153.51 201.04 152.56 L 201.09 151.56 C 201.13 150.61 200.40 149.80 199.45 149.75 C 198.49 149.71 197.68 150.44 197.64 151.40 Z M 197.59 152.32 L 197.50 153.30 C 197.42 154.25 198.12 155.09 199.07 155.18 C 200.02 155.27 200.86 154.57 200.94 153.62 L 201.03 152.63 C 201.12 151.68 200.42 150.84 199.47 150.75 C 198.52 150.67 197.68 151.37 197.59 152.32 Z M 197.51 153.24 L 197.38 154.22 C 197.26 155.17 197.93 156.03 198.88 156.15 C 199.82 156.27 200.69 155.60 200.81 154.66 L 200.94 153.68 C 201.06 152.73 200.39 151.87 199.44 151.74 C 198.50 151.62 197.63 152.29 197.51 153.24 Z M 197.39 154.19 L 197.25 155.19 C 197.11 156.13 197.77 157.01 198.71 157.14 C 199.66 157.28 200.53 156.62 200.67 155.68 L 200.81 154.68 C 200.94 153.74 200.29 152.86 199.34 152.73 C 198.40 152.59 197.52 153.25 197.39 154.19 Z M 197.24 155.20 L 197.11 156.16 C 196.98 157.10 197.64 157.97 198.59 158.10 C 199.53 158.23 200.40 157.57 200.53 156.63 L 200.67 155.67 C 200.80 154.73 200.14 153.85 199.19 153.72 C 198.25 153.59 197.38 154.25 197.24 155.20 Z M 197.11 156.17 L 196.99 157.08 C 196.87 158.03 197.54 158.89 198.48 159.02 C 199.43 159.14 200.29 158.47 200.42 157.53 L 200.53 156.61 C 200.66 155.67 199.99 154.80 199.05 154.68 C 198.10 154.56 197.23 155.23 197.11 156.17 Z M 197.00 157.08 L 196.87 158.05 C 196.74 159.00 197.41 159.86 198.35 159.99 C 199.29 160.11 200.16 159.45 200.28 158.51 L 200.41 157.53 C 200.54 156.59 199.87 155.72 198.93 155.60 C 197.99 155.47 197.12 156.14 197.00 157.08 Z M 196.87 158.03 L 196.72 159.10 C 196.58 160.04 197.23 160.91 198.17 161.05 C 199.12 161.18 199.99 160.53 200.13 159.59 L 200.28 158.53 C 200.42 157.59 199.76 156.71 198.82 156.58 C 197.88 156.44 197.01 157.09 196.87 158.03 Z M 196.72 159.07 L 196.57 160.04 C 196.42 160.97 197.05 161.86 197.99 162.01 C 198.93 162.16 199.81 161.52 199.96 160.59 L 200.12 159.62 C 200.27 158.68 199.63 157.80 198.70 157.65 C 197.76 157.50 196.87 158.13 196.72 159.07 Z M 196.57 160.01 L 196.42 160.89 C 196.25 161.83 196.87 162.72 197.81 162.88 C 198.74 163.05 199.64 162.43 199.80 161.49 L 199.96 160.61 C 200.12 159.68 199.50 158.78 198.57 158.62 C 197.63 158.45 196.74 159.08 196.57 160.01 Z M 196.42 160.87 L 196.24 161.81 C 196.06 162.74 196.67 163.64 197.61 163.82 C 198.54 164.00 199.44 163.39 199.62 162.45 L 199.80 161.51 C 199.97 160.58 199.36 159.68 198.43 159.50 C 197.50 159.33 196.60 159.94 196.42 160.87 Z M 196.25 161.78 L 196.04 162.78 C 195.85 163.71 196.45 164.62 197.38 164.81 C 198.30 165.00 199.21 164.40 199.40 163.48 L 199.61 162.48 C 199.80 161.55 199.20 160.64 198.28 160.45 C 197.35 160.26 196.44 160.86 196.25 161.78 Z M 196.05 162.76 L 195.82 163.82 C 195.61 164.74 196.20 165.66 197.12 165.86 C 198.05 166.06 198.96 165.48 199.16 164.55 L 199.40 163.50 C 199.60 162.57 199.02 161.66 198.09 161.45 C 197.17 161.25 196.25 161.83 196.05 162.76 Z M 195.82 163.79 L 195.56 164.90 C 195.34 165.82 195.92 166.74 196.84 166.96 C 197.76 167.18 198.68 166.61 198.90 165.68 L 199.16 164.58 C 199.37 163.66 198.80 162.73 197.88 162.52 C 196.96 162.30 196.04 162.87 195.82 163.79 Z M 195.57 164.88 L 195.32 165.86 C 195.10 166.78 195.66 167.71 196.57 167.93 C 197.49 168.16 198.42 167.60 198.65 166.69 L 198.89 165.70 C 199.12 164.79 198.56 163.86 197.64 163.63 C 196.72 163.40 195.80 163.96 195.57 164.88 Z M 195.33 165.84 L 195.07 166.84 C 194.83 167.76 195.38 168.69 196.30 168.93 C 197.21 169.17 198.14 168.62 198.38 167.70 L 198.64 166.70 C 198.88 165.79 198.33 164.86 197.42 164.62 C 196.50 164.38 195.57 164.93 195.33 165.84 Z M 195.08 166.83 L 194.81 167.83 C 194.56 168.74 195.10 169.68 196.01 169.93 C 196.92 170.17 197.85 169.63 198.10 168.73 L 198.37 167.72 C 198.62 166.81 198.08 165.87 197.17 165.63 C 196.26 165.38 195.33 165.92 195.08 166.83 Z M 194.81 167.82 L 194.53 168.80 C 194.28 169.71 194.80 170.65 195.71 170.91 C 196.61 171.16 197.56 170.64 197.81 169.73 L 198.09 168.74 C 198.35 167.84 197.82 166.90 196.92 166.64 C 196.01 166.38 195.07 166.91 194.81 167.82 Z M 194.54 168.79 L 194.26 169.74 C 193.99 170.64 194.51 171.59 195.41 171.85 C 196.31 172.12 197.25 171.60 197.52 170.70 L 197.80 169.75 C 198.07 168.85 197.56 167.90 196.66 167.64 C 195.75 167.37 194.81 167.89 194.54 168.79 Z M 194.27 169.72 L 193.99 170.62 C 193.71 171.52 194.21 172.47 195.11 172.74 C 196.00 173.02 196.95 172.52 197.23 171.63 L 197.51 170.73 C 197.79 169.83 197.29 168.88 196.39 168.60 C 195.50 168.32 194.55 168.82 194.27 169.72 Z M 194.00 170.59 L 193.67 171.61 C 193.37 172.49 193.85 173.45 194.74 173.74 C 195.63 174.04 196.58 173.56 196.88 172.67 L 197.22 171.66 C 197.51 170.77 197.03 169.81 196.14 169.52 C 195.26 169.22 194.30 169.70 194.00 170.59 Z M 193.70 171.56 L 193.30 172.62 C 192.98 173.49 193.43 174.46 194.30 174.78 C 195.17 175.10 196.13 174.66 196.46 173.79 L 196.85 172.72 C 197.17 171.85 196.73 170.88 195.86 170.56 C 194.99 170.24 194.02 170.68 193.70 171.56 Z M 193.35 172.53 L 192.95 173.45 C 192.58 174.30 192.97 175.28 193.81 175.65 C 194.66 176.02 195.64 175.63 196.01 174.79 L 196.41 173.87 C 196.78 173.03 196.39 172.04 195.55 171.67 C 194.70 171.30 193.72 171.69 193.35 172.53 Z M 193.02 173.34 L 192.60 174.13 C 192.16 174.93 192.46 175.94 193.27 176.37 C 194.07 176.80 195.08 176.50 195.51 175.70 L 195.94 174.90 C 196.37 174.10 196.07 173.10 195.26 172.66 C 194.46 172.23 193.45 172.53 193.02 173.34 Z M 192.70 173.98 L 192.22 174.68 C 191.71 175.43 191.90 176.45 192.64 176.96 C 193.39 177.48 194.42 177.29 194.93 176.54 L 195.41 175.84 C 195.92 175.09 195.73 174.07 194.98 173.56 C 194.24 173.04 193.21 173.23 192.70 173.98 Z M 192.38 174.50 L 191.67 175.26 C 191.06 175.92 191.10 176.95 191.76 177.56 C 192.42 178.17 193.45 178.14 194.06 177.48 L 194.77 176.72 C 195.38 176.06 195.34 175.03 194.68 174.41 C 194.02 173.80 192.99 173.84 192.38 174.50 Z M 191.90 175.07 L 191.10 175.67 C 190.39 176.21 190.24 177.22 190.78 177.93 C 191.31 178.65 192.33 178.79 193.04 178.26 L 193.84 177.66 C 194.55 177.13 194.70 176.11 194.16 175.40 C 193.63 174.68 192.61 174.54 191.90 175.07 Z M 191.37 175.52 L 190.50 175.94 C 189.70 176.33 189.37 177.29 189.75 178.09 C 190.14 178.89 191.10 179.22 191.90 178.83 L 192.77 178.41 C 193.57 178.02 193.90 177.06 193.52 176.26 C 193.13 175.47 192.17 175.13 191.37 175.52 Z M 190.81 175.84 L 189.85 176.09 C 189.00 176.30 188.48 177.17 188.70 178.02 C 188.91 178.88 189.78 179.39 190.63 179.18 L 191.59 178.93 C 192.45 178.72 192.96 177.85 192.74 177.00 C 192.53 176.14 191.66 175.63 190.81 175.84 Z M 190.17 176.05 L 189.17 176.09 C 188.30 176.13 187.62 176.87 187.66 177.74 C 187.70 178.62 188.44 179.29 189.31 179.26 L 190.31 179.21 C 191.18 179.17 191.86 178.44 191.82 177.56 C 191.79 176.69 191.05 176.01 190.17 176.05 Z M 189.50 176.12 L 188.52 175.96 C 187.66 175.82 186.85 176.39 186.71 177.25 C 186.57 178.11 187.14 178.92 188.00 179.06 L 188.98 179.23 C 189.84 179.37 190.65 178.79 190.79 177.93 C 190.94 177.08 190.36 176.27 189.50 176.12 Z M 188.84 176.06 L 187.99 175.72 C 187.19 175.40 186.28 175.80 185.96 176.60 C 185.64 177.40 186.03 178.31 186.84 178.63 L 187.68 178.96 C 188.49 179.28 189.40 178.89 189.71 178.09 C 190.03 177.28 189.64 176.37 188.84 176.06 Z M 188.26 175.86 L 187.55 175.41 C 186.83 174.94 185.86 175.15 185.40 175.87 C 184.93 176.60 185.14 177.56 185.86 178.03 L 186.57 178.49 C 187.29 178.95 188.26 178.75 188.72 178.02 C 189.19 177.30 188.98 176.33 188.26 175.86 Z M 187.75 175.56 L 187.04 174.92 C 186.40 174.35 185.41 174.41 184.84 175.05 C 184.26 175.69 184.32 176.68 184.96 177.25 L 185.67 177.88 C 186.31 178.46 187.30 178.40 187.87 177.76 C 188.45 177.12 188.39 176.13 187.75 175.56 Z M 187.16 175.05 L 186.42 174.21 C 185.84 173.57 184.85 173.52 184.21 174.09 C 183.57 174.67 183.52 175.65 184.09 176.30 L 184.84 177.13 C 185.41 177.77 186.40 177.83 187.04 177.25 C 187.69 176.67 187.74 175.69 187.16 175.05 Z M 186.48 174.29 L 185.79 173.41 C 185.26 172.73 184.27 172.62 183.60 173.15 C 182.92 173.68 182.80 174.67 183.34 175.34 L 184.03 176.22 C 184.56 176.90 185.54 177.01 186.22 176.48 C 186.90 175.95 187.01 174.97 186.48 174.29 Z M 185.82 173.45 L 185.28 172.72 C 184.77 172.02 183.79 171.88 183.10 172.39 C 182.40 172.90 182.26 173.87 182.77 174.57 L 183.31 175.30 C 183.82 176.00 184.79 176.15 185.49 175.63 C 186.18 175.12 186.33 174.15 185.82 173.45 Z M 185.30 172.75 L 184.74 171.95 C 184.24 171.24 183.27 171.07 182.56 171.57 C 181.86 172.06 181.69 173.04 182.18 173.74 L 182.75 174.54 C 183.24 175.25 184.22 175.42 184.92 174.92 C 185.63 174.42 185.80 173.45 185.30 172.75 Z M 184.75 171.97 L 184.18 171.12 C 183.70 170.41 182.73 170.22 182.02 170.70 C 181.30 171.18 181.11 172.15 181.59 172.87 L 182.17 173.72 C 182.65 174.43 183.62 174.62 184.33 174.14 C 185.05 173.66 185.24 172.69 184.75 171.97 Z M 184.20 171.15 L 183.63 170.27 C 183.16 169.54 182.19 169.34 181.47 169.81 C 180.74 170.28 180.54 171.24 181.01 171.97 L 181.58 172.85 C 182.05 173.57 183.02 173.77 183.74 173.30 C 184.46 172.83 184.67 171.87 184.20 171.15 Z M 183.64 170.29 L 183.08 169.39 C 182.62 168.66 181.66 168.44 180.93 168.90 C 180.20 169.35 179.98 170.32 180.43 171.05 L 180.99 171.94 C 181.45 172.67 182.41 172.90 183.14 172.44 C 183.87 171.98 184.10 171.02 183.64 170.29 Z M 183.10 169.42 L 182.56 168.53 C 182.12 167.79 181.16 167.55 180.42 167.99 C 179.68 168.43 179.44 169.39 179.88 170.13 L 180.42 171.02 C 180.86 171.76 181.82 172.00 182.56 171.56 C 183.30 171.12 183.54 170.16 183.10 169.42 Z M 182.58 168.56 L 182.02 167.57 C 181.59 166.83 180.64 166.56 179.89 166.99 C 179.14 167.42 178.88 168.37 179.31 169.12 L 179.87 170.10 C 180.29 170.85 181.25 171.11 182.00 170.69 C 182.75 170.26 183.01 169.31 182.58 168.56 Z M 182.04 167.61 L 181.51 166.63 C 181.10 165.87 180.15 165.59 179.39 166.00 C 178.63 166.41 178.35 167.35 178.76 168.11 L 179.29 169.09 C 179.70 169.85 180.65 170.13 181.41 169.72 C 182.16 169.31 182.45 168.36 182.04 167.61 Z M 181.52 166.66 L 181.04 165.72 C 180.65 164.96 179.71 164.66 178.94 165.05 C 178.17 165.45 177.87 166.39 178.27 167.15 L 178.75 168.08 C 179.14 168.85 180.08 169.15 180.85 168.76 C 181.62 168.36 181.92 167.42 181.52 166.66 Z M 181.05 165.75 L 180.62 164.87 C 180.24 164.10 179.31 163.78 178.53 164.16 C 177.76 164.54 177.44 165.48 177.82 166.25 L 178.25 167.13 C 178.64 167.90 179.57 168.22 180.34 167.84 C 181.12 167.46 181.44 166.52 181.05 165.75 Z M 180.63 164.89 L 180.25 164.08 C 179.88 163.30 178.94 162.97 178.17 163.34 C 177.39 163.71 177.06 164.64 177.43 165.42 L 177.81 166.23 C 178.18 167.01 179.11 167.34 179.89 166.97 C 180.67 166.60 181.00 165.67 180.63 164.89 Z M 180.25 164.09 L 179.89 163.32 C 179.53 162.53 178.60 162.19 177.82 162.55 C 177.04 162.92 176.70 163.84 177.06 164.63 L 177.42 165.40 C 177.78 166.19 178.71 166.53 179.49 166.16 C 180.27 165.80 180.61 164.88 180.25 164.09 Z M 179.90 163.33 L 179.42 162.28 C 179.07 161.49 178.14 161.15 177.36 161.50 C 176.57 161.86 176.22 162.78 176.58 163.57 L 177.05 164.61 C 177.41 165.40 178.33 165.75 179.12 165.39 C 179.90 165.04 180.25 164.11 179.90 163.33 Z M 179.43 162.29 L 179.03 161.39 C 178.68 160.60 177.76 160.24 176.97 160.59 C 176.19 160.94 175.83 161.86 176.17 162.65 L 176.57 163.55 C 176.92 164.34 177.84 164.70 178.63 164.35 C 179.42 164.00 179.78 163.08 179.43 162.29 Z M 179.04 161.40 L 178.68 160.58 C 178.34 159.78 177.42 159.42 176.63 159.76 C 175.84 160.10 175.47 161.02 175.82 161.81 L 176.17 162.64 C 176.51 163.43 177.43 163.79 178.22 163.45 C 179.01 163.11 179.38 162.19 179.04 161.40 Z M 178.68 160.58 L 178.54 160.24 C 178.20 159.45 177.28 159.08 176.49 159.42 C 175.70 159.76 175.33 160.68 175.67 161.47 L 175.81 161.81 C 176.15 162.60 177.07 162.97 177.86 162.63 C 178.66 162.29 179.02 161.37 178.68 160.58 Z"
      fill="black"
      fill-rule="nonzero" /><path d="M 177.17 131.39 L 176.67 130.27 C 176.30 129.42 175.32 129.04 174.48 129.41 C 173.63 129.78 173.25 130.77 173.62 131.61 L 174.12 132.74 C 174.49 133.58 175.47 133.96 176.32 133.59 C 177.16 133.22 177.54 132.24 177.17 131.39 Z M 176.56 130.03 L 176.04 129.22 C 175.53 128.44 174.49 128.22 173.71 128.72 C 172.93 129.22 172.71 130.26 173.21 131.04 L 173.74 131.85 C 174.24 132.63 175.28 132.86 176.06 132.35 C 176.84 131.85 177.06 130.81 176.56 130.03 Z M 175.17 128.52 L 174.62 128.34 C 173.73 128.04 172.77 128.51 172.47 129.40 C 172.17 130.29 172.64 131.25 173.53 131.55 L 174.08 131.74 C 174.97 132.04 175.93 131.56 176.23 130.67 C 176.53 129.79 176.06 128.82 175.17 128.52 Z M 172.98 128.61 L 172.44 129.06 C 171.70 129.66 171.59 130.74 172.19 131.48 C 172.80 132.22 173.88 132.32 174.62 131.72 L 175.16 131.28 C 175.90 130.68 176.01 129.59 175.41 128.86 C 174.80 128.12 173.72 128.01 172.98 128.61 Z M 172.04 129.47 L 171.46 130.39 C 170.95 131.21 171.21 132.29 172.03 132.80 C 172.85 133.31 173.93 133.06 174.44 132.24 L 175.02 131.31 C 175.53 130.49 175.27 129.41 174.45 128.90 C 173.63 128.39 172.55 128.64 172.04 129.47 Z M 171.33 130.57 L 170.79 131.75 C 170.39 132.65 170.78 133.70 171.68 134.11 C 172.57 134.52 173.63 134.13 174.04 133.23 L 174.58 132.05 C 174.98 131.16 174.59 130.10 173.69 129.69 C 172.80 129.28 171.74 129.68 171.33 130.57 Z M 170.74 131.84 L 170.38 132.75 C 170.02 133.68 170.48 134.72 171.41 135.08 C 172.33 135.44 173.37 134.99 173.74 134.06 L 174.09 133.15 C 174.45 132.22 174.00 131.18 173.07 130.82 C 172.14 130.45 171.10 130.91 170.74 131.84 Z M 170.36 132.80 L 170.01 133.77 C 169.68 134.71 170.17 135.74 171.11 136.08 C 172.05 136.41 173.08 135.92 173.41 134.98 L 173.76 134.01 C 174.09 133.07 173.60 132.04 172.67 131.71 C 171.73 131.37 170.69 131.86 170.36 132.80 Z M 170.00 133.80 L 169.67 134.78 C 169.35 135.73 169.86 136.76 170.81 137.07 C 171.76 137.39 172.79 136.88 173.10 135.93 L 173.43 134.95 C 173.75 134.00 173.24 132.97 172.29 132.66 C 171.34 132.34 170.31 132.85 170.00 133.80 Z M 169.66 134.81 L 169.35 135.76 C 169.05 136.72 169.57 137.74 170.53 138.04 C 171.49 138.35 172.51 137.82 172.81 136.87 L 173.12 135.91 C 173.42 134.95 172.89 133.93 171.94 133.63 C 170.98 133.32 169.96 133.85 169.66 134.81 Z M 169.34 135.78 L 169.04 136.73 C 168.75 137.70 169.29 138.72 170.25 139.01 C 171.21 139.31 172.23 138.77 172.53 137.81 L 172.82 136.85 C 173.12 135.89 172.58 134.87 171.62 134.57 C 170.66 134.28 169.64 134.81 169.34 135.78 Z M 169.04 136.74 L 168.72 137.79 C 168.43 138.75 168.97 139.77 169.94 140.06 C 170.90 140.35 171.92 139.81 172.22 138.84 L 172.53 137.80 C 172.82 136.84 172.28 135.82 171.31 135.53 C 170.35 135.23 169.33 135.78 169.04 136.74 Z M 168.72 137.79 L 168.44 138.73 C 168.15 139.70 168.70 140.72 169.66 141.01 C 170.63 141.30 171.65 140.75 171.94 139.78 L 172.22 138.84 C 172.51 137.87 171.96 136.85 170.99 136.56 C 170.03 136.27 169.01 136.82 168.72 137.79 Z M 168.43 138.73 L 168.17 139.62 C 167.88 140.59 168.43 141.61 169.40 141.90 C 170.37 142.19 171.39 141.64 171.68 140.67 L 171.94 139.78 C 172.23 138.81 171.68 137.79 170.71 137.50 C 169.74 137.21 168.72 137.77 168.43 138.73 Z M 168.17 139.62 L 167.90 140.51 C 167.61 141.48 168.16 142.51 169.13 142.80 C 170.10 143.09 171.12 142.54 171.41 141.57 L 171.68 140.67 C 171.97 139.70 171.42 138.68 170.45 138.39 C 169.48 138.10 168.46 138.65 168.17 139.62 Z M 167.90 140.51 L 167.62 141.44 C 167.32 142.41 167.87 143.43 168.84 143.73 C 169.81 144.02 170.83 143.47 171.13 142.50 L 171.41 141.57 C 171.70 140.60 171.16 139.58 170.19 139.29 C 169.22 138.99 168.19 139.54 167.90 140.51 Z M 167.62 141.44 L 167.32 142.40 C 167.03 143.37 167.57 144.39 168.54 144.69 C 169.51 144.98 170.54 144.44 170.84 143.47 L 171.13 142.51 C 171.42 141.54 170.88 140.51 169.91 140.22 C 168.94 139.92 167.91 140.47 167.62 141.44 Z M 167.32 142.40 L 167.02 143.39 C 166.72 144.36 167.27 145.39 168.24 145.68 C 169.21 145.98 170.24 145.43 170.54 144.46 L 170.84 143.47 C 171.13 142.49 170.59 141.47 169.62 141.17 C 168.64 140.88 167.62 141.42 167.32 142.40 Z M 167.02 143.39 L 166.73 144.33 C 166.44 145.30 166.99 146.33 167.96 146.62 C 168.93 146.92 169.96 146.37 170.25 145.39 L 170.54 144.46 C 170.83 143.48 170.28 142.46 169.31 142.16 C 168.34 141.87 167.31 142.42 167.02 143.39 Z M 166.73 144.33 L 166.45 145.28 C 166.15 146.25 166.71 147.28 167.68 147.57 C 168.65 147.86 169.68 147.31 169.97 146.34 L 170.26 145.39 C 170.55 144.42 170.00 143.39 169.02 143.10 C 168.05 142.81 167.02 143.36 166.73 144.33 Z M 166.45 145.28 L 166.16 146.25 C 165.87 147.22 166.42 148.25 167.39 148.54 C 168.37 148.83 169.39 148.27 169.68 147.30 L 169.97 146.33 C 170.26 145.36 169.71 144.33 168.74 144.04 C 167.76 143.75 166.74 144.31 166.45 145.28 Z M 166.16 146.25 L 165.86 147.23 C 165.57 148.21 166.13 149.23 167.10 149.52 C 168.08 149.81 169.10 149.25 169.39 148.28 L 169.68 147.30 C 169.97 146.32 169.42 145.30 168.44 145.01 C 167.47 144.72 166.44 145.28 166.16 146.25 Z M 165.86 147.24 L 165.59 148.18 C 165.30 149.15 165.86 150.18 166.83 150.46 C 167.81 150.75 168.83 150.19 169.12 149.22 L 169.39 148.28 C 169.68 147.30 169.12 146.28 168.15 145.99 C 167.17 145.70 166.15 146.26 165.86 147.24 Z M 165.58 148.18 L 165.31 149.12 C 165.03 150.10 165.59 151.12 166.57 151.40 C 167.54 151.68 168.56 151.12 168.85 150.15 L 169.12 149.21 C 169.40 148.23 168.84 147.21 167.86 146.93 C 166.89 146.65 165.87 147.21 165.58 148.18 Z M 165.31 149.13 L 165.04 150.09 C 164.76 151.07 165.33 152.08 166.30 152.36 C 167.28 152.64 168.30 152.07 168.58 151.09 L 168.85 150.14 C 169.13 149.16 168.56 148.14 167.58 147.87 C 166.60 147.59 165.59 148.16 165.31 149.13 Z M 165.04 150.10 L 164.76 151.09 C 164.49 152.07 165.07 153.08 166.05 153.35 C 167.03 153.62 168.04 153.05 168.31 152.07 L 168.58 151.08 C 168.85 150.10 168.27 149.09 167.30 148.82 C 166.32 148.55 165.31 149.12 165.04 150.10 Z M 164.76 151.11 L 164.50 152.08 C 164.24 153.06 164.82 154.06 165.80 154.33 C 166.78 154.59 167.79 154.00 168.05 153.02 L 168.31 152.05 C 168.57 151.07 167.99 150.06 167.01 149.80 C 166.03 149.54 165.02 150.12 164.76 151.11 Z M 164.50 152.09 L 164.26 153.01 C 164.01 153.99 164.60 154.99 165.58 155.24 C 166.56 155.50 167.56 154.91 167.82 153.93 L 168.05 153.01 C 168.31 152.03 167.72 151.03 166.74 150.77 C 165.75 150.52 164.75 151.11 164.50 152.09 Z M 164.26 153.02 L 164.02 153.96 C 163.77 154.94 164.37 155.94 165.35 156.19 C 166.33 156.44 167.32 155.85 167.57 154.87 L 167.82 153.92 C 168.06 152.94 167.47 151.94 166.49 151.69 C 165.51 151.44 164.51 152.04 164.26 153.02 Z M 164.03 153.97 L 163.78 154.94 C 163.53 155.92 164.12 156.92 165.10 157.17 C 166.08 157.41 167.08 156.82 167.32 155.84 L 167.57 154.86 C 167.82 153.89 167.23 152.89 166.25 152.64 C 165.27 152.39 164.27 152.99 164.03 153.97 Z M 163.78 154.94 L 163.52 155.95 C 163.27 156.93 163.86 157.92 164.84 158.17 C 165.82 158.42 166.81 157.83 167.06 156.86 L 167.32 155.85 C 167.57 154.87 166.98 153.87 166.00 153.62 C 165.03 153.37 164.03 153.96 163.78 154.94 Z M 163.53 155.94 L 163.27 156.95 C 163.01 157.92 163.60 158.92 164.57 159.17 C 165.54 159.43 166.54 158.84 166.79 157.87 L 167.06 156.86 C 167.31 155.89 166.73 154.89 165.75 154.64 C 164.78 154.39 163.78 154.97 163.53 155.94 Z M 163.27 156.94 L 163.02 157.89 C 162.76 158.86 163.34 159.85 164.31 160.11 C 165.28 160.37 166.28 159.79 166.53 158.82 L 166.79 157.88 C 167.04 156.91 166.47 155.91 165.50 155.65 C 164.53 155.39 163.53 155.97 163.27 156.94 Z M 163.03 157.88 L 162.77 158.84 C 162.51 159.81 163.08 160.80 164.05 161.06 C 165.01 161.33 166.01 160.75 166.27 159.79 L 166.53 158.83 C 166.79 157.86 166.22 156.86 165.25 156.60 C 164.28 156.34 163.29 156.91 163.03 157.88 Z M 162.77 158.84 L 162.51 159.82 C 162.25 160.78 162.82 161.77 163.78 162.03 C 164.75 162.29 165.74 161.72 166.00 160.76 L 166.26 159.79 C 166.52 158.82 165.95 157.83 164.99 157.57 C 164.03 157.31 163.04 157.88 162.77 158.84 Z M 162.52 159.82 L 162.25 160.80 C 161.99 161.76 162.56 162.75 163.52 163.00 C 164.48 163.26 165.47 162.70 165.73 161.73 L 165.99 160.76 C 166.25 159.80 165.68 158.81 164.72 158.55 C 163.76 158.29 162.78 158.86 162.52 159.82 Z M 162.26 160.80 L 162.00 161.78 C 161.74 162.74 162.31 163.72 163.27 163.98 C 164.23 164.23 165.21 163.66 165.47 162.71 L 165.73 161.73 C 165.98 160.77 165.41 159.79 164.45 159.53 C 163.50 159.28 162.51 159.85 162.26 160.80 Z M 162.00 161.79 L 161.74 162.77 C 161.49 163.73 162.07 164.70 163.02 164.95 C 163.98 165.20 164.96 164.63 165.21 163.67 L 165.46 162.70 C 165.71 161.74 165.14 160.76 164.18 160.51 C 163.23 160.26 162.25 160.84 162.00 161.79 Z M 161.75 162.78 L 161.50 163.76 C 161.26 164.71 161.83 165.68 162.78 165.92 C 163.74 166.17 164.71 165.59 164.95 164.64 L 165.20 163.66 C 165.45 162.71 164.87 161.74 163.92 161.50 C 162.96 161.25 161.99 161.83 161.75 162.78 Z M 161.50 163.76 L 161.26 164.73 C 161.02 165.69 161.60 166.65 162.55 166.89 C 163.50 167.13 164.47 166.55 164.70 165.60 L 164.95 164.63 C 165.19 163.68 164.61 162.71 163.66 162.47 C 162.71 162.24 161.74 162.81 161.50 163.76 Z M 161.27 164.74 L 161.03 165.71 C 160.79 166.66 161.37 167.62 162.32 167.85 C 163.27 168.08 164.23 167.51 164.46 166.56 L 164.70 165.59 C 164.93 164.64 164.35 163.68 163.41 163.45 C 162.46 163.22 161.50 163.79 161.27 164.74 Z M 161.03 165.72 L 160.80 166.68 C 160.57 167.63 161.15 168.58 162.09 168.81 C 163.04 169.04 163.99 168.46 164.22 167.52 L 164.46 166.55 C 164.69 165.61 164.11 164.65 163.16 164.42 C 162.22 164.19 161.26 164.77 161.03 165.72 Z M 160.80 166.69 L 160.57 167.66 C 160.34 168.60 160.92 169.55 161.86 169.77 C 162.80 170.00 163.75 169.42 163.98 168.48 L 164.21 167.51 C 164.44 166.57 163.86 165.62 162.92 165.39 C 161.98 165.17 161.03 165.75 160.80 166.69 Z M 160.58 167.66 L 160.34 168.64 C 160.11 169.57 160.69 170.52 161.63 170.74 C 162.57 170.97 163.51 170.39 163.74 169.45 L 163.97 168.48 C 164.20 167.54 163.62 166.60 162.68 166.37 C 161.74 166.14 160.80 166.72 160.58 167.66 Z M 160.35 168.64 L 160.11 169.62 C 159.89 170.55 160.46 171.49 161.40 171.72 C 162.33 171.94 163.27 171.36 163.50 170.43 L 163.73 169.45 C 163.96 168.52 163.38 167.58 162.45 167.35 C 161.51 167.13 160.57 167.70 160.35 168.64 Z M 160.12 169.62 L 159.89 170.60 C 159.66 171.53 160.23 172.46 161.16 172.69 C 162.09 172.91 163.03 172.34 163.25 171.41 L 163.49 170.43 C 163.71 169.50 163.14 168.56 162.21 168.34 C 161.28 168.12 160.34 168.69 160.12 169.62 Z M 159.89 170.60 L 159.66 171.57 C 159.43 172.49 160.00 173.43 160.93 173.65 C 161.85 173.87 162.79 173.30 163.01 172.38 L 163.24 171.41 C 163.47 170.48 162.90 169.55 161.97 169.33 C 161.05 169.10 160.12 169.67 159.89 170.60 Z M 159.67 171.57 L 159.43 172.53 C 159.21 173.45 159.77 174.38 160.69 174.61 C 161.61 174.83 162.54 174.27 162.77 173.35 L 163.00 172.38 C 163.23 171.46 162.66 170.53 161.74 170.31 C 160.82 170.08 159.89 170.65 159.67 171.57 Z M 159.44 172.53 L 159.20 173.50 C 158.98 174.42 159.54 175.34 160.45 175.57 C 161.37 175.79 162.29 175.23 162.52 174.32 L 162.76 173.35 C 162.98 172.43 162.42 171.51 161.51 171.28 C 160.59 171.06 159.67 171.62 159.44 172.53 Z M 159.21 173.50 L 158.96 174.49 C 158.74 175.40 159.29 176.33 160.20 176.55 C 161.11 176.78 162.03 176.23 162.26 175.32 L 162.51 174.32 C 162.74 173.41 162.18 172.49 161.27 172.26 C 160.36 172.03 159.44 172.59 159.21 173.50 Z M 158.97 174.49 L 158.72 175.47 C 158.50 176.38 159.04 177.30 159.95 177.52 C 160.85 177.75 161.77 177.21 162.00 176.30 L 162.25 175.32 C 162.48 174.41 161.93 173.49 161.03 173.27 C 160.12 173.04 159.20 173.58 158.97 174.49 Z M 158.74 175.47 L 158.49 176.44 C 158.26 177.33 158.80 178.25 159.70 178.48 C 160.60 178.71 161.51 178.17 161.74 177.27 L 161.99 176.30 C 162.22 175.40 161.68 174.49 160.78 174.26 C 159.88 174.03 158.97 174.57 158.74 175.47 Z M 158.50 176.43 L 158.25 177.39 C 158.02 178.28 158.55 179.19 159.45 179.42 C 160.34 179.66 161.25 179.12 161.49 178.23 L 161.73 177.27 C 161.97 176.38 161.43 175.47 160.54 175.23 C 159.64 175.00 158.73 175.54 158.50 176.43 Z M 158.26 177.38 L 158.01 178.32 C 157.78 179.21 158.31 180.12 159.19 180.35 C 160.08 180.59 160.99 180.06 161.23 179.17 L 161.47 178.23 C 161.71 177.34 161.18 176.43 160.29 176.20 C 159.40 175.96 158.49 176.49 158.26 177.38 Z M 158.02 178.32 L 157.75 179.32 C 157.52 180.20 158.04 181.11 158.92 181.34 C 159.80 181.58 160.71 181.06 160.95 180.17 L 161.22 179.17 C 161.45 178.29 160.93 177.39 160.05 177.15 C 159.17 176.91 158.26 177.44 158.02 178.32 Z M 157.76 179.31 L 157.50 180.30 C 157.26 181.18 157.77 182.08 158.65 182.32 C 159.53 182.56 160.43 182.04 160.67 181.17 L 160.94 180.18 C 161.18 179.30 160.66 178.40 159.78 178.16 C 158.91 177.92 158.00 178.44 157.76 179.31 Z M 157.51 180.30 L 157.24 181.27 C 157.00 182.14 157.51 183.04 158.38 183.28 C 159.25 183.52 160.15 183.01 160.39 182.14 L 160.66 181.17 C 160.90 180.30 160.39 179.40 159.52 179.16 C 158.65 178.92 157.75 179.43 157.51 180.30 Z M 157.25 181.26 L 156.99 182.21 C 156.74 183.07 157.25 183.97 158.11 184.21 C 158.98 184.45 159.88 183.95 160.12 183.08 L 160.38 182.14 C 160.62 181.27 160.12 180.38 159.25 180.13 C 158.39 179.89 157.49 180.40 157.25 181.26 Z M 157.00 182.21 L 156.74 183.12 C 156.49 183.98 156.99 184.88 157.85 185.12 C 158.71 185.36 159.61 184.86 159.85 184.00 L 160.11 183.08 C 160.35 182.22 159.85 181.33 158.99 181.09 C 158.13 180.85 157.24 181.35 157.00 182.21 Z M 156.74 183.12 L 156.46 184.12 C 156.22 184.98 156.71 185.87 157.57 186.11 C 158.42 186.35 159.31 185.86 159.56 185.00 L 159.84 184.00 C 160.08 183.15 159.59 182.26 158.73 182.02 C 157.88 181.77 156.99 182.27 156.74 183.12 Z M 156.47 184.13 L 156.19 185.10 C 155.95 185.95 156.45 186.83 157.30 187.07 C 158.15 187.31 159.03 186.82 159.27 185.97 L 159.55 185.00 C 159.79 184.15 159.30 183.26 158.44 183.02 C 157.59 182.78 156.71 183.27 156.47 184.13 Z M 156.20 185.11 L 155.93 186.06 C 155.70 186.91 156.19 187.78 157.04 188.02 C 157.89 188.26 158.77 187.76 159.00 186.91 L 159.27 185.96 C 159.50 185.11 159.01 184.23 158.16 184.00 C 157.31 183.76 156.43 184.26 156.20 185.11 Z M 155.94 186.07 L 155.68 187.02 C 155.46 187.86 155.96 188.73 156.80 188.96 C 157.65 189.19 158.52 188.69 158.75 187.84 L 159.00 186.90 C 159.23 186.05 158.73 185.18 157.88 184.95 C 157.03 184.73 156.16 185.23 155.94 186.07 Z M 155.68 187.04 L 155.44 187.99 C 155.22 188.83 155.73 189.69 156.58 189.91 C 157.42 190.12 158.28 189.61 158.50 188.77 L 158.74 187.82 C 158.96 186.97 158.45 186.11 157.61 185.90 C 156.76 185.68 155.90 186.19 155.68 187.04 Z M 155.44 188.01 L 155.21 188.98 C 155.01 189.82 155.53 190.67 156.38 190.87 C 157.22 191.07 158.07 190.55 158.27 189.70 L 158.50 188.74 C 158.70 187.90 158.18 187.05 157.34 186.85 C 156.49 186.65 155.64 187.17 155.44 188.01 Z M 155.21 189.01 L 155.00 189.98 C 154.82 190.83 155.36 191.67 156.20 191.85 C 157.05 192.03 157.89 191.49 158.07 190.64 L 158.28 189.67 C 158.46 188.82 157.92 187.99 157.07 187.80 C 156.22 187.62 155.39 188.16 155.21 189.01 Z M 154.99 190.02 L 154.81 191.01 C 154.65 191.86 155.21 192.68 156.06 192.84 C 156.91 193.00 157.73 192.44 157.89 191.59 L 158.07 190.60 C 158.23 189.75 157.67 188.93 156.82 188.77 C 155.97 188.61 155.15 189.17 154.99 190.02 Z M 154.80 191.06 L 154.65 192.05 C 154.51 192.91 155.10 193.71 155.95 193.84 C 156.80 193.97 157.60 193.39 157.73 192.54 L 157.89 191.55 C 158.03 190.69 157.44 189.89 156.59 189.76 C 155.74 189.63 154.94 190.21 154.80 191.06 Z M 154.64 192.10 L 154.52 193.07 C 154.41 193.93 155.01 194.71 155.87 194.82 C 156.72 194.93 157.50 194.33 157.61 193.47 L 157.74 192.50 C 157.85 191.64 157.25 190.86 156.39 190.75 C 155.54 190.64 154.75 191.24 154.64 192.10 Z M 154.51 193.10 L 154.41 194.09 C 154.31 194.95 154.93 195.72 155.79 195.82 C 156.65 195.91 157.42 195.29 157.51 194.43 L 157.62 193.44 C 157.71 192.58 157.09 191.81 156.23 191.72 C 155.38 191.63 154.61 192.25 154.51 193.10 Z M 154.40 194.12 L 154.31 195.12 C 154.23 195.98 154.86 196.74 155.71 196.82 C 156.57 196.90 157.33 196.27 157.42 195.42 L 157.51 194.41 C 157.59 193.55 156.96 192.79 156.11 192.71 C 155.25 192.63 154.49 193.26 154.40 194.12 Z M 154.31 195.13 L 154.22 196.14 C 154.14 197.00 154.78 197.76 155.64 197.83 C 156.50 197.91 157.25 197.27 157.33 196.42 L 157.42 195.40 C 157.49 194.55 156.86 193.79 156.00 193.71 C 155.14 193.64 154.38 194.27 154.31 195.13 Z M 154.22 196.15 L 154.20 196.41 C 154.12 197.27 154.76 198.02 155.62 198.10 C 156.48 198.17 157.23 197.53 157.31 196.67 L 157.33 196.41 C 157.40 195.55 156.77 194.80 155.91 194.72 C 155.05 194.65 154.29 195.29 154.22 196.15 Z"
      fill="black"
      fill-rule="nonzero" /></svg>