<svg xmlns="http://www.w3.org/2000/svg" width="300" height="300" viewBox="0 0 300 300">
<path d="M 121.25 126.27 L 121.04 127.34 C 120.84 128.32 121.48 129.27 122.46 129.47 C 123.44 129.67 124.40 129.03 124.59 128.05 L 124.80 126.98 C 125.00 126.00 124.36 125.05 123.38 124.85 C 122.40 124.65 121.45 125.29 121.25 126.27 Z M 121.04 127.34 L 120.83 128.39 C 120.63 129.37 121.27 130.33 122.25 130.52 C 123.24 130.72 124.19 130.08 124.38 129.10 L 124.59 128.05 C 124.79 127.06 124.15 126.11 123.17 125.92 C 122.19 125.72 121.23 126.36 121.04 127.34 Z M 120.83 128.39 L 120.63 129.41 C 120.43 130.39 121.07 131.35 122.06 131.54 C 123.04 131.73 123.99 131.09 124.19 130.11 L 124.39 129.09 C 124.58 128.11 123.94 127.16 122.96 126.96 C 121.97 126.77 121.02 127.41 120.83 128.39 Z M 120.62 129.42 L 120.44 130.38 C 120.25 131.37 120.89 132.32 121.88 132.51 C 122.86 132.70 123.82 132.05 124.00 131.07 L 124.19 130.10 C 124.38 129.12 123.73 128.16 122.75 127.98 C 121.76 127.79 120.81 128.43 120.62 129.42 Z M 120.44 130.39 L 120.27 131.29 C 120.08 132.28 120.74 133.23 121.72 133.41 C 122.71 133.59 123.66 132.94 123.84 131.96 L 124.01 131.06 C 124.19 130.07 123.54 129.12 122.55 128.94 C 121.57 128.75 120.62 129.41 120.44 130.39 Z M 120.26 131.31 L 120.09 132.28 C 119.92 133.27 120.58 134.21 121.57 134.39 C 122.56 134.56 123.50 133.90 123.67 132.91 L 123.84 131.94 C 124.02 130.95 123.36 130.01 122.37 129.83 C 121.38 129.66 120.44 130.32 120.26 131.31 Z M 120.09 132.31 L 119.92 133.37 C 119.76 134.36 120.44 135.29 121.43 135.45 C 122.42 135.61 123.35 134.93 123.51 133.94 L 123.68 132.88 C 123.84 131.89 123.16 130.96 122.17 130.80 C 121.18 130.64 120.24 131.32 120.09 132.31 Z M 119.91 133.41 L 119.78 134.36 C 119.65 135.35 120.35 136.27 121.34 136.40 C 122.34 136.54 123.25 135.84 123.39 134.85 L 123.52 133.90 C 123.65 132.90 122.95 131.99 121.96 131.85 C 120.96 131.72 120.05 132.42 119.91 133.41 Z M 119.78 134.40 L 119.68 135.31 C 119.57 136.31 120.28 137.21 121.28 137.32 C 122.28 137.43 123.18 136.71 123.29 135.71 L 123.39 134.80 C 123.50 133.81 122.79 132.91 121.79 132.79 C 120.79 132.68 119.89 133.40 119.78 134.40 Z M 119.68 135.34 L 119.59 136.23 C 119.50 137.23 120.23 138.12 121.23 138.21 C 122.23 138.30 123.12 137.57 123.21 136.57 L 123.29 135.68 C 123.39 134.68 122.65 133.80 121.65 133.70 C 120.65 133.61 119.77 134.34 119.68 135.34 Z M 119.60 136.26 L 119.52 137.19 C 119.45 138.19 120.20 139.06 121.19 139.13 C 122.19 139.21 123.06 138.46 123.14 137.47 L 123.21 136.54 C 123.28 135.54 122.54 134.67 121.54 134.59 C 120.54 134.52 119.67 135.26 119.60 136.26 Z M 119.53 137.22 L 119.47 138.22 C 119.41 139.22 120.17 140.08 121.17 140.13 C 122.16 140.19 123.02 139.43 123.08 138.44 L 123.13 137.43 C 123.19 136.44 122.43 135.58 121.44 135.52 C 120.44 135.47 119.59 136.22 119.53 137.22 Z M 119.47 138.26 L 119.43 139.35 C 119.39 140.35 120.16 141.19 121.15 141.23 C 122.15 141.27 122.99 140.50 123.03 139.50 L 123.07 138.41 C 123.11 137.41 122.34 136.57 121.35 136.53 C 120.35 136.49 119.51 137.26 119.47 138.26 Z M 119.43 139.38 L 119.40 140.41 C 119.38 141.40 120.16 142.22 121.15 142.25 C 122.14 142.28 122.97 141.49 122.99 140.50 L 123.02 139.47 C 123.05 138.48 122.26 137.66 121.27 137.63 C 120.28 137.61 119.46 138.39 119.43 139.38 Z M 119.41 140.43 L 119.40 141.43 C 119.38 142.42 120.17 143.23 121.16 143.25 C 122.14 143.26 122.96 142.47 122.97 141.49 L 122.99 140.48 C 123.00 139.50 122.21 138.68 121.23 138.67 C 120.24 138.65 119.43 139.44 119.41 140.43 Z M 119.40 141.44 L 119.40 142.47 C 119.39 143.45 120.18 144.26 121.16 144.26 C 122.14 144.27 122.95 143.48 122.95 142.50 L 122.96 141.47 C 122.97 140.49 122.18 139.69 121.20 139.68 C 120.22 139.67 119.41 140.46 119.40 141.44 Z M 119.40 142.48 L 119.40 143.50 C 119.40 144.48 120.19 145.28 121.17 145.28 C 122.14 145.28 122.94 144.49 122.94 143.52 L 122.95 142.49 C 122.95 141.51 122.16 140.72 121.18 140.71 C 120.20 140.71 119.41 141.50 119.40 142.48 Z M 119.41 143.51 L 119.41 144.50 C 119.41 145.47 120.20 146.26 121.17 146.26 C 122.14 146.26 122.93 145.48 122.93 144.50 L 122.93 143.51 C 122.94 142.54 122.15 141.75 121.17 141.75 C 120.20 141.74 119.41 142.53 119.41 143.51 Z M 119.42 144.50 L 119.42 145.55 C 119.42 146.51 120.20 147.30 121.17 147.30 C 122.14 147.30 122.92 146.51 122.92 145.55 L 122.92 144.50 C 122.92 143.53 122.14 142.75 121.17 142.75 C 120.20 142.75 119.42 143.53 119.42 144.50 Z M 119.44 145.55 L 119.44 146.59 C 119.44 147.55 120.22 148.32 121.17 148.32 C 122.13 148.32 122.90 147.55 122.90 146.59 L 122.90 145.55 C 122.90 144.59 122.13 143.82 121.17 143.82 C 120.22 143.82 119.44 144.59 119.44 145.55 Z M 119.46 146.59 L 119.46 147.57 C 119.46 148.52 120.23 149.28 121.17 149.28 C 122.11 149.28 122.88 148.52 122.88 147.57 L 122.88 146.59 C 122.88 145.65 122.11 144.89 121.17 144.89 C 120.23 144.89 119.46 145.65 119.46 146.59 Z M 119.49 147.57 L 119.49 148.52 C 119.49 149.45 120.24 150.20 121.17 150.20 C 122.10 150.20 122.85 149.45 122.85 148.52 L 122.85 147.57 C 122.85 146.64 122.10 145.89 121.17 145.89 C 120.24 145.89 119.49 146.64 119.49 147.57 Z M 119.51 148.52 L 119.51 149.49 C 119.51 150.41 120.25 151.16 121.17 151.16 C 122.09 151.16 122.83 150.41 122.83 149.49 L 122.83 148.52 C 122.83 147.60 122.09 146.86 121.17 146.86 C 120.25 146.86 119.51 147.60 119.51 148.52 Z M 119.52 149.50 L 119.52 150.53 C 119.52 151.44 120.26 152.18 121.18 152.17 C 122.09 152.17 122.83 151.43 122.83 150.52 L 122.82 149.49 C 122.82 148.58 122.08 147.84 121.17 147.84 C 120.25 147.84 119.52 148.58 119.52 149.50 Z M 119.53 150.54 L 119.53 151.55 C 119.54 152.46 120.29 153.19 121.20 153.18 C 122.11 153.17 122.84 152.43 122.83 151.52 L 122.82 150.51 C 122.81 149.60 122.07 148.87 121.16 148.87 C 120.25 148.88 119.52 149.63 119.53 150.54 Z M 119.54 151.57 L 119.56 152.54 C 119.58 153.45 120.33 154.17 121.24 154.15 C 122.14 154.13 122.86 153.38 122.84 152.47 L 122.82 151.50 C 122.80 150.59 122.05 149.87 121.15 149.89 C 120.24 149.91 119.52 150.66 119.54 151.57 Z M 119.57 152.57 L 119.61 153.59 C 119.64 154.49 120.41 155.20 121.31 155.16 C 122.22 155.12 122.92 154.36 122.88 153.45 L 122.84 152.44 C 122.80 151.53 122.04 150.83 121.14 150.87 C 120.23 150.91 119.53 151.67 119.57 152.57 Z M 119.61 153.63 L 119.68 154.64 C 119.73 155.54 120.51 156.23 121.41 156.17 C 122.32 156.11 123.00 155.33 122.94 154.43 L 122.88 153.42 C 122.82 152.52 122.04 151.83 121.14 151.89 C 120.24 151.95 119.55 152.72 119.61 153.63 Z M 119.68 154.66 L 119.75 155.63 C 119.83 156.53 120.62 157.21 121.52 157.13 C 122.42 157.06 123.09 156.27 123.02 155.37 L 122.94 154.40 C 122.87 153.50 122.08 152.83 121.18 152.90 C 120.28 152.97 119.61 153.76 119.68 154.66 Z M 119.76 155.64 L 119.81 156.22 C 119.88 157.12 120.68 157.79 121.58 157.71 C 122.48 157.63 123.14 156.84 123.07 155.94 L 123.02 155.36 C 122.94 154.46 122.15 153.79 121.25 153.87 C 120.34 153.95 119.68 154.74 119.76 155.64 Z"
      fill="black"
      fill-rule="nonzero" /><path d="M 110.79 142.11 L 111.59 142.01 C 112.59 141.89 113.30 140.97 113.18 139.97 C 113.06 138.96 112.14 138.25 111.14 138.37 L 110.34 138.47 C 109.33 138.60 108.62 139.51 108.74 140.52 C 108.87 141.52 109.78 142.23 110.79 142.11 Z M 111.62 142.01 L 112.49 141.89 C 113.50 141.75 114.20 140.81 114.05 139.81 C 113.91 138.80 112.98 138.10 111.97 138.25 L 111.10 138.37 C 110.10 138.51 109.40 139.45 109.54 140.45 C 109.68 141.46 110.62 142.16 111.62 142.01 Z M 112.55 141.89 L 113.55 141.72 C 114.55 141.54 115.23 140.58 115.05 139.58 C 114.88 138.57 113.92 137.90 112.91 138.07 L 111.91 138.25 C 110.91 138.42 110.23 139.38 110.41 140.39 C 110.58 141.39 111.54 142.06 112.55 141.89 Z M 113.61 141.71 L 114.81 141.46 C 115.81 141.25 116.46 140.27 116.25 139.27 C 116.04 138.26 115.06 137.62 114.05 137.83 L 112.85 138.08 C 111.85 138.29 111.20 139.27 111.41 140.27 C 111.62 141.28 112.60 141.92 113.61 141.71 Z M 114.85 141.45 L 115.73 141.25 C 116.73 141.02 117.35 140.02 117.12 139.02 C 116.89 138.02 115.89 137.40 114.89 137.63 L 114.01 137.84 C 113.01 138.07 112.39 139.07 112.62 140.07 C 112.85 141.07 113.85 141.69 114.85 141.45 Z M 115.75 141.24 L 116.59 141.03 C 117.58 140.79 118.18 139.78 117.94 138.79 C 117.70 137.80 116.69 137.19 115.70 137.44 L 114.87 137.64 C 113.88 137.89 113.27 138.89 113.51 139.88 C 113.76 140.87 114.76 141.48 115.75 141.24 Z M 116.60 141.02 L 117.49 140.79 C 118.48 140.54 119.08 139.54 118.83 138.55 C 118.58 137.57 117.58 136.97 116.59 137.22 L 115.69 137.45 C 114.71 137.70 114.11 138.70 114.36 139.69 C 114.61 140.67 115.61 141.27 116.60 141.02 Z M 117.50 140.78 L 118.45 140.53 C 119.43 140.28 120.02 139.28 119.77 138.30 C 119.52 137.32 118.52 136.73 117.54 136.99 L 116.59 137.23 C 115.61 137.49 115.02 138.48 115.27 139.46 C 115.52 140.44 116.52 141.03 117.50 140.78 Z M 118.45 140.52 L 119.46 140.26 C 120.44 140.01 121.02 139.02 120.77 138.04 C 120.52 137.07 119.52 136.48 118.55 136.74 L 117.54 137.00 C 116.57 137.25 115.98 138.24 116.23 139.22 C 116.49 140.19 117.48 140.78 118.45 140.52 Z M 119.46 140.25 L 120.51 139.98 C 121.48 139.73 122.06 138.74 121.81 137.78 C 121.56 136.81 120.57 136.22 119.60 136.47 L 118.55 136.75 C 117.58 137.00 117.00 137.98 117.25 138.95 C 117.50 139.92 118.49 140.50 119.46 140.25 Z M 120.50 139.98 L 121.59 139.70 C 122.55 139.45 123.13 138.47 122.89 137.50 C 122.64 136.54 121.66 135.96 120.69 136.20 L 119.61 136.48 C 118.64 136.73 118.06 137.71 118.31 138.67 C 118.56 139.64 119.54 140.22 120.50 139.98 Z M 121.58 139.69 L 122.69 139.41 C 123.65 139.17 124.23 138.20 123.99 137.23 C 123.75 136.27 122.78 135.69 121.82 135.93 L 120.70 136.21 C 119.74 136.45 119.16 137.43 119.40 138.39 C 119.64 139.35 120.62 139.93 121.58 139.69 Z M 122.68 139.40 L 123.62 139.17 C 124.58 138.93 125.16 137.97 124.93 137.01 C 124.69 136.06 123.73 135.47 122.77 135.71 L 121.83 135.94 C 120.87 136.18 120.29 137.14 120.52 138.10 C 120.76 139.05 121.72 139.64 122.68 139.40 Z M 123.61 139.16 L 124.56 138.93 C 125.51 138.70 126.09 137.74 125.87 136.80 C 125.64 135.85 124.68 135.26 123.73 135.49 L 122.78 135.72 C 121.84 135.95 121.25 136.91 121.48 137.85 C 121.71 138.80 122.66 139.39 123.61 139.16 Z M 124.55 138.91 L 125.51 138.69 C 126.45 138.46 127.04 137.52 126.81 136.58 C 126.59 135.64 125.65 135.05 124.70 135.28 L 123.74 135.51 C 122.80 135.73 122.22 136.67 122.44 137.61 C 122.67 138.56 123.61 139.14 124.55 138.91 Z M 125.50 138.67 L 126.47 138.45 C 127.41 138.23 127.99 137.29 127.77 136.36 C 127.55 135.43 126.62 134.85 125.68 135.06 L 124.71 135.29 C 123.78 135.51 123.20 136.44 123.42 137.38 C 123.64 138.31 124.57 138.89 125.50 138.67 Z M 126.47 138.43 L 127.44 138.21 C 128.37 137.99 128.95 137.07 128.73 136.14 C 128.52 135.21 127.59 134.64 126.67 134.85 L 125.69 135.08 C 124.76 135.29 124.19 136.22 124.40 137.14 C 124.62 138.07 125.54 138.65 126.47 138.43 Z M 127.44 138.19 L 128.42 137.97 C 129.34 137.76 129.91 136.84 129.70 135.92 C 129.49 135.00 128.58 134.43 127.66 134.64 L 126.67 134.87 C 125.76 135.08 125.18 135.99 125.39 136.91 C 125.60 137.83 126.52 138.40 127.44 138.19 Z M 128.41 137.95 L 129.40 137.73 C 130.31 137.52 130.88 136.61 130.68 135.70 C 130.47 134.79 129.56 134.22 128.65 134.43 L 127.66 134.65 C 126.75 134.86 126.18 135.77 126.39 136.68 C 126.60 137.59 127.50 138.16 128.41 137.95 Z M 129.40 137.71 L 130.39 137.49 C 131.29 137.28 131.86 136.39 131.65 135.48 C 131.45 134.58 130.55 134.01 129.65 134.22 L 128.66 134.44 C 127.75 134.65 127.19 135.55 127.39 136.45 C 127.60 137.35 128.50 137.92 129.40 137.71 Z M 130.39 137.47 L 131.38 137.25 C 132.27 137.05 132.84 136.16 132.63 135.26 C 132.43 134.37 131.54 133.81 130.65 134.01 L 129.65 134.23 C 128.76 134.43 128.20 135.32 128.40 136.22 C 128.60 137.11 129.49 137.68 130.39 137.47 Z M 131.38 137.24 L 131.88 137.13 C 132.77 136.92 133.33 136.04 133.12 135.15 C 132.92 134.26 132.04 133.71 131.15 133.91 L 130.65 134.02 C 129.76 134.22 129.20 135.10 129.40 135.99 C 129.61 136.88 130.49 137.44 131.38 137.24 Z"
      fill="black"
      fill-rule="nonzero" /><path d="M 110.72 161.08 L 111.64 160.87 C 112.64 160.63 113.26 159.62 113.03 158.62 C 112.79 157.62 111.79 156.99 110.78 157.23 L 109.87 157.44 C 108.86 157.68 108.24 158.69 108.48 159.69 C 108.71 160.70 109.72 161.32 110.72 161.08 Z M 111.66 160.86 L 112.59 160.63 C 113.59 160.39 114.20 159.37 113.95 158.37 C 113.71 157.37 112.69 156.76 111.69 157.00 L 110.76 157.23 C 109.76 157.48 109.15 158.49 109.39 159.49 C 109.64 160.50 110.65 161.11 111.66 160.86 Z M 112.62 160.62 L 113.59 160.37 C 114.58 160.10 115.18 159.08 114.91 158.08 C 114.64 157.08 113.62 156.49 112.62 156.76 L 111.66 157.01 C 110.66 157.28 110.07 158.30 110.33 159.30 C 110.60 160.30 111.62 160.89 112.62 160.62 Z M 113.63 160.35 L 114.65 160.05 C 115.64 159.76 116.21 158.72 115.92 157.73 C 115.62 156.74 114.58 156.18 113.59 156.47 L 112.58 156.77 C 111.59 157.06 111.02 158.10 111.31 159.09 C 111.61 160.08 112.64 160.65 113.63 160.35 Z M 114.70 160.03 L 115.68 159.71 C 116.65 159.39 117.19 158.34 116.87 157.36 C 116.55 156.39 115.50 155.85 114.52 156.17 L 113.54 156.49 C 112.57 156.81 112.03 157.86 112.35 158.84 C 112.67 159.82 113.72 160.35 114.70 160.03 Z M 115.71 159.68 L 116.66 159.34 C 117.62 159.01 118.13 157.96 117.79 157.00 C 117.45 156.04 116.40 155.53 115.44 155.87 L 114.49 156.20 C 113.53 156.54 113.02 157.59 113.36 158.55 C 113.70 159.51 114.75 160.02 115.71 159.68 Z M 116.68 159.31 L 117.65 158.96 C 118.59 158.61 119.07 157.56 118.72 156.62 C 118.38 155.68 117.33 155.20 116.39 155.54 L 115.42 155.90 C 114.48 156.25 114.00 157.29 114.34 158.24 C 114.69 159.18 115.74 159.66 116.68 159.31 Z M 117.65 158.93 L 118.61 158.57 C 119.54 158.21 120.00 157.18 119.65 156.25 C 119.30 155.32 118.26 154.86 117.34 155.21 L 116.38 155.57 C 115.45 155.92 114.99 156.96 115.34 157.89 C 115.69 158.81 116.73 159.28 117.65 158.93 Z M 118.61 158.54 L 119.53 158.18 C 120.45 157.83 120.90 156.81 120.55 155.89 C 120.19 154.98 119.17 154.53 118.26 154.88 L 117.34 155.24 C 116.42 155.59 115.97 156.61 116.32 157.53 C 116.67 158.44 117.70 158.89 118.61 158.54 Z M 119.53 158.16 L 120.48 157.79 C 121.38 157.44 121.83 156.43 121.48 155.53 C 121.13 154.63 120.12 154.18 119.22 154.53 L 118.26 154.90 C 117.36 155.25 116.92 156.26 117.26 157.16 C 117.61 158.06 118.63 158.51 119.53 158.16 Z M 120.47 157.77 L 121.46 157.39 C 122.35 157.05 122.79 156.05 122.45 155.16 C 122.10 154.27 121.10 153.83 120.22 154.17 L 119.23 154.55 C 118.34 154.90 117.90 155.89 118.24 156.78 C 118.58 157.67 119.58 158.11 120.47 157.77 Z M 121.44 157.37 L 122.36 157.02 C 123.24 156.69 123.68 155.70 123.34 154.82 C 123.01 153.95 122.03 153.51 121.15 153.84 L 120.23 154.19 C 119.35 154.53 118.91 155.51 119.25 156.39 C 119.58 157.27 120.56 157.71 121.44 157.37 Z M 122.34 157.00 L 123.23 156.67 C 124.10 156.35 124.54 155.38 124.21 154.51 C 123.89 153.64 122.92 153.20 122.05 153.53 L 121.17 153.86 C 120.30 154.18 119.86 155.15 120.18 156.02 C 120.51 156.89 121.47 157.33 122.34 157.00 Z M 123.21 156.66 L 124.10 156.33 C 124.96 156.02 125.40 155.07 125.09 154.21 C 124.77 153.34 123.82 152.90 122.96 153.22 L 122.07 153.54 C 121.21 153.86 120.76 154.81 121.08 155.67 C 121.39 156.53 122.35 156.97 123.21 156.66 Z M 124.08 156.33 L 125.00 156.00 C 125.86 155.69 126.31 154.75 126.00 153.89 C 125.70 153.03 124.75 152.58 123.89 152.89 L 122.97 153.22 C 122.11 153.53 121.67 154.47 121.97 155.33 C 122.28 156.19 123.23 156.64 124.08 156.33 Z M 125.00 156.00 L 125.94 155.66 C 126.80 155.36 127.25 154.41 126.94 153.56 C 126.64 152.70 125.69 152.25 124.84 152.56 L 123.90 152.89 C 123.04 153.20 122.59 154.14 122.90 155.00 C 123.20 155.86 124.14 156.30 125.00 156.00 Z M 125.95 155.66 L 126.90 155.31 C 127.76 155.01 128.20 154.06 127.89 153.21 C 127.58 152.35 126.64 151.91 125.79 152.22 L 124.83 152.56 C 123.98 152.87 123.53 153.81 123.84 154.67 C 124.15 155.52 125.09 155.97 125.95 155.66 Z M 126.91 155.31 L 127.87 154.95 C 128.72 154.64 129.15 153.69 128.84 152.84 C 128.52 151.99 127.58 151.56 126.73 151.87 L 125.77 152.23 C 124.92 152.54 124.49 153.49 124.80 154.34 C 125.12 155.19 126.06 155.62 126.91 155.31 Z M 127.88 154.95 L 128.81 154.59 C 129.66 154.27 130.09 153.32 129.76 152.47 C 129.44 151.63 128.49 151.20 127.64 151.52 L 126.71 151.88 C 125.87 152.20 125.44 153.15 125.76 154.00 C 126.09 154.84 127.04 155.27 127.88 154.95 Z M 128.82 154.59 L 129.76 154.22 C 130.60 153.89 131.02 152.94 130.69 152.10 C 130.36 151.25 129.41 150.84 128.57 151.17 L 127.63 151.53 C 126.79 151.86 126.37 152.81 126.70 153.65 C 127.03 154.50 127.98 154.91 128.82 154.59 Z M 129.76 154.22 L 130.70 153.85 C 131.54 153.52 131.95 152.57 131.62 151.73 C 131.29 150.89 130.34 150.47 129.50 150.80 L 128.57 151.17 C 127.72 151.50 127.31 152.45 127.64 153.29 C 127.97 154.13 128.92 154.55 129.76 154.22 Z M 130.70 153.85 L 131.63 153.49 C 132.47 153.16 132.88 152.21 132.55 151.37 C 132.22 150.52 131.27 150.11 130.43 150.44 L 129.50 150.80 C 128.66 151.13 128.24 152.08 128.57 152.92 C 128.90 153.77 129.85 154.18 130.70 153.85 Z M 131.62 153.49 L 132.56 153.12 C 133.40 152.80 133.82 151.85 133.50 151.01 C 133.17 150.16 132.22 149.74 131.38 150.07 L 130.44 150.44 C 129.59 150.76 129.18 151.71 129.50 152.55 C 129.83 153.40 130.78 153.82 131.62 153.49 Z M 132.56 153.13 L 133.49 152.77 C 134.33 152.44 134.76 151.50 134.43 150.65 C 134.11 149.81 133.16 149.39 132.32 149.71 L 131.38 150.07 C 130.54 150.39 130.12 151.34 130.44 152.18 C 130.76 153.03 131.71 153.45 132.56 153.13 Z M 133.49 152.77 L 134.42 152.41 C 135.26 152.09 135.69 151.15 135.37 150.30 C 135.04 149.46 134.10 149.03 133.25 149.35 L 132.32 149.71 C 131.48 150.03 131.05 150.98 131.37 151.82 C 131.70 152.67 132.64 153.09 133.49 152.77 Z M 134.42 152.41 L 135.35 152.06 C 136.19 151.74 136.62 150.80 136.29 149.95 C 135.97 149.11 135.03 148.68 134.18 149.00 L 133.25 149.35 C 132.41 149.68 131.98 150.62 132.31 151.47 C 132.63 152.31 133.57 152.74 134.42 152.41 Z M 135.34 152.06 L 135.41 152.04 C 136.26 151.72 136.68 150.77 136.36 149.93 C 136.04 149.08 135.10 148.66 134.25 148.98 L 134.18 149.00 C 133.34 149.32 132.91 150.27 133.23 151.11 C 133.55 151.96 134.50 152.38 135.34 152.06 Z"
      fill="black"
      fill-rule="nonzero" /><path d="M 152.42 121.39 L 153.34 121.35 C 154.34 121.31 155.10 120.47 155.06 119.47 C 155.01 118.48 154.17 117.71 153.18 117.76 L 152.26 117.80 C 151.26 117.84 150.49 118.68 150.54 119.68 C 150.58 120.67 151.42 121.44 152.42 121.39 Z M 153.36 121.38 L 154.33 121.33 C 155.34 121.27 156.11 120.41 156.05 119.40 C 156.00 118.40 155.14 117.62 154.13 117.68 L 153.16 117.73 C 152.16 117.79 151.38 118.65 151.44 119.65 C 151.49 120.66 152.35 121.43 153.36 121.38 Z M 154.36 121.35 L 155.42 121.28 C 156.44 121.21 157.21 120.32 157.14 119.30 C 157.06 118.28 156.18 117.51 155.16 117.58 L 154.10 117.65 C 153.08 117.72 152.31 118.61 152.38 119.63 C 152.45 120.65 153.34 121.42 154.36 121.35 Z M 155.45 121.29 L 156.46 121.20 C 157.49 121.11 158.25 120.20 158.16 119.17 C 158.07 118.14 157.16 117.38 156.13 117.47 L 155.12 117.56 C 154.09 117.65 153.33 118.56 153.42 119.59 C 153.51 120.62 154.42 121.38 155.45 121.29 Z M 156.49 121.21 L 157.49 121.10 C 158.52 121.00 159.27 120.08 159.17 119.04 C 159.06 118.01 158.14 117.26 157.11 117.37 L 156.11 117.47 C 155.08 117.58 154.33 118.50 154.43 119.53 C 154.54 120.56 155.46 121.31 156.49 121.21 Z M 157.51 121.10 L 158.53 120.98 C 159.56 120.87 160.30 119.94 160.19 118.91 C 160.07 117.88 159.14 117.14 158.11 117.25 L 157.09 117.37 C 156.06 117.49 155.32 118.42 155.44 119.45 C 155.55 120.48 156.48 121.22 157.51 121.10 Z M 158.55 120.98 L 159.56 120.86 C 160.58 120.73 161.31 119.79 161.19 118.76 C 161.06 117.73 160.12 117.00 159.09 117.13 L 158.09 117.26 C 157.06 117.38 156.33 118.32 156.46 119.35 C 156.59 120.38 157.53 121.11 158.55 120.98 Z M 159.58 120.85 L 160.59 120.71 C 161.62 120.57 162.34 119.63 162.20 118.60 C 162.06 117.58 161.11 116.86 160.08 117.00 L 159.07 117.14 C 158.04 117.28 157.33 118.22 157.47 119.25 C 157.61 120.27 158.55 120.99 159.58 120.85 Z M 160.61 120.71 L 161.62 120.56 C 162.64 120.40 163.34 119.45 163.19 118.43 C 163.04 117.41 162.09 116.70 161.06 116.86 L 160.06 117.01 C 159.04 117.16 158.33 118.11 158.49 119.13 C 158.64 120.15 159.59 120.86 160.61 120.71 Z M 161.64 120.55 L 162.60 120.39 C 163.61 120.23 164.31 119.27 164.14 118.26 C 163.98 117.24 163.02 116.55 162.00 116.71 L 161.04 116.86 C 160.03 117.03 159.33 117.99 159.50 119.00 C 159.66 120.02 160.62 120.71 161.64 120.55 Z M 162.61 120.39 L 163.57 120.23 C 164.58 120.06 165.27 119.10 165.10 118.08 C 164.93 117.07 163.97 116.39 162.95 116.56 L 161.99 116.72 C 160.98 116.89 160.29 117.85 160.46 118.86 C 160.63 119.87 161.59 120.56 162.61 120.39 Z M 163.57 120.22 L 164.51 120.06 C 165.52 119.89 166.20 118.93 166.03 117.92 C 165.86 116.91 164.90 116.23 163.89 116.40 L 162.95 116.56 C 161.94 116.73 161.26 117.69 161.43 118.70 C 161.60 119.71 162.56 120.39 163.57 120.22 Z M 164.51 120.05 L 165.49 119.89 C 166.49 119.72 167.17 118.76 167.00 117.75 C 166.83 116.75 165.87 116.07 164.86 116.24 L 163.89 116.41 C 162.88 116.58 162.21 117.53 162.38 118.54 C 162.55 119.55 163.51 120.22 164.51 120.05 Z M 165.48 119.88 L 166.49 119.71 C 167.49 119.54 168.17 118.59 168.00 117.59 C 167.83 116.58 166.88 115.91 165.87 116.08 L 164.87 116.25 C 163.86 116.42 163.19 117.37 163.36 118.37 C 163.53 119.38 164.48 120.05 165.48 119.88 Z M 166.48 119.71 L 167.51 119.53 C 168.51 119.37 169.18 118.42 169.01 117.42 C 168.85 116.42 167.90 115.74 166.90 115.91 L 165.88 116.08 C 164.88 116.25 164.20 117.20 164.37 118.20 C 164.54 119.20 165.48 119.87 166.48 119.71 Z M 167.50 119.53 L 168.47 119.37 C 169.47 119.20 170.14 118.26 169.98 117.26 C 169.81 116.27 168.87 115.59 167.87 115.76 L 166.90 115.92 C 165.91 116.08 165.23 117.02 165.40 118.02 C 165.56 119.02 166.50 119.69 167.50 119.53 Z M 168.47 119.36 L 169.45 119.20 C 170.44 119.03 171.12 118.10 170.95 117.10 C 170.79 116.11 169.85 115.44 168.86 115.60 L 167.87 115.76 C 166.88 115.93 166.21 116.87 166.37 117.86 C 166.54 118.85 167.47 119.53 168.47 119.36 Z M 169.45 119.19 L 170.45 119.03 C 171.44 118.86 172.10 117.92 171.94 116.93 C 171.77 115.94 170.84 115.28 169.85 115.44 L 168.85 115.61 C 167.86 115.77 167.19 116.71 167.36 117.70 C 167.53 118.69 168.46 119.36 169.45 119.19 Z M 170.45 119.02 L 171.46 118.85 C 172.44 118.68 173.10 117.74 172.93 116.75 C 172.76 115.77 171.83 115.11 170.84 115.28 L 169.84 115.45 C 168.85 115.62 168.19 116.55 168.36 117.54 C 168.53 118.52 169.47 119.19 170.45 119.02 Z M 171.46 118.84 L 172.43 118.67 C 173.41 118.49 174.06 117.56 173.89 116.58 C 173.71 115.59 172.78 114.94 171.80 115.11 L 170.83 115.29 C 169.85 115.46 169.20 116.40 169.37 117.38 C 169.55 118.36 170.48 119.01 171.46 118.84 Z M 172.44 118.66 L 173.41 118.48 C 174.38 118.30 175.03 117.37 174.85 116.39 C 174.67 115.41 173.74 114.77 172.76 114.95 L 171.79 115.12 C 170.81 115.30 170.17 116.24 170.35 117.21 C 170.52 118.19 171.46 118.84 172.44 118.66 Z M 173.41 118.47 L 174.40 118.29 C 175.37 118.10 176.01 117.17 175.83 116.20 C 175.65 115.23 174.71 114.59 173.74 114.77 L 172.75 114.95 C 171.78 115.14 171.14 116.07 171.33 117.04 C 171.51 118.01 172.44 118.65 173.41 118.47 Z M 174.40 118.28 L 175.40 118.09 C 176.37 117.90 177.00 116.97 176.82 116.00 C 176.63 115.04 175.70 114.40 174.74 114.59 L 173.73 114.78 C 172.77 114.96 172.14 115.90 172.32 116.86 C 172.50 117.83 173.44 118.46 174.40 118.28 Z M 175.41 118.08 L 176.41 117.88 C 177.37 117.70 177.99 116.77 177.81 115.80 C 177.62 114.84 176.69 114.22 175.73 114.40 L 174.73 114.60 C 173.77 114.78 173.14 115.71 173.33 116.67 C 173.52 117.64 174.45 118.26 175.41 118.08 Z M 176.41 117.87 L 177.40 117.68 C 178.36 117.49 178.98 116.56 178.79 115.60 C 178.60 114.65 177.67 114.03 176.72 114.22 L 175.72 114.41 C 174.77 114.60 174.15 115.53 174.34 116.49 C 174.53 117.44 175.45 118.06 176.41 117.87 Z M 177.41 117.67 L 178.40 117.47 C 179.35 117.27 179.96 116.35 179.77 115.40 C 179.58 114.45 178.65 113.83 177.70 114.03 L 176.71 114.23 C 175.76 114.42 175.15 115.34 175.34 116.29 C 175.53 117.24 176.46 117.86 177.41 117.67 Z M 178.41 117.45 L 179.38 117.25 C 180.33 117.06 180.93 116.13 180.74 115.19 C 180.54 114.24 179.62 113.64 178.67 113.83 L 177.70 114.04 C 176.75 114.23 176.15 115.16 176.34 116.10 C 176.54 117.04 177.46 117.65 178.41 117.45 Z M 179.39 117.24 L 180.35 117.03 C 181.29 116.83 181.89 115.91 181.68 114.97 C 181.48 114.03 180.56 113.44 179.62 113.64 L 178.66 113.85 C 177.73 114.05 177.13 114.97 177.33 115.91 C 177.53 116.85 178.46 117.44 179.39 117.24 Z M 180.37 117.02 L 181.39 116.79 C 182.32 116.58 182.91 115.66 182.70 114.73 C 182.49 113.80 181.56 113.21 180.63 113.42 L 179.61 113.65 C 178.68 113.86 178.09 114.78 178.30 115.71 C 178.51 116.65 179.43 117.23 180.37 117.02 Z M 181.40 116.78 L 182.39 116.55 C 183.31 116.33 183.88 115.41 183.67 114.49 C 183.45 113.56 182.53 112.99 181.60 113.20 L 180.62 113.43 C 179.70 113.65 179.12 114.57 179.34 115.50 C 179.55 116.42 180.48 117.00 181.40 116.78 Z M 182.40 116.54 L 183.35 116.31 C 184.27 116.09 184.83 115.16 184.61 114.25 C 184.39 113.33 183.46 112.76 182.55 112.99 L 181.59 113.21 C 180.68 113.44 180.11 114.36 180.33 115.28 C 180.55 116.20 181.48 116.76 182.40 116.54 Z M 183.36 116.30 L 184.29 116.07 C 185.20 115.84 185.75 114.92 185.53 114.01 C 185.30 113.10 184.38 112.54 183.47 112.77 L 182.54 113.00 C 181.63 113.22 181.07 114.14 181.30 115.06 C 181.52 115.97 182.44 116.53 183.36 116.30 Z M 184.29 116.06 L 185.29 115.81 C 186.20 115.58 186.75 114.66 186.52 113.75 C 186.29 112.84 185.37 112.29 184.46 112.52 L 183.46 112.78 C 182.55 113.00 182.01 113.93 182.23 114.83 C 182.46 115.74 183.38 116.29 184.29 116.06 Z M 185.30 115.80 L 186.27 115.54 C 187.17 115.31 187.72 114.39 187.48 113.49 C 187.25 112.59 186.33 112.05 185.43 112.28 L 184.45 112.53 C 183.55 112.77 183.01 113.69 183.24 114.59 C 183.48 115.49 184.40 116.03 185.30 115.80 Z M 186.28 115.53 L 187.23 115.28 C 188.13 115.04 188.66 114.13 188.42 113.23 C 188.19 112.33 187.27 111.80 186.37 112.04 L 185.42 112.29 C 184.53 112.53 183.99 113.45 184.23 114.34 C 184.47 115.24 185.39 115.77 186.28 115.53 Z M 187.24 115.27 L 188.20 115.01 C 189.09 114.77 189.61 113.85 189.37 112.96 C 189.13 112.07 188.21 111.55 187.32 111.79 L 186.36 112.05 C 185.47 112.29 184.95 113.21 185.19 114.10 C 185.44 114.99 186.35 115.51 187.24 115.27 Z M 188.21 115.00 L 189.20 114.72 C 190.08 114.47 190.59 113.55 190.34 112.67 C 190.09 111.79 189.18 111.27 188.29 111.52 L 187.31 111.80 C 186.42 112.05 185.91 112.97 186.16 113.85 C 186.41 114.73 187.33 115.25 188.21 115.00 Z M 189.21 114.71 L 190.16 114.43 C 191.04 114.17 191.54 113.26 191.29 112.38 C 191.03 111.50 190.11 111.00 189.23 111.25 L 188.28 111.53 C 187.40 111.79 186.90 112.71 187.16 113.58 C 187.41 114.46 188.33 114.96 189.21 114.71 Z M 190.17 114.42 L 191.10 114.14 C 191.97 113.88 192.46 112.96 192.20 112.09 C 191.94 111.22 191.02 110.72 190.15 110.99 L 189.22 111.26 C 188.35 111.53 187.86 112.44 188.12 113.32 C 188.38 114.19 189.30 114.68 190.17 114.42 Z M 191.11 114.13 L 191.99 113.86 C 192.86 113.59 193.35 112.67 193.08 111.80 C 192.81 110.94 191.89 110.45 191.02 110.72 L 190.14 110.99 C 189.27 111.26 188.79 112.18 189.05 113.05 C 189.32 113.92 190.24 114.40 191.11 114.13 Z M 192.01 113.85 L 192.93 113.56 C 193.79 113.28 194.26 112.35 193.98 111.49 C 193.70 110.63 192.77 110.15 191.91 110.43 L 191.00 110.73 C 190.14 111.01 189.67 111.93 189.95 112.80 C 190.23 113.66 191.15 114.13 192.01 113.85 Z M 192.95 113.54 L 193.95 113.20 C 194.80 112.91 195.26 111.98 194.96 111.12 C 194.67 110.26 193.74 109.81 192.88 110.10 L 191.89 110.44 C 191.03 110.74 190.57 111.67 190.87 112.53 C 191.16 113.38 192.10 113.84 192.95 113.54 Z M 193.97 113.19 L 194.91 112.85 C 195.76 112.55 196.20 111.61 195.89 110.76 C 195.59 109.90 194.65 109.46 193.80 109.77 L 192.86 110.11 C 192.01 110.42 191.57 111.36 191.87 112.21 C 192.18 113.06 193.12 113.50 193.97 113.19 Z M 194.93 112.85 L 195.81 112.52 C 196.65 112.20 197.08 111.26 196.77 110.41 C 196.45 109.56 195.51 109.13 194.66 109.45 L 193.78 109.78 C 192.93 110.10 192.50 111.04 192.82 111.89 C 193.14 112.73 194.08 113.16 194.93 112.85 Z M 195.82 112.51 L 196.75 112.16 C 197.60 111.83 198.02 110.89 197.70 110.04 C 197.38 109.20 196.43 108.77 195.59 109.10 L 194.65 109.45 C 193.81 109.78 193.38 110.72 193.70 111.57 C 194.03 112.41 194.97 112.84 195.82 112.51 Z M 196.76 112.15 L 197.73 111.78 C 198.58 111.45 199.00 110.50 198.67 109.66 C 198.34 108.82 197.40 108.40 196.55 108.72 L 195.58 109.10 C 194.74 109.42 194.32 110.37 194.64 111.22 C 194.97 112.06 195.92 112.48 196.76 112.15 Z M 197.74 111.78 L 198.73 111.39 C 199.57 111.06 199.99 110.11 199.66 109.27 C 199.34 108.43 198.39 108.01 197.54 108.34 L 196.55 108.72 C 195.71 109.05 195.29 110.00 195.62 110.84 C 195.94 111.69 196.89 112.10 197.74 111.78 Z M 198.73 111.39 L 198.95 111.31 C 199.79 110.98 200.21 110.03 199.88 109.19 C 199.55 108.34 198.60 107.93 197.76 108.25 L 197.54 108.34 C 196.70 108.67 196.28 109.62 196.61 110.46 C 196.94 111.30 197.89 111.72 198.73 111.39 Z"
      fill="black"
      fill-rule="nonzero" /><path d="M 182.48 101.13 L 182.12 102.03 C 181.74 102.96 182.18 104.02 183.11 104.40 C 184.04 104.78 185.10 104.33 185.48 103.40 L 185.85 102.51 C 186.23 101.58 185.78 100.52 184.85 100.14 C 183.92 99.76 182.86 100.20 182.48 101.13 Z M 182.06 102.09 L 181.73 103.01 C 181.38 103.97 181.88 105.03 182.84 105.38 C 183.79 105.72 184.85 105.23 185.20 104.27 L 185.53 103.35 C 185.88 102.39 185.38 101.33 184.43 100.98 C 183.47 100.64 182.41 101.13 182.06 102.09 Z M 181.66 103.14 L 181.39 104.12 C 181.12 105.12 181.70 106.15 182.70 106.42 C 183.69 106.70 184.72 106.11 185.00 105.12 L 185.27 104.14 C 185.54 103.14 184.96 102.11 183.96 101.84 C 182.97 101.56 181.94 102.15 181.66 103.14 Z M 181.33 104.30 L 181.17 105.28 C 180.99 106.31 181.68 107.28 182.71 107.46 C 183.74 107.63 184.72 106.94 184.89 105.91 L 185.06 104.93 C 185.23 103.90 184.54 102.93 183.51 102.75 C 182.48 102.58 181.50 103.27 181.33 104.30 Z M 181.14 105.46 L 181.07 106.39 C 180.99 107.44 181.78 108.34 182.83 108.42 C 183.87 108.50 184.78 107.71 184.85 106.66 L 184.92 105.73 C 185.00 104.68 184.21 103.77 183.17 103.70 C 182.12 103.62 181.21 104.41 181.14 105.46 Z M 181.06 106.54 L 181.07 107.53 C 181.07 108.57 181.93 109.42 182.97 109.42 C 184.02 109.41 184.87 108.56 184.86 107.51 L 184.86 106.52 C 184.86 105.47 184.00 104.62 182.95 104.63 C 181.90 104.63 181.06 105.49 181.06 106.54 Z M 181.07 107.65 L 181.14 108.68 C 181.21 109.73 182.12 110.52 183.17 110.45 C 184.21 110.38 185.00 109.47 184.93 108.43 L 184.86 107.39 C 184.79 106.34 183.88 105.55 182.84 105.62 C 181.79 105.69 181.00 106.60 181.07 107.65 Z M 181.15 108.79 L 181.28 109.85 C 181.41 110.89 182.36 111.64 183.40 111.51 C 184.44 111.38 185.18 110.43 185.05 109.39 L 184.92 108.32 C 184.80 107.28 183.85 106.54 182.81 106.67 C 181.76 106.80 181.02 107.74 181.15 108.79 Z M 181.29 109.93 L 181.46 110.94 C 181.63 111.98 182.61 112.68 183.64 112.51 C 184.68 112.34 185.38 111.36 185.21 110.32 L 185.04 109.31 C 184.87 108.28 183.89 107.58 182.86 107.75 C 181.82 107.92 181.12 108.90 181.29 109.93 Z M 181.47 111.00 L 181.67 112.01 C 181.87 113.04 182.87 113.71 183.90 113.51 C 184.93 113.31 185.60 112.31 185.40 111.28 L 185.20 110.27 C 185.00 109.24 184.00 108.57 182.97 108.77 C 181.94 108.97 181.27 109.97 181.47 111.00 Z M 181.68 112.05 L 181.89 113.05 C 182.12 114.07 183.13 114.72 184.16 114.50 C 185.18 114.27 185.83 113.26 185.61 112.23 L 185.39 111.24 C 185.17 110.22 184.15 109.57 183.13 109.79 C 182.10 110.02 181.45 111.03 181.68 112.05 Z M 181.90 113.07 L 182.12 114.02 C 182.36 115.04 183.38 115.67 184.40 115.44 C 185.43 115.20 186.06 114.18 185.82 113.15 L 185.60 112.21 C 185.36 111.18 184.34 110.55 183.32 110.79 C 182.30 111.03 181.66 112.05 181.90 113.07 Z M 182.12 114.03 L 182.36 115.01 C 182.61 116.03 183.63 116.65 184.65 116.41 C 185.67 116.16 186.30 115.13 186.05 114.11 L 185.82 113.14 C 185.57 112.12 184.55 111.49 183.53 111.74 C 182.51 111.99 181.88 113.01 182.12 114.03 Z M 182.36 115.01 L 182.61 116.02 C 182.86 117.04 183.89 117.67 184.91 117.41 C 185.93 117.16 186.55 116.13 186.30 115.12 L 186.05 114.11 C 185.80 113.09 184.77 112.46 183.75 112.71 C 182.73 112.96 182.11 113.99 182.36 115.01 Z M 182.61 116.04 L 182.85 116.98 C 183.11 117.99 184.14 118.61 185.16 118.35 C 186.18 118.10 186.79 117.06 186.54 116.05 L 186.30 115.10 C 186.04 114.09 185.01 113.47 183.99 113.73 C 182.97 113.99 182.36 115.02 182.61 116.04 Z M 182.86 116.99 L 183.10 117.91 C 183.36 118.93 184.40 119.53 185.42 119.27 C 186.43 119.00 187.04 117.97 186.77 116.95 L 186.53 116.03 C 186.27 115.02 185.23 114.41 184.21 114.67 C 183.20 114.94 182.59 115.98 182.86 116.99 Z M 183.10 117.93 L 183.35 118.85 C 183.63 119.86 184.67 120.46 185.68 120.19 C 186.69 119.91 187.29 118.87 187.02 117.86 L 186.77 116.93 C 186.49 115.92 185.45 115.32 184.44 115.60 C 183.42 115.87 182.83 116.92 183.10 117.93 Z M 183.36 118.87 L 183.62 119.82 C 183.91 120.83 184.96 121.41 185.97 121.13 C 186.98 120.84 187.56 119.80 187.28 118.79 L 187.01 117.84 C 186.73 116.83 185.68 116.24 184.67 116.52 C 183.66 116.81 183.07 117.86 183.36 118.87 Z M 183.63 119.84 L 183.91 120.81 C 184.21 121.81 185.26 122.39 186.27 122.09 C 187.28 121.80 187.85 120.74 187.56 119.74 L 187.27 118.77 C 186.98 117.76 185.92 117.18 184.92 117.48 C 183.91 117.77 183.33 118.83 183.63 119.84 Z M 183.92 120.83 L 184.22 121.82 C 184.53 122.82 185.59 123.38 186.60 123.08 C 187.60 122.77 188.16 121.71 187.86 120.70 L 187.55 119.71 C 187.24 118.71 186.18 118.15 185.18 118.46 C 184.18 118.76 183.61 119.83 183.92 120.83 Z M 184.23 121.84 L 184.53 122.78 C 184.85 123.78 185.92 124.33 186.92 124.01 C 187.92 123.68 188.47 122.61 188.15 121.62 L 187.85 120.68 C 187.53 119.68 186.46 119.13 185.46 119.45 C 184.46 119.77 183.91 120.84 184.23 121.84 Z M 184.54 122.79 L 184.85 123.73 C 185.18 124.73 186.25 125.27 187.25 124.94 C 188.24 124.61 188.78 123.54 188.45 122.54 L 188.14 121.60 C 187.81 120.60 186.74 120.06 185.74 120.39 C 184.75 120.72 184.21 121.80 184.54 122.79 Z M 184.85 123.74 L 185.17 124.69 C 185.51 125.69 186.58 126.22 187.58 125.89 C 188.57 125.56 189.10 124.48 188.77 123.49 L 188.45 122.53 C 188.12 121.54 187.04 121.00 186.05 121.34 C 185.05 121.67 184.52 122.75 184.85 123.74 Z M 185.17 124.69 L 185.50 125.66 C 185.83 126.65 186.91 127.19 187.90 126.86 C 188.89 126.52 189.43 125.45 189.09 124.45 L 188.77 123.49 C 188.44 122.49 187.36 121.96 186.37 122.29 C 185.37 122.62 184.84 123.70 185.17 124.69 Z M 185.50 125.65 L 185.80 126.58 C 186.13 127.57 187.21 128.11 188.20 127.78 C 189.19 127.45 189.73 126.38 189.40 125.39 L 189.10 124.46 C 188.77 123.46 187.69 122.93 186.70 123.26 C 185.70 123.59 185.17 124.66 185.50 125.65 Z M 185.80 126.57 L 186.11 127.50 C 186.43 128.50 187.50 129.04 188.50 128.72 C 189.49 128.39 190.04 127.32 189.71 126.33 L 189.41 125.39 C 189.08 124.40 188.01 123.85 187.01 124.18 C 186.02 124.51 185.48 125.58 185.80 126.57 Z M 186.10 127.50 L 186.41 128.45 C 186.73 129.45 187.80 129.99 188.80 129.67 C 189.80 129.35 190.34 128.28 190.02 127.28 L 189.71 126.33 C 189.39 125.34 188.32 124.79 187.32 125.11 C 186.33 125.43 185.78 126.50 186.10 127.50 Z M 186.41 128.45 L 186.72 129.42 C 187.04 130.42 188.11 130.97 189.11 130.65 C 190.10 130.33 190.65 129.26 190.33 128.26 L 190.02 127.29 C 189.70 126.29 188.63 125.74 187.64 126.06 C 186.64 126.38 186.09 127.45 186.41 128.45 Z M 186.72 129.42 L 187.03 130.38 C 187.35 131.38 188.41 131.93 189.41 131.62 C 190.41 131.30 190.96 130.23 190.64 129.24 L 190.33 128.27 C 190.02 127.27 188.95 126.72 187.95 127.04 C 186.96 127.35 186.41 128.42 186.72 129.42 Z M 187.03 130.38 L 187.33 131.33 C 187.65 132.33 188.71 132.88 189.71 132.57 C 190.71 132.25 191.26 131.19 190.94 130.19 L 190.64 129.24 C 190.32 128.24 189.26 127.69 188.26 128.01 C 187.27 128.32 186.72 129.39 187.03 130.38 Z M 187.33 131.34 L 187.64 132.30 C 187.96 133.29 189.02 133.84 190.02 133.53 C 191.02 133.21 191.57 132.14 191.25 131.15 L 190.94 130.19 C 190.62 129.19 189.56 128.64 188.56 128.96 C 187.57 129.28 187.02 130.34 187.33 131.34 Z M 187.64 132.30 L 187.95 133.26 C 188.27 134.26 189.34 134.80 190.33 134.48 C 191.33 134.16 191.88 133.09 191.55 132.10 L 191.25 131.14 C 190.93 130.15 189.86 129.60 188.86 129.92 C 187.87 130.24 187.32 131.31 187.64 132.30 Z M 187.96 133.27 L 188.27 134.22 C 188.59 135.21 189.66 135.75 190.65 135.43 C 191.65 135.10 192.19 134.03 191.86 133.04 L 191.55 132.09 C 191.23 131.10 190.16 130.56 189.16 130.88 C 188.17 131.21 187.63 132.28 187.96 133.27 Z M 188.27 134.23 L 188.60 135.20 C 188.93 136.19 190.00 136.73 190.99 136.39 C 191.98 136.06 192.52 134.99 192.18 134.00 L 191.86 133.03 C 191.52 132.04 190.45 131.50 189.46 131.84 C 188.47 132.17 187.94 133.24 188.27 134.23 Z M 188.60 135.22 L 188.93 136.18 C 189.27 137.17 190.35 137.69 191.34 137.35 C 192.32 137.01 192.85 135.93 192.51 134.95 L 192.18 133.99 C 191.84 133.00 190.76 132.47 189.77 132.81 C 188.79 133.15 188.26 134.23 188.60 135.22 Z M 188.94 136.19 L 189.27 137.13 C 189.62 138.11 190.70 138.63 191.68 138.28 C 192.67 137.94 193.18 136.86 192.84 135.87 L 192.50 134.93 C 192.16 133.95 191.08 133.43 190.09 133.78 C 189.11 134.13 188.59 135.21 188.94 136.19 Z M 189.27 137.14 L 189.61 138.06 C 189.96 139.04 191.04 139.55 192.02 139.20 C 193.01 138.85 193.52 137.77 193.16 136.78 L 192.83 135.86 C 192.48 134.88 191.40 134.37 190.41 134.72 C 189.43 135.08 188.92 136.16 189.27 137.14 Z M 189.61 138.07 L 189.95 139.00 C 190.31 139.98 191.39 140.48 192.37 140.12 C 193.35 139.76 193.86 138.68 193.50 137.70 L 193.16 136.77 C 192.80 135.79 191.71 135.29 190.73 135.65 C 189.76 136.01 189.25 137.09 189.61 138.07 Z M 189.95 139.01 L 190.30 139.95 C 190.67 140.93 191.75 141.43 192.73 141.06 C 193.71 140.70 194.21 139.61 193.84 138.64 L 193.49 137.69 C 193.13 136.71 192.04 136.21 191.07 136.58 C 190.09 136.94 189.59 138.03 189.95 139.01 Z M 190.31 139.96 L 190.66 140.89 C 191.02 141.87 192.11 142.36 193.09 142.00 C 194.06 141.63 194.56 140.54 194.19 139.57 L 193.84 138.63 C 193.48 137.65 192.39 137.16 191.41 137.53 C 190.43 137.89 189.94 138.98 190.31 139.96 Z M 190.66 140.90 L 191.01 141.83 C 191.38 142.80 192.47 143.29 193.44 142.93 C 194.42 142.56 194.91 141.47 194.54 140.49 L 194.19 139.56 C 193.82 138.59 192.73 138.09 191.76 138.46 C 190.78 138.83 190.29 139.92 190.66 140.90 Z M 191.01 141.83 L 191.36 142.76 C 191.73 143.73 192.82 144.22 193.80 143.85 C 194.77 143.48 195.26 142.39 194.89 141.42 L 194.54 140.49 C 194.17 139.51 193.08 139.02 192.11 139.39 C 191.13 139.76 190.64 140.85 191.01 141.83 Z M 191.36 142.76 L 191.72 143.70 C 192.09 144.67 193.18 145.16 194.15 144.79 C 195.13 144.42 195.62 143.33 195.25 142.35 L 194.89 141.42 C 194.52 140.44 193.43 139.95 192.46 140.32 C 191.48 140.69 190.99 141.78 191.36 142.76 Z M 191.72 143.70 L 192.08 144.64 C 192.45 145.61 193.54 146.10 194.52 145.72 C 195.49 145.35 195.98 144.26 195.61 143.28 L 195.25 142.35 C 194.87 141.37 193.78 140.89 192.81 141.26 C 191.83 141.63 191.35 142.73 191.72 143.70 Z M 192.08 144.65 L 192.45 145.58 C 192.82 146.55 193.92 147.03 194.89 146.65 C 195.86 146.27 196.34 145.18 195.97 144.20 L 195.60 143.27 C 195.22 142.30 194.13 141.82 193.16 142.20 C 192.18 142.58 191.70 143.67 192.08 144.65 Z M 192.45 145.59 L 192.82 146.52 C 193.21 147.49 194.31 147.96 195.28 147.57 C 196.24 147.19 196.72 146.09 196.33 145.12 L 195.96 144.19 C 195.57 143.22 194.47 142.75 193.51 143.14 C 192.54 143.52 192.06 144.62 192.45 145.59 Z M 192.83 146.53 L 193.21 147.47 C 193.61 148.44 194.71 148.90 195.68 148.51 C 196.64 148.11 197.10 147.01 196.71 146.04 L 196.32 145.10 C 195.93 144.14 194.82 143.67 193.86 144.07 C 192.89 144.46 192.43 145.57 192.83 146.53 Z M 193.22 147.48 L 193.60 148.41 C 194.00 149.38 195.11 149.83 196.07 149.43 C 197.04 149.03 197.49 147.93 197.09 146.96 L 196.71 146.03 C 196.30 145.07 195.20 144.61 194.24 145.01 C 193.27 145.41 192.82 146.52 193.22 147.48 Z M 193.60 148.41 L 193.99 149.33 C 194.39 150.29 195.49 150.75 196.46 150.35 C 197.42 149.95 197.87 148.84 197.47 147.88 L 197.09 146.96 C 196.69 146.00 195.58 145.54 194.62 145.94 C 193.66 146.35 193.20 147.45 193.60 148.41 Z M 193.98 149.32 L 194.36 150.23 C 194.75 151.20 195.85 151.66 196.82 151.26 C 197.78 150.86 198.25 149.76 197.85 148.80 L 197.48 147.89 C 197.08 146.92 195.98 146.46 195.01 146.86 C 194.05 147.25 193.59 148.36 193.98 149.32 Z M 194.35 150.22 L 194.72 151.15 C 195.11 152.12 196.21 152.59 197.18 152.20 C 198.15 151.81 198.62 150.71 198.23 149.74 L 197.86 148.81 C 197.47 147.84 196.37 147.37 195.40 147.76 C 194.43 148.15 193.96 149.25 194.35 150.22 Z M 194.72 151.14 L 195.09 152.06 C 195.47 153.03 196.57 153.51 197.54 153.12 C 198.51 152.74 198.98 151.64 198.60 150.67 L 198.23 149.75 C 197.85 148.78 196.75 148.30 195.78 148.69 C 194.81 149.07 194.34 150.17 194.72 151.14 Z M 195.09 152.07 L 195.46 152.99 C 195.84 153.96 196.94 154.43 197.91 154.05 C 198.88 153.66 199.35 152.56 198.97 151.60 L 198.60 150.67 C 198.21 149.70 197.11 149.23 196.14 149.61 C 195.17 150.00 194.70 151.10 195.09 152.07 Z M 195.46 153.00 L 195.83 153.91 C 196.22 154.88 197.32 155.34 198.29 154.95 C 199.25 154.56 199.72 153.46 199.33 152.49 L 198.96 151.58 C 198.57 150.62 197.47 150.15 196.50 150.54 C 195.53 150.93 195.07 152.04 195.46 153.00 Z M 195.83 153.93 L 196.19 154.78 C 196.59 155.75 197.70 156.20 198.66 155.80 C 199.62 155.40 200.08 154.29 199.68 153.33 L 199.32 152.47 C 198.92 151.51 197.81 151.05 196.85 151.46 C 195.89 151.86 195.43 152.96 195.83 153.93 Z M 196.20 154.80 L 196.58 155.69 C 196.99 156.65 198.10 157.09 199.06 156.68 C 200.02 156.27 200.46 155.16 200.05 154.20 L 199.67 153.31 C 199.26 152.35 198.15 151.91 197.19 152.32 C 196.23 152.73 195.79 153.84 196.20 154.80 Z M 196.59 155.71 L 197.01 156.65 C 197.43 157.61 198.54 158.04 199.50 157.62 C 200.45 157.19 200.88 156.08 200.46 155.12 L 200.04 154.18 C 199.62 153.23 198.51 152.80 197.55 153.22 C 196.60 153.64 196.17 154.76 196.59 155.71 Z M 197.02 156.67 L 197.47 157.67 C 197.90 158.62 199.02 159.04 199.97 158.61 C 200.92 158.17 201.34 157.05 200.91 156.10 L 200.45 155.11 C 200.02 154.16 198.90 153.74 197.95 154.17 C 197.00 154.60 196.58 155.72 197.02 156.67 Z M 197.48 157.69 L 197.89 158.56 C 198.33 159.50 199.45 159.91 200.40 159.47 C 201.34 159.03 201.75 157.90 201.31 156.96 L 200.90 156.09 C 200.46 155.14 199.33 154.74 198.39 155.18 C 197.44 155.62 197.04 156.74 197.48 157.69 Z M 197.90 158.57 L 198.33 159.48 C 198.78 160.42 199.91 160.82 200.85 160.37 C 201.79 159.92 202.18 158.79 201.73 157.85 L 201.30 156.94 C 200.85 156.00 199.72 155.61 198.78 156.06 C 197.84 156.51 197.44 157.63 197.90 158.57 Z M 198.34 159.49 L 198.79 160.41 C 199.25 161.35 200.38 161.74 201.31 161.28 C 202.25 160.82 202.63 159.69 202.18 158.75 L 201.73 157.83 C 201.27 156.90 200.14 156.51 199.20 156.97 C 198.26 157.43 197.88 158.56 198.34 159.49 Z M 198.79 160.43 L 199.25 161.34 C 199.72 162.27 200.86 162.65 201.79 162.18 C 202.72 161.71 203.09 160.58 202.63 159.65 L 202.17 158.73 C 201.70 157.80 200.56 157.43 199.63 157.90 C 198.70 158.36 198.33 159.50 198.79 160.43 Z M 199.26 161.36 L 199.72 162.25 C 200.20 163.17 201.34 163.54 202.27 163.06 C 203.19 162.58 203.55 161.44 203.07 160.51 L 202.62 159.63 C 202.14 158.70 201.00 158.34 200.07 158.82 C 199.15 159.30 198.78 160.43 199.26 161.36 Z M 199.74 162.27 L 200.25 163.23 C 200.74 164.15 201.89 164.49 202.80 164.00 C 203.72 163.51 204.06 162.36 203.57 161.45 L 203.06 160.49 C 202.57 159.57 201.42 159.23 200.51 159.72 C 199.59 160.21 199.25 161.35 199.74 162.27 Z M 200.27 163.26 L 200.79 164.18 C 201.31 165.09 202.45 165.41 203.36 164.90 C 204.26 164.38 204.58 163.24 204.07 162.33 L 203.55 161.41 C 203.04 160.51 201.89 160.19 200.99 160.70 C 200.08 161.21 199.76 162.36 200.27 163.26 Z M 200.83 164.23 L 201.34 165.08 C 201.88 165.97 203.03 166.25 203.92 165.71 C 204.80 165.18 205.09 164.03 204.55 163.14 L 204.04 162.29 C 203.50 161.40 202.35 161.12 201.46 161.65 C 200.58 162.19 200.29 163.34 200.83 164.23 Z M 201.38 165.14 L 201.90 165.92 C 202.46 166.78 203.62 167.02 204.49 166.45 C 205.35 165.89 205.59 164.73 205.02 163.86 L 204.51 163.08 C 203.94 162.22 202.78 161.98 201.92 162.55 C 201.06 163.11 200.82 164.27 201.38 165.14 Z M 201.96 165.99 L 202.52 166.77 C 203.13 167.60 204.30 167.78 205.13 167.17 C 205.96 166.56 206.14 165.39 205.53 164.56 L 204.96 163.79 C 204.35 162.96 203.19 162.78 202.36 163.39 C 201.53 164.00 201.35 165.16 201.96 165.99 Z M 202.63 166.88 L 203.32 167.68 C 203.99 168.46 205.16 168.54 205.94 167.87 C 206.71 167.20 206.79 166.03 206.12 165.25 L 205.43 164.45 C 204.76 163.68 203.59 163.59 202.81 164.26 C 202.04 164.93 201.96 166.10 202.63 166.88 Z M 203.50 167.84 L 204.23 168.50 C 204.99 169.17 206.15 169.10 206.83 168.34 C 207.51 167.58 207.44 166.42 206.68 165.74 L 205.95 165.09 C 205.19 164.42 204.02 164.48 203.35 165.24 C 202.67 166.00 202.74 167.17 203.50 167.84 Z M 204.50 168.68 L 205.29 169.16 C 206.16 169.69 207.28 169.42 207.81 168.55 C 208.33 167.69 208.06 166.56 207.20 166.04 L 206.41 165.56 C 205.54 165.03 204.42 165.31 203.89 166.17 C 203.37 167.03 203.64 168.16 204.50 168.68 Z M 205.69 169.33 L 206.64 169.63 C 207.59 169.94 208.61 169.41 208.92 168.46 C 209.23 167.51 208.70 166.49 207.75 166.18 L 206.80 165.88 C 205.85 165.57 204.83 166.09 204.52 167.05 C 204.21 168.00 204.74 169.02 205.69 169.33 Z M 207.16 169.70 L 208.15 169.72 C 209.14 169.73 209.95 168.94 209.97 167.95 C 209.99 166.96 209.20 166.15 208.21 166.13 L 207.22 166.11 C 206.23 166.10 205.42 166.89 205.40 167.88 C 205.38 168.87 206.17 169.68 207.16 169.70 Z M 208.78 169.59 L 209.71 169.25 C 210.63 168.92 211.11 167.90 210.77 166.98 C 210.44 166.06 209.42 165.58 208.50 165.92 L 207.57 166.26 C 206.65 166.59 206.18 167.61 206.51 168.53 C 206.85 169.45 207.86 169.92 208.78 169.59 Z M 210.25 168.91 L 210.90 168.35 C 211.63 167.71 211.71 166.61 211.08 165.88 C 210.45 165.15 209.34 165.07 208.61 165.70 L 207.96 166.26 C 207.23 166.89 207.15 168.00 207.78 168.73 C 208.41 169.46 209.52 169.54 210.25 168.91 Z M 211.17 168.01 L 211.70 167.25 C 212.24 166.47 212.05 165.39 211.27 164.85 C 210.48 164.30 209.41 164.50 208.86 165.28 L 208.34 166.04 C 207.79 166.82 207.99 167.90 208.77 168.44 C 209.55 168.98 210.63 168.79 211.17 168.01 Z M 211.82 166.99 L 212.26 166.05 C 212.66 165.20 212.29 164.18 211.44 163.78 C 210.59 163.39 209.58 163.75 209.18 164.60 L 208.74 165.54 C 208.34 166.39 208.71 167.41 209.56 167.81 C 210.41 168.20 211.42 167.84 211.82 166.99 Z M 212.32 165.85 L 212.67 164.77 C 212.96 163.89 212.48 162.94 211.60 162.65 C 210.72 162.36 209.77 162.84 209.48 163.72 L 209.13 164.80 C 208.84 165.68 209.32 166.63 210.20 166.92 C 211.08 167.21 212.03 166.73 212.32 165.85 Z M 212.69 164.63 L 212.92 163.67 C 213.13 162.78 212.58 161.89 211.69 161.68 C 210.79 161.46 209.90 162.01 209.69 162.91 L 209.46 163.86 C 209.25 164.75 209.80 165.65 210.69 165.86 C 211.58 166.07 212.48 165.52 212.69 164.63 Z M 212.93 163.59 L 213.10 162.63 C 213.27 161.73 212.67 160.87 211.77 160.71 C 210.87 160.55 210.01 161.14 209.85 162.04 L 209.68 163.00 C 209.51 163.90 210.11 164.76 211.01 164.92 C 211.91 165.08 212.77 164.48 212.93 163.59 Z M 213.11 162.57 L 213.25 161.58 C 213.38 160.68 212.75 159.84 211.85 159.71 C 210.95 159.58 210.11 160.21 209.98 161.11 L 209.84 162.11 C 209.71 163.01 210.34 163.84 211.24 163.97 C 212.15 164.10 212.98 163.47 213.11 162.57 Z M 213.25 161.54 L 213.37 160.52 C 213.47 159.62 212.83 158.80 211.93 158.69 C 211.02 158.59 210.21 159.23 210.10 160.14 L 209.98 161.16 C 209.88 162.06 210.52 162.88 211.43 162.98 C 212.33 163.09 213.15 162.44 213.25 161.54 Z M 213.37 160.49 L 213.47 159.46 C 213.57 158.56 212.91 157.75 212.01 157.66 C 211.11 157.57 210.30 158.23 210.21 159.13 L 210.10 160.16 C 210.01 161.06 210.67 161.87 211.57 161.96 C 212.47 162.05 213.28 161.40 213.37 160.49 Z M 213.47 159.45 L 213.51 159.02 C 213.60 158.12 212.94 157.32 212.04 157.23 C 211.14 157.15 210.34 157.80 210.25 158.71 L 210.21 159.13 C 210.12 160.03 210.78 160.84 211.68 160.92 C 212.58 161.01 213.38 160.35 213.47 159.45 Z"
      fill="black"
      fill-rule="nonzero" /><path d="M 160.04 135.45 L 159.93 136.43 C 159.82 137.37 160.50 138.23 161.45 138.33 C 162.39 138.44 163.25 137.76 163.35 136.82 L 163.46 135.84 C 163.57 134.90 162.89 134.04 161.95 133.94 C 161.00 133.83 160.15 134.51 160.04 135.45 Z M 159.93 136.45 L 159.83 137.44 C 159.73 138.38 160.43 139.23 161.37 139.32 C 162.32 139.42 163.16 138.72 163.26 137.78 L 163.36 136.79 C 163.45 135.85 162.76 135.00 161.81 134.91 C 160.87 134.81 160.02 135.50 159.93 136.45 Z M 159.83 137.48 L 159.75 138.49 C 159.68 139.44 160.39 140.26 161.34 140.33 C 162.29 140.40 163.12 139.69 163.19 138.74 L 163.26 137.73 C 163.33 136.78 162.62 135.96 161.67 135.89 C 160.72 135.82 159.90 136.53 159.83 137.48 Z M 159.75 138.55 L 159.71 139.55 C 159.68 140.50 160.42 141.30 161.36 141.34 C 162.31 141.37 163.11 140.63 163.15 139.68 L 163.19 138.68 C 163.23 137.73 162.49 136.93 161.54 136.90 C 160.59 136.86 159.79 137.60 159.75 138.55 Z M 159.72 139.61 L 159.72 140.59 C 159.71 141.53 160.47 142.30 161.42 142.31 C 162.36 142.31 163.13 141.55 163.14 140.61 L 163.14 139.63 C 163.15 138.68 162.38 137.91 161.44 137.91 C 160.50 137.90 159.73 138.66 159.72 139.61 Z M 159.73 140.63 L 159.75 141.63 C 159.76 142.57 160.53 143.32 161.47 143.30 C 162.41 143.28 163.15 142.51 163.14 141.58 L 163.12 140.57 C 163.11 139.64 162.33 138.89 161.40 138.90 C 160.46 138.92 159.71 139.69 159.73 140.63 Z M 159.76 141.65 L 159.79 142.67 C 159.82 143.60 160.59 144.33 161.52 144.30 C 162.45 144.28 163.18 143.50 163.15 142.57 L 163.12 141.56 C 163.10 140.63 162.32 139.90 161.39 139.92 C 160.47 139.95 159.74 140.73 159.76 141.65 Z M 159.80 142.68 L 159.82 143.13 C 159.85 144.06 160.62 144.78 161.54 144.75 C 162.46 144.72 163.19 143.94 163.16 143.02 L 163.14 142.57 C 163.11 141.65 162.34 140.92 161.42 140.95 C 160.49 140.98 159.77 141.76 159.80 142.68 Z"
      fill="black"
      fill-rule="nonzero" /><path d="M 156.98 133.66 L 157.94 133.80 C 158.89 133.95 159.78 133.29 159.92 132.34 C 160.07 131.39 159.41 130.50 158.46 130.35 L 157.50 130.21 C 156.55 130.06 155.66 130.72 155.52 131.67 C 155.37 132.63 156.03 133.52 156.98 133.66 Z M 157.97 133.79 L 158.94 133.92 C 159.89 134.05 160.76 133.39 160.89 132.44 C 161.01 131.49 160.35 130.62 159.40 130.49 L 158.43 130.36 C 157.48 130.23 156.61 130.90 156.48 131.85 C 156.35 132.80 157.02 133.67 157.97 133.79 Z M 159.00 133.92 L 160.01 134.02 C 160.95 134.12 161.80 133.43 161.89 132.48 C 161.99 131.54 161.30 130.70 160.35 130.60 L 159.34 130.50 C 158.40 130.40 157.55 131.09 157.46 132.03 C 157.36 132.98 158.05 133.82 159.00 133.92 Z M 160.08 134.02 L 161.11 134.07 C 162.05 134.13 162.86 133.41 162.91 132.47 C 162.97 131.53 162.25 130.72 161.31 130.66 L 160.28 130.61 C 159.34 130.55 158.53 131.27 158.48 132.21 C 158.42 133.15 159.14 133.96 160.08 134.02 Z M 161.18 134.07 L 162.19 134.09 C 163.13 134.10 163.90 133.36 163.92 132.42 C 163.94 131.48 163.19 130.70 162.25 130.69 L 161.24 130.67 C 160.30 130.65 159.53 131.40 159.51 132.34 C 159.49 133.28 160.24 134.05 161.18 134.07 Z M 162.23 134.08 L 163.25 134.07 C 164.19 134.07 164.94 133.30 164.94 132.36 C 164.93 131.43 164.16 130.67 163.22 130.68 L 162.20 130.69 C 161.27 130.70 160.51 131.47 160.52 132.40 C 160.53 133.34 161.30 134.09 162.23 134.08 Z M 163.28 134.07 L 164.28 134.04 C 165.22 134.02 165.96 133.24 165.93 132.31 C 165.91 131.38 165.13 130.64 164.20 130.66 L 163.20 130.69 C 162.26 130.71 161.52 131.49 161.55 132.42 C 161.57 133.36 162.35 134.09 163.28 134.07 Z M 164.30 134.04 L 165.29 134.00 C 166.22 133.97 166.95 133.19 166.92 132.26 C 166.89 131.33 166.11 130.60 165.18 130.63 L 164.18 130.67 C 163.25 130.70 162.52 131.48 162.56 132.41 C 162.59 133.34 163.37 134.07 164.30 134.04 Z M 165.30 134.00 L 166.31 133.96 C 167.23 133.93 167.96 133.15 167.93 132.22 C 167.89 131.29 167.11 130.57 166.19 130.60 L 165.17 130.64 C 164.25 130.67 163.52 131.45 163.56 132.38 C 163.59 133.31 164.37 134.03 165.30 134.00 Z M 166.30 133.95 L 167.28 133.92 C 168.20 133.89 168.93 133.12 168.89 132.19 C 168.86 131.27 168.09 130.55 167.17 130.58 L 166.19 130.61 C 165.27 130.64 164.55 131.41 164.58 132.34 C 164.61 133.26 165.38 133.98 166.30 133.95 Z M 167.27 133.91 L 168.25 133.89 C 169.17 133.87 169.90 133.10 169.87 132.18 C 169.85 131.26 169.09 130.54 168.17 130.56 L 167.18 130.59 C 166.26 130.61 165.54 131.37 165.56 132.29 C 165.58 133.21 166.35 133.94 167.27 133.91 Z M 168.23 133.88 L 169.21 133.87 C 170.13 133.86 170.86 133.10 170.84 132.19 C 170.83 131.27 170.08 130.54 169.16 130.55 L 168.19 130.57 C 167.27 130.58 166.54 131.33 166.55 132.25 C 166.57 133.16 167.32 133.90 168.23 133.88 Z M 169.18 133.87 L 170.18 133.87 C 171.09 133.87 171.84 133.13 171.84 132.22 C 171.84 131.31 171.11 130.56 170.19 130.56 L 169.19 130.56 C 168.28 130.55 167.54 131.29 167.53 132.20 C 167.53 133.12 168.27 133.86 169.18 133.87 Z M 170.14 133.86 L 171.15 133.90 C 172.06 133.92 172.82 133.21 172.85 132.30 C 172.88 131.39 172.16 130.62 171.25 130.60 L 170.24 130.57 C 169.33 130.54 168.56 131.25 168.54 132.16 C 168.51 133.08 169.22 133.84 170.14 133.86 Z M 171.09 133.89 L 172.10 133.96 C 173.01 134.02 173.80 133.33 173.86 132.43 C 173.92 131.52 173.23 130.73 172.33 130.67 L 171.31 130.60 C 170.41 130.54 169.62 131.23 169.56 132.13 C 169.50 133.04 170.18 133.83 171.09 133.89 Z M 172.00 133.94 L 173.08 134.09 C 173.98 134.20 174.81 133.57 174.92 132.67 C 175.04 131.77 174.41 130.94 173.51 130.83 L 172.43 130.68 C 171.53 130.57 170.70 131.20 170.59 132.10 C 170.47 133.00 171.10 133.83 172.00 133.94 Z M 172.85 134.04 L 173.82 134.31 C 174.70 134.55 175.60 134.04 175.85 133.17 C 176.09 132.29 175.58 131.39 174.70 131.14 L 173.73 130.87 C 172.86 130.63 171.95 131.14 171.71 132.02 C 171.47 132.89 171.98 133.80 172.85 134.04 Z M 173.43 134.14 L 174.22 134.60 C 175.01 135.06 176.01 134.80 176.47 134.02 C 176.93 133.24 176.67 132.24 175.89 131.78 L 175.10 131.31 C 174.31 130.85 173.31 131.11 172.85 131.89 C 172.39 132.68 172.65 133.68 173.43 134.14 Z M 173.75 134.18 L 174.29 134.89 C 174.84 135.61 175.87 135.76 176.59 135.21 C 177.31 134.66 177.45 133.63 176.90 132.91 L 176.36 132.20 C 175.81 131.48 174.79 131.34 174.06 131.89 C 173.34 132.43 173.20 133.46 173.75 134.18 Z M 174.02 134.36 L 174.29 135.28 C 174.54 136.15 175.45 136.65 176.32 136.40 C 177.19 136.14 177.69 135.24 177.44 134.37 L 177.17 133.45 C 176.92 132.58 176.01 132.08 175.14 132.33 C 174.27 132.58 173.77 133.49 174.02 134.36 Z M 174.23 134.82 L 174.22 135.85 C 174.22 136.75 174.95 137.49 175.85 137.49 C 176.75 137.50 177.49 136.77 177.50 135.86 L 177.50 134.83 C 177.51 133.93 176.78 133.19 175.87 133.19 C 174.97 133.18 174.23 133.91 174.23 134.82 Z M 174.28 135.43 L 174.00 136.44 C 173.77 137.32 174.29 138.22 175.16 138.45 C 176.03 138.69 176.93 138.17 177.17 137.30 L 177.44 136.28 C 177.67 135.41 177.16 134.51 176.29 134.27 C 175.41 134.04 174.51 134.56 174.28 135.43 Z M 174.14 136.10 L 173.67 136.97 C 173.24 137.77 173.54 138.76 174.34 139.19 C 175.14 139.62 176.13 139.32 176.56 138.52 L 177.03 137.64 C 177.46 136.85 177.16 135.86 176.36 135.43 C 175.56 135.00 174.57 135.30 174.14 136.10 Z M 173.81 136.75 L 173.20 137.56 C 172.65 138.28 172.79 139.31 173.51 139.85 C 174.23 140.40 175.25 140.26 175.80 139.55 L 176.42 138.74 C 176.97 138.02 176.83 136.99 176.11 136.44 C 175.39 135.89 174.36 136.03 173.81 136.75 Z M 173.31 137.43 L 172.62 138.16 C 172.00 138.82 172.03 139.86 172.69 140.48 C 173.34 141.10 174.38 141.07 175.00 140.41 L 175.69 139.68 C 176.31 139.02 176.28 137.98 175.62 137.36 C 174.97 136.74 173.93 136.77 173.31 137.43 Z M 172.69 138.09 L 171.95 138.78 C 171.29 139.40 171.25 140.44 171.87 141.10 C 172.49 141.76 173.53 141.79 174.19 141.18 L 174.93 140.48 C 175.59 139.86 175.63 138.83 175.01 138.16 C 174.39 137.50 173.35 137.47 172.69 138.09 Z M 172.00 138.73 L 171.22 139.40 C 170.53 139.99 170.45 141.03 171.04 141.72 C 171.63 142.40 172.67 142.48 173.36 141.89 L 174.14 141.22 C 174.83 140.63 174.91 139.60 174.31 138.91 C 173.72 138.22 172.69 138.14 172.00 138.73 Z M 171.27 139.36 L 170.50 139.96 C 169.79 140.53 169.67 141.56 170.24 142.27 C 170.80 142.99 171.83 143.10 172.55 142.54 L 173.31 141.94 C 174.02 141.37 174.14 140.34 173.58 139.62 C 173.01 138.91 171.98 138.79 171.27 139.36 Z M 170.54 139.93 L 169.77 140.50 C 169.04 141.05 168.90 142.08 169.44 142.81 C 169.99 143.54 171.02 143.69 171.75 143.14 L 172.51 142.57 C 173.24 142.03 173.39 140.99 172.84 140.26 C 172.30 139.54 171.27 139.39 170.54 139.93 Z M 169.80 140.49 L 169.03 141.04 C 168.29 141.57 168.12 142.60 168.65 143.34 C 169.18 144.08 170.22 144.25 170.95 143.72 L 171.72 143.16 C 172.46 142.63 172.63 141.60 172.10 140.86 C 171.57 140.12 170.53 139.95 169.80 140.49 Z M 169.05 141.02 L 168.24 141.58 C 167.49 142.10 167.30 143.13 167.82 143.88 C 168.34 144.63 169.37 144.82 170.12 144.30 L 170.93 143.74 C 171.68 143.22 171.87 142.19 171.35 141.44 C 170.83 140.69 169.80 140.50 169.05 141.02 Z M 168.27 141.56 L 167.39 142.14 C 166.63 142.65 166.42 143.67 166.92 144.43 C 167.43 145.19 168.45 145.40 169.21 144.90 L 170.09 144.32 C 170.85 143.82 171.06 142.79 170.55 142.03 C 170.05 141.27 169.03 141.06 168.27 141.56 Z M 167.42 142.12 L 166.57 142.65 C 165.80 143.14 165.57 144.16 166.06 144.94 C 166.55 145.71 167.57 145.94 168.34 145.45 L 169.19 144.92 C 169.96 144.43 170.19 143.41 169.70 142.64 C 169.21 141.86 168.19 141.63 167.42 142.12 Z M 166.59 142.64 L 165.74 143.16 C 164.96 143.64 164.71 144.66 165.19 145.44 C 165.66 146.22 166.69 146.47 167.47 145.99 L 168.32 145.47 C 169.11 144.99 169.35 143.97 168.87 143.19 C 168.40 142.41 167.38 142.16 166.59 142.64 Z M 165.75 143.15 L 164.88 143.67 C 164.09 144.14 163.83 145.16 164.30 145.95 C 164.77 146.74 165.79 147.00 166.58 146.53 L 167.45 146.01 C 168.24 145.54 168.50 144.51 168.03 143.72 C 167.56 142.94 166.54 142.68 165.75 143.15 Z M 164.89 143.66 L 164.02 144.17 C 163.22 144.63 162.96 145.65 163.42 146.45 C 163.89 147.24 164.91 147.51 165.70 147.04 L 166.57 146.54 C 167.37 146.07 167.63 145.05 167.17 144.25 C 166.70 143.46 165.68 143.19 164.89 143.66 Z M 164.02 144.15 L 163.12 144.67 C 162.32 145.14 162.04 146.16 162.50 146.96 C 162.97 147.77 163.99 148.04 164.79 147.58 L 165.70 147.06 C 166.50 146.60 166.78 145.57 166.31 144.77 C 165.85 143.96 164.83 143.69 164.02 144.15 Z M 163.12 144.65 L 162.24 145.15 C 161.43 145.61 161.14 146.64 161.60 147.45 C 162.06 148.27 163.09 148.56 163.90 148.10 L 164.79 147.60 C 165.60 147.14 165.89 146.11 165.43 145.30 C 164.97 144.48 163.94 144.19 163.12 144.65 Z M 162.26 145.12 L 161.40 145.59 C 160.57 146.04 160.27 147.08 160.72 147.90 C 161.17 148.73 162.20 149.04 163.03 148.59 L 163.89 148.12 C 164.72 147.67 165.02 146.64 164.57 145.81 C 164.12 144.98 163.09 144.67 162.26 145.12 Z M 161.43 145.56 L 160.43 146.07 C 159.58 146.51 159.25 147.55 159.68 148.39 C 160.12 149.24 161.16 149.57 162.00 149.14 L 163.00 148.62 C 163.85 148.19 164.18 147.15 163.75 146.30 C 163.31 145.46 162.28 145.12 161.43 145.56 Z M 160.45 146.05 L 159.43 146.55 C 158.57 146.97 158.22 148.01 158.64 148.87 C 159.06 149.73 160.10 150.08 160.95 149.66 L 161.98 149.16 C 162.84 148.74 163.19 147.70 162.77 146.84 C 162.35 145.98 161.31 145.63 160.45 146.05 Z M 160.37 149.84 L 160.43 149.83 C 161.38 149.73 162.08 148.88 161.98 147.92 C 161.88 146.97 161.03 146.27 160.08 146.37 L 160.02 146.38 C 159.06 146.47 158.37 147.32 158.46 148.28 C 158.56 149.24 159.41 149.93 160.37 149.84 Z M 160.93 149.70 L 161.48 149.47 C 162.37 149.09 162.78 148.07 162.40 147.18 C 162.03 146.30 161.00 145.89 160.12 146.26 L 159.57 146.50 C 158.68 146.87 158.27 147.90 158.65 148.78 C 159.03 149.67 160.05 150.08 160.93 149.70 Z M 161.49 149.47 L 162.32 149.11 C 163.21 148.73 163.62 147.70 163.24 146.82 C 162.86 145.94 161.83 145.53 160.95 145.91 L 160.11 146.26 C 159.23 146.64 158.82 147.67 159.20 148.55 C 159.58 149.44 160.60 149.85 161.49 149.47 Z M 162.32 149.11 L 163.36 148.67 C 164.24 148.29 164.65 147.26 164.27 146.38 C 163.89 145.49 162.87 145.08 161.98 145.46 L 160.95 145.90 C 160.06 146.28 159.65 147.31 160.03 148.19 C 160.41 149.08 161.44 149.49 162.32 149.11 Z M 163.35 148.67 L 164.50 148.18 C 165.39 147.81 165.80 146.78 165.43 145.89 C 165.05 145.01 164.02 144.59 163.13 144.97 L 161.99 145.46 C 161.10 145.83 160.68 146.86 161.06 147.75 C 161.44 148.64 162.47 149.05 163.35 148.67 Z M 164.49 148.19 L 165.64 147.71 C 166.53 147.33 166.94 146.31 166.57 145.42 C 166.20 144.53 165.17 144.11 164.28 144.49 L 163.14 144.97 C 162.25 145.34 161.83 146.36 162.21 147.25 C 162.58 148.14 163.61 148.56 164.49 148.19 Z M 165.63 147.71 L 166.65 147.28 C 167.54 146.91 167.96 145.89 167.59 145.01 C 167.23 144.12 166.21 143.69 165.32 144.06 L 164.29 144.49 C 163.41 144.85 162.98 145.87 163.35 146.76 C 163.72 147.65 164.74 148.07 165.63 147.71 Z M 166.64 147.28 L 167.63 146.88 C 168.51 146.51 168.94 145.50 168.58 144.61 C 168.21 143.73 167.20 143.30 166.32 143.66 L 165.33 144.07 C 164.44 144.43 164.02 145.44 164.38 146.33 C 164.74 147.21 165.75 147.64 166.64 147.28 Z M 167.62 146.87 L 168.55 146.49 C 169.44 146.14 169.86 145.13 169.51 144.25 C 169.15 143.36 168.15 142.94 167.26 143.29 L 166.33 143.67 C 165.44 144.02 165.01 145.03 165.37 145.91 C 165.73 146.80 166.73 147.23 167.62 146.87 Z M 168.54 146.49 L 169.42 146.14 C 170.30 145.79 170.73 144.79 170.38 143.91 C 170.03 143.03 169.03 142.60 168.15 142.95 L 167.27 143.30 C 166.39 143.65 165.96 144.64 166.31 145.53 C 166.66 146.41 167.66 146.84 168.54 146.49 Z M 169.41 146.14 L 170.21 145.82 C 171.09 145.48 171.53 144.49 171.18 143.61 C 170.84 142.73 169.85 142.29 168.97 142.64 L 168.16 142.95 C 167.28 143.30 166.85 144.29 167.19 145.17 C 167.53 146.05 168.53 146.48 169.41 146.14 Z M 170.20 145.82 L 171.22 145.42 C 172.10 145.09 172.54 144.10 172.20 143.23 C 171.86 142.35 170.88 141.91 170.00 142.25 L 168.98 142.64 C 168.11 142.98 167.67 143.96 168.00 144.84 C 168.34 145.71 169.32 146.15 170.20 145.82 Z M 171.20 145.42 L 172.15 145.06 C 173.02 144.74 173.47 143.77 173.14 142.90 C 172.82 142.03 171.85 141.58 170.98 141.91 L 170.03 142.26 C 169.15 142.58 168.71 143.55 169.03 144.42 C 169.36 145.30 170.33 145.74 171.20 145.42 Z M 172.12 145.05 L 173.00 144.74 C 173.87 144.43 174.32 143.48 174.01 142.61 C 173.70 141.74 172.74 141.29 171.88 141.60 L 171.00 141.91 C 170.13 142.22 169.68 143.18 169.99 144.05 C 170.30 144.91 171.26 145.36 172.12 145.05 Z M 172.98 144.73 L 173.85 144.43 C 174.71 144.14 175.17 143.20 174.88 142.33 C 174.58 141.47 173.64 141.01 172.78 141.31 L 171.90 141.61 C 171.04 141.90 170.58 142.84 170.88 143.71 C 171.17 144.57 172.11 145.03 172.98 144.73 Z M 173.83 144.43 L 174.77 144.12 C 175.63 143.83 176.09 142.90 175.81 142.04 C 175.52 141.18 174.59 140.71 173.73 141.00 L 172.79 141.31 C 171.93 141.60 171.46 142.53 171.75 143.39 C 172.04 144.25 172.97 144.72 173.83 144.43 Z M 174.75 144.12 L 175.71 143.81 C 176.57 143.53 177.04 142.60 176.76 141.74 C 176.48 140.88 175.56 140.41 174.69 140.69 L 173.74 141.00 C 172.88 141.28 172.40 142.20 172.68 143.07 C 172.96 143.93 173.89 144.40 174.75 144.12 Z M 175.70 143.81 L 176.67 143.50 C 177.53 143.22 178.01 142.30 177.73 141.44 C 177.45 140.58 176.53 140.10 175.67 140.38 L 174.70 140.69 C 173.84 140.97 173.36 141.89 173.64 142.75 C 173.92 143.61 174.84 144.09 175.70 143.81 Z M 176.67 143.50 L 176.84 143.44 C 177.70 143.17 178.18 142.25 177.90 141.38 C 177.62 140.52 176.70 140.05 175.84 140.32 L 175.67 140.38 C 174.81 140.65 174.33 141.58 174.61 142.44 C 174.89 143.30 175.81 143.77 176.67 143.50 Z"
      fill="black"
      fill-rule="nonzero" /><path d="M 154.79 166.14 L 155.71 166.46 C 156.65 166.79 157.68 166.29 158.01 165.36 C 158.34 164.42 157.84 163.39 156.91 163.06 L 155.98 162.74 C 155.04 162.41 154.02 162.90 153.69 163.84 C 153.36 164.78 153.85 165.81 154.79 166.14 Z M 155.83 166.50 L 156.78 166.76 C 157.74 167.03 158.74 166.46 159.00 165.50 C 159.27 164.54 158.70 163.55 157.74 163.28 L 156.79 163.02 C 155.83 162.76 154.83 163.32 154.57 164.28 C 154.31 165.24 154.87 166.24 155.83 166.50 Z M 157.02 166.81 L 158.03 166.95 C 159.02 167.08 159.93 166.39 160.06 165.40 C 160.20 164.41 159.50 163.50 158.52 163.37 L 157.51 163.23 C 156.52 163.10 155.61 163.79 155.47 164.78 C 155.34 165.77 156.03 166.68 157.02 166.81 Z M 158.31 166.96 L 159.19 166.95 C 160.19 166.93 160.98 166.10 160.96 165.10 C 160.94 164.11 160.12 163.31 159.12 163.34 L 158.23 163.35 C 157.24 163.37 156.45 164.20 156.47 165.20 C 156.49 166.19 157.31 166.99 158.31 166.96 Z M 159.40 166.92 L 160.31 166.80 C 161.30 166.66 161.99 165.75 161.85 164.77 C 161.71 163.78 160.80 163.10 159.82 163.23 L 158.91 163.36 C 157.92 163.49 157.24 164.40 157.37 165.39 C 157.51 166.37 158.42 167.06 159.40 166.92 Z M 160.45 166.77 L 161.44 166.55 C 162.41 166.34 163.02 165.39 162.81 164.42 C 162.60 163.45 161.65 162.84 160.68 163.05 L 159.68 163.26 C 158.72 163.47 158.10 164.43 158.31 165.40 C 158.52 166.36 159.48 166.98 160.45 166.77 Z M 161.52 166.53 L 162.61 166.24 C 163.56 165.98 164.13 165.00 163.88 164.05 C 163.62 163.10 162.64 162.53 161.69 162.78 L 160.60 163.07 C 159.64 163.33 159.08 164.31 159.33 165.26 C 159.58 166.21 160.56 166.78 161.52 166.53 Z M 162.64 166.22 L 163.64 165.93 C 164.59 165.65 165.13 164.67 164.86 163.72 C 164.58 162.78 163.60 162.24 162.65 162.51 L 161.65 162.80 C 160.71 163.07 160.17 164.06 160.44 165.00 C 160.71 165.95 161.70 166.49 162.64 166.22 Z M 163.66 165.91 L 164.63 165.61 C 165.57 165.33 166.09 164.35 165.81 163.41 C 165.53 162.48 164.55 161.95 163.61 162.24 L 162.64 162.53 C 161.71 162.81 161.18 163.80 161.46 164.73 C 161.74 165.66 162.73 166.19 163.66 165.91 Z M 164.64 165.60 L 165.63 165.29 C 166.56 165.00 167.07 164.02 166.78 163.10 C 166.50 162.17 165.52 161.66 164.59 161.94 L 163.60 162.25 C 162.68 162.54 162.16 163.52 162.45 164.45 C 162.74 165.37 163.72 165.88 164.64 165.60 Z M 165.64 165.27 L 166.62 164.96 C 167.53 164.66 168.04 163.69 167.74 162.77 C 167.45 161.86 166.47 161.36 165.56 161.65 L 164.58 161.96 C 163.67 162.26 163.17 163.23 163.46 164.15 C 163.75 165.06 164.73 165.56 165.64 165.27 Z M 166.63 164.94 L 167.56 164.63 C 168.46 164.34 168.96 163.36 168.66 162.46 C 168.36 161.56 167.39 161.06 166.49 161.36 L 165.55 161.67 C 164.65 161.96 164.16 162.94 164.46 163.84 C 164.75 164.74 165.73 165.23 166.63 164.94 Z M 167.57 164.61 L 168.54 164.28 C 169.44 163.98 169.92 163.01 169.61 162.12 C 169.31 161.23 168.34 160.75 167.45 161.05 L 166.48 161.38 C 165.58 161.68 165.11 162.65 165.41 163.54 C 165.71 164.44 166.68 164.91 167.57 164.61 Z M 168.56 164.26 L 169.57 163.91 C 170.45 163.60 170.92 162.64 170.61 161.75 C 170.30 160.87 169.34 160.41 168.46 160.72 L 167.44 161.07 C 166.56 161.38 166.09 162.34 166.40 163.22 C 166.71 164.11 167.67 164.57 168.56 164.26 Z M 169.58 163.89 L 170.50 163.56 C 171.37 163.25 171.82 162.29 171.51 161.42 C 171.20 160.55 170.24 160.10 169.37 160.41 L 168.45 160.74 C 167.58 161.05 167.13 162.00 167.44 162.88 C 167.75 163.75 168.71 164.20 169.58 163.89 Z M 170.49 163.54 L 171.36 163.23 C 172.22 162.92 172.67 161.97 172.36 161.11 C 172.05 160.25 171.10 159.80 170.24 160.11 L 169.37 160.42 C 168.51 160.73 168.06 161.68 168.37 162.54 C 168.68 163.41 169.63 163.85 170.49 163.54 Z M 171.35 163.22 L 172.24 162.91 C 173.10 162.61 173.55 161.67 173.24 160.81 C 172.94 159.95 172.00 159.50 171.15 159.81 L 170.25 160.12 C 169.39 160.42 168.94 161.36 169.25 162.22 C 169.55 163.08 170.49 163.53 171.35 163.22 Z M 172.23 162.91 L 173.18 162.58 C 174.03 162.28 174.49 161.35 174.19 160.49 C 173.90 159.64 172.96 159.18 172.11 159.48 L 171.16 159.81 C 170.30 160.10 169.85 161.04 170.14 161.89 C 170.44 162.75 171.37 163.20 172.23 162.91 Z M 173.17 162.58 L 174.13 162.25 C 174.98 161.96 175.44 161.03 175.14 160.17 C 174.85 159.31 173.92 158.86 173.06 159.15 L 172.11 159.48 C 171.25 159.77 170.80 160.71 171.09 161.56 C 171.39 162.42 172.32 162.87 173.17 162.58 Z M 174.13 162.25 L 175.07 161.92 C 175.93 161.63 176.38 160.69 176.08 159.84 C 175.79 158.98 174.85 158.53 174.00 158.83 L 173.06 159.16 C 172.20 159.45 171.75 160.39 172.05 161.24 C 172.34 162.09 173.28 162.55 174.13 162.25 Z M 175.09 161.92 L 176.05 161.57 C 176.90 161.27 177.34 160.33 177.04 159.48 C 176.73 158.63 175.80 158.19 174.95 158.49 L 173.99 158.83 C 173.14 159.14 172.69 160.07 173.00 160.93 C 173.30 161.78 174.24 162.22 175.09 161.92 Z M 176.06 161.57 L 177.00 161.23 C 177.85 160.91 178.28 159.97 177.97 159.13 C 177.66 158.28 176.72 157.84 175.87 158.15 L 174.93 158.50 C 174.08 158.81 173.65 159.75 173.96 160.60 C 174.27 161.45 175.21 161.88 176.06 161.57 Z M 177.01 161.22 L 177.93 160.88 C 178.78 160.56 179.21 159.62 178.90 158.77 C 178.58 157.92 177.64 157.49 176.79 157.81 L 175.87 158.15 C 175.02 158.47 174.59 159.41 174.90 160.26 C 175.22 161.11 176.16 161.54 177.01 161.22 Z M 177.94 160.88 L 178.51 160.66 C 179.35 160.35 179.78 159.40 179.46 158.56 C 179.15 157.71 178.20 157.28 177.36 157.60 L 176.79 157.81 C 175.94 158.13 175.51 159.07 175.83 159.92 C 176.15 160.76 177.09 161.19 177.94 160.88 Z"
      fill="black"
      fill-rule="nonzero" /><path d="M 200.37 138.66 L 199.82 139.53 C 199.29 140.40 199.56 141.54 200.42 142.07 C 201.29 142.61 202.43 142.34 202.96 141.48 L 203.51 140.60 C 204.04 139.73 203.77 138.60 202.91 138.06 C 202.04 137.52 200.90 137.79 200.37 138.66 Z M 199.80 139.53 L 199.27 140.40 C 198.74 141.28 199.01 142.43 199.89 142.97 C 200.77 143.50 201.92 143.22 202.46 142.34 L 202.99 141.47 C 203.52 140.59 203.24 139.45 202.36 138.91 C 201.49 138.38 200.34 138.65 199.80 139.53 Z M 199.24 140.42 L 198.73 141.28 C 198.21 142.17 198.50 143.33 199.40 143.86 C 200.29 144.38 201.45 144.09 201.98 143.19 L 202.48 142.33 C 203.01 141.44 202.72 140.28 201.82 139.75 C 200.93 139.23 199.77 139.52 199.24 140.42 Z M 198.70 141.30 L 198.22 142.15 C 197.71 143.07 198.03 144.22 198.95 144.74 C 199.86 145.25 201.02 144.93 201.54 144.01 L 202.01 143.17 C 202.53 142.25 202.20 141.09 201.29 140.58 C 200.37 140.06 199.21 140.39 198.70 141.30 Z M 198.18 142.20 L 197.71 143.11 C 197.22 144.05 197.58 145.20 198.52 145.69 C 199.46 146.18 200.61 145.82 201.10 144.88 L 201.58 143.97 C 202.06 143.03 201.70 141.87 200.76 141.38 C 199.82 140.90 198.67 141.26 198.18 142.20 Z M 197.67 143.17 L 197.23 144.11 C 196.77 145.07 197.18 146.21 198.14 146.67 C 199.10 147.12 200.24 146.71 200.69 145.75 L 201.14 144.82 C 201.59 143.86 201.18 142.71 200.22 142.26 C 199.27 141.81 198.12 142.22 197.67 143.17 Z M 197.20 144.17 L 196.81 145.08 C 196.39 146.06 196.84 147.18 197.81 147.60 C 198.78 148.02 199.91 147.57 200.33 146.60 L 200.72 145.69 C 201.14 144.72 200.69 143.59 199.72 143.17 C 198.75 142.75 197.62 143.20 197.20 144.17 Z M 196.78 145.14 L 196.44 146.01 C 196.05 146.99 196.53 148.11 197.52 148.50 C 198.51 148.89 199.62 148.41 200.01 147.42 L 200.36 146.55 C 200.75 145.56 200.26 144.44 199.27 144.05 C 198.29 143.66 197.17 144.15 196.78 145.14 Z M 196.42 146.05 L 196.11 146.91 C 195.74 147.91 196.25 149.01 197.25 149.38 C 198.25 149.74 199.35 149.23 199.72 148.23 L 200.03 147.37 C 200.39 146.38 199.88 145.27 198.89 144.91 C 197.89 144.54 196.78 145.06 196.42 146.05 Z M 196.10 146.94 L 195.79 147.82 C 195.45 148.83 195.98 149.92 196.98 150.26 C 197.99 150.61 199.08 150.08 199.43 149.07 L 199.73 148.20 C 200.07 147.19 199.54 146.10 198.54 145.75 C 197.53 145.41 196.44 145.94 196.10 146.94 Z M 195.79 147.84 L 195.47 148.80 C 195.13 149.81 195.67 150.89 196.68 151.23 C 197.68 151.57 198.77 151.03 199.11 150.02 L 199.43 149.06 C 199.77 148.05 199.22 146.97 198.22 146.63 C 197.21 146.29 196.13 146.83 195.79 147.84 Z M 195.47 148.80 L 195.12 149.85 C 194.78 150.85 195.32 151.94 196.32 152.28 C 197.33 152.61 198.41 152.07 198.75 151.07 L 199.10 150.02 C 199.44 149.02 198.90 147.93 197.90 147.59 C 196.89 147.26 195.81 147.80 195.47 148.80 Z M 195.12 149.84 L 194.82 150.72 C 194.48 151.72 195.02 152.81 196.02 153.15 C 197.02 153.49 198.11 152.95 198.45 151.95 L 198.75 151.08 C 199.09 150.08 198.55 148.99 197.55 148.65 C 196.55 148.31 195.46 148.84 195.12 149.84 Z M 194.83 150.72 L 194.51 151.66 C 194.16 152.66 194.70 153.74 195.69 154.08 C 196.69 154.43 197.77 153.90 198.12 152.90 L 198.44 151.96 C 198.78 150.96 198.25 149.87 197.25 149.53 C 196.26 149.19 195.17 149.72 194.83 150.72 Z M 194.51 151.66 L 194.18 152.64 C 193.83 153.64 194.36 154.72 195.36 155.06 C 196.35 155.40 197.43 154.87 197.78 153.88 L 198.11 152.90 C 198.45 151.90 197.92 150.82 196.93 150.48 C 195.93 150.14 194.85 150.67 194.51 151.66 Z M 194.18 152.65 L 193.84 153.64 C 193.51 154.63 194.04 155.70 195.03 156.04 C 196.02 156.38 197.10 155.85 197.43 154.86 L 197.77 153.87 C 198.11 152.88 197.58 151.80 196.59 151.46 C 195.60 151.13 194.52 151.66 194.18 152.65 Z M 193.85 153.64 L 193.52 154.61 C 193.19 155.60 193.72 156.67 194.71 157.01 C 195.70 157.34 196.77 156.81 197.11 155.82 L 197.43 154.85 C 197.76 153.86 197.23 152.79 196.24 152.45 C 195.25 152.12 194.18 152.65 193.85 153.64 Z M 193.53 154.62 L 193.23 155.52 C 192.91 156.51 193.44 157.57 194.43 157.90 C 195.41 158.22 196.48 157.69 196.80 156.70 L 197.10 155.80 C 197.42 154.82 196.89 153.75 195.90 153.43 C 194.92 153.10 193.85 153.64 193.53 154.62 Z M 193.24 155.54 L 192.96 156.42 C 192.64 157.40 193.18 158.45 194.16 158.77 C 195.14 159.08 196.19 158.54 196.51 157.56 L 196.79 156.68 C 197.11 155.70 196.57 154.65 195.59 154.34 C 194.61 154.02 193.56 154.56 193.24 155.54 Z M 192.97 156.44 L 192.69 157.34 C 192.38 158.31 192.93 159.35 193.90 159.65 C 194.87 159.96 195.91 159.41 196.21 158.44 L 196.50 157.54 C 196.80 156.57 196.26 155.53 195.28 155.23 C 194.31 154.92 193.28 155.47 192.97 156.44 Z M 192.70 157.36 L 192.41 158.31 C 192.12 159.28 192.66 160.30 193.63 160.59 C 194.60 160.89 195.62 160.34 195.91 159.37 L 196.20 158.42 C 196.50 157.45 195.95 156.43 194.98 156.14 C 194.02 155.85 193.00 156.39 192.70 157.36 Z M 192.42 158.33 L 192.12 159.37 C 191.83 160.33 192.38 161.34 193.34 161.63 C 194.30 161.91 195.31 161.36 195.59 160.40 L 195.90 159.36 C 196.18 158.40 195.64 157.39 194.68 157.10 C 193.72 156.82 192.71 157.37 192.42 158.33 Z M 192.13 159.39 L 191.83 160.42 C 191.55 161.37 192.10 162.37 193.06 162.65 C 194.01 162.92 195.01 162.37 195.28 161.42 L 195.58 160.39 C 195.86 159.43 195.31 158.44 194.35 158.16 C 193.40 157.89 192.40 158.43 192.13 159.39 Z M 191.84 160.43 L 191.57 161.38 C 191.30 162.32 191.85 163.31 192.79 163.58 C 193.74 163.85 194.73 163.30 195.00 162.36 L 195.27 161.41 C 195.54 160.46 194.99 159.48 194.05 159.20 C 193.10 158.93 192.11 159.48 191.84 160.43 Z M 191.58 161.38 L 191.30 162.38 C 191.03 163.32 191.58 164.30 192.52 164.56 C 193.46 164.83 194.44 164.29 194.71 163.35 L 194.99 162.35 C 195.26 161.41 194.71 160.43 193.77 160.16 C 192.83 159.89 191.85 160.44 191.58 161.38 Z M 191.31 162.38 L 191.02 163.39 C 190.75 164.33 191.30 165.30 192.23 165.57 C 193.17 165.83 194.14 165.29 194.41 164.36 L 194.70 163.34 C 194.96 162.41 194.42 161.43 193.48 161.17 C 192.55 160.90 191.58 161.44 191.31 162.38 Z M 191.03 163.39 L 190.74 164.40 C 190.48 165.33 191.01 166.30 191.94 166.57 C 192.87 166.83 193.84 166.30 194.10 165.37 L 194.39 164.36 C 194.66 163.43 194.12 162.46 193.20 162.19 C 192.27 161.93 191.30 162.46 191.03 163.39 Z M 190.75 164.40 L 190.47 165.38 C 190.20 166.30 190.73 167.27 191.65 167.54 C 192.57 167.80 193.54 167.27 193.80 166.35 L 194.09 165.37 C 194.36 164.45 193.83 163.49 192.91 163.22 C 191.99 162.95 191.02 163.48 190.75 164.40 Z M 190.48 165.38 L 190.21 166.31 C 189.93 167.22 190.46 168.18 191.37 168.45 C 192.28 168.72 193.24 168.20 193.51 167.29 L 193.79 166.36 C 194.06 165.45 193.54 164.49 192.63 164.21 C 191.71 163.94 190.75 164.46 190.48 165.38 Z M 190.22 166.29 L 189.94 167.22 C 189.66 168.12 190.17 169.08 191.07 169.36 C 191.98 169.64 192.94 169.13 193.21 168.22 L 193.50 167.30 C 193.78 166.40 193.27 165.44 192.36 165.16 C 191.46 164.88 190.50 165.39 190.22 166.29 Z M 189.96 167.19 L 189.58 168.38 C 189.29 169.27 189.77 170.23 190.67 170.52 C 191.56 170.81 192.52 170.32 192.81 169.43 L 193.19 168.25 C 193.48 167.36 193.00 166.40 192.10 166.11 C 191.21 165.81 190.25 166.30 189.96 167.19 Z M 189.60 168.34 L 189.26 169.33 C 188.95 170.20 189.41 171.16 190.29 171.47 C 191.17 171.78 192.13 171.32 192.43 170.44 L 192.78 169.46 C 193.09 168.58 192.63 167.62 191.75 167.31 C 190.87 167.01 189.91 167.47 189.60 168.34 Z M 189.29 169.30 L 188.97 170.14 C 188.65 171.00 189.08 171.97 189.94 172.29 C 190.80 172.61 191.77 172.18 192.09 171.32 L 192.41 170.47 C 192.73 169.61 192.30 168.65 191.43 168.32 C 190.57 168.00 189.61 168.44 189.29 169.30 Z M 188.99 170.12 L 188.69 170.89 C 188.36 171.74 188.78 172.70 189.62 173.03 C 190.47 173.36 191.43 172.95 191.76 172.10 L 192.07 171.33 C 192.40 170.49 191.98 169.53 191.13 169.19 C 190.29 168.86 189.33 169.28 188.99 170.12 Z M 188.71 170.89 L 188.61 171.12 C 188.27 171.97 188.68 172.92 189.52 173.26 C 190.37 173.59 191.32 173.18 191.66 172.34 L 191.75 172.10 C 192.09 171.26 191.68 170.31 190.84 169.97 C 190.00 169.64 189.04 170.05 188.71 170.89 Z"
      fill="black"
      fill-rule="nonzero" /><path d="M 199.85 94.40 L 199.85 95.43 C 199.86 96.51 200.74 97.38 201.82 97.37 C 202.90 97.36 203.77 96.49 203.76 95.41 L 203.76 94.38 C 203.75 93.30 202.87 92.43 201.79 92.44 C 200.71 92.44 199.84 93.32 199.85 94.40 Z M 199.84 95.49 L 199.88 96.50 C 199.92 97.58 200.83 98.43 201.91 98.39 C 203.00 98.36 203.85 97.44 203.81 96.36 L 203.77 95.35 C 203.74 94.26 202.82 93.41 201.74 93.45 C 200.65 93.49 199.80 94.40 199.84 95.49 Z M 199.88 96.62 L 199.97 97.61 C 200.08 98.70 201.05 99.49 202.14 99.39 C 203.22 99.28 204.02 98.31 203.91 97.22 L 203.81 96.23 C 203.71 95.15 202.74 94.35 201.65 94.46 C 200.56 94.57 199.77 95.54 199.88 96.62 Z M 199.99 97.81 L 200.18 98.76 C 200.40 99.84 201.44 100.54 202.52 100.32 C 203.60 100.11 204.30 99.06 204.08 97.98 L 203.89 97.03 C 203.68 95.95 202.63 95.25 201.55 95.47 C 200.47 95.68 199.77 96.73 199.99 97.81 Z M 200.24 99.02 L 200.56 99.95 C 200.92 100.99 202.06 101.55 203.10 101.19 C 204.14 100.83 204.70 99.69 204.34 98.65 L 204.02 97.72 C 203.66 96.68 202.53 96.12 201.48 96.48 C 200.44 96.84 199.88 97.98 200.24 99.02 Z M 200.66 100.18 L 201.10 101.07 C 201.59 102.06 202.79 102.46 203.77 101.98 C 204.76 101.49 205.17 100.29 204.68 99.30 L 204.24 98.41 C 203.75 97.42 202.55 97.02 201.56 97.51 C 200.57 98.00 200.17 99.19 200.66 100.18 Z M 201.19 101.24 L 201.72 102.09 C 202.31 103.03 203.54 103.31 204.48 102.73 C 205.41 102.14 205.70 100.91 205.11 99.97 L 204.58 99.13 C 204.00 98.19 202.77 97.90 201.83 98.49 C 200.90 99.07 200.61 100.30 201.19 101.24 Z M 201.80 102.20 L 202.39 103.02 C 203.04 103.91 204.28 104.12 205.18 103.47 C 206.07 102.83 206.27 101.58 205.63 100.68 L 205.04 99.86 C 204.39 98.97 203.14 98.77 202.25 99.41 C 201.35 100.06 201.15 101.31 201.80 102.20 Z M 202.44 103.08 L 203.05 103.86 C 203.73 104.73 204.98 104.88 205.85 104.20 C 206.71 103.52 206.87 102.27 206.19 101.40 L 205.58 100.62 C 204.90 99.76 203.65 99.60 202.78 100.28 C 201.91 100.96 201.76 102.21 202.44 103.08 Z M 203.08 103.89 L 203.70 104.65 C 204.40 105.49 205.65 105.62 206.49 104.93 C 207.34 104.24 207.47 102.99 206.78 102.14 L 206.16 101.38 C 205.46 100.53 204.21 100.40 203.37 101.10 C 202.52 101.79 202.39 103.04 203.08 103.89 Z M 203.73 104.65 L 204.36 105.42 C 205.06 106.25 206.30 106.37 207.14 105.67 C 207.97 104.97 208.09 103.73 207.39 102.90 L 206.75 102.13 C 206.06 101.30 204.82 101.18 203.98 101.88 C 203.14 102.57 203.03 103.82 203.73 104.65 Z M 204.37 105.41 L 205.02 106.19 C 205.71 107.02 206.95 107.13 207.78 106.44 C 208.61 105.75 208.72 104.51 208.03 103.68 L 207.38 102.90 C 206.69 102.07 205.45 101.96 204.62 102.65 C 203.79 103.34 203.68 104.58 204.37 105.41 Z M 205.02 106.16 L 205.66 106.95 C 206.34 107.78 207.56 107.90 208.39 107.22 C 209.22 106.54 209.35 105.32 208.67 104.49 L 208.03 103.71 C 207.35 102.88 206.13 102.75 205.30 103.43 C 204.47 104.11 204.34 105.33 205.02 106.16 Z M 205.66 106.91 L 206.26 107.66 C 206.92 108.50 208.12 108.64 208.96 107.98 C 209.79 107.32 209.93 106.11 209.27 105.28 L 208.67 104.52 C 208.01 103.69 206.80 103.55 205.97 104.21 C 205.14 104.87 205.00 106.08 205.66 106.91 Z M 206.26 107.63 L 206.86 108.41 C 207.50 109.24 208.70 109.39 209.52 108.75 C 210.35 108.11 210.50 106.92 209.86 106.09 L 209.26 105.31 C 208.62 104.48 207.43 104.33 206.60 104.97 C 205.77 105.61 205.62 106.80 206.26 107.63 Z M 206.87 108.38 L 207.48 109.18 C 208.10 110.01 209.28 110.17 210.10 109.55 C 210.92 108.93 211.09 107.75 210.46 106.93 L 209.86 106.12 C 209.23 105.30 208.06 105.14 207.24 105.76 C 206.41 106.38 206.25 107.55 206.87 108.38 Z M 207.49 109.15 L 208.10 109.98 C 208.71 110.80 209.86 110.97 210.68 110.37 C 211.50 109.76 211.67 108.61 211.07 107.79 L 210.45 106.96 C 209.85 106.14 208.69 105.97 207.88 106.57 C 207.06 107.18 206.89 108.33 207.49 109.15 Z M 208.12 109.95 L 208.71 110.77 C 209.30 111.58 210.44 111.76 211.25 111.17 C 212.06 110.58 212.24 109.45 211.65 108.63 L 211.06 107.82 C 210.47 107.01 209.33 106.83 208.52 107.42 C 207.71 108.01 207.53 109.14 208.12 109.95 Z M 208.72 110.74 L 209.29 111.54 C 209.86 112.34 210.98 112.53 211.78 111.96 C 212.59 111.38 212.78 110.26 212.20 109.46 L 211.64 108.66 C 211.06 107.86 209.95 107.67 209.14 108.24 C 208.34 108.82 208.15 109.94 208.72 110.74 Z M 209.30 111.50 L 209.86 112.32 C 210.42 113.12 211.51 113.32 212.31 112.76 C 213.12 112.20 213.31 111.11 212.76 110.31 L 212.19 109.49 C 211.64 108.69 210.54 108.49 209.74 109.05 C 208.94 109.60 208.74 110.70 209.30 111.50 Z M 209.87 112.28 L 210.43 113.11 C 210.96 113.91 212.04 114.12 212.84 113.59 C 213.63 113.05 213.85 111.97 213.31 111.18 L 212.75 110.34 C 212.22 109.55 211.14 109.33 210.34 109.87 C 209.54 110.40 209.33 111.48 209.87 112.28 Z M 210.43 113.07 L 210.99 113.93 C 211.50 114.72 212.56 114.95 213.35 114.44 C 214.14 113.93 214.37 112.87 213.86 112.08 L 213.31 111.22 C 212.79 110.42 211.74 110.20 210.94 110.71 C 210.15 111.22 209.92 112.28 210.43 113.07 Z M 210.99 113.89 L 211.53 114.76 C 212.01 115.55 213.05 115.80 213.84 115.31 C 214.64 114.82 214.88 113.78 214.39 112.99 L 213.86 112.12 C 213.37 111.33 212.33 111.08 211.54 111.57 C 210.75 112.06 210.50 113.09 210.99 113.89 Z M 211.52 114.72 L 212.02 115.57 C 212.49 116.36 213.51 116.63 214.30 116.16 C 215.10 115.70 215.37 114.67 214.90 113.88 L 214.40 113.03 C 213.93 112.23 212.91 111.97 212.11 112.43 C 211.32 112.90 211.05 113.92 211.52 114.72 Z M 212.01 115.54 L 212.50 116.41 C 212.95 117.21 213.96 117.49 214.76 117.04 C 215.56 116.59 215.85 115.57 215.40 114.77 L 214.91 113.91 C 214.46 113.11 213.44 112.82 212.64 113.27 C 211.84 113.73 211.56 114.74 212.01 115.54 Z M 212.49 116.38 L 212.97 117.26 C 213.41 118.07 214.42 118.36 215.22 117.92 C 216.03 117.48 216.32 116.47 215.88 115.67 L 215.40 114.79 C 214.96 113.99 213.95 113.70 213.15 114.14 C 212.35 114.57 212.05 115.58 212.49 116.38 Z M 212.97 117.25 L 213.45 118.13 C 213.88 118.94 214.88 119.24 215.68 118.81 C 216.49 118.38 216.79 117.38 216.36 116.58 L 215.88 115.69 C 215.45 114.89 214.45 114.58 213.65 115.01 C 212.85 115.44 212.54 116.44 212.97 117.25 Z M 213.45 118.12 L 213.92 119.02 C 214.35 119.82 215.34 120.13 216.14 119.70 C 216.95 119.28 217.25 118.28 216.83 117.48 L 216.36 116.59 C 215.93 115.78 214.94 115.48 214.14 115.90 C 213.33 116.33 213.03 117.32 213.45 118.12 Z M 213.93 119.01 L 214.15 119.43 C 214.57 120.23 215.56 120.54 216.36 120.12 C 217.16 119.70 217.47 118.71 217.05 117.90 L 216.83 117.49 C 216.40 116.68 215.41 116.38 214.61 116.80 C 213.81 117.22 213.50 118.21 213.93 119.01 Z"
      fill="black"
      fill-rule="nonzero" /></svg>