<svg xmlns="http://www.w3.org/2000/svg" width="300" height="300" viewBox="0 0 300 300">
<path d="M 138.50 80.35 L 139.48 80.21 C 140.45 80.06 141.11 79.17 140.97 78.20 C 140.83 77.24 139.93 76.57 138.97 76.71 L 137.99 76.86 C 137.02 77.00 136.36 77.90 136.50 78.86 C 136.64 79.83 137.54 80.49 138.50 80.35 Z M 139.47 80.20 L 140.46 80.07 C 141.42 79.93 142.09 79.04 141.96 78.07 C 141.82 77.11 140.93 76.44 139.96 76.58 L 138.98 76.71 C 138.02 76.85 137.34 77.74 137.48 78.71 C 137.62 79.67 138.51 80.34 139.47 80.20 Z M 140.43 80.07 L 141.43 79.94 C 142.39 79.81 143.07 78.93 142.95 77.97 C 142.83 77.01 141.95 76.32 140.98 76.45 L 139.99 76.58 C 139.02 76.70 138.34 77.58 138.47 78.54 C 138.59 79.51 139.47 80.19 140.43 80.07 Z M 141.40 79.94 L 142.40 79.83 C 143.37 79.72 144.06 78.85 143.95 77.89 C 143.85 76.93 142.98 76.23 142.02 76.34 L 141.01 76.45 C 140.05 76.55 139.36 77.42 139.46 78.39 C 139.57 79.35 140.44 80.04 141.40 79.94 Z M 142.37 79.82 L 143.37 79.73 C 144.33 79.64 145.04 78.79 144.95 77.83 C 144.86 76.87 144.01 76.16 143.05 76.25 L 142.05 76.34 C 141.09 76.43 140.38 77.28 140.47 78.24 C 140.56 79.20 141.41 79.91 142.37 79.82 Z M 143.35 79.72 L 144.35 79.64 C 145.31 79.57 146.02 78.73 145.95 77.77 C 145.87 76.81 145.03 76.10 144.08 76.18 L 143.07 76.26 C 142.12 76.33 141.40 77.17 141.48 78.13 C 141.55 79.09 142.39 79.80 143.35 79.72 Z M 144.34 79.63 L 145.33 79.56 C 146.29 79.49 147.00 78.66 146.93 77.71 C 146.86 76.76 146.03 76.04 145.08 76.11 L 144.09 76.18 C 143.14 76.25 142.42 77.08 142.49 78.04 C 142.56 78.99 143.39 79.70 144.34 79.63 Z M 145.33 79.55 L 146.29 79.48 C 147.23 79.41 147.95 78.59 147.88 77.64 C 147.81 76.69 146.98 75.98 146.04 76.05 L 145.08 76.12 C 144.14 76.19 143.42 77.01 143.49 77.96 C 143.56 78.91 144.38 79.62 145.33 79.55 Z M 146.28 79.48 L 147.22 79.41 C 148.16 79.34 148.88 78.53 148.81 77.58 C 148.74 76.64 147.93 75.93 146.98 75.99 L 146.04 76.06 C 145.10 76.12 144.39 76.94 144.45 77.89 C 144.52 78.83 145.34 79.54 146.28 79.48 Z M 147.20 79.40 L 148.18 79.35 C 149.12 79.29 149.84 78.48 149.78 77.54 C 149.73 76.60 148.92 75.89 147.98 75.94 L 147.00 76.00 C 146.06 76.06 145.34 76.86 145.40 77.80 C 145.45 78.74 146.26 79.46 147.20 79.40 Z M 148.16 79.34 L 149.23 79.29 C 150.16 79.25 150.89 78.46 150.85 77.52 C 150.81 76.59 150.01 75.86 149.08 75.90 L 148.01 75.95 C 147.07 75.99 146.35 76.78 146.39 77.72 C 146.43 78.65 147.22 79.38 148.16 79.34 Z M 149.19 79.29 L 150.29 79.26 C 151.23 79.24 151.96 78.46 151.94 77.53 C 151.92 76.60 151.15 75.86 150.21 75.88 L 149.11 75.91 C 148.18 75.93 147.44 76.70 147.46 77.64 C 147.48 78.57 148.26 79.31 149.19 79.29 Z M 150.22 79.26 L 151.33 79.28 C 152.26 79.30 153.03 78.56 153.05 77.63 C 153.06 76.70 152.32 75.93 151.39 75.91 L 150.29 75.88 C 149.35 75.87 148.58 76.61 148.57 77.54 C 148.55 78.47 149.29 79.24 150.22 79.26 Z M 151.17 79.27 L 152.21 79.38 C 153.14 79.48 153.97 78.82 154.07 77.89 C 154.17 76.97 153.51 76.14 152.58 76.03 L 151.54 75.92 C 150.62 75.82 149.79 76.48 149.69 77.41 C 149.58 78.33 150.25 79.17 151.17 79.27 Z M 151.92 79.32 L 152.78 79.57 C 153.68 79.83 154.61 79.32 154.87 78.43 C 155.13 77.54 154.62 76.61 153.73 76.35 L 152.87 76.09 C 151.98 75.83 151.04 76.34 150.78 77.23 C 150.52 78.13 151.03 79.06 151.92 79.32 Z M 152.21 79.28 L 152.84 79.77 C 153.56 80.34 154.62 80.22 155.19 79.50 C 155.77 78.77 155.65 77.71 154.92 77.14 L 154.30 76.64 C 153.57 76.07 152.52 76.19 151.94 76.92 C 151.37 77.64 151.49 78.70 152.21 79.28 Z M 152.27 78.92 L 152.51 79.74 C 152.77 80.63 153.70 81.13 154.59 80.87 C 155.48 80.61 155.99 79.68 155.72 78.79 L 155.49 77.98 C 155.23 77.09 154.29 76.58 153.41 76.84 C 152.52 77.11 152.01 78.04 152.27 78.92 Z M 152.47 78.99 L 152.30 79.98 C 152.15 80.89 152.77 81.75 153.68 81.90 C 154.59 82.06 155.45 81.44 155.60 80.53 L 155.77 79.54 C 155.92 78.63 155.30 77.77 154.39 77.62 C 153.48 77.46 152.62 78.08 152.47 78.99 Z M 152.43 79.57 L 151.95 80.64 C 151.58 81.48 151.96 82.46 152.80 82.84 C 153.64 83.22 154.63 82.84 155.00 82.00 L 155.48 80.94 C 155.85 80.09 155.47 79.11 154.63 78.73 C 153.79 78.35 152.80 78.73 152.43 79.57 Z M 152.08 80.41 L 151.55 81.24 C 151.05 82.01 151.27 83.05 152.05 83.54 C 152.82 84.04 153.85 83.82 154.35 83.04 L 154.88 82.22 C 155.38 81.44 155.15 80.41 154.38 79.91 C 153.61 79.42 152.57 79.64 152.08 80.41 Z M 151.64 81.11 L 151.01 81.90 C 150.44 82.63 150.57 83.67 151.29 84.24 C 152.01 84.81 153.06 84.69 153.63 83.97 L 154.25 83.17 C 154.82 82.45 154.70 81.40 153.98 80.84 C 153.26 80.27 152.21 80.39 151.64 81.11 Z M 151.09 81.82 L 150.41 82.57 C 149.79 83.25 149.84 84.30 150.52 84.92 C 151.20 85.54 152.25 85.49 152.86 84.81 L 153.55 84.05 C 154.17 83.37 154.12 82.32 153.44 81.71 C 152.76 81.09 151.71 81.14 151.09 81.82 Z M 150.47 82.51 L 149.76 83.22 C 149.11 83.86 149.10 84.91 149.75 85.56 C 150.40 86.21 151.45 86.22 152.10 85.57 L 152.81 84.87 C 153.46 84.22 153.46 83.17 152.81 82.52 C 152.17 81.87 151.11 81.87 150.47 82.51 Z M 149.80 83.18 L 149.04 83.88 C 148.36 84.51 148.32 85.56 148.95 86.23 C 149.57 86.90 150.62 86.94 151.29 86.32 L 152.05 85.61 C 152.73 84.99 152.77 83.94 152.14 83.27 C 151.52 82.59 150.47 82.55 149.80 83.18 Z M 149.07 83.85 L 148.30 84.53 C 147.61 85.14 147.54 86.18 148.14 86.87 C 148.75 87.56 149.80 87.63 150.48 87.03 L 151.26 86.35 C 151.95 85.74 152.02 84.70 151.41 84.01 C 150.81 83.32 149.76 83.25 149.07 83.85 Z M 148.32 84.51 L 147.57 85.14 C 146.87 85.73 146.78 86.78 147.37 87.48 C 147.96 88.18 149.01 88.27 149.71 87.68 L 150.46 87.05 C 151.16 86.46 151.25 85.41 150.66 84.71 C 150.07 84.01 149.02 83.92 148.32 84.51 Z M 147.58 85.13 L 146.85 85.73 C 146.14 86.32 146.04 87.37 146.63 88.08 C 147.22 88.78 148.27 88.88 148.97 88.30 L 149.70 87.69 C 150.41 87.10 150.51 86.06 149.92 85.35 C 149.34 84.64 148.29 84.54 147.58 85.13 Z M 146.85 85.73 L 146.07 86.38 C 145.36 86.97 145.27 88.02 145.85 88.73 C 146.44 89.44 147.49 89.53 148.20 88.94 L 148.98 88.29 C 149.69 87.70 149.78 86.65 149.19 85.95 C 148.60 85.24 147.55 85.14 146.85 85.73 Z M 146.06 86.39 L 145.29 87.04 C 144.58 87.63 144.49 88.68 145.09 89.39 C 145.68 90.09 146.73 90.18 147.44 89.59 L 148.21 88.94 C 148.91 88.35 149.00 87.29 148.41 86.59 C 147.82 85.88 146.77 85.79 146.06 86.39 Z M 145.28 87.04 L 144.53 87.67 C 143.83 88.27 143.74 89.32 144.33 90.03 C 144.93 90.73 145.98 90.82 146.68 90.23 L 147.44 89.59 C 148.14 88.99 148.23 87.94 147.64 87.23 C 147.04 86.53 145.99 86.44 145.28 87.04 Z M 144.53 87.67 L 143.77 88.31 C 143.07 88.90 142.98 89.96 143.57 90.66 C 144.17 91.37 145.22 91.46 145.93 90.86 L 146.68 90.23 C 147.39 89.63 147.48 88.58 146.88 87.87 C 146.29 87.17 145.24 87.08 144.53 87.67 Z M 143.78 88.30 L 143.01 88.95 C 142.30 89.54 142.21 90.59 142.80 91.30 C 143.39 92.01 144.45 92.10 145.16 91.51 L 145.92 90.87 C 146.63 90.28 146.73 89.22 146.13 88.51 C 145.54 87.80 144.49 87.71 143.78 88.30 Z M 143.02 88.94 L 142.25 89.57 C 141.54 90.16 141.44 91.22 142.03 91.93 C 142.62 92.64 143.68 92.74 144.39 92.15 L 145.15 91.52 C 145.86 90.93 145.96 89.87 145.37 89.16 C 144.78 88.45 143.73 88.35 143.02 88.94 Z M 142.26 89.56 L 141.49 90.20 C 140.77 90.78 140.66 91.84 141.25 92.56 C 141.84 93.27 142.89 93.38 143.61 92.79 L 144.38 92.16 C 145.10 91.57 145.20 90.52 144.62 89.80 C 144.03 89.08 142.97 88.98 142.26 89.56 Z M 141.49 90.19 L 140.71 90.82 C 139.99 91.40 139.88 92.46 140.46 93.18 C 141.04 93.90 142.10 94.01 142.82 93.43 L 143.60 92.80 C 144.32 92.22 144.43 91.16 143.85 90.44 C 143.27 89.72 142.21 89.61 141.49 90.19 Z M 140.73 90.81 L 139.94 91.43 C 139.21 92.00 139.08 93.06 139.66 93.79 C 140.23 94.51 141.29 94.64 142.02 94.06 L 142.81 93.44 C 143.53 92.87 143.66 91.81 143.09 91.08 C 142.51 90.36 141.46 90.23 140.73 90.81 Z M 139.96 91.41 L 139.17 92.01 C 138.43 92.58 138.29 93.63 138.85 94.37 C 139.41 95.11 140.47 95.25 141.20 94.69 L 141.99 94.08 C 142.73 93.52 142.87 92.47 142.31 91.73 C 141.75 90.99 140.70 90.85 139.96 91.41 Z M 139.17 92.01 L 138.29 92.68 C 137.55 93.24 137.40 94.30 137.96 95.04 C 138.53 95.78 139.58 95.92 140.32 95.36 L 141.20 94.69 C 141.94 94.13 142.09 93.07 141.53 92.33 C 140.96 91.59 139.91 91.45 139.17 92.01 Z M 138.10 92.83 L 137.41 93.53 C 136.76 94.20 136.76 95.26 137.43 95.92 C 138.09 96.57 139.16 96.57 139.81 95.90 L 140.51 95.20 C 141.16 94.54 141.15 93.47 140.49 92.82 C 139.83 92.16 138.76 92.17 138.10 92.83 Z M 137.02 94.14 L 136.74 94.92 C 136.42 95.80 136.87 96.77 137.75 97.10 C 138.62 97.42 139.60 96.96 139.92 96.09 L 140.20 95.30 C 140.52 94.42 140.07 93.45 139.19 93.13 C 138.32 92.81 137.34 93.26 137.02 94.14 Z M 136.66 95.82 L 136.82 96.65 C 136.99 97.57 137.88 98.17 138.80 98.00 C 139.72 97.82 140.32 96.94 140.15 96.02 L 139.99 95.19 C 139.82 94.27 138.93 93.66 138.01 93.84 C 137.09 94.01 136.49 94.90 136.66 95.82 Z M 136.93 97.03 L 137.35 97.96 C 137.73 98.81 138.74 99.20 139.59 98.81 C 140.45 98.43 140.83 97.42 140.45 96.57 L 140.03 95.64 C 139.65 94.78 138.64 94.40 137.79 94.78 C 136.93 95.17 136.55 96.17 136.93 97.03 Z M 137.39 98.03 L 137.90 99.04 C 138.32 99.88 139.34 100.21 140.18 99.79 C 141.02 99.36 141.35 98.34 140.93 97.50 L 140.42 96.49 C 139.99 95.66 138.97 95.32 138.13 95.75 C 137.29 96.17 136.96 97.19 137.39 98.03 Z M 137.86 98.96 L 138.25 99.83 C 138.63 100.69 139.63 101.07 140.49 100.69 C 141.35 100.31 141.73 99.31 141.35 98.45 L 140.96 97.58 C 140.58 96.72 139.58 96.34 138.72 96.72 C 137.86 97.10 137.48 98.11 137.86 98.96 Z M 138.21 99.74 L 138.55 100.64 C 138.88 101.52 139.86 101.97 140.74 101.63 C 141.62 101.30 142.06 100.32 141.73 99.45 L 141.39 98.54 C 141.06 97.66 140.08 97.22 139.20 97.55 C 138.32 97.88 137.88 98.86 138.21 99.74 Z M 138.52 100.57 L 138.84 101.53 C 139.12 102.42 140.08 102.91 140.97 102.62 C 141.87 102.34 142.36 101.38 142.07 100.49 L 141.76 99.52 C 141.47 98.63 140.51 98.14 139.62 98.43 C 138.73 98.72 138.24 99.67 138.52 100.57 Z M 138.82 101.47 L 139.11 102.50 C 139.36 103.41 140.30 103.93 141.20 103.68 C 142.11 103.42 142.63 102.49 142.38 101.58 L 142.09 100.55 C 141.83 99.65 140.89 99.12 139.99 99.38 C 139.09 99.63 138.56 100.57 138.82 101.47 Z M 139.10 102.46 L 139.34 103.40 C 139.57 104.31 140.49 104.86 141.40 104.63 C 142.31 104.40 142.86 103.48 142.63 102.57 L 142.39 101.63 C 142.16 100.72 141.23 100.17 140.33 100.40 C 139.42 100.63 138.87 101.55 139.10 102.46 Z M 139.33 103.37 L 139.56 104.35 C 139.77 105.26 140.69 105.83 141.60 105.62 C 142.51 105.40 143.07 104.49 142.86 103.58 L 142.63 102.60 C 142.42 101.69 141.51 101.12 140.60 101.34 C 139.69 101.55 139.12 102.46 139.33 103.37 Z M 139.56 104.32 L 139.77 105.32 C 139.97 106.23 140.87 106.82 141.78 106.62 C 142.70 106.42 143.28 105.52 143.08 104.61 L 142.87 103.61 C 142.67 102.70 141.77 102.12 140.86 102.31 C 139.94 102.51 139.36 103.41 139.56 104.32 Z M 139.77 105.29 L 139.97 106.28 C 140.15 107.20 141.04 107.79 141.95 107.61 C 142.87 107.43 143.46 106.54 143.28 105.63 L 143.08 104.64 C 142.90 103.72 142.01 103.13 141.10 103.31 C 140.18 103.49 139.59 104.38 139.77 105.29 Z M 139.96 106.26 L 140.14 107.22 C 140.31 108.14 141.18 108.75 142.10 108.58 C 143.02 108.42 143.62 107.54 143.46 106.62 L 143.28 105.65 C 143.12 104.74 142.24 104.13 141.32 104.30 C 140.41 104.46 139.80 105.34 139.96 106.26 Z M 140.14 107.19 L 140.29 108.14 C 140.44 109.06 141.31 109.68 142.22 109.53 C 143.14 109.38 143.76 108.52 143.61 107.60 L 143.46 106.65 C 143.31 105.73 142.45 105.11 141.53 105.26 C 140.61 105.41 139.99 106.28 140.14 107.19 Z M 140.29 108.11 L 140.43 109.06 C 140.56 109.98 141.41 110.61 142.33 110.48 C 143.25 110.35 143.88 109.50 143.75 108.58 L 143.61 107.63 C 143.48 106.71 142.63 106.08 141.71 106.21 C 140.80 106.34 140.16 107.19 140.29 108.11 Z M 140.43 109.03 L 140.55 110.02 C 140.67 110.93 141.51 111.58 142.42 111.47 C 143.34 111.35 143.99 110.52 143.87 109.60 L 143.75 108.61 C 143.63 107.69 142.80 107.04 141.88 107.16 C 140.96 107.28 140.31 108.11 140.43 109.03 Z M 140.56 109.99 L 140.67 111.05 C 140.77 111.97 141.60 112.63 142.52 112.53 C 143.43 112.42 144.09 111.60 143.99 110.68 L 143.87 109.62 C 143.77 108.71 142.95 108.05 142.03 108.15 C 141.11 108.25 140.45 109.08 140.56 109.99 Z M 140.68 111.03 L 140.77 111.97 C 140.86 112.89 141.68 113.56 142.59 113.46 C 143.51 113.37 144.17 112.56 144.08 111.64 L 143.99 110.70 C 143.90 109.79 143.08 109.12 142.16 109.21 C 141.25 109.30 140.58 110.12 140.68 111.03 Z M 140.77 111.96 L 140.86 112.91 C 140.95 113.82 141.76 114.49 142.67 114.40 C 143.58 114.32 144.25 113.51 144.17 112.60 L 144.08 111.65 C 143.99 110.74 143.18 110.07 142.27 110.16 C 141.36 110.24 140.69 111.05 140.77 111.96 Z M 140.87 112.90 L 140.95 113.88 C 141.03 114.79 141.84 115.47 142.75 115.39 C 143.66 115.31 144.33 114.50 144.25 113.59 L 144.16 112.61 C 144.08 111.70 143.28 111.02 142.37 111.10 C 141.46 111.18 140.79 111.99 140.87 112.90 Z M 140.96 113.88 L 141.04 114.90 C 141.12 115.81 141.92 116.48 142.82 116.40 C 143.73 116.33 144.41 115.53 144.33 114.62 L 144.25 113.60 C 144.17 112.69 143.37 112.02 142.46 112.10 C 141.56 112.17 140.88 112.97 140.96 113.88 Z M 141.05 114.89 L 141.13 115.94 C 141.20 116.84 142.00 117.52 142.90 117.45 C 143.81 117.37 144.48 116.58 144.41 115.68 L 144.33 114.63 C 144.25 113.73 143.46 113.05 142.56 113.12 C 141.65 113.19 140.98 113.99 141.05 114.89 Z M 141.14 115.93 L 141.22 116.99 C 141.28 117.89 142.07 118.56 142.97 118.50 C 143.88 118.43 144.55 117.64 144.48 116.74 L 144.40 115.68 C 144.34 114.78 143.55 114.10 142.65 114.17 C 141.74 114.24 141.07 115.03 141.14 115.93 Z M 141.22 116.98 L 141.30 118.04 C 141.36 118.94 142.15 119.62 143.05 119.55 C 143.95 119.48 144.62 118.70 144.56 117.80 L 144.48 116.74 C 144.41 115.84 143.63 115.17 142.73 115.23 C 141.83 115.30 141.16 116.08 141.22 116.98 Z M 141.30 118.04 L 141.38 119.09 C 141.45 119.98 142.23 120.66 143.12 120.59 C 144.02 120.53 144.69 119.75 144.63 118.85 L 144.55 117.80 C 144.49 116.91 143.71 116.23 142.81 116.30 C 141.91 116.36 141.24 117.14 141.30 118.04 Z M 141.39 119.10 L 141.47 120.12 C 141.54 121.02 142.32 121.68 143.21 121.61 C 144.10 121.54 144.77 120.76 144.70 119.87 L 144.62 118.84 C 144.55 117.95 143.77 117.28 142.88 117.35 C 141.99 117.42 141.32 118.20 141.39 119.10 Z M 141.48 120.14 L 141.56 121.14 C 141.64 122.02 142.42 122.68 143.31 122.60 C 144.20 122.53 144.86 121.74 144.78 120.85 L 144.69 119.86 C 144.62 118.97 143.83 118.31 142.94 118.39 C 142.06 118.47 141.40 119.25 141.48 120.14 Z M 141.57 121.16 L 141.67 122.12 C 141.76 123.00 142.55 123.64 143.43 123.55 C 144.32 123.46 144.96 122.67 144.87 121.79 L 144.77 120.83 C 144.68 119.95 143.89 119.30 143.01 119.39 C 142.12 119.49 141.48 120.27 141.57 121.16 Z M 141.68 122.15 L 141.79 123.06 C 141.90 123.93 142.70 124.56 143.58 124.45 C 144.46 124.34 145.08 123.54 144.97 122.66 L 144.86 121.76 C 144.75 120.88 143.95 120.25 143.07 120.36 C 142.19 120.47 141.57 121.27 141.68 122.15 Z M 141.81 123.11 L 141.97 124.17 C 142.11 125.04 142.93 125.64 143.80 125.50 C 144.67 125.37 145.26 124.55 145.12 123.68 L 144.96 122.61 C 144.82 121.74 144.00 121.15 143.13 121.28 C 142.26 121.42 141.67 122.24 141.81 123.11 Z M 141.99 124.23 L 142.19 125.24 C 142.35 126.10 143.19 126.67 144.05 126.50 C 144.91 126.33 145.47 125.50 145.30 124.64 L 145.11 123.62 C 144.94 122.76 144.11 122.20 143.25 122.37 C 142.39 122.53 141.82 123.37 141.99 124.23 Z M 142.20 125.29 L 142.42 126.24 C 142.61 127.09 143.46 127.63 144.31 127.43 C 145.16 127.24 145.69 126.40 145.50 125.54 L 145.29 124.59 C 145.09 123.74 144.25 123.21 143.40 123.40 C 142.55 123.59 142.01 124.44 142.20 125.29 Z M 142.43 126.27 L 142.66 127.19 C 142.87 128.03 143.72 128.55 144.57 128.34 C 145.41 128.13 145.92 127.27 145.71 126.43 L 145.49 125.51 C 145.28 124.67 144.43 124.16 143.58 124.37 C 142.74 124.57 142.22 125.43 142.43 126.27 Z M 142.67 127.20 L 142.83 127.81 C 143.04 128.65 143.90 129.16 144.74 128.94 C 145.57 128.73 146.08 127.87 145.86 127.03 L 145.71 126.42 C 145.49 125.58 144.64 125.08 143.80 125.29 C 142.96 125.51 142.45 126.36 142.67 127.20 Z"
      fill="black"
      fill-rule="nonzero" /><path d="M 143.95 100.98 L 144.79 100.55 C 145.64 100.11 145.98 99.06 145.54 98.20 C 145.10 97.35 144.05 97.01 143.20 97.45 L 142.36 97.88 C 141.50 98.32 141.16 99.37 141.60 100.23 C 142.04 101.08 143.09 101.42 143.95 100.98 Z M 144.73 100.58 L 145.61 100.17 C 146.48 99.77 146.86 98.73 146.45 97.86 C 146.05 96.99 145.02 96.61 144.14 97.01 L 143.26 97.42 C 142.39 97.82 142.01 98.86 142.41 99.73 C 142.82 100.60 143.85 100.98 144.73 100.58 Z M 145.48 100.22 L 146.44 99.86 C 147.34 99.53 147.80 98.52 147.46 97.62 C 147.12 96.72 146.12 96.27 145.22 96.60 L 144.26 96.96 C 143.37 97.30 142.91 98.30 143.25 99.20 C 143.58 100.10 144.59 100.56 145.48 100.22 Z M 146.28 99.91 L 147.29 99.64 C 148.21 99.39 148.76 98.44 148.51 97.51 C 148.26 96.58 147.31 96.04 146.38 96.29 L 145.38 96.56 C 144.45 96.81 143.90 97.76 144.15 98.69 C 144.40 99.61 145.36 100.16 146.28 99.91 Z M 147.14 99.67 L 148.11 99.50 C 149.05 99.32 149.68 98.42 149.51 97.48 C 149.34 96.53 148.43 95.91 147.49 96.08 L 146.52 96.26 C 145.58 96.43 144.95 97.33 145.13 98.27 C 145.30 99.22 146.20 99.84 147.14 99.67 Z M 148.01 99.51 L 149.02 99.39 C 149.97 99.27 150.65 98.41 150.54 97.46 C 150.42 96.51 149.56 95.83 148.61 95.94 L 147.59 96.07 C 146.64 96.18 145.96 97.05 146.08 98.00 C 146.20 98.95 147.06 99.62 148.01 99.51 Z M 148.94 99.39 L 149.96 99.32 C 150.92 99.24 151.63 98.41 151.56 97.46 C 151.49 96.51 150.66 95.79 149.71 95.86 L 148.69 95.94 C 147.73 96.01 147.02 96.84 147.09 97.79 C 147.16 98.75 147.99 99.46 148.94 99.39 Z M 149.90 99.32 L 150.89 99.28 C 151.84 99.25 152.59 98.45 152.56 97.49 C 152.52 96.54 151.72 95.79 150.77 95.82 L 149.77 95.86 C 148.82 95.89 148.07 96.70 148.11 97.65 C 148.14 98.61 148.94 99.35 149.90 99.32 Z M 150.82 99.28 L 151.89 99.29 C 152.84 99.30 153.62 98.53 153.63 97.57 C 153.63 96.62 152.87 95.84 151.91 95.83 L 150.84 95.83 C 149.89 95.82 149.11 96.59 149.10 97.54 C 149.09 98.50 149.86 99.27 150.82 99.28 Z M 151.75 99.28 L 152.75 99.37 C 153.70 99.45 154.54 98.74 154.62 97.79 C 154.70 96.84 154.00 96.01 153.05 95.93 L 152.05 95.84 C 151.10 95.76 150.26 96.47 150.18 97.41 C 150.10 98.36 150.80 99.20 151.75 99.28 Z M 152.55 99.33 L 153.48 99.53 C 154.42 99.73 155.33 99.13 155.52 98.20 C 155.72 97.27 155.12 96.35 154.19 96.16 L 153.26 95.96 C 152.32 95.76 151.41 96.36 151.22 97.29 C 151.02 98.22 151.62 99.14 152.55 99.33 Z M 153.22 99.45 L 154.10 99.79 C 154.99 100.13 155.98 99.69 156.32 98.80 C 156.66 97.91 156.22 96.92 155.34 96.58 L 154.46 96.24 C 153.57 95.90 152.58 96.34 152.23 97.23 C 151.89 98.11 152.33 99.11 153.22 99.45 Z M 153.84 99.66 L 154.63 100.12 C 155.44 100.61 156.50 100.34 156.98 99.52 C 157.46 98.71 157.19 97.65 156.38 97.17 L 155.59 96.71 C 154.78 96.22 153.72 96.49 153.24 97.31 C 152.76 98.12 153.03 99.18 153.84 99.66 Z M 154.43 99.98 L 155.19 100.59 C 155.92 101.18 157.00 101.06 157.59 100.32 C 158.19 99.59 158.07 98.51 157.33 97.92 L 156.58 97.31 C 155.84 96.72 154.76 96.84 154.17 97.58 C 153.57 98.31 153.69 99.39 154.43 99.98 Z M 155.04 100.45 L 155.76 101.19 C 156.42 101.86 157.50 101.87 158.18 101.21 C 158.85 100.55 158.86 99.47 158.20 98.79 L 157.48 98.06 C 156.82 97.38 155.73 97.37 155.06 98.03 C 154.39 98.69 154.37 99.77 155.04 100.45 Z M 155.65 101.06 L 156.34 101.92 C 156.93 102.65 158.00 102.77 158.74 102.18 C 159.47 101.59 159.59 100.52 159.00 99.78 L 158.31 98.92 C 157.72 98.19 156.65 98.07 155.91 98.66 C 155.18 99.25 155.06 100.32 155.65 101.06 Z M 156.26 101.81 L 156.82 102.62 C 157.35 103.40 158.41 103.60 159.19 103.07 C 159.96 102.54 160.16 101.48 159.63 100.70 L 159.07 99.89 C 158.54 99.11 157.48 98.91 156.71 99.44 C 155.93 99.97 155.73 101.03 156.26 101.81 Z M 156.77 102.54 L 157.29 103.41 C 157.77 104.21 158.82 104.48 159.62 103.99 C 160.43 103.51 160.69 102.46 160.21 101.66 L 159.68 100.79 C 159.20 99.98 158.16 99.72 157.35 100.20 C 156.55 100.69 156.28 101.73 156.77 102.54 Z M 157.25 103.33 L 157.72 104.23 C 158.16 105.06 159.19 105.38 160.02 104.94 C 160.85 104.50 161.16 103.48 160.73 102.65 L 160.25 101.74 C 159.81 100.91 158.78 100.59 157.96 101.03 C 157.13 101.47 156.81 102.50 157.25 103.33 Z M 157.69 104.15 L 158.11 105.06 C 158.50 105.91 159.50 106.28 160.35 105.89 C 161.20 105.50 161.58 104.49 161.18 103.64 L 160.76 102.73 C 160.37 101.88 159.37 101.51 158.52 101.90 C 157.67 102.29 157.29 103.30 157.69 104.15 Z M 158.07 104.97 L 158.43 105.89 C 158.77 106.76 159.75 107.18 160.62 106.84 C 161.49 106.50 161.92 105.52 161.58 104.65 L 161.22 103.73 C 160.88 102.86 159.90 102.43 159.03 102.78 C 158.16 103.12 157.73 104.10 158.07 104.97 Z M 158.40 105.77 L 158.72 106.78 C 159.00 107.67 159.94 108.16 160.83 107.88 C 161.72 107.60 162.21 106.65 161.93 105.77 L 161.61 104.76 C 161.33 103.87 160.39 103.38 159.50 103.66 C 158.61 103.94 158.12 104.89 158.40 105.77 Z M 158.69 106.66 L 158.92 107.64 C 159.14 108.54 160.04 109.10 160.95 108.88 C 161.85 108.67 162.41 107.76 162.19 106.86 L 161.96 105.88 C 161.74 104.98 160.84 104.42 159.93 104.64 C 159.03 104.85 158.47 105.76 158.69 106.66 Z M 158.90 107.53 L 159.07 108.48 C 159.22 109.40 160.09 110.01 161.00 109.85 C 161.91 109.70 162.53 108.83 162.37 107.92 L 162.21 106.96 C 162.05 106.05 161.18 105.44 160.27 105.60 C 159.36 105.75 158.75 106.62 158.90 107.53 Z M 159.06 108.40 L 159.18 109.35 C 159.29 110.27 160.12 110.92 161.03 110.81 C 161.95 110.70 162.60 109.87 162.49 108.96 L 162.38 108.00 C 162.27 107.09 161.44 106.43 160.52 106.54 C 159.61 106.65 158.95 107.49 159.06 108.40 Z M 159.18 109.29 L 159.25 110.21 C 159.33 111.13 160.14 111.81 161.05 111.73 C 161.96 111.65 162.64 110.85 162.57 109.93 L 162.49 109.02 C 162.41 108.10 161.61 107.42 160.69 107.50 C 159.78 107.57 159.10 108.38 159.18 109.29 Z M 159.26 110.16 L 159.31 111.11 C 159.36 112.02 160.13 112.72 161.05 112.68 C 161.96 112.63 162.66 111.85 162.61 110.94 L 162.56 109.99 C 162.52 109.07 161.74 108.37 160.82 108.42 C 159.91 108.47 159.21 109.25 159.26 110.16 Z M 159.31 111.06 L 159.34 112.06 C 159.36 112.97 160.11 113.69 161.02 113.67 C 161.93 113.65 162.65 112.90 162.63 111.99 L 162.61 110.99 C 162.59 110.08 161.83 109.36 160.92 109.38 C 160.02 109.40 159.29 110.15 159.31 111.06 Z M 159.34 112.02 L 159.34 113.09 C 159.33 113.99 160.06 114.73 160.97 114.74 C 161.87 114.74 162.61 114.01 162.62 113.11 L 162.62 112.03 C 162.63 111.13 161.90 110.39 160.99 110.39 C 160.09 110.38 159.35 111.11 159.34 112.02 Z M 159.35 113.05 L 159.32 114.10 C 159.29 115.00 160.00 115.75 160.90 115.77 C 161.80 115.80 162.55 115.09 162.58 114.19 L 162.61 113.14 C 162.63 112.24 161.92 111.49 161.02 111.47 C 160.12 111.44 159.37 112.15 159.35 113.05 Z M 159.32 114.06 L 159.27 115.09 C 159.23 115.98 159.92 116.75 160.82 116.79 C 161.71 116.84 162.47 116.15 162.52 115.25 L 162.57 114.22 C 162.62 113.33 161.93 112.56 161.03 112.52 C 160.13 112.48 159.37 113.17 159.32 114.06 Z M 159.28 115.04 L 159.20 116.08 C 159.13 116.97 159.80 117.75 160.69 117.82 C 161.58 117.89 162.36 117.22 162.43 116.33 L 162.51 115.29 C 162.58 114.40 161.91 113.62 161.02 113.55 C 160.13 113.48 159.35 114.15 159.28 115.04 Z M 159.21 116.02 L 159.10 117.04 C 159.00 117.92 159.63 118.72 160.52 118.82 C 161.41 118.92 162.20 118.29 162.31 117.40 L 162.42 116.39 C 162.52 115.50 161.88 114.70 161.00 114.60 C 160.11 114.50 159.31 115.14 159.21 116.02 Z M 159.11 116.96 L 158.96 117.92 C 158.82 118.80 159.41 119.62 160.29 119.76 C 161.17 119.91 161.99 119.31 162.13 118.43 L 162.29 117.48 C 162.43 116.60 161.84 115.78 160.96 115.63 C 160.08 115.49 159.26 116.09 159.11 116.96 Z M 158.99 117.81 L 158.76 118.78 C 158.55 119.64 159.08 120.51 159.94 120.71 C 160.80 120.92 161.67 120.39 161.87 119.52 L 162.11 118.55 C 162.31 117.69 161.78 116.82 160.92 116.62 C 160.06 116.41 159.19 116.95 158.99 117.81 Z M 158.81 118.61 L 158.46 119.59 C 158.16 120.42 158.59 121.33 159.42 121.63 C 160.25 121.93 161.16 121.50 161.46 120.67 L 161.82 119.70 C 162.12 118.87 161.69 117.95 160.86 117.65 C 160.03 117.35 159.11 117.78 158.81 118.61 Z M 158.55 119.40 L 158.11 120.25 C 157.70 121.03 158.00 121.99 158.78 122.40 C 159.57 122.80 160.53 122.50 160.93 121.72 L 161.37 120.87 C 161.78 120.08 161.47 119.12 160.69 118.72 C 159.91 118.32 158.95 118.62 158.55 119.40 Z M 158.21 120.09 L 157.67 120.88 C 157.18 121.60 157.36 122.59 158.09 123.08 C 158.81 123.57 159.80 123.39 160.29 122.67 L 160.83 121.88 C 161.32 121.16 161.14 120.17 160.41 119.68 C 159.69 119.18 158.70 119.37 158.21 120.09 Z M 157.76 120.77 L 157.14 121.52 C 156.59 122.19 156.68 123.19 157.36 123.74 C 158.03 124.30 159.03 124.20 159.58 123.53 L 160.20 122.78 C 160.76 122.10 160.66 121.11 159.99 120.55 C 159.31 120.00 158.32 120.09 157.76 120.77 Z M 157.22 121.43 L 156.53 122.16 C 155.93 122.79 155.95 123.79 156.58 124.39 C 157.21 124.99 158.21 124.97 158.81 124.34 L 159.50 123.61 C 160.10 122.98 160.08 121.99 159.45 121.38 C 158.82 120.78 157.82 120.80 157.22 121.43 Z M 156.63 122.06 L 155.87 122.73 C 155.21 123.30 155.15 124.30 155.72 124.95 C 156.29 125.61 157.29 125.67 157.94 125.10 L 158.71 124.43 C 159.36 123.86 159.43 122.87 158.85 122.21 C 158.28 121.56 157.29 121.49 156.63 122.06 Z M 156.01 122.62 L 155.19 123.19 C 154.47 123.69 154.29 124.67 154.79 125.38 C 155.28 126.09 156.26 126.27 156.97 125.78 L 157.80 125.21 C 158.51 124.72 158.69 123.74 158.20 123.02 C 157.70 122.31 156.73 122.13 156.01 122.62 Z M 155.39 123.08 L 154.48 123.52 C 153.70 123.90 153.38 124.84 153.76 125.62 C 154.14 126.40 155.08 126.72 155.86 126.34 L 156.77 125.90 C 157.55 125.52 157.87 124.58 157.49 123.80 C 157.11 123.02 156.17 122.70 155.39 123.08 Z M 154.75 123.42 L 153.77 123.69 C 152.93 123.92 152.44 124.79 152.68 125.62 C 152.91 126.45 153.77 126.94 154.60 126.71 L 155.59 126.44 C 156.42 126.21 156.91 125.35 156.68 124.51 C 156.45 123.68 155.59 123.19 154.75 123.42 Z M 154.08 123.64 L 153.09 123.71 C 152.23 123.77 151.58 124.52 151.64 125.38 C 151.70 126.24 152.45 126.89 153.31 126.83 L 154.29 126.76 C 155.16 126.70 155.81 125.96 155.75 125.09 C 155.69 124.23 154.94 123.58 154.08 123.64 Z M 153.42 123.73 L 152.47 123.59 C 151.61 123.46 150.82 124.05 150.70 124.91 C 150.57 125.76 151.16 126.55 152.02 126.68 L 152.97 126.82 C 153.83 126.94 154.62 126.35 154.75 125.50 C 154.87 124.64 154.28 123.85 153.42 123.73 Z M 152.80 123.68 L 151.95 123.34 C 151.14 123.03 150.24 123.44 149.93 124.24 C 149.62 125.05 150.02 125.95 150.82 126.26 L 151.68 126.59 C 152.49 126.90 153.39 126.50 153.70 125.69 C 154.01 124.89 153.61 123.99 152.80 123.68 Z M 152.22 123.48 L 151.43 122.98 C 150.70 122.51 149.73 122.73 149.27 123.46 C 148.81 124.18 149.02 125.15 149.75 125.61 L 150.55 126.12 C 151.27 126.58 152.24 126.37 152.70 125.64 C 153.16 124.91 152.95 123.95 152.22 123.48 Z M 151.62 123.13 L 150.87 122.46 C 150.22 121.88 149.23 121.94 148.66 122.59 C 148.09 123.23 148.15 124.22 148.79 124.79 L 149.55 125.46 C 150.20 126.03 151.18 125.98 151.75 125.33 C 152.33 124.69 152.27 123.70 151.62 123.13 Z M 151.00 122.59 L 150.27 121.77 C 149.70 121.12 148.71 121.06 148.07 121.64 C 147.42 122.21 147.36 123.20 147.94 123.84 L 148.66 124.66 C 149.23 125.30 150.22 125.36 150.87 124.79 C 151.51 124.22 151.57 123.23 151.00 122.59 Z M 150.35 121.86 L 149.78 121.11 C 149.26 120.42 148.28 120.29 147.60 120.81 C 146.91 121.33 146.77 122.31 147.29 122.99 L 147.86 123.75 C 148.38 124.43 149.36 124.57 150.04 124.05 C 150.73 123.53 150.87 122.55 150.35 121.86 Z M 149.83 121.18 L 149.29 120.38 C 148.81 119.66 147.83 119.48 147.12 119.96 C 146.41 120.44 146.22 121.41 146.70 122.13 L 147.24 122.93 C 147.73 123.64 148.70 123.83 149.41 123.35 C 150.13 122.86 150.31 121.89 149.83 121.18 Z M 149.32 120.43 L 148.79 119.58 C 148.34 118.84 147.37 118.62 146.64 119.07 C 145.91 119.53 145.68 120.49 146.14 121.22 L 146.67 122.08 C 147.12 122.81 148.09 123.04 148.82 122.58 C 149.55 122.13 149.78 121.16 149.32 120.43 Z M 148.82 119.62 L 148.30 118.72 C 147.86 117.97 146.91 117.72 146.16 118.15 C 145.42 118.58 145.16 119.54 145.59 120.29 L 146.11 121.18 C 146.55 121.93 147.50 122.18 148.25 121.75 C 148.99 121.32 149.25 120.36 148.82 119.62 Z M 148.31 118.75 L 147.81 117.82 C 147.39 117.07 146.44 116.79 145.68 117.21 C 144.93 117.62 144.65 118.57 145.07 119.33 L 145.58 120.25 C 145.99 121.01 146.94 121.29 147.70 120.87 C 148.45 120.46 148.73 119.51 148.31 118.75 Z M 147.82 117.85 L 147.33 116.92 C 146.93 116.16 145.98 115.87 145.22 116.27 C 144.46 116.67 144.16 117.62 144.57 118.38 L 145.05 119.31 C 145.46 120.07 146.40 120.36 147.17 119.96 C 147.93 119.56 148.22 118.61 147.82 117.85 Z M 147.34 116.94 L 146.87 116.02 C 146.48 115.25 145.54 114.94 144.77 115.33 C 144.00 115.73 143.69 116.67 144.08 117.44 L 144.55 118.36 C 144.95 119.13 145.89 119.44 146.66 119.05 C 147.43 118.66 147.74 117.71 147.34 116.94 Z M 146.89 116.04 L 146.44 115.12 C 146.06 114.35 145.12 114.02 144.34 114.41 C 143.56 114.79 143.24 115.73 143.62 116.50 L 144.07 117.42 C 144.45 118.20 145.39 118.52 146.17 118.14 C 146.95 117.75 147.27 116.82 146.89 116.04 Z M 146.45 115.14 L 146.03 114.25 C 145.66 113.47 144.72 113.13 143.94 113.50 C 143.15 113.87 142.82 114.81 143.19 115.59 L 143.61 116.48 C 143.98 117.27 144.92 117.60 145.70 117.23 C 146.48 116.86 146.82 115.93 146.45 115.14 Z M 146.04 114.27 L 145.65 113.41 C 145.29 112.62 144.36 112.27 143.57 112.63 C 142.78 112.99 142.43 113.92 142.79 114.71 L 143.18 115.57 C 143.53 116.36 144.47 116.71 145.26 116.35 C 146.05 115.99 146.40 115.06 146.04 114.27 Z M 145.67 113.44 L 145.25 112.46 C 144.90 111.66 143.97 111.28 143.17 111.63 C 142.37 111.97 142.00 112.90 142.35 113.70 L 142.77 114.68 C 143.11 115.48 144.04 115.86 144.84 115.51 C 145.64 115.17 146.01 114.24 145.67 113.44 Z M 145.27 112.49 L 144.89 111.52 C 144.56 110.70 143.64 110.31 142.82 110.63 C 142.01 110.96 141.61 111.88 141.93 112.70 L 142.32 113.67 C 142.65 114.48 143.57 114.88 144.39 114.56 C 145.20 114.23 145.60 113.31 145.27 112.49 Z M 144.91 111.56 L 144.58 110.65 C 144.28 109.81 143.36 109.38 142.53 109.69 C 141.70 109.99 141.27 110.91 141.57 111.74 L 141.90 112.65 C 142.21 113.48 143.12 113.91 143.96 113.61 C 144.79 113.31 145.22 112.39 144.91 111.56 Z M 144.61 110.69 L 144.33 109.82 C 144.06 108.98 143.15 108.51 142.30 108.79 C 141.45 109.06 140.98 109.97 141.26 110.82 L 141.54 111.69 C 141.82 112.54 142.73 113.00 143.57 112.73 C 144.42 112.45 144.89 111.54 144.61 110.69 Z M 144.36 109.89 L 144.08 108.88 C 143.85 108.01 142.95 107.50 142.09 107.74 C 141.22 107.98 140.71 108.87 140.95 109.74 L 141.23 110.75 C 141.46 111.62 142.36 112.13 143.22 111.89 C 144.09 111.65 144.60 110.76 144.36 109.89 Z M 144.13 109.04 L 143.97 108.03 C 143.82 107.14 142.98 106.54 142.09 106.68 C 141.20 106.83 140.59 107.67 140.74 108.56 L 140.90 109.57 C 141.05 110.46 141.89 111.07 142.78 110.92 C 143.67 110.78 144.28 109.94 144.13 109.04 Z M 143.99 108.38 L 144.04 107.46 C 144.09 106.55 143.39 105.78 142.49 105.73 C 141.58 105.68 140.81 106.38 140.76 107.28 L 140.71 108.21 C 140.66 109.12 141.36 109.89 142.27 109.94 C 143.17 109.98 143.95 109.29 143.99 108.38 Z M 143.92 108.01 L 144.26 107.20 C 144.61 106.36 144.21 105.40 143.37 105.05 C 142.53 104.69 141.57 105.09 141.22 105.93 L 140.88 106.73 C 140.53 107.58 140.92 108.54 141.76 108.89 C 142.61 109.24 143.57 108.85 143.92 108.01 Z M 143.93 107.71 L 144.57 107.04 C 145.20 106.38 145.17 105.34 144.51 104.71 C 143.85 104.08 142.81 104.10 142.18 104.76 L 141.54 105.43 C 140.91 106.09 140.94 107.13 141.60 107.76 C 142.26 108.39 143.30 108.37 143.93 107.71 Z M 144.18 107.34 L 145.10 106.83 C 145.89 106.38 146.18 105.38 145.73 104.58 C 145.29 103.79 144.28 103.50 143.49 103.95 L 142.57 104.46 C 141.77 104.91 141.49 105.91 141.93 106.71 C 142.38 107.50 143.38 107.79 144.18 107.34 Z M 144.77 106.97 L 145.80 106.66 C 146.67 106.39 147.16 105.47 146.90 104.60 C 146.64 103.73 145.71 103.23 144.84 103.50 L 143.81 103.81 C 142.94 104.07 142.45 104.99 142.71 105.87 C 142.97 106.74 143.90 107.23 144.77 106.97 Z M 145.56 106.71 L 146.55 106.57 C 147.45 106.43 148.07 105.59 147.94 104.69 C 147.81 103.79 146.97 103.17 146.07 103.30 L 145.08 103.44 C 144.18 103.58 143.55 104.41 143.69 105.32 C 143.82 106.22 144.66 106.84 145.56 106.71 Z M 146.35 106.58 L 147.38 106.56 C 148.29 106.54 149.01 105.78 148.99 104.87 C 148.97 103.96 148.21 103.23 147.30 103.26 L 146.27 103.28 C 145.36 103.30 144.63 104.06 144.66 104.97 C 144.68 105.88 145.44 106.60 146.35 106.58 Z M 147.17 106.55 L 148.18 106.66 C 149.08 106.75 149.90 106.09 149.99 105.19 C 150.09 104.28 149.43 103.47 148.52 103.37 L 147.51 103.26 C 146.61 103.17 145.79 103.83 145.70 104.73 C 145.60 105.64 146.26 106.45 147.17 106.55 Z M 147.91 106.61 L 148.87 106.87 C 149.75 107.11 150.65 106.59 150.90 105.72 C 151.14 104.84 150.62 103.93 149.74 103.69 L 148.79 103.42 C 147.91 103.18 147.00 103.70 146.76 104.58 C 146.52 105.45 147.03 106.36 147.91 106.61 Z M 148.53 106.73 L 149.45 107.22 C 150.25 107.65 151.25 107.35 151.68 106.54 C 152.11 105.74 151.80 104.74 151.00 104.31 L 150.08 103.82 C 149.28 103.40 148.28 103.70 147.85 104.50 C 147.42 105.30 147.73 106.30 148.53 106.73 Z M 149.13 106.99 L 149.87 107.65 C 150.55 108.25 151.59 108.19 152.19 107.51 C 152.79 106.84 152.73 105.80 152.05 105.20 L 151.31 104.54 C 150.64 103.94 149.60 104.00 149.00 104.68 C 148.40 105.36 148.46 106.39 149.13 106.99 Z M 149.64 107.39 L 150.21 108.16 C 150.74 108.89 151.76 109.05 152.49 108.52 C 153.22 107.99 153.38 106.97 152.85 106.24 L 152.28 105.46 C 151.75 104.73 150.73 104.57 150.00 105.10 C 149.27 105.64 149.11 106.66 149.64 107.39 Z M 150.06 107.90 L 150.48 108.79 C 150.86 109.60 151.84 109.95 152.65 109.56 C 153.46 109.18 153.81 108.21 153.42 107.39 L 153.00 106.50 C 152.62 105.69 151.65 105.34 150.83 105.73 C 150.02 106.11 149.67 107.08 150.06 107.90 Z M 150.40 108.55 L 150.68 109.51 C 150.93 110.37 151.83 110.87 152.69 110.61 C 153.55 110.36 154.04 109.46 153.79 108.60 L 153.51 107.63 C 153.26 106.77 152.35 106.28 151.50 106.53 C 150.64 106.79 150.14 107.69 150.40 108.55 Z M 150.64 109.33 L 150.81 110.31 C 150.96 111.19 151.80 111.78 152.68 111.63 C 153.56 111.48 154.15 110.65 154.00 109.77 L 153.83 108.78 C 153.68 107.90 152.84 107.31 151.96 107.46 C 151.08 107.61 150.49 108.45 150.64 109.33 Z M 150.80 110.19 L 150.90 111.18 C 150.98 112.07 151.77 112.72 152.65 112.63 C 153.54 112.55 154.19 111.76 154.10 110.87 L 154.01 109.89 C 153.92 109.00 153.14 108.35 152.25 108.44 C 151.37 108.52 150.72 109.31 150.80 110.19 Z M 150.89 111.09 L 150.93 112.09 C 150.96 112.98 151.71 113.67 152.60 113.64 C 153.48 113.60 154.18 112.86 154.14 111.97 L 154.10 110.97 C 154.07 110.08 153.33 109.39 152.44 109.42 C 151.55 109.45 150.86 110.20 150.89 111.09 Z M 150.93 111.96 L 150.89 112.95 C 150.85 113.84 151.54 114.58 152.43 114.62 C 153.31 114.66 154.06 113.97 154.10 113.08 L 154.14 112.10 C 154.18 111.21 153.49 110.46 152.60 110.42 C 151.72 110.39 150.97 111.08 150.93 111.96 Z M 150.90 112.79 L 150.77 113.78 C 150.64 114.66 151.25 115.47 152.13 115.60 C 153.01 115.72 153.82 115.11 153.95 114.23 L 154.09 113.24 C 154.21 112.36 153.60 111.55 152.72 111.43 C 151.84 111.30 151.03 111.91 150.90 112.79 Z M 150.80 113.62 L 150.56 114.57 C 150.35 115.43 150.88 116.30 151.74 116.51 C 152.60 116.73 153.47 116.20 153.68 115.34 L 153.92 114.39 C 154.13 113.53 153.60 112.66 152.74 112.45 C 151.88 112.24 151.01 112.76 150.80 113.62 Z M 150.60 114.45 L 150.28 115.40 C 150.00 116.24 150.46 117.15 151.30 117.43 C 152.14 117.71 153.05 117.26 153.33 116.42 L 153.65 115.46 C 153.93 114.62 153.47 113.71 152.63 113.43 C 151.79 113.15 150.88 113.60 150.60 114.45 Z M 150.32 115.30 L 149.93 116.24 C 149.59 117.06 149.99 118.00 150.81 118.34 C 151.63 118.67 152.57 118.28 152.91 117.46 L 153.29 116.52 C 153.63 115.70 153.24 114.76 152.42 114.42 C 151.59 114.08 150.65 114.47 150.32 115.30 Z M 149.97 116.15 L 149.53 117.07 C 149.14 117.87 149.48 118.83 150.28 119.22 C 151.09 119.60 152.05 119.26 152.43 118.46 L 152.87 117.54 C 153.26 116.74 152.92 115.78 152.12 115.40 C 151.31 115.01 150.35 115.35 149.97 116.15 Z M 149.56 116.99 L 149.08 117.88 C 148.66 118.66 148.95 119.64 149.73 120.07 C 150.52 120.49 151.50 120.20 151.92 119.42 L 152.40 118.53 C 152.82 117.75 152.53 116.77 151.75 116.34 C 150.97 115.92 149.99 116.21 149.56 116.99 Z M 149.11 117.82 L 148.60 118.68 C 148.15 119.44 148.40 120.44 149.17 120.89 C 149.94 121.35 150.93 121.10 151.38 120.33 L 151.89 119.47 C 152.35 118.71 152.10 117.71 151.33 117.26 C 150.56 116.80 149.57 117.05 149.11 117.82 Z M 148.63 118.63 L 148.02 119.59 C 147.53 120.35 147.76 121.35 148.51 121.83 C 149.26 122.31 150.26 122.09 150.74 121.34 L 151.36 120.37 C 151.84 119.62 151.62 118.62 150.86 118.14 C 150.11 117.66 149.11 117.88 148.63 118.63 Z M 148.04 119.56 L 147.34 120.61 C 146.84 121.35 147.04 122.35 147.78 122.85 C 148.52 123.35 149.53 123.15 150.02 122.41 L 150.72 121.37 C 151.22 120.62 151.02 119.62 150.28 119.12 C 149.54 118.63 148.54 118.82 148.04 119.56 Z M 147.36 120.59 L 147.15 120.89 C 146.64 121.62 146.82 122.63 147.55 123.14 C 148.28 123.64 149.28 123.46 149.79 122.73 L 150.00 122.43 C 150.51 121.69 150.33 120.69 149.60 120.18 C 148.87 119.68 147.87 119.86 147.36 120.59 Z M 149.77 122.74 L 150.17 122.18 C 150.68 121.46 150.52 120.46 149.80 119.95 C 149.08 119.44 148.08 119.60 147.56 120.32 L 147.16 120.89 C 146.65 121.60 146.82 122.60 147.54 123.12 C 148.26 123.63 149.26 123.46 149.77 122.74 Z M 150.13 122.21 L 150.90 121.19 C 151.43 120.49 151.29 119.50 150.59 118.97 C 149.89 118.44 148.90 118.58 148.37 119.28 L 147.60 120.30 C 147.08 120.99 147.21 121.99 147.91 122.52 C 148.61 123.04 149.60 122.91 150.13 122.21 Z M 150.85 121.24 L 151.56 120.39 C 152.12 119.72 152.03 118.73 151.36 118.17 C 150.69 117.61 149.70 117.70 149.14 118.37 L 148.43 119.23 C 147.87 119.90 147.96 120.89 148.63 121.45 C 149.30 122.00 150.29 121.91 150.85 121.24 Z M 151.50 120.46 L 152.15 119.75 C 152.75 119.12 152.71 118.13 152.08 117.53 C 151.45 116.94 150.45 116.97 149.86 117.60 L 149.20 118.30 C 148.61 118.94 148.64 119.93 149.27 120.53 C 149.91 121.12 150.90 121.09 151.50 120.46 Z M 152.09 119.82 L 152.81 119.13 C 153.44 118.53 153.47 117.54 152.87 116.91 C 152.27 116.28 151.28 116.26 150.65 116.85 L 149.92 117.54 C 149.29 118.14 149.27 119.13 149.87 119.76 C 150.46 120.39 151.46 120.42 152.09 119.82 Z M 152.75 119.19 L 153.57 118.48 C 154.23 117.92 154.31 116.93 153.75 116.27 C 153.18 115.61 152.19 115.53 151.53 116.09 L 150.71 116.80 C 150.05 117.36 149.97 118.35 150.54 119.01 C 151.10 119.67 152.09 119.75 152.75 119.19 Z M 153.51 118.54 L 154.43 117.83 C 155.12 117.30 155.25 116.31 154.72 115.62 C 154.20 114.93 153.21 114.80 152.52 115.33 L 151.60 116.04 C 150.91 116.57 150.78 117.56 151.30 118.25 C 151.83 118.93 152.82 119.07 153.51 118.54 Z M 154.31 117.92 L 155.22 117.35 C 155.96 116.89 156.19 115.92 155.73 115.18 C 155.27 114.44 154.30 114.21 153.56 114.67 L 152.65 115.24 C 151.91 115.70 151.68 116.67 152.14 117.41 C 152.60 118.15 153.57 118.38 154.31 117.92 Z M 154.90 117.50 L 155.69 117.23 C 156.52 116.95 156.96 116.06 156.68 115.23 C 156.40 114.41 155.50 113.97 154.67 114.25 L 153.88 114.52 C 153.06 114.80 152.62 115.70 152.90 116.52 C 153.18 117.35 154.08 117.79 154.90 117.50 Z M 154.58 117.20 L 155.20 117.46 C 156.01 117.79 156.93 117.40 157.26 116.60 C 157.60 115.79 157.21 114.87 156.40 114.53 L 155.79 114.28 C 154.98 113.95 154.05 114.33 153.72 115.14 C 153.39 115.95 153.78 116.87 154.58 117.20 Z M 154.30 116.50 L 154.60 117.37 C 154.88 118.20 155.78 118.64 156.60 118.36 C 157.43 118.08 157.87 117.19 157.59 116.36 L 157.30 115.49 C 157.02 114.66 156.12 114.22 155.30 114.50 C 154.47 114.78 154.03 115.67 154.30 116.50 Z M 154.52 116.89 L 154.53 118.05 C 154.55 118.92 155.26 119.62 156.14 119.61 C 157.01 119.59 157.71 118.88 157.70 118.00 L 157.68 116.84 C 157.67 115.97 156.95 115.27 156.07 115.28 C 155.20 115.30 154.50 116.02 154.52 116.89 Z M 154.54 117.84 L 154.42 118.84 C 154.32 119.71 154.94 120.49 155.80 120.60 C 156.67 120.70 157.46 120.08 157.56 119.22 L 157.69 118.22 C 157.79 117.35 157.17 116.56 156.30 116.46 C 155.44 116.35 154.65 116.97 154.54 117.84 Z M 154.45 118.69 L 154.24 119.64 C 154.05 120.50 154.59 121.34 155.45 121.53 C 156.30 121.71 157.14 121.17 157.33 120.32 L 157.54 119.37 C 157.73 118.51 157.19 117.67 156.33 117.48 C 155.48 117.29 154.63 117.83 154.45 118.69 Z M 154.27 119.53 L 153.98 120.50 C 153.73 121.34 154.21 122.22 155.05 122.47 C 155.89 122.72 156.77 122.24 157.02 121.40 L 157.30 120.43 C 157.55 119.59 157.07 118.71 156.23 118.46 C 155.40 118.22 154.51 118.69 154.27 119.53 Z M 154.00 120.44 L 153.69 121.35 C 153.40 122.18 153.85 123.08 154.67 123.36 C 155.50 123.64 156.40 123.20 156.68 122.38 L 157.00 121.47 C 157.28 120.64 156.84 119.74 156.01 119.46 C 155.18 119.17 154.28 119.61 154.00 120.44 Z M 153.70 121.31 L 153.37 122.21 C 153.07 123.03 153.49 123.94 154.31 124.24 C 155.13 124.55 156.04 124.13 156.34 123.31 L 156.67 122.41 C 156.97 121.59 156.55 120.68 155.73 120.38 C 154.91 120.07 154.00 120.49 153.70 121.31 Z M 153.38 122.18 L 153.01 123.13 C 152.70 123.94 153.10 124.86 153.92 125.18 C 154.73 125.49 155.65 125.09 155.97 124.27 L 156.33 123.33 C 156.65 122.52 156.24 121.60 155.43 121.28 C 154.61 120.96 153.70 121.37 153.38 122.18 Z M 153.02 123.11 L 152.62 124.10 C 152.30 124.91 152.69 125.83 153.50 126.16 C 154.31 126.48 155.24 126.09 155.56 125.28 L 155.96 124.29 C 156.29 123.48 155.89 122.56 155.08 122.23 C 154.27 121.90 153.35 122.30 153.02 123.11 Z M 152.63 124.09 L 152.27 124.96 C 151.93 125.77 152.32 126.70 153.13 127.03 C 153.94 127.36 154.87 126.98 155.20 126.17 L 155.56 125.29 C 155.89 124.48 155.51 123.55 154.70 123.22 C 153.89 122.89 152.96 123.28 152.63 124.09 Z M 152.27 124.95 L 151.92 125.79 C 151.58 126.60 151.96 127.53 152.77 127.87 C 153.58 128.20 154.51 127.82 154.85 127.01 L 155.20 126.18 C 155.54 125.37 155.15 124.44 154.35 124.10 C 153.54 123.76 152.61 124.14 152.27 124.95 Z M 151.92 125.78 L 151.54 126.66 C 151.20 127.47 151.57 128.40 152.38 128.75 C 153.19 129.09 154.12 128.72 154.46 127.91 L 154.84 127.03 C 155.19 126.22 154.81 125.29 154.01 124.94 C 153.20 124.60 152.27 124.97 151.92 125.78 Z M 151.55 126.65 L 151.14 127.60 C 150.78 128.40 151.15 129.34 151.95 129.69 C 152.76 130.04 153.69 129.67 154.04 128.87 L 154.46 127.93 C 154.81 127.12 154.44 126.19 153.64 125.83 C 152.84 125.48 151.90 125.85 151.55 126.65 Z M 151.14 127.58 L 150.69 128.60 C 150.33 129.40 150.68 130.34 151.48 130.70 C 152.29 131.06 153.23 130.70 153.58 129.90 L 154.04 128.88 C 154.40 128.08 154.04 127.14 153.24 126.78 C 152.44 126.42 151.50 126.78 151.14 127.58 Z M 150.69 128.59 L 150.26 129.53 C 149.89 130.33 150.24 131.27 151.04 131.64 C 151.84 132.00 152.78 131.65 153.15 130.85 L 153.58 129.91 C 153.95 129.11 153.60 128.17 152.80 127.80 C 152.00 127.44 151.06 127.79 150.69 128.59 Z M 150.26 129.52 L 149.84 130.41 C 149.47 131.21 149.82 132.16 150.61 132.53 C 151.41 132.90 152.36 132.56 152.73 131.76 L 153.15 130.86 C 153.52 130.07 153.17 129.12 152.38 128.75 C 151.58 128.38 150.63 128.72 150.26 129.52 Z M 149.84 130.41 L 149.41 131.33 C 149.03 132.12 149.37 133.07 150.17 133.45 C 150.97 133.83 151.92 133.49 152.29 132.69 L 152.73 131.77 C 153.10 130.97 152.76 130.02 151.97 129.64 C 151.17 129.27 150.22 129.61 149.84 130.41 Z M 149.41 131.32 L 148.96 132.25 C 148.58 133.05 148.92 134.00 149.72 134.38 C 150.51 134.76 151.46 134.42 151.85 133.63 L 152.29 132.70 C 152.67 131.90 152.34 130.95 151.54 130.57 C 150.74 130.19 149.79 130.52 149.41 131.32 Z M 148.96 132.24 L 148.52 133.16 C 148.13 133.96 148.46 134.92 149.26 135.30 C 150.06 135.69 151.01 135.36 151.40 134.56 L 151.84 133.64 C 152.23 132.84 151.90 131.88 151.10 131.50 C 150.31 131.11 149.35 131.45 148.96 132.24 Z M 148.52 133.16 L 148.08 134.06 C 147.69 134.85 148.02 135.81 148.81 136.20 C 149.61 136.59 150.57 136.26 150.96 135.47 L 151.40 134.57 C 151.79 133.77 151.46 132.81 150.66 132.42 C 149.87 132.03 148.91 132.36 148.52 133.16 Z M 148.08 134.05 L 147.64 134.93 C 147.25 135.72 147.57 136.68 148.36 137.08 C 149.16 137.47 150.12 137.15 150.52 136.36 L 150.95 135.48 C 151.35 134.68 151.03 133.72 150.23 133.32 C 149.44 132.93 148.47 133.25 148.08 134.05 Z M 147.64 134.92 L 147.14 135.91 C 146.74 136.70 147.06 137.67 147.85 138.07 C 148.65 138.47 149.61 138.15 150.01 137.36 L 150.51 136.37 C 150.91 135.57 150.60 134.61 149.80 134.21 C 149.01 133.81 148.04 134.12 147.64 134.92 Z M 147.15 135.89 L 146.67 136.82 C 146.27 137.61 146.58 138.58 147.37 138.98 C 148.16 139.39 149.13 139.08 149.54 138.29 L 150.01 137.37 C 150.42 136.58 150.11 135.61 149.32 135.20 C 148.52 134.79 147.55 135.10 147.15 135.89 Z M 146.68 136.81 L 146.22 137.68 C 145.81 138.46 146.12 139.44 146.91 139.85 C 147.70 140.26 148.67 139.96 149.08 139.17 L 149.54 138.30 C 149.95 137.51 149.64 136.53 148.85 136.12 C 148.06 135.71 147.09 136.02 146.68 136.81 Z M 146.22 137.67 L 145.78 138.50 C 145.37 139.29 145.67 140.27 146.46 140.68 C 147.25 141.10 148.23 140.80 148.64 140.01 L 149.08 139.17 C 149.50 138.39 149.19 137.41 148.41 136.99 C 147.62 136.58 146.64 136.88 146.22 137.67 Z M 145.78 138.50 L 145.35 139.31 C 144.93 140.10 145.23 141.08 146.02 141.50 C 146.81 141.92 147.79 141.62 148.21 140.83 L 148.64 140.01 C 149.06 139.22 148.76 138.24 147.97 137.83 C 147.18 137.41 146.20 137.71 145.78 138.50 Z M 145.35 139.31 L 144.87 140.20 C 144.45 140.99 144.75 141.97 145.55 142.39 C 146.34 142.81 147.32 142.51 147.74 141.72 L 148.21 140.83 C 148.63 140.04 148.33 139.06 147.54 138.64 C 146.75 138.22 145.77 138.52 145.35 139.31 Z M 144.87 140.20 L 144.40 141.10 C 143.97 141.89 144.27 142.87 145.06 143.29 C 145.85 143.71 146.84 143.41 147.26 142.62 L 147.74 141.73 C 148.16 140.94 147.86 139.95 147.07 139.53 C 146.28 139.11 145.30 139.41 144.87 140.20 Z M 144.40 141.09 L 143.92 141.98 C 143.50 142.77 143.79 143.75 144.58 144.17 C 145.37 144.60 146.36 144.30 146.78 143.51 L 147.26 142.63 C 147.68 141.84 147.39 140.85 146.60 140.43 C 145.81 140.01 144.82 140.30 144.40 141.09 Z M 143.92 141.97 L 143.45 142.83 C 143.02 143.62 143.31 144.61 144.10 145.04 C 144.89 145.47 145.88 145.18 146.31 144.39 L 146.78 143.52 C 147.21 142.73 146.92 141.75 146.13 141.32 C 145.34 140.89 144.35 141.18 143.92 141.97 Z M 143.46 142.82 L 142.98 143.68 C 142.54 144.47 142.83 145.46 143.61 145.89 C 144.40 146.33 145.39 146.05 145.82 145.26 L 146.30 144.40 C 146.74 143.62 146.45 142.63 145.67 142.19 C 144.88 141.75 143.89 142.04 143.46 142.82 Z M 142.99 143.67 L 142.47 144.58 C 142.02 145.36 142.30 146.35 143.08 146.80 C 143.86 147.24 144.85 146.97 145.30 146.18 L 145.82 145.28 C 146.26 144.49 145.99 143.50 145.20 143.06 C 144.42 142.61 143.43 142.89 142.99 143.67 Z M 142.47 144.56 L 141.97 145.44 C 141.52 146.22 141.78 147.21 142.56 147.67 C 143.34 148.12 144.34 147.85 144.79 147.07 L 145.29 146.20 C 145.74 145.42 145.48 144.42 144.70 143.97 C 143.92 143.52 142.92 143.79 142.47 144.56 Z M 141.97 145.43 L 141.48 146.28 C 141.02 147.05 141.28 148.05 142.06 148.51 C 142.83 148.96 143.83 148.70 144.29 147.93 L 144.78 147.08 C 145.24 146.30 144.98 145.30 144.20 144.85 C 143.42 144.39 142.43 144.66 141.97 145.43 Z M 141.48 146.27 L 140.99 147.09 C 140.54 147.87 140.80 148.87 141.57 149.33 C 142.35 149.78 143.35 149.52 143.81 148.75 L 144.29 147.93 C 144.74 147.15 144.49 146.15 143.71 145.70 C 142.93 145.24 141.93 145.50 141.48 146.27 Z M 140.99 147.10 L 140.47 147.99 C 140.01 148.77 140.27 149.77 141.05 150.23 C 141.82 150.68 142.82 150.42 143.28 149.65 L 143.81 148.75 C 144.26 147.97 144.00 146.97 143.23 146.51 C 142.45 146.06 141.45 146.32 140.99 147.10 Z M 140.46 148.00 L 139.95 148.87 C 139.50 149.65 139.76 150.65 140.54 151.10 C 141.32 151.56 142.32 151.29 142.77 150.51 L 143.28 149.64 C 143.74 148.86 143.47 147.86 142.69 147.41 C 141.91 146.96 140.92 147.22 140.46 148.00 Z M 139.95 148.88 L 139.46 149.73 C 139.01 150.51 139.28 151.51 140.06 151.96 C 140.84 152.41 141.84 152.14 142.29 151.36 L 142.78 150.51 C 143.23 149.73 142.96 148.73 142.18 148.28 C 141.40 147.83 140.40 148.10 139.95 148.88 Z M 139.46 149.74 L 138.97 150.59 C 138.53 151.37 138.80 152.37 139.59 152.81 C 140.37 153.26 141.37 152.98 141.81 152.20 L 142.30 151.35 C 142.74 150.56 142.46 149.57 141.68 149.12 C 140.90 148.68 139.90 148.95 139.46 149.74 Z M 138.96 150.60 L 138.47 151.49 C 138.03 152.28 138.32 153.28 139.11 153.71 C 139.90 154.15 140.89 153.87 141.33 153.08 L 141.82 152.19 C 142.26 151.40 141.97 150.40 141.18 149.97 C 140.40 149.53 139.40 149.81 138.96 150.60 Z M 138.46 151.51 L 137.99 152.39 C 137.56 153.18 137.86 154.17 138.66 154.60 C 139.45 155.03 140.44 154.73 140.87 153.93 L 141.34 153.06 C 141.77 152.26 141.47 151.27 140.67 150.84 C 139.88 150.42 138.89 150.72 138.46 151.51 Z M 137.97 152.41 L 137.53 153.28 C 137.11 154.09 137.43 155.07 138.23 155.49 C 139.04 155.90 140.02 155.58 140.44 154.78 L 140.88 153.91 C 141.30 153.11 140.98 152.12 140.18 151.71 C 139.37 151.29 138.39 151.61 137.97 152.41 Z M 137.50 153.33 L 136.93 154.53 C 136.55 155.35 136.90 156.33 137.72 156.72 C 138.54 157.10 139.52 156.75 139.90 155.93 L 140.47 154.73 C 140.85 153.91 140.50 152.93 139.68 152.54 C 138.86 152.16 137.88 152.51 137.50 153.33 Z M 136.82 154.81 L 136.62 155.57 C 136.39 156.46 136.92 157.36 137.80 157.59 C 138.68 157.82 139.58 157.29 139.81 156.41 L 140.01 155.65 C 140.24 154.77 139.72 153.87 138.84 153.64 C 137.96 153.41 137.05 153.93 136.82 154.81 Z M 138.48 157.63 L 138.84 157.57 C 139.74 157.42 140.35 156.57 140.20 155.67 C 140.06 154.77 139.21 154.15 138.30 154.30 L 137.95 154.36 C 137.05 154.51 136.44 155.36 136.58 156.26 C 136.73 157.16 137.58 157.77 138.48 157.63 Z M 139.61 157.23 L 140.33 156.66 C 141.05 156.08 141.16 155.04 140.59 154.32 C 140.01 153.60 138.97 153.49 138.25 154.06 L 137.53 154.64 C 136.82 155.21 136.70 156.26 137.27 156.97 C 137.85 157.69 138.90 157.81 139.61 157.23 Z M 140.41 156.60 L 141.37 155.73 C 142.05 155.11 142.10 154.05 141.48 153.37 C 140.86 152.68 139.81 152.63 139.12 153.25 L 138.17 154.12 C 137.48 154.74 137.43 155.80 138.05 156.48 C 138.67 157.17 139.73 157.22 140.41 156.60 Z M 141.38 155.73 L 142.18 154.99 C 142.87 154.37 142.91 153.30 142.29 152.62 C 141.66 151.94 140.60 151.89 139.92 152.52 L 139.11 153.25 C 138.43 153.88 138.38 154.94 139.01 155.62 C 139.63 156.31 140.70 156.35 141.38 155.73 Z M 142.18 155.00 L 142.89 154.36 C 143.58 153.74 143.63 152.67 143.01 151.99 C 142.38 151.30 141.32 151.24 140.63 151.87 L 139.93 152.51 C 139.24 153.13 139.18 154.19 139.81 154.88 C 140.43 155.57 141.49 155.62 142.18 155.00 Z M 142.89 154.36 L 143.62 153.70 C 144.31 153.08 144.37 152.02 143.75 151.33 C 143.12 150.64 142.06 150.58 141.37 151.20 L 140.64 151.86 C 139.95 152.48 139.89 153.55 140.51 154.24 C 141.13 154.93 142.20 154.98 142.89 154.36 Z M 143.62 153.70 L 144.39 153.01 C 145.08 152.39 145.13 151.33 144.51 150.64 C 143.89 149.95 142.82 149.89 142.13 150.51 L 141.37 151.20 C 140.68 151.82 140.63 152.89 141.25 153.58 C 141.87 154.27 142.93 154.32 143.62 153.70 Z M 144.39 153.01 L 145.18 152.29 C 145.87 151.66 145.92 150.60 145.30 149.91 C 144.67 149.22 143.61 149.17 142.92 149.80 L 142.13 150.52 C 141.44 151.14 141.39 152.20 142.01 152.89 C 142.64 153.58 143.70 153.63 144.39 153.01 Z M 145.19 152.28 L 145.93 151.60 C 146.62 150.97 146.66 149.91 146.04 149.22 C 145.41 148.54 144.34 148.49 143.66 149.12 L 142.92 149.80 C 142.23 150.43 142.18 151.49 142.81 152.18 C 143.44 152.87 144.51 152.91 145.19 152.28 Z M 145.94 151.60 L 146.69 150.90 C 147.37 150.27 147.42 149.20 146.78 148.52 C 146.15 147.84 145.09 147.80 144.41 148.43 L 143.65 149.12 C 142.97 149.76 142.93 150.82 143.56 151.50 C 144.19 152.19 145.26 152.23 145.94 151.60 Z M 146.70 150.90 L 147.44 150.20 C 148.12 149.57 148.16 148.50 147.53 147.82 C 146.90 147.14 145.83 147.10 145.15 147.74 L 144.40 148.43 C 143.72 149.07 143.68 150.13 144.32 150.81 C 144.95 151.49 146.02 151.53 146.70 150.90 Z M 147.45 150.20 L 148.18 149.51 C 148.86 148.88 148.89 147.81 148.26 147.13 C 147.62 146.45 146.56 146.42 145.88 147.05 L 145.15 147.74 C 144.47 148.37 144.43 149.44 145.07 150.12 C 145.70 150.80 146.77 150.83 147.45 150.20 Z M 148.18 149.51 L 148.88 148.86 C 149.56 148.22 149.59 147.15 148.95 146.47 C 148.31 145.80 147.25 145.76 146.57 146.40 L 145.87 147.06 C 145.20 147.69 145.16 148.76 145.80 149.44 C 146.44 150.12 147.50 150.15 148.18 149.51 Z M 148.88 148.85 L 149.65 148.13 C 150.33 147.49 150.36 146.42 149.72 145.75 C 149.08 145.07 148.01 145.04 147.34 145.68 L 146.57 146.40 C 145.89 147.04 145.86 148.11 146.50 148.78 C 147.14 149.46 148.20 149.49 148.88 148.85 Z M 149.65 148.12 L 150.39 147.42 C 151.06 146.78 151.09 145.72 150.45 145.04 C 149.81 144.37 148.75 144.34 148.07 144.98 L 147.33 145.68 C 146.66 146.32 146.63 147.39 147.27 148.06 C 147.91 148.74 148.98 148.76 149.65 148.12 Z M 150.39 147.42 L 151.10 146.75 C 151.77 146.10 151.79 145.04 151.15 144.37 C 150.50 143.70 149.44 143.67 148.77 144.32 L 148.07 144.99 C 147.40 145.63 147.37 146.70 148.02 147.37 C 148.66 148.04 149.72 148.06 150.39 147.42 Z M 151.10 146.74 L 151.79 146.07 C 152.46 145.43 152.47 144.36 151.83 143.70 C 151.18 143.03 150.12 143.01 149.45 143.66 L 148.76 144.32 C 148.10 144.97 148.08 146.03 148.72 146.70 C 149.37 147.37 150.43 147.38 151.10 146.74 Z M 151.80 146.07 L 152.48 145.40 C 153.14 144.75 153.15 143.69 152.50 143.02 C 151.85 142.36 150.79 142.35 150.13 143.00 L 149.44 143.66 C 148.78 144.31 148.77 145.38 149.42 146.04 C 150.07 146.70 151.13 146.72 151.80 146.07 Z M 152.48 145.40 L 153.17 144.72 C 153.83 144.07 153.84 143.00 153.19 142.34 C 152.54 141.68 151.48 141.67 150.82 142.32 L 150.13 143.00 C 149.46 143.65 149.45 144.71 150.10 145.37 C 150.75 146.04 151.82 146.05 152.48 145.40 Z M 153.17 144.72 L 153.88 144.02 C 154.54 143.38 154.56 142.32 153.91 141.65 C 153.26 140.99 152.20 140.97 151.54 141.62 L 150.82 142.32 C 150.16 142.96 150.15 144.02 150.79 144.69 C 151.44 145.35 152.50 145.37 153.17 144.72 Z M 153.87 144.03 L 154.61 143.33 C 155.28 142.69 155.30 141.62 154.66 140.96 C 154.02 140.29 152.96 140.26 152.29 140.90 L 151.55 141.61 C 150.88 142.25 150.86 143.31 151.50 143.98 C 152.14 144.65 153.20 144.67 153.87 144.03 Z M 154.59 143.34 L 155.33 142.65 C 156.01 142.02 156.05 140.96 155.42 140.29 C 154.79 139.61 153.73 139.57 153.05 140.20 L 152.31 140.89 C 151.63 141.52 151.59 142.58 152.22 143.25 C 152.85 143.93 153.91 143.97 154.59 143.34 Z M 155.31 142.67 L 155.99 142.06 C 156.68 141.44 156.73 140.38 156.12 139.69 C 155.50 139.01 154.44 138.95 153.76 139.57 L 153.07 140.18 C 152.39 140.80 152.33 141.86 152.95 142.54 C 153.56 143.23 154.62 143.29 155.31 142.67 Z M 155.97 142.07 L 156.69 141.45 C 157.38 140.85 157.46 139.79 156.86 139.10 C 156.25 138.40 155.20 138.32 154.50 138.93 L 153.78 139.55 C 153.08 140.15 153.01 141.21 153.61 141.90 C 154.21 142.60 155.27 142.68 155.97 142.07 Z M 156.66 141.47 L 157.43 140.83 C 158.14 140.24 158.24 139.19 157.65 138.48 C 157.06 137.78 156.01 137.68 155.30 138.27 L 154.53 138.90 C 153.82 139.49 153.72 140.54 154.31 141.25 C 154.90 141.96 155.95 142.06 156.66 141.47 Z M 157.40 140.85 L 158.23 140.20 C 158.95 139.62 159.07 138.58 158.50 137.86 C 157.92 137.14 156.88 137.02 156.16 137.59 L 155.33 138.25 C 154.61 138.82 154.49 139.86 155.06 140.58 C 155.63 141.30 156.68 141.42 157.40 140.85 Z M 158.20 140.22 L 159.07 139.56 C 159.80 139.00 159.94 137.96 159.39 137.23 C 158.83 136.50 157.79 136.35 157.06 136.91 L 156.19 137.57 C 155.46 138.12 155.31 139.17 155.87 139.90 C 156.42 140.63 157.46 140.77 158.20 140.22 Z M 159.04 139.57 L 159.84 138.99 C 160.58 138.45 160.74 137.41 160.20 136.67 C 159.66 135.93 158.62 135.77 157.88 136.31 L 157.09 136.89 C 156.34 137.43 156.18 138.47 156.72 139.21 C 157.26 139.95 158.30 140.11 159.04 139.57 Z M 159.81 139.01 L 160.64 138.42 C 161.39 137.89 161.57 136.86 161.05 136.11 C 160.52 135.37 159.49 135.19 158.74 135.71 L 157.91 136.30 C 157.16 136.82 156.98 137.86 157.51 138.60 C 158.03 139.35 159.06 139.53 159.81 139.01 Z M 160.62 138.43 L 161.47 137.85 C 162.23 137.34 162.42 136.31 161.91 135.56 C 161.40 134.80 160.37 134.61 159.62 135.12 L 158.76 135.70 C 158.01 136.21 157.81 137.24 158.32 137.99 C 158.84 138.75 159.86 138.95 160.62 138.43 Z M 161.45 137.87 L 162.30 137.31 C 163.06 136.81 163.28 135.79 162.78 135.02 C 162.28 134.26 161.26 134.05 160.50 134.55 L 159.64 135.11 C 158.88 135.61 158.66 136.63 159.16 137.39 C 159.66 138.15 160.68 138.37 161.45 137.87 Z M 162.27 137.32 L 163.12 136.79 C 163.89 136.31 164.12 135.29 163.64 134.52 C 163.15 133.75 162.14 133.52 161.37 134.00 L 160.52 134.53 C 159.75 135.02 159.52 136.03 160.00 136.80 C 160.49 137.57 161.50 137.81 162.27 137.32 Z M 163.09 136.81 L 163.91 136.32 C 164.69 135.85 164.94 134.84 164.47 134.06 C 164.01 133.29 163.00 133.03 162.22 133.50 L 161.40 133.99 C 160.62 134.45 160.37 135.46 160.83 136.24 C 161.30 137.02 162.31 137.27 163.09 136.81 Z M 163.86 136.34 L 164.84 135.80 C 165.63 135.35 165.92 134.36 165.47 133.56 C 165.03 132.77 164.03 132.49 163.24 132.93 L 162.26 133.47 C 161.47 133.92 161.19 134.92 161.63 135.71 C 162.07 136.50 163.07 136.78 163.86 136.34 Z M 164.78 135.82 L 165.71 135.35 C 166.52 134.94 166.84 133.95 166.43 133.15 C 166.01 132.34 165.03 132.02 164.22 132.43 L 163.30 132.90 C 162.49 133.31 162.17 134.30 162.58 135.11 C 162.99 135.91 163.98 136.23 164.78 135.82 Z M 165.65 135.38 L 166.54 134.97 C 167.36 134.59 167.72 133.62 167.34 132.80 C 166.96 131.98 165.99 131.62 165.17 132.00 L 164.28 132.41 C 163.46 132.78 163.10 133.75 163.48 134.58 C 163.86 135.40 164.83 135.76 165.65 135.38 Z M 166.47 135.00 L 167.34 134.64 C 168.17 134.30 168.57 133.34 168.23 132.51 C 167.89 131.67 166.93 131.28 166.10 131.62 L 165.23 131.97 C 164.40 132.32 164.00 133.27 164.34 134.10 C 164.68 134.94 165.64 135.34 166.47 135.00 Z M 167.28 134.66 L 168.15 134.34 C 169.00 134.04 169.43 133.10 169.12 132.25 C 168.82 131.41 167.88 130.97 167.03 131.28 L 166.16 131.60 C 165.31 131.90 164.88 132.84 165.19 133.69 C 165.49 134.53 166.43 134.97 167.28 134.66 Z M 168.09 134.37 L 169.04 134.06 C 169.90 133.79 170.37 132.87 170.10 132.01 C 169.82 131.15 168.91 130.68 168.05 130.95 L 167.10 131.26 C 166.24 131.53 165.76 132.45 166.04 133.31 C 166.31 134.17 167.23 134.64 168.09 134.37 Z M 168.97 134.09 L 169.93 133.83 C 170.80 133.59 171.32 132.70 171.08 131.83 C 170.85 130.95 169.95 130.44 169.08 130.67 L 168.12 130.93 C 167.25 131.17 166.73 132.06 166.96 132.93 C 167.20 133.80 168.10 134.32 168.97 134.09 Z M 169.85 133.85 L 170.82 133.64 C 171.71 133.45 172.27 132.58 172.08 131.69 C 171.89 130.81 171.02 130.25 170.13 130.44 L 169.16 130.65 C 168.28 130.84 167.71 131.71 167.91 132.60 C 168.10 133.48 168.97 134.04 169.85 133.85 Z M 170.74 133.66 L 171.73 133.49 C 172.62 133.35 173.23 132.51 173.09 131.62 C 172.94 130.72 172.10 130.12 171.21 130.26 L 170.22 130.42 C 169.32 130.57 168.72 131.41 168.86 132.30 C 169.01 133.19 169.85 133.80 170.74 133.66 Z M 171.64 133.51 L 172.68 133.40 C 173.58 133.31 174.24 132.50 174.14 131.60 C 174.05 130.70 173.24 130.05 172.34 130.14 L 171.30 130.25 C 170.40 130.34 169.75 131.15 169.84 132.05 C 169.93 132.95 170.74 133.60 171.64 133.51 Z M 172.56 133.42 L 173.60 133.39 C 174.51 133.37 175.23 132.61 175.20 131.70 C 175.18 130.79 174.42 130.07 173.51 130.10 L 172.47 130.12 C 171.56 130.15 170.84 130.91 170.86 131.81 C 170.89 132.72 171.65 133.44 172.56 133.42 Z M 173.42 133.39 L 174.42 133.48 C 175.33 133.55 176.13 132.87 176.21 131.96 C 176.28 131.05 175.61 130.25 174.70 130.18 L 173.69 130.09 C 172.78 130.02 171.98 130.70 171.91 131.61 C 171.83 132.52 172.51 133.32 173.42 133.39 Z M 174.16 133.44 L 175.08 133.66 C 175.97 133.88 176.87 133.34 177.09 132.44 C 177.31 131.55 176.76 130.65 175.87 130.44 L 174.95 130.21 C 174.06 129.99 173.16 130.54 172.94 131.43 C 172.73 132.32 173.27 133.22 174.16 133.44 Z M 174.73 133.54 L 175.56 133.96 C 176.38 134.37 177.38 134.03 177.79 133.21 C 178.21 132.38 177.87 131.38 177.05 130.97 L 176.22 130.56 C 175.40 130.15 174.40 130.48 173.98 131.30 C 173.57 132.13 173.91 133.13 174.73 133.54 Z M 175.18 133.71 L 175.88 134.34 C 176.57 134.95 177.63 134.90 178.25 134.21 C 178.86 133.52 178.81 132.46 178.12 131.84 L 177.42 131.22 C 176.73 130.60 175.67 130.66 175.06 131.34 C 174.44 132.03 174.50 133.09 175.18 133.71 Z M 175.60 134.02 L 176.15 134.83 C 176.66 135.61 177.70 135.81 178.47 135.30 C 179.25 134.78 179.45 133.74 178.94 132.97 L 178.40 132.16 C 177.88 131.39 176.84 131.18 176.07 131.69 C 175.30 132.21 175.09 133.25 175.60 134.02 Z M 175.98 134.53 L 176.37 135.50 C 176.71 136.37 177.69 136.79 178.56 136.44 C 179.42 136.10 179.84 135.12 179.50 134.26 L 179.11 133.28 C 178.76 132.41 177.78 131.99 176.92 132.34 C 176.05 132.68 175.63 133.66 175.98 134.53 Z M 176.29 135.25 L 176.50 136.23 C 176.71 137.14 177.61 137.71 178.52 137.50 C 179.43 137.30 180.00 136.39 179.80 135.48 L 179.58 134.51 C 179.38 133.60 178.47 133.03 177.56 133.23 C 176.65 133.44 176.08 134.34 176.29 135.25 Z M 176.47 136.04 L 176.57 136.99 C 176.67 137.92 177.51 138.59 178.44 138.49 C 179.37 138.39 180.04 137.55 179.94 136.62 L 179.83 135.67 C 179.73 134.75 178.90 134.07 177.97 134.17 C 177.04 134.27 176.37 135.11 176.47 136.04 Z M 176.56 136.83 L 176.58 137.83 C 176.59 138.76 177.36 139.51 178.29 139.50 C 179.23 139.48 179.98 138.71 179.96 137.78 L 179.95 136.78 C 179.93 135.84 179.17 135.10 178.23 135.11 C 177.29 135.13 176.55 135.89 176.56 136.83 Z M 176.58 137.69 L 176.51 138.71 C 176.44 139.65 177.14 140.46 178.08 140.52 C 179.01 140.59 179.82 139.88 179.89 138.95 L 179.96 137.92 C 180.03 136.99 179.32 136.18 178.39 136.11 C 177.45 136.05 176.64 136.75 176.58 137.69 Z M 176.52 138.57 L 176.36 139.61 C 176.22 140.53 176.85 141.40 177.78 141.54 C 178.71 141.68 179.58 141.05 179.72 140.12 L 179.88 139.09 C 180.02 138.16 179.38 137.29 178.45 137.15 C 177.53 137.01 176.66 137.65 176.52 138.57 Z M 176.38 139.47 L 176.15 140.45 C 175.94 141.36 176.50 142.28 177.41 142.50 C 178.33 142.71 179.24 142.15 179.46 141.23 L 179.69 140.26 C 179.91 139.34 179.35 138.43 178.43 138.21 C 177.52 137.99 176.60 138.56 176.38 139.47 Z M 176.19 140.33 L 175.89 141.26 C 175.60 142.15 176.10 143.11 176.99 143.39 C 177.89 143.68 178.85 143.18 179.13 142.29 L 179.43 141.36 C 179.71 140.46 179.22 139.51 178.32 139.22 C 177.43 138.94 176.47 139.43 176.19 140.33 Z M 175.93 141.15 L 175.57 142.07 C 175.22 142.94 175.66 143.93 176.53 144.27 C 177.41 144.62 178.39 144.19 178.74 143.31 L 179.10 142.39 C 179.44 141.52 179.01 140.53 178.13 140.19 C 177.26 139.84 176.27 140.28 175.93 141.15 Z M 175.60 141.98 L 175.19 142.89 C 174.80 143.75 175.17 144.76 176.03 145.15 C 176.89 145.54 177.90 145.16 178.29 144.31 L 178.70 143.40 C 179.09 142.54 178.71 141.53 177.86 141.14 C 177.00 140.75 175.99 141.13 175.60 141.98 Z M 175.22 142.82 L 174.76 143.73 C 174.33 144.57 174.66 145.59 175.50 146.02 C 176.33 146.45 177.36 146.12 177.79 145.28 L 178.25 144.37 C 178.68 143.54 178.35 142.51 177.51 142.08 C 176.68 141.65 175.65 141.98 175.22 142.82 Z M 174.78 143.68 L 174.28 144.59 C 173.82 145.41 174.12 146.45 174.94 146.90 C 175.76 147.36 176.80 147.07 177.26 146.24 L 177.76 145.33 C 178.22 144.51 177.92 143.47 177.10 143.02 C 176.28 142.56 175.24 142.85 174.78 143.68 Z M 174.30 144.55 L 173.77 145.45 C 173.29 146.26 173.56 147.31 174.37 147.78 C 175.18 148.26 176.23 147.99 176.71 147.18 L 177.24 146.28 C 177.72 145.47 177.44 144.42 176.63 143.94 C 175.82 143.47 174.78 143.74 174.30 144.55 Z M 173.79 145.42 L 173.24 146.31 C 172.74 147.11 172.99 148.16 173.80 148.66 C 174.60 149.15 175.65 148.90 176.14 148.10 L 176.69 147.21 C 177.18 146.41 176.93 145.36 176.13 144.86 C 175.33 144.37 174.28 144.62 173.79 145.42 Z M 173.25 146.29 L 172.70 147.15 C 172.19 147.95 172.43 149.00 173.22 149.51 C 174.02 150.02 175.07 149.78 175.58 148.99 L 176.13 148.12 C 176.64 147.33 176.40 146.27 175.61 145.77 C 174.81 145.26 173.76 145.49 173.25 146.29 Z M 172.71 147.13 L 172.17 147.96 C 171.65 148.75 171.87 149.81 172.66 150.32 C 173.45 150.84 174.51 150.62 175.03 149.83 L 175.57 149.01 C 176.08 148.22 175.86 147.16 175.07 146.64 C 174.29 146.12 173.23 146.35 172.71 147.13 Z M 172.18 147.94 L 171.66 148.71 C 171.14 149.50 171.35 150.56 172.13 151.08 C 172.92 151.61 173.98 151.40 174.50 150.61 L 175.02 149.84 C 175.54 149.06 175.33 148.00 174.55 147.48 C 173.76 146.95 172.70 147.16 172.18 147.94 Z M 171.67 148.70 L 171.06 149.59 C 170.53 150.37 170.73 151.44 171.51 151.97 C 172.29 152.50 173.36 152.30 173.89 151.52 L 174.50 150.63 C 175.03 149.85 174.82 148.78 174.05 148.25 C 173.27 147.72 172.20 147.92 171.67 148.70 Z M 171.07 149.58 L 170.48 150.44 C 169.94 151.21 170.13 152.28 170.91 152.82 C 171.68 153.35 172.75 153.16 173.28 152.39 L 173.88 151.53 C 174.42 150.76 174.22 149.69 173.45 149.15 C 172.68 148.61 171.61 148.81 171.07 149.58 Z M 170.49 150.43 L 169.94 151.20 C 169.39 151.97 169.58 153.04 170.35 153.58 C 171.12 154.13 172.18 153.95 172.73 153.18 L 173.28 152.40 C 173.82 151.63 173.64 150.56 172.87 150.02 C 172.10 149.47 171.03 149.66 170.49 150.43 Z M 169.94 151.19 L 169.41 151.93 C 168.86 152.70 169.04 153.77 169.81 154.32 C 170.57 154.87 171.64 154.69 172.19 153.92 L 172.72 153.18 C 173.27 152.42 173.09 151.35 172.33 150.80 C 171.56 150.25 170.49 150.43 169.94 151.19 Z M 169.42 151.93 L 168.85 152.71 C 168.30 153.47 168.47 154.54 169.24 155.09 C 170.00 155.65 171.07 155.47 171.62 154.71 L 172.19 153.93 C 172.74 153.16 172.57 152.09 171.80 151.54 C 171.04 150.99 169.97 151.16 169.42 151.93 Z M 168.86 152.71 L 168.27 153.51 C 167.72 154.28 167.89 155.34 168.66 155.89 C 169.42 156.45 170.49 156.28 171.04 155.51 L 171.62 154.71 C 172.17 153.95 172.00 152.88 171.24 152.33 C 170.47 151.77 169.41 151.94 168.86 152.71 Z M 168.27 153.51 L 167.68 154.33 C 167.13 155.09 167.30 156.16 168.07 156.71 C 168.83 157.26 169.90 157.09 170.45 156.33 L 171.04 155.51 C 171.59 154.75 171.42 153.68 170.66 153.13 C 169.89 152.58 168.83 152.75 168.27 153.51 Z M 167.68 154.33 L 167.09 155.16 C 166.54 155.92 166.72 156.99 167.48 157.54 C 168.25 158.09 169.31 157.91 169.86 157.15 L 170.45 156.32 C 171.00 155.56 170.83 154.49 170.06 153.94 C 169.30 153.39 168.23 153.57 167.68 154.33 Z M 167.09 155.16 L 166.53 155.95 C 165.98 156.71 166.16 157.78 166.93 158.32 C 167.69 158.87 168.76 158.69 169.30 157.93 L 169.86 157.14 C 170.41 156.37 170.23 155.31 169.47 154.76 C 168.70 154.22 167.64 154.39 167.09 155.16 Z M 166.53 155.95 L 165.96 156.76 C 165.41 157.53 165.60 158.59 166.36 159.13 C 167.13 159.68 168.19 159.49 168.73 158.73 L 169.31 157.92 C 169.85 157.15 169.67 156.09 168.90 155.55 C 168.13 155.00 167.07 155.19 166.53 155.95 Z M 165.95 156.77 L 165.37 157.60 C 164.83 158.37 165.02 159.43 165.78 159.97 C 166.55 160.51 167.61 160.32 168.15 159.55 L 168.74 158.72 C 169.28 157.95 169.09 156.89 168.32 156.35 C 167.55 155.81 166.49 156.00 165.95 156.77 Z M 165.37 157.61 L 164.78 158.46 C 164.24 159.23 164.43 160.29 165.20 160.82 C 165.98 161.35 167.03 161.16 167.57 160.39 L 168.16 159.55 C 168.69 158.78 168.50 157.72 167.73 157.18 C 166.96 156.65 165.90 156.84 165.37 157.61 Z M 164.78 158.47 L 164.21 159.29 C 163.68 160.06 163.88 161.11 164.65 161.64 C 165.42 162.17 166.47 161.98 167.00 161.21 L 167.57 160.39 C 168.10 159.62 167.90 158.56 167.13 158.03 C 166.36 157.50 165.31 157.69 164.78 158.47 Z M 164.21 159.29 L 163.64 160.12 C 163.11 160.89 163.31 161.95 164.08 162.48 C 164.85 163.00 165.90 162.81 166.43 162.04 L 167.00 161.20 C 167.53 160.43 167.34 159.38 166.56 158.85 C 165.79 158.32 164.74 158.52 164.21 159.29 Z M 163.64 160.12 L 163.07 160.96 C 162.55 161.73 162.74 162.78 163.51 163.30 C 164.28 163.83 165.33 163.64 165.86 162.87 L 166.43 162.03 C 166.96 161.27 166.76 160.21 165.99 159.69 C 165.22 159.16 164.17 159.35 163.64 160.12 Z M 163.08 160.95 L 162.52 161.77 C 161.99 162.54 162.18 163.59 162.95 164.12 C 163.71 164.64 164.76 164.45 165.29 163.68 L 165.86 162.87 C 166.38 162.10 166.19 161.05 165.42 160.52 C 164.66 159.99 163.61 160.19 163.08 160.95 Z M 162.52 161.77 L 161.94 162.61 C 161.40 163.37 161.59 164.42 162.36 164.95 C 163.12 165.48 164.17 165.30 164.70 164.53 L 165.29 163.69 C 165.82 162.93 165.63 161.88 164.87 161.35 C 164.10 160.81 163.05 161.00 162.52 161.77 Z M 161.94 162.60 L 161.37 163.42 C 160.83 164.18 161.01 165.23 161.77 165.77 C 162.53 166.30 163.58 166.12 164.11 165.36 L 164.69 164.54 C 165.23 163.78 165.04 162.73 164.28 162.20 C 163.53 161.66 162.48 161.84 161.94 162.60 Z M 161.37 163.42 L 160.80 164.22 C 160.26 164.98 160.44 166.02 161.19 166.56 C 161.95 167.10 162.99 166.92 163.53 166.17 L 164.11 165.37 C 164.64 164.61 164.47 163.56 163.71 163.03 C 162.96 162.49 161.91 162.66 161.37 163.42 Z M 160.81 164.21 L 160.23 165.01 C 159.69 165.76 159.86 166.81 160.61 167.35 C 161.36 167.89 162.41 167.72 162.95 166.97 L 163.52 166.18 C 164.06 165.43 163.90 164.38 163.15 163.84 C 162.40 163.30 161.35 163.46 160.81 164.21 Z M 160.24 165.00 L 159.65 165.81 C 159.11 166.55 159.27 167.60 160.01 168.15 C 160.75 168.69 161.80 168.53 162.35 167.79 L 162.94 166.98 C 163.48 166.23 163.32 165.19 162.58 164.64 C 161.84 164.10 160.79 164.26 160.24 165.00 Z M 159.66 165.81 L 159.06 166.61 C 158.51 167.35 158.67 168.40 159.41 168.95 C 160.15 169.49 161.19 169.34 161.74 168.60 L 162.34 167.79 C 162.89 167.05 162.73 166.01 161.99 165.46 C 161.25 164.91 160.21 165.07 159.66 165.81 Z M 159.07 166.61 L 158.47 167.41 C 157.92 168.15 158.07 169.19 158.81 169.74 C 159.55 170.29 160.59 170.14 161.14 169.40 L 161.74 168.60 C 162.28 167.86 162.13 166.82 161.39 166.27 C 160.66 165.72 159.62 165.87 159.07 166.61 Z M 158.47 167.42 L 157.88 168.21 C 157.33 168.95 157.48 169.99 158.22 170.54 C 158.95 171.08 159.99 170.93 160.54 170.20 L 161.13 169.40 C 161.68 168.66 161.53 167.62 160.80 167.08 C 160.06 166.53 159.02 166.68 158.47 167.42 Z M 157.88 168.22 L 157.28 169.03 C 156.73 169.76 156.88 170.80 157.62 171.35 C 158.35 171.89 159.39 171.74 159.93 171.01 L 160.54 170.19 C 161.08 169.46 160.93 168.42 160.20 167.88 C 159.46 167.33 158.43 167.48 157.88 168.22 Z M 157.28 169.03 L 156.68 169.84 C 156.14 170.57 156.29 171.60 157.02 172.15 C 157.75 172.69 158.79 172.54 159.33 171.81 L 159.93 171.00 C 160.47 170.27 160.32 169.24 159.59 168.69 C 158.86 168.15 157.82 168.30 157.28 169.03 Z M 156.69 169.84 L 156.09 170.63 C 155.55 171.36 155.70 172.39 156.43 172.94 C 157.16 173.48 158.19 173.33 158.73 172.60 L 159.33 171.81 C 159.87 171.08 159.72 170.05 158.99 169.50 C 158.26 168.96 157.23 169.11 156.69 169.84 Z M 156.10 170.63 L 155.50 171.43 C 154.96 172.15 155.10 173.18 155.83 173.73 C 156.55 174.27 157.58 174.13 158.13 173.40 L 158.72 172.61 C 159.27 171.88 159.12 170.85 158.40 170.31 C 157.68 169.76 156.65 169.91 156.10 170.63 Z M 155.51 171.42 L 154.89 172.23 C 154.35 172.95 154.48 173.98 155.20 174.53 C 155.92 175.08 156.95 174.94 157.50 174.22 L 158.12 173.41 C 158.66 172.69 158.53 171.66 157.81 171.11 C 157.09 170.56 156.06 170.70 155.51 171.42 Z M 154.90 172.23 L 154.29 173.02 C 153.74 173.73 153.87 174.76 154.58 175.31 C 155.29 175.86 156.32 175.73 156.87 175.02 L 157.49 174.22 C 158.04 173.51 157.91 172.49 157.19 171.93 C 156.48 171.38 155.46 171.51 154.90 172.23 Z M 154.30 173.01 L 153.69 173.78 C 153.14 174.49 153.26 175.51 153.96 176.07 C 154.67 176.63 155.69 176.51 156.25 175.80 L 156.86 175.03 C 157.41 174.32 157.29 173.30 156.59 172.74 C 155.88 172.19 154.86 172.31 154.30 173.01 Z M 153.71 173.77 L 153.08 174.55 C 152.52 175.25 152.63 176.27 153.33 176.83 C 154.03 177.39 155.05 177.28 155.61 176.58 L 156.23 175.81 C 156.80 175.11 156.69 174.09 155.99 173.53 C 155.29 172.97 154.27 173.08 153.71 173.77 Z M 153.10 174.54 L 152.46 175.31 C 151.90 175.99 151.99 177.01 152.68 177.58 C 153.37 178.15 154.39 178.05 154.96 177.37 L 155.59 176.60 C 156.16 175.91 156.06 174.89 155.38 174.32 C 154.69 173.75 153.67 173.85 153.10 174.54 Z M 152.48 175.30 L 151.84 176.05 C 151.27 176.73 151.35 177.75 152.03 178.32 C 152.71 178.90 153.72 178.81 154.30 178.13 L 154.94 177.38 C 155.51 176.70 155.43 175.68 154.75 175.11 C 154.07 174.53 153.06 174.62 152.48 175.30 Z M 151.86 176.04 L 151.21 176.79 C 150.63 177.46 150.70 178.47 151.37 179.05 C 152.04 179.63 153.05 179.56 153.63 178.89 L 154.28 178.14 C 154.86 177.47 154.79 176.46 154.12 175.88 C 153.45 175.30 152.44 175.37 151.86 176.04 Z M 151.23 176.78 L 150.59 177.49 C 150.01 178.15 150.07 179.16 150.73 179.75 C 151.38 180.33 152.39 180.28 152.98 179.62 L 153.62 178.90 C 154.20 178.24 154.14 177.23 153.48 176.65 C 152.82 176.06 151.81 176.12 151.23 176.78 Z M 150.63 177.46 L 149.95 178.18 C 149.35 178.82 149.38 179.83 150.02 180.43 C 150.66 181.03 151.67 181.00 152.27 180.36 L 152.95 179.64 C 153.55 179.00 153.52 178.00 152.88 177.39 C 152.24 176.79 151.23 176.82 150.63 177.46 Z M 150.00 178.14 L 149.26 178.86 C 148.64 179.48 148.63 180.48 149.24 181.11 C 149.86 181.73 150.86 181.74 151.49 181.13 L 152.22 180.40 C 152.85 179.79 152.86 178.79 152.24 178.16 C 151.63 177.54 150.63 177.53 150.00 178.14 Z M 149.32 178.82 L 148.55 179.51 C 147.90 180.09 147.84 181.09 148.42 181.74 C 149.00 182.39 150.00 182.45 150.65 181.87 L 151.43 181.18 C 152.08 180.60 152.14 179.60 151.56 178.95 C 150.98 178.29 149.98 178.24 149.32 178.82 Z M 148.62 179.45 L 147.82 180.09 C 147.14 180.64 147.03 181.63 147.57 182.31 C 148.11 182.99 149.10 183.10 149.79 182.56 L 150.58 181.92 C 151.26 181.37 151.38 180.38 150.83 179.70 C 150.29 179.02 149.30 178.91 148.62 179.45 Z M 147.90 180.04 L 147.06 180.62 C 146.35 181.12 146.18 182.10 146.68 182.82 C 147.18 183.53 148.16 183.70 148.87 183.20 L 149.71 182.61 C 150.42 182.11 150.59 181.13 150.09 180.42 C 149.59 179.71 148.61 179.54 147.90 180.04 Z M 147.17 180.56 L 146.32 181.06 C 145.57 181.50 145.32 182.46 145.76 183.21 C 146.21 183.96 147.17 184.21 147.91 183.76 L 148.76 183.26 C 149.51 182.82 149.76 181.86 149.32 181.11 C 148.88 180.37 147.91 180.12 147.17 180.56 Z M 146.47 180.98 L 145.55 181.40 C 144.76 181.75 144.41 182.68 144.77 183.47 C 145.12 184.26 146.05 184.61 146.84 184.26 L 147.76 183.84 C 148.55 183.49 148.90 182.56 148.55 181.77 C 148.19 180.98 147.26 180.63 146.47 180.98 Z M 145.76 181.32 L 144.78 181.61 C 143.94 181.84 143.46 182.71 143.70 183.54 C 143.94 184.37 144.81 184.85 145.64 184.61 L 146.63 184.33 C 147.46 184.09 147.94 183.22 147.70 182.39 C 147.46 181.56 146.59 181.08 145.76 181.32 Z M 144.98 181.56 L 144.02 181.71 C 143.16 181.83 142.57 182.63 142.70 183.48 C 142.83 184.34 143.62 184.93 144.48 184.80 L 145.44 184.66 C 146.29 184.53 146.88 183.73 146.75 182.88 C 146.63 182.03 145.83 181.44 144.98 181.56 Z M 144.17 181.69 L 143.23 181.74 C 142.37 181.78 141.70 182.51 141.74 183.37 C 141.79 184.24 142.52 184.90 143.38 184.86 L 144.32 184.81 C 145.18 184.77 145.85 184.04 145.81 183.18 C 145.76 182.32 145.03 181.65 144.17 181.69 Z M 143.38 181.74 L 142.46 181.70 C 141.60 181.66 140.87 182.32 140.83 183.18 C 140.79 184.04 141.45 184.78 142.31 184.82 L 143.23 184.86 C 144.09 184.90 144.82 184.23 144.86 183.37 C 144.90 182.51 144.24 181.78 143.38 181.74 Z M 142.74 181.73 L 141.81 181.52 C 140.97 181.33 140.13 181.85 139.94 182.69 C 139.74 183.53 140.27 184.37 141.11 184.56 L 142.04 184.78 C 142.88 184.97 143.71 184.45 143.91 183.61 C 144.10 182.77 143.58 181.93 142.74 181.73 Z M 142.16 181.65 L 141.20 181.16 C 140.43 180.78 139.49 181.09 139.10 181.86 C 138.71 182.63 139.02 183.57 139.79 183.95 L 140.76 184.44 C 141.53 184.82 142.46 184.51 142.85 183.74 C 143.24 182.97 142.93 182.04 142.16 181.65 Z M 141.46 181.33 L 140.74 180.77 C 140.06 180.23 139.08 180.35 138.55 181.03 C 138.02 181.71 138.14 182.69 138.81 183.22 L 139.53 183.79 C 140.21 184.32 141.19 184.20 141.72 183.52 C 142.26 182.84 142.14 181.86 141.46 181.33 Z M 140.87 180.88 L 140.22 180.24 C 139.60 179.64 138.61 179.65 138.01 180.27 C 137.41 180.89 137.42 181.87 138.04 182.48 L 138.69 183.11 C 139.30 183.71 140.29 183.70 140.89 183.09 C 141.50 182.47 141.48 181.48 140.87 180.88 Z M 140.29 180.32 L 139.62 179.58 C 139.05 178.94 138.06 178.88 137.42 179.46 C 136.78 180.04 136.73 181.02 137.30 181.67 L 137.97 182.40 C 138.54 183.04 139.53 183.10 140.17 182.52 C 140.81 181.94 140.86 180.96 140.29 180.32 Z M 139.66 179.63 L 138.99 178.81 C 138.44 178.15 137.46 178.06 136.79 178.61 C 136.13 179.16 136.04 180.14 136.59 180.80 L 137.26 181.62 C 137.81 182.28 138.80 182.37 139.46 181.82 C 140.12 181.27 140.22 180.29 139.66 179.63 Z M 139.01 178.84 L 138.33 177.98 C 137.79 177.30 136.81 177.19 136.14 177.72 C 135.46 178.26 135.35 179.24 135.88 179.92 L 136.57 180.78 C 137.10 181.45 138.08 181.57 138.76 181.03 C 139.43 180.50 139.55 179.51 139.01 178.84 Z M 138.34 177.99 L 137.88 177.41 C 137.35 176.73 136.37 176.60 135.69 177.13 C 135.01 177.66 134.89 178.65 135.42 179.33 L 135.88 179.91 C 136.40 180.59 137.39 180.71 138.07 180.18 C 138.75 179.65 138.87 178.67 138.34 177.99 Z"
      fill="black"
      fill-rule="nonzero" /><path d="M 130.67 143.16 L 131.65 143.09 C 132.57 143.03 133.27 142.23 133.21 141.30 C 133.15 140.38 132.35 139.68 131.42 139.75 L 130.44 139.81 C 129.51 139.88 128.82 140.68 128.88 141.60 C 128.94 142.52 129.74 143.22 130.67 143.16 Z M 131.57 143.13 L 132.56 143.11 C 133.50 143.10 134.26 142.31 134.24 141.37 C 134.22 140.42 133.44 139.67 132.49 139.69 L 131.50 139.71 C 130.56 139.72 129.81 140.50 129.82 141.45 C 129.84 142.40 130.62 143.15 131.57 143.13 Z M 132.39 143.15 L 133.39 143.23 C 134.35 143.30 135.20 142.58 135.27 141.62 C 135.35 140.65 134.63 139.81 133.67 139.73 L 132.66 139.65 C 131.70 139.58 130.86 140.30 130.78 141.26 C 130.70 142.22 131.42 143.07 132.39 143.15 Z M 133.15 143.22 L 134.10 143.43 C 135.06 143.63 136.01 143.02 136.22 142.06 C 136.42 141.10 135.81 140.15 134.85 139.94 L 133.90 139.74 C 132.94 139.53 131.99 140.14 131.79 141.10 C 131.58 142.07 132.19 143.01 133.15 143.22 Z M 133.89 143.38 L 134.78 143.69 C 135.72 144.01 136.74 143.52 137.06 142.58 C 137.39 141.64 136.89 140.62 135.95 140.29 L 135.06 139.98 C 134.12 139.66 133.10 140.16 132.77 141.10 C 132.45 142.04 132.95 143.06 133.89 143.38 Z M 134.63 143.64 L 135.55 144.05 C 136.46 144.45 137.53 144.03 137.93 143.12 C 138.33 142.21 137.92 141.14 137.00 140.74 L 136.09 140.34 C 135.18 139.94 134.11 140.35 133.71 141.26 C 133.31 142.18 133.72 143.24 134.63 143.64 Z M 135.45 144.01 L 136.39 144.49 C 137.28 144.94 138.38 144.58 138.83 143.69 C 139.29 142.80 138.93 141.70 138.03 141.25 L 137.10 140.77 C 136.20 140.32 135.11 140.68 134.66 141.57 C 134.20 142.47 134.56 143.56 135.45 144.01 Z M 136.34 144.47 L 137.27 144.98 C 138.15 145.46 139.26 145.13 139.74 144.25 C 140.23 143.37 139.90 142.26 139.02 141.78 L 138.09 141.27 C 137.20 140.79 136.09 141.11 135.61 141.99 C 135.13 142.88 135.45 143.99 136.34 144.47 Z M 137.24 144.97 L 138.13 145.47 C 139.01 145.97 140.13 145.66 140.62 144.78 C 141.12 143.90 140.81 142.79 139.94 142.29 L 139.04 141.79 C 138.16 141.29 137.05 141.60 136.55 142.48 C 136.05 143.35 136.36 144.47 137.24 144.97 Z M 138.12 145.46 L 139.00 145.98 C 139.88 146.49 141.00 146.19 141.51 145.32 C 142.01 144.44 141.72 143.32 140.84 142.82 L 139.95 142.30 C 139.08 141.79 137.96 142.09 137.45 142.96 C 136.95 143.84 137.24 144.96 138.12 145.46 Z M 138.99 145.97 L 139.85 146.48 C 140.72 147.00 141.85 146.71 142.36 145.84 C 142.88 144.97 142.59 143.85 141.72 143.33 L 140.86 142.82 C 139.99 142.31 138.86 142.60 138.35 143.47 C 137.83 144.34 138.12 145.46 138.99 145.97 Z M 139.84 146.48 L 140.66 146.97 C 141.53 147.49 142.65 147.21 143.17 146.34 C 143.70 145.47 143.41 144.35 142.55 143.83 L 141.73 143.34 C 140.86 142.82 139.74 143.10 139.22 143.97 C 138.69 144.83 138.98 145.96 139.84 146.48 Z M 140.65 146.97 L 141.55 147.51 C 142.42 148.04 143.55 147.76 144.07 146.90 C 144.60 146.03 144.32 144.90 143.46 144.38 L 142.55 143.83 C 141.69 143.30 140.56 143.58 140.04 144.45 C 139.51 145.31 139.79 146.44 140.65 146.97 Z M 141.54 147.51 L 142.40 148.03 C 143.26 148.56 144.39 148.30 144.92 147.43 C 145.45 146.57 145.18 145.44 144.32 144.91 L 143.47 144.38 C 142.60 143.85 141.47 144.12 140.94 144.98 C 140.41 145.85 140.68 146.98 141.54 147.51 Z M 142.38 148.03 L 143.20 148.54 C 144.05 149.08 145.19 148.82 145.73 147.96 C 146.27 147.10 146.01 145.97 145.15 145.43 L 144.33 144.92 C 143.48 144.38 142.34 144.64 141.80 145.49 C 141.26 146.35 141.52 147.49 142.38 148.03 Z M 143.18 148.53 L 143.98 149.04 C 144.84 149.59 145.97 149.34 146.52 148.49 C 147.07 147.63 146.82 146.50 145.97 145.95 L 145.16 145.43 C 144.31 144.89 143.17 145.14 142.62 145.99 C 142.08 146.84 142.33 147.98 143.18 148.53 Z M 143.97 149.04 L 144.76 149.55 C 145.61 150.11 146.75 149.87 147.31 149.02 C 147.86 148.17 147.62 147.03 146.77 146.47 L 145.98 145.96 C 145.13 145.40 143.99 145.64 143.44 146.49 C 142.88 147.34 143.12 148.48 143.97 149.04 Z M 144.76 149.55 L 145.58 150.09 C 146.43 150.65 147.57 150.42 148.13 149.57 C 148.69 148.72 148.45 147.58 147.60 147.02 L 146.78 146.48 C 145.93 145.92 144.79 146.15 144.23 147.00 C 143.67 147.85 143.91 148.99 144.76 149.55 Z M 145.58 150.09 L 146.44 150.66 C 147.29 151.22 148.43 150.99 148.99 150.14 C 149.55 149.30 149.32 148.15 148.47 147.59 L 147.61 147.02 C 146.76 146.46 145.62 146.69 145.06 147.54 C 144.50 148.39 144.73 149.53 145.58 150.09 Z M 146.44 150.66 L 147.30 151.23 C 148.14 151.79 149.29 151.56 149.85 150.71 C 150.41 149.86 150.17 148.72 149.33 148.16 L 148.47 147.59 C 147.62 147.03 146.48 147.26 145.92 148.11 C 145.36 148.96 145.59 150.10 146.44 150.66 Z M 147.30 151.23 L 148.10 151.76 C 148.95 152.32 150.09 152.08 150.65 151.23 C 151.21 150.39 150.97 149.24 150.13 148.68 L 149.32 148.16 C 148.48 147.60 147.33 147.83 146.77 148.68 C 146.21 149.53 146.45 150.67 147.30 151.23 Z M 148.10 151.76 L 148.93 152.30 C 149.78 152.86 150.92 152.63 151.48 151.78 C 152.04 150.93 151.80 149.79 150.95 149.23 L 150.13 148.68 C 149.28 148.12 148.13 148.36 147.57 149.21 C 147.02 150.06 147.25 151.20 148.10 151.76 Z M 148.92 152.30 L 149.78 152.86 C 150.62 153.43 151.77 153.19 152.33 152.34 C 152.89 151.50 152.65 150.35 151.81 149.79 L 150.96 149.23 C 150.11 148.67 148.96 148.90 148.40 149.75 C 147.84 150.60 148.08 151.74 148.92 152.30 Z M 149.77 152.86 L 150.64 153.44 C 151.49 154.00 152.63 153.77 153.19 152.92 C 153.75 152.08 153.52 150.93 152.68 150.37 L 151.81 149.79 C 150.96 149.23 149.82 149.46 149.26 150.31 C 148.69 151.16 148.92 152.30 149.77 152.86 Z M 150.64 153.44 L 151.45 153.98 C 152.30 154.55 153.44 154.32 154.01 153.48 C 154.57 152.63 154.35 151.49 153.50 150.92 L 152.68 150.37 C 151.84 149.81 150.69 150.04 150.13 150.88 C 149.56 151.73 149.79 152.87 150.64 153.44 Z M 151.45 153.98 L 152.26 154.53 C 153.11 155.10 154.25 154.87 154.82 154.03 C 155.39 153.18 155.16 152.04 154.32 151.47 L 153.50 150.92 C 152.66 150.36 151.52 150.58 150.95 151.42 C 150.38 152.27 150.61 153.41 151.45 153.98 Z M 152.26 154.53 L 153.09 155.08 C 153.93 155.65 155.07 155.43 155.64 154.59 C 156.21 153.75 155.99 152.60 155.15 152.03 L 154.32 151.48 C 153.48 150.91 152.34 151.13 151.77 151.97 C 151.20 152.81 151.42 153.96 152.26 154.53 Z M 153.08 155.08 L 153.92 155.65 C 154.76 156.22 155.90 156.01 156.48 155.17 C 157.05 154.33 156.83 153.18 155.99 152.61 L 155.15 152.04 C 154.31 151.47 153.17 151.68 152.60 152.52 C 152.02 153.36 152.24 154.51 153.08 155.08 Z M 153.91 155.65 L 154.76 156.23 C 155.60 156.80 156.75 156.59 157.32 155.75 C 157.90 154.91 157.68 153.77 156.84 153.19 L 156.00 152.61 C 155.16 152.04 154.01 152.25 153.44 153.09 C 152.86 153.93 153.08 155.07 153.91 155.65 Z M 154.76 156.23 L 155.56 156.78 C 156.40 157.36 157.55 157.15 158.12 156.31 C 158.70 155.47 158.49 154.32 157.65 153.75 L 156.85 153.19 C 156.01 152.62 154.86 152.83 154.29 153.67 C 153.71 154.50 153.92 155.65 154.76 156.23 Z M 155.56 156.78 L 156.36 157.33 C 157.20 157.91 158.34 157.71 158.92 156.87 C 159.50 156.03 159.29 154.89 158.46 154.31 L 157.65 153.75 C 156.82 153.17 155.67 153.38 155.09 154.22 C 154.51 155.05 154.72 156.20 155.56 156.78 Z M 156.36 157.33 L 157.17 157.90 C 158.01 158.48 159.15 158.28 159.73 157.44 C 160.32 156.61 160.11 155.46 159.28 154.88 L 158.46 154.31 C 157.63 153.73 156.48 153.94 155.90 154.77 C 155.32 155.60 155.52 156.75 156.36 157.33 Z M 157.17 157.90 L 158.00 158.48 C 158.83 159.06 159.97 158.86 160.56 158.03 C 161.14 157.19 160.94 156.05 160.11 155.46 L 159.28 154.88 C 158.45 154.30 157.30 154.50 156.72 155.33 C 156.14 156.16 156.34 157.31 157.17 157.90 Z M 157.99 158.47 L 158.83 159.06 C 159.66 159.65 160.81 159.45 161.39 158.62 C 161.98 157.79 161.78 156.64 160.95 156.06 L 160.11 155.47 C 159.28 154.88 158.13 155.08 157.55 155.91 C 156.96 156.74 157.16 157.89 157.99 158.47 Z M 158.83 159.06 L 159.64 159.64 C 160.47 160.23 161.62 160.03 162.21 159.20 C 162.79 158.38 162.60 157.23 161.77 156.64 L 160.96 156.06 C 160.13 155.47 158.98 155.67 158.39 156.50 C 157.80 157.32 158.00 158.47 158.83 159.06 Z M 159.64 159.64 L 160.43 160.20 C 161.25 160.79 162.40 160.60 162.99 159.77 C 163.58 158.94 163.39 157.80 162.56 157.21 L 161.77 156.64 C 160.95 156.05 159.80 156.25 159.21 157.07 C 158.62 157.90 158.81 159.05 159.64 159.64 Z M 160.42 160.20 L 161.22 160.77 C 162.05 161.36 163.20 161.17 163.79 160.34 C 164.38 159.52 164.19 158.37 163.36 157.78 L 162.56 157.21 C 161.74 156.62 160.59 156.81 160.00 157.63 C 159.41 158.46 159.60 159.61 160.42 160.20 Z M 161.22 160.77 L 162.04 161.35 C 162.86 161.94 164.01 161.75 164.60 160.93 C 165.19 160.10 165.00 158.95 164.18 158.36 L 163.36 157.78 C 162.54 157.19 161.39 157.38 160.80 158.20 C 160.21 159.03 160.40 160.18 161.22 160.77 Z M 162.04 161.35 L 162.87 161.94 C 163.69 162.53 164.84 162.34 165.43 161.52 C 166.02 160.69 165.83 159.55 165.00 158.96 L 164.18 158.36 C 163.35 157.77 162.20 157.96 161.61 158.79 C 161.02 159.61 161.21 160.76 162.04 161.35 Z M 162.87 161.94 L 163.71 162.54 C 164.53 163.13 165.68 162.94 166.27 162.12 C 166.86 161.29 166.67 160.14 165.84 159.55 L 165.00 158.95 C 164.18 158.37 163.03 158.56 162.44 159.38 C 161.85 160.21 162.04 161.36 162.87 161.94 Z M 163.71 162.55 L 164.53 163.13 C 165.36 163.72 166.50 163.52 167.09 162.69 C 167.68 161.87 167.48 160.72 166.66 160.13 L 165.84 159.55 C 165.01 158.97 163.87 159.16 163.28 159.99 C 162.69 160.81 162.89 161.96 163.71 162.55 Z M 164.53 163.13 L 165.34 163.70 C 166.17 164.28 167.31 164.09 167.90 163.26 C 168.48 162.43 168.29 161.29 167.46 160.70 L 166.65 160.13 C 165.83 159.55 164.68 159.74 164.10 160.57 C 163.51 161.40 163.71 162.54 164.53 163.13 Z M 165.34 163.70 L 166.16 164.27 C 166.98 164.86 168.13 164.66 168.71 163.83 C 169.30 163.01 169.10 161.86 168.27 161.28 L 167.46 160.70 C 166.63 160.12 165.49 160.32 164.90 161.14 C 164.32 161.97 164.51 163.12 165.34 163.70 Z M 166.16 164.27 L 166.98 164.85 C 167.81 165.44 168.95 165.24 169.53 164.41 C 170.12 163.58 169.92 162.44 169.09 161.86 L 168.27 161.28 C 167.44 160.69 166.30 160.89 165.72 161.72 C 165.13 162.55 165.33 163.69 166.16 164.27 Z M 166.98 164.85 L 167.80 165.43 C 168.63 166.02 169.77 165.82 170.36 164.99 C 170.94 164.16 170.74 163.02 169.91 162.44 L 169.09 161.86 C 168.26 161.27 167.12 161.47 166.54 162.30 C 165.95 163.13 166.15 164.27 166.98 164.85 Z M 167.80 165.43 L 168.63 166.01 C 169.45 166.60 170.60 166.40 171.18 165.57 C 171.76 164.75 171.57 163.61 170.74 163.02 L 169.91 162.44 C 169.09 161.86 167.95 162.05 167.36 162.88 C 166.78 163.71 166.98 164.85 167.80 165.43 Z M 168.63 166.01 L 169.45 166.59 C 170.27 167.18 171.41 166.98 172.00 166.16 C 172.58 165.33 172.39 164.19 171.56 163.61 L 170.74 163.03 C 169.92 162.44 168.78 162.64 168.19 163.46 C 167.61 164.29 167.80 165.43 168.63 166.01 Z M 169.45 166.59 L 170.25 167.17 C 171.08 167.75 172.22 167.56 172.80 166.73 C 173.39 165.91 173.20 164.77 172.37 164.19 L 171.56 163.61 C 170.74 163.03 169.60 163.22 169.02 164.04 C 168.43 164.86 168.62 166.01 169.45 166.59 Z M 170.25 167.16 L 171.06 167.74 C 171.88 168.32 173.02 168.13 173.61 167.31 C 174.19 166.49 174.00 165.35 173.18 164.76 L 172.37 164.19 C 171.55 163.60 170.41 163.79 169.83 164.61 C 169.24 165.44 169.43 166.58 170.25 167.16 Z M 171.06 167.74 L 171.87 168.32 C 172.69 168.90 173.83 168.71 174.42 167.89 C 175.00 167.07 174.81 165.93 173.99 165.34 L 173.18 164.77 C 172.36 164.18 171.22 164.37 170.64 165.19 C 170.05 166.01 170.24 167.15 171.06 167.74 Z M 171.87 168.31 L 172.68 168.89 C 173.50 169.48 174.64 169.29 175.23 168.47 C 175.81 167.65 175.62 166.51 174.80 165.93 L 173.99 165.35 C 173.17 164.76 172.03 164.95 171.45 165.77 C 170.86 166.59 171.05 167.73 171.87 168.31 Z M 172.68 168.89 L 173.50 169.48 C 174.32 170.07 175.46 169.88 176.04 169.06 C 176.63 168.24 176.44 167.10 175.62 166.51 L 174.80 165.93 C 173.99 165.34 172.85 165.53 172.26 166.35 C 171.67 167.17 171.86 168.31 172.68 168.89 Z M 173.50 169.48 L 174.32 170.07 C 175.14 170.65 176.28 170.47 176.87 169.65 C 177.45 168.83 177.26 167.69 176.45 167.11 L 175.62 166.52 C 174.80 165.93 173.66 166.12 173.08 166.94 C 172.49 167.75 172.68 168.89 173.50 169.48 Z M 174.32 170.07 L 175.15 170.66 C 175.97 171.25 177.11 171.06 177.69 170.24 C 178.28 169.42 178.09 168.29 177.27 167.70 L 176.44 167.11 C 175.63 166.52 174.49 166.71 173.90 167.53 C 173.32 168.34 173.51 169.48 174.32 170.07 Z M 175.16 170.66 L 175.99 171.26 C 176.81 171.84 177.94 171.65 178.53 170.84 C 179.11 170.02 178.92 168.88 178.11 168.30 L 177.27 167.70 C 176.46 167.12 175.32 167.31 174.73 168.12 C 174.15 168.94 174.34 170.08 175.16 170.66 Z M 175.99 171.26 L 176.82 171.85 C 177.64 172.43 178.77 172.25 179.36 171.43 C 179.94 170.61 179.75 169.48 178.94 168.90 L 178.10 168.30 C 177.29 167.72 176.15 167.91 175.57 168.72 C 174.99 169.54 175.17 170.67 175.99 171.26 Z M 176.82 171.85 L 177.65 172.44 C 178.46 173.02 179.60 172.83 180.18 172.02 C 180.76 171.20 180.57 170.07 179.76 169.49 L 178.93 168.90 C 178.12 168.31 176.99 168.50 176.40 169.32 C 175.82 170.13 176.01 171.27 176.82 171.85 Z M 177.65 172.44 L 178.46 173.02 C 179.27 173.60 180.40 173.41 180.99 172.60 C 181.57 171.78 181.38 170.65 180.57 170.07 L 179.76 169.49 C 178.94 168.91 177.81 169.09 177.23 169.91 C 176.65 170.72 176.83 171.85 177.65 172.44 Z M 178.46 173.01 L 179.25 173.58 C 180.06 174.16 181.19 173.97 181.77 173.16 C 182.35 172.35 182.17 171.22 181.35 170.63 L 180.57 170.07 C 179.75 169.49 178.62 169.68 178.04 170.49 C 177.46 171.30 177.65 172.43 178.46 173.01 Z M 179.25 173.58 L 180.05 174.15 C 180.86 174.73 181.99 174.55 182.57 173.73 C 183.15 172.92 182.97 171.79 182.16 171.21 L 181.35 170.64 C 180.54 170.06 179.41 170.24 178.83 171.05 C 178.25 171.87 178.44 172.99 179.25 173.58 Z M 180.05 174.15 L 180.92 174.77 C 181.73 175.36 182.86 175.17 183.44 174.36 C 184.03 173.55 183.84 172.42 183.03 171.84 L 182.16 171.21 C 181.35 170.63 180.22 170.82 179.64 171.63 C 179.06 172.44 179.24 173.57 180.05 174.15 Z M 180.92 174.77 L 181.76 175.37 C 182.57 175.95 183.69 175.77 184.27 174.96 C 184.86 174.16 184.67 173.03 183.87 172.45 L 183.03 171.85 C 182.22 171.26 181.10 171.45 180.51 172.25 C 179.93 173.06 180.12 174.19 180.92 174.77 Z M 181.75 175.37 L 182.55 175.95 C 183.36 176.53 184.49 176.35 185.07 175.55 C 185.65 174.74 185.47 173.62 184.67 173.03 L 183.87 172.45 C 183.06 171.87 181.94 172.05 181.35 172.85 C 180.77 173.66 180.95 174.78 181.75 175.37 Z M 182.55 175.94 L 183.32 176.51 C 184.12 177.09 185.25 176.92 185.83 176.12 C 186.42 175.32 186.25 174.19 185.45 173.61 L 184.68 173.04 C 183.87 172.45 182.75 172.63 182.16 173.43 C 181.58 174.23 181.75 175.35 182.55 175.94 Z M 183.31 176.50 L 184.06 177.05 C 184.86 177.65 185.98 177.48 186.57 176.68 C 187.17 175.89 187.00 174.76 186.20 174.17 L 185.46 173.62 C 184.66 173.02 183.53 173.19 182.94 173.99 C 182.35 174.78 182.52 175.91 183.31 176.50 Z M 184.05 177.04 L 184.88 177.67 C 185.67 178.26 186.79 178.11 187.39 177.32 C 187.98 176.53 187.83 175.40 187.04 174.81 L 186.21 174.18 C 185.42 173.58 184.30 173.74 183.70 174.53 C 183.10 175.32 183.26 176.45 184.05 177.04 Z M 184.87 177.65 L 185.68 178.28 C 186.47 178.88 187.59 178.74 188.19 177.95 C 188.80 177.17 188.65 176.05 187.86 175.44 L 187.05 174.82 C 186.26 174.21 185.14 174.36 184.54 175.15 C 183.94 175.93 184.08 177.05 184.87 177.65 Z M 185.67 178.27 L 186.46 178.89 C 187.24 179.49 188.36 179.36 188.97 178.58 C 189.58 177.80 189.44 176.68 188.66 176.07 L 187.87 175.45 C 187.10 174.85 185.97 174.99 185.37 175.76 C 184.76 176.54 184.90 177.66 185.67 178.27 Z M 186.46 178.88 L 187.22 179.48 C 187.99 180.09 189.11 179.96 189.72 179.19 C 190.33 178.42 190.20 177.30 189.43 176.68 L 188.67 176.08 C 187.90 175.47 186.78 175.60 186.17 176.37 C 185.55 177.14 185.68 178.27 186.46 178.88 Z M 187.21 179.47 L 187.97 180.08 C 188.73 180.69 189.85 180.57 190.47 179.80 C 191.08 179.03 190.96 177.91 190.19 177.30 L 189.44 176.69 C 188.67 176.08 187.55 176.20 186.94 176.97 C 186.32 177.74 186.44 178.86 187.21 179.47 Z M 187.96 180.07 L 188.79 180.74 C 189.55 181.36 190.67 181.24 191.29 180.48 C 191.90 179.72 191.79 178.60 191.03 177.98 L 190.20 177.31 C 189.44 176.69 188.32 176.81 187.70 177.57 C 187.08 178.33 187.20 179.45 187.96 180.07 Z M 188.78 180.73 L 189.56 181.37 C 190.32 181.99 191.44 181.88 192.06 181.13 C 192.68 180.37 192.57 179.26 191.82 178.63 L 191.03 177.99 C 190.28 177.37 189.16 177.48 188.54 178.23 C 187.92 178.99 188.03 180.10 188.78 180.73 Z M 189.56 181.36 L 190.30 181.98 C 191.05 182.60 192.16 182.50 192.79 181.76 C 193.41 181.01 193.31 179.89 192.56 179.27 L 191.82 178.65 C 191.07 178.02 189.96 178.12 189.33 178.87 C 188.71 179.62 188.81 180.73 189.56 181.36 Z M 190.29 181.97 L 191.00 182.57 C 191.74 183.20 192.86 183.11 193.49 182.37 C 194.12 181.63 194.03 180.51 193.28 179.88 L 192.57 179.28 C 191.83 178.65 190.72 178.74 190.09 179.48 C 189.46 180.22 189.55 181.33 190.29 181.97 Z M 190.99 182.55 L 191.71 183.18 C 192.44 183.81 193.55 183.74 194.19 183.01 C 194.82 182.27 194.75 181.16 194.01 180.53 L 193.30 179.90 C 192.56 179.26 191.45 179.34 190.82 180.07 C 190.18 180.80 190.26 181.91 190.99 182.55 Z M 191.68 183.15 L 192.40 183.80 C 193.11 184.45 194.22 184.39 194.87 183.68 C 195.52 182.96 195.47 181.85 194.75 181.20 L 194.04 180.55 C 193.32 179.90 192.21 179.96 191.56 180.67 C 190.91 181.39 190.97 182.50 191.68 183.15 Z M 192.37 183.76 L 193.12 184.48 C 193.82 185.14 194.92 185.12 195.59 184.42 C 196.25 183.72 196.23 182.62 195.53 181.95 L 194.78 181.24 C 194.08 180.57 192.98 180.60 192.31 181.30 C 191.65 181.99 191.67 183.10 192.37 183.76 Z M 193.09 184.45 L 193.78 185.14 C 194.46 185.82 195.57 185.82 196.25 185.14 C 196.93 184.46 196.93 183.36 196.25 182.68 L 195.56 181.99 C 194.88 181.31 193.77 181.30 193.09 181.98 C 192.41 182.66 192.41 183.77 193.09 184.45 Z M 193.75 185.09 L 194.38 185.77 C 195.03 186.47 196.13 186.51 196.83 185.85 C 197.53 185.20 197.57 184.10 196.91 183.40 L 196.28 182.72 C 195.63 182.02 194.53 181.99 193.83 182.64 C 193.13 183.29 193.09 184.39 193.75 185.09 Z M 194.32 185.69 L 194.95 186.45 C 195.56 187.18 196.66 187.28 197.39 186.66 C 198.12 186.05 198.22 184.96 197.60 184.22 L 196.97 183.47 C 196.36 182.74 195.27 182.64 194.53 183.26 C 193.80 183.87 193.71 184.96 194.32 185.69 Z M 194.88 186.34 L 195.48 187.18 C 196.03 187.96 197.11 188.13 197.89 187.58 C 198.66 187.02 198.84 185.94 198.28 185.17 L 197.68 184.33 C 197.12 183.55 196.04 183.38 195.27 183.93 C 194.50 184.49 194.32 185.57 194.88 186.34 Z M 195.39 187.05 L 195.94 187.98 C 196.42 188.80 197.47 189.07 198.30 188.59 C 199.12 188.11 199.39 187.06 198.91 186.24 L 198.37 185.31 C 197.89 184.49 196.83 184.21 196.01 184.69 C 195.19 185.17 194.91 186.22 195.39 187.05 Z M 195.86 187.81 L 196.28 188.73 C 196.67 189.59 197.68 189.98 198.55 189.59 C 199.41 189.19 199.79 188.18 199.40 187.31 L 198.99 186.40 C 198.60 185.54 197.58 185.15 196.72 185.54 C 195.85 185.93 195.47 186.95 195.86 187.81 Z M 196.23 188.59 L 196.54 189.48 C 196.85 190.37 197.83 190.84 198.72 190.53 C 199.61 190.22 200.08 189.24 199.77 188.35 L 199.45 187.46 C 199.14 186.57 198.17 186.10 197.28 186.41 C 196.38 186.72 195.91 187.70 196.23 188.59 Z M 196.51 189.37 L 196.78 190.32 C 197.03 191.22 197.97 191.75 198.87 191.50 C 199.78 191.25 200.31 190.31 200.05 189.40 L 199.79 188.46 C 199.54 187.55 198.60 187.03 197.70 187.28 C 196.79 187.53 196.26 188.47 196.51 189.37 Z M 196.77 190.24 L 196.99 191.22 C 197.20 192.13 198.11 192.70 199.02 192.49 C 199.93 192.29 200.50 191.38 200.29 190.47 L 200.07 189.48 C 199.86 188.57 198.95 188.00 198.04 188.21 C 197.13 188.42 196.56 189.33 196.77 190.24 Z M 196.99 191.17 L 197.18 192.18 C 197.36 193.09 198.24 193.69 199.16 193.51 C 200.07 193.33 200.67 192.45 200.49 191.53 L 200.29 190.52 C 200.12 189.61 199.23 189.01 198.32 189.19 C 197.41 189.37 196.81 190.25 196.99 191.17 Z M 197.19 192.14 L 197.37 193.17 C 197.52 194.08 198.39 194.69 199.30 194.53 C 200.22 194.38 200.83 193.51 200.67 192.60 L 200.49 191.57 C 200.33 190.66 199.46 190.05 198.55 190.20 C 197.64 190.36 197.03 191.23 197.19 192.14 Z M 197.37 193.16 L 197.47 193.76 C 197.62 194.67 198.48 195.29 199.39 195.14 C 200.30 194.98 200.92 194.12 200.76 193.21 L 200.66 192.61 C 200.51 191.70 199.65 191.09 198.74 191.24 C 197.83 191.39 197.22 192.25 197.37 193.16 Z"
      fill="black"
      fill-rule="nonzero" /></svg>