<svg xmlns="http://www.w3.org/2000/svg" width="300" height="300" viewBox="0 0 300 300">
<path d="M 127.33 131.88 L 127.07 132.70 C 126.75 133.71 127.31 134.79 128.32 135.11 C 129.33 135.43 130.41 134.87 130.73 133.86 L 130.99 133.05 C 131.31 132.04 130.75 130.96 129.74 130.64 C 128.73 130.31 127.65 130.87 127.33 131.88 Z M 127.05 132.72 L 126.79 133.59 C 126.47 134.61 127.05 135.69 128.07 136.00 C 129.09 136.31 130.17 135.73 130.48 134.71 L 130.75 133.84 C 131.06 132.82 130.48 131.74 129.46 131.43 C 128.44 131.12 127.36 131.70 127.05 132.72 Z M 126.76 133.62 L 126.48 134.60 C 126.19 135.64 126.80 136.71 127.83 137.00 C 128.87 137.30 129.94 136.69 130.23 135.66 L 130.51 134.68 C 130.80 133.64 130.20 132.57 129.16 132.28 C 128.13 131.98 127.05 132.59 126.76 133.62 Z M 126.46 134.64 L 126.17 135.79 C 125.90 136.84 126.53 137.91 127.58 138.18 C 128.63 138.44 129.70 137.81 129.97 136.76 L 130.26 135.62 C 130.53 134.57 129.89 133.50 128.84 133.23 C 127.80 132.96 126.73 133.60 126.46 134.64 Z M 126.15 135.82 L 125.93 136.76 C 125.68 137.81 126.34 138.87 127.40 139.12 C 128.45 139.37 129.51 138.72 129.76 137.66 L 129.98 136.73 C 130.23 135.67 129.58 134.61 128.52 134.36 C 127.46 134.11 126.40 134.77 126.15 135.82 Z M 125.92 136.78 L 125.71 137.73 C 125.47 138.80 126.14 139.85 127.20 140.09 C 128.27 140.32 129.32 139.65 129.56 138.59 L 129.77 137.63 C 130.01 136.57 129.34 135.52 128.28 135.28 C 127.21 135.04 126.16 135.71 125.92 136.78 Z M 125.70 137.75 L 125.49 138.75 C 125.26 139.82 125.94 140.87 127.01 141.10 C 128.07 141.33 129.12 140.65 129.35 139.58 L 129.56 138.58 C 129.79 137.51 129.11 136.46 128.05 136.23 C 126.98 136.01 125.93 136.68 125.70 137.75 Z M 125.49 138.77 L 125.27 139.79 C 125.05 140.86 125.74 141.90 126.80 142.13 C 127.87 142.35 128.92 141.66 129.14 140.59 L 129.35 139.57 C 129.57 138.50 128.89 137.46 127.82 137.23 C 126.75 137.01 125.71 137.70 125.49 138.77 Z M 125.27 139.80 L 125.06 140.82 C 124.85 141.89 125.54 142.93 126.61 143.15 C 127.68 143.36 128.72 142.67 128.94 141.60 L 129.14 140.58 C 129.36 139.51 128.67 138.47 127.60 138.26 C 126.53 138.04 125.49 138.73 125.27 139.80 Z M 125.06 140.82 L 124.87 141.80 C 124.65 142.88 125.35 143.92 126.42 144.13 C 127.49 144.34 128.53 143.64 128.75 142.57 L 128.94 141.59 C 129.15 140.52 128.46 139.48 127.38 139.27 C 126.31 139.06 125.27 139.75 125.06 140.82 Z M 124.86 141.81 L 124.66 142.88 C 124.45 143.95 125.15 144.99 126.22 145.20 C 127.29 145.41 128.33 144.71 128.54 143.64 L 128.75 142.57 C 128.96 141.49 128.26 140.46 127.18 140.25 C 126.11 140.04 125.07 140.74 124.86 141.81 Z M 124.65 142.89 L 124.46 143.94 C 124.25 145.01 124.96 146.05 126.03 146.25 C 127.11 146.45 128.14 145.75 128.35 144.67 L 128.54 143.63 C 128.75 142.55 128.04 141.52 126.96 141.31 C 125.89 141.11 124.86 141.82 124.65 142.89 Z M 124.45 143.95 L 124.28 144.93 C 124.08 146.01 124.80 147.04 125.87 147.23 C 126.95 147.42 127.98 146.71 128.17 145.63 L 128.35 144.66 C 128.54 143.58 127.83 142.55 126.75 142.36 C 125.68 142.16 124.65 142.88 124.45 143.95 Z M 124.27 144.95 L 124.11 145.88 C 123.93 146.96 124.66 147.98 125.73 148.16 C 126.81 148.35 127.83 147.62 128.02 146.54 L 128.18 145.61 C 128.36 144.53 127.63 143.51 126.56 143.33 C 125.48 143.15 124.46 143.87 124.27 144.95 Z M 124.11 145.90 L 123.97 146.81 C 123.80 147.89 124.54 148.91 125.62 149.08 C 126.70 149.25 127.71 148.51 127.88 147.43 L 128.02 146.52 C 128.19 145.44 127.45 144.43 126.37 144.26 C 125.29 144.09 124.28 144.82 124.11 145.90 Z M 123.96 146.84 L 123.83 147.79 C 123.67 148.87 124.42 149.88 125.50 150.03 C 126.59 150.19 127.59 149.44 127.75 148.35 L 127.88 147.40 C 128.04 146.32 127.29 145.32 126.20 145.16 C 125.12 145.00 124.12 145.76 123.96 146.84 Z M 123.82 147.81 L 123.69 148.79 C 123.55 149.88 124.31 150.87 125.40 151.01 C 126.48 151.16 127.48 150.39 127.62 149.31 L 127.75 148.33 C 127.89 147.25 127.13 146.25 126.04 146.11 C 124.96 145.97 123.97 146.73 123.82 147.81 Z M 123.69 148.81 L 123.57 149.80 C 123.44 150.89 124.21 151.87 125.30 152.01 C 126.38 152.14 127.37 151.37 127.50 150.28 L 127.62 149.29 C 127.76 148.21 126.98 147.22 125.90 147.09 C 124.81 146.95 123.82 147.73 123.69 148.81 Z M 123.57 149.81 L 123.45 150.82 C 123.33 151.90 124.11 152.89 125.19 153.01 C 126.28 153.14 127.26 152.36 127.39 151.27 L 127.50 150.27 C 127.63 149.18 126.85 148.20 125.76 148.08 C 124.68 147.95 123.70 148.73 123.57 149.81 Z M 123.45 150.82 L 123.34 151.84 C 123.22 152.92 124.00 153.90 125.09 154.03 C 126.17 154.15 127.15 153.37 127.27 152.28 L 127.39 151.27 C 127.51 150.18 126.73 149.20 125.64 149.08 C 124.55 148.96 123.57 149.74 123.45 150.82 Z M 123.34 151.84 L 123.23 152.83 C 123.11 153.91 123.90 154.89 124.98 155.01 C 126.07 155.13 127.05 154.34 127.17 153.26 L 127.27 152.27 C 127.39 151.19 126.61 150.21 125.52 150.09 C 124.44 149.97 123.46 150.76 123.34 151.84 Z M 123.23 152.83 L 123.13 153.83 C 123.01 154.91 123.80 155.89 124.89 156.00 C 125.97 156.12 126.95 155.33 127.06 154.24 L 127.17 153.25 C 127.28 152.16 126.49 151.19 125.41 151.07 C 124.32 150.96 123.34 151.75 123.23 152.83 Z M 123.12 153.84 L 123.03 154.84 C 122.92 155.93 123.72 156.89 124.80 157.00 C 125.89 157.11 126.86 156.31 126.97 155.22 L 127.06 154.23 C 127.17 153.14 126.37 152.17 125.29 152.06 C 124.20 151.96 123.23 152.75 123.12 153.84 Z M 123.03 154.86 L 122.94 155.86 C 122.84 156.95 123.65 157.91 124.74 158.00 C 125.83 158.10 126.79 157.29 126.88 156.20 L 126.97 155.20 C 127.06 154.11 126.26 153.15 125.17 153.06 C 124.08 152.97 123.12 153.77 123.03 154.86 Z M 122.94 155.89 L 122.86 156.89 C 122.79 157.98 123.60 158.93 124.69 159.00 C 125.78 159.08 126.73 158.27 126.81 157.18 L 126.88 156.18 C 126.96 155.09 126.14 154.14 125.05 154.06 C 123.96 153.98 123.02 154.80 122.94 155.89 Z M 122.86 156.92 L 122.81 157.89 C 122.75 158.98 123.58 159.92 124.67 159.98 C 125.76 160.04 126.69 159.21 126.75 158.12 L 126.81 157.15 C 126.87 156.06 126.04 155.12 124.95 155.06 C 123.86 155.00 122.93 155.83 122.86 156.92 Z M 122.81 157.92 L 122.77 158.90 C 122.72 159.99 123.56 160.91 124.65 160.96 C 125.74 161.01 126.66 160.16 126.71 159.07 L 126.75 158.09 C 126.80 157.00 125.96 156.08 124.87 156.03 C 123.78 155.99 122.86 156.83 122.81 157.92 Z M 122.77 158.93 L 122.73 159.92 C 122.70 161.01 123.56 161.92 124.64 161.96 C 125.73 161.99 126.65 161.14 126.68 160.05 L 126.71 159.05 C 126.75 157.96 125.89 157.05 124.80 157.02 C 123.71 156.98 122.80 157.84 122.77 158.93 Z M 122.74 159.94 L 122.71 160.96 C 122.69 162.04 123.55 162.95 124.64 162.97 C 125.73 162.99 126.63 162.13 126.66 161.04 L 126.68 160.03 C 126.70 158.94 125.84 158.04 124.75 158.01 C 123.66 157.99 122.76 158.85 122.74 159.94 Z M 122.71 160.97 L 122.70 162.01 C 122.68 163.10 123.55 163.99 124.64 164.01 C 125.73 164.02 126.62 163.15 126.64 162.07 L 126.66 161.03 C 126.67 159.94 125.80 159.04 124.71 159.03 C 123.63 159.01 122.73 159.88 122.71 160.97 Z M 122.70 162.02 L 122.69 163.07 C 122.68 164.15 123.56 165.04 124.64 165.05 C 125.73 165.06 126.62 164.19 126.63 163.10 L 126.64 162.05 C 126.65 160.97 125.77 160.08 124.69 160.07 C 123.60 160.06 122.71 160.93 122.70 162.02 Z M 122.69 163.09 L 122.70 164.14 C 122.70 165.22 123.58 166.10 124.67 166.10 C 125.75 166.10 126.63 165.21 126.63 164.13 L 126.63 163.08 C 126.63 161.99 125.74 161.12 124.66 161.12 C 123.57 161.12 122.69 162.00 122.69 163.09 Z M 122.70 164.17 L 122.72 165.19 C 122.73 166.27 123.63 167.14 124.71 167.12 C 125.80 167.10 126.66 166.21 126.64 165.12 L 126.63 164.10 C 126.61 163.01 125.71 162.15 124.63 162.17 C 123.54 162.19 122.68 163.08 122.70 164.17 Z M 122.72 165.23 L 122.76 166.21 C 122.80 167.29 123.71 168.13 124.79 168.09 C 125.88 168.05 126.72 167.14 126.68 166.06 L 126.64 165.08 C 126.60 164.00 125.69 163.15 124.60 163.20 C 123.52 163.24 122.68 164.15 122.72 165.23 Z M 122.76 166.27 L 122.82 167.17 C 122.90 168.25 123.84 169.06 124.92 168.99 C 126.00 168.91 126.81 167.98 126.74 166.90 L 126.67 166.00 C 126.60 164.91 125.66 164.10 124.58 164.18 C 123.50 164.25 122.69 165.19 122.76 166.27 Z M 122.84 167.28 L 122.99 168.43 C 123.13 169.50 124.11 170.25 125.18 170.11 C 126.25 169.98 127.01 168.99 126.87 167.92 L 126.72 166.78 C 126.58 165.71 125.60 164.95 124.53 165.09 C 123.46 165.23 122.70 166.21 122.84 167.28 Z M 123.04 168.65 L 123.28 169.62 C 123.54 170.66 124.60 171.29 125.64 171.03 C 126.68 170.77 127.32 169.72 127.06 168.68 L 126.82 167.71 C 126.56 166.67 125.50 166.03 124.46 166.29 C 123.42 166.55 122.78 167.60 123.04 168.65 Z M 123.40 169.92 L 123.76 170.75 C 124.19 171.73 125.33 172.17 126.30 171.75 C 127.28 171.32 127.73 170.18 127.30 169.20 L 126.94 168.37 C 126.52 167.39 125.38 166.95 124.40 167.37 C 123.42 167.80 122.97 168.94 123.40 169.92 Z M 123.96 171.08 L 124.48 171.81 C 125.09 172.68 126.29 172.89 127.16 172.28 C 128.02 171.66 128.23 170.46 127.62 169.60 L 127.10 168.87 C 126.49 168.00 125.29 167.79 124.42 168.40 C 123.55 169.02 123.35 170.22 123.96 171.08 Z M 124.74 172.10 L 125.43 172.74 C 126.20 173.47 127.41 173.43 128.13 172.66 C 128.85 171.89 128.81 170.68 128.04 169.96 L 127.35 169.31 C 126.58 168.59 125.38 168.63 124.65 169.40 C 123.93 170.17 123.97 171.38 124.74 172.10 Z M 125.71 172.95 L 126.56 173.49 C 127.44 174.06 128.62 173.80 129.18 172.92 C 129.75 172.04 129.49 170.86 128.61 170.30 L 127.76 169.75 C 126.88 169.19 125.70 169.44 125.14 170.33 C 124.57 171.21 124.83 172.38 125.71 172.95 Z M 126.83 173.62 L 127.82 174.06 C 128.77 174.47 129.88 174.04 130.30 173.08 C 130.72 172.13 130.28 171.02 129.33 170.60 L 128.34 170.17 C 127.38 169.75 126.27 170.19 125.86 171.14 C 125.44 172.10 125.88 173.21 126.83 173.62 Z M 128.04 174.12 L 128.96 174.39 C 129.95 174.69 130.99 174.13 131.29 173.14 C 131.58 172.15 131.02 171.11 130.03 170.82 L 129.11 170.54 C 128.12 170.24 127.08 170.80 126.78 171.79 C 126.49 172.78 127.05 173.82 128.04 174.12 Z M 129.11 174.41 L 130.10 174.62 C 131.10 174.84 132.08 174.20 132.29 173.20 C 132.51 172.20 131.87 171.22 130.87 171.01 L 129.88 170.80 C 128.88 170.58 127.90 171.22 127.69 172.22 C 127.47 173.22 128.11 174.20 129.11 174.41 Z M 130.21 174.63 L 131.22 174.78 C 132.22 174.93 133.15 174.24 133.31 173.24 C 133.46 172.24 132.77 171.31 131.77 171.16 L 130.76 171.00 C 129.75 170.85 128.82 171.54 128.67 172.54 C 128.52 173.54 129.21 174.48 130.21 174.63 Z M 131.31 174.77 L 132.31 174.88 C 133.31 174.98 134.20 174.26 134.30 173.26 C 134.41 172.26 133.68 171.37 132.69 171.27 L 131.68 171.16 C 130.69 171.06 129.79 171.78 129.69 172.78 C 129.59 173.78 130.31 174.67 131.31 174.77 Z M 132.38 174.86 L 133.39 174.93 C 134.38 175.00 135.23 174.25 135.30 173.26 C 135.37 172.27 134.62 171.42 133.63 171.35 L 132.62 171.28 C 131.63 171.22 130.77 171.96 130.71 172.95 C 130.64 173.94 131.39 174.80 132.38 174.86 Z M 133.45 174.91 L 134.43 174.95 C 135.41 174.98 136.23 174.22 136.27 173.24 C 136.30 172.26 135.54 171.44 134.56 171.41 L 133.57 171.37 C 132.60 171.34 131.78 172.10 131.74 173.08 C 131.70 174.05 132.47 174.87 133.45 174.91 Z M 134.47 174.92 L 135.46 174.94 C 136.42 174.95 137.22 174.18 137.23 173.21 C 137.24 172.25 136.47 171.46 135.51 171.44 L 134.52 171.43 C 133.56 171.42 132.76 172.19 132.75 173.15 C 132.74 174.12 133.51 174.91 134.47 174.92 Z M 135.48 174.91 L 136.49 174.92 C 137.44 174.92 138.21 174.15 138.21 173.20 C 138.22 172.24 137.45 171.47 136.50 171.47 L 135.49 171.47 C 134.54 171.46 133.76 172.23 133.76 173.19 C 133.76 174.14 134.53 174.91 135.48 174.91 Z M 136.49 174.90 L 137.44 174.90 C 138.38 174.90 139.14 174.13 139.14 173.19 C 139.14 172.25 138.38 171.48 137.44 171.49 L 136.49 171.49 C 135.55 171.49 134.78 172.25 134.79 173.19 C 134.79 174.14 135.55 174.90 136.49 174.90 Z M 137.45 174.89 L 138.43 174.88 C 139.36 174.87 140.11 174.10 140.11 173.17 C 140.10 172.23 139.33 171.48 138.39 171.49 L 137.42 171.50 C 136.49 171.51 135.73 172.27 135.74 173.21 C 135.75 174.14 136.52 174.89 137.45 174.89 Z M 138.45 174.86 L 139.46 174.84 C 140.39 174.81 141.13 174.04 141.10 173.11 C 141.08 172.18 140.30 171.45 139.37 171.47 L 138.37 171.50 C 137.44 171.52 136.70 172.30 136.73 173.23 C 136.75 174.16 137.53 174.89 138.45 174.86 Z M 139.50 174.83 L 140.54 174.77 C 141.46 174.73 142.17 173.94 142.13 173.02 C 142.08 172.10 141.30 171.39 140.37 171.43 L 139.33 171.48 C 138.41 171.53 137.70 172.32 137.75 173.24 C 137.79 174.16 138.58 174.87 139.50 174.83 Z M 140.59 174.76 L 141.62 174.68 C 142.54 174.60 143.22 173.80 143.14 172.89 C 143.07 171.97 142.27 171.29 141.35 171.36 L 140.32 171.44 C 139.41 171.52 138.72 172.32 138.80 173.24 C 138.87 174.15 139.67 174.84 140.59 174.76 Z M 141.67 174.67 L 142.67 174.56 C 143.58 174.46 144.23 173.64 144.13 172.73 C 144.03 171.82 143.21 171.16 142.30 171.26 L 141.30 171.37 C 140.39 171.47 139.74 172.29 139.84 173.20 C 139.94 174.11 140.76 174.77 141.67 174.67 Z M 142.71 174.55 L 143.71 174.41 C 144.62 174.29 145.25 173.45 145.13 172.55 C 145.00 171.64 144.17 171.01 143.27 171.13 L 142.26 171.27 C 141.36 171.39 140.73 172.23 140.85 173.13 C 140.97 174.04 141.80 174.67 142.71 174.55 Z M 143.75 174.40 L 144.74 174.24 C 145.64 174.10 146.25 173.26 146.11 172.36 C 145.97 171.46 145.13 170.85 144.23 170.99 L 143.23 171.14 C 142.34 171.29 141.72 172.13 141.86 173.03 C 142.00 173.93 142.85 174.54 143.75 174.40 Z M 144.77 174.23 L 145.74 174.06 C 146.64 173.91 147.23 173.06 147.08 172.16 C 146.92 171.27 146.07 170.67 145.18 170.83 L 144.20 171.00 C 143.31 171.15 142.71 172.00 142.87 172.90 C 143.02 173.79 143.87 174.39 144.77 174.23 Z M 145.77 174.06 L 146.79 173.86 C 147.68 173.69 148.27 172.83 148.10 171.94 C 147.93 171.05 147.07 170.47 146.18 170.64 L 145.15 170.83 C 144.26 171.00 143.68 171.86 143.85 172.75 C 144.02 173.64 144.88 174.23 145.77 174.06 Z M 146.81 173.86 L 147.85 173.65 C 148.74 173.47 149.31 172.60 149.13 171.71 C 148.95 170.83 148.08 170.25 147.20 170.43 L 146.16 170.64 C 145.27 170.82 144.70 171.69 144.88 172.58 C 145.06 173.46 145.93 174.04 146.81 173.86 Z M 147.86 173.64 L 148.84 173.44 C 149.73 173.25 150.29 172.38 150.11 171.50 C 149.92 170.61 149.05 170.04 148.17 170.23 L 147.19 170.44 C 146.30 170.62 145.73 171.49 145.92 172.38 C 146.11 173.26 146.98 173.83 147.86 173.64 Z M 148.84 173.44 L 149.76 173.24 C 150.65 173.05 151.22 172.19 151.03 171.30 C 150.84 170.42 149.97 169.85 149.09 170.04 L 148.17 170.23 C 147.28 170.42 146.72 171.29 146.90 172.17 C 147.09 173.06 147.96 173.62 148.84 173.44 Z M 149.75 173.24 L 150.71 173.05 C 151.60 172.87 152.17 172.00 151.99 171.12 C 151.81 170.23 150.94 169.66 150.06 169.84 L 149.10 170.03 C 148.21 170.22 147.64 171.08 147.82 171.97 C 148.00 172.85 148.87 173.42 149.75 173.24 Z M 150.69 173.05 L 151.71 172.86 C 152.59 172.69 153.18 171.83 153.01 170.94 C 152.84 170.06 151.98 169.47 151.09 169.64 L 150.08 169.84 C 149.19 170.01 148.61 170.86 148.78 171.75 C 148.95 172.64 149.80 173.22 150.69 173.05 Z M 151.69 172.86 L 152.65 172.69 C 153.54 172.53 154.13 171.68 153.97 170.79 C 153.81 169.90 152.96 169.31 152.07 169.47 L 151.11 169.64 C 150.22 169.80 149.63 170.65 149.79 171.54 C 149.95 172.43 150.80 173.02 151.69 172.86 Z M 152.64 172.69 L 153.44 172.55 C 154.33 172.39 154.93 171.55 154.77 170.65 C 154.62 169.76 153.77 169.17 152.88 169.32 L 152.07 169.47 C 151.18 169.62 150.59 170.47 150.74 171.36 C 150.90 172.25 151.75 172.85 152.64 172.69 Z"
      fill="black"
      fill-rule="nonzero" /><path d="M 140.59 131.32 L 140.62 132.32 C 140.65 133.34 141.49 134.13 142.50 134.10 C 143.51 134.07 144.31 133.23 144.28 132.22 L 144.25 131.22 C 144.22 130.21 143.38 129.41 142.37 129.44 C 141.35 129.47 140.56 130.31 140.59 131.32 Z M 140.61 132.32 L 140.63 133.32 C 140.66 134.34 141.50 135.14 142.52 135.11 C 143.54 135.09 144.34 134.24 144.32 133.22 L 144.29 132.22 C 144.26 131.20 143.42 130.40 142.40 130.43 C 141.38 130.45 140.58 131.30 140.61 132.32 Z M 140.62 133.31 L 140.64 134.31 C 140.66 135.33 141.51 136.14 142.53 136.12 C 143.56 136.10 144.37 135.26 144.35 134.23 L 144.33 133.23 C 144.31 132.21 143.46 131.40 142.44 131.42 C 141.41 131.44 140.60 132.28 140.62 133.31 Z M 140.63 134.29 L 140.64 135.29 C 140.65 136.32 141.50 137.15 142.53 137.13 C 143.56 137.12 144.38 136.28 144.37 135.25 L 144.36 134.25 C 144.35 133.22 143.50 132.39 142.47 132.40 C 141.44 132.42 140.62 133.26 140.63 134.29 Z M 140.64 135.27 L 140.64 136.24 C 140.64 137.28 141.47 138.11 142.51 138.11 C 143.54 138.11 144.38 137.27 144.38 136.24 L 144.38 135.27 C 144.38 134.24 143.54 133.40 142.51 133.40 C 141.47 133.40 140.64 134.24 140.64 135.27 Z M 140.64 136.22 L 140.63 137.17 C 140.62 138.20 141.44 139.04 142.47 139.06 C 143.50 139.07 144.34 138.25 144.36 137.22 L 144.37 136.27 C 144.38 135.24 143.56 134.39 142.53 134.38 C 141.50 134.36 140.66 135.19 140.64 136.22 Z M 140.64 137.14 L 140.61 138.11 C 140.58 139.14 141.39 139.99 142.41 140.02 C 143.44 140.05 144.29 139.24 144.32 138.22 L 144.35 137.25 C 144.37 136.22 143.57 135.37 142.55 135.34 C 141.52 135.31 140.67 136.12 140.64 137.14 Z M 140.63 138.08 L 140.58 139.09 C 140.54 140.11 141.32 140.97 142.34 141.01 C 143.35 141.06 144.21 140.27 144.26 139.26 L 144.30 138.25 C 144.35 137.23 143.56 136.37 142.55 136.33 C 141.53 136.28 140.67 137.07 140.63 138.08 Z M 140.60 139.06 L 140.53 140.12 C 140.47 141.13 141.23 142.00 142.24 142.06 C 143.25 142.12 144.12 141.36 144.18 140.35 L 144.25 139.29 C 144.31 138.28 143.54 137.41 142.53 137.35 C 141.53 137.29 140.66 138.05 140.60 139.06 Z M 140.54 140.10 L 140.46 141.12 C 140.39 142.12 141.13 142.99 142.13 143.07 C 143.14 143.15 144.01 142.40 144.09 141.40 L 144.17 140.38 C 144.24 139.38 143.50 138.50 142.49 138.42 C 141.49 138.35 140.62 139.09 140.54 140.10 Z M 140.47 141.10 L 140.38 142.12 C 140.29 143.11 141.03 143.99 142.02 144.08 C 143.02 144.17 143.90 143.44 143.99 142.44 L 144.08 141.42 C 144.17 140.42 143.43 139.55 142.44 139.46 C 141.44 139.37 140.56 140.10 140.47 141.10 Z M 140.39 142.10 L 140.29 143.13 C 140.19 144.13 140.92 145.01 141.91 145.10 C 142.90 145.20 143.78 144.48 143.88 143.48 L 143.98 142.45 C 144.07 141.46 143.35 140.58 142.36 140.49 C 141.37 140.39 140.49 141.11 140.39 142.10 Z M 140.30 143.13 L 140.19 144.14 C 140.09 145.13 140.81 146.01 141.79 146.11 C 142.78 146.21 143.66 145.49 143.76 144.51 L 143.87 143.49 C 143.97 142.51 143.25 141.63 142.27 141.52 C 141.28 141.42 140.40 142.14 140.30 143.13 Z M 140.20 144.13 L 140.10 145.11 C 139.99 146.09 140.70 146.97 141.68 147.08 C 142.66 147.18 143.55 146.47 143.65 145.49 L 143.76 144.52 C 143.86 143.53 143.15 142.65 142.17 142.55 C 141.19 142.44 140.31 143.15 140.20 144.13 Z M 140.11 145.11 L 140.00 146.09 C 139.89 147.07 140.60 147.94 141.57 148.05 C 142.55 148.16 143.43 147.45 143.54 146.48 L 143.64 145.49 C 143.75 144.52 143.04 143.64 142.07 143.53 C 141.09 143.42 140.21 144.13 140.11 145.11 Z M 140.01 146.09 L 139.89 147.17 C 139.78 148.14 140.48 149.01 141.45 149.12 C 142.42 149.23 143.30 148.53 143.41 147.56 L 143.53 146.48 C 143.63 145.51 142.93 144.63 141.96 144.52 C 140.99 144.41 140.12 145.11 140.01 146.09 Z M 139.90 147.16 L 139.78 148.15 C 139.67 149.11 140.36 149.99 141.33 150.10 C 142.30 150.21 143.17 149.52 143.28 148.55 L 143.40 147.57 C 143.51 146.60 142.82 145.73 141.85 145.61 C 140.88 145.50 140.01 146.19 139.90 147.16 Z M 139.79 148.13 L 139.68 149.06 C 139.56 150.02 140.24 150.90 141.20 151.02 C 142.16 151.14 143.04 150.45 143.16 149.49 L 143.27 148.56 C 143.39 147.60 142.71 146.73 141.75 146.61 C 140.79 146.49 139.91 147.17 139.79 148.13 Z M 139.69 149.04 L 139.56 149.97 C 139.44 150.92 140.10 151.80 141.06 151.93 C 142.01 152.06 142.89 151.39 143.02 150.44 L 143.14 149.51 C 143.27 148.56 142.61 147.68 141.65 147.55 C 140.70 147.42 139.82 148.09 139.69 149.04 Z M 139.57 149.95 L 139.43 150.91 C 139.29 151.85 139.95 152.74 140.89 152.88 C 141.84 153.02 142.73 152.36 142.87 151.42 L 143.01 150.46 C 143.15 149.51 142.50 148.62 141.55 148.48 C 140.60 148.34 139.71 149.00 139.57 149.95 Z M 139.44 150.89 L 139.28 151.87 C 139.14 152.82 139.78 153.71 140.73 153.85 C 141.67 154.00 142.56 153.36 142.71 152.41 L 142.86 151.43 C 143.01 150.48 142.36 149.60 141.42 149.45 C 140.47 149.30 139.59 149.95 139.44 150.89 Z M 139.29 151.87 L 139.13 152.87 C 138.98 153.81 139.62 154.70 140.56 154.85 C 141.50 155.00 142.39 154.36 142.54 153.42 L 142.70 152.42 C 142.85 151.48 142.21 150.59 141.27 150.44 C 140.33 150.28 139.44 150.93 139.29 151.87 Z M 139.13 152.87 L 138.97 153.88 C 138.82 154.82 139.46 155.70 140.40 155.86 C 141.34 156.01 142.22 155.37 142.37 154.43 L 142.54 153.42 C 142.69 152.48 142.05 151.60 141.11 151.44 C 140.17 151.29 139.28 151.93 139.13 152.87 Z M 138.97 153.88 L 138.82 154.84 C 138.67 155.78 139.31 156.66 140.25 156.81 C 141.18 156.96 142.06 156.32 142.21 155.39 L 142.37 154.43 C 142.52 153.49 141.88 152.61 140.94 152.46 C 140.00 152.31 139.12 152.94 138.97 153.88 Z M 138.82 154.85 L 138.67 155.82 C 138.52 156.76 139.16 157.64 140.09 157.79 C 141.03 157.94 141.91 157.30 142.05 156.36 L 142.21 155.39 C 142.36 154.45 141.72 153.57 140.79 153.42 C 139.85 153.27 138.97 153.91 138.82 154.85 Z M 138.67 155.82 L 138.51 156.82 C 138.36 157.75 139.00 158.63 139.93 158.78 C 140.86 158.93 141.74 158.29 141.89 157.36 L 142.05 156.36 C 142.20 155.43 141.56 154.55 140.63 154.40 C 139.70 154.25 138.82 154.89 138.67 155.82 Z M 138.52 156.81 L 138.35 157.83 C 138.20 158.76 138.83 159.64 139.76 159.79 C 140.69 159.94 141.57 159.31 141.72 158.38 L 141.89 157.36 C 142.04 156.43 141.41 155.55 140.48 155.40 C 139.54 155.25 138.67 155.88 138.52 156.81 Z M 138.36 157.82 L 138.19 158.82 C 138.04 159.75 138.67 160.62 139.60 160.78 C 140.52 160.93 141.40 160.30 141.55 159.37 L 141.72 158.38 C 141.87 157.45 141.24 156.58 140.31 156.42 C 139.39 156.27 138.51 156.90 138.36 157.82 Z M 138.20 158.81 L 138.03 159.81 C 137.87 160.73 138.50 161.61 139.42 161.77 C 140.35 161.92 141.22 161.30 141.38 160.37 L 141.55 159.38 C 141.70 158.45 141.08 157.58 140.16 157.42 C 139.23 157.27 138.35 157.89 138.20 158.81 Z M 138.04 159.80 L 137.86 160.80 C 137.70 161.72 138.32 162.60 139.24 162.75 C 140.17 162.91 141.04 162.30 141.20 161.37 L 141.37 160.38 C 141.53 159.46 140.92 158.58 139.99 158.42 C 139.07 158.26 138.20 158.88 138.04 159.80 Z M 137.87 160.79 L 137.70 161.77 C 137.53 162.69 138.14 163.57 139.06 163.73 C 139.98 163.89 140.86 163.28 141.02 162.36 L 141.20 161.38 C 141.36 160.46 140.75 159.59 139.83 159.42 C 138.91 159.26 138.03 159.87 137.87 160.79 Z M 137.70 161.76 L 137.52 162.75 C 137.35 163.66 137.96 164.54 138.87 164.71 C 139.79 164.88 140.67 164.27 140.83 163.36 L 141.01 162.37 C 141.18 161.46 140.58 160.58 139.66 160.41 C 138.75 160.24 137.87 160.85 137.70 161.76 Z M 137.53 162.74 L 137.34 163.75 C 137.16 164.66 137.76 165.54 138.67 165.71 C 139.59 165.89 140.46 165.29 140.64 164.38 L 140.83 163.36 C 141.00 162.45 140.40 161.57 139.49 161.40 C 138.58 161.23 137.70 161.83 137.53 162.74 Z M 137.34 163.75 L 137.15 164.73 C 136.98 165.64 137.57 166.52 138.48 166.69 C 139.39 166.87 140.27 166.27 140.44 165.36 L 140.63 164.38 C 140.81 163.47 140.21 162.59 139.30 162.42 C 138.39 162.24 137.51 162.84 137.34 163.75 Z M 137.15 164.73 L 136.97 165.69 C 136.80 166.60 137.39 167.48 138.30 167.65 C 139.20 167.83 140.08 167.23 140.26 166.33 L 140.44 165.36 C 140.61 164.46 140.02 163.58 139.11 163.40 C 138.21 163.23 137.33 163.83 137.15 164.73 Z M 136.97 165.70 L 136.79 166.66 C 136.62 167.57 137.22 168.44 138.12 168.61 C 139.03 168.78 139.90 168.18 140.07 167.28 L 140.25 166.32 C 140.42 165.41 139.83 164.54 138.92 164.37 C 138.02 164.20 137.14 164.80 136.97 165.70 Z M 136.79 166.67 L 136.61 167.68 C 136.44 168.58 137.04 169.45 137.95 169.62 C 138.85 169.78 139.72 169.18 139.88 168.28 L 140.07 167.27 C 140.24 166.37 139.64 165.50 138.73 165.33 C 137.83 165.17 136.96 165.77 136.79 166.67 Z M 136.61 167.68 L 136.43 168.67 C 136.27 169.58 136.86 170.44 137.77 170.61 C 138.67 170.77 139.54 170.17 139.70 169.27 L 139.88 168.28 C 140.05 167.38 139.45 166.51 138.55 166.35 C 137.64 166.18 136.78 166.78 136.61 167.68 Z M 136.44 168.67 L 136.25 169.63 C 136.08 170.53 136.68 171.40 137.58 171.57 C 138.48 171.74 139.34 171.15 139.51 170.25 L 139.70 169.28 C 139.86 168.38 139.27 167.51 138.37 167.34 C 137.47 167.17 136.61 167.77 136.44 168.67 Z M 136.26 169.61 L 136.07 170.55 C 135.89 171.45 136.47 172.32 137.37 172.50 C 138.26 172.68 139.14 172.10 139.32 171.20 L 139.51 170.27 C 139.69 169.37 139.10 168.50 138.21 168.32 C 137.31 168.14 136.44 168.72 136.26 169.61 Z M 136.08 170.53 L 135.88 171.45 C 135.69 172.34 136.25 173.22 137.14 173.41 C 138.04 173.61 138.91 173.04 139.11 172.15 L 139.31 171.23 C 139.50 170.34 138.94 169.46 138.05 169.26 C 137.15 169.07 136.27 169.64 136.08 170.53 Z M 135.89 171.43 L 135.67 172.37 C 135.46 173.26 136.02 174.15 136.90 174.35 C 137.79 174.56 138.68 174.00 138.88 173.12 L 139.10 172.17 C 139.31 171.28 138.75 170.40 137.87 170.19 C 136.98 169.99 136.09 170.54 135.89 171.43 Z M 135.68 172.36 L 135.43 173.37 C 135.22 174.25 135.76 175.14 136.65 175.36 C 137.53 175.57 138.42 175.03 138.63 174.14 L 138.88 173.13 C 139.09 172.25 138.55 171.36 137.66 171.14 C 136.78 170.93 135.89 171.47 135.68 172.36 Z M 135.44 173.36 L 135.19 174.35 C 134.98 175.23 135.51 176.12 136.40 176.34 C 137.28 176.55 138.17 176.02 138.39 175.13 L 138.63 174.15 C 138.85 173.27 138.31 172.38 137.42 172.16 C 136.54 171.94 135.65 172.48 135.44 173.36 Z M 135.20 174.34 L 134.96 175.25 C 134.74 176.13 135.27 177.03 136.15 177.25 C 137.03 177.47 137.93 176.94 138.15 176.06 L 138.38 175.14 C 138.61 174.27 138.07 173.37 137.19 173.15 C 136.31 172.92 135.42 173.46 135.20 174.34 Z M 134.97 175.23 L 134.71 176.19 C 134.47 177.07 134.99 177.97 135.87 178.21 C 136.74 178.44 137.64 177.93 137.88 177.05 L 138.14 176.09 C 138.38 175.21 137.86 174.31 136.99 174.07 C 136.11 173.84 135.21 174.35 134.97 175.23 Z M 134.72 176.15 L 134.43 177.14 C 134.17 178.01 134.66 178.92 135.53 179.18 C 136.40 179.44 137.31 178.95 137.57 178.08 L 137.87 177.09 C 138.13 176.22 137.63 175.31 136.76 175.05 C 135.90 174.79 134.98 175.29 134.72 176.15 Z M 134.45 177.09 L 134.11 178.08 C 133.82 178.94 134.29 179.87 135.14 180.16 C 136.00 180.44 136.93 179.98 137.22 179.12 L 137.55 178.13 C 137.84 177.28 137.38 176.35 136.52 176.06 C 135.67 175.77 134.74 176.23 134.45 177.09 Z M 134.14 178.01 L 133.77 178.97 C 133.44 179.82 133.86 180.76 134.70 181.09 C 135.55 181.42 136.50 181.00 136.82 180.16 L 137.20 179.19 C 137.52 178.35 137.10 177.40 136.26 177.07 C 135.42 176.75 134.47 177.17 134.14 178.01 Z M 133.80 178.90 L 133.39 179.82 C 133.02 180.65 133.40 181.62 134.22 181.98 C 135.05 182.35 136.02 181.97 136.39 181.15 L 136.79 180.23 C 137.16 179.40 136.78 178.43 135.96 178.07 C 135.13 177.70 134.16 178.07 133.80 178.90 Z M 133.42 179.76 L 132.98 180.66 C 132.58 181.48 132.92 182.46 133.73 182.85 C 134.54 183.25 135.52 182.91 135.92 182.10 L 136.36 181.20 C 136.76 180.39 136.42 179.41 135.61 179.01 C 134.79 178.61 133.81 178.95 133.42 179.76 Z M 133.00 180.62 L 132.54 181.50 C 132.12 182.31 132.42 183.30 133.23 183.72 C 134.03 184.13 135.02 183.83 135.44 183.02 L 135.90 182.14 C 136.32 181.34 136.01 180.35 135.21 179.93 C 134.41 179.51 133.42 179.82 133.00 180.62 Z M 132.55 181.48 L 132.07 182.35 C 131.64 183.14 131.93 184.14 132.72 184.57 C 133.52 185.01 134.51 184.72 134.94 183.92 L 135.42 183.05 C 135.86 182.26 135.57 181.26 134.77 180.83 C 133.98 180.39 132.98 180.69 132.55 181.48 Z M 132.08 182.34 L 131.71 183.01 C 131.27 183.80 131.55 184.79 132.34 185.23 C 133.13 185.68 134.13 185.39 134.57 184.60 L 134.94 183.93 C 135.38 183.14 135.09 182.15 134.31 181.71 C 133.52 181.27 132.52 181.55 132.08 182.34 Z"
      fill="black"
      fill-rule="nonzero" /><path d="M 115.80 150.26 L 114.66 150.91 C 113.79 151.40 113.49 152.50 113.98 153.37 C 114.47 154.23 115.57 154.54 116.44 154.05 L 117.58 153.40 C 118.45 152.91 118.75 151.81 118.26 150.95 C 117.77 150.08 116.67 149.77 115.80 150.26 Z M 114.43 151.02 L 113.74 151.55 C 112.93 152.17 112.78 153.32 113.40 154.13 C 114.02 154.94 115.18 155.09 115.98 154.47 L 116.67 153.94 C 117.48 153.32 117.63 152.16 117.01 151.36 C 116.39 150.55 115.23 150.40 114.43 151.02 Z M 113.22 153.92 L 113.39 154.21 C 113.89 155.12 115.03 155.44 115.93 154.94 C 116.84 154.44 117.16 153.30 116.66 152.40 L 116.50 152.10 C 115.99 151.20 114.85 150.87 113.95 151.37 C 113.05 151.87 112.72 153.01 113.22 153.92 Z M 114.91 155.19 L 115.84 155.24 C 116.88 155.31 117.78 154.52 117.84 153.48 C 117.90 152.44 117.11 151.54 116.07 151.48 L 115.14 151.42 C 114.10 151.36 113.21 152.15 113.14 153.19 C 113.08 154.23 113.87 155.12 114.91 155.19 Z M 116.16 155.24 L 117.49 155.10 C 118.53 154.99 119.28 154.06 119.17 153.02 C 119.06 151.98 118.13 151.23 117.09 151.34 L 115.76 151.48 C 114.72 151.59 113.97 152.53 114.08 153.56 C 114.19 154.60 115.12 155.35 116.16 155.24 Z M 117.64 155.08 L 118.45 154.93 C 119.47 154.74 120.15 153.74 119.96 152.72 C 119.76 151.69 118.77 151.01 117.74 151.21 L 116.94 151.36 C 115.91 151.55 115.24 152.54 115.43 153.57 C 115.62 154.60 116.62 155.27 117.64 155.08 Z M 118.53 154.91 L 119.40 154.71 C 120.41 154.47 121.04 153.45 120.81 152.43 C 120.57 151.41 119.55 150.78 118.53 151.02 L 117.66 151.22 C 116.64 151.46 116.01 152.48 116.25 153.50 C 116.49 154.52 117.51 155.15 118.53 154.91 Z M 119.46 154.69 L 120.41 154.43 C 121.42 154.16 122.02 153.12 121.74 152.11 C 121.47 151.10 120.43 150.50 119.42 150.78 L 118.47 151.04 C 117.46 151.31 116.86 152.35 117.14 153.36 C 117.41 154.37 118.45 154.96 119.46 154.69 Z M 120.45 154.42 L 121.52 154.10 C 122.52 153.81 123.10 152.75 122.80 151.75 C 122.50 150.75 121.45 150.18 120.45 150.47 L 119.38 150.79 C 118.38 151.09 117.81 152.14 118.10 153.14 C 118.40 154.14 119.45 154.71 120.45 154.42 Z M 121.55 154.09 L 122.68 153.74 C 123.68 153.43 124.24 152.37 123.93 151.37 C 123.62 150.38 122.56 149.82 121.56 150.13 L 120.42 150.48 C 119.43 150.79 118.87 151.85 119.18 152.85 C 119.49 153.85 120.55 154.40 121.55 154.09 Z M 122.69 153.73 L 123.63 153.43 C 124.62 153.12 125.17 152.05 124.85 151.06 C 124.53 150.07 123.47 149.52 122.48 149.84 L 121.55 150.14 C 120.56 150.46 120.01 151.52 120.33 152.51 C 120.64 153.50 121.70 154.05 122.69 153.73 Z M 123.63 153.42 L 124.61 153.11 C 125.60 152.79 126.14 151.73 125.82 150.74 C 125.50 149.75 124.45 149.21 123.46 149.53 L 122.48 149.85 C 121.49 150.17 120.95 151.23 121.27 152.21 C 121.59 153.20 122.65 153.74 123.63 153.42 Z M 124.62 153.10 L 125.62 152.77 C 126.60 152.45 127.14 151.39 126.82 150.41 C 126.50 149.43 125.44 148.89 124.46 149.21 L 123.46 149.54 C 122.47 149.86 121.94 150.92 122.26 151.90 C 122.58 152.88 123.63 153.42 124.62 153.10 Z M 125.62 152.76 L 126.62 152.44 C 127.59 152.12 128.13 151.06 127.81 150.09 C 127.49 149.11 126.44 148.57 125.46 148.89 L 124.46 149.22 C 123.48 149.54 122.95 150.59 123.27 151.57 C 123.59 152.55 124.64 153.08 125.62 152.76 Z M 126.61 152.43 L 127.58 152.11 C 128.56 151.80 129.09 150.75 128.77 149.77 C 128.45 148.80 127.40 148.27 126.43 148.58 L 125.46 148.90 C 124.49 149.22 123.95 150.27 124.27 151.24 C 124.59 152.22 125.64 152.75 126.61 152.43 Z M 127.58 152.11 L 128.49 151.81 C 129.46 151.50 129.99 150.45 129.67 149.48 C 129.36 148.51 128.31 147.98 127.34 148.29 L 126.43 148.59 C 125.46 148.91 124.93 149.95 125.25 150.92 C 125.56 151.89 126.61 152.42 127.58 152.11 Z M 128.48 151.80 L 129.46 151.49 C 130.42 151.18 130.95 150.14 130.64 149.17 C 130.33 148.21 129.30 147.68 128.33 147.99 L 127.35 148.30 C 126.38 148.61 125.85 149.65 126.16 150.62 C 126.48 151.58 127.51 152.11 128.48 151.80 Z M 129.44 151.46 L 130.57 151.11 C 131.52 150.81 132.05 149.79 131.75 148.84 C 131.45 147.88 130.43 147.35 129.48 147.66 L 128.35 148.01 C 127.39 148.31 126.87 149.33 127.17 150.28 C 127.47 151.24 128.48 151.77 129.44 151.46 Z M 130.55 151.08 L 131.49 150.78 C 132.43 150.49 132.95 149.50 132.66 148.56 C 132.37 147.63 131.38 147.10 130.44 147.39 L 129.50 147.69 C 128.56 147.98 128.04 148.97 128.33 149.91 C 128.62 150.84 129.61 151.37 130.55 151.08 Z M 131.48 150.75 L 132.32 150.49 C 133.23 150.20 133.74 149.23 133.46 148.32 C 133.18 147.40 132.21 146.89 131.29 147.17 L 130.46 147.43 C 129.54 147.71 129.03 148.69 129.31 149.60 C 129.59 150.52 130.57 151.03 131.48 150.75 Z M 132.32 150.45 L 133.12 150.20 C 134.01 149.91 134.51 148.96 134.23 148.07 C 133.94 147.17 132.99 146.67 132.09 146.96 L 131.29 147.21 C 130.40 147.49 129.90 148.45 130.18 149.34 C 130.47 150.24 131.42 150.73 132.32 150.45 Z M 133.13 150.17 L 134.07 149.86 C 134.95 149.57 135.43 148.63 135.14 147.75 C 134.85 146.87 133.90 146.39 133.02 146.68 L 132.08 146.98 C 131.20 147.27 130.73 148.22 131.01 149.10 C 131.30 149.98 132.25 150.46 133.13 150.17 Z M 134.08 149.85 L 135.03 149.53 C 135.90 149.23 136.37 148.29 136.08 147.42 C 135.78 146.55 134.84 146.08 133.97 146.37 L 133.02 146.69 C 132.15 146.98 131.68 147.93 131.97 148.80 C 132.26 149.67 133.20 150.14 134.08 149.85 Z M 135.03 149.52 L 135.98 149.19 C 136.85 148.90 137.31 147.96 137.02 147.10 C 136.73 146.23 135.79 145.77 134.92 146.06 L 133.97 146.38 C 133.10 146.67 132.64 147.61 132.93 148.48 C 133.22 149.34 134.16 149.81 135.03 149.52 Z M 135.97 149.19 L 136.93 148.87 C 137.79 148.58 138.25 147.65 137.97 146.79 C 137.68 145.93 136.75 145.46 135.89 145.75 L 134.93 146.07 C 134.07 146.35 133.61 147.29 133.89 148.15 C 134.18 149.01 135.11 149.47 135.97 149.19 Z M 136.92 148.87 L 137.87 148.56 C 138.73 148.28 139.20 147.35 138.92 146.49 C 138.64 145.63 137.71 145.16 136.85 145.44 L 135.90 145.75 C 135.04 146.03 134.56 146.96 134.85 147.82 C 135.13 148.68 136.05 149.15 136.92 148.87 Z M 137.86 148.56 L 138.81 148.26 C 139.67 147.98 140.14 147.06 139.87 146.19 C 139.59 145.33 138.67 144.86 137.81 145.13 L 136.86 145.44 C 135.99 145.71 135.52 146.64 135.79 147.50 C 136.07 148.36 136.99 148.84 137.86 148.56 Z M 138.80 148.26 L 139.75 147.96 C 140.62 147.68 141.09 146.76 140.82 145.90 C 140.55 145.04 139.63 144.56 138.77 144.83 L 137.81 145.13 C 136.95 145.40 136.47 146.33 136.74 147.19 C 137.02 148.05 137.94 148.53 138.80 148.26 Z M 139.75 147.96 L 140.70 147.66 C 141.56 147.39 142.04 146.47 141.77 145.61 C 141.50 144.75 140.58 144.26 139.72 144.53 L 138.77 144.83 C 137.91 145.10 137.43 146.02 137.70 146.88 C 137.96 147.75 138.88 148.23 139.75 147.96 Z M 140.69 147.66 L 141.64 147.37 C 142.51 147.11 143.00 146.19 142.73 145.33 C 142.47 144.46 141.55 143.97 140.69 144.24 L 139.73 144.53 C 138.86 144.80 138.38 145.71 138.64 146.58 C 138.91 147.44 139.82 147.93 140.69 147.66 Z M 141.63 147.37 L 142.60 147.09 C 143.46 146.83 143.95 145.92 143.70 145.05 C 143.44 144.18 142.52 143.69 141.66 143.95 L 140.70 144.24 C 139.83 144.50 139.34 145.41 139.60 146.27 C 139.86 147.14 140.77 147.63 141.63 147.37 Z M 142.58 147.09 L 143.54 146.81 C 144.41 146.56 144.91 145.65 144.66 144.78 C 144.41 143.92 143.50 143.42 142.63 143.67 L 141.67 143.95 C 140.80 144.20 140.30 145.10 140.55 145.97 C 140.81 146.84 141.71 147.34 142.58 147.09 Z M 143.53 146.82 L 144.49 146.55 C 145.36 146.30 145.87 145.40 145.62 144.53 C 145.38 143.66 144.48 143.15 143.61 143.39 L 142.65 143.66 C 141.78 143.91 141.27 144.81 141.51 145.68 C 141.75 146.55 142.66 147.06 143.53 146.82 Z M 144.48 146.55 L 145.44 146.29 C 146.31 146.05 146.83 145.15 146.59 144.28 C 146.35 143.41 145.45 142.89 144.58 143.13 L 143.62 143.39 C 142.75 143.63 142.23 144.53 142.47 145.40 C 142.71 146.27 143.60 146.79 144.48 146.55 Z M 145.43 146.29 L 146.40 146.03 C 147.28 145.80 147.80 144.90 147.56 144.03 C 147.33 143.15 146.43 142.64 145.56 142.87 L 144.59 143.13 C 143.72 143.36 143.20 144.26 143.43 145.13 C 143.66 146.00 144.56 146.52 145.43 146.29 Z M 146.40 146.03 L 147.36 145.78 C 148.23 145.55 148.76 144.65 148.53 143.78 C 148.30 142.91 147.40 142.38 146.53 142.61 L 145.56 142.87 C 144.69 143.10 144.17 143.99 144.40 144.87 C 144.63 145.74 145.52 146.26 146.40 146.03 Z M 147.36 145.78 L 148.32 145.53 C 149.20 145.30 149.72 144.40 149.49 143.53 C 149.26 142.66 148.37 142.13 147.50 142.36 L 146.53 142.61 C 145.66 142.84 145.13 143.74 145.36 144.61 C 145.59 145.49 146.48 146.01 147.36 145.78 Z M 148.32 145.53 L 149.29 145.28 C 150.17 145.05 150.69 144.15 150.46 143.28 C 150.24 142.40 149.34 141.88 148.47 142.11 L 147.50 142.36 C 146.62 142.59 146.10 143.48 146.33 144.36 C 146.55 145.23 147.45 145.76 148.32 145.53 Z M 149.29 145.28 L 150.12 145.06 C 151.00 144.83 151.53 143.94 151.30 143.06 C 151.07 142.19 150.18 141.66 149.30 141.89 L 148.47 142.11 C 147.59 142.33 147.07 143.23 147.30 144.10 C 147.52 144.98 148.42 145.50 149.29 145.28 Z"
      fill="black"
      fill-rule="nonzero" /><path d="M 172.88 113.36 L 172.88 114.30 C 172.88 115.35 173.73 116.21 174.78 116.21 C 175.83 116.21 176.68 115.35 176.68 114.30 L 176.68 113.36 C 176.68 112.31 175.83 111.46 174.78 111.46 C 173.73 111.46 172.88 112.31 172.88 113.36 Z M 172.87 114.30 L 172.87 115.28 C 172.87 116.33 173.73 117.18 174.78 117.18 C 175.83 117.18 176.68 116.33 176.68 115.28 L 176.68 114.30 C 176.68 113.25 175.83 112.40 174.78 112.40 C 173.73 112.40 172.87 113.25 172.87 114.30 Z M 172.87 115.28 L 172.87 116.31 C 172.87 117.36 173.72 118.22 174.78 118.22 C 175.83 118.22 176.69 117.36 176.69 116.31 L 176.69 115.28 C 176.69 114.22 175.83 113.37 174.78 113.37 C 173.72 113.37 172.87 114.22 172.87 115.28 Z M 172.88 116.31 L 172.88 117.34 C 172.88 118.39 173.73 119.24 174.78 119.24 C 175.83 119.24 176.68 118.39 176.68 117.34 L 176.68 116.31 C 176.68 115.26 175.83 114.41 174.78 114.41 C 173.73 114.41 172.88 115.26 172.88 116.31 Z M 172.91 117.34 L 172.91 118.33 C 172.91 119.36 173.75 120.20 174.78 120.20 C 175.81 120.20 176.64 119.36 176.64 118.33 L 176.64 117.34 C 176.64 116.31 175.81 115.47 174.78 115.47 C 173.75 115.47 172.91 116.31 172.91 117.34 Z M 172.96 118.33 L 172.96 119.35 C 172.96 120.36 173.78 121.17 174.78 121.17 C 175.78 121.17 176.59 120.36 176.59 119.35 L 176.59 118.33 C 176.59 117.33 175.78 116.52 174.78 116.52 C 173.78 116.52 172.96 117.33 172.96 118.33 Z M 173.01 119.35 L 173.01 120.37 C 173.01 121.35 173.80 122.14 174.78 122.14 C 175.75 122.14 176.54 121.35 176.54 120.37 L 176.54 119.35 C 176.54 118.38 175.75 117.59 174.78 117.59 C 173.80 117.59 173.01 118.38 173.01 119.35 Z M 173.06 120.37 L 173.06 121.38 C 173.06 122.33 173.83 123.10 174.78 123.10 C 175.73 123.10 176.50 122.33 176.50 121.38 L 176.50 120.37 C 176.50 119.42 175.73 118.65 174.78 118.65 C 173.83 118.65 173.06 119.42 173.06 120.37 Z M 173.09 121.39 L 173.09 122.44 C 173.09 123.38 173.85 124.13 174.78 124.13 C 175.72 124.13 176.47 123.37 176.47 122.44 L 176.47 121.38 C 176.47 120.45 175.71 119.69 174.78 119.69 C 173.84 119.69 173.09 120.45 173.09 121.39 Z M 173.11 122.45 L 173.11 123.45 C 173.12 124.38 173.88 125.12 174.80 125.11 C 175.73 125.11 176.47 124.35 176.46 123.42 L 176.46 122.43 C 176.45 121.50 175.69 120.76 174.77 120.76 C 173.84 120.77 173.10 121.53 173.11 122.45 Z M 173.13 123.47 L 173.15 124.43 C 173.17 125.34 173.93 126.07 174.84 126.05 C 175.76 126.03 176.48 125.28 176.47 124.36 L 176.45 123.40 C 176.43 122.49 175.67 121.76 174.75 121.78 C 173.84 121.80 173.11 122.56 173.13 123.47 Z M 173.16 124.46 L 173.20 125.44 C 173.24 126.35 174.00 127.06 174.91 127.02 C 175.82 126.99 176.53 126.22 176.49 125.31 L 176.45 124.33 C 176.42 123.42 175.65 122.71 174.74 122.75 C 173.83 122.78 173.13 123.55 173.16 124.46 Z M 173.21 125.47 L 173.27 126.48 C 173.32 127.39 174.09 128.08 175.00 128.03 C 175.90 127.98 176.59 127.20 176.54 126.30 L 176.48 125.28 C 176.43 124.38 175.66 123.69 174.75 123.74 C 173.85 123.79 173.16 124.57 173.21 125.47 Z M 173.27 126.50 L 173.33 127.49 C 173.39 128.39 174.18 129.08 175.08 129.02 C 175.98 128.96 176.67 128.18 176.61 127.27 L 176.54 126.28 C 176.48 125.38 175.70 124.70 174.80 124.76 C 173.89 124.82 173.21 125.60 173.27 126.50 Z M 173.34 127.49 L 173.40 128.46 C 173.46 129.37 174.24 130.05 175.14 129.99 C 176.04 129.93 176.73 129.16 176.67 128.25 L 176.60 127.27 C 176.55 126.37 175.77 125.69 174.86 125.75 C 173.96 125.80 173.28 126.58 173.34 127.49 Z M 173.40 128.45 L 173.45 129.46 C 173.50 130.36 174.28 131.05 175.18 131.00 C 176.08 130.95 176.77 130.18 176.72 129.28 L 176.67 128.27 C 176.62 127.37 175.85 126.67 174.94 126.72 C 174.04 126.77 173.35 127.55 173.40 128.45 Z M 173.45 129.45 L 173.50 130.44 C 173.54 131.34 174.31 132.04 175.21 132.00 C 176.12 131.96 176.81 131.19 176.77 130.29 L 176.72 129.29 C 176.68 128.39 175.91 127.69 175.01 127.73 C 174.11 127.78 173.41 128.54 173.45 129.45 Z M 173.50 130.44 L 173.54 131.34 C 173.58 132.25 174.35 132.95 175.25 132.91 C 176.15 132.87 176.85 132.10 176.81 131.20 L 176.77 130.29 C 176.73 129.39 175.97 128.69 175.06 128.73 C 174.16 128.77 173.46 129.53 173.50 130.44 Z"
      fill="black"
      fill-rule="nonzero" /><path d="M 177.19 123.04 L 177.50 122.09 C 177.78 121.20 177.29 120.24 176.40 119.95 C 175.51 119.66 174.56 120.15 174.27 121.04 L 173.96 121.99 C 173.67 122.88 174.16 123.84 175.05 124.13 C 175.94 124.42 176.90 123.93 177.19 123.04 Z M 177.49 122.14 L 177.82 121.20 C 178.14 120.31 177.68 119.33 176.79 119.02 C 175.90 118.70 174.93 119.16 174.61 120.05 L 174.27 120.99 C 173.96 121.88 174.42 122.86 175.31 123.17 C 176.20 123.49 177.17 123.02 177.49 122.14 Z M 177.80 121.29 L 178.19 120.37 C 178.56 119.50 178.15 118.49 177.28 118.12 C 176.40 117.75 175.39 118.16 175.03 119.03 L 174.64 119.96 C 174.27 120.83 174.67 121.84 175.55 122.21 C 176.42 122.57 177.43 122.17 177.80 121.29 Z M 178.13 120.50 L 178.59 119.62 C 179.04 118.78 178.71 117.74 177.87 117.29 C 177.03 116.85 175.98 117.18 175.54 118.02 L 175.08 118.90 C 174.64 119.74 174.96 120.79 175.81 121.23 C 176.65 121.67 177.69 121.35 178.13 120.50 Z M 178.51 119.77 L 179.06 118.93 C 179.58 118.13 179.36 117.06 178.56 116.54 C 177.76 116.02 176.69 116.24 176.17 117.04 L 175.63 117.88 C 175.10 118.67 175.33 119.74 176.12 120.26 C 176.92 120.79 177.99 120.56 178.51 119.77 Z M 178.95 119.08 L 179.59 118.31 C 180.19 117.57 180.09 116.48 179.35 115.88 C 178.62 115.27 177.53 115.38 176.92 116.11 L 176.28 116.89 C 175.68 117.62 175.78 118.71 176.52 119.32 C 177.25 119.92 178.34 119.82 178.95 119.08 Z M 179.45 118.46 L 180.14 117.79 C 180.83 117.13 180.85 116.04 180.19 115.35 C 179.53 114.66 178.44 114.64 177.75 115.30 L 177.06 115.96 C 176.37 116.62 176.35 117.72 177.01 118.41 C 177.67 119.09 178.76 119.12 179.45 118.46 Z M 180.00 117.91 L 180.78 117.31 C 181.53 116.73 181.67 115.65 181.09 114.89 C 180.50 114.14 179.42 114.00 178.67 114.58 L 177.89 115.18 C 177.14 115.76 177.00 116.85 177.58 117.60 C 178.16 118.35 179.25 118.49 180.00 117.91 Z M 180.65 117.40 L 181.51 116.85 C 182.32 116.34 182.55 115.27 182.04 114.47 C 181.53 113.66 180.46 113.43 179.66 113.94 L 178.79 114.49 C 177.99 115.01 177.75 116.07 178.27 116.88 C 178.78 117.68 179.85 117.91 180.65 117.40 Z M 181.41 116.91 L 182.29 116.42 C 183.13 115.97 183.44 114.92 182.98 114.09 C 182.52 113.25 181.48 112.95 180.65 113.40 L 179.76 113.88 C 178.93 114.34 178.62 115.39 179.07 116.22 C 179.53 117.05 180.57 117.36 181.41 116.91 Z M 182.21 116.46 L 183.09 116.03 C 183.94 115.63 184.30 114.60 183.89 113.75 C 183.48 112.90 182.46 112.54 181.61 112.95 L 180.73 113.37 C 179.88 113.78 179.52 114.80 179.93 115.65 C 180.34 116.50 181.36 116.86 182.21 116.46 Z M 183.01 116.05 L 183.94 115.66 C 184.80 115.29 185.20 114.30 184.84 113.43 C 184.47 112.57 183.48 112.17 182.61 112.54 L 181.69 112.93 C 180.82 113.30 180.42 114.29 180.79 115.15 C 181.15 116.02 182.15 116.42 183.01 116.05 Z M 183.86 115.67 L 184.83 115.31 C 185.70 114.99 186.14 114.02 185.82 113.15 C 185.49 112.28 184.53 111.84 183.65 112.16 L 182.69 112.52 C 181.82 112.85 181.38 113.81 181.70 114.69 C 182.02 115.56 182.99 116.00 183.86 115.67 Z M 184.76 115.33 L 185.72 115.02 C 186.60 114.73 187.08 113.79 186.79 112.91 C 186.51 112.03 185.57 111.55 184.69 111.84 L 183.73 112.15 C 182.85 112.43 182.37 113.37 182.65 114.25 C 182.94 115.13 183.88 115.61 184.76 115.33 Z M 185.66 115.02 L 186.62 114.75 C 187.50 114.50 188.01 113.58 187.76 112.70 C 187.51 111.82 186.59 111.31 185.71 111.56 L 184.75 111.83 C 183.87 112.08 183.36 113.00 183.61 113.88 C 183.86 114.76 184.77 115.27 185.66 115.02 Z M 186.57 114.76 L 187.54 114.51 C 188.43 114.28 188.96 113.38 188.74 112.50 C 188.51 111.61 187.61 111.08 186.72 111.30 L 185.76 111.55 C 184.87 111.78 184.34 112.68 184.56 113.56 C 184.79 114.45 185.69 114.98 186.57 114.76 Z M 187.52 114.51 L 188.49 114.27 C 189.38 114.06 189.92 113.17 189.71 112.29 C 189.50 111.41 188.61 110.86 187.73 111.07 L 186.75 111.31 C 185.87 111.52 185.32 112.41 185.53 113.29 C 185.75 114.17 186.63 114.72 187.52 114.51 Z M 188.48 114.27 L 188.94 114.16 C 189.83 113.96 190.37 113.07 190.17 112.19 C 189.96 111.31 189.08 110.76 188.20 110.97 L 187.74 111.08 C 186.85 111.28 186.31 112.17 186.51 113.05 C 186.72 113.93 187.60 114.48 188.48 114.27 Z"
      fill="black"
      fill-rule="nonzero" /><path d="M 170.49 137.69 L 170.07 138.61 C 169.66 139.52 170.06 140.59 170.97 141.00 C 171.87 141.41 172.94 141.00 173.35 140.10 L 173.77 139.18 C 174.18 138.27 173.78 137.21 172.87 136.79 C 171.96 136.38 170.90 136.79 170.49 137.69 Z M 170.05 138.65 L 169.66 139.58 C 169.27 140.49 169.70 141.55 170.61 141.94 C 171.53 142.33 172.59 141.90 172.97 140.98 L 173.37 140.06 C 173.76 139.14 173.33 138.09 172.41 137.70 C 171.50 137.31 170.44 137.74 170.05 138.65 Z M 169.62 139.66 L 169.28 140.59 C 168.94 141.53 169.42 142.56 170.36 142.90 C 171.29 143.25 172.33 142.77 172.67 141.83 L 173.01 140.90 C 173.35 139.97 172.87 138.93 171.94 138.59 C 171.00 138.25 169.97 138.73 169.62 139.66 Z M 169.24 140.72 L 168.99 141.61 C 168.72 142.57 169.27 143.57 170.23 143.84 C 171.19 144.11 172.19 143.55 172.46 142.60 L 172.71 141.70 C 172.98 140.75 172.43 139.75 171.47 139.48 C 170.51 139.21 169.51 139.76 169.24 140.72 Z M 168.95 141.76 L 168.78 142.65 C 168.59 143.62 169.22 144.57 170.20 144.76 C 171.18 144.96 172.13 144.32 172.32 143.34 L 172.49 142.45 C 172.69 141.47 172.05 140.53 171.07 140.33 C 170.09 140.14 169.14 140.78 168.95 141.76 Z M 168.76 142.77 L 168.64 143.75 C 168.52 144.74 169.22 145.64 170.21 145.76 C 171.20 145.88 172.10 145.18 172.22 144.19 L 172.34 143.21 C 172.46 142.22 171.76 141.32 170.77 141.20 C 169.78 141.08 168.88 141.78 168.76 142.77 Z M 168.63 143.84 L 168.55 144.95 C 168.48 145.95 169.23 146.81 170.23 146.88 C 171.22 146.95 172.08 146.20 172.15 145.20 L 172.23 144.09 C 172.30 143.10 171.55 142.24 170.55 142.17 C 169.56 142.10 168.70 142.85 168.63 143.84 Z M 168.55 145.01 L 168.51 146.02 C 168.47 147.02 169.25 147.86 170.24 147.90 C 171.24 147.94 172.08 147.16 172.12 146.16 L 172.16 145.15 C 172.20 144.15 171.42 143.31 170.42 143.27 C 169.42 143.23 168.59 144.01 168.55 145.01 Z M 168.51 146.05 L 168.48 147.05 C 168.46 148.05 169.25 148.87 170.25 148.90 C 171.25 148.92 172.07 148.13 172.10 147.13 L 172.12 146.13 C 172.14 145.14 171.35 144.31 170.35 144.29 C 169.36 144.26 168.53 145.05 168.51 146.05 Z M 168.48 147.07 L 168.47 148.10 C 168.46 149.10 169.26 149.92 170.26 149.93 C 171.25 149.94 172.07 149.15 172.08 148.15 L 172.10 147.11 C 172.11 146.11 171.31 145.30 170.31 145.28 C 169.32 145.27 168.50 146.07 168.48 147.07 Z M 168.47 148.12 L 168.47 149.15 C 168.46 150.15 169.26 150.96 170.26 150.97 C 171.26 150.98 172.07 150.17 172.08 149.17 L 172.08 148.14 C 172.09 147.14 171.28 146.33 170.29 146.32 C 169.29 146.31 168.48 147.12 168.47 148.12 Z M 168.47 149.16 L 168.46 150.17 C 168.46 151.16 169.27 151.97 170.27 151.97 C 171.26 151.98 172.07 151.17 172.07 150.17 L 172.08 149.17 C 172.08 148.17 171.27 147.36 170.27 147.36 C 169.28 147.36 168.47 148.16 168.47 149.16 Z M 168.47 150.17 L 168.47 151.20 C 168.47 152.20 169.27 153.00 170.27 153.00 C 171.27 153.00 172.07 152.20 172.07 151.20 L 172.07 150.17 C 172.07 149.17 171.27 148.36 170.27 148.36 C 169.27 148.36 168.47 149.17 168.47 150.17 Z M 168.47 151.20 L 168.47 152.26 C 168.47 153.26 169.28 154.06 170.27 154.06 C 171.26 154.06 172.07 153.26 172.07 152.26 L 172.07 151.20 C 172.07 150.21 171.26 149.40 170.27 149.40 C 169.28 149.40 168.47 150.21 168.47 151.20 Z M 168.48 152.26 L 168.48 153.24 C 168.48 154.23 169.28 155.04 170.27 155.04 C 171.26 155.04 172.06 154.23 172.06 153.24 L 172.06 152.26 C 172.06 151.27 171.26 150.47 170.27 150.47 C 169.28 150.47 168.48 151.27 168.48 152.26 Z M 168.48 153.24 L 168.48 154.18 C 168.48 155.17 169.28 155.97 170.27 155.97 C 171.26 155.97 172.06 155.17 172.06 154.18 L 172.06 153.24 C 172.06 152.25 171.26 151.45 170.27 151.45 C 169.28 151.45 168.48 152.25 168.48 153.24 Z M 168.49 154.18 L 168.49 155.11 C 168.49 156.09 169.28 156.89 170.27 156.89 C 171.26 156.89 172.05 156.09 172.05 155.11 L 172.05 154.18 C 172.05 153.19 171.26 152.40 170.27 152.40 C 169.28 152.40 168.49 153.19 168.49 154.18 Z M 168.49 155.11 L 168.49 156.01 C 168.49 156.99 169.29 157.79 170.27 157.79 C 171.26 157.79 172.05 156.99 172.05 156.01 L 172.05 155.11 C 172.05 154.12 171.25 153.33 170.27 153.33 C 169.29 153.33 168.49 154.13 168.49 155.11 Z M 168.50 156.02 L 168.50 156.97 C 168.50 157.95 169.30 158.74 170.28 158.74 C 171.26 158.74 172.05 157.94 172.05 156.96 L 172.05 156.00 C 172.04 155.02 171.24 154.23 170.26 154.23 C 169.28 154.24 168.49 155.04 168.50 156.02 Z M 168.50 156.98 L 168.52 158.01 C 168.53 158.98 169.33 159.77 170.30 159.76 C 171.28 159.75 172.07 158.95 172.06 157.97 L 172.05 156.95 C 172.04 155.97 171.23 155.18 170.26 155.19 C 169.28 155.20 168.49 156.01 168.50 156.98 Z M 168.52 158.02 L 168.54 159.12 C 168.56 160.09 169.36 160.87 170.34 160.85 C 171.31 160.84 172.09 160.03 172.07 159.06 L 172.05 157.96 C 172.03 156.98 171.23 156.20 170.25 156.22 C 169.28 156.24 168.50 157.04 168.52 158.02 Z M 168.54 159.13 L 168.57 160.13 C 168.59 161.10 169.40 161.87 170.38 161.85 C 171.35 161.82 172.12 161.01 172.09 160.04 L 172.07 159.04 C 172.04 158.07 171.23 157.30 170.26 157.33 C 169.29 157.35 168.52 158.16 168.54 159.13 Z M 168.58 160.14 L 168.61 161.10 C 168.64 162.07 169.45 162.83 170.41 162.80 C 171.38 162.77 172.14 161.96 172.11 160.99 L 172.09 160.03 C 172.06 159.06 171.25 158.30 170.28 158.33 C 169.31 158.36 168.55 159.17 168.58 160.14 Z M 168.61 161.11 L 168.65 162.10 C 168.68 163.07 169.49 163.82 170.45 163.79 C 171.42 163.76 172.18 162.95 172.14 161.98 L 172.11 160.99 C 172.08 160.02 171.27 159.26 170.30 159.30 C 169.34 159.33 168.58 160.14 168.61 161.11 Z M 168.65 162.10 L 168.69 163.12 C 168.72 164.09 169.53 164.84 170.49 164.80 C 171.46 164.77 172.21 163.96 172.17 163.00 L 172.14 161.98 C 172.10 161.02 171.29 160.27 170.33 160.30 C 169.37 160.33 168.62 161.14 168.65 162.10 Z M 168.70 163.12 L 168.73 164.16 C 168.77 165.12 169.57 165.86 170.53 165.83 C 171.49 165.80 172.24 164.99 172.20 164.03 L 172.17 163.00 C 172.13 162.04 171.33 161.29 170.37 161.33 C 169.41 161.36 168.66 162.17 168.70 163.12 Z M 168.74 164.15 L 168.77 165.19 C 168.81 166.14 169.61 166.89 170.56 166.86 C 171.52 166.82 172.27 166.02 172.23 165.07 L 172.20 164.04 C 172.16 163.08 171.36 162.33 170.41 162.37 C 169.45 162.40 168.71 163.20 168.74 164.15 Z M 168.78 165.18 L 168.82 166.26 C 168.85 167.21 169.64 167.96 170.59 167.93 C 171.54 167.90 172.29 167.10 172.26 166.15 L 172.23 165.07 C 172.19 164.12 171.40 163.38 170.45 163.41 C 169.50 163.44 168.75 164.23 168.78 165.18 Z M 168.83 166.26 L 168.86 167.33 C 168.89 168.28 169.68 169.02 170.63 168.99 C 171.57 168.96 172.31 168.17 172.28 167.22 L 172.25 166.15 C 172.22 165.21 171.43 164.46 170.48 164.49 C 169.54 164.52 168.80 165.31 168.83 166.26 Z M 168.87 167.34 L 168.91 168.37 C 168.94 169.31 169.73 170.05 170.67 170.01 C 171.61 169.98 172.34 169.19 172.31 168.25 L 172.27 167.22 C 172.24 166.28 171.45 165.54 170.51 165.58 C 169.57 165.61 168.84 166.40 168.87 167.34 Z M 168.92 168.39 L 168.96 169.38 C 169.00 170.31 169.79 171.03 170.72 170.99 C 171.66 170.95 172.38 170.16 172.34 169.23 L 172.30 168.24 C 172.26 167.31 171.47 166.59 170.54 166.63 C 169.60 166.67 168.88 167.45 168.92 168.39 Z M 168.97 169.40 L 169.03 170.33 C 169.08 171.26 169.87 171.96 170.80 171.91 C 171.72 171.86 172.43 171.07 172.38 170.14 L 172.33 169.21 C 172.27 168.28 171.48 167.57 170.56 167.63 C 169.63 167.68 168.92 168.47 168.97 169.40 Z M 169.04 170.37 L 169.11 171.29 C 169.19 172.21 169.99 172.90 170.91 172.83 C 171.83 172.75 172.51 171.95 172.44 171.03 L 172.37 170.10 C 172.29 169.19 171.49 168.50 170.57 168.57 C 169.65 168.64 168.97 169.45 169.04 170.37 Z M 169.13 171.35 L 169.25 172.44 C 169.35 173.36 170.18 174.01 171.09 173.91 C 172.00 173.80 172.65 172.98 172.55 172.07 L 172.42 170.98 C 172.32 170.07 171.50 169.41 170.59 169.51 C 169.68 169.62 169.02 170.44 169.13 171.35 Z M 169.27 172.50 L 169.41 173.49 C 169.55 174.39 170.39 175.01 171.29 174.88 C 172.20 174.74 172.82 173.90 172.68 173.00 L 172.53 172.01 C 172.40 171.11 171.56 170.49 170.65 170.62 C 169.75 170.76 169.13 171.60 169.27 172.50 Z M 169.43 173.53 L 169.59 174.45 C 169.75 175.34 170.61 175.94 171.50 175.78 C 172.40 175.62 172.99 174.77 172.83 173.87 L 172.67 172.96 C 172.51 172.06 171.65 171.46 170.76 171.62 C 169.86 171.78 169.27 172.64 169.43 173.53 Z M 169.60 174.47 L 169.72 175.09 C 169.89 175.98 170.75 176.56 171.64 176.39 C 172.53 176.22 173.11 175.37 172.94 174.48 L 172.82 173.85 C 172.65 172.96 171.79 172.38 170.90 172.55 C 170.02 172.72 169.43 173.58 169.60 174.47 Z"
      fill="black"
      fill-rule="nonzero" /><path d="M 174.91 140.44 L 174.84 139.39 C 174.77 138.37 173.89 137.59 172.87 137.66 C 171.84 137.73 171.07 138.61 171.14 139.63 L 171.20 140.68 C 171.27 141.70 172.15 142.47 173.17 142.41 C 174.20 142.34 174.97 141.46 174.91 140.44 Z M 174.85 139.57 L 174.88 138.56 C 174.91 137.54 174.10 136.68 173.07 136.65 C 172.04 136.62 171.19 137.43 171.16 138.45 L 171.13 139.46 C 171.10 140.48 171.91 141.34 172.93 141.37 C 173.96 141.40 174.82 140.59 174.85 139.57 Z M 174.83 138.95 L 175.05 138.03 C 175.30 137.03 174.68 136.02 173.68 135.78 C 172.68 135.53 171.67 136.15 171.43 137.15 L 171.20 138.07 C 170.96 139.07 171.57 140.08 172.57 140.32 C 173.57 140.56 174.58 139.95 174.83 138.95 Z M 174.83 138.57 L 175.30 137.81 C 175.85 136.93 175.57 135.78 174.70 135.23 C 173.82 134.69 172.67 134.96 172.12 135.84 L 171.65 136.61 C 171.11 137.49 171.38 138.64 172.26 139.18 C 173.14 139.72 174.29 139.45 174.83 138.57 Z M 175.00 138.18 L 175.70 137.52 C 176.45 136.81 176.49 135.63 175.78 134.88 C 175.07 134.13 173.89 134.09 173.13 134.80 L 172.43 135.46 C 171.68 136.17 171.65 137.35 172.35 138.11 C 173.06 138.86 174.25 138.89 175.00 138.18 Z M 175.46 137.72 L 176.34 137.13 C 177.19 136.55 177.42 135.39 176.85 134.53 C 176.27 133.67 175.11 133.44 174.25 134.02 L 173.38 134.61 C 172.52 135.18 172.29 136.34 172.86 137.20 C 173.44 138.06 174.60 138.29 175.46 137.72 Z M 176.19 137.22 L 177.11 136.72 C 178.02 136.23 178.36 135.09 177.86 134.18 C 177.37 133.27 176.23 132.94 175.32 133.43 L 174.40 133.93 C 173.49 134.42 173.16 135.56 173.65 136.47 C 174.14 137.38 175.28 137.71 176.19 137.22 Z M 177.01 136.77 L 177.92 136.35 C 178.86 135.91 179.27 134.79 178.83 133.86 C 178.39 132.92 177.28 132.51 176.34 132.95 L 175.42 133.38 C 174.49 133.81 174.08 134.93 174.52 135.87 C 174.96 136.80 176.07 137.21 177.01 136.77 Z M 177.82 136.39 L 178.77 136.02 C 179.73 135.63 180.20 134.54 179.82 133.58 C 179.43 132.62 178.34 132.15 177.38 132.53 L 176.44 132.91 C 175.48 133.29 175.01 134.38 175.39 135.34 C 175.77 136.30 176.86 136.77 177.82 136.39 Z M 178.66 136.06 L 179.60 135.75 C 180.59 135.43 181.12 134.37 180.80 133.38 C 180.48 132.40 179.42 131.86 178.44 132.18 L 177.49 132.49 C 176.51 132.81 175.97 133.87 176.29 134.85 C 176.61 135.84 177.67 136.38 178.66 136.06 Z M 179.46 135.79 L 180.44 135.55 C 181.45 135.31 182.07 134.29 181.83 133.28 C 181.58 132.28 180.57 131.66 179.56 131.90 L 178.58 132.14 C 177.57 132.39 176.95 133.40 177.20 134.41 C 177.44 135.41 178.45 136.03 179.46 135.79 Z M 180.29 135.58 L 181.28 135.43 C 182.30 135.27 183.00 134.31 182.84 133.29 C 182.69 132.26 181.73 131.56 180.70 131.72 L 179.72 131.87 C 178.69 132.03 177.99 132.99 178.15 134.01 C 178.31 135.04 179.26 135.74 180.29 135.58 Z M 181.13 135.44 L 182.11 135.37 C 183.15 135.29 183.92 134.39 183.84 133.36 C 183.76 132.32 182.86 131.55 181.83 131.63 L 180.85 131.70 C 179.81 131.78 179.04 132.68 179.12 133.72 C 179.20 134.75 180.10 135.52 181.13 135.44 Z M 182.00 135.37 L 183.00 135.36 C 184.03 135.34 184.86 134.49 184.84 133.45 C 184.82 132.42 183.97 131.59 182.93 131.61 L 181.94 131.62 C 180.90 131.64 180.08 132.49 180.09 133.53 C 180.11 134.57 180.96 135.39 182.00 135.37 Z M 182.90 135.36 L 183.92 135.39 C 184.95 135.43 185.82 134.62 185.86 133.58 C 185.89 132.55 185.08 131.68 184.05 131.64 L 183.03 131.61 C 181.99 131.57 181.13 132.38 181.09 133.42 C 181.05 134.45 181.86 135.32 182.90 135.36 Z M 183.78 135.38 L 184.79 135.49 C 185.82 135.60 186.74 134.85 186.85 133.82 C 186.96 132.79 186.22 131.87 185.19 131.76 L 184.18 131.65 C 183.15 131.54 182.23 132.29 182.12 133.32 C 182.01 134.35 182.75 135.27 183.78 135.38 Z M 184.60 135.46 L 185.56 135.66 C 186.57 135.88 187.57 135.23 187.78 134.22 C 188.00 133.21 187.35 132.21 186.34 132.00 L 185.38 131.79 C 184.37 131.58 183.37 132.22 183.16 133.23 C 182.94 134.25 183.59 135.24 184.60 135.46 Z M 185.29 135.58 L 186.21 135.93 C 187.18 136.29 188.26 135.80 188.62 134.83 C 188.98 133.86 188.49 132.78 187.52 132.42 L 186.61 132.08 C 185.64 131.71 184.56 132.20 184.19 133.17 C 183.83 134.14 184.32 135.22 185.29 135.58 Z M 185.94 135.80 L 186.79 136.28 C 187.68 136.80 188.83 136.49 189.34 135.59 C 189.85 134.69 189.54 133.55 188.65 133.04 L 187.80 132.55 C 186.90 132.04 185.76 132.35 185.24 133.24 C 184.73 134.14 185.04 135.28 185.94 135.80 Z M 186.59 136.15 L 187.38 136.75 C 188.20 137.37 189.37 137.22 190.00 136.40 C 190.62 135.58 190.46 134.41 189.64 133.78 L 188.85 133.18 C 188.03 132.55 186.86 132.71 186.23 133.53 C 185.61 134.35 185.77 135.52 186.59 136.15 Z M 187.26 136.64 L 188.00 137.31 C 188.76 138.00 189.94 137.95 190.63 137.18 C 191.32 136.42 191.26 135.25 190.50 134.56 L 189.76 133.89 C 189.00 133.20 187.82 133.26 187.13 134.02 C 186.44 134.78 186.50 135.95 187.26 136.64 Z M 187.93 137.23 L 188.61 137.92 C 189.32 138.65 190.50 138.66 191.23 137.95 C 191.96 137.23 191.97 136.06 191.25 135.33 L 190.57 134.64 C 189.85 133.91 188.68 133.90 187.95 134.61 C 187.22 135.33 187.21 136.50 187.93 137.23 Z M 188.54 137.84 L 189.21 138.60 C 189.88 139.36 191.04 139.44 191.81 138.77 C 192.57 138.09 192.65 136.93 191.98 136.16 L 191.31 135.41 C 190.64 134.64 189.48 134.57 188.71 135.24 C 187.95 135.91 187.87 137.08 188.54 137.84 Z M 189.14 138.51 L 189.78 139.33 C 190.41 140.13 191.56 140.27 192.36 139.64 C 193.16 139.02 193.30 137.87 192.68 137.07 L 192.04 136.25 C 191.41 135.45 190.26 135.31 189.46 135.93 C 188.66 136.56 188.52 137.71 189.14 138.51 Z M 189.72 139.24 L 190.29 140.05 C 190.86 140.88 192.00 141.09 192.83 140.51 C 193.66 139.94 193.87 138.80 193.30 137.97 L 192.73 137.16 C 192.16 136.33 191.02 136.12 190.19 136.69 C 189.36 137.27 189.15 138.41 189.72 139.24 Z M 190.24 139.97 L 190.75 140.80 C 191.29 141.66 192.41 141.93 193.27 141.40 C 194.12 140.87 194.39 139.74 193.86 138.88 L 193.34 138.05 C 192.81 137.19 191.69 136.93 190.83 137.46 C 189.97 137.99 189.71 139.11 190.24 139.97 Z M 190.72 140.74 L 191.21 141.61 C 191.70 142.49 192.81 142.80 193.69 142.31 C 194.57 141.82 194.88 140.71 194.39 139.83 L 193.90 138.95 C 193.40 138.08 192.29 137.76 191.42 138.26 C 190.54 138.75 190.23 139.86 190.72 140.74 Z M 191.18 141.55 L 191.65 142.47 C 192.11 143.36 193.21 143.71 194.10 143.25 C 194.99 142.79 195.34 141.69 194.89 140.80 L 194.42 139.89 C 193.96 138.99 192.86 138.64 191.97 139.10 C 191.07 139.56 190.72 140.66 191.18 141.55 Z M 191.63 142.42 L 192.04 143.26 C 192.47 144.17 193.56 144.55 194.46 144.12 C 195.36 143.68 195.74 142.60 195.31 141.70 L 194.90 140.85 C 194.47 139.94 193.39 139.56 192.48 140.00 C 191.58 140.43 191.20 141.51 191.63 142.42 Z M 192.02 143.22 L 192.39 144.05 C 192.80 144.96 193.87 145.37 194.78 144.96 C 195.70 144.55 196.10 143.48 195.70 142.57 L 195.33 141.74 C 194.92 140.83 193.85 140.42 192.93 140.83 C 192.02 141.24 191.61 142.31 192.02 143.22 Z M 192.38 144.00 L 192.75 144.88 C 193.13 145.80 194.18 146.24 195.10 145.86 C 196.02 145.48 196.46 144.42 196.08 143.50 L 195.71 142.62 C 195.33 141.70 194.27 141.26 193.35 141.64 C 192.43 142.02 192.00 143.08 192.38 144.00 Z M 192.73 144.83 L 193.10 145.80 C 193.45 146.72 194.49 147.19 195.42 146.84 C 196.35 146.48 196.81 145.44 196.46 144.52 L 196.09 143.55 C 195.74 142.63 194.70 142.16 193.77 142.51 C 192.84 142.87 192.38 143.91 192.73 144.83 Z M 193.09 145.75 L 193.46 146.81 C 193.79 147.75 194.81 148.24 195.74 147.91 C 196.68 147.59 197.17 146.56 196.84 145.63 L 196.47 144.57 C 196.14 143.63 195.12 143.14 194.19 143.47 C 193.25 143.79 192.76 144.82 193.09 145.75 Z M 193.46 146.77 L 193.77 147.73 C 194.07 148.67 195.08 149.18 196.02 148.88 C 196.95 148.57 197.46 147.56 197.16 146.63 L 196.85 145.67 C 196.54 144.73 195.54 144.22 194.60 144.53 C 193.66 144.83 193.15 145.84 193.46 146.77 Z M 193.76 147.70 L 194.05 148.65 C 194.34 149.59 195.34 150.11 196.28 149.83 C 197.21 149.54 197.74 148.54 197.45 147.60 L 197.16 146.66 C 196.88 145.72 195.88 145.19 194.94 145.48 C 194.00 145.77 193.47 146.76 193.76 147.70 Z M 194.05 148.62 L 194.34 149.60 C 194.61 150.54 195.59 151.08 196.54 150.81 C 197.48 150.54 198.02 149.55 197.74 148.61 L 197.46 147.63 C 197.18 146.69 196.20 146.15 195.26 146.42 C 194.32 146.70 193.78 147.68 194.05 148.62 Z M 194.34 149.58 L 194.61 150.58 C 194.87 151.52 195.85 152.07 196.79 151.81 C 197.73 151.55 198.28 150.58 198.02 149.63 L 197.74 148.64 C 197.48 147.69 196.51 147.14 195.57 147.40 C 194.63 147.66 194.07 148.64 194.34 149.58 Z M 194.61 150.55 L 194.87 151.55 C 195.12 152.49 196.08 153.05 197.02 152.81 C 197.96 152.56 198.53 151.60 198.28 150.65 L 198.02 149.66 C 197.77 148.72 196.81 148.15 195.87 148.40 C 194.93 148.65 194.36 149.61 194.61 150.55 Z M 194.87 151.52 L 195.11 152.49 C 195.34 153.43 196.29 154.01 197.24 153.78 C 198.18 153.54 198.75 152.59 198.52 151.65 L 198.28 150.68 C 198.05 149.74 197.10 149.16 196.16 149.39 C 195.21 149.63 194.64 150.58 194.87 151.52 Z M 195.11 152.46 L 195.33 153.45 C 195.55 154.39 196.49 154.98 197.43 154.77 C 198.37 154.55 198.96 153.61 198.75 152.67 L 198.52 151.68 C 198.31 150.74 197.37 150.15 196.43 150.36 C 195.48 150.58 194.89 151.52 195.11 152.46 Z M 195.33 153.41 L 195.56 154.50 C 195.75 155.44 196.67 156.05 197.61 155.85 C 198.56 155.66 199.16 154.74 198.97 153.80 L 198.75 152.71 C 198.56 151.77 197.63 151.16 196.69 151.35 C 195.75 151.55 195.14 152.47 195.33 153.41 Z M 195.56 154.45 L 195.74 155.46 C 195.91 156.40 196.81 157.03 197.75 156.86 C 198.69 156.70 199.32 155.80 199.15 154.86 L 198.97 153.84 C 198.80 152.90 197.90 152.27 196.96 152.44 C 196.02 152.61 195.39 153.51 195.56 154.45 Z M 195.74 155.42 L 195.89 156.37 C 196.03 157.31 196.91 157.96 197.85 157.82 C 198.79 157.67 199.43 156.80 199.29 155.86 L 199.14 154.90 C 199.00 153.96 198.12 153.32 197.19 153.46 C 196.25 153.60 195.60 154.48 195.74 155.42 Z M 195.90 156.33 L 196.01 157.25 C 196.13 158.19 196.99 158.85 197.92 158.73 C 198.86 158.61 199.52 157.75 199.40 156.82 L 199.28 155.90 C 199.16 154.96 198.31 154.30 197.37 154.42 C 196.44 154.54 195.78 155.40 195.90 156.33 Z M 196.02 157.22 L 196.12 158.13 C 196.22 159.06 197.05 159.73 197.99 159.63 C 198.92 159.53 199.59 158.70 199.49 157.76 L 199.39 156.85 C 199.29 155.92 198.46 155.25 197.53 155.35 C 196.59 155.45 195.92 156.28 196.02 157.22 Z M 196.12 158.10 L 196.21 159.06 C 196.29 159.98 197.11 160.67 198.04 160.59 C 198.97 160.50 199.66 159.68 199.57 158.75 L 199.49 157.79 C 199.40 156.87 198.58 156.18 197.65 156.26 C 196.73 156.35 196.04 157.17 196.12 158.10 Z M 196.21 159.03 L 196.28 160.00 C 196.35 160.92 197.15 161.62 198.08 161.55 C 199.01 161.49 199.70 160.68 199.64 159.75 L 199.57 158.78 C 199.50 157.86 198.70 157.16 197.77 157.23 C 196.84 157.29 196.15 158.10 196.21 159.03 Z M 196.29 159.97 L 196.34 160.96 C 196.39 161.89 197.18 162.59 198.11 162.54 C 199.03 162.49 199.74 161.70 199.69 160.78 L 199.63 159.78 C 199.58 158.86 198.79 158.15 197.87 158.20 C 196.94 158.25 196.24 159.04 196.29 159.97 Z M 196.35 160.94 L 196.39 161.97 C 196.43 162.89 197.20 163.61 198.12 163.57 C 199.05 163.53 199.76 162.75 199.72 161.83 L 199.68 160.80 C 199.65 159.88 198.87 159.16 197.95 159.20 C 197.03 159.24 196.31 160.02 196.35 160.94 Z M 196.39 161.95 L 196.42 162.98 C 196.45 163.90 197.21 164.62 198.13 164.60 C 199.05 164.57 199.77 163.81 199.75 162.89 L 199.72 161.86 C 199.69 160.94 198.93 160.21 198.01 160.24 C 197.09 160.26 196.37 161.03 196.39 161.95 Z M 196.43 162.96 L 196.44 163.97 C 196.45 164.88 197.20 165.62 198.11 165.61 C 199.03 165.60 199.76 164.85 199.75 163.93 L 199.74 162.92 C 199.73 162.00 198.98 161.27 198.07 161.28 C 197.15 161.29 196.42 162.04 196.43 162.96 Z M 196.44 163.92 L 196.43 164.95 C 196.41 165.86 197.14 166.62 198.06 166.63 C 198.97 166.64 199.72 165.91 199.74 165.00 L 199.75 163.97 C 199.76 163.06 199.03 162.31 198.12 162.29 C 197.21 162.28 196.45 163.01 196.44 163.92 Z M 196.43 164.89 L 196.38 165.91 C 196.33 166.82 197.03 167.59 197.94 167.64 C 198.85 167.69 199.63 166.99 199.68 166.08 L 199.73 165.06 C 199.78 164.15 199.08 163.37 198.17 163.33 C 197.26 163.28 196.48 163.98 196.43 164.89 Z M 196.39 165.82 L 196.29 166.81 C 196.20 167.71 196.85 168.52 197.76 168.62 C 198.66 168.71 199.47 168.05 199.56 167.15 L 199.67 166.16 C 199.76 165.26 199.10 164.45 198.20 164.35 C 197.29 164.26 196.48 164.92 196.39 165.82 Z M 196.31 166.69 L 196.14 167.65 C 195.98 168.54 196.58 169.39 197.47 169.55 C 198.37 169.71 199.22 169.11 199.38 168.22 L 199.54 167.26 C 199.70 166.37 199.11 165.52 198.21 165.36 C 197.32 165.20 196.47 165.80 196.31 166.69 Z M 196.18 167.49 L 195.88 168.54 C 195.63 169.41 196.14 170.32 197.01 170.56 C 197.88 170.81 198.79 170.31 199.04 169.44 L 199.34 168.38 C 199.58 167.51 199.08 166.61 198.21 166.36 C 197.34 166.11 196.43 166.61 196.18 167.49 Z M 195.95 168.35 L 195.55 169.29 C 195.20 170.12 195.59 171.08 196.43 171.44 C 197.26 171.79 198.22 171.40 198.57 170.56 L 198.97 169.62 C 199.32 168.79 198.93 167.83 198.10 167.48 C 197.26 167.12 196.30 167.52 195.95 168.35 Z M 195.64 169.11 L 195.16 169.94 C 194.71 170.72 194.98 171.73 195.76 172.18 C 196.55 172.63 197.55 172.36 198.00 171.58 L 198.48 170.74 C 198.93 169.96 198.66 168.96 197.88 168.51 C 197.10 168.05 196.10 168.32 195.64 169.11 Z M 195.28 169.77 L 194.72 170.50 C 194.18 171.23 194.32 172.25 195.04 172.80 C 195.76 173.34 196.79 173.20 197.34 172.48 L 197.89 171.75 C 198.43 171.02 198.29 170.00 197.57 169.45 C 196.85 168.91 195.82 169.05 195.28 169.77 Z M 194.86 170.35 L 194.16 171.07 C 193.53 171.71 193.54 172.75 194.19 173.38 C 194.83 174.01 195.87 174.00 196.50 173.35 L 197.20 172.63 C 197.83 171.99 197.82 170.95 197.17 170.32 C 196.52 169.69 195.49 169.70 194.86 170.35 Z M 194.29 170.95 L 193.52 171.58 C 192.82 172.15 192.72 173.18 193.29 173.88 C 193.87 174.58 194.90 174.68 195.60 174.11 L 196.37 173.47 C 197.07 172.90 197.17 171.87 196.59 171.17 C 196.02 170.47 194.99 170.37 194.29 170.95 Z M 193.61 171.51 L 192.80 172.08 C 192.07 172.60 191.89 173.62 192.41 174.36 C 192.93 175.10 193.95 175.27 194.69 174.75 L 195.50 174.18 C 196.24 173.66 196.42 172.64 195.90 171.90 C 195.37 171.16 194.35 170.98 193.61 171.51 Z M 192.85 172.05 L 192.18 172.49 C 191.42 172.99 191.22 174.00 191.71 174.76 C 192.21 175.51 193.23 175.72 193.98 175.22 L 194.65 174.78 C 195.40 174.28 195.61 173.27 195.12 172.51 C 194.62 171.76 193.60 171.55 192.85 172.05 Z"
      fill="black"
      fill-rule="nonzero" /><path d="M 171.87 151.26 L 172.76 151.67 C 173.69 152.11 174.79 151.70 175.23 150.77 C 175.66 149.84 175.26 148.74 174.32 148.30 L 173.44 147.89 C 172.51 147.46 171.40 147.86 170.97 148.80 C 170.54 149.73 170.94 150.83 171.87 151.26 Z M 172.87 151.73 L 173.79 152.09 C 174.75 152.46 175.83 151.98 176.20 151.02 C 176.57 150.05 176.09 148.97 175.13 148.60 L 174.21 148.25 C 173.25 147.87 172.17 148.35 171.80 149.32 C 171.43 150.28 171.91 151.36 172.87 151.73 Z M 174.01 152.17 L 174.99 152.41 C 176.00 152.65 177.02 152.04 177.26 151.03 C 177.51 150.02 176.89 149.00 175.89 148.76 L 174.90 148.52 C 173.90 148.27 172.88 148.89 172.63 149.90 C 172.39 150.91 173.01 151.92 174.01 152.17 Z M 175.30 152.45 L 176.25 152.53 C 177.28 152.60 178.18 151.83 178.26 150.80 C 178.34 149.76 177.56 148.86 176.53 148.78 L 175.58 148.71 C 174.55 148.63 173.65 149.41 173.57 150.44 C 173.49 151.47 174.26 152.38 175.30 152.45 Z M 176.50 152.50 L 177.41 152.44 C 178.43 152.38 179.21 151.50 179.14 150.48 C 179.08 149.47 178.20 148.69 177.19 148.75 L 176.27 148.81 C 175.25 148.87 174.48 149.75 174.54 150.77 C 174.60 151.79 175.48 152.56 176.50 152.50 Z M 177.58 152.39 L 178.55 152.24 C 179.54 152.08 180.22 151.16 180.06 150.17 C 179.91 149.18 178.99 148.51 178.00 148.66 L 177.02 148.81 C 176.03 148.96 175.36 149.89 175.51 150.87 C 175.66 151.86 176.59 152.54 177.58 152.39 Z M 178.65 152.18 L 179.69 151.95 C 180.64 151.74 181.25 150.80 181.04 149.84 C 180.83 148.89 179.89 148.28 178.93 148.49 L 177.90 148.72 C 176.94 148.93 176.34 149.87 176.54 150.83 C 176.75 151.78 177.70 152.39 178.65 152.18 Z M 179.75 151.90 L 180.81 151.62 C 181.74 151.38 182.29 150.44 182.05 149.51 C 181.81 148.58 180.87 148.03 179.94 148.27 L 178.88 148.54 C 177.95 148.78 177.39 149.73 177.63 150.66 C 177.87 151.58 178.82 152.14 179.75 151.90 Z M 180.84 151.59 L 181.75 151.33 C 182.66 151.08 183.19 150.13 182.93 149.23 C 182.68 148.32 181.73 147.79 180.83 148.04 L 179.91 148.30 C 179.00 148.56 178.48 149.50 178.73 150.41 C 178.99 151.32 179.93 151.84 180.84 151.59 Z M 181.77 151.31 L 182.71 151.04 C 183.61 150.77 184.12 149.83 183.85 148.93 C 183.59 148.03 182.65 147.52 181.75 147.79 L 180.81 148.06 C 179.91 148.33 179.40 149.27 179.66 150.17 C 179.93 151.06 180.87 151.58 181.77 151.31 Z M 182.72 151.02 L 183.68 150.72 C 184.57 150.45 185.07 149.51 184.80 148.63 C 184.53 147.74 183.59 147.24 182.70 147.51 L 181.74 147.80 C 180.85 148.07 180.35 149.01 180.62 149.90 C 180.89 150.79 181.83 151.29 182.72 151.02 Z M 183.69 150.71 L 184.67 150.40 C 185.54 150.13 186.03 149.19 185.76 148.32 C 185.49 147.44 184.55 146.95 183.67 147.22 L 182.70 147.53 C 181.82 147.80 181.33 148.73 181.60 149.61 C 181.88 150.49 182.81 150.98 183.69 150.71 Z M 184.67 150.39 L 185.65 150.08 C 186.52 149.80 187.01 148.87 186.73 148.00 C 186.46 147.13 185.53 146.65 184.66 146.92 L 183.67 147.24 C 182.80 147.51 182.32 148.44 182.59 149.31 C 182.87 150.18 183.80 150.66 184.67 150.39 Z M 185.65 150.07 L 186.02 149.95 C 186.88 149.68 187.36 148.75 187.09 147.89 C 186.81 147.02 185.89 146.54 185.02 146.82 L 184.66 146.93 C 183.79 147.21 183.32 148.13 183.59 149.00 C 183.86 149.86 184.79 150.34 185.65 150.07 Z"
      fill="black"
      fill-rule="nonzero" /><path d="M 172.31 161.70 L 173.29 161.53 C 174.28 161.35 174.93 160.42 174.76 159.43 C 174.58 158.45 173.64 157.80 172.66 157.97 L 171.68 158.15 C 170.70 158.32 170.04 159.26 170.22 160.24 C 170.39 161.22 171.33 161.88 172.31 161.70 Z M 173.34 161.54 L 174.32 161.35 C 175.31 161.15 175.95 160.18 175.75 159.19 C 175.55 158.20 174.59 157.56 173.60 157.76 L 172.62 157.96 C 171.63 158.16 170.98 159.12 171.18 160.11 C 171.38 161.10 172.35 161.74 173.34 161.54 Z M 174.41 161.35 L 175.38 161.11 C 176.37 160.86 176.97 159.86 176.73 158.86 C 176.48 157.87 175.47 157.27 174.48 157.51 L 173.51 157.75 C 172.52 158.00 171.91 159.01 172.16 160.00 C 172.41 161.00 173.41 161.60 174.41 161.35 Z M 175.48 161.08 L 176.28 160.83 C 177.26 160.53 177.81 159.49 177.50 158.51 C 177.20 157.53 176.16 156.98 175.18 157.29 L 174.38 157.54 C 173.40 157.84 172.85 158.88 173.16 159.86 C 173.46 160.84 174.50 161.39 175.48 161.08 Z M 176.34 160.79 L 177.19 160.49 C 178.14 160.16 178.64 159.11 178.30 158.15 C 177.97 157.19 176.92 156.69 175.96 157.03 L 175.12 157.33 C 174.16 157.67 173.66 158.72 174.00 159.68 C 174.34 160.63 175.39 161.13 176.34 160.79 Z M 177.21 160.46 L 178.18 160.10 C 179.12 159.75 179.60 158.71 179.25 157.77 C 178.90 156.83 177.85 156.35 176.91 156.70 L 175.94 157.06 C 175.00 157.41 174.52 158.46 174.87 159.40 C 175.22 160.33 176.27 160.81 177.21 160.46 Z M 178.17 160.08 L 179.31 159.66 C 180.24 159.32 180.71 158.29 180.37 157.36 C 180.03 156.43 178.99 155.95 178.07 156.30 L 176.93 156.72 C 176.00 157.06 175.52 158.09 175.86 159.02 C 176.21 159.95 177.24 160.43 178.17 160.08 Z M 179.29 159.65 L 180.15 159.34 C 181.07 159.01 181.55 157.99 181.22 157.07 C 180.89 156.14 179.87 155.66 178.95 156.00 L 178.08 156.31 C 177.16 156.64 176.68 157.66 177.02 158.58 C 177.35 159.50 178.37 159.98 179.29 159.65 Z M 180.14 159.33 L 181.08 159.00 C 181.99 158.67 182.47 157.67 182.15 156.75 C 181.82 155.83 180.82 155.35 179.90 155.67 L 178.96 156.01 C 178.04 156.33 177.56 157.34 177.89 158.26 C 178.21 159.18 179.22 159.66 180.14 159.33 Z M 181.06 158.99 L 182.04 158.65 C 182.96 158.33 183.44 157.33 183.12 156.42 C 182.80 155.50 181.80 155.02 180.89 155.34 L 179.91 155.68 C 179.00 156.00 178.51 157.00 178.83 157.91 C 179.15 158.83 180.15 159.31 181.06 158.99 Z M 182.03 158.64 L 183.03 158.30 C 183.94 157.99 184.42 157.00 184.11 156.09 C 183.79 155.18 182.81 154.70 181.90 155.01 L 180.90 155.35 C 179.99 155.66 179.51 156.65 179.82 157.56 C 180.13 158.47 181.12 158.95 182.03 158.64 Z M 183.02 158.29 L 183.99 157.96 C 184.90 157.65 185.38 156.67 185.07 155.77 C 184.77 154.87 183.79 154.38 182.88 154.69 L 181.91 155.02 C 181.00 155.32 180.52 156.30 180.83 157.21 C 181.13 158.11 182.11 158.60 183.02 158.29 Z M 183.98 157.95 L 184.91 157.64 C 185.81 157.34 186.29 156.37 185.99 155.47 C 185.70 154.57 184.72 154.09 183.83 154.39 L 182.90 154.70 C 182.00 154.99 181.51 155.97 181.81 156.86 C 182.11 157.76 183.08 158.25 183.98 157.95 Z M 184.89 157.63 L 185.99 157.27 C 186.89 156.98 187.38 156.02 187.09 155.13 C 186.79 154.24 185.83 153.75 184.94 154.04 L 183.84 154.40 C 182.95 154.69 182.46 155.65 182.75 156.54 C 183.04 157.43 184.00 157.92 184.89 157.63 Z M 185.98 157.26 L 186.97 156.95 C 187.86 156.67 188.35 155.72 188.07 154.83 C 187.79 153.95 186.84 153.45 185.95 153.73 L 184.96 154.05 C 184.07 154.33 183.58 155.28 183.86 156.16 C 184.14 157.05 185.09 157.54 185.98 157.26 Z M 186.96 156.94 L 187.87 156.65 C 188.76 156.38 189.25 155.45 188.98 154.57 C 188.71 153.68 187.77 153.19 186.89 153.46 L 185.97 153.75 C 185.09 154.02 184.59 154.95 184.87 155.83 C 185.14 156.72 186.07 157.21 186.96 156.94 Z M 187.86 156.64 L 188.73 156.38 C 189.61 156.11 190.10 155.19 189.84 154.31 C 189.57 153.44 188.65 152.95 187.77 153.21 L 186.90 153.47 C 186.03 153.74 185.53 154.66 185.80 155.54 C 186.06 156.41 186.99 156.91 187.86 156.64 Z M 188.73 156.37 L 189.31 156.19 C 190.18 155.93 190.67 155.02 190.41 154.15 C 190.15 153.28 189.23 152.79 188.36 153.05 L 187.78 153.22 C 186.91 153.48 186.42 154.40 186.68 155.27 C 186.94 156.14 187.86 156.63 188.73 156.37 Z"
      fill="black"
      fill-rule="nonzero" /><path d="M 171.76 174.86 L 172.73 175.22 C 173.65 175.57 174.68 175.11 175.03 174.18 C 175.37 173.26 174.91 172.24 173.99 171.89 L 173.02 171.52 C 172.10 171.18 171.07 171.64 170.72 172.56 C 170.38 173.49 170.84 174.51 171.76 174.86 Z M 172.87 175.26 L 173.84 175.53 C 174.78 175.80 175.76 175.26 176.03 174.32 C 176.29 173.38 175.75 172.40 174.81 172.13 L 173.85 171.85 C 172.91 171.59 171.93 172.13 171.66 173.07 C 171.39 174.01 171.93 174.99 172.87 175.26 Z M 174.15 175.58 L 175.10 175.68 C 176.07 175.78 176.93 175.07 177.03 174.10 C 177.13 173.14 176.42 172.28 175.46 172.18 L 174.50 172.08 C 173.53 171.98 172.67 172.69 172.57 173.65 C 172.48 174.62 173.18 175.48 174.15 175.58 Z M 175.53 175.66 L 176.31 175.55 C 177.27 175.41 177.93 174.52 177.80 173.57 C 177.66 172.61 176.77 171.95 175.82 172.08 L 175.03 172.20 C 174.07 172.33 173.41 173.22 173.55 174.18 C 173.68 175.13 174.57 175.80 175.53 175.66 Z M 176.64 175.46 L 177.45 175.18 C 178.36 174.86 178.84 173.86 178.52 172.95 C 178.20 172.04 177.20 171.57 176.29 171.89 L 175.49 172.17 C 174.58 172.49 174.10 173.49 174.42 174.39 C 174.74 175.30 175.73 175.78 176.64 175.46 Z M 177.63 175.10 L 178.55 174.65 C 179.42 174.23 179.78 173.19 179.36 172.32 C 178.94 171.46 177.90 171.10 177.03 171.52 L 176.11 171.97 C 175.24 172.39 174.88 173.43 175.30 174.29 C 175.72 175.16 176.77 175.52 177.63 175.10 Z M 178.63 174.61 L 179.73 174.00 C 180.58 173.54 180.88 172.48 180.42 171.64 C 179.96 170.80 178.91 170.49 178.07 170.95 L 176.96 171.56 C 176.12 172.02 175.81 173.08 176.27 173.92 C 176.73 174.76 177.79 175.07 178.63 174.61 Z M 179.75 173.99 L 180.60 173.51 C 181.43 173.04 181.73 171.99 181.26 171.15 C 180.79 170.32 179.73 170.02 178.90 170.49 L 178.05 170.97 C 177.22 171.43 176.92 172.49 177.39 173.32 C 177.86 174.16 178.91 174.46 179.75 173.99 Z M 180.60 173.50 L 181.46 173.02 C 182.29 172.55 182.58 171.50 182.11 170.67 C 181.64 169.84 180.59 169.54 179.76 170.01 L 178.90 170.50 C 178.07 170.97 177.78 172.02 178.24 172.85 C 178.71 173.68 179.77 173.97 180.60 173.50 Z M 181.46 173.01 L 182.36 172.50 C 183.19 172.03 183.48 170.98 183.01 170.16 C 182.54 169.33 181.49 169.04 180.67 169.51 L 179.76 170.02 C 178.94 170.49 178.65 171.54 179.11 172.36 C 179.58 173.19 180.63 173.48 181.46 173.01 Z M 182.36 172.49 L 183.28 171.97 C 184.10 171.50 184.39 170.46 183.92 169.63 C 183.45 168.81 182.41 168.52 181.58 168.99 L 180.67 169.51 C 179.84 169.98 179.56 171.03 180.02 171.85 C 180.49 172.67 181.54 172.96 182.36 172.49 Z M 183.28 171.96 L 184.18 171.44 C 185.00 170.98 185.29 169.93 184.82 169.11 C 184.35 168.30 183.31 168.01 182.49 168.48 L 181.58 169.00 C 180.77 169.47 180.48 170.51 180.95 171.33 C 181.42 172.15 182.46 172.43 183.28 171.96 Z M 184.19 171.44 L 185.05 170.94 C 185.86 170.47 186.14 169.43 185.67 168.62 C 185.20 167.80 184.16 167.52 183.35 167.99 L 182.49 168.49 C 181.67 168.96 181.39 170.00 181.86 170.81 C 182.33 171.63 183.37 171.91 184.19 171.44 Z M 185.05 170.93 L 185.96 170.40 C 186.77 169.92 187.04 168.89 186.57 168.08 C 186.10 167.27 185.06 167.00 184.26 167.47 L 183.34 168.00 C 182.54 168.47 182.26 169.51 182.74 170.32 C 183.21 171.13 184.24 171.40 185.05 170.93 Z M 185.97 170.38 L 186.99 169.78 C 187.79 169.30 188.05 168.27 187.57 167.47 C 187.10 166.67 186.07 166.41 185.27 166.88 L 184.25 167.49 C 183.45 167.96 183.19 168.99 183.66 169.79 C 184.14 170.59 185.17 170.86 185.97 170.38 Z M 187.00 169.76 L 187.86 169.23 C 188.65 168.75 188.90 167.72 188.42 166.93 C 187.95 166.14 186.92 165.89 186.13 166.37 L 185.26 166.90 C 184.47 167.38 184.22 168.41 184.70 169.20 C 185.18 169.99 186.21 170.24 187.00 169.76 Z M 187.87 169.21 L 188.63 168.74 C 189.41 168.26 189.65 167.23 189.17 166.45 C 188.68 165.67 187.66 165.43 186.88 165.92 L 186.12 166.39 C 185.34 166.87 185.10 167.90 185.59 168.68 C 186.07 169.46 187.09 169.69 187.87 169.21 Z M 188.64 168.72 L 189.33 168.29 C 190.10 167.80 190.33 166.78 189.84 166.01 C 189.35 165.24 188.33 165.01 187.56 165.50 L 186.87 165.93 C 186.10 166.42 185.87 167.44 186.36 168.21 C 186.85 168.98 187.87 169.21 188.64 168.72 Z M 189.33 168.27 L 190.16 167.74 C 190.92 167.25 191.14 166.24 190.65 165.48 C 190.16 164.71 189.14 164.49 188.38 164.98 L 187.56 165.51 C 186.79 166.00 186.57 167.02 187.06 167.78 C 187.55 168.54 188.57 168.76 189.33 168.27 Z M 190.18 167.73 L 190.99 167.18 C 191.75 166.68 191.95 165.66 191.44 164.91 C 190.94 164.15 189.92 163.95 189.17 164.46 L 188.36 165.00 C 187.60 165.50 187.40 166.52 187.90 167.28 C 188.41 168.03 189.43 168.23 190.18 167.73 Z M 191.03 167.15 L 191.85 166.57 C 192.59 166.04 192.76 165.02 192.23 164.28 C 191.71 163.55 190.68 163.38 189.95 163.90 L 189.13 164.49 C 188.39 165.01 188.22 166.04 188.75 166.77 C 189.27 167.51 190.30 167.68 191.03 167.15 Z M 191.90 166.53 L 192.87 165.78 C 193.59 165.22 193.71 164.19 193.16 163.48 C 192.60 162.76 191.58 162.64 190.86 163.19 L 189.90 163.94 C 189.18 164.50 189.05 165.53 189.61 166.24 C 190.16 166.95 191.19 167.08 191.90 166.53 Z M 192.91 165.74 L 193.88 164.93 C 194.58 164.35 194.67 163.32 194.09 162.63 C 193.51 161.93 192.48 161.84 191.79 162.42 L 190.82 163.23 C 190.12 163.81 190.03 164.84 190.61 165.53 C 191.19 166.23 192.22 166.32 192.91 165.74 Z M 193.92 164.90 L 194.44 164.44 C 195.11 163.84 195.17 162.81 194.57 162.13 C 193.97 161.45 192.94 161.39 192.26 162.00 L 191.75 162.45 C 191.07 163.05 191.01 164.09 191.61 164.76 C 192.21 165.44 193.25 165.50 193.92 164.90 Z M 192.36 161.89 L 192.14 162.06 C 191.41 162.60 191.26 163.64 191.80 164.37 C 192.34 165.10 193.38 165.25 194.11 164.71 L 194.34 164.54 C 195.07 164.00 195.22 162.96 194.67 162.23 C 194.13 161.50 193.10 161.35 192.36 161.89 Z M 192.02 162.11 L 191.21 162.82 C 190.51 163.43 190.43 164.49 191.04 165.20 C 191.65 165.90 192.71 165.97 193.42 165.36 L 194.23 164.66 C 194.93 164.05 195.01 162.98 194.40 162.28 C 193.79 161.58 192.72 161.50 192.02 162.11 Z M 191.13 162.84 L 190.12 163.80 C 189.43 164.45 189.39 165.53 190.04 166.22 C 190.69 166.92 191.78 166.95 192.47 166.30 L 193.49 165.34 C 194.18 164.69 194.21 163.61 193.56 162.92 C 192.91 162.22 191.83 162.19 191.13 162.84 Z M 190.05 163.83 L 189.33 164.57 C 188.66 165.26 188.67 166.36 189.36 167.03 C 190.05 167.70 191.15 167.69 191.82 167.00 L 192.54 166.26 C 193.21 165.58 193.20 164.47 192.51 163.80 C 191.82 163.13 190.72 163.14 190.05 163.83 Z M 189.29 164.59 L 188.59 165.34 C 187.94 166.06 187.98 167.17 188.70 167.83 C 189.41 168.48 190.52 168.44 191.18 167.72 L 191.87 166.97 C 192.53 166.26 192.48 165.15 191.77 164.49 C 191.05 163.84 189.94 163.88 189.29 164.59 Z M 188.56 165.36 L 187.90 166.11 C 187.25 166.84 187.32 167.96 188.06 168.60 C 188.79 169.25 189.91 169.18 190.55 168.45 L 191.21 167.71 C 191.86 166.97 191.79 165.86 191.06 165.21 C 190.33 164.56 189.21 164.63 188.56 165.36 Z M 187.88 166.11 L 187.24 166.85 C 186.60 167.59 186.69 168.72 187.43 169.36 C 188.18 170.01 189.30 169.92 189.95 169.18 L 190.58 168.44 C 191.22 167.70 191.14 166.57 190.39 165.93 C 189.65 165.28 188.52 165.37 187.88 166.11 Z M 187.23 166.85 L 186.55 167.65 C 185.91 168.40 186.01 169.53 186.76 170.17 C 187.52 170.81 188.65 170.72 189.29 169.96 L 189.97 169.17 C 190.61 168.41 190.51 167.28 189.76 166.64 C 189.00 166.00 187.87 166.10 187.23 166.85 Z M 186.53 167.66 L 185.91 168.42 C 185.28 169.19 185.39 170.32 186.15 170.95 C 186.92 171.59 188.06 171.48 188.69 170.71 L 189.31 169.95 C 189.94 169.18 189.83 168.05 189.07 167.42 C 188.30 166.78 187.17 166.89 186.53 167.66 Z M 185.88 168.44 L 185.28 169.20 C 184.66 169.98 184.79 171.12 185.58 171.74 C 186.36 172.36 187.49 172.23 188.11 171.44 L 188.71 170.69 C 189.33 169.91 189.20 168.77 188.42 168.15 C 187.64 167.53 186.50 167.66 185.88 168.44 Z M 185.26 169.23 L 184.67 170.00 C 184.07 170.79 184.22 171.93 185.02 172.53 C 185.82 173.14 186.95 172.98 187.55 172.18 L 188.14 171.42 C 188.74 170.62 188.59 169.49 187.79 168.88 C 187.00 168.28 185.86 168.43 185.26 169.23 Z M 184.66 170.02 L 184.07 170.81 C 183.48 171.62 183.65 172.75 184.46 173.34 C 185.26 173.94 186.39 173.76 186.99 172.96 L 187.57 172.16 C 188.16 171.36 187.99 170.23 187.19 169.63 C 186.38 169.04 185.25 169.21 184.66 170.02 Z M 184.06 170.82 L 183.47 171.64 C 182.88 172.45 183.06 173.59 183.87 174.17 C 184.68 174.76 185.81 174.58 186.40 173.77 L 186.99 172.95 C 187.58 172.14 187.40 171.01 186.59 170.42 C 185.78 169.83 184.65 170.01 184.06 170.82 Z M 183.46 171.64 L 182.87 172.46 C 182.28 173.27 182.46 174.41 183.27 175.00 C 184.08 175.58 185.21 175.40 185.80 174.59 L 186.40 173.77 C 186.99 172.96 186.81 171.83 186.00 171.24 C 185.19 170.65 184.05 170.83 183.46 171.64 Z M 182.87 172.46 L 182.29 173.26 C 181.70 174.07 181.88 175.20 182.69 175.79 C 183.49 176.38 184.63 176.20 185.22 175.39 L 185.80 174.60 C 186.39 173.79 186.21 172.66 185.40 172.07 C 184.59 171.48 183.46 171.65 182.87 172.46 Z M 182.29 173.26 L 181.70 174.07 C 181.11 174.88 181.29 176.02 182.10 176.61 C 182.91 177.19 184.04 177.01 184.63 176.20 L 185.22 175.39 C 185.81 174.58 185.63 173.45 184.82 172.86 C 184.01 172.27 182.87 172.45 182.29 173.26 Z M 181.69 174.08 L 181.10 174.91 C 180.52 175.72 180.70 176.85 181.52 177.44 C 182.33 178.02 183.46 177.83 184.05 177.02 L 184.64 176.19 C 185.22 175.38 185.03 174.25 184.22 173.66 C 183.40 173.08 182.27 173.27 181.69 174.08 Z M 181.09 174.92 L 180.51 175.75 C 179.94 176.57 180.14 177.70 180.96 178.27 C 181.78 178.84 182.91 178.64 183.48 177.82 L 184.06 177.00 C 184.63 176.18 184.43 175.05 183.61 174.48 C 182.79 173.91 181.66 174.10 181.09 174.92 Z M 180.50 175.76 L 179.94 176.59 C 179.38 177.41 179.59 178.54 180.42 179.10 C 181.24 179.67 182.37 179.45 182.93 178.63 L 183.49 177.81 C 184.06 176.98 183.84 175.85 183.02 175.29 C 182.19 174.73 181.07 174.94 180.50 175.76 Z M 179.94 176.60 L 179.38 177.43 C 178.82 178.26 179.05 179.39 179.88 179.94 C 180.71 180.50 181.83 180.27 182.38 179.44 L 182.94 178.61 C 183.49 177.78 183.27 176.66 182.44 176.11 C 181.61 175.55 180.49 175.77 179.94 176.60 Z M 179.37 177.45 L 178.82 178.29 C 178.27 179.12 178.50 180.24 179.34 180.79 C 180.17 181.33 181.29 181.10 181.83 180.27 L 182.39 179.43 C 182.94 178.60 182.71 177.48 181.87 176.93 C 181.04 176.38 179.92 176.61 179.37 177.45 Z M 178.82 178.30 L 178.28 179.12 C 177.74 179.96 177.98 181.07 178.81 181.61 C 179.64 182.16 180.76 181.92 181.30 181.09 L 181.84 180.26 C 182.38 179.43 182.14 178.31 181.31 177.77 C 180.48 177.23 179.36 177.46 178.82 178.30 Z M 178.28 179.14 L 177.75 179.97 C 177.21 180.80 177.45 181.91 178.29 182.45 C 179.12 182.98 180.23 182.74 180.76 181.91 L 181.30 181.07 C 181.83 180.24 181.59 179.13 180.76 178.60 C 179.92 178.06 178.82 178.30 178.28 179.14 Z M 177.74 179.99 L 177.21 180.83 C 176.69 181.67 176.94 182.77 177.77 183.30 C 178.61 183.82 179.71 183.57 180.23 182.74 L 180.77 181.89 C 181.29 181.05 181.04 179.95 180.21 179.43 C 179.37 178.90 178.27 179.15 177.74 179.99 Z M 177.21 180.85 L 176.67 181.72 C 176.16 182.56 176.42 183.66 177.26 184.17 C 178.09 184.68 179.19 184.42 179.70 183.59 L 180.24 182.72 C 180.75 181.88 180.49 180.79 179.65 180.27 C 178.82 179.76 177.72 180.02 177.21 180.85 Z M 176.67 181.75 L 176.15 182.61 C 175.65 183.45 175.92 184.53 176.76 185.04 C 177.60 185.54 178.69 185.26 179.19 184.43 L 179.71 183.56 C 180.21 182.72 179.94 181.64 179.10 181.14 C 178.26 180.63 177.17 180.91 176.67 181.75 Z M 176.15 182.63 L 175.64 183.51 C 175.16 184.35 175.44 185.42 176.28 185.91 C 177.12 186.40 178.20 186.11 178.69 185.27 L 179.19 184.40 C 179.68 183.56 179.40 182.48 178.56 181.99 C 177.72 181.51 176.64 181.79 176.15 182.63 Z M 175.64 183.53 L 175.15 184.41 C 174.68 185.25 174.98 186.32 175.82 186.79 C 176.66 187.26 177.73 186.96 178.20 186.12 L 178.69 185.24 C 179.17 184.40 178.86 183.34 178.02 182.86 C 177.18 182.39 176.11 182.69 175.64 183.53 Z M 175.14 184.44 L 174.67 185.32 C 174.22 186.16 174.53 187.22 175.38 187.67 C 176.22 188.13 177.28 187.81 177.73 186.97 L 178.21 186.09 C 178.66 185.25 178.34 184.19 177.50 183.74 C 176.65 183.28 175.60 183.60 175.14 184.44 Z M 174.67 185.35 L 174.20 186.26 C 173.76 187.11 174.10 188.15 174.95 188.59 C 175.80 189.03 176.84 188.69 177.27 187.84 L 177.74 186.93 C 178.18 186.08 177.84 185.04 176.99 184.60 C 176.14 184.17 175.10 184.50 174.67 185.35 Z M 174.19 186.30 L 173.75 187.22 C 173.33 188.07 173.69 189.10 174.54 189.51 C 175.39 189.93 176.42 189.57 176.83 188.72 L 177.28 187.80 C 177.69 186.95 177.34 185.93 176.49 185.51 C 175.64 185.09 174.61 185.45 174.19 186.30 Z M 173.74 187.25 L 173.33 188.15 C 172.93 189.00 173.30 190.01 174.15 190.41 C 175.00 190.81 176.02 190.44 176.42 189.59 L 176.83 188.69 C 177.23 187.84 176.86 186.82 176.01 186.42 C 175.16 186.03 174.14 186.40 173.74 187.25 Z M 173.33 188.17 L 172.93 189.05 C 172.55 189.91 172.93 190.91 173.78 191.29 C 174.64 191.67 175.64 191.29 176.02 190.44 L 176.41 189.56 C 176.80 188.71 176.42 187.71 175.56 187.32 C 174.71 186.94 173.71 187.32 173.33 188.17 Z M 172.93 189.08 L 172.54 189.98 C 172.17 190.83 172.57 191.82 173.42 192.19 C 174.27 192.56 175.26 192.17 175.63 191.32 L 176.02 190.42 C 176.39 189.56 176.00 188.57 175.14 188.20 C 174.29 187.84 173.30 188.23 172.93 189.08 Z M 172.54 190.02 L 172.17 190.93 C 171.82 191.79 172.24 192.76 173.09 193.11 C 173.95 193.45 174.92 193.04 175.27 192.18 L 175.64 191.27 C 175.98 190.42 175.57 189.44 174.71 189.10 C 173.86 188.75 172.88 189.17 172.54 190.02 Z M 172.15 191.00 L 171.82 191.94 C 171.51 192.80 171.96 193.75 172.82 194.06 C 173.68 194.37 174.63 193.92 174.94 193.06 L 175.28 192.12 C 175.59 191.26 175.14 190.30 174.28 189.99 C 173.42 189.68 172.46 190.13 172.15 191.00 Z M 171.80 192.02 L 171.50 192.99 C 171.24 193.87 171.73 194.79 172.61 195.05 C 173.48 195.32 174.40 194.82 174.67 193.95 L 174.96 192.98 C 175.23 192.11 174.73 191.18 173.86 190.92 C 172.99 190.65 172.06 191.15 171.80 192.02 Z M 171.49 193.07 L 171.25 194.00 C 171.03 194.88 171.57 195.78 172.45 196.00 C 173.33 196.22 174.23 195.69 174.45 194.80 L 174.68 193.87 C 174.91 192.99 174.37 192.10 173.49 191.87 C 172.61 191.65 171.71 192.19 171.49 193.07 Z M 171.25 194.05 L 171.03 195.03 C 170.84 195.91 171.40 196.79 172.29 196.98 C 173.17 197.18 174.05 196.62 174.24 195.73 L 174.46 194.75 C 174.65 193.87 174.09 192.99 173.20 192.80 C 172.32 192.60 171.44 193.16 171.25 194.05 Z M 171.03 195.06 L 170.83 196.06 C 170.65 196.95 171.23 197.81 172.12 197.99 C 173.01 198.17 173.87 197.59 174.05 196.70 L 174.25 195.70 C 174.42 194.81 173.85 193.94 172.96 193.77 C 172.07 193.59 171.20 194.17 171.03 195.06 Z M 170.83 196.08 L 170.65 197.03 C 170.48 197.92 171.07 198.78 171.95 198.95 C 172.84 199.11 173.70 198.53 173.87 197.64 L 174.05 196.68 C 174.22 195.80 173.63 194.94 172.74 194.77 C 171.85 194.60 171.00 195.19 170.83 196.08 Z"
      fill="black"
      fill-rule="nonzero" /><path d="M 185.00 178.89 L 186.03 179.04 C 186.98 179.18 187.86 178.53 188.00 177.57 C 188.14 176.62 187.48 175.74 186.53 175.60 L 185.51 175.45 C 184.56 175.31 183.67 175.97 183.53 176.92 C 183.39 177.87 184.05 178.75 185.00 178.89 Z M 185.99 179.05 L 186.99 179.22 C 187.95 179.38 188.85 178.74 189.01 177.79 C 189.17 176.83 188.53 175.93 187.58 175.76 L 186.57 175.59 C 185.62 175.43 184.72 176.07 184.55 177.03 C 184.39 177.98 185.03 178.89 185.99 179.05 Z M 186.91 179.22 L 187.86 179.43 C 188.82 179.64 189.76 179.03 189.97 178.08 C 190.18 177.13 189.57 176.19 188.62 175.98 L 187.66 175.77 C 186.71 175.56 185.77 176.16 185.56 177.11 C 185.35 178.07 185.95 179.01 186.91 179.22 Z M 187.72 179.40 L 188.65 179.69 C 189.59 179.97 190.59 179.44 190.87 178.50 C 191.16 177.56 190.63 176.57 189.69 176.28 L 188.76 176.00 C 187.82 175.71 186.83 176.24 186.54 177.18 C 186.25 178.13 186.78 179.12 187.72 179.40 Z M 188.48 179.64 L 189.39 180.02 C 190.30 180.40 191.36 179.97 191.74 179.05 C 192.12 178.14 191.68 177.08 190.77 176.70 L 189.86 176.32 C 188.94 175.94 187.89 176.38 187.51 177.29 C 187.13 178.21 187.56 179.26 188.48 179.64 Z M 189.25 179.98 L 190.13 180.43 C 191.02 180.89 192.12 180.53 192.57 179.64 C 193.03 178.75 192.68 177.65 191.78 177.19 L 190.90 176.74 C 190.01 176.29 188.92 176.64 188.46 177.53 C 188.00 178.43 188.36 179.52 189.25 179.98 Z M 190.05 180.41 L 190.93 180.91 C 191.81 181.41 192.93 181.10 193.43 180.21 C 193.93 179.33 193.62 178.21 192.74 177.71 L 191.86 177.21 C 190.98 176.71 189.86 177.02 189.36 177.91 C 188.86 178.79 189.17 179.91 190.05 180.41 Z M 190.90 180.90 L 191.69 181.37 C 192.57 181.88 193.70 181.58 194.22 180.70 C 194.73 179.82 194.44 178.69 193.56 178.18 L 192.76 177.71 C 191.88 177.20 190.75 177.50 190.24 178.38 C 189.72 179.26 190.02 180.39 190.90 180.90 Z M 191.69 181.37 L 192.53 181.86 C 193.41 182.38 194.54 182.08 195.06 181.20 C 195.58 180.32 195.28 179.19 194.40 178.67 L 193.56 178.18 C 192.68 177.66 191.55 177.95 191.03 178.83 C 190.51 179.72 190.81 180.85 191.69 181.37 Z M 192.53 181.87 L 193.43 182.39 C 194.32 182.90 195.45 182.61 195.97 181.72 C 196.48 180.84 196.18 179.70 195.30 179.19 L 194.40 178.66 C 193.51 178.15 192.38 178.45 191.87 179.33 C 191.35 180.22 191.65 181.35 192.53 181.87 Z M 193.44 182.40 L 194.36 182.93 C 195.25 183.43 196.39 183.13 196.90 182.24 C 197.40 181.35 197.10 180.22 196.21 179.71 L 195.29 179.18 C 194.40 178.67 193.27 178.98 192.76 179.87 C 192.25 180.76 192.56 181.89 193.44 182.40 Z M 194.38 182.93 L 195.19 183.39 C 196.08 183.89 197.21 183.58 197.72 182.68 C 198.22 181.79 197.90 180.66 197.01 180.16 L 196.20 179.70 C 195.30 179.20 194.17 179.51 193.67 180.41 C 193.17 181.30 193.48 182.43 194.38 182.93 Z M 195.19 183.39 L 196.04 183.87 C 196.94 184.37 198.07 184.05 198.57 183.15 C 199.07 182.26 198.75 181.13 197.85 180.63 L 197.00 180.15 C 196.11 179.65 194.98 179.97 194.48 180.87 C 193.98 181.76 194.30 182.89 195.19 183.39 Z M 196.04 183.87 L 196.93 184.36 C 197.82 184.86 198.95 184.54 199.45 183.65 C 199.95 182.75 199.63 181.62 198.74 181.12 L 197.85 180.63 C 196.96 180.13 195.83 180.45 195.33 181.34 C 194.83 182.24 195.15 183.37 196.04 183.87 Z M 196.92 184.36 L 197.84 184.87 C 198.73 185.38 199.86 185.06 200.37 184.17 C 200.87 183.27 200.55 182.14 199.66 181.64 L 198.74 181.12 C 197.85 180.62 196.72 180.94 196.21 181.83 C 195.71 182.73 196.03 183.86 196.92 184.36 Z M 197.83 184.87 L 198.74 185.39 C 199.63 185.90 200.76 185.58 201.27 184.69 C 201.78 183.80 201.47 182.67 200.57 182.16 L 199.67 181.64 C 198.77 181.13 197.64 181.44 197.13 182.34 C 196.62 183.23 196.94 184.36 197.83 184.87 Z M 198.72 185.38 L 199.58 185.87 C 200.47 186.39 201.60 186.09 202.12 185.20 C 202.63 184.31 202.33 183.17 201.44 182.66 L 200.59 182.17 C 199.70 181.65 198.56 181.96 198.05 182.84 C 197.53 183.73 197.84 184.87 198.72 185.38 Z M 199.57 185.87 L 200.43 186.37 C 201.31 186.89 202.45 186.60 202.97 185.72 C 203.49 184.83 203.20 183.69 202.31 183.18 L 201.45 182.67 C 200.57 182.15 199.43 182.44 198.91 183.33 C 198.39 184.21 198.68 185.35 199.57 185.87 Z M 200.42 186.37 L 201.29 186.88 C 202.16 187.41 203.30 187.12 203.83 186.24 C 204.35 185.36 204.07 184.23 203.19 183.70 L 202.32 183.18 C 201.44 182.66 200.31 182.94 199.78 183.82 C 199.25 184.70 199.54 185.84 200.42 186.37 Z M 201.27 186.87 L 202.14 187.40 C 203.01 187.93 204.15 187.65 204.68 186.78 C 205.21 185.91 204.94 184.77 204.06 184.23 L 203.20 183.71 C 202.33 183.18 201.19 183.46 200.65 184.33 C 200.12 185.20 200.40 186.34 201.27 186.87 Z M 202.12 187.39 L 202.98 187.92 C 203.85 188.46 204.99 188.19 205.53 187.32 C 206.06 186.45 205.80 185.31 204.93 184.77 L 204.07 184.24 C 203.21 183.71 202.06 183.97 201.53 184.84 C 200.99 185.71 201.26 186.85 202.12 187.39 Z M 202.96 187.91 L 203.84 188.46 C 204.70 189.00 205.84 188.75 206.39 187.89 C 206.93 187.02 206.68 185.88 205.81 185.34 L 204.94 184.79 C 204.08 184.24 202.94 184.50 202.39 185.36 C 201.85 186.22 202.10 187.36 202.96 187.91 Z M 203.83 188.44 L 204.69 189.00 C 205.54 189.55 206.68 189.31 207.23 188.46 C 207.79 187.60 207.54 186.47 206.69 185.91 L 205.83 185.35 C 204.97 184.80 203.83 185.05 203.28 185.90 C 202.73 186.75 202.97 187.89 203.83 188.44 Z M 204.68 188.98 L 205.52 189.54 C 206.36 190.10 207.50 189.87 208.06 189.03 C 208.62 188.18 208.39 187.05 207.54 186.49 L 206.70 185.93 C 205.86 185.37 204.72 185.60 204.16 186.45 C 203.61 187.29 203.84 188.43 204.68 188.98 Z M 205.51 189.52 L 206.32 190.08 C 207.16 190.64 208.29 190.43 208.86 189.60 C 209.42 188.76 209.21 187.63 208.37 187.06 L 207.56 186.51 C 206.72 185.94 205.59 186.16 205.02 186.99 C 204.46 187.82 204.67 188.96 205.51 189.52 Z M 206.31 190.06 L 207.10 190.61 C 207.92 191.18 209.05 190.98 209.63 190.16 C 210.20 189.34 210.00 188.21 209.18 187.63 L 208.39 187.08 C 207.56 186.51 206.43 186.71 205.86 187.53 C 205.29 188.35 205.49 189.48 206.31 190.06 Z M 207.08 190.59 L 207.91 191.18 C 208.72 191.76 209.85 191.58 210.43 190.77 C 211.01 189.96 210.83 188.83 210.02 188.25 L 209.19 187.66 C 208.38 187.07 207.25 187.26 206.67 188.07 C 206.09 188.88 206.27 190.00 207.08 190.59 Z M 207.89 191.15 L 208.73 191.78 C 209.52 192.37 210.64 192.21 211.24 191.41 C 211.83 190.62 211.66 189.50 210.87 188.91 L 210.04 188.28 C 209.24 187.69 208.12 187.85 207.53 188.65 C 206.94 189.44 207.10 190.56 207.89 191.15 Z M 208.71 191.74 L 209.50 192.36 C 210.27 192.96 211.39 192.83 211.99 192.06 C 212.60 191.28 212.46 190.17 211.69 189.57 L 210.89 188.94 C 210.12 188.34 209.01 188.48 208.40 189.25 C 207.80 190.02 207.94 191.14 208.71 191.74 Z M 209.47 192.32 L 210.22 192.94 C 210.97 193.56 212.08 193.45 212.70 192.70 C 213.32 191.95 213.21 190.85 212.46 190.23 L 211.72 189.61 C 210.97 188.99 209.86 189.09 209.24 189.84 C 208.62 190.59 208.72 191.70 209.47 192.32 Z M 210.19 192.89 L 210.89 193.51 C 211.61 194.15 212.71 194.08 213.35 193.36 C 213.99 192.64 213.92 191.54 213.20 190.90 L 212.50 190.28 C 211.77 189.64 210.67 189.71 210.04 190.43 C 209.40 191.15 209.47 192.25 210.19 192.89 Z M 210.85 193.44 L 211.61 194.18 C 212.29 194.84 213.38 194.82 214.05 194.14 C 214.71 193.45 214.69 192.36 214.01 191.70 L 213.24 190.97 C 212.56 190.30 211.47 190.32 210.81 191.01 C 210.15 191.69 210.16 192.78 210.85 193.44 Z M 211.55 194.09 L 212.23 194.83 C 212.86 195.53 213.94 195.58 214.63 194.94 C 215.33 194.31 215.38 193.24 214.75 192.54 L 214.06 191.80 C 213.43 191.10 212.36 191.05 211.66 191.68 C 210.97 192.32 210.92 193.39 211.55 194.09 Z M 212.16 194.71 L 212.75 195.48 C 213.32 196.21 214.37 196.35 215.10 195.78 C 215.84 195.22 215.97 194.16 215.41 193.43 L 214.82 192.66 C 214.25 191.93 213.20 191.79 212.46 192.36 C 211.73 192.92 211.59 193.98 212.16 194.71 Z M 212.67 195.33 L 213.18 196.14 C 213.66 196.92 214.68 197.16 215.46 196.68 C 216.24 196.19 216.48 195.17 215.99 194.39 L 215.49 193.58 C 215.01 192.80 213.98 192.56 213.20 193.04 C 212.43 193.53 212.19 194.55 212.67 195.33 Z M 213.10 195.98 L 213.53 196.88 C 213.93 197.70 214.91 198.05 215.73 197.66 C 216.55 197.26 216.90 196.28 216.50 195.46 L 216.07 194.56 C 215.68 193.74 214.69 193.39 213.87 193.78 C 213.05 194.18 212.71 195.16 213.10 195.98 Z M 213.48 196.76 L 213.84 197.69 C 214.16 198.54 215.11 198.96 215.96 198.64 C 216.81 198.31 217.23 197.36 216.91 196.51 L 216.55 195.58 C 216.23 194.74 215.28 194.31 214.43 194.64 C 213.58 194.96 213.16 195.91 213.48 196.76 Z M 213.82 197.62 L 214.13 198.57 C 214.42 199.43 215.35 199.89 216.21 199.60 C 217.07 199.32 217.53 198.39 217.25 197.53 L 216.93 196.59 C 216.65 195.73 215.72 195.26 214.86 195.55 C 214.00 195.83 213.53 196.76 213.82 197.62 Z M 214.13 198.55 L 214.20 198.76 C 214.47 199.63 215.40 200.10 216.26 199.82 C 217.12 199.55 217.59 198.63 217.32 197.77 L 217.25 197.55 C 216.97 196.69 216.05 196.21 215.19 196.49 C 214.33 196.76 213.85 197.69 214.13 198.55 Z"
      fill="black"
      fill-rule="nonzero" /></svg>