<svg xmlns="http://www.w3.org/2000/svg" width="300" height="300" viewBox="0 0 300 300">
<path d="M 131.39 101.80 L 132.26 101.36 C 133.13 100.91 133.47 99.85 133.03 98.98 C 132.58 98.11 131.52 97.77 130.65 98.21 L 129.78 98.65 C 128.91 99.10 128.57 100.16 129.01 101.03 C 129.46 101.90 130.52 102.25 131.39 101.80 Z M 132.21 101.41 L 133.10 101.00 C 133.99 100.58 134.39 99.52 133.97 98.62 C 133.55 97.72 132.49 97.33 131.59 97.75 L 130.70 98.16 C 129.80 98.57 129.41 99.64 129.82 100.54 C 130.24 101.44 131.31 101.83 132.21 101.41 Z M 132.98 101.08 L 133.92 100.72 C 134.86 100.37 135.34 99.32 134.99 98.38 C 134.63 97.44 133.59 96.97 132.64 97.32 L 131.70 97.67 C 130.76 98.02 130.29 99.07 130.64 100.01 C 130.99 100.95 132.04 101.43 132.98 101.08 Z M 133.74 100.80 L 134.74 100.55 C 135.73 100.29 136.32 99.29 136.06 98.30 C 135.81 97.32 134.81 96.73 133.82 96.98 L 132.82 97.24 C 131.84 97.49 131.24 98.50 131.50 99.48 C 131.75 100.47 132.76 101.06 133.74 100.80 Z M 134.55 100.59 L 135.52 100.44 C 136.53 100.29 137.22 99.35 137.07 98.35 C 136.92 97.34 135.98 96.64 134.98 96.79 L 134.01 96.94 C 133.00 97.09 132.31 98.03 132.46 99.03 C 132.61 100.04 133.55 100.74 134.55 100.59 Z M 135.39 100.45 L 136.40 100.37 C 137.41 100.29 138.16 99.41 138.08 98.40 C 138.01 97.39 137.13 96.63 136.12 96.71 L 135.11 96.79 C 134.10 96.87 133.34 97.75 133.42 98.76 C 133.50 99.77 134.38 100.52 135.39 100.45 Z M 136.31 100.36 L 137.33 100.33 C 138.34 100.30 139.13 99.46 139.10 98.45 C 139.07 97.45 138.23 96.66 137.22 96.69 L 136.20 96.72 C 135.19 96.75 134.40 97.59 134.43 98.60 C 134.47 99.60 135.31 100.39 136.31 100.36 Z M 137.29 100.32 L 138.29 100.31 C 139.29 100.31 140.09 99.49 140.09 98.49 C 140.08 97.49 139.27 96.69 138.27 96.69 L 137.26 96.70 C 136.26 96.71 135.46 97.52 135.47 98.52 C 135.47 99.52 136.29 100.33 137.29 100.32 Z M 138.28 100.30 L 139.34 100.30 C 140.33 100.30 141.13 99.49 141.13 98.50 C 141.13 97.51 140.33 96.71 139.34 96.71 L 138.28 96.71 C 137.29 96.71 136.48 97.51 136.48 98.50 C 136.48 99.49 137.29 100.30 138.28 100.30 Z M 139.34 100.27 L 140.37 100.27 C 141.35 100.27 142.14 99.48 142.14 98.50 C 142.14 97.53 141.35 96.73 140.37 96.73 L 139.34 96.73 C 138.36 96.73 137.57 97.53 137.57 98.50 C 137.57 99.48 138.36 100.27 139.34 100.27 Z M 140.37 100.25 L 141.35 100.25 C 142.31 100.25 143.09 99.47 143.09 98.50 C 143.09 97.54 142.31 96.76 141.35 96.76 L 140.37 96.76 C 139.41 96.76 138.63 97.54 138.63 98.50 C 138.63 99.47 139.41 100.25 140.37 100.25 Z M 141.35 100.22 L 142.27 100.22 C 143.22 100.22 143.99 99.45 143.99 98.50 C 143.99 97.56 143.22 96.79 142.27 96.79 L 141.35 96.79 C 140.40 96.79 139.63 97.56 139.63 98.50 C 139.63 99.45 140.40 100.22 141.35 100.22 Z M 142.27 100.20 L 143.30 100.20 C 144.23 100.20 144.99 99.45 145.00 98.51 C 145.00 97.58 144.24 96.81 143.31 96.81 L 142.28 96.81 C 141.34 96.81 140.58 97.56 140.58 98.50 C 140.58 99.43 141.33 100.19 142.27 100.20 Z M 143.27 100.18 L 144.26 100.20 C 145.19 100.22 145.95 99.49 145.97 98.56 C 145.99 97.64 145.26 96.87 144.33 96.85 L 143.34 96.83 C 142.41 96.81 141.65 97.54 141.63 98.47 C 141.61 99.40 142.34 100.16 143.27 100.18 Z M 144.20 100.18 L 145.18 100.24 C 146.09 100.30 146.88 99.60 146.93 98.68 C 146.99 97.77 146.29 96.98 145.38 96.93 L 144.40 96.87 C 143.48 96.82 142.70 97.51 142.64 98.43 C 142.59 99.34 143.29 100.13 144.20 100.18 Z M 145.09 100.22 L 146.07 100.33 C 146.97 100.44 147.79 99.79 147.89 98.89 C 148.00 97.99 147.35 97.17 146.45 97.06 L 145.47 96.95 C 144.56 96.85 143.75 97.49 143.64 98.40 C 143.54 99.30 144.18 100.12 145.09 100.22 Z M 145.99 100.32 L 146.97 100.48 C 147.87 100.63 148.71 100.03 148.86 99.13 C 149.01 98.24 148.41 97.39 147.51 97.24 L 146.53 97.08 C 145.63 96.93 144.79 97.54 144.64 98.43 C 144.49 99.32 145.09 100.17 145.99 100.32 Z M 146.93 100.47 L 147.91 100.67 C 148.80 100.84 149.66 100.26 149.83 99.37 C 150.01 98.48 149.43 97.62 148.54 97.45 L 147.56 97.25 C 146.67 97.08 145.81 97.66 145.63 98.55 C 145.46 99.43 146.04 100.30 146.93 100.47 Z M 147.89 100.66 L 148.42 100.77 C 149.31 100.95 150.18 100.38 150.36 99.50 C 150.54 98.61 149.97 97.75 149.09 97.56 L 148.56 97.45 C 147.67 97.27 146.81 97.84 146.62 98.72 C 146.44 99.61 147.01 100.48 147.89 100.66 Z"
      fill="black"
      fill-rule="nonzero" /><path d="M 115.80 115.14 L 115.15 115.95 C 114.52 116.71 114.63 117.84 115.40 118.47 C 116.17 119.10 117.30 118.98 117.93 118.22 L 118.58 117.42 C 119.21 116.65 119.10 115.52 118.33 114.89 C 117.56 114.26 116.43 114.38 115.80 115.14 Z M 115.13 115.96 L 114.49 116.76 C 113.87 117.54 114.00 118.67 114.78 119.29 C 115.56 119.91 116.69 119.78 117.31 119.00 L 117.94 118.20 C 118.56 117.42 118.43 116.29 117.66 115.67 C 116.88 115.06 115.75 115.18 115.13 115.96 Z M 114.46 116.80 L 113.86 117.60 C 113.26 118.40 113.42 119.52 114.21 120.12 C 115.01 120.72 116.14 120.56 116.74 119.77 L 117.34 118.97 C 117.94 118.17 117.78 117.04 116.98 116.44 C 116.19 115.85 115.06 116.00 114.46 116.80 Z M 113.81 117.66 L 113.26 118.46 C 112.69 119.28 112.90 120.41 113.72 120.97 C 114.54 121.54 115.67 121.33 116.23 120.51 L 116.78 119.71 C 117.35 118.89 117.14 117.76 116.32 117.20 C 115.50 116.63 114.37 116.84 113.81 117.66 Z M 113.19 118.55 L 112.70 119.38 C 112.19 120.23 112.46 121.35 113.32 121.86 C 114.18 122.37 115.29 122.10 115.80 121.24 L 116.29 120.42 C 116.81 119.56 116.53 118.45 115.68 117.94 C 114.82 117.42 113.71 117.70 113.19 118.55 Z M 112.62 119.51 L 112.19 120.38 C 111.75 121.28 112.12 122.37 113.02 122.81 C 113.92 123.25 115.01 122.88 115.45 121.98 L 115.88 121.11 C 116.32 120.21 115.95 119.12 115.05 118.68 C 114.15 118.24 113.07 118.61 112.62 119.51 Z M 112.12 120.54 L 111.78 121.45 C 111.43 122.39 111.90 123.44 112.84 123.79 C 113.78 124.14 114.83 123.67 115.18 122.73 L 115.52 121.82 C 115.87 120.88 115.40 119.83 114.46 119.48 C 113.52 119.13 112.47 119.61 112.12 120.54 Z M 111.72 121.63 L 111.46 122.59 C 111.21 123.56 111.79 124.56 112.76 124.82 C 113.73 125.08 114.73 124.50 114.99 123.52 L 115.24 122.56 C 115.50 121.58 114.92 120.59 113.95 120.33 C 112.97 120.07 111.98 120.65 111.72 121.63 Z M 111.42 122.76 L 111.25 123.80 C 111.09 124.80 111.76 125.74 112.75 125.90 C 113.75 126.06 114.69 125.39 114.85 124.40 L 115.03 123.36 C 115.19 122.36 114.52 121.42 113.52 121.26 C 112.53 121.09 111.59 121.76 111.42 122.76 Z M 111.23 123.94 L 111.14 124.92 C 111.05 125.92 111.80 126.81 112.80 126.90 C 113.81 126.99 114.70 126.25 114.78 125.24 L 114.87 124.26 C 114.96 123.26 114.22 122.37 113.21 122.28 C 112.21 122.19 111.32 122.93 111.23 123.94 Z M 111.14 125.02 L 111.11 126.05 C 111.07 127.06 111.87 127.90 112.87 127.93 C 113.88 127.96 114.73 127.17 114.76 126.16 L 114.79 125.14 C 114.82 124.13 114.03 123.29 113.02 123.25 C 112.01 123.22 111.17 124.01 111.14 125.02 Z M 111.11 126.14 L 111.13 127.17 C 111.14 128.18 111.98 128.98 112.99 128.96 C 114.00 128.94 114.80 128.11 114.78 127.10 L 114.76 126.07 C 114.74 125.06 113.91 124.26 112.90 124.28 C 111.89 124.30 111.09 125.13 111.11 126.14 Z M 111.13 127.26 L 111.20 128.26 C 111.27 129.27 112.14 130.03 113.15 129.96 C 114.15 129.89 114.91 129.02 114.84 128.02 L 114.77 127.01 C 114.71 126.01 113.83 125.24 112.83 125.31 C 111.82 125.38 111.06 126.25 111.13 127.26 Z M 111.21 128.36 L 111.32 129.32 C 111.45 130.32 112.36 131.03 113.36 130.91 C 114.36 130.79 115.07 129.88 114.95 128.88 L 114.83 127.92 C 114.71 126.92 113.80 126.20 112.80 126.33 C 111.80 126.45 111.09 127.36 111.21 128.36 Z M 111.35 129.44 L 111.56 130.52 C 111.75 131.51 112.70 132.16 113.69 131.97 C 114.68 131.78 115.32 130.82 115.13 129.83 L 114.93 128.75 C 114.73 127.77 113.78 127.12 112.79 127.31 C 111.80 127.50 111.16 128.46 111.35 129.44 Z M 111.60 130.66 L 111.87 131.63 C 112.14 132.59 113.13 133.16 114.10 132.89 C 115.06 132.62 115.63 131.62 115.36 130.66 L 115.09 129.70 C 114.82 128.73 113.83 128.17 112.86 128.43 C 111.90 128.70 111.33 129.70 111.60 130.66 Z M 111.92 131.74 L 112.23 132.63 C 112.56 133.57 113.59 134.06 114.53 133.73 C 115.46 133.40 115.96 132.37 115.63 131.44 L 115.31 130.55 C 114.98 129.61 113.95 129.11 113.02 129.44 C 112.08 129.78 111.58 130.80 111.92 131.74 Z M 112.27 132.71 L 112.62 133.58 C 113.00 134.49 114.04 134.93 114.96 134.56 C 115.87 134.19 116.31 133.14 115.94 132.23 L 115.59 131.36 C 115.21 130.44 114.17 130.00 113.25 130.38 C 112.34 130.75 111.90 131.79 112.27 132.71 Z M 112.65 133.62 L 113.05 134.51 C 113.44 135.41 114.49 135.82 115.39 135.42 C 116.29 135.03 116.70 133.98 116.30 133.08 L 115.91 132.19 C 115.51 131.29 114.46 130.88 113.57 131.27 C 112.67 131.67 112.26 132.72 112.65 133.62 Z M 113.08 134.54 L 113.50 135.44 C 113.90 136.32 114.95 136.71 115.83 136.30 C 116.71 135.89 117.10 134.85 116.69 133.96 L 116.27 133.06 C 115.87 132.18 114.82 131.79 113.94 132.20 C 113.06 132.61 112.67 133.65 113.08 134.54 Z M 113.52 135.45 L 113.95 136.37 C 114.37 137.24 115.41 137.61 116.28 137.19 C 117.15 136.78 117.52 135.74 117.10 134.87 L 116.67 133.95 C 116.25 133.08 115.21 132.71 114.34 133.13 C 113.48 133.54 113.11 134.58 113.52 135.45 Z M 113.97 136.37 L 114.39 137.24 C 114.80 138.10 115.84 138.46 116.69 138.05 C 117.55 137.63 117.92 136.60 117.50 135.74 L 117.08 134.87 C 116.67 134.01 115.64 133.65 114.78 134.06 C 113.92 134.47 113.56 135.51 113.97 136.37 Z M 114.40 137.23 L 114.81 138.06 C 115.21 138.92 116.24 139.28 117.09 138.87 C 117.94 138.46 118.30 137.44 117.89 136.58 L 117.49 135.75 C 117.08 134.90 116.06 134.54 115.21 134.95 C 114.35 135.36 114.00 136.38 114.40 137.23 Z M 114.82 138.06 L 115.24 138.94 C 115.64 139.78 116.66 140.14 117.50 139.73 C 118.35 139.33 118.70 138.32 118.30 137.47 L 117.88 136.59 C 117.47 135.75 116.46 135.39 115.62 135.79 C 114.77 136.20 114.41 137.21 114.82 138.06 Z M 115.25 138.93 L 115.70 139.87 C 116.10 140.71 117.10 141.07 117.94 140.67 C 118.78 140.27 119.13 139.27 118.74 138.43 L 118.29 137.48 C 117.89 136.64 116.89 136.29 116.05 136.69 C 115.21 137.08 114.85 138.09 115.25 138.93 Z M 115.71 139.86 L 116.17 140.83 C 116.56 141.66 117.55 142.02 118.39 141.63 C 119.22 141.24 119.58 140.24 119.18 139.41 L 118.73 138.44 C 118.33 137.61 117.34 137.25 116.51 137.64 C 115.67 138.03 115.32 139.03 115.71 139.86 Z M 116.17 140.82 L 116.57 141.66 C 116.95 142.49 117.94 142.85 118.77 142.46 C 119.60 142.07 119.96 141.08 119.57 140.25 L 119.18 139.42 C 118.79 138.59 117.80 138.23 116.97 138.62 C 116.14 139.01 115.79 140.00 116.17 140.82 Z M 116.57 141.66 L 116.98 142.54 C 117.37 143.37 118.35 143.72 119.18 143.34 C 120.01 142.95 120.36 141.97 119.98 141.14 L 119.57 140.26 C 119.18 139.43 118.20 139.07 117.37 139.46 C 116.54 139.84 116.18 140.83 116.57 141.66 Z M 116.98 142.53 L 117.41 143.45 C 117.79 144.28 118.77 144.64 119.60 144.25 C 120.43 143.87 120.79 142.89 120.40 142.06 L 119.98 141.14 C 119.59 140.32 118.61 139.96 117.78 140.34 C 116.96 140.73 116.60 141.71 116.98 142.53 Z M 117.41 143.45 L 117.85 144.39 C 118.23 145.22 119.21 145.57 120.04 145.19 C 120.86 144.81 121.22 143.83 120.84 143.00 L 120.40 142.06 C 120.02 141.24 119.04 140.88 118.21 141.26 C 117.39 141.65 117.03 142.62 117.41 143.45 Z M 117.85 144.39 L 118.30 145.34 C 118.68 146.17 119.65 146.53 120.48 146.14 C 121.30 145.76 121.66 144.79 121.28 143.96 L 120.83 143.01 C 120.45 142.18 119.47 141.83 118.65 142.21 C 117.83 142.59 117.47 143.57 117.85 144.39 Z M 118.30 145.34 L 118.49 145.76 C 118.87 146.58 119.84 146.94 120.67 146.55 C 121.49 146.17 121.85 145.20 121.46 144.38 L 121.27 143.97 C 120.89 143.14 119.92 142.79 119.10 143.17 C 118.28 143.55 117.92 144.52 118.30 145.34 Z"
      fill="black"
      fill-rule="nonzero" /><path d="M 128.15 120.56 L 128.92 119.92 C 129.67 119.29 129.77 118.17 129.14 117.41 C 128.51 116.66 127.39 116.56 126.64 117.19 L 125.86 117.83 C 125.11 118.46 125.01 119.59 125.64 120.34 C 126.27 121.09 127.39 121.19 128.15 120.56 Z M 128.92 119.96 L 129.70 119.33 C 130.48 118.69 130.59 117.55 129.96 116.77 C 129.33 116.00 128.19 115.88 127.41 116.51 L 126.63 117.15 C 125.85 117.78 125.74 118.92 126.37 119.70 C 127.00 120.48 128.15 120.59 128.92 119.96 Z M 129.68 119.38 L 130.47 118.77 C 131.28 118.15 131.43 116.99 130.81 116.18 C 130.19 115.37 129.03 115.22 128.22 115.85 L 127.43 116.46 C 126.62 117.08 126.47 118.24 127.09 119.05 C 127.71 119.86 128.88 120.01 129.68 119.38 Z M 130.44 118.85 L 131.25 118.27 C 132.09 117.67 132.29 116.49 131.69 115.64 C 131.09 114.80 129.92 114.60 129.07 115.20 L 128.26 115.77 C 127.41 116.38 127.21 117.55 127.81 118.40 C 128.41 119.25 129.59 119.45 130.44 118.85 Z M 131.18 118.34 L 131.99 117.83 C 132.88 117.27 133.14 116.09 132.58 115.20 C 132.02 114.31 130.84 114.05 129.95 114.61 L 129.14 115.12 C 128.25 115.69 127.98 116.87 128.55 117.75 C 129.11 118.64 130.29 118.91 131.18 118.34 Z M 131.91 117.88 L 132.74 117.41 C 133.66 116.90 133.99 115.73 133.47 114.81 C 132.95 113.89 131.79 113.57 130.87 114.08 L 130.03 114.55 C 129.11 115.07 128.79 116.24 129.30 117.16 C 129.82 118.08 130.99 118.40 131.91 117.88 Z M 132.67 117.45 L 133.55 117.01 C 134.49 116.53 134.87 115.38 134.39 114.44 C 133.91 113.50 132.77 113.12 131.82 113.60 L 130.94 114.04 C 130.00 114.52 129.62 115.67 130.10 116.61 C 130.58 117.55 131.73 117.93 132.67 117.45 Z M 133.48 117.04 L 134.42 116.61 C 135.38 116.17 135.80 115.03 135.35 114.07 C 134.91 113.12 133.78 112.70 132.82 113.14 L 131.89 113.57 C 130.93 114.01 130.51 115.15 130.95 116.10 C 131.39 117.06 132.53 117.48 133.48 117.04 Z M 134.37 116.63 L 135.35 116.21 C 136.32 115.80 136.77 114.67 136.35 113.70 C 135.93 112.73 134.81 112.28 133.84 112.70 L 132.87 113.12 C 131.90 113.53 131.45 114.66 131.86 115.63 C 132.28 116.60 133.40 117.05 134.37 116.63 Z M 135.31 116.23 L 136.25 115.84 C 137.23 115.45 137.70 114.33 137.30 113.35 C 136.91 112.38 135.79 111.91 134.81 112.30 L 133.87 112.69 C 132.90 113.08 132.43 114.20 132.82 115.18 C 133.22 116.15 134.34 116.62 135.31 116.23 Z M 136.23 115.85 L 137.19 115.48 C 138.18 115.09 138.66 113.98 138.28 113.00 C 137.89 112.02 136.79 111.53 135.80 111.92 L 134.84 112.29 C 133.85 112.68 133.37 113.79 133.75 114.77 C 134.14 115.75 135.25 116.24 136.23 115.85 Z M 137.17 115.49 L 138.13 115.12 C 139.12 114.75 139.62 113.65 139.25 112.66 C 138.87 111.67 137.77 111.18 136.78 111.55 L 135.82 111.91 C 134.84 112.28 134.34 113.38 134.71 114.37 C 135.08 115.36 136.18 115.86 137.17 115.49 Z M 138.11 115.13 L 139.04 114.79 C 140.03 114.43 140.54 113.34 140.18 112.35 C 139.82 111.35 138.73 110.84 137.73 111.20 L 136.81 111.54 C 135.81 111.90 135.30 113.00 135.66 113.99 C 136.02 114.98 137.12 115.49 138.11 115.13 Z M 139.01 114.80 L 139.93 114.48 C 140.92 114.14 141.45 113.05 141.10 112.05 C 140.75 111.06 139.67 110.53 138.67 110.88 L 137.76 111.19 C 136.76 111.54 136.23 112.63 136.58 113.63 C 136.93 114.62 138.02 115.15 139.01 114.80 Z M 139.90 114.49 L 140.93 114.15 C 141.93 113.82 142.48 112.74 142.15 111.74 C 141.82 110.74 140.74 110.20 139.73 110.53 L 138.70 110.87 C 137.70 111.20 137.15 112.28 137.48 113.28 C 137.82 114.28 138.89 114.82 139.90 114.49 Z M 140.89 114.16 L 141.84 113.87 C 142.84 113.56 143.41 112.50 143.10 111.49 C 142.79 110.48 141.72 109.92 140.72 110.23 L 139.77 110.52 C 138.77 110.83 138.20 111.89 138.51 112.90 C 138.82 113.91 139.89 114.47 140.89 114.16 Z M 141.80 113.88 L 142.70 113.62 C 143.71 113.33 144.30 112.28 144.01 111.27 C 143.72 110.26 142.66 109.67 141.65 109.96 L 140.75 110.22 C 139.74 110.51 139.16 111.56 139.45 112.57 C 139.74 113.59 140.79 114.17 141.80 113.88 Z M 142.67 113.63 L 143.58 113.38 C 144.60 113.11 145.20 112.06 144.92 111.05 C 144.65 110.03 143.60 109.43 142.59 109.71 L 141.68 109.96 C 140.67 110.23 140.07 111.28 140.34 112.29 C 140.62 113.30 141.66 113.90 142.67 113.63 Z M 143.56 113.38 L 144.51 113.14 C 145.53 112.88 146.14 111.84 145.88 110.83 C 145.61 109.81 144.58 109.20 143.56 109.46 L 142.61 109.71 C 141.60 109.97 140.99 111.00 141.25 112.02 C 141.51 113.03 142.55 113.64 143.56 113.38 Z M 144.48 113.14 L 145.46 112.91 C 146.47 112.67 147.10 111.64 146.86 110.62 C 146.61 109.61 145.59 108.98 144.57 109.22 L 143.60 109.46 C 142.58 109.70 141.95 110.72 142.19 111.74 C 142.44 112.76 143.46 113.39 144.48 113.14 Z M 145.42 112.92 L 146.41 112.70 C 147.43 112.48 148.08 111.47 147.86 110.45 C 147.64 109.43 146.63 108.78 145.61 109.00 L 144.61 109.22 C 143.59 109.44 142.94 110.45 143.16 111.47 C 143.39 112.49 144.39 113.14 145.42 112.92 Z M 146.36 112.71 L 147.35 112.52 C 148.37 112.32 149.04 111.34 148.85 110.31 C 148.65 109.29 147.67 108.61 146.64 108.81 L 145.66 108.99 C 144.63 109.19 143.96 110.18 144.16 111.20 C 144.35 112.23 145.34 112.90 146.36 112.71 Z M 147.30 112.52 L 148.28 112.36 C 149.30 112.19 150.00 111.22 149.83 110.20 C 149.66 109.17 148.69 108.47 147.67 108.64 L 146.69 108.80 C 145.66 108.97 144.97 109.94 145.13 110.97 C 145.30 112.00 146.27 112.69 147.30 112.52 Z M 148.24 112.36 L 149.23 112.22 C 150.26 112.08 150.97 111.12 150.82 110.10 C 150.68 109.07 149.72 108.35 148.70 108.50 L 147.71 108.64 C 146.68 108.79 145.96 109.74 146.11 110.77 C 146.26 111.80 147.21 112.51 148.24 112.36 Z M 149.20 112.22 L 150.20 112.09 C 151.23 111.96 151.96 111.03 151.83 110.00 C 151.70 108.97 150.76 108.24 149.73 108.37 L 148.73 108.50 C 147.70 108.63 146.97 109.57 147.10 110.60 C 147.23 111.62 148.17 112.35 149.20 112.22 Z M 150.18 112.09 L 151.16 111.98 C 152.19 111.86 152.93 110.93 152.81 109.91 C 152.69 108.88 151.77 108.14 150.74 108.26 L 149.75 108.38 C 148.73 108.49 147.99 109.42 148.11 110.45 C 148.22 111.47 149.15 112.21 150.18 112.09 Z M 151.14 111.98 L 152.13 111.88 C 153.16 111.77 153.90 110.85 153.79 109.83 C 153.69 108.80 152.77 108.06 151.75 108.16 L 150.76 108.26 C 149.73 108.37 148.99 109.29 149.09 110.31 C 149.20 111.34 150.12 112.08 151.14 111.98 Z M 152.11 111.87 L 153.11 111.78 C 154.13 111.69 154.88 110.78 154.79 109.76 C 154.70 108.74 153.79 107.98 152.77 108.07 L 151.77 108.16 C 150.74 108.26 149.99 109.16 150.08 110.19 C 150.18 111.21 151.08 111.97 152.11 111.87 Z M 153.08 111.78 L 154.09 111.70 C 155.11 111.62 155.88 110.73 155.80 109.71 C 155.72 108.68 154.83 107.92 153.80 108.00 L 152.79 108.08 C 151.77 108.15 151.01 109.05 151.08 110.07 C 151.16 111.09 152.06 111.86 153.08 111.78 Z M 154.06 111.70 L 155.06 111.64 C 156.08 111.58 156.86 110.70 156.79 109.67 C 156.73 108.65 155.85 107.88 154.83 107.94 L 153.83 108.00 C 152.81 108.06 152.03 108.94 152.10 109.97 C 152.16 110.99 153.04 111.76 154.06 111.70 Z M 155.03 111.64 L 156.02 111.59 C 157.04 111.54 157.83 110.67 157.78 109.65 C 157.73 108.63 156.87 107.85 155.85 107.89 L 154.86 107.94 C 153.84 107.99 153.05 108.86 153.10 109.88 C 153.15 110.90 154.01 111.68 155.03 111.64 Z M 156.00 111.58 L 157.00 111.55 C 158.02 111.51 158.81 110.66 158.78 109.64 C 158.74 108.62 157.89 107.83 156.87 107.86 L 155.87 107.90 C 154.85 107.93 154.06 108.79 154.09 109.81 C 154.13 110.82 154.98 111.62 156.00 111.58 Z M 156.98 111.54 L 157.99 111.52 C 159.00 111.49 159.81 110.65 159.78 109.63 C 159.75 108.62 158.91 107.82 157.89 107.84 L 156.89 107.87 C 155.87 107.89 155.07 108.74 155.10 109.75 C 155.12 110.77 155.96 111.57 156.98 111.54 Z M 157.97 111.52 L 158.98 111.50 C 159.99 111.48 160.80 110.65 160.79 109.63 C 160.77 108.62 159.93 107.81 158.92 107.83 L 157.91 107.85 C 156.90 107.86 156.09 108.70 156.11 109.71 C 156.12 110.72 156.96 111.53 157.97 111.52 Z M 158.97 111.49 L 159.98 111.48 C 160.99 111.47 161.80 110.65 161.79 109.64 C 161.78 108.62 160.95 107.81 159.94 107.82 L 158.93 107.83 C 157.92 107.84 157.11 108.67 157.12 109.68 C 157.13 110.69 157.96 111.50 158.97 111.49 Z M 159.97 111.48 L 160.98 111.47 C 161.98 111.47 162.80 110.65 162.79 109.64 C 162.79 108.63 161.97 107.82 160.96 107.82 L 159.95 107.83 C 158.94 107.83 158.13 108.65 158.13 109.66 C 158.14 110.67 158.96 111.48 159.97 111.48 Z M 160.97 111.47 L 161.97 111.47 C 162.97 111.47 163.79 110.65 163.79 109.64 C 163.78 108.64 162.97 107.82 161.96 107.83 L 160.96 107.83 C 159.96 107.83 159.14 108.65 159.15 109.65 C 159.15 110.66 159.96 111.47 160.97 111.47 Z M 161.96 111.46 L 162.95 111.46 C 163.95 111.46 164.77 110.65 164.77 109.65 C 164.77 108.64 163.95 107.83 162.95 107.83 L 161.96 107.83 C 160.96 107.83 160.15 108.64 160.15 109.65 C 160.15 110.65 160.96 111.46 161.96 111.46 Z M 162.95 111.46 L 163.96 111.46 C 164.96 111.46 165.78 110.65 165.78 109.65 C 165.78 108.65 164.97 107.84 163.97 107.84 L 162.96 107.84 C 161.96 107.83 161.14 108.64 161.14 109.64 C 161.14 110.64 161.95 111.46 162.95 111.46 Z M 163.94 111.45 L 164.94 111.47 C 165.94 111.49 166.76 110.70 166.78 109.70 C 166.79 108.70 166.00 107.88 165.00 107.86 L 164.00 107.84 C 163.00 107.83 162.18 108.62 162.16 109.62 C 162.15 110.61 162.94 111.44 163.94 111.45 Z M 164.89 111.47 L 165.87 111.51 C 166.87 111.56 167.71 110.79 167.76 109.80 C 167.80 108.81 167.04 107.96 166.04 107.92 L 165.06 107.87 C 164.06 107.82 163.22 108.59 163.17 109.58 C 163.13 110.58 163.89 111.42 164.89 111.47 Z M 165.80 111.50 L 166.78 111.59 C 167.77 111.68 168.64 110.95 168.73 109.97 C 168.82 108.98 168.09 108.11 167.10 108.02 L 166.12 107.93 C 165.14 107.84 164.26 108.56 164.17 109.55 C 164.08 110.54 164.81 111.41 165.80 111.50 Z M 166.68 111.57 L 167.62 111.71 C 168.59 111.85 169.50 111.18 169.64 110.20 C 169.79 109.22 169.11 108.31 168.13 108.17 L 167.20 108.03 C 166.22 107.89 165.32 108.57 165.17 109.54 C 165.03 110.52 165.71 111.43 166.68 111.57 Z M 167.51 111.68 L 168.46 111.88 C 169.42 112.08 170.36 111.46 170.56 110.50 C 170.76 109.53 170.14 108.59 169.18 108.39 L 168.24 108.20 C 167.27 108.00 166.33 108.62 166.13 109.58 C 165.93 110.54 166.55 111.48 167.51 111.68 Z M 168.35 111.85 L 169.32 112.11 C 170.27 112.37 171.24 111.81 171.50 110.87 C 171.76 109.92 171.20 108.95 170.26 108.69 L 169.29 108.42 C 168.34 108.17 167.37 108.72 167.11 109.67 C 166.85 110.62 167.41 111.59 168.35 111.85 Z M 169.22 112.07 L 170.23 112.41 C 171.15 112.73 172.15 112.23 172.47 111.31 C 172.78 110.38 172.29 109.38 171.36 109.07 L 170.36 108.73 C 169.43 108.41 168.43 108.91 168.11 109.83 C 167.80 110.76 168.30 111.76 169.22 112.07 Z M 170.14 112.38 L 171.07 112.75 C 171.98 113.11 173.00 112.67 173.36 111.77 C 173.73 110.87 173.29 109.84 172.38 109.48 L 171.45 109.11 C 170.55 108.74 169.52 109.18 169.16 110.08 C 168.80 110.99 169.24 112.01 170.14 112.38 Z M 170.99 112.71 L 171.91 113.13 C 172.79 113.54 173.83 113.15 174.24 112.27 C 174.64 111.39 174.26 110.35 173.38 109.94 L 172.46 109.52 C 171.58 109.12 170.54 109.50 170.13 110.38 C 169.73 111.26 170.11 112.30 170.99 112.71 Z M 171.82 113.08 L 172.73 113.56 C 173.58 114.01 174.64 113.69 175.09 112.83 C 175.54 111.98 175.22 110.92 174.36 110.47 L 173.46 109.99 C 172.61 109.54 171.55 109.86 171.10 110.72 C 170.64 111.57 170.97 112.63 171.82 113.08 Z M 172.63 113.50 L 173.50 114.03 C 174.32 114.54 175.39 114.28 175.90 113.46 C 176.40 112.64 176.14 111.56 175.32 111.06 L 174.46 110.53 C 173.64 110.02 172.56 110.28 172.06 111.10 C 171.55 111.92 171.81 113.00 172.63 113.50 Z M 173.39 113.95 L 174.19 114.53 C 174.96 115.10 176.05 114.92 176.62 114.14 C 177.18 113.37 177.01 112.28 176.23 111.72 L 175.43 111.14 C 174.65 110.57 173.57 110.75 173.00 111.52 C 172.44 112.30 172.61 113.39 173.39 113.95 Z M 174.05 114.42 L 174.82 115.10 C 175.54 115.74 176.63 115.68 177.27 114.96 C 177.91 114.25 177.84 113.15 177.13 112.52 L 176.36 111.83 C 175.65 111.19 174.55 111.26 173.91 111.97 C 173.28 112.69 173.34 113.78 174.05 114.42 Z M 174.68 114.95 L 175.35 115.71 C 175.98 116.42 177.07 116.49 177.79 115.86 C 178.50 115.23 178.57 114.15 177.94 113.43 L 177.27 112.67 C 176.64 111.96 175.55 111.89 174.84 112.52 C 174.12 113.15 174.05 114.24 174.68 114.95 Z M 175.23 115.53 L 175.78 116.35 C 176.31 117.13 177.37 117.34 178.16 116.81 C 178.94 116.28 179.15 115.21 178.62 114.42 L 178.07 113.61 C 177.54 112.82 176.47 112.62 175.69 113.15 C 174.90 113.68 174.69 114.75 175.23 115.53 Z M 175.67 116.15 L 176.11 117.02 C 176.54 117.86 177.56 118.20 178.40 117.78 C 179.25 117.35 179.58 116.33 179.16 115.49 L 178.72 114.62 C 178.30 113.77 177.27 113.44 176.43 113.86 C 175.59 114.29 175.25 115.31 175.67 116.15 Z M 176.04 116.83 L 176.37 117.74 C 176.68 118.63 177.66 119.08 178.54 118.77 C 179.42 118.45 179.88 117.48 179.56 116.59 L 179.23 115.68 C 178.92 114.80 177.94 114.34 177.06 114.66 C 176.18 114.97 175.72 115.95 176.04 116.83 Z M 176.32 117.57 L 176.55 118.51 C 176.77 119.42 177.69 119.98 178.59 119.76 C 179.50 119.54 180.06 118.62 179.84 117.71 L 179.61 116.77 C 179.39 115.86 178.47 115.30 177.57 115.52 C 176.66 115.74 176.10 116.66 176.32 117.57 Z M 176.53 118.36 L 176.67 119.34 C 176.81 120.26 177.67 120.90 178.59 120.76 C 179.51 120.62 180.14 119.77 180.01 118.85 L 179.86 117.86 C 179.72 116.94 178.87 116.31 177.95 116.44 C 177.03 116.58 176.39 117.44 176.53 118.36 Z M 176.66 119.22 L 176.74 120.23 C 176.80 121.15 177.61 121.85 178.53 121.78 C 179.46 121.71 180.16 120.91 180.09 119.98 L 180.02 118.97 C 179.95 118.05 179.14 117.35 178.22 117.42 C 177.29 117.49 176.60 118.29 176.66 119.22 Z M 176.74 120.12 L 176.75 121.15 C 176.76 122.07 177.51 122.82 178.44 122.81 C 179.36 122.80 180.11 122.04 180.10 121.12 L 180.09 120.09 C 180.08 119.16 179.32 118.42 178.40 118.43 C 177.47 118.44 176.73 119.20 176.74 120.12 Z M 176.76 121.06 L 176.71 122.04 C 176.68 122.96 177.39 123.74 178.31 123.78 C 179.23 123.82 180.01 123.10 180.05 122.18 L 180.09 121.20 C 180.13 120.28 179.41 119.50 178.49 119.47 C 177.57 119.43 176.80 120.14 176.76 121.06 Z M 176.73 121.95 L 176.63 122.92 C 176.54 123.84 177.21 124.65 178.13 124.74 C 179.04 124.83 179.86 124.16 179.94 123.24 L 180.04 122.27 C 180.13 121.36 179.46 120.54 178.54 120.46 C 177.63 120.37 176.81 121.04 176.73 121.95 Z M 176.65 122.82 L 176.49 123.80 C 176.35 124.70 176.97 125.55 177.87 125.70 C 178.78 125.84 179.63 125.23 179.77 124.32 L 179.93 123.34 C 180.07 122.44 179.45 121.59 178.55 121.44 C 177.64 121.30 176.79 121.91 176.65 122.82 Z M 176.52 123.68 L 176.29 124.67 C 176.09 125.56 176.64 126.45 177.53 126.66 C 178.42 126.86 179.31 126.31 179.52 125.42 L 179.74 124.43 C 179.95 123.54 179.40 122.65 178.51 122.45 C 177.62 122.24 176.73 122.79 176.52 123.68 Z M 176.33 124.55 L 176.02 125.55 C 175.74 126.42 176.23 127.34 177.10 127.62 C 177.97 127.89 178.90 127.40 179.17 126.53 L 179.48 125.54 C 179.75 124.67 179.27 123.74 178.40 123.47 C 177.53 123.20 176.60 123.68 176.33 124.55 Z M 176.06 125.43 L 175.68 126.39 C 175.35 127.24 175.76 128.19 176.61 128.53 C 177.45 128.86 178.41 128.45 178.74 127.61 L 179.12 126.65 C 179.46 125.80 179.05 124.84 178.20 124.51 C 177.35 124.17 176.40 124.59 176.06 125.43 Z M 175.72 126.30 L 175.28 127.25 C 174.90 128.07 175.25 129.05 176.08 129.43 C 176.90 129.82 177.88 129.46 178.26 128.64 L 178.70 127.69 C 179.09 126.87 178.73 125.89 177.91 125.51 C 177.09 125.12 176.11 125.48 175.72 126.30 Z M 175.32 127.18 L 174.84 128.10 C 174.42 128.90 174.73 129.89 175.53 130.31 C 176.33 130.73 177.33 130.42 177.75 129.62 L 178.23 128.70 C 178.65 127.90 178.34 126.91 177.53 126.49 C 176.73 126.06 175.74 126.38 175.32 127.18 Z M 174.87 128.04 L 174.37 128.91 C 173.92 129.70 174.20 130.70 174.99 131.15 C 175.77 131.60 176.78 131.33 177.23 130.54 L 177.72 129.67 C 178.17 128.88 177.89 127.88 177.11 127.43 C 176.32 126.98 175.32 127.26 174.87 128.04 Z M 174.40 128.87 L 173.91 129.67 C 173.44 130.44 173.69 131.45 174.46 131.92 C 175.24 132.39 176.25 132.15 176.72 131.37 L 177.20 130.58 C 177.67 129.80 177.42 128.79 176.65 128.32 C 175.88 127.85 174.87 128.10 174.40 128.87 Z M 173.94 129.64 L 173.34 130.56 C 172.86 131.32 173.08 132.33 173.84 132.82 C 174.60 133.31 175.61 133.09 176.10 132.33 L 176.69 131.41 C 177.18 130.65 176.96 129.63 176.20 129.14 C 175.44 128.65 174.42 128.88 173.94 129.64 Z M 173.37 130.52 L 172.79 131.37 C 172.28 132.12 172.47 133.14 173.22 133.65 C 173.97 134.16 174.99 133.97 175.50 133.22 L 176.08 132.36 C 176.59 131.62 176.39 130.60 175.65 130.09 C 174.90 129.58 173.88 129.77 173.37 130.52 Z M 172.81 131.34 L 172.27 132.10 C 171.74 132.83 171.91 133.86 172.64 134.38 C 173.38 134.91 174.40 134.74 174.93 134.01 L 175.47 133.25 C 176.00 132.52 175.83 131.49 175.10 130.97 C 174.36 130.44 173.34 130.61 172.81 131.34 Z M 172.28 132.08 L 171.74 132.81 C 171.20 133.54 171.36 134.56 172.08 135.10 C 172.81 135.64 173.84 135.49 174.37 134.76 L 174.91 134.03 C 175.45 133.30 175.30 132.28 174.57 131.74 C 173.84 131.20 172.82 131.35 172.28 132.08 Z M 171.75 132.80 L 171.15 133.61 C 170.60 134.33 170.75 135.36 171.47 135.90 C 172.20 136.44 173.22 136.29 173.76 135.57 L 174.37 134.77 C 174.91 134.04 174.76 133.02 174.04 132.48 C 173.32 131.93 172.29 132.08 171.75 132.80 Z M 171.16 133.59 L 170.54 134.38 C 169.99 135.10 170.12 136.12 170.84 136.68 C 171.55 137.23 172.58 137.10 173.13 136.39 L 173.75 135.59 C 174.30 134.88 174.17 133.85 173.46 133.30 C 172.74 132.74 171.71 132.87 171.16 133.59 Z M 170.57 134.34 L 169.94 135.11 C 169.37 135.81 169.47 136.84 170.17 137.41 C 170.87 137.99 171.90 137.89 172.47 137.19 L 173.10 136.42 C 173.68 135.72 173.58 134.69 172.88 134.12 C 172.18 133.55 171.15 133.65 170.57 134.34 Z M 169.99 135.06 L 169.31 135.82 C 168.71 136.49 168.77 137.53 169.45 138.13 C 170.12 138.73 171.15 138.67 171.76 138.00 L 172.43 137.24 C 173.03 136.56 172.97 135.53 172.30 134.93 C 171.62 134.33 170.59 134.39 169.99 135.06 Z M 169.35 135.78 L 168.66 136.50 C 168.04 137.15 168.06 138.19 168.72 138.81 C 169.37 139.44 170.41 139.41 171.03 138.76 L 171.72 138.04 C 172.34 137.38 172.32 136.35 171.66 135.72 C 171.01 135.10 169.97 135.12 169.35 135.78 Z M 168.68 136.48 L 167.99 137.18 C 167.35 137.82 167.36 138.86 168.00 139.49 C 168.64 140.13 169.68 140.12 170.31 139.48 L 171.01 138.78 C 171.64 138.14 171.64 137.10 171.00 136.47 C 170.36 135.83 169.32 135.84 168.68 136.48 Z M 167.99 137.17 L 167.89 137.28 C 167.25 137.92 167.25 138.95 167.89 139.59 C 168.53 140.23 169.57 140.23 170.20 139.59 L 170.31 139.49 C 170.95 138.85 170.95 137.81 170.31 137.17 C 169.67 136.53 168.63 136.53 167.99 137.17 Z"
      fill="black"
      fill-rule="nonzero" /><path d="M 133.97 137.75 L 133.08 138.23 C 132.19 138.70 131.85 139.81 132.33 140.70 C 132.80 141.59 133.91 141.93 134.80 141.45 L 135.69 140.98 C 136.58 140.50 136.92 139.39 136.44 138.50 C 135.97 137.61 134.86 137.27 133.97 137.75 Z M 132.98 138.28 L 132.13 138.81 C 131.27 139.34 131.00 140.46 131.53 141.32 C 132.06 142.18 133.19 142.45 134.05 141.92 L 134.90 141.40 C 135.76 140.87 136.03 139.74 135.50 138.88 C 134.97 138.02 133.84 137.75 132.98 138.28 Z M 131.94 138.94 L 131.17 139.56 C 130.39 140.19 130.26 141.34 130.89 142.13 C 131.53 142.92 132.68 143.04 133.47 142.41 L 134.23 141.79 C 135.02 141.16 135.15 140.00 134.51 139.22 C 133.88 138.43 132.73 138.31 131.94 138.94 Z M 130.94 139.79 L 130.32 140.50 C 129.66 141.27 129.74 142.42 130.50 143.08 C 131.27 143.74 132.42 143.66 133.08 142.90 L 133.70 142.18 C 134.36 141.42 134.28 140.26 133.52 139.60 C 132.75 138.94 131.60 139.02 130.94 139.79 Z M 130.13 140.76 L 129.64 141.58 C 129.12 142.45 129.40 143.57 130.27 144.09 C 131.14 144.61 132.26 144.33 132.78 143.46 L 133.27 142.64 C 133.79 141.77 133.51 140.64 132.64 140.13 C 131.77 139.61 130.65 139.89 130.13 140.76 Z M 129.52 141.80 L 129.13 142.73 C 128.73 143.66 129.17 144.74 130.10 145.14 C 131.03 145.53 132.11 145.10 132.50 144.16 L 132.90 143.23 C 133.29 142.30 132.86 141.22 131.93 140.83 C 130.99 140.43 129.92 140.87 129.52 141.80 Z M 129.06 142.91 L 128.75 143.94 C 128.45 144.91 129.00 145.93 129.97 146.23 C 130.94 146.52 131.97 145.98 132.26 145.01 L 132.57 143.98 C 132.87 143.01 132.32 141.99 131.35 141.69 C 130.38 141.39 129.35 141.94 129.06 142.91 Z M 128.71 144.07 L 128.50 145.00 C 128.28 145.99 128.90 146.97 129.89 147.19 C 130.88 147.42 131.87 146.80 132.09 145.81 L 132.30 144.88 C 132.52 143.88 131.90 142.90 130.91 142.68 C 129.92 142.45 128.93 143.08 128.71 144.07 Z M 128.48 145.09 L 128.32 146.05 C 128.15 147.05 128.83 148.00 129.83 148.17 C 130.83 148.34 131.78 147.67 131.95 146.67 L 132.11 145.71 C 132.28 144.71 131.60 143.76 130.60 143.59 C 129.60 143.42 128.65 144.09 128.48 145.09 Z M 128.31 146.13 L 128.18 147.13 C 128.06 148.14 128.77 149.06 129.78 149.18 C 130.79 149.31 131.71 148.59 131.83 147.59 L 131.96 146.59 C 132.08 145.58 131.37 144.66 130.36 144.54 C 129.35 144.41 128.43 145.13 128.31 146.13 Z M 128.18 147.20 L 128.09 148.24 C 128.00 149.25 128.75 150.14 129.76 150.23 C 130.77 150.32 131.66 149.57 131.75 148.56 L 131.84 147.52 C 131.93 146.51 131.18 145.62 130.17 145.53 C 129.16 145.44 128.27 146.19 128.18 147.20 Z M 128.09 148.29 L 128.03 149.33 C 127.97 150.34 128.74 151.21 129.75 151.26 C 130.76 151.32 131.63 150.55 131.69 149.54 L 131.75 148.50 C 131.81 147.49 131.04 146.62 130.02 146.56 C 129.01 146.51 128.14 147.28 128.09 148.29 Z M 128.03 149.37 L 127.99 150.38 C 127.96 151.39 128.75 152.24 129.76 152.27 C 130.77 152.31 131.62 151.52 131.65 150.51 L 131.69 149.50 C 131.72 148.49 130.93 147.64 129.92 147.60 C 128.91 147.57 128.06 148.36 128.03 149.37 Z M 128.00 150.41 L 127.98 151.42 C 127.96 152.43 128.76 153.26 129.77 153.28 C 130.77 153.30 131.61 152.50 131.63 151.49 L 131.65 150.48 C 131.67 149.47 130.87 148.64 129.86 148.62 C 128.85 148.60 128.02 149.40 128.00 150.41 Z M 127.98 151.44 L 127.97 152.45 C 127.97 153.45 128.77 154.27 129.78 154.28 C 130.78 154.29 131.60 153.48 131.61 152.48 L 131.62 151.47 C 131.63 150.47 130.82 149.65 129.82 149.64 C 128.81 149.63 127.99 150.44 127.98 151.44 Z M 127.98 152.46 L 127.98 153.44 C 127.98 154.44 128.79 155.26 129.79 155.26 C 130.79 155.26 131.60 154.45 131.60 153.45 L 131.61 152.47 C 131.61 151.46 130.80 150.65 129.80 150.65 C 128.80 150.65 127.98 151.46 127.98 152.46 Z M 127.99 153.44 L 127.99 154.47 C 127.99 155.46 128.80 156.27 129.79 156.27 C 130.79 156.27 131.59 155.46 131.59 154.47 L 131.59 153.44 C 131.59 152.45 130.79 151.64 129.79 151.64 C 128.80 151.64 127.99 152.45 127.99 153.44 Z M 128.01 154.47 L 128.01 155.49 C 128.01 156.47 128.81 157.27 129.79 157.27 C 130.78 157.27 131.57 156.47 131.57 155.49 L 131.57 154.47 C 131.57 153.48 130.78 152.68 129.79 152.68 C 128.81 152.68 128.01 153.48 128.01 154.47 Z M 128.03 155.49 L 128.03 156.48 C 128.03 157.45 128.82 158.24 129.79 158.24 C 130.76 158.24 131.55 157.45 131.55 156.48 L 131.55 155.49 C 131.55 154.52 130.76 153.73 129.79 153.73 C 128.82 153.73 128.03 154.52 128.03 155.49 Z M 128.05 156.48 L 128.05 157.45 C 128.05 158.41 128.83 159.19 129.79 159.19 C 130.75 159.19 131.53 158.41 131.53 157.45 L 131.53 156.48 C 131.53 155.52 130.75 154.74 129.79 154.74 C 128.83 154.74 128.05 155.52 128.05 156.48 Z M 128.07 157.45 L 128.07 158.40 C 128.07 159.35 128.84 160.12 129.79 160.12 C 130.74 160.12 131.51 159.35 131.51 158.40 L 131.51 157.45 C 131.51 156.50 130.74 155.73 129.79 155.73 C 128.84 155.73 128.07 156.50 128.07 157.45 Z M 128.09 158.40 L 128.09 159.32 C 128.09 160.27 128.85 161.03 129.80 161.03 C 130.74 161.02 131.50 160.26 131.50 159.32 L 131.50 158.39 C 131.49 157.45 130.73 156.69 129.79 156.69 C 128.85 156.69 128.08 157.46 128.09 158.40 Z M 128.10 159.33 L 128.11 160.29 C 128.11 161.23 128.88 161.98 129.81 161.97 C 130.75 161.97 131.50 161.20 131.49 160.26 L 131.49 159.31 C 131.48 158.37 130.72 157.62 129.78 157.63 C 128.84 157.63 128.09 158.40 128.10 159.33 Z M 128.12 160.31 L 128.14 161.33 C 128.15 162.26 128.92 163.00 129.85 162.98 C 130.78 162.96 131.52 162.20 131.50 161.27 L 131.48 160.25 C 131.47 159.32 130.70 158.58 129.77 158.60 C 128.84 158.61 128.10 159.38 128.12 160.31 Z M 128.15 161.35 L 128.18 162.45 C 128.21 163.38 128.98 164.10 129.90 164.08 C 130.82 164.05 131.55 163.28 131.52 162.35 L 131.49 161.25 C 131.46 160.32 130.69 159.60 129.77 159.63 C 128.85 159.65 128.12 160.42 128.15 161.35 Z M 128.19 162.47 L 128.23 163.47 C 128.27 164.38 129.04 165.10 129.96 165.06 C 130.88 165.02 131.59 164.25 131.55 163.33 L 131.51 162.34 C 131.48 161.42 130.70 160.70 129.78 160.74 C 128.86 160.78 128.15 161.55 128.19 162.47 Z M 128.23 163.48 L 128.28 164.49 C 128.33 165.40 129.11 166.11 130.02 166.07 C 130.94 166.02 131.64 165.24 131.60 164.33 L 131.55 163.32 C 131.50 162.40 130.73 161.70 129.81 161.74 C 128.90 161.79 128.19 162.56 128.23 163.48 Z M 128.29 164.50 L 128.34 165.53 C 128.39 166.44 129.17 167.14 130.09 167.09 C 131.00 167.05 131.70 166.27 131.65 165.35 L 131.59 164.32 C 131.54 163.41 130.76 162.71 129.85 162.76 C 128.94 162.81 128.24 163.59 128.29 164.50 Z M 128.35 165.54 L 128.41 166.57 C 128.46 167.48 129.24 168.17 130.15 168.12 C 131.06 168.07 131.76 167.28 131.70 166.37 L 131.64 165.35 C 131.59 164.44 130.81 163.74 129.90 163.79 C 128.99 163.85 128.30 164.63 128.35 165.54 Z M 128.41 166.57 L 128.47 167.57 C 128.53 168.48 129.31 169.17 130.22 169.11 C 131.13 169.05 131.82 168.27 131.76 167.37 L 131.70 166.37 C 131.64 165.46 130.86 164.77 129.96 164.83 C 129.05 164.88 128.36 165.66 128.41 166.57 Z M 128.48 167.57 L 128.54 168.56 C 128.60 169.46 129.38 170.15 130.28 170.09 C 131.19 170.04 131.88 169.26 131.82 168.35 L 131.76 167.36 C 131.70 166.46 130.92 165.77 130.01 165.83 C 129.11 165.89 128.42 166.67 128.48 167.57 Z M 128.54 168.56 L 128.62 169.68 C 128.68 170.58 129.46 171.27 130.36 171.21 C 131.26 171.15 131.95 170.37 131.89 169.46 L 131.82 168.35 C 131.76 167.44 130.98 166.76 130.07 166.82 C 129.17 166.88 128.49 167.66 128.54 168.56 Z M 128.62 169.68 L 128.69 170.69 C 128.75 171.59 129.53 172.28 130.43 172.22 C 131.33 172.16 132.02 171.37 131.96 170.47 L 131.89 169.46 C 131.83 168.56 131.05 167.87 130.14 167.93 C 129.24 167.99 128.56 168.78 128.62 169.68 Z M 128.69 170.69 L 128.75 171.63 C 128.81 172.53 129.59 173.22 130.50 173.15 C 131.40 173.09 132.08 172.31 132.02 171.41 L 131.96 170.47 C 131.89 169.57 131.11 168.88 130.21 168.95 C 129.31 169.01 128.63 169.79 128.69 170.69 Z M 128.75 171.63 L 128.81 172.54 C 128.88 173.44 129.66 174.12 130.56 174.06 C 131.46 173.99 132.14 173.21 132.08 172.31 L 132.02 171.41 C 131.96 170.51 131.17 169.83 130.27 169.89 C 129.37 169.95 128.69 170.73 128.75 171.63 Z M 128.81 172.54 L 128.82 172.64 C 128.88 173.54 129.67 174.22 130.57 174.16 C 131.47 174.10 132.15 173.32 132.09 172.42 L 132.08 172.31 C 132.02 171.41 131.24 170.73 130.33 170.79 C 129.43 170.85 128.75 171.63 128.81 172.54 Z"
      fill="black"
      fill-rule="nonzero" /><path d="M 137.56 155.52 L 137.62 156.51 C 137.68 157.43 138.47 158.12 139.38 158.06 C 140.29 158.00 140.98 157.21 140.92 156.30 L 140.86 155.31 C 140.80 154.40 140.01 153.71 139.10 153.76 C 138.19 153.82 137.50 154.61 137.56 155.52 Z M 137.59 156.52 L 137.65 157.52 C 137.72 158.45 138.52 159.15 139.46 159.09 C 140.39 159.02 141.09 158.22 141.03 157.29 L 140.96 156.29 C 140.89 155.36 140.09 154.66 139.16 154.72 C 138.22 154.79 137.52 155.59 137.59 156.52 Z M 137.62 157.53 L 137.70 158.53 C 137.77 159.48 138.60 160.19 139.55 160.12 C 140.50 160.05 141.21 159.22 141.14 158.27 L 141.06 157.27 C 140.99 156.32 140.16 155.61 139.21 155.68 C 138.26 155.75 137.55 156.58 137.62 157.53 Z M 137.66 158.55 L 137.75 159.55 C 137.83 160.52 138.69 161.24 139.65 161.16 C 140.62 161.07 141.34 160.22 141.26 159.25 L 141.17 158.25 C 141.08 157.28 140.23 156.56 139.26 156.65 C 138.30 156.73 137.58 157.58 137.66 158.55 Z M 137.73 159.58 L 137.83 160.60 C 137.93 161.57 138.81 162.29 139.79 162.19 C 140.76 162.09 141.48 161.21 141.38 160.23 L 141.28 159.22 C 141.18 158.24 140.30 157.53 139.32 157.63 C 138.34 157.73 137.63 158.60 137.73 159.58 Z M 137.83 160.64 L 137.96 161.65 C 138.08 162.63 138.98 163.32 139.96 163.20 C 140.94 163.07 141.63 162.18 141.51 161.20 L 141.38 160.19 C 141.26 159.21 140.36 158.52 139.38 158.64 C 138.40 158.77 137.71 159.66 137.83 160.64 Z M 137.96 161.72 L 138.13 162.71 C 138.29 163.68 139.22 164.34 140.19 164.18 C 141.17 164.02 141.83 163.09 141.67 162.12 L 141.50 161.13 C 141.34 160.15 140.42 159.49 139.44 159.65 C 138.46 159.82 137.80 160.74 137.96 161.72 Z M 138.14 162.80 L 138.36 163.76 C 138.57 164.73 139.53 165.34 140.50 165.12 C 141.47 164.90 142.08 163.94 141.87 162.97 L 141.65 162.02 C 141.44 161.05 140.48 160.44 139.51 160.66 C 138.54 160.87 137.93 161.83 138.14 162.80 Z M 138.39 163.89 L 138.68 164.86 C 138.97 165.82 139.98 166.35 140.93 166.06 C 141.89 165.77 142.42 164.76 142.13 163.81 L 141.84 162.84 C 141.55 161.89 140.54 161.35 139.59 161.64 C 138.63 161.93 138.10 162.94 138.39 163.89 Z M 138.74 165.04 L 139.13 165.96 C 139.51 166.89 140.57 167.32 141.49 166.93 C 142.42 166.55 142.85 165.49 142.46 164.57 L 142.08 163.64 C 141.69 162.72 140.63 162.28 139.71 162.67 C 138.79 163.05 138.35 164.11 138.74 165.04 Z M 139.22 166.17 L 139.71 167.02 C 140.21 167.89 141.31 168.19 142.18 167.69 C 143.05 167.20 143.36 166.09 142.86 165.22 L 142.37 164.37 C 141.87 163.50 140.77 163.20 139.90 163.69 C 139.03 164.19 138.72 165.30 139.22 166.17 Z M 139.85 167.23 L 140.45 168.01 C 141.06 168.80 142.20 168.95 143.00 168.33 C 143.79 167.71 143.94 166.57 143.32 165.78 L 142.72 165.01 C 142.11 164.21 140.96 164.07 140.17 164.68 C 139.38 165.30 139.23 166.44 139.85 167.23 Z M 140.63 168.21 L 141.35 168.91 C 142.08 169.60 143.24 169.57 143.93 168.85 C 144.63 168.12 144.60 166.96 143.87 166.27 L 143.14 165.57 C 142.41 164.88 141.26 164.91 140.57 165.64 C 139.87 166.36 139.90 167.52 140.63 168.21 Z M 141.55 169.07 L 142.37 169.66 C 143.19 170.25 144.33 170.06 144.92 169.24 C 145.51 168.42 145.32 167.28 144.50 166.69 L 143.68 166.11 C 142.86 165.52 141.72 165.71 141.13 166.52 C 140.54 167.34 140.73 168.48 141.55 169.07 Z M 142.58 169.79 L 143.46 170.26 C 144.35 170.73 145.45 170.40 145.93 169.50 C 146.40 168.61 146.06 167.51 145.17 167.03 L 144.29 166.56 C 143.40 166.09 142.29 166.43 141.82 167.32 C 141.35 168.21 141.68 169.32 142.58 169.79 Z M 143.69 170.37 L 144.60 170.70 C 145.55 171.05 146.60 170.56 146.94 169.61 C 147.29 168.66 146.80 167.61 145.85 167.26 L 144.94 166.93 C 143.99 166.58 142.94 167.07 142.60 168.02 C 142.25 168.97 142.74 170.02 143.69 170.37 Z M 144.85 170.77 L 145.78 170.97 C 146.77 171.18 147.74 170.55 147.95 169.56 C 148.16 168.57 147.53 167.60 146.54 167.39 L 145.61 167.19 C 144.62 166.98 143.65 167.61 143.44 168.60 C 143.22 169.59 143.86 170.56 144.85 170.77 Z M 145.99 171.00 L 146.96 171.09 C 147.97 171.19 148.86 170.46 148.96 169.45 C 149.06 168.44 148.32 167.55 147.32 167.45 L 146.34 167.36 C 145.33 167.26 144.44 168.00 144.34 169.00 C 144.24 170.01 144.98 170.90 145.99 171.00 Z M 147.09 171.10 L 148.14 171.13 C 149.15 171.16 149.99 170.36 150.01 169.35 C 150.04 168.34 149.24 167.50 148.23 167.47 L 147.19 167.44 C 146.18 167.42 145.34 168.22 145.31 169.23 C 145.28 170.24 146.08 171.08 147.09 171.10 Z M 148.19 171.13 L 149.12 171.12 C 150.13 171.12 150.95 170.30 150.94 169.29 C 150.94 168.28 150.12 167.46 149.11 167.47 L 148.18 167.47 C 147.17 167.48 146.35 168.30 146.36 169.31 C 146.36 170.32 147.18 171.13 148.19 171.13 Z M 149.17 171.12 L 150.10 171.09 C 151.11 171.06 151.90 170.22 151.87 169.21 C 151.84 168.21 151.00 167.41 149.99 167.44 L 149.06 167.47 C 148.05 167.50 147.26 168.34 147.29 169.35 C 147.32 170.36 148.16 171.15 149.17 171.12 Z M 150.17 171.09 L 151.16 171.02 C 152.17 170.95 152.93 170.09 152.86 169.08 C 152.79 168.08 151.93 167.32 150.92 167.38 L 149.93 167.45 C 148.92 167.52 148.16 168.38 148.23 169.39 C 148.30 170.39 149.17 171.15 150.17 171.09 Z M 151.25 171.01 L 152.30 170.89 C 153.29 170.78 154.01 169.88 153.90 168.88 C 153.79 167.88 152.89 167.16 151.89 167.28 L 150.84 167.40 C 149.84 167.51 149.12 168.41 149.23 169.41 C 149.35 170.40 150.25 171.12 151.25 171.01 Z M 152.39 170.88 L 153.48 170.69 C 154.47 170.53 155.14 169.59 154.97 168.60 C 154.81 167.61 153.87 166.95 152.88 167.11 L 151.79 167.29 C 150.80 167.46 150.14 168.39 150.30 169.38 C 150.47 170.37 151.40 171.04 152.39 170.88 Z M 153.57 170.67 L 154.57 170.45 C 155.55 170.24 156.17 169.27 155.95 168.29 C 155.74 167.32 154.77 166.70 153.79 166.91 L 152.79 167.13 C 151.81 167.35 151.20 168.31 151.41 169.29 C 151.63 170.27 152.59 170.89 153.57 170.67 Z M 154.64 170.43 L 155.65 170.17 C 156.62 169.92 157.20 168.93 156.94 167.96 C 156.69 167.00 155.71 166.42 154.74 166.67 L 153.73 166.93 C 152.76 167.18 152.18 168.17 152.43 169.14 C 152.68 170.10 153.67 170.68 154.64 170.43 Z M 155.70 170.15 L 156.69 169.86 C 157.65 169.58 158.20 168.58 157.92 167.62 C 157.64 166.67 156.64 166.12 155.68 166.40 L 154.69 166.69 C 153.73 166.97 153.18 167.97 153.46 168.93 C 153.74 169.88 154.74 170.43 155.70 170.15 Z M 156.73 169.85 L 157.68 169.54 C 158.63 169.24 159.16 168.23 158.85 167.28 C 158.55 166.33 157.54 165.81 156.59 166.11 L 155.64 166.41 C 154.69 166.71 154.17 167.73 154.47 168.67 C 154.77 169.62 155.79 170.15 156.73 169.85 Z M 157.72 169.53 L 158.59 169.23 C 159.53 168.91 160.04 167.89 159.72 166.95 C 159.40 166.01 158.38 165.51 157.44 165.83 L 156.56 166.12 C 155.62 166.44 155.12 167.47 155.44 168.41 C 155.75 169.35 156.78 169.85 157.72 169.53 Z M 158.62 169.21 L 159.60 168.86 C 160.53 168.52 161.01 167.50 160.67 166.57 C 160.34 165.64 159.31 165.15 158.38 165.49 L 157.40 165.84 C 156.47 166.18 155.99 167.21 156.33 168.14 C 156.67 169.07 157.69 169.55 158.62 169.21 Z M 159.64 168.84 L 160.55 168.48 C 161.47 168.12 161.92 167.08 161.56 166.17 C 161.20 165.25 160.16 164.80 159.25 165.16 L 158.34 165.52 C 157.42 165.88 156.97 166.91 157.33 167.83 C 157.69 168.75 158.72 169.20 159.64 168.84 Z M 160.60 168.45 L 161.46 168.08 C 162.37 167.69 162.78 166.65 162.40 165.75 C 162.01 164.85 160.97 164.43 160.06 164.81 L 159.20 165.19 C 158.30 165.57 157.88 166.62 158.27 167.52 C 158.65 168.42 159.70 168.84 160.60 168.45 Z M 161.50 168.05 L 162.41 167.64 C 163.30 167.23 163.69 166.18 163.28 165.29 C 162.87 164.40 161.82 164.02 160.94 164.42 L 160.03 164.84 C 159.14 165.25 158.75 166.30 159.16 167.19 C 159.57 168.07 160.62 168.46 161.50 168.05 Z M 162.43 167.62 L 163.28 167.21 C 164.15 166.80 164.52 165.74 164.10 164.87 C 163.69 163.99 162.63 163.62 161.76 164.04 L 160.91 164.44 C 160.04 164.86 159.66 165.91 160.08 166.79 C 160.50 167.67 161.56 168.04 162.43 167.62 Z M 163.29 167.20 L 164.16 166.77 C 165.03 166.35 165.39 165.29 164.96 164.42 C 164.54 163.55 163.48 163.19 162.61 163.62 L 161.74 164.05 C 160.87 164.48 160.51 165.53 160.94 166.40 C 161.37 167.27 162.42 167.63 163.29 167.20 Z M 164.18 166.76 L 165.09 166.30 C 165.96 165.86 166.30 164.80 165.86 163.94 C 165.42 163.08 164.37 162.73 163.50 163.17 L 162.59 163.63 C 161.73 164.07 161.38 165.13 161.82 165.99 C 162.26 166.86 163.32 167.20 164.18 166.76 Z M 165.11 166.28 L 166.04 165.80 C 166.89 165.35 167.22 164.29 166.77 163.43 C 166.32 162.58 165.26 162.25 164.41 162.70 L 163.48 163.18 C 162.63 163.63 162.30 164.69 162.75 165.55 C 163.20 166.41 164.26 166.73 165.11 166.28 Z M 166.06 165.78 L 166.97 165.28 C 167.82 164.82 168.13 163.76 167.67 162.91 C 167.20 162.06 166.14 161.75 165.29 162.22 L 164.38 162.72 C 163.54 163.18 163.23 164.24 163.69 165.09 C 164.15 165.94 165.22 166.25 166.06 165.78 Z M 167.00 165.26 L 167.92 164.73 C 168.75 164.25 169.04 163.19 168.55 162.35 C 168.07 161.52 167.01 161.23 166.17 161.71 L 165.26 162.24 C 164.43 162.72 164.14 163.79 164.62 164.62 C 165.10 165.46 166.17 165.74 167.00 165.26 Z M 167.95 164.70 L 168.83 164.17 C 169.64 163.66 169.90 162.59 169.40 161.78 C 168.90 160.96 167.83 160.71 167.01 161.21 L 166.13 161.74 C 165.32 162.25 165.06 163.32 165.57 164.13 C 166.07 164.95 167.14 165.21 167.95 164.70 Z M 168.87 164.13 L 169.70 163.58 C 170.50 163.05 170.72 161.98 170.19 161.18 C 169.66 160.39 168.59 160.17 167.79 160.70 L 166.96 161.24 C 166.17 161.77 165.95 162.84 166.48 163.64 C 167.00 164.44 168.08 164.66 168.87 164.13 Z M 169.75 163.54 L 170.54 162.97 C 171.31 162.42 171.49 161.34 170.94 160.57 C 170.38 159.80 169.31 159.62 168.54 160.17 L 167.75 160.74 C 166.97 161.29 166.79 162.37 167.35 163.14 C 167.90 163.91 168.98 164.09 169.75 163.54 Z M 170.59 162.92 L 171.35 162.33 C 172.10 161.75 172.23 160.67 171.65 159.93 C 171.07 159.18 169.99 159.05 169.24 159.63 L 168.48 160.22 C 167.74 160.80 167.60 161.88 168.19 162.63 C 168.77 163.37 169.85 163.51 170.59 162.92 Z M 171.41 162.27 L 172.23 161.57 C 172.94 160.96 173.02 159.88 172.40 159.16 C 171.79 158.45 170.71 158.37 170.00 158.99 L 169.18 159.69 C 168.47 160.30 168.39 161.38 169.01 162.09 C 169.62 162.81 170.70 162.89 171.41 162.27 Z M 172.31 161.49 L 173.05 160.75 C 173.71 160.10 173.72 159.02 173.06 158.35 C 172.40 157.69 171.32 157.68 170.66 158.34 L 169.92 159.07 C 169.25 159.73 169.24 160.81 169.90 161.47 C 170.56 162.14 171.64 162.15 172.31 161.49 Z M 173.15 160.63 L 173.78 159.88 C 174.38 159.16 174.28 158.09 173.57 157.50 C 172.85 156.90 171.78 156.99 171.18 157.71 L 170.55 158.46 C 169.95 159.18 170.05 160.25 170.77 160.84 C 171.48 161.44 172.55 161.35 173.15 160.63 Z M 173.90 159.69 L 174.39 158.92 C 174.89 158.14 174.66 157.10 173.87 156.60 C 173.09 156.10 172.05 156.34 171.55 157.12 L 171.06 157.89 C 170.56 158.68 170.80 159.72 171.58 160.21 C 172.37 160.71 173.41 160.48 173.90 159.69 Z M 174.54 158.61 L 174.90 157.63 C 175.23 156.77 174.79 155.80 173.92 155.48 C 173.06 155.15 172.09 155.59 171.77 156.46 L 171.40 157.43 C 171.08 158.30 171.52 159.27 172.38 159.59 C 173.25 159.92 174.21 159.48 174.54 158.61 Z M 175.00 157.16 L 175.07 156.18 C 175.13 155.26 174.44 154.46 173.52 154.40 C 172.60 154.33 171.80 155.02 171.74 155.94 L 171.67 156.93 C 171.61 157.85 172.30 158.65 173.22 158.71 C 174.14 158.77 174.94 158.08 175.00 157.16 Z M 175.01 155.62 L 174.76 154.70 C 174.51 153.82 173.60 153.30 172.71 153.54 C 171.82 153.79 171.30 154.70 171.55 155.59 L 171.80 156.50 C 172.05 157.39 172.96 157.91 173.85 157.66 C 174.73 157.42 175.25 156.50 175.01 155.62 Z M 174.51 154.19 L 173.98 153.44 C 173.46 152.69 172.42 152.51 171.67 153.03 C 170.92 153.56 170.74 154.59 171.27 155.34 L 171.79 156.10 C 172.32 156.85 173.35 157.03 174.10 156.50 C 174.85 155.98 175.04 154.94 174.51 154.19 Z M 173.70 153.14 L 172.97 152.51 C 172.28 151.91 171.24 151.99 170.64 152.68 C 170.05 153.37 170.12 154.42 170.82 155.01 L 171.54 155.64 C 172.24 156.24 173.28 156.16 173.88 155.47 C 174.47 154.78 174.39 153.73 173.70 153.14 Z M 172.77 152.37 L 171.90 151.82 C 171.13 151.33 170.11 151.56 169.63 152.33 C 169.14 153.10 169.37 154.12 170.14 154.60 L 171.02 155.15 C 171.79 155.64 172.80 155.41 173.29 154.64 C 173.77 153.87 173.54 152.85 172.77 152.37 Z M 171.77 151.75 L 170.83 151.27 C 170.02 150.85 169.03 151.17 168.62 151.98 C 168.20 152.78 168.52 153.77 169.33 154.19 L 170.27 154.67 C 171.08 155.09 172.07 154.77 172.48 153.96 C 172.90 153.16 172.58 152.16 171.77 151.75 Z M 170.76 151.23 L 169.86 150.82 C 169.03 150.45 168.06 150.81 167.68 151.64 C 167.31 152.46 167.67 153.43 168.50 153.81 L 169.40 154.22 C 170.22 154.59 171.20 154.23 171.57 153.41 C 171.95 152.58 171.58 151.61 170.76 151.23 Z M 169.80 150.80 L 168.88 150.42 C 168.05 150.08 167.09 150.48 166.75 151.32 C 166.40 152.16 166.80 153.11 167.64 153.46 L 168.55 153.83 C 169.39 154.18 170.35 153.78 170.69 152.94 C 171.04 152.10 170.64 151.14 169.80 150.80 Z M 168.83 150.41 L 167.90 150.06 C 167.05 149.74 166.10 150.17 165.79 151.02 C 165.47 151.87 165.91 152.81 166.75 153.13 L 167.69 153.48 C 168.54 153.79 169.48 153.36 169.80 152.51 C 170.11 151.66 169.68 150.72 168.83 150.41 Z M 167.85 150.04 L 166.90 149.72 C 166.04 149.42 165.11 149.88 164.82 150.74 C 164.53 151.59 164.98 152.52 165.84 152.81 L 166.80 153.14 C 167.65 153.43 168.58 152.98 168.87 152.12 C 169.17 151.27 168.71 150.33 167.85 150.04 Z M 166.86 149.70 L 165.93 149.41 C 165.07 149.13 164.15 149.61 163.87 150.47 C 163.60 151.33 164.08 152.25 164.94 152.53 L 165.87 152.82 C 166.73 153.10 167.65 152.62 167.93 151.76 C 168.20 150.90 167.72 149.98 166.86 149.70 Z M 165.90 149.40 L 164.94 149.11 C 164.07 148.86 163.16 149.35 162.91 150.22 C 162.65 151.09 163.14 152.00 164.01 152.25 L 164.97 152.54 C 165.84 152.79 166.75 152.30 167.00 151.43 C 167.26 150.57 166.77 149.66 165.90 149.40 Z M 164.91 149.11 L 163.93 148.84 C 163.06 148.60 162.16 149.11 161.92 149.98 C 161.68 150.85 162.19 151.75 163.07 151.99 L 164.04 152.26 C 164.91 152.50 165.81 151.99 166.05 151.12 C 166.29 150.25 165.78 149.35 164.91 149.11 Z M 163.90 148.83 L 162.91 148.58 C 162.04 148.36 161.15 148.89 160.93 149.77 C 160.70 150.64 161.24 151.53 162.11 151.75 L 163.10 152.00 C 163.97 152.22 164.86 151.69 165.09 150.82 C 165.31 149.94 164.78 149.05 163.90 148.83 Z M 162.88 148.57 L 161.89 148.34 C 161.01 148.14 160.13 148.69 159.93 149.57 C 159.72 150.45 160.27 151.33 161.16 151.53 L 162.15 151.76 C 163.03 151.96 163.91 151.41 164.11 150.53 C 164.31 149.65 163.76 148.77 162.88 148.57 Z M 161.86 148.34 L 160.87 148.13 C 159.99 147.94 159.12 148.51 158.93 149.40 C 158.75 150.28 159.32 151.15 160.20 151.33 L 161.19 151.54 C 162.07 151.73 162.94 151.16 163.12 150.27 C 163.31 149.39 162.74 148.52 161.86 148.34 Z M 160.84 148.12 L 159.87 147.94 C 158.98 147.77 158.12 148.35 157.95 149.24 C 157.78 150.13 158.36 150.98 159.25 151.15 L 160.23 151.34 C 161.12 151.51 161.97 150.93 162.14 150.04 C 162.31 149.15 161.73 148.29 160.84 148.12 Z M 159.84 147.93 L 158.87 147.76 C 157.98 147.61 157.13 148.20 156.98 149.09 C 156.82 149.98 157.42 150.83 158.31 150.99 L 159.27 151.16 C 160.17 151.31 161.01 150.72 161.17 149.83 C 161.33 148.94 160.73 148.09 159.84 147.93 Z M 158.85 147.76 L 157.84 147.60 C 156.95 147.45 156.10 148.06 155.96 148.95 C 155.82 149.84 156.42 150.68 157.32 150.83 L 158.33 150.99 C 159.22 151.14 160.06 150.53 160.21 149.64 C 160.35 148.74 159.74 147.90 158.85 147.76 Z M 157.82 147.59 L 156.82 147.44 C 155.93 147.31 155.09 147.92 154.96 148.82 C 154.82 149.71 155.44 150.54 156.33 150.68 L 157.33 150.83 C 158.23 150.97 159.06 150.35 159.19 149.46 C 159.33 148.56 158.72 147.73 157.82 147.59 Z M 156.81 147.44 L 155.83 147.30 C 154.94 147.17 154.10 147.79 153.97 148.68 C 153.84 149.58 154.46 150.41 155.36 150.54 L 156.34 150.68 C 157.23 150.81 158.06 150.19 158.19 149.30 C 158.32 148.40 157.70 147.57 156.81 147.44 Z M 155.83 147.30 L 154.87 147.16 C 153.98 147.03 153.15 147.65 153.02 148.55 C 152.89 149.44 153.51 150.27 154.40 150.40 L 155.36 150.54 C 156.26 150.67 157.09 150.05 157.21 149.15 C 157.34 148.26 156.72 147.43 155.83 147.30 Z M 154.87 147.16 L 153.87 147.01 C 152.97 146.88 152.14 147.50 152.01 148.39 C 151.88 149.29 152.50 150.12 153.39 150.25 L 154.40 150.40 C 155.29 150.53 156.13 149.91 156.26 149.02 C 156.39 148.12 155.77 147.29 154.87 147.16 Z M 153.86 147.01 L 152.87 146.87 C 151.98 146.74 151.15 147.36 151.02 148.26 C 150.89 149.15 151.51 149.98 152.41 150.11 L 153.40 150.25 C 154.29 150.38 155.12 149.76 155.25 148.86 C 155.38 147.97 154.76 147.14 153.86 147.01 Z M 152.86 146.87 L 151.88 146.74 C 150.98 146.62 150.16 147.25 150.04 148.14 C 149.92 149.04 150.55 149.86 151.45 149.98 L 152.43 150.11 C 153.32 150.23 154.15 149.60 154.27 148.71 C 154.38 147.81 153.75 146.99 152.86 146.87 Z M 151.85 146.73 L 150.85 146.62 C 149.95 146.52 149.14 147.16 149.04 148.06 C 148.94 148.96 149.58 149.77 150.48 149.88 L 151.48 149.99 C 152.38 150.09 153.19 149.45 153.29 148.55 C 153.39 147.65 152.75 146.83 151.85 146.73 Z M 150.81 146.61 L 149.80 146.52 C 148.90 146.44 148.10 147.11 148.02 148.01 C 147.94 148.92 148.61 149.72 149.52 149.80 L 150.52 149.88 C 151.43 149.96 152.23 149.30 152.31 148.39 C 152.39 147.49 151.72 146.69 150.81 146.61 Z M 149.75 146.51 L 148.75 146.46 C 147.84 146.41 147.06 147.11 147.01 148.02 C 146.96 148.93 147.66 149.70 148.57 149.75 L 149.57 149.81 C 150.48 149.85 151.26 149.16 151.31 148.25 C 151.36 147.34 150.66 146.56 149.75 146.51 Z M 148.67 146.45 L 147.69 146.44 C 146.78 146.43 146.03 147.17 146.02 148.08 C 146.01 149.00 146.75 149.74 147.66 149.75 L 148.64 149.76 C 149.56 149.77 150.31 149.03 150.32 148.12 C 150.32 147.21 149.59 146.46 148.67 146.45 Z M 147.57 146.41 L 146.28 146.50 C 145.35 146.55 144.65 147.36 144.71 148.28 C 144.77 149.21 145.57 149.92 146.49 149.86 L 147.78 149.78 C 148.71 149.72 149.42 148.92 149.36 147.99 C 149.30 147.06 148.50 146.36 147.57 146.41 Z M 145.96 146.49 L 145.08 146.72 C 144.15 146.95 143.59 147.89 143.82 148.82 C 144.06 149.75 145.00 150.32 145.93 150.08 L 146.81 149.86 C 147.74 149.63 148.31 148.68 148.07 147.75 C 147.84 146.82 146.89 146.26 145.96 146.49 Z M 143.75 148.09 L 143.68 148.49 C 143.51 149.46 144.16 150.39 145.13 150.56 C 146.10 150.73 147.03 150.08 147.20 149.11 L 147.27 148.71 C 147.44 147.74 146.79 146.81 145.82 146.64 C 144.84 146.47 143.92 147.12 143.75 148.09 Z M 144.46 150.35 L 145.27 150.86 C 146.12 151.40 147.25 151.14 147.79 150.29 C 148.33 149.44 148.08 148.31 147.22 147.77 L 146.41 147.26 C 145.56 146.72 144.43 146.97 143.89 147.82 C 143.35 148.68 143.61 149.81 144.46 150.35 Z M 145.66 151.08 L 146.83 151.47 C 147.80 151.79 148.86 151.27 149.18 150.30 C 149.51 149.32 148.98 148.27 148.01 147.94 L 146.84 147.55 C 145.86 147.22 144.81 147.75 144.48 148.72 C 144.16 149.70 144.68 150.75 145.66 151.08 Z M 147.07 151.55 L 148.02 151.73 C 149.03 151.92 150.01 151.25 150.21 150.24 C 150.40 149.22 149.73 148.24 148.72 148.05 L 147.77 147.86 C 146.75 147.67 145.77 148.34 145.58 149.35 C 145.39 150.37 146.05 151.35 147.07 151.55 Z M 148.16 151.75 L 149.16 151.86 C 150.19 151.97 151.12 151.23 151.23 150.20 C 151.34 149.17 150.60 148.25 149.57 148.13 L 148.57 148.02 C 147.54 147.91 146.62 148.65 146.50 149.68 C 146.39 150.71 147.13 151.64 148.16 151.75 Z M 149.26 151.86 L 150.29 151.93 C 151.32 151.99 152.21 151.20 152.27 150.17 C 152.33 149.13 151.54 148.25 150.51 148.19 L 149.48 148.12 C 148.44 148.06 147.56 148.85 147.50 149.89 C 147.44 150.92 148.22 151.80 149.26 151.86 Z M 150.34 151.93 L 151.32 151.96 C 152.36 151.99 153.22 151.18 153.25 150.15 C 153.29 149.11 152.47 148.25 151.44 148.21 L 150.46 148.18 C 149.43 148.15 148.56 148.96 148.53 150.00 C 148.50 151.03 149.31 151.89 150.34 151.93 Z M 151.35 151.96 L 152.33 151.97 C 153.36 151.99 154.21 151.16 154.23 150.13 C 154.25 149.10 153.42 148.25 152.39 148.23 L 151.41 148.22 C 150.38 148.20 149.53 149.02 149.51 150.06 C 149.49 151.09 150.32 151.94 151.35 151.96 Z M 152.35 151.97 L 153.36 151.98 C 154.39 151.98 155.23 151.15 155.23 150.12 C 155.24 149.09 154.41 148.25 153.38 148.24 L 152.37 148.23 C 151.34 148.23 150.50 149.06 150.49 150.09 C 150.49 151.12 151.32 151.96 152.35 151.97 Z M 153.36 151.97 L 154.41 151.98 C 155.44 151.98 156.27 151.14 156.27 150.11 C 156.28 149.08 155.44 148.24 154.41 148.24 L 153.37 148.24 C 152.34 148.24 151.50 149.08 151.50 150.11 C 151.50 151.14 152.33 151.97 153.36 151.97 Z M 154.41 151.97 L 155.42 151.97 C 156.45 151.97 157.28 151.14 157.28 150.11 C 157.28 149.08 156.45 148.24 155.42 148.24 L 154.41 148.24 C 153.38 148.25 152.54 149.08 152.54 150.11 C 152.54 151.14 153.38 151.97 154.41 151.97 Z M 155.43 151.97 L 156.45 151.96 C 157.48 151.96 158.31 151.12 158.30 150.09 C 158.30 149.06 157.46 148.23 156.43 148.24 L 155.41 148.25 C 154.38 148.25 153.55 149.09 153.56 150.12 C 153.56 151.15 154.40 151.98 155.43 151.97 Z M 156.47 151.96 L 157.48 151.94 C 158.51 151.92 159.33 151.08 159.31 150.05 C 159.29 149.02 158.44 148.21 157.42 148.22 L 156.41 148.24 C 155.38 148.26 154.56 149.11 154.58 150.13 C 154.60 151.16 155.45 151.98 156.47 151.96 Z M 157.52 151.94 L 158.48 151.90 C 159.51 151.86 160.31 151.00 160.27 149.98 C 160.23 148.95 159.37 148.15 158.35 148.19 L 157.38 148.23 C 156.36 148.27 155.56 149.13 155.59 150.15 C 155.63 151.18 156.49 151.98 157.52 151.94 Z M 158.54 151.89 L 159.57 151.83 C 160.59 151.76 161.36 150.87 161.30 149.85 C 161.23 148.83 160.34 148.06 159.32 148.13 L 158.29 148.20 C 157.27 148.27 156.50 149.15 156.57 150.17 C 156.64 151.19 157.52 151.96 158.54 151.89 Z M 159.63 151.81 L 160.62 151.71 C 161.63 151.61 162.37 150.71 162.27 149.69 C 162.17 148.68 161.26 147.94 160.25 148.04 L 159.26 148.14 C 158.25 148.24 157.51 149.15 157.61 150.16 C 157.71 151.18 158.62 151.92 159.63 151.81 Z M 160.67 151.70 L 161.64 151.58 C 162.65 151.44 163.36 150.52 163.22 149.51 C 163.09 148.51 162.17 147.80 161.16 147.93 L 160.20 148.05 C 159.19 148.19 158.48 149.11 158.61 150.12 C 158.74 151.12 159.67 151.83 160.67 151.70 Z M 161.68 151.56 L 162.64 151.42 C 163.65 151.26 164.33 150.33 164.18 149.33 C 164.03 148.33 163.09 147.64 162.09 147.79 L 161.12 147.94 C 160.12 148.09 159.44 149.03 159.59 150.03 C 159.74 151.03 160.67 151.72 161.68 151.56 Z M 162.66 151.41 L 163.64 151.25 C 164.64 151.09 165.31 150.15 165.15 149.15 C 164.99 148.16 164.05 147.48 163.06 147.64 L 162.08 147.80 C 161.08 147.96 160.40 148.90 160.57 149.90 C 160.73 150.89 161.67 151.57 162.66 151.41 Z M 163.65 151.24 L 164.64 151.08 C 165.63 150.92 166.31 149.98 166.14 148.98 C 165.98 147.99 165.04 147.32 164.05 147.48 L 163.05 147.65 C 162.06 147.81 161.39 148.75 161.55 149.74 C 161.71 150.73 162.65 151.41 163.65 151.24 Z M 164.63 151.08 L 165.63 150.92 C 166.62 150.76 167.29 149.83 167.14 148.84 C 166.98 147.85 166.05 147.17 165.06 147.33 L 164.06 147.49 C 163.07 147.64 162.39 148.57 162.55 149.56 C 162.71 150.56 163.64 151.23 164.63 151.08 Z M 165.60 150.92 L 166.57 150.78 C 167.56 150.64 168.25 149.72 168.10 148.73 C 167.96 147.74 167.05 147.05 166.05 147.19 L 165.09 147.33 C 164.10 147.47 163.41 148.39 163.55 149.38 C 163.69 150.37 164.61 151.06 165.60 150.92 Z M 166.54 150.77 L 167.51 150.65 C 168.50 150.53 169.19 149.62 169.07 148.63 C 168.94 147.64 168.04 146.94 167.05 147.07 L 166.08 147.19 C 165.10 147.32 164.40 148.22 164.52 149.21 C 164.65 150.20 165.55 150.90 166.54 150.77 Z M 167.48 150.65 L 168.48 150.53 C 169.46 150.42 170.17 149.53 170.06 148.54 C 169.95 147.56 169.06 146.85 168.07 146.96 L 167.08 147.07 C 166.09 147.19 165.38 148.08 165.49 149.06 C 165.60 150.05 166.50 150.76 167.48 150.65 Z M 168.46 150.53 L 169.49 150.42 C 170.47 150.32 171.19 149.44 171.09 148.46 C 170.98 147.47 170.10 146.76 169.12 146.86 L 168.09 146.97 C 167.10 147.07 166.39 147.95 166.49 148.93 C 166.59 149.92 167.47 150.63 168.46 150.53 Z M 169.48 150.42 L 170.39 150.33 C 171.37 150.23 172.09 149.36 172.00 148.38 C 171.90 147.40 171.03 146.68 170.05 146.78 L 169.13 146.87 C 168.15 146.96 167.43 147.83 167.53 148.81 C 167.62 149.79 168.49 150.51 169.48 150.42 Z M 170.39 150.32 L 171.35 150.23 C 172.33 150.14 173.05 149.27 172.96 148.30 C 172.87 147.32 172.00 146.60 171.02 146.69 L 170.06 146.78 C 169.08 146.87 168.36 147.74 168.45 148.72 C 168.54 149.70 169.41 150.41 170.39 150.32 Z M 171.35 150.23 L 172.37 150.13 C 173.34 150.04 174.06 149.18 173.97 148.20 C 173.88 147.23 173.01 146.51 172.04 146.60 L 171.03 146.70 C 170.05 146.79 169.33 147.65 169.42 148.62 C 169.51 149.60 170.38 150.32 171.35 150.23 Z M 172.37 150.13 L 173.42 150.03 C 174.39 149.94 175.11 149.08 175.02 148.11 C 174.93 147.14 174.07 146.42 173.10 146.51 L 172.04 146.61 C 171.07 146.70 170.35 147.56 170.45 148.53 C 170.54 149.50 171.40 150.22 172.37 150.13 Z M 173.43 150.02 L 174.61 149.90 C 175.58 149.81 176.29 148.95 176.20 147.99 C 176.10 147.02 175.24 146.31 174.28 146.41 L 173.09 146.52 C 172.13 146.61 171.42 147.47 171.51 148.44 C 171.60 149.40 172.46 150.11 173.43 150.02 Z M 174.65 149.89 L 175.86 149.75 C 176.81 149.63 177.50 148.77 177.39 147.81 C 177.27 146.85 176.41 146.17 175.45 146.28 L 174.24 146.42 C 173.29 146.54 172.60 147.40 172.71 148.36 C 172.83 149.32 173.69 150.00 174.65 149.89 Z M 175.96 149.72 L 176.98 149.53 C 177.92 149.36 178.55 148.46 178.38 147.52 C 178.21 146.58 177.31 145.96 176.37 146.13 L 175.34 146.31 C 174.40 146.48 173.78 147.38 173.95 148.32 C 174.12 149.26 175.02 149.89 175.96 149.72 Z M 177.26 149.44 L 177.95 149.19 C 178.84 148.87 179.30 147.88 178.98 146.99 C 178.65 146.10 177.66 145.64 176.77 145.96 L 176.09 146.22 C 175.20 146.54 174.74 147.53 175.06 148.42 C 175.39 149.31 176.37 149.77 177.26 149.44 Z M 178.94 148.22 L 179.12 147.76 C 179.48 146.89 179.06 145.89 178.19 145.54 C 177.32 145.19 176.33 145.60 175.98 146.47 L 175.79 146.94 C 175.43 147.81 175.85 148.80 176.72 149.15 C 177.59 149.51 178.58 149.09 178.94 148.22 Z M 178.79 145.99 L 178.18 145.32 C 177.56 144.64 176.50 144.59 175.82 145.21 C 175.13 145.83 175.08 146.89 175.70 147.58 L 176.31 148.24 C 176.93 148.93 177.99 148.98 178.68 148.35 C 179.36 147.73 179.41 146.67 178.79 145.99 Z M 177.90 145.11 L 176.90 144.39 C 176.16 143.86 175.13 144.03 174.60 144.77 C 174.07 145.51 174.24 146.54 174.98 147.07 L 175.98 147.79 C 176.72 148.32 177.75 148.15 178.29 147.41 C 178.82 146.67 178.65 145.64 177.90 145.11 Z"
      fill="black"
      fill-rule="nonzero" /><path d="M 165.38 120.59 L 164.73 121.26 C 164.03 121.97 164.04 123.10 164.74 123.80 C 165.45 124.49 166.58 124.48 167.28 123.78 L 167.94 123.11 C 168.63 122.40 168.62 121.27 167.92 120.58 C 167.21 119.88 166.08 119.89 165.38 120.59 Z M 164.63 121.27 L 163.98 121.99 C 163.29 122.75 163.35 123.92 164.11 124.60 C 164.86 125.29 166.03 125.24 166.72 124.48 L 167.37 123.76 C 168.06 123.01 168.00 121.84 167.25 121.15 C 166.49 120.46 165.32 120.52 164.63 121.27 Z M 163.85 122.06 L 163.21 122.87 C 162.56 123.70 162.71 124.90 163.54 125.55 C 164.37 126.20 165.58 126.05 166.22 125.22 L 166.86 124.41 C 167.51 123.58 167.36 122.38 166.53 121.73 C 165.70 121.08 164.50 121.23 163.85 122.06 Z M 163.07 122.98 L 162.51 123.85 C 161.92 124.76 162.18 125.98 163.10 126.56 C 164.01 127.15 165.22 126.89 165.81 125.98 L 166.37 125.11 C 166.96 124.20 166.69 122.98 165.78 122.39 C 164.87 121.81 163.66 122.07 163.07 122.98 Z M 162.41 123.96 L 161.94 124.81 C 161.42 125.78 161.78 126.99 162.74 127.52 C 163.71 128.04 164.92 127.68 165.45 126.72 L 165.91 125.87 C 166.44 124.90 166.08 123.69 165.11 123.16 C 164.14 122.64 162.93 122.99 162.41 123.96 Z M 161.89 124.88 L 161.44 125.80 C 160.96 126.80 161.37 128.00 162.37 128.49 C 163.37 128.97 164.58 128.56 165.06 127.55 L 165.51 126.64 C 165.99 125.64 165.58 124.44 164.58 123.95 C 163.58 123.47 162.37 123.88 161.89 124.88 Z M 161.40 125.84 L 160.98 126.78 C 160.52 127.80 160.97 129.01 161.99 129.47 C 163.02 129.93 164.22 129.47 164.68 128.45 L 165.11 127.51 C 165.57 126.49 165.11 125.28 164.09 124.82 C 163.07 124.36 161.86 124.82 161.40 125.84 Z M 160.95 126.80 L 160.54 127.74 C 160.09 128.77 160.57 129.98 161.61 130.43 C 162.65 130.88 163.86 130.40 164.31 129.36 L 164.71 128.43 C 165.16 127.39 164.68 126.18 163.64 125.73 C 162.61 125.28 161.40 125.76 160.95 126.80 Z M 160.53 127.74 L 160.12 128.68 C 159.67 129.73 160.16 130.94 161.21 131.39 C 162.26 131.84 163.47 131.36 163.92 130.31 L 164.33 129.36 C 164.77 128.31 164.29 127.10 163.24 126.65 C 162.19 126.20 160.98 126.69 160.53 127.74 Z M 160.11 128.68 L 159.72 129.60 C 159.27 130.65 159.76 131.87 160.81 132.32 C 161.87 132.77 163.09 132.28 163.54 131.23 L 163.93 130.31 C 164.38 129.25 163.89 128.03 162.84 127.58 C 161.78 127.13 160.56 127.62 160.11 128.68 Z M 159.71 129.60 L 159.32 130.51 C 158.87 131.57 159.37 132.79 160.43 133.24 C 161.49 133.69 162.72 133.19 163.17 132.13 L 163.55 131.23 C 164.00 130.16 163.50 128.94 162.44 128.49 C 161.38 128.04 160.16 128.54 159.71 129.60 Z M 159.31 130.51 L 158.93 131.42 C 158.48 132.49 158.99 133.72 160.06 134.17 C 161.13 134.61 162.36 134.11 162.80 133.04 L 163.18 132.13 C 163.63 131.06 163.12 129.83 162.05 129.38 C 160.98 128.94 159.76 129.44 159.31 130.51 Z M 158.92 131.43 L 158.55 132.33 C 158.11 133.40 158.62 134.64 159.70 135.08 C 160.78 135.52 162.01 135.00 162.45 133.93 L 162.81 133.03 C 163.26 131.95 162.74 130.72 161.66 130.28 C 160.59 129.84 159.36 130.36 158.92 131.43 Z M 158.54 132.34 L 158.18 133.22 C 157.74 134.31 158.27 135.54 159.35 135.97 C 160.44 136.41 161.67 135.89 162.10 134.80 L 162.46 133.92 C 162.89 132.83 162.37 131.60 161.29 131.17 C 160.20 130.73 158.97 131.26 158.54 132.34 Z M 158.17 133.23 L 157.81 134.15 C 157.38 135.24 157.91 136.47 159.00 136.90 C 160.09 137.33 161.32 136.80 161.75 135.71 L 162.11 134.79 C 162.54 133.70 162.01 132.47 160.92 132.04 C 159.83 131.61 158.60 132.15 158.17 133.23 Z M 157.80 134.16 L 157.43 135.11 C 157.00 136.21 157.55 137.44 158.64 137.86 C 159.74 138.29 160.97 137.74 161.39 136.65 L 161.76 135.70 C 162.19 134.60 161.64 133.37 160.55 132.95 C 159.45 132.52 158.22 133.07 157.80 134.16 Z M 157.42 135.12 L 157.04 136.11 C 156.62 137.21 157.18 138.44 158.28 138.86 C 159.38 139.28 160.61 138.72 161.03 137.62 L 161.40 136.64 C 161.82 135.54 161.27 134.31 160.17 133.89 C 159.07 133.47 157.84 134.02 157.42 135.12 Z M 157.03 136.12 L 156.70 137.02 C 156.28 138.13 156.84 139.36 157.95 139.77 C 159.06 140.19 160.29 139.62 160.70 138.52 L 161.04 137.61 C 161.45 136.51 160.89 135.28 159.78 134.86 C 158.68 134.45 157.45 135.01 157.03 136.12 Z M 156.69 137.03 L 156.36 137.93 C 155.95 139.04 156.52 140.27 157.63 140.68 C 158.74 141.09 159.97 140.52 160.38 139.41 L 160.71 138.51 C 161.12 137.40 160.55 136.17 159.44 135.76 C 158.33 135.35 157.10 135.92 156.69 137.03 Z M 156.35 137.93 L 156.02 138.86 C 155.61 139.97 156.18 141.20 157.29 141.61 C 158.41 142.01 159.64 141.44 160.04 140.33 L 160.38 139.40 C 160.79 138.29 160.22 137.06 159.10 136.65 C 157.99 136.25 156.76 136.82 156.35 137.93 Z M 156.01 138.86 L 155.66 139.81 C 155.26 140.93 155.83 142.16 156.95 142.56 C 158.07 142.97 159.30 142.39 159.70 141.28 L 160.05 140.33 C 160.45 139.21 159.88 137.98 158.76 137.57 C 157.65 137.17 156.42 137.74 156.01 138.86 Z M 155.66 139.81 L 155.30 140.79 C 154.90 141.91 155.48 143.14 156.59 143.55 C 157.71 143.95 158.94 143.38 159.35 142.26 L 159.71 141.28 C 160.11 140.16 159.54 138.93 158.42 138.52 C 157.30 138.12 156.07 138.69 155.66 139.81 Z M 155.30 140.79 L 154.95 141.77 C 154.54 142.88 155.12 144.12 156.23 144.53 C 157.35 144.94 158.59 144.36 159.00 143.24 L 159.35 142.26 C 159.76 141.14 159.18 139.91 158.07 139.50 C 156.95 139.09 155.71 139.67 155.30 140.79 Z M 154.94 141.76 L 154.62 142.65 C 154.21 143.77 154.79 145.01 155.91 145.42 C 157.03 145.83 158.27 145.25 158.67 144.13 L 159.00 143.24 C 159.41 142.12 158.83 140.88 157.71 140.48 C 156.59 140.07 155.35 140.64 154.94 141.76 Z M 154.62 142.66 L 154.28 143.57 C 153.88 144.69 154.46 145.93 155.58 146.34 C 156.70 146.74 157.94 146.17 158.35 145.04 L 158.68 144.13 C 159.08 143.01 158.51 141.77 157.38 141.36 C 156.26 140.96 155.02 141.53 154.62 142.66 Z M 154.28 143.57 L 153.94 144.51 C 153.54 145.63 154.12 146.87 155.25 147.27 C 156.37 147.68 157.61 147.10 158.01 145.97 L 158.35 145.04 C 158.75 143.91 158.17 142.67 157.05 142.27 C 155.92 141.87 154.68 142.45 154.28 143.57 Z M 153.94 144.52 L 153.60 145.47 C 153.20 146.60 153.79 147.84 154.92 148.23 C 156.05 148.63 157.29 148.04 157.68 146.91 L 158.02 145.96 C 158.42 144.83 157.83 143.60 156.70 143.20 C 155.57 142.80 154.34 143.39 153.94 144.52 Z M 153.59 145.49 L 153.26 146.46 C 152.87 147.59 153.47 148.83 154.60 149.22 C 155.73 149.61 156.96 149.01 157.35 147.87 L 157.69 146.90 C 158.08 145.77 157.48 144.54 156.35 144.15 C 155.22 143.75 153.98 144.36 153.59 145.49 Z M 153.25 146.48 L 152.92 147.47 C 152.54 148.61 153.15 149.84 154.28 150.22 C 155.42 150.60 156.65 149.99 157.03 148.85 L 157.36 147.86 C 157.74 146.72 157.13 145.49 155.99 145.11 C 154.86 144.73 153.63 145.34 153.25 146.48 Z M 152.91 147.49 L 152.61 148.43 C 152.24 149.57 152.86 150.79 154.00 151.16 C 155.14 151.53 156.37 150.90 156.74 149.76 L 157.04 148.83 C 157.41 147.69 156.78 146.47 155.64 146.10 C 154.50 145.73 153.28 146.35 152.91 147.49 Z M 152.60 148.45 L 152.31 149.37 C 151.95 150.52 152.59 151.73 153.73 152.09 C 154.88 152.45 156.09 151.81 156.45 150.67 L 156.74 149.74 C 157.10 148.60 156.46 147.38 155.32 147.02 C 154.18 146.67 152.96 147.30 152.60 148.45 Z M 152.30 149.39 L 152.02 150.33 C 151.67 151.48 152.32 152.69 153.46 153.04 C 154.61 153.39 155.82 152.74 156.17 151.59 L 156.46 150.65 C 156.81 149.51 156.16 148.29 155.01 147.94 C 153.87 147.60 152.65 148.24 152.30 149.39 Z M 152.01 150.35 L 151.73 151.30 C 151.39 152.45 152.05 153.66 153.20 154.00 C 154.35 154.34 155.55 153.68 155.89 152.53 L 156.18 151.58 C 156.52 150.43 155.86 149.22 154.71 148.88 C 153.56 148.54 152.35 149.20 152.01 150.35 Z M 151.73 151.31 L 151.45 152.28 C 151.11 153.44 151.78 154.64 152.93 154.97 C 154.08 155.31 155.28 154.64 155.62 153.49 L 155.90 152.52 C 156.23 151.37 155.57 150.16 154.42 149.83 C 153.26 149.50 152.06 150.16 151.73 151.31 Z M 151.44 152.29 L 151.16 153.28 C 150.84 154.43 151.51 155.63 152.66 155.96 C 153.81 156.29 155.02 155.62 155.34 154.46 L 155.62 153.48 C 155.95 152.33 155.28 151.12 154.12 150.80 C 152.97 150.47 151.77 151.14 151.44 152.29 Z M 151.16 153.29 L 150.88 154.28 C 150.56 155.44 151.24 156.64 152.39 156.96 C 153.55 157.28 154.75 156.60 155.07 155.45 L 155.34 154.45 C 155.67 153.30 154.99 152.10 153.84 151.78 C 152.68 151.46 151.48 152.13 151.16 153.29 Z M 150.88 154.29 L 150.62 155.25 C 150.30 156.40 150.98 157.60 152.14 157.91 C 153.29 158.23 154.49 157.55 154.81 156.40 L 155.07 155.44 C 155.39 154.29 154.71 153.09 153.55 152.77 C 152.39 152.45 151.20 153.13 150.88 154.29 Z M 150.62 155.25 L 150.37 156.18 C 150.05 157.34 150.74 158.53 151.89 158.85 C 153.05 159.16 154.24 158.48 154.56 157.32 L 154.81 156.39 C 155.12 155.23 154.44 154.04 153.28 153.72 C 152.12 153.41 150.93 154.09 150.62 155.25 Z M 150.36 156.19 L 150.11 157.13 C 149.80 158.29 150.49 159.48 151.65 159.79 C 152.81 160.10 154.00 159.41 154.31 158.25 L 154.56 157.31 C 154.87 156.15 154.18 154.96 153.02 154.65 C 151.86 154.34 150.67 155.03 150.36 156.19 Z M 150.11 157.14 L 149.86 158.10 C 149.55 159.26 150.25 160.44 151.41 160.75 C 152.57 161.05 153.75 160.36 154.06 159.20 L 154.31 158.25 C 154.61 157.09 153.92 155.90 152.76 155.59 C 151.60 155.29 150.41 155.98 150.11 157.14 Z M 149.86 158.10 L 149.61 159.07 C 149.31 160.23 150.00 161.42 151.16 161.72 C 152.33 162.02 153.51 161.32 153.81 160.16 L 154.06 159.19 C 154.36 158.03 153.66 156.85 152.50 156.55 C 151.34 156.25 150.16 156.94 149.86 158.10 Z M 149.60 159.08 L 149.35 160.07 C 149.06 161.23 149.76 162.41 150.93 162.70 C 152.09 163.00 153.27 162.29 153.56 161.13 L 153.81 160.15 C 154.11 158.99 153.40 157.81 152.24 157.51 C 151.08 157.22 149.90 157.92 149.60 159.08 Z M 149.35 160.08 L 149.10 161.08 C 148.82 162.24 149.53 163.42 150.69 163.70 C 151.85 163.99 153.03 163.28 153.32 162.12 L 153.57 161.12 C 153.85 159.96 153.14 158.78 151.98 158.49 C 150.82 158.20 149.64 158.91 149.35 160.08 Z M 149.10 161.09 L 148.86 162.10 C 148.57 163.27 149.29 164.44 150.45 164.72 C 151.62 165.00 152.79 164.29 153.08 163.12 L 153.32 162.11 C 153.60 160.94 152.89 159.77 151.72 159.49 C 150.56 159.21 149.38 159.92 149.10 161.09 Z M 148.85 162.11 L 148.62 163.10 C 148.34 164.27 149.07 165.43 150.23 165.71 C 151.40 165.99 152.57 165.26 152.84 164.10 L 153.08 163.11 C 153.35 161.94 152.63 160.78 151.46 160.50 C 150.30 160.22 149.13 160.95 148.85 162.11 Z M 148.62 163.11 L 148.39 164.09 C 148.12 165.26 148.85 166.43 150.02 166.69 C 151.19 166.96 152.35 166.24 152.62 165.07 L 152.85 164.09 C 153.12 162.92 152.39 161.75 151.22 161.48 C 150.05 161.21 148.89 161.94 148.62 163.11 Z M 148.39 164.10 L 148.17 165.09 C 147.90 166.26 148.64 167.42 149.81 167.69 C 150.98 167.95 152.14 167.22 152.40 166.05 L 152.62 165.06 C 152.88 163.89 152.15 162.73 150.98 162.46 C 149.81 162.20 148.65 162.94 148.39 164.10 Z M 148.17 165.11 L 147.95 166.10 C 147.69 167.27 148.43 168.42 149.60 168.68 C 150.77 168.94 151.93 168.20 152.18 167.03 L 152.40 166.04 C 152.66 164.87 151.92 163.71 150.75 163.45 C 149.58 163.20 148.42 163.94 148.17 165.11 Z M 147.95 166.11 L 147.73 167.10 C 147.48 168.27 148.23 169.42 149.40 169.67 C 150.57 169.92 151.72 169.18 151.97 168.01 L 152.18 167.02 C 152.43 165.85 151.69 164.69 150.52 164.44 C 149.35 164.19 148.20 164.94 147.95 166.11 Z M 147.73 167.11 L 147.53 168.10 C 147.28 169.27 148.04 170.42 149.21 170.66 C 150.38 170.90 151.53 170.15 151.77 168.98 L 151.97 167.99 C 152.22 166.82 151.47 165.68 150.29 165.43 C 149.12 165.19 147.98 165.94 147.73 167.11 Z M 147.53 168.11 L 147.33 169.08 C 147.09 170.26 147.85 171.40 149.03 171.63 C 150.20 171.87 151.34 171.11 151.58 169.94 L 151.77 168.97 C 152.01 167.79 151.25 166.65 150.08 166.41 C 148.90 166.18 147.76 166.94 147.53 168.11 Z M 147.33 169.10 L 147.14 170.06 C 146.91 171.23 147.68 172.37 148.85 172.59 C 150.03 172.82 151.16 172.06 151.39 170.88 L 151.58 169.93 C 151.81 168.75 151.04 167.62 149.87 167.39 C 148.69 167.16 147.56 167.92 147.33 169.10 Z M 147.14 170.07 L 146.95 171.06 C 146.73 172.24 147.51 173.37 148.68 173.59 C 149.86 173.81 150.99 173.03 151.21 171.86 L 151.39 170.87 C 151.61 169.69 150.84 168.56 149.66 168.34 C 148.49 168.12 147.36 168.90 147.14 170.07 Z M 146.95 171.08 L 146.76 172.13 C 146.55 173.30 147.34 174.43 148.51 174.64 C 149.69 174.85 150.81 174.07 151.02 172.89 L 151.21 171.84 C 151.42 170.66 150.64 169.54 149.46 169.33 C 148.29 169.12 147.16 169.90 146.95 171.08 Z M 146.76 172.14 L 146.59 173.17 C 146.39 174.34 147.18 175.46 148.35 175.66 C 149.53 175.86 150.65 175.07 150.85 173.90 L 151.02 172.87 C 151.22 171.70 150.43 170.58 149.26 170.38 C 148.08 170.18 146.97 170.97 146.76 172.14 Z M 146.59 173.18 L 146.42 174.18 C 146.23 175.36 147.03 176.47 148.20 176.66 C 149.38 176.85 150.49 176.06 150.68 174.88 L 150.85 173.88 C 151.04 172.71 150.25 171.60 149.07 171.40 C 147.89 171.21 146.78 172.00 146.59 173.18 Z M 146.42 174.19 L 146.27 175.17 C 146.08 176.35 146.88 177.45 148.06 177.64 C 149.24 177.83 150.34 177.02 150.53 175.85 L 150.68 174.87 C 150.87 173.69 150.07 172.59 148.89 172.40 C 147.72 172.21 146.61 173.02 146.42 174.19 Z M 146.27 175.18 L 146.12 176.14 C 145.94 177.31 146.75 178.41 147.92 178.60 C 149.10 178.78 150.20 177.97 150.38 176.79 L 150.53 175.84 C 150.71 174.66 149.90 173.56 148.73 173.38 C 147.55 173.20 146.45 174.00 146.27 175.18 Z M 146.12 176.14 L 145.98 177.08 C 145.80 178.26 146.61 179.36 147.79 179.54 C 148.96 179.71 150.06 178.90 150.24 177.73 L 150.38 176.79 C 150.56 175.61 149.75 174.51 148.57 174.34 C 147.40 174.16 146.30 174.97 146.12 176.14 Z M 145.98 177.09 L 145.84 178.02 C 145.67 179.20 146.48 180.29 147.65 180.47 C 148.83 180.65 149.92 179.83 150.10 178.66 L 150.24 177.72 C 150.41 176.55 149.60 175.45 148.43 175.28 C 147.25 175.10 146.16 175.91 145.98 177.09 Z M 145.84 178.03 L 145.69 179.06 C 145.52 180.24 146.33 181.33 147.50 181.50 C 148.68 181.68 149.77 180.87 149.94 179.69 L 150.10 178.66 C 150.27 177.48 149.46 176.39 148.28 176.22 C 147.11 176.04 146.02 176.85 145.84 178.03 Z M 145.69 179.07 L 145.54 180.09 C 145.37 181.26 146.18 182.35 147.36 182.52 C 148.53 182.69 149.62 181.88 149.79 180.71 L 149.94 179.69 C 150.11 178.52 149.30 177.43 148.13 177.25 C 146.96 177.08 145.87 177.89 145.69 179.07 Z M 145.55 180.09 L 145.40 181.09 C 145.23 182.26 146.04 183.35 147.21 183.52 C 148.38 183.69 149.47 182.88 149.64 181.70 L 149.79 180.70 C 149.96 179.53 149.14 178.45 147.97 178.28 C 146.80 178.11 145.72 178.92 145.55 180.09 Z M 145.41 181.10 L 145.27 182.08 C 145.10 183.25 145.91 184.33 147.08 184.50 C 148.25 184.66 149.33 183.85 149.50 182.68 L 149.64 181.70 C 149.80 180.53 148.99 179.45 147.82 179.28 C 146.65 179.12 145.57 179.93 145.41 181.10 Z M 145.27 182.09 L 145.13 183.05 C 144.97 184.22 145.78 185.30 146.95 185.46 C 148.12 185.62 149.20 184.81 149.36 183.64 L 149.49 182.68 C 149.66 181.51 148.84 180.43 147.68 180.27 C 146.51 180.11 145.43 180.92 145.27 182.09 Z M 145.14 183.06 L 145.01 184.01 C 144.85 185.17 145.66 186.25 146.83 186.40 C 147.99 186.56 149.07 185.75 149.23 184.58 L 149.36 183.64 C 149.52 182.47 148.70 181.40 147.53 181.24 C 146.37 181.08 145.30 181.89 145.14 183.06 Z M 145.01 184.02 L 144.88 185.02 C 144.72 186.19 145.54 187.25 146.70 187.41 C 147.87 187.56 148.94 186.74 149.09 185.58 L 149.22 184.57 C 149.38 183.41 148.56 182.34 147.40 182.19 C 146.23 182.03 145.16 182.85 145.01 184.02 Z M 144.88 185.03 L 144.75 186.06 C 144.60 187.22 145.42 188.28 146.58 188.43 C 147.74 188.58 148.80 187.76 148.95 186.60 L 149.08 185.57 C 149.23 184.41 148.41 183.35 147.25 183.20 C 146.09 183.05 145.03 183.87 144.88 185.03 Z M 144.76 186.06 L 144.63 187.06 C 144.49 188.22 145.31 189.28 146.46 189.42 C 147.62 189.57 148.68 188.75 148.82 187.59 L 148.95 186.59 C 149.09 185.43 148.27 184.38 147.11 184.23 C 145.96 184.08 144.90 184.91 144.76 186.06 Z M 144.64 187.07 L 144.52 188.05 C 144.37 189.21 145.19 190.26 146.35 190.40 C 147.50 190.54 148.55 189.72 148.69 188.57 L 148.82 187.59 C 148.96 186.43 148.14 185.38 146.98 185.24 C 145.83 185.10 144.78 185.92 144.64 187.07 Z M 144.52 188.06 L 144.40 189.02 C 144.26 190.17 145.08 191.22 146.23 191.36 C 147.38 191.50 148.43 190.68 148.57 189.53 L 148.69 188.57 C 148.83 187.42 148.01 186.37 146.86 186.23 C 145.71 186.09 144.66 186.91 144.52 188.06 Z M 144.41 189.02 L 144.29 189.97 C 144.15 191.12 144.97 192.17 146.11 192.31 C 147.26 192.45 148.31 191.63 148.45 190.48 L 148.56 189.53 C 148.70 188.39 147.89 187.34 146.74 187.20 C 145.59 187.06 144.55 187.88 144.41 189.02 Z M 144.30 189.97 L 144.17 191.00 C 144.03 192.14 144.84 193.18 145.99 193.33 C 147.13 193.47 148.17 192.66 148.31 191.51 L 148.44 190.49 C 148.58 189.34 147.77 188.30 146.63 188.16 C 145.48 188.02 144.44 188.83 144.30 189.97 Z M 144.18 191.00 L 144.05 192.01 C 143.91 193.15 144.72 194.19 145.86 194.33 C 147.00 194.47 148.04 193.67 148.18 192.53 L 148.30 191.51 C 148.45 190.38 147.64 189.34 146.50 189.19 C 145.36 189.05 144.32 189.86 144.18 191.00 Z M 144.06 192.01 L 143.93 193.01 C 143.79 194.14 144.60 195.18 145.73 195.32 C 146.87 195.46 147.90 194.66 148.05 193.52 L 148.17 192.53 C 148.31 191.39 147.51 190.35 146.37 190.21 C 145.24 190.07 144.20 190.88 144.06 192.01 Z M 143.94 193.01 L 143.82 193.99 C 143.68 195.12 144.48 196.15 145.61 196.29 C 146.75 196.43 147.78 195.63 147.92 194.50 L 148.04 193.52 C 148.18 192.39 147.38 191.35 146.25 191.21 C 145.11 191.07 144.08 191.88 143.94 193.01 Z M 143.83 193.99 L 143.71 194.95 C 143.57 196.08 144.37 197.10 145.50 197.24 C 146.63 197.38 147.66 196.58 147.79 195.45 L 147.91 194.49 C 148.05 193.36 147.25 192.34 146.12 192.20 C 144.99 192.06 143.96 192.86 143.83 193.99 Z M 143.71 194.95 L 143.59 195.95 C 143.46 197.08 144.26 198.10 145.38 198.24 C 146.51 198.37 147.53 197.57 147.67 196.45 L 147.79 195.45 C 147.92 194.32 147.12 193.30 146.00 193.16 C 144.87 193.03 143.85 193.83 143.71 194.95 Z M 143.60 195.96 L 143.48 196.95 C 143.35 198.08 144.15 199.09 145.27 199.23 C 146.39 199.36 147.41 198.56 147.54 197.44 L 147.66 196.44 C 147.80 195.32 146.99 194.30 145.87 194.17 C 144.75 194.03 143.73 194.84 143.60 195.96 Z M 143.49 196.96 L 143.37 197.94 C 143.24 199.06 144.03 200.08 145.15 200.21 C 146.27 200.34 147.29 199.54 147.42 198.42 L 147.54 197.44 C 147.67 196.32 146.87 195.30 145.75 195.17 C 144.63 195.04 143.62 195.84 143.49 196.96 Z M 143.38 197.94 L 143.26 198.92 C 143.12 200.04 143.92 201.05 145.03 201.19 C 146.15 201.32 147.16 200.52 147.29 199.41 L 147.41 198.43 C 147.55 197.31 146.75 196.30 145.64 196.16 C 144.52 196.03 143.51 196.83 143.38 197.94 Z M 143.26 198.92 L 143.14 199.91 C 143.01 201.02 143.80 202.03 144.91 202.17 C 146.02 202.30 147.03 201.51 147.17 200.40 L 147.29 199.41 C 147.42 198.30 146.63 197.29 145.52 197.16 C 144.41 197.02 143.40 197.81 143.26 198.92 Z M 143.15 199.90 L 143.02 200.92 C 142.88 202.03 143.67 203.04 144.77 203.18 C 145.88 203.32 146.89 202.54 147.03 201.43 L 147.15 200.41 C 147.30 199.30 146.51 198.29 145.41 198.15 C 144.30 198.01 143.29 198.80 143.15 199.90 Z M 143.04 200.92 L 142.90 201.94 C 142.76 203.04 143.54 204.04 144.64 204.19 C 145.73 204.33 146.74 203.55 146.88 202.46 L 147.01 201.44 C 147.15 200.34 146.38 199.33 145.28 199.19 C 144.18 199.05 143.18 199.82 143.04 200.92 Z M 142.92 201.94 L 142.79 202.94 C 142.64 204.03 143.41 205.03 144.51 205.18 C 145.60 205.32 146.60 204.55 146.74 203.46 L 146.87 202.46 C 147.01 201.36 146.24 200.37 145.15 200.22 C 144.06 200.08 143.06 200.85 142.92 201.94 Z M 142.80 202.95 L 142.67 203.91 C 142.53 205.00 143.30 205.99 144.38 206.13 C 145.47 206.27 146.46 205.51 146.60 204.42 L 146.73 203.45 C 146.87 202.37 146.10 201.38 145.02 201.24 C 143.93 201.10 142.94 201.86 142.80 202.95 Z M 142.69 203.92 L 142.57 204.87 C 142.43 205.95 143.20 206.93 144.27 207.07 C 145.35 207.20 146.33 206.44 146.47 205.36 L 146.59 204.41 C 146.72 203.34 145.96 202.35 144.88 202.22 C 143.80 202.08 142.82 202.84 142.69 203.92 Z M 142.58 204.89 L 142.47 205.85 C 142.34 206.92 143.11 207.89 144.17 208.01 C 145.24 208.14 146.21 207.38 146.34 206.31 L 146.45 205.34 C 146.58 204.28 145.82 203.31 144.75 203.18 C 143.68 203.05 142.71 203.82 142.58 204.89 Z M 142.48 205.87 L 142.38 206.83 C 142.27 207.89 143.04 208.84 144.10 208.95 C 145.16 209.06 146.11 208.30 146.22 207.24 L 146.32 206.28 C 146.44 205.22 145.67 204.27 144.61 204.16 C 143.55 204.05 142.60 204.81 142.48 205.87 Z M 142.40 206.86 L 142.31 207.85 C 142.21 208.90 142.99 209.83 144.04 209.93 C 145.09 210.02 146.02 209.25 146.11 208.20 L 146.20 207.21 C 146.30 206.16 145.53 205.23 144.48 205.13 C 143.43 205.03 142.50 205.81 142.40 206.86 Z M 142.33 207.88 L 142.24 208.95 C 142.17 209.99 142.95 210.90 143.99 210.97 C 145.03 211.05 145.94 210.27 146.02 209.23 L 146.10 208.17 C 146.18 207.13 145.40 206.22 144.35 206.14 C 143.31 206.06 142.40 206.84 142.33 207.88 Z M 142.26 208.97 L 142.20 209.93 C 142.14 210.96 142.92 211.85 143.95 211.92 C 144.99 211.98 145.88 211.20 145.94 210.16 L 146.00 209.20 C 146.07 208.17 145.28 207.28 144.25 207.22 C 143.21 207.15 142.32 207.94 142.26 208.97 Z M 142.21 209.96 L 142.17 210.97 C 142.11 211.99 142.90 212.87 143.93 212.92 C 144.96 212.97 145.83 212.18 145.88 211.15 L 145.93 210.14 C 145.98 209.11 145.19 208.24 144.16 208.19 C 143.14 208.14 142.27 208.93 142.21 209.96 Z M 142.18 211.00 L 142.14 212.03 C 142.11 213.05 142.91 213.90 143.92 213.94 C 144.94 213.97 145.79 213.17 145.83 212.16 L 145.86 211.12 C 145.90 210.10 145.10 209.25 144.08 209.22 C 143.07 209.18 142.21 209.98 142.18 211.00 Z M 142.16 212.06 L 142.14 213.09 C 142.13 214.10 142.93 214.93 143.94 214.94 C 144.95 214.96 145.78 214.15 145.80 213.15 L 145.81 212.12 C 145.83 211.11 145.02 210.28 144.01 210.27 C 143.01 210.25 142.17 211.06 142.16 212.06 Z M 142.16 213.13 L 142.17 214.11 C 142.17 215.11 142.99 215.92 143.99 215.91 C 144.99 215.90 145.80 215.08 145.79 214.08 L 145.78 213.10 C 145.77 212.10 144.96 211.30 143.96 211.30 C 142.95 211.31 142.15 212.13 142.16 213.13 Z M 142.19 214.17 L 142.23 215.26 C 142.27 216.25 143.11 217.02 144.10 216.98 C 145.09 216.94 145.86 216.10 145.82 215.11 L 145.77 214.02 C 145.73 213.03 144.89 212.27 143.90 212.31 C 142.91 212.35 142.15 213.18 142.19 214.17 Z M 142.26 215.33 L 142.34 216.36 C 142.42 217.33 143.27 218.06 144.25 217.98 C 145.22 217.90 145.95 217.05 145.87 216.08 L 145.79 215.05 C 145.71 214.07 144.86 213.35 143.88 213.43 C 142.91 213.50 142.18 214.36 142.26 215.33 Z M 142.37 216.41 L 142.48 217.37 C 142.58 218.33 143.45 219.02 144.41 218.91 C 145.36 218.81 146.06 217.94 145.95 216.99 L 145.84 216.02 C 145.74 215.07 144.87 214.37 143.91 214.48 C 142.95 214.59 142.26 215.45 142.37 216.41 Z M 142.50 217.40 L 142.63 218.33 C 142.75 219.27 143.62 219.93 144.56 219.81 C 145.50 219.69 146.17 218.82 146.04 217.88 L 145.92 216.95 C 145.80 216.01 144.93 215.35 143.99 215.47 C 143.04 215.59 142.38 216.46 142.50 217.40 Z M 142.64 218.33 L 142.69 218.66 C 142.82 219.60 143.68 220.25 144.61 220.12 C 145.55 219.99 146.20 219.13 146.07 218.20 L 146.03 217.87 C 145.90 216.93 145.04 216.28 144.10 216.41 C 143.17 216.54 142.51 217.40 142.64 218.33 Z"
      fill="black"
      fill-rule="nonzero" /></svg>