<svg xmlns="http://www.w3.org/2000/svg" width="300" height="300" viewBox="0 0 300 300">
<path d="M 132.61 101.76 L 133.58 101.79 C 134.50 101.83 135.27 101.11 135.31 100.19 C 135.34 99.27 134.63 98.50 133.71 98.47 L 132.74 98.43 C 131.82 98.40 131.05 99.11 131.01 100.03 C 130.98 100.95 131.69 101.72 132.61 101.76 Z M 133.57 101.80 L 134.55 101.85 C 135.47 101.89 136.25 101.18 136.30 100.25 C 136.34 99.33 135.63 98.55 134.71 98.51 L 133.72 98.46 C 132.80 98.42 132.02 99.13 131.98 100.05 C 131.93 100.98 132.65 101.76 133.57 101.80 Z M 134.52 101.85 L 135.53 101.92 C 136.45 101.97 137.25 101.27 137.31 100.35 C 137.37 99.42 136.67 98.63 135.74 98.57 L 134.74 98.50 C 133.81 98.44 133.01 99.15 132.96 100.07 C 132.90 100.99 133.60 101.79 134.52 101.85 Z M 135.49 101.92 L 136.50 102.01 C 137.43 102.09 138.25 101.41 138.33 100.48 C 138.41 99.55 137.73 98.74 136.80 98.66 L 135.78 98.57 C 134.86 98.48 134.04 99.17 133.96 100.09 C 133.88 101.02 134.56 101.84 135.49 101.92 Z M 136.46 102.00 L 137.39 102.11 C 138.31 102.21 139.14 101.55 139.25 100.62 C 139.35 99.70 138.69 98.87 137.76 98.76 L 136.84 98.66 C 135.92 98.55 135.08 99.22 134.98 100.14 C 134.87 101.07 135.54 101.90 136.46 102.00 Z M 137.37 102.10 L 138.33 102.22 C 139.25 102.34 140.09 101.68 140.20 100.76 C 140.32 99.84 139.66 99.00 138.74 98.89 L 137.78 98.77 C 136.86 98.65 136.02 99.31 135.91 100.23 C 135.79 101.15 136.45 101.99 137.37 102.10 Z M 138.33 102.22 L 139.34 102.34 C 140.25 102.46 141.09 101.81 141.21 100.89 C 141.32 99.97 140.67 99.14 139.75 99.02 L 138.75 98.89 C 137.83 98.78 136.99 99.43 136.87 100.35 C 136.76 101.26 137.41 102.10 138.33 102.22 Z M 139.35 102.34 L 140.41 102.47 C 141.32 102.58 142.16 101.92 142.26 101.00 C 142.37 100.09 141.72 99.26 140.80 99.15 L 139.74 99.02 C 138.82 98.91 137.99 99.57 137.89 100.49 C 137.78 101.40 138.43 102.23 139.35 102.34 Z M 140.43 102.46 L 141.47 102.57 C 142.38 102.66 143.20 102.00 143.30 101.09 C 143.39 100.18 142.73 99.36 141.81 99.26 L 140.78 99.15 C 139.86 99.06 139.05 99.72 138.95 100.63 C 138.86 101.55 139.52 102.37 140.43 102.46 Z M 141.49 102.56 L 142.52 102.65 C 143.43 102.74 144.23 102.07 144.31 101.16 C 144.40 100.26 143.73 99.46 142.83 99.37 L 141.79 99.28 C 140.89 99.19 140.09 99.86 140.00 100.76 C 139.92 101.67 140.58 102.47 141.49 102.56 Z M 142.53 102.63 L 143.56 102.72 C 144.46 102.80 145.25 102.14 145.33 101.25 C 145.40 100.35 144.74 99.56 143.85 99.48 L 142.82 99.39 C 141.92 99.31 141.13 99.97 141.05 100.87 C 140.97 101.76 141.63 102.56 142.53 102.63 Z M 143.56 102.71 L 144.56 102.80 C 145.45 102.87 146.23 102.22 146.31 101.33 C 146.39 100.45 145.73 99.67 144.85 99.59 L 143.85 99.50 C 142.96 99.42 142.18 100.07 142.10 100.96 C 142.02 101.85 142.68 102.63 143.56 102.71 Z M 144.55 102.78 L 145.50 102.87 C 146.37 102.95 147.15 102.31 147.23 101.43 C 147.32 100.56 146.68 99.78 145.80 99.70 L 144.86 99.61 C 143.98 99.52 143.20 100.17 143.12 101.04 C 143.04 101.92 143.68 102.69 144.55 102.78 Z M 145.47 102.85 L 146.54 102.97 C 147.41 103.07 148.19 102.44 148.29 101.57 C 148.38 100.71 147.76 99.93 146.89 99.83 L 145.82 99.71 C 144.96 99.62 144.18 100.24 144.08 101.11 C 143.98 101.97 144.61 102.75 145.47 102.85 Z M 146.51 102.96 L 147.54 103.10 C 148.40 103.21 149.19 102.61 149.31 101.75 C 149.42 100.89 148.82 100.10 147.96 99.98 L 146.93 99.84 C 146.06 99.73 145.27 100.33 145.16 101.19 C 145.04 102.05 145.65 102.84 146.51 102.96 Z M 147.51 103.09 L 148.44 103.23 C 149.30 103.36 150.10 102.78 150.23 101.92 C 150.36 101.06 149.78 100.26 148.92 100.13 L 147.99 99.99 C 147.13 99.86 146.33 100.44 146.20 101.30 C 146.07 102.16 146.65 102.96 147.51 103.09 Z M 148.43 103.22 L 149.26 103.36 C 150.12 103.50 150.92 102.93 151.06 102.07 C 151.20 101.22 150.62 100.42 149.77 100.28 L 148.94 100.14 C 148.09 100.00 147.28 100.58 147.14 101.43 C 147.00 102.28 147.58 103.08 148.43 103.22 Z"
      fill="black"
      fill-rule="nonzero" /><path d="M 118.74 116.19 L 118.35 117.18 C 118.01 118.07 118.45 119.07 119.34 119.41 C 120.23 119.75 121.22 119.31 121.57 118.42 L 121.95 117.43 C 122.29 116.54 121.85 115.55 120.96 115.20 C 120.07 114.86 119.08 115.30 118.74 116.19 Z M 118.35 117.19 L 117.98 118.17 C 117.64 119.06 118.08 120.05 118.97 120.39 C 119.86 120.73 120.85 120.28 121.19 119.40 L 121.57 118.41 C 121.91 117.53 121.46 116.53 120.57 116.19 C 119.69 115.85 118.69 116.30 118.35 117.19 Z M 117.97 118.18 L 117.61 119.14 C 117.28 120.03 117.73 121.02 118.62 121.36 C 119.51 121.69 120.50 121.24 120.83 120.35 L 121.20 119.39 C 121.53 118.50 121.08 117.50 120.19 117.17 C 119.30 116.84 118.31 117.29 117.97 118.18 Z M 117.61 119.16 L 117.27 120.10 C 116.95 120.99 117.41 121.97 118.30 122.30 C 119.19 122.62 120.18 122.16 120.50 121.27 L 120.84 120.33 C 121.16 119.44 120.70 118.45 119.81 118.13 C 118.92 117.81 117.93 118.27 117.61 119.16 Z M 117.26 120.12 L 116.95 121.02 C 116.64 121.92 117.12 122.90 118.01 123.21 C 118.91 123.52 119.89 123.04 120.20 122.14 L 120.51 121.24 C 120.82 120.35 120.34 119.37 119.45 119.06 C 118.55 118.75 117.57 119.22 117.26 120.12 Z M 116.94 121.06 L 116.66 121.94 C 116.37 122.84 116.86 123.81 117.77 124.10 C 118.67 124.39 119.64 123.89 119.93 122.99 L 120.21 122.11 C 120.50 121.20 120.00 120.24 119.10 119.95 C 118.20 119.66 117.23 120.15 116.94 121.06 Z M 116.64 121.99 L 116.34 123.04 C 116.08 123.95 116.61 124.90 117.52 125.16 C 118.44 125.42 119.39 124.89 119.65 123.98 L 119.94 122.94 C 120.20 122.02 119.67 121.07 118.76 120.81 C 117.85 120.55 116.90 121.08 116.64 121.99 Z M 116.32 123.11 L 116.09 124.10 C 115.87 125.02 116.44 125.95 117.36 126.17 C 118.29 126.39 119.22 125.81 119.43 124.89 L 119.67 123.91 C 119.89 122.98 119.31 122.06 118.39 121.84 C 117.47 121.62 116.54 122.19 116.32 123.11 Z M 116.07 124.18 L 115.89 125.12 C 115.72 126.06 116.33 126.96 117.27 127.13 C 118.21 127.30 119.10 126.69 119.28 125.75 L 119.45 124.81 C 119.63 123.87 119.01 122.97 118.08 122.80 C 117.14 122.62 116.24 123.24 116.07 124.18 Z M 115.88 125.21 L 115.75 126.14 C 115.62 127.09 116.28 127.96 117.23 128.08 C 118.17 128.21 119.04 127.55 119.17 126.60 L 119.29 125.67 C 119.42 124.72 118.76 123.86 117.81 123.73 C 116.87 123.60 116.00 124.26 115.88 125.21 Z M 115.74 126.22 L 115.65 127.20 C 115.57 128.15 116.27 128.98 117.22 129.07 C 118.17 129.15 119.01 128.45 119.09 127.50 L 119.18 126.52 C 119.26 125.57 118.56 124.74 117.61 124.66 C 116.66 124.57 115.82 125.27 115.74 126.22 Z M 115.65 127.27 L 115.60 128.27 C 115.56 129.22 116.29 130.03 117.24 130.08 C 118.19 130.12 119.00 129.39 119.05 128.44 L 119.10 127.43 C 119.14 126.48 118.41 125.67 117.46 125.62 C 116.50 125.58 115.70 126.31 115.65 127.27 Z M 115.60 128.33 L 115.58 129.34 C 115.57 130.29 116.33 131.07 117.28 131.09 C 118.23 131.10 119.02 130.34 119.03 129.39 L 119.05 128.38 C 119.06 127.43 118.31 126.64 117.35 126.63 C 116.40 126.61 115.62 127.37 115.60 128.33 Z M 115.58 129.38 L 115.59 130.38 C 115.60 131.33 116.38 132.10 117.33 132.09 C 118.29 132.08 119.05 131.30 119.04 130.35 L 119.03 129.35 C 119.02 128.40 118.25 127.63 117.29 127.64 C 116.34 127.65 115.58 128.43 115.58 129.38 Z M 115.60 130.41 L 115.63 131.41 C 115.65 132.36 116.45 133.11 117.40 133.08 C 118.35 133.05 119.10 132.26 119.07 131.31 L 119.04 130.31 C 119.01 129.36 118.22 128.61 117.27 128.64 C 116.32 128.67 115.57 129.46 115.60 130.41 Z M 115.63 131.44 L 115.68 132.45 C 115.73 133.39 116.54 134.12 117.48 134.08 C 118.43 134.03 119.16 133.22 119.11 132.28 L 119.06 131.27 C 119.01 130.33 118.21 129.60 117.26 129.65 C 116.32 129.69 115.59 130.50 115.63 131.44 Z M 115.70 132.50 L 115.78 133.49 C 115.85 134.42 116.68 135.12 117.61 135.05 C 118.55 134.97 119.25 134.15 119.17 133.21 L 119.09 132.23 C 119.02 131.29 118.20 130.59 117.26 130.67 C 116.32 130.74 115.62 131.56 115.70 132.50 Z M 115.80 133.55 L 115.92 134.54 C 116.03 135.46 116.87 136.12 117.80 136.01 C 118.72 135.90 119.38 135.06 119.27 134.13 L 119.15 133.15 C 119.04 132.22 118.20 131.56 117.27 131.67 C 116.35 131.78 115.69 132.63 115.80 133.55 Z M 115.94 134.61 L 116.11 135.60 C 116.26 136.51 117.13 137.13 118.04 136.97 C 118.95 136.82 119.57 135.95 119.42 135.04 L 119.25 134.05 C 119.09 133.14 118.23 132.52 117.32 132.68 C 116.40 132.83 115.79 133.70 115.94 134.61 Z M 116.14 135.67 L 116.35 136.65 C 116.54 137.54 117.42 138.12 118.32 137.92 C 119.21 137.73 119.79 136.85 119.60 135.95 L 119.39 134.97 C 119.19 134.08 118.31 133.50 117.41 133.69 C 116.52 133.89 115.94 134.77 116.14 135.67 Z M 116.37 136.69 L 116.61 137.67 C 116.83 138.55 117.72 139.09 118.60 138.88 C 119.48 138.66 120.02 137.78 119.81 136.90 L 119.57 135.91 C 119.35 135.03 118.46 134.49 117.58 134.70 C 116.70 134.92 116.16 135.81 116.37 136.69 Z M 116.64 137.69 L 116.89 138.66 C 117.11 139.53 118.00 140.05 118.87 139.83 C 119.73 139.61 120.26 138.72 120.03 137.85 L 119.78 136.88 C 119.56 136.01 118.67 135.49 117.80 135.71 C 116.94 135.93 116.41 136.82 116.64 137.69 Z M 116.91 138.66 L 117.15 139.62 C 117.37 140.47 118.25 140.99 119.11 140.77 C 119.97 140.55 120.48 139.67 120.26 138.81 L 120.02 137.86 C 119.79 137.00 118.92 136.48 118.06 136.70 C 117.20 136.92 116.68 137.80 116.91 138.66 Z M 117.16 139.59 L 117.41 140.60 C 117.62 141.46 118.48 141.98 119.33 141.77 C 120.19 141.56 120.71 140.70 120.50 139.84 L 120.25 138.83 C 120.04 137.98 119.18 137.46 118.33 137.67 C 117.47 137.88 116.95 138.74 117.16 139.59 Z M 117.41 140.58 L 117.64 141.56 C 117.84 142.41 118.69 142.94 119.54 142.74 C 120.39 142.54 120.92 141.69 120.72 140.84 L 120.50 139.86 C 120.30 139.01 119.45 138.48 118.59 138.68 C 117.74 138.88 117.22 139.73 117.41 140.58 Z M 117.65 141.54 L 117.86 142.50 C 118.06 143.34 118.90 143.88 119.74 143.68 C 120.59 143.49 121.12 142.65 120.93 141.80 L 120.72 140.85 C 120.53 140.00 119.68 139.47 118.84 139.66 C 117.99 139.85 117.46 140.70 117.65 141.54 Z M 117.87 142.49 L 118.02 143.15 C 118.21 144.00 119.04 144.53 119.89 144.34 C 120.73 144.15 121.26 143.32 121.07 142.47 L 120.93 141.81 C 120.74 140.97 119.90 140.44 119.06 140.62 C 118.22 140.81 117.68 141.65 117.87 142.49 Z"
      fill="black"
      fill-rule="nonzero" /><path d="M 132.79 115.35 L 133.76 114.96 C 134.64 114.60 135.06 113.60 134.71 112.72 C 134.35 111.84 133.35 111.42 132.47 111.77 L 131.50 112.17 C 130.62 112.52 130.20 113.52 130.55 114.40 C 130.91 115.28 131.91 115.71 132.79 115.35 Z M 133.76 114.96 L 134.73 114.57 C 135.61 114.22 136.04 113.21 135.68 112.33 C 135.32 111.45 134.32 111.02 133.43 111.38 L 132.47 111.77 C 131.59 112.12 131.16 113.13 131.52 114.01 C 131.87 114.90 132.88 115.32 133.76 114.96 Z M 134.73 114.58 L 135.68 114.20 C 136.56 113.84 136.99 112.83 136.63 111.94 C 136.27 111.06 135.26 110.63 134.38 110.99 L 133.43 111.37 C 132.54 111.73 132.11 112.74 132.47 113.63 C 132.83 114.51 133.84 114.94 134.73 114.58 Z M 135.68 114.21 L 136.60 113.84 C 137.49 113.47 137.92 112.46 137.56 111.57 C 137.20 110.68 136.19 110.25 135.29 110.61 L 134.37 110.98 C 133.48 111.34 133.05 112.35 133.41 113.25 C 133.77 114.14 134.79 114.57 135.68 114.21 Z M 136.60 113.84 L 137.49 113.48 C 138.39 113.12 138.82 112.10 138.46 111.21 C 138.10 110.31 137.08 109.88 136.18 110.24 L 135.29 110.60 C 134.40 110.96 133.96 111.98 134.33 112.88 C 134.69 113.77 135.71 114.20 136.60 113.84 Z M 137.49 113.49 L 138.38 113.14 C 139.28 112.77 139.71 111.75 139.35 110.85 C 138.99 109.95 137.96 109.51 137.06 109.88 L 136.18 110.23 C 135.28 110.60 134.84 111.62 135.21 112.52 C 135.57 113.42 136.59 113.85 137.49 113.49 Z M 138.37 113.14 L 139.31 112.76 C 140.21 112.40 140.65 111.38 140.29 110.48 C 139.93 109.57 138.90 109.14 138.00 109.50 L 137.06 109.87 C 136.16 110.23 135.72 111.26 136.09 112.16 C 136.45 113.06 137.47 113.50 138.37 113.14 Z M 139.30 112.77 L 140.21 112.41 C 141.11 112.05 141.55 111.03 141.20 110.12 C 140.84 109.22 139.82 108.78 138.91 109.14 L 138.01 109.49 C 137.10 109.85 136.66 110.88 137.02 111.78 C 137.38 112.68 138.40 113.12 139.30 112.77 Z M 140.20 112.41 L 141.10 112.06 C 142.01 111.71 142.46 110.69 142.11 109.78 C 141.76 108.88 140.74 108.43 139.83 108.78 L 138.92 109.13 C 138.02 109.48 137.57 110.50 137.92 111.41 C 138.27 112.31 139.29 112.76 140.20 112.41 Z M 141.09 112.07 L 142.03 111.71 C 142.94 111.37 143.40 110.35 143.05 109.44 C 142.71 108.53 141.69 108.08 140.78 108.42 L 139.85 108.77 C 138.94 109.12 138.48 110.13 138.82 111.04 C 139.17 111.95 140.18 112.41 141.09 112.07 Z M 142.01 111.72 L 142.96 111.37 C 143.87 111.04 144.34 110.03 144.00 109.11 C 143.67 108.20 142.66 107.73 141.75 108.07 L 140.80 108.41 C 139.89 108.75 139.42 109.76 139.75 110.67 C 140.09 111.58 141.10 112.05 142.01 111.72 Z M 142.94 111.37 L 143.87 111.04 C 144.78 110.72 145.26 109.71 144.94 108.80 C 144.61 107.89 143.61 107.41 142.69 107.73 L 141.76 108.06 C 140.85 108.39 140.37 109.39 140.70 110.31 C 141.02 111.22 142.03 111.70 142.94 111.37 Z M 143.85 111.05 L 144.81 110.72 C 145.73 110.40 146.21 109.40 145.90 108.49 C 145.58 107.57 144.58 107.08 143.67 107.40 L 142.71 107.73 C 141.79 108.05 141.31 109.04 141.62 109.96 C 141.94 110.88 142.94 111.36 143.85 111.05 Z M 144.79 110.72 L 145.77 110.40 C 146.68 110.09 147.18 109.10 146.88 108.18 C 146.57 107.27 145.58 106.77 144.66 107.07 L 143.69 107.40 C 142.77 107.70 142.27 108.69 142.58 109.61 C 142.88 110.53 143.87 111.03 144.79 110.72 Z M 145.74 110.40 L 146.71 110.09 C 147.63 109.80 148.14 108.82 147.85 107.90 C 147.56 106.98 146.57 106.47 145.65 106.76 L 144.69 107.07 C 143.76 107.36 143.26 108.34 143.55 109.26 C 143.84 110.18 144.82 110.69 145.74 110.40 Z M 146.68 110.10 L 147.63 109.82 C 148.55 109.54 149.08 108.57 148.80 107.64 C 148.52 106.72 147.55 106.20 146.63 106.47 L 145.68 106.76 C 144.76 107.03 144.23 108.01 144.51 108.93 C 144.79 109.85 145.76 110.38 146.68 110.10 Z M 147.59 109.82 L 148.62 109.54 C 149.55 109.28 150.09 108.32 149.83 107.40 C 149.58 106.47 148.62 105.93 147.69 106.18 L 146.66 106.47 C 145.74 106.72 145.19 107.68 145.45 108.61 C 145.71 109.54 146.66 110.08 147.59 109.82 Z M 148.58 109.54 L 149.58 109.29 C 150.51 109.06 151.07 108.11 150.84 107.19 C 150.61 106.26 149.66 105.69 148.74 105.93 L 147.73 106.18 C 146.81 106.41 146.24 107.35 146.47 108.28 C 146.71 109.21 147.65 109.77 148.58 109.54 Z M 149.54 109.29 L 150.50 109.07 C 151.43 108.86 152.01 107.94 151.80 107.01 C 151.59 106.08 150.67 105.50 149.74 105.71 L 148.78 105.93 C 147.85 106.14 147.27 107.06 147.48 107.99 C 147.69 108.92 148.61 109.50 149.54 109.29 Z M 150.47 109.07 L 151.40 108.88 C 152.33 108.69 152.93 107.78 152.74 106.85 C 152.55 105.92 151.64 105.33 150.71 105.52 L 149.78 105.71 C 148.85 105.90 148.25 106.81 148.44 107.73 C 148.63 108.66 149.54 109.26 150.47 109.07 Z M 151.37 108.88 L 152.30 108.70 C 153.23 108.53 153.84 107.63 153.67 106.71 C 153.49 105.78 152.60 105.17 151.67 105.34 L 150.74 105.52 C 149.82 105.69 149.21 106.59 149.38 107.51 C 149.55 108.44 150.45 109.05 151.37 108.88 Z M 152.28 108.70 L 153.27 108.53 C 154.20 108.37 154.82 107.49 154.66 106.56 C 154.50 105.63 153.62 105.01 152.69 105.17 L 151.70 105.35 C 150.77 105.51 150.15 106.39 150.31 107.31 C 150.47 108.24 151.35 108.86 152.28 108.70 Z M 153.24 108.53 L 154.23 108.37 C 155.16 108.23 155.79 107.36 155.65 106.43 C 155.50 105.51 154.63 104.88 153.71 105.02 L 152.72 105.17 C 151.79 105.32 151.16 106.19 151.30 107.11 C 151.45 108.04 152.32 108.67 153.24 108.53 Z M 154.20 108.37 L 155.19 108.24 C 156.11 108.11 156.76 107.26 156.64 106.33 C 156.51 105.41 155.66 104.76 154.73 104.88 L 153.74 105.02 C 152.82 105.15 152.17 106.00 152.29 106.92 C 152.42 107.85 153.27 108.50 154.20 108.37 Z M 155.15 108.24 L 156.14 108.13 C 157.06 108.02 157.73 107.19 157.63 106.26 C 157.52 105.34 156.69 104.67 155.76 104.77 L 154.77 104.88 C 153.84 104.99 153.18 105.82 153.28 106.75 C 153.39 107.68 154.22 108.34 155.15 108.24 Z M 156.09 108.13 L 157.11 108.04 C 158.04 107.96 158.72 107.14 158.64 106.22 C 158.56 105.29 157.75 104.61 156.82 104.69 L 155.80 104.77 C 154.88 104.85 154.19 105.67 154.27 106.59 C 154.35 107.52 155.17 108.21 156.09 108.13 Z M 157.06 108.04 L 158.08 107.98 C 159.01 107.93 159.72 107.14 159.66 106.21 C 159.61 105.28 158.82 104.58 157.89 104.63 L 156.87 104.69 C 155.94 104.74 155.24 105.53 155.29 106.46 C 155.34 107.38 156.13 108.09 157.06 108.04 Z M 158.03 107.98 L 159.04 107.95 C 159.96 107.93 160.69 107.16 160.67 106.24 C 160.64 105.31 159.87 104.58 158.95 104.60 L 157.94 104.63 C 157.02 104.65 156.29 105.42 156.31 106.35 C 156.34 107.27 157.11 108.00 158.03 107.98 Z M 158.98 107.95 L 159.96 107.96 C 160.88 107.97 161.63 107.22 161.64 106.30 C 161.65 105.38 160.91 104.62 159.98 104.62 L 159.01 104.61 C 158.08 104.60 157.33 105.34 157.32 106.27 C 157.31 107.19 158.06 107.94 158.98 107.95 Z M 159.89 107.95 L 160.89 108.00 C 161.81 108.04 162.60 107.34 162.64 106.42 C 162.68 105.50 161.98 104.71 161.06 104.67 L 160.05 104.62 C 159.13 104.58 158.35 105.29 158.31 106.21 C 158.26 107.13 158.97 107.91 159.89 107.95 Z M 160.80 107.99 L 161.84 108.10 C 162.75 108.20 163.57 107.54 163.67 106.62 C 163.76 105.71 163.10 104.89 162.19 104.79 L 161.15 104.68 C 160.24 104.58 159.42 105.25 159.32 106.16 C 159.22 107.07 159.89 107.89 160.80 107.99 Z M 161.69 108.07 L 162.66 108.27 C 163.56 108.45 164.43 107.86 164.61 106.96 C 164.79 106.06 164.21 105.19 163.31 105.01 L 162.34 104.82 C 161.44 104.64 160.57 105.22 160.39 106.12 C 160.21 107.02 160.79 107.90 161.69 108.07 Z M 162.46 108.21 L 163.36 108.51 C 164.23 108.80 165.16 108.32 165.45 107.46 C 165.74 106.59 165.27 105.65 164.40 105.37 L 163.50 105.07 C 162.64 104.78 161.70 105.25 161.41 106.12 C 161.12 106.99 161.60 107.92 162.46 108.21 Z M 163.12 108.40 L 163.99 108.86 C 164.80 109.28 165.80 108.97 166.22 108.16 C 166.64 107.35 166.33 106.35 165.52 105.93 L 164.64 105.47 C 163.84 105.05 162.84 105.36 162.42 106.17 C 161.99 106.98 162.31 107.98 163.12 108.40 Z M 163.76 108.70 L 164.55 109.31 C 165.27 109.86 166.30 109.72 166.86 109.00 C 167.41 108.28 167.27 107.25 166.55 106.69 L 165.76 106.09 C 165.04 105.53 164.00 105.67 163.45 106.39 C 162.90 107.12 163.04 108.15 163.76 108.70 Z M 164.35 109.12 L 165.04 109.85 C 165.66 110.51 166.70 110.54 167.36 109.92 C 168.02 109.30 168.05 108.26 167.43 107.60 L 166.74 106.88 C 166.12 106.22 165.09 106.18 164.43 106.81 C 163.77 107.43 163.73 108.46 164.35 109.12 Z M 164.89 109.66 L 165.42 110.43 C 165.94 111.17 166.95 111.36 167.70 110.85 C 168.44 110.33 168.63 109.31 168.11 108.57 L 167.58 107.80 C 167.06 107.05 166.04 106.87 165.30 107.38 C 164.56 107.89 164.37 108.91 164.89 109.66 Z M 165.31 110.22 L 165.71 111.04 C 166.11 111.84 167.08 112.18 167.89 111.78 C 168.70 111.38 169.03 110.40 168.63 109.60 L 168.23 108.78 C 167.83 107.97 166.85 107.64 166.05 108.04 C 165.24 108.44 164.91 109.41 165.31 110.22 Z M 165.62 110.81 L 165.92 111.75 C 166.19 112.60 167.11 113.07 167.96 112.80 C 168.81 112.53 169.29 111.61 169.01 110.76 L 168.72 109.82 C 168.44 108.97 167.53 108.50 166.68 108.77 C 165.82 109.04 165.35 109.96 165.62 110.81 Z M 165.88 111.53 L 166.07 112.62 C 166.22 113.50 167.05 114.09 167.93 113.94 C 168.81 113.79 169.40 112.95 169.25 112.07 L 169.06 110.98 C 168.91 110.10 168.07 109.51 167.19 109.66 C 166.31 109.81 165.72 110.65 165.88 111.53 Z M 166.05 112.46 L 166.12 113.43 C 166.18 114.32 166.95 114.99 167.84 114.93 C 168.73 114.86 169.40 114.09 169.33 113.21 L 169.26 112.23 C 169.20 111.35 168.43 110.68 167.54 110.74 C 166.66 110.80 165.99 111.57 166.05 112.46 Z M 166.12 113.32 L 166.12 114.29 C 166.12 115.17 166.84 115.89 167.73 115.89 C 168.61 115.89 169.33 115.17 169.33 114.29 L 169.33 113.32 C 169.33 112.43 168.61 111.71 167.73 111.72 C 166.84 111.72 166.12 112.43 166.12 113.32 Z M 166.13 114.19 L 166.07 115.20 C 166.01 116.08 166.68 116.84 167.57 116.90 C 168.45 116.95 169.21 116.28 169.26 115.40 L 169.32 114.38 C 169.38 113.50 168.71 112.74 167.83 112.69 C 166.94 112.64 166.19 113.31 166.13 114.19 Z M 166.08 115.10 L 165.95 116.13 C 165.84 117.01 166.46 117.80 167.34 117.91 C 168.21 118.02 169.01 117.40 169.12 116.53 L 169.24 115.50 C 169.35 114.63 168.74 113.83 167.86 113.72 C 166.99 113.61 166.19 114.23 166.08 115.10 Z M 165.98 116.03 L 165.78 117.04 C 165.61 117.91 166.17 118.74 167.03 118.91 C 167.89 119.08 168.72 118.52 168.89 117.66 L 169.09 116.64 C 169.26 115.78 168.70 114.94 167.84 114.77 C 166.98 114.60 166.15 115.17 165.98 116.03 Z M 165.81 116.92 L 165.54 117.90 C 165.30 118.75 165.79 119.62 166.63 119.85 C 167.48 120.09 168.35 119.60 168.58 118.76 L 168.86 117.78 C 169.09 116.94 168.60 116.06 167.76 115.83 C 166.92 115.59 166.05 116.08 165.81 116.92 Z M 165.58 117.78 L 165.24 118.71 C 164.93 119.53 165.35 120.43 166.16 120.74 C 166.98 121.04 167.89 120.63 168.19 119.81 L 168.54 118.88 C 168.84 118.06 168.43 117.16 167.61 116.85 C 166.79 116.55 165.89 116.96 165.58 117.78 Z M 165.29 118.60 L 164.87 119.49 C 164.51 120.28 164.85 121.22 165.64 121.58 C 166.43 121.95 167.37 121.60 167.73 120.81 L 168.14 119.92 C 168.51 119.13 168.16 118.19 167.37 117.83 C 166.58 117.47 165.65 117.81 165.29 118.60 Z M 164.92 119.41 L 164.45 120.28 C 164.04 121.04 164.32 121.99 165.09 122.40 C 165.85 122.82 166.80 122.53 167.21 121.77 L 167.68 120.90 C 168.10 120.14 167.81 119.18 167.05 118.77 C 166.29 118.36 165.33 118.64 164.92 119.41 Z M 164.49 120.21 L 163.97 121.07 C 163.52 121.81 163.76 122.77 164.50 123.22 C 165.24 123.67 166.20 123.43 166.65 122.69 L 167.17 121.84 C 167.62 121.10 167.38 120.13 166.64 119.68 C 165.90 119.24 164.94 119.47 164.49 120.21 Z M 164.00 121.03 L 163.45 121.88 C 162.98 122.60 163.18 123.57 163.90 124.04 C 164.62 124.51 165.59 124.31 166.06 123.59 L 166.62 122.74 C 167.09 122.02 166.89 121.05 166.17 120.58 C 165.45 120.10 164.48 120.30 164.00 121.03 Z M 163.47 121.85 L 162.92 122.65 C 162.43 123.36 162.61 124.33 163.32 124.82 C 164.03 125.31 165.00 125.13 165.49 124.42 L 166.04 123.62 C 166.53 122.91 166.35 121.93 165.64 121.45 C 164.93 120.96 163.96 121.14 163.47 121.85 Z M 162.94 122.63 L 162.36 123.43 C 161.85 124.14 162.02 125.11 162.72 125.61 C 163.42 126.11 164.39 125.95 164.90 125.25 L 165.47 124.44 C 165.98 123.74 165.81 122.77 165.11 122.27 C 164.41 121.76 163.44 121.93 162.94 122.63 Z M 162.37 123.41 L 161.77 124.22 C 161.26 124.91 161.40 125.89 162.09 126.40 C 162.78 126.92 163.76 126.77 164.28 126.08 L 164.88 125.28 C 165.39 124.58 165.25 123.61 164.56 123.09 C 163.87 122.58 162.89 122.72 162.37 123.41 Z M 161.79 124.20 L 161.17 125.00 C 160.64 125.68 160.77 126.66 161.45 127.19 C 162.13 127.72 163.11 127.59 163.64 126.91 L 164.26 126.11 C 164.79 125.42 164.66 124.44 163.98 123.92 C 163.30 123.39 162.32 123.51 161.79 124.20 Z M 161.19 124.98 L 160.55 125.77 C 160.01 126.44 160.12 127.42 160.79 127.96 C 161.47 128.50 162.45 128.39 162.99 127.72 L 163.62 126.93 C 164.16 126.26 164.05 125.28 163.38 124.74 C 162.71 124.20 161.73 124.30 161.19 124.98 Z M 160.57 125.74 L 159.92 126.52 C 159.37 127.18 159.46 128.17 160.12 128.72 C 160.78 129.27 161.77 129.18 162.32 128.52 L 162.97 127.74 C 163.52 127.08 163.43 126.10 162.77 125.54 C 162.11 124.99 161.12 125.08 160.57 125.74 Z M 159.94 126.50 L 159.28 127.27 C 158.72 127.92 158.79 128.90 159.44 129.47 C 160.09 130.03 161.08 129.96 161.64 129.31 L 162.30 128.54 C 162.87 127.89 162.79 126.90 162.14 126.34 C 161.49 125.78 160.50 125.85 159.94 126.50 Z M 159.29 127.25 L 158.63 128.00 C 158.06 128.64 158.11 129.63 158.76 130.20 C 159.40 130.77 160.39 130.72 160.96 130.07 L 161.63 129.32 C 162.20 128.68 162.14 127.69 161.50 127.12 C 160.85 126.55 159.87 126.60 159.29 127.25 Z M 158.64 127.98 L 157.97 128.72 C 157.39 129.36 157.44 130.35 158.07 130.93 C 158.71 131.51 159.70 131.46 160.28 130.82 L 160.95 130.09 C 161.53 129.45 161.48 128.46 160.85 127.88 C 160.21 127.30 159.22 127.35 158.64 127.98 Z M 157.98 128.71 L 157.30 129.44 C 156.72 130.07 156.76 131.06 157.39 131.65 C 158.02 132.23 159.01 132.19 159.59 131.56 L 160.27 130.83 C 160.85 130.20 160.82 129.21 160.18 128.63 C 159.55 128.04 158.56 128.08 157.98 128.71 Z M 157.31 129.44 L 156.63 130.16 C 156.04 130.79 156.08 131.78 156.71 132.37 C 157.34 132.96 158.33 132.92 158.91 132.29 L 159.59 131.57 C 160.18 130.94 160.14 129.95 159.51 129.36 C 158.88 128.77 157.90 128.81 157.31 129.44 Z M 156.63 130.16 L 156.47 130.34 C 155.88 130.97 155.91 131.95 156.54 132.54 C 157.17 133.13 158.16 133.10 158.75 132.47 L 158.91 132.29 C 159.50 131.66 159.47 130.68 158.84 130.09 C 158.21 129.50 157.22 129.53 156.63 130.16 Z"
      fill="black"
      fill-rule="nonzero" /><path d="M 146.52 115.38 L 145.99 116.21 C 145.50 116.99 145.73 118.02 146.51 118.51 C 147.29 119.01 148.32 118.78 148.81 118.00 L 149.34 117.18 C 149.83 116.40 149.60 115.36 148.82 114.87 C 148.04 114.38 147.01 114.61 146.52 115.38 Z M 145.99 116.22 L 145.46 117.05 C 144.97 117.83 145.21 118.86 145.99 119.35 C 146.77 119.84 147.80 119.61 148.29 118.83 L 148.81 117.99 C 149.30 117.21 149.07 116.18 148.29 115.69 C 147.51 115.20 146.48 115.44 145.99 116.22 Z M 145.46 117.06 L 144.92 117.93 C 144.44 118.71 144.68 119.74 145.46 120.22 C 146.25 120.70 147.27 120.46 147.76 119.68 L 148.29 118.82 C 148.78 118.04 148.53 117.01 147.75 116.53 C 146.97 116.04 145.94 116.28 145.46 117.06 Z M 144.92 117.94 L 144.39 118.81 C 143.91 119.60 144.16 120.63 144.95 121.10 C 145.74 121.58 146.76 121.33 147.24 120.54 L 147.77 119.67 C 148.24 118.88 147.99 117.85 147.20 117.38 C 146.42 116.90 145.39 117.15 144.92 117.94 Z M 144.38 118.82 L 143.86 119.70 C 143.39 120.49 143.65 121.52 144.44 121.99 C 145.23 122.46 146.26 122.20 146.73 121.40 L 147.25 120.53 C 147.72 119.74 147.46 118.71 146.67 118.24 C 145.87 117.77 144.85 118.03 144.38 118.82 Z M 143.85 119.69 L 143.33 120.57 C 142.86 121.36 143.12 122.39 143.92 122.86 C 144.71 123.34 145.74 123.07 146.22 122.28 L 146.73 121.41 C 147.21 120.61 146.95 119.58 146.15 119.11 C 145.35 118.64 144.33 118.90 143.85 119.69 Z M 143.34 120.55 L 142.83 121.39 C 142.35 122.19 142.60 123.22 143.40 123.70 C 144.19 124.18 145.22 123.93 145.71 123.13 L 146.21 122.29 C 146.69 121.50 146.44 120.46 145.65 119.98 C 144.85 119.50 143.82 119.76 143.34 120.55 Z M 142.84 121.37 L 142.33 122.18 C 141.83 122.97 142.07 124.01 142.86 124.51 C 143.64 125.00 144.69 124.77 145.18 123.98 L 145.69 123.16 C 146.19 122.37 145.95 121.33 145.16 120.84 C 144.37 120.34 143.33 120.58 142.84 121.37 Z M 142.34 122.16 L 141.82 122.96 C 141.31 123.74 141.53 124.78 142.31 125.29 C 143.09 125.80 144.14 125.58 144.65 124.80 L 145.17 124.00 C 145.68 123.22 145.46 122.18 144.68 121.67 C 143.90 121.16 142.85 121.38 142.34 122.16 Z M 141.83 122.94 L 141.27 123.77 C 140.76 124.55 140.97 125.59 141.74 126.11 C 142.52 126.63 143.57 126.42 144.09 125.64 L 144.64 124.82 C 145.15 124.04 144.95 122.99 144.17 122.47 C 143.39 121.96 142.34 122.17 141.83 122.94 Z M 141.27 123.77 L 140.70 124.63 C 140.18 125.41 140.39 126.46 141.16 126.98 C 141.94 127.50 142.99 127.29 143.51 126.51 L 144.09 125.65 C 144.60 124.87 144.40 123.82 143.62 123.30 C 142.84 122.78 141.79 122.99 141.27 123.77 Z M 140.69 124.64 L 140.22 125.36 C 139.70 126.14 139.91 127.19 140.69 127.70 C 141.47 128.22 142.52 128.00 143.04 127.22 L 143.51 126.50 C 144.03 125.73 143.81 124.68 143.03 124.16 C 142.26 123.65 141.21 123.86 140.69 124.64 Z M 140.21 125.37 L 139.70 126.16 C 139.19 126.94 139.41 127.99 140.19 128.50 C 140.98 129.01 142.02 128.78 142.53 128.00 L 143.04 127.21 C 143.55 126.43 143.33 125.38 142.55 124.87 C 141.76 124.37 140.72 124.59 140.21 125.37 Z M 139.69 126.18 L 139.14 127.03 C 138.64 127.82 138.88 128.87 139.67 129.37 C 140.45 129.87 141.50 129.63 142.00 128.84 L 142.54 127.99 C 143.04 127.20 142.81 126.15 142.02 125.65 C 141.23 125.15 140.19 125.39 139.69 126.18 Z M 139.13 127.05 L 138.56 127.98 C 138.07 128.77 138.32 129.81 139.12 130.30 C 139.91 130.79 140.95 130.54 141.44 129.75 L 142.01 128.82 C 142.50 128.03 142.25 126.99 141.46 126.50 C 140.66 126.01 139.62 126.26 139.13 127.05 Z M 138.55 128.00 L 137.98 128.96 C 137.50 129.77 137.77 130.80 138.57 131.28 C 139.37 131.75 140.41 131.49 140.89 130.69 L 141.46 129.72 C 141.93 128.92 141.67 127.89 140.86 127.41 C 140.06 126.93 139.02 127.20 138.55 128.00 Z M 137.97 128.99 L 137.50 129.81 C 137.03 130.62 137.31 131.65 138.12 132.12 C 138.93 132.58 139.96 132.30 140.42 131.49 L 140.90 130.66 C 141.36 129.85 141.08 128.82 140.27 128.36 C 139.46 127.90 138.43 128.18 137.97 128.99 Z M 137.49 129.83 L 137.01 130.69 C 136.56 131.50 136.85 132.53 137.66 132.98 C 138.47 133.43 139.49 133.14 139.94 132.33 L 140.42 131.47 C 140.88 130.66 140.59 129.64 139.78 129.19 C 138.97 128.73 137.95 129.02 137.49 129.83 Z M 137.01 130.70 L 136.52 131.59 C 136.08 132.40 136.37 133.42 137.18 133.86 C 137.99 134.31 139.01 134.01 139.46 133.20 L 139.94 132.32 C 140.39 131.51 140.10 130.49 139.28 130.04 C 138.47 129.60 137.46 129.89 137.01 130.70 Z M 136.52 131.60 L 136.04 132.49 C 135.60 133.30 135.90 134.32 136.71 134.76 C 137.52 135.20 138.53 134.90 138.97 134.09 L 139.46 133.19 C 139.90 132.38 139.60 131.37 138.79 130.93 C 137.98 130.49 136.97 130.79 136.52 131.60 Z M 136.04 132.50 L 135.55 133.40 C 135.12 134.21 135.42 135.22 136.23 135.65 C 137.03 136.09 138.04 135.79 138.48 134.98 L 138.97 134.08 C 139.40 133.27 139.10 132.26 138.29 131.83 C 137.49 131.39 136.48 131.69 136.04 132.50 Z M 135.56 133.40 L 135.07 134.30 C 134.64 135.10 134.94 136.11 135.75 136.55 C 136.55 136.98 137.56 136.68 137.99 135.87 L 138.48 134.98 C 138.91 134.17 138.61 133.17 137.80 132.73 C 137.00 132.30 135.99 132.60 135.56 133.40 Z M 135.08 134.30 L 134.57 135.24 C 134.14 136.04 134.43 137.04 135.24 137.48 C 136.04 137.91 137.04 137.62 137.48 136.81 L 137.99 135.87 C 138.42 135.07 138.12 134.07 137.32 133.63 C 136.52 133.20 135.52 133.50 135.08 134.30 Z M 134.58 135.24 L 134.07 136.17 C 133.64 136.97 133.93 137.97 134.73 138.41 C 135.53 138.84 136.53 138.54 136.96 137.75 L 137.47 136.81 C 137.90 136.01 137.61 135.01 136.81 134.58 C 136.01 134.15 135.01 134.44 134.58 135.24 Z M 134.08 136.18 L 133.58 137.08 C 133.15 137.88 133.45 138.87 134.24 139.31 C 135.04 139.74 136.03 139.44 136.46 138.65 L 136.96 137.74 C 137.39 136.95 137.10 135.95 136.30 135.52 C 135.50 135.09 134.51 135.38 134.08 136.18 Z M 133.59 137.09 L 133.11 137.96 C 132.68 138.75 132.98 139.75 133.77 140.18 C 134.56 140.61 135.56 140.31 135.99 139.52 L 136.46 138.64 C 136.89 137.85 136.60 136.86 135.80 136.43 C 135.01 136.00 134.02 136.30 133.59 137.09 Z M 133.12 137.97 L 132.67 138.81 C 132.24 139.60 132.54 140.58 133.33 141.01 C 134.12 141.43 135.10 141.14 135.53 140.35 L 135.98 139.51 C 136.41 138.72 136.11 137.73 135.32 137.31 C 134.53 136.88 133.54 137.18 133.12 137.97 Z M 132.67 138.81 L 132.25 139.61 C 131.82 140.40 132.12 141.38 132.91 141.80 C 133.70 142.22 134.68 141.92 135.10 141.13 L 135.53 140.34 C 135.95 139.55 135.65 138.57 134.86 138.15 C 134.07 137.73 133.09 138.03 132.67 138.81 Z M 132.24 139.62 L 131.76 140.54 C 131.34 141.33 131.65 142.31 132.44 142.73 C 133.23 143.14 134.21 142.84 134.63 142.04 L 135.11 141.13 C 135.53 140.33 135.22 139.35 134.43 138.94 C 133.63 138.52 132.65 138.83 132.24 139.62 Z M 131.74 140.55 L 131.28 141.43 C 130.87 142.24 131.19 143.22 132.00 143.63 C 132.80 144.04 133.79 143.73 134.20 142.92 L 134.65 142.03 C 135.06 141.23 134.74 140.24 133.94 139.83 C 133.13 139.42 132.15 139.74 131.74 140.55 Z M 131.26 141.45 L 130.83 142.32 C 130.43 143.14 130.77 144.13 131.58 144.53 C 132.40 144.93 133.39 144.59 133.79 143.78 L 134.22 142.91 C 134.62 142.09 134.29 141.10 133.47 140.70 C 132.65 140.30 131.66 140.63 131.26 141.45 Z M 130.81 142.34 L 130.39 143.22 C 130.00 144.05 130.35 145.04 131.18 145.44 C 132.01 145.83 133.01 145.47 133.40 144.64 L 133.82 143.76 C 134.21 142.93 133.85 141.94 133.02 141.55 C 132.19 141.15 131.20 141.51 130.81 142.34 Z M 130.37 143.24 L 129.94 144.19 C 129.56 145.03 129.93 146.03 130.77 146.41 C 131.62 146.79 132.61 146.42 132.99 145.57 L 133.42 144.63 C 133.80 143.78 133.43 142.79 132.59 142.41 C 131.74 142.02 130.75 142.40 130.37 143.24 Z M 129.90 144.23 L 129.46 145.28 C 129.10 146.15 129.51 147.14 130.37 147.50 C 131.23 147.86 132.23 147.45 132.59 146.59 L 133.03 145.53 C 133.39 144.67 132.98 143.68 132.12 143.32 C 131.26 142.96 130.26 143.36 129.90 144.23 Z M 129.40 145.39 L 129.05 146.43 C 128.75 147.33 129.24 148.30 130.14 148.60 C 131.03 148.90 132.00 148.41 132.30 147.52 L 132.65 146.48 C 132.95 145.58 132.47 144.61 131.57 144.31 C 130.67 144.01 129.70 144.50 129.40 145.39 Z M 128.97 146.68 L 128.81 147.62 C 128.65 148.56 129.28 149.46 130.22 149.62 C 131.17 149.78 132.06 149.15 132.23 148.20 L 132.39 147.27 C 132.55 146.32 131.92 145.43 130.97 145.26 C 130.03 145.10 129.13 145.74 128.97 146.68 Z M 128.78 148.17 L 128.90 148.93 C 129.04 149.88 129.93 150.54 130.89 150.40 C 131.85 150.26 132.51 149.37 132.36 148.41 L 132.25 147.65 C 132.11 146.69 131.22 146.03 130.26 146.18 C 129.30 146.32 128.64 147.21 128.78 148.17 Z M 129.35 149.89 L 129.89 150.45 C 130.56 151.16 131.68 151.18 132.39 150.51 C 133.09 149.84 133.12 148.72 132.45 148.01 L 131.91 147.45 C 131.24 146.74 130.12 146.72 129.41 147.39 C 128.71 148.06 128.68 149.18 129.35 149.89 Z M 130.62 150.92 L 131.51 151.21 C 132.44 151.51 133.44 151.00 133.74 150.07 C 134.05 149.14 133.54 148.14 132.61 147.84 L 131.72 147.55 C 130.79 147.25 129.79 147.75 129.48 148.68 C 129.18 149.61 129.69 150.61 130.62 150.92 Z M 131.92 151.29 L 133.00 151.38 C 133.97 151.46 134.83 150.73 134.91 149.75 C 134.99 148.77 134.26 147.92 133.28 147.84 L 132.20 147.75 C 131.22 147.68 130.37 148.41 130.29 149.38 C 130.21 150.36 130.94 151.21 131.92 151.29 Z M 133.20 151.39 L 134.31 151.35 C 135.29 151.31 136.06 150.48 136.02 149.50 C 135.99 148.52 135.16 147.76 134.18 147.79 L 133.07 147.83 C 132.09 147.87 131.33 148.69 131.36 149.67 C 131.40 150.66 132.22 151.42 133.20 151.39 Z M 134.43 151.34 L 135.49 151.23 C 136.47 151.12 137.18 150.25 137.07 149.27 C 136.97 148.29 136.10 147.58 135.12 147.69 L 134.06 147.80 C 133.08 147.90 132.37 148.78 132.48 149.76 C 132.58 150.73 133.46 151.44 134.43 151.34 Z M 135.61 151.21 L 136.58 151.04 C 137.55 150.88 138.20 149.96 138.03 148.99 C 137.86 148.02 136.94 147.37 135.97 147.54 L 135.00 147.70 C 134.03 147.87 133.38 148.79 133.55 149.76 C 133.72 150.73 134.64 151.38 135.61 151.21 Z M 136.68 151.02 L 137.61 150.81 C 138.57 150.58 139.16 149.62 138.94 148.67 C 138.71 147.71 137.76 147.12 136.80 147.34 L 135.87 147.56 C 134.91 147.78 134.32 148.74 134.54 149.70 C 134.77 150.65 135.72 151.25 136.68 151.02 Z M 137.69 150.79 L 138.60 150.53 C 139.55 150.26 140.10 149.28 139.83 148.33 C 139.57 147.39 138.59 146.84 137.64 147.10 L 136.72 147.36 C 135.78 147.63 135.23 148.61 135.49 149.55 C 135.76 150.50 136.74 151.05 137.69 150.79 Z M 138.65 150.51 L 139.58 150.23 C 140.52 149.93 141.04 148.93 140.75 148.00 C 140.45 147.06 139.46 146.53 138.52 146.83 L 137.59 147.12 C 136.65 147.41 136.13 148.41 136.42 149.35 C 136.72 150.28 137.71 150.81 138.65 150.51 Z M 139.61 150.22 L 140.56 149.90 C 141.50 149.59 142.00 148.58 141.69 147.65 C 141.38 146.72 140.38 146.21 139.44 146.52 L 138.49 146.84 C 137.56 147.15 137.05 148.15 137.36 149.09 C 137.67 150.02 138.67 150.52 139.61 150.22 Z M 140.57 149.90 L 141.56 149.56 C 142.49 149.24 142.99 148.23 142.68 147.30 C 142.36 146.37 141.35 145.87 140.42 146.19 L 139.43 146.52 C 138.50 146.84 138.00 147.85 138.32 148.78 C 138.63 149.71 139.64 150.21 140.57 149.90 Z M 141.56 149.56 L 142.51 149.24 C 143.44 148.92 143.94 147.91 143.62 146.98 C 143.31 146.05 142.30 145.55 141.37 145.87 L 140.42 146.19 C 139.49 146.50 138.99 147.51 139.31 148.45 C 139.62 149.38 140.63 149.87 141.56 149.56 Z M 142.51 149.24 L 143.46 148.91 C 144.39 148.60 144.89 147.59 144.57 146.66 C 144.26 145.73 143.25 145.23 142.32 145.55 L 141.37 145.87 C 140.44 146.19 139.94 147.19 140.25 148.12 C 140.57 149.05 141.58 149.55 142.51 149.24 Z M 143.46 148.91 L 144.42 148.58 C 145.35 148.27 145.84 147.26 145.52 146.33 C 145.21 145.40 144.20 144.91 143.27 145.22 L 142.31 145.55 C 141.39 145.87 140.89 146.88 141.21 147.81 C 141.53 148.73 142.54 149.23 143.46 148.91 Z M 144.43 148.58 L 145.37 148.25 C 146.30 147.92 146.78 146.91 146.46 145.99 C 146.14 145.06 145.12 144.58 144.20 144.90 L 143.26 145.23 C 142.33 145.55 141.85 146.57 142.17 147.49 C 142.49 148.42 143.51 148.90 144.43 148.58 Z M 145.39 148.24 L 146.29 147.91 C 147.21 147.58 147.69 146.57 147.36 145.65 C 147.02 144.73 146.01 144.25 145.09 144.58 L 144.18 144.91 C 143.26 145.24 142.79 146.26 143.12 147.18 C 143.45 148.10 144.47 148.57 145.39 148.24 Z M 146.30 147.90 L 147.20 147.57 C 148.12 147.24 148.59 146.22 148.25 145.31 C 147.91 144.39 146.90 143.92 145.98 144.26 L 145.08 144.59 C 144.17 144.93 143.70 145.94 144.03 146.86 C 144.37 147.77 145.39 148.24 146.30 147.90 Z M 147.20 147.57 L 148.13 147.23 C 149.04 146.89 149.51 145.88 149.18 144.97 C 148.84 144.05 147.83 143.59 146.92 143.92 L 145.99 144.26 C 145.07 144.60 144.61 145.61 144.94 146.52 C 145.28 147.44 146.29 147.90 147.20 147.57 Z M 148.12 147.22 L 149.12 146.86 C 150.03 146.54 150.50 145.53 150.17 144.62 C 149.84 143.71 148.83 143.23 147.92 143.56 L 146.93 143.92 C 146.02 144.25 145.54 145.26 145.87 146.17 C 146.20 147.08 147.21 147.55 148.12 147.22 Z M 149.10 146.86 L 150.01 146.54 C 150.92 146.22 151.40 145.22 151.08 144.31 C 150.76 143.40 149.76 142.92 148.85 143.24 L 147.94 143.56 C 147.03 143.88 146.55 144.88 146.87 145.79 C 147.19 146.71 148.19 147.19 149.10 146.86 Z M 150.00 146.54 L 150.92 146.23 C 151.83 145.91 152.31 144.92 152.00 144.01 C 151.69 143.09 150.69 142.61 149.78 142.93 L 148.86 143.24 C 147.95 143.56 147.47 144.55 147.78 145.46 C 148.09 146.37 149.09 146.86 150.00 146.54 Z M 150.91 146.22 L 151.87 145.89 C 152.78 145.58 153.26 144.59 152.95 143.68 C 152.64 142.77 151.65 142.29 150.74 142.60 L 149.79 142.93 C 148.88 143.24 148.39 144.23 148.70 145.14 C 149.02 146.05 150.01 146.53 150.91 146.22 Z M 151.87 145.89 L 152.85 145.55 C 153.75 145.24 154.23 144.26 153.92 143.35 C 153.61 142.44 152.63 141.96 151.72 142.27 L 150.74 142.61 C 149.84 142.92 149.35 143.90 149.67 144.81 C 149.98 145.72 150.96 146.20 151.87 145.89 Z M 152.85 145.55 L 153.83 145.21 C 154.73 144.90 155.21 143.91 154.89 143.01 C 154.58 142.10 153.60 141.63 152.69 141.94 L 151.72 142.28 C 150.81 142.59 150.33 143.58 150.65 144.48 C 150.96 145.38 151.95 145.86 152.85 145.55 Z M 153.83 145.20 L 154.85 144.84 C 155.74 144.52 156.21 143.54 155.90 142.64 C 155.58 141.74 154.59 141.27 153.70 141.59 L 152.68 141.95 C 151.79 142.27 151.32 143.25 151.64 144.15 C 151.95 145.05 152.94 145.51 153.83 145.20 Z M 154.87 144.82 L 155.87 144.44 C 156.75 144.11 157.20 143.13 156.87 142.24 C 156.54 141.36 155.56 140.91 154.67 141.24 L 153.67 141.62 C 152.79 141.95 152.34 142.93 152.67 143.81 C 153.00 144.70 153.99 145.15 154.87 144.82 Z M 155.91 144.41 L 156.86 144.02 C 157.72 143.66 158.13 142.67 157.78 141.81 C 157.42 140.94 156.43 140.53 155.56 140.89 L 154.62 141.28 C 153.76 141.63 153.35 142.62 153.70 143.49 C 154.06 144.35 155.05 144.76 155.91 144.41 Z M 156.93 143.97 L 157.80 143.56 C 158.63 143.16 158.99 142.16 158.59 141.32 C 158.19 140.48 157.19 140.13 156.35 140.53 L 155.49 140.94 C 154.65 141.34 154.30 142.34 154.69 143.18 C 155.09 144.01 156.09 144.37 156.93 143.97 Z M 157.91 143.48 L 158.68 143.04 C 159.47 142.58 159.75 141.56 159.29 140.77 C 158.83 139.97 157.81 139.70 157.02 140.16 L 156.24 140.60 C 155.45 141.06 155.18 142.08 155.63 142.87 C 156.09 143.67 157.11 143.94 157.91 143.48 Z M 158.84 142.91 L 159.69 142.27 C 160.42 141.73 160.56 140.69 160.02 139.97 C 159.47 139.24 158.44 139.09 157.71 139.64 L 156.86 140.28 C 156.13 140.83 155.99 141.86 156.53 142.59 C 157.08 143.31 158.11 143.46 158.84 142.91 Z M 159.84 142.12 L 160.55 141.43 C 161.19 140.80 161.20 139.77 160.58 139.13 C 159.95 138.48 158.92 138.47 158.28 139.10 L 157.57 139.79 C 156.92 140.42 156.91 141.45 157.54 142.09 C 158.16 142.73 159.19 142.75 159.84 142.12 Z M 160.63 141.31 L 161.26 140.58 C 161.84 139.91 161.76 138.90 161.09 138.32 C 160.42 137.74 159.40 137.82 158.83 138.49 L 158.20 139.21 C 157.62 139.89 157.70 140.90 158.37 141.48 C 159.04 142.06 160.05 141.98 160.63 141.31 Z M 161.28 140.53 L 161.63 140.09 C 162.18 139.41 162.07 138.41 161.39 137.86 C 160.71 137.31 159.71 137.42 159.16 138.10 L 158.80 138.54 C 158.25 139.22 158.36 140.22 159.04 140.77 C 159.73 141.32 160.73 141.21 161.28 140.53 Z"
      fill="black"
      fill-rule="nonzero" /><path d="M 147.85 137.20 L 147.55 138.07 C 147.24 138.99 147.73 139.99 148.66 140.31 C 149.58 140.62 150.58 140.13 150.89 139.21 L 151.19 138.34 C 151.50 137.42 151.01 136.42 150.08 136.10 C 149.16 135.79 148.16 136.28 147.85 137.20 Z M 147.51 138.12 L 147.23 139.02 C 146.94 139.97 147.48 140.97 148.42 141.26 C 149.37 141.55 150.37 141.02 150.66 140.07 L 150.94 139.16 C 151.23 138.21 150.69 137.21 149.75 136.92 C 148.80 136.63 147.80 137.17 147.51 138.12 Z M 147.17 139.12 L 146.93 140.10 C 146.70 141.08 147.30 142.07 148.28 142.30 C 149.26 142.54 150.24 141.94 150.48 140.96 L 150.72 139.98 C 150.96 139.00 150.36 138.01 149.38 137.77 C 148.40 137.53 147.41 138.14 147.17 139.12 Z M 146.88 140.23 L 146.69 141.33 C 146.53 142.34 147.21 143.30 148.22 143.46 C 149.23 143.63 150.19 142.95 150.35 141.94 L 150.54 140.84 C 150.71 139.82 150.02 138.87 149.01 138.70 C 148.00 138.53 147.04 139.22 146.88 140.23 Z M 146.66 141.45 L 146.57 142.36 C 146.47 143.38 147.22 144.30 148.25 144.41 C 149.27 144.51 150.19 143.76 150.30 142.73 L 150.39 141.82 C 150.49 140.79 149.74 139.87 148.71 139.77 C 147.68 139.67 146.76 140.42 146.66 141.45 Z M 146.56 142.43 L 146.50 143.40 C 146.44 144.44 147.23 145.33 148.26 145.39 C 149.30 145.45 150.18 144.66 150.25 143.63 L 150.30 142.65 C 150.37 141.62 149.58 140.73 148.54 140.67 C 147.51 140.61 146.62 141.40 146.56 142.43 Z M 146.50 143.46 L 146.46 144.47 C 146.43 145.51 147.25 146.38 148.28 146.41 C 149.32 146.44 150.19 145.63 150.22 144.59 L 150.25 143.57 C 150.28 142.54 149.47 141.67 148.43 141.64 C 147.40 141.60 146.53 142.42 146.50 143.46 Z M 146.46 144.51 L 146.45 145.55 C 146.43 146.58 147.26 147.44 148.30 147.45 C 149.34 147.47 150.19 146.64 150.21 145.60 L 150.22 144.56 C 150.24 143.52 149.41 142.66 148.37 142.65 C 147.33 142.64 146.48 143.47 146.46 144.51 Z M 146.44 145.56 L 146.44 146.61 C 146.44 147.65 147.28 148.49 148.32 148.50 C 149.36 148.50 150.20 147.66 150.21 146.62 L 150.21 145.58 C 150.22 144.54 149.37 143.69 148.33 143.69 C 147.29 143.68 146.45 144.52 146.44 145.56 Z M 146.44 146.61 L 146.44 147.63 C 146.44 148.68 147.28 149.52 148.32 149.52 C 149.37 149.52 150.21 148.68 150.21 147.63 L 150.21 146.61 C 150.21 145.57 149.37 144.73 148.32 144.73 C 147.28 144.73 146.44 145.57 146.44 146.61 Z M 146.43 147.64 L 146.44 148.64 C 146.44 149.68 147.28 150.52 148.33 150.52 C 149.37 150.52 150.22 149.67 150.22 148.63 L 150.21 147.63 C 150.21 146.59 149.37 145.74 148.32 145.74 C 147.28 145.75 146.43 146.59 146.43 147.64 Z M 146.43 148.64 L 146.44 149.63 C 146.44 150.68 147.30 151.52 148.34 151.51 C 149.39 151.51 150.23 150.66 150.22 149.61 L 150.22 148.62 C 150.21 147.58 149.36 146.73 148.32 146.74 C 147.27 146.74 146.43 147.60 146.43 148.64 Z M 146.43 149.64 L 146.45 150.63 C 146.46 151.68 147.32 152.52 148.36 152.51 C 149.41 152.49 150.25 151.63 150.24 150.59 L 150.23 149.60 C 150.22 148.55 149.36 147.71 148.31 147.72 C 147.26 147.74 146.42 148.60 146.43 149.64 Z M 146.44 150.65 L 146.46 151.65 C 146.48 152.70 147.35 153.53 148.40 153.51 C 149.45 153.49 150.28 152.62 150.26 151.57 L 150.24 150.57 C 150.22 149.52 149.35 148.69 148.30 148.71 C 147.25 148.73 146.42 149.60 146.44 150.65 Z M 146.46 151.67 L 146.49 152.69 C 146.52 153.74 147.40 154.56 148.45 154.53 C 149.50 154.50 150.33 153.62 150.30 152.57 L 150.27 151.55 C 150.23 150.50 149.36 149.67 148.30 149.71 C 147.25 149.74 146.43 150.62 146.46 151.67 Z M 146.49 152.71 L 146.53 153.75 C 146.58 154.80 147.47 155.62 148.52 155.57 C 149.57 155.53 150.39 154.64 150.34 153.59 L 150.30 152.55 C 150.26 151.50 149.37 150.68 148.31 150.72 C 147.26 150.77 146.44 151.66 146.49 152.71 Z M 146.53 153.77 L 146.59 154.82 C 146.64 155.87 147.54 156.68 148.59 156.62 C 149.65 156.57 150.46 155.67 150.40 154.61 L 150.35 153.57 C 150.29 152.51 149.39 151.71 148.34 151.76 C 147.28 151.82 146.48 152.72 146.53 153.77 Z M 146.58 154.83 L 146.65 155.86 C 146.72 156.92 147.62 157.72 148.68 157.65 C 149.73 157.59 150.53 156.68 150.47 155.62 L 150.40 154.59 C 150.34 153.54 149.43 152.74 148.37 152.81 C 147.32 152.87 146.52 153.78 146.58 154.83 Z M 146.65 155.88 L 146.72 156.87 C 146.80 157.93 147.72 158.72 148.77 158.64 C 149.83 158.57 150.62 157.65 150.54 156.59 L 150.47 155.60 C 150.39 154.55 149.47 153.75 148.42 153.83 C 147.36 153.91 146.57 154.83 146.65 155.88 Z M 146.72 156.90 L 146.80 157.83 C 146.89 158.88 147.82 159.67 148.88 159.57 C 149.93 159.48 150.71 158.55 150.62 157.50 L 150.54 156.57 C 150.45 155.51 149.52 154.73 148.47 154.82 C 147.41 154.91 146.63 155.84 146.72 156.90 Z M 146.80 157.86 L 146.91 158.91 C 147.02 159.97 147.96 160.74 149.01 160.63 C 150.07 160.52 150.84 159.58 150.73 158.52 L 150.62 157.47 C 150.51 156.41 149.57 155.64 148.52 155.75 C 147.46 155.86 146.69 156.80 146.80 157.86 Z M 146.91 158.95 L 147.04 160.01 C 147.17 161.06 148.13 161.81 149.18 161.68 C 150.24 161.55 150.99 160.59 150.86 159.54 L 150.73 158.48 C 150.60 157.43 149.64 156.68 148.58 156.81 C 147.53 156.94 146.78 157.90 146.91 158.95 Z M 147.04 160.04 L 147.18 160.99 C 147.33 162.04 148.30 162.77 149.36 162.62 C 150.41 162.47 151.14 161.50 150.99 160.44 L 150.85 159.50 C 150.70 158.45 149.73 157.72 148.68 157.87 C 147.63 158.02 146.89 158.99 147.04 160.04 Z M 147.18 161.01 L 147.32 161.90 C 147.48 162.95 148.46 163.67 149.52 163.51 C 150.57 163.35 151.29 162.36 151.12 161.31 L 150.99 160.42 C 150.82 159.37 149.84 158.65 148.79 158.81 C 147.74 158.97 147.02 159.96 147.18 161.01 Z M 147.32 161.90 L 147.47 162.86 C 147.63 163.91 148.62 164.63 149.67 164.46 C 150.72 164.30 151.44 163.31 151.27 162.26 L 151.13 161.31 C 150.96 160.26 149.97 159.54 148.92 159.70 C 147.87 159.87 147.15 160.85 147.32 161.90 Z M 147.46 162.86 L 147.62 163.84 C 147.78 164.89 148.77 165.61 149.82 165.45 C 150.88 165.28 151.60 164.29 151.43 163.24 L 151.28 162.26 C 151.11 161.21 150.12 160.49 149.07 160.65 C 148.02 160.82 147.30 161.81 147.46 162.86 Z M 147.62 163.85 L 147.78 164.84 C 147.95 165.89 148.94 166.61 149.99 166.44 C 151.04 166.27 151.76 165.28 151.59 164.23 L 151.43 163.23 C 151.26 162.18 150.27 161.47 149.22 161.63 C 148.17 161.80 147.45 162.79 147.62 163.85 Z M 147.78 164.85 L 147.95 165.85 C 148.12 166.90 149.12 167.61 150.17 167.43 C 151.22 167.25 151.93 166.26 151.76 165.21 L 151.59 164.21 C 151.41 163.16 150.42 162.45 149.36 162.63 C 148.31 162.81 147.60 163.80 147.78 164.85 Z M 147.95 165.86 L 148.12 166.83 C 148.31 167.89 149.31 168.59 150.36 168.40 C 151.41 168.21 152.11 167.21 151.93 166.16 L 151.75 165.19 C 151.57 164.14 150.56 163.44 149.51 163.62 C 148.46 163.81 147.76 164.81 147.95 165.86 Z M 148.13 166.86 L 148.31 167.84 C 148.51 168.89 149.52 169.58 150.57 169.38 C 151.62 169.18 152.31 168.17 152.11 167.12 L 151.92 166.14 C 151.72 165.09 150.71 164.40 149.66 164.60 C 148.62 164.80 147.93 165.81 148.13 166.86 Z M 148.32 167.86 L 148.52 168.86 C 148.73 169.90 149.75 170.58 150.80 170.36 C 151.84 170.15 152.52 169.13 152.30 168.08 L 152.10 167.09 C 151.89 166.05 150.87 165.37 149.82 165.59 C 148.78 165.80 148.10 166.82 148.32 167.86 Z M 148.52 168.89 L 148.73 169.82 C 148.96 170.86 149.99 171.52 151.03 171.29 C 152.08 171.06 152.73 170.03 152.50 168.99 L 152.30 168.05 C 152.07 167.01 151.04 166.35 150.00 166.58 C 148.95 166.81 148.29 167.84 148.52 168.89 Z M 148.74 169.86 L 148.96 170.78 C 149.22 171.81 150.27 172.45 151.30 172.19 C 152.34 171.94 152.97 170.89 152.72 169.85 L 152.49 168.94 C 152.24 167.91 151.19 167.27 150.16 167.53 C 149.12 167.78 148.49 168.83 148.74 169.86 Z M 148.98 170.84 L 149.25 171.79 C 149.54 172.82 150.61 173.42 151.63 173.13 C 152.66 172.84 153.26 171.77 152.97 170.74 L 152.70 169.79 C 152.41 168.76 151.34 168.17 150.32 168.46 C 149.29 168.74 148.69 169.81 148.98 170.84 Z M 149.27 171.87 L 149.60 172.88 C 149.93 173.89 151.02 174.45 152.04 174.11 C 153.05 173.78 153.61 172.69 153.28 171.68 L 152.95 170.67 C 152.62 169.65 151.52 169.10 150.51 169.43 C 149.50 169.76 148.94 170.85 149.27 171.87 Z M 149.63 172.95 L 149.99 173.92 C 150.36 174.92 151.47 175.42 152.47 175.05 C 153.47 174.68 153.98 173.57 153.61 172.57 L 153.25 171.60 C 152.88 170.60 151.76 170.09 150.76 170.47 C 149.76 170.84 149.26 171.95 149.63 172.95 Z M 150.01 173.99 L 150.39 174.89 C 150.80 175.88 151.93 176.34 152.92 175.93 C 153.90 175.52 154.37 174.39 153.96 173.40 L 153.58 172.50 C 153.17 171.51 152.04 171.05 151.05 171.46 C 150.07 171.87 149.60 173.00 150.01 173.99 Z M 150.42 174.96 L 150.85 175.88 C 151.30 176.85 152.45 177.27 153.42 176.82 C 154.39 176.37 154.81 175.22 154.36 174.25 L 153.93 173.33 C 153.48 172.36 152.33 171.95 151.36 172.40 C 150.39 172.85 149.97 173.99 150.42 174.96 Z M 150.89 175.96 L 151.37 176.87 C 151.86 177.82 153.03 178.18 153.98 177.69 C 154.92 177.19 155.29 176.03 154.79 175.08 L 154.31 174.17 C 153.82 173.23 152.65 172.86 151.71 173.36 C 150.76 173.85 150.40 175.02 150.89 175.96 Z M 151.42 176.97 L 151.94 177.84 C 152.49 178.75 153.67 179.05 154.59 178.51 C 155.51 177.96 155.81 176.77 155.26 175.86 L 154.74 174.98 C 154.19 174.07 153.00 173.77 152.09 174.32 C 151.17 174.87 150.87 176.05 151.42 176.97 Z M 152.02 177.95 L 152.59 178.78 C 153.21 179.66 154.41 179.87 155.28 179.26 C 156.16 178.65 156.37 177.44 155.76 176.57 L 155.18 175.74 C 154.57 174.87 153.37 174.65 152.49 175.26 C 151.62 175.87 151.40 177.08 152.02 177.95 Z M 152.70 178.92 L 153.36 179.69 C 154.05 180.51 155.27 180.61 156.08 179.92 C 156.89 179.23 156.99 178.01 156.31 177.20 L 155.65 176.43 C 154.96 175.61 153.74 175.51 152.93 176.20 C 152.12 176.89 152.01 178.11 152.70 178.92 Z M 153.51 179.85 L 154.23 180.53 C 155.00 181.26 156.23 181.22 156.96 180.44 C 157.69 179.66 157.65 178.44 156.87 177.71 L 156.15 177.04 C 155.37 176.31 154.15 176.35 153.42 177.12 C 152.69 177.90 152.73 179.12 153.51 179.85 Z M 154.42 180.69 L 155.22 181.26 C 156.08 181.88 157.29 181.68 157.91 180.81 C 158.53 179.95 158.34 178.74 157.47 178.12 L 156.67 177.55 C 155.81 176.93 154.60 177.13 153.98 177.99 C 153.36 178.86 153.56 180.07 154.42 180.69 Z M 155.45 181.40 L 156.33 181.86 C 157.28 182.36 158.45 181.99 158.94 181.04 C 159.43 180.10 159.07 178.93 158.12 178.44 L 157.24 177.98 C 156.29 177.48 155.12 177.85 154.63 178.79 C 154.14 179.74 154.50 180.91 155.45 181.40 Z M 156.58 181.97 L 157.51 182.30 C 158.51 182.66 159.62 182.14 159.98 181.14 C 160.34 180.13 159.81 179.03 158.81 178.67 L 157.88 178.33 C 156.88 177.97 155.77 178.50 155.41 179.50 C 155.05 180.50 155.57 181.61 156.58 181.97 Z M 157.71 182.36 L 158.68 182.59 C 159.72 182.84 160.76 182.20 161.00 181.16 C 161.25 180.13 160.61 179.09 159.57 178.84 L 158.61 178.61 C 157.57 178.36 156.53 179.00 156.28 180.04 C 156.04 181.07 156.67 182.11 157.71 182.36 Z M 158.84 182.62 L 159.84 182.78 C 160.90 182.94 161.88 182.21 162.04 181.16 C 162.20 180.11 161.48 179.13 160.43 178.97 L 159.42 178.81 C 158.37 178.65 157.38 179.37 157.22 180.42 C 157.06 181.48 157.78 182.46 158.84 182.62 Z M 159.97 182.79 L 160.99 182.88 C 162.05 182.97 162.98 182.19 163.08 181.13 C 163.17 180.07 162.39 179.14 161.33 179.04 L 160.31 178.95 C 159.25 178.86 158.31 179.64 158.22 180.70 C 158.13 181.76 158.91 182.70 159.97 182.79 Z M 161.09 182.88 L 162.09 182.92 C 163.15 182.96 164.04 182.13 164.08 181.07 C 164.12 180.01 163.29 179.11 162.23 179.07 L 161.23 179.04 C 160.17 179.00 159.27 179.83 159.24 180.89 C 159.20 181.95 160.03 182.84 161.09 182.88 Z M 162.17 182.92 L 163.17 182.91 C 164.23 182.90 165.09 182.04 165.08 180.98 C 165.07 179.92 164.21 179.06 163.15 179.07 L 162.15 179.08 C 161.09 179.08 160.23 179.95 160.24 181.01 C 160.25 182.07 161.11 182.92 162.17 182.92 Z M 163.26 182.90 L 164.30 182.85 C 165.36 182.79 166.17 181.89 166.11 180.84 C 166.06 179.78 165.16 178.97 164.10 179.03 L 163.06 179.08 C 162.01 179.14 161.20 180.04 161.25 181.09 C 161.31 182.15 162.20 182.96 163.26 182.90 Z M 164.42 182.83 L 165.40 182.71 C 166.44 182.60 167.19 181.65 167.07 180.61 C 166.95 179.57 166.01 178.82 164.97 178.94 L 163.99 179.05 C 162.94 179.17 162.19 180.11 162.31 181.15 C 162.43 182.20 163.37 182.94 164.42 182.83 Z M 165.53 182.68 L 166.48 182.50 C 167.50 182.31 168.18 181.32 167.99 180.30 C 167.79 179.27 166.81 178.60 165.78 178.79 L 164.83 178.97 C 163.81 179.16 163.13 180.15 163.32 181.17 C 163.52 182.20 164.50 182.88 165.53 182.68 Z M 166.61 182.46 L 167.56 182.21 C 168.56 181.94 169.16 180.91 168.89 179.91 C 168.62 178.91 167.59 178.31 166.59 178.58 L 165.64 178.83 C 164.64 179.10 164.05 180.13 164.31 181.13 C 164.58 182.14 165.61 182.73 166.61 182.46 Z M 167.68 182.16 L 168.55 181.86 C 169.53 181.53 170.05 180.47 169.72 179.49 C 169.38 178.51 168.32 177.99 167.34 178.33 L 166.47 178.63 C 165.49 178.96 164.97 180.02 165.31 181.00 C 165.64 181.98 166.70 182.50 167.68 182.16 Z M 168.64 181.82 L 169.52 181.47 C 170.47 181.08 170.93 180.00 170.55 179.05 C 170.17 178.09 169.08 177.63 168.13 178.02 L 167.25 178.37 C 166.30 178.75 165.84 179.84 166.22 180.79 C 166.61 181.74 167.69 182.20 168.64 181.82 Z M 169.59 181.43 L 170.49 181.02 C 171.42 180.60 171.83 179.50 171.41 178.57 C 170.99 177.64 169.89 177.23 168.96 177.65 L 168.06 178.06 C 167.13 178.48 166.72 179.57 167.14 180.51 C 167.56 181.44 168.66 181.85 169.59 181.43 Z M 170.54 180.99 L 171.47 180.53 C 172.38 180.08 172.76 178.97 172.31 178.06 C 171.86 177.15 170.75 176.77 169.84 177.22 L 168.91 177.68 C 168.00 178.13 167.62 179.24 168.07 180.15 C 168.52 181.06 169.63 181.44 170.54 180.99 Z M 171.51 180.50 L 172.46 180.00 C 173.36 179.53 173.70 178.42 173.23 177.52 C 172.76 176.62 171.65 176.28 170.75 176.75 L 169.80 177.25 C 168.90 177.72 168.56 178.83 169.03 179.73 C 169.50 180.63 170.61 180.97 171.51 180.50 Z M 172.48 179.98 L 173.35 179.50 C 174.24 179.01 174.56 177.90 174.07 177.02 C 173.59 176.14 172.48 175.81 171.59 176.30 L 170.73 176.78 C 169.84 177.26 169.52 178.37 170.01 179.26 C 170.49 180.14 171.60 180.46 172.48 179.98 Z M 173.37 179.48 L 174.21 179.00 C 175.08 178.51 175.38 177.40 174.89 176.53 C 174.39 175.65 173.28 175.35 172.41 175.84 L 171.58 176.32 C 170.70 176.82 170.40 177.92 170.90 178.80 C 171.39 179.67 172.50 179.97 173.37 179.48 Z M 174.22 178.98 L 175.07 178.48 C 175.93 177.98 176.22 176.87 175.72 176.01 C 175.21 175.15 174.11 174.86 173.25 175.37 L 172.40 175.87 C 171.54 176.37 171.25 177.48 171.75 178.34 C 172.26 179.20 173.36 179.48 174.22 178.98 Z M 175.09 178.46 L 175.95 177.94 C 176.80 177.43 177.07 176.32 176.56 175.48 C 176.05 174.63 174.94 174.35 174.09 174.87 L 173.23 175.39 C 172.38 175.90 172.11 177.00 172.62 177.85 C 173.14 178.70 174.24 178.97 175.09 178.46 Z M 175.96 177.92 L 176.83 177.38 C 177.67 176.86 177.93 175.76 177.41 174.92 C 176.89 174.08 175.79 173.83 174.95 174.35 L 174.08 174.89 C 173.24 175.41 172.99 176.51 173.51 177.35 C 174.03 178.18 175.13 178.44 175.96 177.92 Z M 176.85 177.36 L 177.73 176.80 C 178.55 176.27 178.79 175.17 178.27 174.35 C 177.74 173.52 176.64 173.28 175.81 173.81 L 174.94 174.37 C 174.11 174.89 173.87 175.99 174.40 176.82 C 174.92 177.64 176.02 177.89 176.85 177.36 Z M 177.74 176.78 L 178.58 176.22 C 179.40 175.69 179.62 174.60 179.09 173.78 C 178.55 172.97 177.46 172.74 176.65 173.27 L 175.80 173.83 C 174.99 174.36 174.76 175.46 175.29 176.27 C 175.83 177.08 176.92 177.31 177.74 176.78 Z M 178.59 176.21 L 179.41 175.65 C 180.21 175.11 180.43 174.02 179.89 173.22 C 179.35 172.42 178.26 172.20 177.45 172.74 L 176.63 173.29 C 175.83 173.83 175.62 174.92 176.16 175.73 C 176.70 176.53 177.79 176.75 178.59 176.21 Z M 179.42 175.64 L 180.24 175.07 C 181.03 174.53 181.23 173.44 180.69 172.65 C 180.14 171.85 179.05 171.65 178.26 172.20 L 177.44 172.76 C 176.65 173.31 176.45 174.39 176.99 175.19 C 177.54 175.98 178.63 176.18 179.42 175.64 Z M 180.25 175.05 L 181.07 174.47 C 181.85 173.92 182.04 172.84 181.49 172.06 C 180.93 171.28 179.85 171.09 179.07 171.64 L 178.25 172.22 C 177.47 172.77 177.28 173.85 177.83 174.63 C 178.39 175.42 179.47 175.60 180.25 175.05 Z M 181.08 174.46 L 181.89 173.87 C 182.67 173.31 182.84 172.23 182.28 171.46 C 181.73 170.69 180.65 170.52 179.88 171.07 L 179.06 171.66 C 178.29 172.22 178.12 173.29 178.67 174.07 C 179.23 174.84 180.30 175.01 181.08 174.46 Z M 181.90 173.85 L 182.72 173.25 C 183.48 172.69 183.64 171.61 183.08 170.85 C 182.52 170.09 181.44 169.93 180.68 170.49 L 179.87 171.09 C 179.11 171.65 178.95 172.72 179.51 173.49 C 180.07 174.25 181.14 174.41 181.90 173.85 Z M 182.72 173.23 L 183.53 172.62 C 184.28 172.05 184.43 170.98 183.87 170.23 C 183.30 169.48 182.23 169.33 181.48 169.90 L 180.67 170.51 C 179.92 171.08 179.77 172.14 180.34 172.89 C 180.91 173.64 181.97 173.79 182.72 173.23 Z M 183.54 172.60 L 184.32 172.00 C 185.06 171.43 185.20 170.36 184.63 169.62 C 184.06 168.88 183.00 168.75 182.26 169.32 L 181.47 169.92 C 180.74 170.49 180.60 171.55 181.17 172.29 C 181.74 173.03 182.80 173.17 183.54 172.60 Z M 184.33 171.98 L 185.11 171.36 C 185.83 170.79 185.96 169.74 185.39 169.01 C 184.81 168.28 183.76 168.15 183.03 168.72 L 182.25 169.34 C 181.52 169.91 181.40 170.97 181.97 171.69 C 182.54 172.42 183.60 172.55 184.33 171.98 Z M 185.11 171.35 L 185.88 170.73 C 186.60 170.15 186.72 169.10 186.14 168.38 C 185.57 167.66 184.52 167.55 183.80 168.12 L 183.03 168.74 C 182.31 169.32 182.19 170.37 182.77 171.09 C 183.34 171.80 184.39 171.92 185.11 171.35 Z M 185.89 170.71 L 186.66 170.08 C 187.37 169.50 187.48 168.46 186.90 167.75 C 186.33 167.04 185.28 166.93 184.57 167.51 L 183.80 168.14 C 183.09 168.72 182.98 169.76 183.56 170.47 C 184.13 171.18 185.18 171.29 185.89 170.71 Z M 186.66 170.06 L 187.44 169.43 C 188.14 168.85 188.24 167.82 187.66 167.11 C 187.09 166.41 186.05 166.31 185.35 166.89 L 184.57 167.53 C 183.87 168.10 183.77 169.14 184.35 169.84 C 184.92 170.54 185.96 170.64 186.66 170.06 Z M 187.44 169.41 L 188.21 168.77 C 188.91 168.19 189.00 167.16 188.43 166.47 C 187.85 165.78 186.82 165.68 186.13 166.26 L 185.35 166.90 C 184.66 167.48 184.56 168.51 185.14 169.20 C 185.71 169.89 186.74 169.99 187.44 169.41 Z M 188.21 168.75 L 188.99 168.10 C 189.68 167.52 189.77 166.50 189.20 165.82 C 188.62 165.13 187.60 165.04 186.92 165.61 L 186.13 166.27 C 185.45 166.84 185.36 167.86 185.93 168.55 C 186.50 169.24 187.53 169.33 188.21 168.75 Z M 188.99 168.09 L 189.78 167.43 C 190.46 166.85 190.54 165.84 189.97 165.16 C 189.40 164.48 188.38 164.39 187.70 164.96 L 186.92 165.62 C 186.24 166.20 186.15 167.21 186.72 167.89 C 187.30 168.57 188.31 168.66 188.99 168.09 Z M 189.78 167.42 L 190.56 166.75 C 191.24 166.18 191.32 165.17 190.74 164.49 C 190.17 163.82 189.16 163.74 188.48 164.31 L 187.70 164.97 C 187.03 165.55 186.94 166.56 187.52 167.23 C 188.09 167.91 189.10 167.99 189.78 167.42 Z M 190.56 166.74 L 191.34 166.07 C 192.00 165.50 192.08 164.49 191.50 163.82 C 190.93 163.16 189.92 163.08 189.25 163.66 L 188.48 164.32 C 187.81 164.90 187.74 165.90 188.31 166.57 C 188.89 167.24 189.89 167.32 190.56 166.74 Z M 191.34 166.06 L 192.10 165.40 C 192.76 164.82 192.83 163.82 192.25 163.16 C 191.67 162.49 190.67 162.43 190.01 163.01 L 189.25 163.67 C 188.59 164.25 188.52 165.25 189.10 165.91 C 189.68 166.57 190.68 166.64 191.34 166.06 Z M 192.11 165.38 L 192.84 164.72 C 193.50 164.14 193.55 163.14 192.97 162.49 C 192.39 161.84 191.39 161.78 190.74 162.36 L 190.00 163.02 C 189.35 163.60 189.29 164.60 189.87 165.26 C 190.45 165.91 191.45 165.96 192.11 165.38 Z M 192.85 164.71 L 193.56 164.06 C 194.20 163.47 194.25 162.48 193.66 161.83 C 193.08 161.19 192.08 161.15 191.44 161.73 L 190.73 162.38 C 190.09 162.97 190.04 163.96 190.63 164.61 C 191.21 165.25 192.21 165.29 192.85 164.71 Z M 193.58 164.04 L 194.32 163.34 C 194.95 162.75 194.98 161.75 194.38 161.12 C 193.79 160.49 192.79 160.46 192.16 161.06 L 191.42 161.75 C 190.79 162.35 190.76 163.34 191.36 163.97 C 191.95 164.60 192.95 164.63 193.58 164.04 Z M 194.33 163.32 L 195.10 162.57 C 195.72 161.96 195.73 160.97 195.12 160.35 C 194.52 159.74 193.53 159.72 192.91 160.33 L 192.14 161.08 C 191.52 161.68 191.51 162.68 192.12 163.29 C 192.72 163.91 193.72 163.92 194.33 163.32 Z M 195.12 162.55 L 195.84 161.82 C 196.45 161.20 196.44 160.21 195.82 159.60 C 195.20 159.00 194.21 159.00 193.61 159.62 L 192.89 160.35 C 192.28 160.97 192.29 161.96 192.91 162.57 C 193.52 163.17 194.51 163.16 195.12 162.55 Z M 195.86 161.80 L 196.54 161.08 C 197.13 160.45 197.11 159.46 196.48 158.87 C 195.85 158.27 194.86 158.30 194.27 158.93 L 193.59 159.64 C 192.99 160.27 193.02 161.26 193.65 161.85 C 194.27 162.45 195.26 162.42 195.86 161.80 Z M 196.55 161.06 L 197.20 160.36 C 197.78 159.72 197.74 158.73 197.11 158.15 C 196.47 157.57 195.48 157.61 194.90 158.24 L 194.25 158.95 C 193.67 159.58 193.71 160.57 194.34 161.16 C 194.98 161.74 195.97 161.70 196.55 161.06 Z M 197.21 160.34 L 197.83 159.65 C 198.41 159.01 198.35 158.02 197.71 157.44 C 197.06 156.87 196.07 156.93 195.50 157.57 L 194.88 158.26 C 194.31 158.90 194.36 159.89 195.01 160.47 C 195.65 161.04 196.64 160.99 197.21 160.34 Z M 197.84 159.64 L 198.51 158.87 C 199.08 158.22 199.01 157.23 198.36 156.67 C 197.71 156.10 196.72 156.17 196.15 156.82 L 195.49 157.58 C 194.92 158.23 194.99 159.22 195.64 159.79 C 196.29 160.36 197.28 160.29 197.84 159.64 Z M 198.52 158.86 L 199.18 158.09 C 199.74 157.43 199.66 156.45 199.00 155.89 C 198.34 155.33 197.36 155.40 196.80 156.06 L 196.14 156.83 C 195.58 157.49 195.66 158.47 196.32 159.03 C 196.97 159.59 197.96 159.51 198.52 158.86 Z M 199.19 158.08 L 199.82 157.31 C 200.38 156.65 200.29 155.67 199.63 155.11 C 198.97 154.56 197.98 154.65 197.43 155.31 L 196.79 156.07 C 196.24 156.73 196.32 157.72 196.99 158.27 C 197.65 158.83 198.63 158.74 199.19 158.08 Z M 199.83 157.31 L 200.46 156.55 C 201.01 155.88 200.92 154.90 200.25 154.35 C 199.59 153.80 198.60 153.89 198.05 154.56 L 197.42 155.32 C 196.87 155.98 196.97 156.96 197.63 157.51 C 198.30 158.06 199.28 157.97 199.83 157.31 Z M 200.46 156.54 L 201.08 155.79 C 201.63 155.12 201.54 154.14 200.87 153.59 C 200.20 153.04 199.22 153.14 198.67 153.80 L 198.05 154.56 C 197.50 155.23 197.60 156.21 198.26 156.76 C 198.93 157.30 199.91 157.21 200.46 156.54 Z M 201.08 155.79 L 201.12 155.74 C 201.67 155.08 201.57 154.09 200.90 153.55 C 200.24 153.00 199.25 153.10 198.71 153.76 L 198.67 153.80 C 198.12 154.47 198.22 155.45 198.89 156.00 C 199.55 156.55 200.54 156.45 201.08 155.79 Z"
      fill="black"
      fill-rule="nonzero" /></svg>