<svg xmlns="http://www.w3.org/2000/svg" width="300" height="300" viewBox="0 0 300 300">
<path d="M 131.30 88.55 L 130.43 88.94 C 129.55 89.33 129.15 90.36 129.54 91.25 C 129.94 92.13 130.97 92.52 131.85 92.13 L 132.72 91.74 C 133.60 91.35 134.00 90.32 133.61 89.43 C 133.21 88.55 132.18 88.16 131.30 88.55 Z M 130.30 89.00 L 129.44 89.48 C 128.60 89.94 128.29 91.00 128.75 91.85 C 129.22 92.69 130.28 93.00 131.13 92.54 L 131.98 92.06 C 132.83 91.60 133.13 90.54 132.67 89.69 C 132.20 88.85 131.14 88.54 130.30 89.00 Z M 129.21 89.62 L 128.39 90.26 C 127.63 90.85 127.49 91.95 128.08 92.71 C 128.67 93.47 129.76 93.62 130.53 93.03 L 131.35 92.39 C 132.12 91.80 132.26 90.70 131.67 89.94 C 131.08 89.17 129.98 89.03 129.21 89.62 Z M 128.17 90.46 L 127.53 91.16 C 126.88 91.87 126.92 92.97 127.64 93.63 C 128.35 94.28 129.45 94.23 130.11 93.52 L 130.75 92.83 C 131.40 92.11 131.35 91.01 130.64 90.35 C 129.93 89.70 128.83 89.75 128.17 90.46 Z M 127.40 91.32 L 126.83 92.11 C 126.26 92.90 126.44 93.99 127.23 94.55 C 128.01 95.12 129.10 94.94 129.67 94.16 L 130.24 93.36 C 130.80 92.58 130.63 91.48 129.84 90.92 C 129.06 90.35 127.96 90.53 127.40 91.32 Z M 126.75 92.24 L 126.22 93.12 C 125.72 93.95 125.99 95.02 126.82 95.52 C 127.65 96.02 128.72 95.75 129.22 94.92 L 129.75 94.03 C 130.25 93.20 129.98 92.13 129.15 91.63 C 128.32 91.14 127.24 91.41 126.75 92.24 Z M 126.16 93.22 L 125.68 94.15 C 125.24 95.01 125.58 96.06 126.44 96.51 C 127.30 96.95 128.35 96.61 128.80 95.75 L 129.28 94.82 C 129.72 93.96 129.38 92.90 128.52 92.46 C 127.66 92.02 126.60 92.36 126.16 93.22 Z M 125.64 94.23 L 125.22 95.17 C 124.82 96.06 125.21 97.09 126.09 97.49 C 126.98 97.89 128.01 97.50 128.41 96.61 L 128.84 95.67 C 129.23 94.79 128.84 93.75 127.96 93.35 C 127.08 92.96 126.04 93.35 125.64 94.23 Z M 125.18 95.25 L 124.81 96.19 C 124.46 97.10 124.90 98.11 125.80 98.47 C 126.70 98.82 127.72 98.38 128.08 97.48 L 128.45 96.54 C 128.80 95.63 128.36 94.62 127.46 94.26 C 126.55 93.91 125.53 94.35 125.18 95.25 Z M 124.78 96.27 L 124.46 97.22 C 124.15 98.14 124.64 99.13 125.56 99.44 C 126.48 99.75 127.48 99.26 127.79 98.34 L 128.11 97.40 C 128.42 96.48 127.93 95.48 127.01 95.17 C 126.09 94.86 125.09 95.35 124.78 96.27 Z M 124.43 97.30 L 124.16 98.24 C 123.90 99.17 124.44 100.15 125.38 100.41 C 126.31 100.68 127.28 100.14 127.55 99.20 L 127.82 98.26 C 128.08 97.32 127.54 96.35 126.61 96.08 C 125.67 95.82 124.70 96.36 124.43 97.30 Z M 124.14 98.32 L 123.91 99.29 C 123.69 100.24 124.29 101.18 125.23 101.40 C 126.18 101.62 127.13 101.03 127.35 100.09 L 127.57 99.12 C 127.79 98.17 127.20 97.22 126.26 97.00 C 125.31 96.78 124.36 97.37 124.14 98.32 Z M 123.89 99.37 L 123.72 100.36 C 123.55 101.32 124.19 102.23 125.14 102.41 C 126.10 102.58 127.02 101.94 127.19 100.98 L 127.37 100.00 C 127.54 99.04 126.90 98.12 125.94 97.95 C 124.98 97.78 124.07 98.41 123.89 99.37 Z M 123.70 100.45 L 123.58 101.43 C 123.46 102.40 124.14 103.29 125.11 103.41 C 126.08 103.53 126.96 102.85 127.09 101.88 L 127.21 100.89 C 127.33 99.92 126.65 99.04 125.68 98.91 C 124.71 98.79 123.82 99.48 123.70 100.45 Z M 123.57 101.53 L 123.49 102.53 C 123.42 103.50 124.15 104.35 125.13 104.42 C 126.11 104.49 126.95 103.76 127.02 102.78 L 127.10 101.78 C 127.17 100.81 126.44 99.96 125.46 99.89 C 124.49 99.82 123.64 100.55 123.57 101.53 Z M 123.49 102.63 L 123.47 103.70 C 123.45 104.68 124.23 105.49 125.21 105.50 C 126.19 105.52 127.00 104.74 127.01 103.76 L 127.03 102.69 C 127.05 101.71 126.27 100.90 125.29 100.88 C 124.31 100.87 123.50 101.65 123.49 102.63 Z M 123.47 103.86 L 123.54 104.92 C 123.61 105.90 124.46 106.63 125.44 106.57 C 126.42 106.50 127.15 105.65 127.09 104.67 L 127.01 103.61 C 126.94 102.63 126.09 101.89 125.12 101.96 C 124.14 102.03 123.40 102.88 123.47 103.86 Z M 123.58 105.19 L 123.80 106.13 C 124.01 107.09 124.96 107.69 125.92 107.48 C 126.88 107.26 127.48 106.31 127.26 105.35 L 127.05 104.41 C 126.83 103.45 125.88 102.85 124.93 103.06 C 123.97 103.28 123.37 104.23 123.58 105.19 Z M 123.96 106.58 L 124.36 107.34 C 124.83 108.21 125.90 108.54 126.77 108.08 C 127.64 107.62 127.97 106.54 127.50 105.67 L 127.10 104.91 C 126.64 104.04 125.56 103.71 124.69 104.17 C 123.83 104.63 123.50 105.71 123.96 106.58 Z M 124.84 107.91 L 125.56 108.48 C 126.34 109.09 127.46 108.95 128.06 108.18 C 128.67 107.40 128.53 106.28 127.76 105.68 L 127.03 105.11 C 126.26 104.50 125.14 104.64 124.53 105.41 C 123.93 106.18 124.06 107.30 124.84 107.91 Z M 126.10 108.77 L 127.04 109.08 C 127.98 109.39 128.98 108.88 129.29 107.95 C 129.60 107.01 129.09 106.00 128.16 105.70 L 127.22 105.39 C 126.29 105.08 125.28 105.59 124.97 106.52 C 124.66 107.45 125.17 108.46 126.10 108.77 Z M 127.37 109.16 L 128.43 109.29 C 129.40 109.42 130.30 108.73 130.43 107.76 C 130.55 106.78 129.87 105.89 128.89 105.76 L 127.83 105.62 C 126.86 105.49 125.96 106.18 125.83 107.16 C 125.71 108.13 126.39 109.03 127.37 109.16 Z M 128.59 109.31 L 129.52 109.35 C 130.50 109.39 131.33 108.62 131.37 107.64 C 131.42 106.65 130.65 105.82 129.67 105.78 L 128.73 105.74 C 127.75 105.70 126.92 106.47 126.88 107.45 C 126.84 108.44 127.60 109.27 128.59 109.31 Z M 129.65 109.35 L 130.63 109.31 C 131.61 109.28 132.38 108.45 132.35 107.47 C 132.31 106.49 131.49 105.71 130.51 105.75 L 129.53 105.78 C 128.55 105.82 127.78 106.64 127.81 107.63 C 127.84 108.61 128.67 109.38 129.65 109.35 Z M 130.77 109.30 L 131.80 109.18 C 132.78 109.07 133.48 108.18 133.36 107.21 C 133.25 106.23 132.36 105.53 131.39 105.64 L 130.36 105.76 C 129.38 105.87 128.68 106.76 128.80 107.74 C 128.91 108.71 129.79 109.42 130.77 109.30 Z M 131.94 109.16 L 132.96 108.96 C 133.93 108.77 134.56 107.83 134.37 106.86 C 134.18 105.90 133.24 105.27 132.27 105.46 L 131.25 105.66 C 130.28 105.85 129.65 106.79 129.84 107.76 C 130.03 108.72 130.97 109.35 131.94 109.16 Z M 133.08 108.93 L 134.03 108.68 C 134.98 108.42 135.55 107.45 135.30 106.50 C 135.04 105.54 134.07 104.98 133.11 105.23 L 132.16 105.49 C 131.21 105.74 130.64 106.72 130.89 107.67 C 131.15 108.62 132.12 109.19 133.08 108.93 Z M 134.11 108.65 L 135.08 108.35 C 136.02 108.05 136.54 107.05 136.24 106.11 C 135.94 105.17 134.94 104.65 134.00 104.95 L 133.03 105.26 C 132.10 105.55 131.58 106.55 131.87 107.49 C 132.17 108.43 133.17 108.95 134.11 108.65 Z M 135.14 108.33 L 136.10 107.98 C 137.03 107.65 137.51 106.63 137.18 105.71 C 136.85 104.78 135.83 104.30 134.90 104.63 L 133.94 104.97 C 133.02 105.30 132.53 106.32 132.86 107.25 C 133.20 108.17 134.22 108.66 135.14 108.33 Z M 136.15 107.96 L 137.07 107.60 C 137.99 107.25 138.44 106.21 138.08 105.30 C 137.73 104.38 136.69 103.93 135.78 104.29 L 134.85 104.65 C 133.94 105.00 133.48 106.04 133.84 106.95 C 134.20 107.87 135.23 108.32 136.15 107.96 Z M 137.11 107.58 L 138.01 107.21 C 138.91 106.83 139.34 105.79 138.96 104.88 C 138.58 103.98 137.53 103.55 136.63 103.93 L 135.74 104.30 C 134.83 104.68 134.40 105.73 134.78 106.63 C 135.17 107.54 136.21 107.96 137.11 107.58 Z M 138.04 107.19 L 138.91 106.80 C 139.80 106.41 140.21 105.36 139.81 104.46 C 139.41 103.57 138.36 103.16 137.47 103.56 L 136.60 103.95 C 135.70 104.35 135.30 105.39 135.70 106.29 C 136.09 107.18 137.14 107.59 138.04 107.19 Z M 138.93 106.79 L 139.82 106.38 C 140.71 105.97 141.10 104.92 140.69 104.03 C 140.28 103.15 139.23 102.76 138.34 103.17 L 137.45 103.58 C 136.56 103.98 136.17 105.03 136.58 105.92 C 136.99 106.81 138.04 107.20 138.93 106.79 Z M 139.82 106.37 L 140.78 105.93 C 141.67 105.52 142.05 104.47 141.64 103.58 C 141.23 102.70 140.18 102.32 139.30 102.73 L 138.34 103.17 C 137.45 103.58 137.07 104.63 137.48 105.52 C 137.89 106.40 138.94 106.78 139.82 106.37 Z M 140.78 105.92 L 141.68 105.51 C 142.56 105.10 142.95 104.05 142.54 103.17 C 142.13 102.29 141.08 101.91 140.20 102.31 L 139.30 102.73 C 138.42 103.14 138.03 104.18 138.44 105.07 C 138.85 105.95 139.90 106.33 140.78 105.92 Z M 141.67 105.51 L 142.57 105.09 C 143.45 104.69 143.84 103.65 143.43 102.77 C 143.03 101.89 141.99 101.50 141.11 101.90 L 140.21 102.32 C 139.33 102.72 138.94 103.76 139.35 104.64 C 139.75 105.52 140.79 105.91 141.67 105.51 Z M 142.56 105.09 L 143.50 104.67 C 144.38 104.27 144.76 103.23 144.36 102.35 C 143.96 101.47 142.92 101.08 142.05 101.48 L 141.11 101.91 C 140.23 102.31 139.85 103.35 140.25 104.22 C 140.65 105.10 141.68 105.49 142.56 105.09 Z M 143.49 104.66 L 144.43 104.24 C 145.31 103.84 145.70 102.80 145.30 101.93 C 144.90 101.05 143.87 100.66 142.99 101.06 L 142.05 101.49 C 141.17 101.88 140.78 102.92 141.18 103.80 C 141.58 104.67 142.61 105.06 143.49 104.66 Z M 144.43 104.23 L 145.35 103.81 C 146.23 103.42 146.62 102.39 146.22 101.51 C 145.83 100.64 144.80 100.25 143.92 100.64 L 143.00 101.06 C 142.12 101.46 141.73 102.49 142.13 103.36 C 142.52 104.24 143.55 104.63 144.43 104.23 Z M 145.35 103.81 L 146.27 103.39 C 147.14 103.00 147.53 101.97 147.14 101.10 C 146.75 100.23 145.72 99.84 144.85 100.23 L 143.92 100.65 C 143.05 101.04 142.66 102.07 143.06 102.94 C 143.45 103.81 144.48 104.20 145.35 103.81 Z M 146.26 103.38 L 147.22 102.95 C 148.08 102.56 148.47 101.55 148.08 100.68 C 147.69 99.82 146.67 99.43 145.81 99.82 L 144.86 100.25 C 143.99 100.64 143.60 101.65 143.99 102.52 C 144.38 103.38 145.40 103.77 146.26 103.38 Z M 147.20 102.94 L 148.11 102.53 C 148.96 102.15 149.35 101.15 148.97 100.29 C 148.59 99.44 147.59 99.05 146.73 99.43 L 145.82 99.83 C 144.97 100.22 144.58 101.22 144.96 102.08 C 145.34 102.93 146.34 103.32 147.20 102.94 Z M 148.09 102.52 L 148.98 102.13 C 149.83 101.76 150.21 100.77 149.84 99.92 C 149.47 99.07 148.48 98.69 147.63 99.06 L 146.75 99.44 C 145.90 99.82 145.51 100.81 145.88 101.65 C 146.25 102.50 147.24 102.89 148.09 102.52 Z M 148.96 102.12 L 149.85 101.74 C 150.69 101.38 151.09 100.41 150.73 99.56 C 150.37 98.72 149.39 98.33 148.55 98.69 L 147.66 99.07 C 146.81 99.43 146.42 100.40 146.78 101.25 C 147.14 102.09 148.11 102.48 148.96 102.12 Z M 149.83 101.73 L 150.74 101.35 C 151.58 101.01 151.98 100.05 151.63 99.21 C 151.28 98.37 150.32 97.97 149.48 98.32 L 148.57 98.70 C 147.73 99.04 147.34 100.00 147.68 100.84 C 148.03 101.68 148.99 102.08 149.83 101.73 Z M 150.72 101.35 L 151.65 100.98 C 152.49 100.64 152.89 99.69 152.56 98.86 C 152.22 98.02 151.28 97.62 150.44 97.95 L 149.51 98.33 C 148.67 98.66 148.27 99.61 148.60 100.44 C 148.93 101.28 149.88 101.68 150.72 101.35 Z M 151.62 100.97 L 152.57 100.61 C 153.41 100.29 153.82 99.36 153.50 98.52 C 153.19 97.69 152.25 97.27 151.42 97.59 L 150.47 97.95 C 149.63 98.27 149.22 99.21 149.54 100.04 C 149.86 100.88 150.79 101.29 151.62 100.97 Z M 152.54 100.61 L 153.49 100.26 C 154.32 99.96 154.75 99.04 154.45 98.21 C 154.15 97.38 153.23 96.95 152.40 97.25 L 151.45 97.59 C 150.62 97.89 150.19 98.81 150.49 99.65 C 150.79 100.48 151.71 100.91 152.54 100.61 Z M 153.45 100.26 L 154.39 99.95 C 155.22 99.67 155.67 98.76 155.38 97.93 C 155.10 97.10 154.20 96.65 153.37 96.93 L 152.43 97.25 C 151.60 97.53 151.15 98.43 151.44 99.27 C 151.72 100.10 152.62 100.55 153.45 100.26 Z M 154.34 99.95 L 155.34 99.65 C 156.17 99.39 156.64 98.51 156.39 97.67 C 156.13 96.84 155.24 96.37 154.41 96.62 L 153.41 96.93 C 152.58 97.18 152.11 98.07 152.36 98.90 C 152.62 99.74 153.50 100.21 154.34 99.95 Z M 155.29 99.66 L 156.27 99.39 C 157.11 99.15 157.60 98.29 157.37 97.45 C 157.14 96.61 156.27 96.11 155.43 96.35 L 154.45 96.62 C 153.61 96.85 153.12 97.72 153.35 98.55 C 153.58 99.39 154.45 99.89 155.29 99.66 Z M 156.24 99.39 L 157.19 99.15 C 158.03 98.94 158.54 98.08 158.33 97.24 C 158.12 96.40 157.26 95.89 156.42 96.10 L 155.47 96.34 C 154.63 96.55 154.12 97.41 154.33 98.25 C 154.54 99.09 155.40 99.60 156.24 99.39 Z M 157.17 99.15 L 158.11 98.92 C 158.95 98.72 159.47 97.88 159.27 97.04 C 159.07 96.20 158.23 95.68 157.38 95.88 L 156.44 96.10 C 155.60 96.30 155.08 97.15 155.28 97.99 C 155.48 98.83 156.33 99.35 157.17 99.15 Z M 158.10 98.92 L 158.49 98.83 C 159.33 98.63 159.86 97.79 159.66 96.95 C 159.46 96.11 158.62 95.59 157.78 95.79 L 157.39 95.88 C 156.55 96.08 156.03 96.92 156.23 97.76 C 156.42 98.60 157.26 99.12 158.10 98.92 Z"
      fill="black"
      fill-rule="nonzero" /><path d="M 135.83 120.33 L 135.09 120.97 C 134.40 121.56 134.32 122.61 134.92 123.31 C 135.52 124.01 136.57 124.08 137.26 123.48 L 138.00 122.85 C 138.70 122.25 138.78 121.20 138.18 120.50 C 137.58 119.81 136.53 119.73 135.83 120.33 Z M 135.06 120.97 L 134.33 121.63 C 133.63 122.24 133.57 123.30 134.19 124.00 C 134.80 124.69 135.86 124.75 136.55 124.13 L 137.29 123.48 C 137.98 122.86 138.05 121.80 137.43 121.11 C 136.82 120.42 135.76 120.36 135.06 120.97 Z M 134.28 121.65 L 133.55 122.34 C 132.86 122.98 132.83 124.05 133.47 124.73 C 134.12 125.41 135.19 125.44 135.87 124.80 L 136.60 124.11 C 137.28 123.47 137.31 122.40 136.67 121.72 C 136.03 121.04 134.96 121.01 134.28 121.65 Z M 133.48 122.38 L 132.72 123.16 C 132.06 123.84 132.08 124.92 132.75 125.58 C 133.43 126.24 134.51 126.22 135.17 125.55 L 135.93 124.76 C 136.59 124.09 136.57 123.01 135.90 122.35 C 135.22 121.69 134.14 121.71 133.48 122.38 Z M 132.63 123.24 L 131.83 124.18 C 131.22 124.91 131.30 125.99 132.03 126.61 C 132.75 127.22 133.83 127.14 134.45 126.41 L 135.25 125.47 C 135.87 124.75 135.78 123.66 135.06 123.05 C 134.33 122.43 133.25 122.52 132.63 123.24 Z M 131.68 124.37 L 131.15 125.21 C 130.64 126.02 130.88 127.08 131.69 127.60 C 132.50 128.11 133.57 127.86 134.08 127.06 L 134.60 126.22 C 135.11 125.41 134.87 124.35 134.06 123.83 C 133.26 123.32 132.19 123.57 131.68 124.37 Z M 130.88 126.03 L 130.84 126.59 C 130.79 127.55 131.52 128.38 132.48 128.43 C 133.44 128.49 134.26 127.76 134.32 126.80 L 134.35 126.23 C 134.41 125.27 133.68 124.45 132.72 124.39 C 131.76 124.34 130.93 125.07 130.88 126.03 Z M 132.12 128.38 L 132.77 128.56 C 133.70 128.81 134.66 128.27 134.92 127.34 C 135.17 126.41 134.63 125.45 133.70 125.19 L 133.05 125.01 C 132.12 124.76 131.15 125.30 130.90 126.23 C 130.64 127.16 131.19 128.12 132.12 128.38 Z M 133.48 128.60 L 134.59 128.44 C 135.55 128.31 136.21 127.42 136.08 126.47 C 135.94 125.52 135.06 124.85 134.10 124.99 L 132.99 125.15 C 132.03 125.28 131.37 126.17 131.51 127.12 C 131.64 128.08 132.53 128.74 133.48 128.60 Z M 134.80 128.40 L 135.94 128.10 C 136.87 127.85 137.43 126.89 137.18 125.96 C 136.93 125.03 135.97 124.48 135.04 124.72 L 133.90 125.03 C 132.97 125.28 132.41 126.24 132.66 127.17 C 132.91 128.10 133.87 128.65 134.80 128.40 Z M 136.04 128.07 L 136.97 127.76 C 137.89 127.45 138.38 126.47 138.08 125.55 C 137.78 124.64 136.79 124.14 135.88 124.45 L 134.94 124.75 C 134.03 125.06 133.53 126.04 133.84 126.96 C 134.14 127.87 135.12 128.37 136.04 128.07 Z M 137.03 127.73 L 137.96 127.39 C 138.86 127.05 139.32 126.05 138.99 125.15 C 138.65 124.25 137.65 123.79 136.75 124.12 L 135.82 124.47 C 134.91 124.81 134.46 125.81 134.79 126.71 C 135.13 127.61 136.13 128.07 137.03 127.73 Z M 138.00 127.37 L 138.94 126.99 C 139.84 126.64 140.27 125.63 139.92 124.73 C 139.56 123.84 138.55 123.41 137.66 123.76 L 136.71 124.14 C 135.82 124.49 135.38 125.51 135.74 126.40 C 136.09 127.29 137.11 127.73 138.00 127.37 Z M 138.96 126.99 L 139.82 126.63 C 140.71 126.27 141.14 125.26 140.78 124.37 C 140.41 123.48 139.40 123.05 138.51 123.42 L 137.64 123.77 C 136.75 124.13 136.33 125.15 136.69 126.03 C 137.05 126.92 138.07 127.35 138.96 126.99 Z M 139.83 126.62 L 140.69 126.26 C 141.57 125.90 141.99 124.88 141.62 124.00 C 141.26 123.12 140.24 122.70 139.36 123.07 L 138.50 123.43 C 137.62 123.79 137.20 124.81 137.57 125.69 C 137.94 126.57 138.95 126.99 139.83 126.62 Z M 140.71 126.25 L 141.61 125.86 C 142.49 125.49 142.90 124.47 142.52 123.60 C 142.14 122.72 141.13 122.32 140.25 122.69 L 139.35 123.08 C 138.47 123.46 138.07 124.47 138.44 125.35 C 138.82 126.22 139.83 126.63 140.71 126.25 Z M 141.64 125.85 L 142.60 125.41 C 143.47 125.03 143.86 124.01 143.47 123.14 C 143.08 122.28 142.07 121.89 141.20 122.27 L 140.23 122.71 C 139.37 123.09 138.98 124.11 139.37 124.98 C 139.75 125.84 140.77 126.23 141.64 125.85 Z M 142.63 125.40 L 143.61 124.94 C 144.46 124.54 144.83 123.52 144.43 122.66 C 144.03 121.80 143.01 121.43 142.16 121.83 L 141.18 122.29 C 140.32 122.69 139.95 123.71 140.35 124.57 C 140.75 125.42 141.77 125.80 142.63 125.40 Z M 143.63 124.92 L 144.51 124.49 C 145.36 124.08 145.72 123.06 145.31 122.21 C 144.90 121.37 143.88 121.01 143.03 121.42 L 142.14 121.85 C 141.29 122.26 140.94 123.28 141.35 124.13 C 141.76 124.98 142.78 125.33 143.63 124.92 Z M 144.53 124.48 L 145.44 124.02 C 146.28 123.61 146.62 122.59 146.21 121.75 C 145.79 120.91 144.77 120.56 143.93 120.98 L 143.02 121.43 C 142.18 121.85 141.83 122.87 142.25 123.71 C 142.67 124.55 143.68 124.89 144.53 124.48 Z M 145.45 124.01 L 146.37 123.55 C 147.20 123.13 147.54 122.11 147.12 121.28 C 146.70 120.44 145.68 120.11 144.84 120.53 L 143.93 120.99 C 143.09 121.41 142.76 122.43 143.18 123.26 C 143.60 124.10 144.61 124.43 145.45 124.01 Z M 146.37 123.54 L 147.27 123.08 C 148.10 122.66 148.43 121.64 148.01 120.81 C 147.59 119.99 146.57 119.66 145.74 120.08 L 144.84 120.54 C 144.01 120.96 143.68 121.98 144.11 122.80 C 144.53 123.63 145.54 123.96 146.37 123.54 Z M 147.27 123.07 L 148.14 122.63 C 148.96 122.20 149.29 121.19 148.86 120.37 C 148.44 119.55 147.43 119.22 146.61 119.64 L 145.74 120.09 C 144.92 120.51 144.59 121.52 145.02 122.35 C 145.44 123.17 146.45 123.49 147.27 123.07 Z M 148.14 122.62 L 149.13 122.10 C 149.95 121.68 150.27 120.68 149.85 119.86 C 149.43 119.04 148.42 118.72 147.60 119.14 L 146.61 119.65 C 145.79 120.08 145.47 121.08 145.89 121.90 C 146.31 122.72 147.32 123.04 148.14 122.62 Z M 149.13 122.09 L 150.06 121.60 C 150.87 121.18 151.19 120.19 150.77 119.38 C 150.35 118.57 149.35 118.25 148.54 118.67 L 147.61 119.16 C 146.80 119.58 146.48 120.57 146.90 121.38 C 147.32 122.19 148.32 122.51 149.13 122.09 Z M 150.06 121.58 L 150.92 121.13 C 151.72 120.72 152.03 119.73 151.61 118.93 C 151.19 118.13 150.20 117.82 149.40 118.24 L 148.54 118.69 C 147.75 119.11 147.44 120.10 147.86 120.90 C 148.27 121.69 149.26 122.00 150.06 121.58 Z M 150.92 121.11 L 151.72 120.69 C 152.50 120.27 152.80 119.29 152.38 118.50 C 151.96 117.72 150.98 117.42 150.20 117.84 L 149.40 118.26 C 148.61 118.68 148.31 119.66 148.73 120.45 C 149.15 121.24 150.13 121.53 150.92 121.11 Z M 151.72 120.67 L 152.58 120.20 C 153.36 119.78 153.65 118.80 153.22 118.03 C 152.80 117.25 151.83 116.96 151.05 117.39 L 150.19 117.86 C 149.41 118.28 149.13 119.25 149.55 120.03 C 149.97 120.81 150.95 121.09 151.72 120.67 Z M 152.61 120.17 L 153.48 119.67 C 154.24 119.23 154.51 118.26 154.07 117.50 C 153.63 116.74 152.66 116.47 151.90 116.91 L 151.02 117.42 C 150.26 117.85 150.00 118.83 150.44 119.59 C 150.88 120.35 151.85 120.61 152.61 120.17 Z M 153.54 119.63 L 154.36 119.10 C 155.10 118.63 155.32 117.66 154.85 116.92 C 154.38 116.18 153.40 115.97 152.67 116.43 L 151.84 116.96 C 151.11 117.43 150.89 118.40 151.36 119.14 C 151.82 119.88 152.80 120.09 153.54 119.63 Z M 154.44 119.04 L 155.23 118.47 C 155.93 117.96 156.09 116.98 155.58 116.27 C 155.07 115.57 154.09 115.41 153.38 115.92 L 152.59 116.49 C 151.89 117.00 151.73 117.99 152.24 118.69 C 152.75 119.39 153.73 119.55 154.44 119.04 Z M 155.30 118.40 L 156.06 117.78 C 156.73 117.23 156.83 116.24 156.28 115.57 C 155.73 114.91 154.74 114.81 154.07 115.36 L 153.31 115.99 C 152.64 116.54 152.55 117.52 153.10 118.19 C 153.65 118.86 154.63 118.95 155.30 118.40 Z M 156.11 117.73 L 156.86 117.06 C 157.50 116.49 157.55 115.50 156.98 114.85 C 156.40 114.21 155.41 114.16 154.77 114.73 L 154.02 115.40 C 153.38 115.98 153.33 116.97 153.90 117.61 C 154.48 118.26 155.47 118.31 156.11 117.73 Z M 156.88 117.04 L 157.62 116.34 C 158.25 115.75 158.28 114.77 157.69 114.14 C 157.10 113.51 156.11 113.48 155.48 114.07 L 154.74 114.76 C 154.12 115.35 154.08 116.34 154.67 116.97 C 155.26 117.60 156.25 117.63 156.88 117.04 Z M 157.63 116.34 L 157.75 116.22 C 158.38 115.63 158.41 114.64 157.81 114.01 C 157.22 113.39 156.23 113.36 155.61 113.95 L 155.48 114.07 C 154.85 114.67 154.83 115.65 155.42 116.28 C 156.01 116.91 157.00 116.93 157.63 116.34 Z"
      fill="black"
      fill-rule="nonzero" /><path d="M 131.80 128.81 L 131.11 129.50 C 130.48 130.14 130.49 131.16 131.12 131.78 C 131.75 132.41 132.77 132.40 133.40 131.77 L 134.08 131.08 C 134.71 130.45 134.71 129.43 134.07 128.80 C 133.44 128.17 132.42 128.18 131.80 128.81 Z M 131.08 129.53 L 130.40 130.25 C 129.79 130.90 129.82 131.92 130.47 132.53 C 131.12 133.14 132.14 133.11 132.75 132.46 L 133.43 131.75 C 134.04 131.10 134.01 130.08 133.36 129.46 C 132.71 128.85 131.69 128.88 131.08 129.53 Z M 130.35 130.30 L 129.69 131.07 C 129.11 131.75 129.19 132.77 129.87 133.35 C 130.55 133.93 131.57 133.85 132.15 133.17 L 132.81 132.41 C 133.39 131.73 133.31 130.71 132.63 130.13 C 131.95 129.54 130.93 129.62 130.35 130.30 Z M 129.62 131.15 L 129.01 131.98 C 128.47 132.70 128.62 133.72 129.34 134.25 C 130.06 134.78 131.08 134.63 131.61 133.91 L 132.23 133.09 C 132.76 132.37 132.61 131.35 131.89 130.82 C 131.17 130.28 130.15 130.43 129.62 131.15 Z M 128.93 132.08 L 128.40 132.94 C 127.92 133.70 128.15 134.70 128.91 135.18 C 129.67 135.66 130.67 135.43 131.15 134.67 L 131.69 133.81 C 132.16 133.05 131.93 132.05 131.17 131.57 C 130.41 131.09 129.41 131.32 128.93 132.08 Z M 128.34 133.04 L 127.86 133.94 C 127.43 134.73 127.73 135.72 128.53 136.14 C 129.32 136.56 130.31 136.26 130.73 135.47 L 131.21 134.57 C 131.63 133.77 131.33 132.79 130.54 132.37 C 129.74 131.94 128.76 132.24 128.34 133.04 Z M 127.80 134.04 L 127.40 134.96 C 127.03 135.78 127.40 136.75 128.23 137.11 C 129.05 137.48 130.01 137.10 130.38 136.28 L 130.78 135.36 C 131.15 134.54 130.78 133.58 129.95 133.21 C 129.13 132.85 128.17 133.22 127.80 134.04 Z M 127.35 135.08 L 127.03 135.99 C 126.73 136.84 127.18 137.77 128.03 138.07 C 128.88 138.37 129.81 137.92 130.11 137.07 L 130.43 136.16 C 130.72 135.31 130.28 134.38 129.43 134.08 C 128.58 133.78 127.64 134.23 127.35 135.08 Z M 126.98 136.13 L 126.75 137.05 C 126.53 137.93 127.07 138.81 127.94 139.03 C 128.82 139.25 129.70 138.72 129.92 137.84 L 130.15 136.92 C 130.37 136.05 129.84 135.16 128.96 134.94 C 128.09 134.73 127.20 135.26 126.98 136.13 Z M 126.72 137.20 L 126.58 138.13 C 126.44 139.03 127.06 139.86 127.95 140.00 C 128.84 140.13 129.67 139.52 129.81 138.63 L 129.95 137.69 C 130.09 136.80 129.48 135.97 128.58 135.83 C 127.69 135.70 126.86 136.31 126.72 137.20 Z M 126.57 138.25 L 126.49 139.26 C 126.42 140.15 127.09 140.94 127.98 141.01 C 128.88 141.09 129.67 140.41 129.74 139.52 L 129.82 138.51 C 129.90 137.61 129.22 136.82 128.33 136.75 C 127.43 136.68 126.64 137.35 126.57 138.25 Z M 126.48 139.32 L 126.44 140.41 C 126.41 141.31 127.11 142.07 128.01 142.11 C 128.91 142.14 129.67 141.44 129.71 140.54 L 129.75 139.45 C 129.78 138.55 129.08 137.79 128.18 137.75 C 127.28 137.72 126.52 138.42 126.48 139.32 Z M 126.44 140.44 L 126.42 141.42 C 126.41 142.32 127.12 143.06 128.02 143.08 C 128.92 143.10 129.66 142.39 129.68 141.49 L 129.70 140.51 C 129.72 139.61 129.01 138.87 128.11 138.85 C 127.21 138.83 126.46 139.54 126.44 140.44 Z M 126.43 141.43 L 126.42 142.47 C 126.41 143.36 127.13 144.10 128.02 144.11 C 128.92 144.12 129.65 143.40 129.66 142.50 L 129.68 141.47 C 129.69 140.58 128.97 139.84 128.07 139.83 C 127.18 139.82 126.44 140.54 126.43 141.43 Z M 126.42 142.48 L 126.42 143.52 C 126.41 144.41 127.13 145.14 128.03 145.15 C 128.92 145.15 129.65 144.43 129.65 143.54 L 129.66 142.50 C 129.66 141.60 128.94 140.87 128.05 140.87 C 127.16 140.86 126.43 141.58 126.42 142.48 Z M 126.42 143.53 L 126.42 144.54 C 126.42 145.43 127.14 146.15 128.03 146.15 C 128.92 146.15 129.64 145.43 129.64 144.54 L 129.65 143.53 C 129.65 142.64 128.93 141.92 128.04 141.92 C 127.15 141.92 126.43 142.64 126.42 143.53 Z M 126.43 144.54 L 126.43 145.51 C 126.43 146.40 127.15 147.12 128.03 147.12 C 128.92 147.12 129.64 146.40 129.64 145.51 L 129.64 144.54 C 129.64 143.65 128.92 142.93 128.03 142.93 C 127.15 142.93 126.43 143.65 126.43 144.54 Z M 126.44 145.51 L 126.43 146.65 C 126.43 147.54 127.15 148.25 128.03 148.25 C 128.91 148.25 129.63 147.54 129.63 146.66 L 129.63 145.52 C 129.63 144.63 128.92 143.92 128.04 143.92 C 127.15 143.92 126.44 144.63 126.44 145.51 Z M 126.44 146.64 L 126.44 147.63 C 126.43 148.51 127.13 149.22 128.01 149.23 C 128.89 149.24 129.61 148.53 129.61 147.66 L 129.62 146.67 C 129.63 145.79 128.92 145.07 128.04 145.07 C 127.17 145.06 126.45 145.77 126.44 146.64 Z M 126.45 147.61 L 126.43 148.51 C 126.41 149.38 127.10 150.10 127.97 150.12 C 128.84 150.14 129.56 149.45 129.58 148.58 L 129.60 147.68 C 129.62 146.81 128.93 146.08 128.06 146.06 C 127.19 146.04 126.47 146.74 126.45 147.61 Z M 126.43 148.47 L 126.39 149.41 C 126.35 150.27 127.02 151.01 127.89 151.05 C 128.76 151.09 129.49 150.42 129.53 149.55 L 129.57 148.61 C 129.61 147.75 128.94 147.01 128.08 146.97 C 127.21 146.93 126.47 147.60 126.43 148.47 Z M 126.40 149.34 L 126.31 150.33 C 126.24 151.19 126.87 151.96 127.74 152.03 C 128.60 152.11 129.36 151.47 129.44 150.60 L 129.53 149.61 C 129.60 148.75 128.96 147.99 128.10 147.91 C 127.23 147.84 126.47 148.48 126.40 149.34 Z M 126.33 150.22 L 126.17 151.21 C 126.03 152.07 126.62 152.87 127.47 153.01 C 128.33 153.14 129.13 152.56 129.27 151.71 L 129.42 150.71 C 129.56 149.86 128.98 149.05 128.12 148.92 C 127.27 148.78 126.46 149.37 126.33 150.22 Z M 126.20 151.06 L 125.95 152.02 C 125.73 152.86 126.23 153.72 127.07 153.94 C 127.91 154.16 128.77 153.65 128.99 152.81 L 129.24 151.86 C 129.46 151.02 128.95 150.16 128.11 149.94 C 127.27 149.72 126.42 150.22 126.20 151.06 Z M 125.99 151.84 L 125.64 152.74 C 125.32 153.56 125.73 154.47 126.54 154.79 C 127.36 155.11 128.28 154.71 128.59 153.89 L 128.94 152.99 C 129.26 152.18 128.86 151.26 128.04 150.94 C 127.23 150.62 126.31 151.02 125.99 151.84 Z M 125.71 152.54 L 125.23 153.42 C 124.80 154.19 125.09 155.17 125.86 155.60 C 126.64 156.02 127.62 155.74 128.04 154.96 L 128.52 154.09 C 128.95 153.31 128.67 152.34 127.89 151.91 C 127.11 151.48 126.14 151.77 125.71 152.54 Z M 125.34 153.21 L 124.71 154.05 C 124.17 154.77 124.31 155.79 125.03 156.33 C 125.75 156.87 126.77 156.72 127.31 156.01 L 127.94 155.17 C 128.48 154.45 128.33 153.43 127.61 152.89 C 126.90 152.35 125.88 152.50 125.34 153.21 Z M 124.82 153.85 L 123.90 154.78 C 123.25 155.44 123.25 156.49 123.91 157.14 C 124.56 157.79 125.62 157.79 126.26 157.13 L 127.19 156.20 C 127.84 155.55 127.84 154.50 127.18 153.85 C 126.53 153.20 125.47 153.20 124.82 153.85 Z M 123.92 154.67 L 123.12 155.39 C 122.41 156.03 122.35 157.12 122.99 157.84 C 123.63 158.55 124.72 158.61 125.43 157.97 L 126.24 157.25 C 126.95 156.61 127.01 155.51 126.37 154.80 C 125.73 154.09 124.64 154.03 123.92 154.67 Z M 122.89 155.54 L 122.60 155.89 C 121.98 156.66 122.09 157.79 122.86 158.42 C 123.62 159.05 124.76 158.93 125.38 158.17 L 125.67 157.82 C 126.30 157.05 126.18 155.92 125.41 155.29 C 124.65 154.66 123.52 154.78 122.89 155.54 Z M 124.31 158.84 L 124.73 158.76 C 125.73 158.59 126.39 157.64 126.22 156.64 C 126.05 155.64 125.09 154.97 124.10 155.15 L 123.68 155.22 C 122.68 155.40 122.01 156.35 122.19 157.34 C 122.36 158.34 123.31 159.01 124.31 158.84 Z M 125.04 158.70 L 126.06 158.33 C 127.02 157.99 127.52 156.92 127.17 155.96 C 126.82 155.00 125.76 154.50 124.80 154.85 L 123.78 155.21 C 122.82 155.56 122.32 156.62 122.67 157.58 C 123.02 158.55 124.08 159.05 125.04 158.70 Z M 126.06 158.35 L 127.48 157.84 C 128.45 157.48 128.95 156.41 128.60 155.44 C 128.25 154.47 127.17 153.97 126.20 154.32 L 124.79 154.83 C 123.82 155.18 123.32 156.26 123.67 157.23 C 124.02 158.20 125.09 158.70 126.06 158.35 Z M 127.45 157.86 L 128.22 157.59 C 129.20 157.26 129.73 156.19 129.39 155.20 C 129.06 154.22 127.99 153.70 127.00 154.03 L 126.23 154.30 C 125.25 154.63 124.72 155.70 125.06 156.69 C 125.40 157.67 126.47 158.19 127.45 157.86 Z M 128.20 157.60 L 129.04 157.32 C 130.03 157.00 130.57 155.93 130.24 154.94 C 129.91 153.96 128.85 153.42 127.86 153.75 L 127.02 154.03 C 126.03 154.35 125.50 155.42 125.83 156.40 C 126.15 157.39 127.22 157.93 128.20 157.60 Z M 129.03 157.33 L 129.94 157.03 C 130.93 156.71 131.47 155.65 131.15 154.66 C 130.83 153.67 129.77 153.13 128.78 153.45 L 127.87 153.74 C 126.88 154.06 126.34 155.12 126.66 156.11 C 126.98 157.10 128.04 157.65 129.03 157.33 Z M 129.93 157.04 L 130.90 156.73 C 131.89 156.41 132.44 155.35 132.12 154.36 C 131.80 153.37 130.74 152.82 129.75 153.14 L 128.79 153.45 C 127.80 153.76 127.25 154.82 127.56 155.81 C 127.88 156.81 128.94 157.35 129.93 157.04 Z M 130.89 156.73 L 131.91 156.41 C 132.91 156.10 133.46 155.04 133.14 154.04 C 132.83 153.05 131.77 152.50 130.78 152.81 L 129.76 153.14 C 128.76 153.45 128.21 154.51 128.53 155.50 C 128.84 156.50 129.90 157.05 130.89 156.73 Z M 131.91 156.41 L 132.99 156.07 C 133.98 155.76 134.53 154.70 134.22 153.71 C 133.91 152.71 132.85 152.16 131.85 152.47 L 130.78 152.81 C 129.79 153.13 129.23 154.19 129.55 155.18 C 129.86 156.17 130.92 156.72 131.91 156.41 Z M 132.99 156.07 L 134.09 155.73 C 135.09 155.41 135.64 154.35 135.32 153.36 C 135.01 152.36 133.95 151.81 132.95 152.13 L 131.85 152.47 C 130.86 152.79 130.31 153.85 130.62 154.84 C 130.93 155.84 131.99 156.39 132.99 156.07 Z M 134.10 155.72 L 135.09 155.41 C 136.08 155.09 136.63 154.03 136.32 153.04 C 136.00 152.04 134.94 151.49 133.94 151.81 L 132.95 152.13 C 131.96 152.44 131.41 153.50 131.72 154.50 C 132.04 155.49 133.10 156.04 134.10 155.72 Z M 135.09 155.41 L 136.10 155.09 C 137.09 154.77 137.64 153.71 137.32 152.71 C 137.01 151.72 135.94 151.17 134.95 151.49 L 133.94 151.81 C 132.95 152.13 132.40 153.19 132.72 154.18 C 133.03 155.18 134.10 155.73 135.09 155.41 Z M 136.10 155.09 L 137.11 154.76 C 138.11 154.44 138.65 153.38 138.33 152.39 C 138.02 151.39 136.95 150.85 135.96 151.16 L 134.95 151.49 C 133.96 151.81 133.41 152.87 133.73 153.86 C 134.05 154.86 135.11 155.40 136.10 155.09 Z M 137.12 154.76 L 138.12 154.44 C 139.11 154.12 139.65 153.05 139.33 152.06 C 139.01 151.07 137.95 150.52 136.96 150.84 L 135.96 151.17 C 134.97 151.49 134.42 152.55 134.74 153.54 C 135.06 154.53 136.12 155.08 137.12 154.76 Z M 138.12 154.44 L 139.09 154.12 C 140.08 153.80 140.63 152.74 140.31 151.75 C 139.99 150.75 138.92 150.21 137.93 150.53 L 136.96 150.84 C 135.96 151.16 135.42 152.23 135.74 153.22 C 136.06 154.21 137.12 154.76 138.12 154.44 Z M 139.09 154.12 L 140.03 153.82 C 141.02 153.50 141.57 152.43 141.24 151.44 C 140.92 150.45 139.86 149.91 138.87 150.23 L 137.93 150.53 C 136.94 150.85 136.39 151.92 136.72 152.91 C 137.04 153.90 138.10 154.44 139.09 154.12 Z M 140.03 153.82 L 140.91 153.53 C 141.91 153.21 142.45 152.14 142.13 151.15 C 141.80 150.16 140.74 149.62 139.75 149.94 L 138.86 150.23 C 137.87 150.55 137.33 151.61 137.65 152.61 C 137.97 153.60 139.04 154.14 140.03 153.82 Z M 140.91 153.53 L 141.73 153.27 C 142.72 152.94 143.26 151.88 142.94 150.89 C 142.62 149.89 141.55 149.35 140.56 149.68 L 139.74 149.94 C 138.75 150.26 138.21 151.33 138.53 152.32 C 138.86 153.31 139.92 153.85 140.91 153.53 Z M 141.73 153.26 L 142.94 152.87 C 143.93 152.54 144.47 151.48 144.15 150.49 C 143.82 149.50 142.76 148.96 141.77 149.28 L 140.56 149.68 C 139.57 150.00 139.03 151.07 139.35 152.06 C 139.68 153.05 140.74 153.59 141.73 153.26 Z M 142.94 152.86 L 143.98 152.52 C 144.96 152.20 145.50 151.13 145.18 150.15 C 144.85 149.16 143.79 148.63 142.81 148.95 L 141.77 149.29 C 140.78 149.61 140.24 150.68 140.57 151.66 C 140.89 152.65 141.95 153.18 142.94 152.86 Z M 143.98 152.51 L 144.87 152.22 C 145.85 151.90 146.39 150.84 146.07 149.86 C 145.74 148.87 144.69 148.34 143.70 148.66 L 142.81 148.96 C 141.83 149.28 141.29 150.34 141.61 151.32 C 141.94 152.30 142.99 152.83 143.98 152.51 Z M 144.86 152.21 L 145.66 151.95 C 146.64 151.63 147.18 150.58 146.86 149.60 C 146.54 148.62 145.49 148.09 144.51 148.41 L 143.71 148.67 C 142.73 148.99 142.19 150.04 142.51 151.02 C 142.83 152.00 143.89 152.53 144.86 152.21 Z M 145.65 151.95 L 146.46 151.69 C 147.44 151.38 147.98 150.33 147.66 149.35 C 147.35 148.37 146.30 147.84 145.32 148.15 L 144.51 148.41 C 143.54 148.73 143.00 149.77 143.31 150.75 C 143.63 151.73 144.68 152.26 145.65 151.95 Z M 146.45 151.69 L 147.41 151.38 C 148.39 151.07 148.93 150.03 148.62 149.06 C 148.31 148.08 147.27 147.54 146.29 147.85 L 145.33 148.15 C 144.36 148.46 143.82 149.51 144.13 150.48 C 144.43 151.46 145.48 152.00 146.45 151.69 Z M 147.41 151.38 L 148.36 151.08 C 149.33 150.77 149.87 149.73 149.56 148.76 C 149.26 147.79 148.22 147.25 147.24 147.55 L 146.29 147.85 C 145.32 148.16 144.78 149.20 145.09 150.17 C 145.40 151.15 146.43 151.69 147.41 151.38 Z M 148.36 151.07 L 149.31 150.77 C 150.28 150.46 150.82 149.42 150.51 148.45 C 150.20 147.48 149.16 146.95 148.19 147.26 L 147.24 147.56 C 146.27 147.87 145.74 148.91 146.05 149.88 C 146.36 150.85 147.39 151.38 148.36 151.07 Z M 149.32 150.76 L 150.27 150.45 C 151.23 150.13 151.76 149.10 151.44 148.13 C 151.13 147.16 150.09 146.64 149.12 146.96 L 148.18 147.27 C 147.21 147.58 146.69 148.62 147.00 149.59 C 147.32 150.55 148.36 151.08 149.32 150.76 Z M 150.28 150.44 L 151.22 150.13 C 152.18 149.80 152.70 148.77 152.38 147.81 C 152.06 146.85 151.02 146.33 150.06 146.65 L 149.11 146.96 C 148.15 147.29 147.64 148.32 147.96 149.28 C 148.28 150.24 149.32 150.76 150.28 150.44 Z M 151.22 150.12 L 152.17 149.80 C 153.12 149.48 153.64 148.45 153.32 147.49 C 153.00 146.53 151.97 146.02 151.01 146.34 L 150.06 146.65 C 149.10 146.97 148.59 148.01 148.91 148.97 C 149.23 149.92 150.26 150.44 151.22 150.12 Z M 152.15 149.80 L 153.11 149.49 C 154.07 149.17 154.59 148.15 154.28 147.19 C 153.96 146.24 152.93 145.71 151.98 146.03 L 151.02 146.34 C 150.07 146.65 149.55 147.68 149.86 148.64 C 150.17 149.59 151.20 150.11 152.15 149.80 Z M 153.09 149.49 L 154.04 149.19 C 154.99 148.89 155.52 147.87 155.22 146.91 C 154.92 145.96 153.90 145.43 152.95 145.73 L 152.00 146.03 C 151.05 146.33 150.51 147.35 150.82 148.30 C 151.12 149.26 152.13 149.79 153.09 149.49 Z M 154.01 149.19 L 154.97 148.90 C 155.92 148.61 156.46 147.60 156.18 146.65 C 155.89 145.69 154.88 145.15 153.92 145.44 L 152.97 145.73 C 152.01 146.02 151.47 147.03 151.76 147.98 C 152.05 148.94 153.06 149.48 154.01 149.19 Z M 154.95 148.90 L 155.91 148.62 C 156.87 148.35 157.42 147.35 157.14 146.39 C 156.86 145.44 155.87 144.89 154.91 145.16 L 153.95 145.44 C 152.99 145.72 152.44 146.72 152.72 147.67 C 152.99 148.63 153.99 149.18 154.95 148.90 Z M 155.89 148.62 L 156.86 148.35 C 157.81 148.09 158.37 147.10 158.11 146.15 C 157.84 145.19 156.86 144.63 155.90 144.90 L 154.93 145.16 C 153.98 145.43 153.42 146.42 153.68 147.37 C 153.95 148.33 154.93 148.89 155.89 148.62 Z M 156.84 148.35 L 157.79 148.10 C 158.75 147.85 159.32 146.87 159.06 145.91 C 158.81 144.96 157.83 144.39 156.88 144.64 L 155.92 144.90 C 154.97 145.15 154.40 146.13 154.65 147.08 C 154.90 148.04 155.88 148.60 156.84 148.35 Z M 157.78 148.09 L 158.74 147.85 C 159.70 147.60 160.27 146.63 160.03 145.68 C 159.78 144.73 158.81 144.16 157.86 144.40 L 156.90 144.65 C 155.94 144.89 155.37 145.86 155.61 146.81 C 155.86 147.76 156.83 148.34 157.78 148.09 Z M 158.73 147.84 L 159.71 147.60 C 160.66 147.36 161.23 146.40 161.00 145.45 C 160.76 144.50 159.80 143.93 158.85 144.16 L 157.87 144.41 C 156.93 144.64 156.35 145.60 156.59 146.55 C 156.82 147.50 157.78 148.08 158.73 147.84 Z M 159.70 147.59 L 160.67 147.35 C 161.62 147.12 162.19 146.17 161.96 145.22 C 161.73 144.27 160.77 143.70 159.83 143.93 L 158.86 144.17 C 157.91 144.40 157.34 145.36 157.57 146.30 C 157.80 147.25 158.76 147.82 159.70 147.59 Z M 160.66 147.35 L 161.62 147.11 C 162.56 146.89 163.14 145.94 162.91 144.99 C 162.68 144.05 161.73 143.47 160.79 143.70 L 159.83 143.94 C 158.89 144.17 158.31 145.11 158.54 146.06 C 158.77 147.00 159.72 147.58 160.66 147.35 Z M 161.61 147.11 L 162.58 146.88 C 163.52 146.65 164.10 145.71 163.87 144.77 C 163.65 143.83 162.70 143.25 161.76 143.48 L 160.80 143.71 C 159.86 143.94 159.28 144.88 159.50 145.82 C 159.73 146.75 160.67 147.33 161.61 147.11 Z M 162.57 146.87 L 163.56 146.64 C 164.49 146.42 165.07 145.48 164.85 144.55 C 164.63 143.61 163.69 143.03 162.76 143.25 L 161.77 143.48 C 160.84 143.70 160.26 144.64 160.48 145.58 C 160.70 146.51 161.63 147.09 162.57 146.87 Z M 163.55 146.63 L 164.54 146.40 C 165.47 146.19 166.05 145.26 165.84 144.33 C 165.62 143.40 164.69 142.81 163.76 143.03 L 162.77 143.26 C 161.84 143.47 161.26 144.40 161.47 145.33 C 161.68 146.27 162.61 146.85 163.55 146.63 Z M 164.53 146.40 L 165.51 146.18 C 166.44 145.97 167.03 145.05 166.82 144.12 C 166.61 143.19 165.69 142.61 164.76 142.81 L 163.77 143.04 C 162.85 143.24 162.26 144.17 162.47 145.09 C 162.68 146.02 163.60 146.61 164.53 146.40 Z M 165.50 146.17 L 166.49 145.95 C 167.42 145.75 168.00 144.84 167.80 143.91 C 167.60 142.99 166.68 142.40 165.76 142.60 L 164.77 142.82 C 163.85 143.02 163.26 143.94 163.46 144.86 C 163.67 145.79 164.58 146.37 165.50 146.17 Z M 166.48 145.94 L 167.46 145.74 C 168.38 145.54 168.96 144.64 168.77 143.72 C 168.57 142.80 167.67 142.21 166.75 142.40 L 165.77 142.61 C 164.85 142.81 164.26 143.71 164.46 144.63 C 164.65 145.55 165.56 146.14 166.48 145.94 Z M 167.44 145.73 L 168.42 145.53 C 169.33 145.34 169.92 144.45 169.73 143.53 C 169.55 142.61 168.65 142.02 167.73 142.21 L 166.76 142.41 C 165.84 142.60 165.25 143.50 165.44 144.41 C 165.63 145.33 166.53 145.92 167.44 145.73 Z M 168.40 145.52 L 169.42 145.32 C 170.33 145.14 170.93 144.26 170.75 143.34 C 170.57 142.43 169.68 141.84 168.77 142.02 L 167.75 142.22 C 166.84 142.40 166.24 143.28 166.42 144.20 C 166.60 145.11 167.49 145.70 168.40 145.52 Z M 169.40 145.32 L 170.38 145.14 C 171.29 144.96 171.89 144.09 171.72 143.18 C 171.55 142.27 170.67 141.67 169.76 141.84 L 168.78 142.02 C 167.87 142.19 167.27 143.07 167.44 143.98 C 167.61 144.89 168.49 145.49 169.40 145.32 Z M 170.37 145.13 L 171.32 144.96 C 172.23 144.80 172.84 143.93 172.67 143.02 C 172.51 142.11 171.64 141.51 170.74 141.67 L 169.78 141.84 C 168.87 142.00 168.27 142.87 168.43 143.78 C 168.59 144.69 169.46 145.29 170.37 145.13 Z M 171.31 144.95 L 172.28 144.79 C 173.19 144.63 173.80 143.78 173.65 142.87 C 173.49 141.97 172.63 141.36 171.73 141.51 L 170.75 141.68 C 169.85 141.83 169.24 142.69 169.39 143.59 C 169.54 144.50 170.40 145.11 171.31 144.95 Z M 172.27 144.78 L 173.27 144.62 C 174.17 144.48 174.79 143.63 174.64 142.72 C 174.50 141.82 173.65 141.21 172.74 141.36 L 171.74 141.52 C 170.84 141.66 170.23 142.51 170.37 143.41 C 170.52 144.31 171.37 144.93 172.27 144.78 Z M 173.26 144.61 L 174.24 144.46 C 175.14 144.33 175.76 143.49 175.62 142.59 C 175.48 141.69 174.64 141.07 173.74 141.21 L 172.76 141.36 C 171.86 141.50 171.24 142.34 171.38 143.24 C 171.52 144.13 172.36 144.75 173.26 144.61 Z M 174.23 144.46 L 175.19 144.32 C 176.09 144.19 176.71 143.36 176.58 142.47 C 176.45 141.57 175.62 140.95 174.73 141.08 L 173.76 141.22 C 172.86 141.35 172.24 142.18 172.37 143.07 C 172.50 143.97 173.33 144.59 174.23 144.46 Z M 175.18 144.31 L 176.10 144.19 C 176.99 144.07 177.62 143.25 177.50 142.36 C 177.38 141.46 176.56 140.84 175.66 140.96 L 174.74 141.08 C 173.85 141.20 173.22 142.02 173.34 142.92 C 173.46 143.81 174.28 144.43 175.18 144.31 Z M 176.08 144.18 L 177.03 144.07 C 177.92 143.96 178.55 143.15 178.44 142.26 C 178.33 141.37 177.53 140.74 176.64 140.85 L 175.68 140.96 C 174.79 141.07 174.16 141.88 174.27 142.77 C 174.38 143.66 175.19 144.29 176.08 144.18 Z M 177.01 144.06 L 178.04 143.95 C 178.93 143.85 179.57 143.06 179.47 142.17 C 179.37 141.28 178.58 140.64 177.69 140.74 L 176.66 140.85 C 175.77 140.95 175.13 141.75 175.23 142.63 C 175.33 143.52 176.12 144.16 177.01 144.06 Z M 178.02 143.95 L 179.06 143.85 C 179.94 143.76 180.59 142.97 180.50 142.09 C 180.42 141.20 179.63 140.56 178.75 140.64 L 177.71 140.74 C 176.83 140.83 176.18 141.61 176.26 142.50 C 176.35 143.38 177.14 144.03 178.02 143.95 Z M 179.04 143.84 L 180.02 143.76 C 180.90 143.68 181.55 142.90 181.48 142.02 C 181.40 141.14 180.62 140.48 179.74 140.56 L 178.76 140.65 C 177.88 140.72 177.23 141.50 177.30 142.38 C 177.38 143.27 178.16 143.92 179.04 143.84 Z M 180.01 143.75 L 181.03 143.67 C 181.91 143.60 182.56 142.82 182.49 141.94 C 182.42 141.06 181.65 140.41 180.77 140.48 L 179.75 140.56 C 178.87 140.64 178.21 141.41 178.29 142.29 C 178.36 143.17 179.13 143.82 180.01 143.75 Z M 181.02 143.66 L 182.05 143.58 C 182.93 143.51 183.58 142.75 183.51 141.87 C 183.45 140.99 182.68 140.34 181.80 140.40 L 180.77 140.48 C 179.90 140.55 179.24 141.32 179.31 142.20 C 179.38 143.08 180.14 143.73 181.02 143.66 Z M 182.05 143.58 L 183.05 143.50 C 183.92 143.44 184.58 142.67 184.51 141.80 C 184.44 140.92 183.68 140.27 182.81 140.33 L 181.81 140.41 C 180.93 140.48 180.27 141.24 180.34 142.11 C 180.41 142.99 181.17 143.65 182.05 143.58 Z M 183.04 143.50 L 184.11 143.42 C 184.98 143.35 185.63 142.59 185.57 141.72 C 185.51 140.85 184.75 140.19 183.87 140.26 L 182.81 140.34 C 181.94 140.40 181.28 141.16 181.34 142.04 C 181.41 142.91 182.17 143.56 183.04 143.50 Z M 184.10 143.41 L 185.12 143.34 C 185.99 143.28 186.65 142.52 186.58 141.65 C 186.52 140.78 185.76 140.13 184.89 140.19 L 183.87 140.26 C 183.00 140.33 182.35 141.08 182.41 141.95 C 182.48 142.82 183.23 143.48 184.10 143.41 Z M 185.12 143.33 L 186.09 143.26 C 186.96 143.20 187.61 142.45 187.55 141.58 C 187.48 140.72 186.73 140.06 185.86 140.13 L 184.89 140.20 C 184.03 140.26 183.38 141.01 183.44 141.88 C 183.50 142.74 184.25 143.40 185.12 143.33 Z M 186.09 143.26 L 187.03 143.19 C 187.89 143.13 188.54 142.38 188.48 141.52 C 188.42 140.65 187.67 140.00 186.81 140.06 L 185.86 140.13 C 185.00 140.19 184.35 140.94 184.41 141.81 C 184.48 142.67 185.23 143.32 186.09 143.26 Z M 187.03 143.19 L 187.16 143.18 C 188.02 143.12 188.67 142.37 188.61 141.51 C 188.55 140.65 187.80 140.00 186.94 140.06 L 186.81 140.07 C 185.95 140.13 185.30 140.88 185.36 141.74 C 185.42 142.60 186.17 143.25 187.03 143.19 Z"
      fill="black"
      fill-rule="nonzero" /><path d="M 151.02 107.68 L 150.50 106.45 C 150.15 105.62 149.19 105.24 148.36 105.59 C 147.53 105.94 147.14 106.90 147.49 107.73 L 148.01 108.96 C 148.37 109.79 149.33 110.18 150.16 109.82 C 150.99 109.47 151.37 108.51 151.02 107.68 Z M 150.52 106.38 L 150.05 105.37 C 149.66 104.53 148.66 104.16 147.81 104.56 C 146.97 104.95 146.61 105.95 147.00 106.79 L 147.47 107.80 C 147.86 108.64 148.86 109.01 149.71 108.61 C 150.55 108.22 150.91 107.22 150.52 106.38 Z M 149.98 105.15 L 149.61 104.57 C 149.09 103.76 148.03 103.53 147.22 104.04 C 146.42 104.56 146.18 105.63 146.70 106.43 L 147.07 107.01 C 147.58 107.81 148.65 108.05 149.45 107.53 C 150.26 107.02 150.49 105.95 149.98 105.15 Z M 147.40 103.91 L 147.15 104.03 C 146.27 104.44 145.89 105.49 146.31 106.37 C 146.73 107.25 147.77 107.62 148.65 107.21 L 148.90 107.09 C 149.78 106.67 150.16 105.62 149.74 104.75 C 149.33 103.87 148.28 103.49 147.40 103.91 Z M 146.13 105.54 L 146.08 106.49 C 146.04 107.47 146.80 108.30 147.78 108.34 C 148.76 108.39 149.59 107.63 149.63 106.65 L 149.67 105.70 C 149.72 104.72 148.96 103.89 147.98 103.84 C 147.00 103.80 146.17 104.56 146.13 105.54 Z M 146.08 106.74 L 146.21 108.12 C 146.30 109.10 147.18 109.82 148.16 109.73 C 149.14 109.64 149.86 108.76 149.77 107.78 L 149.63 106.40 C 149.54 105.42 148.67 104.70 147.69 104.79 C 146.71 104.89 145.99 105.76 146.08 106.74 Z M 146.22 108.22 L 146.36 109.18 C 146.51 110.16 147.42 110.83 148.40 110.68 C 149.38 110.53 150.05 109.62 149.91 108.64 L 149.76 107.68 C 149.61 106.70 148.70 106.03 147.72 106.18 C 146.74 106.33 146.07 107.24 146.22 108.22 Z M 146.37 109.23 L 146.55 110.23 C 146.72 111.21 147.65 111.86 148.63 111.68 C 149.60 111.51 150.25 110.58 150.08 109.60 L 149.90 108.60 C 149.73 107.62 148.79 106.97 147.82 107.15 C 146.84 107.32 146.19 108.25 146.37 109.23 Z M 146.55 110.26 L 146.75 111.27 C 146.93 112.24 147.88 112.88 148.85 112.69 C 149.83 112.50 150.46 111.56 150.27 110.58 L 150.08 109.57 C 149.89 108.60 148.94 107.96 147.97 108.15 C 147.00 108.34 146.36 109.28 146.55 110.26 Z M 146.75 111.28 L 146.94 112.27 C 147.14 113.24 148.09 113.87 149.07 113.67 C 150.04 113.48 150.67 112.53 150.47 111.55 L 150.27 110.57 C 150.08 109.59 149.13 108.96 148.15 109.16 C 147.18 109.36 146.55 110.31 146.75 111.28 Z M 146.94 112.27 L 147.15 113.28 C 147.34 114.25 148.30 114.88 149.27 114.69 C 150.25 114.49 150.88 113.54 150.68 112.56 L 150.48 111.55 C 150.28 110.58 149.33 109.95 148.35 110.14 C 147.38 110.34 146.74 111.29 146.94 112.27 Z M 147.14 113.27 L 147.34 114.27 C 147.53 115.24 148.48 115.88 149.46 115.68 C 150.44 115.49 151.07 114.54 150.88 113.56 L 150.68 112.57 C 150.49 111.59 149.54 110.96 148.56 111.15 C 147.58 111.34 146.95 112.29 147.14 113.27 Z M 147.34 114.26 L 147.52 115.21 C 147.71 116.19 148.66 116.83 149.64 116.64 C 150.62 116.45 151.26 115.50 151.07 114.53 L 150.88 113.57 C 150.69 112.59 149.75 111.95 148.77 112.14 C 147.79 112.33 147.15 113.28 147.34 114.26 Z M 147.52 115.21 L 147.70 116.16 C 147.89 117.14 148.84 117.79 149.82 117.60 C 150.80 117.41 151.44 116.46 151.25 115.48 L 151.07 114.53 C 150.88 113.55 149.94 112.91 148.96 113.10 C 147.98 113.28 147.33 114.23 147.52 115.21 Z M 147.70 116.16 L 147.88 117.09 C 148.06 118.07 149.01 118.71 149.99 118.53 C 150.97 118.34 151.62 117.40 151.43 116.42 L 151.25 115.49 C 151.07 114.51 150.12 113.86 149.14 114.05 C 148.16 114.23 147.52 115.18 147.70 116.16 Z M 147.88 117.08 L 148.05 118.03 C 148.24 119.01 149.18 119.65 150.16 119.47 C 151.14 119.29 151.79 118.34 151.61 117.36 L 151.43 116.42 C 151.25 115.44 150.30 114.79 149.32 114.97 C 148.34 115.16 147.69 116.10 147.88 117.08 Z M 148.05 118.02 L 148.23 119.00 C 148.41 119.99 149.35 120.64 150.34 120.46 C 151.32 120.28 151.97 119.33 151.79 118.35 L 151.61 117.37 C 151.43 116.38 150.49 115.73 149.50 115.91 C 148.52 116.09 147.87 117.04 148.05 118.02 Z M 148.23 119.00 L 148.41 120.02 C 148.59 121.01 149.53 121.66 150.51 121.49 C 151.50 121.31 152.15 120.37 151.98 119.39 L 151.79 118.36 C 151.62 117.38 150.68 116.72 149.69 116.90 C 148.71 117.07 148.05 118.01 148.23 119.00 Z M 148.41 120.01 L 148.59 121.03 C 148.76 122.02 149.69 122.68 150.68 122.51 C 151.66 122.34 152.32 121.40 152.15 120.42 L 151.98 119.40 C 151.81 118.41 150.87 117.75 149.89 117.92 C 148.90 118.09 148.24 119.03 148.41 120.01 Z M 148.58 121.02 L 148.74 121.98 C 148.91 122.97 149.84 123.63 150.83 123.47 C 151.81 123.30 152.48 122.37 152.32 121.38 L 152.16 120.43 C 151.99 119.44 151.06 118.77 150.07 118.94 C 149.09 119.10 148.42 120.04 148.58 121.02 Z M 148.74 121.97 L 148.90 122.96 C 149.06 123.94 149.99 124.61 150.98 124.45 C 151.97 124.29 152.64 123.36 152.48 122.37 L 152.32 121.39 C 152.16 120.40 151.23 119.73 150.24 119.89 C 149.25 120.06 148.58 120.99 148.74 121.97 Z M 148.90 122.95 L 149.06 123.95 C 149.22 124.94 150.15 125.61 151.14 125.45 C 152.12 125.29 152.80 124.36 152.64 123.38 L 152.48 122.38 C 152.32 121.39 151.39 120.72 150.40 120.88 C 149.42 121.03 148.74 121.96 148.90 122.95 Z M 149.06 123.95 L 149.22 124.96 C 149.38 125.94 150.31 126.62 151.29 126.46 C 152.28 126.30 152.96 125.38 152.80 124.39 L 152.64 123.38 C 152.48 122.39 151.55 121.72 150.57 121.87 C 149.58 122.03 148.90 122.96 149.06 123.95 Z M 149.22 124.95 L 149.38 125.95 C 149.53 126.94 150.46 127.62 151.45 127.46 C 152.44 127.30 153.11 126.38 152.96 125.39 L 152.80 124.39 C 152.64 123.40 151.72 122.73 150.73 122.88 C 149.74 123.04 149.06 123.97 149.22 124.95 Z M 149.38 125.95 L 149.53 126.93 C 149.69 127.92 150.61 128.59 151.60 128.44 C 152.59 128.28 153.27 127.36 153.11 126.37 L 152.96 125.39 C 152.80 124.40 151.87 123.73 150.89 123.88 C 149.90 124.04 149.22 124.96 149.38 125.95 Z M 149.53 126.93 L 149.68 127.91 C 149.84 128.90 150.76 129.57 151.75 129.42 C 152.74 129.27 153.42 128.34 153.26 127.35 L 153.11 126.37 C 152.96 125.38 152.03 124.70 151.04 124.86 C 150.05 125.01 149.38 125.94 149.53 126.93 Z M 149.68 127.90 L 149.83 128.89 C 149.98 129.88 150.91 130.56 151.90 130.41 C 152.88 130.26 153.57 129.34 153.42 128.35 L 153.27 127.36 C 153.11 126.37 152.19 125.69 151.20 125.84 C 150.21 125.99 149.53 126.91 149.68 127.90 Z M 149.83 128.88 L 149.98 129.88 C 150.12 130.87 151.04 131.55 152.03 131.41 C 153.02 131.26 153.71 130.34 153.56 129.35 L 153.42 128.35 C 153.27 127.36 152.35 126.68 151.36 126.82 C 150.37 126.97 149.68 127.89 149.83 128.88 Z M 149.98 129.87 L 150.12 130.87 C 150.26 131.86 151.17 132.55 152.16 132.41 C 153.16 132.27 153.85 131.35 153.71 130.36 L 153.56 129.36 C 153.43 128.37 152.51 127.68 151.52 127.82 C 150.53 127.96 149.84 128.88 149.98 129.87 Z M 150.11 130.85 L 150.24 131.82 C 150.38 132.81 151.29 133.50 152.28 133.37 C 153.28 133.24 153.97 132.32 153.84 131.33 L 153.71 130.37 C 153.57 129.38 152.66 128.68 151.67 128.82 C 150.68 128.95 149.98 129.86 150.11 130.85 Z M 150.24 131.81 L 150.37 132.78 C 150.50 133.78 151.41 134.48 152.40 134.35 C 153.40 134.22 154.10 133.31 153.97 132.31 L 153.84 131.34 C 153.71 130.35 152.80 129.65 151.81 129.78 C 150.81 129.91 150.11 130.82 150.24 131.81 Z M 150.37 132.78 L 150.50 133.77 C 150.62 134.76 151.53 135.46 152.52 135.34 C 153.52 135.21 154.22 134.30 154.09 133.31 L 153.97 132.32 C 153.84 131.33 152.93 130.62 151.94 130.75 C 150.95 130.88 150.24 131.79 150.37 132.78 Z M 150.50 133.77 L 150.62 134.77 C 150.75 135.77 151.66 136.47 152.65 136.34 C 153.64 136.22 154.35 135.31 154.22 134.32 L 154.09 133.31 C 153.97 132.32 153.06 131.61 152.07 131.74 C 151.07 131.87 150.37 132.77 150.50 133.77 Z M 150.62 134.77 L 150.75 135.79 C 150.88 136.79 151.79 137.49 152.78 137.37 C 153.77 137.24 154.48 136.33 154.35 135.34 L 154.22 134.32 C 154.09 133.32 153.19 132.62 152.19 132.75 C 151.20 132.87 150.50 133.78 150.62 134.77 Z M 150.75 135.80 L 150.88 136.77 C 151.00 137.76 151.91 138.46 152.91 138.34 C 153.90 138.21 154.60 137.30 154.47 136.31 L 154.35 135.34 C 154.22 134.34 153.31 133.64 152.32 133.77 C 151.33 133.90 150.63 134.80 150.75 135.80 Z M 150.88 136.77 L 151.00 137.73 C 151.13 138.72 152.04 139.42 153.03 139.30 C 154.03 139.17 154.73 138.26 154.60 137.26 L 154.47 136.31 C 154.35 135.31 153.44 134.61 152.44 134.74 C 151.45 134.87 150.75 135.78 150.88 136.77 Z M 151.00 137.73 L 151.13 138.71 C 151.26 139.70 152.17 140.40 153.16 140.27 C 154.15 140.14 154.85 139.23 154.73 138.24 L 154.60 137.26 C 154.47 136.27 153.56 135.57 152.57 135.70 C 151.57 135.83 150.87 136.74 151.00 137.73 Z M 151.13 138.71 L 151.26 139.70 C 151.39 140.69 152.30 141.39 153.29 141.27 C 154.28 141.14 154.98 140.23 154.85 139.23 L 154.73 138.24 C 154.60 137.25 153.69 136.55 152.69 136.67 C 151.70 136.80 151.00 137.71 151.13 138.71 Z M 151.26 139.70 L 151.39 140.71 C 151.51 141.70 152.42 142.41 153.42 142.28 C 154.41 142.15 155.11 141.24 154.99 140.25 L 154.86 139.23 C 154.73 138.24 153.82 137.54 152.82 137.67 C 151.83 137.79 151.13 138.70 151.26 139.70 Z M 151.39 140.71 L 151.52 141.74 C 151.64 142.73 152.55 143.44 153.55 143.31 C 154.54 143.18 155.24 142.28 155.12 141.28 L 154.99 140.25 C 154.86 139.26 153.95 138.55 152.96 138.68 C 151.96 138.80 151.26 139.71 151.39 140.71 Z M 151.52 141.74 L 151.64 142.72 C 151.76 143.71 152.67 144.42 153.66 144.29 C 154.66 144.17 155.36 143.26 155.24 142.27 L 155.12 141.29 C 154.99 140.29 154.09 139.59 153.09 139.71 C 152.10 139.83 151.39 140.74 151.52 141.74 Z M 151.64 142.71 L 151.75 143.67 C 151.88 144.66 152.78 145.37 153.78 145.25 C 154.77 145.13 155.48 144.22 155.36 143.23 L 155.24 142.27 C 155.12 141.27 154.21 140.57 153.22 140.69 C 152.22 140.81 151.51 141.72 151.64 142.71 Z M 151.75 143.66 L 151.87 144.64 C 151.99 145.63 152.89 146.34 153.89 146.22 C 154.89 146.10 155.60 145.20 155.48 144.20 L 155.36 143.23 C 155.24 142.24 154.33 141.53 153.34 141.64 C 152.34 141.76 151.63 142.67 151.75 143.66 Z M 151.87 144.64 L 151.99 145.62 C 152.10 146.62 153.01 147.33 154.00 147.22 C 155.00 147.10 155.71 146.19 155.59 145.20 L 155.48 144.21 C 155.36 143.21 154.46 142.50 153.46 142.62 C 152.46 142.74 151.75 143.64 151.87 144.64 Z M 151.99 145.62 L 152.10 146.63 C 152.22 147.62 153.12 148.34 154.12 148.22 C 155.11 148.11 155.83 147.20 155.71 146.21 L 155.59 145.20 C 155.48 144.20 154.58 143.49 153.58 143.61 C 152.58 143.72 151.87 144.63 151.99 145.62 Z M 152.10 146.62 L 152.22 147.65 C 152.33 148.64 153.24 149.36 154.23 149.24 C 155.23 149.13 155.94 148.23 155.83 147.23 L 155.71 146.21 C 155.60 145.21 154.70 144.50 153.70 144.61 C 152.70 144.73 151.99 145.63 152.10 146.62 Z M 152.22 147.64 L 152.34 148.68 C 152.45 149.68 153.35 150.39 154.35 150.28 C 155.34 150.17 156.06 149.27 155.95 148.27 L 155.83 147.23 C 155.72 146.24 154.82 145.52 153.82 145.63 C 152.82 145.75 152.11 146.65 152.22 147.64 Z M 152.34 148.68 L 152.44 149.63 C 152.55 150.63 153.45 151.35 154.45 151.24 C 155.45 151.12 156.17 150.23 156.05 149.23 L 155.95 148.27 C 155.84 147.27 154.94 146.56 153.94 146.67 C 152.94 146.78 152.22 147.68 152.34 148.68 Z M 152.44 149.63 L 152.55 150.58 C 152.66 151.58 153.56 152.30 154.55 152.19 C 155.55 152.08 156.27 151.18 156.16 150.18 L 156.06 149.23 C 155.95 148.23 155.05 147.51 154.05 147.62 C 153.05 147.73 152.33 148.63 152.44 149.63 Z M 152.55 150.58 L 152.65 151.55 C 152.76 152.55 153.66 153.27 154.66 153.16 C 155.66 153.05 156.38 152.15 156.27 151.15 L 156.16 150.19 C 156.05 149.19 155.15 148.47 154.16 148.58 C 153.16 148.68 152.44 149.58 152.55 150.58 Z M 152.65 151.55 L 152.76 152.53 C 152.87 153.53 153.76 154.25 154.76 154.14 C 155.76 154.03 156.48 153.14 156.37 152.14 L 156.27 151.15 C 156.16 150.16 155.26 149.43 154.26 149.54 C 153.27 149.65 152.54 150.55 152.65 151.55 Z M 152.76 152.53 L 152.87 153.53 C 152.97 154.53 153.87 155.25 154.87 155.14 C 155.87 155.03 156.59 154.14 156.48 153.14 L 156.37 152.14 C 156.27 151.14 155.37 150.42 154.37 150.53 C 153.37 150.63 152.65 151.53 152.76 152.53 Z M 152.87 153.53 L 152.98 154.55 C 153.08 155.55 153.98 156.27 154.98 156.16 C 155.98 156.05 156.70 155.16 156.59 154.16 L 156.48 153.14 C 156.38 152.14 155.48 151.42 154.48 151.53 C 153.48 151.63 152.76 152.53 152.87 153.53 Z M 152.97 154.55 L 153.09 155.59 C 153.19 156.59 154.09 157.31 155.09 157.20 C 156.09 157.10 156.81 156.20 156.70 155.20 L 156.59 154.16 C 156.49 153.16 155.59 152.44 154.59 152.54 C 153.59 152.65 152.87 153.55 152.97 154.55 Z M 153.09 155.59 L 153.20 156.62 C 153.30 157.62 154.20 158.34 155.20 158.24 C 156.20 158.13 156.92 157.23 156.81 156.23 L 156.70 155.20 C 156.60 154.20 155.70 153.48 154.70 153.58 C 153.70 153.69 152.98 154.59 153.09 155.59 Z M 153.20 156.62 L 153.30 157.59 C 153.41 158.59 154.30 159.32 155.30 159.21 C 156.30 159.10 157.02 158.21 156.92 157.21 L 156.81 156.23 C 156.71 155.23 155.81 154.51 154.81 154.62 C 153.81 154.72 153.09 155.62 153.20 156.62 Z M 153.30 157.59 L 153.40 158.58 C 153.51 159.58 154.40 160.30 155.40 160.20 C 156.40 160.09 157.13 159.20 157.02 158.20 L 156.92 157.21 C 156.81 156.21 155.92 155.49 154.92 155.59 C 153.92 155.70 153.19 156.59 153.30 157.59 Z M 153.40 158.58 L 153.51 159.57 C 153.61 160.57 154.51 161.30 155.51 161.20 C 156.50 161.09 157.23 160.20 157.13 159.20 L 157.02 158.20 C 156.92 157.20 156.02 156.47 155.02 156.58 C 154.02 156.68 153.30 157.58 153.40 158.58 Z M 153.51 159.57 L 153.61 160.58 C 153.71 161.58 154.61 162.30 155.61 162.20 C 156.61 162.10 157.33 161.20 157.23 160.20 L 157.13 159.20 C 157.02 158.20 156.13 157.47 155.13 157.58 C 154.13 157.68 153.40 158.57 153.51 159.57 Z M 153.61 160.57 L 153.71 161.58 C 153.81 162.58 154.70 163.31 155.70 163.21 C 156.70 163.11 157.43 162.22 157.33 161.22 L 157.23 160.21 C 157.13 159.21 156.24 158.48 155.24 158.58 C 154.24 158.68 153.51 159.57 153.61 160.57 Z M 153.71 161.57 L 153.81 162.58 C 153.90 163.58 154.80 164.31 155.80 164.22 C 156.80 164.12 157.53 163.23 157.43 162.23 L 157.33 161.22 C 157.23 160.22 156.34 159.49 155.34 159.59 C 154.34 159.68 153.61 160.57 153.71 161.57 Z M 153.81 162.57 L 153.90 163.58 C 154.00 164.58 154.88 165.31 155.89 165.22 C 156.89 165.12 157.62 164.23 157.53 163.23 L 157.43 162.23 C 157.34 161.23 156.45 160.50 155.45 160.59 C 154.45 160.69 153.71 161.57 153.81 162.57 Z M 153.90 163.57 L 153.99 164.56 C 154.08 165.56 154.97 166.30 155.97 166.21 C 156.97 166.12 157.71 165.23 157.62 164.23 L 157.53 163.24 C 157.44 162.24 156.55 161.50 155.55 161.59 C 154.55 161.68 153.81 162.57 153.90 163.57 Z M 153.99 164.55 L 154.08 165.58 C 154.16 166.58 155.05 167.33 156.05 167.24 C 157.05 167.15 157.79 166.27 157.71 165.27 L 157.62 164.24 C 157.53 163.24 156.65 162.49 155.65 162.58 C 154.64 162.67 153.90 163.55 153.99 164.55 Z M 154.08 165.57 L 154.16 166.60 C 154.24 167.60 155.12 168.34 156.13 168.26 C 157.13 168.18 157.87 167.30 157.79 166.30 L 157.71 165.28 C 157.63 164.27 156.75 163.53 155.74 163.61 C 154.74 163.69 153.99 164.57 154.08 165.57 Z M 154.16 166.59 L 154.24 167.60 C 154.32 168.60 155.19 169.35 156.20 169.27 C 157.20 169.20 157.95 168.32 157.87 167.32 L 157.79 166.30 C 157.71 165.30 156.84 164.55 155.83 164.63 C 154.83 164.71 154.08 165.59 154.16 166.59 Z M 154.24 167.59 L 154.31 168.59 C 154.39 169.60 155.26 170.35 156.27 170.27 C 157.27 170.20 158.02 169.32 157.95 168.32 L 157.87 167.32 C 157.80 166.32 156.92 165.57 155.92 165.64 C 154.92 165.72 154.16 166.59 154.24 167.59 Z M 154.31 168.59 L 154.39 169.58 C 154.46 170.58 155.33 171.34 156.33 171.27 C 157.34 171.19 158.09 170.32 158.02 169.32 L 157.95 168.33 C 157.87 167.32 157.00 166.57 156.00 166.64 C 155.00 166.71 154.24 167.59 154.31 168.59 Z M 154.39 169.58 L 154.45 170.56 C 154.53 171.56 155.40 172.32 156.40 172.25 C 157.40 172.18 158.16 171.31 158.09 170.30 L 158.02 169.32 C 157.95 168.32 157.08 167.56 156.07 167.63 C 155.07 167.70 154.31 168.57 154.39 169.58 Z M 154.45 170.56 L 154.52 171.53 C 154.59 172.54 155.46 173.29 156.47 173.22 C 157.47 173.15 158.23 172.28 158.16 171.28 L 158.09 170.30 C 158.02 169.30 157.15 168.54 156.15 168.61 C 155.14 168.68 154.38 169.55 154.45 170.56 Z M 154.52 171.53 L 154.59 172.50 C 154.66 173.50 155.53 174.26 156.53 174.19 C 157.54 174.12 158.29 173.25 158.22 172.25 L 158.16 171.28 C 158.09 170.28 157.22 169.52 156.21 169.59 C 155.21 169.66 154.45 170.53 154.52 171.53 Z M 154.59 172.50 L 154.66 173.51 C 154.73 174.52 155.60 175.27 156.60 175.21 C 157.61 175.14 158.36 174.27 158.29 173.26 L 158.22 172.25 C 158.15 171.25 157.28 170.49 156.28 170.56 C 155.28 170.63 154.52 171.50 154.59 172.50 Z M 154.66 173.51 L 154.73 174.53 C 154.80 175.53 155.67 176.29 156.67 176.22 C 157.68 176.15 158.43 175.28 158.36 174.28 L 158.29 173.26 C 158.22 172.26 157.35 171.50 156.35 171.57 C 155.35 171.64 154.59 172.51 154.66 173.51 Z M 154.73 174.53 L 154.80 175.54 C 154.87 176.54 155.74 177.30 156.74 177.23 C 157.75 177.16 158.50 176.29 158.43 175.28 L 158.36 174.27 C 158.29 173.27 157.42 172.51 156.42 172.58 C 155.42 172.65 154.66 173.53 154.73 174.53 Z M 154.80 175.54 L 154.87 176.54 C 154.94 177.54 155.81 178.30 156.82 178.23 C 157.82 178.16 158.58 177.29 158.50 176.28 L 158.43 175.28 C 158.36 174.28 157.49 173.52 156.49 173.59 C 155.49 173.66 154.73 174.53 154.80 175.54 Z M 154.87 176.54 L 154.94 177.53 C 155.01 178.54 155.88 179.29 156.89 179.22 C 157.89 179.15 158.65 178.28 158.58 177.28 L 158.50 176.28 C 158.43 175.28 157.56 174.52 156.56 174.59 C 155.56 174.67 154.80 175.54 154.87 176.54 Z M 154.94 177.54 L 155.01 178.52 C 155.08 179.53 155.95 180.28 156.96 180.21 C 157.96 180.14 158.72 179.27 158.65 178.26 L 158.58 177.28 C 158.50 176.27 157.63 175.52 156.63 175.59 C 155.62 175.66 154.87 176.53 154.94 177.54 Z M 155.01 178.52 L 155.08 179.50 C 155.15 180.51 156.03 181.26 157.03 181.19 C 158.03 181.12 158.79 180.24 158.72 179.24 L 158.65 178.26 C 158.57 177.26 157.70 176.50 156.70 176.58 C 155.69 176.65 154.94 177.52 155.01 178.52 Z M 155.08 179.50 L 155.15 180.50 C 155.23 181.50 156.10 182.25 157.10 182.18 C 158.11 182.11 158.86 181.24 158.79 180.23 L 158.72 179.24 C 158.64 178.24 157.77 177.48 156.77 177.55 C 155.76 177.63 155.01 178.50 155.08 179.50 Z M 155.15 180.50 L 155.23 181.52 C 155.30 182.53 156.17 183.28 157.18 183.21 C 158.18 183.13 158.94 182.26 158.86 181.26 L 158.79 180.23 C 158.71 179.23 157.84 178.47 156.84 178.55 C 155.83 178.62 155.08 179.49 155.15 180.50 Z M 155.23 181.52 L 155.30 182.54 C 155.38 183.54 156.25 184.30 157.25 184.22 C 158.26 184.15 159.01 183.28 158.94 182.27 L 158.86 181.26 C 158.79 180.25 157.92 179.50 156.91 179.57 C 155.91 179.65 155.16 180.52 155.23 181.52 Z M 155.30 182.54 L 155.38 183.54 C 155.45 184.54 156.32 185.30 157.32 185.23 C 158.33 185.16 159.08 184.28 159.01 183.28 L 158.94 182.28 C 158.86 181.27 157.99 180.52 156.99 180.59 C 155.99 180.66 155.23 181.53 155.30 182.54 Z M 155.38 183.54 L 155.44 184.53 C 155.51 185.54 156.39 186.29 157.39 186.22 C 158.39 186.15 159.15 185.28 159.08 184.28 L 159.01 183.28 C 158.94 182.28 158.07 181.52 157.06 181.59 C 156.06 181.66 155.30 182.53 155.38 183.54 Z M 155.44 184.53 L 155.51 185.51 C 155.58 186.51 156.45 187.27 157.45 187.21 C 158.45 187.14 159.21 186.27 159.14 185.27 L 159.08 184.28 C 159.01 183.28 158.14 182.52 157.14 182.59 C 156.14 182.66 155.38 183.52 155.44 184.53 Z M 155.51 185.50 L 155.57 186.48 C 155.64 187.48 156.50 188.24 157.51 188.18 C 158.51 188.11 159.27 187.25 159.21 186.24 L 159.14 185.27 C 159.08 184.27 158.21 183.51 157.21 183.57 C 156.21 183.64 155.45 184.50 155.51 185.50 Z M 155.57 186.47 L 155.63 187.46 C 155.69 188.46 156.55 189.22 157.56 189.16 C 158.56 189.10 159.33 188.24 159.27 187.24 L 159.21 186.25 C 159.15 185.25 158.29 184.48 157.28 184.54 C 156.28 184.60 155.51 185.47 155.57 186.47 Z M 155.63 187.45 L 155.69 188.48 C 155.74 189.48 156.60 190.25 157.60 190.19 C 158.61 190.14 159.38 189.28 159.32 188.28 L 159.27 187.25 C 159.21 186.24 158.35 185.48 157.35 185.53 C 156.35 185.58 155.58 186.44 155.63 187.45 Z M 155.69 188.47 L 155.74 189.48 C 155.79 190.49 156.64 191.26 157.65 191.21 C 158.65 191.16 159.42 190.31 159.37 189.30 L 159.32 188.29 C 159.27 187.28 158.42 186.51 157.41 186.56 C 156.41 186.61 155.64 187.46 155.69 188.47 Z M 155.74 189.48 L 155.78 190.48 C 155.83 191.48 156.68 192.26 157.68 192.22 C 158.69 192.17 159.46 191.32 159.42 190.32 L 159.37 189.31 C 159.33 188.31 158.48 187.53 157.47 187.58 C 156.47 187.62 155.69 188.47 155.74 189.48 Z M 155.78 190.47 L 155.82 191.47 C 155.87 192.47 156.71 193.25 157.72 193.21 C 158.72 193.17 159.50 192.32 159.46 191.32 L 159.42 190.32 C 159.38 189.32 158.53 188.54 157.53 188.58 C 156.52 188.62 155.74 189.47 155.78 190.47 Z M 155.82 191.46 L 155.86 192.44 C 155.90 193.44 156.74 194.23 157.75 194.19 C 158.75 194.15 159.53 193.31 159.50 192.30 L 159.46 191.32 C 159.42 190.32 158.58 189.54 157.57 189.57 C 156.57 189.61 155.79 190.46 155.82 191.46 Z M 155.86 192.43 L 155.89 193.40 C 155.93 194.40 156.77 195.19 157.77 195.15 C 158.78 195.12 159.56 194.28 159.53 193.28 L 159.50 192.31 C 159.46 191.31 158.62 190.52 157.62 190.55 C 156.61 190.59 155.83 191.43 155.86 192.43 Z M 155.90 193.39 L 155.93 194.40 C 155.96 195.40 156.80 196.19 157.80 196.16 C 158.80 196.13 159.59 195.29 159.56 194.29 L 159.53 193.28 C 159.50 192.28 158.66 191.49 157.66 191.52 C 156.65 191.55 155.86 192.39 155.90 193.39 Z M 155.93 194.40 L 155.96 195.41 C 155.98 196.41 156.82 197.20 157.82 197.17 C 158.83 197.14 159.61 196.31 159.59 195.30 L 159.56 194.29 C 159.53 193.29 158.69 192.50 157.69 192.53 C 156.69 192.56 155.90 193.39 155.93 194.40 Z M 155.96 195.40 L 155.98 196.40 C 156.01 197.40 156.84 198.19 157.84 198.17 C 158.85 198.14 159.64 197.31 159.61 196.31 L 159.59 195.31 C 159.56 194.31 158.73 193.51 157.72 193.54 C 156.72 193.57 155.93 194.40 155.96 195.40 Z M 155.99 196.40 L 156.01 197.39 C 156.03 198.39 156.86 199.18 157.87 199.16 C 158.87 199.14 159.66 198.31 159.63 197.30 L 159.61 196.31 C 159.59 195.31 158.75 194.52 157.75 194.54 C 156.75 194.57 155.96 195.40 155.99 196.40 Z M 156.01 197.39 L 156.03 198.38 C 156.06 199.38 156.89 200.17 157.89 200.15 C 158.89 200.13 159.68 199.30 159.66 198.30 L 159.63 197.31 C 159.61 196.31 158.78 195.51 157.78 195.54 C 156.78 195.56 155.99 196.39 156.01 197.39 Z M 156.03 198.38 L 156.06 199.37 C 156.08 200.37 156.91 201.16 157.91 201.14 C 158.91 201.12 159.70 200.29 159.68 199.29 L 159.65 198.30 C 159.63 197.30 158.80 196.51 157.80 196.53 C 156.80 196.55 156.01 197.38 156.03 198.38 Z M 156.06 199.37 L 156.08 200.40 C 156.10 201.40 156.93 202.19 157.93 202.17 C 158.93 202.15 159.72 201.32 159.70 200.32 L 159.67 199.29 C 159.65 198.29 158.82 197.50 157.83 197.52 C 156.83 197.54 156.04 198.37 156.06 199.37 Z M 156.08 200.40 L 156.11 201.44 C 156.13 202.44 156.95 203.23 157.95 203.21 C 158.95 203.19 159.74 202.36 159.72 201.36 L 159.69 200.32 C 159.67 199.32 158.85 198.53 157.85 198.56 C 156.85 198.58 156.06 199.40 156.08 200.40 Z M 156.11 201.44 L 156.13 202.47 C 156.15 203.46 156.97 204.25 157.97 204.23 C 158.96 204.21 159.75 203.39 159.73 202.39 L 159.71 201.37 C 159.69 200.37 158.87 199.58 157.87 199.60 C 156.88 199.62 156.09 200.44 156.11 201.44 Z M 156.13 202.47 L 156.15 203.47 C 156.17 204.46 156.99 205.25 157.99 205.24 C 158.98 205.22 159.77 204.40 159.75 203.40 L 159.73 202.40 C 159.71 201.40 158.89 200.61 157.90 200.63 C 156.90 200.65 156.11 201.47 156.13 202.47 Z M 156.16 203.47 L 156.17 204.44 C 156.19 205.43 157.01 206.22 158.00 206.20 C 158.99 206.19 159.78 205.37 159.76 204.38 L 159.75 203.41 C 159.73 202.41 158.91 201.62 157.92 201.64 C 156.93 201.66 156.14 202.48 156.16 203.47 Z M 156.18 204.43 L 156.19 205.36 C 156.20 206.35 157.02 207.14 158.01 207.13 C 159.00 207.11 159.79 206.30 159.78 205.31 L 159.76 204.38 C 159.75 203.39 158.93 202.60 157.94 202.61 C 156.95 202.63 156.16 203.44 156.18 204.43 Z M 156.19 205.35 L 156.20 206.45 C 156.22 207.43 157.03 208.23 158.01 208.22 C 159.00 208.21 159.79 207.40 159.78 206.41 L 159.77 205.31 C 159.76 204.32 158.95 203.53 157.96 203.54 C 156.97 203.55 156.18 204.36 156.19 205.35 Z M 156.21 206.44 L 156.22 207.47 C 156.22 208.46 157.03 209.25 158.01 209.25 C 159.00 209.24 159.79 208.43 159.79 207.45 L 159.78 206.41 C 159.77 205.43 158.97 204.64 157.98 204.64 C 157.00 204.65 156.20 205.45 156.21 206.44 Z M 156.22 207.47 L 156.22 208.44 C 156.23 209.43 157.03 210.22 158.01 210.22 C 158.99 210.21 159.79 209.41 159.78 208.43 L 159.78 207.45 C 159.78 206.47 158.98 205.68 158.00 205.68 C 157.01 205.68 156.22 206.48 156.22 207.47 Z M 156.23 208.44 L 156.23 209.38 C 156.23 210.36 157.03 211.15 158.01 211.15 C 158.99 211.15 159.78 210.35 159.78 209.37 L 159.78 208.44 C 159.78 207.46 158.98 206.66 158.00 206.66 C 157.02 206.66 156.23 207.46 156.23 208.44 Z M 156.24 209.37 L 156.24 210.29 C 156.23 211.27 157.03 212.06 158.00 212.06 C 158.98 212.06 159.78 211.27 159.78 210.29 L 159.78 209.37 C 159.78 208.40 158.98 207.60 158.01 207.60 C 157.03 207.60 156.24 208.40 156.24 209.37 Z M 156.24 210.28 L 156.24 211.22 C 156.23 212.19 157.02 212.98 157.99 212.99 C 158.96 213.00 159.76 212.21 159.76 211.24 L 159.77 210.30 C 159.78 209.33 158.99 208.54 158.01 208.53 C 157.04 208.52 156.25 209.31 156.24 210.28 Z M 156.24 211.19 L 156.22 212.15 C 156.20 213.12 156.97 213.92 157.94 213.95 C 158.91 213.97 159.72 213.20 159.74 212.22 L 159.76 211.26 C 159.78 210.29 159.01 209.49 158.04 209.47 C 157.07 209.45 156.26 210.22 156.24 211.19 Z M 156.23 212.11 L 156.18 213.13 C 156.14 214.10 156.89 214.92 157.85 214.96 C 158.82 215.00 159.64 214.26 159.69 213.29 L 159.73 212.27 C 159.78 211.30 159.03 210.48 158.06 210.43 C 157.09 210.39 156.27 211.14 156.23 212.11 Z M 156.19 213.08 L 156.11 214.19 C 156.04 215.15 156.76 215.99 157.72 216.06 C 158.68 216.14 159.52 215.41 159.59 214.45 L 159.68 213.34 C 159.75 212.38 159.03 211.54 158.06 211.47 C 157.10 211.39 156.26 212.12 156.19 213.08 Z M 156.12 214.14 L 156.02 215.07 C 155.92 216.03 156.62 216.88 157.58 216.98 C 158.54 217.08 159.39 216.38 159.49 215.42 L 159.58 214.50 C 159.68 213.54 158.98 212.68 158.03 212.59 C 157.07 212.49 156.21 213.19 156.12 214.14 Z M 156.03 215.03 L 155.91 216.01 C 155.79 216.96 156.47 217.83 157.42 217.95 C 158.37 218.07 159.24 217.39 159.36 216.44 L 159.48 215.46 C 159.60 214.51 158.92 213.64 157.97 213.52 C 157.02 213.40 156.15 214.08 156.03 215.03 Z M 155.92 215.97 L 155.77 216.98 C 155.63 217.93 156.28 218.81 157.23 218.95 C 158.18 219.09 159.06 218.44 159.20 217.49 L 159.35 216.48 C 159.49 215.53 158.84 214.65 157.89 214.51 C 156.94 214.37 156.06 215.02 155.92 215.97 Z M 155.78 216.94 L 155.60 217.95 C 155.44 218.89 156.07 219.79 157.01 219.96 C 157.95 220.12 158.85 219.49 159.01 218.55 L 159.19 217.53 C 159.35 216.59 158.72 215.69 157.78 215.53 C 156.84 215.36 155.94 215.99 155.78 216.94 Z M 155.61 217.91 L 155.41 218.91 C 155.22 219.85 155.82 220.76 156.76 220.95 C 157.69 221.14 158.60 220.54 158.79 219.60 L 159.00 218.59 C 159.19 217.66 158.59 216.75 157.65 216.56 C 156.72 216.37 155.81 216.97 155.61 217.91 Z M 155.43 218.86 L 155.19 219.86 C 154.96 220.79 155.53 221.72 156.46 221.94 C 157.38 222.16 158.31 221.59 158.54 220.66 L 158.78 219.66 C 159.00 218.73 158.43 217.80 157.50 217.58 C 156.58 217.36 155.65 217.93 155.43 218.86 Z M 155.21 219.79 L 154.91 220.85 C 154.65 221.77 155.18 222.71 156.09 222.97 C 157.00 223.23 157.95 222.71 158.21 221.80 L 158.51 220.73 C 158.77 219.82 158.24 218.87 157.33 218.61 C 156.42 218.35 155.47 218.88 155.21 219.79 Z M 154.94 220.78 L 154.61 221.77 C 154.30 222.66 154.78 223.63 155.67 223.93 C 156.56 224.23 157.53 223.76 157.83 222.87 L 158.17 221.87 C 158.47 220.98 158.00 220.01 157.11 219.71 C 156.21 219.41 155.25 219.89 154.94 220.78 Z M 154.65 221.69 L 154.28 222.60 C 153.93 223.47 154.35 224.46 155.22 224.81 C 156.09 225.16 157.07 224.74 157.42 223.87 L 157.79 222.95 C 158.14 222.08 157.72 221.10 156.85 220.75 C 155.98 220.40 155.00 220.82 154.65 221.69 Z M 154.33 222.51 L 153.93 223.35 C 153.53 224.19 153.89 225.19 154.73 225.59 C 155.57 225.99 156.57 225.64 156.97 224.80 L 157.37 223.96 C 157.77 223.12 157.41 222.12 156.58 221.72 C 155.74 221.32 154.73 221.67 154.33 222.51 Z M 154.00 223.24 L 153.54 224.05 C 153.08 224.85 153.36 225.88 154.16 226.33 C 154.96 226.79 155.98 226.51 156.44 225.71 L 156.90 224.90 C 157.36 224.10 157.08 223.08 156.28 222.62 C 155.48 222.16 154.46 222.44 154.00 223.24 Z M 153.65 223.90 L 153.01 224.79 C 152.47 225.53 152.63 226.56 153.37 227.10 C 154.11 227.64 155.14 227.48 155.68 226.74 L 156.33 225.86 C 156.87 225.12 156.71 224.08 155.97 223.54 C 155.23 223.00 154.19 223.16 153.65 223.90 Z M 153.21 224.58 L 152.50 225.26 C 151.84 225.89 151.82 226.93 152.45 227.58 C 153.08 228.24 154.11 228.26 154.77 227.63 L 155.48 226.95 C 156.13 226.32 156.16 225.28 155.53 224.63 C 154.90 223.97 153.86 223.95 153.21 224.58 Z M 152.82 225.04 L 152.02 225.51 C 151.25 225.96 150.99 226.95 151.44 227.72 C 151.89 228.50 152.88 228.76 153.65 228.31 L 154.45 227.85 C 155.22 227.40 155.49 226.41 155.04 225.63 C 154.59 224.86 153.59 224.59 152.82 225.04 Z M 152.45 225.35 L 151.57 225.57 C 150.71 225.78 150.19 226.65 150.40 227.52 C 150.61 228.38 151.49 228.90 152.35 228.69 L 153.23 228.47 C 154.09 228.25 154.61 227.38 154.40 226.52 C 154.18 225.66 153.31 225.13 152.45 225.35 Z M 151.94 225.53 L 150.99 225.55 C 150.11 225.56 149.40 226.28 149.41 227.16 C 149.42 228.04 150.14 228.74 151.02 228.73 L 151.98 228.72 C 152.86 228.71 153.56 227.99 153.55 227.11 C 153.54 226.23 152.82 225.52 151.94 225.53 Z M 151.20 225.57 L 150.19 225.44 C 149.33 225.33 148.54 225.94 148.42 226.81 C 148.31 227.68 148.93 228.47 149.79 228.58 L 150.80 228.71 C 151.67 228.82 152.46 228.21 152.57 227.34 C 152.68 226.47 152.07 225.68 151.20 225.57 Z M 150.29 225.47 L 149.25 225.27 C 148.40 225.10 147.58 225.66 147.41 226.51 C 147.25 227.36 147.80 228.18 148.65 228.35 L 149.69 228.55 C 150.54 228.71 151.37 228.16 151.53 227.31 C 151.70 226.46 151.14 225.64 150.29 225.47 Z M 149.27 225.28 L 149.17 225.26 C 148.33 225.08 147.50 225.63 147.33 226.47 C 147.15 227.32 147.69 228.14 148.54 228.32 L 148.64 228.34 C 149.48 228.51 150.31 227.97 150.48 227.12 C 150.66 226.28 150.11 225.45 149.27 225.28 Z"
      fill="black"
      fill-rule="nonzero" /></svg>