<svg xmlns="http://www.w3.org/2000/svg" width="300" height="300" viewBox="0 0 300 300">
<path d="M 135.87 98.64 L 136.88 98.71 C 137.83 98.78 138.66 98.05 138.73 97.10 C 138.79 96.14 138.07 95.31 137.11 95.25 L 136.11 95.18 C 135.15 95.11 134.32 95.84 134.26 96.79 C 134.19 97.75 134.92 98.58 135.87 98.64 Z M 136.86 98.71 L 137.87 98.79 C 138.82 98.86 139.65 98.15 139.73 97.19 C 139.80 96.23 139.09 95.40 138.13 95.33 L 137.13 95.25 C 136.17 95.18 135.34 95.89 135.27 96.85 C 135.19 97.80 135.91 98.64 136.86 98.71 Z M 137.83 98.78 L 138.83 98.88 C 139.78 98.97 140.63 98.27 140.72 97.32 C 140.81 96.36 140.11 95.52 139.16 95.42 L 138.16 95.33 C 137.21 95.24 136.36 95.94 136.27 96.89 C 136.18 97.85 136.88 98.69 137.83 98.78 Z M 138.78 98.87 L 139.76 98.99 C 140.71 99.11 141.58 98.43 141.69 97.48 C 141.81 96.53 141.13 95.67 140.18 95.55 L 139.20 95.43 C 138.25 95.31 137.39 95.99 137.27 96.94 C 137.15 97.89 137.83 98.76 138.78 98.87 Z M 139.71 98.97 L 140.69 99.13 C 141.63 99.27 142.51 98.63 142.66 97.69 C 142.80 96.75 142.16 95.87 141.22 95.72 L 140.24 95.57 C 139.30 95.42 138.42 96.07 138.27 97.01 C 138.12 97.95 138.77 98.83 139.71 98.97 Z M 140.65 99.10 L 141.63 99.28 C 142.55 99.44 143.44 98.83 143.61 97.91 C 143.77 96.98 143.16 96.10 142.24 95.93 L 141.26 95.75 C 140.33 95.58 139.45 96.20 139.28 97.12 C 139.11 98.05 139.73 98.93 140.65 99.10 Z M 141.61 99.25 L 142.60 99.44 C 143.51 99.62 144.39 99.02 144.56 98.11 C 144.74 97.20 144.14 96.32 143.23 96.14 L 142.25 95.95 C 141.34 95.78 140.46 96.37 140.28 97.29 C 140.11 98.20 140.70 99.08 141.61 99.25 Z M 142.60 99.42 L 143.60 99.61 C 144.50 99.78 145.37 99.19 145.54 98.29 C 145.71 97.39 145.12 96.52 144.22 96.35 L 143.22 96.16 C 142.32 95.99 141.46 96.58 141.29 97.48 C 141.11 98.38 141.71 99.25 142.60 99.42 Z M 143.62 99.59 L 144.61 99.77 C 145.50 99.93 146.35 99.34 146.51 98.45 C 146.67 97.56 146.08 96.71 145.19 96.55 L 144.20 96.37 C 143.31 96.21 142.46 96.80 142.30 97.69 C 142.14 98.58 142.73 99.43 143.62 99.59 Z M 144.61 99.75 L 145.60 99.93 C 146.48 100.09 147.32 99.51 147.48 98.63 C 147.64 97.75 147.06 96.91 146.18 96.75 L 145.18 96.57 C 144.31 96.41 143.47 96.99 143.31 97.87 C 143.15 98.75 143.73 99.59 144.61 99.75 Z M 145.59 99.91 L 146.57 100.10 C 147.44 100.26 148.27 99.70 148.44 98.83 C 148.61 97.97 148.04 97.13 147.18 96.96 L 146.19 96.77 C 145.33 96.60 144.49 97.17 144.32 98.04 C 144.16 98.90 144.72 99.74 145.59 99.91 Z M 146.54 100.07 L 147.51 100.28 C 148.36 100.46 149.20 99.92 149.38 99.07 C 149.57 98.22 149.03 97.38 148.18 97.20 L 147.21 96.99 C 146.36 96.80 145.52 97.34 145.33 98.19 C 145.15 99.04 145.69 99.88 146.54 100.07 Z M 147.46 100.26 L 148.45 100.51 C 149.29 100.72 150.14 100.21 150.36 99.37 C 150.57 98.53 150.06 97.68 149.22 97.47 L 148.23 97.22 C 147.39 97.01 146.53 97.52 146.32 98.36 C 146.11 99.20 146.62 100.05 147.46 100.26 Z M 148.41 100.50 L 149.37 100.77 C 150.21 101.00 151.07 100.52 151.30 99.68 C 151.54 98.85 151.05 97.99 150.22 97.75 L 149.26 97.48 C 148.43 97.25 147.56 97.73 147.33 98.57 C 147.10 99.40 147.58 100.26 148.41 100.50 Z M 149.35 100.76 L 150.29 101.04 C 151.11 101.29 151.99 100.82 152.23 99.99 C 152.48 99.17 152.01 98.29 151.19 98.05 L 150.25 97.76 C 149.42 97.51 148.55 97.98 148.30 98.81 C 148.05 99.64 148.52 100.51 149.35 100.76 Z M 150.28 101.03 L 150.78 101.19 C 151.61 101.44 152.48 100.98 152.73 100.16 C 152.99 99.33 152.52 98.46 151.70 98.20 L 151.20 98.05 C 150.37 97.80 149.50 98.26 149.25 99.08 C 148.99 99.91 149.46 100.78 150.28 101.03 Z"
      fill="black"
      fill-rule="nonzero" /><path d="M 122.49 111.93 L 121.84 112.96 C 121.34 113.75 121.58 114.80 122.37 115.30 C 123.16 115.79 124.21 115.56 124.70 114.76 L 125.35 113.73 C 125.85 112.94 125.62 111.90 124.82 111.40 C 124.03 110.90 122.99 111.14 122.49 111.93 Z M 121.73 113.14 L 121.29 114.07 C 120.88 114.93 121.25 115.94 122.10 116.35 C 122.96 116.75 123.97 116.38 124.37 115.53 L 124.82 114.59 C 125.22 113.74 124.85 112.72 124.00 112.32 C 123.15 111.92 122.13 112.28 121.73 113.14 Z M 121.11 114.74 L 121.09 115.49 C 121.05 116.44 121.79 117.24 122.74 117.27 C 123.69 117.31 124.49 116.56 124.52 115.61 L 124.55 114.86 C 124.58 113.91 123.84 113.12 122.89 113.08 C 121.94 113.05 121.14 113.79 121.11 114.74 Z M 121.61 116.81 L 122.07 117.24 C 122.76 117.90 123.85 117.87 124.51 117.18 C 125.17 116.49 125.15 115.39 124.45 114.73 L 124.00 114.30 C 123.30 113.64 122.21 113.67 121.55 114.36 C 120.89 115.05 120.92 116.15 121.61 116.81 Z M 122.79 117.67 L 123.60 117.89 C 124.52 118.15 125.48 117.60 125.74 116.67 C 126.00 115.75 125.45 114.79 124.53 114.53 L 123.72 114.31 C 122.80 114.05 121.84 114.59 121.58 115.52 C 121.32 116.45 121.87 117.41 122.79 117.67 Z M 123.93 117.96 L 124.99 118.04 C 125.96 118.11 126.80 117.38 126.87 116.42 C 126.94 115.45 126.22 114.61 125.25 114.54 L 124.19 114.46 C 123.23 114.39 122.39 115.12 122.31 116.08 C 122.24 117.05 122.97 117.89 123.93 117.96 Z M 125.17 118.05 L 126.39 118.02 C 127.36 117.99 128.13 117.18 128.10 116.20 C 128.08 115.23 127.26 114.46 126.29 114.49 L 125.07 114.53 C 124.10 114.55 123.33 115.37 123.36 116.34 C 123.39 117.31 124.20 118.08 125.17 118.05 Z M 126.50 118.02 L 127.64 117.91 C 128.62 117.83 129.33 116.96 129.25 115.99 C 129.16 115.02 128.30 114.30 127.32 114.39 L 126.18 114.49 C 125.21 114.58 124.49 115.44 124.58 116.41 C 124.67 117.39 125.53 118.10 126.50 118.02 Z M 127.71 117.91 L 128.76 117.77 C 129.73 117.64 130.41 116.75 130.29 115.78 C 130.16 114.81 129.27 114.13 128.30 114.26 L 127.25 114.39 C 126.28 114.52 125.60 115.41 125.73 116.38 C 125.85 117.35 126.74 118.03 127.71 117.91 Z M 128.81 117.76 L 129.83 117.60 C 130.80 117.44 131.45 116.53 131.30 115.56 C 131.14 114.60 130.23 113.94 129.27 114.10 L 128.25 114.27 C 127.28 114.42 126.63 115.33 126.78 116.30 C 126.94 117.26 127.85 117.92 128.81 117.76 Z M 129.87 117.59 L 130.85 117.41 C 131.81 117.23 132.44 116.31 132.27 115.35 C 132.09 114.39 131.17 113.75 130.21 113.93 L 129.23 114.11 C 128.27 114.28 127.63 115.21 127.81 116.17 C 127.99 117.13 128.91 117.77 129.87 117.59 Z M 130.87 117.40 L 131.78 117.22 C 132.74 117.03 133.36 116.10 133.17 115.14 C 132.98 114.18 132.05 113.56 131.09 113.75 L 130.18 113.93 C 129.22 114.12 128.60 115.06 128.79 116.01 C 128.98 116.97 129.91 117.59 130.87 117.40 Z M 131.80 117.22 L 132.82 117.00 C 133.77 116.81 134.39 115.87 134.19 114.92 C 133.99 113.96 133.06 113.35 132.10 113.54 L 131.08 113.76 C 130.13 113.95 129.51 114.89 129.71 115.84 C 129.91 116.80 130.84 117.41 131.80 117.22 Z M 132.82 117.00 L 133.84 116.78 C 134.79 116.58 135.40 115.65 135.20 114.70 C 135.00 113.75 134.07 113.14 133.11 113.34 L 132.10 113.55 C 131.15 113.75 130.54 114.68 130.74 115.64 C 130.94 116.59 131.87 117.20 132.82 117.00 Z M 133.84 116.78 L 134.77 116.58 C 135.72 116.38 136.32 115.45 136.12 114.50 C 135.92 113.55 134.99 112.95 134.04 113.15 L 133.11 113.34 C 132.17 113.55 131.56 114.48 131.76 115.42 C 131.96 116.37 132.89 116.98 133.84 116.78 Z M 134.76 116.57 L 135.66 116.38 C 136.61 116.19 137.21 115.26 137.01 114.31 C 136.82 113.37 135.89 112.77 134.95 112.96 L 134.05 113.15 C 133.10 113.35 132.50 114.28 132.70 115.22 C 132.89 116.17 133.82 116.77 134.76 116.57 Z M 135.66 116.38 L 136.63 116.18 C 137.57 115.98 138.18 115.06 137.99 114.12 C 137.79 113.18 136.87 112.57 135.93 112.77 L 134.95 112.97 C 134.01 113.16 133.41 114.09 133.60 115.03 C 133.80 115.97 134.72 116.57 135.66 116.38 Z M 136.64 116.17 L 137.62 115.97 C 138.56 115.77 139.16 114.85 138.96 113.91 C 138.77 112.97 137.85 112.37 136.91 112.57 L 135.93 112.77 C 134.99 112.97 134.39 113.89 134.58 114.83 C 134.78 115.77 135.70 116.37 136.64 116.17 Z M 137.63 115.96 L 138.61 115.74 C 139.55 115.54 140.14 114.62 139.93 113.68 C 139.73 112.75 138.81 112.16 137.87 112.36 L 136.90 112.58 C 135.96 112.78 135.37 113.70 135.57 114.64 C 135.78 115.57 136.70 116.16 137.63 115.96 Z M 138.64 115.73 L 139.62 115.50 C 140.54 115.29 141.12 114.36 140.90 113.43 C 140.69 112.50 139.76 111.93 138.83 112.14 L 137.85 112.37 C 136.92 112.59 136.35 113.52 136.56 114.45 C 136.78 115.37 137.71 115.95 138.64 115.73 Z M 139.63 115.50 L 140.60 115.26 C 141.53 115.03 142.09 114.10 141.87 113.18 C 141.64 112.26 140.71 111.69 139.79 111.92 L 138.81 112.15 C 137.89 112.38 137.33 113.31 137.55 114.23 C 137.78 115.16 138.71 115.72 139.63 115.50 Z M 140.60 115.25 L 141.57 115.02 C 142.49 114.79 143.05 113.86 142.83 112.94 C 142.60 112.02 141.67 111.46 140.75 111.68 L 139.79 111.92 C 138.87 112.14 138.30 113.07 138.53 113.99 C 138.75 114.91 139.68 115.48 140.60 115.25 Z M 141.55 115.02 L 142.52 114.79 C 143.44 114.58 144.01 113.66 143.80 112.74 C 143.58 111.82 142.66 111.24 141.74 111.46 L 140.77 111.68 C 139.85 111.90 139.28 112.82 139.49 113.74 C 139.71 114.66 140.63 115.23 141.55 115.02 Z M 142.50 114.79 L 143.48 114.57 C 144.40 114.37 144.98 113.45 144.77 112.54 C 144.57 111.62 143.66 111.04 142.74 111.24 L 141.76 111.46 C 140.84 111.67 140.26 112.58 140.47 113.50 C 140.67 114.41 141.58 114.99 142.50 114.79 Z M 143.48 114.56 L 144.45 114.35 C 145.37 114.14 145.95 113.24 145.74 112.32 C 145.54 111.41 144.63 110.83 143.72 111.03 L 142.74 111.25 C 141.82 111.45 141.25 112.36 141.45 113.28 C 141.65 114.19 142.56 114.77 143.48 114.56 Z M 144.47 114.34 L 145.36 114.13 C 146.27 113.92 146.84 113.01 146.63 112.10 C 146.42 111.19 145.51 110.62 144.60 110.84 L 143.70 111.04 C 142.79 111.25 142.23 112.16 142.44 113.07 C 142.65 113.98 143.56 114.55 144.47 114.34 Z M 145.38 114.12 L 146.15 113.93 C 147.06 113.71 147.61 112.80 147.39 111.89 C 147.17 110.99 146.26 110.44 145.35 110.66 L 144.58 110.85 C 143.68 111.07 143.12 111.98 143.34 112.88 C 143.56 113.79 144.48 114.34 145.38 114.12 Z M 146.17 113.92 L 147.04 113.70 C 147.94 113.47 148.48 112.55 148.25 111.65 C 148.02 110.76 147.11 110.21 146.21 110.44 L 145.34 110.67 C 144.44 110.90 143.90 111.81 144.13 112.71 C 144.36 113.61 145.27 114.15 146.17 113.92 Z M 147.05 113.69 L 148.11 113.41 C 149.01 113.17 149.54 112.26 149.31 111.37 C 149.07 110.47 148.16 109.94 147.26 110.17 L 146.20 110.45 C 145.31 110.69 144.77 111.60 145.01 112.49 C 145.24 113.39 146.16 113.92 147.05 113.69 Z M 148.12 113.40 L 149.33 113.08 C 150.22 112.84 150.75 111.93 150.52 111.04 C 150.28 110.15 149.37 109.62 148.48 109.86 L 147.26 110.18 C 146.37 110.42 145.84 111.33 146.08 112.22 C 146.31 113.11 147.23 113.64 148.12 113.40 Z M 149.33 113.07 L 150.21 112.84 C 151.09 112.60 151.62 111.69 151.38 110.80 C 151.14 109.92 150.23 109.39 149.35 109.63 L 148.47 109.86 C 147.59 110.10 147.06 111.01 147.30 111.90 C 147.54 112.78 148.45 113.31 149.33 113.07 Z M 150.21 112.84 L 151.15 112.58 C 152.04 112.34 152.56 111.43 152.33 110.55 C 152.09 109.66 151.18 109.14 150.29 109.38 L 149.35 109.63 C 148.46 109.87 147.94 110.78 148.17 111.66 C 148.41 112.55 149.32 113.07 150.21 112.84 Z M 151.15 112.58 L 152.15 112.31 C 153.03 112.07 153.56 111.16 153.32 110.28 C 153.08 109.40 152.17 108.87 151.29 109.11 L 150.29 109.38 C 149.41 109.62 148.89 110.53 149.12 111.41 C 149.36 112.29 150.27 112.82 151.15 112.58 Z M 152.15 112.30 L 153.18 112.03 C 154.06 111.79 154.58 110.88 154.34 110.00 C 154.10 109.12 153.19 108.60 152.31 108.84 L 151.29 109.12 C 150.41 109.36 149.89 110.26 150.13 111.14 C 150.37 112.02 151.27 112.54 152.15 112.30 Z M 153.18 112.02 L 154.20 111.74 C 155.08 111.50 155.59 110.60 155.35 109.72 C 155.11 108.84 154.21 108.32 153.33 108.56 L 152.31 108.84 C 151.43 109.08 150.91 109.99 151.15 110.87 C 151.39 111.75 152.30 112.26 153.18 112.02 Z M 154.20 111.74 L 155.20 111.46 C 156.07 111.22 156.58 110.32 156.34 109.44 C 156.10 108.57 155.20 108.05 154.32 108.29 L 153.33 108.57 C 152.45 108.81 151.94 109.72 152.18 110.59 C 152.42 111.47 153.33 111.98 154.20 111.74 Z M 155.20 111.46 L 156.14 111.20 C 157.01 110.95 157.52 110.05 157.28 109.17 C 157.03 108.30 156.13 107.79 155.26 108.04 L 154.32 108.30 C 153.44 108.54 152.93 109.45 153.18 110.32 C 153.42 111.19 154.33 111.70 155.20 111.46 Z M 156.15 111.19 L 157.27 110.87 C 158.14 110.62 158.64 109.71 158.39 108.85 C 158.15 107.98 157.24 107.48 156.38 107.72 L 155.25 108.05 C 154.38 108.29 153.88 109.20 154.13 110.07 C 154.38 110.93 155.28 111.43 156.15 111.19 Z M 157.29 110.85 L 158.35 110.53 C 159.21 110.28 159.70 109.37 159.44 108.51 C 159.19 107.66 158.28 107.17 157.43 107.42 L 156.36 107.74 C 155.50 108.00 155.01 108.90 155.27 109.76 C 155.53 110.62 156.43 111.10 157.29 110.85 Z M 158.38 110.51 L 159.33 110.21 C 160.17 109.93 160.64 109.03 160.37 108.18 C 160.10 107.34 159.19 106.87 158.35 107.14 L 157.40 107.45 C 156.55 107.72 156.09 108.62 156.36 109.47 C 156.63 110.31 157.53 110.78 158.38 110.51 Z M 159.37 110.18 L 160.23 109.88 C 161.06 109.58 161.50 108.67 161.20 107.84 C 160.91 107.01 160.00 106.57 159.17 106.86 L 158.31 107.17 C 157.48 107.46 157.04 108.37 157.33 109.20 C 157.63 110.04 158.54 110.47 159.37 110.18 Z M 160.28 109.84 L 161.08 109.53 C 161.90 109.20 162.30 108.28 161.97 107.47 C 161.65 106.66 160.73 106.26 159.92 106.58 L 159.12 106.90 C 158.30 107.22 157.90 108.14 158.23 108.95 C 158.55 109.77 159.47 110.16 160.28 109.84 Z M 161.14 109.49 L 161.99 109.11 C 162.78 108.76 163.14 107.83 162.79 107.03 C 162.43 106.24 161.50 105.88 160.71 106.24 L 159.86 106.62 C 159.07 106.97 158.71 107.90 159.07 108.70 C 159.42 109.49 160.35 109.84 161.14 109.49 Z M 162.05 109.08 L 162.94 108.63 C 163.72 108.24 164.03 107.30 163.64 106.53 C 163.26 105.75 162.31 105.44 161.54 105.83 L 160.65 106.27 C 159.87 106.66 159.56 107.60 159.95 108.38 C 160.33 109.15 161.28 109.46 162.05 109.08 Z M 162.99 108.61 L 163.87 108.13 C 164.63 107.72 164.91 106.77 164.50 106.00 C 164.08 105.24 163.13 104.96 162.37 105.37 L 161.49 105.85 C 160.73 106.26 160.45 107.21 160.86 107.98 C 161.28 108.74 162.23 109.02 162.99 108.61 Z M 163.89 108.11 L 164.76 107.61 C 165.52 107.18 165.78 106.23 165.35 105.48 C 164.92 104.73 163.96 104.47 163.21 104.90 L 162.34 105.39 C 161.59 105.82 161.33 106.78 161.76 107.53 C 162.19 108.28 163.14 108.54 163.89 108.11 Z M 164.78 107.60 L 165.56 107.15 C 166.30 106.71 166.55 105.76 166.12 105.01 C 165.68 104.27 164.73 104.02 163.98 104.45 L 163.20 104.91 C 162.46 105.34 162.21 106.30 162.64 107.04 C 163.08 107.79 164.03 108.04 164.78 107.60 Z"
      fill="black"
      fill-rule="nonzero" /><path d="M 131.82 132.79 L 131.69 133.83 C 131.57 134.74 132.22 135.57 133.13 135.69 C 134.04 135.81 134.87 135.16 134.99 134.25 L 135.12 133.20 C 135.24 132.29 134.59 131.46 133.68 131.34 C 132.77 131.23 131.94 131.87 131.82 132.79 Z M 131.69 133.83 L 131.56 134.87 C 131.44 135.78 132.09 136.61 133.00 136.73 C 133.91 136.84 134.75 136.19 134.86 135.28 L 134.99 134.25 C 135.10 133.33 134.46 132.50 133.54 132.39 C 132.63 132.27 131.80 132.92 131.69 133.83 Z M 131.55 134.88 L 131.43 135.90 C 131.32 136.81 131.97 137.64 132.88 137.75 C 133.80 137.86 134.63 137.21 134.74 136.30 L 134.86 135.28 C 134.97 134.36 134.32 133.53 133.41 133.42 C 132.50 133.31 131.67 133.96 131.55 134.88 Z M 131.43 135.91 L 131.31 136.92 C 131.21 137.83 131.86 138.66 132.78 138.76 C 133.69 138.87 134.52 138.21 134.62 137.30 L 134.74 136.29 C 134.85 135.38 134.19 134.55 133.28 134.44 C 132.36 134.34 131.53 134.99 131.43 135.91 Z M 131.31 136.93 L 131.20 137.91 C 131.11 138.83 131.77 139.65 132.69 139.75 C 133.60 139.84 134.42 139.18 134.52 138.27 L 134.63 137.28 C 134.72 136.37 134.06 135.55 133.15 135.45 C 132.23 135.35 131.41 136.01 131.31 136.93 Z M 131.20 137.93 L 131.11 138.88 C 131.02 139.79 131.69 140.61 132.61 140.70 C 133.53 140.79 134.34 140.11 134.43 139.20 L 134.52 138.25 C 134.61 137.33 133.94 136.52 133.02 136.43 C 132.11 136.34 131.29 137.01 131.20 137.93 Z M 131.11 138.90 L 131.03 139.82 C 130.96 140.74 131.64 141.54 132.56 141.62 C 133.48 141.69 134.28 141.01 134.36 140.09 L 134.43 139.17 C 134.51 138.26 133.83 137.45 132.91 137.37 C 131.99 137.30 131.18 137.98 131.11 138.90 Z M 131.03 139.85 L 130.96 141.01 C 130.90 141.93 131.60 142.73 132.52 142.78 C 133.44 142.84 134.23 142.14 134.29 141.22 L 134.36 140.06 C 134.42 139.14 133.72 138.35 132.80 138.29 C 131.88 138.23 131.09 138.93 131.03 139.85 Z M 130.95 141.05 L 130.91 142.13 C 130.87 143.05 131.59 143.83 132.51 143.87 C 133.43 143.91 134.21 143.19 134.25 142.27 L 134.29 141.19 C 134.33 140.27 133.61 139.49 132.69 139.45 C 131.77 139.41 130.99 140.13 130.95 141.05 Z M 130.91 142.16 L 130.88 143.17 C 130.86 144.09 131.59 144.85 132.51 144.88 C 133.44 144.90 134.20 144.17 134.22 143.25 L 134.25 142.24 C 134.27 141.32 133.54 140.55 132.62 140.53 C 131.70 140.51 130.93 141.24 130.91 142.16 Z M 130.88 143.19 L 130.87 144.12 C 130.86 145.04 131.60 145.79 132.53 145.80 C 133.45 145.81 134.20 145.07 134.21 144.15 L 134.22 143.22 C 134.23 142.30 133.49 141.55 132.57 141.54 C 131.65 141.53 130.89 142.27 130.88 143.19 Z M 130.87 144.13 L 130.87 144.98 C 130.87 145.90 131.62 146.65 132.54 146.65 C 133.46 146.65 134.21 145.91 134.21 144.98 L 134.21 144.14 C 134.22 143.21 133.47 142.47 132.55 142.46 C 131.63 142.46 130.88 143.21 130.87 144.13 Z M 130.87 144.98 L 130.87 146.06 C 130.88 146.98 131.62 147.73 132.54 147.73 C 133.46 147.73 134.21 146.98 134.21 146.06 L 134.21 144.98 C 134.21 144.06 133.46 143.31 132.54 143.31 C 131.62 143.31 130.87 144.06 130.87 144.98 Z M 130.88 146.07 L 130.88 147.08 C 130.88 148.00 131.63 148.74 132.55 148.74 C 133.47 148.74 134.21 147.99 134.21 147.07 L 134.21 146.06 C 134.20 145.14 133.46 144.40 132.54 144.40 C 131.62 144.40 130.88 145.15 130.88 146.07 Z M 130.89 147.09 L 130.90 148.02 C 130.90 148.94 131.66 149.67 132.57 149.66 C 133.49 149.65 134.22 148.90 134.21 147.99 L 134.20 147.06 C 134.20 146.14 133.45 145.41 132.53 145.42 C 131.61 145.43 130.88 146.18 130.89 147.09 Z M 130.90 148.04 L 130.92 148.95 C 130.94 149.86 131.70 150.59 132.61 150.57 C 133.52 150.55 134.25 149.79 134.23 148.88 L 134.21 147.97 C 134.19 147.06 133.43 146.33 132.52 146.35 C 131.61 146.37 130.88 147.13 130.90 148.04 Z M 130.93 149.00 L 130.98 149.94 C 131.02 150.85 131.79 151.55 132.70 151.50 C 133.61 151.46 134.31 150.69 134.26 149.78 L 134.22 148.84 C 134.17 147.93 133.40 147.23 132.50 147.27 C 131.59 147.32 130.89 148.09 130.93 149.00 Z M 130.99 150.02 L 131.09 151.02 C 131.18 151.92 131.99 152.58 132.88 152.49 C 133.78 152.40 134.44 151.59 134.35 150.69 L 134.25 149.70 C 134.16 148.80 133.36 148.14 132.46 148.23 C 131.56 148.32 130.90 149.13 130.99 150.02 Z M 131.12 151.13 L 131.29 152.18 C 131.44 153.06 132.28 153.66 133.17 153.51 C 134.05 153.36 134.65 152.52 134.50 151.64 L 134.32 150.59 C 134.18 149.70 133.34 149.11 132.45 149.25 C 131.56 149.40 130.97 150.24 131.12 151.13 Z M 131.32 152.27 L 131.53 153.15 C 131.73 154.02 132.59 154.56 133.46 154.36 C 134.33 154.16 134.88 153.30 134.68 152.43 L 134.47 151.54 C 134.27 150.67 133.40 150.13 132.53 150.33 C 131.66 150.53 131.12 151.40 131.32 152.27 Z M 131.55 153.22 L 131.81 154.16 C 132.05 155.01 132.93 155.51 133.79 155.28 C 134.64 155.04 135.14 154.15 134.91 153.30 L 134.65 152.36 C 134.41 151.51 133.53 151.01 132.67 151.24 C 131.82 151.48 131.32 152.36 131.55 153.22 Z M 131.84 154.21 L 132.15 155.19 C 132.42 156.03 133.31 156.50 134.15 156.23 C 134.99 155.97 135.46 155.07 135.19 154.23 L 134.88 153.25 C 134.62 152.41 133.72 151.94 132.88 152.21 C 132.04 152.47 131.57 153.37 131.84 154.21 Z M 132.18 155.24 L 132.53 156.25 C 132.82 157.08 133.73 157.51 134.55 157.22 C 135.38 156.93 135.81 156.03 135.52 155.20 L 135.17 154.19 C 134.88 153.36 133.97 152.93 133.15 153.22 C 132.32 153.51 131.89 154.41 132.18 155.24 Z M 132.56 156.29 L 132.91 157.23 C 133.22 158.04 134.14 158.45 134.95 158.14 C 135.76 157.83 136.17 156.92 135.86 156.10 L 135.50 155.17 C 135.19 154.35 134.28 153.95 133.47 154.26 C 132.65 154.57 132.24 155.48 132.56 156.29 Z M 132.93 157.26 L 133.30 158.17 C 133.63 158.97 134.54 159.36 135.35 159.03 C 136.15 158.71 136.54 157.79 136.21 156.99 L 135.84 156.08 C 135.52 155.27 134.60 154.88 133.80 155.21 C 132.99 155.54 132.60 156.45 132.93 157.26 Z M 133.31 158.19 L 133.70 159.11 C 134.04 159.91 134.96 160.28 135.76 159.94 C 136.56 159.61 136.93 158.69 136.59 157.89 L 136.20 156.97 C 135.86 156.17 134.94 155.79 134.14 156.13 C 133.35 156.47 132.97 157.39 133.31 158.19 Z M 133.71 159.12 L 134.11 160.05 C 134.46 160.85 135.38 161.21 136.18 160.86 C 136.97 160.52 137.33 159.60 136.99 158.80 L 136.58 157.87 C 136.24 157.08 135.31 156.72 134.52 157.06 C 133.73 157.41 133.36 158.33 133.71 159.12 Z M 134.12 160.06 L 134.53 160.99 C 134.88 161.78 135.80 162.14 136.59 161.79 C 137.38 161.44 137.74 160.52 137.39 159.73 L 136.98 158.80 C 136.63 158.01 135.71 157.65 134.92 158.00 C 134.13 158.35 133.77 159.27 134.12 160.06 Z M 134.54 160.99 L 134.70 161.36 C 135.05 162.14 135.97 162.50 136.76 162.15 C 137.54 161.80 137.90 160.88 137.55 160.09 L 137.39 159.73 C 137.04 158.94 136.12 158.58 135.33 158.93 C 134.54 159.28 134.19 160.21 134.54 160.99 Z"
      fill="black"
      fill-rule="nonzero" /><path d="M 130.28 137.58 L 131.06 138.10 C 131.84 138.62 132.88 138.41 133.40 137.63 C 133.91 136.86 133.70 135.81 132.93 135.30 L 132.15 134.78 C 131.38 134.26 130.33 134.47 129.81 135.25 C 129.30 136.02 129.51 137.07 130.28 137.58 Z M 131.14 138.18 L 131.97 138.66 C 132.79 139.13 133.84 138.85 134.31 138.03 C 134.78 137.21 134.50 136.16 133.68 135.69 L 132.85 135.21 C 132.03 134.74 130.98 135.02 130.51 135.84 C 130.04 136.67 130.32 137.71 131.14 138.18 Z M 132.15 138.78 L 133.08 139.17 C 133.97 139.55 134.99 139.13 135.37 138.25 C 135.74 137.36 135.32 136.34 134.44 135.97 L 133.50 135.57 C 132.62 135.20 131.60 135.61 131.22 136.50 C 130.85 137.38 131.26 138.41 132.15 138.78 Z M 133.33 139.28 L 134.35 139.54 C 135.29 139.78 136.25 139.21 136.49 138.26 C 136.73 137.31 136.16 136.35 135.21 136.12 L 134.19 135.86 C 133.25 135.62 132.29 136.19 132.05 137.14 C 131.81 138.08 132.38 139.04 133.33 139.28 Z M 134.57 139.59 L 135.47 139.70 C 136.44 139.82 137.33 139.12 137.44 138.15 C 137.56 137.17 136.87 136.29 135.89 136.17 L 134.99 136.06 C 134.02 135.95 133.13 136.64 133.02 137.61 C 132.90 138.59 133.59 139.47 134.57 139.59 Z M 135.62 139.71 L 136.59 139.75 C 137.57 139.78 138.40 139.01 138.43 138.03 C 138.46 137.05 137.70 136.23 136.72 136.19 L 135.74 136.16 C 134.76 136.13 133.94 136.89 133.91 137.87 C 133.87 138.86 134.64 139.68 135.62 139.71 Z M 136.71 139.74 L 137.74 139.71 C 138.72 139.68 139.49 138.86 139.46 137.88 C 139.42 136.90 138.60 136.13 137.62 136.16 L 136.60 136.19 C 135.62 136.23 134.85 137.05 134.88 138.03 C 134.91 139.01 135.73 139.78 136.71 139.74 Z M 137.84 139.70 L 138.89 139.61 C 139.87 139.53 140.59 138.66 140.50 137.69 C 140.42 136.71 139.55 135.99 138.58 136.07 L 137.52 136.17 C 136.55 136.25 135.83 137.12 135.91 138.09 C 136.00 139.07 136.86 139.79 137.84 139.70 Z M 138.98 139.60 L 140.03 139.46 C 141.00 139.32 141.68 138.43 141.55 137.46 C 141.42 136.49 140.52 135.81 139.55 135.94 L 138.49 136.08 C 137.52 136.22 136.84 137.11 136.98 138.08 C 137.11 139.06 138.00 139.74 138.98 139.60 Z M 140.11 139.44 L 141.17 139.25 C 142.13 139.07 142.77 138.15 142.60 137.19 C 142.42 136.22 141.50 135.58 140.53 135.76 L 139.47 135.95 C 138.51 136.13 137.87 137.05 138.05 138.02 C 138.22 138.98 139.14 139.62 140.11 139.44 Z M 141.23 139.23 L 142.26 139.00 C 143.22 138.79 143.82 137.85 143.61 136.90 C 143.40 135.94 142.45 135.34 141.50 135.55 L 140.47 135.78 C 139.52 135.99 138.91 136.93 139.12 137.89 C 139.34 138.84 140.28 139.44 141.23 139.23 Z M 142.31 138.99 L 143.30 138.74 C 144.24 138.50 144.82 137.54 144.58 136.59 C 144.34 135.65 143.38 135.08 142.43 135.32 L 141.45 135.57 C 140.50 135.80 139.93 136.77 140.17 137.71 C 140.41 138.66 141.37 139.23 142.31 138.99 Z M 143.34 138.73 L 144.26 138.47 C 145.20 138.21 145.75 137.23 145.49 136.30 C 145.22 135.36 144.25 134.81 143.31 135.07 L 142.39 135.33 C 141.45 135.59 140.90 136.56 141.17 137.50 C 141.43 138.44 142.40 138.99 143.34 138.73 Z M 144.29 138.45 L 145.15 138.20 C 146.08 137.92 146.61 136.94 146.33 136.01 C 146.05 135.08 145.07 134.55 144.14 134.83 L 143.28 135.08 C 142.35 135.36 141.83 136.34 142.10 137.27 C 142.38 138.20 143.36 138.73 144.29 138.45 Z M 145.17 138.19 L 146.24 137.85 C 147.17 137.56 147.68 136.57 147.39 135.65 C 147.10 134.73 146.12 134.21 145.19 134.50 L 144.12 134.84 C 143.19 135.13 142.68 136.12 142.97 137.04 C 143.26 137.96 144.24 138.48 145.17 138.19 Z M 146.26 137.84 L 147.22 137.52 C 148.14 137.22 148.64 136.23 148.33 135.32 C 148.03 134.40 147.05 133.90 146.13 134.20 L 145.17 134.52 C 144.26 134.82 143.76 135.80 144.06 136.72 C 144.36 137.64 145.35 138.14 146.26 137.84 Z M 147.23 137.51 L 148.11 137.22 C 149.02 136.91 149.51 135.92 149.20 135.01 C 148.90 134.10 147.91 133.61 147.00 133.92 L 146.12 134.21 C 145.21 134.52 144.72 135.51 145.03 136.42 C 145.33 137.33 146.32 137.82 147.23 137.51 Z M 148.10 137.21 L 148.99 136.91 C 149.90 136.61 150.39 135.63 150.09 134.72 C 149.78 133.81 148.80 133.32 147.90 133.63 L 147.00 133.92 C 146.10 134.23 145.61 135.21 145.91 136.12 C 146.21 137.02 147.19 137.51 148.10 137.21 Z M 148.98 136.91 L 149.93 136.60 C 150.84 136.30 151.33 135.33 151.03 134.42 C 150.74 133.52 149.76 133.02 148.85 133.32 L 147.91 133.63 C 147.00 133.93 146.51 134.90 146.80 135.81 C 147.10 136.71 148.07 137.21 148.98 136.91 Z M 149.93 136.60 L 150.87 136.29 C 151.78 135.99 152.27 135.02 151.98 134.12 C 151.68 133.21 150.71 132.72 149.81 133.01 L 148.86 133.32 C 147.95 133.62 147.46 134.59 147.76 135.49 C 148.05 136.40 149.02 136.89 149.93 136.60 Z M 150.88 136.28 L 151.83 135.97 C 152.73 135.67 153.22 134.69 152.92 133.79 C 152.62 132.89 151.65 132.41 150.75 132.71 L 149.80 133.02 C 148.90 133.32 148.41 134.29 148.71 135.19 C 149.01 136.09 149.98 136.58 150.88 136.28 Z M 151.84 135.96 L 152.78 135.64 C 153.68 135.34 154.16 134.36 153.85 133.47 C 153.55 132.57 152.58 132.09 151.68 132.39 L 150.74 132.71 C 149.84 133.02 149.36 133.99 149.67 134.88 C 149.97 135.78 150.94 136.26 151.84 135.96 Z M 152.78 135.63 L 153.73 135.31 C 154.62 135.01 155.10 134.04 154.80 133.15 C 154.50 132.26 153.53 131.78 152.63 132.08 L 151.68 132.40 C 150.79 132.70 150.31 133.67 150.61 134.56 C 150.92 135.46 151.88 135.94 152.78 135.63 Z M 153.72 135.31 L 154.67 135.00 C 155.56 134.70 156.05 133.74 155.75 132.85 C 155.46 131.95 154.49 131.47 153.60 131.76 L 152.65 132.08 C 151.75 132.37 151.27 133.34 151.57 134.23 C 151.86 135.12 152.82 135.61 153.72 135.31 Z M 154.65 135.00 L 155.61 134.69 C 156.50 134.41 156.99 133.45 156.71 132.56 C 156.42 131.67 155.46 131.17 154.57 131.46 L 153.62 131.76 C 152.73 132.05 152.23 133.00 152.52 133.90 C 152.80 134.79 153.76 135.28 154.65 135.00 Z M 155.60 134.69 L 156.55 134.39 C 157.44 134.11 157.94 133.16 157.66 132.26 C 157.37 131.37 156.42 130.88 155.53 131.16 L 154.58 131.46 C 153.69 131.74 153.19 132.69 153.47 133.58 C 153.76 134.48 154.71 134.97 155.60 134.69 Z M 156.56 134.38 L 157.51 134.08 C 158.40 133.79 158.89 132.84 158.60 131.96 C 158.32 131.07 157.37 130.58 156.48 130.86 L 155.53 131.17 C 154.64 131.45 154.15 132.40 154.43 133.29 C 154.72 134.18 155.67 134.67 156.56 134.38 Z M 157.52 134.07 L 158.47 133.76 C 159.35 133.46 159.83 132.51 159.54 131.63 C 159.25 130.75 158.29 130.27 157.41 130.56 L 156.47 130.87 C 155.58 131.16 155.10 132.11 155.40 133.00 C 155.69 133.88 156.64 134.36 157.52 134.07 Z M 158.47 133.75 L 159.42 133.44 C 160.30 133.15 160.77 132.20 160.48 131.32 C 160.19 130.44 159.24 129.96 158.36 130.25 L 157.41 130.56 C 156.53 130.85 156.05 131.80 156.35 132.68 C 156.64 133.57 157.59 134.04 158.47 133.75 Z M 159.40 133.44 L 160.35 133.14 C 161.23 132.86 161.72 131.91 161.44 131.03 C 161.16 130.15 160.22 129.66 159.34 129.94 L 158.38 130.25 C 157.50 130.53 157.01 131.47 157.29 132.35 C 157.57 133.23 158.51 133.72 159.40 133.44 Z M 160.31 133.14 L 161.27 132.86 C 162.15 132.60 162.66 131.68 162.40 130.79 C 162.14 129.90 161.21 129.40 160.33 129.66 L 159.37 129.94 C 158.49 130.20 157.98 131.12 158.24 132.01 C 158.50 132.90 159.43 133.40 160.31 133.14 Z M 161.23 132.87 L 162.19 132.61 C 163.08 132.37 163.61 131.46 163.37 130.57 C 163.13 129.68 162.22 129.15 161.33 129.39 L 160.37 129.65 C 159.48 129.89 158.95 130.80 159.19 131.69 C 159.43 132.58 160.34 133.11 161.23 132.87 Z M 162.17 132.62 L 163.14 132.37 C 164.03 132.14 164.57 131.24 164.35 130.35 C 164.12 129.45 163.22 128.92 162.32 129.14 L 161.35 129.39 C 160.46 129.61 159.92 130.52 160.15 131.41 C 160.37 132.30 161.28 132.84 162.17 132.62 Z M 163.13 132.37 L 164.07 132.14 C 164.97 131.92 165.51 131.02 165.29 130.13 C 165.07 129.24 164.17 128.69 163.28 128.91 L 162.34 129.14 C 161.45 129.36 160.90 130.26 161.12 131.15 C 161.34 132.04 162.24 132.59 163.13 132.37 Z M 164.06 132.14 L 164.97 131.92 C 165.86 131.71 166.41 130.82 166.20 129.93 C 165.99 129.04 165.10 128.48 164.20 128.69 L 163.30 128.91 C 162.41 129.12 161.85 130.01 162.06 130.90 C 162.27 131.80 163.17 132.35 164.06 132.14 Z M 164.93 131.93 L 165.90 131.72 C 166.79 131.53 167.36 130.65 167.17 129.76 C 166.98 128.86 166.10 128.29 165.20 128.48 L 164.24 128.69 C 163.34 128.88 162.77 129.76 162.97 130.66 C 163.16 131.55 164.04 132.12 164.93 131.93 Z M 165.85 131.73 L 166.90 131.53 C 167.80 131.37 168.40 130.51 168.23 129.61 C 168.07 128.71 167.20 128.12 166.31 128.28 L 165.25 128.48 C 164.35 128.64 163.76 129.50 163.92 130.40 C 164.09 131.30 164.95 131.89 165.85 131.73 Z M 166.85 131.54 L 167.84 131.39 C 168.74 131.25 169.36 130.41 169.22 129.51 C 169.08 128.61 168.24 127.99 167.34 128.13 L 166.36 128.28 C 165.46 128.41 164.84 129.26 164.97 130.16 C 165.11 131.06 165.95 131.68 166.85 131.54 Z M 167.80 131.40 L 168.77 131.27 C 169.68 131.16 170.32 130.33 170.20 129.43 C 170.09 128.52 169.26 127.89 168.36 128.00 L 167.38 128.12 C 166.48 128.24 165.84 129.06 165.95 129.97 C 166.07 130.87 166.89 131.51 167.80 131.40 Z M 168.74 131.27 L 169.75 131.17 C 170.66 131.07 171.31 130.26 171.22 129.35 C 171.12 128.45 170.31 127.79 169.41 127.89 L 168.39 128.00 C 167.49 128.09 166.83 128.90 166.93 129.81 C 167.02 130.71 167.83 131.37 168.74 131.27 Z M 169.72 131.17 L 170.75 131.08 C 171.65 131.00 172.32 130.20 172.25 129.30 C 172.17 128.39 171.37 127.72 170.46 127.80 L 169.44 127.89 C 168.53 127.97 167.86 128.76 167.94 129.67 C 168.02 130.58 168.82 131.25 169.72 131.17 Z M 170.72 131.08 L 171.73 131.01 C 172.63 130.95 173.32 130.17 173.26 129.26 C 173.20 128.35 172.41 127.67 171.51 127.73 L 170.50 127.80 C 169.59 127.86 168.90 128.64 168.96 129.55 C 169.03 130.46 169.81 131.14 170.72 131.08 Z M 171.69 131.01 L 172.77 130.97 C 173.68 130.93 174.38 130.16 174.35 129.25 C 174.31 128.35 173.54 127.64 172.63 127.68 L 171.55 127.73 C 170.64 127.77 169.94 128.53 169.98 129.44 C 170.01 130.35 170.78 131.05 171.69 131.01 Z M 172.71 130.96 L 173.74 130.96 C 174.65 130.96 175.38 130.23 175.38 129.32 C 175.38 128.42 174.64 127.68 173.74 127.68 L 172.70 127.68 C 171.80 127.69 171.06 128.42 171.06 129.33 C 171.07 130.23 171.80 130.97 172.71 130.96 Z M 173.64 130.96 L 174.61 131.02 C 175.52 131.07 176.29 130.39 176.35 129.48 C 176.40 128.58 175.72 127.81 174.82 127.75 L 173.84 127.69 C 172.94 127.63 172.16 128.32 172.11 129.22 C 172.05 130.13 172.74 130.90 173.64 130.96 Z M 174.47 131.00 L 175.39 131.14 C 176.28 131.27 177.11 130.66 177.24 129.76 C 177.38 128.87 176.76 128.04 175.87 127.91 L 174.96 127.77 C 174.07 127.63 173.23 128.25 173.10 129.14 C 172.97 130.03 173.58 130.87 174.47 131.00 Z M 175.19 131.09 L 176.11 131.35 C 176.97 131.59 177.88 131.09 178.12 130.22 C 178.36 129.35 177.86 128.45 176.99 128.21 L 176.07 127.95 C 175.20 127.71 174.30 128.21 174.06 129.08 C 173.81 129.95 174.32 130.85 175.19 131.09 Z M 175.81 131.23 L 176.66 131.66 C 177.46 132.07 178.44 131.75 178.85 130.94 C 179.25 130.14 178.93 129.16 178.13 128.76 L 177.28 128.33 C 176.48 127.92 175.50 128.24 175.10 129.04 C 174.69 129.85 175.01 130.83 175.81 131.23 Z M 176.31 131.42 L 177.03 132.07 C 177.70 132.67 178.73 132.61 179.33 131.94 C 179.93 131.27 179.87 130.25 179.20 129.65 L 178.48 129.00 C 177.81 128.40 176.79 128.46 176.19 129.12 C 175.59 129.79 175.64 130.82 176.31 131.42 Z M 176.74 131.72 L 177.32 132.64 C 177.79 133.40 178.79 133.63 179.55 133.15 C 180.31 132.68 180.54 131.68 180.07 130.92 L 179.49 130.00 C 179.02 129.24 178.02 129.01 177.26 129.48 C 176.50 129.95 176.27 130.96 176.74 131.72 Z M 177.17 132.34 L 177.48 133.18 C 177.79 134.02 178.72 134.45 179.56 134.14 C 180.40 133.84 180.83 132.90 180.52 132.06 L 180.22 131.22 C 179.91 130.38 178.98 129.95 178.14 130.26 C 177.30 130.56 176.86 131.50 177.17 132.34 Z M 177.42 132.98 L 177.64 133.94 C 177.84 134.81 178.71 135.36 179.58 135.16 C 180.45 134.96 181.00 134.10 180.80 133.22 L 180.58 132.26 C 180.38 131.39 179.52 130.84 178.64 131.04 C 177.77 131.24 177.23 132.11 177.42 132.98 Z M 177.61 133.77 L 177.74 134.80 C 177.84 135.69 178.65 136.32 179.54 136.22 C 180.42 136.11 181.06 135.31 180.95 134.42 L 180.83 133.39 C 180.72 132.50 179.92 131.87 179.03 131.98 C 178.14 132.08 177.51 132.89 177.61 133.77 Z M 177.73 134.65 L 177.75 135.70 C 177.77 136.59 178.51 137.30 179.40 137.28 C 180.30 137.26 181.00 136.52 180.98 135.63 L 180.96 134.57 C 180.94 133.68 180.20 132.98 179.31 133.00 C 178.41 133.02 177.71 133.76 177.73 134.65 Z M 177.76 135.54 L 177.68 136.56 C 177.61 137.45 178.27 138.22 179.16 138.29 C 180.05 138.36 180.83 137.70 180.90 136.81 L 180.98 135.79 C 181.05 134.90 180.38 134.12 179.49 134.05 C 178.60 133.98 177.83 134.65 177.76 135.54 Z M 177.71 136.37 L 177.51 137.34 C 177.34 138.21 177.90 139.06 178.78 139.23 C 179.65 139.41 180.50 138.84 180.67 137.97 L 180.87 137.00 C 181.04 136.13 180.48 135.28 179.60 135.10 C 178.73 134.93 177.88 135.49 177.71 136.37 Z M 177.57 137.12 L 177.26 138.02 C 176.97 138.86 177.41 139.78 178.25 140.07 C 179.09 140.36 180.01 139.92 180.30 139.08 L 180.61 138.18 C 180.90 137.34 180.46 136.43 179.62 136.13 C 178.78 135.84 177.87 136.28 177.57 137.12 Z M 177.35 137.82 L 176.92 138.66 C 176.51 139.45 176.82 140.42 177.61 140.82 C 178.40 141.23 179.37 140.92 179.77 140.13 L 180.21 139.29 C 180.61 138.50 180.30 137.53 179.51 137.12 C 178.73 136.72 177.76 137.03 177.35 137.82 Z M 177.03 138.49 L 176.47 139.31 C 175.97 140.04 176.15 141.04 176.88 141.53 C 177.61 142.03 178.61 141.85 179.11 141.12 L 179.67 140.30 C 180.17 139.57 179.98 138.58 179.25 138.08 C 178.52 137.58 177.52 137.76 177.03 138.49 Z M 176.57 139.18 L 175.88 140.00 C 175.31 140.67 175.40 141.68 176.07 142.25 C 176.74 142.82 177.75 142.73 178.32 142.06 L 179.01 141.24 C 179.58 140.57 179.49 139.56 178.82 138.99 C 178.14 138.43 177.14 138.51 176.57 139.18 Z M 175.96 139.92 L 175.26 140.64 C 174.64 141.27 174.66 142.28 175.29 142.89 C 175.92 143.50 176.93 143.49 177.54 142.86 L 178.24 142.14 C 178.86 141.51 178.84 140.50 178.21 139.88 C 177.58 139.27 176.57 139.29 175.96 139.92 Z M 175.31 140.59 L 174.61 141.25 C 173.97 141.85 173.93 142.86 174.53 143.50 C 175.13 144.14 176.14 144.17 176.78 143.57 L 177.49 142.91 C 178.13 142.31 178.16 141.30 177.56 140.66 C 176.96 140.02 175.95 139.99 175.31 140.59 Z M 174.65 141.22 L 173.89 141.88 C 173.23 142.46 173.16 143.46 173.74 144.12 C 174.32 144.78 175.32 144.85 175.98 144.27 L 176.74 143.60 C 177.40 143.03 177.47 142.02 176.89 141.37 C 176.31 140.71 175.31 140.64 174.65 141.22 Z M 173.93 141.85 L 173.13 142.51 C 172.46 143.06 172.36 144.06 172.92 144.74 C 173.47 145.41 174.47 145.51 175.15 144.95 L 175.94 144.30 C 176.62 143.74 176.71 142.74 176.16 142.07 C 175.60 141.39 174.60 141.30 173.93 141.85 Z M 173.16 142.48 L 172.35 143.12 C 171.66 143.66 171.54 144.65 172.08 145.34 C 172.62 146.03 173.61 146.15 174.30 145.61 L 175.11 144.98 C 175.80 144.44 175.92 143.44 175.38 142.76 C 174.85 142.07 173.85 141.95 173.16 142.48 Z M 172.38 143.10 L 171.56 143.71 C 170.86 144.23 170.72 145.22 171.24 145.92 C 171.76 146.62 172.75 146.76 173.45 146.24 L 174.27 145.63 C 174.97 145.11 175.11 144.12 174.59 143.43 C 174.07 142.73 173.08 142.58 172.38 143.10 Z M 171.60 143.69 L 170.79 144.26 C 170.08 144.77 169.91 145.75 170.41 146.46 C 170.91 147.17 171.90 147.34 172.61 146.84 L 173.42 146.26 C 174.13 145.76 174.30 144.77 173.79 144.06 C 173.29 143.35 172.31 143.19 171.60 143.69 Z M 170.82 144.24 L 169.92 144.85 C 169.19 145.33 169.00 146.31 169.48 147.03 C 169.97 147.75 170.94 147.95 171.67 147.46 L 172.57 146.86 C 173.29 146.37 173.49 145.40 173.00 144.67 C 172.52 143.95 171.54 143.76 170.82 144.24 Z M 169.95 144.82 L 169.08 145.37 C 168.35 145.84 168.12 146.81 168.59 147.54 C 169.05 148.28 170.02 148.50 170.75 148.04 L 171.63 147.49 C 172.36 147.02 172.58 146.05 172.12 145.32 C 171.66 144.58 170.69 144.36 169.95 144.82 Z M 169.12 145.35 L 168.27 145.86 C 167.52 146.30 167.27 147.26 167.71 148.01 C 168.16 148.75 169.12 149.00 169.86 148.56 L 170.72 148.06 C 171.46 147.61 171.71 146.65 171.27 145.91 C 170.83 145.16 169.86 144.91 169.12 145.35 Z M 168.30 145.84 L 167.46 146.31 C 166.71 146.73 166.44 147.68 166.86 148.44 C 167.28 149.19 168.23 149.47 168.99 149.04 L 169.83 148.58 C 170.58 148.16 170.86 147.20 170.43 146.45 C 170.01 145.69 169.06 145.42 168.30 145.84 Z M 167.49 146.29 L 166.66 146.74 C 165.89 147.14 165.60 148.09 166.01 148.85 C 166.41 149.61 167.36 149.91 168.12 149.50 L 168.96 149.06 C 169.72 148.65 170.01 147.71 169.61 146.94 C 169.20 146.18 168.26 145.89 167.49 146.29 Z M 166.68 146.72 L 165.81 147.17 C 165.04 147.56 164.73 148.50 165.12 149.27 C 165.51 150.04 166.45 150.35 167.22 149.96 L 168.10 149.51 C 168.87 149.12 169.17 148.18 168.78 147.41 C 168.39 146.64 167.45 146.33 166.68 146.72 Z M 165.83 147.16 L 164.92 147.60 C 164.15 147.98 163.82 148.91 164.20 149.69 C 164.58 150.47 165.51 150.79 166.29 150.41 L 167.20 149.97 C 167.98 149.59 168.30 148.65 167.92 147.88 C 167.54 147.10 166.61 146.78 165.83 147.16 Z M 164.95 147.59 L 164.03 148.01 C 163.25 148.38 162.91 149.31 163.27 150.09 C 163.63 150.87 164.56 151.21 165.34 150.85 L 166.26 150.42 C 167.04 150.06 167.38 149.13 167.02 148.35 C 166.66 147.57 165.73 147.23 164.95 147.59 Z M 164.06 148.00 L 163.14 148.40 C 162.35 148.75 161.99 149.67 162.34 150.46 C 162.68 151.25 163.60 151.61 164.39 151.26 L 165.31 150.86 C 166.10 150.52 166.46 149.59 166.12 148.80 C 165.77 148.01 164.85 147.66 164.06 148.00 Z M 163.18 148.39 L 162.26 148.76 C 161.46 149.09 161.08 150.00 161.41 150.80 C 161.73 151.60 162.65 151.98 163.44 151.65 L 164.36 151.28 C 165.16 150.95 165.54 150.04 165.21 149.24 C 164.89 148.45 163.98 148.06 163.18 148.39 Z M 162.31 148.75 L 161.37 149.09 C 160.57 149.40 160.16 150.30 160.46 151.10 C 160.76 151.91 161.66 152.32 162.47 152.02 L 163.40 151.67 C 164.21 151.37 164.62 150.47 164.32 149.66 C 164.01 148.85 163.11 148.44 162.31 148.75 Z M 161.43 149.08 L 160.43 149.41 C 159.61 149.68 159.17 150.57 159.45 151.39 C 159.72 152.20 160.60 152.64 161.42 152.37 L 162.42 152.04 C 163.24 151.76 163.68 150.88 163.40 150.06 C 163.13 149.24 162.24 148.80 161.43 149.08 Z M 160.48 149.39 L 159.51 149.68 C 158.68 149.93 158.21 150.79 158.45 151.62 C 158.70 152.45 159.57 152.92 160.39 152.68 L 161.37 152.39 C 162.19 152.14 162.67 151.28 162.42 150.45 C 162.18 149.62 161.31 149.15 160.48 149.39 Z M 159.56 149.67 L 158.61 149.91 C 157.77 150.13 157.27 150.98 157.48 151.81 C 157.70 152.65 158.55 153.15 159.38 152.94 L 160.34 152.69 C 161.17 152.48 161.68 151.63 161.46 150.79 C 161.25 149.96 160.40 149.45 159.56 149.67 Z M 158.66 149.90 L 157.73 150.10 C 156.89 150.29 156.35 151.12 156.54 151.96 C 156.72 152.81 157.56 153.34 158.40 153.15 L 159.33 152.95 C 160.17 152.76 160.70 151.93 160.52 151.09 C 160.33 150.25 159.50 149.71 158.66 149.90 Z M 157.78 150.09 L 156.82 150.27 C 155.97 150.43 155.41 151.24 155.56 152.09 C 155.72 152.93 156.53 153.50 157.38 153.34 L 158.34 153.16 C 159.19 153.01 159.75 152.20 159.60 151.35 C 159.44 150.50 158.63 149.94 157.78 150.09 Z M 156.88 150.26 L 155.90 150.40 C 155.04 150.52 154.45 151.31 154.57 152.17 C 154.69 153.02 155.48 153.61 156.34 153.49 L 157.32 153.35 C 158.17 153.23 158.77 152.44 158.64 151.58 C 158.52 150.73 157.73 150.14 156.88 150.26 Z M 155.96 150.39 L 154.98 150.49 C 154.12 150.58 153.50 151.34 153.58 152.20 C 153.67 153.06 154.43 153.68 155.29 153.60 L 156.27 153.50 C 157.13 153.41 157.76 152.65 157.67 151.79 C 157.58 150.93 156.82 150.31 155.96 150.39 Z M 155.04 150.49 L 154.05 150.55 C 153.18 150.60 152.53 151.33 152.58 152.20 C 152.63 153.06 153.37 153.71 154.23 153.66 L 155.23 153.60 C 156.09 153.55 156.74 152.81 156.69 151.95 C 156.64 151.09 155.90 150.44 155.04 150.49 Z M 154.11 150.54 L 153.08 150.56 C 152.22 150.58 151.53 151.29 151.55 152.15 C 151.56 153.02 152.28 153.70 153.14 153.68 L 154.17 153.66 C 155.03 153.65 155.71 152.93 155.70 152.07 C 155.68 151.21 154.97 150.53 154.11 150.54 Z M 153.14 150.56 L 152.09 150.54 C 151.23 150.52 150.52 151.20 150.50 152.06 C 150.48 152.92 151.16 153.64 152.02 153.66 L 153.07 153.68 C 153.93 153.70 154.65 153.02 154.67 152.16 C 154.69 151.30 154.01 150.58 153.14 150.56 Z M 152.19 150.54 L 151.16 150.46 C 150.30 150.38 149.54 151.02 149.47 151.88 C 149.40 152.74 150.03 153.49 150.89 153.57 L 151.92 153.65 C 152.78 153.73 153.54 153.09 153.61 152.23 C 153.68 151.37 153.05 150.62 152.19 150.54 Z M 151.30 150.47 L 150.33 150.30 C 149.48 150.15 148.67 150.72 148.52 151.57 C 148.37 152.42 148.94 153.23 149.79 153.38 L 150.75 153.55 C 151.60 153.70 152.41 153.13 152.56 152.28 C 152.71 151.43 152.15 150.62 151.30 150.47 Z M 150.54 150.36 L 149.66 150.07 C 148.84 149.80 147.96 150.25 147.70 151.07 C 147.43 151.89 147.88 152.77 148.70 153.04 L 149.58 153.33 C 150.40 153.59 151.28 153.14 151.54 152.32 C 151.81 151.50 151.36 150.62 150.54 150.36 Z M 149.97 150.21 L 149.09 149.69 C 148.35 149.25 147.39 149.50 146.95 150.24 C 146.52 150.99 146.76 151.94 147.51 152.38 L 148.39 152.90 C 149.13 153.34 150.09 153.09 150.52 152.35 C 150.96 151.61 150.72 150.65 149.97 150.21 Z M 149.38 149.91 L 148.68 149.24 C 148.06 148.64 147.07 148.66 146.47 149.28 C 145.88 149.90 145.90 150.89 146.52 151.49 L 147.22 152.16 C 147.84 152.76 148.83 152.74 149.42 152.12 C 150.02 151.50 150.00 150.51 149.38 149.91 Z M 148.85 149.43 L 148.27 148.64 C 147.75 147.95 146.78 147.80 146.08 148.32 C 145.39 148.83 145.25 149.81 145.76 150.50 L 146.35 151.29 C 146.86 151.98 147.84 152.13 148.53 151.62 C 149.22 151.10 149.37 150.13 148.85 149.43 Z M 148.34 148.76 L 147.83 147.93 C 147.38 147.19 146.42 146.96 145.69 147.41 C 144.95 147.86 144.72 148.82 145.17 149.56 L 145.68 150.39 C 146.13 151.12 147.10 151.35 147.83 150.90 C 148.56 150.45 148.79 149.49 148.34 148.76 Z M 147.87 147.99 L 147.39 147.12 C 146.98 146.36 146.03 146.09 145.27 146.50 C 144.52 146.92 144.24 147.87 144.66 148.62 L 145.14 149.49 C 145.55 150.25 146.50 150.53 147.26 150.11 C 148.01 149.69 148.29 148.75 147.87 147.99 Z M 147.41 147.16 L 146.95 146.25 C 146.55 145.49 145.61 145.18 144.85 145.58 C 144.08 145.97 143.78 146.91 144.17 147.68 L 144.64 148.58 C 145.03 149.35 145.97 149.65 146.74 149.26 C 147.50 148.86 147.81 147.92 147.41 147.16 Z M 146.96 146.27 L 146.67 145.69 C 146.28 144.92 145.35 144.61 144.57 145.00 C 143.80 145.39 143.49 146.32 143.88 147.09 L 144.16 147.67 C 144.55 148.44 145.49 148.75 146.26 148.36 C 147.03 147.98 147.34 147.04 146.96 146.27 Z"
      fill="black"
      fill-rule="nonzero" /><path d="M 150.07 125.17 L 150.37 126.05 C 150.67 126.91 151.61 127.38 152.47 127.08 C 153.34 126.79 153.80 125.85 153.50 124.98 L 153.20 124.11 C 152.91 123.24 151.97 122.78 151.11 123.07 C 150.24 123.37 149.78 124.31 150.07 125.17 Z M 150.32 126.02 L 150.61 126.93 C 150.89 127.83 151.84 128.32 152.73 128.04 C 153.63 127.76 154.12 126.81 153.84 125.91 L 153.56 125.01 C 153.28 124.11 152.32 123.62 151.43 123.90 C 150.54 124.18 150.04 125.13 150.32 126.02 Z M 150.54 126.87 L 150.80 127.83 C 151.05 128.76 152.00 129.31 152.93 129.07 C 153.86 128.82 154.41 127.87 154.16 126.94 L 153.90 125.97 C 153.66 125.05 152.70 124.50 151.77 124.74 C 150.85 124.99 150.30 125.94 150.54 126.87 Z M 150.74 127.74 L 150.95 128.79 C 151.15 129.75 152.09 130.38 153.05 130.18 C 154.02 129.98 154.64 129.04 154.44 128.07 L 154.23 127.03 C 154.03 126.06 153.09 125.44 152.12 125.64 C 151.16 125.84 150.54 126.78 150.74 127.74 Z M 150.90 128.69 L 151.05 129.71 C 151.19 130.70 152.10 131.39 153.10 131.25 C 154.09 131.11 154.78 130.19 154.64 129.20 L 154.49 128.18 C 154.35 127.19 153.43 126.50 152.44 126.64 C 151.45 126.78 150.76 127.70 150.90 128.69 Z M 151.03 129.63 L 151.12 130.63 C 151.22 131.64 152.11 132.37 153.11 132.28 C 154.11 132.18 154.85 131.29 154.75 130.29 L 154.66 129.28 C 154.56 128.28 153.67 127.55 152.67 127.64 C 151.67 127.74 150.93 128.63 151.03 129.63 Z M 151.11 130.58 L 151.18 131.61 C 151.24 132.62 152.11 133.38 153.12 133.32 C 154.13 133.25 154.89 132.39 154.82 131.38 L 154.76 130.34 C 154.69 129.34 153.83 128.57 152.82 128.64 C 151.81 128.70 151.05 129.57 151.11 130.58 Z M 151.17 131.57 L 151.22 132.61 C 151.26 133.61 152.12 134.40 153.13 134.35 C 154.14 134.31 154.92 133.46 154.87 132.45 L 154.83 131.42 C 154.79 130.41 153.93 129.62 152.92 129.67 C 151.91 129.71 151.13 130.57 151.17 131.57 Z M 151.22 132.58 L 151.25 133.58 C 151.28 134.59 152.12 135.38 153.14 135.35 C 154.15 135.32 154.94 134.47 154.91 133.46 L 154.88 132.47 C 154.85 131.46 154.00 130.66 152.99 130.69 C 151.98 130.73 151.18 131.57 151.22 132.58 Z M 151.24 133.57 L 151.27 134.56 C 151.30 135.57 152.14 136.37 153.16 136.34 C 154.17 136.31 154.97 135.47 154.94 134.46 L 154.91 133.47 C 154.88 132.46 154.04 131.66 153.03 131.69 C 152.01 131.71 151.22 132.56 151.24 133.57 Z M 151.27 134.56 L 151.30 135.66 C 151.33 136.68 152.18 137.47 153.19 137.44 C 154.21 137.41 155.01 136.57 154.97 135.55 L 154.94 134.45 C 154.91 133.44 154.06 132.64 153.05 132.67 C 152.04 132.70 151.24 133.55 151.27 134.56 Z M 151.30 135.67 L 151.33 136.66 C 151.37 137.67 152.22 138.47 153.23 138.44 C 154.25 138.40 155.04 137.55 155.01 136.54 L 154.98 135.55 C 154.94 134.53 154.09 133.74 153.08 133.77 C 152.06 133.80 151.27 134.65 151.30 135.67 Z M 151.33 136.66 L 151.37 137.59 C 151.40 138.61 152.25 139.40 153.27 139.37 C 154.29 139.33 155.08 138.48 155.04 137.46 L 155.01 136.53 C 154.97 135.52 154.12 134.72 153.11 134.76 C 152.09 134.80 151.30 135.65 151.33 136.66 Z M 151.37 137.59 L 151.40 138.52 C 151.43 139.53 152.29 140.33 153.30 140.29 C 154.32 140.25 155.11 139.40 155.08 138.39 L 155.04 137.46 C 155.01 136.45 154.15 135.65 153.14 135.69 C 152.12 135.72 151.33 136.58 151.37 137.59 Z M 151.40 138.52 L 151.43 139.47 C 151.47 140.49 152.32 141.28 153.34 141.25 C 154.35 141.21 155.15 140.36 155.11 139.34 L 155.08 138.39 C 155.04 137.37 154.19 136.57 153.17 136.61 C 152.16 136.65 151.36 137.50 151.40 138.52 Z M 151.43 139.48 L 151.47 140.47 C 151.50 141.48 152.36 142.28 153.38 142.24 C 154.39 142.20 155.19 141.35 155.15 140.33 L 155.11 139.34 C 155.08 138.32 154.22 137.53 153.20 137.57 C 152.19 137.60 151.39 138.46 151.43 139.48 Z M 151.47 140.47 L 151.51 141.49 C 151.55 142.51 152.41 143.30 153.42 143.26 C 154.44 143.22 155.23 142.36 155.19 141.35 L 155.15 140.32 C 155.11 139.31 154.25 138.51 153.23 138.56 C 152.22 138.60 151.43 139.45 151.47 140.47 Z M 151.51 141.50 L 151.55 142.53 C 151.60 143.55 152.46 144.34 153.48 144.29 C 154.50 144.25 155.28 143.38 155.24 142.37 L 155.19 141.34 C 155.15 140.32 154.28 139.53 153.27 139.58 C 152.25 139.62 151.46 140.49 151.51 141.50 Z M 151.55 142.54 L 151.60 143.51 C 151.65 144.52 152.52 145.31 153.54 145.26 C 154.55 145.20 155.34 144.34 155.29 143.32 L 155.24 142.36 C 155.19 141.34 154.32 140.56 153.30 140.61 C 152.29 140.66 151.50 141.53 151.55 142.54 Z M 151.60 143.51 L 151.66 144.50 C 151.71 145.52 152.58 146.30 153.60 146.24 C 154.61 146.19 155.39 145.32 155.34 144.30 L 155.29 143.31 C 155.23 142.30 154.36 141.52 153.34 141.57 C 152.33 141.63 151.55 142.49 151.60 143.51 Z M 151.66 144.50 L 151.71 145.51 C 151.77 146.53 152.64 147.31 153.66 147.25 C 154.68 147.20 155.45 146.32 155.40 145.31 L 155.34 144.30 C 155.28 143.28 154.41 142.50 153.39 142.56 C 152.38 142.61 151.60 143.49 151.66 144.50 Z M 151.71 145.52 L 151.77 146.55 C 151.83 147.56 152.70 148.34 153.72 148.29 C 154.73 148.23 155.51 147.36 155.46 146.34 L 155.40 145.31 C 155.34 144.29 154.47 143.51 153.45 143.57 C 152.43 143.63 151.65 144.50 151.71 145.52 Z M 151.77 146.55 L 151.83 147.53 C 151.88 148.54 152.75 149.32 153.77 149.27 C 154.79 149.21 155.57 148.34 155.51 147.32 L 155.46 146.34 C 155.40 145.32 154.53 144.54 153.51 144.60 C 152.49 144.66 151.71 145.53 151.77 146.55 Z M 151.83 147.52 L 151.88 148.50 C 151.93 149.51 152.81 150.29 153.82 150.24 C 154.84 150.18 155.62 149.31 155.56 148.29 L 155.51 147.32 C 155.45 146.30 154.58 145.52 153.57 145.58 C 152.55 145.64 151.77 146.51 151.83 147.52 Z M 151.88 148.49 L 151.93 149.48 C 151.99 150.50 152.86 151.28 153.87 151.23 C 154.89 151.17 155.67 150.30 155.62 149.29 L 155.56 148.29 C 155.51 147.28 154.64 146.50 153.62 146.55 C 152.60 146.61 151.82 147.48 151.88 148.49 Z M 151.93 149.48 L 151.99 150.50 C 152.04 151.51 152.91 152.29 153.93 152.24 C 154.94 152.19 155.72 151.32 155.67 150.30 L 155.62 149.29 C 155.56 148.27 154.70 147.49 153.68 147.54 C 152.66 147.60 151.88 148.46 151.93 149.48 Z M 151.99 150.49 L 152.04 151.53 C 152.09 152.55 152.96 153.33 153.98 153.28 C 154.99 153.23 155.78 152.36 155.72 151.34 L 155.67 150.30 C 155.62 149.29 154.75 148.50 153.73 148.56 C 152.72 148.61 151.93 149.48 151.99 150.49 Z M 152.04 151.53 L 152.09 152.50 C 152.14 153.52 153.01 154.30 154.02 154.25 C 155.04 154.20 155.82 153.33 155.77 152.31 L 155.72 151.34 C 155.67 150.33 154.81 149.54 153.79 149.59 C 152.77 149.64 151.99 150.51 152.04 151.53 Z M 152.09 152.50 L 152.14 153.46 C 152.19 154.48 153.05 155.27 154.07 155.22 C 155.09 155.17 155.87 154.30 155.82 153.28 L 155.77 152.32 C 155.72 151.30 154.86 150.52 153.84 150.57 C 152.82 150.62 152.04 151.48 152.09 152.50 Z M 152.14 153.46 L 152.19 154.45 C 152.23 155.47 153.10 156.25 154.11 156.20 C 155.13 156.15 155.92 155.29 155.87 154.27 L 155.82 153.29 C 155.77 152.27 154.91 151.48 153.89 151.53 C 152.87 151.58 152.09 152.45 152.14 153.46 Z M 152.19 154.45 L 152.23 155.46 C 152.28 156.47 153.14 157.26 154.16 157.21 C 155.18 157.16 155.96 156.30 155.91 155.28 L 155.87 154.28 C 155.82 153.26 154.96 152.47 153.94 152.52 C 152.92 152.57 152.14 153.43 152.19 154.45 Z M 152.23 155.46 L 152.28 156.49 C 152.33 157.50 153.19 158.29 154.21 158.24 C 155.22 158.19 156.01 157.33 155.96 156.32 L 155.91 155.29 C 155.87 154.27 155.00 153.49 153.99 153.53 C 152.97 153.58 152.19 154.44 152.23 155.46 Z M 152.28 156.48 L 152.33 157.52 C 152.38 158.54 153.24 159.32 154.25 159.28 C 155.27 159.23 156.05 158.37 156.01 157.35 L 155.96 156.32 C 155.91 155.30 155.05 154.52 154.04 154.56 C 153.02 154.61 152.24 155.47 152.28 156.48 Z M 152.33 157.52 L 152.37 158.51 C 152.42 159.52 153.28 160.31 154.29 160.26 C 155.31 160.22 156.09 159.36 156.05 158.34 L 156.00 157.36 C 155.96 156.34 155.10 155.56 154.09 155.60 C 153.07 155.65 152.29 156.50 152.33 157.52 Z M 152.38 158.50 L 152.42 159.50 C 152.46 160.52 153.32 161.30 154.33 161.26 C 155.35 161.22 156.13 160.36 156.09 159.35 L 156.05 158.35 C 156.00 157.33 155.15 156.55 154.13 156.59 C 153.12 156.63 152.33 157.49 152.38 158.50 Z M 152.42 159.50 L 152.46 160.51 C 152.50 161.52 153.36 162.31 154.37 162.27 C 155.38 162.22 156.17 161.37 156.13 160.36 L 156.09 159.35 C 156.05 158.34 155.19 157.55 154.18 157.59 C 153.17 157.63 152.38 158.49 152.42 159.50 Z M 152.46 160.50 L 152.50 161.51 C 152.54 162.52 153.40 163.31 154.41 163.27 C 155.42 163.23 156.21 162.38 156.17 161.37 L 156.13 160.36 C 156.09 159.35 155.24 158.56 154.22 158.60 C 153.21 158.64 152.42 159.49 152.46 160.50 Z M 152.51 161.51 L 152.54 162.51 C 152.58 163.52 153.43 164.31 154.44 164.27 C 155.45 164.23 156.24 163.38 156.20 162.37 L 156.17 161.37 C 156.13 160.36 155.28 159.57 154.27 159.61 C 153.26 159.65 152.47 160.50 152.51 161.51 Z M 152.54 162.50 L 152.58 163.50 C 152.61 164.51 153.46 165.30 154.47 165.27 C 155.48 165.24 156.27 164.39 156.24 163.38 L 156.20 162.38 C 156.17 161.37 155.32 160.58 154.31 160.61 C 153.30 160.65 152.51 161.50 152.54 162.50 Z M 152.58 163.50 L 152.61 164.52 C 152.64 165.53 153.49 166.32 154.50 166.29 C 155.51 166.26 156.30 165.42 156.27 164.41 L 156.23 163.38 C 156.20 162.38 155.36 161.58 154.35 161.62 C 153.34 161.65 152.55 162.49 152.58 163.50 Z M 152.62 164.52 L 152.64 165.53 C 152.67 166.54 153.51 167.33 154.52 167.30 C 155.53 167.27 156.32 166.43 156.29 165.42 L 156.26 164.41 C 156.23 163.41 155.39 162.61 154.39 162.64 C 153.38 162.67 152.59 163.51 152.62 164.52 Z M 152.65 165.52 L 152.67 166.52 C 152.70 167.53 153.54 168.32 154.54 168.30 C 155.55 168.27 156.34 167.43 156.32 166.43 L 156.29 165.43 C 156.26 164.42 155.43 163.63 154.42 163.66 C 153.41 163.68 152.62 164.52 152.65 165.52 Z M 152.68 166.52 L 152.70 167.51 C 152.73 168.52 153.56 169.31 154.56 169.28 C 155.57 169.26 156.36 168.42 156.34 167.42 L 156.31 166.43 C 156.29 165.43 155.45 164.63 154.45 164.66 C 153.45 164.68 152.65 165.52 152.68 166.52 Z M 152.70 167.51 L 152.73 168.49 C 152.75 169.49 153.58 170.29 154.59 170.26 C 155.59 170.24 156.38 169.41 156.36 168.40 L 156.34 167.42 C 156.31 166.42 155.48 165.63 154.48 165.65 C 153.47 165.67 152.68 166.51 152.70 167.51 Z M 152.73 168.49 L 152.75 169.48 C 152.78 170.49 153.61 171.28 154.61 171.25 C 155.61 171.23 156.40 170.40 156.38 169.40 L 156.36 168.41 C 156.33 167.40 155.50 166.61 154.50 166.63 C 153.50 166.66 152.71 167.49 152.73 168.49 Z M 152.76 169.48 L 152.78 170.50 C 152.80 171.50 153.63 172.29 154.63 172.27 C 155.63 172.24 156.42 171.41 156.40 170.41 L 156.38 169.40 C 156.35 168.40 155.52 167.61 154.52 167.63 C 153.52 167.65 152.73 168.48 152.76 169.48 Z M 152.78 170.50 L 152.81 171.51 C 152.83 172.51 153.66 173.30 154.66 173.27 C 155.66 173.25 156.44 172.42 156.42 171.42 L 156.40 170.41 C 156.37 169.42 155.55 168.63 154.55 168.65 C 153.55 168.67 152.76 169.50 152.78 170.50 Z M 152.81 171.51 L 152.83 172.51 C 152.86 173.51 153.69 174.29 154.68 174.27 C 155.68 174.25 156.47 173.42 156.44 172.42 L 156.42 171.42 C 156.39 170.43 155.57 169.64 154.57 169.66 C 153.57 169.69 152.79 170.51 152.81 171.51 Z M 152.84 172.51 L 152.86 173.50 C 152.89 174.50 153.71 175.28 154.71 175.26 C 155.70 175.23 156.49 174.41 156.46 173.41 L 156.44 172.42 C 156.41 171.43 155.59 170.64 154.59 170.67 C 153.60 170.69 152.81 171.52 152.84 172.51 Z M 152.86 173.50 L 152.89 174.48 C 152.91 175.47 153.74 176.26 154.73 176.23 C 155.72 176.21 156.51 175.39 156.48 174.39 L 156.46 173.41 C 156.44 172.42 155.61 171.64 154.62 171.66 C 153.63 171.68 152.84 172.51 152.86 173.50 Z M 152.89 174.48 L 152.92 175.50 C 152.94 176.50 153.77 177.28 154.76 177.25 C 155.75 177.23 156.53 176.41 156.51 175.42 L 156.48 174.39 C 156.46 173.40 155.63 172.62 154.64 172.64 C 153.65 172.67 152.87 173.49 152.89 174.48 Z M 152.92 175.50 L 152.95 176.52 C 152.97 177.51 153.79 178.29 154.78 178.27 C 155.77 178.24 156.55 177.42 156.53 176.43 L 156.50 175.41 C 156.48 174.43 155.66 173.64 154.67 173.67 C 153.68 173.69 152.90 174.52 152.92 175.50 Z M 152.95 176.52 L 152.98 177.53 C 153.00 178.51 153.82 179.29 154.81 179.27 C 155.79 179.24 156.57 178.42 156.55 177.44 L 156.52 176.43 C 156.50 175.45 155.68 174.67 154.69 174.69 C 153.70 174.72 152.93 175.54 152.95 176.52 Z M 152.98 177.53 L 153.01 178.52 C 153.03 179.50 153.85 180.28 154.83 180.25 C 155.82 180.23 156.60 179.41 156.57 178.42 L 156.55 177.43 C 156.52 176.45 155.70 175.67 154.72 175.70 C 153.73 175.72 152.95 176.54 152.98 177.53 Z M 153.01 178.52 L 153.04 179.49 C 153.06 180.47 153.88 181.25 154.86 181.22 C 155.84 181.20 156.62 180.38 156.59 179.40 L 156.57 178.42 C 156.54 177.44 155.72 176.67 154.74 176.69 C 153.76 176.72 152.98 177.53 153.01 178.52 Z M 153.04 179.49 L 153.07 180.51 C 153.09 181.49 153.91 182.26 154.89 182.24 C 155.87 182.21 156.64 181.39 156.62 180.41 L 156.59 179.40 C 156.56 178.42 155.75 177.64 154.77 177.67 C 153.79 177.70 153.01 178.51 153.04 179.49 Z M 153.07 180.51 L 153.10 181.54 C 153.12 182.51 153.94 183.28 154.91 183.26 C 155.89 183.23 156.66 182.42 156.64 181.44 L 156.61 180.41 C 156.58 179.44 155.77 178.67 154.79 178.69 C 153.82 178.72 153.05 179.53 153.07 180.51 Z M 153.10 181.53 L 153.13 182.54 C 153.15 183.51 153.96 184.28 154.94 184.26 C 155.91 184.24 156.68 183.43 156.66 182.45 L 156.63 181.45 C 156.61 180.47 155.80 179.70 154.82 179.73 C 153.85 179.75 153.08 180.56 153.10 181.53 Z M 153.13 182.54 L 153.16 183.52 C 153.18 184.49 153.98 185.26 154.95 185.24 C 155.93 185.22 156.70 184.41 156.67 183.44 L 156.65 182.46 C 156.63 181.49 155.83 180.72 154.85 180.74 C 153.88 180.76 153.11 181.56 153.13 182.54 Z M 153.16 183.51 L 153.18 184.46 C 153.20 185.43 153.99 186.20 154.96 186.19 C 155.93 186.17 156.70 185.37 156.69 184.40 L 156.67 183.45 C 156.65 182.48 155.85 181.71 154.88 181.72 C 153.92 181.74 153.14 182.54 153.16 183.51 Z M 153.18 184.45 L 153.20 185.49 C 153.21 186.45 154.00 187.22 154.97 187.21 C 155.93 187.20 156.70 186.41 156.69 185.44 L 156.68 184.41 C 156.67 183.45 155.88 182.67 154.91 182.69 C 153.95 182.70 153.17 183.49 153.18 184.45 Z M 153.21 185.48 L 153.21 186.48 C 153.22 187.44 154.00 188.22 154.96 188.21 C 155.92 188.20 156.70 187.42 156.69 186.46 L 156.68 185.45 C 156.68 184.49 155.89 183.72 154.93 183.72 C 153.97 183.73 153.20 184.52 153.21 185.48 Z M 153.22 186.48 L 153.22 187.47 C 153.23 188.42 154.00 189.19 154.96 189.19 C 155.92 189.19 156.69 188.41 156.69 187.46 L 156.68 186.47 C 156.68 185.51 155.90 184.74 154.95 184.74 C 153.99 184.74 153.22 185.52 153.22 186.48 Z M 153.23 187.46 L 153.23 188.44 C 153.23 189.39 154.00 190.16 154.96 190.16 C 155.91 190.16 156.68 189.39 156.68 188.44 L 156.68 187.46 C 156.68 186.51 155.90 185.74 154.95 185.74 C 154.00 185.74 153.23 186.51 153.23 187.46 Z M 153.24 188.44 L 153.24 189.40 C 153.24 190.34 154.01 191.11 154.96 191.11 C 155.90 191.11 156.67 190.34 156.67 189.40 L 156.67 188.44 C 156.67 187.49 155.90 186.72 154.95 186.72 C 154.01 186.72 153.24 187.49 153.24 188.44 Z M 153.25 189.41 L 153.26 190.38 C 153.27 191.32 154.04 192.07 154.98 192.07 C 155.92 192.06 156.68 191.29 156.67 190.35 L 156.66 189.38 C 156.65 188.44 155.88 187.68 154.94 187.69 C 154.00 187.70 153.24 188.47 153.25 189.41 Z M 153.27 190.41 L 153.30 191.40 C 153.33 192.34 154.11 193.07 155.04 193.04 C 155.98 193.02 156.71 192.24 156.69 191.30 L 156.66 190.31 C 156.63 189.38 155.85 188.64 154.92 188.67 C 153.98 188.70 153.24 189.48 153.27 190.41 Z M 153.31 191.45 L 153.37 192.48 C 153.43 193.41 154.22 194.12 155.15 194.06 C 156.08 194.01 156.79 193.21 156.73 192.28 L 156.67 191.25 C 156.62 190.32 155.82 189.62 154.90 189.67 C 153.97 189.72 153.26 190.52 153.31 191.45 Z M 153.39 192.54 L 153.48 193.55 C 153.57 194.47 154.38 195.15 155.30 195.06 C 156.22 194.97 156.90 194.16 156.81 193.24 L 156.72 192.23 C 156.63 191.30 155.82 190.63 154.90 190.71 C 153.98 190.80 153.30 191.62 153.39 192.54 Z M 153.50 193.60 L 153.61 194.55 C 153.73 195.46 154.56 196.11 155.47 195.99 C 156.39 195.88 157.03 195.05 156.92 194.13 L 156.80 193.19 C 156.69 192.27 155.86 191.63 154.94 191.74 C 154.03 191.85 153.38 192.69 153.50 193.60 Z M 153.62 194.58 L 153.77 195.56 C 153.90 196.47 154.74 197.10 155.65 196.96 C 156.56 196.83 157.18 195.99 157.05 195.08 L 156.91 194.10 C 156.78 193.19 155.93 192.57 155.03 192.70 C 154.12 192.83 153.49 193.67 153.62 194.58 Z M 153.78 195.58 L 153.94 196.59 C 154.09 197.49 154.93 198.10 155.84 197.96 C 156.74 197.81 157.35 196.96 157.20 196.06 L 157.04 195.06 C 156.90 194.16 156.05 193.54 155.15 193.69 C 154.25 193.83 153.63 194.68 153.78 195.58 Z M 153.95 196.60 L 154.12 197.62 C 154.28 198.52 155.13 199.12 156.02 198.97 C 156.92 198.81 157.52 197.96 157.37 197.07 L 157.19 196.05 C 157.04 195.15 156.19 194.55 155.30 194.70 C 154.40 194.86 153.80 195.71 153.95 196.60 Z M 154.13 197.63 L 154.27 198.41 C 154.42 199.31 155.27 199.90 156.16 199.75 C 157.06 199.59 157.65 198.74 157.50 197.85 L 157.36 197.06 C 157.21 196.17 156.36 195.57 155.46 195.73 C 154.57 195.89 153.98 196.73 154.13 197.63 Z"
      fill="black"
      fill-rule="nonzero" /></svg>