<svg xmlns="http://www.w3.org/2000/svg" width="300" height="300" viewBox="0 0 300 300">
<path d="M 106.35 123.93 L 107.30 123.56 C 108.23 123.19 108.68 122.14 108.31 121.21 C 107.94 120.28 106.89 119.82 105.96 120.19 L 105.02 120.57 C 104.09 120.94 103.63 121.99 104.00 122.92 C 104.37 123.85 105.42 124.30 106.35 123.93 Z M 107.28 123.58 L 108.22 123.22 C 109.16 122.87 109.63 121.81 109.28 120.87 C 108.92 119.93 107.87 119.46 106.93 119.81 L 105.98 120.17 C 105.04 120.53 104.57 121.58 104.92 122.52 C 105.28 123.46 106.33 123.94 107.28 123.58 Z M 108.17 123.26 L 109.10 122.94 C 110.06 122.61 110.57 121.56 110.25 120.60 C 109.92 119.64 108.87 119.13 107.91 119.46 L 106.98 119.78 C 106.02 120.11 105.51 121.15 105.83 122.11 C 106.16 123.07 107.21 123.58 108.17 123.26 Z M 109.02 122.97 L 109.91 122.72 C 110.89 122.43 111.46 121.41 111.17 120.43 C 110.89 119.45 109.87 118.88 108.89 119.17 L 108.00 119.42 C 107.02 119.70 106.45 120.73 106.73 121.71 C 107.01 122.69 108.04 123.25 109.02 122.97 Z M 109.82 122.74 L 110.70 122.54 C 111.69 122.30 112.31 121.31 112.08 120.31 C 111.84 119.32 110.85 118.70 109.85 118.93 L 108.98 119.14 C 107.98 119.37 107.37 120.37 107.60 121.36 C 107.83 122.36 108.83 122.98 109.82 122.74 Z M 110.65 122.55 L 111.61 122.35 C 112.61 122.14 113.25 121.16 113.04 120.16 C 112.83 119.16 111.85 118.52 110.85 118.72 L 109.90 118.92 C 108.90 119.13 108.26 120.11 108.46 121.11 C 108.67 122.11 109.65 122.75 110.65 122.55 Z M 111.60 122.35 L 112.69 122.13 C 113.69 121.93 114.34 120.95 114.13 119.95 C 113.93 118.95 112.95 118.30 111.95 118.50 L 110.86 118.72 C 109.86 118.93 109.21 119.90 109.42 120.91 C 109.62 121.91 110.60 122.55 111.60 122.35 Z M 112.70 122.13 L 113.68 121.92 C 114.68 121.70 115.32 120.72 115.11 119.72 C 114.90 118.72 113.91 118.08 112.91 118.30 L 111.93 118.50 C 110.93 118.72 110.29 119.70 110.51 120.70 C 110.72 121.70 111.70 122.34 112.70 122.13 Z M 113.70 121.91 L 114.65 121.70 C 115.65 121.48 116.27 120.49 116.05 119.49 C 115.83 118.50 114.84 117.87 113.84 118.09 L 112.90 118.30 C 111.90 118.52 111.27 119.51 111.49 120.51 C 111.71 121.51 112.70 122.14 113.70 121.91 Z M 114.66 121.70 L 115.66 121.47 C 116.65 121.24 117.27 120.24 117.04 119.25 C 116.81 118.25 115.82 117.63 114.82 117.86 L 113.83 118.09 C 112.83 118.32 112.21 119.32 112.44 120.31 C 112.67 121.31 113.67 121.93 114.66 121.70 Z M 115.67 121.47 L 116.69 121.22 C 117.68 120.98 118.29 119.98 118.05 118.99 C 117.81 117.99 116.81 117.38 115.82 117.62 L 114.81 117.87 C 113.81 118.10 113.20 119.10 113.44 120.10 C 113.68 121.09 114.68 121.70 115.67 121.47 Z M 116.70 121.22 L 117.71 120.97 C 118.70 120.72 119.30 119.71 119.05 118.72 C 118.80 117.73 117.80 117.13 116.81 117.37 L 115.80 117.63 C 114.81 117.87 114.21 118.88 114.46 119.87 C 114.70 120.86 115.71 121.47 116.70 121.22 Z M 117.73 120.96 L 118.69 120.71 C 119.68 120.45 120.27 119.44 120.01 118.45 C 119.76 117.46 118.74 116.87 117.75 117.13 L 116.79 117.38 C 115.80 117.64 115.21 118.65 115.47 119.64 C 115.72 120.63 116.74 121.22 117.73 120.96 Z M 118.71 120.70 L 119.63 120.45 C 120.62 120.18 121.20 119.16 120.93 118.17 C 120.66 117.19 119.64 116.61 118.65 116.88 L 117.73 117.13 C 116.75 117.40 116.17 118.42 116.44 119.41 C 116.71 120.39 117.73 120.97 118.71 120.70 Z M 119.66 120.44 L 120.55 120.18 C 121.54 119.90 122.10 118.87 121.82 117.89 C 121.53 116.91 120.51 116.34 119.52 116.63 L 118.63 116.89 C 117.65 117.17 117.08 118.20 117.36 119.18 C 117.65 120.16 118.68 120.73 119.66 120.44 Z M 120.58 120.18 L 121.48 119.90 C 122.46 119.60 123.02 118.57 122.72 117.59 C 122.42 116.61 121.39 116.06 120.41 116.36 L 119.50 116.63 C 118.52 116.93 117.97 117.96 118.27 118.94 C 118.56 119.92 119.60 120.47 120.58 120.18 Z M 121.50 119.90 L 122.46 119.59 C 123.44 119.29 123.98 118.25 123.67 117.27 C 123.37 116.30 122.33 115.76 121.35 116.06 L 120.39 116.36 C 119.42 116.67 118.87 117.71 119.18 118.69 C 119.49 119.66 120.53 120.20 121.50 119.90 Z M 122.47 119.59 L 123.52 119.25 C 124.49 118.94 125.03 117.90 124.71 116.92 C 124.40 115.95 123.36 115.42 122.38 115.73 L 121.34 116.07 C 120.36 116.38 119.83 117.42 120.14 118.40 C 120.46 119.37 121.50 119.90 122.47 119.59 Z M 123.53 119.25 L 124.50 118.93 C 125.48 118.61 126.01 117.57 125.69 116.60 C 125.37 115.63 124.33 115.09 123.35 115.41 L 122.38 115.73 C 121.40 116.05 120.87 117.09 121.19 118.07 C 121.51 119.04 122.55 119.57 123.53 119.25 Z M 124.51 118.93 L 125.46 118.62 C 126.43 118.30 126.96 117.26 126.64 116.28 C 126.32 115.31 125.28 114.78 124.30 115.10 L 123.35 115.41 C 122.38 115.73 121.85 116.78 122.17 117.75 C 122.49 118.72 123.53 119.25 124.51 118.93 Z M 125.45 118.62 L 126.45 118.30 C 127.42 117.98 127.95 116.93 127.63 115.96 C 127.31 114.99 126.27 114.46 125.30 114.78 L 124.31 115.10 C 123.33 115.42 122.80 116.46 123.12 117.43 C 123.44 118.41 124.48 118.94 125.45 118.62 Z M 126.44 118.30 L 127.45 117.97 C 128.42 117.66 128.95 116.62 128.64 115.64 C 128.32 114.67 127.28 114.14 126.31 114.45 L 125.30 114.78 C 124.33 115.09 123.80 116.13 124.11 117.11 C 124.42 118.08 125.47 118.61 126.44 118.30 Z M 127.44 117.97 L 128.43 117.66 C 129.41 117.35 129.95 116.31 129.64 115.33 C 129.33 114.36 128.29 113.82 127.31 114.13 L 126.32 114.45 C 125.34 114.76 124.80 115.80 125.11 116.77 C 125.42 117.75 126.46 118.28 127.44 117.97 Z M 128.42 117.66 L 129.38 117.36 C 130.36 117.06 130.91 116.02 130.60 115.05 C 130.30 114.07 129.26 113.53 128.29 113.83 L 127.33 114.13 C 126.35 114.43 125.80 115.47 126.11 116.44 C 126.41 117.42 127.44 117.96 128.42 117.66 Z M 129.36 117.37 L 130.27 117.10 C 131.25 116.81 131.81 115.78 131.51 114.80 C 131.22 113.82 130.19 113.26 129.21 113.55 L 128.31 113.83 C 127.33 114.12 126.77 115.15 127.06 116.13 C 127.36 117.10 128.39 117.66 129.36 117.37 Z M 130.24 117.11 L 131.36 116.80 C 132.34 116.53 132.92 115.51 132.65 114.52 C 132.37 113.54 131.35 112.96 130.37 113.23 L 129.25 113.54 C 128.26 113.81 127.68 114.84 127.96 115.82 C 128.23 116.81 129.25 117.38 130.24 117.11 Z M 131.26 116.84 L 132.48 116.57 C 133.48 116.36 134.12 115.36 133.90 114.36 C 133.68 113.35 132.69 112.72 131.69 112.93 L 130.47 113.20 C 129.46 113.41 128.83 114.40 129.04 115.41 C 129.26 116.41 130.25 117.05 131.26 116.84 Z M 132.20 116.63 L 133.14 116.57 C 134.17 116.50 134.96 115.61 134.89 114.58 C 134.83 113.54 133.94 112.76 132.90 112.82 L 131.96 112.88 C 130.93 112.95 130.14 113.84 130.21 114.87 C 130.27 115.90 131.17 116.69 132.20 116.63 Z M 132.53 116.52 L 133.22 116.70 C 134.23 116.97 135.26 116.37 135.53 115.37 C 135.80 114.36 135.20 113.32 134.19 113.05 L 133.51 112.87 C 132.50 112.60 131.46 113.20 131.19 114.20 C 130.92 115.21 131.52 116.25 132.53 116.52 Z M 132.35 116.21 L 132.83 116.70 C 133.57 117.45 134.77 117.45 135.52 116.71 C 136.27 115.98 136.28 114.77 135.54 114.02 L 135.06 113.54 C 134.32 112.79 133.12 112.79 132.37 113.52 C 131.62 114.26 131.61 115.47 132.35 116.21 Z M 132.39 116.01 L 132.67 116.81 C 133.04 117.80 134.13 118.31 135.12 117.95 C 136.12 117.59 136.63 116.49 136.27 115.50 L 135.98 114.71 C 135.62 113.71 134.52 113.20 133.53 113.56 C 132.54 113.92 132.02 115.02 132.39 116.01 Z M 132.57 116.41 L 132.71 117.44 C 132.85 118.50 133.82 119.23 134.87 119.09 C 135.92 118.95 136.66 117.98 136.51 116.93 L 136.37 115.90 C 136.23 114.84 135.26 114.11 134.21 114.25 C 133.16 114.39 132.43 115.36 132.57 116.41 Z M 132.68 117.26 L 132.73 118.48 C 132.77 119.55 133.67 120.37 134.74 120.33 C 135.80 120.29 136.63 119.39 136.59 118.33 L 136.54 117.11 C 136.50 116.05 135.60 115.22 134.53 115.26 C 133.47 115.30 132.64 116.20 132.68 117.26 Z M 132.73 118.42 L 132.73 119.41 C 132.74 120.48 133.61 121.34 134.68 121.33 C 135.75 121.32 136.61 120.45 136.60 119.38 L 136.59 118.39 C 136.59 117.32 135.71 116.46 134.65 116.47 C 133.58 116.48 132.72 117.35 132.73 118.42 Z M 132.73 119.37 L 132.72 120.37 C 132.71 121.44 133.57 122.31 134.64 122.33 C 135.71 122.34 136.58 121.48 136.59 120.41 L 136.60 119.41 C 136.61 118.34 135.76 117.47 134.69 117.46 C 133.62 117.45 132.74 118.30 132.73 119.37 Z M 132.72 120.33 L 132.69 121.35 C 132.66 122.42 133.50 123.32 134.57 123.35 C 135.64 123.38 136.54 122.53 136.57 121.46 L 136.60 120.44 C 136.63 119.37 135.78 118.48 134.71 118.45 C 133.64 118.42 132.75 119.26 132.72 120.33 Z M 132.69 121.31 L 132.64 122.33 C 132.58 123.40 133.41 124.32 134.48 124.37 C 135.55 124.42 136.47 123.59 136.52 122.52 L 136.57 121.50 C 136.62 120.43 135.79 119.52 134.72 119.47 C 133.65 119.41 132.74 120.24 132.69 121.31 Z M 132.64 122.29 L 132.56 123.29 C 132.49 124.36 133.29 125.30 134.37 125.37 C 135.44 125.45 136.37 124.64 136.45 123.57 L 136.52 122.57 C 136.60 121.50 135.79 120.56 134.72 120.49 C 133.65 120.41 132.71 121.22 132.64 122.29 Z M 132.57 123.24 L 132.48 124.15 C 132.37 125.22 133.15 126.17 134.22 126.28 C 135.30 126.38 136.25 125.60 136.35 124.53 L 136.44 123.62 C 136.55 122.55 135.77 121.60 134.70 121.49 C 133.63 121.39 132.67 122.17 132.57 123.24 Z M 132.48 124.10 L 132.37 124.98 C 132.24 126.05 133.00 127.02 134.07 127.15 C 135.14 127.28 136.11 126.52 136.24 125.45 L 136.35 124.57 C 136.48 123.51 135.72 122.53 134.65 122.40 C 133.58 122.27 132.61 123.03 132.48 124.10 Z M 132.38 124.95 L 132.25 125.86 C 132.10 126.92 132.85 127.91 133.91 128.06 C 134.98 128.21 135.96 127.46 136.11 126.39 L 136.24 125.48 C 136.39 124.42 135.64 123.43 134.58 123.28 C 133.51 123.14 132.53 123.88 132.38 124.95 Z M 132.25 125.84 L 132.11 126.81 C 131.95 127.88 132.68 128.87 133.75 129.03 C 134.82 129.19 135.81 128.45 135.97 127.39 L 136.11 126.41 C 136.27 125.35 135.53 124.35 134.47 124.19 C 133.40 124.04 132.41 124.77 132.25 125.84 Z M 132.11 126.81 L 131.94 127.89 C 131.78 128.96 132.52 129.95 133.58 130.11 C 134.65 130.27 135.64 129.54 135.80 128.47 L 135.97 127.39 C 136.13 126.33 135.39 125.33 134.33 125.17 C 133.26 125.01 132.27 125.74 132.11 126.81 Z M 131.94 127.90 L 131.77 129.08 C 131.61 130.14 132.35 131.14 133.41 131.30 C 134.48 131.45 135.47 130.72 135.63 129.65 L 135.81 128.47 C 135.96 127.40 135.23 126.41 134.16 126.25 C 133.09 126.09 132.10 126.83 131.94 127.90 Z M 131.76 129.09 L 131.63 130.00 C 131.48 131.06 132.22 132.05 133.29 132.21 C 134.36 132.36 135.35 131.62 135.50 130.55 L 135.63 129.64 C 135.79 128.57 135.04 127.58 133.98 127.43 C 132.91 127.28 131.92 128.02 131.76 129.09 Z M 131.63 130.00 L 131.50 130.97 C 131.35 132.04 132.10 133.03 133.17 133.18 C 134.23 133.32 135.22 132.58 135.37 131.51 L 135.51 130.54 C 135.65 129.47 134.91 128.48 133.84 128.33 C 132.77 128.19 131.78 128.93 131.63 130.00 Z M 131.50 130.98 L 131.36 131.99 C 131.21 133.06 131.96 134.04 133.03 134.19 C 134.11 134.33 135.09 133.58 135.24 132.51 L 135.37 131.50 C 135.52 130.43 134.77 129.45 133.70 129.30 C 132.63 129.16 131.64 129.91 131.50 130.98 Z M 131.36 131.99 L 131.22 133.03 C 131.08 134.10 131.83 135.08 132.90 135.23 C 133.98 135.37 134.96 134.61 135.10 133.54 L 135.24 132.51 C 135.38 131.43 134.63 130.45 133.55 130.31 C 132.48 130.17 131.50 130.92 131.36 131.99 Z M 131.22 133.04 L 131.08 134.08 C 130.95 135.15 131.70 136.13 132.78 136.27 C 133.85 136.41 134.83 135.65 134.97 134.58 L 135.10 133.54 C 135.24 132.46 134.48 131.48 133.41 131.34 C 132.34 131.21 131.36 131.96 131.22 133.04 Z M 131.08 134.08 L 130.95 135.12 C 130.82 136.19 131.58 137.17 132.65 137.31 C 133.73 137.44 134.71 136.68 134.84 135.61 L 134.97 134.57 C 135.10 133.50 134.34 132.52 133.27 132.38 C 132.20 132.25 131.22 133.01 131.08 134.08 Z M 130.95 135.13 L 130.83 136.13 C 130.70 137.21 131.46 138.18 132.54 138.31 C 133.61 138.44 134.59 137.68 134.72 136.60 L 134.84 135.60 C 134.97 134.52 134.21 133.55 133.13 133.42 C 132.06 133.29 131.08 134.05 130.95 135.13 Z M 130.83 136.14 L 130.72 137.10 C 130.59 138.18 131.36 139.15 132.44 139.28 C 133.51 139.40 134.48 138.63 134.61 137.56 L 134.72 136.60 C 134.85 135.52 134.08 134.55 133.00 134.42 C 131.93 134.30 130.95 135.07 130.83 136.14 Z M 130.71 137.12 L 130.59 138.23 C 130.47 139.30 131.25 140.27 132.33 140.39 C 133.40 140.51 134.37 139.73 134.49 138.66 L 134.61 137.55 C 134.73 136.47 133.95 135.50 132.88 135.38 C 131.80 135.26 130.83 136.04 130.71 137.12 Z M 130.59 138.25 L 130.48 139.36 C 130.37 140.44 131.15 141.40 132.23 141.51 C 133.31 141.62 134.27 140.83 134.38 139.76 L 134.49 138.64 C 134.60 137.56 133.82 136.60 132.74 136.49 C 131.66 136.38 130.70 137.17 130.59 138.25 Z M 130.47 139.38 L 130.38 140.41 C 130.28 141.49 131.08 142.44 132.16 142.54 C 133.24 142.64 134.19 141.84 134.29 140.76 L 134.38 139.74 C 134.48 138.66 133.68 137.70 132.60 137.61 C 131.52 137.51 130.57 138.31 130.47 139.38 Z M 130.38 140.44 L 130.31 141.39 C 130.22 142.47 131.03 143.42 132.11 143.50 C 133.19 143.58 134.13 142.78 134.22 141.70 L 134.29 140.74 C 134.37 139.66 133.57 138.71 132.49 138.63 C 131.41 138.55 130.46 139.36 130.38 140.44 Z M 130.30 141.42 L 130.25 142.33 C 130.18 143.41 131.00 144.35 132.08 144.41 C 133.16 144.48 134.09 143.66 134.16 142.58 L 134.22 141.67 C 134.29 140.59 133.47 139.66 132.38 139.59 C 131.30 139.52 130.37 140.34 130.30 141.42 Z M 130.24 142.36 L 130.20 143.25 C 130.15 144.33 130.98 145.25 132.06 145.30 C 133.14 145.36 134.06 144.52 134.12 143.44 L 134.16 142.55 C 134.22 141.47 133.38 140.55 132.30 140.50 C 131.22 140.44 130.30 141.28 130.24 142.36 Z M 130.20 143.27 L 130.16 144.21 C 130.13 145.29 130.97 146.20 132.05 146.24 C 133.14 146.28 134.05 145.44 134.09 144.35 L 134.12 143.42 C 134.16 142.33 133.31 141.42 132.23 141.38 C 131.15 141.34 130.24 142.19 130.20 143.27 Z M 130.16 144.23 L 130.14 145.23 C 130.11 146.32 130.97 147.21 132.05 147.24 C 133.14 147.27 134.04 146.41 134.06 145.33 L 134.09 144.33 C 134.11 143.25 133.26 142.35 132.17 142.32 C 131.09 142.29 130.19 143.15 130.16 144.23 Z M 130.14 145.25 L 130.12 146.25 C 130.11 147.34 130.97 148.23 132.06 148.24 C 133.14 148.26 134.03 147.39 134.05 146.31 L 134.06 145.31 C 134.08 144.23 133.21 143.33 132.13 143.32 C 131.05 143.30 130.16 144.17 130.14 145.25 Z M 130.12 146.27 L 130.12 147.27 C 130.11 148.36 130.98 149.24 132.06 149.25 C 133.15 149.26 134.03 148.38 134.04 147.30 L 134.05 146.30 C 134.06 145.21 133.18 144.33 132.10 144.32 C 131.02 144.31 130.13 145.18 130.12 146.27 Z M 130.12 147.28 L 130.11 148.28 C 130.11 149.37 130.99 150.25 132.07 150.25 C 133.15 150.25 134.03 149.38 134.04 148.29 L 134.04 147.29 C 134.04 146.21 133.17 145.33 132.08 145.33 C 131.00 145.32 130.12 146.20 130.12 147.28 Z M 130.11 148.29 L 130.11 149.28 C 130.11 150.37 130.99 151.24 132.07 151.25 C 133.16 151.25 134.04 150.37 134.04 149.28 L 134.04 148.29 C 134.04 147.21 133.16 146.33 132.08 146.33 C 130.99 146.33 130.11 147.20 130.11 148.29 Z M 130.11 149.28 L 130.11 150.28 C 130.11 151.37 130.99 152.25 132.08 152.25 C 133.16 152.25 134.04 151.37 134.04 150.28 L 134.04 149.28 C 134.04 148.20 133.16 147.32 132.07 147.32 C 130.99 147.32 130.11 148.20 130.11 149.28 Z M 130.11 150.29 L 130.11 151.28 C 130.12 152.36 131.00 153.24 132.08 153.24 C 133.16 153.24 134.04 152.36 134.04 151.28 L 134.04 150.28 C 134.04 149.20 133.16 148.32 132.07 148.32 C 130.99 148.32 130.11 149.20 130.11 150.29 Z M 130.11 151.28 L 130.12 152.28 C 130.12 153.36 131.00 154.24 132.08 154.24 C 133.17 154.23 134.04 153.35 134.04 152.27 L 134.04 151.27 C 134.04 150.19 133.15 149.31 132.07 149.32 C 130.99 149.32 130.11 150.20 130.11 151.28 Z M 130.12 152.28 L 130.12 153.28 C 130.13 154.37 131.01 155.24 132.09 155.23 C 133.18 155.23 134.05 154.35 134.05 153.26 L 134.04 152.26 C 134.03 151.18 133.15 150.31 132.07 150.31 C 130.99 150.32 130.11 151.20 130.12 152.28 Z M 130.12 153.29 L 130.13 154.29 C 130.14 155.38 131.03 156.25 132.11 156.24 C 133.19 156.23 134.06 155.34 134.05 154.26 L 134.05 153.26 C 134.04 152.17 133.15 151.30 132.07 151.31 C 130.98 151.32 130.11 152.21 130.12 153.29 Z M 130.13 154.30 L 130.14 155.34 C 130.16 156.43 131.05 157.29 132.13 157.28 C 133.21 157.27 134.08 156.38 134.07 155.29 L 134.05 154.25 C 134.04 153.17 133.15 152.30 132.07 152.32 C 130.98 152.33 130.12 153.22 130.13 154.30 Z M 130.14 155.35 L 130.16 156.41 C 130.18 157.49 131.08 158.36 132.16 158.34 C 133.24 158.32 134.11 157.42 134.09 156.34 L 134.07 155.28 C 134.05 154.20 133.15 153.34 132.07 153.36 C 130.99 153.37 130.12 154.27 130.14 155.35 Z M 130.16 156.42 L 130.19 157.46 C 130.21 158.55 131.11 159.40 132.20 159.38 C 133.28 159.35 134.14 158.45 134.11 157.37 L 134.09 156.33 C 134.06 155.24 133.16 154.39 132.08 154.41 C 130.99 154.44 130.14 155.34 130.16 156.42 Z M 130.19 157.48 L 130.22 158.48 C 130.25 159.56 131.16 160.41 132.25 160.38 C 133.33 160.34 134.18 159.44 134.14 158.35 L 134.11 157.35 C 134.08 156.27 133.17 155.42 132.09 155.45 C 131.00 155.49 130.15 156.39 130.19 157.48 Z M 130.22 158.50 L 130.26 159.44 C 130.31 160.52 131.22 161.37 132.31 161.32 C 133.39 161.27 134.23 160.36 134.19 159.27 L 134.14 158.33 C 134.10 157.25 133.18 156.41 132.10 156.45 C 131.01 156.50 130.17 157.42 130.22 158.50 Z M 130.26 159.47 L 130.32 160.43 C 130.38 161.51 131.31 162.34 132.39 162.28 C 133.48 162.21 134.30 161.28 134.24 160.20 L 134.18 159.24 C 134.12 158.16 133.19 157.33 132.11 157.39 C 131.02 157.46 130.20 158.39 130.26 159.47 Z M 130.32 160.48 L 130.41 161.49 C 130.50 162.57 131.45 163.38 132.53 163.28 C 133.62 163.19 134.42 162.24 134.32 161.15 L 134.24 160.15 C 134.14 159.06 133.19 158.26 132.11 158.35 C 131.03 158.45 130.23 159.40 130.32 160.48 Z M 130.41 161.57 L 130.53 162.52 C 130.67 163.60 131.66 164.36 132.74 164.22 C 133.81 164.09 134.58 163.10 134.44 162.02 L 134.32 161.07 C 134.18 160.00 133.19 159.23 132.12 159.37 C 131.04 159.51 130.28 160.49 130.41 161.57 Z M 130.55 162.61 L 130.71 163.57 C 130.90 164.64 131.92 165.36 132.99 165.17 C 134.07 164.98 134.78 163.96 134.59 162.89 L 134.43 161.93 C 134.24 160.86 133.22 160.14 132.15 160.33 C 131.08 160.52 130.36 161.54 130.55 162.61 Z M 130.73 163.65 L 130.94 164.60 C 131.17 165.67 132.22 166.34 133.28 166.11 C 134.34 165.88 135.02 164.83 134.79 163.77 L 134.58 162.81 C 134.35 161.75 133.30 161.07 132.24 161.30 C 131.17 161.53 130.50 162.58 130.73 163.65 Z M 130.95 164.66 L 131.18 165.58 C 131.44 166.63 132.51 167.28 133.56 167.01 C 134.62 166.75 135.26 165.68 135.00 164.63 L 134.78 163.71 C 134.51 162.65 133.44 162.01 132.39 162.27 C 131.33 162.54 130.69 163.61 130.95 164.66 Z M 131.19 165.63 L 131.45 166.59 C 131.74 167.64 132.83 168.26 133.88 167.97 C 134.93 167.68 135.55 166.59 135.26 165.54 L 134.99 164.58 C 134.70 163.53 133.61 162.91 132.56 163.20 C 131.51 163.49 130.90 164.58 131.19 165.63 Z M 131.47 166.64 L 131.77 167.63 C 132.09 168.67 133.19 169.26 134.23 168.94 C 135.28 168.62 135.86 167.52 135.54 166.48 L 135.24 165.49 C 134.92 164.45 133.82 163.86 132.78 164.18 C 131.74 164.50 131.15 165.60 131.47 166.64 Z M 131.79 167.68 L 132.12 168.68 C 132.47 169.71 133.59 170.26 134.62 169.92 C 135.66 169.57 136.21 168.45 135.86 167.41 L 135.53 166.42 C 135.18 165.39 134.06 164.83 133.03 165.18 C 131.99 165.53 131.44 166.65 131.79 167.68 Z M 132.14 168.74 L 132.51 169.71 C 132.89 170.73 134.03 171.25 135.05 170.87 C 136.07 170.48 136.59 169.35 136.20 168.32 L 135.84 167.35 C 135.46 166.33 134.32 165.81 133.30 166.20 C 132.28 166.58 131.76 167.72 132.14 168.74 Z M 132.53 169.78 L 132.92 170.72 C 133.34 171.72 134.50 172.20 135.51 171.78 C 136.51 171.36 136.99 170.20 136.57 169.20 L 136.18 168.26 C 135.76 167.25 134.60 166.77 133.60 167.19 C 132.59 167.61 132.11 168.77 132.53 169.78 Z M 132.95 170.78 L 133.37 171.69 C 133.83 172.68 135.01 173.12 136.00 172.66 C 136.99 172.20 137.42 171.03 136.96 170.04 L 136.54 169.13 C 136.08 168.14 134.91 167.70 133.92 168.16 C 132.93 168.62 132.50 169.79 132.95 170.78 Z M 133.41 171.76 L 133.86 172.65 C 134.35 173.62 135.54 174.00 136.52 173.51 C 137.49 173.01 137.87 171.82 137.38 170.85 L 136.93 169.97 C 136.43 168.99 135.24 168.61 134.27 169.11 C 133.30 169.60 132.91 170.79 133.41 171.76 Z M 133.89 172.72 L 134.38 173.57 C 134.91 174.52 136.12 174.86 137.07 174.33 C 138.02 173.79 138.36 172.59 137.82 171.64 L 137.34 170.78 C 136.81 169.83 135.60 169.49 134.65 170.03 C 133.70 170.56 133.36 171.76 133.89 172.72 Z M 134.42 173.64 L 134.95 174.50 C 135.52 175.43 136.74 175.72 137.67 175.15 C 138.60 174.57 138.89 173.36 138.31 172.43 L 137.78 171.57 C 137.21 170.64 135.99 170.35 135.06 170.92 C 134.13 171.50 133.84 172.71 134.42 173.64 Z M 135.00 174.58 L 135.58 175.43 C 136.20 176.33 137.43 176.56 138.33 175.95 C 139.23 175.33 139.46 174.10 138.84 173.20 L 138.26 172.35 C 137.65 171.45 136.42 171.22 135.52 171.83 C 134.62 172.45 134.38 173.68 135.00 174.58 Z M 135.64 175.52 L 136.26 176.32 C 136.93 177.19 138.17 177.35 139.03 176.69 C 139.90 176.03 140.06 174.78 139.40 173.92 L 138.78 173.11 C 138.12 172.25 136.88 172.09 136.01 172.75 C 135.14 173.41 134.98 174.65 135.64 175.52 Z M 136.34 176.42 L 136.99 177.17 C 137.71 177.99 138.96 178.07 139.78 177.35 C 140.60 176.63 140.68 175.38 139.97 174.56 L 139.32 173.82 C 138.60 173.00 137.35 172.92 136.53 173.64 C 135.71 174.35 135.62 175.60 136.34 176.42 Z M 137.10 177.28 L 137.78 177.94 C 138.56 178.70 139.81 178.69 140.58 177.91 C 141.34 177.13 141.32 175.87 140.54 175.11 L 139.86 174.45 C 139.08 173.69 137.83 173.70 137.06 174.48 C 136.30 175.26 136.32 176.52 137.10 177.28 Z M 137.93 178.07 L 138.71 178.69 C 139.56 179.38 140.80 179.24 141.48 178.39 C 142.17 177.53 142.03 176.29 141.18 175.61 L 140.40 174.98 C 139.54 174.30 138.30 174.44 137.62 175.29 C 136.94 176.15 137.07 177.39 137.93 178.07 Z M 138.88 178.82 L 139.71 179.35 C 140.63 179.93 141.86 179.66 142.44 178.74 C 143.02 177.82 142.75 176.60 141.83 176.01 L 141.00 175.48 C 140.08 174.90 138.86 175.17 138.27 176.09 C 137.69 177.01 137.96 178.24 138.88 178.82 Z M 139.90 179.45 L 140.78 179.89 C 141.76 180.37 142.95 179.97 143.43 178.99 C 143.91 178.01 143.51 176.83 142.53 176.34 L 141.65 175.91 C 140.67 175.42 139.48 175.83 139.00 176.81 C 138.52 177.78 138.92 178.97 139.90 179.45 Z M 140.96 179.96 L 141.91 180.32 C 142.93 180.70 144.07 180.19 144.45 179.17 C 144.84 178.14 144.32 177.01 143.30 176.62 L 142.35 176.27 C 141.33 175.88 140.19 176.40 139.81 177.42 C 139.42 178.44 139.94 179.58 140.96 179.96 Z M 142.07 180.37 L 143.05 180.65 C 144.10 180.94 145.19 180.33 145.48 179.28 C 145.78 178.23 145.17 177.14 144.12 176.85 L 143.14 176.57 C 142.09 176.27 141.00 176.88 140.70 177.93 C 140.41 178.98 141.02 180.08 142.07 180.37 Z M 143.17 180.68 L 144.18 180.89 C 145.24 181.12 146.29 180.44 146.52 179.38 C 146.75 178.31 146.07 177.26 145.00 177.03 L 144.00 176.82 C 142.93 176.59 141.88 177.27 141.65 178.33 C 141.43 179.40 142.10 180.45 143.17 180.68 Z M 144.27 180.91 L 145.28 181.08 C 146.36 181.25 147.37 180.52 147.55 179.45 C 147.73 178.37 147.00 177.36 145.92 177.18 L 144.91 177.02 C 143.83 176.84 142.82 177.57 142.64 178.64 C 142.47 179.72 143.20 180.73 144.27 180.91 Z M 145.36 181.09 L 146.34 181.21 C 147.42 181.34 148.41 180.57 148.54 179.49 C 148.68 178.41 147.91 177.43 146.83 177.29 L 145.85 177.17 C 144.76 177.04 143.78 177.81 143.65 178.89 C 143.51 179.97 144.28 180.95 145.36 181.09 Z M 146.41 181.21 L 147.38 181.30 C 148.47 181.40 149.43 180.60 149.52 179.52 C 149.62 178.43 148.82 177.47 147.74 177.38 L 146.76 177.29 C 145.68 177.19 144.72 177.99 144.62 179.07 C 144.52 180.16 145.32 181.12 146.41 181.21 Z M 147.45 181.30 L 148.50 181.36 C 149.58 181.42 150.51 180.59 150.58 179.51 C 150.64 178.42 149.81 177.49 148.72 177.43 L 147.67 177.37 C 146.59 177.31 145.66 178.14 145.60 179.23 C 145.53 180.31 146.36 181.24 147.45 181.30 Z M 148.56 181.36 L 149.53 181.39 C 150.62 181.41 151.52 180.56 151.55 179.47 C 151.57 178.39 150.72 177.49 149.63 177.46 L 148.66 177.43 C 147.58 177.41 146.67 178.26 146.65 179.35 C 146.62 180.43 147.48 181.34 148.56 181.36 Z M 149.57 181.38 L 150.52 181.39 C 151.61 181.39 152.49 180.52 152.49 179.44 C 152.50 178.35 151.63 177.47 150.54 177.47 L 149.59 177.46 C 148.51 177.46 147.63 178.33 147.62 179.41 C 147.62 180.50 148.49 181.38 149.57 181.38 Z M 150.53 181.38 L 151.51 181.38 C 152.59 181.38 153.46 180.51 153.46 179.43 C 153.46 178.35 152.59 177.47 151.51 177.47 L 150.53 177.47 C 149.45 177.47 148.58 178.35 148.58 179.43 C 148.58 180.51 149.45 181.38 150.53 181.38 Z M 151.51 181.38 L 152.51 181.38 C 153.59 181.38 154.46 180.51 154.46 179.43 C 154.46 178.35 153.59 177.47 152.51 177.47 L 151.51 177.47 C 150.43 177.47 149.55 178.35 149.55 179.43 C 149.55 180.51 150.43 181.38 151.51 181.38 Z M 152.51 181.38 L 153.52 181.38 C 154.60 181.38 155.47 180.50 155.47 179.43 C 155.47 178.35 154.60 177.48 153.52 177.48 L 152.51 177.48 C 151.43 177.48 150.56 178.35 150.56 179.43 C 150.56 180.50 151.43 181.38 152.51 181.38 Z M 153.52 181.37 L 154.53 181.37 C 155.61 181.37 156.48 180.50 156.48 179.43 C 156.48 178.35 155.61 177.48 154.53 177.48 L 153.52 177.48 C 152.45 177.48 151.58 178.35 151.58 179.43 C 151.58 180.50 152.45 181.37 153.52 181.37 Z M 154.54 181.37 L 155.55 181.36 C 156.62 181.36 157.49 180.49 157.49 179.41 C 157.48 178.34 156.61 177.48 155.54 177.48 L 154.52 177.49 C 153.45 177.49 152.59 178.36 152.59 179.44 C 152.60 180.51 153.47 181.37 154.54 181.37 Z M 155.58 181.36 L 156.58 181.34 C 157.65 181.32 158.50 180.43 158.47 179.36 C 158.45 178.29 157.57 177.44 156.50 177.46 L 155.50 177.49 C 154.43 177.51 153.58 178.39 153.61 179.46 C 153.63 180.53 154.51 181.38 155.58 181.36 Z M 156.64 181.33 L 157.62 181.28 C 158.69 181.23 159.51 180.32 159.46 179.25 C 159.40 178.19 158.49 177.37 157.43 177.42 L 156.44 177.47 C 155.37 177.53 154.55 178.43 154.61 179.50 C 154.66 180.57 155.57 181.39 156.64 181.33 Z M 157.70 181.27 L 158.69 181.18 C 159.75 181.08 160.53 180.14 160.43 179.08 C 160.33 178.02 159.39 177.24 158.33 177.34 L 157.35 177.43 C 156.29 177.53 155.51 178.47 155.60 179.53 C 155.70 180.59 156.64 181.37 157.70 181.27 Z M 158.77 181.17 L 159.76 181.03 C 160.81 180.89 161.55 179.92 161.41 178.87 C 161.27 177.82 160.30 177.08 159.25 177.22 L 158.26 177.35 C 157.20 177.50 156.46 178.46 156.61 179.52 C 156.75 180.57 157.72 181.31 158.77 181.17 Z M 159.83 181.02 L 160.82 180.84 C 161.87 180.66 162.56 179.67 162.38 178.62 C 162.20 177.58 161.21 176.88 160.16 177.06 L 159.17 177.24 C 158.13 177.42 157.43 178.41 157.61 179.45 C 157.79 180.50 158.79 181.20 159.83 181.02 Z M 160.89 180.82 L 161.87 180.62 C 162.90 180.40 163.56 179.38 163.35 178.35 C 163.13 177.32 162.11 176.66 161.08 176.87 L 160.10 177.08 C 159.06 177.30 158.40 178.32 158.62 179.35 C 158.84 180.38 159.86 181.04 160.89 180.82 Z M 161.93 180.60 L 162.90 180.36 C 163.92 180.11 164.55 179.07 164.29 178.05 C 164.04 177.03 163.01 176.40 161.99 176.66 L 161.02 176.89 C 160.00 177.15 159.37 178.18 159.62 179.20 C 159.88 180.23 160.91 180.85 161.93 180.60 Z M 162.95 180.34 L 163.92 180.07 C 164.93 179.79 165.52 178.74 165.24 177.73 C 164.96 176.72 163.91 176.13 162.90 176.41 L 161.93 176.68 C 160.92 176.96 160.33 178.01 160.61 179.02 C 160.89 180.03 161.94 180.62 162.95 180.34 Z M 163.96 180.05 L 164.92 179.76 C 165.92 179.45 166.48 178.39 166.18 177.39 C 165.87 176.39 164.81 175.83 163.81 176.13 L 162.85 176.43 C 161.85 176.73 161.29 177.79 161.59 178.79 C 161.90 179.79 162.96 180.36 163.96 180.05 Z M 164.96 179.74 L 165.91 179.42 C 166.90 179.10 167.44 178.03 167.11 177.04 C 166.78 176.05 165.72 175.51 164.73 175.84 L 163.77 176.15 C 162.78 176.48 162.24 177.55 162.57 178.54 C 162.90 179.53 163.97 180.07 164.96 179.74 Z M 165.94 179.41 L 166.89 179.07 C 167.87 178.73 168.38 177.65 168.04 176.67 C 167.69 175.69 166.62 175.18 165.64 175.52 L 164.69 175.86 C 163.71 176.20 163.20 177.28 163.54 178.26 C 163.89 179.24 164.96 179.75 165.94 179.41 Z M 166.92 179.05 L 167.86 178.70 C 168.82 178.34 169.32 177.26 168.96 176.29 C 168.59 175.32 167.51 174.83 166.54 175.19 L 165.61 175.54 C 164.64 175.91 164.15 176.98 164.51 177.95 C 164.87 178.92 165.95 179.42 166.92 179.05 Z M 167.89 178.68 L 168.81 178.32 C 169.77 177.94 170.24 176.86 169.86 175.90 C 169.48 174.94 168.40 174.47 167.44 174.85 L 166.51 175.21 C 165.56 175.59 165.09 176.68 165.46 177.63 C 165.84 178.59 166.93 179.06 167.89 178.68 Z M 168.84 178.30 L 169.76 177.92 C 170.70 177.53 171.15 176.44 170.76 175.49 C 170.37 174.54 169.28 174.09 168.33 174.49 L 167.41 174.87 C 166.47 175.26 166.02 176.35 166.41 177.29 C 166.80 178.24 167.89 178.69 168.84 178.30 Z M 169.77 177.90 L 170.69 177.51 C 171.63 177.11 172.06 176.02 171.66 175.08 C 171.26 174.14 170.17 173.71 169.23 174.11 L 168.32 174.50 C 167.38 174.90 166.94 175.99 167.34 176.93 C 167.75 177.87 168.83 178.31 169.77 177.90 Z M 170.70 177.50 L 171.62 177.10 C 172.55 176.69 172.98 175.61 172.57 174.67 C 172.16 173.74 171.08 173.31 170.14 173.72 L 169.22 174.12 C 168.29 174.53 167.86 175.61 168.27 176.55 C 168.68 177.48 169.76 177.91 170.70 177.50 Z M 171.62 177.09 L 172.45 176.72 C 173.37 176.31 173.79 175.23 173.38 174.30 C 172.97 173.38 171.89 172.96 170.96 173.37 L 170.14 173.73 C 169.21 174.14 168.79 175.23 169.20 176.15 C 169.61 177.08 170.70 177.50 171.62 177.09 Z M 172.47 176.70 L 173.34 176.30 C 174.25 175.87 174.65 174.79 174.22 173.87 C 173.80 172.96 172.71 172.56 171.80 172.99 L 170.94 173.39 C 170.02 173.82 169.63 174.90 170.05 175.81 C 170.48 176.73 171.56 177.12 172.47 176.70 Z M 173.39 176.26 L 174.31 175.80 C 175.20 175.35 175.56 174.26 175.11 173.36 C 174.66 172.47 173.57 172.11 172.67 172.56 L 171.75 173.02 C 170.86 173.47 170.50 174.56 170.95 175.46 C 171.40 176.35 172.49 176.71 173.39 176.26 Z M 174.36 175.76 L 175.33 175.23 C 176.20 174.74 176.52 173.64 176.03 172.77 C 175.55 171.90 174.45 171.58 173.58 172.07 L 172.62 172.60 C 171.74 173.08 171.43 174.18 171.91 175.05 C 172.39 175.92 173.49 176.24 174.36 175.76 Z M 175.38 175.19 L 176.16 174.72 C 177.01 174.21 177.29 173.11 176.78 172.25 C 176.27 171.40 175.17 171.12 174.31 171.63 L 173.53 172.10 C 172.68 172.61 172.40 173.72 172.91 174.57 C 173.42 175.42 174.53 175.70 175.38 175.19 Z M 176.20 174.69 L 177.02 174.17 C 177.85 173.64 178.10 172.54 177.57 171.70 C 177.04 170.86 175.94 170.61 175.10 171.14 L 174.28 171.66 C 173.44 172.19 173.19 173.30 173.72 174.13 C 174.25 174.97 175.36 175.22 176.20 174.69 Z M 177.05 174.15 L 177.89 173.59 C 178.71 173.04 178.94 171.93 178.39 171.11 C 177.85 170.29 176.74 170.06 175.92 170.61 L 175.07 171.17 C 174.25 171.71 174.02 172.82 174.57 173.64 C 175.11 174.47 176.22 174.69 177.05 174.15 Z M 177.92 173.56 L 178.78 172.97 C 179.58 172.41 179.79 171.30 179.23 170.49 C 178.67 169.68 177.56 169.48 176.75 170.04 L 175.89 170.63 C 175.08 171.19 174.88 172.30 175.44 173.11 C 176.00 173.92 177.11 174.12 177.92 173.56 Z M 178.80 172.94 L 179.66 172.33 C 180.45 171.75 180.64 170.65 180.06 169.85 C 179.49 169.05 178.38 168.87 177.59 169.44 L 176.73 170.06 C 175.93 170.64 175.75 171.74 176.32 172.54 C 176.89 173.34 178.00 173.52 178.80 172.94 Z M 179.68 172.30 L 180.45 171.72 C 181.24 171.14 181.40 170.03 180.81 169.25 C 180.23 168.47 179.12 168.31 178.34 168.89 L 177.57 169.47 C 176.78 170.05 176.62 171.16 177.21 171.94 C 177.79 172.72 178.90 172.89 179.68 172.30 Z M 180.47 171.70 L 181.22 171.12 C 181.99 170.52 182.12 169.42 181.53 168.65 C 180.94 167.89 179.83 167.75 179.07 168.34 L 178.32 168.92 C 177.55 169.51 177.41 170.62 178.01 171.38 C 178.60 172.15 179.71 172.29 180.47 171.70 Z M 181.24 171.09 L 181.99 170.48 C 182.74 169.88 182.85 168.78 182.25 168.03 C 181.64 167.28 180.54 167.16 179.79 167.77 L 179.04 168.37 C 178.30 168.98 178.18 170.08 178.79 170.83 C 179.39 171.58 180.49 171.69 181.24 171.09 Z M 182.01 170.45 L 182.77 169.81 C 183.50 169.19 183.59 168.10 182.97 167.37 C 182.35 166.63 181.26 166.54 180.53 167.16 L 179.77 167.80 C 179.04 168.42 178.95 169.51 179.57 170.25 C 180.18 170.98 181.28 171.07 182.01 170.45 Z M 182.79 169.78 L 183.56 169.09 C 184.27 168.46 184.34 167.37 183.71 166.66 C 183.08 165.95 181.99 165.88 181.27 166.51 L 180.50 167.20 C 179.79 167.83 179.72 168.92 180.36 169.63 C 180.99 170.34 182.08 170.41 182.79 169.78 Z M 183.58 169.06 L 184.38 168.32 C 185.07 167.68 185.11 166.59 184.47 165.90 C 183.83 165.21 182.74 165.17 182.05 165.81 L 181.25 166.55 C 180.56 167.19 180.52 168.27 181.16 168.97 C 181.80 169.66 182.89 169.70 183.58 169.06 Z M 184.40 168.29 L 185.15 167.56 C 185.83 166.91 185.84 165.83 185.19 165.15 C 184.54 164.48 183.46 164.46 182.78 165.11 L 182.03 165.84 C 181.35 166.49 181.33 167.57 181.99 168.25 C 182.64 168.93 183.72 168.94 184.40 168.29 Z M 185.17 167.53 L 185.90 166.79 C 186.56 166.13 186.56 165.06 185.90 164.40 C 185.24 163.74 184.16 163.74 183.50 164.40 L 182.77 165.14 C 182.10 165.80 182.11 166.88 182.77 167.54 C 183.43 168.20 184.51 168.20 185.17 167.53 Z M 185.92 166.77 L 186.65 166.00 C 187.30 165.33 187.28 164.26 186.60 163.62 C 185.93 162.97 184.86 162.99 184.22 163.67 L 183.48 164.43 C 182.84 165.10 182.86 166.17 183.53 166.82 C 184.21 167.46 185.28 167.44 185.92 166.77 Z M 186.67 165.97 L 187.38 165.20 C 188.01 164.52 187.97 163.45 187.28 162.83 C 186.60 162.20 185.54 162.24 184.91 162.92 L 184.20 163.70 C 183.57 164.38 183.61 165.44 184.30 166.07 C 184.98 166.70 186.04 166.66 186.67 165.97 Z M 187.40 165.17 L 188.08 164.40 C 188.69 163.71 188.62 162.65 187.92 162.04 C 187.23 161.43 186.17 161.50 185.56 162.19 L 184.89 162.96 C 184.28 163.65 184.35 164.71 185.04 165.32 C 185.74 165.93 186.79 165.86 187.40 165.17 Z M 188.10 164.36 L 188.72 163.62 C 189.30 162.91 189.21 161.86 188.50 161.27 C 187.79 160.68 186.74 160.78 186.15 161.49 L 185.53 162.23 C 184.95 162.94 185.04 163.99 185.75 164.58 C 186.46 165.17 187.51 165.07 188.10 164.36 Z M 188.75 163.56 L 189.29 162.86 C 189.85 162.13 189.71 161.09 188.99 160.53 C 188.26 159.97 187.22 160.11 186.66 160.84 L 186.12 161.54 C 185.56 162.27 185.69 163.31 186.42 163.87 C 187.15 164.43 188.19 164.29 188.75 163.56 Z M 189.35 162.77 L 190.00 161.80 C 190.51 161.04 190.31 160.01 189.55 159.51 C 188.79 159.00 187.76 159.20 187.25 159.96 L 186.60 160.92 C 186.09 161.68 186.29 162.71 187.05 163.22 C 187.81 163.73 188.84 163.53 189.35 162.77 Z M 190.07 161.67 L 190.59 160.72 C 191.03 159.92 190.73 158.92 189.93 158.49 C 189.13 158.05 188.13 158.34 187.69 159.14 L 187.18 160.09 C 186.74 160.89 187.04 161.89 187.84 162.33 C 188.64 162.76 189.64 162.47 190.07 161.67 Z M 190.65 160.58 L 191.02 159.72 C 191.38 158.89 190.99 157.92 190.16 157.56 C 189.32 157.21 188.35 157.59 188.00 158.43 L 187.63 159.29 C 187.27 160.12 187.66 161.09 188.49 161.45 C 189.33 161.80 190.30 161.42 190.65 160.58 Z M 191.06 159.62 L 191.34 158.81 C 191.64 157.95 191.19 157.02 190.33 156.72 C 189.47 156.42 188.54 156.87 188.24 157.73 L 187.96 158.54 C 187.66 159.39 188.11 160.33 188.97 160.63 C 189.82 160.92 190.76 160.47 191.06 159.62 Z M 191.35 158.77 L 191.46 158.44 C 191.73 157.58 191.26 156.65 190.40 156.38 C 189.54 156.10 188.62 156.57 188.34 157.43 L 188.23 157.77 C 187.95 158.63 188.43 159.55 189.29 159.83 C 190.15 160.11 191.07 159.63 191.35 158.77 Z"
      fill="black"
      fill-rule="nonzero" /><path d="M 121.95 103.34 L 121.78 104.28 C 121.59 105.26 122.24 106.19 123.21 106.38 C 124.19 106.56 125.13 105.92 125.31 104.95 L 125.49 104.01 C 125.67 103.03 125.03 102.10 124.05 101.91 C 123.08 101.73 122.14 102.37 121.95 103.34 Z M 121.76 104.28 L 121.59 105.23 C 121.41 106.21 122.06 107.16 123.04 107.34 C 124.02 107.52 124.97 106.87 125.15 105.89 L 125.32 104.94 C 125.51 103.96 124.86 103.02 123.87 102.83 C 122.89 102.65 121.95 103.30 121.76 104.28 Z M 121.57 105.24 L 121.40 106.21 C 121.22 107.20 121.88 108.15 122.87 108.32 C 123.86 108.50 124.81 107.84 124.99 106.85 L 125.16 105.88 C 125.34 104.89 124.68 103.94 123.69 103.77 C 122.70 103.59 121.75 104.25 121.57 105.24 Z M 121.38 106.22 L 121.21 107.22 C 121.04 108.22 121.71 109.17 122.71 109.34 C 123.71 109.51 124.66 108.84 124.83 107.84 L 125.00 106.84 C 125.17 105.84 124.50 104.89 123.50 104.72 C 122.50 104.55 121.56 105.22 121.38 106.22 Z M 121.20 107.24 L 121.03 108.29 C 120.87 109.29 121.56 110.24 122.56 110.40 C 123.57 110.56 124.52 109.88 124.68 108.87 L 124.85 107.82 C 125.01 106.82 124.32 105.87 123.32 105.71 C 122.31 105.55 121.36 106.23 121.20 107.24 Z M 121.02 108.30 L 120.87 109.30 C 120.72 110.32 121.42 111.26 122.43 111.41 C 123.45 111.56 124.39 110.86 124.54 109.85 L 124.69 108.85 C 124.84 107.84 124.14 106.89 123.13 106.74 C 122.11 106.59 121.17 107.29 121.02 108.30 Z M 120.87 109.32 L 120.73 110.32 C 120.58 111.34 121.29 112.27 122.31 112.42 C 123.33 112.56 124.26 111.85 124.41 110.83 L 124.55 109.84 C 124.69 108.82 123.98 107.88 122.96 107.74 C 121.95 107.59 121.01 108.30 120.87 109.32 Z M 120.73 110.33 L 120.59 111.34 C 120.45 112.36 121.17 113.30 122.18 113.43 C 123.20 113.57 124.14 112.86 124.27 111.84 L 124.41 110.82 C 124.55 109.81 123.83 108.87 122.81 108.74 C 121.80 108.60 120.86 109.31 120.73 110.33 Z M 120.59 111.35 L 120.46 112.36 C 120.32 113.38 121.04 114.31 122.06 114.45 C 123.07 114.58 124.01 113.86 124.14 112.85 L 124.27 111.83 C 124.41 110.82 123.69 109.88 122.67 109.75 C 121.65 109.62 120.72 110.33 120.59 111.35 Z M 120.46 112.37 L 120.33 113.36 C 120.19 114.38 120.91 115.31 121.93 115.44 C 122.95 115.57 123.88 114.86 124.01 113.84 L 124.14 112.84 C 124.27 111.83 123.55 110.89 122.54 110.76 C 121.52 110.63 120.59 111.35 120.46 112.37 Z M 120.33 113.36 L 120.20 114.32 C 120.07 115.34 120.79 116.27 121.80 116.40 C 122.82 116.53 123.75 115.82 123.89 114.80 L 124.01 113.84 C 124.14 112.82 123.43 111.89 122.41 111.76 C 121.39 111.62 120.46 112.34 120.33 113.36 Z M 120.20 114.31 L 120.06 115.35 C 119.93 116.37 120.64 117.31 121.66 117.44 C 122.68 117.58 123.61 116.86 123.75 115.85 L 123.89 114.81 C 124.02 113.79 123.31 112.85 122.29 112.72 C 121.27 112.58 120.34 113.30 120.20 114.31 Z M 120.06 115.35 L 119.92 116.36 C 119.78 117.38 120.49 118.32 121.51 118.46 C 122.53 118.60 123.47 117.89 123.61 116.87 L 123.75 115.85 C 123.89 114.84 123.17 113.90 122.16 113.76 C 121.14 113.62 120.20 114.33 120.06 115.35 Z M 119.92 116.36 L 119.79 117.34 C 119.65 118.35 120.35 119.29 121.37 119.43 C 122.39 119.58 123.33 118.87 123.47 117.85 L 123.60 116.88 C 123.75 115.86 123.04 114.92 122.02 114.78 C 121.01 114.64 120.07 115.34 119.92 116.36 Z M 119.79 117.33 L 119.65 118.29 C 119.51 119.31 120.22 120.25 121.24 120.39 C 122.25 120.53 123.19 119.82 123.33 118.81 L 123.47 117.85 C 123.61 116.84 122.90 115.90 121.89 115.75 C 120.87 115.61 119.93 116.32 119.79 117.33 Z M 119.65 118.29 L 119.52 119.25 C 119.38 120.26 120.09 121.20 121.11 121.34 C 122.12 121.49 123.06 120.78 123.20 119.76 L 123.33 118.80 C 123.47 117.79 122.77 116.85 121.75 116.71 C 120.73 116.57 119.80 117.28 119.65 118.29 Z M 119.52 119.25 L 119.39 120.19 C 119.25 121.21 119.97 122.15 120.98 122.28 C 122.00 122.42 122.93 121.71 123.07 120.69 L 123.20 119.75 C 123.34 118.74 122.63 117.80 121.61 117.66 C 120.60 117.53 119.66 118.24 119.52 119.25 Z M 119.39 120.20 L 119.26 121.15 C 119.13 122.17 119.84 123.10 120.86 123.24 C 121.87 123.38 122.81 122.66 122.94 121.65 L 123.07 120.69 C 123.21 119.68 122.50 118.74 121.48 118.60 C 120.46 118.47 119.53 119.18 119.39 120.20 Z M 119.26 121.15 L 119.13 122.13 C 118.99 123.14 119.70 124.08 120.72 124.22 C 121.74 124.36 122.67 123.65 122.81 122.63 L 122.94 121.65 C 123.08 120.63 122.37 119.70 121.36 119.56 C 120.34 119.42 119.40 120.13 119.26 121.15 Z M 119.13 122.12 L 118.99 123.13 C 118.85 124.14 119.56 125.08 120.57 125.22 C 121.59 125.37 122.53 124.66 122.67 123.64 L 122.81 122.64 C 122.95 121.62 122.24 120.68 121.23 120.54 C 120.21 120.40 119.27 121.11 119.13 122.12 Z M 118.99 123.12 L 118.84 124.15 C 118.69 125.17 119.39 126.11 120.41 126.26 C 121.42 126.41 122.37 125.70 122.51 124.69 L 122.67 123.66 C 122.81 122.64 122.11 121.70 121.10 121.55 C 120.08 121.40 119.14 122.10 118.99 123.12 Z M 118.84 124.14 L 118.69 125.14 C 118.53 126.15 119.23 127.10 120.24 127.26 C 121.25 127.41 122.20 126.72 122.36 125.71 L 122.51 124.70 C 122.67 123.69 121.97 122.74 120.96 122.59 C 119.95 122.43 119.00 123.12 118.84 124.14 Z M 118.69 125.13 L 118.53 126.10 C 118.37 127.11 119.06 128.06 120.07 128.23 C 121.08 128.39 122.03 127.70 122.19 126.69 L 122.35 125.72 C 122.52 124.71 121.83 123.76 120.82 123.59 C 119.81 123.43 118.86 124.11 118.69 125.13 Z M 118.54 126.09 L 118.37 127.08 C 118.20 128.09 118.88 129.04 119.89 129.21 C 120.90 129.38 121.86 128.70 122.03 127.69 L 122.19 126.70 C 122.36 125.69 121.68 124.74 120.67 124.57 C 119.66 124.40 118.71 125.08 118.54 126.09 Z M 118.37 127.07 L 118.20 128.07 C 118.03 129.07 118.71 130.03 119.72 130.20 C 120.72 130.38 121.68 129.70 121.85 128.69 L 122.02 127.70 C 122.20 126.69 121.52 125.73 120.51 125.56 C 119.50 125.39 118.55 126.06 118.37 127.07 Z M 118.21 128.06 L 118.03 129.06 C 117.86 130.07 118.53 131.02 119.54 131.20 C 120.55 131.37 121.50 130.70 121.68 129.69 L 121.85 128.69 C 122.03 127.69 121.35 126.73 120.34 126.56 C 119.34 126.38 118.38 127.06 118.21 128.06 Z M 118.04 129.06 L 117.86 130.05 C 117.69 131.06 118.36 132.01 119.37 132.19 C 120.37 132.36 121.33 131.69 121.50 130.68 L 121.68 129.69 C 121.85 128.68 121.18 127.73 120.17 127.55 C 119.17 127.38 118.21 128.05 118.04 129.06 Z M 117.86 130.06 L 117.69 131.05 C 117.52 132.06 118.19 133.01 119.20 133.19 C 120.20 133.36 121.16 132.69 121.33 131.68 L 121.50 130.68 C 121.68 129.68 121.00 128.72 120.00 128.55 C 118.99 128.38 118.04 129.05 117.86 130.06 Z M 117.69 131.06 L 117.52 132.05 C 117.35 133.06 118.03 134.01 119.03 134.18 C 120.04 134.35 120.99 133.68 121.16 132.67 L 121.33 131.68 C 121.50 130.67 120.83 129.72 119.82 129.55 C 118.82 129.38 117.87 130.05 117.69 131.06 Z M 117.53 132.05 L 117.36 133.04 C 117.19 134.04 117.86 135.00 118.86 135.17 C 119.87 135.34 120.82 134.66 120.99 133.66 L 121.16 132.67 C 121.33 131.67 120.65 130.72 119.65 130.55 C 118.65 130.38 117.70 131.05 117.53 132.05 Z M 117.36 133.04 L 117.19 134.02 C 117.02 135.02 117.69 135.97 118.69 136.15 C 119.70 136.32 120.65 135.64 120.82 134.64 L 120.99 133.66 C 121.16 132.66 120.49 131.71 119.48 131.54 C 118.48 131.36 117.53 132.04 117.36 133.04 Z M 117.19 134.02 L 117.02 134.99 C 116.85 135.99 117.52 136.95 118.52 137.12 C 119.52 137.29 120.47 136.62 120.65 135.62 L 120.82 134.65 C 120.99 133.64 120.32 132.69 119.32 132.52 C 118.32 132.35 117.37 133.02 117.19 134.02 Z M 117.03 134.99 L 116.86 135.96 C 116.68 136.96 117.35 137.91 118.34 138.09 C 119.34 138.27 120.30 137.60 120.47 136.60 L 120.64 135.63 C 120.82 134.63 120.15 133.68 119.16 133.50 C 118.16 133.32 117.20 133.99 117.03 134.99 Z M 116.86 135.96 L 116.68 136.94 C 116.50 137.94 117.16 138.89 118.16 139.07 C 119.16 139.25 120.11 138.59 120.29 137.59 L 120.47 136.61 C 120.65 135.61 119.99 134.66 118.99 134.48 C 117.99 134.30 117.04 134.96 116.86 135.96 Z M 116.68 136.93 L 116.50 137.92 C 116.32 138.91 116.98 139.87 117.97 140.05 C 118.97 140.24 119.92 139.58 120.11 138.59 L 120.29 137.60 C 120.47 136.61 119.81 135.65 118.82 135.47 C 117.82 135.28 116.87 135.94 116.68 136.93 Z M 116.51 137.91 L 116.32 138.90 C 116.13 139.89 116.78 140.85 117.78 141.03 C 118.77 141.22 119.73 140.57 119.92 139.58 L 120.10 138.59 C 120.29 137.60 119.64 136.64 118.64 136.46 C 117.65 136.27 116.69 136.92 116.51 137.91 Z M 116.32 138.89 L 116.13 139.87 C 115.94 140.86 116.59 141.82 117.58 142.01 C 118.57 142.20 119.53 141.56 119.72 140.57 L 119.91 139.58 C 120.10 138.59 119.46 137.64 118.47 137.44 C 117.48 137.25 116.52 137.90 116.32 138.89 Z M 116.14 139.86 L 115.94 140.84 C 115.75 141.83 116.39 142.79 117.38 142.99 C 118.37 143.18 119.33 142.54 119.52 141.55 L 119.72 140.57 C 119.91 139.59 119.27 138.63 118.28 138.43 C 117.29 138.23 116.33 138.87 116.14 139.86 Z M 115.95 140.83 L 115.75 141.81 C 115.55 142.80 116.18 143.76 117.17 143.96 C 118.15 144.16 119.12 143.53 119.32 142.54 L 119.52 141.56 C 119.72 140.57 119.08 139.61 118.10 139.41 C 117.11 139.21 116.15 139.85 115.95 140.83 Z M 115.75 141.80 L 115.55 142.79 C 115.34 143.77 115.97 144.74 116.95 144.94 C 117.94 145.15 118.90 144.52 119.11 143.53 L 119.31 142.55 C 119.52 141.57 118.89 140.60 117.91 140.40 C 116.92 140.19 115.96 140.82 115.75 141.80 Z M 115.55 142.78 L 115.34 143.76 C 115.13 144.74 115.76 145.71 116.74 145.92 C 117.72 146.13 118.68 145.50 118.89 144.52 L 119.10 143.54 C 119.31 142.56 118.69 141.60 117.71 141.39 C 116.73 141.18 115.76 141.80 115.55 142.78 Z M 115.35 143.75 L 115.13 144.73 C 114.92 145.71 115.54 146.68 116.51 146.89 C 117.49 147.10 118.46 146.49 118.67 145.51 L 118.89 144.53 C 119.10 143.55 118.48 142.59 117.51 142.37 C 116.53 142.16 115.56 142.78 115.35 143.75 Z M 115.14 144.72 L 114.92 145.69 C 114.70 146.67 115.31 147.64 116.29 147.86 C 117.26 148.08 118.23 147.46 118.45 146.49 L 118.67 145.52 C 118.89 144.54 118.27 143.57 117.30 143.35 C 116.32 143.13 115.36 143.75 115.14 144.72 Z M 114.92 145.69 L 114.70 146.65 C 114.48 147.63 115.08 148.60 116.05 148.82 C 117.03 149.04 118.00 148.44 118.22 147.47 L 118.44 146.50 C 118.67 145.52 118.06 144.55 117.09 144.33 C 116.12 144.11 115.15 144.71 114.92 145.69 Z M 114.71 146.65 L 114.47 147.63 C 114.24 148.60 114.84 149.57 115.81 149.80 C 116.78 150.03 117.76 149.43 117.98 148.46 L 118.22 147.47 C 118.44 146.50 117.84 145.53 116.87 145.30 C 115.90 145.08 114.93 145.68 114.71 146.65 Z M 114.48 147.62 L 114.24 148.61 C 114.01 149.57 114.60 150.55 115.57 150.78 C 116.54 151.01 117.51 150.42 117.74 149.45 L 117.98 148.46 C 118.21 147.50 117.62 146.53 116.65 146.29 C 115.68 146.06 114.71 146.66 114.48 147.62 Z M 114.25 148.60 L 114.01 149.58 C 113.77 150.54 114.36 151.51 115.33 151.75 C 116.29 151.98 117.26 151.39 117.50 150.43 L 117.74 149.45 C 117.97 148.49 117.38 147.52 116.42 147.28 C 115.45 147.05 114.48 147.64 114.25 148.60 Z M 114.01 149.58 L 113.78 150.55 C 113.54 151.51 114.13 152.48 115.09 152.71 C 116.05 152.95 117.02 152.36 117.25 151.40 L 117.49 150.43 C 117.73 149.47 117.14 148.50 116.18 148.27 C 115.22 148.03 114.25 148.62 114.01 149.58 Z M 113.78 150.55 L 113.54 151.50 C 113.31 152.46 113.89 153.43 114.85 153.67 C 115.81 153.90 116.78 153.32 117.01 152.36 L 117.25 151.40 C 117.49 150.44 116.90 149.48 115.94 149.24 C 114.99 149.00 114.02 149.59 113.78 150.55 Z M 113.55 151.50 L 113.31 152.46 C 113.07 153.42 113.66 154.39 114.61 154.62 C 115.57 154.86 116.54 154.27 116.77 153.32 L 117.01 152.36 C 117.24 151.40 116.66 150.44 115.71 150.20 C 114.75 149.97 113.78 150.55 113.55 151.50 Z M 113.31 152.47 L 113.08 153.44 C 112.84 154.39 113.42 155.36 114.38 155.59 C 115.33 155.83 116.29 155.24 116.53 154.29 L 116.77 153.32 C 117.00 152.36 116.42 151.40 115.47 151.16 C 114.51 150.93 113.55 151.51 113.31 152.47 Z M 113.08 153.44 L 112.84 154.41 C 112.61 155.36 113.19 156.32 114.14 156.55 C 115.09 156.79 116.05 156.20 116.29 155.25 L 116.52 154.29 C 116.76 153.34 116.18 152.38 115.22 152.14 C 114.27 151.91 113.31 152.49 113.08 153.44 Z M 112.85 154.41 L 112.61 155.38 C 112.38 156.32 112.96 157.28 113.91 157.51 C 114.86 157.75 115.81 157.17 116.05 156.22 L 116.28 155.25 C 116.52 154.30 115.93 153.35 114.99 153.11 C 114.04 152.88 113.08 153.46 112.85 154.41 Z M 112.62 155.38 L 112.38 156.35 C 112.15 157.29 112.72 158.25 113.67 158.48 C 114.62 158.71 115.57 158.13 115.80 157.19 L 116.04 156.22 C 116.27 155.27 115.70 154.32 114.75 154.08 C 113.80 153.85 112.85 154.43 112.62 155.38 Z M 112.38 156.35 L 112.14 157.32 C 111.91 158.27 112.49 159.22 113.43 159.45 C 114.37 159.69 115.33 159.11 115.56 158.17 L 115.80 157.19 C 116.03 156.24 115.45 155.29 114.51 155.06 C 113.57 154.83 112.61 155.40 112.38 156.35 Z M 112.15 157.32 L 111.90 158.31 C 111.67 159.25 112.24 160.20 113.18 160.44 C 114.12 160.67 115.07 160.10 115.31 159.16 L 115.55 158.17 C 115.78 157.23 115.21 156.28 114.27 156.04 C 113.33 155.81 112.38 156.38 112.15 157.32 Z M 111.91 158.31 L 111.66 159.30 C 111.43 160.24 112.00 161.19 112.94 161.42 C 113.87 161.66 114.82 161.08 115.05 160.15 L 115.30 159.16 C 115.53 158.22 114.96 157.27 114.03 157.04 C 113.09 156.80 112.14 157.38 111.91 158.31 Z M 111.67 159.30 L 111.42 160.28 C 111.19 161.22 111.76 162.16 112.69 162.40 C 113.62 162.63 114.57 162.06 114.80 161.13 L 115.05 160.15 C 115.28 159.21 114.71 158.27 113.78 158.04 C 112.85 157.80 111.90 158.37 111.67 159.30 Z M 111.43 160.28 L 111.19 161.25 C 110.95 162.18 111.52 163.12 112.45 163.35 C 113.38 163.59 114.32 163.02 114.56 162.09 L 114.80 161.13 C 115.03 160.20 114.47 159.26 113.54 159.02 C 112.61 158.79 111.66 159.35 111.43 160.28 Z M 111.19 161.24 L 110.96 162.17 C 110.72 163.10 111.29 164.04 112.21 164.28 C 113.14 164.51 114.08 163.95 114.31 163.02 L 114.55 162.09 C 114.78 161.17 114.22 160.22 113.30 159.99 C 112.37 159.76 111.43 160.32 111.19 161.24 Z M 110.96 162.17 L 110.70 163.21 C 110.47 164.13 111.02 165.07 111.95 165.31 C 112.87 165.54 113.81 164.98 114.04 164.06 L 114.31 163.02 C 114.54 162.10 113.99 161.16 113.06 160.92 C 112.14 160.69 111.20 161.25 110.96 162.17 Z M 110.71 163.21 L 110.45 164.21 C 110.22 165.13 110.77 166.06 111.69 166.30 C 112.61 166.53 113.55 165.98 113.78 165.06 L 114.04 164.06 C 114.27 163.14 113.72 162.21 112.80 161.97 C 111.88 161.73 110.94 162.29 110.71 163.21 Z M 110.46 164.21 L 110.21 165.16 C 109.98 166.08 110.53 167.01 111.45 167.24 C 112.37 167.48 113.30 166.93 113.54 166.01 L 113.78 165.06 C 114.01 164.14 113.46 163.21 112.54 162.97 C 111.63 162.74 110.69 163.29 110.46 164.21 Z M 110.22 165.16 L 109.98 166.08 C 109.75 166.99 110.30 167.92 111.22 168.16 C 112.13 168.39 113.06 167.84 113.30 166.92 L 113.53 166.01 C 113.76 165.09 113.21 164.16 112.30 163.93 C 111.38 163.69 110.45 164.25 110.22 165.16 Z M 109.99 166.08 L 109.76 166.99 C 109.53 167.90 110.08 168.83 110.99 169.06 C 111.90 169.29 112.83 168.74 113.06 167.83 L 113.29 166.92 C 113.52 166.01 112.97 165.08 112.06 164.85 C 111.15 164.62 110.22 165.17 109.99 166.08 Z M 109.76 167.00 L 109.53 167.92 C 109.30 168.83 109.86 169.75 110.77 169.98 C 111.68 170.21 112.60 169.65 112.83 168.74 L 113.06 167.82 C 113.28 166.91 112.73 165.99 111.82 165.76 C 110.91 165.54 109.99 166.09 109.76 167.00 Z M 109.53 167.94 L 109.30 168.89 C 109.09 169.80 109.65 170.71 110.56 170.93 C 111.47 171.15 112.38 170.59 112.60 169.68 L 112.83 168.73 C 113.05 167.82 112.48 166.90 111.57 166.69 C 110.67 166.47 109.75 167.03 109.53 167.94 Z M 109.31 168.91 L 109.08 169.91 C 108.87 170.82 109.44 171.73 110.35 171.94 C 111.26 172.14 112.16 171.57 112.37 170.66 L 112.60 169.66 C 112.81 168.75 112.24 167.84 111.33 167.64 C 110.42 167.43 109.51 168.00 109.31 168.91 Z M 109.08 169.94 L 108.86 170.97 C 108.66 171.88 109.24 172.78 110.15 172.97 C 111.06 173.16 111.95 172.58 112.15 171.68 L 112.37 170.64 C 112.56 169.73 111.98 168.84 111.07 168.64 C 110.17 168.45 109.27 169.03 109.08 169.94 Z M 108.85 171.00 L 108.66 171.98 C 108.48 172.89 109.07 173.78 109.98 173.96 C 110.89 174.14 111.78 173.54 111.96 172.63 L 112.15 171.65 C 112.33 170.74 111.74 169.85 110.83 169.68 C 109.92 169.50 109.03 170.09 108.85 171.00 Z M 108.66 172.03 L 108.48 173.05 C 108.33 173.96 108.94 174.82 109.86 174.98 C 110.77 175.13 111.63 174.52 111.79 173.61 L 111.96 172.59 C 112.11 171.68 111.50 170.81 110.59 170.66 C 109.68 170.50 108.81 171.12 108.66 172.03 Z M 108.48 173.11 L 108.35 174.13 C 108.23 175.05 108.87 175.89 109.79 176.00 C 110.70 176.12 111.54 175.48 111.66 174.56 L 111.79 173.54 C 111.91 172.63 111.27 171.79 110.35 171.67 C 109.43 171.55 108.60 172.20 108.48 173.11 Z M 108.34 174.23 L 108.27 175.21 C 108.20 176.13 108.89 176.93 109.81 177.00 C 110.73 177.06 111.53 176.37 111.59 175.46 L 111.67 174.47 C 111.73 173.55 111.04 172.75 110.12 172.68 C 109.21 172.62 108.41 173.31 108.34 174.23 Z M 108.27 175.35 L 108.28 176.35 C 108.29 177.27 109.05 178.00 109.96 177.99 C 110.88 177.98 111.62 177.23 111.61 176.31 L 111.59 175.31 C 111.58 174.40 110.83 173.66 109.91 173.67 C 108.99 173.68 108.26 174.44 108.27 175.35 Z M 108.30 176.54 L 108.44 177.60 C 108.56 178.51 109.39 179.14 110.30 179.02 C 111.21 178.90 111.85 178.07 111.73 177.16 L 111.59 176.11 C 111.47 175.20 110.63 174.56 109.73 174.68 C 108.82 174.80 108.18 175.64 108.30 176.54 Z M 108.48 177.79 L 108.73 178.74 C 108.95 179.63 109.85 180.16 110.73 179.94 C 111.61 179.72 112.15 178.82 111.93 177.93 L 111.68 176.98 C 111.46 176.09 110.56 175.56 109.68 175.78 C 108.79 176.00 108.26 176.90 108.48 177.79 Z M 108.77 178.87 L 109.08 179.77 C 109.37 180.63 110.30 181.09 111.16 180.79 C 112.02 180.50 112.48 179.56 112.19 178.70 L 111.88 177.81 C 111.59 176.95 110.65 176.49 109.79 176.78 C 108.93 177.08 108.48 178.01 108.77 178.87 Z M 109.10 179.82 L 109.32 180.41 C 109.65 181.25 110.59 181.68 111.44 181.36 C 112.28 181.04 112.71 180.09 112.39 179.24 L 112.16 178.65 C 111.84 177.81 110.90 177.38 110.05 177.70 C 109.20 178.02 108.78 178.97 109.10 179.82 Z"
      fill="black"
      fill-rule="nonzero" /><path d="M 151.98 119.86 L 151.50 120.68 C 150.99 121.56 151.28 122.68 152.15 123.19 C 153.03 123.70 154.15 123.41 154.66 122.54 L 155.14 121.72 C 155.65 120.84 155.36 119.72 154.49 119.21 C 153.61 118.70 152.49 118.99 151.98 119.86 Z M 151.44 120.78 L 151.00 121.65 C 150.54 122.55 150.91 123.66 151.81 124.11 C 152.71 124.57 153.82 124.21 154.28 123.31 L 154.72 122.44 C 155.18 121.53 154.81 120.43 153.91 119.97 C 153.01 119.51 151.90 119.87 151.44 120.78 Z M 150.92 121.83 L 150.56 122.81 C 150.20 123.76 150.68 124.82 151.63 125.17 C 152.58 125.53 153.63 125.05 153.99 124.10 L 154.36 123.12 C 154.71 122.17 154.23 121.12 153.28 120.76 C 152.34 120.40 151.28 120.89 150.92 121.83 Z M 150.49 123.03 L 150.27 123.97 C 150.03 124.95 150.64 125.94 151.62 126.18 C 152.61 126.41 153.59 125.80 153.83 124.82 L 154.06 123.88 C 154.29 122.90 153.68 121.91 152.70 121.67 C 151.72 121.44 150.73 122.04 150.49 123.03 Z M 150.24 124.13 L 150.10 125.09 C 149.95 126.09 150.64 127.01 151.64 127.16 C 152.64 127.31 153.56 126.62 153.71 125.62 L 153.85 124.66 C 154.00 123.66 153.31 122.74 152.32 122.59 C 151.32 122.44 150.39 123.13 150.24 124.13 Z M 150.09 125.19 L 150.00 126.20 C 149.91 127.20 150.64 128.09 151.64 128.18 C 152.64 128.28 153.53 127.54 153.62 126.54 L 153.72 125.52 C 153.81 124.52 153.07 123.64 152.07 123.54 C 151.07 123.45 150.19 124.19 150.09 125.19 Z M 150.00 126.26 L 149.94 127.31 C 149.88 128.31 150.64 129.16 151.64 129.22 C 152.64 129.29 153.50 128.52 153.56 127.53 L 153.62 126.48 C 153.68 125.48 152.92 124.62 151.92 124.56 C 150.92 124.50 150.06 125.26 150.00 126.26 Z M 149.95 127.33 L 149.90 128.35 C 149.85 129.35 150.62 130.19 151.62 130.24 C 152.62 130.28 153.46 129.51 153.50 128.52 L 153.55 127.50 C 153.60 126.50 152.83 125.66 151.83 125.61 C 150.84 125.57 149.99 126.34 149.95 127.33 Z M 149.91 128.36 L 149.87 129.35 C 149.83 130.34 150.60 131.17 151.59 131.21 C 152.58 131.25 153.42 130.48 153.46 129.49 L 153.50 128.51 C 153.54 127.52 152.77 126.68 151.77 126.64 C 150.78 126.60 149.95 127.37 149.91 128.36 Z M 149.88 129.35 L 149.84 130.34 C 149.80 131.33 150.57 132.16 151.56 132.19 C 152.54 132.23 153.37 131.46 153.41 130.48 L 153.45 129.49 C 153.48 128.50 152.72 127.67 151.73 127.63 C 150.74 127.60 149.91 128.37 149.88 129.35 Z M 149.85 130.34 L 149.81 131.34 C 149.77 132.32 150.54 133.15 151.52 133.19 C 152.50 133.23 153.32 132.46 153.36 131.48 L 153.40 130.48 C 153.44 129.50 152.67 128.67 151.69 128.63 C 150.71 128.60 149.89 129.36 149.85 130.34 Z M 149.82 131.34 L 149.78 132.34 C 149.74 133.32 150.49 134.14 151.47 134.18 C 152.45 134.22 153.27 133.47 153.31 132.49 L 153.35 131.49 C 153.39 130.51 152.63 129.69 151.66 129.65 C 150.68 129.61 149.86 130.36 149.82 131.34 Z M 149.79 132.34 L 149.75 133.21 C 149.70 134.18 150.45 135.00 151.42 135.05 C 152.39 135.09 153.22 134.34 153.26 133.37 L 153.30 132.50 C 153.35 131.53 152.60 130.70 151.62 130.66 C 150.65 130.61 149.83 131.36 149.79 132.34 Z M 149.75 133.20 L 149.71 134.12 C 149.66 135.08 150.40 135.91 151.37 135.96 C 152.34 136.00 153.16 135.26 153.21 134.29 L 153.26 133.38 C 153.30 132.41 152.56 131.59 151.59 131.54 C 150.62 131.49 149.80 132.23 149.75 133.20 Z M 149.71 134.11 L 149.66 135.09 C 149.61 136.05 150.35 136.87 151.31 136.92 C 152.28 136.98 153.10 136.24 153.15 135.27 L 153.20 134.30 C 153.25 133.33 152.52 132.51 151.55 132.46 C 150.59 132.41 149.76 133.15 149.71 134.11 Z M 149.67 135.08 L 149.61 136.13 C 149.55 137.09 150.29 137.92 151.25 137.97 C 152.21 138.02 153.03 137.29 153.09 136.33 L 153.14 135.28 C 153.20 134.32 152.46 133.49 151.50 133.44 C 150.54 133.39 149.72 134.12 149.67 135.08 Z M 149.61 136.13 L 149.54 137.27 C 149.49 138.23 150.22 139.05 151.18 139.11 C 152.13 139.17 152.95 138.44 153.01 137.48 L 153.08 136.33 C 153.14 135.38 152.41 134.55 151.45 134.50 C 150.49 134.44 149.67 135.17 149.61 136.13 Z M 149.55 137.27 L 149.49 138.24 C 149.43 139.19 150.16 140.01 151.11 140.07 C 152.07 140.13 152.89 139.40 152.95 138.45 L 153.01 137.48 C 153.06 136.53 152.34 135.71 151.38 135.65 C 150.43 135.59 149.61 136.32 149.55 137.27 Z M 149.50 138.23 L 149.44 139.17 C 149.38 140.12 150.10 140.94 151.05 141.00 C 152.01 141.06 152.83 140.33 152.88 139.38 L 152.94 138.45 C 153.00 137.50 152.28 136.68 151.33 136.62 C 150.38 136.56 149.56 137.28 149.50 138.23 Z M 149.44 139.16 L 149.38 140.14 C 149.32 141.09 150.04 141.90 150.99 141.97 C 151.94 142.03 152.76 141.31 152.82 140.36 L 152.88 139.38 C 152.94 138.43 152.22 137.61 151.27 137.55 C 150.32 137.49 149.50 138.21 149.44 139.16 Z M 149.38 140.13 L 149.32 141.14 C 149.26 142.09 149.97 142.90 150.92 142.97 C 151.87 143.03 152.69 142.31 152.75 141.36 L 152.81 140.36 C 152.88 139.41 152.16 138.59 151.21 138.53 C 150.26 138.47 149.45 139.19 149.38 140.13 Z M 149.32 141.14 L 149.25 142.17 C 149.19 143.11 149.90 143.93 150.85 143.99 C 151.79 144.06 152.61 143.34 152.67 142.40 L 152.74 141.37 C 152.81 140.42 152.09 139.60 151.15 139.54 C 150.20 139.48 149.39 140.19 149.32 141.14 Z M 149.26 142.16 L 149.18 143.21 C 149.12 144.15 149.83 144.97 150.77 145.03 C 151.71 145.10 152.53 144.39 152.60 143.44 L 152.67 142.40 C 152.74 141.46 152.02 140.64 151.08 140.57 C 150.14 140.51 149.32 141.22 149.26 142.16 Z M 149.19 143.20 L 149.11 144.25 C 149.05 145.19 149.75 146.01 150.69 146.08 C 151.63 146.14 152.45 145.44 152.52 144.50 L 152.59 143.45 C 152.66 142.51 151.95 141.69 151.01 141.62 C 150.07 141.55 149.26 142.26 149.19 143.20 Z M 149.12 144.25 L 149.04 145.31 C 148.97 146.25 149.67 147.06 150.61 147.13 C 151.55 147.20 152.36 146.50 152.43 145.56 L 152.51 144.50 C 152.58 143.56 151.88 142.75 150.94 142.68 C 150.00 142.61 149.19 143.31 149.12 144.25 Z M 149.04 145.30 L 148.96 146.43 C 148.89 147.36 149.58 148.18 150.52 148.25 C 151.45 148.32 152.27 147.62 152.34 146.69 L 152.43 145.57 C 152.50 144.63 151.80 143.81 150.87 143.74 C 149.93 143.67 149.12 144.37 149.04 145.30 Z M 148.96 146.43 L 148.88 147.52 C 148.81 148.45 149.50 149.26 150.43 149.34 C 151.36 149.41 152.18 148.71 152.25 147.78 L 152.34 146.69 C 152.41 145.76 151.71 144.94 150.78 144.87 C 149.85 144.80 149.04 145.49 148.96 146.43 Z M 148.89 147.52 L 148.81 148.58 C 148.73 149.51 149.43 150.32 150.36 150.39 C 151.28 150.46 152.09 149.76 152.16 148.84 L 152.24 147.78 C 152.31 146.85 151.62 146.04 150.69 145.97 C 149.76 145.90 148.96 146.60 148.89 147.52 Z M 148.81 148.59 L 148.74 149.60 C 148.67 150.52 149.37 151.32 150.29 151.39 C 151.22 151.46 152.02 150.76 152.09 149.84 L 152.16 148.83 C 152.22 147.90 151.53 147.10 150.60 147.04 C 149.68 146.97 148.88 147.67 148.81 148.59 Z M 148.74 149.61 L 148.69 150.56 C 148.63 151.48 149.33 152.28 150.25 152.33 C 151.17 152.39 151.96 151.69 152.02 150.77 L 152.08 149.82 C 152.14 148.90 151.44 148.11 150.52 148.05 C 149.60 147.99 148.80 148.69 148.74 149.61 Z M 148.69 150.58 L 148.65 151.46 C 148.60 152.38 149.31 153.16 150.23 153.21 C 151.14 153.25 151.93 152.54 151.97 151.63 L 152.02 150.75 C 152.06 149.83 151.35 149.05 150.44 149.00 C 149.52 148.96 148.74 149.66 148.69 150.58 Z M 148.65 151.49 L 148.62 152.42 C 148.60 153.34 149.32 154.10 150.23 154.13 C 151.15 154.15 151.91 153.43 151.94 152.52 L 151.97 151.59 C 151.99 150.68 151.27 149.91 150.36 149.89 C 149.44 149.86 148.68 150.58 148.65 151.49 Z M 148.63 152.49 L 148.64 153.67 C 148.65 154.58 149.40 155.32 150.31 155.31 C 151.22 155.30 151.95 154.55 151.95 153.64 L 151.94 152.45 C 151.93 151.54 151.18 150.81 150.27 150.82 C 149.35 150.83 148.62 151.57 148.63 152.49 Z M 148.65 153.75 L 148.71 154.74 C 148.76 155.65 149.54 156.34 150.45 156.29 C 151.36 156.23 152.05 155.45 152.00 154.55 L 151.94 153.56 C 151.89 152.65 151.11 151.96 150.20 152.01 C 149.29 152.06 148.59 152.84 148.65 153.75 Z M 148.72 154.81 L 148.80 155.68 C 148.90 156.58 149.70 157.24 150.61 157.14 C 151.51 157.05 152.17 156.25 152.07 155.34 L 151.99 154.48 C 151.89 153.57 151.09 152.92 150.19 153.01 C 149.28 153.10 148.63 153.91 148.72 154.81 Z M 148.81 155.71 L 148.88 156.28 C 148.99 157.18 149.81 157.82 150.71 157.71 C 151.61 157.60 152.25 156.78 152.14 155.88 L 152.07 155.31 C 151.96 154.41 151.14 153.77 150.24 153.88 C 149.34 153.99 148.70 154.81 148.81 155.71 Z"
      fill="black"
      fill-rule="nonzero" /><path d="M 150.49 119.20 L 151.01 118.32 C 151.52 117.45 151.23 116.33 150.36 115.82 C 149.49 115.30 148.37 115.59 147.86 116.46 L 147.34 117.34 C 146.83 118.21 147.12 119.33 147.99 119.85 C 148.86 120.36 149.98 120.07 150.49 119.20 Z M 150.93 118.44 L 151.51 117.62 C 152.09 116.80 151.89 115.65 151.06 115.07 C 150.23 114.49 149.09 114.70 148.51 115.52 L 147.93 116.34 C 147.36 117.17 147.56 118.31 148.38 118.89 C 149.21 119.47 150.35 119.27 150.93 118.44 Z M 151.32 117.86 L 152.00 117.16 C 152.71 116.44 152.70 115.28 151.98 114.57 C 151.25 113.86 150.09 113.87 149.38 114.59 L 148.70 115.29 C 147.99 116.01 148.00 117.17 148.72 117.88 C 149.45 118.59 150.61 118.58 151.32 117.86 Z M 151.69 117.42 L 152.41 116.95 C 153.26 116.40 153.51 115.26 152.96 114.41 C 152.40 113.56 151.27 113.32 150.42 113.87 L 149.69 114.33 C 148.84 114.89 148.60 116.02 149.15 116.87 C 149.70 117.72 150.84 117.97 151.69 117.42 Z M 152.12 117.10 L 152.97 116.75 C 153.90 116.36 154.35 115.28 153.96 114.35 C 153.56 113.41 152.49 112.97 151.55 113.36 L 150.71 113.71 C 149.77 114.10 149.33 115.18 149.72 116.12 C 150.11 117.05 151.19 117.50 152.12 117.10 Z M 152.77 116.82 L 153.78 116.53 C 154.75 116.25 155.31 115.23 155.03 114.25 C 154.75 113.27 153.73 112.71 152.75 113.00 L 151.75 113.29 C 150.77 113.57 150.21 114.59 150.49 115.57 C 150.78 116.54 151.80 117.11 152.77 116.82 Z M 153.67 116.56 L 154.80 116.30 C 155.79 116.08 156.42 115.09 156.19 114.10 C 155.96 113.11 154.98 112.48 153.99 112.71 L 152.85 112.97 C 151.86 113.19 151.24 114.18 151.47 115.17 C 151.69 116.16 152.68 116.79 153.67 116.56 Z M 154.76 116.31 L 155.72 116.12 C 156.72 115.91 157.36 114.94 157.16 113.94 C 156.96 112.94 155.98 112.30 154.99 112.50 L 154.03 112.70 C 153.03 112.90 152.39 113.88 152.59 114.87 C 152.79 115.87 153.77 116.51 154.76 116.31 Z M 155.70 116.12 L 156.71 115.93 C 157.71 115.74 158.37 114.77 158.18 113.77 C 157.99 112.77 157.03 112.12 156.03 112.31 L 155.01 112.50 C 154.01 112.69 153.35 113.65 153.54 114.65 C 153.73 115.65 154.70 116.31 155.70 116.12 Z M 156.69 115.93 L 157.72 115.75 C 158.72 115.57 159.39 114.61 159.21 113.61 C 159.03 112.61 158.08 111.94 157.07 112.12 L 156.05 112.30 C 155.04 112.48 154.38 113.44 154.55 114.44 C 154.73 115.44 155.69 116.11 156.69 115.93 Z M 157.70 115.75 L 158.70 115.59 C 159.70 115.42 160.38 114.47 160.21 113.46 C 160.05 112.46 159.10 111.78 158.09 111.95 L 157.09 112.11 C 156.09 112.28 155.41 113.23 155.58 114.24 C 155.75 115.24 156.70 115.92 157.70 115.75 Z M 158.68 115.59 L 159.61 115.45 C 160.62 115.29 161.31 114.35 161.15 113.34 C 161.00 112.33 160.06 111.64 159.05 111.80 L 158.11 111.94 C 157.11 112.10 156.42 113.04 156.57 114.05 C 156.73 115.06 157.67 115.75 158.68 115.59 Z M 159.58 115.45 L 160.74 115.30 C 161.75 115.16 162.46 114.23 162.32 113.22 C 162.18 112.21 161.25 111.50 160.24 111.64 L 159.08 111.79 C 158.07 111.93 157.36 112.86 157.50 113.87 C 157.64 114.88 158.57 115.59 159.58 115.45 Z M 160.69 115.30 L 161.68 115.19 C 162.70 115.08 163.43 114.17 163.32 113.16 C 163.21 112.14 162.30 111.41 161.28 111.52 L 160.29 111.63 C 159.27 111.74 158.54 112.65 158.65 113.67 C 158.76 114.68 159.68 115.41 160.69 115.30 Z M 161.64 115.20 L 162.53 115.12 C 163.55 115.04 164.31 114.14 164.22 113.13 C 164.14 112.11 163.24 111.36 162.22 111.44 L 161.33 111.52 C 160.31 111.60 159.56 112.50 159.64 113.51 C 159.73 114.53 160.62 115.29 161.64 115.20 Z M 162.50 115.13 L 163.41 115.07 C 164.43 115.00 165.20 114.12 165.13 113.10 C 165.07 112.08 164.19 111.31 163.17 111.38 L 162.26 111.44 C 161.24 111.50 160.47 112.38 160.53 113.40 C 160.60 114.42 161.48 115.20 162.50 115.13 Z M 163.38 115.07 L 164.35 115.02 C 165.37 114.97 166.16 114.10 166.11 113.08 C 166.06 112.06 165.19 111.28 164.17 111.33 L 163.20 111.38 C 162.18 111.43 161.39 112.29 161.44 113.31 C 161.49 114.33 162.36 115.12 163.38 115.07 Z M 164.32 115.03 L 165.32 115.00 C 166.34 114.97 167.15 114.12 167.12 113.09 C 167.09 112.07 166.24 111.27 165.21 111.30 L 164.21 111.33 C 163.19 111.35 162.38 112.21 162.41 113.23 C 162.44 114.25 163.29 115.05 164.32 115.03 Z M 165.28 115.00 L 166.30 114.99 C 167.32 114.99 168.15 114.15 168.14 113.13 C 168.14 112.11 167.30 111.29 166.28 111.29 L 165.26 111.30 C 164.24 111.30 163.41 112.13 163.42 113.16 C 163.42 114.18 164.25 115.00 165.28 115.00 Z M 166.23 114.99 L 167.22 115.03 C 168.24 115.06 169.09 114.26 169.13 113.24 C 169.17 112.22 168.37 111.36 167.34 111.33 L 166.36 111.29 C 165.33 111.26 164.48 112.06 164.44 113.08 C 164.41 114.10 165.20 114.96 166.23 114.99 Z M 167.06 115.01 L 168.06 115.13 C 169.08 115.25 170.00 114.53 170.12 113.51 C 170.24 112.50 169.51 111.58 168.50 111.46 L 167.50 111.34 C 166.48 111.22 165.56 111.94 165.44 112.96 C 165.32 113.97 166.05 114.89 167.06 115.01 Z M 167.82 115.09 L 168.79 115.34 C 169.78 115.59 170.79 114.99 171.05 114.00 C 171.30 113.01 170.70 112.00 169.71 111.75 L 168.74 111.50 C 167.75 111.25 166.74 111.84 166.48 112.83 C 166.23 113.82 166.83 114.83 167.82 115.09 Z M 168.48 115.23 L 169.39 115.64 C 170.32 116.07 171.42 115.66 171.84 114.73 C 172.27 113.80 171.86 112.70 170.93 112.28 L 170.03 111.86 C 169.10 111.44 168.00 111.84 167.57 112.77 C 167.14 113.70 167.55 114.80 168.48 115.23 Z M 169.11 115.49 L 169.94 116.05 C 170.79 116.63 171.94 116.41 172.52 115.57 C 173.09 114.72 172.88 113.57 172.03 113.00 L 171.20 112.43 C 170.36 111.85 169.21 112.07 168.63 112.92 C 168.05 113.76 168.27 114.91 169.11 115.49 Z M 169.74 115.89 L 170.48 116.57 C 171.23 117.26 172.41 117.21 173.10 116.45 C 173.79 115.70 173.73 114.53 172.98 113.84 L 172.24 113.16 C 171.48 112.47 170.31 112.52 169.62 113.28 C 168.93 114.03 168.98 115.20 169.74 115.89 Z M 170.32 116.41 L 170.96 117.15 C 171.62 117.93 172.79 118.02 173.57 117.35 C 174.34 116.69 174.44 115.52 173.77 114.74 L 173.14 114.00 C 172.47 113.22 171.30 113.13 170.53 113.80 C 169.75 114.46 169.66 115.63 170.32 116.41 Z M 170.83 116.98 L 171.33 117.72 C 171.90 118.56 173.05 118.79 173.90 118.22 C 174.74 117.64 174.97 116.49 174.39 115.65 L 173.90 114.91 C 173.33 114.06 172.18 113.84 171.33 114.41 C 170.48 114.98 170.26 116.13 170.83 116.98 Z M 171.22 117.54 L 171.65 118.36 C 172.12 119.27 173.24 119.62 174.15 119.15 C 175.05 118.67 175.40 117.56 174.93 116.65 L 174.50 115.83 C 174.03 114.92 172.91 114.57 172.01 115.04 C 171.10 115.51 170.75 116.63 171.22 117.54 Z M 171.58 118.20 L 171.97 119.16 C 172.35 120.11 173.42 120.57 174.37 120.19 C 175.32 119.80 175.78 118.73 175.39 117.78 L 175.01 116.82 C 174.62 115.87 173.55 115.41 172.60 115.79 C 171.65 116.17 171.20 117.25 171.58 118.20 Z M 171.92 119.04 L 172.27 120.11 C 172.58 121.09 173.62 121.62 174.60 121.31 C 175.57 120.99 176.10 119.95 175.79 118.98 L 175.44 117.90 C 175.12 116.93 174.08 116.40 173.11 116.71 C 172.14 117.03 171.61 118.07 171.92 119.04 Z M 172.25 120.04 L 172.49 120.92 C 172.77 121.90 173.78 122.47 174.77 122.20 C 175.75 121.93 176.32 120.91 176.05 119.93 L 175.81 119.05 C 175.53 118.07 174.52 117.50 173.53 117.77 C 172.55 118.04 171.98 119.06 172.25 120.04 Z M 172.48 120.87 L 172.72 121.82 C 172.97 122.81 173.97 123.41 174.96 123.16 C 175.94 122.91 176.54 121.91 176.30 120.92 L 176.06 119.97 C 175.81 118.99 174.81 118.39 173.82 118.63 C 172.84 118.88 172.24 119.88 172.48 120.87 Z M 172.71 121.78 L 172.94 122.78 C 173.16 123.77 174.15 124.39 175.14 124.17 C 176.13 123.94 176.76 122.95 176.53 121.96 L 176.30 120.96 C 176.08 119.97 175.09 119.35 174.10 119.57 C 173.11 119.80 172.49 120.79 172.71 121.78 Z M 172.93 122.74 L 173.14 123.77 C 173.35 124.76 174.32 125.40 175.32 125.20 C 176.31 124.99 176.95 124.02 176.75 123.03 L 176.54 122.00 C 176.33 121.00 175.36 120.36 174.37 120.57 C 173.37 120.77 172.73 121.74 172.93 122.74 Z M 173.14 123.73 L 173.33 124.76 C 173.51 125.76 174.47 126.42 175.47 126.23 C 176.47 126.05 177.13 125.09 176.94 124.09 L 176.75 123.06 C 176.57 122.06 175.61 121.40 174.61 121.59 C 173.61 121.77 172.95 122.73 173.14 123.73 Z M 173.32 124.72 L 173.49 125.74 C 173.65 126.74 174.59 127.42 175.59 127.26 C 176.60 127.10 177.28 126.16 177.11 125.16 L 176.95 124.13 C 176.79 123.13 175.84 122.45 174.84 122.61 C 173.84 122.77 173.16 123.72 173.32 124.72 Z M 173.49 125.70 L 173.63 126.73 C 173.77 127.73 174.69 128.44 175.69 128.30 C 176.70 128.16 177.40 127.24 177.26 126.23 L 177.12 125.20 C 176.98 124.20 176.05 123.50 175.05 123.63 C 174.05 123.77 173.35 124.70 173.49 125.70 Z M 173.63 126.69 L 173.74 127.69 C 173.86 128.70 174.76 129.42 175.76 129.30 C 176.77 129.19 177.49 128.28 177.37 127.28 L 177.26 126.28 C 177.14 125.27 176.24 124.55 175.24 124.67 C 174.23 124.78 173.51 125.69 173.63 126.69 Z M 173.74 127.65 L 173.83 128.64 C 173.93 129.64 174.81 130.38 175.81 130.28 C 176.82 130.19 177.55 129.31 177.46 128.30 L 177.37 127.32 C 177.28 126.32 176.39 125.58 175.39 125.67 C 174.39 125.77 173.65 126.65 173.74 127.65 Z M 173.84 128.60 L 173.91 129.58 C 173.98 130.58 174.85 131.33 175.85 131.26 C 176.85 131.18 177.60 130.31 177.53 129.31 L 177.46 128.34 C 177.39 127.34 176.52 126.59 175.52 126.66 C 174.52 126.73 173.76 127.60 173.84 128.60 Z M 173.91 129.55 L 173.97 130.52 C 174.03 131.52 174.88 132.28 175.88 132.22 C 176.88 132.17 177.64 131.31 177.58 130.31 L 177.53 129.34 C 177.47 128.34 176.61 127.58 175.61 127.64 C 174.62 127.70 173.85 128.55 173.91 129.55 Z M 173.97 130.50 L 174.02 131.48 C 174.07 132.48 174.91 133.25 175.91 133.20 C 176.90 133.15 177.67 132.31 177.63 131.31 L 177.58 130.33 C 177.53 129.34 176.69 128.57 175.69 128.61 C 174.69 128.66 173.93 129.51 173.97 130.50 Z M 174.02 131.47 L 174.06 132.45 C 174.10 133.45 174.94 134.22 175.93 134.18 C 176.92 134.14 177.70 133.31 177.66 132.31 L 177.62 131.33 C 177.58 130.33 176.75 129.56 175.75 129.60 C 174.76 129.64 173.99 130.47 174.02 131.47 Z M 174.07 132.44 L 174.10 133.44 C 174.13 134.43 174.96 135.20 175.95 135.17 C 176.94 135.14 177.72 134.32 177.68 133.33 L 177.65 132.33 C 177.62 131.34 176.79 130.56 175.80 130.59 C 174.81 130.62 174.04 131.45 174.07 132.44 Z M 174.10 133.43 L 174.13 134.43 C 174.15 135.42 174.97 136.20 175.96 136.17 C 176.95 136.15 177.73 135.33 177.70 134.34 L 177.68 133.34 C 177.65 132.35 176.83 131.57 175.85 131.59 C 174.86 131.62 174.08 132.44 174.10 133.43 Z M 174.14 134.42 L 174.15 135.43 C 174.17 136.41 174.99 137.19 175.97 137.18 C 176.95 137.16 177.74 136.34 177.72 135.36 L 177.70 134.35 C 177.68 133.37 176.87 132.59 175.88 132.60 C 174.90 132.62 174.12 133.44 174.14 134.42 Z M 174.16 135.42 L 174.17 136.43 C 174.19 137.41 174.99 138.19 175.97 138.18 C 176.96 138.17 177.74 137.36 177.73 136.38 L 177.71 135.37 C 177.70 134.39 176.89 133.60 175.91 133.62 C 174.93 133.63 174.15 134.44 174.16 135.42 Z M 174.18 136.42 L 174.19 137.46 C 174.20 138.44 175.00 139.23 175.98 139.22 C 176.95 139.21 177.74 138.41 177.73 137.43 L 177.72 136.39 C 177.71 135.41 176.91 134.63 175.93 134.64 C 174.96 134.65 174.17 135.45 174.18 136.42 Z M 174.20 137.46 L 174.20 138.49 C 174.21 139.47 175.00 140.25 175.98 140.24 C 176.95 140.24 177.74 139.44 177.73 138.47 L 177.72 137.44 C 177.72 136.46 176.92 135.68 175.95 135.68 C 174.98 135.69 174.19 136.48 174.20 137.46 Z M 174.21 138.49 L 174.21 139.50 C 174.22 140.47 175.01 141.26 175.98 141.25 C 176.95 141.25 177.73 140.46 177.73 139.49 L 177.72 138.48 C 177.72 137.51 176.93 136.72 175.96 136.73 C 174.99 136.73 174.21 137.52 174.21 138.49 Z M 174.22 139.50 L 174.22 140.49 C 174.22 141.46 175.01 142.24 175.97 142.24 C 176.94 142.24 177.72 141.45 177.72 140.49 L 177.72 139.50 C 177.72 138.53 176.93 137.75 175.97 137.75 C 175.00 137.75 174.22 138.54 174.22 139.50 Z M 174.23 140.49 L 174.23 141.44 C 174.23 142.41 175.01 143.19 175.97 143.19 C 176.94 143.19 177.71 142.41 177.71 141.44 L 177.71 140.49 C 177.71 139.53 176.93 138.75 175.97 138.75 C 175.01 138.75 174.23 139.53 174.23 140.49 Z M 174.24 141.44 L 174.24 142.46 C 174.24 143.42 175.01 144.20 175.97 144.20 C 176.93 144.20 177.71 143.42 177.71 142.46 L 177.71 141.44 C 177.71 140.49 176.93 139.71 175.97 139.71 C 175.01 139.71 174.24 140.49 174.24 141.44 Z M 174.25 142.46 L 174.25 143.53 C 174.25 144.48 175.02 145.26 175.97 145.26 C 176.93 145.26 177.70 144.48 177.70 143.53 L 177.70 142.46 C 177.70 141.51 176.93 140.74 175.97 140.74 C 175.02 140.74 174.25 141.51 174.25 142.46 Z M 174.25 143.53 L 174.25 144.53 C 174.25 145.48 175.02 146.25 175.97 146.25 C 176.92 146.25 177.69 145.48 177.69 144.53 L 177.69 143.53 C 177.69 142.58 176.92 141.81 175.97 141.81 C 175.02 141.81 174.25 142.58 174.25 143.53 Z M 174.26 144.53 L 174.26 145.48 C 174.26 146.43 175.03 147.19 175.97 147.19 C 176.92 147.19 177.68 146.43 177.68 145.48 L 177.68 144.53 C 177.68 143.59 176.92 142.82 175.97 142.82 C 175.03 142.82 174.26 143.59 174.26 144.53 Z M 174.27 145.48 L 174.27 146.41 C 174.27 147.35 175.03 148.11 175.97 148.11 C 176.91 148.11 177.67 147.35 177.67 146.41 L 177.67 145.48 C 177.67 144.55 176.91 143.78 175.97 143.78 C 175.03 143.78 174.27 144.55 174.27 145.48 Z M 174.28 146.41 L 174.28 147.44 C 174.28 148.38 175.03 149.14 175.97 149.14 C 176.90 149.14 177.66 148.38 177.66 147.45 L 177.67 146.42 C 177.67 145.48 176.91 144.72 175.98 144.72 C 175.04 144.72 174.28 145.47 174.28 146.41 Z M 174.28 147.43 L 174.27 148.43 C 174.26 149.36 175.01 150.12 175.94 150.13 C 176.87 150.14 177.64 149.39 177.65 148.46 L 177.66 147.46 C 177.67 146.53 176.92 145.77 175.99 145.76 C 175.06 145.75 174.29 146.49 174.28 147.43 Z M 174.28 148.40 L 174.25 149.37 C 174.23 150.30 174.96 151.08 175.89 151.10 C 176.81 151.13 177.59 150.40 177.61 149.47 L 177.64 148.49 C 177.67 147.56 176.93 146.79 176.01 146.76 C 175.08 146.74 174.31 147.47 174.28 148.40 Z M 174.26 149.33 L 174.20 150.35 C 174.15 151.27 174.86 152.06 175.78 152.12 C 176.71 152.17 177.50 151.46 177.55 150.54 L 177.60 149.51 C 177.66 148.59 176.95 147.80 176.02 147.75 C 175.10 147.70 174.31 148.41 174.26 149.33 Z M 174.22 150.25 L 174.09 151.31 C 173.98 152.22 174.64 153.05 175.55 153.16 C 176.47 153.27 177.30 152.61 177.41 151.70 L 177.53 150.64 C 177.64 149.73 176.99 148.90 176.07 148.79 C 175.16 148.68 174.33 149.33 174.22 150.25 Z M 174.15 151.07 L 173.89 152.01 C 173.65 152.90 174.18 153.81 175.06 154.05 C 175.95 154.29 176.86 153.77 177.10 152.88 L 177.35 151.94 C 177.59 151.05 177.07 150.14 176.18 149.90 C 175.30 149.66 174.39 150.18 174.15 151.07 Z M 174.08 151.59 L 173.62 152.35 C 173.15 153.14 173.40 154.15 174.18 154.62 C 174.96 155.10 175.98 154.84 176.45 154.06 L 176.91 153.30 C 177.38 152.52 177.13 151.50 176.35 151.03 C 175.57 150.56 174.55 150.81 174.08 151.59 Z M 174.06 151.88 L 173.30 152.44 C 172.57 152.98 172.42 154.01 172.96 154.74 C 173.50 155.48 174.53 155.63 175.26 155.09 L 176.02 154.53 C 176.75 153.99 176.90 152.96 176.36 152.23 C 175.82 151.50 174.79 151.34 174.06 151.88 Z M 173.69 152.23 L 172.75 152.60 C 171.90 152.92 171.48 153.88 171.81 154.72 C 172.14 155.57 173.09 155.99 173.94 155.66 L 174.88 155.30 C 175.72 154.97 176.14 154.02 175.81 153.17 C 175.49 152.32 174.53 151.90 173.69 152.23 Z M 172.91 152.55 L 172.09 152.77 C 171.22 153.01 170.70 153.92 170.94 154.79 C 171.18 155.66 172.09 156.17 172.96 155.93 L 173.78 155.71 C 174.65 155.47 175.16 154.57 174.92 153.69 C 174.68 152.82 173.78 152.31 172.91 152.55 Z"
      fill="black"
      fill-rule="nonzero" /><path d="M 153.31 137.51 L 154.32 137.66 C 155.27 137.80 156.16 137.14 156.30 136.18 C 156.44 135.23 155.78 134.34 154.82 134.20 L 153.81 134.05 C 152.86 133.91 151.97 134.57 151.83 135.53 C 151.69 136.48 152.35 137.37 153.31 137.51 Z M 154.33 137.68 L 155.33 137.82 C 156.30 137.95 157.19 137.27 157.32 136.30 C 157.46 135.33 156.78 134.44 155.81 134.31 L 154.81 134.17 C 153.84 134.04 152.95 134.72 152.81 135.69 C 152.68 136.66 153.36 137.55 154.33 137.68 Z M 155.37 137.85 L 156.35 137.96 C 157.33 138.07 158.22 137.36 158.33 136.38 C 158.44 135.40 157.74 134.51 156.75 134.40 L 155.77 134.28 C 154.79 134.17 153.90 134.88 153.79 135.86 C 153.68 136.85 154.38 137.73 155.37 137.85 Z M 156.41 137.98 L 157.41 138.05 C 158.40 138.13 159.27 137.39 159.35 136.40 C 159.43 135.40 158.68 134.54 157.69 134.46 L 156.69 134.38 C 155.70 134.30 154.83 135.04 154.75 136.03 C 154.67 137.03 155.42 137.90 156.41 137.98 Z M 157.48 138.05 L 158.50 138.08 C 159.49 138.12 160.32 137.35 160.35 136.36 C 160.39 135.37 159.62 134.54 158.63 134.50 L 157.61 134.47 C 156.63 134.43 155.79 135.20 155.76 136.19 C 155.72 137.18 156.49 138.01 157.48 138.05 Z M 158.57 138.06 L 159.55 138.06 C 160.53 138.06 161.32 137.26 161.32 136.29 C 161.32 135.31 160.52 134.52 159.55 134.52 L 158.56 134.53 C 157.58 134.53 156.80 135.32 156.80 136.30 C 156.80 137.27 157.59 138.06 158.57 138.06 Z M 159.61 138.03 L 160.57 138.00 C 161.54 137.97 162.29 137.16 162.25 136.20 C 162.22 135.24 161.42 134.48 160.45 134.52 L 159.49 134.55 C 158.53 134.58 157.78 135.39 157.81 136.35 C 157.84 137.31 158.65 138.07 159.61 138.03 Z M 160.62 137.98 L 161.56 137.92 C 162.51 137.86 163.23 137.05 163.17 136.10 C 163.12 135.15 162.30 134.42 161.35 134.48 L 160.41 134.54 C 159.46 134.60 158.74 135.41 158.80 136.36 C 158.85 137.31 159.67 138.03 160.62 137.98 Z M 161.60 137.90 L 162.58 137.82 C 163.52 137.74 164.22 136.92 164.14 135.98 C 164.06 135.04 163.24 134.34 162.30 134.42 L 161.31 134.50 C 160.38 134.58 159.68 135.40 159.76 136.34 C 159.83 137.28 160.66 137.98 161.60 137.90 Z M 162.60 137.80 L 163.67 137.70 C 164.60 137.60 165.28 136.78 165.19 135.85 C 165.09 134.92 164.27 134.24 163.34 134.33 L 162.27 134.44 C 161.34 134.53 160.66 135.36 160.76 136.29 C 160.85 137.21 161.68 137.89 162.60 137.80 Z M 163.68 137.68 L 164.67 137.57 C 165.59 137.48 166.25 136.65 166.16 135.73 C 166.06 134.81 165.23 134.14 164.31 134.24 L 163.33 134.35 C 162.41 134.45 161.74 135.27 161.84 136.19 C 161.94 137.11 162.76 137.78 163.68 137.68 Z M 164.67 137.56 L 165.68 137.45 C 166.60 137.35 167.26 136.53 167.16 135.62 C 167.06 134.70 166.24 134.04 165.32 134.14 L 164.31 134.25 C 163.39 134.35 162.73 135.17 162.83 136.09 C 162.93 137.00 163.76 137.66 164.67 137.56 Z M 165.68 137.44 L 166.70 137.34 C 167.61 137.24 168.27 136.42 168.17 135.52 C 168.07 134.61 167.26 133.95 166.35 134.04 L 165.33 134.15 C 164.42 134.25 163.76 135.06 163.86 135.97 C 163.95 136.88 164.77 137.54 165.68 137.44 Z M 166.68 137.33 L 167.66 137.23 C 168.57 137.14 169.23 136.34 169.14 135.44 C 169.05 134.53 168.25 133.87 167.35 133.96 L 166.36 134.05 C 165.46 134.14 164.80 134.94 164.89 135.85 C 164.97 136.75 165.78 137.42 166.68 137.33 Z M 167.64 137.23 L 168.71 137.15 C 169.61 137.08 170.29 136.28 170.21 135.38 C 170.14 134.47 169.35 133.80 168.44 133.87 L 167.37 133.95 C 166.47 134.03 165.79 134.82 165.86 135.73 C 165.94 136.63 166.73 137.31 167.64 137.23 Z M 168.68 137.16 L 169.68 137.10 C 170.59 137.04 171.29 136.26 171.23 135.35 C 171.17 134.43 170.39 133.74 169.48 133.79 L 168.47 133.86 C 167.56 133.91 166.87 134.70 166.92 135.61 C 166.98 136.52 167.76 137.22 168.68 137.16 Z M 169.66 137.11 L 170.60 137.07 C 171.52 137.02 172.23 136.24 172.19 135.32 C 172.14 134.40 171.36 133.69 170.44 133.73 L 169.50 133.78 C 168.58 133.82 167.87 134.61 167.91 135.53 C 167.96 136.45 168.74 137.16 169.66 137.11 Z M 170.60 137.08 L 171.01 137.06 C 171.93 137.02 172.65 136.24 172.61 135.31 C 172.57 134.38 171.79 133.67 170.86 133.71 L 170.45 133.73 C 169.52 133.77 168.81 134.55 168.85 135.47 C 168.89 136.40 169.67 137.12 170.60 137.08 Z"
      fill="black"
      fill-rule="nonzero" /><path d="M 153.05 151.29 L 152.16 152.24 C 151.49 152.96 151.54 154.09 152.26 154.76 C 152.98 155.43 154.11 155.38 154.77 154.66 L 155.66 153.71 C 156.33 152.99 156.29 151.86 155.57 151.19 C 154.85 150.52 153.72 150.56 153.05 151.29 Z M 152.03 152.37 L 151.42 153.18 C 150.83 153.97 150.99 155.10 151.79 155.70 C 152.58 156.30 153.71 156.13 154.31 155.34 L 154.91 154.53 C 155.51 153.74 155.35 152.61 154.55 152.01 C 153.75 151.41 152.62 151.58 152.03 152.37 Z M 151.05 154.12 L 151.01 154.63 C 150.94 155.63 151.69 156.50 152.69 156.58 C 153.70 156.65 154.57 155.90 154.65 154.90 L 154.68 154.39 C 154.76 153.39 154.00 152.51 153.00 152.44 C 152.00 152.37 151.12 153.12 151.05 154.12 Z M 152.48 156.56 L 153.13 156.69 C 154.13 156.88 155.09 156.23 155.28 155.23 C 155.48 154.24 154.83 153.28 153.83 153.08 L 153.18 152.96 C 152.18 152.77 151.22 153.42 151.03 154.41 C 150.83 155.41 151.49 156.37 152.48 156.56 Z M 153.73 156.71 L 154.84 156.57 C 155.85 156.43 156.56 155.50 156.43 154.49 C 156.29 153.49 155.36 152.78 154.35 152.91 L 153.24 153.06 C 152.23 153.19 151.52 154.12 151.66 155.13 C 151.79 156.14 152.72 156.85 153.73 156.71 Z M 155.01 156.54 L 156.21 156.27 C 157.21 156.04 157.83 155.04 157.60 154.05 C 157.37 153.05 156.38 152.43 155.38 152.66 L 154.18 152.94 C 153.19 153.16 152.57 154.16 152.80 155.15 C 153.02 156.15 154.02 156.77 155.01 156.54 Z M 156.28 156.25 L 157.23 155.99 C 158.22 155.72 158.80 154.70 158.53 153.72 C 158.26 152.73 157.24 152.15 156.26 152.42 L 155.31 152.68 C 154.32 152.95 153.74 153.96 154.01 154.95 C 154.28 155.94 155.30 156.52 156.28 156.25 Z M 157.28 155.97 L 158.23 155.69 C 159.21 155.39 159.76 154.36 159.46 153.38 C 159.17 152.41 158.14 151.85 157.16 152.15 L 156.21 152.44 C 155.23 152.73 154.68 153.76 154.98 154.74 C 155.27 155.72 156.30 156.27 157.28 155.97 Z M 158.26 155.67 L 159.22 155.36 C 160.19 155.05 160.72 154.01 160.41 153.04 C 160.10 152.07 159.06 151.54 158.09 151.85 L 157.13 152.16 C 156.16 152.48 155.62 153.52 155.94 154.49 C 156.25 155.46 157.29 155.99 158.26 155.67 Z M 159.24 155.35 L 160.20 155.03 C 161.16 154.70 161.68 153.66 161.36 152.70 C 161.03 151.73 159.99 151.21 159.02 151.54 L 158.07 151.86 C 157.10 152.19 156.59 153.23 156.91 154.20 C 157.24 155.16 158.28 155.68 159.24 155.35 Z M 160.21 155.02 L 161.14 154.70 C 162.09 154.37 162.60 153.32 162.27 152.37 C 161.94 151.41 160.90 150.90 159.94 151.23 L 159.01 151.55 C 158.06 151.88 157.55 152.93 157.88 153.88 C 158.21 154.84 159.25 155.35 160.21 155.02 Z M 161.15 154.68 L 162.09 154.35 C 163.04 154.01 163.53 152.97 163.20 152.03 C 162.86 151.08 161.82 150.58 160.88 150.92 L 159.93 151.25 C 158.99 151.58 158.49 152.62 158.82 153.57 C 159.16 154.52 160.20 155.02 161.15 154.68 Z M 162.09 154.33 L 163.05 153.99 C 163.99 153.65 164.47 152.62 164.13 151.68 C 163.80 150.74 162.76 150.25 161.82 150.59 L 160.87 150.93 C 159.93 151.27 159.44 152.31 159.78 153.24 C 160.12 154.18 161.15 154.67 162.09 154.33 Z M 163.05 153.97 L 164.01 153.62 C 164.94 153.28 165.42 152.25 165.08 151.32 C 164.73 150.39 163.70 149.91 162.77 150.25 L 161.81 150.60 C 160.88 150.95 160.41 151.98 160.75 152.91 C 161.09 153.84 162.12 154.32 163.05 153.97 Z M 164.01 153.61 L 164.95 153.26 C 165.87 152.91 166.34 151.88 165.99 150.96 C 165.65 150.04 164.62 149.58 163.70 149.92 L 162.77 150.27 C 161.85 150.61 161.38 151.64 161.72 152.56 C 162.07 153.48 163.09 153.95 164.01 153.61 Z M 164.95 153.24 L 165.89 152.88 C 166.80 152.54 167.25 151.52 166.91 150.61 C 166.57 149.70 165.55 149.24 164.64 149.59 L 163.70 149.94 C 162.79 150.28 162.33 151.30 162.68 152.21 C 163.02 153.12 164.04 153.58 164.95 153.24 Z M 165.88 152.86 L 166.82 152.51 C 167.72 152.17 168.17 151.16 167.83 150.26 C 167.49 149.36 166.48 148.91 165.58 149.25 L 164.64 149.60 C 163.74 149.94 163.29 150.95 163.63 151.85 C 163.97 152.75 164.98 153.21 165.88 152.86 Z M 166.81 152.49 L 167.74 152.14 C 168.63 151.81 169.08 150.81 168.75 149.92 C 168.41 149.03 167.42 148.58 166.53 148.91 L 165.59 149.26 C 164.70 149.60 164.25 150.59 164.58 151.49 C 164.92 152.38 165.91 152.83 166.81 152.49 Z M 167.73 152.13 L 168.67 151.78 C 169.55 151.45 170.00 150.47 169.68 149.59 C 169.35 148.70 168.37 148.25 167.48 148.58 L 166.54 148.92 C 165.66 149.25 165.20 150.24 165.53 151.12 C 165.86 152.00 166.84 152.46 167.73 152.13 Z M 168.66 151.77 L 169.60 151.42 C 170.48 151.10 170.93 150.13 170.61 149.25 C 170.29 148.38 169.31 147.92 168.44 148.24 L 167.49 148.59 C 166.62 148.91 166.16 149.88 166.48 150.76 C 166.81 151.64 167.78 152.09 168.66 151.77 Z M 169.59 151.41 L 170.53 151.07 C 171.40 150.75 171.85 149.79 171.53 148.92 C 171.22 148.05 170.25 147.60 169.38 147.92 L 168.44 148.26 C 167.57 148.58 167.12 149.54 167.44 150.41 C 167.76 151.28 168.72 151.73 169.59 151.41 Z M 170.53 151.05 L 171.47 150.71 C 172.33 150.39 172.77 149.44 172.45 148.57 C 172.14 147.71 171.18 147.27 170.32 147.59 L 169.38 147.93 C 168.52 148.25 168.08 149.20 168.40 150.06 C 168.71 150.93 169.67 151.37 170.53 151.05 Z M 171.47 150.69 L 172.40 150.34 C 173.26 150.02 173.69 149.07 173.37 148.22 C 173.05 147.37 172.10 146.93 171.25 147.25 L 170.31 147.60 C 169.46 147.92 169.03 148.87 169.35 149.73 C 169.67 150.58 170.62 151.01 171.47 150.69 Z M 172.41 150.33 L 173.35 149.97 C 174.20 149.64 174.62 148.69 174.29 147.85 C 173.97 147.00 173.02 146.58 172.17 146.91 L 171.24 147.27 C 170.39 147.59 169.97 148.54 170.29 149.39 C 170.62 150.23 171.57 150.65 172.41 150.33 Z M 173.36 149.96 L 174.29 149.60 C 175.14 149.27 175.55 148.32 175.22 147.47 C 174.89 146.63 173.94 146.21 173.09 146.55 L 172.16 146.91 C 171.32 147.24 170.90 148.19 171.24 149.04 C 171.57 149.88 172.52 150.29 173.36 149.96 Z M 174.30 149.60 L 175.23 149.23 C 176.07 148.89 176.48 147.94 176.14 147.10 C 175.81 146.26 174.86 145.85 174.02 146.18 L 173.09 146.55 C 172.25 146.88 171.84 147.84 172.17 148.68 C 172.50 149.52 173.46 149.93 174.30 149.60 Z M 175.23 149.22 L 176.15 148.85 C 176.99 148.52 177.40 147.57 177.07 146.73 C 176.73 145.89 175.78 145.48 174.94 145.81 L 174.01 146.18 C 173.17 146.52 172.76 147.47 173.10 148.31 C 173.44 149.15 174.39 149.56 175.23 149.22 Z"
      fill="black"
      fill-rule="nonzero" /></svg>