<svg xmlns="http://www.w3.org/2000/svg" width="300" height="300" viewBox="0 0 300 300">
<path d="M 121.51 110.69 L 122.23 111.43 C 122.87 112.10 123.94 112.12 124.62 111.47 C 125.29 110.83 125.31 109.76 124.66 109.08 L 123.95 108.34 C 123.30 107.67 122.23 107.65 121.56 108.30 C 120.88 108.94 120.86 110.01 121.51 110.69 Z M 122.28 111.50 L 123.02 112.19 C 123.70 112.83 124.78 112.80 125.42 112.11 C 126.06 111.42 126.03 110.35 125.34 109.70 L 124.61 109.02 C 123.92 108.37 122.84 108.41 122.20 109.09 C 121.56 109.78 121.59 110.86 122.28 111.50 Z M 123.15 112.31 L 123.93 112.90 C 124.69 113.47 125.76 113.31 126.33 112.56 C 126.89 111.80 126.74 110.73 125.99 110.16 L 125.21 109.58 C 124.45 109.01 123.38 109.16 122.81 109.92 C 122.24 110.67 122.40 111.75 123.15 112.31 Z M 124.17 113.06 L 124.99 113.48 C 125.83 113.91 126.87 113.58 127.30 112.74 C 127.73 111.89 127.40 110.86 126.56 110.42 L 125.74 110.00 C 124.90 109.57 123.86 109.90 123.43 110.74 C 123.00 111.59 123.33 112.62 124.17 113.06 Z M 125.27 113.59 L 126.15 113.87 C 127.06 114.15 128.02 113.64 128.30 112.73 C 128.58 111.82 128.07 110.86 127.16 110.58 L 126.28 110.31 C 125.37 110.03 124.41 110.54 124.13 111.44 C 123.85 112.35 124.36 113.31 125.27 113.59 Z M 126.37 113.92 L 127.37 114.09 C 128.31 114.24 129.20 113.61 129.35 112.67 C 129.51 111.74 128.88 110.85 127.94 110.70 L 126.94 110.53 C 126.01 110.37 125.12 111.00 124.96 111.94 C 124.81 112.88 125.44 113.76 126.37 113.92 Z M 127.51 114.10 L 128.62 114.19 C 129.57 114.27 130.40 113.57 130.48 112.63 C 130.56 111.68 129.86 110.85 128.91 110.77 L 127.80 110.68 C 126.86 110.60 126.03 111.30 125.95 112.25 C 125.87 113.19 126.57 114.02 127.51 114.10 Z M 128.69 114.18 L 129.67 114.23 C 130.61 114.27 131.40 113.54 131.45 112.60 C 131.49 111.66 130.76 110.87 129.82 110.83 L 128.84 110.78 C 127.90 110.74 127.11 111.47 127.07 112.41 C 127.03 113.35 127.75 114.14 128.69 114.18 Z M 129.71 114.20 L 130.74 114.23 C 131.66 114.25 132.43 113.52 132.45 112.59 C 132.47 111.67 131.74 110.90 130.82 110.88 L 129.79 110.85 C 128.86 110.83 128.10 111.56 128.07 112.49 C 128.05 113.41 128.78 114.18 129.71 114.20 Z M 130.76 114.20 L 131.79 114.21 C 132.70 114.22 133.45 113.49 133.46 112.58 C 133.47 111.67 132.74 110.92 131.83 110.92 L 130.79 110.90 C 129.88 110.90 129.14 111.62 129.13 112.53 C 129.12 113.44 129.85 114.19 130.76 114.20 Z M 131.81 114.18 L 132.80 114.19 C 133.69 114.19 134.42 113.46 134.42 112.57 C 134.43 111.67 133.70 110.95 132.81 110.94 L 131.81 110.94 C 130.92 110.94 130.19 111.66 130.19 112.56 C 130.19 113.45 130.91 114.18 131.81 114.18 Z M 132.80 114.16 L 133.87 114.16 C 134.75 114.16 135.46 113.45 135.46 112.57 C 135.46 111.68 134.75 110.97 133.87 110.97 L 132.80 110.97 C 131.92 110.97 131.20 111.68 131.20 112.57 C 131.20 113.45 131.92 114.16 132.80 114.16 Z M 133.87 114.15 L 134.92 114.15 C 135.79 114.15 136.50 113.44 136.50 112.57 C 136.50 111.69 135.79 110.98 134.92 110.98 L 133.87 110.98 C 132.99 110.98 132.28 111.69 132.28 112.57 C 132.28 113.44 132.99 114.15 133.87 114.15 Z M 134.92 114.14 L 135.86 114.14 C 136.73 114.14 137.44 113.43 137.44 112.57 C 137.44 111.70 136.73 110.99 135.86 110.99 L 134.92 110.99 C 134.05 110.99 133.34 111.70 133.34 112.57 C 133.34 113.43 134.05 114.14 134.92 114.14 Z M 135.86 114.13 L 136.65 114.13 C 137.52 114.13 138.22 113.43 138.22 112.57 C 138.22 111.70 137.52 111.00 136.65 111.00 L 135.86 111.00 C 135.00 111.00 134.30 111.70 134.30 112.57 C 134.30 113.43 135.00 114.13 135.86 114.13 Z"
      fill="black"
      fill-rule="nonzero" /><path d="M 123.94 130.52 L 124.75 130.04 C 125.50 129.59 125.76 128.62 125.31 127.86 C 124.86 127.10 123.88 126.85 123.13 127.30 L 122.32 127.78 C 121.56 128.22 121.31 129.20 121.76 129.96 C 122.20 130.72 123.18 130.97 123.94 130.52 Z M 124.71 130.09 L 125.56 129.63 C 126.35 129.20 126.64 128.22 126.22 127.43 C 125.79 126.65 124.81 126.35 124.02 126.78 L 123.16 127.24 C 122.38 127.67 122.09 128.65 122.51 129.44 C 122.94 130.23 123.92 130.52 124.71 130.09 Z M 125.48 129.70 L 126.43 129.27 C 127.26 128.89 127.62 127.91 127.24 127.09 C 126.87 126.26 125.89 125.89 125.06 126.27 L 124.11 126.71 C 123.28 127.08 122.92 128.06 123.29 128.89 C 123.67 129.72 124.65 130.08 125.48 129.70 Z M 126.32 129.33 L 127.25 128.99 C 128.11 128.67 128.55 127.72 128.23 126.86 C 127.92 126.00 126.97 125.56 126.11 125.87 L 125.18 126.21 C 124.32 126.53 123.87 127.48 124.19 128.34 C 124.50 129.20 125.45 129.64 126.32 129.33 Z M 127.15 129.01 L 128.09 128.73 C 128.96 128.47 129.46 127.55 129.20 126.68 C 128.94 125.81 128.03 125.31 127.15 125.57 L 126.21 125.85 C 125.33 126.11 124.84 127.03 125.10 127.90 C 125.36 128.77 126.27 129.27 127.15 129.01 Z M 128.01 128.73 L 129.00 128.49 C 129.88 128.27 130.41 127.39 130.20 126.52 C 129.98 125.64 129.10 125.11 128.23 125.32 L 127.23 125.57 C 126.36 125.78 125.82 126.66 126.04 127.54 C 126.25 128.41 127.14 128.95 128.01 128.73 Z M 128.93 128.49 L 129.94 128.28 C 130.81 128.11 131.38 127.26 131.20 126.39 C 131.03 125.51 130.18 124.95 129.31 125.12 L 128.30 125.32 C 127.43 125.50 126.86 126.35 127.04 127.22 C 127.21 128.10 128.06 128.66 128.93 128.49 Z M 129.87 128.28 L 130.89 128.12 C 131.76 127.98 132.36 127.16 132.22 126.29 C 132.08 125.42 131.26 124.83 130.39 124.96 L 129.37 125.13 C 128.50 125.26 127.91 126.08 128.05 126.95 C 128.19 127.82 129.00 128.42 129.87 128.28 Z M 130.83 128.12 L 131.84 127.99 C 132.71 127.89 133.33 127.10 133.22 126.23 C 133.12 125.36 132.33 124.74 131.46 124.85 L 130.45 124.97 C 129.58 125.07 128.96 125.86 129.07 126.73 C 129.17 127.60 129.96 128.22 130.83 128.12 Z M 131.79 127.99 L 132.78 127.90 C 133.65 127.82 134.29 127.05 134.21 126.18 C 134.13 125.32 133.36 124.68 132.49 124.76 L 131.50 124.85 C 130.64 124.93 130.00 125.70 130.08 126.56 C 130.16 127.43 130.93 128.07 131.79 127.99 Z M 132.75 127.89 L 133.73 127.82 C 134.59 127.76 135.24 127.00 135.18 126.14 C 135.11 125.28 134.36 124.63 133.50 124.69 L 132.52 124.76 C 131.66 124.83 131.01 125.58 131.07 126.45 C 131.14 127.31 131.89 127.96 132.75 127.89 Z M 133.72 127.82 L 134.11 127.79 C 134.97 127.73 135.62 126.98 135.56 126.12 C 135.50 125.26 134.75 124.61 133.89 124.67 L 133.50 124.70 C 132.64 124.76 131.99 125.50 132.05 126.36 C 132.11 127.23 132.86 127.87 133.72 127.82 Z"
      fill="black"
      fill-rule="nonzero" /><path d="M 125.51 141.07 L 124.41 142.04 C 123.74 142.63 123.68 143.65 124.27 144.32 C 124.86 144.99 125.88 145.05 126.55 144.46 L 127.64 143.49 C 128.31 142.90 128.38 141.88 127.78 141.21 C 127.19 140.54 126.17 140.48 125.51 141.07 Z M 124.41 142.01 L 123.46 142.84 C 122.78 143.43 122.70 144.46 123.29 145.14 C 123.88 145.82 124.91 145.90 125.59 145.31 L 126.55 144.48 C 127.23 143.89 127.31 142.86 126.72 142.18 C 126.13 141.50 125.10 141.42 124.41 142.01 Z M 123.49 142.79 L 122.81 143.33 C 122.10 143.90 121.99 144.94 122.56 145.65 C 123.13 146.36 124.17 146.48 124.88 145.90 L 125.56 145.36 C 126.27 144.79 126.38 143.75 125.81 143.04 C 125.24 142.33 124.20 142.22 123.49 142.79 Z M 123.14 143.11 L 122.87 143.23 C 122.04 143.62 121.68 144.62 122.08 145.45 C 122.47 146.29 123.46 146.64 124.30 146.25 L 124.56 146.13 C 125.39 145.74 125.75 144.74 125.36 143.91 C 124.96 143.07 123.97 142.72 123.14 143.11 Z M 125.03 145.59 L 125.19 145.31 C 125.66 144.52 125.39 143.49 124.60 143.02 C 123.80 142.55 122.78 142.82 122.31 143.62 L 122.14 143.89 C 121.68 144.69 121.94 145.71 122.74 146.18 C 123.53 146.65 124.56 146.39 125.03 145.59 Z M 125.05 145.50 L 125.48 144.95 C 126.05 144.23 125.93 143.19 125.21 142.62 C 124.50 142.05 123.45 142.17 122.88 142.89 L 122.45 143.43 C 121.88 144.15 122.00 145.19 122.72 145.76 C 123.43 146.34 124.48 146.22 125.05 145.50 Z M 125.44 144.98 L 126.08 144.22 C 126.67 143.53 126.59 142.49 125.89 141.90 C 125.20 141.31 124.16 141.40 123.57 142.09 L 122.93 142.85 C 122.34 143.55 122.42 144.59 123.12 145.17 C 123.81 145.76 124.85 145.68 125.44 144.98 Z M 126.06 144.23 L 126.85 143.32 C 127.45 142.64 127.38 141.61 126.70 141.01 C 126.02 140.42 124.98 140.49 124.39 141.17 L 123.59 142.09 C 123.00 142.77 123.07 143.80 123.75 144.39 C 124.43 144.98 125.46 144.91 126.06 144.23 Z M 126.84 143.32 L 127.73 142.31 C 128.32 141.64 128.26 140.61 127.58 140.02 C 126.91 139.43 125.89 139.49 125.30 140.16 L 124.41 141.17 C 123.82 141.84 123.88 142.87 124.55 143.46 C 125.22 144.05 126.25 143.99 126.84 143.32 Z M 127.72 142.30 L 128.57 141.33 C 129.16 140.67 129.10 139.65 128.44 139.06 C 127.77 138.48 126.76 138.54 126.17 139.20 L 125.31 140.17 C 124.72 140.84 124.78 141.85 125.45 142.44 C 126.11 143.03 127.13 142.97 127.72 142.30 Z M 128.57 141.33 L 129.24 140.57 C 129.82 139.91 129.76 138.90 129.10 138.31 C 128.44 137.73 127.43 137.79 126.85 138.45 L 126.17 139.21 C 125.59 139.87 125.65 140.88 126.31 141.46 C 126.97 142.05 127.98 141.99 128.57 141.33 Z M 129.24 140.57 L 129.90 139.81 C 130.49 139.15 130.42 138.15 129.76 137.56 C 129.11 136.98 128.10 137.04 127.52 137.70 L 126.85 138.45 C 126.27 139.11 126.33 140.12 126.99 140.70 C 127.65 141.29 128.65 141.22 129.24 140.57 Z M 129.90 139.81 L 130.56 139.06 C 131.14 138.40 131.08 137.40 130.42 136.82 C 129.77 136.24 128.76 136.30 128.18 136.95 L 127.52 137.70 C 126.94 138.36 127.00 139.36 127.66 139.95 C 128.31 140.53 129.32 140.47 129.90 139.81 Z M 130.56 139.05 L 131.22 138.31 C 131.80 137.65 131.74 136.65 131.08 136.07 C 130.43 135.49 129.43 135.56 128.85 136.21 L 128.19 136.96 C 127.61 137.61 127.67 138.61 128.32 139.19 C 128.98 139.77 129.98 139.71 130.56 139.05 Z M 131.22 138.30 L 131.87 137.56 C 132.45 136.90 132.39 135.91 131.74 135.33 C 131.09 134.75 130.09 134.82 129.51 135.47 L 128.85 136.21 C 128.28 136.87 128.34 137.86 128.99 138.44 C 129.64 139.02 130.64 138.95 131.22 138.30 Z M 131.87 137.55 L 132.53 136.81 C 133.10 136.16 133.04 135.17 132.39 134.59 C 131.74 134.02 130.75 134.08 130.17 134.73 L 129.52 135.47 C 128.94 136.12 129.00 137.12 129.65 137.69 C 130.30 138.26 131.30 138.20 131.87 137.55 Z M 132.52 136.80 L 133.18 136.06 C 133.75 135.41 133.69 134.42 133.04 133.85 C 132.40 133.28 131.41 133.34 130.83 133.99 L 130.18 134.73 C 129.61 135.38 129.67 136.37 130.31 136.94 C 130.96 137.51 131.95 137.45 132.52 136.80 Z M 133.18 136.06 L 133.84 135.31 C 134.41 134.67 134.35 133.68 133.70 133.11 C 133.06 132.54 132.07 132.60 131.50 133.24 L 130.84 133.99 C 130.27 134.64 130.33 135.62 130.97 136.19 C 131.62 136.77 132.61 136.70 133.18 136.06 Z M 133.84 135.31 L 134.50 134.56 C 135.07 133.92 135.01 132.93 134.36 132.36 C 133.72 131.79 132.73 131.85 132.16 132.49 L 131.50 133.24 C 130.93 133.89 130.99 134.88 131.63 135.45 C 132.28 136.02 133.27 135.96 133.84 135.31 Z M 134.50 134.56 L 135.16 133.81 C 135.73 133.17 135.67 132.18 135.03 131.61 C 134.38 131.04 133.39 131.10 132.82 131.75 L 132.16 132.49 C 131.59 133.14 131.65 134.13 132.30 134.70 C 132.94 135.27 133.93 135.21 134.50 134.56 Z M 135.16 133.81 L 135.82 133.06 C 136.39 132.42 136.33 131.43 135.69 130.86 C 135.04 130.29 134.06 130.35 133.48 131.00 L 132.82 131.75 C 132.25 132.39 132.31 133.38 132.96 133.95 C 133.60 134.52 134.59 134.46 135.16 133.81 Z M 135.82 133.06 L 136.49 132.31 C 137.06 131.67 137.00 130.68 136.35 130.11 C 135.70 129.54 134.72 129.60 134.15 130.25 L 133.48 131.00 C 132.91 131.64 132.97 132.63 133.62 133.20 C 134.27 133.77 135.25 133.71 135.82 133.06 Z M 136.49 132.31 L 137.15 131.56 C 137.72 130.92 137.66 129.93 137.01 129.36 C 136.37 128.79 135.38 128.85 134.81 129.50 L 134.15 130.25 C 133.58 130.89 133.64 131.88 134.28 132.45 C 134.93 133.02 135.92 132.96 136.49 132.31 Z M 137.15 131.56 L 137.81 130.81 C 138.38 130.17 138.32 129.18 137.67 128.61 C 137.03 128.04 136.04 128.10 135.47 128.75 L 134.81 129.50 C 134.24 130.14 134.30 131.13 134.94 131.70 C 135.59 132.27 136.58 132.21 137.15 131.56 Z M 137.81 130.81 L 138.47 130.06 C 139.04 129.42 138.98 128.43 138.34 127.86 C 137.69 127.29 136.70 127.35 136.13 128.00 L 135.47 128.75 C 134.90 129.39 134.96 130.38 135.61 130.95 C 136.25 131.52 137.24 131.46 137.81 130.81 Z"
      fill="black"
      fill-rule="nonzero" /><path d="M 146.72 106.54 L 146.25 107.61 C 145.85 108.49 146.25 109.53 147.14 109.93 C 148.02 110.32 149.06 109.92 149.45 109.04 L 149.93 107.97 C 150.32 107.09 149.92 106.05 149.04 105.66 C 148.15 105.26 147.12 105.66 146.72 106.54 Z M 146.14 107.93 L 145.92 108.85 C 145.70 109.79 146.29 110.74 147.24 110.96 C 148.18 111.18 149.13 110.59 149.35 109.64 L 149.56 108.72 C 149.78 107.77 149.19 106.83 148.25 106.61 C 147.30 106.39 146.36 106.98 146.14 107.93 Z M 146.04 109.99 L 146.34 110.63 C 146.75 111.51 147.79 111.89 148.68 111.48 C 149.56 111.07 149.94 110.02 149.53 109.14 L 149.23 108.50 C 148.82 107.62 147.77 107.24 146.89 107.65 C 146.01 108.06 145.63 109.11 146.04 109.99 Z M 147.30 111.52 L 148.14 111.84 C 149.04 112.19 150.05 111.74 150.40 110.83 C 150.75 109.93 150.30 108.92 149.40 108.57 L 148.56 108.25 C 147.66 107.90 146.65 108.35 146.30 109.25 C 145.95 110.16 146.40 111.17 147.30 111.52 Z M 148.64 111.94 L 149.79 112.02 C 150.75 112.10 151.59 111.38 151.66 110.42 C 151.73 109.46 151.01 108.63 150.05 108.56 L 148.90 108.47 C 147.94 108.40 147.10 109.12 147.03 110.08 C 146.96 111.03 147.68 111.87 148.64 111.94 Z M 150.00 112.01 L 150.99 111.97 C 151.94 111.93 152.68 111.12 152.64 110.17 C 152.59 109.22 151.79 108.48 150.84 108.52 L 149.85 108.57 C 148.90 108.61 148.16 109.41 148.20 110.37 C 148.24 111.32 149.05 112.06 150.00 112.01 Z M 151.10 111.95 L 152.07 111.84 C 153.01 111.74 153.69 110.89 153.59 109.95 C 153.49 109.01 152.64 108.34 151.70 108.44 L 150.73 108.55 C 149.79 108.65 149.11 109.49 149.21 110.43 C 149.31 111.37 150.16 112.05 151.10 111.95 Z M 152.14 111.82 L 153.16 111.66 C 154.08 111.52 154.72 110.66 154.58 109.73 C 154.44 108.81 153.57 108.17 152.65 108.31 L 151.63 108.46 C 150.71 108.60 150.07 109.47 150.21 110.39 C 150.35 111.32 151.22 111.96 152.14 111.82 Z M 153.19 111.64 L 154.21 111.47 C 155.13 111.30 155.74 110.43 155.58 109.52 C 155.42 108.60 154.55 107.99 153.63 108.15 L 152.61 108.33 C 151.69 108.49 151.08 109.36 151.24 110.28 C 151.40 111.19 152.28 111.81 153.19 111.64 Z M 154.23 111.46 L 155.22 111.27 C 156.13 111.10 156.73 110.23 156.56 109.32 C 156.39 108.41 155.52 107.81 154.61 107.97 L 153.62 108.16 C 152.71 108.33 152.10 109.20 152.27 110.11 C 152.44 111.02 153.32 111.63 154.23 111.46 Z M 155.22 111.27 L 156.21 111.08 C 157.12 110.92 157.72 110.04 157.55 109.13 C 157.38 108.22 156.51 107.62 155.60 107.79 L 154.60 107.98 C 153.70 108.15 153.10 109.02 153.26 109.93 C 153.43 110.84 154.31 111.44 155.22 111.27 Z M 156.20 111.08 L 157.18 110.91 C 158.09 110.75 158.70 109.88 158.54 108.97 C 158.37 108.06 157.50 107.45 156.60 107.62 L 155.61 107.79 C 154.70 107.96 154.10 108.82 154.26 109.73 C 154.42 110.64 155.29 111.25 156.20 111.08 Z M 157.16 110.91 L 158.17 110.75 C 159.08 110.60 159.70 109.74 159.55 108.83 C 159.40 107.92 158.54 107.30 157.63 107.45 L 156.62 107.61 C 155.71 107.76 155.09 108.62 155.24 109.53 C 155.39 110.44 156.25 111.06 157.16 110.91 Z M 158.12 110.75 L 159.14 110.62 C 160.05 110.50 160.70 109.66 160.58 108.74 C 160.45 107.83 159.61 107.18 158.70 107.31 L 157.68 107.44 C 156.76 107.56 156.12 108.40 156.24 109.32 C 156.36 110.23 157.20 110.88 158.12 110.75 Z M 159.07 110.63 L 160.04 110.54 C 160.96 110.46 161.65 109.65 161.56 108.73 C 161.48 107.81 160.67 107.13 159.75 107.21 L 158.77 107.30 C 157.85 107.38 157.17 108.19 157.25 109.11 C 157.33 110.03 158.14 110.71 159.07 110.63 Z M 159.94 110.55 L 160.91 110.53 C 161.83 110.50 162.56 109.73 162.54 108.81 C 162.51 107.88 161.74 107.15 160.82 107.18 L 159.85 107.20 C 158.93 107.23 158.20 108.00 158.22 108.92 C 158.25 109.85 159.02 110.58 159.94 110.55 Z M 160.74 110.53 L 161.81 110.61 C 162.74 110.67 163.54 109.97 163.61 109.05 C 163.67 108.12 162.97 107.31 162.05 107.25 L 160.98 107.17 C 160.05 107.11 159.25 107.81 159.18 108.73 C 159.12 109.66 159.82 110.46 160.74 110.53 Z M 161.48 110.56 L 162.43 110.82 C 163.33 111.06 164.26 110.53 164.50 109.63 C 164.75 108.73 164.22 107.80 163.32 107.55 L 162.37 107.30 C 161.47 107.05 160.54 107.58 160.30 108.48 C 160.05 109.38 160.58 110.31 161.48 110.56 Z M 161.90 110.58 L 162.62 111.08 C 163.40 111.62 164.45 111.43 164.99 110.66 C 165.53 109.88 165.33 108.83 164.56 108.29 L 163.84 107.79 C 163.07 107.25 162.01 107.44 161.48 108.21 C 160.94 108.99 161.13 110.04 161.90 110.58 Z M 162.15 110.60 L 162.61 111.31 C 163.11 112.11 164.16 112.35 164.96 111.84 C 165.75 111.34 165.99 110.29 165.49 109.49 L 165.03 108.78 C 164.53 107.98 163.48 107.74 162.69 108.25 C 161.89 108.75 161.65 109.80 162.15 110.60 Z M 162.42 110.90 L 162.70 111.85 C 162.98 112.75 163.93 113.26 164.83 112.99 C 165.73 112.72 166.24 111.77 165.97 110.87 L 165.68 109.91 C 165.41 109.01 164.46 108.50 163.55 108.77 C 162.65 109.04 162.14 110.00 162.42 110.90 Z M 162.65 111.60 L 162.82 112.77 C 162.95 113.71 163.81 114.35 164.75 114.22 C 165.68 114.09 166.33 113.22 166.19 112.29 L 166.03 111.12 C 165.89 110.18 165.03 109.54 164.09 109.67 C 163.16 109.80 162.51 110.67 162.65 111.60 Z M 162.80 112.65 L 162.87 113.57 C 162.93 114.51 163.75 115.22 164.69 115.15 C 165.63 115.08 166.34 114.26 166.27 113.32 L 166.21 112.41 C 166.14 111.47 165.32 110.76 164.38 110.83 C 163.44 110.89 162.73 111.71 162.80 112.65 Z M 162.86 113.50 L 162.89 114.48 C 162.92 115.42 163.71 116.16 164.65 116.14 C 165.60 116.11 166.34 115.32 166.31 114.37 L 166.28 113.39 C 166.25 112.44 165.46 111.70 164.52 111.73 C 163.57 111.76 162.83 112.55 162.86 113.50 Z M 162.89 114.42 L 162.88 115.44 C 162.88 116.39 163.64 117.16 164.59 117.17 C 165.53 117.17 166.31 116.41 166.31 115.46 L 166.32 114.43 C 166.32 113.49 165.56 112.71 164.61 112.71 C 163.66 112.70 162.89 113.47 162.89 114.42 Z M 162.88 115.38 L 162.84 116.43 C 162.80 117.38 163.54 118.18 164.49 118.21 C 165.44 118.25 166.24 117.51 166.27 116.56 L 166.31 115.52 C 166.35 114.57 165.61 113.77 164.66 113.73 C 163.71 113.70 162.92 114.44 162.88 115.38 Z M 162.84 116.37 L 162.76 117.40 C 162.69 118.35 163.41 119.18 164.35 119.25 C 165.30 119.32 166.13 118.60 166.20 117.65 L 166.27 116.62 C 166.34 115.67 165.63 114.85 164.68 114.78 C 163.73 114.71 162.91 115.42 162.84 116.37 Z M 162.77 117.35 L 162.66 118.34 C 162.56 119.29 163.24 120.14 164.19 120.24 C 165.14 120.34 165.99 119.66 166.09 118.71 L 166.19 117.71 C 166.30 116.77 165.61 115.92 164.66 115.81 C 163.72 115.71 162.87 116.40 162.77 117.35 Z M 162.66 118.29 L 162.53 119.28 C 162.40 120.22 163.06 121.09 164.01 121.22 C 164.95 121.35 165.82 120.69 165.95 119.74 L 166.08 118.76 C 166.21 117.81 165.55 116.94 164.61 116.81 C 163.66 116.69 162.79 117.35 162.66 118.29 Z M 162.53 119.24 L 162.37 120.22 C 162.22 121.16 162.86 122.05 163.81 122.20 C 164.75 122.35 165.64 121.71 165.79 120.77 L 165.95 119.78 C 166.10 118.84 165.46 117.95 164.51 117.80 C 163.57 117.65 162.68 118.29 162.53 119.24 Z M 162.38 120.19 L 162.20 121.17 C 162.03 122.11 162.66 123.01 163.60 123.18 C 164.54 123.35 165.44 122.72 165.61 121.78 L 165.79 120.80 C 165.95 119.85 165.33 118.95 164.39 118.79 C 163.44 118.62 162.54 119.24 162.38 120.19 Z M 162.20 121.15 L 162.01 122.14 C 161.83 123.08 162.45 123.99 163.39 124.17 C 164.33 124.35 165.24 123.73 165.42 122.79 L 165.61 121.80 C 165.79 120.86 165.17 119.95 164.23 119.77 C 163.29 119.59 162.38 120.21 162.20 121.15 Z M 162.01 122.13 L 161.82 123.12 C 161.63 124.06 162.24 124.97 163.18 125.16 C 164.12 125.34 165.04 124.73 165.22 123.79 L 165.42 122.80 C 165.60 121.86 164.99 120.95 164.05 120.76 C 163.11 120.58 162.20 121.19 162.01 122.13 Z M 161.82 123.12 L 161.62 124.11 C 161.43 125.05 162.04 125.96 162.98 126.15 C 163.92 126.34 164.84 125.73 165.02 124.79 L 165.22 123.80 C 165.41 122.86 164.80 121.94 163.86 121.76 C 162.92 121.57 162.01 122.18 161.82 123.12 Z M 161.62 124.11 L 161.42 125.10 C 161.24 126.04 161.85 126.95 162.79 127.14 C 163.73 127.33 164.64 126.72 164.83 125.78 L 165.02 124.79 C 165.21 123.85 164.60 122.94 163.66 122.75 C 162.72 122.56 161.81 123.17 161.62 124.11 Z M 161.42 125.11 L 161.23 126.07 C 161.05 127.02 161.67 127.93 162.61 128.11 C 163.55 128.29 164.46 127.68 164.64 126.74 L 164.83 125.77 C 165.01 124.83 164.40 123.92 163.46 123.73 C 162.52 123.55 161.61 124.17 161.42 125.11 Z M 161.23 126.09 L 161.05 127.10 C 160.87 128.04 161.49 128.94 162.43 129.12 C 163.38 129.29 164.28 128.67 164.46 127.73 L 164.64 126.72 C 164.82 125.78 164.20 124.87 163.25 124.70 C 162.31 124.53 161.41 125.15 161.23 126.09 Z M 161.04 127.12 L 160.86 128.15 C 160.70 129.10 161.33 130.00 162.27 130.16 C 163.22 130.32 164.12 129.69 164.28 128.75 L 164.46 127.71 C 164.62 126.77 163.99 125.87 163.05 125.70 C 162.10 125.54 161.21 126.17 161.04 127.12 Z M 160.86 128.17 L 160.70 129.17 C 160.54 130.11 161.19 131.00 162.13 131.16 C 163.08 131.31 163.97 130.67 164.12 129.72 L 164.28 128.73 C 164.44 127.78 163.79 126.89 162.85 126.74 C 161.90 126.58 161.01 127.23 160.86 128.17 Z M 160.69 129.19 L 160.55 130.14 C 160.41 131.08 161.06 131.97 162.01 132.11 C 162.95 132.25 163.84 131.60 163.98 130.65 L 164.12 129.70 C 164.27 128.76 163.62 127.87 162.67 127.73 C 161.72 127.59 160.84 128.24 160.69 129.19 Z M 160.55 130.15 L 160.42 131.09 C 160.28 132.04 160.94 132.92 161.89 133.05 C 162.84 133.18 163.72 132.52 163.85 131.57 L 163.98 130.64 C 164.12 129.69 163.46 128.81 162.51 128.68 C 161.56 128.54 160.68 129.21 160.55 130.15 Z M 160.41 131.11 L 160.29 132.12 C 160.16 133.07 160.84 133.94 161.79 134.06 C 162.74 134.18 163.60 133.51 163.72 132.56 L 163.85 131.55 C 163.97 130.60 163.30 129.73 162.35 129.61 C 161.40 129.49 160.54 130.16 160.41 131.11 Z M 160.28 132.16 L 160.18 133.14 C 160.08 134.09 160.77 134.95 161.72 135.05 C 162.67 135.15 163.52 134.46 163.62 133.50 L 163.73 132.52 C 163.83 131.57 163.14 130.72 162.19 130.62 C 161.23 130.52 160.38 131.21 160.28 132.16 Z M 160.18 133.20 L 160.10 134.18 C 160.03 135.13 160.75 135.96 161.70 136.03 C 162.66 136.10 163.49 135.39 163.56 134.43 L 163.63 133.45 C 163.70 132.50 162.98 131.67 162.03 131.60 C 161.08 131.53 160.25 132.24 160.18 133.20 Z M 160.10 134.25 L 160.07 135.30 C 160.04 136.25 160.78 137.05 161.74 137.08 C 162.69 137.11 163.49 136.37 163.52 135.41 L 163.56 134.36 C 163.59 133.41 162.84 132.61 161.89 132.58 C 160.93 132.55 160.14 133.29 160.10 134.25 Z M 160.07 135.42 L 160.12 136.50 C 160.16 137.45 160.96 138.19 161.91 138.15 C 162.86 138.12 163.60 137.32 163.56 136.37 L 163.51 135.29 C 163.48 134.34 162.68 133.60 161.73 133.63 C 160.78 133.67 160.04 134.47 160.07 135.42 Z M 160.16 136.77 L 160.34 137.73 C 160.53 138.66 161.43 139.26 162.36 139.08 C 163.29 138.90 163.89 138.00 163.71 137.07 L 163.52 136.10 C 163.34 135.17 162.44 134.57 161.51 134.75 C 160.58 134.94 159.97 135.84 160.16 136.77 Z M 160.53 138.22 L 160.95 138.97 C 161.40 139.80 162.44 140.10 163.27 139.65 C 164.09 139.19 164.39 138.15 163.94 137.33 L 163.52 136.58 C 163.07 135.75 162.03 135.45 161.20 135.90 C 160.38 136.36 160.08 137.40 160.53 138.22 Z M 161.55 139.59 L 162.34 140.08 C 163.14 140.57 164.18 140.32 164.67 139.53 C 165.16 138.73 164.92 137.69 164.12 137.20 L 163.33 136.71 C 162.53 136.22 161.49 136.46 161.00 137.26 C 160.51 138.06 160.76 139.10 161.55 139.59 Z M 163.01 140.29 L 164.01 140.43 C 164.92 140.55 165.76 139.91 165.88 138.99 C 166.01 138.08 165.36 137.23 164.45 137.11 L 163.45 136.98 C 162.54 136.86 161.70 137.50 161.57 138.42 C 161.45 139.33 162.10 140.17 163.01 140.29 Z M 164.44 140.41 L 165.45 140.28 C 166.35 140.16 166.99 139.33 166.87 138.43 C 166.75 137.52 165.92 136.88 165.02 137.00 L 164.01 137.13 C 163.11 137.25 162.47 138.08 162.59 138.98 C 162.71 139.89 163.54 140.52 164.44 140.41 Z M 165.75 140.19 L 166.58 139.91 C 167.44 139.62 167.90 138.70 167.61 137.84 C 167.33 136.99 166.40 136.53 165.55 136.81 L 164.72 137.09 C 163.86 137.38 163.40 138.30 163.69 139.16 C 163.97 140.01 164.90 140.47 165.75 140.19 Z M 166.82 139.79 L 167.67 139.34 C 168.46 138.92 168.76 137.94 168.34 137.15 C 167.92 136.37 166.94 136.07 166.15 136.49 L 165.31 136.93 C 164.52 137.35 164.22 138.33 164.64 139.12 C 165.06 139.91 166.04 140.21 166.82 139.79 Z M 167.83 139.22 L 168.75 138.57 C 169.47 138.06 169.64 137.07 169.13 136.34 C 168.62 135.62 167.62 135.45 166.90 135.96 L 165.99 136.60 C 165.27 137.11 165.09 138.11 165.60 138.83 C 166.11 139.56 167.11 139.73 167.83 139.22 Z M 168.83 138.49 L 169.61 137.86 C 170.28 137.30 170.38 136.30 169.83 135.62 C 169.27 134.94 168.27 134.85 167.59 135.40 L 166.82 136.04 C 166.14 136.60 166.04 137.60 166.60 138.27 C 167.15 138.95 168.15 139.05 168.83 138.49 Z M 169.65 137.81 L 170.38 137.16 C 171.03 136.58 171.09 135.58 170.50 134.93 C 169.92 134.28 168.92 134.22 168.27 134.80 L 167.54 135.45 C 166.89 136.03 166.84 137.03 167.42 137.68 C 168.00 138.34 169.00 138.39 169.65 137.81 Z M 170.41 137.12 L 171.16 136.42 C 171.79 135.81 171.81 134.81 171.21 134.18 C 170.61 133.55 169.61 133.53 168.98 134.13 L 168.23 134.84 C 167.60 135.44 167.58 136.44 168.18 137.07 C 168.78 137.70 169.78 137.73 170.41 137.12 Z M 171.19 136.38 L 171.92 135.63 C 172.53 135.01 172.53 134.01 171.90 133.40 C 171.28 132.79 170.29 132.80 169.68 133.42 L 168.94 134.17 C 168.33 134.79 168.34 135.79 168.96 136.40 C 169.58 137.01 170.58 137.00 171.19 136.38 Z M 171.96 135.59 L 172.65 134.84 C 173.24 134.20 173.20 133.20 172.56 132.61 C 171.92 132.02 170.93 132.07 170.34 132.71 L 169.64 133.46 C 169.05 134.10 169.09 135.10 169.73 135.69 C 170.37 136.27 171.37 136.23 171.96 135.59 Z M 172.69 134.78 L 173.38 133.98 C 173.94 133.32 173.85 132.33 173.19 131.77 C 172.53 131.21 171.54 131.29 170.98 131.95 L 170.30 132.76 C 169.74 133.42 169.82 134.41 170.48 134.97 C 171.14 135.53 172.13 135.45 172.69 134.78 Z M 173.43 133.91 L 174.07 133.06 C 174.60 132.38 174.46 131.39 173.77 130.87 C 173.09 130.34 172.10 130.48 171.58 131.16 L 170.93 132.01 C 170.41 132.70 170.54 133.69 171.23 134.21 C 171.92 134.74 172.90 134.60 173.43 133.91 Z M 174.12 132.99 L 174.68 132.16 C 175.17 131.45 174.98 130.47 174.26 129.99 C 173.54 129.50 172.57 129.69 172.09 130.41 L 171.53 131.24 C 171.04 131.96 171.23 132.93 171.95 133.41 C 172.67 133.90 173.64 133.71 174.12 132.99 Z M 174.73 132.08 L 175.22 131.27 C 175.66 130.52 175.41 129.57 174.67 129.12 C 173.93 128.68 172.97 128.93 172.53 129.67 L 172.04 130.49 C 171.60 131.23 171.84 132.19 172.59 132.63 C 173.33 133.07 174.29 132.83 174.73 132.08 Z M 175.26 131.19 L 175.68 130.38 C 176.08 129.61 175.79 128.67 175.02 128.27 C 174.26 127.87 173.31 128.16 172.91 128.93 L 172.49 129.74 C 172.09 130.51 172.38 131.45 173.15 131.85 C 173.91 132.25 174.86 131.96 175.26 131.19 Z M 175.72 130.30 L 176.14 129.37 C 176.50 128.59 176.15 127.66 175.37 127.31 C 174.58 126.95 173.66 127.30 173.30 128.08 L 172.88 129.00 C 172.52 129.79 172.87 130.71 173.65 131.07 C 174.43 131.43 175.36 131.08 175.72 130.30 Z M 176.18 129.29 L 176.54 128.35 C 176.85 127.55 176.44 126.65 175.64 126.34 C 174.84 126.03 173.93 126.43 173.62 127.23 L 173.26 128.17 C 172.95 128.97 173.35 129.87 174.16 130.18 C 174.96 130.49 175.87 130.09 176.18 129.29 Z M 176.57 128.26 L 176.86 127.31 C 177.12 126.49 176.66 125.61 175.84 125.36 C 175.02 125.10 174.14 125.56 173.89 126.38 L 173.59 127.33 C 173.33 128.15 173.79 129.03 174.61 129.28 C 175.43 129.54 176.31 129.08 176.57 128.26 Z M 176.89 127.21 L 177.12 126.25 C 177.33 125.41 176.81 124.57 175.97 124.37 C 175.13 124.16 174.29 124.68 174.09 125.52 L 173.86 126.48 C 173.66 127.32 174.17 128.16 175.01 128.36 C 175.85 128.57 176.69 128.05 176.89 127.21 Z M 177.15 126.15 L 177.31 125.15 C 177.46 124.30 176.89 123.49 176.04 123.35 C 175.19 123.21 174.38 123.78 174.24 124.63 L 174.07 125.62 C 173.92 126.47 174.50 127.28 175.35 127.42 C 176.20 127.57 177.00 126.99 177.15 126.15 Z M 177.33 125.06 L 177.44 124.06 C 177.54 123.21 176.92 122.43 176.07 122.34 C 175.21 122.24 174.44 122.86 174.34 123.71 L 174.23 124.71 C 174.13 125.57 174.74 126.34 175.60 126.44 C 176.46 126.54 177.23 125.92 177.33 125.06 Z M 177.45 124.00 L 177.52 123.00 C 177.58 122.14 176.93 121.40 176.07 121.34 C 175.21 121.27 174.46 121.92 174.40 122.78 L 174.33 123.78 C 174.27 124.64 174.92 125.38 175.78 125.44 C 176.64 125.51 177.39 124.86 177.45 124.00 Z M 177.52 122.96 L 177.56 121.97 C 177.60 121.11 176.93 120.38 176.07 120.34 C 175.21 120.31 174.48 120.98 174.44 121.84 L 174.40 122.83 C 174.36 123.69 175.03 124.41 175.89 124.45 C 176.76 124.49 177.48 123.82 177.52 122.96 Z M 177.56 121.94 L 177.59 120.92 C 177.61 120.06 176.93 119.35 176.07 119.32 C 175.20 119.30 174.49 119.98 174.47 120.85 L 174.44 121.87 C 174.42 122.73 175.10 123.44 175.96 123.46 C 176.83 123.49 177.54 122.80 177.56 121.94 Z M 177.59 120.90 L 177.60 119.90 C 177.61 119.04 176.92 118.34 176.06 118.33 C 175.19 118.32 174.49 119.01 174.48 119.87 L 174.47 120.87 C 174.46 121.73 175.15 122.44 176.01 122.45 C 176.87 122.46 177.58 121.76 177.59 120.90 Z M 177.60 119.89 L 177.60 118.90 C 177.60 118.04 176.91 117.34 176.05 117.34 C 175.18 117.34 174.48 118.03 174.48 118.90 L 174.48 119.88 C 174.47 120.74 175.17 121.44 176.03 121.45 C 176.90 121.45 177.60 120.75 177.60 119.89 Z M 177.60 118.90 L 177.60 118.40 C 177.60 117.54 176.90 116.84 176.04 116.84 C 175.18 116.84 174.48 117.54 174.48 118.40 L 174.48 118.90 C 174.48 119.76 175.18 120.46 176.04 120.46 C 176.90 120.46 177.60 119.76 177.60 118.90 Z"
      fill="black"
      fill-rule="nonzero" /><path d="M 157.14 99.65 L 156.50 100.30 C 155.88 100.92 155.89 101.93 156.51 102.54 C 157.13 103.15 158.14 103.15 158.75 102.53 L 159.40 101.87 C 160.01 101.25 160.00 100.25 159.38 99.63 C 158.76 99.02 157.76 99.02 157.14 99.65 Z M 156.43 100.32 L 155.79 101.01 C 155.18 101.67 155.23 102.70 155.89 103.31 C 156.55 103.92 157.58 103.87 158.18 103.21 L 158.82 102.51 C 159.43 101.85 159.38 100.82 158.72 100.21 C 158.06 99.61 157.03 99.65 156.43 100.32 Z M 155.68 101.07 L 155.06 101.85 C 154.48 102.57 154.60 103.62 155.32 104.20 C 156.05 104.77 157.10 104.65 157.67 103.93 L 158.29 103.15 C 158.87 102.43 158.75 101.38 158.03 100.80 C 157.30 100.23 156.25 100.35 155.68 101.07 Z M 154.93 101.95 L 154.34 102.85 C 153.82 103.64 154.04 104.71 154.83 105.23 C 155.62 105.75 156.68 105.53 157.20 104.74 L 157.79 103.83 C 158.31 103.04 158.10 101.98 157.31 101.46 C 156.52 100.94 155.45 101.16 154.93 101.95 Z M 154.24 102.97 L 153.75 103.88 C 153.30 104.72 153.62 105.78 154.46 106.23 C 155.31 106.68 156.36 106.37 156.82 105.52 L 157.30 104.62 C 157.75 103.77 157.44 102.72 156.59 102.27 C 155.74 101.81 154.69 102.13 154.24 102.97 Z M 153.70 103.97 L 153.28 104.90 C 152.88 105.77 153.26 106.80 154.14 107.20 C 155.01 107.60 156.04 107.22 156.44 106.34 L 156.87 105.42 C 157.27 104.55 156.88 103.52 156.01 103.12 C 155.13 102.72 154.10 103.10 153.70 103.97 Z M 153.26 104.97 L 152.86 105.93 C 152.50 106.82 152.93 107.83 153.81 108.19 C 154.70 108.55 155.71 108.13 156.07 107.24 L 156.47 106.28 C 156.83 105.39 156.40 104.38 155.52 104.02 C 154.63 103.66 153.62 104.08 153.26 104.97 Z M 152.85 105.98 L 152.49 106.95 C 152.15 107.85 152.61 108.84 153.50 109.18 C 154.39 109.51 155.39 109.06 155.72 108.16 L 156.08 107.19 C 156.42 106.30 155.97 105.31 155.07 104.97 C 154.18 104.64 153.18 105.09 152.85 105.98 Z M 152.48 106.99 L 152.15 107.92 C 151.84 108.81 152.31 109.80 153.20 110.11 C 154.10 110.43 155.08 109.96 155.40 109.06 L 155.73 108.13 C 156.04 107.23 155.57 106.25 154.68 105.94 C 153.78 105.62 152.80 106.09 152.48 106.99 Z M 152.15 107.94 L 151.83 108.89 C 151.53 109.79 152.01 110.76 152.90 111.06 C 153.80 111.37 154.77 110.89 155.07 109.99 L 155.40 109.04 C 155.70 108.15 155.22 107.17 154.33 106.87 C 153.43 106.56 152.46 107.04 152.15 107.94 Z M 151.84 108.91 L 151.49 109.96 C 151.20 110.85 151.68 111.81 152.57 112.11 C 153.46 112.40 154.42 111.92 154.71 111.03 L 155.06 109.98 C 155.36 109.09 154.88 108.13 153.99 107.83 C 153.10 107.54 152.14 108.02 151.84 108.91 Z M 151.51 109.98 L 151.21 110.90 C 150.93 111.78 151.41 112.73 152.29 113.01 C 153.17 113.30 154.12 112.81 154.40 111.93 L 154.70 111.01 C 154.98 110.13 154.50 109.19 153.62 108.90 C 152.74 108.62 151.79 109.10 151.51 109.98 Z M 151.23 110.92 L 150.96 111.78 C 150.68 112.65 151.17 113.58 152.04 113.86 C 152.91 114.13 153.84 113.64 154.12 112.77 L 154.38 111.91 C 154.66 111.04 154.17 110.11 153.30 109.84 C 152.43 109.56 151.50 110.05 151.23 110.92 Z M 150.97 111.80 L 150.70 112.69 C 150.43 113.55 150.92 114.47 151.79 114.73 C 152.65 114.99 153.57 114.51 153.83 113.64 L 154.10 112.76 C 154.37 111.89 153.88 110.98 153.01 110.71 C 152.15 110.45 151.23 110.93 150.97 111.80 Z M 150.71 112.70 L 150.42 113.64 C 150.17 114.50 150.65 115.40 151.51 115.66 C 152.37 115.92 153.28 115.43 153.54 114.57 L 153.82 113.63 C 154.08 112.77 153.59 111.87 152.73 111.61 C 151.87 111.35 150.97 111.84 150.71 112.70 Z M 150.43 113.64 L 150.14 114.61 C 149.89 115.47 150.37 116.37 151.23 116.62 C 152.09 116.88 152.99 116.39 153.24 115.54 L 153.53 114.57 C 153.78 113.71 153.30 112.81 152.44 112.56 C 151.59 112.30 150.69 112.79 150.43 113.64 Z M 150.15 114.62 L 149.86 115.60 C 149.61 116.46 150.09 117.35 150.94 117.60 C 151.79 117.85 152.69 117.37 152.94 116.52 L 153.23 115.53 C 153.48 114.68 153.00 113.79 152.15 113.54 C 151.30 113.28 150.40 113.77 150.15 114.62 Z M 149.87 115.61 L 149.58 116.56 C 149.33 117.41 149.82 118.30 150.66 118.55 C 151.51 118.80 152.40 118.32 152.65 117.47 L 152.93 116.52 C 153.18 115.67 152.70 114.78 151.85 114.53 C 151.01 114.28 150.12 114.76 149.87 115.61 Z M 149.59 116.57 L 149.31 117.52 C 149.06 118.37 149.54 119.25 150.38 119.50 C 151.23 119.75 152.11 119.27 152.36 118.43 L 152.64 117.47 C 152.89 116.63 152.41 115.74 151.57 115.49 C 150.72 115.24 149.84 115.72 149.59 116.57 Z M 149.31 117.53 L 149.03 118.49 C 148.78 119.33 149.26 120.21 150.10 120.46 C 150.94 120.71 151.83 120.22 152.07 119.38 L 152.36 118.42 C 152.60 117.58 152.12 116.70 151.28 116.45 C 150.44 116.20 149.56 116.69 149.31 117.53 Z M 149.03 118.49 L 148.75 119.46 C 148.51 120.30 148.99 121.17 149.83 121.42 C 150.67 121.66 151.54 121.18 151.79 120.34 L 152.07 119.38 C 152.31 118.54 151.83 117.66 150.99 117.42 C 150.16 117.17 149.28 117.65 149.03 118.49 Z M 148.75 119.46 L 148.48 120.42 C 148.24 121.25 148.72 122.13 149.56 122.37 C 150.39 122.61 151.27 122.13 151.51 121.29 L 151.79 120.34 C 152.03 119.50 151.55 118.63 150.71 118.38 C 149.87 118.14 149.00 118.62 148.75 119.46 Z M 148.48 120.42 L 148.20 121.38 C 147.96 122.22 148.45 123.09 149.28 123.33 C 150.12 123.57 150.99 123.09 151.23 122.25 L 151.51 121.29 C 151.75 120.45 151.26 119.58 150.43 119.34 C 149.59 119.10 148.72 119.58 148.48 120.42 Z M 148.21 121.38 L 147.93 122.35 C 147.69 123.18 148.18 124.05 149.01 124.29 C 149.84 124.53 150.71 124.05 150.95 123.21 L 151.23 122.25 C 151.47 121.41 150.98 120.54 150.15 120.31 C 149.32 120.07 148.45 120.55 148.21 121.38 Z M 147.93 122.35 L 147.66 123.32 C 147.42 124.15 147.90 125.02 148.73 125.26 C 149.57 125.49 150.43 125.01 150.67 124.18 L 150.95 123.21 C 151.19 122.38 150.70 121.51 149.87 121.27 C 149.04 121.04 148.17 121.52 147.93 122.35 Z M 147.66 123.32 L 147.38 124.29 C 147.15 125.12 147.63 125.98 148.46 126.22 C 149.29 126.46 150.16 125.98 150.40 125.14 L 150.67 124.18 C 150.91 123.35 150.43 122.48 149.59 122.24 C 148.76 122.01 147.90 122.49 147.66 123.32 Z M 147.38 124.29 L 147.11 125.25 C 146.88 126.09 147.36 126.95 148.19 127.19 C 149.02 127.42 149.89 126.94 150.12 126.11 L 150.39 125.14 C 150.63 124.31 150.15 123.45 149.32 123.21 C 148.48 122.98 147.62 123.46 147.38 124.29 Z M 147.11 125.26 L 146.84 126.22 C 146.61 127.05 147.10 127.91 147.93 128.15 C 148.76 128.38 149.62 127.89 149.86 127.06 L 150.12 126.10 C 150.35 125.27 149.87 124.41 149.04 124.17 C 148.20 123.94 147.34 124.43 147.11 125.26 Z M 146.84 126.23 L 146.58 127.20 C 146.35 128.03 146.84 128.89 147.67 129.12 C 148.51 129.34 149.37 128.85 149.59 128.02 L 149.86 127.05 C 150.08 126.22 149.59 125.36 148.76 125.13 C 147.93 124.90 147.07 125.40 146.84 126.23 Z M 146.58 127.21 L 146.31 128.18 C 146.09 129.02 146.59 129.87 147.42 130.10 C 148.25 130.32 149.11 129.82 149.33 128.99 L 149.59 128.01 C 149.82 127.18 149.32 126.32 148.49 126.10 C 147.66 125.88 146.80 126.37 146.58 127.21 Z M 146.31 128.19 L 146.06 129.15 C 145.84 129.99 146.33 130.84 147.17 131.06 C 148.00 131.28 148.86 130.79 149.08 129.95 L 149.33 128.99 C 149.55 128.15 149.06 127.30 148.22 127.08 C 147.39 126.86 146.54 127.35 146.31 128.19 Z M 146.06 129.15 L 145.81 130.10 C 145.58 130.93 146.08 131.79 146.91 132.01 C 147.75 132.23 148.60 131.74 148.82 130.90 L 149.08 129.96 C 149.30 129.12 148.80 128.27 147.97 128.05 C 147.14 127.82 146.28 128.32 146.06 129.15 Z M 145.81 130.10 L 145.57 130.98 C 145.34 131.81 145.84 132.67 146.67 132.90 C 147.50 133.12 148.36 132.63 148.58 131.80 L 148.82 130.91 C 149.05 130.08 148.55 129.22 147.72 129.00 C 146.89 128.77 146.03 129.26 145.81 130.10 Z M 145.57 130.97 L 145.32 131.87 C 145.09 132.70 145.58 133.56 146.41 133.79 C 147.24 134.02 148.10 133.53 148.33 132.70 L 148.58 131.80 C 148.81 130.97 148.32 130.11 147.49 129.88 C 146.66 129.65 145.80 130.14 145.57 130.97 Z M 145.33 131.86 L 145.06 132.82 C 144.82 133.65 145.31 134.51 146.14 134.75 C 146.97 134.98 147.83 134.49 148.06 133.66 L 148.33 132.70 C 148.56 131.87 148.08 131.01 147.25 130.78 C 146.42 130.55 145.56 131.03 145.33 131.86 Z M 145.06 132.82 L 144.75 133.89 C 144.52 134.72 145.00 135.59 145.83 135.82 C 146.66 136.06 147.52 135.58 147.75 134.75 L 148.06 133.67 C 148.30 132.84 147.81 131.98 146.99 131.74 C 146.16 131.51 145.29 131.99 145.06 132.82 Z M 144.75 133.89 L 144.49 134.82 C 144.25 135.65 144.73 136.52 145.56 136.75 C 146.39 136.99 147.25 136.51 147.49 135.68 L 147.75 134.75 C 147.99 133.92 147.51 133.06 146.68 132.82 C 145.85 132.58 144.99 133.06 144.75 133.89 Z M 144.49 134.82 L 144.21 135.77 C 143.98 136.60 144.45 137.46 145.28 137.70 C 146.11 137.94 146.98 137.46 147.21 136.63 L 147.49 135.68 C 147.72 134.85 147.25 133.99 146.42 133.75 C 145.59 133.51 144.72 133.99 144.49 134.82 Z M 144.21 135.77 L 143.93 136.76 C 143.69 137.59 144.17 138.45 145.00 138.69 C 145.83 138.93 146.69 138.45 146.93 137.62 L 147.21 136.63 C 147.45 135.80 146.97 134.94 146.15 134.70 C 145.32 134.46 144.45 134.94 144.21 135.77 Z M 143.93 136.76 L 143.64 137.75 C 143.40 138.58 143.88 139.45 144.71 139.69 C 145.54 139.92 146.40 139.45 146.64 138.62 L 146.93 137.62 C 147.17 136.79 146.69 135.93 145.86 135.69 C 145.03 135.45 144.17 135.93 143.93 136.76 Z M 143.64 137.75 L 143.36 138.73 C 143.12 139.56 143.60 140.42 144.43 140.66 C 145.25 140.90 146.12 140.43 146.36 139.60 L 146.64 138.62 C 146.88 137.79 146.40 136.93 145.58 136.69 C 144.75 136.45 143.88 136.92 143.64 137.75 Z M 143.36 138.73 L 143.07 139.73 C 142.83 140.56 143.31 141.42 144.14 141.66 C 144.96 141.90 145.83 141.43 146.07 140.60 L 146.36 139.60 C 146.60 138.77 146.12 137.91 145.29 137.67 C 144.46 137.43 143.60 137.90 143.36 138.73 Z M 143.07 139.73 L 142.77 140.75 C 142.53 141.58 143.01 142.45 143.84 142.69 C 144.67 142.93 145.53 142.45 145.77 141.62 L 146.07 140.60 C 146.31 139.77 145.83 138.91 145.00 138.67 C 144.18 138.43 143.31 138.90 143.07 139.73 Z M 142.77 140.75 L 142.49 141.72 C 142.25 142.54 142.73 143.41 143.56 143.65 C 144.39 143.89 145.25 143.41 145.49 142.59 L 145.77 141.62 C 146.01 140.80 145.54 139.93 144.71 139.69 C 143.88 139.45 143.01 139.93 142.77 140.75 Z M 142.49 141.72 L 142.23 142.64 C 141.99 143.47 142.46 144.33 143.29 144.57 C 144.12 144.81 144.99 144.33 145.23 143.51 L 145.49 142.59 C 145.73 141.76 145.26 140.89 144.43 140.65 C 143.60 140.41 142.73 140.89 142.49 141.72 Z M 142.23 142.64 L 141.97 143.54 C 141.73 144.36 142.20 145.23 143.03 145.47 C 143.86 145.71 144.72 145.23 144.96 144.41 L 145.23 143.51 C 145.47 142.68 144.99 141.81 144.16 141.57 C 143.33 141.33 142.47 141.81 142.23 142.64 Z M 141.97 143.54 L 141.92 143.70 C 141.68 144.53 142.15 145.40 142.98 145.64 C 143.81 145.88 144.68 145.40 144.92 144.57 L 144.96 144.41 C 145.21 143.58 144.73 142.71 143.90 142.47 C 143.07 142.23 142.21 142.71 141.97 143.54 Z"
      fill="black"
      fill-rule="nonzero" /><path d="M 126.58 159.77 L 127.51 159.61 C 128.38 159.46 128.96 158.64 128.81 157.77 C 128.67 156.91 127.84 156.32 126.97 156.47 L 126.04 156.63 C 125.17 156.78 124.59 157.60 124.74 158.47 C 124.89 159.34 125.71 159.92 126.58 159.77 Z M 127.51 159.68 L 128.46 159.52 C 129.37 159.38 129.98 158.53 129.83 157.62 C 129.69 156.72 128.84 156.11 127.93 156.25 L 126.98 156.40 C 126.08 156.55 125.46 157.40 125.61 158.31 C 125.75 159.21 126.60 159.82 127.51 159.68 Z M 128.44 159.59 L 129.44 159.45 C 130.38 159.32 131.03 158.44 130.90 157.50 C 130.76 156.56 129.89 155.91 128.95 156.04 L 127.95 156.18 C 127.01 156.32 126.36 157.19 126.49 158.13 C 126.63 159.07 127.50 159.73 128.44 159.59 Z M 129.40 159.52 L 130.46 159.39 C 131.44 159.28 132.14 158.39 132.03 157.41 C 131.91 156.43 131.02 155.73 130.04 155.84 L 128.98 155.97 C 128.00 156.09 127.30 156.98 127.42 157.96 C 127.53 158.94 128.42 159.64 129.40 159.52 Z M 130.42 159.44 L 131.42 159.34 C 132.43 159.25 133.16 158.36 133.07 157.36 C 132.98 156.35 132.09 155.62 131.09 155.71 L 130.08 155.80 C 129.08 155.90 128.34 156.79 128.44 157.79 C 128.53 158.79 129.42 159.53 130.42 159.44 Z M 131.39 159.35 L 132.41 159.27 C 133.42 159.19 134.18 158.32 134.10 157.31 C 134.02 156.30 133.15 155.55 132.14 155.63 L 131.12 155.70 C 130.11 155.78 129.36 156.66 129.43 157.66 C 129.51 158.67 130.39 159.42 131.39 159.35 Z M 132.40 159.27 L 133.42 159.21 C 134.43 159.14 135.19 158.27 135.13 157.26 C 135.06 156.26 134.19 155.49 133.18 155.56 L 132.16 155.62 C 131.15 155.69 130.39 156.56 130.45 157.57 C 130.52 158.57 131.39 159.34 132.40 159.27 Z M 133.41 159.21 L 134.41 159.15 C 135.42 159.09 136.19 158.22 136.13 157.21 C 136.07 156.21 135.20 155.44 134.19 155.50 L 133.19 155.56 C 132.19 155.62 131.42 156.48 131.48 157.49 C 131.54 158.50 132.40 159.27 133.41 159.21 Z M 134.41 159.15 L 135.38 159.09 C 136.39 159.03 137.16 158.16 137.09 157.15 C 137.03 156.15 136.17 155.38 135.16 155.44 L 134.19 155.50 C 133.18 155.56 132.42 156.42 132.48 157.43 C 132.54 158.44 133.40 159.21 134.41 159.15 Z M 135.39 159.09 L 136.47 159.01 C 137.48 158.95 138.24 158.07 138.17 157.07 C 138.10 156.06 137.23 155.30 136.23 155.37 L 135.15 155.44 C 134.14 155.51 133.38 156.38 133.45 157.39 C 133.52 158.39 134.39 159.15 135.39 159.09 Z M 136.49 159.01 L 137.48 158.93 C 138.48 158.85 139.23 157.97 139.15 156.97 C 139.07 155.97 138.20 155.22 137.19 155.30 L 136.20 155.37 C 135.20 155.45 134.45 156.33 134.53 157.34 C 134.61 158.34 135.49 159.09 136.49 159.01 Z M 137.51 158.92 L 138.45 158.84 C 139.45 158.74 140.18 157.85 140.09 156.85 C 139.99 155.85 139.11 155.12 138.11 155.21 L 137.16 155.30 C 136.16 155.40 135.43 156.28 135.52 157.28 C 135.62 158.28 136.51 159.02 137.51 158.92 Z M 138.48 158.83 L 139.42 158.72 C 140.42 158.61 141.14 157.71 141.03 156.72 C 140.92 155.72 140.02 155.00 139.02 155.11 L 138.08 155.22 C 137.08 155.33 136.36 156.23 136.47 157.23 C 136.58 158.22 137.48 158.94 138.48 158.83 Z M 139.45 158.71 L 140.43 158.59 C 141.42 158.47 142.12 157.56 142.00 156.57 C 141.87 155.58 140.97 154.87 139.97 155.00 L 139.00 155.12 C 138.00 155.25 137.30 156.15 137.43 157.15 C 137.55 158.14 138.46 158.84 139.45 158.71 Z M 140.44 158.58 L 141.44 158.45 C 142.43 158.31 143.12 157.40 142.99 156.42 C 142.85 155.43 141.94 154.74 140.95 154.87 L 139.96 155.01 C 138.97 155.14 138.28 156.05 138.41 157.04 C 138.55 158.03 139.46 158.72 140.44 158.58 Z M 141.45 158.44 L 142.46 158.30 C 143.44 158.16 144.12 157.25 143.99 156.27 C 143.85 155.28 142.94 154.60 141.95 154.74 L 140.95 154.88 C 139.96 155.02 139.28 155.93 139.42 156.91 C 139.56 157.90 140.47 158.58 141.45 158.44 Z M 142.46 158.29 L 143.45 158.15 C 144.43 158.01 145.11 157.10 144.97 156.12 C 144.83 155.14 143.92 154.46 142.94 154.60 L 141.95 154.74 C 140.97 154.88 140.29 155.79 140.43 156.77 C 140.57 157.75 141.48 158.43 142.46 158.29 Z M 143.44 158.15 L 144.43 158.01 C 145.40 157.87 146.08 156.96 145.94 155.98 C 145.80 155.01 144.90 154.33 143.92 154.47 L 142.94 154.61 C 141.96 154.75 141.28 155.65 141.42 156.63 C 141.56 157.61 142.47 158.29 143.44 158.15 Z M 144.42 158.00 L 145.41 157.86 C 146.39 157.72 147.07 156.82 146.93 155.85 C 146.79 154.87 145.89 154.19 144.92 154.33 L 143.92 154.47 C 142.95 154.61 142.27 155.51 142.41 156.49 C 142.55 157.46 143.45 158.14 144.42 158.00 Z M 145.41 157.86 L 146.41 157.72 C 147.39 157.58 148.06 156.68 147.93 155.71 C 147.79 154.74 146.90 154.06 145.92 154.20 L 144.92 154.34 C 143.95 154.47 143.27 155.37 143.40 156.34 C 143.54 157.31 144.44 157.99 145.41 157.86 Z M 146.41 157.71 L 147.39 157.58 C 148.36 157.44 149.03 156.55 148.90 155.58 C 148.77 154.61 147.87 153.93 146.91 154.07 L 145.93 154.20 C 144.96 154.33 144.28 155.23 144.41 156.20 C 144.55 157.17 145.44 157.84 146.41 157.71 Z M 147.39 157.57 L 148.37 157.44 C 149.34 157.30 150.02 156.41 149.88 155.45 C 149.75 154.48 148.86 153.80 147.89 153.94 L 146.91 154.07 C 145.94 154.21 145.26 155.10 145.40 156.06 C 145.53 157.03 146.42 157.70 147.39 157.57 Z M 148.38 157.43 L 149.37 157.29 C 150.34 157.15 151.01 156.26 150.87 155.30 C 150.74 154.34 149.85 153.67 148.89 153.80 L 147.89 153.94 C 146.93 154.08 146.26 154.97 146.39 155.93 C 146.53 156.89 147.42 157.56 148.38 157.43 Z M 149.38 157.28 L 150.38 157.14 C 151.34 157.00 152.01 156.11 151.87 155.15 C 151.73 154.19 150.84 153.53 149.88 153.67 L 148.88 153.81 C 147.92 153.95 147.26 154.84 147.40 155.80 C 147.54 156.76 148.43 157.42 149.38 157.28 Z M 150.40 157.13 L 151.38 156.98 C 152.34 156.83 152.99 155.94 152.85 154.98 C 152.70 154.03 151.81 153.38 150.85 153.52 L 149.87 153.67 C 148.91 153.82 148.26 154.71 148.40 155.67 C 148.55 156.62 149.44 157.27 150.40 157.13 Z M 151.39 156.97 L 152.38 156.81 C 153.33 156.66 153.98 155.77 153.82 154.82 C 153.67 153.87 152.78 153.22 151.83 153.37 L 150.84 153.53 C 149.89 153.68 149.25 154.57 149.40 155.52 C 149.55 156.47 150.44 157.12 151.39 156.97 Z M 152.39 156.80 L 153.37 156.64 C 154.32 156.49 154.96 155.59 154.80 154.65 C 154.65 153.70 153.76 153.06 152.81 153.22 L 151.83 153.38 C 150.88 153.54 150.24 154.43 150.39 155.37 C 150.55 156.32 151.44 156.96 152.39 156.80 Z M 153.38 156.63 L 154.36 156.47 C 155.30 156.31 155.94 155.42 155.78 154.48 C 155.63 153.54 154.74 152.90 153.80 153.06 L 152.81 153.23 C 151.87 153.38 151.23 154.27 151.39 155.21 C 151.55 156.15 152.44 156.79 153.38 156.63 Z M 154.36 156.46 L 155.35 156.30 C 156.29 156.14 156.92 155.25 156.77 154.32 C 156.61 153.38 155.72 152.75 154.79 152.90 L 153.80 153.07 C 152.86 153.22 152.23 154.11 152.38 155.05 C 152.54 155.99 153.43 156.62 154.36 156.46 Z M 155.36 156.29 L 156.35 156.12 C 157.28 155.96 157.91 155.08 157.75 154.15 C 157.59 153.21 156.71 152.59 155.77 152.74 L 154.78 152.91 C 153.85 153.07 153.22 153.95 153.38 154.89 C 153.54 155.82 154.42 156.45 155.36 156.29 Z M 156.35 156.11 L 157.34 155.94 C 158.26 155.78 158.89 154.90 158.72 153.97 C 158.56 153.04 157.68 152.42 156.75 152.58 L 155.77 152.75 C 154.84 152.91 154.22 153.80 154.38 154.72 C 154.54 155.65 155.42 156.27 156.35 156.11 Z M 157.35 155.93 L 158.33 155.76 C 159.25 155.59 159.86 154.70 159.69 153.78 C 159.53 152.86 158.64 152.25 157.72 152.41 L 156.74 152.59 C 155.82 152.76 155.21 153.64 155.37 154.56 C 155.54 155.49 156.42 156.10 157.35 155.93 Z M 158.34 155.75 L 159.32 155.56 C 160.24 155.38 160.84 154.50 160.67 153.58 C 160.49 152.66 159.61 152.06 158.69 152.24 L 157.71 152.42 C 156.79 152.60 156.19 153.48 156.36 154.40 C 156.54 155.32 157.42 155.92 158.34 155.75 Z M 159.33 155.55 L 160.31 155.36 C 161.22 155.17 161.82 154.29 161.64 153.38 C 161.46 152.46 160.57 151.87 159.66 152.05 L 158.68 152.24 C 157.77 152.43 157.17 153.31 157.35 154.22 C 157.53 155.14 158.42 155.73 159.33 155.55 Z M 160.32 155.35 L 161.29 155.15 C 162.20 154.97 162.79 154.08 162.61 153.17 C 162.42 152.27 161.54 151.68 160.63 151.86 L 159.65 152.06 C 158.74 152.24 158.16 153.13 158.34 154.04 C 158.52 154.94 159.41 155.53 160.32 155.35 Z M 161.30 155.14 L 162.28 154.94 C 163.18 154.76 163.76 153.88 163.58 152.97 C 163.40 152.07 162.51 151.49 161.61 151.67 L 160.63 151.87 C 159.73 152.05 159.14 152.94 159.33 153.84 C 159.51 154.74 160.39 155.33 161.30 155.14 Z M 162.28 154.93 L 163.28 154.73 C 164.18 154.55 164.76 153.67 164.58 152.77 C 164.40 151.87 163.52 151.29 162.62 151.47 L 161.61 151.68 C 160.72 151.86 160.13 152.74 160.32 153.64 C 160.50 154.53 161.38 155.12 162.28 154.93 Z M 163.28 154.72 L 164.28 154.52 C 165.18 154.34 165.76 153.46 165.57 152.57 C 165.39 151.68 164.52 151.10 163.63 151.28 L 162.63 151.48 C 161.73 151.66 161.15 152.53 161.33 153.43 C 161.51 154.32 162.39 154.90 163.28 154.72 Z M 164.28 154.51 L 165.26 154.31 C 166.15 154.13 166.72 153.26 166.54 152.37 C 166.36 151.48 165.49 150.91 164.60 151.09 L 163.63 151.29 C 162.74 151.47 162.16 152.34 162.34 153.23 C 162.52 154.12 163.39 154.69 164.28 154.51 Z M 165.26 154.30 L 166.20 154.11 C 167.08 153.93 167.65 153.06 167.47 152.18 C 167.28 151.29 166.42 150.72 165.54 150.91 L 164.60 151.10 C 163.72 151.28 163.15 152.14 163.33 153.03 C 163.51 153.91 164.38 154.48 165.26 154.30 Z M 166.20 154.10 L 167.17 153.90 C 168.04 153.71 168.61 152.85 168.42 151.97 C 168.24 151.09 167.37 150.53 166.49 150.71 L 165.53 150.91 C 164.65 151.10 164.09 151.96 164.27 152.84 C 164.46 153.72 165.32 154.28 166.20 154.10 Z M 167.18 153.89 L 168.12 153.68 C 169.00 153.48 169.55 152.62 169.36 151.75 C 169.17 150.87 168.30 150.32 167.43 150.51 L 166.48 150.72 C 165.61 150.91 165.05 151.78 165.25 152.65 C 165.44 153.53 166.30 154.08 167.18 153.89 Z M 168.14 153.67 L 169.13 153.44 C 169.99 153.23 170.53 152.37 170.33 151.50 C 170.13 150.63 169.26 150.09 168.39 150.29 L 167.41 150.52 C 166.54 150.73 166.00 151.59 166.20 152.46 C 166.41 153.33 167.27 153.87 168.14 153.67 Z M 169.14 153.43 L 170.13 153.18 C 170.99 152.97 171.52 152.10 171.31 151.24 C 171.09 150.38 170.22 149.85 169.36 150.06 L 168.38 150.30 C 167.51 150.52 166.99 151.39 167.20 152.25 C 167.41 153.11 168.28 153.64 169.14 153.43 Z M 170.15 153.17 L 171.12 152.92 C 171.98 152.70 172.50 151.83 172.27 150.97 C 172.05 150.11 171.18 149.60 170.32 149.82 L 169.35 150.07 C 168.49 150.29 167.97 151.17 168.20 152.02 C 168.42 152.88 169.29 153.39 170.15 153.17 Z M 171.14 152.91 L 172.14 152.64 C 172.99 152.41 173.49 151.53 173.26 150.68 C 173.02 149.83 172.15 149.33 171.30 149.56 L 170.30 149.83 C 169.45 150.06 168.95 150.94 169.18 151.79 C 169.42 152.64 170.29 153.14 171.14 152.91 Z M 172.17 152.63 L 173.13 152.34 C 173.97 152.09 174.46 151.21 174.21 150.36 C 173.96 149.52 173.08 149.04 172.23 149.29 L 171.27 149.57 C 170.42 149.82 169.94 150.70 170.19 151.55 C 170.44 152.39 171.32 152.87 172.17 152.63 Z M 173.18 152.32 L 174.31 151.95 C 175.14 151.68 175.59 150.78 175.32 149.95 C 175.04 149.12 174.15 148.66 173.31 148.94 L 172.19 149.31 C 171.35 149.58 170.90 150.48 171.18 151.31 C 171.45 152.14 172.35 152.59 173.18 152.32 Z M 174.42 151.90 L 175.52 151.44 C 176.33 151.10 176.71 150.18 176.37 149.37 C 176.04 148.57 175.11 148.19 174.31 148.53 L 173.20 148.99 C 172.40 149.32 172.02 150.25 172.35 151.05 C 172.69 151.85 173.61 152.23 174.42 151.90 Z M 176.04 151.07 L 176.37 150.73 C 176.97 150.11 176.96 149.12 176.34 148.52 C 175.71 147.91 174.72 147.93 174.12 148.55 L 173.79 148.89 C 173.19 149.51 173.20 150.51 173.83 151.11 C 174.45 151.71 175.44 151.69 176.04 151.07 Z M 175.64 148.13 L 175.09 147.99 C 174.25 147.77 173.40 148.27 173.18 149.11 C 172.96 149.94 173.46 150.79 174.30 151.01 L 174.85 151.16 C 175.69 151.37 176.54 150.87 176.76 150.04 C 176.97 149.20 176.47 148.35 175.64 148.13 Z M 174.70 147.94 L 173.56 147.93 C 172.70 147.93 172.00 148.63 171.99 149.49 C 171.99 150.35 172.69 151.06 173.55 151.06 L 174.69 151.06 C 175.55 151.06 176.25 150.37 176.25 149.50 C 176.26 148.64 175.56 147.94 174.70 147.94 Z M 173.44 147.94 L 172.20 148.03 C 171.34 148.09 170.69 148.84 170.76 149.70 C 170.82 150.56 171.57 151.21 172.43 151.14 L 173.67 151.05 C 174.53 150.99 175.17 150.24 175.11 149.38 C 175.05 148.52 174.30 147.88 173.44 147.94 Z M 172.14 148.04 L 171.17 148.15 C 170.32 148.24 169.70 149.02 169.80 149.87 C 169.90 150.73 170.67 151.34 171.53 151.25 L 172.49 151.14 C 173.35 151.04 173.96 150.26 173.86 149.41 C 173.77 148.55 172.99 147.94 172.14 148.04 Z M 171.14 148.15 L 170.15 148.29 C 169.30 148.40 168.70 149.19 168.82 150.05 C 168.94 150.90 169.72 151.50 170.58 151.38 L 171.57 151.24 C 172.42 151.12 173.02 150.34 172.90 149.48 C 172.78 148.63 171.99 148.03 171.14 148.15 Z M 170.13 148.29 L 169.12 148.44 C 168.27 148.57 167.68 149.37 167.81 150.22 C 167.94 151.07 168.74 151.66 169.59 151.53 L 170.60 151.38 C 171.45 151.25 172.04 150.45 171.91 149.60 C 171.78 148.75 170.98 148.16 170.13 148.29 Z M 169.11 148.44 L 168.10 148.60 C 167.25 148.74 166.66 149.53 166.80 150.39 C 166.93 151.24 167.73 151.82 168.58 151.69 L 169.59 151.53 C 170.45 151.40 171.03 150.60 170.90 149.75 C 170.76 148.89 169.96 148.31 169.11 148.44 Z M 168.10 148.60 L 167.12 148.75 C 166.27 148.88 165.68 149.68 165.81 150.53 C 165.94 151.39 166.74 151.97 167.59 151.84 L 168.58 151.69 C 169.43 151.56 170.01 150.76 169.88 149.91 C 169.75 149.06 168.95 148.47 168.10 148.60 Z M 167.13 148.75 L 166.13 148.90 C 165.28 149.03 164.69 149.82 164.82 150.67 C 164.95 151.53 165.74 152.11 166.59 151.99 L 167.58 151.84 C 168.44 151.71 169.03 150.92 168.90 150.07 C 168.77 149.21 167.98 148.63 167.13 148.75 Z M 166.15 148.90 L 165.15 149.04 C 164.30 149.16 163.70 149.95 163.82 150.80 C 163.94 151.66 164.73 152.25 165.59 152.13 L 166.58 151.99 C 167.44 151.87 168.03 151.08 167.91 150.23 C 167.79 149.37 167.00 148.78 166.15 148.90 Z M 165.17 149.04 L 164.17 149.17 C 163.32 149.28 162.72 150.06 162.83 150.92 C 162.94 151.77 163.72 152.37 164.58 152.26 L 165.57 152.13 C 166.43 152.02 167.03 151.24 166.92 150.38 C 166.81 149.53 166.02 148.92 165.17 149.04 Z M 164.19 149.16 L 163.18 149.28 C 162.33 149.38 161.71 150.16 161.82 151.02 C 161.92 151.87 162.69 152.48 163.55 152.38 L 164.56 152.26 C 165.42 152.16 166.03 151.39 165.93 150.53 C 165.83 149.67 165.05 149.06 164.19 149.16 Z M 163.20 149.28 L 162.20 149.38 C 161.34 149.47 160.72 150.24 160.81 151.10 C 160.90 151.96 161.67 152.58 162.52 152.49 L 163.53 152.39 C 164.39 152.30 165.01 151.53 164.92 150.67 C 164.83 149.81 164.06 149.19 163.20 149.28 Z M 162.22 149.38 L 161.23 149.47 C 160.37 149.55 159.74 150.31 159.81 151.17 C 159.89 152.03 160.65 152.66 161.51 152.58 L 162.50 152.49 C 163.36 152.41 163.99 151.66 163.92 150.80 C 163.84 149.94 163.08 149.31 162.22 149.38 Z M 161.25 149.47 L 160.27 149.55 C 159.41 149.61 158.76 150.36 158.83 151.22 C 158.90 152.08 159.65 152.72 160.51 152.66 L 161.49 152.58 C 162.35 152.52 162.99 151.77 162.92 150.91 C 162.86 150.05 162.11 149.41 161.25 149.47 Z M 160.29 149.54 L 159.29 149.61 C 158.43 149.66 157.78 150.40 157.83 151.26 C 157.89 152.12 158.63 152.78 159.49 152.72 L 160.48 152.66 C 161.34 152.61 162.00 151.87 161.94 151.01 C 161.89 150.14 161.15 149.49 160.29 149.54 Z M 159.31 149.61 L 158.31 149.65 C 157.45 149.70 156.79 150.43 156.83 151.29 C 156.87 152.15 157.60 152.81 158.46 152.77 L 159.47 152.72 C 160.33 152.68 160.99 151.95 160.95 151.09 C 160.91 150.23 160.18 149.56 159.31 149.61 Z M 158.33 149.65 L 157.34 149.69 C 156.48 149.72 155.80 150.44 155.83 151.30 C 155.86 152.17 156.59 152.84 157.45 152.81 L 158.44 152.77 C 159.31 152.74 159.98 152.02 159.95 151.16 C 159.92 150.30 159.19 149.62 158.33 149.65 Z M 157.35 149.69 L 156.36 149.71 C 155.50 149.73 154.82 150.45 154.84 151.31 C 154.86 152.17 155.58 152.85 156.44 152.83 L 157.43 152.81 C 158.29 152.79 158.98 152.07 158.95 151.21 C 158.93 150.35 158.22 149.67 157.35 149.69 Z M 156.37 149.71 L 155.36 149.73 C 154.50 149.74 153.81 150.45 153.83 151.31 C 153.84 152.18 154.55 152.86 155.41 152.85 L 156.42 152.83 C 157.29 152.82 157.97 152.11 157.96 151.25 C 157.95 150.39 157.24 149.70 156.37 149.71 Z M 155.37 149.73 L 154.35 149.74 C 153.49 149.74 152.80 150.45 152.80 151.31 C 152.81 152.17 153.51 152.86 154.38 152.86 L 155.40 152.85 C 156.26 152.84 156.95 152.14 156.95 151.28 C 156.94 150.42 156.24 149.72 155.37 149.73 Z M 154.37 149.74 L 153.36 149.73 C 152.50 149.73 151.80 150.43 151.80 151.29 C 151.80 152.16 152.49 152.86 153.36 152.86 L 154.36 152.86 C 155.22 152.86 155.92 152.16 155.92 151.30 C 155.93 150.44 155.23 149.74 154.37 149.74 Z M 153.37 149.73 L 152.40 149.73 C 151.53 149.72 150.83 150.41 150.82 151.27 C 150.81 152.13 151.50 152.84 152.37 152.85 L 153.34 152.86 C 154.20 152.86 154.91 152.17 154.92 151.31 C 154.93 150.45 154.23 149.74 153.37 149.73 Z M 152.42 149.73 L 151.36 149.70 C 150.50 149.68 149.79 150.36 149.77 151.23 C 149.75 152.09 150.43 152.80 151.29 152.82 L 152.35 152.85 C 153.21 152.87 153.92 152.18 153.94 151.32 C 153.96 150.46 153.28 149.75 152.42 149.73 Z M 151.45 149.71 L 150.41 149.62 C 149.56 149.56 148.80 150.20 148.74 151.06 C 148.67 151.92 149.31 152.67 150.17 152.74 L 151.21 152.82 C 152.07 152.89 152.82 152.24 152.88 151.38 C 152.95 150.53 152.31 149.77 151.45 149.71 Z M 150.63 149.66 L 149.71 149.45 C 148.87 149.26 148.03 149.79 147.84 150.63 C 147.66 151.48 148.19 152.31 149.03 152.50 L 149.95 152.70 C 150.79 152.89 151.63 152.36 151.82 151.52 C 152.00 150.68 151.47 149.84 150.63 149.66 Z M 150.11 149.59 L 149.19 149.09 C 148.42 148.68 147.47 148.96 147.06 149.73 C 146.64 150.49 146.93 151.44 147.69 151.85 L 148.62 152.36 C 149.38 152.77 150.34 152.48 150.75 151.72 C 151.16 150.96 150.88 150.00 150.11 149.59 Z M 149.65 149.41 L 148.90 148.56 C 148.32 147.90 147.30 147.83 146.63 148.42 C 145.97 149.00 145.90 150.02 146.49 150.69 L 147.23 151.53 C 147.82 152.20 148.83 152.27 149.50 151.68 C 150.17 151.09 150.23 150.08 149.65 149.41 Z M 149.35 149.77 L 149.39 149.34 C 149.47 148.43 148.79 147.62 147.88 147.54 C 146.97 147.46 146.16 148.13 146.08 149.04 L 146.04 149.47 C 145.96 150.39 146.63 151.19 147.54 151.28 C 148.46 151.36 149.26 150.69 149.35 149.77 Z M 147.11 150.77 L 147.87 151.07 C 148.74 151.42 149.73 150.99 150.07 150.12 C 150.42 149.24 149.99 148.26 149.12 147.91 L 148.36 147.61 C 147.48 147.27 146.50 147.69 146.15 148.57 C 145.81 149.44 146.24 150.43 147.11 150.77 Z M 147.40 150.83 L 148.39 151.64 C 149.14 152.24 150.23 152.12 150.83 151.38 C 151.43 150.64 151.31 149.55 150.57 148.95 L 149.58 148.15 C 148.84 147.55 147.75 147.66 147.15 148.40 C 146.55 149.14 146.66 150.23 147.40 150.83 Z M 148.11 151.38 L 148.70 152.12 C 149.30 152.88 150.40 153.01 151.15 152.41 C 151.91 151.81 152.04 150.71 151.44 149.96 L 150.85 149.21 C 150.26 148.45 149.16 148.32 148.40 148.92 C 147.64 149.52 147.51 150.62 148.11 151.38 Z M 148.54 151.89 L 149.01 152.74 C 149.48 153.59 150.55 153.89 151.39 153.42 C 152.24 152.95 152.54 151.89 152.08 151.04 L 151.60 150.19 C 151.13 149.34 150.07 149.04 149.22 149.51 C 148.38 149.98 148.07 151.04 148.54 151.89 Z M 148.93 152.57 L 149.33 153.54 C 149.71 154.43 150.74 154.85 151.63 154.47 C 152.52 154.10 152.94 153.07 152.57 152.18 L 152.16 151.21 C 151.78 150.32 150.76 149.90 149.86 150.27 C 148.97 150.65 148.55 151.68 148.93 152.57 Z M 149.30 153.44 L 149.62 154.35 C 149.94 155.26 150.95 155.74 151.86 155.42 C 152.77 155.09 153.25 154.09 152.93 153.17 L 152.60 152.27 C 152.28 151.35 151.28 150.88 150.36 151.20 C 149.45 151.53 148.97 152.53 149.30 153.44 Z M 149.60 154.30 L 149.88 155.18 C 150.18 156.11 151.16 156.62 152.09 156.32 C 153.01 156.03 153.53 155.04 153.23 154.12 L 152.95 153.23 C 152.65 152.30 151.66 151.79 150.74 152.09 C 149.81 152.38 149.30 153.37 149.60 154.30 Z M 149.86 155.14 L 150.14 156.09 C 150.41 157.03 151.39 157.57 152.32 157.30 C 153.25 157.03 153.79 156.05 153.52 155.12 L 153.25 154.16 C 152.98 153.23 152.00 152.69 151.07 152.96 C 150.13 153.23 149.60 154.20 149.86 155.14 Z M 150.13 156.05 L 150.40 157.08 C 150.64 158.02 151.60 158.59 152.55 158.34 C 153.49 158.09 154.05 157.13 153.81 156.19 L 153.54 155.16 C 153.29 154.22 152.33 153.66 151.39 153.90 C 150.44 154.15 149.88 155.11 150.13 156.05 Z M 150.38 157.04 L 150.63 158.10 C 150.86 159.05 151.81 159.63 152.76 159.41 C 153.71 159.18 154.29 158.23 154.07 157.28 L 153.82 156.23 C 153.59 155.28 152.64 154.69 151.69 154.92 C 150.74 155.14 150.16 156.10 150.38 157.04 Z M 150.63 158.07 L 150.84 159.07 C 151.05 160.02 151.99 160.62 152.95 160.41 C 153.90 160.21 154.50 159.26 154.29 158.31 L 154.08 157.31 C 153.87 156.36 152.93 155.76 151.97 155.97 C 151.02 156.17 150.42 157.11 150.63 158.07 Z M 150.84 159.04 L 151.05 160.06 C 151.24 161.02 152.17 161.63 153.13 161.44 C 154.09 161.24 154.70 160.31 154.51 159.35 L 154.30 158.34 C 154.10 157.38 153.17 156.76 152.22 156.96 C 151.26 157.15 150.64 158.09 150.84 159.04 Z M 151.04 160.04 L 151.23 161.04 C 151.42 162.00 152.34 162.63 153.30 162.45 C 154.26 162.26 154.89 161.34 154.70 160.38 L 154.51 159.37 C 154.33 158.42 153.40 157.79 152.44 157.97 C 151.49 158.16 150.86 159.08 151.04 160.04 Z M 151.23 161.02 L 151.40 161.99 C 151.58 162.95 152.50 163.59 153.46 163.41 C 154.42 163.24 155.06 162.32 154.88 161.36 L 154.71 160.40 C 154.54 159.44 153.62 158.80 152.66 158.97 C 151.70 159.15 151.06 160.06 151.23 161.02 Z M 151.40 161.97 L 151.56 162.94 C 151.73 163.91 152.64 164.55 153.60 164.39 C 154.56 164.23 155.21 163.32 155.05 162.35 L 154.89 161.38 C 154.72 160.42 153.81 159.77 152.85 159.93 C 151.89 160.09 151.24 161.00 151.40 161.97 Z M 151.56 162.92 L 151.72 163.98 C 151.87 164.95 152.77 165.61 153.74 165.46 C 154.70 165.31 155.37 164.41 155.22 163.44 L 155.06 162.38 C 154.91 161.42 154.00 160.75 153.04 160.90 C 152.07 161.05 151.41 161.95 151.56 162.92 Z M 151.72 163.95 L 151.85 164.92 C 151.98 165.88 152.88 166.56 153.84 166.43 C 154.81 166.30 155.49 165.41 155.35 164.44 L 155.22 163.47 C 155.09 162.51 154.20 161.83 153.23 161.96 C 152.26 162.09 151.59 162.99 151.72 163.95 Z M 151.85 164.89 L 151.96 165.82 C 152.08 166.78 152.96 167.47 153.93 167.35 C 154.90 167.23 155.59 166.35 155.47 165.38 L 155.36 164.46 C 155.24 163.49 154.36 162.80 153.39 162.92 C 152.42 163.04 151.73 163.92 151.85 164.89 Z M 151.96 165.80 L 152.07 166.75 C 152.18 167.72 153.06 168.42 154.03 168.30 C 155.00 168.19 155.69 167.32 155.58 166.35 L 155.47 165.40 C 155.36 164.43 154.48 163.73 153.51 163.84 C 152.55 163.96 151.85 164.83 151.96 165.80 Z M 152.07 166.74 L 152.18 167.74 C 152.29 168.70 153.16 169.40 154.13 169.30 C 155.10 169.19 155.80 168.31 155.69 167.34 L 155.58 166.35 C 155.47 165.38 154.60 164.69 153.63 164.79 C 152.66 164.90 151.96 165.78 152.07 166.74 Z M 152.18 167.73 L 152.29 168.74 C 152.40 169.71 153.27 170.41 154.24 170.30 C 155.21 170.19 155.91 169.32 155.80 168.35 L 155.69 167.35 C 155.58 166.38 154.71 165.68 153.74 165.79 C 152.77 165.89 152.07 166.76 152.18 167.73 Z M 152.29 168.74 L 152.40 169.74 C 152.51 170.71 153.38 171.41 154.35 171.30 C 155.32 171.19 156.02 170.32 155.91 169.35 L 155.80 168.35 C 155.69 167.38 154.82 166.68 153.85 166.79 C 152.88 166.90 152.19 167.77 152.29 168.74 Z M 152.41 169.74 L 152.52 170.76 C 152.63 171.72 153.50 172.42 154.47 172.31 C 155.43 172.20 156.13 171.33 156.02 170.37 L 155.91 169.35 C 155.80 168.38 154.93 167.69 153.96 167.79 C 152.99 167.90 152.30 168.77 152.41 169.74 Z M 152.52 170.75 L 152.63 171.75 C 152.74 172.72 153.61 173.41 154.57 173.31 C 155.54 173.20 156.24 172.33 156.13 171.36 L 156.02 170.37 C 155.91 169.40 155.04 168.71 154.08 168.81 C 153.11 168.92 152.42 169.79 152.52 170.75 Z M 152.63 171.74 L 152.74 172.73 C 152.84 173.69 153.71 174.39 154.67 174.29 C 155.63 174.18 156.33 173.32 156.23 172.35 L 156.13 171.37 C 156.02 170.41 155.16 169.71 154.20 169.81 C 153.23 169.91 152.53 170.78 152.63 171.74 Z M 152.74 172.71 L 152.84 173.70 C 152.93 174.67 153.79 175.37 154.75 175.28 C 155.72 175.18 156.42 174.32 156.33 173.36 L 156.23 172.37 C 156.13 171.41 155.28 170.70 154.31 170.80 C 153.35 170.89 152.65 171.75 152.74 172.71 Z M 152.84 173.68 L 152.93 174.69 C 153.01 175.65 153.86 176.36 154.82 176.28 C 155.78 176.19 156.50 175.35 156.41 174.38 L 156.32 173.38 C 156.24 172.42 155.39 171.71 154.43 171.79 C 153.47 171.87 152.76 172.72 152.84 173.68 Z M 152.93 174.67 L 153.01 175.66 C 153.08 176.62 153.92 177.34 154.88 177.27 C 155.84 177.20 156.56 176.36 156.49 175.40 L 156.41 174.40 C 156.34 173.44 155.50 172.72 154.54 172.80 C 153.58 172.87 152.86 173.71 152.93 174.67 Z M 153.01 175.64 L 153.07 176.63 C 153.14 177.59 153.96 178.32 154.92 178.25 C 155.88 178.19 156.61 177.36 156.55 176.40 L 156.48 175.42 C 156.42 174.46 155.59 173.73 154.63 173.79 C 153.67 173.86 152.95 174.68 153.01 175.64 Z M 153.08 176.61 L 153.13 177.62 C 153.19 178.58 154.00 179.31 154.96 179.26 C 155.92 179.21 156.65 178.39 156.60 177.43 L 156.54 176.42 C 156.49 175.46 155.67 174.73 154.71 174.78 C 153.76 174.84 153.02 175.66 153.08 176.61 Z M 153.14 177.62 L 153.19 178.62 C 153.24 179.57 154.05 180.30 155.01 180.25 C 155.96 180.20 156.70 179.39 156.65 178.44 L 156.59 177.44 C 156.54 176.48 155.73 175.75 154.78 175.80 C 153.82 175.85 153.09 176.66 153.14 177.62 Z M 153.20 178.63 L 153.25 179.61 C 153.31 180.56 154.12 181.29 155.07 181.23 C 156.03 181.18 156.75 180.36 156.70 179.41 L 156.64 178.43 C 156.59 177.48 155.77 176.75 154.82 176.80 C 153.87 176.86 153.14 177.67 153.20 178.63 Z M 153.26 179.63 L 153.31 180.44 C 153.38 181.39 154.20 182.10 155.15 182.04 C 156.10 181.97 156.81 181.15 156.75 180.21 L 156.69 179.39 C 156.63 178.45 155.81 177.73 154.86 177.79 C 153.91 177.86 153.19 178.68 153.26 179.63 Z M 153.32 180.45 L 153.38 181.33 C 153.45 182.27 154.27 182.98 155.22 182.92 C 156.16 182.85 156.87 182.03 156.81 181.08 L 156.74 180.20 C 156.67 179.25 155.85 178.54 154.91 178.61 C 153.96 178.68 153.25 179.50 153.32 180.45 Z M 153.39 181.32 L 153.46 182.37 C 153.53 183.31 154.34 184.02 155.29 183.95 C 156.23 183.89 156.94 183.07 156.87 182.13 L 156.80 181.09 C 156.74 180.14 155.92 179.43 154.98 179.50 C 154.03 179.56 153.32 180.38 153.39 181.32 Z M 153.46 182.35 L 153.54 183.60 C 153.60 184.54 154.41 185.25 155.35 185.19 C 156.29 185.13 157.01 184.32 156.95 183.38 L 156.87 182.14 C 156.81 181.20 156.00 180.48 155.06 180.54 C 154.12 180.60 153.40 181.41 153.46 182.35 Z M 153.55 183.59 L 153.60 184.51 C 153.65 185.45 154.46 186.17 155.40 186.11 C 156.34 186.06 157.05 185.25 157.00 184.31 L 156.95 183.39 C 156.89 182.45 156.09 181.74 155.15 181.79 C 154.21 181.85 153.49 182.65 153.55 183.59 Z M 153.60 184.51 L 153.66 185.51 C 153.71 186.45 154.51 187.16 155.45 187.11 C 156.39 187.06 157.10 186.26 157.05 185.32 L 157.00 184.32 C 156.94 183.38 156.14 182.66 155.21 182.72 C 154.27 182.77 153.55 183.57 153.60 184.51 Z M 153.66 185.51 L 153.72 186.55 C 153.77 187.49 154.57 188.21 155.50 188.16 C 156.44 188.11 157.16 187.31 157.11 186.37 L 157.05 185.32 C 157.00 184.39 156.20 183.67 155.26 183.72 C 154.33 183.77 153.61 184.57 153.66 185.51 Z M 153.72 186.55 L 153.78 187.61 C 153.83 188.55 154.63 189.26 155.56 189.21 C 156.49 189.16 157.21 188.36 157.16 187.43 L 157.10 186.37 C 157.05 185.44 156.25 184.72 155.32 184.77 C 154.39 184.82 153.67 185.62 153.72 186.55 Z M 153.78 187.61 L 153.84 188.64 C 153.89 189.58 154.68 190.29 155.62 190.24 C 156.55 190.19 157.26 189.39 157.21 188.46 L 157.16 187.43 C 157.11 186.50 156.31 185.78 155.38 185.83 C 154.44 185.88 153.73 186.68 153.78 187.61 Z M 153.84 188.65 L 153.89 189.61 C 153.95 190.55 154.74 191.26 155.67 191.21 C 156.60 191.15 157.32 190.36 157.26 189.43 L 157.21 188.46 C 157.16 187.53 156.36 186.82 155.43 186.87 C 154.50 186.92 153.79 187.72 153.84 188.65 Z M 153.90 189.62 L 153.97 190.77 C 154.02 191.69 154.82 192.40 155.75 192.34 C 156.67 192.29 157.38 191.49 157.32 190.57 L 157.26 189.42 C 157.20 188.50 156.41 187.79 155.48 187.84 C 154.55 187.90 153.85 188.69 153.90 189.62 Z M 153.98 190.77 L 154.05 191.86 C 154.11 192.78 154.90 193.48 155.82 193.43 C 156.74 193.37 157.44 192.58 157.38 191.66 L 157.31 190.56 C 157.25 189.64 156.46 188.95 155.54 189.00 C 154.62 189.06 153.92 189.85 153.98 190.77 Z M 154.06 191.86 L 154.12 192.81 C 154.18 193.72 154.96 194.42 155.87 194.36 C 156.78 194.30 157.48 193.52 157.42 192.61 L 157.37 191.66 C 157.31 190.75 156.53 190.06 155.61 190.11 C 154.70 190.17 154.01 190.95 154.06 191.86 Z M 154.14 192.80 L 154.18 193.66 C 154.23 194.57 155.00 195.26 155.91 195.21 C 156.81 195.16 157.50 194.39 157.46 193.49 L 157.41 192.62 C 157.36 191.72 156.59 191.03 155.69 191.07 C 154.78 191.12 154.09 191.89 154.14 192.80 Z M 154.19 193.63 L 154.23 194.69 C 154.26 195.59 155.01 196.29 155.91 196.26 C 156.81 196.23 157.51 195.48 157.48 194.58 L 157.44 193.52 C 157.41 192.62 156.66 191.92 155.76 191.95 C 154.87 191.98 154.16 192.73 154.19 193.63 Z M 154.25 194.55 L 154.19 195.71 C 154.14 196.60 154.82 197.35 155.71 197.40 C 156.60 197.45 157.35 196.77 157.40 195.88 L 157.46 194.72 C 157.51 193.83 156.83 193.08 155.94 193.03 C 155.05 192.98 154.29 193.66 154.25 194.55 Z M 154.54 194.80 L 154.21 195.22 C 153.66 195.91 153.77 196.91 154.46 197.46 C 155.15 198.01 156.16 197.90 156.71 197.21 L 157.04 196.79 C 157.59 196.10 157.48 195.09 156.79 194.54 C 156.10 193.99 155.09 194.11 154.54 194.80 Z M 156.46 194.98 L 156.05 194.65 C 155.37 194.10 154.37 194.20 153.82 194.88 C 153.27 195.56 153.37 196.56 154.05 197.11 L 154.46 197.44 C 155.14 198.00 156.14 197.89 156.69 197.21 C 157.24 196.53 157.14 195.53 156.46 194.98 Z M 156.32 194.94 L 155.85 194.31 C 155.34 193.61 154.35 193.46 153.64 193.97 C 152.94 194.49 152.79 195.48 153.31 196.18 L 153.78 196.82 C 154.30 197.52 155.29 197.67 155.99 197.15 C 156.69 196.64 156.84 195.65 156.32 194.94 Z M 155.92 194.41 L 155.37 193.53 C 154.90 192.79 153.93 192.57 153.20 193.03 C 152.46 193.49 152.23 194.46 152.70 195.20 L 153.25 196.08 C 153.71 196.82 154.68 197.04 155.42 196.58 C 156.16 196.12 156.38 195.15 155.92 194.41 Z M 155.39 193.58 L 154.78 192.53 C 154.35 191.78 153.39 191.53 152.64 191.96 C 151.89 192.40 151.63 193.36 152.07 194.11 L 152.67 195.15 C 153.11 195.90 154.07 196.16 154.82 195.72 C 155.57 195.29 155.82 194.33 155.39 193.58 Z M 154.79 192.55 L 154.15 191.42 C 153.73 190.67 152.77 190.40 152.02 190.82 C 151.27 191.24 151.00 192.20 151.42 192.95 L 152.06 194.09 C 152.48 194.84 153.44 195.11 154.19 194.68 C 154.94 194.26 155.21 193.31 154.79 192.55 Z M 154.15 191.42 L 154.06 191.27 C 153.64 190.52 152.69 190.25 151.94 190.67 C 151.19 191.09 150.92 192.04 151.34 192.79 L 151.42 192.95 C 151.84 193.70 152.79 193.97 153.55 193.55 C 154.30 193.13 154.57 192.18 154.15 191.42 Z"
      fill="black"
      fill-rule="nonzero" /><path d="M 150.22 159.84 L 149.17 159.73 C 148.24 159.64 147.41 160.31 147.32 161.24 C 147.22 162.16 147.89 162.99 148.82 163.09 L 149.88 163.19 C 150.80 163.29 151.63 162.62 151.73 161.69 C 151.82 160.76 151.15 159.94 150.22 159.84 Z M 149.03 159.68 L 148.02 159.65 C 147.06 159.63 146.27 160.39 146.25 161.35 C 146.23 162.30 146.98 163.10 147.94 163.12 L 148.95 163.14 C 149.91 163.16 150.70 162.41 150.73 161.45 C 150.75 160.49 149.99 159.70 149.03 159.68 Z M 147.70 159.63 L 146.77 159.77 C 145.80 159.93 145.14 160.84 145.29 161.81 C 145.45 162.78 146.36 163.45 147.33 163.29 L 148.26 163.15 C 149.23 162.99 149.89 162.08 149.74 161.11 C 149.59 160.14 148.67 159.47 147.70 159.63 Z M 146.28 159.90 L 145.55 160.24 C 144.64 160.67 144.25 161.75 144.68 162.65 C 145.11 163.56 146.18 163.94 147.09 163.52 L 147.83 163.17 C 148.73 162.74 149.12 161.67 148.69 160.76 C 148.26 159.86 147.19 159.47 146.28 159.90 Z M 145.16 160.49 L 144.49 161.04 C 143.72 161.68 143.62 162.82 144.26 163.59 C 144.90 164.36 146.05 164.47 146.82 163.83 L 147.48 163.28 C 148.25 162.63 148.35 161.49 147.71 160.72 C 147.07 159.95 145.93 159.84 145.16 160.49 Z M 144.31 161.22 L 143.62 161.98 C 142.95 162.73 143.00 163.87 143.75 164.54 C 144.49 165.22 145.64 165.16 146.31 164.41 L 147.00 163.65 C 147.67 162.90 147.61 161.76 146.87 161.09 C 146.13 160.41 144.98 160.47 144.31 161.22 Z M 143.56 162.05 L 142.77 163.02 C 142.14 163.80 142.26 164.94 143.03 165.57 C 143.81 166.20 144.95 166.09 145.58 165.31 L 146.37 164.34 C 147.00 163.56 146.88 162.42 146.11 161.79 C 145.33 161.16 144.19 161.28 143.56 162.05 Z M 142.76 163.03 L 142.27 163.65 C 141.64 164.43 141.76 165.57 142.54 166.20 C 143.32 166.83 144.46 166.70 145.09 165.92 L 145.59 165.30 C 146.22 164.52 146.09 163.38 145.31 162.75 C 144.53 162.13 143.39 162.25 142.76 163.03 Z M 142.27 163.65 L 141.72 164.33 C 141.09 165.11 141.22 166.25 142.00 166.88 C 142.78 167.51 143.91 167.38 144.54 166.60 L 145.09 165.92 C 145.71 165.14 145.59 164.00 144.81 163.38 C 144.03 162.75 142.89 162.87 142.27 163.65 Z M 141.72 164.34 L 141.13 165.08 C 140.50 165.86 140.63 166.99 141.41 167.62 C 142.19 168.24 143.32 168.12 143.95 167.34 L 144.54 166.60 C 145.17 165.82 145.04 164.68 144.26 164.06 C 143.48 163.43 142.34 163.56 141.72 164.34 Z M 141.12 165.08 L 140.49 165.87 C 139.87 166.65 140.00 167.79 140.78 168.41 C 141.56 169.04 142.69 168.91 143.32 168.13 L 143.95 167.34 C 144.57 166.55 144.45 165.42 143.66 164.79 C 142.88 164.17 141.75 164.30 141.12 165.08 Z M 140.49 165.88 L 139.82 166.72 C 139.20 167.50 139.33 168.64 140.11 169.26 C 140.89 169.88 142.03 169.75 142.65 168.97 L 143.32 168.12 C 143.94 167.34 143.81 166.21 143.03 165.59 C 142.25 164.97 141.11 165.10 140.49 165.88 Z M 139.82 166.73 L 139.11 167.62 C 138.50 168.41 138.63 169.54 139.42 170.16 C 140.20 170.77 141.33 170.64 141.95 169.85 L 142.65 168.96 C 143.27 168.18 143.13 167.04 142.35 166.43 C 141.57 165.81 140.43 165.95 139.82 166.73 Z M 139.11 167.63 L 138.39 168.55 C 137.78 169.33 137.92 170.47 138.71 171.08 C 139.49 171.69 140.62 171.55 141.24 170.77 L 141.95 169.85 C 142.57 169.06 142.43 167.93 141.64 167.32 C 140.86 166.70 139.72 166.84 139.11 167.63 Z M 138.39 168.56 L 137.74 169.39 C 137.14 170.18 137.28 171.31 138.07 171.92 C 138.85 172.52 139.99 172.38 140.59 171.59 L 141.24 170.76 C 141.85 169.97 141.70 168.84 140.92 168.23 C 140.13 167.62 139.00 167.77 138.39 168.56 Z M 137.74 169.40 L 137.09 170.25 C 136.49 171.03 136.63 172.16 137.42 172.77 C 138.21 173.37 139.34 173.22 139.94 172.44 L 140.59 171.59 C 141.20 170.80 141.05 169.67 140.26 169.07 C 139.48 168.46 138.35 168.61 137.74 169.40 Z M 137.09 170.25 L 136.44 171.10 C 135.84 171.89 135.99 173.02 136.78 173.62 C 137.56 174.22 138.69 174.07 139.29 173.28 L 139.94 172.43 C 140.54 171.64 140.39 170.52 139.61 169.92 C 138.82 169.31 137.69 169.46 137.09 170.25 Z M 136.44 171.11 L 135.80 171.95 C 135.20 172.74 135.36 173.86 136.14 174.46 C 136.93 175.06 138.05 174.90 138.65 174.12 L 139.29 173.28 C 139.89 172.49 139.74 171.37 138.95 170.77 C 138.16 170.17 137.04 170.32 136.44 171.11 Z M 135.80 171.95 L 135.19 172.77 C 134.59 173.55 134.75 174.67 135.53 175.27 C 136.32 175.87 137.44 175.71 138.04 174.92 L 138.65 174.11 C 139.25 173.32 139.09 172.20 138.31 171.61 C 137.52 171.01 136.40 171.17 135.80 171.95 Z M 135.19 172.77 L 134.60 173.55 C 134.01 174.33 134.17 175.45 134.95 176.05 C 135.74 176.64 136.86 176.48 137.45 175.70 L 138.03 174.92 C 138.63 174.13 138.47 173.02 137.69 172.42 C 136.90 171.83 135.78 171.99 135.19 172.77 Z M 134.60 173.55 L 134.06 174.27 C 133.47 175.06 133.63 176.18 134.41 176.77 C 135.20 177.36 136.31 177.20 136.90 176.41 L 137.45 175.69 C 138.04 174.91 137.88 173.79 137.10 173.20 C 136.31 172.61 135.19 172.77 134.60 173.55 Z M 134.06 174.28 L 133.52 175.00 C 132.94 175.78 133.09 176.89 133.88 177.48 C 134.66 178.07 135.78 177.91 136.36 177.13 L 136.90 176.41 C 137.49 175.63 137.33 174.51 136.55 173.92 C 135.76 173.34 134.65 173.49 134.06 174.28 Z M 133.53 175.00 L 132.75 176.04 C 132.17 176.82 132.33 177.93 133.11 178.51 C 133.89 179.10 135.00 178.94 135.58 178.16 L 136.36 177.12 C 136.94 176.34 136.78 175.23 136.00 174.65 C 135.22 174.06 134.12 174.22 133.53 175.00 Z M 132.77 176.05 L 132.15 176.88 C 131.57 177.65 131.72 178.75 132.50 179.33 C 133.27 179.91 134.36 179.75 134.94 178.98 L 135.56 178.15 C 136.14 177.38 135.99 176.28 135.21 175.70 C 134.44 175.12 133.35 175.28 132.77 176.05 Z M 132.17 176.89 L 131.64 177.57 C 131.07 178.33 131.22 179.42 131.98 180.00 C 132.74 180.57 133.82 180.42 134.40 179.66 L 134.92 178.97 C 135.50 178.21 135.35 177.13 134.59 176.55 C 133.83 175.97 132.74 176.12 132.17 176.89 Z M 131.67 177.57 L 131.19 178.18 C 130.62 178.93 130.75 180.01 131.50 180.58 C 132.25 181.16 133.32 181.03 133.90 180.28 L 134.38 179.67 C 134.96 178.92 134.82 177.84 134.07 177.26 C 133.32 176.69 132.25 176.82 131.67 177.57 Z M 131.22 178.17 L 130.61 178.93 C 130.03 179.66 130.15 180.73 130.88 181.32 C 131.61 181.90 132.68 181.78 133.27 181.05 L 133.87 180.29 C 134.46 179.56 134.34 178.49 133.61 177.90 C 132.88 177.32 131.81 177.44 131.22 178.17 Z M 130.63 178.92 L 130.00 179.70 C 129.41 180.43 129.52 181.49 130.24 182.08 C 130.96 182.67 132.03 182.56 132.62 181.84 L 133.25 181.06 C 133.84 180.33 133.73 179.27 133.01 178.68 C 132.28 178.09 131.22 178.20 130.63 178.92 Z M 130.00 179.71 L 129.37 180.49 C 128.79 181.21 128.90 182.27 129.62 182.86 C 130.34 183.44 131.40 183.33 131.99 182.60 L 132.62 181.83 C 133.20 181.10 133.09 180.04 132.36 179.46 C 131.64 178.88 130.58 178.99 130.00 179.71 Z M 129.36 180.51 L 128.74 181.30 C 128.17 182.03 128.30 183.09 129.02 183.66 C 129.75 184.23 130.80 184.10 131.37 183.37 L 132.00 182.58 C 132.57 181.85 132.44 180.80 131.71 180.23 C 130.98 179.66 129.93 179.79 129.36 180.51 Z M 128.73 181.33 L 128.12 182.13 C 127.57 182.86 127.71 183.91 128.44 184.47 C 129.18 185.02 130.22 184.88 130.78 184.14 L 131.39 183.35 C 131.94 182.61 131.80 181.57 131.06 181.01 C 130.33 180.45 129.28 180.60 128.73 181.33 Z M 128.12 182.15 L 127.53 182.95 C 126.98 183.68 127.13 184.72 127.87 185.27 C 128.61 185.82 129.65 185.66 130.19 184.92 L 130.78 184.13 C 131.33 183.39 131.18 182.35 130.44 181.80 C 129.70 181.26 128.66 181.41 128.12 182.15 Z M 127.53 182.95 L 126.97 183.71 C 126.43 184.45 126.59 185.48 127.32 186.02 C 128.06 186.56 129.09 186.41 129.63 185.67 L 130.19 184.92 C 130.73 184.18 130.58 183.15 129.84 182.60 C 129.10 182.06 128.07 182.22 127.53 182.95 Z M 126.98 183.71 L 126.43 184.45 C 125.89 185.18 126.05 186.21 126.78 186.75 C 127.52 187.29 128.55 187.14 129.09 186.40 L 129.63 185.67 C 130.17 184.94 130.01 183.90 129.28 183.36 C 128.55 182.82 127.51 182.98 126.98 183.71 Z M 126.44 184.45 L 125.85 185.26 C 125.31 185.99 125.46 187.01 126.20 187.55 C 126.93 188.09 127.95 187.93 128.49 187.20 L 129.08 186.40 C 129.62 185.67 129.46 184.64 128.73 184.10 C 128.00 183.57 126.98 183.72 126.44 184.45 Z M 125.85 185.26 L 125.18 186.18 C 124.64 186.90 124.80 187.93 125.53 188.46 C 126.25 189.00 127.28 188.84 127.81 188.11 L 128.49 187.20 C 129.02 186.47 128.87 185.45 128.14 184.91 C 127.41 184.38 126.39 184.53 125.85 185.26 Z M 125.18 186.18 L 124.63 186.93 C 124.10 187.66 124.25 188.68 124.98 189.21 C 125.70 189.74 126.72 189.59 127.26 188.86 L 127.81 188.11 C 128.34 187.39 128.19 186.37 127.46 185.83 C 126.74 185.30 125.72 185.45 125.18 186.18 Z M 124.63 186.93 L 124.05 187.73 C 123.52 188.45 123.67 189.47 124.39 190.00 C 125.12 190.53 126.13 190.38 126.66 189.66 L 127.25 188.86 C 127.78 188.14 127.63 187.12 126.91 186.59 C 126.18 186.06 125.17 186.21 124.63 186.93 Z M 124.05 187.73 L 123.44 188.56 C 122.91 189.28 123.06 190.29 123.78 190.82 C 124.50 191.35 125.52 191.20 126.05 190.48 L 126.66 189.65 C 127.19 188.93 127.04 187.92 126.32 187.39 C 125.60 186.86 124.59 187.01 124.05 187.73 Z M 123.45 188.56 L 122.83 189.39 C 122.30 190.11 122.45 191.12 123.16 191.65 C 123.88 192.18 124.89 192.03 125.42 191.32 L 126.04 190.48 C 126.57 189.77 126.42 188.76 125.71 188.22 C 124.99 187.69 123.98 187.84 123.45 188.56 Z M 122.84 189.39 L 122.23 190.21 C 121.70 190.92 121.84 191.93 122.55 192.46 C 123.27 192.99 124.27 192.84 124.80 192.13 L 125.41 191.32 C 125.94 190.61 125.80 189.60 125.09 189.07 C 124.38 188.54 123.37 188.68 122.84 189.39 Z M 122.24 190.21 L 121.60 191.06 C 121.07 191.76 121.21 192.77 121.91 193.30 C 122.62 193.83 123.62 193.69 124.15 192.98 L 124.79 192.13 C 125.33 191.43 125.18 190.43 124.48 189.89 C 123.77 189.36 122.77 189.50 122.24 190.21 Z M 121.61 191.06 L 120.99 191.87 C 120.46 192.57 120.60 193.57 121.30 194.10 C 122.00 194.63 123.00 194.49 123.53 193.79 L 124.14 192.98 C 124.68 192.28 124.54 191.28 123.84 190.75 C 123.14 190.22 122.14 190.36 121.61 191.06 Z M 121.00 191.87 L 120.40 192.65 C 119.87 193.35 120.01 194.34 120.70 194.87 C 121.40 195.40 122.39 195.27 122.92 194.57 L 123.52 193.79 C 124.05 193.10 123.92 192.10 123.22 191.57 C 122.53 191.04 121.53 191.17 121.00 191.87 Z M 120.41 192.65 L 119.83 193.42 C 119.30 194.11 119.43 195.10 120.12 195.63 C 120.81 196.16 121.80 196.03 122.33 195.34 L 122.91 194.57 C 123.44 193.88 123.31 192.89 122.62 192.36 C 121.93 191.83 120.94 191.96 120.41 192.65 Z M 119.83 193.42 L 119.49 193.86 C 118.97 194.55 119.09 195.53 119.78 196.06 C 120.47 196.59 121.46 196.46 121.98 195.77 L 122.32 195.33 C 122.85 194.65 122.72 193.66 122.03 193.13 C 121.35 192.60 120.36 192.73 119.83 193.42 Z"
      fill="black"
      fill-rule="nonzero" /><path d="M 148.05 164.55 L 149.10 164.55 C 150.04 164.55 150.81 163.79 150.81 162.85 C 150.82 161.91 150.06 161.15 149.11 161.14 L 148.06 161.14 C 147.12 161.14 146.36 161.90 146.36 162.84 C 146.35 163.78 147.11 164.54 148.05 164.55 Z M 149.07 164.57 L 150.11 164.59 C 151.06 164.61 151.84 163.86 151.86 162.91 C 151.89 161.96 151.13 161.18 150.19 161.15 L 149.15 161.13 C 148.20 161.11 147.41 161.86 147.39 162.81 C 147.37 163.76 148.12 164.54 149.07 164.57 Z M 150.03 164.60 L 151.04 164.67 C 152.00 164.73 152.83 164.00 152.89 163.05 C 152.95 162.09 152.22 161.27 151.27 161.21 L 150.26 161.14 C 149.30 161.08 148.48 161.80 148.41 162.76 C 148.35 163.72 149.08 164.54 150.03 164.60 Z M 150.93 164.67 L 151.90 164.80 C 152.86 164.93 153.74 164.25 153.86 163.29 C 153.99 162.33 153.31 161.45 152.35 161.33 L 151.38 161.20 C 150.42 161.08 149.55 161.75 149.42 162.71 C 149.29 163.67 149.97 164.55 150.93 164.67 Z M 151.73 164.79 L 152.65 165.00 C 153.60 165.21 154.55 164.62 154.76 163.67 C 154.98 162.72 154.39 161.77 153.44 161.55 L 152.52 161.34 C 151.57 161.12 150.62 161.72 150.40 162.67 C 150.19 163.62 150.78 164.57 151.73 164.79 Z M 152.42 164.95 L 153.35 165.29 C 154.27 165.63 155.30 165.16 155.64 164.24 C 155.99 163.32 155.52 162.29 154.59 161.95 L 153.66 161.60 C 152.74 161.26 151.71 161.73 151.37 162.65 C 151.03 163.58 151.50 164.60 152.42 164.95 Z M 153.13 165.21 L 154.01 165.68 C 154.89 166.15 155.98 165.82 156.45 164.94 C 156.92 164.06 156.58 162.97 155.71 162.50 L 154.82 162.03 C 153.94 161.56 152.85 161.89 152.38 162.77 C 151.91 163.65 152.25 164.74 153.13 165.21 Z M 153.85 165.60 L 154.67 166.16 C 155.51 166.72 156.64 166.49 157.20 165.66 C 157.76 164.83 157.53 163.70 156.70 163.14 L 155.87 162.58 C 155.04 162.02 153.91 162.24 153.35 163.08 C 152.79 163.91 153.01 165.04 153.85 165.60 Z M 154.57 166.10 L 155.35 166.71 C 156.16 167.32 157.31 167.17 157.93 166.37 C 158.55 165.56 158.40 164.41 157.59 163.79 L 156.81 163.19 C 156.00 162.57 154.85 162.72 154.23 163.53 C 153.61 164.33 153.76 165.48 154.57 166.10 Z M 155.30 166.69 L 156.07 167.31 C 156.86 167.95 158.03 167.83 158.67 167.03 C 159.32 166.24 159.20 165.07 158.40 164.43 L 157.64 163.81 C 156.84 163.16 155.68 163.29 155.03 164.08 C 154.39 164.88 154.51 166.05 155.30 166.69 Z M 156.07 167.32 L 156.82 167.93 C 157.63 168.57 158.80 168.44 159.45 167.64 C 160.09 166.83 159.96 165.66 159.16 165.01 L 158.40 164.41 C 157.59 163.76 156.42 163.89 155.78 164.70 C 155.13 165.50 155.26 166.68 156.07 167.32 Z M 156.84 167.95 L 157.61 168.55 C 158.43 169.18 159.60 169.03 160.24 168.22 C 160.87 167.40 160.72 166.22 159.90 165.59 L 159.14 164.99 C 158.32 164.36 157.14 164.51 156.51 165.32 C 155.88 166.14 156.02 167.32 156.84 167.95 Z M 157.63 168.57 L 158.42 169.17 C 159.26 169.79 160.43 169.62 161.06 168.79 C 161.68 167.95 161.51 166.78 160.68 166.15 L 159.88 165.56 C 159.05 164.94 157.87 165.11 157.25 165.94 C 156.63 166.77 156.80 167.95 157.63 168.57 Z M 158.45 169.19 L 159.29 169.79 C 160.13 170.40 161.31 170.21 161.92 169.36 C 162.53 168.51 162.33 167.33 161.49 166.73 L 160.65 166.13 C 159.80 165.52 158.62 165.71 158.02 166.56 C 157.41 167.41 157.60 168.59 158.45 169.19 Z M 159.32 169.82 L 160.17 170.41 C 161.04 171.00 162.21 170.78 162.80 169.92 C 163.40 169.06 163.18 167.88 162.31 167.29 L 161.46 166.70 C 160.60 166.11 159.42 166.33 158.83 167.19 C 158.24 168.05 158.45 169.23 159.32 169.82 Z M 160.20 170.43 L 161.05 170.99 C 161.93 171.57 163.10 171.33 163.68 170.46 C 164.25 169.58 164.01 168.41 163.14 167.83 L 162.29 167.27 C 161.42 166.69 160.24 166.93 159.66 167.80 C 159.09 168.68 159.33 169.85 160.20 170.43 Z M 161.08 171.01 L 161.95 171.57 C 162.83 172.13 164.00 171.87 164.57 170.99 C 165.13 170.11 164.87 168.94 163.99 168.38 L 163.12 167.82 C 162.24 167.25 161.07 167.51 160.50 168.39 C 159.94 169.27 160.20 170.44 161.08 171.01 Z M 161.97 171.58 L 162.83 172.12 C 163.72 172.67 164.89 172.40 165.44 171.52 C 166.00 170.63 165.73 169.46 164.84 168.91 L 163.97 168.36 C 163.09 167.81 161.92 168.08 161.36 168.97 C 160.81 169.85 161.08 171.02 161.97 171.58 Z M 162.85 172.13 L 163.69 172.64 C 164.58 173.18 165.74 172.90 166.29 172.01 C 166.83 171.12 166.55 169.95 165.66 169.40 L 164.82 168.89 C 163.93 168.35 162.77 168.63 162.22 169.53 C 161.68 170.42 161.96 171.58 162.85 172.13 Z M 163.70 172.65 L 164.56 173.16 C 165.46 173.69 166.62 173.40 167.15 172.50 C 167.69 171.60 167.39 170.44 166.50 169.90 L 165.64 169.39 C 164.74 168.86 163.58 169.15 163.05 170.05 C 162.51 170.95 162.80 172.11 163.70 172.65 Z M 164.58 173.17 L 165.52 173.71 C 166.43 174.24 167.58 173.93 168.11 173.02 C 168.63 172.12 168.32 170.96 167.42 170.44 L 166.47 169.89 C 165.57 169.37 164.41 169.68 163.89 170.58 C 163.37 171.49 163.68 172.65 164.58 173.17 Z M 165.55 173.72 L 166.41 174.20 C 167.32 174.71 168.47 174.38 168.97 173.47 C 169.48 172.56 169.15 171.41 168.24 170.90 L 167.39 170.43 C 166.48 169.92 165.33 170.25 164.82 171.16 C 164.31 172.07 164.64 173.22 165.55 173.72 Z M 166.43 174.21 L 167.25 174.65 C 168.16 175.14 169.30 174.80 169.80 173.88 C 170.29 172.96 169.95 171.82 169.03 171.33 L 168.22 170.89 C 167.30 170.40 166.16 170.74 165.67 171.66 C 165.17 172.58 165.52 173.72 166.43 174.21 Z M 167.27 174.65 L 168.11 175.09 C 169.03 175.57 170.17 175.22 170.65 174.30 C 171.13 173.38 170.77 172.24 169.85 171.76 L 169.01 171.32 C 168.09 170.84 166.95 171.20 166.47 172.12 C 165.99 173.04 166.35 174.17 167.27 174.65 Z M 168.13 175.10 L 169.02 175.55 C 169.94 176.02 171.07 175.65 171.54 174.73 C 172.01 173.81 171.64 172.68 170.72 172.21 L 169.83 171.76 C 168.91 171.29 167.78 171.65 167.31 172.58 C 166.84 173.50 167.21 174.63 168.13 175.10 Z M 169.03 175.55 L 169.93 176.00 C 170.86 176.46 171.98 176.08 172.44 175.16 C 172.90 174.23 172.52 173.11 171.60 172.65 L 170.70 172.20 C 169.77 171.74 168.65 172.12 168.19 173.05 C 167.73 173.97 168.11 175.09 169.03 175.55 Z M 169.95 176.00 L 170.86 176.44 C 171.79 176.89 172.90 176.51 173.35 175.58 C 173.80 174.65 173.41 173.54 172.49 173.09 L 171.58 172.65 C 170.65 172.20 169.54 172.58 169.09 173.51 C 168.64 174.44 169.03 175.55 169.95 176.00 Z M 170.88 176.45 L 171.77 176.87 C 172.70 177.31 173.81 176.92 174.25 175.99 C 174.69 175.06 174.30 173.95 173.37 173.51 L 172.47 173.08 C 171.54 172.64 170.43 173.04 169.99 173.97 C 169.55 174.90 169.95 176.01 170.88 176.45 Z M 171.79 176.87 L 172.69 177.29 C 173.62 177.73 174.72 177.33 175.15 176.40 C 175.59 175.47 175.19 174.37 174.26 173.93 L 173.36 173.51 C 172.43 173.08 171.33 173.48 170.89 174.41 C 170.46 175.33 170.86 176.44 171.79 176.87 Z M 172.69 177.29 L 173.60 177.71 C 174.53 178.14 175.63 177.74 176.06 176.82 C 176.49 175.89 176.09 174.79 175.16 174.36 L 174.26 173.94 C 173.33 173.51 172.23 173.91 171.80 174.83 C 171.37 175.76 171.77 176.86 172.69 177.29 Z M 173.60 177.70 L 174.50 178.13 C 175.42 178.56 176.52 178.16 176.95 177.24 C 177.38 176.32 176.99 175.23 176.07 174.79 L 175.17 174.37 C 174.25 173.94 173.15 174.34 172.72 175.26 C 172.29 176.18 172.68 177.27 173.60 177.70 Z M 174.50 178.12 L 175.40 178.54 C 176.31 178.98 177.40 178.59 177.84 177.67 C 178.27 176.75 177.88 175.66 176.97 175.23 L 176.07 174.80 C 175.16 174.37 174.06 174.76 173.63 175.68 C 173.19 176.59 173.59 177.68 174.50 178.12 Z M 175.40 178.54 L 176.30 178.97 C 177.21 179.40 178.30 179.01 178.74 178.10 C 179.17 177.19 178.78 176.10 177.87 175.67 L 176.96 175.24 C 176.05 174.80 174.96 175.19 174.53 176.10 C 174.10 177.01 174.49 178.10 175.40 178.54 Z M 176.31 178.96 L 177.22 179.39 C 178.13 179.82 179.22 179.44 179.65 178.53 C 180.08 177.62 179.69 176.53 178.78 176.10 L 177.86 175.67 C 176.96 175.24 175.87 175.63 175.44 176.54 C 175.01 177.44 175.40 178.53 176.31 178.96 Z M 177.23 179.39 L 178.08 179.79 C 178.99 180.22 180.07 179.83 180.50 178.92 C 180.92 178.01 180.53 176.94 179.63 176.51 L 178.77 176.11 C 177.87 175.68 176.79 176.07 176.36 176.98 C 175.94 177.88 176.32 178.96 177.23 179.39 Z M 178.09 179.78 L 178.95 180.19 C 179.85 180.61 180.92 180.22 181.35 179.32 C 181.77 178.42 181.38 177.35 180.48 176.92 L 179.62 176.52 C 178.72 176.09 177.65 176.48 177.22 177.38 C 176.80 178.28 177.19 179.36 178.09 179.78 Z M 178.95 180.17 L 179.85 180.60 C 180.74 181.03 181.81 180.65 182.24 179.75 C 182.66 178.86 182.28 177.79 181.39 177.36 L 180.48 176.93 C 179.59 176.51 178.52 176.89 178.10 177.78 C 177.67 178.68 178.05 179.75 178.95 180.17 Z M 179.84 180.59 L 180.81 181.06 C 181.70 181.49 182.76 181.11 183.19 180.23 C 183.62 179.34 183.25 178.27 182.36 177.84 L 181.40 177.38 C 180.51 176.95 179.44 177.32 179.01 178.21 C 178.58 179.09 178.96 180.16 179.84 180.59 Z M 180.80 181.04 L 181.67 181.47 C 182.55 181.91 183.61 181.55 184.05 180.67 C 184.48 179.79 184.12 178.72 183.24 178.29 L 182.37 177.86 C 181.49 177.42 180.43 177.78 179.99 178.66 C 179.56 179.54 179.92 180.61 180.80 181.04 Z M 181.66 181.46 L 182.51 181.89 C 183.38 182.33 184.45 181.98 184.89 181.11 C 185.33 180.24 184.98 179.18 184.11 178.74 L 183.25 178.30 C 182.38 177.86 181.32 178.21 180.88 179.08 C 180.44 179.95 180.79 181.02 181.66 181.46 Z M 182.50 181.87 L 183.38 182.34 C 184.25 182.79 185.31 182.45 185.76 181.59 C 186.21 180.73 185.87 179.66 185.01 179.21 L 184.12 178.75 C 183.26 178.30 182.20 178.64 181.75 179.50 C 181.30 180.36 181.63 181.43 182.50 181.87 Z M 183.37 182.32 L 184.27 182.81 C 185.13 183.27 186.19 182.95 186.65 182.09 C 187.11 181.24 186.79 180.18 185.94 179.72 L 185.03 179.23 C 184.18 178.77 183.11 179.09 182.65 179.94 C 182.19 180.80 182.51 181.86 183.37 182.32 Z M 184.25 182.79 L 185.17 183.30 C 186.01 183.77 187.07 183.47 187.55 182.63 C 188.02 181.78 187.71 180.72 186.87 180.25 L 185.96 179.74 C 185.11 179.27 184.05 179.57 183.58 180.41 C 183.11 181.25 183.41 182.32 184.25 182.79 Z M 185.14 183.27 L 186.06 183.81 C 186.89 184.29 187.95 184.01 188.43 183.18 C 188.92 182.35 188.64 181.29 187.81 180.81 L 186.90 180.27 C 186.07 179.79 185.00 180.07 184.52 180.90 C 184.04 181.73 184.32 182.79 185.14 183.27 Z M 186.03 183.78 L 186.93 184.33 C 187.74 184.82 188.80 184.57 189.30 183.76 C 189.80 182.95 189.54 181.89 188.73 181.39 L 187.83 180.84 C 187.02 180.34 185.96 180.59 185.46 181.41 C 184.97 182.22 185.22 183.28 186.03 183.78 Z M 186.90 184.29 L 187.77 184.85 C 188.56 185.36 189.61 185.14 190.13 184.35 C 190.64 183.56 190.42 182.50 189.63 181.99 L 188.76 181.43 C 187.97 180.91 186.91 181.14 186.40 181.93 C 185.88 182.72 186.11 183.77 186.90 184.29 Z M 187.73 184.81 L 188.55 185.38 C 189.32 185.91 190.37 185.72 190.90 184.95 C 191.44 184.19 191.25 183.14 190.48 182.60 L 189.66 182.03 C 188.89 181.50 187.84 181.69 187.31 182.46 C 186.77 183.22 186.96 184.28 187.73 184.81 Z M 188.51 185.33 L 189.27 185.90 C 190.01 186.46 191.06 186.31 191.62 185.57 C 192.17 184.83 192.02 183.78 191.28 183.23 L 190.52 182.65 C 189.78 182.10 188.73 182.25 188.18 182.98 C 187.62 183.72 187.77 184.77 188.51 185.33 Z M 189.22 185.84 L 189.96 186.46 C 190.66 187.04 191.71 186.95 192.29 186.24 C 192.88 185.54 192.78 184.50 192.08 183.91 L 191.34 183.29 C 190.64 182.71 189.59 182.80 189.01 183.50 C 188.42 184.21 188.52 185.25 189.22 185.84 Z M 189.90 186.37 L 190.67 187.10 C 191.33 187.72 192.36 187.70 192.98 187.04 C 193.60 186.38 193.58 185.35 192.92 184.73 L 192.15 184.00 C 191.49 183.37 190.46 183.40 189.83 184.06 C 189.21 184.71 189.24 185.75 189.90 186.37 Z M 190.62 187.02 L 191.30 187.74 C 191.90 188.39 192.92 188.43 193.58 187.82 C 194.23 187.21 194.26 186.19 193.65 185.54 L 192.97 184.81 C 192.37 184.16 191.35 184.13 190.69 184.74 C 190.04 185.34 190.01 186.37 190.62 187.02 Z M 191.27 187.68 L 191.89 188.40 C 192.46 189.07 193.46 189.15 194.13 188.57 C 194.80 188.00 194.87 187.00 194.30 186.33 L 193.68 185.61 C 193.11 184.94 192.11 184.86 191.44 185.43 C 190.77 186.01 190.69 187.01 191.27 187.68 Z M 191.88 188.36 L 192.33 188.92 C 192.88 189.59 193.87 189.68 194.54 189.13 C 195.22 188.58 195.31 187.59 194.76 186.92 L 194.31 186.37 C 193.76 185.70 192.77 185.60 192.10 186.15 C 191.43 186.70 191.33 187.69 191.88 188.36 Z"
      fill="black"
      fill-rule="nonzero" /></svg>