<svg xmlns="http://www.w3.org/2000/svg" width="300" height="300" viewBox="0 0 300 300">
<path d="M 110.91 127.26 L 111.77 127.83 C 112.56 128.35 113.62 128.13 114.14 127.34 C 114.67 126.55 114.45 125.49 113.66 124.97 L 112.80 124.40 C 112.01 123.88 110.94 124.09 110.42 124.89 C 109.90 125.68 110.12 126.74 110.91 127.26 Z M 111.80 127.86 L 112.66 128.39 C 113.47 128.89 114.53 128.65 115.03 127.84 C 115.53 127.04 115.29 125.98 114.48 125.47 L 113.62 124.94 C 112.81 124.44 111.75 124.68 111.25 125.49 C 110.75 126.30 111.00 127.36 111.80 127.86 Z M 112.75 128.44 L 113.61 128.92 C 114.45 129.37 115.49 129.07 115.95 128.23 C 116.40 127.40 116.10 126.35 115.26 125.90 L 114.40 125.42 C 113.56 124.97 112.52 125.27 112.06 126.11 C 111.61 126.94 111.91 127.99 112.75 128.44 Z M 113.75 128.98 L 114.64 129.37 C 115.51 129.75 116.52 129.35 116.90 128.48 C 117.28 127.61 116.88 126.59 116.01 126.22 L 115.12 125.83 C 114.25 125.45 113.24 125.85 112.86 126.72 C 112.48 127.59 112.88 128.61 113.75 128.98 Z M 114.82 129.42 L 115.76 129.71 C 116.66 129.98 117.61 129.48 117.88 128.58 C 118.16 127.68 117.66 126.73 116.76 126.45 L 115.82 126.17 C 114.93 125.89 113.98 126.39 113.70 127.29 C 113.42 128.19 113.93 129.14 114.82 129.42 Z M 115.91 129.71 L 116.87 129.92 C 117.78 130.11 118.66 129.54 118.86 128.64 C 119.05 127.73 118.48 126.85 117.57 126.65 L 116.61 126.45 C 115.71 126.25 114.82 126.83 114.63 127.73 C 114.43 128.63 115.01 129.52 115.91 129.71 Z M 116.96 129.91 L 117.97 130.07 C 118.87 130.21 119.71 129.60 119.85 128.71 C 120.00 127.81 119.39 126.97 118.49 126.83 L 117.48 126.67 C 116.59 126.52 115.75 127.13 115.60 128.03 C 115.46 128.92 116.07 129.76 116.96 129.91 Z M 118.01 130.05 L 118.97 130.19 C 119.85 130.31 120.67 129.70 120.80 128.81 C 120.92 127.93 120.31 127.11 119.42 126.98 L 118.46 126.85 C 117.58 126.72 116.76 127.34 116.63 128.22 C 116.51 129.11 117.12 129.92 118.01 130.05 Z M 118.98 130.17 L 119.95 130.31 C 120.83 130.43 121.64 129.81 121.76 128.94 C 121.88 128.06 121.26 127.25 120.39 127.13 L 119.41 127.00 C 118.54 126.88 117.73 127.49 117.61 128.37 C 117.49 129.24 118.10 130.05 118.98 130.17 Z M 119.95 130.29 L 120.96 130.43 C 121.83 130.55 122.63 129.94 122.75 129.07 C 122.87 128.20 122.26 127.40 121.39 127.28 L 120.38 127.14 C 119.51 127.02 118.71 127.63 118.59 128.50 C 118.47 129.37 119.08 130.18 119.95 130.29 Z M 120.96 130.42 L 121.98 130.56 C 122.84 130.68 123.64 130.08 123.76 129.21 C 123.88 128.35 123.28 127.55 122.41 127.43 L 121.39 127.29 C 120.53 127.17 119.73 127.77 119.61 128.64 C 119.49 129.50 120.09 130.30 120.96 130.42 Z M 121.97 130.55 L 122.99 130.70 C 123.84 130.82 124.64 130.23 124.76 129.37 C 124.89 128.51 124.29 127.71 123.44 127.59 L 122.42 127.44 C 121.56 127.32 120.77 127.91 120.64 128.77 C 120.52 129.63 121.11 130.43 121.97 130.55 Z M 122.97 130.69 L 123.97 130.85 C 124.83 130.98 125.63 130.40 125.76 129.54 C 125.90 128.69 125.31 127.89 124.46 127.75 L 123.45 127.60 C 122.60 127.46 121.80 128.05 121.66 128.90 C 121.53 129.76 122.11 130.56 122.97 130.69 Z M 123.94 130.84 L 124.93 131.02 C 125.78 131.17 126.60 130.60 126.75 129.75 C 126.90 128.90 126.33 128.09 125.48 127.93 L 124.49 127.76 C 123.64 127.61 122.83 128.18 122.68 129.03 C 122.52 129.88 123.09 130.69 123.94 130.84 Z M 124.89 131.01 L 125.85 131.20 C 126.70 131.38 127.53 130.83 127.70 129.99 C 127.87 129.14 127.33 128.32 126.48 128.14 L 125.52 127.94 C 124.67 127.77 123.85 128.32 123.67 129.16 C 123.50 130.01 124.05 130.83 124.89 131.01 Z M 125.80 131.19 L 126.77 131.43 C 127.61 131.63 128.46 131.12 128.66 130.29 C 128.87 129.45 128.36 128.60 127.52 128.40 L 126.54 128.16 C 125.70 127.95 124.86 128.46 124.65 129.30 C 124.45 130.14 124.96 130.98 125.80 131.19 Z M 126.71 131.41 L 127.69 131.69 C 128.51 131.93 129.38 131.46 129.62 130.63 C 129.86 129.80 129.38 128.93 128.55 128.70 L 127.58 128.41 C 126.75 128.17 125.89 128.65 125.65 129.48 C 125.41 130.31 125.88 131.17 126.71 131.41 Z M 127.64 131.68 L 128.58 131.98 C 129.40 132.25 130.28 131.80 130.55 130.98 C 130.81 130.16 130.36 129.28 129.54 129.01 L 128.60 128.71 C 127.78 128.44 126.90 128.90 126.63 129.72 C 126.37 130.54 126.82 131.42 127.64 131.68 Z M 128.56 131.98 L 129.48 132.29 C 130.30 132.57 131.18 132.13 131.46 131.32 C 131.74 130.50 131.31 129.62 130.49 129.34 L 129.57 129.02 C 128.75 128.74 127.86 129.18 127.58 129.99 C 127.31 130.81 127.74 131.70 128.56 131.98 Z M 129.48 132.29 L 129.64 132.35 C 130.46 132.63 131.35 132.20 131.63 131.38 C 131.91 130.57 131.48 129.68 130.67 129.40 L 130.50 129.34 C 129.68 129.06 128.79 129.49 128.51 130.30 C 128.23 131.12 128.66 132.01 129.48 132.29 Z"
      fill="black"
      fill-rule="nonzero" /><path d="M 113.18 151.89 L 114.18 151.81 C 115.09 151.73 115.76 150.93 115.69 150.02 C 115.61 149.11 114.81 148.44 113.90 148.51 L 112.91 148.60 C 112.00 148.67 111.33 149.47 111.40 150.38 C 111.48 151.29 112.27 151.96 113.18 151.89 Z M 114.24 151.82 L 115.23 151.71 C 116.15 151.60 116.80 150.76 116.69 149.85 C 116.59 148.93 115.75 148.27 114.83 148.38 L 113.84 148.49 C 112.92 148.60 112.27 149.44 112.37 150.36 C 112.48 151.28 113.32 151.93 114.24 151.82 Z M 115.35 151.71 L 116.33 151.53 C 117.25 151.35 117.86 150.46 117.68 149.54 C 117.51 148.61 116.62 148.01 115.69 148.18 L 114.71 148.37 C 113.79 148.55 113.18 149.44 113.36 150.36 C 113.53 151.28 114.42 151.89 115.35 151.71 Z M 116.50 151.49 L 117.44 151.22 C 118.34 150.95 118.86 150.00 118.59 149.09 C 118.33 148.19 117.38 147.67 116.47 147.94 L 115.53 148.22 C 114.62 148.48 114.11 149.43 114.37 150.34 C 114.64 151.25 115.59 151.76 116.50 151.49 Z M 117.58 151.14 L 118.49 150.78 C 119.35 150.43 119.77 149.45 119.43 148.59 C 119.08 147.73 118.10 147.31 117.24 147.65 L 116.33 148.01 C 115.47 148.36 115.05 149.34 115.39 150.20 C 115.74 151.06 116.71 151.48 117.58 151.14 Z M 118.56 150.70 L 119.47 150.27 C 120.29 149.89 120.64 148.92 120.26 148.10 C 119.88 147.28 118.90 146.92 118.08 147.31 L 117.17 147.73 C 116.35 148.11 116.00 149.09 116.38 149.91 C 116.76 150.73 117.74 151.08 118.56 150.70 Z M 119.48 150.22 L 120.41 149.76 C 121.19 149.37 121.51 148.41 121.12 147.62 C 120.73 146.83 119.77 146.51 118.99 146.91 L 118.06 147.36 C 117.28 147.76 116.96 148.71 117.35 149.50 C 117.74 150.29 118.70 150.61 119.48 150.22 Z M 120.39 149.73 L 121.31 149.28 C 122.08 148.90 122.40 147.96 122.01 147.18 C 121.63 146.41 120.69 146.09 119.91 146.47 L 119.00 146.93 C 118.22 147.31 117.91 148.25 118.29 149.03 C 118.68 149.80 119.62 150.12 120.39 149.73 Z M 121.29 149.28 L 122.21 148.84 C 122.98 148.47 123.31 147.53 122.93 146.76 C 122.56 145.98 121.63 145.65 120.85 146.03 L 119.93 146.47 C 119.16 146.84 118.83 147.78 119.20 148.56 C 119.58 149.33 120.51 149.66 121.29 149.28 Z M 122.18 148.85 L 123.09 148.43 C 123.87 148.07 124.21 147.14 123.85 146.36 C 123.49 145.58 122.56 145.24 121.78 145.60 L 120.87 146.02 C 120.09 146.38 119.75 147.31 120.11 148.09 C 120.47 148.87 121.40 149.21 122.18 148.85 Z M 123.06 148.45 L 123.95 148.06 C 124.74 147.72 125.10 146.80 124.76 146.01 C 124.41 145.21 123.49 144.85 122.70 145.20 L 121.81 145.58 C 121.02 145.93 120.66 146.85 121.00 147.64 C 121.35 148.43 122.27 148.79 123.06 148.45 Z M 123.91 148.08 L 124.87 147.69 C 125.67 147.37 126.06 146.46 125.74 145.66 C 125.42 144.86 124.51 144.47 123.71 144.79 L 122.74 145.18 C 121.94 145.50 121.55 146.41 121.88 147.21 C 122.20 148.01 123.11 148.40 123.91 148.08 Z M 124.83 147.70 L 125.77 147.36 C 126.58 147.06 126.99 146.16 126.69 145.35 C 126.39 144.54 125.49 144.13 124.68 144.43 L 123.75 144.78 C 122.94 145.08 122.53 145.98 122.83 146.78 C 123.13 147.59 124.03 148.00 124.83 147.70 Z M 125.75 147.37 L 126.66 147.04 C 127.47 146.75 127.90 145.86 127.61 145.05 C 127.33 144.24 126.43 143.81 125.62 144.10 L 124.71 144.42 C 123.89 144.71 123.47 145.60 123.75 146.41 C 124.04 147.23 124.93 147.65 125.75 147.37 Z M 126.65 147.04 L 126.96 146.94 C 127.77 146.66 128.20 145.77 127.92 144.95 C 127.63 144.14 126.74 143.71 125.93 143.99 L 125.63 144.10 C 124.81 144.38 124.38 145.27 124.67 146.08 C 124.95 146.90 125.84 147.33 126.65 147.04 Z"
      fill="black"
      fill-rule="nonzero" /><path d="M 118.65 174.71 L 119.23 173.79 C 119.70 173.04 119.47 172.04 118.72 171.57 C 117.97 171.10 116.97 171.33 116.50 172.08 L 115.93 173.00 C 115.46 173.76 115.69 174.75 116.44 175.22 C 117.19 175.69 118.18 175.46 118.65 174.71 Z M 119.23 173.79 L 119.79 172.89 C 120.27 172.14 120.04 171.14 119.29 170.67 C 118.54 170.20 117.55 170.43 117.07 171.18 L 116.51 172.08 C 116.03 172.83 116.26 173.82 117.01 174.30 C 117.76 174.77 118.75 174.54 119.23 173.79 Z M 119.79 172.89 L 120.35 172.02 C 120.82 171.27 120.60 170.28 119.85 169.80 C 119.10 169.33 118.11 169.55 117.63 170.30 L 117.08 171.17 C 116.60 171.92 116.82 172.91 117.57 173.39 C 118.32 173.86 119.31 173.64 119.79 172.89 Z M 120.34 172.03 L 120.88 171.20 C 121.36 170.45 121.14 169.46 120.40 168.98 C 119.65 168.49 118.66 168.71 118.18 169.45 L 117.64 170.29 C 117.16 171.03 117.37 172.02 118.12 172.51 C 118.86 172.99 119.86 172.77 120.34 172.03 Z M 120.87 171.21 L 121.38 170.44 C 121.87 169.70 121.67 168.70 120.93 168.21 C 120.19 167.72 119.19 167.93 118.70 168.67 L 118.19 169.44 C 117.70 170.18 117.90 171.17 118.64 171.66 C 119.38 172.15 120.38 171.95 120.87 171.21 Z M 121.36 170.46 L 121.90 169.69 C 122.40 168.95 122.22 167.95 121.49 167.45 C 120.76 166.95 119.76 167.13 119.25 167.86 L 118.72 168.64 C 118.21 169.37 118.40 170.37 119.13 170.88 C 119.86 171.38 120.86 171.19 121.36 170.46 Z M 121.87 169.72 L 122.52 168.83 C 123.05 168.11 122.89 167.11 122.18 166.58 C 121.46 166.06 120.45 166.22 119.93 166.93 L 119.28 167.83 C 118.75 168.54 118.91 169.55 119.63 170.07 C 120.34 170.60 121.35 170.44 121.87 169.72 Z M 122.50 168.87 L 123.10 168.10 C 123.65 167.40 123.52 166.39 122.82 165.84 C 122.12 165.29 121.11 165.42 120.56 166.12 L 119.96 166.89 C 119.41 167.59 119.54 168.60 120.24 169.15 C 120.94 169.70 121.95 169.57 122.50 168.87 Z M 123.08 168.13 L 123.66 167.41 C 124.22 166.73 124.12 165.71 123.43 165.15 C 122.74 164.59 121.73 164.69 121.17 165.38 L 120.58 166.09 C 120.02 166.78 120.12 167.79 120.81 168.35 C 121.50 168.92 122.52 168.81 123.08 168.13 Z M 123.65 167.42 L 124.24 166.71 C 124.81 166.03 124.71 165.01 124.03 164.45 C 123.34 163.88 122.33 163.98 121.76 164.66 L 121.17 165.37 C 120.61 166.05 120.70 167.07 121.39 167.64 C 122.07 168.20 123.08 168.11 123.65 167.42 Z M 124.24 166.71 L 124.85 165.96 C 125.42 165.28 125.32 164.27 124.64 163.70 C 123.96 163.14 122.94 163.24 122.38 163.92 L 121.76 164.67 C 121.20 165.35 121.30 166.36 121.98 166.92 C 122.66 167.49 123.67 167.39 124.24 166.71 Z M 124.84 165.96 L 125.48 165.19 C 126.04 164.51 125.95 163.51 125.27 162.94 C 124.59 162.38 123.59 162.48 123.03 163.15 L 122.39 163.92 C 121.83 164.60 121.92 165.61 122.60 166.17 C 123.28 166.73 124.28 166.64 124.84 165.96 Z M 125.47 165.19 L 126.13 164.40 C 126.70 163.72 126.61 162.72 125.93 162.16 C 125.26 161.60 124.26 161.69 123.70 162.36 L 123.04 163.15 C 122.48 163.83 122.56 164.83 123.24 165.39 C 123.91 165.95 124.91 165.86 125.47 165.19 Z M 126.12 164.40 L 126.77 163.64 C 127.33 162.97 127.25 161.98 126.59 161.41 C 125.92 160.85 124.92 160.93 124.36 161.60 L 123.71 162.36 C 123.15 163.02 123.23 164.02 123.90 164.58 C 124.56 165.15 125.56 165.07 126.12 164.40 Z M 126.76 163.64 L 127.40 162.90 C 127.97 162.24 127.89 161.25 127.23 160.68 C 126.57 160.11 125.58 160.19 125.01 160.85 L 124.37 161.59 C 123.80 162.25 123.88 163.24 124.54 163.81 C 125.20 164.38 126.19 164.30 126.76 163.64 Z M 127.39 162.90 L 128.05 162.15 C 128.62 161.49 128.55 160.50 127.89 159.93 C 127.24 159.36 126.25 159.43 125.68 160.08 L 125.02 160.84 C 124.45 161.50 124.52 162.49 125.17 163.06 C 125.83 163.63 126.82 163.56 127.39 162.90 Z M 128.04 162.15 L 128.71 161.38 C 129.28 160.73 129.22 159.74 128.57 159.17 C 127.91 158.60 126.92 158.66 126.35 159.32 L 125.68 160.08 C 125.11 160.74 125.18 161.73 125.83 162.30 C 126.48 162.87 127.47 162.80 128.04 162.15 Z M 128.71 161.38 L 129.37 160.62 C 129.94 159.97 129.88 158.98 129.23 158.41 C 128.58 157.84 127.59 157.91 127.02 158.56 L 126.36 159.32 C 125.79 159.97 125.85 160.95 126.50 161.52 C 127.15 162.09 128.14 162.03 128.71 161.38 Z M 129.37 160.62 L 130.02 159.88 C 130.59 159.23 130.53 158.24 129.88 157.68 C 129.23 157.11 128.24 157.17 127.67 157.82 L 127.02 158.56 C 126.45 159.21 126.52 160.20 127.17 160.77 C 127.82 161.34 128.80 161.27 129.37 160.62 Z M 130.02 159.88 L 130.68 159.13 C 131.25 158.48 131.18 157.49 130.53 156.93 C 129.88 156.36 128.90 156.42 128.33 157.07 L 127.67 157.82 C 127.10 158.47 127.17 159.46 127.82 160.03 C 128.47 160.59 129.45 160.53 130.02 159.88 Z M 130.68 159.13 L 131.34 158.37 C 131.91 157.72 131.84 156.73 131.19 156.17 C 130.54 155.60 129.56 155.67 128.99 156.31 L 128.33 157.07 C 127.76 157.72 127.83 158.71 128.48 159.28 C 129.13 159.85 130.11 159.78 130.68 159.13 Z M 131.34 158.37 L 132.01 157.59 C 132.58 156.94 132.51 155.96 131.86 155.39 C 131.21 154.83 130.22 154.90 129.66 155.55 L 128.99 156.32 C 128.42 156.97 128.49 157.96 129.14 158.52 C 129.79 159.09 130.78 159.02 131.34 158.37 Z M 132.02 157.59 L 132.66 156.85 C 133.22 156.20 133.15 155.21 132.50 154.65 C 131.84 154.08 130.86 154.16 130.29 154.81 L 129.65 155.55 C 129.09 156.20 129.16 157.19 129.82 157.75 C 130.47 158.32 131.45 158.24 132.02 157.59 Z M 132.66 156.85 L 133.31 156.10 C 133.87 155.44 133.79 154.46 133.14 153.90 C 132.49 153.33 131.50 153.41 130.94 154.06 L 130.29 154.81 C 129.73 155.46 129.80 156.45 130.46 157.01 C 131.11 157.57 132.10 157.50 132.66 156.85 Z M 133.30 156.10 L 133.96 155.34 C 134.52 154.69 134.45 153.70 133.80 153.14 C 133.15 152.58 132.16 152.65 131.60 153.30 L 130.94 154.06 C 130.38 154.71 130.45 155.69 131.10 156.26 C 131.75 156.82 132.74 156.75 133.30 156.10 Z M 133.95 155.35 L 134.62 154.58 C 135.19 153.93 135.12 152.95 134.47 152.38 C 133.82 151.81 132.84 151.88 132.27 152.53 L 131.60 153.29 C 131.04 153.94 131.10 154.93 131.75 155.50 C 132.40 156.06 133.39 156.00 133.95 155.35 Z M 134.61 154.59 L 135.29 153.83 C 135.86 153.19 135.80 152.20 135.15 151.63 C 134.51 151.06 133.52 151.12 132.95 151.76 L 132.28 152.52 C 131.70 153.17 131.76 154.15 132.41 154.73 C 133.06 155.30 134.04 155.24 134.61 154.59 Z M 135.28 153.84 L 135.95 153.09 C 136.53 152.45 136.47 151.47 135.83 150.89 C 135.19 150.31 134.20 150.37 133.63 151.01 L 132.96 151.75 C 132.38 152.40 132.43 153.38 133.07 153.96 C 133.72 154.53 134.70 154.48 135.28 153.84 Z M 135.95 153.10 L 136.62 152.35 C 137.20 151.71 137.15 150.73 136.51 150.15 C 135.87 149.57 134.89 149.62 134.31 150.26 L 133.63 151.00 C 133.05 151.64 133.10 152.63 133.74 153.21 C 134.38 153.79 135.37 153.74 135.95 153.10 Z M 136.62 152.35 L 137.29 151.61 C 137.87 150.97 137.82 149.98 137.18 149.40 C 136.55 148.83 135.56 148.88 134.98 149.51 L 134.31 150.26 C 133.73 150.90 133.78 151.88 134.42 152.46 C 135.06 153.04 136.04 152.99 136.62 152.35 Z M 137.30 151.61 L 137.96 150.87 C 138.54 150.23 138.49 149.24 137.85 148.66 C 137.20 148.09 136.22 148.14 135.64 148.78 L 134.98 149.52 C 134.40 150.16 134.45 151.15 135.09 151.72 C 135.73 152.30 136.72 152.25 137.30 151.61 Z M 137.97 150.86 L 138.64 150.10 C 139.21 149.46 139.15 148.47 138.51 147.90 C 137.86 147.33 136.88 147.39 136.30 148.03 L 135.63 148.79 C 135.06 149.43 135.12 150.42 135.77 150.99 C 136.41 151.56 137.40 151.50 137.97 150.86 Z M 138.65 150.09 L 139.32 149.32 C 139.89 148.67 139.82 147.68 139.17 147.12 C 138.52 146.55 137.53 146.62 136.97 147.27 L 136.29 148.04 C 135.73 148.69 135.80 149.68 136.45 150.24 C 137.10 150.81 138.08 150.74 138.65 150.09 Z M 139.33 149.31 L 139.98 148.55 C 140.54 147.89 140.47 146.91 139.81 146.35 C 139.16 145.79 138.17 145.86 137.61 146.52 L 136.96 147.28 C 136.40 147.93 136.47 148.92 137.13 149.48 C 137.78 150.04 138.77 149.97 139.33 149.31 Z M 139.99 148.54 L 140.63 147.79 C 141.18 147.13 141.10 146.15 140.44 145.59 C 139.79 145.03 138.80 145.11 138.24 145.77 L 137.61 146.52 C 137.05 147.18 137.13 148.17 137.79 148.72 C 138.44 149.28 139.43 149.20 139.99 148.54 Z M 140.63 147.79 L 141.25 147.04 C 141.81 146.38 141.72 145.40 141.06 144.85 C 140.40 144.29 139.42 144.37 138.86 145.03 L 138.24 145.77 C 137.69 146.43 137.77 147.42 138.43 147.97 C 139.09 148.53 140.07 148.44 140.63 147.79 Z M 141.26 147.04 L 141.91 146.26 C 142.46 145.60 142.38 144.61 141.72 144.06 C 141.06 143.51 140.07 143.59 139.52 144.25 L 138.86 145.04 C 138.31 145.70 138.40 146.68 139.06 147.24 C 139.72 147.79 140.70 147.70 141.26 147.04 Z M 141.92 146.25 L 142.56 145.48 C 143.11 144.81 143.02 143.83 142.35 143.28 C 141.69 142.73 140.70 142.82 140.15 143.49 L 139.51 144.26 C 138.96 144.92 139.06 145.91 139.72 146.46 C 140.38 147.01 141.37 146.91 141.92 146.25 Z M 142.57 145.47 L 143.19 144.70 C 143.74 144.03 143.64 143.04 142.97 142.50 C 142.30 141.96 141.31 142.06 140.77 142.73 L 140.14 143.50 C 139.60 144.17 139.70 145.15 140.37 145.69 C 141.04 146.24 142.02 146.13 142.57 145.47 Z M 143.21 144.68 L 143.82 143.91 C 144.35 143.23 144.24 142.25 143.56 141.72 C 142.89 141.18 141.91 141.30 141.37 141.97 L 140.76 142.74 C 140.22 143.42 140.34 144.40 141.01 144.93 C 141.69 145.47 142.67 145.36 143.21 144.68 Z M 143.83 143.89 L 144.44 143.10 C 144.96 142.41 144.84 141.43 144.15 140.91 C 143.47 140.38 142.49 140.51 141.96 141.20 L 141.35 141.99 C 140.83 142.67 140.96 143.65 141.64 144.18 C 142.33 144.70 143.31 144.57 143.83 143.89 Z M 144.45 143.08 L 145.05 142.28 C 145.57 141.59 145.42 140.61 144.73 140.09 C 144.04 139.58 143.06 139.72 142.55 140.41 L 141.95 141.22 C 141.43 141.91 141.58 142.88 142.27 143.40 C 142.96 143.91 143.94 143.77 144.45 143.08 Z M 145.06 142.27 L 145.65 141.46 C 146.16 140.76 146.01 139.79 145.31 139.28 C 144.61 138.77 143.64 138.92 143.13 139.62 L 142.54 140.42 C 142.03 141.12 142.18 142.10 142.88 142.61 C 143.57 143.11 144.55 142.96 145.06 142.27 Z M 145.65 141.45 L 146.24 140.64 C 146.74 139.94 146.59 138.97 145.89 138.46 C 145.19 137.96 144.21 138.12 143.71 138.82 L 143.12 139.63 C 142.62 140.32 142.78 141.30 143.47 141.80 C 144.17 142.31 145.15 142.15 145.65 141.45 Z M 146.24 140.64 L 146.41 140.41 C 146.91 139.71 146.75 138.73 146.05 138.23 C 145.35 137.73 144.38 137.88 143.87 138.58 L 143.71 138.82 C 143.20 139.52 143.36 140.49 144.06 141.00 C 144.76 141.50 145.74 141.34 146.24 140.64 Z"
      fill="black"
      fill-rule="nonzero" /><path d="M 151.01 103.38 L 152.03 103.12 C 152.97 102.88 153.53 101.93 153.30 100.99 C 153.06 100.06 152.10 99.49 151.17 99.73 L 150.15 99.99 C 149.21 100.23 148.65 101.18 148.88 102.12 C 149.12 103.06 150.08 103.62 151.01 103.38 Z M 152.03 103.12 L 153.04 102.87 C 153.98 102.63 154.55 101.68 154.31 100.74 C 154.07 99.81 153.12 99.24 152.19 99.47 L 151.17 99.73 C 150.24 99.97 149.67 100.92 149.91 101.85 C 150.14 102.79 151.09 103.36 152.03 103.12 Z M 153.03 102.87 L 154.02 102.63 C 154.96 102.40 155.54 101.45 155.31 100.51 C 155.08 99.57 154.13 99.00 153.19 99.23 L 152.20 99.47 C 151.26 99.70 150.69 100.65 150.92 101.59 C 151.14 102.52 152.09 103.10 153.03 102.87 Z M 154.00 102.63 L 154.97 102.41 C 155.91 102.19 156.49 101.25 156.27 100.31 C 156.05 99.37 155.11 98.78 154.17 99.00 L 153.21 99.22 C 152.27 99.44 151.68 100.38 151.90 101.32 C 152.12 102.27 153.06 102.85 154.00 102.63 Z M 154.94 102.41 L 155.86 102.21 C 156.81 102.01 157.41 101.08 157.20 100.13 C 157.00 99.19 156.07 98.59 155.12 98.79 L 154.20 98.99 C 153.26 99.20 152.66 100.13 152.86 101.07 C 153.06 102.02 154.00 102.62 154.94 102.41 Z M 155.82 102.22 L 156.76 102.04 C 157.71 101.86 158.33 100.94 158.15 99.99 C 157.96 99.05 157.05 98.42 156.10 98.61 L 155.16 98.79 C 154.21 98.97 153.59 99.89 153.78 100.83 C 153.96 101.78 154.87 102.40 155.82 102.22 Z M 156.70 102.05 L 157.67 101.90 C 158.62 101.74 159.27 100.85 159.12 99.89 C 158.97 98.94 158.07 98.29 157.12 98.44 L 156.15 98.60 C 155.20 98.75 154.55 99.65 154.70 100.60 C 154.85 101.55 155.75 102.20 156.70 102.05 Z M 157.61 101.90 L 158.56 101.79 C 159.51 101.67 160.19 100.80 160.08 99.84 C 159.96 98.88 159.09 98.20 158.13 98.32 L 157.18 98.44 C 156.22 98.55 155.54 99.42 155.66 100.38 C 155.78 101.34 156.65 102.02 157.61 101.90 Z M 158.49 101.79 L 159.47 101.71 C 160.43 101.63 161.14 100.78 161.06 99.82 C 160.97 98.86 160.13 98.15 159.17 98.23 L 158.19 98.31 C 157.23 98.40 156.52 99.24 156.60 100.20 C 156.69 101.17 157.53 101.88 158.49 101.79 Z M 159.42 101.71 L 160.46 101.65 C 161.42 101.60 162.16 100.78 162.10 99.81 C 162.05 98.85 161.22 98.11 160.26 98.17 L 159.22 98.23 C 158.26 98.28 157.52 99.10 157.57 100.07 C 157.63 101.03 158.45 101.77 159.42 101.71 Z M 160.42 101.65 L 161.45 101.62 C 162.41 101.59 163.16 100.78 163.13 99.82 C 163.10 98.85 162.29 98.10 161.33 98.13 L 160.30 98.17 C 159.34 98.20 158.58 99.01 158.62 99.97 C 158.65 100.93 159.46 101.69 160.42 101.65 Z M 161.41 101.61 L 162.44 101.60 C 163.40 101.59 164.17 100.80 164.16 99.84 C 164.15 98.88 163.36 98.11 162.40 98.12 L 161.36 98.14 C 160.40 98.15 159.64 98.94 159.65 99.90 C 159.66 100.86 160.45 101.63 161.41 101.61 Z M 162.39 101.60 L 163.44 101.61 C 164.40 101.63 165.19 100.87 165.21 99.91 C 165.22 98.96 164.46 98.17 163.50 98.15 L 162.45 98.13 C 161.49 98.11 160.70 98.87 160.69 99.83 C 160.67 100.79 161.43 101.58 162.39 101.60 Z M 163.37 101.61 L 164.40 101.67 C 165.36 101.73 166.17 101.00 166.23 100.05 C 166.29 99.10 165.56 98.28 164.61 98.22 L 163.58 98.16 C 162.62 98.10 161.81 98.83 161.75 99.78 C 161.69 100.73 162.42 101.55 163.37 101.61 Z M 164.30 101.65 L 165.28 101.77 C 166.22 101.88 167.08 101.21 167.19 100.27 C 167.30 99.32 166.63 98.47 165.68 98.35 L 164.71 98.24 C 163.77 98.12 162.91 98.80 162.80 99.74 C 162.69 100.68 163.36 101.54 164.30 101.65 Z M 165.13 101.74 L 166.03 101.93 C 166.95 102.12 167.86 101.53 168.06 100.60 C 168.25 99.68 167.66 98.77 166.73 98.57 L 165.83 98.38 C 164.91 98.19 164.00 98.78 163.80 99.71 C 163.61 100.63 164.20 101.54 165.13 101.74 Z M 165.76 101.83 L 166.81 102.25 C 167.69 102.59 168.67 102.16 169.02 101.29 C 169.36 100.42 168.93 99.43 168.06 99.09 L 167.00 98.67 C 166.13 98.33 165.14 98.75 164.80 99.63 C 164.46 100.50 164.88 101.49 165.76 101.83 Z M 166.44 102.01 L 167.22 102.59 C 167.97 103.14 169.02 102.99 169.57 102.24 C 170.12 101.50 169.96 100.45 169.22 99.90 L 168.43 99.32 C 167.69 98.77 166.64 98.93 166.09 99.67 C 165.54 100.42 165.70 101.46 166.44 102.01 Z M 166.90 102.24 L 167.44 102.97 C 167.99 103.70 169.03 103.85 169.76 103.30 C 170.48 102.75 170.63 101.72 170.09 100.99 L 169.54 100.26 C 169.00 99.53 167.96 99.38 167.23 99.93 C 166.50 100.47 166.35 101.51 166.90 102.24 Z M 167.26 102.59 L 167.60 103.44 C 167.93 104.27 168.88 104.68 169.72 104.34 C 170.55 104.00 170.96 103.05 170.62 102.22 L 170.28 101.37 C 169.94 100.54 168.99 100.13 168.16 100.47 C 167.32 100.80 166.92 101.75 167.26 102.59 Z M 167.52 103.12 L 167.69 104.04 C 167.85 104.92 168.69 105.50 169.57 105.34 C 170.45 105.18 171.03 104.34 170.87 103.46 L 170.70 102.54 C 170.54 101.66 169.70 101.08 168.82 101.24 C 167.94 101.40 167.36 102.24 167.52 103.12 Z M 167.67 103.77 L 167.68 104.76 C 167.69 105.65 168.42 106.36 169.30 106.35 C 170.19 106.34 170.90 105.62 170.89 104.73 L 170.88 103.74 C 170.87 102.85 170.15 102.14 169.26 102.15 C 168.38 102.16 167.67 102.88 167.67 103.77 Z M 167.71 104.51 L 167.55 105.54 C 167.42 106.41 168.02 107.22 168.89 107.36 C 169.76 107.49 170.57 106.89 170.70 106.02 L 170.86 104.99 C 170.99 104.12 170.40 103.31 169.53 103.17 C 168.66 103.04 167.85 103.64 167.71 104.51 Z M 167.62 105.30 L 167.30 106.30 C 167.04 107.13 167.50 108.02 168.34 108.28 C 169.17 108.55 170.06 108.08 170.33 107.25 L 170.64 106.26 C 170.90 105.42 170.44 104.53 169.60 104.27 C 168.77 104.01 167.88 104.47 167.62 105.30 Z M 167.38 106.11 L 166.96 107.01 C 166.59 107.80 166.94 108.74 167.73 109.11 C 168.52 109.48 169.46 109.13 169.83 108.34 L 170.25 107.44 C 170.62 106.65 170.27 105.71 169.48 105.34 C 168.69 104.97 167.75 105.32 167.38 106.11 Z M 167.04 106.88 L 166.52 107.75 C 166.08 108.50 166.33 109.47 167.08 109.91 C 167.83 110.35 168.80 110.10 169.24 109.35 L 169.75 108.48 C 170.20 107.73 169.95 106.76 169.20 106.32 C 168.45 105.88 167.48 106.13 167.04 106.88 Z M 166.59 107.65 L 166.01 108.49 C 165.51 109.20 165.69 110.18 166.41 110.68 C 167.12 111.17 168.10 110.99 168.60 110.28 L 169.17 109.45 C 169.67 108.73 169.49 107.75 168.78 107.26 C 168.06 106.76 167.08 106.94 166.59 107.65 Z M 166.06 108.42 L 165.46 109.20 C 164.92 109.88 165.05 110.87 165.73 111.40 C 166.42 111.93 167.41 111.81 167.94 111.12 L 168.54 110.35 C 169.08 109.66 168.95 108.67 168.27 108.14 C 167.58 107.61 166.60 107.73 166.06 108.42 Z M 165.50 109.14 L 164.82 109.94 C 164.26 110.60 164.34 111.60 165.00 112.16 C 165.66 112.72 166.65 112.64 167.22 111.98 L 167.90 111.18 C 168.46 110.52 168.38 109.52 167.72 108.96 C 167.05 108.40 166.06 108.48 165.50 109.14 Z M 164.86 109.90 L 164.18 110.64 C 163.59 111.28 163.63 112.27 164.27 112.86 C 164.91 113.45 165.91 113.41 166.49 112.77 L 167.18 112.02 C 167.76 111.38 167.72 110.39 167.08 109.80 C 166.44 109.21 165.45 109.26 164.86 109.90 Z M 164.21 110.60 L 163.53 111.30 C 162.92 111.93 162.93 112.92 163.56 113.53 C 164.18 114.13 165.17 114.12 165.78 113.50 L 166.46 112.80 C 167.07 112.18 167.06 111.18 166.43 110.58 C 165.81 109.97 164.82 109.98 164.21 110.60 Z M 163.55 111.28 L 162.86 111.96 C 162.24 112.57 162.24 113.57 162.85 114.18 C 163.46 114.80 164.46 114.81 165.08 114.20 L 165.76 113.52 C 166.38 112.91 166.39 111.91 165.78 111.30 C 165.16 110.68 164.17 110.67 163.55 111.28 Z M 162.87 111.95 L 162.16 112.63 C 161.54 113.24 161.52 114.24 162.13 114.86 C 162.74 115.49 163.73 115.50 164.36 114.90 L 165.07 114.21 C 165.69 113.60 165.71 112.61 165.10 111.98 C 164.49 111.36 163.50 111.34 162.87 111.95 Z M 162.17 112.63 L 161.45 113.32 C 160.82 113.92 160.80 114.92 161.41 115.55 C 162.01 116.18 163.01 116.19 163.64 115.59 L 164.35 114.90 C 164.98 114.30 165.00 113.30 164.40 112.67 C 163.79 112.04 162.80 112.02 162.17 112.63 Z M 161.45 113.31 L 160.73 114.01 C 160.10 114.61 160.08 115.61 160.68 116.24 C 161.28 116.87 162.28 116.89 162.91 116.29 L 163.63 115.60 C 164.26 114.99 164.29 113.99 163.68 113.36 C 163.08 112.73 162.08 112.71 161.45 113.31 Z M 160.73 114.01 L 160.00 114.70 C 159.37 115.30 159.35 116.30 159.95 116.93 C 160.55 117.56 161.55 117.59 162.18 116.98 L 162.91 116.29 C 163.54 115.69 163.56 114.69 162.96 114.06 C 162.36 113.43 161.36 113.40 160.73 114.01 Z M 160.00 114.70 L 159.34 115.33 C 158.71 115.93 158.68 116.93 159.29 117.56 C 159.89 118.20 160.89 118.22 161.52 117.62 L 162.18 116.98 C 162.82 116.38 162.84 115.38 162.24 114.75 C 161.63 114.12 160.63 114.09 160.00 114.70 Z M 159.34 115.33 L 158.65 115.98 C 158.02 116.59 157.99 117.59 158.60 118.22 C 159.20 118.85 160.20 118.88 160.84 118.27 L 161.52 117.62 C 162.16 117.02 162.18 116.01 161.58 115.38 C 160.97 114.75 159.97 114.72 159.34 115.33 Z M 158.65 115.98 L 157.92 116.68 C 157.28 117.28 157.26 118.28 157.86 118.92 C 158.46 119.55 159.47 119.58 160.10 118.97 L 160.84 118.28 C 161.47 117.67 161.50 116.67 160.89 116.03 C 160.29 115.40 159.28 115.37 158.65 115.98 Z M 157.92 116.67 L 157.12 117.43 C 156.49 118.03 156.46 119.04 157.06 119.67 C 157.67 120.31 158.67 120.34 159.31 119.73 L 160.10 118.98 C 160.74 118.37 160.77 117.37 160.16 116.73 C 159.56 116.09 158.55 116.07 157.92 116.67 Z M 157.12 117.42 L 156.39 118.11 C 155.75 118.72 155.72 119.73 156.33 120.37 C 156.93 121.01 157.94 121.04 158.58 120.43 L 159.31 119.74 C 159.95 119.13 159.98 118.12 159.38 117.48 C 158.77 116.84 157.76 116.81 157.12 117.42 Z M 156.38 118.10 L 155.65 118.79 C 155.01 119.40 154.98 120.42 155.59 121.07 C 156.20 121.71 157.22 121.74 157.87 121.12 L 158.59 120.44 C 159.24 119.83 159.26 118.81 158.65 118.16 C 158.04 117.52 157.02 117.49 156.38 118.10 Z M 155.64 118.79 L 154.90 119.50 C 154.25 120.12 154.23 121.14 154.85 121.79 C 155.47 122.44 156.49 122.46 157.14 121.84 L 157.88 121.13 C 158.53 120.51 158.55 119.49 157.93 118.84 C 157.31 118.19 156.29 118.17 155.64 118.79 Z M 154.88 119.50 L 154.14 120.22 C 153.50 120.84 153.48 121.88 154.11 122.52 C 154.74 123.17 155.77 123.19 156.42 122.56 L 157.16 121.84 C 157.80 121.21 157.82 120.18 157.19 119.53 C 156.56 118.89 155.53 118.87 154.88 119.50 Z M 154.12 120.22 L 153.41 120.93 C 152.76 121.57 152.76 122.61 153.40 123.25 C 154.04 123.90 155.08 123.90 155.73 123.26 L 156.44 122.55 C 157.08 121.91 157.09 120.87 156.45 120.23 C 155.81 119.58 154.76 119.58 154.12 120.22 Z M 153.38 120.94 L 152.60 121.74 C 151.96 122.40 151.98 123.45 152.64 124.09 C 153.29 124.72 154.34 124.71 154.98 124.05 L 155.76 123.25 C 156.40 122.59 156.38 121.54 155.72 120.90 C 155.06 120.27 154.02 120.28 153.38 120.94 Z M 152.56 121.78 L 151.63 122.80 C 151.01 123.48 151.06 124.54 151.74 125.15 C 152.42 125.77 153.48 125.72 154.10 125.04 L 155.03 124.02 C 155.64 123.34 155.59 122.28 154.91 121.66 C 154.23 121.04 153.18 121.09 152.56 121.78 Z M 151.55 122.87 L 150.93 123.65 C 150.35 124.37 150.47 125.42 151.19 126.00 C 151.92 126.58 152.97 126.46 153.55 125.74 L 154.17 124.97 C 154.75 124.25 154.63 123.19 153.91 122.61 C 153.19 122.03 152.13 122.15 151.55 122.87 Z M 150.73 123.94 L 150.53 124.35 C 150.11 125.18 150.45 126.19 151.28 126.61 C 152.11 127.03 153.13 126.69 153.54 125.86 L 153.75 125.45 C 154.16 124.62 153.83 123.61 153.00 123.19 C 152.16 122.77 151.15 123.11 150.73 123.94 Z M 152.50 126.72 L 152.94 126.60 C 153.84 126.34 154.36 125.41 154.10 124.51 C 153.85 123.62 152.91 123.10 152.02 123.35 L 151.57 123.48 C 150.68 123.73 150.16 124.67 150.41 125.56 C 150.67 126.46 151.60 126.98 152.50 126.72 Z M 153.42 126.38 L 154.40 125.72 C 155.18 125.20 155.39 124.15 154.87 123.38 C 154.35 122.61 153.31 122.40 152.53 122.91 L 151.54 123.57 C 150.77 124.09 150.56 125.14 151.08 125.91 C 151.59 126.68 152.64 126.89 153.42 126.38 Z M 154.48 125.66 L 155.44 124.94 C 156.18 124.38 156.34 123.33 155.78 122.58 C 155.22 121.84 154.17 121.69 153.43 122.25 L 152.46 122.97 C 151.72 123.53 151.57 124.58 152.13 125.32 C 152.68 126.06 153.73 126.22 154.48 125.66 Z M 155.47 124.91 L 156.23 124.30 C 156.96 123.73 157.09 122.68 156.52 121.96 C 155.95 121.23 154.89 121.10 154.17 121.67 L 153.40 122.28 C 152.68 122.85 152.55 123.90 153.12 124.62 C 153.69 125.35 154.74 125.48 155.47 124.91 Z M 156.24 124.29 L 157.02 123.66 C 157.74 123.09 157.85 122.04 157.28 121.32 C 156.71 120.61 155.66 120.49 154.94 121.07 L 154.16 121.69 C 153.44 122.27 153.33 123.31 153.90 124.03 C 154.48 124.75 155.52 124.86 156.24 124.29 Z M 157.02 123.65 L 157.82 123.01 C 158.53 122.44 158.64 121.40 158.07 120.68 C 157.50 119.97 156.46 119.86 155.75 120.43 L 154.95 121.07 C 154.23 121.65 154.12 122.69 154.69 123.40 C 155.27 124.11 156.31 124.22 157.02 123.65 Z M 157.81 123.01 L 158.59 122.38 C 159.30 121.81 159.42 120.78 158.86 120.07 C 158.29 119.36 157.26 119.24 156.55 119.81 L 155.76 120.43 C 155.05 121.00 154.93 122.03 155.50 122.74 C 156.06 123.45 157.10 123.57 157.81 123.01 Z M 158.58 122.38 L 159.36 121.77 C 160.07 121.22 160.19 120.19 159.64 119.48 C 159.08 118.77 158.05 118.64 157.34 119.20 L 156.56 119.81 C 155.85 120.36 155.73 121.39 156.28 122.10 C 156.84 122.81 157.87 122.94 158.58 122.38 Z M 159.34 121.77 L 160.13 121.16 C 160.84 120.62 160.98 119.60 160.43 118.88 C 159.88 118.17 158.86 118.04 158.15 118.59 L 157.36 119.20 C 156.65 119.74 156.51 120.76 157.06 121.47 C 157.61 122.19 158.63 122.32 159.34 121.77 Z M 160.12 121.16 L 160.92 120.55 C 161.64 120.02 161.78 119.00 161.24 118.29 C 160.70 117.58 159.69 117.44 158.98 117.97 L 158.17 118.58 C 157.46 119.12 157.32 120.13 157.85 120.85 C 158.39 121.56 159.40 121.70 160.12 121.16 Z M 160.91 120.56 L 161.72 119.95 C 162.44 119.43 162.59 118.42 162.06 117.71 C 161.53 116.99 160.52 116.84 159.81 117.37 L 159.00 117.97 C 158.28 118.50 158.13 119.51 158.66 120.22 C 159.19 120.93 160.19 121.08 160.91 120.56 Z M 161.71 119.95 L 162.52 119.36 C 163.24 118.84 163.39 117.84 162.88 117.13 C 162.36 116.41 161.36 116.26 160.64 116.78 L 159.83 117.37 C 159.11 117.89 158.96 118.89 159.47 119.60 C 159.99 120.31 160.99 120.47 161.71 119.95 Z M 162.51 119.36 L 163.33 118.77 C 164.04 118.25 164.20 117.26 163.69 116.55 C 163.17 115.84 162.18 115.68 161.47 116.19 L 160.65 116.78 C 159.94 117.29 159.78 118.29 160.29 119.00 C 160.81 119.71 161.80 119.87 162.51 119.36 Z M 163.33 118.76 L 164.14 118.17 C 164.84 117.66 165.00 116.67 164.49 115.96 C 163.98 115.26 162.99 115.10 162.28 115.61 L 161.47 116.20 C 160.76 116.71 160.60 117.70 161.12 118.41 C 161.63 119.12 162.62 119.27 163.33 118.76 Z M 164.14 118.16 L 164.93 117.58 C 165.63 117.06 165.78 116.08 165.27 115.38 C 164.75 114.68 163.77 114.53 163.07 115.04 L 162.27 115.62 C 161.57 116.14 161.42 117.13 161.94 117.83 C 162.45 118.53 163.44 118.68 164.14 118.16 Z M 164.95 117.56 L 165.76 116.95 C 166.45 116.43 166.59 115.44 166.06 114.75 C 165.54 114.06 164.56 113.92 163.86 114.44 L 163.05 115.06 C 162.36 115.58 162.22 116.56 162.75 117.26 C 163.27 117.95 164.25 118.08 164.95 117.56 Z M 165.78 116.93 L 166.57 116.31 C 167.25 115.78 167.37 114.80 166.84 114.11 C 166.31 113.43 165.32 113.31 164.64 113.84 L 163.85 114.46 C 163.16 114.99 163.04 115.98 163.58 116.66 C 164.11 117.34 165.09 117.46 165.78 116.93 Z M 166.59 116.29 L 167.36 115.67 C 168.03 115.12 168.13 114.14 167.59 113.47 C 167.05 112.80 166.06 112.69 165.39 113.24 L 164.62 113.86 C 163.95 114.41 163.84 115.39 164.39 116.06 C 164.93 116.73 165.92 116.84 166.59 116.29 Z M 167.38 115.65 L 168.14 115.01 C 168.80 114.45 168.88 113.47 168.32 112.81 C 167.76 112.15 166.78 112.07 166.12 112.62 L 165.37 113.26 C 164.71 113.82 164.62 114.80 165.18 115.46 C 165.74 116.12 166.72 116.20 167.38 115.65 Z M 168.16 114.99 L 168.91 114.33 C 169.56 113.75 169.62 112.77 169.05 112.12 C 168.48 111.48 167.49 111.41 166.84 111.98 L 166.10 112.65 C 165.45 113.22 165.39 114.20 165.96 114.85 C 166.53 115.50 167.51 115.56 168.16 114.99 Z M 168.93 114.31 L 169.67 113.63 C 170.30 113.05 170.35 112.06 169.77 111.43 C 169.18 110.79 168.20 110.75 167.56 111.33 L 166.82 112.00 C 166.19 112.59 166.14 113.57 166.73 114.21 C 167.31 114.84 168.29 114.89 168.93 114.31 Z M 169.68 113.62 L 170.41 112.93 C 171.04 112.34 171.07 111.36 170.48 110.73 C 169.89 110.10 168.90 110.07 168.27 110.66 L 167.55 111.34 C 166.92 111.93 166.89 112.92 167.48 113.55 C 168.07 114.18 169.05 114.21 169.68 113.62 Z M 170.42 112.93 L 171.14 112.24 C 171.77 111.64 171.79 110.65 171.20 110.03 C 170.60 109.41 169.62 109.38 168.99 109.98 L 168.27 110.66 C 167.64 111.26 167.62 112.25 168.21 112.87 C 168.81 113.50 169.79 113.52 170.42 112.93 Z M 171.14 112.24 L 171.28 112.10 C 171.91 111.51 171.93 110.52 171.34 109.90 C 170.74 109.27 169.75 109.25 169.13 109.84 L 168.99 109.98 C 168.37 110.57 168.34 111.56 168.94 112.18 C 169.53 112.81 170.52 112.83 171.14 112.24 Z"
      fill="black"
      fill-rule="nonzero" /><path d="M 148.90 103.41 L 148.23 104.22 C 147.64 104.93 147.74 105.98 148.45 106.56 C 149.16 107.15 150.21 107.05 150.79 106.34 L 151.46 105.53 C 152.05 104.83 151.95 103.78 151.24 103.19 C 150.53 102.61 149.49 102.71 148.90 103.41 Z M 148.19 104.23 L 147.55 105.04 C 146.97 105.77 147.09 106.83 147.82 107.41 C 148.55 107.99 149.61 107.87 150.19 107.14 L 150.83 106.33 C 151.41 105.60 151.29 104.54 150.56 103.96 C 149.83 103.38 148.77 103.50 148.19 104.23 Z M 147.48 105.08 L 146.90 105.88 C 146.35 106.65 146.52 107.72 147.28 108.28 C 148.05 108.83 149.12 108.66 149.68 107.89 L 150.26 107.10 C 150.81 106.33 150.64 105.26 149.88 104.70 C 149.11 104.15 148.04 104.32 147.48 105.08 Z M 146.81 105.97 L 146.32 106.77 C 145.81 107.59 146.06 108.66 146.88 109.17 C 147.70 109.67 148.77 109.42 149.28 108.60 L 149.77 107.80 C 150.28 106.99 150.02 105.91 149.21 105.41 C 148.39 104.90 147.32 105.15 146.81 105.97 Z M 146.20 106.94 L 145.76 107.89 C 145.35 108.77 145.73 109.81 146.61 110.23 C 147.49 110.64 148.54 110.26 148.95 109.38 L 149.39 108.43 C 149.80 107.55 149.42 106.50 148.54 106.09 C 147.66 105.68 146.62 106.06 146.20 106.94 Z M 145.67 108.10 L 145.37 109.04 C 145.08 109.97 145.60 110.97 146.53 111.26 C 147.46 111.55 148.45 111.03 148.75 110.10 L 149.04 109.16 C 149.34 108.23 148.82 107.24 147.88 106.94 C 146.95 106.65 145.96 107.17 145.67 108.10 Z M 145.31 109.24 L 145.13 110.19 C 144.95 111.15 145.58 112.08 146.55 112.27 C 147.51 112.45 148.44 111.82 148.63 110.85 L 148.81 109.90 C 148.99 108.94 148.36 108.01 147.39 107.82 C 146.43 107.64 145.49 108.27 145.31 109.24 Z M 145.10 110.34 L 145.00 111.30 C 144.91 112.28 145.62 113.16 146.61 113.25 C 147.59 113.35 148.46 112.64 148.56 111.65 L 148.66 110.70 C 148.76 109.71 148.04 108.84 147.06 108.74 C 146.07 108.64 145.20 109.36 145.10 110.34 Z M 144.99 111.41 L 144.96 112.40 C 144.92 113.38 145.69 114.21 146.68 114.25 C 147.67 114.29 148.50 113.52 148.54 112.53 L 148.57 111.54 C 148.61 110.55 147.84 109.72 146.85 109.69 C 145.86 109.65 145.03 110.42 144.99 111.41 Z M 144.95 112.47 L 144.96 113.49 C 144.96 114.48 145.76 115.28 146.75 115.28 C 147.74 115.28 148.54 114.47 148.54 113.49 L 148.54 112.46 C 148.54 111.47 147.73 110.67 146.74 110.67 C 145.75 110.67 144.95 111.48 144.95 112.47 Z M 144.96 113.53 L 144.98 114.46 C 145.00 115.45 145.81 116.24 146.80 116.22 C 147.79 116.20 148.58 115.38 148.56 114.39 L 148.54 113.45 C 148.52 112.46 147.70 111.68 146.71 111.70 C 145.72 111.72 144.94 112.54 144.96 113.53 Z M 144.98 114.49 L 145.01 115.41 C 145.04 116.40 145.87 117.18 146.86 117.14 C 147.85 117.11 148.63 116.28 148.59 115.29 L 148.56 114.37 C 148.52 113.38 147.69 112.60 146.71 112.64 C 145.72 112.67 144.94 113.50 144.98 114.49 Z M 145.01 115.45 L 145.07 116.44 C 145.12 117.43 145.96 118.19 146.95 118.14 C 147.94 118.08 148.70 117.24 148.64 116.25 L 148.59 115.25 C 148.54 114.26 147.69 113.51 146.70 113.56 C 145.71 113.61 144.96 114.46 145.01 115.45 Z M 145.07 116.49 L 145.15 117.58 C 145.23 118.57 146.09 119.31 147.08 119.23 C 148.07 119.15 148.80 118.29 148.73 117.31 L 148.64 116.21 C 148.56 115.22 147.70 114.48 146.72 114.56 C 145.73 114.64 144.99 115.50 145.07 116.49 Z M 145.16 117.62 L 145.26 118.65 C 145.36 119.63 146.24 120.35 147.22 120.25 C 148.20 120.16 148.92 119.28 148.82 118.29 L 148.72 117.27 C 148.62 116.28 147.75 115.56 146.76 115.66 C 145.78 115.76 145.06 116.64 145.16 117.62 Z M 145.27 118.68 L 145.38 119.68 C 145.49 120.66 146.38 121.36 147.36 121.25 C 148.34 121.14 149.05 120.25 148.93 119.27 L 148.82 118.27 C 148.71 117.29 147.82 116.58 146.84 116.70 C 145.86 116.81 145.15 117.69 145.27 118.68 Z M 145.39 119.70 L 145.51 120.72 C 145.64 121.70 146.53 122.40 147.51 122.27 C 148.49 122.15 149.18 121.26 149.06 120.28 L 148.93 119.25 C 148.81 118.27 147.91 117.58 146.93 117.70 C 145.96 117.83 145.26 118.72 145.39 119.70 Z M 145.52 120.74 L 145.65 121.75 C 145.78 122.73 146.68 123.42 147.66 123.29 C 148.63 123.16 149.32 122.26 149.19 121.28 L 149.05 120.27 C 148.92 119.29 148.03 118.60 147.05 118.73 C 146.07 118.86 145.39 119.76 145.52 120.74 Z M 145.66 121.76 L 145.79 122.74 C 145.93 123.71 146.83 124.39 147.80 124.26 C 148.78 124.12 149.46 123.22 149.32 122.25 L 149.19 121.27 C 149.05 120.30 148.15 119.62 147.18 119.76 C 146.20 119.89 145.52 120.79 145.66 121.76 Z M 145.80 122.75 L 145.95 123.78 C 146.09 124.75 146.99 125.43 147.96 125.29 C 148.93 125.15 149.60 124.25 149.46 123.28 L 149.32 122.24 C 149.18 121.27 148.28 120.60 147.31 120.74 C 146.33 120.88 145.66 121.77 145.80 122.75 Z M 145.95 123.79 L 146.10 124.82 C 146.24 125.79 147.14 126.46 148.11 126.32 C 149.08 126.18 149.75 125.28 149.61 124.31 L 149.46 123.28 C 149.32 122.31 148.42 121.64 147.45 121.78 C 146.48 121.92 145.81 122.82 145.95 123.79 Z M 146.11 124.82 L 146.25 125.78 C 146.39 126.74 147.28 127.41 148.24 127.27 C 149.21 127.13 149.88 126.24 149.74 125.28 L 149.60 124.32 C 149.46 123.36 148.57 122.69 147.61 122.82 C 146.64 122.96 145.97 123.85 146.11 124.82 Z M 146.25 125.76 L 146.38 126.69 C 146.51 127.65 147.39 128.32 148.35 128.19 C 149.32 128.06 149.99 127.18 149.86 126.22 L 149.73 125.29 C 149.60 124.33 148.72 123.66 147.76 123.79 C 146.80 123.92 146.12 124.80 146.25 125.76 Z M 146.38 126.67 L 146.50 127.61 C 146.62 128.57 147.49 129.25 148.45 129.13 C 149.41 129.01 150.09 128.14 149.97 127.18 L 149.85 126.24 C 149.74 125.28 148.86 124.60 147.90 124.72 C 146.94 124.84 146.26 125.71 146.38 126.67 Z M 146.50 127.59 L 146.61 128.57 C 146.72 129.52 147.58 130.21 148.54 130.11 C 149.49 130.00 150.18 129.14 150.08 128.18 L 149.97 127.20 C 149.86 126.25 149.00 125.56 148.04 125.66 C 147.09 125.77 146.40 126.63 146.50 127.59 Z M 146.61 128.55 L 146.71 129.55 C 146.81 130.50 147.66 131.20 148.62 131.10 C 149.57 131.01 150.27 130.16 150.18 129.20 L 150.08 128.20 C 149.98 127.24 149.13 126.55 148.17 126.64 C 147.21 126.74 146.52 127.59 146.61 128.55 Z M 146.72 129.53 L 146.81 130.55 C 146.89 131.50 147.74 132.21 148.69 132.12 C 149.65 132.03 150.35 131.19 150.26 130.24 L 150.17 129.22 C 150.09 128.26 149.24 127.56 148.29 127.65 C 147.33 127.73 146.63 128.57 146.72 129.53 Z M 146.81 130.53 L 146.89 131.52 C 146.97 132.48 147.80 133.19 148.76 133.11 C 149.71 133.03 150.42 132.20 150.34 131.25 L 150.26 130.25 C 150.18 129.30 149.35 128.59 148.40 128.67 C 147.44 128.74 146.73 129.58 146.81 130.53 Z M 146.89 131.51 L 146.97 132.49 C 147.03 133.44 147.86 134.16 148.81 134.09 C 149.76 134.02 150.48 133.19 150.41 132.24 L 150.34 131.26 C 150.27 130.31 149.44 129.59 148.49 129.66 C 147.54 129.73 146.83 130.56 146.89 131.51 Z M 146.97 132.48 L 147.03 133.47 C 147.09 134.42 147.91 135.14 148.86 135.08 C 149.81 135.02 150.53 134.20 150.47 133.25 L 150.41 132.26 C 150.35 131.31 149.53 130.59 148.58 130.65 C 147.63 130.71 146.91 131.53 146.97 132.48 Z M 147.03 133.46 L 147.09 134.47 C 147.14 135.42 147.95 136.15 148.90 136.09 C 149.85 136.04 150.57 135.23 150.52 134.28 L 150.47 133.27 C 150.41 132.32 149.60 131.60 148.66 131.65 C 147.71 131.70 146.98 132.51 147.03 133.46 Z M 147.09 134.46 L 147.14 135.45 C 147.18 136.39 147.99 137.13 148.93 137.08 C 149.88 137.04 150.61 136.24 150.56 135.29 L 150.52 134.30 C 150.47 133.35 149.67 132.62 148.73 132.67 C 147.78 132.71 147.05 133.51 147.09 134.46 Z M 147.14 135.44 L 147.18 136.40 C 147.22 137.35 148.01 138.08 148.96 138.04 C 149.90 138.01 150.64 137.21 150.60 136.27 L 150.56 135.30 C 150.52 134.36 149.73 133.62 148.79 133.66 C 147.84 133.70 147.11 134.49 147.14 135.44 Z M 147.18 136.39 L 147.22 137.38 C 147.24 138.32 148.03 139.06 148.97 139.03 C 149.92 139.00 150.66 138.21 150.63 137.27 L 150.60 136.28 C 150.57 135.34 149.78 134.60 148.84 134.63 C 147.89 134.66 147.15 135.45 147.18 136.39 Z M 147.22 137.37 L 147.24 138.38 C 147.27 139.32 148.05 140.07 148.99 140.04 C 149.93 140.02 150.67 139.24 150.65 138.30 L 150.62 137.28 C 150.60 136.34 149.82 135.60 148.88 135.62 C 147.94 135.65 147.20 136.43 147.22 137.37 Z M 147.25 138.37 L 147.26 139.42 C 147.28 140.35 148.06 141.10 148.99 141.08 C 149.93 141.07 150.68 140.29 150.66 139.36 L 150.64 138.31 C 150.63 137.37 149.85 136.63 148.92 136.64 C 147.98 136.66 147.23 137.43 147.25 138.37 Z M 147.27 139.40 L 147.28 140.40 C 147.29 141.34 148.06 142.09 148.99 142.08 C 149.93 142.06 150.68 141.30 150.67 140.36 L 150.66 139.37 C 150.65 138.43 149.88 137.68 148.94 137.69 C 148.01 137.70 147.26 138.47 147.27 139.40 Z M 147.28 140.39 L 147.29 141.40 C 147.30 142.33 148.06 143.08 148.99 143.08 C 149.93 143.07 150.68 142.31 150.67 141.37 L 150.67 140.37 C 150.66 139.43 149.90 138.68 148.96 138.69 C 148.03 138.70 147.28 139.46 147.28 140.39 Z M 147.30 141.39 L 147.30 142.40 C 147.30 143.33 148.06 144.09 148.99 144.08 C 149.92 144.08 150.68 143.32 150.67 142.39 L 150.67 141.38 C 150.67 140.45 149.91 139.70 148.98 139.70 C 148.04 139.70 147.29 140.46 147.30 141.39 Z M 147.30 142.40 L 147.30 143.40 C 147.31 144.33 148.06 145.08 148.99 145.08 C 149.92 145.08 150.67 144.33 150.67 143.40 L 150.67 142.39 C 150.67 141.46 149.91 140.71 148.98 140.71 C 148.05 140.71 147.30 141.47 147.30 142.40 Z M 147.31 143.40 L 147.31 144.39 C 147.31 145.32 148.06 146.07 148.99 146.07 C 149.91 146.07 150.66 145.32 150.66 144.39 L 150.66 143.40 C 150.66 142.47 149.91 141.72 148.99 141.72 C 148.06 141.72 147.31 142.48 147.31 143.40 Z M 147.31 144.39 L 147.31 145.42 C 147.31 146.35 148.06 147.10 148.99 147.10 C 149.91 147.10 150.66 146.35 150.66 145.42 L 150.66 144.39 C 150.66 143.47 149.91 142.72 148.99 142.72 C 148.06 142.72 147.31 143.47 147.31 144.39 Z M 147.32 145.42 L 147.32 146.43 C 147.32 147.36 148.06 148.10 148.99 148.10 C 149.91 148.10 150.66 147.36 150.66 146.43 L 150.66 145.42 C 150.66 144.50 149.91 143.75 148.99 143.75 C 148.06 143.75 147.32 144.50 147.32 145.42 Z M 147.32 146.43 L 147.32 147.43 C 147.32 148.35 148.07 149.09 148.99 149.09 C 149.91 149.09 150.65 148.35 150.65 147.43 L 150.65 146.43 C 150.65 145.51 149.91 144.77 148.99 144.77 C 148.07 144.77 147.32 145.51 147.32 146.43 Z M 147.32 147.43 L 147.32 148.41 C 147.32 149.32 148.07 150.07 148.99 150.07 C 149.91 150.07 150.65 149.32 150.65 148.41 L 150.65 147.43 C 150.65 146.51 149.91 145.76 148.99 145.76 C 148.07 145.76 147.32 146.51 147.32 147.43 Z M 147.33 148.41 L 147.33 149.39 C 147.33 150.31 148.07 151.05 148.99 151.05 C 149.90 151.05 150.65 150.31 150.65 149.39 L 150.65 148.41 C 150.65 147.49 149.90 146.75 148.99 146.75 C 148.07 146.75 147.33 147.49 147.33 148.41 Z M 147.33 149.39 L 147.33 150.38 C 147.33 151.30 148.07 152.04 148.99 152.04 C 149.90 152.04 150.64 151.30 150.64 150.39 L 150.64 149.39 C 150.64 148.48 149.90 147.73 148.99 147.73 C 148.07 147.73 147.33 148.47 147.33 149.39 Z M 147.34 150.38 L 147.33 151.38 C 147.33 152.29 148.07 153.03 148.98 153.03 C 149.89 153.04 150.63 152.30 150.64 151.39 L 150.64 150.39 C 150.64 149.48 149.90 148.74 148.99 148.73 C 148.08 148.73 147.34 149.47 147.34 150.38 Z M 147.34 151.37 L 147.33 152.37 C 147.33 153.28 148.06 154.03 148.97 154.03 C 149.88 154.04 150.62 153.30 150.63 152.39 L 150.63 151.39 C 150.64 150.48 149.90 149.74 148.99 149.73 C 148.08 149.73 147.34 150.46 147.34 151.37 Z M 147.33 152.37 L 147.32 153.37 C 147.31 154.28 148.04 155.02 148.95 155.03 C 149.86 155.04 150.60 154.31 150.61 153.41 L 150.62 152.40 C 150.63 151.49 149.90 150.75 149.00 150.74 C 148.09 150.73 147.34 151.46 147.33 152.37 Z M 147.33 153.36 L 147.31 154.36 C 147.30 155.27 148.02 156.01 148.92 156.03 C 149.83 156.04 150.58 155.32 150.59 154.41 L 150.61 153.42 C 150.62 152.51 149.90 151.76 148.99 151.75 C 148.09 151.73 147.34 152.46 147.33 153.36 Z M 147.31 154.35 L 147.29 155.35 C 147.27 156.25 147.98 157.00 148.89 157.02 C 149.79 157.05 150.54 156.33 150.56 155.43 L 150.59 154.43 C 150.61 153.52 149.89 152.77 148.99 152.75 C 148.09 152.73 147.34 153.45 147.31 154.35 Z M 147.29 155.34 L 147.26 156.34 C 147.23 157.24 147.94 157.99 148.84 158.02 C 149.74 158.05 150.50 157.34 150.53 156.44 L 150.56 155.44 C 150.59 154.54 149.88 153.78 148.98 153.76 C 148.08 153.73 147.32 154.43 147.29 155.34 Z M 147.27 156.32 L 147.22 157.32 C 147.19 158.22 147.88 158.98 148.78 159.02 C 149.68 159.06 150.44 158.36 150.48 157.46 L 150.52 156.46 C 150.56 155.56 149.86 154.80 148.96 154.76 C 148.06 154.72 147.30 155.42 147.27 156.32 Z M 147.23 157.30 L 147.17 158.30 C 147.12 159.20 147.81 159.97 148.71 160.02 C 149.61 160.06 150.37 159.38 150.42 158.48 L 150.48 157.48 C 150.53 156.58 149.84 155.81 148.94 155.77 C 148.04 155.72 147.28 156.40 147.23 157.30 Z M 147.18 158.28 L 147.11 159.29 C 147.05 160.19 147.73 160.96 148.62 161.02 C 149.52 161.08 150.29 160.40 150.35 159.51 L 150.42 158.50 C 150.48 157.60 149.80 156.83 148.91 156.77 C 148.01 156.71 147.24 157.39 147.18 158.28 Z M 147.11 159.28 L 147.04 160.28 C 146.97 161.17 147.64 161.95 148.53 162.02 C 149.42 162.09 150.20 161.42 150.27 160.53 L 150.35 159.53 C 150.41 158.63 149.75 157.86 148.85 157.79 C 147.96 157.72 147.18 158.39 147.11 159.28 Z M 147.04 160.27 L 146.96 161.26 C 146.88 162.15 147.54 162.94 148.43 163.01 C 149.32 163.08 150.11 162.42 150.18 161.53 L 150.26 160.54 C 150.34 159.65 149.68 158.87 148.79 158.79 C 147.90 158.72 147.12 159.38 147.04 160.27 Z M 146.96 161.26 L 146.88 162.24 C 146.80 163.13 147.45 163.91 148.34 163.99 C 149.23 164.07 150.01 163.41 150.09 162.52 L 150.18 161.54 C 150.26 160.65 149.60 159.87 148.71 159.79 C 147.83 159.71 147.04 160.37 146.96 161.26 Z M 146.88 162.24 L 146.79 163.16 C 146.71 164.05 147.37 164.83 148.25 164.91 C 149.14 164.99 149.92 164.34 150.00 163.45 L 150.09 162.53 C 150.17 161.64 149.51 160.86 148.63 160.78 C 147.74 160.70 146.96 161.35 146.88 162.24 Z M 146.80 163.16 L 146.71 164.08 C 146.64 164.96 147.29 165.74 148.17 165.82 C 149.06 165.90 149.84 165.25 149.92 164.36 L 150.00 163.45 C 150.08 162.56 149.43 161.78 148.54 161.70 C 147.66 161.62 146.88 162.28 146.80 163.16 Z M 146.72 164.08 L 146.63 165.04 C 146.56 165.92 147.21 166.70 148.10 166.78 C 148.98 166.85 149.76 166.20 149.83 165.31 L 149.92 164.36 C 149.99 163.47 149.34 162.70 148.45 162.62 C 147.57 162.54 146.79 163.20 146.72 164.08 Z M 146.64 165.05 L 146.55 166.07 C 146.48 166.96 147.14 167.73 148.02 167.80 C 148.91 167.87 149.68 167.21 149.75 166.33 L 149.83 165.30 C 149.90 164.42 149.24 163.65 148.36 163.58 C 147.48 163.51 146.71 164.17 146.64 165.05 Z M 146.56 166.09 L 146.47 167.21 C 146.41 168.10 147.07 168.86 147.95 168.93 C 148.83 168.99 149.60 168.33 149.67 167.45 L 149.75 166.32 C 149.81 165.44 149.15 164.67 148.27 164.61 C 147.39 164.54 146.62 165.21 146.56 166.09 Z M 146.48 167.23 L 146.41 168.18 C 146.35 169.06 147.02 169.82 147.90 169.88 C 148.78 169.94 149.54 169.27 149.60 168.39 L 149.66 167.44 C 149.72 166.56 149.06 165.80 148.17 165.74 C 147.29 165.68 146.53 166.35 146.48 167.23 Z M 146.41 168.19 L 146.36 169.17 C 146.30 170.05 146.97 170.80 147.85 170.85 C 148.73 170.91 149.49 170.24 149.54 169.36 L 149.60 168.38 C 149.65 167.50 148.98 166.75 148.10 166.70 C 147.22 166.64 146.47 167.31 146.41 168.19 Z M 146.36 169.18 L 146.30 170.19 C 146.26 171.07 146.93 171.82 147.81 171.86 C 148.69 171.91 149.44 171.24 149.48 170.36 L 149.54 169.35 C 149.58 168.47 148.91 167.72 148.03 167.67 C 147.15 167.63 146.40 168.30 146.36 169.18 Z M 146.31 170.20 L 146.26 171.24 C 146.22 172.11 146.90 172.86 147.77 172.90 C 148.65 172.94 149.39 172.26 149.43 171.38 L 149.48 170.35 C 149.52 169.47 148.84 168.73 147.97 168.69 C 147.09 168.65 146.35 169.33 146.31 170.20 Z M 146.26 171.25 L 146.22 172.28 C 146.19 173.16 146.87 173.90 147.75 173.93 C 148.63 173.96 149.36 173.28 149.39 172.40 L 149.43 171.37 C 149.47 170.49 148.78 169.75 147.91 169.72 C 147.03 169.69 146.29 170.37 146.26 171.25 Z M 146.22 172.30 L 146.20 173.32 C 146.17 174.19 146.87 174.92 147.74 174.94 C 148.62 174.97 149.34 174.27 149.37 173.40 L 149.39 172.38 C 149.42 171.51 148.72 170.78 147.85 170.76 C 146.97 170.73 146.25 171.43 146.22 172.30 Z M 146.20 173.34 L 146.19 174.37 C 146.18 175.24 146.87 175.96 147.75 175.97 C 148.62 175.98 149.34 175.28 149.35 174.41 L 149.36 173.38 C 149.38 172.50 148.68 171.79 147.80 171.78 C 146.93 171.77 146.21 172.46 146.20 173.34 Z M 146.19 174.39 L 146.19 175.47 C 146.20 176.34 146.91 177.04 147.78 177.04 C 148.65 177.04 149.35 176.33 149.35 175.45 L 149.35 174.38 C 149.34 173.51 148.64 172.80 147.76 172.81 C 146.89 172.81 146.19 173.52 146.19 174.39 Z M 146.20 175.49 L 146.22 176.51 C 146.23 177.38 146.95 178.08 147.82 178.06 C 148.69 178.04 149.38 177.32 149.37 176.45 L 149.35 175.43 C 149.33 174.56 148.61 173.87 147.74 173.88 C 146.87 173.90 146.18 174.62 146.20 175.49 Z M 146.22 176.54 L 146.25 177.52 C 146.28 178.39 147.01 179.07 147.88 179.04 C 148.74 179.01 149.42 178.29 149.40 177.42 L 149.36 176.43 C 149.34 175.56 148.61 174.88 147.74 174.91 C 146.87 174.94 146.19 175.67 146.22 176.54 Z M 146.26 177.54 L 146.30 178.49 C 146.33 179.36 147.06 180.03 147.93 179.99 C 148.80 179.96 149.47 179.23 149.43 178.36 L 149.39 177.40 C 149.36 176.54 148.62 175.86 147.76 175.90 C 146.89 175.94 146.22 176.67 146.26 177.54 Z M 146.30 178.50 L 146.34 179.44 C 146.39 180.31 147.12 180.97 147.99 180.93 C 148.85 180.89 149.52 180.16 149.48 179.29 L 149.43 178.35 C 149.39 177.49 148.65 176.82 147.79 176.86 C 146.92 176.90 146.26 177.64 146.30 178.50 Z M 146.35 179.45 L 146.36 179.77 C 146.41 180.63 147.14 181.30 148.00 181.26 C 148.87 181.21 149.53 180.48 149.49 179.61 L 149.47 179.29 C 149.43 178.43 148.70 177.76 147.83 177.81 C 146.97 177.85 146.30 178.58 146.35 179.45 Z"
      fill="black"
      fill-rule="nonzero" /><path d="M 157.85 147.66 L 158.84 147.91 C 159.75 148.14 160.68 147.58 160.92 146.67 C 161.15 145.75 160.59 144.82 159.68 144.59 L 158.69 144.34 C 157.77 144.10 156.84 144.66 156.61 145.58 C 156.38 146.49 156.93 147.42 157.85 147.66 Z M 158.89 147.94 L 159.87 148.15 C 160.81 148.36 161.73 147.76 161.93 146.83 C 162.14 145.89 161.54 144.97 160.61 144.77 L 159.63 144.55 C 158.69 144.35 157.77 144.94 157.56 145.88 C 157.36 146.81 157.95 147.74 158.89 147.94 Z M 159.99 148.20 L 160.97 148.34 C 161.93 148.48 162.82 147.81 162.96 146.85 C 163.09 145.89 162.43 145.00 161.47 144.87 L 160.49 144.72 C 159.53 144.59 158.64 145.25 158.51 146.21 C 158.37 147.17 159.03 148.06 159.99 148.20 Z M 161.16 148.37 L 162.12 148.40 C 163.09 148.43 163.91 147.67 163.94 146.70 C 163.98 145.72 163.22 144.91 162.24 144.87 L 161.28 144.84 C 160.31 144.80 159.49 145.56 159.46 146.54 C 159.42 147.51 160.18 148.33 161.16 148.37 Z M 162.34 148.38 L 163.28 148.29 C 164.24 148.21 164.95 147.35 164.87 146.39 C 164.78 145.43 163.93 144.72 162.96 144.80 L 162.02 144.89 C 161.06 144.98 160.35 145.83 160.43 146.79 C 160.52 147.76 161.38 148.47 162.34 148.38 Z M 163.46 148.24 L 164.43 148.04 C 165.36 147.85 165.96 146.94 165.77 146.01 C 165.59 145.08 164.68 144.48 163.74 144.67 L 162.78 144.86 C 161.85 145.05 161.24 145.96 161.43 146.89 C 161.62 147.82 162.53 148.43 163.46 148.24 Z M 164.56 147.98 L 165.57 147.68 C 166.47 147.42 166.98 146.48 166.72 145.58 C 166.46 144.69 165.52 144.17 164.62 144.43 L 163.61 144.73 C 162.71 144.99 162.20 145.93 162.46 146.83 C 162.72 147.73 163.66 148.24 164.56 147.98 Z M 165.65 147.63 L 166.57 147.31 C 167.44 147.00 167.89 146.05 167.59 145.18 C 167.28 144.31 166.33 143.86 165.46 144.16 L 164.54 144.49 C 163.67 144.79 163.22 145.75 163.52 146.62 C 163.83 147.48 164.78 147.94 165.65 147.63 Z M 166.62 147.27 L 167.49 146.93 C 168.34 146.59 168.76 145.64 168.43 144.79 C 168.09 143.94 167.13 143.52 166.29 143.85 L 165.41 144.20 C 164.56 144.53 164.14 145.49 164.48 146.34 C 164.81 147.19 165.77 147.61 166.62 147.27 Z M 167.53 146.90 L 168.44 146.51 C 169.27 146.16 169.66 145.20 169.31 144.37 C 168.96 143.53 168.00 143.14 167.17 143.50 L 166.25 143.88 C 165.42 144.23 165.03 145.19 165.38 146.03 C 165.73 146.86 166.69 147.25 167.53 146.90 Z M 168.47 146.49 L 169.41 146.06 C 170.23 145.70 170.60 144.74 170.24 143.92 C 169.87 143.10 168.91 142.73 168.09 143.10 L 167.14 143.52 C 166.33 143.89 165.96 144.85 166.32 145.66 C 166.69 146.48 167.65 146.85 168.47 146.49 Z M 169.43 146.04 L 170.41 145.59 C 171.21 145.22 171.56 144.26 171.19 143.45 C 170.82 142.65 169.86 142.30 169.05 142.67 L 168.08 143.12 C 167.27 143.50 166.92 144.45 167.29 145.26 C 167.67 146.06 168.62 146.41 169.43 146.04 Z M 170.42 145.57 L 171.28 145.16 C 172.08 144.78 172.42 143.83 172.04 143.03 C 171.66 142.23 170.71 141.89 169.91 142.27 L 169.04 142.69 C 168.25 143.07 167.91 144.02 168.29 144.82 C 168.67 145.61 169.62 145.95 170.42 145.57 Z M 171.30 145.15 L 172.15 144.73 C 172.94 144.34 173.27 143.39 172.89 142.60 C 172.50 141.81 171.55 141.48 170.76 141.87 L 169.90 142.29 C 169.11 142.67 168.78 143.62 169.17 144.41 C 169.55 145.20 170.51 145.53 171.30 145.15 Z M 172.17 144.71 L 173.04 144.27 C 173.83 143.88 174.14 142.93 173.75 142.15 C 173.36 141.36 172.40 141.05 171.62 141.44 L 170.74 141.88 C 169.96 142.27 169.65 143.23 170.04 144.01 C 170.43 144.79 171.38 145.11 172.17 144.71 Z M 173.06 144.26 L 173.96 143.79 C 174.73 143.39 175.03 142.44 174.63 141.67 C 174.23 140.89 173.28 140.59 172.50 140.99 L 171.61 141.46 C 170.83 141.86 170.53 142.81 170.93 143.58 C 171.33 144.36 172.28 144.66 173.06 144.26 Z M 173.97 143.78 L 174.89 143.29 C 175.66 142.88 175.95 141.92 175.54 141.16 C 175.13 140.39 174.17 140.10 173.41 140.51 L 172.49 141.01 C 171.72 141.42 171.43 142.37 171.84 143.13 C 172.25 143.90 173.21 144.19 173.97 143.78 Z M 174.91 143.27 L 175.83 142.76 C 176.59 142.34 176.87 141.39 176.45 140.63 C 176.03 139.87 175.07 139.60 174.32 140.02 L 173.39 140.53 C 172.63 140.95 172.36 141.90 172.78 142.66 C 173.20 143.42 174.15 143.69 174.91 143.27 Z M 175.85 142.75 L 176.68 142.27 C 177.43 141.84 177.69 140.89 177.26 140.14 C 176.83 139.39 175.88 139.13 175.13 139.56 L 174.30 140.03 C 173.55 140.46 173.29 141.41 173.72 142.16 C 174.15 142.91 175.10 143.17 175.85 142.75 Z M 176.69 142.26 L 177.54 141.77 C 178.28 141.34 178.53 140.38 178.10 139.63 C 177.66 138.89 176.71 138.64 175.96 139.07 L 175.12 139.57 C 174.37 140.00 174.12 140.96 174.56 141.70 C 174.99 142.45 175.95 142.70 176.69 142.26 Z M 177.55 141.76 L 178.40 141.25 C 179.15 140.81 179.39 139.85 178.95 139.11 C 178.51 138.37 177.55 138.13 176.81 138.57 L 175.95 139.08 C 175.21 139.52 174.96 140.48 175.41 141.22 C 175.85 141.96 176.81 142.21 177.55 141.76 Z M 178.41 141.25 L 179.28 140.73 C 180.02 140.28 180.25 139.32 179.81 138.58 C 179.36 137.84 178.40 137.61 177.66 138.05 L 176.80 138.57 C 176.06 139.02 175.82 139.98 176.27 140.72 C 176.71 141.46 177.67 141.69 178.41 141.25 Z M 179.28 140.72 L 180.16 140.19 C 180.89 139.74 181.13 138.78 180.68 138.04 C 180.23 137.31 179.27 137.07 178.53 137.52 L 177.66 138.06 C 176.92 138.50 176.69 139.46 177.14 140.20 C 177.59 140.94 178.55 141.17 179.28 140.72 Z M 180.16 140.19 L 181.04 139.65 C 181.77 139.20 182.00 138.24 181.55 137.50 C 181.10 136.77 180.14 136.54 179.41 136.99 L 178.53 137.53 C 177.79 137.98 177.56 138.94 178.01 139.67 C 178.46 140.41 179.42 140.64 180.16 140.19 Z M 181.04 139.65 L 181.50 139.37 C 182.23 138.92 182.46 137.95 182.01 137.22 C 181.56 136.49 180.60 136.26 179.87 136.71 L 179.40 136.99 C 178.67 137.44 178.44 138.40 178.89 139.14 C 179.34 139.87 180.30 140.10 181.04 139.65 Z"
      fill="black"
      fill-rule="nonzero" /><path d="M 156.55 136.39 L 156.67 137.42 C 156.79 138.38 157.66 139.05 158.61 138.94 C 159.56 138.82 160.24 137.96 160.12 137.00 L 159.99 135.97 C 159.88 135.02 159.01 134.34 158.06 134.46 C 157.11 134.57 156.43 135.44 156.55 136.39 Z M 156.67 137.43 L 156.80 138.45 C 156.93 139.40 157.79 140.08 158.75 139.96 C 159.70 139.83 160.37 138.97 160.25 138.01 L 160.12 136.99 C 160.00 136.04 159.13 135.37 158.18 135.49 C 157.23 135.61 156.55 136.48 156.67 137.43 Z M 156.81 138.47 L 156.94 139.46 C 157.08 140.41 157.95 141.07 158.90 140.94 C 159.85 140.81 160.52 139.93 160.38 138.98 L 160.25 137.99 C 160.12 137.04 159.24 136.38 158.29 136.51 C 157.34 136.64 156.67 137.52 156.81 138.47 Z M 156.95 139.49 L 157.09 140.43 C 157.24 141.38 158.13 142.03 159.08 141.88 C 160.03 141.73 160.68 140.84 160.53 139.89 L 160.38 138.95 C 160.23 138.00 159.34 137.36 158.39 137.50 C 157.45 137.65 156.80 138.54 156.95 139.49 Z M 157.10 140.48 L 157.29 141.46 C 157.46 142.41 158.37 143.03 159.31 142.85 C 160.25 142.68 160.88 141.77 160.70 140.83 L 160.52 139.84 C 160.34 138.90 159.44 138.28 158.49 138.45 C 157.55 138.63 156.93 139.53 157.10 140.48 Z M 157.30 141.52 L 157.51 142.48 C 157.72 143.42 158.64 144.01 159.58 143.80 C 160.52 143.60 161.11 142.67 160.90 141.73 L 160.69 140.77 C 160.48 139.83 159.56 139.24 158.62 139.45 C 157.68 139.66 157.09 140.58 157.30 141.52 Z M 157.52 142.54 L 157.76 143.49 C 158.00 144.42 158.95 144.98 159.88 144.74 C 160.81 144.50 161.37 143.56 161.13 142.63 L 160.89 141.68 C 160.65 140.75 159.71 140.19 158.78 140.42 C 157.85 140.66 157.28 141.61 157.52 142.54 Z M 157.78 143.53 L 158.05 144.49 C 158.31 145.41 159.27 145.95 160.19 145.69 C 161.12 145.43 161.65 144.47 161.39 143.54 L 161.12 142.58 C 160.86 141.66 159.90 141.12 158.98 141.38 C 158.05 141.65 157.51 142.61 157.78 143.53 Z M 158.05 144.52 L 158.31 145.38 C 158.59 146.30 159.56 146.82 160.48 146.55 C 161.40 146.27 161.92 145.30 161.65 144.38 L 161.39 143.51 C 161.11 142.59 160.14 142.07 159.22 142.35 C 158.30 142.63 157.78 143.60 158.05 144.52 Z M 158.32 145.40 L 158.61 146.32 C 158.89 147.24 159.87 147.75 160.79 147.46 C 161.71 147.17 162.22 146.19 161.93 145.27 L 161.64 144.35 C 161.35 143.43 160.37 142.93 159.46 143.21 C 158.54 143.50 158.03 144.48 158.32 145.40 Z M 158.61 146.34 L 158.93 147.31 C 159.23 148.23 160.22 148.73 161.13 148.43 C 162.05 148.13 162.55 147.14 162.25 146.22 L 161.93 145.25 C 161.63 144.33 160.64 143.83 159.72 144.13 C 158.81 144.44 158.31 145.42 158.61 146.34 Z M 158.93 147.33 L 159.28 148.37 C 159.59 149.28 160.59 149.77 161.50 149.46 C 162.42 149.15 162.91 148.16 162.60 147.24 L 162.25 146.21 C 161.94 145.29 160.94 144.80 160.03 145.11 C 159.11 145.42 158.62 146.42 158.93 147.33 Z M 159.28 148.39 L 159.63 149.37 C 159.95 150.29 160.95 150.77 161.86 150.45 C 162.78 150.13 163.26 149.13 162.94 148.21 L 162.60 147.23 C 162.28 146.31 161.28 145.83 160.36 146.15 C 159.45 146.47 158.96 147.47 159.28 148.39 Z M 159.63 149.38 L 159.97 150.36 C 160.30 151.28 161.31 151.76 162.23 151.43 C 163.14 151.10 163.62 150.09 163.29 149.18 L 162.94 148.20 C 162.62 147.28 161.61 146.81 160.69 147.13 C 159.78 147.46 159.30 148.47 159.63 149.38 Z M 159.97 150.38 L 160.33 151.35 C 160.67 152.27 161.68 152.74 162.60 152.40 C 163.52 152.07 163.99 151.05 163.65 150.14 L 163.29 149.16 C 162.96 148.24 161.94 147.77 161.03 148.11 C 160.11 148.44 159.64 149.46 159.97 150.38 Z M 160.33 151.37 L 160.68 152.31 C 161.03 153.23 162.05 153.70 162.97 153.35 C 163.89 153.00 164.35 151.98 164.01 151.06 L 163.65 150.12 C 163.31 149.20 162.28 148.74 161.37 149.08 C 160.45 149.43 159.98 150.45 160.33 151.37 Z M 160.68 152.33 L 161.03 153.22 C 161.38 154.13 162.42 154.59 163.34 154.23 C 164.25 153.87 164.71 152.84 164.35 151.92 L 164.01 151.04 C 163.65 150.12 162.62 149.67 161.70 150.03 C 160.78 150.38 160.33 151.42 160.68 152.33 Z M 161.03 153.25 L 161.44 154.24 C 161.81 155.16 162.86 155.60 163.77 155.22 C 164.69 154.85 165.13 153.80 164.75 152.89 L 164.35 151.89 C 163.97 150.98 162.93 150.54 162.01 150.91 C 161.10 151.29 160.66 152.33 161.03 153.25 Z M 161.45 154.29 L 161.87 155.24 C 162.27 156.15 163.33 156.56 164.24 156.16 C 165.14 155.76 165.56 154.71 165.16 153.80 L 164.74 152.85 C 164.34 151.94 163.28 151.53 162.38 151.92 C 161.47 152.32 161.06 153.38 161.45 154.29 Z M 161.89 155.29 L 162.29 156.13 C 162.71 157.03 163.79 157.42 164.68 156.99 C 165.58 156.57 165.96 155.50 165.54 154.60 L 165.14 153.75 C 164.72 152.86 163.65 152.47 162.75 152.90 C 161.85 153.32 161.47 154.39 161.89 155.29 Z M 162.31 156.17 L 162.71 156.98 C 163.16 157.87 164.24 158.23 165.13 157.78 C 166.02 157.34 166.37 156.26 165.93 155.37 L 165.52 154.56 C 165.08 153.67 164.00 153.31 163.11 153.76 C 162.22 154.20 161.86 155.29 162.31 156.17 Z M 162.73 157.01 L 163.18 157.88 C 163.65 158.76 164.74 159.10 165.62 158.64 C 166.50 158.18 166.84 157.09 166.37 156.21 L 165.92 155.34 C 165.45 154.46 164.36 154.12 163.48 154.58 C 162.60 155.04 162.26 156.13 162.73 157.01 Z M 163.20 157.92 L 163.69 158.80 C 164.17 159.67 165.27 159.98 166.14 159.50 C 167.01 159.01 167.32 157.91 166.84 157.04 L 166.35 156.17 C 165.87 155.30 164.77 154.98 163.90 155.47 C 163.03 155.95 162.72 157.05 163.20 157.92 Z M 163.71 158.84 L 164.23 159.71 C 164.74 160.57 165.85 160.85 166.70 160.34 C 167.56 159.83 167.84 158.73 167.33 157.87 L 166.82 157.00 C 166.31 156.14 165.20 155.86 164.34 156.37 C 163.48 156.88 163.20 157.99 163.71 158.84 Z M 164.26 159.77 L 164.80 160.60 C 165.34 161.44 166.45 161.68 167.29 161.15 C 168.13 160.61 168.38 159.49 167.84 158.65 L 167.30 157.82 C 166.76 156.98 165.65 156.73 164.81 157.27 C 163.97 157.81 163.72 158.93 164.26 159.77 Z M 164.83 160.66 L 165.40 161.47 C 165.97 162.29 167.10 162.49 167.92 161.92 C 168.74 161.35 168.94 160.23 168.37 159.41 L 167.80 158.59 C 167.23 157.77 166.10 157.57 165.29 158.14 C 164.47 158.71 164.26 159.84 164.83 160.66 Z M 165.44 161.53 L 166.05 162.33 C 166.65 163.13 167.78 163.29 168.58 162.69 C 169.38 162.09 169.53 160.95 168.93 160.16 L 168.33 159.35 C 167.73 158.56 166.59 158.40 165.80 159.00 C 165.00 159.60 164.84 160.73 165.44 161.53 Z M 166.09 162.39 L 166.73 163.16 C 167.36 163.94 168.50 164.05 169.27 163.42 C 170.04 162.79 170.15 161.65 169.52 160.87 L 168.89 160.10 C 168.26 159.33 167.12 159.21 166.35 159.85 C 165.57 160.48 165.46 161.62 166.09 162.39 Z M 166.77 163.21 L 167.42 163.95 C 168.08 164.69 169.22 164.76 169.97 164.10 C 170.71 163.44 170.78 162.30 170.12 161.56 L 169.48 160.82 C 168.82 160.08 167.68 160.01 166.93 160.67 C 166.18 161.33 166.11 162.47 166.77 163.21 Z M 167.46 163.99 L 168.14 164.72 C 168.83 165.44 169.97 165.47 170.69 164.79 C 171.42 164.10 171.45 162.96 170.77 162.24 L 170.08 161.51 C 169.40 160.79 168.26 160.76 167.53 161.44 C 166.81 162.12 166.77 163.27 167.46 163.99 Z M 168.18 164.75 L 168.91 165.48 C 169.61 166.18 170.75 166.18 171.46 165.47 C 172.16 164.77 172.16 163.63 171.45 162.92 L 170.73 162.20 C 170.02 161.50 168.88 161.50 168.18 162.20 C 167.48 162.91 167.48 164.05 168.18 164.75 Z M 168.95 165.51 L 169.68 166.21 C 170.41 166.89 171.55 166.86 172.23 166.13 C 172.91 165.41 172.88 164.27 172.16 163.59 L 171.42 162.89 C 170.69 162.21 169.56 162.24 168.87 162.96 C 168.19 163.69 168.22 164.83 168.95 165.51 Z M 169.72 166.24 L 170.48 166.91 C 171.22 167.57 172.36 167.51 173.02 166.76 C 173.68 166.02 173.61 164.89 172.87 164.23 L 172.11 163.56 C 171.37 162.90 170.24 162.96 169.58 163.70 C 168.92 164.44 168.98 165.58 169.72 166.24 Z M 170.53 166.95 L 171.31 167.59 C 172.07 168.22 173.20 168.12 173.83 167.35 C 174.46 166.59 174.36 165.46 173.59 164.83 L 172.82 164.19 C 172.06 163.56 170.93 163.67 170.30 164.43 C 169.66 165.19 169.77 166.32 170.53 166.95 Z M 171.37 167.64 L 172.16 168.23 C 172.95 168.83 174.07 168.67 174.66 167.88 C 175.26 167.09 175.10 165.97 174.31 165.38 L 173.53 164.79 C 172.74 164.19 171.62 164.35 171.02 165.14 C 170.43 165.92 170.59 167.04 171.37 167.64 Z M 172.25 168.29 L 173.11 168.86 C 173.93 169.40 175.03 169.18 175.58 168.36 C 176.12 167.54 175.90 166.44 175.08 165.89 L 174.22 165.32 C 173.40 164.78 172.30 165.00 171.75 165.82 C 171.21 166.64 171.43 167.74 172.25 168.29 Z M 173.21 168.91 L 174.09 169.42 C 174.94 169.90 176.02 169.61 176.51 168.76 C 176.99 167.91 176.70 166.83 175.85 166.34 L 174.98 165.84 C 174.13 165.35 173.04 165.64 172.55 166.49 C 172.07 167.34 172.36 168.43 173.21 168.91 Z M 174.19 169.46 L 175.07 169.90 C 175.95 170.33 177.01 169.96 177.44 169.09 C 177.86 168.21 177.50 167.15 176.63 166.72 L 175.75 166.29 C 174.87 165.86 173.81 166.22 173.38 167.10 C 172.95 167.97 173.31 169.03 174.19 169.46 Z M 175.17 169.93 L 176.08 170.31 C 176.97 170.68 178.00 170.26 178.38 169.36 C 178.75 168.47 178.33 167.44 177.43 167.06 L 176.53 166.68 C 175.63 166.31 174.60 166.73 174.22 167.63 C 173.85 168.53 174.27 169.56 175.17 169.93 Z M 176.18 170.34 L 177.13 170.67 C 178.04 170.99 179.04 170.51 179.36 169.60 C 179.68 168.68 179.20 167.68 178.28 167.37 L 177.33 167.03 C 176.42 166.71 175.42 167.20 175.10 168.11 C 174.78 169.02 175.26 170.02 176.18 170.34 Z M 177.23 170.69 L 178.19 170.97 C 179.12 171.23 180.08 170.69 180.34 169.76 C 180.60 168.84 180.07 167.88 179.14 167.62 L 178.18 167.34 C 177.26 167.08 176.29 167.62 176.03 168.54 C 175.77 169.47 176.31 170.43 177.23 170.69 Z M 178.30 170.98 L 179.26 171.19 C 180.20 171.40 181.12 170.80 181.32 169.87 C 181.53 168.94 180.93 168.01 180.00 167.81 L 179.04 167.60 C 178.10 167.40 177.18 167.99 176.98 168.92 C 176.77 169.85 177.36 170.78 178.30 170.98 Z M 179.37 171.20 L 180.36 171.36 C 181.30 171.50 182.18 170.86 182.32 169.92 C 182.47 168.98 181.83 168.10 180.89 167.96 L 179.90 167.80 C 178.96 167.66 178.08 168.30 177.93 169.24 C 177.79 170.17 178.43 171.05 179.37 171.20 Z M 180.45 171.36 L 181.44 171.46 C 182.38 171.56 183.22 170.87 183.32 169.94 C 183.41 169.00 182.73 168.16 181.79 168.06 L 180.80 167.96 C 179.86 167.86 179.02 168.54 178.93 169.48 C 178.83 170.42 179.51 171.26 180.45 171.36 Z M 181.51 171.45 L 182.51 171.51 C 183.44 171.57 184.25 170.86 184.30 169.93 C 184.36 169.00 183.65 168.19 182.72 168.13 L 181.73 168.07 C 180.79 168.01 179.99 168.72 179.93 169.65 C 179.87 170.59 180.58 171.39 181.51 171.45 Z M 182.56 171.50 L 183.56 171.54 C 184.49 171.57 185.27 170.84 185.30 169.91 C 185.33 168.98 184.60 168.20 183.67 168.17 L 182.67 168.14 C 181.74 168.11 180.96 168.84 180.93 169.77 C 180.90 170.70 181.63 171.47 182.56 171.50 Z M 183.62 171.53 L 184.62 171.52 C 185.54 171.52 186.29 170.78 186.29 169.86 C 186.29 168.93 185.54 168.19 184.62 168.19 L 183.62 168.19 C 182.69 168.19 181.95 168.93 181.95 169.86 C 181.95 170.78 182.69 171.53 183.62 171.53 Z M 184.69 171.51 L 185.68 171.47 C 186.60 171.43 187.31 170.66 187.27 169.74 C 187.23 168.83 186.46 168.12 185.54 168.16 L 184.55 168.20 C 183.63 168.24 182.92 169.01 182.96 169.93 C 183.00 170.84 183.77 171.55 184.69 171.51 Z M 185.77 171.45 L 186.75 171.36 C 187.65 171.27 188.32 170.47 188.23 169.57 C 188.15 168.66 187.35 168.00 186.44 168.09 L 185.46 168.18 C 184.56 168.26 183.89 169.06 183.98 169.97 C 184.06 170.87 184.86 171.53 185.77 171.45 Z M 186.85 171.33 L 187.83 171.18 C 188.72 171.04 189.33 170.20 189.19 169.31 C 189.05 168.43 188.21 167.82 187.32 167.96 L 186.34 168.11 C 185.45 168.25 184.85 169.08 184.99 169.97 C 185.13 170.86 185.96 171.47 186.85 171.33 Z M 187.94 171.14 L 188.92 170.92 C 189.79 170.71 190.33 169.84 190.13 168.97 C 189.93 168.10 189.06 167.56 188.19 167.76 L 187.21 167.99 C 186.34 168.19 185.80 169.06 186.00 169.93 C 186.20 170.80 187.07 171.35 187.94 171.14 Z M 189.04 170.87 L 190.00 170.57 C 190.85 170.30 191.31 169.40 191.05 168.55 C 190.78 167.71 189.87 167.24 189.03 167.50 L 188.07 167.81 C 187.22 168.08 186.75 168.98 187.02 169.83 C 187.29 170.67 188.19 171.14 189.04 170.87 Z M 190.11 170.52 L 191.04 170.14 C 191.86 169.82 192.26 168.89 191.93 168.07 C 191.60 167.25 190.67 166.85 189.86 167.18 L 188.92 167.56 C 188.10 167.88 187.71 168.81 188.03 169.63 C 188.36 170.45 189.29 170.84 190.11 170.52 Z M 191.13 170.09 L 192.04 169.65 C 192.83 169.28 193.16 168.33 192.79 167.54 C 192.41 166.75 191.46 166.42 190.67 166.80 L 189.76 167.23 C 188.98 167.61 188.64 168.56 189.02 169.35 C 189.40 170.14 190.34 170.47 191.13 170.09 Z M 192.13 169.60 L 193.00 169.11 C 193.76 168.68 194.02 167.72 193.60 166.96 C 193.17 166.21 192.21 165.94 191.45 166.37 L 190.58 166.86 C 189.83 167.28 189.56 168.24 189.99 169.00 C 190.41 169.76 191.37 170.02 192.13 169.60 Z M 193.09 169.04 L 193.94 168.48 C 194.66 168.00 194.86 167.03 194.38 166.31 C 193.90 165.59 192.93 165.39 192.21 165.87 L 191.36 166.43 C 190.64 166.91 190.44 167.88 190.92 168.60 C 191.40 169.32 192.37 169.52 193.09 169.04 Z M 194.03 168.42 L 194.81 167.81 C 195.50 167.29 195.63 166.30 195.10 165.62 C 194.58 164.93 193.59 164.80 192.91 165.33 L 192.12 165.93 C 191.44 166.46 191.31 167.44 191.83 168.13 C 192.36 168.81 193.34 168.94 194.03 168.42 Z M 194.89 167.75 L 195.63 167.11 C 196.28 166.54 196.35 165.55 195.78 164.90 C 195.22 164.25 194.23 164.18 193.58 164.75 L 192.84 165.39 C 192.18 165.96 192.11 166.94 192.68 167.60 C 193.25 168.25 194.23 168.32 194.89 167.75 Z M 195.69 167.05 L 196.41 166.36 C 197.03 165.76 197.05 164.77 196.45 164.15 C 195.85 163.53 194.86 163.51 194.24 164.11 L 193.52 164.80 C 192.90 165.40 192.88 166.39 193.48 167.01 C 194.08 167.63 195.06 167.65 195.69 167.05 Z M 196.45 166.31 L 197.14 165.59 C 197.74 164.96 197.72 163.97 197.09 163.38 C 196.47 162.78 195.48 162.81 194.88 163.43 L 194.19 164.16 C 193.60 164.78 193.62 165.77 194.24 166.36 C 194.87 166.96 195.86 166.94 196.45 166.31 Z M 197.18 165.54 L 197.85 164.80 C 198.42 164.15 198.36 163.16 197.71 162.59 C 197.07 162.02 196.08 162.08 195.51 162.73 L 194.85 163.47 C 194.27 164.12 194.33 165.11 194.98 165.68 C 195.62 166.25 196.61 166.19 197.18 165.54 Z M 197.88 164.76 L 198.52 163.99 C 199.07 163.33 198.98 162.34 198.32 161.79 C 197.66 161.24 196.67 161.33 196.12 161.99 L 195.48 162.76 C 194.93 163.42 195.02 164.41 195.68 164.96 C 196.34 165.51 197.32 165.42 197.88 164.76 Z M 198.54 163.96 L 199.16 163.18 C 199.70 162.51 199.59 161.53 198.92 160.99 C 198.24 160.45 197.26 160.56 196.72 161.24 L 196.10 162.02 C 195.56 162.69 195.67 163.67 196.35 164.21 C 197.02 164.75 198.00 164.64 198.54 163.96 Z M 199.17 163.17 L 199.79 162.38 C 200.32 161.70 200.20 160.72 199.52 160.19 C 198.84 159.66 197.86 159.78 197.33 160.46 L 196.71 161.25 C 196.18 161.93 196.30 162.91 196.98 163.44 C 197.66 163.97 198.64 163.85 199.17 163.17 Z"
      fill="black"
      fill-rule="nonzero" /></svg>