<svg xmlns="http://www.w3.org/2000/svg" width="300" height="300" viewBox="0 0 300 300">
<path d="M 111.80 127.46 L 112.79 127.56 C 113.77 127.66 114.63 126.95 114.73 125.98 C 114.84 125.01 114.13 124.14 113.16 124.04 L 112.17 123.94 C 111.20 123.84 110.33 124.55 110.23 125.52 C 110.13 126.49 110.83 127.36 111.80 127.46 Z M 112.79 127.56 L 113.79 127.66 C 114.76 127.76 115.63 127.06 115.73 126.09 C 115.83 125.11 115.12 124.24 114.15 124.14 L 113.16 124.04 C 112.19 123.94 111.32 124.65 111.22 125.62 C 111.12 126.59 111.82 127.46 112.79 127.56 Z M 113.79 127.66 L 114.78 127.77 C 115.75 127.87 116.62 127.16 116.72 126.19 C 116.82 125.21 116.12 124.35 115.14 124.25 L 114.15 124.14 C 113.18 124.04 112.31 124.75 112.21 125.72 C 112.11 126.69 112.81 127.56 113.79 127.66 Z M 114.78 127.76 L 115.78 127.87 C 116.76 127.96 117.62 127.26 117.72 126.29 C 117.82 125.32 117.11 124.45 116.14 124.35 L 115.14 124.25 C 114.17 124.15 113.30 124.86 113.21 125.83 C 113.11 126.80 113.81 127.66 114.78 127.76 Z M 115.79 127.85 L 116.78 127.95 C 117.74 128.05 118.60 127.35 118.69 126.38 C 118.79 125.42 118.09 124.57 117.13 124.47 L 116.14 124.37 C 115.18 124.27 114.32 124.97 114.22 125.93 C 114.13 126.89 114.83 127.75 115.79 127.85 Z M 116.78 127.92 L 117.78 128.02 C 118.72 128.11 119.56 127.42 119.65 126.48 C 119.75 125.54 119.06 124.70 118.12 124.60 L 117.12 124.50 C 116.18 124.41 115.34 125.09 115.25 126.04 C 115.15 126.98 115.84 127.82 116.78 127.92 Z M 117.78 127.98 L 118.78 128.08 C 119.70 128.18 120.53 127.50 120.62 126.58 C 120.71 125.65 120.04 124.83 119.11 124.73 L 118.11 124.63 C 117.19 124.54 116.37 125.22 116.27 126.14 C 116.18 127.07 116.85 127.89 117.78 127.98 Z M 118.78 128.05 L 119.65 128.14 C 120.55 128.23 121.36 127.57 121.45 126.66 C 121.55 125.75 120.88 124.94 119.98 124.85 L 119.11 124.76 C 118.20 124.67 117.39 125.34 117.30 126.24 C 117.21 127.15 117.87 127.96 118.78 128.05 Z"
      fill="black"
      fill-rule="nonzero" /><path d="M 107.40 148.68 L 108.39 148.57 C 109.36 148.47 110.07 147.60 109.96 146.63 C 109.86 145.66 108.99 144.96 108.02 145.06 L 107.02 145.17 C 106.05 145.27 105.35 146.14 105.46 147.11 C 105.56 148.08 106.43 148.78 107.40 148.68 Z M 108.39 148.57 L 109.39 148.47 C 110.36 148.36 111.06 147.49 110.96 146.52 C 110.85 145.55 109.98 144.85 109.01 144.96 L 108.02 145.06 C 107.05 145.17 106.35 146.04 106.45 147.01 C 106.56 147.98 107.43 148.68 108.39 148.57 Z M 109.39 148.47 L 110.38 148.36 C 111.35 148.26 112.05 147.39 111.95 146.42 C 111.84 145.45 110.98 144.75 110.01 144.85 L 109.01 144.96 C 108.04 145.06 107.34 145.93 107.45 146.90 C 107.55 147.87 108.42 148.57 109.39 148.47 Z M 110.38 148.36 L 111.11 148.28 C 112.08 148.18 112.78 147.31 112.68 146.34 C 112.57 145.37 111.71 144.67 110.74 144.77 L 110.01 144.85 C 109.04 144.96 108.34 145.82 108.44 146.79 C 108.55 147.76 109.41 148.46 110.38 148.36 Z"
      fill="black"
      fill-rule="nonzero" /><path d="M 111.65 167.47 L 111.95 166.76 C 112.31 165.92 111.92 164.95 111.08 164.59 C 110.23 164.24 109.26 164.63 108.90 165.47 L 108.60 166.18 C 108.25 167.02 108.64 167.99 109.48 168.35 C 110.33 168.71 111.30 168.31 111.65 167.47 Z M 111.97 166.83 L 112.32 166.07 C 112.71 165.23 112.35 164.22 111.50 163.82 C 110.65 163.43 109.64 163.80 109.24 164.64 L 108.89 165.40 C 108.50 166.25 108.87 167.26 109.71 167.65 C 110.56 168.05 111.57 167.68 111.97 166.83 Z M 112.31 166.17 L 112.77 165.31 C 113.22 164.47 112.90 163.42 112.06 162.97 C 111.21 162.52 110.16 162.84 109.71 163.68 L 109.25 164.54 C 108.80 165.39 109.12 166.44 109.97 166.89 C 110.81 167.34 111.86 167.02 112.31 166.17 Z M 112.76 165.42 L 113.37 164.40 C 113.88 163.57 113.62 162.48 112.78 161.97 C 111.94 161.46 110.85 161.72 110.34 162.56 L 109.73 163.58 C 109.22 164.41 109.48 165.50 110.32 166.01 C 111.16 166.52 112.25 166.26 112.76 165.42 Z M 113.35 164.49 L 114.01 163.51 C 114.56 162.68 114.34 161.56 113.52 161.01 C 112.69 160.46 111.58 160.68 111.02 161.50 L 110.36 162.48 C 109.81 163.30 110.03 164.42 110.85 164.98 C 111.68 165.53 112.80 165.31 113.35 164.49 Z M 113.98 163.55 L 114.53 162.77 C 115.11 161.96 114.92 160.84 114.11 160.26 C 113.30 159.69 112.18 159.88 111.60 160.69 L 111.05 161.46 C 110.47 162.27 110.66 163.39 111.47 163.97 C 112.28 164.55 113.40 164.36 113.98 163.55 Z M 114.50 162.78 L 115.11 161.96 C 115.69 161.17 115.52 160.05 114.73 159.47 C 113.93 158.89 112.82 159.06 112.23 159.85 L 111.63 160.67 C 111.05 161.47 111.22 162.58 112.01 163.17 C 112.80 163.75 113.92 163.58 114.50 162.78 Z M 115.08 161.97 L 115.72 161.12 C 116.30 160.34 116.15 159.23 115.37 158.65 C 114.59 158.06 113.48 158.22 112.90 159.00 L 112.26 159.85 C 111.67 160.63 111.83 161.73 112.61 162.32 C 113.39 162.90 114.50 162.75 115.08 161.97 Z M 115.70 161.12 L 116.35 160.27 C 116.93 159.50 116.79 158.40 116.02 157.82 C 115.25 157.23 114.16 157.38 113.57 158.15 L 112.92 159.00 C 112.33 159.77 112.48 160.86 113.25 161.45 C 114.01 162.03 115.11 161.89 115.70 161.12 Z M 116.33 160.27 L 116.98 159.43 C 117.56 158.67 117.42 157.59 116.67 157.00 C 115.91 156.42 114.82 156.55 114.24 157.31 L 113.59 158.15 C 113.01 158.90 113.14 159.99 113.90 160.58 C 114.66 161.16 115.74 161.02 116.33 160.27 Z M 116.96 159.42 L 117.58 158.63 C 118.16 157.88 118.03 156.80 117.28 156.22 C 116.54 155.64 115.46 155.77 114.88 156.52 L 114.25 157.32 C 113.67 158.06 113.81 159.14 114.55 159.72 C 115.30 160.30 116.38 160.17 116.96 159.42 Z M 117.57 158.62 L 118.15 157.88 C 118.72 157.14 118.59 156.07 117.86 155.50 C 117.12 154.92 116.05 155.05 115.47 155.78 L 114.89 156.52 C 114.31 157.26 114.44 158.33 115.18 158.91 C 115.92 159.49 116.99 159.36 117.57 158.62 Z M 118.13 157.87 L 118.86 156.95 C 119.43 156.21 119.30 155.16 118.57 154.58 C 117.84 154.01 116.78 154.14 116.21 154.87 L 115.48 155.79 C 114.91 156.52 115.04 157.58 115.77 158.16 C 116.50 158.73 117.56 158.60 118.13 157.87 Z M 118.85 156.94 L 119.60 155.98 C 120.17 155.26 120.04 154.21 119.31 153.64 C 118.59 153.07 117.54 153.20 116.97 153.92 L 116.22 154.88 C 115.65 155.60 115.78 156.65 116.50 157.22 C 117.23 157.79 118.28 157.66 118.85 156.94 Z M 119.59 155.98 L 120.18 155.23 C 120.74 154.51 120.62 153.46 119.90 152.90 C 119.18 152.33 118.13 152.45 117.57 153.18 L 116.98 153.93 C 116.41 154.65 116.54 155.69 117.26 156.26 C 117.98 156.82 119.02 156.70 119.59 155.98 Z M 120.17 155.23 L 120.66 154.60 C 121.22 153.89 121.10 152.85 120.39 152.29 C 119.67 151.72 118.64 151.84 118.07 152.56 L 117.58 153.18 C 117.01 153.89 117.13 154.93 117.85 155.50 C 118.56 156.06 119.60 155.94 120.17 155.23 Z M 120.64 154.61 L 121.14 153.98 C 121.71 153.28 121.60 152.24 120.89 151.68 C 120.18 151.11 119.15 151.22 118.58 151.93 L 118.08 152.55 C 117.52 153.26 117.63 154.29 118.34 154.86 C 119.04 155.43 120.08 155.31 120.64 154.61 Z M 121.13 153.99 L 121.77 153.22 C 122.34 152.52 122.23 151.48 121.53 150.91 C 120.83 150.34 119.80 150.45 119.23 151.15 L 118.60 151.92 C 118.02 152.62 118.13 153.65 118.83 154.23 C 119.53 154.80 120.56 154.69 121.13 153.99 Z M 121.76 153.22 L 122.40 152.44 C 122.97 151.74 122.87 150.71 122.17 150.14 C 121.47 149.57 120.44 149.67 119.86 150.37 L 119.23 151.14 C 118.66 151.84 118.76 152.88 119.46 153.45 C 120.16 154.02 121.19 153.92 121.76 153.22 Z M 122.40 152.44 L 123.03 151.66 C 123.60 150.96 123.49 149.93 122.79 149.36 C 122.09 148.79 121.06 148.90 120.49 149.60 L 119.86 150.38 C 119.29 151.08 119.40 152.11 120.10 152.68 C 120.80 153.25 121.83 153.14 122.40 152.44 Z M 123.04 151.65 L 123.67 150.86 C 124.23 150.15 124.11 149.12 123.40 148.56 C 122.70 148.00 121.67 148.12 121.10 148.82 L 120.48 149.61 C 119.92 150.32 120.03 151.35 120.74 151.91 C 121.45 152.47 122.48 152.36 123.04 151.65 Z M 123.67 150.85 L 124.29 150.07 C 124.85 149.36 124.72 148.33 124.01 147.77 C 123.30 147.21 122.27 147.34 121.71 148.05 L 121.10 148.83 C 120.54 149.55 120.66 150.57 121.38 151.13 C 122.09 151.69 123.12 151.56 123.67 150.85 Z M 124.29 150.06 L 124.82 149.39 C 125.37 148.68 125.24 147.65 124.53 147.09 C 123.82 146.54 122.79 146.67 122.23 147.38 L 121.71 148.05 C 121.15 148.77 121.28 149.79 121.99 150.35 C 122.71 150.90 123.74 150.78 124.29 150.06 Z"
      fill="black"
      fill-rule="nonzero" /><path d="M 132.08 122.45 L 131.58 123.58 C 131.17 124.50 131.59 125.56 132.50 125.97 C 133.41 126.37 134.48 125.96 134.89 125.05 L 135.39 123.91 C 135.80 123.00 135.38 121.93 134.47 121.52 C 133.55 121.12 132.49 121.53 132.08 122.45 Z M 131.48 123.77 L 131.18 124.75 C 130.88 125.72 131.42 126.75 132.39 127.05 C 133.36 127.34 134.39 126.80 134.69 125.83 L 134.99 124.85 C 135.29 123.88 134.74 122.86 133.77 122.56 C 132.80 122.26 131.77 122.80 131.48 123.77 Z M 131.09 125.59 L 131.20 126.23 C 131.36 127.25 132.32 127.94 133.34 127.78 C 134.36 127.61 135.05 126.65 134.88 125.63 L 134.78 124.99 C 134.61 123.97 133.65 123.28 132.63 123.45 C 131.62 123.61 130.93 124.57 131.09 125.59 Z M 132.34 127.68 L 132.84 127.88 C 133.81 128.26 134.90 127.79 135.29 126.83 C 135.67 125.86 135.20 124.77 134.24 124.38 L 133.73 124.18 C 132.77 123.80 131.68 124.27 131.29 125.24 C 130.91 126.20 131.38 127.30 132.34 127.68 Z M 133.73 128.00 L 134.60 127.92 C 135.63 127.81 136.38 126.89 136.28 125.85 C 136.17 124.82 135.25 124.07 134.21 124.17 L 133.35 124.26 C 132.31 124.36 131.56 125.29 131.67 126.32 C 131.77 127.36 132.70 128.11 133.73 128.00 Z M 134.92 127.85 L 136.12 127.51 C 137.12 127.22 137.69 126.18 137.41 125.18 C 137.12 124.18 136.08 123.61 135.08 123.89 L 133.89 124.23 C 132.89 124.52 132.31 125.56 132.60 126.56 C 132.88 127.56 133.92 128.14 134.92 127.85 Z M 136.26 127.47 L 137.43 127.03 C 138.40 126.67 138.90 125.58 138.54 124.61 C 138.17 123.63 137.09 123.14 136.12 123.50 L 134.94 123.94 C 133.97 124.30 133.47 125.38 133.83 126.36 C 134.20 127.33 135.28 127.83 136.26 127.47 Z M 137.49 127.00 L 138.33 126.66 C 139.28 126.26 139.74 125.16 139.35 124.21 C 138.95 123.25 137.86 122.79 136.90 123.18 L 136.06 123.53 C 135.10 123.92 134.64 125.02 135.04 125.98 C 135.43 126.94 136.53 127.40 137.49 127.00 Z M 138.36 126.64 L 139.24 126.25 C 140.19 125.84 140.63 124.74 140.22 123.79 C 139.81 122.84 138.70 122.40 137.75 122.82 L 136.87 123.20 C 135.92 123.61 135.48 124.72 135.89 125.66 C 136.30 126.61 137.41 127.05 138.36 126.64 Z M 139.27 126.24 L 140.19 125.82 C 141.13 125.40 141.55 124.29 141.13 123.35 C 140.70 122.41 139.60 121.99 138.66 122.41 L 137.73 122.83 C 136.79 123.25 136.37 124.36 136.79 125.30 C 137.22 126.24 138.32 126.66 139.27 126.24 Z M 140.21 125.81 L 141.15 125.37 C 142.09 124.94 142.49 123.83 142.06 122.90 C 141.63 121.96 140.52 121.56 139.59 121.99 L 138.64 122.43 C 137.71 122.86 137.30 123.97 137.73 124.90 C 138.17 125.84 139.27 126.24 140.21 125.81 Z M 141.17 125.36 L 142.12 124.91 C 143.05 124.47 143.44 123.36 143.00 122.43 C 142.56 121.50 141.46 121.11 140.53 121.55 L 139.57 122.00 C 138.65 122.44 138.25 123.55 138.69 124.48 C 139.13 125.40 140.24 125.80 141.17 125.36 Z M 142.13 124.90 L 143.08 124.44 C 144.00 124.00 144.39 122.89 143.94 121.97 C 143.50 121.04 142.39 120.66 141.46 121.10 L 140.52 121.56 C 139.60 122.00 139.21 123.11 139.65 124.03 C 140.10 124.96 141.21 125.34 142.13 124.90 Z M 143.08 124.43 L 144.05 123.96 C 144.96 123.51 145.34 122.40 144.89 121.49 C 144.45 120.57 143.34 120.19 142.42 120.64 L 141.46 121.11 C 140.54 121.56 140.16 122.67 140.61 123.58 C 141.06 124.50 142.17 124.88 143.08 124.43 Z M 144.05 123.94 L 145.06 123.44 C 145.96 122.99 146.33 121.89 145.88 120.99 C 145.44 120.08 144.34 119.71 143.43 120.16 L 142.42 120.66 C 141.52 121.11 141.15 122.21 141.60 123.11 C 142.05 124.02 143.14 124.39 144.05 123.94 Z M 145.06 123.41 L 146.02 122.93 C 146.91 122.48 147.27 121.39 146.82 120.50 C 146.37 119.61 145.29 119.25 144.39 119.70 L 143.43 120.18 C 142.54 120.63 142.18 121.72 142.63 122.61 C 143.08 123.50 144.17 123.86 145.06 123.41 Z M 146.02 122.91 L 146.93 122.44 C 147.81 121.99 148.16 120.91 147.71 120.03 C 147.26 119.16 146.18 118.81 145.30 119.26 L 144.39 119.73 C 143.51 120.18 143.17 121.25 143.62 122.13 C 144.07 123.01 145.14 123.35 146.02 122.91 Z M 146.93 122.41 L 147.79 121.97 C 148.65 121.51 148.99 120.45 148.53 119.58 C 148.08 118.72 147.02 118.39 146.15 118.84 L 145.30 119.29 C 144.44 119.74 144.10 120.80 144.55 121.67 C 145.01 122.53 146.07 122.86 146.93 122.41 Z M 147.79 121.94 L 148.59 121.51 C 149.44 121.06 149.76 120.00 149.30 119.15 C 148.85 118.30 147.79 117.99 146.94 118.44 L 146.15 118.87 C 145.30 119.32 144.98 120.38 145.44 121.23 C 145.89 122.07 146.95 122.39 147.79 121.94 Z M 148.60 121.48 L 149.37 121.05 C 150.20 120.59 150.50 119.55 150.04 118.72 C 149.58 117.89 148.53 117.58 147.70 118.05 L 146.93 118.47 C 146.10 118.93 145.80 119.98 146.26 120.81 C 146.72 121.64 147.77 121.94 148.60 121.48 Z M 149.39 121.02 L 150.35 120.46 C 151.16 119.99 151.44 118.95 150.97 118.14 C 150.50 117.32 149.45 117.05 148.64 117.52 L 147.68 118.08 C 146.87 118.55 146.59 119.59 147.06 120.40 C 147.54 121.22 148.58 121.49 149.39 121.02 Z M 150.39 120.42 L 151.24 119.89 C 152.03 119.40 152.27 118.36 151.78 117.57 C 151.29 116.78 150.25 116.54 149.46 117.03 L 148.61 117.56 C 147.82 118.05 147.57 119.09 148.07 119.88 C 148.56 120.67 149.60 120.91 150.39 120.42 Z M 151.28 119.85 L 152.06 119.32 C 152.83 118.81 153.03 117.77 152.52 117.01 C 152.01 116.24 150.97 116.04 150.20 116.55 L 149.42 117.07 C 148.66 117.59 148.45 118.62 148.96 119.39 C 149.48 120.15 150.51 120.36 151.28 119.85 Z M 152.10 119.28 L 152.84 118.74 C 153.59 118.21 153.75 117.17 153.22 116.43 C 152.69 115.69 151.66 115.52 150.92 116.06 L 150.17 116.60 C 149.43 117.13 149.26 118.16 149.79 118.90 C 150.32 119.64 151.36 119.81 152.10 119.28 Z M 152.88 118.71 L 153.65 118.12 C 154.37 117.57 154.51 116.53 153.96 115.81 C 153.41 115.09 152.38 114.95 151.65 115.50 L 150.88 116.09 C 150.16 116.64 150.02 117.67 150.57 118.40 C 151.12 119.12 152.16 119.26 152.88 118.71 Z M 153.69 118.11 L 154.46 117.49 C 155.18 116.92 155.30 115.87 154.73 115.16 C 154.16 114.44 153.11 114.32 152.39 114.89 L 151.62 115.51 C 150.90 116.08 150.78 117.13 151.35 117.84 C 151.92 118.56 152.97 118.68 153.69 118.11 Z M 154.49 117.48 L 155.27 116.84 C 155.98 116.26 156.09 115.20 155.50 114.49 C 154.92 113.78 153.87 113.67 153.15 114.26 L 152.37 114.90 C 151.66 115.48 151.55 116.54 152.14 117.25 C 152.72 117.96 153.77 118.07 154.49 117.48 Z M 155.29 116.84 L 156.07 116.19 C 156.79 115.60 156.88 114.54 156.29 113.82 C 155.70 113.11 154.63 113.01 153.92 113.60 L 153.13 114.25 C 152.42 114.85 152.32 115.91 152.92 116.63 C 153.51 117.34 154.57 117.44 155.29 116.84 Z M 156.08 116.20 L 156.17 116.12 C 156.89 115.52 156.98 114.46 156.39 113.74 C 155.79 113.02 154.72 112.92 154.01 113.52 L 153.91 113.60 C 153.19 114.20 153.10 115.26 153.70 115.98 C 154.29 116.70 155.36 116.79 156.08 116.20 Z"
      fill="black"
      fill-rule="nonzero" /><path d="M 144.58 110.55 L 144.41 111.55 C 144.25 112.52 144.91 113.44 145.88 113.60 C 146.85 113.76 147.76 113.10 147.92 112.14 L 148.09 111.13 C 148.25 110.16 147.59 109.25 146.63 109.09 C 145.66 108.93 144.74 109.58 144.58 110.55 Z M 144.40 111.56 L 144.24 112.56 C 144.08 113.54 144.75 114.45 145.72 114.61 C 146.70 114.77 147.62 114.10 147.78 113.13 L 147.94 112.13 C 148.09 111.15 147.43 110.23 146.45 110.08 C 145.48 109.92 144.56 110.59 144.40 111.56 Z M 144.23 112.58 L 144.08 113.56 C 143.93 114.55 144.61 115.46 145.59 115.61 C 146.58 115.76 147.50 115.08 147.64 114.09 L 147.79 113.11 C 147.94 112.12 147.26 111.21 146.27 111.06 C 145.29 110.91 144.37 111.59 144.23 112.58 Z M 144.06 113.59 L 143.94 114.55 C 143.80 115.55 144.50 116.46 145.50 116.59 C 146.49 116.72 147.40 116.02 147.53 115.03 L 147.66 114.07 C 147.79 113.07 147.09 112.16 146.10 112.03 C 145.11 111.90 144.20 112.60 144.06 113.59 Z M 143.92 114.59 L 143.82 115.52 C 143.71 116.53 144.43 117.43 145.43 117.54 C 146.43 117.65 147.33 116.92 147.44 115.92 L 147.55 114.99 C 147.66 113.99 146.93 113.09 145.93 112.98 C 144.93 112.87 144.03 113.59 143.92 114.59 Z M 143.81 115.57 L 143.73 116.52 C 143.64 117.53 144.39 118.41 145.40 118.50 C 146.41 118.58 147.29 117.83 147.38 116.83 L 147.46 115.88 C 147.54 114.87 146.79 113.98 145.78 113.90 C 144.78 113.81 143.89 114.56 143.81 115.57 Z M 143.72 116.56 L 143.66 117.57 C 143.60 118.58 144.37 119.46 145.38 119.52 C 146.40 119.58 147.27 118.80 147.33 117.79 L 147.39 116.78 C 147.45 115.77 146.67 114.90 145.66 114.84 C 144.65 114.78 143.78 115.55 143.72 116.56 Z M 143.65 117.61 L 143.60 118.71 C 143.57 119.73 144.36 120.59 145.38 120.63 C 146.40 120.67 147.26 119.87 147.30 118.85 L 147.34 117.75 C 147.38 116.73 146.58 115.87 145.56 115.83 C 144.54 115.80 143.68 116.59 143.65 117.61 Z M 143.60 118.74 L 143.58 119.64 C 143.56 120.67 144.37 121.51 145.39 121.54 C 146.41 121.56 147.26 120.75 147.28 119.73 L 147.30 118.82 C 147.32 117.80 146.51 116.95 145.49 116.93 C 144.47 116.91 143.62 117.72 143.60 118.74 Z M 143.58 119.66 L 143.56 120.62 C 143.55 121.65 144.37 122.49 145.39 122.50 C 146.42 122.51 147.26 121.70 147.27 120.67 L 147.28 119.71 C 147.30 118.69 146.48 117.84 145.46 117.83 C 144.43 117.82 143.59 118.64 143.58 119.66 Z M 143.56 120.63 L 143.56 121.64 C 143.55 122.67 144.37 123.50 145.40 123.51 C 146.42 123.52 147.26 122.69 147.27 121.67 L 147.27 120.66 C 147.28 119.64 146.46 118.80 145.43 118.79 C 144.41 118.79 143.57 119.61 143.56 120.63 Z M 143.55 121.65 L 143.55 122.69 C 143.55 123.72 144.38 124.55 145.40 124.55 C 146.43 124.56 147.26 123.73 147.26 122.70 L 147.27 121.66 C 147.27 120.64 146.44 119.80 145.42 119.80 C 144.39 119.80 143.56 120.63 143.55 121.65 Z M 143.55 122.70 L 143.55 123.75 C 143.55 124.78 144.38 125.61 145.40 125.61 C 146.43 125.62 147.26 124.78 147.26 123.76 L 147.27 122.70 C 147.27 121.67 146.43 120.84 145.41 120.84 C 144.38 120.84 143.55 121.67 143.55 122.70 Z M 143.55 123.76 L 143.55 124.83 C 143.55 125.86 144.38 126.69 145.41 126.69 C 146.43 126.69 147.27 125.86 147.27 124.83 L 147.27 123.76 C 147.27 122.73 146.43 121.90 145.41 121.90 C 144.38 121.90 143.55 122.73 143.55 123.76 Z M 143.55 124.83 L 143.55 125.90 C 143.55 126.93 144.38 127.76 145.41 127.76 C 146.43 127.76 147.27 126.93 147.27 125.90 L 147.27 124.83 C 147.27 123.80 146.43 122.97 145.41 122.97 C 144.38 122.97 143.55 123.80 143.55 124.83 Z M 143.55 125.91 L 143.55 126.95 C 143.55 127.98 144.39 128.81 145.41 128.81 C 146.44 128.80 147.27 127.97 147.27 126.94 L 147.27 125.90 C 147.26 124.87 146.43 124.04 145.40 124.04 C 144.38 124.05 143.55 124.88 143.55 125.91 Z M 143.55 126.95 L 143.55 127.95 C 143.56 128.98 144.39 129.81 145.42 129.80 C 146.45 129.80 147.28 128.96 147.27 127.94 L 147.27 126.94 C 147.26 125.91 146.43 125.08 145.40 125.09 C 144.37 125.09 143.54 125.93 143.55 126.95 Z M 143.55 127.96 L 143.56 128.89 C 143.57 129.92 144.41 130.75 145.44 130.74 C 146.46 130.73 147.29 129.89 147.28 128.87 L 147.27 127.93 C 147.26 126.90 146.43 126.08 145.40 126.08 C 144.37 126.09 143.55 126.93 143.55 127.96 Z M 143.56 128.91 L 143.57 129.86 C 143.59 130.89 144.43 131.71 145.46 131.69 C 146.49 131.68 147.31 130.84 147.29 129.81 L 147.28 128.85 C 147.27 127.83 146.42 127.01 145.39 127.02 C 144.37 127.03 143.55 127.88 143.56 128.91 Z M 143.57 129.88 L 143.60 130.98 C 143.62 132.00 144.47 132.82 145.50 132.79 C 146.53 132.77 147.34 131.92 147.32 130.89 L 147.29 129.79 C 147.27 128.77 146.42 127.95 145.39 127.98 C 144.36 128.00 143.55 128.85 143.57 129.88 Z M 143.60 130.99 L 143.63 131.97 C 143.66 133.00 144.52 133.80 145.55 133.77 C 146.58 133.73 147.38 132.88 147.35 131.85 L 147.32 130.87 C 147.28 129.85 146.42 129.04 145.40 129.07 C 144.37 129.11 143.57 129.97 143.60 130.99 Z M 143.63 131.98 L 143.67 132.89 C 143.71 133.92 144.57 134.72 145.60 134.68 C 146.62 134.64 147.42 133.77 147.38 132.75 L 147.35 131.84 C 147.31 130.81 146.44 130.01 145.42 130.05 C 144.39 130.09 143.59 130.96 143.63 131.98 Z M 143.67 132.90 L 143.71 133.85 C 143.75 134.87 144.61 135.67 145.64 135.63 C 146.67 135.59 147.46 134.72 147.42 133.69 L 147.38 132.74 C 147.34 131.72 146.48 130.92 145.45 130.96 C 144.42 131.00 143.63 131.87 143.67 132.90 Z M 143.71 133.85 L 143.75 134.84 C 143.79 135.87 144.66 136.66 145.69 136.62 C 146.71 136.58 147.51 135.71 147.46 134.68 L 147.42 133.69 C 147.38 132.67 146.51 131.87 145.48 131.91 C 144.46 131.96 143.66 132.82 143.71 133.85 Z M 143.75 134.85 L 143.80 135.86 C 143.85 136.88 144.72 137.67 145.74 137.62 C 146.77 137.57 147.56 136.70 147.51 135.68 L 147.46 134.67 C 147.41 133.65 146.54 132.86 145.52 132.91 C 144.49 132.96 143.70 133.83 143.75 134.85 Z M 143.80 135.87 L 143.86 136.88 C 143.92 137.90 144.79 138.69 145.82 138.63 C 146.84 138.57 147.62 137.69 147.57 136.67 L 147.51 135.66 C 147.45 134.64 146.57 133.85 145.55 133.91 C 144.53 133.97 143.74 134.85 143.80 135.87 Z M 143.86 136.90 L 143.93 137.89 C 144.00 138.91 144.88 139.69 145.90 139.62 C 146.93 139.55 147.70 138.66 147.63 137.64 L 147.56 136.65 C 147.50 135.63 146.61 134.85 145.59 134.92 C 144.56 134.99 143.79 135.88 143.86 136.90 Z M 143.93 137.91 L 144.01 138.91 C 144.09 139.93 144.98 140.69 146.00 140.61 C 147.02 140.53 147.79 139.64 147.71 138.62 L 147.63 137.62 C 147.55 136.60 146.66 135.84 145.63 135.92 C 144.61 136.00 143.85 136.89 143.93 137.91 Z M 144.01 138.93 L 144.10 139.93 C 144.19 140.95 145.09 141.70 146.11 141.61 C 147.13 141.52 147.88 140.62 147.79 139.60 L 147.70 138.60 C 147.61 137.58 146.71 136.83 145.69 136.92 C 144.67 137.01 143.92 137.91 144.01 138.93 Z M 144.10 139.95 L 144.20 140.93 C 144.30 141.95 145.21 142.69 146.23 142.59 C 147.25 142.49 147.99 141.58 147.89 140.56 L 147.79 139.58 C 147.69 138.57 146.78 137.82 145.76 137.92 C 144.75 138.02 144.00 138.93 144.10 139.95 Z M 144.21 140.94 L 144.31 141.92 C 144.41 142.94 145.32 143.68 146.34 143.57 C 147.35 143.46 148.09 142.56 147.99 141.54 L 147.88 140.56 C 147.78 139.54 146.87 138.80 145.85 138.91 C 144.84 139.01 144.10 139.92 144.21 140.94 Z M 144.31 141.92 L 144.41 142.92 C 144.52 143.93 145.42 144.67 146.44 144.57 C 147.45 144.47 148.19 143.56 148.08 142.55 L 147.98 141.55 C 147.88 140.53 146.97 139.79 145.96 139.90 C 144.95 140.00 144.21 140.91 144.31 141.92 Z M 144.42 142.90 L 144.50 143.85 C 144.60 144.86 145.50 145.60 146.51 145.51 C 147.52 145.41 148.26 144.52 148.17 143.50 L 148.08 142.56 C 147.99 141.55 147.09 140.81 146.08 140.90 C 145.07 141.00 144.32 141.89 144.42 142.90 Z M 144.51 143.83 L 144.57 144.64 C 144.66 145.65 145.55 146.40 146.56 146.32 C 147.57 146.23 148.32 145.35 148.23 144.34 L 148.17 143.52 C 148.08 142.51 147.19 141.76 146.18 141.85 C 145.17 141.93 144.42 142.82 144.51 143.83 Z M 144.58 144.63 L 144.65 145.53 C 144.72 146.53 145.60 147.29 146.61 147.21 C 147.62 147.13 148.38 146.25 148.30 145.25 L 148.23 144.35 C 148.15 143.34 147.27 142.59 146.26 142.66 C 145.26 142.74 144.50 143.62 144.58 144.63 Z M 144.65 145.52 L 144.73 146.54 C 144.80 147.55 145.67 148.31 146.68 148.23 C 147.69 148.16 148.44 147.29 148.37 146.28 L 148.29 145.25 C 148.22 144.25 147.35 143.49 146.34 143.56 C 145.33 143.64 144.58 144.51 144.65 145.52 Z M 144.73 146.54 L 144.82 147.75 C 144.89 148.75 145.76 149.51 146.76 149.43 C 147.77 149.36 148.52 148.49 148.45 147.49 L 148.36 146.28 C 148.29 145.28 147.42 144.52 146.42 144.60 C 145.41 144.67 144.66 145.54 144.73 146.54 Z M 144.82 147.75 L 144.89 148.78 C 144.97 149.78 145.84 150.54 146.84 150.47 C 147.84 150.39 148.59 149.53 148.52 148.52 L 148.45 147.49 C 148.37 146.49 147.51 145.73 146.50 145.80 C 145.50 145.88 144.75 146.75 144.82 147.75 Z M 144.90 148.78 L 144.97 149.72 C 145.04 150.72 145.90 151.47 146.90 151.40 C 147.90 151.33 148.66 150.46 148.58 149.46 L 148.52 148.52 C 148.45 147.52 147.58 146.77 146.58 146.84 C 145.58 146.92 144.83 147.78 144.90 148.78 Z M 144.97 149.72 L 145.04 150.72 C 145.11 151.71 145.98 152.46 146.97 152.39 C 147.97 152.32 148.72 151.46 148.65 150.46 L 148.58 149.46 C 148.51 148.47 147.64 147.71 146.65 147.79 C 145.65 147.86 144.90 148.72 144.97 149.72 Z M 145.04 150.71 L 145.12 151.75 C 145.19 152.74 146.05 153.49 147.05 153.42 C 148.04 153.35 148.79 152.49 148.72 151.49 L 148.65 150.46 C 148.58 149.46 147.71 148.71 146.72 148.78 C 145.72 148.85 144.97 149.72 145.04 150.71 Z M 145.12 151.74 L 145.19 152.79 C 145.26 153.79 146.12 154.54 147.12 154.47 C 148.11 154.40 148.86 153.54 148.79 152.54 L 148.72 151.49 C 148.65 150.50 147.79 149.75 146.79 149.82 C 145.80 149.89 145.05 150.75 145.12 151.74 Z M 145.19 152.79 L 145.27 153.84 C 145.33 154.83 146.19 155.58 147.19 155.51 C 148.18 155.44 148.93 154.58 148.86 153.59 L 148.79 152.54 C 148.72 151.55 147.86 150.80 146.87 150.87 C 145.88 150.94 145.13 151.80 145.19 152.79 Z M 145.27 153.83 L 145.34 154.86 C 145.40 155.85 146.26 156.60 147.25 156.53 C 148.24 156.47 148.99 155.61 148.93 154.62 L 148.86 153.59 C 148.79 152.60 147.93 151.85 146.94 151.92 C 145.95 151.99 145.20 152.84 145.27 153.83 Z M 145.34 154.85 L 145.40 155.83 C 145.47 156.82 146.32 157.57 147.31 157.51 C 148.30 157.44 149.05 156.59 148.99 155.60 L 148.92 154.62 C 148.86 153.63 148.01 152.88 147.02 152.95 C 146.03 153.01 145.28 153.86 145.34 154.85 Z M 145.41 155.83 L 145.48 157.01 C 145.55 157.99 146.39 158.74 147.38 158.68 C 148.36 158.62 149.11 157.77 149.05 156.78 L 148.98 155.61 C 148.92 154.62 148.07 153.87 147.09 153.93 C 146.10 153.99 145.35 154.84 145.41 155.83 Z M 145.50 157.00 L 145.56 158.09 C 145.62 159.07 146.46 159.81 147.44 159.76 C 148.41 159.70 149.16 158.86 149.10 157.88 L 149.04 156.79 C 148.98 155.81 148.14 155.07 147.17 155.12 C 146.19 155.18 145.44 156.02 145.50 157.00 Z M 145.57 158.08 L 145.63 159.09 C 145.68 160.06 146.51 160.81 147.49 160.75 C 148.46 160.70 149.20 159.87 149.15 158.90 L 149.09 157.89 C 149.04 156.91 148.21 156.17 147.24 156.22 C 146.26 156.28 145.52 157.11 145.57 158.08 Z M 145.64 159.09 L 145.69 160.03 C 145.74 161.00 146.57 161.74 147.53 161.69 C 148.50 161.64 149.24 160.81 149.19 159.85 L 149.14 158.90 C 149.08 157.94 148.26 157.19 147.30 157.25 C 146.33 157.30 145.59 158.12 145.64 159.09 Z M 145.70 160.03 L 145.75 160.93 C 145.80 161.89 146.62 162.62 147.58 162.57 C 148.53 162.52 149.27 161.71 149.22 160.75 L 149.17 159.85 C 149.12 158.89 148.31 158.16 147.35 158.21 C 146.39 158.26 145.65 159.07 145.70 160.03 Z M 145.76 160.93 L 145.81 161.80 C 145.86 162.75 146.67 163.48 147.62 163.43 C 148.57 163.38 149.30 162.57 149.25 161.62 L 149.21 160.75 C 149.16 159.80 148.35 159.07 147.40 159.11 C 146.44 159.16 145.71 159.98 145.76 160.93 Z M 145.82 161.80 L 145.88 162.84 C 145.93 163.78 146.73 164.51 147.68 164.46 C 148.62 164.41 149.35 163.60 149.30 162.66 L 149.24 161.62 C 149.19 160.68 148.39 159.95 147.44 160.00 C 146.50 160.05 145.77 160.86 145.82 161.80 Z M 145.89 162.84 L 145.94 163.84 C 145.99 164.78 146.79 165.51 147.73 165.46 C 148.67 165.41 149.39 164.61 149.34 163.67 L 149.29 162.66 C 149.24 161.72 148.44 161.00 147.50 161.05 C 146.56 161.10 145.84 161.90 145.89 162.84 Z M 145.95 163.84 L 146.00 164.83 C 146.04 165.76 146.83 166.48 147.77 166.44 C 148.70 166.39 149.42 165.60 149.38 164.66 L 149.33 163.68 C 149.28 162.74 148.49 162.02 147.56 162.07 C 146.62 162.11 145.90 162.90 145.95 163.84 Z M 146.01 164.81 L 146.05 165.79 C 146.09 166.72 146.87 167.44 147.80 167.40 C 148.72 167.36 149.44 166.58 149.41 165.65 L 149.37 164.68 C 149.33 163.75 148.54 163.03 147.62 163.07 C 146.69 163.10 145.97 163.89 146.01 164.81 Z M 146.06 165.77 L 146.09 166.75 C 146.12 167.68 146.89 168.40 147.81 168.37 C 148.73 168.34 149.45 167.57 149.43 166.65 L 149.40 165.67 C 149.37 164.75 148.60 164.02 147.67 164.05 C 146.75 164.08 146.03 164.85 146.06 165.77 Z M 146.09 166.74 L 146.11 167.74 C 146.13 168.65 146.89 169.38 147.81 169.36 C 148.73 169.35 149.46 168.59 149.44 167.67 L 149.42 166.67 C 149.40 165.75 148.64 165.02 147.72 165.04 C 146.81 165.06 146.08 165.82 146.09 166.74 Z M 146.12 167.72 L 146.13 168.72 C 146.14 169.64 146.89 170.37 147.81 170.36 C 148.72 170.35 149.45 169.60 149.44 168.68 L 149.43 167.68 C 149.42 166.77 148.67 166.04 147.76 166.05 C 146.84 166.06 146.11 166.81 146.12 167.72 Z M 146.14 168.71 L 146.14 169.71 C 146.15 170.62 146.89 171.36 147.80 171.35 C 148.71 171.35 149.45 170.61 149.44 169.69 L 149.44 168.69 C 149.43 167.78 148.69 167.05 147.78 167.05 C 146.87 167.05 146.13 167.80 146.14 168.71 Z M 146.15 169.70 L 146.15 170.70 C 146.15 171.61 146.89 172.35 147.80 172.35 C 148.70 172.35 149.44 171.61 149.44 170.70 L 149.44 169.70 C 149.44 168.79 148.70 168.05 147.79 168.06 C 146.88 168.06 146.15 168.79 146.15 169.70 Z M 146.15 170.70 L 146.15 171.07 C 146.15 171.98 146.89 172.71 147.79 172.71 C 148.70 172.71 149.44 171.98 149.44 171.07 L 149.44 170.70 C 149.44 169.79 148.70 169.06 147.79 169.06 C 146.89 169.06 146.15 169.80 146.15 170.70 Z"
      fill="black"
      fill-rule="nonzero" /><path d="M 145.25 127.72 L 144.29 128.04 C 143.36 128.35 142.85 129.35 143.16 130.28 C 143.46 131.22 144.47 131.73 145.40 131.42 L 146.36 131.10 C 147.29 130.80 147.80 129.79 147.49 128.86 C 147.19 127.92 146.18 127.42 145.25 127.72 Z M 144.19 128.06 L 143.26 128.42 C 142.33 128.79 141.88 129.83 142.25 130.76 C 142.61 131.68 143.66 132.13 144.58 131.77 L 145.51 131.40 C 146.43 131.04 146.88 129.99 146.52 129.07 C 146.15 128.14 145.11 127.69 144.19 128.06 Z M 143.05 128.50 L 142.18 128.97 C 141.30 129.45 140.97 130.55 141.45 131.43 C 141.93 132.31 143.03 132.64 143.91 132.17 L 144.78 131.69 C 145.67 131.22 146.00 130.11 145.52 129.23 C 145.04 128.35 143.94 128.02 143.05 128.50 Z M 141.94 129.11 L 141.24 129.64 C 140.43 130.26 140.28 131.41 140.89 132.21 C 141.51 133.02 142.66 133.17 143.46 132.56 L 144.16 132.02 C 144.96 131.41 145.12 130.26 144.50 129.46 C 143.89 128.65 142.74 128.50 141.94 129.11 Z M 141.05 129.79 L 140.38 130.46 C 139.66 131.17 139.65 132.34 140.37 133.06 C 141.08 133.78 142.25 133.79 142.97 133.07 L 143.64 132.41 C 144.37 131.69 144.37 130.53 143.66 129.81 C 142.94 129.08 141.78 129.08 141.05 129.79 Z M 140.27 130.57 L 139.57 131.38 C 138.91 132.16 139.01 133.33 139.78 133.99 C 140.56 134.65 141.73 134.56 142.39 133.78 L 143.09 132.96 C 143.75 132.19 143.65 131.02 142.88 130.35 C 142.10 129.69 140.93 129.79 140.27 130.57 Z M 139.51 131.44 L 138.87 132.27 C 138.24 133.08 138.39 134.25 139.20 134.88 C 140.01 135.51 141.18 135.36 141.81 134.55 L 142.45 133.72 C 143.08 132.91 142.93 131.74 142.12 131.11 C 141.31 130.48 140.14 130.63 139.51 131.44 Z M 138.84 132.30 L 138.28 133.06 C 137.67 133.89 137.84 135.05 138.67 135.67 C 139.50 136.28 140.66 136.10 141.27 135.28 L 141.84 134.52 C 142.45 133.69 142.27 132.53 141.45 131.91 C 140.62 131.30 139.45 131.48 138.84 132.30 Z M 138.26 133.09 L 137.68 133.90 C 137.08 134.74 137.28 135.90 138.11 136.50 C 138.95 137.10 140.11 136.90 140.71 136.07 L 141.29 135.25 C 141.89 134.41 141.70 133.25 140.86 132.65 C 140.02 132.06 138.86 132.25 138.26 133.09 Z M 137.66 133.93 L 137.07 134.78 C 136.49 135.63 136.70 136.79 137.55 137.37 C 138.40 137.95 139.56 137.74 140.14 136.89 L 140.73 136.04 C 141.31 135.19 141.10 134.04 140.25 133.45 C 139.41 132.87 138.25 133.08 137.66 133.93 Z M 137.06 134.81 L 136.48 135.68 C 135.91 136.54 136.14 137.69 137.00 138.26 C 137.85 138.83 139.01 138.60 139.58 137.74 L 140.16 136.87 C 140.73 136.01 140.49 134.86 139.64 134.29 C 138.78 133.72 137.63 133.95 137.06 134.81 Z M 136.46 135.71 L 135.91 136.58 C 135.35 137.45 135.61 138.60 136.47 139.15 C 137.34 139.70 138.49 139.45 139.04 138.58 L 139.59 137.71 C 140.14 136.84 139.89 135.70 139.03 135.14 C 138.16 134.59 137.01 134.85 136.46 135.71 Z M 135.90 136.62 L 135.37 137.49 C 134.84 138.36 135.12 139.49 135.98 140.02 C 136.85 140.55 137.99 140.27 138.52 139.41 L 139.04 138.54 C 139.57 137.67 139.30 136.54 138.43 136.01 C 137.56 135.48 136.43 135.75 135.90 136.62 Z M 135.37 137.53 L 134.87 138.39 C 134.36 139.26 134.65 140.37 135.52 140.88 C 136.39 141.39 137.51 141.10 138.01 140.23 L 138.52 139.37 C 139.03 138.50 138.73 137.38 137.86 136.87 C 136.99 136.36 135.88 136.66 135.37 137.53 Z M 134.87 138.43 L 134.38 139.29 C 133.90 140.16 134.21 141.26 135.07 141.74 C 135.94 142.23 137.04 141.92 137.53 141.05 L 138.01 140.19 C 138.50 139.32 138.19 138.22 137.32 137.73 C 136.45 137.25 135.36 137.56 134.87 138.43 Z M 134.39 139.32 L 133.92 140.19 C 133.45 141.06 133.77 142.14 134.64 142.61 C 135.50 143.08 136.59 142.76 137.05 141.89 L 137.53 141.02 C 137.99 140.15 137.67 139.07 136.80 138.60 C 135.94 138.13 134.86 138.46 134.39 139.32 Z M 133.92 140.22 L 133.45 141.13 C 133.00 141.99 133.33 143.06 134.19 143.51 C 135.06 143.96 136.12 143.63 136.57 142.77 L 137.05 141.86 C 137.50 141.00 137.17 139.93 136.30 139.48 C 135.44 139.03 134.37 139.36 133.92 140.22 Z M 133.46 141.16 L 132.98 142.10 C 132.54 142.96 132.88 144.01 133.74 144.44 C 134.60 144.88 135.65 144.54 136.09 143.68 L 136.57 142.74 C 137.00 141.88 136.66 140.83 135.80 140.39 C 134.94 139.96 133.89 140.30 133.46 141.16 Z M 132.99 142.12 L 132.53 143.05 C 132.10 143.90 132.45 144.94 133.31 145.36 C 134.16 145.78 135.20 145.44 135.62 144.58 L 136.08 143.65 C 136.50 142.80 136.15 141.77 135.30 141.34 C 134.45 140.92 133.41 141.27 132.99 142.12 Z M 132.54 143.07 L 132.10 143.97 C 131.69 144.82 132.05 145.84 132.90 146.25 C 133.74 146.66 134.76 146.30 135.17 145.45 L 135.61 144.56 C 136.02 143.71 135.66 142.69 134.82 142.28 C 133.97 141.87 132.95 142.23 132.54 143.07 Z M 132.12 143.99 L 131.72 144.83 C 131.32 145.67 131.68 146.68 132.52 147.08 C 133.36 147.47 134.37 147.12 134.76 146.27 L 135.16 145.43 C 135.56 144.59 135.20 143.59 134.36 143.19 C 133.52 142.79 132.51 143.15 132.12 143.99 Z M 131.73 144.85 L 131.29 145.80 C 130.90 146.64 131.27 147.63 132.10 148.02 C 132.94 148.40 133.93 148.04 134.32 147.20 L 134.76 146.25 C 135.14 145.42 134.78 144.42 133.94 144.04 C 133.10 143.65 132.11 144.02 131.73 144.85 Z M 131.29 145.82 L 130.87 146.75 C 130.49 147.59 130.86 148.57 131.70 148.94 C 132.53 149.32 133.52 148.95 133.89 148.12 L 134.31 147.19 C 134.69 146.35 134.32 145.37 133.49 144.99 C 132.65 144.61 131.67 144.99 131.29 145.82 Z M 130.88 146.75 L 130.49 147.61 C 130.11 148.44 130.48 149.42 131.31 149.80 C 132.14 150.17 133.12 149.81 133.49 148.98 L 133.88 148.12 C 134.26 147.29 133.89 146.31 133.06 145.93 C 132.23 145.56 131.26 145.92 130.88 146.75 Z M 130.51 147.60 L 130.11 148.44 C 129.72 149.26 130.07 150.24 130.89 150.63 C 131.71 151.01 132.69 150.66 133.08 149.84 L 133.48 148.99 C 133.86 148.17 133.51 147.20 132.69 146.81 C 131.87 146.43 130.89 146.78 130.51 147.60 Z M 130.12 148.42 L 129.69 149.30 C 129.29 150.11 129.62 151.09 130.43 151.49 C 131.24 151.89 132.22 151.56 132.62 150.75 L 133.06 149.87 C 133.46 149.06 133.13 148.08 132.32 147.68 C 131.51 147.27 130.52 147.61 130.12 148.42 Z M 129.70 149.28 L 129.24 150.17 C 128.83 150.98 129.15 151.96 129.96 152.38 C 130.76 152.79 131.75 152.47 132.16 151.66 L 132.61 150.77 C 133.03 149.96 132.71 148.98 131.90 148.57 C 131.10 148.15 130.11 148.47 129.70 149.28 Z M 129.25 150.16 L 128.78 151.07 C 128.36 151.87 128.67 152.86 129.48 153.27 C 130.28 153.69 131.27 153.38 131.68 152.58 L 132.15 151.67 C 132.57 150.87 132.26 149.88 131.45 149.47 C 130.65 149.05 129.66 149.36 129.25 150.16 Z M 128.78 151.06 L 128.70 151.21 C 128.29 152.01 128.60 153.00 129.40 153.42 C 130.20 153.84 131.19 153.52 131.61 152.72 L 131.68 152.58 C 132.10 151.78 131.79 150.79 130.99 150.37 C 130.19 149.95 129.20 150.26 128.78 151.06 Z"
      fill="black"
      fill-rule="nonzero" /><path d="M 141.28 139.28 L 142.20 138.99 C 143.11 138.71 143.62 137.75 143.33 136.84 C 143.05 135.93 142.08 135.42 141.18 135.71 L 140.25 135.99 C 139.34 136.28 138.84 137.24 139.12 138.15 C 139.40 139.06 140.37 139.57 141.28 139.28 Z M 142.15 139.03 L 143.10 138.77 C 144.03 138.52 144.58 137.56 144.32 136.64 C 144.07 135.71 143.11 135.16 142.19 135.41 L 141.23 135.67 C 140.30 135.92 139.75 136.88 140.01 137.81 C 140.26 138.74 141.22 139.29 142.15 139.03 Z M 142.99 138.82 L 144.00 138.62 C 144.95 138.43 145.57 137.50 145.38 136.55 C 145.19 135.59 144.27 134.97 143.31 135.16 L 142.30 135.36 C 141.34 135.55 140.72 136.48 140.91 137.44 C 141.10 138.39 142.03 139.01 142.99 138.82 Z M 143.85 138.66 L 144.76 138.56 C 145.73 138.45 146.43 137.57 146.32 136.59 C 146.21 135.62 145.33 134.91 144.36 135.02 L 143.45 135.13 C 142.48 135.23 141.78 136.11 141.89 137.09 C 142.00 138.07 142.88 138.77 143.85 138.66 Z M 144.61 138.57 L 145.54 138.54 C 146.53 138.51 147.30 137.69 147.27 136.71 C 147.24 135.73 146.42 134.95 145.44 134.98 L 144.50 135.01 C 143.52 135.04 142.75 135.86 142.78 136.84 C 142.81 137.82 143.63 138.60 144.61 138.57 Z M 145.40 138.54 L 146.41 138.59 C 147.40 138.64 148.23 137.89 148.28 136.91 C 148.34 135.93 147.58 135.09 146.60 135.04 L 145.58 134.98 C 144.60 134.93 143.76 135.69 143.71 136.67 C 143.66 137.65 144.42 138.49 145.40 138.54 Z M 146.27 138.58 L 147.38 138.73 C 148.36 138.86 149.25 138.17 149.38 137.20 C 149.51 136.22 148.82 135.32 147.85 135.20 L 146.74 135.05 C 145.76 134.92 144.87 135.61 144.74 136.58 C 144.61 137.56 145.30 138.45 146.27 138.58 Z M 147.27 138.70 L 148.25 138.90 C 149.22 139.09 150.15 138.47 150.34 137.51 C 150.54 136.54 149.91 135.61 148.95 135.42 L 147.96 135.22 C 147.00 135.03 146.07 135.65 145.87 136.61 C 145.68 137.58 146.31 138.51 147.27 138.70 Z M 148.18 138.87 L 149.17 139.11 C 150.12 139.34 151.07 138.77 151.30 137.82 C 151.53 136.87 150.95 135.92 150.01 135.69 L 149.02 135.45 C 148.08 135.21 147.12 135.79 146.89 136.74 C 146.66 137.69 147.24 138.64 148.18 138.87 Z M 149.12 139.09 L 150.12 139.36 C 151.05 139.62 152.02 139.07 152.27 138.14 C 152.53 137.21 151.98 136.24 151.05 135.99 L 150.05 135.71 C 149.12 135.46 148.16 136.00 147.90 136.94 C 147.64 137.87 148.19 138.83 149.12 139.09 Z M 150.09 139.34 L 151.07 139.63 C 151.99 139.90 152.96 139.38 153.23 138.46 C 153.50 137.54 152.98 136.57 152.06 136.30 L 151.08 136.01 C 150.16 135.74 149.19 136.26 148.92 137.18 C 148.65 138.10 149.17 139.07 150.09 139.34 Z M 151.06 139.61 L 151.98 139.90 C 152.89 140.18 153.86 139.67 154.14 138.76 C 154.42 137.85 153.91 136.89 153.00 136.61 L 152.07 136.32 C 151.16 136.04 150.20 136.55 149.92 137.46 C 149.64 138.37 150.15 139.33 151.06 139.61 Z M 151.98 139.88 L 153.02 140.21 C 153.92 140.49 154.88 139.99 155.16 139.09 C 155.45 138.19 154.95 137.23 154.05 136.95 L 153.01 136.62 C 152.11 136.34 151.15 136.84 150.86 137.74 C 150.58 138.64 151.08 139.60 151.98 139.88 Z M 153.02 140.19 L 154.02 140.50 C 154.91 140.79 155.86 140.29 156.14 139.40 C 156.42 138.51 155.93 137.56 155.04 137.28 L 154.04 136.97 C 153.15 136.69 152.21 137.18 151.92 138.07 C 151.64 138.96 152.13 139.91 153.02 140.19 Z M 154.02 140.48 L 154.93 140.77 C 155.81 141.05 156.75 140.57 157.03 139.69 C 157.31 138.81 156.82 137.87 155.94 137.59 L 155.03 137.30 C 154.15 137.02 153.22 137.51 152.94 138.39 C 152.66 139.26 153.14 140.20 154.02 140.48 Z M 154.93 140.75 L 155.80 141.03 C 156.67 141.31 157.59 140.83 157.87 139.96 C 158.15 139.09 157.67 138.17 156.80 137.89 L 155.94 137.61 C 155.07 137.33 154.14 137.81 153.86 138.68 C 153.59 139.55 154.07 140.48 154.93 140.75 Z M 155.80 141.02 L 155.91 141.06 C 156.78 141.33 157.70 140.86 157.97 140.00 C 158.25 139.13 157.78 138.21 156.91 137.94 L 156.80 137.90 C 155.94 137.62 155.02 138.10 154.74 138.96 C 154.47 139.82 154.94 140.74 155.80 141.02 Z"
      fill="black"
      fill-rule="nonzero" /><path d="M 159.69 113.44 L 159.73 114.33 C 159.78 115.38 160.66 116.19 161.70 116.15 C 162.75 116.10 163.56 115.22 163.51 114.18 L 163.48 113.28 C 163.43 112.24 162.55 111.43 161.51 111.47 C 160.46 111.51 159.65 112.40 159.69 113.44 Z M 159.73 114.35 L 159.78 115.29 C 159.83 116.34 160.72 117.14 161.77 117.09 C 162.81 117.04 163.61 116.15 163.56 115.10 L 163.51 114.16 C 163.46 113.12 162.57 112.31 161.53 112.36 C 160.48 112.42 159.68 113.31 159.73 114.35 Z M 159.78 115.32 L 159.85 116.36 C 159.92 117.40 160.82 118.19 161.86 118.12 C 162.90 118.06 163.69 117.16 163.63 116.11 L 163.56 115.07 C 163.49 114.03 162.59 113.24 161.55 113.31 C 160.50 113.38 159.71 114.28 159.78 115.32 Z M 159.85 116.39 L 159.94 117.47 C 160.02 118.51 160.94 119.28 161.98 119.20 C 163.02 119.11 163.80 118.20 163.71 117.16 L 163.62 116.08 C 163.54 115.04 162.62 114.26 161.58 114.35 C 160.54 114.43 159.77 115.35 159.85 116.39 Z M 159.94 117.49 L 160.03 118.38 C 160.12 119.42 161.05 120.18 162.09 120.08 C 163.13 119.98 163.89 119.06 163.79 118.02 L 163.71 117.13 C 163.61 116.09 162.69 115.33 161.65 115.43 C 160.61 115.53 159.84 116.45 159.94 117.49 Z M 160.03 118.39 L 160.13 119.34 C 160.23 120.38 161.16 121.14 162.20 121.03 C 163.23 120.93 163.99 120.00 163.89 118.96 L 163.79 118.01 C 163.69 116.97 162.76 116.21 161.72 116.32 C 160.68 116.42 159.92 117.35 160.03 118.39 Z M 160.13 119.35 L 160.23 120.36 C 160.34 121.39 161.27 122.15 162.31 122.04 C 163.34 121.93 164.10 121.00 163.99 119.97 L 163.88 118.96 C 163.78 117.92 162.85 117.17 161.81 117.27 C 160.77 117.38 160.02 118.31 160.13 119.35 Z M 160.23 120.35 L 160.34 121.41 C 160.45 122.44 161.38 123.20 162.41 123.09 C 163.45 122.98 164.20 122.05 164.10 121.02 L 163.99 119.97 C 163.88 118.93 162.95 118.18 161.92 118.28 C 160.88 118.39 160.13 119.32 160.23 120.35 Z M 160.34 121.40 L 160.45 122.49 C 160.56 123.52 161.48 124.28 162.52 124.17 C 163.55 124.07 164.31 123.14 164.20 122.11 L 164.09 121.02 C 163.99 119.99 163.07 119.23 162.03 119.34 C 160.99 119.44 160.24 120.37 160.34 121.40 Z M 160.46 122.48 L 160.56 123.54 C 160.66 124.58 161.58 125.34 162.61 125.24 C 163.65 125.14 164.41 124.22 164.31 123.18 L 164.20 122.12 C 164.10 121.08 163.18 120.33 162.15 120.43 C 161.11 120.53 160.36 121.45 160.46 122.48 Z M 160.56 123.53 L 160.66 124.59 C 160.75 125.62 161.67 126.38 162.70 126.28 C 163.73 126.19 164.49 125.28 164.40 124.24 L 164.30 123.19 C 164.21 122.16 163.29 121.40 162.26 121.49 C 161.23 121.59 160.47 122.50 160.56 123.53 Z M 160.66 124.58 L 160.75 125.61 C 160.84 126.65 161.75 127.41 162.78 127.32 C 163.81 127.23 164.57 126.32 164.48 125.29 L 164.39 124.25 C 164.30 123.22 163.40 122.46 162.37 122.55 C 161.34 122.64 160.57 123.55 160.66 124.58 Z M 160.76 125.61 L 160.84 126.61 C 160.92 127.64 161.83 128.41 162.85 128.32 C 163.88 128.24 164.65 127.34 164.56 126.31 L 164.48 125.30 C 164.40 124.27 163.49 123.51 162.47 123.59 C 161.44 123.68 160.67 124.58 160.76 125.61 Z M 160.84 126.60 L 160.92 127.57 C 161.00 128.59 161.89 129.36 162.92 129.28 C 163.94 129.20 164.71 128.31 164.63 127.28 L 164.56 126.32 C 164.48 125.29 163.59 124.52 162.56 124.60 C 161.53 124.68 160.76 125.58 160.84 126.60 Z M 160.92 127.55 L 160.99 128.45 C 161.06 129.48 161.95 130.25 162.97 130.18 C 163.99 130.10 164.77 129.21 164.69 128.19 L 164.63 127.29 C 164.56 126.27 163.67 125.50 162.64 125.57 C 161.62 125.64 160.85 126.53 160.92 127.55 Z M 160.99 128.44 L 161.06 129.55 C 161.12 130.57 162.00 131.35 163.02 131.28 C 164.05 131.22 164.82 130.34 164.76 129.32 L 164.69 128.21 C 164.62 127.19 163.74 126.41 162.72 126.47 C 161.70 126.54 160.93 127.42 160.99 128.44 Z M 161.07 129.53 L 161.12 130.56 C 161.18 131.58 162.04 132.36 163.06 132.31 C 164.08 132.25 164.86 131.38 164.80 130.37 L 164.75 129.34 C 164.70 128.32 163.83 127.54 162.81 127.60 C 161.80 127.65 161.02 128.52 161.07 129.53 Z M 161.13 130.54 L 161.17 131.49 C 161.22 132.50 162.07 133.29 163.08 133.24 C 164.09 133.20 164.88 132.34 164.83 131.33 L 164.79 130.39 C 164.75 129.37 163.89 128.59 162.88 128.63 C 161.87 128.68 161.09 129.53 161.13 130.54 Z M 161.18 131.48 L 161.22 132.39 C 161.25 133.39 162.10 134.18 163.11 134.14 C 164.11 134.10 164.90 133.26 164.86 132.25 L 164.83 131.34 C 164.79 130.34 163.94 129.55 162.94 129.59 C 161.93 129.63 161.14 130.47 161.18 131.48 Z M 161.22 132.38 L 161.26 133.34 C 161.29 134.34 162.14 135.13 163.14 135.09 C 164.14 135.06 164.92 134.22 164.89 133.21 L 164.85 132.26 C 164.82 131.25 163.97 130.47 162.97 130.51 C 161.97 130.54 161.19 131.38 161.22 132.38 Z M 161.27 133.34 L 161.30 134.33 C 161.34 135.33 162.17 136.11 163.17 136.07 C 164.17 136.04 164.95 135.20 164.91 134.20 L 164.88 133.22 C 164.84 132.22 164.01 131.44 163.01 131.47 C 162.01 131.51 161.23 132.34 161.27 133.34 Z M 161.31 134.33 L 161.34 135.33 C 161.38 136.33 162.21 137.11 163.20 137.07 C 164.20 137.04 164.97 136.21 164.94 135.21 L 164.91 134.21 C 164.87 133.21 164.04 132.43 163.04 132.47 C 162.05 132.50 161.27 133.33 161.31 134.33 Z M 161.35 135.33 L 161.38 136.36 C 161.42 137.35 162.25 138.12 163.24 138.09 C 164.23 138.06 165.00 137.23 164.97 136.24 L 164.93 135.21 C 164.90 134.22 164.07 133.45 163.08 133.48 C 162.09 133.51 161.31 134.34 161.35 135.33 Z M 161.39 136.36 L 161.42 137.37 C 161.46 138.36 162.28 139.13 163.27 139.10 C 164.25 139.07 165.03 138.24 164.99 137.26 L 164.96 136.24 C 164.93 135.25 164.10 134.48 163.12 134.51 C 162.13 134.54 161.36 135.37 161.39 136.36 Z M 161.43 137.37 L 161.46 138.39 C 161.49 139.37 162.31 140.14 163.29 140.11 C 164.28 140.08 165.05 139.26 165.02 138.28 L 164.99 137.26 C 164.96 136.28 164.14 135.51 163.15 135.54 C 162.17 135.57 161.40 136.39 161.43 137.37 Z M 161.47 138.38 L 161.50 139.38 C 161.52 140.36 162.34 141.13 163.32 141.10 C 164.29 141.07 165.06 140.26 165.04 139.28 L 165.01 138.28 C 164.98 137.31 164.17 136.53 163.19 136.56 C 162.21 136.59 161.44 137.40 161.47 138.38 Z M 161.51 139.37 L 161.53 140.34 C 161.55 141.31 162.35 142.08 163.33 142.06 C 164.30 142.04 165.07 141.23 165.05 140.26 L 165.03 139.29 C 165.01 138.32 164.20 137.55 163.23 137.57 C 162.26 137.59 161.48 138.40 161.51 139.37 Z M 161.53 140.32 L 161.55 141.37 C 161.56 142.34 162.36 143.11 163.33 143.10 C 164.29 143.08 165.07 142.29 165.06 141.32 L 165.04 140.27 C 165.03 139.31 164.23 138.53 163.26 138.54 C 162.30 138.56 161.52 139.35 161.53 140.32 Z M 161.56 141.35 L 161.56 142.35 C 161.57 143.32 162.36 144.09 163.32 144.09 C 164.28 144.08 165.06 143.30 165.05 142.33 L 165.05 141.33 C 165.04 140.37 164.26 139.59 163.29 139.60 C 162.33 139.60 161.55 140.39 161.56 141.35 Z M 161.57 142.35 L 161.57 143.32 C 161.58 144.28 162.35 145.05 163.31 145.05 C 164.27 145.05 165.05 144.27 165.05 143.31 L 165.04 142.34 C 165.04 141.38 164.26 140.60 163.31 140.61 C 162.35 140.61 161.57 141.39 161.57 142.35 Z M 161.58 143.31 L 161.58 144.24 C 161.58 145.20 162.36 145.97 163.31 145.97 C 164.26 145.97 165.04 145.20 165.04 144.24 L 165.04 143.31 C 165.04 142.36 164.26 141.59 163.31 141.59 C 162.36 141.59 161.58 142.36 161.58 143.31 Z M 161.59 144.24 L 161.59 145.17 C 161.59 146.12 162.36 146.89 163.31 146.89 C 164.26 146.89 165.03 146.12 165.03 145.17 L 165.03 144.24 C 165.03 143.29 164.26 142.52 163.31 142.52 C 162.36 142.52 161.59 143.29 161.59 144.24 Z M 161.60 145.17 L 161.60 146.16 C 161.60 147.11 162.36 147.87 163.31 147.87 C 164.26 147.87 165.02 147.11 165.02 146.16 L 165.02 145.17 C 165.02 144.22 164.26 143.45 163.31 143.45 C 162.36 143.45 161.60 144.22 161.60 145.17 Z M 161.61 146.16 L 161.61 147.27 C 161.61 148.21 162.37 148.97 163.31 148.97 C 164.25 148.97 165.01 148.21 165.01 147.27 L 165.01 146.16 C 165.01 145.22 164.25 144.46 163.31 144.46 C 162.37 144.46 161.61 145.22 161.61 146.16 Z M 161.61 147.27 L 161.61 148.22 C 161.61 149.16 162.37 149.92 163.31 149.92 C 164.25 149.92 165.01 149.16 165.01 148.22 L 165.01 147.27 C 165.01 146.33 164.25 145.57 163.31 145.57 C 162.37 145.57 161.61 146.33 161.61 147.27 Z M 161.62 148.22 L 161.62 149.19 C 161.62 150.12 162.38 150.88 163.31 150.88 C 164.24 150.88 165.00 150.12 165.00 149.19 L 165.00 148.22 C 165.00 147.28 164.24 146.53 163.31 146.53 C 162.38 146.53 161.62 147.28 161.62 148.22 Z M 161.62 149.19 L 161.62 150.21 C 161.62 151.14 162.38 151.89 163.31 151.89 C 164.24 151.89 165.00 151.14 165.00 150.21 L 165.00 149.19 C 165.00 148.26 164.24 147.50 163.31 147.50 C 162.38 147.50 161.62 148.26 161.62 149.19 Z M 161.63 150.21 L 161.63 151.25 C 161.63 152.18 162.38 152.93 163.31 152.93 C 164.24 152.93 164.99 152.18 164.99 151.25 L 164.99 150.21 C 164.99 149.28 164.24 148.53 163.31 148.53 C 162.38 148.53 161.63 149.28 161.63 150.21 Z M 161.64 151.25 L 161.64 152.29 C 161.64 153.21 162.38 153.96 163.31 153.96 C 164.24 153.96 164.99 153.21 164.99 152.29 L 164.99 151.25 C 164.99 150.32 164.24 149.57 163.31 149.57 C 162.38 149.57 161.64 150.32 161.64 151.25 Z M 161.64 152.29 L 161.64 153.36 C 161.64 154.28 162.39 155.03 163.31 155.03 C 164.23 155.03 164.98 154.28 164.98 153.36 L 164.98 152.29 C 164.98 151.37 164.23 150.62 163.31 150.62 C 162.39 150.62 161.64 151.37 161.64 152.29 Z M 161.65 153.36 L 161.65 154.41 C 161.65 155.33 162.39 156.07 163.31 156.07 C 164.23 156.07 164.97 155.33 164.97 154.41 L 164.97 153.36 C 164.97 152.44 164.23 151.70 163.31 151.70 C 162.39 151.70 161.65 152.44 161.65 153.36 Z M 161.65 154.41 L 161.65 155.42 C 161.65 156.34 162.40 157.08 163.31 157.08 C 164.22 157.08 164.97 156.34 164.97 155.42 L 164.97 154.41 C 164.97 153.49 164.22 152.75 163.31 152.75 C 162.40 152.75 161.65 153.49 161.65 154.41 Z M 161.66 155.42 L 161.66 156.39 C 161.66 157.30 162.40 158.04 163.31 158.04 C 164.22 158.04 164.96 157.30 164.96 156.39 L 164.96 155.42 C 164.96 154.51 164.22 153.77 163.31 153.77 C 162.40 153.77 161.66 154.51 161.66 155.42 Z M 161.67 156.39 L 161.67 157.30 C 161.67 158.21 162.40 158.94 163.31 158.94 C 164.22 158.94 164.95 158.21 164.95 157.30 L 164.95 156.39 C 164.95 155.48 164.22 154.74 163.31 154.74 C 162.40 154.74 161.67 155.48 161.67 156.39 Z M 161.67 157.30 L 161.67 158.37 C 161.67 159.28 162.40 160.01 163.31 160.01 C 164.22 160.01 164.95 159.28 164.95 158.37 L 164.95 157.30 C 164.95 156.39 164.22 155.66 163.31 155.66 C 162.40 155.66 161.67 156.39 161.67 157.30 Z M 161.67 158.37 L 161.67 159.38 C 161.67 160.28 162.40 161.02 163.31 161.02 C 164.22 161.02 164.95 160.28 164.95 159.38 L 164.95 158.37 C 164.95 157.47 164.22 156.73 163.31 156.73 C 162.40 156.73 161.67 157.47 161.67 158.37 Z M 161.67 159.38 L 161.67 160.34 C 161.67 161.25 162.41 161.98 163.31 161.98 C 164.21 161.98 164.95 161.25 164.95 160.34 L 164.95 159.38 C 164.95 158.47 164.21 157.74 163.31 157.74 C 162.41 157.74 161.67 158.47 161.67 159.38 Z M 161.67 160.34 L 161.67 161.12 C 161.67 162.02 162.41 162.76 163.31 162.76 C 164.21 162.76 164.95 162.02 164.95 161.12 L 164.95 160.34 C 164.95 159.44 164.21 158.71 163.31 158.71 C 162.41 158.71 161.67 159.44 161.67 160.34 Z"
      fill="black"
      fill-rule="nonzero" /><path d="M 166.17 111.79 L 167.04 111.26 C 167.93 110.70 168.20 109.53 167.65 108.64 C 167.10 107.75 165.92 107.47 165.03 108.02 L 164.16 108.56 C 163.27 109.12 163.00 110.29 163.55 111.18 C 164.10 112.07 165.28 112.35 166.17 111.79 Z M 167.00 111.28 L 167.87 110.77 C 168.77 110.23 169.07 109.06 168.54 108.16 C 168.01 107.25 166.84 106.95 165.93 107.49 L 165.07 108.00 C 164.16 108.54 163.86 109.70 164.39 110.61 C 164.93 111.51 166.10 111.81 167.00 111.28 Z M 167.80 110.81 L 168.67 110.34 C 169.60 109.85 169.95 108.70 169.46 107.77 C 168.96 106.84 167.81 106.49 166.88 106.98 L 166.01 107.45 C 165.08 107.94 164.73 109.09 165.22 110.02 C 165.71 110.95 166.87 111.30 167.80 110.81 Z M 168.55 110.40 L 169.44 110.01 C 170.41 109.58 170.84 108.45 170.41 107.49 C 169.98 106.53 168.86 106.10 167.89 106.52 L 167.00 106.92 C 166.04 107.35 165.61 108.48 166.04 109.44 C 166.46 110.40 167.59 110.83 168.55 110.40 Z M 169.29 110.07 L 170.22 109.75 C 171.21 109.41 171.74 108.32 171.40 107.33 C 171.06 106.33 169.98 105.80 168.98 106.14 L 168.05 106.46 C 167.05 106.80 166.52 107.89 166.87 108.88 C 167.21 109.88 168.29 110.41 169.29 110.07 Z M 170.06 109.79 L 171.02 109.55 C 172.04 109.30 172.66 108.26 172.41 107.24 C 172.15 106.22 171.12 105.60 170.10 105.86 L 169.14 106.10 C 168.11 106.35 167.49 107.39 167.75 108.41 C 168.00 109.43 169.04 110.05 170.06 109.79 Z M 170.88 109.58 L 171.89 109.41 C 172.92 109.23 173.62 108.25 173.44 107.21 C 173.26 106.17 172.28 105.48 171.24 105.65 L 170.23 105.83 C 169.20 106.01 168.50 106.99 168.68 108.03 C 168.86 109.07 169.84 109.76 170.88 109.58 Z M 171.77 109.43 L 172.78 109.32 C 173.82 109.20 174.58 108.26 174.47 107.22 C 174.35 106.17 173.41 105.41 172.36 105.53 L 171.36 105.64 C 170.31 105.75 169.55 106.69 169.67 107.74 C 169.78 108.79 170.72 109.54 171.77 109.43 Z M 172.65 109.33 L 173.67 109.28 C 174.72 109.24 175.54 108.35 175.50 107.30 C 175.45 106.25 174.56 105.43 173.51 105.48 L 172.49 105.52 C 171.44 105.56 170.62 106.45 170.67 107.50 C 170.71 108.55 171.60 109.37 172.65 109.33 Z M 173.50 109.28 L 174.51 109.33 C 175.56 109.38 176.45 108.57 176.50 107.52 C 176.55 106.46 175.74 105.57 174.69 105.52 L 173.68 105.48 C 172.63 105.43 171.74 106.24 171.69 107.29 C 171.64 108.34 172.45 109.23 173.50 109.28 Z M 174.28 109.31 L 175.23 109.47 C 176.27 109.64 177.25 108.95 177.43 107.91 C 177.60 106.87 176.91 105.89 175.87 105.71 L 174.92 105.55 C 173.88 105.37 172.89 106.07 172.72 107.11 C 172.54 108.15 173.24 109.13 174.28 109.31 Z M 174.93 109.39 L 175.84 109.71 C 176.84 110.05 177.92 109.52 178.27 108.53 C 178.61 107.53 178.08 106.45 177.09 106.11 L 176.17 105.79 C 175.18 105.44 174.09 105.97 173.75 106.97 C 173.40 107.96 173.93 109.05 174.93 109.39 Z M 175.53 109.57 L 176.37 110.04 C 177.29 110.55 178.45 110.23 178.97 109.31 C 179.48 108.39 179.15 107.23 178.24 106.72 L 177.40 106.25 C 176.48 105.73 175.32 106.06 174.80 106.97 C 174.29 107.89 174.62 109.05 175.53 109.57 Z M 176.13 109.87 L 176.92 110.50 C 177.75 111.15 178.95 111.01 179.60 110.18 C 180.25 109.36 180.10 108.16 179.28 107.51 L 178.48 106.88 C 177.66 106.23 176.46 106.38 175.81 107.20 C 175.16 108.03 175.30 109.22 176.13 109.87 Z M 176.76 110.35 L 177.46 111.05 C 178.21 111.79 179.41 111.79 180.15 111.04 C 180.89 110.30 180.89 109.10 180.14 108.36 L 179.44 107.66 C 178.70 106.92 177.50 106.92 176.76 107.67 C 176.02 108.41 176.02 109.61 176.76 110.35 Z M 177.36 110.94 L 177.95 111.63 C 178.64 112.42 179.84 112.51 180.63 111.83 C 181.43 111.15 181.52 109.95 180.83 109.16 L 180.24 108.47 C 179.56 107.67 178.36 107.58 177.57 108.26 C 176.77 108.95 176.68 110.15 177.36 110.94 Z M 177.88 111.53 L 178.47 112.31 C 179.10 113.14 180.28 113.31 181.12 112.68 C 181.96 112.05 182.12 110.86 181.49 110.03 L 180.91 109.25 C 180.28 108.42 179.09 108.25 178.25 108.88 C 177.42 109.51 177.25 110.70 177.88 111.53 Z M 178.41 112.22 L 178.98 113.08 C 179.56 113.95 180.74 114.18 181.60 113.60 C 182.47 113.02 182.71 111.85 182.13 110.98 L 181.55 110.12 C 180.97 109.25 179.80 109.01 178.93 109.59 C 178.06 110.17 177.83 111.35 178.41 112.22 Z M 178.93 112.99 L 179.49 113.94 C 180.02 114.84 181.18 115.13 182.08 114.60 C 182.98 114.07 183.27 112.91 182.74 112.01 L 182.18 111.06 C 181.65 110.17 180.49 109.87 179.59 110.40 C 178.69 110.94 178.40 112.10 178.93 112.99 Z M 179.45 113.86 L 179.94 114.78 C 180.43 115.70 181.57 116.05 182.49 115.56 C 183.41 115.07 183.76 113.93 183.27 113.01 L 182.78 112.09 C 182.29 111.17 181.15 110.82 180.23 111.31 C 179.31 111.80 178.96 112.94 179.45 113.86 Z M 179.91 114.72 L 180.36 115.64 C 180.81 116.57 181.94 116.96 182.88 116.51 C 183.81 116.05 184.20 114.92 183.74 113.99 L 183.30 113.07 C 182.84 112.14 181.72 111.75 180.78 112.20 C 179.85 112.66 179.46 113.78 179.91 114.72 Z M 180.34 115.58 L 180.76 116.52 C 181.19 117.47 182.30 117.89 183.25 117.47 C 184.19 117.04 184.61 115.93 184.19 114.98 L 183.76 114.04 C 183.34 113.10 182.23 112.68 181.28 113.10 C 180.34 113.53 179.91 114.64 180.34 115.58 Z M 180.75 116.48 L 181.14 117.42 C 181.54 118.37 182.64 118.82 183.59 118.42 C 184.55 118.02 185.00 116.93 184.60 115.97 L 184.20 115.03 C 183.80 114.08 182.71 113.63 181.75 114.03 C 180.80 114.43 180.35 115.52 180.75 116.48 Z M 181.13 117.37 L 181.48 118.29 C 181.86 119.25 182.94 119.73 183.91 119.35 C 184.87 118.98 185.34 117.90 184.97 116.93 L 184.61 116.02 C 184.24 115.05 183.15 114.58 182.19 114.95 C 181.23 115.33 180.75 116.41 181.13 117.37 Z M 181.47 118.24 L 181.80 119.16 C 182.15 120.13 183.22 120.63 184.19 120.28 C 185.16 119.93 185.66 118.86 185.31 117.89 L 184.98 116.98 C 184.63 116.01 183.56 115.51 182.59 115.86 C 181.62 116.21 181.12 117.28 181.47 118.24 Z M 181.79 119.10 L 182.13 120.14 C 182.45 121.11 183.50 121.65 184.47 121.33 C 185.45 121.01 185.98 119.96 185.66 118.98 L 185.32 117.95 C 185.00 116.97 183.95 116.44 182.98 116.76 C 182.00 117.08 181.47 118.13 181.79 119.10 Z M 182.12 120.08 L 182.40 121.04 C 182.69 122.02 183.71 122.59 184.69 122.30 C 185.68 122.01 186.24 120.99 185.95 120.01 L 185.67 119.04 C 185.39 118.06 184.36 117.50 183.38 117.78 C 182.40 118.07 181.83 119.10 182.12 120.08 Z M 182.39 120.99 L 182.64 121.91 C 182.89 122.90 183.90 123.49 184.89 123.23 C 185.87 122.97 186.46 121.96 186.20 120.98 L 185.96 120.06 C 185.70 119.07 184.69 118.48 183.71 118.74 C 182.72 119.00 182.13 120.01 182.39 120.99 Z M 182.63 121.88 L 182.86 122.79 C 183.10 123.77 184.09 124.37 185.07 124.14 C 186.06 123.90 186.66 122.90 186.42 121.92 L 186.20 121.01 C 185.96 120.03 184.97 119.42 183.98 119.66 C 183.00 119.90 182.40 120.89 182.63 121.88 Z M 182.86 122.77 L 183.08 123.71 C 183.31 124.69 184.29 125.30 185.28 125.07 C 186.26 124.84 186.87 123.86 186.64 122.88 L 186.42 121.93 C 186.19 120.95 185.20 120.34 184.22 120.57 C 183.24 120.80 182.63 121.79 182.86 122.77 Z M 183.08 123.70 L 183.30 124.66 C 183.52 125.64 184.50 126.26 185.48 126.04 C 186.46 125.81 187.08 124.84 186.86 123.86 L 186.64 122.89 C 186.42 121.91 185.44 121.29 184.46 121.52 C 183.48 121.74 182.86 122.71 183.08 123.70 Z M 183.30 124.64 L 183.51 125.62 C 183.72 126.61 184.69 127.23 185.67 127.02 C 186.65 126.81 187.28 125.84 187.07 124.86 L 186.85 123.88 C 186.64 122.90 185.68 122.27 184.70 122.48 C 183.71 122.69 183.09 123.66 183.30 124.64 Z M 183.51 125.60 L 183.71 126.60 C 183.91 127.58 184.86 128.22 185.85 128.02 C 186.83 127.83 187.46 126.87 187.27 125.89 L 187.07 124.89 C 186.87 123.91 185.91 123.27 184.93 123.47 C 183.95 123.66 183.32 124.62 183.51 125.60 Z M 183.71 126.57 L 183.89 127.55 C 184.07 128.53 185.02 129.18 186.00 129.00 C 186.98 128.81 187.63 127.87 187.45 126.89 L 187.27 125.92 C 187.09 124.94 186.14 124.29 185.16 124.47 C 184.18 124.65 183.53 125.59 183.71 126.57 Z M 183.89 127.52 L 184.06 128.49 C 184.22 129.47 185.15 130.13 186.14 129.96 C 187.12 129.80 187.78 128.87 187.61 127.89 L 187.45 126.92 C 187.28 125.94 186.35 125.28 185.37 125.44 C 184.39 125.61 183.73 126.54 183.89 127.52 Z M 184.06 128.47 L 184.22 129.46 C 184.37 130.43 185.29 131.10 186.27 130.95 C 187.25 130.79 187.92 129.87 187.76 128.89 L 187.61 127.91 C 187.45 126.93 186.53 126.26 185.55 126.41 C 184.57 126.57 183.91 127.49 184.06 128.47 Z M 184.22 129.44 L 184.37 130.44 C 184.52 131.42 185.43 132.09 186.41 131.95 C 187.39 131.80 188.06 130.89 187.91 129.91 L 187.76 128.91 C 187.61 127.93 186.70 127.26 185.72 127.40 C 184.75 127.55 184.07 128.46 184.22 129.44 Z M 184.38 130.43 L 184.52 131.44 C 184.67 132.42 185.57 133.09 186.55 132.95 C 187.52 132.81 188.20 131.90 188.05 130.93 L 187.91 129.92 C 187.76 128.94 186.86 128.27 185.88 128.41 C 184.91 128.55 184.23 129.46 184.38 130.43 Z M 184.53 131.44 L 184.67 132.43 C 184.81 133.40 185.71 134.08 186.68 133.94 C 187.65 133.80 188.33 132.90 188.19 131.93 L 188.05 130.94 C 187.91 129.96 187.01 129.29 186.04 129.43 C 185.07 129.57 184.39 130.47 184.53 131.44 Z M 184.68 132.42 L 184.81 133.42 C 184.95 134.39 185.84 135.07 186.81 134.93 C 187.78 134.80 188.46 133.91 188.32 132.94 L 188.19 131.94 C 188.05 130.97 187.16 130.29 186.19 130.43 C 185.22 130.56 184.54 131.45 184.68 132.42 Z M 184.82 133.41 L 184.95 134.41 C 185.08 135.37 185.97 136.05 186.93 135.93 C 187.90 135.80 188.58 134.91 188.45 133.94 L 188.32 132.95 C 188.19 131.98 187.30 131.30 186.34 131.43 C 185.37 131.56 184.69 132.44 184.82 133.41 Z M 184.96 134.40 L 185.08 135.38 C 185.20 136.34 186.08 137.03 187.04 136.91 C 188.01 136.79 188.69 135.91 188.57 134.94 L 188.45 133.96 C 188.32 132.99 187.45 132.31 186.48 132.43 C 185.52 132.55 184.83 133.43 184.96 134.40 Z M 185.08 135.36 L 185.20 136.37 C 185.31 137.33 186.18 138.02 187.14 137.91 C 188.11 137.80 188.79 136.93 188.68 135.97 L 188.57 134.96 C 188.45 134.00 187.58 133.31 186.62 133.42 C 185.66 133.53 184.97 134.40 185.08 135.36 Z M 185.20 136.35 L 185.31 137.37 C 185.41 138.33 186.27 139.02 187.23 138.92 C 188.19 138.82 188.89 137.96 188.79 137.00 L 188.68 135.99 C 188.58 135.03 187.72 134.33 186.76 134.43 C 185.80 134.53 185.10 135.39 185.20 136.35 Z M 185.31 137.35 L 185.41 138.34 C 185.50 139.30 186.35 140.00 187.30 139.91 C 188.26 139.82 188.97 138.97 188.88 138.01 L 188.78 137.02 C 188.69 136.06 187.84 135.36 186.89 135.45 C 185.93 135.54 185.22 136.39 185.31 137.35 Z M 185.41 138.32 L 185.49 139.29 C 185.57 140.25 186.40 140.96 187.36 140.89 C 188.32 140.81 189.03 139.97 188.95 139.02 L 188.87 138.04 C 188.80 137.08 187.96 136.37 187.00 136.45 C 186.05 136.52 185.33 137.36 185.41 138.32 Z M 185.49 139.27 L 185.56 140.25 C 185.62 141.21 186.45 141.93 187.40 141.86 C 188.36 141.80 189.08 140.98 189.01 140.02 L 188.95 139.04 C 188.89 138.08 188.06 137.36 187.11 137.43 C 186.15 137.49 185.43 138.32 185.49 139.27 Z M 185.56 140.23 L 185.62 141.24 C 185.67 142.19 186.48 142.93 187.43 142.87 C 188.38 142.82 189.12 142.01 189.06 141.06 L 189.01 140.04 C 188.96 139.09 188.15 138.36 187.19 138.41 C 186.24 138.46 185.51 139.28 185.56 140.23 Z M 185.62 141.22 L 185.66 142.23 C 185.70 143.18 186.51 143.92 187.46 143.87 C 188.41 143.83 189.14 143.03 189.10 142.08 L 189.06 141.08 C 189.02 140.13 188.22 139.39 187.27 139.43 C 186.32 139.47 185.58 140.27 185.62 141.22 Z M 185.67 142.22 L 185.70 143.21 C 185.74 144.16 186.53 144.90 187.48 144.86 C 188.43 144.83 189.17 144.03 189.14 143.08 L 189.10 142.09 C 189.06 141.14 188.27 140.40 187.32 140.44 C 186.37 140.47 185.63 141.27 185.67 142.22 Z M 185.71 143.20 L 185.74 144.19 C 185.77 145.13 186.56 145.87 187.51 145.84 C 188.45 145.81 189.19 145.02 189.16 144.08 L 189.13 143.09 C 189.10 142.14 188.31 141.40 187.36 141.43 C 186.42 141.47 185.68 142.26 185.71 143.20 Z M 185.75 144.19 L 185.78 145.21 C 185.81 146.15 186.60 146.89 187.54 146.86 C 188.49 146.83 189.22 146.04 189.19 145.10 L 189.16 144.08 C 189.13 143.13 188.34 142.40 187.39 142.43 C 186.45 142.46 185.72 143.25 185.75 144.19 Z M 185.79 145.21 L 185.82 146.22 C 185.85 147.16 186.64 147.89 187.58 147.86 C 188.52 147.83 189.25 147.04 189.22 146.10 L 189.19 145.10 C 189.16 144.16 188.37 143.42 187.43 143.45 C 186.49 143.49 185.75 144.27 185.79 145.21 Z M 185.83 146.22 L 185.86 147.20 C 185.89 148.14 186.68 148.87 187.61 148.84 C 188.55 148.81 189.28 148.02 189.25 147.09 L 189.22 146.10 C 189.18 145.16 188.40 144.43 187.46 144.46 C 186.53 144.50 185.79 145.28 185.83 146.22 Z M 185.87 147.20 L 185.90 148.20 C 185.93 149.13 186.72 149.86 187.65 149.83 C 188.58 149.79 189.31 149.01 189.28 148.08 L 189.25 147.08 C 189.21 146.15 188.43 145.42 187.50 145.45 C 186.56 145.49 185.83 146.27 185.87 147.20 Z M 185.91 148.20 L 185.94 149.22 C 185.98 150.15 186.76 150.88 187.69 150.85 C 188.62 150.81 189.35 150.03 189.31 149.10 L 189.28 148.08 C 189.24 147.15 188.46 146.42 187.53 146.45 C 186.60 146.49 185.87 147.27 185.91 148.20 Z M 185.95 149.22 L 185.99 150.22 C 186.02 151.15 186.80 151.88 187.73 151.84 C 188.66 151.81 189.38 151.03 189.35 150.10 L 189.31 149.10 C 189.27 148.17 188.49 147.45 187.57 147.48 C 186.64 147.52 185.91 148.30 185.95 149.22 Z M 185.99 150.23 L 186.03 151.20 C 186.06 152.12 186.84 152.85 187.77 152.81 C 188.69 152.77 189.41 152.00 189.38 151.07 L 189.34 150.10 C 189.31 149.17 188.53 148.45 187.60 148.49 C 186.68 148.52 185.95 149.30 185.99 150.23 Z M 186.03 151.20 L 186.07 152.20 C 186.11 153.12 186.89 153.84 187.81 153.80 C 188.73 153.77 189.45 152.99 189.41 152.07 L 189.37 151.07 C 189.34 150.14 188.56 149.43 187.64 149.46 C 186.71 149.50 186.00 150.28 186.03 151.20 Z M 186.08 152.20 L 186.12 153.20 C 186.15 154.12 186.93 154.83 187.85 154.80 C 188.77 154.76 189.49 153.98 189.45 153.06 L 189.41 152.07 C 189.37 151.14 188.60 150.43 187.67 150.47 C 186.75 150.50 186.04 151.28 186.08 152.20 Z M 186.12 153.20 L 186.16 154.19 C 186.20 155.11 186.97 155.82 187.89 155.78 C 188.81 155.75 189.52 154.97 189.49 154.05 L 189.45 153.06 C 189.41 152.14 188.63 151.43 187.72 151.47 C 186.80 151.50 186.08 152.28 186.12 153.20 Z M 186.16 154.19 L 186.20 155.17 C 186.24 156.08 187.01 156.79 187.93 156.76 C 188.84 156.72 189.56 155.95 189.52 155.03 L 189.48 154.05 C 189.44 153.14 188.67 152.42 187.76 152.46 C 186.84 152.50 186.13 153.27 186.16 154.19 Z M 186.21 155.16 L 186.24 156.13 C 186.28 157.05 187.05 157.76 187.96 157.73 C 188.87 157.69 189.59 156.92 189.55 156.01 L 189.52 155.04 C 189.48 154.12 188.71 153.41 187.80 153.44 C 186.89 153.48 186.17 154.25 186.21 155.16 Z M 186.25 156.12 L 186.28 157.13 C 186.31 158.04 187.07 158.76 187.98 158.73 C 188.89 158.70 189.61 157.93 189.58 157.02 L 189.55 156.02 C 189.52 155.11 188.76 154.39 187.85 154.42 C 186.93 154.45 186.22 155.21 186.25 156.12 Z M 186.28 157.11 L 186.31 158.15 C 186.33 159.06 187.08 159.78 187.99 159.76 C 188.90 159.74 189.62 158.99 189.60 158.08 L 189.58 157.04 C 189.56 156.13 188.80 155.41 187.89 155.43 C 186.98 155.45 186.26 156.20 186.28 157.11 Z M 186.31 158.14 L 186.32 159.09 C 186.33 160.00 187.08 160.73 187.99 160.72 C 188.90 160.71 189.62 159.96 189.61 159.05 L 189.60 158.09 C 189.59 157.19 188.84 156.46 187.93 156.47 C 187.03 156.48 186.30 157.23 186.31 158.14 Z M 186.32 159.07 L 186.32 160.05 C 186.32 160.96 187.05 161.70 187.96 161.70 C 188.87 161.70 189.60 160.97 189.61 160.06 L 189.61 159.08 C 189.61 158.17 188.88 157.43 187.97 157.43 C 187.06 157.43 186.33 158.16 186.32 159.07 Z M 186.32 160.02 L 186.30 161.04 C 186.28 161.94 187.00 162.69 187.90 162.71 C 188.81 162.74 189.56 162.02 189.58 161.11 L 189.60 160.10 C 189.63 159.19 188.91 158.44 188.00 158.42 C 187.10 158.40 186.34 159.11 186.32 160.02 Z M 186.30 160.99 L 186.25 162.04 C 186.21 162.94 186.90 163.71 187.81 163.75 C 188.71 163.80 189.48 163.10 189.53 162.20 L 189.58 161.15 C 189.62 160.25 188.92 159.48 188.02 159.44 C 187.12 159.39 186.35 160.09 186.30 160.99 Z M 186.25 161.99 L 186.18 162.97 C 186.11 163.87 186.79 164.65 187.69 164.72 C 188.59 164.79 189.38 164.12 189.45 163.21 L 189.52 162.24 C 189.59 161.34 188.92 160.55 188.01 160.48 C 187.11 160.41 186.32 161.09 186.25 161.99 Z M 186.18 162.93 L 186.09 163.92 C 186.00 164.82 186.66 165.62 187.56 165.71 C 188.46 165.80 189.26 165.14 189.35 164.24 L 189.44 163.25 C 189.53 162.35 188.87 161.55 187.97 161.46 C 187.07 161.37 186.27 162.03 186.18 162.93 Z M 186.09 163.90 L 185.98 164.90 C 185.88 165.80 186.53 166.61 187.43 166.71 C 188.33 166.81 189.14 166.16 189.24 165.26 L 189.35 164.26 C 189.45 163.36 188.80 162.55 187.90 162.45 C 187.00 162.35 186.19 163.00 186.09 163.90 Z M 185.98 164.89 L 185.86 165.90 C 185.75 166.79 186.40 167.61 187.29 167.72 C 188.19 167.82 189.01 167.18 189.11 166.28 L 189.23 165.27 C 189.34 164.38 188.70 163.56 187.80 163.46 C 186.90 163.35 186.09 163.99 185.98 164.89 Z M 185.86 165.89 L 185.82 166.23 C 185.71 167.13 186.35 167.94 187.25 168.05 C 188.15 168.16 188.96 167.52 189.07 166.62 L 189.11 166.29 C 189.22 165.39 188.58 164.57 187.68 164.46 C 186.79 164.36 185.97 165.00 185.86 165.89 Z"
      fill="black"
      fill-rule="nonzero" /><path d="M 161.85 133.14 L 162.71 133.08 C 163.74 133.01 164.52 132.11 164.45 131.08 C 164.38 130.04 163.48 129.26 162.44 129.34 L 161.59 129.40 C 160.55 129.47 159.77 130.37 159.84 131.40 C 159.92 132.44 160.81 133.22 161.85 133.14 Z M 162.74 133.10 L 163.64 133.02 C 164.68 132.93 165.45 132.01 165.35 130.96 C 165.26 129.92 164.34 129.15 163.30 129.25 L 162.41 129.32 C 161.37 129.42 160.60 130.34 160.69 131.38 C 160.78 132.42 161.70 133.19 162.74 133.10 Z M 163.70 133.03 L 164.67 132.91 C 165.72 132.78 166.46 131.83 166.33 130.78 C 166.21 129.74 165.26 128.99 164.21 129.12 L 163.24 129.24 C 162.19 129.36 161.45 130.31 161.57 131.36 C 161.70 132.41 162.65 133.15 163.70 133.03 Z M 164.75 132.91 L 165.83 132.74 C 166.88 132.57 167.60 131.58 167.43 130.53 C 167.26 129.48 166.27 128.77 165.22 128.94 L 164.13 129.11 C 163.08 129.28 162.37 130.27 162.54 131.32 C 162.71 132.37 163.70 133.08 164.75 132.91 Z M 165.91 132.73 L 167.02 132.51 C 168.07 132.30 168.75 131.28 168.53 130.23 C 168.32 129.18 167.30 128.51 166.26 128.72 L 165.15 128.94 C 164.10 129.15 163.42 130.17 163.63 131.22 C 163.84 132.27 164.86 132.94 165.91 132.73 Z M 167.07 132.48 L 168.01 132.27 C 169.04 132.03 169.69 131.00 169.45 129.97 C 169.21 128.93 168.18 128.29 167.15 128.53 L 166.21 128.74 C 165.17 128.98 164.53 130.01 164.77 131.05 C 165.01 132.08 166.04 132.72 167.07 132.48 Z M 168.03 132.24 L 169.02 131.99 C 170.04 131.74 170.66 130.71 170.40 129.70 C 170.15 128.68 169.13 128.06 168.11 128.31 L 167.12 128.56 C 166.11 128.81 165.49 129.84 165.74 130.85 C 165.99 131.87 167.02 132.49 168.03 132.24 Z M 169.04 131.96 L 170.05 131.69 C 171.05 131.44 171.65 130.42 171.39 129.42 C 171.13 128.42 170.11 127.82 169.11 128.08 L 168.10 128.34 C 167.10 128.60 166.50 129.62 166.76 130.62 C 167.02 131.62 168.04 132.22 169.04 131.96 Z M 170.06 131.67 L 171.07 131.39 C 172.05 131.13 172.64 130.12 172.37 129.14 C 172.11 128.16 171.10 127.57 170.12 127.84 L 169.10 128.11 C 168.12 128.37 167.54 129.38 167.80 130.36 C 168.07 131.35 169.08 131.93 170.06 131.67 Z M 171.07 131.37 L 172.06 131.10 C 173.03 130.83 173.60 129.83 173.33 128.87 C 173.07 127.90 172.07 127.33 171.10 127.60 L 170.12 127.87 C 169.15 128.13 168.58 129.13 168.84 130.09 C 169.11 131.06 170.11 131.63 171.07 131.37 Z M 172.06 131.07 L 172.99 130.81 C 173.94 130.55 174.50 129.57 174.24 128.62 C 173.98 127.66 172.99 127.10 172.04 127.37 L 171.11 127.62 C 170.16 127.88 169.60 128.87 169.86 129.82 C 170.12 130.77 171.10 131.33 172.06 131.07 Z M 172.98 130.79 L 174.02 130.50 C 174.96 130.25 175.51 129.28 175.26 128.34 C 175.00 127.40 174.04 126.85 173.10 127.11 L 172.05 127.39 C 171.11 127.65 170.56 128.61 170.82 129.55 C 171.07 130.49 172.04 131.04 172.98 130.79 Z M 174.00 130.48 L 175.08 130.20 C 176.01 129.95 176.56 129.00 176.32 128.07 C 176.07 127.15 175.12 126.60 174.19 126.84 L 173.12 127.13 C 172.19 127.37 171.64 128.32 171.88 129.25 C 172.13 130.18 173.08 130.73 174.00 130.48 Z M 175.06 130.18 L 176.02 129.93 C 176.93 129.70 177.49 128.77 177.25 127.86 C 177.02 126.94 176.09 126.39 175.18 126.62 L 174.22 126.86 C 173.30 127.09 172.75 128.02 172.98 128.94 C 173.21 129.85 174.14 130.41 175.06 130.18 Z M 175.99 129.91 L 176.87 129.70 C 177.78 129.49 178.33 128.58 178.12 127.67 C 177.90 126.77 176.99 126.21 176.09 126.43 L 175.21 126.64 C 174.30 126.86 173.74 127.76 173.96 128.67 C 174.18 129.57 175.08 130.13 175.99 129.91 Z M 176.84 129.68 L 177.70 129.49 C 178.59 129.29 179.16 128.41 178.96 127.51 C 178.76 126.62 177.87 126.06 176.98 126.26 L 176.12 126.45 C 175.23 126.65 174.66 127.53 174.86 128.43 C 175.06 129.32 175.95 129.88 176.84 129.68 Z M 177.67 129.48 L 178.61 129.29 C 179.49 129.10 180.06 128.23 179.88 127.34 C 179.69 126.46 178.82 125.89 177.94 126.07 L 177.00 126.27 C 176.12 126.45 175.55 127.32 175.73 128.21 C 175.92 129.10 176.79 129.67 177.67 129.48 Z M 178.59 129.29 L 179.56 129.10 C 180.45 128.92 181.03 128.06 180.85 127.17 C 180.68 126.28 179.81 125.71 178.93 125.88 L 177.96 126.07 C 177.07 126.25 176.49 127.11 176.66 128.00 C 176.84 128.88 177.70 129.46 178.59 129.29 Z M 179.55 129.10 L 180.54 128.91 C 181.43 128.74 182.01 127.89 181.84 127.00 C 181.68 126.11 180.82 125.52 179.93 125.69 L 178.94 125.88 C 178.05 126.05 177.46 126.90 177.63 127.79 C 177.80 128.68 178.66 129.27 179.55 129.10 Z M 180.53 128.91 L 181.53 128.73 C 182.42 128.57 183.01 127.71 182.85 126.82 C 182.68 125.93 181.83 125.34 180.94 125.51 L 179.94 125.69 C 179.05 125.85 178.46 126.71 178.62 127.60 C 178.79 128.49 179.64 129.08 180.53 128.91 Z M 181.53 128.73 L 182.04 128.64 C 182.93 128.47 183.52 127.62 183.35 126.73 C 183.19 125.84 182.34 125.25 181.45 125.41 L 180.94 125.51 C 180.05 125.67 179.46 126.52 179.63 127.41 C 179.79 128.30 180.64 128.89 181.53 128.73 Z"
      fill="black"
      fill-rule="nonzero" /><path d="M 166.22 144.61 L 167.23 144.77 C 168.23 144.92 169.16 144.24 169.31 143.25 C 169.46 142.25 168.78 141.32 167.79 141.17 L 166.77 141.01 C 165.78 140.86 164.85 141.54 164.69 142.54 C 164.54 143.53 165.22 144.46 166.22 144.61 Z M 167.26 144.77 L 168.27 144.91 C 169.27 145.05 170.18 144.36 170.32 143.36 C 170.46 142.36 169.77 141.44 168.77 141.31 L 167.76 141.17 C 166.76 141.03 165.85 141.72 165.71 142.72 C 165.57 143.71 166.26 144.63 167.26 144.77 Z M 168.32 144.92 L 169.31 145.03 C 170.31 145.14 171.21 144.41 171.32 143.41 C 171.43 142.41 170.71 141.51 169.71 141.40 L 168.71 141.30 C 167.71 141.19 166.82 141.91 166.71 142.91 C 166.60 143.91 167.32 144.81 168.32 144.92 Z M 169.40 145.04 L 170.36 145.09 C 171.37 145.15 172.23 144.39 172.29 143.38 C 172.35 142.38 171.59 141.51 170.58 141.45 L 169.62 141.39 C 168.61 141.33 167.75 142.10 167.69 143.11 C 167.63 144.11 168.40 144.98 169.40 145.04 Z M 170.49 145.08 L 171.50 145.07 C 172.50 145.06 173.31 144.24 173.30 143.25 C 173.29 142.25 172.47 141.44 171.47 141.45 L 170.45 141.46 C 169.45 141.47 168.65 142.29 168.66 143.29 C 168.67 144.29 169.49 145.09 170.49 145.08 Z M 171.63 145.03 L 172.63 144.95 C 173.61 144.87 174.33 144.01 174.25 143.04 C 174.17 142.06 173.31 141.33 172.34 141.41 L 171.34 141.49 C 170.36 141.57 169.63 142.43 169.71 143.41 C 169.80 144.39 170.65 145.11 171.63 145.03 Z M 172.73 144.90 L 173.70 144.76 C 174.66 144.63 175.32 143.75 175.18 142.80 C 175.05 141.84 174.16 141.18 173.21 141.32 L 172.24 141.46 C 171.28 141.59 170.62 142.48 170.76 143.43 C 170.89 144.38 171.78 145.04 172.73 144.90 Z M 173.77 144.72 L 174.74 144.54 C 175.67 144.36 176.28 143.47 176.11 142.55 C 175.93 141.62 175.04 141.01 174.12 141.18 L 173.15 141.37 C 172.22 141.54 171.61 142.43 171.78 143.35 C 171.96 144.28 172.85 144.89 173.77 144.72 Z M 174.78 144.50 L 175.76 144.30 C 176.66 144.10 177.24 143.21 177.05 142.30 C 176.85 141.39 175.96 140.81 175.05 141.01 L 174.08 141.22 C 173.17 141.41 172.59 142.30 172.79 143.21 C 172.98 144.12 173.87 144.70 174.78 144.50 Z M 175.78 144.28 L 176.76 144.05 C 177.65 143.84 178.21 142.95 178.01 142.05 C 177.80 141.15 176.90 140.59 176.01 140.80 L 175.03 141.03 C 174.13 141.23 173.57 142.13 173.78 143.03 C 173.99 143.92 174.88 144.48 175.78 144.28 Z M 176.76 144.04 L 177.74 143.80 C 178.63 143.59 179.18 142.70 178.97 141.81 C 178.75 140.92 177.86 140.37 176.97 140.58 L 176.00 140.82 C 175.11 141.03 174.56 141.92 174.77 142.81 C 174.98 143.70 175.88 144.25 176.76 144.04 Z M 177.74 143.79 L 178.71 143.56 C 179.60 143.35 180.14 142.47 179.93 141.58 C 179.72 140.70 178.84 140.15 177.95 140.36 L 176.98 140.59 C 176.09 140.80 175.55 141.69 175.76 142.57 C 175.97 143.46 176.85 144.00 177.74 143.79 Z M 178.70 143.56 L 179.68 143.33 C 180.56 143.13 181.11 142.25 180.91 141.37 C 180.71 140.49 179.83 139.94 178.94 140.14 L 177.96 140.37 C 177.08 140.57 176.53 141.45 176.74 142.33 C 176.94 143.21 177.82 143.76 178.70 143.56 Z M 179.67 143.33 L 180.65 143.11 C 181.53 142.91 182.08 142.04 181.89 141.15 C 181.69 140.27 180.81 139.72 179.93 139.92 L 178.95 140.14 C 178.07 140.34 177.52 141.21 177.72 142.10 C 177.92 142.98 178.79 143.53 179.67 143.33 Z M 180.64 143.11 L 181.61 142.90 C 182.50 142.70 183.05 141.83 182.86 140.94 C 182.66 140.06 181.78 139.50 180.90 139.70 L 179.93 139.92 C 179.05 140.11 178.49 140.99 178.69 141.87 C 178.89 142.75 179.76 143.31 180.64 143.11 Z M 181.61 142.90 L 181.97 142.82 C 182.85 142.62 183.41 141.75 183.21 140.87 C 183.01 139.98 182.14 139.43 181.26 139.62 L 180.90 139.70 C 180.02 139.90 179.46 140.77 179.66 141.65 C 179.86 142.54 180.73 143.09 181.61 142.90 Z"
      fill="black"
      fill-rule="nonzero" /><path d="M 161.93 166.92 L 162.93 166.88 C 163.93 166.84 164.71 165.99 164.67 164.98 C 164.63 163.97 163.78 163.19 162.77 163.24 L 161.77 163.28 C 160.77 163.32 159.99 164.17 160.03 165.18 C 160.07 166.18 160.92 166.96 161.93 166.92 Z M 162.93 166.88 L 163.93 166.84 C 164.94 166.79 165.72 165.94 165.67 164.93 C 165.63 163.93 164.78 163.14 163.77 163.19 L 162.77 163.23 C 161.76 163.28 160.98 164.13 161.02 165.14 C 161.07 166.15 161.92 166.93 162.93 166.88 Z M 163.93 166.84 L 164.93 166.80 C 165.94 166.75 166.72 165.89 166.67 164.88 C 166.63 163.87 165.77 163.09 164.76 163.14 L 163.76 163.18 C 162.75 163.23 161.97 164.09 162.02 165.10 C 162.06 166.11 162.92 166.89 163.93 166.84 Z M 164.94 166.80 L 165.93 166.75 C 166.95 166.70 167.73 165.84 167.68 164.83 C 167.63 163.81 166.76 163.03 165.75 163.08 L 164.75 163.13 C 163.74 163.18 162.96 164.05 163.01 165.06 C 163.06 166.07 163.92 166.85 164.94 166.80 Z M 165.94 166.76 L 166.94 166.70 C 167.96 166.64 168.74 165.78 168.68 164.76 C 168.62 163.75 167.76 162.97 166.74 163.02 L 165.74 163.08 C 164.73 163.13 163.95 164.00 164.00 165.02 C 164.06 166.03 164.93 166.81 165.94 166.76 Z M 166.95 166.70 L 167.95 166.64 C 168.97 166.58 169.74 165.71 169.68 164.69 C 169.62 163.67 168.74 162.90 167.73 162.96 L 166.73 163.02 C 165.71 163.08 164.94 163.96 165.00 164.98 C 165.06 165.99 165.94 166.77 166.95 166.70 Z M 167.97 166.65 L 168.96 166.58 C 169.98 166.51 170.75 165.62 170.68 164.60 C 170.61 163.58 169.73 162.82 168.71 162.89 L 167.71 162.95 C 166.69 163.03 165.92 163.91 165.99 164.93 C 166.06 165.95 166.95 166.72 167.97 166.65 Z M 168.98 166.58 L 169.98 166.50 C 171.00 166.42 171.76 165.53 171.68 164.51 C 171.61 163.49 170.71 162.72 169.69 162.80 L 168.69 162.88 C 167.67 162.96 166.91 163.85 166.99 164.88 C 167.07 165.90 167.96 166.66 168.98 166.58 Z M 170.00 166.51 L 171.00 166.42 C 172.02 166.33 172.78 165.43 172.69 164.40 C 172.60 163.38 171.69 162.62 170.67 162.71 L 169.67 162.80 C 168.65 162.89 167.89 163.79 167.98 164.82 C 168.07 165.84 168.97 166.60 170.00 166.51 Z M 171.02 166.42 L 172.08 166.31 C 173.10 166.21 173.85 165.30 173.75 164.28 C 173.64 163.25 172.73 162.51 171.71 162.61 L 170.65 162.71 C 169.62 162.82 168.88 163.73 168.98 164.75 C 169.08 165.77 169.99 166.52 171.02 166.42 Z M 172.10 166.31 L 173.20 166.19 C 174.22 166.07 174.96 165.15 174.84 164.13 C 174.73 163.11 173.81 162.38 172.79 162.49 L 171.69 162.61 C 170.67 162.73 169.93 163.65 170.04 164.67 C 170.16 165.69 171.08 166.42 172.10 166.31 Z M 173.22 166.18 L 174.31 166.05 C 175.32 165.92 176.05 165.00 175.92 163.98 C 175.80 162.96 174.87 162.24 173.86 162.36 L 172.77 162.50 C 171.75 162.62 171.03 163.55 171.15 164.56 C 171.28 165.58 172.20 166.30 173.22 166.18 Z M 174.32 166.04 L 175.38 165.90 C 176.40 165.77 177.11 164.84 176.98 163.83 C 176.85 162.81 175.92 162.10 174.90 162.23 L 173.84 162.37 C 172.83 162.50 172.11 163.43 172.25 164.45 C 172.38 165.46 173.31 166.17 174.32 166.04 Z M 175.40 165.89 L 176.42 165.75 C 177.43 165.61 178.14 164.68 178.00 163.67 C 177.86 162.66 176.93 161.96 175.92 162.10 L 174.89 162.24 C 173.88 162.38 173.18 163.31 173.32 164.32 C 173.46 165.33 174.39 166.03 175.40 165.89 Z M 176.43 165.75 L 177.42 165.60 C 178.42 165.46 179.12 164.53 178.98 163.52 C 178.83 162.51 177.90 161.82 176.89 161.96 L 175.91 162.10 C 174.90 162.25 174.20 163.18 174.35 164.19 C 174.49 165.19 175.43 165.89 176.43 165.75 Z M 177.42 165.60 L 178.35 165.46 C 179.36 165.31 180.05 164.38 179.90 163.37 C 179.75 162.37 178.81 161.68 177.81 161.83 L 176.88 161.97 C 175.88 162.12 175.19 163.05 175.34 164.05 C 175.49 165.06 176.42 165.75 177.42 165.60 Z M 178.36 165.45 L 179.22 165.32 C 180.22 165.17 180.91 164.23 180.76 163.24 C 180.60 162.24 179.67 161.55 178.67 161.70 L 177.81 161.83 C 176.81 161.99 176.12 162.92 176.27 163.92 C 176.43 164.92 177.36 165.61 178.36 165.45 Z M 179.23 165.32 L 180.06 165.19 C 181.06 165.03 181.74 164.10 181.59 163.10 C 181.43 162.11 180.50 161.42 179.50 161.58 L 178.67 161.71 C 177.67 161.86 176.99 162.79 177.14 163.79 C 177.30 164.79 178.23 165.47 179.23 165.32 Z M 180.06 165.17 L 181.33 164.97 C 182.32 164.82 182.99 163.90 182.84 162.91 C 182.69 161.92 181.76 161.25 180.78 161.40 L 179.51 161.60 C 178.52 161.75 177.85 162.67 178.00 163.66 C 178.15 164.64 179.07 165.32 180.06 165.17 Z M 181.33 164.94 L 182.38 164.77 C 183.34 164.62 184.01 163.72 183.86 162.75 C 183.70 161.78 182.80 161.12 181.83 161.27 L 180.78 161.43 C 179.81 161.58 179.15 162.49 179.30 163.46 C 179.45 164.43 180.36 165.09 181.33 164.94 Z M 182.38 164.74 L 183.27 164.60 C 184.22 164.45 184.87 163.56 184.72 162.61 C 184.57 161.66 183.67 161.01 182.72 161.16 L 181.83 161.30 C 180.88 161.45 180.23 162.35 180.38 163.30 C 180.53 164.25 181.43 164.89 182.38 164.74 Z M 183.27 164.57 L 184.08 164.44 C 185.01 164.28 185.64 163.40 185.49 162.47 C 185.33 161.54 184.46 160.91 183.52 161.06 L 182.72 161.19 C 181.79 161.35 181.16 162.22 181.31 163.16 C 181.46 164.09 182.34 164.72 183.27 164.57 Z M 184.08 164.41 L 184.98 164.26 C 185.90 164.10 186.51 163.23 186.36 162.31 C 186.20 161.40 185.33 160.78 184.41 160.94 L 183.52 161.09 C 182.60 161.25 181.98 162.12 182.14 163.03 C 182.30 163.95 183.17 164.57 184.08 164.41 Z M 184.99 164.24 L 185.98 164.06 C 186.89 163.90 187.49 163.03 187.33 162.13 C 187.17 161.22 186.30 160.61 185.40 160.78 L 184.40 160.95 C 183.49 161.11 182.89 161.98 183.05 162.89 C 183.21 163.80 184.08 164.40 184.99 164.24 Z M 185.99 164.05 L 186.98 163.87 C 187.88 163.70 188.48 162.83 188.31 161.93 C 188.14 161.03 187.27 160.43 186.37 160.60 L 185.39 160.79 C 184.48 160.95 183.89 161.82 184.06 162.72 C 184.22 163.62 185.09 164.22 185.99 164.05 Z M 186.99 163.86 L 187.95 163.67 C 188.85 163.50 189.44 162.63 189.26 161.74 C 189.09 160.84 188.22 160.25 187.33 160.43 L 186.36 160.61 C 185.47 160.79 184.88 161.65 185.05 162.55 C 185.23 163.44 186.09 164.03 186.99 163.86 Z M 187.96 163.66 L 188.96 163.46 C 189.85 163.29 190.43 162.42 190.25 161.53 C 190.08 160.64 189.21 160.06 188.32 160.24 L 187.32 160.43 C 186.43 160.61 185.85 161.48 186.03 162.37 C 186.20 163.26 187.07 163.84 187.96 163.66 Z M 188.97 163.46 L 189.94 163.26 C 190.83 163.08 191.41 162.21 191.23 161.32 C 191.04 160.44 190.18 159.86 189.29 160.04 L 188.31 160.24 C 187.42 160.42 186.85 161.29 187.03 162.18 C 187.21 163.07 188.08 163.64 188.97 163.46 Z M 189.94 163.26 L 190.91 163.06 C 191.80 162.88 192.37 162.01 192.19 161.12 C 192.01 160.24 191.14 159.66 190.25 159.85 L 189.29 160.05 C 188.40 160.23 187.83 161.09 188.01 161.98 C 188.19 162.87 189.06 163.44 189.94 163.26 Z M 190.91 163.06 L 191.88 162.86 C 192.77 162.68 193.34 161.81 193.16 160.93 C 192.98 160.04 192.11 159.47 191.23 159.65 L 190.26 159.85 C 189.37 160.03 188.80 160.89 188.98 161.78 C 189.16 162.67 190.03 163.24 190.91 163.06 Z M 191.88 162.86 L 192.86 162.66 C 193.74 162.48 194.32 161.62 194.14 160.73 C 193.96 159.85 193.10 159.27 192.21 159.45 L 191.23 159.65 C 190.35 159.83 189.77 160.69 189.95 161.58 C 190.13 162.47 190.99 163.04 191.88 162.86 Z M 192.86 162.66 L 193.84 162.47 C 194.73 162.29 195.30 161.42 195.12 160.54 C 194.94 159.65 194.08 159.08 193.20 159.26 L 192.21 159.45 C 191.33 159.63 190.75 160.49 190.93 161.38 C 191.11 162.27 191.97 162.84 192.86 162.66 Z M 193.84 162.47 L 194.53 162.33 C 195.42 162.15 195.99 161.29 195.82 160.40 C 195.64 159.51 194.78 158.94 193.89 159.12 L 193.20 159.26 C 192.31 159.43 191.74 160.30 191.91 161.18 C 192.09 162.07 192.95 162.64 193.84 162.47 Z"
      fill="black"
      fill-rule="nonzero" /></svg>