<svg xmlns="http://www.w3.org/2000/svg" width="300" height="300" viewBox="0 0 300 300">
<path d="M 118.05 140.18 L 118.89 140.47 C 119.78 140.79 120.75 140.32 121.07 139.44 C 121.38 138.55 120.92 137.57 120.03 137.26 L 119.19 136.96 C 118.30 136.64 117.32 137.11 117.01 138.00 C 116.69 138.88 117.16 139.86 118.05 140.18 Z M 118.95 140.53 L 119.86 140.80 C 120.77 141.08 121.74 140.57 122.03 139.65 C 122.31 138.73 121.79 137.76 120.87 137.48 L 119.97 137.21 C 119.05 136.93 118.08 137.44 117.80 138.36 C 117.52 139.27 118.03 140.25 118.95 140.53 Z M 119.98 140.87 L 121.01 141.10 C 121.96 141.31 122.91 140.72 123.12 139.77 C 123.34 138.82 122.74 137.87 121.79 137.66 L 120.76 137.42 C 119.80 137.21 118.86 137.80 118.64 138.75 C 118.43 139.70 119.02 140.65 119.98 140.87 Z M 121.14 141.14 L 122.15 141.29 C 123.13 141.43 124.03 140.76 124.17 139.78 C 124.32 138.81 123.64 137.91 122.67 137.76 L 121.66 137.62 C 120.68 137.47 119.78 138.15 119.64 139.12 C 119.50 140.09 120.17 141.00 121.14 141.14 Z M 122.25 141.28 L 123.16 141.37 C 124.13 141.46 124.99 140.74 125.08 139.77 C 125.17 138.80 124.46 137.94 123.48 137.85 L 122.57 137.77 C 121.60 137.68 120.74 138.39 120.65 139.36 C 120.56 140.33 121.28 141.19 122.25 141.28 Z M 123.22 141.34 L 124.20 141.40 C 125.16 141.46 125.98 140.73 126.04 139.77 C 126.10 138.82 125.37 137.99 124.41 137.94 L 123.43 137.88 C 122.47 137.82 121.65 138.55 121.59 139.50 C 121.53 140.46 122.26 141.28 123.22 141.34 Z M 124.24 141.37 L 125.27 141.42 C 126.21 141.45 127.01 140.72 127.05 139.78 C 127.09 138.84 126.35 138.04 125.41 138.01 L 124.38 137.96 C 123.43 137.93 122.64 138.66 122.60 139.60 C 122.56 140.54 123.30 141.34 124.24 141.37 Z M 125.29 141.39 L 126.36 141.42 C 127.29 141.44 128.06 140.71 128.09 139.79 C 128.11 138.86 127.39 138.09 126.46 138.07 L 125.39 138.04 C 124.47 138.01 123.69 138.74 123.67 139.66 C 123.64 140.59 124.37 141.36 125.29 141.39 Z M 126.37 141.39 L 127.20 141.41 C 128.11 141.43 128.86 140.71 128.89 139.80 C 128.91 138.89 128.19 138.13 127.28 138.11 L 126.45 138.09 C 125.54 138.07 124.79 138.79 124.76 139.70 C 124.74 140.61 125.46 141.37 126.37 141.39 Z"
      fill="black"
      fill-rule="nonzero" /><path d="M 118.77 158.63 L 119.77 158.85 C 120.66 159.06 121.55 158.50 121.76 157.61 C 121.96 156.72 121.41 155.82 120.51 155.62 L 119.52 155.39 C 118.63 155.18 117.74 155.74 117.53 156.63 C 117.32 157.53 117.88 158.42 118.77 158.63 Z M 119.85 158.92 L 120.83 159.09 C 121.76 159.25 122.65 158.63 122.81 157.70 C 122.97 156.77 122.35 155.89 121.42 155.73 L 120.43 155.55 C 119.50 155.39 118.62 156.01 118.46 156.94 C 118.30 157.87 118.92 158.76 119.85 158.92 Z M 121.02 159.16 L 122.00 159.22 C 122.97 159.27 123.80 158.54 123.86 157.57 C 123.92 156.60 123.18 155.77 122.21 155.71 L 121.23 155.66 C 120.26 155.60 119.43 156.34 119.38 157.30 C 119.32 158.27 120.06 159.10 121.02 159.16 Z M 122.30 159.23 L 123.28 159.12 C 124.25 159.01 124.95 158.14 124.84 157.16 C 124.73 156.19 123.86 155.49 122.89 155.60 L 121.91 155.71 C 120.94 155.81 120.24 156.69 120.35 157.66 C 120.46 158.63 121.33 159.33 122.30 159.23 Z M 123.52 159.04 L 124.49 158.79 C 125.42 158.54 125.97 157.59 125.73 156.66 C 125.48 155.73 124.53 155.18 123.60 155.42 L 122.64 155.68 C 121.71 155.92 121.16 156.87 121.40 157.80 C 121.64 158.73 122.60 159.29 123.52 159.04 Z M 124.60 158.70 L 125.55 158.37 C 126.44 158.06 126.90 157.10 126.59 156.22 C 126.29 155.33 125.32 154.87 124.44 155.18 L 123.49 155.51 C 122.61 155.81 122.14 156.78 122.45 157.66 C 122.75 158.55 123.72 159.01 124.60 158.70 Z M 125.56 158.33 L 126.51 157.98 C 127.37 157.67 127.81 156.72 127.50 155.86 C 127.19 155.00 126.24 154.56 125.38 154.87 L 124.43 155.22 C 123.57 155.53 123.13 156.48 123.44 157.34 C 123.75 158.20 124.70 158.64 125.56 158.33 Z M 126.47 157.98 L 127.42 157.66 C 128.28 157.37 128.74 156.44 128.45 155.58 C 128.16 154.73 127.24 154.27 126.38 154.55 L 125.42 154.88 C 124.57 155.17 124.10 156.09 124.39 156.95 C 124.68 157.81 125.61 158.27 126.47 157.98 Z M 127.39 157.67 L 128.34 157.37 C 129.20 157.10 129.68 156.18 129.41 155.31 C 129.14 154.45 128.22 153.97 127.36 154.25 L 126.41 154.55 C 125.55 154.82 125.07 155.74 125.34 156.60 C 125.61 157.46 126.53 157.94 127.39 157.67 Z M 128.33 157.37 L 129.18 157.11 C 130.04 156.85 130.53 155.93 130.26 155.07 C 130.00 154.20 129.08 153.72 128.22 153.98 L 127.37 154.24 C 126.51 154.51 126.02 155.42 126.28 156.29 C 126.55 157.15 127.46 157.64 128.33 157.37 Z"
      fill="black"
      fill-rule="nonzero" /><path d="M 119.87 187.84 L 120.73 187.22 C 121.49 186.67 121.67 185.62 121.12 184.86 C 120.58 184.10 119.52 183.92 118.76 184.46 L 117.90 185.08 C 117.14 185.63 116.96 186.68 117.51 187.44 C 118.05 188.21 119.11 188.38 119.87 187.84 Z M 120.75 187.23 L 121.59 186.62 C 122.36 186.07 122.53 184.99 121.97 184.22 C 121.42 183.46 120.34 183.29 119.58 183.84 L 118.73 184.45 C 117.97 185.01 117.80 186.08 118.35 186.85 C 118.91 187.62 119.98 187.79 120.75 187.23 Z M 121.62 186.63 L 122.42 186.03 C 123.19 185.46 123.35 184.37 122.78 183.60 C 122.21 182.83 121.12 182.67 120.34 183.24 L 119.54 183.84 C 118.77 184.41 118.61 185.50 119.19 186.27 C 119.76 187.04 120.85 187.20 121.62 186.63 Z M 122.47 186.03 L 123.21 185.45 C 123.98 184.85 124.11 183.75 123.52 182.98 C 122.92 182.21 121.81 182.07 121.04 182.67 L 120.30 183.24 C 119.53 183.84 119.39 184.95 119.99 185.72 C 120.59 186.49 121.70 186.63 122.47 186.03 Z M 123.26 185.41 L 124.04 184.76 C 124.79 184.13 124.89 183.02 124.26 182.27 C 123.64 181.53 122.52 181.43 121.78 182.05 L 120.99 182.71 C 120.24 183.33 120.15 184.45 120.77 185.19 C 121.40 185.94 122.51 186.04 123.26 185.41 Z M 124.08 184.69 L 124.82 184.01 C 125.52 183.36 125.57 182.27 124.93 181.56 C 124.28 180.85 123.18 180.80 122.48 181.45 L 121.74 182.13 C 121.03 182.77 120.98 183.87 121.63 184.58 C 122.27 185.28 123.37 185.33 124.08 184.69 Z M 124.83 183.94 L 125.52 183.26 C 126.19 182.61 126.20 181.53 125.54 180.87 C 124.88 180.20 123.81 180.19 123.14 180.85 L 122.46 181.52 C 121.79 182.18 121.78 183.25 122.44 183.92 C 123.09 184.59 124.17 184.60 124.83 183.94 Z M 125.52 183.22 L 126.20 182.53 C 126.84 181.87 126.83 180.82 126.17 180.17 C 125.51 179.53 124.46 179.55 123.82 180.20 L 123.14 180.89 C 122.50 181.55 122.51 182.60 123.17 183.25 C 123.83 183.89 124.88 183.87 125.52 183.22 Z M 126.19 182.51 L 126.87 181.80 C 127.50 181.14 127.48 180.10 126.83 179.47 C 126.17 178.84 125.13 178.86 124.50 179.52 L 123.82 180.22 C 123.19 180.88 123.21 181.92 123.87 182.55 C 124.52 183.18 125.56 183.16 126.19 182.51 Z M 126.88 181.79 L 127.57 181.06 C 128.20 180.40 128.17 179.36 127.51 178.73 C 126.85 178.11 125.81 178.13 125.19 178.79 L 124.49 179.53 C 123.87 180.19 123.90 181.23 124.55 181.85 C 125.21 182.48 126.25 182.45 126.88 181.79 Z M 127.58 181.04 L 128.28 180.30 C 128.90 179.64 128.86 178.60 128.20 177.98 C 127.54 177.36 126.50 177.39 125.88 178.06 L 125.18 178.80 C 124.56 179.47 124.60 180.51 125.26 181.12 C 125.92 181.74 126.96 181.71 127.58 181.04 Z M 128.28 180.29 L 128.96 179.55 C 129.57 178.89 129.53 177.85 128.86 177.24 C 128.20 176.63 127.16 176.67 126.55 177.33 L 125.87 178.07 C 125.26 178.73 125.30 179.77 125.97 180.38 C 126.63 181.00 127.67 180.95 128.28 180.29 Z M 128.97 179.54 L 129.63 178.81 C 130.24 178.14 130.19 177.10 129.52 176.50 C 128.84 175.89 127.81 175.94 127.20 176.61 L 126.54 177.35 C 125.93 178.02 125.98 179.05 126.65 179.66 C 127.32 180.27 128.36 180.21 128.97 179.54 Z M 129.64 178.80 L 130.31 178.05 C 130.91 177.37 130.84 176.34 130.17 175.74 C 129.49 175.14 128.46 175.20 127.86 175.87 L 127.19 176.62 C 126.59 177.30 126.65 178.34 127.33 178.94 C 128.01 179.54 129.04 179.47 129.64 178.80 Z M 130.32 178.03 L 130.98 177.27 C 131.57 176.59 131.50 175.55 130.82 174.96 C 130.13 174.37 129.10 174.44 128.51 175.12 L 127.84 175.89 C 127.25 176.57 127.33 177.61 128.01 178.20 C 128.69 178.79 129.73 178.72 130.32 178.03 Z M 130.99 177.26 L 131.62 176.51 C 132.21 175.83 132.12 174.79 131.43 174.21 C 130.75 173.62 129.71 173.71 129.13 174.39 L 128.50 175.14 C 127.91 175.83 127.99 176.86 128.68 177.44 C 129.37 178.03 130.41 177.95 130.99 177.26 Z M 131.63 176.51 L 132.27 175.74 C 132.85 175.05 132.76 174.02 132.07 173.44 C 131.37 172.86 130.34 172.95 129.76 173.64 L 129.12 174.40 C 128.54 175.10 128.63 176.13 129.32 176.71 C 130.02 177.29 131.05 177.20 131.63 176.51 Z M 132.27 175.74 L 132.92 174.96 C 133.50 174.26 133.40 173.23 132.71 172.65 C 132.01 172.07 130.98 172.17 130.40 172.86 L 129.76 173.64 C 129.18 174.34 129.27 175.37 129.97 175.95 C 130.66 176.53 131.70 176.43 132.27 175.74 Z M 132.92 174.96 L 133.57 174.17 C 134.15 173.48 134.05 172.45 133.36 171.87 C 132.66 171.29 131.63 171.39 131.05 172.08 L 130.40 172.87 C 129.83 173.56 129.92 174.59 130.62 175.17 C 131.31 175.75 132.35 175.65 132.92 174.96 Z M 133.57 174.17 L 134.20 173.42 C 134.78 172.72 134.68 171.69 133.98 171.11 C 133.29 170.53 132.26 170.63 131.68 171.33 L 131.05 172.08 C 130.47 172.78 130.57 173.81 131.27 174.39 C 131.96 174.97 132.99 174.87 133.57 174.17 Z M 134.20 173.41 L 134.84 172.64 C 135.41 171.95 135.31 170.92 134.62 170.34 C 133.92 169.76 132.89 169.86 132.31 170.56 L 131.68 171.33 C 131.10 172.03 131.20 173.06 131.90 173.63 C 132.59 174.21 133.63 174.11 134.20 173.41 Z M 134.84 172.64 L 135.48 171.86 C 136.05 171.16 135.95 170.13 135.25 169.56 C 134.55 168.98 133.52 169.09 132.94 169.79 L 132.31 170.57 C 131.73 171.27 131.84 172.30 132.54 172.87 C 133.24 173.44 134.27 173.34 134.84 172.64 Z M 135.49 171.85 L 136.12 171.06 C 136.69 170.35 136.58 169.32 135.88 168.76 C 135.17 168.19 134.14 168.30 133.57 169.00 L 132.94 169.80 C 132.37 170.50 132.48 171.53 133.18 172.10 C 133.89 172.66 134.92 172.55 135.49 171.85 Z M 136.13 171.05 L 136.75 170.27 C 137.31 169.56 137.19 168.53 136.48 167.97 C 135.77 167.41 134.74 167.53 134.18 168.24 L 133.56 169.02 C 133.00 169.73 133.12 170.76 133.83 171.32 C 134.54 171.88 135.57 171.76 136.13 171.05 Z M 136.76 170.26 L 137.37 169.46 C 137.92 168.75 137.79 167.72 137.08 167.17 C 136.36 166.62 135.33 166.75 134.78 167.46 L 134.17 168.25 C 133.62 168.97 133.75 170.00 134.46 170.55 C 135.18 171.10 136.21 170.97 136.76 170.26 Z M 137.38 169.45 L 137.99 168.65 C 138.53 167.93 138.39 166.90 137.67 166.36 C 136.94 165.81 135.92 165.95 135.37 166.68 L 134.77 167.48 C 134.22 168.20 134.37 169.23 135.09 169.77 C 135.81 170.31 136.84 170.17 137.38 169.45 Z M 138.00 168.63 L 138.59 167.82 C 139.13 167.09 138.97 166.07 138.24 165.53 C 137.51 165.00 136.49 165.15 135.95 165.88 L 135.36 166.69 C 134.83 167.42 134.98 168.45 135.71 168.98 C 136.44 169.52 137.47 169.36 138.00 168.63 Z M 138.61 167.80 L 139.19 166.98 C 139.71 166.25 139.54 165.22 138.80 164.70 C 138.07 164.18 137.04 164.35 136.52 165.09 L 135.94 165.90 C 135.42 166.64 135.59 167.66 136.33 168.19 C 137.06 168.71 138.08 168.54 138.61 167.80 Z M 139.20 166.96 L 139.77 166.14 C 140.28 165.40 140.10 164.38 139.36 163.86 C 138.61 163.35 137.59 163.54 137.08 164.28 L 136.51 165.10 C 135.99 165.85 136.18 166.87 136.92 167.38 C 137.67 167.89 138.69 167.71 139.20 166.96 Z M 139.78 166.13 L 140.34 165.30 C 140.85 164.55 140.65 163.54 139.90 163.03 C 139.15 162.52 138.14 162.72 137.63 163.47 L 137.07 164.29 C 136.56 165.04 136.76 166.06 137.51 166.57 C 138.25 167.07 139.27 166.88 139.78 166.13 Z M 140.35 165.29 L 140.90 164.46 C 141.40 163.71 141.20 162.70 140.45 162.19 C 139.70 161.69 138.68 161.89 138.18 162.64 L 137.62 163.47 C 137.12 164.22 137.32 165.24 138.07 165.74 C 138.83 166.25 139.84 166.05 140.35 165.29 Z M 140.90 164.46 L 141.20 164.02 C 141.70 163.27 141.50 162.25 140.74 161.75 C 139.99 161.25 138.98 161.45 138.47 162.20 L 138.18 162.65 C 137.68 163.40 137.88 164.41 138.63 164.92 C 139.38 165.42 140.40 165.21 140.90 164.46 Z"
      fill="black"
      fill-rule="nonzero" /><path d="M 151.85 121.00 L 151.46 121.89 C 151.06 122.80 151.47 123.86 152.38 124.26 C 153.29 124.66 154.35 124.25 154.74 123.34 L 155.14 122.44 C 155.54 121.53 155.13 120.48 154.22 120.08 C 153.31 119.68 152.25 120.09 151.85 121.00 Z M 151.35 122.21 L 151.13 123.14 C 150.91 124.11 151.51 125.08 152.48 125.30 C 153.45 125.53 154.41 124.92 154.64 123.96 L 154.85 123.02 C 155.08 122.06 154.48 121.09 153.51 120.86 C 152.54 120.64 151.57 121.24 151.35 122.21 Z M 151.10 123.80 L 151.24 124.80 C 151.38 125.79 152.29 126.48 153.27 126.34 C 154.26 126.20 154.95 125.29 154.81 124.30 L 154.67 123.30 C 154.53 122.31 153.62 121.62 152.63 121.76 C 151.65 121.90 150.96 122.81 151.10 123.80 Z M 151.43 125.38 L 151.84 126.18 C 152.30 127.06 153.39 127.40 154.27 126.94 C 155.15 126.48 155.49 125.39 155.03 124.51 L 154.62 123.72 C 154.16 122.84 153.07 122.50 152.19 122.96 C 151.31 123.42 150.97 124.50 151.43 125.38 Z M 152.01 126.41 L 152.59 127.20 C 153.18 127.99 154.30 128.15 155.09 127.56 C 155.88 126.98 156.05 125.86 155.46 125.07 L 154.87 124.28 C 154.28 123.49 153.16 123.32 152.37 123.91 C 151.58 124.50 151.42 125.62 152.01 126.41 Z M 152.67 127.28 L 153.36 128.08 C 153.99 128.83 155.11 128.92 155.85 128.29 C 156.60 127.66 156.69 126.54 156.06 125.79 L 155.38 124.99 C 154.74 124.24 153.63 124.15 152.88 124.78 C 152.13 125.41 152.04 126.53 152.67 127.28 Z M 153.37 128.08 L 154.06 128.88 C 154.69 129.62 155.80 129.70 156.54 129.07 C 157.27 128.44 157.36 127.33 156.73 126.60 L 156.04 125.79 C 155.41 125.06 154.30 124.97 153.57 125.60 C 152.83 126.23 152.74 127.34 153.37 128.08 Z M 154.02 128.80 L 154.66 129.64 C 155.24 130.40 156.34 130.55 157.10 129.96 C 157.86 129.38 158.00 128.29 157.42 127.53 L 156.78 126.68 C 156.19 125.92 155.10 125.78 154.34 126.36 C 153.58 126.94 153.43 128.03 154.02 128.80 Z M 154.58 129.48 L 155.13 130.39 C 155.63 131.19 156.68 131.45 157.49 130.96 C 158.30 130.46 158.55 129.41 158.06 128.60 L 157.51 127.69 C 157.01 126.88 155.96 126.63 155.15 127.12 C 154.34 127.61 154.08 128.67 154.58 129.48 Z M 155.07 130.22 L 155.50 131.10 C 155.90 131.94 156.91 132.30 157.75 131.89 C 158.59 131.49 158.94 130.48 158.54 129.64 L 158.12 128.76 C 157.72 127.92 156.71 127.57 155.87 127.97 C 155.03 128.37 154.67 129.38 155.07 130.22 Z M 155.48 130.99 L 155.82 131.85 C 156.16 132.70 157.13 133.12 157.98 132.78 C 158.83 132.44 159.24 131.47 158.90 130.62 L 158.56 129.76 C 158.22 128.91 157.25 128.49 156.40 128.83 C 155.55 129.17 155.14 130.14 155.48 130.99 Z M 155.82 131.81 L 155.94 132.11 C 156.26 132.96 157.20 133.39 158.05 133.07 C 158.90 132.75 159.33 131.81 159.01 130.96 L 158.90 130.66 C 158.58 129.81 157.63 129.38 156.78 129.70 C 155.93 130.02 155.51 130.96 155.82 131.81 Z"
      fill="black"
      fill-rule="nonzero" /><path d="M 147.74 142.00 L 148.65 141.57 C 149.52 141.16 149.89 140.12 149.48 139.25 C 149.07 138.38 148.03 138.01 147.16 138.42 L 146.25 138.85 C 145.38 139.26 145.01 140.30 145.42 141.17 C 145.84 142.04 146.87 142.41 147.74 142.00 Z M 148.62 141.56 L 149.53 141.15 C 150.39 140.75 150.78 139.73 150.38 138.87 C 149.99 138.00 148.96 137.62 148.10 138.01 L 147.19 138.43 C 146.32 138.82 145.94 139.84 146.34 140.71 C 146.73 141.58 147.75 141.96 148.62 141.56 Z M 149.48 141.15 L 150.39 140.76 C 151.26 140.40 151.67 139.40 151.30 138.53 C 150.94 137.66 149.94 137.26 149.07 137.62 L 148.15 138.01 C 147.29 138.38 146.88 139.38 147.24 140.24 C 147.61 141.11 148.61 141.52 149.48 141.15 Z M 150.32 140.78 L 151.17 140.46 C 152.04 140.13 152.49 139.16 152.16 138.29 C 151.84 137.41 150.86 136.97 149.99 137.29 L 149.14 137.61 C 148.27 137.94 147.82 138.91 148.15 139.78 C 148.48 140.66 149.45 141.10 150.32 140.78 Z M 151.08 140.48 L 151.98 140.20 C 152.87 139.93 153.36 138.99 153.09 138.10 C 152.82 137.21 151.87 136.72 150.99 136.99 L 150.08 137.27 C 149.20 137.54 148.70 138.49 148.97 139.37 C 149.25 140.26 150.19 140.76 151.08 140.48 Z M 151.87 140.23 L 152.90 139.98 C 153.80 139.76 154.35 138.86 154.14 137.96 C 153.92 137.06 153.02 136.51 152.12 136.72 L 151.09 136.97 C 150.19 137.18 149.64 138.09 149.85 138.99 C 150.07 139.89 150.97 140.44 151.87 140.23 Z M 152.80 139.99 L 153.88 139.80 C 154.79 139.64 155.39 138.77 155.23 137.87 C 155.07 136.96 154.20 136.36 153.30 136.52 L 152.22 136.71 C 151.31 136.87 150.71 137.74 150.87 138.64 C 151.03 139.55 151.90 140.16 152.80 139.99 Z M 153.77 139.81 L 154.82 139.70 C 155.73 139.59 156.39 138.77 156.29 137.86 C 156.19 136.95 155.37 136.29 154.45 136.39 L 153.41 136.51 C 152.49 136.61 151.83 137.43 151.94 138.34 C 152.04 139.26 152.86 139.91 153.77 139.81 Z M 154.65 139.70 L 155.70 139.70 C 156.61 139.69 157.35 138.94 157.34 138.03 C 157.34 137.11 156.59 136.37 155.67 136.38 L 154.63 136.38 C 153.71 136.39 152.97 137.14 152.98 138.05 C 152.98 138.97 153.73 139.71 154.65 139.70 Z M 155.41 139.67 L 156.36 139.83 C 157.26 139.99 158.12 139.38 158.27 138.48 C 158.43 137.58 157.82 136.72 156.92 136.57 L 155.96 136.40 C 155.06 136.25 154.21 136.86 154.05 137.76 C 153.90 138.66 154.50 139.51 155.41 139.67 Z M 155.89 139.67 L 156.67 140.07 C 157.48 140.49 158.48 140.17 158.89 139.36 C 159.31 138.55 158.99 137.55 158.18 137.13 L 157.40 136.73 C 156.58 136.31 155.59 136.63 155.17 137.44 C 154.76 138.26 155.07 139.25 155.89 139.67 Z M 156.12 139.61 L 156.69 140.35 C 157.25 141.07 158.28 141.20 159.00 140.64 C 159.72 140.09 159.86 139.05 159.30 138.33 L 158.73 137.59 C 158.17 136.87 157.14 136.74 156.42 137.30 C 155.70 137.86 155.56 138.89 156.12 139.61 Z M 156.43 139.84 L 156.73 140.79 C 157.01 141.65 157.94 142.13 158.80 141.85 C 159.67 141.58 160.14 140.65 159.86 139.78 L 159.56 138.84 C 159.28 137.97 158.36 137.50 157.49 137.77 C 156.63 138.05 156.15 138.98 156.43 139.84 Z M 156.66 140.42 L 156.75 141.46 C 156.83 142.36 157.62 143.03 158.52 142.95 C 159.43 142.88 160.10 142.09 160.02 141.18 L 159.93 140.15 C 159.86 139.25 159.07 138.58 158.16 138.65 C 157.26 138.73 156.59 139.52 156.66 140.42 Z M 156.75 141.18 L 156.67 142.19 C 156.59 143.09 157.26 143.88 158.17 143.96 C 159.07 144.03 159.86 143.36 159.93 142.46 L 160.02 141.46 C 160.09 140.55 159.42 139.76 158.52 139.69 C 157.62 139.61 156.83 140.28 156.75 141.18 Z M 156.71 141.94 L 156.48 142.88 C 156.27 143.75 156.81 144.64 157.69 144.85 C 158.57 145.06 159.45 144.52 159.67 143.65 L 159.89 142.71 C 160.11 141.83 159.57 140.95 158.69 140.73 C 157.81 140.52 156.92 141.06 156.71 141.94 Z M 156.55 142.66 L 156.20 143.55 C 155.87 144.39 156.29 145.34 157.13 145.67 C 157.97 146.00 158.92 145.59 159.25 144.75 L 159.60 143.86 C 159.93 143.02 159.52 142.07 158.67 141.74 C 157.83 141.41 156.88 141.82 156.55 142.66 Z M 156.26 143.43 L 155.81 144.34 C 155.41 145.15 155.74 146.14 156.55 146.54 C 157.36 146.93 158.35 146.60 158.75 145.79 L 159.20 144.87 C 159.60 144.06 159.26 143.08 158.45 142.68 C 157.64 142.28 156.66 142.61 156.26 143.43 Z M 155.83 144.31 L 155.36 145.20 C 154.94 146.00 155.24 146.99 156.04 147.41 C 156.84 147.83 157.83 147.53 158.25 146.72 L 158.73 145.83 C 159.15 145.03 158.84 144.04 158.04 143.62 C 157.24 143.20 156.25 143.51 155.83 144.31 Z M 155.36 145.20 L 154.90 146.07 C 154.48 146.87 154.78 147.86 155.58 148.28 C 156.38 148.70 157.37 148.40 157.79 147.60 L 158.25 146.73 C 158.67 145.93 158.37 144.94 157.57 144.52 C 156.77 144.09 155.78 144.40 155.36 145.20 Z M 154.90 146.06 L 154.42 146.97 C 153.99 147.76 154.29 148.76 155.09 149.18 C 155.89 149.61 156.88 149.31 157.31 148.51 L 157.79 147.60 C 158.22 146.81 157.91 145.81 157.12 145.39 C 156.32 144.96 155.33 145.26 154.90 146.06 Z M 154.42 146.96 L 153.93 147.87 C 153.50 148.66 153.80 149.65 154.59 150.08 C 155.39 150.52 156.38 150.22 156.81 149.43 L 157.30 148.52 C 157.73 147.72 157.44 146.73 156.64 146.30 C 155.85 145.87 154.85 146.16 154.42 146.96 Z M 153.94 147.85 L 153.45 148.73 C 153.01 149.52 153.30 150.52 154.09 150.96 C 154.88 151.39 155.88 151.11 156.31 150.32 L 156.80 149.44 C 157.24 148.65 156.95 147.65 156.16 147.21 C 155.37 146.78 154.38 147.06 153.94 147.85 Z M 153.46 148.71 L 152.93 149.65 C 152.48 150.43 152.75 151.43 153.53 151.88 C 154.32 152.33 155.32 152.06 155.77 151.27 L 156.30 150.34 C 156.75 149.55 156.48 148.55 155.70 148.10 C 154.91 147.65 153.91 147.93 153.46 148.71 Z M 152.94 149.63 L 152.41 150.52 C 151.95 151.30 152.21 152.30 152.99 152.76 C 153.77 153.22 154.78 152.96 155.24 152.18 L 155.76 151.29 C 156.22 150.51 155.96 149.51 155.18 149.05 C 154.40 148.59 153.40 148.85 152.94 149.63 Z M 152.42 150.52 L 151.92 151.35 C 151.46 152.13 151.72 153.13 152.50 153.59 C 153.27 154.05 154.28 153.80 154.74 153.02 L 155.23 152.18 C 155.69 151.41 155.44 150.40 154.66 149.94 C 153.88 149.48 152.88 149.74 152.42 150.52 Z M 151.91 151.36 L 151.45 152.17 C 150.99 152.95 151.26 153.95 152.04 154.41 C 152.82 154.86 153.83 154.59 154.28 153.81 L 154.75 153.01 C 155.20 152.22 154.93 151.22 154.15 150.77 C 153.37 150.31 152.37 150.58 151.91 151.36 Z M 151.43 152.20 L 150.95 153.06 C 150.51 153.85 150.80 154.85 151.59 155.29 C 152.39 155.72 153.38 155.44 153.82 154.64 L 154.30 153.78 C 154.74 152.99 154.45 151.99 153.66 151.55 C 152.86 151.12 151.87 151.40 151.43 152.20 Z M 150.93 153.09 L 150.47 153.97 C 150.05 154.77 150.36 155.77 151.16 156.19 C 151.97 156.61 152.96 156.30 153.38 155.50 L 153.85 154.61 C 154.27 153.81 153.96 152.81 153.15 152.39 C 152.35 151.97 151.35 152.28 150.93 153.09 Z M 150.45 153.99 L 150.00 154.89 C 149.59 155.70 149.92 156.69 150.74 157.10 C 151.56 157.51 152.55 157.18 152.96 156.36 L 153.40 155.47 C 153.81 154.66 153.48 153.66 152.67 153.26 C 151.85 152.85 150.86 153.18 150.45 153.99 Z M 149.99 154.90 L 149.54 155.83 C 149.14 156.66 149.48 157.65 150.31 158.05 C 151.13 158.45 152.12 158.10 152.52 157.28 L 152.97 156.35 C 153.37 155.52 153.03 154.53 152.20 154.13 C 151.38 153.73 150.39 154.08 149.99 154.90 Z M 149.50 155.88 L 149.03 156.94 C 148.65 157.78 149.03 158.77 149.87 159.14 C 150.72 159.52 151.70 159.14 152.08 158.30 L 152.55 157.24 C 152.93 156.40 152.55 155.41 151.71 155.03 C 150.87 154.66 149.88 155.03 149.50 155.88 Z M 148.94 157.13 L 148.65 158.09 C 148.38 158.98 148.88 159.92 149.77 160.19 C 150.66 160.46 151.60 159.96 151.87 159.07 L 152.17 158.11 C 152.44 157.22 151.94 156.28 151.05 156.01 C 150.16 155.73 149.21 156.24 148.94 157.13 Z M 148.57 158.69 L 148.61 159.44 C 148.67 160.38 149.48 161.09 150.42 161.03 C 151.36 160.97 152.07 160.16 152.01 159.22 L 151.96 158.47 C 151.90 157.53 151.09 156.82 150.15 156.88 C 149.22 156.94 148.50 157.75 148.57 158.69 Z M 149.27 160.68 L 149.90 161.17 C 150.64 161.74 151.72 161.60 152.29 160.85 C 152.87 160.11 152.73 159.04 151.98 158.46 L 151.35 157.98 C 150.60 157.40 149.53 157.54 148.96 158.29 C 148.38 159.04 148.52 160.11 149.27 160.68 Z M 150.96 161.52 L 152.00 161.51 C 152.95 161.49 153.70 160.72 153.68 159.77 C 153.67 158.83 152.90 158.08 151.95 158.09 L 150.91 158.11 C 149.97 158.12 149.22 158.90 149.23 159.84 C 149.24 160.78 150.02 161.53 150.96 161.52 Z M 152.64 161.37 L 153.63 160.96 C 154.50 160.59 154.91 159.59 154.54 158.72 C 154.18 157.85 153.18 157.44 152.31 157.81 L 151.32 158.23 C 150.45 158.59 150.04 159.59 150.40 160.46 C 150.77 161.33 151.77 161.74 152.64 161.37 Z M 153.95 160.77 L 154.75 160.21 C 155.52 159.67 155.70 158.60 155.16 157.83 C 154.61 157.06 153.55 156.88 152.78 157.42 L 151.98 157.99 C 151.21 158.53 151.03 159.60 151.58 160.37 C 152.12 161.14 153.19 161.32 153.95 160.77 Z M 154.88 160.11 L 155.66 159.43 C 156.38 158.82 156.46 157.74 155.84 157.03 C 155.23 156.31 154.15 156.23 153.43 156.85 L 152.65 157.52 C 151.94 158.14 151.86 159.22 152.47 159.93 C 153.09 160.65 154.17 160.73 154.88 160.11 Z M 155.70 159.40 L 156.46 158.71 C 157.15 158.07 157.20 156.99 156.57 156.30 C 155.93 155.60 154.85 155.55 154.16 156.19 L 153.40 156.88 C 152.70 157.52 152.65 158.60 153.29 159.29 C 153.92 159.99 155.00 160.04 155.70 159.40 Z M 156.41 158.76 L 157.34 157.97 C 158.07 157.36 158.16 156.29 157.56 155.56 C 156.95 154.84 155.87 154.74 155.15 155.35 L 154.21 156.14 C 153.48 156.75 153.39 157.83 154.00 158.55 C 154.60 159.27 155.68 159.37 156.41 158.76 Z M 157.11 158.15 L 158.00 157.63 C 158.82 157.15 159.10 156.10 158.62 155.28 C 158.14 154.46 157.09 154.18 156.27 154.66 L 155.38 155.18 C 154.56 155.66 154.28 156.71 154.76 157.53 C 155.24 158.35 156.29 158.63 157.11 158.15 Z M 157.00 157.87 L 157.64 157.92 C 158.59 157.99 159.42 157.28 159.50 156.33 C 159.57 155.38 158.86 154.54 157.91 154.47 L 157.27 154.42 C 156.32 154.34 155.49 155.05 155.41 156.01 C 155.34 156.96 156.05 157.79 157.00 157.87 Z M 156.21 156.94 L 156.53 157.62 C 156.94 158.49 157.98 158.85 158.84 158.44 C 159.71 158.03 160.08 156.99 159.67 156.13 L 159.34 155.45 C 158.93 154.58 157.89 154.21 157.03 154.62 C 156.16 155.04 155.79 156.07 156.21 156.94 Z M 156.37 157.07 L 156.50 158.15 C 156.61 159.11 157.47 159.79 158.42 159.68 C 159.37 159.57 160.06 158.71 159.95 157.76 L 159.82 156.67 C 159.71 155.72 158.85 155.04 157.90 155.15 C 156.95 155.26 156.26 156.12 156.37 157.07 Z M 156.48 158.00 L 156.52 159.15 C 156.54 160.11 157.34 160.87 158.30 160.84 C 159.26 160.81 160.02 160.01 159.99 159.05 L 159.96 157.91 C 159.93 156.95 159.13 156.19 158.17 156.22 C 157.21 156.24 156.46 157.04 156.48 158.00 Z M 156.51 159.12 L 156.52 160.11 C 156.54 161.08 157.32 161.85 158.29 161.83 C 159.25 161.82 160.02 161.04 160.01 160.07 L 160.00 159.08 C 159.98 158.12 159.20 157.35 158.23 157.36 C 157.27 157.37 156.50 158.16 156.51 159.12 Z M 156.52 160.10 L 156.53 161.09 C 156.53 162.05 157.31 162.83 158.28 162.82 C 159.24 162.82 160.02 162.04 160.01 161.07 L 160.01 160.09 C 160.00 159.12 159.22 158.35 158.26 158.35 C 157.30 158.36 156.52 159.14 156.52 160.10 Z M 156.53 161.08 L 156.53 162.09 C 156.53 163.06 157.31 163.84 158.27 163.84 C 159.23 163.84 160.02 163.05 160.01 162.09 L 160.01 161.08 C 160.01 160.12 159.23 159.34 158.27 159.34 C 157.31 159.34 156.53 160.12 156.53 161.08 Z M 156.53 162.09 L 156.52 163.04 C 156.52 164.00 157.30 164.78 158.27 164.79 C 159.23 164.79 160.01 164.01 160.01 163.04 L 160.02 162.09 C 160.02 161.13 159.24 160.35 158.27 160.35 C 157.31 160.35 156.53 161.13 156.53 162.09 Z M 156.52 163.02 L 156.51 164.01 C 156.50 164.98 157.28 165.77 158.24 165.78 C 159.20 165.79 159.99 165.01 160.00 164.05 L 160.01 163.06 C 160.02 162.09 159.25 161.31 158.29 161.30 C 157.32 161.29 156.53 162.06 156.52 163.02 Z M 156.51 163.99 L 156.49 165.02 C 156.46 165.98 157.22 166.78 158.19 166.81 C 159.15 166.83 159.95 166.07 159.98 165.11 L 160.00 164.08 C 160.03 163.11 159.27 162.31 158.30 162.29 C 157.34 162.26 156.54 163.02 156.51 163.99 Z M 156.49 164.98 L 156.44 166.00 C 156.39 166.96 157.14 167.78 158.10 167.82 C 159.06 167.87 159.88 167.13 159.93 166.16 L 159.98 165.15 C 160.02 164.18 159.28 163.36 158.32 163.32 C 157.35 163.27 156.53 164.02 156.49 164.98 Z M 156.44 165.96 L 156.37 166.93 C 156.31 167.89 157.03 168.73 157.99 168.79 C 158.96 168.86 159.79 168.14 159.86 167.17 L 159.92 166.20 C 159.99 165.24 159.27 164.41 158.30 164.34 C 157.34 164.27 156.51 165.00 156.44 165.96 Z M 156.38 166.90 L 156.29 167.90 C 156.21 168.86 156.92 169.70 157.88 169.79 C 158.84 169.87 159.68 169.16 159.77 168.20 L 159.85 167.20 C 159.94 166.24 159.23 165.40 158.27 165.31 C 157.31 165.23 156.46 165.94 156.38 166.90 Z M 156.29 167.87 L 156.19 168.89 C 156.10 169.85 156.80 170.70 157.76 170.80 C 158.71 170.89 159.57 170.19 159.66 169.23 L 159.77 168.22 C 159.86 167.26 159.16 166.41 158.20 166.31 C 157.24 166.22 156.39 166.92 156.29 167.87 Z M 156.19 168.87 L 156.08 169.89 C 155.98 170.85 156.67 171.71 157.63 171.81 C 158.59 171.91 159.45 171.22 159.55 170.26 L 159.66 169.25 C 159.77 168.29 159.07 167.43 158.12 167.33 C 157.16 167.22 156.30 167.92 156.19 168.87 Z M 156.09 169.88 L 155.97 170.87 C 155.87 171.82 156.55 172.69 157.51 172.79 C 158.47 172.90 159.33 172.22 159.44 171.26 L 159.55 170.27 C 159.66 169.31 158.97 168.45 158.02 168.34 C 157.06 168.23 156.19 168.92 156.09 169.88 Z M 155.98 170.86 L 155.86 171.85 C 155.75 172.81 156.43 173.68 157.39 173.79 C 158.34 173.90 159.21 173.22 159.32 172.26 L 159.44 171.26 C 159.55 170.31 158.87 169.44 157.91 169.33 C 156.95 169.22 156.09 169.90 155.98 170.86 Z M 155.86 171.85 L 155.74 172.85 C 155.63 173.80 156.31 174.67 157.26 174.78 C 158.22 174.90 159.08 174.22 159.20 173.26 L 159.32 172.26 C 159.43 171.31 158.75 170.44 157.80 170.33 C 156.84 170.21 155.98 170.89 155.86 171.85 Z M 155.74 172.84 L 155.62 173.84 C 155.50 174.79 156.18 175.66 157.14 175.78 C 158.09 175.89 158.96 175.22 159.08 174.26 L 159.20 173.27 C 159.31 172.31 158.64 171.44 157.68 171.33 C 156.73 171.21 155.86 171.89 155.74 172.84 Z M 155.62 173.84 L 155.51 174.77 C 155.39 175.72 156.07 176.59 157.02 176.71 C 157.97 176.82 158.84 176.15 158.96 175.19 L 159.07 174.26 C 159.19 173.31 158.51 172.44 157.56 172.33 C 156.61 172.21 155.74 172.89 155.62 173.84 Z M 155.51 174.77 L 155.40 175.72 C 155.28 176.67 155.96 177.53 156.91 177.65 C 157.86 177.76 158.73 177.08 158.84 176.13 L 158.96 175.19 C 159.07 174.24 158.39 173.37 157.44 173.26 C 156.49 173.14 155.63 173.82 155.51 174.77 Z M 155.40 175.72 L 155.29 176.70 C 155.18 177.65 155.86 178.51 156.81 178.62 C 157.76 178.73 158.61 178.05 158.73 177.10 L 158.84 176.12 C 158.95 175.17 158.27 174.31 157.32 174.20 C 156.37 174.09 155.51 174.77 155.40 175.72 Z M 155.29 176.72 L 155.17 177.76 C 155.07 178.70 155.75 179.56 156.70 179.66 C 157.65 179.77 158.51 179.08 158.61 178.13 L 158.72 177.09 C 158.83 176.14 158.14 175.29 157.19 175.19 C 156.25 175.08 155.39 175.77 155.29 176.72 Z M 155.18 177.77 L 155.07 178.81 C 154.97 179.76 155.66 180.61 156.61 180.70 C 157.56 180.80 158.40 180.11 158.50 179.16 L 158.61 178.12 C 158.70 177.17 158.01 176.32 157.07 176.23 C 156.12 176.13 155.27 176.82 155.18 177.77 Z M 155.07 178.82 L 154.98 179.75 C 154.89 180.69 155.59 181.53 156.54 181.62 C 157.48 181.71 158.32 181.02 158.41 180.07 L 158.50 179.15 C 158.59 178.20 157.89 177.36 156.95 177.27 C 156.00 177.18 155.16 177.88 155.07 178.82 Z M 154.99 179.76 L 154.90 180.73 C 154.82 181.68 155.52 182.51 156.47 182.59 C 157.41 182.67 158.24 181.97 158.33 181.03 L 158.41 180.06 C 158.49 179.11 157.79 178.28 156.85 178.20 C 155.90 178.12 155.07 178.82 154.99 179.76 Z M 154.90 180.74 L 154.83 181.75 C 154.75 182.69 155.46 183.52 156.40 183.59 C 157.35 183.67 158.17 182.96 158.25 182.02 L 158.33 181.01 C 158.40 180.07 157.69 179.24 156.75 179.17 C 155.80 179.09 154.98 179.80 154.90 180.74 Z M 154.83 181.77 L 154.76 182.80 C 154.69 183.74 155.40 184.56 156.35 184.62 C 157.29 184.69 158.11 183.98 158.17 183.03 L 158.24 182.00 C 158.31 181.06 157.60 180.24 156.65 180.17 C 155.71 180.11 154.89 180.82 154.83 181.77 Z M 154.76 182.82 L 154.70 183.86 C 154.64 184.81 155.36 185.62 156.31 185.67 C 157.25 185.72 158.06 185.00 158.11 184.06 L 158.17 183.01 C 158.23 182.07 157.51 181.26 156.56 181.21 C 155.62 181.15 154.81 181.87 154.76 182.82 Z M 154.70 183.89 L 154.65 184.97 C 154.61 185.91 155.34 186.71 156.28 186.75 C 157.22 186.79 158.02 186.07 158.06 185.12 L 158.11 184.04 C 158.15 183.10 157.42 182.30 156.48 182.26 C 155.54 182.22 154.74 182.94 154.70 183.89 Z M 154.65 185.00 L 154.62 186.16 C 154.59 187.10 155.34 187.88 156.28 187.91 C 157.22 187.93 158.00 187.19 158.03 186.25 L 158.06 185.10 C 158.09 184.16 157.35 183.37 156.41 183.35 C 155.47 183.32 154.68 184.06 154.65 185.00 Z M 154.63 186.19 L 154.62 187.30 C 154.61 188.24 155.37 189.01 156.30 189.02 C 157.24 189.02 158.01 188.27 158.02 187.33 L 158.02 186.22 C 158.03 185.28 157.27 184.51 156.34 184.50 C 155.40 184.50 154.63 185.25 154.63 186.19 Z M 154.62 187.35 L 154.65 188.39 C 154.67 189.32 155.44 190.07 156.38 190.04 C 157.31 190.02 158.05 189.25 158.03 188.31 L 158.01 187.28 C 157.99 186.34 157.21 185.60 156.28 185.62 C 155.34 185.64 154.60 186.42 154.62 187.35 Z M 154.65 188.46 L 154.71 189.38 C 154.77 190.31 155.58 191.02 156.51 190.96 C 157.44 190.90 158.15 190.10 158.09 189.16 L 158.03 188.24 C 157.97 187.31 157.16 186.60 156.23 186.66 C 155.30 186.72 154.59 187.53 154.65 188.46 Z M 154.73 189.49 L 154.83 190.27 C 154.95 191.19 155.80 191.84 156.72 191.72 C 157.64 191.60 158.29 190.75 158.17 189.83 L 158.07 189.05 C 157.95 188.13 157.10 187.48 156.18 187.60 C 155.26 187.72 154.61 188.57 154.73 189.49 Z M 154.91 190.59 L 155.29 191.70 C 155.59 192.58 156.54 193.04 157.42 192.75 C 158.30 192.45 158.76 191.50 158.47 190.62 L 158.09 189.51 C 157.79 188.63 156.84 188.16 155.96 188.46 C 155.08 188.76 154.62 189.71 154.91 190.59 Z M 155.71 192.34 L 156.31 192.93 C 156.97 193.57 158.02 193.57 158.66 192.91 C 159.30 192.26 159.30 191.21 158.64 190.56 L 158.04 189.98 C 157.39 189.33 156.34 189.34 155.70 189.99 C 155.05 190.65 155.06 191.70 155.71 192.34 Z M 156.66 193.18 L 156.92 193.33 C 157.71 193.78 158.72 193.50 159.17 192.71 C 159.62 191.92 159.35 190.92 158.56 190.46 L 158.29 190.31 C 157.50 189.86 156.49 190.14 156.04 190.93 C 155.59 191.72 155.87 192.73 156.66 193.18 Z"
      fill="black"
      fill-rule="nonzero" /><path d="M 156.30 179.60 L 157.01 178.90 C 157.70 178.24 157.71 177.14 157.04 176.46 C 156.38 175.77 155.28 175.76 154.60 176.43 L 153.88 177.13 C 153.19 177.80 153.18 178.89 153.85 179.57 C 154.52 180.26 155.61 180.27 156.30 179.60 Z M 156.91 178.98 L 157.67 178.34 C 158.40 177.73 158.49 176.65 157.88 175.92 C 157.27 175.20 156.19 175.10 155.46 175.71 L 154.70 176.35 C 153.97 176.96 153.88 178.05 154.49 178.77 C 155.10 179.50 156.18 179.59 156.91 178.98 Z M 157.46 178.48 L 158.31 177.96 C 159.11 177.47 159.36 176.42 158.87 175.62 C 158.38 174.81 157.33 174.56 156.53 175.05 L 155.68 175.57 C 154.87 176.07 154.62 177.11 155.11 177.92 C 155.61 178.72 156.65 178.97 157.46 178.48 Z M 158.02 178.09 L 158.82 177.78 C 159.70 177.44 160.13 176.46 159.80 175.59 C 159.46 174.72 158.48 174.28 157.61 174.62 L 156.81 174.92 C 155.93 175.26 155.50 176.24 155.83 177.11 C 156.17 177.99 157.15 178.42 158.02 178.09 Z M 158.59 177.85 L 159.51 177.64 C 160.42 177.43 160.99 176.52 160.78 175.61 C 160.57 174.70 159.67 174.13 158.76 174.34 L 157.84 174.55 C 156.93 174.76 156.36 175.66 156.57 176.57 C 156.77 177.48 157.68 178.05 158.59 177.85 Z M 159.34 177.66 L 160.41 177.53 C 161.33 177.41 161.99 176.57 161.87 175.65 C 161.76 174.72 160.91 174.06 159.99 174.18 L 158.92 174.31 C 158.00 174.43 157.34 175.27 157.46 176.20 C 157.57 177.12 158.42 177.78 159.34 177.66 Z M 160.31 177.54 L 161.41 177.46 C 162.34 177.40 163.05 176.60 162.99 175.67 C 162.92 174.74 162.12 174.04 161.19 174.10 L 160.09 174.17 C 159.16 174.24 158.45 175.04 158.52 175.97 C 158.58 176.89 159.38 177.60 160.31 177.54 Z M 161.36 177.46 L 162.36 177.43 C 163.29 177.40 164.02 176.62 163.99 175.70 C 163.96 174.77 163.18 174.04 162.25 174.07 L 161.25 174.10 C 160.32 174.13 159.60 174.91 159.63 175.84 C 159.66 176.76 160.43 177.49 161.36 177.46 Z M 162.31 177.42 L 163.35 177.42 C 164.28 177.42 165.02 176.67 165.02 175.74 C 165.02 174.82 164.27 174.07 163.34 174.07 L 162.30 174.08 C 161.38 174.08 160.63 174.83 160.63 175.75 C 160.64 176.68 161.39 177.43 162.31 177.42 Z M 163.30 177.41 L 164.33 177.45 C 165.25 177.48 166.02 176.75 166.05 175.83 C 166.08 174.91 165.36 174.14 164.44 174.11 L 163.40 174.08 C 162.48 174.05 161.71 174.77 161.68 175.69 C 161.65 176.62 162.38 177.38 163.30 177.41 Z M 164.26 177.44 L 165.24 177.51 C 166.15 177.58 166.95 176.89 167.02 175.98 C 167.09 175.06 166.40 174.27 165.49 174.20 L 164.51 174.12 C 163.59 174.05 162.79 174.74 162.73 175.66 C 162.66 176.57 163.34 177.37 164.26 177.44 Z M 165.13 177.49 L 166.18 177.64 C 167.08 177.78 167.92 177.15 168.05 176.24 C 168.19 175.34 167.56 174.50 166.65 174.37 L 165.60 174.21 C 164.69 174.08 163.85 174.71 163.72 175.62 C 163.59 176.52 164.22 177.36 165.13 177.49 Z M 165.97 177.60 L 167.01 177.89 C 167.89 178.13 168.80 177.62 169.05 176.74 C 169.29 175.86 168.78 174.95 167.90 174.70 L 166.86 174.41 C 165.98 174.17 165.07 174.68 164.82 175.56 C 164.58 176.44 165.09 177.35 165.97 177.60 Z M 166.68 177.76 L 167.50 178.19 C 168.31 178.61 169.31 178.30 169.74 177.50 C 170.16 176.69 169.85 175.69 169.04 175.26 L 168.22 174.83 C 167.41 174.41 166.41 174.72 165.99 175.53 C 165.57 176.33 165.88 177.33 166.68 177.76 Z M 167.14 177.93 L 167.78 178.53 C 168.45 179.15 169.49 179.12 170.12 178.45 C 170.74 177.79 170.71 176.74 170.04 176.12 L 169.40 175.52 C 168.74 174.90 167.69 174.93 167.07 175.60 C 166.44 176.26 166.48 177.31 167.14 177.93 Z M 167.51 178.19 L 168.02 179.01 C 168.50 179.79 169.51 180.03 170.29 179.55 C 171.06 179.07 171.30 178.05 170.82 177.28 L 170.32 176.46 C 169.84 175.68 168.82 175.44 168.04 175.92 C 167.27 176.40 167.03 177.42 167.51 178.19 Z M 167.87 178.71 L 168.21 179.66 C 168.52 180.52 169.47 180.96 170.33 180.65 C 171.18 180.34 171.63 179.39 171.32 178.53 L 170.97 177.58 C 170.66 176.73 169.71 176.28 168.86 176.59 C 168.00 176.91 167.56 177.85 167.87 178.71 Z M 168.14 179.40 L 168.33 180.41 C 168.50 181.30 169.37 181.89 170.26 181.72 C 171.16 181.55 171.75 180.69 171.58 179.79 L 171.39 178.79 C 171.22 177.89 170.35 177.31 169.46 177.47 C 168.56 177.64 167.97 178.51 168.14 179.40 Z M 168.31 180.17 L 168.34 181.10 C 168.38 182.01 169.15 182.72 170.06 182.68 C 170.97 182.64 171.68 181.87 171.64 180.96 L 171.60 180.03 C 171.57 179.12 170.80 178.42 169.89 178.45 C 168.98 178.49 168.27 179.26 168.31 180.17 Z M 168.36 180.79 L 168.23 181.73 C 168.10 182.63 168.72 183.46 169.62 183.59 C 170.52 183.72 171.36 183.10 171.49 182.20 L 171.62 181.27 C 171.75 180.37 171.13 179.53 170.23 179.40 C 169.33 179.27 168.49 179.89 168.36 180.79 Z M 168.31 181.39 L 167.95 182.36 C 167.64 183.22 168.07 184.16 168.92 184.48 C 169.77 184.80 170.72 184.36 171.04 183.51 L 171.40 182.54 C 171.72 181.69 171.28 180.74 170.43 180.42 C 169.58 180.11 168.63 180.54 168.31 181.39 Z M 168.08 182.10 L 167.56 182.98 C 167.10 183.76 167.35 184.77 168.13 185.23 C 168.92 185.69 169.92 185.44 170.39 184.66 L 170.91 183.77 C 171.37 182.99 171.11 181.99 170.33 181.52 C 169.55 181.06 168.54 181.32 168.08 182.10 Z M 167.66 182.83 L 167.09 183.59 C 166.54 184.31 166.68 185.34 167.41 185.89 C 168.13 186.43 169.16 186.29 169.71 185.57 L 170.28 184.81 C 170.83 184.09 170.69 183.06 169.96 182.51 C 169.24 181.96 168.21 182.11 167.66 182.83 Z M 167.16 183.50 L 166.49 184.26 C 165.90 184.95 165.97 185.98 166.65 186.58 C 167.33 187.17 168.37 187.11 168.96 186.42 L 169.63 185.66 C 170.23 184.98 170.16 183.94 169.48 183.34 C 168.80 182.75 167.76 182.82 167.16 183.50 Z M 166.56 184.20 L 165.82 184.95 C 165.19 185.59 165.20 186.63 165.85 187.26 C 166.50 187.90 167.53 187.89 168.17 187.24 L 168.90 186.49 C 169.53 185.84 169.52 184.80 168.87 184.17 C 168.23 183.54 167.19 183.55 166.56 184.20 Z M 165.88 184.89 L 165.12 185.60 C 164.46 186.22 164.42 187.25 165.04 187.92 C 165.65 188.58 166.69 188.61 167.35 188.00 L 168.11 187.29 C 168.77 186.68 168.81 185.64 168.19 184.98 C 167.58 184.31 166.54 184.28 165.88 184.89 Z M 165.18 185.55 L 164.37 186.24 C 163.68 186.82 163.59 187.86 164.18 188.55 C 164.76 189.24 165.79 189.32 166.48 188.74 L 167.30 188.05 C 167.99 187.46 168.07 186.43 167.49 185.74 C 166.90 185.05 165.87 184.97 165.18 185.55 Z M 164.44 186.18 L 163.60 186.81 C 162.88 187.36 162.74 188.39 163.28 189.11 C 163.83 189.83 164.85 189.97 165.57 189.43 L 166.41 188.79 C 167.13 188.25 167.28 187.22 166.73 186.50 C 166.18 185.78 165.16 185.64 164.44 186.18 Z M 163.69 186.75 L 162.86 187.29 C 162.11 187.78 161.89 188.80 162.39 189.56 C 162.88 190.31 163.90 190.53 164.65 190.03 L 165.48 189.49 C 166.24 189.00 166.45 187.98 165.96 187.23 C 165.46 186.47 164.45 186.26 163.69 186.75 Z M 162.98 187.22 L 162.14 187.68 C 161.35 188.11 161.05 189.10 161.49 189.90 C 161.92 190.69 162.91 190.98 163.71 190.55 L 164.54 190.10 C 165.34 189.67 165.63 188.67 165.20 187.88 C 164.76 187.08 163.77 186.79 162.98 187.22 Z M 162.27 187.61 L 161.40 187.99 C 160.57 188.35 160.19 189.32 160.55 190.15 C 160.92 190.98 161.88 191.35 162.71 190.99 L 163.58 190.62 C 164.41 190.25 164.79 189.29 164.43 188.46 C 164.06 187.63 163.10 187.25 162.27 187.61 Z M 161.53 187.94 L 160.59 188.26 C 159.73 188.55 159.27 189.48 159.56 190.33 C 159.85 191.19 160.78 191.65 161.64 191.36 L 162.58 191.04 C 163.44 190.76 163.90 189.83 163.61 188.97 C 163.32 188.11 162.39 187.65 161.53 187.94 Z M 160.69 188.23 L 159.73 188.48 C 158.86 188.72 158.33 189.61 158.57 190.49 C 158.80 191.36 159.69 191.88 160.57 191.65 L 161.53 191.39 C 162.41 191.16 162.93 190.26 162.70 189.39 C 162.46 188.52 161.57 188.00 160.69 188.23 Z M 159.80 188.47 L 158.82 188.68 C 157.93 188.88 157.38 189.75 157.57 190.64 C 157.77 191.52 158.64 192.08 159.52 191.88 L 160.50 191.66 C 161.38 191.47 161.94 190.60 161.75 189.71 C 161.55 188.83 160.68 188.27 159.80 188.47 Z M 158.84 188.68 L 158.08 188.83 C 157.19 189.01 156.62 189.88 156.80 190.76 C 156.98 191.65 157.84 192.22 158.73 192.04 L 159.49 191.89 C 160.38 191.71 160.95 190.84 160.77 189.96 C 160.59 189.07 159.73 188.50 158.84 188.68 Z"
      fill="black"
      fill-rule="nonzero" /><path d="M 178.21 122.85 L 177.24 123.04 C 176.25 123.24 175.61 124.20 175.80 125.18 C 176.00 126.17 176.96 126.81 177.94 126.62 L 178.92 126.42 C 179.90 126.23 180.54 125.27 180.35 124.28 C 180.15 123.30 179.19 122.66 178.21 122.85 Z M 176.98 123.10 L 176.06 123.43 C 175.10 123.76 174.60 124.81 174.94 125.77 C 175.28 126.72 176.33 127.22 177.28 126.88 L 178.20 126.56 C 179.16 126.22 179.66 125.17 179.32 124.22 C 178.98 123.26 177.93 122.76 176.98 123.10 Z M 175.59 123.66 L 174.77 124.25 C 173.95 124.85 173.76 126.00 174.36 126.83 C 174.96 127.65 176.12 127.84 176.94 127.24 L 177.75 126.65 C 178.58 126.05 178.76 124.90 178.17 124.07 C 177.57 123.25 176.41 123.06 175.59 123.66 Z M 174.36 124.66 L 173.80 125.42 C 173.20 126.25 173.38 127.41 174.21 128.01 C 175.04 128.61 176.20 128.43 176.80 127.60 L 177.36 126.83 C 177.96 126.01 177.77 124.85 176.95 124.25 C 176.12 123.64 174.96 123.83 174.36 124.66 Z M 173.60 125.77 L 173.20 126.71 C 172.79 127.64 173.22 128.74 174.16 129.14 C 175.10 129.55 176.19 129.12 176.60 128.18 L 177.00 127.25 C 177.41 126.31 176.98 125.22 176.04 124.81 C 175.10 124.40 174.01 124.83 173.60 125.77 Z M 173.09 127.03 L 172.86 128.04 C 172.63 129.03 173.25 130.03 174.24 130.26 C 175.24 130.49 176.24 129.87 176.47 128.87 L 176.70 127.86 C 176.93 126.86 176.31 125.87 175.31 125.64 C 174.32 125.41 173.32 126.03 173.09 127.03 Z M 172.81 128.40 L 172.78 129.39 C 172.75 130.41 173.55 131.27 174.58 131.30 C 175.60 131.33 176.45 130.53 176.48 129.50 L 176.51 128.51 C 176.54 127.49 175.74 126.63 174.72 126.60 C 173.70 126.57 172.84 127.38 172.81 128.40 Z M 172.83 129.86 L 173.05 130.82 C 173.27 131.82 174.26 132.44 175.26 132.22 C 176.26 131.99 176.88 131.00 176.65 130.00 L 176.44 129.04 C 176.21 128.04 175.22 127.42 174.22 127.64 C 173.23 127.87 172.60 128.86 172.83 129.86 Z M 173.20 131.25 L 173.65 132.12 C 174.11 133.02 175.22 133.39 176.13 132.92 C 177.04 132.46 177.40 131.34 176.94 130.43 L 176.50 129.57 C 176.03 128.66 174.92 128.30 174.01 128.77 C 173.10 129.23 172.74 130.34 173.20 131.25 Z M 173.83 132.40 L 174.44 133.20 C 175.06 134.01 176.22 134.16 177.03 133.54 C 177.84 132.92 177.99 131.76 177.37 130.95 L 176.76 130.15 C 176.14 129.34 174.98 129.19 174.17 129.81 C 173.36 130.43 173.21 131.59 173.83 132.40 Z M 174.57 133.34 L 175.26 134.07 C 175.96 134.81 177.12 134.84 177.86 134.14 C 178.60 133.44 178.63 132.27 177.93 131.54 L 177.24 130.81 C 176.54 130.07 175.37 130.04 174.64 130.74 C 173.90 131.44 173.87 132.60 174.57 133.34 Z M 175.35 134.15 L 176.07 134.83 C 176.82 135.52 177.98 135.47 178.67 134.73 C 179.36 133.98 179.32 132.82 178.57 132.13 L 177.84 131.45 C 177.10 130.76 175.94 130.81 175.25 131.55 C 174.56 132.30 174.60 133.46 175.35 134.15 Z M 176.16 134.89 L 176.94 135.54 C 177.72 136.18 178.88 136.07 179.52 135.28 C 180.17 134.50 180.05 133.34 179.27 132.70 L 178.49 132.06 C 177.70 131.42 176.55 131.53 175.90 132.31 C 175.26 133.10 175.37 134.25 176.16 134.89 Z M 177.03 135.60 L 177.85 136.20 C 178.67 136.79 179.81 136.61 180.41 135.79 C 181.00 134.97 180.82 133.83 180.00 133.23 L 179.18 132.64 C 178.36 132.04 177.22 132.22 176.62 133.04 C 176.03 133.86 176.21 135.01 177.03 135.60 Z M 177.95 136.26 L 178.82 136.80 C 179.67 137.34 180.80 137.09 181.34 136.23 C 181.87 135.38 181.62 134.25 180.76 133.72 L 179.90 133.17 C 179.04 132.63 177.92 132.89 177.38 133.74 C 176.84 134.59 177.10 135.72 177.95 136.26 Z M 178.93 136.86 L 179.83 137.34 C 180.72 137.82 181.82 137.48 182.29 136.60 C 182.77 135.71 182.43 134.61 181.55 134.14 L 180.65 133.66 C 179.76 133.18 178.66 133.52 178.19 134.40 C 177.71 135.29 178.05 136.39 178.93 136.86 Z M 179.96 137.40 L 180.87 137.80 C 181.78 138.20 182.85 137.79 183.25 136.88 C 183.66 135.96 183.24 134.89 182.33 134.49 L 181.42 134.09 C 180.51 133.68 179.44 134.10 179.03 135.01 C 178.63 135.92 179.04 136.99 179.96 137.40 Z M 181.00 137.84 L 181.92 138.16 C 182.86 138.49 183.89 138.00 184.21 137.06 C 184.54 136.12 184.05 135.09 183.11 134.76 L 182.19 134.44 C 181.26 134.11 180.23 134.61 179.90 135.55 C 179.57 136.49 180.06 137.51 181.00 137.84 Z M 182.07 138.20 L 183.03 138.45 C 183.99 138.69 184.97 138.12 185.21 137.16 C 185.46 136.20 184.88 135.23 183.93 134.98 L 182.96 134.73 C 182.00 134.48 181.03 135.06 180.78 136.02 C 180.53 136.97 181.11 137.95 182.07 138.20 Z M 183.17 138.46 L 184.15 138.63 C 185.12 138.80 186.04 138.16 186.21 137.19 C 186.38 136.22 185.73 135.30 184.76 135.13 L 183.78 134.96 C 182.82 134.79 181.90 135.44 181.73 136.41 C 181.56 137.37 182.21 138.29 183.17 138.46 Z M 184.27 138.64 L 185.26 138.75 C 186.22 138.85 187.10 138.15 187.20 137.18 C 187.31 136.22 186.61 135.35 185.64 135.24 L 184.65 135.13 C 183.68 135.02 182.81 135.72 182.71 136.69 C 182.60 137.66 183.30 138.53 184.27 138.64 Z M 185.34 138.74 L 186.33 138.80 C 187.30 138.86 188.13 138.13 188.19 137.17 C 188.25 136.20 187.52 135.37 186.56 135.31 L 185.56 135.25 C 184.60 135.19 183.77 135.92 183.70 136.88 C 183.64 137.84 184.37 138.68 185.34 138.74 Z M 186.40 138.78 L 187.39 138.81 C 188.34 138.84 189.14 138.09 189.16 137.13 C 189.19 136.18 188.44 135.38 187.48 135.35 L 186.49 135.33 C 185.54 135.30 184.74 136.05 184.72 137.01 C 184.69 137.96 185.44 138.76 186.40 138.78 Z M 187.46 138.79 L 188.46 138.77 C 189.40 138.76 190.16 137.98 190.14 137.04 C 190.13 136.10 189.35 135.34 188.41 135.36 L 187.41 135.38 C 186.46 135.39 185.71 136.17 185.73 137.11 C 185.74 138.05 186.52 138.81 187.46 138.79 Z M 188.55 138.75 L 189.56 138.68 C 190.49 138.61 191.19 137.81 191.12 136.88 C 191.06 135.95 190.25 135.25 189.32 135.31 L 188.32 135.38 C 187.39 135.45 186.69 136.25 186.75 137.18 C 186.82 138.11 187.62 138.81 188.55 138.75 Z M 189.66 138.65 L 190.65 138.52 C 191.56 138.40 192.21 137.56 192.09 136.65 C 191.97 135.74 191.13 135.09 190.21 135.21 L 189.22 135.34 C 188.31 135.46 187.67 136.30 187.79 137.21 C 187.91 138.13 188.75 138.77 189.66 138.65 Z M 190.74 138.50 L 191.71 138.31 C 192.62 138.15 193.21 137.28 193.04 136.38 C 192.87 135.48 192.01 134.89 191.11 135.05 L 190.13 135.24 C 189.23 135.40 188.63 136.27 188.80 137.17 C 188.97 138.07 189.84 138.67 190.74 138.50 Z M 191.77 138.29 L 192.75 138.07 C 193.64 137.87 194.20 136.99 194.00 136.10 C 193.80 135.21 192.92 134.65 192.03 134.85 L 191.05 135.07 C 190.16 135.27 189.60 136.16 189.80 137.05 C 190.00 137.94 190.88 138.49 191.77 138.29 Z M 192.78 138.06 L 193.76 137.82 C 194.64 137.60 195.18 136.71 194.96 135.83 C 194.75 134.95 193.86 134.41 192.98 134.63 L 192.00 134.87 C 191.12 135.09 190.58 135.97 190.79 136.86 C 191.01 137.74 191.90 138.28 192.78 138.06 Z M 193.76 137.81 L 193.94 137.77 C 194.82 137.55 195.36 136.66 195.14 135.78 C 194.92 134.90 194.03 134.37 193.15 134.59 L 192.97 134.64 C 192.09 134.86 191.56 135.74 191.78 136.62 C 192.00 137.50 192.89 138.03 193.76 137.81 Z"
      fill="black"
      fill-rule="nonzero" /><path d="M 166.54 160.32 L 166.29 161.46 C 166.07 162.46 166.70 163.45 167.70 163.67 C 168.70 163.89 169.69 163.26 169.91 162.26 L 170.16 161.12 C 170.38 160.12 169.75 159.13 168.75 158.91 C 167.75 158.69 166.76 159.32 166.54 160.32 Z M 166.23 161.70 L 166.14 162.69 C 166.06 163.73 166.82 164.63 167.85 164.72 C 168.88 164.81 169.79 164.05 169.88 163.02 L 169.97 162.02 C 170.06 160.99 169.29 160.08 168.26 159.99 C 167.23 159.90 166.32 160.67 166.23 161.70 Z M 166.22 163.47 L 166.47 164.18 C 166.81 165.17 167.88 165.70 168.87 165.36 C 169.86 165.02 170.39 163.94 170.05 162.95 L 169.80 162.24 C 169.46 161.25 168.38 160.72 167.40 161.06 C 166.41 161.40 165.88 162.48 166.22 163.47 Z M 167.40 165.27 L 168.08 165.61 C 169.02 166.08 170.17 165.70 170.64 164.76 C 171.11 163.82 170.73 162.67 169.79 162.20 L 169.11 161.86 C 168.17 161.39 167.03 161.77 166.55 162.71 C 166.08 163.65 166.46 164.80 167.40 165.27 Z M 168.88 165.81 L 169.93 165.84 C 170.98 165.87 171.86 165.04 171.89 163.99 C 171.92 162.93 171.09 162.06 170.03 162.03 L 168.99 162.00 C 167.94 161.97 167.06 162.80 167.03 163.85 C 167.00 164.91 167.83 165.78 168.88 165.81 Z M 170.25 165.82 L 171.36 165.67 C 172.41 165.52 173.13 164.55 172.98 163.51 C 172.84 162.46 171.87 161.74 170.83 161.89 L 169.71 162.05 C 168.67 162.19 167.94 163.16 168.09 164.20 C 168.24 165.25 169.21 165.97 170.25 165.82 Z M 171.49 165.64 L 172.27 165.48 C 173.30 165.26 173.96 164.25 173.74 163.22 C 173.53 162.19 172.51 161.53 171.48 161.74 L 170.70 161.91 C 169.67 162.13 169.01 163.14 169.23 164.17 C 169.44 165.20 170.46 165.86 171.49 165.64 Z M 172.34 165.46 L 173.20 165.25 C 174.22 164.99 174.85 163.96 174.59 162.94 C 174.34 161.91 173.30 161.29 172.28 161.55 L 171.42 161.76 C 170.39 162.02 169.77 163.05 170.03 164.07 C 170.28 165.10 171.32 165.72 172.34 165.46 Z M 173.25 165.23 L 174.21 164.97 C 175.23 164.68 175.82 163.63 175.54 162.62 C 175.26 161.61 174.21 161.01 173.19 161.29 L 172.23 161.56 C 171.22 161.84 170.62 162.89 170.90 163.91 C 171.18 164.92 172.24 165.51 173.25 165.23 Z M 174.25 164.96 L 175.33 164.63 C 176.33 164.34 176.91 163.27 176.61 162.27 C 176.31 161.26 175.25 160.68 174.24 160.98 L 173.16 161.30 C 172.15 161.60 171.58 162.66 171.88 163.67 C 172.18 164.68 173.24 165.26 174.25 164.96 Z M 175.35 164.63 L 176.55 164.25 C 177.55 163.94 178.11 162.88 177.80 161.87 C 177.49 160.87 176.43 160.31 175.42 160.62 L 174.22 160.99 C 173.22 161.30 172.65 162.37 172.96 163.37 C 173.28 164.38 174.34 164.94 175.35 164.63 Z M 176.56 164.25 L 177.48 163.96 C 178.48 163.64 179.04 162.57 178.72 161.57 C 178.40 160.57 177.34 160.01 176.34 160.33 L 175.41 160.62 C 174.41 160.94 173.86 162.01 174.17 163.01 C 174.49 164.01 175.56 164.57 176.56 164.25 Z M 177.49 163.95 L 178.46 163.64 C 179.46 163.32 180.01 162.25 179.69 161.25 C 179.37 160.25 178.30 159.71 177.30 160.02 L 176.33 160.34 C 175.33 160.66 174.78 161.72 175.10 162.72 C 175.42 163.72 176.49 164.27 177.49 163.95 Z M 178.47 163.63 L 179.47 163.31 C 180.46 162.99 181.01 161.92 180.69 160.92 C 180.36 159.93 179.30 159.38 178.30 159.71 L 177.30 160.03 C 176.30 160.35 175.76 161.42 176.08 162.42 C 176.40 163.41 177.47 163.96 178.47 163.63 Z M 179.47 163.30 L 180.48 162.98 C 181.47 162.65 182.01 161.58 181.69 160.59 C 181.36 159.60 180.30 159.06 179.30 159.38 L 178.30 159.71 C 177.31 160.04 176.76 161.10 177.09 162.09 C 177.41 163.09 178.48 163.63 179.47 163.30 Z M 180.48 162.97 L 181.47 162.64 C 182.46 162.32 183.00 161.25 182.67 160.26 C 182.35 159.27 181.28 158.73 180.29 159.06 L 179.30 159.39 C 178.31 159.71 177.77 160.78 178.10 161.77 C 178.43 162.76 179.49 163.30 180.48 162.97 Z M 181.47 162.64 L 182.42 162.32 C 183.41 162.00 183.94 160.93 183.61 159.94 C 183.29 158.96 182.22 158.42 181.23 158.75 L 180.29 159.07 C 179.30 159.39 178.76 160.46 179.09 161.45 C 179.42 162.43 180.49 162.97 181.47 162.64 Z M 182.43 162.32 L 183.31 162.02 C 184.30 161.69 184.83 160.62 184.49 159.64 C 184.16 158.66 183.10 158.13 182.11 158.46 L 181.23 158.76 C 180.24 159.09 179.72 160.15 180.05 161.14 C 180.38 162.12 181.44 162.65 182.43 162.32 Z M 183.32 162.01 L 184.35 161.66 C 185.33 161.33 185.85 160.26 185.52 159.28 C 185.19 158.30 184.12 157.78 183.14 158.11 L 182.11 158.47 C 181.13 158.80 180.61 159.86 180.94 160.84 C 181.27 161.82 182.34 162.35 183.32 162.01 Z M 184.36 161.64 L 185.49 161.25 C 186.46 160.91 186.97 159.85 186.64 158.88 C 186.30 157.91 185.24 157.40 184.27 157.73 L 183.13 158.13 C 182.16 158.47 181.65 159.53 181.99 160.50 C 182.33 161.47 183.39 161.98 184.36 161.64 Z M 185.50 161.23 L 186.43 160.90 C 187.39 160.56 187.89 159.50 187.55 158.54 C 187.21 157.58 186.15 157.08 185.19 157.42 L 184.26 157.75 C 183.30 158.10 182.80 159.15 183.14 160.11 C 183.48 161.07 184.54 161.57 185.50 161.23 Z M 186.43 160.88 L 187.23 160.59 C 188.18 160.25 188.68 159.20 188.33 158.25 C 187.99 157.30 186.94 156.81 185.99 157.15 L 185.19 157.44 C 184.24 157.78 183.75 158.83 184.09 159.78 C 184.43 160.73 185.48 161.22 186.43 160.88 Z M 187.22 160.58 L 187.97 160.31 C 188.91 159.98 189.40 158.94 189.07 158.00 C 188.73 157.05 187.69 156.56 186.75 156.90 L 186.00 157.16 C 185.06 157.50 184.57 158.54 184.90 159.48 C 185.24 160.43 186.28 160.92 187.22 160.58 Z M 187.95 160.31 L 188.89 159.98 C 189.83 159.65 190.33 158.62 190.00 157.69 C 189.67 156.75 188.64 156.25 187.70 156.58 L 186.76 156.91 C 185.83 157.23 185.33 158.26 185.66 159.20 C 185.98 160.14 187.01 160.63 187.95 160.31 Z M 188.88 159.97 L 189.82 159.65 C 190.76 159.33 191.26 158.31 190.94 157.37 C 190.62 156.44 189.60 155.94 188.66 156.26 L 187.72 156.58 C 186.78 156.90 186.28 157.92 186.60 158.86 C 186.92 159.80 187.94 160.30 188.88 159.97 Z M 189.82 159.64 L 190.77 159.32 C 191.70 159.00 192.20 157.98 191.88 157.05 C 191.56 156.12 190.54 155.62 189.61 155.94 L 188.66 156.27 C 187.73 156.59 187.23 157.60 187.55 158.53 C 187.87 159.47 188.89 159.96 189.82 159.64 Z M 190.77 159.31 L 191.61 159.01 C 192.54 158.69 193.03 157.68 192.71 156.75 C 192.38 155.83 191.37 155.34 190.44 155.66 L 189.61 155.95 C 188.68 156.27 188.19 157.29 188.51 158.21 C 188.84 159.14 189.85 159.63 190.77 159.31 Z M 191.62 159.00 L 192.44 158.71 C 193.36 158.38 193.84 157.37 193.51 156.45 C 193.18 155.53 192.17 155.05 191.25 155.38 L 190.43 155.67 C 189.52 156.00 189.04 157.01 189.36 157.93 C 189.69 158.85 190.70 159.33 191.62 159.00 Z M 192.45 158.70 L 193.36 158.36 C 194.27 158.03 194.74 157.02 194.40 156.11 C 194.07 155.20 193.06 154.73 192.15 155.06 L 191.24 155.40 C 190.33 155.73 189.86 156.74 190.19 157.65 C 190.53 158.56 191.54 159.03 192.45 158.70 Z M 193.37 158.35 L 194.42 157.95 C 195.33 157.61 195.78 156.60 195.44 155.70 C 195.10 154.79 194.09 154.34 193.18 154.68 L 192.13 155.08 C 191.23 155.42 190.77 156.43 191.12 157.33 C 191.46 158.23 192.47 158.69 193.37 158.35 Z M 194.43 157.94 L 195.47 157.54 C 196.37 157.19 196.81 156.18 196.47 155.29 C 196.12 154.39 195.11 153.94 194.21 154.29 L 193.18 154.69 C 192.28 155.04 191.83 156.05 192.18 156.94 C 192.53 157.84 193.53 158.29 194.43 157.94 Z M 195.47 157.53 L 196.37 157.18 C 197.26 156.83 197.70 155.83 197.35 154.93 C 197.00 154.04 195.99 153.60 195.10 153.95 L 194.21 154.30 C 193.32 154.65 192.88 155.65 193.23 156.55 C 193.58 157.44 194.58 157.88 195.47 157.53 Z M 196.37 157.18 L 197.31 156.80 C 198.20 156.45 198.64 155.45 198.29 154.56 C 197.94 153.67 196.94 153.23 196.05 153.58 L 195.10 153.95 C 194.21 154.30 193.77 155.31 194.12 156.20 C 194.47 157.09 195.48 157.53 196.37 157.18 Z M 197.31 156.80 L 198.29 156.42 C 199.17 156.07 199.61 155.06 199.26 154.18 C 198.91 153.29 197.91 152.85 197.02 153.20 L 196.05 153.59 C 195.16 153.94 194.72 154.94 195.07 155.83 C 195.42 156.71 196.42 157.15 197.31 156.80 Z M 198.28 156.41 L 199.26 156.03 C 200.14 155.68 200.58 154.68 200.23 153.80 C 199.89 152.91 198.89 152.48 198.00 152.82 L 197.03 153.21 C 196.14 153.55 195.70 154.55 196.05 155.44 C 196.40 156.32 197.40 156.76 198.28 156.41 Z M 199.25 156.03 L 200.20 155.66 C 201.09 155.31 201.52 154.32 201.18 153.43 C 200.84 152.55 199.84 152.11 198.96 152.46 L 198.01 152.83 C 197.12 153.17 196.69 154.17 197.03 155.05 C 197.37 155.93 198.37 156.37 199.25 156.03 Z M 200.20 155.66 L 201.09 155.31 C 201.98 154.97 202.42 153.98 202.08 153.10 C 201.74 152.21 200.75 151.77 199.86 152.11 L 198.97 152.46 C 198.08 152.80 197.64 153.79 197.98 154.67 C 198.32 155.55 199.31 155.99 200.20 155.66 Z M 201.08 155.31 L 202.15 154.90 C 203.03 154.57 203.48 153.59 203.15 152.71 C 202.82 151.83 201.84 151.38 200.95 151.71 L 199.88 152.12 C 199.00 152.45 198.55 153.43 198.88 154.31 C 199.21 155.19 200.20 155.64 201.08 155.31 Z M 202.12 154.90 L 203.11 154.55 C 203.99 154.23 204.44 153.26 204.13 152.38 C 203.81 151.50 202.84 151.05 201.97 151.36 L 200.98 151.72 C 200.10 152.03 199.65 153.00 199.96 153.88 C 200.28 154.76 201.25 155.21 202.12 154.90 Z M 203.07 154.55 L 203.98 154.24 C 204.86 153.95 205.33 152.99 205.04 152.12 C 204.74 151.24 203.79 150.76 202.91 151.06 L 202.00 151.36 C 201.12 151.66 200.65 152.61 200.95 153.49 C 201.24 154.37 202.19 154.84 203.07 154.55 Z M 203.93 154.24 L 204.81 153.97 C 205.69 153.70 206.19 152.77 205.92 151.89 C 205.65 151.01 204.72 150.52 203.84 150.79 L 202.96 151.06 C 202.08 151.33 201.59 152.26 201.86 153.14 C 202.12 154.01 203.05 154.51 203.93 154.24 Z M 204.76 153.97 L 205.65 153.73 C 206.53 153.49 207.04 152.58 206.80 151.70 C 206.56 150.82 205.65 150.30 204.77 150.55 L 203.89 150.79 C 203.01 151.03 202.49 151.94 202.73 152.82 C 202.97 153.70 203.88 154.22 204.76 153.97 Z M 205.60 153.74 L 206.53 153.51 C 207.42 153.29 207.96 152.40 207.74 151.52 C 207.53 150.64 206.64 150.10 205.75 150.31 L 204.82 150.54 C 203.94 150.76 203.40 151.65 203.61 152.53 C 203.83 153.41 204.72 153.95 205.60 153.74 Z M 206.50 153.51 L 207.47 153.30 C 208.35 153.10 208.91 152.22 208.72 151.34 C 208.52 150.45 207.64 149.89 206.75 150.09 L 205.79 150.31 C 204.90 150.50 204.34 151.38 204.54 152.27 C 204.74 153.15 205.61 153.71 206.50 153.51 Z M 207.44 153.30 L 208.43 153.10 C 209.32 152.91 209.89 152.04 209.71 151.16 C 209.52 150.27 208.66 149.70 207.77 149.88 L 206.78 150.09 C 205.89 150.27 205.32 151.14 205.50 152.03 C 205.69 152.92 206.56 153.49 207.44 153.30 Z M 208.42 153.10 L 209.42 152.90 C 210.31 152.72 210.89 151.86 210.71 150.97 C 210.54 150.08 209.68 149.51 208.79 149.68 L 207.78 149.88 C 206.89 150.06 206.32 150.92 206.49 151.81 C 206.67 152.70 207.53 153.27 208.42 153.10 Z M 209.42 152.90 L 210.04 152.78 C 210.93 152.60 211.51 151.74 211.33 150.86 C 211.16 149.97 210.30 149.39 209.41 149.56 L 208.79 149.68 C 207.90 149.86 207.32 150.72 207.50 151.60 C 207.67 152.49 208.53 153.07 209.42 152.90 Z"
      fill="black"
      fill-rule="nonzero" /><path d="M 190.72 141.45 L 189.70 141.62 C 188.72 141.79 188.07 142.72 188.24 143.69 C 188.40 144.67 189.33 145.32 190.30 145.15 L 191.33 144.98 C 192.31 144.81 192.96 143.88 192.79 142.91 C 192.62 141.93 191.70 141.28 190.72 141.45 Z M 189.49 141.64 L 188.54 141.92 C 187.57 142.20 187.02 143.21 187.30 144.17 C 187.58 145.14 188.59 145.69 189.55 145.41 L 190.51 145.13 C 191.47 144.85 192.03 143.85 191.75 142.88 C 191.47 141.91 190.46 141.36 189.49 141.64 Z M 188.11 142.07 L 187.29 142.55 C 186.41 143.07 186.11 144.20 186.63 145.08 C 187.14 145.96 188.28 146.26 189.16 145.74 L 189.98 145.26 C 190.86 144.74 191.15 143.61 190.64 142.73 C 190.12 141.85 188.99 141.55 188.11 142.07 Z M 186.79 142.94 L 186.26 143.58 C 185.59 144.36 185.69 145.54 186.48 146.21 C 187.27 146.88 188.45 146.78 189.11 145.99 L 189.65 145.35 C 190.32 144.56 190.22 143.38 189.43 142.72 C 188.64 142.05 187.46 142.15 186.79 142.94 Z M 185.98 143.99 L 185.61 144.78 C 185.18 145.72 185.59 146.84 186.53 147.27 C 187.47 147.71 188.59 147.30 189.03 146.36 L 189.39 145.57 C 189.83 144.63 189.42 143.51 188.47 143.07 C 187.53 142.64 186.41 143.05 185.98 143.99 Z M 185.50 145.08 L 185.24 146.04 C 184.97 147.05 185.57 148.08 186.58 148.35 C 187.59 148.62 188.62 148.02 188.89 147.01 L 189.15 146.05 C 189.42 145.05 188.82 144.01 187.81 143.74 C 186.80 143.47 185.77 144.07 185.50 145.08 Z M 185.19 146.24 L 185.02 147.36 C 184.86 148.40 185.58 149.37 186.61 149.52 C 187.65 149.68 188.62 148.97 188.77 147.93 L 188.94 146.81 C 189.10 145.77 188.38 144.81 187.35 144.65 C 186.31 144.49 185.34 145.21 185.19 146.24 Z M 185.00 147.49 L 184.91 148.63 C 184.82 149.67 185.60 150.59 186.65 150.68 C 187.70 150.76 188.62 149.98 188.70 148.94 L 188.79 147.80 C 188.88 146.75 188.10 145.83 187.05 145.75 C 186.00 145.66 185.08 146.44 185.00 147.49 Z M 184.90 148.70 L 184.86 149.71 C 184.81 150.76 185.63 151.65 186.68 151.69 C 187.74 151.74 188.62 150.92 188.67 149.87 L 188.71 148.86 C 188.75 147.81 187.93 146.92 186.88 146.88 C 185.83 146.83 184.94 147.65 184.90 148.70 Z M 184.86 149.76 L 184.84 150.80 C 184.83 151.86 185.67 152.72 186.73 152.73 C 187.78 152.75 188.64 151.90 188.66 150.85 L 188.67 149.81 C 188.68 148.76 187.84 147.89 186.79 147.88 C 185.73 147.87 184.87 148.71 184.86 149.76 Z M 184.84 150.85 L 184.86 151.89 C 184.87 152.95 185.74 153.79 186.79 153.77 C 187.84 153.76 188.68 152.89 188.67 151.84 L 188.66 150.80 C 188.64 149.75 187.78 148.91 186.72 148.92 C 185.67 148.93 184.83 149.80 184.84 150.85 Z M 184.86 151.94 L 184.90 152.95 C 184.94 154.00 185.82 154.82 186.88 154.78 C 187.93 154.74 188.75 153.86 188.71 152.80 L 188.67 151.79 C 188.63 150.74 187.74 149.92 186.69 149.96 C 185.64 150.00 184.82 150.89 184.86 151.94 Z M 184.90 153.00 L 184.96 153.95 C 185.03 155.00 185.94 155.80 186.99 155.73 C 188.04 155.66 188.84 154.76 188.77 153.71 L 188.71 152.75 C 188.64 151.70 187.73 150.91 186.68 150.98 C 185.63 151.04 184.83 151.95 184.90 153.00 Z M 184.97 154.02 L 185.07 155.09 C 185.18 156.13 186.11 156.90 187.16 156.79 C 188.21 156.69 188.97 155.76 188.87 154.71 L 188.76 153.64 C 188.66 152.59 187.72 151.83 186.68 151.93 C 185.63 152.04 184.86 152.97 184.97 154.02 Z M 185.09 155.17 L 185.24 156.22 C 185.39 157.26 186.36 157.98 187.40 157.83 C 188.44 157.68 189.16 156.71 189.01 155.67 L 188.86 154.62 C 188.70 153.58 187.74 152.86 186.70 153.01 C 185.66 153.16 184.93 154.13 185.09 155.17 Z M 185.25 156.30 L 185.43 157.24 C 185.62 158.27 186.62 158.95 187.65 158.75 C 188.68 158.56 189.36 157.57 189.17 156.53 L 188.99 155.59 C 188.80 154.56 187.80 153.88 186.77 154.08 C 185.74 154.27 185.06 155.27 185.25 156.30 Z M 185.44 157.28 L 185.63 158.17 C 185.85 159.20 186.86 159.85 187.89 159.63 C 188.92 159.41 189.57 158.40 189.35 157.38 L 189.16 156.49 C 188.94 155.46 187.93 154.81 186.90 155.03 C 185.87 155.25 185.22 156.26 185.44 157.28 Z M 185.63 158.18 L 185.83 159.09 C 186.06 160.11 187.07 160.76 188.09 160.54 C 189.12 160.32 189.77 159.31 189.54 158.28 L 189.35 157.37 C 189.12 156.35 188.11 155.70 187.09 155.92 C 186.06 156.14 185.41 157.15 185.63 158.18 Z M 185.83 159.08 L 186.03 160.03 C 186.25 161.06 187.26 161.71 188.28 161.50 C 189.31 161.28 189.96 160.28 189.75 159.25 L 189.55 158.29 C 189.33 157.27 188.32 156.61 187.30 156.83 C 186.27 157.04 185.62 158.05 185.83 159.08 Z M 186.03 160.03 L 186.24 161.01 C 186.45 162.04 187.45 162.70 188.48 162.48 C 189.51 162.27 190.16 161.27 189.95 160.24 L 189.75 159.26 C 189.53 158.23 188.53 157.57 187.50 157.79 C 186.48 158.00 185.82 159.00 186.03 160.03 Z M 186.24 161.01 L 186.45 162.02 C 186.66 163.04 187.67 163.70 188.69 163.49 C 189.72 163.27 190.37 162.27 190.16 161.25 L 189.95 160.24 C 189.73 159.22 188.73 158.56 187.71 158.77 C 186.68 158.99 186.03 159.99 186.24 161.01 Z M 186.45 162.03 L 186.66 163.01 C 186.88 164.03 187.89 164.68 188.91 164.47 C 189.93 164.25 190.58 163.24 190.36 162.22 L 190.15 161.24 C 189.94 160.22 188.93 159.56 187.91 159.78 C 186.89 160.00 186.24 161.01 186.45 162.03 Z M 186.67 163.02 L 186.88 163.98 C 187.10 165.00 188.11 165.65 189.13 165.43 C 190.15 165.20 190.79 164.20 190.57 163.18 L 190.36 162.21 C 190.14 161.19 189.13 160.55 188.11 160.77 C 187.09 160.99 186.45 162.00 186.67 163.02 Z M 186.88 163.99 L 187.10 164.96 C 187.32 165.98 188.33 166.62 189.35 166.40 C 190.36 166.17 191.01 165.17 190.78 164.15 L 190.57 163.17 C 190.34 162.16 189.34 161.51 188.32 161.74 C 187.30 161.96 186.66 162.97 186.88 163.99 Z M 187.10 164.96 L 187.32 165.95 C 187.54 166.97 188.55 167.61 189.56 167.38 C 190.58 167.16 191.22 166.15 191.00 165.14 L 190.78 164.15 C 190.56 163.13 189.55 162.49 188.53 162.72 C 187.52 162.94 186.87 163.95 187.10 164.96 Z M 187.32 165.95 L 187.54 166.93 C 187.76 167.95 188.76 168.59 189.78 168.37 C 190.79 168.14 191.44 167.14 191.21 166.13 L 191.00 165.14 C 190.77 164.12 189.77 163.48 188.76 163.70 C 187.74 163.93 187.10 164.93 187.32 165.95 Z M 187.54 166.93 L 187.75 167.89 C 187.97 168.91 188.97 169.55 189.98 169.33 C 191.00 169.11 191.64 168.11 191.42 167.10 L 191.21 166.13 C 190.99 165.12 189.99 164.47 188.98 164.69 C 187.96 164.91 187.32 165.91 187.54 166.93 Z M 187.75 167.89 L 187.96 168.87 C 188.17 169.88 189.17 170.53 190.19 170.31 C 191.20 170.09 191.85 169.09 191.63 168.08 L 191.42 167.10 C 191.20 166.09 190.20 165.44 189.19 165.66 C 188.18 165.88 187.53 166.88 187.75 167.89 Z M 187.96 168.86 L 188.17 169.85 C 188.38 170.86 189.38 171.51 190.39 171.29 C 191.41 171.08 192.05 170.08 191.84 169.07 L 191.63 168.08 C 191.41 167.07 190.42 166.42 189.40 166.64 C 188.39 166.86 187.74 167.85 187.96 168.86 Z M 188.17 169.85 L 188.38 170.83 C 188.59 171.84 189.59 172.49 190.60 172.28 C 191.61 172.06 192.26 171.07 192.04 170.06 L 191.83 169.07 C 191.62 168.06 190.63 167.41 189.61 167.63 C 188.60 167.84 187.96 168.83 188.17 169.85 Z M 188.38 170.83 L 188.59 171.81 C 188.80 172.82 189.80 173.47 190.81 173.25 C 191.82 173.04 192.46 172.05 192.25 171.04 L 192.04 170.06 C 191.83 169.05 190.83 168.40 189.82 168.62 C 188.81 168.83 188.17 169.82 188.38 170.83 Z M 188.59 171.81 L 188.80 172.79 C 189.01 173.80 190.00 174.44 191.01 174.23 C 192.02 174.02 192.66 173.03 192.45 172.02 L 192.25 171.04 C 192.03 170.03 191.04 169.39 190.03 169.60 C 189.03 169.81 188.38 170.80 188.59 171.81 Z M 188.80 172.78 L 189.00 173.76 C 189.21 174.77 190.20 175.42 191.21 175.21 C 192.21 175.00 192.86 174.01 192.65 173.00 L 192.45 172.02 C 192.24 171.02 191.25 170.37 190.25 170.58 C 189.24 170.79 188.59 171.78 188.80 172.78 Z M 189.01 173.75 L 189.21 174.73 C 189.41 175.74 190.39 176.39 191.40 176.18 C 192.40 175.98 193.05 175.00 192.85 173.99 L 192.65 173.01 C 192.45 172.01 191.46 171.36 190.46 171.56 C 189.45 171.77 188.80 172.75 189.01 173.75 Z M 189.21 174.72 L 189.40 175.70 C 189.60 176.71 190.58 177.36 191.58 177.17 C 192.59 176.97 193.24 175.99 193.04 174.99 L 192.85 174.00 C 192.65 173.00 191.67 172.34 190.67 172.54 C 189.66 172.74 189.01 173.72 189.21 174.72 Z M 189.40 175.69 L 189.59 176.68 C 189.78 177.68 190.75 178.34 191.76 178.15 C 192.76 177.96 193.42 176.99 193.23 175.98 L 193.04 175.00 C 192.85 173.99 191.88 173.33 190.87 173.53 C 189.87 173.72 189.21 174.69 189.40 175.69 Z M 189.59 176.67 L 189.78 177.66 C 189.97 178.66 190.93 179.32 191.93 179.13 C 192.94 178.95 193.60 177.98 193.41 176.98 L 193.23 175.99 C 193.04 174.99 192.07 174.33 191.07 174.52 C 190.07 174.70 189.41 175.67 189.59 176.67 Z M 189.78 177.65 L 189.96 178.63 C 190.15 179.63 191.11 180.30 192.11 180.11 C 193.11 179.93 193.77 178.96 193.59 177.96 L 193.41 176.98 C 193.22 175.98 192.26 175.32 191.26 175.50 C 190.26 175.69 189.60 176.65 189.78 177.65 Z M 189.97 178.63 L 190.15 179.61 C 190.33 180.61 191.29 181.27 192.29 181.08 C 193.29 180.90 193.95 179.94 193.77 178.94 L 193.59 177.96 C 193.40 176.97 192.44 176.30 191.44 176.49 C 190.44 176.67 189.78 177.63 189.97 178.63 Z M 190.15 179.61 L 190.33 180.58 C 190.52 181.58 191.47 182.24 192.47 182.06 C 193.47 181.87 194.13 180.92 193.94 179.92 L 193.76 178.94 C 193.58 177.94 192.62 177.28 191.62 177.47 C 190.63 177.65 189.97 178.61 190.15 179.61 Z M 190.34 180.58 L 190.51 181.56 C 190.69 182.55 191.65 183.21 192.64 183.03 C 193.63 182.85 194.29 181.90 194.11 180.90 L 193.94 179.93 C 193.76 178.93 192.80 178.27 191.81 178.45 C 190.82 178.63 190.16 179.58 190.34 180.58 Z M 190.52 181.54 L 190.69 182.52 C 190.86 183.52 191.80 184.18 192.80 184.01 C 193.79 183.84 194.46 182.89 194.28 181.90 L 194.11 180.92 C 193.94 179.92 192.99 179.26 192.00 179.43 C 191.01 179.60 190.34 180.55 190.52 181.54 Z M 190.69 182.50 L 190.85 183.50 C 191.01 184.49 191.95 185.16 192.94 185.00 C 193.93 184.84 194.60 183.91 194.44 182.91 L 194.28 181.92 C 194.12 180.93 193.18 180.26 192.19 180.42 C 191.20 180.58 190.53 181.51 190.69 182.50 Z M 190.85 183.47 L 191.00 184.48 C 191.15 185.47 192.07 186.15 193.06 186.01 C 194.05 185.86 194.73 184.94 194.59 183.95 L 194.44 182.94 C 194.29 181.95 193.37 181.27 192.38 181.41 C 191.39 181.56 190.71 182.48 190.85 183.47 Z M 191.00 184.45 L 191.14 185.47 C 191.27 186.46 192.18 187.15 193.17 187.02 C 194.16 186.88 194.85 185.98 194.72 184.99 L 194.59 183.97 C 194.45 182.99 193.54 182.29 192.56 182.42 C 191.57 182.56 190.87 183.46 191.00 184.45 Z M 191.15 185.45 L 191.27 186.45 C 191.39 187.44 192.29 188.14 193.28 188.02 C 194.26 187.90 194.96 187.00 194.84 186.01 L 194.72 185.01 C 194.59 184.02 193.70 183.32 192.71 183.44 C 191.72 183.56 191.02 184.46 191.15 185.45 Z M 191.28 186.44 L 191.39 187.43 C 191.51 188.41 192.40 189.11 193.38 189.00 C 194.36 188.88 195.06 187.99 194.95 187.01 L 194.83 186.03 C 194.72 185.04 193.83 184.34 192.85 184.45 C 191.86 184.57 191.16 185.46 191.28 186.44 Z M 191.40 187.42 L 191.51 188.39 C 191.62 189.37 192.50 190.07 193.48 189.96 C 194.46 189.85 195.16 188.97 195.05 187.99 L 194.94 187.02 C 194.83 186.04 193.95 185.33 192.97 185.44 C 191.99 185.56 191.29 186.44 191.40 187.42 Z M 191.52 188.39 L 191.63 189.44 C 191.74 190.42 192.62 191.12 193.59 191.01 C 194.57 190.90 195.27 190.02 195.16 189.05 L 195.05 187.99 C 194.94 187.02 194.06 186.32 193.08 186.43 C 192.11 186.53 191.41 187.41 191.52 188.39 Z M 191.64 189.43 L 191.74 190.43 C 191.85 191.40 192.72 192.10 193.69 192.00 C 194.66 191.90 195.36 191.03 195.26 190.06 L 195.16 189.06 C 195.05 188.09 194.18 187.39 193.21 187.49 C 192.24 187.59 191.54 188.46 191.64 189.43 Z M 191.75 190.41 L 191.84 191.36 C 191.93 192.33 192.79 193.04 193.76 192.95 C 194.72 192.85 195.43 192.00 195.34 191.03 L 195.25 190.08 C 195.16 189.11 194.31 188.40 193.34 188.49 C 192.37 188.58 191.66 189.44 191.75 190.41 Z M 191.85 191.33 L 191.92 192.25 C 191.99 193.21 192.84 193.93 193.80 193.86 C 194.76 193.78 195.48 192.94 195.41 191.98 L 195.34 191.06 C 195.26 190.09 194.42 189.37 193.46 189.45 C 192.49 189.52 191.77 190.37 191.85 191.33 Z M 191.93 192.22 L 191.98 193.13 C 192.04 194.09 192.87 194.83 193.83 194.77 C 194.79 194.71 195.52 193.88 195.46 192.92 L 195.40 192.01 C 195.34 191.05 194.52 190.32 193.56 190.37 C 192.60 190.43 191.87 191.26 191.93 192.22 Z M 191.99 193.11 L 192.04 194.08 C 192.08 195.04 192.90 195.78 193.85 195.73 C 194.81 195.68 195.55 194.87 195.50 193.91 L 195.45 192.94 C 195.41 191.98 194.59 191.25 193.63 191.29 C 192.68 191.34 191.94 192.16 191.99 193.11 Z M 192.04 194.07 L 192.09 195.16 C 192.13 196.11 192.94 196.85 193.89 196.81 C 194.84 196.76 195.58 195.96 195.54 195.00 L 195.49 193.92 C 195.45 192.97 194.65 192.23 193.69 192.27 C 192.74 192.31 192.00 193.12 192.04 194.07 Z M 192.10 195.15 L 192.14 196.15 C 192.18 197.10 192.98 197.84 193.93 197.79 C 194.88 197.75 195.62 196.95 195.58 196.00 L 195.53 195.01 C 195.49 194.06 194.69 193.32 193.74 193.36 C 192.79 193.40 192.06 194.20 192.10 195.15 Z M 192.15 196.15 L 192.19 197.09 C 192.23 198.04 193.03 198.77 193.97 198.73 C 194.92 198.69 195.65 197.89 195.61 196.95 L 195.57 196.00 C 195.53 195.06 194.73 194.33 193.79 194.37 C 192.84 194.41 192.11 195.20 192.15 196.15 Z M 192.19 197.09 L 192.23 198.09 C 192.27 199.03 193.07 199.76 194.01 199.73 C 194.95 199.69 195.68 198.89 195.64 197.95 L 195.60 196.95 C 195.56 196.01 194.77 195.28 193.83 195.32 C 192.89 195.35 192.16 196.15 192.19 197.09 Z M 192.24 198.08 L 192.28 199.12 C 192.31 200.06 193.10 200.79 194.04 200.76 C 194.98 200.72 195.71 199.93 195.68 198.99 L 195.64 197.96 C 195.60 197.02 194.81 196.29 193.88 196.32 C 192.94 196.36 192.21 197.15 192.24 198.08 Z M 192.29 199.11 L 192.32 200.16 C 192.35 201.10 193.13 201.83 194.07 201.80 C 195.00 201.77 195.73 200.99 195.70 200.05 L 195.67 199.00 C 195.64 198.07 194.86 197.34 193.92 197.37 C 192.99 197.40 192.26 198.18 192.29 199.11 Z M 192.33 200.15 L 192.35 201.21 C 192.38 202.14 193.15 202.88 194.08 202.85 C 195.01 202.83 195.75 202.06 195.72 201.12 L 195.70 200.07 C 195.67 199.13 194.90 198.40 193.97 198.42 C 193.04 198.45 192.30 199.22 192.33 200.15 Z M 192.36 201.20 L 192.38 202.29 C 192.40 203.21 193.16 203.95 194.09 203.93 C 195.02 203.92 195.75 203.15 195.74 202.23 L 195.72 201.14 C 195.70 200.21 194.94 199.47 194.01 199.49 C 193.08 199.51 192.34 200.27 192.36 201.20 Z M 192.39 202.27 L 192.40 203.32 C 192.41 204.25 193.17 204.99 194.09 204.98 C 195.01 204.97 195.75 204.21 195.74 203.29 L 195.73 202.24 C 195.72 201.31 194.96 200.57 194.04 200.58 C 193.12 200.59 192.38 201.35 192.39 202.27 Z M 192.41 203.31 L 192.41 204.32 C 192.42 205.23 193.17 205.97 194.09 205.97 C 195.00 205.96 195.74 205.22 195.74 204.30 L 195.73 203.30 C 195.73 202.38 194.98 201.64 194.06 201.64 C 193.14 201.65 192.40 202.40 192.41 203.31 Z M 192.42 204.31 L 192.42 205.25 C 192.43 206.17 193.17 206.91 194.08 206.90 C 194.99 206.90 195.73 206.16 195.73 205.25 L 195.73 204.30 C 195.73 203.39 194.99 202.65 194.07 202.65 C 193.16 202.65 192.42 203.40 192.42 204.31 Z M 192.43 205.25 L 192.43 206.17 C 192.43 207.08 193.17 207.81 194.08 207.81 C 194.99 207.81 195.72 207.07 195.72 206.17 L 195.72 205.25 C 195.72 204.34 194.99 203.60 194.08 203.60 C 193.17 203.60 192.43 204.34 192.43 205.25 Z M 192.44 206.17 L 192.44 207.26 C 192.44 208.17 193.17 208.91 194.08 208.91 C 194.98 208.91 195.72 208.17 195.72 207.26 L 195.72 206.17 C 195.72 205.26 194.98 204.52 194.08 204.52 C 193.17 204.52 192.44 205.26 192.44 206.17 Z M 192.44 207.26 L 192.44 208.26 C 192.44 209.17 193.17 209.90 194.08 209.90 C 194.98 209.90 195.72 209.17 195.72 208.26 L 195.72 207.26 C 195.72 206.36 194.98 205.62 194.08 205.62 C 193.17 205.62 192.44 206.36 192.44 207.26 Z M 192.44 208.26 L 192.44 209.19 C 192.44 210.10 193.17 210.83 194.08 210.83 C 194.98 210.83 195.72 210.10 195.72 209.19 L 195.72 208.26 C 195.72 207.36 194.98 206.62 194.08 206.62 C 193.17 206.62 192.44 207.36 192.44 208.26 Z M 192.44 209.19 L 192.44 209.67 C 192.44 210.58 193.17 211.31 194.08 211.31 C 194.98 211.31 195.71 210.58 195.71 209.67 L 195.71 209.19 C 195.71 208.29 194.98 207.56 194.08 207.56 C 193.17 207.56 192.44 208.29 192.44 209.19 Z"
      fill="black"
      fill-rule="nonzero" /></svg>