<svg xmlns="http://www.w3.org/2000/svg" width="300" height="300" viewBox="0 0 300 300">
<path d="M 115.47 127.14 L 115.53 128.22 C 115.60 129.23 116.46 129.99 117.47 129.93 C 118.48 129.87 119.24 129.00 119.18 128.00 L 119.11 126.91 C 119.05 125.91 118.19 125.14 117.18 125.20 C 116.17 125.26 115.41 126.13 115.47 127.14 Z M 115.55 128.50 L 115.76 129.47 C 115.98 130.46 116.96 131.10 117.95 130.88 C 118.95 130.67 119.58 129.69 119.37 128.69 L 119.16 127.72 C 118.95 126.72 117.97 126.09 116.97 126.30 C 115.97 126.52 115.34 127.50 115.55 128.50 Z M 116.01 130.11 L 116.50 130.85 C 117.07 131.71 118.23 131.95 119.09 131.38 C 119.95 130.81 120.18 129.65 119.61 128.80 L 119.12 128.05 C 118.55 127.19 117.40 126.95 116.54 127.52 C 115.68 128.09 115.44 129.25 116.01 130.11 Z M 117.18 131.48 L 117.90 131.86 C 118.81 132.35 119.95 132.00 120.43 131.09 C 120.92 130.17 120.57 129.04 119.66 128.55 L 118.94 128.17 C 118.02 127.68 116.89 128.03 116.40 128.94 C 115.92 129.86 116.26 130.99 117.18 131.48 Z M 118.42 132.05 L 119.35 132.23 C 120.37 132.43 121.35 131.76 121.55 130.74 C 121.75 129.73 121.08 128.74 120.06 128.54 L 119.14 128.36 C 118.12 128.17 117.13 128.83 116.94 129.85 C 116.74 130.87 117.40 131.85 118.42 132.05 Z M 119.63 132.26 L 120.70 132.30 C 121.74 132.35 122.61 131.54 122.65 130.50 C 122.69 129.47 121.89 128.59 120.85 128.55 L 119.78 128.51 C 118.74 128.47 117.87 129.28 117.83 130.31 C 117.79 131.35 118.60 132.22 119.63 132.26 Z M 120.85 132.30 L 121.98 132.26 C 123.02 132.22 123.82 131.35 123.78 130.31 C 123.74 129.28 122.87 128.47 121.84 128.51 L 120.71 128.55 C 119.67 128.59 118.86 129.46 118.90 130.50 C 118.94 131.54 119.81 132.34 120.85 132.30 Z M 122.05 132.25 L 123.03 132.17 C 124.06 132.09 124.83 131.20 124.75 130.17 C 124.68 129.14 123.78 128.37 122.75 128.45 L 121.77 128.53 C 120.74 128.60 119.97 129.50 120.05 130.53 C 120.13 131.55 121.02 132.32 122.05 132.25 Z M 123.09 132.14 L 124.07 132.04 C 125.08 131.93 125.81 131.02 125.71 130.01 C 125.60 129.00 124.69 128.26 123.68 128.37 L 122.70 128.48 C 121.69 128.59 120.95 129.49 121.06 130.51 C 121.17 131.52 122.08 132.25 123.09 132.14 Z M 124.13 132.01 L 125.11 131.87 C 126.11 131.73 126.80 130.81 126.66 129.81 C 126.52 128.82 125.60 128.13 124.61 128.26 L 123.62 128.40 C 122.63 128.54 121.93 129.46 122.07 130.46 C 122.21 131.45 123.13 132.15 124.13 132.01 Z M 125.17 131.84 L 126.17 131.66 C 127.15 131.49 127.80 130.56 127.63 129.58 C 127.46 128.60 126.53 127.95 125.55 128.12 L 124.55 128.30 C 123.57 128.47 122.92 129.40 123.09 130.38 C 123.26 131.35 124.19 132.01 125.17 131.84 Z M 126.22 131.63 L 127.19 131.43 C 128.15 131.23 128.77 130.29 128.57 129.33 C 128.37 128.37 127.43 127.75 126.47 127.95 L 125.50 128.15 C 124.54 128.35 123.92 129.29 124.12 130.25 C 124.32 131.21 125.26 131.83 126.22 131.63 Z M 127.23 131.40 L 128.19 131.17 C 129.13 130.95 129.71 130.00 129.49 129.06 C 129.26 128.12 128.32 127.53 127.37 127.76 L 126.42 127.98 C 125.48 128.21 124.90 129.15 125.12 130.10 C 125.34 131.04 126.29 131.62 127.23 131.40 Z M 128.22 131.14 L 129.19 130.89 C 130.11 130.65 130.67 129.70 130.43 128.77 C 130.19 127.85 129.24 127.29 128.31 127.53 L 127.34 127.78 C 126.41 128.03 125.86 128.97 126.10 129.90 C 126.34 130.83 127.29 131.39 128.22 131.14 Z M 129.21 130.87 L 130.19 130.59 C 131.10 130.34 131.63 129.39 131.38 128.47 C 131.12 127.56 130.17 127.03 129.26 127.28 L 128.28 127.56 C 127.37 127.81 126.84 128.76 127.09 129.68 C 127.35 130.59 128.30 131.12 129.21 130.87 Z M 130.21 130.57 L 131.19 130.28 C 132.09 130.01 132.60 129.06 132.34 128.17 C 132.07 127.27 131.13 126.75 130.23 127.02 L 129.24 127.31 C 128.34 127.58 127.83 128.52 128.10 129.42 C 128.36 130.32 129.31 130.83 130.21 130.57 Z M 131.20 130.26 L 132.18 129.95 C 133.07 129.68 133.57 128.74 133.29 127.85 C 133.02 126.96 132.08 126.46 131.19 126.74 L 130.21 127.04 C 129.32 127.31 128.83 128.25 129.10 129.14 C 129.37 130.03 130.32 130.53 131.20 130.26 Z M 132.19 129.94 L 133.16 129.63 C 134.04 129.35 134.53 128.41 134.25 127.53 C 133.97 126.65 133.03 126.16 132.15 126.44 L 131.18 126.75 C 130.30 127.03 129.81 127.97 130.09 128.85 C 130.37 129.73 131.31 130.22 132.19 129.94 Z M 133.17 129.62 L 134.13 129.31 C 135.00 129.03 135.48 128.09 135.20 127.21 C 134.91 126.34 133.97 125.86 133.10 126.14 L 132.14 126.46 C 131.27 126.74 130.79 127.68 131.07 128.55 C 131.35 129.43 132.29 129.90 133.17 129.62 Z M 134.13 129.30 L 135.07 128.99 C 135.94 128.71 136.41 127.77 136.13 126.90 C 135.85 126.03 134.91 125.56 134.04 125.85 L 133.10 126.15 C 132.23 126.44 131.76 127.37 132.04 128.24 C 132.33 129.11 133.26 129.58 134.13 129.30 Z M 135.07 128.98 L 136.00 128.68 C 136.86 128.39 137.33 127.46 137.04 126.60 C 136.76 125.74 135.83 125.27 134.97 125.55 L 134.04 125.85 C 133.18 126.14 132.71 127.07 132.99 127.93 C 133.28 128.80 134.21 129.26 135.07 128.98 Z M 135.99 128.67 L 136.97 128.35 C 137.83 128.07 138.30 127.14 138.02 126.28 C 137.73 125.42 136.81 124.95 135.95 125.24 L 134.97 125.55 C 134.11 125.84 133.64 126.76 133.92 127.62 C 134.20 128.49 135.13 128.95 135.99 128.67 Z M 136.96 128.35 L 137.93 128.04 C 138.79 127.76 139.26 126.83 138.98 125.97 C 138.70 125.11 137.77 124.64 136.91 124.92 L 135.95 125.24 C 135.09 125.52 134.62 126.44 134.90 127.30 C 135.18 128.16 136.10 128.63 136.96 128.35 Z M 137.92 128.04 L 138.87 127.73 C 139.73 127.45 140.20 126.53 139.92 125.67 C 139.64 124.81 138.72 124.34 137.86 124.62 L 136.91 124.92 C 136.05 125.20 135.58 126.12 135.86 126.99 C 136.14 127.85 137.06 128.32 137.92 128.04 Z M 138.87 127.73 L 139.80 127.43 C 140.66 127.15 141.13 126.23 140.85 125.37 C 140.57 124.51 139.65 124.04 138.79 124.32 L 137.86 124.62 C 137.00 124.89 136.53 125.82 136.80 126.68 C 137.08 127.54 138.01 128.01 138.87 127.73 Z M 139.80 127.43 L 140.34 127.26 C 141.20 126.98 141.67 126.06 141.39 125.20 C 141.12 124.34 140.19 123.86 139.33 124.14 L 138.79 124.32 C 137.93 124.59 137.46 125.52 137.73 126.38 C 138.01 127.24 138.94 127.71 139.80 127.43 Z"
      fill="black"
      fill-rule="nonzero" /><path d="M 116.00 150.96 L 116.97 151.09 C 117.96 151.21 118.86 150.52 118.98 149.53 C 119.11 148.55 118.41 147.65 117.43 147.52 L 116.46 147.40 C 115.47 147.27 114.57 147.97 114.45 148.95 C 114.32 149.94 115.02 150.84 116.00 150.96 Z M 117.00 151.12 L 117.99 151.23 C 118.99 151.33 119.89 150.61 120.00 149.61 C 120.11 148.60 119.38 147.70 118.38 147.59 L 117.40 147.49 C 116.39 147.38 115.49 148.10 115.38 149.11 C 115.28 150.11 116.00 151.01 117.00 151.12 Z M 118.05 151.26 L 119.07 151.33 C 120.10 151.41 120.98 150.64 121.06 149.61 C 121.13 148.59 120.36 147.70 119.34 147.63 L 118.32 147.56 C 117.30 147.49 116.41 148.26 116.33 149.28 C 116.26 150.30 117.03 151.19 118.05 151.26 Z M 119.16 151.35 L 120.02 151.37 C 121.05 151.40 121.91 150.58 121.93 149.55 C 121.96 148.52 121.14 147.66 120.11 147.64 L 119.25 147.62 C 118.22 147.59 117.37 148.40 117.34 149.44 C 117.31 150.47 118.13 151.32 119.16 151.35 Z M 120.11 151.36 L 121.00 151.34 C 122.03 151.31 122.84 150.46 122.81 149.43 C 122.79 148.41 121.93 147.60 120.91 147.63 L 120.02 147.65 C 118.99 147.68 118.19 148.53 118.21 149.55 C 118.24 150.58 119.09 151.38 120.11 151.36 Z M 121.10 151.32 L 122.11 151.24 C 123.12 151.16 123.88 150.27 123.80 149.26 C 123.72 148.25 122.83 147.49 121.82 147.57 L 120.81 147.65 C 119.80 147.73 119.04 148.61 119.12 149.63 C 119.20 150.64 120.09 151.40 121.10 151.32 Z M 122.19 151.21 L 123.35 151.07 C 124.35 150.94 125.06 150.02 124.93 149.02 C 124.81 148.02 123.89 147.32 122.89 147.44 L 121.73 147.59 C 120.73 147.72 120.02 148.63 120.15 149.63 C 120.28 150.63 121.19 151.34 122.19 151.21 Z M 123.42 151.04 L 124.36 150.89 C 125.35 150.73 126.02 149.79 125.86 148.81 C 125.69 147.82 124.76 147.15 123.77 147.31 L 122.83 147.47 C 121.84 147.63 121.17 148.56 121.33 149.55 C 121.50 150.54 122.43 151.20 123.42 151.04 Z M 124.40 150.87 L 125.28 150.70 C 126.26 150.52 126.90 149.58 126.72 148.61 C 126.54 147.63 125.60 146.98 124.63 147.17 L 123.74 147.33 C 122.76 147.51 122.12 148.45 122.30 149.43 C 122.48 150.40 123.42 151.05 124.40 150.87 Z M 125.30 150.69 L 126.25 150.50 C 127.22 150.30 127.85 149.36 127.65 148.40 C 127.46 147.43 126.52 146.80 125.55 146.99 L 124.60 147.18 C 123.64 147.38 123.01 148.32 123.20 149.28 C 123.40 150.25 124.34 150.88 125.30 150.69 Z M 126.27 150.48 L 127.26 150.27 C 128.22 150.07 128.83 149.13 128.63 148.17 C 128.43 147.21 127.49 146.60 126.53 146.80 L 125.54 147.01 C 124.58 147.21 123.96 148.15 124.17 149.11 C 124.37 150.07 125.31 150.68 126.27 150.48 Z M 127.27 150.26 L 128.30 150.03 C 129.25 149.82 129.85 148.88 129.65 147.93 C 129.44 146.98 128.50 146.38 127.55 146.59 L 126.52 146.82 C 125.57 147.02 124.97 147.96 125.18 148.91 C 125.38 149.86 126.32 150.46 127.27 150.26 Z M 128.31 150.02 L 129.37 149.78 C 130.31 149.57 130.90 148.63 130.69 147.69 C 130.48 146.75 129.54 146.16 128.60 146.37 L 127.54 146.61 C 126.60 146.82 126.01 147.75 126.22 148.69 C 126.43 149.63 127.37 150.23 128.31 150.02 Z M 129.37 149.76 L 130.44 149.52 C 131.37 149.31 131.96 148.38 131.74 147.44 C 131.53 146.51 130.60 145.93 129.67 146.14 L 128.60 146.38 C 127.66 146.60 127.08 147.53 127.29 148.46 C 127.51 149.39 128.44 149.98 129.37 149.76 Z M 130.44 149.51 L 131.41 149.28 C 132.34 149.07 132.91 148.15 132.70 147.22 C 132.49 146.29 131.56 145.71 130.64 145.93 L 129.67 146.15 C 128.74 146.36 128.16 147.29 128.37 148.22 C 128.59 149.14 129.51 149.72 130.44 149.51 Z M 131.41 149.27 L 132.38 149.05 C 133.30 148.83 133.87 147.91 133.66 146.99 C 133.45 146.07 132.53 145.50 131.61 145.71 L 130.64 145.94 C 129.72 146.15 129.14 147.07 129.36 147.99 C 129.57 148.91 130.49 149.49 131.41 149.27 Z M 132.38 149.04 L 133.35 148.81 C 134.27 148.60 134.83 147.68 134.62 146.77 C 134.41 145.85 133.49 145.29 132.58 145.50 L 131.61 145.73 C 130.69 145.94 130.13 146.85 130.34 147.77 C 130.55 148.68 131.47 149.25 132.38 149.04 Z M 133.35 148.80 L 134.33 148.57 C 135.23 148.36 135.80 147.45 135.58 146.54 C 135.37 145.63 134.46 145.07 133.55 145.28 L 132.58 145.51 C 131.67 145.72 131.11 146.63 131.32 147.54 C 131.54 148.45 132.44 149.01 133.35 148.80 Z M 134.32 148.56 L 135.30 148.33 C 136.20 148.11 136.76 147.21 136.55 146.31 C 136.33 145.41 135.43 144.85 134.53 145.07 L 133.56 145.29 C 132.66 145.51 132.10 146.41 132.31 147.31 C 132.52 148.21 133.42 148.77 134.32 148.56 Z M 135.30 148.32 L 136.27 148.08 C 137.17 147.87 137.72 146.98 137.51 146.08 C 137.30 145.19 136.40 144.64 135.51 144.85 L 134.53 145.08 C 133.64 145.29 133.09 146.18 133.30 147.08 C 133.51 147.97 134.40 148.53 135.30 148.32 Z M 136.27 148.07 L 137.25 147.84 C 138.14 147.63 138.68 146.74 138.48 145.86 C 138.27 144.97 137.38 144.42 136.49 144.63 L 135.51 144.86 C 134.62 145.07 134.07 145.96 134.28 146.85 C 134.49 147.73 135.38 148.28 136.27 148.07 Z M 137.25 147.83 L 137.69 147.73 C 138.58 147.52 139.12 146.63 138.92 145.75 C 138.71 144.87 137.82 144.32 136.94 144.53 L 136.49 144.64 C 135.61 144.84 135.06 145.73 135.27 146.61 C 135.48 147.50 136.36 148.04 137.25 147.83 Z"
      fill="black"
      fill-rule="nonzero" /><path d="M 116.38 176.40 L 117.21 176.19 C 118.10 175.96 118.64 175.05 118.41 174.15 C 118.18 173.26 117.27 172.72 116.37 172.95 L 115.55 173.17 C 114.65 173.40 114.12 174.31 114.35 175.20 C 114.58 176.09 115.49 176.63 116.38 176.40 Z M 117.20 176.26 L 118.10 176.05 C 119.03 175.82 119.60 174.88 119.38 173.95 C 119.15 173.01 118.21 172.44 117.28 172.66 L 116.38 172.88 C 115.45 173.11 114.88 174.04 115.10 174.98 C 115.33 175.91 116.27 176.49 117.20 176.26 Z M 118.07 176.12 L 119.10 175.90 C 120.07 175.69 120.70 174.73 120.49 173.76 C 120.28 172.78 119.32 172.16 118.34 172.37 L 117.31 172.59 C 116.33 172.80 115.71 173.76 115.92 174.73 C 116.13 175.71 117.09 176.33 118.07 176.12 Z M 119.06 175.97 L 120.19 175.76 C 121.20 175.57 121.87 174.60 121.68 173.58 C 121.49 172.57 120.52 171.90 119.50 172.09 L 118.38 172.30 C 117.37 172.49 116.70 173.46 116.89 174.47 C 117.08 175.49 118.05 176.16 119.06 175.97 Z M 120.15 175.79 L 121.11 175.63 C 122.13 175.46 122.83 174.48 122.66 173.46 C 122.49 172.43 121.51 171.73 120.49 171.91 L 119.53 172.06 C 118.51 172.23 117.81 173.21 117.98 174.23 C 118.15 175.26 119.13 175.96 120.15 175.79 Z M 121.09 175.63 L 122.10 175.47 C 123.13 175.31 123.83 174.34 123.67 173.32 C 123.51 172.29 122.55 171.59 121.52 171.75 L 120.51 171.91 C 119.48 172.07 118.78 173.03 118.94 174.06 C 119.10 175.08 120.06 175.79 121.09 175.63 Z M 122.09 175.46 L 123.13 175.31 C 124.16 175.15 124.86 174.20 124.71 173.17 C 124.55 172.15 123.60 171.44 122.57 171.60 L 121.53 171.75 C 120.51 171.91 119.80 172.86 119.96 173.89 C 120.11 174.91 121.07 175.62 122.09 175.46 Z M 123.12 175.30 L 124.15 175.15 C 125.17 175.00 125.87 174.05 125.72 173.03 C 125.57 172.01 124.62 171.30 123.60 171.45 L 122.58 171.60 C 121.56 171.75 120.85 172.70 121.00 173.72 C 121.15 174.75 122.10 175.45 123.12 175.30 Z M 124.14 175.15 L 125.10 175.01 C 126.12 174.86 126.83 173.91 126.68 172.89 C 126.53 171.87 125.58 171.17 124.56 171.32 L 123.60 171.46 C 122.58 171.61 121.88 172.55 122.03 173.57 C 122.18 174.59 123.12 175.30 124.14 175.15 Z M 125.11 175.00 L 126.22 174.83 C 127.24 174.68 127.93 173.73 127.78 172.72 C 127.63 171.70 126.68 171.01 125.67 171.16 L 124.56 171.33 C 123.54 171.48 122.85 172.42 123.00 173.44 C 123.15 174.45 124.10 175.15 125.11 175.00 Z M 126.23 174.81 L 127.27 174.65 C 128.27 174.49 128.96 173.55 128.80 172.55 C 128.64 171.55 127.70 170.86 126.70 171.02 L 125.67 171.18 C 124.66 171.33 123.98 172.27 124.13 173.28 C 124.29 174.28 125.23 174.96 126.23 174.81 Z M 127.27 174.63 L 128.19 174.48 C 129.18 174.32 129.86 173.39 129.70 172.40 C 129.54 171.41 128.61 170.73 127.62 170.89 L 126.70 171.04 C 125.71 171.20 125.03 172.13 125.19 173.12 C 125.35 174.11 126.28 174.78 127.27 174.63 Z M 128.19 174.46 L 129.06 174.32 C 130.04 174.17 130.71 173.25 130.55 172.26 C 130.40 171.28 129.48 170.62 128.50 170.77 L 127.62 170.91 C 126.64 171.07 125.97 171.99 126.13 172.97 C 126.29 173.95 127.21 174.62 128.19 174.46 Z M 129.05 174.31 L 130.00 174.16 C 130.97 174.01 131.64 173.10 131.48 172.13 C 131.33 171.15 130.42 170.49 129.45 170.64 L 128.51 170.79 C 127.53 170.94 126.87 171.85 127.02 172.82 C 127.17 173.79 128.08 174.46 129.05 174.31 Z M 129.99 174.15 L 130.98 174.00 C 131.94 173.85 132.60 172.95 132.45 171.98 C 132.31 171.01 131.40 170.35 130.44 170.50 L 129.46 170.65 C 128.49 170.80 127.83 171.70 127.98 172.67 C 128.13 173.63 129.03 174.30 129.99 174.15 Z M 130.98 173.98 L 131.98 173.83 C 132.94 173.68 133.59 172.78 133.44 171.82 C 133.29 170.86 132.40 170.21 131.44 170.36 L 130.44 170.51 C 129.48 170.66 128.82 171.56 128.97 172.52 C 129.12 173.48 130.02 174.13 130.98 173.98 Z M 131.99 173.82 L 132.99 173.65 C 133.94 173.50 134.59 172.60 134.43 171.65 C 134.28 170.70 133.38 170.05 132.43 170.21 L 131.43 170.37 C 130.48 170.52 129.83 171.42 129.99 172.37 C 130.14 173.32 131.04 173.97 131.99 173.82 Z M 133.00 173.64 L 133.97 173.48 C 134.91 173.32 135.55 172.42 135.39 171.48 C 135.23 170.53 134.33 169.90 133.39 170.06 L 132.42 170.22 C 131.47 170.38 130.84 171.28 131.00 172.22 C 131.16 173.17 132.05 173.80 133.00 173.64 Z M 133.98 173.46 L 134.96 173.29 C 135.90 173.12 136.52 172.23 136.36 171.29 C 136.19 170.35 135.30 169.73 134.36 169.89 L 133.38 170.07 C 132.44 170.23 131.81 171.13 131.98 172.07 C 132.15 173.00 133.04 173.63 133.98 173.46 Z M 134.97 173.28 L 135.97 173.09 C 136.90 172.92 137.51 172.03 137.34 171.10 C 137.17 170.17 136.28 169.55 135.35 169.72 L 134.35 169.91 C 133.42 170.08 132.80 170.97 132.97 171.90 C 133.15 172.83 134.04 173.45 134.97 173.28 Z M 135.97 173.08 L 136.92 172.90 C 137.84 172.73 138.45 171.84 138.27 170.91 C 138.10 169.99 137.21 169.38 136.28 169.56 L 135.34 169.74 C 134.41 169.91 133.81 170.80 133.98 171.73 C 134.16 172.65 135.05 173.26 135.97 173.08 Z M 136.92 172.89 L 137.82 172.72 C 138.74 172.54 139.34 171.65 139.16 170.73 C 138.98 169.82 138.09 169.22 137.18 169.39 L 136.28 169.57 C 135.36 169.74 134.76 170.63 134.94 171.55 C 135.11 172.47 136.00 173.07 136.92 172.89 Z M 137.82 172.71 L 138.77 172.53 C 139.68 172.35 140.28 171.46 140.10 170.55 C 139.92 169.64 139.04 169.04 138.12 169.22 L 137.17 169.40 C 136.26 169.58 135.67 170.47 135.84 171.38 C 136.02 172.29 136.91 172.89 137.82 172.71 Z M 138.77 172.52 L 139.79 172.32 C 140.70 172.14 141.29 171.26 141.12 170.35 C 140.94 169.44 140.06 168.85 139.15 169.03 L 138.13 169.23 C 137.22 169.40 136.62 170.28 136.80 171.19 C 136.98 172.10 137.86 172.69 138.77 172.52 Z M 139.79 172.31 L 140.89 172.10 C 141.79 171.92 142.38 171.05 142.21 170.14 C 142.03 169.24 141.16 168.65 140.25 168.82 L 139.15 169.03 C 138.25 169.21 137.66 170.08 137.83 170.99 C 138.01 171.89 138.88 172.48 139.79 172.31 Z M 140.88 172.09 L 141.81 171.91 C 142.72 171.74 143.31 170.87 143.13 169.97 C 142.96 169.07 142.09 168.48 141.19 168.65 L 140.26 168.83 C 139.36 169.00 138.77 169.87 138.94 170.77 C 139.11 171.67 139.98 172.26 140.88 172.09 Z M 141.81 171.91 L 142.79 171.72 C 143.69 171.55 144.28 170.68 144.11 169.78 C 143.94 168.88 143.07 168.29 142.17 168.46 L 141.19 168.65 C 140.29 168.82 139.70 169.69 139.87 170.59 C 140.04 171.49 140.91 172.08 141.81 171.91 Z M 142.79 171.72 L 143.80 171.53 C 144.70 171.35 145.29 170.49 145.11 169.59 C 144.94 168.69 144.07 168.10 143.17 168.27 L 142.17 168.47 C 141.27 168.64 140.68 169.51 140.85 170.41 C 141.03 171.30 141.89 171.89 142.79 171.72 Z M 143.80 171.52 L 144.81 171.33 C 145.71 171.15 146.30 170.28 146.12 169.39 C 145.95 168.49 145.08 167.90 144.18 168.08 L 143.17 168.28 C 142.27 168.45 141.69 169.32 141.86 170.22 C 142.04 171.11 142.91 171.70 143.80 171.52 Z M 144.82 171.32 L 145.82 171.13 C 146.71 170.95 147.29 170.08 147.12 169.18 C 146.94 168.29 146.07 167.71 145.17 167.89 L 144.18 168.08 C 143.28 168.26 142.70 169.13 142.88 170.02 C 143.06 170.92 143.93 171.50 144.82 171.32 Z M 145.83 171.12 L 146.84 170.91 C 147.73 170.73 148.31 169.86 148.13 168.97 C 147.94 168.08 147.07 167.50 146.18 167.68 L 145.17 167.89 C 144.27 168.07 143.70 168.94 143.88 169.83 C 144.06 170.73 144.93 171.30 145.83 171.12 Z M 146.85 170.91 L 147.93 170.68 C 148.82 170.50 149.39 169.62 149.20 168.73 C 149.02 167.84 148.14 167.27 147.25 167.46 L 146.17 167.69 C 145.28 167.87 144.71 168.75 144.90 169.64 C 145.09 170.53 145.96 171.10 146.85 170.91 Z M 147.94 170.68 L 148.95 170.46 C 149.84 170.27 150.40 169.40 150.21 168.51 C 150.02 167.62 149.15 167.06 148.26 167.25 L 147.25 167.46 C 146.36 167.65 145.79 168.53 145.98 169.42 C 146.17 170.30 147.05 170.87 147.94 170.68 Z M 148.95 170.46 L 149.90 170.26 C 150.79 170.07 151.35 169.19 151.16 168.31 C 150.97 167.42 150.10 166.85 149.21 167.04 L 148.26 167.25 C 147.38 167.44 146.81 168.31 147.00 169.20 C 147.19 170.08 148.06 170.65 148.95 170.46 Z M 149.89 170.26 L 150.78 170.07 C 151.67 169.89 152.24 169.02 152.06 168.13 C 151.87 167.24 151.00 166.67 150.11 166.86 L 149.22 167.04 C 148.34 167.23 147.77 168.10 147.95 168.99 C 148.14 169.87 149.01 170.44 149.89 170.26 Z M 150.77 170.07 L 151.72 169.88 C 152.61 169.71 153.19 168.85 153.01 167.96 C 152.84 167.07 151.98 166.49 151.09 166.67 L 150.13 166.86 C 149.25 167.03 148.67 167.89 148.84 168.78 C 149.02 169.67 149.88 170.25 150.77 170.07 Z M 151.69 169.89 L 152.71 169.71 C 153.60 169.55 154.20 168.70 154.04 167.80 C 153.88 166.91 153.03 166.32 152.14 166.48 L 151.11 166.67 C 150.22 166.82 149.63 167.68 149.79 168.57 C 149.95 169.46 150.80 170.05 151.69 169.89 Z M 152.69 169.71 L 153.66 169.55 C 154.55 169.40 155.16 168.56 155.01 167.67 C 154.86 166.78 154.02 166.17 153.13 166.32 L 152.16 166.48 C 151.27 166.63 150.66 167.47 150.81 168.36 C 150.96 169.25 151.80 169.86 152.69 169.71 Z M 153.65 169.55 L 154.59 169.40 C 155.48 169.27 156.09 168.43 155.95 167.53 C 155.81 166.64 154.97 166.03 154.08 166.17 L 153.14 166.32 C 152.25 166.46 151.64 167.29 151.78 168.19 C 151.92 169.08 152.75 169.69 153.65 169.55 Z M 154.58 169.41 L 154.81 169.37 C 155.70 169.23 156.31 168.40 156.18 167.50 C 156.04 166.61 155.20 166.00 154.31 166.13 L 154.08 166.17 C 153.19 166.31 152.58 167.14 152.71 168.04 C 152.85 168.93 153.69 169.54 154.58 169.41 Z"
      fill="black"
      fill-rule="nonzero" /><path d="M 130.86 135.32 L 130.64 136.18 C 130.38 137.18 130.99 138.20 131.99 138.46 C 133.00 138.71 134.02 138.10 134.27 137.10 L 134.49 136.24 C 134.75 135.24 134.14 134.22 133.14 133.96 C 132.13 133.71 131.11 134.32 130.86 135.32 Z M 130.62 136.24 L 130.42 137.16 C 130.20 138.17 130.84 139.17 131.85 139.39 C 132.87 139.61 133.87 138.97 134.09 137.96 L 134.29 137.04 C 134.51 136.03 133.87 135.02 132.86 134.80 C 131.84 134.58 130.84 135.22 130.62 136.24 Z M 130.40 137.26 L 130.23 138.30 C 130.07 139.33 130.76 140.30 131.79 140.46 C 132.82 140.62 133.78 139.92 133.95 138.90 L 134.12 137.85 C 134.28 136.83 133.58 135.86 132.55 135.70 C 131.53 135.53 130.56 136.23 130.40 137.26 Z M 130.22 138.42 L 130.11 139.48 C 130.01 140.52 130.76 141.44 131.80 141.54 C 132.83 141.65 133.76 140.89 133.86 139.85 L 133.96 138.79 C 134.07 137.75 133.31 136.83 132.27 136.73 C 131.24 136.62 130.32 137.38 130.22 138.42 Z M 130.11 139.57 L 130.06 140.51 C 130.00 141.55 130.79 142.43 131.83 142.49 C 132.86 142.55 133.74 141.76 133.80 140.72 L 133.86 139.77 C 133.91 138.74 133.12 137.86 132.09 137.80 C 131.05 137.74 130.17 138.53 130.11 139.57 Z M 130.07 140.56 L 130.04 141.57 C 130.01 142.60 130.82 143.46 131.84 143.49 C 132.87 143.52 133.73 142.71 133.76 141.69 L 133.79 140.68 C 133.82 139.65 133.01 138.79 131.99 138.76 C 130.96 138.73 130.10 139.54 130.07 140.56 Z M 130.06 141.60 L 130.04 142.64 C 130.03 143.66 130.84 144.50 131.86 144.51 C 132.88 144.53 133.71 143.72 133.73 142.70 L 133.74 141.66 C 133.76 140.64 132.95 139.80 131.93 139.79 C 130.91 139.77 130.07 140.58 130.06 141.60 Z M 130.06 142.66 L 130.05 143.70 C 130.05 144.71 130.86 145.53 131.87 145.54 C 132.88 145.54 133.70 144.73 133.71 143.72 L 133.71 142.68 C 133.72 141.67 132.90 140.85 131.89 140.84 C 130.88 140.84 130.06 141.65 130.06 142.66 Z M 130.07 143.71 L 130.07 144.73 C 130.07 145.73 130.88 146.54 131.88 146.54 C 132.88 146.55 133.69 145.73 133.69 144.73 L 133.69 143.71 C 133.69 142.71 132.88 141.89 131.88 141.89 C 130.88 141.89 130.07 142.70 130.07 143.71 Z M 130.09 144.73 L 130.09 145.80 C 130.09 146.79 130.89 147.59 131.88 147.59 C 132.87 147.59 133.67 146.79 133.67 145.80 L 133.67 144.73 C 133.67 143.74 132.87 142.94 131.88 142.94 C 130.89 142.94 130.09 143.74 130.09 144.73 Z M 130.12 145.80 L 130.12 146.81 C 130.12 147.78 130.91 148.57 131.88 148.57 C 132.85 148.57 133.64 147.78 133.64 146.81 L 133.64 145.80 C 133.64 144.83 132.85 144.04 131.88 144.04 C 130.91 144.04 130.12 144.83 130.12 145.80 Z M 130.14 146.81 L 130.14 147.78 C 130.14 148.74 130.92 149.51 131.88 149.51 C 132.84 149.51 133.61 148.74 133.61 147.78 L 133.61 146.81 C 133.61 145.85 132.84 145.08 131.88 145.08 C 130.92 145.08 130.14 145.85 130.14 146.81 Z M 130.17 147.78 L 130.17 148.73 C 130.17 149.67 130.94 150.44 131.88 150.44 C 132.82 150.44 133.59 149.67 133.59 148.73 L 133.59 147.78 C 133.59 146.84 132.82 146.07 131.88 146.07 C 130.94 146.07 130.17 146.84 130.17 147.78 Z M 130.19 148.73 L 130.19 149.71 C 130.19 150.64 130.95 151.40 131.88 151.40 C 132.81 151.40 133.56 150.64 133.56 149.71 L 133.56 148.73 C 133.56 147.80 132.81 147.04 131.88 147.04 C 130.95 147.04 130.19 147.80 130.19 148.73 Z M 130.21 149.71 L 130.21 150.72 C 130.21 151.64 130.96 152.39 131.88 152.39 C 132.80 152.39 133.55 151.64 133.55 150.72 L 133.55 149.71 C 133.55 148.79 132.80 148.04 131.88 148.04 C 130.96 148.04 130.21 148.79 130.21 149.71 Z M 130.22 150.72 L 130.22 151.72 C 130.22 152.64 130.96 153.38 131.88 153.38 C 132.80 153.38 133.54 152.64 133.54 151.72 L 133.54 150.72 C 133.54 149.80 132.80 149.05 131.88 149.05 C 130.96 149.05 130.22 149.80 130.22 150.72 Z M 130.22 151.72 L 130.22 152.72 C 130.22 153.63 130.97 154.37 131.88 154.37 C 132.79 154.37 133.53 153.63 133.53 152.72 L 133.53 151.72 C 133.53 150.81 132.79 150.06 131.88 150.06 C 130.97 150.06 130.22 150.81 130.22 151.72 Z M 130.23 152.72 L 130.23 153.71 C 130.23 154.62 130.97 155.35 131.88 155.35 C 132.79 155.35 133.53 154.62 133.53 153.71 L 133.53 152.72 C 133.53 151.81 132.79 151.07 131.88 151.07 C 130.97 151.07 130.23 151.81 130.23 152.72 Z M 130.24 153.71 L 130.24 154.69 C 130.24 155.60 130.98 156.33 131.88 156.33 C 132.79 156.33 133.52 155.59 133.52 154.69 L 133.52 153.70 C 133.52 152.80 132.78 152.06 131.88 152.06 C 130.97 152.06 130.24 152.80 130.24 153.71 Z M 130.24 154.70 L 130.25 155.68 C 130.25 156.59 130.99 157.32 131.90 157.32 C 132.80 157.31 133.53 156.57 133.53 155.67 L 133.52 154.68 C 133.52 153.77 132.78 153.04 131.87 153.05 C 130.96 153.05 130.23 153.79 130.24 154.70 Z M 130.25 155.70 L 130.26 156.70 C 130.27 157.61 131.02 158.33 131.92 158.32 C 132.83 158.30 133.55 157.56 133.54 156.66 L 133.53 155.65 C 133.51 154.75 132.77 154.02 131.86 154.04 C 130.96 154.05 130.23 154.79 130.25 155.70 Z M 130.26 156.72 L 130.29 157.75 C 130.31 158.65 131.06 159.37 131.96 159.34 C 132.87 159.32 133.58 158.57 133.56 157.67 L 133.54 156.64 C 133.52 155.73 132.76 155.02 131.86 155.04 C 130.96 155.06 130.24 155.81 130.26 156.72 Z M 130.29 157.76 L 130.32 158.73 C 130.35 159.63 131.11 160.34 132.02 160.30 C 132.92 160.27 133.63 159.51 133.59 158.61 L 133.56 157.65 C 133.53 156.75 132.77 156.04 131.87 156.07 C 130.96 156.10 130.26 156.86 130.29 157.76 Z M 130.32 158.74 L 130.37 159.73 C 130.40 160.63 131.17 161.33 132.07 161.29 C 132.97 161.25 133.67 160.49 133.64 159.59 L 133.59 158.60 C 133.55 157.69 132.79 156.99 131.89 157.03 C 130.98 157.07 130.28 157.84 130.32 158.74 Z M 130.37 159.74 L 130.41 160.74 C 130.46 161.65 131.23 162.34 132.13 162.30 C 133.03 162.25 133.73 161.49 133.68 160.58 L 133.64 159.58 C 133.59 158.67 132.82 157.98 131.92 158.02 C 131.02 158.07 130.32 158.83 130.37 159.74 Z M 130.42 160.75 L 130.47 161.77 C 130.52 162.67 131.29 163.37 132.19 163.32 C 133.09 163.27 133.79 162.50 133.74 161.60 L 133.68 160.58 C 133.64 159.68 132.87 158.98 131.96 159.03 C 131.06 159.08 130.37 159.85 130.42 160.75 Z M 130.47 161.77 L 130.51 162.53 C 130.56 163.44 131.33 164.13 132.23 164.08 C 133.14 164.03 133.83 163.26 133.78 162.36 L 133.74 161.60 C 133.69 160.69 132.92 160.00 132.02 160.05 C 131.11 160.10 130.42 160.87 130.47 161.77 Z"
      fill="black"
      fill-rule="nonzero" /><path d="M 162.34 106.94 L 161.98 107.84 C 161.58 108.81 162.05 109.92 163.03 110.32 C 164.00 110.71 165.12 110.24 165.51 109.27 L 165.87 108.37 C 166.27 107.40 165.80 106.28 164.82 105.89 C 163.85 105.49 162.73 105.97 162.34 106.94 Z M 161.96 107.87 L 161.61 108.80 C 161.24 109.78 161.73 110.88 162.71 111.25 C 163.70 111.63 164.80 111.13 165.17 110.15 L 165.52 109.23 C 165.90 108.25 165.40 107.15 164.42 106.77 C 163.44 106.40 162.34 106.89 161.96 107.87 Z M 161.59 108.87 L 161.26 109.84 C 160.93 110.84 161.46 111.91 162.46 112.25 C 163.45 112.59 164.53 112.05 164.86 111.06 L 165.19 110.08 C 165.53 109.09 164.99 108.01 164.00 107.67 C 163.00 107.34 161.93 107.87 161.59 108.87 Z M 161.24 109.93 L 160.97 110.89 C 160.68 111.89 161.27 112.94 162.28 113.23 C 163.28 113.52 164.33 112.93 164.62 111.92 L 164.89 110.97 C 165.18 109.96 164.59 108.91 163.58 108.62 C 162.57 108.34 161.52 108.92 161.24 109.93 Z M 160.95 110.97 L 160.72 111.94 C 160.48 112.96 161.11 113.98 162.13 114.22 C 163.15 114.46 164.17 113.83 164.41 112.81 L 164.64 111.84 C 164.88 110.82 164.24 109.80 163.23 109.56 C 162.21 109.32 161.19 109.95 160.95 110.97 Z M 160.71 112.02 L 160.52 113.02 C 160.32 114.04 161.00 115.03 162.02 115.23 C 163.05 115.43 164.04 114.75 164.23 113.73 L 164.42 112.73 C 164.62 111.70 163.95 110.71 162.92 110.52 C 161.89 110.32 160.90 110.99 160.71 112.02 Z M 160.51 113.10 L 160.36 114.10 C 160.21 115.13 160.92 116.09 161.95 116.24 C 162.98 116.39 163.94 115.68 164.10 114.65 L 164.24 113.65 C 164.39 112.62 163.68 111.66 162.65 111.50 C 161.62 111.35 160.66 112.07 160.51 113.10 Z M 160.35 114.18 L 160.26 115.09 C 160.15 116.12 160.90 117.05 161.94 117.16 C 162.97 117.27 163.90 116.52 164.01 115.48 L 164.10 114.57 C 164.21 113.53 163.46 112.61 162.42 112.50 C 161.39 112.39 160.46 113.14 160.35 114.18 Z M 160.25 115.16 L 160.19 116.10 C 160.12 117.13 160.90 118.03 161.94 118.10 C 162.98 118.17 163.88 117.39 163.95 116.35 L 164.01 115.41 C 164.08 114.37 163.30 113.48 162.26 113.41 C 161.22 113.34 160.32 114.12 160.25 115.16 Z M 160.19 116.15 L 160.15 117.16 C 160.11 118.20 160.92 119.07 161.96 119.11 C 163.00 119.15 163.87 118.34 163.91 117.30 L 163.95 116.29 C 163.99 115.26 163.18 114.38 162.14 114.34 C 161.10 114.30 160.23 115.11 160.19 116.15 Z M 160.15 117.19 L 160.13 118.31 C 160.11 119.35 160.93 120.21 161.97 120.23 C 163.01 120.25 163.87 119.43 163.89 118.39 L 163.91 117.27 C 163.93 116.23 163.11 115.37 162.07 115.35 C 161.03 115.33 160.17 116.15 160.15 117.19 Z M 160.13 118.33 L 160.12 119.34 C 160.11 120.38 160.94 121.23 161.98 121.23 C 163.02 121.24 163.87 120.41 163.88 119.37 L 163.89 118.37 C 163.90 117.33 163.06 116.48 162.02 116.47 C 160.99 116.46 160.14 117.29 160.13 118.33 Z M 160.12 119.37 L 160.13 120.41 C 160.13 121.45 160.98 122.28 162.02 122.28 C 163.06 122.27 163.89 121.42 163.89 120.38 L 163.88 119.34 C 163.87 118.30 163.02 117.47 161.98 117.47 C 160.95 117.48 160.11 118.33 160.12 119.37 Z M 160.13 120.46 L 160.16 121.51 C 160.20 122.55 161.07 123.36 162.11 123.32 C 163.14 123.29 163.96 122.42 163.92 121.38 L 163.88 120.33 C 163.85 119.29 162.98 118.48 161.94 118.52 C 160.90 118.55 160.09 119.42 160.13 120.46 Z M 160.17 121.59 L 160.24 122.60 C 160.32 123.63 161.23 124.41 162.26 124.33 C 163.30 124.25 164.07 123.35 163.99 122.31 L 163.92 121.30 C 163.84 120.27 162.93 119.49 161.90 119.57 C 160.86 119.65 160.09 120.55 160.17 121.59 Z M 160.26 122.72 L 160.39 123.65 C 160.54 124.67 161.49 125.39 162.51 125.24 C 163.54 125.10 164.26 124.15 164.11 123.12 L 163.98 122.19 C 163.83 121.17 162.88 120.45 161.86 120.60 C 160.83 120.74 160.11 121.69 160.26 122.72 Z M 160.44 123.88 L 160.73 124.94 C 161.00 125.95 162.03 126.54 163.04 126.26 C 164.04 125.99 164.63 124.96 164.35 123.95 L 164.06 122.89 C 163.79 121.89 162.76 121.30 161.76 121.57 C 160.75 121.84 160.16 122.88 160.44 123.88 Z M 160.89 125.35 L 161.38 126.23 C 161.88 127.14 163.02 127.47 163.93 126.97 C 164.84 126.47 165.17 125.33 164.67 124.42 L 164.19 123.54 C 163.69 122.63 162.55 122.30 161.64 122.80 C 160.73 123.30 160.39 124.44 160.89 125.35 Z M 161.76 126.72 L 162.43 127.33 C 163.20 128.02 164.39 127.97 165.08 127.20 C 165.78 126.43 165.72 125.24 164.96 124.54 L 164.29 123.93 C 163.52 123.24 162.33 123.29 161.63 124.06 C 160.93 124.83 160.99 126.02 161.76 126.72 Z M 162.95 127.66 L 163.78 128.02 C 164.74 128.43 165.84 127.99 166.25 127.04 C 166.66 126.08 166.22 124.97 165.27 124.56 L 164.44 124.20 C 163.48 123.79 162.37 124.23 161.96 125.19 C 161.55 126.14 161.99 127.25 162.95 127.66 Z M 164.21 128.15 L 165.12 128.30 C 166.15 128.48 167.12 127.79 167.29 126.77 C 167.47 125.74 166.78 124.77 165.76 124.59 L 164.84 124.44 C 163.82 124.26 162.85 124.95 162.67 125.97 C 162.50 127.00 163.18 127.97 164.21 128.15 Z M 165.43 128.33 L 166.44 128.33 C 167.48 128.34 168.33 127.50 168.33 126.46 C 168.33 125.42 167.49 124.57 166.45 124.57 L 165.44 124.57 C 164.40 124.56 163.56 125.40 163.56 126.44 C 163.55 127.48 164.39 128.33 165.43 128.33 Z M 166.70 128.32 L 167.75 128.17 C 168.78 128.03 169.50 127.09 169.36 126.06 C 169.22 125.03 168.27 124.31 167.24 124.44 L 166.20 124.59 C 165.17 124.73 164.44 125.67 164.58 126.70 C 164.72 127.73 165.67 128.45 166.70 128.32 Z M 167.98 128.13 L 169.00 127.85 C 170.01 127.59 170.61 126.56 170.34 125.55 C 170.07 124.55 169.04 123.95 168.04 124.22 L 167.01 124.49 C 166.01 124.76 165.41 125.79 165.68 126.79 C 165.95 127.80 166.98 128.39 167.98 128.13 Z M 169.20 127.79 L 170.17 127.41 C 171.13 127.04 171.61 125.95 171.23 124.98 C 170.86 124.01 169.77 123.53 168.80 123.91 L 167.84 124.29 C 166.87 124.66 166.39 125.75 166.77 126.72 C 167.15 127.69 168.24 128.16 169.20 127.79 Z M 170.31 127.35 L 171.22 126.90 C 172.15 126.44 172.53 125.32 172.08 124.39 C 171.62 123.46 170.50 123.07 169.57 123.53 L 168.66 123.98 C 167.73 124.43 167.34 125.56 167.80 126.49 C 168.25 127.42 169.38 127.80 170.31 127.35 Z M 171.32 126.85 L 172.17 126.37 C 173.07 125.86 173.38 124.71 172.87 123.81 C 172.36 122.91 171.22 122.59 170.32 123.10 L 169.47 123.58 C 168.57 124.09 168.25 125.24 168.76 126.14 C 169.27 127.04 170.41 127.36 171.32 126.85 Z M 172.22 126.33 L 173.07 125.81 C 173.95 125.27 174.22 124.12 173.68 123.24 C 173.14 122.36 171.99 122.08 171.11 122.62 L 170.26 123.14 C 169.38 123.68 169.11 124.83 169.65 125.71 C 170.19 126.59 171.34 126.87 172.22 126.33 Z M 173.10 125.78 L 173.97 125.22 C 174.83 124.67 175.08 123.51 174.52 122.64 C 173.97 121.78 172.81 121.53 171.94 122.09 L 171.08 122.65 C 170.21 123.21 169.96 124.36 170.52 125.23 C 171.08 126.09 172.24 126.34 173.10 125.78 Z M 173.99 125.20 L 174.80 124.66 C 175.66 124.08 175.88 122.93 175.31 122.07 C 174.74 121.22 173.58 120.99 172.73 121.57 L 171.92 122.11 C 171.06 122.68 170.84 123.84 171.41 124.69 C 171.98 125.55 173.14 125.77 173.99 125.20 Z M 174.82 124.64 L 175.61 124.10 C 176.45 123.52 176.66 122.36 176.08 121.52 C 175.50 120.67 174.34 120.46 173.50 121.04 L 172.71 121.58 C 171.87 122.17 171.65 123.32 172.23 124.17 C 172.82 125.01 173.97 125.22 174.82 124.64 Z M 175.61 124.10 L 176.41 123.54 C 177.25 122.96 177.46 121.80 176.88 120.96 C 176.30 120.12 175.14 119.91 174.30 120.49 L 173.50 121.05 C 172.65 121.63 172.44 122.78 173.03 123.63 C 173.61 124.47 174.76 124.68 175.61 124.10 Z M 176.40 123.55 L 177.22 122.99 C 178.07 122.41 178.29 121.26 177.72 120.41 C 177.14 119.56 175.99 119.34 175.14 119.92 L 174.32 120.48 C 173.47 121.06 173.25 122.21 173.82 123.05 C 174.40 123.90 175.55 124.12 176.40 123.55 Z M 177.19 123.00 L 178.05 122.45 C 178.91 121.89 179.15 120.74 178.59 119.88 C 178.03 119.03 176.88 118.79 176.03 119.34 L 175.17 119.90 C 174.31 120.46 174.07 121.61 174.63 122.46 C 175.19 123.32 176.34 123.56 177.19 123.00 Z M 178.00 122.48 L 178.86 121.96 C 179.73 121.42 180.01 120.28 179.47 119.41 C 178.94 118.53 177.80 118.26 176.93 118.79 L 176.07 119.31 C 175.20 119.85 174.92 120.99 175.46 121.86 C 175.99 122.73 177.13 123.01 178.00 122.48 Z M 178.78 122.01 L 179.66 121.53 C 180.56 121.04 180.89 119.91 180.41 119.01 C 179.92 118.11 178.79 117.77 177.89 118.26 L 177.01 118.74 C 176.10 119.23 175.77 120.36 176.26 121.26 C 176.75 122.16 177.87 122.50 178.78 122.01 Z M 179.53 121.60 L 180.44 121.19 C 181.38 120.78 181.81 119.68 181.39 118.74 C 180.98 117.80 179.88 117.37 178.94 117.79 L 178.02 118.19 C 177.08 118.61 176.65 119.71 177.07 120.65 C 177.49 121.59 178.58 122.01 179.53 121.60 Z M 180.24 121.28 L 181.24 120.97 C 182.22 120.66 182.78 119.62 182.47 118.63 C 182.17 117.65 181.12 117.09 180.13 117.40 L 179.14 117.71 C 178.15 118.01 177.60 119.06 177.90 120.04 C 178.21 121.03 179.26 121.58 180.24 121.28 Z M 180.91 121.05 L 181.96 120.92 C 182.99 120.80 183.72 119.86 183.60 118.83 C 183.47 117.80 182.54 117.07 181.51 117.19 L 180.46 117.32 C 179.43 117.44 178.70 118.38 178.82 119.41 C 178.95 120.44 179.88 121.17 180.91 121.05 Z M 181.34 120.91 L 182.26 121.10 C 183.28 121.31 184.28 120.66 184.50 119.64 C 184.71 118.62 184.06 117.61 183.03 117.40 L 182.12 117.21 C 181.10 116.99 180.10 117.65 179.88 118.67 C 179.67 119.69 180.32 120.69 181.34 120.91 Z M 181.38 120.67 L 182.01 121.22 C 182.79 121.92 184.00 121.85 184.69 121.06 C 185.39 120.28 185.32 119.08 184.53 118.38 L 183.91 117.83 C 183.12 117.13 181.92 117.20 181.22 117.99 C 180.53 118.77 180.60 119.97 181.38 120.67 Z M 181.52 120.56 L 181.86 121.34 C 182.28 122.31 183.40 122.75 184.37 122.34 C 185.33 121.92 185.78 120.80 185.36 119.83 L 185.02 119.05 C 184.60 118.08 183.48 117.64 182.51 118.05 C 181.55 118.47 181.10 119.59 181.52 120.56 Z M 181.74 120.96 L 181.93 121.95 C 182.14 122.98 183.14 123.65 184.18 123.45 C 185.21 123.25 185.88 122.24 185.68 121.21 L 185.48 120.22 C 185.28 119.18 184.27 118.51 183.24 118.72 C 182.21 118.92 181.53 119.92 181.74 120.96 Z M 181.90 121.75 L 182.01 122.87 C 182.10 123.92 183.03 124.70 184.08 124.60 C 185.13 124.51 185.90 123.58 185.81 122.53 L 185.71 121.41 C 185.61 120.36 184.68 119.58 183.64 119.68 C 182.59 119.77 181.81 120.70 181.90 121.75 Z M 182.00 122.79 L 182.04 123.83 C 182.09 124.88 182.98 125.70 184.04 125.65 C 185.09 125.61 185.91 124.72 185.86 123.66 L 185.81 122.62 C 185.77 121.56 184.87 120.75 183.82 120.80 C 182.77 120.84 181.95 121.73 182.00 122.79 Z M 182.04 123.78 L 182.06 124.73 C 182.08 125.79 182.95 126.63 184.00 126.61 C 185.06 126.59 185.90 125.72 185.88 124.67 L 185.86 123.71 C 185.84 122.66 184.97 121.82 183.92 121.84 C 182.86 121.86 182.02 122.73 182.04 123.78 Z M 182.06 124.67 L 182.04 125.65 C 182.02 126.70 182.86 127.57 183.92 127.59 C 184.97 127.61 185.84 126.77 185.86 125.71 L 185.88 124.73 C 185.90 123.68 185.06 122.81 184.00 122.79 C 182.95 122.77 182.08 123.61 182.06 124.67 Z M 182.04 125.56 L 181.98 126.58 C 181.92 127.63 182.72 128.54 183.77 128.60 C 184.83 128.66 185.73 127.86 185.80 126.81 L 185.86 125.80 C 185.92 124.74 185.12 123.84 184.07 123.77 C 183.02 123.71 182.11 124.51 182.04 125.56 Z M 181.99 126.48 L 181.87 127.53 C 181.76 128.58 182.51 129.53 183.56 129.64 C 184.61 129.76 185.56 129.01 185.67 127.96 L 185.79 126.90 C 185.91 125.85 185.15 124.91 184.10 124.79 C 183.05 124.68 182.11 125.43 181.99 126.48 Z M 181.89 127.44 L 181.72 128.45 C 181.55 129.49 182.26 130.48 183.30 130.65 C 184.34 130.82 185.32 130.11 185.49 129.07 L 185.66 128.05 C 185.83 127.01 185.12 126.03 184.08 125.86 C 183.04 125.69 182.06 126.40 181.89 127.44 Z M 181.74 128.37 L 181.53 129.38 C 181.32 130.42 181.98 131.43 183.02 131.64 C 184.05 131.85 185.06 131.19 185.27 130.15 L 185.48 129.15 C 185.69 128.11 185.03 127.10 183.99 126.89 C 182.96 126.68 181.95 127.34 181.74 128.37 Z M 181.54 129.32 L 181.30 130.33 C 181.05 131.36 181.69 132.39 182.71 132.64 C 183.74 132.88 184.77 132.25 185.02 131.22 L 185.26 130.22 C 185.51 129.19 184.87 128.16 183.85 127.91 C 182.82 127.66 181.79 128.30 181.54 129.32 Z M 181.31 130.28 L 181.05 131.26 C 180.77 132.28 181.38 133.33 182.40 133.60 C 183.42 133.88 184.46 133.27 184.74 132.25 L 185.00 131.27 C 185.28 130.26 184.68 129.21 183.66 128.93 C 182.64 128.66 181.59 129.26 181.31 130.28 Z M 181.06 131.21 L 180.79 132.14 C 180.49 133.16 181.06 134.22 182.08 134.52 C 183.09 134.82 184.15 134.24 184.45 133.23 L 184.73 132.30 C 185.03 131.29 184.45 130.22 183.44 129.92 C 182.42 129.62 181.36 130.20 181.06 131.21 Z M 180.80 132.10 L 180.49 133.07 C 180.16 134.07 180.72 135.15 181.72 135.47 C 182.73 135.80 183.80 135.24 184.13 134.24 L 184.44 133.27 C 184.76 132.27 184.21 131.19 183.21 130.87 C 182.20 130.54 181.12 131.09 180.80 132.10 Z M 180.51 133.02 L 180.15 134.04 C 179.79 135.03 180.32 136.13 181.31 136.48 C 182.31 136.83 183.40 136.31 183.75 135.31 L 184.11 134.29 C 184.46 133.29 183.94 132.20 182.94 131.85 C 181.95 131.50 180.86 132.02 180.51 133.02 Z M 180.16 133.99 L 179.81 134.91 C 179.44 135.89 179.93 136.99 180.92 137.37 C 181.90 137.75 183.00 137.26 183.38 136.27 L 183.73 135.36 C 184.11 134.37 183.61 133.27 182.63 132.89 C 181.64 132.52 180.54 133.01 180.16 133.99 Z M 179.83 134.88 L 179.48 135.73 C 179.09 136.70 179.56 137.82 180.54 138.21 C 181.52 138.60 182.63 138.13 183.02 137.15 L 183.37 136.30 C 183.76 135.32 183.29 134.21 182.31 133.82 C 181.33 133.43 180.22 133.90 179.83 134.88 Z M 179.49 135.72 L 179.14 136.58 C 178.74 137.56 179.21 138.67 180.18 139.07 C 181.16 139.47 182.27 139.00 182.67 138.02 L 183.02 137.16 C 183.42 136.18 182.95 135.07 181.97 134.67 C 181.00 134.28 179.89 134.74 179.49 135.72 Z M 179.14 136.59 L 178.77 137.50 C 178.38 138.47 178.85 139.58 179.82 139.98 C 180.80 140.37 181.91 139.90 182.30 138.92 L 182.67 138.02 C 183.06 137.04 182.59 135.93 181.61 135.54 C 180.64 135.14 179.53 135.62 179.14 136.59 Z M 178.77 137.51 L 178.40 138.44 C 178.01 139.41 178.49 140.52 179.46 140.91 C 180.44 141.30 181.55 140.82 181.94 139.84 L 182.30 138.91 C 182.69 137.94 182.22 136.83 181.24 136.44 C 180.26 136.05 179.16 136.53 178.77 137.51 Z M 178.40 138.44 L 178.02 139.40 C 177.64 140.38 178.12 141.48 179.10 141.87 C 180.07 142.25 181.18 141.77 181.56 140.79 L 181.94 139.83 C 182.32 138.86 181.84 137.75 180.86 137.37 C 179.88 136.99 178.78 137.47 178.40 138.44 Z M 178.02 139.41 L 177.66 140.33 C 177.28 141.31 177.77 142.41 178.75 142.79 C 179.73 143.17 180.83 142.68 181.20 141.71 L 181.56 140.78 C 181.94 139.81 181.45 138.71 180.48 138.33 C 179.50 137.95 178.40 138.43 178.02 139.41 Z M 177.67 140.34 L 177.31 141.27 C 176.93 142.24 177.41 143.34 178.39 143.72 C 179.37 144.10 180.46 143.61 180.84 142.63 L 181.20 141.70 C 181.58 140.73 181.09 139.63 180.12 139.25 C 179.14 138.87 178.04 139.36 177.67 140.34 Z M 177.31 141.26 L 176.94 142.20 C 176.56 143.17 177.04 144.27 178.01 144.65 C 178.99 145.03 180.09 144.55 180.47 143.58 L 180.84 142.64 C 181.22 141.67 180.74 140.57 179.76 140.19 C 178.79 139.81 177.69 140.29 177.31 141.26 Z M 176.95 142.19 L 176.57 143.12 C 176.19 144.09 176.66 145.19 177.62 145.58 C 178.59 145.97 179.69 145.50 180.08 144.53 L 180.46 143.59 C 180.85 142.63 180.38 141.53 179.41 141.14 C 178.44 140.75 177.34 141.22 176.95 142.19 Z M 176.59 143.10 L 176.20 144.04 C 175.80 145.00 176.25 146.11 177.21 146.51 C 178.18 146.91 179.28 146.45 179.68 145.49 L 180.07 144.55 C 180.47 143.59 180.02 142.49 179.05 142.09 C 178.09 141.69 176.99 142.14 176.59 143.10 Z M 176.21 144.02 L 175.81 144.94 C 175.40 145.90 175.84 147.01 176.80 147.42 C 177.75 147.83 178.86 147.39 179.27 146.43 L 179.67 145.51 C 180.08 144.55 179.64 143.45 178.68 143.03 C 177.73 142.62 176.62 143.06 176.21 144.02 Z M 175.82 144.93 L 175.42 145.84 C 175.00 146.79 175.43 147.90 176.38 148.32 C 177.33 148.74 178.44 148.31 178.86 147.36 L 179.26 146.45 C 179.68 145.50 179.25 144.39 178.30 143.97 C 177.35 143.55 176.24 143.98 175.82 144.93 Z M 175.42 145.83 L 175.02 146.73 C 174.59 147.68 175.02 148.79 175.96 149.22 C 176.91 149.64 178.02 149.22 178.45 148.27 L 178.85 147.37 C 179.28 146.42 178.86 145.31 177.91 144.88 C 176.96 144.46 175.85 144.88 175.42 145.83 Z M 175.02 146.72 L 174.61 147.63 C 174.18 148.57 174.60 149.69 175.55 150.12 C 176.49 150.54 177.60 150.13 178.03 149.18 L 178.44 148.28 C 178.87 147.33 178.46 146.22 177.51 145.79 C 176.57 145.36 175.45 145.78 175.02 146.72 Z M 174.62 147.62 L 174.20 148.53 C 173.77 149.47 174.19 150.58 175.13 151.01 C 176.07 151.45 177.18 151.03 177.62 150.09 L 178.03 149.19 C 178.46 148.24 178.05 147.13 177.10 146.70 C 176.16 146.27 175.05 146.68 174.62 147.62 Z M 174.21 148.52 L 173.79 149.43 C 173.36 150.37 173.77 151.49 174.71 151.92 C 175.65 152.35 176.76 151.94 177.19 151.00 L 177.61 150.09 C 178.04 149.15 177.63 148.04 176.69 147.61 C 175.75 147.17 174.64 147.58 174.21 148.52 Z M 173.79 149.43 L 173.37 150.35 C 172.94 151.29 173.34 152.40 174.28 152.83 C 175.22 153.27 176.33 152.86 176.77 151.92 L 177.19 151.00 C 177.62 150.06 177.21 148.95 176.28 148.52 C 175.34 148.08 174.23 148.49 173.79 149.43 Z M 173.37 150.35 L 172.96 151.24 C 172.52 152.18 172.93 153.29 173.87 153.72 C 174.80 154.15 175.91 153.75 176.35 152.81 L 176.76 151.92 C 177.20 150.98 176.79 149.87 175.85 149.44 C 174.92 149.00 173.81 149.41 173.37 150.35 Z M 172.96 151.24 L 172.54 152.15 C 172.11 153.08 172.52 154.19 173.45 154.62 C 174.38 155.06 175.49 154.65 175.92 153.72 L 176.34 152.81 C 176.78 151.88 176.37 150.77 175.44 150.34 C 174.50 149.90 173.40 150.31 172.96 151.24 Z M 172.55 152.15 L 172.12 153.06 C 171.69 153.99 172.10 155.10 173.03 155.53 C 173.96 155.96 175.06 155.56 175.50 154.63 L 175.92 153.71 C 176.35 152.78 175.95 151.68 175.02 151.25 C 174.08 150.81 172.98 151.22 172.55 152.15 Z M 172.13 153.06 L 171.70 153.98 C 171.27 154.91 171.67 156.01 172.60 156.45 C 173.53 156.88 174.64 156.47 175.07 155.54 L 175.49 154.63 C 175.92 153.70 175.52 152.59 174.59 152.16 C 173.66 151.73 172.56 152.14 172.13 153.06 Z M 171.70 153.98 L 171.28 154.89 C 170.85 155.82 171.26 156.92 172.18 157.35 C 173.11 157.78 174.21 157.38 174.64 156.45 L 175.06 155.54 C 175.49 154.61 175.09 153.51 174.16 153.08 C 173.24 152.65 172.13 153.06 171.70 153.98 Z M 171.29 154.90 L 170.87 155.81 C 170.44 156.73 170.84 157.83 171.77 158.26 C 172.69 158.69 173.79 158.28 174.22 157.36 L 174.64 156.45 C 175.07 155.52 174.66 154.42 173.74 154.00 C 172.81 153.57 171.71 153.97 171.29 154.90 Z M 170.87 155.82 L 170.45 156.72 C 170.03 157.65 170.44 158.74 171.36 159.17 C 172.29 159.59 173.38 159.18 173.80 158.26 L 174.22 157.35 C 174.64 156.42 174.23 155.33 173.31 154.91 C 172.38 154.48 171.29 154.89 170.87 155.82 Z M 170.45 156.74 L 170.04 157.64 C 169.62 158.57 170.04 159.66 170.96 160.07 C 171.89 160.49 172.97 160.08 173.39 159.15 L 173.80 158.25 C 174.22 157.32 173.81 156.23 172.88 155.82 C 171.96 155.40 170.87 155.81 170.45 156.74 Z M 170.04 157.66 L 169.64 158.56 C 169.23 159.48 169.65 160.56 170.58 160.97 C 171.50 161.38 172.58 160.97 172.99 160.04 L 173.39 159.14 C 173.80 158.22 173.38 157.13 172.46 156.72 C 171.53 156.31 170.45 156.73 170.04 157.66 Z M 169.64 158.57 L 169.25 159.48 C 168.85 160.40 169.27 161.48 170.20 161.88 C 171.12 162.28 172.20 161.86 172.60 160.93 L 172.99 160.03 C 173.40 159.10 172.97 158.03 172.05 157.62 C 171.12 157.22 170.05 157.65 169.64 158.57 Z M 169.25 159.49 L 168.86 160.41 C 168.46 161.33 168.89 162.40 169.82 162.80 C 170.74 163.19 171.81 162.76 172.21 161.84 L 172.60 160.92 C 172.99 159.99 172.56 158.93 171.64 158.53 C 170.72 158.14 169.65 158.56 169.25 159.49 Z M 168.86 160.42 L 168.47 161.36 C 168.08 162.28 168.51 163.35 169.43 163.74 C 170.36 164.12 171.42 163.69 171.81 162.77 L 172.20 161.83 C 172.59 160.90 172.16 159.84 171.24 159.45 C 170.31 159.06 169.25 159.50 168.86 160.42 Z M 168.47 161.37 L 168.08 162.30 C 167.70 163.23 168.14 164.28 169.06 164.67 C 169.98 165.05 171.04 164.61 171.42 163.69 L 171.81 162.76 C 172.19 161.84 171.75 160.78 170.83 160.40 C 169.91 160.01 168.85 160.45 168.47 161.37 Z M 168.09 162.31 L 167.70 163.25 C 167.32 164.17 167.76 165.22 168.68 165.60 C 169.60 165.98 170.65 165.54 171.03 164.62 L 171.41 163.68 C 171.79 162.76 171.35 161.71 170.43 161.33 C 169.51 160.96 168.46 161.40 168.09 162.31 Z M 167.71 163.26 L 167.33 164.20 C 166.95 165.12 167.39 166.16 168.31 166.53 C 169.23 166.90 170.27 166.46 170.64 165.55 L 171.02 164.61 C 171.40 163.69 170.95 162.65 170.04 162.28 C 169.12 161.90 168.08 162.35 167.71 163.26 Z M 167.33 164.21 L 166.96 165.13 C 166.59 166.04 167.04 167.08 167.95 167.45 C 168.86 167.81 169.90 167.37 170.27 166.46 L 170.64 165.54 C 171.00 164.62 170.56 163.59 169.65 163.22 C 168.73 162.85 167.70 163.30 167.33 164.21 Z M 166.97 165.14 L 166.59 166.08 C 166.23 166.99 166.68 168.03 167.59 168.39 C 168.50 168.75 169.53 168.30 169.89 167.39 L 170.26 166.45 C 170.63 165.54 170.18 164.51 169.27 164.14 C 168.36 163.78 167.33 164.23 166.97 165.14 Z M 166.60 166.10 L 166.22 167.06 C 165.86 167.97 166.31 169.00 167.22 169.35 C 168.13 169.71 169.15 169.26 169.51 168.35 L 169.89 167.38 C 170.24 166.47 169.79 165.45 168.88 165.09 C 167.97 164.74 166.95 165.19 166.60 166.10 Z M 166.22 167.08 L 165.87 168.01 C 165.52 168.91 165.98 169.93 166.88 170.28 C 167.79 170.62 168.80 170.17 169.15 169.26 L 169.50 168.33 C 169.85 167.43 169.40 166.41 168.49 166.06 C 167.58 165.72 166.57 166.17 166.22 167.08 Z M 165.87 168.03 L 165.54 168.92 C 165.20 169.83 165.66 170.83 166.57 171.17 C 167.47 171.50 168.48 171.04 168.82 170.14 L 169.15 169.24 C 169.48 168.34 169.02 167.33 168.12 166.99 C 167.21 166.66 166.20 167.12 165.87 168.03 Z M 165.54 168.94 L 165.23 169.82 C 164.90 170.72 165.37 171.72 166.28 172.04 C 167.18 172.37 168.18 171.89 168.50 170.99 L 168.82 170.12 C 169.14 169.21 168.67 168.21 167.76 167.89 C 166.86 167.57 165.86 168.04 165.54 168.94 Z M 165.23 169.84 L 164.92 170.72 C 164.61 171.62 165.08 172.61 165.99 172.92 C 166.89 173.24 167.88 172.76 168.19 171.86 L 168.50 170.97 C 168.81 170.07 168.34 169.08 167.43 168.77 C 166.53 168.45 165.54 168.93 165.23 169.84 Z M 164.93 170.73 L 164.60 171.67 C 164.30 172.57 164.78 173.55 165.68 173.86 C 166.58 174.17 167.56 173.69 167.87 172.79 L 168.19 171.85 C 168.50 170.95 168.01 169.97 167.11 169.66 C 166.21 169.35 165.23 169.83 164.93 170.73 Z M 164.61 171.67 L 164.26 172.71 C 163.95 173.61 164.43 174.58 165.33 174.89 C 166.22 175.19 167.20 174.72 167.50 173.82 L 167.86 172.78 C 168.16 171.89 167.69 170.91 166.79 170.60 C 165.89 170.30 164.92 170.78 164.61 171.67 Z M 164.27 172.71 L 163.96 173.61 C 163.65 174.50 164.12 175.47 165.01 175.78 C 165.90 176.09 166.88 175.62 167.18 174.72 L 167.49 173.82 C 167.80 172.93 167.33 171.96 166.44 171.65 C 165.55 171.34 164.57 171.82 164.27 172.71 Z M 163.96 173.61 L 163.64 174.53 C 163.33 175.42 163.80 176.39 164.69 176.70 C 165.57 177.01 166.54 176.54 166.85 175.65 L 167.18 174.73 C 167.49 173.84 167.02 172.87 166.13 172.56 C 165.24 172.25 164.27 172.72 163.96 173.61 Z M 163.65 174.53 L 163.31 175.49 C 163.00 176.37 163.46 177.34 164.34 177.65 C 165.22 177.97 166.19 177.50 166.50 176.62 L 166.84 175.66 C 167.16 174.78 166.69 173.81 165.81 173.50 C 164.93 173.18 163.96 173.65 163.65 174.53 Z M 163.32 175.48 L 162.97 176.46 C 162.65 177.34 163.10 178.31 163.98 178.62 C 164.86 178.94 165.83 178.48 166.14 177.60 L 166.49 176.63 C 166.81 175.75 166.36 174.78 165.48 174.47 C 164.60 174.15 163.63 174.61 163.32 175.48 Z M 162.98 176.45 L 162.62 177.42 C 162.30 178.29 162.75 179.25 163.62 179.58 C 164.49 179.90 165.46 179.45 165.78 178.58 L 166.13 177.61 C 166.45 176.74 166.01 175.77 165.14 175.45 C 164.26 175.13 163.30 175.58 162.98 176.45 Z M 162.63 177.40 L 162.26 178.38 C 161.93 179.25 162.37 180.21 163.24 180.54 C 164.10 180.87 165.07 180.43 165.40 179.57 L 165.77 178.59 C 166.09 177.72 165.66 176.76 164.79 176.43 C 163.93 176.10 162.96 176.54 162.63 177.40 Z M 162.27 178.37 L 161.90 179.32 C 161.57 180.18 162.00 181.15 162.86 181.48 C 163.71 181.82 164.68 181.39 165.01 180.53 L 165.38 179.58 C 165.72 178.72 165.29 177.75 164.43 177.42 C 163.58 177.09 162.61 177.51 162.27 178.37 Z M 161.92 179.31 L 161.55 180.24 C 161.21 181.09 161.63 182.06 162.48 182.39 C 163.33 182.73 164.30 182.32 164.64 181.46 L 165.00 180.54 C 165.34 179.69 164.92 178.72 164.07 178.38 C 163.22 178.05 162.25 178.46 161.92 179.31 Z M 161.56 180.23 L 161.20 181.14 C 160.85 181.98 161.26 182.95 162.11 183.29 C 162.96 183.63 163.92 183.22 164.26 182.37 L 164.63 181.47 C 164.97 180.62 164.56 179.66 163.71 179.32 C 162.86 178.98 161.90 179.39 161.56 180.23 Z M 161.20 181.14 L 160.86 181.99 C 160.52 182.83 160.92 183.79 161.76 184.14 C 162.61 184.48 163.57 184.07 163.91 183.23 L 164.25 182.37 C 164.60 181.53 164.19 180.57 163.35 180.23 C 162.51 179.89 161.55 180.29 161.20 181.14 Z"
      fill="black"
      fill-rule="nonzero" /><path d="M 175.37 153.37 L 176.15 154.04 C 176.92 154.71 178.09 154.62 178.76 153.84 C 179.43 153.06 179.33 151.89 178.56 151.23 L 177.78 150.56 C 177.00 149.89 175.83 149.98 175.17 150.76 C 174.50 151.54 174.59 152.71 175.37 153.37 Z M 176.12 154.08 L 176.89 154.74 C 177.69 155.42 178.89 155.32 179.57 154.52 C 180.25 153.72 180.15 152.53 179.35 151.85 L 178.58 151.19 C 177.78 150.51 176.59 150.61 175.91 151.41 C 175.23 152.20 175.33 153.40 176.12 154.08 Z M 176.88 154.78 L 177.63 155.41 C 178.45 156.10 179.68 155.99 180.37 155.17 C 181.05 154.35 180.95 153.13 180.13 152.44 L 179.37 151.80 C 178.55 151.12 177.33 151.22 176.64 152.04 C 175.95 152.86 176.05 154.09 176.88 154.78 Z M 177.62 155.45 L 178.37 156.07 C 179.21 156.76 180.46 156.64 181.15 155.79 C 181.85 154.95 181.72 153.70 180.88 153.01 L 180.13 152.40 C 179.29 151.70 178.04 151.82 177.35 152.67 C 176.66 153.51 176.78 154.76 177.62 155.45 Z M 178.38 156.10 L 179.13 156.70 C 179.99 157.39 181.25 157.25 181.94 156.39 C 182.63 155.53 182.49 154.27 181.63 153.58 L 180.87 152.98 C 180.01 152.29 178.75 152.43 178.06 153.29 C 177.38 154.15 177.52 155.41 178.38 156.10 Z M 179.15 156.72 L 179.93 157.33 C 180.80 158.01 182.06 157.85 182.74 156.98 C 183.42 156.10 183.27 154.84 182.39 154.16 L 181.61 153.56 C 180.74 152.88 179.48 153.03 178.80 153.91 C 178.12 154.78 178.27 156.04 179.15 156.72 Z M 179.94 157.35 L 180.77 157.98 C 181.65 158.66 182.92 158.49 183.59 157.60 C 184.27 156.71 184.10 155.45 183.21 154.78 L 182.38 154.14 C 181.49 153.47 180.23 153.64 179.56 154.53 C 178.88 155.41 179.05 156.68 179.94 157.35 Z M 180.77 157.99 L 181.47 158.52 C 182.36 159.19 183.63 159.01 184.30 158.12 C 184.97 157.23 184.80 155.96 183.90 155.29 L 183.20 154.76 C 182.31 154.09 181.05 154.27 180.38 155.16 C 179.70 156.05 179.88 157.32 180.77 157.99 Z M 181.47 158.52 L 182.23 159.09 C 183.12 159.76 184.39 159.59 185.06 158.69 C 185.73 157.80 185.56 156.54 184.66 155.86 L 183.91 155.29 C 183.02 154.62 181.75 154.80 181.07 155.69 C 180.40 156.58 180.58 157.85 181.47 158.52 Z M 182.22 159.09 L 183.03 159.71 C 183.92 160.39 185.19 160.21 185.87 159.32 C 186.55 158.43 186.38 157.16 185.49 156.49 L 184.67 155.87 C 183.78 155.19 182.51 155.36 181.84 156.25 C 181.16 157.14 181.33 158.41 182.22 159.09 Z M 183.02 159.70 L 183.89 160.37 C 184.77 161.06 186.05 160.90 186.73 160.01 C 187.42 159.13 187.26 157.86 186.37 157.17 L 185.50 156.50 C 184.62 155.81 183.34 155.97 182.66 156.86 C 181.97 157.74 182.14 159.01 183.02 159.70 Z M 183.87 160.36 L 184.70 161.02 C 185.58 161.71 186.86 161.57 187.55 160.69 C 188.25 159.81 188.10 158.53 187.22 157.84 L 186.39 157.18 C 185.51 156.49 184.24 156.64 183.54 157.51 C 182.85 158.39 182.99 159.67 183.87 160.36 Z M 184.69 161.01 L 185.49 161.65 C 186.36 162.35 187.63 162.22 188.34 161.35 C 189.04 160.47 188.90 159.20 188.03 158.50 L 187.23 157.85 C 186.36 157.15 185.09 157.29 184.38 158.16 C 183.68 159.03 183.82 160.30 184.69 161.01 Z M 185.47 161.64 L 186.28 162.30 C 187.14 163.01 188.42 162.88 189.13 162.02 C 189.84 161.15 189.71 159.87 188.85 159.16 L 188.04 158.51 C 187.18 157.80 185.90 157.92 185.19 158.79 C 184.48 159.65 184.61 160.93 185.47 161.64 Z M 186.26 162.28 L 187.05 162.94 C 187.91 163.66 189.18 163.54 189.90 162.68 C 190.62 161.82 190.50 160.55 189.64 159.83 L 188.86 159.18 C 188.00 158.46 186.72 158.58 186.01 159.43 C 185.29 160.29 185.41 161.57 186.26 162.28 Z M 187.04 162.93 L 187.78 163.56 C 188.63 164.28 189.91 164.18 190.63 163.33 C 191.36 162.48 191.25 161.20 190.40 160.48 L 189.65 159.84 C 188.80 159.12 187.53 159.22 186.80 160.08 C 186.08 160.93 186.18 162.20 187.04 162.93 Z M 187.77 163.55 L 188.51 164.19 C 189.36 164.92 190.63 164.83 191.37 163.99 C 192.10 163.15 192.01 161.87 191.16 161.14 L 190.42 160.49 C 189.57 159.76 188.30 159.85 187.56 160.69 C 186.83 161.54 186.92 162.81 187.77 163.55 Z M 188.49 164.17 L 189.31 164.90 C 190.15 165.64 191.42 165.57 192.16 164.74 C 192.90 163.91 192.83 162.63 192.00 161.89 L 191.18 161.16 C 190.35 160.42 189.08 160.49 188.33 161.32 C 187.59 162.15 187.66 163.43 188.49 164.17 Z M 189.29 164.87 L 190.02 165.54 C 190.83 166.30 192.10 166.25 192.86 165.44 C 193.61 164.62 193.56 163.35 192.75 162.60 L 192.02 161.92 C 191.21 161.17 189.94 161.22 189.18 162.03 C 188.43 162.84 188.48 164.12 189.29 164.87 Z M 189.99 165.51 L 190.66 166.16 C 191.46 166.92 192.73 166.90 193.49 166.10 C 194.26 165.31 194.24 164.04 193.44 163.27 L 192.77 162.63 C 191.98 161.86 190.71 161.88 189.94 162.68 C 189.17 163.48 189.20 164.75 189.99 165.51 Z M 190.64 166.13 L 191.30 166.78 C 192.08 167.56 193.34 167.56 194.12 166.77 C 194.90 165.99 194.90 164.73 194.12 163.95 L 193.46 163.30 C 192.68 162.52 191.41 162.52 190.64 163.30 C 189.86 164.09 189.86 165.35 190.64 166.13 Z M 191.28 166.76 L 191.97 167.45 C 192.73 168.24 194.00 168.25 194.78 167.49 C 195.57 166.72 195.58 165.46 194.81 164.67 L 194.13 163.97 C 193.36 163.19 192.10 163.17 191.32 163.94 C 190.53 164.71 190.52 165.97 191.28 166.76 Z M 191.96 167.43 L 192.64 168.15 C 193.40 168.95 194.66 168.97 195.45 168.22 C 196.24 167.46 196.27 166.20 195.51 165.41 L 194.82 164.69 C 194.06 163.90 192.81 163.87 192.02 164.63 C 191.23 165.39 191.20 166.64 191.96 167.43 Z M 192.64 168.14 L 193.34 168.88 C 194.09 169.68 195.34 169.72 196.13 168.97 C 196.93 168.22 196.97 166.97 196.22 166.17 L 195.52 165.43 C 194.77 164.63 193.52 164.59 192.72 165.34 C 191.93 166.09 191.89 167.34 192.64 168.14 Z M 193.34 168.87 L 194.03 169.61 C 194.77 170.41 196.01 170.46 196.81 169.72 C 197.61 168.98 197.65 167.73 196.91 166.93 L 196.22 166.19 C 195.48 165.39 194.24 165.34 193.44 166.08 C 192.64 166.83 192.60 168.07 193.34 168.87 Z M 194.03 169.60 L 194.71 170.35 C 195.45 171.14 196.69 171.19 197.48 170.46 C 198.28 169.73 198.33 168.49 197.60 167.69 L 196.91 166.95 C 196.18 166.15 194.94 166.10 194.14 166.83 C 193.35 167.56 193.30 168.80 194.03 169.60 Z M 194.72 170.33 L 195.40 171.08 C 196.13 171.87 197.36 171.93 198.15 171.20 C 198.95 170.48 199.00 169.24 198.28 168.45 L 197.60 167.70 C 196.87 166.91 195.64 166.85 194.84 167.58 C 194.05 168.31 193.99 169.54 194.72 170.33 Z M 195.40 171.07 L 196.07 171.80 C 196.79 172.59 198.01 172.65 198.81 171.93 C 199.60 171.21 199.66 169.98 198.94 169.19 L 198.27 168.46 C 197.55 167.67 196.33 167.61 195.53 168.33 C 194.74 169.05 194.68 170.27 195.40 171.07 Z M 196.07 171.79 L 196.76 172.55 C 197.47 173.34 198.69 173.40 199.48 172.69 C 200.27 171.97 200.34 170.76 199.62 169.97 L 198.93 169.20 C 198.22 168.41 197.00 168.35 196.21 169.06 C 195.42 169.78 195.36 171.00 196.07 171.79 Z M 196.76 172.53 L 197.43 173.29 C 198.14 174.08 199.35 174.15 200.14 173.45 C 200.93 172.74 201.00 171.53 200.30 170.74 L 199.62 169.98 C 198.92 169.19 197.71 169.12 196.92 169.83 C 196.13 170.53 196.06 171.74 196.76 172.53 Z M 197.43 173.26 L 198.07 174.00 C 198.76 174.80 199.96 174.88 200.75 174.19 C 201.55 173.51 201.64 172.30 200.95 171.51 L 200.31 170.77 C 199.62 169.97 198.41 169.89 197.62 170.57 C 196.82 171.26 196.74 172.47 197.43 173.26 Z M 198.05 173.97 L 198.67 174.71 C 199.34 175.52 200.54 175.63 201.34 174.96 C 202.14 174.29 202.25 173.10 201.58 172.29 L 200.96 171.54 C 200.29 170.74 199.10 170.63 198.30 171.30 C 197.49 171.97 197.38 173.16 198.05 173.97 Z M 198.66 174.67 L 199.29 175.47 C 199.93 176.28 201.12 176.42 201.93 175.77 C 202.74 175.12 202.88 173.94 202.23 173.13 L 201.60 172.33 C 200.95 171.52 199.77 171.38 198.96 172.03 C 198.15 172.68 198.01 173.86 198.66 174.67 Z M 199.28 175.44 L 199.89 176.23 C 200.52 177.04 201.69 177.20 202.51 176.57 C 203.32 175.94 203.48 174.77 202.85 173.95 L 202.24 173.16 C 201.61 172.34 200.44 172.19 199.62 172.82 C 198.81 173.45 198.65 174.62 199.28 175.44 Z M 199.90 176.21 L 200.49 176.99 C 201.11 177.81 202.27 177.96 203.09 177.34 C 203.90 176.72 204.06 175.56 203.44 174.75 L 202.84 173.97 C 202.22 173.16 201.06 173.00 200.25 173.62 C 199.44 174.24 199.28 175.40 199.90 176.21 Z M 200.51 176.99 L 201.07 177.72 C 201.69 178.53 202.84 178.68 203.64 178.07 C 204.45 177.45 204.60 176.30 203.99 175.50 L 203.42 174.76 C 202.81 173.95 201.66 173.80 200.85 174.41 C 200.05 175.03 199.89 176.18 200.51 176.99 Z M 201.08 177.71 L 201.65 178.47 C 202.26 179.27 203.40 179.43 204.20 178.82 C 205.00 178.22 205.16 177.08 204.56 176.28 L 203.98 175.51 C 203.38 174.71 202.24 174.55 201.43 175.16 C 200.63 175.76 200.47 176.90 201.08 177.71 Z M 201.65 178.44 L 202.26 179.28 C 202.85 180.08 203.98 180.26 204.78 179.67 C 205.59 179.08 205.76 177.95 205.18 177.15 L 204.56 176.31 C 203.97 175.50 202.85 175.33 202.04 175.92 C 201.24 176.50 201.06 177.63 201.65 178.44 Z M 202.26 179.24 L 202.85 180.08 C 203.41 180.89 204.53 181.08 205.34 180.52 C 206.14 179.95 206.34 178.84 205.77 178.03 L 205.18 177.19 C 204.62 176.38 203.50 176.18 202.69 176.75 C 201.88 177.32 201.69 178.43 202.26 179.24 Z M 202.84 180.05 L 203.38 180.85 C 203.94 181.66 205.04 181.88 205.85 181.32 C 206.66 180.77 206.87 179.67 206.32 178.86 L 205.78 178.06 C 205.23 177.25 204.12 177.03 203.31 177.59 C 202.50 178.14 202.29 179.24 202.84 180.05 Z M 203.38 180.83 L 203.95 181.68 C 204.49 182.49 205.58 182.71 206.39 182.17 C 207.20 181.63 207.43 180.54 206.89 179.73 L 206.32 178.88 C 205.78 178.07 204.69 177.85 203.88 178.39 C 203.07 178.93 202.85 180.02 203.38 180.83 Z M 203.95 181.66 L 204.52 182.53 C 205.04 183.34 206.13 183.57 206.94 183.04 C 207.75 182.51 207.98 181.42 207.45 180.61 L 206.88 179.75 C 206.36 178.94 205.27 178.71 204.46 179.24 C 203.65 179.77 203.42 180.85 203.95 181.66 Z M 204.52 182.51 L 205.07 183.37 C 205.59 184.18 206.67 184.42 207.48 183.90 C 208.29 183.38 208.52 182.30 208.00 181.49 L 207.45 180.63 C 206.93 179.82 205.85 179.59 205.04 180.11 C 204.23 180.63 204.00 181.70 204.52 182.51 Z M 205.08 183.35 L 205.65 184.26 C 206.16 185.06 207.22 185.30 208.03 184.80 C 208.83 184.29 209.07 183.22 208.57 182.42 L 208.00 181.51 C 207.49 180.70 206.42 180.46 205.61 180.97 C 204.81 181.48 204.57 182.55 205.08 183.35 Z M 205.65 184.22 L 206.17 185.09 C 206.66 185.90 207.71 186.16 208.52 185.67 C 209.32 185.19 209.58 184.14 209.10 183.33 L 208.57 182.45 C 208.08 181.65 207.03 181.39 206.23 181.88 C 205.42 182.36 205.16 183.41 205.65 184.22 Z M 206.16 185.03 L 206.64 185.89 C 207.09 186.70 208.12 186.99 208.93 186.54 C 209.74 186.09 210.04 185.06 209.58 184.25 L 209.11 183.39 C 208.66 182.58 207.63 182.29 206.82 182.74 C 206.00 183.19 205.71 184.22 206.16 185.03 Z M 206.61 185.80 L 207.03 186.65 C 207.43 187.47 208.43 187.81 209.26 187.41 C 210.08 187.01 210.43 186.01 210.02 185.18 L 209.61 184.33 C 209.20 183.51 208.20 183.17 207.38 183.57 C 206.55 183.97 206.21 184.97 206.61 185.80 Z M 206.99 186.54 L 207.37 187.46 C 207.71 188.31 208.68 188.71 209.52 188.37 C 210.37 188.02 210.78 187.06 210.43 186.22 L 210.06 185.29 C 209.71 184.45 208.75 184.04 207.90 184.38 C 207.06 184.73 206.65 185.69 206.99 186.54 Z M 207.34 187.36 L 207.66 188.31 C 207.94 189.17 208.88 189.64 209.74 189.35 C 210.60 189.06 211.07 188.13 210.78 187.27 L 210.46 186.32 C 210.18 185.45 209.24 184.99 208.38 185.28 C 207.52 185.56 207.05 186.50 207.34 187.36 Z M 207.64 188.24 L 207.91 189.19 C 208.16 190.07 209.07 190.57 209.94 190.32 C 210.81 190.07 211.32 189.16 211.07 188.29 L 210.80 187.34 C 210.55 186.46 209.64 185.96 208.77 186.21 C 207.89 186.46 207.39 187.37 207.64 188.24 Z M 207.91 189.16 L 208.14 190.06 C 208.37 190.93 209.27 191.46 210.14 191.23 C 211.02 191.00 211.54 190.10 211.31 189.23 L 211.08 188.33 C 210.85 187.45 209.95 186.93 209.07 187.16 C 208.20 187.39 207.68 188.28 207.91 189.16 Z"
      fill="black"
      fill-rule="nonzero" /></svg>