<svg xmlns="http://www.w3.org/2000/svg" width="300" height="300" viewBox="0 0 300 300">
<path d="M 112.20 108.82 L 111.55 109.83 C 111.02 110.66 111.27 111.77 112.11 112.30 C 112.94 112.83 114.05 112.59 114.58 111.75 L 115.22 110.74 C 115.76 109.90 115.51 108.80 114.67 108.26 C 113.84 107.73 112.73 107.98 112.20 108.82 Z M 111.30 110.31 L 111.08 111.15 C 110.82 112.12 111.40 113.13 112.37 113.39 C 113.35 113.65 114.35 113.07 114.61 112.10 L 114.84 111.26 C 115.10 110.29 114.52 109.28 113.54 109.02 C 112.57 108.76 111.56 109.34 111.30 110.31 Z M 111.53 112.93 L 111.97 113.37 C 112.70 114.10 113.87 114.10 114.60 113.38 C 115.32 112.65 115.32 111.48 114.60 110.75 L 114.16 110.31 C 113.44 109.59 112.26 109.58 111.54 110.31 C 110.81 111.03 110.81 112.21 111.53 112.93 Z M 112.93 113.89 L 113.80 114.06 C 114.81 114.26 115.79 113.60 115.98 112.59 C 116.18 111.58 115.52 110.60 114.51 110.40 L 113.64 110.23 C 112.63 110.04 111.66 110.70 111.46 111.71 C 111.26 112.72 111.92 113.69 112.93 113.89 Z M 114.10 114.10 L 115.24 114.13 C 116.27 114.16 117.13 113.34 117.16 112.31 C 117.18 111.28 116.37 110.43 115.34 110.40 L 114.20 110.37 C 113.17 110.34 112.32 111.15 112.29 112.18 C 112.26 113.21 113.08 114.07 114.10 114.10 Z M 115.37 114.13 L 116.53 114.08 C 117.56 114.04 118.36 113.17 118.32 112.15 C 118.28 111.12 117.41 110.31 116.38 110.35 L 115.22 110.40 C 114.19 110.44 113.39 111.31 113.43 112.34 C 113.47 113.37 114.34 114.17 115.37 114.13 Z M 116.59 114.08 L 117.57 114.01 C 118.60 113.93 119.37 113.04 119.30 112.02 C 119.23 110.99 118.33 110.22 117.31 110.29 L 116.32 110.36 C 115.30 110.43 114.53 111.32 114.60 112.35 C 114.67 113.38 115.56 114.15 116.59 114.08 Z M 117.63 114.00 L 118.61 113.90 C 119.63 113.79 120.37 112.88 120.27 111.86 C 120.17 110.84 119.26 110.10 118.24 110.20 L 117.25 110.30 C 116.23 110.40 115.49 111.31 115.59 112.34 C 115.70 113.36 116.61 114.10 117.63 114.00 Z M 118.67 113.88 L 119.66 113.75 C 120.67 113.62 121.39 112.69 121.25 111.67 C 121.12 110.66 120.18 109.95 119.17 110.08 L 118.18 110.21 C 117.16 110.35 116.45 111.28 116.59 112.29 C 116.72 113.31 117.65 114.02 118.67 113.88 Z M 119.72 113.74 L 120.71 113.57 C 121.72 113.41 122.40 112.46 122.23 111.45 C 122.06 110.44 121.11 109.76 120.11 109.93 L 119.11 110.10 C 118.11 110.26 117.43 111.21 117.60 112.22 C 117.76 113.22 118.71 113.90 119.72 113.74 Z M 120.76 113.56 L 121.70 113.38 C 122.69 113.18 123.35 112.22 123.15 111.22 C 122.96 110.22 121.99 109.57 120.99 109.76 L 120.06 109.95 C 119.06 110.14 118.41 111.10 118.60 112.10 C 118.80 113.10 119.76 113.75 120.76 113.56 Z M 121.73 113.36 L 122.70 113.16 C 123.69 112.94 124.32 111.96 124.10 110.97 C 123.89 109.98 122.91 109.35 121.92 109.57 L 120.96 109.78 C 119.97 109.99 119.34 110.97 119.55 111.96 C 119.77 112.95 120.74 113.58 121.73 113.36 Z M 122.72 113.14 L 123.71 112.91 C 124.70 112.68 125.31 111.70 125.08 110.72 C 124.85 109.73 123.87 109.12 122.88 109.35 L 121.89 109.58 C 120.91 109.81 120.30 110.79 120.53 111.78 C 120.76 112.76 121.74 113.37 122.72 113.14 Z M 123.73 112.90 L 124.75 112.65 C 125.72 112.41 126.32 111.43 126.08 110.45 C 125.84 109.47 124.85 108.87 123.87 109.11 L 122.86 109.36 C 121.88 109.60 121.29 110.59 121.53 111.57 C 121.77 112.54 122.76 113.14 123.73 112.90 Z M 124.76 112.64 L 125.73 112.40 C 126.71 112.15 127.29 111.16 127.05 110.19 C 126.80 109.21 125.81 108.63 124.84 108.87 L 123.86 109.12 C 122.89 109.37 122.30 110.36 122.55 111.33 C 122.80 112.30 123.79 112.89 124.76 112.64 Z M 125.74 112.38 L 126.70 112.13 C 127.67 111.88 128.25 110.89 127.99 109.93 C 127.74 108.96 126.75 108.38 125.79 108.63 L 124.83 108.88 C 123.86 109.14 123.28 110.12 123.54 111.09 C 123.79 112.06 124.78 112.64 125.74 112.38 Z M 126.71 112.12 L 127.68 111.87 C 128.64 111.61 129.21 110.62 128.95 109.66 C 128.70 108.70 127.71 108.13 126.75 108.39 L 125.78 108.65 C 124.82 108.90 124.25 109.89 124.51 110.85 C 124.76 111.81 125.75 112.38 126.71 112.12 Z M 127.68 111.85 L 128.65 111.59 C 129.61 111.33 130.17 110.35 129.91 109.40 C 129.66 108.44 128.68 107.88 127.72 108.14 L 126.75 108.40 C 125.79 108.66 125.23 109.64 125.49 110.59 C 125.74 111.55 126.73 112.11 127.68 111.85 Z M 128.65 111.58 L 129.63 111.32 C 130.58 111.06 131.14 110.08 130.88 109.13 C 130.62 108.18 129.64 107.62 128.69 107.88 L 127.72 108.15 C 126.77 108.40 126.21 109.38 126.47 110.33 C 126.73 111.28 127.71 111.84 128.65 111.58 Z M 129.63 111.31 L 130.61 111.04 C 131.56 110.78 132.11 109.80 131.85 108.86 C 131.59 107.92 130.62 107.36 129.68 107.62 L 128.69 107.89 C 127.75 108.15 127.19 109.12 127.45 110.07 C 127.71 111.01 128.69 111.57 129.63 111.31 Z M 130.62 111.03 L 131.60 110.75 C 132.54 110.49 133.09 109.52 132.83 108.59 C 132.57 107.65 131.60 107.10 130.66 107.36 L 129.68 107.63 C 128.74 107.89 128.19 108.86 128.45 109.80 C 128.71 110.74 129.68 111.29 130.62 111.03 Z M 131.60 110.74 L 132.57 110.47 C 133.50 110.21 134.05 109.24 133.79 108.31 C 133.52 107.38 132.56 106.84 131.63 107.10 L 130.66 107.37 C 129.73 107.63 129.18 108.60 129.44 109.53 C 129.70 110.46 130.67 111.00 131.60 110.74 Z M 132.58 110.46 L 133.53 110.19 C 134.46 109.92 134.99 108.96 134.73 108.03 C 134.46 107.11 133.50 106.57 132.57 106.84 L 131.62 107.11 C 130.70 107.37 130.16 108.34 130.43 109.26 C 130.69 110.19 131.65 110.72 132.58 110.46 Z M 133.54 110.17 L 134.47 109.90 C 135.39 109.63 135.91 108.67 135.64 107.75 C 135.38 106.84 134.41 106.31 133.50 106.58 L 132.57 106.85 C 131.65 107.12 131.12 108.08 131.39 109.00 C 131.66 109.92 132.62 110.44 133.54 110.17 Z M 134.48 109.89 L 135.40 109.61 C 136.31 109.34 136.82 108.37 136.55 107.46 C 136.27 106.56 135.31 106.04 134.40 106.31 L 133.49 106.59 C 132.58 106.87 132.06 107.83 132.34 108.74 C 132.61 109.65 133.57 110.16 134.48 109.89 Z M 135.41 109.60 L 136.32 109.31 C 137.22 109.03 137.73 108.07 137.45 107.17 C 137.16 106.27 136.20 105.76 135.30 106.04 L 134.39 106.33 C 133.49 106.61 132.99 107.57 133.27 108.47 C 133.55 109.37 134.51 109.88 135.41 109.60 Z M 136.34 109.30 L 137.26 109.00 C 138.16 108.71 138.65 107.75 138.36 106.85 C 138.07 105.96 137.11 105.47 136.22 105.76 L 135.29 106.06 C 134.40 106.35 133.91 107.31 134.19 108.20 C 134.48 109.09 135.44 109.58 136.34 109.30 Z M 137.28 108.98 L 138.24 108.66 C 139.13 108.36 139.60 107.40 139.31 106.52 C 139.01 105.63 138.05 105.15 137.17 105.45 L 136.20 105.77 C 135.32 106.07 134.84 107.03 135.14 107.91 C 135.43 108.80 136.39 109.28 137.28 108.98 Z M 138.25 108.64 L 139.28 108.29 C 140.15 107.98 140.62 107.03 140.32 106.15 C 140.01 105.27 139.06 104.81 138.18 105.11 L 137.15 105.47 C 136.28 105.77 135.81 106.73 136.12 107.60 C 136.42 108.48 137.38 108.95 138.25 108.64 Z M 139.29 108.28 L 140.14 107.97 C 141.01 107.66 141.47 106.71 141.16 105.84 C 140.85 104.97 139.90 104.51 139.03 104.82 L 138.17 105.12 C 137.30 105.43 136.84 106.39 137.15 107.26 C 137.46 108.13 138.42 108.58 139.29 108.28 Z M 140.15 107.96 L 141.05 107.64 C 141.92 107.33 142.37 106.37 142.06 105.51 C 141.74 104.64 140.79 104.19 139.92 104.50 L 139.02 104.83 C 138.15 105.14 137.70 106.09 138.02 106.96 C 138.33 107.83 139.28 108.28 140.15 107.96 Z M 141.06 107.63 L 141.99 107.29 C 142.85 106.98 143.30 106.02 142.99 105.16 C 142.67 104.30 141.72 103.85 140.86 104.17 L 139.92 104.51 C 139.06 104.82 138.61 105.78 138.93 106.64 C 139.24 107.50 140.19 107.95 141.06 107.63 Z M 141.99 107.29 L 142.96 106.93 C 143.82 106.62 144.26 105.67 143.94 104.81 C 143.63 103.95 142.68 103.51 141.82 103.82 L 140.85 104.17 C 139.99 104.49 139.55 105.44 139.87 106.30 C 140.18 107.16 141.14 107.60 141.99 107.29 Z M 142.96 106.93 L 143.94 106.56 C 144.80 106.25 145.23 105.30 144.92 104.44 C 144.60 103.59 143.65 103.15 142.80 103.47 L 141.82 103.83 C 140.96 104.14 140.52 105.09 140.84 105.95 C 141.15 106.80 142.10 107.24 142.96 106.93 Z M 143.94 106.56 L 144.93 106.19 C 145.78 105.88 146.22 104.93 145.91 104.08 C 145.59 103.23 144.64 102.79 143.79 103.10 L 142.80 103.47 C 141.95 103.79 141.51 104.73 141.83 105.59 C 142.14 106.44 143.09 106.87 143.94 106.56 Z M 144.93 106.19 L 145.05 106.15 C 145.90 105.83 146.33 104.89 146.02 104.04 C 145.70 103.18 144.76 102.75 143.91 103.06 L 143.79 103.11 C 142.94 103.42 142.51 104.37 142.82 105.22 C 143.14 106.07 144.08 106.50 144.93 106.19 Z"
      fill="black"
      fill-rule="nonzero" /><path d="M 121.13 113.85 L 120.62 114.70 C 120.08 115.58 120.37 116.73 121.25 117.26 C 122.13 117.80 123.28 117.52 123.81 116.64 L 124.33 115.79 C 124.86 114.91 124.58 113.76 123.70 113.22 C 122.81 112.69 121.67 112.97 121.13 113.85 Z M 120.56 114.79 L 120.09 115.66 C 119.61 116.58 119.96 117.71 120.87 118.20 C 121.78 118.69 122.92 118.34 123.41 117.42 L 123.87 116.55 C 124.36 115.63 124.01 114.50 123.10 114.01 C 122.18 113.53 121.05 113.87 120.56 114.79 Z M 120.00 115.85 L 119.63 116.78 C 119.25 117.75 119.72 118.84 120.69 119.23 C 121.65 119.61 122.75 119.14 123.13 118.17 L 123.50 117.24 C 123.88 116.27 123.41 115.18 122.44 114.79 C 121.48 114.41 120.38 114.88 120.00 115.85 Z M 119.54 117.05 L 119.32 118.00 C 119.08 119.02 119.71 120.03 120.73 120.27 C 121.74 120.51 122.76 119.88 122.99 118.86 L 123.22 117.91 C 123.45 116.89 122.82 115.88 121.81 115.64 C 120.79 115.40 119.78 116.03 119.54 117.05 Z M 119.28 118.23 L 119.17 119.21 C 119.06 120.25 119.81 121.18 120.84 121.29 C 121.88 121.41 122.81 120.66 122.92 119.63 L 123.03 118.64 C 123.15 117.60 122.40 116.67 121.36 116.56 C 120.33 116.44 119.40 117.19 119.28 118.23 Z M 119.16 119.35 L 119.13 120.36 C 119.09 121.40 119.90 122.28 120.94 122.32 C 121.98 122.36 122.85 121.55 122.89 120.51 L 122.93 119.49 C 122.97 118.45 122.16 117.58 121.12 117.54 C 120.08 117.50 119.20 118.31 119.16 119.35 Z M 119.13 120.43 L 119.12 121.44 C 119.12 122.48 119.96 123.33 121.00 123.33 C 122.04 123.34 122.88 122.50 122.89 121.46 L 122.89 120.44 C 122.90 119.40 122.06 118.56 121.02 118.55 C 119.98 118.55 119.13 119.39 119.13 120.43 Z M 119.12 121.45 L 119.12 122.42 C 119.12 123.45 119.97 124.29 121.00 124.29 C 122.04 124.29 122.88 123.45 122.88 122.42 L 122.88 121.45 C 122.88 120.41 122.04 119.57 121.00 119.57 C 119.97 119.57 119.12 120.41 119.12 121.45 Z M 119.13 122.42 L 119.13 123.39 C 119.13 124.42 119.97 125.26 121.00 125.26 C 122.04 125.26 122.88 124.42 122.88 123.39 L 122.88 122.42 C 122.88 121.38 122.04 120.54 121.00 120.54 C 119.97 120.54 119.13 121.38 119.13 122.42 Z M 119.14 123.39 L 119.14 124.40 C 119.14 125.43 119.97 126.27 121.00 126.27 C 122.04 126.27 122.87 125.43 122.87 124.40 L 122.87 123.39 C 122.87 122.36 122.04 121.52 121.00 121.52 C 119.97 121.52 119.14 122.36 119.14 123.39 Z M 119.14 124.40 L 119.14 125.41 C 119.14 126.44 119.98 127.27 121.00 127.27 C 122.03 127.27 122.87 126.44 122.87 125.41 L 122.87 124.40 C 122.87 123.37 122.03 122.54 121.00 122.54 C 119.98 122.54 119.14 123.37 119.14 124.40 Z M 119.14 125.41 L 119.14 126.33 C 119.14 127.36 119.98 128.19 121.00 128.19 C 122.03 128.19 122.86 127.36 122.86 126.33 L 122.86 125.41 C 122.86 124.38 122.03 123.55 121.00 123.55 C 119.98 123.55 119.14 124.38 119.14 125.41 Z M 119.15 126.33 L 119.15 127.31 C 119.15 128.33 119.98 129.17 121.00 129.17 C 122.03 129.17 122.86 128.33 122.86 127.31 L 122.86 126.33 C 122.86 125.31 122.03 124.48 121.00 124.48 C 119.98 124.48 119.15 125.31 119.15 126.33 Z M 119.15 127.31 L 119.15 128.34 C 119.15 129.36 119.98 130.19 121.00 130.19 C 122.03 130.19 122.86 129.36 122.86 128.34 L 122.86 127.31 C 122.86 126.28 122.03 125.45 121.00 125.45 C 119.98 125.45 119.15 126.28 119.15 127.31 Z M 119.15 128.34 L 119.15 129.41 C 119.15 130.43 119.98 131.26 121.00 131.26 C 122.03 131.26 122.86 130.43 122.86 129.41 L 122.86 128.34 C 122.86 127.31 122.03 126.48 121.00 126.48 C 119.98 126.48 119.15 127.31 119.15 128.34 Z M 119.15 129.41 L 119.15 130.47 C 119.15 131.49 119.98 132.32 121.00 132.32 C 122.03 132.32 122.85 131.49 122.85 130.47 L 122.85 129.41 C 122.85 128.39 122.03 127.56 121.00 127.56 C 119.98 127.56 119.15 128.39 119.15 129.41 Z M 119.16 130.47 L 119.16 131.51 C 119.16 132.53 119.98 133.36 121.00 133.36 C 122.02 133.36 122.85 132.53 122.85 131.51 L 122.85 130.47 C 122.85 129.45 122.02 128.62 121.00 128.62 C 119.98 128.62 119.16 129.45 119.16 130.47 Z M 119.16 131.51 L 119.16 132.55 C 119.16 133.57 119.99 134.39 121.00 134.39 C 122.02 134.39 122.85 133.57 122.85 132.55 L 122.85 131.51 C 122.85 130.49 122.02 129.67 121.00 129.67 C 119.99 129.67 119.16 130.49 119.16 131.51 Z M 119.16 132.55 L 119.16 133.56 C 119.16 134.57 119.99 135.40 121.00 135.40 C 122.02 135.40 122.84 134.57 122.84 133.56 L 122.84 132.55 C 122.84 131.53 122.02 130.71 121.00 130.71 C 119.99 130.71 119.16 131.53 119.16 132.55 Z M 119.17 133.56 L 119.17 134.51 C 119.17 135.52 119.99 136.34 121.00 136.34 C 122.02 136.34 122.84 135.52 122.84 134.51 L 122.84 133.56 C 122.84 132.54 122.02 131.72 121.00 131.72 C 119.99 131.72 119.17 132.54 119.17 133.56 Z M 119.17 134.51 L 119.17 135.54 C 119.17 136.55 119.99 137.37 121.00 137.37 C 122.02 137.37 122.84 136.55 122.84 135.54 L 122.84 134.51 C 122.84 133.49 122.02 132.67 121.00 132.67 C 119.99 132.67 119.17 133.49 119.17 134.51 Z M 119.18 135.54 L 119.18 136.60 C 119.18 137.61 120.00 138.43 121.00 138.43 C 122.01 138.43 122.83 137.61 122.83 136.60 L 122.83 135.54 C 122.83 134.53 122.01 133.71 121.00 133.71 C 120.00 133.71 119.18 134.53 119.18 135.54 Z M 119.19 136.60 L 119.19 137.56 C 119.19 138.57 120.00 139.38 121.00 139.38 C 122.01 139.38 122.82 138.57 122.82 137.56 L 122.82 136.60 C 122.82 135.60 122.01 134.78 121.00 134.78 C 120.00 134.78 119.19 135.60 119.19 136.60 Z M 119.19 137.56 L 119.19 138.46 C 119.19 139.46 120.00 140.28 121.00 140.28 C 122.01 140.28 122.82 139.46 122.82 138.46 L 122.82 137.56 C 122.82 136.56 122.01 135.75 121.00 135.75 C 120.00 135.75 119.19 136.56 119.19 137.56 Z M 119.20 138.46 L 119.20 139.44 C 119.20 140.44 120.01 141.25 121.00 141.25 C 122.00 141.25 122.81 140.44 122.81 139.44 L 122.81 138.46 C 122.81 137.47 122.00 136.66 121.00 136.66 C 120.01 136.66 119.20 137.47 119.20 138.46 Z M 119.20 139.44 L 119.20 140.44 C 119.20 141.44 120.01 142.24 121.00 142.24 C 122.00 142.24 122.81 141.44 122.81 140.44 L 122.81 139.44 C 122.81 138.45 122.00 137.64 121.00 137.64 C 120.01 137.64 119.20 138.45 119.20 139.44 Z M 119.21 140.44 L 119.21 141.45 C 119.21 142.44 120.01 143.24 121.00 143.24 C 122.00 143.24 122.80 142.44 122.80 141.45 L 122.80 140.44 C 122.80 139.45 122.00 138.64 121.00 138.64 C 120.01 138.64 119.21 139.45 119.21 140.44 Z M 119.21 141.45 L 119.21 142.44 C 119.21 143.43 120.01 144.23 121.00 144.23 C 121.99 144.23 122.80 143.43 122.80 142.44 L 122.80 141.45 C 122.80 140.46 121.99 139.65 121.00 139.65 C 120.01 139.65 119.21 140.46 119.21 141.45 Z M 119.22 142.44 L 119.22 143.43 C 119.22 144.41 120.02 145.21 121.00 145.21 C 121.99 145.21 122.79 144.41 122.79 143.43 L 122.79 142.44 C 122.79 141.45 121.99 140.65 121.00 140.65 C 120.02 140.65 119.22 141.45 119.22 142.44 Z M 119.22 143.43 L 119.22 144.43 C 119.22 145.41 120.02 146.21 121.00 146.21 C 121.99 146.21 122.79 145.41 122.79 144.43 L 122.79 143.43 C 122.79 142.44 121.99 141.64 121.00 141.64 C 120.02 141.64 119.22 142.44 119.22 143.43 Z M 119.22 144.43 L 119.22 145.45 C 119.22 146.43 120.02 147.23 121.00 147.23 C 121.99 147.23 122.78 146.43 122.78 145.45 L 122.78 144.43 C 122.78 143.45 121.99 142.65 121.00 142.65 C 120.02 142.65 119.22 143.45 119.22 144.43 Z M 119.23 145.45 L 119.23 146.45 C 119.23 147.43 120.02 148.22 121.00 148.23 C 121.98 148.23 122.78 147.43 122.78 146.45 L 122.78 145.45 C 122.78 144.47 121.99 143.68 121.01 143.67 C 120.03 143.67 119.23 144.47 119.23 145.45 Z M 119.23 146.44 L 119.23 147.45 C 119.22 148.42 120.00 149.22 120.98 149.23 C 121.96 149.24 122.75 148.45 122.76 147.48 L 122.77 146.47 C 122.78 145.49 121.99 144.69 121.02 144.68 C 120.04 144.67 119.24 145.46 119.23 146.44 Z M 119.23 147.42 L 119.21 148.42 C 119.19 149.39 119.96 150.20 120.93 150.22 C 121.91 150.24 122.71 149.47 122.74 148.50 L 122.76 147.50 C 122.78 146.53 122.01 145.72 121.03 145.70 C 120.06 145.68 119.25 146.45 119.23 147.42 Z M 119.22 148.39 L 119.18 149.32 C 119.14 150.29 119.89 151.11 120.86 151.15 C 121.83 151.19 122.65 150.44 122.69 149.47 L 122.73 148.53 C 122.77 147.56 122.02 146.74 121.05 146.70 C 120.07 146.66 119.26 147.42 119.22 148.39 Z M 119.18 149.28 L 119.12 150.20 C 119.06 151.17 119.79 152.00 120.76 152.06 C 121.73 152.13 122.56 151.39 122.62 150.43 L 122.68 149.51 C 122.75 148.54 122.01 147.71 121.05 147.64 C 120.08 147.58 119.25 148.31 119.18 149.28 Z M 119.13 150.16 L 119.05 151.14 C 118.96 152.11 119.67 152.95 120.63 153.04 C 121.60 153.12 122.44 152.41 122.53 151.45 L 122.62 150.47 C 122.70 149.51 121.99 148.66 121.03 148.57 C 120.07 148.49 119.22 149.20 119.13 150.16 Z M 119.05 151.11 L 118.93 152.22 C 118.83 153.18 119.52 154.04 120.48 154.14 C 121.44 154.25 122.30 153.55 122.40 152.59 L 122.52 151.48 C 122.62 150.53 121.93 149.67 120.97 149.56 C 120.02 149.46 119.16 150.15 119.05 151.11 Z M 118.94 152.20 L 118.83 153.12 C 118.72 154.08 119.40 154.94 120.35 155.06 C 121.31 155.17 122.17 154.49 122.29 153.53 L 122.40 152.61 C 122.51 151.66 121.83 150.79 120.87 150.68 C 119.92 150.57 119.05 151.25 118.94 152.20 Z M 118.84 153.11 L 118.72 154.06 C 118.60 155.01 119.27 155.88 120.23 156.00 C 121.18 156.12 122.05 155.44 122.16 154.49 L 122.28 153.54 C 122.40 152.59 121.73 151.72 120.78 151.60 C 119.82 151.48 118.96 152.16 118.84 153.11 Z M 118.72 154.05 L 118.59 155.05 C 118.47 156.00 119.14 156.87 120.09 156.99 C 121.04 157.12 121.91 156.45 122.03 155.50 L 122.16 154.50 C 122.28 153.55 121.61 152.68 120.66 152.55 C 119.72 152.43 118.85 153.10 118.72 154.05 Z M 118.60 155.04 L 118.46 156.08 C 118.33 157.03 119.00 157.90 119.94 158.03 C 120.89 158.15 121.76 157.49 121.89 156.54 L 122.03 155.50 C 122.15 154.56 121.49 153.69 120.54 153.56 C 119.59 153.43 118.72 154.10 118.60 155.04 Z M 118.46 156.08 L 118.32 157.13 C 118.19 158.07 118.85 158.94 119.80 159.07 C 120.74 159.20 121.61 158.54 121.74 157.59 L 121.88 156.54 C 122.01 155.60 121.35 154.73 120.41 154.60 C 119.46 154.47 118.59 155.13 118.46 156.08 Z M 118.32 157.12 L 118.18 158.15 C 118.05 159.09 118.71 159.96 119.65 160.09 C 120.59 160.22 121.46 159.57 121.59 158.62 L 121.74 157.60 C 121.87 156.66 121.21 155.79 120.27 155.65 C 119.32 155.52 118.45 156.18 118.32 157.12 Z M 118.19 158.14 L 118.05 159.13 C 117.91 160.07 118.57 160.94 119.51 161.07 C 120.45 161.20 121.32 160.55 121.45 159.61 L 121.59 158.63 C 121.72 157.69 121.07 156.82 120.13 156.68 C 119.19 156.55 118.32 157.21 118.19 158.14 Z M 118.05 159.13 L 117.91 160.10 C 117.78 161.04 118.43 161.90 119.37 162.04 C 120.30 162.17 121.17 161.52 121.30 160.59 L 121.44 159.61 C 121.58 158.68 120.93 157.81 119.99 157.67 C 119.05 157.54 118.19 158.19 118.05 159.13 Z M 117.92 160.10 L 117.78 161.08 C 117.64 162.01 118.29 162.88 119.22 163.01 C 120.15 163.15 121.02 162.50 121.15 161.57 L 121.29 160.59 C 121.43 159.66 120.78 158.79 119.85 158.66 C 118.92 158.52 118.06 159.17 117.92 160.10 Z M 117.79 161.08 L 117.64 162.07 C 117.51 163.00 118.15 163.86 119.08 164.00 C 120.01 164.13 120.87 163.49 121.00 162.56 L 121.15 161.57 C 121.28 160.64 120.64 159.78 119.71 159.64 C 118.78 159.51 117.92 160.15 117.79 161.08 Z M 117.65 162.07 L 117.50 163.08 C 117.37 164.00 118.01 164.86 118.93 165.00 C 119.86 165.13 120.71 164.49 120.85 163.57 L 121.00 162.56 C 121.13 161.63 120.49 160.78 119.57 160.64 C 118.64 160.51 117.78 161.15 117.65 162.07 Z M 117.51 163.08 L 117.36 164.09 C 117.23 165.01 117.86 165.87 118.78 166.00 C 119.70 166.14 120.56 165.50 120.69 164.58 L 120.84 163.57 C 120.98 162.65 120.34 161.79 119.42 161.66 C 118.50 161.52 117.64 162.16 117.51 163.08 Z M 117.37 164.09 L 117.22 165.11 C 117.08 166.03 117.72 166.88 118.64 167.02 C 119.55 167.15 120.41 166.52 120.54 165.60 L 120.69 164.58 C 120.82 163.66 120.19 162.81 119.27 162.67 C 118.35 162.54 117.50 163.18 117.37 164.09 Z M 117.22 165.11 L 117.07 166.14 C 116.94 167.05 117.57 167.90 118.49 168.03 C 119.40 168.17 120.25 167.53 120.38 166.62 L 120.53 165.60 C 120.67 164.69 120.03 163.84 119.12 163.70 C 118.21 163.57 117.36 164.20 117.22 165.11 Z M 117.08 166.13 L 116.93 167.14 C 116.80 168.05 117.43 168.90 118.34 169.03 C 119.25 169.17 120.09 168.54 120.23 167.63 L 120.38 166.62 C 120.51 165.71 119.88 164.86 118.97 164.73 C 118.06 164.59 117.21 165.22 117.08 166.13 Z M 116.94 167.14 L 116.79 168.12 C 116.66 169.02 117.28 169.87 118.19 170.00 C 119.10 170.14 119.94 169.51 120.08 168.60 L 120.22 167.63 C 120.36 166.72 119.73 165.88 118.82 165.74 C 117.92 165.61 117.07 166.23 116.94 167.14 Z M 116.80 168.12 L 116.66 169.05 C 116.52 169.95 117.15 170.79 118.05 170.93 C 118.95 171.06 119.80 170.44 119.93 169.54 L 120.07 168.61 C 120.21 167.70 119.58 166.86 118.68 166.72 C 117.78 166.59 116.93 167.21 116.80 168.12 Z M 116.66 169.04 L 116.50 170.11 C 116.36 171.01 116.98 171.85 117.88 171.99 C 118.78 172.12 119.63 171.50 119.76 170.60 L 119.93 169.54 C 120.06 168.64 119.44 167.80 118.54 167.66 C 117.64 167.52 116.80 168.14 116.66 169.04 Z M 116.51 170.10 L 116.34 171.14 C 116.20 172.03 116.82 172.88 117.72 173.02 C 118.62 173.16 119.46 172.54 119.60 171.64 L 119.76 170.61 C 119.90 169.71 119.28 168.87 118.39 168.73 C 117.49 168.59 116.65 169.20 116.51 170.10 Z M 116.35 171.13 L 116.19 172.10 C 116.05 173.00 116.66 173.84 117.56 173.98 C 118.46 174.12 119.30 173.51 119.44 172.62 L 119.59 171.65 C 119.74 170.75 119.13 169.91 118.23 169.77 C 117.33 169.62 116.49 170.24 116.35 171.13 Z M 116.20 172.10 L 116.05 173.02 C 115.91 173.92 116.52 174.76 117.41 174.90 C 118.30 175.05 119.15 174.44 119.29 173.54 L 119.44 172.62 C 119.58 171.72 118.97 170.88 118.08 170.74 C 117.18 170.59 116.34 171.20 116.20 172.10 Z M 116.05 173.02 L 115.94 173.73 C 115.80 174.62 116.40 175.46 117.30 175.61 C 118.19 175.75 119.03 175.14 119.17 174.25 L 119.29 173.54 C 119.43 172.65 118.82 171.81 117.93 171.67 C 117.04 171.52 116.20 172.13 116.05 173.02 Z"
      fill="black"
      fill-rule="nonzero" /><path d="M 115.26 174.21 L 116.11 173.72 C 116.97 173.23 117.27 172.14 116.77 171.28 C 116.28 170.43 115.19 170.13 114.34 170.62 L 113.48 171.11 C 112.63 171.60 112.33 172.70 112.82 173.55 C 113.32 174.41 114.41 174.70 115.26 174.21 Z M 116.14 173.73 L 117.00 173.23 C 117.86 172.72 118.15 171.61 117.64 170.75 C 117.13 169.89 116.02 169.60 115.16 170.11 L 114.31 170.61 C 113.45 171.12 113.16 172.23 113.67 173.09 C 114.17 173.95 115.28 174.24 116.14 173.73 Z M 117.04 173.22 L 117.91 172.69 C 118.77 172.16 119.03 171.03 118.50 170.17 C 117.97 169.31 116.84 169.05 115.98 169.58 L 115.12 170.11 C 114.26 170.64 113.99 171.77 114.52 172.63 C 115.06 173.49 116.18 173.76 117.04 173.22 Z M 117.95 172.66 L 118.65 172.20 C 119.50 171.64 119.73 170.51 119.18 169.66 C 118.62 168.82 117.49 168.59 116.64 169.14 L 115.94 169.60 C 115.09 170.16 114.86 171.30 115.41 172.14 C 115.97 172.98 117.11 173.22 117.95 172.66 Z M 118.68 172.15 L 119.36 171.67 C 120.17 171.10 120.37 169.98 119.80 169.16 C 119.23 168.35 118.11 168.15 117.30 168.72 L 116.62 169.20 C 115.80 169.77 115.60 170.89 116.17 171.70 C 116.74 172.52 117.86 172.72 118.68 172.15 Z M 119.37 171.61 L 120.14 171.05 C 120.92 170.47 121.09 169.37 120.51 168.58 C 119.93 167.80 118.83 167.64 118.04 168.21 L 117.28 168.78 C 116.50 169.36 116.33 170.46 116.91 171.24 C 117.49 172.02 118.59 172.19 119.37 171.61 Z M 120.14 170.99 L 121.04 170.30 C 121.79 169.72 121.93 168.64 121.35 167.89 C 120.77 167.13 119.69 166.99 118.93 167.58 L 118.04 168.27 C 117.28 168.85 117.15 169.93 117.73 170.68 C 118.31 171.44 119.39 171.58 120.14 170.99 Z M 121.04 170.26 L 122.00 169.49 C 122.73 168.91 122.85 167.85 122.27 167.12 C 121.69 166.39 120.63 166.27 119.90 166.85 L 118.93 167.62 C 118.20 168.20 118.08 169.26 118.66 169.99 C 119.25 170.72 120.31 170.84 121.04 170.26 Z M 122.00 169.48 L 122.74 168.88 C 123.46 168.30 123.57 167.24 122.98 166.52 C 122.40 165.80 121.35 165.69 120.63 166.28 L 119.89 166.87 C 119.17 167.45 119.06 168.51 119.65 169.23 C 120.23 169.95 121.28 170.06 122.00 169.48 Z M 122.75 168.88 L 123.53 168.24 C 124.25 167.65 124.35 166.59 123.77 165.87 C 123.18 165.16 122.12 165.05 121.40 165.64 L 120.62 166.28 C 119.90 166.87 119.80 167.92 120.38 168.64 C 120.97 169.36 122.03 169.46 122.75 168.88 Z M 123.54 168.23 L 124.35 167.56 C 125.06 166.97 125.17 165.91 124.58 165.20 C 123.98 164.48 122.92 164.38 122.21 164.97 L 121.40 165.64 C 120.68 166.23 120.58 167.29 121.17 168.01 C 121.76 168.72 122.82 168.82 123.54 168.23 Z M 124.35 167.56 L 125.17 166.88 C 125.89 166.29 125.99 165.23 125.39 164.51 C 124.80 163.79 123.74 163.70 123.02 164.29 L 122.20 164.97 C 121.49 165.56 121.39 166.63 121.98 167.34 C 122.58 168.06 123.64 168.16 124.35 167.56 Z M 125.18 166.88 L 125.98 166.21 C 126.70 165.61 126.79 164.55 126.19 163.83 C 125.60 163.12 124.53 163.02 123.82 163.62 L 123.02 164.29 C 122.30 164.89 122.21 165.95 122.80 166.67 C 123.40 167.38 124.46 167.48 125.18 166.88 Z M 125.99 166.21 L 126.75 165.56 C 127.47 164.96 127.56 163.90 126.96 163.18 C 126.36 162.47 125.29 162.38 124.58 162.98 L 123.81 163.62 C 123.10 164.22 123.01 165.29 123.61 166.00 C 124.21 166.72 125.27 166.81 125.99 166.21 Z M 126.76 165.56 L 127.46 164.97 C 128.18 164.36 128.27 163.30 127.66 162.58 C 127.06 161.87 125.99 161.78 125.28 162.38 L 124.57 162.98 C 123.86 163.58 123.77 164.65 124.37 165.36 C 124.98 166.08 126.04 166.17 126.76 165.56 Z M 127.47 164.96 L 128.43 164.14 C 129.14 163.53 129.22 162.47 128.62 161.76 C 128.01 161.05 126.94 160.96 126.23 161.57 L 125.27 162.39 C 124.56 163.00 124.48 164.06 125.09 164.77 C 125.69 165.48 126.76 165.57 127.47 164.96 Z M 128.43 164.12 L 129.26 163.40 C 129.96 162.80 130.04 161.74 129.43 161.04 C 128.82 160.33 127.76 160.26 127.06 160.87 L 126.23 161.59 C 125.53 162.19 125.45 163.25 126.06 163.95 C 126.67 164.66 127.73 164.73 128.43 164.12 Z M 129.26 163.39 L 129.96 162.78 C 130.65 162.17 130.72 161.12 130.11 160.43 C 129.50 159.73 128.44 159.66 127.75 160.27 L 127.06 160.88 C 126.37 161.49 126.30 162.55 126.91 163.24 C 127.52 163.93 128.57 164.00 129.26 163.39 Z M 129.96 162.77 L 130.56 162.23 C 131.25 161.62 131.31 160.57 130.70 159.88 C 130.09 159.20 129.04 159.14 128.36 159.75 L 127.75 160.29 C 127.07 160.90 127.00 161.95 127.61 162.63 C 128.22 163.32 129.27 163.38 129.96 162.77 Z M 130.56 162.22 L 130.86 161.95 C 131.54 161.34 131.60 160.30 130.99 159.62 C 130.38 158.94 129.34 158.88 128.66 159.49 L 128.36 159.76 C 127.68 160.36 127.62 161.41 128.23 162.09 C 128.84 162.77 129.88 162.83 130.56 162.22 Z"
      fill="black"
      fill-rule="nonzero" /><path d="M 118.52 137.02 L 119.51 136.79 C 120.56 136.55 121.21 135.50 120.97 134.45 C 120.73 133.40 119.69 132.75 118.64 132.99 L 117.65 133.22 C 116.60 133.46 115.94 134.50 116.19 135.55 C 116.43 136.60 117.47 137.26 118.52 137.02 Z M 119.51 136.79 L 120.49 136.57 C 121.54 136.32 122.20 135.28 121.96 134.23 C 121.71 133.18 120.67 132.52 119.62 132.76 L 118.63 132.99 C 117.58 133.23 116.93 134.28 117.17 135.33 C 117.41 136.38 118.46 137.03 119.51 136.79 Z M 120.50 136.56 L 121.48 136.34 C 122.53 136.09 123.18 135.04 122.94 133.99 C 122.69 132.94 121.65 132.29 120.60 132.54 L 119.61 132.76 C 118.56 133.01 117.91 134.06 118.16 135.11 C 118.40 136.16 119.45 136.81 120.50 136.56 Z M 121.49 136.33 L 122.46 136.10 C 123.51 135.86 124.16 134.81 123.91 133.76 C 123.67 132.71 122.62 132.06 121.57 132.31 L 120.59 132.54 C 119.54 132.78 118.89 133.84 119.14 134.88 C 119.39 135.93 120.44 136.58 121.49 136.33 Z M 122.47 136.10 L 123.44 135.87 C 124.49 135.62 125.14 134.56 124.89 133.52 C 124.64 132.47 123.58 131.82 122.53 132.07 L 121.56 132.31 C 120.51 132.56 119.87 133.61 120.12 134.66 C 120.37 135.71 121.42 136.35 122.47 136.10 Z M 123.45 135.87 L 124.42 135.63 C 125.47 135.37 126.11 134.32 125.85 133.27 C 125.60 132.22 124.54 131.58 123.49 131.84 L 122.52 132.08 C 121.48 132.33 120.84 133.39 121.09 134.44 C 121.35 135.48 122.41 136.12 123.45 135.87 Z M 124.43 135.63 L 125.39 135.39 C 126.44 135.12 127.07 134.06 126.81 133.02 C 126.55 131.97 125.49 131.34 124.44 131.60 L 123.48 131.84 C 122.44 132.11 121.80 133.17 122.06 134.21 C 122.33 135.26 123.39 135.89 124.43 135.63 Z M 125.41 135.38 L 126.36 135.14 C 127.40 134.87 128.03 133.80 127.76 132.76 C 127.49 131.71 126.42 131.09 125.38 131.36 L 124.43 131.60 C 123.38 131.87 122.76 132.94 123.03 133.98 C 123.30 135.03 124.36 135.65 125.41 135.38 Z M 126.37 135.13 L 127.44 134.85 C 128.48 134.57 129.09 133.50 128.81 132.46 C 128.54 131.42 127.47 130.80 126.42 131.08 L 125.36 131.36 C 124.32 131.64 123.71 132.71 123.98 133.75 C 124.26 134.79 125.33 135.41 126.37 135.13 Z M 127.45 134.84 L 128.52 134.54 C 129.56 134.26 130.17 133.18 129.88 132.14 C 129.59 131.11 128.52 130.50 127.48 130.78 L 126.41 131.08 C 125.37 131.37 124.76 132.44 125.05 133.48 C 125.34 134.52 126.41 135.13 127.45 134.84 Z M 128.54 134.54 L 129.57 134.24 C 130.61 133.95 131.21 132.87 130.92 131.83 C 130.62 130.80 129.54 130.20 128.50 130.49 L 127.47 130.79 C 126.43 131.08 125.83 132.16 126.13 133.20 C 126.42 134.24 127.50 134.84 128.54 134.54 Z M 129.59 134.24 L 130.58 133.95 C 131.62 133.65 132.21 132.57 131.91 131.53 C 131.60 130.50 130.52 129.90 129.49 130.21 L 128.49 130.50 C 127.46 130.80 126.87 131.88 127.17 132.92 C 127.47 133.95 128.55 134.54 129.59 134.24 Z M 130.59 133.95 L 131.53 133.67 C 132.56 133.36 133.15 132.27 132.84 131.24 C 132.54 130.21 131.45 129.62 130.42 129.93 L 129.48 130.21 C 128.45 130.52 127.86 131.60 128.17 132.63 C 128.47 133.67 129.56 134.25 130.59 133.95 Z M 131.54 133.66 L 132.41 133.40 C 133.44 133.09 134.03 132.00 133.72 130.97 C 133.40 129.94 132.32 129.36 131.29 129.67 L 130.41 129.93 C 129.38 130.24 128.80 131.33 129.11 132.36 C 129.42 133.39 130.51 133.98 131.54 133.66 Z M 132.42 133.40 L 133.22 133.15 C 134.25 132.84 134.83 131.75 134.51 130.72 C 134.20 129.69 133.11 129.11 132.08 129.43 L 131.28 129.67 C 130.25 129.98 129.67 131.07 129.99 132.10 C 130.30 133.13 131.39 133.71 132.42 133.40 Z M 133.22 133.15 L 134.32 132.81 C 135.34 132.50 135.92 131.40 135.60 130.38 C 135.28 129.35 134.19 128.77 133.17 129.09 L 132.07 129.43 C 131.05 129.75 130.47 130.84 130.79 131.86 C 131.10 132.89 132.19 133.47 133.22 133.15 Z M 134.32 132.81 L 135.35 132.49 C 136.38 132.16 136.95 131.07 136.62 130.05 C 136.30 129.02 135.21 128.45 134.18 128.77 L 133.16 129.10 C 132.13 129.42 131.56 130.51 131.88 131.53 C 132.21 132.56 133.30 133.13 134.32 132.81 Z M 135.37 132.48 L 136.24 132.20 C 137.26 131.87 137.82 130.77 137.49 129.75 C 137.15 128.73 136.06 128.17 135.04 128.50 L 134.17 128.78 C 133.15 129.11 132.59 130.21 132.92 131.23 C 133.25 132.25 134.35 132.81 135.37 132.48 Z M 136.26 132.19 L 137.05 131.92 C 138.07 131.58 138.61 130.47 138.27 129.46 C 137.92 128.44 136.82 127.90 135.81 128.24 L 135.01 128.51 C 134.00 128.85 133.45 129.95 133.80 130.97 C 134.14 131.99 135.24 132.53 136.26 132.19 Z M 137.07 131.91 L 137.90 131.62 C 138.91 131.26 139.44 130.16 139.08 129.14 C 138.72 128.13 137.62 127.60 136.61 127.96 L 135.78 128.25 C 134.77 128.61 134.24 129.71 134.60 130.73 C 134.95 131.74 136.06 132.27 137.07 131.91 Z M 137.92 131.61 L 138.79 131.29 C 139.80 130.93 140.32 129.81 139.95 128.81 C 139.59 127.80 138.47 127.28 137.47 127.65 L 136.59 127.97 C 135.58 128.33 135.06 129.45 135.43 130.45 C 135.80 131.46 136.91 131.98 137.92 131.61 Z M 138.81 131.29 L 139.77 130.93 C 140.77 130.56 141.28 129.44 140.91 128.44 C 140.54 127.43 139.42 126.92 138.42 127.29 L 137.45 127.65 C 136.45 128.03 135.94 129.14 136.31 130.15 C 136.69 131.15 137.80 131.66 138.81 131.29 Z M 139.77 130.93 L 140.82 130.53 C 141.82 130.16 142.33 129.04 141.95 128.04 C 141.58 127.04 140.46 126.53 139.46 126.90 L 138.41 127.30 C 137.41 127.67 136.90 128.79 137.28 129.79 C 137.65 130.79 138.77 131.30 139.77 130.93 Z M 140.82 130.53 L 141.63 130.23 C 142.63 129.85 143.14 128.74 142.76 127.73 C 142.39 126.73 141.27 126.23 140.27 126.60 L 139.46 126.91 C 138.45 127.28 137.95 128.40 138.32 129.40 C 138.70 130.40 139.82 130.91 140.82 130.53 Z M 141.63 130.23 L 142.51 129.90 C 143.51 129.52 144.01 128.40 143.63 127.40 C 143.25 126.40 142.14 125.89 141.13 126.27 L 140.26 126.60 C 139.26 126.98 138.76 128.10 139.13 129.10 C 139.51 130.10 140.63 130.61 141.63 130.23 Z M 142.51 129.90 L 143.44 129.54 C 144.44 129.16 144.94 128.04 144.56 127.04 C 144.18 126.04 143.06 125.54 142.06 125.92 L 141.13 126.28 C 140.13 126.66 139.63 127.78 140.01 128.78 C 140.39 129.78 141.51 130.28 142.51 129.90 Z M 143.45 129.54 L 144.44 129.15 C 145.43 128.77 145.93 127.64 145.54 126.64 C 145.15 125.65 144.03 125.15 143.03 125.54 L 142.05 125.92 C 141.05 126.31 140.56 127.43 140.95 128.43 C 141.33 129.43 142.46 129.92 143.45 129.54 Z M 144.45 129.15 L 145.48 128.74 C 146.47 128.35 146.96 127.22 146.57 126.22 C 146.17 125.23 145.05 124.74 144.05 125.14 L 143.02 125.55 C 142.03 125.94 141.54 127.07 141.93 128.06 C 142.33 129.06 143.45 129.54 144.45 129.15 Z M 145.49 128.73 L 146.49 128.33 C 147.49 127.93 147.97 126.80 147.56 125.80 C 147.16 124.81 146.03 124.33 145.04 124.74 L 144.04 125.14 C 143.05 125.54 142.57 126.67 142.97 127.67 C 143.37 128.66 144.50 129.14 145.49 128.73 Z M 146.51 128.32 L 147.48 127.92 C 148.47 127.52 148.94 126.38 148.53 125.39 C 148.12 124.40 146.99 123.93 146.00 124.34 L 145.03 124.74 C 144.04 125.15 143.57 126.28 143.98 127.27 C 144.38 128.26 145.52 128.73 146.51 128.32 Z M 147.49 127.92 L 148.46 127.51 C 149.45 127.10 149.91 125.97 149.50 124.98 C 149.09 123.99 147.95 123.52 146.97 123.94 L 145.99 124.34 C 145.01 124.75 144.54 125.89 144.95 126.88 C 145.36 127.87 146.50 128.33 147.49 127.92 Z M 148.46 127.51 L 149.42 127.11 C 150.40 126.70 150.87 125.56 150.45 124.57 C 150.04 123.59 148.90 123.12 147.92 123.54 L 146.96 123.94 C 145.98 124.35 145.51 125.49 145.93 126.48 C 146.34 127.46 147.48 127.93 148.46 127.51 Z M 149.42 127.11 L 150.33 126.72 C 151.32 126.31 151.78 125.17 151.37 124.19 C 150.95 123.20 149.82 122.74 148.83 123.15 L 147.91 123.54 C 146.93 123.95 146.47 125.09 146.88 126.08 C 147.30 127.06 148.43 127.53 149.42 127.11 Z M 150.33 126.73 L 151.19 126.37 C 152.18 125.95 152.64 124.81 152.23 123.83 C 151.81 122.84 150.67 122.38 149.69 122.79 L 148.83 123.15 C 147.84 123.57 147.38 124.70 147.80 125.69 C 148.21 126.68 149.35 127.14 150.33 126.73 Z M 151.18 126.37 L 152.15 125.97 C 153.14 125.55 153.61 124.42 153.19 123.43 C 152.78 122.44 151.65 121.98 150.66 122.39 L 149.69 122.79 C 148.71 123.20 148.24 124.33 148.65 125.32 C 149.06 126.31 150.20 126.78 151.18 126.37 Z M 152.10 125.99 L 153.20 125.56 C 154.19 125.18 154.69 124.06 154.31 123.06 C 153.92 122.06 152.80 121.56 151.80 121.95 L 150.71 122.37 C 149.71 122.75 149.21 123.88 149.60 124.88 C 149.98 125.87 151.10 126.37 152.10 125.99 Z M 153.03 125.62 L 153.95 125.36 C 154.98 125.07 155.58 123.99 155.28 122.96 C 154.99 121.93 153.92 121.33 152.88 121.63 L 151.96 121.89 C 150.93 122.18 150.34 123.26 150.63 124.29 C 150.92 125.32 152.00 125.92 153.03 125.62 Z M 153.59 125.43 L 154.39 125.36 C 155.46 125.26 156.25 124.32 156.16 123.25 C 156.06 122.18 155.12 121.39 154.05 121.49 L 153.24 121.56 C 152.18 121.65 151.39 122.60 151.48 123.67 C 151.58 124.73 152.52 125.52 153.59 125.43 Z M 153.81 125.32 L 154.63 125.50 C 155.68 125.73 156.72 125.07 156.95 124.02 C 157.18 122.97 156.51 121.93 155.46 121.70 L 154.64 121.52 C 153.59 121.29 152.55 121.95 152.32 123.00 C 152.09 124.06 152.75 125.09 153.81 125.32 Z M 153.97 125.24 L 154.74 125.74 C 155.64 126.34 156.86 126.09 157.45 125.18 C 158.05 124.28 157.80 123.07 156.89 122.47 L 156.12 121.97 C 155.22 121.37 154.01 121.62 153.41 122.53 C 152.82 123.43 153.07 124.64 153.97 125.24 Z M 154.23 125.26 L 154.84 126.11 C 155.48 126.99 156.71 127.18 157.59 126.55 C 158.47 125.91 158.66 124.68 158.02 123.80 L 157.41 122.95 C 156.77 122.07 155.54 121.88 154.66 122.52 C 153.78 123.15 153.59 124.38 154.23 125.26 Z M 154.57 125.62 L 154.92 126.60 C 155.28 127.62 156.42 128.16 157.44 127.79 C 158.47 127.43 159.01 126.30 158.64 125.27 L 158.29 124.29 C 157.93 123.26 156.80 122.73 155.77 123.09 C 154.74 123.46 154.20 124.59 154.57 125.62 Z M 154.83 126.27 L 155.00 127.22 C 155.18 128.30 156.21 129.02 157.28 128.83 C 158.36 128.64 159.08 127.62 158.89 126.54 L 158.73 125.59 C 158.54 124.52 157.52 123.80 156.44 123.98 C 155.36 124.17 154.64 125.19 154.83 126.27 Z M 154.97 127.04 L 155.05 128.06 C 155.14 129.15 156.09 129.97 157.18 129.88 C 158.27 129.80 159.08 128.85 159.00 127.76 L 158.92 126.73 C 158.83 125.64 157.88 124.82 156.79 124.91 C 155.70 124.99 154.89 125.95 154.97 127.04 Z M 155.05 127.94 L 155.06 128.99 C 155.08 130.08 155.98 130.95 157.07 130.94 C 158.17 130.92 159.04 130.02 159.02 128.93 L 159.00 127.88 C 158.99 126.79 158.09 125.91 156.99 125.93 C 155.90 125.95 155.03 126.85 155.05 127.94 Z M 155.06 128.91 L 155.04 129.92 C 155.01 131.01 155.87 131.92 156.97 131.95 C 158.06 131.97 158.97 131.11 158.99 130.02 L 159.02 129.01 C 159.05 127.92 158.19 127.01 157.09 126.98 C 156.00 126.95 155.09 127.82 155.06 128.91 Z M 155.04 129.86 L 154.98 130.95 C 154.92 132.04 155.76 132.97 156.85 133.03 C 157.94 133.09 158.87 132.26 158.93 131.17 L 158.99 130.08 C 159.05 128.99 158.22 128.05 157.13 127.99 C 156.03 127.93 155.10 128.77 155.04 129.86 Z M 154.98 130.90 L 154.90 131.91 C 154.82 133.00 155.63 133.95 156.72 134.04 C 157.81 134.12 158.76 133.31 158.85 132.22 L 158.93 131.22 C 159.01 130.13 158.20 129.17 157.11 129.09 C 156.02 129.00 155.07 129.81 154.98 130.90 Z M 154.91 131.88 L 154.82 132.82 C 154.71 133.91 155.51 134.88 156.60 134.98 C 157.68 135.08 158.65 134.29 158.75 133.20 L 158.84 132.25 C 158.95 131.17 158.15 130.20 157.06 130.10 C 155.98 129.99 155.01 130.79 154.91 131.88 Z M 154.82 132.82 L 154.73 133.75 C 154.62 134.84 155.42 135.80 156.51 135.91 C 157.59 136.01 158.56 135.22 158.66 134.13 L 158.75 133.20 C 158.86 132.11 158.06 131.15 156.97 131.04 C 155.89 130.94 154.92 131.74 154.82 132.82 Z M 154.73 133.77 L 154.65 134.63 C 154.56 135.72 155.36 136.68 156.45 136.77 C 157.54 136.87 158.50 136.06 158.59 134.97 L 158.66 134.11 C 158.76 133.02 157.95 132.06 156.87 131.97 C 155.78 131.88 154.82 132.68 154.73 133.77 Z M 154.65 134.65 L 154.58 135.58 C 154.50 136.67 155.31 137.62 156.40 137.70 C 157.49 137.78 158.44 136.97 158.52 135.88 L 158.59 134.95 C 158.67 133.87 157.86 132.92 156.77 132.83 C 155.68 132.75 154.73 133.57 154.65 134.65 Z M 154.58 135.59 L 154.51 136.61 C 154.43 137.70 155.26 138.65 156.34 138.72 C 157.43 138.80 158.37 137.98 158.45 136.89 L 158.52 135.87 C 158.60 134.78 157.77 133.84 156.69 133.76 C 155.60 133.69 154.66 134.51 154.58 135.59 Z M 154.51 136.62 L 154.44 137.77 C 154.37 138.86 155.19 139.80 156.28 139.87 C 157.37 139.94 158.31 139.11 158.38 138.02 L 158.45 136.88 C 158.52 135.79 157.69 134.85 156.61 134.78 C 155.52 134.71 154.58 135.54 154.51 136.62 Z M 154.44 137.77 L 154.38 138.69 C 154.31 139.77 155.14 140.71 156.23 140.78 C 157.32 140.85 158.25 140.02 158.32 138.93 L 158.38 138.02 C 158.44 136.93 157.62 135.99 156.53 135.93 C 155.44 135.86 154.50 136.69 154.44 137.77 Z M 154.38 138.69 L 154.33 139.59 C 154.26 140.68 155.09 141.61 156.18 141.68 C 157.27 141.74 158.20 140.91 158.27 139.82 L 158.32 138.93 C 158.38 137.84 157.55 136.90 156.47 136.84 C 155.38 136.78 154.44 137.60 154.38 138.69 Z M 154.33 139.60 L 154.27 140.55 C 154.21 141.64 155.05 142.57 156.13 142.63 C 157.22 142.69 158.15 141.86 158.21 140.77 L 158.27 139.81 C 158.33 138.73 157.49 137.80 156.41 137.74 C 155.32 137.68 154.39 138.51 154.33 139.60 Z M 154.28 140.56 L 154.22 141.58 C 154.17 142.66 155.01 143.59 156.09 143.64 C 157.18 143.70 158.11 142.86 158.16 141.77 L 158.21 140.76 C 158.27 139.67 157.43 138.75 156.34 138.69 C 155.25 138.64 154.33 139.48 154.28 140.56 Z M 154.22 141.59 L 154.18 142.65 C 154.13 143.73 154.97 144.65 156.06 144.70 C 157.15 144.75 158.07 143.91 158.11 142.82 L 158.16 141.76 C 158.21 140.67 157.37 139.75 156.28 139.71 C 155.19 139.66 154.27 140.50 154.22 141.59 Z M 154.18 142.66 L 154.14 143.76 C 154.10 144.85 154.95 145.76 156.03 145.80 C 157.12 145.84 158.03 144.99 158.07 143.91 L 158.11 142.80 C 158.15 141.72 157.31 140.80 156.22 140.76 C 155.13 140.72 154.22 141.57 154.18 142.66 Z M 154.14 143.78 L 154.11 144.89 C 154.08 145.98 154.93 146.88 156.02 146.91 C 157.11 146.94 158.01 146.09 158.04 145.00 L 158.07 143.89 C 158.10 142.80 157.25 141.90 156.16 141.87 C 155.08 141.84 154.17 142.69 154.14 143.78 Z M 154.11 144.90 L 154.09 145.96 C 154.06 147.05 154.93 147.95 156.01 147.97 C 157.10 147.99 158.00 147.13 158.02 146.04 L 158.04 144.99 C 158.06 143.90 157.20 143.00 156.12 142.98 C 155.03 142.96 154.13 143.82 154.11 144.90 Z M 154.09 145.97 L 154.07 147.04 C 154.06 148.13 154.92 149.02 156.01 149.04 C 157.09 149.05 157.99 148.18 158.00 147.10 L 158.02 146.03 C 158.03 144.95 157.17 144.05 156.08 144.04 C 155.00 144.02 154.10 144.89 154.09 145.97 Z M 154.07 147.05 L 154.06 148.11 C 154.05 149.19 154.92 150.08 156.01 150.09 C 157.09 150.10 157.98 149.23 157.99 148.14 L 158.00 147.09 C 158.01 146.00 157.14 145.12 156.06 145.11 C 154.97 145.09 154.08 145.97 154.07 147.05 Z M 154.06 148.11 L 154.06 149.14 C 154.05 150.23 154.92 151.11 156.01 151.12 C 157.09 151.12 157.98 150.25 157.98 149.17 L 157.99 148.14 C 158.00 147.05 157.12 146.17 156.04 146.16 C 154.95 146.16 154.07 147.03 154.06 148.11 Z M 154.06 149.15 L 154.06 150.13 C 154.05 151.22 154.93 152.10 156.01 152.10 C 157.09 152.10 157.97 151.23 157.98 150.15 L 157.98 149.16 C 157.98 148.08 157.11 147.20 156.03 147.19 C 154.94 147.19 154.06 148.07 154.06 149.15 Z M 154.06 150.14 L 154.06 151.06 C 154.06 152.14 154.93 153.02 156.01 153.02 C 157.10 153.03 157.97 152.15 157.98 151.07 L 157.98 150.14 C 157.98 149.06 157.10 148.18 156.02 148.18 C 154.94 148.18 154.06 149.06 154.06 150.14 Z M 154.06 151.06 L 154.06 151.97 C 154.06 153.05 154.93 153.93 156.02 153.93 C 157.10 153.93 157.97 153.05 157.97 151.97 L 157.97 151.06 C 157.97 149.98 157.10 149.11 156.02 149.11 C 154.93 149.11 154.06 149.98 154.06 151.06 Z M 154.06 151.97 L 154.06 153.21 C 154.06 154.29 154.94 155.17 156.02 155.17 C 157.10 155.17 157.97 154.29 157.97 153.21 L 157.97 151.97 C 157.97 150.89 157.10 150.01 156.02 150.01 C 154.94 150.01 154.06 150.89 154.06 151.97 Z M 154.06 153.21 L 154.06 154.25 C 154.06 155.33 154.94 156.20 156.02 156.20 C 157.10 156.20 157.97 155.33 157.97 154.25 L 157.97 153.21 C 157.97 152.13 157.10 151.25 156.02 151.25 C 154.94 151.25 154.06 152.13 154.06 153.21 Z M 154.06 154.25 L 154.06 155.14 C 154.06 156.22 154.94 157.10 156.02 157.10 C 157.10 157.10 157.97 156.22 157.97 155.14 L 157.97 154.25 C 157.97 153.17 157.10 152.29 156.02 152.29 C 154.94 152.29 154.06 153.17 154.06 154.25 Z M 154.06 155.14 L 154.06 155.95 C 154.06 157.03 154.94 157.91 156.02 157.91 C 157.10 157.91 157.97 157.03 157.97 155.95 L 157.97 155.14 C 157.97 154.06 157.10 153.19 156.02 153.19 C 154.94 153.19 154.06 154.06 154.06 155.14 Z M 154.06 155.95 L 154.06 156.94 C 154.06 158.01 154.94 158.89 156.02 158.89 C 157.10 158.89 157.97 158.01 157.97 156.93 L 157.97 155.95 C 157.97 154.87 157.09 154.00 156.01 154.00 C 154.94 154.00 154.06 154.87 154.06 155.95 Z M 154.06 156.94 L 154.07 157.94 C 154.07 159.02 154.95 159.89 156.03 159.88 C 157.11 159.88 157.98 159.00 157.97 157.92 L 157.97 156.93 C 157.97 155.85 157.09 154.98 156.01 154.98 C 154.93 154.98 154.06 155.86 154.06 156.94 Z M 154.07 157.95 L 154.08 158.95 C 154.09 160.03 154.97 160.89 156.05 160.88 C 157.13 160.87 158.00 159.98 157.99 158.91 L 157.97 157.91 C 157.96 156.83 157.08 155.96 156.00 155.97 C 154.92 155.99 154.05 156.87 154.07 157.95 Z M 154.08 158.97 L 154.10 159.96 C 154.12 161.04 155.02 161.89 156.09 161.87 C 157.17 161.84 158.03 160.95 158.01 159.87 L 157.99 158.89 C 157.96 157.81 157.07 156.95 155.99 156.97 C 154.91 157.00 154.05 157.89 154.08 158.97 Z M 154.10 159.98 L 154.13 160.97 C 154.17 162.05 155.08 162.89 156.15 162.86 C 157.23 162.82 158.08 161.92 158.04 160.84 L 158.01 159.85 C 157.97 158.77 157.06 157.92 155.98 157.96 C 154.91 158.00 154.06 158.90 154.10 159.98 Z M 154.13 161.00 L 154.18 162.01 C 154.24 163.09 155.16 163.92 156.24 163.86 C 157.31 163.81 158.14 162.89 158.09 161.81 L 158.04 160.81 C 157.98 159.73 157.07 158.90 155.99 158.95 C 154.91 159.01 154.08 159.92 154.13 161.00 Z M 154.19 162.05 L 154.26 163.06 C 154.33 164.14 155.26 164.95 156.34 164.87 C 157.42 164.80 158.23 163.87 158.16 162.79 L 158.09 161.78 C 158.01 160.70 157.08 159.89 156.00 159.96 C 154.93 160.03 154.11 160.97 154.19 162.05 Z M 154.26 163.10 L 154.35 164.08 C 154.44 165.16 155.39 165.96 156.47 165.86 C 157.55 165.76 158.34 164.81 158.24 163.74 L 158.16 162.75 C 158.06 161.67 157.11 160.88 156.03 160.97 C 154.96 161.07 154.16 162.02 154.26 163.10 Z M 154.35 164.12 L 154.46 165.12 C 154.58 166.19 155.54 166.97 156.62 166.85 C 157.69 166.73 158.47 165.77 158.35 164.69 L 158.24 163.70 C 158.12 162.62 157.16 161.85 156.08 161.97 C 155.01 162.08 154.23 163.05 154.35 164.12 Z M 154.46 165.16 L 154.59 166.16 C 154.73 167.23 155.71 167.98 156.79 167.84 C 157.86 167.71 158.61 166.72 158.48 165.65 L 158.35 164.65 C 158.21 163.58 157.22 162.82 156.15 162.96 C 155.08 163.10 154.32 164.09 154.46 165.16 Z M 154.60 166.19 L 154.75 167.19 C 154.91 168.26 155.90 169.00 156.97 168.83 C 158.04 168.67 158.78 167.68 158.62 166.61 L 158.47 165.61 C 158.31 164.54 157.31 163.81 156.24 163.97 C 155.17 164.13 154.44 165.12 154.60 166.19 Z M 154.75 167.22 L 154.92 168.21 C 155.10 169.28 156.11 170.00 157.17 169.82 C 158.24 169.64 158.96 168.63 158.78 167.56 L 158.62 166.57 C 158.44 165.51 157.43 164.79 156.36 164.97 C 155.29 165.14 154.57 166.15 154.75 167.22 Z M 154.92 168.23 L 155.10 169.22 C 155.29 170.28 156.31 170.99 157.37 170.80 C 158.44 170.61 159.15 169.59 158.95 168.53 L 158.78 167.54 C 158.59 166.48 157.57 165.77 156.50 165.96 C 155.44 166.15 154.73 167.17 154.92 168.23 Z M 155.10 169.23 L 155.28 170.21 C 155.48 171.27 156.50 171.98 157.57 171.78 C 158.63 171.58 159.33 170.55 159.14 169.49 L 158.95 168.51 C 158.75 167.45 157.73 166.75 156.67 166.95 C 155.60 167.14 154.90 168.17 155.10 169.23 Z M 155.28 170.22 L 155.47 171.19 C 155.67 172.26 156.70 172.95 157.76 172.75 C 158.83 172.55 159.52 171.52 159.32 170.46 L 159.13 169.48 C 158.93 168.42 157.91 167.72 156.84 167.92 C 155.78 168.13 155.08 169.15 155.28 170.22 Z M 155.47 171.21 L 155.67 172.18 C 155.88 173.25 156.91 173.93 157.97 173.72 C 159.04 173.51 159.73 172.48 159.51 171.41 L 159.32 170.44 C 159.11 169.38 158.07 168.69 157.01 168.90 C 155.95 169.11 155.26 170.15 155.47 171.21 Z M 155.67 172.21 L 155.88 173.19 C 156.11 174.25 157.16 174.93 158.22 174.70 C 159.27 174.47 159.95 173.42 159.72 172.37 L 159.51 171.38 C 159.28 170.33 158.23 169.65 157.18 169.88 C 156.12 170.11 155.44 171.15 155.67 172.21 Z M 155.89 173.23 L 156.12 174.18 C 156.37 175.24 157.43 175.89 158.48 175.64 C 159.54 175.39 160.19 174.33 159.94 173.27 L 159.71 172.32 C 159.46 171.27 158.40 170.62 157.35 170.87 C 156.29 171.12 155.64 172.18 155.89 173.23 Z M 156.13 174.23 L 156.37 175.14 C 156.65 176.19 157.72 176.81 158.77 176.53 C 159.82 176.25 160.44 175.18 160.16 174.13 L 159.92 173.23 C 159.65 172.18 158.57 171.55 157.52 171.83 C 156.48 172.11 155.85 173.18 156.13 174.23 Z M 156.39 175.20 L 156.67 176.14 C 156.98 177.18 158.07 177.77 159.11 177.46 C 160.15 177.14 160.74 176.05 160.43 175.01 L 160.15 174.07 C 159.84 173.03 158.74 172.44 157.71 172.75 C 156.67 173.06 156.08 174.16 156.39 175.20 Z M 156.69 176.20 L 157.02 177.19 C 157.37 178.22 158.48 178.77 159.51 178.43 C 160.54 178.08 161.09 176.96 160.74 175.94 L 160.41 174.95 C 160.06 173.92 158.95 173.37 157.92 173.71 C 156.89 174.06 156.34 175.17 156.69 176.20 Z M 157.04 177.26 L 157.42 178.24 C 157.80 179.26 158.93 179.77 159.95 179.39 C 160.96 179.00 161.47 177.87 161.09 176.86 L 160.72 175.87 C 160.34 174.86 159.20 174.34 158.19 174.73 C 157.17 175.11 156.66 176.24 157.04 177.26 Z M 157.44 178.30 L 157.82 179.21 C 158.23 180.21 159.38 180.69 160.38 180.27 C 161.39 179.85 161.86 178.70 161.44 177.70 L 161.07 176.80 C 160.65 175.79 159.50 175.32 158.50 175.74 C 157.50 176.15 157.02 177.30 157.44 178.30 Z M 157.84 179.27 L 158.26 180.19 C 158.71 181.18 159.87 181.62 160.86 181.17 C 161.85 180.72 162.29 179.55 161.84 178.57 L 161.42 177.64 C 160.97 176.66 159.81 176.22 158.82 176.67 C 157.83 177.12 157.39 178.28 157.84 179.27 Z M 158.29 180.26 L 158.75 181.17 C 159.24 182.14 160.42 182.53 161.39 182.05 C 162.36 181.56 162.75 180.38 162.26 179.41 L 161.81 178.50 C 161.32 177.53 160.14 177.14 159.17 177.62 C 158.20 178.11 157.81 179.29 158.29 180.26 Z M 158.79 181.25 L 159.28 182.13 C 159.81 183.08 161.01 183.42 161.96 182.89 C 162.90 182.36 163.24 181.16 162.71 180.22 L 162.22 179.34 C 161.69 178.39 160.50 178.05 159.55 178.58 C 158.60 179.11 158.26 180.30 158.79 181.25 Z M 159.34 182.23 L 159.89 183.09 C 160.47 184.01 161.69 184.28 162.60 183.70 C 163.52 183.12 163.79 181.90 163.21 180.99 L 162.66 180.12 C 162.08 179.21 160.86 178.93 159.95 179.52 C 159.03 180.10 158.76 181.31 159.34 182.23 Z M 159.97 183.20 L 160.59 184.04 C 161.23 184.92 162.46 185.10 163.33 184.46 C 164.21 183.81 164.39 182.58 163.75 181.71 L 163.13 180.87 C 162.48 180.00 161.25 179.82 160.38 180.46 C 159.51 181.10 159.33 182.33 159.97 183.20 Z M 160.68 184.16 L 161.34 184.92 C 162.05 185.74 163.29 185.83 164.11 185.12 C 164.93 184.41 165.02 183.17 164.31 182.35 L 163.65 181.59 C 162.94 180.77 161.70 180.69 160.88 181.39 C 160.06 182.10 159.98 183.34 160.68 184.16 Z M 161.45 185.04 L 162.14 185.71 C 162.92 186.47 164.16 186.46 164.92 185.69 C 165.68 184.91 165.66 183.67 164.89 182.91 L 164.20 182.23 C 163.42 181.48 162.18 181.49 161.42 182.26 C 160.66 183.04 160.68 184.28 161.45 185.04 Z M 162.27 185.82 L 163.00 186.43 C 163.84 187.12 165.07 187.00 165.76 186.17 C 166.45 185.33 166.33 184.10 165.50 183.41 L 164.77 182.80 C 163.93 182.11 162.70 182.23 162.01 183.06 C 161.32 183.90 161.43 185.13 162.27 185.82 Z M 163.14 186.53 L 163.98 187.11 C 164.87 187.73 166.09 187.50 166.71 186.61 C 167.32 185.72 167.09 184.50 166.20 183.89 L 165.36 183.31 C 164.47 182.69 163.25 182.92 162.64 183.81 C 162.02 184.70 162.25 185.92 163.14 186.53 Z M 164.14 187.21 L 165.02 187.70 C 165.96 188.22 167.15 187.89 167.68 186.95 C 168.21 186.01 167.87 184.81 166.93 184.29 L 166.05 183.79 C 165.11 183.27 163.91 183.60 163.39 184.55 C 162.86 185.49 163.20 186.68 164.14 187.21 Z M 165.19 187.78 L 166.10 188.18 C 167.08 188.61 168.23 188.16 168.67 187.18 C 169.10 186.19 168.65 185.04 167.67 184.61 L 166.76 184.21 C 165.77 183.77 164.62 184.22 164.19 185.21 C 163.75 186.19 164.20 187.34 165.19 187.78 Z M 166.28 188.24 L 167.21 188.54 C 168.23 188.88 169.33 188.32 169.66 187.29 C 169.99 186.27 169.43 185.17 168.41 184.84 L 167.48 184.54 C 166.46 184.21 165.36 184.77 165.03 185.79 C 164.70 186.81 165.26 187.91 166.28 188.24 Z M 167.41 188.59 L 168.36 188.79 C 169.41 189.02 170.44 188.35 170.66 187.30 C 170.88 186.25 170.21 185.22 169.17 185.00 L 168.21 184.79 C 167.16 184.57 166.13 185.24 165.91 186.29 C 165.69 187.34 166.36 188.37 167.41 188.59 Z M 168.53 188.82 L 169.50 188.93 C 170.56 189.06 171.53 188.30 171.65 187.24 C 171.78 186.18 171.02 185.22 169.96 185.09 L 168.99 184.98 C 167.93 184.85 166.97 185.61 166.84 186.67 C 166.72 187.73 167.47 188.69 168.53 188.82 Z M 169.63 188.93 L 170.63 188.99 C 171.70 189.04 172.60 188.23 172.66 187.17 C 172.71 186.10 171.90 185.20 170.84 185.14 L 169.84 185.09 C 168.77 185.03 167.87 185.85 167.81 186.91 C 167.75 187.97 168.57 188.88 169.63 188.93 Z M 170.71 188.98 L 171.75 189.00 C 172.81 189.01 173.68 188.16 173.69 187.10 C 173.71 186.04 172.86 185.17 171.80 185.16 L 170.76 185.15 C 169.70 185.13 168.83 185.98 168.82 187.04 C 168.80 188.10 169.65 188.97 170.71 188.98 Z M 171.79 188.99 L 172.73 188.98 C 173.78 188.97 174.63 188.11 174.62 187.05 C 174.61 186.00 173.75 185.15 172.70 185.16 L 171.76 185.17 C 170.70 185.18 169.86 186.04 169.86 187.09 C 169.87 188.15 170.74 189.00 171.79 188.99 Z M 172.77 188.97 L 173.74 188.94 C 174.79 188.91 175.62 188.03 175.58 186.98 C 175.55 185.93 174.67 185.10 173.62 185.14 L 172.65 185.17 C 171.60 185.20 170.78 186.08 170.81 187.13 C 170.84 188.18 171.72 189.01 172.77 188.97 Z M 173.80 188.93 L 174.80 188.87 C 175.85 188.80 176.64 187.90 176.58 186.86 C 176.51 185.81 175.61 185.02 174.56 185.08 L 173.56 185.15 C 172.51 185.21 171.72 186.11 171.79 187.16 C 171.85 188.21 172.75 189.00 173.80 188.93 Z M 174.88 188.86 L 175.91 188.75 C 176.95 188.64 177.71 187.71 177.60 186.67 C 177.49 185.63 176.56 184.88 175.52 184.99 L 174.49 185.10 C 173.45 185.20 172.70 186.13 172.80 187.17 C 172.91 188.21 173.84 188.96 174.88 188.86 Z M 176.00 188.73 L 177.02 188.57 C 178.05 188.42 178.76 187.46 178.60 186.43 C 178.45 185.40 177.49 184.70 176.46 184.85 L 175.44 185.01 C 174.41 185.16 173.70 186.12 173.86 187.15 C 174.01 188.18 174.97 188.88 176.00 188.73 Z M 177.10 188.55 L 178.06 188.37 C 179.08 188.16 179.74 187.18 179.54 186.16 C 179.34 185.15 178.35 184.48 177.34 184.68 L 176.38 184.87 C 175.36 185.07 174.70 186.06 174.90 187.08 C 175.10 188.09 176.09 188.75 177.10 188.55 Z M 178.13 188.34 L 179.10 188.11 C 180.11 187.88 180.73 186.87 180.49 185.86 C 180.25 184.86 179.24 184.24 178.24 184.48 L 177.27 184.71 C 176.26 184.94 175.64 185.95 175.88 186.96 C 176.12 187.96 177.13 188.58 178.13 188.34 Z M 179.16 188.09 L 180.14 187.82 C 181.13 187.55 181.71 186.53 181.44 185.54 C 181.17 184.54 180.14 183.96 179.15 184.23 L 178.18 184.50 C 177.18 184.77 176.60 185.79 176.87 186.79 C 177.14 187.78 178.17 188.36 179.16 188.09 Z M 180.19 187.80 L 181.16 187.50 C 182.14 187.20 182.69 186.16 182.39 185.18 C 182.09 184.20 181.05 183.65 180.07 183.95 L 179.10 184.25 C 178.12 184.55 177.57 185.59 177.87 186.57 C 178.17 187.55 179.21 188.10 180.19 187.80 Z M 181.21 187.48 L 182.17 187.15 C 183.14 186.82 183.66 185.77 183.33 184.80 C 183.00 183.84 181.95 183.32 180.98 183.65 L 180.02 183.98 C 179.05 184.31 178.53 185.36 178.86 186.33 C 179.19 187.29 180.24 187.81 181.21 187.48 Z M 182.22 187.13 L 183.17 186.77 C 184.13 186.42 184.61 185.35 184.25 184.40 C 183.90 183.45 182.84 182.96 181.88 183.32 L 180.93 183.67 C 179.98 184.03 179.49 185.09 179.85 186.05 C 180.20 187.00 181.27 187.48 182.22 187.13 Z M 183.22 186.75 L 184.15 186.37 C 185.09 185.99 185.54 184.92 185.16 183.98 C 184.78 183.04 183.71 182.58 182.77 182.97 L 181.84 183.34 C 180.90 183.72 180.44 184.80 180.83 185.74 C 181.21 186.67 182.28 187.13 183.22 186.75 Z M 184.19 186.34 L 185.11 185.94 C 186.03 185.54 186.45 184.46 186.05 183.53 C 185.65 182.61 184.57 182.19 183.64 182.59 L 182.73 182.99 C 181.80 183.40 181.38 184.47 181.78 185.40 C 182.19 186.32 183.27 186.75 184.19 186.34 Z M 185.15 185.91 L 186.05 185.49 C 186.96 185.07 187.35 183.98 186.92 183.07 C 186.49 182.16 185.41 181.77 184.50 182.20 L 183.60 182.62 C 182.69 183.05 182.30 184.13 182.73 185.04 C 183.15 185.95 184.24 186.34 185.15 185.91 Z M 186.09 185.47 L 186.97 185.02 C 187.86 184.58 188.23 183.49 187.78 182.59 C 187.33 181.70 186.24 181.33 185.35 181.78 L 184.46 182.22 C 183.57 182.67 183.21 183.76 183.65 184.66 C 184.10 185.55 185.19 185.91 186.09 185.47 Z M 187.00 185.00 L 187.90 184.52 C 188.78 184.05 189.11 182.96 188.64 182.08 C 188.17 181.20 187.08 180.87 186.20 181.34 L 185.31 181.81 C 184.43 182.28 184.10 183.37 184.56 184.25 C 185.03 185.13 186.12 185.46 187.00 185.00 Z M 187.93 184.49 L 188.81 184.00 C 189.67 183.51 189.98 182.42 189.50 181.55 C 189.01 180.69 187.92 180.38 187.05 180.87 L 186.17 181.36 C 185.31 181.85 185.00 182.94 185.49 183.81 C 185.97 184.67 187.07 184.98 187.93 184.49 Z M 188.84 183.97 L 189.70 183.46 C 190.55 182.96 190.83 181.86 190.33 181.01 C 189.83 180.16 188.74 179.88 187.89 180.38 L 187.02 180.90 C 186.17 181.40 185.89 182.49 186.39 183.34 C 186.90 184.19 187.99 184.47 188.84 183.97 Z M 189.73 183.43 L 190.58 182.91 C 191.41 182.39 191.67 181.30 191.15 180.47 C 190.64 179.63 189.54 179.37 188.71 179.89 L 187.86 180.41 C 187.03 180.93 186.77 182.02 187.28 182.86 C 187.80 183.69 188.89 183.95 189.73 183.43 Z M 190.60 182.88 L 191.42 182.35 C 192.24 181.83 192.48 180.73 191.95 179.91 C 191.43 179.09 190.33 178.85 189.51 179.38 L 188.69 179.91 C 187.86 180.44 187.63 181.53 188.16 182.36 C 188.68 183.18 189.78 183.41 190.60 182.88 Z M 191.44 182.33 L 192.28 181.77 C 193.09 181.23 193.31 180.14 192.77 179.33 C 192.23 178.52 191.14 178.31 190.33 178.85 L 189.49 179.41 C 188.69 179.95 188.47 181.04 189.01 181.84 C 189.55 182.65 190.64 182.87 191.44 182.33 Z M 192.31 181.74 L 193.13 181.16 C 193.92 180.60 194.12 179.52 193.56 178.73 C 193.01 177.94 191.92 177.75 191.13 178.30 L 190.31 178.88 C 189.52 179.43 189.33 180.52 189.88 181.31 C 190.43 182.10 191.52 182.29 192.31 181.74 Z M 193.17 181.12 L 193.97 180.52 C 194.74 179.95 194.90 178.87 194.33 178.10 C 193.76 177.33 192.67 177.17 191.90 177.74 L 191.10 178.34 C 190.33 178.91 190.17 179.99 190.74 180.76 C 191.31 181.53 192.40 181.69 193.17 181.12 Z M 194.01 180.48 L 194.78 179.86 C 195.52 179.27 195.65 178.19 195.06 177.45 C 194.46 176.70 193.38 176.58 192.64 177.17 L 191.86 177.79 C 191.12 178.38 191.00 179.46 191.59 180.20 C 192.18 180.95 193.26 181.07 194.01 180.48 Z M 194.83 179.81 L 195.57 179.16 C 196.29 178.55 196.37 177.47 195.75 176.76 C 195.13 176.04 194.06 175.96 193.34 176.58 L 192.59 177.22 C 191.88 177.84 191.80 178.92 192.42 179.63 C 193.03 180.35 194.11 180.43 194.83 179.81 Z M 195.62 179.10 L 196.38 178.39 C 197.06 177.74 197.09 176.67 196.45 175.99 C 195.81 175.31 194.73 175.28 194.05 175.92 L 193.29 176.64 C 192.61 177.28 192.58 178.36 193.22 179.04 C 193.87 179.72 194.94 179.75 195.62 179.10 Z M 196.43 178.32 L 197.15 177.58 C 197.79 176.91 197.78 175.84 197.10 175.19 C 196.43 174.55 195.37 174.57 194.72 175.24 L 194.00 175.98 C 193.36 176.65 193.38 177.72 194.05 178.37 C 194.72 179.01 195.78 178.99 196.43 178.32 Z M 197.19 177.51 L 197.86 176.76 C 198.47 176.06 198.40 175.00 197.70 174.39 C 197.01 173.78 195.95 173.85 195.34 174.55 L 194.68 175.30 C 194.07 176.00 194.14 177.06 194.83 177.67 C 195.53 178.28 196.58 178.21 197.19 177.51 Z M 197.90 176.69 L 198.50 175.93 C 199.07 175.21 198.95 174.17 198.23 173.60 C 197.51 173.02 196.46 173.15 195.89 173.87 L 195.30 174.62 C 194.72 175.34 194.85 176.38 195.57 176.96 C 196.29 177.53 197.33 177.41 197.90 176.69 Z M 198.55 175.85 L 199.12 175.03 C 199.65 174.29 199.47 173.26 198.72 172.73 C 197.97 172.21 196.94 172.39 196.41 173.13 L 195.84 173.95 C 195.32 174.70 195.50 175.73 196.25 176.25 C 196.99 176.78 198.03 176.60 198.55 175.85 Z M 199.18 174.94 L 199.72 174.05 C 200.19 173.27 199.94 172.26 199.16 171.79 C 198.38 171.31 197.37 171.56 196.90 172.34 L 196.36 173.23 C 195.89 174.01 196.14 175.02 196.91 175.49 C 197.69 175.97 198.70 175.72 199.18 174.94 Z M 199.76 173.97 L 200.22 173.10 C 200.64 172.30 200.34 171.30 199.54 170.88 C 198.73 170.45 197.74 170.76 197.31 171.56 L 196.85 172.42 C 196.43 173.23 196.73 174.22 197.54 174.65 C 198.34 175.07 199.33 174.77 199.76 173.97 Z M 200.24 173.05 L 200.65 172.20 C 201.05 171.39 200.71 170.40 199.90 170.01 C 199.09 169.61 198.10 169.95 197.71 170.76 L 197.29 171.61 C 196.89 172.43 197.23 173.41 198.05 173.80 C 198.86 174.20 199.84 173.86 200.24 173.05 Z M 200.66 172.19 L 200.73 172.04 C 201.12 171.23 200.77 170.25 199.96 169.86 C 199.14 169.47 198.16 169.81 197.77 170.63 L 197.70 170.77 C 197.31 171.59 197.66 172.57 198.47 172.96 C 199.29 173.35 200.27 173.00 200.66 172.19 Z"
      fill="black"
      fill-rule="nonzero" /><path d="M 129.53 150.44 L 130.16 151.24 C 130.79 152.02 131.93 152.15 132.71 151.52 C 133.50 150.90 133.63 149.76 133.00 148.98 L 132.37 148.18 C 131.75 147.40 130.60 147.27 129.82 147.89 C 129.04 148.52 128.91 149.66 129.53 150.44 Z M 130.25 151.34 L 130.93 152.07 C 131.61 152.81 132.76 152.85 133.49 152.17 C 134.23 151.49 134.27 150.34 133.59 149.61 L 132.91 148.87 C 132.23 148.14 131.09 148.09 130.35 148.77 C 129.62 149.45 129.57 150.60 130.25 151.34 Z M 131.13 152.26 L 131.90 152.87 C 132.68 153.49 133.82 153.36 134.45 152.58 C 135.07 151.79 134.94 150.65 134.16 150.03 L 133.39 149.42 C 132.61 148.80 131.46 148.93 130.84 149.71 C 130.22 150.49 130.35 151.63 131.13 152.26 Z M 132.21 153.05 L 133.07 153.49 C 133.96 153.94 135.04 153.59 135.49 152.70 C 135.94 151.82 135.59 150.73 134.71 150.28 L 133.84 149.84 C 132.96 149.39 131.87 149.75 131.42 150.63 C 130.97 151.52 131.33 152.60 132.21 153.05 Z M 133.34 153.57 L 134.29 153.88 C 135.22 154.19 136.22 153.68 136.53 152.75 C 136.83 151.82 136.32 150.82 135.39 150.51 L 134.44 150.20 C 133.51 149.90 132.51 150.41 132.20 151.34 C 131.90 152.27 132.41 153.27 133.34 153.57 Z M 134.46 153.90 L 135.46 154.13 C 136.40 154.34 137.34 153.75 137.55 152.81 C 137.76 151.87 137.17 150.93 136.23 150.72 L 135.22 150.49 C 134.28 150.28 133.35 150.87 133.14 151.82 C 132.93 152.76 133.52 153.69 134.46 153.90 Z M 135.54 154.15 L 136.53 154.32 C 137.48 154.48 138.38 153.85 138.55 152.89 C 138.71 151.94 138.08 151.04 137.13 150.87 L 136.14 150.70 C 135.19 150.53 134.29 151.17 134.12 152.12 C 133.96 153.08 134.59 153.98 135.54 154.15 Z M 136.57 154.36 L 137.56 154.50 C 138.54 154.64 139.44 153.97 139.58 152.99 C 139.72 152.02 139.05 151.11 138.07 150.97 L 137.08 150.83 C 136.11 150.69 135.20 151.36 135.06 152.34 C 134.92 153.31 135.60 154.22 136.57 154.36 Z M 137.58 154.54 L 138.58 154.67 C 139.57 154.80 140.49 154.09 140.61 153.10 C 140.74 152.10 140.04 151.19 139.04 151.06 L 138.05 150.93 C 137.05 150.81 136.14 151.51 136.01 152.51 C 135.88 153.50 136.59 154.41 137.58 154.54 Z M 138.58 154.69 L 138.81 154.72 C 139.82 154.85 140.74 154.13 140.87 153.12 C 140.99 152.11 140.28 151.20 139.27 151.07 L 139.04 151.04 C 138.03 150.91 137.11 151.63 136.99 152.64 C 136.86 153.65 137.57 154.57 138.58 154.69 Z"
      fill="black"
      fill-rule="nonzero" /><path d="M 185.16 102.32 L 184.53 102.95 C 183.78 103.70 183.78 104.92 184.53 105.67 C 185.29 106.42 186.50 106.42 187.25 105.66 L 187.88 105.03 C 188.63 104.28 188.63 103.06 187.87 102.32 C 187.12 101.57 185.91 101.57 185.16 102.32 Z M 184.51 102.96 L 183.86 103.62 C 183.11 104.39 183.13 105.61 183.89 106.35 C 184.65 107.10 185.87 107.09 186.62 106.32 L 187.27 105.66 C 188.01 104.90 188.00 103.67 187.24 102.93 C 186.48 102.18 185.26 102.20 184.51 102.96 Z M 183.83 103.64 L 183.13 104.38 C 182.39 105.16 182.43 106.39 183.20 107.12 C 183.98 107.86 185.21 107.83 185.94 107.05 L 186.64 106.31 C 187.38 105.53 187.35 104.30 186.57 103.57 C 185.79 102.83 184.57 102.86 183.83 103.64 Z M 183.10 104.40 L 182.32 105.25 C 181.60 106.05 181.66 107.28 182.45 108.00 C 183.24 108.73 184.48 108.67 185.20 107.88 L 185.97 107.03 C 186.70 106.23 186.64 105.00 185.85 104.28 C 185.05 103.55 183.82 103.61 183.10 104.40 Z M 182.30 105.27 L 181.70 105.95 C 180.99 106.76 181.06 107.99 181.87 108.70 C 182.68 109.42 183.92 109.34 184.63 108.53 L 185.23 107.86 C 185.94 107.05 185.86 105.81 185.05 105.10 C 184.25 104.39 183.01 104.46 182.30 105.27 Z M 181.69 105.96 L 181.06 106.68 C 180.36 107.49 180.44 108.73 181.26 109.43 C 182.07 110.14 183.31 110.06 184.01 109.24 L 184.64 108.52 C 185.35 107.71 185.26 106.47 184.45 105.76 C 183.63 105.06 182.40 105.14 181.69 105.96 Z M 181.06 106.68 L 180.40 107.44 C 179.70 108.26 179.78 109.49 180.60 110.20 C 181.42 110.91 182.65 110.82 183.36 110.00 L 184.02 109.24 C 184.72 108.42 184.63 107.19 183.82 106.48 C 183.00 105.77 181.77 105.86 181.06 106.68 Z M 180.40 107.44 L 179.72 108.22 C 179.01 109.04 179.10 110.28 179.92 110.99 C 180.74 111.69 181.97 111.61 182.68 110.79 L 183.36 110.00 C 184.07 109.19 183.98 107.95 183.16 107.24 C 182.35 106.53 181.11 106.62 180.40 107.44 Z M 179.73 108.22 L 179.03 109.01 C 178.32 109.83 178.40 111.06 179.21 111.78 C 180.03 112.49 181.27 112.41 181.98 111.59 L 182.67 110.80 C 183.39 109.98 183.30 108.74 182.49 108.03 C 181.68 107.32 180.44 107.40 179.73 108.22 Z M 179.04 109.00 L 178.34 109.78 C 177.62 110.59 177.69 111.83 178.50 112.55 C 179.31 113.27 180.55 113.20 181.27 112.39 L 181.97 111.61 C 182.69 110.80 182.62 109.56 181.81 108.84 C 181.00 108.12 179.76 108.19 179.04 109.00 Z M 178.36 109.76 L 177.68 110.50 C 176.95 111.30 177.01 112.55 177.81 113.28 C 178.61 114.01 179.85 113.95 180.58 113.15 L 181.26 112.41 C 181.99 111.61 181.93 110.36 181.13 109.63 C 180.33 108.90 179.08 108.96 178.36 109.76 Z M 177.69 110.49 L 177.02 111.22 C 176.28 112.01 176.33 113.25 177.12 113.99 C 177.92 114.73 179.16 114.68 179.90 113.89 L 180.57 113.16 C 181.31 112.36 181.26 111.12 180.47 110.38 C 179.67 109.65 178.43 109.69 177.69 110.49 Z M 177.03 111.21 L 176.35 111.93 C 175.60 112.72 175.64 113.96 176.43 114.71 C 177.23 115.45 178.47 115.41 179.21 114.62 L 179.89 113.90 C 180.64 113.11 180.60 111.86 179.81 111.12 C 179.01 110.38 177.77 110.41 177.03 111.21 Z M 176.35 111.92 L 175.67 112.64 C 174.92 113.43 174.96 114.68 175.74 115.43 C 176.53 116.17 177.78 116.14 178.53 115.35 L 179.21 114.63 C 179.96 113.84 179.92 112.59 179.13 111.84 C 178.34 111.10 177.10 111.13 176.35 111.92 Z M 175.67 112.64 L 174.98 113.37 C 174.23 114.16 174.26 115.41 175.05 116.15 C 175.84 116.90 177.09 116.87 177.84 116.08 L 178.53 115.35 C 179.27 114.56 179.24 113.32 178.45 112.57 C 177.66 111.82 176.42 111.85 175.67 112.64 Z M 174.97 113.37 L 174.27 114.11 C 173.53 114.90 173.56 116.15 174.35 116.90 C 175.14 117.65 176.39 117.61 177.14 116.82 L 177.84 116.08 C 178.59 115.29 178.55 114.04 177.76 113.29 C 176.97 112.54 175.72 112.58 174.97 113.37 Z M 174.27 114.11 L 173.56 114.87 C 172.81 115.66 172.85 116.91 173.65 117.66 C 174.45 118.41 175.69 118.37 176.44 117.57 L 177.15 116.82 C 177.89 116.02 177.85 114.77 177.06 114.02 C 176.26 113.28 175.01 113.32 174.27 114.11 Z M 173.55 114.87 L 172.84 115.63 C 172.10 116.43 172.14 117.69 172.95 118.43 C 173.75 119.17 175.00 119.13 175.74 118.33 L 176.45 117.57 C 177.19 116.77 177.15 115.51 176.35 114.77 C 175.55 114.02 174.29 114.07 173.55 114.87 Z M 172.83 115.64 L 172.13 116.40 C 171.39 117.20 171.45 118.46 172.25 119.20 C 173.06 119.94 174.31 119.89 175.06 119.08 L 175.75 118.32 C 176.50 117.52 176.44 116.26 175.64 115.52 C 174.83 114.78 173.57 114.83 172.83 115.64 Z M 172.12 116.40 L 171.44 117.15 C 170.70 117.96 170.76 119.22 171.58 119.96 C 172.39 120.70 173.65 120.64 174.39 119.82 L 175.07 119.08 C 175.81 118.26 175.75 117.01 174.93 116.27 C 174.12 115.53 172.86 115.59 172.12 116.40 Z M 171.43 117.16 L 170.78 117.88 C 170.04 118.70 170.11 119.96 170.93 120.70 C 171.75 121.43 173.01 121.36 173.75 120.54 L 174.40 119.82 C 175.14 119.00 175.07 117.74 174.25 117.00 C 173.43 116.27 172.17 116.34 171.43 117.16 Z M 170.77 117.89 L 170.15 118.58 C 169.42 119.41 169.50 120.68 170.33 121.41 C 171.16 122.14 172.42 122.06 173.15 121.23 L 173.76 120.53 C 174.49 119.71 174.42 118.44 173.59 117.71 C 172.76 116.98 171.50 117.06 170.77 117.89 Z M 170.13 118.60 L 169.42 119.43 C 168.69 120.27 168.79 121.54 169.63 122.26 C 170.47 122.98 171.73 122.89 172.45 122.05 L 173.17 121.21 C 173.89 120.38 173.80 119.11 172.96 118.39 C 172.12 117.67 170.86 117.76 170.13 118.60 Z M 169.40 119.45 L 168.73 120.25 C 168.01 121.10 168.13 122.37 168.98 123.08 C 169.83 123.79 171.09 123.68 171.80 122.83 L 172.47 122.03 C 173.18 121.18 173.07 119.91 172.22 119.20 C 171.37 118.49 170.11 118.60 169.40 119.45 Z M 168.71 120.27 L 168.09 121.03 C 167.39 121.89 167.52 123.16 168.38 123.86 C 169.24 124.56 170.50 124.43 171.20 123.57 L 171.82 122.81 C 172.52 121.95 172.39 120.69 171.53 119.98 C 170.67 119.28 169.41 119.41 168.71 120.27 Z M 168.07 121.05 L 167.49 121.77 C 166.80 122.64 166.94 123.91 167.81 124.60 C 168.68 125.30 169.95 125.15 170.64 124.28 L 171.22 123.55 C 171.91 122.68 171.77 121.42 170.90 120.72 C 170.03 120.03 168.76 120.18 168.07 121.05 Z M 167.48 121.79 L 166.90 122.52 C 166.22 123.40 166.37 124.67 167.25 125.35 C 168.13 126.04 169.39 125.88 170.08 125.01 L 170.65 124.27 C 171.34 123.39 171.19 122.13 170.31 121.44 C 169.43 120.75 168.16 120.91 167.48 121.79 Z M 166.89 122.53 L 166.28 123.33 C 165.60 124.21 165.76 125.48 166.65 126.16 C 167.53 126.84 168.80 126.68 169.48 125.79 L 170.09 125.00 C 170.77 124.11 170.61 122.84 169.72 122.16 C 168.84 121.48 167.57 121.65 166.89 122.53 Z M 166.26 123.35 L 165.66 124.15 C 164.99 125.05 165.17 126.32 166.07 126.98 C 166.96 127.65 168.23 127.47 168.90 126.57 L 169.50 125.77 C 170.16 124.88 169.98 123.61 169.09 122.94 C 168.19 122.27 166.93 122.46 166.26 123.35 Z M 165.63 124.19 L 165.05 125.00 C 164.40 125.91 164.61 127.17 165.52 127.82 C 166.43 128.47 167.69 128.26 168.35 127.35 L 168.92 126.54 C 169.57 125.63 169.36 124.37 168.45 123.72 C 167.54 123.07 166.28 123.28 165.63 124.19 Z M 165.02 125.04 L 164.46 125.87 C 163.83 126.80 164.08 128.06 165.01 128.68 C 165.94 129.31 167.20 129.06 167.82 128.13 L 168.38 127.31 C 169.01 126.38 168.76 125.12 167.83 124.49 C 166.90 123.87 165.64 124.11 165.02 125.04 Z M 164.42 125.93 L 163.86 126.82 C 163.27 127.77 163.56 129.02 164.51 129.62 C 165.47 130.21 166.72 129.92 167.31 128.96 L 167.87 128.08 C 168.46 127.12 168.17 125.87 167.21 125.28 C 166.26 124.68 165.01 124.98 164.42 125.93 Z M 163.81 126.89 L 163.31 127.78 C 162.76 128.76 163.11 130.00 164.09 130.56 C 165.07 131.11 166.31 130.76 166.86 129.78 L 167.36 128.89 C 167.91 127.91 167.57 126.67 166.59 126.12 C 165.61 125.56 164.37 125.91 163.81 126.89 Z M 163.26 127.88 L 162.82 128.76 C 162.32 129.77 162.74 130.99 163.75 131.49 C 164.76 131.99 165.98 131.58 166.48 130.57 L 166.92 129.68 C 167.42 128.67 167.00 127.45 165.99 126.95 C 164.98 126.45 163.76 126.87 163.26 127.88 Z M 162.76 128.89 L 162.39 129.80 C 161.96 130.85 162.46 132.04 163.51 132.47 C 164.55 132.89 165.75 132.39 166.17 131.35 L 166.54 130.44 C 166.97 129.39 166.47 128.20 165.42 127.77 C 164.38 127.34 163.19 127.84 162.76 128.89 Z M 162.30 130.05 L 162.01 131.16 C 161.72 132.25 162.37 133.37 163.46 133.66 C 164.55 133.95 165.67 133.30 165.96 132.21 L 166.26 131.10 C 166.55 130.01 165.90 128.89 164.80 128.60 C 163.71 128.31 162.59 128.96 162.30 130.05 Z M 161.94 131.76 L 161.98 132.68 C 162.02 133.81 162.97 134.69 164.10 134.64 C 165.23 134.60 166.11 133.65 166.07 132.52 L 166.03 131.60 C 165.99 130.47 165.03 129.59 163.90 129.64 C 162.78 129.68 161.90 130.63 161.94 131.76 Z M 162.40 133.85 L 162.87 134.45 C 163.56 135.35 164.85 135.51 165.74 134.82 C 166.64 134.13 166.80 132.84 166.11 131.95 L 165.64 131.35 C 164.95 130.45 163.66 130.29 162.77 130.98 C 161.88 131.67 161.71 132.95 162.40 133.85 Z M 163.81 135.13 L 164.64 135.43 C 165.71 135.80 166.88 135.24 167.25 134.18 C 167.63 133.11 167.07 131.94 166.00 131.57 L 165.17 131.27 C 164.10 130.90 162.94 131.46 162.56 132.52 C 162.18 133.59 162.74 134.76 163.81 135.13 Z M 165.10 135.53 L 166.17 135.65 C 167.29 135.77 168.30 134.95 168.42 133.83 C 168.54 132.71 167.73 131.70 166.61 131.58 L 165.54 131.46 C 164.42 131.34 163.41 132.15 163.29 133.28 C 163.17 134.40 163.98 135.41 165.10 135.53 Z M 166.33 135.66 L 167.43 135.69 C 168.56 135.72 169.50 134.83 169.53 133.70 C 169.56 132.57 168.67 131.63 167.55 131.60 L 166.44 131.57 C 165.31 131.54 164.37 132.43 164.34 133.55 C 164.31 134.68 165.20 135.62 166.33 135.66 Z M 167.46 135.68 L 168.44 135.70 C 169.57 135.71 170.50 134.81 170.51 133.68 C 170.52 132.55 169.62 131.62 168.49 131.61 L 167.51 131.60 C 166.38 131.58 165.46 132.49 165.45 133.62 C 165.43 134.75 166.34 135.67 167.46 135.68 Z M 168.46 135.69 L 169.44 135.70 C 170.57 135.70 171.49 134.79 171.49 133.67 C 171.50 132.54 170.59 131.62 169.46 131.62 L 168.48 131.61 C 167.35 131.61 166.43 132.52 166.43 133.64 C 166.42 134.77 167.33 135.69 168.46 135.69 Z M 169.45 135.69 L 170.47 135.70 C 171.60 135.70 172.51 134.79 172.51 133.66 C 172.51 132.54 171.60 131.62 170.48 131.62 L 169.46 131.62 C 168.33 131.62 167.42 132.53 167.42 133.66 C 167.42 134.78 168.33 135.69 169.45 135.69 Z M 170.48 135.69 L 171.39 135.69 C 172.51 135.69 173.42 134.78 173.42 133.66 C 173.42 132.53 172.51 131.62 171.39 131.62 L 170.47 131.63 C 169.35 131.63 168.44 132.54 168.44 133.66 C 168.44 134.78 169.35 135.69 170.48 135.69 Z M 171.41 135.69 L 172.32 135.68 C 173.44 135.67 174.34 134.75 174.33 133.63 C 174.32 132.51 173.40 131.61 172.28 131.62 L 171.37 131.63 C 170.25 131.64 169.35 132.56 169.36 133.68 C 169.37 134.80 170.29 135.70 171.41 135.69 Z M 172.36 135.67 L 173.34 135.65 C 174.46 135.61 175.34 134.68 175.31 133.56 C 175.28 132.44 174.34 131.56 173.22 131.59 L 172.24 131.62 C 171.12 131.66 170.24 132.59 170.27 133.71 C 170.31 134.83 171.24 135.71 172.36 135.67 Z M 173.40 135.64 L 174.47 135.58 C 175.59 135.51 176.44 134.56 176.38 133.44 C 176.32 132.33 175.36 131.47 174.24 131.54 L 173.17 131.60 C 172.05 131.66 171.20 132.62 171.26 133.73 C 171.33 134.85 172.28 135.70 173.40 135.64 Z M 174.54 135.57 L 175.62 135.48 C 176.73 135.38 177.55 134.40 177.45 133.29 C 177.36 132.17 176.37 131.35 175.26 131.45 L 174.18 131.54 C 173.07 131.64 172.25 132.62 172.34 133.73 C 172.44 134.85 173.42 135.67 174.54 135.57 Z M 175.67 135.47 L 176.51 135.37 C 177.62 135.25 178.41 134.25 178.29 133.14 C 178.16 132.03 177.16 131.24 176.05 131.36 L 175.21 131.46 C 174.10 131.58 173.31 132.58 173.44 133.69 C 173.56 134.80 174.56 135.59 175.67 135.47 Z M 176.55 135.36 L 177.44 135.24 C 178.55 135.09 179.32 134.08 179.17 132.98 C 179.02 131.88 178.01 131.10 176.91 131.25 L 176.01 131.37 C 174.91 131.52 174.14 132.53 174.29 133.63 C 174.43 134.74 175.45 135.51 176.55 135.36 Z M 177.48 135.23 L 178.43 135.09 C 179.53 134.92 180.28 133.89 180.11 132.80 C 179.94 131.70 178.92 130.95 177.82 131.12 L 176.87 131.26 C 175.78 131.43 175.02 132.45 175.19 133.55 C 175.36 134.65 176.38 135.40 177.48 135.23 Z M 178.46 135.08 L 179.47 134.91 C 180.56 134.72 181.29 133.69 181.11 132.59 C 180.92 131.50 179.88 130.77 178.79 130.95 L 177.79 131.12 C 176.70 131.31 175.96 132.35 176.15 133.44 C 176.34 134.53 177.37 135.26 178.46 135.08 Z M 179.50 134.90 L 180.56 134.70 C 181.64 134.50 182.36 133.45 182.16 132.37 C 181.95 131.28 180.91 130.56 179.82 130.77 L 178.76 130.96 C 177.68 131.17 176.96 132.21 177.16 133.30 C 177.37 134.38 178.41 135.10 179.50 134.90 Z M 180.58 134.69 L 181.70 134.46 C 182.78 134.25 183.48 133.19 183.26 132.11 C 183.04 131.03 181.99 130.33 180.91 130.55 L 179.79 130.78 C 178.71 130.99 178.01 132.05 178.23 133.13 C 178.45 134.21 179.50 134.91 180.58 134.69 Z M 181.73 134.45 L 182.80 134.22 C 183.88 133.99 184.56 132.93 184.33 131.86 C 184.10 130.78 183.04 130.10 181.96 130.33 L 180.89 130.56 C 179.81 130.79 179.13 131.85 179.36 132.93 C 179.59 134.00 180.65 134.69 181.73 134.45 Z M 182.82 134.21 L 183.82 133.98 C 184.89 133.74 185.56 132.68 185.32 131.61 C 185.08 130.54 184.01 129.87 182.95 130.11 L 181.94 130.34 C 180.87 130.58 180.20 131.65 180.45 132.71 C 180.69 133.78 181.75 134.45 182.82 134.21 Z M 183.84 133.97 L 184.86 133.73 C 185.92 133.48 186.58 132.41 186.33 131.35 C 186.08 130.29 185.01 129.63 183.95 129.88 L 182.93 130.12 C 181.87 130.37 181.21 131.44 181.46 132.50 C 181.71 133.56 182.78 134.22 183.84 133.97 Z M 184.87 133.72 L 185.90 133.47 C 186.95 133.21 187.60 132.14 187.34 131.09 C 187.09 130.03 186.02 129.39 184.96 129.64 L 183.94 129.89 C 182.88 130.15 182.24 131.22 182.49 132.27 C 182.75 133.33 183.82 133.98 184.87 133.72 Z M 185.91 133.46 L 186.92 133.20 C 187.97 132.94 188.61 131.87 188.34 130.82 C 188.08 129.77 187.02 129.14 185.97 129.40 L 184.95 129.66 C 183.90 129.92 183.27 130.98 183.53 132.03 C 183.79 133.08 184.86 133.72 185.91 133.46 Z M 186.93 133.19 L 187.92 132.94 C 188.96 132.67 189.59 131.60 189.32 130.56 C 189.05 129.51 187.98 128.89 186.94 129.16 L 185.95 129.41 C 184.91 129.68 184.28 130.75 184.55 131.79 C 184.82 132.83 185.89 133.46 186.93 133.19 Z M 187.93 132.92 L 188.87 132.67 C 189.91 132.40 190.53 131.33 190.25 130.30 C 189.98 129.26 188.91 128.64 187.88 128.92 L 186.93 129.17 C 185.89 129.44 185.28 130.51 185.55 131.54 C 185.83 132.58 186.89 133.20 187.93 132.92 Z M 188.89 132.66 L 189.77 132.42 C 190.81 132.14 191.41 131.07 191.13 130.04 C 190.85 129.01 189.79 128.40 188.76 128.68 L 187.87 128.93 C 186.83 129.21 186.23 130.27 186.51 131.30 C 186.79 132.34 187.85 132.94 188.89 132.66 Z M 189.79 132.40 L 190.76 132.13 C 191.78 131.84 192.38 130.78 192.09 129.76 C 191.80 128.73 190.74 128.14 189.71 128.43 L 188.74 128.70 C 187.72 128.99 187.12 130.05 187.41 131.07 C 187.70 132.10 188.76 132.69 189.79 132.40 Z M 190.78 132.10 L 191.96 131.75 C 192.97 131.46 193.54 130.40 193.24 129.39 C 192.95 128.38 191.89 127.80 190.88 128.10 L 189.70 128.45 C 188.69 128.75 188.11 129.81 188.41 130.82 C 188.71 131.83 189.77 132.40 190.78 132.10 Z M 191.98 131.72 L 192.99 131.40 C 193.98 131.09 194.53 130.04 194.21 129.05 C 193.90 128.06 192.85 127.51 191.86 127.82 L 190.85 128.14 C 189.87 128.45 189.32 129.50 189.63 130.49 C 189.94 131.48 190.99 132.03 191.98 131.72 Z M 193.02 131.36 L 193.88 131.07 C 194.85 130.74 195.37 129.69 195.04 128.73 C 194.72 127.76 193.67 127.24 192.70 127.57 L 191.83 127.86 C 190.86 128.19 190.34 129.24 190.67 130.20 C 191.00 131.17 192.05 131.69 193.02 131.36 Z M 193.91 131.03 L 194.68 130.75 C 195.63 130.41 196.12 129.37 195.78 128.42 C 195.43 127.47 194.39 126.98 193.44 127.32 L 192.67 127.60 C 191.73 127.95 191.24 128.99 191.58 129.94 C 191.92 130.88 192.97 131.37 193.91 131.03 Z M 194.71 130.72 L 195.53 130.40 C 196.45 130.05 196.91 129.01 196.56 128.08 C 196.20 127.15 195.16 126.69 194.23 127.05 L 193.42 127.36 C 192.49 127.72 192.03 128.76 192.38 129.69 C 192.74 130.61 193.78 131.07 194.71 130.72 Z M 195.57 130.36 L 196.48 129.98 C 197.39 129.60 197.81 128.56 197.43 127.65 C 197.05 126.75 196.01 126.32 195.10 126.70 L 194.19 127.09 C 193.29 127.47 192.86 128.51 193.24 129.41 C 193.62 130.32 194.66 130.74 195.57 130.36 Z M 196.56 129.92 L 197.44 129.49 C 198.32 129.07 198.68 128.02 198.26 127.14 C 197.83 126.27 196.78 125.91 195.91 126.33 L 195.03 126.76 C 194.15 127.18 193.79 128.23 194.21 129.11 C 194.63 129.98 195.69 130.35 196.56 129.92 Z M 197.54 129.42 L 198.42 128.92 C 199.25 128.44 199.54 127.37 199.06 126.54 C 198.58 125.71 197.52 125.42 196.69 125.90 L 195.81 126.40 C 194.98 126.88 194.69 127.95 195.17 128.78 C 195.65 129.61 196.71 129.90 197.54 129.42 Z M 198.52 128.84 L 199.31 128.30 C 200.10 127.77 200.31 126.70 199.77 125.91 C 199.24 125.12 198.17 124.91 197.38 125.44 L 196.59 125.98 C 195.80 126.51 195.59 127.58 196.13 128.37 C 196.66 129.16 197.73 129.37 198.52 128.84 Z M 199.37 128.24 L 200.16 127.65 C 200.91 127.08 201.06 126.01 200.50 125.26 C 199.93 124.50 198.86 124.35 198.10 124.92 L 197.32 125.51 C 196.57 126.07 196.41 127.15 196.98 127.90 C 197.55 128.65 198.62 128.80 199.37 128.24 Z M 200.19 127.60 L 200.98 126.97 C 201.71 126.38 201.83 125.31 201.24 124.59 C 200.66 123.86 199.59 123.74 198.86 124.33 L 198.07 124.96 C 197.34 125.55 197.23 126.61 197.81 127.34 C 198.40 128.07 199.46 128.19 200.19 127.60 Z M 201.00 126.94 L 201.79 126.27 C 202.51 125.68 202.60 124.62 202.01 123.91 C 201.42 123.20 200.36 123.10 199.65 123.69 L 198.85 124.36 C 198.14 124.95 198.04 126.01 198.63 126.72 C 199.23 127.43 200.28 127.53 201.00 126.94 Z M 201.79 126.26 L 202.05 126.05 C 202.75 125.45 202.84 124.40 202.25 123.70 C 201.66 122.99 200.61 122.90 199.90 123.49 L 199.65 123.71 C 198.94 124.30 198.85 125.35 199.45 126.05 C 200.04 126.76 201.09 126.85 201.79 126.26 Z"
      fill="black"
      fill-rule="nonzero" /><path d="M 185.74 114.48 L 184.93 115.03 C 184.08 115.61 183.86 116.76 184.44 117.61 C 185.02 118.46 186.17 118.68 187.02 118.10 L 187.83 117.55 C 188.67 116.97 188.89 115.82 188.32 114.97 C 187.74 114.12 186.59 113.91 185.74 114.48 Z M 184.70 115.14 L 183.97 115.79 C 183.19 116.49 183.12 117.70 183.82 118.49 C 184.52 119.27 185.73 119.34 186.52 118.64 L 187.24 117.99 C 188.03 117.29 188.10 116.08 187.40 115.29 C 186.70 114.51 185.49 114.44 184.70 115.14 Z M 183.61 116.12 L 183.05 116.96 C 182.45 117.87 182.69 119.09 183.59 119.69 C 184.50 120.29 185.72 120.05 186.32 119.15 L 186.88 118.31 C 187.49 117.40 187.24 116.18 186.34 115.58 C 185.43 114.97 184.21 115.22 183.61 116.12 Z M 182.78 117.43 L 182.53 118.21 C 182.18 119.27 182.75 120.40 183.80 120.74 C 184.86 121.09 185.99 120.51 186.33 119.46 L 186.59 118.68 C 186.94 117.63 186.36 116.49 185.31 116.15 C 184.26 115.80 183.13 116.38 182.78 117.43 Z M 182.44 118.56 L 182.32 119.40 C 182.16 120.50 182.93 121.52 184.03 121.67 C 185.13 121.83 186.15 121.06 186.30 119.96 L 186.42 119.12 C 186.57 118.02 185.81 117.00 184.71 116.85 C 183.61 116.69 182.59 117.46 182.44 118.56 Z M 182.30 119.63 L 182.27 120.60 C 182.25 121.71 183.12 122.63 184.23 122.66 C 185.34 122.69 186.26 121.81 186.29 120.70 L 186.32 119.73 C 186.35 118.62 185.47 117.70 184.36 117.67 C 183.25 117.64 182.33 118.52 182.30 119.63 Z M 182.28 120.75 L 182.33 121.85 C 182.39 122.96 183.33 123.81 184.44 123.76 C 185.55 123.70 186.40 122.76 186.35 121.65 L 186.29 120.55 C 186.24 119.44 185.29 118.59 184.18 118.64 C 183.07 118.70 182.22 119.64 182.28 120.75 Z M 182.34 121.95 L 182.46 123.17 C 182.58 124.28 183.56 125.08 184.67 124.97 C 185.77 124.86 186.58 123.87 186.47 122.76 L 186.34 121.54 C 186.23 120.44 185.24 119.63 184.14 119.75 C 183.03 119.86 182.23 120.85 182.34 121.95 Z M 182.47 123.23 L 182.61 124.26 C 182.75 125.36 183.76 126.13 184.86 125.99 C 185.96 125.84 186.74 124.83 186.59 123.73 L 186.46 122.70 C 186.31 121.60 185.30 120.83 184.20 120.97 C 183.10 121.12 182.33 122.13 182.47 123.23 Z M 182.61 124.29 L 182.77 125.31 C 182.93 126.41 183.95 127.17 185.05 127.01 C 186.15 126.84 186.91 125.82 186.74 124.72 L 186.59 123.69 C 186.42 122.60 185.40 121.84 184.30 122.00 C 183.20 122.17 182.45 123.19 182.61 124.29 Z M 182.77 125.34 L 182.94 126.38 C 183.12 127.48 184.15 128.22 185.25 128.04 C 186.34 127.86 187.08 126.83 186.91 125.74 L 186.74 124.69 C 186.56 123.60 185.53 122.85 184.43 123.03 C 183.34 123.21 182.59 124.24 182.77 125.34 Z M 182.94 126.40 L 183.12 127.43 C 183.31 128.52 184.35 129.26 185.44 129.07 C 186.53 128.88 187.27 127.84 187.08 126.75 L 186.90 125.72 C 186.72 124.62 185.68 123.89 184.58 124.08 C 183.49 124.27 182.75 125.31 182.94 126.40 Z M 183.12 127.44 L 183.30 128.44 C 183.49 129.53 184.54 130.26 185.63 130.07 C 186.72 129.87 187.45 128.83 187.26 127.74 L 187.08 126.74 C 186.88 125.65 185.84 124.92 184.75 125.11 C 183.66 125.31 182.93 126.35 183.12 127.44 Z M 183.30 128.45 L 183.47 129.38 C 183.67 130.47 184.72 131.20 185.81 131.00 C 186.90 130.80 187.62 129.75 187.42 128.66 L 187.25 127.73 C 187.06 126.64 186.01 125.91 184.92 126.11 C 183.83 126.31 183.10 127.36 183.30 128.45 Z M 183.47 129.38 L 183.65 130.35 C 183.85 131.44 184.90 132.17 185.99 131.97 C 187.08 131.77 187.80 130.72 187.60 129.63 L 187.42 128.66 C 187.22 127.57 186.18 126.85 185.09 127.05 C 184.00 127.25 183.27 128.29 183.47 129.38 Z M 183.65 130.35 L 183.87 131.51 C 184.06 132.60 185.10 133.33 186.19 133.13 C 187.28 132.93 188.00 131.89 187.81 130.80 L 187.60 129.63 C 187.40 128.55 186.36 127.82 185.27 128.02 C 184.18 128.22 183.46 129.26 183.65 130.35 Z M 183.87 131.51 L 184.05 132.48 C 184.24 133.56 185.28 134.29 186.36 134.09 C 187.45 133.90 188.17 132.86 187.97 131.78 L 187.80 130.81 C 187.61 129.72 186.57 129.00 185.48 129.19 C 184.40 129.39 183.68 130.42 183.87 131.51 Z M 184.05 132.48 L 184.21 133.33 C 184.40 134.41 185.43 135.13 186.51 134.94 C 187.59 134.75 188.31 133.72 188.12 132.64 L 187.97 131.78 C 187.77 130.70 186.74 129.98 185.66 130.17 C 184.58 130.36 183.86 131.40 184.05 132.48 Z M 184.21 133.34 L 184.37 134.19 C 184.56 135.27 185.59 135.98 186.67 135.79 C 187.74 135.60 188.46 134.57 188.27 133.49 L 188.11 132.64 C 187.92 131.56 186.89 130.84 185.81 131.04 C 184.74 131.23 184.02 132.26 184.21 133.34 Z M 184.37 134.19 L 184.55 135.17 C 184.75 136.24 185.77 136.96 186.85 136.76 C 187.92 136.57 188.63 135.54 188.44 134.47 L 188.26 133.49 C 188.06 132.42 187.04 131.70 185.96 131.90 C 184.89 132.09 184.18 133.12 184.37 134.19 Z M 184.56 135.17 L 184.74 136.17 C 184.93 137.24 185.96 137.95 187.03 137.75 C 188.10 137.56 188.81 136.53 188.61 135.46 L 188.43 134.47 C 188.24 133.40 187.21 132.69 186.14 132.88 C 185.07 133.08 184.36 134.10 184.56 135.17 Z M 184.74 136.16 L 184.92 137.15 C 185.11 138.22 186.13 138.93 187.20 138.74 C 188.27 138.54 188.98 137.52 188.79 136.46 L 188.61 135.47 C 188.42 134.40 187.39 133.69 186.33 133.88 C 185.26 134.07 184.55 135.09 184.74 136.16 Z M 184.92 137.14 L 185.10 138.14 C 185.28 139.21 186.30 139.92 187.36 139.73 C 188.43 139.55 189.14 138.53 188.96 137.47 L 188.78 136.47 C 188.60 135.40 187.58 134.69 186.51 134.87 C 185.45 135.06 184.74 136.07 184.92 137.14 Z M 185.10 138.12 L 185.26 139.11 C 185.44 140.18 186.45 140.89 187.51 140.72 C 188.58 140.54 189.30 139.53 189.12 138.47 L 188.95 137.48 C 188.78 136.42 187.77 135.70 186.70 135.87 C 185.64 136.05 184.92 137.06 185.10 138.12 Z M 185.27 139.09 L 185.42 140.07 C 185.58 141.13 186.58 141.86 187.65 141.69 C 188.71 141.53 189.44 140.53 189.27 139.46 L 189.12 138.49 C 188.95 137.42 187.95 136.70 186.89 136.86 C 185.83 137.03 185.10 138.03 185.27 139.09 Z M 185.42 140.04 L 185.56 141.02 C 185.71 142.08 186.70 142.82 187.76 142.67 C 188.82 142.52 189.56 141.53 189.41 140.47 L 189.27 139.49 C 189.12 138.43 188.13 137.69 187.07 137.84 C 186.00 137.99 185.27 138.98 185.42 140.04 Z M 185.56 141.00 L 185.69 141.99 C 185.83 143.05 186.81 143.79 187.87 143.66 C 188.93 143.52 189.68 142.54 189.54 141.48 L 189.41 140.49 C 189.27 139.43 188.29 138.68 187.23 138.82 C 186.17 138.96 185.42 139.94 185.56 141.00 Z M 185.70 141.97 L 185.82 142.97 C 185.95 144.02 186.92 144.78 187.98 144.65 C 189.04 144.51 189.79 143.55 189.66 142.49 L 189.53 141.50 C 189.40 140.44 188.44 139.68 187.38 139.82 C 186.32 139.95 185.57 140.91 185.70 141.97 Z M 185.83 142.96 L 185.95 143.96 C 186.07 145.01 187.03 145.77 188.09 145.64 C 189.14 145.51 189.90 144.55 189.77 143.50 L 189.65 142.50 C 189.52 141.44 188.56 140.69 187.51 140.82 C 186.45 140.94 185.70 141.90 185.83 142.96 Z M 185.95 143.96 L 186.07 144.95 C 186.20 146.01 187.16 146.76 188.21 146.63 C 189.26 146.50 190.01 145.55 189.88 144.50 L 189.76 143.50 C 189.64 142.45 188.68 141.70 187.63 141.82 C 186.58 141.95 185.83 142.90 185.95 143.96 Z M 186.08 144.95 L 186.20 145.95 C 186.33 147.00 187.28 147.74 188.33 147.62 C 189.37 147.49 190.12 146.54 190.00 145.49 L 189.88 144.50 C 189.75 143.45 188.80 142.70 187.75 142.83 C 186.70 142.95 185.96 143.91 186.08 144.95 Z M 186.21 145.95 L 186.33 146.94 C 186.46 147.98 187.40 148.72 188.45 148.60 C 189.49 148.47 190.23 147.52 190.11 146.48 L 189.99 145.49 C 189.86 144.45 188.91 143.70 187.87 143.83 C 186.83 143.96 186.08 144.91 186.21 145.95 Z M 186.34 146.94 L 186.46 147.93 C 186.59 148.97 187.53 149.71 188.57 149.58 C 189.61 149.46 190.35 148.51 190.22 147.47 L 190.10 146.48 C 189.97 145.44 189.03 144.70 187.99 144.83 C 186.95 144.95 186.21 145.90 186.34 146.94 Z M 186.47 147.93 L 186.59 148.92 C 186.71 149.96 187.65 150.69 188.69 150.57 C 189.72 150.45 190.46 149.51 190.33 148.47 L 190.21 147.48 C 190.09 146.45 189.15 145.71 188.12 145.83 C 187.08 145.96 186.34 146.90 186.47 147.93 Z M 186.60 148.91 L 186.71 149.90 C 186.83 150.93 187.76 151.67 188.79 151.55 C 189.82 151.43 190.55 150.50 190.44 149.47 L 190.32 148.49 C 190.21 147.46 189.28 146.72 188.25 146.83 C 187.22 146.95 186.48 147.88 186.60 148.91 Z M 186.72 149.88 L 186.82 150.86 C 186.92 151.89 187.84 152.63 188.87 152.53 C 189.89 152.42 190.64 151.51 190.53 150.48 L 190.43 149.49 C 190.32 148.47 189.41 147.72 188.38 147.83 C 187.36 147.94 186.61 148.85 186.72 149.88 Z M 186.83 150.84 L 186.91 151.83 C 187.01 152.85 187.91 153.60 188.93 153.51 C 189.95 153.42 190.70 152.51 190.61 151.49 L 190.52 150.50 C 190.43 149.48 189.53 148.73 188.51 148.82 C 187.49 148.91 186.73 149.82 186.83 150.84 Z M 186.92 151.80 L 187.00 152.80 C 187.08 153.82 187.96 154.58 188.98 154.50 C 190.00 154.42 190.76 153.54 190.68 152.52 L 190.61 151.52 C 190.53 150.50 189.64 149.74 188.62 149.82 C 187.61 149.89 186.84 150.78 186.92 151.80 Z M 187.01 152.77 L 187.07 153.75 C 187.13 154.77 188.00 155.54 189.02 155.47 C 190.03 155.41 190.80 154.54 190.73 153.52 L 190.67 152.54 C 190.61 151.53 189.74 150.76 188.72 150.83 C 187.71 150.89 186.94 151.76 187.01 152.77 Z M 187.08 153.73 L 187.13 154.66 C 187.18 155.67 188.04 156.44 189.04 156.39 C 190.05 156.34 190.82 155.48 190.77 154.47 L 190.72 153.54 C 190.67 152.54 189.81 151.76 188.81 151.82 C 187.80 151.87 187.03 152.73 187.08 153.73 Z M 187.14 154.65 L 187.18 155.64 C 187.23 156.64 188.08 157.41 189.08 157.36 C 190.08 157.32 190.85 156.47 190.81 155.47 L 190.76 154.48 C 190.71 153.48 189.87 152.71 188.87 152.76 C 187.87 152.80 187.09 153.65 187.14 154.65 Z M 187.19 155.63 L 187.24 156.70 C 187.29 157.69 188.13 158.46 189.12 158.42 C 190.12 158.37 190.89 157.53 190.84 156.54 L 190.79 155.47 C 190.75 154.48 189.91 153.71 188.91 153.75 C 187.92 153.80 187.15 154.64 187.19 155.63 Z M 187.25 156.70 L 187.30 157.71 C 187.35 158.70 188.19 159.46 189.17 159.42 C 190.16 159.37 190.92 158.53 190.88 157.54 L 190.83 156.53 C 190.78 155.55 189.95 154.78 188.96 154.83 C 187.97 154.88 187.21 155.72 187.25 156.70 Z M 187.31 157.71 L 187.36 158.70 C 187.41 159.69 188.24 160.45 189.22 160.40 C 190.21 160.35 190.96 159.52 190.92 158.53 L 190.87 157.54 C 190.82 156.56 189.99 155.80 189.00 155.85 C 188.02 155.90 187.26 156.73 187.31 157.71 Z M 187.37 158.70 L 187.41 159.72 C 187.46 160.70 188.29 161.45 189.27 161.41 C 190.24 161.36 191.00 160.54 190.96 159.56 L 190.91 158.54 C 190.86 157.56 190.03 156.80 189.06 156.85 C 188.08 156.89 187.32 157.72 187.37 158.70 Z M 187.42 159.71 L 187.46 160.73 C 187.50 161.71 188.33 162.47 189.30 162.42 C 190.27 162.38 191.03 161.56 190.99 160.59 L 190.95 159.57 C 190.91 158.59 190.09 157.83 189.11 157.88 C 188.14 157.92 187.38 158.74 187.42 159.71 Z M 187.47 160.72 L 187.51 161.73 C 187.54 162.70 188.35 163.46 189.32 163.42 C 190.29 163.39 191.05 162.58 191.02 161.61 L 190.98 160.60 C 190.95 159.63 190.14 158.87 189.17 158.91 C 188.20 158.94 187.44 159.75 187.47 160.72 Z M 187.52 161.71 L 187.54 162.79 C 187.56 163.75 188.36 164.52 189.33 164.50 C 190.29 164.47 191.05 163.68 191.03 162.71 L 191.00 161.63 C 190.98 160.66 190.18 159.90 189.22 159.92 C 188.26 159.95 187.50 160.74 187.52 161.71 Z M 187.56 162.77 L 187.57 163.80 C 187.58 164.75 188.37 165.52 189.32 165.50 C 190.27 165.49 191.04 164.71 191.03 163.76 L 191.01 162.73 C 191.00 161.78 190.22 161.01 189.26 161.03 C 188.31 161.04 187.55 161.82 187.56 162.77 Z M 187.59 163.78 L 187.59 164.75 C 187.60 165.70 188.37 166.46 189.31 166.45 C 190.26 166.45 191.02 165.68 191.01 164.74 L 191.01 163.77 C 191.00 162.82 190.24 162.06 189.29 162.07 C 188.35 162.07 187.58 162.84 187.59 163.78 Z M 187.61 164.74 L 187.61 165.66 C 187.61 166.60 188.37 167.36 189.30 167.36 C 190.24 167.36 191.00 166.60 191.00 165.66 L 191.00 164.74 C 191.00 163.81 190.24 163.05 189.30 163.05 C 188.37 163.05 187.61 163.81 187.61 164.74 Z M 187.62 165.66 L 187.62 166.71 C 187.62 167.64 188.38 168.39 189.30 168.39 C 190.23 168.39 190.98 167.64 190.98 166.71 L 190.98 165.66 C 190.98 164.73 190.23 163.98 189.30 163.98 C 188.38 163.98 187.62 164.73 187.62 165.66 Z M 187.64 166.71 L 187.64 167.70 C 187.64 168.62 188.38 169.37 189.30 169.37 C 190.22 169.37 190.97 168.62 190.97 167.70 L 190.97 166.71 C 190.97 165.79 190.22 165.04 189.30 165.04 C 188.38 165.04 187.64 165.79 187.64 166.71 Z M 187.65 167.70 L 187.65 168.67 C 187.65 169.58 188.39 170.32 189.30 170.32 C 190.22 170.32 190.96 169.58 190.96 168.67 L 190.96 167.70 C 190.96 166.79 190.22 166.05 189.30 166.05 C 188.39 166.05 187.65 166.79 187.65 167.70 Z M 187.66 168.67 L 187.66 168.95 C 187.66 169.86 188.40 170.59 189.30 170.59 C 190.21 170.59 190.95 169.86 190.95 168.95 L 190.95 168.67 C 190.95 167.76 190.21 167.03 189.30 167.03 C 188.40 167.03 187.66 167.76 187.66 168.67 Z"
      fill="black"
      fill-rule="nonzero" /></svg>