<svg xmlns="http://www.w3.org/2000/svg" width="300" height="300" viewBox="0 0 300 300">
<path d="M 132.67 91.30 L 131.74 91.71 C 130.84 92.11 130.44 93.16 130.83 94.06 C 131.23 94.96 132.28 95.37 133.19 94.97 L 134.11 94.56 C 135.01 94.16 135.42 93.11 135.02 92.21 C 134.62 91.31 133.57 90.90 132.67 91.30 Z M 131.73 91.72 L 130.81 92.13 C 129.92 92.54 129.52 93.59 129.93 94.49 C 130.33 95.38 131.39 95.78 132.28 95.38 L 133.20 94.96 C 134.10 94.56 134.49 93.50 134.09 92.61 C 133.68 91.71 132.63 91.31 131.73 91.72 Z M 130.79 92.15 L 129.89 92.57 C 129.00 92.99 128.62 94.05 129.04 94.94 C 129.46 95.83 130.52 96.21 131.41 95.79 L 132.31 95.36 C 133.20 94.94 133.58 93.88 133.16 92.99 C 132.74 92.10 131.67 91.72 130.79 92.15 Z M 129.84 92.59 L 128.95 93.05 C 128.08 93.49 127.73 94.56 128.17 95.44 C 128.62 96.31 129.69 96.66 130.57 96.22 L 131.46 95.77 C 132.33 95.32 132.68 94.25 132.24 93.37 C 131.79 92.50 130.72 92.15 129.84 92.59 Z M 128.91 93.07 L 128.02 93.56 C 127.16 94.03 126.84 95.11 127.31 95.97 C 127.78 96.83 128.87 97.15 129.73 96.68 L 130.61 96.19 C 131.48 95.72 131.79 94.64 131.32 93.78 C 130.85 92.92 129.77 92.60 128.91 93.07 Z M 127.98 93.58 L 127.12 94.08 C 126.27 94.57 125.98 95.66 126.47 96.51 C 126.96 97.36 128.05 97.65 128.90 97.16 L 129.76 96.66 C 130.61 96.17 130.90 95.08 130.41 94.23 C 129.92 93.38 128.83 93.09 127.98 93.58 Z M 127.10 94.09 L 126.25 94.60 C 125.41 95.10 125.14 96.19 125.64 97.04 C 126.15 97.88 127.24 98.15 128.08 97.65 L 128.92 97.14 C 129.77 96.64 130.04 95.55 129.54 94.70 C 129.03 93.86 127.94 93.59 127.10 94.09 Z M 126.24 94.61 L 125.37 95.13 C 124.53 95.65 124.27 96.74 124.78 97.58 C 125.30 98.42 126.39 98.68 127.23 98.17 L 128.09 97.64 C 128.93 97.13 129.20 96.03 128.68 95.19 C 128.17 94.36 127.08 94.09 126.24 94.61 Z M 125.35 95.15 L 124.50 95.69 C 123.67 96.22 123.43 97.31 123.95 98.14 C 124.48 98.97 125.58 99.22 126.41 98.69 L 127.25 98.15 C 128.08 97.63 128.33 96.53 127.80 95.70 C 127.27 94.87 126.18 94.63 125.35 95.15 Z M 124.46 95.72 L 123.64 96.27 C 122.83 96.82 122.61 97.92 123.16 98.74 C 123.71 99.55 124.82 99.76 125.63 99.21 L 126.45 98.66 C 127.26 98.11 127.48 97.01 126.93 96.19 C 126.38 95.38 125.27 95.17 124.46 95.72 Z M 123.58 96.31 L 122.79 96.90 C 122.00 97.48 121.83 98.59 122.41 99.38 C 123.00 100.17 124.11 100.34 124.90 99.76 L 125.69 99.17 C 126.48 98.59 126.65 97.48 126.07 96.69 C 125.49 95.90 124.37 95.73 123.58 96.31 Z M 122.72 96.95 L 121.96 97.58 C 121.20 98.20 121.09 99.32 121.71 100.08 C 122.33 100.84 123.45 100.95 124.21 100.32 L 124.97 99.70 C 125.73 99.08 125.84 97.96 125.22 97.20 C 124.60 96.44 123.48 96.33 122.72 96.95 Z M 121.87 97.65 L 121.14 98.34 C 120.42 99.00 120.38 100.13 121.04 100.85 C 121.71 101.56 122.84 101.61 123.55 100.94 L 124.29 100.25 C 125.01 99.58 125.05 98.46 124.38 97.74 C 123.72 97.02 122.59 96.98 121.87 97.65 Z M 121.05 98.42 L 120.36 99.16 C 119.69 99.87 119.72 100.99 120.43 101.67 C 121.15 102.34 122.27 102.30 122.94 101.59 L 123.64 100.85 C 124.31 100.14 124.28 99.02 123.56 98.35 C 122.85 97.67 121.73 97.71 121.05 98.42 Z M 120.27 99.26 L 119.64 100.05 C 119.02 100.81 119.14 101.92 119.90 102.54 C 120.66 103.16 121.78 103.04 122.40 102.27 L 123.03 101.49 C 123.65 100.73 123.53 99.61 122.76 98.99 C 122.00 98.38 120.89 98.50 120.27 99.26 Z M 119.53 100.19 L 118.98 101.04 C 118.45 101.86 118.68 102.96 119.50 103.49 C 120.32 104.02 121.42 103.79 121.95 102.97 L 122.50 102.13 C 123.03 101.30 122.80 100.21 121.98 99.67 C 121.16 99.14 120.06 99.37 119.53 100.19 Z M 118.86 101.26 L 118.45 102.15 C 118.04 103.03 118.42 104.09 119.31 104.50 C 120.19 104.91 121.24 104.53 121.66 103.64 L 122.07 102.75 C 122.48 101.86 122.10 100.81 121.21 100.40 C 120.33 99.99 119.28 100.37 118.86 101.26 Z M 118.35 102.43 L 118.09 103.37 C 117.84 104.31 118.39 105.28 119.34 105.54 C 120.28 105.79 121.25 105.23 121.51 104.29 L 121.76 103.36 C 122.01 102.41 121.46 101.44 120.52 101.19 C 119.57 100.93 118.60 101.49 118.35 102.43 Z M 118.05 103.60 L 117.92 104.58 C 117.80 105.55 118.48 106.43 119.45 106.56 C 120.42 106.68 121.30 106.00 121.43 105.03 L 121.55 104.05 C 121.68 103.09 120.99 102.20 120.03 102.08 C 119.06 101.95 118.17 102.64 118.05 103.60 Z M 117.91 104.72 L 117.86 105.75 C 117.82 106.72 118.57 107.55 119.54 107.59 C 120.52 107.64 121.34 106.89 121.39 105.91 L 121.44 104.89 C 121.48 103.91 120.73 103.09 119.76 103.04 C 118.78 103.00 117.96 103.75 117.91 104.72 Z M 117.86 105.80 L 117.84 106.81 C 117.83 107.79 118.60 108.59 119.58 108.61 C 120.55 108.62 121.36 107.85 121.37 106.87 L 121.39 105.86 C 121.41 104.88 120.63 104.08 119.66 104.06 C 118.68 104.05 117.88 104.82 117.86 105.80 Z M 117.84 106.83 L 117.84 107.84 C 117.83 108.81 118.61 109.61 119.59 109.62 C 120.56 109.63 121.36 108.84 121.36 107.87 L 121.37 106.86 C 121.38 105.88 120.60 105.09 119.62 105.08 C 118.65 105.07 117.85 105.85 117.84 106.83 Z M 117.84 107.85 L 117.83 108.86 C 117.83 109.83 118.62 110.63 119.59 110.63 C 120.57 110.63 121.36 109.85 121.36 108.87 L 121.36 107.86 C 121.37 106.88 120.58 106.09 119.61 106.09 C 118.63 106.09 117.84 106.87 117.84 107.85 Z M 117.83 108.86 L 117.83 109.85 C 117.83 110.82 118.62 111.61 119.60 111.61 C 120.57 111.61 121.36 110.83 121.36 109.85 L 121.36 108.87 C 121.36 107.89 120.57 107.10 119.60 107.10 C 118.62 107.10 117.83 107.89 117.83 108.86 Z M 117.83 109.85 L 117.83 110.87 C 117.83 111.85 118.62 112.64 119.60 112.64 C 120.57 112.64 121.36 111.85 121.36 110.87 L 121.36 109.85 C 121.36 108.88 120.57 108.09 119.60 108.09 C 118.62 108.09 117.83 108.88 117.83 109.85 Z M 117.83 110.88 L 117.83 111.87 C 117.84 112.84 118.63 113.63 119.61 113.63 C 120.58 113.63 121.37 112.83 121.37 111.85 L 121.37 110.86 C 121.36 109.89 120.57 109.10 119.59 109.10 C 118.61 109.11 117.83 109.90 117.83 110.88 Z M 117.83 111.88 L 117.84 112.86 C 117.85 113.84 118.65 114.63 119.63 114.62 C 120.61 114.61 121.39 113.81 121.38 112.83 L 121.37 111.84 C 121.36 110.86 120.56 110.08 119.58 110.09 C 118.60 110.10 117.82 110.90 117.83 111.88 Z M 117.84 112.88 L 117.85 113.84 C 117.87 114.82 118.68 115.60 119.66 115.58 C 120.64 115.56 121.42 114.75 121.40 113.77 L 121.39 112.81 C 121.37 111.83 120.56 111.05 119.58 111.07 C 118.60 111.09 117.82 111.90 117.84 112.88 Z M 117.85 113.87 L 117.88 114.83 C 117.92 115.81 118.74 116.58 119.72 116.54 C 120.70 116.51 121.47 115.69 121.44 114.71 L 121.41 113.75 C 121.37 112.77 120.55 112.00 119.57 112.03 C 118.59 112.06 117.82 112.89 117.85 113.87 Z M 117.88 114.86 L 117.94 115.86 C 117.99 116.84 118.82 117.60 119.81 117.55 C 120.79 117.49 121.54 116.66 121.49 115.68 L 121.44 114.67 C 121.39 113.69 120.55 112.94 119.57 112.99 C 118.59 113.04 117.83 113.88 117.88 114.86 Z M 117.94 115.91 L 118.02 116.96 C 118.09 117.94 118.95 118.67 119.93 118.60 C 120.91 118.52 121.65 117.67 121.57 116.69 L 121.49 115.63 C 121.41 114.65 120.56 113.92 119.58 113.99 C 118.60 114.07 117.86 114.92 117.94 115.91 Z M 118.02 117.01 L 118.13 118.03 C 118.23 119.01 119.10 119.72 120.08 119.62 C 121.06 119.52 121.77 118.64 121.67 117.66 L 121.57 116.64 C 121.47 115.66 120.59 114.95 119.61 115.05 C 118.63 115.15 117.92 116.03 118.02 117.01 Z M 118.13 118.07 L 118.26 119.09 C 118.39 120.07 119.29 120.76 120.26 120.63 C 121.24 120.50 121.93 119.61 121.80 118.63 L 121.67 117.61 C 121.54 116.63 120.65 115.95 119.67 116.07 C 118.69 116.20 118.00 117.10 118.13 118.07 Z M 118.27 119.14 L 118.43 120.15 C 118.58 121.12 119.50 121.79 120.47 121.63 C 121.45 121.48 122.11 120.56 121.96 119.58 L 121.80 118.58 C 121.64 117.61 120.73 116.94 119.75 117.10 C 118.78 117.25 118.11 118.17 118.27 119.14 Z M 118.44 120.21 L 118.62 121.17 C 118.81 122.14 119.75 122.77 120.72 122.58 C 121.69 122.39 122.32 121.46 122.13 120.49 L 121.95 119.53 C 121.76 118.56 120.82 117.92 119.85 118.11 C 118.88 118.30 118.25 119.24 118.44 120.21 Z M 118.64 121.25 L 118.88 122.25 C 119.11 123.21 120.08 123.80 121.04 123.57 C 122.00 123.34 122.59 122.37 122.36 121.41 L 122.12 120.41 C 121.89 119.44 120.92 118.85 119.96 119.09 C 119.00 119.32 118.41 120.28 118.64 121.25 Z M 118.91 122.37 L 119.22 123.34 C 119.52 124.28 120.52 124.80 121.46 124.51 C 122.41 124.21 122.93 123.20 122.63 122.26 L 122.33 121.29 C 122.03 120.35 121.02 119.82 120.08 120.12 C 119.14 120.42 118.61 121.42 118.91 122.37 Z M 119.27 123.49 L 119.64 124.38 C 120.02 125.29 121.07 125.72 121.98 125.34 C 122.90 124.96 123.33 123.91 122.95 123.00 L 122.58 122.11 C 122.20 121.20 121.15 120.77 120.24 121.15 C 119.32 121.53 118.89 122.58 119.27 123.49 Z M 119.72 124.54 L 120.18 125.39 C 120.65 126.26 121.73 126.58 122.60 126.12 C 123.47 125.65 123.80 124.56 123.33 123.69 L 122.87 122.84 C 122.40 121.97 121.32 121.64 120.45 122.11 C 119.58 122.58 119.25 123.67 119.72 124.54 Z M 120.28 125.56 L 120.87 126.41 C 121.44 127.22 122.55 127.42 123.36 126.86 C 124.17 126.29 124.38 125.18 123.81 124.36 L 123.22 123.52 C 122.66 122.71 121.55 122.50 120.73 123.07 C 119.92 123.63 119.72 124.75 120.28 125.56 Z M 121.05 126.62 L 121.74 127.34 C 122.42 128.06 123.56 128.08 124.27 127.40 C 124.98 126.72 125.01 125.59 124.33 124.87 L 123.64 124.15 C 122.95 123.43 121.82 123.41 121.11 124.09 C 120.39 124.77 120.37 125.91 121.05 126.62 Z M 122.05 127.60 L 122.85 128.13 C 123.68 128.67 124.78 128.44 125.33 127.62 C 125.87 126.79 125.64 125.68 124.81 125.14 L 124.01 124.61 C 123.19 124.07 122.08 124.30 121.54 125.13 C 121.00 125.95 121.23 127.06 122.05 127.60 Z M 123.36 128.35 L 124.32 128.61 C 125.26 128.88 126.24 128.32 126.51 127.38 C 126.77 126.43 126.22 125.45 125.27 125.19 L 124.31 124.92 C 123.36 124.66 122.38 125.21 122.12 126.16 C 121.86 127.10 122.41 128.08 123.36 128.35 Z M 124.89 128.66 L 125.88 128.60 C 126.85 128.55 127.59 127.72 127.54 126.75 C 127.49 125.78 126.65 125.03 125.68 125.09 L 124.70 125.14 C 123.72 125.20 122.98 126.03 123.03 127.00 C 123.09 127.97 123.92 128.71 124.89 128.66 Z M 126.42 128.47 L 127.32 128.12 C 128.21 127.77 128.66 126.75 128.31 125.86 C 127.95 124.96 126.94 124.52 126.05 124.87 L 125.14 125.22 C 124.25 125.57 123.80 126.58 124.16 127.48 C 124.51 128.38 125.52 128.82 126.42 128.47 Z M 127.72 127.87 L 128.45 127.31 C 129.21 126.74 129.37 125.66 128.79 124.90 C 128.22 124.14 127.14 123.99 126.38 124.56 L 125.64 125.12 C 124.88 125.69 124.73 126.77 125.31 127.53 C 125.88 128.29 126.96 128.44 127.72 127.87 Z M 128.67 127.09 L 129.35 126.35 C 129.99 125.66 129.94 124.59 129.25 123.95 C 128.56 123.31 127.49 123.35 126.85 124.05 L 126.17 124.78 C 125.53 125.47 125.57 126.55 126.26 127.19 C 126.95 127.82 128.03 127.78 128.67 127.09 Z M 129.44 126.20 L 130.10 125.32 C 130.65 124.58 130.50 123.53 129.76 122.97 C 129.01 122.42 127.96 122.57 127.41 123.32 L 126.75 124.20 C 126.20 124.94 126.35 125.99 127.10 126.55 C 127.84 127.10 128.89 126.94 129.44 126.20 Z M 130.14 125.24 L 130.67 124.45 C 131.18 123.68 130.97 122.65 130.21 122.14 C 129.44 121.63 128.41 121.83 127.90 122.60 L 127.37 123.40 C 126.86 124.16 127.06 125.19 127.83 125.71 C 128.59 126.22 129.63 126.01 130.14 125.24 Z M 130.70 124.40 L 131.22 123.56 C 131.71 122.78 131.47 121.75 130.69 121.27 C 129.91 120.78 128.89 121.02 128.40 121.80 L 127.87 122.64 C 127.39 123.42 127.63 124.45 128.40 124.94 C 129.18 125.42 130.21 125.18 130.70 124.40 Z M 131.24 123.52 L 131.76 122.64 C 132.23 121.85 131.96 120.84 131.17 120.37 C 130.38 119.90 129.37 120.17 128.90 120.96 L 128.38 121.83 C 127.92 122.62 128.18 123.64 128.97 124.11 C 129.76 124.57 130.77 124.31 131.24 123.52 Z M 131.77 122.62 L 132.28 121.72 C 132.73 120.92 132.45 119.91 131.65 119.46 C 130.85 119.01 129.84 119.29 129.39 120.09 L 128.89 120.98 C 128.44 121.78 128.72 122.79 129.51 123.24 C 130.31 123.69 131.32 123.41 131.77 122.62 Z M 132.29 121.70 L 132.79 120.78 C 133.23 119.98 132.93 118.97 132.13 118.53 C 131.33 118.10 130.32 118.39 129.88 119.19 L 129.38 120.11 C 128.94 120.91 129.24 121.92 130.04 122.36 C 130.84 122.80 131.85 122.50 132.29 121.70 Z M 132.80 120.76 L 133.28 119.86 C 133.71 119.05 133.40 118.05 132.59 117.62 C 131.78 117.19 130.78 117.50 130.35 118.31 L 129.87 119.21 C 129.44 120.02 129.75 121.02 130.56 121.45 C 131.37 121.88 132.37 121.57 132.80 120.76 Z M 133.29 119.85 L 133.74 118.97 C 134.16 118.16 133.84 117.16 133.03 116.74 C 132.21 116.32 131.21 116.63 130.79 117.45 L 130.34 118.32 C 129.92 119.14 130.24 120.14 131.05 120.56 C 131.87 120.98 132.87 120.66 133.29 119.85 Z M 133.75 118.96 L 134.18 118.10 C 134.59 117.28 134.26 116.29 133.44 115.87 C 132.62 115.46 131.63 115.79 131.21 116.61 L 130.78 117.46 C 130.37 118.28 130.70 119.28 131.52 119.69 C 132.34 120.10 133.34 119.77 133.75 118.96 Z M 134.19 118.09 L 134.65 117.17 C 135.05 116.35 134.72 115.35 133.89 114.94 C 133.07 114.53 132.07 114.87 131.66 115.69 L 131.20 116.62 C 130.80 117.44 131.13 118.44 131.96 118.85 C 132.78 119.26 133.78 118.92 134.19 118.09 Z M 134.65 117.18 L 135.09 116.29 C 135.50 115.46 135.16 114.46 134.33 114.05 C 133.50 113.64 132.50 113.98 132.09 114.81 L 131.65 115.69 C 131.24 116.52 131.58 117.52 132.41 117.93 C 133.24 118.34 134.24 118.00 134.65 117.18 Z M 135.09 116.31 L 135.54 115.44 C 135.96 114.61 135.62 113.60 134.79 113.17 C 133.96 112.75 132.95 113.08 132.53 113.91 L 132.09 114.79 C 131.67 115.62 132.00 116.63 132.83 117.05 C 133.66 117.47 134.67 117.14 135.09 116.31 Z M 135.53 115.50 L 136.12 114.43 C 136.57 113.61 136.27 112.57 135.44 112.11 C 134.62 111.66 133.58 111.96 133.12 112.79 L 132.54 113.85 C 132.08 114.68 132.38 115.72 133.21 116.17 C 134.03 116.63 135.07 116.33 135.53 115.50 Z M 135.97 114.72 L 136.59 113.97 C 137.20 113.22 137.09 112.12 136.34 111.51 C 135.60 110.90 134.50 111.01 133.89 111.75 L 133.27 112.50 C 132.66 113.25 132.77 114.35 133.51 114.96 C 134.26 115.57 135.36 115.46 135.97 114.72 Z M 135.01 114.63 L 135.52 114.69 C 136.49 114.82 137.39 114.12 137.51 113.15 C 137.63 112.17 136.94 111.28 135.97 111.16 L 135.46 111.09 C 134.49 110.97 133.59 111.66 133.47 112.63 C 133.34 113.61 134.03 114.50 135.01 114.63 Z M 134.13 113.73 L 134.47 114.39 C 134.91 115.28 135.99 115.64 136.88 115.20 C 137.76 114.75 138.12 113.67 137.68 112.79 L 137.35 112.12 C 136.91 111.23 135.83 110.87 134.94 111.32 C 134.05 111.76 133.69 112.84 134.13 113.73 Z M 134.35 114.11 L 134.66 115.13 C 134.95 116.08 135.96 116.62 136.91 116.33 C 137.86 116.04 138.39 115.04 138.10 114.09 L 137.79 113.07 C 137.51 112.12 136.50 111.58 135.55 111.87 C 134.60 112.16 134.07 113.16 134.35 114.11 Z M 134.65 115.08 L 134.97 116.26 C 135.23 117.22 136.22 117.78 137.18 117.52 C 138.13 117.26 138.70 116.27 138.44 115.31 L 138.12 114.14 C 137.86 113.18 136.87 112.61 135.91 112.87 C 134.95 113.13 134.39 114.12 134.65 115.08 Z M 135.00 116.32 L 135.33 117.39 C 135.63 118.34 136.63 118.86 137.57 118.57 C 138.52 118.27 139.04 117.27 138.75 116.32 L 138.41 115.25 C 138.12 114.31 137.11 113.78 136.17 114.08 C 135.23 114.37 134.70 115.38 135.00 116.32 Z M 135.39 117.50 L 135.77 118.45 C 136.12 119.36 137.15 119.81 138.06 119.46 C 138.96 119.10 139.41 118.08 139.06 117.17 L 138.68 116.21 C 138.33 115.31 137.30 114.86 136.40 115.21 C 135.49 115.57 135.04 116.59 135.39 117.50 Z M 135.85 118.57 L 136.28 119.45 C 136.70 120.32 137.74 120.68 138.60 120.26 C 139.47 119.84 139.83 118.79 139.40 117.93 L 138.98 117.05 C 138.56 116.19 137.51 115.83 136.65 116.25 C 135.79 116.67 135.43 117.71 135.85 118.57 Z M 136.37 119.57 L 136.86 120.40 C 137.35 121.21 138.40 121.47 139.21 120.98 C 140.03 120.50 140.29 119.44 139.80 118.63 L 139.31 117.81 C 138.82 117.00 137.77 116.74 136.96 117.22 C 136.15 117.71 135.88 118.76 136.37 119.57 Z M 136.97 120.51 L 137.54 121.30 C 138.09 122.05 139.15 122.22 139.90 121.67 C 140.66 121.12 140.82 120.06 140.27 119.31 L 139.70 118.52 C 139.15 117.76 138.09 117.60 137.34 118.15 C 136.58 118.70 136.42 119.75 136.97 120.51 Z M 137.63 121.39 L 138.27 122.14 C 138.87 122.85 139.93 122.94 140.63 122.34 C 141.34 121.74 141.43 120.68 140.83 119.98 L 140.19 119.22 C 139.59 118.51 138.53 118.43 137.82 119.03 C 137.12 119.62 137.03 120.68 137.63 121.39 Z M 138.34 122.20 L 139.02 122.93 C 139.65 123.60 140.70 123.63 141.37 123.01 C 142.04 122.38 142.08 121.33 141.45 120.66 L 140.76 119.93 C 140.13 119.26 139.08 119.22 138.41 119.85 C 137.74 120.48 137.71 121.53 138.34 122.20 Z M 139.06 122.95 L 139.77 123.67 C 140.41 124.32 141.46 124.32 142.10 123.68 C 142.75 123.05 142.76 122.00 142.12 121.36 L 141.41 120.64 C 140.77 119.99 139.73 119.98 139.08 120.62 C 138.43 121.26 138.42 122.30 139.06 122.95 Z M 139.79 123.67 L 139.92 123.81 C 140.56 124.45 141.60 124.45 142.24 123.81 C 142.88 123.17 142.88 122.13 142.24 121.49 L 142.11 121.35 C 141.47 120.71 140.43 120.71 139.79 121.35 C 139.15 121.99 139.15 123.03 139.79 123.67 Z"
      fill="black"
      fill-rule="nonzero" /><path d="M 145.72 101.88 L 146.65 101.88 C 147.64 101.88 148.43 101.08 148.43 100.09 C 148.43 99.11 147.63 98.31 146.65 98.31 L 145.72 98.31 C 144.74 98.31 143.94 99.11 143.94 100.10 C 143.94 101.08 144.74 101.88 145.72 101.88 Z M 146.66 101.88 L 147.61 101.87 C 148.60 101.86 149.39 101.06 149.38 100.07 C 149.37 99.09 148.57 98.30 147.58 98.30 L 146.63 98.31 C 145.65 98.32 144.86 99.12 144.87 100.11 C 144.88 101.09 145.68 101.88 146.66 101.88 Z M 147.64 101.87 L 148.63 101.85 C 149.61 101.82 150.39 101.01 150.37 100.03 C 150.35 99.04 149.53 98.26 148.55 98.28 L 147.56 98.31 C 146.57 98.33 145.79 99.14 145.82 100.12 C 145.84 101.11 146.65 101.89 147.64 101.87 Z M 148.66 101.84 L 149.72 101.80 C 150.70 101.76 151.46 100.93 151.42 99.95 C 151.39 98.97 150.56 98.20 149.57 98.24 L 148.52 98.29 C 147.54 98.32 146.77 99.15 146.81 100.14 C 146.85 101.12 147.68 101.88 148.66 101.84 Z M 149.75 101.80 L 150.80 101.74 C 151.78 101.68 152.53 100.84 152.47 99.85 C 152.41 98.87 151.57 98.13 150.58 98.18 L 149.54 98.25 C 148.56 98.30 147.81 99.15 147.87 100.13 C 147.93 101.11 148.77 101.86 149.75 101.80 Z M 150.82 101.73 L 151.79 101.66 C 152.76 101.59 153.50 100.73 153.42 99.75 C 153.35 98.77 152.50 98.04 151.52 98.11 L 150.56 98.19 C 149.58 98.26 148.84 99.12 148.92 100.09 C 148.99 101.07 149.85 101.81 150.82 101.73 Z M 151.80 101.66 L 152.80 101.57 C 153.78 101.49 154.50 100.63 154.42 99.65 C 154.34 98.67 153.48 97.95 152.50 98.03 L 151.50 98.12 C 150.52 98.20 149.80 99.06 149.88 100.04 C 149.97 101.02 150.83 101.74 151.80 101.66 Z M 152.81 101.57 L 153.83 101.47 C 154.81 101.38 155.53 100.52 155.44 99.55 C 155.35 98.57 154.48 97.85 153.51 97.94 L 152.49 98.04 C 151.51 98.13 150.80 98.99 150.89 99.96 C 150.98 100.94 151.84 101.66 152.81 101.57 Z M 153.84 101.47 L 154.86 101.37 C 155.83 101.28 156.55 100.42 156.46 99.44 C 156.36 98.47 155.50 97.76 154.53 97.85 L 153.50 97.95 C 152.53 98.04 151.82 98.90 151.91 99.88 C 152.00 100.85 152.87 101.56 153.84 101.47 Z M 154.86 101.37 L 155.87 101.27 C 156.84 101.18 157.55 100.32 157.46 99.35 C 157.37 98.37 156.51 97.66 155.53 97.76 L 154.53 97.85 C 153.55 97.94 152.84 98.81 152.93 99.78 C 153.03 100.75 153.89 101.46 154.86 101.37 Z M 155.86 101.27 L 156.92 101.17 C 157.89 101.08 158.60 100.22 158.52 99.25 C 158.43 98.28 157.57 97.57 156.60 97.66 L 155.54 97.76 C 154.57 97.85 153.86 98.71 153.95 99.68 C 154.04 100.65 154.89 101.36 155.86 101.27 Z M 156.91 101.17 L 157.98 101.08 C 158.94 100.99 159.66 100.14 159.58 99.17 C 159.49 98.20 158.64 97.49 157.67 97.57 L 156.61 97.66 C 155.64 97.75 154.92 98.60 155.00 99.57 C 155.09 100.54 155.94 101.25 156.91 101.17 Z M 157.96 101.08 L 158.98 101.00 C 159.95 100.92 160.67 100.07 160.59 99.10 C 160.51 98.14 159.67 97.42 158.70 97.49 L 157.68 97.57 C 156.72 97.65 155.99 98.50 156.07 99.46 C 156.15 100.43 156.99 101.15 157.96 101.08 Z M 158.96 100.99 L 159.93 100.92 C 160.90 100.86 161.63 100.02 161.56 99.05 C 161.49 98.09 160.65 97.36 159.69 97.43 L 158.72 97.49 C 157.75 97.56 157.02 98.40 157.09 99.37 C 157.16 100.33 158.00 101.06 158.96 100.99 Z M 159.91 100.92 L 160.84 100.87 C 161.80 100.81 162.54 99.98 162.48 99.02 C 162.43 98.06 161.60 97.32 160.64 97.38 L 159.71 97.43 C 158.74 97.49 158.01 98.31 158.06 99.28 C 158.12 100.24 158.95 100.98 159.91 100.92 Z M 160.81 100.87 L 161.83 100.82 C 162.79 100.78 163.54 99.97 163.50 99.00 C 163.46 98.04 162.64 97.29 161.68 97.33 L 160.66 97.38 C 159.70 97.42 158.95 98.23 158.99 99.20 C 159.03 100.16 159.85 100.91 160.81 100.87 Z M 161.77 100.82 L 162.85 100.82 C 163.82 100.81 164.59 100.02 164.58 99.05 C 164.58 98.09 163.79 97.31 162.82 97.32 L 161.74 97.33 C 160.77 97.34 160.00 98.13 160.01 99.09 C 160.02 100.06 160.80 100.83 161.77 100.82 Z M 162.73 100.81 L 163.73 100.87 C 164.69 100.93 165.52 100.20 165.58 99.24 C 165.63 98.27 164.90 97.45 163.94 97.39 L 162.94 97.33 C 161.98 97.27 161.15 98.00 161.10 98.96 C 161.04 99.93 161.77 100.75 162.73 100.81 Z M 163.52 100.85 L 164.41 101.01 C 165.36 101.18 166.27 100.55 166.44 99.60 C 166.61 98.65 165.98 97.74 165.03 97.57 L 164.14 97.41 C 163.19 97.24 162.28 97.87 162.11 98.82 C 161.94 99.77 162.57 100.68 163.52 100.85 Z M 164.08 100.92 L 164.97 101.27 C 165.87 101.62 166.89 101.18 167.24 100.28 C 167.59 99.38 167.15 98.37 166.25 98.01 L 165.36 97.66 C 164.46 97.31 163.45 97.75 163.10 98.65 C 162.74 99.55 163.19 100.56 164.08 100.92 Z M 164.57 101.05 L 165.36 101.63 C 166.14 102.21 167.24 102.04 167.81 101.27 C 168.38 100.49 168.22 99.40 167.44 98.82 L 166.65 98.24 C 165.88 97.66 164.78 97.82 164.21 98.60 C 163.63 99.38 163.80 100.47 164.57 101.05 Z M 165.03 101.32 L 165.65 102.09 C 166.25 102.84 167.35 102.97 168.11 102.37 C 168.86 101.76 168.99 100.66 168.39 99.91 L 167.77 99.14 C 167.17 98.38 166.07 98.25 165.32 98.86 C 164.56 99.46 164.43 100.56 165.03 101.32 Z M 165.45 101.77 L 165.87 102.62 C 166.29 103.49 167.34 103.85 168.21 103.42 C 169.08 102.99 169.44 101.94 169.01 101.08 L 168.59 100.22 C 168.16 99.35 167.11 99.00 166.24 99.43 C 165.38 99.85 165.02 100.90 165.45 101.77 Z M 165.76 102.36 L 166.04 103.27 C 166.32 104.20 167.30 104.72 168.22 104.44 C 169.15 104.15 169.67 103.18 169.39 102.25 L 169.11 101.34 C 168.83 100.41 167.85 99.89 166.93 100.17 C 166.00 100.46 165.48 101.43 165.76 102.36 Z M 165.99 103.05 L 166.16 104.06 C 166.32 105.01 167.23 105.65 168.18 105.49 C 169.13 105.33 169.78 104.42 169.61 103.47 L 169.44 102.46 C 169.28 101.51 168.37 100.87 167.42 101.03 C 166.47 101.20 165.82 102.10 165.99 103.05 Z M 166.14 103.89 L 166.21 104.96 C 166.28 105.93 167.12 106.65 168.08 106.59 C 169.05 106.52 169.78 105.68 169.71 104.72 L 169.63 103.64 C 169.57 102.68 168.73 101.95 167.76 102.02 C 166.80 102.08 166.07 102.92 166.14 103.89 Z M 166.21 104.83 L 166.20 105.81 C 166.20 106.78 166.98 107.57 167.95 107.57 C 168.92 107.58 169.70 106.80 169.71 105.83 L 169.71 104.85 C 169.72 103.88 168.94 103.09 167.97 103.09 C 167.00 103.08 166.21 103.86 166.21 104.83 Z M 166.21 105.70 L 166.14 106.70 C 166.07 107.67 166.80 108.51 167.76 108.57 C 168.73 108.64 169.57 107.91 169.63 106.95 L 169.70 105.94 C 169.77 104.98 169.04 104.14 168.08 104.07 C 167.11 104.00 166.28 104.73 166.21 105.70 Z M 166.15 106.59 L 166.01 107.59 C 165.88 108.55 166.55 109.44 167.51 109.57 C 168.47 109.70 169.35 109.03 169.49 108.07 L 169.62 107.06 C 169.75 106.10 169.08 105.22 168.12 105.09 C 167.16 104.96 166.28 105.63 166.15 106.59 Z M 166.03 107.47 L 165.83 108.45 C 165.63 109.39 166.24 110.32 167.18 110.52 C 168.13 110.72 169.06 110.12 169.26 109.17 L 169.46 108.19 C 169.66 107.25 169.06 106.32 168.11 106.12 C 167.16 105.92 166.23 106.52 166.03 107.47 Z M 165.87 108.31 L 165.57 109.30 C 165.30 110.22 165.82 111.20 166.75 111.47 C 167.67 111.75 168.65 111.22 168.92 110.30 L 169.22 109.31 C 169.50 108.38 168.97 107.41 168.04 107.13 C 167.12 106.86 166.14 107.38 165.87 108.31 Z M 165.62 109.17 L 165.26 110.11 C 164.91 111.00 165.36 112.01 166.26 112.36 C 167.15 112.71 168.16 112.26 168.51 111.37 L 168.87 110.43 C 169.22 109.53 168.78 108.52 167.88 108.17 C 166.98 107.82 165.97 108.27 165.62 109.17 Z M 165.31 110.00 L 164.89 110.89 C 164.49 111.76 164.86 112.80 165.73 113.20 C 166.60 113.61 167.64 113.23 168.04 112.36 L 168.46 111.47 C 168.87 110.60 168.49 109.57 167.62 109.16 C 166.75 108.76 165.72 109.13 165.31 110.00 Z M 164.94 110.82 L 164.48 111.68 C 164.03 112.52 164.35 113.57 165.20 114.02 C 166.04 114.47 167.09 114.15 167.54 113.30 L 168.00 112.44 C 168.45 111.60 168.13 110.55 167.28 110.10 C 166.44 109.65 165.39 109.97 164.94 110.82 Z M 164.52 111.62 L 164.02 112.49 C 163.54 113.31 163.81 114.37 164.63 114.85 C 165.46 115.33 166.51 115.05 166.99 114.23 L 167.50 113.36 C 167.98 112.54 167.70 111.48 166.88 111.00 C 166.06 110.52 165.00 110.80 164.52 111.62 Z M 164.06 112.44 L 163.52 113.28 C 163.01 114.08 163.25 115.14 164.05 115.65 C 164.84 116.15 165.90 115.92 166.41 115.12 L 166.95 114.28 C 167.45 113.48 167.22 112.43 166.42 111.92 C 165.63 111.41 164.57 111.64 164.06 112.44 Z M 163.57 113.23 L 163.00 114.05 C 162.47 114.82 162.66 115.88 163.43 116.42 C 164.20 116.95 165.26 116.76 165.80 115.99 L 166.36 115.17 C 166.90 114.40 166.71 113.34 165.93 112.80 C 165.16 112.27 164.10 112.46 163.57 113.23 Z M 163.05 114.01 L 162.45 114.80 C 161.89 115.55 162.04 116.61 162.79 117.17 C 163.54 117.73 164.60 117.57 165.16 116.83 L 165.75 116.03 C 166.31 115.29 166.16 114.23 165.41 113.67 C 164.66 113.11 163.60 113.26 163.05 114.01 Z M 162.50 114.76 L 161.87 115.54 C 161.29 116.26 161.41 117.32 162.13 117.90 C 162.85 118.48 163.91 118.36 164.49 117.64 L 165.11 116.87 C 165.69 116.14 165.58 115.09 164.86 114.51 C 164.13 113.93 163.08 114.04 162.50 114.76 Z M 161.92 115.50 L 161.26 116.26 C 160.66 116.96 160.74 118.01 161.44 118.61 C 162.14 119.21 163.20 119.13 163.80 118.43 L 164.45 117.68 C 165.05 116.98 164.97 115.92 164.27 115.32 C 163.57 114.72 162.52 114.80 161.92 115.50 Z M 161.31 116.23 L 160.63 116.97 C 160.01 117.65 160.05 118.70 160.73 119.32 C 161.41 119.94 162.46 119.89 163.08 119.21 L 163.76 118.47 C 164.37 117.79 164.33 116.74 163.65 116.12 C 162.97 115.50 161.92 115.55 161.31 116.23 Z M 160.66 116.94 L 159.96 117.68 C 159.32 118.33 159.34 119.38 160.00 120.01 C 160.65 120.64 161.70 120.63 162.33 119.97 L 163.04 119.24 C 163.67 118.58 163.65 117.54 163.00 116.90 C 162.34 116.27 161.30 116.29 160.66 116.94 Z M 159.99 117.65 L 159.27 118.35 C 158.62 118.99 158.61 120.03 159.24 120.68 C 159.88 121.33 160.92 121.35 161.57 120.71 L 162.30 120.00 C 162.95 119.36 162.96 118.32 162.32 117.67 C 161.69 117.02 160.64 117.01 159.99 117.65 Z M 159.31 118.32 L 158.57 119.00 C 157.90 119.61 157.86 120.65 158.47 121.32 C 159.09 121.99 160.13 122.03 160.80 121.42 L 161.53 120.74 C 162.20 120.13 162.24 119.09 161.63 118.42 C 161.01 117.75 159.97 117.71 159.31 118.32 Z M 158.62 118.96 L 157.88 119.60 C 157.19 120.19 157.11 121.22 157.70 121.91 C 158.29 122.60 159.32 122.68 160.01 122.09 L 160.75 121.45 C 161.44 120.86 161.52 119.83 160.93 119.14 C 160.34 118.45 159.30 118.37 158.62 118.96 Z M 157.93 119.55 L 157.14 120.18 C 156.43 120.73 156.30 121.76 156.86 122.47 C 157.42 123.19 158.45 123.31 159.16 122.75 L 159.95 122.13 C 160.66 121.57 160.79 120.55 160.23 119.83 C 159.67 119.12 158.64 119.00 157.93 119.55 Z M 157.21 120.12 L 156.41 120.68 C 155.66 121.20 155.48 122.22 156.00 122.96 C 156.51 123.71 157.53 123.89 158.28 123.37 L 159.09 122.81 C 159.83 122.29 160.01 121.27 159.49 120.53 C 158.98 119.79 157.96 119.60 157.21 120.12 Z M 156.49 120.63 L 155.64 121.14 C 154.87 121.61 154.62 122.62 155.09 123.39 C 155.56 124.17 156.56 124.41 157.34 123.94 L 158.19 123.43 C 158.96 122.96 159.21 121.95 158.74 121.18 C 158.27 120.41 157.27 120.16 156.49 120.63 Z M 155.73 121.09 L 154.86 121.55 C 154.06 121.97 153.75 122.95 154.17 123.76 C 154.59 124.56 155.58 124.87 156.38 124.45 L 157.25 124.00 C 158.05 123.58 158.36 122.59 157.94 121.79 C 157.52 120.98 156.53 120.67 155.73 121.09 Z M 154.93 121.51 L 154.04 121.93 C 153.22 122.31 152.86 123.28 153.24 124.10 C 153.62 124.92 154.60 125.28 155.42 124.90 L 156.31 124.48 C 157.13 124.10 157.49 123.13 157.11 122.31 C 156.73 121.49 155.75 121.13 154.93 121.51 Z M 154.08 121.91 L 153.15 122.31 C 152.32 122.66 151.94 123.62 152.29 124.46 C 152.65 125.29 153.61 125.67 154.44 125.32 L 155.37 124.92 C 156.20 124.56 156.59 123.60 156.23 122.77 C 155.88 121.94 154.91 121.55 154.08 121.91 Z M 153.17 122.30 L 152.22 122.69 C 151.39 123.03 150.99 123.99 151.33 124.82 C 151.68 125.66 152.63 126.06 153.47 125.72 L 154.42 125.32 C 155.25 124.98 155.65 124.02 155.31 123.19 C 154.97 122.35 154.01 121.95 153.17 122.30 Z M 152.23 122.69 L 152.13 122.72 C 151.30 123.06 150.89 124.02 151.24 124.86 C 151.58 125.69 152.53 126.10 153.37 125.76 L 153.46 125.72 C 154.30 125.38 154.70 124.42 154.36 123.58 C 154.02 122.75 153.06 122.34 152.23 122.69 Z"
      fill="black"
      fill-rule="nonzero" /><path d="M 157.13 105.11 L 156.79 105.90 C 156.41 106.77 156.81 107.79 157.69 108.17 C 158.57 108.55 159.59 108.15 159.97 107.27 L 160.31 106.49 C 160.69 105.61 160.28 104.59 159.41 104.21 C 158.53 103.83 157.51 104.23 157.13 105.11 Z M 156.77 105.90 L 156.41 106.74 C 156.03 107.63 156.44 108.66 157.33 109.04 C 158.22 109.42 159.25 109.01 159.63 108.12 L 159.99 107.27 C 160.37 106.38 159.96 105.35 159.07 104.97 C 158.18 104.59 157.15 105.00 156.77 105.90 Z M 156.38 106.74 L 155.98 107.70 C 155.60 108.60 156.03 109.64 156.93 110.02 C 157.84 110.40 158.88 109.97 159.26 109.07 L 159.66 108.11 C 160.04 107.21 159.61 106.17 158.70 105.79 C 157.80 105.41 156.76 105.84 156.38 106.74 Z M 155.95 107.70 L 155.51 108.80 C 155.13 109.72 155.57 110.77 156.49 111.14 C 157.42 111.52 158.46 111.08 158.84 110.16 L 159.29 109.06 C 159.66 108.14 159.22 107.09 158.30 106.71 C 157.38 106.34 156.33 106.78 155.95 107.70 Z M 155.50 108.81 L 155.17 109.64 C 154.80 110.56 155.25 111.61 156.17 111.98 C 157.10 112.35 158.14 111.90 158.51 110.98 L 158.84 110.14 C 159.21 109.22 158.76 108.18 157.84 107.81 C 156.92 107.44 155.87 107.89 155.50 108.81 Z M 155.19 109.65 L 154.84 110.55 C 154.47 111.46 154.92 112.49 155.83 112.86 C 156.74 113.22 157.77 112.77 158.13 111.86 L 158.49 110.96 C 158.85 110.05 158.41 109.02 157.50 108.66 C 156.59 108.30 155.55 108.74 155.19 109.65 Z M 154.86 110.56 L 154.48 111.51 C 154.13 112.41 154.56 113.42 155.46 113.78 C 156.36 114.14 157.38 113.70 157.73 112.80 L 158.11 111.85 C 158.47 110.96 158.03 109.94 157.13 109.58 C 156.23 109.23 155.22 109.66 154.86 110.56 Z M 154.51 111.51 L 154.12 112.49 C 153.77 113.37 154.20 114.37 155.08 114.73 C 155.96 115.08 156.97 114.65 157.32 113.77 L 157.71 112.79 C 158.06 111.91 157.63 110.91 156.75 110.55 C 155.86 110.20 154.86 110.63 154.51 111.51 Z M 154.14 112.49 L 153.75 113.46 C 153.40 114.33 153.82 115.32 154.69 115.67 C 155.56 116.03 156.55 115.61 156.90 114.74 L 157.30 113.76 C 157.65 112.89 157.23 111.90 156.36 111.55 C 155.49 111.20 154.50 111.62 154.14 112.49 Z M 153.78 113.46 L 153.38 114.41 C 153.03 115.27 153.44 116.25 154.29 116.60 C 155.15 116.95 156.13 116.55 156.48 115.69 L 156.87 114.74 C 157.23 113.88 156.82 112.90 155.96 112.55 C 155.11 112.20 154.13 112.60 153.78 113.46 Z M 153.40 114.40 L 152.99 115.39 C 152.63 116.23 153.02 117.21 153.87 117.57 C 154.71 117.92 155.69 117.53 156.04 116.68 L 156.46 115.70 C 156.82 114.86 156.42 113.88 155.58 113.52 C 154.74 113.17 153.76 113.56 153.40 114.40 Z M 153.00 115.38 L 152.59 116.32 C 152.22 117.16 152.60 118.13 153.44 118.50 C 154.28 118.86 155.26 118.48 155.62 117.64 L 156.03 116.70 C 156.40 115.86 156.01 114.88 155.18 114.52 C 154.34 114.15 153.36 114.54 153.00 115.38 Z M 152.59 116.31 L 152.19 117.22 C 151.82 118.06 152.19 119.03 153.03 119.40 C 153.86 119.77 154.84 119.40 155.21 118.56 L 155.61 117.65 C 155.98 116.82 155.61 115.84 154.77 115.47 C 153.94 115.10 152.97 115.48 152.59 116.31 Z M 152.20 117.21 L 151.80 118.10 C 151.42 118.93 151.79 119.91 152.62 120.28 C 153.45 120.66 154.42 120.29 154.80 119.46 L 155.20 118.57 C 155.57 117.74 155.20 116.77 154.38 116.39 C 153.55 116.02 152.57 116.39 152.20 117.21 Z M 151.80 118.10 L 151.40 118.97 C 151.03 119.80 151.39 120.77 152.21 121.15 C 153.04 121.53 154.01 121.16 154.39 120.34 L 154.79 119.46 C 155.17 118.64 154.80 117.66 153.98 117.29 C 153.15 116.91 152.18 117.27 151.80 118.10 Z M 151.41 118.97 L 151.13 119.58 C 150.75 120.40 151.11 121.37 151.94 121.75 C 152.76 122.13 153.73 121.77 154.11 120.94 L 154.39 120.34 C 154.76 119.52 154.40 118.54 153.58 118.17 C 152.76 117.79 151.79 118.15 151.41 118.97 Z"
      fill="black"
      fill-rule="nonzero" /><path d="M 126.58 143.74 L 126.58 144.75 C 126.58 145.73 127.37 146.52 128.35 146.52 C 129.33 146.52 130.12 145.73 130.12 144.75 L 130.12 143.74 C 130.12 142.76 129.33 141.97 128.35 141.97 C 127.37 141.97 126.58 142.76 126.58 143.74 Z M 126.57 144.75 L 126.57 145.76 C 126.57 146.74 127.36 147.54 128.35 147.54 C 129.33 147.54 130.13 146.74 130.13 145.76 L 130.13 144.75 C 130.13 143.77 129.33 142.97 128.35 142.97 C 127.36 142.97 126.57 143.77 126.57 144.75 Z M 126.55 145.76 L 126.55 146.76 C 126.55 147.75 127.36 148.55 128.35 148.55 C 129.34 148.55 130.14 147.75 130.14 146.76 L 130.14 145.76 C 130.14 144.77 129.34 143.96 128.35 143.96 C 127.36 143.96 126.55 144.77 126.55 145.76 Z M 126.54 146.76 L 126.54 147.74 C 126.54 148.74 127.35 149.55 128.35 149.55 C 129.35 149.55 130.15 148.74 130.15 147.74 L 130.15 146.76 C 130.15 145.76 129.35 144.95 128.35 144.95 C 127.35 144.95 126.54 145.76 126.54 146.76 Z M 126.54 147.74 L 126.54 148.78 C 126.54 149.78 127.35 150.59 128.35 150.59 C 129.35 150.59 130.16 149.78 130.16 148.78 L 130.16 147.74 C 130.16 146.74 129.35 145.93 128.35 145.93 C 127.35 145.93 126.54 146.74 126.54 147.74 Z M 126.54 148.78 L 126.54 149.80 C 126.54 150.80 127.35 151.61 128.35 151.61 C 129.35 151.61 130.16 150.80 130.16 149.80 L 130.16 148.78 C 130.16 147.78 129.35 146.96 128.35 146.96 C 127.35 146.96 126.54 147.78 126.54 148.78 Z M 126.54 149.80 L 126.54 150.79 C 126.54 151.79 127.35 152.60 128.35 152.60 C 129.35 152.60 130.16 151.79 130.16 150.79 L 130.16 149.80 C 130.16 148.80 129.35 147.99 128.35 147.99 C 127.35 147.99 126.54 148.80 126.54 149.80 Z M 126.54 150.79 L 126.54 151.75 C 126.54 152.75 127.35 153.56 128.35 153.56 C 129.35 153.56 130.16 152.75 130.16 151.75 L 130.16 150.79 C 130.16 149.79 129.35 148.98 128.35 148.98 C 127.35 148.98 126.54 149.79 126.54 150.79 Z M 126.55 151.75 L 126.55 152.75 C 126.55 153.75 127.36 154.55 128.35 154.55 C 129.35 154.55 130.15 153.74 130.15 152.75 L 130.15 151.75 C 130.15 150.75 129.34 149.95 128.35 149.95 C 127.35 149.95 126.55 150.76 126.55 151.75 Z M 126.56 152.77 L 126.58 153.76 C 126.59 154.75 127.40 155.54 128.38 155.52 C 129.37 155.51 130.16 154.70 130.15 153.72 L 130.14 152.73 C 130.13 151.74 129.32 150.95 128.33 150.96 C 127.34 150.98 126.55 151.79 126.56 152.77 Z M 126.59 153.80 L 126.63 154.79 C 126.66 155.77 127.48 156.53 128.46 156.50 C 129.44 156.46 130.20 155.64 130.17 154.67 L 130.13 153.68 C 130.10 152.70 129.28 151.93 128.30 151.97 C 127.32 152.00 126.56 152.82 126.59 153.80 Z M 126.65 154.84 L 126.71 155.80 C 126.77 156.77 127.61 157.50 128.58 157.44 C 129.54 157.37 130.28 156.54 130.21 155.57 L 130.15 154.61 C 130.09 153.65 129.25 152.91 128.28 152.98 C 127.31 153.04 126.58 153.88 126.65 154.84 Z M 126.72 155.86 L 126.81 156.74 C 126.90 157.70 127.76 158.40 128.72 158.31 C 129.68 158.21 130.38 157.36 130.28 156.40 L 130.20 155.52 C 130.10 154.56 129.25 153.86 128.29 153.95 C 127.33 154.04 126.63 154.90 126.72 155.86 Z M 126.82 156.78 L 126.94 157.73 C 127.06 158.68 127.92 159.36 128.87 159.24 C 129.83 159.12 130.50 158.26 130.39 157.31 L 130.27 156.36 C 130.15 155.41 129.29 154.73 128.34 154.85 C 127.38 154.96 126.71 155.83 126.82 156.78 Z M 126.95 157.76 L 127.10 158.80 C 127.24 159.75 128.11 160.40 129.06 160.27 C 130.00 160.13 130.66 159.26 130.52 158.31 L 130.37 157.27 C 130.24 156.33 129.36 155.67 128.42 155.81 C 127.47 155.94 126.82 156.82 126.95 157.76 Z M 127.11 158.83 L 127.30 159.97 C 127.44 160.91 128.33 161.55 129.26 161.40 C 130.20 161.25 130.84 160.37 130.69 159.43 L 130.51 158.29 C 130.36 157.35 129.48 156.71 128.54 156.86 C 127.61 157.01 126.97 157.89 127.11 158.83 Z M 127.31 159.98 L 127.47 160.93 C 127.62 161.87 128.51 162.49 129.44 162.34 C 130.37 162.18 131.00 161.30 130.84 160.37 L 130.68 159.42 C 130.52 158.48 129.64 157.86 128.71 158.01 C 127.78 158.17 127.15 159.05 127.31 159.98 Z M 127.48 160.94 L 127.65 161.94 C 127.81 162.87 128.69 163.49 129.62 163.32 C 130.55 163.16 131.17 162.28 131.00 161.36 L 130.83 160.36 C 130.67 159.43 129.79 158.81 128.86 158.97 C 127.93 159.14 127.32 160.02 127.48 160.94 Z M 127.66 161.95 L 127.84 162.97 C 128.01 163.89 128.89 164.50 129.81 164.33 C 130.73 164.17 131.34 163.29 131.18 162.37 L 130.99 161.35 C 130.83 160.43 129.95 159.82 129.03 159.98 C 128.11 160.15 127.50 161.03 127.66 161.95 Z M 127.85 162.97 L 128.04 163.99 C 128.21 164.90 129.09 165.51 130.00 165.34 C 130.92 165.17 131.52 164.29 131.35 163.38 L 131.17 162.36 C 131.00 161.45 130.12 160.84 129.21 161.01 C 128.29 161.18 127.69 162.06 127.85 162.97 Z M 128.05 163.99 L 128.23 164.97 C 128.40 165.88 129.28 166.48 130.19 166.31 C 131.10 166.14 131.70 165.26 131.53 164.35 L 131.35 163.37 C 131.17 162.46 130.30 161.86 129.39 162.03 C 128.48 162.20 127.88 163.08 128.05 163.99 Z M 128.24 164.97 L 128.43 165.96 C 128.60 166.86 129.48 167.46 130.38 167.28 C 131.29 167.11 131.88 166.24 131.71 165.33 L 131.52 164.35 C 131.35 163.44 130.47 162.85 129.57 163.02 C 128.66 163.20 128.07 164.07 128.24 164.97 Z M 128.44 165.96 L 128.64 167.01 C 128.82 167.92 129.69 168.50 130.59 168.33 C 131.49 168.15 132.08 167.28 131.91 166.38 L 131.70 165.33 C 131.53 164.43 130.65 163.84 129.75 164.01 C 128.85 164.19 128.26 165.06 128.44 165.96 Z M 128.65 167.01 L 128.84 167.98 C 129.01 168.88 129.88 169.47 130.77 169.30 C 131.67 169.13 132.26 168.26 132.09 167.36 L 131.90 166.39 C 131.73 165.49 130.86 164.90 129.96 165.07 C 129.06 165.24 128.48 166.11 128.65 167.01 Z M 128.84 167.97 L 129.01 168.90 C 129.17 169.80 130.03 170.39 130.93 170.23 C 131.82 170.07 132.42 169.21 132.25 168.31 L 132.08 167.38 C 131.92 166.48 131.06 165.89 130.17 166.05 C 129.27 166.21 128.68 167.07 128.84 167.97 Z M 129.01 168.88 L 129.17 169.82 C 129.32 170.71 130.16 171.32 131.06 171.17 C 131.95 171.02 132.56 170.17 132.41 169.28 L 132.25 168.34 C 132.10 167.44 131.26 166.84 130.36 166.99 C 129.47 167.14 128.86 167.98 129.01 168.88 Z M 129.17 169.78 L 129.31 170.73 C 129.44 171.62 130.27 172.24 131.16 172.11 C 132.06 171.98 132.68 171.14 132.55 170.25 L 132.41 169.31 C 132.28 168.41 131.45 167.79 130.55 167.93 C 129.65 168.06 129.04 168.89 129.17 169.78 Z M 129.30 170.70 L 129.43 171.67 C 129.55 172.56 130.37 173.20 131.26 173.08 C 132.16 172.96 132.79 172.14 132.68 171.24 L 132.55 170.28 C 132.43 169.38 131.61 168.75 130.71 168.86 C 129.82 168.98 129.19 169.80 129.30 170.70 Z M 129.43 171.65 L 129.55 172.65 C 129.65 173.55 130.47 174.19 131.37 174.08 C 132.26 173.97 132.90 173.16 132.80 172.26 L 132.68 171.26 C 132.57 170.36 131.76 169.72 130.86 169.83 C 129.96 169.94 129.32 170.75 129.43 171.65 Z M 129.54 172.64 L 129.66 173.65 C 129.76 174.55 130.57 175.20 131.47 175.10 C 132.37 175.00 133.01 174.19 132.91 173.29 L 132.80 172.27 C 132.70 171.37 131.89 170.73 130.99 170.83 C 130.09 170.93 129.44 171.74 129.54 172.64 Z M 129.66 173.65 L 129.77 174.68 C 129.87 175.58 130.68 176.23 131.57 176.13 C 132.47 176.03 133.12 175.22 133.03 174.32 L 132.91 173.30 C 132.82 172.40 132.01 171.75 131.11 171.84 C 130.21 171.94 129.56 172.75 129.66 173.65 Z"
      fill="black"
      fill-rule="nonzero" /><path d="M 129.99 145.32 L 130.78 144.72 C 131.57 144.10 131.72 142.96 131.11 142.16 C 130.49 141.36 129.35 141.21 128.55 141.83 L 127.77 142.43 C 126.97 143.04 126.82 144.19 127.43 144.99 C 128.05 145.79 129.20 145.93 129.99 145.32 Z M 130.76 144.79 L 131.57 144.20 C 132.40 143.59 132.59 142.42 131.98 141.59 C 131.38 140.75 130.21 140.56 129.37 141.17 L 128.56 141.76 C 127.73 142.36 127.54 143.53 128.15 144.37 C 128.75 145.21 129.93 145.39 130.76 144.79 Z M 131.51 144.30 L 132.36 143.75 C 133.25 143.18 133.51 141.99 132.94 141.10 C 132.36 140.21 131.18 139.95 130.28 140.52 L 129.43 141.07 C 128.54 141.64 128.28 142.83 128.86 143.72 C 129.43 144.61 130.62 144.87 131.51 144.30 Z M 132.25 143.84 L 133.04 143.41 C 133.99 142.90 134.33 141.71 133.82 140.77 C 133.30 139.83 132.12 139.48 131.18 140.00 L 130.39 140.43 C 129.45 140.95 129.10 142.13 129.62 143.07 C 130.13 144.01 131.31 144.36 132.25 143.84 Z M 132.94 143.47 L 133.80 143.06 C 134.77 142.60 135.19 141.44 134.73 140.47 C 134.27 139.50 133.12 139.08 132.14 139.54 L 131.28 139.95 C 130.31 140.40 129.89 141.56 130.35 142.53 C 130.81 143.51 131.97 143.92 132.94 143.47 Z M 133.72 143.10 L 134.69 142.69 C 135.68 142.28 136.15 141.14 135.74 140.15 C 135.32 139.16 134.18 138.69 133.19 139.10 L 132.22 139.50 C 131.23 139.92 130.76 141.06 131.18 142.05 C 131.59 143.04 132.73 143.51 133.72 143.10 Z M 134.63 142.71 L 135.65 142.33 C 136.65 141.94 137.15 140.82 136.77 139.81 C 136.39 138.81 135.26 138.31 134.26 138.69 L 133.24 139.08 C 132.24 139.46 131.74 140.59 132.12 141.59 C 132.51 142.60 133.63 143.10 134.63 142.71 Z M 135.62 142.34 L 136.55 142.00 C 137.56 141.63 138.08 140.52 137.72 139.51 C 137.35 138.50 136.23 137.98 135.22 138.34 L 134.29 138.68 C 133.28 139.05 132.76 140.16 133.12 141.17 C 133.49 142.18 134.61 142.71 135.62 142.34 Z M 136.53 142.01 L 137.50 141.67 C 138.52 141.31 139.05 140.20 138.70 139.19 C 138.35 138.17 137.24 137.64 136.22 137.99 L 135.25 138.33 C 134.23 138.69 133.70 139.80 134.05 140.81 C 134.41 141.83 135.52 142.36 136.53 142.01 Z M 137.48 141.67 L 138.46 141.34 C 139.48 141.00 140.02 139.90 139.68 138.88 C 139.34 137.86 138.24 137.32 137.22 137.66 L 136.24 137.99 C 135.23 138.33 134.68 139.43 135.02 140.45 C 135.36 141.47 136.47 142.01 137.48 141.67 Z M 138.44 141.35 L 139.37 141.05 C 140.39 140.72 140.95 139.62 140.62 138.60 C 140.29 137.58 139.19 137.02 138.17 137.35 L 137.24 137.65 C 136.22 137.98 135.66 139.08 135.99 140.10 C 136.32 141.12 137.41 141.68 138.44 141.35 Z M 139.34 141.06 L 140.37 140.74 C 141.39 140.43 141.97 139.34 141.66 138.32 C 141.34 137.29 140.26 136.71 139.23 137.03 L 138.20 137.34 C 137.18 137.66 136.60 138.74 136.91 139.77 C 137.23 140.80 138.31 141.37 139.34 141.06 Z M 140.33 140.75 L 141.32 140.47 C 142.35 140.18 142.95 139.10 142.65 138.07 C 142.36 137.04 141.28 136.44 140.25 136.74 L 139.27 137.02 C 138.24 137.31 137.64 138.39 137.93 139.42 C 138.23 140.45 139.30 141.05 140.33 140.75 Z M 141.28 140.48 L 142.20 140.23 C 143.23 139.96 143.85 138.90 143.57 137.86 C 143.30 136.83 142.24 136.21 141.20 136.49 L 140.29 136.73 C 139.25 137.01 138.64 138.07 138.91 139.10 C 139.19 140.14 140.25 140.75 141.28 140.48 Z M 142.17 140.24 L 143.07 140.01 C 144.11 139.75 144.74 138.69 144.47 137.66 C 144.21 136.62 143.16 135.99 142.12 136.26 L 141.22 136.48 C 140.19 136.75 139.56 137.80 139.82 138.83 C 140.08 139.87 141.14 140.50 142.17 140.24 Z M 143.06 140.01 L 144.00 139.78 C 145.03 139.53 145.67 138.48 145.41 137.44 C 145.16 136.40 144.11 135.77 143.07 136.02 L 142.13 136.26 C 141.10 136.51 140.46 137.56 140.72 138.59 C 140.97 139.63 142.02 140.27 143.06 140.01 Z M 143.98 139.78 L 144.95 139.55 C 145.99 139.30 146.63 138.26 146.38 137.22 C 146.13 136.19 145.09 135.55 144.05 135.79 L 143.09 136.02 C 142.05 136.27 141.41 137.31 141.66 138.35 C 141.90 139.39 142.94 140.03 143.98 139.78 Z M 144.93 139.55 L 145.94 139.32 C 146.98 139.08 147.63 138.05 147.39 137.01 C 147.15 135.97 146.11 135.32 145.07 135.56 L 144.07 135.79 C 143.03 136.03 142.38 137.07 142.62 138.10 C 142.86 139.14 143.90 139.79 144.93 139.55 Z M 145.92 139.32 L 146.90 139.11 C 147.94 138.88 148.60 137.85 148.37 136.81 C 148.14 135.77 147.11 135.11 146.07 135.34 L 145.09 135.56 C 144.05 135.79 143.39 136.82 143.62 137.86 C 143.85 138.90 144.88 139.55 145.92 139.32 Z M 146.89 139.11 L 147.87 138.90 C 148.91 138.68 149.57 137.66 149.35 136.62 C 149.13 135.58 148.11 134.92 147.07 135.13 L 146.09 135.34 C 145.05 135.56 144.39 136.58 144.61 137.62 C 144.83 138.66 145.85 139.33 146.89 139.11 Z M 147.85 138.90 L 148.84 138.70 C 149.88 138.49 150.55 137.48 150.34 136.44 C 150.13 135.40 149.12 134.73 148.08 134.94 L 147.09 135.13 C 146.05 135.34 145.38 136.36 145.59 137.40 C 145.80 138.44 146.81 139.11 147.85 138.90 Z M 148.82 138.70 L 149.80 138.52 C 150.84 138.32 151.52 137.32 151.32 136.28 C 151.13 135.24 150.12 134.55 149.08 134.75 L 148.10 134.93 C 147.06 135.13 146.38 136.13 146.58 137.17 C 146.77 138.22 147.78 138.90 148.82 138.70 Z M 149.77 138.52 L 150.79 138.34 C 151.83 138.16 152.53 137.16 152.35 136.12 C 152.16 135.08 151.17 134.39 150.13 134.57 L 149.11 134.75 C 148.07 134.93 147.37 135.92 147.56 136.96 C 147.74 138.00 148.73 138.70 149.77 138.52 Z M 150.76 138.34 L 151.76 138.18 C 152.80 138.02 153.51 137.04 153.34 136.00 C 153.18 134.95 152.20 134.24 151.16 134.41 L 150.16 134.57 C 149.12 134.73 148.41 135.71 148.57 136.75 C 148.74 137.80 149.72 138.51 150.76 138.34 Z M 151.72 138.18 L 152.69 138.05 C 153.74 137.90 154.46 136.94 154.32 135.89 C 154.17 134.85 153.20 134.12 152.16 134.27 L 151.19 134.41 C 150.15 134.55 149.42 135.52 149.57 136.56 C 149.72 137.61 150.68 138.33 151.72 138.18 Z M 152.66 138.05 L 153.58 137.94 C 154.62 137.81 155.37 136.86 155.24 135.82 C 155.11 134.77 154.16 134.03 153.12 134.16 L 152.20 134.27 C 151.15 134.40 150.41 135.35 150.54 136.39 C 150.66 137.43 151.61 138.18 152.66 138.05 Z M 153.54 137.94 L 154.44 137.85 C 155.49 137.74 156.25 136.81 156.14 135.77 C 156.04 134.72 155.11 133.96 154.06 134.07 L 153.16 134.16 C 152.12 134.26 151.35 135.19 151.46 136.24 C 151.56 137.28 152.50 138.04 153.54 137.94 Z M 154.40 137.85 L 155.37 137.77 C 156.41 137.69 157.19 136.78 157.11 135.74 C 157.03 134.69 156.12 133.91 155.08 133.99 L 154.11 134.07 C 153.06 134.15 152.28 135.06 152.36 136.10 C 152.44 137.15 153.35 137.93 154.40 137.85 Z M 155.33 137.77 L 156.43 137.71 C 157.47 137.65 158.27 136.76 158.21 135.71 C 158.15 134.67 157.26 133.87 156.22 133.93 L 155.11 133.99 C 154.07 134.05 153.27 134.94 153.33 135.99 C 153.39 137.03 154.28 137.83 155.33 137.77 Z M 156.40 137.71 L 157.38 137.67 C 158.43 137.62 159.24 136.74 159.19 135.70 C 159.15 134.66 158.27 133.85 157.23 133.89 L 156.24 133.93 C 155.20 133.97 154.39 134.86 154.43 135.90 C 154.48 136.94 155.36 137.75 156.40 137.71 Z M 157.36 137.67 L 158.31 137.64 C 159.35 137.60 160.17 136.73 160.14 135.69 C 160.11 134.65 159.24 133.83 158.20 133.86 L 157.25 133.89 C 156.20 133.92 155.38 134.80 155.42 135.84 C 155.45 136.88 156.32 137.70 157.36 137.67 Z M 158.29 137.63 L 159.30 137.61 C 160.34 137.59 161.17 136.73 161.14 135.69 C 161.12 134.65 160.26 133.82 159.22 133.84 L 158.21 133.87 C 157.17 133.89 156.35 134.75 156.37 135.79 C 156.39 136.83 157.25 137.66 158.29 137.63 Z M 159.28 137.61 L 160.32 137.60 C 161.36 137.59 162.19 136.74 162.18 135.70 C 162.17 134.66 161.32 133.83 160.28 133.84 L 159.24 133.85 C 158.20 133.86 157.37 134.71 157.38 135.75 C 157.39 136.79 158.24 137.62 159.28 137.61 Z M 160.29 137.60 L 161.35 137.60 C 162.38 137.61 163.23 136.77 163.23 135.73 C 163.24 134.69 162.40 133.85 161.36 133.84 L 160.31 133.84 C 159.27 133.84 158.43 134.67 158.42 135.71 C 158.42 136.75 159.26 137.60 160.29 137.60 Z M 161.32 137.60 L 162.37 137.62 C 163.41 137.64 164.27 136.82 164.29 135.78 C 164.31 134.74 163.48 133.89 162.45 133.87 L 161.39 133.85 C 160.35 133.83 159.50 134.65 159.48 135.69 C 159.46 136.72 160.28 137.58 161.32 137.60 Z M 162.33 137.61 L 163.41 137.66 C 164.44 137.70 165.32 136.90 165.36 135.87 C 165.40 134.83 164.60 133.96 163.57 133.92 L 162.49 133.87 C 161.45 133.83 160.58 134.63 160.54 135.67 C 160.50 136.70 161.30 137.57 162.33 137.61 Z M 163.34 137.65 L 164.38 137.73 C 165.40 137.81 166.30 137.05 166.38 136.02 C 166.47 134.99 165.70 134.09 164.67 134.01 L 163.64 133.93 C 162.61 133.85 161.71 134.61 161.63 135.64 C 161.55 136.67 162.31 137.57 163.34 137.65 Z M 164.28 137.72 L 165.26 137.85 C 166.28 137.99 167.21 137.27 167.35 136.25 C 167.49 135.23 166.77 134.29 165.75 134.16 L 164.77 134.03 C 163.75 133.89 162.81 134.60 162.68 135.62 C 162.54 136.64 163.26 137.58 164.28 137.72 Z M 165.12 137.82 L 166.05 138.01 C 167.05 138.23 168.03 137.58 168.25 136.58 C 168.46 135.58 167.82 134.59 166.81 134.38 L 165.89 134.19 C 164.89 133.98 163.90 134.62 163.69 135.62 C 163.48 136.62 164.12 137.61 165.12 137.82 Z M 165.87 137.96 L 166.75 138.24 C 167.73 138.55 168.77 138.01 169.08 137.04 C 169.39 136.06 168.85 135.02 167.87 134.71 L 166.99 134.43 C 166.02 134.13 164.98 134.66 164.67 135.64 C 164.36 136.61 164.90 137.65 165.87 137.96 Z M 166.53 138.15 L 167.46 138.58 C 168.38 139.02 169.48 138.62 169.91 137.69 C 170.35 136.77 169.95 135.67 169.02 135.24 L 168.09 134.81 C 167.17 134.38 166.07 134.77 165.64 135.70 C 165.21 136.62 165.61 137.72 166.53 138.15 Z M 167.24 138.45 L 168.08 139.00 C 168.93 139.55 170.07 139.31 170.62 138.46 C 171.17 137.61 170.93 136.47 170.08 135.92 L 169.24 135.37 C 168.39 134.82 167.25 135.06 166.70 135.91 C 166.15 136.76 166.39 137.90 167.24 138.45 Z M 167.89 138.85 L 168.64 139.49 C 169.41 140.15 170.57 140.05 171.22 139.28 C 171.88 138.51 171.79 137.36 171.02 136.70 L 170.27 136.06 C 169.50 135.41 168.34 135.50 167.69 136.27 C 167.03 137.04 167.12 138.19 167.89 138.85 Z M 168.49 139.34 L 169.16 140.06 C 169.85 140.80 171.00 140.84 171.74 140.15 C 172.48 139.46 172.52 138.31 171.83 137.57 L 171.17 136.85 C 170.48 136.11 169.32 136.07 168.59 136.76 C 167.85 137.44 167.80 138.60 168.49 139.34 Z M 169.05 139.91 L 169.62 140.68 C 170.23 141.48 171.37 141.63 172.17 141.03 C 172.97 140.42 173.13 139.28 172.53 138.48 L 171.95 137.72 C 171.34 136.91 170.20 136.76 169.40 137.36 C 168.60 137.97 168.44 139.11 169.05 139.91 Z M 169.53 140.54 L 170.05 141.36 C 170.58 142.21 171.70 142.47 172.55 141.94 C 173.40 141.41 173.66 140.29 173.13 139.44 L 172.61 138.62 C 172.08 137.77 170.97 137.51 170.11 138.04 C 169.26 138.57 169.00 139.69 169.53 140.54 Z M 169.98 141.23 L 170.43 142.11 C 170.89 143.00 171.98 143.35 172.87 142.90 C 173.76 142.44 174.11 141.35 173.65 140.46 L 173.20 139.57 C 172.74 138.68 171.65 138.33 170.76 138.79 C 169.87 139.25 169.52 140.34 169.98 141.23 Z M 170.38 141.99 L 170.79 142.95 C 171.18 143.86 172.24 144.29 173.16 143.90 C 174.07 143.51 174.50 142.45 174.11 141.53 L 173.70 140.58 C 173.31 139.66 172.25 139.24 171.34 139.63 C 170.42 140.02 169.99 141.08 170.38 141.99 Z M 170.75 142.84 L 171.09 143.79 C 171.43 144.73 172.45 145.21 173.39 144.88 C 174.33 144.55 174.82 143.52 174.48 142.58 L 174.14 141.64 C 173.81 140.70 172.78 140.21 171.84 140.55 C 170.91 140.88 170.42 141.91 170.75 142.84 Z M 171.07 143.70 L 171.34 144.62 C 171.63 145.57 172.63 146.10 173.58 145.82 C 174.53 145.53 175.07 144.53 174.78 143.58 L 174.50 142.66 C 174.22 141.72 173.21 141.18 172.27 141.47 C 171.32 141.75 170.78 142.76 171.07 143.70 Z M 171.33 144.54 L 171.57 145.50 C 171.82 146.45 172.79 147.03 173.75 146.79 C 174.71 146.54 175.29 145.57 175.04 144.61 L 174.80 143.65 C 174.55 142.69 173.58 142.12 172.62 142.36 C 171.66 142.61 171.08 143.58 171.33 144.54 Z M 171.56 145.42 L 171.77 146.41 C 171.97 147.38 172.92 148.00 173.89 147.79 C 174.85 147.59 175.47 146.64 175.27 145.67 L 175.06 144.68 C 174.85 143.71 173.90 143.10 172.94 143.30 C 171.97 143.51 171.35 144.46 171.56 145.42 Z M 171.76 146.34 L 171.93 147.37 C 172.10 148.34 173.02 148.99 173.99 148.83 C 174.96 148.66 175.61 147.74 175.45 146.77 L 175.28 145.74 C 175.11 144.77 174.19 144.12 173.22 144.28 C 172.25 144.45 171.59 145.37 171.76 146.34 Z M 171.93 147.30 L 172.06 148.34 C 172.19 149.32 173.08 150.01 174.06 149.88 C 175.03 149.75 175.72 148.86 175.59 147.89 L 175.46 146.84 C 175.33 145.86 174.44 145.18 173.46 145.30 C 172.49 145.43 171.80 146.32 171.93 147.30 Z M 172.06 148.28 L 172.16 149.33 C 172.25 150.31 173.11 151.02 174.09 150.93 C 175.07 150.84 175.78 149.98 175.69 149.00 L 175.59 147.95 C 175.50 146.97 174.64 146.26 173.66 146.35 C 172.68 146.44 171.97 147.30 172.06 148.28 Z M 172.16 149.28 L 172.23 150.33 C 172.29 151.30 173.13 152.04 174.11 151.98 C 175.08 151.91 175.82 151.07 175.76 150.10 L 175.69 149.05 C 175.63 148.07 174.79 147.33 173.81 147.40 C 172.83 147.46 172.09 148.30 172.16 149.28 Z M 172.23 150.29 L 172.27 151.31 C 172.31 152.28 173.14 153.04 174.11 152.99 C 175.09 152.95 175.85 152.13 175.80 151.15 L 175.76 150.13 C 175.72 149.16 174.89 148.40 173.92 148.45 C 172.94 148.49 172.18 149.31 172.23 150.29 Z M 172.28 151.28 L 172.30 152.25 C 172.33 153.22 173.14 153.99 174.11 153.96 C 175.09 153.93 175.85 153.12 175.83 152.15 L 175.80 151.18 C 175.77 150.21 174.96 149.44 173.99 149.47 C 173.01 149.49 172.25 150.31 172.28 151.28 Z M 172.31 152.23 L 172.32 153.13 C 172.34 154.10 173.14 154.87 174.11 154.85 C 175.08 154.84 175.86 154.03 175.84 153.06 L 175.82 152.17 C 175.81 151.20 175.00 150.42 174.03 150.44 C 173.06 150.46 172.29 151.26 172.31 152.23 Z M 172.33 153.12 L 172.34 154.26 C 172.35 155.23 173.15 156.00 174.12 155.99 C 175.08 155.98 175.86 155.18 175.85 154.22 L 175.83 153.07 C 175.82 152.11 175.03 151.33 174.06 151.34 C 173.09 151.36 172.32 152.15 172.33 153.12 Z M 172.35 154.25 L 172.36 155.26 C 172.36 156.22 173.15 157.00 174.11 156.99 C 175.08 156.98 175.85 156.20 175.85 155.23 L 175.84 154.23 C 175.83 153.26 175.05 152.49 174.08 152.49 C 173.12 152.50 172.34 153.28 172.35 154.25 Z M 172.36 155.25 L 172.36 156.17 C 172.37 157.13 173.15 157.91 174.11 157.90 C 175.07 157.90 175.84 157.12 175.84 156.16 L 175.84 155.24 C 175.84 154.28 175.06 153.50 174.10 153.51 C 173.14 153.51 172.36 154.29 172.36 155.25 Z M 172.37 156.16 L 172.37 157.09 C 172.37 158.04 173.15 158.82 174.10 158.82 C 175.06 158.82 175.83 158.04 175.83 157.09 L 175.83 156.16 C 175.83 155.21 175.06 154.43 174.10 154.43 C 173.15 154.43 172.37 155.21 172.37 156.16 Z M 172.38 157.08 L 172.37 158.07 C 172.37 159.02 173.13 159.80 174.09 159.80 C 175.04 159.81 175.82 159.04 175.82 158.08 L 175.83 157.10 C 175.83 156.14 175.07 155.36 174.11 155.36 C 173.16 155.35 172.38 156.12 172.38 157.08 Z M 172.38 158.03 L 172.35 159.03 C 172.33 159.98 173.08 160.77 174.03 160.80 C 174.98 160.82 175.77 160.07 175.79 159.12 L 175.82 158.12 C 175.84 157.17 175.09 156.38 174.14 156.35 C 173.19 156.33 172.40 157.08 172.38 158.03 Z M 172.36 158.98 L 172.30 159.99 C 172.24 160.94 172.97 161.75 173.91 161.80 C 174.86 161.86 175.67 161.14 175.73 160.19 L 175.79 159.18 C 175.84 158.23 175.12 157.42 174.17 157.36 C 173.22 157.31 172.41 158.03 172.36 158.98 Z M 172.31 159.92 L 172.21 160.88 C 172.12 161.83 172.81 162.66 173.75 162.76 C 174.69 162.85 175.53 162.16 175.63 161.22 L 175.72 160.26 C 175.81 159.31 175.12 158.48 174.18 158.38 C 173.24 158.29 172.40 158.98 172.31 159.92 Z M 172.22 160.84 L 172.10 161.82 C 171.98 162.75 172.64 163.61 173.58 163.73 C 174.52 163.85 175.37 163.18 175.49 162.25 L 175.62 161.27 C 175.74 160.33 175.07 159.47 174.14 159.35 C 173.20 159.24 172.34 159.90 172.22 160.84 Z M 172.11 161.79 L 171.96 162.80 C 171.83 163.74 172.48 164.60 173.41 164.73 C 174.35 164.86 175.21 164.21 175.34 163.28 L 175.49 162.27 C 175.62 161.34 174.97 160.47 174.03 160.34 C 173.10 160.21 172.24 160.86 172.11 161.79 Z M 171.97 162.80 L 171.82 163.81 C 171.69 164.74 172.34 165.60 173.27 165.74 C 174.20 165.87 175.06 165.22 175.19 164.29 L 175.34 163.28 C 175.47 162.35 174.82 161.49 173.89 161.36 C 172.96 161.22 172.10 161.87 171.97 162.80 Z M 171.82 163.81 L 171.68 164.81 C 171.55 165.74 172.20 166.60 173.13 166.73 C 174.06 166.86 174.92 166.21 175.05 165.29 L 175.19 164.29 C 175.32 163.36 174.68 162.50 173.75 162.37 C 172.82 162.24 171.96 162.88 171.82 163.81 Z M 171.69 164.80 L 171.54 165.80 C 171.40 166.73 172.04 167.59 172.97 167.73 C 173.90 167.86 174.76 167.22 174.90 166.30 L 175.05 165.30 C 175.18 164.37 174.54 163.51 173.62 163.37 C 172.69 163.23 171.83 163.87 171.69 164.80 Z M 171.55 165.78 L 171.39 166.76 C 171.24 167.68 171.86 168.55 172.79 168.70 C 173.71 168.85 174.58 168.23 174.73 167.30 L 174.89 166.32 C 175.04 165.39 174.41 164.52 173.49 164.37 C 172.57 164.22 171.70 164.85 171.55 165.78 Z M 171.40 166.72 L 171.21 167.73 C 171.04 168.65 171.64 169.53 172.56 169.70 C 173.48 169.87 174.36 169.27 174.53 168.35 L 174.72 167.34 C 174.89 166.42 174.29 165.54 173.37 165.37 C 172.45 165.20 171.57 165.80 171.40 166.72 Z M 171.22 167.69 L 171.01 168.69 C 170.82 169.60 171.40 170.50 172.31 170.69 C 173.23 170.88 174.12 170.30 174.31 169.39 L 174.52 168.39 C 174.72 167.48 174.13 166.58 173.22 166.39 C 172.31 166.20 171.41 166.78 171.22 167.69 Z M 171.02 168.67 L 170.80 169.62 C 170.59 170.53 171.16 171.44 172.07 171.64 C 172.98 171.85 173.88 171.28 174.09 170.37 L 174.31 169.41 C 174.51 168.50 173.94 167.60 173.03 167.39 C 172.12 167.19 171.22 167.76 171.02 168.67 Z M 170.80 169.62 L 170.59 170.54 C 170.38 171.45 170.95 172.35 171.85 172.56 C 172.76 172.77 173.67 172.20 173.88 171.30 L 174.09 170.37 C 174.30 169.47 173.73 168.56 172.82 168.35 C 171.92 168.15 171.01 168.71 170.80 169.62 Z M 170.59 170.54 L 170.39 171.43 C 170.18 172.34 170.75 173.24 171.66 173.45 C 172.56 173.65 173.47 173.09 173.67 172.18 L 173.87 171.29 C 174.08 170.39 173.51 169.48 172.61 169.28 C 171.70 169.07 170.80 169.64 170.59 170.54 Z M 170.39 171.42 L 170.17 172.36 C 169.96 173.26 170.52 174.17 171.43 174.38 C 172.33 174.59 173.24 174.03 173.45 173.12 L 173.67 172.19 C 173.88 171.28 173.32 170.38 172.41 170.17 C 171.51 169.96 170.60 170.52 170.39 171.42 Z M 170.18 172.33 L 169.92 173.37 C 169.70 174.27 170.25 175.19 171.15 175.41 C 172.05 175.64 172.96 175.09 173.19 174.19 L 173.44 173.15 C 173.67 172.25 173.12 171.33 172.22 171.11 C 171.32 170.88 170.40 171.43 170.18 172.33 Z M 169.93 173.35 L 169.67 174.32 C 169.43 175.22 169.97 176.14 170.86 176.38 C 171.76 176.62 172.68 176.08 172.92 175.18 L 173.18 174.21 C 173.42 173.31 172.88 172.39 171.98 172.15 C 171.09 171.92 170.17 172.45 169.93 173.35 Z M 169.68 174.30 L 169.42 175.21 C 169.17 176.10 169.69 177.03 170.59 177.28 C 171.48 177.53 172.41 177.01 172.66 176.12 L 172.91 175.21 C 173.16 174.31 172.64 173.39 171.75 173.14 C 170.85 172.88 169.93 173.41 169.68 174.30 Z M 169.43 175.19 L 169.15 176.15 C 168.88 177.04 169.39 177.97 170.28 178.24 C 171.17 178.50 172.10 177.99 172.36 177.10 L 172.65 176.14 C 172.91 175.25 172.40 174.32 171.51 174.05 C 170.62 173.79 169.69 174.30 169.43 175.19 Z M 169.15 176.13 L 168.84 177.12 C 168.57 178.00 169.06 178.94 169.95 179.22 C 170.83 179.50 171.77 179.00 172.05 178.12 L 172.36 177.12 C 172.63 176.24 172.14 175.30 171.25 175.03 C 170.37 174.75 169.43 175.24 169.15 176.13 Z M 168.85 177.09 L 168.52 178.09 C 168.23 178.97 168.71 179.92 169.59 180.21 C 170.47 180.50 171.41 180.02 171.71 179.14 L 172.04 178.15 C 172.33 177.27 171.85 176.32 170.97 176.03 C 170.09 175.74 169.15 176.21 168.85 177.09 Z M 168.54 178.06 L 168.18 179.06 C 167.88 179.93 168.33 180.88 169.20 181.19 C 170.07 181.50 171.03 181.05 171.34 180.17 L 171.69 179.18 C 172.00 178.31 171.54 177.35 170.67 177.04 C 169.80 176.73 168.85 177.19 168.54 178.06 Z M 168.20 179.01 L 167.83 180.00 C 167.49 180.86 167.92 181.82 168.78 182.15 C 169.64 182.49 170.61 182.06 170.94 181.20 L 171.32 180.22 C 171.65 179.36 171.22 178.39 170.36 178.06 C 169.50 177.73 168.54 178.15 168.20 179.01 Z M 167.85 179.94 L 167.45 180.88 C 167.09 181.72 167.48 182.70 168.32 183.06 C 169.17 183.43 170.15 183.03 170.51 182.19 L 170.91 181.25 C 171.28 180.41 170.88 179.43 170.04 179.07 C 169.20 178.70 168.22 179.09 167.85 179.94 Z M 167.49 180.81 L 167.06 181.69 C 166.66 182.52 167.00 183.51 167.82 183.91 C 168.65 184.31 169.64 183.97 170.04 183.15 L 170.47 182.26 C 170.87 181.44 170.53 180.44 169.71 180.04 C 168.88 179.64 167.89 179.98 167.49 180.81 Z M 167.11 181.61 L 166.64 182.44 C 166.19 183.23 166.47 184.24 167.27 184.69 C 168.07 185.14 169.08 184.86 169.52 184.06 L 169.99 183.23 C 170.44 182.44 170.16 181.43 169.36 180.98 C 168.57 180.53 167.56 180.81 167.11 181.61 Z M 166.71 182.33 L 166.16 183.15 C 165.65 183.91 165.85 184.94 166.61 185.44 C 167.37 185.95 168.39 185.75 168.90 184.99 L 169.45 184.17 C 169.96 183.41 169.76 182.38 169.00 181.88 C 168.24 181.37 167.22 181.57 166.71 182.33 Z M 166.26 183.03 L 165.60 183.82 C 165.02 184.53 165.12 185.56 165.83 186.14 C 166.53 186.72 167.57 186.62 168.14 185.92 L 168.80 185.12 C 169.38 184.42 169.28 183.38 168.58 182.80 C 167.87 182.22 166.84 182.32 166.26 183.03 Z M 165.73 183.69 L 165.01 184.38 C 164.36 185.01 164.34 186.05 164.97 186.70 C 165.60 187.36 166.64 187.38 167.30 186.75 L 168.01 186.06 C 168.67 185.43 168.69 184.38 168.06 183.73 C 167.43 183.08 166.39 183.06 165.73 183.69 Z M 165.18 184.24 L 164.40 184.82 C 163.67 185.36 163.52 186.39 164.06 187.12 C 164.60 187.84 165.63 188.00 166.35 187.46 L 167.13 186.88 C 167.86 186.34 168.01 185.31 167.47 184.59 C 166.93 183.86 165.91 183.70 165.18 184.24 Z M 164.60 184.70 L 163.75 185.15 C 162.96 185.59 162.66 186.58 163.09 187.38 C 163.52 188.17 164.52 188.47 165.31 188.04 L 166.16 187.58 C 166.95 187.15 167.25 186.15 166.82 185.36 C 166.39 184.56 165.39 184.27 164.60 184.70 Z M 163.96 185.06 L 163.04 185.41 C 162.19 185.72 161.76 186.67 162.08 187.52 C 162.40 188.36 163.34 188.79 164.19 188.47 L 165.11 188.13 C 165.96 187.81 166.38 186.87 166.07 186.02 C 165.75 185.17 164.81 184.74 163.96 185.06 Z M 163.20 185.36 L 162.24 185.61 C 161.36 185.84 160.84 186.73 161.07 187.61 C 161.30 188.48 162.19 189.01 163.07 188.78 L 164.03 188.52 C 164.90 188.30 165.43 187.40 165.20 186.53 C 164.97 185.65 164.07 185.13 163.20 185.36 Z M 162.34 185.58 L 161.35 185.78 C 160.46 185.95 159.88 186.81 160.05 187.70 C 160.23 188.58 161.08 189.16 161.97 188.99 L 162.96 188.80 C 163.85 188.63 164.43 187.77 164.26 186.88 C 164.09 185.99 163.23 185.41 162.34 185.58 Z M 161.39 185.77 L 160.57 185.90 C 159.68 186.05 159.08 186.89 159.23 187.79 C 159.37 188.68 160.22 189.28 161.11 189.13 L 161.93 189.00 C 162.82 188.85 163.42 188.01 163.28 187.12 C 163.13 186.23 162.29 185.62 161.39 185.77 Z"
      fill="black"
      fill-rule="nonzero" /><path d="M 136.55 158.91 L 137.55 158.85 C 138.53 158.78 139.27 157.94 139.21 156.96 C 139.14 155.98 138.30 155.24 137.32 155.30 L 136.32 155.37 C 135.35 155.43 134.60 156.28 134.67 157.26 C 134.73 158.23 135.58 158.97 136.55 158.91 Z M 137.56 158.86 L 138.56 158.80 C 139.55 158.73 140.29 157.87 140.22 156.88 C 140.16 155.89 139.30 155.15 138.31 155.22 L 137.31 155.28 C 136.32 155.35 135.58 156.21 135.65 157.20 C 135.71 158.19 136.57 158.93 137.56 158.86 Z M 138.57 158.81 L 139.57 158.74 C 140.57 158.66 141.32 157.79 141.24 156.79 C 141.16 155.79 140.29 155.04 139.29 155.12 L 138.30 155.20 C 137.30 155.27 136.55 156.15 136.63 157.14 C 136.70 158.14 137.57 158.89 138.57 158.81 Z M 139.59 158.76 L 140.59 158.67 C 141.60 158.58 142.34 157.69 142.25 156.68 C 142.17 155.67 141.28 154.93 140.27 155.02 L 139.27 155.10 C 138.26 155.19 137.52 156.08 137.60 157.09 C 137.69 158.10 138.58 158.84 139.59 158.76 Z M 140.61 158.67 L 141.56 158.57 C 142.57 158.47 143.31 157.57 143.20 156.56 C 143.10 155.55 142.20 154.81 141.19 154.92 L 140.24 155.01 C 139.23 155.12 138.50 156.02 138.60 157.03 C 138.70 158.04 139.60 158.77 140.61 158.67 Z M 141.58 158.56 L 142.54 158.45 C 143.54 158.34 144.26 157.43 144.15 156.43 C 144.03 155.43 143.13 154.71 142.12 154.82 L 141.17 154.93 C 140.17 155.04 139.45 155.95 139.56 156.95 C 139.67 157.95 140.58 158.67 141.58 158.56 Z M 142.55 158.44 L 143.53 158.32 C 144.53 158.20 145.24 157.30 145.12 156.30 C 145.00 155.31 144.09 154.60 143.10 154.72 L 142.11 154.84 C 141.12 154.96 140.41 155.86 140.53 156.85 C 140.65 157.85 141.55 158.56 142.55 158.44 Z M 143.54 158.31 L 144.58 158.18 C 145.56 158.06 146.26 157.16 146.14 156.17 C 146.02 155.18 145.12 154.48 144.13 154.60 L 143.10 154.73 C 142.11 154.85 141.41 155.75 141.53 156.74 C 141.65 157.73 142.55 158.43 143.54 158.31 Z M 144.57 158.16 L 145.57 158.04 C 146.55 157.92 147.25 157.03 147.12 156.05 C 147.00 155.07 146.11 154.37 145.13 154.49 L 144.14 154.62 C 143.16 154.74 142.46 155.63 142.58 156.61 C 142.70 157.59 143.59 158.29 144.57 158.16 Z M 145.57 158.03 L 146.50 157.92 C 147.48 157.80 148.17 156.91 148.05 155.94 C 147.93 154.96 147.04 154.27 146.07 154.39 L 145.13 154.50 C 144.16 154.62 143.47 155.51 143.59 156.48 C 143.71 157.46 144.59 158.15 145.57 158.03 Z M 146.50 157.90 L 147.48 157.79 C 148.44 157.67 149.13 156.79 149.01 155.82 C 148.90 154.85 148.02 154.16 147.05 154.28 L 146.07 154.40 C 145.11 154.52 144.42 155.40 144.53 156.37 C 144.65 157.33 145.53 158.02 146.50 157.90 Z M 147.47 157.77 L 148.48 157.65 C 149.44 157.53 150.13 156.66 150.01 155.70 C 149.89 154.74 149.02 154.05 148.06 154.17 L 147.05 154.29 C 146.09 154.41 145.40 155.29 145.52 156.25 C 145.64 157.21 146.51 157.89 147.47 157.77 Z M 148.48 157.64 L 149.52 157.51 C 150.47 157.39 151.15 156.52 151.03 155.57 C 150.92 154.61 150.05 153.94 149.09 154.05 L 148.06 154.18 C 147.10 154.30 146.42 155.17 146.54 156.12 C 146.66 157.08 147.53 157.76 148.48 157.64 Z M 149.52 157.50 L 150.58 157.37 C 151.52 157.25 152.20 156.38 152.08 155.44 C 151.96 154.49 151.09 153.82 150.15 153.93 L 149.09 154.07 C 148.14 154.19 147.47 155.05 147.59 156.00 C 147.71 156.95 148.57 157.62 149.52 157.50 Z M 150.58 157.35 L 151.64 157.22 C 152.58 157.10 153.24 156.24 153.12 155.30 C 153.00 154.36 152.14 153.69 151.20 153.81 L 150.14 153.95 C 149.20 154.07 148.54 154.93 148.66 155.87 C 148.78 156.81 149.64 157.47 150.58 157.35 Z M 151.64 157.21 L 152.69 157.07 C 153.62 156.95 154.28 156.10 154.16 155.16 C 154.04 154.23 153.19 153.57 152.26 153.69 L 151.20 153.82 C 150.27 153.94 149.61 154.80 149.73 155.73 C 149.85 156.67 150.70 157.33 151.64 157.21 Z M 152.69 157.06 L 153.71 156.93 C 154.64 156.81 155.29 155.96 155.18 155.03 C 155.06 154.11 154.21 153.45 153.28 153.57 L 152.26 153.70 C 151.33 153.82 150.67 154.67 150.79 155.60 C 150.91 156.52 151.76 157.18 152.69 157.06 Z M 153.71 156.92 L 154.68 156.79 C 155.60 156.67 156.25 155.83 156.14 154.91 C 156.02 153.99 155.18 153.34 154.26 153.46 L 153.28 153.58 C 152.36 153.70 151.71 154.54 151.83 155.46 C 151.95 156.38 152.79 157.03 153.71 156.92 Z M 154.67 156.78 L 155.58 156.67 C 156.49 156.56 157.14 155.72 157.03 154.81 C 156.92 153.90 156.09 153.25 155.17 153.36 L 154.27 153.47 C 153.35 153.58 152.70 154.41 152.82 155.33 C 152.93 156.24 153.76 156.89 154.67 156.78 Z M 155.57 156.66 L 156.55 156.55 C 157.46 156.44 158.11 155.62 158.01 154.71 C 157.90 153.80 157.08 153.15 156.17 153.25 L 155.18 153.37 C 154.28 153.47 153.62 154.30 153.73 155.20 C 153.84 156.11 154.66 156.77 155.57 156.66 Z M 156.54 156.54 L 157.52 156.43 C 158.43 156.34 159.08 155.52 158.98 154.62 C 158.89 153.71 158.07 153.05 157.17 153.15 L 156.18 153.26 C 155.28 153.35 154.62 154.17 154.72 155.08 C 154.82 155.98 155.63 156.64 156.54 156.54 Z M 157.51 156.43 L 158.45 156.34 C 159.35 156.24 160.01 155.44 159.92 154.53 C 159.83 153.63 159.02 152.97 158.12 153.06 L 157.18 153.16 C 156.27 153.25 155.61 154.06 155.71 154.96 C 155.80 155.86 156.61 156.52 157.51 156.43 Z M 158.45 156.33 L 159.43 156.23 C 160.33 156.14 160.99 155.33 160.90 154.43 C 160.81 153.53 160.00 152.87 159.10 152.96 L 158.12 153.06 C 157.21 153.16 156.56 153.96 156.65 154.86 C 156.74 155.77 157.55 156.42 158.45 156.33 Z M 159.44 156.23 L 160.38 156.13 C 161.28 156.03 161.93 155.22 161.83 154.32 C 161.74 153.43 160.93 152.77 160.03 152.87 L 159.09 152.97 C 158.19 153.06 157.54 153.87 157.64 154.77 C 157.73 155.67 158.54 156.32 159.44 156.23 Z M 160.38 156.12 L 161.30 156.02 C 162.20 155.92 162.85 155.12 162.75 154.22 C 162.65 153.32 161.84 152.67 160.94 152.77 L 160.02 152.87 C 159.13 152.97 158.48 153.78 158.58 154.68 C 158.68 155.58 159.49 156.22 160.38 156.12 Z M 161.31 156.02 L 162.29 155.91 C 163.19 155.81 163.84 155.00 163.73 154.10 C 163.63 153.20 162.82 152.56 161.92 152.66 L 160.94 152.77 C 160.04 152.87 159.39 153.68 159.50 154.58 C 159.60 155.48 160.41 156.12 161.31 156.02 Z M 162.30 155.91 L 163.33 155.79 C 164.23 155.69 164.87 154.88 164.77 153.98 C 164.66 153.08 163.85 152.44 162.95 152.54 L 161.92 152.66 C 161.02 152.76 160.38 153.57 160.48 154.47 C 160.59 155.37 161.40 156.01 162.30 155.91 Z M 163.33 155.79 L 164.39 155.67 C 165.29 155.56 165.94 154.75 165.83 153.85 C 165.73 152.96 164.91 152.31 164.02 152.42 L 162.95 152.54 C 162.06 152.64 161.41 153.46 161.52 154.35 C 161.62 155.25 162.43 155.90 163.33 155.79 Z M 164.39 155.67 L 165.14 155.58 C 166.04 155.48 166.68 154.66 166.58 153.77 C 166.47 152.87 165.66 152.23 164.76 152.33 L 164.02 152.42 C 163.12 152.52 162.47 153.33 162.58 154.23 C 162.68 155.13 163.50 155.77 164.39 155.67 Z"
      fill="black"
      fill-rule="nonzero" /><path d="M 134.52 179.38 L 135.43 179.81 C 136.28 180.22 137.30 179.85 137.71 178.99 C 138.11 178.14 137.74 177.12 136.89 176.71 L 135.97 176.29 C 135.12 175.88 134.10 176.25 133.70 177.11 C 133.29 177.96 133.66 178.98 134.52 179.38 Z M 135.48 179.87 L 136.40 180.26 C 137.29 180.63 138.31 180.22 138.68 179.33 C 139.06 178.45 138.64 177.42 137.76 177.05 L 136.84 176.66 C 135.95 176.28 134.93 176.70 134.55 177.58 C 134.18 178.47 134.59 179.49 135.48 179.87 Z M 136.52 180.34 L 137.46 180.65 C 138.39 180.96 139.40 180.46 139.71 179.53 C 140.01 178.59 139.51 177.59 138.58 177.28 L 137.64 176.97 C 136.71 176.66 135.70 177.16 135.39 178.09 C 135.08 179.03 135.59 180.03 136.52 180.34 Z M 137.65 180.73 L 138.56 180.91 C 139.53 181.12 140.48 180.49 140.69 179.52 C 140.89 178.55 140.27 177.60 139.29 177.40 L 138.39 177.21 C 137.42 177.00 136.46 177.63 136.26 178.60 C 136.06 179.57 136.68 180.52 137.65 180.73 Z M 138.78 180.95 L 139.70 181.03 C 140.69 181.11 141.56 180.38 141.64 179.38 C 141.73 178.39 140.99 177.52 140.00 177.44 L 139.08 177.36 C 138.09 177.28 137.22 178.01 137.13 179.00 C 137.05 180.00 137.78 180.87 138.78 180.95 Z M 139.89 181.03 L 140.89 181.01 C 141.88 180.99 142.67 180.17 142.65 179.17 C 142.63 178.18 141.80 177.39 140.81 177.41 L 139.81 177.43 C 138.81 177.45 138.03 178.28 138.05 179.27 C 138.07 180.27 138.89 181.05 139.89 181.03 Z M 141.04 181.00 L 142.15 180.88 C 143.14 180.78 143.86 179.89 143.75 178.90 C 143.65 177.91 142.76 177.20 141.77 177.30 L 140.66 177.42 C 139.67 177.53 138.95 178.41 139.06 179.40 C 139.16 180.39 140.05 181.11 141.04 181.00 Z M 142.25 180.87 L 143.22 180.71 C 144.20 180.55 144.86 179.63 144.71 178.65 C 144.55 177.67 143.62 177.00 142.64 177.16 L 141.68 177.32 C 140.70 177.48 140.03 178.40 140.19 179.38 C 140.35 180.36 141.27 181.03 142.25 180.87 Z M 143.28 180.70 L 144.27 180.50 C 145.24 180.31 145.87 179.37 145.68 178.40 C 145.49 177.42 144.55 176.79 143.58 176.98 L 142.59 177.18 C 141.61 177.37 140.98 178.31 141.17 179.28 C 141.36 180.25 142.31 180.89 143.28 180.70 Z M 144.31 180.49 L 145.32 180.27 C 146.28 180.05 146.89 179.10 146.68 178.13 C 146.47 177.16 145.51 176.56 144.54 176.77 L 143.53 176.99 C 142.57 177.21 141.96 178.16 142.17 179.13 C 142.39 180.09 143.34 180.70 144.31 180.49 Z M 145.35 180.26 L 146.35 180.02 C 147.31 179.78 147.90 178.82 147.67 177.86 C 147.44 176.90 146.47 176.31 145.51 176.54 L 144.51 176.78 C 143.55 177.01 142.96 177.98 143.19 178.94 C 143.42 179.90 144.39 180.49 145.35 180.26 Z M 146.37 180.01 L 147.32 179.76 C 148.27 179.52 148.85 178.55 148.61 177.59 C 148.36 176.64 147.39 176.06 146.43 176.31 L 145.49 176.55 C 144.53 176.79 143.96 177.77 144.20 178.72 C 144.44 179.68 145.42 180.25 146.37 180.01 Z M 147.34 179.75 L 148.40 179.46 C 149.34 179.21 149.90 178.23 149.65 177.28 C 149.39 176.33 148.41 175.78 147.46 176.03 L 146.41 176.32 C 145.46 176.58 144.91 177.55 145.16 178.50 C 145.42 179.45 146.40 180.01 147.34 179.75 Z M 148.42 179.44 L 149.40 179.16 C 150.33 178.89 150.87 177.91 150.60 176.97 C 150.33 176.04 149.35 175.50 148.42 175.77 L 147.44 176.05 C 146.50 176.32 145.96 177.30 146.24 178.24 C 146.51 179.18 147.49 179.71 148.42 179.44 Z M 149.42 179.14 L 150.34 178.86 C 151.26 178.57 151.78 177.59 151.50 176.67 C 151.21 175.74 150.23 175.22 149.30 175.51 L 148.39 175.79 C 147.46 176.07 146.95 177.06 147.23 177.98 C 147.52 178.91 148.50 179.43 149.42 179.14 Z M 150.36 178.84 L 151.25 178.55 C 152.16 178.25 152.66 177.27 152.37 176.36 C 152.07 175.44 151.09 174.94 150.17 175.24 L 149.28 175.53 C 148.37 175.82 147.87 176.81 148.17 177.72 C 148.46 178.64 149.44 179.14 150.36 178.84 Z M 151.27 178.53 L 152.18 178.23 C 153.09 177.92 153.57 176.94 153.26 176.03 C 152.96 175.12 151.98 174.64 151.07 174.94 L 150.16 175.25 C 149.25 175.56 148.76 176.54 149.07 177.45 C 149.38 178.35 150.36 178.84 151.27 178.53 Z M 152.19 178.21 L 153.13 177.89 C 154.03 177.57 154.50 176.59 154.18 175.69 C 153.87 174.79 152.88 174.32 151.99 174.63 L 151.05 174.96 C 150.16 175.27 149.68 176.26 150.00 177.16 C 150.31 178.05 151.30 178.53 152.19 178.21 Z M 153.14 177.87 L 154.09 177.53 C 154.98 177.21 155.44 176.22 155.12 175.33 C 154.80 174.44 153.81 173.98 152.92 174.30 L 151.97 174.64 C 151.08 174.97 150.62 175.95 150.94 176.84 C 151.26 177.74 152.25 178.20 153.14 177.87 Z M 154.10 177.52 L 155.07 177.16 C 155.95 176.83 156.40 175.84 156.07 174.96 C 155.74 174.07 154.76 173.62 153.87 173.95 L 152.91 174.31 C 152.02 174.64 151.57 175.63 151.90 176.51 C 152.23 177.40 153.22 177.85 154.10 177.52 Z M 155.08 177.14 L 156.02 176.78 C 156.90 176.45 157.34 175.46 157.00 174.58 C 156.66 173.71 155.68 173.27 154.80 173.60 L 153.86 173.96 C 152.98 174.30 152.54 175.29 152.88 176.16 C 153.22 177.04 154.20 177.48 155.08 177.14 Z M 156.03 176.77 L 156.97 176.40 C 157.84 176.06 158.27 175.08 157.93 174.21 C 157.58 173.33 156.60 172.91 155.73 173.25 L 154.79 173.62 C 153.92 173.96 153.49 174.94 153.83 175.81 C 154.17 176.69 155.16 177.11 156.03 176.77 Z M 156.97 176.39 L 157.91 176.02 C 158.77 175.67 159.19 174.69 158.85 173.83 C 158.50 172.96 157.52 172.54 156.65 172.89 L 155.72 173.26 C 154.86 173.61 154.44 174.59 154.78 175.45 C 155.13 176.32 156.11 176.74 156.97 176.39 Z M 157.91 176.01 L 158.83 175.63 C 159.69 175.28 160.10 174.31 159.75 173.45 C 159.40 172.59 158.42 172.18 157.56 172.52 L 156.65 172.90 C 155.79 173.25 155.38 174.23 155.73 175.08 C 156.08 175.94 157.05 176.36 157.91 176.01 Z M 158.83 175.62 L 159.79 175.23 C 160.64 174.88 161.05 173.90 160.70 173.05 C 160.34 172.19 159.37 171.79 158.51 172.14 L 157.56 172.54 C 156.71 172.89 156.30 173.86 156.65 174.72 C 157.01 175.57 157.98 175.98 158.83 175.62 Z M 159.80 175.22 L 160.73 174.82 C 161.58 174.46 161.98 173.49 161.62 172.64 C 161.26 171.80 160.28 171.40 159.44 171.76 L 158.50 172.15 C 157.66 172.51 157.26 173.49 157.62 174.33 C 157.98 175.18 158.95 175.58 159.80 175.22 Z M 160.75 174.81 L 161.65 174.41 C 162.49 174.05 162.87 173.07 162.51 172.23 C 162.14 171.39 161.16 171.01 160.32 171.38 L 159.42 171.77 C 158.58 172.14 158.20 173.12 158.57 173.95 C 158.94 174.79 159.91 175.17 160.75 174.81 Z M 161.68 174.39 L 162.55 174.00 C 163.38 173.62 163.74 172.64 163.36 171.81 C 162.98 170.98 162.00 170.61 161.17 170.99 L 160.30 171.39 C 159.47 171.77 159.11 172.75 159.49 173.58 C 159.87 174.41 160.85 174.77 161.68 174.39 Z M 162.58 173.98 L 163.41 173.57 C 164.23 173.18 164.57 172.19 164.18 171.38 C 163.78 170.56 162.80 170.21 161.98 170.61 L 161.15 171.01 C 160.33 171.41 159.98 172.39 160.38 173.21 C 160.77 174.03 161.76 174.37 162.58 173.98 Z M 163.44 173.56 L 164.29 173.12 C 165.10 172.71 165.42 171.72 165.01 170.91 C 164.60 170.11 163.61 169.78 162.80 170.19 L 161.95 170.63 C 161.14 171.04 160.82 172.03 161.23 172.84 C 161.64 173.64 162.63 173.97 163.44 173.56 Z M 164.31 173.11 L 165.22 172.63 C 166.02 172.21 166.32 171.21 165.90 170.41 C 165.47 169.61 164.48 169.31 163.68 169.73 L 162.78 170.21 C 161.98 170.63 161.67 171.63 162.10 172.43 C 162.52 173.23 163.51 173.53 164.31 173.11 Z M 165.23 172.62 L 166.19 172.10 C 166.98 171.67 167.27 170.67 166.84 169.88 C 166.41 169.08 165.41 168.79 164.62 169.22 L 163.66 169.74 C 162.87 170.18 162.58 171.17 163.01 171.97 C 163.44 172.76 164.44 173.05 165.23 172.62 Z M 166.20 172.09 L 167.04 171.62 C 167.83 171.18 168.12 170.18 167.68 169.39 C 167.24 168.60 166.24 168.32 165.45 168.76 L 164.61 169.23 C 163.82 169.67 163.53 170.67 163.97 171.46 C 164.41 172.25 165.41 172.53 166.20 172.09 Z M 167.06 171.61 L 167.94 171.11 C 168.73 170.66 169.00 169.66 168.55 168.87 C 168.11 168.09 167.11 167.81 166.32 168.26 L 165.44 168.77 C 164.65 169.22 164.38 170.22 164.83 171.00 C 165.27 171.79 166.27 172.06 167.06 171.61 Z M 167.96 171.10 L 168.85 170.57 C 169.63 170.11 169.89 169.11 169.43 168.33 C 168.97 167.55 167.97 167.29 167.19 167.75 L 166.30 168.27 C 165.52 168.73 165.26 169.74 165.72 170.52 C 166.18 171.30 167.18 171.56 167.96 171.10 Z M 168.88 170.56 L 169.74 170.03 C 170.51 169.55 170.76 168.54 170.28 167.77 C 169.81 167.00 168.80 166.76 168.03 167.23 L 167.17 167.77 C 166.39 168.24 166.15 169.25 166.63 170.02 C 167.10 170.79 168.11 171.03 168.88 170.56 Z M 169.78 170.00 L 170.63 169.45 C 171.38 168.96 171.60 167.95 171.11 167.19 C 170.61 166.43 169.60 166.21 168.84 166.71 L 168.00 167.26 C 167.24 167.75 167.02 168.76 167.51 169.52 C 168.01 170.28 169.02 170.50 169.78 170.00 Z M 170.67 169.42 L 171.56 168.80 C 172.30 168.28 172.48 167.26 171.96 166.52 C 171.44 165.78 170.42 165.60 169.68 166.12 L 168.79 166.74 C 168.05 167.26 167.87 168.28 168.39 169.02 C 168.91 169.76 169.93 169.94 170.67 169.42 Z M 171.60 168.77 L 172.40 168.16 C 173.12 167.62 173.27 166.59 172.72 165.87 C 172.18 165.15 171.15 165.01 170.43 165.55 L 169.63 166.15 C 168.91 166.70 168.77 167.72 169.31 168.45 C 169.85 169.17 170.88 169.31 171.60 168.77 Z M 172.43 168.14 L 173.18 167.55 C 173.89 166.98 174.00 165.96 173.44 165.25 C 172.88 164.54 171.85 164.42 171.14 164.98 L 170.40 165.58 C 169.69 166.14 169.57 167.17 170.13 167.88 C 170.70 168.58 171.73 168.70 172.43 168.14 Z M 173.19 167.53 L 173.81 167.03 C 174.51 166.46 174.62 165.43 174.05 164.73 C 173.47 164.03 172.44 163.92 171.74 164.49 L 171.13 165.00 C 170.42 165.57 170.32 166.60 170.89 167.30 C 171.46 168.00 172.49 168.11 173.19 167.53 Z"
      fill="black"
      fill-rule="nonzero" /><path d="M 152.55 139.90 L 151.66 140.38 C 150.79 140.86 150.46 141.95 150.94 142.83 C 151.41 143.71 152.51 144.03 153.39 143.56 L 154.28 143.07 C 155.15 142.60 155.48 141.50 155.00 140.62 C 154.53 139.75 153.43 139.42 152.55 139.90 Z M 151.48 140.43 L 150.66 140.98 C 149.81 141.56 149.59 142.71 150.16 143.56 C 150.74 144.41 151.89 144.64 152.74 144.06 L 153.56 143.51 C 154.42 142.93 154.64 141.78 154.07 140.93 C 153.49 140.08 152.34 139.85 151.48 140.43 Z M 150.34 141.19 L 149.65 141.88 C 148.91 142.64 148.93 143.85 149.68 144.59 C 150.43 145.33 151.64 145.31 152.38 144.56 L 153.07 143.86 C 153.81 143.11 153.79 141.90 153.04 141.16 C 152.29 140.42 151.08 140.43 150.34 141.19 Z M 149.32 142.28 L 148.89 143.05 C 148.36 143.99 148.70 145.17 149.64 145.70 C 150.58 146.22 151.76 145.88 152.28 144.94 L 152.72 144.17 C 153.24 143.23 152.90 142.05 151.96 141.52 C 151.03 141.00 149.84 141.34 149.32 142.28 Z M 148.73 143.42 L 148.46 144.27 C 148.15 145.30 148.73 146.39 149.75 146.71 C 150.78 147.02 151.87 146.45 152.19 145.42 L 152.45 144.57 C 152.76 143.54 152.19 142.45 151.16 142.14 C 150.13 141.82 149.04 142.40 148.73 143.42 Z M 148.42 144.51 L 148.25 145.49 C 148.06 146.54 148.77 147.55 149.82 147.73 C 150.88 147.91 151.88 147.21 152.06 146.15 L 152.23 145.18 C 152.42 144.12 151.71 143.12 150.66 142.94 C 149.60 142.75 148.60 143.46 148.42 144.51 Z M 148.24 145.63 L 148.13 146.72 C 148.02 147.78 148.79 148.72 149.85 148.83 C 150.91 148.94 151.86 148.16 151.96 147.10 L 152.07 146.01 C 152.18 144.95 151.41 144.01 150.35 143.90 C 149.29 143.80 148.34 144.57 148.24 145.63 Z M 148.13 146.78 L 148.06 147.90 C 147.99 148.96 148.78 149.87 149.84 149.94 C 150.90 150.02 151.81 149.22 151.88 148.16 L 151.96 147.04 C 152.03 145.99 151.23 145.07 150.18 145.00 C 149.12 144.93 148.20 145.73 148.13 146.78 Z M 148.07 147.92 L 148.01 148.93 C 147.95 149.98 148.75 150.88 149.80 150.94 C 150.86 151.00 151.76 150.20 151.82 149.14 L 151.87 148.14 C 151.93 147.09 151.13 146.19 150.08 146.13 C 149.03 146.07 148.13 146.87 148.07 147.92 Z M 148.02 148.94 L 147.97 149.97 C 147.92 151.01 148.72 151.90 149.76 151.95 C 150.81 152.01 151.70 151.21 151.75 150.16 L 151.80 149.13 C 151.86 148.09 151.06 147.20 150.01 147.14 C 148.97 147.09 148.08 147.89 148.02 148.94 Z M 147.98 149.97 L 147.93 151.00 C 147.88 152.04 148.69 152.92 149.72 152.97 C 150.76 153.02 151.64 152.22 151.69 151.18 L 151.74 150.15 C 151.79 149.11 150.99 148.23 149.95 148.18 C 148.91 148.14 148.03 148.94 147.98 149.97 Z M 147.94 151.01 L 147.90 152.01 C 147.86 153.04 148.65 153.92 149.69 153.96 C 150.72 154.01 151.59 153.21 151.63 152.18 L 151.68 151.17 C 151.72 150.14 150.92 149.27 149.89 149.23 C 148.86 149.18 147.99 149.98 147.94 151.01 Z M 147.91 152.02 L 147.87 152.97 C 147.83 153.99 148.63 154.86 149.65 154.90 C 150.68 154.94 151.54 154.14 151.58 153.12 L 151.62 152.17 C 151.66 151.15 150.87 150.28 149.84 150.24 C 148.82 150.20 147.96 150.99 147.91 152.02 Z M 147.89 152.97 L 147.85 154.06 C 147.81 155.07 148.60 155.93 149.61 155.97 C 150.63 156.01 151.48 155.22 151.52 154.20 L 151.56 153.12 C 151.60 152.10 150.81 151.25 149.80 151.21 C 148.79 151.17 147.93 151.96 147.89 152.97 Z M 147.88 154.07 L 147.84 155.09 C 147.80 156.09 148.58 156.93 149.58 156.96 C 150.58 157.00 151.42 156.22 151.46 155.22 L 151.49 154.20 C 151.53 153.20 150.75 152.36 149.75 152.32 C 148.75 152.29 147.91 153.07 147.88 154.07 Z M 147.87 155.10 L 147.84 156.06 C 147.81 157.04 148.58 157.86 149.56 157.89 C 150.55 157.92 151.37 157.15 151.40 156.17 L 151.43 155.21 C 151.46 154.22 150.69 153.40 149.70 153.37 C 148.72 153.34 147.90 154.11 147.87 155.10 Z M 147.86 156.07 L 147.84 157.01 C 147.82 157.98 148.59 158.78 149.56 158.81 C 150.53 158.83 151.33 158.06 151.35 157.09 L 151.37 156.15 C 151.40 155.18 150.63 154.38 149.66 154.36 C 148.69 154.33 147.89 155.10 147.86 156.07 Z M 147.86 157.02 L 147.85 157.98 C 147.83 158.94 148.60 159.72 149.56 159.74 C 150.51 159.75 151.30 158.99 151.32 158.03 L 151.33 157.08 C 151.35 156.12 150.58 155.33 149.62 155.32 C 148.67 155.30 147.88 156.06 147.86 157.02 Z M 147.86 157.99 L 147.86 158.97 C 147.85 159.92 148.61 160.70 149.56 160.71 C 150.51 160.71 151.28 159.95 151.29 159.00 L 151.30 158.02 C 151.31 157.07 150.55 156.29 149.60 156.29 C 148.65 156.28 147.87 157.04 147.86 157.99 Z M 147.87 158.98 L 147.86 159.99 C 147.86 160.93 148.62 161.69 149.56 161.70 C 150.50 161.70 151.27 160.94 151.27 160.00 L 151.28 158.99 C 151.28 158.05 150.52 157.29 149.58 157.28 C 148.64 157.28 147.87 158.04 147.87 158.98 Z M 147.88 159.99 L 147.88 161.01 C 147.88 161.95 148.63 162.71 149.57 162.71 C 150.50 162.71 151.26 161.95 151.26 161.02 L 151.26 160.00 C 151.26 159.06 150.51 158.30 149.57 158.30 C 148.64 158.30 147.88 159.06 147.88 159.99 Z M 147.89 161.01 L 147.89 162.02 C 147.89 162.95 148.64 163.70 149.57 163.70 C 150.50 163.70 151.25 162.95 151.25 162.02 L 151.25 161.01 C 151.25 160.09 150.50 159.34 149.57 159.34 C 148.64 159.34 147.89 160.09 147.89 161.01 Z M 147.90 162.02 L 147.90 163.01 C 147.90 163.93 148.65 164.68 149.57 164.68 C 150.49 164.68 151.24 163.93 151.24 163.01 L 151.24 162.02 C 151.24 161.10 150.49 160.35 149.57 160.35 C 148.65 160.35 147.90 161.10 147.90 162.02 Z M 147.91 163.01 L 147.91 164.00 C 147.91 164.92 148.65 165.67 149.57 165.67 C 150.49 165.67 151.23 164.92 151.23 164.00 L 151.23 163.01 C 151.23 162.09 150.49 161.35 149.57 161.35 C 148.65 161.35 147.91 162.09 147.91 163.01 Z M 147.92 164.00 L 147.92 165.01 C 147.92 165.93 148.66 166.67 149.57 166.67 C 150.48 166.67 151.22 165.93 151.22 165.01 L 151.22 164.00 C 151.22 163.09 150.48 162.35 149.57 162.35 C 148.66 162.35 147.92 163.09 147.92 164.00 Z M 147.92 165.01 L 147.92 166.03 C 147.92 166.94 148.66 167.68 149.57 167.68 C 150.48 167.68 151.21 166.94 151.21 166.03 L 151.21 165.01 C 151.21 164.10 150.48 163.37 149.57 163.37 C 148.66 163.37 147.92 164.10 147.92 165.01 Z M 147.93 166.03 L 147.93 167.05 C 147.93 167.96 148.66 168.69 149.57 168.69 C 150.48 168.69 151.21 167.96 151.21 167.05 L 151.21 166.03 C 151.21 165.12 150.48 164.39 149.57 164.39 C 148.66 164.39 147.93 165.12 147.93 166.03 Z M 147.93 167.05 L 147.93 168.07 C 147.93 168.98 148.66 169.71 149.57 169.71 C 150.47 169.71 151.21 168.98 151.21 168.07 L 151.21 167.05 C 151.21 166.15 150.47 165.41 149.57 165.41 C 148.66 165.41 147.93 166.15 147.93 167.05 Z M 147.93 168.07 L 147.93 169.07 C 147.93 169.98 148.66 170.71 149.57 170.71 C 150.47 170.71 151.21 169.98 151.21 169.07 L 151.21 168.07 C 151.21 167.16 150.47 166.43 149.57 166.43 C 148.66 166.43 147.93 167.16 147.93 168.07 Z M 147.93 169.07 L 147.93 170.05 C 147.93 170.95 148.66 171.69 149.57 171.69 C 150.47 171.69 151.21 170.95 151.21 170.05 L 151.21 169.07 C 151.21 168.17 150.47 167.43 149.57 167.43 C 148.66 167.43 147.93 168.17 147.93 169.07 Z M 147.93 170.05 L 147.93 171.08 C 147.93 171.98 148.66 172.71 149.57 172.71 C 150.47 172.71 151.21 171.98 151.21 171.08 L 151.21 170.05 C 151.21 169.14 150.47 168.41 149.57 168.41 C 148.66 168.41 147.93 169.14 147.93 170.05 Z M 147.93 171.08 L 147.93 172.10 C 147.93 173.01 148.66 173.74 149.57 173.74 C 150.47 173.74 151.21 173.01 151.21 172.10 L 151.21 171.08 C 151.21 170.17 150.47 169.44 149.57 169.44 C 148.66 169.44 147.93 170.17 147.93 171.08 Z M 147.93 172.10 L 147.93 173.09 C 147.93 173.99 148.66 174.73 149.57 174.73 C 150.47 174.73 151.21 173.99 151.21 173.09 L 151.21 172.10 C 151.21 171.20 150.47 170.47 149.57 170.47 C 148.66 170.47 147.93 171.20 147.93 172.10 Z M 147.93 173.09 L 147.93 174.04 C 147.93 174.94 148.66 175.68 149.57 175.68 C 150.47 175.68 151.21 174.94 151.21 174.04 L 151.21 173.09 C 151.21 172.18 150.47 171.45 149.57 171.45 C 148.66 171.45 147.93 172.18 147.93 173.09 Z M 147.93 174.04 L 147.93 175.04 C 147.93 175.95 148.66 176.68 149.57 176.68 C 150.47 176.68 151.21 175.95 151.21 175.04 L 151.21 174.04 C 151.21 173.14 150.47 172.40 149.57 172.40 C 148.66 172.40 147.93 173.14 147.93 174.04 Z M 147.93 175.04 L 147.93 176.05 C 147.93 176.95 148.66 177.68 149.57 177.68 C 150.47 177.68 151.21 176.95 151.21 176.05 L 151.21 175.04 C 151.21 174.14 150.47 173.41 149.57 173.41 C 148.66 173.41 147.93 174.14 147.93 175.04 Z M 147.93 176.05 L 147.93 177.04 C 147.93 177.94 148.66 178.67 149.57 178.67 C 150.47 178.67 151.21 177.94 151.21 177.04 L 151.21 176.05 C 151.21 175.14 150.47 174.41 149.57 174.41 C 148.66 174.41 147.93 175.14 147.93 176.05 Z M 147.93 177.04 L 147.93 177.70 C 147.93 178.61 148.66 179.34 149.57 179.34 C 150.47 179.34 151.21 178.61 151.21 177.70 L 151.21 177.04 C 151.21 176.13 150.47 175.40 149.57 175.40 C 148.66 175.40 147.93 176.13 147.93 177.04 Z"
      fill="black"
      fill-rule="nonzero" /></svg>