<svg xmlns="http://www.w3.org/2000/svg" width="300" height="300" viewBox="0 0 300 300">
<path d="M 150.46 84.04 L 149.73 84.62 C 149.00 85.20 148.87 86.26 149.45 86.99 C 150.03 87.72 151.09 87.85 151.82 87.27 L 152.55 86.69 C 153.28 86.12 153.41 85.06 152.83 84.33 C 152.26 83.59 151.19 83.47 150.46 84.04 Z M 149.70 84.64 L 148.96 85.25 C 148.24 85.84 148.14 86.90 148.73 87.63 C 149.32 88.35 150.38 88.45 151.11 87.86 L 151.85 87.25 C 152.57 86.66 152.67 85.60 152.08 84.87 C 151.49 84.15 150.42 84.05 149.70 84.64 Z M 148.91 85.28 L 148.16 85.95 C 147.46 86.57 147.39 87.64 148.01 88.34 C 148.63 89.04 149.70 89.11 150.40 88.49 L 151.16 87.82 C 151.86 87.21 151.93 86.13 151.31 85.43 C 150.69 84.73 149.62 84.66 148.91 85.28 Z M 148.10 86.00 L 147.32 86.75 C 146.65 87.40 146.63 88.48 147.29 89.15 C 147.94 89.83 149.01 89.84 149.69 89.19 L 150.46 88.44 C 151.14 87.78 151.15 86.71 150.50 86.04 C 149.85 85.36 148.77 85.35 148.10 86.00 Z M 147.26 86.81 L 146.57 87.54 C 145.93 88.23 145.97 89.30 146.65 89.95 C 147.34 90.59 148.42 90.55 149.06 89.87 L 149.75 89.13 C 150.39 88.45 150.35 87.37 149.67 86.73 C 148.98 86.09 147.91 86.12 147.26 86.81 Z M 146.53 87.58 L 145.86 88.35 C 145.24 89.06 145.31 90.14 146.02 90.76 C 146.73 91.38 147.81 91.30 148.43 90.60 L 149.10 89.83 C 149.72 89.12 149.65 88.04 148.94 87.42 C 148.23 86.80 147.15 86.88 146.53 87.58 Z M 145.83 88.38 L 145.17 89.18 C 144.57 89.90 144.67 90.98 145.39 91.58 C 146.11 92.18 147.19 92.08 147.79 91.36 L 148.45 90.57 C 149.06 89.84 148.96 88.77 148.23 88.16 C 147.51 87.56 146.44 87.66 145.83 88.38 Z M 145.15 89.20 L 144.52 89.99 C 143.92 90.73 144.04 91.80 144.78 92.39 C 145.51 92.98 146.58 92.87 147.17 92.13 L 147.81 91.34 C 148.40 90.61 148.28 89.53 147.55 88.94 C 146.82 88.35 145.74 88.47 145.15 89.20 Z M 144.50 90.01 L 143.91 90.76 C 143.33 91.50 143.45 92.58 144.20 93.16 C 144.94 93.74 146.01 93.61 146.59 92.87 L 147.19 92.12 C 147.77 91.38 147.64 90.30 146.90 89.72 C 146.16 89.14 145.08 89.27 144.50 90.01 Z M 143.90 90.77 L 143.23 91.64 C 142.65 92.38 142.79 93.46 143.53 94.03 C 144.28 94.61 145.35 94.48 145.93 93.73 L 146.60 92.86 C 147.18 92.12 147.04 91.04 146.30 90.47 C 145.55 89.89 144.48 90.02 143.90 90.77 Z M 143.22 91.64 L 142.60 92.46 C 142.02 93.20 142.17 94.28 142.92 94.85 C 143.66 95.43 144.74 95.29 145.31 94.54 L 145.94 93.72 C 146.51 92.97 146.37 91.90 145.62 91.33 C 144.87 90.75 143.80 90.89 143.22 91.64 Z M 142.60 92.46 L 142.02 93.21 C 141.45 93.96 141.59 95.03 142.34 95.60 C 143.09 96.18 144.17 96.04 144.74 95.29 L 145.31 94.54 C 145.89 93.79 145.75 92.71 145.00 92.14 C 144.25 91.56 143.17 91.71 142.60 92.46 Z M 142.03 93.20 L 141.47 93.92 C 140.89 94.67 141.03 95.74 141.77 96.32 C 142.52 96.90 143.60 96.77 144.18 96.02 L 144.74 95.29 C 145.32 94.55 145.18 93.47 144.43 92.89 C 143.68 92.31 142.61 92.45 142.03 93.20 Z M 141.48 93.91 L 140.91 94.63 C 140.32 95.37 140.45 96.45 141.20 97.03 C 141.94 97.62 143.02 97.49 143.60 96.75 L 144.17 96.03 C 144.76 95.29 144.63 94.21 143.88 93.62 C 143.14 93.04 142.06 93.16 141.48 93.91 Z M 140.91 94.62 L 140.32 95.37 C 139.73 96.11 139.85 97.19 140.59 97.78 C 141.33 98.37 142.41 98.25 143.00 97.51 L 143.60 96.76 C 144.19 96.01 144.07 94.93 143.33 94.34 C 142.58 93.75 141.50 93.88 140.91 94.62 Z M 140.32 95.37 L 139.67 96.17 C 139.08 96.91 139.20 98.00 139.94 98.59 C 140.69 99.18 141.77 99.06 142.36 98.32 L 143.00 97.51 C 143.60 96.77 143.47 95.69 142.73 95.09 C 141.99 94.50 140.91 94.62 140.32 95.37 Z M 139.67 96.17 L 138.99 97.03 C 138.40 97.77 138.52 98.85 139.27 99.44 C 140.01 100.04 141.10 99.91 141.69 99.17 L 142.36 98.31 C 142.96 97.57 142.83 96.49 142.09 95.90 C 141.34 95.31 140.26 95.43 139.67 96.17 Z M 138.99 97.03 L 138.37 97.81 C 137.78 98.55 137.91 99.64 138.66 100.23 C 139.41 100.81 140.49 100.69 141.08 99.94 L 141.69 99.16 C 142.28 98.42 142.15 97.33 141.41 96.74 C 140.66 96.16 139.58 96.28 138.99 97.03 Z M 138.37 97.81 L 137.74 98.61 C 137.15 99.36 137.28 100.45 138.03 101.04 C 138.78 101.62 139.86 101.49 140.45 100.75 L 141.08 99.94 C 141.67 99.19 141.54 98.11 140.79 97.52 C 140.04 96.93 138.96 97.06 138.37 97.81 Z M 137.74 98.62 L 137.10 99.42 C 136.51 100.17 136.64 101.26 137.39 101.85 C 138.14 102.43 139.23 102.30 139.81 101.55 L 140.45 100.75 C 141.04 100.00 140.91 98.91 140.16 98.32 C 139.41 97.74 138.32 97.87 137.74 98.62 Z M 137.10 99.42 L 136.49 100.21 C 135.90 100.96 136.03 102.04 136.78 102.63 C 137.53 103.22 138.61 103.09 139.20 102.34 L 139.81 101.56 C 140.40 100.81 140.27 99.72 139.52 99.13 C 138.77 98.54 137.69 98.67 137.10 99.42 Z M 136.49 100.20 L 135.86 101.00 C 135.27 101.75 135.39 102.84 136.14 103.43 C 136.89 104.02 137.98 103.89 138.57 103.14 L 139.20 102.34 C 139.79 101.59 139.66 100.51 138.91 99.92 C 138.16 99.33 137.08 99.45 136.49 100.20 Z M 135.85 101.00 L 135.21 101.82 C 134.62 102.56 134.75 103.65 135.50 104.24 C 136.25 104.83 137.34 104.70 137.93 103.96 L 138.57 103.14 C 139.16 102.39 139.03 101.31 138.28 100.72 C 137.53 100.12 136.45 100.25 135.85 101.00 Z M 135.21 101.82 L 134.61 102.59 C 134.02 103.34 134.16 104.43 134.91 105.01 C 135.66 105.60 136.75 105.47 137.34 104.71 L 137.93 103.95 C 138.52 103.20 138.39 102.11 137.63 101.52 C 136.88 100.93 135.79 101.07 135.21 101.82 Z M 134.60 102.60 L 134.02 103.36 C 133.44 104.12 133.58 105.21 134.34 105.79 C 135.11 106.37 136.19 106.22 136.77 105.46 L 137.35 104.70 C 137.93 103.94 137.78 102.85 137.02 102.27 C 136.26 101.70 135.18 101.84 134.60 102.60 Z M 134.00 103.39 L 133.42 104.17 C 132.86 104.94 133.02 106.02 133.79 106.59 C 134.56 107.16 135.64 106.99 136.21 106.22 L 136.79 105.44 C 137.36 104.67 137.19 103.58 136.42 103.02 C 135.65 102.45 134.57 102.61 134.00 103.39 Z M 133.40 104.21 L 132.82 105.03 C 132.28 105.81 132.47 106.89 133.26 107.44 C 134.04 107.98 135.12 107.79 135.67 107.01 L 136.24 106.19 C 136.79 105.40 136.59 104.32 135.81 103.77 C 135.02 103.23 133.94 103.42 133.40 104.21 Z M 132.78 105.09 L 132.24 105.94 C 131.72 106.75 131.96 107.82 132.77 108.33 C 133.58 108.85 134.65 108.61 135.16 107.80 L 135.71 106.95 C 136.22 106.14 135.98 105.07 135.18 104.55 C 134.37 104.04 133.30 104.28 132.78 105.09 Z M 132.19 106.03 L 131.70 106.90 C 131.23 107.74 131.53 108.80 132.37 109.26 C 133.20 109.73 134.26 109.43 134.73 108.59 L 135.22 107.71 C 135.68 106.88 135.38 105.82 134.55 105.36 C 133.71 104.89 132.65 105.19 132.19 106.03 Z M 131.63 107.04 L 131.18 108.06 C 130.79 108.93 131.18 109.95 132.05 110.34 C 132.93 110.73 133.95 110.34 134.34 109.47 L 134.80 108.45 C 135.19 107.58 134.79 106.55 133.92 106.16 C 133.04 105.77 132.02 106.17 131.63 107.04 Z M 131.08 108.33 L 130.82 109.37 C 130.58 110.29 131.15 111.24 132.07 111.47 C 133.00 111.71 133.94 111.15 134.18 110.22 L 134.44 109.19 C 134.68 108.26 134.11 107.32 133.19 107.08 C 132.26 106.85 131.32 107.41 131.08 108.33 Z M 130.78 110.00 L 130.88 110.87 C 131.00 111.81 131.86 112.49 132.81 112.38 C 133.76 112.27 134.43 111.41 134.32 110.46 L 134.22 109.59 C 134.11 108.64 133.24 107.96 132.30 108.07 C 131.35 108.19 130.67 109.05 130.78 110.00 Z M 131.34 111.85 L 131.88 112.42 C 132.54 113.11 133.63 113.14 134.32 112.49 C 135.02 111.84 135.05 110.74 134.40 110.05 L 133.86 109.48 C 133.21 108.78 132.11 108.75 131.42 109.40 C 130.72 110.06 130.69 111.15 131.34 111.85 Z M 132.56 112.85 L 133.39 113.15 C 134.28 113.46 135.27 112.99 135.58 112.10 C 135.90 111.20 135.43 110.22 134.54 109.90 L 133.71 109.61 C 132.82 109.29 131.83 109.76 131.52 110.66 C 131.20 111.55 131.67 112.54 132.56 112.85 Z M 133.73 113.22 L 134.76 113.36 C 135.70 113.49 136.56 112.83 136.69 111.89 C 136.82 110.95 136.16 110.09 135.22 109.96 L 134.19 109.82 C 133.25 109.70 132.39 110.36 132.26 111.29 C 132.14 112.23 132.79 113.10 133.73 113.22 Z M 134.94 113.37 L 136.05 113.40 C 136.99 113.43 137.78 112.68 137.81 111.74 C 137.83 110.80 137.09 110.01 136.15 109.99 L 135.04 109.96 C 134.10 109.93 133.31 110.67 133.28 111.61 C 133.26 112.55 134.00 113.34 134.94 113.37 Z M 136.15 113.39 L 137.25 113.36 C 138.19 113.33 138.93 112.55 138.90 111.62 C 138.87 110.68 138.09 109.94 137.16 109.97 L 136.06 110.00 C 135.12 110.02 134.38 110.80 134.40 111.74 C 134.43 112.68 135.21 113.42 136.15 113.39 Z M 137.32 113.35 L 138.36 113.27 C 139.29 113.21 139.99 112.40 139.92 111.47 C 139.86 110.55 139.05 109.84 138.12 109.91 L 137.09 109.98 C 136.16 110.04 135.46 110.85 135.52 111.78 C 135.58 112.71 136.39 113.41 137.32 113.35 Z M 138.44 113.25 L 139.40 113.14 C 140.32 113.03 140.98 112.20 140.87 111.28 C 140.76 110.36 139.93 109.71 139.01 109.81 L 138.05 109.93 C 137.13 110.04 136.47 110.87 136.58 111.79 C 136.69 112.70 137.52 113.36 138.44 113.25 Z M 139.48 113.11 L 140.42 112.96 C 141.33 112.80 141.94 111.95 141.78 111.04 C 141.63 110.14 140.77 109.53 139.87 109.68 L 138.93 109.84 C 138.03 109.99 137.42 110.85 137.57 111.75 C 137.72 112.66 138.58 113.27 139.48 113.11 Z M 140.49 112.93 L 141.43 112.73 C 142.32 112.54 142.89 111.66 142.70 110.77 C 142.50 109.88 141.63 109.31 140.74 109.50 L 139.80 109.71 C 138.91 109.90 138.34 110.77 138.53 111.67 C 138.72 112.56 139.60 113.12 140.49 112.93 Z M 141.48 112.71 L 142.44 112.47 C 143.32 112.26 143.85 111.37 143.63 110.49 C 143.42 109.61 142.53 109.07 141.65 109.29 L 140.69 109.52 C 139.81 109.74 139.27 110.63 139.49 111.51 C 139.71 112.39 140.60 112.93 141.48 112.71 Z M 142.46 112.46 L 143.44 112.20 C 144.31 111.97 144.83 111.08 144.60 110.20 C 144.37 109.33 143.47 108.81 142.60 109.04 L 141.62 109.30 C 140.75 109.53 140.23 110.43 140.46 111.30 C 140.69 112.17 141.59 112.69 142.46 112.46 Z M 143.44 112.19 L 144.43 111.93 C 145.30 111.70 145.81 110.80 145.58 109.94 C 145.35 109.07 144.46 108.55 143.59 108.78 L 142.60 109.05 C 141.73 109.28 141.21 110.17 141.45 111.04 C 141.68 111.91 142.57 112.43 143.44 112.19 Z M 144.42 111.92 L 145.40 111.67 C 146.27 111.44 146.78 110.56 146.56 109.69 C 146.34 108.83 145.45 108.31 144.59 108.53 L 143.60 108.79 C 142.74 109.01 142.22 109.90 142.44 110.76 C 142.67 111.63 143.55 112.15 144.42 111.92 Z M 145.39 111.66 L 146.37 111.41 C 147.23 111.19 147.75 110.31 147.53 109.45 C 147.31 108.59 146.44 108.07 145.58 108.29 L 144.60 108.54 C 143.73 108.76 143.21 109.64 143.43 110.50 C 143.65 111.36 144.53 111.88 145.39 111.66 Z M 146.37 111.40 L 147.34 111.15 C 148.20 110.93 148.71 110.06 148.49 109.20 C 148.27 108.34 147.40 107.83 146.54 108.05 L 145.57 108.30 C 144.72 108.52 144.20 109.40 144.42 110.25 C 144.64 111.11 145.52 111.62 146.37 111.40 Z M 147.35 111.14 L 148.30 110.88 C 149.15 110.66 149.65 109.78 149.42 108.93 C 149.19 108.08 148.31 107.58 147.47 107.81 L 146.52 108.06 C 145.68 108.29 145.17 109.17 145.40 110.02 C 145.63 110.87 146.51 111.37 147.35 111.14 Z M 148.32 110.87 L 149.22 110.61 C 150.06 110.37 150.54 109.49 150.30 108.65 C 150.06 107.81 149.18 107.32 148.34 107.57 L 147.44 107.82 C 146.60 108.07 146.12 108.94 146.36 109.79 C 146.60 110.63 147.48 111.11 148.32 110.87 Z M 149.24 110.60 L 150.14 110.33 C 150.98 110.07 151.45 109.19 151.20 108.36 C 150.95 107.52 150.06 107.05 149.23 107.30 L 148.32 107.58 C 147.48 107.83 147.01 108.71 147.27 109.55 C 147.52 110.38 148.40 110.85 149.24 110.60 Z M 150.16 110.32 L 151.12 110.01 C 151.95 109.76 152.42 108.87 152.16 108.04 C 151.90 107.21 151.02 106.75 150.19 107.01 L 149.22 107.31 C 148.39 107.57 147.93 108.45 148.18 109.28 C 148.44 110.11 149.33 110.57 150.16 110.32 Z M 151.12 110.01 L 152.17 109.68 C 152.99 109.42 153.45 108.54 153.19 107.71 C 152.93 106.89 152.05 106.43 151.23 106.69 L 150.19 107.02 C 149.36 107.27 148.90 108.16 149.16 108.98 C 149.42 109.81 150.30 110.27 151.12 110.01 Z M 152.16 109.68 L 153.02 109.41 C 153.85 109.15 154.31 108.27 154.05 107.45 C 153.79 106.62 152.91 106.16 152.09 106.42 L 151.23 106.69 C 150.40 106.95 149.94 107.83 150.20 108.65 C 150.46 109.48 151.34 109.94 152.16 109.68 Z M 153.02 109.41 L 153.94 109.12 C 154.77 108.87 155.23 107.99 154.97 107.16 C 154.71 106.34 153.84 105.88 153.01 106.14 L 152.09 106.42 C 151.27 106.68 150.81 107.56 151.06 108.38 C 151.32 109.21 152.20 109.67 153.02 109.41 Z M 153.94 109.12 L 154.91 108.82 C 155.73 108.57 156.19 107.69 155.94 106.87 C 155.68 106.04 154.80 105.58 153.98 105.84 L 153.01 106.14 C 152.19 106.39 151.73 107.27 151.98 108.09 C 152.24 108.92 153.11 109.38 153.94 109.12 Z M 154.91 108.82 L 155.91 108.51 C 156.73 108.26 157.19 107.38 156.93 106.56 C 156.68 105.73 155.80 105.27 154.98 105.53 L 153.98 105.84 C 153.16 106.09 152.69 106.97 152.95 107.79 C 153.21 108.62 154.08 109.08 154.91 108.82 Z M 155.90 108.51 L 156.92 108.20 C 157.75 107.94 158.21 107.07 157.95 106.24 C 157.70 105.42 156.82 104.96 156.00 105.21 L 154.98 105.53 C 154.16 105.78 153.70 106.66 153.95 107.48 C 154.21 108.31 155.08 108.77 155.90 108.51 Z M 156.92 108.20 L 157.27 108.09 C 158.10 107.83 158.56 106.96 158.30 106.13 C 158.05 105.31 157.17 104.85 156.35 105.10 L 156.00 105.21 C 155.18 105.47 154.71 106.34 154.97 107.17 C 155.22 107.99 156.10 108.45 156.92 108.20 Z"
      fill="black"
      fill-rule="nonzero" /><path d="M 124.93 126.55 L 125.59 125.80 C 126.20 125.10 126.14 124.03 125.43 123.41 C 124.73 122.79 123.66 122.86 123.05 123.57 L 122.39 124.32 C 121.77 125.02 121.84 126.09 122.54 126.70 C 123.24 127.32 124.31 127.25 124.93 126.55 Z M 125.55 125.84 L 126.23 125.11 C 126.87 124.43 126.84 123.36 126.16 122.72 C 125.48 122.08 124.41 122.12 123.77 122.80 L 123.09 123.52 C 122.45 124.20 122.48 125.27 123.16 125.91 C 123.84 126.55 124.91 126.52 125.55 125.84 Z M 126.16 125.19 L 126.88 124.51 C 127.57 123.87 127.60 122.80 126.97 122.12 C 126.33 121.44 125.26 121.40 124.58 122.04 L 123.85 122.72 C 123.17 123.35 123.13 124.42 123.77 125.11 C 124.40 125.79 125.47 125.83 126.16 125.19 Z M 126.76 124.62 L 127.55 124.01 C 128.29 123.44 128.43 122.38 127.87 121.64 C 127.30 120.90 126.24 120.76 125.50 121.32 L 124.70 121.93 C 123.96 122.50 123.82 123.56 124.39 124.30 C 124.95 125.04 126.01 125.18 126.76 124.62 Z M 127.39 124.12 L 128.16 123.66 C 128.96 123.18 129.22 122.14 128.74 121.34 C 128.26 120.54 127.22 120.28 126.42 120.76 L 125.66 121.22 C 124.86 121.69 124.59 122.73 125.07 123.53 C 125.55 124.34 126.59 124.60 127.39 124.12 Z M 128.02 123.73 L 128.86 123.33 C 129.70 122.92 130.05 121.91 129.65 121.07 C 129.24 120.23 128.23 119.88 127.39 120.28 L 126.56 120.69 C 125.72 121.09 125.36 122.10 125.77 122.94 C 126.17 123.78 127.18 124.14 128.02 123.73 Z M 128.76 123.37 L 129.68 123.00 C 130.55 122.65 130.96 121.66 130.61 120.80 C 130.26 119.93 129.28 119.52 128.41 119.87 L 127.49 120.24 C 126.63 120.59 126.21 121.58 126.56 122.44 C 126.91 123.31 127.90 123.72 128.76 123.37 Z M 129.62 123.02 L 130.63 122.65 C 131.51 122.34 131.96 121.37 131.65 120.49 C 131.33 119.62 130.36 119.16 129.48 119.48 L 128.47 119.85 C 127.60 120.16 127.14 121.13 127.46 122.01 C 127.78 122.88 128.75 123.34 129.62 123.02 Z M 130.61 122.66 L 131.64 122.31 C 132.52 122.00 132.99 121.04 132.69 120.16 C 132.39 119.28 131.43 118.81 130.54 119.12 L 129.51 119.47 C 128.63 119.77 128.16 120.73 128.46 121.62 C 128.77 122.50 129.73 122.97 130.61 122.66 Z M 131.63 122.31 L 132.58 121.99 C 133.46 121.69 133.93 120.73 133.63 119.85 C 133.33 118.97 132.37 118.50 131.49 118.79 L 130.55 119.11 C 129.67 119.41 129.20 120.37 129.50 121.25 C 129.79 122.14 130.75 122.61 131.63 122.31 Z M 132.57 121.99 L 133.55 121.66 C 134.43 121.37 134.90 120.41 134.61 119.53 C 134.31 118.65 133.36 118.17 132.47 118.47 L 131.50 118.79 C 130.61 119.09 130.14 120.05 130.44 120.93 C 130.73 121.81 131.69 122.29 132.57 121.99 Z M 133.54 121.66 L 134.52 121.34 C 135.41 121.05 135.89 120.09 135.59 119.21 C 135.30 118.32 134.35 117.85 133.46 118.14 L 132.48 118.47 C 131.59 118.76 131.12 119.71 131.41 120.60 C 131.70 121.48 132.66 121.96 133.54 121.66 Z M 134.52 121.34 L 135.49 121.02 C 136.37 120.73 136.85 119.78 136.56 118.90 C 136.27 118.01 135.32 117.53 134.44 117.82 L 133.47 118.14 C 132.58 118.43 132.10 119.38 132.39 120.26 C 132.68 121.15 133.63 121.63 134.52 121.34 Z M 135.48 121.02 L 136.41 120.73 C 137.29 120.44 137.78 119.49 137.49 118.60 C 137.21 117.72 136.26 117.23 135.37 117.52 L 134.44 117.82 C 133.56 118.10 133.07 119.05 133.36 119.94 C 133.64 120.82 134.59 121.31 135.48 121.02 Z M 136.39 120.73 L 137.39 120.41 C 138.28 120.13 138.77 119.19 138.49 118.30 C 138.21 117.41 137.27 116.92 136.38 117.20 L 135.38 117.52 C 134.50 117.80 134.00 118.74 134.28 119.63 C 134.56 120.51 135.51 121.01 136.39 120.73 Z M 137.38 120.41 L 138.41 120.09 C 139.30 119.82 139.80 118.89 139.53 118.00 C 139.26 117.11 138.32 116.61 137.43 116.88 L 136.40 117.20 C 135.51 117.47 135.01 118.41 135.28 119.30 C 135.55 120.18 136.49 120.68 137.38 120.41 Z M 138.40 120.09 L 139.35 119.81 C 140.23 119.55 140.74 118.62 140.47 117.74 C 140.21 116.85 139.28 116.34 138.40 116.61 L 137.45 116.89 C 136.56 117.15 136.06 118.08 136.32 118.96 C 136.58 119.85 137.51 120.36 138.40 120.09 Z M 139.33 119.81 L 140.22 119.56 C 141.11 119.30 141.62 118.38 141.36 117.49 C 141.11 116.61 140.19 116.10 139.30 116.35 L 138.41 116.61 C 137.53 116.86 137.02 117.79 137.27 118.67 C 137.52 119.55 138.45 120.07 139.33 119.81 Z M 140.21 119.55 L 141.09 119.30 C 141.97 119.05 142.49 118.14 142.24 117.25 C 141.99 116.37 141.07 115.86 140.19 116.11 L 139.31 116.36 C 138.43 116.60 137.91 117.52 138.16 118.40 C 138.41 119.29 139.33 119.80 140.21 119.55 Z M 141.09 119.30 L 142.04 119.03 C 142.92 118.79 143.44 117.88 143.19 117.00 C 142.94 116.11 142.03 115.60 141.15 115.84 L 140.20 116.11 C 139.32 116.36 138.80 117.27 139.05 118.15 C 139.29 119.03 140.20 119.55 141.09 119.30 Z M 142.03 119.03 L 142.99 118.77 C 143.87 118.53 144.39 117.62 144.15 116.74 C 143.91 115.86 143.00 115.34 142.12 115.58 L 141.16 115.85 C 140.28 116.09 139.76 117.00 140.00 117.88 C 140.24 118.76 141.15 119.27 142.03 119.03 Z M 142.98 118.77 L 143.95 118.51 C 144.83 118.27 145.35 117.37 145.12 116.49 C 144.88 115.61 143.98 115.09 143.10 115.33 L 142.13 115.58 C 141.25 115.82 140.73 116.72 140.97 117.60 C 141.20 118.48 142.10 119.00 142.98 118.77 Z M 143.94 118.51 L 144.91 118.26 C 145.79 118.03 146.32 117.13 146.10 116.25 C 145.87 115.38 144.97 114.85 144.09 115.07 L 143.12 115.33 C 142.24 115.55 141.71 116.45 141.94 117.33 C 142.16 118.21 143.06 118.73 143.94 118.51 Z M 144.90 118.26 L 145.87 118.01 C 146.75 117.80 147.28 116.91 147.07 116.03 C 146.85 115.15 145.96 114.62 145.08 114.83 L 144.11 115.07 C 143.23 115.29 142.70 116.18 142.91 117.06 C 143.13 117.94 144.02 118.47 144.90 118.26 Z M 145.86 118.01 L 146.83 117.78 C 147.71 117.57 148.25 116.68 148.04 115.81 C 147.83 114.93 146.94 114.39 146.07 114.60 L 145.09 114.84 C 144.21 115.05 143.68 115.93 143.89 116.81 C 144.10 117.68 144.98 118.22 145.86 118.01 Z M 146.83 117.77 L 147.80 117.54 C 148.68 117.33 149.22 116.46 149.01 115.58 C 148.80 114.71 147.92 114.16 147.05 114.37 L 146.07 114.60 C 145.20 114.81 144.66 115.69 144.86 116.57 C 145.07 117.44 145.95 117.98 146.83 117.77 Z M 147.80 117.54 L 148.77 117.31 C 149.64 117.10 150.18 116.23 149.98 115.35 C 149.77 114.48 148.89 113.94 148.02 114.15 L 147.05 114.38 C 146.18 114.58 145.64 115.46 145.84 116.33 C 146.05 117.21 146.92 117.75 147.80 117.54 Z M 148.77 117.30 L 149.75 117.07 C 150.62 116.86 151.16 115.99 150.95 115.12 C 150.75 114.25 149.87 113.71 149.00 113.92 L 148.02 114.15 C 147.15 114.36 146.61 115.23 146.82 116.10 C 147.03 116.97 147.90 117.51 148.77 117.30 Z M 149.76 117.06 L 150.73 116.83 C 151.60 116.62 152.13 115.75 151.92 114.88 C 151.72 114.01 150.84 113.48 149.98 113.69 L 149.00 113.92 C 148.13 114.13 147.60 115.00 147.81 115.87 C 148.02 116.74 148.89 117.27 149.76 117.06 Z M 150.73 116.82 L 151.70 116.59 C 152.56 116.38 153.09 115.51 152.88 114.64 C 152.68 113.78 151.80 113.25 150.94 113.46 L 149.97 113.69 C 149.11 113.90 148.58 114.77 148.79 115.64 C 149.00 116.50 149.87 117.03 150.73 116.82 Z M 151.70 116.58 L 152.63 116.35 C 153.50 116.14 154.02 115.27 153.81 114.41 C 153.60 113.55 152.73 113.03 151.87 113.24 L 150.94 113.46 C 150.08 113.68 149.55 114.54 149.76 115.40 C 149.97 116.27 150.84 116.79 151.70 116.58 Z M 152.63 116.35 L 153.41 116.16 C 154.27 115.95 154.79 115.08 154.58 114.22 C 154.37 113.37 153.51 112.84 152.65 113.05 L 151.87 113.24 C 151.01 113.45 150.49 114.32 150.70 115.18 C 150.91 116.03 151.78 116.56 152.63 116.35 Z M 153.40 116.16 L 154.23 115.96 C 155.09 115.75 155.62 114.89 155.41 114.04 C 155.21 113.18 154.35 112.65 153.49 112.85 L 152.66 113.05 C 151.80 113.26 151.27 114.12 151.48 114.98 C 151.68 115.83 152.54 116.36 153.40 116.16 Z M 154.21 115.96 L 155.16 115.74 C 156.02 115.55 156.55 114.69 156.36 113.84 C 156.16 112.98 155.31 112.44 154.45 112.64 L 153.51 112.85 C 152.65 113.05 152.11 113.90 152.31 114.76 C 152.50 115.62 153.36 116.15 154.21 115.96 Z M 155.14 115.74 L 156.25 115.50 C 157.11 115.32 157.65 114.48 157.47 113.62 C 157.29 112.76 156.44 112.21 155.58 112.40 L 154.47 112.64 C 153.61 112.82 153.07 113.67 153.25 114.53 C 153.44 115.38 154.28 115.93 155.14 115.74 Z M 156.23 115.50 L 157.44 115.26 C 158.30 115.08 158.86 114.25 158.68 113.39 C 158.51 112.53 157.67 111.98 156.81 112.15 L 155.60 112.40 C 154.74 112.57 154.19 113.41 154.36 114.27 C 154.54 115.13 155.38 115.68 156.23 115.50 Z M 157.43 115.26 L 158.30 115.09 C 159.15 114.92 159.71 114.09 159.54 113.23 C 159.38 112.37 158.55 111.82 157.69 111.98 L 156.82 112.15 C 155.97 112.32 155.41 113.15 155.58 114.01 C 155.74 114.87 156.57 115.43 157.43 115.26 Z M 158.29 115.09 L 159.22 114.91 C 160.08 114.75 160.64 113.92 160.48 113.06 C 160.31 112.20 159.49 111.64 158.63 111.81 L 157.70 111.98 C 156.84 112.15 156.28 112.97 156.44 113.83 C 156.60 114.69 157.43 115.25 158.29 115.09 Z M 159.21 114.91 L 160.20 114.73 C 161.05 114.57 161.62 113.74 161.46 112.89 C 161.30 112.03 160.48 111.46 159.62 111.62 L 158.64 111.81 C 157.78 111.97 157.21 112.79 157.37 113.65 C 157.53 114.50 158.36 115.07 159.21 114.91 Z M 160.19 114.72 L 161.21 114.54 C 162.07 114.38 162.63 113.56 162.48 112.71 C 162.32 111.85 161.50 111.28 160.65 111.44 L 159.63 111.62 C 158.77 111.78 158.20 112.60 158.36 113.46 C 158.51 114.31 159.33 114.88 160.19 114.72 Z M 161.20 114.54 L 162.24 114.36 C 163.10 114.20 163.67 113.39 163.52 112.53 C 163.37 111.68 162.55 111.11 161.69 111.26 L 160.65 111.44 C 159.80 111.59 159.23 112.41 159.38 113.26 C 159.53 114.12 160.35 114.69 161.20 114.54 Z M 162.23 114.35 L 163.28 114.18 C 164.13 114.03 164.71 113.22 164.56 112.36 C 164.41 111.51 163.60 110.93 162.75 111.08 L 161.70 111.26 C 160.85 111.40 160.27 112.22 160.42 113.07 C 160.57 113.93 161.38 114.50 162.23 114.35 Z M 163.27 114.18 L 164.30 114.00 C 165.15 113.86 165.73 113.05 165.59 112.20 C 165.45 111.34 164.64 110.77 163.79 110.91 L 162.75 111.08 C 161.90 111.22 161.32 112.03 161.46 112.88 C 161.60 113.74 162.41 114.32 163.27 114.18 Z M 164.29 114.00 L 165.29 113.84 C 166.14 113.71 166.73 112.91 166.59 112.05 C 166.45 111.20 165.65 110.61 164.80 110.75 L 163.80 110.91 C 162.94 111.04 162.36 111.85 162.49 112.70 C 162.63 113.56 163.43 114.14 164.29 114.00 Z M 165.28 113.84 L 166.35 113.68 C 167.21 113.55 167.80 112.76 167.67 111.90 C 167.54 111.05 166.74 110.46 165.89 110.59 L 164.81 110.75 C 163.96 110.88 163.37 111.68 163.50 112.53 C 163.62 113.39 164.42 113.97 165.28 113.84 Z M 166.34 113.68 L 167.44 113.53 C 168.29 113.41 168.89 112.62 168.77 111.76 C 168.65 110.91 167.85 110.31 167.00 110.43 L 165.90 110.59 C 165.05 110.71 164.45 111.50 164.57 112.35 C 164.69 113.21 165.48 113.80 166.34 113.68 Z M 167.42 113.53 L 168.46 113.39 C 169.31 113.28 169.92 112.50 169.81 111.64 C 169.69 110.78 168.91 110.18 168.05 110.29 L 167.01 110.43 C 166.16 110.54 165.55 111.33 165.67 112.18 C 165.78 113.04 166.56 113.64 167.42 113.53 Z M 168.44 113.40 L 169.43 113.27 C 170.29 113.17 170.90 112.39 170.80 111.53 C 170.69 110.68 169.91 110.07 169.05 110.17 L 168.06 110.29 C 167.21 110.40 166.60 111.18 166.70 112.03 C 166.81 112.89 167.59 113.50 168.44 113.40 Z M 169.42 113.27 L 170.37 113.17 C 171.23 113.07 171.85 112.29 171.75 111.43 C 171.65 110.58 170.87 109.96 170.02 110.06 L 169.07 110.17 C 168.21 110.27 167.59 111.04 167.69 111.90 C 167.79 112.76 168.56 113.37 169.42 113.27 Z M 170.36 113.17 L 171.29 113.07 C 172.14 112.97 172.76 112.20 172.67 111.34 C 172.58 110.49 171.81 109.87 170.95 109.96 L 170.02 110.06 C 169.17 110.15 168.55 110.93 168.64 111.78 C 168.74 112.64 169.51 113.26 170.36 113.17 Z M 171.28 113.07 L 172.19 112.97 C 173.05 112.88 173.67 112.11 173.58 111.25 C 173.49 110.40 172.72 109.77 171.86 109.86 L 170.95 109.96 C 170.10 110.05 169.47 110.82 169.56 111.68 C 169.66 112.53 170.42 113.16 171.28 113.07 Z M 172.19 112.97 L 172.62 112.92 C 173.48 112.83 174.10 112.07 174.01 111.21 C 173.92 110.35 173.16 109.73 172.30 109.82 L 171.86 109.86 C 171.01 109.95 170.38 110.72 170.47 111.58 C 170.56 112.44 171.33 113.06 172.19 112.97 Z"
      fill="black"
      fill-rule="nonzero" /><path d="M 152.73 97.72 L 151.96 98.32 C 151.23 98.89 151.11 99.95 151.68 100.67 C 152.25 101.40 153.30 101.52 154.03 100.95 L 154.80 100.35 C 155.52 99.78 155.65 98.73 155.08 98.00 C 154.50 97.27 153.45 97.15 152.73 97.72 Z M 151.88 98.36 L 151.14 99.01 C 150.43 99.62 150.36 100.69 150.98 101.40 C 151.59 102.10 152.66 102.17 153.37 101.56 L 154.11 100.91 C 154.81 100.30 154.88 99.23 154.27 98.52 C 153.66 97.82 152.59 97.75 151.88 98.36 Z M 151.00 99.11 L 150.32 99.84 C 149.67 100.53 149.70 101.61 150.39 102.26 C 151.08 102.91 152.17 102.88 152.81 102.19 L 153.50 101.46 C 154.15 100.77 154.12 99.68 153.43 99.03 C 152.74 98.39 151.65 98.42 151.00 99.11 Z M 150.15 100.01 L 149.57 100.82 C 149.02 101.60 149.20 102.68 149.98 103.24 C 150.76 103.79 151.84 103.61 152.40 102.83 L 152.98 102.02 C 153.53 101.24 153.35 100.16 152.57 99.60 C 151.79 99.05 150.71 99.23 150.15 100.01 Z M 149.45 101.00 L 149.03 101.79 C 148.58 102.63 148.89 103.69 149.74 104.14 C 150.59 104.60 151.64 104.28 152.10 103.43 L 152.52 102.65 C 152.97 101.80 152.66 100.75 151.81 100.29 C 150.96 99.84 149.91 100.16 149.45 101.00 Z M 148.97 101.91 L 148.59 102.79 C 148.21 103.67 148.61 104.69 149.49 105.07 C 150.36 105.46 151.39 105.06 151.77 104.18 L 152.16 103.31 C 152.54 102.43 152.14 101.40 151.26 101.02 C 150.38 100.63 149.36 101.04 148.97 101.91 Z M 148.56 102.87 L 148.20 103.82 C 147.86 104.71 148.31 105.72 149.20 106.06 C 150.09 106.40 151.10 105.95 151.44 105.06 L 151.80 104.10 C 152.14 103.21 151.69 102.21 150.80 101.86 C 149.91 101.52 148.90 101.97 148.56 102.87 Z M 148.19 103.85 L 147.82 104.88 C 147.50 105.78 147.97 106.77 148.87 107.09 C 149.77 107.41 150.76 106.95 151.08 106.05 L 151.45 105.02 C 151.77 104.12 151.30 103.13 150.40 102.81 C 149.50 102.49 148.51 102.95 148.19 103.85 Z M 147.83 104.88 L 147.47 105.88 C 147.14 106.78 147.61 107.77 148.51 108.09 C 149.41 108.41 150.39 107.95 150.72 107.05 L 151.08 106.05 C 151.40 105.15 150.93 104.16 150.03 103.84 C 149.14 103.52 148.15 103.98 147.83 104.88 Z M 147.47 105.87 L 147.13 106.82 C 146.80 107.71 147.25 108.70 148.15 109.03 C 149.04 109.36 150.03 108.90 150.36 108.01 L 150.71 107.06 C 151.04 106.17 150.58 105.18 149.69 104.85 C 148.79 104.52 147.80 104.98 147.47 105.87 Z M 147.13 106.81 L 146.77 107.77 C 146.44 108.66 146.89 109.65 147.78 109.98 C 148.66 110.32 149.66 109.87 149.99 108.98 L 150.35 108.02 C 150.69 107.13 150.24 106.14 149.35 105.80 C 148.46 105.47 147.47 105.92 147.13 106.81 Z M 146.78 107.76 L 146.41 108.72 C 146.07 109.60 146.52 110.59 147.40 110.93 C 148.29 111.27 149.28 110.83 149.62 109.94 L 149.98 108.99 C 150.32 108.10 149.88 107.11 148.99 106.77 C 148.11 106.43 147.12 106.88 146.78 107.76 Z M 146.42 108.71 L 146.06 109.64 C 145.71 110.52 146.15 111.52 147.03 111.86 C 147.91 112.20 148.90 111.76 149.25 110.88 L 149.61 109.95 C 149.95 109.07 149.52 108.08 148.63 107.74 C 147.75 107.39 146.76 107.83 146.42 108.71 Z M 146.06 109.64 L 145.71 110.53 C 145.37 111.41 145.80 112.40 146.67 112.74 C 147.55 113.09 148.54 112.66 148.89 111.78 L 149.24 110.89 C 149.58 110.01 149.15 109.02 148.28 108.68 C 147.40 108.33 146.41 108.76 146.06 109.64 Z M 145.72 110.53 L 145.32 111.53 C 144.97 112.40 145.40 113.39 146.27 113.74 C 147.14 114.09 148.13 113.67 148.48 112.79 L 148.88 111.79 C 149.23 110.91 148.80 109.92 147.93 109.58 C 147.06 109.23 146.07 109.65 145.72 110.53 Z M 145.33 111.53 L 144.94 112.49 C 144.59 113.36 145.01 114.35 145.87 114.70 C 146.74 115.05 147.73 114.63 148.08 113.76 L 148.47 112.80 C 148.82 111.93 148.40 110.94 147.53 110.59 C 146.67 110.24 145.68 110.66 145.33 111.53 Z M 144.95 112.49 L 144.58 113.39 C 144.22 114.25 144.64 115.24 145.50 115.59 C 146.36 115.95 147.35 115.53 147.70 114.67 L 148.07 113.76 C 148.42 112.90 148.01 111.92 147.15 111.56 C 146.29 111.21 145.30 111.62 144.95 112.49 Z M 144.59 113.39 L 144.23 114.26 C 143.87 115.12 144.28 116.10 145.14 116.45 C 146.00 116.81 146.98 116.40 147.33 115.54 L 147.69 114.67 C 148.05 113.81 147.64 112.83 146.78 112.48 C 145.92 112.12 144.94 112.53 144.59 113.39 Z M 144.23 114.26 L 143.87 115.13 C 143.52 115.98 143.93 116.96 144.78 117.32 C 145.64 117.67 146.61 117.26 146.97 116.41 L 147.33 115.54 C 147.68 114.68 147.27 113.71 146.42 113.35 C 145.57 113.00 144.59 113.41 144.23 114.26 Z M 143.88 115.13 L 143.50 116.04 C 143.15 116.89 143.55 117.87 144.41 118.22 C 145.26 118.57 146.23 118.17 146.59 117.32 L 146.96 116.41 C 147.31 115.56 146.91 114.58 146.06 114.23 C 145.21 113.88 144.23 114.28 143.88 115.13 Z M 143.51 116.04 L 143.13 116.96 C 142.77 117.80 143.17 118.78 144.02 119.13 C 144.87 119.49 145.85 119.08 146.20 118.23 L 146.58 117.32 C 146.93 116.47 146.53 115.50 145.68 115.14 C 144.83 114.79 143.86 115.19 143.51 116.04 Z M 143.13 116.95 L 142.74 117.88 C 142.39 118.73 142.79 119.70 143.63 120.05 C 144.48 120.41 145.45 120.01 145.81 119.17 L 146.19 118.24 C 146.55 117.39 146.15 116.42 145.31 116.06 C 144.46 115.71 143.49 116.11 143.13 116.95 Z M 142.75 117.88 L 142.35 118.82 C 141.99 119.66 142.39 120.63 143.23 120.99 C 144.07 121.35 145.04 120.95 145.40 120.11 L 145.80 119.17 C 146.16 118.33 145.76 117.35 144.92 117.00 C 144.08 116.64 143.11 117.03 142.75 117.88 Z M 142.36 118.81 L 141.97 119.70 C 141.61 120.54 142.00 121.51 142.84 121.87 C 143.68 122.23 144.65 121.84 145.01 121.00 L 145.40 120.11 C 145.75 119.28 145.37 118.30 144.53 117.94 C 143.69 117.58 142.72 117.97 142.36 118.81 Z M 141.98 119.70 L 141.59 120.60 C 141.23 121.44 141.61 122.41 142.45 122.77 C 143.28 123.13 144.25 122.75 144.62 121.91 L 145.01 121.01 C 145.37 120.17 144.99 119.20 144.15 118.84 C 143.31 118.48 142.34 118.86 141.98 119.70 Z M 141.59 120.60 L 141.19 121.52 C 140.83 122.36 141.21 123.33 142.04 123.69 C 142.88 124.05 143.85 123.67 144.21 122.84 L 144.61 121.92 C 144.97 121.08 144.59 120.11 143.76 119.75 C 142.93 119.39 141.96 119.77 141.59 120.60 Z M 141.19 121.52 L 140.78 122.46 C 140.42 123.29 140.80 124.26 141.63 124.62 C 142.46 124.99 143.43 124.61 143.79 123.78 L 144.20 122.84 C 144.57 122.01 144.19 121.04 143.36 120.68 C 142.53 120.31 141.56 120.69 141.19 121.52 Z M 140.79 122.46 L 140.38 123.38 C 140.02 124.21 140.40 125.18 141.23 125.54 C 142.05 125.91 143.02 125.53 143.39 124.70 L 143.79 123.78 C 144.15 122.95 143.78 121.98 142.95 121.62 C 142.12 121.25 141.15 121.63 140.79 122.46 Z M 140.39 123.38 L 139.99 124.28 C 139.63 125.11 140.00 126.07 140.83 126.44 C 141.65 126.80 142.62 126.43 142.98 125.60 L 143.38 124.70 C 143.75 123.87 143.37 122.91 142.54 122.54 C 141.72 122.18 140.75 122.55 140.39 123.38 Z M 140.00 124.28 L 139.59 125.19 C 139.23 126.01 139.60 126.98 140.42 127.34 C 141.24 127.71 142.21 127.34 142.58 126.51 L 142.98 125.60 C 143.35 124.78 142.97 123.81 142.15 123.45 C 141.33 123.08 140.36 123.45 140.00 124.28 Z M 139.60 125.18 L 139.19 126.10 C 138.82 126.92 139.18 127.88 140.00 128.25 C 140.82 128.62 141.79 128.26 142.16 127.43 L 142.57 126.52 C 142.94 125.70 142.57 124.73 141.75 124.36 C 140.93 123.99 139.97 124.36 139.60 125.18 Z M 139.19 126.09 L 138.77 127.02 C 138.40 127.83 138.76 128.80 139.58 129.17 C 140.39 129.54 141.36 129.18 141.73 128.37 L 142.15 127.44 C 142.52 126.62 142.16 125.66 141.35 125.29 C 140.53 124.92 139.56 125.28 139.19 126.09 Z M 138.78 127.01 L 138.36 127.92 C 137.98 128.73 138.33 129.69 139.15 130.07 C 139.96 130.45 140.92 130.10 141.30 129.28 L 141.72 128.37 C 142.10 127.56 141.75 126.60 140.93 126.22 C 140.12 125.84 139.16 126.20 138.78 127.01 Z M 138.37 127.91 L 137.94 128.80 C 137.56 129.61 137.90 130.58 138.71 130.96 C 139.52 131.34 140.49 131.00 140.87 130.19 L 141.29 129.29 C 141.67 128.48 141.33 127.52 140.52 127.14 C 139.71 126.75 138.75 127.10 138.37 127.91 Z M 137.95 128.79 L 137.52 129.69 C 137.13 130.50 137.47 131.46 138.27 131.85 C 139.07 132.24 140.04 131.90 140.43 131.10 L 140.86 130.20 C 141.25 129.39 140.91 128.43 140.11 128.04 C 139.30 127.65 138.34 127.99 137.95 128.79 Z M 137.53 129.68 L 137.08 130.58 C 136.69 131.38 137.02 132.35 137.82 132.74 C 138.62 133.13 139.58 132.81 139.98 132.01 L 140.42 131.11 C 140.81 130.31 140.48 129.34 139.68 128.95 C 138.88 128.55 137.92 128.88 137.53 129.68 Z M 137.09 130.57 L 136.64 131.47 C 136.24 132.27 136.56 133.24 137.35 133.63 C 138.15 134.03 139.11 133.71 139.51 132.92 L 139.97 132.02 C 140.37 131.22 140.05 130.25 139.25 129.86 C 138.46 129.46 137.49 129.78 137.09 130.57 Z M 136.65 131.46 L 136.19 132.35 C 135.79 133.14 136.10 134.11 136.89 134.51 C 137.68 134.92 138.64 134.61 139.05 133.82 L 139.50 132.93 C 139.91 132.14 139.60 131.17 138.81 130.77 C 138.02 130.36 137.05 130.67 136.65 131.46 Z M 136.20 132.34 L 135.74 133.21 C 135.33 134.00 135.64 134.97 136.42 135.38 C 137.21 135.79 138.17 135.48 138.58 134.70 L 139.04 133.83 C 139.45 133.04 139.15 132.08 138.36 131.67 C 137.58 131.25 136.61 131.56 136.20 132.34 Z M 135.75 133.21 L 135.29 134.08 C 134.87 134.86 135.17 135.83 135.95 136.24 C 136.73 136.66 137.70 136.36 138.11 135.58 L 138.58 134.71 C 138.99 133.93 138.70 132.96 137.91 132.54 C 137.13 132.13 136.17 132.42 135.75 133.21 Z M 135.29 134.07 L 134.82 134.95 C 134.40 135.73 134.69 136.70 135.47 137.12 C 136.24 137.54 137.21 137.24 137.63 136.47 L 138.11 135.59 C 138.52 134.81 138.23 133.84 137.46 133.42 C 136.68 133.01 135.71 133.30 135.29 134.07 Z M 134.82 134.95 L 134.34 135.84 C 133.92 136.61 134.21 137.58 134.98 138.00 C 135.75 138.42 136.72 138.13 137.14 137.36 L 137.63 136.47 C 138.05 135.70 137.76 134.73 136.99 134.31 C 136.21 133.89 135.24 134.18 134.82 134.95 Z M 134.35 135.84 L 133.85 136.74 C 133.43 137.51 133.72 138.47 134.49 138.90 C 135.26 139.32 136.23 139.03 136.65 138.26 L 137.14 137.36 C 137.56 136.59 137.28 135.63 136.51 135.20 C 135.73 134.78 134.77 135.07 134.35 135.84 Z M 133.86 136.73 L 133.37 137.62 C 132.95 138.39 133.23 139.35 134.00 139.78 C 134.77 140.20 135.73 139.92 136.16 139.15 L 136.64 138.26 C 137.06 137.49 136.78 136.53 136.02 136.11 C 135.25 135.68 134.28 135.97 133.86 136.73 Z M 133.38 137.62 L 132.89 138.51 C 132.46 139.27 132.74 140.24 133.51 140.66 C 134.27 141.08 135.24 140.81 135.66 140.04 L 136.15 139.15 C 136.58 138.39 136.30 137.42 135.53 137.00 C 134.77 136.57 133.80 136.85 133.38 137.62 Z M 132.89 138.50 L 132.40 139.39 C 131.97 140.15 132.24 141.11 133.01 141.54 C 133.77 141.97 134.73 141.69 135.16 140.93 L 135.65 140.05 C 136.08 139.28 135.81 138.32 135.04 137.89 C 134.28 137.47 133.32 137.74 132.89 138.50 Z M 132.40 139.38 L 131.91 140.25 C 131.48 141.01 131.75 141.97 132.51 142.40 C 133.27 142.83 134.23 142.57 134.66 141.81 L 135.15 140.94 C 135.58 140.18 135.32 139.21 134.56 138.78 C 133.80 138.35 132.83 138.62 132.40 139.38 Z M 131.92 140.24 L 131.43 141.09 C 131.00 141.84 131.26 142.81 132.01 143.24 C 132.77 143.68 133.73 143.42 134.16 142.66 L 134.65 141.82 C 135.09 141.06 134.83 140.10 134.07 139.66 C 133.32 139.23 132.35 139.49 131.92 140.24 Z M 131.44 141.08 L 130.92 141.95 C 130.48 142.70 130.73 143.67 131.48 144.11 C 132.23 144.55 133.20 144.30 133.64 143.55 L 134.15 142.68 C 134.60 141.93 134.35 140.96 133.60 140.52 C 132.85 140.08 131.88 140.33 131.44 141.08 Z M 130.94 141.94 L 130.40 142.82 C 129.95 143.57 130.19 144.53 130.93 144.98 C 131.68 145.43 132.64 145.19 133.09 144.45 L 133.63 143.57 C 134.08 142.82 133.84 141.86 133.09 141.41 C 132.35 140.96 131.38 141.20 130.94 141.94 Z M 130.41 142.81 L 129.88 143.66 C 129.43 144.40 129.66 145.37 130.39 145.83 C 131.13 146.28 132.10 146.05 132.56 145.32 L 133.08 144.46 C 133.54 143.73 133.31 142.76 132.57 142.30 C 131.83 141.85 130.87 142.07 130.41 142.81 Z M 129.89 143.65 L 129.37 144.48 C 128.91 145.21 129.13 146.18 129.86 146.64 C 130.59 147.11 131.56 146.89 132.02 146.15 L 132.55 145.33 C 133.01 144.59 132.79 143.62 132.06 143.16 C 131.32 142.70 130.35 142.92 129.89 143.65 Z M 129.38 144.47 L 128.86 145.29 C 128.39 146.01 128.61 146.98 129.33 147.45 C 130.06 147.92 131.03 147.70 131.50 146.97 L 132.02 146.16 C 132.48 145.43 132.27 144.46 131.54 144.00 C 130.81 143.53 129.84 143.74 129.38 144.47 Z M 128.86 145.28 L 128.32 146.12 C 127.85 146.85 128.06 147.82 128.79 148.28 C 129.52 148.75 130.48 148.54 130.95 147.82 L 131.49 146.98 C 131.96 146.25 131.75 145.28 131.03 144.81 C 130.30 144.34 129.33 144.55 128.86 145.28 Z M 128.33 146.12 L 127.77 146.96 C 127.30 147.69 127.51 148.66 128.23 149.13 C 128.96 149.60 129.93 149.39 130.40 148.67 L 130.95 147.82 C 131.42 147.10 131.21 146.13 130.49 145.66 C 129.76 145.19 128.80 145.39 128.33 146.12 Z M 127.78 146.96 L 127.23 147.80 C 126.76 148.52 126.96 149.49 127.68 149.96 C 128.41 150.44 129.38 150.23 129.85 149.51 L 130.40 148.67 C 130.87 147.95 130.67 146.98 129.94 146.51 C 129.22 146.04 128.25 146.24 127.78 146.96 Z M 127.23 147.80 L 126.69 148.63 C 126.21 149.35 126.42 150.32 127.14 150.79 C 127.86 151.26 128.83 151.06 129.30 150.34 L 129.85 149.51 C 130.32 148.79 130.12 147.82 129.40 147.35 C 128.68 146.88 127.71 147.08 127.23 147.80 Z M 126.69 148.63 L 126.15 149.45 C 125.67 150.17 125.87 151.14 126.59 151.61 C 127.31 152.09 128.28 151.89 128.75 151.17 L 129.30 150.34 C 129.77 149.62 129.57 148.66 128.85 148.18 C 128.13 147.71 127.17 147.90 126.69 148.63 Z M 126.15 149.45 L 125.58 150.30 C 125.11 151.02 125.30 151.99 126.02 152.47 C 126.74 152.94 127.71 152.75 128.19 152.03 L 128.75 151.17 C 129.23 150.45 129.03 149.48 128.31 149.01 C 127.59 148.53 126.62 148.73 126.15 149.45 Z M 125.58 150.30 L 125.02 151.15 C 124.55 151.86 124.75 152.83 125.46 153.31 C 126.18 153.79 127.15 153.59 127.63 152.87 L 128.19 152.03 C 128.66 151.31 128.47 150.34 127.75 149.86 C 127.03 149.39 126.06 149.58 125.58 150.30 Z M 125.02 151.15 L 124.48 151.97 C 124.00 152.69 124.20 153.66 124.92 154.14 C 125.64 154.61 126.61 154.42 127.08 153.70 L 127.63 152.87 C 128.10 152.15 127.91 151.18 127.19 150.71 C 126.47 150.23 125.50 150.43 125.02 151.15 Z M 124.48 151.98 L 123.94 152.79 C 123.47 153.51 123.67 154.48 124.39 154.95 C 125.11 155.43 126.08 155.23 126.55 154.51 L 127.08 153.69 C 127.56 152.97 127.36 152.00 126.64 151.53 C 125.92 151.06 124.95 151.26 124.48 151.98 Z M 123.94 152.80 L 123.38 153.66 C 122.91 154.38 123.11 155.35 123.83 155.82 C 124.56 156.29 125.52 156.08 125.99 155.36 L 126.55 154.50 C 127.02 153.78 126.82 152.81 126.10 152.34 C 125.37 151.87 124.41 152.07 123.94 152.80 Z M 123.37 153.67 L 122.82 154.52 C 122.36 155.25 122.57 156.21 123.29 156.68 C 124.02 157.14 124.98 156.93 125.45 156.21 L 126.00 155.35 C 126.46 154.63 126.25 153.66 125.53 153.20 C 124.80 152.73 123.84 152.94 123.37 153.67 Z M 122.82 154.53 L 122.29 155.37 C 121.83 156.10 122.05 157.06 122.78 157.52 C 123.51 157.98 124.47 157.76 124.93 157.03 L 125.46 156.20 C 125.92 155.47 125.70 154.50 124.97 154.04 C 124.24 153.58 123.27 153.80 122.82 154.53 Z M 122.28 155.39 L 121.77 156.21 C 121.32 156.94 121.55 157.90 122.29 158.35 C 123.02 158.81 123.98 158.58 124.43 157.84 L 124.94 157.02 C 125.39 156.29 125.16 155.32 124.42 154.87 C 123.69 154.42 122.73 154.65 122.28 155.39 Z M 121.76 156.23 L 121.24 157.10 C 120.80 157.84 121.04 158.80 121.78 159.24 C 122.53 159.68 123.48 159.44 123.92 158.70 L 124.44 157.82 C 124.89 157.08 124.64 156.12 123.90 155.68 C 123.16 155.24 122.20 155.49 121.76 156.23 Z M 121.23 157.12 L 120.73 157.99 C 120.30 158.74 120.56 159.69 121.31 160.12 C 122.05 160.55 123.01 160.29 123.44 159.54 L 123.94 158.68 C 124.37 157.93 124.11 156.97 123.36 156.54 C 122.61 156.12 121.66 156.37 121.23 157.12 Z M 120.72 158.01 L 120.24 158.87 C 119.82 159.63 120.09 160.58 120.85 161.00 C 121.60 161.41 122.55 161.14 122.97 160.39 L 123.45 159.52 C 123.87 158.77 123.59 157.82 122.84 157.40 C 122.09 156.98 121.14 157.26 120.72 158.01 Z M 120.23 158.89 L 119.77 159.76 C 119.36 160.52 119.65 161.46 120.41 161.87 C 121.17 162.28 122.11 161.99 122.52 161.23 L 122.98 160.37 C 123.39 159.61 123.10 158.66 122.34 158.25 C 121.58 157.85 120.64 158.13 120.23 158.89 Z M 119.75 159.78 L 119.31 160.65 C 118.92 161.42 119.22 162.36 119.99 162.75 C 120.76 163.14 121.70 162.84 122.09 162.07 L 122.53 161.20 C 122.93 160.43 122.62 159.49 121.85 159.10 C 121.08 158.71 120.14 159.02 119.75 159.78 Z M 119.29 160.70 L 118.87 161.60 C 118.50 162.38 118.84 163.31 119.62 163.67 C 120.40 164.04 121.33 163.70 121.69 162.92 L 122.11 162.02 C 122.48 161.24 122.14 160.31 121.36 159.95 C 120.58 159.58 119.65 159.92 119.29 160.70 Z M 118.84 161.66 L 118.45 162.61 C 118.12 163.41 118.49 164.32 119.29 164.65 C 120.09 164.98 121.00 164.60 121.33 163.80 L 121.72 162.86 C 122.05 162.06 121.67 161.15 120.88 160.82 C 120.08 160.49 119.17 160.87 118.84 161.66 Z M 118.42 162.68 L 118.09 163.61 C 117.80 164.43 118.22 165.32 119.03 165.61 C 119.85 165.90 120.74 165.47 121.03 164.66 L 121.36 163.73 C 121.65 162.92 121.22 162.03 120.41 161.74 C 119.60 161.45 118.71 161.87 118.42 162.68 Z M 118.07 163.68 L 117.78 164.62 C 117.52 165.44 117.98 166.31 118.80 166.57 C 119.63 166.82 120.50 166.36 120.76 165.54 L 121.05 164.60 C 121.30 163.78 120.84 162.90 120.02 162.65 C 119.19 162.39 118.32 162.85 118.07 163.68 Z M 117.76 164.66 L 117.49 165.63 C 117.26 166.46 117.74 167.32 118.57 167.55 C 119.40 167.78 120.26 167.30 120.50 166.47 L 120.77 165.50 C 121.00 164.67 120.52 163.81 119.69 163.57 C 118.86 163.34 118.00 163.83 117.76 164.66 Z M 117.48 165.65 L 117.22 166.64 C 117.00 167.47 117.50 168.33 118.34 168.55 C 119.17 168.77 120.02 168.27 120.24 167.44 L 120.50 166.45 C 120.72 165.61 120.23 164.76 119.39 164.54 C 118.56 164.32 117.70 164.82 117.48 165.65 Z M 117.22 166.65 L 117.11 167.10 C 116.89 167.93 117.39 168.78 118.23 169.00 C 119.06 169.21 119.91 168.71 120.13 167.88 L 120.24 167.43 C 120.46 166.59 119.96 165.74 119.12 165.53 C 118.29 165.31 117.44 165.81 117.22 166.65 Z"
      fill="black"
      fill-rule="nonzero" /><path d="M 145.47 135.38 L 145.22 136.41 C 144.99 137.33 145.56 138.25 146.48 138.48 C 147.39 138.70 148.32 138.14 148.54 137.22 L 148.79 136.18 C 149.02 135.27 148.45 134.34 147.53 134.12 C 146.62 133.90 145.69 134.46 145.47 135.38 Z M 145.20 136.41 L 144.96 137.43 C 144.74 138.36 145.31 139.29 146.24 139.51 C 147.16 139.73 148.09 139.16 148.32 138.23 L 148.56 137.21 C 148.78 136.29 148.21 135.36 147.28 135.14 C 146.35 134.91 145.42 135.49 145.20 136.41 Z M 144.94 137.44 L 144.71 138.42 C 144.50 139.36 145.08 140.29 146.02 140.51 C 146.95 140.73 147.89 140.14 148.10 139.21 L 148.33 138.22 C 148.55 137.29 147.97 136.35 147.03 136.14 C 146.09 135.92 145.16 136.50 144.94 137.44 Z M 144.70 138.44 L 144.49 139.37 C 144.28 140.32 144.88 141.25 145.83 141.46 C 146.77 141.67 147.71 141.07 147.92 140.13 L 148.12 139.19 C 148.33 138.24 147.73 137.31 146.79 137.10 C 145.84 136.89 144.90 137.49 144.70 138.44 Z M 144.47 139.40 L 144.28 140.34 C 144.09 141.30 144.71 142.23 145.67 142.42 C 146.62 142.61 147.55 142.00 147.75 141.04 L 147.94 140.10 C 148.13 139.14 147.51 138.21 146.55 138.02 C 145.59 137.82 144.66 138.44 144.47 139.40 Z M 144.27 140.39 L 144.09 141.44 C 143.92 142.40 144.57 143.32 145.54 143.48 C 146.50 143.65 147.42 143.00 147.58 142.04 L 147.76 140.99 C 147.93 140.03 147.28 139.11 146.31 138.94 C 145.35 138.78 144.43 139.43 144.27 140.39 Z M 144.08 141.50 L 143.95 142.47 C 143.82 143.44 144.49 144.33 145.46 144.46 C 146.43 144.59 147.33 143.91 147.46 142.94 L 147.59 141.97 C 147.72 141.00 147.04 140.11 146.07 139.98 C 145.10 139.85 144.21 140.53 144.08 141.50 Z M 143.94 142.53 L 143.84 143.46 C 143.75 144.44 144.45 145.31 145.43 145.41 C 146.40 145.51 147.27 144.80 147.37 143.82 L 147.47 142.88 C 147.57 141.91 146.86 141.04 145.88 140.94 C 144.91 140.84 144.04 141.55 143.94 142.53 Z M 143.84 143.51 L 143.77 144.41 C 143.70 145.39 144.43 146.24 145.41 146.31 C 146.38 146.39 147.23 145.65 147.31 144.68 L 147.38 143.77 C 147.45 142.80 146.72 141.95 145.74 141.88 C 144.76 141.80 143.91 142.54 143.84 143.51 Z M 143.77 144.45 L 143.72 145.38 C 143.67 146.36 144.42 147.19 145.40 147.24 C 146.37 147.29 147.21 146.54 147.26 145.57 L 147.31 144.64 C 147.36 143.66 146.61 142.83 145.63 142.78 C 144.66 142.72 143.82 143.47 143.77 144.45 Z M 143.72 145.41 L 143.68 146.41 C 143.65 147.39 144.42 148.21 145.39 148.25 C 146.37 148.28 147.19 147.52 147.23 146.54 L 147.26 145.54 C 147.30 144.56 146.53 143.74 145.55 143.70 C 144.58 143.67 143.75 144.43 143.72 145.41 Z M 143.68 146.44 L 143.66 147.55 C 143.64 148.53 144.42 149.34 145.39 149.36 C 146.37 149.38 147.18 148.60 147.20 147.62 L 147.23 146.51 C 147.25 145.54 146.47 144.73 145.49 144.70 C 144.52 144.68 143.70 145.46 143.68 146.44 Z M 143.66 147.56 L 143.65 148.56 C 143.64 149.53 144.42 150.34 145.40 150.35 C 146.38 150.36 147.18 149.58 147.19 148.60 L 147.20 147.61 C 147.21 146.63 146.43 145.83 145.45 145.82 C 144.48 145.80 143.67 146.59 143.66 147.56 Z M 143.65 148.57 L 143.65 149.57 C 143.64 150.54 144.43 151.34 145.40 151.34 C 146.38 151.35 147.17 150.56 147.18 149.59 L 147.19 148.59 C 147.19 147.61 146.41 146.82 145.43 146.81 C 144.46 146.81 143.66 147.59 143.65 148.57 Z M 143.65 149.58 L 143.65 150.60 C 143.65 151.58 144.44 152.37 145.41 152.37 C 146.38 152.37 147.17 151.58 147.17 150.61 L 147.18 149.58 C 147.18 148.61 146.39 147.82 145.42 147.82 C 144.44 147.81 143.65 148.60 143.65 149.58 Z M 143.65 150.61 L 143.66 151.64 C 143.66 152.61 144.45 153.39 145.42 153.39 C 146.39 153.39 147.18 152.60 147.17 151.63 L 147.17 150.60 C 147.17 149.63 146.38 148.84 145.41 148.85 C 144.43 148.85 143.65 149.64 143.65 150.61 Z M 143.66 151.65 L 143.67 152.65 C 143.68 153.61 144.47 154.39 145.44 154.38 C 146.41 154.37 147.19 153.58 147.18 152.61 L 147.17 151.62 C 147.16 150.65 146.37 149.87 145.40 149.88 C 144.43 149.89 143.65 150.68 143.66 151.65 Z M 143.68 152.66 L 143.70 153.72 C 143.71 154.69 144.51 155.46 145.47 155.44 C 146.43 155.42 147.20 154.63 147.19 153.67 L 147.17 152.60 C 147.15 151.64 146.36 150.87 145.40 150.89 C 144.43 150.90 143.67 151.70 143.68 152.66 Z M 143.72 153.75 L 143.75 154.78 C 143.77 155.73 144.57 156.48 145.52 156.46 C 146.48 156.43 147.23 155.63 147.20 154.68 L 147.17 153.65 C 147.14 152.69 146.35 151.94 145.39 151.97 C 144.44 152.00 143.69 152.79 143.72 153.75 Z M 143.76 154.81 L 143.81 155.79 C 143.86 156.74 144.66 157.46 145.61 157.41 C 146.55 157.37 147.28 156.56 147.23 155.62 L 147.18 154.64 C 147.13 153.70 146.33 152.97 145.39 153.02 C 144.44 153.07 143.72 153.87 143.76 154.81 Z M 143.83 155.84 L 143.91 156.78 C 143.98 157.72 144.80 158.41 145.73 158.34 C 146.66 158.26 147.36 157.45 147.28 156.51 L 147.21 155.57 C 147.14 154.64 146.32 153.94 145.39 154.02 C 144.46 154.09 143.76 154.91 143.83 155.84 Z M 143.93 156.84 L 144.04 157.77 C 144.15 158.69 144.98 159.35 145.90 159.25 C 146.82 159.14 147.48 158.31 147.37 157.39 L 147.26 156.46 C 147.16 155.54 146.32 154.88 145.40 154.98 C 144.48 155.09 143.83 155.92 143.93 156.84 Z M 144.06 157.84 L 144.21 158.78 C 144.35 159.68 145.20 160.30 146.11 160.16 C 147.01 160.02 147.63 159.17 147.49 158.27 L 147.35 157.33 C 147.21 156.42 146.36 155.80 145.45 155.94 C 144.54 156.08 143.92 156.93 144.06 157.84 Z M 144.23 158.84 L 144.42 159.80 C 144.60 160.69 145.46 161.28 146.35 161.10 C 147.25 160.93 147.83 160.06 147.66 159.17 L 147.47 158.21 C 147.29 157.31 146.43 156.73 145.54 156.91 C 144.64 157.08 144.06 157.94 144.23 158.84 Z M 144.45 159.86 L 144.68 160.86 C 144.88 161.74 145.76 162.28 146.64 162.08 C 147.52 161.87 148.07 161.00 147.86 160.12 L 147.63 159.12 C 147.43 158.24 146.55 157.69 145.67 157.89 C 144.79 158.10 144.24 158.98 144.45 159.86 Z M 144.70 160.90 L 144.97 161.92 C 145.20 162.78 146.09 163.30 146.96 163.07 C 147.82 162.84 148.34 161.95 148.11 161.09 L 147.84 160.07 C 147.61 159.21 146.72 158.69 145.86 158.92 C 144.99 159.15 144.48 160.04 144.70 160.90 Z M 145.00 161.96 L 145.26 162.87 C 145.51 163.73 146.41 164.22 147.26 163.97 C 148.12 163.72 148.60 162.82 148.35 161.97 L 148.09 161.05 C 147.84 160.20 146.94 159.71 146.09 159.96 C 145.23 160.21 144.75 161.10 145.00 161.96 Z M 145.28 162.91 L 145.58 163.85 C 145.85 164.70 146.75 165.16 147.60 164.90 C 148.44 164.63 148.90 163.73 148.64 162.88 L 148.34 161.94 C 148.07 161.09 147.17 160.63 146.33 160.90 C 145.48 161.16 145.02 162.06 145.28 162.91 Z M 145.60 163.88 L 145.93 164.85 C 146.22 165.68 147.12 166.12 147.96 165.84 C 148.79 165.55 149.23 164.65 148.95 163.81 L 148.62 162.85 C 148.33 162.02 147.43 161.58 146.59 161.86 C 145.76 162.15 145.32 163.05 145.60 163.88 Z M 145.95 164.88 L 146.31 165.84 C 146.61 166.66 147.52 167.08 148.34 166.78 C 149.16 166.48 149.58 165.57 149.28 164.75 L 148.93 163.78 C 148.62 162.96 147.71 162.54 146.89 162.84 C 146.07 163.15 145.65 164.06 145.95 164.88 Z M 146.33 165.88 L 146.71 166.83 C 147.03 167.64 147.95 168.03 148.75 167.71 C 149.56 167.39 149.96 166.47 149.64 165.66 L 149.26 164.71 C 148.94 163.90 148.02 163.51 147.21 163.83 C 146.40 164.15 146.01 165.07 146.33 165.88 Z M 146.73 166.86 L 147.13 167.80 C 147.47 168.60 148.39 168.97 149.19 168.62 C 149.99 168.28 150.36 167.36 150.02 166.56 L 149.62 165.63 C 149.28 164.83 148.35 164.46 147.55 164.80 C 146.76 165.14 146.39 166.07 146.73 166.86 Z M 147.14 167.83 L 147.56 168.74 C 147.92 169.53 148.85 169.88 149.64 169.52 C 150.43 169.16 150.78 168.23 150.42 167.44 L 150.00 166.53 C 149.64 165.74 148.71 165.39 147.92 165.75 C 147.13 166.11 146.79 167.04 147.14 167.83 Z M 147.57 168.77 L 148.00 169.67 C 148.38 170.45 149.31 170.78 150.09 170.41 C 150.87 170.04 151.20 169.10 150.83 168.32 L 150.40 167.42 C 150.03 166.64 149.10 166.31 148.32 166.68 C 147.53 167.05 147.20 167.99 147.57 168.77 Z M 148.01 169.68 L 148.45 170.57 C 148.83 171.35 149.77 171.67 150.54 171.29 C 151.32 170.91 151.64 169.97 151.26 169.19 L 150.82 168.30 C 150.44 167.53 149.50 167.21 148.73 167.59 C 147.95 167.97 147.63 168.91 148.01 169.68 Z M 148.46 170.58 L 148.90 171.47 C 149.28 172.24 150.22 172.55 150.99 172.17 C 151.76 171.78 152.08 170.84 151.69 170.07 L 151.25 169.19 C 150.87 168.41 149.93 168.10 149.16 168.49 C 148.39 168.87 148.07 169.81 148.46 170.58 Z"
      fill="black"
      fill-rule="nonzero" /><path d="M 146.64 137.88 L 147.38 137.38 C 148.17 136.84 148.38 135.77 147.84 134.98 C 147.31 134.19 146.23 133.98 145.44 134.51 L 144.70 135.01 C 143.91 135.55 143.71 136.62 144.24 137.41 C 144.77 138.20 145.85 138.41 146.64 137.88 Z M 147.34 137.41 L 148.14 136.90 C 148.95 136.39 149.19 135.32 148.68 134.51 C 148.17 133.70 147.10 133.46 146.29 133.97 L 145.49 134.48 C 144.68 134.99 144.44 136.06 144.95 136.87 C 145.46 137.68 146.53 137.92 147.34 137.41 Z M 148.06 136.96 L 148.99 136.44 C 149.83 135.97 150.13 134.91 149.67 134.07 C 149.20 133.23 148.14 132.93 147.30 133.40 L 146.37 133.92 C 145.53 134.39 145.23 135.44 145.70 136.28 C 146.16 137.12 147.22 137.42 148.06 136.96 Z M 148.91 136.49 L 149.84 136.03 C 150.71 135.61 151.07 134.57 150.65 133.71 C 150.23 132.84 149.18 132.48 148.32 132.90 L 147.39 133.35 C 146.52 133.77 146.16 134.81 146.58 135.68 C 147.00 136.54 148.04 136.91 148.91 136.49 Z M 149.77 136.07 L 150.66 135.68 C 151.54 135.30 151.95 134.27 151.57 133.39 C 151.18 132.50 150.16 132.10 149.27 132.48 L 148.39 132.87 C 147.50 133.25 147.10 134.28 147.48 135.16 C 147.86 136.04 148.89 136.45 149.77 136.07 Z M 150.61 135.70 L 151.56 135.33 C 152.45 134.98 152.89 133.96 152.54 133.07 C 152.18 132.17 151.17 131.73 150.27 132.08 L 149.33 132.46 C 148.43 132.81 147.99 133.83 148.34 134.72 C 148.70 135.62 149.71 136.06 150.61 135.70 Z M 151.50 135.35 L 152.48 135.00 C 153.39 134.67 153.86 133.68 153.54 132.77 C 153.21 131.86 152.21 131.39 151.31 131.71 L 150.33 132.06 C 149.42 132.39 148.95 133.39 149.27 134.30 C 149.60 135.20 150.60 135.68 151.50 135.35 Z M 152.43 135.02 L 153.40 134.71 C 154.32 134.41 154.83 133.43 154.53 132.51 C 154.24 131.59 153.26 131.09 152.34 131.38 L 151.36 131.69 C 150.44 131.99 149.94 132.97 150.23 133.89 C 150.53 134.81 151.51 135.31 152.43 135.02 Z M 153.34 134.73 L 154.31 134.46 C 155.24 134.20 155.78 133.24 155.53 132.31 C 155.27 131.38 154.31 130.83 153.38 131.09 L 152.40 131.36 C 151.48 131.62 150.93 132.58 151.19 133.51 C 151.45 134.44 152.41 134.98 153.34 134.73 Z M 154.23 134.48 L 155.19 134.26 C 156.13 134.04 156.72 133.11 156.50 132.17 C 156.29 131.23 155.35 130.64 154.41 130.85 L 153.45 131.07 C 152.51 131.29 151.93 132.22 152.14 133.16 C 152.36 134.10 153.29 134.69 154.23 134.48 Z M 155.11 134.27 L 156.06 134.10 C 157.01 133.93 157.65 133.03 157.48 132.08 C 157.31 131.13 156.40 130.50 155.45 130.67 L 154.49 130.84 C 153.54 131.01 152.91 131.91 153.08 132.86 C 153.25 133.81 154.16 134.44 155.11 134.27 Z M 155.99 134.12 L 156.97 133.99 C 157.93 133.86 158.60 132.98 158.47 132.02 C 158.34 131.07 157.47 130.40 156.51 130.52 L 155.53 130.65 C 154.57 130.78 153.90 131.66 154.03 132.61 C 154.15 133.57 155.03 134.24 155.99 134.12 Z M 156.91 133.99 L 157.95 133.89 C 158.91 133.80 159.61 132.95 159.52 131.99 C 159.43 131.03 158.58 130.33 157.62 130.42 L 156.58 130.52 C 155.62 130.61 154.91 131.46 155.00 132.42 C 155.09 133.38 155.95 134.08 156.91 133.99 Z M 157.89 133.90 L 158.90 133.83 C 159.86 133.77 160.59 132.94 160.53 131.98 C 160.47 131.01 159.63 130.28 158.67 130.35 L 157.67 130.41 C 156.70 130.48 155.98 131.31 156.04 132.27 C 156.10 133.23 156.93 133.96 157.89 133.90 Z M 158.85 133.84 L 159.88 133.80 C 160.85 133.77 161.60 132.96 161.57 131.99 C 161.54 131.03 160.73 130.27 159.76 130.31 L 158.72 130.34 C 157.76 130.38 157.01 131.19 157.04 132.15 C 157.07 133.11 157.88 133.87 158.85 133.84 Z M 159.82 133.80 L 160.86 133.80 C 161.82 133.81 162.60 133.03 162.61 132.06 C 162.61 131.10 161.83 130.31 160.87 130.31 L 159.83 130.31 C 158.86 130.30 158.08 131.08 158.08 132.05 C 158.07 133.01 158.85 133.80 159.82 133.80 Z M 160.77 133.80 L 161.77 133.85 C 162.73 133.90 163.56 133.16 163.61 132.20 C 163.66 131.24 162.91 130.41 161.95 130.36 L 160.95 130.31 C 159.99 130.26 159.17 131.00 159.12 131.97 C 159.07 132.93 159.81 133.75 160.77 133.80 Z M 161.65 133.84 L 162.58 133.95 C 163.54 134.07 164.41 133.38 164.52 132.42 C 164.64 131.47 163.95 130.60 162.99 130.48 L 162.07 130.37 C 161.11 130.26 160.24 130.94 160.13 131.90 C 160.01 132.86 160.70 133.73 161.65 133.84 Z M 162.40 133.92 L 163.37 134.14 C 164.31 134.35 165.24 133.76 165.46 132.82 C 165.67 131.88 165.08 130.95 164.14 130.73 L 163.17 130.52 C 162.23 130.30 161.30 130.89 161.08 131.83 C 160.87 132.77 161.46 133.71 162.40 133.92 Z M 163.12 134.06 L 164.00 134.41 C 164.89 134.76 165.91 134.32 166.26 133.42 C 166.61 132.52 166.17 131.51 165.27 131.16 L 164.39 130.81 C 163.49 130.46 162.48 130.90 162.13 131.80 C 161.78 132.70 162.22 133.71 163.12 134.06 Z M 163.75 134.28 L 164.56 134.77 C 165.39 135.26 166.46 134.98 166.95 134.16 C 167.44 133.33 167.17 132.26 166.34 131.76 L 165.52 131.28 C 164.69 130.79 163.62 131.06 163.13 131.89 C 162.64 132.72 162.92 133.79 163.75 134.28 Z M 164.37 134.64 L 165.19 135.28 C 165.95 135.88 167.04 135.74 167.64 134.99 C 168.23 134.23 168.10 133.13 167.35 132.54 L 166.53 131.90 C 165.77 131.30 164.68 131.43 164.08 132.19 C 163.48 132.94 163.62 134.04 164.37 134.64 Z M 165.08 135.19 L 165.80 135.85 C 166.50 136.51 167.61 136.47 168.26 135.76 C 168.92 135.06 168.88 133.95 168.17 133.30 L 167.45 132.63 C 166.75 131.98 165.65 132.02 164.99 132.72 C 164.33 133.43 164.38 134.53 165.08 135.19 Z M 165.74 135.79 L 166.40 136.46 C 167.07 137.15 168.17 137.16 168.86 136.49 C 169.55 135.82 169.56 134.72 168.89 134.03 L 168.23 133.36 C 167.56 132.67 166.45 132.66 165.77 133.33 C 165.08 134.00 165.07 135.11 165.74 135.79 Z M 166.35 136.42 L 167.02 137.16 C 167.67 137.87 168.77 137.92 169.48 137.27 C 170.19 136.63 170.25 135.53 169.60 134.82 L 168.93 134.08 C 168.28 133.36 167.18 133.31 166.47 133.96 C 165.76 134.60 165.71 135.70 166.35 136.42 Z M 166.98 137.11 L 167.65 137.90 C 168.27 138.63 169.37 138.72 170.10 138.10 C 170.84 137.48 170.93 136.39 170.31 135.65 L 169.64 134.86 C 169.02 134.13 167.92 134.04 167.19 134.66 C 166.46 135.28 166.36 136.38 166.98 137.11 Z M 167.62 137.85 L 168.27 138.68 C 168.86 139.43 169.95 139.56 170.71 138.97 C 171.46 138.37 171.59 137.28 171.00 136.53 L 170.35 135.70 C 169.75 134.95 168.66 134.82 167.91 135.41 C 167.15 136.01 167.02 137.10 167.62 137.85 Z M 168.23 138.62 L 168.84 139.47 C 169.41 140.24 170.49 140.41 171.27 139.85 C 172.04 139.29 172.21 138.20 171.65 137.42 L 171.04 136.58 C 170.47 135.81 169.39 135.64 168.61 136.20 C 167.83 136.76 167.66 137.85 168.23 138.62 Z M 168.80 139.40 L 169.41 140.32 C 169.94 141.12 171.01 141.34 171.81 140.81 C 172.61 140.28 172.83 139.20 172.30 138.41 L 171.69 137.49 C 171.16 136.69 170.09 136.47 169.29 137.00 C 168.49 137.53 168.27 138.61 168.80 139.40 Z M 169.37 140.26 L 169.93 141.19 C 170.42 142.01 171.49 142.27 172.31 141.78 C 173.12 141.29 173.39 140.22 172.90 139.40 L 172.34 138.47 C 171.85 137.65 170.78 137.39 169.96 137.88 C 169.14 138.37 168.88 139.44 169.37 140.26 Z M 169.90 141.13 L 170.40 142.03 C 170.86 142.87 171.91 143.17 172.74 142.71 C 173.58 142.25 173.88 141.20 173.42 140.37 L 172.93 139.46 C 172.47 138.63 171.42 138.32 170.58 138.78 C 169.75 139.24 169.44 140.29 169.90 141.13 Z M 170.38 141.98 L 170.82 142.85 C 171.25 143.69 172.29 144.03 173.13 143.60 C 173.98 143.17 174.32 142.13 173.89 141.28 L 173.45 140.42 C 173.02 139.57 171.98 139.23 171.13 139.66 C 170.28 140.10 169.94 141.13 170.38 141.98 Z M 170.80 142.81 L 171.19 143.62 C 171.60 144.48 172.63 144.84 173.48 144.43 C 174.34 144.02 174.70 142.99 174.29 142.13 L 173.90 141.32 C 173.49 140.46 172.47 140.10 171.61 140.51 C 170.75 140.92 170.39 141.95 170.80 142.81 Z M 171.18 143.59 L 171.59 144.50 C 171.99 145.36 173.00 145.74 173.87 145.35 C 174.73 144.95 175.11 143.93 174.72 143.07 L 174.30 142.16 C 173.91 141.30 172.89 140.92 172.03 141.31 C 171.16 141.71 170.78 142.73 171.18 143.59 Z M 171.58 144.47 L 172.01 145.44 C 172.39 146.31 173.40 146.71 174.26 146.33 C 175.13 145.95 175.53 144.94 175.15 144.07 L 174.73 143.10 C 174.35 142.23 173.34 141.83 172.47 142.21 C 171.60 142.59 171.21 143.60 171.58 144.47 Z M 172.00 145.41 L 172.36 146.29 C 172.72 147.17 173.72 147.58 174.59 147.22 C 175.47 146.86 175.88 145.86 175.53 144.99 L 175.16 144.11 C 174.80 143.23 173.80 142.82 172.93 143.18 C 172.05 143.54 171.64 144.54 172.00 145.41 Z M 172.35 146.26 L 172.68 147.11 C 173.02 147.99 174.01 148.42 174.89 148.08 C 175.77 147.74 176.21 146.75 175.86 145.87 L 175.53 145.02 C 175.19 144.14 174.20 143.71 173.32 144.05 C 172.45 144.39 172.01 145.38 172.35 146.26 Z M 172.67 147.08 L 173.01 148.00 C 173.34 148.88 174.32 149.33 175.20 149.00 C 176.09 148.68 176.54 147.70 176.21 146.81 L 175.87 145.90 C 175.54 145.01 174.56 144.56 173.68 144.89 C 172.80 145.22 172.35 146.20 172.67 147.08 Z M 173.01 147.97 L 173.34 148.91 C 173.65 149.80 174.63 150.26 175.51 149.95 C 176.40 149.63 176.86 148.66 176.55 147.77 L 176.22 146.84 C 175.90 145.95 174.93 145.49 174.04 145.80 C 173.16 146.11 172.69 147.09 173.01 147.97 Z M 173.33 148.89 L 173.66 149.85 C 173.97 150.74 174.93 151.21 175.82 150.91 C 176.71 150.60 177.18 149.64 176.88 148.75 L 176.55 147.79 C 176.25 146.90 175.28 146.43 174.39 146.73 C 173.51 147.04 173.03 148.00 173.33 148.89 Z M 173.66 149.83 L 173.97 150.77 C 174.27 151.66 175.23 152.14 176.12 151.85 C 177.01 151.55 177.49 150.59 177.19 149.70 L 176.88 148.76 C 176.59 147.88 175.63 147.39 174.74 147.69 C 173.85 147.98 173.36 148.94 173.66 149.83 Z M 173.97 150.76 L 174.28 151.70 C 174.56 152.59 175.52 153.08 176.41 152.79 C 177.30 152.50 177.79 151.55 177.50 150.66 L 177.19 149.72 C 176.90 148.83 175.95 148.34 175.06 148.63 C 174.17 148.92 173.68 149.87 173.97 150.76 Z M 174.27 151.69 L 174.58 152.65 C 174.86 153.54 175.81 154.03 176.70 153.75 C 177.59 153.47 178.09 152.52 177.80 151.63 L 177.50 150.67 C 177.22 149.78 176.27 149.28 175.38 149.57 C 174.49 149.85 173.99 150.80 174.27 151.69 Z M 174.58 152.64 L 174.88 153.62 C 175.16 154.51 176.10 155.01 176.99 154.73 C 177.88 154.46 178.38 153.51 178.11 152.62 L 177.80 151.64 C 177.53 150.75 176.58 150.25 175.69 150.53 C 174.80 150.80 174.30 151.75 174.58 152.64 Z M 174.88 153.61 L 175.18 154.58 C 175.45 155.47 176.39 155.97 177.28 155.70 C 178.17 155.43 178.67 154.49 178.40 153.60 L 178.11 152.63 C 177.84 151.74 176.90 151.24 176.01 151.51 C 175.12 151.78 174.61 152.72 174.88 153.61 Z M 175.18 154.57 L 175.47 155.54 C 175.73 156.43 176.67 156.93 177.56 156.67 C 178.44 156.41 178.95 155.47 178.69 154.58 L 178.40 153.61 C 178.13 152.73 177.20 152.22 176.31 152.48 C 175.42 152.75 174.92 153.68 175.18 154.57 Z M 175.47 155.53 L 175.75 156.48 C 176.01 157.36 176.93 157.87 177.82 157.61 C 178.71 157.35 179.22 156.43 178.96 155.54 L 178.68 154.60 C 178.42 153.71 177.50 153.20 176.61 153.46 C 175.73 153.72 175.22 154.64 175.47 155.53 Z M 175.75 156.46 L 176.03 157.44 C 176.28 158.32 177.20 158.84 178.09 158.58 C 178.97 158.33 179.48 157.41 179.23 156.53 L 178.95 155.55 C 178.70 154.67 177.78 154.16 176.90 154.41 C 176.01 154.66 175.50 155.58 175.75 156.46 Z M 176.03 157.42 L 176.30 158.39 C 176.54 159.28 177.45 159.80 178.34 159.55 C 179.22 159.31 179.74 158.40 179.50 157.52 L 179.23 156.54 C 178.99 155.66 178.07 155.14 177.19 155.38 C 176.31 155.63 175.79 156.54 176.03 157.42 Z M 176.30 158.37 L 176.55 159.32 C 176.78 160.20 177.68 160.73 178.56 160.50 C 179.45 160.27 179.97 159.37 179.74 158.48 L 179.50 157.54 C 179.27 156.65 178.36 156.13 177.48 156.36 C 176.60 156.59 176.07 157.49 176.30 158.37 Z M 176.55 159.29 L 176.77 160.19 C 176.98 161.08 177.88 161.62 178.76 161.40 C 179.64 161.18 180.18 160.29 179.97 159.41 L 179.74 158.51 C 179.53 157.63 178.64 157.08 177.75 157.30 C 176.87 157.52 176.33 158.41 176.55 159.29 Z M 176.77 160.16 L 176.96 161.05 C 177.16 161.93 178.04 162.49 178.92 162.29 C 179.81 162.09 180.36 161.21 180.17 160.33 L 179.97 159.44 C 179.77 158.56 178.89 158.00 178.01 158.20 C 177.12 158.40 176.57 159.28 176.77 160.16 Z M 176.96 161.00 L 177.15 161.98 C 177.33 162.87 178.19 163.44 179.07 163.27 C 179.96 163.09 180.54 162.23 180.36 161.35 L 180.17 160.37 C 179.99 159.49 179.14 158.91 178.25 159.08 C 177.36 159.26 176.79 160.12 176.96 161.00 Z M 177.15 161.94 L 177.34 163.06 C 177.49 163.94 178.33 164.54 179.22 164.39 C 180.11 164.24 180.70 163.40 180.55 162.52 L 180.36 161.39 C 180.21 160.51 179.37 159.91 178.49 160.06 C 177.60 160.21 177.00 161.05 177.15 161.94 Z M 177.34 163.02 L 177.47 163.93 C 177.60 164.82 178.43 165.43 179.32 165.30 C 180.20 165.17 180.82 164.35 180.69 163.46 L 180.55 162.55 C 180.42 161.66 179.60 161.05 178.71 161.18 C 177.82 161.31 177.21 162.13 177.34 163.02 Z M 177.47 163.91 L 177.60 164.87 C 177.72 165.76 178.53 166.38 179.42 166.26 C 180.31 166.15 180.93 165.33 180.81 164.44 L 180.69 163.48 C 180.57 162.60 179.76 161.97 178.87 162.09 C 177.98 162.21 177.36 163.02 177.47 163.91 Z M 177.60 164.85 L 177.72 165.86 C 177.83 166.75 178.63 167.38 179.52 167.27 C 180.41 167.17 181.04 166.36 180.93 165.48 L 180.81 164.46 C 180.71 163.58 179.90 162.94 179.01 163.05 C 178.13 163.16 177.49 163.96 177.60 164.85 Z M 177.72 165.84 L 177.84 166.88 C 177.93 167.77 178.73 168.41 179.61 168.31 C 180.50 168.22 181.14 167.42 181.04 166.54 L 180.93 165.49 C 180.84 164.61 180.04 163.97 179.16 164.06 C 178.27 164.16 177.63 164.95 177.72 165.84 Z M 177.84 166.86 L 177.94 167.91 C 178.02 168.80 178.81 169.45 179.69 169.36 C 180.58 169.28 181.23 168.49 181.14 167.60 L 181.04 166.56 C 180.96 165.67 180.17 165.02 179.29 165.11 C 178.40 165.19 177.75 165.98 177.84 166.86 Z M 177.94 167.89 L 178.03 168.93 C 178.10 169.82 178.88 170.47 179.76 170.40 C 180.64 170.33 181.30 169.55 181.23 168.67 L 181.14 167.62 C 181.07 166.74 180.29 166.08 179.41 166.16 C 178.52 166.23 177.87 167.01 177.94 167.89 Z M 178.03 168.91 L 178.10 169.93 C 178.16 170.81 178.92 171.48 179.81 171.42 C 180.69 171.36 181.35 170.60 181.29 169.71 L 181.22 168.69 C 181.16 167.81 180.40 167.14 179.52 167.20 C 178.64 167.26 177.97 168.03 178.03 168.91 Z M 178.10 169.91 L 178.16 170.91 C 178.20 171.79 178.95 172.46 179.83 172.42 C 180.71 172.37 181.39 171.62 181.34 170.74 L 181.29 169.74 C 181.24 168.86 180.49 168.18 179.61 168.23 C 178.73 168.28 178.06 169.03 178.10 169.91 Z M 178.16 170.88 L 178.20 171.86 C 178.23 172.74 178.96 173.43 179.84 173.40 C 180.72 173.36 181.40 172.63 181.37 171.75 L 181.34 170.77 C 181.31 169.89 180.57 169.21 179.69 169.24 C 178.82 169.27 178.13 170.00 178.16 170.88 Z M 178.20 171.83 L 178.22 172.79 C 178.23 173.67 178.95 174.36 179.82 174.35 C 180.70 174.34 181.39 173.62 181.38 172.74 L 181.37 171.78 C 181.35 170.91 180.63 170.21 179.76 170.22 C 178.89 170.24 178.19 170.96 178.20 171.83 Z M 178.22 172.75 L 178.21 173.80 C 178.20 174.67 178.90 175.38 179.77 175.39 C 180.64 175.40 181.36 174.70 181.37 173.83 L 181.38 172.78 C 181.39 171.91 180.69 171.20 179.81 171.19 C 178.94 171.18 178.23 171.88 178.22 172.75 Z M 178.22 173.72 L 178.15 174.75 C 178.10 175.62 178.76 176.37 179.63 176.42 C 180.50 176.47 181.24 175.81 181.30 174.95 L 181.36 173.91 C 181.41 173.04 180.75 172.30 179.88 172.24 C 179.02 172.19 178.27 172.85 178.22 173.72 Z M 178.17 174.61 L 178.02 175.60 C 177.89 176.45 178.48 177.25 179.34 177.38 C 180.20 177.51 181.00 176.92 181.13 176.07 L 181.28 175.09 C 181.41 174.23 180.82 173.43 179.96 173.30 C 179.10 173.17 178.30 173.76 178.17 174.61 Z M 178.07 175.39 L 177.80 176.30 C 177.56 177.13 178.04 178.00 178.87 178.24 C 179.70 178.49 180.57 178.01 180.81 177.18 L 181.08 176.27 C 181.32 175.44 180.85 174.57 180.02 174.33 C 179.19 174.08 178.32 174.56 178.07 175.39 Z M 177.91 176.03 L 177.49 176.87 C 177.10 177.64 177.41 178.58 178.18 178.97 C 178.95 179.36 179.89 179.05 180.28 178.28 L 180.70 177.45 C 181.09 176.68 180.79 175.74 180.02 175.35 C 179.25 174.96 178.30 175.26 177.91 176.03 Z M 177.65 176.61 L 177.06 177.37 C 176.53 178.05 176.65 179.03 177.33 179.56 C 178.01 180.09 178.99 179.97 179.53 179.29 L 180.12 178.54 C 180.65 177.86 180.53 176.87 179.85 176.34 C 179.16 175.81 178.18 175.93 177.65 176.61 Z M 177.21 177.21 L 176.50 177.90 C 175.87 178.50 175.86 179.48 176.46 180.11 C 177.06 180.73 178.04 180.74 178.67 180.14 L 179.38 179.46 C 180.00 178.86 180.02 177.87 179.42 177.25 C 178.82 176.63 177.83 176.61 177.21 177.21 Z M 176.60 177.81 L 175.80 178.45 C 175.13 179.00 175.03 179.98 175.57 180.65 C 176.12 181.32 177.10 181.42 177.77 180.88 L 178.56 180.23 C 179.23 179.69 179.34 178.71 178.79 178.04 C 178.25 177.37 177.27 177.26 176.60 177.81 Z M 175.85 178.42 L 175.11 178.97 C 174.42 179.49 174.28 180.47 174.79 181.16 C 175.31 181.85 176.29 181.99 176.98 181.47 L 177.72 180.91 C 178.41 180.40 178.55 179.42 178.04 178.73 C 177.52 178.04 176.54 177.90 175.85 178.42 Z"
      fill="black"
      fill-rule="nonzero" /><path d="M 148.24 153.50 L 149.18 153.70 C 150.10 153.89 151.01 153.30 151.20 152.37 C 151.39 151.45 150.80 150.55 149.88 150.36 L 148.94 150.17 C 148.01 149.97 147.11 150.57 146.92 151.49 C 146.73 152.41 147.32 153.31 148.24 153.50 Z M 149.28 153.72 L 150.25 153.87 C 151.18 154.01 152.06 153.36 152.20 152.43 C 152.34 151.49 151.69 150.62 150.75 150.48 L 149.78 150.33 C 148.85 150.19 147.97 150.84 147.83 151.77 C 147.69 152.71 148.34 153.58 149.28 153.72 Z M 150.42 153.90 L 151.45 153.94 C 152.41 153.99 153.21 153.25 153.26 152.30 C 153.30 151.34 152.56 150.54 151.61 150.50 L 150.58 150.45 C 149.62 150.41 148.82 151.14 148.78 152.10 C 148.73 153.05 149.47 153.86 150.42 153.90 Z M 151.66 153.94 L 152.60 153.87 C 153.55 153.80 154.26 152.97 154.19 152.02 C 154.11 151.07 153.29 150.36 152.34 150.43 L 151.40 150.50 C 150.45 150.57 149.74 151.40 149.81 152.35 C 149.88 153.30 150.71 154.01 151.66 153.94 Z M 152.74 153.83 L 153.67 153.68 C 154.60 153.53 155.24 152.65 155.08 151.72 C 154.93 150.79 154.06 150.16 153.13 150.31 L 152.19 150.46 C 151.26 150.61 150.63 151.49 150.78 152.42 C 150.93 153.35 151.81 153.98 152.74 153.83 Z M 153.75 153.65 L 154.74 153.44 C 155.65 153.24 156.23 152.35 156.04 151.44 C 155.85 150.53 154.95 149.95 154.04 150.14 L 153.05 150.35 C 152.14 150.54 151.56 151.43 151.75 152.35 C 151.94 153.26 152.84 153.84 153.75 153.65 Z M 154.77 153.41 L 155.81 153.16 C 156.71 152.96 157.26 152.06 157.06 151.17 C 156.85 150.27 155.95 149.72 155.06 149.93 L 154.01 150.17 C 153.12 150.38 152.56 151.27 152.77 152.16 C 152.98 153.06 153.87 153.62 154.77 153.41 Z M 155.81 153.15 L 156.79 152.92 C 157.68 152.71 158.23 151.83 158.02 150.95 C 157.82 150.06 156.94 149.51 156.05 149.72 L 155.07 149.94 C 154.18 150.15 153.63 151.03 153.84 151.92 C 154.04 152.80 154.92 153.35 155.81 153.15 Z M 156.78 152.91 L 157.71 152.70 C 158.59 152.50 159.14 151.63 158.95 150.75 C 158.75 149.87 157.88 149.32 157.00 149.52 L 156.07 149.73 C 155.19 149.92 154.63 150.79 154.83 151.67 C 155.03 152.55 155.90 153.10 156.78 152.91 Z M 157.70 152.69 L 158.67 152.48 C 159.54 152.29 160.10 151.43 159.91 150.55 C 159.72 149.68 158.85 149.12 157.98 149.31 L 157.01 149.53 C 156.14 149.72 155.58 150.58 155.78 151.45 C 155.97 152.33 156.83 152.88 157.70 152.69 Z M 158.66 152.47 L 159.66 152.26 C 160.52 152.07 161.08 151.22 160.89 150.35 C 160.70 149.48 159.85 148.92 158.98 149.11 L 157.99 149.32 C 157.12 149.51 156.56 150.37 156.75 151.23 C 156.94 152.10 157.79 152.66 158.66 152.47 Z M 159.65 152.25 L 160.67 152.03 C 161.53 151.85 162.08 151.00 161.90 150.13 C 161.72 149.27 160.87 148.72 160.01 148.90 L 158.99 149.12 C 158.12 149.30 157.57 150.15 157.76 151.02 C 157.94 151.88 158.79 152.43 159.65 152.25 Z M 160.67 152.02 L 161.67 151.81 C 162.52 151.63 163.07 150.78 162.89 149.92 C 162.71 149.07 161.86 148.52 161.01 148.70 L 160.01 148.91 C 159.15 149.10 158.60 149.94 158.78 150.80 C 158.97 151.65 159.81 152.20 160.67 152.02 Z M 161.66 151.80 L 162.63 151.60 C 163.49 151.42 164.03 150.58 163.85 149.72 C 163.67 148.87 162.83 148.32 161.97 148.50 L 161.01 148.71 C 160.15 148.89 159.61 149.73 159.79 150.58 C 159.97 151.44 160.81 151.98 161.66 151.80 Z M 162.63 151.59 L 163.60 151.39 C 164.46 151.21 165.00 150.37 164.83 149.52 C 164.65 148.67 163.81 148.12 162.96 148.30 L 161.98 148.51 C 161.13 148.68 160.58 149.52 160.76 150.37 C 160.94 151.23 161.77 151.77 162.63 151.59 Z M 163.60 151.39 L 164.58 151.19 C 165.43 151.01 165.98 150.18 165.81 149.33 C 165.64 148.48 164.80 147.93 163.95 148.10 L 162.97 148.30 C 162.12 148.48 161.57 149.31 161.74 150.16 C 161.91 151.01 162.75 151.56 163.60 151.39 Z M 164.57 151.18 L 165.56 150.99 C 166.41 150.82 166.96 150.00 166.80 149.15 C 166.63 148.29 165.80 147.74 164.95 147.91 L 163.96 148.10 C 163.11 148.27 162.56 149.10 162.73 149.95 C 162.90 150.80 163.72 151.35 164.57 151.18 Z M 165.55 150.99 L 166.54 150.80 C 167.38 150.64 167.94 149.82 167.79 148.97 C 167.63 148.13 166.81 147.57 165.96 147.72 L 164.97 147.91 C 164.12 148.07 163.56 148.89 163.72 149.74 C 163.88 150.59 164.70 151.15 165.55 150.99 Z M 166.52 150.80 L 167.51 150.63 C 168.36 150.48 168.93 149.67 168.78 148.82 C 168.63 147.97 167.82 147.40 166.97 147.55 L 165.98 147.72 C 165.13 147.87 164.56 148.68 164.71 149.53 C 164.86 150.38 165.67 150.95 166.52 150.80 Z M 167.50 150.63 L 168.49 150.46 C 169.34 150.32 169.91 149.52 169.77 148.67 C 169.63 147.82 168.83 147.24 167.98 147.38 L 166.98 147.55 C 166.13 147.69 165.56 148.49 165.70 149.34 C 165.84 150.19 166.64 150.77 167.50 150.63 Z M 168.47 150.47 L 169.46 150.31 C 170.31 150.18 170.90 149.38 170.76 148.53 C 170.63 147.67 169.83 147.09 168.98 147.23 L 167.99 147.38 C 167.14 147.52 166.55 148.32 166.69 149.17 C 166.82 150.02 167.62 150.60 168.47 150.47 Z M 169.45 150.31 L 170.44 150.16 C 171.29 150.03 171.88 149.24 171.75 148.39 C 171.62 147.53 170.82 146.95 169.97 147.08 L 168.98 147.22 C 168.13 147.35 167.55 148.15 167.67 149.00 C 167.80 149.86 168.60 150.44 169.45 150.31 Z M 170.43 150.16 L 171.42 150.02 C 172.27 149.89 172.86 149.10 172.73 148.25 C 172.61 147.39 171.81 146.80 170.96 146.93 L 169.98 147.07 C 169.12 147.20 168.53 147.99 168.66 148.85 C 168.79 149.70 169.58 150.29 170.43 150.16 Z M 171.41 150.02 L 172.02 149.93 C 172.88 149.80 173.47 149.01 173.34 148.16 C 173.22 147.30 172.42 146.71 171.57 146.84 L 170.96 146.93 C 170.11 147.05 169.52 147.85 169.64 148.70 C 169.77 149.55 170.56 150.14 171.41 150.02 Z"
      fill="black"
      fill-rule="nonzero" /><path d="M 151.64 162.34 L 151.48 163.48 C 151.35 164.43 152.01 165.31 152.97 165.44 C 153.92 165.57 154.80 164.91 154.93 163.96 L 155.09 162.82 C 155.22 161.86 154.55 160.99 153.60 160.85 C 152.65 160.72 151.77 161.39 151.64 162.34 Z M 151.44 163.74 L 151.46 164.73 C 151.47 165.71 152.27 166.48 153.25 166.47 C 154.22 166.45 155.00 165.65 154.98 164.68 L 154.97 163.69 C 154.95 162.72 154.15 161.94 153.18 161.95 C 152.21 161.97 151.43 162.77 151.44 163.74 Z M 151.63 165.52 L 151.99 166.20 C 152.43 167.08 153.50 167.43 154.38 166.98 C 155.26 166.53 155.60 165.46 155.16 164.58 L 154.81 163.90 C 154.36 163.02 153.29 162.67 152.41 163.12 C 151.54 163.57 151.19 164.64 151.63 165.52 Z M 152.89 167.03 L 153.61 167.33 C 154.52 167.71 155.56 167.27 155.93 166.37 C 156.31 165.46 155.87 164.42 154.97 164.05 L 154.25 163.75 C 153.34 163.38 152.30 163.81 151.93 164.72 C 151.56 165.62 151.99 166.66 152.89 167.03 Z M 154.28 167.44 L 155.30 167.45 C 156.27 167.45 157.06 166.67 157.06 165.71 C 157.07 164.74 156.29 163.95 155.32 163.95 L 154.30 163.94 C 153.33 163.93 152.55 164.71 152.54 165.68 C 152.53 166.65 153.31 167.44 154.28 167.44 Z M 155.62 167.40 L 156.81 167.18 C 157.75 167.01 158.37 166.11 158.20 165.17 C 158.03 164.24 157.13 163.61 156.19 163.78 L 155.00 164.00 C 154.06 164.17 153.44 165.07 153.61 166.00 C 153.78 166.94 154.68 167.57 155.62 167.40 Z M 156.96 167.13 L 157.92 166.86 C 158.82 166.61 159.36 165.67 159.10 164.76 C 158.85 163.85 157.91 163.32 157.00 163.57 L 156.04 163.84 C 155.13 164.09 154.60 165.03 154.86 165.94 C 155.11 166.85 156.05 167.38 156.96 167.13 Z M 157.99 166.82 L 158.96 166.50 C 159.85 166.21 160.33 165.25 160.04 164.36 C 159.75 163.47 158.79 162.99 157.90 163.29 L 156.93 163.61 C 156.04 163.90 155.56 164.86 155.85 165.75 C 156.14 166.64 157.10 167.12 157.99 166.82 Z M 159.00 166.47 L 159.96 166.13 C 160.83 165.81 161.28 164.85 160.97 163.98 C 160.66 163.11 159.69 162.65 158.82 162.97 L 157.86 163.31 C 156.99 163.63 156.54 164.59 156.85 165.46 C 157.16 166.34 158.13 166.79 159.00 166.47 Z M 159.97 166.11 L 160.88 165.77 C 161.74 165.46 162.18 164.50 161.87 163.64 C 161.55 162.77 160.59 162.33 159.73 162.65 L 158.81 162.99 C 157.95 163.30 157.51 164.26 157.83 165.12 C 158.15 165.99 159.10 166.43 159.97 166.11 Z M 160.86 165.77 L 161.87 165.41 C 162.72 165.10 163.17 164.16 162.87 163.30 C 162.56 162.44 161.62 161.99 160.76 162.30 L 159.75 162.66 C 158.89 162.96 158.44 163.91 158.75 164.76 C 159.05 165.62 160.00 166.07 160.86 165.77 Z M 161.83 165.40 L 162.78 165.08 C 163.64 164.80 164.10 163.87 163.81 163.02 C 163.52 162.16 162.60 161.70 161.74 161.99 L 160.79 162.30 C 159.94 162.59 159.48 163.52 159.76 164.37 C 160.05 165.23 160.98 165.69 161.83 165.40 Z M 162.75 165.08 L 163.65 164.79 C 164.51 164.52 164.98 163.61 164.71 162.76 C 164.44 161.91 163.53 161.44 162.68 161.71 L 161.77 161.99 C 160.92 162.26 160.45 163.17 160.72 164.02 C 160.99 164.87 161.90 165.35 162.75 165.08 Z M 163.63 164.78 L 164.55 164.50 C 165.40 164.24 165.87 163.35 165.62 162.50 C 165.36 161.66 164.46 161.18 163.62 161.44 L 162.70 161.72 C 161.85 161.97 161.38 162.87 161.63 163.72 C 161.89 164.56 162.79 165.04 163.63 164.78 Z M 164.54 164.49 L 165.49 164.21 C 166.33 163.96 166.81 163.07 166.56 162.23 C 166.31 161.39 165.42 160.91 164.58 161.16 L 163.63 161.44 C 162.79 161.69 162.31 162.58 162.56 163.42 C 162.81 164.27 163.70 164.75 164.54 164.49 Z M 165.48 164.20 L 166.45 163.92 C 167.29 163.67 167.77 162.79 167.52 161.96 C 167.28 161.12 166.40 160.64 165.56 160.88 L 164.59 161.17 C 163.75 161.41 163.27 162.29 163.52 163.13 C 163.76 163.97 164.64 164.45 165.48 164.20 Z M 166.44 163.91 L 167.41 163.63 C 168.25 163.39 168.73 162.51 168.48 161.68 C 168.24 160.84 167.36 160.36 166.53 160.61 L 165.56 160.89 C 164.73 161.13 164.25 162.01 164.49 162.84 C 164.73 163.68 165.61 164.16 166.44 163.91 Z M 167.41 163.63 L 168.36 163.35 C 169.19 163.11 169.67 162.24 169.43 161.40 C 169.18 160.57 168.31 160.09 167.48 160.34 L 166.53 160.61 C 165.70 160.85 165.22 161.73 165.46 162.56 C 165.70 163.39 166.58 163.87 167.41 163.63 Z M 168.35 163.35 L 169.31 163.07 C 170.14 162.83 170.62 161.96 170.38 161.13 C 170.14 160.30 169.27 159.82 168.44 160.06 L 167.48 160.34 C 166.65 160.58 166.17 161.45 166.41 162.28 C 166.65 163.11 167.52 163.59 168.35 163.35 Z M 169.30 163.07 L 170.28 162.79 C 171.11 162.56 171.59 161.69 171.36 160.86 C 171.12 160.03 170.26 159.55 169.42 159.79 L 168.45 160.06 C 167.62 160.30 167.14 161.16 167.37 161.99 C 167.61 162.82 168.47 163.31 169.30 163.07 Z M 170.27 162.79 L 171.18 162.54 C 172.01 162.31 172.49 161.45 172.26 160.62 C 172.03 159.79 171.17 159.30 170.34 159.53 L 169.43 159.79 C 168.60 160.02 168.12 160.88 168.35 161.71 C 168.58 162.54 169.44 163.02 170.27 162.79 Z M 171.16 162.55 L 172.09 162.29 C 172.93 162.07 173.42 161.21 173.20 160.38 C 172.97 159.55 172.12 159.06 171.28 159.28 L 170.35 159.53 C 169.52 159.75 169.03 160.61 169.25 161.44 C 169.48 162.28 170.33 162.77 171.16 162.55 Z M 172.08 162.30 L 173.07 162.04 C 173.90 161.83 174.40 160.98 174.19 160.14 C 173.97 159.31 173.12 158.81 172.29 159.02 L 171.30 159.28 C 170.46 159.49 169.96 160.34 170.18 161.18 C 170.39 162.01 171.25 162.51 172.08 162.30 Z M 173.05 162.05 L 174.09 161.79 C 174.92 161.59 175.44 160.74 175.23 159.90 C 175.02 159.07 174.18 158.55 173.34 158.76 L 172.30 159.02 C 171.47 159.22 170.95 160.07 171.16 160.91 C 171.37 161.74 172.21 162.25 173.05 162.05 Z M 174.07 161.80 L 174.99 161.58 C 175.83 161.38 176.35 160.54 176.15 159.70 C 175.95 158.86 175.11 158.34 174.27 158.54 L 173.35 158.76 C 172.52 158.96 172.00 159.80 172.19 160.64 C 172.39 161.48 173.23 161.99 174.07 161.80 Z M 174.98 161.58 L 175.94 161.36 C 176.78 161.17 177.30 160.33 177.11 159.49 C 176.92 158.65 176.08 158.12 175.24 158.32 L 174.28 158.54 C 173.44 158.73 172.91 159.57 173.11 160.41 C 173.30 161.25 174.14 161.77 174.98 161.58 Z M 175.93 161.36 L 176.93 161.14 C 177.77 160.95 178.30 160.11 178.11 159.27 C 177.92 158.43 177.08 157.90 176.24 158.09 L 175.25 158.32 C 174.40 158.51 173.88 159.34 174.07 160.18 C 174.26 161.02 175.09 161.55 175.93 161.36 Z M 176.92 161.14 L 177.94 160.91 C 178.78 160.72 179.31 159.89 179.12 159.05 C 178.93 158.21 178.10 157.68 177.26 157.86 L 176.24 158.09 C 175.40 158.28 174.87 159.11 175.06 159.95 C 175.25 160.80 176.08 161.33 176.92 161.14 Z M 177.94 160.91 L 178.50 160.79 C 179.34 160.60 179.87 159.77 179.69 158.92 C 179.50 158.08 178.67 157.55 177.82 157.74 L 177.26 157.86 C 176.42 158.05 175.89 158.89 176.07 159.73 C 176.26 160.57 177.10 161.10 177.94 160.91 Z"
      fill="black"
      fill-rule="nonzero" /><path d="M 148.53 187.01 L 149.48 186.88 C 150.36 186.77 150.99 185.96 150.88 185.07 C 150.76 184.18 149.95 183.55 149.06 183.67 L 148.12 183.79 C 147.23 183.90 146.60 184.72 146.71 185.60 C 146.83 186.49 147.64 187.12 148.53 187.01 Z M 149.47 186.91 L 150.44 186.80 C 151.35 186.69 151.99 185.86 151.88 184.96 C 151.77 184.05 150.95 183.41 150.04 183.52 L 149.07 183.64 C 148.16 183.75 147.52 184.57 147.63 185.47 C 147.74 186.38 148.56 187.02 149.47 186.91 Z M 150.42 186.83 L 151.46 186.72 C 152.38 186.62 153.05 185.79 152.95 184.87 C 152.85 183.95 152.02 183.28 151.10 183.38 L 150.07 183.49 C 149.14 183.59 148.47 184.41 148.57 185.33 C 148.67 186.26 149.50 186.93 150.42 186.83 Z M 151.43 186.74 L 152.27 186.66 C 153.20 186.58 153.89 185.75 153.80 184.82 C 153.72 183.88 152.89 183.20 151.96 183.28 L 151.13 183.36 C 150.19 183.44 149.50 184.27 149.59 185.20 C 149.67 186.13 150.50 186.82 151.43 186.74 Z M 152.26 186.67 L 153.08 186.60 C 154.01 186.51 154.71 185.69 154.62 184.75 C 154.54 183.82 153.72 183.12 152.78 183.21 L 151.97 183.28 C 151.03 183.36 150.34 184.18 150.42 185.12 C 150.50 186.05 151.32 186.75 152.26 186.67 Z M 153.09 186.59 L 154.02 186.51 C 154.95 186.42 155.64 185.59 155.55 184.66 C 155.47 183.72 154.64 183.03 153.70 183.12 L 152.77 183.21 C 151.84 183.29 151.15 184.12 151.24 185.06 C 151.32 185.99 152.15 186.68 153.09 186.59 Z M 154.04 186.51 L 155.12 186.39 C 156.05 186.29 156.73 185.45 156.63 184.52 C 156.53 183.58 155.69 182.91 154.76 183.01 L 153.68 183.12 C 152.74 183.22 152.07 184.06 152.17 184.99 C 152.27 185.93 153.10 186.61 154.04 186.51 Z M 155.15 186.39 L 156.42 186.23 C 157.35 186.12 158.01 185.27 157.90 184.34 C 157.79 183.40 156.94 182.74 156.00 182.85 L 154.73 183.01 C 153.80 183.12 153.13 183.97 153.25 184.91 C 153.36 185.84 154.21 186.50 155.15 186.39 Z M 156.44 186.23 L 157.41 186.09 C 158.34 185.97 158.99 185.11 158.87 184.18 C 158.74 183.25 157.88 182.60 156.95 182.73 L 155.98 182.86 C 155.05 182.98 154.40 183.84 154.53 184.77 C 154.65 185.70 155.51 186.35 156.44 186.23 Z M 157.42 186.09 L 158.38 185.95 C 159.30 185.82 159.94 184.96 159.81 184.03 C 159.68 183.11 158.82 182.46 157.89 182.60 L 156.94 182.73 C 156.01 182.87 155.37 183.73 155.50 184.65 C 155.64 185.58 156.50 186.22 157.42 186.09 Z M 158.38 185.94 L 159.39 185.79 C 160.31 185.65 160.94 184.80 160.80 183.87 C 160.67 182.95 159.81 182.32 158.89 182.45 L 157.88 182.60 C 156.96 182.74 156.33 183.60 156.46 184.52 C 156.60 185.44 157.46 186.08 158.38 185.94 Z M 159.39 185.78 L 160.42 185.63 C 161.34 185.48 161.97 184.63 161.83 183.71 C 161.69 182.79 160.83 182.16 159.91 182.30 L 158.88 182.46 C 157.96 182.60 157.33 183.46 157.47 184.38 C 157.62 185.30 158.47 185.93 159.39 185.78 Z M 160.43 185.62 L 161.47 185.45 C 162.38 185.31 163.01 184.45 162.86 183.54 C 162.72 182.63 161.86 182.00 160.95 182.15 L 159.91 182.31 C 158.99 182.45 158.37 183.31 158.51 184.22 C 158.66 185.14 159.51 185.76 160.43 185.62 Z M 161.47 185.45 L 162.51 185.28 C 163.42 185.14 164.04 184.28 163.89 183.37 C 163.75 182.46 162.89 181.84 161.98 181.99 L 160.95 182.15 C 160.04 182.30 159.42 183.15 159.56 184.06 C 159.71 184.97 160.56 185.59 161.47 185.45 Z M 162.51 185.28 L 163.51 185.11 C 164.42 184.97 165.03 184.12 164.89 183.21 C 164.74 182.30 163.89 181.69 162.98 181.83 L 161.98 182.00 C 161.07 182.14 160.46 182.99 160.60 183.90 C 160.75 184.81 161.60 185.42 162.51 185.28 Z M 163.51 185.11 L 164.47 184.95 C 165.37 184.81 165.98 183.96 165.84 183.05 C 165.69 182.15 164.84 181.54 163.94 181.69 L 162.98 181.84 C 162.08 181.99 161.47 182.84 161.62 183.74 C 161.76 184.64 162.61 185.25 163.51 185.11 Z M 164.47 184.94 L 165.58 184.76 C 166.48 184.62 167.09 183.77 166.95 182.87 C 166.80 181.98 165.95 181.37 165.06 181.51 L 163.94 181.70 C 163.04 181.84 162.44 182.69 162.58 183.58 C 162.73 184.48 163.57 185.09 164.47 184.94 Z M 165.58 184.75 L 166.68 184.57 C 167.57 184.43 168.18 183.59 168.03 182.70 C 167.89 181.81 167.05 181.20 166.16 181.35 L 165.06 181.53 C 164.17 181.67 163.57 182.51 163.71 183.40 C 163.85 184.29 164.69 184.89 165.58 184.75 Z M 166.68 184.56 L 167.68 184.39 C 168.57 184.25 169.17 183.42 169.02 182.54 C 168.88 181.66 168.05 181.06 167.17 181.20 L 166.16 181.36 C 165.28 181.51 164.68 182.34 164.83 183.22 C 164.97 184.10 165.80 184.70 166.68 184.56 Z M 167.68 184.38 L 168.61 184.23 C 169.49 184.09 170.08 183.27 169.94 182.40 C 169.80 181.52 168.98 180.93 168.11 181.07 L 167.17 181.21 C 166.30 181.35 165.70 182.18 165.84 183.05 C 165.98 183.93 166.81 184.52 167.68 184.38 Z M 168.61 184.22 L 169.50 184.08 C 170.37 183.94 170.96 183.13 170.82 182.26 C 170.69 181.39 169.87 180.80 169.01 180.94 L 168.11 181.08 C 167.25 181.22 166.66 182.03 166.79 182.90 C 166.93 183.76 167.74 184.35 168.61 184.22 Z M 169.50 184.06 L 170.37 183.93 C 171.23 183.79 171.82 182.99 171.68 182.13 C 171.55 181.27 170.75 180.68 169.89 180.82 L 169.01 180.95 C 168.15 181.09 167.56 181.89 167.70 182.75 C 167.83 183.61 168.64 184.20 169.50 184.06 Z M 170.37 183.92 L 171.31 183.77 C 172.16 183.64 172.75 182.85 172.62 181.99 C 172.49 181.14 171.69 180.55 170.83 180.68 L 169.89 180.82 C 169.04 180.95 168.45 181.75 168.58 182.61 C 168.71 183.46 169.51 184.05 170.37 183.92 Z M 171.30 183.77 L 172.27 183.63 C 173.13 183.50 173.72 182.70 173.59 181.85 C 173.46 181.00 172.66 180.41 171.81 180.54 L 170.84 180.68 C 169.98 180.81 169.40 181.60 169.52 182.46 C 169.65 183.31 170.45 183.90 171.30 183.77 Z M 172.27 183.63 L 173.25 183.48 C 174.11 183.36 174.70 182.57 174.57 181.71 C 174.45 180.86 173.66 180.27 172.80 180.39 L 171.82 180.54 C 170.96 180.66 170.37 181.45 170.49 182.31 C 170.62 183.16 171.41 183.75 172.27 183.63 Z M 173.25 183.48 L 174.25 183.34 C 175.10 183.22 175.69 182.43 175.57 181.58 C 175.45 180.72 174.66 180.13 173.81 180.25 L 172.81 180.39 C 171.95 180.51 171.36 181.30 171.48 182.16 C 171.60 183.01 172.39 183.61 173.25 183.48 Z M 174.24 183.34 L 175.25 183.21 C 176.10 183.09 176.70 182.30 176.59 181.45 C 176.47 180.59 175.68 179.99 174.83 180.11 L 173.82 180.25 C 172.96 180.37 172.36 181.15 172.48 182.01 C 172.60 182.86 173.38 183.46 174.24 183.34 Z M 175.24 183.21 L 176.25 183.07 C 177.10 182.96 177.70 182.18 177.59 181.32 C 177.48 180.47 176.69 179.87 175.84 179.98 L 174.83 180.11 C 173.98 180.22 173.38 181.01 173.49 181.86 C 173.60 182.72 174.39 183.32 175.24 183.21 Z M 176.24 183.07 L 177.22 182.95 C 178.08 182.84 178.68 182.06 178.57 181.20 C 178.47 180.35 177.69 179.74 176.83 179.85 L 175.85 179.98 C 174.99 180.09 174.39 180.87 174.49 181.72 C 174.60 182.58 175.38 183.18 176.24 183.07 Z M 177.22 182.95 L 178.21 182.83 C 179.06 182.72 179.67 181.94 179.57 181.09 C 179.46 180.23 178.68 179.62 177.83 179.73 L 176.84 179.85 C 175.98 179.96 175.37 180.74 175.48 181.59 C 175.58 182.45 176.36 183.06 177.22 182.95 Z M 178.20 182.83 L 179.20 182.71 C 180.05 182.61 180.66 181.83 180.56 180.97 C 180.46 180.12 179.68 179.51 178.82 179.61 L 177.83 179.73 C 176.97 179.83 176.36 180.61 176.47 181.47 C 176.57 182.32 177.35 182.93 178.20 182.83 Z M 179.19 182.71 L 180.19 182.59 C 181.05 182.49 181.66 181.72 181.56 180.86 C 181.46 180.00 180.68 179.39 179.83 179.49 L 178.83 179.61 C 177.97 179.71 177.36 180.49 177.46 181.34 C 177.56 182.20 178.34 182.81 179.19 182.71 Z M 180.19 182.59 L 181.19 182.48 C 182.05 182.38 182.66 181.60 182.56 180.74 C 182.46 179.89 181.68 179.28 180.83 179.38 L 179.83 179.49 C 178.97 179.59 178.36 180.37 178.46 181.22 C 178.56 182.08 179.33 182.69 180.19 182.59 Z M 181.19 182.48 L 181.53 182.44 C 182.38 182.34 183.00 181.56 182.90 180.71 C 182.80 179.85 182.02 179.24 181.17 179.34 L 180.83 179.38 C 179.97 179.47 179.36 180.25 179.46 181.11 C 179.56 181.96 180.33 182.58 181.19 182.48 Z"
      fill="black"
      fill-rule="nonzero" /></svg>