<svg xmlns="http://www.w3.org/2000/svg" width="300" height="300" viewBox="0 0 300 300">
<path d="M 124.81 106.77 L 125.73 106.65 C 126.70 106.53 127.39 105.63 127.27 104.66 C 127.14 103.68 126.25 102.99 125.27 103.12 L 124.36 103.24 C 123.38 103.36 122.69 104.26 122.82 105.23 C 122.94 106.21 123.84 106.90 124.81 106.77 Z M 125.72 106.68 L 126.68 106.56 C 127.67 106.44 128.37 105.53 128.25 104.55 C 128.13 103.56 127.23 102.85 126.24 102.98 L 125.28 103.09 C 124.29 103.22 123.59 104.12 123.71 105.11 C 123.83 106.09 124.73 106.80 125.72 106.68 Z M 126.66 106.58 L 127.72 106.46 C 128.72 106.35 129.44 105.45 129.33 104.44 C 129.21 103.44 128.31 102.72 127.31 102.83 L 126.26 102.95 C 125.25 103.06 124.53 103.97 124.65 104.97 C 124.76 105.97 125.66 106.69 126.66 106.58 Z M 127.70 106.48 L 128.71 106.38 C 129.72 106.28 130.46 105.37 130.36 104.36 C 130.26 103.35 129.35 102.61 128.34 102.71 L 127.33 102.82 C 126.31 102.92 125.58 103.82 125.68 104.83 C 125.78 105.85 126.68 106.58 127.70 106.48 Z M 128.70 106.38 L 129.70 106.29 C 130.71 106.19 131.46 105.29 131.36 104.28 C 131.27 103.26 130.36 102.52 129.35 102.61 L 128.35 102.71 C 127.34 102.80 126.59 103.70 126.69 104.72 C 126.78 105.74 127.68 106.48 128.70 106.38 Z M 129.70 106.29 L 130.72 106.19 C 131.74 106.10 132.48 105.20 132.39 104.18 C 132.29 103.16 131.39 102.42 130.37 102.51 L 129.35 102.61 C 128.33 102.71 127.59 103.61 127.68 104.63 C 127.78 105.64 128.68 106.39 129.70 106.29 Z M 130.73 106.19 L 131.74 106.09 C 132.76 105.99 133.50 105.08 133.40 104.07 C 133.30 103.05 132.39 102.31 131.37 102.41 L 130.36 102.51 C 129.35 102.62 128.61 103.52 128.71 104.54 C 128.81 105.56 129.72 106.30 130.73 106.19 Z M 131.77 106.09 L 132.78 105.98 C 133.79 105.86 134.52 104.94 134.41 103.93 C 134.29 102.91 133.38 102.18 132.36 102.30 L 131.35 102.41 C 130.34 102.53 129.61 103.45 129.72 104.46 C 129.84 105.48 130.75 106.21 131.77 106.09 Z M 132.81 105.97 L 133.83 105.84 C 134.84 105.70 135.56 104.77 135.42 103.76 C 135.29 102.75 134.36 102.04 133.35 102.17 L 132.33 102.30 C 131.32 102.44 130.60 103.37 130.74 104.38 C 130.87 105.39 131.80 106.10 132.81 105.97 Z M 133.86 105.83 L 134.83 105.69 C 135.84 105.54 136.54 104.60 136.39 103.59 C 136.23 102.58 135.29 101.88 134.29 102.03 L 133.32 102.18 C 132.31 102.33 131.61 103.27 131.76 104.28 C 131.91 105.28 132.85 105.98 133.86 105.83 Z M 134.85 105.68 L 135.81 105.53 C 136.81 105.37 137.50 104.42 137.33 103.41 C 137.17 102.40 136.22 101.72 135.22 101.88 L 134.26 102.04 C 133.26 102.20 132.57 103.15 132.74 104.15 C 132.90 105.16 133.85 105.84 134.85 105.68 Z M 135.82 105.52 L 136.77 105.36 C 137.77 105.20 138.45 104.25 138.28 103.24 C 138.11 102.24 137.16 101.56 136.16 101.73 L 135.21 101.89 C 134.20 102.05 133.53 103.00 133.69 104.01 C 133.86 105.01 134.81 105.69 135.82 105.52 Z M 136.77 105.36 L 137.74 105.19 C 138.74 105.02 139.42 104.08 139.25 103.07 C 139.08 102.07 138.13 101.40 137.13 101.57 L 136.16 101.73 C 135.16 101.90 134.48 102.85 134.65 103.85 C 134.82 104.85 135.77 105.53 136.77 105.36 Z M 137.74 105.19 L 138.74 105.02 C 139.74 104.85 140.41 103.90 140.24 102.90 C 140.07 101.90 139.12 101.23 138.12 101.40 L 137.13 101.57 C 136.13 101.74 135.46 102.69 135.63 103.69 C 135.80 104.69 136.75 105.36 137.74 105.19 Z M 138.74 105.01 L 139.75 104.84 C 140.75 104.67 141.42 103.73 141.25 102.73 C 141.08 101.74 140.13 101.07 139.14 101.24 L 138.12 101.41 C 137.13 101.58 136.46 102.52 136.63 103.52 C 136.80 104.51 137.74 105.18 138.74 105.01 Z M 139.75 104.84 L 140.73 104.67 C 141.72 104.50 142.39 103.56 142.22 102.57 C 142.05 101.57 141.11 100.91 140.12 101.07 L 139.14 101.24 C 138.15 101.41 137.48 102.35 137.65 103.34 C 137.81 104.34 138.76 105.01 139.75 104.84 Z M 140.73 104.67 L 141.71 104.50 C 142.70 104.33 143.37 103.39 143.20 102.40 C 143.03 101.41 142.09 100.74 141.10 100.91 L 140.12 101.08 C 139.13 101.25 138.46 102.19 138.63 103.18 C 138.80 104.17 139.74 104.83 140.73 104.67 Z M 141.71 104.49 L 142.70 104.32 C 143.69 104.15 144.35 103.22 144.18 102.23 C 144.01 101.24 143.07 100.58 142.08 100.75 L 141.10 100.92 C 140.11 101.09 139.45 102.03 139.62 103.01 C 139.79 104.00 140.72 104.66 141.71 104.49 Z M 142.71 104.32 L 143.70 104.14 C 144.69 103.97 145.34 103.03 145.17 102.05 C 145.00 101.06 144.06 100.41 143.07 100.58 L 142.08 100.76 C 141.09 100.93 140.44 101.87 140.61 102.85 C 140.78 103.83 141.72 104.49 142.71 104.32 Z M 143.71 104.14 L 144.69 103.96 C 145.67 103.78 146.32 102.84 146.14 101.86 C 145.96 100.88 145.02 100.23 144.04 100.41 L 143.07 100.59 C 142.09 100.77 141.44 101.70 141.61 102.68 C 141.79 103.66 142.73 104.31 143.71 104.14 Z M 144.70 103.95 L 145.68 103.77 C 146.66 103.58 147.30 102.64 147.12 101.67 C 146.93 100.69 145.99 100.05 145.02 100.23 L 144.04 100.42 C 143.06 100.60 142.42 101.54 142.60 102.51 C 142.78 103.49 143.72 104.13 144.70 103.95 Z M 145.68 103.76 L 146.67 103.57 C 147.64 103.38 148.28 102.45 148.09 101.47 C 147.91 100.50 146.97 99.87 146.00 100.05 L 145.01 100.24 C 144.04 100.43 143.40 101.36 143.59 102.33 C 143.78 103.31 144.71 103.94 145.68 103.76 Z M 146.67 103.56 L 147.66 103.37 C 148.63 103.19 149.26 102.25 149.07 101.28 C 148.89 100.31 147.95 99.68 146.98 99.87 L 146.00 100.06 C 145.03 100.25 144.39 101.18 144.58 102.15 C 144.77 103.12 145.70 103.75 146.67 103.56 Z M 147.66 103.37 L 148.65 103.18 C 149.61 102.99 150.24 102.06 150.05 101.09 C 149.87 100.13 148.93 99.50 147.97 99.68 L 146.98 99.87 C 146.02 100.06 145.39 100.99 145.57 101.96 C 145.76 102.92 146.69 103.55 147.66 103.37 Z M 148.64 103.17 L 149.63 102.98 C 150.59 102.79 151.22 101.86 151.03 100.90 C 150.85 99.94 149.92 99.31 148.96 99.50 L 147.97 99.69 C 147.01 99.88 146.38 100.81 146.57 101.77 C 146.75 102.73 147.68 103.36 148.64 103.17 Z M 149.63 102.97 L 150.61 102.78 C 151.57 102.59 152.20 101.67 152.01 100.71 C 151.82 99.75 150.90 99.13 149.94 99.31 L 148.96 99.50 C 148.00 99.69 147.37 100.62 147.56 101.58 C 147.75 102.53 148.67 103.16 149.63 102.97 Z M 150.61 102.77 L 151.59 102.58 C 152.55 102.40 153.17 101.47 152.98 100.52 C 152.79 99.56 151.87 98.94 150.92 99.13 L 149.94 99.32 C 148.98 99.51 148.36 100.43 148.55 101.38 C 148.73 102.34 149.66 102.96 150.61 102.77 Z M 151.59 102.58 L 152.57 102.38 C 153.52 102.20 154.14 101.27 153.96 100.32 C 153.77 99.37 152.85 98.75 151.90 98.94 L 150.91 99.13 C 149.96 99.32 149.34 100.24 149.53 101.19 C 149.72 102.15 150.64 102.76 151.59 102.58 Z M 152.58 102.38 L 153.56 102.18 C 154.51 101.99 155.12 101.07 154.93 100.13 C 154.74 99.18 153.82 98.56 152.88 98.75 L 151.89 98.95 C 150.95 99.14 150.33 100.06 150.52 101.00 C 150.71 101.95 151.63 102.57 152.58 102.38 Z M 153.56 102.17 L 154.54 101.98 C 155.49 101.78 156.10 100.86 155.90 99.92 C 155.71 98.98 154.79 98.37 153.85 98.56 L 152.87 98.76 C 151.93 98.95 151.32 99.87 151.51 100.81 C 151.70 101.76 152.62 102.37 153.56 102.17 Z M 154.55 101.97 L 155.53 101.76 C 156.47 101.57 157.07 100.65 156.87 99.71 C 156.68 98.77 155.76 98.17 154.82 98.36 L 153.84 98.57 C 152.90 98.76 152.30 99.68 152.50 100.62 C 152.69 101.56 153.61 102.16 154.55 101.97 Z M 155.54 101.76 L 156.51 101.55 C 157.44 101.35 158.03 100.42 157.83 99.49 C 157.63 98.56 156.71 97.96 155.77 98.16 L 154.81 98.37 C 153.87 98.57 153.28 99.50 153.48 100.43 C 153.68 101.36 154.60 101.96 155.54 101.76 Z M 156.52 101.54 L 157.48 101.32 C 158.41 101.12 158.99 100.20 158.79 99.27 C 158.58 98.34 157.66 97.75 156.73 97.96 L 155.77 98.17 C 154.84 98.38 154.25 99.30 154.46 100.23 C 154.66 101.16 155.59 101.75 156.52 101.54 Z M 157.48 101.32 L 158.45 101.10 C 159.38 100.89 159.96 99.97 159.75 99.04 C 159.54 98.12 158.62 97.54 157.69 97.74 L 156.72 97.96 C 155.80 98.17 155.22 99.09 155.43 100.02 C 155.64 100.95 156.56 101.53 157.48 101.32 Z M 158.45 101.09 L 159.43 100.87 C 160.36 100.66 160.94 99.74 160.73 98.82 C 160.52 97.90 159.60 97.32 158.68 97.53 L 157.69 97.75 C 156.77 97.96 156.19 98.88 156.40 99.80 C 156.61 100.72 157.53 101.30 158.45 101.09 Z M 159.43 100.87 L 160.43 100.64 C 161.35 100.44 161.93 99.52 161.72 98.60 C 161.51 97.68 160.60 97.10 159.68 97.31 L 158.68 97.53 C 157.76 97.74 157.18 98.65 157.39 99.57 C 157.60 100.49 158.51 101.07 159.43 100.87 Z M 160.42 100.64 L 161.42 100.42 C 162.33 100.22 162.92 99.31 162.71 98.39 C 162.51 97.48 161.61 96.90 160.69 97.10 L 159.69 97.31 C 158.77 97.52 158.19 98.42 158.39 99.34 C 158.59 100.26 159.50 100.84 160.42 100.64 Z M 161.41 100.41 L 162.41 100.20 C 163.32 100.00 163.90 99.10 163.71 98.19 C 163.51 97.27 162.61 96.69 161.69 96.89 L 160.70 97.10 C 159.78 97.30 159.20 98.20 159.40 99.11 C 159.59 100.03 160.49 100.61 161.41 100.41 Z M 162.40 100.19 L 163.37 99.99 C 164.29 99.80 164.87 98.90 164.68 97.99 C 164.48 97.08 163.59 96.49 162.68 96.69 L 161.70 96.89 C 160.79 97.09 160.21 97.98 160.40 98.89 C 160.59 99.80 161.49 100.39 162.40 100.19 Z M 163.37 99.98 L 164.31 99.79 C 165.22 99.60 165.80 98.71 165.61 97.80 C 165.42 96.89 164.53 96.31 163.62 96.50 L 162.68 96.69 C 161.77 96.88 161.19 97.77 161.38 98.68 C 161.57 99.59 162.46 100.17 163.37 99.98 Z M 164.30 99.78 L 165.35 99.57 C 166.25 99.38 166.84 98.50 166.65 97.59 C 166.46 96.68 165.58 96.10 164.67 96.29 L 163.63 96.50 C 162.72 96.69 162.14 97.57 162.33 98.48 C 162.51 99.38 163.40 99.97 164.30 99.78 Z M 165.34 99.56 L 166.32 99.36 C 167.23 99.18 167.81 98.30 167.63 97.40 C 167.44 96.49 166.56 95.91 165.66 96.09 L 164.68 96.29 C 163.77 96.48 163.19 97.36 163.37 98.26 C 163.56 99.16 164.44 99.75 165.34 99.56 Z M 166.32 99.36 L 167.26 99.17 C 168.16 98.98 168.74 98.11 168.56 97.21 C 168.38 96.31 167.50 95.72 166.60 95.91 L 165.66 96.10 C 164.76 96.28 164.18 97.16 164.36 98.06 C 164.54 98.96 165.42 99.54 166.32 99.36 Z M 167.26 99.16 L 168.17 98.98 C 169.07 98.79 169.65 97.92 169.46 97.02 C 169.28 96.12 168.40 95.54 167.51 95.73 L 166.60 95.91 C 165.70 96.10 165.12 96.97 165.31 97.87 C 165.49 98.77 166.37 99.34 167.26 99.16 Z M 168.18 98.97 L 169.08 98.78 C 169.98 98.59 170.55 97.71 170.36 96.82 C 170.17 95.93 169.30 95.35 168.40 95.54 L 167.50 95.73 C 166.60 95.92 166.03 96.80 166.22 97.69 C 166.41 98.59 167.28 99.16 168.18 98.97 Z M 169.10 98.77 L 170.07 98.56 C 170.96 98.36 171.52 97.48 171.32 96.59 C 171.12 95.70 170.24 95.14 169.35 95.34 L 168.38 95.55 C 167.49 95.75 166.93 96.63 167.13 97.52 C 167.33 98.41 168.21 98.97 169.10 98.77 Z M 170.09 98.55 L 171.16 98.29 C 172.05 98.08 172.59 97.19 172.38 96.31 C 172.17 95.42 171.28 94.88 170.40 95.09 L 169.33 95.35 C 168.44 95.56 167.90 96.44 168.11 97.33 C 168.32 98.21 169.21 98.76 170.09 98.55 Z M 171.18 98.28 L 172.12 98.04 C 173.00 97.82 173.53 96.93 173.31 96.05 C 173.09 95.17 172.19 94.63 171.31 94.86 L 170.37 95.10 C 169.49 95.32 168.96 96.22 169.19 97.10 C 169.41 97.97 170.30 98.51 171.18 98.28 Z M 172.14 98.04 L 173.10 97.78 C 173.98 97.55 174.50 96.65 174.26 95.77 C 174.03 94.89 173.13 94.37 172.25 94.61 L 171.29 94.87 C 170.42 95.10 169.90 96.00 170.13 96.88 C 170.37 97.75 171.27 98.27 172.14 98.04 Z M 173.12 97.78 L 174.11 97.50 C 174.98 97.25 175.49 96.34 175.24 95.47 C 175.00 94.60 174.09 94.09 173.22 94.34 L 172.23 94.62 C 171.36 94.86 170.85 95.77 171.10 96.64 C 171.34 97.51 172.25 98.02 173.12 97.78 Z M 174.13 97.49 L 175.12 97.19 C 175.99 96.93 176.48 96.02 176.23 95.15 C 175.97 94.28 175.05 93.79 174.18 94.05 L 173.19 94.35 C 172.33 94.60 171.83 95.52 172.09 96.39 C 172.35 97.25 173.27 97.75 174.13 97.49 Z M 175.15 97.18 L 176.11 96.88 C 176.98 96.60 177.45 95.68 177.18 94.81 C 176.90 93.95 175.98 93.48 175.12 93.75 L 174.16 94.06 C 173.29 94.34 172.82 95.26 173.09 96.12 C 173.37 96.98 174.29 97.46 175.15 97.18 Z M 176.15 96.86 L 177.16 96.51 C 178.01 96.22 178.47 95.28 178.17 94.43 C 177.87 93.57 176.94 93.12 176.09 93.42 L 175.08 93.77 C 174.22 94.06 173.77 95.00 174.07 95.85 C 174.36 96.71 175.30 97.16 176.15 96.86 Z M 177.20 96.50 L 178.15 96.14 C 179.00 95.83 179.43 94.88 179.11 94.03 C 178.79 93.19 177.85 92.76 177.00 93.07 L 176.05 93.43 C 175.20 93.75 174.77 94.69 175.09 95.54 C 175.41 96.39 176.35 96.82 177.20 96.50 Z M 178.18 96.13 L 179.09 95.77 C 179.93 95.44 180.34 94.49 180.01 93.65 C 179.68 92.80 178.73 92.39 177.88 92.72 L 176.97 93.09 C 176.13 93.42 175.72 94.37 176.05 95.21 C 176.39 96.05 177.34 96.46 178.18 96.13 Z M 179.11 95.76 L 179.99 95.40 C 180.83 95.06 181.23 94.10 180.89 93.27 C 180.55 92.43 179.59 92.03 178.75 92.37 L 177.87 92.73 C 177.03 93.07 176.63 94.03 176.97 94.87 C 177.31 95.70 178.27 96.11 179.11 95.76 Z M 180.00 95.40 L 180.38 95.24 C 181.22 94.89 181.61 93.94 181.27 93.10 C 180.92 92.27 179.96 91.87 179.13 92.21 L 178.75 92.37 C 177.91 92.72 177.51 93.68 177.86 94.51 C 178.21 95.35 179.16 95.74 180.00 95.40 Z"
      fill="black"
      fill-rule="nonzero" /><path d="M 144.79 90.33 L 144.51 91.31 C 144.25 92.24 144.79 93.20 145.71 93.47 C 146.64 93.73 147.61 93.19 147.87 92.26 L 148.15 91.29 C 148.41 90.36 147.87 89.39 146.94 89.13 C 146.01 88.86 145.05 89.40 144.79 90.33 Z M 144.50 91.33 L 144.24 92.30 C 143.99 93.23 144.54 94.19 145.47 94.45 C 146.41 94.70 147.37 94.14 147.62 93.21 L 147.88 92.24 C 148.13 91.30 147.58 90.34 146.65 90.09 C 145.71 89.84 144.75 90.40 144.50 91.33 Z M 144.23 92.35 L 143.99 93.31 C 143.77 94.25 144.35 95.20 145.29 95.43 C 146.23 95.65 147.17 95.07 147.40 94.13 L 147.63 93.17 C 147.86 92.23 147.28 91.28 146.34 91.05 C 145.40 90.83 144.45 91.41 144.23 92.35 Z M 143.98 93.38 L 143.79 94.33 C 143.60 95.28 144.22 96.21 145.17 96.39 C 146.12 96.58 147.04 95.96 147.23 95.01 L 147.42 94.06 C 147.60 93.11 146.99 92.19 146.04 92.00 C 145.09 91.82 144.17 92.43 143.98 93.38 Z M 143.77 94.42 L 143.64 95.34 C 143.50 96.30 144.16 97.19 145.12 97.33 C 146.08 97.47 146.97 96.80 147.11 95.84 L 147.24 94.93 C 147.38 93.97 146.72 93.08 145.76 92.94 C 144.80 92.80 143.91 93.46 143.77 94.42 Z M 143.63 95.42 L 143.53 96.37 C 143.44 97.34 144.14 98.20 145.11 98.29 C 146.07 98.39 146.93 97.68 147.03 96.72 L 147.12 95.76 C 147.22 94.80 146.51 93.94 145.55 93.84 C 144.58 93.75 143.72 94.45 143.63 95.42 Z M 143.53 96.44 L 143.46 97.46 C 143.41 98.43 144.14 99.27 145.11 99.32 C 146.08 99.38 146.91 98.65 146.97 97.68 L 147.03 96.65 C 147.09 95.68 146.36 94.85 145.39 94.79 C 144.42 94.73 143.59 95.47 143.53 96.44 Z M 143.46 97.51 L 143.42 98.60 C 143.39 99.57 144.15 100.39 145.12 100.42 C 146.09 100.45 146.90 99.69 146.94 98.72 L 146.98 97.63 C 147.01 96.66 146.25 95.85 145.28 95.81 C 144.31 95.78 143.50 96.54 143.46 97.51 Z M 143.42 98.63 L 143.40 99.62 C 143.38 100.59 144.16 101.39 145.13 101.41 C 146.10 101.43 146.90 100.66 146.92 99.69 L 146.94 98.70 C 146.96 97.73 146.19 96.92 145.21 96.90 C 144.24 96.89 143.44 97.66 143.42 98.63 Z M 143.40 99.64 L 143.39 100.67 C 143.38 101.65 144.16 102.44 145.13 102.45 C 146.10 102.46 146.90 101.68 146.91 100.71 L 146.92 99.67 C 146.93 98.70 146.15 97.91 145.18 97.90 C 144.21 97.89 143.41 98.67 143.40 99.64 Z M 143.39 100.69 L 143.39 101.73 C 143.39 102.70 144.17 103.49 145.15 103.49 C 146.12 103.49 146.91 102.70 146.91 101.73 L 146.91 100.69 C 146.91 99.72 146.12 98.94 145.15 98.93 C 144.18 98.93 143.39 99.72 143.39 100.69 Z M 143.39 101.74 L 143.40 102.74 C 143.40 103.71 144.19 104.49 145.16 104.49 C 146.13 104.48 146.92 103.69 146.91 102.72 L 146.91 101.72 C 146.90 100.75 146.11 99.97 145.14 99.97 C 144.17 99.98 143.39 100.77 143.39 101.74 Z M 143.40 102.75 L 143.41 103.74 C 143.42 104.71 144.22 105.48 145.19 105.47 C 146.16 105.46 146.93 104.66 146.92 103.69 L 146.91 102.71 C 146.90 101.74 146.10 100.96 145.13 100.97 C 144.16 100.99 143.39 101.78 143.40 102.75 Z M 143.43 103.76 L 143.46 104.88 C 143.48 105.84 144.28 106.60 145.24 106.57 C 146.20 106.55 146.96 105.75 146.94 104.79 L 146.91 103.67 C 146.88 102.71 146.08 101.95 145.12 101.98 C 144.16 102.00 143.40 102.80 143.43 103.76 Z M 143.48 104.93 L 143.54 105.90 C 143.59 106.85 144.40 107.57 145.35 107.52 C 146.29 107.47 147.02 106.66 146.96 105.71 L 146.91 104.74 C 146.86 103.79 146.05 103.07 145.10 103.12 C 144.16 103.17 143.43 103.98 143.48 104.93 Z M 143.57 105.98 L 143.66 106.87 C 143.75 107.80 144.58 108.48 145.51 108.39 C 146.44 108.29 147.12 107.46 147.02 106.53 L 146.93 105.64 C 146.84 104.71 146.01 104.03 145.08 104.13 C 144.15 104.22 143.47 105.05 143.57 105.98 Z M 143.69 106.97 L 143.83 107.87 C 143.98 108.78 144.83 109.40 145.74 109.26 C 146.66 109.11 147.28 108.26 147.13 107.35 L 146.99 106.44 C 146.85 105.53 145.99 104.91 145.08 105.05 C 144.17 105.20 143.55 106.05 143.69 106.97 Z M 143.86 107.95 L 144.06 108.89 C 144.25 109.78 145.13 110.36 146.02 110.17 C 146.92 109.98 147.49 109.10 147.30 108.20 L 147.11 107.26 C 146.92 106.37 146.04 105.79 145.14 105.98 C 144.24 106.17 143.67 107.05 143.86 107.95 Z M 144.08 108.95 L 144.33 109.93 C 144.55 110.82 145.45 111.35 146.33 111.13 C 147.22 110.91 147.75 110.01 147.53 109.13 L 147.28 108.14 C 147.06 107.26 146.16 106.72 145.28 106.94 C 144.39 107.17 143.86 108.06 144.08 108.95 Z M 144.35 109.97 L 144.63 110.99 C 144.87 111.86 145.78 112.37 146.65 112.13 C 147.53 111.88 148.04 110.98 147.79 110.10 L 147.51 109.09 C 147.27 108.22 146.36 107.71 145.49 107.95 C 144.61 108.19 144.10 109.10 144.35 109.97 Z M 144.64 111.01 L 144.91 111.92 C 145.16 112.79 146.08 113.28 146.94 113.03 C 147.81 112.77 148.31 111.86 148.05 110.99 L 147.78 110.08 C 147.53 109.21 146.62 108.72 145.75 108.97 C 144.88 109.23 144.38 110.14 144.64 111.01 Z M 144.91 111.93 L 145.20 112.89 C 145.47 113.75 146.38 114.24 147.25 113.98 C 148.11 113.71 148.60 112.80 148.34 111.93 L 148.05 110.98 C 147.79 110.11 146.87 109.63 146.01 109.89 C 145.14 110.15 144.65 111.07 144.91 111.93 Z M 145.21 112.89 L 145.51 113.87 C 145.78 114.74 146.69 115.22 147.56 114.96 C 148.42 114.69 148.91 113.77 148.64 112.91 L 148.34 111.93 C 148.07 111.06 147.15 110.58 146.29 110.84 C 145.42 111.11 144.94 112.03 145.21 112.89 Z M 145.51 113.88 L 145.82 114.87 C 146.09 115.74 147.01 116.22 147.87 115.95 C 148.74 115.68 149.22 114.76 148.95 113.90 L 148.64 112.90 C 148.37 112.04 147.45 111.56 146.59 111.83 C 145.72 112.10 145.24 113.02 145.51 113.88 Z"
      fill="black"
      fill-rule="nonzero" /><path d="M 160.44 88.69 L 160.84 89.47 C 161.28 90.33 162.33 90.67 163.19 90.22 C 164.04 89.78 164.38 88.73 163.94 87.88 L 163.53 87.09 C 163.09 86.24 162.04 85.90 161.19 86.34 C 160.33 86.78 160.00 87.83 160.44 88.69 Z M 160.79 89.42 L 161.19 90.28 C 161.60 91.16 162.65 91.54 163.54 91.13 C 164.42 90.71 164.80 89.66 164.39 88.78 L 163.99 87.93 C 163.57 87.05 162.52 86.67 161.64 87.08 C 160.76 87.49 160.38 88.54 160.79 89.42 Z M 161.13 90.18 L 161.51 91.17 C 161.88 92.09 162.91 92.54 163.83 92.17 C 164.75 91.81 165.20 90.77 164.84 89.86 L 164.45 88.87 C 164.09 87.96 163.05 87.51 162.13 87.87 C 161.22 88.23 160.76 89.27 161.13 90.18 Z M 161.46 91.06 L 161.79 92.09 C 162.09 93.04 163.10 93.57 164.05 93.26 C 165.00 92.96 165.53 91.95 165.22 91.00 L 164.89 89.96 C 164.59 89.02 163.58 88.49 162.63 88.79 C 161.68 89.10 161.15 90.11 161.46 91.06 Z M 161.76 92.01 L 162.01 92.96 C 162.27 93.93 163.26 94.50 164.23 94.24 C 165.19 93.98 165.77 92.99 165.51 92.03 L 165.25 91.08 C 165.00 90.11 164.00 89.54 163.04 89.79 C 162.07 90.05 161.50 91.05 161.76 92.01 Z M 162.00 92.91 L 162.24 93.92 C 162.47 94.89 163.44 95.49 164.41 95.26 C 165.39 95.03 165.99 94.05 165.76 93.08 L 165.52 92.08 C 165.29 91.10 164.31 90.50 163.34 90.73 C 162.37 90.96 161.77 91.94 162.00 92.91 Z M 162.23 93.88 L 162.45 94.90 C 162.66 95.88 163.62 96.50 164.60 96.29 C 165.58 96.08 166.20 95.11 165.99 94.14 L 165.77 93.12 C 165.55 92.14 164.59 91.52 163.61 91.73 C 162.64 91.94 162.02 92.90 162.23 93.88 Z M 162.44 94.88 L 162.64 95.86 C 162.84 96.84 163.79 97.48 164.77 97.28 C 165.75 97.08 166.39 96.13 166.19 95.15 L 165.99 94.16 C 165.79 93.18 164.84 92.55 163.86 92.74 C 162.88 92.94 162.24 93.90 162.44 94.88 Z M 162.64 95.84 L 162.84 96.87 C 163.03 97.85 163.97 98.49 164.95 98.30 C 165.93 98.11 166.57 97.17 166.39 96.19 L 166.19 95.16 C 166.00 94.19 165.06 93.54 164.08 93.73 C 163.10 93.92 162.46 94.86 162.64 95.84 Z M 162.85 96.85 L 163.05 97.91 C 163.22 98.89 164.15 99.53 165.12 99.36 C 166.09 99.18 166.74 98.25 166.56 97.28 L 166.37 96.21 C 166.20 95.24 165.27 94.59 164.30 94.77 C 163.32 94.95 162.68 95.88 162.85 96.85 Z M 163.06 97.88 L 163.22 98.83 C 163.38 99.79 164.28 100.45 165.24 100.29 C 166.20 100.13 166.86 99.23 166.70 98.27 L 166.55 97.31 C 166.39 96.35 165.48 95.70 164.52 95.86 C 163.56 96.01 162.91 96.92 163.06 97.88 Z M 163.24 98.79 L 163.36 99.69 C 163.50 100.64 164.38 101.30 165.33 101.17 C 166.28 101.04 166.94 100.16 166.81 99.21 L 166.68 98.31 C 166.55 97.36 165.67 96.70 164.72 96.83 C 163.77 96.96 163.11 97.84 163.24 98.79 Z M 163.38 99.64 L 163.49 100.58 C 163.60 101.52 164.45 102.20 165.39 102.09 C 166.33 101.98 167.01 101.13 166.90 100.19 L 166.79 99.25 C 166.68 98.31 165.83 97.64 164.89 97.74 C 163.95 97.85 163.27 98.70 163.38 99.64 Z M 163.51 100.54 L 163.59 101.52 C 163.68 102.45 164.50 103.14 165.44 103.05 C 166.37 102.97 167.06 102.15 166.97 101.21 L 166.88 100.23 C 166.80 99.30 165.97 98.61 165.04 98.70 C 164.11 98.78 163.42 99.60 163.51 100.54 Z M 163.61 101.48 L 163.68 102.48 C 163.74 103.41 164.54 104.11 165.46 104.05 C 166.38 103.98 167.08 103.19 167.02 102.26 L 166.96 101.25 C 166.89 100.33 166.10 99.63 165.17 99.69 C 164.25 99.75 163.55 100.55 163.61 101.48 Z M 163.69 102.44 L 163.74 103.46 C 163.78 104.38 164.55 105.09 165.47 105.05 C 166.38 105.01 167.09 104.23 167.05 103.32 L 167.01 102.30 C 166.97 101.38 166.19 100.68 165.28 100.71 C 164.36 100.75 163.65 101.53 163.69 102.44 Z M 163.75 103.43 L 163.77 104.40 C 163.79 105.31 164.55 106.03 165.46 106.01 C 166.37 105.98 167.09 105.23 167.07 104.32 L 167.04 103.35 C 167.02 102.44 166.26 101.72 165.35 101.74 C 164.44 101.76 163.72 102.52 163.75 103.43 Z M 163.77 104.38 L 163.78 105.37 C 163.79 106.28 164.54 107.01 165.45 107.00 C 166.36 106.99 167.08 106.24 167.07 105.33 L 167.06 104.34 C 167.05 103.43 166.31 102.70 165.40 102.71 C 164.49 102.72 163.76 103.47 163.77 104.38 Z M 163.79 105.36 L 163.79 106.38 C 163.79 107.28 164.53 108.02 165.44 108.01 C 166.34 108.01 167.08 107.27 167.07 106.37 L 167.07 105.35 C 167.07 104.44 166.33 103.71 165.42 103.71 C 164.52 103.71 163.78 104.45 163.79 105.36 Z M 163.79 106.37 L 163.79 107.39 C 163.79 108.30 164.53 109.03 165.43 109.03 C 166.34 109.03 167.07 108.30 167.07 107.39 L 167.07 106.37 C 167.07 105.47 166.34 104.73 165.43 104.73 C 164.53 104.73 163.79 105.47 163.79 106.37 Z M 163.79 107.39 L 163.79 108.38 C 163.79 109.28 164.53 110.01 165.43 110.01 C 166.34 110.01 167.07 109.28 167.07 108.38 L 167.07 107.39 C 167.07 106.49 166.34 105.75 165.43 105.75 C 164.53 105.75 163.79 106.49 163.79 107.39 Z M 163.79 108.38 L 163.79 109.38 C 163.79 110.28 164.53 111.01 165.43 111.01 C 166.34 111.01 167.07 110.28 167.07 109.38 L 167.07 108.38 C 167.07 107.47 166.34 106.74 165.43 106.74 C 164.53 106.74 163.79 107.47 163.79 108.38 Z M 163.79 109.38 L 163.79 110.39 C 163.79 111.29 164.53 112.02 165.43 112.02 C 166.34 112.02 167.07 111.29 167.07 110.39 L 167.07 109.38 C 167.07 108.47 166.34 107.74 165.43 107.74 C 164.53 107.74 163.79 108.47 163.79 109.38 Z M 163.79 110.39 L 163.79 111.24 C 163.79 112.14 164.53 112.88 165.43 112.88 C 166.34 112.88 167.07 112.14 167.07 111.24 L 167.07 110.39 C 167.07 109.48 166.34 108.75 165.43 108.75 C 164.53 108.75 163.79 109.48 163.79 110.39 Z"
      fill="black"
      fill-rule="nonzero" /><path d="M 148.82 122.68 L 149.69 123.06 C 150.59 123.44 151.63 123.03 152.01 122.14 C 152.40 121.24 151.99 120.20 151.09 119.81 L 150.22 119.43 C 149.32 119.05 148.28 119.46 147.90 120.35 C 147.51 121.25 147.92 122.29 148.82 122.68 Z M 149.75 123.08 L 150.66 123.44 C 151.57 123.79 152.59 123.34 152.95 122.43 C 153.30 121.52 152.85 120.49 151.94 120.14 L 151.03 119.78 C 150.12 119.43 149.10 119.88 148.74 120.79 C 148.39 121.70 148.84 122.73 149.75 123.08 Z M 150.77 123.48 L 151.74 123.78 C 152.68 124.07 153.67 123.54 153.96 122.61 C 154.25 121.67 153.72 120.68 152.79 120.39 L 151.82 120.09 C 150.89 119.80 149.89 120.33 149.60 121.26 C 149.31 122.20 149.84 123.19 150.77 123.48 Z M 151.90 123.82 L 152.93 124.04 C 153.89 124.24 154.83 123.62 155.03 122.66 C 155.23 121.71 154.61 120.77 153.66 120.57 L 152.63 120.35 C 151.67 120.15 150.73 120.76 150.53 121.72 C 150.33 122.68 150.94 123.62 151.90 123.82 Z M 153.08 124.05 L 154.06 124.16 C 155.02 124.28 155.90 123.59 156.02 122.63 C 156.13 121.66 155.44 120.79 154.48 120.67 L 153.50 120.55 C 152.54 120.44 151.66 121.13 151.55 122.09 C 151.43 123.06 152.12 123.93 153.08 124.05 Z M 154.16 124.15 L 155.18 124.21 C 156.14 124.28 156.96 123.55 157.02 122.59 C 157.08 121.63 156.35 120.81 155.40 120.75 L 154.38 120.68 C 153.42 120.62 152.60 121.35 152.54 122.31 C 152.48 123.27 153.20 124.09 154.16 124.15 Z M 155.24 124.19 L 156.27 124.22 C 157.21 124.25 158.00 123.50 158.02 122.55 C 158.05 121.61 157.30 120.82 156.36 120.80 L 155.33 120.77 C 154.39 120.74 153.60 121.49 153.58 122.44 C 153.55 123.38 154.30 124.17 155.24 124.19 Z M 156.30 124.20 L 157.30 124.20 C 158.23 124.21 158.99 123.46 158.99 122.53 C 159.00 121.59 158.25 120.83 157.32 120.83 L 156.32 120.82 C 155.39 120.81 154.63 121.57 154.62 122.50 C 154.62 123.43 155.37 124.19 156.30 124.20 Z M 157.31 124.19 L 158.36 124.19 C 159.29 124.19 160.03 123.44 160.03 122.52 C 160.03 121.59 159.29 120.84 158.36 120.84 L 157.31 120.84 C 156.38 120.84 155.63 121.59 155.63 122.51 C 155.63 123.44 156.38 124.19 157.31 124.19 Z M 158.36 124.17 L 159.39 124.17 C 160.31 124.17 161.05 123.43 161.05 122.51 C 161.05 121.60 160.31 120.86 159.39 120.86 L 158.36 120.86 C 157.45 120.86 156.70 121.60 156.70 122.51 C 156.70 123.43 157.45 124.17 158.36 124.17 Z M 159.39 124.17 L 160.36 124.17 C 161.27 124.17 162.01 123.43 162.01 122.51 C 162.01 121.60 161.27 120.86 160.36 120.86 L 159.39 120.86 C 158.48 120.86 157.74 121.60 157.74 122.51 C 157.74 123.43 158.48 124.17 159.39 124.17 Z M 160.36 124.16 L 161.29 124.16 C 162.20 124.16 162.93 123.42 162.93 122.51 C 162.93 121.61 162.20 120.87 161.29 120.87 L 160.36 120.87 C 159.45 120.87 158.72 121.61 158.72 122.51 C 158.72 123.42 159.45 124.16 160.36 124.16 Z"
      fill="black"
      fill-rule="nonzero" /><path d="M 139.12 144.93 L 140.11 144.81 C 141.06 144.69 141.74 143.82 141.62 142.87 C 141.50 141.93 140.64 141.25 139.69 141.37 L 138.70 141.49 C 137.75 141.61 137.07 142.47 137.19 143.42 C 137.31 144.37 138.17 145.05 139.12 144.93 Z M 140.15 144.80 L 141.14 144.66 C 142.09 144.52 142.74 143.64 142.60 142.69 C 142.47 141.75 141.59 141.09 140.64 141.23 L 139.65 141.37 C 138.70 141.51 138.05 142.39 138.19 143.34 C 138.32 144.28 139.20 144.94 140.15 144.80 Z M 141.21 144.65 L 142.20 144.46 C 143.14 144.28 143.75 143.37 143.57 142.43 C 143.39 141.49 142.49 140.88 141.55 141.05 L 140.57 141.24 C 139.63 141.42 139.01 142.33 139.19 143.27 C 139.37 144.21 140.27 144.82 141.21 144.65 Z M 142.30 144.43 L 143.18 144.21 C 144.10 143.98 144.67 143.03 144.43 142.11 C 144.20 141.18 143.25 140.62 142.33 140.85 L 141.45 141.08 C 140.52 141.31 139.96 142.25 140.19 143.18 C 140.43 144.11 141.37 144.67 142.30 144.43 Z M 143.27 144.18 L 144.13 143.91 C 145.04 143.63 145.55 142.66 145.26 141.75 C 144.97 140.84 144.01 140.33 143.09 140.61 L 142.24 140.88 C 141.32 141.17 140.82 142.14 141.10 143.05 C 141.39 143.96 142.36 144.47 143.27 144.18 Z M 144.19 143.89 L 145.12 143.56 C 146.02 143.24 146.49 142.25 146.17 141.35 C 145.85 140.46 144.87 139.99 143.97 140.31 L 143.03 140.64 C 142.14 140.96 141.67 141.94 141.99 142.84 C 142.31 143.74 143.29 144.21 144.19 143.89 Z M 145.16 143.54 L 146.22 143.14 C 147.11 142.80 147.56 141.81 147.22 140.92 C 146.88 140.03 145.89 139.58 145.00 139.92 L 143.94 140.32 C 143.05 140.66 142.60 141.65 142.94 142.54 C 143.27 143.43 144.27 143.88 145.16 143.54 Z M 146.23 143.13 L 147.15 142.77 C 148.03 142.43 148.47 141.44 148.13 140.55 C 147.79 139.67 146.80 139.23 145.91 139.57 L 144.99 139.93 C 144.11 140.27 143.67 141.26 144.01 142.15 C 144.35 143.03 145.34 143.47 146.23 143.13 Z M 147.15 142.77 L 148.05 142.42 C 148.93 142.07 149.37 141.08 149.02 140.20 C 148.68 139.32 147.69 138.89 146.81 139.23 L 145.91 139.58 C 145.03 139.92 144.59 140.91 144.94 141.79 C 145.28 142.67 146.27 143.11 147.15 142.77 Z M 148.05 142.41 L 149.00 142.04 C 149.88 141.69 150.31 140.70 149.96 139.83 C 149.62 138.95 148.63 138.52 147.75 138.86 L 146.81 139.24 C 145.93 139.58 145.50 140.57 145.84 141.45 C 146.19 142.32 147.18 142.75 148.05 142.41 Z M 149.01 142.03 L 149.97 141.64 C 150.84 141.29 151.27 140.31 150.92 139.44 C 150.57 138.56 149.59 138.14 148.71 138.49 L 147.75 138.87 C 146.88 139.22 146.45 140.21 146.80 141.08 C 147.15 141.95 148.13 142.37 149.01 142.03 Z M 149.98 141.63 L 150.94 141.24 C 151.81 140.89 152.23 139.91 151.87 139.04 C 151.52 138.17 150.54 137.75 149.67 138.11 L 148.71 138.50 C 147.84 138.85 147.42 139.83 147.77 140.70 C 148.13 141.57 149.11 141.98 149.98 141.63 Z M 150.95 141.23 L 151.89 140.85 C 152.75 140.49 153.16 139.50 152.80 138.64 C 152.45 137.78 151.46 137.37 150.60 137.73 L 149.66 138.12 C 148.80 138.47 148.39 139.46 148.75 140.32 C 149.10 141.18 150.09 141.59 150.95 141.23 Z M 151.90 140.83 L 152.90 140.41 C 153.75 140.05 154.15 139.06 153.79 138.21 C 153.43 137.35 152.44 136.95 151.59 137.32 L 150.59 137.74 C 149.73 138.10 149.33 139.09 149.70 139.94 C 150.06 140.80 151.05 141.20 151.90 140.83 Z M 152.91 140.40 L 153.86 139.99 C 154.70 139.62 155.09 138.63 154.72 137.78 C 154.35 136.93 153.37 136.55 152.52 136.92 L 151.57 137.33 C 150.73 137.70 150.34 138.68 150.71 139.53 C 151.08 140.38 152.06 140.77 152.91 140.40 Z M 153.87 139.98 L 154.77 139.57 C 155.61 139.20 155.99 138.21 155.61 137.37 C 155.24 136.53 154.25 136.15 153.41 136.53 L 152.51 136.93 C 151.67 137.30 151.29 138.29 151.66 139.13 C 152.04 139.97 153.02 140.35 153.87 139.98 Z M 154.78 139.56 L 155.65 139.17 C 156.49 138.79 156.86 137.80 156.48 136.97 C 156.10 136.13 155.11 135.76 154.27 136.14 L 153.40 136.54 C 152.57 136.91 152.19 137.90 152.57 138.74 C 152.95 139.57 153.94 139.94 154.78 139.56 Z M 155.65 139.16 L 156.51 138.77 C 157.34 138.39 157.70 137.40 157.32 136.57 C 156.94 135.74 155.96 135.37 155.12 135.76 L 154.27 136.15 C 153.44 136.53 153.07 137.51 153.46 138.35 C 153.84 139.18 154.82 139.54 155.65 139.16 Z M 156.51 138.76 L 157.46 138.32 C 158.29 137.94 158.65 136.96 158.26 136.13 C 157.88 135.30 156.89 134.94 156.07 135.32 L 155.12 135.76 C 154.29 136.15 153.93 137.13 154.32 137.96 C 154.70 138.79 155.68 139.15 156.51 138.76 Z M 157.46 138.32 L 158.40 137.88 C 159.22 137.49 159.58 136.51 159.19 135.68 C 158.80 134.86 157.82 134.50 156.99 134.89 L 156.06 135.33 C 155.23 135.72 154.88 136.70 155.27 137.52 C 155.65 138.35 156.64 138.71 157.46 138.32 Z M 158.41 137.87 L 159.31 137.44 C 160.13 137.05 160.48 136.06 160.09 135.24 C 159.70 134.42 158.71 134.07 157.89 134.46 L 156.98 134.90 C 156.16 135.29 155.81 136.27 156.21 137.10 C 156.60 137.92 157.58 138.27 158.41 137.87 Z M 159.33 137.43 L 160.19 137.01 C 161.01 136.61 161.34 135.62 160.94 134.80 C 160.54 133.99 159.56 133.65 158.74 134.05 L 157.87 134.47 C 157.06 134.87 156.72 135.86 157.12 136.68 C 157.52 137.49 158.51 137.83 159.33 137.43 Z M 160.21 136.99 L 161.10 136.54 C 161.91 136.13 162.24 135.14 161.82 134.33 C 161.41 133.52 160.42 133.20 159.61 133.61 L 158.72 134.06 C 157.91 134.47 157.59 135.47 158.00 136.27 C 158.41 137.08 159.40 137.41 160.21 136.99 Z M 161.13 136.52 L 162.05 136.03 C 162.86 135.60 163.16 134.61 162.73 133.80 C 162.30 133.00 161.30 132.70 160.50 133.13 L 159.58 133.62 C 158.78 134.05 158.48 135.05 158.91 135.85 C 159.34 136.65 160.33 136.95 161.13 136.52 Z M 162.09 136.01 L 162.95 135.52 C 163.74 135.08 164.01 134.07 163.56 133.28 C 163.12 132.50 162.11 132.22 161.32 132.67 L 160.47 133.15 C 159.68 133.60 159.40 134.60 159.85 135.39 C 160.30 136.18 161.30 136.46 162.09 136.01 Z M 162.98 135.50 L 163.79 135.02 C 164.57 134.55 164.82 133.54 164.35 132.76 C 163.88 131.99 162.87 131.73 162.10 132.20 L 161.29 132.69 C 160.51 133.16 160.26 134.16 160.73 134.94 C 161.20 135.72 162.21 135.97 162.98 135.50 Z M 163.83 135.01 L 164.94 134.30 C 165.71 133.81 165.94 132.79 165.45 132.01 C 164.96 131.24 163.93 131.02 163.16 131.51 L 162.05 132.21 C 161.28 132.70 161.05 133.73 161.54 134.50 C 162.04 135.27 163.06 135.50 163.83 135.01 Z M 164.88 134.38 L 165.63 133.95 C 166.44 133.50 166.73 132.47 166.27 131.65 C 165.82 130.84 164.79 130.55 163.97 131.01 L 163.22 131.43 C 162.41 131.89 162.12 132.92 162.58 133.73 C 163.03 134.55 164.07 134.84 164.88 134.38 Z M 163.14 132.01 L 163.07 132.26 C 162.81 133.17 163.34 134.13 164.26 134.39 C 165.17 134.65 166.13 134.12 166.39 133.20 L 166.46 132.96 C 166.72 132.04 166.19 131.08 165.28 130.82 C 164.36 130.56 163.40 131.09 163.14 132.01 Z M 163.39 131.60 L 162.83 132.26 C 162.21 133.00 162.30 134.10 163.04 134.73 C 163.78 135.35 164.88 135.26 165.51 134.52 L 166.07 133.86 C 166.69 133.12 166.60 132.02 165.86 131.39 C 165.12 130.77 164.02 130.86 163.39 131.60 Z M 162.84 132.21 L 162.03 133.12 C 161.38 133.86 161.44 134.98 162.17 135.63 C 162.90 136.28 164.03 136.22 164.68 135.49 L 165.49 134.57 C 166.15 133.84 166.08 132.72 165.35 132.07 C 164.62 131.41 163.50 131.48 162.84 132.21 Z M 162.00 133.13 L 161.19 134.06 C 160.54 134.81 160.63 135.94 161.38 136.59 C 162.12 137.24 163.26 137.16 163.91 136.41 L 164.71 135.48 C 165.36 134.73 165.28 133.60 164.53 132.95 C 163.78 132.30 162.65 132.38 162.00 133.13 Z M 161.15 134.09 L 160.52 134.87 C 159.89 135.64 160.01 136.78 160.78 137.41 C 161.55 138.04 162.69 137.92 163.32 137.15 L 163.95 136.37 C 164.58 135.60 164.46 134.46 163.69 133.83 C 162.92 133.20 161.78 133.32 161.15 134.09 Z M 160.48 134.92 L 159.88 135.70 C 159.28 136.50 159.43 137.63 160.23 138.24 C 161.02 138.84 162.15 138.69 162.76 137.89 L 163.36 137.10 C 163.96 136.31 163.81 135.18 163.01 134.57 C 162.22 133.97 161.08 134.12 160.48 134.92 Z M 159.84 135.75 L 159.27 136.56 C 158.69 137.37 158.88 138.50 159.70 139.08 C 160.51 139.66 161.64 139.47 162.22 138.65 L 162.80 137.85 C 163.37 137.03 163.18 135.90 162.37 135.32 C 161.55 134.74 160.42 134.93 159.84 135.75 Z M 159.23 136.61 L 158.68 137.44 C 158.13 138.27 158.36 139.40 159.19 139.95 C 160.03 140.50 161.15 140.27 161.71 139.44 L 162.26 138.61 C 162.81 137.77 162.58 136.65 161.75 136.10 C 160.91 135.54 159.79 135.77 159.23 136.61 Z M 158.65 137.48 L 158.15 138.28 C 157.62 139.14 157.88 140.25 158.74 140.78 C 159.59 141.31 160.70 141.05 161.23 140.20 L 161.73 139.40 C 162.26 138.54 162.00 137.43 161.15 136.90 C 160.30 136.37 159.18 136.63 158.65 137.48 Z M 158.13 138.33 L 157.63 139.17 C 157.13 140.03 157.42 141.15 158.28 141.65 C 159.15 142.16 160.26 141.87 160.76 141.00 L 161.26 140.16 C 161.77 139.29 161.47 138.18 160.61 137.68 C 159.75 137.17 158.63 137.46 158.13 138.33 Z M 157.61 139.21 L 157.12 140.10 C 156.64 140.97 156.96 142.08 157.83 142.56 C 158.71 143.04 159.82 142.73 160.30 141.85 L 160.79 140.96 C 161.27 140.09 160.95 138.98 160.08 138.50 C 159.20 138.01 158.09 138.33 157.61 139.21 Z M 157.10 140.14 L 156.62 141.06 C 156.16 141.95 156.50 143.05 157.39 143.51 C 158.28 143.97 159.38 143.63 159.84 142.74 L 160.32 141.81 C 160.78 140.92 160.44 139.82 159.55 139.36 C 158.66 138.90 157.56 139.25 157.10 140.14 Z M 156.60 141.10 L 156.18 141.96 C 155.74 142.86 156.11 143.94 157.01 144.38 C 157.91 144.83 158.99 144.46 159.44 143.56 L 159.86 142.70 C 160.30 141.80 159.93 140.71 159.03 140.27 C 158.13 139.83 157.04 140.20 156.60 141.10 Z M 156.16 141.99 L 155.78 142.80 C 155.36 143.71 155.76 144.79 156.66 145.21 C 157.57 145.64 158.65 145.24 159.07 144.33 L 159.45 143.52 C 159.88 142.61 159.48 141.53 158.57 141.11 C 157.66 140.69 156.59 141.08 156.16 141.99 Z M 155.77 142.84 L 155.39 143.70 C 154.99 144.62 155.41 145.69 156.33 146.09 C 157.25 146.49 158.31 146.07 158.72 145.16 L 159.09 144.30 C 159.49 143.38 159.07 142.31 158.16 141.91 C 157.24 141.51 156.17 141.93 155.77 142.84 Z M 155.37 143.75 L 155.00 144.67 C 154.62 145.60 155.07 146.65 155.99 147.03 C 156.92 147.41 157.98 146.96 158.36 146.04 L 158.73 145.11 C 159.11 144.19 158.67 143.13 157.74 142.75 C 156.81 142.37 155.75 142.82 155.37 143.75 Z M 154.98 144.71 L 154.61 145.71 C 154.25 146.64 154.72 147.69 155.66 148.04 C 156.60 148.40 157.64 147.93 158.00 146.99 L 158.37 145.99 C 158.73 145.06 158.26 144.01 157.32 143.66 C 156.38 143.30 155.34 143.77 154.98 144.71 Z M 154.59 145.75 L 154.21 146.83 C 153.88 147.77 154.38 148.81 155.32 149.14 C 156.27 149.47 157.30 148.97 157.63 148.03 L 158.01 146.95 C 158.34 146.00 157.84 144.97 156.90 144.64 C 155.96 144.31 154.92 144.80 154.59 145.75 Z M 154.20 146.87 L 153.88 147.84 C 153.57 148.79 154.09 149.82 155.04 150.13 C 155.99 150.44 157.01 149.92 157.32 148.97 L 157.64 147.99 C 157.95 147.04 157.43 146.02 156.48 145.71 C 155.53 145.40 154.51 145.92 154.20 146.87 Z M 153.87 147.87 L 153.57 148.86 C 153.27 149.82 153.81 150.83 154.76 151.12 C 155.72 151.42 156.73 150.88 157.02 149.93 L 157.33 148.94 C 157.63 147.99 157.09 146.97 156.14 146.68 C 155.18 146.38 154.17 146.92 153.87 147.87 Z M 153.56 148.88 L 153.27 149.90 C 152.98 150.85 153.53 151.86 154.49 152.14 C 155.45 152.42 156.45 151.87 156.73 150.92 L 157.03 149.91 C 157.31 148.95 156.76 147.94 155.81 147.66 C 154.85 147.38 153.85 147.93 153.56 148.88 Z M 153.26 149.92 L 152.98 150.93 C 152.71 151.89 153.27 152.89 154.22 153.16 C 155.18 153.43 156.18 152.87 156.45 151.91 L 156.74 150.90 C 157.01 149.94 156.45 148.94 155.49 148.67 C 154.53 148.40 153.53 148.96 153.26 149.92 Z M 152.97 150.95 L 152.71 151.94 C 152.45 152.90 153.02 153.89 153.98 154.15 C 154.94 154.41 155.93 153.84 156.19 152.88 L 156.45 151.89 C 156.71 150.93 156.14 149.94 155.18 149.68 C 154.22 149.42 153.23 149.99 152.97 150.95 Z M 152.70 151.96 L 152.46 152.91 C 152.21 153.87 152.79 154.85 153.76 155.10 C 154.72 155.35 155.70 154.77 155.95 153.80 L 156.19 152.86 C 156.44 151.89 155.86 150.91 154.89 150.67 C 153.93 150.42 152.95 151.00 152.70 151.96 Z M 152.46 152.93 L 152.24 153.81 C 152.01 154.78 152.60 155.75 153.57 155.98 C 154.53 156.22 155.51 155.62 155.74 154.66 L 155.95 153.78 C 156.19 152.81 155.59 151.84 154.63 151.61 C 153.66 151.37 152.69 151.97 152.46 152.93 Z M 152.24 153.85 L 151.99 154.99 C 151.77 155.96 152.38 156.92 153.35 157.13 C 154.32 157.35 155.27 156.74 155.49 155.77 L 155.74 154.62 C 155.96 153.65 155.35 152.70 154.38 152.48 C 153.41 152.27 152.46 152.88 152.24 153.85 Z M 151.98 155.05 L 151.78 156.13 C 151.59 157.10 152.23 158.04 153.20 158.22 C 154.17 158.40 155.10 157.77 155.28 156.80 L 155.49 155.72 C 155.68 154.75 155.04 153.81 154.07 153.63 C 153.10 153.44 152.17 154.08 151.98 155.05 Z M 151.78 156.19 L 151.63 157.11 C 151.48 158.08 152.14 158.99 153.11 159.14 C 154.08 159.30 154.99 158.63 155.14 157.66 L 155.29 156.74 C 155.44 155.77 154.78 154.86 153.81 154.71 C 152.84 154.56 151.93 155.22 151.78 156.19 Z M 151.63 157.16 L 151.53 157.99 C 151.40 158.96 152.08 159.85 153.05 159.97 C 154.02 160.10 154.91 159.42 155.03 158.45 L 155.14 157.62 C 155.26 156.65 154.58 155.76 153.61 155.64 C 152.65 155.51 151.76 156.19 151.63 157.16 Z M 151.53 158.01 L 151.43 158.90 C 151.31 159.86 152.00 160.73 152.97 160.85 C 153.93 160.96 154.81 160.27 154.92 159.31 L 155.03 158.43 C 155.14 157.46 154.45 156.59 153.48 156.47 C 152.52 156.36 151.65 157.05 151.53 158.01 Z M 151.43 158.90 L 151.32 159.87 C 151.21 160.83 151.90 161.70 152.86 161.81 C 153.82 161.93 154.69 161.24 154.80 160.27 L 154.92 159.30 C 155.03 158.34 154.34 157.47 153.38 157.36 C 152.41 157.25 151.54 157.94 151.43 158.90 Z M 151.32 159.88 L 151.21 160.87 C 151.10 161.83 151.79 162.70 152.75 162.81 C 153.71 162.91 154.58 162.22 154.69 161.26 L 154.80 160.27 C 154.91 159.31 154.22 158.44 153.26 158.34 C 152.30 158.23 151.43 158.92 151.32 159.88 Z M 151.22 160.88 L 151.10 161.91 C 151.00 162.87 151.69 163.73 152.65 163.83 C 153.61 163.94 154.47 163.24 154.57 162.29 L 154.68 161.26 C 154.79 160.30 154.10 159.44 153.14 159.34 C 152.18 159.23 151.32 159.92 151.22 160.88 Z M 151.11 161.92 L 151.00 162.91 C 150.90 163.87 151.60 164.72 152.55 164.82 C 153.51 164.92 154.36 164.23 154.46 163.27 L 154.57 162.28 C 154.67 161.32 153.97 160.47 153.02 160.37 C 152.06 160.27 151.21 160.96 151.11 161.92 Z M 151.01 162.92 L 150.91 163.93 C 150.82 164.88 151.51 165.73 152.46 165.82 C 153.42 165.92 154.26 165.22 154.36 164.27 L 154.46 163.26 C 154.55 162.31 153.86 161.46 152.90 161.37 C 151.95 161.27 151.10 161.97 151.01 162.92 Z M 150.91 163.95 L 150.82 164.95 C 150.74 165.90 151.44 166.74 152.39 166.82 C 153.34 166.91 154.18 166.21 154.26 165.26 L 154.35 164.25 C 154.44 163.30 153.74 162.47 152.79 162.38 C 151.84 162.29 151.00 163.00 150.91 163.95 Z M 150.83 164.97 L 150.75 165.96 C 150.68 166.91 151.39 167.73 152.33 167.81 C 153.28 167.88 154.11 167.17 154.18 166.22 L 154.26 165.23 C 154.33 164.29 153.62 163.46 152.68 163.39 C 151.73 163.31 150.90 164.02 150.83 164.97 Z M 150.76 165.99 L 150.69 167.02 C 150.63 167.96 151.35 168.78 152.30 168.83 C 153.24 168.89 154.06 168.17 154.12 167.23 L 154.18 166.20 C 154.24 165.25 153.52 164.44 152.57 164.38 C 151.63 164.32 150.81 165.04 150.76 165.99 Z M 150.70 167.05 L 150.65 168.04 C 150.61 168.98 151.34 169.78 152.28 169.82 C 153.23 169.87 154.02 169.13 154.07 168.19 L 154.11 167.20 C 154.15 166.26 153.42 165.46 152.48 165.41 C 151.54 165.37 150.74 166.10 150.70 167.05 Z M 150.66 168.06 L 150.63 169.04 C 150.60 169.98 151.34 170.76 152.28 170.79 C 153.22 170.82 154.01 170.08 154.03 169.14 L 154.06 168.17 C 154.09 167.23 153.35 166.44 152.41 166.41 C 151.47 166.38 150.68 167.12 150.66 168.06 Z M 150.63 169.06 L 150.62 169.97 C 150.60 170.91 151.35 171.68 152.28 171.70 C 153.22 171.71 154.00 170.97 154.01 170.03 L 154.03 169.12 C 154.05 168.18 153.30 167.41 152.36 167.39 C 151.42 167.37 150.65 168.12 150.63 169.06 Z M 150.62 169.98 L 150.61 170.91 C 150.60 171.85 151.36 172.61 152.29 172.62 C 153.23 172.63 153.99 171.88 154.00 170.94 L 154.01 170.01 C 154.02 169.08 153.26 168.31 152.33 168.31 C 151.39 168.30 150.63 169.05 150.62 169.98 Z M 150.62 170.92 L 150.61 171.93 C 150.61 172.86 151.37 173.62 152.30 173.62 C 153.23 173.63 153.99 172.87 153.99 171.94 L 154.00 170.93 C 154.00 170.00 153.24 169.24 152.31 169.24 C 151.38 169.23 150.62 169.99 150.62 170.92 Z M 150.62 171.93 L 150.62 173.08 C 150.62 174.01 151.37 174.76 152.30 174.76 C 153.23 174.76 153.99 174.01 153.99 173.08 L 153.99 171.94 C 153.99 171.01 153.23 170.25 152.30 170.25 C 151.37 170.25 150.62 171.00 150.62 171.93 Z M 150.62 173.08 L 150.62 173.99 C 150.62 174.92 151.38 175.67 152.30 175.67 C 153.23 175.67 153.98 174.92 153.98 173.99 L 153.98 173.08 C 153.98 172.15 153.23 171.40 152.30 171.40 C 151.37 171.40 150.62 172.15 150.62 173.08 Z M 150.63 173.99 L 150.63 174.97 C 150.63 175.90 151.38 176.65 152.31 176.64 C 153.23 176.64 153.98 175.89 153.98 174.97 L 153.98 173.99 C 153.98 173.06 153.23 172.31 152.30 172.31 C 151.37 172.31 150.63 173.07 150.63 173.99 Z M 150.63 174.97 L 150.63 176.00 C 150.64 176.92 151.39 177.67 152.31 177.66 C 153.24 177.66 153.98 176.91 153.98 175.99 L 153.98 174.96 C 153.97 174.04 153.22 173.29 152.30 173.30 C 151.38 173.30 150.63 174.05 150.63 174.97 Z M 150.64 176.00 L 150.64 177.04 C 150.65 177.96 151.40 178.71 152.32 178.70 C 153.24 178.70 153.99 177.95 153.98 177.02 L 153.98 175.98 C 153.97 175.06 153.22 174.32 152.30 174.32 C 151.38 174.33 150.63 175.08 150.64 176.00 Z M 150.65 177.05 L 150.66 178.09 C 150.66 179.01 151.42 179.75 152.34 179.74 C 153.26 179.73 154.00 178.98 153.99 178.06 L 153.98 177.02 C 153.97 176.10 153.22 175.36 152.30 175.37 C 151.38 175.38 150.64 176.13 150.65 177.05 Z M 150.66 178.10 L 150.68 179.17 C 150.69 180.09 151.44 180.83 152.36 180.81 C 153.28 180.80 154.01 180.04 154.00 179.13 L 153.98 178.05 C 153.97 177.13 153.21 176.40 152.30 176.41 C 151.38 176.42 150.65 177.18 150.66 178.10 Z M 150.68 179.20 L 150.71 180.26 C 150.74 181.17 151.50 181.89 152.42 181.87 C 153.33 181.84 154.05 181.07 154.03 180.16 L 153.99 179.10 C 153.97 178.19 153.20 177.47 152.29 177.49 C 151.37 177.52 150.65 178.29 150.68 179.20 Z M 150.72 180.31 L 150.78 181.32 C 150.84 182.23 151.62 182.92 152.53 182.87 C 153.44 182.81 154.14 182.03 154.08 181.12 L 154.02 180.11 C 153.96 179.20 153.18 178.50 152.27 178.56 C 151.36 178.62 150.66 179.40 150.72 180.31 Z M 150.79 181.40 L 150.90 182.36 C 151.00 183.26 151.82 183.91 152.72 183.81 C 153.63 183.71 154.28 182.89 154.18 181.99 L 154.07 181.04 C 153.97 180.13 153.15 179.48 152.25 179.58 C 151.34 179.68 150.69 180.50 150.79 181.40 Z M 150.92 182.47 L 151.09 183.36 C 151.25 184.26 152.11 184.84 153.00 184.68 C 153.90 184.51 154.49 183.66 154.32 182.76 L 154.15 181.87 C 153.99 180.98 153.13 180.39 152.24 180.56 C 151.35 180.72 150.76 181.58 150.92 182.47 Z M 151.13 183.53 L 151.42 184.52 C 151.68 185.39 152.59 185.88 153.46 185.63 C 154.33 185.37 154.82 184.46 154.57 183.59 L 154.28 182.60 C 154.02 181.73 153.11 181.23 152.24 181.49 C 151.37 181.74 150.87 182.66 151.13 183.53 Z M 151.48 184.68 L 151.86 185.60 C 152.20 186.44 153.16 186.84 154.00 186.50 C 154.84 186.16 155.24 185.20 154.89 184.36 L 154.51 183.43 C 154.17 182.59 153.21 182.19 152.37 182.54 C 151.54 182.88 151.13 183.84 151.48 184.68 Z M 151.91 185.72 L 152.35 186.59 C 152.76 187.40 153.74 187.73 154.55 187.32 C 155.36 186.92 155.69 185.93 155.28 185.12 L 154.84 184.25 C 154.44 183.44 153.45 183.11 152.64 183.52 C 151.83 183.92 151.51 184.91 151.91 185.72 Z M 152.38 186.65 L 152.85 187.50 C 153.28 188.29 154.28 188.58 155.07 188.14 C 155.86 187.71 156.15 186.71 155.72 185.92 L 155.25 185.07 C 154.81 184.28 153.82 183.99 153.03 184.42 C 152.23 184.86 151.94 185.86 152.38 186.65 Z"
      fill="black"
      fill-rule="nonzero" /><path d="M 155.41 160.17 L 156.36 159.91 C 157.30 159.66 157.85 158.69 157.60 157.75 C 157.35 156.82 156.38 156.26 155.44 156.51 L 154.50 156.77 C 153.56 157.02 153.00 157.99 153.26 158.92 C 153.51 159.86 154.47 160.42 155.41 160.17 Z M 156.38 159.92 L 157.33 159.65 C 158.28 159.38 158.82 158.40 158.56 157.46 C 158.29 156.52 157.31 155.97 156.37 156.24 L 155.42 156.50 C 154.47 156.77 153.93 157.75 154.19 158.70 C 154.46 159.64 155.44 160.19 156.38 159.92 Z M 157.38 159.65 L 158.34 159.36 C 159.28 159.06 159.81 158.06 159.51 157.12 C 159.22 156.17 158.22 155.64 157.27 155.94 L 156.32 156.23 C 155.37 156.53 154.85 157.53 155.14 158.47 C 155.43 159.42 156.44 159.95 157.38 159.65 Z M 158.40 159.35 L 159.37 159.01 C 160.31 158.68 160.80 157.65 160.47 156.71 C 160.14 155.77 159.11 155.27 158.17 155.60 L 157.21 155.94 C 156.27 156.27 155.77 157.30 156.10 158.24 C 156.43 159.19 157.46 159.68 158.40 159.35 Z M 159.44 158.99 L 160.32 158.64 C 161.25 158.27 161.70 157.22 161.33 156.29 C 160.96 155.36 159.90 154.91 158.97 155.28 L 158.10 155.62 C 157.17 156.00 156.72 157.05 157.09 157.98 C 157.46 158.91 158.51 159.36 159.44 158.99 Z M 160.37 158.62 L 161.23 158.24 C 162.15 157.84 162.57 156.78 162.17 155.86 C 161.77 154.94 160.70 154.53 159.79 154.92 L 158.92 155.30 C 158.01 155.70 157.59 156.77 157.99 157.68 C 158.39 158.60 159.45 159.02 160.37 158.62 Z M 161.26 158.22 L 162.15 157.81 C 163.06 157.40 163.46 156.33 163.05 155.42 C 162.63 154.52 161.56 154.12 160.66 154.53 L 159.76 154.94 C 158.86 155.35 158.46 156.42 158.87 157.33 C 159.28 158.24 160.35 158.64 161.26 158.22 Z M 162.16 157.80 L 163.10 157.37 C 164.00 156.95 164.39 155.88 163.98 154.98 C 163.56 154.08 162.49 153.69 161.59 154.11 L 160.65 154.54 C 159.75 154.96 159.36 156.03 159.77 156.93 C 160.19 157.83 161.26 158.22 162.16 157.80 Z M 163.09 157.37 L 164.08 156.92 C 164.98 156.50 165.38 155.44 164.97 154.54 C 164.56 153.64 163.49 153.24 162.59 153.65 L 161.60 154.11 C 160.70 154.52 160.30 155.58 160.71 156.48 C 161.13 157.38 162.19 157.78 163.09 157.37 Z M 164.06 156.92 L 164.99 156.51 C 165.89 156.11 166.30 155.06 165.90 154.15 C 165.50 153.25 164.45 152.84 163.55 153.24 L 162.62 153.65 C 161.71 154.05 161.30 155.10 161.70 156.01 C 162.10 156.91 163.16 157.32 164.06 156.92 Z M 164.97 156.51 L 165.92 156.11 C 166.82 155.72 167.24 154.67 166.86 153.77 C 166.47 152.86 165.42 152.44 164.51 152.83 L 163.57 153.23 C 162.66 153.62 162.24 154.67 162.63 155.58 C 163.02 156.48 164.07 156.90 164.97 156.51 Z M 165.90 156.11 L 166.86 155.71 C 167.77 155.33 168.19 154.29 167.82 153.38 C 167.44 152.48 166.39 152.05 165.49 152.43 L 164.53 152.82 C 163.62 153.20 163.19 154.25 163.57 155.15 C 163.95 156.06 164.99 156.49 165.90 156.11 Z M 166.84 155.72 L 167.78 155.33 C 168.69 154.96 169.13 153.92 168.76 153.02 C 168.39 152.11 167.35 151.67 166.44 152.04 L 165.50 152.42 C 164.59 152.79 164.16 153.83 164.53 154.74 C 164.90 155.65 165.93 156.09 166.84 155.72 Z M 167.77 155.34 L 168.67 154.98 C 169.58 154.61 170.03 153.58 169.66 152.67 C 169.30 151.76 168.27 151.32 167.36 151.68 L 166.46 152.04 C 165.55 152.40 165.10 153.43 165.46 154.34 C 165.83 155.25 166.86 155.70 167.77 155.34 Z M 168.66 154.98 L 169.58 154.62 C 170.49 154.27 170.95 153.24 170.59 152.33 C 170.24 151.42 169.22 150.96 168.30 151.32 L 167.38 151.68 C 166.46 152.03 166.01 153.05 166.36 153.97 C 166.72 154.88 167.74 155.33 168.66 154.98 Z M 169.56 154.62 L 170.58 154.24 C 171.50 153.90 171.96 152.88 171.62 151.97 C 171.28 151.05 170.26 150.59 169.35 150.93 L 168.32 151.31 C 167.41 151.65 166.95 152.67 167.29 153.59 C 167.63 154.50 168.65 154.97 169.56 154.62 Z M 170.56 154.25 L 171.49 153.92 C 172.41 153.59 172.89 152.58 172.56 151.66 C 172.24 150.75 171.23 150.27 170.31 150.59 L 169.38 150.92 C 168.46 151.25 167.98 152.26 168.30 153.18 C 168.63 154.09 169.64 154.57 170.56 154.25 Z M 171.46 153.92 L 172.34 153.63 C 173.27 153.32 173.76 152.32 173.45 151.40 C 173.15 150.48 172.15 149.98 171.23 150.29 L 170.34 150.58 C 169.42 150.89 168.92 151.89 169.23 152.81 C 169.54 153.74 170.54 154.23 171.46 153.92 Z M 172.31 153.63 L 173.20 153.35 C 174.13 153.06 174.64 152.08 174.35 151.15 C 174.06 150.22 173.07 149.71 172.14 150.00 L 171.26 150.28 C 170.33 150.57 169.82 151.56 170.11 152.49 C 170.40 153.41 171.39 153.93 172.31 153.63 Z M 173.17 153.36 L 174.13 153.07 C 175.06 152.80 175.59 151.82 175.31 150.89 C 175.04 149.96 174.06 149.43 173.13 149.71 L 172.17 150.00 C 171.24 150.27 170.71 151.25 170.99 152.18 C 171.27 153.11 172.24 153.64 173.17 153.36 Z M 174.11 153.08 L 175.08 152.81 C 176.01 152.54 176.55 151.57 176.29 150.64 C 176.02 149.71 175.06 149.17 174.12 149.43 L 173.15 149.71 C 172.22 149.97 171.68 150.94 171.94 151.87 C 172.21 152.80 173.18 153.34 174.11 153.08 Z M 175.06 152.81 L 176.02 152.55 C 176.96 152.30 177.51 151.34 177.26 150.40 C 177.01 149.47 176.05 148.91 175.11 149.17 L 174.15 149.43 C 173.21 149.68 172.66 150.64 172.91 151.57 C 173.16 152.51 174.12 153.06 175.06 152.81 Z M 176.00 152.55 L 176.98 152.30 C 177.91 152.06 178.48 151.11 178.24 150.17 C 178.00 149.24 177.04 148.67 176.10 148.91 L 175.13 149.16 C 174.20 149.40 173.63 150.36 173.87 151.29 C 174.11 152.23 175.07 152.79 176.00 152.55 Z M 176.95 152.31 L 177.95 152.07 C 178.89 151.84 179.47 150.89 179.24 149.95 C 179.01 149.01 178.06 148.44 177.12 148.67 L 176.13 148.91 C 175.19 149.14 174.61 150.08 174.84 151.02 C 175.07 151.96 176.01 152.54 176.95 152.31 Z M 177.92 152.07 L 178.89 151.86 C 179.83 151.64 180.43 150.71 180.22 149.77 C 180.01 148.82 179.07 148.23 178.13 148.44 L 177.16 148.66 C 176.21 148.87 175.62 149.80 175.83 150.75 C 176.04 151.69 176.98 152.28 177.92 152.07 Z M 178.85 151.86 L 179.81 151.67 C 180.75 151.48 181.37 150.56 181.18 149.62 C 180.99 148.67 180.07 148.05 179.12 148.24 L 178.17 148.43 C 177.22 148.62 176.61 149.54 176.80 150.49 C 176.98 151.44 177.90 152.05 178.85 151.86 Z M 179.76 151.68 L 180.75 151.51 C 181.70 151.35 182.34 150.45 182.18 149.50 C 182.02 148.55 181.12 147.91 180.17 148.07 L 179.17 148.23 C 178.22 148.40 177.58 149.30 177.74 150.25 C 177.90 151.20 178.81 151.84 179.76 151.68 Z M 180.70 151.52 L 181.70 151.38 C 182.66 151.25 183.32 150.37 183.19 149.41 C 183.06 148.46 182.18 147.79 181.22 147.92 L 180.22 148.06 C 179.26 148.19 178.60 149.07 178.73 150.03 C 178.86 150.99 179.74 151.65 180.70 151.52 Z M 181.65 151.39 L 182.64 151.28 C 183.59 151.17 184.29 150.31 184.18 149.35 C 184.07 148.39 183.21 147.70 182.25 147.81 L 181.27 147.91 C 180.31 148.02 179.62 148.88 179.72 149.84 C 179.83 150.80 180.69 151.49 181.65 151.39 Z M 182.59 151.28 L 183.55 151.20 C 184.51 151.12 185.22 150.27 185.14 149.31 C 185.05 148.35 184.21 147.64 183.25 147.72 L 182.29 147.80 C 181.33 147.89 180.62 148.73 180.70 149.69 C 180.79 150.65 181.63 151.36 182.59 151.28 Z M 183.51 151.20 L 184.45 151.14 C 185.41 151.08 186.14 150.25 186.08 149.29 C 186.02 148.33 185.19 147.60 184.23 147.66 L 183.29 147.72 C 182.33 147.78 181.60 148.61 181.66 149.57 C 181.72 150.53 182.55 151.26 183.51 151.20 Z M 184.41 151.14 L 185.40 151.10 C 186.36 151.06 187.11 150.25 187.07 149.29 C 187.03 148.33 186.22 147.58 185.26 147.62 L 184.27 147.66 C 183.31 147.70 182.56 148.51 182.60 149.47 C 182.64 150.43 183.45 151.18 184.41 151.14 Z M 185.37 151.10 L 186.46 151.07 C 187.42 151.05 188.18 150.25 188.15 149.29 C 188.13 148.33 187.34 147.58 186.38 147.60 L 185.29 147.62 C 184.33 147.65 183.57 148.44 183.59 149.40 C 183.62 150.36 184.41 151.12 185.37 151.10 Z M 186.43 151.07 L 187.39 151.07 C 188.35 151.06 189.12 150.28 189.11 149.32 C 189.11 148.36 188.32 147.58 187.36 147.59 L 186.41 147.60 C 185.45 147.60 184.67 148.39 184.68 149.35 C 184.69 150.31 185.47 151.08 186.43 151.07 Z M 187.32 151.07 L 188.33 151.10 C 189.29 151.13 190.10 150.38 190.13 149.42 C 190.16 148.45 189.40 147.65 188.44 147.62 L 187.43 147.59 C 186.47 147.56 185.67 148.31 185.64 149.27 C 185.61 150.23 186.36 151.04 187.32 151.07 Z M 188.21 151.10 L 189.23 151.20 C 190.19 151.29 191.05 150.59 191.14 149.63 C 191.24 148.68 190.54 147.82 189.58 147.73 L 188.56 147.62 C 187.60 147.53 186.75 148.23 186.65 149.19 C 186.56 150.15 187.26 151.00 188.21 151.10 Z M 189.06 151.17 L 190.04 151.37 C 190.99 151.57 191.91 150.96 192.10 150.01 C 192.30 149.07 191.69 148.14 190.74 147.95 L 189.76 147.75 C 188.81 147.56 187.89 148.17 187.69 149.11 C 187.50 150.06 188.11 150.98 189.06 151.17 Z M 189.79 151.31 L 190.75 151.66 C 191.66 151.99 192.67 151.53 193.00 150.62 C 193.33 149.71 192.87 148.70 191.96 148.37 L 190.99 148.02 C 190.08 147.68 189.08 148.15 188.75 149.06 C 188.41 149.97 188.88 150.98 189.79 151.31 Z M 190.47 151.54 L 191.35 152.04 C 192.19 152.53 193.26 152.24 193.75 151.40 C 194.24 150.56 193.95 149.48 193.11 149.00 L 192.24 148.49 C 191.39 148.00 190.32 148.29 189.83 149.13 C 189.34 149.98 189.63 151.05 190.47 151.54 Z M 191.09 151.88 L 191.85 152.51 C 192.60 153.14 193.71 153.04 194.34 152.29 C 194.97 151.54 194.87 150.43 194.12 149.80 L 193.36 149.16 C 192.61 148.54 191.50 148.64 190.87 149.39 C 190.24 150.13 190.34 151.25 191.09 151.88 Z M 191.63 152.31 L 192.26 153.05 C 192.90 153.80 194.02 153.89 194.77 153.25 C 195.51 152.62 195.61 151.49 194.97 150.75 L 194.34 150.00 C 193.70 149.26 192.58 149.16 191.83 149.80 C 191.09 150.44 190.99 151.56 191.63 152.31 Z M 192.08 152.82 L 192.58 153.64 C 193.08 154.48 194.18 154.76 195.03 154.25 C 195.87 153.74 196.15 152.65 195.64 151.80 L 195.15 150.98 C 194.64 150.13 193.54 149.86 192.70 150.37 C 191.85 150.87 191.58 151.97 192.08 152.82 Z M 192.45 153.41 L 192.83 154.31 C 193.21 155.22 194.26 155.65 195.17 155.27 C 196.09 154.89 196.52 153.84 196.14 152.93 L 195.76 152.03 C 195.38 151.11 194.33 150.68 193.42 151.06 C 192.50 151.45 192.07 152.50 192.45 153.41 Z M 192.75 154.11 L 193.03 155.08 C 193.30 156.03 194.30 156.59 195.25 156.31 C 196.21 156.04 196.76 155.04 196.49 154.09 L 196.22 153.12 C 195.94 152.17 194.95 151.61 193.99 151.88 C 193.03 152.16 192.48 153.15 192.75 154.11 Z M 192.98 154.92 L 193.18 155.94 C 193.36 156.92 194.31 157.57 195.29 157.38 C 196.27 157.20 196.92 156.25 196.73 155.27 L 196.54 154.24 C 196.35 153.26 195.40 152.62 194.42 152.80 C 193.44 152.99 192.79 153.94 192.98 154.92 Z M 193.15 155.83 L 193.27 156.79 C 193.40 157.79 194.31 158.49 195.30 158.37 C 196.30 158.24 197.00 157.33 196.88 156.34 L 196.75 155.38 C 196.63 154.38 195.72 153.68 194.73 153.80 C 193.73 153.93 193.03 154.84 193.15 155.83 Z M 193.26 156.71 L 193.34 157.68 C 193.42 158.68 194.30 159.43 195.30 159.35 C 196.30 159.27 197.05 158.39 196.97 157.38 L 196.89 156.42 C 196.81 155.42 195.93 154.67 194.93 154.75 C 193.92 154.83 193.18 155.71 193.26 156.71 Z M 193.33 157.62 L 193.38 158.62 C 193.42 159.63 194.28 160.40 195.29 160.36 C 196.29 160.31 197.07 159.45 197.02 158.45 L 196.98 157.45 C 196.93 156.44 196.07 155.66 195.07 155.71 C 194.06 155.76 193.28 156.61 193.33 157.62 Z M 193.37 158.57 L 193.39 159.60 C 193.41 160.61 194.25 161.41 195.26 161.39 C 196.27 161.37 197.07 160.53 197.05 159.52 L 197.03 158.49 C 197.01 157.48 196.17 156.68 195.16 156.70 C 194.15 156.72 193.35 157.56 193.37 158.57 Z M 193.39 159.57 L 193.39 160.59 C 193.40 161.61 194.22 162.42 195.23 162.42 C 196.25 162.41 197.07 161.59 197.06 160.58 L 197.06 159.55 C 197.05 158.54 196.23 157.72 195.21 157.73 C 194.20 157.73 193.38 158.56 193.39 159.57 Z M 193.39 160.57 L 193.38 161.47 C 193.37 162.48 194.18 163.31 195.20 163.32 C 196.21 163.33 197.05 162.52 197.06 161.51 L 197.06 160.60 C 197.07 159.59 196.26 158.76 195.25 158.75 C 194.23 158.74 193.40 159.55 193.39 160.57 Z M 193.38 161.43 L 193.35 162.36 C 193.32 163.38 194.11 164.23 195.13 164.26 C 196.14 164.29 196.99 163.50 197.02 162.48 L 197.06 161.55 C 197.09 160.53 196.29 159.68 195.28 159.65 C 194.26 159.62 193.41 160.41 193.38 161.43 Z M 193.35 162.30 L 193.29 163.28 C 193.22 164.29 193.99 165.17 195.00 165.23 C 196.02 165.30 196.89 164.53 196.96 163.52 L 197.02 162.54 C 197.09 161.53 196.32 160.65 195.31 160.58 C 194.29 160.52 193.42 161.29 193.35 162.30 Z M 193.29 163.21 L 193.18 164.24 C 193.08 165.25 193.81 166.16 194.83 166.26 C 195.84 166.37 196.74 165.63 196.85 164.62 L 196.95 163.59 C 197.06 162.58 196.33 161.67 195.31 161.57 C 194.30 161.46 193.40 162.20 193.29 163.21 Z M 193.19 164.16 L 193.03 165.26 C 192.88 166.27 193.58 167.20 194.59 167.35 C 195.59 167.50 196.53 166.80 196.68 165.80 L 196.84 164.70 C 196.99 163.69 196.29 162.75 195.28 162.61 C 194.28 162.46 193.34 163.15 193.19 164.16 Z M 193.04 165.18 L 192.85 166.19 C 192.66 167.19 193.32 168.15 194.32 168.34 C 195.32 168.53 196.29 167.87 196.48 166.87 L 196.67 165.87 C 196.85 164.87 196.20 163.91 195.20 163.72 C 194.20 163.53 193.23 164.18 193.04 165.18 Z M 192.87 166.13 L 192.65 167.09 C 192.43 168.08 193.06 169.07 194.05 169.29 C 195.04 169.51 196.03 168.88 196.25 167.89 L 196.46 166.93 C 196.68 165.94 196.06 164.95 195.06 164.73 C 194.07 164.51 193.09 165.14 192.87 166.13 Z M 192.66 167.04 L 192.42 168.03 C 192.17 169.02 192.77 170.02 193.76 170.26 C 194.75 170.51 195.75 169.90 195.99 168.92 L 196.24 167.93 C 196.48 166.95 195.88 165.95 194.90 165.70 C 193.91 165.45 192.91 166.06 192.66 167.04 Z M 192.43 167.99 L 192.16 168.99 C 191.89 169.97 192.47 170.98 193.46 171.25 C 194.44 171.51 195.45 170.93 195.72 169.95 L 195.98 168.95 C 196.25 167.97 195.67 166.96 194.69 166.69 C 193.71 166.43 192.69 167.01 192.43 167.99 Z M 192.17 168.95 L 191.88 169.94 C 191.60 170.92 192.16 171.94 193.14 172.23 C 194.11 172.51 195.14 171.95 195.42 170.97 L 195.71 169.98 C 195.99 169.00 195.43 167.98 194.45 167.70 C 193.47 167.42 192.45 167.98 192.17 168.95 Z M 191.89 169.92 L 191.59 170.89 C 191.29 171.86 191.84 172.89 192.81 173.19 C 193.78 173.49 194.81 172.94 195.11 171.97 L 195.41 171.00 C 195.71 170.03 195.16 169.00 194.19 168.70 C 193.22 168.40 192.19 168.94 191.89 169.92 Z M 191.60 170.86 L 191.30 171.80 C 190.99 172.77 191.52 173.80 192.48 174.12 C 193.45 174.43 194.49 173.90 194.80 172.93 L 195.10 171.99 C 195.42 171.03 194.89 169.99 193.92 169.68 C 192.95 169.36 191.91 169.89 191.60 170.86 Z M 191.31 171.77 L 190.98 172.76 C 190.65 173.72 191.16 174.76 192.13 175.09 C 193.09 175.41 194.13 174.90 194.46 173.94 L 194.79 172.95 C 195.12 171.99 194.60 170.95 193.64 170.62 C 192.68 170.30 191.63 170.81 191.31 171.77 Z M 190.99 172.73 L 190.64 173.71 C 190.30 174.66 190.79 175.71 191.74 176.06 C 192.70 176.40 193.75 175.90 194.09 174.95 L 194.44 173.97 C 194.78 173.01 194.29 171.96 193.34 171.62 C 192.38 171.28 191.33 171.77 190.99 172.73 Z M 190.66 173.68 L 190.30 174.61 C 189.94 175.55 190.41 176.61 191.35 176.97 C 192.30 177.33 193.35 176.86 193.71 175.92 L 194.07 174.98 C 194.43 174.04 193.96 172.99 193.02 172.63 C 192.07 172.26 191.02 172.74 190.66 173.68 Z M 190.32 174.58 L 189.96 175.47 C 189.57 176.40 190.02 177.47 190.95 177.85 C 191.88 178.23 192.94 177.78 193.32 176.85 L 193.69 175.95 C 194.07 175.02 193.63 173.96 192.70 173.58 C 191.77 173.20 190.70 173.64 190.32 174.58 Z M 189.98 175.44 L 189.59 176.32 C 189.19 177.23 189.61 178.30 190.53 178.70 C 191.45 179.11 192.52 178.69 192.92 177.77 L 193.30 176.89 C 193.70 175.97 193.28 174.90 192.37 174.50 C 191.45 174.10 190.38 174.52 189.98 175.44 Z M 189.62 176.28 L 189.21 177.16 C 188.79 178.07 189.18 179.14 190.08 179.56 C 190.99 179.98 192.06 179.59 192.48 178.68 L 192.89 177.80 C 193.31 176.90 192.92 175.83 192.02 175.40 C 191.11 174.98 190.04 175.38 189.62 176.28 Z M 189.23 177.13 L 188.79 178.03 C 188.35 178.92 188.72 180.00 189.61 180.44 C 190.50 180.88 191.58 180.51 192.02 179.62 L 192.46 178.72 C 192.90 177.82 192.53 176.75 191.64 176.31 C 190.75 175.87 189.67 176.24 189.23 177.13 Z M 188.81 178.01 L 188.34 178.93 C 187.89 179.80 188.23 180.88 189.11 181.33 C 189.99 181.78 191.06 181.44 191.52 180.56 L 191.99 179.64 C 192.44 178.77 192.10 177.69 191.22 177.24 C 190.34 176.79 189.27 177.13 188.81 178.01 Z M 188.37 178.90 L 187.88 179.82 C 187.41 180.68 187.73 181.75 188.60 182.22 C 189.46 182.68 190.53 182.36 191.00 181.50 L 191.49 180.59 C 191.96 179.72 191.63 178.65 190.77 178.18 C 189.91 177.72 188.83 178.04 188.37 178.90 Z M 187.90 179.80 L 187.40 180.69 C 186.92 181.53 187.23 182.61 188.07 183.08 C 188.92 183.56 190.00 183.26 190.47 182.41 L 190.97 181.52 C 191.45 180.67 191.15 179.60 190.30 179.12 C 189.45 178.65 188.38 178.95 187.90 179.80 Z M 187.43 180.66 L 186.93 181.52 C 186.44 182.35 186.72 183.42 187.55 183.91 C 188.39 184.40 189.46 184.12 189.95 183.28 L 190.45 182.43 C 190.93 181.60 190.65 180.53 189.82 180.04 C 188.99 179.55 187.92 179.83 187.43 180.66 Z M 186.96 181.49 L 186.47 182.29 C 185.97 183.11 186.22 184.18 187.04 184.68 C 187.86 185.18 188.93 184.92 189.43 184.10 L 189.92 183.31 C 190.42 182.49 190.16 181.42 189.35 180.92 C 188.53 180.42 187.46 180.68 186.96 181.49 Z M 186.51 182.26 L 185.93 183.15 C 185.41 183.94 185.64 185.01 186.43 185.53 C 187.23 186.05 188.30 185.82 188.82 185.02 L 189.39 184.14 C 189.91 183.34 189.69 182.27 188.89 181.75 C 188.09 181.23 187.02 181.46 186.51 182.26 Z M 185.97 183.11 L 185.39 183.95 C 184.85 184.72 185.04 185.78 185.81 186.32 C 186.58 186.86 187.64 186.67 188.18 185.90 L 188.77 185.06 C 189.31 184.29 189.12 183.23 188.35 182.69 C 187.58 182.15 186.51 182.34 185.97 183.11 Z M 185.44 183.91 L 184.86 184.68 C 184.30 185.43 184.45 186.48 185.19 187.04 C 185.94 187.60 186.99 187.45 187.55 186.71 L 188.13 185.94 C 188.69 185.19 188.55 184.13 187.80 183.57 C 187.06 183.01 186.00 183.16 185.44 183.91 Z M 184.90 184.65 L 184.31 185.39 C 183.73 186.11 183.85 187.16 184.57 187.74 C 185.29 188.32 186.34 188.20 186.92 187.48 L 187.51 186.74 C 188.09 186.02 187.97 184.97 187.25 184.39 C 186.53 183.81 185.48 183.93 184.90 184.65 Z M 184.34 185.37 L 183.73 186.11 C 183.14 186.81 183.23 187.85 183.94 188.44 C 184.64 189.03 185.68 188.93 186.27 188.23 L 186.88 187.50 C 187.47 186.80 187.37 185.75 186.67 185.17 C 185.97 184.58 184.93 184.67 184.34 185.37 Z M 183.75 186.10 L 183.12 186.82 C 182.53 187.51 182.61 188.55 183.30 189.15 C 183.99 189.74 185.03 189.66 185.62 188.97 L 186.25 188.24 C 186.84 187.55 186.76 186.51 186.07 185.92 C 185.38 185.33 184.34 185.41 183.75 186.10 Z M 183.14 186.82 L 182.48 187.56 C 181.88 188.25 181.95 189.29 182.64 189.88 C 183.32 190.48 184.36 190.41 184.96 189.73 L 185.61 188.98 C 186.21 188.30 186.14 187.26 185.46 186.66 C 184.77 186.06 183.73 186.13 183.14 186.82 Z M 182.49 187.56 L 181.82 188.32 C 181.22 189.00 181.28 190.04 181.96 190.64 C 182.64 191.24 183.68 191.17 184.28 190.49 L 184.95 189.73 C 185.55 189.05 185.49 188.02 184.81 187.41 C 184.13 186.81 183.09 186.88 182.49 187.56 Z M 181.82 188.32 L 181.13 189.09 C 180.53 189.76 180.59 190.80 181.27 191.40 C 181.95 192.01 182.98 191.95 183.58 191.27 L 184.27 190.50 C 184.87 189.82 184.81 188.78 184.14 188.18 C 183.46 187.58 182.42 187.64 181.82 188.32 Z M 181.14 189.09 L 180.79 189.48 C 180.19 190.16 180.24 191.19 180.92 191.79 C 181.59 192.39 182.63 192.34 183.23 191.66 L 183.58 191.27 C 184.18 190.59 184.12 189.56 183.45 188.96 C 182.77 188.35 181.74 188.41 181.14 189.09 Z"
      fill="black"
      fill-rule="nonzero" /></svg>