<svg xmlns="http://www.w3.org/2000/svg" width="300" height="300" viewBox="0 0 300 300">
<path d="M 122.40 107.03 L 123.38 107.23 C 124.28 107.41 125.16 106.83 125.34 105.93 C 125.52 105.03 124.94 104.15 124.04 103.97 L 123.06 103.77 C 122.16 103.59 121.28 104.17 121.10 105.07 C 120.91 105.97 121.50 106.85 122.40 107.03 Z M 123.42 107.27 L 124.41 107.44 C 125.33 107.60 126.21 106.98 126.36 106.05 C 126.52 105.13 125.90 104.26 124.98 104.10 L 123.99 103.93 C 123.07 103.77 122.20 104.39 122.04 105.32 C 121.88 106.24 122.50 107.11 123.42 107.27 Z M 124.51 107.48 L 125.50 107.59 C 126.45 107.69 127.30 107.00 127.40 106.06 C 127.50 105.11 126.82 104.26 125.87 104.16 L 124.88 104.06 C 123.93 103.96 123.08 104.64 122.98 105.59 C 122.88 106.53 123.57 107.38 124.51 107.48 Z M 125.65 107.60 L 126.58 107.61 C 127.53 107.63 128.32 106.88 128.34 105.93 C 128.36 104.98 127.60 104.19 126.65 104.17 L 125.72 104.15 C 124.77 104.14 123.98 104.89 123.97 105.84 C 123.95 106.79 124.70 107.58 125.65 107.60 Z M 126.73 107.57 L 127.67 107.51 C 128.60 107.45 129.30 106.64 129.24 105.72 C 129.17 104.79 128.37 104.09 127.45 104.15 L 126.50 104.21 C 125.58 104.28 124.88 105.08 124.94 106.01 C 125.00 106.93 125.80 107.63 126.73 107.57 Z M 127.78 107.45 L 128.79 107.31 C 129.69 107.19 130.31 106.36 130.19 105.47 C 130.06 104.57 129.24 103.95 128.34 104.07 L 127.33 104.21 C 126.44 104.33 125.81 105.16 125.94 106.05 C 126.06 106.95 126.89 107.57 127.78 107.45 Z M 128.87 107.25 L 129.94 107.05 C 130.80 106.88 131.36 106.05 131.20 105.19 C 131.03 104.33 130.20 103.76 129.34 103.92 L 128.27 104.13 C 127.41 104.29 126.84 105.13 127.01 105.99 C 127.17 106.85 128.00 107.42 128.87 107.25 Z M 129.98 107.02 L 130.87 106.82 C 131.72 106.63 132.25 105.79 132.06 104.95 C 131.88 104.10 131.04 103.57 130.19 103.76 L 129.30 103.96 C 128.45 104.14 127.92 104.98 128.11 105.83 C 128.29 106.67 129.13 107.21 129.98 107.02 Z M 130.90 106.81 L 131.85 106.58 C 132.69 106.38 133.21 105.53 133.01 104.69 C 132.81 103.85 131.96 103.33 131.12 103.54 L 130.17 103.76 C 129.33 103.97 128.81 104.81 129.01 105.65 C 129.21 106.49 130.06 107.01 130.90 106.81 Z M 131.87 106.58 L 132.86 106.32 C 133.70 106.11 134.21 105.26 133.99 104.42 C 133.78 103.59 132.93 103.08 132.09 103.29 L 131.10 103.54 C 130.26 103.75 129.76 104.60 129.97 105.44 C 130.18 106.28 131.03 106.79 131.87 106.58 Z M 132.87 106.32 L 133.89 106.06 C 134.72 105.84 135.22 104.99 135.01 104.15 C 134.79 103.31 133.94 102.81 133.10 103.03 L 132.08 103.29 C 131.25 103.51 130.75 104.37 130.96 105.20 C 131.18 106.04 132.03 106.54 132.87 106.32 Z M 133.89 106.05 L 134.66 105.85 C 135.50 105.63 136.00 104.78 135.78 103.94 C 135.56 103.11 134.70 102.61 133.87 102.83 L 133.10 103.03 C 132.26 103.25 131.76 104.11 131.98 104.94 C 132.20 105.77 133.06 106.27 133.89 106.05 Z"
      fill="black"
      fill-rule="nonzero" /><path d="M 128.64 113.10 L 127.70 114.08 C 127.04 114.77 127.07 115.87 127.76 116.53 C 128.45 117.19 129.54 117.16 130.20 116.47 L 131.14 115.48 C 131.80 114.79 131.77 113.70 131.08 113.04 C 130.39 112.38 129.30 112.41 128.64 113.10 Z M 127.67 114.11 L 126.91 114.95 C 126.27 115.66 126.32 116.75 127.02 117.39 C 127.73 118.04 128.82 117.98 129.46 117.28 L 130.23 116.44 C 130.87 115.73 130.82 114.64 130.11 114.00 C 129.41 113.35 128.31 113.41 127.67 114.11 Z M 126.81 115.08 L 126.39 115.62 C 125.82 116.39 125.97 117.47 126.73 118.04 C 127.50 118.62 128.58 118.46 129.16 117.70 L 129.57 117.15 C 130.14 116.39 129.99 115.31 129.23 114.73 C 128.46 114.16 127.38 114.31 126.81 115.08 Z M 126.97 118.18 L 127.15 118.28 C 127.99 118.72 129.03 118.40 129.47 117.56 C 129.92 116.73 129.60 115.69 128.76 115.24 L 128.58 115.15 C 127.74 114.70 126.70 115.02 126.26 115.86 C 125.81 116.70 126.13 117.73 126.97 118.18 Z M 128.75 118.25 L 129.64 117.77 C 130.46 117.33 130.77 116.31 130.33 115.49 C 129.89 114.67 128.87 114.36 128.05 114.80 L 127.16 115.27 C 126.34 115.71 126.03 116.74 126.47 117.56 C 126.91 118.38 127.93 118.69 128.75 118.25 Z M 129.73 117.68 L 130.85 116.97 C 131.62 116.48 131.85 115.46 131.36 114.69 C 130.88 113.92 129.86 113.69 129.08 114.18 L 127.96 114.89 C 127.19 115.38 126.96 116.40 127.45 117.17 C 127.93 117.94 128.95 118.17 129.73 117.68 Z M 130.86 116.94 L 131.66 116.41 C 132.41 115.92 132.62 114.91 132.12 114.16 C 131.63 113.41 130.62 113.20 129.87 113.69 L 129.07 114.22 C 128.32 114.71 128.11 115.72 128.61 116.47 C 129.10 117.22 130.11 117.43 130.86 116.94 Z M 131.66 116.39 L 132.48 115.85 C 133.22 115.35 133.42 114.35 132.92 113.61 C 132.43 112.87 131.43 112.67 130.69 113.17 L 129.87 113.71 C 129.13 114.21 128.93 115.21 129.42 115.95 C 129.92 116.69 130.92 116.89 131.66 116.39 Z M 132.47 115.83 L 133.32 115.26 C 134.05 114.77 134.24 113.77 133.75 113.04 C 133.26 112.31 132.27 112.12 131.54 112.61 L 130.69 113.18 C 129.96 113.68 129.77 114.67 130.26 115.40 C 130.75 116.13 131.74 116.32 132.47 115.83 Z M 133.31 115.24 L 134.17 114.66 C 134.89 114.18 135.09 113.20 134.60 112.47 C 134.11 111.75 133.13 111.56 132.41 112.05 L 131.55 112.63 C 130.83 113.11 130.64 114.09 131.12 114.82 C 131.61 115.54 132.59 115.73 133.31 115.24 Z M 134.17 114.66 L 134.92 114.15 C 135.63 113.67 135.83 112.69 135.34 111.98 C 134.86 111.26 133.88 111.07 133.16 111.55 L 132.41 112.05 C 131.69 112.54 131.50 113.51 131.99 114.23 C 132.47 114.95 133.45 115.14 134.17 114.66 Z M 134.92 114.15 L 135.70 113.62 C 136.42 113.14 136.61 112.16 136.12 111.44 C 135.64 110.73 134.66 110.54 133.94 111.02 L 133.16 111.55 C 132.44 112.04 132.26 113.01 132.74 113.73 C 133.23 114.45 134.20 114.64 134.92 114.15 Z M 135.71 113.61 L 136.53 113.05 C 137.24 112.56 137.43 111.59 136.94 110.87 C 136.45 110.16 135.48 109.98 134.76 110.47 L 133.94 111.03 C 133.22 111.52 133.04 112.49 133.53 113.21 C 134.02 113.92 134.99 114.10 135.71 113.61 Z M 136.54 113.04 L 137.41 112.43 C 138.12 111.94 138.29 110.96 137.80 110.26 C 137.31 109.55 136.33 109.37 135.62 109.87 L 134.75 110.48 C 134.04 110.97 133.87 111.94 134.36 112.65 C 134.86 113.36 135.83 113.53 136.54 113.04 Z M 137.42 112.42 L 138.31 111.79 C 139.02 111.29 139.18 110.31 138.68 109.61 C 138.18 108.91 137.20 108.74 136.50 109.24 L 135.61 109.88 C 134.91 110.38 134.74 111.35 135.25 112.06 C 135.75 112.76 136.72 112.92 137.42 112.42 Z M 138.32 111.78 L 139.07 111.24 C 139.77 110.73 139.92 109.75 139.42 109.06 C 138.91 108.36 137.94 108.20 137.24 108.71 L 136.49 109.25 C 135.79 109.76 135.64 110.74 136.14 111.43 C 136.65 112.13 137.63 112.29 138.32 111.78 Z M 139.08 111.23 L 139.86 110.66 C 140.55 110.15 140.70 109.17 140.19 108.47 C 139.68 107.78 138.70 107.63 138.01 108.14 L 137.23 108.72 C 136.54 109.23 136.39 110.20 136.90 110.90 C 137.41 111.59 138.39 111.74 139.08 111.23 Z M 139.86 110.65 L 140.66 110.06 C 141.36 109.54 141.50 108.56 140.98 107.87 C 140.47 107.18 139.49 107.04 138.80 107.55 L 138.00 108.15 C 137.31 108.66 137.17 109.64 137.68 110.33 C 138.19 111.02 139.17 111.17 139.86 110.65 Z M 140.67 110.05 L 141.49 109.44 C 142.18 108.92 142.32 107.95 141.80 107.26 C 141.28 106.57 140.30 106.43 139.61 106.94 L 138.80 107.56 C 138.11 108.07 137.97 109.05 138.48 109.74 C 139.00 110.43 139.98 110.57 140.67 110.05 Z M 141.49 109.44 L 142.32 108.81 C 143.01 108.29 143.15 107.32 142.63 106.63 C 142.11 105.94 141.13 105.80 140.44 106.32 L 139.61 106.95 C 138.92 107.46 138.78 108.44 139.30 109.13 C 139.82 109.82 140.80 109.96 141.49 109.44 Z M 142.32 108.81 L 143.16 108.18 C 143.85 107.66 143.98 106.68 143.46 105.99 C 142.94 105.30 141.96 105.17 141.28 105.69 L 140.44 106.32 C 139.75 106.84 139.62 107.82 140.14 108.51 C 140.65 109.19 141.63 109.33 142.32 108.81 Z M 143.16 108.18 L 143.43 107.97 C 144.12 107.45 144.25 106.47 143.73 105.79 C 143.21 105.10 142.23 104.96 141.55 105.48 L 141.28 105.69 C 140.59 106.21 140.45 107.19 140.97 107.87 C 141.49 108.56 142.47 108.70 143.16 108.18 Z"
      fill="black"
      fill-rule="nonzero" /><path d="M 153.91 81.33 L 153.25 82.10 C 152.63 82.83 152.71 83.91 153.43 84.53 C 154.15 85.15 155.24 85.07 155.86 84.35 L 156.53 83.57 C 157.15 82.85 157.07 81.76 156.34 81.14 C 155.62 80.52 154.53 80.61 153.91 81.33 Z M 153.17 82.22 L 152.58 83.02 C 152.02 83.79 152.19 84.86 152.96 85.42 C 153.72 85.98 154.80 85.81 155.36 85.04 L 155.94 84.24 C 156.50 83.47 156.33 82.40 155.56 81.84 C 154.80 81.28 153.72 81.45 153.17 82.22 Z M 152.43 83.28 L 152.00 84.16 C 151.59 85.00 151.94 86.03 152.78 86.44 C 153.63 86.86 154.65 86.51 155.07 85.66 L 155.50 84.79 C 155.92 83.94 155.57 82.92 154.72 82.50 C 153.87 82.08 152.85 82.43 152.43 83.28 Z M 151.87 84.58 L 151.67 85.60 C 151.48 86.52 152.09 87.42 153.01 87.60 C 153.93 87.78 154.83 87.18 155.01 86.26 L 155.21 85.24 C 155.39 84.32 154.79 83.42 153.86 83.24 C 152.94 83.06 152.05 83.66 151.87 84.58 Z M 151.66 86.17 L 151.80 87.14 C 151.93 88.07 152.79 88.71 153.72 88.57 C 154.65 88.44 155.29 87.58 155.16 86.65 L 155.02 85.68 C 154.88 84.76 154.02 84.11 153.09 84.25 C 152.17 84.38 151.52 85.24 151.66 86.17 Z M 152.08 87.84 L 152.56 88.56 C 153.09 89.34 154.14 89.54 154.91 89.02 C 155.68 88.50 155.89 87.45 155.36 86.67 L 154.88 85.95 C 154.36 85.18 153.31 84.97 152.53 85.50 C 151.76 86.02 151.56 87.07 152.08 87.84 Z M 153.09 89.05 L 153.81 89.49 C 154.60 89.98 155.63 89.73 156.12 88.94 C 156.60 88.15 156.35 87.12 155.57 86.63 L 154.84 86.19 C 154.05 85.71 153.02 85.95 152.54 86.74 C 152.05 87.53 152.30 88.56 153.09 89.05 Z M 154.21 89.65 L 155.19 89.95 C 156.06 90.21 156.99 89.72 157.26 88.84 C 157.52 87.96 157.03 87.04 156.15 86.77 L 155.17 86.47 C 154.29 86.21 153.37 86.70 153.10 87.58 C 152.83 88.46 153.33 89.39 154.21 89.65 Z M 155.42 89.99 L 156.60 90.16 C 157.50 90.30 158.34 89.68 158.48 88.78 C 158.61 87.89 157.99 87.05 157.09 86.91 L 155.91 86.73 C 155.01 86.60 154.18 87.21 154.04 88.11 C 153.90 89.01 154.52 89.85 155.42 89.99 Z M 156.72 90.17 L 157.68 90.25 C 158.58 90.32 159.37 89.65 159.44 88.75 C 159.51 87.85 158.84 87.06 157.94 86.98 L 156.98 86.91 C 156.08 86.83 155.29 87.51 155.22 88.41 C 155.15 89.31 155.82 90.10 156.72 90.17 Z M 157.73 90.25 L 158.75 90.30 C 159.65 90.34 160.42 89.65 160.46 88.75 C 160.51 87.85 159.81 87.08 158.91 87.04 L 157.89 86.99 C 156.99 86.94 156.23 87.63 156.18 88.53 C 156.14 89.43 156.83 90.20 157.73 90.25 Z M 158.77 90.29 L 159.81 90.33 C 160.71 90.36 161.46 89.66 161.49 88.76 C 161.53 87.86 160.82 87.11 159.93 87.08 L 158.89 87.04 C 157.99 87.01 157.24 87.71 157.20 88.61 C 157.17 89.51 157.87 90.26 158.77 90.29 Z M 159.80 90.33 L 160.81 90.37 C 161.71 90.40 162.46 89.70 162.50 88.80 C 162.53 87.91 161.83 87.15 160.94 87.12 L 159.93 87.08 C 159.03 87.05 158.28 87.74 158.24 88.64 C 158.21 89.54 158.91 90.29 159.80 90.33 Z M 160.78 90.36 L 161.84 90.42 C 162.74 90.48 163.50 89.80 163.56 88.90 C 163.61 88.01 162.93 87.24 162.03 87.19 L 160.97 87.12 C 160.08 87.07 159.31 87.75 159.25 88.65 C 159.20 89.54 159.88 90.31 160.78 90.36 Z M 161.74 90.41 L 162.87 90.55 C 163.76 90.66 164.56 90.03 164.67 89.14 C 164.78 88.26 164.15 87.45 163.27 87.34 L 162.14 87.20 C 161.25 87.09 160.44 87.72 160.33 88.61 C 160.22 89.49 160.85 90.30 161.74 90.41 Z M 162.62 90.50 L 163.54 90.76 C 164.40 91.01 165.30 90.51 165.54 89.65 C 165.79 88.79 165.29 87.89 164.43 87.65 L 163.51 87.39 C 162.65 87.14 161.75 87.64 161.51 88.50 C 161.26 89.36 161.76 90.26 162.62 90.50 Z M 163.11 90.57 L 163.79 91.01 C 164.54 91.49 165.54 91.27 166.03 90.51 C 166.51 89.76 166.29 88.76 165.54 88.28 L 164.85 87.84 C 164.10 87.36 163.10 87.58 162.62 88.33 C 162.14 89.09 162.35 90.09 163.11 90.57 Z M 163.28 90.48 L 163.77 91.29 C 164.23 92.05 165.23 92.29 165.99 91.83 C 166.75 91.36 167.00 90.37 166.53 89.61 L 166.05 88.80 C 165.58 88.04 164.59 87.80 163.82 88.26 C 163.06 88.72 162.82 89.72 163.28 90.48 Z M 163.55 90.63 L 163.66 91.62 C 163.76 92.50 164.56 93.14 165.44 93.04 C 166.33 92.94 166.97 92.14 166.87 91.26 L 166.75 90.27 C 166.65 89.38 165.86 88.74 164.97 88.84 C 164.09 88.94 163.45 89.74 163.55 90.63 Z M 163.71 91.03 L 163.45 92.01 C 163.22 92.87 163.73 93.75 164.59 93.98 C 165.45 94.20 166.33 93.69 166.56 92.83 L 166.82 91.85 C 167.05 90.99 166.53 90.11 165.67 89.88 C 164.81 89.65 163.93 90.17 163.71 91.03 Z M 163.68 91.51 L 163.13 92.31 C 162.63 93.05 162.82 94.04 163.55 94.55 C 164.28 95.05 165.28 94.86 165.78 94.13 L 166.33 93.33 C 166.83 92.60 166.64 91.60 165.91 91.10 C 165.18 90.60 164.18 90.78 163.68 91.51 Z M 163.47 91.96 L 162.68 92.58 C 161.98 93.12 161.86 94.13 162.41 94.83 C 162.95 95.52 163.96 95.65 164.66 95.10 L 165.44 94.48 C 166.14 93.94 166.26 92.93 165.72 92.23 C 165.17 91.54 164.16 91.41 163.47 91.96 Z M 163.10 92.34 L 162.14 92.70 C 161.32 93.02 160.90 93.94 161.21 94.77 C 161.53 95.60 162.45 96.01 163.28 95.70 L 164.24 95.34 C 165.06 95.02 165.48 94.10 165.16 93.27 C 164.85 92.44 163.93 92.03 163.10 92.34 Z M 162.52 92.59 L 161.54 92.71 C 160.65 92.82 160.01 93.62 160.12 94.51 C 160.22 95.40 161.03 96.03 161.92 95.93 L 162.90 95.81 C 163.79 95.70 164.43 94.90 164.32 94.01 C 164.21 93.12 163.41 92.49 162.52 92.59 Z M 161.61 92.67 L 160.61 92.74 C 159.70 92.81 159.01 93.60 159.08 94.51 C 159.14 95.42 159.93 96.10 160.84 96.04 L 161.84 95.96 C 162.75 95.90 163.44 95.11 163.37 94.20 C 163.31 93.29 162.52 92.61 161.61 92.67 Z M 160.35 92.75 L 159.40 92.97 C 158.50 93.18 157.93 94.08 158.14 94.98 C 158.35 95.89 159.25 96.45 160.16 96.25 L 161.10 96.03 C 162.01 95.82 162.57 94.92 162.36 94.01 C 162.15 93.11 161.25 92.54 160.35 92.75 Z M 158.87 93.16 L 158.11 93.64 C 157.32 94.15 157.08 95.20 157.58 95.99 C 158.08 96.79 159.13 97.03 159.93 96.53 L 160.69 96.05 C 161.49 95.55 161.72 94.49 161.22 93.70 C 160.72 92.90 159.67 92.66 158.87 93.16 Z M 157.75 93.94 L 157.10 94.65 C 156.47 95.36 156.53 96.44 157.23 97.07 C 157.94 97.71 159.02 97.65 159.65 96.95 L 160.29 96.23 C 160.93 95.53 160.87 94.44 160.17 93.81 C 159.46 93.18 158.38 93.24 157.75 93.94 Z M 156.94 94.86 L 156.37 95.73 C 155.85 96.52 156.07 97.59 156.86 98.11 C 157.65 98.63 158.72 98.41 159.24 97.62 L 159.81 96.75 C 160.34 95.95 160.12 94.89 159.32 94.36 C 158.53 93.84 157.46 94.06 156.94 94.86 Z M 156.30 95.82 L 155.77 96.75 C 155.30 97.58 155.59 98.63 156.42 99.11 C 157.25 99.58 158.30 99.29 158.77 98.46 L 159.30 97.52 C 159.78 96.70 159.49 95.64 158.66 95.17 C 157.83 94.70 156.78 94.99 156.30 95.82 Z M 155.76 96.77 L 155.26 97.68 C 154.80 98.52 155.11 99.57 155.94 100.02 C 156.78 100.48 157.83 100.18 158.29 99.34 L 158.79 98.44 C 159.25 97.60 158.94 96.55 158.10 96.09 C 157.27 95.63 156.22 95.94 155.76 96.77 Z M 155.25 97.70 L 154.78 98.59 C 154.33 99.43 154.65 100.48 155.49 100.93 C 156.33 101.38 157.37 101.06 157.82 100.22 L 158.30 99.32 C 158.75 98.48 158.43 97.44 157.59 96.99 C 156.75 96.54 155.70 96.86 155.25 97.70 Z M 154.76 98.62 L 154.32 99.49 C 153.88 100.34 154.22 101.38 155.07 101.81 C 155.92 102.25 156.95 101.91 157.39 101.06 L 157.83 100.19 C 158.27 99.34 157.93 98.30 157.08 97.87 C 156.24 97.44 155.20 97.77 154.76 98.62 Z M 154.30 99.53 L 153.88 100.41 C 153.46 101.27 153.82 102.30 154.68 102.71 C 155.54 103.12 156.56 102.76 156.98 101.91 L 157.40 101.02 C 157.81 100.17 157.46 99.14 156.60 98.73 C 155.74 98.32 154.72 98.67 154.30 99.53 Z M 153.87 100.46 L 153.45 101.38 C 153.06 102.24 153.45 103.25 154.31 103.64 C 155.17 104.03 156.19 103.64 156.57 102.78 L 156.99 101.86 C 157.38 101.00 156.99 99.99 156.13 99.60 C 155.27 99.21 154.25 99.60 153.87 100.46 Z M 153.45 101.41 L 153.06 102.31 C 152.69 103.18 153.09 104.18 153.96 104.55 C 154.82 104.92 155.82 104.52 156.19 103.65 L 156.58 102.75 C 156.95 101.89 156.55 100.89 155.68 100.52 C 154.82 100.15 153.82 100.55 153.45 101.41 Z M 153.07 102.33 L 152.68 103.24 C 152.32 104.10 152.72 105.09 153.58 105.45 C 154.44 105.81 155.43 105.41 155.79 104.55 L 156.18 103.64 C 156.54 102.78 156.14 101.79 155.28 101.43 C 154.43 101.07 153.43 101.47 153.07 102.33 Z M 152.70 103.24 L 152.35 104.06 C 151.98 104.91 152.38 105.90 153.23 106.26 C 154.08 106.63 155.07 106.23 155.43 105.38 L 155.78 104.56 C 156.15 103.70 155.75 102.72 154.90 102.35 C 154.05 101.99 153.06 102.39 152.70 103.24 Z M 152.35 104.07 L 151.98 104.95 C 151.62 105.79 152.02 106.77 152.87 107.13 C 153.71 107.49 154.69 107.10 155.05 106.25 L 155.42 105.37 C 155.78 104.52 155.39 103.54 154.54 103.18 C 153.69 102.82 152.71 103.22 152.35 104.07 Z M 151.98 104.97 L 151.59 105.93 C 151.24 106.77 151.65 107.74 152.49 108.09 C 153.34 108.44 154.31 108.03 154.65 107.19 L 155.05 106.23 C 155.40 105.38 154.99 104.41 154.15 104.06 C 153.30 103.72 152.33 104.12 151.98 104.97 Z M 151.59 105.95 L 151.18 106.99 C 150.85 107.84 151.27 108.79 152.11 109.12 C 152.96 109.46 153.92 109.04 154.25 108.19 L 154.66 107.16 C 154.99 106.31 154.57 105.35 153.72 105.02 C 152.88 104.69 151.92 105.11 151.59 105.95 Z M 151.18 107.02 L 150.83 107.95 C 150.52 108.80 150.95 109.74 151.79 110.06 C 152.64 110.37 153.58 109.94 153.90 109.10 L 154.25 108.16 C 154.57 107.32 154.14 106.37 153.29 106.06 C 152.44 105.74 151.50 106.17 151.18 107.02 Z M 150.84 107.97 L 150.48 108.95 C 150.18 109.79 150.62 110.72 151.46 111.03 C 152.31 111.33 153.24 110.90 153.55 110.05 L 153.90 109.08 C 154.20 108.23 153.76 107.30 152.92 106.99 C 152.07 106.69 151.14 107.13 150.84 107.97 Z M 150.49 108.97 L 150.15 109.94 C 149.85 110.78 150.30 111.71 151.14 112.00 C 151.98 112.29 152.91 111.85 153.20 111.01 L 153.54 110.03 C 153.84 109.19 153.39 108.27 152.55 107.97 C 151.71 107.68 150.78 108.12 150.49 108.97 Z M 150.15 109.96 L 149.83 110.90 C 149.55 111.74 150.00 112.65 150.84 112.94 C 151.68 113.22 152.59 112.77 152.88 111.93 L 153.20 110.99 C 153.48 110.15 153.03 109.24 152.19 108.95 C 151.35 108.67 150.44 109.12 150.15 109.96 Z M 149.84 110.92 L 149.53 111.87 C 149.26 112.71 149.72 113.61 150.55 113.88 C 151.39 114.16 152.29 113.70 152.57 112.86 L 152.87 111.91 C 153.15 111.07 152.69 110.17 151.85 109.90 C 151.01 109.62 150.11 110.08 149.84 110.92 Z M 149.53 111.90 L 149.22 112.92 C 148.96 113.76 149.43 114.65 150.27 114.90 C 151.11 115.16 151.99 114.69 152.25 113.85 L 152.56 112.83 C 152.82 111.99 152.35 111.10 151.51 110.85 C 150.67 110.59 149.79 111.06 149.53 111.90 Z M 149.22 112.96 L 148.95 113.88 C 148.71 114.72 149.20 115.59 150.04 115.83 C 150.88 116.07 151.75 115.58 151.99 114.75 L 152.25 113.82 C 152.49 112.98 152.00 112.11 151.17 111.87 C 150.33 111.63 149.46 112.12 149.22 112.96 Z M 148.96 113.91 L 148.71 114.81 C 148.49 115.64 148.99 116.50 149.82 116.73 C 150.66 116.95 151.52 116.46 151.74 115.62 L 151.98 114.72 C 152.21 113.88 151.71 113.02 150.88 112.80 C 150.04 112.58 149.18 113.07 148.96 113.91 Z M 148.72 114.82 L 148.48 115.74 C 148.26 116.57 148.77 117.43 149.60 117.64 C 150.44 117.86 151.29 117.36 151.50 116.52 L 151.74 115.61 C 151.96 114.77 151.46 113.92 150.62 113.70 C 149.79 113.48 148.93 113.99 148.72 114.82 Z M 148.48 115.75 L 148.24 116.70 C 148.02 117.54 148.53 118.39 149.36 118.60 C 150.20 118.81 151.05 118.31 151.26 117.47 L 151.50 116.51 C 151.72 115.68 151.21 114.83 150.38 114.62 C 149.54 114.40 148.69 114.91 148.48 115.75 Z M 148.24 116.71 L 147.99 117.69 C 147.78 118.53 148.28 119.38 149.12 119.59 C 149.96 119.80 150.80 119.29 151.01 118.45 L 151.26 117.47 C 151.47 116.63 150.97 115.78 150.13 115.57 C 149.29 115.36 148.45 115.87 148.24 116.71 Z M 147.99 117.69 L 147.74 118.69 C 147.53 119.52 148.04 120.37 148.87 120.58 C 149.71 120.79 150.56 120.28 150.77 119.44 L 151.01 118.45 C 151.22 117.62 150.72 116.77 149.88 116.56 C 149.04 116.35 148.20 116.86 147.99 117.69 Z"
      fill="black"
      fill-rule="nonzero" /><path d="M 155.52 102.09 L 156.41 102.44 C 157.29 102.79 158.29 102.36 158.64 101.48 C 158.99 100.59 158.55 99.59 157.67 99.24 L 156.78 98.89 C 155.90 98.55 154.90 98.98 154.55 99.86 C 154.20 100.75 154.63 101.74 155.52 102.09 Z M 156.38 102.44 L 157.29 102.81 C 158.17 103.18 159.18 102.76 159.54 101.88 C 159.90 101.00 159.48 99.99 158.60 99.62 L 157.70 99.25 C 156.82 98.89 155.81 99.31 155.44 100.19 C 155.08 101.07 155.50 102.08 156.38 102.44 Z M 157.24 102.80 L 158.18 103.22 C 159.05 103.61 160.07 103.22 160.46 102.34 C 160.85 101.47 160.46 100.45 159.59 100.06 L 158.65 99.64 C 157.78 99.25 156.76 99.64 156.37 100.51 C 155.98 101.38 156.37 102.41 157.24 102.80 Z M 158.12 103.19 L 159.00 103.62 C 159.86 104.04 160.90 103.69 161.32 102.83 C 161.74 101.98 161.39 100.94 160.53 100.52 L 159.65 100.09 C 158.79 99.66 157.75 100.02 157.33 100.88 C 156.91 101.73 157.26 102.77 158.12 103.19 Z M 158.97 103.59 L 159.81 104.04 C 160.65 104.48 161.69 104.15 162.13 103.31 C 162.57 102.47 162.25 101.43 161.41 100.99 L 160.57 100.55 C 159.73 100.11 158.69 100.43 158.24 101.27 C 157.80 102.11 158.13 103.15 158.97 103.59 Z M 159.79 104.01 L 160.67 104.49 C 161.50 104.94 162.54 104.63 162.98 103.81 C 163.43 102.98 163.13 101.94 162.30 101.50 L 161.42 101.02 C 160.60 100.57 159.56 100.87 159.11 101.70 C 158.66 102.53 158.97 103.56 159.79 104.01 Z M 160.68 104.47 L 161.59 104.98 C 162.41 105.42 163.44 105.12 163.88 104.31 C 164.33 103.49 164.03 102.46 163.22 102.02 L 162.30 101.51 C 161.48 101.06 160.46 101.36 160.01 102.18 C 159.56 103.00 159.86 104.02 160.68 104.47 Z M 161.61 104.96 L 162.54 105.47 C 163.35 105.91 164.36 105.61 164.80 104.80 C 165.24 103.99 164.94 102.97 164.13 102.53 L 163.20 102.03 C 162.39 101.59 161.38 101.89 160.94 102.70 C 160.50 103.51 160.80 104.52 161.61 104.96 Z M 162.55 105.45 L 163.46 105.94 C 164.26 106.37 165.26 106.07 165.70 105.27 C 166.13 104.47 165.83 103.47 165.03 103.04 L 164.12 102.55 C 163.32 102.12 162.32 102.42 161.88 103.22 C 161.45 104.02 161.75 105.02 162.55 105.45 Z M 163.46 105.91 L 164.36 106.41 C 165.14 106.84 166.13 106.56 166.57 105.77 C 167.00 104.99 166.72 104.00 165.93 103.56 L 165.03 103.07 C 164.24 102.63 163.26 102.92 162.82 103.70 C 162.39 104.49 162.67 105.48 163.46 105.91 Z M 164.33 106.37 L 165.19 106.87 C 165.96 107.32 166.94 107.07 167.39 106.31 C 167.83 105.54 167.58 104.56 166.82 104.11 L 165.96 103.61 C 165.19 103.16 164.21 103.41 163.76 104.17 C 163.31 104.94 163.57 105.92 164.33 106.37 Z M 165.14 106.82 L 165.94 107.33 C 166.67 107.81 167.64 107.60 168.12 106.88 C 168.60 106.15 168.39 105.17 167.66 104.69 L 166.87 104.17 C 166.14 103.70 165.16 103.90 164.68 104.63 C 164.21 105.36 164.41 106.34 165.14 106.82 Z M 165.85 107.25 L 166.68 107.90 C 167.37 108.42 168.35 108.29 168.87 107.61 C 169.40 106.93 169.27 105.94 168.59 105.42 L 167.75 104.77 C 167.07 104.25 166.09 104.38 165.56 105.06 C 165.03 105.74 165.16 106.73 165.85 107.25 Z M 166.58 107.81 L 167.33 108.49 C 167.96 109.07 168.95 109.03 169.53 108.40 C 170.11 107.76 170.07 106.77 169.44 106.19 L 168.69 105.51 C 168.06 104.92 167.07 104.97 166.49 105.60 C 165.90 106.24 165.95 107.22 166.58 107.81 Z M 167.25 108.42 L 167.92 109.11 C 168.51 109.74 169.50 109.76 170.13 109.16 C 170.75 108.57 170.77 107.58 170.17 106.95 L 169.51 106.26 C 168.91 105.64 167.92 105.62 167.30 106.21 C 166.68 106.81 166.66 107.80 167.25 108.42 Z M 167.89 109.08 L 168.38 109.63 C 168.96 110.27 169.95 110.32 170.59 109.74 C 171.23 109.17 171.28 108.18 170.70 107.54 L 170.20 106.99 C 169.63 106.35 168.64 106.30 168.00 106.88 C 167.36 107.45 167.31 108.44 167.89 109.08 Z"
      fill="black"
      fill-rule="nonzero" /><path d="M 144.78 131.90 L 143.94 130.96 C 143.34 130.28 142.30 130.22 141.62 130.82 C 140.94 131.43 140.88 132.46 141.48 133.14 L 142.32 134.09 C 142.92 134.76 143.96 134.83 144.64 134.22 C 145.32 133.62 145.38 132.58 144.78 131.90 Z M 143.78 130.77 L 143.04 130.14 C 142.33 129.55 141.28 129.64 140.68 130.35 C 140.09 131.06 140.18 132.11 140.89 132.70 L 141.64 133.33 C 142.34 133.92 143.40 133.83 143.99 133.12 C 144.58 132.42 144.49 131.36 143.78 130.77 Z M 141.97 129.73 L 141.41 129.73 C 140.47 129.72 139.71 130.48 139.71 131.42 C 139.70 132.35 140.46 133.11 141.40 133.12 L 141.96 133.12 C 142.89 133.12 143.66 132.36 143.66 131.43 C 143.66 130.49 142.90 129.73 141.97 129.73 Z M 139.86 130.69 L 139.53 131.37 C 139.13 132.22 139.49 133.24 140.34 133.65 C 141.19 134.05 142.21 133.69 142.62 132.84 L 142.94 132.16 C 143.35 131.31 142.99 130.29 142.14 129.88 C 141.29 129.47 140.27 129.83 139.86 130.69 Z M 139.39 131.84 L 139.21 132.94 C 139.06 133.87 139.70 134.75 140.63 134.90 C 141.56 135.05 142.44 134.41 142.59 133.48 L 142.77 132.38 C 142.91 131.44 142.28 130.57 141.34 130.42 C 140.41 130.27 139.53 130.90 139.39 131.84 Z M 139.19 133.09 L 139.11 134.27 C 139.04 135.22 139.76 136.03 140.70 136.10 C 141.64 136.17 142.46 135.45 142.53 134.51 L 142.61 133.33 C 142.68 132.38 141.96 131.56 141.02 131.50 C 140.07 131.43 139.26 132.14 139.19 133.09 Z M 139.11 134.33 L 139.07 135.35 C 139.04 136.29 139.77 137.09 140.72 137.12 C 141.67 137.15 142.46 136.41 142.49 135.47 L 142.53 134.45 C 142.56 133.51 141.83 132.71 140.88 132.68 C 139.93 132.64 139.14 133.38 139.11 134.33 Z M 139.07 135.38 L 139.06 136.36 C 139.04 137.31 139.80 138.08 140.74 138.10 C 141.69 138.11 142.46 137.36 142.48 136.41 L 142.49 135.43 C 142.51 134.49 141.75 133.71 140.81 133.70 C 139.86 133.68 139.08 134.44 139.07 135.38 Z M 139.06 136.38 L 139.06 137.37 C 139.05 138.31 139.82 139.08 140.76 139.08 C 141.70 139.08 142.47 138.32 142.47 137.38 L 142.48 136.39 C 142.48 135.45 141.72 134.68 140.77 134.68 C 139.83 134.68 139.06 135.44 139.06 136.38 Z M 139.06 137.37 L 139.06 138.33 C 139.06 139.27 139.82 140.04 140.77 140.03 C 141.71 140.03 142.47 139.27 142.47 138.33 L 142.47 137.37 C 142.47 136.43 141.71 135.67 140.76 135.67 C 139.82 135.67 139.06 136.43 139.06 137.37 Z M 139.06 138.34 L 139.07 139.33 C 139.07 140.27 139.84 141.03 140.78 141.02 C 141.72 141.01 142.48 140.25 142.47 139.31 L 142.47 138.32 C 142.46 137.38 141.70 136.62 140.76 136.63 C 139.82 136.63 139.06 137.40 139.06 138.34 Z M 139.07 139.34 L 139.09 140.37 C 139.10 141.30 139.87 142.05 140.81 142.04 C 141.75 142.02 142.50 141.25 142.49 140.31 L 142.47 139.29 C 142.46 138.35 141.68 137.60 140.74 137.62 C 139.81 137.63 139.06 138.40 139.07 139.34 Z M 139.09 140.39 L 139.12 141.42 C 139.15 142.35 139.93 143.09 140.87 143.06 C 141.80 143.04 142.54 142.25 142.51 141.32 L 142.48 140.29 C 142.45 139.35 141.67 138.62 140.74 138.64 C 139.80 138.67 139.06 139.45 139.09 140.39 Z M 139.13 141.44 L 139.17 142.43 C 139.21 143.36 140.00 144.08 140.94 144.04 C 141.87 144.00 142.59 143.21 142.55 142.27 L 142.51 141.29 C 142.47 140.36 141.68 139.64 140.74 139.68 C 139.81 139.72 139.09 140.51 139.13 141.44 Z M 139.18 142.44 L 139.23 143.44 C 139.28 144.37 140.07 145.08 141.00 145.03 C 141.93 144.98 142.65 144.19 142.60 143.26 L 142.55 142.26 C 142.50 141.33 141.70 140.62 140.77 140.66 C 139.84 140.71 139.13 141.51 139.18 142.44 Z M 139.23 143.44 L 139.29 144.45 C 139.34 145.38 140.13 146.09 141.06 146.04 C 141.99 145.99 142.70 145.19 142.65 144.26 L 142.60 143.25 C 142.54 142.33 141.75 141.62 140.82 141.67 C 139.89 141.72 139.18 142.51 139.23 143.44 Z M 139.29 144.44 L 139.34 145.45 C 139.39 146.37 140.18 147.08 141.11 147.04 C 142.03 146.99 142.74 146.20 142.70 145.28 L 142.65 144.27 C 142.60 143.35 141.81 142.63 140.88 142.68 C 139.96 142.73 139.25 143.52 139.29 144.44 Z M 139.35 145.43 L 139.39 146.41 C 139.43 147.33 140.21 148.05 141.13 148.01 C 142.06 147.97 142.77 147.19 142.73 146.26 L 142.69 145.29 C 142.65 144.37 141.87 143.65 140.95 143.69 C 140.03 143.73 139.31 144.51 139.35 145.43 Z M 139.40 146.39 L 139.43 147.38 C 139.46 148.30 140.24 149.02 141.15 148.99 C 142.07 148.96 142.79 148.19 142.76 147.27 L 142.73 146.28 C 142.69 145.36 141.92 144.64 141.01 144.67 C 140.09 144.70 139.37 145.47 139.40 146.39 Z M 139.44 147.37 L 139.47 148.38 C 139.49 149.29 140.25 150.02 141.17 149.99 C 142.08 149.97 142.80 149.21 142.78 148.29 L 142.75 147.28 C 142.73 146.37 141.97 145.65 141.05 145.67 C 140.14 145.69 139.42 146.45 139.44 147.37 Z M 139.47 148.37 L 139.49 149.39 C 139.51 150.30 140.26 151.03 141.17 151.01 C 142.08 151.00 142.81 150.24 142.79 149.33 L 142.77 148.31 C 142.76 147.40 142.00 146.67 141.09 146.69 C 140.18 146.70 139.46 147.46 139.47 148.37 Z M 139.50 149.38 L 139.51 150.37 C 139.52 151.27 140.27 152.00 141.17 151.99 C 142.08 151.98 142.80 151.24 142.79 150.33 L 142.78 149.35 C 142.77 148.44 142.03 147.71 141.12 147.72 C 140.22 147.73 139.49 148.48 139.50 149.38 Z M 139.52 150.36 L 139.53 151.36 C 139.53 152.26 140.27 152.98 141.17 152.98 C 142.07 152.97 142.79 152.24 142.79 151.34 L 142.78 150.34 C 142.78 149.44 142.04 148.71 141.14 148.72 C 140.24 148.72 139.52 149.46 139.52 150.36 Z M 139.54 151.35 L 139.54 152.36 C 139.54 153.26 140.27 153.98 141.17 153.98 C 142.06 153.98 142.78 153.25 142.78 152.35 L 142.78 151.34 C 142.78 150.45 142.05 149.73 141.15 149.73 C 140.26 149.73 139.54 150.46 139.54 151.35 Z M 139.55 152.36 L 139.55 153.37 C 139.55 154.26 140.27 154.98 141.16 154.98 C 142.05 154.98 142.77 154.25 142.77 153.36 L 142.77 152.36 C 142.77 151.47 142.05 150.75 141.16 150.75 C 140.27 150.75 139.55 151.47 139.55 152.36 Z M 139.56 153.37 L 139.56 154.39 C 139.56 155.27 140.28 155.99 141.16 155.99 C 142.05 155.99 142.76 155.27 142.76 154.39 L 142.76 153.37 C 142.76 152.48 142.05 151.76 141.16 151.76 C 140.28 151.76 139.56 152.48 139.56 153.37 Z M 139.57 154.39 L 139.57 155.41 C 139.57 156.29 140.28 157.01 141.16 157.01 C 142.04 157.01 142.76 156.29 142.76 155.41 L 142.76 154.39 C 142.76 153.51 142.04 152.79 141.16 152.79 C 140.28 152.79 139.57 153.51 139.57 154.39 Z M 139.57 155.41 L 139.57 156.42 C 139.57 157.29 140.29 158.00 141.16 158.00 C 142.04 158.00 142.75 157.29 142.75 156.42 L 142.75 155.41 C 142.75 154.53 142.04 153.82 141.16 153.82 C 140.29 153.82 139.57 154.53 139.57 155.41 Z M 139.58 156.42 L 139.58 157.40 C 139.58 158.27 140.29 158.98 141.16 158.98 C 142.04 158.98 142.74 158.27 142.74 157.40 L 142.74 156.42 C 142.74 155.54 142.04 154.83 141.16 154.83 C 140.29 154.83 139.58 155.54 139.58 156.42 Z M 139.59 157.40 L 139.59 158.37 C 139.59 159.24 140.29 159.95 141.16 159.95 C 142.03 159.95 142.74 159.24 142.74 158.37 L 142.74 157.40 C 142.74 156.53 142.03 155.82 141.16 155.82 C 140.29 155.82 139.59 156.53 139.59 157.40 Z M 139.59 158.37 L 139.59 159.37 C 139.59 160.24 140.30 160.94 141.16 160.94 C 142.03 160.94 142.73 160.24 142.73 159.37 L 142.73 158.37 C 142.73 157.50 142.03 156.80 141.16 156.80 C 140.30 156.80 139.59 157.50 139.59 158.37 Z M 139.59 159.37 L 139.59 160.36 C 139.59 161.23 140.30 161.93 141.16 161.93 C 142.03 161.93 142.73 161.23 142.73 160.36 L 142.73 159.37 C 142.73 158.51 142.03 157.81 141.16 157.81 C 140.30 157.81 139.59 158.51 139.59 159.37 Z M 139.60 160.36 L 139.60 161.36 C 139.60 162.22 140.30 162.92 141.16 162.92 C 142.03 162.92 142.73 162.22 142.73 161.36 L 142.73 160.36 C 142.73 159.50 142.03 158.80 141.16 158.80 C 140.30 158.80 139.60 159.50 139.60 160.36 Z M 139.60 161.36 L 139.60 162.36 C 139.60 163.22 140.30 163.92 141.16 163.92 C 142.03 163.92 142.72 163.22 142.72 162.36 L 142.72 161.36 C 142.72 160.50 142.03 159.80 141.16 159.80 C 140.30 159.80 139.60 160.50 139.60 161.36 Z M 139.60 162.36 L 139.60 163.34 C 139.60 164.20 140.30 164.90 141.16 164.90 C 142.02 164.90 142.72 164.20 142.72 163.34 L 142.72 162.36 C 142.72 161.50 142.02 160.80 141.16 160.80 C 140.30 160.80 139.60 161.50 139.60 162.36 Z M 139.60 163.34 L 139.60 164.33 C 139.60 165.20 140.30 165.89 141.16 165.89 C 142.02 165.89 142.72 165.20 142.72 164.33 L 142.72 163.34 C 142.72 162.47 142.02 161.77 141.16 161.77 C 140.30 161.77 139.60 162.47 139.60 163.34 Z M 139.60 164.33 L 139.60 165.35 C 139.60 166.21 140.30 166.91 141.16 166.91 C 142.02 166.91 142.72 166.21 142.72 165.35 L 142.72 164.33 C 142.72 163.47 142.02 162.77 141.16 162.77 C 140.30 162.77 139.60 163.47 139.60 164.33 Z M 139.60 165.35 L 139.60 166.37 C 139.60 167.23 140.30 167.93 141.16 167.93 C 142.02 167.93 142.72 167.23 142.72 166.37 L 142.72 165.35 C 142.72 164.48 142.02 163.79 141.16 163.79 C 140.30 163.79 139.60 164.48 139.60 165.35 Z M 139.60 166.37 L 139.60 166.43 C 139.60 167.29 140.30 167.99 141.16 167.99 C 142.02 167.99 142.72 167.29 142.72 166.43 L 142.72 166.37 C 142.72 165.50 142.02 164.80 141.16 164.80 C 140.30 164.80 139.60 165.50 139.60 166.37 Z"
      fill="black"
      fill-rule="nonzero" /><path d="M 140.67 133.02 L 139.54 132.51 C 138.68 132.12 137.66 132.51 137.27 133.37 C 136.88 134.24 137.27 135.25 138.13 135.64 L 139.26 136.15 C 140.13 136.54 141.15 136.16 141.54 135.29 C 141.92 134.43 141.54 133.41 140.67 133.02 Z M 140.06 132.86 L 139.51 132.31 C 138.84 131.64 137.75 131.63 137.07 132.31 C 136.40 132.98 136.40 134.07 137.07 134.75 L 137.62 135.30 C 138.29 135.97 139.38 135.97 140.06 135.30 C 140.73 134.63 140.73 133.53 140.06 132.86 Z M 139.72 134.50 L 140.03 134.04 C 140.57 133.25 140.36 132.17 139.57 131.64 C 138.78 131.10 137.70 131.31 137.17 132.10 L 136.86 132.56 C 136.32 133.35 136.53 134.43 137.32 134.96 C 138.11 135.50 139.19 135.29 139.72 134.50 Z M 139.43 134.59 L 140.15 134.20 C 140.99 133.74 141.30 132.69 140.84 131.85 C 140.38 131.01 139.33 130.70 138.49 131.16 L 137.77 131.55 C 136.93 132.01 136.62 133.06 137.08 133.90 C 137.54 134.74 138.59 135.05 139.43 134.59 Z M 139.96 134.29 L 140.97 133.89 C 141.86 133.53 142.29 132.53 141.94 131.64 C 141.58 130.75 140.58 130.31 139.69 130.67 L 138.68 131.07 C 137.79 131.42 137.35 132.43 137.71 133.32 C 138.06 134.21 139.07 134.64 139.96 134.29 Z M 140.88 133.92 L 142.06 133.52 C 142.97 133.22 143.46 132.24 143.15 131.33 C 142.85 130.42 141.87 129.93 140.96 130.24 L 139.78 130.63 C 138.87 130.94 138.38 131.92 138.68 132.83 C 138.99 133.74 139.97 134.23 140.88 133.92 Z M 142.02 133.54 L 143.11 133.20 C 144.03 132.93 144.54 131.96 144.26 131.04 C 143.98 130.12 143.01 129.61 142.10 129.89 L 141.00 130.22 C 140.09 130.50 139.57 131.47 139.85 132.39 C 140.13 133.30 141.10 133.82 142.02 133.54 Z M 143.08 133.21 L 144.08 132.93 C 145.00 132.66 145.54 131.70 145.27 130.78 C 145.01 129.86 144.05 129.33 143.13 129.59 L 142.13 129.88 C 141.21 130.14 140.67 131.10 140.94 132.02 C 141.20 132.94 142.16 133.48 143.08 133.21 Z M 144.05 132.94 L 145.04 132.67 C 145.97 132.43 146.51 131.48 146.27 130.55 C 146.02 129.62 145.07 129.08 144.15 129.32 L 143.16 129.59 C 142.23 129.83 141.68 130.78 141.93 131.71 C 142.18 132.63 143.13 133.18 144.05 132.94 Z M 145.01 132.68 L 145.97 132.44 C 146.90 132.22 147.47 131.28 147.24 130.35 C 147.01 129.42 146.07 128.85 145.14 129.08 L 144.18 129.31 C 143.25 129.54 142.68 130.48 142.91 131.41 C 143.14 132.34 144.08 132.91 145.01 132.68 Z M 145.93 132.45 L 146.85 132.25 C 147.79 132.04 148.38 131.12 148.17 130.18 C 147.96 129.25 147.04 128.66 146.10 128.86 L 145.18 129.07 C 144.25 129.27 143.66 130.20 143.86 131.13 C 144.07 132.07 144.99 132.66 145.93 132.45 Z M 146.80 132.26 L 147.83 132.07 C 148.77 131.89 149.39 130.98 149.21 130.04 C 149.03 129.10 148.12 128.48 147.18 128.66 L 146.16 128.85 C 145.22 129.03 144.60 129.94 144.78 130.88 C 144.95 131.82 145.86 132.44 146.80 132.26 Z M 147.76 132.07 L 148.80 131.92 C 149.74 131.77 150.39 130.89 150.25 129.95 C 150.10 129.00 149.22 128.35 148.28 128.49 L 147.24 128.65 C 146.30 128.79 145.65 129.68 145.79 130.62 C 145.94 131.57 146.82 132.22 147.76 132.07 Z M 148.73 131.92 L 149.70 131.81 C 150.65 131.71 151.33 130.85 151.22 129.90 C 151.12 128.95 150.26 128.27 149.31 128.38 L 148.34 128.49 C 147.39 128.60 146.71 129.45 146.82 130.40 C 146.93 131.35 147.78 132.03 148.73 131.92 Z M 149.64 131.82 L 150.57 131.75 C 151.52 131.67 152.23 130.84 152.15 129.89 C 152.08 128.94 151.25 128.23 150.29 128.30 L 149.37 128.37 C 148.42 128.45 147.71 129.28 147.78 130.23 C 147.86 131.18 148.69 131.89 149.64 131.82 Z M 150.51 131.75 L 151.50 131.70 C 152.45 131.66 153.19 130.86 153.14 129.90 C 153.10 128.95 152.30 128.22 151.35 128.26 L 150.36 128.30 C 149.40 128.34 148.67 129.15 148.71 130.10 C 148.75 131.05 149.55 131.79 150.51 131.75 Z M 151.36 131.70 L 152.36 131.73 C 153.31 131.76 154.10 131.02 154.13 130.07 C 154.17 129.12 153.42 128.32 152.47 128.29 L 151.48 128.26 C 150.53 128.23 149.73 128.97 149.70 129.92 C 149.67 130.87 150.41 131.67 151.36 131.70 Z M 152.12 131.71 L 153.09 131.87 C 154.03 132.03 154.92 131.41 155.08 130.47 C 155.24 129.53 154.61 128.65 153.67 128.48 L 152.70 128.32 C 151.77 128.16 150.88 128.79 150.72 129.72 C 150.56 130.66 151.19 131.55 152.12 131.71 Z M 152.79 131.79 L 153.71 132.13 C 154.60 132.46 155.59 132.01 155.92 131.12 C 156.25 130.23 155.79 129.24 154.90 128.91 L 153.98 128.57 C 153.09 128.24 152.10 128.69 151.77 129.58 C 151.44 130.47 151.90 131.46 152.79 131.79 Z M 153.44 132.00 L 154.30 132.50 C 155.11 132.98 156.16 132.70 156.64 131.89 C 157.12 131.07 156.84 130.02 156.03 129.54 L 155.17 129.04 C 154.36 128.57 153.31 128.84 152.83 129.66 C 152.35 130.47 152.63 131.52 153.44 132.00 Z M 154.11 132.37 L 154.92 133.00 C 155.66 133.57 156.74 133.44 157.32 132.69 C 157.90 131.95 157.76 130.87 157.01 130.29 L 156.21 129.67 C 155.46 129.09 154.39 129.23 153.81 129.97 C 153.23 130.72 153.37 131.79 154.11 132.37 Z M 154.78 132.87 L 155.51 133.58 C 156.19 134.23 157.27 134.21 157.93 133.53 C 158.58 132.85 158.56 131.77 157.88 131.12 L 157.15 130.42 C 156.47 129.76 155.39 129.78 154.74 130.46 C 154.08 131.14 154.11 132.22 154.78 132.87 Z M 155.40 133.45 L 156.06 134.22 C 156.67 134.94 157.74 135.02 158.46 134.41 C 159.17 133.80 159.26 132.73 158.65 132.01 L 157.99 131.24 C 157.38 130.53 156.31 130.44 155.59 131.05 C 154.88 131.66 154.79 132.74 155.40 133.45 Z M 155.96 134.08 L 156.52 134.90 C 157.06 135.67 158.11 135.87 158.88 135.33 C 159.65 134.80 159.85 133.75 159.32 132.98 L 158.75 132.16 C 158.22 131.39 157.16 131.19 156.39 131.72 C 155.62 132.26 155.43 133.31 155.96 134.08 Z M 156.44 134.76 L 156.92 135.62 C 157.38 136.43 158.40 136.73 159.22 136.27 C 160.03 135.82 160.33 134.79 159.87 133.97 L 159.40 133.12 C 158.94 132.30 157.91 132.01 157.10 132.46 C 156.28 132.92 155.99 133.94 156.44 134.76 Z M 156.87 135.50 L 157.28 136.40 C 157.67 137.24 158.67 137.61 159.51 137.22 C 160.36 136.83 160.73 135.83 160.34 134.99 L 159.93 134.09 C 159.54 133.25 158.54 132.88 157.69 133.27 C 156.85 133.66 156.48 134.66 156.87 135.50 Z M 157.25 136.31 L 157.60 137.20 C 157.94 138.06 158.92 138.48 159.78 138.14 C 160.64 137.80 161.07 136.82 160.72 135.96 L 160.37 135.07 C 160.03 134.21 159.05 133.79 158.19 134.13 C 157.33 134.47 156.91 135.45 157.25 136.31 Z M 157.58 137.13 L 157.91 138.07 C 158.21 138.94 159.17 139.41 160.04 139.10 C 160.92 138.80 161.38 137.84 161.07 136.97 L 160.75 136.03 C 160.44 135.16 159.49 134.69 158.61 135.00 C 157.74 135.30 157.28 136.26 157.58 137.13 Z M 157.89 138.01 L 158.20 139.00 C 158.47 139.88 159.41 140.38 160.29 140.10 C 161.17 139.83 161.66 138.89 161.39 138.01 L 161.09 137.03 C 160.82 136.14 159.88 135.65 159.00 135.92 C 158.11 136.19 157.62 137.13 157.89 138.01 Z M 158.19 138.95 L 158.46 139.93 C 158.71 140.82 159.63 141.34 160.51 141.10 C 161.40 140.85 161.92 139.93 161.68 139.04 L 161.40 138.06 C 161.16 137.17 160.24 136.65 159.35 136.90 C 158.46 137.14 157.94 138.06 158.19 138.95 Z M 158.45 139.89 L 158.69 140.85 C 158.91 141.74 159.82 142.29 160.71 142.06 C 161.60 141.84 162.15 140.94 161.92 140.04 L 161.68 139.08 C 161.46 138.19 160.56 137.65 159.66 137.87 C 158.77 138.09 158.23 139.00 158.45 139.89 Z M 158.68 140.80 L 158.90 141.79 C 159.10 142.68 159.98 143.25 160.88 143.05 C 161.78 142.85 162.34 141.97 162.15 141.07 L 161.93 140.09 C 161.73 139.19 160.85 138.63 159.95 138.82 C 159.05 139.02 158.49 139.91 158.68 140.80 Z M 158.89 141.73 L 159.08 142.73 C 159.25 143.63 160.11 144.22 161.01 144.05 C 161.92 143.88 162.51 143.02 162.34 142.12 L 162.15 141.12 C 161.99 140.22 161.12 139.63 160.22 139.80 C 159.32 139.97 158.72 140.83 158.89 141.73 Z M 159.07 142.67 L 159.22 143.64 C 159.36 144.55 160.20 145.17 161.10 145.03 C 162.01 144.89 162.63 144.05 162.49 143.15 L 162.35 142.17 C 162.21 141.27 161.37 140.65 160.46 140.78 C 159.56 140.92 158.93 141.77 159.07 142.67 Z M 159.21 143.58 L 159.32 144.51 C 159.43 145.42 160.25 146.07 161.15 145.97 C 162.06 145.86 162.71 145.04 162.61 144.14 L 162.50 143.20 C 162.39 142.30 161.57 141.65 160.67 141.75 C 159.76 141.86 159.11 142.68 159.21 143.58 Z M 159.32 144.46 L 159.40 145.42 C 159.48 146.33 160.27 147.01 161.18 146.93 C 162.09 146.85 162.76 146.06 162.69 145.15 L 162.61 144.19 C 162.53 143.28 161.73 142.61 160.83 142.68 C 159.92 142.76 159.24 143.55 159.32 144.46 Z M 159.40 145.38 L 159.46 146.39 C 159.51 147.30 160.29 147.99 161.19 147.94 C 162.10 147.89 162.80 147.11 162.74 146.21 L 162.69 145.19 C 162.64 144.29 161.86 143.59 160.95 143.64 C 160.04 143.69 159.35 144.47 159.40 145.38 Z M 159.46 146.36 L 159.50 147.45 C 159.53 148.35 160.29 149.06 161.20 149.03 C 162.11 149.00 162.81 148.24 162.78 147.33 L 162.74 146.24 C 162.71 145.33 161.95 144.63 161.04 144.66 C 160.14 144.69 159.43 145.45 159.46 146.36 Z M 159.50 147.42 L 159.52 148.42 C 159.54 149.32 160.29 150.04 161.20 150.02 C 162.10 150.00 162.82 149.25 162.80 148.35 L 162.78 147.35 C 162.76 146.45 162.01 145.73 161.11 145.75 C 160.20 145.77 159.48 146.52 159.50 147.42 Z M 159.53 148.40 L 159.53 149.41 C 159.54 150.31 160.28 151.04 161.18 151.04 C 162.08 151.03 162.81 150.29 162.80 149.39 L 162.80 148.37 C 162.79 147.47 162.05 146.74 161.15 146.75 C 160.25 146.76 159.52 147.49 159.53 148.40 Z M 159.54 149.38 L 159.53 150.41 C 159.51 151.32 160.24 152.05 161.14 152.06 C 162.04 152.07 162.78 151.35 162.79 150.45 L 162.80 149.42 C 162.81 148.52 162.09 147.78 161.19 147.77 C 160.29 147.76 159.55 148.48 159.54 149.38 Z M 159.53 150.38 L 159.49 151.40 C 159.46 152.29 160.17 153.05 161.06 153.08 C 161.96 153.11 162.72 152.41 162.75 151.51 L 162.78 150.49 C 162.81 149.59 162.11 148.84 161.21 148.81 C 160.32 148.78 159.56 149.48 159.53 150.38 Z M 159.50 151.35 L 159.44 152.33 C 159.38 153.22 160.05 153.99 160.95 154.05 C 161.84 154.11 162.62 153.44 162.68 152.54 L 162.74 151.56 C 162.80 150.67 162.12 149.89 161.23 149.83 C 160.33 149.77 159.56 150.45 159.50 151.35 Z M 159.45 152.25 L 159.33 153.28 C 159.23 154.17 159.87 154.97 160.76 155.07 C 161.65 155.16 162.45 154.53 162.55 153.64 L 162.66 152.61 C 162.76 151.72 162.12 150.92 161.24 150.82 C 160.35 150.73 159.55 151.37 159.45 152.25 Z M 159.36 153.18 L 159.17 154.21 C 159.02 155.09 159.60 155.92 160.48 156.08 C 161.36 156.23 162.19 155.65 162.35 154.77 L 162.53 153.74 C 162.68 152.86 162.10 152.02 161.22 151.87 C 160.34 151.72 159.51 152.30 159.36 153.18 Z M 159.21 154.10 L 158.97 155.05 C 158.75 155.91 159.27 156.78 160.13 156.99 C 160.99 157.21 161.86 156.69 162.07 155.83 L 162.31 154.88 C 162.53 154.02 162.01 153.15 161.15 152.94 C 160.29 152.72 159.42 153.24 159.21 154.10 Z M 159.01 154.94 L 158.71 155.84 C 158.43 156.68 158.89 157.58 159.72 157.85 C 160.56 158.13 161.46 157.68 161.73 156.84 L 162.03 155.94 C 162.31 155.10 161.85 154.20 161.02 153.93 C 160.18 153.65 159.28 154.11 159.01 154.94 Z M 158.75 155.75 L 158.40 156.64 C 158.07 157.45 158.46 158.37 159.27 158.70 C 160.08 159.03 161.01 158.63 161.33 157.82 L 161.69 156.93 C 162.02 156.12 161.63 155.20 160.81 154.87 C 160.00 154.54 159.08 154.94 158.75 155.75 Z M 158.44 156.56 L 158.01 157.46 C 157.64 158.25 157.98 159.19 158.77 159.56 C 159.56 159.93 160.50 159.60 160.87 158.81 L 161.29 157.90 C 161.66 157.11 161.32 156.17 160.54 155.80 C 159.75 155.43 158.81 155.77 158.44 156.56 Z M 158.06 157.38 L 157.57 158.26 C 157.15 159.02 157.43 159.98 158.19 160.40 C 158.95 160.82 159.91 160.54 160.33 159.78 L 160.82 158.90 C 161.24 158.13 160.96 157.18 160.20 156.76 C 159.44 156.34 158.48 156.62 158.06 157.38 Z M 157.64 158.16 L 157.09 159.00 C 156.61 159.73 156.82 160.70 157.54 161.17 C 158.27 161.65 159.24 161.45 159.72 160.72 L 160.26 159.88 C 160.74 159.15 160.53 158.18 159.81 157.71 C 159.08 157.23 158.11 157.44 157.64 158.16 Z M 157.17 158.89 L 156.56 159.66 C 156.02 160.34 156.14 161.33 156.81 161.86 C 157.49 162.40 158.48 162.29 159.01 161.61 L 159.63 160.83 C 160.17 160.16 160.05 159.17 159.37 158.63 C 158.70 158.10 157.71 158.21 157.17 158.89 Z M 156.69 159.53 L 155.94 160.26 C 155.33 160.87 155.33 161.86 155.93 162.47 C 156.54 163.09 157.53 163.09 158.14 162.48 L 158.89 161.75 C 159.50 161.14 159.51 160.15 158.90 159.54 C 158.29 158.92 157.30 158.92 156.69 159.53 Z M 156.14 160.10 L 155.32 160.68 C 154.62 161.18 154.45 162.16 154.95 162.86 C 155.46 163.57 156.43 163.73 157.13 163.23 L 157.95 162.65 C 158.65 162.15 158.82 161.17 158.32 160.47 C 157.81 159.76 156.84 159.60 156.14 160.10 Z M 155.61 160.52 L 154.72 160.91 C 153.93 161.25 153.57 162.17 153.91 162.96 C 154.25 163.75 155.17 164.11 155.96 163.77 L 156.85 163.39 C 157.64 163.05 158.00 162.13 157.66 161.34 C 157.32 160.54 156.40 160.18 155.61 160.52 Z M 155.10 160.80 L 154.17 160.94 C 153.32 161.07 152.74 161.87 152.87 162.72 C 153.00 163.57 153.80 164.16 154.65 164.03 L 155.58 163.88 C 156.43 163.75 157.02 162.95 156.88 162.10 C 156.75 161.25 155.96 160.66 155.10 160.80 Z M 154.54 160.93 L 153.62 160.85 C 152.76 160.78 152.01 161.41 151.93 162.27 C 151.86 163.13 152.50 163.89 153.36 163.96 L 154.28 164.04 C 155.14 164.11 155.89 163.47 155.97 162.61 C 156.04 161.76 155.40 161.00 154.54 160.93 Z M 153.86 160.89 L 152.90 160.65 C 152.06 160.45 151.21 160.96 151.01 161.80 C 150.80 162.64 151.32 163.48 152.16 163.69 L 153.12 163.92 C 153.96 164.12 154.80 163.61 155.00 162.77 C 155.21 161.94 154.70 161.09 153.86 160.89 Z M 153.03 160.69 L 152.04 160.36 C 151.23 160.08 150.34 160.51 150.06 161.33 C 149.78 162.15 150.22 163.03 151.04 163.31 L 152.02 163.65 C 152.84 163.92 153.73 163.49 154.00 162.67 C 154.28 161.86 153.84 160.97 153.03 160.69 Z M 152.09 160.37 L 151.27 160.06 C 150.46 159.75 149.56 160.16 149.25 160.96 C 148.95 161.77 149.35 162.67 150.15 162.98 L 150.98 163.29 C 151.79 163.60 152.69 163.20 153.00 162.39 C 153.30 161.58 152.90 160.68 152.09 160.37 Z"
      fill="black"
      fill-rule="nonzero" /><path d="M 141.76 142.70 L 140.37 142.64 C 139.43 142.61 138.63 143.34 138.60 144.28 C 138.56 145.23 139.30 146.02 140.24 146.06 L 141.63 146.11 C 142.57 146.15 143.36 145.41 143.40 144.47 C 143.44 143.53 142.70 142.73 141.76 142.70 Z M 140.41 142.64 L 139.70 142.60 C 138.75 142.54 137.94 143.26 137.88 144.20 C 137.82 145.15 138.54 145.96 139.48 146.02 L 140.20 146.06 C 141.15 146.12 141.96 145.40 142.02 144.46 C 142.08 143.51 141.36 142.70 140.41 142.64 Z M 139.71 146.02 L 140.01 146.00 C 140.96 145.93 141.67 145.11 141.61 144.16 C 141.54 143.22 140.72 142.51 139.77 142.57 L 139.47 142.59 C 138.52 142.66 137.81 143.48 137.88 144.43 C 137.94 145.37 138.77 146.09 139.71 146.02 Z M 139.92 146.00 L 140.72 145.99 C 141.67 145.97 142.42 145.19 142.41 144.24 C 142.39 143.30 141.61 142.54 140.66 142.56 L 139.87 142.57 C 138.92 142.58 138.16 143.36 138.18 144.31 C 138.19 145.26 138.97 146.02 139.92 146.00 Z M 140.72 145.99 L 141.85 145.97 C 142.80 145.95 143.55 145.17 143.53 144.23 C 143.52 143.28 142.74 142.52 141.79 142.54 L 140.66 142.56 C 139.72 142.57 138.96 143.35 138.98 144.30 C 138.99 145.25 139.77 146.00 140.72 145.99 Z M 141.86 145.97 L 143.17 145.93 C 144.11 145.91 144.86 145.12 144.84 144.18 C 144.82 143.23 144.03 142.49 143.08 142.51 L 141.78 142.54 C 140.83 142.56 140.08 143.35 140.11 144.30 C 140.13 145.24 140.92 145.99 141.86 145.97 Z M 143.19 145.92 L 144.33 145.88 C 145.27 145.84 146.00 145.05 145.96 144.11 C 145.93 143.17 145.14 142.44 144.19 142.47 L 143.06 142.52 C 142.12 142.55 141.39 143.35 141.42 144.29 C 141.46 145.23 142.25 145.96 143.19 145.92 Z M 144.35 145.86 L 145.36 145.81 C 146.29 145.76 147.00 144.97 146.95 144.04 C 146.91 143.11 146.11 142.39 145.18 142.44 L 144.17 142.49 C 143.24 142.54 142.53 143.33 142.58 144.26 C 142.62 145.19 143.42 145.91 144.35 145.86 Z M 145.36 145.79 L 146.36 145.73 C 147.28 145.68 147.98 144.89 147.93 143.97 C 147.88 143.06 147.09 142.35 146.17 142.41 L 145.17 142.46 C 144.26 142.52 143.56 143.30 143.61 144.22 C 143.66 145.14 144.45 145.84 145.36 145.79 Z M 146.36 145.71 L 147.35 145.65 C 148.26 145.60 148.95 144.82 148.90 143.92 C 148.84 143.01 148.07 142.32 147.16 142.37 L 146.17 142.43 C 145.27 142.48 144.58 143.26 144.63 144.16 C 144.68 145.07 145.46 145.76 146.36 145.71 Z M 147.34 145.63 L 148.33 145.58 C 149.22 145.53 149.91 144.77 149.86 143.88 C 149.82 142.98 149.06 142.30 148.16 142.34 L 147.17 142.39 C 146.28 142.44 145.59 143.20 145.64 144.09 C 145.68 144.99 146.45 145.68 147.34 145.63 Z M 148.31 145.56 L 149.30 145.52 C 150.18 145.49 150.87 144.74 150.84 143.86 C 150.80 142.98 150.06 142.29 149.17 142.32 L 148.18 142.36 C 147.30 142.40 146.61 143.14 146.64 144.02 C 146.68 144.91 147.42 145.60 148.31 145.56 Z M 149.28 145.51 L 150.27 145.49 C 151.15 145.47 151.84 144.74 151.82 143.86 C 151.80 142.98 151.07 142.28 150.19 142.31 L 149.19 142.33 C 148.32 142.35 147.62 143.08 147.64 143.96 C 147.67 144.84 148.40 145.54 149.28 145.51 Z M 150.25 145.48 L 151.25 145.47 C 152.13 145.45 152.83 144.73 152.81 143.86 C 152.80 142.99 152.08 142.29 151.21 142.30 L 150.21 142.31 C 149.33 142.33 148.63 143.05 148.65 143.92 C 148.66 144.80 149.38 145.49 150.25 145.48 Z M 151.24 145.46 L 152.24 145.45 C 153.11 145.45 153.81 144.74 153.81 143.86 C 153.80 142.99 153.09 142.29 152.22 142.30 L 151.22 142.31 C 150.35 142.31 149.65 143.02 149.65 143.89 C 149.66 144.76 150.37 145.47 151.24 145.46 Z M 152.24 145.44 L 153.24 145.44 C 154.11 145.44 154.81 144.74 154.80 143.87 C 154.80 143.00 154.10 142.30 153.23 142.30 L 152.23 142.31 C 151.36 142.31 150.66 143.01 150.66 143.88 C 150.66 144.75 151.37 145.45 152.24 145.44 Z M 153.24 145.44 L 153.89 145.44 C 154.76 145.44 155.46 144.74 155.46 143.87 C 155.46 143.01 154.76 142.31 153.89 142.31 L 153.23 142.31 C 152.37 142.31 151.67 143.01 151.67 143.87 C 151.67 144.74 152.37 145.44 153.24 145.44 Z"
      fill="black"
      fill-rule="nonzero" /><path d="M 145.34 148.23 L 144.62 149.27 C 144.10 150.04 144.29 151.09 145.06 151.62 C 145.83 152.15 146.88 151.95 147.41 151.18 L 148.13 150.13 C 148.65 149.36 148.46 148.31 147.69 147.79 C 146.92 147.26 145.87 147.46 145.34 148.23 Z M 144.47 149.52 L 144.09 150.36 C 143.70 151.21 144.08 152.22 144.93 152.61 C 145.78 153.00 146.79 152.62 147.17 151.77 L 147.56 150.93 C 147.95 150.08 147.57 149.08 146.72 148.69 C 145.87 148.30 144.86 148.67 144.47 149.52 Z M 144.15 151.90 L 144.38 152.30 C 144.84 153.12 145.87 153.41 146.69 152.95 C 147.51 152.49 147.80 151.46 147.34 150.64 L 147.11 150.23 C 146.66 149.42 145.62 149.12 144.80 149.58 C 143.98 150.04 143.69 151.08 144.15 151.90 Z M 145.82 153.17 L 146.56 153.19 C 147.50 153.21 148.28 152.47 148.30 151.53 C 148.32 150.59 147.58 149.81 146.64 149.79 L 145.90 149.77 C 144.96 149.75 144.18 150.49 144.16 151.43 C 144.14 152.37 144.88 153.15 145.82 153.17 Z M 146.95 153.15 L 148.07 152.91 C 148.99 152.72 149.58 151.81 149.38 150.89 C 149.19 149.98 148.28 149.39 147.36 149.59 L 146.24 149.82 C 145.32 150.02 144.74 150.92 144.93 151.84 C 145.13 152.76 146.03 153.35 146.95 153.15 Z M 148.21 152.88 L 149.44 152.50 C 150.34 152.23 150.84 151.28 150.57 150.38 C 150.30 149.48 149.35 148.98 148.45 149.25 L 147.22 149.62 C 146.32 149.90 145.82 150.85 146.09 151.75 C 146.36 152.64 147.32 153.15 148.21 152.88 Z M 149.50 152.48 L 150.39 152.17 C 151.27 151.87 151.74 150.90 151.44 150.02 C 151.13 149.13 150.17 148.66 149.28 148.97 L 148.39 149.27 C 147.51 149.58 147.04 150.54 147.34 151.43 C 147.65 152.31 148.61 152.78 149.50 152.48 Z M 150.41 152.15 L 151.34 151.82 C 152.22 151.50 152.67 150.53 152.35 149.66 C 152.04 148.78 151.07 148.33 150.20 148.65 L 149.26 148.98 C 148.39 149.30 147.94 150.27 148.25 151.14 C 148.57 152.02 149.53 152.47 150.41 152.15 Z M 151.35 151.80 L 152.31 151.45 C 153.17 151.13 153.62 150.17 153.30 149.30 C 152.98 148.43 152.02 147.99 151.15 148.31 L 150.19 148.66 C 149.32 148.98 148.88 149.94 149.20 150.81 C 149.52 151.68 150.48 152.12 151.35 151.80 Z M 152.30 151.44 L 153.27 151.09 C 154.13 150.78 154.58 149.82 154.27 148.96 C 153.95 148.09 153.00 147.65 152.13 147.96 L 151.16 148.31 C 150.30 148.63 149.85 149.58 150.16 150.45 C 150.48 151.31 151.43 151.76 152.30 151.44 Z M 153.25 151.09 L 154.22 150.75 C 155.08 150.45 155.54 149.51 155.24 148.64 C 154.94 147.78 153.99 147.32 153.13 147.62 L 152.16 147.96 C 151.29 148.26 150.84 149.21 151.14 150.07 C 151.44 150.93 152.38 151.39 153.25 151.09 Z M 154.18 150.75 L 155.16 150.43 C 156.02 150.15 156.49 149.22 156.21 148.36 C 155.93 147.50 155.00 147.03 154.14 147.31 L 153.16 147.63 C 152.30 147.91 151.83 148.83 152.11 149.70 C 152.39 150.56 153.32 151.03 154.18 150.75 Z M 155.13 150.42 L 156.09 150.13 C 156.95 149.86 157.43 148.96 157.17 148.10 C 156.91 147.24 156.00 146.76 155.14 147.02 L 154.18 147.31 C 153.32 147.58 152.83 148.48 153.10 149.34 C 153.36 150.20 154.27 150.69 155.13 150.42 Z M 156.06 150.12 L 157.02 149.84 C 157.88 149.59 158.37 148.70 158.12 147.85 C 157.87 146.99 156.98 146.50 156.13 146.75 L 155.17 147.03 C 154.32 147.27 153.83 148.17 154.07 149.02 C 154.32 149.87 155.21 150.37 156.06 150.12 Z M 157.00 149.83 L 157.95 149.56 C 158.80 149.33 159.29 148.45 159.06 147.60 C 158.82 146.76 157.95 146.26 157.10 146.50 L 156.15 146.76 C 155.30 147.00 154.81 147.88 155.04 148.72 C 155.28 149.57 156.15 150.06 157.00 149.83 Z M 157.94 149.55 L 158.89 149.29 C 159.73 149.07 160.22 148.20 159.99 147.36 C 159.76 146.52 158.90 146.03 158.06 146.25 L 157.11 146.51 C 156.27 146.74 155.78 147.61 156.01 148.44 C 156.23 149.28 157.10 149.78 157.94 149.55 Z M 158.88 149.28 L 159.08 149.23 C 159.91 149.01 160.40 148.15 160.18 147.31 C 159.95 146.48 159.09 145.98 158.26 146.21 L 158.06 146.26 C 157.23 146.49 156.74 147.35 156.96 148.18 C 157.19 149.02 158.05 149.51 158.88 149.28 Z"
      fill="black"
      fill-rule="nonzero" /><path d="M 145.80 155.36 L 145.12 156.08 C 144.50 156.74 144.54 157.78 145.20 158.40 C 145.86 159.02 146.90 158.99 147.52 158.32 L 148.20 157.60 C 148.82 156.94 148.78 155.90 148.12 155.28 C 147.46 154.66 146.42 154.69 145.80 155.36 Z M 145.10 156.10 L 144.43 156.84 C 143.82 157.51 143.88 158.55 144.55 159.16 C 145.22 159.76 146.25 159.71 146.86 159.04 L 147.53 158.30 C 148.14 157.63 148.09 156.60 147.42 155.99 C 146.75 155.38 145.71 155.43 145.10 156.10 Z M 144.40 156.88 L 143.75 157.64 C 143.16 158.33 143.24 159.37 143.93 159.95 C 144.62 160.54 145.65 160.46 146.24 159.77 L 146.89 159.01 C 147.48 158.32 147.40 157.28 146.71 156.69 C 146.02 156.11 144.99 156.19 144.40 156.88 Z M 143.69 157.72 L 142.92 158.74 C 142.38 159.46 142.52 160.48 143.24 161.03 C 143.97 161.57 144.99 161.43 145.54 160.71 L 146.30 159.69 C 146.85 158.97 146.70 157.94 145.98 157.40 C 145.26 156.86 144.23 157.00 143.69 157.72 Z M 142.74 159.04 L 142.38 159.84 C 142.00 160.66 142.37 161.63 143.19 162.01 C 144.01 162.38 144.98 162.02 145.35 161.20 L 145.72 160.40 C 146.09 159.58 145.73 158.61 144.91 158.23 C 144.09 157.86 143.12 158.22 142.74 159.04 Z M 143.01 161.91 L 143.37 162.13 C 144.13 162.61 145.14 162.37 145.61 161.60 C 146.09 160.83 145.85 159.83 145.08 159.35 L 144.72 159.13 C 143.96 158.66 142.95 158.89 142.48 159.66 C 142.00 160.43 142.24 161.44 143.01 161.91 Z M 144.62 162.32 L 145.49 162.11 C 146.36 161.89 146.90 161.01 146.68 160.13 C 146.46 159.26 145.58 158.73 144.70 158.94 L 143.83 159.16 C 142.96 159.38 142.43 160.26 142.64 161.14 C 142.86 162.01 143.75 162.54 144.62 162.32 Z M 145.70 162.04 L 146.85 161.58 C 147.68 161.25 148.09 160.30 147.76 159.47 C 147.43 158.63 146.48 158.23 145.65 158.56 L 144.50 159.02 C 143.66 159.35 143.25 160.29 143.59 161.13 C 143.92 161.96 144.86 162.37 145.70 162.04 Z M 146.92 161.54 L 147.94 161.08 C 148.75 160.71 149.11 159.75 148.74 158.93 C 148.37 158.12 147.41 157.76 146.60 158.13 L 145.58 158.59 C 144.76 158.96 144.40 159.93 144.77 160.74 C 145.14 161.55 146.10 161.91 146.92 161.54 Z M 147.97 161.06 L 148.87 160.62 C 149.68 160.23 150.01 159.27 149.62 158.46 C 149.24 157.66 148.27 157.33 147.47 157.71 L 146.57 158.15 C 145.76 158.54 145.43 159.50 145.81 160.31 C 146.20 161.11 147.17 161.44 147.97 161.06 Z M 148.88 160.60 L 149.78 160.16 C 150.57 159.77 150.89 158.80 150.50 158.01 C 150.11 157.22 149.14 156.89 148.35 157.29 L 147.46 157.73 C 146.66 158.12 146.34 159.09 146.73 159.88 C 147.13 160.67 148.09 161.00 148.88 160.60 Z M 149.77 160.15 L 150.66 159.71 C 151.45 159.32 151.77 158.36 151.38 157.57 C 150.99 156.78 150.03 156.46 149.24 156.85 L 148.35 157.29 C 147.56 157.69 147.24 158.64 147.63 159.43 C 148.02 160.22 148.98 160.55 149.77 160.15 Z M 150.65 159.71 L 151.56 159.27 C 152.35 158.89 152.68 157.94 152.29 157.15 C 151.91 156.36 150.96 156.03 150.17 156.41 L 149.26 156.85 C 148.47 157.23 148.14 158.19 148.52 158.98 C 148.90 159.77 149.86 160.10 150.65 159.71 Z M 151.54 159.27 L 152.45 158.84 C 153.24 158.46 153.58 157.52 153.21 156.73 C 152.83 155.94 151.89 155.60 151.09 155.98 L 150.18 156.41 C 149.39 156.78 149.05 157.73 149.43 158.52 C 149.80 159.31 150.75 159.65 151.54 159.27 Z M 152.44 158.84 L 153.35 158.41 C 154.14 158.04 154.48 157.10 154.11 156.31 C 153.74 155.52 152.80 155.18 152.01 155.55 L 151.10 155.98 C 150.31 156.35 149.97 157.29 150.34 158.08 C 150.71 158.87 151.65 159.21 152.44 158.84 Z M 153.34 158.41 L 154.24 157.99 C 155.03 157.62 155.37 156.68 155.00 155.90 C 154.63 155.11 153.69 154.77 152.90 155.14 L 152.01 155.56 C 151.22 155.93 150.88 156.86 151.25 157.65 C 151.62 158.44 152.56 158.78 153.34 158.41 Z M 154.24 157.99 L 155.17 157.55 C 155.95 157.18 156.29 156.24 155.92 155.46 C 155.55 154.68 154.61 154.34 153.83 154.71 L 152.90 155.14 C 152.12 155.51 151.78 156.45 152.15 157.23 C 152.52 158.02 153.45 158.36 154.24 157.99 Z M 155.16 157.55 L 156.06 157.13 C 156.85 156.76 157.19 155.83 156.82 155.05 C 156.46 154.26 155.53 153.92 154.74 154.29 L 153.84 154.71 C 153.05 155.07 152.71 156.01 153.08 156.79 C 153.44 157.57 154.37 157.91 155.16 157.55 Z M 156.05 157.13 L 156.94 156.73 C 157.73 156.37 158.08 155.45 157.72 154.66 C 157.36 153.87 156.44 153.52 155.65 153.88 L 154.76 154.28 C 153.97 154.64 153.62 155.56 153.98 156.35 C 154.33 157.14 155.26 157.49 156.05 157.13 Z M 156.91 156.74 L 157.80 156.36 C 158.59 156.02 158.96 155.10 158.62 154.31 C 158.28 153.52 157.36 153.15 156.57 153.49 L 155.68 153.87 C 154.89 154.21 154.52 155.13 154.86 155.92 C 155.20 156.71 156.12 157.08 156.91 156.74 Z M 157.74 156.38 L 158.65 156.03 C 159.46 155.73 159.86 154.82 159.55 154.02 C 159.24 153.21 158.34 152.81 157.54 153.12 L 156.63 153.47 C 155.82 153.77 155.42 154.68 155.73 155.48 C 156.03 156.29 156.94 156.69 157.74 156.38 Z M 158.56 156.06 L 159.52 155.76 C 160.35 155.50 160.80 154.62 160.54 153.80 C 160.28 152.98 159.41 152.52 158.58 152.78 L 157.62 153.09 C 156.80 153.35 156.35 154.22 156.61 155.05 C 156.87 155.87 157.74 156.32 158.56 156.06 Z M 159.41 155.79 L 160.46 155.54 C 161.30 155.35 161.82 154.51 161.63 153.67 C 161.43 152.83 160.59 152.31 159.75 152.51 L 158.70 152.75 C 157.86 152.95 157.34 153.79 157.53 154.63 C 157.73 155.47 158.57 155.99 159.41 155.79 Z M 160.32 155.57 L 161.44 155.42 C 162.29 155.31 162.89 154.52 162.78 153.66 C 162.66 152.81 161.87 152.21 161.02 152.32 L 159.90 152.48 C 159.04 152.59 158.44 153.38 158.56 154.23 C 158.67 155.09 159.46 155.69 160.32 155.57 Z M 161.17 155.44 L 162.18 155.47 C 163.05 155.50 163.77 154.83 163.80 153.97 C 163.83 153.10 163.16 152.38 162.29 152.34 L 161.29 152.31 C 160.42 152.28 159.70 152.95 159.66 153.82 C 159.63 154.68 160.31 155.41 161.17 155.44 Z M 161.61 155.35 L 162.33 155.66 C 163.12 156.01 164.05 155.65 164.40 154.85 C 164.74 154.06 164.38 153.14 163.59 152.79 L 162.87 152.47 C 162.07 152.12 161.15 152.49 160.80 153.28 C 160.45 154.07 160.82 155.00 161.61 155.35 Z M 161.51 154.87 L 161.81 155.54 C 162.16 156.34 163.10 156.70 163.90 156.35 C 164.70 155.99 165.06 155.06 164.71 154.26 L 164.41 153.58 C 164.05 152.78 163.12 152.42 162.32 152.78 C 161.52 153.13 161.16 154.07 161.51 154.87 Z M 161.65 154.73 L 161.55 155.68 C 161.46 156.56 162.10 157.36 162.99 157.45 C 163.88 157.54 164.67 156.90 164.76 156.01 L 164.86 155.06 C 164.95 154.18 164.31 153.39 163.42 153.29 C 162.54 153.20 161.75 153.84 161.65 154.73 Z M 161.61 155.28 L 161.21 156.39 C 160.90 157.24 161.35 158.18 162.20 158.49 C 163.05 158.80 163.99 158.36 164.30 157.51 L 164.70 156.40 C 165.01 155.55 164.57 154.61 163.72 154.30 C 162.86 153.99 161.92 154.43 161.61 155.28 Z M 161.28 156.18 L 160.80 157.12 C 160.37 157.93 160.69 158.94 161.51 159.36 C 162.33 159.78 163.33 159.46 163.75 158.65 L 164.24 157.71 C 164.66 156.89 164.34 155.89 163.52 155.47 C 162.71 155.05 161.70 155.37 161.28 156.18 Z M 160.85 157.00 L 160.33 157.85 C 159.84 158.64 160.08 159.67 160.87 160.15 C 161.65 160.64 162.68 160.40 163.17 159.61 L 163.70 158.76 C 164.18 157.98 163.94 156.95 163.15 156.46 C 162.37 155.97 161.34 156.22 160.85 157.00 Z M 160.37 157.78 L 159.79 158.61 C 159.26 159.38 159.45 160.42 160.22 160.95 C 160.98 161.48 162.03 161.28 162.55 160.52 L 163.13 159.69 C 163.66 158.92 163.46 157.88 162.70 157.35 C 161.94 156.82 160.89 157.02 160.37 157.78 Z M 159.82 158.57 L 159.22 159.38 C 158.66 160.13 158.82 161.18 159.57 161.73 C 160.32 162.29 161.37 162.13 161.93 161.38 L 162.53 160.57 C 163.08 159.82 162.92 158.77 162.17 158.21 C 161.42 157.66 160.37 157.82 159.82 158.57 Z M 159.23 159.36 L 158.62 160.16 C 158.05 160.90 158.20 161.96 158.94 162.52 C 159.68 163.09 160.74 162.95 161.30 162.20 L 161.91 161.40 C 162.48 160.66 162.34 159.60 161.59 159.04 C 160.85 158.47 159.79 158.61 159.23 159.36 Z M 158.62 160.15 L 158.01 160.95 C 157.44 161.69 157.58 162.75 158.32 163.32 C 159.06 163.89 160.12 163.75 160.69 163.01 L 161.30 162.21 C 161.87 161.47 161.73 160.41 160.99 159.84 C 160.25 159.27 159.19 159.41 158.62 160.15 Z M 158.00 160.95 L 157.40 161.74 C 156.84 162.48 156.98 163.54 157.72 164.11 C 158.46 164.68 159.53 164.53 160.09 163.79 L 160.69 163.01 C 161.26 162.26 161.12 161.20 160.38 160.63 C 159.63 160.07 158.57 160.21 158.00 160.95 Z M 157.39 161.75 L 156.80 162.54 C 156.24 163.29 156.39 164.35 157.14 164.91 C 157.88 165.47 158.95 165.32 159.51 164.57 L 160.10 163.78 C 160.66 163.03 160.51 161.97 159.77 161.41 C 159.02 160.85 157.96 161.00 157.39 161.75 Z M 156.79 162.55 L 156.20 163.35 C 155.65 164.11 155.82 165.17 156.57 165.72 C 157.33 166.27 158.39 166.11 158.94 165.35 L 159.52 164.55 C 160.07 163.80 159.91 162.74 159.15 162.19 C 158.40 161.63 157.34 161.80 156.79 162.55 Z M 156.19 163.37 L 155.64 164.15 C 155.10 164.91 155.28 165.97 156.04 166.51 C 156.81 167.05 157.87 166.87 158.41 166.11 L 158.96 165.33 C 159.50 164.57 159.32 163.51 158.55 162.97 C 157.79 162.43 156.73 162.61 156.19 163.37 Z M 155.62 164.17 L 155.07 164.98 C 154.54 165.75 154.74 166.81 155.51 167.34 C 156.28 167.87 157.34 167.67 157.86 166.90 L 158.42 166.09 C 158.95 165.31 158.75 164.26 157.98 163.73 C 157.21 163.20 156.15 163.40 155.62 164.17 Z M 155.05 165.00 L 154.49 165.85 C 153.97 166.63 154.19 167.68 154.97 168.20 C 155.75 168.71 156.80 168.50 157.32 167.72 L 157.88 166.88 C 158.40 166.10 158.18 165.04 157.40 164.53 C 156.62 164.01 155.57 164.22 155.05 165.00 Z M 154.48 165.87 L 153.91 166.75 C 153.40 167.54 153.63 168.59 154.42 169.09 C 155.21 169.60 156.25 169.37 156.76 168.59 L 157.33 167.70 C 157.84 166.91 157.61 165.87 156.82 165.36 C 156.03 164.85 154.99 165.08 154.48 165.87 Z M 153.90 166.77 L 153.37 167.62 C 152.87 168.41 153.11 169.46 153.91 169.95 C 154.70 170.45 155.75 170.21 156.24 169.41 L 156.77 168.57 C 157.27 167.77 157.03 166.73 156.23 166.23 C 155.44 165.73 154.39 165.98 153.90 166.77 Z M 153.36 167.63 L 152.84 168.48 C 152.36 169.28 152.61 170.32 153.41 170.81 C 154.21 171.30 155.25 171.04 155.74 170.24 L 156.25 169.39 C 156.74 168.60 156.49 167.55 155.69 167.07 C 154.89 166.58 153.85 166.84 153.36 167.63 Z M 152.84 168.50 L 152.32 169.37 C 151.84 170.17 152.11 171.21 152.91 171.68 C 153.71 172.16 154.75 171.90 155.23 171.09 L 155.74 170.23 C 156.22 169.42 155.96 168.39 155.15 167.91 C 154.35 167.43 153.31 167.70 152.84 168.50 Z M 152.31 169.38 L 151.81 170.26 C 151.34 171.06 151.61 172.10 152.42 172.57 C 153.22 173.04 154.26 172.76 154.73 171.95 L 155.24 171.08 C 155.71 170.27 155.43 169.24 154.62 168.77 C 153.82 168.30 152.78 168.57 152.31 169.38 Z M 151.80 170.27 L 151.30 171.14 C 150.84 171.95 151.12 172.99 151.93 173.45 C 152.74 173.91 153.78 173.63 154.24 172.81 L 154.73 171.94 C 155.20 171.13 154.91 170.10 154.10 169.64 C 153.29 169.18 152.26 169.46 151.80 170.27 Z M 151.30 171.16 L 150.82 172.01 C 150.37 172.83 150.66 173.85 151.47 174.31 C 152.28 174.76 153.31 174.47 153.76 173.66 L 154.24 172.80 C 154.69 171.99 154.40 170.96 153.59 170.51 C 152.78 170.05 151.75 170.34 151.30 171.16 Z M 150.82 172.03 L 150.35 172.88 C 149.91 173.69 150.21 174.71 151.02 175.16 C 151.83 175.60 152.86 175.30 153.30 174.49 L 153.77 173.64 C 154.21 172.83 153.91 171.81 153.10 171.36 C 152.29 170.91 151.26 171.21 150.82 172.03 Z M 150.35 172.89 L 149.89 173.75 C 149.45 174.56 149.76 175.58 150.57 176.02 C 151.39 176.46 152.40 176.15 152.84 175.34 L 153.30 174.48 C 153.74 173.66 153.43 172.65 152.62 172.21 C 151.81 171.77 150.79 172.08 150.35 172.89 Z M 149.89 173.76 L 149.42 174.65 C 148.99 175.46 149.30 176.47 150.11 176.90 C 150.93 177.33 151.94 177.02 152.37 176.21 L 152.84 175.32 C 153.27 174.51 152.96 173.50 152.15 173.07 C 151.33 172.64 150.32 172.95 149.89 173.76 Z M 149.42 174.66 L 148.94 175.58 C 148.51 176.39 148.83 177.40 149.64 177.82 C 150.45 178.25 151.46 177.94 151.88 177.12 L 152.37 176.20 C 152.79 175.39 152.48 174.38 151.67 173.96 C 150.85 173.53 149.85 173.84 149.42 174.66 Z M 148.94 175.59 L 148.47 176.51 C 148.04 177.32 148.36 178.32 149.17 178.74 C 149.98 179.16 150.98 178.84 151.40 178.03 L 151.88 177.11 C 152.30 176.30 151.99 175.30 151.17 174.88 C 150.36 174.46 149.36 174.78 148.94 175.59 Z M 148.47 176.51 L 148.00 177.43 C 147.58 178.24 147.90 179.23 148.71 179.65 C 149.51 180.07 150.51 179.75 150.93 178.94 L 151.40 178.03 C 151.82 177.22 151.50 176.22 150.69 175.80 C 149.88 175.39 148.89 175.70 148.47 176.51 Z M 148.00 177.44 L 147.53 178.36 C 147.11 179.17 147.43 180.16 148.24 180.57 C 149.05 180.98 150.03 180.67 150.45 179.86 L 150.92 178.93 C 151.34 178.13 151.02 177.14 150.21 176.72 C 149.40 176.31 148.41 176.63 148.00 177.44 Z M 147.53 178.37 L 147.07 179.29 C 146.66 180.09 146.98 181.07 147.78 181.48 C 148.59 181.89 149.57 181.57 149.98 180.77 L 150.44 179.85 C 150.85 179.05 150.53 178.06 149.73 177.65 C 148.92 177.25 147.94 177.57 147.53 178.37 Z M 147.07 179.29 L 146.63 180.18 C 146.22 180.98 146.54 181.96 147.35 182.36 C 148.15 182.76 149.13 182.44 149.53 181.64 L 149.98 180.76 C 150.38 179.95 150.06 178.98 149.25 178.57 C 148.45 178.17 147.47 178.49 147.07 179.29 Z M 146.63 180.19 L 146.22 181.01 C 145.82 181.81 146.15 182.79 146.95 183.18 C 147.75 183.58 148.72 183.26 149.12 182.45 L 149.53 181.63 C 149.93 180.83 149.60 179.85 148.80 179.46 C 148.00 179.06 147.03 179.39 146.63 180.19 Z M 146.22 181.03 L 145.72 182.06 C 145.33 182.86 145.66 183.83 146.46 184.22 C 147.26 184.60 148.22 184.27 148.61 183.47 L 149.12 182.44 C 149.50 181.64 149.17 180.67 148.37 180.29 C 147.57 179.90 146.61 180.23 146.22 181.03 Z M 145.72 182.09 L 145.28 183.03 C 144.91 183.83 145.25 184.78 146.05 185.15 C 146.85 185.52 147.80 185.18 148.17 184.38 L 148.61 183.44 C 148.99 182.65 148.64 181.70 147.84 181.32 C 147.04 180.95 146.09 181.29 145.72 182.09 Z M 145.28 183.06 L 144.90 183.92 C 144.55 184.72 144.91 185.65 145.71 186.01 C 146.51 186.36 147.44 186.00 147.80 185.20 L 148.18 184.35 C 148.53 183.55 148.17 182.61 147.37 182.26 C 146.57 181.90 145.63 182.26 145.28 183.06 Z M 144.90 183.96 L 144.56 184.77 C 144.23 185.57 144.61 186.49 145.41 186.82 C 146.22 187.15 147.14 186.77 147.47 185.97 L 147.80 185.16 C 148.13 184.36 147.75 183.44 146.95 183.11 C 146.15 182.77 145.23 183.16 144.90 183.96 Z M 144.55 184.81 L 144.20 185.75 C 143.89 186.56 144.29 187.46 145.10 187.77 C 145.91 188.08 146.81 187.67 147.12 186.86 L 147.48 185.92 C 147.78 185.12 147.38 184.21 146.57 183.91 C 145.76 183.60 144.86 184.01 144.55 184.81 Z M 144.18 185.79 L 143.85 186.73 C 143.56 187.54 143.99 188.44 144.80 188.72 C 145.62 189.01 146.51 188.58 146.80 187.77 L 147.13 186.83 C 147.42 186.01 146.99 185.12 146.18 184.83 C 145.37 184.55 144.47 184.97 144.18 185.79 Z M 143.84 186.75 L 143.53 187.69 C 143.25 188.51 143.69 189.40 144.51 189.67 C 145.32 189.95 146.21 189.51 146.48 188.69 L 146.80 187.75 C 147.08 186.93 146.64 186.05 145.82 185.77 C 145.01 185.49 144.12 185.93 143.84 186.75 Z M 143.52 187.70 L 143.40 188.09 C 143.12 188.90 143.56 189.79 144.38 190.06 C 145.20 190.33 146.08 189.89 146.36 189.07 L 146.49 188.69 C 146.76 187.87 146.32 186.98 145.50 186.71 C 144.68 186.44 143.80 186.88 143.52 187.70 Z"
      fill="black"
      fill-rule="nonzero" /><path d="M 153.04 174.90 L 154.02 175.10 C 154.89 175.28 155.74 174.71 155.92 173.84 C 156.09 172.97 155.53 172.12 154.66 171.94 L 153.68 171.75 C 152.81 171.57 151.96 172.13 151.79 173.01 C 151.61 173.88 152.17 174.73 153.04 174.90 Z M 153.92 175.13 L 154.88 175.38 C 155.77 175.61 156.67 175.08 156.91 174.19 C 157.14 173.31 156.61 172.40 155.72 172.17 L 154.76 171.91 C 153.87 171.68 152.96 172.21 152.73 173.10 C 152.50 173.99 153.03 174.90 153.92 175.13 Z M 154.68 175.37 L 155.61 175.73 C 156.49 176.07 157.48 175.64 157.83 174.75 C 158.17 173.87 157.73 172.88 156.85 172.54 L 155.92 172.18 C 155.04 171.83 154.04 172.27 153.70 173.15 C 153.36 174.04 153.80 175.03 154.68 175.37 Z M 155.34 175.65 L 156.20 176.15 C 157.03 176.64 158.11 176.36 158.60 175.52 C 159.09 174.68 158.80 173.61 157.97 173.12 L 157.12 172.62 C 156.28 172.13 155.20 172.41 154.72 173.25 C 154.23 174.08 154.51 175.16 155.34 175.65 Z M 155.98 176.02 L 156.75 176.64 C 157.52 177.25 158.63 177.12 159.24 176.36 C 159.86 175.59 159.73 174.47 158.96 173.86 L 158.19 173.25 C 157.42 172.63 156.31 172.76 155.69 173.53 C 155.08 174.29 155.21 175.41 155.98 176.02 Z M 156.62 176.54 L 157.36 177.24 C 158.07 177.92 159.21 177.90 159.89 177.18 C 160.57 176.47 160.54 175.34 159.82 174.66 L 159.09 173.96 C 158.37 173.28 157.24 173.30 156.56 174.02 C 155.88 174.73 155.91 175.86 156.62 176.54 Z M 157.30 177.20 L 158.00 177.93 C 158.69 178.64 159.83 178.66 160.54 177.97 C 161.26 177.28 161.28 176.15 160.59 175.43 L 159.89 174.70 C 159.20 173.99 158.06 173.97 157.35 174.66 C 156.63 175.35 156.61 176.48 157.30 177.20 Z M 157.99 177.93 L 158.69 178.66 C 159.38 179.38 160.52 179.40 161.24 178.71 C 161.96 178.03 161.98 176.88 161.30 176.16 L 160.60 175.43 C 159.91 174.71 158.77 174.69 158.05 175.38 C 157.33 176.06 157.30 177.21 157.99 177.93 Z M 158.71 178.68 L 159.41 179.39 C 160.11 180.10 161.25 180.10 161.96 179.40 C 162.67 178.70 162.68 177.56 161.97 176.85 L 161.28 176.14 C 160.57 175.43 159.43 175.43 158.72 176.13 C 158.01 176.83 158.01 177.97 158.71 178.68 Z M 159.44 179.42 L 160.15 180.10 C 160.87 180.79 162.01 180.77 162.70 180.05 C 163.39 179.33 163.37 178.19 162.65 177.50 L 161.94 176.82 C 161.22 176.12 160.08 176.15 159.39 176.86 C 158.70 177.58 158.72 178.73 159.44 179.42 Z M 160.19 180.14 L 160.93 180.81 C 161.67 181.48 162.81 181.42 163.48 180.69 C 164.15 179.95 164.09 178.81 163.36 178.14 L 162.61 177.46 C 161.88 176.79 160.73 176.85 160.06 177.59 C 159.39 178.33 159.45 179.47 160.19 180.14 Z M 160.97 180.84 L 161.65 181.43 C 162.41 182.08 163.55 181.99 164.20 181.23 C 164.84 180.47 164.76 179.34 164.00 178.69 L 163.32 178.10 C 162.56 177.45 161.42 177.54 160.77 178.30 C 160.13 179.06 160.21 180.20 160.97 180.84 Z M 161.69 181.45 L 162.43 182.06 C 163.20 182.68 164.33 182.57 164.96 181.80 C 165.59 181.03 165.47 179.89 164.70 179.26 L 163.96 178.66 C 163.19 178.03 162.06 178.15 161.43 178.92 C 160.80 179.69 160.92 180.83 161.69 181.45 Z M 162.46 182.08 L 163.27 182.71 C 164.05 183.32 165.18 183.18 165.79 182.39 C 166.40 181.61 166.26 180.48 165.48 179.87 L 164.67 179.24 C 163.89 178.63 162.76 178.77 162.15 179.55 C 161.54 180.34 161.68 181.47 162.46 182.08 Z M 163.29 182.72 L 164.17 183.38 C 164.97 183.98 166.09 183.82 166.69 183.03 C 167.28 182.23 167.12 181.11 166.33 180.51 L 165.45 179.85 C 164.66 179.25 163.53 179.42 162.93 180.21 C 162.34 181.00 162.50 182.13 163.29 182.72 Z M 164.20 183.39 L 165.01 183.99 C 165.81 184.57 166.93 184.40 167.51 183.60 C 168.10 182.80 167.92 181.68 167.12 181.10 L 166.31 180.50 C 165.51 179.92 164.39 180.09 163.80 180.89 C 163.22 181.69 163.40 182.81 164.20 183.39 Z M 165.03 183.99 L 165.86 184.58 C 166.66 185.15 167.77 184.97 168.34 184.17 C 168.91 183.37 168.73 182.25 167.93 181.68 L 167.10 181.09 C 166.30 180.52 165.19 180.71 164.62 181.51 C 164.05 182.31 164.23 183.42 165.03 183.99 Z M 165.87 184.58 L 166.71 185.17 C 167.51 185.73 168.62 185.54 169.18 184.74 C 169.74 183.94 169.55 182.84 168.75 182.27 L 167.91 181.68 C 167.11 181.12 166.01 181.31 165.44 182.11 C 164.88 182.91 165.07 184.02 165.87 184.58 Z M 166.73 185.17 L 167.56 185.75 C 168.36 186.31 169.46 186.11 170.02 185.31 C 170.57 184.51 170.37 183.41 169.58 182.86 L 168.74 182.28 C 167.94 181.72 166.84 181.92 166.29 182.72 C 165.73 183.52 165.93 184.61 166.73 185.17 Z M 167.58 185.75 L 168.39 186.30 C 169.18 186.85 170.27 186.65 170.82 185.86 C 171.37 185.06 171.17 183.97 170.37 183.42 L 169.56 182.86 C 168.77 182.31 167.68 182.51 167.13 183.31 C 166.58 184.11 166.78 185.20 167.58 185.75 Z M 168.40 186.29 L 169.27 186.89 C 170.06 187.43 171.14 187.22 171.68 186.43 C 172.22 185.64 172.02 184.56 171.23 184.02 L 170.36 183.43 C 169.57 182.89 168.49 183.09 167.95 183.88 C 167.41 184.68 167.61 185.75 168.40 186.29 Z M 169.29 186.87 L 170.16 187.45 C 170.94 187.98 172.00 187.78 172.53 187.00 C 173.06 186.22 172.85 185.16 172.07 184.63 L 171.20 184.04 C 170.42 183.51 169.36 183.72 168.83 184.50 C 168.31 185.28 168.51 186.34 169.29 186.87 Z M 170.19 187.43 L 171.00 187.98 C 171.77 188.49 172.81 188.28 173.32 187.51 C 173.83 186.75 173.63 185.71 172.86 185.19 L 172.04 184.65 C 171.28 184.14 170.24 184.34 169.72 185.11 C 169.21 185.88 169.42 186.92 170.19 187.43 Z M 171.02 187.95 L 171.81 188.47 C 172.56 188.97 173.58 188.76 174.08 188.01 C 174.58 187.25 174.37 186.23 173.62 185.74 L 172.83 185.22 C 172.08 184.72 171.06 184.93 170.56 185.68 C 170.06 186.44 170.27 187.45 171.02 187.95 Z M 171.83 188.45 L 172.64 188.98 C 173.39 189.47 174.38 189.26 174.87 188.51 C 175.36 187.77 175.15 186.77 174.40 186.28 L 173.59 185.76 C 172.85 185.27 171.85 185.48 171.36 186.22 C 170.88 186.97 171.09 187.96 171.83 188.45 Z M 172.65 188.97 L 173.50 189.52 C 174.24 190.00 175.23 189.80 175.71 189.06 C 176.19 188.33 175.98 187.34 175.25 186.86 L 174.40 186.30 C 173.66 185.82 172.67 186.02 172.19 186.76 C 171.71 187.50 171.91 188.48 172.65 188.97 Z M 173.49 189.50 L 174.33 190.06 C 175.06 190.55 176.04 190.36 176.52 189.63 C 177.01 188.90 176.82 187.92 176.09 187.44 L 175.25 186.88 C 174.53 186.39 173.55 186.58 173.06 187.31 C 172.57 188.03 172.77 189.02 173.49 189.50 Z M 174.31 190.03 L 175.11 190.60 C 175.82 191.10 176.80 190.93 177.30 190.22 C 177.80 189.51 177.63 188.53 176.92 188.03 L 176.11 187.46 C 175.40 186.97 174.42 187.14 173.93 187.85 C 173.43 188.56 173.60 189.54 174.31 190.03 Z M 175.07 190.56 L 175.87 191.17 C 176.56 191.69 177.54 191.56 178.06 190.87 C 178.58 190.18 178.45 189.20 177.76 188.68 L 176.96 188.07 C 176.27 187.55 175.29 187.68 174.77 188.37 C 174.25 189.06 174.38 190.04 175.07 190.56 Z M 175.83 191.13 L 176.61 191.77 C 177.27 192.32 178.26 192.22 178.80 191.56 C 179.35 190.89 179.25 189.91 178.59 189.36 L 177.81 188.72 C 177.14 188.17 176.16 188.27 175.61 188.93 C 175.06 189.60 175.16 190.58 175.83 191.13 Z M 176.57 191.75 L 177.32 192.39 C 177.97 192.96 178.95 192.89 179.52 192.24 C 180.09 191.59 180.02 190.60 179.37 190.04 L 178.62 189.39 C 177.97 188.82 176.98 188.89 176.42 189.54 C 175.85 190.19 175.92 191.18 176.57 191.75 Z M 177.30 192.38 L 177.92 192.93 C 178.56 193.50 179.55 193.45 180.12 192.80 C 180.70 192.16 180.64 191.17 180.00 190.60 L 179.38 190.05 C 178.74 189.48 177.75 189.53 177.18 190.18 C 176.60 190.82 176.66 191.81 177.30 192.38 Z"
      fill="black"
      fill-rule="nonzero" /></svg>