<svg xmlns="http://www.w3.org/2000/svg" width="300" height="300" viewBox="0 0 300 300">
<path d="M 119.62 118.62 L 120.50 119.24 C 121.28 119.79 122.36 119.60 122.90 118.82 C 123.45 118.04 123.26 116.97 122.48 116.42 L 121.60 115.80 C 120.82 115.25 119.74 115.44 119.20 116.22 C 118.65 117.00 118.84 118.07 119.62 118.62 Z M 120.51 119.25 L 121.39 119.85 C 122.17 120.40 123.24 120.20 123.79 119.42 C 124.33 118.64 124.13 117.56 123.35 117.02 L 122.47 116.41 C 121.69 115.87 120.62 116.07 120.08 116.85 C 119.53 117.63 119.73 118.71 120.51 119.25 Z M 121.40 119.87 L 122.26 120.44 C 123.05 120.98 124.12 120.77 124.65 119.98 C 125.19 119.19 124.98 118.12 124.19 117.58 L 123.33 117.01 C 122.54 116.47 121.47 116.68 120.94 117.47 C 120.41 118.26 120.61 119.33 121.40 119.87 Z M 122.29 120.46 L 123.11 121.00 C 123.91 121.51 124.98 121.28 125.50 120.48 C 126.01 119.68 125.78 118.61 124.98 118.10 L 124.16 117.56 C 123.36 117.05 122.29 117.28 121.77 118.08 C 121.26 118.88 121.49 119.95 122.29 120.46 Z M 123.16 121.02 L 123.94 121.50 C 124.76 121.99 125.82 121.72 126.31 120.91 C 126.80 120.09 126.54 119.03 125.72 118.54 L 124.94 118.07 C 124.12 117.57 123.06 117.84 122.57 118.65 C 122.08 119.47 122.34 120.53 123.16 121.02 Z M 124.02 121.53 L 124.91 122.01 C 125.75 122.46 126.79 122.15 127.24 121.31 C 127.69 120.47 127.37 119.43 126.54 118.98 L 125.64 118.50 C 124.81 118.05 123.76 118.37 123.32 119.21 C 122.87 120.04 123.18 121.09 124.02 121.53 Z M 125.03 122.05 L 126.01 122.49 C 126.87 122.87 127.88 122.48 128.26 121.62 C 128.64 120.76 128.26 119.76 127.40 119.37 L 126.42 118.94 C 125.56 118.56 124.55 118.94 124.17 119.80 C 123.79 120.66 124.17 121.67 125.03 122.05 Z M 126.14 122.51 L 127.04 122.84 C 127.91 123.15 128.88 122.70 129.19 121.83 C 129.50 120.95 129.05 119.99 128.18 119.68 L 127.27 119.35 C 126.40 119.04 125.44 119.49 125.12 120.36 C 124.81 121.23 125.26 122.20 126.14 122.51 Z M 127.12 122.84 L 127.99 123.10 C 128.86 123.37 129.79 122.88 130.06 122.01 C 130.32 121.13 129.83 120.21 128.96 119.94 L 128.10 119.67 C 127.22 119.41 126.30 119.90 126.03 120.77 C 125.76 121.65 126.25 122.57 127.12 122.84 Z M 128.01 123.10 L 128.24 123.16 C 129.11 123.41 130.02 122.92 130.27 122.05 C 130.52 121.18 130.03 120.27 129.16 120.01 L 128.93 119.95 C 128.06 119.69 127.15 120.19 126.90 121.06 C 126.64 121.93 127.14 122.84 128.01 123.10 Z"
      fill="black"
      fill-rule="nonzero" /><path d="M 116.07 139.22 L 117.08 138.92 C 118.02 138.65 118.56 137.65 118.29 136.71 C 118.01 135.76 117.01 135.22 116.07 135.50 L 115.06 135.79 C 114.12 136.07 113.57 137.06 113.85 138.01 C 114.13 138.96 115.12 139.50 116.07 139.22 Z M 116.83 138.98 L 117.81 138.84 C 118.78 138.70 119.46 137.79 119.32 136.81 C 119.18 135.84 118.27 135.16 117.29 135.30 L 116.32 135.44 C 115.34 135.58 114.66 136.49 114.80 137.47 C 114.94 138.44 115.85 139.12 116.83 138.98 Z M 117.24 138.83 L 118.15 138.99 C 119.12 139.16 120.05 138.51 120.22 137.54 C 120.39 136.57 119.75 135.64 118.77 135.47 L 117.86 135.31 C 116.89 135.14 115.96 135.78 115.79 136.76 C 115.62 137.73 116.27 138.66 117.24 138.83 Z M 117.49 138.73 L 118.25 139.22 C 119.08 139.76 120.19 139.53 120.72 138.70 C 121.26 137.87 121.03 136.77 120.20 136.23 L 119.44 135.73 C 118.61 135.20 117.50 135.43 116.96 136.26 C 116.43 137.08 116.66 138.19 117.49 138.73 Z M 117.87 138.88 L 118.52 139.65 C 119.16 140.40 120.28 140.49 121.04 139.85 C 121.79 139.22 121.88 138.09 121.24 137.34 L 120.59 136.57 C 119.95 135.82 118.82 135.73 118.07 136.37 C 117.32 137.01 117.23 138.13 117.87 138.88 Z M 118.30 139.32 L 118.80 140.28 C 119.26 141.15 120.34 141.48 121.21 141.03 C 122.08 140.57 122.42 139.49 121.96 138.62 L 121.46 137.67 C 121.00 136.79 119.92 136.46 119.05 136.92 C 118.18 137.37 117.84 138.45 118.30 139.32 Z M 118.68 139.97 L 118.97 140.93 C 119.26 141.87 120.26 142.40 121.20 142.11 C 122.14 141.82 122.67 140.82 122.38 139.88 L 122.08 138.92 C 121.79 137.98 120.79 137.45 119.85 137.74 C 118.91 138.03 118.38 139.03 118.68 139.97 Z M 118.91 140.70 L 119.08 141.69 C 119.24 142.67 120.16 143.32 121.13 143.16 C 122.10 143.00 122.76 142.08 122.60 141.11 L 122.44 140.12 C 122.28 139.14 121.36 138.49 120.39 138.65 C 119.41 138.81 118.75 139.72 118.91 140.70 Z M 119.06 141.52 L 119.12 142.52 C 119.19 143.51 120.04 144.25 121.03 144.18 C 122.01 144.12 122.76 143.27 122.69 142.28 L 122.62 141.28 C 122.56 140.30 121.70 139.55 120.72 139.62 C 119.73 139.69 118.99 140.54 119.06 141.52 Z M 119.12 142.41 L 119.12 143.39 C 119.13 144.38 119.93 145.18 120.92 145.18 C 121.91 145.17 122.71 144.37 122.70 143.38 L 122.70 142.39 C 122.69 141.41 121.89 140.61 120.90 140.61 C 119.91 140.62 119.11 141.42 119.12 142.41 Z M 119.12 143.30 L 119.07 144.28 C 119.03 145.27 119.79 146.11 120.78 146.16 C 121.77 146.20 122.61 145.44 122.66 144.45 L 122.70 143.47 C 122.75 142.48 121.98 141.64 120.99 141.59 C 120.00 141.55 119.16 142.31 119.12 143.30 Z M 119.08 144.19 L 118.98 145.17 C 118.88 146.16 119.60 147.04 120.59 147.14 C 121.58 147.23 122.46 146.51 122.56 145.52 L 122.66 144.54 C 122.76 143.55 122.03 142.67 121.04 142.57 C 120.05 142.47 119.17 143.20 119.08 144.19 Z M 118.98 145.08 L 118.83 146.10 C 118.69 147.09 119.37 148.01 120.35 148.15 C 121.34 148.30 122.26 147.62 122.40 146.63 L 122.56 145.61 C 122.70 144.62 122.02 143.70 121.03 143.56 C 120.05 143.41 119.13 144.09 118.98 145.08 Z M 118.84 146.04 L 118.67 146.98 C 118.49 147.96 119.15 148.90 120.13 149.08 C 121.11 149.26 122.05 148.61 122.23 147.62 L 122.40 146.69 C 122.57 145.70 121.92 144.76 120.94 144.59 C 119.96 144.41 119.02 145.06 118.84 146.04 Z M 118.67 146.97 L 118.49 147.95 C 118.30 148.93 118.95 149.88 119.93 150.06 C 120.91 150.25 121.86 149.60 122.04 148.62 L 122.23 147.63 C 122.41 146.65 121.76 145.71 120.78 145.52 C 119.80 145.34 118.86 145.99 118.67 146.97 Z M 118.48 147.98 L 118.31 148.99 C 118.14 149.97 118.80 150.91 119.79 151.08 C 120.77 151.25 121.71 150.59 121.87 149.60 L 122.05 148.59 C 122.22 147.61 121.56 146.67 120.57 146.50 C 119.59 146.33 118.65 146.99 118.48 147.98 Z M 118.30 149.05 L 118.16 150.08 C 118.03 151.07 118.72 151.98 119.71 152.12 C 120.70 152.25 121.61 151.55 121.75 150.56 L 121.89 149.54 C 122.02 148.55 121.32 147.64 120.33 147.50 C 119.34 147.37 118.43 148.06 118.30 149.05 Z M 118.15 150.19 L 118.07 151.27 C 118.00 152.27 118.75 153.14 119.74 153.21 C 120.74 153.28 121.61 152.53 121.68 151.54 L 121.76 150.45 C 121.83 149.46 121.08 148.59 120.09 148.52 C 119.09 148.45 118.22 149.19 118.15 150.19 Z M 118.07 151.44 L 118.09 152.47 C 118.11 153.47 118.93 154.26 119.93 154.24 C 120.93 154.22 121.73 153.39 121.71 152.39 L 121.68 151.37 C 121.66 150.37 120.84 149.57 119.84 149.59 C 118.84 149.61 118.05 150.44 118.07 151.44 Z M 118.11 152.72 L 118.26 153.65 C 118.42 154.64 119.34 155.31 120.33 155.15 C 121.32 155.00 121.99 154.07 121.83 153.08 L 121.68 152.15 C 121.53 151.16 120.60 150.49 119.61 150.64 C 118.62 150.80 117.95 151.73 118.11 152.72 Z M 118.36 154.01 L 118.67 154.83 C 119.03 155.76 120.07 156.23 121.01 155.87 C 121.94 155.51 122.41 154.47 122.05 153.53 L 121.74 152.72 C 121.38 151.79 120.33 151.32 119.40 151.68 C 118.46 152.03 118.00 153.08 118.36 154.01 Z M 118.90 155.26 L 119.42 155.95 C 120.01 156.76 121.14 156.93 121.95 156.33 C 122.75 155.74 122.92 154.61 122.33 153.80 L 121.81 153.11 C 121.22 152.30 120.09 152.13 119.28 152.73 C 118.48 153.32 118.31 154.45 118.90 155.26 Z M 119.71 156.26 L 120.45 156.88 C 121.22 157.52 122.36 157.42 123.00 156.66 C 123.64 155.89 123.54 154.76 122.77 154.11 L 122.03 153.49 C 121.27 152.85 120.13 152.95 119.49 153.72 C 118.85 154.48 118.95 155.62 119.71 156.26 Z M 120.67 157.04 L 121.66 157.64 C 122.51 158.16 123.62 157.90 124.14 157.05 C 124.66 156.20 124.40 155.09 123.55 154.57 L 122.56 153.96 C 121.71 153.44 120.60 153.71 120.08 154.56 C 119.55 155.40 119.82 156.52 120.67 157.04 Z M 121.76 157.70 L 122.63 158.16 C 123.51 158.62 124.60 158.28 125.06 157.40 C 125.53 156.52 125.19 155.43 124.31 154.97 L 123.44 154.51 C 122.56 154.05 121.47 154.39 121.01 155.27 C 120.55 156.15 120.88 157.24 121.76 157.70 Z M 122.67 158.17 L 123.55 158.62 C 124.44 159.06 125.52 158.70 125.97 157.81 C 126.41 156.92 126.05 155.84 125.16 155.39 L 124.27 154.95 C 123.38 154.51 122.30 154.87 121.86 155.76 C 121.42 156.65 121.78 157.73 122.67 158.17 Z M 123.57 158.62 L 124.50 159.07 C 125.39 159.51 126.47 159.14 126.90 158.25 C 127.34 157.35 126.97 156.28 126.08 155.84 L 125.14 155.39 C 124.25 154.95 123.17 155.33 122.74 156.22 C 122.31 157.11 122.68 158.19 123.57 158.62 Z M 124.50 159.07 L 125.44 159.53 C 126.33 159.97 127.41 159.60 127.84 158.71 C 128.28 157.82 127.91 156.74 127.02 156.31 L 126.08 155.85 C 125.19 155.41 124.11 155.78 123.68 156.67 C 123.24 157.56 123.61 158.64 124.50 159.07 Z M 125.42 159.52 L 126.33 159.98 C 127.21 160.42 128.29 160.07 128.74 159.19 C 129.18 158.30 128.83 157.22 127.95 156.78 L 127.04 156.32 C 126.15 155.87 125.08 156.23 124.63 157.11 C 124.18 157.99 124.54 159.07 125.42 159.52 Z M 126.29 159.95 L 127.22 160.46 C 128.09 160.93 129.18 160.61 129.65 159.74 C 130.12 158.87 129.80 157.78 128.93 157.31 L 127.99 156.80 C 127.12 156.33 126.04 156.66 125.56 157.53 C 125.09 158.39 125.42 159.48 126.29 159.95 Z M 127.14 160.40 L 128.10 161.00 C 128.94 161.52 130.03 161.26 130.55 160.43 C 131.07 159.59 130.82 158.49 129.98 157.97 L 129.02 157.37 C 128.18 156.85 127.08 157.11 126.56 157.95 C 126.04 158.78 126.30 159.88 127.14 160.40 Z M 127.95 160.88 L 128.74 161.49 C 129.51 162.10 130.62 161.96 131.22 161.18 C 131.82 160.41 131.69 159.30 130.91 158.70 L 130.13 158.09 C 129.36 157.49 128.24 157.62 127.64 158.40 C 127.04 159.17 127.18 160.28 127.95 160.88 Z M 128.53 161.30 L 129.14 161.95 C 129.80 162.66 130.92 162.70 131.63 162.03 C 132.34 161.37 132.38 160.25 131.72 159.54 L 131.11 158.89 C 130.45 158.18 129.33 158.14 128.62 158.81 C 127.91 159.47 127.87 160.59 128.53 161.30 Z M 128.91 161.63 L 129.36 162.40 C 129.85 163.23 130.93 163.52 131.76 163.03 C 132.60 162.54 132.88 161.47 132.39 160.63 L 131.94 159.86 C 131.45 159.02 130.38 158.74 129.54 159.23 C 128.71 159.72 128.43 160.79 128.91 161.63 Z M 129.20 161.98 L 129.47 162.95 C 129.73 163.87 130.69 164.42 131.61 164.16 C 132.54 163.90 133.08 162.94 132.82 162.02 L 132.55 161.05 C 132.30 160.12 131.34 159.58 130.41 159.84 C 129.49 160.10 128.94 161.05 129.20 161.98 Z M 129.42 162.54 L 129.46 163.54 C 129.49 164.49 130.28 165.24 131.23 165.21 C 132.19 165.17 132.93 164.38 132.90 163.43 L 132.87 162.43 C 132.84 161.47 132.04 160.73 131.09 160.76 C 130.14 160.79 129.39 161.59 129.42 162.54 Z M 129.50 163.17 L 129.32 164.14 C 129.15 165.07 129.76 165.96 130.69 166.13 C 131.62 166.30 132.51 165.69 132.68 164.76 L 132.86 163.79 C 133.03 162.86 132.42 161.97 131.49 161.80 C 130.56 161.63 129.67 162.24 129.50 163.17 Z M 129.43 163.80 L 129.06 164.70 C 128.71 165.56 129.13 166.55 129.99 166.91 C 130.86 167.27 131.85 166.85 132.21 165.98 L 132.57 165.09 C 132.93 164.22 132.51 163.23 131.64 162.88 C 130.78 162.52 129.79 162.94 129.43 163.80 Z M 129.20 164.44 L 128.68 165.27 C 128.19 166.06 128.43 167.11 129.22 167.60 C 130.01 168.10 131.05 167.86 131.55 167.07 L 132.07 166.24 C 132.56 165.44 132.32 164.40 131.53 163.91 C 130.74 163.41 129.70 163.65 129.20 164.44 Z M 128.80 165.12 L 128.16 165.93 C 127.58 166.66 127.70 167.72 128.42 168.30 C 129.15 168.87 130.21 168.75 130.78 168.03 L 131.43 167.22 C 132.01 166.49 131.89 165.43 131.16 164.86 C 130.44 164.28 129.38 164.40 128.80 165.12 Z M 128.22 165.87 L 127.58 166.58 C 126.96 167.27 127.02 168.33 127.71 168.95 C 128.40 169.56 129.46 169.50 130.08 168.81 L 130.72 168.10 C 131.33 167.41 131.27 166.35 130.59 165.73 C 129.90 165.12 128.84 165.18 128.22 165.87 Z M 127.62 166.54 L 126.94 167.25 C 126.30 167.91 126.33 168.97 126.99 169.61 C 127.66 170.25 128.72 170.23 129.36 169.56 L 130.04 168.86 C 130.68 168.19 130.65 167.13 129.99 166.49 C 129.32 165.85 128.26 165.87 127.62 166.54 Z M 126.98 167.21 L 126.25 167.93 C 125.59 168.58 125.59 169.64 126.23 170.29 C 126.88 170.95 127.94 170.96 128.60 170.31 L 129.33 169.60 C 129.99 168.95 129.99 167.89 129.34 167.23 C 128.70 166.57 127.64 166.56 126.98 167.21 Z M 126.28 167.90 L 125.51 168.62 C 124.84 169.25 124.80 170.31 125.44 170.98 C 126.07 171.66 127.13 171.69 127.80 171.06 L 128.57 170.34 C 129.25 169.71 129.28 168.65 128.65 167.98 C 128.02 167.30 126.96 167.27 126.28 167.90 Z M 125.54 168.59 L 124.81 169.25 C 124.12 169.87 124.06 170.93 124.68 171.62 C 125.30 172.30 126.35 172.36 127.04 171.74 L 127.78 171.09 C 128.46 170.47 128.52 169.41 127.90 168.72 C 127.29 168.03 126.23 167.98 125.54 168.59 Z M 124.83 169.23 L 124.08 169.88 C 123.38 170.49 123.30 171.54 123.90 172.24 C 124.51 172.94 125.56 173.02 126.26 172.42 L 127.02 171.76 C 127.72 171.16 127.79 170.10 127.19 169.40 C 126.59 168.70 125.53 168.63 124.83 169.23 Z M 124.10 169.86 L 123.33 170.51 C 122.62 171.10 122.52 172.16 123.11 172.86 C 123.70 173.57 124.76 173.67 125.47 173.08 L 126.24 172.43 C 126.95 171.84 127.05 170.79 126.46 170.08 C 125.86 169.37 124.81 169.27 124.10 169.86 Z M 123.35 170.49 L 122.56 171.12 C 121.84 171.70 121.73 172.76 122.31 173.48 C 122.89 174.20 123.94 174.31 124.66 173.73 L 125.45 173.10 C 126.17 172.52 126.28 171.46 125.70 170.74 C 125.12 170.02 124.07 169.91 123.35 170.49 Z M 122.58 171.11 L 121.77 171.74 C 121.04 172.31 120.91 173.36 121.48 174.09 C 122.05 174.82 123.10 174.95 123.83 174.38 L 124.64 173.75 C 125.37 173.18 125.50 172.13 124.93 171.40 C 124.36 170.67 123.31 170.54 122.58 171.11 Z M 121.79 171.72 L 120.98 172.34 C 120.24 172.89 120.09 173.94 120.64 174.68 C 121.20 175.42 122.25 175.57 122.99 175.01 L 123.80 174.40 C 124.54 173.84 124.69 172.79 124.14 172.05 C 123.58 171.32 122.53 171.17 121.79 171.72 Z M 121.00 172.32 L 120.19 172.91 C 119.44 173.45 119.27 174.49 119.81 175.24 C 120.35 175.99 121.40 176.16 122.15 175.62 L 122.96 175.03 C 123.71 174.49 123.88 173.44 123.34 172.70 C 122.80 171.95 121.75 171.78 121.00 172.32 Z M 120.22 172.88 L 119.42 173.44 C 118.66 173.96 118.46 175.00 118.99 175.76 C 119.51 176.52 120.55 176.72 121.31 176.19 L 122.12 175.64 C 122.88 175.12 123.07 174.07 122.54 173.31 C 122.02 172.55 120.98 172.36 120.22 172.88 Z M 119.45 173.41 L 118.67 173.92 C 117.89 174.42 117.67 175.46 118.18 176.24 C 118.68 177.01 119.72 177.23 120.49 176.73 L 121.28 176.22 C 122.05 175.71 122.27 174.68 121.77 173.90 C 121.26 173.13 120.23 172.91 119.45 173.41 Z M 118.72 173.88 L 117.93 174.35 C 117.14 174.82 116.87 175.85 117.35 176.65 C 117.82 177.45 118.85 177.71 119.65 177.24 L 120.44 176.77 C 121.24 176.29 121.50 175.26 121.02 174.47 C 120.55 173.67 119.52 173.41 118.72 173.88 Z M 118.02 174.30 L 117.16 174.74 C 116.34 175.17 116.01 176.18 116.44 177.01 C 116.87 177.84 117.88 178.16 118.71 177.73 L 119.56 177.29 C 120.39 176.86 120.71 175.85 120.28 175.02 C 119.86 174.19 118.84 173.87 118.02 174.30 Z M 117.26 174.69 L 116.29 175.11 C 115.44 175.49 115.05 176.48 115.42 177.34 C 115.80 178.19 116.79 178.58 117.65 178.21 L 118.61 177.78 C 119.47 177.41 119.86 176.41 119.48 175.56 C 119.11 174.70 118.11 174.31 117.26 174.69 Z M 116.38 175.06 L 115.27 175.47 C 114.39 175.79 113.94 176.77 114.26 177.65 C 114.59 178.54 115.57 178.99 116.45 178.66 L 117.56 178.26 C 118.44 177.93 118.89 176.95 118.57 176.07 C 118.24 175.19 117.26 174.74 116.38 175.06 Z M 115.33 175.42 L 114.15 175.80 C 113.23 176.09 112.74 177.07 113.03 177.98 C 113.32 178.89 114.30 179.39 115.21 179.10 L 116.39 178.72 C 117.30 178.42 117.80 177.45 117.51 176.53 C 117.21 175.62 116.24 175.12 115.33 175.42 Z M 114.17 175.75 L 113.04 176.09 C 112.10 176.37 111.57 177.36 111.85 178.30 C 112.14 179.24 113.13 179.77 114.06 179.48 L 115.19 179.15 C 116.12 178.86 116.66 177.87 116.37 176.94 C 116.09 176.00 115.10 175.47 114.17 175.75 Z M 113.04 176.05 L 112.14 176.32 C 111.18 176.60 110.63 177.61 110.92 178.57 C 111.20 179.53 112.21 180.07 113.17 179.79 L 114.06 179.52 C 115.02 179.24 115.57 178.23 115.29 177.27 C 115.00 176.32 114.00 175.77 113.04 176.05 Z M 112.08 176.29 L 111.57 176.46 C 110.60 176.77 110.07 177.82 110.38 178.79 C 110.70 179.76 111.74 180.29 112.71 179.98 L 113.22 179.81 C 114.20 179.50 114.73 178.46 114.41 177.48 C 114.10 176.51 113.05 175.98 112.08 176.29 Z M 112.04 180.11 L 112.29 180.12 C 113.33 180.18 114.22 179.38 114.28 178.34 C 114.34 177.30 113.54 176.41 112.50 176.35 L 112.25 176.33 C 111.21 176.27 110.32 177.07 110.26 178.11 C 110.20 179.15 110.99 180.05 112.04 180.11 Z M 112.66 180.14 L 113.78 179.99 C 114.83 179.84 115.57 178.87 115.42 177.81 C 115.28 176.76 114.30 176.02 113.24 176.17 L 112.13 176.32 C 111.07 176.47 110.34 177.44 110.48 178.50 C 110.63 179.55 111.60 180.29 112.66 180.14 Z M 113.73 180.03 L 114.99 179.89 C 116.07 179.76 116.84 178.79 116.72 177.71 C 116.60 176.64 115.62 175.86 114.55 175.98 L 113.29 176.13 C 112.21 176.25 111.44 177.22 111.56 178.30 C 111.68 179.38 112.66 180.15 113.73 180.03 Z M 114.90 179.91 L 115.86 179.85 C 116.95 179.78 117.78 178.83 117.71 177.74 C 117.64 176.65 116.70 175.83 115.61 175.90 L 114.64 175.96 C 113.55 176.03 112.72 176.97 112.79 178.06 C 112.86 179.15 113.81 179.98 114.90 179.91 Z M 115.79 179.85 L 116.77 179.82 C 117.86 179.79 118.72 178.88 118.69 177.79 C 118.66 176.69 117.75 175.83 116.65 175.86 L 115.68 175.89 C 114.58 175.92 113.72 176.84 113.75 177.93 C 113.78 179.02 114.70 179.89 115.79 179.85 Z M 116.73 179.83 L 117.75 179.82 C 118.84 179.81 119.72 178.92 119.72 177.82 C 119.71 176.72 118.81 175.84 117.71 175.85 L 116.69 175.86 C 115.60 175.87 114.72 176.76 114.72 177.86 C 114.73 178.96 115.63 179.84 116.73 179.83 Z M 117.73 179.82 L 118.76 179.82 C 119.86 179.82 120.75 178.93 120.75 177.83 C 120.75 176.74 119.86 175.85 118.76 175.85 L 117.73 175.85 C 116.63 175.85 115.74 176.74 115.74 177.84 C 115.74 178.93 116.63 179.83 117.73 179.82 Z M 118.76 179.83 L 119.78 179.83 C 120.88 179.83 121.77 178.94 121.77 177.84 C 121.77 176.74 120.88 175.85 119.78 175.85 L 118.77 175.84 C 117.67 175.84 116.77 176.73 116.77 177.83 C 116.77 178.93 117.66 179.82 118.76 179.83 Z M 119.77 179.83 L 120.80 179.83 C 121.90 179.84 122.80 178.95 122.80 177.85 C 122.81 176.75 121.92 175.86 120.82 175.85 L 119.79 175.85 C 118.69 175.84 117.79 176.73 117.79 177.83 C 117.78 178.93 118.67 179.82 119.77 179.83 Z M 120.79 179.83 L 121.80 179.85 C 122.90 179.86 123.80 178.98 123.81 177.88 C 123.83 176.78 122.95 175.88 121.85 175.86 L 120.84 175.85 C 119.74 175.84 118.83 176.72 118.82 177.82 C 118.81 178.92 119.69 179.82 120.79 179.83 Z M 121.77 179.85 L 122.72 179.87 C 123.82 179.90 124.74 179.03 124.77 177.93 C 124.79 176.83 123.92 175.91 122.82 175.89 L 121.87 175.86 C 120.77 175.84 119.86 176.71 119.83 177.81 C 119.80 178.91 120.67 179.82 121.77 179.85 Z M 122.69 179.87 L 123.78 179.92 C 124.88 179.97 125.81 179.11 125.86 178.01 C 125.91 176.91 125.05 175.98 123.95 175.94 L 122.86 175.89 C 121.76 175.84 120.83 176.69 120.78 177.79 C 120.73 178.89 121.59 179.82 122.69 179.87 Z M 123.74 179.92 L 124.73 179.98 C 125.83 180.05 126.78 179.22 126.85 178.12 C 126.92 177.02 126.08 176.07 124.99 176.00 L 124.00 175.94 C 122.90 175.87 121.95 176.70 121.88 177.80 C 121.81 178.90 122.64 179.84 123.74 179.92 Z M 124.70 179.98 L 125.64 180.05 C 126.74 180.14 127.70 179.32 127.78 178.22 C 127.87 177.12 127.05 176.16 125.95 176.08 L 125.01 176.00 C 123.92 175.92 122.96 176.74 122.87 177.83 C 122.78 178.93 123.60 179.89 124.70 179.98 Z M 125.63 180.05 L 126.57 180.13 C 127.67 180.22 128.63 179.40 128.72 178.30 C 128.81 177.21 127.99 176.24 126.89 176.15 L 125.96 176.08 C 124.86 175.99 123.90 176.80 123.81 177.90 C 123.72 179.00 124.54 179.96 125.63 180.05 Z M 126.57 180.13 L 127.53 180.21 C 128.63 180.30 129.59 179.48 129.68 178.38 C 129.77 177.29 128.95 176.32 127.86 176.23 L 126.89 176.15 C 125.80 176.06 124.83 176.88 124.74 177.98 C 124.65 179.07 125.47 180.04 126.57 180.13 Z M 127.52 180.20 L 128.52 180.29 C 129.62 180.39 130.59 179.58 130.68 178.48 C 130.78 177.39 129.97 176.42 128.87 176.32 L 127.87 176.23 C 126.77 176.14 125.80 176.95 125.71 178.04 C 125.61 179.14 126.42 180.11 127.52 180.20 Z M 128.50 180.29 L 129.55 180.39 C 130.65 180.50 131.62 179.70 131.73 178.61 C 131.84 177.51 131.04 176.54 129.94 176.43 L 128.89 176.32 C 127.80 176.22 126.82 177.02 126.72 178.11 C 126.61 179.21 127.41 180.18 128.50 180.29 Z M 129.53 180.39 L 130.49 180.50 C 131.59 180.62 132.57 179.83 132.69 178.74 C 132.81 177.64 132.03 176.66 130.93 176.54 L 129.97 176.43 C 128.88 176.31 127.89 177.10 127.77 178.19 C 127.65 179.29 128.44 180.27 129.53 180.39 Z M 130.48 180.50 L 131.47 180.61 C 132.56 180.74 133.55 179.96 133.68 178.87 C 133.81 177.78 133.03 176.79 131.94 176.66 L 130.95 176.54 C 129.85 176.41 128.86 177.19 128.73 178.28 C 128.60 179.38 129.39 180.37 130.48 180.50 Z M 131.47 180.61 L 132.47 180.73 C 133.57 180.86 134.56 180.09 134.69 178.99 C 134.82 177.90 134.04 176.91 132.95 176.78 L 131.94 176.66 C 130.85 176.53 129.86 177.31 129.73 178.40 C 129.60 179.49 130.37 180.48 131.47 180.61 Z M 132.48 180.73 L 133.49 180.85 C 134.58 180.98 135.57 180.20 135.70 179.11 C 135.83 178.02 135.05 177.03 133.96 176.90 L 132.94 176.78 C 131.85 176.65 130.86 177.43 130.73 178.52 C 130.61 179.62 131.39 180.60 132.48 180.73 Z M 133.50 180.85 L 134.49 180.96 C 135.58 181.08 136.56 180.30 136.69 179.21 C 136.81 178.11 136.02 177.13 134.93 177.01 L 133.94 176.90 C 132.85 176.78 131.87 177.56 131.75 178.65 C 131.62 179.75 132.41 180.73 133.50 180.85 Z M 134.50 180.96 L 135.48 181.07 C 136.57 181.19 137.55 180.40 137.67 179.30 C 137.79 178.21 137.00 177.23 135.91 177.12 L 134.92 177.01 C 133.83 176.89 132.85 177.68 132.73 178.77 C 132.61 179.86 133.40 180.84 134.50 180.96 Z M 135.48 181.07 L 136.48 181.17 C 137.57 181.29 138.55 180.50 138.66 179.41 C 138.78 178.32 137.99 177.34 136.90 177.22 L 135.91 177.12 C 134.81 177.00 133.84 177.79 133.72 178.88 C 133.60 179.97 134.39 180.95 135.48 181.07 Z M 136.47 181.17 L 137.48 181.28 C 138.57 181.40 139.55 180.61 139.67 179.52 C 139.79 178.43 139.00 177.45 137.91 177.33 L 136.90 177.22 C 135.81 177.11 134.83 177.89 134.71 178.98 C 134.60 180.07 135.38 181.05 136.47 181.17 Z M 137.47 181.28 L 138.45 181.39 C 139.54 181.51 140.52 180.73 140.65 179.64 C 140.77 178.55 139.99 177.57 138.90 177.45 L 137.92 177.34 C 136.83 177.21 135.85 178.00 135.73 179.08 C 135.60 180.17 136.39 181.16 137.47 181.28 Z M 138.45 181.39 L 139.44 181.50 C 140.52 181.63 141.51 180.85 141.64 179.76 C 141.76 178.68 140.99 177.69 139.90 177.57 L 138.91 177.45 C 137.82 177.32 136.84 178.10 136.71 179.19 C 136.58 180.27 137.36 181.26 138.45 181.39 Z M 139.43 181.50 L 140.43 181.62 C 141.52 181.75 142.50 180.98 142.63 179.89 C 142.76 178.80 141.99 177.82 140.90 177.69 L 139.90 177.57 C 138.82 177.44 137.83 178.21 137.70 179.30 C 137.57 180.38 138.35 181.37 139.43 181.50 Z M 140.43 181.62 L 141.43 181.74 C 142.51 181.87 143.50 181.10 143.63 180.02 C 143.76 178.93 142.99 177.94 141.91 177.81 L 140.91 177.69 C 139.82 177.56 138.84 178.33 138.70 179.41 C 138.57 180.50 139.34 181.49 140.43 181.62 Z M 141.43 181.74 L 142.42 181.86 C 143.51 181.99 144.49 181.22 144.63 180.14 C 144.76 179.06 143.99 178.07 142.91 177.94 L 141.91 177.81 C 140.83 177.68 139.84 178.45 139.71 179.53 C 139.57 180.62 140.34 181.60 141.43 181.74 Z M 142.42 181.86 L 143.42 181.98 C 144.50 182.11 145.48 181.35 145.62 180.26 C 145.75 179.18 144.98 178.20 143.90 178.06 L 142.91 177.94 C 141.83 177.81 140.84 178.57 140.71 179.66 C 140.57 180.74 141.34 181.72 142.42 181.86 Z M 143.42 181.98 L 144.41 182.10 C 145.49 182.24 146.47 181.47 146.60 180.39 C 146.74 179.31 145.97 178.32 144.89 178.19 L 143.90 178.06 C 142.82 177.93 141.84 178.70 141.70 179.78 C 141.57 180.86 142.33 181.84 143.42 181.98 Z M 144.41 182.10 L 145.40 182.22 C 146.48 182.36 147.46 181.59 147.59 180.51 C 147.73 179.43 146.96 178.45 145.88 178.31 L 144.89 178.19 C 143.81 178.06 142.83 178.82 142.69 179.90 C 142.56 180.98 143.33 181.97 144.41 182.10 Z M 145.40 182.22 L 146.39 182.34 C 147.47 182.47 148.45 181.71 148.58 180.63 C 148.72 179.55 147.95 178.57 146.87 178.44 L 145.88 178.32 C 144.80 178.18 143.82 178.95 143.69 180.03 C 143.55 181.10 144.32 182.09 145.40 182.22 Z M 146.39 182.34 L 147.37 182.46 C 148.45 182.59 149.43 181.83 149.56 180.75 C 149.69 179.67 148.93 178.69 147.85 178.56 L 146.87 178.44 C 145.79 178.31 144.81 179.07 144.68 180.15 C 144.55 181.23 145.31 182.21 146.39 182.34 Z M 147.38 182.46 L 148.37 182.58 C 149.44 182.71 150.42 181.94 150.55 180.87 C 150.68 179.79 149.91 178.81 148.84 178.68 L 147.85 178.56 C 146.77 178.43 145.80 179.20 145.67 180.27 C 145.54 181.35 146.30 182.33 147.38 182.46 Z M 148.37 182.57 L 149.36 182.69 C 150.44 182.82 151.41 182.06 151.54 180.99 C 151.67 179.91 150.91 178.94 149.83 178.81 L 148.84 178.69 C 147.76 178.56 146.79 179.32 146.66 180.40 C 146.53 181.47 147.29 182.44 148.37 182.57 Z M 149.37 182.69 L 150.37 182.81 C 151.44 182.94 152.42 182.18 152.54 181.10 C 152.67 180.03 151.91 179.06 150.84 178.93 L 149.83 178.81 C 148.76 178.68 147.79 179.45 147.66 180.52 C 147.53 181.59 148.29 182.56 149.37 182.69 Z M 150.37 182.81 L 151.34 182.93 C 152.41 183.05 153.39 182.29 153.51 181.22 C 153.64 180.15 152.88 179.18 151.81 179.05 L 150.83 178.93 C 149.76 178.80 148.79 179.57 148.66 180.64 C 148.54 181.71 149.30 182.68 150.37 182.81 Z M 151.34 182.92 L 152.32 183.04 C 153.39 183.17 154.36 182.40 154.49 181.33 C 154.61 180.27 153.85 179.30 152.78 179.17 L 151.81 179.05 C 150.74 178.92 149.77 179.69 149.64 180.76 C 149.51 181.82 150.28 182.79 151.34 182.92 Z M 152.32 183.03 L 153.31 183.15 C 154.38 183.28 155.35 182.52 155.47 181.45 C 155.60 180.39 154.84 179.42 153.77 179.29 L 152.78 179.17 C 151.72 179.04 150.75 179.80 150.62 180.87 C 150.49 181.94 151.25 182.91 152.32 183.03 Z M 153.31 183.15 L 154.32 183.27 C 155.38 183.40 156.35 182.64 156.48 181.58 C 156.61 180.52 155.85 179.55 154.79 179.42 L 153.78 179.30 C 152.71 179.17 151.74 179.92 151.62 180.99 C 151.49 182.05 152.24 183.02 153.31 183.15 Z M 154.31 183.27 L 155.33 183.39 C 156.39 183.53 157.36 182.77 157.49 181.71 C 157.62 180.65 156.87 179.68 155.80 179.55 L 154.79 179.42 C 153.73 179.29 152.76 180.04 152.63 181.11 C 152.50 182.17 153.25 183.14 154.31 183.27 Z M 155.32 183.39 L 156.31 183.51 C 157.37 183.65 158.34 182.90 158.47 181.84 C 158.60 180.78 157.85 179.81 156.80 179.68 L 155.81 179.55 C 154.75 179.42 153.78 180.17 153.65 181.23 C 153.51 182.29 154.26 183.26 155.32 183.39 Z M 156.31 183.51 L 157.31 183.63 C 158.37 183.77 159.33 183.02 159.46 181.96 C 159.60 180.91 158.85 179.94 157.79 179.81 L 156.79 179.68 C 155.74 179.55 154.77 180.30 154.64 181.35 C 154.51 182.41 155.26 183.37 156.31 183.51 Z M 157.32 183.63 L 158.32 183.75 C 159.37 183.88 160.33 183.14 160.46 182.08 C 160.59 181.03 159.84 180.07 158.79 179.94 L 157.79 179.82 C 156.74 179.68 155.78 180.43 155.64 181.49 C 155.51 182.54 156.26 183.50 157.32 183.63 Z M 158.33 183.75 L 159.32 183.87 C 160.37 183.99 161.32 183.24 161.45 182.19 C 161.57 181.14 160.82 180.19 159.77 180.06 L 158.78 179.94 C 157.73 179.82 156.78 180.57 156.65 181.62 C 156.52 182.67 157.27 183.62 158.33 183.75 Z M 159.33 183.86 L 160.33 183.98 C 161.38 184.09 162.32 183.34 162.44 182.29 C 162.56 181.24 161.80 180.30 160.76 180.18 L 159.76 180.07 C 158.71 179.95 157.77 180.70 157.65 181.75 C 157.53 182.80 158.28 183.75 159.33 183.86 Z M 160.35 183.97 L 161.35 184.08 C 162.40 184.19 163.34 183.43 163.45 182.38 C 163.56 181.33 162.80 180.40 161.75 180.29 L 160.74 180.18 C 159.69 180.07 158.76 180.83 158.65 181.88 C 158.54 182.93 159.30 183.86 160.35 183.97 Z M 161.37 184.07 L 162.36 184.17 C 163.40 184.27 164.33 183.51 164.44 182.47 C 164.54 181.42 163.78 180.49 162.73 180.39 L 161.74 180.29 C 160.70 180.19 159.77 180.95 159.66 182.00 C 159.56 183.04 160.32 183.97 161.37 184.07 Z M 162.36 184.16 L 163.35 184.26 C 164.39 184.36 165.32 183.60 165.42 182.56 C 165.52 181.52 164.76 180.59 163.71 180.49 L 162.73 180.40 C 161.69 180.30 160.76 181.06 160.66 182.10 C 160.56 183.14 161.32 184.06 162.36 184.16 Z M 163.35 184.25 L 164.33 184.35 C 165.37 184.45 166.29 183.69 166.39 182.66 C 166.50 181.62 165.74 180.70 164.70 180.59 L 163.72 180.50 C 162.68 180.40 161.76 181.15 161.65 182.19 C 161.55 183.23 162.31 184.15 163.35 184.25 Z M 164.32 184.34 L 165.31 184.45 C 166.34 184.55 167.27 183.80 167.37 182.77 C 167.48 181.73 166.73 180.81 165.69 180.70 L 164.71 180.60 C 163.67 180.50 162.75 181.25 162.64 182.28 C 162.54 183.31 163.29 184.24 164.32 184.34 Z M 165.30 184.44 L 166.29 184.54 C 167.32 184.65 168.25 183.91 168.36 182.88 C 168.47 181.85 167.72 180.92 166.69 180.82 L 165.70 180.71 C 164.67 180.60 163.75 181.35 163.64 182.38 C 163.53 183.41 164.27 184.33 165.30 184.44 Z M 166.29 184.54 L 167.29 184.64 C 168.31 184.75 169.23 184.01 169.34 182.99 C 169.45 181.96 168.71 181.04 167.69 180.93 L 166.69 180.82 C 165.67 180.71 164.75 181.45 164.64 182.48 C 164.53 183.51 165.27 184.43 166.29 184.54 Z M 167.29 184.64 L 168.29 184.74 C 169.31 184.85 170.23 184.11 170.34 183.09 C 170.44 182.07 169.70 181.15 168.68 181.04 L 167.68 180.94 C 166.66 180.83 165.75 181.57 165.64 182.59 C 165.53 183.61 166.27 184.53 167.29 184.64 Z M 168.30 184.74 L 169.30 184.84 C 170.31 184.94 171.22 184.20 171.33 183.18 C 171.43 182.16 170.69 181.25 169.67 181.15 L 168.67 181.05 C 167.66 180.94 166.75 181.69 166.64 182.70 C 166.54 183.72 167.28 184.63 168.30 184.74 Z M 169.31 184.83 L 170.31 184.93 C 171.32 185.03 172.23 184.28 172.32 183.27 C 172.42 182.25 171.68 181.35 170.66 181.25 L 169.66 181.16 C 168.65 181.06 167.75 181.80 167.65 182.82 C 167.55 183.83 168.29 184.73 169.31 184.83 Z M 170.32 184.92 L 171.32 185.01 C 172.33 185.10 173.22 184.36 173.32 183.35 C 173.41 182.34 172.66 181.44 171.65 181.35 L 170.65 181.26 C 169.64 181.17 168.75 181.91 168.66 182.93 C 168.56 183.94 169.31 184.83 170.32 184.92 Z M 171.33 185.01 L 172.33 185.09 C 173.33 185.17 174.22 184.43 174.31 183.42 C 174.39 182.41 173.64 181.53 172.64 181.44 L 171.64 181.36 C 170.63 181.27 169.75 182.02 169.66 183.03 C 169.58 184.03 170.32 184.92 171.33 185.01 Z M 172.34 185.08 L 173.33 185.16 C 174.33 185.24 175.21 184.49 175.29 183.49 C 175.37 182.48 174.62 181.61 173.62 181.53 L 172.62 181.45 C 171.62 181.37 170.74 182.12 170.66 183.12 C 170.59 184.13 171.34 185.00 172.34 185.08 Z M 173.34 185.15 L 174.35 185.23 C 175.34 185.30 176.21 184.55 176.29 183.55 C 176.36 182.55 175.61 181.68 174.61 181.61 L 173.61 181.53 C 172.61 181.46 171.74 182.21 171.66 183.21 C 171.59 184.21 172.34 185.08 173.34 185.15 Z M 174.36 185.22 L 175.37 185.29 C 176.37 185.36 177.23 184.60 177.29 183.61 C 177.36 182.61 176.61 181.75 175.61 181.68 L 174.60 181.61 C 173.60 181.55 172.74 182.30 172.67 183.29 C 172.61 184.29 173.36 185.15 174.36 185.22 Z M 175.38 185.28 L 176.38 185.34 C 177.37 185.41 178.23 184.66 178.29 183.66 C 178.35 182.67 177.60 181.82 176.61 181.75 L 175.61 181.69 C 174.62 181.63 173.76 182.38 173.70 183.37 C 173.63 184.36 174.39 185.22 175.38 185.28 Z M 176.39 185.34 L 177.38 185.40 C 178.36 185.46 179.21 184.71 179.27 183.72 C 179.33 182.73 178.58 181.88 177.60 181.82 L 176.61 181.76 C 175.62 181.70 174.77 182.45 174.71 183.44 C 174.65 184.43 175.40 185.28 176.39 185.34 Z M 177.38 185.39 L 178.35 185.45 C 179.33 185.51 180.18 184.76 180.24 183.78 C 180.30 182.80 179.55 181.95 178.57 181.89 L 177.60 181.83 C 176.61 181.77 175.77 182.52 175.71 183.50 C 175.65 184.48 176.39 185.33 177.38 185.39 Z M 178.35 185.44 L 179.26 185.50 C 180.24 185.56 181.08 184.81 181.14 183.84 C 181.20 182.86 180.46 182.02 179.48 181.96 L 178.57 181.90 C 177.59 181.84 176.75 182.58 176.69 183.56 C 176.63 184.54 177.37 185.38 178.35 185.44 Z M 179.26 185.49 L 180.19 185.55 C 181.16 185.61 182.00 184.87 182.06 183.89 C 182.12 182.92 181.38 182.08 180.41 182.02 L 179.48 181.96 C 178.51 181.90 177.67 182.64 177.61 183.62 C 177.55 184.59 178.29 185.43 179.26 185.49 Z M 180.19 185.54 L 181.16 185.60 C 182.13 185.66 182.97 184.92 183.03 183.95 C 183.09 182.98 182.35 182.15 181.38 182.09 L 180.41 182.03 C 179.44 181.97 178.60 182.71 178.54 183.68 C 178.48 184.65 179.22 185.48 180.19 185.54 Z M 181.17 185.59 L 182.22 185.66 C 183.19 185.72 184.02 184.98 184.08 184.01 C 184.14 183.05 183.40 182.22 182.44 182.16 L 181.38 182.09 C 180.41 182.04 179.58 182.77 179.52 183.74 C 179.46 184.71 180.20 185.54 181.17 185.59 Z M 182.23 185.65 L 183.33 185.72 C 184.29 185.77 185.12 185.04 185.17 184.08 C 185.23 183.11 184.50 182.29 183.53 182.23 L 182.43 182.17 C 181.47 182.11 180.64 182.84 180.59 183.81 C 180.53 184.77 181.27 185.59 182.23 185.65 Z M 183.33 185.71 L 184.30 185.76 C 185.26 185.82 186.08 185.09 186.13 184.13 C 186.19 183.17 185.45 182.35 184.50 182.29 L 183.53 182.24 C 182.57 182.18 181.75 182.92 181.69 183.87 C 181.64 184.83 182.37 185.65 183.33 185.71 Z M 184.30 185.76 L 185.32 185.81 C 186.27 185.87 187.09 185.13 187.14 184.18 C 187.20 183.22 186.46 182.41 185.51 182.35 L 184.49 182.30 C 183.54 182.25 182.72 182.98 182.67 183.93 C 182.61 184.89 183.35 185.71 184.30 185.76 Z M 185.32 185.81 L 186.36 185.86 C 187.31 185.91 188.13 185.18 188.18 184.23 C 188.22 183.28 187.49 182.46 186.54 182.41 L 185.50 182.36 C 184.55 182.31 183.74 183.04 183.69 183.99 C 183.64 184.95 184.37 185.76 185.32 185.81 Z M 186.37 185.86 L 187.40 185.91 C 188.35 185.95 189.16 185.22 189.20 184.27 C 189.25 183.32 188.52 182.52 187.57 182.47 L 186.53 182.42 C 185.59 182.37 184.78 183.11 184.73 184.05 C 184.69 185.00 185.42 185.81 186.37 185.86 Z M 187.41 185.90 L 188.42 185.95 C 189.36 185.99 190.16 185.25 190.20 184.31 C 190.25 183.36 189.51 182.56 188.57 182.52 L 187.56 182.48 C 186.62 182.43 185.82 183.17 185.77 184.11 C 185.73 185.06 186.46 185.86 187.41 185.90 Z M 188.43 185.94 L 189.38 185.98 C 190.32 186.01 191.11 185.28 191.15 184.34 C 191.19 183.39 190.45 182.60 189.51 182.56 L 188.56 182.53 C 187.61 182.49 186.82 183.22 186.78 184.17 C 186.75 185.11 187.48 185.90 188.43 185.94 Z M 189.39 185.97 L 190.57 186.00 C 191.51 186.03 192.29 185.29 192.32 184.35 C 192.34 183.42 191.61 182.63 190.67 182.60 L 189.49 182.57 C 188.55 182.54 187.77 183.28 187.74 184.22 C 187.72 185.16 188.46 185.94 189.39 185.97 Z M 190.59 185.99 L 191.64 186.01 C 192.57 186.03 193.34 185.28 193.36 184.35 C 193.37 183.42 192.63 182.65 191.70 182.63 L 190.65 182.61 C 189.71 182.60 188.94 183.34 188.93 184.27 C 188.91 185.21 189.66 185.98 190.59 185.99 Z M 191.66 186.00 L 192.62 186.01 C 193.55 186.01 194.30 185.26 194.31 184.33 C 194.31 183.41 193.56 182.65 192.63 182.65 L 191.68 182.64 C 190.75 182.64 189.99 183.39 189.99 184.31 C 189.99 185.24 190.73 186.00 191.66 186.00 Z M 192.64 186.00 L 193.53 185.99 C 194.45 185.98 195.20 185.23 195.19 184.31 C 195.18 183.39 194.43 182.65 193.51 182.65 L 192.62 182.66 C 191.69 182.66 190.95 183.42 190.96 184.34 C 190.96 185.26 191.72 186.00 192.64 186.00 Z M 193.55 185.98 L 194.48 185.97 C 195.40 185.95 196.13 185.19 196.11 184.28 C 196.10 183.36 195.34 182.63 194.43 182.65 L 193.49 182.66 C 192.58 182.68 191.84 183.43 191.86 184.35 C 191.87 185.27 192.63 186.00 193.55 185.98 Z M 194.49 185.96 L 195.51 185.93 C 196.42 185.91 197.14 185.15 197.12 184.24 C 197.10 183.33 196.34 182.60 195.42 182.63 L 194.41 182.65 C 193.50 182.67 192.78 183.43 192.80 184.35 C 192.82 185.26 193.58 185.98 194.49 185.96 Z M 195.52 185.93 L 196.51 185.90 C 197.42 185.87 198.14 185.11 198.11 184.20 C 198.08 183.29 197.32 182.57 196.41 182.60 L 195.41 182.63 C 194.50 182.66 193.79 183.42 193.82 184.33 C 193.85 185.24 194.61 185.96 195.52 185.93 Z M 196.52 185.89 L 197.50 185.86 C 198.41 185.83 199.12 185.07 199.09 184.16 C 199.06 183.25 198.30 182.54 197.39 182.57 L 196.40 182.61 C 195.50 182.64 194.79 183.40 194.82 184.31 C 194.85 185.21 195.61 185.92 196.52 185.89 Z M 197.50 185.85 L 197.85 185.84 C 198.75 185.81 199.46 185.05 199.43 184.14 C 199.40 183.24 198.64 182.53 197.73 182.56 L 197.39 182.58 C 196.48 182.61 195.77 183.37 195.81 184.27 C 195.84 185.18 196.60 185.89 197.50 185.85 Z"
      fill="black"
      fill-rule="nonzero" /><path d="M 148.97 108.12 L 148.71 109.09 C 148.46 110.05 149.03 111.04 149.99 111.30 C 150.96 111.55 151.95 110.98 152.20 110.01 L 152.46 109.05 C 152.71 108.08 152.14 107.10 151.17 106.84 C 150.21 106.59 149.22 107.16 148.97 108.12 Z M 148.68 109.13 L 148.45 110.10 C 148.21 111.08 148.82 112.06 149.80 112.30 C 150.78 112.53 151.76 111.93 152.00 110.95 L 152.23 109.98 C 152.46 109.00 151.86 108.01 150.88 107.78 C 149.90 107.54 148.92 108.15 148.68 109.13 Z M 148.41 110.18 L 148.22 111.16 C 148.04 112.16 148.69 113.13 149.69 113.32 C 150.69 113.51 151.66 112.85 151.85 111.85 L 152.04 110.86 C 152.22 109.86 151.57 108.90 150.57 108.71 C 149.57 108.52 148.60 109.18 148.41 110.18 Z M 148.19 111.28 L 148.08 112.24 C 147.96 113.26 148.68 114.19 149.70 114.31 C 150.72 114.43 151.65 113.70 151.77 112.68 L 151.88 111.72 C 152.01 110.70 151.28 109.78 150.26 109.66 C 149.24 109.54 148.31 110.26 148.19 111.28 Z M 148.06 112.38 L 148.02 113.31 C 147.97 114.34 148.77 115.21 149.80 115.26 C 150.83 115.30 151.70 114.50 151.75 113.47 L 151.79 112.54 C 151.83 111.51 151.04 110.64 150.01 110.60 C 148.98 110.55 148.10 111.35 148.06 112.38 Z M 148.02 113.42 L 148.03 114.40 C 148.05 115.43 148.90 116.26 149.93 116.24 C 150.96 116.22 151.78 115.37 151.77 114.34 L 151.75 113.36 C 151.73 112.33 150.88 111.51 149.85 111.52 C 148.82 111.54 148.00 112.39 148.02 113.42 Z M 148.04 114.49 L 148.11 115.55 C 148.17 116.58 149.06 117.36 150.09 117.29 C 151.12 117.22 151.90 116.33 151.83 115.30 L 151.76 114.25 C 151.70 113.22 150.81 112.44 149.78 112.51 C 148.75 112.58 147.97 113.46 148.04 114.49 Z M 148.11 115.61 L 148.21 116.65 C 148.31 117.68 149.23 118.43 150.26 118.33 C 151.28 118.23 152.03 117.31 151.93 116.29 L 151.83 115.24 C 151.73 114.21 150.81 113.46 149.79 113.57 C 148.76 113.67 148.01 114.58 148.11 115.61 Z M 148.22 116.69 L 148.33 117.68 C 148.45 118.71 149.38 119.44 150.41 119.32 C 151.43 119.20 152.17 118.27 152.04 117.24 L 151.93 116.25 C 151.81 115.23 150.88 114.49 149.85 114.62 C 148.83 114.74 148.10 115.67 148.22 116.69 Z M 148.34 117.70 L 148.47 118.72 C 148.60 119.74 149.54 120.47 150.56 120.33 C 151.58 120.20 152.31 119.27 152.17 118.24 L 152.04 117.22 C 151.91 116.20 150.97 115.48 149.95 115.61 C 148.93 115.74 148.20 116.68 148.34 117.70 Z M 148.47 118.73 L 148.61 119.75 C 148.74 120.77 149.69 121.49 150.71 121.35 C 151.73 121.21 152.45 120.27 152.31 119.25 L 152.17 118.23 C 152.03 117.21 151.09 116.49 150.07 116.63 C 149.05 116.77 148.33 117.71 148.47 118.73 Z M 148.61 119.75 L 148.74 120.73 C 148.88 121.75 149.82 122.47 150.84 122.33 C 151.87 122.19 152.58 121.25 152.44 120.23 L 152.31 119.25 C 152.17 118.22 151.23 117.51 150.21 117.65 C 149.18 117.78 148.47 118.73 148.61 119.75 Z M 148.74 120.72 L 148.88 121.77 C 149.01 122.79 149.95 123.51 150.97 123.38 C 151.99 123.24 152.72 122.30 152.58 121.28 L 152.44 120.24 C 152.31 119.21 151.37 118.49 150.35 118.63 C 149.33 118.76 148.60 119.70 148.74 120.72 Z M 148.87 121.75 L 149.00 122.80 C 149.13 123.82 150.06 124.55 151.08 124.42 C 152.11 124.30 152.84 123.37 152.71 122.34 L 152.58 121.30 C 152.46 120.27 151.53 119.54 150.50 119.67 C 149.48 119.80 148.75 120.73 148.87 121.75 Z M 149.00 122.78 L 149.11 123.75 C 149.22 124.77 150.15 125.51 151.17 125.39 C 152.20 125.28 152.94 124.35 152.82 123.33 L 152.71 122.36 C 152.60 121.34 151.67 120.60 150.65 120.71 C 149.62 120.83 148.88 121.75 149.00 122.78 Z M 149.11 123.73 L 149.20 124.65 C 149.31 125.67 150.22 126.42 151.25 126.32 C 152.28 126.21 153.02 125.29 152.92 124.27 L 152.82 123.35 C 152.72 122.32 151.80 121.57 150.78 121.68 C 149.75 121.78 149.00 122.70 149.11 123.73 Z M 149.20 124.63 L 149.29 125.59 C 149.38 126.62 150.29 127.37 151.32 127.28 C 152.35 127.18 153.10 126.27 153.01 125.25 L 152.92 124.29 C 152.82 123.26 151.91 122.50 150.89 122.60 C 149.86 122.69 149.10 123.60 149.20 124.63 Z M 149.29 125.58 L 149.37 126.57 C 149.46 127.59 150.37 128.36 151.39 128.27 C 152.42 128.18 153.18 127.27 153.09 126.24 L 153.01 125.26 C 152.92 124.23 152.02 123.47 150.99 123.56 C 149.96 123.65 149.20 124.55 149.29 125.58 Z M 149.37 126.56 L 149.46 127.56 C 149.54 128.59 150.45 129.35 151.48 129.26 C 152.50 129.17 153.27 128.27 153.18 127.24 L 153.09 126.25 C 153.01 125.22 152.10 124.46 151.08 124.54 C 150.05 124.63 149.28 125.54 149.37 126.56 Z M 149.46 127.57 L 149.55 128.57 C 149.64 129.60 150.54 130.36 151.57 130.27 C 152.60 130.18 153.36 129.27 153.27 128.24 L 153.18 127.24 C 153.09 126.21 152.18 125.45 151.15 125.54 C 150.13 125.63 149.37 126.54 149.46 127.57 Z M 149.55 128.58 L 149.64 129.56 C 149.74 130.59 150.65 131.34 151.67 131.24 C 152.70 131.15 153.46 130.24 153.36 129.21 L 153.27 128.23 C 153.17 127.21 152.26 126.45 151.23 126.55 C 150.21 126.65 149.45 127.56 149.55 128.58 Z M 149.64 129.56 L 149.74 130.56 C 149.83 131.59 150.75 132.34 151.77 132.24 C 152.80 132.14 153.55 131.23 153.45 130.20 L 153.36 129.21 C 153.26 128.18 152.35 127.43 151.32 127.53 C 150.29 127.63 149.54 128.54 149.64 129.56 Z M 149.74 130.56 L 149.83 131.56 C 149.93 132.59 150.84 133.34 151.86 133.25 C 152.89 133.15 153.65 132.24 153.55 131.21 L 153.45 130.21 C 153.36 129.18 152.45 128.43 151.42 128.52 C 150.39 128.62 149.64 129.53 149.74 130.56 Z M 149.83 131.55 L 149.92 132.56 C 150.01 133.59 150.91 134.35 151.94 134.26 C 152.97 134.17 153.73 133.26 153.64 132.23 L 153.55 131.23 C 153.46 130.20 152.55 129.44 151.53 129.53 C 150.50 129.62 149.74 130.52 149.83 131.55 Z M 149.92 132.54 L 150.00 133.54 C 150.08 134.57 150.98 135.34 152.01 135.25 C 153.03 135.17 153.80 134.27 153.72 133.25 L 153.64 132.25 C 153.56 131.22 152.66 130.45 151.63 130.54 C 150.60 130.62 149.84 131.52 149.92 132.54 Z M 150.00 133.53 L 150.07 134.53 C 150.15 135.56 151.04 136.33 152.07 136.25 C 153.10 136.17 153.87 135.28 153.79 134.25 L 153.72 133.26 C 153.64 132.23 152.75 131.46 151.72 131.53 C 150.69 131.61 149.92 132.50 150.00 133.53 Z M 150.07 134.52 L 150.14 135.52 C 150.21 136.55 151.10 137.32 152.13 137.25 C 153.16 137.18 153.93 136.28 153.86 135.26 L 153.79 134.26 C 153.72 133.23 152.83 132.46 151.80 132.53 C 150.77 132.60 150.00 133.49 150.07 134.52 Z M 150.14 135.52 L 150.21 136.51 C 150.28 137.54 151.17 138.31 152.20 138.24 C 153.22 138.17 154.00 137.28 153.93 136.26 L 153.86 135.26 C 153.79 134.23 152.90 133.46 151.87 133.53 C 150.85 133.60 150.07 134.49 150.14 135.52 Z M 150.21 136.51 L 150.28 137.51 C 150.35 138.53 151.24 139.31 152.26 139.24 C 153.29 139.17 154.06 138.28 153.99 137.26 L 153.93 136.26 C 153.86 135.23 152.97 134.46 151.94 134.53 C 150.92 134.60 150.14 135.49 150.21 136.51 Z M 150.28 137.50 L 150.35 138.50 C 150.41 139.53 151.30 140.30 152.32 140.24 C 153.35 140.17 154.12 139.29 154.06 138.26 L 153.99 137.26 C 153.93 136.24 153.04 135.46 152.02 135.53 C 150.99 135.59 150.22 136.48 150.28 137.50 Z M 150.35 138.49 L 150.41 139.49 C 150.47 140.51 151.34 141.29 152.37 141.23 C 153.39 141.17 154.17 140.30 154.11 139.27 L 154.06 138.27 C 154.00 137.25 153.12 136.47 152.09 136.53 C 151.07 136.59 150.29 137.47 150.35 138.49 Z M 150.41 139.47 L 150.46 140.47 C 150.51 141.49 151.38 142.28 152.40 142.22 C 153.43 142.17 154.22 141.30 154.16 140.28 L 154.11 139.29 C 154.06 138.26 153.19 137.47 152.17 137.53 C 151.14 137.58 150.35 138.45 150.41 139.47 Z M 150.46 140.45 L 150.50 141.44 C 150.55 142.47 151.41 143.26 152.44 143.21 C 153.46 143.17 154.25 142.30 154.21 141.28 L 154.16 140.29 C 154.12 139.27 153.25 138.47 152.23 138.52 C 151.20 138.57 150.41 139.43 150.46 140.45 Z M 150.50 141.44 L 150.55 142.44 C 150.59 143.46 151.46 144.25 152.48 144.21 C 153.50 144.17 154.29 143.30 154.25 142.28 L 154.20 141.28 C 154.16 140.26 153.30 139.47 152.28 139.51 C 151.25 139.56 150.46 140.42 150.50 141.44 Z M 150.55 142.44 L 150.60 143.45 C 150.64 144.47 151.51 145.26 152.53 145.22 C 153.55 145.17 154.34 144.31 154.29 143.29 L 154.25 142.28 C 154.20 141.26 153.33 140.47 152.31 140.51 C 151.29 140.56 150.50 141.42 150.55 142.44 Z M 150.60 143.46 L 150.65 144.48 C 150.70 145.50 151.57 146.29 152.59 146.23 C 153.61 146.18 154.39 145.31 154.34 144.29 L 154.29 143.27 C 154.24 142.26 153.37 141.47 152.35 141.52 C 151.33 141.58 150.55 142.45 150.60 143.46 Z M 150.65 144.49 L 150.71 145.51 C 150.77 146.53 151.64 147.31 152.66 147.25 C 153.68 147.19 154.45 146.32 154.40 145.31 L 154.34 144.28 C 154.28 143.27 153.41 142.49 152.39 142.55 C 151.37 142.61 150.60 143.48 150.65 144.49 Z M 150.72 145.52 L 150.77 146.52 C 150.83 147.54 151.71 148.31 152.72 148.25 C 153.74 148.19 154.51 147.32 154.45 146.31 L 154.39 145.30 C 154.33 144.29 153.46 143.51 152.45 143.57 C 151.43 143.63 150.66 144.50 150.72 145.52 Z M 150.78 146.52 L 150.83 147.49 C 150.89 148.50 151.76 149.27 152.77 149.22 C 153.79 149.16 154.56 148.29 154.50 147.28 L 154.45 146.31 C 154.39 145.29 153.52 144.52 152.51 144.58 C 151.49 144.64 150.72 145.51 150.78 146.52 Z M 150.84 147.48 L 150.89 148.52 C 150.94 149.53 151.81 150.31 152.82 150.26 C 153.83 150.20 154.61 149.34 154.56 148.33 L 154.50 147.29 C 154.45 146.27 153.58 145.50 152.57 145.55 C 151.56 145.60 150.78 146.46 150.84 147.48 Z M 150.89 148.50 L 150.94 149.51 C 150.98 150.52 151.84 151.31 152.85 151.26 C 153.86 151.22 154.64 150.36 154.60 149.35 L 154.55 148.34 C 154.51 147.33 153.65 146.55 152.64 146.59 C 151.63 146.64 150.85 147.49 150.89 148.50 Z M 150.94 149.49 L 150.97 150.46 C 151.01 151.47 151.85 152.26 152.86 152.22 C 153.87 152.19 154.66 151.34 154.63 150.33 L 154.59 149.37 C 154.56 148.36 153.71 147.57 152.71 147.60 C 151.70 147.64 150.91 148.48 150.94 149.49 Z M 150.97 150.43 L 150.99 151.36 C 151.02 152.37 151.85 153.17 152.86 153.14 C 153.87 153.12 154.67 152.29 154.64 151.28 L 154.62 150.36 C 154.60 149.35 153.77 148.55 152.76 148.57 C 151.75 148.59 150.95 149.43 150.97 150.43 Z M 151.00 151.34 L 151.01 152.26 C 151.02 153.27 151.84 154.07 152.85 154.06 C 153.85 154.05 154.66 153.23 154.65 152.22 L 154.64 151.30 C 154.63 150.29 153.81 149.49 152.80 149.50 C 151.79 149.51 150.99 150.33 151.00 151.34 Z M 151.01 152.25 L 151.01 153.25 C 151.02 154.25 151.84 155.06 152.84 155.06 C 153.84 155.06 154.65 154.24 154.65 153.23 L 154.65 152.24 C 154.64 151.23 153.83 150.42 152.82 150.42 C 151.82 150.43 151.01 151.24 151.01 152.25 Z M 151.02 153.24 L 151.02 154.36 C 151.02 155.36 151.83 156.18 152.83 156.18 C 153.84 156.17 154.65 155.36 154.65 154.36 L 154.65 153.24 C 154.65 152.24 153.83 151.43 152.83 151.43 C 151.83 151.43 151.02 152.24 151.02 153.24 Z M 151.02 154.36 L 151.02 155.28 C 151.02 156.28 151.83 157.09 152.83 157.09 C 153.83 157.09 154.64 156.28 154.64 155.28 L 154.64 154.36 C 154.64 153.36 153.83 152.55 152.83 152.55 C 151.83 152.55 151.02 153.36 151.02 154.36 Z M 151.03 155.28 L 151.03 156.26 C 151.03 157.26 151.83 158.07 152.83 158.07 C 153.83 158.07 154.64 157.26 154.64 156.26 L 154.64 155.28 C 154.64 154.28 153.83 153.47 152.83 153.47 C 151.83 153.47 151.03 154.28 151.03 155.28 Z M 151.03 156.26 L 151.03 157.29 C 151.03 158.28 151.84 159.09 152.83 159.09 C 153.83 159.09 154.64 158.28 154.64 157.29 L 154.64 156.26 C 154.64 155.26 153.83 154.45 152.83 154.45 C 151.84 154.45 151.03 155.26 151.03 156.26 Z M 151.03 157.29 L 151.03 158.33 C 151.03 159.33 151.84 160.14 152.83 160.14 C 153.83 160.14 154.63 159.33 154.63 158.33 L 154.63 157.29 C 154.63 156.29 153.83 155.49 152.83 155.49 C 151.84 155.49 151.03 156.29 151.03 157.29 Z M 151.03 158.33 L 151.03 159.38 C 151.03 160.38 151.84 161.18 152.83 161.18 C 153.83 161.18 154.63 160.38 154.63 159.38 L 154.63 158.33 C 154.63 157.34 153.83 156.54 152.83 156.54 C 151.84 156.54 151.03 157.34 151.03 158.33 Z M 151.04 159.38 L 151.04 160.44 C 151.04 161.43 151.84 162.23 152.83 162.23 C 153.82 162.23 154.62 161.43 154.62 160.44 L 154.63 159.39 C 154.63 158.40 153.83 157.59 152.84 157.59 C 151.85 157.59 151.04 158.39 151.04 159.38 Z M 151.05 160.42 L 151.03 161.44 C 151.02 162.43 151.81 163.24 152.80 163.25 C 153.78 163.26 154.59 162.47 154.60 161.48 L 154.62 160.46 C 154.63 159.48 153.84 158.67 152.85 158.65 C 151.87 158.64 151.06 159.43 151.05 160.42 Z M 151.04 161.41 L 151.01 162.39 C 150.98 163.37 151.75 164.19 152.73 164.23 C 153.71 164.26 154.53 163.48 154.56 162.50 L 154.60 161.52 C 154.63 160.54 153.85 159.72 152.87 159.69 C 151.89 159.66 151.07 160.43 151.04 161.41 Z M 151.02 162.34 L 150.96 163.29 C 150.91 164.26 151.65 165.10 152.63 165.16 C 153.60 165.22 154.44 164.48 154.50 163.50 L 154.55 162.55 C 154.61 161.58 153.87 160.74 152.89 160.68 C 151.92 160.62 151.08 161.37 151.02 162.34 Z M 150.98 163.20 L 150.85 164.37 C 150.75 165.34 151.45 166.21 152.41 166.31 C 153.38 166.42 154.25 165.72 154.35 164.75 L 154.48 163.59 C 154.59 162.62 153.89 161.75 152.92 161.64 C 151.96 161.54 151.09 162.24 150.98 163.20 Z M 150.89 164.19 L 150.65 165.31 C 150.45 166.26 151.05 167.19 151.99 167.39 C 152.93 167.60 153.86 167.00 154.07 166.06 L 154.31 164.93 C 154.52 163.99 153.92 163.06 152.97 162.85 C 152.03 162.65 151.10 163.25 150.89 164.19 Z M 150.83 164.86 L 150.46 165.55 C 150.00 166.40 150.32 167.45 151.16 167.90 C 152.00 168.36 153.06 168.05 153.51 167.20 L 153.89 166.51 C 154.34 165.67 154.03 164.61 153.18 164.16 C 152.34 163.70 151.29 164.02 150.83 164.86 Z M 151.79 164.67 L 151.24 164.73 C 150.30 164.84 149.63 165.69 149.73 166.63 C 149.84 167.58 150.69 168.25 151.63 168.15 L 152.18 168.08 C 153.12 167.98 153.80 167.13 153.69 166.18 C 153.59 165.24 152.73 164.56 151.79 164.67 Z M 152.51 165.13 L 151.82 164.56 C 151.09 163.97 150.03 164.08 149.44 164.80 C 148.85 165.53 148.95 166.59 149.68 167.18 L 150.37 167.75 C 151.09 168.34 152.16 168.23 152.75 167.51 C 153.34 166.79 153.23 165.72 152.51 165.13 Z M 152.05 164.84 L 151.31 163.91 C 150.74 163.19 149.69 163.07 148.98 163.64 C 148.26 164.21 148.14 165.26 148.71 165.98 L 149.44 166.91 C 150.02 167.63 151.06 167.75 151.78 167.18 C 152.50 166.60 152.62 165.56 152.05 164.84 Z M 151.36 164.02 L 150.74 163.10 C 150.23 162.35 149.21 162.16 148.46 162.67 C 147.71 163.19 147.52 164.21 148.03 164.96 L 148.65 165.87 C 149.16 166.62 150.19 166.81 150.94 166.30 C 151.68 165.79 151.88 164.77 151.36 164.02 Z M 150.77 163.15 L 150.22 162.30 C 149.74 161.54 148.73 161.31 147.96 161.80 C 147.20 162.28 146.98 163.29 147.46 164.06 L 148.00 164.91 C 148.49 165.67 149.50 165.90 150.26 165.41 C 151.02 164.93 151.25 163.91 150.77 163.15 Z M 150.24 162.33 L 149.73 161.49 C 149.26 160.71 148.26 160.47 147.48 160.93 C 146.71 161.40 146.46 162.41 146.93 163.18 L 147.44 164.03 C 147.91 164.80 148.92 165.05 149.69 164.58 C 150.46 164.11 150.71 163.10 150.24 162.33 Z M 149.74 161.50 L 149.33 160.82 C 148.87 160.04 147.87 159.78 147.09 160.24 C 146.31 160.70 146.06 161.71 146.52 162.48 L 146.92 163.17 C 147.38 163.95 148.39 164.20 149.17 163.74 C 149.94 163.28 150.20 162.28 149.74 161.50 Z"
      fill="black"
      fill-rule="nonzero" /><path d="M 141.13 136.69 L 141.87 136.16 C 142.67 135.59 142.86 134.49 142.29 133.69 C 141.72 132.90 140.62 132.71 139.82 133.28 L 139.08 133.81 C 138.28 134.38 138.10 135.48 138.66 136.28 C 139.23 137.07 140.33 137.26 141.13 136.69 Z M 141.79 136.23 L 142.60 135.72 C 143.43 135.20 143.68 134.10 143.16 133.27 C 142.64 132.44 141.54 132.19 140.71 132.71 L 139.90 133.21 C 139.07 133.73 138.82 134.83 139.34 135.66 C 139.86 136.50 140.96 136.75 141.79 136.23 Z M 142.43 135.83 L 143.34 135.38 C 144.23 134.95 144.60 133.88 144.17 132.99 C 143.74 132.10 142.67 131.73 141.78 132.16 L 140.87 132.60 C 139.98 133.04 139.61 134.11 140.04 135.00 C 140.47 135.89 141.54 136.26 142.43 135.83 Z M 143.12 135.49 L 144.18 135.14 C 145.13 134.83 145.64 133.81 145.33 132.86 C 145.02 131.92 144.00 131.40 143.05 131.71 L 142.00 132.06 C 141.05 132.37 140.54 133.39 140.85 134.34 C 141.16 135.28 142.18 135.80 143.12 135.49 Z M 143.98 135.19 L 144.91 134.99 C 145.88 134.79 146.50 133.84 146.30 132.87 C 146.10 131.90 145.15 131.27 144.18 131.48 L 143.25 131.67 C 142.28 131.87 141.66 132.82 141.86 133.79 C 142.06 134.76 143.01 135.39 143.98 135.19 Z M 144.78 134.99 L 145.78 134.86 C 146.75 134.72 147.43 133.83 147.30 132.86 C 147.17 131.89 146.27 131.21 145.30 131.34 L 144.30 131.48 C 143.33 131.61 142.65 132.50 142.78 133.47 C 142.92 134.44 143.81 135.12 144.78 134.99 Z M 145.70 134.84 L 146.73 134.75 C 147.70 134.67 148.41 133.82 148.32 132.85 C 148.24 131.89 147.39 131.18 146.42 131.26 L 145.39 131.35 C 144.42 131.44 143.71 132.29 143.80 133.25 C 143.88 134.22 144.73 134.93 145.70 134.84 Z M 146.68 134.73 L 147.71 134.68 C 148.66 134.62 149.39 133.80 149.34 132.85 C 149.28 131.90 148.47 131.17 147.51 131.22 L 146.48 131.28 C 145.53 131.33 144.80 132.15 144.85 133.10 C 144.90 134.06 145.72 134.79 146.68 134.73 Z M 147.67 134.66 L 148.66 134.62 C 149.60 134.59 150.34 133.79 150.30 132.85 C 150.27 131.91 149.48 131.17 148.54 131.21 L 147.55 131.24 C 146.61 131.27 145.87 132.07 145.90 133.01 C 145.94 133.95 146.73 134.69 147.67 134.66 Z M 148.64 134.60 L 149.75 134.57 C 150.68 134.55 151.42 133.78 151.40 132.85 C 151.37 131.91 150.60 131.17 149.67 131.20 L 148.56 131.22 C 147.62 131.25 146.89 132.02 146.91 132.95 C 146.93 133.89 147.71 134.62 148.64 134.60 Z M 149.73 134.56 L 150.78 134.54 C 151.70 134.53 152.44 133.77 152.43 132.85 C 152.41 131.92 151.65 131.18 150.73 131.20 L 149.68 131.21 C 148.76 131.23 148.02 131.99 148.03 132.91 C 148.05 133.84 148.81 134.57 149.73 134.56 Z M 150.76 134.53 L 151.72 134.52 C 152.64 134.52 153.37 133.77 153.37 132.85 C 153.36 131.94 152.61 131.20 151.70 131.20 L 150.74 131.21 C 149.82 131.22 149.09 131.96 149.09 132.88 C 149.10 133.80 149.85 134.54 150.76 134.53 Z M 151.71 134.51 L 152.61 134.51 C 153.52 134.51 154.26 133.77 154.26 132.86 C 154.26 131.95 153.52 131.21 152.61 131.22 L 151.70 131.22 C 150.79 131.22 150.06 131.96 150.06 132.87 C 150.06 133.78 150.80 134.51 151.71 134.51 Z M 152.61 134.50 L 152.83 134.50 C 153.74 134.50 154.47 133.77 154.47 132.86 C 154.47 131.96 153.74 131.22 152.83 131.22 L 152.61 131.22 C 151.71 131.22 150.97 131.96 150.97 132.86 C 150.97 133.77 151.71 134.50 152.61 134.50 Z"
      fill="black"
      fill-rule="nonzero" /><path d="M 140.62 144.34 L 139.89 145.42 C 139.34 146.23 139.55 147.34 140.36 147.89 C 141.17 148.43 142.28 148.22 142.82 147.41 L 143.56 146.33 C 144.11 145.52 143.90 144.41 143.09 143.86 C 142.27 143.32 141.17 143.53 140.62 144.34 Z M 139.79 145.58 L 139.32 146.44 C 138.86 147.31 139.19 148.39 140.05 148.85 C 140.92 149.32 141.99 148.99 142.46 148.12 L 142.92 147.26 C 143.39 146.39 143.06 145.31 142.20 144.85 C 141.33 144.39 140.25 144.71 139.79 145.58 Z M 139.14 147.59 L 139.21 148.03 C 139.39 149.00 140.31 149.65 141.28 149.48 C 142.25 149.31 142.90 148.38 142.72 147.41 L 142.65 146.97 C 142.48 146.01 141.55 145.36 140.58 145.53 C 139.61 145.70 138.97 146.63 139.14 147.59 Z M 141.19 149.49 L 141.94 149.40 C 142.92 149.27 143.61 148.38 143.49 147.41 C 143.37 146.43 142.48 145.74 141.50 145.86 L 140.75 145.95 C 139.77 146.08 139.08 146.97 139.20 147.94 C 139.32 148.92 140.21 149.61 141.19 149.49 Z M 142.37 149.29 L 143.51 148.84 C 144.43 148.48 144.88 147.45 144.52 146.54 C 144.17 145.62 143.14 145.17 142.22 145.52 L 141.07 145.97 C 140.16 146.33 139.71 147.36 140.06 148.27 C 140.42 149.19 141.45 149.64 142.37 149.29 Z M 143.61 148.79 L 144.61 148.33 C 145.49 147.92 145.88 146.86 145.47 145.98 C 145.06 145.09 144.01 144.71 143.12 145.12 L 142.12 145.58 C 141.24 145.99 140.85 147.04 141.26 147.92 C 141.67 148.81 142.72 149.20 143.61 148.79 Z M 144.64 148.29 L 145.52 147.85 C 146.39 147.42 146.74 146.37 146.32 145.51 C 145.89 144.64 144.84 144.29 143.97 144.72 L 143.09 145.15 C 142.22 145.58 141.87 146.63 142.30 147.50 C 142.72 148.36 143.77 148.72 144.64 148.29 Z M 145.54 147.82 L 146.43 147.36 C 147.27 146.92 147.61 145.88 147.17 145.03 C 146.73 144.19 145.69 143.86 144.85 144.29 L 143.96 144.75 C 143.11 145.19 142.78 146.23 143.22 147.07 C 143.65 147.92 144.69 148.25 145.54 147.82 Z M 146.43 147.33 L 147.33 146.86 C 148.16 146.42 148.48 145.39 148.04 144.56 C 147.60 143.73 146.57 143.41 145.74 143.85 L 144.84 144.32 C 144.01 144.76 143.69 145.79 144.13 146.62 C 144.57 147.45 145.60 147.77 146.43 147.33 Z M 147.33 146.84 L 148.18 146.38 C 149.00 145.95 149.31 144.92 148.87 144.10 C 148.43 143.28 147.41 142.97 146.59 143.41 L 145.74 143.86 C 144.92 144.30 144.61 145.32 145.05 146.14 C 145.48 146.96 146.50 147.28 147.33 146.84 Z M 148.18 146.37 L 149.05 145.90 C 149.87 145.47 150.17 144.45 149.74 143.64 C 149.30 142.82 148.29 142.52 147.47 142.95 L 146.60 143.42 C 145.78 143.86 145.47 144.87 145.91 145.69 C 146.35 146.50 147.36 146.81 148.18 146.37 Z M 149.05 145.89 L 149.95 145.41 C 150.76 144.97 151.06 143.97 150.62 143.16 C 150.19 142.35 149.18 142.05 148.37 142.48 L 147.48 142.96 C 146.67 143.40 146.36 144.40 146.80 145.21 C 147.23 146.02 148.24 146.33 149.05 145.89 Z M 149.94 145.40 L 150.84 144.92 C 151.64 144.48 151.95 143.48 151.51 142.68 C 151.08 141.88 150.08 141.57 149.28 142.01 L 148.38 142.49 C 147.57 142.92 147.27 143.92 147.70 144.73 C 148.14 145.53 149.14 145.83 149.94 145.40 Z M 150.84 144.91 L 151.70 144.45 C 152.50 144.02 152.81 143.02 152.38 142.22 C 151.95 141.42 150.95 141.12 150.15 141.55 L 149.28 142.01 C 148.48 142.44 148.18 143.44 148.61 144.24 C 149.04 145.04 150.03 145.34 150.84 144.91 Z M 151.69 144.45 L 152.57 143.98 C 153.38 143.56 153.68 142.56 153.26 141.76 C 152.83 140.96 151.84 140.65 151.04 141.08 L 150.16 141.55 C 149.35 141.97 149.05 142.97 149.47 143.77 C 149.90 144.57 150.89 144.88 151.69 144.45 Z M 152.56 143.99 L 153.46 143.52 C 154.26 143.10 154.58 142.11 154.16 141.31 C 153.74 140.51 152.75 140.19 151.94 140.61 L 151.05 141.08 C 150.24 141.49 149.93 142.48 150.35 143.29 C 150.77 144.09 151.76 144.41 152.56 143.99 Z M 153.44 143.53 L 154.35 143.07 C 155.16 142.66 155.48 141.67 155.07 140.87 C 154.66 140.06 153.68 139.74 152.87 140.14 L 151.96 140.60 C 151.15 141.01 150.83 142.00 151.24 142.81 C 151.65 143.61 152.63 143.94 153.44 143.53 Z M 154.33 143.07 L 155.22 142.64 C 156.03 142.24 156.37 141.26 155.97 140.45 C 155.57 139.63 154.59 139.30 153.78 139.70 L 152.89 140.14 C 152.08 140.54 151.74 141.52 152.14 142.33 C 152.54 143.14 153.52 143.47 154.33 143.07 Z M 155.21 142.64 L 156.11 142.21 C 156.92 141.82 157.27 140.84 156.87 140.03 C 156.48 139.21 155.51 138.87 154.69 139.26 L 153.79 139.69 C 152.98 140.08 152.63 141.06 153.02 141.88 C 153.42 142.69 154.39 143.04 155.21 142.64 Z M 156.10 142.22 L 157.01 141.79 C 157.82 141.40 158.17 140.43 157.79 139.61 C 157.40 138.79 156.42 138.44 155.61 138.83 L 154.70 139.26 C 153.88 139.64 153.53 140.62 153.92 141.44 C 154.31 142.25 155.28 142.60 156.10 142.22 Z M 157.00 141.79 L 157.91 141.36 C 158.73 140.98 159.08 140.01 158.70 139.19 C 158.32 138.37 157.34 138.02 156.52 138.40 L 155.61 138.83 C 154.79 139.21 154.44 140.18 154.82 141.00 C 155.21 141.82 156.18 142.17 157.00 141.79 Z M 157.91 141.36 L 158.17 141.24 C 158.99 140.86 159.34 139.89 158.96 139.07 C 158.58 138.25 157.60 137.90 156.78 138.28 L 156.53 138.40 C 155.71 138.78 155.35 139.75 155.73 140.57 C 156.12 141.39 157.09 141.75 157.91 141.36 Z"
      fill="black"
      fill-rule="nonzero" /><path d="M 176.76 109.41 L 175.86 109.80 C 174.92 110.21 174.50 111.30 174.91 112.24 C 175.32 113.18 176.41 113.60 177.34 113.19 L 178.24 112.80 C 179.18 112.39 179.61 111.30 179.20 110.36 C 178.79 109.43 177.70 109.00 176.76 109.41 Z M 175.85 109.83 L 174.95 110.23 C 174.03 110.65 173.61 111.73 174.03 112.65 C 174.44 113.58 175.53 113.99 176.45 113.58 L 177.35 113.17 C 178.28 112.76 178.69 111.67 178.27 110.75 C 177.86 109.82 176.78 109.41 175.85 109.83 Z M 174.93 110.26 L 174.01 110.70 C 173.10 111.12 172.71 112.20 173.14 113.11 C 173.57 114.02 174.65 114.40 175.55 113.98 L 176.47 113.54 C 177.38 113.12 177.77 112.04 177.34 111.13 C 176.91 110.22 175.83 109.84 174.93 110.26 Z M 173.97 110.72 L 173.08 111.17 C 172.19 111.62 171.83 112.70 172.28 113.59 C 172.73 114.48 173.81 114.84 174.70 114.39 L 175.59 113.95 C 176.48 113.50 176.84 112.42 176.39 111.53 C 175.95 110.64 174.86 110.28 173.97 110.72 Z M 173.04 111.18 L 172.17 111.65 C 171.29 112.12 170.95 113.21 171.42 114.10 C 171.89 114.98 172.99 115.31 173.87 114.84 L 174.74 114.38 C 175.63 113.91 175.96 112.81 175.49 111.93 C 175.02 111.05 173.93 110.71 173.04 111.18 Z M 172.14 111.65 L 171.26 112.14 C 170.38 112.63 170.06 113.74 170.55 114.62 C 171.04 115.50 172.15 115.82 173.03 115.33 L 173.91 114.84 C 174.79 114.35 175.10 113.24 174.62 112.36 C 174.13 111.48 173.02 111.16 172.14 111.65 Z M 171.23 112.14 L 170.34 112.65 C 169.46 113.15 169.16 114.27 169.66 115.15 C 170.16 116.03 171.28 116.34 172.16 115.84 L 173.05 115.33 C 173.93 114.82 174.24 113.70 173.73 112.82 C 173.23 111.94 172.11 111.64 171.23 112.14 Z M 170.32 112.65 L 169.50 113.13 C 168.62 113.65 168.33 114.78 168.84 115.65 C 169.35 116.53 170.48 116.83 171.36 116.32 L 172.18 115.84 C 173.06 115.32 173.36 114.19 172.84 113.31 C 172.33 112.43 171.20 112.14 170.32 112.65 Z M 169.48 113.14 L 168.65 113.64 C 167.78 114.16 167.50 115.30 168.02 116.17 C 168.55 117.05 169.69 117.33 170.56 116.80 L 171.38 116.31 C 172.26 115.78 172.54 114.64 172.01 113.77 C 171.49 112.90 170.35 112.61 169.48 113.14 Z M 168.62 113.65 L 167.77 114.18 C 166.91 114.73 166.64 115.87 167.19 116.74 C 167.73 117.61 168.88 117.87 169.74 117.32 L 170.59 116.79 C 171.46 116.25 171.72 115.10 171.18 114.23 C 170.63 113.37 169.49 113.11 168.62 113.65 Z M 167.74 114.20 L 166.85 114.79 C 165.99 115.35 165.75 116.50 166.32 117.36 C 166.88 118.22 168.04 118.45 168.89 117.89 L 169.78 117.30 C 170.64 116.74 170.88 115.59 170.31 114.73 C 169.75 113.87 168.59 113.64 167.74 114.20 Z M 166.80 114.81 L 165.95 115.40 C 165.10 115.99 164.89 117.16 165.48 118.00 C 166.07 118.85 167.23 119.06 168.08 118.47 L 168.94 117.87 C 169.78 117.28 169.99 116.12 169.40 115.27 C 168.81 114.43 167.65 114.22 166.80 114.81 Z M 165.87 115.44 L 165.04 116.07 C 164.21 116.70 164.05 117.88 164.68 118.71 C 165.31 119.54 166.49 119.70 167.32 119.07 L 168.15 118.43 C 168.98 117.80 169.14 116.62 168.51 115.80 C 167.88 114.97 166.70 114.81 165.87 115.44 Z M 164.92 116.15 L 164.15 116.83 C 163.37 117.52 163.29 118.72 163.98 119.50 C 164.67 120.29 165.87 120.37 166.66 119.67 L 167.43 118.99 C 168.22 118.30 168.29 117.10 167.60 116.32 C 166.91 115.53 165.71 115.46 164.92 116.15 Z M 163.99 116.97 L 163.34 117.69 C 162.63 118.47 162.69 119.68 163.47 120.39 C 164.25 121.09 165.46 121.03 166.17 120.25 L 166.82 119.53 C 167.53 118.75 167.47 117.54 166.69 116.84 C 165.90 116.13 164.70 116.19 163.99 116.97 Z M 163.11 117.96 L 162.63 118.76 C 162.07 119.66 162.35 120.85 163.26 121.40 C 164.16 121.96 165.35 121.68 165.90 120.77 L 166.39 119.98 C 166.95 119.07 166.66 117.89 165.76 117.33 C 164.85 116.78 163.67 117.06 163.11 117.96 Z M 162.41 119.23 L 162.13 120.20 C 161.83 121.23 162.42 122.30 163.44 122.59 C 164.47 122.89 165.54 122.30 165.83 121.28 L 166.12 120.30 C 166.42 119.28 165.83 118.21 164.80 117.91 C 163.78 117.62 162.71 118.20 162.41 119.23 Z M 162.06 120.63 L 162.00 121.62 C 161.94 122.68 162.75 123.60 163.82 123.66 C 164.88 123.72 165.79 122.90 165.85 121.84 L 165.91 120.85 C 165.97 119.79 165.15 118.88 164.09 118.82 C 163.03 118.76 162.11 119.57 162.06 120.63 Z M 162.00 121.85 L 162.06 122.82 C 162.13 123.88 163.04 124.69 164.11 124.63 C 165.17 124.56 165.98 123.64 165.91 122.58 L 165.85 121.61 C 165.79 120.55 164.87 119.74 163.81 119.80 C 162.74 119.87 161.93 120.78 162.00 121.85 Z M 162.06 122.84 L 162.13 123.82 C 162.21 124.88 163.13 125.68 164.20 125.60 C 165.26 125.52 166.06 124.60 165.98 123.54 L 165.91 122.56 C 165.83 121.50 164.91 120.70 163.85 120.78 C 162.79 120.85 161.99 121.78 162.06 122.84 Z M 162.13 123.75 L 162.17 124.73 C 162.21 125.79 163.10 126.62 164.16 126.58 C 165.23 126.54 166.06 125.65 166.02 124.58 L 165.98 123.61 C 165.94 122.54 165.05 121.71 163.99 121.75 C 162.92 121.79 162.09 122.69 162.13 123.75 Z M 162.17 124.68 L 162.19 125.67 C 162.20 126.73 163.07 127.58 164.13 127.57 C 165.19 127.55 166.04 126.68 166.02 125.62 L 166.01 124.63 C 166.00 123.57 165.13 122.72 164.07 122.73 C 163.01 122.75 162.16 123.62 162.17 124.68 Z M 162.19 125.65 L 162.19 126.65 C 162.19 127.71 163.05 128.56 164.11 128.56 C 165.16 128.56 166.02 127.70 166.02 126.65 L 166.02 125.64 C 166.02 124.59 165.16 123.73 164.10 123.73 C 163.05 123.73 162.19 124.59 162.19 125.65 Z M 162.20 126.65 L 162.20 127.59 C 162.20 128.64 163.05 129.50 164.11 129.50 C 165.16 129.50 166.01 128.64 166.01 127.59 L 166.01 126.65 C 166.01 125.60 165.16 124.74 164.11 124.74 C 163.05 124.74 162.20 125.60 162.20 126.65 Z M 162.20 127.59 L 162.20 128.58 C 162.20 129.63 163.05 130.48 164.11 130.48 C 165.16 130.48 166.01 129.63 166.01 128.58 L 166.01 127.59 C 166.01 126.54 165.16 125.68 164.11 125.68 C 163.05 125.68 162.20 126.54 162.20 127.59 Z M 162.21 128.58 L 162.21 129.62 C 162.21 130.67 163.06 131.52 164.11 131.52 C 165.15 131.52 166.00 130.67 166.00 129.62 L 166.00 128.58 C 166.00 127.53 165.15 126.68 164.11 126.68 C 163.06 126.68 162.21 127.53 162.21 128.58 Z M 162.21 129.62 L 162.21 130.66 C 162.21 131.71 163.06 132.56 164.11 132.56 C 165.15 132.56 166.00 131.71 166.00 130.66 L 166.00 129.62 C 166.00 128.58 165.15 127.73 164.11 127.73 C 163.06 127.73 162.21 128.58 162.21 129.62 Z M 162.22 130.66 L 162.22 131.63 C 162.22 132.67 163.06 133.51 164.11 133.51 C 165.15 133.51 165.99 132.67 165.99 131.63 L 165.99 130.66 C 165.99 129.62 165.15 128.78 164.11 128.78 C 163.06 128.78 162.22 129.62 162.22 130.66 Z M 162.23 131.63 L 162.23 132.62 C 162.23 133.66 163.07 134.50 164.11 134.50 C 165.14 134.50 165.98 133.66 165.98 132.62 L 165.98 131.63 C 165.98 130.59 165.14 129.75 164.11 129.75 C 163.07 129.75 162.23 130.59 162.23 131.63 Z M 162.24 132.62 L 162.24 133.63 C 162.24 134.66 163.07 135.50 164.11 135.50 C 165.14 135.50 165.98 134.66 165.98 133.63 L 165.98 132.62 C 165.98 131.59 165.14 130.75 164.11 130.75 C 163.07 130.75 162.24 131.59 162.24 132.62 Z M 162.24 133.63 L 162.24 134.66 C 162.24 135.69 163.08 136.52 164.11 136.52 C 165.13 136.52 165.97 135.69 165.97 134.66 L 165.97 133.63 C 165.97 132.60 165.13 131.77 164.11 131.77 C 163.08 131.77 162.24 132.60 162.24 133.63 Z M 162.25 134.66 L 162.25 135.66 C 162.25 136.68 163.08 137.51 164.11 137.51 C 165.13 137.51 165.96 136.68 165.96 135.66 L 165.96 134.66 C 165.96 133.64 165.13 132.81 164.11 132.81 C 163.08 132.81 162.25 133.64 162.25 134.66 Z M 162.26 135.66 L 162.26 136.63 C 162.26 137.65 163.09 138.48 164.11 138.48 C 165.13 138.48 165.95 137.65 165.95 136.63 L 165.95 135.66 C 165.95 134.64 165.13 133.81 164.11 133.81 C 163.09 133.81 162.26 134.64 162.26 135.66 Z M 162.27 136.63 L 162.27 137.63 C 162.27 138.64 163.09 139.47 164.11 139.47 C 165.12 139.47 165.94 138.64 165.94 137.63 L 165.94 136.63 C 165.94 135.62 165.12 134.79 164.11 134.79 C 163.09 134.79 162.27 135.62 162.27 136.63 Z M 162.28 137.63 L 162.28 138.64 C 162.28 139.65 163.09 140.47 164.11 140.47 C 165.12 140.47 165.94 139.65 165.94 138.64 L 165.94 137.63 C 165.94 136.62 165.12 135.80 164.11 135.80 C 163.09 135.80 162.28 136.62 162.28 137.63 Z M 162.28 138.64 L 162.28 139.66 C 162.28 140.67 163.10 141.48 164.11 141.48 C 165.11 141.48 165.93 140.67 165.93 139.66 L 165.93 138.64 C 165.93 137.63 165.11 136.81 164.11 136.81 C 163.10 136.81 162.28 137.63 162.28 138.64 Z M 162.29 139.66 L 162.29 140.68 C 162.29 141.68 163.10 142.50 164.11 142.50 C 165.11 142.50 165.92 141.68 165.92 140.68 L 165.92 139.66 C 165.92 138.66 165.11 137.85 164.11 137.85 C 163.10 137.85 162.29 138.66 162.29 139.66 Z M 162.30 140.68 L 162.30 141.70 C 162.30 142.69 163.11 143.50 164.11 143.50 C 165.10 143.50 165.91 142.69 165.91 141.70 L 165.91 140.68 C 165.91 139.68 165.10 138.88 164.11 138.88 C 163.11 138.88 162.30 139.68 162.30 140.68 Z M 162.31 141.70 L 162.31 142.71 C 162.31 143.70 163.11 144.51 164.11 144.51 C 165.10 144.51 165.90 143.70 165.90 142.71 L 165.90 141.70 C 165.90 140.70 165.10 139.90 164.11 139.90 C 163.11 139.90 162.31 140.70 162.31 141.70 Z M 162.32 142.71 L 162.32 143.71 C 162.32 144.70 163.12 145.50 164.11 145.50 C 165.09 145.50 165.89 144.70 165.89 143.71 L 165.89 142.71 C 165.89 141.72 165.09 140.92 164.11 140.92 C 163.12 140.92 162.32 141.72 162.32 142.71 Z M 162.33 143.71 L 162.33 144.70 C 162.33 145.68 163.12 146.48 164.11 146.48 C 165.09 146.48 165.88 145.68 165.88 144.70 L 165.88 143.71 C 165.88 142.73 165.09 141.94 164.11 141.94 C 163.12 141.94 162.33 142.73 162.33 143.71 Z M 162.34 144.70 L 162.34 145.71 C 162.34 146.68 163.13 147.47 164.11 147.47 C 165.08 147.47 165.87 146.68 165.87 145.71 L 165.87 144.70 C 165.87 143.72 165.08 142.93 164.11 142.93 C 163.13 142.93 162.34 143.72 162.34 144.70 Z M 162.35 145.71 L 162.35 146.76 C 162.35 147.73 163.14 148.51 164.11 148.51 C 165.08 148.51 165.86 147.73 165.86 146.76 L 165.86 145.71 C 165.86 144.74 165.08 143.95 164.11 143.95 C 163.14 143.95 162.35 144.74 162.35 145.71 Z M 162.36 146.76 L 162.36 147.77 C 162.36 148.73 163.14 149.51 164.11 149.51 C 165.07 149.51 165.85 148.73 165.85 147.77 L 165.85 146.76 C 165.85 145.79 165.07 145.01 164.11 145.01 C 163.14 145.01 162.36 145.79 162.36 146.76 Z M 162.37 147.77 L 162.37 148.74 C 162.37 149.70 163.15 150.48 164.11 150.48 C 165.06 150.48 165.84 149.70 165.84 148.74 L 165.84 147.77 C 165.84 146.81 165.06 146.04 164.11 146.04 C 163.15 146.04 162.37 146.81 162.37 147.77 Z M 162.39 148.74 L 162.39 149.69 C 162.39 150.64 163.16 151.41 164.11 151.41 C 165.06 151.41 165.83 150.64 165.83 149.69 L 165.83 148.74 C 165.83 147.79 165.06 147.03 164.11 147.03 C 163.16 147.03 162.39 147.79 162.39 148.74 Z M 162.40 149.69 L 162.40 150.69 C 162.40 151.64 163.17 152.40 164.11 152.40 C 165.05 152.40 165.82 151.63 165.81 150.69 L 165.81 149.69 C 165.81 148.75 165.05 147.98 164.10 147.98 C 163.16 147.98 162.40 148.75 162.40 149.69 Z M 162.41 150.71 L 162.42 151.71 C 162.44 152.65 163.21 153.40 164.14 153.39 C 165.08 153.38 165.83 152.61 165.82 151.67 L 165.80 150.67 C 165.79 149.73 165.02 148.98 164.08 148.99 C 163.15 149.01 162.40 149.78 162.41 150.71 Z M 162.43 151.76 L 162.47 152.75 C 162.51 153.68 163.30 154.40 164.23 154.37 C 165.16 154.33 165.88 153.54 165.85 152.61 L 165.81 151.62 C 165.77 150.69 164.98 149.97 164.05 150.01 C 163.12 150.04 162.40 150.83 162.43 151.76 Z M 162.49 152.82 L 162.57 153.81 C 162.65 154.73 163.46 155.42 164.38 155.34 C 165.31 155.26 165.99 154.45 165.91 153.53 L 165.83 152.54 C 165.75 151.62 164.94 150.93 164.02 151.01 C 163.10 151.09 162.41 151.90 162.49 152.82 Z M 162.59 153.90 L 162.73 154.87 C 162.85 155.78 163.69 156.42 164.60 156.30 C 165.52 156.17 166.16 155.33 166.03 154.42 L 165.90 153.44 C 165.77 152.53 164.93 151.89 164.02 152.02 C 163.10 152.14 162.47 152.99 162.59 153.90 Z M 162.74 154.95 L 162.93 155.92 C 163.09 156.82 163.96 157.42 164.86 157.25 C 165.76 157.08 166.36 156.21 166.19 155.31 L 166.01 154.34 C 165.84 153.44 164.97 152.84 164.07 153.01 C 163.17 153.18 162.58 154.05 162.74 154.95 Z M 162.94 155.97 L 163.16 156.95 C 163.36 157.84 164.24 158.41 165.13 158.21 C 166.02 158.01 166.59 157.13 166.39 156.24 L 166.17 155.26 C 165.98 154.37 165.09 153.80 164.20 154.00 C 163.31 154.20 162.75 155.08 162.94 155.97 Z M 163.17 156.98 L 163.41 157.97 C 163.62 158.85 164.51 159.40 165.40 159.18 C 166.28 158.97 166.83 158.08 166.61 157.19 L 166.38 156.21 C 166.16 155.32 165.27 154.78 164.39 154.99 C 163.50 155.21 162.96 156.10 163.17 156.98 Z M 163.42 157.98 L 163.57 158.60 C 163.79 159.48 164.68 160.01 165.56 159.79 C 166.44 159.58 166.98 158.68 166.76 157.80 L 166.61 157.18 C 166.39 156.30 165.50 155.77 164.62 155.99 C 163.74 156.21 163.20 157.10 163.42 157.98 Z"
      fill="black"
      fill-rule="nonzero" /><path d="M 165.64 136.72 L 166.55 136.47 C 167.51 136.21 168.08 135.22 167.82 134.26 C 167.55 133.30 166.56 132.74 165.60 133.00 L 164.69 133.25 C 163.73 133.51 163.17 134.50 163.43 135.46 C 163.69 136.42 164.68 136.98 165.64 136.72 Z M 166.58 136.47 L 167.51 136.20 C 168.47 135.92 169.02 134.92 168.74 133.96 C 168.46 133.01 167.46 132.46 166.51 132.74 L 165.58 133.00 C 164.62 133.28 164.07 134.28 164.35 135.24 C 164.62 136.20 165.62 136.75 166.58 136.47 Z M 167.56 136.19 L 168.53 135.87 C 169.48 135.57 170.00 134.55 169.70 133.60 C 169.39 132.65 168.37 132.13 167.42 132.44 L 166.45 132.75 C 165.50 133.06 164.98 134.07 165.29 135.02 C 165.60 135.97 166.61 136.49 167.56 136.19 Z M 168.60 135.85 L 169.58 135.49 C 170.52 135.15 171.00 134.11 170.66 133.17 C 170.31 132.23 169.27 131.75 168.33 132.10 L 167.35 132.46 C 166.42 132.80 165.94 133.84 166.28 134.78 C 166.62 135.72 167.66 136.20 168.60 135.85 Z M 169.64 135.46 L 170.50 135.11 C 171.42 134.74 171.86 133.68 171.49 132.76 C 171.11 131.84 170.05 131.39 169.13 131.77 L 168.28 132.12 C 167.35 132.50 166.91 133.55 167.29 134.48 C 167.67 135.40 168.72 135.84 169.64 135.46 Z M 170.54 135.09 L 171.43 134.70 C 172.34 134.30 172.75 133.24 172.36 132.33 C 171.96 131.42 170.90 131.01 169.99 131.40 L 169.09 131.80 C 168.18 132.19 167.77 133.25 168.17 134.16 C 168.57 135.07 169.63 135.49 170.54 135.09 Z M 171.45 134.68 L 172.38 134.25 C 173.28 133.84 173.68 132.78 173.26 131.88 C 172.85 130.98 171.79 130.59 170.89 131.00 L 169.96 131.42 C 169.06 131.83 168.67 132.90 169.08 133.80 C 169.49 134.70 170.56 135.09 171.45 134.68 Z M 172.40 134.24 L 173.35 133.79 C 174.24 133.37 174.62 132.31 174.20 131.42 C 173.78 130.52 172.72 130.14 171.83 130.56 L 170.87 131.01 C 169.98 131.43 169.60 132.50 170.02 133.39 C 170.44 134.28 171.51 134.66 172.40 134.24 Z M 173.36 133.78 L 174.29 133.33 C 175.18 132.91 175.55 131.85 175.13 130.96 C 174.70 130.08 173.64 129.70 172.76 130.13 L 171.82 130.57 C 170.94 131.00 170.56 132.06 170.99 132.94 C 171.41 133.83 172.47 134.20 173.36 133.78 Z M 174.29 133.32 L 175.17 132.90 C 176.05 132.47 176.42 131.42 176.00 130.54 C 175.58 129.66 174.52 129.29 173.64 129.71 L 172.76 130.14 C 171.88 130.56 171.51 131.62 171.93 132.50 C 172.35 133.38 173.41 133.75 174.29 133.32 Z M 175.17 132.89 L 176.07 132.46 C 176.94 132.04 177.31 130.98 176.89 130.11 C 176.46 129.23 175.41 128.87 174.54 129.29 L 173.64 129.72 C 172.77 130.14 172.40 131.19 172.82 132.07 C 173.24 132.95 174.30 133.31 175.17 132.89 Z M 176.06 132.45 L 176.97 132.01 C 177.84 131.59 178.20 130.55 177.78 129.67 C 177.36 128.80 176.32 128.44 175.44 128.86 L 174.54 129.30 C 173.67 129.72 173.30 130.76 173.72 131.63 C 174.15 132.51 175.19 132.87 176.06 132.45 Z M 176.96 132.01 L 177.88 131.57 C 178.74 131.15 179.11 130.10 178.69 129.24 C 178.27 128.37 177.23 128.01 176.36 128.43 L 175.45 128.87 C 174.58 129.28 174.22 130.33 174.64 131.19 C 175.05 132.06 176.10 132.42 176.96 132.01 Z M 177.87 131.56 L 178.79 131.12 C 179.65 130.70 180.02 129.66 179.60 128.80 C 179.19 127.94 178.15 127.57 177.29 127.99 L 176.37 128.43 C 175.50 128.85 175.14 129.88 175.56 130.75 C 175.97 131.61 177.01 131.97 177.87 131.56 Z M 178.78 131.11 L 179.68 130.68 C 180.54 130.27 180.90 129.24 180.49 128.38 C 180.08 127.52 179.05 127.16 178.19 127.57 L 177.29 128.00 C 176.43 128.41 176.07 129.44 176.48 130.30 C 176.89 131.16 177.92 131.52 178.78 131.11 Z M 179.67 130.67 L 180.57 130.24 C 181.43 129.83 181.79 128.81 181.38 127.95 C 180.98 127.10 179.95 126.74 179.10 127.15 L 178.20 127.58 C 177.34 127.98 176.98 129.01 177.39 129.86 C 177.79 130.72 178.82 131.08 179.67 130.67 Z M 180.57 130.23 L 181.47 129.80 C 182.32 129.40 182.68 128.38 182.28 127.53 C 181.87 126.68 180.86 126.32 180.01 126.72 L 179.10 127.15 C 178.25 127.56 177.89 128.58 178.29 129.43 C 178.70 130.28 179.72 130.64 180.57 130.23 Z M 181.47 129.80 L 182.37 129.37 C 183.22 128.96 183.58 127.95 183.18 127.11 C 182.77 126.26 181.76 125.90 180.92 126.30 L 180.01 126.73 C 179.17 127.13 178.80 128.15 179.21 128.99 C 179.61 129.84 180.62 130.20 181.47 129.80 Z M 182.37 129.36 L 183.27 128.93 C 184.11 128.53 184.47 127.52 184.07 126.68 C 183.67 125.84 182.67 125.48 181.83 125.88 L 180.92 126.31 C 180.08 126.71 179.72 127.72 180.12 128.56 C 180.52 129.40 181.52 129.76 182.37 129.36 Z M 183.27 128.92 L 184.19 128.48 C 185.03 128.09 185.38 127.09 184.99 126.25 C 184.59 125.41 183.59 125.06 182.75 125.45 L 181.83 125.89 C 181.00 126.29 180.64 127.29 181.03 128.12 C 181.43 128.96 182.43 129.32 183.27 128.92 Z M 184.19 128.48 L 185.13 128.03 C 185.96 127.64 186.32 126.64 185.92 125.81 C 185.53 124.98 184.53 124.62 183.70 125.01 L 182.76 125.46 C 181.93 125.85 181.57 126.85 181.96 127.68 C 182.36 128.51 183.35 128.87 184.19 128.48 Z M 185.12 128.03 L 186.05 127.59 C 186.88 127.20 187.24 126.21 186.85 125.38 C 186.45 124.55 185.46 124.19 184.63 124.58 L 183.70 125.02 C 182.87 125.41 182.52 126.40 182.91 127.23 C 183.30 128.06 184.29 128.42 185.12 128.03 Z M 186.04 127.59 L 186.95 127.16 C 187.78 126.77 188.14 125.79 187.75 124.96 C 187.37 124.13 186.38 123.77 185.55 124.16 L 184.64 124.59 C 183.81 124.97 183.45 125.96 183.84 126.79 C 184.23 127.61 185.21 127.97 186.04 127.59 Z M 186.94 127.16 L 187.82 126.75 C 188.65 126.37 189.01 125.39 188.63 124.56 C 188.25 123.74 187.27 123.38 186.44 123.76 L 185.56 124.16 C 184.73 124.54 184.37 125.52 184.75 126.35 C 185.13 127.18 186.11 127.54 186.94 127.16 Z M 187.81 126.75 L 188.68 126.36 C 189.50 125.99 189.87 125.01 189.50 124.19 C 189.12 123.36 188.15 122.99 187.32 123.37 L 186.46 123.76 C 185.63 124.13 185.26 125.10 185.64 125.93 C 186.01 126.76 186.98 127.13 187.81 126.75 Z M 188.66 126.36 L 189.66 125.93 C 190.49 125.56 190.86 124.60 190.50 123.77 C 190.14 122.94 189.17 122.56 188.34 122.92 L 187.34 123.36 C 186.51 123.72 186.13 124.69 186.50 125.52 C 186.86 126.35 187.83 126.73 188.66 126.36 Z M 189.62 125.94 L 190.57 125.55 C 191.41 125.21 191.81 124.25 191.46 123.41 C 191.12 122.57 190.16 122.17 189.32 122.52 L 188.37 122.91 C 187.54 123.26 187.14 124.21 187.48 125.05 C 187.83 125.89 188.79 126.29 189.62 125.94 Z M 190.52 125.57 L 191.43 125.23 C 192.28 124.91 192.71 123.97 192.39 123.12 C 192.07 122.27 191.12 121.84 190.28 122.16 L 189.37 122.50 C 188.52 122.82 188.09 123.76 188.41 124.61 C 188.73 125.46 189.68 125.89 190.52 125.57 Z M 191.36 125.25 L 192.24 124.96 C 193.10 124.68 193.57 123.76 193.29 122.90 C 193.01 122.04 192.08 121.57 191.22 121.85 L 190.34 122.14 C 189.49 122.42 189.02 123.34 189.30 124.20 C 189.58 125.06 190.50 125.53 191.36 125.25 Z M 192.15 124.99 L 193.12 124.73 C 194.00 124.50 194.52 123.60 194.28 122.73 C 194.05 121.86 193.16 121.34 192.28 121.57 L 191.31 121.83 C 190.44 122.06 189.92 122.95 190.15 123.83 C 190.38 124.70 191.28 125.22 192.15 124.99 Z M 193.04 124.75 L 194.02 124.55 C 194.91 124.36 195.47 123.50 195.29 122.61 C 195.10 121.73 194.24 121.16 193.35 121.34 L 192.37 121.55 C 191.48 121.73 190.91 122.60 191.10 123.48 C 191.28 124.37 192.15 124.94 193.04 124.75 Z M 193.96 124.56 L 194.93 124.39 C 195.82 124.24 196.43 123.40 196.27 122.51 C 196.12 121.61 195.28 121.01 194.39 121.17 L 193.41 121.33 C 192.52 121.48 191.92 122.33 192.07 123.22 C 192.22 124.11 193.07 124.71 193.96 124.56 Z M 194.90 124.40 L 195.78 124.27 C 196.68 124.13 197.29 123.30 197.16 122.40 C 197.02 121.51 196.19 120.89 195.29 121.03 L 194.42 121.16 C 193.52 121.30 192.91 122.13 193.04 123.02 C 193.18 123.92 194.01 124.53 194.90 124.40 Z"
      fill="black"
      fill-rule="nonzero" /><path d="M 187.13 131.12 L 186.44 131.83 C 185.77 132.52 185.79 133.62 186.48 134.29 C 187.17 134.96 188.27 134.94 188.94 134.25 L 189.62 133.54 C 190.29 132.85 190.27 131.75 189.58 131.08 C 188.89 130.42 187.79 130.43 187.13 131.12 Z M 186.29 131.93 L 185.68 132.70 C 185.06 133.47 185.19 134.59 185.96 135.21 C 186.73 135.83 187.85 135.70 188.47 134.93 L 189.08 134.16 C 189.70 133.39 189.57 132.26 188.80 131.65 C 188.03 131.03 186.91 131.16 186.29 131.93 Z M 185.45 132.96 L 184.98 133.85 C 184.50 134.75 184.84 135.86 185.74 136.33 C 186.63 136.80 187.74 136.46 188.22 135.57 L 188.69 134.67 C 189.17 133.78 188.82 132.67 187.93 132.19 C 187.03 131.72 185.92 132.06 185.45 132.96 Z M 184.80 134.21 L 184.55 135.13 C 184.27 136.12 184.85 137.15 185.84 137.42 C 186.83 137.70 187.86 137.12 188.13 136.13 L 188.39 135.21 C 188.67 134.22 188.09 133.19 187.10 132.92 C 186.11 132.64 185.08 133.22 184.80 134.21 Z M 184.49 135.39 L 184.36 136.39 C 184.23 137.41 184.94 138.34 185.97 138.48 C 186.99 138.61 187.92 137.90 188.06 136.87 L 188.19 135.87 C 188.33 134.85 187.61 133.92 186.59 133.78 C 185.56 133.65 184.63 134.36 184.49 135.39 Z M 184.34 136.53 L 184.29 137.56 C 184.23 138.59 185.03 139.47 186.06 139.52 C 187.09 139.58 187.97 138.79 188.02 137.76 L 188.08 136.73 C 188.13 135.70 187.34 134.82 186.31 134.76 C 185.28 134.71 184.40 135.50 184.34 136.53 Z M 184.28 137.62 L 184.27 138.59 C 184.24 139.63 185.07 140.48 186.10 140.50 C 187.13 140.52 187.98 139.70 188.01 138.67 L 188.02 137.69 C 188.05 136.66 187.23 135.81 186.19 135.79 C 185.16 135.77 184.31 136.59 184.28 137.62 Z M 184.27 138.64 L 184.27 139.57 C 184.27 140.60 185.11 141.44 186.14 141.43 C 187.17 141.43 188.01 140.59 188.01 139.56 L 188.00 138.63 C 188.00 137.60 187.16 136.76 186.13 136.76 C 185.10 136.77 184.26 137.60 184.27 138.64 Z M 184.27 139.64 L 184.32 140.62 C 184.36 141.65 185.23 142.45 186.26 142.40 C 187.29 142.36 188.09 141.49 188.04 140.46 L 188.00 139.48 C 187.96 138.45 187.09 137.66 186.06 137.70 C 185.03 137.74 184.23 138.61 184.27 139.64 Z M 184.33 140.71 L 184.43 141.80 C 184.52 142.83 185.43 143.58 186.45 143.48 C 187.48 143.39 188.23 142.48 188.13 141.46 L 188.03 140.37 C 187.94 139.34 187.03 138.59 186.01 138.69 C 184.98 138.78 184.23 139.69 184.33 140.71 Z M 184.44 141.88 L 184.57 142.81 C 184.70 143.83 185.64 144.54 186.65 144.40 C 187.67 144.27 188.38 143.33 188.24 142.32 L 188.12 141.38 C 187.98 140.37 187.05 139.65 186.03 139.79 C 185.02 139.93 184.30 140.86 184.44 141.88 Z M 184.58 142.85 L 184.73 143.82 C 184.89 144.83 185.84 145.51 186.85 145.35 C 187.86 145.19 188.54 144.25 188.38 143.24 L 188.23 142.27 C 188.07 141.27 187.12 140.58 186.12 140.74 C 185.11 140.90 184.42 141.84 184.58 142.85 Z M 184.75 143.84 L 184.92 144.86 C 185.10 145.86 186.05 146.53 187.05 146.35 C 188.05 146.18 188.72 145.23 188.54 144.23 L 188.37 143.22 C 188.20 142.22 187.24 141.55 186.24 141.72 C 185.24 141.89 184.57 142.84 184.75 143.84 Z M 184.94 144.87 L 185.12 145.90 C 185.30 146.89 186.26 147.55 187.25 147.37 C 188.24 147.19 188.90 146.23 188.72 145.24 L 188.53 144.21 C 188.35 143.22 187.40 142.56 186.41 142.74 C 185.41 142.92 184.75 143.88 184.94 144.87 Z M 185.13 145.90 L 185.32 146.92 C 185.51 147.90 186.46 148.55 187.44 148.37 C 188.43 148.19 189.08 147.24 188.90 146.25 L 188.71 145.23 C 188.53 144.25 187.58 143.60 186.59 143.78 C 185.60 143.96 184.95 144.91 185.13 145.90 Z M 185.34 146.91 L 185.53 147.93 C 185.71 148.91 186.65 149.56 187.63 149.38 C 188.61 149.19 189.26 148.25 189.07 147.27 L 188.89 146.25 C 188.70 145.27 187.76 144.62 186.78 144.81 C 185.80 144.99 185.15 145.93 185.34 146.91 Z M 185.54 147.92 L 185.72 148.91 C 185.90 149.88 186.83 150.53 187.80 150.35 C 188.77 150.17 189.41 149.24 189.24 148.27 L 189.06 147.28 C 188.88 146.31 187.95 145.67 186.98 145.84 C 186.01 146.02 185.37 146.95 185.54 147.92 Z M 185.74 148.90 L 185.91 149.87 C 186.08 150.83 187.00 151.47 187.96 151.30 C 188.92 151.13 189.56 150.22 189.39 149.26 L 189.22 148.29 C 189.05 147.33 188.13 146.68 187.17 146.85 C 186.21 147.02 185.57 147.94 185.74 148.90 Z M 185.93 149.85 L 186.09 150.82 C 186.25 151.77 187.15 152.41 188.10 152.25 C 189.06 152.09 189.70 151.19 189.54 150.24 L 189.37 149.27 C 189.21 148.32 188.31 147.68 187.36 147.84 C 186.41 148.00 185.77 148.90 185.93 149.85 Z M 186.11 150.80 L 186.26 151.77 C 186.41 152.71 187.30 153.35 188.24 153.20 C 189.18 153.05 189.82 152.17 189.67 151.23 L 189.52 150.26 C 189.37 149.32 188.49 148.67 187.54 148.82 C 186.60 148.97 185.96 149.86 186.11 150.80 Z M 186.28 151.75 L 186.41 152.65 C 186.55 153.58 187.42 154.23 188.35 154.09 C 189.29 153.95 189.93 153.08 189.79 152.14 L 189.66 151.25 C 189.52 150.31 188.65 149.67 187.72 149.81 C 186.78 149.94 186.14 150.82 186.28 151.75 Z M 186.42 152.63 L 186.55 153.56 C 186.68 154.49 187.53 155.14 188.46 155.01 C 189.39 154.88 190.04 154.02 189.91 153.09 L 189.78 152.16 C 189.66 151.23 188.80 150.58 187.87 150.71 C 186.94 150.84 186.29 151.70 186.42 152.63 Z M 186.56 153.54 L 186.68 154.52 C 186.80 155.44 187.64 156.09 188.57 155.97 C 189.49 155.86 190.14 155.01 190.03 154.09 L 189.90 153.11 C 189.79 152.19 188.94 151.54 188.02 151.65 C 187.09 151.77 186.44 152.62 186.56 153.54 Z M 186.69 154.50 L 186.81 155.53 C 186.92 156.44 187.75 157.10 188.67 157.00 C 189.59 156.89 190.24 156.06 190.14 155.14 L 190.02 154.11 C 189.91 153.19 189.08 152.53 188.16 152.64 C 187.24 152.75 186.59 153.58 186.69 154.50 Z M 186.82 155.51 L 186.94 156.60 C 187.04 157.52 187.85 158.18 188.76 158.08 C 189.67 157.99 190.34 157.17 190.24 156.26 L 190.13 155.16 C 190.03 154.25 189.21 153.59 188.30 153.68 C 187.39 153.78 186.73 154.60 186.82 155.51 Z M 186.95 156.59 L 187.04 157.55 C 187.13 158.46 187.93 159.13 188.84 159.04 C 189.75 158.95 190.41 158.15 190.32 157.24 L 190.23 156.28 C 190.15 155.37 189.34 154.70 188.43 154.79 C 187.53 154.87 186.86 155.68 186.95 156.59 Z M 187.04 157.54 L 187.12 158.48 C 187.20 159.39 188.00 160.06 188.91 159.98 C 189.82 159.90 190.49 159.10 190.41 158.19 L 190.32 157.25 C 190.24 156.35 189.44 155.68 188.54 155.76 C 187.63 155.84 186.96 156.64 187.04 157.54 Z M 187.12 158.47 L 187.21 159.45 C 187.28 160.36 188.08 161.03 188.98 160.95 C 189.89 160.88 190.56 160.08 190.49 159.18 L 190.40 158.20 C 190.33 157.30 189.53 156.62 188.63 156.70 C 187.72 156.77 187.05 157.57 187.12 158.47 Z M 187.21 159.44 L 187.29 160.45 C 187.36 161.35 188.15 162.03 189.05 161.96 C 189.96 161.89 190.63 161.10 190.56 160.19 L 190.48 159.19 C 190.41 158.28 189.62 157.60 188.72 157.68 C 187.81 157.75 187.14 158.54 187.21 159.44 Z M 187.29 160.44 L 187.37 161.47 C 187.43 162.37 188.22 163.05 189.13 162.98 C 190.03 162.91 190.71 162.13 190.64 161.22 L 190.56 160.20 C 190.49 159.29 189.70 158.61 188.80 158.68 C 187.90 158.75 187.22 159.54 187.29 160.44 Z M 187.37 161.47 L 187.44 162.51 C 187.51 163.41 188.30 164.09 189.20 164.02 C 190.10 163.96 190.78 163.17 190.71 162.27 L 190.64 161.22 C 190.57 160.32 189.78 159.64 188.88 159.71 C 187.98 159.78 187.30 160.56 187.37 161.47 Z M 187.45 162.51 L 187.52 163.55 C 187.59 164.46 188.37 165.14 189.28 165.07 C 190.18 165.00 190.86 164.22 190.79 163.32 L 190.71 162.27 C 190.65 161.37 189.86 160.69 188.96 160.75 C 188.06 160.82 187.38 161.60 187.45 162.51 Z M 187.52 163.55 L 187.54 163.76 C 187.60 164.66 188.39 165.34 189.29 165.27 C 190.19 165.21 190.87 164.42 190.80 163.52 L 190.79 163.32 C 190.72 162.42 189.94 161.74 189.04 161.80 C 188.14 161.87 187.46 162.65 187.52 163.55 Z"
      fill="black"
      fill-rule="nonzero" /></svg>