<svg xmlns="http://www.w3.org/2000/svg" width="300" height="300" viewBox="0 0 300 300">
<path d="M 146.95 136.98 L 146.36 137.90 C 145.78 138.81 146.04 140.01 146.95 140.60 C 147.85 141.18 149.06 140.91 149.64 140.01 L 150.23 139.09 C 150.81 138.18 150.55 136.98 149.64 136.40 C 148.74 135.82 147.53 136.08 146.95 136.98 Z M 146.35 137.90 L 145.77 138.81 C 145.19 139.72 145.46 140.93 146.37 141.51 C 147.28 142.09 148.48 141.82 149.07 140.92 L 149.65 140.01 C 150.23 139.10 149.96 137.89 149.05 137.31 C 148.14 136.73 146.93 136.99 146.35 137.90 Z M 145.76 138.81 L 145.20 139.70 C 144.63 140.61 144.90 141.82 145.81 142.40 C 146.72 142.98 147.93 142.71 148.51 141.79 L 149.07 140.91 C 149.65 140.00 149.38 138.79 148.47 138.21 C 147.55 137.63 146.34 137.90 145.76 138.81 Z M 145.19 139.71 L 144.66 140.55 C 144.09 141.47 144.37 142.68 145.29 143.26 C 146.21 143.83 147.42 143.55 148.00 142.63 L 148.53 141.79 C 149.10 140.87 148.82 139.65 147.90 139.08 C 146.98 138.50 145.77 138.78 145.19 139.71 Z M 144.65 140.57 L 144.16 141.36 C 143.59 142.29 143.89 143.51 144.81 144.07 C 145.74 144.64 146.96 144.35 147.52 143.42 L 148.01 142.62 C 148.58 141.69 148.29 140.48 147.36 139.91 C 146.43 139.34 145.22 139.64 144.65 140.57 Z M 144.14 141.39 L 143.70 142.13 C 143.15 143.06 143.46 144.28 144.40 144.83 C 145.34 145.39 146.55 145.08 147.10 144.14 L 147.54 143.40 C 148.10 142.46 147.79 141.25 146.85 140.69 C 145.91 140.14 144.70 140.45 144.14 141.39 Z M 143.68 142.17 L 143.12 143.17 C 142.59 144.12 142.93 145.33 143.89 145.86 C 144.84 146.39 146.05 146.05 146.58 145.09 L 147.13 144.09 C 147.67 143.14 147.32 141.93 146.37 141.40 C 145.41 140.87 144.21 141.21 143.68 142.17 Z M 143.08 143.23 L 142.63 144.13 C 142.13 145.11 142.52 146.30 143.50 146.80 C 144.48 147.29 145.67 146.90 146.16 145.92 L 146.62 145.02 C 147.11 144.05 146.72 142.85 145.74 142.36 C 144.77 141.87 143.57 142.26 143.08 143.23 Z M 142.59 144.21 L 142.21 145.05 C 141.76 146.05 142.20 147.23 143.20 147.68 C 144.19 148.13 145.37 147.69 145.82 146.69 L 146.20 145.84 C 146.65 144.85 146.21 143.67 145.21 143.22 C 144.21 142.77 143.04 143.21 142.59 144.21 Z M 142.18 145.12 L 141.83 145.97 C 141.42 146.98 141.91 148.14 142.92 148.55 C 143.94 148.97 145.09 148.48 145.51 147.46 L 145.85 146.62 C 146.26 145.60 145.78 144.45 144.76 144.03 C 143.75 143.62 142.59 144.11 142.18 145.12 Z M 141.81 146.01 L 141.49 146.86 C 141.10 147.89 141.62 149.03 142.65 149.42 C 143.67 149.81 144.82 149.29 145.21 148.27 L 145.53 147.42 C 145.91 146.39 145.40 145.25 144.37 144.86 C 143.35 144.47 142.20 144.99 141.81 146.01 Z M 141.48 146.90 L 141.15 147.80 C 140.79 148.84 141.33 149.97 142.36 150.34 C 143.39 150.71 144.53 150.17 144.90 149.14 L 145.22 148.23 C 145.59 147.19 145.05 146.06 144.01 145.69 C 142.98 145.32 141.84 145.86 141.48 146.90 Z M 141.14 147.84 L 140.82 148.81 C 140.47 149.85 141.03 150.98 142.07 151.33 C 143.11 151.68 144.23 151.12 144.58 150.07 L 144.91 149.10 C 145.26 148.06 144.70 146.94 143.66 146.59 C 142.62 146.24 141.49 146.80 141.14 147.84 Z M 140.81 148.84 L 140.47 149.88 C 140.14 150.93 140.72 152.05 141.76 152.38 C 142.81 152.71 143.93 152.14 144.26 151.09 L 144.59 150.05 C 144.93 149.00 144.35 147.88 143.30 147.55 C 142.26 147.22 141.14 147.79 140.81 148.84 Z M 140.47 149.91 L 140.19 150.80 C 139.88 151.85 140.47 152.96 141.52 153.28 C 142.57 153.60 143.68 153.01 144.00 151.96 L 144.27 151.07 C 144.59 150.01 144.00 148.90 142.95 148.59 C 141.90 148.27 140.78 148.86 140.47 149.91 Z M 140.19 150.82 L 139.92 151.74 C 139.62 152.79 140.22 153.90 141.28 154.20 C 142.33 154.51 143.43 153.90 143.74 152.85 L 144.01 151.93 C 144.31 150.88 143.71 149.78 142.65 149.47 C 141.60 149.16 140.49 149.77 140.19 150.82 Z M 139.91 151.77 L 139.65 152.72 C 139.36 153.78 139.98 154.88 141.04 155.17 C 142.10 155.46 143.19 154.83 143.49 153.78 L 143.75 152.82 C 144.04 151.76 143.42 150.67 142.36 150.38 C 141.30 150.08 140.21 150.71 139.91 151.77 Z M 139.64 152.75 L 139.39 153.75 C 139.11 154.81 139.75 155.90 140.81 156.17 C 141.88 156.45 142.96 155.81 143.24 154.74 L 143.49 153.75 C 143.77 152.68 143.13 151.60 142.06 151.32 C 141.00 151.05 139.92 151.69 139.64 152.75 Z M 139.38 153.79 L 139.13 154.82 C 138.87 155.89 139.53 156.97 140.60 157.22 C 141.67 157.48 142.74 156.82 143.00 155.75 L 143.24 154.71 C 143.50 153.64 142.84 152.57 141.77 152.31 C 140.70 152.06 139.63 152.72 139.38 153.79 Z M 139.12 154.86 L 138.89 155.89 C 138.66 156.96 139.34 158.02 140.41 158.26 C 141.48 158.49 142.54 157.81 142.78 156.74 L 143.00 155.71 C 143.24 154.64 142.56 153.58 141.49 153.34 C 140.42 153.11 139.36 153.79 139.12 154.86 Z M 138.89 155.92 L 138.68 156.94 C 138.46 158.01 139.16 159.06 140.24 159.28 C 141.31 159.50 142.36 158.80 142.58 157.72 L 142.79 156.71 C 143.00 155.63 142.31 154.58 141.23 154.37 C 140.15 154.15 139.10 154.84 138.89 155.92 Z M 138.68 156.96 L 138.49 157.98 C 138.28 159.06 138.99 160.10 140.07 160.30 C 141.15 160.51 142.19 159.79 142.40 158.71 L 142.59 157.70 C 142.79 156.62 142.08 155.58 141.00 155.37 C 139.92 155.17 138.88 155.88 138.68 156.96 Z M 138.48 158.01 L 138.31 159.01 C 138.12 160.09 138.84 161.12 139.92 161.31 C 141.01 161.50 142.04 160.78 142.23 159.69 L 142.40 158.69 C 142.59 157.61 141.86 156.58 140.78 156.39 C 139.70 156.20 138.67 156.92 138.48 158.01 Z M 138.30 159.03 L 138.14 160.00 C 137.97 161.09 138.70 162.11 139.79 162.29 C 140.87 162.46 141.89 161.73 142.07 160.64 L 142.23 159.67 C 142.41 158.59 141.67 157.56 140.59 157.39 C 139.50 157.21 138.48 157.95 138.30 159.03 Z M 138.14 160.02 L 138.00 160.94 C 137.84 162.03 138.58 163.04 139.67 163.21 C 140.76 163.37 141.77 162.63 141.93 161.54 L 142.07 160.62 C 142.24 159.53 141.49 158.52 140.41 158.36 C 139.32 158.19 138.31 158.94 138.14 160.02 Z M 138.00 160.97 L 137.85 162.04 C 137.70 163.13 138.45 164.13 139.54 164.29 C 140.63 164.44 141.64 163.68 141.79 162.59 L 141.94 161.52 C 142.09 160.43 141.33 159.42 140.24 159.27 C 139.15 159.12 138.15 159.88 138.00 160.97 Z M 137.84 162.07 L 137.71 163.09 C 137.58 164.18 138.35 165.18 139.44 165.31 C 140.53 165.45 141.53 164.68 141.66 163.59 L 141.79 162.56 C 141.93 161.47 141.16 160.48 140.07 160.34 C 138.98 160.20 137.98 160.98 137.84 162.07 Z M 137.71 163.12 L 137.60 164.08 C 137.48 165.17 138.27 166.15 139.36 166.28 C 140.45 166.40 141.44 165.61 141.56 164.52 L 141.67 163.56 C 141.79 162.47 141.01 161.48 139.91 161.36 C 138.82 161.24 137.83 162.02 137.71 163.12 Z M 137.60 164.09 L 137.50 165.02 C 137.39 166.12 138.19 167.10 139.28 167.21 C 140.37 167.32 141.35 166.53 141.47 165.43 L 141.56 164.50 C 141.68 163.41 140.88 162.43 139.79 162.32 C 138.69 162.20 137.71 163.00 137.60 164.09 Z M 137.50 165.03 L 137.41 165.98 C 137.30 167.08 138.10 168.05 139.20 168.16 C 140.29 168.27 141.27 167.47 141.37 166.37 L 141.47 165.42 C 141.58 164.33 140.77 163.35 139.68 163.25 C 138.59 163.14 137.61 163.94 137.50 165.03 Z M 137.41 165.99 L 137.31 166.97 C 137.21 168.07 138.02 169.04 139.11 169.15 C 140.21 169.25 141.18 168.44 141.28 167.35 L 141.38 166.36 C 141.48 165.27 140.67 164.30 139.58 164.19 C 138.48 164.09 137.51 164.89 137.41 165.99 Z M 137.31 166.99 L 137.23 167.99 C 137.13 169.08 137.94 170.05 139.04 170.15 C 140.13 170.24 141.10 169.43 141.20 168.33 L 141.28 167.34 C 141.38 166.24 140.57 165.27 139.47 165.18 C 138.38 165.08 137.41 165.89 137.31 166.99 Z M 137.22 168.01 L 137.15 169.01 C 137.06 170.11 137.88 171.07 138.98 171.16 C 140.08 171.24 141.03 170.42 141.12 169.32 L 141.20 168.32 C 141.28 167.22 140.46 166.26 139.37 166.17 C 138.27 166.09 137.31 166.91 137.22 168.01 Z M 137.14 169.04 L 137.08 170.04 C 137.01 171.14 137.84 172.09 138.94 172.16 C 140.04 172.23 140.98 171.40 141.06 170.30 L 141.12 169.30 C 141.19 168.20 140.36 167.25 139.26 167.18 C 138.16 167.11 137.22 167.94 137.14 169.04 Z M 137.08 170.07 L 137.03 171.05 C 136.97 172.15 137.81 173.09 138.91 173.14 C 140.01 173.20 140.95 172.35 141.01 171.26 L 141.06 170.27 C 141.12 169.17 140.27 168.24 139.17 168.18 C 138.07 168.12 137.13 168.97 137.08 170.07 Z M 137.02 171.07 L 136.98 172.06 C 136.94 173.16 137.79 174.09 138.89 174.13 C 139.99 174.18 140.92 173.32 140.97 172.22 L 141.01 171.23 C 141.05 170.13 140.20 169.21 139.10 169.16 C 138.00 169.11 137.07 169.97 137.02 171.07 Z M 136.98 172.07 L 136.95 173.08 C 136.91 174.18 137.77 175.10 138.87 175.14 C 139.97 175.18 140.90 174.31 140.93 173.21 L 140.97 172.21 C 141.01 171.11 140.14 170.19 139.04 170.15 C 137.94 170.11 137.02 170.97 136.98 172.07 Z M 136.95 173.08 L 136.92 174.11 C 136.88 175.21 137.75 176.13 138.85 176.16 C 139.95 176.20 140.87 175.33 140.90 174.23 L 140.93 173.21 C 140.97 172.11 140.10 171.19 139.00 171.15 C 137.90 171.12 136.98 171.98 136.95 173.08 Z M 136.92 174.11 L 136.89 175.12 C 136.86 176.22 137.72 177.13 138.82 177.17 C 139.92 177.20 140.84 176.33 140.87 175.23 L 140.90 174.23 C 140.93 173.13 140.07 172.21 138.97 172.18 C 137.87 172.15 136.95 173.01 136.92 174.11 Z M 136.89 175.12 L 136.86 176.13 C 136.83 177.23 137.70 178.15 138.80 178.18 C 139.90 178.21 140.82 177.34 140.85 176.24 L 140.87 175.23 C 140.90 174.13 140.04 173.21 138.93 173.18 C 137.83 173.15 136.92 174.02 136.89 175.12 Z M 136.86 176.14 L 136.83 177.15 C 136.81 178.25 137.68 179.16 138.78 179.19 C 139.88 179.22 140.79 178.34 140.82 177.24 L 140.85 176.23 C 140.87 175.13 140.00 174.22 138.90 174.19 C 137.80 174.16 136.89 175.04 136.86 176.14 Z M 136.83 177.15 L 136.81 178.15 C 136.79 179.25 137.66 180.16 138.77 180.18 C 139.87 180.20 140.78 179.33 140.80 178.23 L 140.82 177.24 C 140.84 176.14 139.97 175.22 138.87 175.20 C 137.77 175.18 136.86 176.05 136.83 177.15 Z M 136.81 178.16 L 136.80 179.17 C 136.78 180.27 137.66 181.17 138.76 181.19 C 139.86 181.21 140.77 180.33 140.79 179.23 L 140.80 178.22 C 140.82 177.12 139.94 176.21 138.84 176.19 C 137.74 176.18 136.83 177.06 136.81 178.16 Z M 136.80 179.18 L 136.79 180.21 C 136.78 181.31 137.66 182.21 138.76 182.22 C 139.86 182.23 140.77 181.35 140.78 180.25 L 140.79 179.22 C 140.80 178.11 139.91 177.21 138.81 177.20 C 137.71 177.19 136.81 178.08 136.80 179.18 Z M 136.79 180.22 L 136.78 181.22 C 136.78 182.32 137.67 183.21 138.77 183.22 C 139.87 183.22 140.77 182.34 140.77 181.23 L 140.78 180.24 C 140.78 179.14 139.89 178.24 138.79 178.23 C 137.69 178.23 136.79 179.12 136.79 180.22 Z M 136.78 181.22 L 136.78 182.20 C 136.78 183.30 137.67 184.19 138.77 184.19 C 139.87 184.19 140.77 183.30 140.77 182.20 L 140.77 181.23 C 140.77 180.13 139.88 179.23 138.78 179.23 C 137.68 179.23 136.78 180.12 136.78 181.22 Z M 136.78 182.20 L 136.78 183.18 C 136.78 184.28 137.67 185.17 138.78 185.17 C 139.88 185.17 140.77 184.28 140.77 183.18 L 140.77 182.20 C 140.77 181.10 139.88 180.20 138.78 180.20 C 137.67 180.20 136.78 181.10 136.78 182.20 Z M 136.78 183.18 L 136.78 184.19 C 136.79 185.29 137.68 186.18 138.78 186.18 C 139.88 186.18 140.77 185.28 140.77 184.18 L 140.77 183.17 C 140.77 182.07 139.87 181.18 138.77 181.18 C 137.67 181.18 136.78 182.08 136.78 183.18 Z M 136.78 184.20 L 136.79 185.20 C 136.80 186.30 137.70 187.19 138.80 187.18 C 139.90 187.17 140.79 186.27 140.78 185.17 L 140.77 184.17 C 140.76 183.07 139.86 182.18 138.76 182.19 C 137.66 182.20 136.78 183.10 136.78 184.20 Z M 136.79 185.22 L 136.81 186.22 C 136.83 187.32 137.74 188.19 138.84 188.17 C 139.94 188.15 140.82 187.24 140.80 186.14 L 140.78 185.15 C 140.76 184.05 139.85 183.17 138.75 183.19 C 137.65 183.22 136.77 184.12 136.79 185.22 Z M 136.81 186.25 L 136.85 187.25 C 136.89 188.35 137.81 189.21 138.91 189.17 C 140.01 189.13 140.87 188.21 140.83 187.11 L 140.79 186.11 C 140.76 185.01 139.83 184.15 138.73 184.19 C 137.64 184.23 136.77 185.15 136.81 186.25 Z M 136.85 187.29 L 136.91 188.30 C 136.97 189.40 137.91 190.24 139.01 190.18 C 140.11 190.11 140.95 189.17 140.88 188.08 L 140.83 187.07 C 140.76 185.97 139.82 185.13 138.73 185.19 C 137.63 185.25 136.79 186.19 136.85 187.29 Z M 136.91 188.36 L 137.00 189.35 C 137.09 190.45 138.05 191.26 139.15 191.17 C 140.24 191.07 141.05 190.11 140.96 189.02 L 140.88 188.02 C 140.79 186.93 139.82 186.11 138.73 186.21 C 137.63 186.30 136.82 187.26 136.91 188.36 Z M 137.01 189.42 L 137.12 190.40 C 137.25 191.49 138.24 192.27 139.33 192.14 C 140.42 192.01 141.20 191.02 141.07 189.93 L 140.95 188.95 C 140.82 187.86 139.84 187.08 138.75 187.21 C 137.66 187.34 136.88 188.33 137.01 189.42 Z M 137.14 190.48 L 137.29 191.47 C 137.47 192.55 138.48 193.29 139.57 193.12 C 140.65 192.94 141.39 191.93 141.21 190.84 L 141.06 189.85 C 140.88 188.77 139.87 188.03 138.78 188.20 C 137.70 188.38 136.96 189.39 137.14 190.48 Z M 137.31 191.55 L 137.51 192.53 C 137.72 193.60 138.77 194.30 139.84 194.08 C 140.91 193.87 141.61 192.82 141.40 191.75 L 141.20 190.77 C 140.98 189.69 139.94 189.00 138.86 189.21 C 137.79 189.43 137.10 190.47 137.31 191.55 Z M 137.53 192.60 L 137.76 193.56 C 138.01 194.63 139.07 195.29 140.14 195.03 C 141.20 194.78 141.86 193.72 141.61 192.65 L 141.38 191.68 C 141.13 190.62 140.06 189.96 139.00 190.21 C 137.93 190.47 137.27 191.53 137.53 192.60 Z M 137.77 193.62 L 138.03 194.57 C 138.31 195.63 139.39 196.25 140.44 195.97 C 141.50 195.69 142.12 194.61 141.84 193.55 L 141.59 192.60 C 141.31 191.55 140.23 190.92 139.17 191.20 C 138.12 191.48 137.49 192.56 137.77 193.62 Z M 138.04 194.61 L 138.32 195.56 C 138.62 196.60 139.71 197.21 140.76 196.90 C 141.80 196.60 142.40 195.51 142.10 194.46 L 141.83 193.52 C 141.53 192.47 140.43 191.87 139.39 192.17 C 138.34 192.47 137.74 193.57 138.04 194.61 Z M 138.33 195.58 L 138.62 196.53 C 138.93 197.57 140.03 198.16 141.07 197.84 C 142.11 197.53 142.69 196.43 142.38 195.39 L 142.09 194.44 C 141.77 193.40 140.68 192.82 139.64 193.13 C 138.60 193.45 138.02 194.54 138.33 195.58 Z M 138.63 196.54 L 138.92 197.50 C 139.24 198.54 140.33 199.12 141.37 198.80 C 142.40 198.49 142.98 197.39 142.67 196.36 L 142.37 195.39 C 142.05 194.36 140.96 193.77 139.92 194.09 C 138.89 194.41 138.31 195.50 138.63 196.54 Z M 138.93 197.49 L 139.20 198.40 C 139.51 199.43 140.60 200.02 141.63 199.71 C 142.66 199.40 143.25 198.31 142.94 197.28 L 142.66 196.37 C 142.35 195.34 141.26 194.75 140.23 195.06 C 139.20 195.37 138.62 196.46 138.93 197.49 Z M 139.21 198.40 L 139.48 199.30 C 139.79 200.32 140.87 200.91 141.90 200.60 C 142.93 200.29 143.51 199.21 143.20 198.18 L 142.93 197.28 C 142.62 196.25 141.53 195.67 140.51 195.98 C 139.48 196.29 138.90 197.37 139.21 198.40 Z M 139.50 199.31 L 139.79 200.26 C 140.11 201.28 141.19 201.85 142.21 201.53 C 143.23 201.21 143.80 200.13 143.48 199.11 L 143.18 198.16 C 142.86 197.14 141.78 196.58 140.76 196.89 C 139.74 197.21 139.18 198.30 139.50 199.31 Z M 139.81 200.29 L 140.15 201.31 C 140.49 202.32 141.57 202.86 142.58 202.52 C 143.59 202.19 144.13 201.10 143.80 200.09 L 143.46 199.08 C 143.12 198.07 142.03 197.53 141.03 197.86 C 140.02 198.20 139.48 199.29 139.81 200.29 Z M 140.17 201.35 L 140.51 202.30 C 140.87 203.29 141.96 203.81 142.96 203.45 C 143.95 203.10 144.47 202.00 144.11 201.01 L 143.77 200.06 C 143.42 199.06 142.32 198.54 141.33 198.90 C 140.33 199.26 139.82 200.35 140.17 201.35 Z M 140.53 202.33 L 140.87 203.22 C 141.25 204.21 142.35 204.70 143.33 204.33 C 144.31 203.95 144.81 202.85 144.43 201.87 L 144.09 200.98 C 143.72 199.99 142.62 199.50 141.64 199.87 C 140.65 200.25 140.16 201.35 140.53 202.33 Z M 140.89 203.25 L 141.26 204.18 C 141.65 205.15 142.75 205.63 143.72 205.24 C 144.70 204.85 145.17 203.75 144.79 202.78 L 144.42 201.85 C 144.03 200.87 142.93 200.40 141.95 200.79 C 140.98 201.17 140.50 202.27 140.89 203.25 Z M 141.28 204.20 L 141.67 205.14 C 142.07 206.11 143.17 206.57 144.13 206.17 C 145.10 205.77 145.56 204.67 145.16 203.70 L 144.77 202.76 C 144.37 201.79 143.27 201.33 142.30 201.73 C 141.34 202.13 140.88 203.23 141.28 204.20 Z M 141.68 205.16 L 142.09 206.12 C 142.50 207.07 143.60 207.52 144.56 207.11 C 145.51 206.70 145.96 205.60 145.55 204.64 L 145.15 203.69 C 144.74 202.73 143.63 202.29 142.68 202.69 C 141.72 203.10 141.28 204.21 141.68 205.16 Z M 142.11 206.13 L 142.52 207.08 C 142.94 208.02 144.04 208.46 144.99 208.04 C 145.93 207.63 146.36 206.52 145.95 205.58 L 145.54 204.63 C 145.12 203.68 144.02 203.25 143.07 203.67 C 142.12 204.08 141.69 205.18 142.11 206.13 Z M 142.54 207.09 L 142.96 208.02 C 143.38 208.95 144.48 209.37 145.41 208.95 C 146.35 208.53 146.77 207.43 146.35 206.49 L 145.93 205.57 C 145.51 204.63 144.41 204.21 143.47 204.63 C 142.54 205.06 142.12 206.15 142.54 207.09 Z M 142.99 208.03 L 143.41 208.94 C 143.84 209.86 144.93 210.26 145.85 209.83 C 146.77 209.40 147.17 208.31 146.74 207.39 L 146.32 206.48 C 145.89 205.56 144.80 205.16 143.88 205.59 C 142.96 206.02 142.56 207.11 142.99 208.03 Z M 143.44 208.96 L 143.87 209.85 C 144.31 210.76 145.40 211.14 146.30 210.70 C 147.20 210.27 147.58 209.18 147.15 208.28 L 146.71 207.38 C 146.28 206.47 145.19 206.09 144.29 206.53 C 143.38 206.97 143.01 208.05 143.44 208.96 Z M 143.90 209.87 L 144.35 210.76 C 144.79 211.64 145.87 212.00 146.76 211.55 C 147.65 211.11 148.00 210.03 147.56 209.14 L 147.12 208.26 C 146.67 207.37 145.59 207.01 144.70 207.46 C 143.82 207.90 143.46 208.98 143.90 209.87 Z M 144.38 210.77 L 144.84 211.64 C 145.29 212.51 146.37 212.85 147.24 212.39 C 148.10 211.94 148.44 210.86 147.98 209.99 L 147.53 209.12 C 147.07 208.26 146.00 207.92 145.13 208.38 C 144.26 208.83 143.93 209.91 144.38 210.77 Z M 144.87 211.67 L 145.35 212.54 C 145.82 213.39 146.89 213.70 147.74 213.23 C 148.59 212.76 148.90 211.69 148.43 210.84 L 147.95 209.97 C 147.48 209.12 146.41 208.81 145.56 209.28 C 144.71 209.75 144.40 210.82 144.87 211.67 Z M 145.40 212.58 L 145.90 213.43 C 146.39 214.26 147.46 214.53 148.28 214.04 C 149.11 213.56 149.38 212.49 148.90 211.66 L 148.39 210.81 C 147.90 209.98 146.83 209.71 146.01 210.20 C 145.18 210.68 144.91 211.75 145.40 212.58 Z M 145.95 213.48 L 146.49 214.32 C 147.01 215.12 148.07 215.34 148.87 214.83 C 149.67 214.31 149.90 213.25 149.38 212.45 L 148.84 211.61 C 148.33 210.81 147.26 210.59 146.46 211.10 C 145.67 211.62 145.44 212.68 145.95 213.48 Z M 146.56 214.38 L 147.14 215.19 C 147.69 215.95 148.75 216.13 149.52 215.58 C 150.28 215.03 150.45 213.96 149.90 213.20 L 149.32 212.39 C 148.77 211.62 147.71 211.45 146.94 212.00 C 146.18 212.55 146.01 213.61 146.56 214.38 Z M 147.21 215.25 L 147.85 216.04 C 148.43 216.76 149.50 216.88 150.22 216.29 C 150.94 215.70 151.05 214.64 150.47 213.92 L 149.83 213.13 C 149.25 212.41 148.18 212.30 147.46 212.88 C 146.74 213.47 146.63 214.53 147.21 215.25 Z M 147.93 216.11 L 148.58 216.83 C 149.21 217.51 150.27 217.56 150.95 216.93 C 151.63 216.31 151.67 215.25 151.05 214.57 L 150.39 213.85 C 149.77 213.17 148.71 213.12 148.03 213.75 C 147.35 214.37 147.30 215.43 147.93 216.11 Z M 148.65 216.89 L 149.35 217.57 C 150.01 218.22 151.06 218.21 151.70 217.56 C 152.35 216.90 152.34 215.85 151.69 215.20 L 150.98 214.51 C 150.33 213.87 149.28 213.88 148.63 214.53 C 147.99 215.19 147.99 216.24 148.65 216.89 Z M 149.40 217.61 L 150.14 218.29 C 150.82 218.90 151.87 218.85 152.48 218.18 C 153.10 217.50 153.05 216.45 152.37 215.83 L 151.63 215.16 C 150.96 214.55 149.91 214.60 149.29 215.27 C 148.68 215.95 148.72 217.00 149.40 217.61 Z M 150.18 218.31 L 150.94 218.97 C 151.64 219.57 152.68 219.49 153.27 218.80 C 153.87 218.11 153.79 217.06 153.10 216.47 L 152.33 215.81 C 151.64 215.21 150.60 215.29 150.00 215.98 C 149.41 216.67 149.49 217.72 150.18 218.31 Z M 150.97 218.98 L 151.75 219.64 C 152.45 220.22 153.49 220.12 154.07 219.42 C 154.65 218.72 154.56 217.69 153.86 217.11 L 153.07 216.45 C 152.38 215.87 151.34 215.97 150.76 216.67 C 150.18 217.37 150.27 218.40 150.97 218.98 Z M 151.77 219.64 L 152.32 220.10 C 153.02 220.67 154.06 220.57 154.63 219.87 C 155.21 219.17 155.10 218.13 154.40 217.56 L 153.85 217.10 C 153.14 216.53 152.11 216.63 151.54 217.33 C 150.96 218.03 151.07 219.06 151.77 219.64 Z"
      fill="black"
      fill-rule="nonzero" /></svg>