<svg xmlns="http://www.w3.org/2000/svg" width="300" height="300" viewBox="0 0 300 300">
<path d="M 67.03 75.51 L 67.64 76.29 C 68.28 77.10 69.44 77.24 70.25 76.61 C 71.06 75.97 71.20 74.80 70.57 74.00 L 69.95 73.21 C 69.31 72.40 68.15 72.26 67.34 72.90 C 66.53 73.53 66.39 74.70 67.03 75.51 Z M 67.66 76.31 L 68.28 77.09 C 68.92 77.89 70.09 78.01 70.89 77.37 C 71.69 76.73 71.82 75.56 71.18 74.76 L 70.55 73.98 C 69.91 73.18 68.74 73.05 67.94 73.70 C 67.14 74.34 67.01 75.51 67.66 76.31 Z M 68.31 77.12 L 68.95 77.89 C 69.61 78.67 70.79 78.77 71.57 78.11 C 72.36 77.45 72.46 76.28 71.80 75.49 L 71.15 74.72 C 70.49 73.94 69.32 73.84 68.53 74.50 C 67.75 75.16 67.65 76.33 68.31 77.12 Z M 68.99 77.93 L 69.66 78.68 C 70.35 79.44 71.53 79.50 72.29 78.81 C 73.06 78.13 73.12 76.95 72.43 76.19 L 71.76 75.44 C 71.07 74.68 69.89 74.62 69.13 75.31 C 68.36 75.99 68.30 77.17 68.99 77.93 Z M 69.72 78.74 L 70.43 79.46 C 71.15 80.19 72.33 80.20 73.06 79.48 C 73.79 78.76 73.80 77.58 73.08 76.85 L 72.37 76.13 C 71.65 75.39 70.47 75.38 69.74 76.10 C 69.01 76.83 69.00 78.01 69.72 78.74 Z M 70.49 79.52 L 71.23 80.21 C 71.98 80.91 73.16 80.86 73.86 80.10 C 74.56 79.35 74.52 78.17 73.76 77.47 L 73.02 76.78 C 72.26 76.08 71.08 76.13 70.38 76.89 C 69.68 77.64 69.73 78.82 70.49 79.52 Z M 71.30 80.27 L 72.06 80.91 C 72.85 81.57 74.03 81.46 74.70 80.67 C 75.36 79.88 75.25 78.70 74.46 78.04 L 73.69 77.40 C 72.90 76.74 71.72 76.85 71.06 77.64 C 70.39 78.43 70.50 79.61 71.30 80.27 Z M 72.14 80.98 L 72.94 81.57 C 73.77 82.18 74.95 82.01 75.56 81.18 C 76.18 80.34 76.00 79.17 75.17 78.56 L 74.37 77.97 C 73.54 77.35 72.37 77.53 71.75 78.36 C 71.14 79.19 71.31 80.37 72.14 80.98 Z M 73.04 81.64 L 73.88 82.19 C 74.75 82.75 75.91 82.50 76.48 81.63 C 77.04 80.76 76.79 79.60 75.92 79.04 L 75.08 78.49 C 74.21 77.93 73.05 78.17 72.48 79.04 C 71.92 79.91 72.17 81.07 73.04 81.64 Z M 73.97 82.24 L 74.83 82.74 C 75.73 83.25 76.88 82.94 77.39 82.05 C 77.91 81.15 77.60 80.00 76.70 79.48 L 75.84 78.99 C 74.94 78.47 73.79 78.78 73.28 79.68 C 72.76 80.57 73.07 81.72 73.97 82.24 Z M 74.90 82.77 L 75.78 83.23 C 76.69 83.71 77.83 83.36 78.31 82.44 C 78.79 81.52 78.43 80.39 77.51 79.91 L 76.64 79.45 C 75.72 78.97 74.58 79.32 74.10 80.24 C 73.62 81.16 73.98 82.29 74.90 82.77 Z M 75.82 83.26 L 76.71 83.69 C 77.64 84.14 78.76 83.75 79.22 82.82 C 79.67 81.89 79.28 80.76 78.35 80.31 L 77.47 79.88 C 76.53 79.43 75.41 79.82 74.96 80.75 C 74.50 81.68 74.89 82.80 75.82 83.26 Z M 76.76 83.71 L 77.65 84.11 C 78.60 84.54 79.71 84.12 80.14 83.17 C 80.56 82.23 80.14 81.12 79.20 80.69 L 78.30 80.29 C 77.35 79.86 76.24 80.28 75.82 81.23 C 75.39 82.17 75.81 83.29 76.76 83.71 Z M 77.73 84.15 L 78.65 84.52 C 79.62 84.90 80.71 84.44 81.10 83.47 C 81.48 82.51 81.01 81.42 80.05 81.03 L 79.12 80.66 C 78.16 80.27 77.07 80.74 76.68 81.70 C 76.30 82.67 76.76 83.76 77.73 84.15 Z M 78.74 84.55 L 79.72 84.88 C 80.70 85.22 81.77 84.69 82.10 83.71 C 82.44 82.73 81.91 81.66 80.93 81.33 L 79.96 81.00 C 78.98 80.66 77.91 81.18 77.57 82.17 C 77.24 83.15 77.76 84.22 78.74 84.55 Z M 79.81 84.91 L 80.72 85.17 C 81.72 85.45 82.76 84.87 83.04 83.87 C 83.32 82.87 82.74 81.83 81.74 81.55 L 80.83 81.30 C 79.83 81.02 78.80 81.60 78.51 82.60 C 78.23 83.59 78.81 84.63 79.81 84.91 Z M 80.81 85.19 L 81.75 85.41 C 82.76 85.64 83.77 85.01 84.00 84.00 C 84.23 82.99 83.60 81.98 82.59 81.75 L 81.65 81.53 C 80.64 81.30 79.63 81.93 79.40 82.94 C 79.16 83.95 79.79 84.96 80.81 85.19 Z M 81.82 85.42 L 82.81 85.61 C 83.83 85.80 84.81 85.13 85.01 84.12 C 85.20 83.10 84.53 82.11 83.51 81.92 L 82.52 81.73 C 81.50 81.54 80.52 82.21 80.32 83.23 C 80.13 84.25 80.80 85.23 81.82 85.42 Z M 82.87 85.62 L 83.92 85.78 C 84.95 85.94 85.90 85.24 86.06 84.21 C 86.22 83.19 85.52 82.23 84.49 82.07 L 83.45 81.91 C 82.42 81.75 81.46 82.46 81.30 83.48 C 81.15 84.51 81.85 85.47 82.87 85.62 Z M 83.97 85.79 L 85.00 85.92 C 86.03 86.05 86.97 85.32 87.10 84.29 C 87.22 83.26 86.49 82.32 85.47 82.19 L 84.44 82.06 C 83.41 81.93 82.47 82.66 82.34 83.69 C 82.21 84.72 82.94 85.66 83.97 85.79 Z M 85.04 85.92 L 86.06 86.03 C 87.09 86.14 88.01 85.39 88.12 84.36 C 88.23 83.32 87.48 82.40 86.44 82.29 L 85.43 82.19 C 84.39 82.08 83.47 82.83 83.36 83.86 C 83.26 84.89 84.01 85.82 85.04 85.92 Z M 86.09 86.03 L 87.11 86.12 C 88.14 86.21 89.05 85.44 89.14 84.41 C 89.23 83.38 88.47 82.47 87.43 82.38 L 86.41 82.29 C 85.38 82.20 84.47 82.97 84.38 84.00 C 84.29 85.03 85.05 85.94 86.09 86.03 Z M 87.14 86.12 L 88.14 86.19 C 89.17 86.27 90.07 85.49 90.15 84.45 C 90.22 83.42 89.44 82.52 88.40 82.45 L 87.40 82.38 C 86.37 82.30 85.47 83.08 85.40 84.12 C 85.33 85.15 86.11 86.05 87.14 86.12 Z M 88.17 86.20 L 89.12 86.25 C 90.15 86.30 91.04 85.51 91.10 84.47 C 91.15 83.44 90.36 82.55 89.33 82.50 L 88.37 82.44 C 87.34 82.39 86.45 83.18 86.40 84.22 C 86.34 85.25 87.13 86.14 88.17 86.20 Z M 89.15 86.25 L 90.23 86.29 C 91.27 86.33 92.14 85.52 92.18 84.48 C 92.22 83.45 91.41 82.57 90.38 82.54 L 89.29 82.49 C 88.26 82.46 87.38 83.26 87.34 84.30 C 87.31 85.34 88.11 86.21 89.15 86.25 Z M 90.27 86.29 L 91.28 86.31 C 92.31 86.33 93.17 85.51 93.19 84.47 C 93.21 83.43 92.39 82.58 91.35 82.56 L 90.34 82.54 C 89.31 82.51 88.45 83.34 88.43 84.37 C 88.41 85.41 89.23 86.27 90.27 86.29 Z M 91.30 86.31 L 92.26 86.32 C 93.29 86.32 94.14 85.49 94.15 84.45 C 94.15 83.42 93.32 82.57 92.28 82.56 L 91.33 82.56 C 90.29 82.55 89.44 83.38 89.44 84.42 C 89.43 85.46 90.26 86.30 91.30 86.31 Z M 92.27 86.32 L 93.21 86.32 C 94.25 86.32 95.09 85.48 95.09 84.44 C 95.09 83.41 94.25 82.57 93.21 82.57 L 92.27 82.56 C 91.23 82.56 90.39 83.40 90.39 84.44 C 90.39 85.47 91.23 86.32 92.27 86.32 Z M 93.22 86.32 L 94.20 86.31 C 95.24 86.31 96.07 85.46 96.07 84.43 C 96.06 83.39 95.22 82.56 94.18 82.56 L 93.20 82.57 C 92.17 82.57 91.33 83.41 91.34 84.45 C 91.34 85.48 92.18 86.32 93.22 86.32 Z M 94.24 86.31 L 95.23 86.28 C 96.27 86.26 97.09 85.40 97.06 84.37 C 97.04 83.33 96.18 82.51 95.14 82.54 L 94.15 82.56 C 93.11 82.59 92.29 83.45 92.32 84.48 C 92.34 85.52 93.20 86.33 94.24 86.31 Z M 95.30 86.28 L 96.31 86.22 C 97.34 86.16 98.13 85.27 98.07 84.24 C 98.01 83.21 97.12 82.42 96.09 82.48 L 95.07 82.54 C 94.04 82.61 93.26 83.49 93.32 84.53 C 93.38 85.56 94.27 86.34 95.30 86.28 Z M 96.40 86.21 L 97.37 86.11 C 98.39 85.99 99.14 85.07 99.02 84.04 C 98.91 83.01 97.99 82.27 96.96 82.39 L 96.00 82.49 C 94.97 82.60 94.23 83.53 94.34 84.55 C 94.45 85.58 95.38 86.32 96.40 86.21 Z M 97.46 86.09 L 98.40 85.94 C 99.42 85.77 100.11 84.81 99.94 83.79 C 99.78 82.77 98.82 82.08 97.80 82.25 L 96.86 82.40 C 95.84 82.56 95.15 83.53 95.32 84.55 C 95.48 85.57 96.44 86.26 97.46 86.09 Z M 98.49 85.92 L 99.46 85.71 C 100.47 85.49 101.11 84.50 100.89 83.49 C 100.68 82.48 99.68 81.84 98.67 82.06 L 97.70 82.27 C 96.69 82.48 96.05 83.48 96.27 84.49 C 96.49 85.50 97.48 86.14 98.49 85.92 Z M 99.55 85.69 L 100.57 85.42 C 101.56 85.15 102.15 84.13 101.89 83.13 C 101.62 82.13 100.59 81.54 99.60 81.81 L 98.58 82.08 C 97.59 82.35 96.99 83.37 97.26 84.37 C 97.53 85.37 98.55 85.96 99.55 85.69 Z M 100.64 85.40 L 101.56 85.11 C 102.55 84.80 103.10 83.75 102.79 82.76 C 102.48 81.78 101.43 81.23 100.44 81.54 L 99.52 81.83 C 98.54 82.14 97.99 83.19 98.30 84.17 C 98.61 85.16 99.66 85.70 100.64 85.40 Z M 101.62 85.09 L 102.43 84.80 C 103.41 84.46 103.92 83.39 103.58 82.42 C 103.23 81.45 102.17 80.93 101.19 81.28 L 100.38 81.56 C 99.41 81.90 98.90 82.97 99.24 83.94 C 99.58 84.91 100.65 85.43 101.62 85.09 Z M 102.48 84.78 L 103.34 84.46 C 104.30 84.09 104.79 83.01 104.42 82.04 C 104.05 81.08 102.97 80.60 102.01 80.96 L 101.15 81.29 C 100.18 81.66 99.70 82.74 100.07 83.70 C 100.44 84.67 101.51 85.15 102.48 84.78 Z M 103.38 84.44 L 104.30 84.06 C 105.25 83.67 105.71 82.58 105.32 81.63 C 104.93 80.67 103.84 80.22 102.89 80.61 L 101.97 80.98 C 101.01 81.37 100.55 82.46 100.94 83.42 C 101.33 84.37 102.42 84.83 103.38 84.44 Z M 104.33 84.05 L 105.33 83.62 C 106.27 83.21 106.71 82.12 106.30 81.17 C 105.90 80.22 104.80 79.78 103.85 80.19 L 102.86 80.62 C 101.91 81.03 101.47 82.13 101.88 83.07 C 102.29 84.02 103.38 84.46 104.33 84.05 Z M 105.35 83.61 L 106.43 83.13 C 107.37 82.70 107.79 81.60 107.37 80.66 C 106.95 79.72 105.85 79.30 104.91 79.72 L 103.83 80.20 C 102.88 80.63 102.46 81.73 102.89 82.67 C 103.31 83.61 104.41 84.03 105.35 83.61 Z M 106.45 83.12 L 107.38 82.69 C 108.32 82.25 108.73 81.15 108.29 80.21 C 107.86 79.27 106.75 78.87 105.82 79.30 L 104.89 79.73 C 103.95 80.16 103.54 81.27 103.98 82.21 C 104.41 83.14 105.52 83.55 106.45 83.12 Z M 107.39 82.68 L 108.31 82.25 C 109.24 81.81 109.65 80.70 109.21 79.77 C 108.77 78.83 107.66 78.43 106.72 78.87 L 105.81 79.30 C 104.87 79.74 104.47 80.85 104.91 81.79 C 105.35 82.72 106.46 83.12 107.39 82.68 Z M 108.32 82.25 L 109.26 81.80 C 110.19 81.36 110.59 80.25 110.15 79.31 C 109.70 78.38 108.59 77.99 107.66 78.43 L 106.72 78.88 C 105.79 79.32 105.39 80.43 105.83 81.36 C 106.27 82.29 107.39 82.69 108.32 82.25 Z M 109.26 81.80 L 110.21 81.35 C 111.14 80.90 111.54 79.79 111.09 78.86 C 110.65 77.93 109.54 77.54 108.61 77.98 L 107.66 78.43 C 106.73 78.87 106.33 79.99 106.78 80.92 C 107.22 81.85 108.33 82.24 109.26 81.80 Z M 110.21 81.35 L 111.15 80.90 C 112.08 80.46 112.47 79.35 112.03 78.42 C 111.59 77.49 110.48 77.09 109.55 77.53 L 108.61 77.98 C 107.68 78.42 107.28 79.53 107.73 80.46 C 108.17 81.39 109.28 81.79 110.21 81.35 Z M 111.14 80.90 L 112.05 80.48 C 112.98 80.04 113.38 78.93 112.94 77.99 C 112.51 77.06 111.39 76.66 110.46 77.10 L 109.55 77.53 C 108.62 77.97 108.22 79.08 108.66 80.01 C 109.10 80.94 110.21 81.34 111.14 80.90 Z M 112.04 80.48 L 112.91 80.08 C 113.84 79.65 114.24 78.54 113.81 77.60 C 113.38 76.67 112.27 76.26 111.34 76.70 L 110.47 77.10 C 109.54 77.53 109.13 78.64 109.57 79.57 C 110.00 80.51 111.11 80.91 112.04 80.48 Z M 112.89 80.09 L 113.81 79.67 C 114.75 79.25 115.17 78.14 114.74 77.20 C 114.32 76.27 113.22 75.85 112.28 76.27 L 111.35 76.69 C 110.42 77.11 110.00 78.22 110.42 79.16 C 110.85 80.09 111.95 80.51 112.89 80.09 Z M 113.78 79.68 L 114.91 79.20 C 115.85 78.80 116.29 77.70 115.89 76.76 C 115.49 75.81 114.39 75.37 113.44 75.77 L 112.31 76.26 C 111.37 76.66 110.93 77.76 111.33 78.70 C 111.73 79.65 112.83 80.09 113.78 79.68 Z M 114.85 79.23 L 115.82 78.85 C 116.78 78.48 117.26 77.40 116.89 76.44 C 116.52 75.48 115.44 75.00 114.48 75.37 L 113.51 75.75 C 112.55 76.12 112.07 77.20 112.44 78.16 C 112.81 79.12 113.89 79.60 114.85 79.23 Z M 115.73 78.88 L 116.59 78.60 C 117.57 78.28 118.11 77.23 117.78 76.25 C 117.46 75.27 116.41 74.74 115.43 75.06 L 114.57 75.34 C 113.59 75.66 113.06 76.72 113.38 77.69 C 113.70 78.67 114.76 79.20 115.73 78.88 Z M 116.48 78.64 L 117.26 78.43 C 118.26 78.17 118.86 77.16 118.60 76.16 C 118.34 75.16 117.32 74.56 116.33 74.82 L 115.54 75.02 C 114.55 75.28 113.95 76.30 114.21 77.30 C 114.46 78.29 115.48 78.89 116.48 78.64 Z M 117.11 78.47 L 117.99 78.32 C 119.00 78.14 119.69 77.17 119.51 76.16 C 119.33 75.14 118.37 74.46 117.35 74.63 L 116.48 74.79 C 115.46 74.96 114.78 75.93 114.95 76.94 C 115.13 77.96 116.10 78.64 117.11 78.47 Z M 117.74 78.35 L 118.68 78.31 C 119.71 78.27 120.52 77.40 120.48 76.37 C 120.44 75.34 119.57 74.53 118.54 74.57 L 117.60 74.60 C 116.57 74.64 115.76 75.51 115.80 76.55 C 115.84 77.58 116.71 78.38 117.74 78.35 Z M 118.33 78.30 L 119.30 78.44 C 120.32 78.60 121.28 77.89 121.44 76.87 C 121.59 75.84 120.88 74.88 119.86 74.73 L 118.89 74.58 C 117.86 74.43 116.91 75.14 116.75 76.16 C 116.60 77.19 117.31 78.14 118.33 78.30 Z M 118.94 78.36 L 119.97 78.73 C 120.95 79.08 122.03 78.57 122.38 77.60 C 122.73 76.62 122.23 75.54 121.25 75.19 L 120.22 74.82 C 119.24 74.46 118.16 74.97 117.81 75.95 C 117.46 76.93 117.96 78.00 118.94 78.36 Z M 119.73 78.63 L 120.56 79.07 C 121.49 79.55 122.63 79.20 123.11 78.28 C 123.60 77.36 123.25 76.22 122.33 75.73 L 121.49 75.29 C 120.57 74.80 119.43 75.16 118.94 76.08 C 118.46 77.00 118.81 78.14 119.73 78.63 Z M 120.45 79.00 L 121.31 79.54 C 122.20 80.09 123.36 79.82 123.92 78.94 C 124.47 78.05 124.20 76.88 123.31 76.33 L 122.44 75.79 C 121.56 75.24 120.39 75.51 119.84 76.40 C 119.29 77.29 119.56 78.45 120.45 79.00 Z M 121.25 79.51 L 122.12 80.09 C 122.99 80.68 124.17 80.45 124.75 79.58 C 125.33 78.71 125.10 77.54 124.24 76.95 L 123.37 76.37 C 122.50 75.78 121.32 76.01 120.74 76.88 C 120.16 77.75 120.39 78.92 121.25 79.51 Z M 122.11 80.09 L 122.95 80.66 C 123.82 81.26 125.00 81.04 125.59 80.17 C 126.18 79.31 125.96 78.13 125.10 77.54 L 124.25 76.96 C 123.39 76.37 122.21 76.59 121.62 77.45 C 121.03 78.31 121.24 79.49 122.11 80.09 Z M 122.98 80.69 L 123.82 81.24 C 124.69 81.81 125.87 81.57 126.45 80.69 C 127.02 79.82 126.78 78.64 125.90 78.06 L 125.07 77.51 C 124.19 76.94 123.01 77.18 122.44 78.06 C 121.86 78.93 122.10 80.11 122.98 80.69 Z M 123.91 81.30 L 124.85 81.84 C 125.76 82.37 126.93 82.06 127.45 81.15 C 127.98 80.24 127.67 79.08 126.76 78.55 L 125.81 78.01 C 124.90 77.48 123.74 77.79 123.21 78.70 C 122.69 79.61 123.00 80.77 123.91 81.30 Z M 124.99 81.91 L 125.86 82.33 C 126.81 82.79 127.94 82.39 128.40 81.44 C 128.85 80.49 128.45 79.36 127.50 78.90 L 126.63 78.48 C 125.68 78.03 124.55 78.43 124.09 79.38 C 123.64 80.33 124.04 81.46 124.99 81.91 Z M 126.00 82.39 L 126.86 82.72 C 127.84 83.10 128.94 82.62 129.32 81.64 C 129.70 80.66 129.21 79.56 128.23 79.18 L 127.37 78.85 C 126.39 78.47 125.29 78.95 124.91 79.93 C 124.53 80.91 125.02 82.01 126.00 82.39 Z M 126.96 82.76 L 127.84 83.05 C 128.83 83.37 129.91 82.82 130.23 81.82 C 130.55 80.82 130.01 79.75 129.01 79.43 L 128.13 79.14 C 127.13 78.82 126.06 79.37 125.74 80.37 C 125.41 81.37 125.96 82.44 126.96 82.76 Z M 127.92 83.07 L 128.84 83.32 C 129.85 83.60 130.90 83.01 131.18 81.99 C 131.45 80.98 130.86 79.93 129.85 79.66 L 128.93 79.40 C 127.91 79.12 126.87 79.72 126.59 80.73 C 126.31 81.75 126.91 82.79 127.92 83.07 Z M 128.93 83.35 L 129.91 83.56 C 130.94 83.79 131.95 83.15 132.18 82.12 C 132.41 81.10 131.77 80.08 130.74 79.85 L 129.76 79.63 C 128.73 79.40 127.71 80.05 127.49 81.08 C 127.26 82.10 127.90 83.12 128.93 83.35 Z M 130.01 83.58 L 131.06 83.76 C 132.09 83.94 133.08 83.24 133.25 82.20 C 133.42 81.17 132.73 80.18 131.69 80.01 L 130.64 79.83 C 129.61 79.66 128.63 80.36 128.45 81.39 C 128.28 82.43 128.97 83.41 130.01 83.58 Z M 131.16 83.77 L 132.17 83.89 C 133.21 84.01 134.15 83.26 134.27 82.22 C 134.39 81.18 133.65 80.23 132.60 80.11 L 131.59 80.00 C 130.55 79.88 129.61 80.62 129.49 81.67 C 129.37 82.71 130.11 83.65 131.16 83.77 Z M 132.24 83.90 L 133.25 83.97 C 134.30 84.05 135.21 83.27 135.29 82.22 C 135.37 81.17 134.58 80.26 133.54 80.18 L 132.53 80.11 C 131.48 80.03 130.57 80.81 130.49 81.86 C 130.41 82.91 131.19 83.82 132.24 83.90 Z M 133.30 83.98 L 134.32 84.02 C 135.37 84.07 136.26 83.26 136.31 82.22 C 136.36 81.17 135.55 80.28 134.50 80.23 L 133.48 80.18 C 132.43 80.13 131.54 80.94 131.49 81.99 C 131.44 83.04 132.25 83.93 133.30 83.98 Z M 134.36 84.03 L 135.35 84.05 C 136.40 84.08 137.28 83.26 137.31 82.21 C 137.34 81.16 136.51 80.28 135.46 80.25 L 134.46 80.23 C 133.41 80.20 132.54 81.02 132.51 82.07 C 132.48 83.12 133.31 84.00 134.36 84.03 Z M 135.37 84.05 L 136.39 84.07 C 137.44 84.09 138.30 83.25 138.32 82.20 C 138.34 81.15 137.50 80.29 136.45 80.27 L 135.44 80.25 C 134.39 80.24 133.52 81.07 133.51 82.12 C 133.49 83.17 134.32 84.04 135.37 84.05 Z M 136.42 84.07 L 137.45 84.07 C 138.50 84.07 139.35 83.22 139.35 82.17 C 139.35 81.12 138.50 80.27 137.45 80.27 L 136.42 80.27 C 135.37 80.27 134.52 81.12 134.52 82.17 C 134.52 83.22 135.37 84.07 136.42 84.07 Z M 137.52 84.06 L 138.50 84.03 C 139.55 83.99 140.37 83.12 140.33 82.07 C 140.29 81.03 139.42 80.21 138.37 80.24 L 137.39 80.28 C 136.34 80.31 135.52 81.19 135.56 82.24 C 135.59 83.28 136.47 84.10 137.52 84.06 Z M 138.60 84.02 L 139.56 83.94 C 140.60 83.84 141.37 82.92 141.28 81.88 C 141.19 80.84 140.27 80.07 139.23 80.17 L 138.27 80.25 C 137.23 80.35 136.46 81.26 136.55 82.31 C 136.64 83.35 137.56 84.11 138.60 84.02 Z M 139.69 83.92 L 140.59 83.77 C 141.62 83.61 142.32 82.64 142.16 81.61 C 141.99 80.58 141.03 79.88 140.00 80.04 L 139.10 80.19 C 138.07 80.35 137.36 81.32 137.53 82.35 C 137.69 83.38 138.66 84.08 139.69 83.92 Z M 140.72 83.74 L 141.62 83.54 C 142.63 83.30 143.26 82.29 143.03 81.27 C 142.79 80.26 141.78 79.63 140.76 79.86 L 139.87 80.07 C 138.85 80.30 138.22 81.32 138.46 82.33 C 138.69 83.35 139.71 83.98 140.72 83.74 Z M 141.72 83.51 L 142.67 83.23 C 143.67 82.93 144.24 81.88 143.94 80.88 C 143.65 79.89 142.60 79.32 141.60 79.61 L 140.65 79.89 C 139.66 80.19 139.09 81.24 139.38 82.23 C 139.68 83.23 140.73 83.80 141.72 83.51 Z M 142.76 83.20 L 143.79 82.84 C 144.77 82.49 145.29 81.42 144.94 80.44 C 144.60 79.46 143.53 78.94 142.55 79.28 L 141.52 79.64 C 140.54 79.98 140.02 81.06 140.36 82.04 C 140.70 83.02 141.78 83.54 142.76 83.20 Z M 143.84 82.81 L 144.82 82.44 C 145.79 82.06 146.27 80.98 145.90 80.01 C 145.52 79.04 144.43 78.56 143.46 78.93 L 142.49 79.31 C 141.52 79.68 141.04 80.77 141.41 81.74 C 141.79 82.70 142.87 83.19 143.84 82.81 Z M 144.85 82.42 L 145.77 82.04 C 146.73 81.65 147.19 80.55 146.80 79.59 C 146.40 78.63 145.31 78.18 144.35 78.57 L 143.43 78.95 C 142.47 79.34 142.01 80.44 142.40 81.40 C 142.80 82.36 143.89 82.81 144.85 82.42 Z M 145.80 82.03 L 146.75 81.63 C 147.70 81.22 148.14 80.12 147.73 79.16 C 147.32 78.21 146.22 77.77 145.27 78.18 L 144.32 78.58 C 143.37 78.99 142.93 80.09 143.33 81.05 C 143.74 82.00 144.85 82.44 145.80 82.03 Z M 146.77 81.61 L 147.71 81.19 C 148.66 80.77 149.09 79.66 148.67 78.72 C 148.25 77.77 147.14 77.35 146.19 77.77 L 145.24 78.19 C 144.30 78.61 143.87 79.72 144.29 80.66 C 144.71 81.61 145.82 82.04 146.77 81.61 Z M 147.74 81.18 L 148.65 80.76 C 149.59 80.33 150.00 79.21 149.57 78.27 C 149.14 77.33 148.02 76.92 147.08 77.36 L 146.17 77.78 C 145.23 78.21 144.82 79.33 145.25 80.27 C 145.68 81.21 146.80 81.62 147.74 81.18 Z M 148.68 80.75 L 149.58 80.32 C 150.51 79.87 150.90 78.75 150.46 77.82 C 150.01 76.89 148.89 76.49 147.96 76.94 L 147.06 77.37 C 146.13 77.82 145.73 78.93 146.18 79.87 C 146.63 80.80 147.75 81.19 148.68 80.75 Z M 149.61 80.30 L 150.60 79.80 C 151.52 79.34 151.89 78.21 151.43 77.29 C 150.97 76.37 149.84 76.00 148.92 76.46 L 147.93 76.96 C 147.01 77.42 146.63 78.54 147.10 79.47 C 147.56 80.39 148.68 80.76 149.61 80.30 Z M 150.63 79.78 L 151.52 79.31 C 152.43 78.83 152.78 77.71 152.31 76.79 C 151.83 75.88 150.70 75.53 149.79 76.01 L 148.90 76.48 C 147.98 76.96 147.63 78.08 148.11 78.99 C 148.59 79.91 149.71 80.26 150.63 79.78 Z M 151.54 79.30 L 152.37 78.85 C 153.27 78.36 153.61 77.23 153.12 76.33 C 152.63 75.43 151.51 75.09 150.60 75.58 L 149.77 76.02 C 148.87 76.51 148.53 77.64 149.02 78.54 C 149.51 79.44 150.63 79.78 151.54 79.30 Z M 152.37 78.84 L 153.17 78.41 C 154.07 77.92 154.40 76.79 153.91 75.90 C 153.42 75.00 152.30 74.66 151.40 75.15 L 150.60 75.58 C 149.70 76.07 149.37 77.20 149.86 78.10 C 150.35 79.00 151.47 79.33 152.37 78.84 Z M 153.16 78.41 L 154.03 77.94 C 154.93 77.46 155.27 76.34 154.79 75.44 C 154.31 74.54 153.18 74.20 152.28 74.68 L 151.41 75.15 C 150.51 75.63 150.17 76.75 150.65 77.65 C 151.13 78.55 152.25 78.89 153.16 78.41 Z M 154.02 77.95 L 154.90 77.49 C 155.80 77.01 156.15 75.90 155.68 74.99 C 155.20 74.09 154.08 73.74 153.18 74.21 L 152.30 74.67 C 151.39 75.15 151.04 76.27 151.52 77.17 C 151.99 78.08 153.11 78.42 154.02 77.95 Z M 154.88 77.49 L 155.77 77.04 C 156.68 76.57 157.04 75.46 156.57 74.55 C 156.11 73.64 154.99 73.28 154.08 73.75 L 153.19 74.21 C 152.28 74.67 151.93 75.79 152.39 76.69 C 152.86 77.60 153.97 77.96 154.88 77.49 Z M 155.76 77.04 L 156.66 76.59 C 157.58 76.13 157.94 75.02 157.48 74.11 C 157.03 73.19 155.91 72.83 155.00 73.29 L 154.10 73.74 C 153.19 74.20 152.82 75.31 153.28 76.22 C 153.74 77.13 154.85 77.50 155.76 77.04 Z M 156.65 76.59 L 157.57 76.14 C 158.48 75.69 158.86 74.58 158.41 73.67 C 157.96 72.75 156.86 72.38 155.94 72.83 L 155.02 73.28 C 154.10 73.73 153.73 74.84 154.18 75.75 C 154.63 76.67 155.73 77.04 156.65 76.59 Z M 157.54 76.15 L 158.46 75.72 C 159.39 75.28 159.78 74.18 159.34 73.26 C 158.91 72.34 157.80 71.94 156.88 72.38 L 155.96 72.81 C 155.04 73.25 154.65 74.35 155.08 75.27 C 155.52 76.20 156.62 76.59 157.54 76.15 Z M 158.43 75.74 L 159.33 75.33 C 160.26 74.92 160.68 73.82 160.26 72.89 C 159.84 71.96 158.75 71.54 157.82 71.96 L 156.92 72.36 C 155.99 72.78 155.57 73.87 155.99 74.80 C 156.40 75.73 157.50 76.15 158.43 75.74 Z M 159.27 75.36 L 160.18 74.98 C 161.12 74.60 161.57 73.52 161.19 72.57 C 160.80 71.63 159.72 71.18 158.78 71.57 L 157.87 71.94 C 156.93 72.33 156.48 73.40 156.86 74.35 C 157.25 75.29 158.33 75.74 159.27 75.36 Z M 160.11 75.01 L 161.04 74.68 C 162.00 74.33 162.50 73.27 162.15 72.31 C 161.80 71.35 160.74 70.85 159.78 71.20 L 158.85 71.54 C 157.89 71.88 157.39 72.94 157.74 73.90 C 158.09 74.86 159.15 75.36 160.11 75.01 Z M 160.95 74.71 L 161.89 74.42 C 162.86 74.12 163.41 73.09 163.12 72.11 C 162.82 71.14 161.79 70.59 160.81 70.88 L 159.87 71.17 C 158.90 71.47 158.35 72.50 158.64 73.48 C 158.94 74.45 159.97 75.00 160.95 74.71 Z M 161.80 74.44 L 162.78 74.20 C 163.77 73.95 164.37 72.94 164.12 71.95 C 163.87 70.96 162.87 70.36 161.88 70.61 L 160.90 70.86 C 159.91 71.11 159.31 72.11 159.56 73.10 C 159.81 74.09 160.81 74.69 161.80 74.44 Z M 162.71 74.22 L 163.64 74.02 C 164.64 73.81 165.28 72.83 165.07 71.83 C 164.86 70.83 163.88 70.19 162.88 70.40 L 161.95 70.59 C 160.95 70.80 160.31 71.79 160.52 72.79 C 160.73 73.79 161.71 74.43 162.71 74.22 Z M 163.58 74.04 L 164.57 73.86 C 165.58 73.68 166.25 72.72 166.07 71.71 C 165.89 70.70 164.93 70.03 163.92 70.21 L 162.94 70.38 C 161.93 70.56 161.26 71.52 161.43 72.53 C 161.61 73.54 162.57 74.21 163.58 74.04 Z M 164.51 73.88 L 165.52 73.73 C 166.54 73.58 167.25 72.64 167.10 71.62 C 166.95 70.61 166.01 69.90 164.99 70.05 L 163.98 70.19 C 162.96 70.34 162.26 71.28 162.40 72.30 C 162.55 73.32 163.49 74.02 164.51 73.88 Z M 165.46 73.74 L 166.49 73.63 C 167.52 73.52 168.26 72.59 168.14 71.57 C 168.03 70.55 167.11 69.81 166.08 69.92 L 165.05 70.04 C 164.03 70.15 163.29 71.07 163.40 72.09 C 163.52 73.12 164.44 73.86 165.46 73.74 Z M 166.41 73.64 L 167.44 73.57 C 168.48 73.51 169.26 72.61 169.19 71.58 C 169.12 70.55 168.23 69.77 167.20 69.84 L 166.17 69.91 C 165.13 69.98 164.35 70.87 164.42 71.90 C 164.49 72.93 165.38 73.71 166.41 73.64 Z M 167.30 73.59 L 168.31 73.60 C 169.35 73.61 170.20 72.78 170.21 71.74 C 170.22 70.70 169.39 69.85 168.35 69.84 L 167.34 69.82 C 166.30 69.81 165.45 70.64 165.44 71.68 C 165.43 72.72 166.26 73.58 167.30 73.59 Z M 168.08 73.59 L 169.04 73.72 C 170.08 73.86 171.03 73.14 171.17 72.10 C 171.31 71.06 170.58 70.11 169.55 69.97 L 168.58 69.84 C 167.54 69.70 166.59 70.43 166.45 71.47 C 166.31 72.50 167.04 73.45 168.08 73.59 Z M 168.73 73.66 L 169.64 73.95 C 170.64 74.26 171.70 73.70 172.02 72.70 C 172.33 71.70 171.78 70.63 170.77 70.32 L 169.86 70.03 C 168.86 69.72 167.80 70.28 167.48 71.28 C 167.17 72.28 167.72 73.35 168.73 73.66 Z M 169.31 73.82 L 170.16 74.27 C 171.09 74.77 172.25 74.41 172.74 73.48 C 173.24 72.55 172.88 71.40 171.95 70.90 L 171.10 70.45 C 170.17 69.95 169.01 70.31 168.52 71.24 C 168.02 72.17 168.38 73.32 169.31 73.82 Z M 169.93 74.14 L 170.73 74.72 C 171.59 75.35 172.79 75.15 173.41 74.30 C 174.03 73.44 173.84 72.24 172.99 71.62 L 172.18 71.03 C 171.33 70.41 170.13 70.60 169.50 71.46 C 168.88 72.32 169.07 73.52 169.93 74.14 Z M 170.59 74.62 L 171.37 75.30 C 172.17 76.00 173.39 75.92 174.09 75.11 C 174.79 74.31 174.70 73.09 173.90 72.39 L 173.13 71.72 C 172.32 71.02 171.11 71.10 170.41 71.90 C 169.71 72.70 169.79 73.92 170.59 74.62 Z M 171.30 75.25 L 172.04 75.95 C 172.81 76.69 174.04 76.66 174.77 75.89 C 175.51 75.11 175.48 73.89 174.71 73.15 L 173.97 72.44 C 173.20 71.71 171.97 71.74 171.23 72.51 C 170.50 73.28 170.52 74.51 171.30 75.25 Z M 172.01 75.93 L 172.72 76.64 C 173.49 77.39 174.72 77.38 175.47 76.62 C 176.22 75.86 176.21 74.63 175.45 73.87 L 174.74 73.17 C 173.97 72.42 172.74 72.42 171.99 73.19 C 171.24 73.95 171.25 75.18 172.01 75.93 Z M 172.72 76.64 L 173.43 77.35 C 174.19 78.10 175.43 78.10 176.18 77.34 C 176.94 76.58 176.94 75.34 176.17 74.59 L 175.46 73.88 C 174.70 73.12 173.47 73.12 172.71 73.88 C 171.95 74.65 171.95 75.88 172.72 76.64 Z M 173.44 77.36 L 174.16 78.06 C 174.93 78.81 176.16 78.80 176.91 78.03 C 177.66 77.26 177.65 76.02 176.88 75.27 L 176.16 74.57 C 175.39 73.82 174.16 73.83 173.41 74.60 C 172.66 75.38 172.67 76.61 173.44 77.36 Z M 174.19 78.09 L 174.92 78.78 C 175.71 79.51 176.94 79.47 177.68 78.68 C 178.42 77.89 178.37 76.66 177.58 75.92 L 176.85 75.24 C 176.06 74.50 174.83 74.54 174.09 75.33 C 173.35 76.12 173.40 77.36 174.19 78.09 Z M 174.97 78.83 L 175.74 79.49 C 176.55 80.20 177.79 80.11 178.49 79.29 C 179.20 78.48 179.11 77.24 178.30 76.54 L 177.53 75.87 C 176.72 75.17 175.48 75.25 174.78 76.07 C 174.07 76.88 174.16 78.12 174.97 78.83 Z M 175.81 79.55 L 176.59 80.16 C 177.44 80.83 178.67 80.69 179.33 79.84 C 180.00 78.99 179.86 77.76 179.01 77.09 L 178.23 76.48 C 177.38 75.81 176.15 75.95 175.48 76.80 C 174.81 77.65 174.96 78.88 175.81 79.55 Z M 176.68 80.23 L 177.49 80.80 C 178.37 81.41 179.59 81.20 180.21 80.31 C 180.83 79.42 180.61 78.20 179.73 77.59 L 178.92 77.02 C 178.03 76.40 176.81 76.62 176.19 77.51 C 175.57 78.39 175.79 79.61 176.68 80.23 Z M 177.60 80.87 L 178.46 81.39 C 179.39 81.95 180.59 81.65 181.15 80.72 C 181.71 79.79 181.41 78.59 180.48 78.03 L 179.62 77.51 C 178.69 76.96 177.49 77.25 176.93 78.18 C 176.37 79.11 176.67 80.31 177.60 80.87 Z M 178.57 81.45 L 179.48 81.92 C 180.44 82.42 181.62 82.04 182.12 81.08 C 182.61 80.12 182.24 78.93 181.27 78.44 L 180.37 77.97 C 179.41 77.47 178.23 77.85 177.73 78.81 C 177.23 79.77 177.61 80.96 178.57 81.45 Z M 179.58 81.97 L 180.50 82.38 C 181.49 82.81 182.65 82.37 183.09 81.38 C 183.52 80.39 183.08 79.23 182.09 78.80 L 181.17 78.39 C 180.18 77.95 179.03 78.40 178.59 79.39 C 178.15 80.37 178.59 81.53 179.58 81.97 Z M 180.60 82.42 L 181.51 82.76 C 182.52 83.14 183.65 82.63 184.03 81.62 C 184.42 80.61 183.91 79.48 182.89 79.10 L 181.99 78.75 C 180.98 78.37 179.85 78.88 179.46 79.89 C 179.08 80.90 179.59 82.03 180.60 82.42 Z M 181.61 82.80 L 182.54 83.09 C 183.57 83.41 184.67 82.84 185.00 81.81 C 185.32 80.78 184.75 79.68 183.72 79.35 L 182.79 79.06 C 181.76 78.74 180.66 79.31 180.33 80.34 C 180.01 81.37 180.58 82.47 181.61 82.80 Z M 182.67 83.13 L 183.61 83.35 C 184.66 83.60 185.72 82.95 185.97 81.90 C 186.22 80.85 185.57 79.79 184.52 79.54 L 183.58 79.32 C 182.53 79.06 181.48 79.71 181.22 80.77 C 180.97 81.82 181.62 82.87 182.67 83.13 Z M 183.75 83.38 L 184.75 83.54 C 185.81 83.71 186.82 82.99 186.99 81.92 C 187.16 80.85 186.44 79.84 185.37 79.67 L 184.38 79.51 C 183.31 79.34 182.31 80.06 182.13 81.13 C 181.96 82.20 182.69 83.21 183.75 83.38 Z M 184.87 83.55 L 185.89 83.65 C 186.97 83.75 187.92 82.96 188.03 81.89 C 188.13 80.81 187.34 79.86 186.26 79.75 L 185.24 79.66 C 184.17 79.55 183.21 80.34 183.11 81.42 C 183.01 82.50 183.80 83.45 184.87 83.55 Z M 185.98 83.66 L 186.96 83.71 C 188.04 83.76 188.95 82.92 189.01 81.84 C 189.06 80.76 188.22 79.85 187.14 79.79 L 186.17 79.75 C 185.09 79.69 184.17 80.53 184.12 81.61 C 184.07 82.69 184.90 83.61 185.98 83.66 Z M 187.02 83.71 L 188.04 83.72 C 189.12 83.74 190.01 82.87 190.03 81.79 C 190.04 80.71 189.17 79.82 188.09 79.80 L 187.08 79.79 C 185.99 79.78 185.11 80.64 185.09 81.72 C 185.08 82.80 185.94 83.69 187.02 83.71 Z M 188.10 83.72 L 189.13 83.70 C 190.21 83.68 191.07 82.79 191.05 81.71 C 191.03 80.63 190.14 79.77 189.06 79.79 L 188.03 79.81 C 186.95 79.82 186.09 80.72 186.11 81.80 C 186.13 82.88 187.02 83.74 188.10 83.72 Z M 189.19 83.70 L 190.20 83.65 C 191.28 83.60 192.11 82.68 192.06 81.60 C 192.01 80.52 191.09 79.69 190.01 79.74 L 189.00 79.79 C 187.92 79.84 187.09 80.76 187.14 81.84 C 187.19 82.92 188.11 83.75 189.19 83.70 Z M 190.27 83.65 L 191.31 83.56 C 192.39 83.47 193.19 82.52 193.10 81.44 C 193.01 80.37 192.06 79.57 190.99 79.66 L 189.94 79.75 C 188.86 79.84 188.06 80.78 188.15 81.86 C 188.25 82.94 189.19 83.74 190.27 83.65 Z M 191.41 83.55 L 192.40 83.41 C 193.48 83.27 194.23 82.28 194.08 81.21 C 193.94 80.14 192.95 79.39 191.88 79.53 L 190.89 79.67 C 189.82 79.81 189.07 80.80 189.21 81.87 C 189.36 82.94 190.34 83.69 191.41 83.55 Z M 192.53 83.39 L 193.48 83.20 C 194.54 82.99 195.23 81.96 195.02 80.90 C 194.80 79.84 193.77 79.15 192.71 79.37 L 191.76 79.56 C 190.70 79.77 190.01 80.80 190.22 81.86 C 190.44 82.92 191.47 83.60 192.53 83.39 Z M 193.62 83.17 L 194.54 82.91 C 195.58 82.62 196.19 81.55 195.90 80.51 C 195.62 79.47 194.54 78.86 193.50 79.14 L 192.58 79.40 C 191.54 79.69 190.93 80.76 191.21 81.80 C 191.50 82.84 192.58 83.45 193.62 83.17 Z M 194.67 82.87 L 195.51 82.57 C 196.53 82.21 197.06 81.09 196.70 80.08 C 196.34 79.06 195.22 78.53 194.20 78.89 L 193.37 79.19 C 192.35 79.55 191.82 80.66 192.18 81.68 C 192.54 82.70 193.66 83.23 194.67 82.87 Z M 195.62 82.53 L 196.48 82.16 C 197.48 81.75 197.94 80.60 197.52 79.61 C 197.10 78.61 195.96 78.15 194.96 78.57 L 194.10 78.93 C 193.11 79.35 192.64 80.49 193.06 81.49 C 193.48 82.48 194.62 82.95 195.62 82.53 Z M 196.56 82.13 L 197.47 81.70 C 198.45 81.24 198.87 80.07 198.41 79.10 C 197.94 78.12 196.78 77.71 195.81 78.17 L 194.89 78.60 C 193.91 79.06 193.50 80.22 193.96 81.20 C 194.42 82.17 195.58 82.59 196.56 82.13 Z M 197.52 81.67 L 198.52 81.17 C 199.48 80.68 199.87 79.50 199.38 78.54 C 198.90 77.58 197.72 77.20 196.76 77.68 L 195.76 78.19 C 194.80 78.68 194.41 79.85 194.90 80.81 C 195.39 81.77 196.56 82.16 197.52 81.67 Z M 198.55 81.15 L 199.38 80.72 C 200.34 80.22 200.71 79.04 200.21 78.08 C 199.71 77.13 198.53 76.76 197.57 77.26 L 196.74 77.70 C 195.78 78.19 195.41 79.37 195.91 80.33 C 196.41 81.28 197.59 81.65 198.55 81.15 Z M 199.39 80.71 L 200.20 80.28 C 201.15 79.78 201.52 78.60 201.01 77.65 C 200.51 76.69 199.33 76.33 198.37 76.83 L 197.57 77.26 C 196.61 77.77 196.25 78.95 196.75 79.90 C 197.26 80.85 198.44 81.22 199.39 80.71 Z M 200.20 80.28 L 201.06 79.83 C 202.01 79.32 202.37 78.14 201.87 77.19 C 201.36 76.24 200.18 75.88 199.23 76.38 L 198.37 76.84 C 197.42 77.34 197.06 78.52 197.56 79.47 C 198.07 80.43 199.25 80.79 200.20 80.28 Z M 201.06 79.83 L 201.95 79.35 C 202.91 78.85 203.27 77.67 202.77 76.72 C 202.26 75.76 201.08 75.40 200.13 75.91 L 199.23 76.38 C 198.28 76.88 197.91 78.06 198.42 79.02 C 198.92 79.97 200.10 80.33 201.06 79.83 Z M 201.95 79.36 L 202.88 78.87 C 203.83 78.37 204.20 77.19 203.70 76.23 C 203.20 75.28 202.02 74.91 201.07 75.41 L 200.14 75.90 C 199.18 76.40 198.81 77.58 199.31 78.53 C 199.81 79.49 200.99 79.86 201.95 79.36 Z M 202.87 78.87 L 203.84 78.37 C 204.79 77.88 205.17 76.70 204.67 75.75 C 204.18 74.79 203.00 74.41 202.05 74.91 L 201.08 75.41 C 200.12 75.90 199.75 77.08 200.24 78.03 C 200.74 78.99 201.91 79.37 202.87 78.87 Z M 203.82 78.38 L 204.78 77.90 C 205.74 77.41 206.13 76.24 205.64 75.27 C 205.15 74.31 203.98 73.93 203.02 74.42 L 202.06 74.90 C 201.10 75.39 200.71 76.56 201.20 77.52 C 201.69 78.48 202.86 78.87 203.82 78.38 Z M 204.77 77.90 L 205.69 77.44 C 206.66 76.96 207.05 75.79 206.57 74.83 C 206.10 73.86 204.93 73.47 203.96 73.95 L 203.03 74.41 C 202.07 74.89 201.67 76.06 202.15 77.02 C 202.63 77.99 203.80 78.38 204.77 77.90 Z M 205.68 77.45 L 206.61 77.00 C 207.58 76.53 207.99 75.36 207.52 74.39 C 207.05 73.42 205.88 73.02 204.91 73.49 L 203.98 73.94 C 203.01 74.41 202.60 75.58 203.07 76.55 C 203.54 77.51 204.71 77.92 205.68 77.45 Z M 206.60 77.00 L 207.53 76.56 C 208.50 76.10 208.91 74.94 208.45 73.96 C 207.99 72.99 206.83 72.58 205.86 73.04 L 204.93 73.48 C 203.95 73.94 203.54 75.11 204.00 76.08 C 204.46 77.05 205.63 77.46 206.60 77.00 Z M 207.51 76.57 L 208.43 76.14 C 209.41 75.69 209.83 74.53 209.38 73.56 C 208.92 72.58 207.77 72.15 206.79 72.61 L 205.87 73.03 C 204.90 73.48 204.47 74.64 204.92 75.62 C 205.38 76.60 206.54 77.02 207.51 76.57 Z M 208.41 76.15 L 209.30 75.75 C 210.28 75.31 210.72 74.15 210.28 73.17 C 209.84 72.19 208.68 71.75 207.70 72.20 L 206.81 72.60 C 205.83 73.04 205.39 74.20 205.83 75.18 C 206.28 76.16 207.43 76.59 208.41 76.15 Z M 209.28 75.76 L 210.14 75.38 C 211.13 74.95 211.58 73.80 211.15 72.81 C 210.71 71.83 209.57 71.38 208.58 71.81 L 207.72 72.19 C 206.73 72.62 206.29 73.77 206.72 74.75 C 207.15 75.74 208.30 76.19 209.28 75.76 Z M 210.12 75.39 L 211.06 74.99 C 212.05 74.57 212.52 73.43 212.10 72.44 C 211.68 71.45 210.54 70.98 209.55 71.40 L 208.60 71.80 C 207.61 72.22 207.15 73.36 207.57 74.35 C 207.99 75.34 209.13 75.81 210.12 75.39 Z M 211.03 75.01 L 212.02 74.61 C 213.02 74.21 213.51 73.07 213.11 72.08 C 212.71 71.08 211.57 70.59 210.57 70.99 L 209.58 71.39 C 208.58 71.79 208.10 72.92 208.50 73.92 C 208.90 74.92 210.03 75.40 211.03 75.01 Z M 211.98 74.62 L 212.92 74.27 C 213.93 73.89 214.44 72.77 214.06 71.76 C 213.68 70.75 212.56 70.24 211.55 70.62 L 210.61 70.98 C 209.61 71.36 209.10 72.48 209.48 73.49 C 209.85 74.49 210.98 75.00 211.98 74.62 Z M 212.89 74.28 L 213.79 73.96 C 214.81 73.60 215.34 72.49 214.98 71.48 C 214.62 70.46 213.51 69.93 212.50 70.29 L 211.59 70.61 C 210.58 70.97 210.05 72.08 210.40 73.09 C 210.76 74.11 211.87 74.64 212.89 74.28 Z M 213.76 73.97 L 214.65 73.68 C 215.67 73.34 216.22 72.24 215.89 71.22 C 215.55 70.20 214.45 69.65 213.43 69.98 L 212.54 70.28 C 211.52 70.61 210.96 71.71 211.30 72.74 C 211.63 73.76 212.74 74.31 213.76 73.97 Z M 214.62 73.69 L 215.51 73.41 C 216.54 73.09 217.11 72.00 216.79 70.98 C 216.48 69.95 215.39 69.38 214.36 69.69 L 213.46 69.97 C 212.44 70.29 211.86 71.38 212.18 72.41 C 212.50 73.43 213.59 74.01 214.62 73.69 Z M 215.48 73.42 L 216.40 73.15 C 217.43 72.85 218.02 71.77 217.72 70.74 C 217.42 69.71 216.34 69.12 215.31 69.42 L 214.39 69.68 C 213.36 69.99 212.77 71.07 213.07 72.10 C 213.37 73.13 214.45 73.72 215.48 73.42 Z M 216.36 73.16 L 217.30 72.91 C 218.34 72.63 218.95 71.56 218.67 70.53 C 218.39 69.49 217.32 68.87 216.29 69.15 L 215.35 69.41 C 214.31 69.69 213.70 70.75 213.97 71.79 C 214.25 72.83 215.32 73.44 216.36 73.16 Z M 217.25 72.92 L 218.22 72.68 C 219.27 72.43 219.91 71.38 219.65 70.34 C 219.40 69.29 218.35 68.65 217.30 68.91 L 216.33 69.14 C 215.29 69.40 214.65 70.45 214.90 71.49 C 215.16 72.53 216.21 73.17 217.25 72.92 Z M 218.17 72.70 L 219.17 72.48 C 220.22 72.26 220.89 71.22 220.67 70.17 C 220.44 69.12 219.41 68.45 218.36 68.68 L 217.35 68.89 C 216.30 69.12 215.64 70.15 215.86 71.20 C 216.09 72.25 217.12 72.92 218.17 72.70 Z M 219.11 72.49 L 220.15 72.30 C 221.21 72.11 221.91 71.10 221.72 70.04 C 221.52 68.98 220.51 68.28 219.45 68.48 L 218.41 68.67 C 217.36 68.86 216.66 69.87 216.85 70.93 C 217.05 71.99 218.06 72.69 219.11 72.49 Z M 220.10 72.31 L 221.11 72.16 C 222.17 72.00 222.90 71.01 222.74 69.94 C 222.58 68.88 221.59 68.15 220.52 68.31 L 219.51 68.47 C 218.45 68.63 217.72 69.62 217.88 70.68 C 218.04 71.74 219.04 72.47 220.10 72.31 Z M 221.06 72.16 L 222.09 72.03 C 223.15 71.90 223.91 70.93 223.77 69.86 C 223.64 68.80 222.66 68.04 221.60 68.18 L 220.57 68.31 C 219.51 68.44 218.75 69.41 218.89 70.48 C 219.02 71.55 220.00 72.30 221.06 72.16 Z M 222.05 72.04 L 223.07 71.93 C 224.14 71.82 224.91 70.86 224.80 69.79 C 224.69 68.73 223.73 67.95 222.67 68.06 L 221.64 68.17 C 220.57 68.28 219.80 69.24 219.91 70.31 C 220.02 71.38 220.98 72.15 222.05 72.04 Z M 223.04 71.94 L 224.04 71.85 C 225.11 71.75 225.90 70.81 225.81 69.74 C 225.72 68.67 224.78 67.88 223.71 67.97 L 222.70 68.06 C 221.63 68.15 220.84 69.10 220.93 70.17 C 221.03 71.24 221.97 72.03 223.04 71.94 Z M 224.01 71.85 L 224.98 71.78 C 226.05 71.71 226.85 70.78 226.78 69.71 C 226.70 68.63 225.77 67.83 224.70 67.90 L 223.74 67.97 C 222.67 68.05 221.86 68.98 221.94 70.05 C 222.01 71.12 222.94 71.93 224.01 71.85 Z M 224.95 71.78 L 225.93 71.73 C 227.00 71.67 227.82 70.75 227.76 69.68 C 227.70 68.61 226.79 67.79 225.72 67.85 L 224.73 67.90 C 223.66 67.96 222.84 68.88 222.90 69.95 C 222.96 71.02 223.87 71.84 224.95 71.78 Z M 225.90 71.73 L 227.00 71.69 C 228.07 71.65 228.91 70.75 228.87 69.67 C 228.83 68.60 227.92 67.76 226.85 67.80 L 225.75 67.85 C 224.68 67.89 223.84 68.79 223.88 69.86 C 223.92 70.93 224.82 71.77 225.90 71.73 Z M 226.96 71.69 L 227.96 71.67 C 229.04 71.65 229.89 70.76 229.87 69.69 C 229.85 68.62 228.97 67.77 227.89 67.79 L 226.89 67.80 C 225.82 67.82 224.96 68.71 224.98 69.78 C 225.00 70.85 225.89 71.71 226.96 71.69 Z M 227.93 71.67 L 228.87 71.67 C 229.94 71.67 230.81 70.80 230.81 69.72 C 230.81 68.65 229.94 67.78 228.87 67.79 L 227.93 67.79 C 226.85 67.79 225.99 68.66 225.99 69.73 C 225.99 70.80 226.86 71.67 227.93 71.67 Z M 228.84 71.67 L 229.75 71.68 C 230.82 71.69 231.70 70.83 231.71 69.76 C 231.73 68.69 230.87 67.81 229.80 67.80 L 228.89 67.79 C 227.82 67.77 226.94 68.63 226.93 69.70 C 226.91 70.77 227.77 71.65 228.84 71.67 Z M 229.72 71.67 L 230.68 71.70 C 231.75 71.73 232.64 70.89 232.68 69.82 C 232.71 68.75 231.86 67.86 230.79 67.83 L 229.83 67.80 C 228.76 67.77 227.87 68.61 227.84 69.68 C 227.81 70.75 228.65 71.64 229.72 71.67 Z M 230.60 71.69 L 231.58 71.76 C 232.64 71.84 233.56 71.03 233.64 69.97 C 233.71 68.91 232.91 67.98 231.85 67.91 L 230.88 67.84 C 229.81 67.76 228.89 68.57 228.81 69.63 C 228.74 70.69 229.54 71.62 230.60 71.69 Z M 231.44 71.74 L 232.44 71.88 C 233.49 72.03 234.47 71.30 234.62 70.25 C 234.76 69.19 234.03 68.22 232.98 68.07 L 231.98 67.93 C 230.93 67.78 229.96 68.51 229.81 69.56 C 229.66 70.62 230.39 71.59 231.44 71.74 Z M 232.27 71.84 L 233.29 72.08 C 234.32 72.33 235.35 71.69 235.59 70.66 C 235.84 69.62 235.20 68.59 234.17 68.35 L 233.15 68.11 C 232.12 67.86 231.08 68.50 230.84 69.54 C 230.60 70.57 231.24 71.60 232.27 71.84 Z M 233.12 72.03 L 234.06 72.34 C 235.06 72.67 236.14 72.13 236.48 71.13 C 236.81 70.13 236.27 69.04 235.26 68.71 L 234.33 68.40 C 233.33 68.07 232.24 68.61 231.91 69.61 C 231.58 70.62 232.12 71.70 233.12 72.03 Z M 233.94 72.29 L 234.88 72.67 C 235.85 73.07 236.96 72.61 237.36 71.64 C 237.76 70.67 237.30 69.55 236.33 69.15 L 235.39 68.77 C 234.41 68.37 233.30 68.83 232.90 69.80 C 232.50 70.77 232.97 71.89 233.94 72.29 Z M 234.78 72.62 L 235.70 73.06 C 236.64 73.52 237.77 73.13 238.23 72.19 C 238.68 71.25 238.29 70.11 237.35 69.66 L 236.43 69.21 C 235.49 68.75 234.36 69.15 233.90 70.09 C 233.44 71.03 233.84 72.16 234.78 72.62 Z M 235.60 73.00 L 236.47 73.49 C 237.38 74.00 238.52 73.67 239.03 72.77 C 239.54 71.86 239.22 70.71 238.31 70.20 L 237.44 69.72 C 236.54 69.21 235.39 69.53 234.88 70.44 C 234.37 71.35 234.69 72.50 235.60 73.00 Z M 236.37 73.41 L 237.25 73.98 C 238.11 74.54 239.27 74.29 239.83 73.43 C 240.39 72.56 240.14 71.41 239.28 70.85 L 238.40 70.28 C 237.54 69.72 236.39 69.97 235.83 70.83 C 235.27 71.69 235.51 72.85 236.37 73.41 Z M 237.17 73.87 L 237.99 74.49 C 238.80 75.09 239.94 74.93 240.55 74.12 C 241.15 73.31 240.99 72.17 240.18 71.56 L 239.36 70.95 C 238.55 70.35 237.41 70.51 236.80 71.32 C 236.20 72.13 236.36 73.27 237.17 73.87 Z M 237.94 74.39 L 238.69 75.02 C 239.44 75.65 240.57 75.55 241.20 74.79 C 241.83 74.04 241.73 72.91 240.97 72.28 L 240.23 71.66 C 239.47 71.03 238.35 71.13 237.72 71.88 C 237.09 72.64 237.19 73.76 237.94 74.39 Z M 238.68 74.95 L 239.39 75.58 C 240.10 76.22 241.20 76.15 241.84 75.44 C 242.48 74.72 242.41 73.62 241.70 72.98 L 240.99 72.35 C 240.27 71.71 239.17 71.78 238.53 72.50 C 237.89 73.21 237.96 74.31 238.68 74.95 Z M 239.39 75.56 L 239.48 75.63 C 240.18 76.27 241.27 76.21 241.90 75.51 C 242.53 74.80 242.48 73.72 241.77 73.08 L 241.69 73.01 C 240.98 72.37 239.90 72.43 239.27 73.13 C 238.63 73.84 238.69 74.92 239.39 75.56 Z"
      fill="black"
      fill-rule="nonzero" /><path d="M 64.71 108.40 L 65.53 108.92 C 66.38 109.47 67.51 109.22 68.05 108.37 C 68.60 107.52 68.35 106.40 67.50 105.85 L 66.69 105.33 C 65.84 104.78 64.71 105.03 64.17 105.87 C 63.62 106.72 63.87 107.85 64.71 108.40 Z M 65.57 108.95 L 66.42 109.46 C 67.29 109.98 68.41 109.70 68.93 108.84 C 69.45 107.97 69.17 106.85 68.31 106.33 L 67.46 105.82 C 66.60 105.30 65.47 105.58 64.95 106.44 C 64.43 107.31 64.71 108.43 65.57 108.95 Z M 66.51 109.51 L 67.41 109.99 C 68.31 110.47 69.42 110.12 69.89 109.23 C 70.36 108.34 70.02 107.23 69.13 106.75 L 68.22 106.28 C 67.33 105.80 66.22 106.14 65.74 107.04 C 65.27 107.93 65.61 109.04 66.51 109.51 Z M 67.53 110.05 L 68.37 110.42 C 69.29 110.84 70.38 110.42 70.79 109.49 C 71.20 108.56 70.78 107.48 69.85 107.07 L 69.01 106.70 C 68.09 106.29 67.00 106.70 66.59 107.63 C 66.18 108.56 66.60 109.64 67.53 110.05 Z M 68.47 110.47 L 69.33 110.79 C 70.28 111.15 71.34 110.66 71.70 109.71 C 72.05 108.76 71.57 107.70 70.62 107.35 L 69.75 107.02 C 68.80 106.67 67.74 107.15 67.39 108.10 C 67.03 109.06 67.52 110.11 68.47 110.47 Z M 69.41 110.82 L 70.37 111.13 C 71.34 111.44 72.37 110.90 72.68 109.93 C 72.99 108.96 72.45 107.93 71.48 107.62 L 70.53 107.31 C 69.56 107.01 68.53 107.54 68.22 108.51 C 67.91 109.48 68.45 110.51 69.41 110.82 Z M 70.44 111.15 L 71.50 111.44 C 72.48 111.71 73.50 111.14 73.77 110.15 C 74.04 109.17 73.46 108.16 72.48 107.89 L 71.42 107.59 C 70.43 107.32 69.42 107.90 69.15 108.88 C 68.88 109.86 69.45 110.88 70.44 111.15 Z M 71.55 111.46 L 72.55 111.70 C 73.54 111.95 74.54 111.34 74.78 110.35 C 75.03 109.36 74.42 108.36 73.43 108.12 L 72.43 107.87 C 71.44 107.63 70.44 108.23 70.20 109.22 C 69.95 110.21 70.56 111.21 71.55 111.46 Z M 72.58 111.71 L 73.53 111.93 C 74.53 112.15 75.52 111.53 75.75 110.53 C 75.97 109.54 75.35 108.55 74.35 108.32 L 73.40 108.11 C 72.40 107.88 71.41 108.51 71.19 109.50 C 70.96 110.50 71.59 111.49 72.58 111.71 Z M 73.56 111.94 L 74.55 112.15 C 75.55 112.36 76.53 111.72 76.74 110.72 C 76.95 109.72 76.32 108.74 75.32 108.52 L 74.32 108.32 C 73.32 108.11 72.34 108.75 72.13 109.75 C 71.92 110.74 72.56 111.73 73.56 111.94 Z M 74.58 112.15 L 75.59 112.35 C 76.59 112.55 77.56 111.89 77.76 110.89 C 77.96 109.89 77.30 108.91 76.30 108.72 L 75.29 108.52 C 74.29 108.32 73.32 108.98 73.12 109.98 C 72.92 110.98 73.58 111.95 74.58 112.15 Z M 75.61 112.35 L 76.62 112.54 C 77.63 112.72 78.59 112.06 78.77 111.05 C 78.96 110.04 78.29 109.08 77.28 108.90 L 76.28 108.71 C 75.27 108.53 74.31 109.19 74.12 110.20 C 73.94 111.21 74.61 112.17 75.61 112.35 Z M 76.64 112.54 L 77.64 112.71 C 78.65 112.88 79.60 112.20 79.77 111.19 C 79.94 110.18 79.26 109.23 78.25 109.06 L 77.26 108.89 C 76.25 108.72 75.29 109.40 75.13 110.41 C 74.96 111.42 75.64 112.37 76.64 112.54 Z M 77.67 112.72 L 78.71 112.87 C 79.72 113.03 80.66 112.33 80.82 111.32 C 80.97 110.31 80.27 109.36 79.26 109.21 L 78.22 109.05 C 77.21 108.90 76.27 109.59 76.11 110.61 C 75.96 111.62 76.66 112.56 77.67 112.72 Z M 78.74 112.88 L 79.74 113.01 C 80.76 113.14 81.69 112.43 81.82 111.41 C 81.96 110.40 81.24 109.47 80.23 109.33 L 79.23 109.20 C 78.21 109.07 77.28 109.78 77.15 110.80 C 77.01 111.82 77.73 112.75 78.74 112.88 Z M 79.78 113.02 L 80.76 113.12 C 81.78 113.23 82.70 112.50 82.81 111.48 C 82.92 110.46 82.18 109.55 81.16 109.44 L 80.19 109.33 C 79.17 109.22 78.25 109.95 78.14 110.97 C 78.03 111.99 78.77 112.91 79.78 113.02 Z M 80.80 113.13 L 81.77 113.21 C 82.79 113.30 83.69 112.54 83.78 111.52 C 83.87 110.50 83.11 109.60 82.09 109.51 L 81.12 109.43 C 80.10 109.34 79.20 110.10 79.11 111.12 C 79.03 112.14 79.78 113.04 80.80 113.13 Z M 81.81 113.22 L 82.79 113.28 C 83.82 113.34 84.70 112.56 84.76 111.54 C 84.82 110.52 84.05 109.64 83.02 109.57 L 82.05 109.51 C 81.02 109.45 80.14 110.22 80.08 111.25 C 80.01 112.27 80.79 113.15 81.81 113.22 Z M 82.83 113.28 L 83.86 113.32 C 84.88 113.36 85.75 112.57 85.79 111.54 C 85.83 110.52 85.03 109.65 84.01 109.61 L 82.98 109.57 C 81.96 109.53 81.09 110.32 81.05 111.35 C 81.01 112.37 81.81 113.24 82.83 113.28 Z M 83.89 113.32 L 84.92 113.35 C 85.94 113.37 86.79 112.56 86.82 111.53 C 86.84 110.51 86.03 109.66 85.00 109.63 L 83.98 109.61 C 82.95 109.59 82.10 110.40 82.08 111.42 C 82.05 112.45 82.87 113.30 83.89 113.32 Z M 84.94 113.35 L 85.95 113.36 C 86.97 113.37 87.81 112.55 87.82 111.52 C 87.83 110.50 87.01 109.65 85.99 109.64 L 84.98 109.63 C 83.95 109.62 83.11 110.44 83.10 111.47 C 83.09 112.50 83.91 113.34 84.94 113.35 Z M 85.96 113.36 L 86.93 113.36 C 87.96 113.36 88.80 112.54 88.80 111.51 C 88.80 110.48 87.97 109.65 86.95 109.65 L 85.97 109.64 C 84.95 109.64 84.11 110.47 84.11 111.49 C 84.11 112.52 84.93 113.36 85.96 113.36 Z M 86.94 113.36 L 87.95 113.36 C 88.97 113.36 89.81 112.53 89.81 111.50 C 89.81 110.48 88.97 109.65 87.95 109.65 L 86.94 109.65 C 85.91 109.65 85.08 110.48 85.08 111.50 C 85.08 112.53 85.91 113.36 86.94 113.36 Z M 87.95 113.36 L 89.00 113.36 C 90.03 113.36 90.86 112.53 90.86 111.50 C 90.86 110.48 90.03 109.65 89.00 109.65 L 87.95 109.65 C 86.92 109.65 86.09 110.48 86.09 111.50 C 86.09 112.53 86.92 113.36 87.95 113.36 Z M 89.00 113.36 L 89.99 113.36 C 91.02 113.36 91.85 112.53 91.85 111.50 C 91.85 110.48 91.02 109.64 89.99 109.64 L 89.00 109.64 C 87.97 109.64 87.14 110.48 87.14 111.50 C 87.14 112.53 87.97 113.36 89.00 113.36 Z M 89.99 113.36 L 90.94 113.36 C 91.97 113.36 92.80 112.53 92.80 111.50 C 92.80 110.48 91.97 109.64 90.94 109.64 L 89.99 109.64 C 88.97 109.64 88.13 110.48 88.13 111.50 C 88.13 112.53 88.97 113.36 89.99 113.36 Z M 90.94 113.36 L 91.92 113.36 C 92.95 113.36 93.78 112.53 93.78 111.50 C 93.78 110.48 92.94 109.64 91.92 109.64 L 90.94 109.64 C 89.91 109.64 89.08 110.48 89.08 111.50 C 89.08 112.53 89.91 113.36 90.94 113.36 Z M 91.92 113.37 L 92.93 113.36 C 93.96 113.36 94.79 112.53 94.79 111.50 C 94.79 110.47 93.95 109.64 92.93 109.64 L 91.91 109.64 C 90.89 109.64 90.05 110.48 90.05 111.51 C 90.06 112.54 90.89 113.37 91.92 113.37 Z M 92.94 113.37 L 93.93 113.36 C 94.96 113.35 95.79 112.51 95.79 111.48 C 95.78 110.45 94.94 109.62 93.91 109.63 L 92.92 109.64 C 91.89 109.64 91.06 110.48 91.06 111.51 C 91.07 112.54 91.91 113.37 92.94 113.37 Z M 93.95 113.36 L 94.93 113.35 C 95.96 113.33 96.79 112.48 96.77 111.45 C 96.76 110.42 95.91 109.60 94.88 109.61 L 93.89 109.63 C 92.86 109.64 92.04 110.49 92.06 111.52 C 92.07 112.55 92.92 113.38 93.95 113.36 Z M 94.96 113.35 L 95.96 113.32 C 96.99 113.29 97.80 112.43 97.77 111.40 C 97.74 110.37 96.88 109.56 95.85 109.59 L 94.85 109.61 C 93.82 109.64 93.01 110.50 93.04 111.53 C 93.07 112.56 93.92 113.38 94.96 113.35 Z M 96.00 113.32 L 96.99 113.27 C 98.02 113.22 98.82 112.34 98.76 111.31 C 98.71 110.28 97.83 109.48 96.80 109.54 L 95.81 109.59 C 94.78 109.64 93.98 110.52 94.04 111.55 C 94.09 112.58 94.97 113.37 96.00 113.32 Z M 97.05 113.26 L 98.05 113.18 C 99.08 113.09 99.84 112.19 99.76 111.16 C 99.67 110.13 98.77 109.37 97.74 109.46 L 96.74 109.54 C 95.71 109.63 94.95 110.53 95.04 111.56 C 95.12 112.59 96.03 113.35 97.05 113.26 Z M 98.12 113.17 L 99.04 113.06 C 100.06 112.93 100.79 112.00 100.66 110.98 C 100.54 109.95 99.61 109.22 98.58 109.35 L 97.67 109.46 C 96.64 109.59 95.91 110.52 96.04 111.55 C 96.17 112.57 97.10 113.30 98.12 113.17 Z M 99.11 113.05 L 100.02 112.90 C 101.04 112.74 101.73 111.78 101.56 110.76 C 101.40 109.74 100.44 109.05 99.42 109.21 L 98.51 109.36 C 97.49 109.53 96.80 110.49 96.97 111.50 C 97.13 112.52 98.09 113.21 99.11 113.05 Z M 100.07 112.89 L 101.05 112.70 C 102.07 112.51 102.73 111.53 102.53 110.51 C 102.34 109.50 101.36 108.84 100.35 109.03 L 99.36 109.22 C 98.35 109.42 97.69 110.40 97.89 111.41 C 98.08 112.43 99.06 113.09 100.07 112.89 Z M 101.10 112.69 L 102.19 112.46 C 103.20 112.24 103.84 111.24 103.62 110.24 C 103.40 109.23 102.40 108.59 101.40 108.81 L 100.30 109.04 C 99.30 109.26 98.66 110.26 98.87 111.26 C 99.09 112.27 100.09 112.91 101.10 112.69 Z M 102.21 112.45 L 103.19 112.23 C 104.19 111.99 104.82 110.99 104.59 109.99 C 104.35 108.98 103.35 108.35 102.35 108.59 L 101.37 108.81 C 100.37 109.04 99.74 110.05 99.97 111.05 C 100.20 112.06 101.21 112.68 102.21 112.45 Z M 103.20 112.22 L 104.18 111.99 C 105.18 111.75 105.80 110.74 105.56 109.74 C 105.32 108.74 104.31 108.12 103.31 108.36 L 102.33 108.59 C 101.33 108.83 100.71 109.84 100.95 110.84 C 101.19 111.84 102.20 112.46 103.20 112.22 Z M 104.19 111.99 L 105.19 111.74 C 106.19 111.50 106.81 110.49 106.56 109.48 C 106.32 108.48 105.31 107.87 104.30 108.11 L 103.30 108.36 C 102.30 108.60 101.68 109.61 101.93 110.62 C 102.17 111.62 103.18 112.23 104.19 111.99 Z M 105.20 111.74 L 106.20 111.49 C 107.20 111.24 107.81 110.23 107.56 109.23 C 107.31 108.23 106.30 107.62 105.30 107.87 L 104.30 108.11 C 103.30 108.36 102.69 109.38 102.93 110.38 C 103.18 111.38 104.20 111.99 105.20 111.74 Z M 106.20 111.49 L 107.17 111.25 C 108.17 111.00 108.78 109.98 108.53 108.98 C 108.27 107.98 107.26 107.37 106.26 107.62 L 105.29 107.87 C 104.29 108.12 103.68 109.13 103.94 110.13 C 104.19 111.14 105.20 111.74 106.20 111.49 Z M 107.17 111.25 L 108.15 111.00 C 109.15 110.74 109.76 109.73 109.51 108.73 C 109.25 107.73 108.23 107.12 107.23 107.37 L 106.25 107.62 C 105.25 107.88 104.65 108.89 104.90 109.90 C 105.16 110.90 106.17 111.50 107.17 111.25 Z M 108.16 111.00 L 109.12 110.75 C 110.12 110.49 110.72 109.47 110.47 108.47 C 110.21 107.47 109.19 106.87 108.19 107.13 L 107.23 107.38 C 106.23 107.63 105.63 108.65 105.88 109.65 C 106.14 110.65 107.16 111.25 108.16 111.00 Z M 109.14 110.74 L 110.07 110.50 C 111.06 110.23 111.66 109.20 111.39 108.21 C 111.12 107.21 110.10 106.62 109.10 106.88 L 108.17 107.13 C 107.18 107.40 106.58 108.42 106.85 109.42 C 107.12 110.42 108.14 111.01 109.14 110.74 Z M 110.09 110.49 L 111.03 110.23 C 112.02 109.95 112.60 108.92 112.33 107.92 C 112.05 106.93 111.01 106.35 110.02 106.63 L 109.08 106.89 C 108.08 107.17 107.50 108.20 107.78 109.19 C 108.06 110.19 109.09 110.77 110.09 110.49 Z M 111.05 110.22 L 112.04 109.93 C 113.03 109.64 113.60 108.60 113.31 107.61 C 113.02 106.62 111.98 106.05 110.98 106.34 L 110.00 106.63 C 109.00 106.92 108.44 107.96 108.73 108.95 C 109.02 109.95 110.06 110.51 111.05 110.22 Z M 112.06 109.93 L 113.01 109.64 C 114.00 109.33 114.55 108.29 114.25 107.30 C 113.95 106.31 112.90 105.75 111.91 106.05 L 110.96 106.34 C 109.98 106.65 109.42 107.69 109.72 108.68 C 110.02 109.67 111.07 110.23 112.06 109.93 Z M 113.02 109.64 L 114.00 109.33 C 114.99 109.02 115.54 107.97 115.24 106.98 C 114.93 105.99 113.88 105.44 112.89 105.75 L 111.90 106.05 C 110.91 106.36 110.36 107.41 110.67 108.40 C 110.97 109.39 112.03 109.94 113.02 109.64 Z M 114.00 109.33 L 115.00 109.02 C 115.99 108.71 116.54 107.66 116.23 106.67 C 115.92 105.68 114.87 105.13 113.88 105.43 L 112.89 105.74 C 111.90 106.05 111.34 107.11 111.65 108.10 C 111.96 109.09 113.01 109.64 114.00 109.33 Z M 114.99 109.03 L 115.95 108.73 C 116.95 108.43 117.51 107.38 117.20 106.38 C 116.90 105.39 115.84 104.83 114.85 105.13 L 113.89 105.43 C 112.89 105.73 112.33 106.79 112.64 107.78 C 112.94 108.78 114.00 109.33 114.99 109.03 Z M 115.94 108.74 L 116.84 108.48 C 117.84 108.18 118.40 107.13 118.11 106.13 C 117.81 105.13 116.76 104.56 115.76 104.86 L 114.87 105.13 C 113.87 105.42 113.30 106.47 113.59 107.47 C 113.89 108.47 114.94 109.04 115.94 108.74 Z M 116.80 108.49 L 117.91 108.19 C 118.91 107.91 119.51 106.87 119.23 105.87 C 118.96 104.86 117.92 104.27 116.91 104.54 L 115.80 104.84 C 114.80 105.12 114.20 106.16 114.48 107.17 C 114.75 108.17 115.79 108.77 116.80 108.49 Z M 117.84 108.21 L 118.82 107.98 C 119.83 107.74 120.47 106.72 120.23 105.70 C 119.99 104.69 118.97 104.05 117.95 104.29 L 116.98 104.52 C 115.96 104.76 115.32 105.78 115.56 106.80 C 115.80 107.81 116.82 108.45 117.84 108.21 Z M 118.73 108.00 L 119.63 107.84 C 120.66 107.65 121.34 106.66 121.15 105.63 C 120.96 104.60 119.97 103.91 118.94 104.10 L 118.04 104.27 C 117.01 104.46 116.33 105.45 116.52 106.48 C 116.71 107.51 117.70 108.19 118.73 108.00 Z M 119.53 107.86 L 120.45 107.74 C 121.49 107.60 122.23 106.65 122.09 105.60 C 121.96 104.56 121.00 103.83 119.96 103.96 L 119.04 104.08 C 118.00 104.22 117.26 105.17 117.40 106.22 C 117.53 107.26 118.49 107.99 119.53 107.86 Z M 120.36 107.76 L 121.36 107.67 C 122.41 107.58 123.19 106.66 123.10 105.61 C 123.01 104.56 122.09 103.77 121.04 103.86 L 120.04 103.95 C 118.99 104.03 118.21 104.96 118.30 106.01 C 118.39 107.06 119.31 107.84 120.36 107.76 Z M 121.29 107.69 L 122.30 107.64 C 123.36 107.58 124.17 106.68 124.12 105.62 C 124.07 104.56 123.17 103.75 122.11 103.80 L 121.10 103.85 C 120.04 103.90 119.23 104.80 119.28 105.86 C 119.33 106.92 120.23 107.74 121.29 107.69 Z M 122.26 107.65 L 123.26 107.62 C 124.32 107.59 125.16 106.70 125.13 105.64 C 125.10 104.57 124.21 103.73 123.15 103.76 L 122.15 103.79 C 121.08 103.82 120.24 104.71 120.27 105.77 C 120.30 106.84 121.19 107.68 122.26 107.65 Z M 123.22 107.62 L 124.22 107.61 C 125.29 107.60 126.15 106.73 126.13 105.66 C 126.12 104.59 125.25 103.73 124.18 103.74 L 123.18 103.75 C 122.11 103.77 121.26 104.64 121.27 105.71 C 121.28 106.78 122.16 107.64 123.22 107.62 Z M 124.16 107.62 L 125.15 107.64 C 126.22 107.66 127.11 106.81 127.13 105.74 C 127.15 104.66 126.30 103.78 125.23 103.76 L 124.24 103.74 C 123.17 103.72 122.28 104.57 122.26 105.64 C 122.24 106.71 123.09 107.60 124.16 107.62 Z M 125.06 107.63 L 126.06 107.70 C 127.13 107.78 128.06 106.97 128.13 105.90 C 128.20 104.83 127.39 103.90 126.32 103.83 L 125.32 103.76 C 124.25 103.69 123.33 104.50 123.25 105.57 C 123.18 106.64 123.99 107.56 125.06 107.63 Z M 125.94 107.69 L 126.93 107.82 C 127.99 107.96 128.97 107.20 129.10 106.14 C 129.24 105.08 128.49 104.10 127.42 103.96 L 126.44 103.84 C 125.38 103.70 124.40 104.45 124.26 105.52 C 124.13 106.58 124.88 107.56 125.94 107.69 Z M 126.82 107.80 L 127.80 107.99 C 128.86 108.18 129.87 107.48 130.07 106.43 C 130.27 105.37 129.57 104.36 128.51 104.16 L 127.53 103.98 C 126.47 103.79 125.46 104.48 125.26 105.54 C 125.07 106.59 125.77 107.61 126.82 107.80 Z M 127.72 107.97 L 128.70 108.20 C 129.74 108.44 130.79 107.79 131.04 106.75 C 131.28 105.70 130.63 104.66 129.59 104.41 L 128.60 104.18 C 127.56 103.94 126.51 104.59 126.27 105.63 C 126.02 106.68 126.67 107.72 127.72 107.97 Z M 128.62 108.18 L 129.59 108.45 C 130.62 108.74 131.70 108.13 131.98 107.10 C 132.27 106.06 131.67 104.99 130.63 104.70 L 129.67 104.43 C 128.63 104.14 127.56 104.75 127.27 105.78 C 126.98 106.82 127.59 107.89 128.62 108.18 Z M 129.52 108.43 L 130.47 108.73 C 131.49 109.06 132.59 108.50 132.91 107.47 C 133.24 106.45 132.68 105.36 131.66 105.03 L 130.71 104.72 C 129.68 104.40 128.59 104.96 128.26 105.98 C 127.93 107.00 128.50 108.10 129.52 108.43 Z M 130.42 108.71 L 131.35 109.04 C 132.37 109.40 133.48 108.87 133.83 107.86 C 134.19 106.85 133.66 105.74 132.65 105.38 L 131.71 105.05 C 130.70 104.69 129.59 105.22 129.23 106.23 C 128.87 107.25 129.40 108.36 130.42 108.71 Z M 131.32 109.03 L 132.26 109.38 C 133.27 109.76 134.38 109.25 134.76 108.24 C 135.14 107.23 134.62 106.11 133.62 105.74 L 132.68 105.39 C 131.67 105.01 130.55 105.53 130.18 106.53 C 129.80 107.54 130.32 108.66 131.32 109.03 Z M 132.25 109.38 L 133.14 109.72 C 134.15 110.10 135.27 109.59 135.65 108.59 C 136.03 107.59 135.53 106.46 134.52 106.08 L 133.63 105.74 C 132.63 105.36 131.50 105.87 131.12 106.87 C 130.74 107.87 131.24 109.00 132.25 109.38 Z M 133.15 109.72 L 134.04 110.06 C 135.05 110.44 136.17 109.93 136.55 108.92 C 136.93 107.91 136.42 106.79 135.41 106.42 L 134.52 106.08 C 133.51 105.70 132.39 106.21 132.01 107.22 C 131.63 108.22 132.14 109.34 133.15 109.72 Z M 134.07 110.07 L 135.01 110.41 C 136.02 110.77 137.14 110.25 137.50 109.24 C 137.87 108.23 137.34 107.11 136.33 106.75 L 135.39 106.41 C 134.38 106.04 133.26 106.56 132.90 107.57 C 132.53 108.59 133.05 109.70 134.07 110.07 Z M 135.04 110.42 L 136.06 110.77 C 137.07 111.11 138.18 110.57 138.53 109.55 C 138.87 108.53 138.33 107.42 137.31 107.08 L 136.30 106.73 C 135.28 106.39 134.17 106.93 133.83 107.95 C 133.48 108.97 134.03 110.08 135.04 110.42 Z M 136.09 110.78 L 137.01 111.07 C 138.04 111.39 139.13 110.83 139.46 109.80 C 139.78 108.77 139.21 107.68 138.19 107.35 L 137.27 107.06 C 136.24 106.74 135.15 107.31 134.82 108.33 C 134.50 109.36 135.07 110.45 136.09 110.78 Z M 137.05 111.08 L 137.98 111.36 C 139.01 111.66 140.09 111.07 140.40 110.04 C 140.70 109.01 140.11 107.92 139.08 107.62 L 138.15 107.34 C 137.12 107.04 136.03 107.63 135.73 108.66 C 135.42 109.69 136.01 110.78 137.05 111.08 Z M 138.01 111.37 L 138.98 111.63 C 140.02 111.92 141.09 111.31 141.38 110.27 C 141.67 109.23 141.06 108.16 140.02 107.87 L 139.05 107.60 C 138.01 107.32 136.94 107.93 136.65 108.97 C 136.36 110.00 136.97 111.08 138.01 111.37 Z M 139.01 111.64 L 140.01 111.90 C 141.06 112.17 142.12 111.54 142.39 110.50 C 142.66 109.45 142.03 108.39 140.99 108.12 L 139.99 107.86 C 138.94 107.59 137.88 108.22 137.61 109.27 C 137.34 110.31 137.97 111.38 139.01 111.64 Z M 140.05 111.91 L 141.07 112.16 C 142.12 112.41 143.17 111.76 143.42 110.71 C 143.67 109.66 143.03 108.61 141.98 108.36 L 140.95 108.11 C 139.90 107.86 138.85 108.51 138.60 109.56 C 138.35 110.61 139.00 111.66 140.05 111.91 Z M 141.10 112.16 L 142.13 112.39 C 143.18 112.62 144.23 111.95 144.46 110.90 C 144.69 109.85 144.02 108.80 142.97 108.57 L 141.94 108.35 C 140.89 108.12 139.85 108.78 139.62 109.84 C 139.38 110.89 140.05 111.93 141.10 112.16 Z M 142.16 112.40 L 143.18 112.60 C 144.24 112.82 145.27 112.13 145.48 111.08 C 145.70 110.02 145.01 108.99 143.96 108.77 L 142.94 108.57 C 141.88 108.35 140.85 109.03 140.63 110.09 C 140.42 111.15 141.10 112.18 142.16 112.40 Z M 143.21 112.61 L 144.20 112.79 C 145.26 112.99 146.28 112.30 146.48 111.24 C 146.68 110.18 145.98 109.15 144.92 108.95 L 143.93 108.77 C 142.87 108.57 141.85 109.27 141.65 110.33 C 141.45 111.39 142.15 112.41 143.21 112.61 Z M 144.22 112.80 L 145.17 112.97 C 146.24 113.15 147.25 112.44 147.44 111.38 C 147.62 110.31 146.91 109.30 145.85 109.12 L 144.90 108.95 C 143.83 108.76 142.82 109.48 142.64 110.54 C 142.45 111.60 143.16 112.61 144.22 112.80 Z M 145.20 112.97 L 146.16 113.13 C 147.23 113.30 148.23 112.57 148.40 111.51 C 148.57 110.44 147.85 109.44 146.78 109.27 L 145.82 109.11 C 144.76 108.94 143.75 109.66 143.58 110.73 C 143.41 111.79 144.13 112.80 145.20 112.97 Z M 146.19 113.13 L 147.26 113.29 C 148.33 113.44 149.32 112.70 149.48 111.63 C 149.63 110.57 148.90 109.57 147.83 109.42 L 146.75 109.26 C 145.69 109.11 144.69 109.85 144.54 110.91 C 144.38 111.98 145.12 112.97 146.19 113.13 Z M 147.30 113.29 L 148.27 113.42 C 149.34 113.55 150.32 112.80 150.46 111.73 C 150.60 110.66 149.84 109.68 148.77 109.54 L 147.79 109.41 C 146.72 109.28 145.75 110.03 145.61 111.10 C 145.47 112.17 146.23 113.15 147.30 113.29 Z M 148.30 113.42 L 149.22 113.52 C 150.29 113.65 151.26 112.88 151.38 111.80 C 151.50 110.73 150.73 109.76 149.66 109.64 L 148.75 109.54 C 147.67 109.42 146.71 110.19 146.58 111.26 C 146.46 112.33 147.23 113.30 148.30 113.42 Z M 149.24 113.53 L 150.21 113.62 C 151.28 113.73 152.24 112.95 152.35 111.88 C 152.46 110.81 151.68 109.85 150.60 109.74 L 149.64 109.64 C 148.57 109.53 147.61 110.31 147.50 111.38 C 147.39 112.46 148.17 113.42 149.24 113.53 Z M 150.23 113.63 L 151.22 113.72 C 152.30 113.81 153.24 113.02 153.34 111.95 C 153.44 110.87 152.65 109.92 151.57 109.83 L 150.58 109.74 C 149.51 109.64 148.56 110.43 148.46 111.51 C 148.36 112.58 149.16 113.53 150.23 113.63 Z M 151.25 113.72 L 152.24 113.79 C 153.32 113.88 154.25 113.07 154.34 112.00 C 154.42 110.92 153.61 109.98 152.54 109.90 L 151.55 109.83 C 150.47 109.74 149.53 110.55 149.45 111.62 C 149.37 112.70 150.17 113.63 151.25 113.72 Z M 152.27 113.79 L 153.26 113.86 C 154.33 113.92 155.26 113.11 155.32 112.03 C 155.39 110.96 154.57 110.03 153.50 109.96 L 152.51 109.90 C 151.44 109.83 150.51 110.65 150.44 111.73 C 150.38 112.80 151.19 113.73 152.27 113.79 Z M 153.28 113.86 L 154.27 113.91 C 155.35 113.96 156.26 113.13 156.31 112.05 C 156.37 110.98 155.54 110.06 154.46 110.01 L 153.47 109.96 C 152.40 109.91 151.48 110.74 151.43 111.81 C 151.38 112.89 152.21 113.80 153.28 113.86 Z M 154.30 113.91 L 155.30 113.94 C 156.38 113.98 157.28 113.14 157.32 112.06 C 157.36 110.99 156.52 110.08 155.44 110.04 L 154.44 110.01 C 153.36 109.97 152.46 110.81 152.42 111.89 C 152.38 112.96 153.22 113.87 154.30 113.91 Z M 155.33 113.94 L 156.35 113.97 C 157.42 113.99 158.32 113.14 158.34 112.06 C 158.37 110.99 157.51 110.09 156.44 110.07 L 155.42 110.04 C 154.34 110.02 153.45 110.87 153.42 111.95 C 153.40 113.02 154.25 113.92 155.33 113.94 Z M 156.37 113.97 L 157.38 113.98 C 158.46 113.99 159.34 113.12 159.35 112.05 C 159.36 110.97 158.50 110.09 157.42 110.08 L 156.41 110.07 C 155.33 110.06 154.45 110.92 154.44 112.00 C 154.43 113.07 155.29 113.95 156.37 113.97 Z M 157.41 113.98 L 158.42 113.97 C 159.50 113.96 160.36 113.09 160.36 112.01 C 160.35 110.93 159.47 110.07 158.40 110.07 L 157.39 110.08 C 156.31 110.08 155.45 110.96 155.45 112.04 C 155.46 113.11 156.34 113.98 157.41 113.98 Z M 158.46 113.97 L 159.44 113.94 C 160.52 113.92 161.37 113.02 161.34 111.95 C 161.31 110.87 160.42 110.02 159.34 110.05 L 158.36 110.07 C 157.28 110.10 156.43 110.99 156.46 112.07 C 156.49 113.15 157.38 114.00 158.46 113.97 Z M 159.50 113.94 L 160.45 113.89 C 161.52 113.84 162.35 112.92 162.29 111.84 C 162.23 110.77 161.32 109.94 160.24 110.00 L 159.29 110.05 C 158.22 110.11 157.39 111.02 157.45 112.10 C 157.50 113.17 158.42 114.00 159.50 113.94 Z M 160.54 113.89 L 161.50 113.79 C 162.57 113.68 163.35 112.72 163.24 111.65 C 163.13 110.58 162.18 109.80 161.10 109.91 L 160.15 110.01 C 159.08 110.11 158.30 111.07 158.40 112.14 C 158.51 113.21 159.47 113.99 160.54 113.89 Z M 161.62 113.77 L 162.63 113.60 C 163.69 113.42 164.41 112.42 164.23 111.36 C 164.05 110.29 163.05 109.58 161.99 109.76 L 160.98 109.93 C 159.91 110.11 159.20 111.11 159.38 112.17 C 159.56 113.23 160.56 113.95 161.62 113.77 Z M 162.76 113.57 L 163.77 113.33 C 164.81 113.08 165.46 112.03 165.21 110.98 C 164.96 109.94 163.90 109.29 162.86 109.54 L 161.86 109.78 C 160.81 110.03 160.16 111.09 160.41 112.13 C 160.66 113.18 161.72 113.83 162.76 113.57 Z M 163.86 113.31 L 164.81 113.03 C 165.85 112.73 166.44 111.64 166.13 110.61 C 165.83 109.58 164.75 108.99 163.72 109.29 L 162.76 109.57 C 161.73 109.87 161.14 110.95 161.44 111.99 C 161.74 113.02 162.83 113.61 163.86 113.31 Z M 164.87 113.01 L 165.85 112.69 C 166.87 112.36 167.43 111.26 167.09 110.23 C 166.76 109.21 165.66 108.65 164.63 108.99 L 163.66 109.31 C 162.63 109.64 162.08 110.74 162.41 111.77 C 162.75 112.79 163.85 113.35 164.87 113.01 Z M 165.89 112.68 L 166.85 112.34 C 167.87 111.98 168.40 110.87 168.05 109.86 C 167.69 108.84 166.58 108.31 165.56 108.66 L 164.60 109.00 C 163.58 109.36 163.05 110.47 163.40 111.48 C 163.76 112.50 164.87 113.04 165.89 112.68 Z M 166.88 112.33 L 167.83 111.98 C 168.84 111.61 169.36 110.49 168.99 109.48 C 168.62 108.47 167.50 107.95 166.49 108.32 L 165.54 108.67 C 164.52 109.04 164.01 110.16 164.37 111.17 C 164.74 112.18 165.86 112.70 166.88 112.33 Z M 167.84 111.98 L 168.85 111.60 C 169.86 111.22 170.37 110.10 169.99 109.09 C 169.61 108.08 168.49 107.57 167.48 107.95 L 166.48 108.33 C 165.47 108.71 164.96 109.83 165.34 110.84 C 165.71 111.84 166.84 112.35 167.84 111.98 Z M 168.86 111.60 L 169.78 111.24 C 170.78 110.86 171.29 109.74 170.90 108.73 C 170.52 107.73 169.40 107.22 168.39 107.60 L 167.47 107.96 C 166.46 108.34 165.96 109.46 166.34 110.47 C 166.73 111.47 167.85 111.98 168.86 111.60 Z M 169.78 111.24 L 170.65 110.91 C 171.65 110.53 172.16 109.40 171.77 108.40 C 171.39 107.39 170.27 106.89 169.26 107.27 L 168.39 107.61 C 167.39 107.99 166.88 109.11 167.27 110.12 C 167.65 111.12 168.77 111.63 169.78 111.24 Z M 170.64 110.91 L 171.56 110.57 C 172.57 110.19 173.08 109.07 172.70 108.06 C 172.32 107.05 171.20 106.55 170.19 106.92 L 169.27 107.27 C 168.27 107.65 167.76 108.77 168.14 109.78 C 168.51 110.78 169.64 111.29 170.64 110.91 Z M 171.56 110.57 L 172.49 110.22 C 173.50 109.84 174.01 108.72 173.64 107.72 C 173.26 106.71 172.14 106.20 171.14 106.57 L 170.20 106.92 C 169.19 107.30 168.68 108.42 169.06 109.42 C 169.43 110.43 170.55 110.94 171.56 110.57 Z M 172.50 110.21 L 173.43 109.86 C 174.43 109.48 174.94 108.36 174.56 107.36 C 174.19 106.36 173.06 105.85 172.06 106.23 L 171.13 106.58 C 170.13 106.96 169.62 108.08 170.00 109.08 C 170.38 110.08 171.50 110.59 172.50 110.21 Z M 173.45 109.85 L 174.36 109.50 C 175.36 109.11 175.86 107.99 175.47 106.99 C 175.08 105.99 173.96 105.49 172.96 105.88 L 172.05 106.24 C 171.05 106.62 170.55 107.75 170.94 108.75 C 171.32 109.75 172.45 110.24 173.45 109.85 Z M 174.37 109.50 L 175.29 109.14 C 176.28 108.75 176.78 107.62 176.39 106.62 C 175.99 105.63 174.87 105.13 173.87 105.52 L 172.95 105.88 C 171.96 106.27 171.46 107.40 171.86 108.40 C 172.25 109.40 173.37 109.89 174.37 109.50 Z M 175.27 109.14 L 176.21 108.78 C 177.21 108.40 177.71 107.28 177.33 106.28 C 176.95 105.28 175.83 104.78 174.83 105.16 L 173.89 105.52 C 172.89 105.90 172.38 107.02 172.77 108.02 C 173.15 109.02 174.27 109.52 175.27 109.14 Z M 176.17 108.80 L 177.12 108.46 C 178.13 108.10 178.66 106.99 178.30 105.98 C 177.93 104.97 176.82 104.44 175.82 104.81 L 174.87 105.15 C 173.86 105.51 173.33 106.62 173.70 107.63 C 174.06 108.63 175.17 109.16 176.17 108.80 Z M 177.08 108.47 L 178.02 108.16 C 179.03 107.82 179.58 106.72 179.24 105.71 C 178.90 104.69 177.81 104.14 176.79 104.48 L 175.86 104.79 C 174.84 105.13 174.29 106.23 174.63 107.24 C 174.97 108.26 176.07 108.81 177.08 108.47 Z M 177.99 108.17 L 178.95 107.86 C 179.97 107.54 180.54 106.45 180.21 105.43 C 179.89 104.41 178.80 103.84 177.78 104.17 L 176.82 104.47 C 175.80 104.80 175.23 105.89 175.56 106.91 C 175.88 107.93 176.97 108.49 177.99 108.17 Z M 178.94 107.87 L 179.91 107.57 C 180.93 107.25 181.51 106.16 181.19 105.14 C 180.87 104.12 179.79 103.54 178.76 103.86 L 177.79 104.16 C 176.77 104.48 176.19 105.57 176.51 106.59 C 176.83 107.61 177.91 108.18 178.94 107.87 Z M 179.91 107.57 L 180.88 107.27 C 181.90 106.96 182.48 105.87 182.17 104.85 C 181.85 103.82 180.77 103.25 179.74 103.56 L 178.77 103.86 C 177.74 104.17 177.17 105.26 177.48 106.28 C 177.80 107.31 178.88 107.88 179.91 107.57 Z M 180.87 107.28 L 181.83 106.99 C 182.86 106.68 183.45 105.60 183.14 104.57 C 182.83 103.54 181.75 102.96 180.72 103.27 L 179.76 103.55 C 178.73 103.86 178.14 104.94 178.45 105.97 C 178.76 107.00 179.84 107.58 180.87 107.28 Z M 181.80 107.00 L 182.76 106.73 C 183.79 106.44 184.40 105.37 184.11 104.34 C 183.82 103.31 182.75 102.70 181.72 102.99 L 180.76 103.25 C 179.72 103.54 179.12 104.61 179.41 105.65 C 179.69 106.68 180.77 107.29 181.80 107.00 Z M 182.70 106.75 L 183.67 106.51 C 184.71 106.25 185.35 105.20 185.09 104.16 C 184.83 103.11 183.78 102.48 182.74 102.73 L 181.77 102.97 C 180.73 103.23 180.09 104.28 180.35 105.33 C 180.61 106.37 181.66 107.01 182.70 106.75 Z M 183.59 106.53 L 184.59 106.33 C 185.64 106.11 186.33 105.09 186.11 104.03 C 185.90 102.98 184.87 102.30 183.82 102.51 L 182.81 102.71 C 181.76 102.93 181.08 103.96 181.29 105.01 C 181.51 106.06 182.53 106.74 183.59 106.53 Z M 184.49 106.35 L 185.48 106.20 C 186.54 106.04 187.27 105.05 187.11 103.98 C 186.95 102.92 185.96 102.18 184.89 102.34 L 183.91 102.49 C 182.85 102.65 182.11 103.64 182.27 104.71 C 182.44 105.77 183.43 106.51 184.49 106.35 Z M 185.36 106.22 L 186.33 106.13 C 187.40 106.03 188.19 105.08 188.09 104.00 C 187.99 102.93 187.04 102.14 185.97 102.24 L 185.01 102.33 C 183.93 102.42 183.14 103.38 183.24 104.45 C 183.34 105.52 184.29 106.31 185.36 106.22 Z M 186.17 106.14 L 187.07 106.13 C 188.15 106.11 189.02 105.23 189.01 104.15 C 188.99 103.07 188.11 102.21 187.03 102.22 L 186.12 102.23 C 185.05 102.24 184.18 103.13 184.19 104.21 C 184.21 105.28 185.09 106.15 186.17 106.14 Z M 186.77 106.11 L 187.71 106.24 C 188.78 106.39 189.77 105.65 189.92 104.58 C 190.07 103.51 189.33 102.52 188.26 102.37 L 187.33 102.24 C 186.26 102.08 185.27 102.83 185.12 103.90 C 184.96 104.96 185.71 105.95 186.77 106.11 Z M 187.32 106.14 L 188.32 106.51 C 189.34 106.87 190.46 106.35 190.83 105.33 C 191.19 104.31 190.67 103.19 189.65 102.83 L 188.65 102.47 C 187.63 102.10 186.51 102.63 186.15 103.64 C 185.78 104.66 186.31 105.78 187.32 106.14 Z M 188.01 106.36 L 188.88 106.86 C 189.82 107.41 191.01 107.09 191.55 106.15 C 192.09 105.22 191.77 104.02 190.84 103.48 L 189.97 102.97 C 189.03 102.43 187.84 102.75 187.30 103.69 C 186.75 104.62 187.07 105.82 188.01 106.36 Z M 188.71 106.76 L 189.49 107.32 C 190.37 107.95 191.59 107.76 192.22 106.88 C 192.85 106.00 192.66 104.78 191.78 104.15 L 191.01 103.59 C 190.13 102.95 188.91 103.15 188.28 104.03 C 187.64 104.90 187.84 106.12 188.71 106.76 Z M 189.41 107.26 L 190.21 107.90 C 191.05 108.58 192.28 108.44 192.96 107.60 C 193.64 106.76 193.50 105.53 192.66 104.85 L 191.86 104.21 C 191.02 103.53 189.79 103.67 189.11 104.51 C 188.43 105.35 188.57 106.58 189.41 107.26 Z M 190.17 107.87 L 190.98 108.55 C 191.80 109.25 193.04 109.14 193.74 108.32 C 194.43 107.49 194.33 106.26 193.50 105.56 L 192.70 104.88 C 191.87 104.18 190.64 104.29 189.94 105.11 C 189.24 105.94 189.35 107.17 190.17 107.87 Z M 190.97 108.55 L 191.76 109.22 C 192.59 109.92 193.82 109.82 194.52 108.99 C 195.22 108.17 195.12 106.93 194.30 106.23 L 193.51 105.56 C 192.68 104.86 191.45 104.96 190.75 105.79 C 190.05 106.61 190.15 107.85 190.97 108.55 Z M 191.79 109.25 L 192.61 109.91 C 193.45 110.60 194.69 110.47 195.37 109.63 C 196.05 108.79 195.93 107.56 195.09 106.88 L 194.27 106.21 C 193.43 105.52 192.19 105.65 191.51 106.49 C 190.83 107.33 190.95 108.56 191.79 109.25 Z M 192.68 109.97 L 193.55 110.61 C 194.42 111.26 195.64 111.08 196.29 110.21 C 196.94 109.34 196.75 108.11 195.89 107.46 L 195.02 106.82 C 194.15 106.17 192.92 106.36 192.28 107.23 C 191.63 108.09 191.81 109.32 192.68 109.97 Z M 193.65 110.68 L 194.48 111.22 C 195.39 111.81 196.60 111.56 197.19 110.65 C 197.78 109.74 197.53 108.52 196.62 107.93 L 195.78 107.39 C 194.88 106.80 193.66 107.06 193.07 107.97 C 192.48 108.88 192.74 110.09 193.65 110.68 Z M 194.61 111.30 L 195.43 111.75 C 196.38 112.27 197.58 111.92 198.10 110.97 C 198.62 110.02 198.26 108.82 197.31 108.30 L 196.49 107.85 C 195.54 107.34 194.34 107.69 193.82 108.64 C 193.31 109.59 193.66 110.78 194.61 111.30 Z M 195.58 111.83 L 196.44 112.20 C 197.43 112.63 198.59 112.18 199.02 111.19 C 199.46 110.20 199.01 109.04 198.01 108.60 L 197.16 108.23 C 196.17 107.79 195.01 108.25 194.57 109.24 C 194.14 110.23 194.59 111.39 195.58 111.83 Z M 196.60 112.26 L 197.56 112.59 C 198.59 112.93 199.70 112.38 200.05 111.35 C 200.40 110.32 199.84 109.21 198.81 108.86 L 197.85 108.54 C 196.82 108.19 195.71 108.75 195.36 109.77 C 195.02 110.80 195.57 111.92 196.60 112.26 Z M 197.70 112.63 L 198.69 112.88 C 199.74 113.15 200.81 112.51 201.07 111.46 C 201.34 110.40 200.70 109.33 199.65 109.07 L 198.67 108.82 C 197.62 108.55 196.55 109.19 196.28 110.24 C 196.02 111.29 196.65 112.36 197.70 112.63 Z M 198.80 112.91 L 199.78 113.09 C 200.85 113.29 201.88 112.59 202.08 111.52 C 202.28 110.45 201.58 109.43 200.51 109.23 L 199.53 109.04 C 198.47 108.84 197.44 109.54 197.24 110.61 C 197.03 111.68 197.74 112.70 198.80 112.91 Z M 199.88 113.11 L 200.83 113.24 C 201.91 113.39 202.90 112.64 203.05 111.56 C 203.20 110.48 202.45 109.49 201.37 109.34 L 200.42 109.21 C 199.34 109.06 198.35 109.81 198.20 110.89 C 198.05 111.96 198.80 112.96 199.88 113.11 Z M 200.91 113.25 L 201.85 113.34 C 202.93 113.44 203.89 112.65 204.00 111.57 C 204.10 110.49 203.31 109.53 202.23 109.42 L 201.29 109.33 C 200.21 109.23 199.25 110.02 199.14 111.10 C 199.04 112.18 199.83 113.14 200.91 113.25 Z M 201.92 113.34 L 202.88 113.40 C 203.97 113.47 204.90 112.64 204.96 111.55 C 205.03 110.47 204.20 109.54 203.12 109.47 L 202.16 109.42 C 201.07 109.35 200.14 110.18 200.08 111.26 C 200.01 112.35 200.84 113.28 201.92 113.34 Z M 202.94 113.40 L 203.97 113.44 C 205.06 113.47 205.97 112.62 206.00 111.53 C 206.03 110.45 205.18 109.54 204.10 109.50 L 203.06 109.47 C 201.98 109.44 201.07 110.29 201.03 111.37 C 201.00 112.46 201.85 113.37 202.94 113.40 Z M 204.00 113.44 L 205.05 113.45 C 206.14 113.47 207.03 112.61 207.05 111.52 C 207.07 110.43 206.20 109.54 205.11 109.52 L 204.07 109.50 C 202.98 109.49 202.08 110.35 202.07 111.44 C 202.05 112.53 202.92 113.42 204.00 113.44 Z M 205.07 113.46 L 206.07 113.46 C 207.15 113.47 208.04 112.60 208.05 111.51 C 208.06 110.43 207.19 109.54 206.10 109.53 L 205.10 109.52 C 204.01 109.51 203.12 110.38 203.11 111.47 C 203.11 112.56 203.98 113.45 205.07 113.46 Z M 206.08 113.46 L 207.12 113.47 C 208.20 113.47 209.09 112.59 209.09 111.50 C 209.09 110.42 208.21 109.53 207.13 109.53 L 206.09 109.53 C 205.00 109.53 204.12 110.40 204.12 111.49 C 204.11 112.58 204.99 113.46 206.08 113.46 Z M 207.13 113.47 L 208.16 113.46 C 209.25 113.46 210.12 112.58 210.12 111.49 C 210.12 110.40 209.23 109.52 208.15 109.53 L 207.12 109.53 C 206.03 109.53 205.15 110.42 205.15 111.50 C 205.16 112.59 206.04 113.47 207.13 113.47 Z M 208.17 113.46 L 209.15 113.45 C 210.24 113.44 211.11 112.56 211.10 111.47 C 211.09 110.38 210.20 109.51 209.11 109.52 L 208.13 109.53 C 207.05 109.54 206.17 110.43 206.18 111.51 C 206.19 112.60 207.08 113.47 208.17 113.46 Z M 209.17 113.45 L 210.25 113.43 C 211.34 113.42 212.20 112.52 212.18 111.43 C 212.16 110.34 211.27 109.48 210.18 109.50 L 209.09 109.52 C 208.01 109.54 207.14 110.43 207.16 111.52 C 207.18 112.61 208.08 113.47 209.17 113.45 Z M 210.28 113.43 L 211.32 113.40 C 212.41 113.36 213.26 112.45 213.22 111.36 C 213.18 110.28 212.27 109.43 211.18 109.46 L 210.15 109.50 C 209.06 109.54 208.21 110.45 208.25 111.53 C 208.29 112.62 209.20 113.47 210.28 113.43 Z M 211.37 113.40 L 212.31 113.34 C 213.39 113.27 214.22 112.34 214.15 111.25 C 214.08 110.17 213.15 109.34 212.07 109.41 L 211.13 109.47 C 210.05 109.53 209.22 110.47 209.29 111.55 C 209.35 112.64 210.29 113.46 211.37 113.40 Z M 212.37 113.33 L 213.28 113.25 C 214.36 113.14 215.16 112.18 215.05 111.10 C 214.95 110.02 213.99 109.22 212.91 109.33 L 212.00 109.41 C 210.92 109.52 210.12 110.48 210.23 111.56 C 210.33 112.64 211.29 113.44 212.37 113.33 Z M 213.34 113.24 L 214.32 113.12 C 215.40 112.98 216.16 111.99 216.02 110.91 C 215.89 109.84 214.90 109.07 213.82 109.21 L 212.84 109.33 C 211.77 109.47 211.00 110.46 211.14 111.54 C 211.28 112.61 212.26 113.38 213.34 113.24 Z M 214.36 113.11 L 215.35 112.97 C 216.42 112.81 217.17 111.81 217.01 110.73 C 216.85 109.66 215.85 108.91 214.78 109.07 L 213.79 109.21 C 212.71 109.37 211.97 110.37 212.12 111.45 C 212.28 112.52 213.28 113.27 214.36 113.11 Z M 215.35 112.97 L 216.35 112.82 C 217.43 112.66 218.17 111.66 218.01 110.58 C 217.85 109.51 216.85 108.76 215.78 108.92 L 214.77 109.07 C 213.70 109.23 212.96 110.23 213.12 111.31 C 213.27 112.38 214.27 113.12 215.35 112.97 Z M 216.34 112.82 L 217.27 112.69 C 218.35 112.54 219.10 111.55 218.95 110.47 C 218.80 109.39 217.81 108.64 216.73 108.79 L 215.80 108.92 C 214.72 109.07 213.97 110.06 214.12 111.14 C 214.27 112.22 215.26 112.97 216.34 112.82 Z M 217.26 112.69 L 218.23 112.56 C 219.30 112.42 220.06 111.43 219.91 110.35 C 219.77 109.27 218.78 108.52 217.70 108.66 L 216.74 108.79 C 215.66 108.93 214.90 109.93 215.05 111.00 C 215.19 112.08 216.19 112.84 217.26 112.69 Z M 218.24 112.56 L 219.26 112.42 C 220.33 112.27 221.08 111.27 220.93 110.20 C 220.78 109.12 219.79 108.37 218.71 108.52 L 217.69 108.66 C 216.62 108.81 215.86 109.81 216.01 110.88 C 216.16 111.96 217.16 112.71 218.24 112.56 Z M 219.28 112.41 L 220.31 112.26 C 221.39 112.10 222.13 111.09 221.96 110.02 C 221.80 108.94 220.80 108.20 219.72 108.37 L 218.69 108.52 C 217.62 108.69 216.88 109.69 217.04 110.76 C 217.20 111.84 218.20 112.58 219.28 112.41 Z M 220.33 112.26 L 221.33 112.09 C 222.40 111.92 223.13 110.91 222.96 109.83 C 222.78 108.76 221.77 108.03 220.70 108.21 L 219.70 108.37 C 218.63 108.54 217.90 109.56 218.07 110.63 C 218.25 111.70 219.26 112.43 220.33 112.26 Z M 221.34 112.09 L 222.35 111.92 C 223.43 111.74 224.15 110.72 223.96 109.65 C 223.78 108.58 222.77 107.86 221.70 108.04 L 220.68 108.21 C 219.61 108.39 218.89 109.41 219.07 110.48 C 219.25 111.55 220.27 112.27 221.34 112.09 Z M 222.36 111.92 L 223.35 111.74 C 224.42 111.56 225.14 110.54 224.95 109.47 C 224.77 108.40 223.75 107.68 222.68 107.87 L 221.69 108.04 C 220.62 108.23 219.90 109.25 220.09 110.32 C 220.27 111.39 221.29 112.10 222.36 111.92 Z M 223.36 111.74 L 224.31 111.58 C 225.39 111.39 226.10 110.37 225.91 109.30 C 225.72 108.23 224.71 107.51 223.63 107.70 L 222.68 107.87 C 221.61 108.06 220.89 109.08 221.08 110.15 C 221.27 111.22 222.29 111.93 223.36 111.74 Z M 224.32 111.57 L 225.27 111.41 C 226.34 111.22 227.06 110.20 226.87 109.13 C 226.68 108.06 225.66 107.34 224.59 107.53 L 223.63 107.70 C 222.56 107.89 221.85 108.91 222.04 109.98 C 222.23 111.05 223.25 111.76 224.32 111.57 Z M 225.28 111.40 L 226.23 111.23 C 227.30 111.03 228.00 110.01 227.81 108.94 C 227.61 107.87 226.59 107.17 225.52 107.36 L 224.57 107.54 C 223.51 107.73 222.80 108.76 223.00 109.82 C 223.19 110.89 224.22 111.60 225.28 111.40 Z M 226.25 111.23 L 227.25 111.03 C 228.32 110.82 229.01 109.79 228.80 108.73 C 228.60 107.66 227.56 106.96 226.50 107.17 L 225.50 107.37 C 224.43 107.57 223.74 108.61 223.94 109.67 C 224.15 110.74 225.18 111.43 226.25 111.23 Z M 227.27 111.03 L 228.26 110.82 C 229.32 110.60 230.01 109.56 229.79 108.50 C 229.57 107.44 228.53 106.75 227.46 106.97 L 226.48 107.18 C 225.41 107.40 224.73 108.44 224.95 109.50 C 225.17 110.56 226.21 111.25 227.27 111.03 Z M 228.28 110.82 L 229.25 110.60 C 230.31 110.37 230.98 109.32 230.75 108.26 C 230.52 107.20 229.47 106.53 228.41 106.77 L 227.44 106.98 C 226.38 107.21 225.71 108.26 225.94 109.32 C 226.18 110.38 227.22 111.05 228.28 110.82 Z M 229.28 110.60 L 230.29 110.36 C 231.34 110.11 232.00 109.05 231.75 108.00 C 231.50 106.94 230.44 106.29 229.39 106.54 L 228.38 106.77 C 227.33 107.02 226.67 108.08 226.92 109.13 C 227.17 110.19 228.23 110.84 229.28 110.60 Z M 230.32 110.35 L 231.32 110.09 C 232.37 109.82 233.01 108.75 232.74 107.70 C 232.47 106.65 231.40 106.02 230.35 106.29 L 229.35 106.55 C 228.30 106.82 227.67 107.89 227.94 108.94 C 228.20 109.99 229.27 110.62 230.32 110.35 Z M 231.38 110.08 L 232.33 109.80 C 233.37 109.51 233.97 108.42 233.67 107.38 C 233.37 106.34 232.29 105.73 231.25 106.03 L 230.29 106.31 C 229.25 106.60 228.65 107.69 228.95 108.73 C 229.25 109.77 230.33 110.38 231.38 110.08 Z M 232.40 109.77 L 233.44 109.43 C 234.46 109.09 235.02 107.98 234.68 106.96 C 234.33 105.93 233.23 105.38 232.20 105.72 L 231.17 106.06 C 230.14 106.40 229.59 107.51 229.93 108.54 C 230.27 109.56 231.38 110.12 232.40 109.77 Z M 233.52 109.39 L 234.47 109.02 C 235.47 108.63 235.97 107.51 235.59 106.51 C 235.20 105.50 234.07 105.01 233.07 105.39 L 232.12 105.76 C 231.12 106.15 230.62 107.27 231.01 108.28 C 231.39 109.28 232.52 109.77 233.52 109.39 Z M 234.54 108.98 L 235.41 108.60 C 236.39 108.18 236.84 107.05 236.42 106.07 C 236.00 105.09 234.87 104.63 233.89 105.06 L 233.01 105.43 C 232.03 105.85 231.58 106.99 232.00 107.97 C 232.42 108.95 233.56 109.40 234.54 108.98 Z M 235.44 108.58 L 236.25 108.21 C 237.21 107.77 237.64 106.63 237.20 105.67 C 236.76 104.70 235.63 104.28 234.66 104.72 L 233.86 105.08 C 232.89 105.52 232.46 106.66 232.90 107.62 C 233.34 108.59 234.48 109.01 235.44 108.58 Z"
      fill="black"
      fill-rule="nonzero" /></svg>