<svg xmlns="http://www.w3.org/2000/svg" width="300" height="300" viewBox="0 0 300 300">
<path d="M 150.99 92.59 L 151.04 91.16 C 151.07 90.19 150.32 89.39 149.35 89.36 C 148.39 89.33 147.59 90.08 147.56 91.04 L 147.51 92.48 C 147.48 93.44 148.24 94.24 149.20 94.27 C 150.16 94.30 150.96 93.55 150.99 92.59 Z M 151.11 91.17 L 151.15 90.12 C 151.19 89.12 150.41 88.28 149.41 88.24 C 148.41 88.20 147.57 88.98 147.53 89.98 L 147.49 91.03 C 147.45 92.03 148.23 92.87 149.23 92.91 C 150.23 92.95 151.07 92.17 151.11 91.17 Z M 151.20 90.24 L 151.23 89.95 C 151.33 88.92 150.58 88.00 149.55 87.90 C 148.52 87.80 147.60 88.55 147.50 89.58 L 147.47 89.87 C 147.37 90.90 148.12 91.81 149.15 91.92 C 150.18 92.02 151.10 91.27 151.20 90.24 Z M 147.46 89.81 L 147.47 90.40 C 147.49 91.45 148.37 92.29 149.42 92.26 C 150.48 92.24 151.31 91.37 151.29 90.31 L 151.28 89.72 C 151.25 88.67 150.38 87.83 149.32 87.86 C 148.27 87.88 147.43 88.76 147.46 89.81 Z M 147.46 90.36 L 147.46 91.53 C 147.47 92.59 148.33 93.45 149.39 93.44 C 150.45 93.44 151.31 92.58 151.31 91.51 L 151.30 90.35 C 151.30 89.29 150.43 88.43 149.37 88.43 C 148.31 88.44 147.45 89.30 147.46 90.36 Z M 147.45 91.52 L 147.45 92.90 C 147.45 93.97 148.32 94.84 149.39 94.83 C 150.45 94.83 151.32 93.97 151.32 92.90 L 151.32 91.52 C 151.32 90.45 150.45 89.59 149.38 89.59 C 148.32 89.59 147.45 90.46 147.45 91.52 Z M 147.45 92.90 L 147.45 93.84 C 147.45 94.91 148.32 95.78 149.39 95.78 C 150.46 95.78 151.32 94.91 151.32 93.84 L 151.32 92.90 C 151.32 91.83 150.45 90.97 149.38 90.97 C 148.31 90.97 147.45 91.83 147.45 92.90 Z M 147.45 93.85 L 147.45 94.81 C 147.46 95.88 148.33 96.74 149.40 96.74 C 150.47 96.73 151.33 95.86 151.33 94.79 L 151.32 93.83 C 151.32 92.76 150.45 91.90 149.38 91.90 C 148.31 91.91 147.44 92.78 147.45 93.85 Z M 147.45 94.82 L 147.46 95.82 C 147.48 96.89 148.36 97.74 149.43 97.73 C 150.50 97.72 151.35 96.84 151.34 95.77 L 151.33 94.78 C 151.32 93.71 150.44 92.85 149.37 92.86 C 148.30 92.87 147.44 93.75 147.45 94.82 Z M 147.46 95.84 L 147.49 96.88 C 147.51 97.95 148.40 98.80 149.47 98.78 C 150.54 98.75 151.39 97.87 151.37 96.79 L 151.34 95.75 C 151.32 94.68 150.43 93.83 149.36 93.85 C 148.29 93.88 147.44 94.77 147.46 95.84 Z M 147.49 96.90 L 147.52 97.97 C 147.56 99.04 148.46 99.88 149.53 99.84 C 150.60 99.80 151.44 98.91 151.40 97.84 L 151.37 96.77 C 151.33 95.70 150.43 94.86 149.36 94.90 C 148.29 94.93 147.45 95.83 147.49 96.90 Z M 147.52 97.99 L 147.57 98.99 C 147.61 100.06 148.52 100.89 149.59 100.84 C 150.66 100.79 151.49 99.89 151.44 98.82 L 151.40 97.82 C 151.35 96.75 150.45 95.92 149.38 95.96 C 148.31 96.01 147.48 96.92 147.52 97.99 Z M 147.57 99.00 L 147.62 100.03 C 147.67 101.10 148.58 101.92 149.65 101.87 C 150.73 101.81 151.55 100.90 151.50 99.83 L 151.44 98.80 C 151.39 97.73 150.48 96.91 149.41 96.96 C 148.34 97.02 147.51 97.93 147.57 99.00 Z M 147.62 100.03 L 147.67 101.06 C 147.73 102.13 148.65 102.96 149.72 102.90 C 150.79 102.84 151.61 101.93 151.55 100.86 L 151.50 99.83 C 151.44 98.75 150.52 97.93 149.45 97.99 C 148.38 98.05 147.56 98.96 147.62 100.03 Z M 147.67 101.07 L 147.73 102.08 C 147.79 103.15 148.71 103.97 149.78 103.91 C 150.85 103.85 151.67 102.93 151.61 101.86 L 151.55 100.85 C 151.49 99.78 150.58 98.96 149.51 99.02 C 148.44 99.08 147.62 100.00 147.67 101.07 Z M 147.73 102.07 L 147.78 103.04 C 147.84 104.11 148.76 104.93 149.83 104.87 C 150.90 104.81 151.72 103.90 151.66 102.83 L 151.61 101.86 C 151.55 100.79 150.63 99.97 149.56 100.03 C 148.49 100.09 147.67 101.00 147.73 102.07 Z M 147.78 103.03 L 147.84 104.08 C 147.89 105.15 148.80 105.97 149.87 105.92 C 150.94 105.86 151.77 104.95 151.71 103.88 L 151.66 102.83 C 151.61 101.76 150.69 100.94 149.62 100.99 C 148.55 101.05 147.73 101.96 147.78 103.03 Z M 147.84 104.07 L 147.88 105.11 C 147.93 106.18 148.84 107.01 149.91 106.96 C 150.98 106.91 151.81 106.00 151.76 104.93 L 151.71 103.89 C 151.66 102.82 150.76 101.99 149.69 102.04 C 148.61 102.09 147.79 103.00 147.84 104.07 Z M 147.88 105.10 L 147.93 106.07 C 147.97 107.14 148.88 107.97 149.95 107.93 C 151.02 107.88 151.85 106.98 151.80 105.91 L 151.76 104.93 C 151.72 103.86 150.81 103.03 149.74 103.08 C 148.67 103.12 147.84 104.03 147.88 105.10 Z M 147.93 106.07 L 147.97 107.02 C 148.01 108.09 148.92 108.92 149.99 108.87 C 151.06 108.83 151.89 107.92 151.84 106.85 L 151.80 105.91 C 151.76 104.84 150.85 104.00 149.78 104.05 C 148.71 104.10 147.88 105.00 147.93 106.07 Z M 147.97 107.02 L 148.01 107.97 C 148.06 109.04 148.97 109.87 150.04 109.82 C 151.11 109.77 151.94 108.86 151.89 107.79 L 151.84 106.85 C 151.80 105.77 150.89 104.95 149.82 104.99 C 148.75 105.04 147.92 105.95 147.97 107.02 Z M 148.01 107.97 L 148.06 108.91 C 148.11 109.99 149.02 110.81 150.09 110.76 C 151.16 110.70 151.99 109.79 151.93 108.72 L 151.89 107.78 C 151.83 106.71 150.92 105.89 149.85 105.94 C 148.78 105.99 147.96 106.90 148.01 107.97 Z M 148.06 108.92 L 148.11 109.90 C 148.16 110.97 149.08 111.79 150.15 111.73 C 151.22 111.68 152.04 110.76 151.98 109.69 L 151.93 108.72 C 151.88 107.65 150.96 106.82 149.89 106.88 C 148.82 106.94 148.00 107.85 148.06 108.92 Z M 148.11 109.90 L 148.16 110.91 C 148.22 111.98 149.13 112.80 150.21 112.75 C 151.28 112.69 152.10 111.78 152.04 110.70 L 151.98 109.69 C 151.93 108.62 151.01 107.80 149.94 107.86 C 148.87 107.91 148.05 108.83 148.11 109.90 Z M 148.16 110.91 L 148.22 111.96 C 148.28 113.03 149.19 113.86 150.26 113.80 C 151.33 113.74 152.15 112.83 152.10 111.76 L 152.04 110.70 C 151.98 109.63 151.07 108.81 150.00 108.87 C 148.93 108.93 148.11 109.84 148.16 110.91 Z M 148.22 111.96 L 148.27 112.97 C 148.33 114.04 149.24 114.86 150.31 114.80 C 151.38 114.75 152.20 113.83 152.15 112.76 L 152.10 111.76 C 152.04 110.69 151.13 109.86 150.06 109.92 C 148.99 109.98 148.16 110.89 148.22 111.96 Z M 148.27 112.96 L 148.32 113.94 C 148.37 115.01 149.29 115.83 150.36 115.78 C 151.43 115.73 152.25 114.81 152.20 113.74 L 152.15 112.77 C 152.09 111.70 151.18 110.87 150.11 110.93 C 149.04 110.98 148.22 111.89 148.27 112.96 Z M 148.32 113.94 L 148.37 114.93 C 148.42 116.00 149.33 116.83 150.40 116.78 C 151.47 116.73 152.30 115.82 152.25 114.74 L 152.20 113.75 C 152.15 112.68 151.24 111.85 150.17 111.90 C 149.10 111.95 148.27 112.86 148.32 113.94 Z M 148.37 114.93 L 148.41 115.94 C 148.46 117.01 149.37 117.84 150.44 117.79 C 151.51 117.74 152.34 116.83 152.29 115.76 L 152.25 114.75 C 152.20 113.68 151.29 112.85 150.22 112.90 C 149.15 112.95 148.32 113.85 148.37 114.93 Z M 148.41 115.93 L 148.46 116.95 C 148.50 118.02 149.41 118.85 150.48 118.81 C 151.55 118.76 152.38 117.86 152.34 116.79 L 152.29 115.77 C 152.25 114.70 151.34 113.86 150.27 113.91 C 149.20 113.95 148.37 114.86 148.41 115.93 Z M 148.46 116.94 L 148.49 117.95 C 148.53 119.02 149.44 119.86 150.51 119.82 C 151.58 119.78 152.41 118.88 152.37 117.81 L 152.34 116.80 C 152.30 115.72 151.39 114.89 150.32 114.93 C 149.25 114.97 148.42 115.87 148.46 116.94 Z M 148.49 117.95 L 148.53 118.93 C 148.56 120.00 149.46 120.84 150.53 120.81 C 151.60 120.77 152.44 119.87 152.41 118.80 L 152.37 117.82 C 152.34 116.74 151.44 115.91 150.37 115.94 C 149.30 115.98 148.46 116.87 148.49 117.95 Z M 148.53 118.92 L 148.56 119.91 C 148.59 120.98 149.48 121.83 150.55 121.79 C 151.63 121.76 152.47 120.87 152.44 119.80 L 152.41 118.81 C 152.37 117.74 151.48 116.89 150.41 116.93 C 149.34 116.96 148.49 117.85 148.53 118.92 Z M 148.56 119.91 L 148.58 120.90 C 148.61 121.97 149.50 122.82 150.58 122.79 C 151.65 122.76 152.49 121.87 152.46 120.80 L 152.44 119.80 C 152.41 118.73 151.51 117.89 150.44 117.91 C 149.37 117.94 148.53 118.84 148.56 119.91 Z M 148.58 120.90 L 148.61 121.90 C 148.64 122.98 149.53 123.82 150.60 123.80 C 151.67 123.77 152.51 122.88 152.49 121.81 L 152.46 120.80 C 152.44 119.73 151.55 118.88 150.47 118.91 C 149.40 118.94 148.56 119.83 148.58 120.90 Z M 148.61 121.90 L 148.63 122.92 C 148.66 123.99 149.55 124.84 150.62 124.82 C 151.69 124.79 152.54 123.90 152.51 122.83 L 152.49 121.81 C 152.46 120.74 151.57 119.89 150.50 119.92 C 149.43 119.94 148.58 120.83 148.61 121.90 Z M 148.63 122.92 L 148.66 123.90 C 148.68 124.98 149.57 125.82 150.64 125.80 C 151.71 125.77 152.56 124.89 152.53 123.81 L 152.51 122.83 C 152.49 121.76 151.60 120.91 150.53 120.94 C 149.46 120.96 148.61 121.85 148.63 122.92 Z M 148.66 123.90 L 148.68 124.88 C 148.70 125.95 149.59 126.80 150.66 126.78 C 151.73 126.75 152.58 125.87 152.56 124.80 L 152.53 123.81 C 152.51 122.74 151.62 121.90 150.55 121.92 C 149.48 121.94 148.63 122.83 148.66 123.90 Z M 148.68 124.88 L 148.70 125.88 C 148.73 126.95 149.61 127.80 150.68 127.77 C 151.75 127.75 152.60 126.86 152.58 125.79 L 152.56 124.80 C 152.53 123.73 151.64 122.88 150.57 122.90 C 149.50 122.93 148.66 123.81 148.68 124.88 Z M 148.70 125.88 L 148.72 126.88 C 148.75 127.95 149.64 128.80 150.71 128.78 C 151.78 128.75 152.62 127.86 152.60 126.79 L 152.58 125.79 C 152.55 124.72 151.67 123.87 150.60 123.89 C 149.53 123.92 148.68 124.81 148.70 125.88 Z M 148.72 126.88 L 148.75 127.90 C 148.77 128.97 149.66 129.81 150.73 129.79 C 151.80 129.77 152.65 128.88 152.62 127.81 L 152.60 126.79 C 152.58 125.72 151.69 124.88 150.62 124.90 C 149.55 124.92 148.70 125.81 148.72 126.88 Z M 148.75 127.89 L 148.77 128.92 C 148.79 129.99 149.68 130.84 150.75 130.81 C 151.82 130.79 152.67 129.90 152.64 128.83 L 152.62 127.81 C 152.60 126.74 151.71 125.89 150.64 125.92 C 149.57 125.94 148.72 126.82 148.75 127.89 Z M 148.77 128.92 L 148.79 129.91 C 148.82 130.98 149.70 131.83 150.77 131.81 C 151.84 131.79 152.69 130.90 152.67 129.83 L 152.64 128.83 C 152.62 127.77 151.73 126.92 150.67 126.94 C 149.60 126.96 148.75 127.85 148.77 128.92 Z M 148.79 129.91 L 148.81 130.91 C 148.84 131.98 149.72 132.82 150.79 132.80 C 151.86 132.78 152.71 131.89 152.69 130.82 L 152.66 129.83 C 152.64 128.76 151.76 127.91 150.69 127.94 C 149.62 127.96 148.77 128.84 148.79 129.91 Z M 148.81 130.90 L 148.83 131.90 C 148.86 132.97 149.74 133.82 150.81 133.80 C 151.88 133.78 152.73 132.89 152.70 131.83 L 152.68 130.83 C 152.66 129.76 151.78 128.91 150.71 128.93 C 149.64 128.95 148.79 129.84 148.81 130.90 Z M 148.84 131.90 L 148.85 132.90 C 148.87 133.97 149.75 134.82 150.82 134.80 C 151.89 134.78 152.74 133.90 152.72 132.83 L 152.70 131.83 C 152.68 130.76 151.80 129.91 150.73 129.93 C 149.67 129.95 148.82 130.83 148.84 131.90 Z M 148.85 132.90 L 148.87 133.90 C 148.89 134.97 149.77 135.82 150.84 135.81 C 151.90 135.79 152.75 134.91 152.74 133.84 L 152.72 132.84 C 152.70 131.77 151.82 130.92 150.76 130.93 C 149.69 130.95 148.84 131.83 148.85 132.90 Z M 148.87 133.90 L 148.88 134.90 C 148.90 135.97 149.78 136.82 150.84 136.81 C 151.91 136.80 152.76 135.92 152.75 134.85 L 152.74 133.85 C 152.72 132.78 151.85 131.92 150.78 131.94 C 149.71 131.95 148.86 132.83 148.87 133.90 Z M 148.89 134.90 L 148.90 135.90 C 148.91 136.97 149.78 137.83 150.85 137.81 C 151.91 137.80 152.77 136.93 152.76 135.86 L 152.75 134.86 C 152.74 133.79 151.86 132.94 150.80 132.95 C 149.73 132.96 148.87 133.83 148.89 134.90 Z M 148.90 135.90 L 148.90 136.90 C 148.91 137.97 149.78 138.82 150.85 138.82 C 151.91 138.81 152.77 137.94 152.77 136.87 L 152.76 135.87 C 152.75 134.80 151.88 133.94 150.81 133.95 C 149.75 133.96 148.89 134.83 148.90 135.90 Z M 148.91 136.89 L 148.91 137.90 C 148.92 138.96 149.78 139.82 150.85 139.82 C 151.91 139.81 152.77 138.94 152.77 137.88 L 152.76 136.88 C 152.76 135.81 151.89 134.95 150.83 134.96 C 149.76 134.96 148.90 135.83 148.91 136.89 Z M 148.91 137.89 L 148.91 138.89 C 148.92 139.96 149.78 140.82 150.85 140.82 C 151.91 140.81 152.77 139.95 152.77 138.88 L 152.77 137.88 C 152.76 136.82 151.90 135.96 150.83 135.96 C 149.77 135.96 148.91 136.83 148.91 137.89 Z M 148.92 138.89 L 148.92 139.89 C 148.92 140.95 149.78 141.82 150.85 141.81 C 151.91 141.81 152.77 140.95 152.77 139.89 L 152.77 138.89 C 152.77 137.82 151.90 136.96 150.84 136.96 C 149.78 136.96 148.91 137.83 148.92 138.89 Z M 148.92 139.89 L 148.92 140.88 C 148.92 141.95 149.78 142.81 150.84 142.81 C 151.91 142.81 152.77 141.95 152.77 140.88 L 152.77 139.89 C 152.77 138.82 151.91 137.96 150.84 137.96 C 149.78 137.96 148.92 138.83 148.92 139.89 Z M 148.92 140.88 L 148.92 141.88 C 148.92 142.94 149.78 143.80 150.84 143.80 C 151.91 143.80 152.77 142.94 152.77 141.88 L 152.77 140.88 C 152.77 139.82 151.91 138.96 150.84 138.96 C 149.78 138.96 148.92 139.82 148.92 140.88 Z M 148.92 141.88 L 148.92 142.87 C 148.92 143.93 149.78 144.79 150.84 144.79 C 151.91 144.79 152.77 143.93 152.77 142.87 L 152.77 141.88 C 152.77 140.82 151.91 139.96 150.84 139.96 C 149.78 139.96 148.92 140.82 148.92 141.88 Z M 148.92 142.87 L 148.92 143.86 C 148.92 144.92 149.78 145.78 150.84 145.78 C 151.90 145.78 152.76 144.92 152.76 143.86 L 152.76 142.87 C 152.76 141.81 151.90 140.95 150.84 140.95 C 149.78 140.95 148.92 141.81 148.92 142.87 Z M 148.93 143.86 L 148.93 144.85 C 148.93 145.91 149.78 146.77 150.84 146.77 C 151.90 146.77 152.76 145.91 152.76 144.85 L 152.76 143.86 C 152.76 142.80 151.90 141.94 150.84 141.94 C 149.78 141.94 148.93 142.80 148.93 143.86 Z M 148.93 144.85 L 148.93 145.86 C 148.93 146.91 149.79 147.77 150.84 147.77 C 151.90 147.77 152.76 146.91 152.76 145.86 L 152.76 144.85 C 152.76 143.80 151.90 142.94 150.84 142.94 C 149.79 142.94 148.93 143.80 148.93 144.85 Z M 148.93 145.86 L 148.93 146.86 C 148.93 147.92 149.79 148.78 150.84 148.78 C 151.90 148.78 152.76 147.92 152.76 146.86 L 152.76 145.86 C 152.76 144.80 151.90 143.94 150.84 143.94 C 149.79 143.94 148.93 144.80 148.93 145.86 Z M 148.93 146.86 L 148.93 147.88 C 148.93 148.94 149.79 149.80 150.84 149.80 C 151.90 149.80 152.76 148.94 152.76 147.88 L 152.76 146.86 C 152.76 145.81 151.90 144.95 150.84 144.95 C 149.79 144.95 148.93 145.81 148.93 146.86 Z M 148.93 147.88 L 148.93 148.90 C 148.93 149.96 149.79 150.81 150.84 150.81 C 151.90 150.81 152.76 149.96 152.76 148.90 L 152.76 147.88 C 152.76 146.83 151.90 145.97 150.84 145.97 C 149.79 145.97 148.93 146.83 148.93 147.88 Z M 148.93 148.90 L 148.93 149.92 C 148.93 150.98 149.79 151.83 150.84 151.83 C 151.90 151.83 152.75 150.98 152.75 149.92 L 152.75 148.90 C 152.75 147.85 151.90 146.99 150.84 146.99 C 149.79 146.99 148.93 147.85 148.93 148.90 Z M 148.94 149.92 L 148.94 150.94 C 148.94 151.99 149.79 152.85 150.84 152.85 C 151.90 152.85 152.75 151.99 152.75 150.94 L 152.75 149.92 C 152.75 148.87 151.90 148.02 150.84 148.02 C 149.79 148.02 148.94 148.87 148.94 149.92 Z M 148.94 150.94 L 148.94 151.94 C 148.94 153.00 149.79 153.85 150.84 153.85 C 151.90 153.85 152.75 153.00 152.75 151.94 L 152.75 150.94 C 152.75 149.89 151.90 149.03 150.84 149.03 C 149.79 149.03 148.94 149.89 148.94 150.94 Z M 148.94 151.94 L 148.94 152.93 C 148.94 153.98 149.79 154.83 150.84 154.83 C 151.89 154.83 152.75 153.98 152.75 152.93 L 152.75 151.94 C 152.75 150.89 151.89 150.04 150.84 150.04 C 149.79 150.04 148.94 150.89 148.94 151.94 Z M 148.94 152.93 L 148.94 153.89 C 148.94 154.94 149.79 155.79 150.84 155.79 C 151.89 155.79 152.74 154.94 152.74 153.89 L 152.74 152.93 C 152.74 151.88 151.89 151.03 150.84 151.03 C 149.79 151.03 148.94 151.88 148.94 152.93 Z M 148.95 153.89 L 148.95 154.95 C 148.95 155.99 149.80 156.84 150.84 156.84 C 151.89 156.84 152.74 155.99 152.74 154.95 L 152.74 153.89 C 152.74 152.84 151.89 151.99 150.84 151.99 C 149.80 151.99 148.95 152.84 148.95 153.89 Z M 148.95 154.95 L 148.95 155.98 C 148.95 157.03 149.80 157.87 150.84 157.87 C 151.89 157.87 152.74 157.03 152.74 155.98 L 152.74 154.95 C 152.74 153.90 151.89 153.05 150.84 153.05 C 149.80 153.05 148.95 153.90 148.95 154.95 Z M 148.95 155.98 L 148.95 156.98 C 148.95 158.02 149.80 158.87 150.84 158.87 C 151.89 158.87 152.74 158.02 152.74 156.98 L 152.74 155.98 C 152.74 154.93 151.89 154.09 150.84 154.09 C 149.80 154.09 148.95 154.93 148.95 155.98 Z M 148.95 156.98 L 148.95 157.95 C 148.95 158.99 149.80 159.84 150.84 159.84 C 151.89 159.84 152.73 158.99 152.73 157.95 L 152.73 156.98 C 152.73 155.93 151.89 155.09 150.84 155.09 C 149.80 155.09 148.95 155.93 148.95 156.98 Z M 148.96 157.95 L 148.96 158.91 C 148.96 159.95 149.80 160.79 150.84 160.79 C 151.89 160.79 152.73 159.95 152.73 158.91 L 152.73 157.95 C 152.73 156.91 151.89 156.06 150.84 156.06 C 149.80 156.06 148.96 156.91 148.96 157.95 Z M 148.96 158.91 L 148.96 159.89 C 148.96 160.93 149.80 161.78 150.84 161.78 C 151.88 161.78 152.73 160.93 152.73 159.89 L 152.73 158.91 C 152.73 157.87 151.88 157.02 150.84 157.02 C 149.80 157.02 148.96 157.87 148.96 158.91 Z M 148.96 159.89 L 148.96 160.91 C 148.96 161.95 149.80 162.79 150.84 162.79 C 151.88 162.79 152.73 161.95 152.73 160.91 L 152.73 159.89 C 152.73 158.85 151.88 158.01 150.84 158.01 C 149.80 158.01 148.96 158.85 148.96 159.89 Z M 148.96 160.91 L 148.96 161.91 C 148.96 162.95 149.81 163.79 150.84 163.79 C 151.88 163.79 152.72 162.95 152.72 161.91 L 152.72 160.91 C 152.72 159.87 151.88 159.03 150.84 159.03 C 149.81 159.03 148.96 159.87 148.96 160.91 Z M 148.97 161.91 L 148.97 162.91 C 148.97 163.95 149.81 164.79 150.84 164.79 C 151.88 164.79 152.72 163.95 152.72 162.91 L 152.72 161.91 C 152.72 160.88 151.88 160.04 150.84 160.04 C 149.81 160.04 148.97 160.88 148.97 161.91 Z M 148.97 162.91 L 148.97 163.89 C 148.97 164.93 149.81 165.77 150.84 165.77 C 151.88 165.77 152.72 164.93 152.72 163.89 L 152.72 162.91 C 152.72 161.88 151.88 161.04 150.84 161.04 C 149.81 161.04 148.97 161.88 148.97 162.91 Z M 148.97 163.89 L 148.97 164.90 C 148.97 165.93 149.81 166.77 150.84 166.77 C 151.88 166.77 152.71 165.93 152.71 164.90 L 152.71 163.89 C 152.71 162.86 151.88 162.02 150.84 162.02 C 149.81 162.02 148.97 162.86 148.97 163.89 Z M 148.98 164.89 L 148.97 165.91 C 148.97 166.95 149.81 167.78 150.84 167.78 C 151.87 167.79 152.71 166.95 152.71 165.92 L 152.71 164.90 C 152.71 163.87 151.88 163.03 150.85 163.03 C 149.81 163.03 148.98 163.86 148.98 164.89 Z M 148.98 165.91 L 148.97 166.91 C 148.97 167.94 149.80 168.78 150.83 168.78 C 151.86 168.79 152.69 167.96 152.70 166.93 L 152.71 165.93 C 152.71 164.90 151.88 164.06 150.85 164.05 C 149.82 164.05 148.98 164.88 148.98 165.91 Z M 148.98 166.90 L 148.97 167.89 C 148.95 168.91 149.78 169.76 150.80 169.77 C 151.83 169.78 152.67 168.96 152.68 167.93 L 152.70 166.94 C 152.71 165.92 151.89 165.07 150.86 165.06 C 149.83 165.05 148.99 165.87 148.98 166.90 Z M 148.97 167.87 L 148.95 168.84 C 148.93 169.87 149.74 170.72 150.76 170.74 C 151.79 170.76 152.64 169.95 152.66 168.93 L 152.68 167.95 C 152.70 166.93 151.89 166.08 150.87 166.05 C 149.84 166.03 148.99 166.85 148.97 167.87 Z M 148.95 168.82 L 148.92 169.85 C 148.88 170.87 149.68 171.73 150.71 171.76 C 151.73 171.80 152.58 171.00 152.62 169.98 L 152.65 168.95 C 152.69 167.93 151.89 167.07 150.87 167.03 C 149.84 167.00 148.99 167.80 148.95 168.82 Z M 148.92 169.83 L 148.88 170.85 C 148.83 171.87 149.62 172.73 150.64 172.78 C 151.66 172.82 152.52 172.03 152.57 171.02 L 152.61 169.99 C 152.66 168.98 151.87 168.11 150.85 168.07 C 149.83 168.02 148.97 168.81 148.92 169.83 Z M 148.88 170.84 L 148.83 171.84 C 148.78 172.85 149.57 173.72 150.58 173.77 C 151.60 173.82 152.46 173.04 152.51 172.02 L 152.56 171.03 C 152.61 170.01 151.83 169.15 150.82 169.09 C 149.80 169.04 148.94 169.83 148.88 170.84 Z M 148.84 171.84 L 148.79 172.81 C 148.74 173.82 149.51 174.68 150.53 174.74 C 151.54 174.79 152.40 174.01 152.46 173.00 L 152.51 172.03 C 152.56 171.01 151.78 170.15 150.77 170.10 C 149.76 170.04 148.89 170.82 148.84 171.84 Z M 148.79 172.81 L 148.75 173.76 C 148.70 174.77 149.48 175.63 150.49 175.68 C 151.50 175.73 152.36 174.95 152.41 173.94 L 152.45 172.99 C 152.50 171.98 151.72 171.12 150.71 171.07 C 149.70 171.02 148.84 171.80 148.79 172.81 Z M 148.75 173.77 L 148.71 174.72 C 148.67 175.72 149.45 176.58 150.45 176.62 C 151.46 176.67 152.31 175.88 152.36 174.88 L 152.40 173.93 C 152.44 172.92 151.66 172.07 150.66 172.03 C 149.65 171.98 148.80 172.76 148.75 173.77 Z M 148.72 174.72 L 148.68 175.69 C 148.64 176.70 149.42 177.54 150.42 177.58 C 151.43 177.62 152.27 176.84 152.31 175.84 L 152.35 174.87 C 152.39 173.87 151.61 173.02 150.61 172.98 C 149.61 172.94 148.76 173.72 148.72 174.72 Z M 148.68 175.69 L 148.64 176.72 C 148.60 177.72 149.38 178.57 150.38 178.61 C 151.38 178.65 152.23 177.87 152.27 176.87 L 152.31 175.84 C 152.35 174.84 151.57 173.99 150.57 173.95 C 149.57 173.91 148.72 174.69 148.68 175.69 Z M 148.65 176.72 L 148.61 177.78 C 148.57 178.78 149.34 179.62 150.34 179.66 C 151.33 179.70 152.18 178.92 152.22 177.93 L 152.26 176.87 C 152.30 175.87 151.52 175.03 150.53 174.99 C 149.53 174.95 148.69 175.73 148.65 176.72 Z M 148.61 177.78 L 148.57 178.77 C 148.53 179.76 149.30 180.60 150.29 180.64 C 151.29 180.68 152.13 179.91 152.17 178.92 L 152.21 177.93 C 152.25 176.94 151.48 176.10 150.49 176.05 C 149.49 176.01 148.65 176.79 148.61 177.78 Z M 148.58 178.77 L 148.54 179.79 C 148.50 180.78 149.26 181.62 150.25 181.66 C 151.24 181.70 152.08 180.93 152.12 179.94 L 152.16 178.91 C 152.20 177.93 151.43 177.09 150.44 177.05 C 149.45 177.01 148.62 177.78 148.58 178.77 Z M 148.54 179.80 L 148.50 180.83 C 148.46 181.82 149.23 182.65 150.22 182.69 C 151.20 182.73 152.03 181.96 152.07 180.97 L 152.11 179.94 C 152.15 178.95 151.38 178.12 150.40 178.08 C 149.41 178.04 148.58 178.81 148.54 179.80 Z M 148.51 180.84 L 148.47 181.85 C 148.44 182.83 149.20 183.65 150.19 183.69 C 151.17 183.72 151.99 182.95 152.03 181.97 L 152.06 180.97 C 152.10 179.98 151.33 179.16 150.35 179.12 C 149.37 179.09 148.54 179.86 148.51 180.84 Z M 148.48 181.86 L 148.45 182.90 C 148.42 183.88 149.19 184.69 150.17 184.72 C 151.14 184.75 151.96 183.98 151.99 183.00 L 152.02 181.96 C 152.05 180.98 151.28 180.17 150.30 180.14 C 149.33 180.11 148.51 180.88 148.48 181.86 Z M 148.46 182.92 L 148.44 184.38 C 148.42 185.35 149.20 186.15 150.16 186.16 C 151.13 186.18 151.93 185.41 151.95 184.44 L 151.97 182.98 C 151.99 182.01 151.22 181.21 150.25 181.20 C 149.28 181.18 148.48 181.95 148.46 182.92 Z M 148.46 184.44 L 148.48 185.35 C 148.49 186.31 149.28 187.07 150.24 187.06 C 151.20 187.04 151.96 186.25 151.94 185.29 L 151.93 184.38 C 151.91 183.42 151.12 182.66 150.17 182.67 C 149.21 182.69 148.45 183.48 148.46 184.44 Z M 148.64 185.99 L 148.70 186.15 C 149.07 187.02 150.08 187.42 150.95 187.05 C 151.81 186.68 152.22 185.67 151.85 184.80 L 151.78 184.65 C 151.41 183.78 150.41 183.38 149.54 183.75 C 148.67 184.12 148.27 185.13 148.64 185.99 Z M 151.94 185.74 L 152.06 184.95 C 152.21 184.03 151.58 183.17 150.66 183.03 C 149.75 182.88 148.88 183.51 148.74 184.42 L 148.61 185.21 C 148.47 186.13 149.09 186.99 150.01 187.14 C 150.93 187.28 151.79 186.66 151.94 185.74 Z M 152.04 184.88 L 152.20 183.53 C 152.31 182.62 151.66 181.80 150.75 181.70 C 149.84 181.59 149.02 182.24 148.91 183.15 L 148.76 184.50 C 148.65 185.41 149.30 186.23 150.21 186.33 C 151.12 186.44 151.94 185.79 152.04 184.88 Z M 152.19 183.52 L 152.21 183.32 C 152.31 182.42 151.66 181.61 150.76 181.51 C 149.86 181.41 149.05 182.06 148.95 182.96 L 148.93 183.16 C 148.83 184.06 149.48 184.87 150.38 184.97 C 151.28 185.07 152.09 184.42 152.19 183.52 Z"
      fill="black"
      fill-rule="nonzero" /></svg>