<svg xmlns="http://www.w3.org/2000/svg" width="300" height="300" viewBox="0 0 300 300">
<path d="M 138.52 121.78 L 138.48 122.74 C 138.44 123.76 139.24 124.62 140.26 124.66 C 141.28 124.70 142.14 123.90 142.18 122.88 L 142.21 121.92 C 142.25 120.90 141.46 120.04 140.44 120.00 C 139.42 119.96 138.56 120.76 138.52 121.78 Z M 138.46 122.74 L 138.42 123.73 C 138.39 124.76 139.19 125.63 140.23 125.66 C 141.26 125.70 142.13 124.89 142.17 123.86 L 142.20 122.88 C 142.24 121.84 141.43 120.97 140.40 120.94 C 139.36 120.90 138.49 121.71 138.46 122.74 Z M 138.40 123.74 L 138.37 124.76 C 138.34 125.81 139.17 126.68 140.21 126.71 C 141.26 126.74 142.13 125.92 142.16 124.87 L 142.19 123.84 C 142.22 122.80 141.39 121.92 140.35 121.89 C 139.30 121.87 138.43 122.69 138.40 123.74 Z M 138.35 124.78 L 138.33 125.76 C 138.32 126.81 139.16 127.69 140.22 127.70 C 141.27 127.72 142.15 126.88 142.16 125.82 L 142.18 124.85 C 142.20 123.79 141.36 122.92 140.30 122.90 C 139.24 122.88 138.37 123.72 138.35 124.78 Z M 138.33 125.77 L 138.32 126.70 C 138.31 127.76 139.16 128.63 140.22 128.64 C 141.28 128.65 142.15 127.80 142.16 126.74 L 142.17 125.81 C 142.18 124.75 141.33 123.88 140.27 123.87 C 139.21 123.86 138.34 124.71 138.33 125.77 Z M 138.32 126.71 L 138.31 127.69 C 138.31 128.76 139.17 129.62 140.23 129.62 C 141.29 129.63 142.15 128.77 142.16 127.71 L 142.16 126.73 C 142.17 125.66 141.31 124.80 140.25 124.80 C 139.19 124.79 138.32 125.65 138.32 126.71 Z M 138.31 127.70 L 138.31 128.75 C 138.31 129.81 139.17 130.67 140.23 130.68 C 141.29 130.68 142.15 129.82 142.16 128.76 L 142.16 127.71 C 142.16 126.64 141.30 125.78 140.24 125.78 C 139.18 125.78 138.32 126.64 138.31 127.70 Z M 138.31 128.75 L 138.31 129.85 C 138.31 130.91 139.17 131.77 140.23 131.77 C 141.29 131.77 142.16 130.91 142.16 129.85 L 142.16 128.76 C 142.16 127.69 141.30 126.83 140.23 126.83 C 139.17 126.83 138.31 127.69 138.31 128.75 Z M 138.31 129.85 L 138.31 130.87 C 138.31 131.93 139.17 132.79 140.23 132.79 C 141.29 132.79 142.15 131.93 142.15 130.87 L 142.16 129.85 C 142.16 128.79 141.30 127.93 140.23 127.93 C 139.17 127.93 138.31 128.79 138.31 129.85 Z M 138.31 130.86 L 138.31 131.90 C 138.31 132.96 139.17 133.82 140.23 133.83 C 141.29 133.83 142.15 132.97 142.15 131.91 L 142.15 130.87 C 142.16 129.81 141.30 128.95 140.24 128.94 C 139.18 128.94 138.31 129.80 138.31 130.86 Z M 138.31 131.90 L 138.31 132.92 C 138.30 133.99 139.16 134.85 140.22 134.85 C 141.28 134.86 142.15 134.00 142.15 132.94 L 142.15 131.91 C 142.16 130.85 141.30 129.99 140.24 129.98 C 139.18 129.98 138.32 130.84 138.31 131.90 Z M 138.31 132.92 L 138.30 133.90 C 138.29 134.96 139.15 135.83 140.21 135.84 C 141.27 135.85 142.13 134.99 142.14 133.93 L 142.15 132.95 C 142.16 131.88 141.30 131.02 140.24 131.01 C 139.18 131.00 138.32 131.86 138.31 132.92 Z M 138.30 133.89 L 138.29 134.85 C 138.27 135.92 139.12 136.79 140.18 136.80 C 141.25 136.81 142.12 135.96 142.13 134.90 L 142.14 133.94 C 142.16 132.88 141.31 132.01 140.25 132.00 C 139.19 131.98 138.31 132.83 138.30 133.89 Z M 138.29 134.84 L 138.26 135.94 C 138.24 137.00 139.08 137.88 140.14 137.90 C 141.20 137.93 142.08 137.08 142.11 136.02 L 142.13 134.92 C 142.15 133.86 141.31 132.98 140.25 132.96 C 139.19 132.94 138.31 133.78 138.29 134.84 Z M 138.27 135.92 L 138.23 136.91 C 138.20 137.97 139.03 138.85 140.10 138.89 C 141.16 138.92 142.04 138.09 142.08 137.03 L 142.11 136.04 C 142.14 134.98 141.31 134.10 140.25 134.06 C 139.18 134.03 138.30 134.86 138.27 135.92 Z M 138.24 136.90 L 138.20 137.82 C 138.16 138.88 138.99 139.77 140.05 139.81 C 141.11 139.85 142.00 139.02 142.04 137.96 L 142.07 137.04 C 142.11 135.98 141.29 135.09 140.23 135.05 C 139.17 135.01 138.27 135.83 138.24 136.90 Z M 138.20 137.82 L 138.16 138.75 C 138.12 139.81 138.95 140.71 140.01 140.75 C 141.07 140.79 141.96 139.96 142.00 138.90 L 142.04 137.97 C 142.08 136.91 141.26 136.01 140.20 135.97 C 139.14 135.93 138.24 136.76 138.20 137.82 Z M 138.16 138.75 L 138.13 139.73 C 138.08 140.79 138.91 141.68 139.97 141.73 C 141.03 141.77 141.92 140.94 141.96 139.88 L 142.00 138.90 C 142.05 137.84 141.22 136.95 140.16 136.91 C 139.10 136.87 138.21 137.69 138.16 138.75 Z M 138.13 139.72 L 138.08 140.73 C 138.04 141.79 138.86 142.69 139.92 142.73 C 140.98 142.78 141.88 141.95 141.92 140.89 L 141.96 139.89 C 142.01 138.83 141.19 137.93 140.13 137.89 C 139.07 137.84 138.17 138.66 138.13 139.72 Z M 138.08 140.72 L 138.03 141.75 C 137.98 142.81 138.80 143.71 139.86 143.76 C 140.92 143.81 141.82 142.99 141.87 141.93 L 141.92 140.91 C 141.97 139.85 141.16 138.94 140.10 138.89 C 139.04 138.84 138.13 139.66 138.08 140.72 Z M 138.03 141.73 L 137.98 142.71 C 137.92 143.77 138.73 144.68 139.79 144.74 C 140.85 144.80 141.75 143.99 141.81 142.93 L 141.87 141.95 C 141.93 140.89 141.12 139.98 140.06 139.92 C 139.00 139.86 138.09 140.67 138.03 141.73 Z M 137.98 142.70 L 137.92 143.69 C 137.85 144.75 138.65 145.66 139.71 145.73 C 140.77 145.79 141.69 144.99 141.75 143.93 L 141.81 142.94 C 141.88 141.88 141.08 140.97 140.02 140.90 C 138.96 140.83 138.04 141.64 137.98 142.70 Z M 137.92 143.68 L 137.85 144.69 C 137.78 145.75 138.58 146.66 139.64 146.73 C 140.70 146.80 141.62 146.00 141.69 144.94 L 141.75 143.93 C 141.82 142.87 141.02 141.96 139.96 141.89 C 138.90 141.82 137.99 142.62 137.92 143.68 Z M 137.85 144.69 L 137.78 145.71 C 137.71 146.77 138.51 147.68 139.57 147.75 C 140.63 147.82 141.55 147.02 141.62 145.96 L 141.69 144.94 C 141.76 143.88 140.96 142.97 139.90 142.89 C 138.84 142.82 137.92 143.63 137.85 144.69 Z M 137.78 145.71 L 137.71 146.68 C 137.64 147.74 138.45 148.65 139.51 148.72 C 140.57 148.79 141.49 147.99 141.56 146.93 L 141.62 145.96 C 141.69 144.90 140.89 143.98 139.83 143.91 C 138.77 143.84 137.85 144.65 137.78 145.71 Z M 137.71 146.67 L 137.65 147.66 C 137.57 148.72 138.38 149.64 139.44 149.71 C 140.50 149.78 141.42 148.98 141.49 147.92 L 141.56 146.93 C 141.63 145.87 140.83 144.95 139.76 144.88 C 138.70 144.81 137.78 145.61 137.71 146.67 Z M 137.64 147.66 L 137.57 148.66 C 137.50 149.72 138.30 150.65 139.36 150.72 C 140.43 150.80 141.35 149.99 141.42 148.93 L 141.49 147.92 C 141.57 146.86 140.77 145.94 139.70 145.87 C 138.64 145.79 137.72 146.59 137.64 147.66 Z M 137.57 148.65 L 137.50 149.68 C 137.42 150.74 138.22 151.67 139.28 151.75 C 140.34 151.83 141.27 151.03 141.35 149.97 L 141.43 148.94 C 141.50 147.87 140.71 146.95 139.64 146.87 C 138.58 146.79 137.65 147.59 137.57 148.65 Z M 137.49 149.67 L 137.42 150.66 C 137.33 151.73 138.13 152.66 139.19 152.74 C 140.26 152.82 141.19 152.03 141.27 150.96 L 141.35 149.98 C 141.44 148.91 140.64 147.98 139.58 147.90 C 138.51 147.81 137.58 148.61 137.49 149.67 Z M 137.41 150.65 L 137.33 151.65 C 137.24 152.72 138.03 153.65 139.10 153.74 C 140.17 153.83 141.10 153.04 141.19 151.97 L 141.28 150.97 C 141.36 149.91 140.57 148.97 139.51 148.88 C 138.44 148.79 137.50 149.59 137.41 150.65 Z M 137.33 151.64 L 137.24 152.64 C 137.15 153.71 137.94 154.65 139.01 154.75 C 140.07 154.84 141.02 154.05 141.11 152.98 L 141.20 151.98 C 141.29 150.91 140.50 149.97 139.43 149.88 C 138.36 149.78 137.42 150.57 137.33 151.64 Z M 137.24 152.64 L 137.15 153.64 C 137.05 154.71 137.84 155.65 138.91 155.75 C 139.98 155.84 140.93 155.06 141.02 153.99 L 141.11 152.99 C 141.21 151.92 140.42 150.97 139.35 150.88 C 138.28 150.78 137.33 151.57 137.24 152.64 Z M 137.15 153.64 L 137.06 154.64 C 136.96 155.71 137.75 156.66 138.82 156.76 C 139.89 156.85 140.84 156.06 140.93 154.99 L 141.02 153.99 C 141.12 152.92 140.33 151.97 139.26 151.87 C 138.19 151.78 137.24 152.57 137.15 153.64 Z M 137.05 154.64 L 136.96 155.64 C 136.86 156.72 137.65 157.67 138.73 157.76 C 139.80 157.86 140.75 157.07 140.85 156.00 L 140.94 154.99 C 141.03 153.92 140.24 152.97 139.17 152.87 C 138.10 152.78 137.15 153.57 137.05 154.64 Z M 136.96 155.65 L 136.87 156.64 C 136.77 157.72 137.57 158.67 138.64 158.76 C 139.71 158.86 140.66 158.06 140.76 156.99 L 140.85 156.00 C 140.94 154.92 140.15 153.97 139.08 153.88 C 138.00 153.78 137.05 154.57 136.96 155.65 Z M 136.86 156.65 L 136.78 157.64 C 136.69 158.71 137.49 159.66 138.56 159.75 C 139.64 159.85 140.59 159.05 140.68 157.97 L 140.76 156.98 C 140.86 155.91 140.06 154.96 138.98 154.87 C 137.90 154.77 136.96 155.57 136.86 156.65 Z M 136.78 157.65 L 136.70 158.64 C 136.61 159.72 137.41 160.66 138.49 160.75 C 139.57 160.83 140.52 160.03 140.60 158.95 L 140.68 157.96 C 140.77 156.88 139.96 155.94 138.89 155.85 C 137.81 155.76 136.86 156.57 136.78 157.65 Z M 136.69 158.65 L 136.62 159.65 C 136.54 160.73 137.35 161.67 138.43 161.75 C 139.51 161.83 140.45 161.02 140.53 159.94 L 140.61 158.94 C 140.69 157.86 139.88 156.92 138.79 156.84 C 137.71 156.76 136.77 157.57 136.69 158.65 Z M 136.61 159.66 L 136.54 160.66 C 136.47 161.74 137.28 162.68 138.37 162.76 C 139.45 162.84 140.39 162.02 140.47 160.94 L 140.54 159.94 C 140.61 158.85 139.80 157.91 138.71 157.84 C 137.63 157.76 136.69 158.57 136.61 159.66 Z M 136.54 160.66 L 136.47 161.65 C 136.39 162.74 137.21 163.68 138.29 163.76 C 139.38 163.84 140.32 163.02 140.40 161.93 L 140.47 160.94 C 140.55 159.85 139.73 158.91 138.65 158.83 C 137.56 158.75 136.62 159.57 136.54 160.66 Z M 136.47 161.64 L 136.39 162.63 C 136.31 163.72 137.12 164.67 138.21 164.75 C 139.30 164.83 140.24 164.02 140.33 162.93 L 140.40 161.94 C 140.48 160.85 139.67 159.91 138.58 159.83 C 137.50 159.74 136.55 160.56 136.47 161.64 Z M 136.39 162.62 L 136.31 163.62 C 136.22 164.71 137.03 165.67 138.11 165.76 C 139.20 165.85 140.16 165.04 140.25 163.95 L 140.33 162.95 C 140.42 161.86 139.61 160.90 138.52 160.81 C 137.43 160.72 136.48 161.53 136.39 162.62 Z M 136.30 163.61 L 136.22 164.61 C 136.12 165.70 136.93 166.66 138.02 166.76 C 139.11 166.85 140.07 166.05 140.16 164.96 L 140.25 163.96 C 140.34 162.87 139.54 161.91 138.45 161.81 C 137.36 161.72 136.40 162.52 136.30 163.61 Z M 136.21 164.61 L 136.13 165.60 C 136.03 166.69 136.84 167.66 137.93 167.75 C 139.02 167.85 139.98 167.04 140.08 165.95 L 140.16 164.96 C 140.26 163.87 139.45 162.90 138.36 162.81 C 137.27 162.71 136.31 163.52 136.21 164.61 Z M 136.12 165.61 L 136.04 166.60 C 135.95 167.69 136.76 168.66 137.85 168.75 C 138.94 168.84 139.90 168.03 140.00 166.94 L 140.08 165.95 C 140.17 164.85 139.36 163.89 138.27 163.80 C 137.18 163.71 136.21 164.52 136.12 165.61 Z M 136.03 166.61 L 135.95 167.63 C 135.87 168.72 136.69 169.68 137.78 169.77 C 138.88 169.85 139.84 169.03 139.92 167.94 L 140.00 166.92 C 140.09 165.83 139.27 164.87 138.17 164.79 C 137.08 164.70 136.12 165.52 136.03 166.61 Z M 135.95 167.64 L 135.88 168.65 C 135.80 169.75 136.62 170.70 137.72 170.78 C 138.82 170.86 139.77 170.04 139.85 168.94 L 139.93 167.93 C 140.00 166.83 139.18 165.87 138.08 165.79 C 136.98 165.72 136.03 166.54 135.95 167.64 Z M 135.87 168.66 L 135.80 169.65 C 135.73 170.75 136.56 171.71 137.66 171.78 C 138.76 171.86 139.71 171.03 139.79 169.93 L 139.86 168.93 C 139.93 167.83 139.10 166.88 138.00 166.80 C 136.90 166.73 135.95 167.56 135.87 168.66 Z M 135.80 169.66 L 135.73 170.63 C 135.66 171.73 136.49 172.69 137.59 172.76 C 138.69 172.84 139.65 172.00 139.72 170.90 L 139.79 169.93 C 139.86 168.83 139.03 167.87 137.93 167.80 C 136.83 167.72 135.88 168.55 135.80 169.66 Z M 135.73 170.63 L 135.66 171.63 C 135.59 172.74 136.42 173.69 137.52 173.77 C 138.62 173.85 139.58 173.01 139.66 171.91 L 139.73 170.91 C 139.80 169.80 138.97 168.85 137.87 168.77 C 136.76 168.69 135.81 169.53 135.73 170.63 Z M 135.66 171.63 L 135.59 172.63 C 135.51 173.74 136.35 174.69 137.45 174.77 C 138.56 174.85 139.51 174.01 139.59 172.91 L 139.66 171.91 C 139.74 170.81 138.90 169.85 137.80 169.77 C 136.69 169.70 135.74 170.53 135.66 171.63 Z M 135.59 172.64 L 135.52 173.63 C 135.45 174.73 136.29 175.69 137.39 175.76 C 138.50 175.83 139.46 174.99 139.53 173.89 L 139.59 172.90 C 139.67 171.80 138.83 170.84 137.72 170.77 C 136.61 170.70 135.66 171.53 135.59 172.64 Z M 135.52 173.64 L 135.46 174.63 C 135.40 175.74 136.24 176.69 137.35 176.75 C 138.46 176.82 139.41 175.97 139.48 174.86 L 139.53 173.87 C 139.60 172.77 138.75 171.82 137.64 171.75 C 136.53 171.69 135.58 172.53 135.52 173.64 Z M 135.46 174.65 L 135.41 175.61 C 135.36 176.72 136.22 177.66 137.33 177.72 C 138.44 177.77 139.38 176.91 139.43 175.80 L 139.48 174.84 C 139.53 173.73 138.68 172.79 137.56 172.74 C 136.45 172.68 135.51 173.54 135.46 174.65 Z M 135.41 175.63 L 135.37 176.61 C 135.33 177.72 136.20 178.66 137.31 178.70 C 138.42 178.74 139.36 177.88 139.40 176.77 L 139.44 175.78 C 139.48 174.67 138.61 173.74 137.50 173.69 C 136.39 173.65 135.45 174.52 135.41 175.63 Z M 135.37 176.63 L 135.34 177.65 C 135.31 178.76 136.19 179.69 137.30 179.72 C 138.41 179.75 139.34 178.87 139.37 177.76 L 139.40 176.75 C 139.43 175.63 138.56 174.71 137.44 174.67 C 136.33 174.64 135.40 175.52 135.37 176.63 Z M 135.34 177.67 L 135.32 178.71 C 135.30 179.82 136.18 180.75 137.30 180.77 C 138.41 180.79 139.33 179.90 139.36 178.79 L 139.38 177.74 C 139.40 176.63 138.51 175.71 137.40 175.69 C 136.28 175.66 135.36 176.55 135.34 177.67 Z M 135.32 178.73 L 135.31 179.75 C 135.30 180.87 136.19 181.78 137.31 181.79 C 138.43 181.80 139.34 180.90 139.35 179.79 L 139.36 178.77 C 139.37 177.65 138.47 176.74 137.35 176.73 C 136.24 176.72 135.33 177.61 135.32 178.73 Z M 135.30 179.78 L 135.31 180.81 C 135.32 181.93 136.23 182.83 137.35 182.82 C 138.46 182.81 139.36 181.90 139.36 180.78 L 139.35 179.76 C 139.34 178.64 138.43 177.74 137.31 177.75 C 136.20 177.75 135.30 178.67 135.30 179.78 Z M 135.31 180.86 L 135.34 181.86 C 135.37 182.98 136.31 183.86 137.43 183.82 C 138.54 183.79 139.42 182.86 139.39 181.74 L 139.36 180.74 C 139.32 179.62 138.39 178.74 137.27 178.77 C 136.15 178.81 135.28 179.74 135.31 180.86 Z M 135.34 181.93 L 135.40 182.88 C 135.47 183.99 136.44 184.84 137.56 184.77 C 138.67 184.70 139.52 183.73 139.45 182.62 L 139.39 181.67 C 139.32 180.55 138.35 179.70 137.23 179.77 C 136.12 179.85 135.27 180.81 135.34 181.93 Z M 135.41 183.01 L 135.56 184.14 C 135.71 185.25 136.73 186.03 137.84 185.89 C 138.95 185.74 139.73 184.72 139.59 183.61 L 139.44 182.48 C 139.29 181.37 138.27 180.59 137.16 180.73 C 136.05 180.88 135.27 181.90 135.41 183.01 Z M 135.64 184.48 L 135.93 185.42 C 136.26 186.49 137.40 187.09 138.47 186.76 C 139.54 186.42 140.14 185.29 139.81 184.22 L 139.51 183.27 C 139.18 182.20 138.04 181.61 136.97 181.94 C 135.90 182.27 135.31 183.41 135.64 184.48 Z M 136.22 186.01 L 136.73 186.71 C 137.39 187.62 138.66 187.82 139.57 187.17 C 140.48 186.51 140.68 185.24 140.02 184.33 L 139.51 183.63 C 138.86 182.72 137.59 182.52 136.68 183.17 C 135.77 183.83 135.57 185.10 136.22 186.01 Z M 137.39 187.29 L 138.11 187.70 C 139.09 188.25 140.33 187.90 140.88 186.92 C 141.42 185.95 141.08 184.71 140.10 184.16 L 139.37 183.75 C 138.39 183.21 137.16 183.55 136.61 184.53 C 136.06 185.51 136.41 186.74 137.39 187.29 Z M 138.78 187.93 L 139.71 188.08 C 140.81 188.26 141.86 187.51 142.04 186.41 C 142.22 185.31 141.47 184.27 140.36 184.08 L 139.43 183.93 C 138.33 183.75 137.29 184.50 137.11 185.60 C 136.93 186.71 137.68 187.75 138.78 187.93 Z M 140.23 188.10 L 141.31 188.00 C 142.42 187.89 143.24 186.91 143.14 185.79 C 143.03 184.68 142.05 183.87 140.94 183.97 L 139.85 184.07 C 138.74 184.17 137.92 185.16 138.02 186.27 C 138.13 187.38 139.11 188.20 140.23 188.10 Z M 141.68 187.92 L 142.70 187.63 C 143.77 187.32 144.39 186.20 144.08 185.13 C 143.77 184.06 142.65 183.44 141.58 183.75 L 140.56 184.04 C 139.49 184.35 138.88 185.47 139.18 186.54 C 139.49 187.61 140.61 188.23 141.68 187.92 Z M 142.93 187.54 L 143.82 187.16 C 144.84 186.72 145.32 185.54 144.88 184.52 C 144.44 183.50 143.26 183.02 142.24 183.46 L 141.35 183.84 C 140.32 184.28 139.85 185.46 140.29 186.48 C 140.72 187.50 141.91 187.98 142.93 187.54 Z M 143.96 187.09 L 144.86 186.62 C 145.84 186.10 146.22 184.89 145.70 183.91 C 145.19 182.93 143.98 182.55 142.99 183.06 L 142.10 183.53 C 141.11 184.05 140.73 185.26 141.25 186.24 C 141.76 187.22 142.98 187.60 143.96 187.09 Z M 144.95 186.56 L 145.84 186.03 C 146.79 185.46 147.10 184.24 146.53 183.29 C 145.97 182.34 144.74 182.02 143.79 182.59 L 142.90 183.12 C 141.95 183.69 141.64 184.91 142.20 185.86 C 142.77 186.81 144.00 187.13 144.95 186.56 Z M 145.90 185.99 L 146.76 185.43 C 147.68 184.83 147.95 183.59 147.35 182.67 C 146.75 181.74 145.51 181.48 144.59 182.08 L 143.73 182.64 C 142.80 183.24 142.54 184.47 143.14 185.40 C 143.74 186.32 144.97 186.59 145.90 185.99 Z M 146.80 185.39 L 147.64 184.82 C 148.55 184.19 148.78 182.96 148.16 182.05 C 147.53 181.14 146.30 180.91 145.39 181.53 L 144.55 182.11 C 143.64 182.74 143.41 183.97 144.03 184.88 C 144.65 185.78 145.89 186.02 146.80 185.39 Z M 147.67 184.78 L 148.48 184.20 C 149.37 183.56 149.57 182.32 148.93 181.44 C 148.29 180.55 147.05 180.35 146.17 180.99 L 145.36 181.57 C 144.47 182.21 144.27 183.45 144.91 184.33 C 145.55 185.22 146.79 185.42 147.67 184.78 Z M 148.51 184.16 L 149.29 183.57 C 150.16 182.92 150.33 181.68 149.68 180.81 C 149.03 179.95 147.79 179.77 146.92 180.43 L 146.14 181.02 C 145.27 181.68 145.10 182.91 145.75 183.78 C 146.41 184.65 147.64 184.82 148.51 184.16 Z M 149.32 183.54 L 150.10 182.93 C 150.95 182.26 151.10 181.03 150.43 180.18 C 149.76 179.33 148.53 179.18 147.68 179.85 L 146.90 180.46 C 146.05 181.13 145.90 182.36 146.57 183.21 C 147.24 184.06 148.47 184.21 149.32 183.54 Z M 150.11 182.90 L 150.87 182.29 C 151.71 181.61 151.84 180.38 151.16 179.55 C 150.48 178.71 149.26 178.58 148.42 179.26 L 147.66 179.87 C 146.83 180.55 146.70 181.78 147.38 182.61 C 148.05 183.45 149.28 183.58 150.11 182.90 Z M 150.88 182.26 L 151.62 181.65 C 152.44 180.97 152.55 179.75 151.87 178.92 C 151.18 178.10 149.96 177.99 149.14 178.68 L 148.41 179.29 C 147.59 179.97 147.48 181.19 148.16 182.01 C 148.84 182.83 150.06 182.94 150.88 182.26 Z M 151.63 181.62 L 152.38 180.98 C 153.19 180.29 153.28 179.07 152.58 178.27 C 151.89 177.46 150.68 177.37 149.87 178.06 L 149.13 178.71 C 148.32 179.40 148.23 180.61 148.92 181.42 C 149.61 182.22 150.83 182.31 151.63 181.62 Z M 152.40 180.95 L 153.16 180.27 C 153.94 179.57 154.01 178.36 153.31 177.57 C 152.61 176.79 151.40 176.72 150.62 177.42 L 149.86 178.09 C 149.07 178.80 149.00 180.00 149.70 180.79 C 150.40 181.58 151.61 181.65 152.40 180.95 Z M 153.18 180.24 L 153.94 179.52 C 154.71 178.81 154.76 177.61 154.04 176.84 C 153.33 176.08 152.13 176.03 151.36 176.74 L 150.60 177.45 C 149.83 178.17 149.78 179.37 150.49 180.13 C 151.21 180.90 152.41 180.95 153.18 180.24 Z M 153.96 179.49 L 154.68 178.79 C 155.43 178.07 155.45 176.87 154.73 176.13 C 154.01 175.38 152.81 175.36 152.07 176.08 L 151.34 176.78 C 150.60 177.50 150.58 178.70 151.30 179.44 C 152.02 180.19 153.21 180.21 153.96 179.49 Z M 154.70 178.75 L 155.39 178.06 C 156.11 177.33 156.11 176.15 155.38 175.42 C 154.65 174.69 153.47 174.69 152.74 175.43 L 152.05 176.12 C 151.32 176.85 151.33 178.03 152.06 178.76 C 152.79 179.49 153.97 179.48 154.70 178.75 Z M 155.40 178.03 L 156.09 177.31 C 156.80 176.58 156.78 175.41 156.04 174.70 C 155.30 173.99 154.13 174.01 153.42 174.74 L 152.73 175.46 C 152.02 176.19 152.04 177.37 152.78 178.08 C 153.51 178.79 154.69 178.77 155.40 178.03 Z M 156.09 177.29 L 156.78 176.55 C 157.48 175.81 157.44 174.65 156.70 173.96 C 155.96 173.26 154.80 173.30 154.11 174.04 L 153.42 174.77 C 152.72 175.51 152.76 176.67 153.50 177.37 C 154.24 178.06 155.40 178.02 156.09 177.29 Z M 156.79 176.52 L 157.47 175.77 C 158.15 175.03 158.10 173.88 157.36 173.20 C 156.62 172.52 155.47 172.57 154.79 173.31 L 154.10 174.06 C 153.42 174.80 153.47 175.96 154.21 176.63 C 154.96 177.31 156.11 177.26 156.79 176.52 Z M 157.47 175.75 L 158.16 174.98 C 158.83 174.24 158.77 173.10 158.03 172.43 C 157.28 171.77 156.14 171.83 155.48 172.57 L 154.79 173.34 C 154.13 174.08 154.19 175.22 154.93 175.88 C 155.67 176.55 156.81 176.49 157.47 175.75 Z M 158.16 174.96 L 158.87 174.15 C 159.52 173.41 159.45 172.28 158.71 171.63 C 157.97 170.98 156.84 171.05 156.19 171.79 L 155.48 172.60 C 154.83 173.33 154.90 174.46 155.64 175.11 C 156.38 175.77 157.51 175.70 158.16 174.96 Z M 158.86 174.13 L 159.56 173.33 C 160.20 172.59 160.12 171.47 159.38 170.84 C 158.64 170.20 157.53 170.28 156.89 171.01 L 156.20 171.81 C 155.56 172.55 155.64 173.67 156.38 174.30 C 157.11 174.94 158.23 174.86 158.86 174.13 Z M 159.55 173.30 L 160.22 172.52 C 160.84 171.79 160.75 170.69 160.02 170.06 C 159.29 169.44 158.19 169.53 157.56 170.26 L 156.90 171.04 C 156.27 171.77 156.36 172.87 157.09 173.50 C 157.83 174.12 158.93 174.03 159.55 173.30 Z M 160.21 172.50 L 160.84 171.75 C 161.45 171.02 161.35 169.93 160.62 169.32 C 159.89 168.71 158.80 168.81 158.19 169.54 L 157.57 170.28 C 156.96 171.01 157.05 172.10 157.78 172.71 C 158.51 173.32 159.60 173.23 160.21 172.50 Z M 160.83 171.73 L 161.40 171.03 C 162.00 170.30 161.89 169.23 161.17 168.63 C 160.44 168.03 159.37 168.14 158.77 168.87 L 158.20 169.56 C 157.60 170.29 157.71 171.36 158.43 171.96 C 159.16 172.56 160.23 172.45 160.83 171.73 Z M 161.40 171.00 L 162.02 170.23 C 162.60 169.50 162.49 168.44 161.76 167.86 C 161.03 167.27 159.97 167.39 159.39 168.12 L 158.77 168.89 C 158.19 169.62 158.31 170.68 159.03 171.26 C 159.76 171.85 160.82 171.73 161.40 171.00 Z M 162.03 170.19 L 162.62 169.43 C 163.18 168.70 163.04 167.65 162.31 167.08 C 161.58 166.52 160.53 166.66 159.96 167.39 L 159.38 168.15 C 158.81 168.89 158.95 169.94 159.68 170.50 C 160.42 171.06 161.47 170.93 162.03 170.19 Z M 162.63 169.40 L 163.19 168.63 C 163.74 167.89 163.58 166.85 162.84 166.31 C 162.10 165.76 161.06 165.92 160.51 166.66 L 159.95 167.43 C 159.41 168.17 159.57 169.21 160.31 169.75 C 161.05 170.30 162.09 170.14 162.63 169.40 Z M 163.20 168.60 L 163.79 167.76 C 164.32 167.02 164.14 165.98 163.40 165.46 C 162.65 164.93 161.62 165.11 161.09 165.86 L 160.50 166.69 C 159.98 167.44 160.16 168.47 160.90 169.00 C 161.65 169.52 162.68 169.34 163.20 168.60 Z M 163.80 167.74 L 164.34 166.96 C 164.85 166.21 164.66 165.19 163.91 164.67 C 163.17 164.16 162.14 164.35 161.63 165.10 L 161.09 165.88 C 160.58 166.62 160.76 167.65 161.51 168.16 C 162.26 168.68 163.28 168.49 163.80 167.74 Z M 164.34 166.95 L 164.87 166.17 C 165.37 165.42 165.18 164.40 164.43 163.89 C 163.68 163.38 162.66 163.58 162.15 164.33 L 161.62 165.11 C 161.11 165.86 161.31 166.88 162.06 167.39 C 162.81 167.89 163.83 167.70 164.34 166.95 Z M 164.87 166.16 L 165.43 165.33 C 165.93 164.58 165.73 163.56 164.97 163.05 C 164.22 162.55 163.20 162.76 162.70 163.51 L 162.14 164.34 C 161.64 165.09 161.84 166.11 162.60 166.62 C 163.35 167.12 164.37 166.91 164.87 166.16 Z M 165.43 165.32 L 166.00 164.45 C 166.50 163.69 166.29 162.68 165.53 162.18 C 164.78 161.68 163.76 161.89 163.26 162.65 L 162.69 163.52 C 162.19 164.28 162.40 165.29 163.16 165.79 C 163.92 166.29 164.93 166.08 165.43 165.32 Z M 166.01 164.44 L 166.58 163.55 C 167.07 162.79 166.86 161.77 166.09 161.28 C 165.33 160.79 164.32 161.01 163.83 161.77 L 163.26 162.66 C 162.77 163.42 162.98 164.44 163.74 164.93 C 164.50 165.42 165.52 165.20 166.01 164.44 Z M 166.59 163.53 L 167.16 162.64 C 167.64 161.88 167.41 160.87 166.65 160.38 C 165.88 159.90 164.87 160.13 164.39 160.89 L 163.82 161.78 C 163.34 162.55 163.57 163.56 164.33 164.04 C 165.10 164.53 166.11 164.30 166.59 163.53 Z M 167.16 162.63 L 167.70 161.75 C 168.18 160.98 167.94 159.97 167.17 159.50 C 166.40 159.02 165.40 159.26 164.92 160.03 L 164.38 160.91 C 163.90 161.67 164.14 162.68 164.91 163.16 C 165.68 163.63 166.69 163.40 167.16 162.63 Z M 167.71 161.74 L 168.24 160.88 C 168.70 160.10 168.46 159.10 167.68 158.63 C 166.91 158.16 165.90 158.41 165.44 159.18 L 164.91 160.04 C 164.44 160.82 164.69 161.82 165.46 162.29 C 166.24 162.76 167.24 162.51 167.71 161.74 Z M 168.24 160.87 L 168.75 160.01 C 169.22 159.23 168.96 158.23 168.19 157.76 C 167.41 157.30 166.40 157.56 165.94 158.33 L 165.43 159.19 C 164.97 159.97 165.22 160.97 166.00 161.43 C 166.77 161.90 167.78 161.64 168.24 160.87 Z M 168.76 160.00 L 169.26 159.15 C 169.72 158.37 169.46 157.37 168.68 156.91 C 167.90 156.45 166.90 156.71 166.44 157.49 L 165.94 158.34 C 165.48 159.12 165.74 160.12 166.52 160.58 C 167.29 161.04 168.30 160.78 168.76 160.00 Z M 169.26 159.15 L 169.76 158.30 C 170.21 157.52 169.95 156.51 169.17 156.06 C 168.39 155.60 167.39 155.86 166.93 156.64 L 166.44 157.49 C 165.98 158.27 166.24 159.28 167.02 159.73 C 167.80 160.19 168.81 159.93 169.26 159.15 Z M 169.76 158.30 L 170.03 157.83 C 170.48 157.05 170.22 156.05 169.44 155.59 C 168.66 155.14 167.66 155.40 167.20 156.18 L 166.93 156.65 C 166.47 157.43 166.74 158.43 167.52 158.89 C 168.30 159.34 169.30 159.08 169.76 158.30 Z"
      fill="black"
      fill-rule="nonzero" /></svg>