<svg xmlns="http://www.w3.org/2000/svg" width="300" height="300" viewBox="0 0 300 300">
<path d="M 202.01 103.44 L 201.02 103.68 C 200.08 103.92 199.51 104.87 199.74 105.81 C 199.98 106.74 200.93 107.32 201.87 107.08 L 202.86 106.84 C 203.79 106.60 204.37 105.65 204.13 104.71 C 203.90 103.77 202.95 103.20 202.01 103.44 Z M 200.92 103.66 L 199.96 103.95 C 199.01 104.24 198.47 105.25 198.76 106.20 C 199.05 107.15 200.06 107.69 201.01 107.40 L 201.97 107.11 C 202.92 106.82 203.46 105.81 203.17 104.86 C 202.88 103.91 201.87 103.37 200.92 103.66 Z M 199.76 103.97 L 198.85 104.36 C 197.91 104.76 197.48 105.85 197.88 106.79 C 198.28 107.73 199.37 108.17 200.31 107.76 L 201.21 107.38 C 202.15 106.98 202.59 105.89 202.19 104.95 C 201.79 104.01 200.70 103.57 199.76 103.97 Z M 198.57 104.46 L 197.77 104.97 C 196.89 105.53 196.63 106.70 197.19 107.58 C 197.74 108.46 198.91 108.72 199.79 108.16 L 200.59 107.66 C 201.47 107.10 201.74 105.93 201.18 105.05 C 200.62 104.17 199.45 103.91 198.57 104.46 Z M 197.51 105.14 L 196.80 105.78 C 196.01 106.48 195.94 107.69 196.65 108.47 C 197.35 109.26 198.55 109.33 199.34 108.63 L 200.05 107.99 C 200.84 107.29 200.91 106.08 200.21 105.30 C 199.50 104.51 198.30 104.44 197.51 105.14 Z M 196.62 105.95 L 195.95 106.72 C 195.26 107.52 195.35 108.73 196.15 109.42 C 196.96 110.12 198.17 110.03 198.86 109.22 L 199.52 108.46 C 200.22 107.65 200.13 106.44 199.32 105.75 C 198.52 105.06 197.31 105.15 196.62 105.95 Z M 195.83 106.85 L 195.23 107.70 C 194.61 108.57 194.81 109.77 195.68 110.39 C 196.55 111.01 197.76 110.81 198.38 109.94 L 198.98 109.09 C 199.60 108.22 199.39 107.02 198.53 106.40 C 197.66 105.78 196.45 105.98 195.83 106.85 Z M 195.16 107.79 L 194.70 108.52 C 194.14 109.43 194.41 110.63 195.32 111.19 C 196.22 111.76 197.42 111.49 197.99 110.58 L 198.44 109.85 C 199.01 108.94 198.74 107.74 197.83 107.18 C 196.92 106.61 195.73 106.89 195.16 107.79 Z M 194.65 108.60 L 194.20 109.41 C 193.67 110.35 194.00 111.53 194.94 112.05 C 195.87 112.58 197.05 112.25 197.58 111.31 L 198.03 110.50 C 198.56 109.57 198.23 108.39 197.29 107.86 C 196.36 107.34 195.18 107.67 194.65 108.60 Z M 194.16 109.49 L 193.70 110.39 C 193.21 111.34 193.59 112.51 194.55 113.00 C 195.51 113.48 196.67 113.10 197.16 112.15 L 197.62 111.24 C 198.10 110.29 197.72 109.12 196.77 108.63 C 195.81 108.15 194.64 108.53 194.16 109.49 Z M 193.66 110.45 L 193.20 111.46 C 192.75 112.44 193.18 113.59 194.15 114.04 C 195.12 114.49 196.28 114.06 196.73 113.09 L 197.19 112.08 C 197.64 111.11 197.22 109.95 196.24 109.50 C 195.27 109.05 194.11 109.48 193.66 110.45 Z M 193.17 111.52 L 192.76 112.50 C 192.34 113.49 192.80 114.63 193.79 115.05 C 194.78 115.47 195.92 115.01 196.34 114.02 L 196.75 113.04 C 197.17 112.05 196.71 110.90 195.72 110.49 C 194.73 110.07 193.59 110.53 193.17 111.52 Z M 192.74 112.54 L 192.39 113.42 C 191.99 114.42 192.48 115.55 193.48 115.95 C 194.48 116.34 195.61 115.86 196.01 114.86 L 196.35 113.98 C 196.75 112.98 196.26 111.85 195.27 111.45 C 194.27 111.05 193.14 111.54 192.74 112.54 Z M 192.38 113.45 L 192.03 114.37 C 191.65 115.38 192.15 116.50 193.16 116.88 C 194.16 117.26 195.29 116.76 195.67 115.75 L 196.02 114.83 C 196.40 113.82 195.89 112.70 194.89 112.32 C 193.88 111.94 192.76 112.44 192.38 113.45 Z M 192.02 114.40 L 191.67 115.35 C 191.30 116.36 191.83 117.48 192.84 117.85 C 193.85 118.21 194.96 117.69 195.33 116.68 L 195.68 115.72 C 196.05 114.71 195.52 113.60 194.51 113.23 C 193.50 112.86 192.38 113.38 192.02 114.40 Z M 191.66 115.37 L 191.32 116.35 C 190.97 117.37 191.50 118.48 192.52 118.83 C 193.54 119.19 194.65 118.65 195.00 117.63 L 195.34 116.66 C 195.69 115.64 195.16 114.53 194.14 114.18 C 193.13 113.82 192.01 114.36 191.66 115.37 Z M 191.31 116.37 L 190.98 117.35 C 190.64 118.37 191.19 119.48 192.21 119.82 C 193.23 120.16 194.34 119.61 194.68 118.59 L 195.01 117.61 C 195.35 116.59 194.80 115.49 193.78 115.14 C 192.76 114.80 191.65 115.35 191.31 116.37 Z M 190.98 117.37 L 190.66 118.35 C 190.33 119.37 190.89 120.47 191.92 120.80 C 192.94 121.13 194.04 120.57 194.37 119.55 L 194.69 118.57 C 195.02 117.55 194.46 116.45 193.43 116.12 C 192.41 115.79 191.31 116.35 190.98 117.37 Z M 190.65 118.37 L 190.32 119.43 C 190.00 120.46 190.58 121.56 191.61 121.87 C 192.64 122.19 193.73 121.62 194.05 120.59 L 194.38 119.53 C 194.70 118.50 194.12 117.40 193.09 117.08 C 192.07 116.76 190.97 117.34 190.65 118.37 Z M 190.32 119.46 L 190.01 120.50 C 189.70 121.53 190.29 122.62 191.32 122.92 C 192.35 123.23 193.44 122.64 193.75 121.61 L 194.06 120.57 C 194.36 119.53 193.78 118.45 192.74 118.14 C 191.71 117.83 190.62 118.42 190.32 119.46 Z M 190.00 120.52 L 189.72 121.52 C 189.42 122.55 190.02 123.63 191.06 123.93 C 192.09 124.22 193.17 123.62 193.47 122.59 L 193.75 121.59 C 194.05 120.55 193.45 119.47 192.41 119.18 C 191.38 118.88 190.30 119.48 190.00 120.52 Z M 189.71 121.54 L 189.45 122.48 C 189.17 123.52 189.78 124.59 190.82 124.88 C 191.86 125.16 192.93 124.55 193.22 123.51 L 193.47 122.57 C 193.76 121.53 193.15 120.45 192.11 120.17 C 191.07 119.88 190.00 120.50 189.71 121.54 Z M 189.45 122.50 L 189.21 123.39 C 188.94 124.43 189.56 125.50 190.61 125.77 C 191.65 126.04 192.71 125.42 192.99 124.38 L 193.22 123.49 C 193.49 122.45 192.87 121.38 191.83 121.11 C 190.79 120.84 189.72 121.46 189.45 122.50 Z M 189.21 123.41 L 188.99 124.27 C 188.73 125.32 189.37 126.38 190.41 126.64 C 191.46 126.90 192.52 126.27 192.78 125.22 L 192.99 124.36 C 193.26 123.31 192.62 122.25 191.58 121.99 C 190.53 121.73 189.47 122.36 189.21 123.41 Z M 188.99 124.30 L 188.73 125.40 C 188.48 126.45 189.13 127.50 190.18 127.75 C 191.23 127.99 192.28 127.34 192.52 126.30 L 192.78 125.19 C 193.03 124.15 192.38 123.10 191.33 122.85 C 190.28 122.60 189.23 123.25 188.99 124.30 Z M 188.72 125.43 L 188.50 126.41 C 188.27 127.46 188.94 128.50 189.99 128.73 C 191.04 128.96 192.09 128.30 192.32 127.25 L 192.53 126.27 C 192.76 125.21 192.10 124.17 191.04 123.94 C 189.99 123.71 188.95 124.38 188.72 125.43 Z M 188.50 126.43 L 188.31 127.34 C 188.10 128.39 188.77 129.42 189.83 129.64 C 190.88 129.86 191.92 129.18 192.13 128.12 L 192.32 127.22 C 192.54 126.17 191.86 125.13 190.80 124.92 C 189.75 124.70 188.72 125.38 188.50 126.43 Z M 188.31 127.35 L 188.13 128.24 C 187.92 129.30 188.60 130.33 189.66 130.54 C 190.72 130.75 191.74 130.07 191.96 129.01 L 192.14 128.11 C 192.35 127.06 191.66 126.03 190.61 125.82 C 189.55 125.61 188.52 126.29 188.31 127.35 Z M 188.13 128.25 L 187.94 129.22 C 187.73 130.27 188.41 131.30 189.47 131.51 C 190.53 131.72 191.55 131.04 191.76 129.98 L 191.96 129.01 C 192.17 127.95 191.48 126.93 190.43 126.72 C 189.37 126.50 188.34 127.19 188.13 128.25 Z M 187.94 129.22 L 187.74 130.20 C 187.53 131.26 188.22 132.28 189.28 132.49 C 190.34 132.70 191.36 132.01 191.57 130.96 L 191.76 129.98 C 191.97 128.92 191.29 127.89 190.23 127.69 C 189.17 127.48 188.15 128.16 187.94 129.22 Z M 187.74 130.20 L 187.55 131.20 C 187.34 132.26 188.03 133.28 189.09 133.49 C 190.15 133.69 191.17 133.00 191.38 131.94 L 191.57 130.95 C 191.78 129.89 191.09 128.87 190.03 128.66 C 188.97 128.46 187.95 129.15 187.74 130.20 Z M 187.55 131.21 L 187.36 132.17 C 187.16 133.23 187.86 134.25 188.91 134.45 C 189.97 134.65 190.99 133.96 191.20 132.90 L 191.38 131.94 C 191.58 130.88 190.89 129.86 189.83 129.66 C 188.77 129.45 187.75 130.15 187.55 131.21 Z M 187.36 132.18 L 187.18 133.15 C 186.98 134.21 187.68 135.23 188.74 135.42 C 189.80 135.62 190.82 134.92 191.01 133.87 L 191.20 132.89 C 191.39 131.83 190.70 130.82 189.64 130.62 C 188.58 130.42 187.56 131.12 187.36 132.18 Z M 187.18 133.16 L 187.00 134.15 C 186.80 135.21 187.51 136.23 188.56 136.42 C 189.62 136.61 190.64 135.91 190.83 134.85 L 191.02 133.86 C 191.21 132.80 190.51 131.78 189.45 131.59 C 188.39 131.40 187.37 132.10 187.18 133.16 Z M 187.00 134.16 L 186.82 135.16 C 186.63 136.22 187.33 137.23 188.39 137.42 C 189.45 137.61 190.46 136.91 190.65 135.85 L 190.83 134.85 C 191.02 133.79 190.32 132.77 189.26 132.58 C 188.20 132.39 187.19 133.10 187.00 134.16 Z M 186.82 135.17 L 186.64 136.15 C 186.46 137.21 187.16 138.22 188.22 138.41 C 189.28 138.60 190.29 137.89 190.48 136.83 L 190.65 135.84 C 190.84 134.78 190.13 133.77 189.07 133.59 C 188.01 133.40 187.00 134.11 186.82 135.17 Z M 186.64 136.16 L 186.47 137.15 C 186.29 138.21 187.00 139.22 188.06 139.40 C 189.12 139.58 190.13 138.87 190.31 137.81 L 190.48 136.82 C 190.66 135.76 189.95 134.75 188.89 134.57 C 187.83 134.39 186.82 135.10 186.64 136.16 Z M 186.47 137.16 L 186.31 138.15 C 186.13 139.21 186.85 140.21 187.91 140.39 C 188.97 140.57 189.97 139.85 190.15 138.79 L 190.31 137.80 C 190.49 136.74 189.77 135.74 188.71 135.56 C 187.65 135.38 186.65 136.10 186.47 137.16 Z M 186.31 138.16 L 186.15 139.15 C 185.98 140.21 186.70 141.21 187.76 141.38 C 188.82 141.55 189.82 140.83 189.99 139.77 L 190.15 138.78 C 190.32 137.72 189.60 136.72 188.54 136.55 C 187.48 136.38 186.48 137.10 186.31 138.16 Z M 186.15 139.16 L 185.99 140.16 C 185.83 141.22 186.56 142.22 187.62 142.38 C 188.68 142.54 189.67 141.82 189.83 140.76 L 189.99 139.76 C 190.15 138.70 189.42 137.70 188.36 137.54 C 187.30 137.38 186.31 138.10 186.15 139.16 Z M 185.99 140.18 L 185.85 141.16 C 185.69 142.23 186.43 143.21 187.49 143.37 C 188.55 143.52 189.54 142.79 189.69 141.73 L 189.84 140.74 C 189.99 139.68 189.26 138.69 188.19 138.54 C 187.13 138.38 186.15 139.12 185.99 140.18 Z M 185.84 141.18 L 185.71 142.16 C 185.56 143.22 186.31 144.20 187.37 144.35 C 188.43 144.49 189.41 143.75 189.56 142.69 L 189.69 141.71 C 189.84 140.65 189.10 139.67 188.03 139.52 C 186.97 139.38 185.99 140.12 185.84 141.18 Z M 185.71 142.18 L 185.58 143.16 C 185.45 144.23 186.20 145.20 187.26 145.34 C 188.33 145.47 189.30 144.72 189.44 143.65 L 189.56 142.67 C 189.70 141.61 188.94 140.63 187.88 140.50 C 186.82 140.36 185.84 141.12 185.71 142.18 Z M 185.58 143.18 L 185.47 144.17 C 185.34 145.24 186.11 146.20 187.17 146.33 C 188.23 146.45 189.20 145.69 189.32 144.62 L 189.44 143.63 C 189.56 142.57 188.80 141.61 187.73 141.48 C 186.67 141.36 185.71 142.12 185.58 143.18 Z M 185.47 144.20 L 185.36 145.19 C 185.25 146.26 186.02 147.21 187.08 147.32 C 188.15 147.44 189.10 146.66 189.22 145.60 L 189.32 144.60 C 189.43 143.54 188.66 142.58 187.60 142.47 C 186.53 142.36 185.58 143.13 185.47 144.20 Z M 185.36 145.21 L 185.26 146.21 C 185.16 147.28 185.94 148.22 187.01 148.32 C 188.08 148.42 189.02 147.64 189.12 146.58 L 189.22 145.58 C 189.32 144.51 188.54 143.57 187.47 143.47 C 186.41 143.36 185.46 144.15 185.36 145.21 Z M 185.26 146.23 L 185.18 147.22 C 185.09 148.28 185.88 149.22 186.95 149.31 C 188.01 149.40 188.95 148.61 189.04 147.54 L 189.12 146.56 C 189.21 145.49 188.42 144.55 187.36 144.46 C 186.29 144.37 185.35 145.17 185.26 146.23 Z M 185.18 147.24 L 185.11 148.23 C 185.03 149.30 185.83 150.23 186.89 150.30 C 187.96 150.38 188.89 149.58 188.97 148.52 L 189.04 147.52 C 189.12 146.46 188.32 145.53 187.25 145.45 C 186.19 145.37 185.26 146.17 185.18 147.24 Z M 185.11 148.25 L 185.04 149.26 C 184.97 150.32 185.78 151.24 186.85 151.31 C 187.92 151.38 188.84 150.57 188.90 149.50 L 188.97 148.50 C 189.04 147.43 188.23 146.51 187.16 146.44 C 186.09 146.38 185.17 147.19 185.11 148.25 Z M 185.04 149.28 L 184.99 150.28 C 184.93 151.34 185.75 152.25 186.82 152.31 C 187.88 152.37 188.79 151.55 188.85 150.48 L 188.90 149.48 C 188.96 148.42 188.14 147.51 187.08 147.45 C 186.01 147.39 185.10 148.21 185.04 149.28 Z M 184.99 150.30 L 184.95 151.29 C 184.90 152.35 185.72 153.25 186.79 153.30 C 187.86 153.35 188.76 152.52 188.81 151.46 L 188.85 150.47 C 188.90 149.40 188.07 148.50 187.00 148.45 C 185.94 148.40 185.04 149.23 184.99 150.30 Z M 184.95 151.30 L 184.91 152.30 C 184.87 153.37 185.71 154.26 186.77 154.30 C 187.84 154.34 188.73 153.50 188.77 152.44 L 188.80 151.44 C 188.84 150.37 188.01 149.48 186.94 149.44 C 185.88 149.40 184.98 150.24 184.95 151.30 Z M 184.91 152.32 L 184.89 153.33 C 184.86 154.39 185.70 155.28 186.77 155.31 C 187.83 155.33 188.72 154.49 188.74 153.43 L 188.77 152.42 C 188.80 151.35 187.95 150.47 186.89 150.44 C 185.82 150.41 184.94 151.26 184.91 152.32 Z M 184.89 153.35 L 184.87 154.33 C 184.85 155.40 185.70 156.27 186.77 156.29 C 187.83 156.31 188.71 155.46 188.73 154.40 L 188.74 153.41 C 188.76 152.35 187.91 151.47 186.85 151.45 C 185.78 151.43 184.91 152.28 184.89 153.35 Z M 184.87 154.35 L 184.86 155.32 C 184.85 156.39 185.71 157.26 186.77 157.27 C 187.83 157.28 188.70 156.42 188.71 155.36 L 188.72 154.38 C 188.73 153.32 187.88 152.45 186.82 152.44 C 185.75 152.43 184.88 153.28 184.87 154.35 Z M 184.87 155.33 L 184.86 156.33 C 184.86 157.39 185.71 158.25 186.78 158.26 C 187.84 158.26 188.70 157.41 188.71 156.34 L 188.71 155.35 C 188.72 154.29 187.86 153.42 186.80 153.42 C 185.73 153.41 184.87 154.27 184.87 155.33 Z M 184.86 156.33 L 184.86 157.36 C 184.86 158.42 185.72 159.28 186.78 159.28 C 187.84 159.28 188.70 158.42 188.71 157.36 L 188.71 156.34 C 188.71 155.28 187.85 154.41 186.79 154.41 C 185.73 154.41 184.86 155.27 184.86 156.33 Z M 184.86 157.36 L 184.86 158.37 C 184.86 159.43 185.72 160.29 186.78 160.29 C 187.84 160.29 188.70 159.43 188.70 158.37 L 188.70 157.36 C 188.70 156.30 187.84 155.44 186.78 155.44 C 185.72 155.44 184.86 156.30 184.86 157.36 Z M 184.87 158.37 L 184.87 159.37 C 184.87 160.43 185.72 161.29 186.78 161.29 C 187.84 161.29 188.70 160.43 188.70 159.37 L 188.70 158.37 C 188.70 157.31 187.84 156.46 186.78 156.46 C 185.72 156.46 184.87 157.31 184.87 158.37 Z M 184.87 159.37 L 184.87 160.38 C 184.87 161.44 185.73 162.29 186.78 162.29 C 187.84 162.29 188.70 161.44 188.70 160.38 L 188.70 159.37 C 188.70 158.31 187.84 157.45 186.78 157.45 C 185.73 157.45 184.87 158.31 184.87 159.37 Z M 184.87 160.38 L 184.87 161.39 C 184.87 162.44 185.73 163.30 186.78 163.30 C 187.84 163.30 188.70 162.44 188.70 161.39 L 188.70 160.38 C 188.70 159.32 187.84 158.47 186.78 158.47 C 185.73 158.47 184.87 159.32 184.87 160.38 Z M 184.87 161.39 L 184.87 162.39 C 184.87 163.44 185.73 164.29 186.78 164.29 C 187.84 164.29 188.69 163.44 188.69 162.39 L 188.69 161.39 C 188.69 160.33 187.84 159.48 186.78 159.48 C 185.73 159.48 184.87 160.33 184.87 161.39 Z M 184.88 162.39 L 184.88 163.41 C 184.88 164.47 185.73 165.32 186.78 165.32 C 187.84 165.32 188.69 164.47 188.69 163.41 L 188.69 162.39 C 188.69 161.33 187.84 160.48 186.78 160.48 C 185.73 160.48 184.88 161.33 184.88 162.39 Z M 184.88 163.41 L 184.88 164.42 C 184.88 165.47 185.73 166.32 186.78 166.32 C 187.83 166.32 188.69 165.47 188.69 164.42 L 188.69 163.41 C 188.69 162.36 187.83 161.51 186.78 161.51 C 185.73 161.51 184.88 162.36 184.88 163.41 Z M 184.88 164.42 L 184.88 165.41 C 184.88 166.46 185.73 167.31 186.78 167.31 C 187.83 167.31 188.68 166.46 188.68 165.41 L 188.68 164.42 C 188.68 163.37 187.83 162.52 186.78 162.52 C 185.73 162.52 184.88 163.37 184.88 164.42 Z M 184.89 165.41 L 184.89 166.39 C 184.89 167.44 185.74 168.29 186.78 168.29 C 187.83 168.29 188.68 167.44 188.68 166.39 L 188.68 165.41 C 188.68 164.36 187.83 163.51 186.78 163.51 C 185.74 163.51 184.89 164.36 184.89 165.41 Z M 184.89 166.39 L 184.89 167.39 C 184.89 168.44 185.74 169.28 186.78 169.28 C 187.83 169.28 188.68 168.43 188.68 167.39 L 188.68 166.39 C 188.68 165.34 187.83 164.49 186.78 164.49 C 185.74 164.49 184.89 165.34 184.89 166.39 Z M 184.89 167.39 L 184.90 168.40 C 184.90 169.44 185.75 170.29 186.79 170.28 C 187.84 170.28 188.68 169.43 188.68 168.38 L 188.67 167.38 C 188.67 166.34 187.82 165.49 186.78 165.50 C 185.73 165.50 184.89 166.35 184.89 167.39 Z M 184.90 168.41 L 184.91 169.41 C 184.92 170.45 185.78 171.29 186.82 171.28 C 187.86 171.27 188.70 170.41 188.68 169.37 L 188.67 168.37 C 188.66 167.33 187.81 166.49 186.77 166.51 C 185.73 166.52 184.89 167.37 184.90 168.41 Z M 184.92 169.43 L 184.94 170.43 C 184.96 171.47 185.82 172.29 186.86 172.27 C 187.90 172.25 188.72 171.38 188.70 170.35 L 188.68 169.35 C 188.66 168.31 187.80 167.49 186.76 167.51 C 185.72 167.53 184.89 168.39 184.92 169.43 Z M 184.94 170.46 L 184.98 171.46 C 185.02 172.50 185.89 173.31 186.93 173.27 C 187.96 173.23 188.77 172.36 188.73 171.33 L 188.70 170.32 C 188.66 169.28 187.79 168.47 186.75 168.51 C 185.71 168.55 184.90 169.42 184.94 170.46 Z M 184.99 171.50 L 185.04 172.51 C 185.10 173.54 185.98 174.33 187.02 174.27 C 188.05 174.22 188.84 173.33 188.78 172.30 L 188.73 171.29 C 188.67 170.26 187.79 169.47 186.75 169.52 C 185.72 169.58 184.93 170.47 184.99 171.50 Z M 185.05 172.55 L 185.12 173.54 C 185.20 174.57 186.10 175.34 187.13 175.26 C 188.16 175.18 188.93 174.28 188.85 173.25 L 188.78 172.26 C 188.70 171.23 187.80 170.46 186.77 170.54 C 185.74 170.62 184.97 171.52 185.05 172.55 Z M 185.13 173.59 L 185.23 174.57 C 185.34 175.59 186.25 176.34 187.28 176.24 C 188.30 176.13 189.05 175.22 188.94 174.19 L 188.85 173.21 C 188.74 172.18 187.83 171.44 186.80 171.54 C 185.78 171.64 185.03 172.56 185.13 173.59 Z M 185.24 174.62 L 185.37 175.63 C 185.50 176.65 186.44 177.37 187.46 177.24 C 188.48 177.10 189.20 176.17 189.06 175.15 L 188.93 174.14 C 188.80 173.12 187.87 172.40 186.85 172.53 C 185.83 172.66 185.11 173.60 185.24 174.62 Z M 185.39 175.68 L 185.55 176.68 C 185.71 177.69 186.66 178.39 187.67 178.23 C 188.68 178.07 189.37 177.12 189.21 176.10 L 189.05 175.10 C 188.89 174.09 187.94 173.40 186.93 173.56 C 185.92 173.72 185.23 174.67 185.39 175.68 Z M 185.56 176.73 L 185.74 177.71 C 185.93 178.71 186.90 179.37 187.90 179.19 C 188.90 179.00 189.56 178.03 189.38 177.03 L 189.19 176.05 C 189.01 175.05 188.04 174.39 187.04 174.58 C 186.03 174.77 185.37 175.73 185.56 176.73 Z M 185.76 177.76 L 185.97 178.70 C 186.18 179.70 187.16 180.33 188.15 180.11 C 189.15 179.90 189.78 178.92 189.56 177.92 L 189.36 176.98 C 189.14 175.99 188.16 175.36 187.17 175.57 C 186.18 175.79 185.55 176.77 185.76 177.76 Z M 185.99 178.75 L 186.23 179.74 C 186.47 180.72 187.46 181.32 188.45 181.08 C 189.43 180.84 190.03 179.84 189.79 178.86 L 189.54 177.88 C 189.30 176.89 188.31 176.29 187.33 176.54 C 186.34 176.78 185.74 177.77 185.99 178.75 Z M 186.25 179.77 L 186.50 180.73 C 186.77 181.71 187.77 182.28 188.74 182.02 C 189.71 181.76 190.29 180.76 190.03 179.78 L 189.77 178.82 C 189.51 177.85 188.51 177.28 187.53 177.54 C 186.56 177.80 185.98 178.80 186.25 179.77 Z M 186.52 180.75 L 186.78 181.70 C 187.06 182.67 188.06 183.23 189.02 182.96 C 189.99 182.69 190.55 181.69 190.28 180.72 L 190.01 179.77 C 189.74 178.80 188.74 178.24 187.78 178.51 C 186.81 178.78 186.25 179.78 186.52 180.75 Z M 186.79 181.70 L 187.05 182.63 C 187.32 183.59 188.32 184.15 189.28 183.88 C 190.24 183.61 190.80 182.61 190.53 181.65 L 190.27 180.73 C 190.00 179.77 189.01 179.20 188.05 179.47 C 187.09 179.74 186.52 180.74 186.79 181.70 Z M 187.07 182.64 L 187.34 183.56 C 187.61 184.51 188.61 185.06 189.56 184.79 C 190.51 184.51 191.06 183.51 190.78 182.56 L 190.52 181.64 C 190.24 180.69 189.24 180.14 188.29 180.42 C 187.34 180.69 186.79 181.69 187.07 182.64 Z M 187.36 183.61 L 187.67 184.57 C 187.98 185.50 188.98 186.02 189.92 185.71 C 190.86 185.41 191.37 184.40 191.07 183.47 L 190.76 182.51 C 190.45 181.57 189.45 181.06 188.51 181.37 C 187.57 181.67 187.06 182.68 187.36 183.61 Z M 187.71 184.64 L 188.09 185.64 C 188.44 186.55 189.46 187.01 190.38 186.66 C 191.29 186.32 191.75 185.29 191.40 184.38 L 191.03 183.39 C 190.68 182.47 189.66 182.01 188.74 182.36 C 187.83 182.71 187.37 183.73 187.71 184.64 Z M 188.14 185.73 L 188.54 186.63 C 188.94 187.51 189.98 187.91 190.87 187.52 C 191.75 187.12 192.15 186.08 191.76 185.19 L 191.36 184.29 C 190.96 183.40 189.92 183.01 189.03 183.40 C 188.14 183.80 187.74 184.84 188.14 185.73 Z M 188.59 186.70 L 189.05 187.60 C 189.48 188.46 190.54 188.81 191.40 188.37 C 192.26 187.93 192.61 186.87 192.17 186.01 L 191.71 185.11 C 191.27 184.25 190.22 183.91 189.35 184.35 C 188.49 184.79 188.15 185.84 188.59 186.70 Z M 189.10 187.68 L 189.61 188.56 C 190.09 189.39 191.15 189.68 191.99 189.20 C 192.82 188.72 193.11 187.65 192.63 186.82 L 192.12 185.93 C 191.63 185.10 190.57 184.81 189.73 185.30 C 188.90 185.78 188.61 186.84 189.10 187.68 Z M 189.66 188.64 L 190.22 189.48 C 190.74 190.28 191.82 190.51 192.62 189.98 C 193.42 189.46 193.64 188.38 193.12 187.58 L 192.57 186.74 C 192.04 185.94 190.97 185.71 190.16 186.24 C 189.36 186.76 189.14 187.84 189.66 188.64 Z M 190.29 189.57 L 190.91 190.39 C 191.49 191.15 192.57 191.30 193.33 190.72 C 194.09 190.15 194.24 189.07 193.66 188.31 L 193.04 187.49 C 192.47 186.73 191.39 186.58 190.63 187.15 C 189.87 187.73 189.72 188.81 190.29 189.57 Z M 191.01 190.48 L 191.68 191.25 C 192.31 191.96 193.39 192.02 194.10 191.40 C 194.81 190.77 194.87 189.69 194.25 188.98 L 193.57 188.22 C 192.94 187.51 191.86 187.44 191.15 188.07 C 190.45 188.69 190.38 189.77 191.01 190.48 Z M 191.78 191.33 L 192.49 192.02 C 193.16 192.67 194.24 192.66 194.89 191.99 C 195.54 191.32 195.53 190.24 194.85 189.59 L 194.15 188.90 C 193.48 188.25 192.40 188.27 191.75 188.94 C 191.10 189.61 191.11 190.68 191.78 191.33 Z M 192.59 192.09 L 193.33 192.71 C 194.04 193.31 195.10 193.22 195.69 192.51 C 196.29 191.80 196.20 190.75 195.49 190.15 L 194.76 189.53 C 194.05 188.93 192.99 189.02 192.39 189.72 C 191.80 190.43 191.89 191.49 192.59 192.09 Z M 193.42 192.77 L 194.22 193.35 C 194.96 193.90 196.00 193.74 196.54 193.00 C 197.09 192.27 196.93 191.22 196.19 190.68 L 195.40 190.09 C 194.66 189.55 193.62 189.70 193.08 190.44 C 192.53 191.18 192.69 192.22 193.42 192.77 Z M 194.32 193.41 L 195.16 193.95 C 195.93 194.44 196.96 194.21 197.45 193.43 C 197.93 192.66 197.70 191.64 196.93 191.15 L 196.09 190.62 C 195.32 190.13 194.30 190.36 193.81 191.13 C 193.32 191.90 193.55 192.92 194.32 193.41 Z M 195.29 194.01 L 196.17 194.47 C 196.98 194.89 197.97 194.57 198.39 193.77 C 198.81 192.96 198.50 191.96 197.69 191.54 L 196.81 191.09 C 196.00 190.67 195.00 190.98 194.58 191.79 C 194.17 192.60 194.48 193.59 195.29 194.01 Z M 196.32 194.53 L 197.25 194.90 C 198.10 195.24 199.05 194.83 199.39 193.99 C 199.72 193.15 199.31 192.19 198.47 191.86 L 197.54 191.48 C 196.70 191.15 195.74 191.56 195.41 192.40 C 195.07 193.24 195.48 194.19 196.32 194.53 Z M 197.41 194.95 L 198.34 195.22 C 199.21 195.48 200.12 194.97 200.37 194.11 C 200.62 193.24 200.12 192.33 199.25 192.08 L 198.32 191.81 C 197.45 191.56 196.54 192.06 196.29 192.93 C 196.04 193.79 196.54 194.70 197.41 194.95 Z M 198.46 195.25 L 199.44 195.46 C 200.32 195.64 201.19 195.08 201.37 194.19 C 201.56 193.31 200.99 192.44 200.11 192.25 L 199.14 192.05 C 198.25 191.86 197.38 192.43 197.20 193.32 C 197.01 194.20 197.58 195.07 198.46 195.25 Z M 199.51 195.47 L 200.51 195.63 C 201.40 195.78 202.24 195.17 202.39 194.28 C 202.53 193.38 201.92 192.54 201.03 192.40 L 200.03 192.24 C 199.14 192.10 198.30 192.70 198.16 193.60 C 198.01 194.49 198.62 195.33 199.51 195.47 Z M 200.55 195.64 L 201.55 195.77 C 202.44 195.90 203.27 195.27 203.39 194.38 C 203.51 193.48 202.89 192.65 201.99 192.53 L 200.99 192.39 C 200.10 192.27 199.27 192.90 199.15 193.79 C 199.03 194.69 199.65 195.51 200.55 195.64 Z"
      fill="black"
      fill-rule="nonzero" /><path d="M 217.80 106.13 L 217.04 106.79 C 216.27 107.46 216.19 108.63 216.86 109.40 C 217.53 110.17 218.69 110.25 219.46 109.58 L 220.22 108.92 C 220.99 108.25 221.07 107.08 220.40 106.31 C 219.73 105.54 218.57 105.46 217.80 106.13 Z M 216.99 106.82 L 216.26 107.50 C 215.50 108.19 215.45 109.37 216.15 110.12 C 216.84 110.88 218.01 110.92 218.77 110.23 L 219.51 109.55 C 220.26 108.86 220.31 107.68 219.62 106.93 C 218.92 106.18 217.75 106.13 216.99 106.82 Z M 216.18 107.56 L 215.48 108.27 C 214.76 109.01 214.78 110.19 215.51 110.91 C 216.25 111.63 217.43 111.62 218.15 110.88 L 218.85 110.17 C 219.57 109.43 219.55 108.25 218.82 107.53 C 218.08 106.81 216.90 106.83 216.18 107.56 Z M 215.37 108.38 L 214.75 109.14 C 214.09 109.93 214.20 111.12 214.99 111.78 C 215.79 112.44 216.97 112.33 217.63 111.53 L 218.26 110.77 C 218.92 109.98 218.81 108.80 218.01 108.14 C 217.22 107.47 216.04 107.58 215.37 108.38 Z M 214.63 109.28 L 214.10 110.07 C 213.51 110.93 213.74 112.10 214.59 112.68 C 215.45 113.27 216.62 113.04 217.21 112.18 L 217.74 111.39 C 218.33 110.53 218.10 109.36 217.25 108.78 C 216.39 108.19 215.22 108.42 214.63 109.28 Z M 214.01 110.20 L 213.53 111.05 C 213.01 111.96 213.33 113.11 214.24 113.62 C 215.15 114.13 216.30 113.81 216.81 112.91 L 217.29 112.05 C 217.81 111.15 217.49 110.00 216.58 109.48 C 215.67 108.97 214.52 109.29 214.01 110.20 Z M 213.47 111.16 L 213.02 112.07 C 212.57 113.01 212.96 114.15 213.90 114.60 C 214.84 115.06 215.97 114.66 216.43 113.72 L 216.87 112.80 C 217.33 111.86 216.93 110.73 215.99 110.28 C 215.05 109.82 213.92 110.22 213.47 111.16 Z M 212.98 112.15 L 212.58 113.09 C 212.16 114.05 212.61 115.17 213.57 115.58 C 214.53 116.00 215.65 115.55 216.06 114.59 L 216.47 113.65 C 216.88 112.68 216.44 111.57 215.47 111.15 C 214.51 110.74 213.40 111.18 212.98 112.15 Z M 212.55 113.14 L 212.22 113.99 C 211.83 114.96 212.31 116.07 213.28 116.46 C 214.26 116.84 215.36 116.37 215.75 115.39 L 216.09 114.54 C 216.47 113.57 216.00 112.46 215.02 112.07 C 214.05 111.69 212.94 112.16 212.55 113.14 Z M 212.20 114.03 L 211.87 114.92 C 211.50 115.91 212.00 117.00 212.99 117.37 C 213.97 117.74 215.07 117.23 215.43 116.25 L 215.77 115.35 C 216.13 114.37 215.63 113.27 214.65 112.90 C 213.66 112.54 212.57 113.04 212.20 114.03 Z M 211.85 114.96 L 211.52 115.91 C 211.17 116.90 211.70 117.99 212.69 118.34 C 213.68 118.68 214.77 118.16 215.12 117.17 L 215.45 116.21 C 215.80 115.22 215.27 114.14 214.28 113.79 C 213.29 113.44 212.20 113.97 211.85 114.96 Z M 211.51 115.94 L 211.17 116.95 C 210.84 117.95 211.39 119.03 212.38 119.36 C 213.38 119.69 214.46 119.15 214.79 118.15 L 215.13 117.14 C 215.46 116.14 214.92 115.06 213.92 114.73 C 212.92 114.40 211.84 114.94 211.51 115.94 Z M 211.16 116.98 L 210.84 117.99 C 210.53 118.99 211.09 120.06 212.09 120.38 C 213.10 120.70 214.17 120.14 214.48 119.14 L 214.80 118.12 C 215.12 117.12 214.56 116.05 213.56 115.73 C 212.55 115.41 211.48 115.97 211.16 116.98 Z M 210.84 118.01 L 210.56 118.94 C 210.25 119.94 210.82 121.01 211.83 121.32 C 212.84 121.62 213.90 121.05 214.21 120.04 L 214.49 119.12 C 214.80 118.11 214.23 117.04 213.22 116.74 C 212.21 116.43 211.14 117.00 210.84 118.01 Z M 210.55 118.95 L 210.27 119.91 C 209.97 120.92 210.55 121.98 211.56 122.28 C 212.58 122.58 213.64 122.00 213.93 120.99 L 214.21 120.03 C 214.51 119.02 213.93 117.95 212.92 117.66 C 211.91 117.36 210.85 117.94 210.55 118.95 Z M 210.26 119.93 L 209.99 120.90 C 209.70 121.92 210.29 122.97 211.30 123.26 C 212.32 123.55 213.37 122.96 213.66 121.95 L 213.94 120.97 C 214.23 119.96 213.64 118.90 212.62 118.61 C 211.61 118.32 210.55 118.91 210.26 119.93 Z M 209.98 120.92 L 209.71 121.90 C 209.43 122.92 210.03 123.97 211.05 124.25 C 212.06 124.53 213.12 123.93 213.40 122.92 L 213.67 121.93 C 213.95 120.91 213.35 119.86 212.33 119.58 C 211.31 119.30 210.26 119.90 209.98 120.92 Z M 209.71 121.92 L 209.45 122.90 C 209.17 123.92 209.78 124.96 210.80 125.24 C 211.82 125.51 212.87 124.90 213.14 123.88 L 213.40 122.90 C 213.67 121.88 213.06 120.83 212.04 120.56 C 211.02 120.29 209.98 120.90 209.71 121.92 Z M 209.44 122.91 L 209.20 123.87 C 208.93 124.89 209.55 125.93 210.57 126.20 C 211.59 126.46 212.64 125.84 212.90 124.82 L 213.14 123.86 C 213.41 122.84 212.79 121.80 211.77 121.54 C 210.75 121.27 209.70 121.89 209.44 122.91 Z M 209.19 123.88 L 208.96 124.81 C 208.71 125.84 209.33 126.87 210.36 127.13 C 211.39 127.38 212.42 126.76 212.68 125.73 L 212.90 124.80 C 213.16 123.78 212.53 122.74 211.51 122.49 C 210.48 122.23 209.44 122.86 209.19 123.88 Z M 208.96 124.83 L 208.74 125.76 C 208.49 126.78 209.13 127.82 210.16 128.06 C 211.18 128.31 212.22 127.67 212.46 126.64 L 212.68 125.71 C 212.93 124.68 212.29 123.65 211.26 123.41 C 210.23 123.16 209.20 123.80 208.96 124.83 Z M 208.73 125.77 L 208.51 126.72 C 208.28 127.75 208.92 128.78 209.96 129.01 C 210.99 129.25 212.01 128.60 212.25 127.57 L 212.47 126.62 C 212.70 125.59 212.06 124.57 211.02 124.33 C 209.99 124.10 208.97 124.74 208.73 125.77 Z M 208.51 126.73 L 208.29 127.71 C 208.07 128.75 208.72 129.77 209.76 130.00 C 210.79 130.22 211.81 129.57 212.04 128.54 L 212.25 127.56 C 212.48 126.52 211.83 125.50 210.79 125.27 C 209.76 125.05 208.74 125.70 208.51 126.73 Z M 208.29 127.73 L 208.07 128.76 C 207.85 129.79 208.51 130.81 209.55 131.03 C 210.58 131.25 211.60 130.59 211.82 129.56 L 212.04 128.52 C 212.26 127.49 211.60 126.47 210.57 126.25 C 209.53 126.03 208.51 126.69 208.29 127.73 Z M 208.07 128.77 L 207.85 129.80 C 207.64 130.84 208.31 131.85 209.34 132.07 C 210.38 132.28 211.40 131.62 211.61 130.58 L 211.83 129.55 C 212.04 128.51 211.37 127.49 210.34 127.28 C 209.30 127.06 208.28 127.73 208.07 128.77 Z M 207.85 129.81 L 207.66 130.75 C 207.45 131.79 208.12 132.80 209.16 133.02 C 210.20 133.23 211.21 132.55 211.42 131.51 L 211.62 130.57 C 211.83 129.53 211.15 128.52 210.11 128.31 C 209.08 128.10 208.06 128.77 207.85 129.81 Z M 207.66 130.76 L 207.46 131.74 C 207.26 132.78 207.93 133.79 208.97 134.00 C 210.01 134.20 211.03 133.53 211.23 132.49 L 211.43 131.51 C 211.63 130.47 210.96 129.46 209.92 129.25 C 208.88 129.04 207.86 129.72 207.66 130.76 Z M 207.46 131.75 L 207.27 132.75 C 207.06 133.79 207.74 134.80 208.79 135.00 C 209.83 135.20 210.84 134.52 211.04 133.48 L 211.24 132.48 C 211.44 131.44 210.76 130.43 209.72 130.23 C 208.67 130.02 207.66 130.70 207.46 131.75 Z M 207.26 132.75 L 207.07 133.77 C 206.87 134.81 207.56 135.82 208.60 136.02 C 209.64 136.21 210.65 135.53 210.85 134.49 L 211.04 133.47 C 211.24 132.43 210.56 131.42 209.51 131.22 C 208.47 131.03 207.46 131.71 207.26 132.75 Z M 207.07 133.77 L 206.88 134.78 C 206.69 135.83 207.38 136.83 208.42 137.03 C 209.47 137.22 210.47 136.53 210.67 135.49 L 210.85 134.48 C 211.05 133.43 210.36 132.43 209.31 132.23 C 208.27 132.04 207.26 132.73 207.07 133.77 Z M 206.88 134.79 L 206.70 135.79 C 206.51 136.83 207.20 137.84 208.25 138.02 C 209.30 138.21 210.30 137.52 210.49 136.47 L 210.67 135.48 C 210.86 134.43 210.16 133.43 209.12 133.24 C 208.07 133.05 207.07 133.75 206.88 134.79 Z M 206.69 135.80 L 206.53 136.76 C 206.34 137.81 207.05 138.81 208.09 138.99 C 209.14 139.18 210.14 138.47 210.32 137.43 L 210.49 136.46 C 210.68 135.41 209.97 134.41 208.92 134.23 C 207.88 134.05 206.88 134.75 206.69 135.80 Z M 206.52 136.78 L 206.35 137.84 C 206.17 138.89 206.88 139.88 207.93 140.05 C 208.98 140.23 209.98 139.52 210.15 138.47 L 210.33 137.41 C 210.50 136.36 209.79 135.37 208.74 135.19 C 207.69 135.02 206.70 135.73 206.52 136.78 Z M 206.34 137.85 L 206.18 138.89 C 206.02 139.94 206.74 140.93 207.79 141.09 C 208.84 141.26 209.83 140.54 209.99 139.48 L 210.16 138.45 C 210.32 137.40 209.60 136.41 208.55 136.25 C 207.50 136.08 206.51 136.80 206.34 137.85 Z M 206.18 138.91 L 206.03 139.90 C 205.88 140.96 206.61 141.94 207.66 142.09 C 208.72 142.24 209.70 141.51 209.85 140.46 L 210.00 139.46 C 210.15 138.41 209.42 137.43 208.37 137.28 C 207.31 137.12 206.33 137.85 206.18 138.91 Z M 206.03 139.92 L 205.90 140.89 C 205.76 141.95 206.50 142.92 207.55 143.06 C 208.61 143.21 209.58 142.46 209.72 141.41 L 209.86 140.44 C 210.00 139.38 209.26 138.41 208.20 138.27 C 207.14 138.13 206.17 138.87 206.03 139.92 Z M 205.89 140.91 L 205.78 141.87 C 205.65 142.93 206.40 143.89 207.46 144.02 C 208.52 144.15 209.48 143.40 209.61 142.34 L 209.73 141.38 C 209.86 140.33 209.10 139.36 208.05 139.23 C 206.99 139.10 206.02 139.86 205.89 140.91 Z M 205.77 141.89 L 205.67 142.84 C 205.55 143.90 206.32 144.86 207.38 144.97 C 208.44 145.09 209.39 144.32 209.51 143.26 L 209.62 142.31 C 209.73 141.25 208.97 140.30 207.91 140.18 C 206.85 140.07 205.89 140.83 205.77 141.89 Z M 205.67 142.86 L 205.57 143.83 C 205.47 144.89 206.24 145.84 207.31 145.94 C 208.37 146.05 209.31 145.27 209.42 144.21 L 209.51 143.24 C 209.62 142.18 208.84 141.23 207.78 141.13 C 206.72 141.02 205.77 141.80 205.67 142.86 Z M 205.57 143.85 L 205.48 144.84 C 205.39 145.91 206.18 146.84 207.24 146.94 C 208.31 147.03 209.24 146.24 209.34 145.18 L 209.42 144.19 C 209.51 143.12 208.73 142.18 207.66 142.09 C 206.60 142.00 205.66 142.79 205.57 143.85 Z M 205.48 144.86 L 205.41 145.86 C 205.32 146.93 206.12 147.86 207.19 147.94 C 208.25 148.02 209.18 147.22 209.26 146.16 L 209.34 145.16 C 209.42 144.09 208.62 143.16 207.56 143.08 C 206.49 143.00 205.56 143.80 205.48 144.86 Z M 205.40 145.88 L 205.34 146.89 C 205.27 147.95 206.08 148.87 207.14 148.94 C 208.21 149.01 209.13 148.20 209.20 147.14 L 209.26 146.14 C 209.33 145.07 208.53 144.15 207.46 144.08 C 206.39 144.01 205.47 144.82 205.40 145.88 Z M 205.34 146.91 L 205.28 147.91 C 205.22 148.98 206.04 149.89 207.11 149.95 C 208.17 150.01 209.09 149.19 209.14 148.12 L 209.20 147.12 C 209.26 146.05 208.44 145.14 207.37 145.08 C 206.31 145.02 205.40 145.84 205.34 146.91 Z M 205.28 147.93 L 205.23 148.93 C 205.19 150.00 206.01 150.90 207.08 150.95 C 208.15 151.00 209.05 150.17 209.10 149.10 L 209.15 148.10 C 209.19 147.04 208.37 146.13 207.30 146.08 C 206.23 146.04 205.33 146.86 205.28 147.93 Z M 205.23 148.95 L 205.20 149.97 C 205.16 151.04 206.00 151.94 207.07 151.97 C 208.13 152.01 209.03 151.17 209.07 150.11 L 209.10 149.08 C 209.14 148.02 208.30 147.12 207.24 147.08 C 206.17 147.05 205.27 147.88 205.23 148.95 Z M 205.20 149.99 L 205.17 151.09 C 205.14 152.16 205.99 153.04 207.06 153.07 C 208.13 153.10 209.01 152.25 209.04 151.18 L 209.07 150.09 C 209.09 149.02 208.25 148.13 207.18 148.10 C 206.11 148.08 205.22 148.92 205.20 149.99 Z M 205.17 151.10 L 205.15 152.17 C 205.14 153.24 205.99 154.12 207.06 154.14 C 208.13 154.15 209.01 153.30 209.02 152.23 L 209.04 151.17 C 209.06 150.10 208.21 149.22 207.14 149.20 C 206.07 149.18 205.19 150.04 205.17 151.10 Z M 205.15 152.18 L 205.14 153.20 C 205.13 154.27 205.99 155.15 207.06 155.16 C 208.13 155.17 209.01 154.31 209.01 153.24 L 209.02 152.22 C 209.03 151.15 208.18 150.28 207.11 150.27 C 206.04 150.26 205.16 151.12 205.15 152.18 Z M 205.14 153.21 L 205.14 154.17 C 205.14 155.24 206.00 156.11 207.07 156.12 C 208.14 156.12 209.01 155.26 209.01 154.19 L 209.01 153.23 C 209.02 152.16 208.16 151.29 207.09 151.29 C 206.02 151.28 205.15 152.15 205.14 153.21 Z M 205.14 154.18 L 205.14 155.06 C 205.14 156.13 206.00 157.00 207.07 157.00 C 208.14 157.00 209.01 156.14 209.01 155.07 L 209.01 154.18 C 209.01 153.11 208.15 152.25 207.08 152.25 C 206.01 152.25 205.14 153.11 205.14 154.18 Z M 205.14 155.07 L 205.14 156.15 C 205.14 157.22 206.01 158.08 207.07 158.08 C 208.14 158.08 209.01 157.22 209.01 156.15 L 209.01 155.07 C 209.01 154.00 208.14 153.13 207.07 153.13 C 206.01 153.13 205.14 154.00 205.14 155.07 Z M 205.14 156.15 L 205.14 157.20 C 205.14 158.27 206.01 159.13 207.07 159.13 C 208.14 159.13 209.01 158.27 209.01 157.20 L 209.01 156.15 C 209.01 155.08 208.14 154.21 207.07 154.21 C 206.01 154.21 205.14 155.08 205.14 156.15 Z M 205.14 157.20 L 205.14 158.12 C 205.14 159.19 206.01 160.06 207.07 160.06 C 208.14 160.06 209.01 159.19 209.01 158.12 L 209.01 157.20 C 209.01 156.13 208.14 155.26 207.07 155.26 C 206.01 155.26 205.14 156.13 205.14 157.20 Z M 205.14 158.12 L 205.14 159.01 C 205.14 160.08 206.01 160.94 207.07 160.94 C 208.14 160.94 209.01 160.08 209.01 159.01 L 209.01 158.12 C 209.01 157.05 208.14 156.19 207.07 156.19 C 206.01 156.19 205.14 157.05 205.14 158.12 Z M 205.14 159.01 L 205.14 159.99 C 205.14 161.06 206.01 161.93 207.08 161.93 C 208.15 161.92 209.01 161.06 209.01 159.99 L 209.01 159.00 C 209.01 157.94 208.14 157.07 207.07 157.07 C 206.00 157.08 205.14 157.94 205.14 159.01 Z M 205.14 160.01 L 205.15 161.01 C 205.17 162.08 206.04 162.94 207.11 162.92 C 208.18 162.91 209.04 162.03 209.02 160.96 L 209.01 159.97 C 209.00 158.90 208.12 158.04 207.05 158.05 C 205.98 158.07 205.13 158.95 205.14 160.01 Z M 205.15 161.05 L 205.18 162.07 C 205.22 163.13 206.11 163.97 207.18 163.94 C 208.25 163.91 209.09 163.02 209.05 161.95 L 209.02 160.93 C 208.99 159.86 208.10 159.02 207.03 159.05 C 205.96 159.08 205.12 159.98 205.15 161.05 Z M 205.19 162.11 L 205.23 163.00 C 205.29 164.06 206.20 164.88 207.27 164.83 C 208.34 164.77 209.16 163.86 209.10 162.79 L 209.05 161.90 C 209.00 160.84 208.08 160.02 207.02 160.07 C 205.95 160.13 205.13 161.04 205.19 162.11 Z M 205.24 163.05 L 205.32 164.00 C 205.41 165.07 206.34 165.86 207.41 165.77 C 208.47 165.68 209.26 164.74 209.17 163.68 L 209.10 162.73 C 209.01 161.67 208.07 160.88 207.01 160.96 C 205.94 161.05 205.15 161.99 205.24 163.05 Z M 205.32 164.07 L 205.45 165.11 C 205.57 166.17 206.54 166.93 207.60 166.80 C 208.66 166.68 209.42 165.72 209.29 164.65 L 209.17 163.61 C 209.04 162.55 208.08 161.79 207.02 161.92 C 205.96 162.04 205.20 163.01 205.32 164.07 Z M 205.46 165.17 L 205.62 166.25 C 205.78 167.30 206.77 168.03 207.82 167.87 C 208.88 167.70 209.61 166.72 209.45 165.66 L 209.28 164.59 C 209.12 163.53 208.13 162.81 207.08 162.97 C 206.02 163.13 205.30 164.12 205.46 165.17 Z M 205.63 166.29 L 205.79 167.20 C 205.98 168.26 206.99 168.95 208.04 168.77 C 209.09 168.58 209.79 167.57 209.60 166.52 L 209.44 165.61 C 209.25 164.56 208.24 163.86 207.19 164.05 C 206.14 164.24 205.44 165.24 205.63 166.29 Z M 205.80 167.24 L 205.99 168.20 C 206.20 169.25 207.22 169.93 208.27 169.72 C 209.31 169.51 209.99 168.50 209.78 167.45 L 209.59 166.48 C 209.38 165.44 208.37 164.76 207.32 164.97 C 206.27 165.17 205.59 166.19 205.80 167.24 Z M 206.00 168.24 L 206.22 169.24 C 206.44 170.28 207.47 170.94 208.51 170.72 C 209.56 170.49 210.22 169.46 209.99 168.42 L 209.78 167.42 C 209.55 166.37 208.52 165.71 207.48 165.94 C 206.43 166.16 205.77 167.19 206.00 168.24 Z M 206.22 169.27 L 206.46 170.29 C 206.70 171.33 207.74 171.97 208.78 171.73 C 209.82 171.49 210.47 170.45 210.23 169.41 L 209.99 168.39 C 209.74 167.35 208.70 166.70 207.66 166.94 C 206.63 167.19 205.98 168.23 206.22 169.27 Z M 206.47 170.32 L 206.73 171.34 C 206.98 172.38 208.03 173.00 209.07 172.75 C 210.10 172.49 210.73 171.44 210.47 170.40 L 210.22 169.38 C 209.96 168.34 208.91 167.71 207.87 167.97 C 206.84 168.23 206.21 169.28 206.47 170.32 Z M 206.73 171.37 L 207.00 172.35 C 207.27 173.38 208.33 173.99 209.36 173.71 C 210.39 173.44 211.00 172.38 210.73 171.35 L 210.46 170.37 C 210.19 169.34 209.13 168.73 208.10 169.01 C 207.07 169.28 206.46 170.34 206.73 171.37 Z M 207.01 172.38 L 207.28 173.34 C 207.58 174.37 208.64 174.96 209.67 174.67 C 210.69 174.37 211.28 173.31 210.99 172.28 L 210.72 171.32 C 210.42 170.29 209.36 169.70 208.33 169.99 C 207.31 170.29 206.71 171.35 207.01 172.38 Z M 207.30 173.37 L 207.59 174.33 C 207.90 175.35 208.97 175.92 209.99 175.61 C 211.01 175.30 211.58 174.22 211.27 173.21 L 210.98 172.25 C 210.67 171.24 209.59 170.66 208.58 170.97 C 207.56 171.28 206.99 172.36 207.30 173.37 Z M 207.60 174.36 L 207.91 175.31 C 208.23 176.32 209.32 176.87 210.33 176.54 C 211.34 176.22 211.89 175.13 211.56 174.12 L 211.26 173.18 C 210.93 172.17 209.85 171.61 208.84 171.94 C 207.83 172.27 207.27 173.35 207.60 174.36 Z M 207.92 175.34 L 208.24 176.28 C 208.59 177.28 209.68 177.82 210.68 177.47 C 211.68 177.13 212.22 176.03 211.87 175.03 L 211.55 174.09 C 211.21 173.09 210.11 172.55 209.11 172.90 C 208.11 173.24 207.57 174.34 207.92 175.34 Z M 208.26 176.31 L 208.61 177.27 C 208.97 178.26 210.07 178.77 211.06 178.41 C 212.06 178.05 212.57 176.95 212.21 175.96 L 211.86 175.00 C 211.50 174.00 210.40 173.49 209.40 173.85 C 208.41 174.22 207.89 175.32 208.26 176.31 Z M 208.63 177.30 L 209.00 178.27 C 209.38 179.25 210.49 179.74 211.47 179.36 C 212.45 178.98 212.94 177.87 212.56 176.89 L 212.19 175.92 C 211.81 174.94 210.70 174.45 209.72 174.83 C 208.73 175.21 208.24 176.32 208.63 177.30 Z M 209.02 178.30 L 209.41 179.25 C 209.81 180.22 210.92 180.68 211.89 180.28 C 212.87 179.89 213.33 178.77 212.93 177.80 L 212.54 176.86 C 212.14 175.88 211.03 175.42 210.06 175.82 C 209.09 176.22 208.62 177.33 209.02 178.30 Z M 209.43 179.29 L 209.84 180.20 C 210.26 181.16 211.37 181.60 212.33 181.18 C 213.29 180.76 213.73 179.64 213.31 178.68 L 212.91 177.76 C 212.48 176.81 211.37 176.37 210.41 176.79 C 209.45 177.21 209.01 178.33 209.43 179.29 Z M 209.86 180.24 L 210.27 181.12 C 210.72 182.06 211.84 182.47 212.79 182.02 C 213.73 181.58 214.13 180.46 213.69 179.51 L 213.28 178.64 C 212.84 177.69 211.71 177.29 210.77 177.73 C 209.82 178.18 209.42 179.30 209.86 180.24 Z M 210.31 181.17 L 210.76 182.05 C 211.23 182.97 212.36 183.34 213.28 182.87 C 214.21 182.40 214.57 181.27 214.10 180.34 L 213.66 179.46 C 213.19 178.54 212.05 178.17 211.13 178.64 C 210.21 179.11 209.84 180.24 210.31 181.17 Z M 210.80 182.10 L 211.32 183.03 C 211.82 183.93 212.96 184.25 213.86 183.75 C 214.76 183.25 215.08 182.11 214.58 181.21 L 214.06 180.28 C 213.55 179.39 212.42 179.06 211.52 179.57 C 210.62 180.07 210.30 181.21 210.80 182.10 Z M 211.38 183.09 L 211.91 183.95 C 212.44 184.81 213.58 185.08 214.45 184.55 C 215.31 184.01 215.58 182.88 215.05 182.01 L 214.52 181.15 C 213.98 180.28 212.85 180.02 211.98 180.55 C 211.11 181.09 210.84 182.22 211.38 183.09 Z M 211.97 184.00 L 212.51 184.80 C 213.07 185.63 214.21 185.85 215.04 185.29 C 215.88 184.72 216.10 183.58 215.53 182.75 L 214.99 181.95 C 214.42 181.12 213.29 180.90 212.45 181.47 C 211.62 182.03 211.40 183.17 211.97 184.00 Z M 212.56 184.85 L 213.12 185.60 C 213.71 186.40 214.84 186.58 215.65 185.98 C 216.45 185.39 216.62 184.26 216.03 183.45 L 215.47 182.70 C 214.88 181.90 213.75 181.73 212.94 182.32 C 212.14 182.91 211.97 184.05 212.56 184.85 Z M 213.18 185.64 L 213.82 186.44 C 214.43 187.21 215.56 187.34 216.33 186.72 C 217.10 186.10 217.23 184.98 216.61 184.21 L 215.97 183.41 C 215.35 182.64 214.23 182.51 213.46 183.13 C 212.69 183.75 212.56 184.87 213.18 185.64 Z M 213.88 186.48 L 214.53 187.24 C 215.17 187.98 216.28 188.06 217.02 187.42 C 217.76 186.79 217.84 185.67 217.20 184.93 L 216.55 184.17 C 215.91 183.43 214.80 183.35 214.06 183.99 C 213.32 184.62 213.24 185.74 213.88 186.48 Z M 214.58 187.26 L 215.25 187.99 C 215.90 188.70 217.00 188.75 217.71 188.10 C 218.42 187.45 218.47 186.34 217.82 185.63 L 217.15 184.91 C 216.50 184.20 215.40 184.15 214.69 184.80 C 213.98 185.45 213.93 186.55 214.58 187.26 Z M 215.30 188.01 L 215.97 188.71 C 216.63 189.40 217.72 189.42 218.41 188.76 C 219.09 188.10 219.11 187.01 218.45 186.32 L 217.77 185.62 C 217.11 184.93 216.02 184.91 215.34 185.57 C 214.66 186.23 214.64 187.32 215.30 188.01 Z M 216.02 188.73 L 216.71 189.41 C 217.38 190.07 218.46 190.07 219.12 189.40 C 219.78 188.73 219.77 187.65 219.10 186.99 L 218.41 186.31 C 217.74 185.65 216.66 185.65 216.00 186.32 C 215.34 186.99 215.35 188.07 216.02 188.73 Z M 216.76 189.44 L 217.49 190.11 C 218.17 190.74 219.24 190.70 219.87 190.01 C 220.50 189.33 220.46 188.26 219.77 187.63 L 219.05 186.96 C 218.36 186.33 217.30 186.37 216.67 187.06 C 216.04 187.74 216.08 188.81 216.76 189.44 Z M 217.56 190.14 L 218.33 190.80 C 219.04 191.39 220.09 191.30 220.68 190.60 C 221.28 189.90 221.19 188.84 220.48 188.25 L 219.71 187.59 C 219.00 187.00 217.95 187.09 217.36 187.79 C 216.76 188.50 216.85 189.55 217.56 190.14 Z M 218.41 190.84 L 219.20 191.45 C 219.93 192.00 220.97 191.86 221.52 191.14 C 222.08 190.41 221.94 189.37 221.21 188.82 L 220.41 188.21 C 219.69 187.66 218.65 187.80 218.09 188.52 C 217.54 189.25 217.68 190.29 218.41 190.84 Z M 219.26 191.48 L 220.06 192.04 C 220.80 192.56 221.83 192.38 222.35 191.63 C 222.87 190.89 222.69 189.86 221.95 189.34 L 221.15 188.78 C 220.41 188.26 219.38 188.44 218.86 189.19 C 218.34 189.94 218.52 190.96 219.26 191.48 Z M 220.10 192.06 L 220.93 192.61 C 221.69 193.11 222.71 192.90 223.21 192.14 C 223.71 191.39 223.50 190.37 222.74 189.87 L 221.91 189.32 C 221.15 188.82 220.13 189.03 219.63 189.78 C 219.13 190.54 219.34 191.56 220.10 192.06 Z M 220.96 192.63 L 221.82 193.17 C 222.59 193.66 223.60 193.43 224.09 192.67 C 224.57 191.90 224.35 190.89 223.58 190.40 L 222.72 189.85 C 221.95 189.37 220.94 189.60 220.45 190.36 C 219.97 191.13 220.19 192.14 220.96 192.63 Z M 221.84 193.18 L 222.65 193.69 C 223.42 194.16 224.43 193.93 224.91 193.16 C 225.39 192.39 225.15 191.38 224.39 190.90 L 223.57 190.40 C 222.80 189.92 221.79 190.15 221.31 190.92 C 220.83 191.69 221.07 192.70 221.84 193.18 Z"
      fill="black"
      fill-rule="nonzero" /></svg>