<svg xmlns="http://www.w3.org/2000/svg" width="300" height="300" viewBox="0 0 300 300">
<path d="M 126.68 83.59 L 126.40 84.67 C 126.15 85.63 126.73 86.62 127.69 86.87 C 128.66 87.12 129.64 86.54 129.90 85.58 L 130.18 84.50 C 130.43 83.53 129.85 82.55 128.89 82.30 C 127.92 82.05 126.94 82.62 126.68 83.59 Z M 126.34 85.03 L 126.29 85.99 C 126.24 87.00 127.01 87.85 128.01 87.90 C 129.01 87.95 129.87 87.18 129.92 86.17 L 129.96 85.21 C 130.01 84.21 129.24 83.36 128.24 83.31 C 127.24 83.26 126.39 84.03 126.34 85.03 Z M 126.51 86.97 L 126.90 87.69 C 127.39 88.57 128.50 88.89 129.39 88.40 C 130.27 87.91 130.59 86.80 130.10 85.92 L 129.70 85.20 C 129.21 84.32 128.10 84.00 127.22 84.49 C 126.34 84.98 126.02 86.09 126.51 86.97 Z M 127.66 88.43 L 128.33 88.78 C 129.23 89.25 130.34 88.90 130.81 88.00 C 131.27 87.10 130.92 86.00 130.02 85.53 L 129.35 85.18 C 128.45 84.71 127.34 85.06 126.88 85.96 C 126.41 86.86 126.76 87.96 127.66 88.43 Z M 128.77 88.95 L 129.71 89.16 C 130.70 89.39 131.68 88.77 131.91 87.78 C 132.13 86.79 131.51 85.80 130.53 85.58 L 129.59 85.37 C 128.60 85.14 127.61 85.76 127.39 86.75 C 127.16 87.74 127.78 88.72 128.77 88.95 Z M 129.94 89.20 L 131.05 89.31 C 132.06 89.41 132.96 88.67 133.06 87.66 C 133.16 86.65 132.42 85.75 131.41 85.65 L 130.30 85.54 C 129.28 85.44 128.38 86.18 128.29 87.19 C 128.19 88.20 128.93 89.10 129.94 89.20 Z M 131.17 89.32 L 132.34 89.36 C 133.36 89.39 134.21 88.59 134.24 87.57 C 134.28 86.55 133.48 85.70 132.46 85.67 L 131.28 85.63 C 130.27 85.60 129.41 86.40 129.38 87.42 C 129.35 88.44 130.15 89.29 131.17 89.32 Z M 132.41 89.36 L 133.47 89.36 C 134.49 89.35 135.31 88.52 135.30 87.50 C 135.30 86.48 134.47 85.66 133.45 85.67 L 132.39 85.67 C 131.37 85.67 130.55 86.50 130.55 87.52 C 130.56 88.54 131.39 89.37 132.41 89.36 Z M 133.52 89.35 L 134.55 89.32 C 135.57 89.29 136.37 88.44 136.34 87.42 C 136.31 86.40 135.46 85.60 134.44 85.64 L 133.40 85.67 C 132.38 85.70 131.58 86.55 131.61 87.57 C 131.65 88.59 132.50 89.39 133.52 89.35 Z M 134.60 89.32 L 135.59 89.26 C 136.61 89.21 137.39 88.34 137.33 87.32 C 137.27 86.30 136.40 85.53 135.39 85.58 L 134.39 85.64 C 133.38 85.70 132.60 86.57 132.66 87.58 C 132.71 88.60 133.58 89.38 134.60 89.32 Z M 135.64 89.26 L 136.58 89.18 C 137.59 89.10 138.34 88.21 138.26 87.20 C 138.18 86.19 137.30 85.43 136.28 85.51 L 135.34 85.59 C 134.33 85.67 133.58 86.56 133.66 87.57 C 133.74 88.58 134.63 89.34 135.64 89.26 Z M 136.63 89.17 L 137.66 89.06 C 138.66 88.95 139.39 88.05 139.28 87.04 C 139.18 86.03 138.27 85.30 137.26 85.41 L 136.23 85.52 C 135.23 85.63 134.50 86.54 134.60 87.54 C 134.71 88.55 135.62 89.28 136.63 89.17 Z M 137.72 89.04 L 138.74 88.90 C 139.74 88.75 140.43 87.83 140.29 86.83 C 140.14 85.83 139.22 85.14 138.22 85.28 L 137.20 85.43 C 136.20 85.57 135.51 86.50 135.65 87.50 C 135.80 88.49 136.72 89.19 137.72 89.04 Z M 138.81 88.87 L 139.75 88.69 C 140.73 88.51 141.38 87.56 141.20 86.58 C 141.01 85.60 140.06 84.95 139.08 85.13 L 138.14 85.31 C 137.16 85.49 136.51 86.44 136.70 87.43 C 136.88 88.41 137.83 89.06 138.81 88.87 Z M 139.83 88.67 L 140.74 88.45 C 141.71 88.23 142.31 87.26 142.08 86.29 C 141.85 85.32 140.89 84.72 139.92 84.95 L 139.00 85.16 C 138.04 85.39 137.44 86.36 137.66 87.32 C 137.89 88.29 138.86 88.89 139.83 88.67 Z M 140.81 88.42 L 141.77 88.16 C 142.72 87.89 143.28 86.90 143.01 85.95 C 142.75 85.00 141.76 84.44 140.81 84.71 L 139.85 84.98 C 138.90 85.24 138.34 86.23 138.61 87.18 C 138.87 88.13 139.86 88.69 140.81 88.42 Z M 141.83 88.13 L 142.78 87.82 C 143.72 87.53 144.24 86.52 143.94 85.59 C 143.64 84.65 142.64 84.13 141.70 84.43 L 140.75 84.74 C 139.81 85.04 139.30 86.04 139.59 86.97 C 139.89 87.91 140.89 88.43 141.83 88.13 Z M 142.83 87.80 L 143.78 87.46 C 144.70 87.14 145.18 86.13 144.86 85.20 C 144.53 84.28 143.52 83.80 142.60 84.13 L 141.65 84.46 C 140.73 84.79 140.25 85.80 140.57 86.72 C 140.90 87.64 141.91 88.12 142.83 87.80 Z M 143.81 87.44 L 144.74 87.09 C 145.65 86.74 146.10 85.73 145.76 84.82 C 145.41 83.91 144.39 83.45 143.48 83.80 L 142.56 84.15 C 141.65 84.49 141.19 85.51 141.54 86.42 C 141.89 87.33 142.90 87.79 143.81 87.44 Z M 144.76 87.07 L 145.69 86.70 C 146.59 86.35 147.03 85.33 146.67 84.43 C 146.31 83.53 145.30 83.09 144.40 83.45 L 143.47 83.81 C 142.57 84.17 142.13 85.19 142.48 86.09 C 142.84 86.99 143.86 87.43 144.76 87.07 Z M 145.69 86.69 L 146.63 86.31 C 147.52 85.96 147.96 84.94 147.60 84.05 C 147.24 83.16 146.22 82.72 145.33 83.08 L 144.39 83.46 C 143.50 83.82 143.07 84.83 143.42 85.72 C 143.78 86.62 144.80 87.05 145.69 86.69 Z M 146.62 86.31 L 147.55 85.94 C 148.44 85.58 148.88 84.57 148.52 83.68 C 148.17 82.80 147.16 82.36 146.27 82.72 L 145.34 83.09 C 144.45 83.44 144.02 84.45 144.37 85.34 C 144.73 86.23 145.73 86.66 146.62 86.31 Z M 147.56 85.92 L 148.49 85.55 C 149.37 85.19 149.80 84.19 149.44 83.31 C 149.09 82.42 148.08 82.00 147.20 82.35 L 146.27 82.73 C 145.38 83.08 144.96 84.09 145.31 84.97 C 145.67 85.85 146.67 86.28 147.56 85.92 Z M 148.50 85.53 L 149.42 85.15 C 150.30 84.79 150.71 83.78 150.34 82.91 C 149.98 82.03 148.98 81.62 148.10 81.99 L 147.18 82.37 C 146.31 82.73 145.90 83.74 146.26 84.61 C 146.62 85.48 147.63 85.90 148.50 85.53 Z M 149.45 85.13 L 150.37 84.72 C 151.23 84.34 151.62 83.34 151.24 82.47 C 150.86 81.61 149.86 81.22 149.00 81.60 L 148.07 82.01 C 147.21 82.39 146.82 83.39 147.20 84.25 C 147.58 85.12 148.59 85.51 149.45 85.13 Z M 150.41 84.70 L 151.31 84.27 C 152.16 83.87 152.52 82.86 152.12 82.01 C 151.72 81.17 150.71 80.80 149.87 81.20 L 148.96 81.63 C 148.12 82.03 147.75 83.04 148.15 83.88 C 148.55 84.73 149.56 85.09 150.41 84.70 Z M 151.35 84.24 L 152.24 83.79 C 153.07 83.37 153.40 82.36 152.98 81.53 C 152.56 80.70 151.55 80.36 150.71 80.78 L 149.83 81.23 C 149.00 81.65 148.66 82.67 149.08 83.50 C 149.51 84.33 150.52 84.66 151.35 84.24 Z M 152.28 83.76 L 153.14 83.29 C 153.96 82.85 154.26 81.83 153.82 81.01 C 153.38 80.20 152.36 79.90 151.54 80.34 L 150.67 80.81 C 149.86 81.26 149.56 82.27 150.00 83.09 C 150.44 83.90 151.46 84.20 152.28 83.76 Z M 153.17 83.27 L 154.03 82.77 C 154.83 82.32 155.11 81.30 154.66 80.50 C 154.20 79.69 153.18 79.42 152.38 79.87 L 151.52 80.37 C 150.71 80.82 150.44 81.84 150.89 82.64 C 151.35 83.44 152.37 83.72 153.17 83.27 Z M 154.04 82.76 L 154.91 82.26 C 155.71 81.80 155.98 80.78 155.52 79.99 C 155.06 79.19 154.04 78.92 153.24 79.38 L 152.37 79.88 C 151.58 80.35 151.31 81.36 151.77 82.16 C 152.23 82.95 153.24 83.22 154.04 82.76 Z M 154.90 82.26 L 155.70 81.80 C 156.50 81.34 156.77 80.33 156.32 79.54 C 155.86 78.74 154.85 78.47 154.06 78.92 L 153.25 79.38 C 152.46 79.84 152.18 80.85 152.64 81.64 C 153.09 82.44 154.11 82.71 154.90 82.26 Z M 155.70 81.79 L 156.47 81.35 C 157.26 80.89 157.54 79.88 157.08 79.09 C 156.63 78.30 155.62 78.03 154.83 78.48 L 154.06 78.93 C 153.27 79.38 152.99 80.39 153.45 81.18 C 153.90 81.97 154.91 82.25 155.70 81.79 Z M 156.50 81.33 L 157.35 80.82 C 158.13 80.35 158.38 79.33 157.91 78.55 C 157.44 77.78 156.42 77.53 155.65 78.00 L 154.80 78.51 C 154.02 78.98 153.77 79.99 154.24 80.77 C 154.71 81.55 155.72 81.80 156.50 81.33 Z M 157.39 80.78 L 158.35 80.16 C 159.11 79.67 159.32 78.65 158.83 77.89 C 158.34 77.13 157.32 76.91 156.56 77.41 L 155.60 78.03 C 154.84 78.52 154.62 79.54 155.12 80.30 C 155.61 81.06 156.63 81.28 157.39 80.78 Z M 158.39 80.13 L 159.22 79.55 C 159.96 79.04 160.14 78.02 159.63 77.27 C 159.11 76.53 158.09 76.35 157.34 76.86 L 156.52 77.44 C 155.77 77.96 155.59 78.98 156.11 79.72 C 156.62 80.46 157.65 80.65 158.39 80.13 Z M 159.25 79.53 L 160.05 78.95 C 160.78 78.41 160.93 77.39 160.40 76.66 C 159.86 75.93 158.84 75.77 158.11 76.30 L 157.31 76.89 C 156.58 77.42 156.42 78.45 156.96 79.18 C 157.49 79.91 158.52 80.07 159.25 79.53 Z M 160.07 78.92 L 160.89 78.29 C 161.61 77.74 161.75 76.71 161.19 76.00 C 160.64 75.28 159.61 75.15 158.90 75.70 L 158.08 76.33 C 157.36 76.88 157.23 77.91 157.78 78.62 C 158.33 79.34 159.36 79.48 160.07 78.92 Z M 160.93 78.27 L 161.74 77.61 C 162.44 77.05 162.55 76.01 161.98 75.31 C 161.41 74.61 160.38 74.50 159.68 75.07 L 158.87 75.72 C 158.16 76.29 158.05 77.32 158.62 78.03 C 159.19 78.73 160.22 78.84 160.93 78.27 Z M 161.77 77.58 L 162.55 76.92 C 163.23 76.33 163.31 75.30 162.72 74.61 C 162.13 73.92 161.10 73.84 160.41 74.43 L 159.64 75.10 C 158.95 75.69 158.87 76.72 159.46 77.41 C 160.05 78.09 161.09 78.17 161.77 77.58 Z M 162.59 76.88 L 163.33 76.19 C 164.00 75.58 164.04 74.54 163.42 73.88 C 162.81 73.21 161.77 73.17 161.11 73.79 L 160.37 74.48 C 159.70 75.09 159.66 76.13 160.28 76.79 C 160.89 77.45 161.93 77.49 162.59 76.88 Z M 163.39 76.13 L 164.16 75.34 C 164.80 74.69 164.78 73.66 164.13 73.03 C 163.49 72.40 162.45 72.41 161.82 73.06 L 161.05 73.85 C 160.42 74.50 160.43 75.53 161.08 76.16 C 161.73 76.79 162.76 76.78 163.39 76.13 Z M 164.22 75.28 L 164.89 74.52 C 165.48 73.83 165.41 72.80 164.73 72.21 C 164.05 71.61 163.02 71.68 162.42 72.36 L 161.76 73.12 C 161.16 73.80 161.23 74.84 161.91 75.43 C 162.60 76.03 163.63 75.96 164.22 75.28 Z M 164.93 74.46 L 165.53 73.72 C 166.09 73.02 165.98 71.98 165.27 71.42 C 164.57 70.85 163.54 70.97 162.97 71.67 L 162.38 72.41 C 161.81 73.12 161.93 74.15 162.63 74.72 C 163.34 75.28 164.37 75.17 164.93 74.46 Z M 165.55 73.69 L 166.11 72.96 C 166.65 72.24 166.51 71.21 165.79 70.66 C 165.07 70.12 164.05 70.26 163.50 70.98 L 162.95 71.71 C 162.40 72.43 162.54 73.45 163.26 74.00 C 163.98 74.55 165.01 74.41 165.55 73.69 Z M 166.11 72.95 L 166.21 72.82 C 166.75 72.10 166.61 71.07 165.88 70.53 C 165.16 69.99 164.13 70.13 163.59 70.86 L 163.49 70.99 C 162.95 71.71 163.10 72.74 163.82 73.28 C 164.54 73.82 165.57 73.67 166.11 72.95 Z"
      fill="black"
      fill-rule="nonzero" /><path d="M 146.62 74.49 L 146.63 75.47 C 146.63 76.49 147.45 77.30 148.46 77.30 C 149.47 77.30 150.29 76.48 150.29 75.47 L 150.29 74.49 C 150.29 73.48 149.47 72.66 148.45 72.66 C 147.44 72.66 146.62 73.48 146.62 74.49 Z M 146.62 75.49 L 146.64 76.48 C 146.65 77.49 147.48 78.30 148.49 78.29 C 149.50 78.28 150.31 77.45 150.30 76.44 L 150.29 75.45 C 150.28 74.44 149.45 73.63 148.44 73.64 C 147.42 73.65 146.61 74.48 146.62 75.49 Z M 146.64 76.51 L 146.67 77.51 C 146.70 78.53 147.54 79.32 148.56 79.29 C 149.57 79.26 150.37 78.41 150.33 77.40 L 150.30 76.40 C 150.27 75.39 149.43 74.59 148.41 74.62 C 147.40 74.65 146.60 75.50 146.64 76.51 Z M 146.67 77.56 L 146.73 78.58 C 146.79 79.60 147.66 80.37 148.67 80.31 C 149.68 80.25 150.45 79.38 150.39 78.37 L 150.33 77.35 C 150.27 76.34 149.40 75.56 148.39 75.62 C 147.38 75.68 146.61 76.55 146.67 77.56 Z M 146.73 78.65 L 146.82 79.63 C 146.92 80.64 147.81 81.39 148.82 81.29 C 149.83 81.20 150.58 80.30 150.48 79.29 L 150.39 78.31 C 150.30 77.29 149.40 76.55 148.39 76.65 C 147.38 76.74 146.64 77.64 146.73 78.65 Z M 146.83 79.69 L 146.95 80.67 C 147.07 81.68 147.99 82.39 149.00 82.27 C 150.01 82.14 150.72 81.23 150.60 80.22 L 150.48 79.24 C 150.35 78.23 149.44 77.52 148.43 77.64 C 147.42 77.76 146.70 78.68 146.83 79.69 Z M 146.95 80.71 L 147.10 81.70 C 147.24 82.71 148.18 83.40 149.18 83.26 C 150.19 83.11 150.88 82.18 150.74 81.17 L 150.59 80.18 C 150.45 79.18 149.51 78.48 148.51 78.62 C 147.51 78.77 146.81 79.70 146.95 80.71 Z M 147.10 81.73 L 147.26 82.73 C 147.42 83.73 148.36 84.41 149.37 84.25 C 150.37 84.09 151.05 83.15 150.89 82.15 L 150.73 81.15 C 150.57 80.15 149.63 79.46 148.63 79.62 C 147.62 79.78 146.94 80.72 147.10 81.73 Z M 147.26 82.74 L 147.43 83.74 C 147.60 84.74 148.55 85.42 149.55 85.25 C 150.55 85.09 151.22 84.14 151.06 83.14 L 150.89 82.13 C 150.72 81.13 149.77 80.46 148.77 80.62 C 147.77 80.79 147.10 81.74 147.26 82.74 Z M 147.43 83.75 L 147.60 84.73 C 147.77 85.73 148.72 86.41 149.72 86.24 C 150.72 86.07 151.39 85.12 151.22 84.12 L 151.06 83.13 C 150.89 82.13 149.94 81.46 148.94 81.63 C 147.94 81.80 147.26 82.74 147.43 83.75 Z M 147.60 84.73 L 147.77 85.71 C 147.94 86.71 148.89 87.39 149.89 87.22 C 150.89 87.04 151.56 86.09 151.39 85.09 L 151.22 84.11 C 151.05 83.11 150.10 82.44 149.10 82.61 C 148.10 82.78 147.43 83.73 147.60 84.73 Z M 147.77 85.72 L 147.94 86.70 C 148.11 87.70 149.06 88.37 150.06 88.20 C 151.06 88.02 151.73 87.07 151.56 86.07 L 151.39 85.09 C 151.22 84.09 150.26 83.42 149.26 83.59 C 148.26 83.77 147.59 84.72 147.77 85.72 Z M 147.94 86.70 L 148.11 87.69 C 148.29 88.69 149.24 89.36 150.24 89.18 C 151.24 89.01 151.91 88.05 151.73 87.05 L 151.56 86.07 C 151.38 85.07 150.43 84.40 149.43 84.58 C 148.43 84.75 147.76 85.70 147.94 86.70 Z M 148.11 87.70 L 148.29 88.68 C 148.47 89.68 149.43 90.35 150.42 90.17 C 151.42 89.99 152.09 89.03 151.91 88.04 L 151.73 87.05 C 151.55 86.05 150.60 85.39 149.60 85.57 C 148.60 85.74 147.94 86.70 148.11 87.70 Z M 148.30 88.69 L 148.47 89.65 C 148.65 90.65 149.61 91.31 150.60 91.13 C 151.60 90.94 152.26 89.99 152.08 88.99 L 151.90 88.03 C 151.72 87.04 150.77 86.38 149.77 86.56 C 148.77 86.74 148.11 87.69 148.30 88.69 Z M 148.47 89.65 L 148.65 90.62 C 148.83 91.62 149.79 92.28 150.78 92.09 C 151.78 91.91 152.43 90.96 152.25 89.96 L 152.07 88.99 C 151.89 88.00 150.94 87.34 149.95 87.52 C 148.95 87.70 148.29 88.66 148.47 89.65 Z M 148.65 90.62 L 148.83 91.61 C 149.01 92.60 149.96 93.26 150.96 93.08 C 151.95 92.90 152.61 91.95 152.43 90.95 L 152.25 89.97 C 152.07 88.98 151.12 88.32 150.13 88.50 C 149.13 88.68 148.47 89.63 148.65 90.62 Z M 148.84 91.60 L 149.01 92.60 C 149.19 93.59 150.13 94.25 151.13 94.07 C 152.12 93.90 152.78 92.95 152.60 91.96 L 152.43 90.96 C 152.25 89.97 151.30 89.31 150.31 89.48 C 149.32 89.66 148.66 90.61 148.84 91.60 Z M 149.01 92.59 L 149.19 93.60 C 149.36 94.59 150.30 95.26 151.29 95.09 C 152.28 94.92 152.95 93.98 152.78 92.99 L 152.60 91.97 C 152.43 90.98 151.49 90.32 150.50 90.49 C 149.51 90.65 148.84 91.60 149.01 92.59 Z M 149.19 93.59 L 149.36 94.63 C 149.52 95.62 150.46 96.29 151.45 96.13 C 152.43 95.97 153.11 95.04 152.94 94.05 L 152.77 93.00 C 152.61 92.01 151.68 91.34 150.69 91.51 C 149.70 91.67 149.03 92.60 149.19 93.59 Z M 149.37 94.62 L 149.53 95.65 C 149.68 96.64 150.61 97.31 151.59 97.16 C 152.58 97.00 153.25 96.08 153.10 95.09 L 152.94 94.06 C 152.78 93.07 151.86 92.40 150.87 92.55 C 149.89 92.71 149.21 93.63 149.37 94.62 Z M 149.53 95.64 L 149.68 96.64 C 149.83 97.62 150.74 98.30 151.73 98.16 C 152.71 98.01 153.39 97.09 153.24 96.11 L 153.09 95.11 C 152.95 94.13 152.03 93.45 151.05 93.59 C 150.07 93.74 149.39 94.65 149.53 95.64 Z M 149.69 96.62 L 149.82 97.57 C 149.96 98.55 150.86 99.24 151.84 99.10 C 152.82 98.96 153.51 98.06 153.37 97.08 L 153.24 96.13 C 153.10 95.15 152.20 94.46 151.21 94.60 C 150.23 94.74 149.55 95.64 149.69 96.62 Z M 149.83 97.55 L 149.95 98.49 C 150.07 99.47 150.97 100.16 151.95 100.03 C 152.92 99.90 153.61 99.01 153.49 98.03 L 153.37 97.09 C 153.24 96.12 152.34 95.43 151.37 95.55 C 150.39 95.68 149.70 96.58 149.83 97.55 Z M 149.96 98.46 L 150.07 99.49 C 150.19 100.46 151.07 101.16 152.04 101.04 C 153.01 100.93 153.71 100.05 153.60 99.08 L 153.48 98.05 C 153.37 97.08 152.49 96.38 151.51 96.50 C 150.54 96.61 149.84 97.49 149.96 98.46 Z M 150.09 99.46 L 150.19 100.42 C 150.29 101.39 151.15 102.09 152.12 101.99 C 153.08 101.89 153.78 101.02 153.68 100.06 L 153.58 99.10 C 153.48 98.13 152.62 97.43 151.65 97.53 C 150.69 97.63 149.99 98.50 150.09 99.46 Z M 150.20 100.41 L 150.30 101.38 C 150.39 102.33 151.24 103.03 152.20 102.94 C 153.16 102.84 153.86 101.99 153.77 101.03 L 153.67 100.07 C 153.58 99.11 152.72 98.41 151.76 98.50 C 150.80 98.60 150.10 99.45 150.20 100.41 Z M 150.31 101.38 L 150.40 102.31 C 150.50 103.26 151.35 103.96 152.30 103.86 C 153.25 103.76 153.94 102.91 153.85 101.96 L 153.75 101.03 C 153.66 100.08 152.81 99.38 151.86 99.48 C 150.90 99.58 150.21 100.43 150.31 101.38 Z M 150.41 102.31 L 150.50 103.22 C 150.60 104.16 151.45 104.85 152.40 104.75 C 153.34 104.65 154.03 103.81 153.93 102.86 L 153.84 101.96 C 153.74 101.01 152.89 100.32 151.95 100.42 C 151.00 100.52 150.31 101.37 150.41 102.31 Z M 150.51 103.21 L 150.61 104.19 C 150.71 105.13 151.55 105.82 152.50 105.72 C 153.44 105.62 154.13 104.78 154.03 103.84 L 153.93 102.86 C 153.83 101.92 152.99 101.23 152.04 101.33 C 151.10 101.43 150.41 102.27 150.51 103.21 Z M 150.61 104.18 L 150.72 105.22 C 150.81 106.16 151.65 106.85 152.59 106.76 C 153.53 106.67 154.22 105.83 154.13 104.88 L 154.02 103.84 C 153.93 102.90 153.09 102.21 152.15 102.31 C 151.21 102.40 150.52 103.24 150.61 104.18 Z M 150.72 105.21 L 150.82 106.31 C 150.91 107.25 151.74 107.95 152.68 107.86 C 153.62 107.77 154.31 106.94 154.22 106.00 L 154.12 104.90 C 154.04 103.96 153.21 103.27 152.27 103.35 C 151.33 103.44 150.63 104.27 150.72 105.21 Z M 150.83 106.30 L 150.91 107.30 C 150.99 108.24 151.81 108.93 152.75 108.85 C 153.68 108.78 154.38 107.95 154.30 107.02 L 154.22 106.02 C 154.14 105.08 153.32 104.38 152.38 104.46 C 151.44 104.54 150.75 105.36 150.83 106.30 Z M 150.92 107.29 L 150.99 108.27 C 151.06 109.21 151.87 109.90 152.81 109.83 C 153.74 109.76 154.44 108.95 154.37 108.02 L 154.30 107.03 C 154.23 106.10 153.41 105.40 152.48 105.47 C 151.55 105.54 150.85 106.35 150.92 107.29 Z M 151.00 108.26 L 151.07 109.26 C 151.13 110.19 151.93 110.90 152.86 110.83 C 153.79 110.77 154.50 109.97 154.43 109.04 L 154.36 108.03 C 154.30 107.10 153.50 106.40 152.57 106.46 C 151.64 106.52 150.93 107.33 151.00 108.26 Z M 151.07 109.25 L 151.13 110.26 C 151.19 111.19 151.98 111.90 152.91 111.84 C 153.83 111.79 154.54 110.99 154.49 110.07 L 154.43 109.05 C 154.37 108.12 153.58 107.42 152.65 107.47 C 151.72 107.53 151.02 108.32 151.07 109.25 Z M 151.14 110.25 L 151.19 111.26 C 151.24 112.18 152.02 112.90 152.94 112.85 C 153.87 112.80 154.58 112.02 154.53 111.09 L 154.48 110.08 C 154.43 109.16 153.65 108.45 152.73 108.49 C 151.80 108.54 151.09 109.33 151.14 110.25 Z M 151.20 111.25 L 151.24 112.25 C 151.27 113.17 152.05 113.88 152.97 113.84 C 153.89 113.81 154.60 113.03 154.56 112.11 L 154.52 111.11 C 154.49 110.19 153.71 109.48 152.79 109.51 C 151.87 109.55 151.16 110.33 151.20 111.25 Z M 151.24 112.23 L 151.27 113.26 C 151.30 114.18 152.06 114.90 152.98 114.87 C 153.89 114.85 154.62 114.08 154.59 113.17 L 154.56 112.13 C 154.53 111.22 153.77 110.49 152.85 110.52 C 151.94 110.55 151.21 111.31 151.24 112.23 Z M 151.28 113.25 L 151.29 114.26 C 151.31 115.17 152.07 115.90 152.98 115.88 C 153.89 115.87 154.62 115.11 154.60 114.20 L 154.58 113.18 C 154.57 112.27 153.81 111.54 152.90 111.56 C 151.98 111.58 151.26 112.33 151.28 113.25 Z M 151.30 114.25 L 151.31 115.24 C 151.32 116.16 152.07 116.89 152.98 116.88 C 153.89 116.87 154.62 116.12 154.61 115.21 L 154.60 114.21 C 154.59 113.30 153.84 112.57 152.93 112.58 C 152.02 112.59 151.29 113.34 151.30 114.25 Z M 151.31 115.23 L 151.32 116.22 C 151.32 117.13 152.06 117.86 152.97 117.86 C 153.88 117.85 154.61 117.11 154.61 116.20 L 154.61 115.22 C 154.60 114.31 153.86 113.58 152.95 113.58 C 152.04 113.58 151.31 114.32 151.31 115.23 Z M 151.32 116.21 L 151.32 117.19 C 151.33 118.10 152.06 118.83 152.97 118.83 C 153.87 118.83 154.61 118.09 154.61 117.19 L 154.61 116.21 C 154.60 115.30 153.87 114.57 152.96 114.57 C 152.06 114.57 151.32 115.31 151.32 116.21 Z M 151.33 117.19 L 151.33 117.61 C 151.33 118.51 152.06 119.24 152.97 119.24 C 153.87 119.24 154.60 118.51 154.60 117.61 L 154.60 117.19 C 154.60 116.28 153.87 115.55 152.97 115.55 C 152.06 115.55 151.33 116.28 151.33 117.19 Z"
      fill="black"
      fill-rule="nonzero" /><path d="M 151.90 83.57 L 151.24 84.34 C 150.61 85.07 150.69 86.18 151.42 86.81 C 152.16 87.44 153.26 87.35 153.89 86.62 L 154.56 85.85 C 155.19 85.11 155.10 84.01 154.37 83.38 C 153.64 82.75 152.53 82.83 151.90 83.57 Z M 151.21 84.34 L 150.56 85.11 C 149.93 85.86 150.02 86.98 150.77 87.61 C 151.52 88.24 152.64 88.14 153.27 87.39 L 153.92 86.62 C 154.55 85.87 154.46 84.75 153.71 84.12 C 152.96 83.49 151.84 83.59 151.21 84.34 Z M 150.51 85.13 L 149.89 85.90 C 149.27 86.68 149.40 87.81 150.17 88.43 C 150.94 89.05 152.07 88.92 152.69 88.15 L 153.31 87.38 C 153.94 86.60 153.81 85.47 153.04 84.85 C 152.27 84.23 151.14 84.36 150.51 85.13 Z M 149.84 85.94 L 149.28 86.70 C 148.68 87.50 148.84 88.64 149.64 89.24 C 150.45 89.84 151.59 89.67 152.19 88.87 L 152.75 88.11 C 153.35 87.31 153.18 86.17 152.38 85.57 C 151.58 84.97 150.44 85.14 149.84 85.94 Z M 149.22 86.75 L 148.74 87.46 C 148.17 88.29 148.39 89.43 149.22 90.00 C 150.06 90.57 151.19 90.35 151.76 89.52 L 152.24 88.81 C 152.81 87.98 152.59 86.84 151.76 86.27 C 150.92 85.70 149.79 85.92 149.22 86.75 Z M 148.70 87.52 L 148.21 88.29 C 147.67 89.15 147.94 90.28 148.79 90.82 C 149.65 91.35 150.78 91.09 151.32 90.23 L 151.80 89.46 C 152.34 88.60 152.08 87.47 151.22 86.93 C 150.36 86.40 149.23 86.66 148.70 87.52 Z M 148.18 88.33 L 147.66 89.23 C 147.14 90.10 147.43 91.23 148.31 91.74 C 149.18 92.26 150.31 91.96 150.83 91.09 L 151.35 90.19 C 151.86 89.32 151.57 88.19 150.70 87.68 C 149.82 87.16 148.69 87.46 148.18 88.33 Z M 147.64 89.25 L 147.03 90.32 C 146.53 91.20 146.84 92.33 147.73 92.83 C 148.61 93.33 149.74 93.02 150.24 92.13 L 150.84 91.06 C 151.35 90.18 151.03 89.05 150.15 88.55 C 149.26 88.05 148.14 88.36 147.64 89.25 Z M 147.02 90.33 L 146.61 91.07 C 146.11 91.97 146.43 93.09 147.32 93.59 C 148.21 94.08 149.33 93.76 149.83 92.87 L 150.25 92.12 C 150.74 91.23 150.42 90.11 149.53 89.61 C 148.64 89.12 147.52 89.44 147.02 90.33 Z M 146.60 91.08 L 146.15 91.89 C 145.66 92.79 145.98 93.91 146.87 94.40 C 147.76 94.90 148.89 94.58 149.38 93.68 L 149.83 92.87 C 150.33 91.98 150.01 90.85 149.11 90.36 C 148.22 89.86 147.10 90.19 146.60 91.08 Z M 146.15 91.90 L 145.67 92.76 C 145.18 93.66 145.50 94.78 146.39 95.27 C 147.29 95.77 148.41 95.44 148.90 94.55 L 149.38 93.68 C 149.88 92.79 149.55 91.67 148.66 91.17 C 147.77 90.68 146.64 91.00 146.15 91.90 Z M 145.67 92.76 L 145.17 93.67 C 144.68 94.56 145.00 95.69 145.89 96.18 C 146.79 96.67 147.91 96.35 148.40 95.45 L 148.90 94.55 C 149.40 93.66 149.07 92.53 148.18 92.04 C 147.29 91.55 146.16 91.87 145.67 92.76 Z M 145.17 93.67 L 144.66 94.60 C 144.16 95.49 144.49 96.61 145.38 97.11 C 146.28 97.60 147.40 97.28 147.89 96.38 L 148.41 95.46 C 148.90 94.56 148.57 93.44 147.68 92.94 C 146.79 92.45 145.66 92.77 145.17 93.67 Z M 144.66 94.59 L 144.14 95.53 C 143.65 96.42 143.97 97.55 144.86 98.04 C 145.76 98.54 146.88 98.21 147.38 97.32 L 147.89 96.38 C 148.39 95.49 148.06 94.37 147.17 93.87 C 146.28 93.38 145.15 93.70 144.66 94.59 Z M 144.14 95.53 L 143.63 96.45 C 143.13 97.34 143.45 98.47 144.35 98.97 C 145.24 99.46 146.37 99.14 146.86 98.25 L 147.38 97.32 C 147.87 96.43 147.55 95.30 146.66 94.81 C 145.76 94.31 144.64 94.63 144.14 95.53 Z M 143.63 96.45 L 143.11 97.38 C 142.61 98.27 142.93 99.40 143.82 99.90 C 144.71 100.40 145.84 100.08 146.34 99.18 L 146.86 98.25 C 147.36 97.36 147.04 96.23 146.15 95.73 C 145.25 95.24 144.13 95.56 143.63 96.45 Z M 143.11 97.38 L 142.60 98.29 C 142.10 99.18 142.42 100.31 143.31 100.81 C 144.20 101.31 145.33 100.99 145.82 100.10 L 146.33 99.19 C 146.83 98.30 146.52 97.17 145.63 96.67 C 144.74 96.17 143.61 96.49 143.11 97.38 Z M 142.60 98.29 L 142.10 99.18 C 141.61 100.07 141.92 101.19 142.81 101.69 C 143.70 102.19 144.82 101.88 145.32 100.99 L 145.82 100.10 C 146.32 99.21 146.00 98.09 145.12 97.59 C 144.23 97.09 143.10 97.40 142.60 98.29 Z M 142.11 99.18 L 141.62 100.05 C 141.12 100.94 141.44 102.06 142.32 102.56 C 143.21 103.06 144.33 102.74 144.83 101.85 L 145.32 100.99 C 145.82 100.10 145.50 98.98 144.62 98.48 C 143.73 97.98 142.60 98.29 142.11 99.18 Z M 141.62 100.05 L 141.14 100.90 C 140.65 101.79 140.96 102.91 141.85 103.41 C 142.74 103.90 143.86 103.59 144.36 102.70 L 144.83 101.85 C 145.33 100.97 145.01 99.84 144.13 99.35 C 143.24 98.85 142.12 99.16 141.62 100.05 Z M 141.14 100.90 L 140.68 101.74 C 140.19 102.62 140.50 103.74 141.39 104.24 C 142.28 104.73 143.40 104.42 143.89 103.53 L 144.36 102.70 C 144.85 101.81 144.53 100.69 143.65 100.20 C 142.76 99.70 141.64 100.02 141.14 100.90 Z M 140.68 101.74 L 140.21 102.59 C 139.72 103.47 140.04 104.59 140.92 105.08 C 141.81 105.58 142.93 105.26 143.42 104.37 L 143.89 103.52 C 144.38 102.64 144.06 101.52 143.18 101.03 C 142.29 100.54 141.17 100.85 140.68 101.74 Z M 140.22 102.60 L 139.68 103.57 C 139.20 104.45 139.52 105.56 140.40 106.05 C 141.29 106.53 142.40 106.21 142.88 105.33 L 143.42 104.36 C 143.90 103.48 143.58 102.37 142.70 101.88 C 141.81 101.39 140.70 101.71 140.22 102.60 Z M 139.69 103.58 L 139.18 104.52 C 138.70 105.40 139.03 106.50 139.91 106.98 C 140.79 107.46 141.89 107.13 142.37 106.25 L 142.88 105.31 C 143.35 104.43 143.03 103.33 142.15 102.85 C 141.27 102.38 140.17 102.70 139.69 103.58 Z M 139.19 104.54 L 138.71 105.43 C 138.24 106.31 138.57 107.40 139.44 107.87 C 140.32 108.34 141.41 108.01 141.88 107.13 L 142.36 106.23 C 142.83 105.36 142.50 104.27 141.62 103.80 C 140.75 103.33 139.66 103.66 139.19 104.54 Z M 138.71 105.45 L 138.27 106.30 C 137.81 107.17 138.14 108.25 139.01 108.71 C 139.89 109.17 140.97 108.84 141.43 107.96 L 141.87 107.11 C 142.33 106.24 142.00 105.16 141.12 104.70 C 140.25 104.24 139.17 104.58 138.71 105.45 Z M 138.27 106.32 L 137.86 107.12 C 137.42 107.99 137.76 109.05 138.63 109.50 C 139.50 109.95 140.57 109.61 141.01 108.74 L 141.42 107.94 C 141.87 107.07 141.52 106.00 140.65 105.56 C 139.78 105.11 138.72 105.45 138.27 106.32 Z M 137.87 107.15 L 137.42 108.04 C 136.99 108.91 137.35 109.96 138.21 110.39 C 139.08 110.82 140.13 110.47 140.56 109.60 L 141.01 108.71 C 141.44 107.84 141.08 106.79 140.22 106.36 C 139.35 105.93 138.30 106.28 137.87 107.15 Z M 137.43 108.09 L 136.99 109.01 C 136.59 109.88 136.96 110.91 137.82 111.31 C 138.69 111.72 139.72 111.35 140.12 110.48 L 140.56 109.56 C 140.96 108.69 140.59 107.67 139.73 107.26 C 138.86 106.85 137.83 107.22 137.43 108.09 Z M 137.00 109.06 L 136.61 109.94 C 136.24 110.80 136.63 111.80 137.49 112.18 C 138.35 112.56 139.35 112.17 139.73 111.31 L 140.12 110.43 C 140.49 109.57 140.10 108.57 139.24 108.19 C 138.38 107.81 137.38 108.20 137.00 109.06 Z M 136.62 109.99 L 136.26 110.87 C 135.91 111.73 136.32 112.71 137.17 113.06 C 138.03 113.41 139.00 113.00 139.36 112.15 L 139.72 111.26 C 140.07 110.41 139.66 109.43 138.81 109.08 C 137.95 108.72 136.98 109.13 136.62 109.99 Z M 136.27 110.91 L 135.92 111.79 C 135.59 112.64 136.01 113.60 136.86 113.93 C 137.71 114.26 138.67 113.85 139.00 112.99 L 139.35 112.11 C 139.68 111.26 139.26 110.30 138.41 109.97 C 137.56 109.64 136.60 110.06 136.27 110.91 Z M 135.92 111.81 L 135.58 112.71 C 135.26 113.56 135.69 114.51 136.54 114.83 C 137.39 115.16 138.34 114.73 138.66 113.88 L 139.00 112.97 C 139.33 112.12 138.90 111.17 138.05 110.85 C 137.20 110.53 136.25 110.96 135.92 111.81 Z M 135.58 112.72 L 135.23 113.67 C 134.91 114.52 135.35 115.47 136.20 115.78 C 137.05 116.10 138.00 115.66 138.31 114.81 L 138.66 113.87 C 138.98 113.01 138.54 112.07 137.69 111.75 C 136.84 111.44 135.90 111.87 135.58 112.72 Z M 135.23 113.68 L 134.87 114.65 C 134.56 115.50 135.00 116.44 135.85 116.75 C 136.70 117.07 137.64 116.63 137.96 115.78 L 138.31 114.80 C 138.62 113.95 138.19 113.01 137.33 112.70 C 136.48 112.39 135.54 112.82 135.23 113.68 Z M 134.88 114.65 L 134.58 115.45 C 134.27 116.30 134.71 117.24 135.56 117.55 C 136.41 117.86 137.35 117.42 137.66 116.57 L 137.95 115.77 C 138.26 114.92 137.82 113.98 136.97 113.67 C 136.12 113.36 135.18 113.80 134.88 114.65 Z"
      fill="black"
      fill-rule="nonzero" /><path d="M 148.18 96.80 L 149.08 97.25 C 149.97 97.69 151.05 97.33 151.49 96.44 C 151.94 95.55 151.58 94.47 150.69 94.03 L 149.79 93.58 C 148.90 93.13 147.82 93.49 147.38 94.38 C 146.93 95.27 147.29 96.35 148.18 96.80 Z M 149.06 97.25 L 149.96 97.70 C 150.85 98.16 151.94 97.80 152.39 96.91 C 152.84 96.02 152.49 94.93 151.60 94.47 L 150.70 94.02 C 149.81 93.57 148.72 93.92 148.27 94.82 C 147.82 95.71 148.17 96.80 149.06 97.25 Z M 149.94 97.70 L 150.82 98.16 C 151.71 98.63 152.81 98.28 153.27 97.39 C 153.74 96.50 153.39 95.40 152.50 94.94 L 151.62 94.48 C 150.73 94.01 149.63 94.36 149.16 95.25 C 148.70 96.14 149.04 97.24 149.94 97.70 Z M 150.79 98.16 L 151.68 98.63 C 152.57 99.11 153.68 98.78 154.15 97.89 C 154.63 97.01 154.30 95.90 153.41 95.42 L 152.53 94.94 C 151.64 94.47 150.53 94.80 150.05 95.68 C 149.58 96.57 149.91 97.68 150.79 98.16 Z M 151.67 98.63 L 152.56 99.11 C 153.44 99.60 154.55 99.27 155.03 98.39 C 155.52 97.50 155.19 96.39 154.31 95.91 L 153.42 95.43 C 152.54 94.94 151.43 95.27 150.95 96.15 C 150.46 97.04 150.79 98.15 151.67 98.63 Z M 152.57 99.12 L 153.45 99.59 C 154.34 100.06 155.44 99.72 155.92 98.83 C 156.39 97.94 156.05 96.84 155.16 96.37 L 154.29 95.90 C 153.40 95.43 152.29 95.76 151.82 96.65 C 151.35 97.54 151.68 98.65 152.57 99.12 Z M 153.50 99.61 L 154.38 100.04 C 155.28 100.49 156.37 100.12 156.82 99.22 C 157.27 98.33 156.90 97.23 156.00 96.79 L 155.12 96.35 C 154.22 95.90 153.12 96.27 152.68 97.17 C 152.23 98.07 152.60 99.16 153.50 99.61 Z M 154.44 100.06 L 155.34 100.47 C 156.25 100.88 157.32 100.48 157.73 99.57 C 158.14 98.66 157.74 97.59 156.84 97.18 L 155.94 96.77 C 155.03 96.36 153.96 96.76 153.55 97.67 C 153.13 98.57 153.53 99.65 154.44 100.06 Z M 155.39 100.47 L 156.32 100.86 C 157.23 101.24 158.28 100.82 158.66 99.90 C 159.04 98.99 158.62 97.95 157.70 97.56 L 156.78 97.17 C 155.87 96.79 154.82 97.22 154.44 98.13 C 154.06 99.04 154.48 100.09 155.39 100.47 Z M 156.36 100.86 L 157.26 101.21 C 158.17 101.57 159.20 101.12 159.55 100.21 C 159.91 99.30 159.47 98.28 158.56 97.92 L 157.66 97.56 C 156.75 97.21 155.72 97.65 155.36 98.56 C 155.01 99.47 155.45 100.50 156.36 100.86 Z M 157.29 101.21 L 158.14 101.52 C 159.05 101.86 160.06 101.40 160.40 100.50 C 160.74 99.59 160.28 98.58 159.37 98.24 L 158.52 97.92 C 157.62 97.58 156.61 98.04 156.27 98.95 C 155.93 99.86 156.39 100.87 157.29 101.21 Z M 158.17 101.51 L 159.10 101.85 C 160.00 102.17 160.99 101.70 161.31 100.80 C 161.64 99.90 161.17 98.91 160.27 98.58 L 159.34 98.25 C 158.44 97.93 157.45 98.40 157.12 99.30 C 156.80 100.20 157.27 101.19 158.17 101.51 Z M 159.13 101.84 L 160.16 102.19 C 161.05 102.50 162.03 102.02 162.34 101.13 C 162.64 100.23 162.17 99.26 161.27 98.95 L 160.24 98.60 C 159.35 98.29 158.37 98.76 158.06 99.66 C 157.76 100.55 158.23 101.53 159.13 101.84 Z M 160.18 102.18 L 161.16 102.51 C 162.05 102.80 163.01 102.32 163.31 101.43 C 163.60 100.55 163.12 99.58 162.23 99.29 L 161.25 98.96 C 160.36 98.66 159.40 99.15 159.11 100.03 C 158.81 100.92 159.29 101.88 160.18 102.18 Z M 161.17 102.50 L 162.11 102.81 C 163.00 103.10 163.95 102.62 164.24 101.74 C 164.53 100.85 164.05 99.90 163.17 99.61 L 162.23 99.30 C 161.34 99.01 160.39 99.49 160.10 100.37 C 159.81 101.25 160.29 102.21 161.17 102.50 Z M 162.11 102.80 L 163.09 103.12 C 163.96 103.41 164.91 102.94 165.20 102.06 C 165.50 101.19 165.02 100.24 164.15 99.95 L 163.17 99.62 C 162.29 99.33 161.35 99.80 161.05 100.68 C 160.76 101.56 161.23 102.50 162.11 102.80 Z M 163.07 103.11 L 164.05 103.44 C 164.92 103.74 165.86 103.28 166.16 102.41 C 166.46 101.54 166.00 100.60 165.13 100.30 L 164.16 99.96 C 163.29 99.66 162.34 100.12 162.04 100.99 C 161.74 101.86 162.21 102.81 163.07 103.11 Z M 164.03 103.42 L 164.97 103.76 C 165.82 104.08 166.77 103.63 167.08 102.77 C 167.40 101.92 166.95 100.97 166.09 100.66 L 165.15 100.32 C 164.30 100.00 163.35 100.45 163.04 101.31 C 162.72 102.16 163.17 103.11 164.03 103.42 Z M 164.93 103.74 L 165.91 104.13 C 166.75 104.46 167.71 104.04 168.04 103.20 C 168.37 102.35 167.96 101.40 167.11 101.07 L 166.13 100.68 C 165.29 100.35 164.33 100.76 164.00 101.61 C 163.67 102.45 164.08 103.41 164.93 103.74 Z M 165.86 104.10 L 166.82 104.52 C 167.65 104.88 168.62 104.49 168.98 103.66 C 169.34 102.83 168.95 101.86 168.12 101.50 L 167.16 101.09 C 166.33 100.73 165.36 101.11 165.00 101.95 C 164.64 102.78 165.03 103.74 165.86 104.10 Z M 166.78 104.50 L 167.67 104.91 C 168.49 105.30 169.46 104.94 169.85 104.12 C 170.23 103.30 169.88 102.32 169.05 101.94 L 168.16 101.52 C 167.34 101.14 166.37 101.50 165.98 102.32 C 165.60 103.14 165.96 104.11 166.78 104.50 Z M 167.64 104.90 L 168.49 105.31 C 169.30 105.71 170.28 105.37 170.68 104.56 C 171.08 103.75 170.74 102.77 169.93 102.37 L 169.08 101.95 C 168.27 101.56 167.29 101.89 166.89 102.70 C 166.49 103.52 166.83 104.50 167.64 104.90 Z M 168.48 105.31 L 168.94 105.54 C 169.75 105.94 170.74 105.62 171.14 104.81 C 171.54 104.00 171.22 103.01 170.41 102.61 L 169.94 102.38 C 169.13 101.97 168.15 102.30 167.74 103.11 C 167.34 103.92 167.67 104.90 168.48 105.31 Z"
      fill="black"
      fill-rule="nonzero" /><path d="M 148.22 118.13 L 149.11 118.56 C 149.99 118.98 151.04 118.62 151.46 117.74 C 151.89 116.87 151.52 115.81 150.65 115.39 L 149.75 114.96 C 148.88 114.54 147.82 114.90 147.40 115.78 C 146.98 116.65 147.35 117.71 148.22 118.13 Z M 149.08 118.54 L 149.96 118.99 C 150.83 119.44 151.88 119.09 152.33 118.23 C 152.77 117.37 152.43 116.31 151.57 115.87 L 150.68 115.41 C 149.82 114.97 148.76 115.31 148.32 116.17 C 147.87 117.04 148.21 118.10 149.08 118.54 Z M 149.89 118.95 L 150.76 119.45 C 151.60 119.93 152.67 119.64 153.15 118.80 C 153.63 117.97 153.35 116.90 152.51 116.41 L 151.64 115.91 C 150.80 115.43 149.73 115.72 149.25 116.56 C 148.77 117.40 149.05 118.47 149.89 118.95 Z M 150.66 119.39 L 151.49 119.94 C 152.30 120.48 153.38 120.26 153.92 119.46 C 154.46 118.66 154.24 117.57 153.44 117.03 L 152.61 116.48 C 151.81 115.94 150.72 116.16 150.18 116.96 C 149.65 117.76 149.86 118.85 150.66 119.39 Z M 151.37 119.86 L 152.15 120.48 C 152.91 121.08 154.01 120.96 154.62 120.20 C 155.22 119.45 155.10 118.34 154.34 117.74 L 153.56 117.11 C 152.80 116.51 151.70 116.63 151.09 117.39 C 150.49 118.15 150.61 119.25 151.37 119.86 Z M 152.01 120.37 L 152.72 121.07 C 153.42 121.75 154.53 121.74 155.22 121.05 C 155.90 120.35 155.89 119.23 155.20 118.55 L 154.48 117.85 C 153.79 117.17 152.67 117.17 151.98 117.87 C 151.30 118.57 151.31 119.68 152.01 120.37 Z M 152.57 120.91 L 153.19 121.70 C 153.80 122.47 154.92 122.60 155.69 121.99 C 156.46 121.38 156.59 120.27 155.98 119.50 L 155.35 118.71 C 154.74 117.94 153.62 117.81 152.86 118.42 C 152.09 119.03 151.96 120.15 152.57 120.91 Z M 153.05 121.52 L 153.53 122.32 C 154.04 123.16 155.13 123.44 155.98 122.93 C 156.83 122.43 157.10 121.33 156.60 120.48 L 156.12 119.68 C 155.61 118.84 154.52 118.56 153.67 119.07 C 152.82 119.57 152.55 120.67 153.05 121.52 Z M 153.43 122.15 L 153.83 123.03 C 154.24 123.93 155.31 124.33 156.21 123.92 C 157.11 123.50 157.51 122.44 157.10 121.53 L 156.70 120.65 C 156.29 119.75 155.22 119.35 154.32 119.76 C 153.41 120.18 153.02 121.24 153.43 122.15 Z M 153.76 122.89 L 154.10 123.85 C 154.44 124.79 155.47 125.28 156.41 124.95 C 157.36 124.61 157.85 123.58 157.51 122.64 L 157.17 121.67 C 156.84 120.73 155.80 120.24 154.86 120.58 C 153.92 120.91 153.42 121.95 153.76 122.89 Z M 154.06 123.75 L 154.35 124.78 C 154.63 125.75 155.64 126.31 156.61 126.03 C 157.57 125.75 158.13 124.74 157.85 123.77 L 157.56 122.74 C 157.28 121.77 156.27 121.21 155.30 121.49 C 154.34 121.77 153.78 122.78 154.06 123.75 Z M 154.33 124.72 L 154.57 125.68 C 154.81 126.66 155.80 127.26 156.78 127.02 C 157.76 126.78 158.36 125.79 158.12 124.81 L 157.88 123.84 C 157.64 122.86 156.65 122.26 155.67 122.50 C 154.69 122.74 154.09 123.74 154.33 124.72 Z M 154.56 125.65 L 154.79 126.65 C 155.02 127.64 156.00 128.25 156.98 128.03 C 157.97 127.80 158.58 126.82 158.35 125.83 L 158.13 124.84 C 157.90 123.85 156.92 123.24 155.93 123.46 C 154.95 123.69 154.33 124.67 154.56 125.65 Z M 154.79 126.65 L 155.02 127.65 C 155.24 128.63 156.22 129.25 157.21 129.02 C 158.19 128.79 158.81 127.81 158.58 126.83 L 158.36 125.83 C 158.13 124.85 157.15 124.23 156.16 124.46 C 155.18 124.68 154.56 125.67 154.79 126.65 Z M 155.02 127.67 L 155.26 128.63 C 155.50 129.61 156.49 130.21 157.47 129.97 C 158.45 129.73 159.06 128.74 158.81 127.76 L 158.58 126.80 C 158.34 125.82 157.35 125.22 156.36 125.46 C 155.38 125.70 154.78 126.69 155.02 127.67 Z M 155.27 128.70 L 155.56 129.69 C 155.83 130.66 156.85 131.23 157.82 130.95 C 158.79 130.67 159.36 129.66 159.08 128.69 L 158.80 127.69 C 158.52 126.72 157.51 126.15 156.53 126.43 C 155.56 126.71 155.00 127.72 155.27 128.70 Z M 155.59 129.81 L 155.94 130.78 C 156.29 131.73 157.34 132.23 158.29 131.89 C 159.24 131.54 159.74 130.49 159.39 129.54 L 159.04 128.57 C 158.70 127.61 157.65 127.12 156.70 127.46 C 155.75 127.81 155.25 128.86 155.59 129.81 Z M 156.01 130.95 L 156.43 131.82 C 156.87 132.74 157.96 133.13 158.87 132.69 C 159.79 132.26 160.18 131.16 159.74 130.25 L 159.32 129.37 C 158.89 128.46 157.80 128.07 156.88 128.51 C 155.97 128.94 155.58 130.03 156.01 130.95 Z M 156.54 132.02 L 157.05 132.82 C 157.59 133.67 158.72 133.92 159.58 133.38 C 160.43 132.83 160.68 131.70 160.14 130.85 L 159.63 130.05 C 159.09 129.20 157.96 128.95 157.10 129.49 C 156.25 130.03 156.00 131.17 156.54 132.02 Z M 157.19 133.01 L 157.81 133.75 C 158.46 134.52 159.61 134.62 160.39 133.97 C 161.16 133.32 161.26 132.17 160.61 131.39 L 160.00 130.65 C 159.34 129.88 158.19 129.78 157.41 130.43 C 156.64 131.08 156.54 132.23 157.19 133.01 Z M 157.95 133.90 L 158.67 134.58 C 159.40 135.28 160.56 135.24 161.26 134.51 C 161.95 133.78 161.92 132.62 161.19 131.92 L 160.47 131.24 C 159.74 130.54 158.58 130.57 157.88 131.31 C 157.19 132.04 157.22 133.20 157.95 133.90 Z M 158.80 134.69 L 159.59 135.32 C 160.39 135.94 161.54 135.80 162.17 135.01 C 162.79 134.21 162.65 133.06 161.86 132.44 L 161.06 131.81 C 160.27 131.19 159.12 131.32 158.49 132.12 C 157.86 132.91 158.00 134.06 158.80 134.69 Z M 159.70 135.40 L 160.55 135.97 C 161.39 136.53 162.53 136.31 163.09 135.48 C 163.66 134.64 163.44 133.50 162.60 132.93 L 161.75 132.36 C 160.91 131.79 159.77 132.02 159.21 132.85 C 158.64 133.69 158.86 134.83 159.70 135.40 Z M 160.64 136.02 L 161.51 136.54 C 162.38 137.06 163.50 136.78 164.02 135.91 C 164.54 135.04 164.26 133.92 163.39 133.40 L 162.52 132.88 C 161.65 132.36 160.52 132.64 160.01 133.51 C 159.49 134.38 159.77 135.50 160.64 136.02 Z M 161.56 136.57 L 162.45 137.06 C 163.33 137.55 164.44 137.23 164.93 136.35 C 165.42 135.46 165.10 134.35 164.22 133.86 L 163.34 133.37 C 162.45 132.88 161.34 133.20 160.85 134.09 C 160.36 134.97 160.68 136.08 161.56 136.57 Z M 162.46 137.07 L 163.34 137.54 C 164.23 138.02 165.34 137.69 165.81 136.80 C 166.29 135.91 165.96 134.80 165.07 134.32 L 164.20 133.85 C 163.31 133.37 162.20 133.70 161.72 134.59 C 161.24 135.48 161.57 136.59 162.46 137.07 Z M 163.32 137.53 L 164.19 138.02 C 165.08 138.51 166.19 138.19 166.68 137.30 C 167.17 136.42 166.85 135.30 165.97 134.81 L 165.09 134.33 C 164.21 133.84 163.09 134.16 162.60 135.04 C 162.11 135.93 162.43 137.04 163.32 137.53 Z M 164.15 137.99 L 165.03 138.51 C 165.90 139.02 167.02 138.73 167.53 137.86 C 168.04 136.99 167.75 135.87 166.88 135.35 L 166.01 134.84 C 165.14 134.33 164.01 134.62 163.50 135.49 C 162.99 136.36 163.28 137.48 164.15 137.99 Z M 164.98 138.48 L 165.82 139.01 C 166.67 139.54 167.80 139.28 168.34 138.43 C 168.88 137.57 168.62 136.44 167.76 135.90 L 166.93 135.38 C 166.07 134.84 164.94 135.10 164.40 135.96 C 163.87 136.81 164.12 137.94 164.98 138.48 Z M 165.77 138.98 L 166.59 139.52 C 167.43 140.08 168.56 139.85 169.13 139.01 C 169.69 138.17 169.46 137.03 168.62 136.47 L 167.81 135.93 C 166.96 135.37 165.83 135.60 165.27 136.44 C 164.71 137.28 164.93 138.42 165.77 138.98 Z M 166.54 139.49 L 167.35 140.06 C 168.17 140.65 169.32 140.45 169.90 139.63 C 170.49 138.80 170.29 137.66 169.47 137.08 L 168.66 136.50 C 167.84 135.92 166.70 136.11 166.11 136.94 C 165.53 137.76 165.72 138.90 166.54 139.49 Z M 167.29 140.02 L 168.08 140.63 C 168.88 141.24 170.03 141.09 170.65 140.29 C 171.27 139.49 171.12 138.34 170.31 137.72 L 169.52 137.12 C 168.72 136.50 167.57 136.65 166.96 137.45 C 166.34 138.25 166.49 139.40 167.29 140.02 Z M 168.02 140.57 L 168.79 141.23 C 169.56 141.88 170.71 141.78 171.37 141.01 C 172.02 140.24 171.92 139.09 171.15 138.43 L 170.38 137.78 C 169.61 137.13 168.46 137.22 167.80 137.99 C 167.15 138.76 167.24 139.92 168.02 140.57 Z M 168.71 141.16 L 169.43 141.83 C 170.16 142.53 171.32 142.50 172.01 141.76 C 172.71 141.03 172.68 139.87 171.94 139.18 L 171.23 138.50 C 170.49 137.81 169.33 137.84 168.64 138.57 C 167.95 139.31 167.98 140.46 168.71 141.16 Z M 169.35 141.76 L 170.03 142.48 C 170.73 143.21 171.89 143.25 172.62 142.55 C 173.36 141.86 173.39 140.70 172.69 139.96 L 172.01 139.25 C 171.32 138.51 170.16 138.48 169.43 139.18 C 168.69 139.87 168.66 141.03 169.35 141.76 Z M 169.97 142.41 L 170.62 143.18 C 171.28 143.95 172.43 144.04 173.20 143.39 C 173.97 142.73 174.07 141.58 173.41 140.81 L 172.76 140.04 C 172.10 139.27 170.95 139.17 170.18 139.83 C 169.41 140.48 169.31 141.64 169.97 142.41 Z M 170.56 143.10 L 171.18 143.91 C 171.79 144.72 172.94 144.87 173.74 144.26 C 174.55 143.65 174.70 142.50 174.09 141.70 L 173.47 140.88 C 172.86 140.08 171.71 139.92 170.91 140.53 C 170.10 141.15 169.95 142.29 170.56 143.10 Z M 171.12 143.83 L 171.68 144.65 C 172.24 145.49 173.38 145.70 174.22 145.14 C 175.05 144.57 175.27 143.43 174.70 142.59 L 174.15 141.78 C 173.58 140.94 172.44 140.72 171.61 141.29 C 170.77 141.86 170.55 143.00 171.12 143.83 Z M 171.62 144.57 L 172.14 145.42 C 172.66 146.29 173.78 146.57 174.65 146.05 C 175.52 145.53 175.79 144.40 175.27 143.54 L 174.76 142.68 C 174.24 141.81 173.11 141.53 172.25 142.05 C 171.38 142.57 171.10 143.70 171.62 144.57 Z M 172.08 145.33 L 172.55 146.22 C 173.02 147.12 174.13 147.46 175.02 146.99 C 175.92 146.53 176.26 145.42 175.79 144.52 L 175.33 143.63 C 174.86 142.74 173.75 142.39 172.86 142.86 C 171.96 143.33 171.61 144.43 172.08 145.33 Z M 172.50 146.11 L 172.90 147.03 C 173.31 147.95 174.39 148.37 175.32 147.96 C 176.24 147.55 176.66 146.47 176.25 145.54 L 175.85 144.63 C 175.44 143.71 174.36 143.29 173.43 143.70 C 172.51 144.11 172.09 145.19 172.50 146.11 Z M 172.86 146.92 L 173.20 147.84 C 173.54 148.79 174.59 149.28 175.54 148.93 C 176.49 148.58 176.98 147.53 176.63 146.58 L 176.30 145.66 C 175.95 144.71 174.90 144.22 173.95 144.57 C 173.00 144.91 172.51 145.97 172.86 146.92 Z M 173.16 147.73 L 173.44 148.69 C 173.73 149.66 174.75 150.21 175.72 149.92 C 176.69 149.63 177.24 148.61 176.95 147.64 L 176.67 146.69 C 176.38 145.72 175.36 145.17 174.39 145.45 C 173.42 145.74 172.87 146.76 173.16 147.73 Z M 173.42 148.59 L 173.65 149.57 C 173.88 150.56 174.87 151.17 175.85 150.93 C 176.84 150.70 177.45 149.71 177.21 148.73 L 176.98 147.74 C 176.75 146.76 175.76 146.15 174.78 146.38 C 173.79 146.61 173.18 147.60 173.42 148.59 Z M 173.63 149.48 L 173.80 150.42 C 173.99 151.42 174.95 152.07 175.94 151.89 C 176.94 151.70 177.59 150.75 177.41 149.75 L 177.23 148.81 C 177.05 147.82 176.09 147.16 175.10 147.35 C 174.10 147.53 173.45 148.49 173.63 149.48 Z M 173.79 150.35 L 173.92 151.24 C 174.06 152.24 174.99 152.94 175.99 152.80 C 176.99 152.65 177.69 151.72 177.55 150.72 L 177.42 149.83 C 177.28 148.83 176.35 148.13 175.35 148.27 C 174.35 148.42 173.65 149.35 173.79 150.35 Z M 173.91 151.17 L 174.01 152.12 C 174.11 153.13 175.01 153.86 176.02 153.75 C 177.03 153.65 177.76 152.75 177.65 151.74 L 177.56 150.79 C 177.45 149.79 176.55 149.05 175.54 149.16 C 174.54 149.26 173.81 150.16 173.91 151.17 Z M 174.00 152.06 L 174.08 153.09 C 174.14 154.10 175.02 154.86 176.03 154.79 C 177.04 154.72 177.80 153.85 177.73 152.84 L 177.66 151.81 C 177.59 150.80 176.72 150.03 175.71 150.10 C 174.70 150.17 173.93 151.05 174.00 152.06 Z M 174.07 153.04 L 174.12 154.17 C 174.16 155.18 175.01 155.97 176.02 155.93 C 177.03 155.89 177.82 155.04 177.78 154.03 L 177.73 152.89 C 177.69 151.88 176.84 151.09 175.83 151.13 C 174.82 151.17 174.03 152.03 174.07 153.04 Z M 174.12 154.13 L 174.13 155.11 C 174.15 156.12 174.99 156.93 176.00 156.91 C 177.01 156.89 177.82 156.06 177.80 155.05 L 177.78 154.07 C 177.76 153.05 176.93 152.25 175.92 152.27 C 174.90 152.28 174.10 153.12 174.12 154.13 Z M 174.13 155.08 L 174.13 156.07 C 174.13 157.08 174.95 157.90 175.96 157.90 C 176.97 157.90 177.79 157.08 177.80 156.07 L 177.80 155.08 C 177.80 154.07 176.98 153.25 175.97 153.25 C 174.96 153.25 174.14 154.07 174.13 155.08 Z M 174.13 156.03 L 174.11 157.05 C 174.09 158.06 174.89 158.90 175.90 158.92 C 176.91 158.94 177.75 158.14 177.77 157.13 L 177.80 156.11 C 177.82 155.10 177.02 154.26 176.01 154.24 C 175.00 154.21 174.16 155.01 174.13 156.03 Z M 174.11 157.00 L 174.06 158.03 C 174.01 159.04 174.79 159.90 175.80 159.95 C 176.81 160.00 177.67 159.22 177.72 158.21 L 177.77 157.18 C 177.82 156.17 177.04 155.31 176.03 155.26 C 175.02 155.21 174.16 155.99 174.11 157.00 Z M 174.07 157.98 L 173.98 159.00 C 173.90 160.01 174.66 160.89 175.66 160.97 C 176.67 161.05 177.55 160.30 177.63 159.29 L 177.72 158.27 C 177.80 157.26 177.04 156.38 176.04 156.30 C 175.03 156.22 174.15 156.97 174.07 157.98 Z M 173.99 158.93 L 173.87 159.91 C 173.76 160.92 174.47 161.83 175.48 161.95 C 176.48 162.07 177.39 161.35 177.51 160.35 L 177.63 159.36 C 177.75 158.35 177.03 157.44 176.02 157.32 C 175.02 157.21 174.11 157.92 173.99 158.93 Z M 173.89 159.83 L 173.72 160.80 C 173.56 161.80 174.23 162.74 175.22 162.91 C 176.22 163.08 177.16 162.41 177.33 161.41 L 177.50 160.43 C 177.66 159.44 176.99 158.50 176.00 158.33 C 175.00 158.16 174.06 158.83 173.89 159.83 Z M 173.75 160.70 L 173.53 161.64 C 173.31 162.62 173.92 163.60 174.90 163.83 C 175.88 164.06 176.86 163.45 177.08 162.46 L 177.30 161.52 C 177.53 160.54 176.92 159.56 175.94 159.33 C 174.96 159.10 173.98 159.72 173.75 160.70 Z M 173.57 161.53 L 173.29 162.45 C 173.01 163.41 173.55 164.42 174.51 164.71 C 175.48 165.00 176.49 164.45 176.77 163.49 L 177.05 162.57 C 177.33 161.61 176.79 160.60 175.83 160.31 C 174.87 160.03 173.86 160.57 173.57 161.53 Z M 173.34 162.35 L 173.00 163.26 C 172.66 164.20 173.14 165.23 174.08 165.58 C 175.02 165.92 176.06 165.44 176.40 164.50 L 176.73 163.59 C 177.08 162.65 176.59 161.61 175.66 161.27 C 174.72 160.93 173.68 161.41 173.34 162.35 Z M 173.04 163.17 L 172.65 164.10 C 172.26 165.02 172.69 166.08 173.60 166.47 C 174.52 166.86 175.57 166.43 175.96 165.51 L 176.36 164.58 C 176.75 163.67 176.32 162.61 175.41 162.22 C 174.49 161.83 173.43 162.26 173.04 163.17 Z M 172.69 164.04 L 172.22 165.01 C 171.80 165.91 172.18 166.98 173.07 167.40 C 173.97 167.83 175.04 167.45 175.47 166.55 L 175.93 165.58 C 176.35 164.68 175.97 163.61 175.08 163.19 C 174.18 162.76 173.11 163.14 172.69 164.04 Z M 172.25 164.97 L 171.81 165.83 C 171.36 166.71 171.71 167.79 172.59 168.24 C 173.47 168.69 174.54 168.34 174.99 167.46 L 175.44 166.59 C 175.88 165.71 175.54 164.64 174.66 164.19 C 173.78 163.74 172.70 164.09 172.25 164.97 Z M 171.84 165.81 L 171.36 166.68 C 170.90 167.55 171.22 168.63 172.09 169.09 C 172.95 169.56 174.03 169.23 174.50 168.37 L 174.97 167.49 C 175.43 166.62 175.11 165.55 174.24 165.08 C 173.38 164.62 172.30 164.94 171.84 165.81 Z M 171.39 166.66 L 170.88 167.55 C 170.40 168.40 170.70 169.48 171.56 169.96 C 172.41 170.44 173.49 170.14 173.97 169.29 L 174.47 168.40 C 174.95 167.54 174.65 166.46 173.80 165.98 C 172.95 165.50 171.87 165.81 171.39 166.66 Z M 170.91 167.53 L 170.38 168.42 C 169.89 169.26 170.16 170.34 171.00 170.83 C 171.84 171.33 172.92 171.05 173.41 170.21 L 173.94 169.32 C 174.44 168.48 174.16 167.40 173.32 166.90 C 172.48 166.41 171.40 166.69 170.91 167.53 Z M 170.41 168.39 L 169.87 169.27 C 169.36 170.09 169.61 171.17 170.43 171.68 C 171.26 172.19 172.34 171.94 172.85 171.11 L 173.39 170.24 C 173.90 169.41 173.64 168.33 172.82 167.83 C 172.00 167.32 170.92 167.57 170.41 168.39 Z M 169.89 169.24 L 169.35 170.08 C 168.82 170.89 169.05 171.97 169.86 172.49 C 170.66 173.02 171.74 172.79 172.27 171.98 L 172.82 171.14 C 173.34 170.34 173.11 169.26 172.31 168.73 C 171.50 168.20 170.42 168.43 169.89 169.24 Z M 169.38 170.05 L 168.84 170.83 C 168.29 171.62 168.49 172.70 169.28 173.25 C 170.07 173.79 171.15 173.59 171.69 172.80 L 172.24 172.02 C 172.78 171.23 172.58 170.15 171.79 169.60 C 171.01 169.06 169.93 169.26 169.38 170.05 Z M 168.88 170.79 L 168.22 171.68 C 167.65 172.44 167.81 173.52 168.57 174.09 C 169.33 174.66 170.41 174.50 170.98 173.74 L 171.65 172.85 C 172.22 172.09 172.06 171.01 171.30 170.44 C 170.53 169.87 169.45 170.03 168.88 170.79 Z M 168.28 171.62 L 167.61 172.44 C 167.01 173.17 167.11 174.25 167.84 174.85 C 168.57 175.45 169.64 175.34 170.24 174.61 L 170.92 173.79 C 171.52 173.07 171.41 171.99 170.69 171.39 C 169.96 170.79 168.88 170.90 168.28 171.62 Z M 167.68 172.39 L 167.01 173.12 C 166.38 173.81 166.43 174.88 167.12 175.51 C 167.81 176.14 168.88 176.09 169.51 175.40 L 170.17 174.67 C 170.80 173.98 170.76 172.91 170.07 172.28 C 169.38 171.65 168.31 171.70 167.68 172.39 Z M 167.08 173.07 L 166.40 173.74 C 165.75 174.39 165.74 175.45 166.39 176.11 C 167.04 176.76 168.11 176.77 168.76 176.12 L 169.44 175.45 C 170.09 174.80 170.10 173.74 169.45 173.08 C 168.80 172.43 167.73 172.42 167.08 173.07 Z M 166.47 173.70 L 165.79 174.31 C 165.11 174.93 165.05 175.98 165.67 176.66 C 166.28 177.34 167.33 177.39 168.01 176.78 L 168.69 176.16 C 169.38 175.55 169.43 174.50 168.82 173.82 C 168.20 173.14 167.15 173.08 166.47 173.70 Z M 165.85 174.28 L 165.12 174.88 C 164.42 175.47 164.33 176.50 164.91 177.20 C 165.49 177.90 166.53 178.00 167.23 177.41 L 167.95 176.81 C 168.65 176.23 168.75 175.19 168.16 174.49 C 167.58 173.79 166.54 173.70 165.85 174.28 Z M 165.17 174.85 L 164.39 175.45 C 163.68 176.01 163.55 177.04 164.10 177.75 C 164.66 178.47 165.69 178.60 166.40 178.05 L 167.18 177.45 C 167.90 176.89 168.03 175.86 167.47 175.14 C 166.92 174.43 165.89 174.30 165.17 174.85 Z M 164.44 175.42 L 163.63 176.00 C 162.90 176.53 162.73 177.56 163.27 178.29 C 163.80 179.03 164.82 179.19 165.55 178.66 L 166.36 178.08 C 167.09 177.55 167.26 176.52 166.73 175.79 C 166.20 175.06 165.17 174.89 164.44 175.42 Z M 163.68 175.97 L 162.85 176.53 C 162.10 177.04 161.90 178.06 162.40 178.81 C 162.91 179.56 163.93 179.76 164.68 179.25 L 165.51 178.69 C 166.26 178.18 166.46 177.17 165.95 176.42 C 165.45 175.66 164.43 175.47 163.68 175.97 Z M 162.89 176.51 L 162.03 177.05 C 161.26 177.53 161.03 178.54 161.52 179.31 C 162.00 180.07 163.01 180.30 163.78 179.82 L 164.63 179.28 C 165.40 178.80 165.63 177.78 165.15 177.02 C 164.67 176.25 163.66 176.02 162.89 176.51 Z M 162.07 177.02 L 161.19 177.54 C 160.41 178.00 160.15 179.00 160.61 179.78 C 161.07 180.56 162.07 180.82 162.85 180.36 L 163.73 179.84 C 164.51 179.39 164.77 178.38 164.31 177.60 C 163.86 176.82 162.85 176.56 162.07 177.02 Z M 161.23 177.52 L 160.35 178.00 C 159.55 178.44 159.26 179.44 159.70 180.23 C 160.14 181.02 161.13 181.31 161.92 180.87 L 162.81 180.38 C 163.60 179.95 163.89 178.95 163.46 178.16 C 163.02 177.37 162.03 177.08 161.23 177.52 Z M 160.39 177.98 L 159.49 178.44 C 158.68 178.86 158.36 179.84 158.77 180.65 C 159.19 181.45 160.17 181.77 160.98 181.36 L 161.88 180.90 C 162.69 180.48 163.00 179.50 162.59 178.69 C 162.18 177.89 161.19 177.57 160.39 177.98 Z M 159.53 178.42 L 158.62 178.85 C 157.80 179.24 157.46 180.21 157.84 181.03 C 158.23 181.85 159.20 182.20 160.02 181.81 L 160.93 181.38 C 161.75 180.99 162.10 180.02 161.71 179.20 C 161.33 178.38 160.35 178.04 159.53 178.42 Z M 158.67 178.83 L 157.76 179.22 C 156.93 179.58 156.55 180.54 156.91 181.37 C 157.27 182.20 158.23 182.59 159.06 182.23 L 159.97 181.83 C 160.80 181.48 161.18 180.51 160.82 179.68 C 160.47 178.85 159.50 178.47 158.67 178.83 Z M 157.82 179.20 L 156.91 179.55 C 156.07 179.88 155.65 180.83 155.98 181.67 C 156.31 182.51 157.25 182.93 158.10 182.60 L 159.00 182.25 C 159.85 181.92 160.26 180.98 159.94 180.13 C 159.61 179.29 158.66 178.87 157.82 179.20 Z M 156.98 179.53 L 156.00 179.86 C 155.14 180.15 154.68 181.08 154.97 181.94 C 155.26 182.79 156.19 183.25 157.05 182.96 L 158.03 182.63 C 158.89 182.34 159.35 181.41 159.05 180.55 C 158.76 179.69 157.83 179.24 156.98 179.53 Z M 156.06 179.84 L 155.09 180.13 C 154.22 180.39 153.73 181.30 153.99 182.16 C 154.24 183.03 155.16 183.52 156.02 183.27 L 156.99 182.98 C 157.86 182.72 158.35 181.81 158.09 180.94 C 157.84 180.08 156.92 179.58 156.06 179.84 Z M 155.14 180.12 L 154.18 180.37 C 153.31 180.60 152.78 181.50 153.02 182.37 C 153.25 183.25 154.14 183.77 155.02 183.53 L 155.98 183.28 C 156.85 183.05 157.37 182.15 157.14 181.28 C 156.91 180.40 156.01 179.88 155.14 180.12 Z M 154.21 180.36 L 153.26 180.59 C 152.38 180.81 151.84 181.70 152.06 182.57 C 152.27 183.45 153.16 183.99 154.04 183.77 L 154.99 183.54 C 155.87 183.33 156.40 182.44 156.19 181.56 C 155.97 180.68 155.09 180.15 154.21 180.36 Z M 153.27 180.59 L 152.59 180.75 C 151.71 180.96 151.16 181.84 151.37 182.72 C 151.58 183.60 152.46 184.15 153.34 183.94 L 154.02 183.78 C 154.90 183.57 155.45 182.69 155.24 181.81 C 155.03 180.93 154.15 180.38 153.27 180.59 Z"
      fill="black"
      fill-rule="nonzero" /><path d="M 119.59 160.43 L 120.64 160.40 C 121.58 160.38 122.32 159.60 122.29 158.66 C 122.27 157.73 121.49 156.99 120.56 157.01 L 119.50 157.04 C 118.57 157.06 117.83 157.84 117.85 158.77 C 117.87 159.71 118.65 160.45 119.59 160.43 Z M 120.65 160.46 L 121.69 160.44 C 122.66 160.41 123.43 159.60 123.40 158.63 C 123.37 157.66 122.56 156.89 121.59 156.92 L 120.55 156.95 C 119.58 156.97 118.81 157.78 118.84 158.75 C 118.87 159.73 119.68 160.49 120.65 160.46 Z M 121.70 160.50 L 122.72 160.46 C 123.72 160.43 124.51 159.59 124.48 158.58 C 124.44 157.57 123.60 156.78 122.59 156.82 L 121.58 156.85 C 120.57 156.89 119.78 157.73 119.82 158.74 C 119.85 159.75 120.69 160.53 121.70 160.50 Z M 122.74 160.53 L 123.72 160.48 C 124.76 160.44 125.56 159.56 125.52 158.51 C 125.47 157.47 124.59 156.67 123.55 156.71 L 122.57 156.76 C 121.53 156.80 120.72 157.68 120.77 158.73 C 120.81 159.77 121.70 160.57 122.74 160.53 Z M 123.75 160.55 L 124.67 160.49 C 125.75 160.43 126.57 159.50 126.51 158.43 C 126.44 157.35 125.52 156.53 124.44 156.59 L 123.51 156.65 C 122.44 156.71 121.62 157.64 121.68 158.71 C 121.75 159.79 122.67 160.61 123.75 160.55 Z M 124.72 160.52 L 125.75 160.44 C 126.84 160.35 127.65 159.39 127.56 158.29 C 127.47 157.20 126.51 156.39 125.42 156.48 L 124.39 156.56 C 123.30 156.65 122.49 157.61 122.58 158.71 C 122.67 159.80 123.63 160.61 124.72 160.52 Z M 125.80 160.44 L 126.79 160.33 C 127.89 160.21 128.68 159.22 128.55 158.13 C 128.43 157.03 127.45 156.24 126.35 156.37 L 125.36 156.48 C 124.27 156.60 123.48 157.58 123.60 158.68 C 123.72 159.77 124.71 160.56 125.80 160.44 Z M 126.85 160.32 L 127.81 160.19 C 128.90 160.03 129.66 159.02 129.51 157.93 C 129.35 156.84 128.34 156.08 127.25 156.24 L 126.29 156.37 C 125.20 156.53 124.44 157.54 124.60 158.63 C 124.75 159.72 125.76 160.48 126.85 160.32 Z M 127.87 160.18 L 128.84 160.02 C 129.92 159.83 130.66 158.80 130.47 157.72 C 130.29 156.63 129.26 155.90 128.17 156.08 L 127.20 156.24 C 126.11 156.43 125.38 157.46 125.57 158.54 C 125.75 159.63 126.78 160.36 127.87 160.18 Z M 128.87 160.01 L 129.80 159.84 C 130.88 159.63 131.60 158.59 131.39 157.50 C 131.19 156.42 130.14 155.71 129.06 155.91 L 128.13 156.09 C 127.05 156.29 126.34 157.34 126.54 158.42 C 126.75 159.50 127.79 160.21 128.87 160.01 Z M 129.83 159.83 L 130.75 159.64 C 131.83 159.42 132.53 158.37 132.31 157.29 C 132.09 156.21 131.03 155.51 129.95 155.73 L 129.03 155.92 C 127.95 156.14 127.25 157.19 127.47 158.27 C 127.69 159.35 128.75 160.05 129.83 159.83 Z M 130.76 159.64 L 131.73 159.44 C 132.81 159.21 133.50 158.14 133.27 157.07 C 133.04 155.99 131.98 155.30 130.90 155.53 L 129.93 155.73 C 128.85 155.96 128.16 157.02 128.39 158.10 C 128.62 159.18 129.69 159.87 130.76 159.64 Z M 131.74 159.43 L 132.75 159.21 C 133.83 158.98 134.51 157.91 134.27 156.83 C 134.04 155.75 132.97 155.07 131.89 155.31 L 130.88 155.53 C 129.81 155.77 129.12 156.83 129.36 157.91 C 129.60 158.99 130.66 159.67 131.74 159.43 Z M 132.76 159.21 L 133.81 158.98 C 134.89 158.73 135.57 157.67 135.33 156.59 C 135.08 155.51 134.02 154.83 132.94 155.07 L 131.89 155.31 C 130.81 155.55 130.13 156.62 130.37 157.70 C 130.61 158.77 131.68 159.45 132.76 159.21 Z M 133.81 158.97 L 134.78 158.76 C 135.85 158.51 136.53 157.44 136.29 156.37 C 136.05 155.29 134.98 154.61 133.90 154.86 L 132.94 155.07 C 131.86 155.32 131.18 156.39 131.42 157.46 C 131.67 158.54 132.74 159.22 133.81 158.97 Z M 134.78 158.75 L 135.73 158.54 C 136.80 158.30 137.48 157.23 137.23 156.15 C 136.99 155.08 135.92 154.40 134.85 154.64 L 133.90 154.86 C 132.82 155.10 132.15 156.17 132.39 157.25 C 132.63 158.32 133.70 159.00 134.78 158.75 Z M 135.73 158.54 L 136.70 158.32 C 137.78 158.07 138.45 157.00 138.20 155.93 C 137.96 154.85 136.89 154.18 135.81 154.43 L 134.84 154.65 C 133.77 154.89 133.10 155.96 133.34 157.04 C 133.59 158.11 134.66 158.78 135.73 158.54 Z M 136.71 158.31 L 137.69 158.09 C 138.76 157.84 139.43 156.77 139.19 155.70 C 138.94 154.62 137.87 153.95 136.80 154.20 L 135.81 154.43 C 134.74 154.68 134.07 155.75 134.32 156.82 C 134.56 157.89 135.63 158.56 136.71 158.31 Z M 137.70 158.08 L 138.69 157.85 C 139.77 157.60 140.43 156.53 140.18 155.46 C 139.93 154.39 138.86 153.72 137.79 153.97 L 136.79 154.20 C 135.72 154.45 135.06 155.52 135.31 156.60 C 135.56 157.67 136.63 158.33 137.70 158.08 Z M 138.70 157.85 L 139.70 157.61 C 140.77 157.36 141.43 156.28 141.18 155.21 C 140.93 154.15 139.86 153.48 138.79 153.74 L 137.78 153.97 C 136.72 154.23 136.05 155.30 136.31 156.37 C 136.56 157.44 137.63 158.10 138.70 157.85 Z M 139.71 157.60 L 140.67 157.37 C 141.74 157.12 142.39 156.04 142.14 154.98 C 141.88 153.91 140.81 153.25 139.74 153.51 L 138.78 153.74 C 137.71 154.00 137.06 155.07 137.31 156.14 C 137.57 157.20 138.64 157.86 139.71 157.60 Z M 140.68 157.37 L 141.63 157.14 C 142.70 156.88 143.35 155.80 143.09 154.74 C 142.83 153.67 141.75 153.02 140.69 153.28 L 139.73 153.51 C 138.67 153.77 138.02 154.85 138.28 155.91 C 138.54 156.98 139.61 157.63 140.68 157.37 Z M 141.64 157.13 L 142.60 156.89 C 143.67 156.63 144.31 155.55 144.05 154.49 C 143.78 153.43 142.71 152.78 141.64 153.04 L 140.68 153.28 C 139.62 153.55 138.97 154.63 139.24 155.69 C 139.50 156.75 140.58 157.40 141.64 157.13 Z M 142.61 156.89 L 143.58 156.64 C 144.64 156.37 145.28 155.29 145.01 154.23 C 144.74 153.17 143.66 152.53 142.60 152.80 L 141.63 153.05 C 140.57 153.32 139.93 154.40 140.20 155.46 C 140.47 156.52 141.55 157.16 142.61 156.89 Z M 143.59 156.64 L 144.57 156.38 C 145.63 156.10 146.26 155.02 145.98 153.97 C 145.71 152.91 144.63 152.27 143.57 152.55 L 142.59 152.81 C 141.53 153.08 140.90 154.16 141.18 155.22 C 141.45 156.28 142.53 156.91 143.59 156.64 Z M 144.58 156.38 L 145.57 156.11 C 146.62 155.83 147.25 154.75 146.97 153.69 C 146.69 152.64 145.60 152.01 144.55 152.29 L 143.56 152.56 C 142.50 152.84 141.88 153.92 142.16 154.98 C 142.44 156.03 143.53 156.66 144.58 156.38 Z M 145.58 156.11 L 146.52 155.85 C 147.57 155.56 148.19 154.47 147.90 153.42 C 147.61 152.37 146.53 151.75 145.48 152.04 L 144.54 152.30 C 143.49 152.59 142.87 153.67 143.15 154.72 C 143.44 155.77 144.53 156.39 145.58 156.11 Z M 146.53 155.84 L 147.47 155.58 C 148.51 155.29 149.13 154.20 148.83 153.15 C 148.54 152.11 147.46 151.49 146.41 151.79 L 145.47 152.05 C 144.42 152.34 143.81 153.43 144.10 154.47 C 144.39 155.52 145.48 156.13 146.53 155.84 Z M 147.47 155.57 L 148.42 155.30 C 149.46 155.01 150.07 153.93 149.78 152.88 C 149.48 151.84 148.40 151.23 147.35 151.52 L 146.40 151.79 C 145.36 152.09 144.75 153.17 145.05 154.22 C 145.34 155.26 146.43 155.87 147.47 155.57 Z M 148.42 155.30 L 149.39 155.03 C 150.43 154.73 151.03 153.65 150.74 152.61 C 150.44 151.56 149.36 150.96 148.32 151.26 L 147.35 151.53 C 146.31 151.83 145.71 152.91 146.00 153.95 C 146.30 154.99 147.38 155.59 148.42 155.30 Z M 149.38 155.02 L 150.36 154.74 C 151.40 154.45 152.00 153.37 151.71 152.33 C 151.41 151.29 150.33 150.69 149.29 150.98 L 148.32 151.26 C 147.28 151.56 146.68 152.64 146.97 153.68 C 147.27 154.71 148.35 155.32 149.38 155.02 Z M 150.36 154.74 L 151.34 154.46 C 152.38 154.17 152.98 153.09 152.69 152.05 C 152.39 151.02 151.32 150.42 150.28 150.71 L 149.29 150.99 C 148.26 151.28 147.66 152.36 147.95 153.40 C 148.24 154.43 149.32 155.03 150.36 154.74 Z M 151.34 154.46 L 152.32 154.18 C 153.36 153.89 153.96 152.82 153.67 151.78 C 153.38 150.75 152.30 150.15 151.27 150.44 L 150.29 150.71 C 149.25 151.00 148.65 152.08 148.94 153.11 C 149.23 154.14 150.30 154.75 151.34 154.46 Z M 152.32 154.18 L 153.25 153.92 C 154.29 153.63 154.89 152.56 154.60 151.53 C 154.32 150.50 153.25 149.89 152.22 150.18 L 151.28 150.44 C 150.25 150.73 149.64 151.80 149.93 152.83 C 150.21 153.86 151.28 154.46 152.32 154.18 Z M 153.25 153.91 L 154.20 153.65 C 155.23 153.37 155.83 152.30 155.55 151.27 C 155.27 150.24 154.20 149.64 153.17 149.92 L 152.22 150.18 C 151.19 150.46 150.59 151.53 150.87 152.56 C 151.15 153.59 152.22 154.20 153.25 153.91 Z M 154.19 153.65 L 155.15 153.39 C 156.18 153.11 156.78 152.05 156.50 151.02 C 156.22 149.99 155.16 149.38 154.14 149.66 L 153.18 149.92 C 152.15 150.20 151.54 151.26 151.82 152.29 C 152.10 153.32 153.16 153.93 154.19 153.65 Z M 155.14 153.38 L 156.11 153.12 C 157.14 152.85 157.74 151.79 157.47 150.76 C 157.19 149.74 156.13 149.13 155.11 149.41 L 154.14 149.67 C 153.11 149.94 152.51 151.00 152.78 152.03 C 153.06 153.05 154.12 153.66 155.14 153.38 Z M 156.10 153.12 L 157.08 152.86 C 158.11 152.58 158.71 151.53 158.44 150.51 C 158.17 149.48 157.11 148.88 156.09 149.15 L 155.11 149.41 C 154.09 149.68 153.48 150.74 153.75 151.76 C 154.03 152.78 155.08 153.39 156.10 153.12 Z M 157.08 152.85 L 158.06 152.59 C 159.08 152.32 159.69 151.27 159.42 150.25 C 159.15 149.23 158.10 148.62 157.08 148.89 L 156.10 149.15 C 155.07 149.42 154.46 150.47 154.74 151.49 C 155.01 152.52 156.05 153.13 157.08 152.85 Z M 158.06 152.59 L 159.04 152.33 C 160.07 152.06 160.67 151.02 160.41 150.00 C 160.14 148.98 159.09 148.37 158.07 148.64 L 157.09 148.90 C 156.07 149.16 155.46 150.21 155.72 151.23 C 155.99 152.25 157.04 152.86 158.06 152.59 Z M 159.04 152.32 L 159.99 152.08 C 161.01 151.81 161.62 150.77 161.36 149.75 C 161.09 148.74 160.05 148.13 159.03 148.39 L 158.08 148.64 C 157.06 148.91 156.45 149.95 156.72 150.96 C 156.98 151.98 158.02 152.59 159.04 152.32 Z M 159.99 152.07 L 160.95 151.82 C 161.96 151.56 162.57 150.52 162.31 149.51 C 162.05 148.50 161.01 147.89 160.00 148.15 L 159.04 148.40 C 158.03 148.66 157.42 149.70 157.68 150.71 C 157.94 151.72 158.98 152.33 159.99 152.07 Z M 160.95 151.81 L 161.91 151.56 C 162.92 151.30 163.53 150.27 163.27 149.27 C 163.01 148.26 161.98 147.65 160.97 147.91 L 160.00 148.16 C 159.00 148.42 158.39 149.45 158.65 150.46 C 158.91 151.47 159.94 152.07 160.95 151.81 Z M 161.91 151.56 L 162.88 151.31 C 163.88 151.05 164.49 150.03 164.23 149.02 C 163.97 148.02 162.95 147.41 161.94 147.67 L 160.97 147.92 C 159.97 148.17 159.36 149.20 159.62 150.20 C 159.88 151.21 160.90 151.81 161.91 151.56 Z M 162.88 151.30 L 163.85 151.05 C 164.85 150.80 165.45 149.78 165.20 148.78 C 164.94 147.77 163.92 147.17 162.92 147.43 L 161.95 147.67 C 160.95 147.93 160.34 148.95 160.60 149.95 C 160.85 150.95 161.87 151.56 162.88 151.30 Z M 163.85 151.04 L 164.82 150.80 C 165.82 150.54 166.42 149.53 166.17 148.53 C 165.91 147.53 164.90 146.93 163.90 147.18 L 162.92 147.43 C 161.93 147.69 161.33 148.70 161.58 149.70 C 161.83 150.70 162.85 151.30 163.85 151.04 Z M 164.82 150.79 L 165.80 150.54 C 166.79 150.29 167.39 149.28 167.14 148.28 C 166.88 147.29 165.87 146.69 164.88 146.94 L 163.90 147.19 C 162.91 147.44 162.31 148.45 162.56 149.45 C 162.82 150.44 163.83 151.04 164.82 150.79 Z M 165.79 150.53 L 166.76 150.28 C 167.75 150.03 168.35 149.03 168.10 148.04 C 167.85 147.05 166.84 146.45 165.85 146.70 L 164.88 146.95 C 163.89 147.20 163.30 148.21 163.55 149.20 C 163.80 150.19 164.81 150.78 165.79 150.53 Z M 166.76 150.28 L 167.72 150.03 C 168.71 149.78 169.30 148.78 169.05 147.80 C 168.80 146.81 167.80 146.22 166.82 146.47 L 165.85 146.71 C 164.87 146.96 164.27 147.96 164.52 148.95 C 164.77 149.93 165.78 150.53 166.76 150.28 Z M 167.72 150.02 L 168.69 149.78 C 169.67 149.53 170.26 148.53 170.01 147.55 C 169.76 146.57 168.76 145.98 167.78 146.23 L 166.82 146.47 C 165.84 146.72 165.25 147.72 165.50 148.70 C 165.74 149.68 166.74 150.27 167.72 150.02 Z M 168.68 149.77 L 169.65 149.53 C 170.63 149.28 171.22 148.29 170.97 147.31 C 170.72 146.33 169.73 145.74 168.75 145.99 L 167.79 146.24 C 166.81 146.48 166.22 147.48 166.47 148.45 C 166.72 149.43 167.71 150.02 168.68 149.77 Z M 169.65 149.52 L 170.62 149.27 C 171.59 149.03 172.18 148.04 171.93 147.07 C 171.69 146.09 170.70 145.51 169.73 145.75 L 168.76 146.00 C 167.78 146.24 167.20 147.23 167.44 148.20 C 167.69 149.18 168.68 149.76 169.65 149.52 Z M 170.61 149.27 L 171.59 149.02 C 172.55 148.78 173.14 147.79 172.90 146.82 C 172.65 145.86 171.67 145.27 170.70 145.51 L 169.73 145.76 C 168.76 146.00 168.17 146.99 168.42 147.96 C 168.66 148.92 169.65 149.51 170.61 149.27 Z M 171.58 149.01 L 172.56 148.77 C 173.52 148.52 174.11 147.55 173.86 146.58 C 173.62 145.62 172.64 145.03 171.68 145.28 L 170.70 145.52 C 169.74 145.76 169.15 146.74 169.40 147.71 C 169.64 148.67 170.62 149.26 171.58 149.01 Z M 172.55 148.76 L 173.53 148.51 C 174.49 148.27 175.08 147.30 174.84 146.34 C 174.60 145.38 173.62 144.80 172.66 145.04 L 171.68 145.28 C 170.72 145.52 170.14 146.50 170.38 147.46 C 170.62 148.42 171.59 149.00 172.55 148.76 Z M 173.53 148.51 L 174.53 148.26 C 175.49 148.02 176.07 147.05 175.83 146.10 C 175.59 145.14 174.62 144.56 173.67 144.80 L 172.67 145.05 C 171.71 145.29 171.13 146.25 171.37 147.21 C 171.61 148.16 172.57 148.74 173.53 148.51 Z M 174.53 148.24 L 175.53 148.00 C 176.48 147.76 177.06 146.80 176.82 145.85 C 176.58 144.90 175.62 144.32 174.67 144.56 L 173.67 144.81 C 172.72 145.04 172.15 146.00 172.38 146.95 C 172.62 147.90 173.58 148.48 174.53 148.24 Z M 175.52 147.98 L 176.52 147.74 C 177.46 147.50 178.04 146.55 177.80 145.61 C 177.57 144.66 176.62 144.09 175.67 144.32 L 174.68 144.57 C 173.73 144.80 173.16 145.76 173.39 146.70 C 173.63 147.64 174.58 148.22 175.52 147.98 Z M 176.52 147.73 L 177.50 147.48 C 178.44 147.25 179.01 146.30 178.78 145.37 C 178.55 144.43 177.60 143.86 176.66 144.09 L 175.68 144.33 C 174.74 144.57 174.17 145.51 174.40 146.45 C 174.63 147.39 175.58 147.96 176.52 147.73 Z M 177.50 147.47 L 178.47 147.23 C 179.40 147.00 179.96 146.06 179.73 145.13 C 179.50 144.20 178.56 143.63 177.63 143.86 L 176.66 144.10 C 175.73 144.33 175.17 145.27 175.40 146.20 C 175.63 147.14 176.57 147.70 177.50 147.47 Z M 178.46 147.22 L 179.41 146.99 C 180.34 146.76 180.90 145.82 180.67 144.90 C 180.44 143.97 179.50 143.41 178.58 143.64 L 177.63 143.87 C 176.71 144.10 176.15 145.04 176.38 145.96 C 176.60 146.89 177.54 147.45 178.46 147.22 Z M 179.41 146.97 L 180.33 146.75 C 181.25 146.52 181.81 145.59 181.58 144.67 C 181.35 143.75 180.42 143.19 179.50 143.42 L 178.58 143.65 C 177.66 143.88 177.10 144.81 177.33 145.73 C 177.56 146.64 178.49 147.20 179.41 146.97 Z M 180.33 146.74 L 181.34 146.48 C 182.25 146.25 182.81 145.33 182.58 144.42 C 182.35 143.50 181.43 142.95 180.51 143.18 L 179.50 143.43 C 178.59 143.66 178.03 144.58 178.26 145.50 C 178.49 146.41 179.42 146.96 180.33 146.74 Z M 181.34 146.48 L 182.38 146.21 C 183.29 145.98 183.84 145.06 183.61 144.15 C 183.38 143.24 182.46 142.69 181.55 142.92 L 180.51 143.18 C 179.60 143.41 179.05 144.33 179.28 145.24 C 179.51 146.15 180.43 146.70 181.34 146.48 Z M 182.38 146.21 L 183.38 145.96 C 184.29 145.73 184.83 144.80 184.60 143.90 C 184.37 142.99 183.45 142.44 182.55 142.67 L 181.55 142.93 C 180.64 143.16 180.10 144.08 180.33 144.98 C 180.56 145.89 181.48 146.44 182.38 146.21 Z M 183.38 145.95 L 184.34 145.71 C 185.24 145.47 185.79 144.55 185.56 143.65 C 185.33 142.75 184.41 142.20 183.50 142.43 L 182.54 142.68 C 181.64 142.91 181.10 143.83 181.33 144.73 C 181.56 145.64 182.48 146.18 183.38 145.95 Z M 184.34 145.70 L 185.27 145.46 C 186.17 145.23 186.71 144.31 186.48 143.41 C 186.24 142.51 185.33 141.97 184.42 142.20 L 183.50 142.44 C 182.60 142.67 182.06 143.59 182.29 144.49 C 182.52 145.39 183.44 145.93 184.34 145.70 Z M 185.27 145.46 L 186.17 145.22 C 187.06 144.99 187.60 144.07 187.37 143.17 C 187.13 142.28 186.22 141.74 185.32 141.97 L 184.42 142.21 C 183.52 142.44 182.99 143.36 183.22 144.25 C 183.45 145.15 184.37 145.69 185.27 145.46 Z M 186.17 145.22 L 187.14 144.97 C 188.03 144.73 188.57 143.81 188.33 142.92 C 188.10 142.02 187.18 141.48 186.28 141.72 L 185.32 141.97 C 184.42 142.21 183.88 143.13 184.12 144.02 C 184.35 144.92 185.27 145.46 186.17 145.22 Z M 187.14 144.97 L 188.15 144.70 C 189.05 144.46 189.59 143.54 189.35 142.64 C 189.11 141.74 188.19 141.21 187.29 141.45 L 186.28 141.71 C 185.38 141.95 184.84 142.88 185.08 143.78 C 185.32 144.67 186.24 145.21 187.14 144.97 Z M 188.16 144.71 L 189.14 144.45 C 190.04 144.20 190.58 143.27 190.34 142.37 C 190.09 141.47 189.16 140.93 188.26 141.17 L 187.28 141.44 C 186.38 141.68 185.84 142.61 186.08 143.51 C 186.33 144.42 187.26 144.95 188.16 144.71 Z M 189.15 144.45 L 190.10 144.20 C 191.00 143.95 191.54 143.01 191.29 142.11 C 191.05 141.20 190.11 140.66 189.20 140.91 L 188.25 141.17 C 187.35 141.41 186.81 142.35 187.06 143.26 C 187.30 144.17 188.24 144.70 189.15 144.45 Z M 190.10 144.20 L 191.02 143.95 C 191.93 143.70 192.47 142.76 192.22 141.84 C 191.97 140.93 191.02 140.40 190.11 140.65 L 189.19 140.90 C 188.28 141.15 187.75 142.10 188.00 143.01 C 188.25 143.92 189.19 144.45 190.10 144.20 Z M 191.03 143.96 L 191.95 143.70 C 192.87 143.44 193.41 142.49 193.15 141.58 C 192.89 140.66 191.94 140.13 191.03 140.38 L 190.10 140.64 C 189.19 140.90 188.65 141.85 188.91 142.76 C 189.17 143.68 190.12 144.21 191.03 143.96 Z M 191.96 143.71 L 192.90 143.44 C 193.82 143.18 194.36 142.22 194.10 141.30 C 193.84 140.38 192.88 139.85 191.96 140.11 L 191.02 140.37 C 190.10 140.63 189.56 141.59 189.82 142.51 C 190.08 143.44 191.04 143.97 191.96 143.71 Z M 192.91 143.46 L 193.85 143.19 C 194.77 142.92 195.31 141.96 195.05 141.03 C 194.78 140.10 193.81 139.56 192.89 139.83 L 191.95 140.09 C 191.02 140.36 190.48 141.33 190.75 142.26 C 191.01 143.18 191.98 143.72 192.91 143.46 Z M 193.85 143.20 L 194.81 142.93 C 195.74 142.66 196.29 141.69 196.02 140.75 C 195.75 139.81 194.78 139.27 193.84 139.54 L 192.88 139.81 C 191.95 140.08 191.40 141.06 191.67 141.99 C 191.94 142.93 192.92 143.47 193.85 143.20 Z M 194.81 142.94 L 195.81 142.66 C 196.76 142.39 197.30 141.40 197.03 140.46 C 196.77 139.52 195.78 138.97 194.84 139.24 L 193.84 139.53 C 192.89 139.80 192.35 140.78 192.62 141.72 C 192.89 142.66 193.87 143.21 194.81 142.94 Z M 195.81 142.67 L 196.73 142.41 C 197.68 142.14 198.24 141.15 197.97 140.20 C 197.70 139.25 196.71 138.70 195.76 138.97 L 194.84 139.23 C 193.89 139.50 193.34 140.49 193.61 141.44 C 193.87 142.39 194.86 142.94 195.81 142.67 Z M 196.73 142.42 L 197.66 142.16 C 198.62 141.89 199.18 140.90 198.91 139.94 C 198.64 138.98 197.64 138.42 196.68 138.69 L 195.76 138.95 C 194.80 139.22 194.24 140.22 194.51 141.18 C 194.78 142.14 195.78 142.69 196.73 142.42 Z M 197.66 142.18 L 198.62 141.91 C 199.59 141.64 200.15 140.63 199.88 139.67 C 199.61 138.70 198.61 138.14 197.64 138.41 L 196.68 138.68 C 195.71 138.95 195.15 139.95 195.42 140.92 C 195.69 141.88 196.70 142.45 197.66 142.18 Z M 198.62 141.92 L 199.61 141.65 C 200.58 141.37 201.15 140.36 200.88 139.39 C 200.61 138.41 199.60 137.84 198.62 138.12 L 197.64 138.39 C 196.66 138.67 196.09 139.68 196.37 140.65 C 196.64 141.63 197.65 142.19 198.62 141.92 Z M 199.61 141.66 L 200.61 141.38 C 201.60 141.11 202.17 140.09 201.90 139.11 C 201.62 138.12 200.60 137.55 199.62 137.82 L 198.62 138.10 C 197.64 138.38 197.06 139.40 197.34 140.38 C 197.61 141.36 198.63 141.93 199.61 141.66 Z M 200.62 141.39 L 201.47 141.15 C 202.46 140.88 203.04 139.85 202.77 138.86 C 202.49 137.87 201.46 137.30 200.47 137.57 L 199.62 137.81 C 198.63 138.09 198.05 139.11 198.33 140.10 C 198.60 141.09 199.63 141.67 200.62 141.39 Z"
      fill="black"
      fill-rule="nonzero" /></svg>