<svg xmlns="http://www.w3.org/2000/svg" width="300" height="300" viewBox="0 0 300 300">
<path d="M 118.93 117.93 L 119.39 118.76 C 119.86 119.61 120.93 119.92 121.79 119.45 C 122.64 118.98 122.95 117.91 122.48 117.06 L 122.02 116.22 C 121.55 115.37 120.47 115.06 119.62 115.53 C 118.77 116.00 118.46 117.08 118.93 117.93 Z M 119.48 118.98 L 120.05 119.75 C 120.64 120.55 121.77 120.72 122.57 120.13 C 123.37 119.54 123.54 118.42 122.95 117.62 L 122.38 116.84 C 121.79 116.04 120.67 115.87 119.87 116.46 C 119.07 117.05 118.90 118.18 119.48 118.98 Z M 120.33 120.10 L 121.12 120.75 C 121.90 121.40 123.06 121.29 123.71 120.51 C 124.35 119.73 124.25 118.58 123.47 117.93 L 122.68 117.27 C 121.90 116.62 120.74 116.73 120.09 117.51 C 119.44 118.29 119.55 119.45 120.33 120.10 Z M 121.51 121.01 L 122.35 121.41 C 123.28 121.84 124.38 121.45 124.81 120.53 C 125.25 119.60 124.85 118.50 123.93 118.07 L 123.08 117.67 C 122.16 117.23 121.06 117.63 120.62 118.55 C 120.19 119.48 120.58 120.58 121.51 121.01 Z M 122.63 121.48 L 123.53 121.75 C 124.49 122.03 125.50 121.48 125.79 120.52 C 126.07 119.55 125.52 118.54 124.55 118.26 L 123.65 117.99 C 122.69 117.71 121.68 118.26 121.39 119.22 C 121.11 120.19 121.66 121.20 122.63 121.48 Z M 123.68 121.75 L 124.68 121.95 C 125.65 122.15 126.59 121.53 126.79 120.57 C 126.98 119.60 126.36 118.66 125.40 118.46 L 124.40 118.26 C 123.43 118.06 122.49 118.68 122.29 119.65 C 122.10 120.61 122.72 121.55 123.68 121.75 Z M 124.77 121.93 L 125.82 122.10 C 126.77 122.25 127.67 121.59 127.82 120.64 C 127.96 119.69 127.31 118.80 126.36 118.65 L 125.31 118.49 C 124.36 118.34 123.46 118.99 123.32 119.94 C 123.17 120.89 123.82 121.78 124.77 121.93 Z M 125.86 122.06 L 126.92 122.21 C 127.86 122.33 128.72 121.68 128.84 120.75 C 128.97 119.81 128.31 118.95 127.38 118.83 L 126.32 118.68 C 125.39 118.56 124.53 119.21 124.40 120.14 C 124.27 121.08 124.93 121.94 125.86 122.06 Z M 126.93 122.18 L 127.96 122.32 C 128.88 122.45 129.73 121.80 129.86 120.88 C 129.98 119.96 129.34 119.12 128.41 118.99 L 127.38 118.85 C 126.46 118.73 125.61 119.37 125.48 120.29 C 125.36 121.21 126.01 122.06 126.93 122.18 Z M 127.96 122.31 L 128.96 122.45 C 129.88 122.58 130.72 121.94 130.85 121.03 C 130.98 120.12 130.34 119.27 129.43 119.14 L 128.42 119.00 C 127.51 118.88 126.66 119.51 126.53 120.43 C 126.41 121.34 127.04 122.18 127.96 122.31 Z M 128.96 122.44 L 129.94 122.58 C 130.85 122.71 131.69 122.08 131.82 121.17 C 131.95 120.27 131.32 119.43 130.41 119.30 L 129.43 119.15 C 128.52 119.02 127.68 119.65 127.55 120.56 C 127.42 121.47 128.05 122.31 128.96 122.44 Z M 129.94 122.57 L 130.90 122.71 C 131.80 122.84 132.64 122.22 132.77 121.32 C 132.90 120.42 132.28 119.58 131.38 119.45 L 130.41 119.31 C 129.51 119.17 128.67 119.80 128.54 120.70 C 128.41 121.60 129.03 122.44 129.94 122.57 Z M 130.90 122.70 L 131.64 122.81 C 132.54 122.94 133.37 122.32 133.50 121.43 C 133.63 120.53 133.01 119.70 132.12 119.56 L 131.38 119.46 C 130.48 119.32 129.65 119.94 129.52 120.84 C 129.38 121.74 130.00 122.57 130.90 122.70 Z"
      fill="black"
      fill-rule="nonzero" /><path d="M 122.50 140.99 L 123.43 140.58 C 124.33 140.20 124.74 139.16 124.36 138.26 C 123.97 137.37 122.93 136.95 122.04 137.34 L 121.10 137.74 C 120.21 138.13 119.79 139.16 120.18 140.06 C 120.56 140.96 121.60 141.37 122.50 140.99 Z M 123.35 140.62 L 124.29 140.27 C 125.21 139.93 125.67 138.91 125.33 138.00 C 125.00 137.08 123.98 136.62 123.06 136.96 L 122.12 137.30 C 121.21 137.64 120.74 138.66 121.08 139.57 C 121.42 140.49 122.44 140.96 123.35 140.62 Z M 124.11 140.32 L 125.07 140.08 C 126.01 139.84 126.58 138.88 126.34 137.94 C 126.10 136.99 125.14 136.42 124.20 136.66 L 123.24 136.90 C 122.30 137.14 121.73 138.10 121.97 139.05 C 122.21 139.99 123.17 140.56 124.11 140.32 Z M 124.78 140.13 L 125.77 140.05 C 126.74 139.97 127.46 139.11 127.38 138.14 C 127.30 137.17 126.45 136.45 125.48 136.53 L 124.49 136.61 C 123.52 136.69 122.79 137.54 122.87 138.51 C 122.95 139.49 123.81 140.21 124.78 140.13 Z M 125.43 140.04 L 126.44 140.15 C 127.41 140.26 128.28 139.56 128.39 138.60 C 128.49 137.63 127.80 136.76 126.84 136.65 L 125.82 136.54 C 124.86 136.43 123.99 137.13 123.88 138.09 C 123.77 139.06 124.46 139.93 125.43 140.04 Z M 126.11 140.07 L 127.06 140.37 C 127.98 140.67 128.97 140.16 129.26 139.24 C 129.55 138.31 129.04 137.33 128.12 137.03 L 127.17 136.73 C 126.25 136.44 125.26 136.95 124.97 137.87 C 124.67 138.79 125.18 139.78 126.11 140.07 Z M 126.72 140.22 L 127.55 140.70 C 128.39 141.18 129.45 140.89 129.94 140.06 C 130.42 139.22 130.13 138.15 129.29 137.67 L 128.46 137.19 C 127.62 136.71 126.56 137.00 126.08 137.83 C 125.59 138.67 125.88 139.74 126.72 140.22 Z M 127.21 140.43 L 127.89 141.09 C 128.58 141.76 129.68 141.74 130.35 141.05 C 131.02 140.36 131.00 139.26 130.31 138.59 L 129.63 137.94 C 128.94 137.27 127.84 137.29 127.17 137.98 C 126.51 138.67 126.52 139.77 127.21 140.43 Z M 127.64 140.76 L 128.15 141.58 C 128.66 142.39 129.72 142.64 130.53 142.13 C 131.34 141.63 131.59 140.56 131.08 139.75 L 130.57 138.93 C 130.06 138.12 129.00 137.87 128.19 138.38 C 127.38 138.88 127.13 139.95 127.64 140.76 Z M 128.01 141.26 L 128.37 142.25 C 128.70 143.14 129.68 143.59 130.57 143.26 C 131.46 142.94 131.92 141.95 131.59 141.06 L 131.23 140.07 C 130.90 139.18 129.91 138.73 129.02 139.06 C 128.14 139.38 127.68 140.37 128.01 141.26 Z M 128.30 142.00 L 128.50 142.94 C 128.69 143.86 129.60 144.46 130.52 144.27 C 131.45 144.07 132.04 143.17 131.85 142.24 L 131.66 141.30 C 131.46 140.38 130.56 139.78 129.63 139.98 C 128.71 140.17 128.11 141.08 128.30 142.00 Z M 128.47 142.75 L 128.56 143.71 C 128.65 144.65 129.49 145.35 130.43 145.26 C 131.37 145.17 132.07 144.33 131.98 143.38 L 131.88 142.43 C 131.79 141.48 130.96 140.79 130.01 140.88 C 129.07 140.97 128.38 141.81 128.47 142.75 Z M 128.54 143.54 L 128.54 144.55 C 128.53 145.50 129.30 146.28 130.25 146.28 C 131.20 146.29 131.98 145.52 131.98 144.57 L 131.99 143.56 C 132.00 142.61 131.23 141.83 130.28 141.82 C 129.33 141.82 128.55 142.58 128.54 143.54 Z M 128.54 144.37 L 128.43 145.42 C 128.32 146.37 129.00 147.22 129.95 147.33 C 130.90 147.43 131.76 146.75 131.86 145.80 L 131.98 144.75 C 132.08 143.80 131.40 142.95 130.45 142.84 C 129.50 142.74 128.65 143.42 128.54 144.37 Z M 128.45 145.24 L 128.22 146.26 C 128.02 147.20 128.61 148.12 129.55 148.33 C 130.48 148.54 131.41 147.94 131.62 147.01 L 131.84 145.98 C 132.05 145.04 131.45 144.12 130.52 143.91 C 129.58 143.71 128.65 144.30 128.45 145.24 Z M 128.26 146.11 L 127.95 147.09 C 127.65 148.01 128.16 148.99 129.08 149.28 C 130.00 149.57 130.98 149.06 131.27 148.14 L 131.58 147.16 C 131.87 146.24 131.37 145.26 130.45 144.97 C 129.53 144.68 128.55 145.19 128.26 146.11 Z M 127.98 146.98 L 127.60 147.93 C 127.25 148.83 127.69 149.85 128.59 150.20 C 129.49 150.56 130.51 150.11 130.86 149.21 L 131.24 148.26 C 131.59 147.36 131.15 146.34 130.25 145.99 C 129.35 145.63 128.33 146.08 127.98 146.98 Z M 127.63 147.85 L 127.22 148.76 C 126.83 149.65 127.22 150.69 128.11 151.09 C 129.00 151.48 130.04 151.08 130.43 150.20 L 130.84 149.29 C 131.24 148.40 130.84 147.36 129.95 146.97 C 129.06 146.57 128.02 146.97 127.63 147.85 Z M 127.24 148.72 L 126.83 149.56 C 126.41 150.44 126.78 151.50 127.66 151.92 C 128.54 152.34 129.59 151.97 130.01 151.09 L 130.42 150.25 C 130.84 149.37 130.47 148.31 129.59 147.89 C 128.71 147.47 127.66 147.84 127.24 148.72 Z M 126.84 149.54 L 126.36 150.49 C 125.93 151.37 126.29 152.43 127.16 152.87 C 128.04 153.30 129.10 152.94 129.54 152.07 L 130.01 151.11 C 130.44 150.24 130.09 149.17 129.21 148.74 C 128.33 148.30 127.27 148.66 126.84 149.54 Z M 126.36 150.48 L 125.92 151.37 C 125.48 152.24 125.84 153.31 126.71 153.75 C 127.59 154.18 128.66 153.83 129.09 152.95 L 129.54 152.07 C 129.97 151.20 129.62 150.13 128.74 149.69 C 127.87 149.25 126.80 149.61 126.36 150.48 Z M 125.91 151.38 L 125.49 152.24 C 125.06 153.12 125.42 154.18 126.30 154.61 C 127.18 155.05 128.24 154.68 128.68 153.80 L 129.10 152.94 C 129.53 152.06 129.17 151.00 128.29 150.57 C 127.41 150.13 126.35 150.50 125.91 151.38 Z M 125.48 152.26 L 125.07 153.13 C 124.65 154.02 125.03 155.08 125.91 155.50 C 126.80 155.92 127.86 155.54 128.28 154.65 L 128.69 153.78 C 129.11 152.89 128.73 151.83 127.84 151.41 C 126.96 150.99 125.90 151.37 125.48 152.26 Z M 125.05 153.17 L 124.65 154.06 C 124.26 154.96 124.67 156.01 125.56 156.41 C 126.46 156.80 127.51 156.39 127.91 155.50 L 128.30 154.61 C 128.70 153.71 128.29 152.66 127.39 152.26 C 126.49 151.87 125.44 152.28 125.05 153.17 Z M 124.63 154.13 L 124.26 155.06 C 123.90 155.98 124.35 157.01 125.26 157.37 C 126.18 157.73 127.21 157.28 127.57 156.37 L 127.94 155.43 C 128.30 154.52 127.85 153.48 126.93 153.12 C 126.02 152.76 124.99 153.21 124.63 154.13 Z M 124.22 155.15 L 123.90 156.13 C 123.59 157.06 124.10 158.07 125.03 158.38 C 125.96 158.69 126.97 158.18 127.28 157.25 L 127.60 156.27 C 127.91 155.34 127.41 154.33 126.47 154.03 C 125.54 153.72 124.53 154.22 124.22 155.15 Z M 123.86 156.25 L 123.60 157.28 C 123.36 158.23 123.94 159.20 124.89 159.44 C 125.84 159.68 126.81 159.11 127.05 158.15 L 127.31 157.13 C 127.56 156.17 126.98 155.21 126.03 154.97 C 125.07 154.72 124.11 155.30 123.86 156.25 Z M 123.57 157.45 L 123.41 158.49 C 123.26 159.47 123.93 160.37 124.90 160.52 C 125.87 160.67 126.78 160.00 126.93 159.03 L 127.09 157.98 C 127.24 157.01 126.57 156.11 125.60 155.96 C 124.63 155.81 123.72 156.47 123.57 157.45 Z M 123.39 158.74 L 123.37 159.74 C 123.36 160.72 124.14 161.53 125.13 161.54 C 126.11 161.56 126.92 160.77 126.93 159.79 L 126.95 158.79 C 126.96 157.81 126.18 157.00 125.19 156.98 C 124.21 156.97 123.40 157.75 123.39 158.74 Z M 123.41 160.10 L 123.58 161.00 C 123.76 161.97 124.69 162.60 125.66 162.42 C 126.62 162.23 127.26 161.30 127.07 160.34 L 126.90 159.43 C 126.72 158.47 125.79 157.83 124.82 158.02 C 123.86 158.20 123.22 159.13 123.41 160.10 Z M 123.76 161.51 L 124.21 162.35 C 124.67 163.21 125.75 163.54 126.62 163.07 C 127.48 162.61 127.81 161.53 127.34 160.66 L 126.89 159.83 C 126.43 158.96 125.35 158.64 124.48 159.10 C 123.62 159.57 123.29 160.64 123.76 161.51 Z M 124.53 162.78 L 125.24 163.47 C 125.94 164.15 127.07 164.14 127.75 163.43 C 128.44 162.73 128.42 161.60 127.72 160.91 L 127.01 160.23 C 126.31 159.55 125.18 159.56 124.50 160.27 C 123.81 160.97 123.83 162.10 124.53 162.78 Z M 125.53 163.70 L 126.39 164.23 C 127.22 164.76 128.32 164.51 128.84 163.68 C 129.36 162.84 129.11 161.74 128.28 161.22 L 127.42 160.68 C 126.59 160.16 125.49 160.41 124.97 161.24 C 124.45 162.08 124.70 163.17 125.53 163.70 Z M 126.58 164.34 L 127.50 164.77 C 128.39 165.19 129.45 164.81 129.87 163.92 C 130.29 163.03 129.91 161.97 129.02 161.55 L 128.09 161.12 C 127.20 160.70 126.14 161.08 125.72 161.97 C 125.31 162.86 125.69 163.92 126.58 164.34 Z M 127.60 164.81 L 128.54 165.19 C 129.45 165.55 130.48 165.11 130.85 164.20 C 131.21 163.30 130.77 162.26 129.86 161.90 L 128.92 161.52 C 128.01 161.15 126.98 161.59 126.61 162.50 C 126.25 163.41 126.69 164.44 127.60 164.81 Z M 128.53 165.18 L 129.45 165.55 C 130.35 165.92 131.39 165.49 131.75 164.58 C 132.12 163.68 131.69 162.65 130.78 162.28 L 129.87 161.90 C 128.96 161.54 127.93 161.97 127.56 162.87 C 127.19 163.78 127.63 164.81 128.53 165.18 Z M 129.34 165.50 L 130.22 165.93 C 131.10 166.36 132.15 166.00 132.58 165.13 C 133.01 164.26 132.65 163.20 131.78 162.77 L 130.90 162.33 C 130.02 161.90 128.96 162.26 128.53 163.14 C 128.10 164.01 128.46 165.07 129.34 165.50 Z M 130.03 165.82 L 130.87 166.37 C 131.68 166.91 132.77 166.69 133.31 165.88 C 133.84 165.07 133.62 163.98 132.81 163.45 L 131.97 162.89 C 131.16 162.35 130.07 162.57 129.54 163.38 C 129.00 164.19 129.22 165.28 130.03 165.82 Z M 130.66 166.19 L 131.39 166.87 C 132.10 167.52 133.20 167.48 133.86 166.77 C 134.51 166.06 134.47 164.95 133.76 164.30 L 133.03 163.63 C 132.32 162.97 131.22 163.02 130.56 163.72 C 129.91 164.43 129.95 165.54 130.66 166.19 Z M 131.17 166.62 L 131.74 167.39 C 132.32 168.16 133.41 168.32 134.18 167.75 C 134.95 167.18 135.11 166.09 134.54 165.32 L 133.97 164.55 C 133.40 163.77 132.31 163.61 131.54 164.18 C 130.76 164.75 130.60 165.84 131.17 166.62 Z M 131.58 167.10 L 131.99 167.95 C 132.40 168.82 133.43 169.18 134.29 168.77 C 135.16 168.36 135.52 167.33 135.11 166.47 L 134.71 165.61 C 134.30 164.75 133.26 164.38 132.40 164.79 C 131.54 165.20 131.17 166.23 131.58 167.10 Z M 131.89 167.68 L 132.17 168.65 C 132.43 169.57 133.38 170.10 134.30 169.84 C 135.21 169.58 135.74 168.62 135.48 167.71 L 135.21 166.74 C 134.95 165.82 133.99 165.29 133.08 165.55 C 132.16 165.81 131.63 166.77 131.89 167.68 Z M 132.13 168.43 L 132.28 169.47 C 132.42 170.41 133.29 171.06 134.23 170.92 C 135.17 170.78 135.81 169.91 135.68 168.97 L 135.52 167.93 C 135.38 166.99 134.51 166.34 133.58 166.48 C 132.64 166.62 131.99 167.49 132.13 168.43 Z M 132.27 169.31 L 132.32 170.29 C 132.36 171.24 133.17 171.96 134.11 171.92 C 135.05 171.87 135.78 171.07 135.73 170.13 L 135.69 169.14 C 135.64 168.20 134.84 167.47 133.90 167.52 C 132.95 167.56 132.23 168.36 132.27 169.31 Z M 132.32 170.14 L 132.28 171.15 C 132.24 172.10 132.97 172.89 133.91 172.93 C 134.85 172.97 135.65 172.24 135.69 171.30 L 135.73 170.28 C 135.77 169.34 135.04 168.55 134.10 168.51 C 133.16 168.47 132.36 169.20 132.32 170.14 Z M 132.30 170.98 L 132.15 171.98 C 132.02 172.91 132.66 173.77 133.59 173.91 C 134.52 174.05 135.38 173.40 135.52 172.47 L 135.67 171.47 C 135.80 170.54 135.16 169.68 134.23 169.54 C 133.30 169.41 132.44 170.05 132.30 170.98 Z M 132.20 171.77 L 131.93 172.73 C 131.68 173.63 132.20 174.57 133.11 174.82 C 134.01 175.08 134.95 174.55 135.20 173.65 L 135.47 172.69 C 135.72 171.78 135.20 170.85 134.30 170.59 C 133.39 170.34 132.45 170.86 132.20 171.77 Z M 132.01 172.51 L 131.62 173.41 C 131.24 174.27 131.63 175.27 132.49 175.64 C 133.35 176.02 134.35 175.63 134.72 174.77 L 135.12 173.87 C 135.50 173.01 135.11 172.01 134.25 171.63 C 133.39 171.26 132.39 171.65 132.01 172.51 Z M 131.70 173.24 L 131.21 174.09 C 130.74 174.90 131.01 175.94 131.82 176.41 C 132.63 176.88 133.67 176.61 134.14 175.80 L 134.63 174.94 C 135.10 174.13 134.83 173.10 134.02 172.63 C 133.21 172.16 132.18 172.43 131.70 173.24 Z M 131.28 173.99 L 130.70 174.82 C 130.17 175.59 130.37 176.64 131.14 177.17 C 131.91 177.70 132.96 177.51 133.49 176.74 L 134.07 175.91 C 134.60 175.14 134.40 174.08 133.63 173.55 C 132.86 173.02 131.81 173.22 131.28 173.99 Z M 130.75 174.76 L 130.15 175.56 C 129.59 176.30 129.74 177.36 130.48 177.92 C 131.23 178.48 132.29 178.34 132.85 177.59 L 133.45 176.80 C 134.01 176.05 133.86 174.99 133.11 174.43 C 132.37 173.87 131.31 174.02 130.75 174.76 Z M 130.19 175.51 L 129.56 176.30 C 128.97 177.02 129.08 178.08 129.80 178.66 C 130.52 179.25 131.58 179.14 132.17 178.42 L 132.80 177.64 C 133.39 176.91 133.28 175.86 132.56 175.27 C 131.84 174.68 130.78 174.79 130.19 175.51 Z M 129.61 176.25 L 128.94 177.00 C 128.33 177.69 128.39 178.75 129.08 179.36 C 129.78 179.98 130.84 179.91 131.45 179.22 L 132.12 178.47 C 132.73 177.77 132.67 176.72 131.97 176.10 C 131.28 175.49 130.22 175.55 129.61 176.25 Z M 129.00 176.94 L 128.31 177.65 C 127.66 178.31 127.67 179.37 128.33 180.01 C 128.99 180.66 130.04 180.65 130.69 179.99 L 131.39 179.28 C 132.03 178.62 132.02 177.57 131.36 176.92 C 130.71 176.28 129.65 176.29 129.00 176.94 Z M 128.38 177.59 L 127.62 178.27 C 126.94 178.89 126.88 179.94 127.50 180.62 C 128.12 181.31 129.17 181.36 129.85 180.74 L 130.61 180.06 C 131.29 179.44 131.35 178.39 130.73 177.71 C 130.12 177.02 129.06 176.97 128.38 177.59 Z M 127.70 178.21 L 126.92 178.83 C 126.20 179.40 126.08 180.45 126.65 181.17 C 127.23 181.89 128.27 182.01 128.99 181.43 L 129.77 180.81 C 130.49 180.24 130.61 179.19 130.04 178.47 C 129.47 177.75 128.42 177.63 127.70 178.21 Z M 126.99 178.77 L 126.19 179.34 C 125.44 179.87 125.26 180.91 125.79 181.66 C 126.32 182.41 127.36 182.59 128.11 182.06 L 128.92 181.49 C 129.67 180.96 129.85 179.92 129.31 179.17 C 128.78 178.42 127.75 178.24 126.99 178.77 Z M 126.26 179.29 L 125.42 179.82 C 124.65 180.31 124.41 181.34 124.91 182.12 C 125.40 182.90 126.42 183.13 127.20 182.64 L 128.04 182.11 C 128.82 181.61 129.05 180.59 128.56 179.81 C 128.07 179.03 127.04 178.80 126.26 179.29 Z M 125.49 179.78 L 124.62 180.27 C 123.82 180.73 123.54 181.74 123.99 182.54 C 124.44 183.34 125.46 183.63 126.26 183.17 L 127.13 182.68 C 127.93 182.23 128.21 181.21 127.76 180.41 C 127.31 179.61 126.29 179.33 125.49 179.78 Z M 124.69 180.23 L 123.80 180.68 C 122.98 181.10 122.65 182.10 123.06 182.92 C 123.47 183.74 124.48 184.07 125.30 183.66 L 126.19 183.21 C 127.01 182.80 127.34 181.80 126.93 180.97 C 126.51 180.15 125.51 179.82 124.69 180.23 Z M 123.87 180.65 L 122.97 181.05 C 122.13 181.43 121.75 182.41 122.12 183.25 C 122.50 184.09 123.48 184.47 124.33 184.10 L 125.23 183.69 C 126.07 183.32 126.44 182.33 126.07 181.49 C 125.69 180.65 124.71 180.27 123.87 180.65 Z M 123.04 181.02 L 122.15 181.36 C 121.30 181.69 120.87 182.66 121.20 183.52 C 121.53 184.38 122.50 184.81 123.36 184.47 L 124.25 184.13 C 125.11 183.80 125.54 182.83 125.20 181.97 C 124.87 181.11 123.90 180.68 123.04 181.02 Z M 122.26 181.32 L 121.32 181.61 C 120.44 181.89 119.95 182.83 120.23 183.71 C 120.50 184.59 121.44 185.08 122.32 184.81 L 123.26 184.51 C 124.14 184.24 124.63 183.30 124.35 182.42 C 124.08 181.54 123.14 181.05 122.26 181.32 Z M 121.45 181.58 L 120.44 181.81 C 119.54 182.02 118.98 182.91 119.18 183.82 C 119.39 184.72 120.29 185.28 121.19 185.07 L 122.20 184.84 C 123.10 184.63 123.66 183.74 123.45 182.84 C 123.25 181.93 122.35 181.37 121.45 181.58 Z M 120.57 181.78 L 119.54 181.93 C 118.63 182.07 117.99 182.92 118.13 183.84 C 118.26 184.76 119.12 185.39 120.04 185.25 L 121.06 185.10 C 121.98 184.97 122.61 184.11 122.48 183.19 C 122.34 182.28 121.49 181.64 120.57 181.78 Z M 119.67 181.91 L 118.64 181.98 C 117.71 182.05 117.01 182.86 117.08 183.79 C 117.15 184.72 117.96 185.42 118.88 185.35 L 119.91 185.28 C 120.84 185.21 121.54 184.40 121.47 183.47 C 121.40 182.54 120.60 181.84 119.67 181.91 Z M 118.78 181.97 L 117.75 181.96 C 116.81 181.95 116.05 182.70 116.04 183.64 C 116.03 184.58 116.78 185.35 117.72 185.36 L 118.75 185.37 C 119.68 185.38 120.45 184.62 120.46 183.68 C 120.47 182.75 119.72 181.98 118.78 181.97 Z M 117.93 181.96 L 116.96 181.85 C 116.02 181.74 115.17 182.41 115.07 183.35 C 114.96 184.29 115.63 185.13 116.57 185.24 L 117.54 185.36 C 118.47 185.46 119.32 184.79 119.43 183.86 C 119.54 182.92 118.87 182.07 117.93 181.96 Z M 117.25 181.89 L 116.18 181.57 C 115.26 181.30 114.30 181.82 114.03 182.73 C 113.76 183.65 114.28 184.61 115.20 184.89 L 116.27 185.20 C 117.19 185.48 118.15 184.95 118.42 184.04 C 118.69 183.12 118.17 182.16 117.25 181.89 Z M 116.65 181.74 L 115.75 181.15 C 114.93 180.62 113.83 180.86 113.30 181.68 C 112.76 182.50 113.00 183.60 113.82 184.13 L 114.72 184.71 C 115.54 185.25 116.64 185.01 117.18 184.19 C 117.71 183.37 117.47 182.27 116.65 181.74 Z M 116.43 181.84 L 116.10 181.16 C 115.66 180.26 114.57 179.88 113.66 180.32 C 112.75 180.76 112.37 181.85 112.81 182.76 L 113.14 183.44 C 113.58 184.35 114.67 184.73 115.58 184.29 C 116.49 183.85 116.87 182.75 116.43 181.84 Z M 116.10 182.85 L 116.45 182.21 C 116.94 181.30 116.59 180.17 115.68 179.68 C 114.77 179.19 113.64 179.53 113.15 180.44 L 112.81 181.08 C 112.32 181.99 112.66 183.12 113.57 183.61 C 114.48 184.10 115.62 183.76 116.10 182.85 Z M 115.85 182.91 L 116.70 182.35 C 117.58 181.77 117.82 180.58 117.23 179.71 C 116.65 178.83 115.46 178.59 114.59 179.18 L 113.74 179.74 C 112.86 180.32 112.63 181.51 113.21 182.38 C 113.79 183.26 114.98 183.50 115.85 182.91 Z M 116.40 182.55 L 117.47 182.09 C 118.46 181.67 118.92 180.53 118.50 179.55 C 118.08 178.56 116.94 178.10 115.95 178.52 L 114.88 178.98 C 113.90 179.40 113.44 180.54 113.86 181.52 C 114.28 182.51 115.42 182.97 116.40 182.55 Z M 117.32 182.17 L 118.20 181.88 C 119.23 181.55 119.79 180.45 119.46 179.42 C 119.13 178.39 118.02 177.83 117.00 178.16 L 116.11 178.45 C 115.08 178.78 114.52 179.88 114.85 180.91 C 115.18 181.94 116.29 182.50 117.32 182.17 Z M 118.09 181.92 L 119.03 181.68 C 120.08 181.41 120.72 180.34 120.44 179.29 C 120.17 178.24 119.10 177.60 118.05 177.88 L 117.11 178.12 C 116.06 178.39 115.43 179.46 115.70 180.51 C 115.97 181.56 117.04 182.19 118.09 181.92 Z M 118.95 181.71 L 119.97 181.49 C 121.03 181.27 121.72 180.22 121.49 179.16 C 121.27 178.09 120.22 177.41 119.16 177.63 L 118.14 177.85 C 117.07 178.07 116.39 179.12 116.61 180.18 C 116.84 181.25 117.88 181.93 118.95 181.71 Z M 119.91 181.51 L 120.86 181.34 C 121.94 181.15 122.65 180.12 122.46 179.05 C 122.27 177.97 121.24 177.25 120.17 177.45 L 119.22 177.62 C 118.14 177.81 117.43 178.84 117.62 179.91 C 117.81 180.98 118.84 181.70 119.91 181.51 Z M 120.83 181.35 L 121.64 181.22 C 122.72 181.05 123.45 180.03 123.28 178.95 C 123.11 177.87 122.10 177.14 121.02 177.31 L 120.21 177.44 C 119.13 177.61 118.39 178.62 118.56 179.70 C 118.73 180.78 119.75 181.52 120.83 181.35 Z M 121.60 181.23 L 122.49 181.10 C 123.58 180.95 124.33 179.95 124.18 178.86 C 124.02 177.78 123.02 177.02 121.94 177.18 L 121.05 177.30 C 119.97 177.45 119.21 178.46 119.36 179.54 C 119.52 180.63 120.52 181.38 121.60 181.23 Z M 122.46 181.11 L 123.44 180.99 C 124.53 180.85 125.30 179.86 125.17 178.77 C 125.03 177.68 124.04 176.91 122.95 177.05 L 121.97 177.17 C 120.88 177.31 120.11 178.30 120.24 179.38 C 120.38 180.47 121.37 181.24 122.46 181.11 Z M 123.42 180.99 L 124.52 180.87 C 125.61 180.75 126.40 179.77 126.28 178.68 C 126.16 177.59 125.18 176.80 124.08 176.92 L 122.98 177.04 C 121.89 177.16 121.10 178.14 121.22 179.23 C 121.34 180.32 122.32 181.11 123.42 180.99 Z M 124.49 180.88 L 125.73 180.76 C 126.83 180.65 127.63 179.68 127.52 178.58 C 127.42 177.49 126.44 176.69 125.35 176.80 L 124.11 176.92 C 123.02 177.02 122.22 177.99 122.32 179.09 C 122.43 180.18 123.40 180.98 124.49 180.88 Z M 125.72 180.76 L 126.71 180.67 C 127.80 180.58 128.61 179.61 128.52 178.52 C 128.42 177.42 127.45 176.61 126.36 176.71 L 125.37 176.79 C 124.27 176.89 123.46 177.85 123.56 178.95 C 123.65 180.04 124.62 180.85 125.72 180.76 Z M 126.69 180.67 L 127.70 180.59 C 128.80 180.50 129.61 179.54 129.53 178.45 C 129.44 177.35 128.47 176.53 127.38 176.62 L 126.37 176.70 C 125.27 176.79 124.46 177.75 124.55 178.85 C 124.64 179.95 125.60 180.76 126.69 180.67 Z M 127.69 180.59 L 128.74 180.51 C 129.83 180.43 130.65 179.47 130.57 178.37 C 130.49 177.28 129.53 176.46 128.43 176.54 L 127.39 176.62 C 126.29 176.70 125.47 177.66 125.55 178.76 C 125.64 179.86 126.60 180.68 127.69 180.59 Z M 128.73 180.51 L 129.79 180.44 C 130.88 180.36 131.71 179.40 131.63 178.30 C 131.55 177.21 130.59 176.38 129.50 176.46 L 128.44 176.54 C 127.34 176.62 126.52 177.57 126.60 178.67 C 126.68 179.77 127.63 180.59 128.73 180.51 Z M 129.78 180.44 L 130.83 180.37 C 131.93 180.29 132.75 179.34 132.68 178.24 C 132.60 177.14 131.65 176.31 130.55 176.39 L 129.50 176.46 C 128.40 176.54 127.58 177.49 127.65 178.59 C 127.73 179.69 128.68 180.51 129.78 180.44 Z M 130.82 180.37 L 131.84 180.30 C 132.94 180.22 133.77 179.27 133.70 178.18 C 133.62 177.08 132.67 176.25 131.57 176.32 L 130.56 176.39 C 129.46 176.46 128.63 177.41 128.70 178.51 C 128.77 179.61 129.72 180.44 130.82 180.37 Z M 131.83 180.30 L 132.80 180.24 C 133.90 180.17 134.73 179.22 134.66 178.12 C 134.59 177.02 133.64 176.19 132.55 176.26 L 131.58 176.32 C 130.48 176.39 129.65 177.34 129.72 178.44 C 129.79 179.54 130.73 180.37 131.83 180.30 Z M 132.79 180.24 L 133.69 180.18 C 134.78 180.12 135.62 179.17 135.55 178.07 C 135.49 176.97 134.54 176.13 133.44 176.20 L 132.55 176.26 C 131.45 176.32 130.61 177.27 130.68 178.37 C 130.75 179.47 131.69 180.31 132.79 180.24 Z M 133.68 180.18 L 134.95 180.11 C 136.05 180.05 136.89 179.11 136.83 178.01 C 136.77 176.91 135.83 176.07 134.73 176.13 L 133.45 176.20 C 132.35 176.26 131.51 177.21 131.57 178.31 C 131.64 179.41 132.58 180.25 133.68 180.18 Z M 134.94 180.11 L 136.03 180.06 C 137.13 180.00 137.98 179.07 137.93 177.97 C 137.87 176.87 136.93 176.02 135.84 176.07 L 134.74 176.13 C 133.64 176.18 132.80 177.12 132.85 178.22 C 132.90 179.32 133.84 180.17 134.94 180.11 Z M 136.02 180.05 L 136.95 180.02 C 138.05 179.97 138.90 179.05 138.86 177.95 C 138.81 176.85 137.88 175.99 136.79 176.04 L 135.85 176.08 C 134.75 176.12 133.90 177.05 133.95 178.15 C 133.99 179.24 134.92 180.10 136.02 180.05 Z M 136.93 180.02 L 137.76 179.99 C 138.86 179.96 139.72 179.04 139.69 177.94 C 139.65 176.84 138.74 175.98 137.64 176.01 L 136.81 176.04 C 135.71 176.07 134.84 176.99 134.88 178.09 C 134.91 179.19 135.83 180.05 136.93 180.02 Z M 137.74 179.99 L 138.58 179.97 C 139.68 179.95 140.55 179.04 140.53 177.95 C 140.51 176.85 139.60 175.98 138.50 176.00 L 137.66 176.01 C 136.56 176.04 135.69 176.94 135.71 178.04 C 135.73 179.14 136.64 180.01 137.74 179.99 Z M 138.56 179.97 L 139.55 179.96 C 140.65 179.95 141.53 179.05 141.52 177.95 C 141.50 176.86 140.61 175.98 139.51 175.99 L 138.52 176.00 C 137.42 176.01 136.54 176.91 136.56 178.01 C 136.57 179.11 137.47 179.98 138.56 179.97 Z M 139.54 179.96 L 140.54 179.95 C 141.64 179.95 142.52 179.05 142.52 177.96 C 142.51 176.86 141.62 175.98 140.52 175.99 L 139.52 175.99 C 138.43 176.00 137.54 176.89 137.55 177.98 C 137.55 179.08 138.45 179.96 139.54 179.96 Z M 140.54 179.95 L 141.54 179.95 C 142.64 179.95 143.52 179.06 143.52 177.97 C 143.52 176.87 142.63 175.99 141.54 175.99 L 140.53 175.99 C 139.44 175.99 138.55 176.88 138.55 177.97 C 138.55 179.07 139.44 179.95 140.54 179.95 Z M 141.54 179.95 L 142.54 179.95 C 143.63 179.95 144.52 179.06 144.52 177.97 C 144.52 176.88 143.63 175.99 142.54 175.99 L 141.54 175.99 C 140.45 175.99 139.56 176.88 139.56 177.97 C 139.56 179.06 140.45 179.95 141.54 179.95 Z M 142.54 179.94 L 143.53 179.94 C 144.62 179.94 145.51 179.06 145.51 177.97 C 145.51 176.88 144.62 175.99 143.53 175.99 L 142.54 175.99 C 141.45 175.99 140.57 176.88 140.57 177.97 C 140.57 179.06 141.45 179.94 142.54 179.94 Z M 143.53 179.94 L 144.53 179.94 C 145.62 179.94 146.50 179.06 146.50 177.97 C 146.50 176.88 145.62 176.00 144.53 176.00 L 143.53 176.00 C 142.44 176.00 141.56 176.88 141.56 177.97 C 141.56 179.06 142.44 179.94 143.53 179.94 Z M 144.53 179.94 L 145.54 179.94 C 146.63 179.94 147.51 179.06 147.51 177.97 C 147.51 176.88 146.63 176.00 145.54 176.00 L 144.53 176.00 C 143.44 176.00 142.56 176.88 142.56 177.97 C 142.56 179.06 143.44 179.94 144.53 179.94 Z M 145.54 179.93 L 146.53 179.93 C 147.62 179.93 148.50 179.05 148.50 177.97 C 148.50 176.88 147.62 176.00 146.53 176.00 L 145.54 176.00 C 144.45 176.00 143.57 176.88 143.57 177.97 C 143.57 179.05 144.45 179.93 145.54 179.93 Z M 146.53 179.93 L 147.52 179.93 C 148.60 179.93 149.48 179.05 149.48 177.97 C 149.48 176.88 148.60 176.00 147.52 176.00 L 146.53 176.00 C 145.45 176.00 144.57 176.88 144.57 177.97 C 144.57 179.05 145.45 179.93 146.53 179.93 Z M 147.52 179.93 L 148.52 179.93 C 149.60 179.93 150.48 179.05 150.48 177.97 C 150.48 176.89 149.60 176.01 148.52 176.01 L 147.52 176.01 C 146.43 176.01 145.56 176.89 145.56 177.97 C 145.56 179.05 146.43 179.93 147.52 179.93 Z M 148.52 179.92 L 149.53 179.92 C 150.61 179.92 151.49 179.05 151.49 177.97 C 151.49 176.89 150.61 176.01 149.53 176.01 L 148.52 176.01 C 147.44 176.01 146.56 176.89 146.56 177.97 C 146.56 179.05 147.44 179.92 148.52 179.92 Z M 149.53 179.92 L 150.53 179.92 C 151.61 179.92 152.48 179.05 152.48 177.97 C 152.48 176.89 151.61 176.01 150.53 176.01 L 149.53 176.01 C 148.45 176.01 147.58 176.89 147.58 177.97 C 147.58 179.05 148.45 179.92 149.53 179.92 Z M 150.53 179.92 L 151.51 179.92 C 152.58 179.92 153.45 179.04 153.45 177.97 C 153.45 176.89 152.58 176.02 151.51 176.02 L 150.53 176.02 C 149.45 176.02 148.58 176.89 148.58 177.97 C 148.58 179.04 149.45 179.92 150.53 179.92 Z M 151.51 179.91 L 152.50 179.91 C 153.57 179.91 154.44 179.04 154.44 177.97 C 154.44 176.89 153.57 176.02 152.50 176.02 L 151.51 176.02 C 150.43 176.02 149.56 176.89 149.56 177.97 C 149.56 179.04 150.43 179.91 151.51 179.91 Z M 152.50 179.91 L 153.51 179.91 C 154.58 179.91 155.45 179.04 155.45 177.97 C 155.45 176.90 154.58 176.03 153.51 176.03 L 152.50 176.03 C 151.43 176.03 150.56 176.90 150.56 177.97 C 150.56 179.04 151.43 179.91 152.50 179.91 Z M 153.51 179.90 L 154.55 179.90 C 155.62 179.90 156.48 179.04 156.48 177.97 C 156.48 176.90 155.62 176.03 154.55 176.03 L 153.51 176.03 C 152.44 176.03 151.58 176.90 151.58 177.97 C 151.58 179.04 152.44 179.90 153.51 179.90 Z M 154.55 179.90 L 155.54 179.90 C 156.61 179.90 157.47 179.03 157.47 177.97 C 157.47 176.90 156.61 176.04 155.54 176.04 L 154.55 176.04 C 153.48 176.04 152.62 176.90 152.62 177.97 C 152.62 179.03 153.48 179.90 154.55 179.90 Z M 155.54 179.89 L 156.55 179.89 C 157.61 179.90 158.47 179.04 158.48 177.97 C 158.48 176.91 157.62 176.05 156.56 176.05 L 155.55 176.04 C 154.48 176.04 153.62 176.90 153.62 177.97 C 153.62 179.03 154.48 179.89 155.54 179.89 Z M 156.54 179.89 L 157.55 179.89 C 158.61 179.90 159.48 179.04 159.48 177.98 C 159.48 176.92 158.63 176.06 157.57 176.06 L 156.56 176.05 C 155.50 176.05 154.64 176.90 154.63 177.96 C 154.63 179.02 155.48 179.88 156.54 179.89 Z M 157.55 179.89 L 158.54 179.89 C 159.60 179.90 160.46 179.05 160.47 178.00 C 160.48 176.94 159.63 176.08 158.58 176.07 L 157.58 176.06 C 156.52 176.05 155.66 176.90 155.65 177.96 C 155.64 179.01 156.49 179.88 157.55 179.89 Z M 158.53 179.89 L 159.54 179.90 C 160.59 179.92 161.45 179.07 161.47 178.02 C 161.48 176.97 160.64 176.10 159.59 176.09 L 158.59 176.08 C 157.53 176.06 156.67 176.90 156.65 177.96 C 156.64 179.01 157.48 179.87 158.53 179.89 Z M 159.52 179.89 L 160.55 179.92 C 161.60 179.94 162.47 179.10 162.49 178.06 C 162.51 177.01 161.68 176.14 160.63 176.12 L 159.60 176.10 C 158.55 176.07 157.69 176.91 157.66 177.96 C 157.64 179.01 158.48 179.87 159.52 179.89 Z M 160.54 179.91 L 161.54 179.94 C 162.59 179.97 163.46 179.14 163.49 178.10 C 163.52 177.05 162.69 176.18 161.65 176.15 L 160.65 176.12 C 159.60 176.09 158.73 176.92 158.70 177.96 C 158.67 179.01 159.49 179.88 160.54 179.91 Z M 161.53 179.93 L 162.51 179.97 C 163.55 180.00 164.43 179.19 164.46 178.15 C 164.50 177.11 163.69 176.23 162.64 176.19 L 161.66 176.16 C 160.62 176.12 159.75 176.94 159.71 177.98 C 159.67 179.02 160.49 179.89 161.53 179.93 Z M 162.49 179.96 L 163.46 180.00 C 164.50 180.05 165.38 179.24 165.42 178.20 C 165.47 177.17 164.67 176.29 163.63 176.24 L 162.66 176.20 C 161.62 176.16 160.74 176.96 160.70 178.00 C 160.65 179.04 161.46 179.91 162.49 179.96 Z M 163.45 179.99 L 164.45 180.05 C 165.49 180.10 166.37 179.30 166.42 178.27 C 166.48 177.24 165.68 176.35 164.65 176.30 L 163.64 176.25 C 162.61 176.20 161.73 176.99 161.67 178.03 C 161.62 179.06 162.41 179.94 163.45 179.99 Z M 164.44 180.04 L 165.44 180.10 C 166.47 180.16 167.35 179.37 167.41 178.34 C 167.48 177.31 166.69 176.43 165.66 176.37 L 164.66 176.31 C 163.63 176.25 162.75 177.03 162.68 178.06 C 162.62 179.09 163.41 179.98 164.44 180.04 Z M 165.42 180.09 L 166.42 180.16 C 167.44 180.23 168.33 179.45 168.40 178.43 C 168.47 177.40 167.70 176.51 166.67 176.44 L 165.67 176.38 C 164.65 176.31 163.76 177.08 163.69 178.11 C 163.62 179.13 164.40 180.02 165.42 180.09 Z M 166.40 180.15 L 167.40 180.23 C 168.42 180.30 169.31 179.54 169.39 178.52 C 169.46 177.49 168.70 176.60 167.68 176.53 L 166.68 176.45 C 165.66 176.37 164.77 177.14 164.69 178.16 C 164.62 179.18 165.38 180.07 166.40 180.15 Z M 167.38 180.22 L 168.39 180.30 C 169.41 180.39 170.30 179.63 170.38 178.61 C 170.47 177.60 169.71 176.70 168.69 176.62 L 167.69 176.53 C 166.67 176.45 165.78 177.21 165.70 178.22 C 165.61 179.24 166.37 180.13 167.38 180.22 Z M 168.38 180.29 L 169.38 180.38 C 170.40 180.47 171.29 179.72 171.38 178.71 C 171.47 177.70 170.72 176.80 169.71 176.71 L 168.70 176.63 C 167.69 176.54 166.80 177.29 166.71 178.30 C 166.62 179.31 167.37 180.20 168.38 180.29 Z M 169.38 180.37 L 170.38 180.46 C 171.39 180.55 172.28 179.81 172.37 178.80 C 172.46 177.79 171.71 176.90 170.70 176.81 L 169.71 176.72 C 168.70 176.63 167.81 177.38 167.72 178.38 C 167.63 179.39 168.37 180.28 169.38 180.37 Z M 170.38 180.46 L 171.37 180.54 C 172.37 180.63 173.26 179.89 173.35 178.88 C 173.43 177.88 172.69 176.99 171.68 176.90 L 170.70 176.82 C 169.69 176.73 168.81 177.47 168.72 178.48 C 168.63 179.48 169.38 180.37 170.38 180.46 Z M 171.38 180.54 L 172.39 180.62 C 173.39 180.70 174.27 179.95 174.35 178.95 C 174.43 177.95 173.69 177.07 172.69 176.99 L 171.67 176.91 C 170.67 176.83 169.79 177.57 169.71 178.57 C 169.63 179.58 170.38 180.45 171.38 180.54 Z M 172.40 180.61 L 173.41 180.69 C 174.40 180.77 175.28 180.02 175.35 179.02 C 175.43 178.03 174.69 177.16 173.69 177.08 L 172.68 177.00 C 171.68 176.92 170.81 177.67 170.73 178.66 C 170.66 179.66 171.40 180.53 172.40 180.61 Z M 173.41 180.68 L 174.40 180.76 C 175.39 180.84 176.26 180.10 176.34 179.10 C 176.42 178.11 175.67 177.24 174.68 177.16 L 173.69 177.09 C 172.70 177.01 171.83 177.75 171.75 178.74 C 171.67 179.74 172.41 180.60 173.41 180.68 Z M 174.39 180.75 L 175.36 180.83 C 176.35 180.92 177.22 180.18 177.30 179.19 C 177.38 178.21 176.65 177.34 175.66 177.25 L 174.69 177.17 C 173.70 177.09 172.83 177.82 172.75 178.81 C 172.67 179.80 173.40 180.67 174.39 180.75 Z M 175.35 180.82 L 176.26 180.91 C 177.24 181.00 178.11 180.28 178.20 179.29 C 178.30 178.31 177.57 177.44 176.59 177.35 L 175.68 177.26 C 174.69 177.17 173.82 177.89 173.73 178.88 C 173.64 179.86 174.36 180.73 175.35 180.82 Z M 176.25 180.90 L 177.18 180.99 C 178.16 181.09 179.03 180.37 179.13 179.40 C 179.22 178.42 178.51 177.55 177.53 177.45 L 176.60 177.36 C 175.62 177.26 174.75 177.97 174.65 178.95 C 174.56 179.93 175.27 180.80 176.25 180.90 Z M 177.18 180.98 L 178.17 181.08 C 179.15 181.18 180.02 180.47 180.11 179.50 C 180.21 178.53 179.50 177.66 178.53 177.56 L 177.53 177.46 C 176.56 177.36 175.69 178.07 175.59 179.04 C 175.49 180.02 176.20 180.89 177.18 180.98 Z M 178.18 181.08 L 179.28 181.18 C 180.25 181.28 181.12 180.57 181.21 179.60 C 181.31 178.63 180.60 177.77 179.63 177.67 L 178.52 177.57 C 177.55 177.47 176.69 178.18 176.60 179.15 C 176.50 180.12 177.21 180.98 178.18 181.08 Z M 179.29 181.18 L 180.28 181.27 C 181.25 181.36 182.10 180.65 182.19 179.68 C 182.28 178.72 181.57 177.86 180.61 177.77 L 179.62 177.68 C 178.65 177.59 177.80 178.30 177.71 179.27 C 177.62 180.23 178.33 181.09 179.29 181.18 Z M 180.29 181.26 L 181.30 181.35 C 182.26 181.44 183.10 180.73 183.19 179.77 C 183.28 178.81 182.57 177.96 181.61 177.87 L 180.60 177.78 C 179.64 177.70 178.79 178.41 178.71 179.37 C 178.62 180.33 179.33 181.18 180.29 181.26 Z M 181.30 181.34 L 182.34 181.43 C 183.29 181.51 184.14 180.80 184.22 179.85 C 184.30 178.89 183.59 178.05 182.63 177.97 L 181.60 177.88 C 180.64 177.80 179.80 178.51 179.72 179.46 C 179.64 180.42 180.35 181.26 181.30 181.34 Z M 182.35 181.42 L 183.38 181.51 C 184.33 181.58 185.16 180.87 185.24 179.92 C 185.32 178.97 184.61 178.13 183.65 178.06 L 182.62 177.97 C 181.67 177.90 180.84 178.61 180.76 179.56 C 180.68 180.51 181.39 181.35 182.35 181.42 Z M 183.39 181.50 L 184.38 181.57 C 185.32 181.64 186.15 180.93 186.22 179.98 C 186.29 179.04 185.58 178.21 184.63 178.14 L 183.64 178.06 C 182.69 177.99 181.87 178.70 181.80 179.65 C 181.73 180.60 182.44 181.43 183.39 181.50 Z M 184.39 181.57 L 185.45 181.64 C 186.39 181.70 187.21 180.98 187.27 180.04 C 187.34 179.10 186.62 178.28 185.68 178.22 L 184.62 178.15 C 183.67 178.08 182.86 178.80 182.80 179.74 C 182.73 180.69 183.45 181.50 184.39 181.57 Z M 185.49 181.63 L 186.59 181.67 C 187.52 181.71 188.32 180.98 188.36 180.05 C 188.40 179.11 187.67 178.31 186.73 178.27 L 185.64 178.23 C 184.70 178.19 183.90 178.92 183.86 179.85 C 183.82 180.79 184.55 181.59 185.49 181.63 Z M 186.69 181.66 L 187.66 181.64 C 188.59 181.63 189.34 180.86 189.32 179.93 C 189.30 179.00 188.54 178.26 187.61 178.27 L 186.63 178.29 C 185.70 178.30 184.96 179.07 184.97 180.00 C 184.99 180.93 185.76 181.67 186.69 181.66 Z M 187.83 181.62 L 188.72 181.51 C 189.64 181.40 190.29 180.57 190.18 179.66 C 190.08 178.74 189.25 178.08 188.33 178.19 L 187.44 178.30 C 186.52 178.40 185.87 179.24 185.97 180.15 C 186.08 181.07 186.91 181.73 187.83 181.62 Z M 188.95 181.46 L 189.84 181.22 C 190.73 180.99 191.25 180.08 191.02 179.19 C 190.79 178.31 189.88 177.78 188.99 178.01 L 188.10 178.25 C 187.21 178.48 186.69 179.39 186.92 180.28 C 187.15 181.16 188.06 181.69 188.95 181.46 Z M 190.06 181.14 L 190.97 180.76 C 191.81 180.40 192.20 179.43 191.85 178.59 C 191.49 177.75 190.53 177.36 189.68 177.71 L 188.78 178.09 C 187.94 178.45 187.54 179.42 187.89 180.26 C 188.25 181.10 189.22 181.49 190.06 181.14 Z M 191.10 180.68 L 191.99 180.21 C 192.79 179.78 193.09 178.78 192.66 177.98 C 192.23 177.18 191.23 176.88 190.43 177.31 L 189.55 177.78 C 188.75 178.21 188.45 179.21 188.88 180.01 C 189.31 180.81 190.30 181.11 191.10 180.68 Z M 192.05 180.17 L 192.92 179.64 C 193.70 179.18 193.95 178.17 193.49 177.39 C 193.02 176.62 192.02 176.36 191.24 176.83 L 190.37 177.35 C 189.59 177.82 189.34 178.82 189.80 179.60 C 190.27 180.38 191.27 180.63 192.05 180.17 Z"
      fill="black"
      fill-rule="nonzero" /><path d="M 154.86 110.23 L 154.26 109.35 C 153.71 108.53 152.59 108.31 151.77 108.87 C 150.94 109.42 150.72 110.54 151.28 111.37 L 151.87 112.24 C 152.43 113.07 153.54 113.29 154.37 112.73 C 155.19 112.18 155.41 111.06 154.86 110.23 Z M 154.16 109.20 L 153.51 108.43 C 152.87 107.67 151.73 107.57 150.97 108.21 C 150.20 108.85 150.10 109.99 150.74 110.76 L 151.39 111.52 C 152.03 112.29 153.17 112.39 153.93 111.74 C 154.70 111.10 154.80 109.96 154.16 109.20 Z M 153.19 108.12 L 152.45 107.58 C 151.63 107.00 150.50 107.18 149.91 107.99 C 149.32 108.80 149.51 109.94 150.32 110.52 L 151.06 111.06 C 151.88 111.65 153.01 111.47 153.60 110.66 C 154.19 109.85 154.00 108.71 153.19 108.12 Z M 151.84 107.29 L 150.94 107.06 C 149.96 106.81 148.97 107.39 148.72 108.37 C 148.47 109.34 149.05 110.33 150.03 110.59 L 150.93 110.82 C 151.90 111.07 152.89 110.48 153.15 109.51 C 153.40 108.53 152.81 107.54 151.84 107.29 Z M 150.36 107.00 L 149.36 107.06 C 148.36 107.13 147.59 108.00 147.66 109.01 C 147.73 110.01 148.60 110.78 149.60 110.71 L 150.60 110.65 C 151.61 110.58 152.37 109.71 152.30 108.70 C 152.24 107.69 151.37 106.93 150.36 107.00 Z M 148.95 107.13 L 147.94 107.44 C 146.97 107.73 146.42 108.75 146.72 109.72 C 147.01 110.69 148.03 111.24 149.00 110.95 L 150.01 110.64 C 150.98 110.35 151.53 109.33 151.24 108.36 C 150.95 107.39 149.92 106.84 148.95 107.13 Z M 147.67 107.54 L 146.78 107.97 C 145.87 108.41 145.49 109.51 145.93 110.43 C 146.38 111.34 147.48 111.72 148.39 111.28 L 149.28 110.85 C 150.19 110.40 150.57 109.30 150.13 108.39 C 149.69 107.47 148.58 107.09 147.67 107.54 Z M 146.61 108.06 L 145.75 108.59 C 144.89 109.13 144.63 110.27 145.17 111.14 C 145.71 112.00 146.85 112.26 147.71 111.72 L 148.57 111.19 C 149.43 110.65 149.69 109.51 149.15 108.64 C 148.61 107.78 147.47 107.52 146.61 108.06 Z M 145.64 108.67 L 144.82 109.26 C 144.00 109.87 143.82 111.03 144.43 111.85 C 145.03 112.68 146.19 112.85 147.01 112.25 L 147.83 111.65 C 148.65 111.04 148.83 109.88 148.22 109.06 C 147.62 108.24 146.46 108.06 145.64 108.67 Z M 144.73 109.33 L 143.93 109.99 C 143.15 110.64 143.04 111.81 143.69 112.60 C 144.35 113.39 145.52 113.50 146.30 112.85 L 147.10 112.18 C 147.89 111.53 148.00 110.36 147.35 109.57 C 146.69 108.78 145.52 108.67 144.73 109.33 Z M 143.81 110.09 L 143.10 110.80 C 142.37 111.52 142.36 112.70 143.08 113.43 C 143.81 114.16 144.98 114.17 145.71 113.45 L 146.43 112.74 C 147.16 112.02 147.17 110.84 146.44 110.11 C 145.72 109.38 144.54 109.37 143.81 110.09 Z M 142.93 110.99 L 142.34 111.76 C 141.71 112.58 141.87 113.75 142.68 114.37 C 143.50 115.00 144.67 114.84 145.30 114.02 L 145.89 113.26 C 146.51 112.44 146.36 111.27 145.54 110.64 C 144.72 110.02 143.55 110.17 142.93 110.99 Z M 142.15 112.04 L 141.72 112.89 C 141.26 113.80 141.62 114.93 142.54 115.40 C 143.46 115.87 144.58 115.50 145.05 114.58 L 145.48 113.74 C 145.95 112.82 145.59 111.70 144.67 111.23 C 143.75 110.76 142.62 111.12 142.15 112.04 Z M 141.60 113.18 L 141.32 114.11 C 141.01 115.09 141.56 116.14 142.54 116.45 C 143.53 116.75 144.57 116.20 144.88 115.22 L 145.17 114.29 C 145.48 113.31 144.93 112.26 143.94 111.95 C 142.96 111.64 141.91 112.19 141.60 113.18 Z M 141.26 114.33 L 141.08 115.35 C 140.90 116.36 141.57 117.33 142.59 117.52 C 143.60 117.70 144.57 117.02 144.76 116.01 L 144.94 114.99 C 145.12 113.98 144.44 113.01 143.43 112.82 C 142.41 112.64 141.44 113.32 141.26 114.33 Z M 141.06 115.50 L 140.96 116.49 C 140.86 117.52 141.62 118.43 142.64 118.53 C 143.67 118.63 144.58 117.88 144.68 116.85 L 144.78 115.86 C 144.87 114.83 144.12 113.92 143.10 113.82 C 142.07 113.72 141.16 114.47 141.06 115.50 Z M 140.96 116.58 L 140.91 117.55 C 140.86 118.58 141.66 119.46 142.69 119.51 C 143.72 119.55 144.59 118.76 144.64 117.73 L 144.69 116.76 C 144.73 115.73 143.94 114.86 142.91 114.81 C 141.88 114.76 141.01 115.55 140.96 116.58 Z M 140.91 117.61 L 140.89 118.62 C 140.88 119.65 141.69 120.50 142.72 120.52 C 143.75 120.53 144.60 119.72 144.62 118.69 L 144.64 117.68 C 144.66 116.65 143.84 115.80 142.81 115.78 C 141.78 115.76 140.93 116.58 140.91 117.61 Z M 140.90 118.65 L 140.89 119.69 C 140.89 120.72 141.72 121.55 142.75 121.56 C 143.78 121.56 144.61 120.73 144.62 119.70 L 144.62 118.66 C 144.62 117.63 143.79 116.79 142.76 116.79 C 141.74 116.79 140.90 117.62 140.90 118.65 Z M 140.90 119.70 L 140.90 120.66 C 140.90 121.68 141.73 122.52 142.76 122.52 C 143.78 122.52 144.61 121.68 144.61 120.66 L 144.61 119.69 C 144.61 118.67 143.78 117.84 142.75 117.84 C 141.73 117.84 140.89 118.67 140.90 119.70 Z M 140.90 120.67 L 140.90 121.63 C 140.91 122.65 141.74 123.48 142.77 123.47 C 143.79 123.47 144.62 122.63 144.61 121.61 L 144.61 120.65 C 144.60 119.62 143.77 118.80 142.75 118.80 C 141.72 118.81 140.90 119.64 140.90 120.67 Z M 140.91 121.64 L 140.92 122.64 C 140.94 123.66 141.78 124.48 142.80 124.47 C 143.82 124.45 144.64 123.61 144.62 122.59 L 144.61 121.59 C 144.60 120.57 143.76 119.76 142.73 119.77 C 141.71 119.78 140.89 120.62 140.91 121.64 Z M 140.93 122.67 L 140.96 123.71 C 140.98 124.73 141.83 125.54 142.85 125.51 C 143.87 125.48 144.67 124.63 144.65 123.61 L 144.62 122.57 C 144.59 121.55 143.74 120.74 142.72 120.77 C 141.70 120.80 140.90 121.65 140.93 122.67 Z M 140.96 123.74 L 141.00 124.78 C 141.05 125.80 141.91 126.59 142.92 126.54 C 143.94 126.50 144.73 125.64 144.69 124.62 L 144.64 123.59 C 144.60 122.57 143.74 121.78 142.72 121.82 C 141.71 121.87 140.92 122.72 140.96 123.74 Z M 141.01 124.81 L 141.07 125.83 C 141.12 126.84 141.99 127.62 143.01 127.56 C 144.02 127.50 144.80 126.63 144.74 125.62 L 144.68 124.60 C 144.62 123.59 143.76 122.81 142.74 122.87 C 141.73 122.92 140.95 123.79 141.01 124.81 Z M 141.07 125.85 L 141.14 126.88 C 141.21 127.89 142.08 128.65 143.09 128.59 C 144.11 128.52 144.87 127.64 144.80 126.63 L 144.74 125.60 C 144.67 124.59 143.79 123.82 142.78 123.89 C 141.77 123.96 141.00 124.83 141.07 125.85 Z M 141.14 126.89 L 141.22 127.90 C 141.30 128.91 142.18 129.67 143.19 129.59 C 144.20 129.51 144.96 128.63 144.88 127.62 L 144.80 126.61 C 144.72 125.60 143.84 124.84 142.83 124.92 C 141.82 125.00 141.06 125.88 141.14 126.89 Z M 141.22 127.92 L 141.30 128.87 C 141.39 129.88 142.28 130.63 143.29 130.54 C 144.30 130.46 145.04 129.57 144.96 128.56 L 144.87 127.60 C 144.79 126.59 143.90 125.85 142.89 125.93 C 141.88 126.02 141.14 126.91 141.22 127.92 Z M 141.31 128.89 L 141.41 129.97 C 141.51 130.97 142.40 131.71 143.41 131.62 C 144.41 131.52 145.15 130.63 145.06 129.62 L 144.95 128.54 C 144.86 127.54 143.96 126.80 142.96 126.89 C 141.95 126.99 141.21 127.88 141.31 128.89 Z M 141.41 129.98 L 141.52 131.02 C 141.63 132.02 142.53 132.75 143.53 132.64 C 144.54 132.54 145.27 131.64 145.16 130.64 L 145.05 129.60 C 144.95 128.60 144.05 127.87 143.04 127.98 C 142.04 128.08 141.31 128.98 141.41 129.98 Z M 141.52 131.02 L 141.63 131.97 C 141.74 132.97 142.64 133.69 143.64 133.59 C 144.65 133.48 145.37 132.57 145.26 131.57 L 145.16 130.63 C 145.05 129.62 144.15 128.90 143.14 129.01 C 142.14 129.12 141.41 130.02 141.52 131.02 Z M 141.63 131.96 L 141.72 132.87 C 141.83 133.87 142.73 134.60 143.73 134.49 C 144.74 134.39 145.46 133.49 145.36 132.48 L 145.26 131.57 C 145.15 130.57 144.25 129.84 143.25 129.95 C 142.25 130.06 141.52 130.96 141.63 131.96 Z M 141.72 132.86 L 141.82 133.86 C 141.92 134.87 142.82 135.60 143.82 135.50 C 144.82 135.40 145.56 134.51 145.46 133.50 L 145.36 132.50 C 145.26 131.49 144.36 130.76 143.36 130.86 C 142.36 130.96 141.62 131.85 141.72 132.86 Z M 141.82 133.86 L 141.92 134.85 C 142.02 135.86 142.91 136.59 143.91 136.49 C 144.92 136.40 145.65 135.50 145.55 134.50 L 145.46 133.51 C 145.36 132.50 144.47 131.77 143.46 131.87 C 142.46 131.96 141.73 132.86 141.82 133.86 Z M 141.92 134.86 L 142.02 135.84 C 142.13 136.85 143.02 137.58 144.03 137.47 C 145.03 137.37 145.76 136.47 145.65 135.47 L 145.55 134.49 C 145.45 133.48 144.55 132.76 143.55 132.86 C 142.55 132.96 141.82 133.86 141.92 134.86 Z M 142.02 135.86 L 142.11 136.64 C 142.23 137.64 143.13 138.36 144.13 138.25 C 145.13 138.13 145.85 137.23 145.74 136.23 L 145.65 135.45 C 145.54 134.45 144.63 133.73 143.63 133.84 C 142.63 133.95 141.91 134.86 142.02 135.86 Z M 142.11 136.65 L 142.22 137.51 C 142.33 138.51 143.24 139.23 144.24 139.11 C 145.24 138.99 145.96 138.08 145.84 137.08 L 145.74 136.22 C 145.62 135.22 144.71 134.50 143.71 134.62 C 142.71 134.74 141.99 135.65 142.11 136.65 Z M 142.22 137.51 L 142.34 138.55 C 142.46 139.55 143.37 140.27 144.37 140.15 C 145.37 140.03 146.08 139.12 145.96 138.12 L 145.84 137.08 C 145.72 136.08 144.81 135.36 143.81 135.48 C 142.81 135.60 142.10 136.51 142.22 137.51 Z M 142.34 138.54 L 142.49 139.84 C 142.60 140.84 143.51 141.56 144.51 141.44 C 145.51 141.33 146.23 140.42 146.12 139.42 L 145.97 138.12 C 145.85 137.12 144.94 136.40 143.94 136.52 C 142.94 136.64 142.22 137.54 142.34 138.54 Z M 142.49 139.83 L 142.59 140.71 C 142.70 141.71 143.60 142.43 144.60 142.32 C 145.61 142.20 146.33 141.30 146.21 140.30 L 146.12 139.43 C 146.00 138.42 145.10 137.70 144.10 137.82 C 143.10 137.93 142.37 138.83 142.49 139.83 Z M 142.58 140.70 L 142.69 141.66 C 142.80 142.66 143.70 143.38 144.71 143.27 C 145.71 143.16 146.43 142.26 146.32 141.26 L 146.21 140.30 C 146.10 139.30 145.20 138.58 144.20 138.69 C 143.20 138.80 142.47 139.70 142.58 140.70 Z M 142.69 141.65 L 142.80 142.67 C 142.91 143.67 143.81 144.40 144.81 144.29 C 145.81 144.18 146.54 143.28 146.43 142.27 L 146.32 141.26 C 146.21 140.26 145.31 139.53 144.31 139.64 C 143.31 139.75 142.58 140.65 142.69 141.65 Z M 142.80 142.66 L 142.91 143.71 C 143.02 144.71 143.92 145.44 144.92 145.33 C 145.92 145.23 146.65 144.33 146.54 143.32 L 146.43 142.28 C 146.32 141.27 145.42 140.55 144.42 140.66 C 143.42 140.76 142.69 141.66 142.80 142.66 Z M 142.91 143.71 L 143.02 144.76 C 143.13 145.76 144.02 146.49 145.03 146.39 C 146.03 146.28 146.76 145.38 146.65 144.38 L 146.54 143.33 C 146.44 142.32 145.54 141.60 144.54 141.70 C 143.53 141.81 142.81 142.71 142.91 143.71 Z M 143.02 144.76 L 143.13 145.79 C 143.23 146.80 144.13 147.53 145.13 147.42 C 146.13 147.32 146.86 146.42 146.76 145.42 L 146.65 144.38 C 146.55 143.38 145.65 142.65 144.65 142.76 C 143.65 142.86 142.92 143.75 143.02 144.76 Z M 143.13 145.79 L 143.23 146.78 C 143.33 147.78 144.22 148.51 145.22 148.41 C 146.23 148.31 146.96 147.42 146.86 146.41 L 146.76 145.42 C 146.66 144.42 145.76 143.69 144.76 143.79 C 143.76 143.89 143.03 144.78 143.13 145.79 Z M 143.22 146.77 L 143.34 147.97 C 143.44 148.97 144.33 149.71 145.33 149.61 C 146.34 149.51 147.07 148.62 146.97 147.62 L 146.86 146.42 C 146.76 145.42 145.87 144.68 144.87 144.78 C 143.86 144.88 143.13 145.77 143.22 146.77 Z M 143.34 147.96 L 143.44 149.07 C 143.54 150.08 144.42 150.82 145.43 150.72 C 146.43 150.63 147.17 149.74 147.08 148.74 L 146.98 147.62 C 146.88 146.62 145.99 145.88 144.99 145.97 C 143.99 146.07 143.25 146.96 143.34 147.96 Z M 143.44 149.07 L 143.53 150.08 C 143.62 151.08 144.51 151.82 145.52 151.73 C 146.52 151.64 147.26 150.75 147.17 149.75 L 147.08 148.74 C 146.99 147.74 146.10 147.00 145.10 147.09 C 144.09 147.18 143.35 148.07 143.44 149.07 Z M 143.53 150.08 L 143.62 150.99 C 143.71 151.99 144.59 152.73 145.60 152.64 C 146.60 152.55 147.34 151.66 147.25 150.66 L 147.17 149.75 C 147.08 148.74 146.19 148.00 145.19 148.09 C 144.18 148.18 143.44 149.07 143.53 150.08 Z M 143.62 150.99 L 143.69 151.82 C 143.79 152.82 144.68 153.56 145.68 153.47 C 146.68 153.38 147.42 152.49 147.33 151.48 L 147.25 150.65 C 147.16 149.65 146.27 148.91 145.26 149.00 C 144.26 149.10 143.52 149.99 143.62 150.99 Z M 143.69 151.83 L 143.79 152.83 C 143.90 153.83 144.79 154.56 145.79 154.46 C 146.80 154.36 147.53 153.46 147.43 152.46 L 147.33 151.47 C 147.23 150.46 146.33 149.73 145.33 149.83 C 144.32 149.94 143.59 150.83 143.69 151.83 Z M 143.80 152.86 L 143.92 153.89 C 144.04 154.89 144.95 155.60 145.96 155.48 C 146.96 155.36 147.67 154.45 147.55 153.45 L 147.42 152.42 C 147.30 151.42 146.39 150.71 145.39 150.83 C 144.39 150.95 143.68 151.86 143.80 152.86 Z M 143.93 153.95 L 144.08 154.90 C 144.24 155.89 145.18 156.57 146.17 156.42 C 147.17 156.26 147.85 155.32 147.69 154.33 L 147.54 153.38 C 147.38 152.39 146.45 151.71 145.45 151.86 C 144.45 152.02 143.77 152.96 143.93 153.95 Z M 144.10 154.99 L 144.30 155.93 C 144.51 156.92 145.48 157.55 146.47 157.34 C 147.45 157.13 148.08 156.16 147.87 155.17 L 147.67 154.23 C 147.46 153.25 146.49 152.62 145.50 152.83 C 144.52 153.04 143.89 154.01 144.10 154.99 Z M 144.35 156.10 L 144.70 157.21 C 145.00 158.17 146.02 158.70 146.98 158.40 C 147.94 158.10 148.48 157.08 148.17 156.12 L 147.83 155.01 C 147.52 154.05 146.50 153.51 145.54 153.81 C 144.58 154.12 144.04 155.14 144.35 156.10 Z M 144.90 157.63 L 145.38 158.41 C 145.92 159.25 147.04 159.51 147.89 158.97 C 148.74 158.44 149.00 157.31 148.46 156.46 L 147.97 155.69 C 147.44 154.84 146.31 154.59 145.46 155.12 C 144.61 155.66 144.36 156.78 144.90 157.63 Z M 146.40 159.17 L 147.00 159.35 C 147.96 159.64 148.97 159.09 149.26 158.13 C 149.54 157.17 149.00 156.16 148.04 155.87 L 147.44 155.69 C 146.48 155.41 145.47 155.95 145.18 156.92 C 144.89 157.88 145.44 158.89 146.40 159.17 Z M 148.34 159.23 L 149.02 158.88 C 149.92 158.43 150.27 157.34 149.82 156.44 C 149.37 155.55 148.27 155.19 147.38 155.65 L 146.70 155.99 C 145.80 156.45 145.45 157.54 145.90 158.43 C 146.35 159.33 147.45 159.68 148.34 159.23 Z M 149.45 158.58 L 150.27 157.81 C 151.00 157.12 151.03 155.97 150.34 155.24 C 149.66 154.51 148.51 154.48 147.78 155.17 L 146.96 155.95 C 146.23 156.63 146.19 157.78 146.88 158.51 C 147.57 159.24 148.72 159.27 149.45 158.58 Z M 150.41 157.66 L 151.22 156.71 C 151.86 155.95 151.77 154.81 151.01 154.16 C 150.25 153.51 149.10 153.60 148.45 154.36 L 147.65 155.31 C 147.00 156.07 147.09 157.22 147.85 157.87 C 148.61 158.52 149.76 158.43 150.41 157.66 Z M 151.26 156.65 L 151.86 155.88 C 152.48 155.10 152.34 153.96 151.55 153.35 C 150.76 152.73 149.63 152.87 149.01 153.66 L 148.41 154.42 C 147.80 155.21 147.93 156.35 148.72 156.96 C 149.51 157.58 150.64 157.44 151.26 156.65 Z M 151.88 155.85 L 152.50 155.03 C 153.10 154.23 152.94 153.10 152.14 152.50 C 151.35 151.91 150.22 152.07 149.62 152.86 L 149.00 153.69 C 148.40 154.48 148.56 155.61 149.35 156.21 C 150.15 156.81 151.28 156.65 151.88 155.85 Z M 152.50 155.01 L 153.13 154.16 C 153.71 153.36 153.54 152.24 152.74 151.65 C 151.94 151.06 150.82 151.24 150.23 152.03 L 149.61 152.88 C 149.02 153.68 149.19 154.80 149.99 155.39 C 150.79 155.98 151.92 155.81 152.50 155.01 Z M 153.13 154.15 L 153.73 153.32 C 154.31 152.52 154.13 151.40 153.34 150.82 C 152.54 150.24 151.42 150.42 150.84 151.22 L 150.23 152.05 C 149.65 152.84 149.83 153.96 150.63 154.55 C 151.43 155.13 152.55 154.95 153.13 154.15 Z M 153.72 153.32 L 154.29 152.54 C 154.87 151.74 154.69 150.63 153.90 150.05 C 153.10 149.47 151.99 149.65 151.41 150.44 L 150.84 151.22 C 150.26 152.01 150.44 153.13 151.23 153.71 C 152.03 154.29 153.15 154.11 153.72 153.32 Z M 154.27 152.54 L 154.95 151.62 C 155.53 150.83 155.37 149.73 154.58 149.15 C 153.80 148.57 152.69 148.73 152.11 149.52 L 151.43 150.44 C 150.85 151.23 151.01 152.33 151.80 152.91 C 152.58 153.49 153.69 153.33 154.27 152.54 Z M 154.92 151.62 L 155.54 150.79 C 156.12 150.03 155.97 148.94 155.20 148.36 C 154.44 147.78 153.34 147.93 152.76 148.70 L 152.14 149.52 C 151.56 150.28 151.72 151.38 152.48 151.96 C 153.25 152.53 154.34 152.38 154.92 151.62 Z M 155.51 150.79 L 156.07 150.05 C 156.65 149.30 156.50 148.23 155.75 147.65 C 155.00 147.08 153.93 147.22 153.35 147.97 L 152.79 148.71 C 152.22 149.46 152.36 150.53 153.11 151.11 C 153.86 151.68 154.94 151.54 155.51 150.79 Z M 156.05 150.03 L 156.59 149.33 C 157.15 148.59 157.01 147.53 156.27 146.97 C 155.53 146.41 154.47 146.55 153.91 147.29 L 153.37 147.99 C 152.81 148.73 152.95 149.79 153.69 150.35 C 154.43 150.92 155.49 150.77 156.05 150.03 Z M 156.58 149.31 L 157.16 148.53 C 157.71 147.79 157.56 146.75 156.82 146.20 C 156.09 145.65 155.04 145.80 154.49 146.54 L 153.91 147.31 C 153.36 148.05 153.51 149.09 154.25 149.64 C 154.99 150.19 156.03 150.04 156.58 149.31 Z M 157.17 148.51 L 157.75 147.71 C 158.29 146.97 158.13 145.93 157.39 145.39 C 156.65 144.85 155.62 145.01 155.08 145.75 L 154.49 146.56 C 153.95 147.30 154.11 148.33 154.85 148.87 C 155.59 149.41 156.63 149.25 157.17 148.51 Z M 157.76 147.69 L 158.35 146.86 C 158.88 146.12 158.71 145.09 157.96 144.56 C 157.22 144.03 156.19 144.20 155.66 144.94 L 155.07 145.77 C 154.54 146.51 154.72 147.54 155.46 148.07 C 156.20 148.60 157.23 148.43 157.76 147.69 Z M 158.35 146.84 L 158.94 146.00 C 159.46 145.25 159.28 144.23 158.53 143.71 C 157.79 143.19 156.76 143.37 156.25 144.12 L 155.66 144.96 C 155.14 145.71 155.32 146.73 156.07 147.25 C 156.81 147.77 157.84 147.58 158.35 146.84 Z M 158.95 145.98 L 159.52 145.13 C 160.03 144.38 159.84 143.36 159.09 142.86 C 158.34 142.35 157.32 142.54 156.81 143.29 L 156.24 144.14 C 155.73 144.89 155.92 145.91 156.67 146.41 C 157.42 146.92 158.44 146.73 158.95 145.98 Z M 159.54 145.11 L 160.09 144.27 C 160.59 143.52 160.38 142.50 159.62 142.00 C 158.87 141.50 157.85 141.71 157.35 142.47 L 156.80 143.31 C 156.30 144.07 156.51 145.08 157.27 145.58 C 158.02 146.08 159.04 145.87 159.54 145.11 Z M 160.11 144.25 L 160.63 143.43 C 161.11 142.66 160.88 141.65 160.12 141.16 C 159.36 140.68 158.35 140.91 157.86 141.67 L 157.34 142.49 C 156.85 143.26 157.08 144.27 157.85 144.75 C 158.61 145.24 159.62 145.01 160.11 144.25 Z M 160.65 143.39 L 161.18 142.51 C 161.64 141.74 161.40 140.73 160.62 140.26 C 159.85 139.80 158.84 140.05 158.37 140.82 L 157.84 141.70 C 157.38 142.48 157.62 143.48 158.40 143.95 C 159.17 144.42 160.18 144.17 160.65 143.39 Z M 161.20 142.48 L 161.70 141.61 C 162.15 140.83 161.88 139.83 161.09 139.38 C 160.31 138.93 159.31 139.20 158.86 139.98 L 158.36 140.85 C 157.91 141.63 158.18 142.64 158.96 143.09 C 159.74 143.54 160.75 143.27 161.20 142.48 Z M 161.71 141.59 L 162.18 140.74 C 162.62 139.95 162.33 138.96 161.54 138.52 C 160.75 138.08 159.76 138.36 159.32 139.15 L 158.85 140.00 C 158.41 140.79 158.69 141.79 159.48 142.23 C 160.27 142.67 161.27 142.38 161.71 141.59 Z M 162.18 140.74 L 162.36 140.42 C 162.79 139.63 162.50 138.63 161.71 138.19 C 160.92 137.76 159.92 138.05 159.49 138.84 L 159.31 139.16 C 158.88 139.95 159.17 140.95 159.96 141.38 C 160.75 141.82 161.75 141.53 162.18 140.74 Z"
      fill="black"
      fill-rule="nonzero" /><path d="M 167.89 114.69 L 167.17 115.72 C 166.59 116.56 166.79 117.71 167.63 118.30 C 168.47 118.88 169.62 118.68 170.20 117.84 L 170.93 116.81 C 171.51 115.97 171.31 114.82 170.47 114.23 C 169.63 113.65 168.48 113.85 167.89 114.69 Z M 167.14 115.76 L 166.50 116.73 C 165.93 117.58 166.17 118.73 167.02 119.30 C 167.88 119.86 169.03 119.63 169.59 118.78 L 170.24 117.80 C 170.80 116.95 170.57 115.80 169.71 115.23 C 168.86 114.67 167.71 114.90 167.14 115.76 Z M 166.43 116.83 L 165.94 117.69 C 165.44 118.58 165.75 119.72 166.64 120.22 C 167.53 120.73 168.67 120.42 169.17 119.53 L 169.66 118.67 C 170.17 117.78 169.86 116.65 168.97 116.14 C 168.07 115.63 166.94 115.94 166.43 116.83 Z M 165.81 117.96 L 165.56 118.64 C 165.20 119.60 165.69 120.68 166.66 121.03 C 167.62 121.39 168.70 120.90 169.05 119.94 L 169.31 119.26 C 169.66 118.29 169.17 117.22 168.21 116.86 C 167.24 116.50 166.17 116.99 165.81 117.96 Z M 165.51 119.80 L 165.68 120.37 C 165.96 121.36 167.00 121.93 167.99 121.65 C 168.98 121.36 169.55 120.33 169.26 119.33 L 169.10 118.77 C 168.82 117.78 167.78 117.21 166.79 117.49 C 165.80 117.78 165.23 118.81 165.51 119.80 Z M 167.12 121.69 L 167.95 121.84 C 168.96 122.04 169.94 121.37 170.13 120.36 C 170.32 119.35 169.66 118.37 168.65 118.18 L 167.82 118.02 C 166.81 117.82 165.83 118.49 165.64 119.50 C 165.44 120.51 166.11 121.49 167.12 121.69 Z M 168.56 121.86 L 169.82 121.68 C 170.85 121.53 171.55 120.58 171.41 119.56 C 171.26 118.54 170.31 117.83 169.29 117.98 L 168.03 118.16 C 167.01 118.31 166.30 119.26 166.45 120.28 C 166.60 121.30 167.54 122.01 168.56 121.86 Z M 169.98 121.65 L 170.93 121.42 C 171.94 121.19 172.56 120.19 172.33 119.19 C 172.10 118.18 171.10 117.56 170.09 117.79 L 169.14 118.01 C 168.13 118.24 167.51 119.25 167.74 120.25 C 167.97 121.25 168.98 121.88 169.98 121.65 Z M 170.99 121.41 L 171.97 121.14 C 172.96 120.88 173.55 119.86 173.29 118.86 C 173.02 117.87 172.00 117.28 171.01 117.55 L 170.03 117.81 C 169.04 118.07 168.45 119.09 168.72 120.09 C 168.98 121.08 170.00 121.67 170.99 121.41 Z M 172.01 121.13 L 172.99 120.84 C 173.98 120.56 174.54 119.53 174.26 118.54 C 173.97 117.56 172.94 116.99 171.96 117.28 L 170.97 117.56 C 169.99 117.85 169.42 118.88 169.71 119.86 C 169.99 120.85 171.02 121.42 172.01 121.13 Z M 173.02 120.83 L 173.98 120.54 C 174.95 120.24 175.51 119.20 175.21 118.23 C 174.91 117.25 173.87 116.69 172.89 116.99 L 171.93 117.29 C 170.95 117.59 170.40 118.62 170.70 119.60 C 171.00 120.58 172.04 121.13 173.02 120.83 Z M 173.98 120.53 L 175.00 120.22 C 175.98 119.91 176.52 118.88 176.22 117.90 C 175.91 116.93 174.88 116.38 173.90 116.68 L 172.88 117.00 C 171.91 117.30 171.37 118.34 171.67 119.32 C 171.97 120.29 173.01 120.84 173.98 120.53 Z M 175.00 120.21 L 175.97 119.91 C 176.94 119.61 177.49 118.58 177.19 117.60 C 176.89 116.63 175.85 116.09 174.88 116.39 L 173.91 116.69 C 172.93 116.99 172.39 118.02 172.69 118.99 C 172.99 119.97 174.02 120.51 175.00 120.21 Z M 175.95 119.91 L 176.88 119.63 C 177.85 119.34 178.40 118.32 178.11 117.35 C 177.82 116.37 176.80 115.82 175.83 116.11 L 174.90 116.39 C 173.93 116.68 173.38 117.70 173.67 118.67 C 173.96 119.64 174.98 120.20 175.95 119.91 Z M 176.84 119.63 L 177.75 119.38 C 178.72 119.11 179.29 118.10 179.02 117.13 C 178.75 116.16 177.74 115.59 176.77 115.86 L 175.86 116.11 C 174.89 116.38 174.32 117.39 174.59 118.36 C 174.86 119.33 175.87 119.90 176.84 119.63 Z M 177.70 119.39 L 178.63 119.16 C 179.61 118.91 180.21 117.92 179.96 116.95 C 179.72 115.97 178.73 115.37 177.75 115.62 L 176.81 115.85 C 175.84 116.09 175.24 117.08 175.49 118.06 C 175.73 119.04 176.72 119.63 177.70 119.39 Z M 178.58 119.16 L 179.54 118.95 C 180.53 118.74 181.15 117.77 180.93 116.78 C 180.71 115.80 179.74 115.18 178.76 115.40 L 177.80 115.61 C 176.82 115.83 176.20 116.80 176.42 117.78 C 176.63 118.76 177.60 119.38 178.58 119.16 Z M 179.50 118.96 L 180.52 118.76 C 181.51 118.57 182.15 117.61 181.96 116.63 C 181.76 115.64 180.81 115.00 179.83 115.19 L 178.81 115.39 C 177.82 115.59 177.18 116.54 177.37 117.52 C 177.56 118.51 178.52 119.15 179.50 118.96 Z M 180.49 118.76 L 181.44 118.59 C 182.43 118.42 183.09 117.48 182.91 116.49 C 182.74 115.51 181.80 114.85 180.81 115.02 L 179.86 115.19 C 178.87 115.36 178.22 116.31 178.39 117.29 C 178.56 118.28 179.50 118.93 180.49 118.76 Z M 181.41 118.60 L 182.39 118.44 C 183.38 118.29 184.05 117.36 183.90 116.37 C 183.74 115.38 182.81 114.71 181.83 114.86 L 180.85 115.02 C 179.86 115.17 179.18 116.10 179.34 117.09 C 179.50 118.08 180.42 118.75 181.41 118.60 Z M 182.35 118.45 L 183.36 118.31 C 184.35 118.18 185.05 117.27 184.91 116.27 C 184.78 115.28 183.87 114.59 182.88 114.72 L 181.87 114.86 C 180.88 114.99 180.18 115.90 180.31 116.89 C 180.45 117.88 181.36 118.58 182.35 118.45 Z M 183.31 118.32 L 184.33 118.21 C 185.33 118.10 186.05 117.21 185.94 116.22 C 185.84 115.22 184.95 114.50 183.95 114.61 L 182.93 114.72 C 181.94 114.82 181.22 115.71 181.32 116.71 C 181.43 117.70 182.32 118.42 183.31 118.32 Z M 184.26 118.21 L 185.34 118.14 C 186.33 118.08 187.09 117.22 187.03 116.22 C 186.96 115.22 186.10 114.47 185.10 114.53 L 184.03 114.60 C 183.03 114.67 182.27 115.53 182.34 116.53 C 182.40 117.52 183.26 118.28 184.26 118.21 Z M 185.21 118.15 L 186.26 118.16 C 187.26 118.16 188.07 117.36 188.08 116.36 C 188.09 115.36 187.28 114.54 186.28 114.53 L 185.23 114.53 C 184.23 114.52 183.41 115.33 183.41 116.33 C 183.40 117.33 184.21 118.14 185.21 118.15 Z M 186.04 118.14 L 187.00 118.27 C 187.99 118.40 188.90 117.69 189.03 116.70 C 189.16 115.70 188.45 114.80 187.46 114.67 L 186.50 114.54 C 185.50 114.42 184.59 115.12 184.47 116.11 C 184.34 117.11 185.04 118.02 186.04 118.14 Z M 186.66 118.19 L 187.51 118.47 C 188.46 118.79 189.49 118.27 189.81 117.32 C 190.12 116.37 189.61 115.34 188.65 115.03 L 187.80 114.74 C 186.85 114.43 185.82 114.94 185.51 115.90 C 185.19 116.85 185.71 117.88 186.66 118.19 Z M 187.05 118.24 L 187.83 118.78 C 188.65 119.36 189.78 119.15 190.36 118.33 C 190.93 117.50 190.72 116.37 189.90 115.80 L 189.12 115.26 C 188.29 114.68 187.16 114.89 186.59 115.72 C 186.02 116.54 186.22 117.67 187.05 118.24 Z M 187.43 118.41 L 188.02 119.17 C 188.64 119.96 189.78 120.10 190.57 119.49 C 191.37 118.87 191.51 117.73 190.89 116.94 L 190.30 116.17 C 189.68 115.38 188.54 115.24 187.74 115.86 C 186.95 116.47 186.81 117.62 187.43 118.41 Z M 187.79 118.78 L 188.21 119.74 C 188.61 120.66 189.68 121.08 190.60 120.68 C 191.53 120.28 191.95 119.21 191.54 118.29 L 191.12 117.33 C 190.72 116.40 189.65 115.98 188.73 116.39 C 187.81 116.79 187.39 117.86 187.79 118.78 Z M 188.11 119.44 L 188.34 120.38 C 188.57 121.36 189.55 121.96 190.53 121.72 C 191.51 121.49 192.11 120.51 191.87 119.53 L 191.64 118.59 C 191.41 117.61 190.43 117.01 189.45 117.25 C 188.47 117.48 187.87 118.47 188.11 119.44 Z M 188.30 120.18 L 188.42 121.16 C 188.55 122.15 189.46 122.86 190.45 122.73 C 191.45 122.61 192.15 121.70 192.03 120.71 L 191.91 119.73 C 191.78 118.74 190.87 118.03 189.88 118.15 C 188.88 118.28 188.18 119.19 188.30 120.18 Z M 188.41 121.01 L 188.46 122.03 C 188.50 123.03 189.35 123.81 190.35 123.77 C 191.35 123.72 192.13 122.88 192.08 121.87 L 192.04 120.85 C 191.99 119.85 191.15 119.07 190.15 119.12 C 189.15 119.16 188.37 120.01 188.41 121.01 Z M 188.46 121.92 L 188.44 122.96 C 188.42 123.96 189.22 124.79 190.22 124.80 C 191.22 124.82 192.04 124.03 192.06 123.03 L 192.08 121.99 C 192.10 120.99 191.30 120.16 190.30 120.14 C 189.30 120.12 188.48 120.92 188.46 121.92 Z M 188.45 122.87 L 188.38 123.89 C 188.31 124.88 189.06 125.75 190.05 125.82 C 191.05 125.89 191.91 125.13 191.98 124.14 L 192.05 123.12 C 192.12 122.12 191.37 121.26 190.38 121.19 C 189.38 121.12 188.52 121.87 188.45 122.87 Z M 188.39 123.79 L 188.27 124.78 C 188.15 125.77 188.84 126.67 189.83 126.79 C 190.82 126.92 191.72 126.22 191.84 125.23 L 191.97 124.24 C 192.09 123.25 191.39 122.35 190.40 122.23 C 189.42 122.10 188.52 122.80 188.39 123.79 Z M 188.30 124.66 L 188.11 125.64 C 187.92 126.61 188.55 127.55 189.52 127.74 C 190.49 127.92 191.43 127.29 191.62 126.32 L 191.81 125.35 C 192.00 124.38 191.37 123.44 190.40 123.25 C 189.43 123.06 188.49 123.69 188.30 124.66 Z M 188.15 125.50 L 187.88 126.46 C 187.62 127.40 188.17 128.39 189.12 128.65 C 190.07 128.91 191.05 128.36 191.31 127.41 L 191.58 126.46 C 191.84 125.51 191.29 124.53 190.34 124.26 C 189.40 124.00 188.41 124.55 188.15 125.50 Z M 187.94 126.32 L 187.60 127.24 C 187.26 128.15 187.72 129.17 188.64 129.51 C 189.56 129.85 190.57 129.39 190.92 128.47 L 191.26 127.55 C 191.60 126.64 191.13 125.62 190.22 125.28 C 189.30 124.94 188.28 125.40 187.94 126.32 Z M 187.66 127.11 L 187.25 128.00 C 186.84 128.88 187.22 129.92 188.10 130.33 C 188.99 130.74 190.03 130.36 190.44 129.48 L 190.85 128.59 C 191.26 127.71 190.88 126.67 190.00 126.26 C 189.12 125.85 188.07 126.23 187.66 127.11 Z M 187.31 127.90 L 186.83 128.77 C 186.37 129.62 186.68 130.68 187.53 131.15 C 188.37 131.61 189.44 131.30 189.90 130.45 L 190.38 129.58 C 190.84 128.73 190.53 127.67 189.69 127.20 C 188.84 126.74 187.78 127.05 187.31 127.90 Z M 186.89 128.69 L 186.35 129.56 C 185.84 130.37 186.09 131.45 186.91 131.95 C 187.72 132.46 188.80 132.21 189.31 131.40 L 189.84 130.53 C 190.35 129.72 190.10 128.64 189.29 128.14 C 188.47 127.63 187.40 127.88 186.89 128.69 Z M 186.40 129.49 L 185.82 130.34 C 185.28 131.13 185.48 132.20 186.26 132.75 C 187.05 133.29 188.13 133.09 188.67 132.30 L 189.25 131.46 C 189.79 130.67 189.60 129.60 188.81 129.05 C 188.02 128.51 186.95 128.71 186.40 129.49 Z M 185.87 130.29 L 185.28 131.07 C 184.71 131.83 184.87 132.91 185.63 133.48 C 186.39 134.05 187.47 133.90 188.04 133.14 L 188.62 132.35 C 189.19 131.59 189.04 130.51 188.28 129.95 C 187.52 129.38 186.44 129.53 185.87 130.29 Z M 185.33 131.03 L 184.70 131.80 C 184.11 132.54 184.23 133.62 184.96 134.21 C 185.70 134.80 186.78 134.69 187.37 133.95 L 187.99 133.18 C 188.58 132.44 188.47 131.37 187.73 130.77 C 187.00 130.18 185.92 130.30 185.33 131.03 Z M 184.75 131.77 L 184.09 132.53 C 183.48 133.24 183.56 134.31 184.27 134.93 C 184.98 135.54 186.06 135.46 186.67 134.75 L 187.33 133.99 C 187.94 133.28 187.86 132.20 187.15 131.59 C 186.44 130.98 185.36 131.05 184.75 131.77 Z M 184.14 132.49 L 183.45 133.24 C 182.82 133.93 182.86 135.00 183.55 135.63 C 184.24 136.26 185.31 136.22 185.94 135.53 L 186.63 134.78 C 187.26 134.09 187.21 133.02 186.53 132.39 C 185.84 131.76 184.77 131.80 184.14 132.49 Z M 183.49 133.21 L 182.80 133.92 C 182.15 134.58 182.16 135.65 182.83 136.30 C 183.50 136.95 184.56 136.93 185.21 136.27 L 185.90 135.56 C 186.55 134.89 186.54 133.83 185.87 133.18 C 185.20 132.53 184.14 132.54 183.49 133.21 Z M 182.84 133.88 L 182.16 134.54 C 181.50 135.18 181.48 136.25 182.12 136.91 C 182.76 137.58 183.82 137.60 184.49 136.95 L 185.17 136.30 C 185.84 135.65 185.86 134.59 185.21 133.93 C 184.57 133.26 183.51 133.24 182.84 133.88 Z M 182.21 134.51 L 181.49 135.15 C 180.80 135.77 180.75 136.83 181.36 137.51 C 181.98 138.20 183.04 138.25 183.72 137.64 L 184.44 136.99 C 185.13 136.37 185.19 135.31 184.57 134.63 C 183.95 133.94 182.89 133.89 182.21 134.51 Z M 181.54 135.12 L 180.77 135.76 C 180.07 136.34 179.97 137.39 180.56 138.10 C 181.15 138.81 182.20 138.90 182.90 138.32 L 183.67 137.67 C 184.38 137.09 184.47 136.04 183.89 135.33 C 183.30 134.62 182.25 134.53 181.54 135.12 Z M 180.83 135.72 L 180.00 136.35 C 179.27 136.91 179.13 137.95 179.69 138.68 C 180.24 139.40 181.29 139.54 182.01 138.99 L 182.84 138.35 C 183.57 137.80 183.71 136.76 183.16 136.03 C 182.60 135.30 181.56 135.16 180.83 135.72 Z M 180.06 136.31 L 179.19 136.92 C 178.44 137.45 178.25 138.48 178.78 139.23 C 179.30 139.97 180.33 140.16 181.08 139.64 L 181.95 139.03 C 182.70 138.50 182.89 137.47 182.36 136.72 C 181.84 135.97 180.81 135.79 180.06 136.31 Z M 179.24 136.89 L 178.39 137.44 C 177.63 137.93 177.40 138.95 177.90 139.72 C 178.39 140.48 179.41 140.71 180.18 140.21 L 181.03 139.67 C 181.79 139.17 182.01 138.15 181.52 137.39 C 181.03 136.62 180.01 136.40 179.24 136.89 Z M 178.44 137.41 L 177.55 137.94 C 176.77 138.41 176.52 139.42 176.99 140.20 C 177.45 140.98 178.47 141.24 179.25 140.77 L 180.13 140.24 C 180.91 139.77 181.17 138.76 180.70 137.98 C 180.23 137.20 179.22 136.94 178.44 137.41 Z M 177.60 137.92 L 176.70 138.42 C 175.90 138.87 175.62 139.87 176.06 140.66 C 176.51 141.45 177.51 141.74 178.30 141.29 L 179.20 140.79 C 180.00 140.35 180.28 139.34 179.84 138.55 C 179.39 137.76 178.39 137.47 177.60 137.92 Z M 176.74 138.40 L 175.84 138.87 C 175.04 139.29 174.72 140.28 175.15 141.09 C 175.57 141.89 176.56 142.20 177.36 141.78 L 178.26 141.31 C 179.06 140.89 179.38 139.90 178.96 139.10 C 178.53 138.29 177.54 137.98 176.74 138.40 Z M 175.89 138.85 L 175.01 139.27 C 174.20 139.67 173.86 140.65 174.25 141.47 C 174.65 142.28 175.63 142.62 176.45 142.23 L 177.32 141.80 C 178.13 141.41 178.47 140.43 178.08 139.61 C 177.68 138.80 176.70 138.46 175.89 138.85 Z M 175.07 139.25 L 174.14 139.66 C 173.31 140.03 172.94 141.00 173.31 141.82 C 173.67 142.65 174.64 143.02 175.47 142.66 L 176.39 142.25 C 177.22 141.88 177.59 140.92 177.23 140.09 C 176.86 139.26 175.89 138.89 175.07 139.25 Z M 174.21 139.63 L 173.19 140.03 C 172.34 140.36 171.92 141.30 172.25 142.15 C 172.58 142.99 173.53 143.41 174.37 143.08 L 175.40 142.69 C 176.24 142.36 176.66 141.41 176.33 140.57 C 176.01 139.73 175.06 139.31 174.21 139.63 Z M 173.27 140.00 L 172.32 140.31 C 171.46 140.58 170.99 141.51 171.26 142.37 C 171.54 143.23 172.46 143.70 173.33 143.42 L 174.28 143.12 C 175.14 142.84 175.61 141.92 175.34 141.05 C 175.06 140.19 174.14 139.72 173.27 140.00 Z M 172.41 140.28 L 171.51 140.51 C 170.63 140.74 170.10 141.63 170.33 142.51 C 170.56 143.38 171.45 143.91 172.33 143.68 L 173.23 143.45 C 174.11 143.22 174.63 142.33 174.41 141.46 C 174.18 140.58 173.29 140.05 172.41 140.28 Z M 171.59 140.49 L 170.71 140.67 C 169.83 140.85 169.25 141.71 169.43 142.60 C 169.61 143.48 170.47 144.06 171.36 143.88 L 172.24 143.70 C 173.12 143.53 173.70 142.66 173.52 141.78 C 173.34 140.89 172.48 140.32 171.59 140.49 Z M 170.80 140.66 L 169.81 140.80 C 168.91 140.93 168.29 141.76 168.42 142.66 C 168.55 143.55 169.38 144.17 170.28 144.04 L 171.27 143.90 C 172.16 143.77 172.78 142.93 172.65 142.04 C 172.52 141.15 171.69 140.53 170.80 140.66 Z M 169.91 140.79 L 168.91 140.87 C 168.01 140.94 167.34 141.73 167.42 142.63 C 167.49 143.54 168.28 144.21 169.18 144.13 L 170.18 144.05 C 171.08 143.98 171.75 143.19 171.67 142.29 C 171.60 141.39 170.81 140.72 169.91 140.79 Z M 169.04 140.86 L 168.04 140.87 C 167.14 140.87 166.41 141.61 166.41 142.51 C 166.42 143.42 167.16 144.15 168.06 144.14 L 169.06 144.14 C 169.96 144.13 170.69 143.40 170.68 142.49 C 170.68 141.59 169.94 140.86 169.04 140.86 Z M 168.19 140.88 L 167.19 140.79 C 166.29 140.72 165.50 141.39 165.43 142.29 C 165.35 143.19 166.02 143.98 166.92 144.06 L 167.92 144.14 C 168.82 144.21 169.61 143.54 169.68 142.64 C 169.76 141.74 169.09 140.95 168.19 140.88 Z M 167.34 140.81 L 166.37 140.64 C 165.48 140.49 164.63 141.09 164.48 141.98 C 164.32 142.87 164.92 143.72 165.81 143.87 L 166.78 144.04 C 167.67 144.19 168.52 143.59 168.67 142.70 C 168.83 141.81 168.23 140.97 167.34 140.81 Z M 166.47 140.67 L 165.51 140.43 C 164.63 140.22 163.74 140.76 163.53 141.64 C 163.32 142.52 163.86 143.40 164.74 143.61 L 165.70 143.85 C 166.58 144.06 167.47 143.52 167.68 142.64 C 167.89 141.76 167.35 140.88 166.47 140.67 Z M 165.57 140.45 L 164.60 140.17 C 163.73 139.92 162.83 140.42 162.58 141.29 C 162.33 142.16 162.83 143.07 163.70 143.32 L 164.67 143.60 C 165.54 143.85 166.44 143.34 166.69 142.47 C 166.94 141.60 166.44 140.70 165.57 140.45 Z M 164.63 140.18 L 163.79 139.92 C 162.93 139.66 162.01 140.14 161.75 141.00 C 161.48 141.87 161.96 142.78 162.83 143.05 L 163.67 143.31 C 164.53 143.57 165.45 143.09 165.72 142.23 C 165.98 141.36 165.50 140.45 164.63 140.18 Z"
      fill="black"
      fill-rule="nonzero" /><path d="M 166.34 123.84 L 166.41 124.85 C 166.48 125.89 167.38 126.68 168.42 126.60 C 169.45 126.53 170.24 125.63 170.17 124.60 L 170.10 123.58 C 170.03 122.54 169.13 121.76 168.09 121.83 C 167.05 121.90 166.27 122.80 166.34 123.84 Z M 166.40 124.88 L 166.48 125.88 C 166.56 126.93 167.47 127.71 168.52 127.62 C 169.56 127.54 170.34 126.62 170.26 125.58 L 170.18 124.57 C 170.09 123.53 169.18 122.75 168.14 122.83 C 167.09 122.92 166.31 123.83 166.40 124.88 Z M 166.47 125.93 L 166.57 126.92 C 166.68 127.97 167.62 128.73 168.67 128.62 C 169.72 128.51 170.48 127.57 170.37 126.52 L 170.27 125.53 C 170.16 124.49 169.22 123.73 168.17 123.83 C 167.12 123.94 166.36 124.88 166.47 125.93 Z M 166.57 126.99 L 166.71 127.95 C 166.85 129.00 167.83 129.74 168.88 129.59 C 169.93 129.44 170.66 128.47 170.51 127.42 L 170.37 126.45 C 170.22 125.40 169.25 124.67 168.20 124.82 C 167.15 124.97 166.42 125.94 166.57 126.99 Z M 166.71 128.05 L 166.89 129.00 C 167.09 130.04 168.10 130.73 169.15 130.53 C 170.19 130.33 170.88 129.32 170.68 128.28 L 170.50 127.33 C 170.30 126.28 169.29 125.59 168.25 125.79 C 167.20 125.99 166.51 127.00 166.71 128.05 Z M 166.91 129.08 L 167.13 130.03 C 167.38 131.06 168.42 131.71 169.45 131.46 C 170.49 131.22 171.13 130.18 170.89 129.14 L 170.67 128.19 C 170.42 127.16 169.38 126.51 168.35 126.76 C 167.31 127.00 166.67 128.04 166.91 129.08 Z M 167.14 130.09 L 167.41 131.06 C 167.69 132.09 168.75 132.70 169.78 132.43 C 170.81 132.15 171.42 131.09 171.14 130.06 L 170.88 129.08 C 170.60 128.05 169.54 127.44 168.51 127.72 C 167.48 128.00 166.87 129.06 167.14 130.09 Z M 167.42 131.10 L 167.71 132.10 C 168.01 133.13 169.08 133.72 170.11 133.42 C 171.13 133.12 171.72 132.05 171.42 131.02 L 171.13 130.02 C 170.83 128.99 169.76 128.40 168.73 128.70 C 167.71 129.00 167.12 130.07 167.42 131.10 Z M 167.71 132.12 L 168.00 133.08 C 168.31 134.11 169.39 134.69 170.41 134.38 C 171.44 134.07 172.02 132.99 171.71 131.97 L 171.42 131.00 C 171.11 129.98 170.03 129.40 169.01 129.71 C 167.98 130.02 167.40 131.10 167.71 132.12 Z M 168.00 133.09 L 168.30 134.07 C 168.61 135.10 169.70 135.67 170.72 135.36 C 171.74 135.05 172.32 133.97 172.01 132.94 L 171.71 131.96 C 171.40 130.94 170.31 130.36 169.29 130.67 C 168.27 130.98 167.69 132.07 168.00 133.09 Z M 168.30 134.07 L 168.60 135.04 C 168.91 136.07 169.99 136.64 171.01 136.33 C 172.04 136.02 172.61 134.94 172.30 133.92 L 172.01 132.95 C 171.70 131.92 170.62 131.34 169.59 131.66 C 168.57 131.97 167.99 133.05 168.30 134.07 Z M 168.59 135.03 L 168.87 135.96 C 169.18 136.99 170.26 137.57 171.28 137.26 C 172.31 136.96 172.89 135.88 172.58 134.85 L 172.31 133.93 C 172.00 132.90 170.92 132.32 169.90 132.62 C 168.87 132.93 168.29 134.01 168.59 135.03 Z M 168.86 135.94 L 169.16 136.98 C 169.46 138.01 170.53 138.60 171.56 138.31 C 172.59 138.01 173.18 136.94 172.89 135.91 L 172.59 134.87 C 172.29 133.84 171.22 133.25 170.19 133.54 C 169.16 133.84 168.57 134.91 168.86 135.94 Z M 169.16 136.95 L 169.42 137.92 C 169.70 138.96 170.77 139.56 171.80 139.28 C 172.83 139.00 173.44 137.93 173.16 136.90 L 172.89 135.93 C 172.61 134.90 171.55 134.29 170.51 134.58 C 169.48 134.86 168.87 135.92 169.16 136.95 Z M 169.42 137.90 L 169.66 138.82 C 169.93 139.85 170.99 140.47 172.02 140.20 C 173.06 139.93 173.67 138.87 173.40 137.84 L 173.16 136.92 C 172.89 135.89 171.83 135.27 170.80 135.54 C 169.77 135.81 169.15 136.87 169.42 137.90 Z M 169.66 138.81 L 169.89 139.73 C 170.16 140.76 171.21 141.38 172.24 141.12 C 173.28 140.86 173.90 139.80 173.64 138.77 L 173.40 137.85 C 173.14 136.81 172.09 136.19 171.05 136.45 C 170.02 136.72 169.39 137.77 169.66 138.81 Z M 169.89 139.72 L 170.13 140.67 C 170.39 141.70 171.44 142.33 172.48 142.07 C 173.51 141.81 174.14 140.76 173.88 139.73 L 173.64 138.77 C 173.38 137.74 172.33 137.11 171.29 137.37 C 170.26 137.63 169.63 138.68 169.89 139.72 Z M 170.13 140.66 L 170.37 141.63 C 170.62 142.67 171.67 143.30 172.70 143.05 C 173.74 142.79 174.37 141.75 174.12 140.71 L 173.88 139.74 C 173.62 138.70 172.58 138.07 171.54 138.32 C 170.51 138.58 169.87 139.62 170.13 140.66 Z M 170.37 141.62 L 170.60 142.61 C 170.85 143.65 171.89 144.29 172.93 144.04 C 173.96 143.80 174.60 142.75 174.36 141.72 L 174.12 140.72 C 173.87 139.69 172.83 139.05 171.80 139.30 C 170.76 139.54 170.12 140.58 170.37 141.62 Z M 170.60 142.60 L 170.82 143.53 C 171.06 144.57 172.09 145.21 173.13 144.97 C 174.16 144.73 174.81 143.70 174.57 142.66 L 174.36 141.73 C 174.12 140.70 173.08 140.05 172.05 140.29 C 171.01 140.53 170.36 141.56 170.60 142.60 Z M 170.82 143.51 L 171.03 144.48 C 171.26 145.51 172.29 146.17 173.33 145.94 C 174.36 145.71 175.02 144.68 174.79 143.64 L 174.57 142.68 C 174.34 141.64 173.31 140.99 172.28 141.22 C 171.24 141.45 170.59 142.48 170.82 143.51 Z M 171.03 144.46 L 171.25 145.46 C 171.47 146.50 172.49 147.16 173.52 146.94 C 174.56 146.72 175.22 145.70 175.00 144.66 L 174.79 143.66 C 174.57 142.62 173.55 141.96 172.51 142.18 C 171.47 142.40 170.81 143.42 171.03 144.46 Z M 171.25 145.45 L 171.45 146.46 C 171.66 147.49 172.68 148.16 173.71 147.95 C 174.75 147.74 175.42 146.73 175.21 145.69 L 175.00 144.68 C 174.79 143.64 173.78 142.97 172.74 143.19 C 171.70 143.40 171.03 144.41 171.25 145.45 Z M 171.45 146.44 L 171.65 147.42 C 171.85 148.46 172.85 149.14 173.89 148.93 C 174.93 148.73 175.60 147.72 175.40 146.69 L 175.21 145.71 C 175.00 144.67 174.00 143.99 172.96 144.20 C 171.93 144.40 171.25 145.41 171.45 146.44 Z M 171.65 147.41 L 171.84 148.40 C 172.03 149.44 173.03 150.12 174.06 149.92 C 175.10 149.73 175.78 148.73 175.58 147.70 L 175.40 146.70 C 175.20 145.67 174.20 144.99 173.17 145.18 C 172.14 145.38 171.46 146.37 171.65 147.41 Z M 171.84 148.39 L 172.02 149.38 C 172.20 150.41 173.19 151.10 174.23 150.91 C 175.26 150.72 175.94 149.74 175.76 148.70 L 175.58 147.71 C 175.39 146.68 174.41 146.00 173.37 146.18 C 172.34 146.37 171.65 147.36 171.84 148.39 Z M 172.02 149.36 L 172.19 150.35 C 172.37 151.38 173.35 152.07 174.38 151.89 C 175.41 151.72 176.10 150.74 175.92 149.71 L 175.75 148.72 C 175.58 147.69 174.60 147.00 173.57 147.17 C 172.54 147.35 171.85 148.33 172.02 149.36 Z M 172.19 150.33 L 172.36 151.33 C 172.52 152.36 173.49 153.06 174.52 152.89 C 175.55 152.73 176.25 151.76 176.08 150.73 L 175.92 149.72 C 175.75 148.70 174.78 148.00 173.76 148.16 C 172.73 148.33 172.03 149.30 172.19 150.33 Z M 172.36 151.32 L 172.51 152.30 C 172.67 153.32 173.63 154.03 174.66 153.87 C 175.68 153.71 176.39 152.75 176.23 151.73 L 176.08 150.75 C 175.92 149.72 174.96 149.01 173.93 149.17 C 172.91 149.33 172.20 150.29 172.36 151.32 Z M 172.52 152.28 L 172.66 153.26 C 172.81 154.28 173.76 154.99 174.79 154.84 C 175.81 154.69 176.52 153.74 176.37 152.71 L 176.22 151.74 C 176.07 150.71 175.12 150.01 174.10 150.16 C 173.07 150.31 172.37 151.26 172.52 152.28 Z M 172.66 153.25 L 172.80 154.22 C 172.95 155.24 173.89 155.95 174.92 155.81 C 175.94 155.66 176.65 154.71 176.50 153.69 L 176.36 152.72 C 176.22 151.70 175.27 150.99 174.25 151.14 C 173.23 151.28 172.52 152.23 172.66 153.25 Z M 172.81 154.21 L 172.95 155.19 C 173.09 156.21 174.03 156.92 175.04 156.78 C 176.06 156.64 176.77 155.70 176.63 154.68 L 176.49 153.70 C 176.35 152.68 175.41 151.97 174.40 152.11 C 173.38 152.26 172.67 153.20 172.81 154.21 Z M 172.95 155.18 L 173.08 156.18 C 173.22 157.19 174.15 157.90 175.17 157.77 C 176.18 157.63 176.89 156.70 176.76 155.68 L 176.62 154.69 C 176.49 153.68 175.56 152.96 174.54 153.10 C 173.53 153.24 172.82 154.17 172.95 155.18 Z M 173.09 156.16 L 173.22 157.17 C 173.34 158.18 174.27 158.89 175.28 158.77 C 176.29 158.64 177.01 157.72 176.88 156.70 L 176.75 155.70 C 176.62 154.69 175.70 153.97 174.69 154.10 C 173.68 154.23 172.96 155.15 173.09 156.16 Z M 173.22 157.15 L 173.34 158.15 C 173.46 159.16 174.37 159.88 175.38 159.76 C 176.39 159.65 177.11 158.73 176.99 157.72 L 176.87 156.72 C 176.76 155.71 175.84 154.99 174.83 155.11 C 173.83 155.23 173.10 156.14 173.22 157.15 Z M 173.35 158.14 L 173.46 159.14 C 173.57 160.14 174.47 160.87 175.47 160.76 C 176.48 160.65 177.20 159.74 177.09 158.74 L 176.98 157.74 C 176.87 156.73 175.97 156.01 174.97 156.12 C 173.96 156.23 173.24 157.13 173.35 158.14 Z M 173.46 159.13 L 173.57 160.13 C 173.67 161.13 174.57 161.85 175.57 161.75 C 176.57 161.64 177.30 160.75 177.19 159.74 L 177.09 158.75 C 176.98 157.75 176.09 157.02 175.08 157.12 C 174.08 157.23 173.36 158.13 173.46 159.13 Z M 173.57 160.12 L 173.68 161.11 C 173.78 162.11 174.67 162.83 175.67 162.73 C 176.66 162.63 177.39 161.73 177.29 160.74 L 177.18 159.75 C 177.08 158.75 176.19 158.03 175.19 158.13 C 174.20 158.23 173.47 159.12 173.57 160.12 Z M 173.68 161.11 L 173.79 162.11 C 173.89 163.11 174.78 163.83 175.77 163.72 C 176.76 163.62 177.49 162.73 177.38 161.74 L 177.28 160.74 C 177.18 159.74 176.29 159.02 175.30 159.13 C 174.30 159.23 173.58 160.12 173.68 161.11 Z M 173.80 162.11 L 173.90 163.11 C 174.00 164.10 174.88 164.82 175.87 164.72 C 176.86 164.62 177.58 163.73 177.48 162.75 L 177.37 161.74 C 177.27 160.76 176.39 160.04 175.40 160.14 C 174.42 160.24 173.70 161.12 173.80 162.11 Z M 173.91 163.09 L 174.00 164.08 C 174.09 165.07 174.96 165.79 175.95 165.70 C 176.93 165.61 177.65 164.73 177.56 163.75 L 177.47 162.76 C 177.38 161.78 176.50 161.05 175.52 161.15 C 174.54 161.24 173.81 162.11 173.91 163.09 Z M 174.00 164.06 L 174.08 165.05 C 174.16 166.03 175.02 166.76 176.00 166.68 C 176.98 166.60 177.71 165.74 177.64 164.76 L 177.56 163.77 C 177.48 162.79 176.62 162.06 175.64 162.14 C 174.66 162.22 173.93 163.08 174.00 164.06 Z M 174.09 165.02 L 174.15 166.00 C 174.22 166.97 175.06 167.72 176.04 167.65 C 177.01 167.59 177.75 166.75 177.69 165.77 L 177.63 164.79 C 177.57 163.81 176.72 163.07 175.75 163.13 C 174.77 163.20 174.03 164.04 174.09 165.02 Z M 174.16 165.98 L 174.21 166.96 C 174.26 167.94 175.09 168.68 176.07 168.63 C 177.04 168.58 177.79 167.75 177.74 166.78 L 177.68 165.79 C 177.63 164.82 176.80 164.07 175.83 164.12 C 174.86 164.17 174.11 165.00 174.16 165.98 Z M 174.22 166.96 L 174.27 167.96 C 174.31 168.93 175.14 169.67 176.10 169.63 C 177.07 169.58 177.82 168.76 177.77 167.79 L 177.73 166.79 C 177.68 165.82 176.86 165.07 175.89 165.12 C 174.92 165.17 174.18 165.99 174.22 166.96 Z M 174.28 167.96 L 174.33 168.96 C 174.37 169.92 175.19 170.66 176.15 170.62 C 177.12 170.57 177.86 169.75 177.81 168.79 L 177.76 167.79 C 177.72 166.83 176.90 166.09 175.94 166.13 C 174.97 166.18 174.23 167.00 174.28 167.96 Z M 174.34 168.97 L 174.38 169.83 C 174.43 170.79 175.25 171.52 176.21 171.47 C 177.17 171.42 177.90 170.60 177.85 169.64 L 177.80 168.78 C 177.75 167.82 176.93 167.09 175.98 167.14 C 175.02 167.19 174.28 168.01 174.34 168.97 Z M 174.39 169.83 L 174.44 170.75 C 174.50 171.70 175.32 172.43 176.27 172.37 C 177.22 172.32 177.95 171.50 177.89 170.55 L 177.84 169.63 C 177.79 168.68 176.97 167.95 176.02 168.01 C 175.06 168.06 174.34 168.88 174.39 169.83 Z M 174.45 170.75 L 174.51 171.75 C 174.57 172.70 175.38 173.42 176.33 173.37 C 177.28 173.31 178.00 172.50 177.94 171.55 L 177.89 170.55 C 177.83 169.60 177.02 168.88 176.07 168.93 C 175.12 168.99 174.40 169.80 174.45 170.75 Z M 174.52 171.75 L 174.59 172.87 C 174.64 173.81 175.45 174.53 176.39 174.48 C 177.34 174.42 178.06 173.62 178.00 172.67 L 177.94 171.55 C 177.88 170.61 177.07 169.89 176.13 169.95 C 175.19 170.00 174.47 170.81 174.52 171.75 Z M 174.59 172.87 L 174.66 173.95 C 174.71 174.89 175.51 175.60 176.45 175.55 C 177.39 175.50 178.11 174.69 178.05 173.76 L 177.99 172.68 C 177.94 171.74 177.14 171.02 176.20 171.07 C 175.26 171.13 174.54 171.93 174.59 172.87 Z M 174.66 173.95 L 174.72 174.93 C 174.77 175.86 175.57 176.58 176.50 176.52 C 177.44 176.47 178.16 175.67 178.10 174.74 L 178.05 173.76 C 178.00 172.82 177.19 172.11 176.26 172.16 C 175.32 172.21 174.61 173.01 174.66 173.95 Z M 174.72 174.93 L 174.78 175.95 C 174.84 176.89 175.64 177.60 176.57 177.54 C 177.50 177.49 178.21 176.69 178.16 175.76 L 178.10 174.73 C 178.04 173.80 177.24 173.09 176.31 173.14 C 175.38 173.20 174.67 174.00 174.72 174.93 Z M 174.79 175.96 L 174.85 177.01 C 174.91 177.94 175.72 178.64 176.65 178.58 C 177.57 178.52 178.28 177.72 178.22 176.79 L 178.15 175.75 C 178.09 174.82 177.29 174.11 176.36 174.17 C 175.43 174.23 174.73 175.03 174.79 175.96 Z M 174.86 177.02 L 174.93 178.05 C 175.00 178.98 175.81 179.68 176.73 179.61 C 177.66 179.54 178.36 178.74 178.29 177.81 L 178.22 176.78 C 178.15 175.85 177.34 175.15 176.41 175.22 C 175.49 175.29 174.79 176.09 174.86 177.02 Z M 174.94 178.07 L 175.02 179.07 C 175.10 180.00 175.92 180.68 176.84 180.60 C 177.76 180.53 178.45 179.71 178.37 178.79 L 178.28 177.79 C 178.21 176.87 177.39 176.18 176.47 176.26 C 175.55 176.34 174.86 177.15 174.94 178.07 Z M 175.03 179.10 L 175.13 180.04 C 175.22 180.96 176.04 181.63 176.96 181.54 C 177.88 181.44 178.55 180.62 178.46 179.70 L 178.36 178.76 C 178.27 177.84 177.45 177.17 176.53 177.27 C 175.61 177.36 174.94 178.18 175.03 179.10 Z M 175.14 180.09 L 175.29 181.26 C 175.41 182.17 176.25 182.81 177.16 182.69 C 178.08 182.57 178.72 181.74 178.60 180.82 L 178.45 179.65 C 178.33 178.74 177.49 178.10 176.58 178.22 C 175.66 178.34 175.02 179.17 175.14 180.09 Z M 175.31 181.31 L 175.48 182.35 C 175.63 183.25 176.49 183.86 177.39 183.71 C 178.30 183.56 178.91 182.71 178.76 181.80 L 178.58 180.77 C 178.43 179.86 177.58 179.25 176.67 179.40 C 175.77 179.55 175.16 180.41 175.31 181.31 Z M 175.50 182.40 L 175.68 183.33 C 175.86 184.23 176.73 184.81 177.63 184.63 C 178.52 184.46 179.10 183.59 178.93 182.69 L 178.74 181.75 C 178.56 180.86 177.69 180.27 176.80 180.45 C 175.90 180.63 175.32 181.50 175.50 182.40 Z M 175.70 183.37 L 175.89 184.25 C 176.09 185.13 176.97 185.69 177.86 185.50 C 178.74 185.30 179.30 184.42 179.11 183.53 L 178.91 182.66 C 178.71 181.77 177.84 181.21 176.95 181.41 C 176.06 181.60 175.50 182.48 175.70 183.37 Z M 175.90 184.26 L 176.04 184.84 C 176.24 185.72 177.12 186.27 178.00 186.07 C 178.89 185.86 179.44 184.98 179.23 184.10 L 179.10 183.52 C 178.89 182.64 178.01 182.09 177.13 182.29 C 176.25 182.50 175.70 183.38 175.90 184.26 Z"
      fill="black"
      fill-rule="nonzero" /></svg>