<svg xmlns="http://www.w3.org/2000/svg" width="300" height="300" viewBox="0 0 300 300">
<path d="M 140.48 151.39 L 139.76 150.45 C 139.15 149.65 138.01 149.50 137.21 150.11 C 136.41 150.72 136.26 151.87 136.88 152.66 L 137.60 153.60 C 138.21 154.40 139.35 154.55 140.15 153.94 C 140.94 153.33 141.09 152.19 140.48 151.39 Z M 139.94 150.66 L 139.46 149.80 C 138.97 148.91 137.84 148.58 136.95 149.08 C 136.06 149.57 135.73 150.69 136.22 151.59 L 136.70 152.45 C 137.19 153.34 138.32 153.67 139.21 153.17 C 140.11 152.68 140.43 151.56 139.94 150.66 Z M 139.72 150.73 L 139.73 150.04 C 139.76 149.00 138.93 148.15 137.90 148.12 C 136.86 148.10 136.00 148.92 135.98 149.96 L 135.97 150.65 C 135.94 151.69 136.77 152.55 137.80 152.57 C 138.84 152.59 139.70 151.77 139.72 150.73 Z M 139.06 151.46 L 139.65 150.98 C 140.46 150.31 140.57 149.12 139.91 148.31 C 139.24 147.50 138.05 147.39 137.24 148.06 L 136.65 148.54 C 135.85 149.20 135.73 150.40 136.40 151.21 C 137.06 152.01 138.26 152.13 139.06 151.46 Z M 139.04 151.33 L 140.06 150.99 C 141.06 150.66 141.60 149.58 141.27 148.58 C 140.94 147.58 139.86 147.04 138.86 147.37 L 137.84 147.71 C 136.84 148.04 136.30 149.12 136.64 150.12 C 136.97 151.12 138.04 151.66 139.04 151.33 Z M 139.82 151.06 L 140.97 150.84 C 142.01 150.64 142.69 149.64 142.49 148.60 C 142.29 147.56 141.29 146.88 140.25 147.08 L 139.10 147.30 C 138.07 147.50 137.39 148.50 137.58 149.54 C 137.78 150.58 138.78 151.26 139.82 151.06 Z M 140.87 150.86 L 141.79 150.73 C 142.84 150.59 143.57 149.62 143.43 148.58 C 143.29 147.53 142.32 146.79 141.27 146.93 L 140.35 147.06 C 139.30 147.20 138.57 148.17 138.71 149.22 C 138.86 150.27 139.82 151.00 140.87 150.86 Z M 141.72 150.74 L 142.70 150.65 C 143.75 150.54 144.52 149.60 144.42 148.55 C 144.31 147.49 143.37 146.72 142.32 146.83 L 141.34 146.93 C 140.29 147.03 139.52 147.97 139.62 149.02 C 139.73 150.08 140.67 150.85 141.72 150.74 Z M 142.63 150.65 L 143.66 150.58 C 144.72 150.51 145.52 149.60 145.45 148.54 C 145.38 147.49 144.47 146.69 143.41 146.76 L 142.38 146.82 C 141.32 146.89 140.52 147.81 140.59 148.86 C 140.66 149.92 141.58 150.72 142.63 150.65 Z M 143.60 150.59 L 144.68 150.55 C 145.74 150.51 146.56 149.62 146.53 148.56 C 146.49 147.51 145.60 146.68 144.54 146.71 L 143.47 146.75 C 142.41 146.79 141.58 147.68 141.62 148.74 C 141.66 149.80 142.55 150.62 143.60 150.59 Z M 144.62 150.55 L 145.65 150.54 C 146.71 150.54 147.57 149.68 147.56 148.62 C 147.55 147.56 146.69 146.70 145.63 146.71 L 144.60 146.71 C 143.54 146.72 142.68 147.58 142.69 148.64 C 142.70 149.70 143.56 150.56 144.62 150.55 Z M 145.59 150.54 L 146.61 150.57 C 147.67 150.60 148.55 149.77 148.58 148.71 C 148.61 147.65 147.78 146.77 146.72 146.74 L 145.70 146.71 C 144.64 146.68 143.75 147.51 143.72 148.57 C 143.69 149.63 144.53 150.51 145.59 150.54 Z M 146.52 150.57 L 147.54 150.64 C 148.60 150.72 149.52 149.93 149.59 148.87 C 149.67 147.81 148.88 146.89 147.82 146.82 L 146.80 146.74 C 145.75 146.66 144.83 147.46 144.75 148.52 C 144.67 149.57 145.47 150.49 146.52 150.57 Z M 147.43 150.63 L 148.42 150.76 C 149.47 150.90 150.43 150.16 150.57 149.11 C 150.71 148.06 149.97 147.09 148.92 146.96 L 147.93 146.83 C 146.88 146.69 145.91 147.43 145.78 148.48 C 145.64 149.53 146.38 150.50 147.43 150.63 Z M 148.28 150.74 L 149.22 150.93 C 150.26 151.14 151.27 150.48 151.49 149.44 C 151.70 148.40 151.03 147.39 149.99 147.17 L 149.05 146.98 C 148.02 146.77 147.00 147.43 146.79 148.47 C 146.57 149.51 147.24 150.52 148.28 150.74 Z M 149.04 150.88 L 150.06 151.20 C 151.07 151.52 152.15 150.96 152.46 149.94 C 152.78 148.93 152.22 147.86 151.21 147.54 L 150.18 147.22 C 149.17 146.90 148.09 147.47 147.78 148.48 C 147.46 149.49 148.02 150.57 149.04 150.88 Z M 149.86 151.13 L 150.81 151.55 C 151.78 151.98 152.91 151.54 153.34 150.57 C 153.77 149.60 153.33 148.47 152.36 148.04 L 151.41 147.62 C 150.44 147.19 149.31 147.63 148.88 148.60 C 148.45 149.57 148.89 150.70 149.86 151.13 Z M 150.63 151.46 L 151.48 151.95 C 152.40 152.48 153.57 152.16 154.10 151.24 C 154.63 150.32 154.31 149.15 153.40 148.62 L 152.55 148.13 C 151.63 147.60 150.45 147.92 149.92 148.83 C 149.40 149.75 149.71 150.93 150.63 151.46 Z M 151.32 151.84 L 152.06 152.38 C 152.92 153.00 154.12 152.80 154.74 151.94 C 155.36 151.08 155.16 149.88 154.30 149.26 L 153.56 148.73 C 152.70 148.11 151.50 148.30 150.88 149.16 C 150.26 150.02 150.46 151.22 151.32 151.84 Z M 151.91 152.25 L 152.67 152.93 C 153.46 153.64 154.68 153.56 155.38 152.77 C 156.08 151.98 156.01 150.77 155.22 150.06 L 154.46 149.38 C 153.66 148.68 152.45 148.75 151.75 149.54 C 151.04 150.34 151.12 151.55 151.91 152.25 Z M 152.51 152.77 L 153.17 153.52 C 153.87 154.31 155.08 154.39 155.88 153.69 C 156.67 152.98 156.75 151.77 156.04 150.98 L 155.38 150.23 C 154.68 149.43 153.47 149.36 152.68 150.06 C 151.88 150.76 151.81 151.97 152.51 152.77 Z M 153.02 153.33 L 153.56 154.12 C 154.16 155.00 155.35 155.23 156.23 154.63 C 157.10 154.03 157.33 152.84 156.73 151.96 L 156.19 151.17 C 155.60 150.29 154.40 150.07 153.53 150.66 C 152.65 151.26 152.43 152.45 153.02 153.33 Z M 153.45 153.94 L 153.90 154.78 C 154.39 155.72 155.55 156.08 156.49 155.58 C 157.43 155.09 157.78 153.93 157.29 152.99 L 156.84 152.15 C 156.35 151.21 155.19 150.86 154.25 151.35 C 153.32 151.84 152.96 153.00 153.45 153.94 Z M 153.82 154.60 L 154.18 155.50 C 154.58 156.48 155.69 156.96 156.67 156.56 C 157.65 156.17 158.13 155.05 157.73 154.07 L 157.37 153.17 C 156.97 152.19 155.86 151.72 154.88 152.11 C 153.90 152.51 153.43 153.62 153.82 154.60 Z M 154.13 155.32 L 154.41 156.29 C 154.70 157.31 155.76 157.89 156.77 157.59 C 157.79 157.30 158.37 156.24 158.07 155.23 L 157.79 154.25 C 157.50 153.24 156.44 152.66 155.42 152.95 C 154.41 153.25 153.83 154.31 154.13 155.32 Z M 154.37 156.12 L 154.56 157.12 C 154.76 158.15 155.76 158.83 156.79 158.63 C 157.83 158.43 158.50 157.43 158.30 156.40 L 158.11 155.40 C 157.91 154.37 156.92 153.69 155.88 153.89 C 154.85 154.09 154.17 155.09 154.37 156.12 Z M 154.54 156.98 L 154.65 157.90 C 154.77 158.95 155.72 159.69 156.76 159.57 C 157.80 159.45 158.55 158.51 158.43 157.46 L 158.32 156.54 C 158.20 155.50 157.26 154.75 156.21 154.87 C 155.17 154.99 154.42 155.93 154.54 156.98 Z M 154.65 157.81 L 154.71 158.80 C 154.78 159.84 155.69 160.63 156.73 160.56 C 157.78 160.49 158.57 159.59 158.50 158.54 L 158.43 157.56 C 158.36 156.51 157.46 155.72 156.41 155.79 C 155.37 155.86 154.58 156.76 154.65 157.81 Z M 154.71 158.73 L 154.75 159.78 C 154.79 160.82 155.66 161.64 156.71 161.61 C 157.75 161.57 158.57 160.69 158.54 159.65 L 158.50 158.60 C 158.46 157.56 157.59 156.74 156.54 156.78 C 155.49 156.81 154.68 157.69 154.71 158.73 Z M 154.75 159.75 L 154.77 160.79 C 154.79 161.83 155.65 162.66 156.69 162.65 C 157.74 162.63 158.57 161.77 158.55 160.72 L 158.53 159.68 C 158.52 158.63 157.65 157.80 156.61 157.82 C 155.57 157.84 154.73 158.70 154.75 159.75 Z M 154.77 160.76 L 154.78 161.71 C 154.78 162.75 155.63 163.60 156.67 163.59 C 157.72 163.59 158.56 162.74 158.55 161.70 L 158.55 160.75 C 158.54 159.70 157.70 158.86 156.65 158.87 C 155.61 158.87 154.77 159.72 154.77 160.76 Z M 154.78 161.67 L 154.76 162.65 C 154.74 163.69 155.57 164.55 156.61 164.57 C 157.65 164.59 158.51 163.76 158.53 162.72 L 158.55 161.74 C 158.57 160.70 157.74 159.84 156.70 159.82 C 155.66 159.80 154.80 160.63 154.78 161.67 Z M 154.77 162.58 L 154.71 163.59 C 154.65 164.63 155.44 165.52 156.48 165.57 C 157.52 165.63 158.40 164.84 158.46 163.81 L 158.52 162.79 C 158.58 161.76 157.79 160.87 156.75 160.81 C 155.72 160.75 154.83 161.54 154.77 162.58 Z M 154.72 163.50 L 154.61 164.54 C 154.50 165.57 155.25 166.49 156.28 166.60 C 157.31 166.71 158.23 165.96 158.34 164.93 L 158.45 163.90 C 158.56 162.87 157.82 161.94 156.79 161.83 C 155.75 161.72 154.83 162.47 154.72 163.50 Z M 154.63 164.43 L 154.47 165.43 C 154.30 166.45 154.99 167.41 156.01 167.58 C 157.03 167.75 157.99 167.06 158.16 166.04 L 158.32 165.04 C 158.49 164.02 157.80 163.05 156.78 162.89 C 155.76 162.72 154.80 163.41 154.63 164.43 Z M 154.49 165.33 L 154.28 166.27 C 154.05 167.28 154.69 168.28 155.70 168.50 C 156.70 168.73 157.70 168.09 157.93 167.08 L 158.14 166.14 C 158.36 165.13 157.73 164.13 156.72 163.91 C 155.71 163.68 154.71 164.32 154.49 165.33 Z M 154.30 166.18 L 154.04 167.14 C 153.77 168.13 154.35 169.16 155.35 169.43 C 156.34 169.70 157.37 169.12 157.64 168.12 L 157.90 167.17 C 158.17 166.18 157.59 165.15 156.59 164.88 C 155.60 164.61 154.58 165.19 154.30 166.18 Z M 154.07 167.06 L 153.76 168.02 C 153.45 169.00 153.99 170.05 154.97 170.36 C 155.95 170.68 156.99 170.14 157.31 169.16 L 157.61 168.20 C 157.93 167.22 157.39 166.17 156.41 165.86 C 155.43 165.54 154.38 166.08 154.07 167.06 Z M 153.79 167.96 L 153.44 168.92 C 153.09 169.89 153.59 170.95 154.55 171.30 C 155.52 171.65 156.58 171.15 156.93 170.18 L 157.28 169.22 C 157.63 168.26 157.13 167.19 156.17 166.84 C 155.20 166.49 154.14 166.99 153.79 167.96 Z M 153.46 168.86 L 153.08 169.82 C 152.70 170.78 153.16 171.85 154.11 172.23 C 155.07 172.62 156.14 172.15 156.52 171.20 L 156.91 170.24 C 157.29 169.29 156.83 168.21 155.87 167.83 C 154.92 167.45 153.84 167.91 153.46 168.86 Z M 153.10 169.77 L 152.68 170.75 C 152.27 171.69 152.70 172.78 153.64 173.19 C 154.58 173.60 155.67 173.17 156.08 172.23 L 156.50 171.25 C 156.91 170.31 156.48 169.22 155.54 168.81 C 154.60 168.41 153.51 168.84 153.10 169.77 Z M 152.70 170.71 L 152.26 171.67 C 151.83 172.60 152.23 173.70 153.16 174.13 C 154.08 174.56 155.18 174.15 155.61 173.23 L 156.06 172.27 C 156.48 171.34 156.08 170.24 155.15 169.81 C 154.23 169.38 153.13 169.79 152.70 170.71 Z M 152.27 171.64 L 151.82 172.56 C 151.38 173.48 151.76 174.59 152.67 175.03 C 153.59 175.48 154.70 175.10 155.14 174.18 L 155.59 173.26 C 156.04 172.34 155.66 171.24 154.74 170.79 C 153.83 170.34 152.72 170.72 152.27 171.64 Z M 151.84 172.54 L 151.40 173.41 C 150.94 174.32 151.30 175.43 152.21 175.89 C 153.11 176.35 154.22 175.99 154.68 175.08 L 155.13 174.21 C 155.59 173.30 155.22 172.19 154.32 171.73 C 153.41 171.27 152.30 171.63 151.84 172.54 Z M 151.41 173.40 L 150.99 174.21 C 150.51 175.11 150.86 176.22 151.76 176.69 C 152.66 177.16 153.77 176.81 154.25 175.91 L 154.67 175.10 C 155.14 174.20 154.79 173.09 153.89 172.62 C 152.99 172.15 151.88 172.49 151.41 173.40 Z M 151.00 174.19 L 150.52 175.09 C 150.04 175.99 150.37 177.10 151.27 177.58 C 152.16 178.05 153.27 177.72 153.75 176.83 L 154.23 175.93 C 154.71 175.03 154.37 173.92 153.48 173.44 C 152.59 172.96 151.48 173.30 151.00 174.19 Z M 150.54 175.07 L 150.05 175.96 C 149.56 176.84 149.88 177.95 150.76 178.44 C 151.64 178.92 152.75 178.61 153.24 177.72 L 153.73 176.84 C 154.22 175.96 153.90 174.85 153.02 174.36 C 152.14 173.87 151.03 174.19 150.54 175.07 Z M 150.07 175.93 L 149.60 176.75 C 149.09 177.62 149.39 178.73 150.26 179.23 C 151.12 179.74 152.23 179.44 152.74 178.57 L 153.21 177.75 C 153.72 176.88 153.42 175.77 152.55 175.27 C 151.69 174.77 150.58 175.06 150.07 175.93 Z M 149.62 176.73 L 149.12 177.55 C 148.60 178.41 148.87 179.52 149.73 180.03 C 150.58 180.55 151.69 180.28 152.20 179.43 L 152.71 178.60 C 153.23 177.75 152.95 176.64 152.10 176.12 C 151.25 175.61 150.14 175.88 149.62 176.73 Z M 149.15 177.53 L 148.67 178.29 C 148.14 179.13 148.39 180.23 149.23 180.76 C 150.06 181.29 151.17 181.04 151.70 180.21 L 152.18 179.45 C 152.71 178.61 152.46 177.50 151.62 176.97 C 150.78 176.44 149.68 176.69 149.15 177.53 Z M 148.69 178.27 L 148.19 179.03 C 147.65 179.86 147.88 180.97 148.70 181.51 C 149.53 182.05 150.64 181.82 151.18 180.99 L 151.68 180.23 C 152.22 179.40 151.99 178.29 151.17 177.75 C 150.34 177.21 149.23 177.44 148.69 178.27 Z M 148.21 179.01 L 147.65 179.82 C 147.10 180.64 147.31 181.75 148.12 182.30 C 148.94 182.86 150.05 182.65 150.60 181.83 L 151.16 181.02 C 151.71 180.20 151.50 179.09 150.69 178.54 C 149.87 177.98 148.77 178.19 148.21 179.01 Z M 147.68 179.80 L 147.06 180.66 C 146.49 181.46 146.68 182.57 147.48 183.14 C 148.28 183.71 149.39 183.52 149.96 182.72 L 150.58 181.86 C 151.14 181.06 150.96 179.95 150.16 179.38 C 149.36 178.81 148.25 179.00 147.68 179.80 Z M 147.09 180.63 L 146.41 181.54 C 145.83 182.33 145.99 183.44 146.77 184.02 C 147.56 184.61 148.67 184.45 149.25 183.66 L 149.93 182.75 C 150.52 181.97 150.36 180.86 149.57 180.27 C 148.79 179.69 147.68 179.85 147.09 180.63 Z M 146.44 181.52 L 145.87 182.26 C 145.27 183.03 145.41 184.14 146.18 184.74 C 146.95 185.33 148.05 185.19 148.65 184.42 L 149.23 183.68 C 149.82 182.91 149.68 181.81 148.91 181.21 C 148.14 180.61 147.04 180.75 146.44 181.52 Z M 145.89 182.25 L 145.29 183.00 C 144.69 183.76 144.81 184.86 145.57 185.47 C 146.32 186.07 147.42 185.95 148.03 185.19 L 148.63 184.44 C 149.23 183.68 149.11 182.58 148.35 181.97 C 147.59 181.37 146.49 181.50 145.89 182.25 Z M 145.31 183.00 L 144.68 183.77 C 144.07 184.51 144.19 185.61 144.93 186.22 C 145.68 186.82 146.77 186.71 147.38 185.97 L 148.01 185.20 C 148.62 184.45 148.50 183.35 147.76 182.75 C 147.01 182.14 145.92 182.25 145.31 183.00 Z M 144.70 183.76 L 144.05 184.55 C 143.44 185.28 143.54 186.37 144.28 186.98 C 145.02 187.59 146.11 187.49 146.71 186.75 L 147.36 185.97 C 147.97 185.23 147.87 184.14 147.13 183.53 C 146.40 182.93 145.31 183.03 144.70 183.76 Z M 144.06 184.55 L 143.40 185.34 C 142.79 186.07 142.89 187.16 143.62 187.76 C 144.34 188.37 145.43 188.28 146.04 187.55 L 146.70 186.75 C 147.31 186.02 147.21 184.94 146.48 184.33 C 145.76 183.72 144.67 183.82 144.06 184.55 Z M 143.41 185.35 L 142.74 186.15 C 142.13 186.87 142.23 187.95 142.95 188.55 C 143.67 189.16 144.74 189.07 145.35 188.34 L 146.02 187.54 C 146.63 186.82 146.54 185.75 145.82 185.14 C 145.09 184.53 144.02 184.63 143.41 185.35 Z M 142.75 186.15 L 142.52 186.43 C 141.91 187.14 142.00 188.21 142.72 188.82 C 143.44 189.42 144.51 189.33 145.11 188.61 L 145.34 188.34 C 145.95 187.62 145.86 186.55 145.14 185.95 C 144.42 185.34 143.35 185.43 142.75 186.15 Z"
      fill="black"
      fill-rule="nonzero" /></svg>