<svg xmlns="http://www.w3.org/2000/svg" width="300" height="300" viewBox="0 0 300 300">
<path d="M 140.68 140.00 L 141.63 139.77 C 142.64 139.52 143.26 138.50 143.01 137.49 C 142.76 136.48 141.74 135.86 140.73 136.11 L 139.79 136.34 C 138.78 136.59 138.16 137.61 138.40 138.62 C 138.65 139.63 139.67 140.25 140.68 140.00 Z M 141.58 139.78 L 142.54 139.58 C 143.56 139.36 144.21 138.35 143.99 137.33 C 143.77 136.32 142.77 135.67 141.75 135.89 L 140.78 136.09 C 139.76 136.31 139.11 137.32 139.33 138.33 C 139.55 139.35 140.56 140.00 141.58 139.78 Z M 142.44 139.60 L 143.45 139.44 C 144.48 139.28 145.18 138.31 145.02 137.28 C 144.86 136.24 143.89 135.54 142.85 135.70 L 141.85 135.86 C 140.82 136.03 140.11 136.99 140.28 138.03 C 140.44 139.06 141.41 139.76 142.44 139.60 Z M 143.31 139.46 L 144.31 139.37 C 145.36 139.29 146.13 138.37 146.04 137.33 C 145.95 136.28 145.04 135.51 144.00 135.60 L 142.99 135.68 C 141.95 135.77 141.17 136.69 141.26 137.73 C 141.35 138.77 142.27 139.55 143.31 139.46 Z M 144.16 139.38 L 145.17 139.38 C 146.21 139.38 147.06 138.52 147.06 137.48 C 147.05 136.43 146.20 135.58 145.15 135.59 L 144.15 135.59 C 143.10 135.59 142.25 136.45 142.26 137.49 C 142.26 138.54 143.11 139.39 144.16 139.38 Z M 144.99 139.37 L 146.00 139.46 C 147.05 139.55 147.97 138.78 148.06 137.74 C 148.15 136.69 147.38 135.77 146.33 135.68 L 145.32 135.59 C 144.28 135.50 143.36 136.27 143.27 137.32 C 143.17 138.36 143.95 139.28 144.99 139.37 Z M 145.79 139.44 L 146.77 139.63 C 147.80 139.84 148.80 139.17 149.01 138.14 C 149.21 137.11 148.55 136.11 147.52 135.90 L 146.54 135.71 C 145.51 135.50 144.51 136.17 144.30 137.20 C 144.09 138.23 144.76 139.23 145.79 139.44 Z M 146.52 139.57 L 147.46 139.89 C 148.45 140.23 149.54 139.70 149.88 138.71 C 150.22 137.71 149.69 136.63 148.70 136.29 L 147.76 135.97 C 146.77 135.62 145.68 136.15 145.34 137.15 C 145.00 138.14 145.53 139.22 146.52 139.57 Z M 147.23 139.79 L 148.12 140.23 C 149.06 140.70 150.20 140.31 150.67 139.37 C 151.14 138.43 150.75 137.29 149.81 136.82 L 148.92 136.38 C 147.98 135.92 146.84 136.30 146.37 137.24 C 145.91 138.19 146.29 139.33 147.23 139.79 Z M 147.94 140.13 L 148.79 140.67 C 149.67 141.23 150.85 140.97 151.41 140.08 C 151.98 139.20 151.72 138.02 150.83 137.46 L 149.98 136.92 C 149.10 136.36 147.92 136.62 147.36 137.51 C 146.79 138.39 147.06 139.57 147.94 140.13 Z M 148.66 140.58 L 149.47 141.19 C 150.31 141.82 151.51 141.65 152.14 140.81 C 152.77 139.97 152.60 138.78 151.76 138.15 L 150.95 137.54 C 150.11 136.91 148.92 137.08 148.29 137.92 C 147.65 138.76 147.82 139.95 148.66 140.58 Z M 149.39 141.12 L 150.14 141.76 C 150.94 142.44 152.14 142.35 152.82 141.54 C 153.50 140.74 153.40 139.54 152.60 138.86 L 151.85 138.22 C 151.05 137.54 149.85 137.64 149.17 138.44 C 148.49 139.24 148.58 140.44 149.39 141.12 Z M 150.05 141.68 L 150.78 142.38 C 151.53 143.11 152.74 143.08 153.46 142.33 C 154.19 141.57 154.17 140.37 153.41 139.64 L 152.69 138.94 C 151.94 138.22 150.73 138.24 150.00 138.99 C 149.28 139.75 149.30 140.95 150.05 141.68 Z M 150.68 142.28 L 151.36 143.03 C 152.06 143.81 153.26 143.87 154.04 143.17 C 154.82 142.47 154.88 141.27 154.18 140.49 L 153.51 139.74 C 152.81 138.96 151.60 138.90 150.83 139.60 C 150.05 140.30 149.98 141.50 150.68 142.28 Z M 151.26 142.91 L 151.87 143.70 C 152.50 144.54 153.69 144.70 154.53 144.06 C 155.36 143.43 155.52 142.24 154.88 141.40 L 154.28 140.61 C 153.64 139.78 152.45 139.62 151.62 140.25 C 150.79 140.89 150.63 142.08 151.26 142.91 Z M 151.78 143.56 L 152.30 144.39 C 152.86 145.28 154.02 145.54 154.90 144.99 C 155.79 144.43 156.05 143.27 155.50 142.39 L 154.98 141.55 C 154.42 140.67 153.25 140.40 152.37 140.95 C 151.49 141.51 151.22 142.67 151.78 143.56 Z M 152.22 144.23 L 152.67 145.12 C 153.13 146.05 154.26 146.42 155.19 145.96 C 156.11 145.49 156.49 144.36 156.02 143.43 L 155.58 142.55 C 155.12 141.62 153.99 141.24 153.06 141.71 C 152.13 142.17 151.76 143.30 152.22 144.23 Z M 152.60 144.95 L 152.96 145.89 C 153.33 146.85 154.41 147.33 155.38 146.96 C 156.34 146.59 156.82 145.51 156.45 144.55 L 156.09 143.61 C 155.72 142.64 154.64 142.16 153.68 142.53 C 152.71 142.90 152.23 143.98 152.60 144.95 Z M 152.91 145.71 L 153.18 146.69 C 153.46 147.68 154.48 148.26 155.47 147.98 C 156.46 147.71 157.04 146.68 156.77 145.69 L 156.50 144.72 C 156.22 143.73 155.20 143.15 154.21 143.42 C 153.22 143.70 152.64 144.72 152.91 145.71 Z M 153.16 146.54 L 153.35 147.53 C 153.54 148.53 154.51 149.19 155.51 149.00 C 156.51 148.81 157.17 147.84 156.98 146.84 L 156.79 145.85 C 156.60 144.85 155.63 144.19 154.63 144.38 C 153.63 144.57 152.97 145.53 153.16 146.54 Z M 153.34 147.41 L 153.47 148.41 C 153.59 149.42 154.50 150.13 155.51 150.01 C 156.52 149.89 157.23 148.97 157.11 147.97 L 156.98 146.96 C 156.86 145.95 155.95 145.24 154.94 145.36 C 153.94 145.49 153.22 146.40 153.34 147.41 Z M 153.47 148.31 L 153.54 149.31 C 153.61 150.31 154.48 151.07 155.48 151.00 C 156.48 150.93 157.24 150.06 157.17 149.06 L 157.10 148.07 C 157.04 147.06 156.17 146.30 155.16 146.37 C 154.16 146.44 153.40 147.31 153.47 148.31 Z M 153.55 149.23 L 153.57 150.22 C 153.59 151.22 154.42 152.01 155.42 151.99 C 156.42 151.96 157.21 151.14 157.18 150.14 L 157.16 149.15 C 157.14 148.15 156.31 147.36 155.31 147.38 C 154.32 147.40 153.53 148.23 153.55 149.23 Z M 153.59 150.12 L 153.56 151.13 C 153.53 152.11 154.30 152.94 155.29 152.97 C 156.27 153.00 157.10 152.23 157.13 151.24 L 157.17 150.24 C 157.20 149.25 156.42 148.42 155.44 148.39 C 154.45 148.36 153.62 149.13 153.59 150.12 Z M 153.59 150.98 L 153.48 151.95 C 153.36 152.92 154.05 153.80 155.02 153.91 C 155.99 154.03 156.87 153.33 156.98 152.36 L 157.10 151.39 C 157.21 150.42 156.52 149.54 155.55 149.43 C 154.58 149.31 153.71 150.01 153.59 150.98 Z M 153.53 151.76 L 153.31 152.73 C 153.09 153.67 153.67 154.61 154.61 154.82 C 155.55 155.04 156.49 154.45 156.71 153.51 L 156.93 152.55 C 157.15 151.61 156.56 150.67 155.62 150.45 C 154.68 150.24 153.75 150.82 153.53 151.76 Z M 153.38 152.54 L 153.06 153.43 C 152.74 154.33 153.21 155.32 154.11 155.64 C 155.01 155.96 156.00 155.49 156.32 154.59 L 156.64 153.70 C 156.95 152.80 156.48 151.81 155.58 151.49 C 154.69 151.17 153.70 151.64 153.38 152.54 Z M 153.13 153.29 L 152.74 154.15 C 152.34 155.01 152.72 156.03 153.58 156.42 C 154.44 156.82 155.46 156.44 155.86 155.58 L 156.25 154.73 C 156.65 153.87 156.27 152.85 155.41 152.45 C 154.55 152.06 153.53 152.43 153.13 153.29 Z M 152.80 154.06 L 152.32 154.93 C 151.88 155.76 152.19 156.80 153.02 157.24 C 153.85 157.69 154.88 157.38 155.33 156.55 L 155.80 155.67 C 156.25 154.85 155.94 153.81 155.11 153.36 C 154.28 152.92 153.24 153.23 152.80 154.06 Z M 152.37 154.87 L 151.83 155.78 C 151.35 156.58 151.61 157.62 152.42 158.10 C 153.22 158.58 154.26 158.32 154.74 157.52 L 155.28 156.61 C 155.76 155.81 155.50 154.77 154.69 154.29 C 153.89 153.81 152.85 154.07 152.37 154.87 Z M 151.86 155.74 L 151.30 156.63 C 150.80 157.41 151.03 158.45 151.82 158.95 C 152.60 159.45 153.65 159.22 154.14 158.44 L 154.71 157.55 C 155.21 156.77 154.98 155.72 154.19 155.22 C 153.41 154.72 152.36 154.96 151.86 155.74 Z M 151.32 156.61 L 150.82 157.36 C 150.31 158.14 150.52 159.18 151.30 159.69 C 152.07 160.20 153.11 159.99 153.62 159.21 L 154.12 158.46 C 154.63 157.68 154.42 156.64 153.65 156.13 C 152.88 155.62 151.84 155.83 151.32 156.61 Z M 150.85 157.34 L 150.31 158.12 C 149.78 158.88 149.98 159.92 150.73 160.44 C 151.49 160.97 152.53 160.78 153.06 160.02 L 153.60 159.24 C 154.12 158.48 153.93 157.44 153.17 156.91 C 152.41 156.39 151.37 156.58 150.85 157.34 Z M 150.34 158.09 L 149.76 158.89 C 149.22 159.64 149.38 160.68 150.13 161.22 C 150.87 161.76 151.91 161.59 152.45 160.85 L 153.03 160.04 C 153.57 159.30 153.41 158.26 152.66 157.72 C 151.92 157.18 150.88 157.35 150.34 158.09 Z M 149.79 158.86 L 149.15 159.69 C 148.60 160.41 148.74 161.45 149.46 162.01 C 150.19 162.57 151.23 162.43 151.79 161.70 L 152.42 160.88 C 152.98 160.15 152.84 159.11 152.11 158.55 C 151.38 158.00 150.34 158.13 149.79 158.86 Z M 149.19 159.65 L 148.50 160.51 C 147.92 161.22 148.03 162.26 148.74 162.83 C 149.45 163.40 150.49 163.30 151.06 162.59 L 151.75 161.73 C 152.33 161.03 152.22 159.99 151.51 159.41 C 150.80 158.84 149.76 158.95 149.19 159.65 Z M 148.53 160.48 L 147.89 161.22 C 147.30 161.91 147.38 162.95 148.07 163.54 C 148.76 164.14 149.80 164.05 150.39 163.36 L 151.03 162.62 C 151.62 161.93 151.54 160.89 150.85 160.30 C 150.16 159.71 149.12 159.79 148.53 160.48 Z M 147.91 161.20 L 147.28 161.91 C 146.68 162.58 146.74 163.62 147.42 164.23 C 148.10 164.83 149.14 164.77 149.74 164.09 L 150.37 163.39 C 150.97 162.71 150.91 161.67 150.23 161.07 C 149.56 160.46 148.52 160.52 147.91 161.20 Z M 147.30 161.89 L 146.64 162.61 C 146.03 163.28 146.07 164.32 146.74 164.93 C 147.41 165.55 148.45 165.50 149.06 164.83 L 149.72 164.11 C 150.34 163.44 150.29 162.40 149.62 161.79 C 148.95 161.18 147.91 161.22 147.30 161.89 Z M 146.65 162.60 L 145.96 163.33 C 145.34 163.99 145.38 165.03 146.04 165.65 C 146.70 166.27 147.74 166.24 148.36 165.58 L 149.05 164.85 C 149.67 164.18 149.63 163.15 148.97 162.52 C 148.31 161.90 147.27 161.94 146.65 162.60 Z M 145.98 163.32 L 145.27 164.06 C 144.64 164.72 144.66 165.75 145.32 166.38 C 145.98 167.01 147.01 166.98 147.64 166.33 L 148.35 165.59 C 148.97 164.93 148.95 163.89 148.30 163.27 C 147.64 162.64 146.60 162.66 145.98 163.32 Z M 145.27 164.06 L 144.55 164.80 C 143.92 165.45 143.94 166.49 144.59 167.12 C 145.24 167.75 146.28 167.73 146.91 167.08 L 147.63 166.33 C 148.26 165.68 148.24 164.65 147.59 164.02 C 146.94 163.39 145.90 163.40 145.27 164.06 Z M 144.56 164.80 L 143.83 165.55 C 143.20 166.20 143.21 167.24 143.86 167.87 C 144.51 168.50 145.54 168.48 146.17 167.84 L 146.91 167.08 C 147.54 166.44 147.52 165.40 146.87 164.77 C 146.22 164.14 145.19 164.15 144.56 164.80 Z M 143.83 165.55 L 143.57 165.81 C 142.94 166.46 142.95 167.50 143.60 168.13 C 144.25 168.76 145.28 168.75 145.92 168.10 L 146.17 167.84 C 146.80 167.19 146.79 166.15 146.14 165.52 C 145.50 164.89 144.46 164.90 143.83 165.55 Z"
      fill="black"
      fill-rule="nonzero" /></svg>