<svg xmlns="http://www.w3.org/2000/svg" width="300" height="300" viewBox="0 0 300 300">
<path d="M 146.65 148.92 L 147.58 148.60 C 148.54 148.28 149.05 147.25 148.73 146.30 C 148.41 145.34 147.38 144.83 146.42 145.15 L 145.49 145.46 C 144.54 145.78 144.02 146.82 144.34 147.77 C 144.66 148.72 145.70 149.24 146.65 148.92 Z M 147.47 148.64 L 148.43 148.39 C 149.40 148.13 149.98 147.13 149.72 146.16 C 149.47 145.18 148.47 144.60 147.49 144.86 L 146.53 145.11 C 145.56 145.37 144.98 146.37 145.24 147.34 C 145.50 148.32 146.50 148.90 147.47 148.64 Z M 148.20 148.44 L 149.20 148.30 C 150.20 148.17 150.91 147.25 150.77 146.25 C 150.64 145.25 149.72 144.54 148.72 144.68 L 147.72 144.81 C 146.71 144.94 146.01 145.86 146.14 146.86 C 146.28 147.87 147.20 148.57 148.20 148.44 Z M 148.90 148.32 L 149.88 148.35 C 150.89 148.39 151.74 147.60 151.77 146.58 C 151.81 145.57 151.01 144.73 150.00 144.69 L 149.02 144.66 C 148.01 144.63 147.16 145.42 147.13 146.43 C 147.09 147.44 147.89 148.29 148.90 148.32 Z M 149.59 148.32 L 150.57 148.51 C 151.56 148.70 152.52 148.05 152.72 147.06 C 152.91 146.07 152.26 145.11 151.26 144.91 L 150.29 144.73 C 149.29 144.53 148.34 145.18 148.14 146.18 C 147.95 147.17 148.60 148.13 149.59 148.32 Z M 150.31 148.44 L 151.27 148.77 C 152.22 149.11 153.26 148.61 153.60 147.66 C 153.94 146.70 153.44 145.66 152.48 145.32 L 151.53 144.99 C 150.57 144.65 149.53 145.15 149.19 146.10 C 148.86 147.06 149.36 148.10 150.31 148.44 Z M 151.01 148.66 L 151.90 149.14 C 152.79 149.61 153.90 149.28 154.38 148.40 C 154.85 147.51 154.52 146.40 153.64 145.92 L 152.74 145.44 C 151.85 144.96 150.75 145.30 150.27 146.18 C 149.79 147.07 150.12 148.18 151.01 148.66 Z M 151.65 148.96 L 152.46 149.59 C 153.25 150.21 154.39 150.07 155.01 149.27 C 155.63 148.48 155.48 147.34 154.69 146.72 L 153.89 146.10 C 153.09 145.48 151.95 145.62 151.33 146.41 C 150.72 147.21 150.86 148.35 151.65 148.96 Z M 152.26 149.40 L 152.95 150.13 C 153.64 150.86 154.78 150.89 155.51 150.20 C 156.24 149.52 156.27 148.37 155.58 147.65 L 154.89 146.91 C 154.20 146.19 153.06 146.16 152.33 146.84 C 151.61 147.53 151.57 148.67 152.26 149.40 Z M 152.81 149.94 L 153.39 150.74 C 153.97 151.55 155.10 151.73 155.90 151.15 C 156.71 150.56 156.89 149.44 156.30 148.63 L 155.72 147.83 C 155.14 147.03 154.02 146.85 153.21 147.43 C 152.41 148.01 152.23 149.14 152.81 149.94 Z M 153.28 150.56 L 153.76 151.42 C 154.25 152.28 155.34 152.59 156.20 152.11 C 157.06 151.63 157.37 150.54 156.89 149.67 L 156.41 148.81 C 155.93 147.95 154.84 147.64 153.97 148.13 C 153.11 148.61 152.80 149.70 153.28 150.56 Z M 153.68 151.23 L 154.06 152.14 C 154.44 153.05 155.48 153.48 156.39 153.10 C 157.30 152.73 157.73 151.68 157.35 150.78 L 156.97 149.86 C 156.59 148.96 155.55 148.53 154.64 148.90 C 153.74 149.28 153.31 150.32 153.68 151.23 Z M 154.00 151.95 L 154.28 152.90 C 154.55 153.84 155.53 154.38 156.47 154.11 C 157.41 153.84 157.95 152.86 157.68 151.92 L 157.41 150.97 C 157.13 150.03 156.15 149.49 155.21 149.76 C 154.27 150.03 153.73 151.01 154.00 151.95 Z M 154.25 152.73 L 154.43 153.72 C 154.61 154.68 155.53 155.31 156.49 155.13 C 157.44 154.95 158.07 154.03 157.89 153.07 L 157.71 152.08 C 157.53 151.13 156.61 150.50 155.65 150.68 C 154.70 150.86 154.07 151.78 154.25 152.73 Z M 154.42 153.60 L 154.53 154.50 C 154.64 155.47 155.51 156.16 156.47 156.05 C 157.43 155.94 158.12 155.07 158.01 154.10 L 157.91 153.20 C 157.80 152.23 156.93 151.54 155.96 151.65 C 155.00 151.76 154.31 152.63 154.42 153.60 Z M 154.52 154.41 L 154.58 155.38 C 154.64 156.34 155.47 157.08 156.43 157.02 C 157.39 156.96 158.13 156.13 158.07 155.17 L 158.01 154.20 C 157.96 153.24 157.13 152.50 156.16 152.56 C 155.20 152.62 154.47 153.44 154.52 154.41 Z M 154.58 155.30 L 154.60 156.34 C 154.61 157.30 155.41 158.07 156.37 158.05 C 157.33 158.04 158.10 157.25 158.08 156.29 L 158.07 155.25 C 158.05 154.28 157.26 153.52 156.30 153.53 C 155.34 153.55 154.57 154.34 154.58 155.30 Z M 154.60 156.28 L 154.58 157.36 C 154.57 158.32 155.33 159.12 156.29 159.13 C 157.25 159.15 158.04 158.39 158.06 157.43 L 158.08 156.34 C 158.10 155.39 157.33 154.59 156.37 154.57 C 155.42 154.56 154.62 155.32 154.60 156.28 Z M 154.59 157.32 L 154.55 158.33 C 154.50 159.28 155.24 160.09 156.20 160.14 C 157.15 160.18 157.96 159.44 158.00 158.48 L 158.05 157.48 C 158.09 156.52 157.35 155.71 156.40 155.67 C 155.44 155.63 154.63 156.36 154.59 157.32 Z M 154.55 158.29 L 154.48 159.32 C 154.41 160.27 155.13 161.09 156.08 161.16 C 157.03 161.22 157.86 160.51 157.92 159.56 L 158.00 158.53 C 158.06 157.58 157.35 156.75 156.39 156.69 C 155.44 156.62 154.62 157.34 154.55 158.29 Z M 154.49 159.27 L 154.39 160.28 C 154.30 161.23 154.99 162.07 155.93 162.16 C 156.88 162.26 157.72 161.56 157.81 160.62 L 157.91 159.60 C 158.01 158.66 157.32 157.82 156.37 157.73 C 155.43 157.63 154.58 158.32 154.49 159.27 Z M 154.40 160.22 L 154.28 161.19 C 154.15 162.13 154.81 162.99 155.75 163.12 C 156.68 163.24 157.55 162.58 157.67 161.64 L 157.80 160.68 C 157.93 159.74 157.27 158.88 156.33 158.75 C 155.39 158.63 154.53 159.29 154.40 160.22 Z M 154.30 161.11 L 154.11 162.12 C 153.94 163.05 154.55 163.94 155.48 164.11 C 156.40 164.28 157.29 163.67 157.46 162.74 L 157.65 161.73 C 157.82 160.80 157.21 159.91 156.28 159.74 C 155.36 159.57 154.47 160.18 154.30 161.11 Z M 154.14 162.02 L 153.89 163.02 C 153.66 163.93 154.21 164.85 155.12 165.08 C 156.03 165.31 156.95 164.76 157.18 163.85 L 157.43 162.85 C 157.66 161.94 157.11 161.02 156.20 160.79 C 155.29 160.56 154.37 161.11 154.14 162.02 Z M 153.92 162.93 L 153.63 163.84 C 153.35 164.73 153.85 165.68 154.74 165.96 C 155.63 166.24 156.57 165.75 156.85 164.86 L 157.14 163.94 C 157.43 163.05 156.93 162.11 156.04 161.83 C 155.15 161.54 154.21 162.04 153.92 162.93 Z M 153.67 163.78 L 153.35 164.67 C 153.03 165.54 153.48 166.50 154.36 166.82 C 155.23 167.13 156.19 166.68 156.51 165.81 L 156.82 164.92 C 157.14 164.05 156.69 163.09 155.82 162.77 C 154.94 162.46 153.98 162.91 153.67 163.78 Z M 153.36 164.64 L 153.01 165.57 C 152.68 166.43 153.11 167.39 153.98 167.72 C 154.84 168.05 155.80 167.62 156.13 166.76 L 156.49 165.83 C 156.82 164.97 156.39 164.00 155.52 163.67 C 154.66 163.35 153.69 163.78 153.36 164.64 Z M 153.02 165.54 L 152.65 166.48 C 152.31 167.33 152.73 168.30 153.58 168.64 C 154.43 168.99 155.40 168.57 155.75 167.72 L 156.12 166.78 C 156.46 165.93 156.05 164.96 155.19 164.61 C 154.34 164.27 153.37 164.69 153.02 165.54 Z M 152.67 166.45 L 152.28 167.38 C 151.92 168.22 152.32 169.20 153.16 169.55 C 154.01 169.91 154.98 169.51 155.34 168.67 L 155.73 167.74 C 156.09 166.90 155.69 165.92 154.84 165.57 C 154.00 165.21 153.02 165.61 152.67 166.45 Z M 152.30 167.35 L 151.89 168.27 C 151.51 169.10 151.89 170.08 152.72 170.45 C 153.56 170.83 154.54 170.45 154.91 169.62 L 155.32 168.70 C 155.69 167.86 155.32 166.88 154.48 166.51 C 153.65 166.14 152.67 166.51 152.30 167.35 Z M 151.91 168.23 L 151.47 169.14 C 151.08 169.97 151.43 170.95 152.26 171.34 C 153.08 171.73 154.07 171.38 154.46 170.56 L 154.89 169.65 C 155.28 168.82 154.93 167.84 154.11 167.45 C 153.28 167.06 152.30 167.41 151.91 168.23 Z M 151.49 169.11 L 151.05 170.00 C 150.64 170.82 150.97 171.81 151.79 172.21 C 152.60 172.62 153.59 172.29 154.00 171.47 L 154.44 170.59 C 154.85 169.77 154.52 168.78 153.70 168.37 C 152.89 167.97 151.90 168.30 151.49 169.11 Z M 151.06 169.98 L 150.62 170.84 C 150.20 171.65 150.51 172.64 151.32 173.06 C 152.13 173.48 153.12 173.16 153.54 172.36 L 153.99 171.49 C 154.41 170.69 154.09 169.69 153.28 169.27 C 152.47 168.86 151.48 169.17 151.06 169.98 Z M 150.63 170.83 L 150.21 171.61 C 149.78 172.41 150.09 173.41 150.89 173.84 C 151.69 174.26 152.69 173.96 153.11 173.16 L 153.53 172.37 C 153.96 171.57 153.65 170.57 152.85 170.15 C 152.05 169.72 151.05 170.02 150.63 170.83 Z M 150.22 171.59 L 149.76 172.43 C 149.33 173.22 149.61 174.22 150.41 174.66 C 151.20 175.10 152.20 174.81 152.64 174.01 L 153.10 173.18 C 153.54 172.38 153.25 171.38 152.45 170.94 C 151.66 170.51 150.66 170.80 150.22 171.59 Z M 149.78 172.41 L 149.25 173.33 C 148.80 174.12 149.07 175.12 149.86 175.57 C 150.65 176.02 151.65 175.74 152.10 174.96 L 152.63 174.03 C 153.08 173.24 152.80 172.24 152.01 171.79 C 151.23 171.34 150.22 171.62 149.78 172.41 Z M 149.26 173.31 L 148.72 174.23 C 148.26 175.01 148.52 176.02 149.30 176.48 C 150.09 176.94 151.09 176.67 151.55 175.89 L 152.09 174.97 C 152.55 174.19 152.29 173.19 151.50 172.73 C 150.72 172.27 149.72 172.53 149.26 173.31 Z M 148.73 174.22 L 148.25 175.02 C 147.78 175.80 148.04 176.80 148.81 177.27 C 149.59 177.74 150.59 177.48 151.06 176.71 L 151.54 175.91 C 152.01 175.13 151.75 174.12 150.98 173.66 C 150.20 173.19 149.19 173.44 148.73 174.22 Z M 148.26 175.01 L 147.74 175.86 C 147.27 176.63 147.51 177.64 148.28 178.11 C 149.06 178.58 150.07 178.34 150.54 177.57 L 151.05 176.72 C 151.53 175.94 151.28 174.94 150.51 174.46 C 149.74 173.99 148.73 174.24 148.26 175.01 Z M 147.74 175.85 L 147.20 176.73 C 146.72 177.50 146.96 178.51 147.73 178.98 C 148.50 179.46 149.51 179.22 149.99 178.45 L 150.53 177.58 C 151.01 176.81 150.77 175.80 150.00 175.32 C 149.23 174.84 148.22 175.08 147.74 175.85 Z M 147.21 176.72 L 146.65 177.60 C 146.17 178.37 146.40 179.38 147.16 179.86 C 147.93 180.34 148.94 180.11 149.42 179.35 L 149.98 178.46 C 150.46 177.70 150.23 176.69 149.47 176.20 C 148.70 175.72 147.69 175.95 147.21 176.72 Z M 146.66 177.59 L 146.10 178.47 C 145.61 179.23 145.83 180.24 146.59 180.73 C 147.35 181.22 148.37 181.00 148.85 180.24 L 149.41 179.36 C 149.90 178.60 149.68 177.58 148.92 177.10 C 148.16 176.61 147.14 176.83 146.66 177.59 Z M 146.10 178.46 L 145.53 179.33 C 145.04 180.09 145.25 181.10 146.01 181.60 C 146.77 182.09 147.78 181.88 148.28 181.12 L 148.85 180.25 C 149.34 179.49 149.13 178.48 148.37 177.98 C 147.61 177.49 146.60 177.70 146.10 178.46 Z M 145.54 179.32 L 144.98 180.16 C 144.48 180.92 144.68 181.93 145.43 182.43 C 146.19 182.94 147.20 182.73 147.70 181.98 L 148.27 181.13 C 148.77 180.38 148.56 179.36 147.81 178.86 C 147.06 178.36 146.04 178.56 145.54 179.32 Z M 144.98 180.16 L 144.43 180.98 C 143.92 181.73 144.12 182.75 144.87 183.25 C 145.62 183.76 146.63 183.56 147.14 182.81 L 147.70 181.99 C 148.20 181.24 148.01 180.22 147.26 179.71 C 146.51 179.21 145.49 179.41 144.98 180.16 Z M 144.43 180.98 L 143.88 181.79 C 143.37 182.53 143.56 183.55 144.31 184.06 C 145.05 184.57 146.07 184.38 146.58 183.63 L 147.14 182.82 C 147.65 182.07 147.45 181.05 146.71 180.55 C 145.96 180.04 144.94 180.23 144.43 180.98 Z M 143.88 181.78 L 143.33 182.59 C 142.82 183.33 143.01 184.35 143.75 184.86 C 144.50 185.37 145.52 185.18 146.03 184.44 L 146.58 183.64 C 147.09 182.89 146.90 181.87 146.16 181.36 C 145.41 180.85 144.39 181.04 143.88 181.78 Z M 143.33 182.59 L 143.13 182.88 C 142.62 183.62 142.81 184.64 143.55 185.15 C 144.30 185.67 145.32 185.48 145.83 184.73 L 146.03 184.44 C 146.54 183.69 146.35 182.68 145.61 182.16 C 144.86 181.65 143.84 181.84 143.33 182.59 Z"
      fill="black"
      fill-rule="nonzero" /></svg>