<svg xmlns="http://www.w3.org/2000/svg" width="300" height="300" viewBox="0 0 300 300">
<path d="M 144.71 146.97 L 145.54 146.50 C 146.37 146.03 146.66 144.98 146.19 144.16 C 145.73 143.33 144.68 143.03 143.85 143.50 L 143.02 143.97 C 142.19 144.43 141.90 145.48 142.37 146.31 C 142.83 147.14 143.88 147.43 144.71 146.97 Z M 145.50 146.56 L 146.36 146.11 C 147.23 145.67 147.57 144.61 147.13 143.75 C 146.68 142.89 145.63 142.55 144.76 142.99 L 143.89 143.44 C 143.03 143.88 142.69 144.94 143.13 145.80 C 143.58 146.66 144.63 147.00 145.50 146.56 Z M 146.26 146.20 L 147.22 145.79 C 148.12 145.41 148.55 144.36 148.16 143.45 C 147.77 142.54 146.72 142.12 145.81 142.50 L 144.86 142.91 C 143.95 143.29 143.53 144.35 143.92 145.25 C 144.31 146.16 145.36 146.59 146.26 146.20 Z M 147.08 145.87 L 148.03 145.56 C 148.98 145.25 149.50 144.22 149.19 143.27 C 148.87 142.32 147.85 141.80 146.90 142.11 L 145.95 142.43 C 145.00 142.74 144.48 143.76 144.79 144.71 C 145.10 145.66 146.13 146.18 147.08 145.87 Z M 147.91 145.60 L 148.86 145.36 C 149.84 145.12 150.43 144.12 150.18 143.15 C 149.94 142.17 148.95 141.58 147.97 141.83 L 147.02 142.07 C 146.04 142.32 145.45 143.31 145.70 144.29 C 145.94 145.26 146.94 145.85 147.91 145.60 Z M 148.78 145.38 L 149.78 145.18 C 150.77 144.98 151.41 144.02 151.20 143.03 C 151.00 142.04 150.04 141.40 149.05 141.60 L 148.05 141.81 C 147.06 142.01 146.43 142.97 146.63 143.96 C 146.83 144.95 147.79 145.59 148.78 145.38 Z M 149.72 145.20 L 150.73 145.02 C 151.73 144.86 152.40 143.91 152.23 142.92 C 152.06 141.92 151.12 141.25 150.12 141.42 L 149.11 141.59 C 148.11 141.76 147.44 142.70 147.61 143.70 C 147.78 144.69 148.72 145.36 149.72 145.20 Z M 150.69 145.03 L 151.66 144.89 C 152.66 144.75 153.36 143.82 153.21 142.82 C 153.06 141.81 152.13 141.12 151.13 141.27 L 150.16 141.41 C 149.16 141.55 148.47 142.48 148.62 143.49 C 148.76 144.49 149.69 145.18 150.69 145.03 Z M 151.62 144.90 L 152.56 144.78 C 153.56 144.66 154.27 143.74 154.15 142.74 C 154.02 141.73 153.11 141.02 152.10 141.14 L 151.17 141.26 C 150.17 141.39 149.45 142.30 149.58 143.31 C 149.70 144.31 150.62 145.02 151.62 144.90 Z M 152.51 144.79 L 153.47 144.69 C 154.48 144.59 155.21 143.70 155.11 142.69 C 155.01 141.68 154.11 140.94 153.11 141.04 L 152.15 141.14 C 151.14 141.24 150.40 142.14 150.50 143.14 C 150.60 144.15 151.50 144.89 152.51 144.79 Z M 153.42 144.70 L 154.44 144.62 C 155.45 144.55 156.21 143.67 156.14 142.66 C 156.07 141.65 155.19 140.89 154.18 140.96 L 153.15 141.04 C 152.14 141.11 151.38 141.99 151.46 143.00 C 151.53 144.01 152.41 144.77 153.42 144.70 Z M 154.40 144.63 L 155.49 144.58 C 156.50 144.53 157.28 143.67 157.24 142.65 C 157.19 141.64 156.33 140.86 155.31 140.91 L 154.22 140.96 C 153.21 141.01 152.43 141.87 152.48 142.88 C 152.52 143.89 153.38 144.68 154.40 144.63 Z M 155.45 144.58 L 156.43 144.55 C 157.44 144.52 158.24 143.67 158.21 142.66 C 158.18 141.65 157.34 140.85 156.33 140.88 L 155.35 140.91 C 154.34 140.94 153.54 141.78 153.57 142.79 C 153.60 143.81 154.44 144.61 155.45 144.58 Z M 156.40 144.55 L 157.43 144.54 C 158.44 144.52 159.25 143.69 159.24 142.68 C 159.22 141.66 158.39 140.85 157.38 140.86 L 156.35 140.88 C 155.34 140.89 154.53 141.72 154.54 142.74 C 154.56 143.75 155.39 144.56 156.40 144.55 Z M 157.40 144.54 L 158.44 144.54 C 159.45 144.54 160.27 143.72 160.28 142.70 C 160.28 141.69 159.46 140.87 158.44 140.87 L 157.40 140.86 C 156.39 140.86 155.57 141.68 155.57 142.70 C 155.56 143.71 156.39 144.53 157.40 144.54 Z M 158.41 144.54 L 159.43 144.55 C 160.45 144.57 161.28 143.76 161.30 142.75 C 161.31 141.73 160.51 140.90 159.49 140.88 L 158.47 140.87 C 157.46 140.85 156.62 141.66 156.60 142.67 C 156.59 143.68 157.40 144.52 158.41 144.54 Z M 159.40 144.55 L 160.37 144.59 C 161.39 144.62 162.24 143.83 162.27 142.81 C 162.31 141.80 161.51 140.95 160.50 140.92 L 159.53 140.88 C 158.51 140.85 157.66 141.64 157.63 142.66 C 157.59 143.67 158.39 144.52 159.40 144.55 Z M 160.33 144.58 L 161.40 144.65 C 162.41 144.71 163.28 143.94 163.34 142.93 C 163.40 141.92 162.63 141.05 161.62 140.98 L 160.55 140.92 C 159.53 140.86 158.67 141.63 158.60 142.64 C 158.54 143.65 159.31 144.52 160.33 144.58 Z M 161.30 144.64 L 162.35 144.76 C 163.36 144.87 164.27 144.15 164.38 143.14 C 164.50 142.14 163.77 141.23 162.77 141.11 L 161.72 140.99 C 160.71 140.88 159.80 141.60 159.69 142.61 C 159.57 143.62 160.30 144.53 161.30 144.64 Z M 162.19 144.73 L 163.13 144.93 C 164.12 145.13 165.09 144.49 165.30 143.50 C 165.50 142.51 164.86 141.54 163.87 141.33 L 162.93 141.14 C 161.94 140.93 160.97 141.57 160.76 142.56 C 160.56 143.56 161.20 144.53 162.19 144.73 Z M 162.91 144.86 L 163.77 145.16 C 164.73 145.49 165.77 144.98 166.10 144.02 C 166.43 143.06 165.92 142.02 164.96 141.69 L 164.10 141.40 C 163.14 141.07 162.10 141.58 161.77 142.53 C 161.44 143.49 161.95 144.54 162.91 144.86 Z M 163.52 145.05 L 164.37 145.49 C 165.27 145.96 166.38 145.61 166.84 144.71 C 167.31 143.81 166.96 142.71 166.06 142.24 L 165.21 141.80 C 164.31 141.33 163.21 141.69 162.74 142.58 C 162.27 143.48 162.62 144.59 163.52 145.05 Z M 164.15 145.36 L 164.98 145.95 C 165.81 146.54 166.95 146.34 167.54 145.52 C 168.12 144.70 167.93 143.55 167.11 142.97 L 166.28 142.38 C 165.45 141.79 164.31 141.98 163.73 142.81 C 163.14 143.63 163.33 144.77 164.15 145.36 Z M 164.81 145.80 L 165.55 146.49 C 166.30 147.18 167.45 147.13 168.14 146.39 C 168.82 145.64 168.78 144.49 168.03 143.80 L 167.28 143.11 C 166.54 142.43 165.38 142.48 164.70 143.22 C 164.02 143.96 164.06 145.12 164.81 145.80 Z M 165.40 146.33 L 166.03 147.08 C 166.68 147.85 167.84 147.95 168.61 147.29 C 169.38 146.64 169.48 145.49 168.82 144.72 L 168.19 143.97 C 167.54 143.20 166.39 143.10 165.61 143.75 C 164.84 144.40 164.75 145.56 165.40 146.33 Z M 165.88 146.86 L 166.41 147.71 C 166.94 148.56 168.06 148.83 168.92 148.30 C 169.77 147.76 170.03 146.64 169.50 145.79 L 168.98 144.94 C 168.45 144.08 167.32 143.82 166.47 144.35 C 165.61 144.88 165.35 146.01 165.88 146.86 Z M 166.28 147.44 L 166.65 148.34 C 167.03 149.27 168.09 149.71 169.02 149.33 C 169.94 148.95 170.38 147.89 170.00 146.97 L 169.63 146.06 C 169.25 145.13 168.19 144.69 167.27 145.07 C 166.34 145.45 165.90 146.51 166.28 147.44 Z M 166.58 148.08 L 166.81 149.04 C 167.05 150.00 168.02 150.60 168.99 150.36 C 169.96 150.12 170.55 149.15 170.31 148.18 L 170.08 147.23 C 169.84 146.26 168.87 145.67 167.90 145.91 C 166.93 146.14 166.34 147.12 166.58 148.08 Z M 166.79 148.85 L 166.92 149.82 C 167.05 150.80 167.95 151.49 168.93 151.36 C 169.91 151.23 170.60 150.33 170.47 149.35 L 170.34 148.37 C 170.20 147.39 169.30 146.71 168.32 146.84 C 167.34 146.97 166.66 147.87 166.79 148.85 Z M 166.92 149.68 L 166.97 150.60 C 167.02 151.58 167.86 152.33 168.84 152.28 C 169.82 152.22 170.57 151.38 170.52 150.41 L 170.47 149.49 C 170.41 148.51 169.57 147.76 168.59 147.81 C 167.61 147.87 166.86 148.70 166.92 149.68 Z M 166.98 150.45 L 166.95 151.42 C 166.92 152.40 167.68 153.21 168.65 153.24 C 169.63 153.27 170.44 152.51 170.47 151.54 L 170.50 150.56 C 170.54 149.59 169.77 148.78 168.80 148.74 C 167.83 148.71 167.01 149.47 166.98 150.45 Z M 166.98 151.24 L 166.84 152.28 C 166.71 153.23 167.38 154.12 168.33 154.25 C 169.29 154.38 170.17 153.71 170.30 152.75 L 170.44 151.72 C 170.57 150.76 169.90 149.88 168.95 149.75 C 167.99 149.62 167.11 150.29 166.98 151.24 Z M 166.89 152.09 L 166.63 153.14 C 166.39 154.06 166.95 155.00 167.88 155.24 C 168.81 155.47 169.75 154.91 169.99 153.98 L 170.25 152.94 C 170.48 152.01 169.92 151.07 168.99 150.84 C 168.06 150.60 167.12 151.17 166.89 152.09 Z M 166.69 152.99 L 166.35 153.93 C 166.04 154.82 166.50 155.80 167.40 156.12 C 168.29 156.44 169.28 155.97 169.59 155.07 L 169.93 154.13 C 170.24 153.24 169.77 152.26 168.88 151.94 C 167.99 151.62 167.00 152.09 166.69 152.99 Z M 166.40 153.83 L 166.00 154.78 C 165.63 155.64 166.03 156.65 166.90 157.02 C 167.76 157.39 168.77 156.98 169.14 156.12 L 169.54 155.17 C 169.91 154.30 169.51 153.30 168.64 152.93 C 167.78 152.56 166.77 152.96 166.40 153.83 Z M 166.04 154.71 L 165.60 155.64 C 165.19 156.48 165.55 157.49 166.39 157.90 C 167.23 158.30 168.24 157.95 168.65 157.11 L 169.09 156.18 C 169.50 155.34 169.15 154.33 168.30 153.92 C 167.46 153.52 166.45 153.87 166.04 154.71 Z M 165.63 155.59 L 165.18 156.47 C 164.75 157.29 165.06 158.31 165.89 158.74 C 166.71 159.17 167.73 158.85 168.15 158.03 L 168.61 157.15 C 169.04 156.33 168.72 155.31 167.90 154.88 C 167.08 154.45 166.06 154.77 165.63 155.59 Z M 165.21 156.44 L 164.71 157.34 C 164.27 158.15 164.56 159.16 165.37 159.61 C 166.17 160.05 167.19 159.76 167.63 158.95 L 168.12 158.05 C 168.57 157.25 168.28 156.23 167.47 155.79 C 166.66 155.35 165.65 155.64 165.21 156.44 Z M 164.74 157.32 L 164.21 158.24 C 163.76 159.02 164.03 160.03 164.82 160.49 C 165.61 160.95 166.62 160.68 167.07 159.89 L 167.60 158.97 C 168.06 158.19 167.79 157.18 167.00 156.72 C 166.21 156.26 165.20 156.53 164.74 157.32 Z M 164.25 158.21 L 163.74 159.04 C 163.27 159.81 163.52 160.81 164.29 161.28 C 165.06 161.75 166.06 161.51 166.53 160.74 L 167.04 159.91 C 167.51 159.14 167.26 158.14 166.49 157.67 C 165.72 157.20 164.72 157.44 164.25 158.21 Z M 163.78 159.02 L 163.27 159.80 C 162.79 160.55 163.01 161.56 163.76 162.04 C 164.52 162.52 165.52 162.30 166.00 161.54 L 166.50 160.76 C 166.98 160.01 166.76 159.01 166.01 158.52 C 165.26 158.04 164.26 158.26 163.78 159.02 Z M 163.30 159.79 L 162.77 160.59 C 162.28 161.33 162.48 162.32 163.22 162.81 C 163.95 163.30 164.95 163.10 165.44 162.36 L 165.97 161.56 C 166.46 160.82 166.26 159.83 165.52 159.34 C 164.78 158.85 163.79 159.05 163.30 159.79 Z M 162.79 160.58 L 162.22 161.40 C 161.73 162.12 161.91 163.12 162.64 163.61 C 163.36 164.11 164.36 163.93 164.85 163.20 L 165.42 162.38 C 165.92 161.65 165.73 160.66 165.00 160.16 C 164.28 159.66 163.29 159.85 162.79 160.58 Z M 162.25 161.38 L 161.66 162.20 C 161.15 162.92 161.32 163.91 162.04 164.42 C 162.75 164.92 163.74 164.76 164.25 164.04 L 164.83 163.22 C 165.34 162.50 165.17 161.51 164.46 161.01 C 163.74 160.50 162.75 160.67 162.25 161.38 Z M 161.68 162.19 L 161.08 163.00 C 160.57 163.70 160.72 164.69 161.42 165.21 C 162.12 165.73 163.11 165.58 163.62 164.87 L 164.22 164.06 C 164.74 163.36 164.59 162.37 163.89 161.85 C 163.19 161.33 162.20 161.48 161.68 162.19 Z M 161.11 162.98 L 160.49 163.78 C 159.96 164.47 160.09 165.46 160.78 165.99 C 161.47 166.52 162.46 166.39 162.99 165.70 L 163.60 164.89 C 164.13 164.21 164.00 163.22 163.31 162.69 C 162.62 162.16 161.63 162.29 161.11 162.98 Z M 160.51 163.76 L 159.89 164.55 C 159.35 165.23 159.46 166.21 160.14 166.75 C 160.82 167.29 161.81 167.18 162.35 166.50 L 162.97 165.72 C 163.51 165.04 163.39 164.05 162.72 163.51 C 162.04 162.97 161.05 163.08 160.51 163.76 Z M 159.90 164.53 L 159.27 165.30 C 158.73 165.97 158.83 166.96 159.50 167.51 C 160.17 168.06 161.16 167.95 161.71 167.28 L 162.33 166.51 C 162.88 165.84 162.78 164.85 162.11 164.31 C 161.43 163.76 160.45 163.86 159.90 164.53 Z M 159.28 165.29 L 158.65 166.06 C 158.10 166.72 158.19 167.71 158.86 168.26 C 159.52 168.81 160.51 168.72 161.06 168.06 L 161.69 167.29 C 162.25 166.63 162.15 165.64 161.49 165.09 C 160.82 164.54 159.84 164.63 159.28 165.29 Z M 158.66 166.05 L 158.02 166.81 C 157.46 167.47 157.55 168.46 158.21 169.01 C 158.87 169.57 159.86 169.48 160.41 168.82 L 161.05 168.06 C 161.61 167.40 161.53 166.41 160.86 165.86 C 160.20 165.30 159.22 165.39 158.66 166.05 Z M 158.03 166.80 L 157.38 167.56 C 156.82 168.21 156.90 169.20 157.55 169.76 C 158.21 170.32 159.20 170.25 159.76 169.59 L 160.41 168.83 C 160.97 168.18 160.89 167.19 160.23 166.63 C 159.58 166.07 158.59 166.14 158.03 166.80 Z M 157.39 167.55 L 156.73 168.31 C 156.16 168.96 156.23 169.95 156.88 170.52 C 157.53 171.08 158.52 171.01 159.08 170.36 L 159.75 169.60 C 160.31 168.95 160.25 167.96 159.59 167.40 C 158.94 166.83 157.96 166.90 157.39 167.55 Z M 156.74 168.30 L 156.08 169.04 C 155.51 169.69 155.57 170.67 156.22 171.25 C 156.87 171.82 157.85 171.76 158.42 171.11 L 159.08 170.37 C 159.65 169.72 159.59 168.74 158.94 168.17 C 158.29 167.60 157.31 167.66 156.74 168.30 Z M 156.09 169.03 L 155.42 169.78 C 154.85 170.42 154.90 171.41 155.55 171.98 C 156.19 172.56 157.18 172.50 157.75 171.86 L 158.42 171.12 C 158.99 170.47 158.94 169.49 158.29 168.91 C 157.65 168.34 156.66 168.39 156.09 169.03 Z M 155.43 169.77 L 154.75 170.52 C 154.18 171.16 154.23 172.15 154.87 172.73 C 155.51 173.31 156.50 173.25 157.07 172.61 L 157.75 171.86 C 158.32 171.22 158.27 170.24 157.63 169.66 C 156.99 169.08 156.01 169.13 155.43 169.77 Z M 154.75 170.52 L 154.25 171.08 C 153.67 171.72 153.72 172.71 154.36 173.29 C 155.00 173.87 155.98 173.82 156.56 173.18 L 157.07 172.62 C 157.65 171.98 157.60 170.99 156.96 170.41 C 156.32 169.83 155.33 169.88 154.75 170.52 Z"
      fill="black"
      fill-rule="nonzero" /></svg>