<svg xmlns="http://www.w3.org/2000/svg" width="300" height="300" viewBox="0 0 300 300">
<path d="M 147.87 133.83 L 148.35 132.95 C 148.82 132.10 148.50 131.04 147.66 130.58 C 146.81 130.11 145.75 130.42 145.28 131.27 L 144.80 132.16 C 144.34 133.00 144.65 134.07 145.50 134.53 C 146.34 134.99 147.41 134.68 147.87 133.83 Z M 148.28 133.13 L 148.84 132.33 C 149.41 131.52 149.21 130.41 148.41 129.84 C 147.60 129.28 146.49 129.47 145.93 130.28 L 145.36 131.09 C 144.79 131.89 144.99 133.00 145.80 133.57 C 146.60 134.13 147.71 133.94 148.28 133.13 Z M 148.60 132.65 L 149.33 132.00 C 150.08 131.33 150.14 130.18 149.47 129.43 C 148.80 128.69 147.66 128.62 146.91 129.29 L 146.18 129.95 C 145.43 130.62 145.37 131.77 146.03 132.51 C 146.70 133.26 147.85 133.32 148.60 132.65 Z M 148.93 132.29 L 149.73 131.90 C 150.64 131.46 151.02 130.36 150.57 129.45 C 150.13 128.54 149.03 128.16 148.12 128.60 L 147.32 128.99 C 146.40 129.44 146.03 130.54 146.47 131.45 C 146.92 132.36 148.02 132.74 148.93 132.29 Z M 149.40 132.04 L 150.33 131.79 C 151.31 131.52 151.90 130.51 151.64 129.53 C 151.37 128.54 150.36 127.96 149.37 128.22 L 148.45 128.47 C 147.46 128.73 146.88 129.74 147.14 130.73 C 147.40 131.71 148.42 132.30 149.40 132.04 Z M 150.11 131.84 L 151.15 131.69 C 152.16 131.55 152.87 130.61 152.72 129.60 C 152.58 128.58 151.64 127.88 150.63 128.02 L 149.59 128.17 C 148.58 128.31 147.87 129.25 148.02 130.26 C 148.16 131.28 149.10 131.98 150.11 131.84 Z M 151.01 131.72 L 152.11 131.64 C 153.13 131.57 153.91 130.69 153.84 129.66 C 153.77 128.63 152.88 127.86 151.86 127.93 L 150.76 128.00 C 149.74 128.07 148.96 128.96 149.03 129.98 C 149.10 131.01 149.99 131.78 151.01 131.72 Z M 152.02 131.65 L 153.04 131.63 C 154.07 131.61 154.89 130.75 154.87 129.72 C 154.84 128.69 153.99 127.87 152.96 127.89 L 151.94 127.92 C 150.91 127.94 150.09 128.79 150.11 129.83 C 150.14 130.86 150.99 131.67 152.02 131.65 Z M 152.96 131.63 L 153.98 131.65 C 155.01 131.68 155.87 130.86 155.89 129.83 C 155.91 128.79 155.10 127.94 154.06 127.92 L 153.04 127.89 C 152.01 127.87 151.15 128.69 151.13 129.72 C 151.11 130.75 151.93 131.61 152.96 131.63 Z M 153.88 131.65 L 154.88 131.72 C 155.91 131.80 156.81 131.03 156.89 130.00 C 156.96 128.97 156.19 128.07 155.16 127.99 L 154.16 127.92 C 153.13 127.84 152.23 128.61 152.16 129.64 C 152.08 130.67 152.85 131.57 153.88 131.65 Z M 154.76 131.71 L 155.71 131.85 C 156.73 131.99 157.68 131.28 157.83 130.26 C 157.97 129.23 157.26 128.29 156.23 128.14 L 155.28 128.01 C 154.26 127.86 153.31 128.57 153.17 129.60 C 153.02 130.62 153.73 131.57 154.76 131.71 Z M 155.55 131.82 L 156.56 132.05 C 157.56 132.29 158.57 131.66 158.81 130.65 C 159.04 129.64 158.41 128.64 157.40 128.40 L 156.40 128.17 C 155.39 127.94 154.38 128.56 154.15 129.57 C 153.91 130.58 154.54 131.58 155.55 131.82 Z M 156.38 132.00 L 157.32 132.32 C 158.30 132.65 159.37 132.13 159.70 131.15 C 160.03 130.17 159.51 129.11 158.53 128.77 L 157.58 128.45 C 156.60 128.12 155.54 128.65 155.21 129.63 C 154.87 130.61 155.40 131.67 156.38 132.00 Z M 157.17 132.26 L 158.06 132.66 C 159.00 133.08 160.11 132.65 160.53 131.70 C 160.95 130.76 160.52 129.65 159.58 129.23 L 158.68 128.84 C 157.74 128.42 156.63 128.84 156.21 129.79 C 155.79 130.74 156.22 131.84 157.17 132.26 Z M 157.93 132.60 L 158.80 133.06 C 159.71 133.55 160.85 133.20 161.34 132.29 C 161.82 131.38 161.48 130.24 160.57 129.76 L 159.70 129.29 C 158.79 128.80 157.65 129.15 157.17 130.06 C 156.68 130.97 157.02 132.11 157.93 132.60 Z M 158.70 133.00 L 159.55 133.53 C 160.43 134.08 161.59 133.80 162.13 132.92 C 162.68 132.04 162.41 130.89 161.53 130.35 L 160.67 129.82 C 159.79 129.27 158.64 129.54 158.09 130.42 C 157.55 131.30 157.82 132.46 158.70 133.00 Z M 159.45 133.46 L 160.26 134.05 C 161.10 134.65 162.27 134.46 162.88 133.62 C 163.48 132.78 163.29 131.61 162.45 131.01 L 161.64 130.42 C 160.80 129.81 159.63 130.00 159.02 130.84 C 158.42 131.68 158.61 132.85 159.45 133.46 Z M 160.14 133.95 L 160.89 134.59 C 161.68 135.27 162.86 135.18 163.53 134.39 C 164.20 133.61 164.11 132.42 163.33 131.75 L 162.58 131.11 C 161.79 130.43 160.61 130.52 159.94 131.31 C 159.26 132.09 159.35 133.28 160.14 133.95 Z M 160.76 134.46 L 161.45 135.19 C 162.16 135.94 163.35 135.97 164.10 135.26 C 164.85 134.55 164.87 133.36 164.16 132.61 L 163.47 131.88 C 162.75 131.13 161.57 131.10 160.82 131.82 C 160.07 132.53 160.04 133.71 160.76 134.46 Z M 161.32 135.04 L 161.93 135.83 C 162.56 136.66 163.73 136.81 164.55 136.19 C 165.37 135.56 165.53 134.39 164.90 133.57 L 164.29 132.77 C 163.67 131.95 162.49 131.79 161.67 132.42 C 160.85 133.04 160.70 134.22 161.32 135.04 Z M 161.82 135.67 L 162.34 136.52 C 162.87 137.40 164.02 137.68 164.90 137.14 C 165.78 136.60 166.06 135.45 165.52 134.57 L 165.01 133.73 C 164.47 132.85 163.32 132.57 162.44 133.11 C 161.56 133.64 161.29 134.79 161.82 135.67 Z M 162.25 136.36 L 162.68 137.24 C 163.13 138.17 164.24 138.55 165.17 138.11 C 166.09 137.66 166.48 136.54 166.03 135.62 L 165.61 134.73 C 165.16 133.81 164.05 133.42 163.12 133.87 C 162.19 134.32 161.81 135.43 162.25 136.36 Z M 162.62 137.08 L 162.96 138.00 C 163.32 138.96 164.39 139.45 165.36 139.09 C 166.32 138.72 166.80 137.65 166.44 136.69 L 166.10 135.77 C 165.74 134.81 164.66 134.33 163.70 134.69 C 162.74 135.05 162.26 136.12 162.62 137.08 Z M 162.91 137.84 L 163.18 138.80 C 163.46 139.79 164.48 140.37 165.47 140.09 C 166.45 139.82 167.03 138.79 166.76 137.81 L 166.49 136.85 C 166.21 135.86 165.19 135.28 164.20 135.56 C 163.22 135.83 162.64 136.86 162.91 137.84 Z M 163.15 138.65 L 163.34 139.67 C 163.54 140.67 164.51 141.33 165.51 141.14 C 166.52 140.94 167.17 139.97 166.98 138.97 L 166.79 137.96 C 166.59 136.95 165.62 136.29 164.62 136.49 C 163.62 136.68 162.96 137.65 163.15 138.65 Z M 163.33 139.54 L 163.44 140.50 C 163.57 141.51 164.49 142.23 165.50 142.11 C 166.51 141.99 167.23 141.07 167.11 140.06 L 167.00 139.10 C 166.87 138.08 165.96 137.36 164.94 137.48 C 163.93 137.61 163.21 138.53 163.33 139.54 Z M 163.44 140.40 L 163.50 141.39 C 163.57 142.41 164.44 143.18 165.46 143.11 C 166.48 143.05 167.25 142.17 167.18 141.16 L 167.12 140.16 C 167.05 139.15 166.18 138.38 165.16 138.44 C 164.15 138.51 163.38 139.38 163.44 140.40 Z M 163.51 141.30 L 163.52 142.32 C 163.54 143.33 164.38 144.14 165.39 144.13 C 166.40 144.11 167.21 143.27 167.20 142.26 L 167.18 141.24 C 167.16 140.23 166.33 139.42 165.31 139.44 C 164.30 139.45 163.49 140.29 163.51 141.30 Z M 163.53 142.25 L 163.50 143.26 C 163.48 144.27 164.28 145.11 165.29 145.13 C 166.30 145.15 167.14 144.35 167.17 143.34 L 167.19 142.33 C 167.21 141.32 166.41 140.48 165.40 140.46 C 164.39 140.43 163.55 141.23 163.53 142.25 Z M 163.52 143.18 L 163.45 144.14 C 163.39 145.15 164.14 146.01 165.15 146.08 C 166.15 146.15 167.02 145.39 167.09 144.38 L 167.15 143.42 C 167.22 142.42 166.46 141.55 165.46 141.48 C 164.45 141.41 163.58 142.17 163.52 143.18 Z M 163.47 144.03 L 163.35 145.01 C 163.22 146.00 163.92 146.91 164.91 147.03 C 165.91 147.16 166.81 146.46 166.94 145.47 L 167.07 144.49 C 167.20 143.50 166.49 142.59 165.50 142.47 C 164.51 142.34 163.60 143.04 163.47 144.03 Z M 163.38 144.87 L 163.17 145.86 C 162.97 146.83 163.59 147.79 164.56 147.99 C 165.54 148.20 166.49 147.57 166.70 146.60 L 166.91 145.61 C 167.11 144.64 166.49 143.68 165.52 143.47 C 164.54 143.27 163.59 143.89 163.38 144.87 Z M 163.22 145.70 L 162.93 146.67 C 162.64 147.61 163.17 148.61 164.11 148.90 C 165.06 149.19 166.06 148.66 166.35 147.72 L 166.65 146.75 C 166.94 145.81 166.41 144.81 165.46 144.52 C 164.52 144.23 163.51 144.76 163.22 145.70 Z M 162.99 146.54 L 162.67 147.34 C 162.31 148.25 162.75 149.28 163.67 149.65 C 164.58 150.01 165.61 149.56 165.97 148.65 L 166.29 147.85 C 166.66 146.94 166.21 145.90 165.30 145.54 C 164.38 145.18 163.35 145.62 162.99 146.54 Z M 162.72 147.24 L 162.33 148.08 C 161.92 148.96 162.29 150.01 163.18 150.43 C 164.06 150.84 165.11 150.46 165.53 149.58 L 165.92 148.75 C 166.34 147.86 165.96 146.81 165.07 146.39 C 164.19 145.98 163.14 146.36 162.72 147.24 Z M 162.38 148.01 L 161.91 148.88 C 161.46 149.74 161.78 150.80 162.64 151.26 C 163.50 151.71 164.56 151.39 165.01 150.53 L 165.48 149.65 C 165.94 148.80 165.61 147.73 164.75 147.28 C 163.90 146.82 162.83 147.15 162.38 148.01 Z M 161.95 148.83 L 161.41 149.76 C 160.93 150.60 161.21 151.67 162.05 152.15 C 162.88 152.63 163.95 152.35 164.43 151.52 L 164.97 150.58 C 165.46 149.75 165.17 148.68 164.34 148.20 C 163.51 147.71 162.44 148.00 161.95 148.83 Z M 161.45 149.73 L 160.83 150.73 C 160.33 151.54 160.58 152.61 161.39 153.11 C 162.21 153.62 163.27 153.37 163.78 152.55 L 164.40 151.55 C 164.90 150.74 164.65 149.67 163.83 149.17 C 163.02 148.66 161.95 148.91 161.45 149.73 Z M 160.85 150.71 L 160.36 151.48 C 159.84 152.28 160.07 153.35 160.87 153.86 C 161.67 154.38 162.74 154.15 163.26 153.35 L 163.75 152.57 C 164.27 151.77 164.04 150.71 163.24 150.19 C 162.44 149.68 161.37 149.91 160.85 150.71 Z M 160.38 151.47 L 159.85 152.27 C 159.32 153.06 159.54 154.12 160.33 154.64 C 161.12 155.17 162.18 154.95 162.71 154.16 L 163.24 153.36 C 163.76 152.57 163.54 151.51 162.75 150.98 C 161.96 150.46 160.90 150.68 160.38 151.47 Z M 159.86 152.26 L 159.31 153.08 C 158.78 153.86 158.98 154.92 159.76 155.45 C 160.54 155.98 161.60 155.78 162.13 155.00 L 162.69 154.17 C 163.22 153.39 163.01 152.33 162.23 151.80 C 161.46 151.27 160.39 151.48 159.86 152.26 Z M 159.32 153.07 L 158.74 153.90 C 158.21 154.67 158.39 155.73 159.16 156.27 C 159.93 156.80 160.99 156.61 161.53 155.85 L 162.11 155.01 C 162.65 154.24 162.46 153.18 161.69 152.65 C 160.92 152.11 159.86 152.30 159.32 153.07 Z M 158.76 153.89 L 158.16 154.73 C 157.62 155.49 157.79 156.55 158.55 157.09 C 159.31 157.63 160.36 157.46 160.91 156.70 L 161.51 155.86 C 162.05 155.10 161.87 154.04 161.12 153.50 C 160.36 152.96 159.30 153.13 158.76 153.89 Z M 158.18 154.72 L 157.56 155.56 C 157.02 156.31 157.18 157.36 157.92 157.91 C 158.67 158.46 159.72 158.29 160.27 157.55 L 160.89 156.71 C 161.44 155.96 161.27 154.91 160.53 154.36 C 159.78 153.81 158.73 153.97 158.18 154.72 Z M 157.58 155.55 L 156.96 156.37 C 156.41 157.10 156.55 158.15 157.29 158.71 C 158.03 159.26 159.07 159.12 159.63 158.38 L 160.25 157.56 C 160.81 156.82 160.66 155.77 159.93 155.22 C 159.19 154.66 158.14 154.81 157.58 155.55 Z M 156.98 156.35 L 156.35 157.17 C 155.78 157.90 155.91 158.94 156.64 159.51 C 157.36 160.07 158.41 159.94 158.97 159.21 L 159.61 158.40 C 160.18 157.67 160.04 156.63 159.32 156.06 C 158.59 155.50 157.55 155.63 156.98 156.35 Z M 156.37 157.15 L 155.72 157.95 C 155.15 158.67 155.27 159.71 155.98 160.29 C 156.70 160.86 157.74 160.75 158.31 160.03 L 158.96 159.23 C 159.53 158.52 159.41 157.47 158.70 156.90 C 157.98 156.32 156.94 156.44 156.37 157.15 Z M 155.74 157.94 L 155.10 158.72 C 154.52 159.43 154.62 160.47 155.33 161.05 C 156.03 161.63 157.08 161.53 157.66 160.82 L 158.30 160.04 C 158.88 159.34 158.78 158.29 158.07 157.71 C 157.37 157.13 156.32 157.23 155.74 157.94 Z M 155.11 158.71 L 154.47 159.47 C 153.89 160.17 153.98 161.21 154.67 161.80 C 155.37 162.39 156.42 162.30 157.00 161.60 L 157.64 160.83 C 158.23 160.14 158.14 159.09 157.44 158.51 C 156.74 157.92 155.70 158.01 155.11 158.71 Z M 154.48 159.46 L 153.84 160.22 C 153.25 160.91 153.33 161.95 154.03 162.54 C 154.72 163.13 155.76 163.05 156.35 162.36 L 156.99 161.61 C 157.58 160.91 157.50 159.87 156.81 159.28 C 156.12 158.69 155.08 158.77 154.48 159.46 Z M 153.85 160.21 L 153.21 160.95 C 152.62 161.64 152.69 162.68 153.38 163.27 C 154.07 163.87 155.11 163.79 155.70 163.10 L 156.34 162.36 C 156.93 161.67 156.86 160.64 156.17 160.04 C 155.48 159.45 154.45 159.52 153.85 160.21 Z M 153.22 160.95 L 152.58 161.69 C 151.98 162.37 152.05 163.41 152.74 164.00 C 153.42 164.60 154.46 164.52 155.05 163.84 L 155.69 163.10 C 156.29 162.42 156.21 161.38 155.53 160.79 C 154.85 160.20 153.81 160.27 153.22 160.95 Z M 152.58 161.69 L 152.39 161.90 C 151.80 162.58 151.87 163.62 152.55 164.21 C 153.23 164.81 154.27 164.73 154.86 164.05 L 155.05 163.84 C 155.64 163.16 155.57 162.12 154.89 161.53 C 154.21 160.94 153.17 161.01 152.58 161.69 Z"
      fill="black"
      fill-rule="nonzero" /></svg>