<svg xmlns="http://www.w3.org/2000/svg" width="300" height="300" viewBox="0 0 300 300">
<path d="M 142.31 117.12 L 141.89 117.95 C 141.47 118.78 141.81 119.80 142.64 120.21 C 143.47 120.63 144.48 120.30 144.90 119.46 L 145.32 118.63 C 145.74 117.80 145.40 116.78 144.57 116.37 C 143.74 115.95 142.73 116.28 142.31 117.12 Z M 141.90 117.93 L 141.45 118.79 C 141.02 119.61 141.35 120.63 142.17 121.06 C 143.00 121.49 144.02 121.17 144.45 120.34 L 144.89 119.49 C 145.32 118.66 145.00 117.64 144.17 117.21 C 143.34 116.78 142.33 117.10 141.90 117.93 Z M 141.47 118.75 L 140.98 119.64 C 140.53 120.46 140.82 121.49 141.64 121.94 C 142.46 122.39 143.49 122.09 143.94 121.27 L 144.43 120.38 C 144.88 119.56 144.58 118.53 143.77 118.08 C 142.95 117.63 141.92 117.93 141.47 118.75 Z M 141.00 119.60 L 140.46 120.51 C 139.98 121.32 140.25 122.36 141.05 122.83 C 141.86 123.31 142.90 123.04 143.37 122.24 L 143.92 121.32 C 144.39 120.52 144.13 119.48 143.32 119.00 C 142.52 118.52 141.48 118.79 141.00 119.60 Z M 140.48 120.47 L 139.97 121.29 C 139.47 122.08 139.71 123.13 140.50 123.63 C 141.29 124.12 142.34 123.89 142.84 123.09 L 143.35 122.28 C 143.85 121.49 143.61 120.44 142.82 119.94 C 142.03 119.44 140.98 119.68 140.48 120.47 Z M 139.98 121.27 L 139.43 122.11 C 138.92 122.90 139.15 123.94 139.93 124.46 C 140.71 124.97 141.76 124.74 142.27 123.96 L 142.82 123.11 C 143.33 122.33 143.11 121.28 142.33 120.77 C 141.54 120.26 140.49 120.48 139.98 121.27 Z M 139.44 122.10 L 138.87 122.96 C 138.36 123.74 138.58 124.79 139.36 125.31 C 140.14 125.82 141.19 125.60 141.70 124.82 L 142.27 123.97 C 142.78 123.19 142.57 122.14 141.79 121.62 C 141.01 121.10 139.95 121.32 139.44 122.10 Z M 138.87 122.96 L 138.31 123.81 C 137.80 124.59 138.02 125.64 138.80 126.16 C 139.58 126.67 140.63 126.45 141.15 125.67 L 141.71 124.82 C 142.22 124.04 142.00 122.99 141.22 122.47 C 140.44 121.96 139.39 122.18 138.87 122.96 Z M 138.31 123.82 L 137.76 124.67 C 137.25 125.46 137.48 126.51 138.27 127.02 C 139.05 127.52 140.10 127.30 140.61 126.51 L 141.15 125.66 C 141.66 124.87 141.43 123.82 140.65 123.32 C 139.86 122.81 138.81 123.04 138.31 123.82 Z M 137.75 124.70 L 137.22 125.55 C 136.72 126.34 136.97 127.38 137.76 127.88 C 138.55 128.37 139.60 128.13 140.09 127.33 L 140.62 126.49 C 141.11 125.69 140.87 124.65 140.08 124.15 C 139.28 123.66 138.24 123.90 137.75 124.70 Z M 137.20 125.57 L 136.70 126.42 C 136.22 127.22 136.48 128.26 137.28 128.74 C 138.09 129.22 139.12 128.95 139.60 128.15 L 140.11 127.31 C 140.58 126.51 140.32 125.47 139.52 124.99 C 138.72 124.51 137.68 124.77 137.20 125.57 Z M 136.68 126.45 L 136.19 127.31 C 135.73 128.12 136.01 129.15 136.82 129.61 C 137.63 130.07 138.67 129.79 139.13 128.98 L 139.62 128.12 C 140.08 127.31 139.80 126.28 138.99 125.82 C 138.18 125.36 137.15 125.64 136.68 126.45 Z M 136.18 127.34 L 135.69 128.23 C 135.25 129.05 135.55 130.07 136.37 130.52 C 137.19 130.96 138.21 130.66 138.66 129.84 L 139.14 128.95 C 139.59 128.13 139.29 127.11 138.47 126.66 C 137.65 126.22 136.63 126.52 136.18 127.34 Z M 135.68 128.26 L 135.22 129.14 C 134.79 129.96 135.11 130.98 135.94 131.41 C 136.76 131.84 137.78 131.52 138.21 130.69 L 138.67 129.81 C 139.10 128.99 138.78 127.97 137.95 127.54 C 137.13 127.11 136.11 127.43 135.68 128.26 Z M 135.21 129.17 L 134.76 130.08 C 134.35 130.91 134.69 131.92 135.52 132.33 C 136.35 132.74 137.36 132.40 137.77 131.57 L 138.22 130.66 C 138.63 129.83 138.29 128.82 137.46 128.41 C 136.63 128.00 135.62 128.34 135.21 129.17 Z M 134.74 130.12 L 134.31 131.04 C 133.92 131.88 134.28 132.88 135.12 133.27 C 135.96 133.66 136.96 133.30 137.35 132.46 L 137.79 131.54 C 138.18 130.70 137.81 129.70 136.97 129.31 C 136.13 128.91 135.14 129.28 134.74 130.12 Z M 134.30 131.08 L 133.90 132.00 C 133.53 132.85 133.92 133.84 134.77 134.20 C 135.62 134.57 136.61 134.18 136.97 133.33 L 137.37 132.41 C 137.74 131.56 137.35 130.58 136.50 130.21 C 135.65 129.84 134.66 130.23 134.30 131.08 Z M 133.88 132.06 L 133.50 133.03 C 133.17 133.89 133.60 134.86 134.46 135.19 C 135.32 135.52 136.29 135.10 136.62 134.24 L 137.00 133.27 C 137.33 132.41 136.90 131.44 136.04 131.11 C 135.18 130.77 134.21 131.20 133.88 132.06 Z M 133.47 133.13 L 133.10 134.31 C 132.82 135.19 133.31 136.13 134.19 136.40 C 135.07 136.68 136.01 136.19 136.29 135.31 L 136.66 134.13 C 136.93 133.25 136.44 132.31 135.56 132.04 C 134.68 131.76 133.75 132.25 133.47 133.13 Z M 133.05 134.53 L 132.88 135.53 C 132.72 136.44 133.34 137.30 134.25 137.46 C 135.15 137.61 136.02 137.00 136.17 136.09 L 136.34 135.09 C 136.49 134.18 135.88 133.32 134.97 133.16 C 134.06 133.01 133.20 133.62 133.05 134.53 Z M 132.87 136.04 L 132.98 136.77 C 133.10 137.68 133.95 138.32 134.86 138.19 C 135.77 138.06 136.41 137.22 136.28 136.31 L 136.18 135.58 C 136.05 134.66 135.20 134.03 134.29 134.16 C 133.38 134.29 132.74 135.13 132.87 136.04 Z M 133.65 137.89 L 134.23 138.31 C 134.98 138.85 136.02 138.69 136.56 137.94 C 137.10 137.20 136.93 136.16 136.19 135.61 L 135.61 135.19 C 134.86 134.65 133.82 134.81 133.28 135.56 C 132.74 136.30 132.90 137.35 133.65 137.89 Z M 135.30 138.63 L 136.30 138.57 C 137.21 138.52 137.92 137.73 137.87 136.82 C 137.82 135.90 137.03 135.19 136.11 135.24 L 135.12 135.30 C 134.20 135.35 133.50 136.14 133.55 137.05 C 133.60 137.97 134.38 138.68 135.30 138.63 Z M 136.75 138.48 L 137.82 138.11 C 138.68 137.81 139.14 136.86 138.84 135.99 C 138.54 135.12 137.59 134.66 136.72 134.96 L 135.66 135.34 C 134.79 135.64 134.33 136.59 134.63 137.46 C 134.93 138.32 135.88 138.78 136.75 138.48 Z M 138.05 138.00 L 138.90 137.55 C 139.71 137.12 140.02 136.11 139.59 135.30 C 139.15 134.49 138.14 134.18 137.33 134.61 L 136.48 135.07 C 135.67 135.50 135.37 136.51 135.80 137.32 C 136.23 138.13 137.24 138.44 138.05 138.00 Z M 139.04 137.47 L 139.87 136.92 C 140.63 136.41 140.84 135.38 140.34 134.61 C 139.83 133.85 138.80 133.64 138.03 134.14 L 137.20 134.69 C 136.43 135.20 136.22 136.23 136.73 137.00 C 137.24 137.77 138.27 137.98 139.04 137.47 Z M 139.93 136.88 L 140.77 136.26 C 141.52 135.72 141.68 134.68 141.14 133.94 C 140.60 133.20 139.56 133.03 138.81 133.57 L 137.97 134.19 C 137.23 134.73 137.06 135.77 137.60 136.51 C 138.14 137.26 139.18 137.42 139.93 136.88 Z M 140.78 136.26 L 141.46 135.76 C 142.20 135.21 142.36 134.17 141.81 133.43 C 141.26 132.69 140.22 132.53 139.48 133.08 L 138.80 133.58 C 138.07 134.13 137.91 135.17 138.45 135.91 C 139.00 136.65 140.04 136.80 140.78 136.26 Z M 141.46 135.76 L 142.19 135.21 C 142.93 134.67 143.09 133.62 142.54 132.89 C 142.00 132.15 140.95 131.99 140.22 132.54 L 139.48 133.08 C 138.74 133.63 138.59 134.67 139.13 135.41 C 139.68 136.15 140.72 136.30 141.46 135.76 Z M 142.20 135.21 L 143.02 134.60 C 143.75 134.06 143.91 133.02 143.36 132.28 C 142.82 131.54 141.77 131.38 141.04 131.93 L 140.22 132.54 C 139.48 133.08 139.32 134.13 139.87 134.86 C 140.42 135.60 141.46 135.76 142.20 135.21 Z M 143.02 134.60 L 143.95 133.91 C 144.69 133.36 144.84 132.32 144.29 131.58 C 143.75 130.85 142.71 130.69 141.97 131.24 L 141.03 131.93 C 140.30 132.48 140.14 133.52 140.69 134.26 C 141.24 134.99 142.28 135.15 143.02 134.60 Z M 143.95 133.91 L 144.77 133.30 C 145.50 132.75 145.66 131.71 145.11 130.98 C 144.56 130.24 143.52 130.09 142.79 130.63 L 141.97 131.24 C 141.23 131.79 141.08 132.83 141.62 133.57 C 142.17 134.30 143.21 134.46 143.95 133.91 Z M 144.77 133.30 L 145.57 132.70 C 146.31 132.16 146.46 131.12 145.91 130.38 C 145.37 129.64 144.33 129.49 143.59 130.04 L 142.79 130.63 C 142.05 131.18 141.90 132.22 142.44 132.96 C 142.99 133.69 144.03 133.85 144.77 133.30 Z M 145.57 132.70 L 146.40 132.09 C 147.14 131.54 147.29 130.50 146.75 129.76 C 146.20 129.03 145.16 128.87 144.42 129.42 L 143.59 130.04 C 142.85 130.58 142.70 131.62 143.25 132.36 C 143.79 133.10 144.83 133.25 145.57 132.70 Z M 146.40 132.09 L 147.24 131.47 C 147.98 130.92 148.13 129.88 147.59 129.15 C 147.04 128.41 146.00 128.25 145.27 128.80 L 144.43 129.42 C 143.69 129.96 143.53 131.00 144.08 131.74 C 144.62 132.48 145.66 132.63 146.40 132.09 Z M 147.24 131.47 L 148.06 130.86 C 148.79 130.32 148.95 129.28 148.41 128.54 C 147.86 127.81 146.83 127.65 146.09 128.19 L 145.27 128.80 C 144.53 129.34 144.37 130.38 144.92 131.12 C 145.46 131.85 146.50 132.01 147.24 131.47 Z M 148.05 130.86 L 148.83 130.30 C 149.57 129.76 149.73 128.72 149.19 127.98 C 148.65 127.24 147.61 127.08 146.87 127.62 L 146.09 128.19 C 145.35 128.73 145.19 129.77 145.74 130.51 C 146.28 131.25 147.31 131.41 148.05 130.86 Z M 148.82 130.30 L 149.75 129.63 C 150.49 129.09 150.66 128.06 150.12 127.31 C 149.59 126.57 148.55 126.41 147.81 126.94 L 146.88 127.62 C 146.14 128.15 145.97 129.19 146.51 129.93 C 147.04 130.67 148.08 130.84 148.82 130.30 Z M 149.74 129.64 L 150.62 129.02 C 151.36 128.49 151.54 127.45 151.01 126.71 C 150.48 125.96 149.45 125.78 148.70 126.31 L 147.82 126.93 C 147.08 127.46 146.90 128.49 147.43 129.24 C 147.95 129.99 148.99 130.17 149.74 129.64 Z M 150.59 129.04 L 151.38 128.50 C 152.14 127.99 152.33 126.95 151.82 126.20 C 151.31 125.44 150.27 125.24 149.52 125.76 L 148.73 126.29 C 147.97 126.81 147.77 127.84 148.29 128.60 C 148.80 129.35 149.83 129.55 150.59 129.04 Z M 151.34 128.52 L 152.08 128.05 C 152.85 127.56 153.07 126.53 152.58 125.76 C 152.08 124.99 151.06 124.77 150.29 125.26 L 149.55 125.73 C 148.78 126.23 148.56 127.25 149.05 128.02 C 149.55 128.79 150.57 129.02 151.34 128.52 Z M 152.03 128.09 L 152.82 127.62 C 153.61 127.15 153.87 126.13 153.40 125.34 C 152.93 124.55 151.91 124.29 151.12 124.76 L 150.33 125.23 C 149.55 125.70 149.29 126.72 149.75 127.51 C 150.22 128.29 151.24 128.55 152.03 128.09 Z M 152.75 127.66 L 153.61 127.20 C 154.42 126.77 154.73 125.76 154.30 124.95 C 153.86 124.14 152.86 123.83 152.05 124.26 L 151.19 124.72 C 150.38 125.15 150.07 126.16 150.51 126.97 C 150.94 127.78 151.94 128.09 152.75 127.66 Z M 153.53 127.24 L 154.43 126.82 C 155.26 126.43 155.63 125.45 155.24 124.61 C 154.85 123.78 153.86 123.42 153.03 123.80 L 152.13 124.22 C 151.30 124.61 150.93 125.60 151.32 126.43 C 151.71 127.27 152.70 127.63 153.53 127.24 Z M 154.35 126.86 L 155.32 126.48 C 156.17 126.14 156.59 125.17 156.25 124.31 C 155.91 123.46 154.94 123.04 154.08 123.38 L 153.11 123.76 C 152.26 124.10 151.84 125.07 152.18 125.93 C 152.52 126.78 153.49 127.20 154.35 126.86 Z M 155.24 126.51 L 156.18 126.19 C 157.06 125.89 157.52 124.94 157.22 124.07 C 156.93 123.19 155.98 122.73 155.10 123.02 L 154.16 123.35 C 153.29 123.64 152.82 124.59 153.12 125.47 C 153.42 126.34 154.37 126.81 155.24 126.51 Z M 156.11 126.22 L 157.09 125.93 C 157.98 125.67 158.49 124.75 158.24 123.86 C 157.98 122.97 157.05 122.45 156.16 122.71 L 155.18 123.00 C 154.29 123.25 153.78 124.18 154.03 125.07 C 154.29 125.96 155.22 126.47 156.11 126.22 Z M 157.01 125.96 L 157.99 125.73 C 158.90 125.52 159.46 124.62 159.25 123.71 C 159.04 122.81 158.14 122.25 157.24 122.46 L 156.25 122.68 C 155.35 122.89 154.78 123.80 154.99 124.70 C 155.20 125.60 156.10 126.17 157.01 125.96 Z M 157.88 125.76 L 158.85 125.60 C 159.77 125.46 160.40 124.59 160.25 123.67 C 160.11 122.75 159.24 122.13 158.32 122.27 L 157.35 122.43 C 156.43 122.58 155.80 123.44 155.95 124.36 C 156.10 125.28 156.96 125.90 157.88 125.76 Z M 158.67 125.63 L 159.77 125.58 C 160.71 125.53 161.43 124.74 161.38 123.81 C 161.34 122.87 160.55 122.15 159.62 122.20 L 158.51 122.25 C 157.58 122.29 156.85 123.08 156.90 124.02 C 156.94 124.95 157.73 125.67 158.67 125.63 Z M 159.45 125.57 L 160.42 125.70 C 161.35 125.84 162.21 125.19 162.34 124.26 C 162.47 123.34 161.83 122.48 160.90 122.34 L 159.93 122.21 C 159.01 122.07 158.15 122.72 158.01 123.65 C 157.88 124.57 158.53 125.43 159.45 125.57 Z M 159.97 125.58 L 160.78 125.94 C 161.64 126.32 162.65 125.93 163.03 125.07 C 163.41 124.21 163.02 123.21 162.16 122.83 L 161.35 122.47 C 160.49 122.09 159.48 122.47 159.10 123.33 C 158.72 124.20 159.11 125.20 159.97 125.58 Z M 160.31 125.64 L 160.97 126.25 C 161.66 126.89 162.74 126.85 163.39 126.16 C 164.03 125.47 163.99 124.39 163.30 123.75 L 162.63 123.13 C 161.94 122.49 160.86 122.53 160.22 123.22 C 159.58 123.91 159.62 124.99 160.31 125.64 Z M 160.68 125.90 L 161.20 126.74 C 161.70 127.54 162.76 127.79 163.56 127.29 C 164.36 126.79 164.61 125.73 164.11 124.93 L 163.59 124.09 C 163.09 123.29 162.03 123.04 161.23 123.54 C 160.42 124.04 160.18 125.10 160.68 125.90 Z M 161.06 126.48 L 161.48 127.50 C 161.84 128.38 162.84 128.80 163.72 128.45 C 164.59 128.09 165.02 127.09 164.66 126.21 L 164.25 125.19 C 163.89 124.31 162.89 123.89 162.01 124.24 C 161.13 124.60 160.71 125.60 161.06 126.48 Z M 161.42 127.35 L 161.68 128.21 C 161.95 129.12 162.91 129.64 163.82 129.36 C 164.73 129.09 165.25 128.13 164.98 127.22 L 164.72 126.36 C 164.44 125.45 163.49 124.93 162.58 125.21 C 161.67 125.48 161.15 126.44 161.42 127.35 Z M 161.65 128.10 L 161.87 129.04 C 162.08 129.97 163.01 130.55 163.93 130.33 C 164.86 130.12 165.44 129.19 165.22 128.27 L 165.01 127.33 C 164.79 126.40 163.87 125.82 162.94 126.04 C 162.01 126.25 161.43 127.18 161.65 128.10 Z M 161.85 128.95 L 162.02 129.97 C 162.19 130.91 163.08 131.54 164.02 131.37 C 164.96 131.21 165.58 130.32 165.42 129.38 L 165.24 128.36 C 165.08 127.42 164.19 126.79 163.25 126.96 C 162.31 127.12 161.68 128.01 161.85 128.95 Z M 162.01 129.89 L 162.15 130.98 C 162.26 131.93 163.13 132.60 164.07 132.48 C 165.02 132.36 165.69 131.50 165.57 130.55 L 165.43 129.46 C 165.32 128.51 164.45 127.84 163.51 127.96 C 162.56 128.08 161.89 128.94 162.01 129.89 Z M 162.14 130.91 L 162.22 131.93 C 162.31 132.88 163.14 133.58 164.09 133.50 C 165.04 133.42 165.75 132.58 165.67 131.63 L 165.58 130.62 C 165.50 129.67 164.66 128.96 163.71 129.04 C 162.76 129.13 162.06 129.96 162.14 130.91 Z M 162.22 131.88 L 162.28 132.91 C 162.34 133.87 163.16 134.59 164.11 134.54 C 165.06 134.48 165.79 133.66 165.73 132.71 L 165.67 131.68 C 165.61 130.73 164.80 130.00 163.84 130.05 C 162.89 130.11 162.16 130.93 162.22 131.88 Z M 162.28 132.88 L 162.32 133.90 C 162.36 134.86 163.16 135.60 164.12 135.56 C 165.07 135.53 165.81 134.72 165.77 133.77 L 165.73 132.74 C 165.70 131.79 164.89 131.05 163.94 131.09 C 162.98 131.12 162.24 131.93 162.28 132.88 Z M 162.32 133.88 L 162.34 134.86 C 162.37 135.82 163.16 136.57 164.12 136.54 C 165.07 136.52 165.83 135.73 165.80 134.77 L 165.78 133.79 C 165.75 132.84 164.96 132.08 164.00 132.11 C 163.05 132.13 162.29 132.93 162.32 133.88 Z M 162.34 134.85 L 162.36 135.85 C 162.38 136.80 163.16 137.56 164.12 137.55 C 165.07 137.53 165.83 136.74 165.82 135.79 L 165.80 134.79 C 165.78 133.83 165.00 133.07 164.04 133.09 C 163.09 133.10 162.33 133.89 162.34 134.85 Z M 162.36 135.83 L 162.37 136.89 C 162.37 137.85 163.15 138.62 164.10 138.61 C 165.06 138.61 165.83 137.83 165.82 136.87 L 165.82 135.81 C 165.81 134.85 165.04 134.08 164.08 134.09 C 163.13 134.09 162.36 134.87 162.36 135.83 Z M 162.37 136.84 L 162.34 137.80 C 162.32 138.76 163.07 139.55 164.03 139.58 C 164.98 139.60 165.78 138.84 165.80 137.89 L 165.82 136.92 C 165.85 135.97 165.09 135.18 164.14 135.15 C 163.18 135.13 162.39 135.89 162.37 136.84 Z M 162.35 137.73 L 162.28 138.65 C 162.21 139.60 162.93 140.43 163.89 140.49 C 164.84 140.56 165.66 139.84 165.73 138.89 L 165.80 137.97 C 165.86 137.02 165.14 136.19 164.19 136.12 C 163.24 136.05 162.41 136.77 162.35 137.73 Z M 162.29 138.55 L 162.17 139.50 C 162.05 140.45 162.73 141.31 163.67 141.43 C 164.62 141.55 165.48 140.88 165.60 139.93 L 165.72 138.98 C 165.84 138.04 165.17 137.17 164.22 137.05 C 163.27 136.93 162.41 137.61 162.29 138.55 Z M 162.18 139.42 L 162.02 140.39 C 161.85 141.34 162.49 142.23 163.43 142.39 C 164.37 142.55 165.26 141.92 165.42 140.98 L 165.59 140.01 C 165.75 139.07 165.12 138.17 164.18 138.01 C 163.24 137.85 162.35 138.48 162.18 139.42 Z M 162.03 140.34 L 161.82 141.34 C 161.63 142.28 162.23 143.19 163.17 143.38 C 164.10 143.58 165.02 142.97 165.21 142.04 L 165.41 141.03 C 165.61 140.10 165.00 139.19 164.07 138.99 C 163.13 138.80 162.22 139.40 162.03 140.34 Z M 161.83 141.31 L 161.60 142.30 C 161.39 143.23 161.98 144.16 162.91 144.37 C 163.84 144.58 164.77 143.99 164.98 143.06 L 165.20 142.07 C 165.41 141.14 164.83 140.21 163.90 140.00 C 162.96 139.79 162.04 140.38 161.83 141.31 Z M 161.61 142.28 L 161.38 143.25 C 161.16 144.17 161.73 145.11 162.66 145.33 C 163.59 145.55 164.52 144.98 164.74 144.05 L 164.97 143.08 C 165.20 142.15 164.62 141.22 163.69 141.00 C 162.77 140.78 161.83 141.35 161.61 142.28 Z M 161.38 143.22 L 161.14 144.20 C 160.90 145.13 161.46 146.07 162.39 146.30 C 163.31 146.54 164.25 145.98 164.49 145.05 L 164.74 144.07 C 164.97 143.15 164.41 142.21 163.48 141.97 C 162.56 141.74 161.62 142.30 161.38 143.22 Z M 161.14 144.18 L 160.88 145.15 C 160.64 146.08 161.18 147.02 162.11 147.27 C 163.03 147.52 163.98 146.97 164.22 146.05 L 164.48 145.07 C 164.73 144.15 164.18 143.20 163.26 142.96 C 162.34 142.71 161.39 143.26 161.14 144.18 Z M 160.89 145.13 L 160.62 146.10 C 160.36 147.02 160.89 147.97 161.81 148.23 C 162.73 148.49 163.68 147.95 163.94 147.04 L 164.22 146.07 C 164.48 145.15 163.94 144.19 163.02 143.94 C 162.10 143.68 161.15 144.21 160.89 145.13 Z M 160.62 146.07 L 160.34 147.03 C 160.07 147.94 160.59 148.90 161.50 149.18 C 162.42 149.45 163.38 148.93 163.65 148.02 L 163.94 147.06 C 164.21 146.15 163.69 145.18 162.77 144.91 C 161.86 144.64 160.90 145.16 160.62 146.07 Z M 160.35 147.00 L 160.05 147.95 C 159.76 148.86 160.27 149.83 161.18 150.12 C 162.09 150.41 163.06 149.90 163.34 148.99 L 163.64 148.04 C 163.93 147.13 163.43 146.16 162.51 145.87 C 161.60 145.59 160.63 146.09 160.35 147.00 Z M 160.06 147.93 L 159.74 148.88 C 159.44 149.78 159.93 150.76 160.83 151.06 C 161.74 151.36 162.72 150.87 163.02 149.97 L 163.34 149.02 C 163.64 148.11 163.15 147.13 162.24 146.83 C 161.34 146.53 160.36 147.02 160.06 147.93 Z M 159.75 148.85 L 159.43 149.78 C 159.11 150.68 159.59 151.66 160.49 151.97 C 161.39 152.29 162.38 151.81 162.69 150.91 L 163.01 149.99 C 163.32 149.09 162.85 148.10 161.95 147.79 C 161.05 147.48 160.06 147.95 159.75 148.85 Z M 159.43 149.76 L 159.10 150.69 C 158.77 151.59 159.24 152.58 160.14 152.90 C 161.03 153.23 162.02 152.76 162.35 151.86 L 162.68 150.93 C 163.01 150.03 162.54 149.04 161.64 148.72 C 160.75 148.40 159.76 148.86 159.43 149.76 Z M 159.10 150.68 L 158.75 151.63 C 158.42 152.52 158.88 153.52 159.77 153.85 C 160.67 154.18 161.66 153.72 161.99 152.82 L 162.34 151.88 C 162.67 150.98 162.21 149.99 161.32 149.66 C 160.42 149.33 159.43 149.79 159.10 150.68 Z M 158.76 151.62 L 158.40 152.57 C 158.07 153.46 158.52 154.46 159.41 154.79 C 160.30 155.12 161.30 154.67 161.63 153.78 L 161.99 152.83 C 162.32 151.94 161.87 150.95 160.98 150.61 C 160.08 150.28 159.09 150.73 158.76 151.62 Z M 158.40 152.57 L 158.06 153.49 C 157.72 154.38 158.17 155.37 159.07 155.70 C 159.96 156.04 160.95 155.59 161.29 154.70 L 161.63 153.78 C 161.96 152.89 161.51 151.90 160.62 151.56 C 159.73 151.23 158.74 151.68 158.40 152.57 Z M 158.06 153.49 L 157.71 154.42 C 157.38 155.31 157.83 156.30 158.72 156.64 C 159.61 156.97 160.60 156.52 160.93 155.63 L 161.28 154.70 C 161.62 153.81 161.17 152.81 160.28 152.48 C 159.39 152.14 158.39 152.60 158.06 153.49 Z M 157.71 154.42 L 157.36 155.37 C 157.02 156.26 157.48 157.25 158.37 157.58 C 159.26 157.92 160.25 157.46 160.58 156.57 L 160.94 155.62 C 161.27 154.73 160.81 153.74 159.92 153.41 C 159.03 153.08 158.04 153.53 157.71 154.42 Z M 157.35 155.38 L 157.00 156.33 C 156.67 157.22 157.13 158.21 158.02 158.54 C 158.91 158.87 159.90 158.41 160.23 157.52 L 160.58 156.57 C 160.91 155.67 160.45 154.69 159.56 154.36 C 158.67 154.03 157.68 154.49 157.35 155.38 Z M 157.00 156.34 L 156.67 157.26 C 156.34 158.16 156.80 159.14 157.69 159.47 C 158.59 159.79 159.57 159.33 159.90 158.44 L 160.23 157.51 C 160.56 156.62 160.10 155.64 159.20 155.31 C 158.31 154.99 157.33 155.45 157.00 156.34 Z M 156.67 157.27 L 156.33 158.20 C 156.01 159.10 156.47 160.08 157.36 160.40 C 158.25 160.72 159.24 160.26 159.56 159.37 L 159.90 158.43 C 160.22 157.54 159.76 156.56 158.86 156.24 C 157.97 155.91 156.99 156.38 156.67 157.27 Z M 156.33 158.20 L 155.99 159.15 C 155.67 160.04 156.13 161.02 157.02 161.35 C 157.91 161.67 158.89 161.20 159.22 160.31 L 159.56 159.37 C 159.88 158.48 159.42 157.49 158.52 157.17 C 157.63 156.85 156.65 157.31 156.33 158.20 Z M 155.99 159.15 L 155.65 160.10 C 155.32 160.99 155.78 161.98 156.67 162.30 C 157.56 162.62 158.54 162.16 158.87 161.27 L 159.21 160.32 C 159.53 159.43 159.08 158.44 158.19 158.12 C 157.30 157.80 156.31 158.26 155.99 159.15 Z M 155.65 160.10 L 155.31 161.02 C 154.99 161.91 155.44 162.89 156.33 163.21 C 157.22 163.54 158.20 163.08 158.53 162.19 L 158.86 161.28 C 159.19 160.39 158.73 159.41 157.84 159.08 C 156.96 158.76 155.97 159.21 155.65 160.10 Z M 155.32 161.02 L 154.98 161.93 C 154.65 162.82 155.11 163.80 155.99 164.13 C 156.88 164.45 157.86 164.00 158.18 163.12 L 158.52 162.20 C 158.85 161.31 158.40 160.33 157.51 160.00 C 156.63 159.68 155.64 160.13 155.32 161.02 Z M 154.98 161.93 L 154.64 162.87 C 154.31 163.75 154.76 164.73 155.65 165.06 C 156.53 165.38 157.51 164.93 157.84 164.05 L 158.18 163.11 C 158.51 162.23 158.06 161.25 157.17 160.92 C 156.29 160.60 155.31 161.05 154.98 161.93 Z M 154.64 162.87 L 154.29 163.83 C 153.96 164.71 154.42 165.69 155.30 166.01 C 156.18 166.34 157.16 165.88 157.48 165.00 L 157.84 164.05 C 158.16 163.16 157.71 162.18 156.82 161.86 C 155.94 161.54 154.96 161.99 154.64 162.87 Z M 154.29 163.83 L 153.93 164.80 C 153.61 165.68 154.07 166.66 154.95 166.98 C 155.83 167.30 156.81 166.85 157.13 165.96 L 157.48 164.99 C 157.81 164.11 157.35 163.14 156.47 162.82 C 155.58 162.49 154.61 162.95 154.29 163.83 Z M 153.94 164.81 L 153.60 165.75 C 153.28 166.63 153.74 167.61 154.62 167.92 C 155.50 168.24 156.48 167.78 156.79 166.90 L 157.13 165.96 C 157.45 165.07 156.99 164.10 156.11 163.79 C 155.22 163.47 154.25 163.93 153.94 164.81 Z M 153.60 165.76 L 153.26 166.71 C 152.95 167.59 153.41 168.56 154.29 168.88 C 155.17 169.19 156.14 168.73 156.45 167.84 L 156.79 166.89 C 157.10 166.01 156.64 165.04 155.76 164.73 C 154.88 164.42 153.91 164.88 153.60 165.76 Z M 153.26 166.72 L 152.93 167.67 C 152.62 168.56 153.08 169.52 153.97 169.83 C 154.85 170.14 155.81 169.67 156.12 168.79 L 156.45 167.84 C 156.76 166.96 156.30 165.99 155.42 165.68 C 154.53 165.37 153.57 165.84 153.26 166.72 Z M 152.93 167.68 L 152.60 168.63 C 152.30 169.51 152.77 170.47 153.65 170.77 C 154.53 171.08 155.49 170.61 155.79 169.73 L 156.12 168.78 C 156.42 167.90 155.95 166.94 155.07 166.64 C 154.19 166.33 153.23 166.80 152.93 167.68 Z M 152.60 168.63 L 152.28 169.58 C 151.98 170.46 152.46 171.42 153.34 171.71 C 154.22 172.01 155.17 171.54 155.47 170.66 L 155.79 169.72 C 156.09 168.84 155.62 167.88 154.74 167.58 C 153.86 167.28 152.90 167.75 152.60 168.63 Z M 152.28 169.59 L 151.96 170.57 C 151.66 171.45 152.14 172.40 153.02 172.70 C 153.90 172.99 154.85 172.52 155.14 171.64 L 155.47 170.65 C 155.77 169.77 155.29 168.82 154.41 168.53 C 153.53 168.23 152.58 168.71 152.28 169.59 Z M 151.96 170.57 L 151.64 171.52 C 151.35 172.40 151.82 173.35 152.70 173.65 C 153.58 173.94 154.53 173.47 154.82 172.59 L 155.14 171.64 C 155.43 170.76 154.96 169.81 154.08 169.51 C 153.20 169.22 152.25 169.69 151.96 170.57 Z M 151.65 171.52 L 151.33 172.45 C 151.03 173.32 151.50 174.27 152.38 174.57 C 153.25 174.87 154.20 174.40 154.50 173.52 L 154.81 172.59 C 155.11 171.72 154.64 170.77 153.77 170.47 C 152.89 170.18 151.94 170.64 151.65 171.52 Z M 151.34 172.44 L 151.02 173.35 C 150.71 174.22 151.17 175.17 152.04 175.48 C 152.91 175.78 153.87 175.32 154.17 174.45 L 154.49 173.54 C 154.80 172.67 154.34 171.71 153.47 171.41 C 152.60 171.11 151.64 171.56 151.34 172.44 Z M 151.03 173.33 L 150.69 174.27 C 150.37 175.13 150.81 176.09 151.68 176.41 C 152.54 176.72 153.50 176.28 153.82 175.41 L 154.16 174.47 C 154.48 173.61 154.03 172.65 153.17 172.34 C 152.30 172.02 151.35 172.46 151.03 173.33 Z M 150.70 174.25 L 150.34 175.19 C 150.01 176.05 150.44 177.01 151.30 177.34 C 152.16 177.66 153.12 177.23 153.45 176.37 L 153.80 175.43 C 154.13 174.57 153.70 173.62 152.84 173.29 C 151.98 172.96 151.02 173.39 150.70 174.25 Z M 150.35 175.18 L 149.99 176.12 C 149.65 176.97 150.07 177.93 150.93 178.26 C 151.78 178.59 152.74 178.17 153.07 177.32 L 153.44 176.39 C 153.77 175.53 153.35 174.57 152.49 174.24 C 151.64 173.91 150.68 174.33 150.35 175.18 Z M 149.99 176.11 L 149.63 177.03 C 149.29 177.88 149.71 178.84 150.56 179.17 C 151.41 179.51 152.36 179.09 152.70 178.25 L 153.06 177.32 C 153.40 176.48 152.98 175.52 152.14 175.18 C 151.29 174.85 150.33 175.26 149.99 176.11 Z M 149.63 177.03 L 149.26 177.97 C 148.93 178.82 149.34 179.77 150.19 180.11 C 151.03 180.44 151.99 180.03 152.32 179.18 L 152.69 178.24 C 153.03 177.40 152.62 176.44 151.77 176.11 C 150.93 175.77 149.97 176.19 149.63 177.03 Z M 149.27 177.97 L 148.89 178.92 C 148.56 179.77 148.97 180.72 149.81 181.05 C 150.66 181.39 151.61 180.97 151.94 180.13 L 152.32 179.18 C 152.65 178.34 152.24 177.38 151.39 177.05 C 150.55 176.72 149.60 177.13 149.27 177.97 Z M 148.90 178.93 L 148.53 179.86 C 148.20 180.70 148.61 181.65 149.45 181.98 C 150.29 182.31 151.24 181.90 151.57 181.06 L 151.94 180.13 C 152.27 179.29 151.86 178.34 151.02 178.01 C 150.18 177.68 149.23 178.09 148.90 178.93 Z M 148.53 179.86 L 148.18 180.77 C 147.85 181.60 148.26 182.55 149.09 182.88 C 149.93 183.21 150.88 182.80 151.21 181.96 L 151.57 181.06 C 151.90 180.22 151.49 179.27 150.65 178.94 C 149.81 178.61 148.86 179.02 148.53 179.86 Z M 148.18 180.77 L 147.81 181.71 C 147.48 182.54 147.89 183.48 148.72 183.81 C 149.55 184.14 150.50 183.74 150.83 182.90 L 151.20 181.96 C 151.53 181.13 151.12 180.19 150.29 179.86 C 149.46 179.53 148.51 179.93 148.18 180.77 Z M 147.82 181.70 L 147.44 182.65 C 147.11 183.48 147.51 184.42 148.34 184.75 C 149.17 185.08 150.11 184.68 150.44 183.85 L 150.82 182.90 C 151.15 182.08 150.75 181.13 149.92 180.80 C 149.09 180.47 148.15 180.87 147.82 181.70 Z M 147.45 182.64 L 147.08 183.56 C 146.74 184.39 147.14 185.33 147.96 185.66 C 148.78 186.00 149.72 185.60 150.06 184.78 L 150.43 183.86 C 150.77 183.04 150.37 182.10 149.55 181.76 C 148.72 181.43 147.78 181.82 147.45 182.64 Z M 147.09 183.55 L 146.72 184.44 C 146.37 185.25 146.76 186.19 147.58 186.54 C 148.39 186.88 149.33 186.49 149.67 185.68 L 150.05 184.79 C 150.39 183.97 150.00 183.03 149.18 182.69 C 148.37 182.35 147.43 182.73 147.09 183.55 Z M 146.73 184.42 L 146.33 185.35 C 145.98 186.16 146.35 187.10 147.16 187.45 C 147.97 187.80 148.91 187.43 149.26 186.62 L 149.66 185.69 C 150.01 184.88 149.64 183.94 148.83 183.59 C 148.02 183.24 147.08 183.61 146.73 184.42 Z M 146.34 185.34 L 145.93 186.26 C 145.58 187.06 145.94 188.00 146.74 188.35 C 147.55 188.71 148.49 188.35 148.84 187.54 L 149.25 186.63 C 149.60 185.83 149.24 184.89 148.44 184.53 C 147.63 184.18 146.69 184.54 146.34 185.34 Z M 145.94 186.25 L 145.54 187.16 C 145.18 187.96 145.54 188.89 146.34 189.25 C 147.14 189.61 148.07 189.25 148.43 188.45 L 148.83 187.55 C 149.19 186.75 148.83 185.81 148.03 185.45 C 147.24 185.10 146.30 185.46 145.94 186.25 Z M 145.54 187.16 L 145.15 188.04 C 144.80 188.84 145.16 189.77 145.95 190.12 C 146.75 190.48 147.68 190.12 148.04 189.32 L 148.43 188.44 C 148.78 187.65 148.42 186.72 147.63 186.36 C 146.83 186.01 145.90 186.37 145.54 187.16 Z M 145.17 188.02 L 144.76 188.90 C 144.39 189.69 144.74 190.62 145.53 190.99 C 146.31 191.35 147.25 191.01 147.62 190.22 L 148.02 189.34 C 148.39 188.55 148.04 187.62 147.26 187.25 C 146.47 186.89 145.53 187.23 145.17 188.02 Z M 144.79 188.85 L 144.33 189.75 C 143.93 190.52 144.24 191.47 145.01 191.86 C 145.78 192.26 146.73 191.95 147.12 191.18 L 147.58 190.28 C 147.98 189.50 147.67 188.56 146.90 188.16 C 146.13 187.77 145.18 188.07 144.79 188.85 Z M 144.38 189.67 L 143.82 190.61 C 143.38 191.35 143.63 192.32 144.37 192.76 C 145.12 193.19 146.08 192.95 146.52 192.20 L 147.07 191.26 C 147.51 190.51 147.27 189.55 146.52 189.11 C 145.78 188.67 144.82 188.92 144.38 189.67 Z M 143.89 190.50 L 143.22 191.45 C 142.72 192.16 142.88 193.14 143.59 193.64 C 144.29 194.14 145.27 193.97 145.77 193.26 L 146.45 192.31 C 146.95 191.61 146.78 190.63 146.07 190.13 C 145.37 189.63 144.39 189.80 143.89 190.50 Z M 143.37 191.27 L 142.66 192.00 C 142.06 192.61 142.07 193.60 142.69 194.21 C 143.31 194.81 144.30 194.80 144.90 194.18 L 145.61 193.45 C 146.21 192.83 146.20 191.84 145.59 191.24 C 144.97 190.64 143.98 190.65 143.37 191.27 Z M 143.16 191.65 L 142.49 191.95 C 141.70 192.29 141.33 193.21 141.67 194.00 C 142.02 194.79 142.94 195.16 143.73 194.81 L 144.40 194.52 C 145.19 194.18 145.56 193.26 145.22 192.47 C 144.87 191.68 143.95 191.31 143.16 191.65 Z M 143.84 192.00 L 143.23 191.68 C 142.47 191.27 141.53 191.55 141.12 192.32 C 140.71 193.08 141.00 194.02 141.76 194.43 L 142.37 194.76 C 143.13 195.16 144.08 194.88 144.48 194.12 C 144.89 193.36 144.60 192.41 143.84 192.00 Z M 143.82 192.22 L 143.29 191.38 C 142.83 190.66 141.86 190.44 141.14 190.90 C 140.41 191.36 140.19 192.33 140.65 193.05 L 141.18 193.89 C 141.64 194.62 142.60 194.83 143.33 194.37 C 144.06 193.91 144.28 192.95 143.82 192.22 Z M 143.40 191.59 L 142.92 190.49 C 142.57 189.70 141.65 189.34 140.86 189.69 C 140.07 190.03 139.71 190.95 140.06 191.74 L 140.54 192.84 C 140.89 193.63 141.81 194.00 142.60 193.65 C 143.39 193.30 143.75 192.38 143.40 191.59 Z M 142.93 190.53 L 142.87 190.38 C 142.55 189.58 141.64 189.20 140.84 189.52 C 140.04 189.85 139.66 190.76 139.98 191.56 L 140.04 191.71 C 140.37 192.51 141.28 192.89 142.08 192.56 C 142.88 192.24 143.26 191.33 142.93 190.53 Z"
      fill="black"
      fill-rule="nonzero" /><path d="M 135.53 145.11 L 135.04 146.10 C 134.62 146.94 134.97 147.96 135.81 148.37 C 136.65 148.79 137.66 148.45 138.08 147.61 L 138.57 146.62 C 138.99 145.78 138.64 144.76 137.80 144.34 C 136.97 143.93 135.95 144.27 135.53 145.11 Z M 134.93 146.31 L 134.61 147.26 C 134.31 148.16 134.80 149.14 135.70 149.44 C 136.61 149.74 137.58 149.25 137.88 148.34 L 138.19 147.40 C 138.49 146.49 138.00 145.52 137.10 145.22 C 136.20 144.92 135.23 145.41 134.93 146.31 Z M 134.50 147.88 L 134.54 148.74 C 134.58 149.71 135.39 150.45 136.36 150.41 C 137.32 150.37 138.07 149.56 138.03 148.59 L 137.99 147.73 C 137.95 146.76 137.13 146.02 136.17 146.06 C 135.21 146.10 134.46 146.91 134.50 147.88 Z M 134.80 149.62 L 135.21 150.26 C 135.74 151.07 136.83 151.31 137.64 150.78 C 138.46 150.26 138.70 149.17 138.17 148.35 L 137.76 147.72 C 137.24 146.90 136.15 146.66 135.33 147.19 C 134.52 147.71 134.28 148.80 134.80 149.62 Z M 135.62 150.70 L 136.35 151.25 C 137.12 151.85 138.22 151.70 138.81 150.93 C 139.40 150.16 139.26 149.06 138.49 148.46 L 137.76 147.91 C 136.99 147.32 135.89 147.46 135.30 148.23 C 134.71 149.00 134.85 150.11 135.62 150.70 Z M 136.62 151.43 L 137.61 151.93 C 138.47 152.36 139.53 152.02 139.97 151.15 C 140.41 150.29 140.06 149.23 139.19 148.79 L 138.21 148.29 C 137.34 147.85 136.29 148.20 135.85 149.07 C 135.41 149.93 135.76 150.99 136.62 151.43 Z M 137.77 151.99 L 138.85 152.41 C 139.75 152.76 140.77 152.31 141.12 151.41 C 141.47 150.51 141.02 149.49 140.12 149.14 L 139.03 148.72 C 138.13 148.37 137.11 148.82 136.76 149.72 C 136.41 150.63 136.86 151.64 137.77 151.99 Z M 138.93 152.43 L 139.78 152.71 C 140.70 153.02 141.68 152.52 141.99 151.61 C 142.29 150.70 141.80 149.71 140.88 149.41 L 140.03 149.12 C 139.12 148.82 138.13 149.31 137.83 150.23 C 137.52 151.14 138.02 152.13 138.93 152.43 Z M 139.83 152.71 L 140.74 152.99 C 141.65 153.26 142.62 152.75 142.89 151.84 C 143.17 150.93 142.66 149.96 141.74 149.69 L 140.83 149.41 C 139.92 149.13 138.96 149.65 138.68 150.56 C 138.40 151.47 138.92 152.43 139.83 152.71 Z M 140.77 152.98 L 141.74 153.25 C 142.64 153.51 143.59 152.99 143.85 152.08 C 144.11 151.18 143.58 150.23 142.67 149.97 L 141.71 149.70 C 140.81 149.44 139.86 149.96 139.60 150.87 C 139.34 151.77 139.87 152.72 140.77 152.98 Z M 141.75 153.24 L 142.76 153.52 C 143.66 153.77 144.59 153.24 144.84 152.34 C 145.09 151.44 144.56 150.51 143.66 150.26 L 142.66 149.98 C 141.76 149.74 140.83 150.26 140.58 151.16 C 140.33 152.06 140.86 152.99 141.75 153.24 Z M 142.77 153.50 L 143.82 153.79 C 144.71 154.03 145.63 153.51 145.87 152.62 C 146.12 151.73 145.59 150.81 144.70 150.57 L 143.66 150.28 C 142.77 150.04 141.85 150.56 141.60 151.45 C 141.36 152.34 141.88 153.26 142.77 153.50 Z M 143.82 153.77 L 144.84 154.06 C 145.72 154.30 146.63 153.79 146.88 152.91 C 147.13 152.03 146.61 151.12 145.73 150.88 L 144.71 150.59 C 143.83 150.34 142.92 150.86 142.67 151.73 C 142.42 152.61 142.94 153.53 143.82 153.77 Z M 144.83 154.04 L 145.83 154.33 C 146.70 154.58 147.61 154.08 147.86 153.21 C 148.11 152.34 147.61 151.43 146.74 151.18 L 145.74 150.89 C 144.87 150.64 143.96 151.14 143.71 152.01 C 143.46 152.88 143.97 153.79 144.83 154.04 Z M 145.82 154.31 L 146.82 154.61 C 147.68 154.86 148.58 154.37 148.84 153.51 C 149.09 152.66 148.60 151.75 147.74 151.50 L 146.75 151.20 C 145.89 150.94 144.99 151.43 144.73 152.29 C 144.47 153.15 144.96 154.05 145.82 154.31 Z M 146.80 154.59 L 147.78 154.89 C 148.63 155.16 149.53 154.68 149.80 153.83 C 150.06 152.99 149.59 152.08 148.74 151.82 L 147.76 151.52 C 146.91 151.25 146.01 151.73 145.74 152.57 C 145.48 153.42 145.95 154.32 146.80 154.59 Z M 147.76 154.87 L 148.71 155.18 C 149.55 155.46 150.45 155.00 150.72 154.16 C 151.00 153.33 150.54 152.43 149.71 152.15 L 148.76 151.84 C 147.92 151.57 147.02 152.02 146.75 152.86 C 146.47 153.70 146.93 154.60 147.76 154.87 Z M 148.69 155.16 L 149.59 155.47 C 150.42 155.76 151.32 155.33 151.60 154.50 C 151.89 153.68 151.46 152.78 150.63 152.49 L 149.73 152.18 C 148.91 151.89 148.01 152.32 147.72 153.15 C 147.43 153.97 147.87 154.87 148.69 155.16 Z M 149.56 155.45 L 150.47 155.79 C 151.28 156.10 152.18 155.69 152.49 154.88 C 152.79 154.07 152.38 153.17 151.57 152.86 L 150.67 152.52 C 149.86 152.21 148.95 152.62 148.65 153.43 C 148.34 154.24 148.75 155.14 149.56 155.45 Z M 150.42 155.76 L 151.44 156.19 C 152.23 156.53 153.15 156.15 153.48 155.36 C 153.82 154.56 153.44 153.65 152.65 153.31 L 151.62 152.89 C 150.83 152.55 149.91 152.93 149.58 153.72 C 149.25 154.52 149.62 155.43 150.42 155.76 Z M 151.39 156.17 L 152.31 156.60 C 153.09 156.96 154.02 156.62 154.38 155.84 C 154.74 155.06 154.40 154.13 153.62 153.76 L 152.70 153.34 C 151.92 152.97 150.99 153.31 150.63 154.10 C 150.26 154.88 150.60 155.81 151.39 156.17 Z M 152.26 156.58 L 153.12 157.00 C 153.89 157.39 154.83 157.08 155.21 156.31 C 155.60 155.54 155.29 154.60 154.52 154.21 L 153.66 153.79 C 152.89 153.40 151.96 153.71 151.57 154.48 C 151.18 155.25 151.49 156.19 152.26 156.58 Z M 153.09 156.99 L 153.90 157.42 C 154.66 157.82 155.61 157.53 156.01 156.76 C 156.41 156.00 156.12 155.06 155.36 154.66 L 154.54 154.23 C 153.78 153.83 152.84 154.12 152.44 154.88 C 152.03 155.64 152.33 156.59 153.09 156.99 Z M 153.89 157.41 L 154.22 157.59 C 154.98 157.99 155.92 157.71 156.33 156.95 C 156.74 156.19 156.45 155.24 155.69 154.84 L 155.36 154.66 C 154.60 154.25 153.66 154.54 153.25 155.30 C 152.85 156.06 153.13 157.01 153.89 157.41 Z"
      fill="black"
      fill-rule="nonzero" /></svg>