<svg xmlns="http://www.w3.org/2000/svg" width="300" height="300" viewBox="0 0 300 300">
<path d="M 127.32 104.08 L 128.29 103.79 C 129.17 103.52 129.67 102.60 129.40 101.71 C 129.14 100.83 128.21 100.33 127.33 100.60 L 126.36 100.89 C 125.48 101.15 124.98 102.08 125.24 102.96 C 125.51 103.84 126.44 104.34 127.32 104.08 Z M 128.26 103.83 L 129.22 103.57 C 130.13 103.32 130.66 102.38 130.41 101.48 C 130.17 100.57 129.23 100.04 128.32 100.29 L 127.36 100.55 C 126.45 100.80 125.92 101.74 126.17 102.64 C 126.41 103.55 127.35 104.08 128.26 103.83 Z M 129.15 103.62 L 130.12 103.41 C 131.05 103.20 131.64 102.27 131.43 101.34 C 131.23 100.40 130.30 99.81 129.36 100.02 L 128.40 100.23 C 127.46 100.44 126.87 101.37 127.08 102.30 C 127.29 103.24 128.21 103.83 129.15 103.62 Z M 130.00 103.45 L 130.89 103.32 C 131.85 103.18 132.52 102.28 132.37 101.32 C 132.23 100.36 131.33 99.69 130.37 99.84 L 129.48 99.97 C 128.52 100.12 127.85 101.02 128.00 101.98 C 128.14 102.94 129.04 103.60 130.00 103.45 Z M 130.80 103.35 L 131.72 103.26 C 132.70 103.17 133.42 102.30 133.32 101.33 C 133.23 100.35 132.37 99.63 131.39 99.73 L 130.46 99.81 C 129.49 99.91 128.77 100.77 128.86 101.75 C 128.96 102.72 129.82 103.44 130.80 103.35 Z M 131.67 103.27 L 132.72 103.21 C 133.70 103.14 134.45 102.29 134.38 101.31 C 134.32 100.32 133.47 99.58 132.48 99.64 L 131.44 99.71 C 130.46 99.77 129.71 100.62 129.78 101.61 C 129.84 102.59 130.69 103.34 131.67 103.27 Z M 132.71 103.22 L 133.78 103.15 C 134.77 103.09 135.52 102.24 135.46 101.25 C 135.41 100.26 134.55 99.51 133.56 99.57 L 132.49 99.63 C 131.50 99.69 130.75 100.54 130.81 101.53 C 130.86 102.52 131.72 103.28 132.71 103.22 Z M 133.79 103.16 L 134.70 103.10 C 135.70 103.03 136.45 102.18 136.39 101.18 C 136.32 100.19 135.47 99.44 134.47 99.50 L 133.55 99.56 C 132.56 99.63 131.81 100.48 131.87 101.48 C 131.94 102.47 132.79 103.22 133.79 103.16 Z M 134.71 103.10 L 135.70 103.03 C 136.69 102.96 137.44 102.10 137.37 101.10 C 137.30 100.11 136.44 99.36 135.45 99.43 L 134.46 99.50 C 133.47 99.57 132.72 100.43 132.79 101.43 C 132.86 102.42 133.72 103.17 134.71 103.10 Z M 135.71 103.03 L 136.74 102.95 C 137.74 102.88 138.48 102.01 138.41 101.01 C 138.33 100.02 137.46 99.27 136.47 99.35 L 135.44 99.43 C 134.44 99.51 133.70 100.37 133.77 101.37 C 133.85 102.36 134.72 103.11 135.71 103.03 Z M 136.76 102.95 L 137.81 102.87 C 138.80 102.78 139.54 101.91 139.46 100.91 C 139.38 99.92 138.50 99.18 137.50 99.26 L 136.45 99.35 C 135.46 99.43 134.72 100.31 134.80 101.30 C 134.89 102.30 135.76 103.04 136.76 102.95 Z M 137.83 102.87 L 138.89 102.77 C 139.88 102.67 140.61 101.79 140.52 100.79 C 140.43 99.80 139.54 99.07 138.55 99.16 L 137.49 99.26 C 136.49 99.35 135.76 100.24 135.85 101.23 C 135.95 102.23 136.83 102.96 137.83 102.87 Z M 138.91 102.76 L 139.98 102.65 C 140.98 102.55 141.70 101.66 141.60 100.66 C 141.49 99.67 140.60 98.95 139.61 99.05 L 138.53 99.16 C 137.53 99.27 136.81 100.16 136.92 101.15 C 137.02 102.15 137.91 102.87 138.91 102.76 Z M 140.00 102.65 L 141.04 102.53 C 142.04 102.41 142.75 101.52 142.64 100.52 C 142.52 99.53 141.62 98.82 140.63 98.93 L 139.59 99.05 C 138.60 99.17 137.88 100.06 138.00 101.06 C 138.11 102.05 139.01 102.76 140.00 102.65 Z M 141.06 102.52 L 142.06 102.40 C 143.05 102.28 143.75 101.37 143.63 100.38 C 143.50 99.39 142.60 98.69 141.61 98.81 L 140.61 98.94 C 139.62 99.06 138.92 99.96 139.04 100.95 C 139.17 101.94 140.07 102.65 141.06 102.52 Z M 142.07 102.40 L 143.01 102.27 C 144.00 102.14 144.69 101.23 144.56 100.24 C 144.43 99.25 143.52 98.56 142.53 98.69 L 141.60 98.82 C 140.61 98.95 139.91 99.85 140.04 100.84 C 140.17 101.83 141.08 102.53 142.07 102.40 Z M 143.02 102.27 L 143.90 102.15 C 144.89 102.01 145.58 101.09 145.44 100.11 C 145.30 99.12 144.39 98.43 143.40 98.57 L 142.52 98.69 C 141.53 98.83 140.84 99.75 140.98 100.73 C 141.12 101.72 142.03 102.41 143.02 102.27 Z M 143.92 102.14 L 144.80 102.01 C 145.78 101.86 146.46 100.94 146.32 99.96 C 146.17 98.98 145.25 98.30 144.27 98.45 L 143.39 98.58 C 142.40 98.72 141.72 99.64 141.87 100.62 C 142.02 101.61 142.93 102.29 143.92 102.14 Z M 144.82 102.00 L 145.70 101.86 C 146.68 101.70 147.35 100.78 147.19 99.80 C 147.03 98.83 146.12 98.16 145.14 98.31 L 144.25 98.45 C 143.27 98.61 142.61 99.53 142.76 100.51 C 142.92 101.49 143.84 102.15 144.82 102.00 Z M 145.72 101.85 L 146.68 101.69 C 147.66 101.52 148.31 100.60 148.15 99.63 C 147.98 98.65 147.06 98.00 146.09 98.16 L 145.12 98.32 C 144.15 98.49 143.49 99.41 143.66 100.38 C 143.82 101.36 144.74 102.01 145.72 101.85 Z M 146.69 101.68 L 147.82 101.48 C 148.79 101.31 149.44 100.39 149.27 99.42 C 149.10 98.45 148.18 97.80 147.21 97.97 L 146.08 98.17 C 145.11 98.34 144.46 99.26 144.63 100.23 C 144.80 101.20 145.72 101.85 146.69 101.68 Z M 147.83 101.47 L 148.81 101.30 C 149.77 101.13 150.42 100.21 150.25 99.24 C 150.07 98.27 149.15 97.63 148.19 97.80 L 147.21 97.98 C 146.24 98.15 145.60 99.07 145.77 100.04 C 145.94 101.00 146.86 101.65 147.83 101.47 Z M 148.81 101.30 L 149.72 101.13 C 150.69 100.96 151.33 100.04 151.15 99.07 C 150.98 98.11 150.06 97.47 149.10 97.64 L 148.18 97.81 C 147.22 97.98 146.58 98.90 146.75 99.86 C 146.93 100.83 147.85 101.47 148.81 101.30 Z M 149.72 101.13 L 150.70 100.95 C 151.66 100.78 152.30 99.86 152.13 98.89 C 151.95 97.93 151.03 97.29 150.07 97.47 L 149.09 97.65 C 148.13 97.82 147.49 98.74 147.67 99.70 C 147.84 100.66 148.76 101.30 149.72 101.13 Z M 150.70 100.95 L 151.72 100.76 C 152.68 100.59 153.32 99.66 153.14 98.70 C 152.96 97.74 152.04 97.11 151.08 97.29 L 150.07 97.47 C 149.11 97.65 148.47 98.57 148.65 99.53 C 148.82 100.49 149.74 101.12 150.70 100.95 Z M 151.72 100.76 L 152.76 100.56 C 153.72 100.39 154.35 99.47 154.18 98.51 C 154.00 97.55 153.08 96.92 152.12 97.10 L 151.08 97.29 C 150.12 97.47 149.49 98.39 149.67 99.35 C 149.85 100.30 150.77 100.94 151.72 100.76 Z M 152.77 100.56 L 153.81 100.37 C 154.76 100.19 155.39 99.27 155.21 98.31 C 155.03 97.35 154.11 96.72 153.16 96.90 L 152.12 97.10 C 151.16 97.28 150.53 98.20 150.71 99.16 C 150.89 100.11 151.81 100.74 152.77 100.56 Z M 153.81 100.36 L 154.83 100.17 C 155.78 99.98 156.41 99.06 156.22 98.11 C 156.04 97.16 155.12 96.53 154.17 96.71 L 153.15 96.91 C 152.20 97.09 151.57 98.01 151.75 98.97 C 151.94 99.92 152.86 100.54 153.81 100.36 Z M 154.83 100.16 L 155.87 99.96 C 156.82 99.77 157.44 98.85 157.25 97.90 C 157.06 96.95 156.14 96.33 155.19 96.52 L 154.16 96.72 C 153.21 96.90 152.59 97.83 152.78 98.78 C 152.96 99.73 153.88 100.35 154.83 100.16 Z M 155.87 99.95 L 156.98 99.73 C 157.93 99.54 158.54 98.62 158.35 97.67 C 158.16 96.73 157.24 96.11 156.29 96.31 L 155.18 96.53 C 154.24 96.72 153.63 97.64 153.82 98.58 C 154.01 99.53 154.93 100.14 155.87 99.95 Z M 156.99 99.71 L 158.02 99.50 C 158.96 99.30 159.56 98.38 159.37 97.45 C 159.17 96.51 158.25 95.91 157.32 96.10 L 156.28 96.32 C 155.35 96.51 154.75 97.43 154.94 98.37 C 155.14 99.31 156.05 99.91 156.99 99.71 Z M 158.03 99.48 L 159.00 99.27 C 159.93 99.07 160.52 98.16 160.32 97.23 C 160.12 96.30 159.21 95.71 158.28 95.91 L 157.31 96.12 C 156.38 96.32 155.79 97.24 155.99 98.16 C 156.19 99.09 157.10 99.68 158.03 99.48 Z M 159.01 99.26 L 159.94 99.05 C 160.86 98.84 161.44 97.93 161.23 97.01 C 161.02 96.09 160.11 95.51 159.19 95.72 L 158.27 95.92 C 157.35 96.13 156.77 97.04 156.97 97.96 C 157.18 98.89 158.09 99.46 159.01 99.26 Z M 159.95 99.04 L 160.83 98.83 C 161.74 98.62 162.31 97.71 162.10 96.79 C 161.89 95.88 160.98 95.31 160.06 95.53 L 159.18 95.73 C 158.27 95.95 157.70 96.86 157.91 97.77 C 158.12 98.68 159.04 99.25 159.95 99.04 Z M 160.84 98.82 L 161.75 98.60 C 162.66 98.38 163.21 97.47 162.99 96.56 C 162.77 95.66 161.86 95.10 160.96 95.32 L 160.05 95.54 C 159.15 95.76 158.59 96.67 158.81 97.57 C 159.03 98.48 159.94 99.03 160.84 98.82 Z M 161.77 98.58 L 162.80 98.32 C 163.69 98.10 164.24 97.18 164.01 96.29 C 163.78 95.39 162.87 94.85 161.98 95.07 L 160.95 95.34 C 160.05 95.56 159.51 96.47 159.73 97.37 C 159.96 98.27 160.87 98.81 161.77 98.58 Z M 162.82 98.31 L 163.82 98.04 C 164.71 97.80 165.23 96.89 164.99 96.00 C 164.75 95.11 163.84 94.58 162.95 94.82 L 161.95 95.09 C 161.06 95.33 160.54 96.24 160.78 97.13 C 161.02 98.02 161.93 98.55 162.82 98.31 Z M 163.85 98.02 L 164.81 97.74 C 165.69 97.49 166.19 96.57 165.93 95.68 C 165.68 94.80 164.75 94.30 163.87 94.56 L 162.92 94.84 C 162.04 95.09 161.53 96.01 161.79 96.90 C 162.05 97.78 162.97 98.28 163.85 98.02 Z M 164.85 97.72 L 165.75 97.43 C 166.62 97.15 167.10 96.22 166.82 95.35 C 166.54 94.48 165.61 94.00 164.74 94.29 L 163.83 94.58 C 162.96 94.86 162.49 95.79 162.77 96.66 C 163.05 97.53 163.98 98.00 164.85 97.72 Z M 165.81 97.41 L 166.72 97.07 C 167.57 96.76 168.01 95.82 167.70 94.96 C 167.39 94.11 166.45 93.67 165.59 93.98 L 164.68 94.31 C 163.83 94.62 163.39 95.57 163.70 96.42 C 164.01 97.28 164.95 97.72 165.81 97.41 Z M 166.79 97.04 L 167.76 96.64 C 168.59 96.29 168.99 95.33 168.64 94.49 C 168.29 93.65 167.32 93.26 166.49 93.61 L 165.52 94.01 C 164.68 94.36 164.29 95.32 164.64 96.16 C 164.99 97.00 165.95 97.39 166.79 97.04 Z M 167.82 96.61 L 168.72 96.19 C 169.54 95.80 169.89 94.82 169.51 94.00 C 169.12 93.18 168.15 92.83 167.32 93.21 L 166.43 93.64 C 165.60 94.02 165.25 95.00 165.64 95.82 C 166.02 96.64 167.00 96.99 167.82 96.61 Z M 168.76 96.16 L 169.62 95.73 C 170.42 95.32 170.75 94.34 170.34 93.53 C 169.93 92.72 168.95 92.40 168.14 92.80 L 167.28 93.24 C 166.47 93.64 166.15 94.63 166.56 95.44 C 166.97 96.25 167.95 96.57 168.76 96.16 Z M 169.63 95.72 L 170.16 95.45 C 170.97 95.03 171.28 94.04 170.86 93.24 C 170.45 92.44 169.46 92.12 168.66 92.54 L 168.12 92.81 C 167.32 93.23 167.01 94.22 167.42 95.02 C 167.84 95.83 168.83 96.14 169.63 95.72 Z"
      fill="black"
      fill-rule="nonzero" /><path d="M 143.17 95.84 L 143.02 96.81 C 142.86 97.75 143.50 98.63 144.44 98.79 C 145.38 98.94 146.26 98.31 146.42 97.37 L 146.58 96.39 C 146.73 95.45 146.09 94.57 145.15 94.41 C 144.21 94.26 143.33 94.90 143.17 95.84 Z M 143.01 96.84 L 142.87 97.82 C 142.73 98.76 143.38 99.64 144.32 99.78 C 145.26 99.91 146.14 99.26 146.28 98.32 L 146.42 97.34 C 146.56 96.40 145.91 95.52 144.97 95.38 C 144.02 95.24 143.15 95.90 143.01 96.84 Z M 142.86 97.88 L 142.75 98.88 C 142.64 99.83 143.32 100.68 144.26 100.79 C 145.21 100.90 146.06 100.22 146.17 99.27 L 146.28 98.26 C 146.39 97.32 145.71 96.47 144.77 96.36 C 143.82 96.25 142.97 96.93 142.86 97.88 Z M 142.74 98.96 L 142.67 99.93 C 142.61 100.88 143.32 101.70 144.27 101.76 C 145.22 101.83 146.04 101.12 146.11 100.17 L 146.18 99.20 C 146.24 98.25 145.53 97.43 144.58 97.36 C 143.63 97.29 142.81 98.01 142.74 98.96 Z M 142.67 99.99 L 142.64 100.97 C 142.61 101.92 143.35 102.71 144.30 102.74 C 145.25 102.78 146.04 102.03 146.08 101.08 L 146.11 100.10 C 146.14 99.16 145.40 98.36 144.45 98.33 C 143.50 98.30 142.70 99.04 142.67 99.99 Z M 142.64 101.01 L 142.63 102.02 C 142.62 102.97 143.38 103.74 144.33 103.76 C 145.28 103.77 146.05 103.01 146.06 102.06 L 146.08 101.04 C 146.09 100.10 145.33 99.32 144.38 99.31 C 143.43 99.30 142.65 100.06 142.64 101.01 Z M 142.63 102.04 L 142.63 103.08 C 142.63 104.03 143.40 104.80 144.34 104.80 C 145.29 104.80 146.06 104.03 146.06 103.08 L 146.06 102.04 C 146.06 101.09 145.30 100.32 144.35 100.32 C 143.40 100.32 142.63 101.09 142.63 102.04 Z M 142.63 103.08 L 142.63 104.09 C 142.63 105.04 143.40 105.81 144.35 105.80 C 145.29 105.80 146.06 105.04 146.06 104.09 L 146.06 103.08 C 146.06 102.13 145.29 101.37 144.34 101.37 C 143.40 101.37 142.63 102.14 142.63 103.08 Z M 142.64 104.10 L 142.64 105.12 C 142.65 106.06 143.42 106.83 144.36 106.82 C 145.31 106.81 146.07 106.04 146.06 105.10 L 146.06 104.08 C 146.05 103.14 145.28 102.37 144.34 102.38 C 143.39 102.39 142.63 103.16 142.64 104.10 Z M 142.64 105.14 L 142.66 106.14 C 142.67 107.08 143.45 107.83 144.40 107.82 C 145.34 107.80 146.09 107.03 146.08 106.08 L 146.06 105.08 C 146.05 104.14 145.27 103.38 144.33 103.40 C 143.38 103.41 142.63 104.19 142.64 105.14 Z M 142.66 106.16 L 142.69 107.15 C 142.72 108.09 143.51 108.83 144.45 108.80 C 145.40 108.77 146.13 107.98 146.10 107.04 L 146.07 106.05 C 146.04 105.11 145.26 104.37 144.31 104.40 C 143.37 104.43 142.63 105.22 142.66 106.16 Z M 142.71 107.19 L 142.77 108.20 C 142.82 109.13 143.62 109.85 144.56 109.79 C 145.49 109.73 146.21 108.93 146.15 108.00 L 146.09 106.99 C 146.04 106.06 145.23 105.34 144.30 105.40 C 143.36 105.45 142.65 106.26 142.71 107.19 Z M 142.78 108.27 L 142.89 109.24 C 142.98 110.17 143.81 110.84 144.73 110.75 C 145.66 110.65 146.33 109.82 146.23 108.90 L 146.13 107.92 C 146.04 107.00 145.21 106.33 144.29 106.42 C 143.36 106.52 142.69 107.34 142.78 108.27 Z M 142.91 109.34 L 143.07 110.32 C 143.22 111.23 144.07 111.85 144.98 111.70 C 145.90 111.56 146.51 110.70 146.37 109.79 L 146.21 108.81 C 146.06 107.89 145.21 107.28 144.29 107.42 C 143.38 107.57 142.76 108.43 142.91 109.34 Z M 143.10 110.42 L 143.32 111.39 C 143.51 112.28 144.40 112.85 145.30 112.65 C 146.19 112.45 146.76 111.56 146.56 110.67 L 146.34 109.69 C 146.14 108.80 145.25 108.24 144.36 108.43 C 143.46 108.63 142.90 109.52 143.10 110.42 Z M 143.34 111.47 L 143.61 112.45 C 143.86 113.33 144.77 113.84 145.65 113.60 C 146.53 113.36 147.04 112.45 146.80 111.57 L 146.53 110.59 C 146.28 109.71 145.37 109.19 144.49 109.44 C 143.61 109.68 143.10 110.59 143.34 111.47 Z M 143.64 112.52 L 143.96 113.48 C 144.24 114.35 145.17 114.82 146.04 114.54 C 146.90 114.25 147.37 113.32 147.09 112.46 L 146.77 111.49 C 146.49 110.63 145.56 110.16 144.69 110.44 C 143.83 110.73 143.36 111.66 143.64 112.52 Z M 143.99 113.56 L 144.34 114.48 C 144.67 115.32 145.61 115.75 146.46 115.42 C 147.31 115.10 147.73 114.15 147.41 113.30 L 147.06 112.38 C 146.73 111.54 145.78 111.11 144.94 111.44 C 144.09 111.76 143.67 112.71 143.99 113.56 Z M 144.38 114.56 L 144.81 115.52 C 145.18 116.35 146.15 116.72 146.97 116.35 C 147.80 115.98 148.17 115.01 147.80 114.18 L 147.37 113.22 C 147.00 112.40 146.03 112.03 145.21 112.39 C 144.38 112.76 144.01 113.73 144.38 114.56 Z M 144.84 115.59 L 145.29 116.47 C 145.70 117.28 146.68 117.60 147.49 117.20 C 148.30 116.79 148.62 115.80 148.21 114.99 L 147.77 114.11 C 147.36 113.31 146.37 112.98 145.56 113.39 C 144.76 113.80 144.43 114.78 144.84 115.59 Z M 145.31 116.51 L 145.77 117.36 C 146.20 118.15 147.19 118.45 147.99 118.02 C 148.78 117.58 149.08 116.59 148.65 115.80 L 148.19 114.95 C 147.76 114.16 146.77 113.86 145.97 114.29 C 145.18 114.73 144.88 115.72 145.31 116.51 Z M 145.77 117.36 L 145.83 117.47 C 146.26 118.26 147.26 118.55 148.05 118.11 C 148.84 117.68 149.13 116.68 148.70 115.89 L 148.64 115.79 C 148.21 114.99 147.21 114.71 146.42 115.14 C 145.63 115.58 145.34 116.57 145.77 117.36 Z"
      fill="black"
      fill-rule="nonzero" /><path d="M 156.10 93.61 L 156.78 94.31 C 157.45 94.99 158.54 95.01 159.23 94.34 C 159.92 93.68 159.93 92.58 159.27 91.90 L 158.59 91.19 C 157.92 90.51 156.82 90.49 156.14 91.16 C 155.45 91.82 155.43 92.92 156.10 93.61 Z M 156.66 94.21 L 157.28 94.98 C 157.89 95.73 159.00 95.85 159.75 95.23 C 160.51 94.62 160.62 93.51 160.01 92.76 L 159.39 91.99 C 158.78 91.24 157.67 91.12 156.91 91.74 C 156.16 92.35 156.04 93.46 156.66 94.21 Z M 157.09 94.74 L 157.59 95.64 C 158.07 96.50 159.16 96.80 160.02 96.32 C 160.88 95.83 161.19 94.74 160.70 93.88 L 160.20 92.99 C 159.72 92.13 158.63 91.83 157.77 92.31 C 156.91 92.79 156.60 93.88 157.09 94.74 Z M 157.45 95.33 L 157.74 96.19 C 158.05 97.13 159.07 97.63 160.00 97.32 C 160.94 97.00 161.45 95.99 161.13 95.05 L 160.84 94.19 C 160.53 93.25 159.51 92.75 158.58 93.06 C 157.64 93.38 157.13 94.39 157.45 95.33 Z M 157.70 95.97 L 157.89 96.92 C 158.09 97.88 159.02 98.50 159.98 98.31 C 160.94 98.11 161.56 97.17 161.36 96.22 L 161.17 95.27 C 160.98 94.31 160.04 93.69 159.08 93.88 C 158.12 94.08 157.50 95.02 157.70 95.97 Z M 157.89 96.80 L 158.03 97.83 C 158.15 98.79 159.03 99.46 159.99 99.34 C 160.95 99.21 161.62 98.33 161.50 97.37 L 161.36 96.34 C 161.24 95.38 160.36 94.71 159.40 94.83 C 158.44 94.96 157.77 95.84 157.89 96.80 Z M 158.04 97.77 L 158.15 98.84 C 158.24 99.79 159.09 100.49 160.04 100.39 C 160.99 100.30 161.68 99.45 161.59 98.50 L 161.48 97.43 C 161.39 96.48 160.54 95.79 159.59 95.88 C 158.64 95.97 157.95 96.82 158.04 97.77 Z M 158.17 98.83 L 158.25 99.77 C 158.34 100.71 159.17 101.41 160.11 101.32 C 161.05 101.24 161.74 100.40 161.66 99.46 L 161.57 98.52 C 161.49 97.58 160.65 96.89 159.71 96.97 C 158.77 97.06 158.08 97.89 158.17 98.83 Z M 158.27 99.76 L 158.35 100.73 C 158.43 101.67 159.25 102.36 160.18 102.28 C 161.11 102.20 161.80 101.38 161.72 100.45 L 161.64 99.48 C 161.56 98.55 160.75 97.85 159.81 97.93 C 158.88 98.01 158.19 98.83 158.27 99.76 Z M 158.37 100.71 L 158.44 101.72 C 158.51 102.64 159.31 103.34 160.23 103.27 C 161.15 103.20 161.85 102.40 161.78 101.48 L 161.71 100.47 C 161.64 99.55 160.84 98.85 159.92 98.92 C 158.99 98.99 158.30 99.79 158.37 100.71 Z M 158.45 101.69 L 158.51 102.73 C 158.57 103.65 159.35 104.35 160.27 104.29 C 161.18 104.24 161.88 103.45 161.83 102.54 L 161.77 101.50 C 161.71 100.59 160.93 99.89 160.01 99.94 C 159.10 99.99 158.40 100.78 158.45 101.69 Z M 158.53 102.70 L 158.57 103.71 C 158.60 104.62 159.37 105.33 160.28 105.29 C 161.19 105.25 161.89 104.49 161.86 103.58 L 161.82 102.57 C 161.78 101.66 161.01 100.95 160.10 100.99 C 159.19 101.03 158.49 101.79 158.53 102.70 Z M 158.57 103.69 L 158.60 104.66 C 158.62 105.57 159.37 106.28 160.28 106.26 C 161.18 106.24 161.90 105.48 161.88 104.58 L 161.85 103.60 C 161.83 102.70 161.08 101.98 160.17 102.00 C 159.26 102.03 158.55 102.78 158.57 103.69 Z M 158.60 104.64 L 158.61 105.64 C 158.62 106.55 159.37 107.27 160.27 107.26 C 161.18 107.24 161.90 106.50 161.89 105.59 L 161.88 104.60 C 161.86 103.69 161.12 102.97 160.21 102.98 C 159.31 102.99 158.58 103.74 158.60 104.64 Z M 158.61 105.63 L 158.62 106.64 C 158.62 107.54 159.36 108.27 160.27 108.27 C 161.17 108.26 161.90 107.52 161.90 106.62 L 161.89 105.61 C 161.88 104.70 161.15 103.97 160.24 103.98 C 159.33 103.98 158.61 104.72 158.61 105.63 Z M 158.62 106.63 L 158.62 107.65 C 158.62 108.56 159.36 109.29 160.26 109.29 C 161.17 109.29 161.90 108.55 161.90 107.65 L 161.90 106.63 C 161.89 105.72 161.16 104.99 160.25 104.99 C 159.35 104.99 158.62 105.73 158.62 106.63 Z M 158.62 107.65 L 158.62 108.32 C 158.62 109.22 159.36 109.96 160.26 109.96 C 161.16 109.96 161.90 109.22 161.90 108.32 L 161.90 107.65 C 161.90 106.75 161.16 106.01 160.26 106.01 C 159.35 106.01 158.62 106.75 158.62 107.65 Z"
      fill="black"
      fill-rule="nonzero" /><path d="M 150.51 121.37 L 151.56 121.50 C 152.47 121.61 153.29 120.96 153.40 120.06 C 153.51 119.16 152.87 118.33 151.97 118.22 L 150.91 118.09 C 150.01 117.98 149.18 118.62 149.07 119.53 C 148.96 120.43 149.61 121.26 150.51 121.37 Z M 151.55 121.52 L 152.59 121.66 C 153.51 121.77 154.35 121.13 154.47 120.21 C 154.59 119.29 153.94 118.45 153.02 118.33 L 151.98 118.20 C 151.06 118.08 150.22 118.73 150.10 119.64 C 149.98 120.56 150.63 121.40 151.55 121.52 Z M 152.56 121.68 L 153.57 121.82 C 154.50 121.96 155.36 121.31 155.50 120.38 C 155.63 119.45 154.98 118.59 154.05 118.45 L 153.05 118.31 C 152.11 118.17 151.25 118.82 151.12 119.75 C 150.99 120.68 151.63 121.55 152.56 121.68 Z M 153.53 121.84 L 154.49 122.00 C 155.43 122.16 156.32 121.52 156.48 120.58 C 156.63 119.64 156.00 118.75 155.05 118.59 L 154.09 118.43 C 153.15 118.28 152.26 118.91 152.11 119.86 C 151.95 120.80 152.59 121.69 153.53 121.84 Z M 154.43 122.02 L 155.33 122.20 C 156.28 122.38 157.20 121.77 157.39 120.82 C 157.58 119.87 156.96 118.94 156.01 118.75 L 155.11 118.58 C 154.16 118.39 153.24 119.00 153.05 119.95 C 152.86 120.91 153.48 121.83 154.43 122.02 Z M 155.24 122.18 L 156.29 122.44 C 157.22 122.68 158.18 122.11 158.42 121.17 C 158.65 120.23 158.08 119.27 157.14 119.04 L 156.10 118.77 C 155.16 118.54 154.21 119.11 153.97 120.05 C 153.73 120.99 154.30 121.94 155.24 122.18 Z M 156.20 122.38 L 157.17 122.69 C 158.08 122.97 159.05 122.47 159.33 121.56 C 159.62 120.65 159.11 119.68 158.20 119.40 L 157.23 119.09 C 156.32 118.81 155.35 119.31 155.07 120.22 C 154.78 121.13 155.29 122.10 156.20 122.38 Z M 157.11 122.63 L 158.01 122.96 C 158.88 123.28 159.85 122.83 160.17 121.95 C 160.49 121.08 160.04 120.11 159.17 119.79 L 158.27 119.46 C 157.39 119.14 156.42 119.59 156.10 120.46 C 155.78 121.34 156.23 122.31 157.11 122.63 Z M 157.98 122.91 L 158.84 123.25 C 159.69 123.59 160.65 123.17 160.99 122.32 C 161.33 121.47 160.91 120.51 160.06 120.17 L 159.20 119.83 C 158.35 119.50 157.38 119.91 157.05 120.77 C 156.71 121.62 157.13 122.58 157.98 122.91 Z"
      fill="black"
      fill-rule="nonzero" /><path d="M 144.88 141.10 L 145.74 140.67 C 146.62 140.23 146.98 139.16 146.54 138.27 C 146.10 137.38 145.02 137.02 144.14 137.46 L 143.28 137.89 C 142.40 138.33 142.03 139.41 142.48 140.29 C 142.92 141.18 143.99 141.54 144.88 141.10 Z M 145.71 140.68 L 146.60 140.25 C 147.49 139.82 147.86 138.75 147.43 137.87 C 147.00 136.98 145.93 136.60 145.04 137.03 L 144.16 137.46 C 143.27 137.89 142.90 138.96 143.33 139.85 C 143.76 140.73 144.83 141.11 145.71 140.68 Z M 146.56 140.26 L 147.50 139.84 C 148.39 139.43 148.79 138.37 148.38 137.48 C 147.97 136.58 146.91 136.19 146.02 136.60 L 145.08 137.02 C 144.19 137.43 143.79 138.49 144.20 139.38 C 144.61 140.28 145.66 140.67 146.56 140.26 Z M 147.45 139.85 L 148.39 139.46 C 149.29 139.07 149.72 138.03 149.33 137.13 C 148.95 136.23 147.91 135.80 147.01 136.18 L 146.07 136.58 C 145.16 136.96 144.74 138.00 145.12 138.91 C 145.50 139.81 146.54 140.23 147.45 139.85 Z M 148.35 139.46 L 149.29 139.09 C 150.20 138.73 150.64 137.71 150.28 136.80 C 149.93 135.89 148.90 135.44 147.99 135.80 L 147.05 136.17 C 146.14 136.53 145.69 137.56 146.05 138.47 C 146.41 139.38 147.44 139.82 148.35 139.46 Z M 149.26 139.10 L 150.22 138.74 C 151.13 138.39 151.59 137.37 151.24 136.46 C 150.90 135.55 149.88 135.09 148.97 135.44 L 148.02 135.80 C 147.11 136.14 146.65 137.16 146.99 138.07 C 147.34 138.98 148.35 139.44 149.26 139.10 Z M 150.20 138.73 L 151.13 138.39 C 152.04 138.06 152.51 137.05 152.17 136.14 C 151.84 135.23 150.83 134.76 149.92 135.10 L 148.99 135.44 C 148.08 135.78 147.61 136.78 147.95 137.69 C 148.28 138.60 149.29 139.07 150.20 138.73 Z M 151.12 138.39 L 152.03 138.06 C 152.94 137.73 153.40 136.72 153.07 135.81 C 152.74 134.91 151.74 134.44 150.83 134.77 L 149.93 135.10 C 149.02 135.43 148.55 136.44 148.88 137.34 C 149.21 138.25 150.22 138.72 151.12 138.39 Z M 152.01 138.06 L 152.90 137.74 C 153.81 137.42 154.28 136.42 153.96 135.52 C 153.64 134.61 152.65 134.14 151.74 134.46 L 150.85 134.77 C 149.94 135.09 149.47 136.09 149.79 136.99 C 150.11 137.90 151.10 138.38 152.01 138.06 Z M 152.87 137.75 L 153.80 137.44 C 154.71 137.14 155.20 136.16 154.90 135.25 C 154.60 134.34 153.62 133.84 152.71 134.14 L 151.78 134.45 C 150.87 134.75 150.37 135.73 150.67 136.64 C 150.98 137.55 151.96 138.05 152.87 137.75 Z M 153.75 137.44 L 154.80 137.13 C 155.71 136.86 156.23 135.89 155.96 134.98 C 155.68 134.06 154.72 133.55 153.80 133.82 L 152.76 134.14 C 151.84 134.41 151.33 135.37 151.60 136.29 C 151.88 137.20 152.84 137.72 153.75 137.44 Z M 154.76 137.14 L 155.68 136.88 C 156.59 136.63 157.13 135.68 156.88 134.77 C 156.63 133.85 155.68 133.31 154.76 133.56 L 153.84 133.81 C 152.93 134.07 152.39 135.02 152.64 135.93 C 152.89 136.85 153.84 137.39 154.76 137.14 Z M 155.64 136.89 L 156.63 136.64 C 157.55 136.40 158.10 135.47 157.87 134.55 C 157.63 133.63 156.70 133.07 155.78 133.31 L 154.80 133.56 C 153.88 133.79 153.32 134.73 153.55 135.65 C 153.79 136.57 154.72 137.12 155.64 136.89 Z M 156.59 136.64 L 157.60 136.41 C 158.52 136.19 159.10 135.27 158.88 134.35 C 158.67 133.43 157.75 132.85 156.83 133.07 L 155.81 133.30 C 154.89 133.52 154.32 134.44 154.53 135.36 C 154.75 136.28 155.67 136.86 156.59 136.64 Z M 157.56 136.41 L 158.56 136.20 C 159.49 136.01 160.08 135.11 159.89 134.18 C 159.70 133.26 158.79 132.66 157.87 132.86 L 156.87 133.06 C 155.94 133.26 155.35 134.16 155.54 135.09 C 155.73 136.01 156.64 136.60 157.56 136.41 Z M 158.51 136.21 L 159.53 136.03 C 160.45 135.87 161.07 134.99 160.91 134.06 C 160.75 133.13 159.87 132.51 158.94 132.67 L 157.92 132.85 C 156.99 133.01 156.37 133.90 156.53 134.82 C 156.70 135.75 157.58 136.37 158.51 136.21 Z M 159.42 136.04 L 160.62 135.91 C 161.56 135.81 162.23 134.97 162.13 134.03 C 162.03 133.10 161.19 132.43 160.25 132.53 L 159.05 132.66 C 158.11 132.76 157.44 133.60 157.54 134.54 C 157.64 135.47 158.48 136.14 159.42 136.04 Z M 160.37 135.92 L 161.35 135.96 C 162.29 135.99 163.08 135.26 163.11 134.33 C 163.15 133.39 162.42 132.60 161.49 132.56 L 160.50 132.52 C 159.57 132.49 158.78 133.21 158.74 134.15 C 158.70 135.09 159.43 135.88 160.37 135.92 Z M 160.84 135.85 L 161.56 136.12 C 162.44 136.44 163.41 135.99 163.73 135.11 C 164.06 134.23 163.60 133.25 162.73 132.93 L 162.00 132.67 C 161.12 132.35 160.15 132.80 159.83 133.68 C 159.51 134.56 159.96 135.53 160.84 135.85 Z M 160.79 135.54 L 161.27 136.18 C 161.83 136.92 162.89 137.07 163.64 136.51 C 164.38 135.95 164.53 134.89 163.97 134.14 L 163.50 133.51 C 162.93 132.76 161.87 132.61 161.12 133.17 C 160.38 133.73 160.23 134.80 160.79 135.54 Z M 160.94 135.36 L 161.05 136.31 C 161.16 137.24 162.00 137.90 162.93 137.79 C 163.86 137.68 164.52 136.84 164.41 135.91 L 164.30 134.96 C 164.19 134.03 163.35 133.37 162.42 133.48 C 161.49 133.59 160.83 134.43 160.94 135.36 Z M 161.07 135.79 L 160.85 136.93 C 160.67 137.85 161.27 138.74 162.19 138.92 C 163.10 139.10 163.99 138.50 164.17 137.58 L 164.40 136.43 C 164.57 135.51 163.97 134.62 163.06 134.45 C 162.14 134.27 161.25 134.87 161.07 135.79 Z M 160.92 136.66 L 160.59 137.53 C 160.26 138.41 160.70 139.39 161.57 139.72 C 162.45 140.05 163.43 139.61 163.76 138.74 L 164.10 137.86 C 164.43 136.98 163.99 136.00 163.11 135.67 C 162.23 135.34 161.25 135.78 160.92 136.66 Z M 160.65 137.39 L 160.21 138.29 C 159.80 139.14 160.15 140.16 160.99 140.57 C 161.84 140.98 162.86 140.63 163.27 139.78 L 163.71 138.88 C 164.12 138.03 163.76 137.02 162.92 136.61 C 162.08 136.20 161.06 136.55 160.65 137.39 Z M 160.25 138.21 L 159.75 139.11 C 159.29 139.93 159.58 140.97 160.40 141.43 C 161.22 141.89 162.26 141.59 162.72 140.77 L 163.23 139.87 C 163.68 139.05 163.39 138.01 162.57 137.55 C 161.75 137.09 160.71 137.38 160.25 138.21 Z M 159.77 139.06 L 159.24 139.94 C 158.76 140.74 159.02 141.79 159.82 142.28 C 160.63 142.77 161.68 142.50 162.17 141.70 L 162.70 140.82 C 163.18 140.01 162.92 138.96 162.11 138.48 C 161.31 137.99 160.26 138.25 159.77 139.06 Z M 159.25 139.91 L 158.71 140.79 C 158.21 141.59 158.46 142.64 159.26 143.14 C 160.06 143.64 161.11 143.39 161.61 142.59 L 162.16 141.72 C 162.66 140.92 162.41 139.86 161.61 139.36 C 160.81 138.87 159.75 139.11 159.25 139.91 Z M 158.72 140.77 L 158.18 141.61 C 157.68 142.41 157.92 143.47 158.71 143.97 C 159.51 144.48 160.57 144.24 161.07 143.45 L 161.61 142.61 C 162.11 141.81 161.88 140.75 161.08 140.25 C 160.28 139.74 159.22 139.98 158.72 140.77 Z M 158.19 141.61 L 157.66 142.44 C 157.15 143.24 157.38 144.29 158.18 144.80 C 158.98 145.31 160.03 145.08 160.54 144.28 L 161.07 143.45 C 161.58 142.65 161.35 141.60 160.55 141.09 C 159.75 140.58 158.69 140.81 158.19 141.61 Z M 157.65 142.44 L 157.12 143.28 C 156.62 144.07 156.85 145.13 157.65 145.64 C 158.45 146.15 159.51 145.91 160.01 145.11 L 160.54 144.28 C 161.05 143.48 160.82 142.42 160.02 141.91 C 159.22 141.41 158.16 141.64 157.65 142.44 Z M 157.12 143.28 L 156.59 144.12 C 156.09 144.92 156.33 145.98 157.14 146.48 C 157.94 146.98 158.99 146.74 159.50 145.94 L 160.02 145.10 C 160.52 144.30 160.28 143.25 159.48 142.74 C 158.68 142.24 157.62 142.48 157.12 143.28 Z M 156.59 144.13 L 156.06 144.98 C 155.56 145.79 155.81 146.84 156.61 147.34 C 157.42 147.84 158.47 147.59 158.97 146.79 L 159.50 145.93 C 160.00 145.13 159.75 144.07 158.95 143.57 C 158.14 143.08 157.09 143.32 156.59 144.13 Z M 156.06 144.99 L 155.53 145.85 C 155.04 146.65 155.29 147.71 156.09 148.20 C 156.90 148.70 157.95 148.44 158.45 147.64 L 158.98 146.78 C 159.47 145.97 159.22 144.92 158.41 144.42 C 157.61 143.93 156.55 144.18 156.06 144.99 Z M 155.53 145.85 L 155.01 146.70 C 154.52 147.51 154.78 148.56 155.58 149.05 C 156.39 149.54 157.45 149.29 157.94 148.48 L 158.45 147.63 C 158.94 146.83 158.69 145.77 157.88 145.28 C 157.07 144.79 156.02 145.04 155.53 145.85 Z M 155.01 146.70 L 154.53 147.49 C 154.04 148.30 154.30 149.36 155.11 149.85 C 155.91 150.34 156.97 150.08 157.46 149.27 L 157.94 148.48 C 158.43 147.67 158.17 146.61 157.36 146.12 C 156.55 145.63 155.50 145.89 155.01 146.70 Z M 154.53 147.49 L 154.03 148.31 C 153.54 149.12 153.80 150.17 154.61 150.66 C 155.42 151.15 156.47 150.89 156.96 150.09 L 157.46 149.27 C 157.95 148.46 157.69 147.41 156.88 146.92 C 156.07 146.43 155.02 146.68 154.53 147.49 Z M 154.04 148.30 L 153.51 149.17 C 153.01 149.97 153.27 151.03 154.07 151.52 C 154.88 152.02 155.93 151.76 156.43 150.96 L 156.96 150.09 C 157.45 149.29 157.20 148.23 156.39 147.74 C 155.59 147.24 154.53 147.50 154.04 148.30 Z M 153.51 149.16 L 152.93 150.10 C 152.43 150.90 152.68 151.96 153.48 152.46 C 154.29 152.95 155.34 152.71 155.84 151.90 L 156.42 150.96 C 156.92 150.16 156.67 149.10 155.87 148.61 C 155.07 148.11 154.01 148.36 153.51 149.16 Z M 152.94 150.09 L 152.44 150.88 C 151.94 151.68 152.18 152.74 152.98 153.24 C 153.78 153.74 154.84 153.50 155.34 152.70 L 155.84 151.91 C 156.34 151.11 156.10 150.05 155.30 149.55 C 154.50 149.05 153.44 149.29 152.94 150.09 Z M 152.44 150.87 L 151.93 151.69 C 151.42 152.49 151.66 153.55 152.46 154.05 C 153.26 154.56 154.32 154.32 154.82 153.52 L 155.34 152.71 C 155.84 151.91 155.61 150.85 154.81 150.34 C 154.01 149.84 152.95 150.08 152.44 150.87 Z M 151.93 151.69 L 151.39 152.54 C 150.88 153.33 151.12 154.39 151.92 154.90 C 152.71 155.41 153.77 155.17 154.28 154.37 L 154.82 153.52 C 155.33 152.73 155.09 151.67 154.29 151.16 C 153.50 150.65 152.44 150.89 151.93 151.69 Z M 151.39 152.53 L 150.84 153.40 C 150.33 154.20 150.56 155.26 151.36 155.77 C 152.16 156.28 153.21 156.04 153.72 155.25 L 154.28 154.38 C 154.79 153.58 154.55 152.52 153.76 152.01 C 152.96 151.50 151.90 151.74 151.39 152.53 Z M 150.84 153.40 L 150.27 154.28 C 149.76 155.08 150.00 156.14 150.79 156.65 C 151.59 157.16 152.65 156.93 153.16 156.13 L 153.72 155.25 C 154.23 154.45 154.00 153.39 153.20 152.88 C 152.41 152.37 151.35 152.61 150.84 153.40 Z M 150.27 154.28 L 149.71 155.17 C 149.20 155.97 149.43 157.03 150.23 157.54 C 151.02 158.05 152.08 157.81 152.59 157.02 L 153.16 156.13 C 153.67 155.33 153.44 154.27 152.64 153.76 C 151.84 153.25 150.78 153.49 150.27 154.28 Z M 149.70 155.17 L 149.12 156.08 C 148.61 156.87 148.85 157.94 149.64 158.45 C 150.44 158.96 151.50 158.72 152.01 157.92 L 152.59 157.02 C 153.10 156.22 152.87 155.16 152.07 154.65 C 151.28 154.14 150.21 154.37 149.70 155.17 Z M 149.12 156.07 L 148.56 156.96 C 148.05 157.76 148.28 158.82 149.08 159.33 C 149.88 159.84 150.94 159.61 151.45 158.81 L 152.02 157.93 C 152.53 157.13 152.29 156.06 151.49 155.55 C 150.70 155.04 149.63 155.28 149.12 156.07 Z M 148.55 156.96 L 148.01 157.81 C 147.50 158.61 147.73 159.67 148.53 160.18 C 149.33 160.70 150.40 160.46 150.91 159.66 L 151.45 158.81 C 151.97 158.01 151.73 156.95 150.93 156.43 C 150.13 155.92 149.07 156.16 148.55 156.96 Z M 148.01 157.80 L 147.49 158.61 C 146.98 159.42 147.21 160.48 148.01 161.00 C 148.81 161.51 149.88 161.28 150.39 160.48 L 150.91 159.66 C 151.42 158.86 151.19 157.80 150.39 157.28 C 149.59 156.77 148.52 157.00 148.01 157.80 Z M 147.49 158.61 L 147.00 159.37 C 146.48 160.18 146.72 161.24 147.52 161.76 C 148.32 162.27 149.39 162.04 149.90 161.24 L 150.39 160.48 C 150.91 159.68 150.67 158.61 149.87 158.09 C 149.07 157.58 148.00 157.81 147.49 158.61 Z M 147.00 159.37 L 146.41 160.28 C 145.89 161.08 146.12 162.15 146.92 162.67 C 147.73 163.19 148.80 162.96 149.32 162.15 L 149.90 161.24 C 150.42 160.44 150.19 159.37 149.39 158.85 C 148.59 158.33 147.51 158.56 147.00 159.37 Z M 146.41 160.27 L 145.84 161.14 C 145.32 161.94 145.55 163.02 146.35 163.54 C 147.16 164.06 148.23 163.84 148.75 163.03 L 149.32 162.16 C 149.84 161.36 149.61 160.28 148.81 159.76 C 148.01 159.24 146.93 159.47 146.41 160.27 Z M 145.84 161.12 L 145.32 161.92 C 144.78 162.73 145.01 163.81 145.81 164.34 C 146.61 164.87 147.70 164.65 148.23 163.84 L 148.75 163.04 C 149.28 162.24 149.06 161.16 148.26 160.63 C 147.46 160.10 146.37 160.32 145.84 161.12 Z M 145.32 161.91 L 144.81 162.66 C 144.27 163.47 144.48 164.55 145.29 165.09 C 146.09 165.63 147.18 165.42 147.71 164.62 L 148.22 163.86 C 148.76 163.06 148.55 161.97 147.75 161.43 C 146.95 160.89 145.86 161.11 145.32 161.91 Z M 144.81 162.65 L 144.26 163.46 C 143.71 164.26 143.91 165.35 144.71 165.90 C 145.51 166.45 146.61 166.25 147.16 165.45 L 147.71 164.64 C 148.26 163.84 148.06 162.74 147.26 162.19 C 146.46 161.64 145.36 161.84 144.81 162.65 Z M 144.25 163.45 L 143.69 164.26 C 143.13 165.06 143.34 166.16 144.14 166.72 C 144.94 167.27 146.04 167.07 146.60 166.27 L 147.16 165.46 C 147.71 164.65 147.51 163.55 146.71 163.00 C 145.91 162.44 144.81 162.64 144.25 163.45 Z M 143.67 164.27 L 143.11 165.09 C 142.56 165.90 142.77 167.01 143.58 167.56 C 144.39 168.11 145.50 167.90 146.05 167.09 L 146.61 166.26 C 147.16 165.45 146.95 164.35 146.14 163.80 C 145.33 163.25 144.23 163.46 143.67 164.27 Z M 143.08 165.11 L 142.48 166.04 C 141.94 166.86 142.17 167.97 143.00 168.51 C 143.82 169.06 144.93 168.82 145.47 168.00 L 146.08 167.07 C 146.62 166.25 146.39 165.14 145.56 164.60 C 144.73 164.05 143.62 164.29 143.08 165.11 Z M 142.40 166.12 L 141.81 167.15 C 141.31 168.02 141.61 169.13 142.48 169.62 C 143.35 170.12 144.46 169.82 144.96 168.95 L 145.55 167.92 C 146.05 167.05 145.75 165.94 144.88 165.44 C 144.01 164.94 142.90 165.24 142.40 166.12 Z M 141.62 167.49 L 141.35 168.33 C 141.05 169.31 141.59 170.35 142.56 170.66 C 143.53 170.97 144.57 170.43 144.88 169.45 L 145.15 168.61 C 145.46 167.63 144.92 166.59 143.94 166.28 C 142.97 165.98 141.93 166.52 141.62 167.49 Z M 141.49 169.83 L 141.76 170.31 C 142.28 171.21 143.43 171.52 144.33 171.00 C 145.23 170.48 145.54 169.33 145.02 168.43 L 144.75 167.95 C 144.23 167.05 143.08 166.74 142.18 167.26 C 141.28 167.78 140.97 168.93 141.49 169.83 Z M 143.13 171.26 L 143.93 171.37 C 144.98 171.51 145.94 170.78 146.08 169.73 C 146.22 168.69 145.49 167.72 144.45 167.58 L 143.65 167.47 C 142.60 167.33 141.64 168.06 141.50 169.11 C 141.36 170.15 142.09 171.12 143.13 171.26 Z M 144.34 171.40 L 145.48 171.31 C 146.55 171.23 147.34 170.30 147.26 169.24 C 147.18 168.17 146.25 167.38 145.18 167.46 L 144.04 167.55 C 142.98 167.63 142.18 168.56 142.26 169.62 C 142.34 170.69 143.27 171.48 144.34 171.40 Z M 145.53 171.33 L 146.72 171.21 C 147.79 171.10 148.57 170.14 148.46 169.07 C 148.35 167.99 147.40 167.21 146.32 167.32 L 145.14 167.44 C 144.06 167.55 143.28 168.51 143.39 169.58 C 143.50 170.66 144.46 171.44 145.53 171.33 Z M 146.66 171.23 L 147.68 171.16 C 148.76 171.08 149.58 170.14 149.50 169.05 C 149.42 167.97 148.48 167.15 147.39 167.23 L 146.38 167.30 C 145.29 167.38 144.48 168.32 144.55 169.41 C 144.63 170.49 145.57 171.31 146.66 171.23 Z M 147.63 171.17 L 148.64 171.12 C 149.74 171.07 150.58 170.14 150.53 169.05 C 150.47 167.96 149.55 167.11 148.45 167.17 L 147.44 167.21 C 146.35 167.27 145.51 168.19 145.56 169.29 C 145.61 170.38 146.54 171.22 147.63 171.17 Z M 148.61 171.13 L 149.60 171.10 C 150.70 171.07 151.56 170.15 151.53 169.05 C 151.49 167.95 150.58 167.09 149.48 167.12 L 148.49 167.15 C 147.39 167.19 146.53 168.11 146.56 169.20 C 146.59 170.30 147.51 171.17 148.61 171.13 Z M 149.58 171.11 L 150.56 171.10 C 151.66 171.07 152.54 170.16 152.52 169.06 C 152.50 167.95 151.59 167.08 150.48 167.10 L 149.50 167.11 C 148.40 167.14 147.52 168.05 147.54 169.15 C 147.56 170.26 148.47 171.13 149.58 171.11 Z M 150.54 171.10 L 151.55 171.09 C 152.65 171.08 153.54 170.17 153.53 169.06 C 153.52 167.96 152.61 167.07 151.50 167.08 L 150.50 167.09 C 149.39 167.10 148.50 168.01 148.52 169.12 C 148.53 170.23 149.44 171.11 150.54 171.10 Z M 151.53 171.09 L 152.52 171.09 C 153.63 171.08 154.52 170.18 154.52 169.07 C 154.51 167.96 153.61 167.07 152.50 167.07 L 151.52 167.08 C 150.41 167.08 149.51 167.98 149.52 169.09 C 149.52 170.20 150.42 171.10 151.53 171.09 Z M 152.51 171.09 L 153.50 171.09 C 154.62 171.09 155.52 170.19 155.52 169.08 C 155.52 167.97 154.61 167.07 153.50 167.07 L 152.50 167.07 C 151.39 167.07 150.49 167.97 150.49 169.08 C 150.49 170.19 151.40 171.09 152.51 171.09 Z M 153.50 171.10 L 154.43 171.10 C 155.54 171.10 156.45 170.19 156.45 169.08 C 156.45 167.97 155.54 167.06 154.43 167.06 L 153.50 167.06 C 152.39 167.06 151.49 167.97 151.49 169.08 C 151.49 170.19 152.39 171.10 153.50 171.10 Z M 154.43 171.10 L 155.37 171.10 C 156.48 171.10 157.39 170.20 157.39 169.08 C 157.39 167.96 156.48 167.06 155.37 167.06 L 154.43 167.06 C 153.31 167.06 152.41 167.96 152.41 169.08 C 152.41 170.20 153.31 171.10 154.43 171.10 Z M 155.37 171.10 L 156.37 171.10 C 157.49 171.10 158.39 170.20 158.39 169.08 C 158.39 167.96 157.49 167.06 156.37 167.06 L 155.37 167.06 C 154.25 167.06 153.34 167.96 153.34 169.08 C 153.34 170.20 154.25 171.10 155.37 171.10 Z M 156.37 171.11 L 157.44 171.11 C 158.56 171.11 159.47 170.20 159.47 169.08 C 159.47 167.96 158.56 167.05 157.44 167.05 L 156.37 167.05 C 155.25 167.05 154.34 167.96 154.34 169.08 C 154.34 170.20 155.25 171.11 156.37 171.11 Z M 157.44 171.11 L 158.50 171.11 C 159.62 171.11 160.53 170.20 160.53 169.08 C 160.53 167.96 159.62 167.05 158.50 167.05 L 157.44 167.05 C 156.32 167.05 155.41 167.96 155.41 169.08 C 155.41 170.20 156.32 171.11 157.44 171.11 Z M 158.50 171.11 L 159.52 171.11 C 160.64 171.11 161.55 170.20 161.55 169.08 C 161.55 167.96 160.64 167.05 159.52 167.05 L 158.50 167.05 C 157.38 167.05 156.47 167.96 156.47 169.08 C 156.47 170.20 157.38 171.11 158.50 171.11 Z M 159.52 171.11 L 160.56 171.11 C 161.68 171.11 162.59 170.20 162.59 169.08 C 162.59 167.96 161.68 167.05 160.56 167.05 L 159.52 167.05 C 158.40 167.05 157.49 167.96 157.49 169.08 C 157.49 170.20 158.40 171.11 159.52 171.11 Z M 160.56 171.11 L 161.58 171.11 C 162.70 171.11 163.61 170.20 163.61 169.08 C 163.61 167.96 162.70 167.05 161.58 167.05 L 160.56 167.05 C 159.44 167.05 158.53 167.96 158.53 169.08 C 158.53 170.20 159.44 171.11 160.56 171.11 Z M 161.58 171.11 L 162.55 171.11 C 163.68 171.11 164.59 170.20 164.59 169.08 C 164.59 167.96 163.68 167.05 162.55 167.05 L 161.58 167.05 C 160.46 167.05 159.55 167.96 159.55 169.08 C 159.55 170.20 160.46 171.11 161.58 171.11 Z M 162.55 171.11 L 163.58 171.11 C 164.70 171.11 165.62 170.20 165.62 169.08 C 165.62 167.96 164.70 167.05 163.58 167.05 L 162.55 167.05 C 161.43 167.05 160.52 167.96 160.52 169.08 C 160.52 170.20 161.43 171.11 162.55 171.11 Z M 163.58 171.11 L 164.64 171.11 C 165.76 171.11 166.67 170.20 166.67 169.08 C 166.67 167.96 165.76 167.05 164.64 167.05 L 163.58 167.05 C 162.46 167.05 161.55 167.96 161.55 169.08 C 161.55 170.20 162.46 171.11 163.58 171.11 Z M 164.64 171.11 L 165.61 171.11 C 166.73 171.11 167.64 170.20 167.64 169.08 C 167.64 167.96 166.73 167.05 165.61 167.05 L 164.64 167.05 C 163.52 167.05 162.61 167.96 162.61 169.08 C 162.61 170.20 163.52 171.11 164.64 171.11 Z M 165.61 171.11 L 166.53 171.11 C 167.66 171.11 168.57 170.20 168.57 169.08 C 168.57 167.96 167.66 167.05 166.53 167.05 L 165.61 167.05 C 164.48 167.05 163.57 167.96 163.57 169.08 C 163.57 170.20 164.48 171.11 165.61 171.11 Z M 166.53 171.11 L 167.49 171.11 C 168.61 171.11 169.52 170.20 169.52 169.08 C 169.52 167.96 168.61 167.05 167.49 167.05 L 166.53 167.05 C 165.41 167.05 164.50 167.96 164.50 169.08 C 164.50 170.20 165.41 171.11 166.53 171.11 Z M 167.49 171.11 L 168.48 171.11 C 169.60 171.11 170.51 170.20 170.51 169.08 C 170.51 167.96 169.60 167.05 168.48 167.05 L 167.49 167.05 C 166.36 167.05 165.45 167.96 165.45 169.08 C 165.45 170.20 166.36 171.11 167.49 171.11 Z M 168.48 171.11 L 169.48 171.11 C 170.61 171.11 171.52 170.20 171.52 169.08 C 171.52 167.96 170.61 167.05 169.48 167.05 L 168.48 167.05 C 167.35 167.05 166.44 167.96 166.44 169.08 C 166.44 170.20 167.35 171.11 168.48 171.11 Z M 169.48 171.11 L 170.51 171.11 C 171.63 171.11 172.54 170.20 172.54 169.08 C 172.54 167.96 171.63 167.05 170.51 167.05 L 169.48 167.05 C 168.36 167.05 167.45 167.96 167.45 169.08 C 167.45 170.20 168.36 171.11 169.48 171.11 Z M 170.51 171.11 L 171.49 171.11 C 172.61 171.11 173.52 170.20 173.52 169.08 C 173.52 167.96 172.61 167.05 171.49 167.05 L 170.51 167.05 C 169.39 167.05 168.48 167.96 168.48 169.08 C 168.48 170.20 169.39 171.11 170.51 171.11 Z M 171.49 171.11 L 172.48 171.11 C 173.60 171.11 174.51 170.20 174.51 169.08 C 174.51 167.96 173.60 167.05 172.48 167.05 L 171.49 167.05 C 170.37 167.05 169.46 167.96 169.46 169.08 C 169.46 170.20 170.37 171.11 171.49 171.11 Z M 172.48 171.11 L 173.49 171.11 C 174.61 171.11 175.52 170.20 175.52 169.08 C 175.52 167.96 174.61 167.05 173.49 167.05 L 172.48 167.05 C 171.36 167.05 170.46 167.96 170.46 169.08 C 170.46 170.20 171.36 171.11 172.48 171.11 Z M 173.49 171.10 L 174.50 171.10 C 175.62 171.10 176.53 170.20 176.53 169.08 C 176.53 167.96 175.62 167.06 174.50 167.06 L 173.49 167.06 C 172.37 167.06 171.47 167.96 171.47 169.08 C 171.47 170.20 172.37 171.10 173.49 171.10 Z M 174.50 171.10 L 175.48 171.10 C 176.60 171.10 177.50 170.20 177.50 169.08 C 177.50 167.96 176.60 167.06 175.48 167.06 L 174.50 167.06 C 173.39 167.06 172.48 167.96 172.48 169.08 C 172.48 170.20 173.39 171.10 174.50 171.10 Z M 175.48 171.10 L 176.48 171.10 C 177.59 171.10 178.49 170.19 178.49 169.08 C 178.49 167.96 177.59 167.06 176.48 167.06 L 175.48 167.06 C 174.37 167.06 173.46 167.96 173.46 169.08 C 173.46 170.19 174.37 171.10 175.48 171.10 Z M 176.48 171.10 L 177.49 171.10 C 178.60 171.10 179.50 170.19 179.50 169.08 C 179.50 167.97 178.60 167.06 177.49 167.06 L 176.48 167.06 C 175.36 167.06 174.46 167.97 174.46 169.08 C 174.46 170.19 175.36 171.10 176.48 171.10 Z M 177.49 171.09 L 178.51 171.09 C 179.62 171.09 180.52 170.19 180.52 169.08 C 180.52 167.97 179.62 167.07 178.51 167.07 L 177.49 167.07 C 176.37 167.07 175.47 167.97 175.47 169.08 C 175.47 170.19 176.37 171.09 177.49 171.09 Z M 178.51 171.09 L 179.53 171.09 C 180.64 171.09 181.54 170.19 181.54 169.08 C 181.54 167.97 180.64 167.07 179.53 167.07 L 178.51 167.07 C 177.40 167.07 176.50 167.97 176.50 169.08 C 176.50 170.19 177.40 171.09 178.51 171.09 Z M 179.53 171.08 L 180.55 171.08 C 181.66 171.08 182.55 170.19 182.55 169.08 C 182.55 167.97 181.66 167.08 180.55 167.08 L 179.53 167.08 C 178.42 167.08 177.53 167.97 177.53 169.08 C 177.53 170.19 178.42 171.08 179.53 171.08 Z M 180.55 171.07 L 181.55 171.07 C 182.65 171.07 183.55 170.18 183.55 169.08 C 183.55 167.98 182.65 167.08 181.55 167.08 L 180.55 167.08 C 179.45 167.08 178.55 167.98 178.55 169.08 C 178.55 170.18 179.45 171.07 180.55 171.07 Z M 181.55 171.07 L 182.52 171.07 C 183.62 171.07 184.51 170.18 184.51 169.08 C 184.51 167.98 183.62 167.09 182.52 167.09 L 181.55 167.09 C 180.45 167.09 179.56 167.98 179.56 169.08 C 179.56 170.18 180.45 171.07 181.55 171.07 Z M 182.52 171.06 L 183.57 171.06 C 184.67 171.06 185.56 170.17 185.56 169.08 C 185.56 167.98 184.67 167.10 183.57 167.10 L 182.52 167.10 C 181.42 167.10 180.54 167.98 180.54 169.08 C 180.54 170.17 181.42 171.06 182.52 171.06 Z M 183.57 171.05 L 184.59 171.05 C 185.68 171.05 186.57 170.17 186.57 169.08 C 186.57 167.99 185.68 167.11 184.59 167.11 L 183.57 167.11 C 182.48 167.11 181.60 167.99 181.60 169.08 C 181.60 170.17 182.48 171.05 183.57 171.05 Z M 184.59 171.05 L 185.56 171.05 C 186.64 171.05 187.52 170.17 187.52 169.08 C 187.52 167.99 186.64 167.11 185.56 167.11 L 184.59 167.11 C 183.50 167.11 182.62 167.99 182.62 169.08 C 182.62 170.17 183.50 171.05 184.59 171.05 Z M 185.56 171.04 L 186.44 171.04 C 187.52 171.04 188.40 170.16 188.40 169.08 C 188.40 168.00 187.52 167.12 186.44 167.12 L 185.56 167.12 C 184.47 167.12 183.60 168.00 183.60 169.08 C 183.60 170.16 184.47 171.04 185.56 171.04 Z M 186.43 171.03 L 187.23 171.03 C 188.31 171.03 189.18 170.16 189.19 169.08 C 189.19 168.01 188.32 167.13 187.24 167.13 L 186.44 167.13 C 185.36 167.13 184.49 168.00 184.49 169.08 C 184.49 170.15 185.36 171.03 186.43 171.03 Z M 187.22 171.02 L 188.12 171.03 C 189.19 171.03 190.07 170.17 190.07 169.10 C 190.08 168.03 189.22 167.15 188.15 167.15 L 187.25 167.14 C 186.18 167.13 185.30 168.00 185.30 169.07 C 185.29 170.14 186.15 171.01 187.22 171.02 Z M 188.11 171.02 L 189.20 171.03 C 190.26 171.05 191.14 170.19 191.15 169.13 C 191.17 168.06 190.31 167.19 189.25 167.17 L 188.16 167.16 C 187.09 167.14 186.22 167.99 186.20 169.06 C 186.19 170.13 187.04 171.00 188.11 171.02 Z M 189.18 171.02 L 190.43 171.05 C 191.49 171.07 192.37 170.22 192.39 169.16 C 192.41 168.10 191.57 167.23 190.51 167.21 L 189.26 167.18 C 188.20 167.16 187.32 168.00 187.30 169.06 C 187.28 170.13 188.12 171.00 189.18 171.02 Z M 190.42 171.04 L 191.23 171.06 C 192.29 171.08 193.16 170.25 193.19 169.19 C 193.21 168.13 192.37 167.26 191.32 167.23 L 190.51 167.21 C 189.46 167.19 188.58 168.03 188.55 169.08 C 188.53 170.14 189.37 171.02 190.42 171.04 Z M 191.23 171.05 L 192.11 171.07 C 193.16 171.10 194.04 170.27 194.07 169.21 C 194.09 168.16 193.26 167.28 192.21 167.26 L 191.32 167.24 C 190.27 167.21 189.39 168.04 189.37 169.10 C 189.34 170.15 190.17 171.03 191.23 171.05 Z M 192.11 171.07 L 193.06 171.09 C 194.11 171.12 194.99 170.29 195.01 169.24 C 195.04 168.19 194.21 167.32 193.16 167.29 L 192.21 167.26 C 191.16 167.24 190.28 168.07 190.26 169.12 C 190.23 170.17 191.06 171.04 192.11 171.07 Z M 193.06 171.09 L 194.07 171.12 C 195.12 171.14 195.99 170.32 196.02 169.27 C 196.04 168.22 195.22 167.35 194.17 167.32 L 193.16 167.29 C 192.11 167.27 191.24 168.09 191.21 169.14 C 191.18 170.19 192.01 171.06 193.06 171.09 Z M 194.07 171.11 L 195.12 171.14 C 196.17 171.17 197.04 170.35 197.06 169.30 C 197.09 168.26 196.27 167.39 195.23 167.36 L 194.17 167.33 C 193.13 167.30 192.26 168.12 192.23 169.17 C 192.20 170.21 193.02 171.08 194.07 171.11 Z M 195.12 171.13 L 196.21 171.16 C 197.25 171.19 198.12 170.37 198.15 169.33 C 198.18 168.29 197.36 167.42 196.31 167.39 L 195.23 167.36 C 194.18 167.33 193.32 168.15 193.29 169.20 C 193.26 170.24 194.08 171.11 195.12 171.13 Z M 196.21 171.16 L 197.32 171.19 C 198.36 171.22 199.22 170.40 199.25 169.36 C 199.28 168.32 198.46 167.46 197.43 167.43 L 196.31 167.40 C 195.28 167.37 194.41 168.19 194.38 169.23 C 194.35 170.26 195.17 171.13 196.21 171.16 Z M 197.32 171.19 L 198.44 171.22 C 199.48 171.25 200.34 170.43 200.37 169.40 C 200.40 168.36 199.58 167.50 198.55 167.47 L 197.43 167.43 C 196.39 167.40 195.53 168.22 195.50 169.26 C 195.47 170.29 196.28 171.16 197.32 171.19 Z M 198.44 171.21 L 198.53 171.22 C 199.57 171.25 200.43 170.43 200.46 169.40 C 200.49 168.36 199.67 167.50 198.64 167.47 L 198.55 167.47 C 197.51 167.44 196.65 168.25 196.62 169.29 C 196.59 170.32 197.41 171.19 198.44 171.21 Z"
      fill="black"
      fill-rule="nonzero" /></svg>