<svg xmlns="http://www.w3.org/2000/svg" width="300" height="300" viewBox="0 0 300 300">
<path d="M 136.72 100.54 L 136.48 101.66 C 136.28 102.58 136.87 103.48 137.79 103.67 C 138.71 103.87 139.61 103.28 139.80 102.37 L 140.04 101.24 C 140.23 100.33 139.65 99.42 138.73 99.23 C 137.81 99.04 136.91 99.62 136.72 100.54 Z M 136.42 101.87 L 136.33 102.88 C 136.25 103.83 136.96 104.67 137.91 104.75 C 138.87 104.82 139.70 104.12 139.78 103.16 L 139.86 102.16 C 139.94 101.20 139.24 100.37 138.28 100.29 C 137.33 100.21 136.49 100.92 136.42 101.87 Z M 136.36 103.51 L 136.59 104.29 C 136.86 105.22 137.83 105.76 138.77 105.49 C 139.71 105.22 140.24 104.24 139.97 103.31 L 139.75 102.53 C 139.48 101.60 138.50 101.06 137.57 101.33 C 136.63 101.60 136.09 102.58 136.36 103.51 Z M 137.24 105.24 L 137.89 105.71 C 138.69 106.28 139.80 106.10 140.38 105.30 C 140.95 104.51 140.77 103.39 139.97 102.82 L 139.32 102.35 C 138.52 101.78 137.41 101.96 136.83 102.76 C 136.26 103.56 136.44 104.67 137.24 105.24 Z M 138.56 106.01 L 139.54 106.22 C 140.50 106.43 141.44 105.82 141.65 104.85 C 141.86 103.89 141.25 102.95 140.29 102.74 L 139.31 102.53 C 138.35 102.32 137.40 102.93 137.19 103.89 C 136.98 104.85 137.59 105.80 138.56 106.01 Z M 139.82 106.26 L 140.96 106.32 C 141.95 106.37 142.78 105.62 142.84 104.63 C 142.89 103.65 142.14 102.81 141.16 102.76 L 140.01 102.70 C 139.03 102.65 138.19 103.40 138.13 104.38 C 138.08 105.36 138.83 106.20 139.82 106.26 Z M 141.06 106.32 L 142.01 106.32 C 143.00 106.32 143.79 105.52 143.80 104.54 C 143.80 103.56 143.00 102.76 142.02 102.76 L 141.06 102.76 C 140.08 102.76 139.28 103.55 139.28 104.54 C 139.28 105.52 140.08 106.32 141.06 106.32 Z M 142.09 106.32 L 143.07 106.28 C 144.05 106.23 144.81 105.41 144.77 104.42 C 144.73 103.44 143.90 102.68 142.92 102.72 L 141.94 102.76 C 140.96 102.80 140.20 103.63 140.24 104.62 C 140.28 105.60 141.11 106.36 142.09 106.32 Z M 143.16 106.27 L 144.18 106.17 C 145.15 106.08 145.87 105.21 145.78 104.23 C 145.69 103.26 144.82 102.54 143.84 102.63 L 142.83 102.73 C 141.85 102.82 141.13 103.69 141.22 104.67 C 141.32 105.64 142.18 106.36 143.16 106.27 Z M 144.28 106.16 L 145.29 106.00 C 146.26 105.85 146.93 104.95 146.78 103.98 C 146.63 103.01 145.72 102.34 144.75 102.49 L 143.74 102.65 C 142.77 102.80 142.10 103.70 142.25 104.67 C 142.40 105.64 143.31 106.31 144.28 106.16 Z M 145.38 105.98 L 146.33 105.79 C 147.29 105.59 147.91 104.65 147.71 103.69 C 147.51 102.74 146.57 102.12 145.61 102.31 L 144.67 102.51 C 143.71 102.71 143.09 103.64 143.29 104.60 C 143.48 105.56 144.42 106.18 145.38 105.98 Z M 146.39 105.77 L 147.36 105.53 C 148.31 105.30 148.90 104.34 148.66 103.39 C 148.43 102.44 147.47 101.86 146.52 102.09 L 145.55 102.33 C 144.60 102.57 144.02 103.52 144.25 104.47 C 144.48 105.42 145.44 106.00 146.39 105.77 Z M 147.41 105.52 L 148.40 105.24 C 149.34 104.98 149.89 104.01 149.63 103.07 C 149.37 102.13 148.40 101.58 147.46 101.84 L 146.47 102.11 C 145.53 102.37 144.98 103.34 145.24 104.28 C 145.50 105.23 146.47 105.78 147.41 105.52 Z M 148.44 105.23 L 149.42 104.93 C 150.35 104.65 150.88 103.67 150.60 102.74 C 150.32 101.80 149.34 101.28 148.40 101.56 L 147.42 101.85 C 146.49 102.13 145.96 103.12 146.24 104.05 C 146.52 104.98 147.50 105.51 148.44 105.23 Z M 149.45 104.92 L 150.43 104.61 C 151.35 104.31 151.87 103.32 151.57 102.39 C 151.27 101.47 150.28 100.96 149.36 101.26 L 148.38 101.57 C 147.45 101.87 146.94 102.85 147.24 103.78 C 147.53 104.70 148.52 105.22 149.45 104.92 Z M 150.44 104.60 L 151.41 104.28 C 152.33 103.98 152.83 102.99 152.53 102.07 C 152.23 101.15 151.24 100.65 150.32 100.95 L 149.35 101.26 C 148.43 101.56 147.93 102.55 148.23 103.47 C 148.53 104.39 149.52 104.90 150.44 104.60 Z M 151.39 104.28 L 152.34 103.98 C 153.26 103.68 153.77 102.70 153.47 101.78 C 153.18 100.86 152.20 100.35 151.28 100.65 L 150.33 100.95 C 149.41 101.24 148.90 102.23 149.20 103.15 C 149.49 104.07 150.47 104.57 151.39 104.28 Z M 152.31 103.98 L 153.24 103.70 C 154.16 103.43 154.68 102.46 154.41 101.53 C 154.13 100.61 153.16 100.09 152.24 100.36 L 151.31 100.64 C 150.39 100.92 149.87 101.89 150.14 102.81 C 150.42 103.73 151.39 104.26 152.31 103.98 Z M 153.18 103.71 L 154.18 103.45 C 155.11 103.21 155.66 102.26 155.42 101.33 C 155.18 100.40 154.23 99.85 153.30 100.09 L 152.30 100.35 C 151.37 100.60 150.82 101.54 151.06 102.47 C 151.30 103.40 152.25 103.96 153.18 103.71 Z M 154.11 103.47 L 155.12 103.25 C 156.05 103.05 156.65 102.12 156.45 101.19 C 156.24 100.25 155.32 99.65 154.38 99.86 L 153.37 100.07 C 152.43 100.28 151.84 101.20 152.04 102.14 C 152.24 103.08 153.17 103.67 154.11 103.47 Z M 155.04 103.26 L 156.01 103.10 C 156.96 102.94 157.59 102.04 157.43 101.10 C 157.27 100.15 156.37 99.51 155.43 99.68 L 154.46 99.84 C 153.51 100.00 152.88 100.90 153.04 101.85 C 153.20 102.79 154.09 103.43 155.04 103.26 Z M 155.93 103.11 L 156.87 102.99 C 157.82 102.88 158.49 102.01 158.37 101.06 C 158.26 100.11 157.39 99.43 156.44 99.55 L 155.51 99.66 C 154.56 99.78 153.88 100.65 154.00 101.60 C 154.12 102.55 154.98 103.23 155.93 103.11 Z M 156.75 103.01 L 157.83 102.95 C 158.79 102.90 159.53 102.08 159.48 101.12 C 159.42 100.16 158.60 99.43 157.65 99.48 L 156.56 99.54 C 155.60 99.59 154.86 100.41 154.92 101.37 C 154.97 102.32 155.79 103.06 156.75 103.01 Z M 157.50 102.94 L 158.46 103.08 C 159.42 103.21 160.30 102.55 160.43 101.59 C 160.57 100.64 159.90 99.76 158.95 99.62 L 157.98 99.49 C 157.03 99.35 156.15 100.02 156.01 100.97 C 155.88 101.92 156.54 102.80 157.50 102.94 Z M 157.81 102.85 L 158.58 103.31 C 159.41 103.81 160.48 103.54 160.98 102.71 C 161.47 101.88 161.21 100.81 160.38 100.31 L 159.61 99.85 C 158.78 99.35 157.70 99.62 157.21 100.45 C 156.71 101.28 156.98 102.35 157.81 102.85 Z M 158.01 102.76 L 158.48 103.50 C 159.01 104.31 160.09 104.55 160.90 104.03 C 161.72 103.50 161.95 102.42 161.43 101.61 L 160.95 100.87 C 160.43 100.05 159.35 99.82 158.53 100.34 C 157.72 100.86 157.48 101.95 158.01 102.76 Z M 158.28 103.07 L 158.58 104.03 C 158.86 104.96 159.84 105.48 160.76 105.19 C 161.69 104.91 162.21 103.93 161.93 103.01 L 161.63 102.04 C 161.35 101.12 160.37 100.60 159.45 100.88 C 158.52 101.16 158.00 102.14 158.28 103.07 Z M 158.51 103.73 L 158.64 104.80 C 158.76 105.75 159.64 106.44 160.60 106.32 C 161.56 106.20 162.24 105.33 162.12 104.37 L 161.99 103.31 C 161.87 102.35 161.00 101.66 160.04 101.78 C 159.08 101.90 158.40 102.78 158.51 103.73 Z M 158.63 104.55 L 158.62 105.58 C 158.60 106.54 159.37 107.34 160.34 107.35 C 161.31 107.37 162.10 106.60 162.12 105.63 L 162.13 104.61 C 162.15 103.64 161.38 102.85 160.41 102.83 C 159.44 102.82 158.65 103.59 158.63 104.55 Z M 158.64 105.34 L 158.49 106.30 C 158.34 107.25 159.00 108.15 159.95 108.29 C 160.90 108.44 161.80 107.79 161.94 106.83 L 162.09 105.87 C 162.24 104.92 161.59 104.02 160.63 103.88 C 159.68 103.73 158.79 104.38 158.64 105.34 Z M 158.54 106.07 L 158.26 107.02 C 157.99 107.94 158.52 108.91 159.45 109.19 C 160.37 109.46 161.34 108.93 161.61 108.01 L 161.89 107.06 C 162.16 106.13 161.63 105.16 160.71 104.89 C 159.79 104.62 158.82 105.15 158.54 106.07 Z M 158.33 106.84 L 157.94 107.78 C 157.57 108.67 157.99 109.69 158.88 110.06 C 159.77 110.43 160.79 110.01 161.16 109.12 L 161.55 108.18 C 161.92 107.29 161.50 106.27 160.61 105.90 C 159.72 105.53 158.70 105.96 158.33 106.84 Z M 157.99 107.67 L 157.57 108.51 C 157.14 109.37 157.49 110.41 158.34 110.85 C 159.20 111.28 160.25 110.93 160.68 110.07 L 161.10 109.23 C 161.53 108.38 161.19 107.33 160.33 106.90 C 159.47 106.47 158.43 106.81 157.99 107.67 Z M 157.61 108.44 L 157.13 109.30 C 156.65 110.14 156.95 111.20 157.78 111.67 C 158.62 112.14 159.68 111.85 160.15 111.01 L 160.64 110.15 C 161.11 109.31 160.82 108.25 159.98 107.78 C 159.15 107.31 158.09 107.60 157.61 108.44 Z M 157.16 109.25 L 156.62 110.13 C 156.12 110.94 156.37 112.01 157.19 112.51 C 158.00 113.01 159.07 112.76 159.57 111.94 L 160.11 111.07 C 160.61 110.25 160.36 109.18 159.55 108.68 C 158.73 108.18 157.66 108.43 157.16 109.25 Z M 156.65 110.09 L 156.07 110.97 C 155.55 111.76 155.77 112.84 156.57 113.36 C 157.37 113.88 158.44 113.66 158.96 112.86 L 159.54 111.98 C 160.06 111.19 159.84 110.11 159.04 109.59 C 158.25 109.07 157.17 109.29 156.65 110.09 Z M 156.10 110.94 L 155.54 111.75 C 155.00 112.53 155.20 113.60 155.98 114.14 C 156.77 114.68 157.84 114.49 158.38 113.70 L 158.94 112.89 C 159.48 112.11 159.28 111.03 158.50 110.49 C 157.71 109.95 156.64 110.15 156.10 110.94 Z M 155.56 111.72 L 154.99 112.53 C 154.44 113.30 154.61 114.37 155.39 114.93 C 156.16 115.48 157.23 115.30 157.78 114.53 L 158.36 113.72 C 158.91 112.95 158.73 111.88 157.96 111.33 C 157.19 110.77 156.12 110.95 155.56 111.72 Z M 155.01 112.51 L 154.41 113.32 C 153.85 114.07 154.01 115.15 154.77 115.71 C 155.53 116.27 156.60 116.11 157.16 115.35 L 157.76 114.55 C 158.32 113.79 158.16 112.72 157.40 112.15 C 156.64 111.59 155.57 111.75 155.01 112.51 Z M 154.43 113.30 L 153.82 114.11 C 153.25 114.86 153.39 115.92 154.14 116.49 C 154.89 117.07 155.96 116.92 156.53 116.17 L 157.14 115.37 C 157.71 114.62 157.57 113.55 156.82 112.98 C 156.07 112.41 155.01 112.55 154.43 113.30 Z M 153.84 114.10 L 153.22 114.88 C 152.64 115.62 152.77 116.69 153.51 117.26 C 154.25 117.84 155.32 117.71 155.89 116.97 L 156.51 116.19 C 157.09 115.45 156.96 114.38 156.22 113.80 C 155.48 113.23 154.41 113.36 153.84 114.10 Z M 153.24 114.87 L 152.62 115.64 C 152.04 116.37 152.16 117.43 152.89 118.02 C 153.61 118.60 154.68 118.48 155.26 117.75 L 155.88 116.98 C 156.46 116.25 156.34 115.19 155.61 114.61 C 154.88 114.03 153.82 114.15 153.24 114.87 Z M 152.64 115.64 L 152.01 116.41 C 151.42 117.13 151.53 118.19 152.24 118.77 C 152.96 119.36 154.02 119.25 154.61 118.54 L 155.24 117.76 C 155.83 117.04 155.72 115.99 155.00 115.40 C 154.29 114.81 153.23 114.92 152.64 115.64 Z M 152.03 116.40 L 151.38 117.17 C 150.79 117.88 150.88 118.93 151.59 119.53 C 152.30 120.12 153.35 120.03 153.94 119.32 L 154.59 118.55 C 155.18 117.84 155.09 116.78 154.38 116.19 C 153.67 115.60 152.62 115.69 152.03 116.40 Z M 151.40 117.16 L 150.74 117.93 C 150.14 118.63 150.22 119.68 150.92 120.28 C 151.62 120.88 152.67 120.80 153.26 120.10 L 153.92 119.33 C 154.52 118.63 154.44 117.58 153.74 116.98 C 153.05 116.38 152.00 116.46 151.40 117.16 Z M 150.76 117.92 L 150.08 118.69 C 149.48 119.38 149.54 120.42 150.23 121.03 C 150.92 121.63 151.97 121.57 152.57 120.88 L 153.25 120.11 C 153.85 119.42 153.78 118.37 153.10 117.77 C 152.41 117.17 151.36 117.23 150.76 117.92 Z M 150.10 118.68 L 149.41 119.43 C 148.80 120.11 148.85 121.16 149.53 121.77 C 150.21 122.38 151.26 122.33 151.87 121.65 L 152.55 120.89 C 153.16 120.21 153.11 119.17 152.43 118.56 C 151.76 117.95 150.71 118.00 150.10 118.68 Z M 149.43 119.42 L 148.75 120.16 C 148.13 120.82 148.16 121.87 148.83 122.49 C 149.50 123.11 150.54 123.07 151.16 122.40 L 151.85 121.67 C 152.47 121.00 152.43 119.96 151.76 119.33 C 151.10 118.71 150.05 118.75 149.43 119.42 Z M 148.77 120.14 L 148.08 120.85 C 147.45 121.50 147.47 122.55 148.13 123.18 C 148.78 123.81 149.82 123.79 150.45 123.13 L 151.14 122.42 C 151.77 121.77 151.75 120.73 151.09 120.10 C 150.44 119.46 149.40 119.48 148.77 120.14 Z M 148.11 120.83 L 147.42 121.51 C 146.78 122.15 146.78 123.19 147.42 123.83 C 148.06 124.48 149.10 124.48 149.74 123.84 L 150.43 123.15 C 151.07 122.51 151.07 121.47 150.43 120.83 C 149.79 120.19 148.75 120.19 148.11 120.83 Z M 147.45 121.49 L 146.68 122.22 C 146.03 122.84 146.00 123.88 146.62 124.54 C 147.25 125.19 148.29 125.22 148.94 124.59 L 149.71 123.86 C 150.37 123.24 150.39 122.20 149.77 121.55 C 149.15 120.89 148.11 120.86 147.45 121.49 Z M 146.72 122.19 L 145.96 122.87 C 145.29 123.47 145.23 124.51 145.84 125.18 C 146.44 125.86 147.48 125.91 148.15 125.30 L 148.91 124.62 C 149.58 124.02 149.64 122.98 149.03 122.31 C 148.43 121.64 147.39 121.58 146.72 122.19 Z M 146.00 122.84 L 145.25 123.47 C 144.56 124.06 144.48 125.09 145.07 125.78 C 145.65 126.47 146.69 126.55 147.37 125.97 L 148.12 125.33 C 148.81 124.75 148.89 123.71 148.31 123.03 C 147.72 122.34 146.69 122.25 146.00 122.84 Z M 145.29 123.44 L 144.55 124.03 C 143.85 124.60 143.74 125.63 144.30 126.33 C 144.87 127.04 145.90 127.15 146.60 126.59 L 147.34 126.00 C 148.04 125.43 148.16 124.40 147.59 123.69 C 147.02 122.99 145.99 122.88 145.29 123.44 Z M 144.59 124.00 L 143.77 124.62 C 143.05 125.17 142.91 126.19 143.45 126.91 C 144.00 127.64 145.02 127.78 145.74 127.24 L 146.57 126.62 C 147.29 126.07 147.43 125.04 146.89 124.32 C 146.34 123.60 145.31 123.46 144.59 124.00 Z M 143.81 124.60 L 142.99 125.18 C 142.25 125.70 142.08 126.72 142.61 127.46 C 143.13 128.20 144.16 128.37 144.89 127.84 L 145.71 127.26 C 146.44 126.74 146.62 125.71 146.09 124.98 C 145.57 124.24 144.54 124.07 143.81 124.60 Z M 143.02 125.16 L 142.21 125.71 C 141.46 126.22 141.27 127.24 141.78 127.99 C 142.29 128.73 143.30 128.93 144.05 128.42 L 144.86 127.86 C 145.61 127.35 145.80 126.34 145.29 125.59 C 144.78 124.84 143.77 124.65 143.02 125.16 Z M 142.23 125.70 L 141.40 126.24 C 140.65 126.74 140.44 127.76 140.94 128.51 C 141.44 129.26 142.46 129.47 143.21 128.97 L 144.03 128.43 C 144.79 127.93 144.99 126.92 144.49 126.16 C 144.00 125.41 142.98 125.20 142.23 125.70 Z M 141.42 126.23 L 140.58 126.78 C 139.82 127.27 139.60 128.29 140.09 129.05 C 140.59 129.80 141.60 130.02 142.36 129.53 L 143.20 128.98 C 143.96 128.49 144.17 127.47 143.68 126.72 C 143.19 125.96 142.17 125.74 141.42 126.23 Z M 140.58 126.78 L 139.74 127.32 C 138.98 127.80 138.76 128.82 139.25 129.58 C 139.74 130.34 140.75 130.56 141.51 130.07 L 142.35 129.53 C 143.11 129.04 143.33 128.03 142.84 127.27 C 142.36 126.51 141.34 126.29 140.58 126.78 Z M 139.75 127.31 L 138.91 127.85 C 138.14 128.33 137.92 129.35 138.41 130.11 C 138.89 130.87 139.90 131.10 140.67 130.61 L 141.51 130.07 C 142.27 129.59 142.49 128.58 142.01 127.81 C 141.52 127.05 140.51 126.83 139.75 127.31 Z M 138.91 127.85 L 138.82 127.90 C 138.06 128.39 137.84 129.40 138.32 130.16 C 138.81 130.92 139.82 131.15 140.58 130.66 L 140.66 130.61 C 141.43 130.12 141.65 129.11 141.17 128.35 C 140.68 127.59 139.67 127.36 138.91 127.85 Z"
      fill="black"
      fill-rule="nonzero" /><path d="M 135.37 133.07 L 136.36 133.05 C 137.35 133.02 138.14 132.20 138.11 131.20 C 138.09 130.21 137.26 129.42 136.27 129.45 L 135.28 129.47 C 134.29 129.50 133.50 130.32 133.53 131.32 C 133.55 132.31 134.38 133.09 135.37 133.07 Z M 136.37 133.05 L 137.36 133.02 C 138.36 132.98 139.14 132.15 139.10 131.15 C 139.07 130.16 138.23 129.38 137.24 129.41 L 136.25 129.44 C 135.26 129.48 134.48 130.31 134.51 131.31 C 134.54 132.30 135.38 133.08 136.37 133.05 Z M 137.39 133.02 L 138.38 132.97 C 139.38 132.91 140.15 132.07 140.09 131.07 C 140.04 130.07 139.19 129.31 138.20 129.36 L 137.21 129.41 C 136.21 129.46 135.44 130.31 135.50 131.31 C 135.55 132.30 136.40 133.07 137.39 133.02 Z M 138.43 132.97 L 139.43 132.89 C 140.43 132.81 141.17 131.94 141.09 130.94 C 141.01 129.95 140.14 129.20 139.15 129.28 L 138.15 129.36 C 137.15 129.44 136.41 130.31 136.49 131.30 C 136.56 132.30 137.43 133.04 138.43 132.97 Z M 139.49 132.89 L 140.50 132.77 C 141.49 132.66 142.21 131.76 142.10 130.77 C 141.98 129.77 141.09 129.06 140.09 129.17 L 139.09 129.28 C 138.09 129.39 137.37 130.29 137.49 131.29 C 137.60 132.28 138.50 133.00 139.49 132.89 Z M 140.57 132.77 L 141.58 132.61 C 142.57 132.45 143.25 131.53 143.10 130.54 C 142.94 129.55 142.02 128.87 141.03 129.02 L 140.02 129.18 C 139.02 129.33 138.35 130.26 138.50 131.25 C 138.65 132.24 139.58 132.92 140.57 132.77 Z M 141.66 132.59 L 142.66 132.39 C 143.64 132.20 144.28 131.24 144.08 130.26 C 143.89 129.28 142.93 128.64 141.95 128.84 L 140.95 129.04 C 139.97 129.23 139.33 130.19 139.53 131.17 C 139.72 132.15 140.68 132.79 141.66 132.59 Z M 142.72 132.38 L 143.72 132.14 C 144.69 131.91 145.30 130.93 145.06 129.96 C 144.83 128.99 143.86 128.38 142.88 128.62 L 141.89 128.85 C 140.91 129.08 140.31 130.06 140.54 131.03 C 140.77 132.01 141.75 132.61 142.72 132.38 Z M 143.77 132.12 L 144.76 131.86 C 145.72 131.60 146.29 130.61 146.03 129.64 C 145.77 128.68 144.78 128.11 143.82 128.37 L 142.83 128.63 C 141.87 128.89 141.30 129.88 141.56 130.85 C 141.82 131.81 142.81 132.38 143.77 132.12 Z M 144.80 131.84 L 145.76 131.56 C 146.72 131.28 147.26 130.27 146.98 129.32 C 146.70 128.36 145.70 127.82 144.74 128.10 L 143.78 128.38 C 142.82 128.66 142.28 129.67 142.56 130.62 C 142.84 131.58 143.84 132.12 144.80 131.84 Z M 145.79 131.54 L 146.72 131.25 C 147.67 130.95 148.19 129.94 147.89 129.00 C 147.60 128.05 146.59 127.52 145.64 127.82 L 144.71 128.11 C 143.76 128.41 143.24 129.42 143.53 130.37 C 143.83 131.32 144.84 131.84 145.79 131.54 Z M 146.74 131.24 L 147.68 130.93 C 148.62 130.62 149.13 129.60 148.82 128.66 C 148.51 127.72 147.49 127.21 146.55 127.52 L 145.61 127.83 C 144.67 128.14 144.16 129.16 144.47 130.10 C 144.79 131.04 145.80 131.55 146.74 131.24 Z M 147.70 130.92 L 148.71 130.57 C 149.65 130.25 150.14 129.23 149.82 128.30 C 149.50 127.36 148.48 126.86 147.55 127.19 L 146.53 127.53 C 145.60 127.86 145.10 128.87 145.42 129.81 C 145.74 130.74 146.76 131.24 147.70 130.92 Z M 148.72 130.56 L 149.68 130.22 C 150.61 129.89 151.09 128.87 150.76 127.94 C 150.44 127.02 149.42 126.53 148.49 126.86 L 147.53 127.20 C 146.61 127.53 146.12 128.55 146.45 129.47 C 146.78 130.40 147.80 130.89 148.72 130.56 Z M 149.69 130.21 L 150.60 129.88 C 151.52 129.54 152.00 128.53 151.67 127.61 C 151.34 126.69 150.32 126.21 149.40 126.54 L 148.48 126.87 C 147.56 127.20 147.08 128.22 147.42 129.14 C 147.75 130.06 148.77 130.54 149.69 130.21 Z M 150.60 129.87 L 151.49 129.55 C 152.41 129.21 152.88 128.20 152.55 127.28 C 152.22 126.37 151.20 125.89 150.28 126.23 L 149.40 126.55 C 148.48 126.88 148.01 127.89 148.34 128.81 C 148.67 129.73 149.69 130.20 150.60 129.87 Z M 151.48 129.54 L 152.40 129.21 C 153.31 128.89 153.79 127.88 153.46 126.96 C 153.13 126.05 152.12 125.57 151.20 125.90 L 150.29 126.23 C 149.38 126.56 148.90 127.57 149.23 128.48 C 149.56 129.40 150.57 129.87 151.48 129.54 Z M 152.38 129.21 L 153.33 128.88 C 154.25 128.56 154.73 127.56 154.41 126.64 C 154.09 125.73 153.08 125.25 152.17 125.57 L 151.22 125.90 C 150.30 126.22 149.82 127.23 150.14 128.14 C 150.47 129.06 151.47 129.54 152.38 129.21 Z M 153.32 128.88 L 154.27 128.56 C 155.18 128.25 155.67 127.25 155.36 126.34 C 155.05 125.42 154.05 124.93 153.14 125.24 L 152.19 125.57 C 151.27 125.88 150.78 126.87 151.09 127.79 C 151.41 128.70 152.40 129.19 153.32 128.88 Z M 154.25 128.56 L 155.19 128.25 C 156.11 127.95 156.61 126.96 156.31 126.05 C 156.01 125.13 155.02 124.63 154.10 124.93 L 153.16 125.24 C 152.24 125.54 151.74 126.53 152.04 127.44 C 152.34 128.36 153.33 128.86 154.25 128.56 Z M 155.17 128.26 L 156.11 127.96 C 157.03 127.68 157.54 126.70 157.26 125.78 C 156.97 124.86 155.99 124.35 155.07 124.63 L 154.13 124.92 C 153.21 125.21 152.70 126.19 152.98 127.11 C 153.27 128.03 154.25 128.54 155.17 128.26 Z M 156.08 127.97 L 157.02 127.70 C 157.95 127.43 158.48 126.46 158.21 125.54 C 157.94 124.61 156.97 124.08 156.05 124.35 L 155.10 124.63 C 154.18 124.89 153.65 125.86 153.92 126.78 C 154.19 127.71 155.15 128.24 156.08 127.97 Z M 156.98 127.71 L 157.93 127.45 C 158.86 127.21 159.42 126.26 159.17 125.33 C 158.93 124.40 157.98 123.85 157.05 124.09 L 156.09 124.34 C 155.17 124.58 154.61 125.54 154.85 126.46 C 155.10 127.39 156.05 127.95 156.98 127.71 Z M 157.87 127.47 L 158.84 127.25 C 159.78 127.03 160.37 126.10 160.15 125.17 C 159.94 124.23 159.01 123.65 158.07 123.86 L 157.10 124.08 C 156.17 124.29 155.58 125.22 155.79 126.16 C 156.01 127.09 156.94 127.68 157.87 127.47 Z M 158.78 127.26 L 159.78 127.07 C 160.72 126.90 161.34 125.99 161.16 125.05 C 160.99 124.11 160.08 123.49 159.14 123.66 L 158.14 123.85 C 157.20 124.02 156.58 124.93 156.75 125.87 C 156.93 126.81 157.83 127.43 158.78 127.26 Z M 159.70 127.08 L 160.75 126.94 C 161.70 126.80 162.36 125.93 162.22 124.98 C 162.09 124.03 161.22 123.37 160.27 123.50 L 159.22 123.65 C 158.27 123.78 157.61 124.66 157.74 125.61 C 157.88 126.55 158.75 127.22 159.70 127.08 Z M 160.65 126.95 L 161.72 126.86 C 162.67 126.78 163.38 125.94 163.31 124.99 C 163.23 124.04 162.39 123.33 161.44 123.41 L 160.37 123.49 C 159.41 123.57 158.70 124.41 158.78 125.36 C 158.86 126.31 159.70 127.02 160.65 126.95 Z M 161.57 126.86 L 162.61 126.87 C 163.56 126.87 164.34 126.10 164.34 125.14 C 164.35 124.19 163.58 123.41 162.62 123.40 L 161.59 123.40 C 160.63 123.40 159.85 124.17 159.85 125.13 C 159.85 126.08 160.62 126.86 161.57 126.86 Z M 162.39 126.85 L 163.33 126.98 C 164.27 127.10 165.14 126.44 165.27 125.49 C 165.40 124.54 164.73 123.67 163.78 123.55 L 162.84 123.42 C 161.89 123.29 161.02 123.96 160.90 124.91 C 160.77 125.86 161.44 126.73 162.39 126.85 Z M 162.97 126.89 L 163.80 127.19 C 164.70 127.51 165.69 127.04 166.01 126.14 C 166.34 125.24 165.87 124.25 164.97 123.93 L 164.14 123.63 C 163.24 123.31 162.25 123.78 161.93 124.68 C 161.60 125.58 162.07 126.57 162.97 126.89 Z M 163.30 126.90 L 164.02 127.48 C 164.76 128.08 165.85 127.97 166.45 127.23 C 167.05 126.48 166.93 125.40 166.19 124.80 L 165.47 124.21 C 164.73 123.61 163.64 123.73 163.04 124.47 C 162.44 125.21 162.56 126.30 163.30 126.90 Z M 163.62 127.02 L 164.11 127.84 C 164.59 128.66 165.65 128.93 166.47 128.44 C 167.29 127.95 167.56 126.89 167.07 126.07 L 166.59 125.26 C 166.10 124.44 165.04 124.17 164.22 124.66 C 163.40 125.14 163.13 126.20 163.62 127.02 Z M 163.93 127.43 L 164.22 128.46 C 164.49 129.37 165.44 129.90 166.36 129.64 C 167.27 129.38 167.80 128.42 167.54 127.51 L 167.25 126.48 C 166.98 125.56 166.03 125.03 165.11 125.30 C 164.20 125.56 163.67 126.51 163.93 127.43 Z M 164.18 128.20 L 164.30 129.18 C 164.42 130.12 165.29 130.79 166.23 130.67 C 167.17 130.55 167.84 129.68 167.72 128.74 L 167.59 127.76 C 167.47 126.82 166.61 126.15 165.66 126.27 C 164.72 126.40 164.05 127.26 164.18 128.20 Z M 164.29 129.03 L 164.33 129.99 C 164.37 130.94 165.16 131.68 166.11 131.65 C 167.06 131.61 167.80 130.81 167.76 129.87 L 167.72 128.90 C 167.69 127.95 166.89 127.21 165.94 127.25 C 165.00 127.28 164.26 128.08 164.29 129.03 Z M 164.33 129.87 L 164.30 130.89 C 164.27 131.83 165.01 132.63 165.95 132.66 C 166.90 132.69 167.69 131.95 167.72 131.01 L 167.76 129.99 C 167.79 129.04 167.05 128.25 166.10 128.22 C 165.16 128.19 164.37 128.93 164.33 129.87 Z M 164.31 130.78 L 164.21 131.81 C 164.11 132.75 164.80 133.58 165.74 133.68 C 166.67 133.77 167.51 133.09 167.61 132.15 L 167.71 131.12 C 167.80 130.18 167.12 129.34 166.18 129.25 C 165.24 129.15 164.41 129.84 164.31 130.78 Z M 164.23 131.70 L 164.06 132.72 C 163.90 133.65 164.53 134.52 165.46 134.68 C 166.38 134.83 167.26 134.21 167.42 133.28 L 167.59 132.26 C 167.74 131.33 167.11 130.46 166.19 130.30 C 165.26 130.15 164.38 130.77 164.23 131.70 Z M 164.09 132.61 L 163.85 133.60 C 163.63 134.52 164.19 135.43 165.10 135.65 C 166.02 135.87 166.93 135.30 167.15 134.39 L 167.39 133.39 C 167.60 132.48 167.04 131.57 166.13 131.35 C 165.22 131.13 164.30 131.69 164.09 132.61 Z M 163.88 133.50 L 163.59 134.46 C 163.31 135.35 163.81 136.30 164.70 136.57 C 165.59 136.85 166.54 136.35 166.82 135.46 L 167.11 134.50 C 167.39 133.61 166.89 132.66 166.00 132.38 C 165.11 132.11 164.16 132.61 163.88 133.50 Z M 163.62 134.37 L 163.28 135.30 C 162.95 136.17 163.40 137.14 164.27 137.47 C 165.14 137.79 166.11 137.35 166.43 136.48 L 166.78 135.55 C 167.10 134.68 166.66 133.71 165.79 133.38 C 164.92 133.06 163.95 133.50 163.62 134.37 Z M 163.31 135.23 L 162.93 136.14 C 162.56 136.99 162.96 137.98 163.81 138.34 C 164.66 138.70 165.65 138.30 166.01 137.45 L 166.40 136.54 C 166.76 135.69 166.36 134.71 165.51 134.35 C 164.66 133.98 163.68 134.38 163.31 135.23 Z M 162.96 136.09 L 162.54 136.99 C 162.15 137.82 162.51 138.81 163.34 139.20 C 164.18 139.59 165.17 139.23 165.56 138.40 L 165.98 137.50 C 166.37 136.67 166.01 135.67 165.17 135.28 C 164.34 134.89 163.35 135.25 162.96 136.09 Z M 162.56 136.95 L 162.11 137.84 C 161.70 138.67 162.04 139.67 162.86 140.08 C 163.68 140.49 164.68 140.15 165.09 139.33 L 165.54 138.43 C 165.95 137.61 165.61 136.61 164.79 136.20 C 163.97 135.79 162.97 136.13 162.56 136.95 Z M 162.14 137.81 L 161.67 138.70 C 161.24 139.51 161.55 140.51 162.36 140.94 C 163.17 141.37 164.17 141.06 164.60 140.25 L 165.07 139.36 C 165.50 138.55 165.19 137.55 164.38 137.12 C 163.57 136.69 162.57 137.00 162.14 137.81 Z M 161.69 138.66 L 161.20 139.53 C 160.75 140.33 161.04 141.34 161.83 141.79 C 162.63 142.24 163.64 141.95 164.09 141.16 L 164.58 140.28 C 165.02 139.49 164.74 138.48 163.95 138.03 C 163.15 137.58 162.14 137.87 161.69 138.66 Z M 161.23 139.50 L 160.72 140.36 C 160.25 141.14 160.51 142.16 161.29 142.62 C 162.07 143.09 163.08 142.83 163.55 142.05 L 164.06 141.19 C 164.53 140.41 164.27 139.39 163.49 138.93 C 162.71 138.46 161.69 138.72 161.23 139.50 Z M 160.74 140.33 L 160.21 141.17 C 159.72 141.94 159.95 142.96 160.72 143.44 C 161.49 143.93 162.51 143.70 162.99 142.93 L 163.53 142.08 C 164.01 141.31 163.78 140.30 163.01 139.81 C 162.24 139.33 161.23 139.56 160.74 140.33 Z M 160.23 141.14 L 159.68 141.97 C 159.18 142.73 159.38 143.75 160.14 144.25 C 160.89 144.75 161.91 144.55 162.42 143.79 L 162.97 142.96 C 163.47 142.20 163.27 141.18 162.51 140.68 C 161.76 140.18 160.74 140.38 160.23 141.14 Z M 159.70 141.94 L 159.13 142.76 C 158.61 143.50 158.79 144.52 159.53 145.04 C 160.28 145.56 161.30 145.38 161.82 144.64 L 162.39 143.82 C 162.91 143.08 162.73 142.06 161.99 141.54 C 161.25 141.02 160.22 141.20 159.70 141.94 Z M 159.15 142.73 L 158.56 143.53 C 158.03 144.26 158.18 145.29 158.91 145.83 C 159.64 146.36 160.67 146.20 161.21 145.47 L 161.80 144.67 C 162.33 143.94 162.18 142.91 161.44 142.38 C 160.71 141.84 159.69 142.00 159.15 142.73 Z M 158.58 143.51 L 157.97 144.30 C 157.42 145.02 157.56 146.05 158.28 146.60 C 159.00 147.15 160.02 147.01 160.57 146.30 L 161.18 145.50 C 161.73 144.78 161.60 143.75 160.88 143.20 C 160.16 142.65 159.13 142.79 158.58 143.51 Z M 157.99 144.28 L 157.35 145.08 C 156.79 145.79 156.91 146.82 157.61 147.38 C 158.32 147.95 159.35 147.83 159.91 147.12 L 160.55 146.32 C 161.12 145.61 161.00 144.58 160.29 144.02 C 159.59 143.46 158.56 143.57 157.99 144.28 Z M 157.37 145.06 L 156.72 145.84 C 156.14 146.54 156.24 147.57 156.94 148.15 C 157.63 148.73 158.67 148.63 159.24 147.93 L 159.89 147.15 C 160.47 146.45 160.38 145.42 159.68 144.84 C 158.98 144.27 157.95 144.36 157.37 145.06 Z M 156.74 145.82 L 156.09 146.58 C 155.50 147.26 155.57 148.30 156.25 148.89 C 156.94 149.48 157.97 149.40 158.56 148.72 L 159.22 147.96 C 159.81 147.28 159.74 146.24 159.05 145.65 C 158.37 145.06 157.34 145.13 156.74 145.82 Z M 156.11 146.55 L 155.46 147.27 C 154.85 147.94 154.90 148.98 155.57 149.59 C 156.24 150.19 157.28 150.14 157.88 149.47 L 158.54 148.75 C 159.15 148.08 159.09 147.04 158.42 146.44 C 157.75 145.83 156.72 145.88 156.11 146.55 Z M 155.49 147.24 L 154.79 147.97 C 154.17 148.62 154.19 149.65 154.85 150.28 C 155.50 150.90 156.54 150.88 157.16 150.23 L 157.85 149.50 C 158.48 148.85 158.45 147.81 157.80 147.19 C 157.15 146.56 156.11 146.59 155.49 147.24 Z M 154.83 147.93 L 154.10 148.65 C 153.45 149.29 153.45 150.33 154.08 150.97 C 154.72 151.61 155.75 151.62 156.40 150.98 L 157.13 150.26 C 157.77 149.63 157.78 148.59 157.14 147.95 C 156.51 147.30 155.47 147.30 154.83 147.93 Z M 154.12 148.63 L 153.40 149.31 C 152.74 149.93 152.71 150.96 153.33 151.62 C 153.95 152.28 154.99 152.31 155.65 151.69 L 156.37 151.01 C 157.03 150.39 157.06 149.35 156.44 148.70 C 155.82 148.04 154.78 148.01 154.12 148.63 Z M 153.42 149.29 L 152.71 149.94 C 152.04 150.55 151.99 151.59 152.60 152.26 C 153.21 152.92 154.25 152.97 154.91 152.36 L 155.63 151.71 C 156.30 151.10 156.34 150.06 155.73 149.39 C 155.12 148.73 154.09 148.68 153.42 149.29 Z M 152.71 149.94 L 152.40 150.22 C 151.73 150.83 151.68 151.86 152.28 152.53 C 152.89 153.20 153.92 153.26 154.59 152.65 L 154.91 152.36 C 155.58 151.76 155.63 150.72 155.02 150.05 C 154.42 149.38 153.38 149.33 152.71 149.94 Z"
      fill="black"
      fill-rule="nonzero" /><path d="M 148.22 139.35 L 148.44 140.34 C 148.66 141.28 149.59 141.87 150.53 141.66 C 151.47 141.44 152.05 140.51 151.84 139.57 L 151.61 138.58 C 151.40 137.64 150.47 137.05 149.53 137.27 C 148.59 137.48 148.00 138.41 148.22 139.35 Z M 148.47 140.31 L 148.67 141.30 C 148.87 142.22 149.77 142.81 150.70 142.62 C 151.63 142.43 152.22 141.52 152.02 140.59 L 151.82 139.61 C 151.62 138.68 150.72 138.09 149.79 138.28 C 148.86 138.48 148.27 139.38 148.47 140.31 Z M 148.69 141.23 L 148.86 142.21 C 149.02 143.12 149.89 143.73 150.81 143.58 C 151.72 143.42 152.33 142.55 152.18 141.63 L 152.01 140.66 C 151.85 139.74 150.98 139.13 150.06 139.29 C 149.15 139.44 148.53 140.32 148.69 141.23 Z M 148.87 142.11 L 148.98 143.10 C 149.09 144.01 149.92 144.66 150.83 144.55 C 151.74 144.44 152.39 143.62 152.28 142.71 L 152.17 141.72 C 152.06 140.81 151.24 140.16 150.32 140.27 C 149.41 140.38 148.76 141.20 148.87 142.11 Z M 148.99 142.99 L 149.04 143.99 C 149.09 144.90 149.87 145.59 150.78 145.54 C 151.69 145.49 152.38 144.72 152.33 143.81 L 152.28 142.81 C 152.23 141.90 151.45 141.21 150.54 141.26 C 149.63 141.30 148.94 142.08 148.99 142.99 Z M 149.04 143.90 L 149.05 144.90 C 149.05 145.80 149.79 146.54 150.69 146.53 C 151.60 146.53 152.34 145.79 152.33 144.89 L 152.33 143.89 C 152.33 142.98 151.59 142.25 150.68 142.25 C 149.77 142.26 149.04 142.99 149.04 143.90 Z M 149.05 144.84 L 149.02 145.83 C 148.99 146.74 149.70 147.50 150.60 147.53 C 151.51 147.56 152.27 146.85 152.30 145.94 L 152.33 144.94 C 152.36 144.04 151.65 143.28 150.74 143.25 C 149.84 143.22 149.08 143.93 149.05 144.84 Z M 149.02 145.78 L 148.96 146.77 C 148.90 147.67 149.59 148.45 150.49 148.51 C 151.39 148.56 152.17 147.88 152.23 146.98 L 152.29 145.99 C 152.35 145.09 151.66 144.31 150.76 144.25 C 149.86 144.20 149.08 144.88 149.02 145.78 Z M 148.97 146.69 L 148.86 147.69 C 148.76 148.59 149.40 149.40 150.30 149.50 C 151.20 149.60 152.01 148.95 152.11 148.05 L 152.22 147.05 C 152.32 146.15 151.67 145.35 150.77 145.25 C 149.88 145.15 149.07 145.79 148.97 146.69 Z M 148.87 147.58 L 148.69 148.58 C 148.53 149.47 149.13 150.32 150.02 150.48 C 150.91 150.64 151.76 150.04 151.92 149.15 L 152.10 148.16 C 152.25 147.27 151.66 146.42 150.77 146.26 C 149.88 146.10 149.03 146.69 148.87 147.58 Z M 148.72 148.45 L 148.48 149.38 C 148.25 150.25 148.77 151.15 149.64 151.38 C 150.51 151.61 151.41 151.09 151.64 150.22 L 151.89 149.28 C 152.12 148.41 151.60 147.51 150.72 147.28 C 149.85 147.05 148.95 147.57 148.72 148.45 Z M 148.51 149.26 L 148.19 150.18 C 147.89 151.03 148.34 151.96 149.19 152.26 C 150.05 152.56 150.98 152.11 151.28 151.26 L 151.60 150.34 C 151.90 149.49 151.45 148.55 150.60 148.25 C 149.75 147.95 148.81 148.40 148.51 149.26 Z M 148.23 150.07 L 147.83 151.00 C 147.47 151.83 147.85 152.79 148.68 153.15 C 149.51 153.51 150.48 153.13 150.84 152.30 L 151.24 151.37 C 151.60 150.54 151.22 149.57 150.39 149.22 C 149.56 148.86 148.59 149.24 148.23 150.07 Z M 147.87 150.91 L 147.40 151.84 C 147.00 152.64 147.32 153.63 148.13 154.04 C 148.93 154.44 149.92 154.12 150.33 153.31 L 150.80 152.39 C 151.20 151.58 150.88 150.59 150.07 150.19 C 149.27 149.78 148.28 150.10 147.87 150.91 Z M 147.44 151.77 L 146.96 152.61 C 146.52 153.40 146.79 154.40 147.58 154.84 C 148.37 155.29 149.37 155.01 149.81 154.22 L 150.29 153.38 C 150.74 152.60 150.46 151.60 149.67 151.15 C 148.89 150.71 147.89 150.98 147.44 151.77 Z M 147.00 152.55 L 146.47 153.40 C 145.99 154.16 146.22 155.17 146.99 155.65 C 147.76 156.13 148.77 155.90 149.25 155.13 L 149.78 154.29 C 150.26 153.52 150.02 152.51 149.26 152.03 C 148.49 151.55 147.48 151.78 147.00 152.55 Z M 146.51 153.34 L 145.93 154.17 C 145.42 154.92 145.61 155.94 146.35 156.45 C 147.10 156.96 148.12 156.78 148.63 156.03 L 149.21 155.19 C 149.72 154.45 149.53 153.43 148.79 152.92 C 148.04 152.40 147.02 152.59 146.51 153.34 Z M 145.98 154.11 L 145.36 154.93 C 144.81 155.65 144.95 156.68 145.67 157.22 C 146.39 157.77 147.42 157.63 147.97 156.91 L 148.59 156.09 C 149.13 155.37 148.99 154.34 148.27 153.80 C 147.55 153.25 146.52 153.39 145.98 154.11 Z M 145.40 154.86 L 144.55 155.87 C 143.96 156.57 144.05 157.61 144.75 158.19 C 145.44 158.78 146.48 158.69 147.07 157.99 L 147.92 156.98 C 148.51 156.28 148.42 155.24 147.72 154.66 C 147.03 154.07 145.99 154.16 145.40 154.86 Z M 144.55 155.84 L 143.81 156.69 C 143.21 157.38 143.29 158.43 143.98 159.04 C 144.67 159.64 145.72 159.57 146.32 158.87 L 147.06 158.03 C 147.67 157.33 147.59 156.28 146.90 155.68 C 146.21 155.08 145.16 155.15 144.55 155.84 Z M 143.72 156.79 L 143.32 157.32 C 142.77 158.07 142.93 159.12 143.68 159.67 C 144.43 160.22 145.48 160.06 146.03 159.32 L 146.42 158.78 C 146.97 158.03 146.81 156.98 146.07 156.43 C 145.32 155.88 144.27 156.04 143.72 156.79 Z M 144.16 159.93 L 144.42 160.02 C 145.32 160.30 146.27 159.81 146.55 158.91 C 146.83 158.02 146.34 157.07 145.45 156.79 L 145.19 156.71 C 144.29 156.42 143.34 156.92 143.06 157.81 C 142.78 158.70 143.27 159.65 144.16 159.93 Z M 145.72 159.91 L 146.72 159.39 C 147.55 158.95 147.87 157.93 147.44 157.10 C 147.00 156.27 145.98 155.94 145.15 156.38 L 144.15 156.90 C 143.32 157.33 143.00 158.36 143.43 159.19 C 143.86 160.02 144.89 160.34 145.72 159.91 Z M 146.86 159.30 L 147.85 158.66 C 148.63 158.15 148.86 157.10 148.34 156.31 C 147.83 155.53 146.78 155.30 146.00 155.82 L 145.01 156.46 C 144.22 156.97 144.00 158.02 144.51 158.81 C 145.02 159.59 146.07 159.82 146.86 159.30 Z M 147.92 158.61 L 148.69 158.05 C 149.45 157.50 149.62 156.44 149.07 155.69 C 148.52 154.93 147.46 154.76 146.70 155.30 L 145.93 155.86 C 145.17 156.41 145.00 157.47 145.55 158.23 C 146.10 158.99 147.16 159.16 147.92 158.61 Z M 148.73 158.02 L 149.53 157.40 C 150.27 156.83 150.40 155.77 149.83 155.03 C 149.26 154.29 148.20 154.15 147.46 154.72 L 146.66 155.34 C 145.92 155.91 145.79 156.97 146.36 157.71 C 146.93 158.45 147.99 158.59 148.73 158.02 Z M 149.56 157.38 L 150.38 156.71 C 151.10 156.12 151.21 155.06 150.62 154.33 C 150.04 153.61 148.97 153.50 148.25 154.09 L 147.43 154.75 C 146.70 155.34 146.59 156.40 147.18 157.13 C 147.77 157.85 148.83 157.96 149.56 157.38 Z M 150.40 156.69 L 151.18 156.03 C 151.89 155.43 151.98 154.37 151.38 153.66 C 150.78 152.95 149.72 152.85 149.01 153.45 L 148.23 154.11 C 147.51 154.71 147.42 155.77 148.02 156.48 C 148.62 157.20 149.68 157.29 150.40 156.69 Z M 151.19 156.01 L 151.95 155.35 C 152.65 154.74 152.72 153.68 152.11 152.98 C 151.51 152.28 150.45 152.21 149.75 152.82 L 148.99 153.48 C 148.29 154.09 148.22 155.15 148.83 155.84 C 149.44 156.54 150.49 156.61 151.19 156.01 Z M 151.97 155.31 L 152.72 154.63 C 153.40 154.01 153.45 152.96 152.83 152.28 C 152.21 151.60 151.16 151.55 150.48 152.17 L 149.73 152.85 C 149.05 153.47 149.00 154.52 149.62 155.20 C 150.24 155.88 151.29 155.93 151.97 155.31 Z M 152.75 154.59 L 153.47 153.90 C 154.13 153.27 154.15 152.22 153.52 151.56 C 152.88 150.90 151.84 150.88 151.18 151.51 L 150.45 152.21 C 149.79 152.84 149.77 153.89 150.41 154.55 C 151.04 155.21 152.09 155.23 152.75 154.59 Z M 153.50 153.85 L 154.20 153.13 C 154.84 152.48 154.82 151.43 154.17 150.80 C 153.51 150.17 152.47 150.19 151.84 150.84 L 151.14 151.56 C 150.51 152.21 150.52 153.26 151.18 153.89 C 151.83 154.52 152.87 154.50 153.50 153.85 Z M 154.25 153.08 L 154.93 152.31 C 155.53 151.64 155.47 150.60 154.80 150.00 C 154.12 149.39 153.08 149.45 152.48 150.13 L 151.80 150.89 C 151.19 151.57 151.25 152.61 151.93 153.21 C 152.60 153.81 153.64 153.75 154.25 153.08 Z M 154.96 152.27 L 155.60 151.50 C 156.18 150.81 156.09 149.78 155.39 149.20 C 154.70 148.61 153.66 148.71 153.08 149.40 L 152.45 150.17 C 151.87 150.86 151.96 151.90 152.65 152.48 C 153.35 153.06 154.38 152.97 154.96 152.27 Z M 155.62 151.48 L 156.23 150.71 C 156.80 150.00 156.68 148.97 155.98 148.41 C 155.27 147.84 154.24 147.96 153.67 148.67 L 153.06 149.43 C 152.50 150.14 152.61 151.17 153.32 151.73 C 154.03 152.30 155.06 152.18 155.62 151.48 Z M 156.24 150.70 L 156.64 150.19 C 157.20 149.48 157.07 148.45 156.36 147.89 C 155.65 147.33 154.62 147.46 154.06 148.17 L 153.67 148.68 C 153.11 149.39 153.23 150.42 153.94 150.98 C 154.66 151.54 155.68 151.41 156.24 150.70 Z"
      fill="black"
      fill-rule="nonzero" /><path d="M 137.58 136.94 L 136.67 137.31 C 135.77 137.68 135.33 138.70 135.70 139.60 C 136.06 140.50 137.09 140.93 137.99 140.57 L 138.91 140.20 C 139.81 139.83 140.24 138.80 139.87 137.90 C 139.51 137.01 138.48 136.57 137.58 136.94 Z M 136.54 137.36 L 135.65 137.80 C 134.78 138.24 134.43 139.30 134.87 140.17 C 135.30 141.04 136.36 141.40 137.24 140.96 L 138.12 140.52 C 138.99 140.08 139.34 139.02 138.91 138.15 C 138.47 137.28 137.41 136.92 136.54 137.36 Z M 135.42 137.94 L 134.60 138.52 C 133.80 139.08 133.61 140.19 134.18 140.99 C 134.75 141.79 135.86 141.98 136.66 141.41 L 137.47 140.83 C 138.27 140.26 138.46 139.15 137.89 138.35 C 137.32 137.55 136.22 137.37 135.42 137.94 Z M 134.32 138.74 L 133.67 139.44 C 132.99 140.16 133.03 141.29 133.75 141.97 C 134.47 142.64 135.60 142.61 136.27 141.89 L 136.93 141.18 C 137.60 140.47 137.57 139.33 136.85 138.66 C 136.13 137.99 135.00 138.02 134.32 138.74 Z M 133.46 139.67 L 132.92 140.49 C 132.37 141.32 132.60 142.44 133.43 142.99 C 134.27 143.54 135.38 143.31 135.93 142.48 L 136.47 141.66 C 137.02 140.83 136.79 139.71 135.96 139.16 C 135.13 138.61 134.01 138.84 133.46 139.67 Z M 132.79 140.69 L 132.34 141.61 C 131.90 142.51 132.28 143.60 133.19 144.04 C 134.09 144.48 135.18 144.11 135.62 143.20 L 136.07 142.28 C 136.51 141.37 136.13 140.28 135.22 139.85 C 134.32 139.41 133.23 139.78 132.79 140.69 Z M 132.25 141.79 L 131.90 142.77 C 131.56 143.73 132.07 144.78 133.02 145.12 C 133.98 145.46 135.03 144.95 135.37 143.99 L 135.72 143.02 C 136.06 142.06 135.55 141.01 134.59 140.67 C 133.64 140.33 132.58 140.83 132.25 141.79 Z M 131.84 142.95 L 131.60 143.94 C 131.36 144.94 131.97 145.94 132.96 146.18 C 133.96 146.42 134.96 145.81 135.20 144.81 L 135.44 143.81 C 135.68 142.82 135.06 141.82 134.07 141.58 C 133.08 141.34 132.07 141.95 131.84 142.95 Z M 131.56 144.10 L 131.41 145.10 C 131.26 146.11 131.96 147.06 132.97 147.21 C 133.98 147.36 134.93 146.67 135.08 145.65 L 135.23 144.66 C 135.38 143.64 134.69 142.70 133.67 142.54 C 132.66 142.39 131.72 143.09 131.56 144.10 Z M 131.40 145.21 L 131.31 146.20 C 131.22 147.22 131.98 148.12 133.00 148.21 C 134.02 148.30 134.92 147.55 135.01 146.53 L 135.10 145.54 C 135.18 144.52 134.43 143.62 133.41 143.53 C 132.39 143.44 131.49 144.19 131.40 145.21 Z M 131.30 146.28 L 131.26 147.25 C 131.21 148.27 132.00 149.14 133.03 149.19 C 134.05 149.24 134.92 148.45 134.97 147.42 L 135.02 146.45 C 135.06 145.43 134.27 144.56 133.25 144.51 C 132.22 144.46 131.35 145.25 131.30 146.28 Z M 131.26 147.29 L 131.23 148.26 C 131.20 149.29 132.01 150.14 133.04 150.17 C 134.07 150.20 134.92 149.39 134.95 148.36 L 134.97 147.39 C 135.00 146.36 134.19 145.51 133.16 145.48 C 132.14 145.45 131.28 146.26 131.26 147.29 Z M 131.23 148.29 L 131.22 149.27 C 131.21 150.30 132.03 151.14 133.05 151.15 C 134.08 151.16 134.92 150.34 134.93 149.32 L 134.95 148.34 C 134.96 147.31 134.14 146.47 133.11 146.46 C 132.08 146.44 131.24 147.27 131.23 148.29 Z M 131.22 149.29 L 131.21 150.30 C 131.21 151.32 132.04 152.16 133.07 152.16 C 134.09 152.16 134.93 151.34 134.93 150.31 L 134.93 149.30 C 134.94 148.27 134.11 147.44 133.08 147.43 C 132.06 147.43 131.22 148.26 131.22 149.29 Z M 131.21 150.30 L 131.21 151.30 C 131.21 152.32 132.05 153.16 133.07 153.16 C 134.10 153.16 134.93 152.33 134.93 151.30 L 134.93 150.30 C 134.93 149.28 134.10 148.45 133.07 148.45 C 132.05 148.45 131.22 149.28 131.21 150.30 Z M 131.22 151.30 L 131.22 152.24 C 131.22 153.26 132.05 154.09 133.08 154.09 C 134.10 154.09 134.93 153.26 134.93 152.23 L 134.93 151.30 C 134.93 150.27 134.10 149.44 133.07 149.44 C 132.04 149.44 131.21 150.28 131.22 151.30 Z M 131.22 152.25 L 131.22 153.23 C 131.23 154.26 132.06 155.08 133.09 155.08 C 134.12 155.07 134.94 154.24 134.94 153.21 L 134.93 152.23 C 134.93 151.20 134.09 150.37 133.06 150.38 C 132.04 150.38 131.21 151.22 131.22 152.25 Z M 131.22 153.24 L 131.24 154.28 C 131.25 155.30 132.09 156.12 133.11 156.11 C 134.14 156.10 134.96 155.26 134.95 154.23 L 134.94 153.20 C 134.92 152.17 134.08 151.35 133.06 151.37 C 132.03 151.38 131.21 152.22 131.22 153.24 Z M 131.24 154.29 L 131.26 155.37 C 131.28 156.39 132.13 157.21 133.15 157.18 C 134.18 157.16 134.99 156.31 134.97 155.29 L 134.95 154.22 C 134.93 153.19 134.08 152.38 133.05 152.40 C 132.03 152.42 131.22 153.27 131.24 154.29 Z M 131.26 155.39 L 131.29 156.43 C 131.33 157.45 132.18 158.25 133.21 158.22 C 134.23 158.19 135.03 157.33 135.00 156.31 L 134.97 155.27 C 134.94 154.25 134.08 153.44 133.06 153.48 C 132.03 153.51 131.23 154.36 131.26 155.39 Z M 131.29 156.44 L 131.34 157.49 C 131.38 158.51 132.24 159.30 133.27 159.26 C 134.29 159.22 135.08 158.36 135.04 157.33 L 135.00 156.29 C 134.96 155.27 134.09 154.47 133.07 154.51 C 132.05 154.56 131.25 155.42 131.29 156.44 Z M 131.34 157.50 L 131.39 158.53 C 131.44 159.55 132.31 160.34 133.34 160.28 C 134.36 160.23 135.15 159.36 135.09 158.34 L 135.04 157.32 C 134.99 156.29 134.12 155.51 133.10 155.56 C 132.07 155.61 131.29 156.48 131.34 157.50 Z M 131.39 158.55 L 131.45 159.52 C 131.51 160.55 132.39 161.32 133.41 161.26 C 134.44 161.20 135.21 160.32 135.15 159.30 L 135.09 158.32 C 135.03 157.30 134.15 156.52 133.13 156.58 C 132.11 156.65 131.33 157.52 131.39 158.55 Z M 131.45 159.55 L 131.52 160.49 C 131.60 161.51 132.49 162.28 133.51 162.20 C 134.53 162.13 135.30 161.24 135.22 160.22 L 135.15 159.27 C 135.07 158.25 134.19 157.49 133.16 157.56 C 132.14 157.64 131.38 158.53 131.45 159.55 Z M 131.53 160.52 L 131.63 161.63 C 131.72 162.64 132.63 163.39 133.64 163.30 C 134.66 163.20 135.41 162.30 135.32 161.28 L 135.22 160.18 C 135.12 159.16 134.22 158.41 133.20 158.51 C 132.18 158.60 131.43 159.51 131.53 160.52 Z M 131.63 161.67 L 131.75 162.64 C 131.87 163.66 132.78 164.39 133.80 164.27 C 134.82 164.15 135.54 163.23 135.43 162.22 L 135.31 161.24 C 135.19 160.23 134.28 159.50 133.26 159.62 C 132.25 159.73 131.52 160.65 131.63 161.67 Z M 131.75 162.68 L 131.88 163.59 C 132.02 164.61 132.95 165.31 133.96 165.18 C 134.97 165.04 135.68 164.11 135.54 163.09 L 135.42 162.18 C 135.28 161.17 134.35 160.46 133.34 160.60 C 132.32 160.74 131.62 161.67 131.75 162.68 Z M 131.88 163.62 L 132.02 164.56 C 132.18 165.56 133.12 166.26 134.13 166.11 C 135.14 165.96 135.83 165.02 135.68 164.01 L 135.54 163.07 C 135.39 162.06 134.45 161.36 133.44 161.52 C 132.43 161.67 131.73 162.61 131.88 163.62 Z M 132.02 164.56 L 132.18 165.54 C 132.33 166.55 133.28 167.24 134.29 167.08 C 135.30 166.93 135.99 165.98 135.83 164.97 L 135.68 164.00 C 135.52 162.99 134.58 162.30 133.57 162.45 C 132.56 162.61 131.87 163.55 132.02 164.56 Z M 132.17 165.53 L 132.33 166.53 C 132.48 167.54 133.42 168.24 134.43 168.08 C 135.44 167.93 136.14 166.99 135.98 165.98 L 135.83 164.98 C 135.68 163.97 134.74 163.27 133.73 163.43 C 132.72 163.58 132.02 164.52 132.17 165.53 Z M 132.32 166.51 L 132.46 167.48 C 132.60 168.49 133.53 169.19 134.54 169.05 C 135.56 168.91 136.26 167.98 136.12 166.96 L 135.99 166.00 C 135.85 164.99 134.91 164.28 133.90 164.42 C 132.89 164.56 132.18 165.50 132.32 166.51 Z M 132.45 167.46 L 132.57 168.36 C 132.70 169.37 133.63 170.08 134.65 169.95 C 135.66 169.82 136.37 168.89 136.24 167.88 L 136.13 166.98 C 135.99 165.96 135.06 165.25 134.05 165.38 C 133.03 165.52 132.32 166.44 132.45 167.46 Z M 132.57 168.36 L 132.70 169.33 C 132.83 170.34 133.77 171.06 134.78 170.92 C 135.80 170.78 136.51 169.85 136.37 168.83 L 136.24 167.87 C 136.11 166.85 135.17 166.14 134.16 166.28 C 133.14 166.41 132.43 167.35 132.57 168.36 Z M 132.70 169.35 L 132.85 170.41 C 133.00 171.43 133.95 172.13 134.96 171.98 C 135.98 171.83 136.68 170.89 136.53 169.87 L 136.37 168.81 C 136.22 167.79 135.28 167.09 134.26 167.24 C 133.25 167.39 132.55 168.34 132.70 169.35 Z M 132.86 170.45 L 133.03 171.48 C 133.20 172.50 134.16 173.18 135.17 173.01 C 136.19 172.84 136.87 171.89 136.70 170.87 L 136.53 169.84 C 136.36 168.82 135.40 168.14 134.39 168.31 C 133.37 168.48 132.69 169.43 132.86 170.45 Z M 133.03 171.51 L 133.20 172.44 C 133.39 173.45 134.36 174.12 135.37 173.94 C 136.39 173.75 137.06 172.78 136.87 171.77 L 136.70 170.84 C 136.51 169.83 135.54 169.16 134.53 169.34 C 133.52 169.53 132.84 170.50 133.03 171.51 Z M 133.20 172.47 L 133.40 173.44 C 133.60 174.46 134.58 175.11 135.59 174.91 C 136.60 174.71 137.26 173.73 137.06 172.72 L 136.87 171.74 C 136.67 170.73 135.68 170.07 134.67 170.27 C 133.66 170.47 133.00 171.46 133.20 172.47 Z M 133.40 173.47 L 133.61 174.48 C 133.83 175.49 134.82 176.13 135.83 175.92 C 136.84 175.70 137.49 174.71 137.27 173.70 L 137.06 172.69 C 136.84 171.68 135.85 171.03 134.84 171.25 C 133.83 171.46 133.18 172.46 133.40 173.47 Z M 133.62 174.50 L 133.85 175.52 C 134.08 176.53 135.08 177.16 136.09 176.93 C 137.10 176.70 137.73 175.69 137.50 174.68 L 137.27 173.67 C 137.04 172.66 136.03 172.03 135.02 172.26 C 134.02 172.49 133.38 173.49 133.62 174.50 Z M 133.85 175.55 L 134.10 176.56 C 134.35 177.57 135.37 178.18 136.37 177.94 C 137.38 177.69 138.00 176.67 137.75 175.66 L 137.50 174.65 C 137.25 173.65 136.23 173.03 135.23 173.28 C 134.22 173.53 133.60 174.54 133.85 175.55 Z M 134.11 176.60 L 134.37 177.61 C 134.64 178.61 135.67 179.21 136.68 178.94 C 137.68 178.67 138.28 177.64 138.01 176.63 L 137.74 175.63 C 137.48 174.62 136.44 174.02 135.44 174.29 C 134.43 174.56 133.84 175.59 134.11 176.60 Z M 134.38 177.64 L 134.66 178.63 C 134.95 179.63 136.00 180.20 137.00 179.91 C 138.00 179.62 138.58 178.58 138.29 177.58 L 138.01 176.60 C 137.72 175.59 136.67 175.02 135.67 175.31 C 134.67 175.60 134.09 176.64 134.38 177.64 Z M 134.67 178.67 L 134.97 179.62 C 135.29 180.62 136.35 181.17 137.34 180.86 C 138.34 180.55 138.89 179.49 138.58 178.49 L 138.28 177.54 C 137.97 176.54 136.91 175.98 135.91 176.30 C 134.91 176.61 134.36 177.67 134.67 178.67 Z M 134.98 179.67 L 135.30 180.60 C 135.64 181.59 136.71 182.12 137.70 181.78 C 138.69 181.44 139.22 180.37 138.89 179.38 L 138.57 178.45 C 138.23 177.46 137.16 176.93 136.17 177.26 C 135.18 177.60 134.65 178.68 134.98 179.67 Z M 135.31 180.64 L 135.65 181.55 C 136.01 182.53 137.10 183.04 138.09 182.67 C 139.07 182.31 139.57 181.22 139.21 180.23 L 138.88 179.33 C 138.51 178.35 137.42 177.84 136.44 178.21 C 135.45 178.57 134.95 179.66 135.31 180.64 Z M 135.66 181.60 L 136.05 182.56 C 136.44 183.54 137.55 184.01 138.52 183.62 C 139.50 183.23 139.97 182.12 139.58 181.14 L 139.19 180.18 C 138.80 179.21 137.69 178.73 136.72 179.13 C 135.74 179.52 135.27 180.63 135.66 181.60 Z M 136.07 182.63 L 136.50 183.58 C 136.92 184.55 138.05 184.98 139.01 184.55 C 139.97 184.13 140.41 183.00 139.98 182.04 L 139.56 181.08 C 139.13 180.12 138.00 179.68 137.04 180.11 C 136.08 180.54 135.64 181.66 136.07 182.63 Z M 136.53 183.66 L 136.98 184.57 C 137.45 185.51 138.60 185.90 139.54 185.43 C 140.49 184.96 140.87 183.81 140.40 182.87 L 139.95 181.96 C 139.48 181.01 138.33 180.63 137.39 181.10 C 136.44 181.57 136.06 182.72 136.53 183.66 Z M 137.03 184.66 L 137.51 185.51 C 138.03 186.43 139.20 186.75 140.12 186.23 C 141.04 185.70 141.36 184.53 140.83 183.61 L 140.36 182.77 C 139.83 181.85 138.66 181.53 137.74 182.05 C 136.82 182.58 136.50 183.75 137.03 184.66 Z M 137.57 185.62 L 138.08 186.39 C 138.67 187.27 139.86 187.51 140.74 186.92 C 141.62 186.34 141.86 185.15 141.28 184.26 L 140.77 183.50 C 140.18 182.62 138.99 182.38 138.11 182.96 C 137.23 183.55 136.99 184.74 137.57 185.62 Z M 138.18 186.54 L 138.85 187.36 C 139.52 188.19 140.73 188.32 141.56 187.65 C 142.39 186.98 142.51 185.77 141.84 184.94 L 141.17 184.11 C 140.50 183.29 139.29 183.16 138.47 183.83 C 137.64 184.50 137.51 185.71 138.18 186.54 Z M 139.00 187.53 L 139.71 188.24 C 140.47 188.98 141.70 188.97 142.45 188.21 C 143.19 187.45 143.18 186.22 142.42 185.48 L 141.70 184.77 C 140.94 184.03 139.72 184.04 138.97 184.80 C 138.22 185.56 138.23 186.78 139.00 187.53 Z M 139.87 188.39 L 140.64 188.98 C 141.48 189.64 142.70 189.49 143.36 188.64 C 144.02 187.79 143.87 186.58 143.02 185.92 L 142.26 185.32 C 141.41 184.67 140.19 184.82 139.53 185.66 C 138.88 186.51 139.03 187.73 139.87 188.39 Z M 140.81 189.11 L 141.62 189.61 C 142.54 190.17 143.74 189.89 144.30 188.97 C 144.86 188.05 144.58 186.85 143.66 186.29 L 142.85 185.79 C 141.93 185.23 140.73 185.51 140.17 186.43 C 139.61 187.34 139.89 188.54 140.81 189.11 Z M 141.79 189.71 L 142.66 190.13 C 143.63 190.60 144.80 190.19 145.27 189.22 C 145.74 188.25 145.33 187.08 144.36 186.61 L 143.49 186.19 C 142.52 185.72 141.35 186.13 140.88 187.10 C 140.41 188.07 140.82 189.24 141.79 189.71 Z M 142.83 190.21 L 143.75 190.55 C 144.77 190.93 145.90 190.41 146.28 189.39 C 146.65 188.37 146.13 187.24 145.11 186.87 L 144.19 186.53 C 143.17 186.15 142.04 186.67 141.67 187.69 C 141.29 188.71 141.81 189.84 142.83 190.21 Z M 143.92 190.61 L 144.91 190.88 C 145.96 191.16 147.04 190.54 147.33 189.49 C 147.61 188.44 146.99 187.35 145.94 187.07 L 144.95 186.80 C 143.89 186.52 142.81 187.14 142.53 188.20 C 142.25 189.25 142.87 190.33 143.92 190.61 Z M 145.05 190.92 L 146.03 191.11 C 147.10 191.31 148.14 190.60 148.34 189.53 C 148.55 188.45 147.84 187.42 146.77 187.21 L 145.79 187.03 C 144.72 186.83 143.68 187.53 143.48 188.61 C 143.27 189.68 143.98 190.72 145.05 190.92 Z M 146.14 191.13 L 147.08 191.25 C 148.17 191.40 149.16 190.63 149.31 189.54 C 149.45 188.45 148.68 187.45 147.59 187.31 L 146.65 187.19 C 145.57 187.05 144.57 187.81 144.43 188.90 C 144.28 189.99 145.05 190.99 146.14 191.13 Z M 147.16 191.27 L 148.14 191.36 C 149.24 191.45 150.21 190.64 150.31 189.54 C 150.41 188.44 149.59 187.48 148.49 187.38 L 147.51 187.29 C 146.41 187.20 145.44 188.01 145.34 189.11 C 145.25 190.21 146.06 191.18 147.16 191.27 Z M 148.21 191.37 L 149.24 191.43 C 150.34 191.49 151.29 190.65 151.35 189.54 C 151.41 188.43 150.57 187.49 149.46 187.42 L 148.43 187.37 C 147.33 187.30 146.38 188.15 146.32 189.25 C 146.25 190.36 147.10 191.31 148.21 191.37 Z M 149.28 191.44 L 150.35 191.48 C 151.46 191.52 152.40 190.65 152.44 189.54 C 152.47 188.42 151.60 187.49 150.49 187.45 L 149.42 187.41 C 148.31 187.37 147.38 188.24 147.34 189.36 C 147.30 190.47 148.17 191.40 149.28 191.44 Z M 150.38 191.49 L 151.41 191.51 C 152.53 191.53 153.45 190.64 153.47 189.53 C 153.50 188.41 152.61 187.49 151.50 187.47 L 150.46 187.44 C 149.35 187.42 148.42 188.31 148.40 189.42 C 148.38 190.54 149.26 191.46 150.38 191.49 Z M 151.44 191.51 L 152.48 191.52 C 153.60 191.53 154.51 190.62 154.52 189.51 C 154.53 188.39 153.62 187.47 152.51 187.47 L 151.47 187.46 C 150.35 187.45 149.43 188.35 149.43 189.47 C 149.42 190.59 150.32 191.51 151.44 191.51 Z M 152.52 191.52 L 153.54 191.51 C 154.66 191.50 155.56 190.58 155.55 189.46 C 155.53 188.34 154.61 187.44 153.49 187.45 L 152.47 187.46 C 151.35 187.47 150.45 188.39 150.46 189.52 C 150.47 190.64 151.39 191.54 152.52 191.52 Z M 153.58 191.52 L 154.56 191.48 C 155.69 191.44 156.57 190.50 156.53 189.38 C 156.49 188.25 155.55 187.37 154.42 187.41 L 153.44 187.45 C 152.32 187.48 151.44 188.43 151.48 189.55 C 151.52 190.68 152.46 191.56 153.58 191.52 Z M 154.63 191.48 L 155.58 191.42 C 156.70 191.35 157.56 190.37 157.48 189.25 C 157.41 188.12 156.43 187.27 155.31 187.35 L 154.36 187.41 C 153.23 187.48 152.38 188.46 152.46 189.58 C 152.53 190.71 153.50 191.56 154.63 191.48 Z M 155.67 191.42 L 156.74 191.30 C 157.86 191.17 158.67 190.16 158.54 189.04 C 158.42 187.91 157.40 187.11 156.28 187.23 L 155.22 187.35 C 154.09 187.48 153.29 188.49 153.41 189.61 C 153.54 190.73 154.55 191.54 155.67 191.42 Z M 156.84 191.29 L 157.81 191.13 C 158.92 190.95 159.68 189.90 159.50 188.78 C 159.32 187.67 158.27 186.91 157.15 187.09 L 156.18 187.24 C 155.07 187.42 154.31 188.47 154.49 189.59 C 154.67 190.71 155.72 191.47 156.84 191.29 Z M 157.88 191.12 L 158.80 190.94 C 159.91 190.72 160.64 189.64 160.42 188.53 C 160.20 187.42 159.12 186.70 158.01 186.91 L 157.08 187.10 C 155.97 187.32 155.25 188.39 155.47 189.50 C 155.69 190.61 156.76 191.34 157.88 191.12 Z M 158.83 190.93 L 159.76 190.74 C 160.87 190.50 161.57 189.41 161.34 188.31 C 161.11 187.20 160.02 186.49 158.91 186.72 L 157.98 186.92 C 156.88 187.15 156.17 188.24 156.40 189.35 C 156.64 190.46 157.72 191.17 158.83 190.93 Z M 159.76 190.74 L 160.71 190.53 C 161.82 190.29 162.53 189.20 162.29 188.10 C 162.05 186.99 160.96 186.28 159.85 186.52 L 158.90 186.72 C 157.80 186.96 157.09 188.05 157.33 189.16 C 157.57 190.27 158.66 190.97 159.76 190.74 Z M 160.72 190.53 L 161.70 190.31 C 162.81 190.07 163.51 188.97 163.27 187.87 C 163.02 186.76 161.93 186.06 160.82 186.31 L 159.84 186.52 C 158.73 186.77 158.03 187.86 158.28 188.97 C 158.52 190.08 159.62 190.77 160.72 190.53 Z M 161.72 190.31 L 162.73 190.08 C 163.84 189.83 164.53 188.73 164.28 187.62 C 164.02 186.51 162.92 185.82 161.82 186.08 L 160.80 186.31 C 159.70 186.56 159.01 187.66 159.26 188.77 C 159.51 189.87 160.62 190.56 161.72 190.31 Z M 162.75 190.08 L 163.70 189.85 C 164.80 189.59 165.48 188.48 165.22 187.38 C 164.95 186.27 163.85 185.59 162.74 185.85 L 161.80 186.08 C 160.69 186.34 160.01 187.45 160.28 188.56 C 160.54 189.66 161.65 190.34 162.75 190.08 Z M 163.71 189.85 L 164.64 189.62 C 165.74 189.35 166.42 188.24 166.15 187.14 C 165.88 186.03 164.76 185.36 163.66 185.63 L 162.73 185.86 C 161.63 186.13 160.95 187.24 161.22 188.34 C 161.49 189.44 162.61 190.12 163.71 189.85 Z M 164.64 189.62 L 165.61 189.38 C 166.71 189.11 167.38 188.00 167.11 186.90 C 166.84 185.80 165.73 185.12 164.63 185.39 L 163.66 185.63 C 162.56 185.90 161.89 187.01 162.16 188.11 C 162.43 189.22 163.54 189.89 164.64 189.62 Z M 165.60 189.39 L 166.61 189.14 C 167.71 188.88 168.39 187.77 168.13 186.67 C 167.86 185.56 166.75 184.88 165.65 185.15 L 164.64 185.39 C 163.54 185.65 162.86 186.76 163.12 187.87 C 163.38 188.97 164.49 189.65 165.60 189.39 Z M 166.59 189.15 L 167.60 188.92 C 168.70 188.66 169.39 187.56 169.14 186.45 C 168.88 185.35 167.78 184.66 166.67 184.91 L 165.67 185.14 C 164.56 185.40 163.87 186.50 164.13 187.61 C 164.38 188.71 165.48 189.40 166.59 189.15 Z M 167.58 188.92 L 168.53 188.71 C 169.64 188.47 170.34 187.37 170.10 186.26 C 169.85 185.15 168.75 184.45 167.65 184.70 L 166.69 184.91 C 165.58 185.15 164.88 186.25 165.13 187.36 C 165.37 188.46 166.47 189.16 167.58 188.92 Z M 168.52 188.71 L 169.50 188.50 C 170.61 188.27 171.31 187.18 171.08 186.07 C 170.84 184.96 169.75 184.25 168.64 184.48 L 167.66 184.69 C 166.55 184.93 165.84 186.02 166.08 187.13 C 166.32 188.24 167.41 188.95 168.52 188.71 Z M 169.49 188.51 L 170.48 188.30 C 171.59 188.07 172.30 186.98 172.07 185.87 C 171.84 184.76 170.76 184.04 169.64 184.28 L 168.65 184.48 C 167.54 184.71 166.82 185.80 167.06 186.91 C 167.29 188.02 168.37 188.74 169.49 188.51 Z M 170.47 188.30 L 171.47 188.10 C 172.58 187.87 173.30 186.79 173.07 185.68 C 172.85 184.56 171.76 183.84 170.65 184.07 L 169.65 184.27 C 168.54 184.50 167.82 185.59 168.05 186.70 C 168.27 187.81 169.36 188.53 170.47 188.30 Z M 171.46 188.10 L 172.46 187.90 C 173.57 187.68 174.29 186.59 174.07 185.48 C 173.85 184.37 172.76 183.65 171.65 183.87 L 170.66 184.07 C 169.54 184.29 168.82 185.38 169.04 186.49 C 169.27 187.60 170.35 188.32 171.46 188.10 Z M 172.46 187.90 L 173.45 187.70 C 174.56 187.48 175.28 186.40 175.06 185.29 C 174.84 184.17 173.76 183.45 172.65 183.67 L 171.65 183.87 C 170.54 184.09 169.82 185.17 170.04 186.29 C 170.26 187.40 171.34 188.12 172.46 187.90 Z M 173.45 187.70 L 174.43 187.50 C 175.55 187.28 176.27 186.20 176.04 185.09 C 175.82 183.97 174.74 183.25 173.63 183.48 L 172.64 183.67 C 171.53 183.90 170.81 184.98 171.04 186.09 C 171.26 187.20 172.34 187.92 173.45 187.70 Z M 174.44 187.50 L 175.42 187.30 C 176.53 187.07 177.24 185.99 177.02 184.88 C 176.79 183.77 175.70 183.05 174.59 183.28 L 173.62 183.48 C 172.51 183.71 171.79 184.79 172.02 185.90 C 172.25 187.01 173.33 187.73 174.44 187.50 Z M 175.43 187.30 L 176.40 187.09 C 177.51 186.86 178.21 185.77 177.98 184.66 C 177.75 183.55 176.66 182.84 175.55 183.08 L 174.58 183.28 C 173.47 183.52 172.76 184.61 173.00 185.72 C 173.23 186.82 174.32 187.53 175.43 187.30 Z M 176.42 187.09 L 177.38 186.87 C 178.49 186.63 179.19 185.54 178.94 184.43 C 178.70 183.32 177.61 182.63 176.50 182.87 L 175.53 183.08 C 174.42 183.33 173.73 184.42 173.97 185.53 C 174.21 186.63 175.31 187.33 176.42 187.09 Z M 177.40 186.87 L 178.38 186.64 C 179.48 186.39 180.17 185.29 179.91 184.19 C 179.66 183.08 178.56 182.40 177.45 182.65 L 176.48 182.87 C 175.38 183.13 174.69 184.23 174.94 185.33 C 175.20 186.44 176.30 187.12 177.40 186.87 Z M 178.39 186.64 L 179.36 186.41 C 180.46 186.15 181.14 185.04 180.88 183.94 C 180.62 182.84 179.52 182.16 178.42 182.42 L 177.44 182.65 C 176.34 182.92 175.66 184.02 175.92 185.12 C 176.18 186.22 177.29 186.90 178.39 186.64 Z M 179.37 186.41 L 180.34 186.17 C 181.44 185.91 182.12 184.80 181.85 183.70 C 181.59 182.60 180.48 181.93 179.38 182.19 L 178.41 182.43 C 177.31 182.69 176.63 183.80 176.90 184.89 C 177.16 185.99 178.27 186.67 179.37 186.41 Z M 180.34 186.17 L 181.31 185.94 C 182.41 185.67 183.09 184.57 182.82 183.47 C 182.56 182.37 181.46 181.70 180.36 181.96 L 179.38 182.19 C 178.29 182.46 177.61 183.56 177.87 184.66 C 178.14 185.76 179.24 186.43 180.34 186.17 Z M 181.30 185.94 L 182.29 185.71 C 183.39 185.45 184.07 184.35 183.81 183.25 C 183.55 182.15 182.45 181.47 181.35 181.73 L 180.36 181.96 C 179.27 182.22 178.59 183.32 178.85 184.42 C 179.11 185.52 180.21 186.20 181.30 185.94 Z M 182.28 185.71 L 183.27 185.48 C 184.37 185.22 185.05 184.12 184.80 183.03 C 184.54 181.93 183.44 181.24 182.35 181.50 L 181.36 181.73 C 180.26 181.98 179.57 183.08 179.83 184.18 C 180.08 185.28 181.18 185.96 182.28 185.71 Z M 183.26 185.48 L 184.25 185.25 C 185.34 185.00 186.03 183.90 185.78 182.81 C 185.53 181.71 184.43 181.02 183.33 181.27 L 182.35 181.50 C 181.25 181.75 180.57 182.84 180.82 183.94 C 181.07 185.04 182.16 185.73 183.26 185.48 Z M 184.25 185.25 L 185.22 185.03 C 186.31 184.77 187.00 183.68 186.75 182.58 C 186.50 181.49 185.40 180.80 184.31 181.05 L 183.33 181.27 C 182.24 181.53 181.55 182.62 181.80 183.72 C 182.06 184.81 183.15 185.50 184.25 185.25 Z M 185.22 185.02 L 186.18 184.80 C 187.27 184.55 187.95 183.45 187.70 182.36 C 187.45 181.26 186.35 180.58 185.26 180.83 L 184.30 181.05 C 183.21 181.31 182.52 182.40 182.78 183.50 C 183.03 184.59 184.13 185.28 185.22 185.02 Z M 186.18 184.80 L 187.18 184.56 C 188.27 184.30 188.95 183.21 188.69 182.12 C 188.43 181.02 187.33 180.34 186.24 180.60 L 185.25 180.84 C 184.15 181.10 183.48 182.19 183.74 183.29 C 184.00 184.38 185.09 185.06 186.18 184.80 Z M 187.19 184.56 L 188.18 184.32 C 189.27 184.05 189.94 182.95 189.68 181.86 C 189.41 180.77 188.31 180.10 187.22 180.37 L 186.23 180.61 C 185.14 180.87 184.47 181.97 184.73 183.06 C 185.00 184.15 186.10 184.82 187.19 184.56 Z M 188.19 184.31 L 189.16 184.07 C 190.25 183.80 190.91 182.70 190.64 181.61 C 190.37 180.52 189.27 179.86 188.18 180.13 L 187.21 180.37 C 186.13 180.64 185.46 181.74 185.73 182.83 C 186.00 183.92 187.11 184.58 188.19 184.31 Z M 189.17 184.06 L 190.12 183.82 C 191.20 183.55 191.86 182.44 191.58 181.36 C 191.31 180.27 190.20 179.62 189.12 179.90 L 188.17 180.14 C 187.09 180.41 186.43 181.52 186.71 182.60 C 186.99 183.69 188.09 184.34 189.17 184.06 Z M 190.13 183.82 L 191.08 183.57 C 192.16 183.29 192.81 182.18 192.52 181.10 C 192.24 180.02 191.14 179.37 190.05 179.65 L 189.11 179.90 C 188.03 180.18 187.38 181.29 187.66 182.37 C 187.94 183.45 189.05 184.10 190.13 183.82 Z M 191.09 183.56 L 192.07 183.30 C 193.14 183.01 193.78 181.91 193.50 180.83 C 193.21 179.75 192.10 179.11 191.02 179.40 L 190.04 179.66 C 188.97 179.95 188.33 181.06 188.61 182.13 C 188.90 183.21 190.01 183.85 191.09 183.56 Z M 192.08 183.29 L 193.04 183.03 C 194.12 182.73 194.75 181.63 194.45 180.55 C 194.16 179.48 193.05 178.85 191.97 179.14 L 191.01 179.41 C 189.94 179.70 189.31 180.81 189.60 181.88 C 189.90 182.96 191.01 183.59 192.08 183.29 Z M 193.05 183.02 L 194.01 182.75 C 195.08 182.45 195.70 181.34 195.40 180.27 C 195.09 179.20 193.98 178.58 192.91 178.88 L 191.96 179.15 C 190.89 179.45 190.27 180.56 190.57 181.63 C 190.87 182.70 191.99 183.32 193.05 183.02 Z M 194.02 182.74 L 194.97 182.47 C 196.03 182.16 196.64 181.05 196.33 179.98 C 196.02 178.92 194.91 178.31 193.84 178.61 L 192.90 178.89 C 191.84 179.20 191.22 180.31 191.53 181.38 C 191.84 182.44 192.96 183.05 194.02 182.74 Z M 194.98 182.46 L 195.92 182.18 C 196.97 181.86 197.57 180.74 197.25 179.68 C 196.93 178.62 195.82 178.03 194.76 178.35 L 193.83 178.63 C 192.77 178.95 192.17 180.06 192.49 181.12 C 192.81 182.18 193.93 182.78 194.98 182.46 Z M 195.95 182.16 L 196.89 181.85 C 197.94 181.52 198.51 180.39 198.17 179.35 C 197.83 178.30 196.71 177.72 195.66 178.06 L 194.72 178.36 C 193.68 178.70 193.10 179.82 193.44 180.87 C 193.78 181.92 194.90 182.49 195.95 182.16 Z M 196.94 181.83 L 197.89 181.49 C 198.92 181.13 199.46 179.99 199.10 178.96 C 198.73 177.93 197.60 177.38 196.57 177.75 L 195.62 178.09 C 194.58 178.45 194.04 179.58 194.40 180.62 C 194.77 181.65 195.90 182.19 196.94 181.83 Z M 197.95 181.46 L 198.91 181.09 C 199.93 180.69 200.43 179.54 200.03 178.52 C 199.64 177.51 198.49 177.00 197.47 177.40 L 196.51 177.78 C 195.49 178.18 194.99 179.33 195.39 180.34 C 195.78 181.36 196.93 181.86 197.95 181.46 Z M 198.98 181.05 L 199.91 180.65 C 200.91 180.21 201.36 179.05 200.93 178.05 C 200.49 177.06 199.33 176.60 198.33 177.03 L 197.41 177.44 C 196.41 177.87 195.95 179.03 196.39 180.03 C 196.82 181.03 197.98 181.48 198.98 181.05 Z M 199.97 180.61 L 200.90 180.16 C 201.87 179.69 202.28 178.52 201.81 177.54 C 201.34 176.57 200.17 176.16 199.19 176.63 L 198.27 177.07 C 197.29 177.54 196.88 178.71 197.35 179.69 C 197.82 180.67 199.00 181.08 199.97 180.61 Z M 200.97 180.12 L 201.86 179.64 C 202.81 179.14 203.17 177.95 202.66 177.00 C 202.15 176.05 200.97 175.69 200.01 176.19 L 199.12 176.67 C 198.17 177.18 197.81 178.36 198.32 179.32 C 198.83 180.27 200.01 180.63 200.97 180.12 Z M 201.94 179.59 L 202.77 179.09 C 203.69 178.54 203.99 177.34 203.44 176.42 C 202.89 175.49 201.69 175.19 200.77 175.75 L 199.93 176.25 C 199.01 176.80 198.71 178.00 199.26 178.92 C 199.82 179.84 201.01 180.14 201.94 179.59 Z M 202.87 179.01 L 203.73 178.41 C 204.61 177.80 204.83 176.60 204.22 175.72 C 203.61 174.84 202.41 174.62 201.53 175.23 L 200.67 175.83 C 199.79 176.44 199.57 177.64 200.18 178.52 C 200.79 179.40 201.99 179.62 202.87 179.01 Z M 203.86 178.29 L 204.65 177.63 C 205.46 176.96 205.57 175.75 204.89 174.93 C 204.21 174.12 203.00 174.01 202.19 174.69 L 201.40 175.35 C 200.59 176.03 200.48 177.24 201.16 178.05 C 201.84 178.86 203.05 178.97 203.86 178.29 Z M 204.79 177.48 L 205.46 176.78 C 206.18 176.03 206.16 174.83 205.41 174.10 C 204.65 173.38 203.45 173.40 202.73 174.15 L 202.06 174.85 C 201.33 175.60 201.35 176.80 202.10 177.53 C 202.86 178.25 204.06 178.23 204.79 177.48 Z M 205.59 176.60 L 206.14 175.86 C 206.77 175.04 206.61 173.86 205.78 173.24 C 204.96 172.61 203.78 172.77 203.16 173.60 L 202.60 174.34 C 201.97 175.16 202.13 176.34 202.96 176.96 C 203.78 177.59 204.96 177.42 205.59 176.60 Z M 206.26 175.65 L 206.71 174.87 C 207.21 173.98 206.91 172.85 206.02 172.34 C 205.13 171.83 204.00 172.14 203.49 173.03 L 203.04 173.81 C 202.54 174.70 202.84 175.83 203.73 176.34 C 204.62 176.84 205.75 176.54 206.26 175.65 Z M 206.79 174.62 L 207.15 173.74 C 207.52 172.80 207.07 171.74 206.13 171.37 C 205.19 170.99 204.13 171.45 203.76 172.38 L 203.40 173.27 C 203.03 174.20 203.48 175.27 204.42 175.64 C 205.36 176.02 206.42 175.56 206.79 174.62 Z M 207.20 173.50 L 207.46 172.48 C 207.70 171.52 207.12 170.54 206.15 170.29 C 205.19 170.05 204.21 170.63 203.97 171.60 L 203.71 172.62 C 203.46 173.59 204.05 174.57 205.01 174.81 C 205.97 175.05 206.95 174.47 207.20 173.50 Z M 207.47 172.30 L 207.62 171.26 C 207.76 170.29 207.09 169.39 206.12 169.25 C 205.15 169.11 204.24 169.78 204.10 170.75 L 203.95 171.78 C 203.81 172.75 204.48 173.66 205.45 173.80 C 206.43 173.94 207.33 173.27 207.47 172.30 Z M 207.62 171.14 L 207.69 170.21 C 207.76 169.24 207.03 168.39 206.06 168.32 C 205.09 168.25 204.25 168.98 204.18 169.95 L 204.11 170.88 C 204.03 171.85 204.76 172.69 205.73 172.76 C 206.70 172.84 207.54 172.11 207.62 171.14 Z M 207.67 170.11 L 207.69 169.11 C 207.71 168.15 206.94 167.36 205.98 167.34 C 205.02 167.32 204.22 168.09 204.21 169.05 L 204.19 170.04 C 204.17 171.01 204.94 171.80 205.90 171.82 C 206.86 171.84 207.66 171.07 207.67 170.11 Z M 207.67 169.02 L 207.64 167.98 C 207.60 167.03 206.80 166.29 205.85 166.32 C 204.89 166.36 204.15 167.16 204.19 168.11 L 204.22 169.15 C 204.26 170.10 205.06 170.84 206.01 170.81 C 206.97 170.77 207.71 169.97 207.67 169.02 Z M 207.61 167.88 L 207.51 166.84 C 207.42 165.90 206.58 165.21 205.64 165.30 C 204.71 165.39 204.02 166.23 204.11 167.17 L 204.21 168.21 C 204.30 169.15 205.14 169.84 206.08 169.75 C 207.02 169.66 207.70 168.82 207.61 167.88 Z M 207.48 166.73 L 207.31 165.69 C 207.16 164.76 206.29 164.14 205.36 164.29 C 204.44 164.44 203.82 165.31 203.97 166.23 L 204.14 167.28 C 204.29 168.20 205.16 168.82 206.08 168.67 C 207.01 168.52 207.63 167.65 207.48 166.73 Z M 207.27 165.57 L 207.03 164.53 C 206.81 163.63 205.90 163.07 205.00 163.29 C 204.10 163.50 203.54 164.41 203.76 165.31 L 204.00 166.35 C 204.22 167.25 205.13 167.81 206.03 167.59 C 206.93 167.38 207.49 166.47 207.27 165.57 Z M 206.99 164.44 L 206.69 163.44 C 206.42 162.56 205.48 162.06 204.60 162.33 C 203.72 162.60 203.22 163.53 203.49 164.42 L 203.79 165.41 C 204.06 166.29 205.00 166.79 205.88 166.52 C 206.76 166.25 207.26 165.32 206.99 164.44 Z M 206.65 163.37 L 206.31 162.42 C 206.00 161.56 205.05 161.11 204.19 161.43 C 203.32 161.74 202.88 162.69 203.19 163.55 L 203.53 164.49 C 203.84 165.36 204.79 165.80 205.65 165.49 C 206.52 165.18 206.96 164.23 206.65 163.37 Z M 206.28 162.37 L 205.92 161.48 C 205.58 160.64 204.62 160.23 203.77 160.57 C 202.93 160.91 202.52 161.87 202.86 162.72 L 203.22 163.61 C 203.56 164.45 204.52 164.86 205.37 164.52 C 206.21 164.18 206.62 163.21 206.28 162.37 Z M 205.90 161.45 L 205.52 160.58 C 205.16 159.75 204.19 159.37 203.36 159.73 C 202.53 160.09 202.15 161.06 202.51 161.89 L 202.89 162.76 C 203.25 163.59 204.21 163.97 205.05 163.61 C 205.88 163.24 206.26 162.28 205.90 161.45 Z M 205.50 160.55 L 205.04 159.56 C 204.67 158.73 203.69 158.38 202.87 158.75 C 202.05 159.13 201.69 160.10 202.07 160.93 L 202.53 161.92 C 202.90 162.74 203.88 163.10 204.70 162.72 C 205.52 162.34 205.88 161.37 205.50 160.55 Z M 205.02 159.52 L 204.58 158.62 C 204.18 157.81 203.20 157.47 202.39 157.87 C 201.58 158.27 201.24 159.26 201.64 160.07 L 202.09 160.97 C 202.49 161.78 203.47 162.11 204.28 161.71 C 205.09 161.31 205.42 160.33 205.02 159.52 Z M 204.56 158.57 L 204.11 157.74 C 203.69 156.95 202.70 156.64 201.90 157.07 C 201.10 157.50 200.80 158.49 201.23 159.29 L 201.67 160.11 C 202.10 160.91 203.09 161.21 203.89 160.78 C 204.68 160.36 204.98 159.37 204.56 158.57 Z M 204.08 157.69 L 203.60 156.87 C 203.15 156.09 202.14 155.83 201.36 156.28 C 200.58 156.74 200.32 157.74 200.78 158.52 L 201.26 159.34 C 201.71 160.12 202.72 160.38 203.50 159.93 C 204.28 159.47 204.54 158.47 204.08 157.69 Z M 203.57 156.82 L 203.03 155.96 C 202.54 155.20 201.53 154.98 200.77 155.46 C 200.01 155.95 199.78 156.96 200.27 157.72 L 200.81 158.58 C 201.30 159.34 202.31 159.56 203.07 159.08 C 203.83 158.59 204.06 157.58 203.57 156.82 Z M 203.00 155.93 L 202.45 155.10 C 201.94 154.36 200.92 154.16 200.17 154.67 C 199.43 155.17 199.23 156.19 199.74 156.94 L 200.29 157.76 C 200.80 158.51 201.82 158.71 202.57 158.20 C 203.31 157.69 203.51 156.68 203.00 155.93 Z M 202.43 155.09 L 201.92 154.35 C 201.40 153.61 200.38 153.42 199.64 153.94 C 198.90 154.46 198.72 155.48 199.23 156.22 L 199.75 156.96 C 200.27 157.70 201.29 157.88 202.03 157.37 C 202.77 156.85 202.95 155.83 202.43 155.09 Z"
      fill="black"
      fill-rule="nonzero" /></svg>