<svg xmlns="http://www.w3.org/2000/svg" width="300" height="300" viewBox="0 0 300 300">
<path d="M 114.70 125.44 L 115.70 125.40 C 116.73 125.37 117.53 124.50 117.49 123.47 C 117.46 122.45 116.59 121.64 115.57 121.68 L 114.57 121.72 C 113.54 121.75 112.74 122.61 112.78 123.64 C 112.81 124.67 113.68 125.47 114.70 125.44 Z M 115.68 125.40 L 116.68 125.37 C 117.71 125.35 118.52 124.49 118.49 123.46 C 118.46 122.44 117.61 121.63 116.58 121.65 L 115.58 121.68 C 114.56 121.71 113.74 122.56 113.77 123.59 C 113.80 124.62 114.66 125.43 115.68 125.40 Z M 116.65 125.37 L 117.65 125.36 C 118.68 125.35 119.50 124.51 119.49 123.49 C 119.48 122.46 118.64 121.64 117.61 121.65 L 116.61 121.66 C 115.58 121.67 114.76 122.51 114.77 123.53 C 114.78 124.56 115.62 125.38 116.65 125.37 Z M 117.60 125.36 L 118.61 125.38 C 119.63 125.39 120.47 124.57 120.49 123.55 C 120.50 122.52 119.69 121.68 118.66 121.66 L 117.66 121.65 C 116.63 121.63 115.79 122.45 115.78 123.48 C 115.76 124.50 116.58 125.34 117.60 125.36 Z M 118.56 125.37 L 119.56 125.41 C 120.58 125.45 121.44 124.65 121.48 123.63 C 121.52 122.61 120.72 121.75 119.70 121.71 L 118.70 121.67 C 117.68 121.63 116.82 122.43 116.78 123.45 C 116.74 124.47 117.54 125.33 118.56 125.37 Z M 119.54 125.40 L 120.54 125.45 C 121.56 125.50 122.42 124.72 122.47 123.70 C 122.52 122.68 121.74 121.81 120.72 121.76 L 119.72 121.71 C 118.70 121.66 117.83 122.45 117.78 123.47 C 117.73 124.49 118.52 125.35 119.54 125.40 Z M 120.54 125.45 L 121.55 125.49 C 122.56 125.54 123.43 124.76 123.47 123.74 C 123.52 122.72 122.73 121.86 121.72 121.81 L 120.71 121.77 C 119.70 121.72 118.83 122.50 118.79 123.52 C 118.74 124.54 119.53 125.40 120.54 125.45 Z M 121.57 125.49 L 122.55 125.52 C 123.57 125.55 124.41 124.76 124.45 123.74 C 124.48 122.73 123.69 121.88 122.67 121.85 L 121.69 121.82 C 120.68 121.79 119.83 122.58 119.80 123.59 C 119.77 124.61 120.56 125.45 121.57 125.49 Z M 122.58 125.50 L 123.56 125.52 C 124.57 125.54 125.40 124.74 125.41 123.73 C 125.43 122.73 124.63 121.90 123.62 121.88 L 122.64 121.87 C 121.64 121.85 120.81 122.65 120.79 123.65 C 120.78 124.66 121.58 125.49 122.58 125.50 Z M 123.58 125.51 L 124.58 125.51 C 125.58 125.52 126.39 124.72 126.40 123.72 C 126.40 122.72 125.60 121.91 124.61 121.90 L 123.61 121.90 C 122.61 121.89 121.80 122.69 121.79 123.69 C 121.78 124.69 122.59 125.50 123.58 125.51 Z M 124.59 125.50 L 125.62 125.50 C 126.61 125.50 127.41 124.70 127.41 123.71 C 127.42 122.72 126.62 121.92 125.63 121.92 L 124.60 121.92 C 123.61 121.92 122.81 122.72 122.81 123.71 C 122.81 124.69 123.60 125.49 124.59 125.50 Z M 125.63 125.48 L 126.61 125.48 C 127.59 125.48 128.38 124.69 128.38 123.71 C 128.38 122.73 127.58 121.93 126.60 121.94 L 125.63 121.94 C 124.65 121.94 123.85 122.73 123.85 123.71 C 123.85 124.69 124.65 125.48 125.63 125.48 Z M 126.62 125.47 L 127.61 125.46 C 128.58 125.45 129.36 124.66 129.36 123.69 C 129.35 122.72 128.56 121.94 127.59 121.94 L 126.59 121.95 C 125.62 121.96 124.84 122.75 124.85 123.72 C 124.85 124.69 125.65 125.47 126.62 125.47 Z M 127.63 125.44 L 128.64 125.42 C 129.61 125.41 130.37 124.61 130.35 123.65 C 130.33 122.68 129.54 121.92 128.57 121.94 L 127.56 121.96 C 126.60 121.98 125.84 122.77 125.85 123.74 C 125.87 124.70 126.67 125.46 127.63 125.44 Z M 128.68 125.41 L 129.69 125.37 C 130.65 125.33 131.39 124.53 131.35 123.57 C 131.32 122.62 130.51 121.88 129.56 121.91 L 128.54 121.95 C 127.59 121.99 126.84 122.79 126.88 123.75 C 126.92 124.70 127.72 125.45 128.68 125.41 Z M 129.74 125.35 L 130.76 125.29 C 131.70 125.22 132.42 124.41 132.36 123.46 C 132.30 122.52 131.48 121.80 130.53 121.86 L 129.51 121.93 C 128.57 121.99 127.85 122.81 127.91 123.75 C 127.98 124.70 128.79 125.42 129.74 125.35 Z M 130.81 125.27 L 131.83 125.17 C 132.76 125.08 133.45 124.24 133.35 123.31 C 133.26 122.37 132.42 121.69 131.49 121.78 L 130.48 121.88 C 129.54 121.97 128.86 122.81 128.95 123.74 C 129.04 124.68 129.88 125.36 130.81 125.27 Z M 131.89 125.15 L 132.89 125.01 C 133.81 124.88 134.46 124.02 134.33 123.10 C 134.20 122.17 133.34 121.53 132.41 121.66 L 131.42 121.80 C 130.50 121.93 129.85 122.78 129.98 123.71 C 130.11 124.63 130.97 125.28 131.89 125.15 Z M 132.96 124.99 L 133.93 124.80 C 134.84 124.63 135.44 123.75 135.27 122.84 C 135.09 121.93 134.21 121.33 133.30 121.50 L 132.34 121.68 C 131.42 121.86 130.83 122.74 131.00 123.65 C 131.17 124.56 132.05 125.16 132.96 124.99 Z M 134.02 124.77 L 134.99 124.53 C 135.89 124.30 136.43 123.39 136.21 122.50 C 135.98 121.61 135.08 121.06 134.18 121.29 L 133.21 121.53 C 132.31 121.76 131.77 122.66 132.00 123.56 C 132.22 124.45 133.13 125.00 134.02 124.77 Z M 135.10 124.49 L 136.08 124.17 C 136.95 123.89 137.43 122.96 137.15 122.08 C 136.87 121.21 135.93 120.73 135.06 121.01 L 134.08 121.32 C 133.21 121.60 132.73 122.54 133.01 123.41 C 133.29 124.29 134.22 124.77 135.10 124.49 Z M 136.17 124.13 L 137.10 123.77 C 137.95 123.44 138.37 122.48 138.04 121.62 C 137.71 120.77 136.75 120.35 135.90 120.69 L 134.97 121.05 C 134.11 121.38 133.69 122.34 134.03 123.20 C 134.36 124.05 135.32 124.47 136.17 124.13 Z M 137.19 123.72 L 138.07 123.32 C 138.90 122.94 139.26 121.96 138.88 121.13 C 138.50 120.31 137.52 119.94 136.69 120.33 L 135.81 120.73 C 134.98 121.11 134.62 122.09 135.00 122.92 C 135.38 123.74 136.36 124.10 137.19 123.72 Z M 138.15 123.27 L 139.05 122.80 C 139.85 122.37 140.15 121.37 139.73 120.57 C 139.30 119.77 138.31 119.47 137.50 119.90 L 136.61 120.37 C 135.81 120.80 135.50 121.79 135.93 122.59 C 136.36 123.39 137.35 123.70 138.15 123.27 Z M 139.16 122.73 L 140.02 122.18 C 140.78 121.69 141.01 120.68 140.52 119.91 C 140.03 119.15 139.02 118.93 138.25 119.41 L 137.39 119.96 C 136.63 120.45 136.41 121.47 136.89 122.23 C 137.38 122.99 138.40 123.21 139.16 122.73 Z M 140.18 122.06 L 140.93 121.44 C 141.63 120.87 141.73 119.84 141.16 119.14 C 140.58 118.44 139.55 118.34 138.85 118.91 L 138.10 119.53 C 137.40 120.10 137.30 121.14 137.87 121.84 C 138.44 122.53 139.48 122.64 140.18 122.06 Z M 141.12 121.26 L 141.77 120.52 C 142.37 119.84 142.30 118.80 141.62 118.21 C 140.94 117.61 139.90 117.68 139.31 118.36 L 138.66 119.10 C 138.06 119.78 138.13 120.81 138.81 121.41 C 139.49 122.00 140.53 121.94 141.12 121.26 Z M 141.97 120.23 L 142.48 119.32 C 142.92 118.53 142.64 117.53 141.85 117.09 C 141.06 116.65 140.06 116.93 139.62 117.72 L 139.11 118.64 C 138.67 119.43 138.95 120.43 139.74 120.87 C 140.53 121.31 141.53 121.02 141.97 120.23 Z M 142.64 118.90 L 142.87 117.95 C 143.08 117.07 142.53 116.19 141.66 115.98 C 140.78 115.77 139.89 116.32 139.68 117.19 L 139.46 118.14 C 139.25 119.02 139.79 119.90 140.67 120.11 C 141.55 120.32 142.43 119.78 142.64 118.90 Z M 142.90 117.33 L 142.76 116.43 C 142.62 115.54 141.79 114.92 140.89 115.06 C 140.00 115.20 139.38 116.03 139.52 116.93 L 139.66 117.82 C 139.79 118.72 140.63 119.33 141.52 119.19 C 142.42 119.06 143.03 118.22 142.90 117.33 Z M 142.52 115.78 L 142.01 115.00 C 141.51 114.24 140.49 114.02 139.73 114.52 C 138.97 115.02 138.75 116.04 139.25 116.80 L 139.76 117.58 C 140.26 118.34 141.28 118.56 142.04 118.06 C 142.80 117.56 143.02 116.54 142.52 115.78 Z M 141.67 114.61 L 140.88 113.96 C 140.16 113.39 139.12 113.50 138.54 114.21 C 137.97 114.92 138.08 115.96 138.79 116.54 L 139.59 117.19 C 140.30 117.76 141.34 117.65 141.92 116.94 C 142.49 116.23 142.39 115.19 141.67 114.61 Z M 140.58 113.76 L 139.67 113.30 C 138.85 112.89 137.85 113.22 137.43 114.04 C 137.02 114.87 137.35 115.87 138.17 116.28 L 139.08 116.74 C 139.90 117.16 140.91 116.83 141.32 116.00 C 141.74 115.18 141.41 114.18 140.58 113.76 Z M 139.44 113.20 L 138.56 112.91 C 137.68 112.62 136.73 113.10 136.45 113.98 C 136.16 114.86 136.64 115.81 137.52 116.10 L 138.40 116.39 C 139.28 116.67 140.23 116.19 140.52 115.31 C 140.80 114.43 140.32 113.49 139.44 113.20 Z M 138.38 112.86 L 137.41 112.66 C 136.50 112.47 135.61 113.05 135.42 113.96 C 135.23 114.87 135.81 115.76 136.72 115.95 L 137.69 116.15 C 138.60 116.34 139.49 115.76 139.69 114.85 C 139.88 113.94 139.29 113.05 138.38 112.86 Z M 137.28 112.63 L 136.21 112.49 C 135.29 112.38 134.45 113.03 134.33 113.95 C 134.21 114.88 134.87 115.72 135.79 115.84 L 136.86 115.97 C 137.78 116.09 138.62 115.44 138.74 114.51 C 138.86 113.59 138.20 112.75 137.28 112.63 Z M 136.12 112.48 L 135.10 112.40 C 134.16 112.33 133.35 113.04 133.28 113.97 C 133.22 114.90 133.92 115.72 134.85 115.78 L 135.88 115.86 C 136.81 115.93 137.63 115.22 137.69 114.29 C 137.76 113.36 137.06 112.54 136.12 112.48 Z M 135.04 112.38 L 134.02 112.34 C 133.08 112.31 132.28 113.05 132.25 113.99 C 132.22 114.94 132.95 115.73 133.90 115.77 L 134.91 115.80 C 135.86 115.84 136.65 115.10 136.68 114.15 C 136.72 113.21 135.98 112.41 135.04 112.38 Z M 133.97 112.33 L 132.94 112.32 C 131.99 112.32 131.21 113.09 131.20 114.04 C 131.20 115.00 131.97 115.78 132.93 115.78 L 133.95 115.79 C 134.91 115.79 135.69 115.02 135.69 114.06 C 135.69 113.11 134.92 112.33 133.97 112.33 Z M 132.89 112.30 L 131.89 112.33 C 130.92 112.35 130.16 113.15 130.18 114.12 C 130.21 115.08 131.01 115.85 131.97 115.82 L 132.98 115.80 C 133.94 115.78 134.71 114.97 134.68 114.01 C 134.66 113.04 133.86 112.28 132.89 112.30 Z M 131.83 112.31 L 130.80 112.37 C 129.83 112.42 129.08 113.26 129.14 114.24 C 129.19 115.21 130.03 115.96 131.01 115.90 L 132.03 115.84 C 133.01 115.79 133.75 114.95 133.70 113.97 C 133.64 113.00 132.81 112.25 131.83 112.31 Z M 130.69 112.35 L 129.56 112.49 C 128.57 112.61 127.87 113.51 127.99 114.49 C 128.11 115.48 129.01 116.18 130.00 116.06 L 131.12 115.92 C 132.11 115.80 132.81 114.90 132.69 113.92 C 132.57 112.93 131.67 112.23 130.69 112.35 Z M 129.27 112.51 L 128.34 112.78 C 127.37 113.06 126.81 114.07 127.09 115.05 C 127.37 116.02 128.38 116.58 129.36 116.30 L 130.29 116.04 C 131.26 115.76 131.82 114.74 131.54 113.77 C 131.26 112.79 130.24 112.23 129.27 112.51 Z M 127.81 112.99 L 127.12 113.45 C 126.27 114.02 126.03 115.18 126.61 116.04 C 127.18 116.90 128.34 117.13 129.20 116.55 L 129.89 116.09 C 130.75 115.52 130.98 114.36 130.40 113.50 C 129.83 112.64 128.67 112.41 127.81 112.99 Z M 126.53 114.04 L 126.08 114.81 C 125.55 115.71 125.85 116.87 126.75 117.40 C 127.65 117.93 128.81 117.63 129.34 116.73 L 129.79 115.96 C 130.32 115.06 130.02 113.90 129.12 113.37 C 128.22 112.84 127.06 113.14 126.53 114.04 Z M 125.85 115.36 L 125.64 116.34 C 125.41 117.36 126.06 118.38 127.09 118.60 C 128.11 118.83 129.13 118.18 129.35 117.15 L 129.57 116.18 C 129.79 115.15 129.14 114.14 128.12 113.91 C 127.09 113.68 126.08 114.33 125.85 115.36 Z M 125.59 116.60 L 125.51 117.68 C 125.43 118.73 126.22 119.65 127.28 119.73 C 128.33 119.80 129.25 119.01 129.32 117.96 L 129.40 116.88 C 129.48 115.83 128.69 114.91 127.63 114.84 C 126.58 114.76 125.66 115.55 125.59 116.60 Z M 125.50 117.76 L 125.48 118.52 C 125.45 119.58 126.28 120.47 127.34 120.50 C 128.40 120.53 129.28 119.69 129.31 118.63 L 129.33 117.87 C 129.36 116.81 128.53 115.93 127.47 115.90 C 126.41 115.87 125.53 116.70 125.50 117.76 Z M 125.47 118.59 L 125.48 119.42 C 125.49 120.48 126.35 121.33 127.41 121.32 C 128.47 121.32 129.33 120.45 129.32 119.39 L 129.31 118.56 C 129.31 117.50 128.44 116.65 127.38 116.66 C 126.32 116.67 125.47 117.53 125.47 118.59 Z M 125.48 119.50 L 125.53 120.48 C 125.58 121.54 126.48 122.36 127.54 122.31 C 128.60 122.26 129.42 121.36 129.37 120.30 L 129.32 119.31 C 129.27 118.25 128.37 117.43 127.31 117.48 C 126.25 117.53 125.43 118.44 125.48 119.50 Z M 125.53 120.55 L 125.63 121.78 C 125.72 122.84 126.65 123.63 127.71 123.54 C 128.77 123.45 129.56 122.52 129.47 121.46 L 129.36 120.23 C 129.28 119.17 128.35 118.38 127.29 118.47 C 126.23 118.56 125.44 119.49 125.53 120.55 Z M 125.64 121.83 L 125.76 122.94 C 125.87 124.00 126.82 124.77 127.88 124.65 C 128.93 124.54 129.70 123.59 129.59 122.53 L 129.47 121.42 C 129.35 120.36 128.40 119.59 127.34 119.71 C 126.29 119.82 125.52 120.77 125.64 121.83 Z M 125.76 122.97 L 125.87 123.91 C 126.00 124.97 126.96 125.72 128.01 125.59 C 129.07 125.47 129.82 124.51 129.70 123.45 L 129.58 122.51 C 129.46 121.45 128.50 120.70 127.44 120.82 C 126.38 120.95 125.63 121.91 125.76 122.97 Z M 125.87 123.92 L 126.00 124.94 C 126.14 125.99 127.10 126.74 128.16 126.60 C 129.21 126.47 129.96 125.50 129.83 124.45 L 129.70 123.44 C 129.56 122.38 128.60 121.63 127.54 121.77 C 126.48 121.90 125.74 122.87 125.87 123.92 Z M 126.00 124.95 L 126.14 126.00 C 126.28 127.05 127.25 127.79 128.31 127.65 C 129.36 127.51 130.11 126.54 129.97 125.49 L 129.83 124.44 C 129.68 123.38 128.71 122.64 127.66 122.78 C 126.60 122.92 125.86 123.89 126.00 124.95 Z M 126.14 126.00 L 126.29 127.07 C 126.43 128.12 127.41 128.86 128.46 128.72 C 129.52 128.57 130.26 127.60 130.11 126.54 L 129.96 125.48 C 129.82 124.42 128.85 123.68 127.79 123.83 C 126.73 123.97 126.00 124.95 126.14 126.00 Z M 126.29 127.07 L 126.43 128.12 C 126.58 129.18 127.56 129.91 128.61 129.76 C 129.67 129.62 130.41 128.64 130.26 127.58 L 130.11 126.54 C 129.96 125.48 128.99 124.74 127.93 124.89 C 126.87 125.04 126.14 126.02 126.29 127.07 Z M 126.43 128.13 L 126.58 129.13 C 126.73 130.19 127.71 130.92 128.76 130.77 C 129.82 130.62 130.55 129.64 130.40 128.58 L 130.26 127.58 C 130.11 126.52 129.13 125.79 128.07 125.94 C 127.02 126.09 126.28 127.07 126.43 128.13 Z M 126.58 129.13 L 126.71 130.07 C 126.87 131.12 127.85 131.86 128.90 131.70 C 129.96 131.55 130.69 130.57 130.54 129.51 L 130.40 128.58 C 130.25 127.52 129.27 126.79 128.21 126.94 C 127.16 127.10 126.42 128.08 126.58 129.13 Z M 126.71 130.07 L 126.89 131.26 C 127.04 132.32 128.03 133.05 129.08 132.89 C 130.14 132.74 130.87 131.75 130.71 130.70 L 130.54 129.51 C 130.38 128.45 129.40 127.72 128.34 127.88 C 127.29 128.03 126.56 129.01 126.71 130.07 Z M 126.89 131.26 L 127.06 132.43 C 127.22 133.48 128.20 134.21 129.26 134.05 C 130.31 133.90 131.04 132.91 130.89 131.86 L 130.71 130.69 C 130.56 129.64 129.57 128.91 128.52 129.07 C 127.46 129.22 126.73 130.21 126.89 131.26 Z M 127.06 132.42 L 127.20 133.38 C 127.36 134.43 128.34 135.16 129.39 135.01 C 130.45 134.85 131.18 133.87 131.02 132.82 L 130.89 131.86 C 130.73 130.81 129.75 130.08 128.69 130.23 C 127.64 130.39 126.91 131.37 127.06 132.42 Z M 127.20 133.36 L 127.31 134.18 C 127.46 135.24 128.43 135.98 129.49 135.83 C 130.55 135.68 131.29 134.71 131.14 133.65 L 131.03 132.83 C 130.88 131.78 129.91 131.04 128.85 131.18 C 127.79 131.33 127.06 132.30 127.20 133.36 Z M 127.31 134.15 L 127.41 134.93 C 127.54 135.98 128.50 136.74 129.56 136.61 C 130.62 136.48 131.37 135.51 131.24 134.46 L 131.14 133.68 C 131.01 132.62 130.05 131.87 128.99 132.00 C 127.93 132.13 127.18 133.09 127.31 134.15 Z M 127.40 134.89 L 127.50 135.85 C 127.61 136.91 128.56 137.68 129.62 137.57 C 130.68 137.46 131.45 136.52 131.34 135.46 L 131.24 134.49 C 131.13 133.43 130.18 132.66 129.12 132.77 C 128.06 132.88 127.29 133.83 127.40 134.89 Z M 127.50 135.83 L 127.59 136.82 C 127.69 137.88 128.62 138.66 129.68 138.56 C 130.74 138.47 131.53 137.53 131.43 136.47 L 131.34 135.48 C 131.25 134.42 130.31 133.64 129.25 133.74 C 128.19 133.83 127.41 134.77 127.50 135.83 Z M 127.59 136.81 L 127.68 137.82 C 127.77 138.88 128.70 139.67 129.76 139.58 C 130.82 139.49 131.60 138.55 131.52 137.50 L 131.43 136.48 C 131.34 135.42 130.41 134.64 129.35 134.73 C 128.29 134.82 127.50 135.75 127.59 136.81 Z M 127.68 137.83 L 127.77 138.84 C 127.86 139.89 128.79 140.68 129.85 140.58 C 130.91 140.49 131.69 139.56 131.60 138.50 L 131.51 137.49 C 131.42 136.43 130.49 135.65 129.43 135.74 C 128.37 135.84 127.59 136.77 127.68 137.83 Z M 127.78 138.84 L 127.87 139.84 C 127.96 140.89 128.90 141.67 129.95 141.57 C 131.01 141.47 131.78 140.54 131.69 139.49 L 131.60 138.49 C 131.50 137.44 130.56 136.66 129.51 136.76 C 128.45 136.86 127.68 137.79 127.78 138.84 Z M 127.87 139.84 L 127.97 140.84 C 128.06 141.89 129.00 142.67 130.05 142.57 C 131.10 142.47 131.87 141.54 131.78 140.49 L 131.68 139.48 C 131.58 138.43 130.65 137.66 129.60 137.76 C 128.55 137.85 127.77 138.79 127.87 139.84 Z M 127.97 140.84 L 128.06 141.84 C 128.16 142.89 129.09 143.66 130.14 143.56 C 131.18 143.47 131.96 142.54 131.86 141.49 L 131.77 140.49 C 131.67 139.44 130.75 138.67 129.70 138.76 C 128.65 138.86 127.87 139.79 127.97 140.84 Z M 128.07 141.83 L 128.15 142.83 C 128.24 143.88 129.16 144.65 130.21 144.56 C 131.26 144.47 132.03 143.55 131.94 142.51 L 131.86 141.50 C 131.77 140.46 130.85 139.68 129.80 139.77 C 128.75 139.86 127.98 140.78 128.07 141.83 Z M 128.16 142.81 L 128.23 143.81 C 128.32 144.86 129.23 145.64 130.27 145.56 C 131.32 145.48 132.10 144.57 132.02 143.52 L 131.94 142.52 C 131.86 141.48 130.95 140.70 129.90 140.78 C 128.86 140.86 128.08 141.77 128.16 142.81 Z M 128.24 143.80 L 128.31 144.79 C 128.38 145.83 129.28 146.62 130.32 146.55 C 131.37 146.48 132.15 145.57 132.08 144.53 L 132.01 143.54 C 131.94 142.50 131.04 141.71 130.00 141.78 C 128.95 141.85 128.17 142.76 128.24 143.80 Z M 128.31 144.77 L 128.37 145.77 C 128.43 146.81 129.33 147.60 130.37 147.54 C 131.41 147.47 132.20 146.58 132.14 145.54 L 132.08 144.55 C 132.01 143.51 131.12 142.72 130.08 142.78 C 129.04 142.84 128.25 143.73 128.31 144.77 Z M 128.38 145.75 L 128.43 146.74 C 128.48 147.78 129.36 148.58 130.40 148.52 C 131.44 148.47 132.23 147.59 132.18 146.55 L 132.13 145.56 C 132.08 144.52 131.20 143.72 130.16 143.78 C 129.12 143.83 128.32 144.71 128.38 145.75 Z M 128.43 146.73 L 128.47 147.73 C 128.52 148.76 129.40 149.56 130.43 149.52 C 131.47 149.47 132.27 148.59 132.22 147.56 L 132.18 146.56 C 132.13 145.53 131.25 144.73 130.22 144.77 C 129.19 144.82 128.38 145.69 128.43 146.73 Z M 128.48 147.72 L 128.52 148.73 C 128.57 149.76 129.44 150.56 130.47 150.51 C 131.50 150.47 132.30 149.59 132.26 148.56 L 132.22 147.56 C 132.17 146.53 131.30 145.73 130.27 145.77 C 129.23 145.82 128.43 146.69 128.48 147.72 Z M 128.53 148.73 L 128.58 149.74 C 128.63 150.77 129.50 151.56 130.53 151.51 C 131.56 151.46 132.35 150.59 132.30 149.56 L 132.25 148.56 C 132.20 147.53 131.33 146.73 130.30 146.78 C 129.27 146.83 128.48 147.70 128.53 148.73 Z M 128.58 149.75 L 128.64 150.74 C 128.69 151.77 129.57 152.55 130.60 152.50 C 131.62 152.44 132.41 151.56 132.35 150.54 L 132.29 149.55 C 132.24 148.52 131.36 147.74 130.34 147.79 C 129.31 147.85 128.53 148.73 128.58 149.75 Z M 128.64 150.75 L 128.70 151.75 C 128.76 152.77 129.64 153.55 130.66 153.49 C 131.68 153.43 132.46 152.55 132.40 151.53 L 132.34 150.53 C 132.28 149.51 131.41 148.73 130.38 148.79 C 129.36 148.85 128.58 149.73 128.64 150.75 Z M 128.71 151.75 L 128.77 152.75 C 128.83 153.76 129.70 154.54 130.72 154.48 C 131.74 154.42 132.52 153.55 132.46 152.53 L 132.40 151.53 C 132.34 150.51 131.46 149.73 130.44 149.79 C 129.43 149.85 128.65 150.73 128.71 151.75 Z M 128.77 152.74 L 128.83 153.74 C 128.88 154.76 129.75 155.54 130.77 155.48 C 131.78 155.43 132.56 154.56 132.51 153.54 L 132.45 152.54 C 132.40 151.52 131.53 150.74 130.51 150.80 C 129.50 150.85 128.72 151.72 128.77 152.74 Z M 128.83 153.73 L 128.88 154.73 C 128.93 155.74 129.79 156.52 130.80 156.48 C 131.81 156.43 132.59 155.57 132.55 154.56 L 132.50 153.56 C 132.45 152.55 131.59 151.76 130.58 151.81 C 129.57 151.86 128.79 152.71 128.83 153.73 Z M 128.89 154.72 L 128.93 155.72 C 128.97 156.73 129.82 157.51 130.83 157.47 C 131.83 157.43 132.62 156.58 132.58 155.58 L 132.54 154.57 C 132.50 153.56 131.65 152.78 130.64 152.82 C 129.63 152.86 128.85 153.71 128.89 154.72 Z M 128.93 155.71 L 128.97 156.71 C 129.01 157.72 129.85 158.50 130.85 158.47 C 131.86 158.43 132.64 157.59 132.61 156.58 L 132.57 155.58 C 132.54 154.58 131.69 153.79 130.69 153.83 C 129.68 153.87 128.90 154.71 128.93 155.71 Z M 128.98 156.71 L 129.01 157.70 C 129.05 158.70 129.89 159.48 130.89 159.45 C 131.89 159.42 132.67 158.58 132.63 157.58 L 132.60 156.59 C 132.57 155.59 131.73 154.80 130.73 154.84 C 129.73 154.87 128.94 155.71 128.98 156.71 Z M 129.02 157.70 L 129.06 158.70 C 129.09 159.69 129.92 160.47 130.92 160.44 C 131.92 160.40 132.70 159.57 132.66 158.57 L 132.63 157.58 C 132.59 156.58 131.76 155.80 130.76 155.84 C 129.76 155.87 128.99 156.71 129.02 157.70 Z M 129.06 158.70 L 129.10 159.69 C 129.13 160.68 129.96 161.46 130.96 161.42 C 131.95 161.39 132.72 160.56 132.69 159.57 L 132.65 158.57 C 132.62 157.58 131.79 156.81 130.80 156.84 C 129.80 156.88 129.03 157.71 129.06 158.70 Z M 129.11 159.69 L 129.14 160.69 C 129.17 161.68 130.00 162.45 130.99 162.41 C 131.98 162.38 132.75 161.55 132.71 160.57 L 132.68 159.57 C 132.64 158.58 131.82 157.81 130.83 157.84 C 129.84 157.88 129.07 158.70 129.11 159.69 Z M 129.15 160.69 L 129.18 161.64 C 129.21 162.62 130.04 163.39 131.02 163.36 C 132.00 163.33 132.77 162.50 132.74 161.52 L 132.71 160.57 C 132.67 159.58 131.85 158.82 130.87 158.85 C 129.88 158.88 129.12 159.71 129.15 160.69 Z M 129.19 161.64 L 129.22 162.49 C 129.25 163.46 130.07 164.23 131.05 164.20 C 132.02 164.16 132.79 163.35 132.76 162.37 L 132.73 161.52 C 132.70 160.54 131.88 159.78 130.90 159.81 C 129.92 159.84 129.16 160.66 129.19 161.64 Z M 129.23 162.48 L 129.26 163.40 C 129.29 164.37 130.10 165.13 131.08 165.10 C 132.05 165.07 132.81 164.26 132.78 163.28 L 132.75 162.37 C 132.72 161.40 131.90 160.63 130.93 160.67 C 129.96 160.70 129.19 161.51 129.23 162.48 Z M 129.26 163.40 L 129.30 164.41 C 129.33 165.38 130.14 166.14 131.11 166.11 C 132.08 166.08 132.84 165.27 132.80 164.30 L 132.77 163.28 C 132.74 162.31 131.93 161.55 130.96 161.59 C 129.99 161.62 129.23 162.43 129.26 163.40 Z M 129.30 164.41 L 129.34 165.56 C 129.37 166.53 130.18 167.28 131.14 167.25 C 132.11 167.22 132.86 166.42 132.83 165.45 L 132.80 164.30 C 132.77 163.33 131.96 162.58 130.99 162.61 C 130.03 162.64 129.27 163.45 129.30 164.41 Z M 129.35 165.56 L 129.38 166.64 C 129.41 167.60 130.22 168.36 131.18 168.33 C 132.14 168.29 132.89 167.49 132.86 166.53 L 132.83 165.45 C 132.80 164.49 131.99 163.74 131.03 163.77 C 130.07 163.80 129.32 164.60 129.35 165.56 Z M 129.39 166.64 L 129.42 167.61 C 129.45 168.57 130.25 169.32 131.21 169.29 C 132.17 169.26 132.92 168.45 132.89 167.50 L 132.85 166.53 C 132.82 165.57 132.02 164.82 131.07 164.85 C 130.11 164.88 129.36 165.69 129.39 166.64 Z M 129.42 167.61 L 129.46 168.63 C 129.49 169.58 130.29 170.33 131.24 170.30 C 132.20 170.27 132.95 169.47 132.92 168.51 L 132.88 167.50 C 132.85 166.54 132.05 165.79 131.09 165.82 C 130.14 165.86 129.39 166.66 129.42 167.61 Z M 129.46 168.63 L 129.50 169.68 C 129.53 170.63 130.33 171.37 131.29 171.34 C 132.24 171.30 132.98 170.50 132.95 169.55 L 132.91 168.51 C 132.88 167.56 132.08 166.81 131.12 166.85 C 130.17 166.88 129.43 167.68 129.46 168.63 Z M 129.50 169.68 L 129.55 170.73 C 129.58 171.68 130.38 172.42 131.33 172.38 C 132.28 172.34 133.02 171.54 132.99 170.59 L 132.94 169.55 C 132.91 168.60 132.11 167.86 131.16 167.89 C 130.21 167.93 129.47 168.73 129.50 169.68 Z M 129.55 170.74 L 129.60 171.76 C 129.64 172.71 130.44 173.44 131.39 173.40 C 132.34 173.36 133.07 172.56 133.03 171.61 L 132.98 170.58 C 132.94 169.64 132.14 168.90 131.19 168.95 C 130.24 168.99 129.51 169.79 129.55 170.74 Z M 129.60 171.77 L 129.65 172.75 C 129.70 173.70 130.51 174.43 131.45 174.38 C 132.40 174.33 133.12 173.52 133.07 172.58 L 133.02 171.60 C 132.97 170.65 132.17 169.93 131.22 169.98 C 130.28 170.02 129.55 170.83 129.60 171.77 Z M 129.66 172.77 L 129.74 174.02 C 129.80 174.96 130.61 175.67 131.55 175.61 C 132.49 175.55 133.20 174.74 133.14 173.80 L 133.07 172.56 C 133.01 171.62 132.20 170.90 131.26 170.96 C 130.31 171.02 129.60 171.83 129.66 172.77 Z M 129.75 174.05 L 129.87 175.43 C 129.95 176.36 130.76 177.05 131.70 176.98 C 132.63 176.90 133.32 176.08 133.24 175.15 L 133.13 173.77 C 133.05 172.84 132.23 172.14 131.30 172.22 C 130.37 172.30 129.68 173.12 129.75 174.05 Z M 129.89 175.47 L 130.00 176.48 C 130.10 177.40 130.93 178.07 131.85 177.97 C 132.77 177.87 133.44 177.04 133.33 176.12 L 133.22 175.11 C 133.12 174.19 132.29 173.52 131.37 173.62 C 130.45 173.72 129.79 174.55 129.89 175.47 Z M 130.03 176.57 L 130.12 177.15 C 130.27 178.05 131.13 178.67 132.03 178.52 C 132.94 178.37 133.55 177.52 133.40 176.61 L 133.31 176.03 C 133.16 175.13 132.30 174.51 131.40 174.66 C 130.50 174.81 129.88 175.66 130.03 176.57 Z M 132.02 178.51 L 132.10 178.49 C 133.00 178.35 133.61 177.51 133.47 176.61 C 133.33 175.71 132.48 175.10 131.59 175.24 L 131.51 175.25 C 130.61 175.39 129.99 176.24 130.14 177.14 C 130.28 178.04 131.12 178.65 132.02 178.51 Z M 133.48 176.81 L 133.45 175.79 C 133.42 174.89 132.66 174.18 131.75 174.21 C 130.85 174.24 130.14 175.00 130.17 175.90 L 130.20 176.92 C 130.23 177.83 130.99 178.54 131.90 178.51 C 132.80 178.48 133.51 177.72 133.48 176.81 Z M 133.43 175.63 L 133.26 174.37 C 133.14 173.47 132.32 172.85 131.42 172.97 C 130.53 173.09 129.90 173.91 130.02 174.81 L 130.19 176.07 C 130.31 176.96 131.13 177.59 132.03 177.47 C 132.92 177.35 133.55 176.53 133.43 175.63 Z M 133.24 174.25 L 133.04 173.30 C 132.85 172.41 131.98 171.85 131.10 172.03 C 130.22 172.22 129.65 173.09 129.84 173.97 L 130.04 174.93 C 130.23 175.81 131.09 176.38 131.98 176.19 C 132.86 176.00 133.43 175.14 133.24 174.25 Z M 133.02 173.23 L 132.78 172.25 C 132.55 171.38 131.66 170.85 130.79 171.07 C 129.91 171.30 129.38 172.19 129.60 173.06 L 129.85 174.04 C 130.08 174.92 130.97 175.45 131.84 175.22 C 132.72 175.00 133.25 174.11 133.02 173.23 Z M 132.77 172.22 L 132.49 171.23 C 132.25 170.36 131.34 169.85 130.47 170.09 C 129.60 170.33 129.09 171.24 129.34 172.11 L 129.61 173.10 C 129.86 173.97 130.76 174.48 131.63 174.24 C 132.50 173.99 133.01 173.09 132.77 172.22 Z M 132.49 171.22 L 132.39 170.89 C 132.14 170.02 131.24 169.51 130.37 169.76 C 129.50 170.01 129.00 170.91 129.24 171.78 L 129.34 172.12 C 129.59 172.99 130.49 173.49 131.36 173.24 C 132.23 172.99 132.74 172.09 132.49 171.22 Z"
      fill="black"
      fill-rule="nonzero" /><path d="M 126.82 137.80 L 125.90 138.16 C 124.97 138.54 124.51 139.61 124.89 140.54 C 125.26 141.48 126.33 141.94 127.26 141.56 L 128.18 141.19 C 129.12 140.82 129.58 139.75 129.20 138.82 C 128.83 137.88 127.76 137.42 126.82 137.80 Z M 125.83 138.20 L 124.92 138.61 C 124.00 139.03 123.59 140.11 124.01 141.03 C 124.43 141.96 125.52 142.36 126.44 141.94 L 127.34 141.53 C 128.26 141.11 128.67 140.03 128.25 139.10 C 127.83 138.18 126.75 137.78 125.83 138.20 Z M 124.77 138.68 L 123.90 139.18 C 123.02 139.68 122.71 140.80 123.21 141.68 C 123.72 142.56 124.84 142.87 125.72 142.37 L 126.59 141.87 C 127.47 141.37 127.78 140.25 127.27 139.37 C 126.77 138.49 125.65 138.18 124.77 138.68 Z M 123.71 139.30 L 122.94 139.88 C 122.12 140.48 121.96 141.63 122.56 142.45 C 123.17 143.26 124.32 143.43 125.13 142.82 L 125.90 142.24 C 126.72 141.64 126.88 140.49 126.28 139.68 C 125.67 138.87 124.52 138.70 123.71 139.30 Z M 122.79 140.00 L 122.08 140.66 C 121.33 141.34 121.28 142.50 121.97 143.25 C 122.65 143.99 123.81 144.04 124.55 143.36 L 125.27 142.70 C 126.02 142.01 126.06 140.86 125.38 140.11 C 124.70 139.37 123.54 139.32 122.79 140.00 Z M 121.99 140.75 L 121.29 141.48 C 120.60 142.21 120.63 143.37 121.36 144.07 C 122.09 144.76 123.24 144.73 123.94 144.00 L 124.64 143.27 C 125.33 142.54 125.30 141.38 124.57 140.69 C 123.84 139.99 122.69 140.02 121.99 140.75 Z M 121.25 141.54 L 120.56 142.33 C 119.89 143.08 119.96 144.23 120.71 144.90 C 121.47 145.56 122.62 145.49 123.28 144.74 L 123.98 143.95 C 124.65 143.20 124.57 142.05 123.82 141.38 C 123.07 140.71 121.92 140.78 121.25 141.54 Z M 120.55 142.35 L 119.91 143.10 C 119.26 143.86 119.34 145.00 120.10 145.65 C 120.86 146.30 122.00 146.21 122.66 145.45 L 123.29 144.71 C 123.94 143.95 123.86 142.81 123.10 142.16 C 122.34 141.51 121.20 141.59 120.55 142.35 Z M 119.91 143.12 L 119.27 143.88 C 118.63 144.64 118.73 145.77 119.49 146.41 C 120.24 147.05 121.38 146.95 122.01 146.19 L 122.65 145.43 C 123.29 144.67 123.19 143.54 122.44 142.90 C 121.68 142.26 120.55 142.36 119.91 143.12 Z M 119.27 143.91 L 118.63 144.69 C 118.00 145.44 118.11 146.56 118.87 147.19 C 119.63 147.81 120.75 147.70 121.37 146.95 L 122.01 146.17 C 122.64 145.41 122.53 144.29 121.77 143.67 C 121.01 143.04 119.89 143.15 119.27 143.91 Z M 118.63 144.71 L 117.99 145.50 C 117.38 146.26 117.50 147.37 118.26 147.98 C 119.01 148.59 120.12 148.47 120.73 147.71 L 121.37 146.92 C 121.98 146.16 121.86 145.06 121.10 144.45 C 120.35 143.84 119.24 143.95 118.63 144.71 Z M 118.00 145.53 L 117.37 146.32 C 116.77 147.08 116.90 148.17 117.65 148.77 C 118.41 149.37 119.50 149.24 120.10 148.48 L 120.73 147.69 C 121.33 146.93 121.20 145.84 120.44 145.24 C 119.69 144.64 118.59 144.77 118.00 145.53 Z M 117.38 146.34 L 116.76 147.14 C 116.17 147.89 116.30 148.97 117.05 149.55 C 117.80 150.14 118.88 150.01 119.47 149.26 L 120.09 148.46 C 120.67 147.72 120.54 146.63 119.79 146.05 C 119.05 145.46 117.96 145.59 117.38 146.34 Z M 116.78 147.15 L 116.16 147.93 C 115.58 148.67 115.70 149.74 116.44 150.32 C 117.18 150.90 118.25 150.77 118.83 150.04 L 119.44 149.25 C 120.03 148.51 119.90 147.44 119.16 146.86 C 118.43 146.28 117.36 146.41 116.78 147.15 Z M 116.19 147.93 L 115.57 148.70 C 114.99 149.42 115.10 150.47 115.82 151.05 C 116.54 151.64 117.60 151.52 118.18 150.80 L 118.80 150.04 C 119.38 149.31 119.27 148.26 118.54 147.68 C 117.82 147.10 116.77 147.21 116.19 147.93 Z M 115.60 148.68 L 114.94 149.47 C 114.35 150.17 114.44 151.22 115.14 151.81 C 115.85 152.40 116.90 152.31 117.49 151.61 L 118.15 150.82 C 118.74 150.11 118.65 149.06 117.94 148.47 C 117.24 147.88 116.19 147.98 115.60 148.68 Z M 114.98 149.44 L 114.30 150.20 C 113.69 150.88 113.76 151.93 114.44 152.54 C 115.12 153.14 116.17 153.08 116.77 152.40 L 117.45 151.64 C 118.06 150.95 117.99 149.91 117.31 149.30 C 116.63 148.69 115.58 148.76 114.98 149.44 Z M 114.34 150.16 L 113.66 150.88 C 113.04 151.54 113.06 152.58 113.72 153.21 C 114.38 153.83 115.42 153.81 116.05 153.15 L 116.73 152.44 C 117.36 151.78 117.33 150.73 116.67 150.11 C 116.01 149.48 114.97 149.50 114.34 150.16 Z M 113.72 150.83 L 113.03 151.50 C 112.37 152.13 112.35 153.16 112.98 153.82 C 113.61 154.47 114.65 154.49 115.30 153.86 L 115.99 153.20 C 116.65 152.57 116.67 151.53 116.04 150.88 C 115.41 150.22 114.37 150.20 113.72 150.83 Z M 113.09 151.45 L 112.32 152.12 C 111.64 152.71 111.56 153.74 112.16 154.43 C 112.75 155.11 113.79 155.18 114.47 154.59 L 115.24 153.91 C 115.92 153.32 115.99 152.29 115.40 151.61 C 114.81 150.92 113.77 150.85 113.09 151.45 Z M 112.37 152.07 L 111.59 152.70 C 110.89 153.26 110.77 154.29 111.34 155.00 C 111.90 155.70 112.93 155.82 113.64 155.25 L 114.42 154.63 C 115.12 154.06 115.24 153.03 114.67 152.33 C 114.11 151.62 113.08 151.51 112.37 152.07 Z M 111.62 152.67 L 110.84 153.27 C 110.12 153.81 109.98 154.84 110.53 155.56 C 111.08 156.28 112.10 156.42 112.82 155.87 L 113.61 155.28 C 114.33 154.73 114.46 153.70 113.92 152.98 C 113.37 152.26 112.34 152.12 111.62 152.67 Z M 110.85 153.26 L 110.61 153.44 C 109.88 153.99 109.74 155.01 110.28 155.73 C 110.82 156.46 111.85 156.60 112.57 156.06 L 112.81 155.88 C 113.54 155.34 113.68 154.31 113.14 153.59 C 112.60 152.86 111.57 152.72 110.85 153.26 Z"
      fill="black"
      fill-rule="nonzero" /><path d="M 121.40 147.63 L 122.45 147.63 C 123.43 147.63 124.22 146.84 124.22 145.86 C 124.22 144.89 123.43 144.10 122.45 144.10 L 121.40 144.10 C 120.43 144.10 119.64 144.89 119.64 145.86 C 119.64 146.84 120.43 147.63 121.40 147.63 Z M 122.45 147.63 L 123.49 147.63 C 124.46 147.63 125.25 146.84 125.25 145.86 C 125.25 144.89 124.46 144.10 123.49 144.10 L 122.45 144.10 C 121.48 144.10 120.69 144.89 120.69 145.86 C 120.69 146.84 121.48 147.63 122.45 147.63 Z M 123.49 147.62 L 124.49 147.62 C 125.47 147.62 126.25 146.84 126.25 145.86 C 126.25 144.89 125.47 144.10 124.49 144.10 L 123.49 144.10 C 122.51 144.10 121.73 144.89 121.73 145.86 C 121.73 146.84 122.51 147.62 123.49 147.62 Z M 124.49 147.62 L 125.46 147.62 C 126.43 147.62 127.22 146.84 127.22 145.86 C 127.22 144.89 126.43 144.10 125.46 144.10 L 124.49 144.10 C 123.52 144.10 122.73 144.89 122.73 145.86 C 122.73 146.84 123.52 147.62 124.49 147.62 Z M 125.46 147.62 L 126.45 147.62 C 127.42 147.62 128.20 146.83 128.20 145.86 C 128.20 144.89 127.42 144.11 126.45 144.11 L 125.46 144.11 C 124.49 144.11 123.70 144.89 123.70 145.86 C 123.70 146.83 124.49 147.62 125.46 147.62 Z M 126.44 147.62 L 127.50 147.62 C 128.48 147.63 129.26 146.84 129.27 145.87 C 129.27 144.90 128.48 144.11 127.51 144.11 L 126.45 144.11 C 125.48 144.10 124.69 144.89 124.69 145.86 C 124.68 146.83 125.47 147.62 126.44 147.62 Z M 127.49 147.62 L 128.48 147.63 C 129.45 147.64 130.24 146.86 130.25 145.89 C 130.26 144.92 129.48 144.13 128.51 144.12 L 127.53 144.11 C 126.55 144.10 125.76 144.88 125.75 145.85 C 125.74 146.82 126.52 147.62 127.49 147.62 Z M 128.45 147.63 L 129.39 147.66 C 130.36 147.68 131.17 146.91 131.19 145.94 C 131.21 144.97 130.44 144.16 129.47 144.14 L 128.54 144.12 C 127.56 144.09 126.76 144.86 126.74 145.83 C 126.71 146.81 127.48 147.61 128.45 147.63 Z M 129.35 147.65 L 130.33 147.70 C 131.30 147.74 132.12 146.99 132.16 146.02 C 132.20 145.05 131.45 144.23 130.48 144.18 L 129.51 144.14 C 128.54 144.10 127.72 144.85 127.67 145.82 C 127.63 146.79 128.38 147.61 129.35 147.65 Z M 130.29 147.69 L 131.28 147.75 C 132.25 147.82 133.08 147.08 133.15 146.12 C 133.21 145.15 132.48 144.32 131.51 144.26 L 130.52 144.19 C 129.55 144.13 128.72 144.86 128.65 145.83 C 128.59 146.79 129.33 147.63 130.29 147.69 Z M 131.26 147.75 L 132.26 147.82 C 133.22 147.90 134.06 147.18 134.13 146.21 C 134.21 145.25 133.49 144.41 132.52 144.34 L 131.53 144.26 C 130.57 144.19 129.73 144.91 129.66 145.87 C 129.58 146.83 130.30 147.67 131.26 147.75 Z M 132.25 147.82 L 133.21 147.89 C 134.17 147.97 135.01 147.25 135.08 146.30 C 135.16 145.34 134.45 144.50 133.49 144.42 L 132.53 144.35 C 131.57 144.27 130.73 144.99 130.66 145.94 C 130.58 146.90 131.30 147.74 132.25 147.82 Z M 133.22 147.88 L 134.14 147.95 C 135.09 148.03 135.92 147.31 136.00 146.36 C 136.07 145.41 135.36 144.58 134.41 144.51 L 133.48 144.43 C 132.53 144.36 131.70 145.07 131.63 146.02 C 131.55 146.98 132.27 147.81 133.22 147.88 Z M 134.15 147.94 L 135.13 148.01 C 136.08 148.08 136.90 147.37 136.97 146.42 C 137.04 145.48 136.33 144.66 135.38 144.59 L 134.40 144.52 C 133.45 144.45 132.63 145.16 132.56 146.11 C 132.49 147.05 133.20 147.87 134.15 147.94 Z M 135.15 148.00 L 136.22 148.07 C 137.16 148.13 137.97 147.42 138.04 146.48 C 138.10 145.55 137.39 144.73 136.45 144.67 L 135.37 144.60 C 134.43 144.54 133.62 145.25 133.56 146.19 C 133.50 147.13 134.21 147.94 135.15 148.00 Z M 136.23 148.06 L 137.20 148.12 C 138.13 148.18 138.94 147.46 138.99 146.53 C 139.05 145.60 138.34 144.80 137.40 144.74 L 136.44 144.68 C 135.50 144.63 134.70 145.34 134.65 146.27 C 134.59 147.20 135.30 148.01 136.23 148.06 Z M 137.21 148.11 L 138.15 148.16 C 139.07 148.21 139.87 147.50 139.92 146.57 C 139.97 145.64 139.26 144.85 138.33 144.80 L 137.39 144.75 C 136.46 144.70 135.67 145.41 135.62 146.34 C 135.57 147.27 136.28 148.06 137.21 148.11 Z M 138.16 148.15 L 139.15 148.20 C 140.07 148.25 140.86 147.53 140.90 146.61 C 140.94 145.68 140.23 144.90 139.31 144.85 L 138.32 144.81 C 137.39 144.76 136.61 145.48 136.56 146.40 C 136.52 147.33 137.23 148.11 138.16 148.15 Z M 139.16 148.19 L 140.20 148.24 C 141.12 148.27 141.89 147.56 141.93 146.64 C 141.97 145.72 141.25 144.94 140.33 144.90 L 139.29 144.86 C 138.37 144.82 137.60 145.54 137.56 146.46 C 137.52 147.38 138.24 148.16 139.16 148.19 Z M 140.21 148.23 L 141.28 148.26 C 142.20 148.29 142.97 147.57 143.00 146.66 C 143.03 145.74 142.31 144.97 141.39 144.94 L 140.32 144.91 C 139.40 144.88 138.63 145.60 138.60 146.52 C 138.57 147.43 139.29 148.20 140.21 148.23 Z M 141.30 148.26 L 142.37 148.28 C 143.29 148.30 144.04 147.58 144.06 146.67 C 144.08 145.75 143.36 145.00 142.45 144.98 L 141.38 144.95 C 140.46 144.93 139.71 145.65 139.69 146.57 C 139.66 147.48 140.39 148.24 141.30 148.26 Z M 142.39 148.28 L 143.45 148.29 C 144.36 148.30 145.11 147.57 145.12 146.66 C 145.13 145.75 144.40 145.00 143.49 144.99 L 142.43 144.98 C 141.52 144.97 140.77 145.70 140.76 146.61 C 140.75 147.52 141.48 148.26 142.39 148.28 Z M 143.47 148.29 L 144.51 148.29 C 145.42 148.29 146.16 147.56 146.16 146.65 C 146.16 145.74 145.43 145.00 144.52 145.00 L 143.47 145.00 C 142.56 144.99 141.83 145.73 141.82 146.64 C 141.82 147.55 142.56 148.29 143.47 148.29 Z M 144.54 148.29 L 145.54 148.28 C 146.45 148.26 147.18 147.52 147.17 146.61 C 147.16 145.71 146.41 144.98 145.51 144.99 L 144.50 145.00 C 143.59 145.01 142.86 145.76 142.87 146.66 C 142.88 147.57 143.63 148.30 144.54 148.29 Z M 145.57 148.27 L 146.52 148.24 C 147.43 148.22 148.14 147.46 148.12 146.56 C 148.09 145.65 147.33 144.94 146.43 144.96 L 145.48 144.99 C 144.57 145.02 143.86 145.77 143.89 146.68 C 143.91 147.58 144.67 148.30 145.57 148.27 Z M 146.56 148.24 L 147.51 148.19 C 148.42 148.14 149.11 147.37 149.06 146.47 C 149.02 145.57 148.24 144.87 147.34 144.92 L 146.39 144.97 C 145.49 145.02 144.79 145.79 144.84 146.69 C 144.89 147.59 145.66 148.29 146.56 148.24 Z M 147.57 148.19 L 148.69 148.09 C 149.59 148.00 150.26 147.21 150.18 146.31 C 150.10 145.41 149.30 144.74 148.40 144.82 L 147.28 144.92 C 146.38 145.01 145.72 145.80 145.80 146.70 C 145.88 147.60 146.67 148.27 147.57 148.19 Z M 148.76 148.08 L 149.73 147.95 C 150.63 147.83 151.26 147.01 151.14 146.11 C 151.02 145.22 150.20 144.59 149.30 144.70 L 148.33 144.83 C 147.44 144.95 146.81 145.77 146.93 146.67 C 147.04 147.57 147.87 148.20 148.76 148.08 Z M 149.78 147.94 L 150.66 147.80 C 151.56 147.65 152.16 146.81 152.02 145.92 C 151.87 145.03 151.03 144.42 150.14 144.57 L 149.25 144.71 C 148.36 144.86 147.76 145.70 147.90 146.59 C 148.05 147.48 148.89 148.09 149.78 147.94 Z M 150.68 147.80 L 150.99 147.74 C 151.88 147.59 152.48 146.74 152.32 145.85 C 152.17 144.96 151.32 144.36 150.43 144.52 L 150.12 144.57 C 149.23 144.72 148.63 145.57 148.79 146.46 C 148.94 147.35 149.79 147.95 150.68 147.80 Z"
      fill="black"
      fill-rule="nonzero" /><path d="M 154.31 128.09 L 154.31 126.65 C 154.31 125.68 153.53 124.91 152.57 124.91 C 151.61 124.91 150.83 125.68 150.83 126.65 L 150.83 128.09 C 150.83 129.05 151.61 129.83 152.57 129.83 C 153.53 129.83 154.31 129.05 154.31 128.09 Z M 154.37 126.65 L 154.37 125.44 C 154.37 124.44 153.56 123.64 152.57 123.64 C 151.57 123.64 150.77 124.44 150.77 125.44 L 150.77 126.65 C 150.77 127.64 151.57 128.45 152.57 128.45 C 153.56 128.45 154.37 127.64 154.37 126.65 Z M 154.43 125.44 L 154.43 124.71 C 154.43 123.68 153.60 122.84 152.57 122.84 C 151.54 122.84 150.70 123.68 150.70 124.71 L 150.70 125.44 C 150.70 126.47 151.54 127.31 152.57 127.31 C 153.60 127.31 154.43 126.47 154.43 125.44 Z M 150.64 124.70 L 150.64 125.51 C 150.64 126.57 151.50 127.44 152.57 127.44 C 153.63 127.44 154.50 126.57 154.50 125.51 L 154.50 124.70 C 154.50 123.63 153.63 122.77 152.57 122.77 C 151.50 122.77 150.64 123.63 150.64 124.70 Z M 150.64 125.51 L 150.64 126.81 C 150.64 127.87 151.50 128.74 152.57 128.74 C 153.63 128.74 154.50 127.87 154.50 126.81 L 154.50 125.51 C 154.50 124.44 153.63 123.58 152.57 123.58 C 151.50 123.58 150.64 124.44 150.64 125.51 Z M 150.64 126.81 L 150.64 128.07 C 150.64 129.14 151.50 130.00 152.57 130.00 C 153.63 130.00 154.50 129.14 154.50 128.07 L 154.50 126.81 C 154.50 125.74 153.63 124.87 152.57 124.87 C 151.50 124.87 150.64 125.74 150.64 126.81 Z M 150.64 128.08 L 150.64 129.08 C 150.64 130.15 151.51 131.01 152.57 131.01 C 153.64 131.01 154.50 130.15 154.50 129.08 L 154.50 128.07 C 154.50 127.00 153.63 126.14 152.56 126.14 C 151.50 126.14 150.63 127.01 150.64 128.08 Z M 150.64 129.10 L 150.65 130.08 C 150.65 131.15 151.52 132.00 152.59 132.00 C 153.66 131.99 154.52 131.12 154.51 130.05 L 154.50 129.07 C 154.49 128.00 153.62 127.14 152.56 127.15 C 151.49 127.16 150.63 128.03 150.64 129.10 Z M 150.65 130.10 L 150.66 131.08 C 150.68 132.15 151.56 133.00 152.62 132.98 C 153.69 132.96 154.54 132.09 154.52 131.02 L 154.51 130.03 C 154.49 128.97 153.61 128.12 152.55 128.13 C 151.48 128.15 150.63 129.03 150.65 130.10 Z M 150.66 131.10 L 150.69 132.09 C 150.72 133.15 151.61 133.99 152.67 133.96 C 153.74 133.93 154.58 133.05 154.55 131.98 L 154.52 131.00 C 154.49 129.93 153.60 129.09 152.54 129.12 C 151.47 129.15 150.63 130.04 150.66 131.10 Z M 150.69 132.11 L 150.73 133.05 C 150.77 134.12 151.67 134.95 152.73 134.90 C 153.80 134.86 154.63 133.96 154.58 132.90 L 154.55 131.96 C 154.51 130.89 153.61 130.06 152.54 130.11 C 151.48 130.15 150.65 131.05 150.69 132.11 Z M 150.73 133.07 L 150.78 134.04 C 150.83 135.11 151.73 135.93 152.79 135.88 C 153.86 135.83 154.68 134.93 154.63 133.86 L 154.58 132.89 C 154.53 131.82 153.63 131.00 152.57 131.05 C 151.50 131.10 150.68 132.00 150.73 133.07 Z M 150.78 134.05 L 150.83 135.07 C 150.89 136.13 151.79 136.95 152.85 136.89 C 153.92 136.84 154.73 135.93 154.68 134.87 L 154.63 133.85 C 154.57 132.79 153.67 131.98 152.60 132.03 C 151.54 132.09 150.73 132.99 150.78 134.05 Z M 150.83 135.07 L 150.89 136.12 C 150.95 137.18 151.85 138.00 152.91 137.94 C 153.97 137.88 154.79 136.98 154.73 135.92 L 154.68 134.87 C 154.62 133.81 153.71 132.99 152.65 133.05 C 151.59 133.10 150.78 134.01 150.83 135.07 Z M 150.89 136.12 L 150.95 137.13 C 151.00 138.19 151.90 139.00 152.96 138.94 C 154.02 138.89 154.84 137.98 154.78 136.93 L 154.73 135.92 C 154.67 134.86 153.77 134.05 152.71 134.10 C 151.65 134.16 150.84 135.06 150.89 136.12 Z M 150.95 137.12 L 151.00 138.10 C 151.05 139.16 151.95 139.97 153.01 139.92 C 154.07 139.87 154.88 138.97 154.83 137.91 L 154.78 136.93 C 154.72 135.87 153.82 135.06 152.77 135.11 C 151.71 135.17 150.90 136.07 150.95 137.12 Z M 151.00 138.10 L 151.05 139.10 C 151.11 140.16 152.01 140.97 153.06 140.91 C 154.11 140.86 154.93 139.96 154.87 138.91 L 154.82 137.91 C 154.77 136.86 153.87 136.04 152.82 136.10 C 151.76 136.15 150.95 137.05 151.00 138.10 Z M 151.06 139.10 L 151.11 140.11 C 151.16 141.16 152.06 141.97 153.11 141.92 C 154.16 141.87 154.97 140.97 154.92 139.92 L 154.87 138.91 C 154.82 137.86 153.92 137.05 152.87 137.10 C 151.82 137.15 151.01 138.05 151.06 139.10 Z M 151.11 140.11 L 151.16 141.13 C 151.22 142.17 152.11 142.98 153.16 142.93 C 154.21 142.88 155.02 141.99 154.96 140.94 L 154.91 139.92 C 154.86 138.87 153.97 138.06 152.92 138.12 C 151.87 138.17 151.06 139.06 151.11 140.11 Z M 151.17 141.13 L 151.22 142.14 C 151.27 143.18 152.16 143.99 153.21 143.94 C 154.25 143.89 155.06 143.00 155.01 141.95 L 154.96 140.94 C 154.91 139.89 154.02 139.09 152.97 139.14 C 151.92 139.19 151.12 140.08 151.17 141.13 Z M 151.23 142.14 L 151.28 143.14 C 151.33 144.18 152.22 144.98 153.26 144.93 C 154.30 144.88 155.10 143.99 155.05 142.95 L 155.00 141.95 C 154.95 140.91 154.06 140.11 153.02 140.16 C 151.98 140.21 151.18 141.10 151.23 142.14 Z M 151.29 143.14 L 151.34 144.13 C 151.39 145.17 152.27 145.97 153.31 145.92 C 154.34 145.87 155.14 144.98 155.09 143.95 L 155.04 142.95 C 154.99 141.91 154.11 141.12 153.07 141.17 C 152.03 141.22 151.24 142.10 151.29 143.14 Z M 151.35 144.13 L 151.40 145.13 C 151.45 146.16 152.32 146.95 153.35 146.90 C 154.39 146.85 155.18 145.98 155.13 144.95 L 155.08 143.95 C 155.03 142.92 154.15 142.12 153.12 142.18 C 152.09 142.23 151.30 143.10 151.35 144.13 Z M 151.41 145.13 L 151.46 146.13 C 151.51 147.15 152.38 147.94 153.40 147.89 C 154.43 147.84 155.22 146.97 155.17 145.94 L 155.12 144.95 C 155.07 143.92 154.19 143.13 153.17 143.18 C 152.15 143.23 151.36 144.11 151.41 145.13 Z M 151.47 146.13 L 151.52 147.13 C 151.57 148.15 152.43 148.93 153.45 148.88 C 154.47 148.83 155.26 147.96 155.21 146.95 L 155.16 145.94 C 155.11 144.93 154.24 144.14 153.22 144.19 C 152.20 144.24 151.42 145.11 151.47 146.13 Z M 151.53 147.13 L 151.58 148.11 C 151.63 149.12 152.49 149.90 153.50 149.85 C 154.51 149.80 155.29 148.94 155.24 147.93 L 155.19 146.95 C 155.14 145.93 154.28 145.15 153.27 145.20 C 152.26 145.25 151.48 146.11 151.53 147.13 Z M 151.59 148.11 L 151.64 149.09 C 151.69 150.10 152.54 150.88 153.55 150.83 C 154.55 150.78 155.33 149.92 155.28 148.92 L 155.23 147.93 C 155.18 146.92 154.33 146.15 153.32 146.20 C 152.31 146.25 151.54 147.10 151.59 148.11 Z M 151.65 149.09 L 151.70 150.09 C 151.75 151.09 152.59 151.86 153.59 151.81 C 154.59 151.76 155.36 150.91 155.32 149.91 L 155.27 148.92 C 155.22 147.92 154.37 147.15 153.37 147.20 C 152.37 147.24 151.60 148.09 151.65 149.09 Z M 151.71 150.09 L 151.76 151.09 C 151.80 152.08 152.65 152.85 153.64 152.80 C 154.63 152.75 155.40 151.91 155.35 150.92 L 155.30 149.91 C 155.26 148.92 154.41 148.15 153.42 148.20 C 152.43 148.25 151.66 149.09 151.71 150.09 Z M 151.77 151.09 L 151.82 152.10 C 151.86 153.09 152.70 153.85 153.69 153.80 C 154.67 153.76 155.44 152.92 155.39 151.93 L 155.34 150.92 C 155.29 149.93 154.46 149.17 153.47 149.22 C 152.48 149.26 151.72 150.10 151.77 151.09 Z M 151.83 152.10 L 151.88 153.12 C 151.92 154.10 152.75 154.85 153.73 154.81 C 154.71 154.76 155.47 153.93 155.42 152.95 L 155.38 151.93 C 155.33 150.95 154.50 150.20 153.52 150.24 C 152.54 150.29 151.78 151.12 151.83 152.10 Z M 151.89 153.12 L 151.94 154.13 C 151.98 155.10 152.81 155.85 153.78 155.81 C 154.75 155.76 155.51 154.93 155.46 153.96 L 155.41 152.95 C 155.37 151.98 154.54 151.22 153.57 151.27 C 152.59 151.32 151.84 152.14 151.89 153.12 Z M 151.95 154.13 L 152.00 155.14 C 152.04 156.11 152.86 156.85 153.83 156.81 C 154.80 156.76 155.54 155.94 155.50 154.97 L 155.45 153.96 C 155.40 152.99 154.58 152.25 153.61 152.29 C 152.65 152.34 151.90 153.16 151.95 154.13 Z M 152.01 155.14 L 152.06 156.15 C 152.11 157.11 152.92 157.85 153.88 157.80 C 154.85 157.75 155.58 156.94 155.54 155.98 L 155.49 154.97 C 155.44 154.01 154.62 153.27 153.66 153.32 C 152.70 153.37 151.96 154.18 152.01 155.14 Z M 152.07 156.16 L 152.12 157.15 C 152.17 158.10 152.99 158.84 153.94 158.78 C 154.90 158.73 155.63 157.92 155.58 156.96 L 155.53 155.97 C 155.47 155.02 154.66 154.28 153.71 154.34 C 152.75 154.39 152.02 155.20 152.07 156.16 Z M 152.13 157.16 L 152.19 158.13 C 152.25 159.08 153.06 159.80 154.01 159.75 C 154.95 159.69 155.68 158.88 155.62 157.93 L 155.57 156.96 C 155.51 156.01 154.70 155.29 153.75 155.34 C 152.80 155.40 152.08 156.21 152.13 157.16 Z M 152.20 158.14 L 152.27 159.19 C 152.33 160.13 153.14 160.85 154.08 160.79 C 155.03 160.72 155.74 159.91 155.68 158.97 L 155.61 157.92 C 155.55 156.98 154.74 156.27 153.80 156.33 C 152.86 156.39 152.14 157.20 152.20 158.14 Z M 152.28 159.20 L 152.36 160.24 C 152.43 161.17 153.24 161.88 154.17 161.81 C 155.11 161.74 155.81 160.93 155.74 159.99 L 155.67 158.96 C 155.60 158.02 154.79 157.32 153.85 157.39 C 152.92 157.46 152.22 158.27 152.28 159.20 Z M 152.37 160.26 L 152.45 161.26 C 152.53 162.18 153.34 162.87 154.27 162.80 C 155.20 162.72 155.89 161.91 155.81 160.98 L 155.73 159.98 C 155.65 159.05 154.84 158.36 153.91 158.44 C 152.98 158.52 152.30 159.33 152.37 160.26 Z M 152.47 161.27 L 152.56 162.24 C 152.65 163.16 153.46 163.83 154.38 163.75 C 155.30 163.66 155.98 162.84 155.89 161.92 L 155.80 160.96 C 155.71 160.04 154.89 159.37 153.98 159.45 C 153.06 159.54 152.38 160.36 152.47 161.27 Z M 152.57 162.26 L 152.67 163.19 C 152.77 164.10 153.59 164.76 154.50 164.66 C 155.42 164.57 156.07 163.75 155.98 162.83 L 155.87 161.90 C 155.78 160.99 154.96 160.33 154.05 160.43 C 153.13 160.53 152.47 161.35 152.57 162.26 Z M 152.69 163.22 L 152.81 164.24 C 152.93 165.14 153.75 165.78 154.66 165.67 C 155.56 165.56 156.21 164.73 156.09 163.82 L 155.96 162.81 C 155.85 161.90 155.02 161.26 154.12 161.37 C 153.21 161.49 152.57 162.31 152.69 163.22 Z M 152.82 164.27 L 152.97 165.27 C 153.10 166.17 153.94 166.79 154.84 166.66 C 155.74 166.52 156.36 165.69 156.23 164.78 L 156.08 163.79 C 155.95 162.89 155.11 162.27 154.21 162.40 C 153.31 162.53 152.69 163.37 152.82 164.27 Z M 152.98 165.31 L 153.15 166.29 C 153.31 167.18 154.16 167.78 155.06 167.62 C 155.95 167.46 156.55 166.61 156.39 165.71 L 156.22 164.74 C 156.06 163.85 155.21 163.25 154.31 163.41 C 153.42 163.57 152.82 164.42 152.98 165.31 Z M 153.17 166.34 L 153.37 167.29 C 153.55 168.18 154.42 168.75 155.31 168.56 C 156.20 168.38 156.76 167.51 156.58 166.62 L 156.38 165.66 C 156.19 164.78 155.32 164.21 154.44 164.39 C 153.55 164.58 152.98 165.45 153.17 166.34 Z M 153.38 167.35 L 153.62 168.30 C 153.83 169.18 154.72 169.72 155.60 169.51 C 156.47 169.29 157.01 168.40 156.80 167.53 L 156.56 166.57 C 156.35 165.69 155.46 165.15 154.58 165.37 C 153.70 165.58 153.17 166.47 153.38 167.35 Z M 153.63 168.35 L 153.90 169.31 C 154.14 170.18 155.04 170.69 155.91 170.45 C 156.78 170.21 157.29 169.31 157.05 168.44 L 156.78 167.48 C 156.54 166.61 155.64 166.10 154.77 166.34 C 153.90 166.58 153.39 167.48 153.63 168.35 Z M 153.91 169.35 L 154.19 170.30 C 154.45 171.17 155.37 171.66 156.23 171.40 C 157.10 171.14 157.59 170.23 157.33 169.36 L 157.04 168.40 C 156.78 167.54 155.87 167.05 155.00 167.31 C 154.14 167.57 153.64 168.48 153.91 169.35 Z M 154.20 170.33 L 154.50 171.28 C 154.77 172.15 155.69 172.62 156.56 172.35 C 157.42 172.08 157.90 171.16 157.62 170.30 L 157.32 169.34 C 157.05 168.48 156.13 168.00 155.27 168.27 C 154.41 168.54 153.93 169.46 154.20 170.33 Z M 154.51 171.29 L 154.72 171.97 C 155.00 172.83 155.92 173.30 156.78 173.03 C 157.64 172.75 158.12 171.83 157.84 170.97 L 157.62 170.29 C 157.34 169.43 156.42 168.96 155.56 169.23 C 154.70 169.51 154.23 170.43 154.51 171.29 Z"
      fill="black"
      fill-rule="nonzero" /><path d="M 155.89 117.32 L 155.95 116.29 C 156.01 115.26 155.23 114.38 154.20 114.32 C 153.18 114.25 152.29 115.04 152.23 116.06 L 152.17 117.10 C 152.11 118.12 152.89 119.00 153.91 119.07 C 154.94 119.13 155.82 118.35 155.89 117.32 Z M 155.94 116.49 L 156.11 115.51 C 156.29 114.49 155.60 113.52 154.58 113.34 C 153.55 113.17 152.58 113.85 152.41 114.88 L 152.24 115.86 C 152.06 116.88 152.75 117.85 153.77 118.03 C 154.79 118.20 155.77 117.52 155.94 116.49 Z M 156.00 115.95 L 156.38 115.08 C 156.79 114.12 156.35 113.00 155.39 112.58 C 154.43 112.17 153.31 112.61 152.90 113.57 L 152.52 114.44 C 152.10 115.40 152.54 116.52 153.50 116.94 C 154.47 117.35 155.58 116.91 156.00 115.95 Z M 156.07 115.59 L 156.68 114.90 C 157.37 114.11 157.30 112.90 156.51 112.20 C 155.72 111.51 154.51 111.58 153.82 112.37 L 153.21 113.06 C 152.51 113.85 152.58 115.06 153.37 115.75 C 154.16 116.45 155.37 116.38 156.07 115.59 Z M 156.35 115.20 L 157.16 114.63 C 158.03 114.02 158.24 112.83 157.63 111.96 C 157.02 111.09 155.83 110.89 154.96 111.49 L 154.15 112.07 C 153.28 112.67 153.07 113.87 153.68 114.73 C 154.29 115.60 155.48 115.81 156.35 115.20 Z M 156.91 114.78 L 157.87 114.31 C 158.83 113.84 159.22 112.69 158.75 111.74 C 158.28 110.79 157.13 110.39 156.18 110.86 L 155.22 111.34 C 154.26 111.80 153.87 112.95 154.34 113.91 C 154.81 114.86 155.96 115.25 156.91 114.78 Z M 157.70 114.39 L 158.64 114.04 C 159.63 113.66 160.14 112.55 159.76 111.56 C 159.39 110.56 158.28 110.06 157.29 110.43 L 156.35 110.78 C 155.35 111.16 154.85 112.27 155.22 113.26 C 155.60 114.26 156.71 114.76 157.70 114.39 Z M 158.51 114.08 L 159.48 113.80 C 160.50 113.49 161.08 112.42 160.78 111.40 C 160.47 110.38 159.40 109.80 158.38 110.10 L 157.41 110.39 C 156.39 110.69 155.81 111.76 156.11 112.78 C 156.42 113.80 157.49 114.38 158.51 114.08 Z M 159.37 113.83 L 160.35 113.60 C 161.38 113.35 162.03 112.32 161.78 111.28 C 161.54 110.24 160.50 109.60 159.47 109.84 L 158.49 110.07 C 157.45 110.31 156.81 111.35 157.05 112.39 C 157.29 113.42 158.33 114.07 159.37 113.83 Z M 160.25 113.62 L 161.23 113.44 C 162.28 113.25 162.98 112.25 162.79 111.20 C 162.60 110.15 161.60 109.46 160.55 109.65 L 159.57 109.82 C 158.52 110.01 157.82 111.01 158.01 112.06 C 158.20 113.11 159.20 113.81 160.25 113.62 Z M 161.14 113.46 L 162.13 113.33 C 163.19 113.19 163.93 112.22 163.80 111.16 C 163.66 110.10 162.69 109.36 161.63 109.50 L 160.64 109.63 C 159.58 109.77 158.84 110.74 158.98 111.79 C 159.12 112.85 160.09 113.59 161.14 113.46 Z M 162.06 113.33 L 163.05 113.24 C 164.11 113.15 164.89 112.21 164.79 111.14 C 164.69 110.08 163.75 109.30 162.69 109.40 L 161.70 109.49 C 160.64 109.59 159.86 110.53 159.96 111.59 C 160.06 112.65 161.00 113.43 162.06 113.33 Z M 163.00 113.25 L 163.99 113.18 C 165.06 113.11 165.86 112.19 165.79 111.13 C 165.72 110.06 164.80 109.26 163.74 109.33 L 162.74 109.39 C 161.68 109.46 160.87 110.38 160.94 111.45 C 161.01 112.51 161.93 113.32 163.00 113.25 Z M 163.96 113.19 L 164.93 113.14 C 165.99 113.09 166.81 112.18 166.76 111.11 C 166.71 110.05 165.80 109.23 164.74 109.28 L 163.77 109.33 C 162.70 109.38 161.88 110.28 161.93 111.35 C 161.99 112.42 162.89 113.24 163.96 113.19 Z M 164.88 113.14 L 165.88 113.11 C 166.95 113.08 167.79 112.19 167.76 111.13 C 167.73 110.06 166.84 109.22 165.77 109.25 L 164.78 109.28 C 163.71 109.31 162.87 110.19 162.90 111.26 C 162.93 112.33 163.82 113.17 164.88 113.14 Z M 165.82 113.11 L 166.85 113.12 C 167.91 113.12 168.78 112.25 168.78 111.18 C 168.78 110.12 167.92 109.25 166.85 109.25 L 165.83 109.25 C 164.76 109.25 163.89 110.11 163.89 111.18 C 163.89 112.25 164.76 113.11 165.82 113.11 Z M 166.78 113.11 L 167.79 113.15 C 168.85 113.19 169.75 112.36 169.79 111.29 C 169.83 110.22 169.00 109.33 167.93 109.29 L 166.92 109.25 C 165.85 109.21 164.96 110.04 164.92 111.11 C 164.88 112.18 165.71 113.07 166.78 113.11 Z M 167.69 113.15 L 168.69 113.23 C 169.75 113.32 170.69 112.54 170.78 111.47 C 170.87 110.41 170.08 109.47 169.02 109.38 L 168.03 109.29 C 166.96 109.20 166.02 109.99 165.93 111.05 C 165.84 112.12 166.63 113.05 167.69 113.15 Z M 168.55 113.22 L 169.54 113.37 C 170.59 113.54 171.59 112.82 171.75 111.77 C 171.92 110.71 171.20 109.72 170.15 109.55 L 169.16 109.40 C 168.10 109.23 167.11 109.95 166.94 111.00 C 166.78 112.06 167.49 113.05 168.55 113.22 Z M 169.36 113.34 L 170.33 113.59 C 171.36 113.85 172.42 113.23 172.69 112.20 C 172.95 111.16 172.33 110.11 171.30 109.84 L 170.33 109.59 C 169.29 109.32 168.24 109.94 167.97 110.98 C 167.70 112.01 168.32 113.07 169.36 113.34 Z M 170.12 113.52 L 171.02 113.87 C 172.02 114.25 173.14 113.75 173.52 112.76 C 173.90 111.76 173.41 110.64 172.41 110.26 L 171.51 109.91 C 170.51 109.52 169.39 110.02 169.01 111.02 C 168.62 112.01 169.12 113.13 170.12 113.52 Z M 170.82 113.77 L 171.68 114.22 C 172.62 114.72 173.79 114.36 174.29 113.41 C 174.78 112.46 174.42 111.29 173.47 110.80 L 172.61 110.35 C 171.67 109.85 170.50 110.22 170.00 111.16 C 169.51 112.11 169.87 113.28 170.82 113.77 Z M 171.50 114.12 L 172.34 114.68 C 173.22 115.27 174.43 115.03 175.02 114.14 C 175.61 113.25 175.37 112.05 174.48 111.46 L 173.65 110.90 C 172.76 110.31 171.56 110.55 170.96 111.44 C 170.37 112.33 170.61 113.53 171.50 114.12 Z M 172.19 114.57 L 173.00 115.23 C 173.83 115.90 175.05 115.77 175.72 114.94 C 176.39 114.11 176.27 112.89 175.44 112.22 L 174.63 111.56 C 173.80 110.89 172.58 111.02 171.91 111.85 C 171.23 112.68 171.36 113.90 172.19 114.57 Z M 172.89 115.13 L 173.58 115.78 C 174.35 116.51 175.58 116.48 176.31 115.70 C 177.04 114.93 177.01 113.70 176.23 112.97 L 175.55 112.32 C 174.77 111.58 173.55 111.62 172.81 112.39 C 172.08 113.17 172.11 114.39 172.89 115.13 Z M 173.49 115.69 L 174.13 116.38 C 174.85 117.16 176.08 117.20 176.86 116.48 C 177.64 115.75 177.69 114.53 176.96 113.75 L 176.32 113.06 C 175.59 112.27 174.37 112.23 173.59 112.96 C 172.81 113.68 172.76 114.91 173.49 115.69 Z M 174.05 116.29 L 174.68 117.05 C 175.35 117.88 176.57 118.00 177.40 117.32 C 178.22 116.64 178.34 115.42 177.66 114.60 L 177.04 113.83 C 176.36 113.01 175.14 112.89 174.32 113.57 C 173.49 114.25 173.37 115.46 174.05 116.29 Z M 174.61 116.96 L 175.22 117.80 C 175.85 118.66 177.06 118.85 177.92 118.22 C 178.78 117.60 178.97 116.39 178.34 115.52 L 177.73 114.68 C 177.10 113.82 175.89 113.63 175.03 114.26 C 174.17 114.89 173.98 116.10 174.61 116.96 Z M 175.16 117.71 L 175.76 118.63 C 176.34 119.53 177.53 119.78 178.43 119.20 C 179.33 118.62 179.58 117.43 179.00 116.53 L 178.40 115.61 C 177.82 114.72 176.63 114.46 175.73 115.04 C 174.84 115.62 174.58 116.82 175.16 117.71 Z M 175.71 118.56 L 176.23 119.44 C 176.76 120.36 177.95 120.67 178.87 120.14 C 179.79 119.60 180.10 118.42 179.56 117.49 L 179.05 116.61 C 178.51 115.69 177.33 115.38 176.41 115.91 C 175.48 116.45 175.17 117.63 175.71 118.56 Z M 176.19 119.38 L 176.68 120.29 C 177.19 121.23 178.36 121.59 179.30 121.09 C 180.24 120.58 180.59 119.41 180.09 118.47 L 179.60 117.56 C 179.09 116.62 177.92 116.26 176.98 116.77 C 176.04 117.27 175.69 118.44 176.19 119.38 Z M 176.66 120.24 L 177.12 121.17 C 177.60 122.13 178.76 122.52 179.71 122.04 C 180.66 121.56 181.05 120.41 180.58 119.45 L 180.11 118.52 C 179.64 117.57 178.48 117.18 177.52 117.66 C 176.57 118.13 176.18 119.29 176.66 120.24 Z M 177.10 121.13 L 177.53 122.05 C 177.98 123.01 179.13 123.43 180.10 122.98 C 181.06 122.52 181.48 121.38 181.02 120.41 L 180.59 119.49 C 180.14 118.53 178.99 118.11 178.03 118.57 C 177.06 119.02 176.65 120.17 177.10 121.13 Z M 177.52 122.01 L 177.90 122.89 C 178.34 123.86 179.48 124.30 180.45 123.87 C 181.42 123.44 181.86 122.30 181.43 121.33 L 181.04 120.45 C 180.61 119.47 179.47 119.04 178.50 119.47 C 177.52 119.90 177.08 121.04 177.52 122.01 Z M 177.89 122.85 L 178.28 123.79 C 178.69 124.77 179.82 125.23 180.80 124.82 C 181.78 124.41 182.25 123.28 181.84 122.30 L 181.44 121.36 C 181.03 120.38 179.90 119.92 178.92 120.33 C 177.94 120.74 177.48 121.87 177.89 122.85 Z M 178.26 123.74 L 178.66 124.76 C 179.04 125.75 180.16 126.24 181.15 125.85 C 182.14 125.47 182.63 124.35 182.25 123.36 L 181.85 122.35 C 181.47 121.35 180.35 120.86 179.36 121.25 C 178.37 121.63 177.88 122.75 178.26 123.74 Z M 178.64 124.69 L 178.96 125.61 C 179.31 126.61 180.41 127.14 181.41 126.79 C 182.41 126.44 182.94 125.35 182.59 124.35 L 182.27 123.43 C 181.92 122.43 180.82 121.90 179.82 122.25 C 178.82 122.60 178.29 123.69 178.64 124.69 Z M 178.94 125.54 L 179.21 126.41 C 179.52 127.43 180.60 127.99 181.61 127.68 C 182.62 127.37 183.19 126.29 182.87 125.28 L 182.61 124.41 C 182.29 123.40 181.22 122.83 180.21 123.15 C 179.20 123.46 178.63 124.53 178.94 125.54 Z M 179.20 126.36 L 179.44 127.25 C 179.72 128.27 180.78 128.87 181.80 128.59 C 182.82 128.31 183.42 127.26 183.13 126.24 L 182.89 125.34 C 182.61 124.32 181.56 123.72 180.54 124.00 C 179.52 124.28 178.92 125.34 179.20 126.36 Z M 179.44 127.21 L 179.67 128.16 C 179.93 129.18 180.96 129.81 181.99 129.55 C 183.01 129.30 183.64 128.26 183.38 127.24 L 183.14 126.28 C 182.89 125.26 181.85 124.64 180.83 124.89 C 179.80 125.15 179.18 126.18 179.44 127.21 Z M 179.67 128.13 L 179.89 129.11 C 180.13 130.13 181.15 130.77 182.18 130.54 C 183.21 130.30 183.85 129.28 183.61 128.25 L 183.39 127.27 C 183.15 126.24 182.13 125.60 181.10 125.84 C 180.07 126.08 179.43 127.10 179.67 128.13 Z M 179.89 129.08 L 180.11 130.09 C 180.33 131.11 181.35 131.76 182.38 131.54 C 183.41 131.31 184.06 130.30 183.83 129.27 L 183.61 128.27 C 183.39 127.24 182.37 126.59 181.35 126.82 C 180.32 127.04 179.67 128.06 179.89 129.08 Z M 180.11 130.07 L 180.32 131.04 C 180.54 132.07 181.55 132.73 182.57 132.51 C 183.60 132.29 184.26 131.28 184.04 130.25 L 183.83 129.28 C 183.61 128.26 182.60 127.60 181.58 127.82 C 180.55 128.04 179.89 129.05 180.11 130.07 Z M 180.32 131.03 L 180.52 132.00 C 180.73 133.03 181.73 133.69 182.76 133.48 C 183.79 133.27 184.45 132.27 184.24 131.24 L 184.04 130.27 C 183.83 129.24 182.82 128.58 181.80 128.79 C 180.77 129.00 180.11 130.00 180.32 131.03 Z M 180.52 131.98 L 180.71 132.97 C 180.91 134.00 181.90 134.67 182.93 134.47 C 183.96 134.27 184.63 133.27 184.43 132.25 L 184.24 131.26 C 184.04 130.23 183.04 129.56 182.02 129.76 C 180.99 129.96 180.32 130.96 180.52 131.98 Z M 180.71 132.94 L 180.89 133.94 C 181.07 134.97 182.05 135.65 183.08 135.47 C 184.11 135.28 184.79 134.30 184.61 133.27 L 184.43 132.27 C 184.25 131.25 183.26 130.56 182.24 130.75 C 181.21 130.93 180.52 131.92 180.71 132.94 Z M 180.89 133.91 L 181.05 134.89 C 181.21 135.92 182.18 136.62 183.21 136.45 C 184.24 136.28 184.94 135.31 184.77 134.29 L 184.61 133.31 C 184.44 132.28 183.48 131.58 182.45 131.75 C 181.42 131.91 180.72 132.88 180.89 133.91 Z M 181.04 134.86 L 181.19 135.84 C 181.34 136.87 182.29 137.58 183.32 137.43 C 184.35 137.28 185.06 136.33 184.91 135.30 L 184.77 134.32 C 184.62 133.29 183.66 132.57 182.64 132.72 C 181.61 132.87 180.89 133.83 181.04 134.86 Z M 181.19 135.82 L 181.32 136.81 C 181.46 137.84 182.40 138.56 183.43 138.43 C 184.46 138.29 185.18 137.35 185.04 136.32 L 184.91 135.33 C 184.78 134.30 183.83 133.58 182.80 133.71 C 181.78 133.85 181.05 134.79 181.19 135.82 Z M 181.32 136.79 L 181.44 137.79 C 181.57 138.82 182.50 139.55 183.53 139.43 C 184.55 139.30 185.29 138.37 185.16 137.34 L 185.04 136.34 C 184.92 135.31 183.98 134.58 182.96 134.71 C 181.93 134.83 181.20 135.76 181.32 136.79 Z M 181.45 137.78 L 181.55 138.75 C 181.67 139.77 182.59 140.51 183.62 140.40 C 184.64 140.28 185.38 139.36 185.27 138.33 L 185.16 137.36 C 185.05 136.34 184.12 135.60 183.10 135.71 C 182.07 135.83 181.33 136.75 181.45 137.78 Z M 181.56 138.73 L 181.66 139.71 C 181.77 140.74 182.69 141.48 183.71 141.37 C 184.73 141.26 185.47 140.34 185.37 139.32 L 185.26 138.34 C 185.16 137.32 184.24 136.58 183.22 136.69 C 182.19 136.79 181.45 137.71 181.56 138.73 Z M 181.67 139.71 L 181.77 140.71 C 181.88 141.73 182.79 142.47 183.81 142.36 C 184.83 142.26 185.57 141.34 185.46 140.32 L 185.36 139.33 C 185.26 138.31 184.34 137.57 183.32 137.67 C 182.30 137.78 181.56 138.69 181.67 139.71 Z M 181.78 140.71 L 181.88 141.73 C 181.99 142.74 182.90 143.48 183.91 143.38 C 184.93 143.27 185.67 142.36 185.56 141.34 L 185.46 140.32 C 185.35 139.31 184.44 138.57 183.43 138.67 C 182.41 138.78 181.67 139.69 181.78 140.71 Z M 181.89 141.73 L 182.00 142.74 C 182.10 143.75 183.01 144.49 184.03 144.38 C 185.04 144.27 185.77 143.36 185.67 142.35 L 185.56 141.34 C 185.45 140.33 184.54 139.59 183.53 139.70 C 182.51 139.81 181.78 140.72 181.89 141.73 Z M 182.00 142.74 L 182.11 143.75 C 182.22 144.76 183.13 145.49 184.14 145.38 C 185.14 145.27 185.87 144.37 185.77 143.36 L 185.66 142.35 C 185.55 141.34 184.64 140.61 183.63 140.72 C 182.63 140.83 181.90 141.73 182.00 142.74 Z M 182.12 143.74 L 182.22 144.75 C 182.33 145.76 183.23 146.49 184.23 146.38 C 185.24 146.28 185.97 145.38 185.86 144.37 L 185.76 143.36 C 185.66 142.36 184.76 141.63 183.75 141.73 C 182.74 141.84 182.01 142.74 182.12 143.74 Z M 182.23 144.74 L 182.32 145.73 C 182.42 146.73 183.31 147.46 184.31 147.37 C 185.32 147.27 186.05 146.38 185.95 145.38 L 185.86 144.39 C 185.76 143.39 184.87 142.65 183.87 142.75 C 182.87 142.84 182.13 143.73 182.23 144.74 Z M 182.33 145.70 L 182.41 146.69 C 182.49 147.69 183.37 148.43 184.37 148.35 C 185.37 148.27 186.11 147.39 186.03 146.39 L 185.95 145.40 C 185.87 144.40 184.99 143.66 183.99 143.74 C 182.99 143.82 182.25 144.70 182.33 145.70 Z M 182.42 146.66 L 182.48 147.70 C 182.55 148.69 183.41 149.45 184.41 149.38 C 185.40 149.32 186.16 148.46 186.09 147.46 L 186.03 146.42 C 185.96 145.43 185.10 144.67 184.10 144.74 C 183.11 144.80 182.35 145.66 182.42 146.66 Z M 182.49 147.67 L 182.54 148.67 C 182.60 149.66 183.44 150.42 184.44 150.37 C 185.43 150.32 186.19 149.47 186.14 148.48 L 186.09 147.48 C 186.04 146.49 185.19 145.73 184.19 145.78 C 183.20 145.83 182.44 146.68 182.49 147.67 Z M 182.55 148.66 L 182.60 149.63 C 182.64 150.62 183.49 151.38 184.48 151.33 C 185.47 151.29 186.23 150.44 186.18 149.45 L 186.14 148.48 C 186.09 147.49 185.24 146.73 184.25 146.78 C 183.26 146.83 182.50 147.67 182.55 148.66 Z M 182.60 149.64 L 182.65 150.61 C 182.71 151.60 183.55 152.36 184.54 152.30 C 185.52 152.25 186.28 151.41 186.23 150.42 L 186.18 149.45 C 186.12 148.46 185.28 147.70 184.29 147.75 C 183.31 147.81 182.55 148.65 182.60 149.64 Z M 182.66 150.63 L 182.72 151.63 C 182.78 152.61 183.63 153.36 184.61 153.30 C 185.59 153.24 186.34 152.39 186.28 151.41 L 186.22 150.41 C 186.16 149.43 185.31 148.68 184.33 148.74 C 183.35 148.80 182.60 149.64 182.66 150.63 Z M 182.73 151.64 L 182.80 152.64 C 182.87 153.62 183.71 154.36 184.69 154.29 C 185.67 154.22 186.41 153.38 186.34 152.40 L 186.27 151.40 C 186.21 150.42 185.36 149.68 184.38 149.75 C 183.41 149.82 182.67 150.66 182.73 151.64 Z M 182.81 152.64 L 182.88 153.64 C 182.95 154.61 183.79 155.34 184.77 155.27 C 185.74 155.21 186.47 154.36 186.40 153.39 L 186.33 152.39 C 186.26 151.42 185.42 150.69 184.44 150.76 C 183.47 150.83 182.74 151.67 182.81 152.64 Z M 182.89 153.64 L 182.96 154.64 C 183.03 155.61 183.87 156.34 184.84 156.27 C 185.81 156.20 186.54 155.36 186.47 154.39 L 186.40 153.38 C 186.33 152.41 185.48 151.69 184.51 151.76 C 183.54 151.83 182.81 152.67 182.89 153.64 Z M 182.97 154.65 L 183.04 155.65 C 183.11 156.61 183.95 157.34 184.92 157.27 C 185.88 157.20 186.61 156.36 186.53 155.39 L 186.46 154.39 C 186.39 153.42 185.55 152.70 184.59 152.77 C 183.62 152.84 182.90 153.68 182.97 154.65 Z M 183.05 155.65 L 183.12 156.64 C 183.19 157.60 184.03 158.32 184.99 158.25 C 185.95 158.18 186.67 157.34 186.60 156.38 L 186.53 155.39 C 186.45 154.43 185.62 153.71 184.66 153.78 C 183.70 153.85 182.98 154.69 183.05 155.65 Z M 183.13 156.64 L 183.21 157.63 C 183.28 158.59 184.11 159.30 185.07 159.23 C 186.02 159.16 186.74 158.33 186.67 157.37 L 186.59 156.38 C 186.52 155.43 185.69 154.71 184.73 154.78 C 183.78 154.85 183.06 155.69 183.13 156.64 Z M 183.21 157.63 L 183.29 158.65 C 183.36 159.60 184.19 160.32 185.14 160.24 C 186.09 160.17 186.81 159.34 186.73 158.39 L 186.66 157.37 C 186.59 156.42 185.76 155.71 184.81 155.78 C 183.86 155.85 183.14 156.68 183.21 157.63 Z M 183.30 158.65 L 183.37 159.65 C 183.44 160.60 184.26 161.31 185.21 161.24 C 186.16 161.17 186.87 160.35 186.80 159.40 L 186.73 158.40 C 186.66 157.45 185.83 156.74 184.89 156.81 C 183.94 156.88 183.23 157.70 183.30 158.65 Z M 183.38 159.64 L 183.45 160.62 C 183.51 161.56 184.33 162.27 185.27 162.21 C 186.21 162.14 186.92 161.33 186.86 160.39 L 186.79 159.41 C 186.73 158.47 185.91 157.76 184.97 157.82 C 184.03 157.88 183.32 158.70 183.38 159.64 Z M 183.45 160.60 L 183.51 161.52 C 183.56 162.46 184.37 163.17 185.31 163.12 C 186.25 163.06 186.96 162.25 186.91 161.31 L 186.85 160.40 C 186.80 159.46 185.99 158.75 185.05 158.80 C 184.11 158.86 183.40 159.67 183.45 160.60 Z M 183.51 161.51 L 183.56 162.43 C 183.61 163.36 184.41 164.08 185.35 164.03 C 186.28 163.98 187.00 163.18 186.95 162.24 L 186.90 161.33 C 186.85 160.39 186.05 159.67 185.12 159.72 C 184.18 159.77 183.46 160.57 183.51 161.51 Z M 183.57 162.42 L 183.62 163.43 C 183.67 164.36 184.47 165.08 185.40 165.03 C 186.33 164.98 187.05 164.18 187.00 163.25 L 186.94 162.24 C 186.89 161.31 186.10 160.60 185.17 160.65 C 184.23 160.70 183.52 161.49 183.57 162.42 Z M 183.63 163.44 L 183.69 164.57 C 183.75 165.50 184.54 166.21 185.47 166.15 C 186.40 166.10 187.11 165.31 187.05 164.38 L 186.99 163.25 C 186.94 162.32 186.14 161.61 185.21 161.66 C 184.29 161.71 183.58 162.51 183.63 163.44 Z M 183.70 164.57 L 183.76 165.51 C 183.81 166.43 184.61 167.14 185.53 167.08 C 186.46 167.03 187.16 166.23 187.10 165.31 L 187.05 164.37 C 186.99 163.45 186.20 162.74 185.27 162.80 C 184.35 162.86 183.64 163.65 183.70 164.57 Z M 183.76 165.51 L 183.82 166.52 C 183.88 167.44 184.68 168.14 185.60 168.08 C 186.52 168.03 187.22 167.23 187.16 166.31 L 187.10 165.30 C 187.04 164.38 186.25 163.68 185.33 163.74 C 184.41 163.80 183.70 164.59 183.76 165.51 Z M 183.83 166.52 L 183.89 167.55 C 183.95 168.47 184.74 169.17 185.66 169.12 C 186.58 169.06 187.28 168.27 187.22 167.35 L 187.16 166.31 C 187.10 165.39 186.31 164.69 185.39 164.75 C 184.47 164.81 183.77 165.60 183.83 166.52 Z M 183.90 167.55 L 183.96 168.58 C 184.01 169.50 184.80 170.20 185.72 170.14 C 186.64 170.09 187.33 169.30 187.28 168.38 L 187.22 167.35 C 187.16 166.43 186.37 165.74 185.46 165.79 C 184.54 165.85 183.84 166.63 183.90 167.55 Z M 183.96 168.58 L 184.02 169.57 C 184.07 170.49 184.86 171.18 185.77 171.13 C 186.68 171.08 187.38 170.30 187.33 169.38 L 187.28 168.39 C 187.22 167.48 186.44 166.78 185.53 166.83 C 184.61 166.88 183.91 167.66 183.96 168.58 Z M 184.02 169.56 L 184.08 170.68 C 184.13 171.59 184.90 172.29 185.82 172.25 C 186.73 172.20 187.43 171.42 187.38 170.51 L 187.33 169.39 C 187.28 168.48 186.51 167.78 185.59 167.82 C 184.68 167.87 183.98 168.65 184.02 169.56 Z M 184.08 170.66 L 184.13 171.69 C 184.16 172.60 184.93 173.31 185.84 173.27 C 186.75 173.24 187.46 172.47 187.42 171.56 L 187.38 170.53 C 187.34 169.62 186.58 168.91 185.67 168.95 C 184.76 168.98 184.05 169.75 184.08 170.66 Z M 184.13 171.67 L 184.16 172.63 C 184.18 173.54 184.94 174.25 185.84 174.23 C 186.75 174.20 187.47 173.45 187.44 172.54 L 187.42 171.58 C 187.39 170.67 186.64 169.96 185.73 169.98 C 184.82 170.00 184.10 170.76 184.13 171.67 Z M 184.16 172.60 L 184.17 173.51 C 184.18 174.42 184.92 175.15 185.83 175.13 C 186.74 175.12 187.46 174.38 187.45 173.47 L 187.44 172.56 C 187.43 171.66 186.69 170.93 185.78 170.94 C 184.87 170.95 184.15 171.70 184.16 172.60 Z M 184.17 173.47 L 184.16 174.54 C 184.15 175.45 184.87 176.19 185.78 176.20 C 186.68 176.21 187.42 175.49 187.43 174.58 L 187.45 173.52 C 187.46 172.61 186.74 171.87 185.83 171.86 C 184.93 171.84 184.18 172.57 184.17 173.47 Z M 184.17 174.40 L 184.07 175.44 C 183.98 176.34 184.64 177.14 185.54 177.23 C 186.44 177.32 187.24 176.66 187.33 175.76 L 187.43 174.72 C 187.51 173.82 186.86 173.02 185.96 172.93 C 185.06 172.85 184.25 173.50 184.17 174.40 Z M 184.13 175.13 L 183.86 176.01 C 183.60 176.88 184.09 177.79 184.96 178.05 C 185.82 178.31 186.74 177.82 187.00 176.96 L 187.26 176.07 C 187.52 175.21 187.03 174.29 186.17 174.03 C 185.30 173.77 184.39 174.26 184.13 175.13 Z M 184.14 175.48 L 183.60 176.17 C 183.05 176.88 183.17 177.91 183.89 178.46 C 184.60 179.02 185.63 178.89 186.19 178.18 L 186.72 177.49 C 187.28 176.78 187.15 175.75 186.43 175.19 C 185.72 174.64 184.69 174.77 184.14 175.48 Z M 184.08 175.75 L 183.26 176.22 C 182.47 176.67 182.20 177.67 182.65 178.46 C 183.10 179.24 184.10 179.51 184.88 179.06 L 185.71 178.59 C 186.49 178.14 186.76 177.14 186.31 176.36 C 185.87 175.57 184.86 175.30 184.08 175.75 Z M 183.57 176.09 L 182.58 176.40 C 181.72 176.68 181.25 177.60 181.52 178.46 C 181.80 179.32 182.72 179.80 183.58 179.52 L 184.57 179.20 C 185.43 178.92 185.91 178.00 185.63 177.14 C 185.35 176.28 184.43 175.81 183.57 176.09 Z M 182.68 176.38 L 182.13 176.51 C 181.26 176.74 180.73 177.63 180.95 178.51 C 181.18 179.38 182.07 179.91 182.95 179.69 L 183.49 179.55 C 184.36 179.32 184.89 178.43 184.67 177.56 C 184.44 176.68 183.55 176.15 182.68 176.38 Z"
      fill="black"
      fill-rule="nonzero" /><path d="M 159.96 140.85 L 160.53 140.11 C 161.13 139.32 160.98 138.20 160.20 137.59 C 159.41 136.99 158.28 137.14 157.67 137.93 L 157.11 138.67 C 156.50 139.46 156.65 140.59 157.44 141.19 C 158.23 141.79 159.36 141.64 159.96 140.85 Z M 160.42 140.27 L 161.08 139.58 C 161.77 138.85 161.74 137.70 161.02 137.00 C 160.29 136.31 159.13 136.34 158.44 137.07 L 157.78 137.77 C 157.09 138.50 157.12 139.65 157.85 140.34 C 158.58 141.03 159.73 141.00 160.42 140.27 Z M 160.83 139.82 L 161.68 139.22 C 162.51 138.63 162.70 137.48 162.11 136.65 C 161.52 135.82 160.37 135.63 159.54 136.22 L 158.69 136.83 C 157.86 137.42 157.67 138.57 158.26 139.40 C 158.85 140.22 160.01 140.42 160.83 139.82 Z M 161.36 139.41 L 162.26 139.02 C 163.20 138.60 163.62 137.50 163.20 136.57 C 162.79 135.63 161.69 135.21 160.75 135.63 L 159.86 136.03 C 158.92 136.44 158.50 137.54 158.91 138.47 C 159.33 139.41 160.43 139.83 161.36 139.41 Z M 162.03 139.10 L 162.96 138.82 C 163.94 138.53 164.50 137.50 164.21 136.52 C 163.91 135.54 162.88 134.98 161.90 135.27 L 160.98 135.55 C 160.00 135.84 159.44 136.87 159.73 137.85 C 160.02 138.83 161.05 139.39 162.03 139.10 Z M 162.82 138.85 L 163.83 138.63 C 164.82 138.41 165.45 137.43 165.23 136.44 C 165.02 135.44 164.04 134.81 163.04 135.03 L 162.04 135.25 C 161.04 135.46 160.41 136.45 160.63 137.44 C 160.84 138.44 161.83 139.07 162.82 138.85 Z M 163.74 138.64 L 164.78 138.46 C 165.78 138.29 166.45 137.34 166.28 136.34 C 166.11 135.34 165.16 134.67 164.16 134.84 L 163.12 135.02 C 162.12 135.19 161.45 136.14 161.62 137.14 C 161.80 138.14 162.74 138.81 163.74 138.64 Z M 164.74 138.46 L 165.75 138.31 C 166.75 138.16 167.44 137.23 167.29 136.23 C 167.14 135.23 166.21 134.54 165.22 134.69 L 164.20 134.84 C 163.20 134.99 162.51 135.92 162.66 136.92 C 162.81 137.92 163.74 138.61 164.74 138.46 Z M 165.74 138.29 L 166.75 138.15 C 167.74 138.01 168.42 137.09 168.28 136.10 C 168.14 135.11 167.23 134.43 166.24 134.57 L 165.23 134.71 C 164.24 134.85 163.55 135.76 163.69 136.75 C 163.83 137.74 164.75 138.43 165.74 138.29 Z M 166.73 138.12 L 167.70 137.99 C 168.67 137.86 169.36 136.96 169.22 135.99 C 169.09 135.01 168.20 134.33 167.22 134.46 L 166.25 134.60 C 165.28 134.73 164.60 135.62 164.73 136.60 C 164.86 137.57 165.76 138.25 166.73 138.12 Z M 167.68 137.96 L 168.64 137.84 C 169.60 137.72 170.28 136.84 170.16 135.89 C 170.04 134.93 169.16 134.25 168.21 134.37 L 167.24 134.49 C 166.29 134.61 165.61 135.49 165.73 136.44 C 165.85 137.40 166.72 138.08 167.68 137.96 Z M 168.62 137.81 L 169.61 137.70 C 170.55 137.59 171.23 136.74 171.13 135.80 C 171.02 134.86 170.17 134.18 169.23 134.29 L 168.23 134.40 C 167.29 134.51 166.62 135.36 166.72 136.30 C 166.83 137.24 167.68 137.91 168.62 137.81 Z M 169.59 137.67 L 170.59 137.57 C 171.52 137.48 172.19 136.66 172.10 135.73 C 172.01 134.80 171.19 134.12 170.26 134.21 L 169.26 134.31 C 168.33 134.40 167.65 135.23 167.74 136.16 C 167.83 137.09 168.66 137.76 169.59 137.67 Z M 170.57 137.56 L 171.55 137.48 C 172.47 137.40 173.15 136.59 173.07 135.67 C 172.99 134.74 172.18 134.06 171.26 134.14 L 170.28 134.23 C 169.36 134.31 168.68 135.12 168.76 136.04 C 168.83 136.96 169.65 137.64 170.57 137.56 Z M 171.53 137.47 L 172.55 137.39 C 173.47 137.32 174.15 136.52 174.08 135.60 C 174.01 134.69 173.21 134.00 172.29 134.07 L 171.28 134.15 C 170.36 134.22 169.67 135.02 169.74 135.94 C 169.82 136.86 170.62 137.54 171.53 137.47 Z M 172.54 137.39 L 173.56 137.31 C 174.47 137.25 175.16 136.46 175.10 135.55 C 175.04 134.63 174.25 133.94 173.33 134.01 L 172.31 134.08 C 171.39 134.14 170.70 134.93 170.77 135.85 C 170.83 136.76 171.62 137.45 172.54 137.39 Z M 173.55 137.31 L 174.56 137.24 C 175.47 137.19 176.16 136.40 176.10 135.49 C 176.04 134.59 175.26 133.89 174.35 133.95 L 173.34 134.01 C 172.43 134.07 171.74 134.85 171.80 135.76 C 171.86 136.67 172.64 137.36 173.55 137.31 Z M 174.54 137.24 L 175.56 137.18 C 176.47 137.13 177.16 136.36 177.11 135.45 C 177.06 134.54 176.28 133.85 175.38 133.90 L 174.36 133.96 C 173.46 134.01 172.76 134.78 172.81 135.69 C 172.86 136.59 173.64 137.29 174.54 137.24 Z M 175.55 137.18 L 176.61 137.13 C 177.51 137.09 178.21 136.32 178.17 135.41 C 178.12 134.51 177.36 133.81 176.45 133.85 L 175.39 133.90 C 174.49 133.95 173.79 134.71 173.83 135.62 C 173.87 136.52 174.64 137.22 175.55 137.18 Z M 176.59 137.13 L 177.60 137.09 C 178.50 137.05 179.20 136.29 179.17 135.38 C 179.13 134.48 178.37 133.78 177.46 133.81 L 176.46 133.85 C 175.56 133.89 174.85 134.65 174.89 135.56 C 174.93 136.46 175.69 137.17 176.59 137.13 Z M 177.59 137.09 L 178.55 137.05 C 179.45 137.02 180.16 136.26 180.13 135.36 C 180.10 134.45 179.34 133.75 178.43 133.78 L 177.47 133.81 C 176.57 133.84 175.86 134.60 175.89 135.51 C 175.92 136.41 176.68 137.12 177.59 137.09 Z M 178.55 137.05 L 179.49 137.02 C 180.39 136.99 181.10 136.24 181.07 135.33 C 181.04 134.43 180.28 133.72 179.38 133.75 L 178.44 133.78 C 177.53 133.81 176.83 134.57 176.86 135.47 C 176.89 136.37 177.64 137.08 178.55 137.05 Z M 179.49 137.02 L 179.54 137.02 C 180.45 136.99 181.15 136.23 181.13 135.33 C 181.10 134.43 180.34 133.72 179.44 133.75 L 179.38 133.75 C 178.48 133.78 177.77 134.53 177.80 135.44 C 177.83 136.34 178.58 137.05 179.49 137.02 Z"
      fill="black"
      fill-rule="nonzero" /><path d="M 159.71 155.72 L 160.51 156.12 C 161.41 156.57 162.50 156.20 162.95 155.30 C 163.40 154.41 163.04 153.31 162.14 152.86 L 161.34 152.46 C 160.44 152.01 159.35 152.38 158.90 153.27 C 158.45 154.17 158.81 155.27 159.71 155.72 Z M 160.67 156.19 L 161.54 156.53 C 162.48 156.89 163.54 156.42 163.90 155.47 C 164.26 154.53 163.79 153.48 162.84 153.12 L 161.98 152.78 C 161.04 152.42 159.98 152.89 159.62 153.84 C 159.26 154.78 159.73 155.83 160.67 156.19 Z M 161.84 156.62 L 162.84 156.81 C 163.83 157.01 164.79 156.36 164.98 155.36 C 165.18 154.37 164.53 153.41 163.54 153.22 L 162.54 153.02 C 161.55 152.83 160.59 153.48 160.39 154.47 C 160.20 155.47 160.85 156.43 161.84 156.62 Z M 163.20 156.85 L 164.32 156.84 C 165.33 156.84 166.15 156.01 166.14 155.00 C 166.14 153.98 165.31 153.16 164.29 153.17 L 163.17 153.18 C 162.16 153.18 161.34 154.01 161.35 155.03 C 161.36 156.04 162.18 156.86 163.20 156.85 Z M 164.57 156.82 L 165.42 156.70 C 166.43 156.55 167.12 155.62 166.97 154.61 C 166.82 153.61 165.89 152.92 164.89 153.06 L 164.04 153.19 C 163.03 153.34 162.34 154.27 162.49 155.28 C 162.64 156.28 163.57 156.97 164.57 156.82 Z M 165.55 156.67 L 166.48 156.46 C 167.46 156.24 168.09 155.26 167.87 154.28 C 167.65 153.29 166.67 152.67 165.68 152.89 L 164.76 153.10 C 163.77 153.32 163.15 154.29 163.37 155.28 C 163.59 156.27 164.57 156.89 165.55 156.67 Z M 166.56 156.43 L 167.54 156.17 C 168.51 155.91 169.08 154.90 168.82 153.93 C 168.55 152.96 167.55 152.39 166.58 152.65 L 165.60 152.92 C 164.63 153.18 164.06 154.18 164.32 155.15 C 164.59 156.12 165.59 156.70 166.56 156.43 Z M 167.58 156.15 L 168.59 155.84 C 169.55 155.56 170.10 154.54 169.81 153.58 C 169.52 152.62 168.51 152.08 167.55 152.37 L 166.53 152.67 C 165.57 152.96 165.03 153.97 165.32 154.93 C 165.61 155.89 166.62 156.44 167.58 156.15 Z M 168.61 155.83 L 169.64 155.51 C 170.59 155.21 171.12 154.19 170.82 153.24 C 170.52 152.29 169.50 151.76 168.55 152.06 L 167.53 152.38 C 166.57 152.68 166.04 153.70 166.34 154.65 C 166.64 155.60 167.66 156.13 168.61 155.83 Z M 169.64 155.50 L 170.65 155.18 C 171.60 154.88 172.13 153.87 171.83 152.92 C 171.53 151.97 170.52 151.44 169.57 151.74 L 168.55 152.06 C 167.60 152.36 167.08 153.37 167.38 154.32 C 167.67 155.27 168.69 155.80 169.64 155.50 Z M 170.63 155.17 L 171.68 154.86 C 172.62 154.57 173.16 153.58 172.88 152.63 C 172.59 151.69 171.59 151.15 170.65 151.44 L 169.60 151.75 C 168.65 152.04 168.12 153.03 168.40 153.98 C 168.69 154.92 169.68 155.46 170.63 155.17 Z M 171.65 154.84 L 172.67 154.55 C 173.60 154.28 174.15 153.31 173.88 152.37 C 173.61 151.44 172.64 150.89 171.70 151.16 L 170.68 151.45 C 169.75 151.72 169.20 152.69 169.47 153.63 C 169.74 154.56 170.71 155.11 171.65 154.84 Z M 172.64 154.53 L 173.62 154.27 C 174.55 154.02 175.10 153.07 174.85 152.14 C 174.60 151.21 173.65 150.67 172.72 150.91 L 171.74 151.18 C 170.81 151.43 170.26 152.38 170.51 153.30 C 170.76 154.23 171.71 154.78 172.64 154.53 Z M 173.59 154.25 L 174.54 154.01 C 175.46 153.78 176.01 152.85 175.78 151.93 C 175.55 151.02 174.62 150.46 173.70 150.69 L 172.75 150.93 C 171.84 151.16 171.28 152.09 171.52 153.01 C 171.75 153.92 172.68 154.48 173.59 154.25 Z M 174.51 153.99 L 175.42 153.77 C 176.32 153.56 176.88 152.65 176.67 151.75 C 176.46 150.84 175.55 150.28 174.65 150.50 L 173.74 150.71 C 172.83 150.93 172.27 151.83 172.48 152.74 C 172.70 153.64 173.60 154.20 174.51 153.99 Z M 175.39 153.76 L 176.29 153.56 C 177.18 153.36 177.75 152.48 177.55 151.58 C 177.35 150.69 176.47 150.12 175.58 150.32 L 174.68 150.51 C 173.78 150.71 173.22 151.60 173.41 152.49 C 173.61 153.39 174.49 153.95 175.39 153.76 Z M 176.25 153.55 L 177.31 153.34 C 178.20 153.16 178.77 152.29 178.60 151.40 C 178.42 150.51 177.55 149.93 176.66 150.11 L 175.61 150.32 C 174.72 150.50 174.14 151.37 174.32 152.26 C 174.50 153.15 175.36 153.73 176.25 153.55 Z M 177.28 153.34 L 178.28 153.16 C 179.17 153.00 179.76 152.14 179.60 151.25 C 179.43 150.36 178.58 149.76 177.69 149.93 L 176.69 150.11 C 175.79 150.27 175.20 151.13 175.36 152.02 C 175.53 152.92 176.38 153.51 177.28 153.34 Z M 178.25 153.16 L 179.21 153.00 C 180.11 152.85 180.71 152.00 180.56 151.11 C 180.41 150.22 179.56 149.61 178.67 149.76 L 177.71 149.93 C 176.81 150.08 176.21 150.92 176.36 151.82 C 176.51 152.71 177.36 153.31 178.25 153.16 Z M 179.20 153.00 L 180.14 152.85 C 181.03 152.71 181.64 151.87 181.50 150.98 C 181.36 150.08 180.52 149.47 179.62 149.61 L 178.68 149.76 C 177.79 149.91 177.18 150.75 177.32 151.64 C 177.46 152.54 178.30 153.14 179.20 153.00 Z M 180.13 152.85 L 180.54 152.79 C 181.43 152.65 182.04 151.81 181.90 150.92 C 181.76 150.02 180.93 149.41 180.03 149.55 L 179.63 149.62 C 178.73 149.76 178.12 150.59 178.26 151.49 C 178.40 152.38 179.24 152.99 180.13 152.85 Z"
      fill="black"
      fill-rule="nonzero" /><path d="M 158.61 182.94 L 159.60 182.90 C 160.59 182.86 161.36 182.03 161.32 181.04 C 161.28 180.05 160.45 179.28 159.46 179.32 L 158.47 179.36 C 157.48 179.40 156.71 180.23 156.74 181.22 C 156.78 182.21 157.62 182.98 158.61 182.94 Z M 159.59 182.94 L 160.59 182.90 C 161.60 182.87 162.39 182.02 162.35 181.01 C 162.32 180.00 161.47 179.21 160.46 179.25 L 159.46 179.29 C 158.45 179.32 157.67 180.17 157.70 181.18 C 157.74 182.19 158.58 182.98 159.59 182.94 Z M 160.58 182.94 L 161.58 182.91 C 162.61 182.88 163.42 182.03 163.39 181.00 C 163.37 179.97 162.51 179.15 161.48 179.18 L 160.47 179.21 C 159.44 179.24 158.63 180.10 158.66 181.13 C 158.69 182.16 159.55 182.97 160.58 182.94 Z M 161.56 182.94 L 162.53 182.92 C 163.58 182.90 164.41 182.04 164.39 181.00 C 164.37 179.95 163.51 179.12 162.47 179.14 L 161.50 179.16 C 160.45 179.18 159.62 180.04 159.64 181.08 C 159.66 182.13 160.52 182.96 161.56 182.94 Z M 162.52 182.92 L 163.49 182.91 C 164.54 182.90 165.37 182.04 165.36 181.00 C 165.35 179.95 164.49 179.12 163.45 179.13 L 162.48 179.14 C 161.43 179.15 160.60 180.01 160.61 181.05 C 160.62 182.10 161.48 182.94 162.52 182.92 Z M 163.49 182.91 L 164.50 182.90 C 165.54 182.89 166.38 182.04 166.37 180.99 C 166.36 179.95 165.50 179.11 164.46 179.12 L 163.45 179.13 C 162.41 179.14 161.57 179.99 161.58 181.04 C 161.59 182.08 162.44 182.92 163.49 182.91 Z M 164.50 182.90 L 165.55 182.88 C 166.59 182.87 167.43 182.01 167.41 180.97 C 167.40 179.93 166.54 179.09 165.50 179.11 L 164.45 179.12 C 163.41 179.14 162.57 179.99 162.59 181.04 C 162.60 182.08 163.46 182.91 164.50 182.90 Z M 165.57 182.88 L 166.47 182.86 C 167.51 182.84 168.34 181.97 168.32 180.93 C 168.29 179.89 167.43 179.07 166.39 179.09 L 165.48 179.11 C 164.44 179.13 163.62 180.00 163.64 181.04 C 163.66 182.08 164.53 182.90 165.57 182.88 Z M 166.50 182.86 L 167.46 182.82 C 168.49 182.79 169.31 181.92 169.27 180.88 C 169.23 179.84 168.36 179.03 167.33 179.06 L 166.37 179.10 C 165.33 179.13 164.52 180.00 164.55 181.04 C 164.59 182.08 165.46 182.89 166.50 182.86 Z M 167.49 182.82 L 168.50 182.76 C 169.54 182.71 170.33 181.83 170.28 180.79 C 170.23 179.76 169.34 178.96 168.31 179.02 L 167.29 179.07 C 166.26 179.12 165.46 180.00 165.52 181.04 C 165.57 182.07 166.45 182.87 167.49 182.82 Z M 168.54 182.76 L 169.62 182.68 C 170.65 182.61 171.42 181.71 171.35 180.68 C 171.28 179.65 170.38 178.87 169.35 178.94 L 168.27 179.02 C 167.24 179.10 166.46 179.99 166.54 181.02 C 166.61 182.06 167.51 182.83 168.54 182.76 Z M 169.66 182.67 L 170.60 182.58 C 171.63 182.49 172.39 181.58 172.29 180.55 C 172.19 179.52 171.28 178.77 170.26 178.87 L 169.31 178.95 C 168.28 179.05 167.53 179.96 167.62 180.99 C 167.72 182.01 168.63 182.77 169.66 182.67 Z M 170.64 182.57 L 171.52 182.47 C 172.54 182.36 173.27 181.44 173.16 180.42 C 173.05 179.40 172.13 178.67 171.11 178.78 L 170.23 178.88 C 169.21 178.99 168.47 179.91 168.59 180.93 C 168.70 181.95 169.62 182.68 170.64 182.57 Z M 171.54 182.46 L 172.48 182.34 C 173.49 182.21 174.20 181.29 174.07 180.28 C 173.95 179.27 173.02 178.55 172.01 178.68 L 171.08 178.80 C 170.07 178.92 169.36 179.85 169.48 180.86 C 169.61 181.87 170.53 182.58 171.54 182.46 Z M 172.50 182.32 L 173.48 182.19 C 174.49 182.05 175.19 181.12 175.05 180.12 C 174.91 179.12 173.98 178.42 172.98 178.56 L 171.99 178.69 C 170.99 178.83 170.29 179.76 170.43 180.76 C 170.57 181.76 171.50 182.46 172.50 182.32 Z M 173.50 182.17 L 174.55 182.01 C 175.55 181.86 176.23 180.94 176.08 179.94 C 175.93 178.95 175.01 178.26 174.01 178.41 L 172.96 178.57 C 171.97 178.72 171.28 179.65 171.43 180.64 C 171.58 181.64 172.51 182.32 173.50 182.17 Z M 174.57 182.00 L 175.69 181.82 C 176.67 181.66 177.34 180.74 177.19 179.75 C 177.03 178.76 176.10 178.09 175.12 178.25 L 174.00 178.43 C 173.01 178.58 172.34 179.51 172.50 180.50 C 172.65 181.48 173.58 182.16 174.57 182.00 Z M 175.70 181.80 L 176.74 181.63 C 177.72 181.47 178.38 180.54 178.22 179.56 C 178.05 178.59 177.13 177.93 176.15 178.09 L 175.11 178.26 C 174.13 178.43 173.47 179.35 173.63 180.33 C 173.79 181.31 174.72 181.97 175.70 181.80 Z M 176.75 181.61 L 177.74 181.44 C 178.70 181.28 179.35 180.36 179.19 179.39 C 179.02 178.42 178.10 177.77 177.14 177.94 L 176.14 178.11 C 175.18 178.27 174.53 179.19 174.69 180.16 C 174.86 181.13 175.78 181.78 176.75 181.61 Z M 177.74 181.43 L 178.75 181.25 C 179.71 181.08 180.35 180.17 180.19 179.21 C 180.02 178.25 179.11 177.61 178.15 177.78 L 177.13 177.96 C 176.18 178.12 175.53 179.03 175.70 179.99 C 175.87 180.95 176.78 181.59 177.74 181.43 Z M 178.75 181.23 L 179.78 181.05 C 180.73 180.89 181.36 179.99 181.20 179.04 C 181.03 178.09 180.13 177.45 179.18 177.62 L 178.15 177.80 C 177.21 177.96 176.57 178.86 176.73 179.81 C 176.90 180.76 177.80 181.40 178.75 181.23 Z M 179.77 181.04 L 180.79 180.86 C 181.73 180.70 182.36 179.81 182.20 178.87 C 182.04 177.93 181.14 177.30 180.20 177.46 L 179.19 177.63 C 178.25 177.80 177.62 178.69 177.78 179.63 C 177.94 180.57 178.83 181.20 179.77 181.04 Z M 180.78 180.84 L 181.78 180.68 C 182.71 180.52 183.34 179.64 183.18 178.71 C 183.02 177.78 182.14 177.15 181.21 177.31 L 180.21 177.48 C 179.28 177.63 178.66 178.51 178.81 179.44 C 178.97 180.37 179.85 181.00 180.78 180.84 Z M 181.77 180.66 L 182.73 180.50 C 183.65 180.35 184.27 179.48 184.12 178.56 C 183.97 177.64 183.10 177.02 182.18 177.17 L 181.22 177.32 C 180.30 177.47 179.68 178.34 179.83 179.26 C 179.98 180.19 180.85 180.81 181.77 180.66 Z M 182.71 180.49 L 183.63 180.35 C 184.54 180.20 185.17 179.35 185.02 178.44 C 184.88 177.52 184.03 176.90 183.11 177.04 L 182.20 177.18 C 181.29 177.32 180.66 178.18 180.80 179.09 C 180.94 180.00 181.80 180.63 182.71 180.49 Z M 183.60 180.34 L 184.78 180.17 C 185.68 180.04 186.32 179.20 186.19 178.29 C 186.06 177.39 185.22 176.75 184.31 176.88 L 183.14 177.05 C 182.23 177.18 181.60 178.02 181.72 178.92 C 181.85 179.83 182.69 180.47 183.60 180.34 Z M 184.75 180.17 L 185.81 180.04 C 186.72 179.93 187.36 179.10 187.25 178.19 C 187.13 177.28 186.31 176.64 185.40 176.75 L 184.34 176.88 C 183.43 177.00 182.79 177.82 182.90 178.73 C 183.01 179.64 183.84 180.28 184.75 180.17 Z M 185.78 180.04 L 186.76 179.93 C 187.66 179.83 188.32 179.02 188.22 178.11 C 188.12 177.20 187.31 176.55 186.40 176.65 L 185.42 176.75 C 184.52 176.85 183.86 177.67 183.96 178.57 C 184.06 179.48 184.88 180.14 185.78 180.04 Z M 186.73 179.93 L 187.65 179.84 C 188.55 179.75 189.22 178.95 189.13 178.04 C 189.04 177.14 188.24 176.48 187.33 176.56 L 186.42 176.65 C 185.51 176.74 184.85 177.54 184.94 178.45 C 185.03 179.35 185.83 180.01 186.73 179.93 Z M 187.63 179.84 L 188.51 179.76 C 189.42 179.68 190.08 178.88 190.00 177.98 C 189.92 177.08 189.13 176.41 188.23 176.49 L 187.35 176.57 C 186.44 176.65 185.78 177.44 185.86 178.35 C 185.94 179.25 186.73 179.92 187.63 179.84 Z M 188.51 179.76 L 188.78 179.73 C 189.68 179.65 190.35 178.86 190.27 177.96 C 190.19 177.06 189.40 176.39 188.50 176.47 L 188.23 176.49 C 187.33 176.57 186.66 177.36 186.74 178.26 C 186.82 179.16 187.61 179.83 188.51 179.76 Z"
      fill="black"
      fill-rule="nonzero" /></svg>