<svg xmlns="http://www.w3.org/2000/svg" width="300" height="300" viewBox="0 0 300 300">
<path d="M 142.10 138.20 L 141.20 138.65 C 140.34 139.08 139.99 140.13 140.42 141.00 C 140.86 141.86 141.90 142.21 142.77 141.77 L 143.67 141.32 C 144.53 140.89 144.88 139.84 144.45 138.98 C 144.02 138.12 142.97 137.77 142.10 138.20 Z M 141.01 138.72 L 140.19 139.26 C 139.36 139.79 139.13 140.90 139.66 141.72 C 140.20 142.55 141.30 142.78 142.13 142.24 L 142.96 141.71 C 143.78 141.17 144.01 140.07 143.48 139.24 C 142.94 138.42 141.84 138.18 141.01 138.72 Z M 139.85 139.50 L 139.17 140.20 C 138.48 140.93 138.50 142.08 139.23 142.77 C 139.95 143.46 141.10 143.44 141.79 142.71 L 142.47 142.00 C 143.16 141.28 143.14 140.13 142.41 139.44 C 141.69 138.74 140.54 138.77 139.85 139.50 Z M 138.84 140.63 L 138.42 141.46 C 137.97 142.37 138.33 143.47 139.24 143.93 C 140.15 144.39 141.26 144.02 141.71 143.11 L 142.13 142.28 C 142.58 141.38 142.22 140.27 141.31 139.81 C 140.40 139.36 139.29 139.72 138.84 140.63 Z M 138.27 141.83 L 138.04 142.75 C 137.78 143.75 138.39 144.76 139.38 145.01 C 140.37 145.26 141.38 144.66 141.63 143.66 L 141.87 142.74 C 142.12 141.74 141.51 140.74 140.52 140.49 C 139.53 140.23 138.52 140.84 138.27 141.83 Z M 137.98 142.99 L 137.86 144.01 C 137.74 145.04 138.48 145.96 139.50 146.08 C 140.52 146.20 141.45 145.47 141.56 144.45 L 141.68 143.42 C 141.80 142.40 141.07 141.48 140.05 141.36 C 139.03 141.24 138.10 141.97 137.98 142.99 Z M 137.84 144.17 L 137.81 145.23 C 137.77 146.26 138.58 147.13 139.62 147.16 C 140.65 147.20 141.51 146.39 141.55 145.36 L 141.58 144.29 C 141.62 143.26 140.81 142.39 139.78 142.36 C 138.74 142.33 137.88 143.13 137.84 144.17 Z M 137.80 145.33 L 137.82 146.41 C 137.84 147.44 138.70 148.27 139.73 148.25 C 140.77 148.23 141.59 147.37 141.58 146.34 L 141.56 145.26 C 141.54 144.22 140.68 143.40 139.64 143.42 C 138.61 143.43 137.78 144.29 137.80 145.33 Z M 137.82 146.50 L 137.89 147.55 C 137.96 148.59 138.86 149.37 139.90 149.30 C 140.93 149.23 141.72 148.33 141.65 147.29 L 141.57 146.24 C 141.50 145.21 140.61 144.42 139.57 144.49 C 138.53 144.56 137.75 145.46 137.82 146.50 Z M 137.91 147.68 L 138.04 148.66 C 138.18 149.69 139.13 150.41 140.16 150.27 C 141.19 150.13 141.91 149.18 141.77 148.15 L 141.63 147.16 C 141.49 146.13 140.54 145.41 139.51 145.56 C 138.48 145.70 137.76 146.65 137.91 147.68 Z M 138.07 148.84 L 138.29 149.75 C 138.53 150.76 139.54 151.39 140.55 151.15 C 141.57 150.91 142.19 149.90 141.95 148.88 L 141.74 147.98 C 141.50 146.96 140.49 146.33 139.47 146.57 C 138.46 146.81 137.83 147.83 138.07 148.84 Z M 138.36 149.99 L 138.72 150.92 C 139.09 151.89 140.18 152.38 141.15 152.01 C 142.12 151.63 142.61 150.54 142.24 149.57 L 141.88 148.64 C 141.51 147.67 140.42 147.18 139.45 147.56 C 138.47 147.93 137.99 149.02 138.36 149.99 Z M 138.84 151.18 L 139.34 152.05 C 139.86 152.96 141.01 153.27 141.91 152.75 C 142.82 152.24 143.13 151.08 142.61 150.18 L 142.11 149.31 C 141.60 148.41 140.44 148.09 139.54 148.61 C 138.64 149.13 138.32 150.28 138.84 151.18 Z M 139.48 152.26 L 140.07 153.04 C 140.71 153.87 141.89 154.02 142.72 153.39 C 143.54 152.76 143.70 151.57 143.07 150.75 L 142.47 149.97 C 141.84 149.14 140.66 148.99 139.83 149.62 C 139.00 150.25 138.85 151.44 139.48 152.26 Z M 140.19 153.18 L 140.85 153.88 C 141.56 154.64 142.75 154.68 143.51 153.97 C 144.27 153.26 144.31 152.07 143.60 151.31 L 142.95 150.61 C 142.24 149.84 141.04 149.80 140.28 150.52 C 139.52 151.23 139.48 152.42 140.19 153.18 Z M 140.97 154.00 L 141.69 154.64 C 142.47 155.33 143.66 155.27 144.35 154.49 C 145.04 153.71 144.97 152.52 144.20 151.83 L 143.48 151.19 C 142.70 150.50 141.51 150.56 140.82 151.34 C 140.13 152.12 140.19 153.31 140.97 154.00 Z M 141.86 154.77 L 142.67 155.35 C 143.52 155.95 144.70 155.75 145.30 154.90 C 145.90 154.05 145.70 152.88 144.85 152.28 L 144.03 151.70 C 143.18 151.10 142.01 151.30 141.41 152.15 C 140.81 153.00 141.01 154.17 141.86 154.77 Z M 142.87 155.47 L 143.78 155.96 C 144.70 156.45 145.84 156.11 146.33 155.20 C 146.82 154.28 146.48 153.14 145.57 152.65 L 144.65 152.16 C 143.74 151.66 142.60 152.01 142.10 152.92 C 141.61 153.84 141.96 154.98 142.87 155.47 Z M 143.96 156.04 L 144.84 156.40 C 145.80 156.80 146.90 156.34 147.30 155.38 C 147.69 154.42 147.23 153.32 146.27 152.93 L 145.39 152.57 C 144.43 152.17 143.33 152.63 142.94 153.59 C 142.54 154.55 143.00 155.65 143.96 156.04 Z M 144.99 156.45 L 145.94 156.76 C 146.93 157.07 147.99 156.52 148.30 155.54 C 148.61 154.55 148.07 153.49 147.08 153.18 L 146.12 152.88 C 145.14 152.56 144.08 153.11 143.77 154.10 C 143.45 155.09 144.00 156.14 144.99 156.45 Z M 146.08 156.79 L 147.08 157.03 C 148.09 157.27 149.10 156.65 149.34 155.64 C 149.58 154.64 148.96 153.63 147.95 153.39 L 146.95 153.15 C 145.94 152.91 144.93 153.53 144.69 154.53 C 144.45 155.54 145.07 156.55 146.08 156.79 Z M 147.21 157.05 L 148.24 157.22 C 149.26 157.39 150.22 156.70 150.39 155.69 C 150.56 154.67 149.87 153.70 148.85 153.54 L 147.82 153.36 C 146.80 153.20 145.84 153.88 145.67 154.90 C 145.50 155.92 146.19 156.88 147.21 157.05 Z M 148.38 157.24 L 149.44 157.33 C 150.47 157.42 151.37 156.66 151.46 155.64 C 151.55 154.61 150.80 153.71 149.77 153.62 L 148.71 153.52 C 147.69 153.43 146.78 154.19 146.69 155.22 C 146.60 156.24 147.36 157.15 148.38 157.24 Z M 149.61 157.33 L 150.63 157.33 C 151.66 157.33 152.49 156.49 152.49 155.46 C 152.48 154.44 151.65 153.61 150.62 153.61 L 149.60 153.61 C 148.57 153.62 147.74 154.45 147.74 155.48 C 147.75 156.51 148.58 157.34 149.61 157.33 Z M 150.85 157.31 L 151.80 157.20 C 152.82 157.08 153.55 156.15 153.42 155.13 C 153.30 154.12 152.38 153.39 151.36 153.51 L 150.41 153.63 C 149.39 153.75 148.66 154.67 148.78 155.69 C 148.91 156.71 149.83 157.43 150.85 157.31 Z M 152.09 157.14 L 153.00 156.88 C 153.99 156.60 154.56 155.57 154.28 154.59 C 154.00 153.60 152.97 153.03 151.99 153.31 L 151.07 153.57 C 150.09 153.86 149.52 154.88 149.80 155.86 C 150.08 156.85 151.10 157.42 152.09 157.14 Z M 153.35 156.74 L 154.23 156.28 C 155.14 155.80 155.49 154.69 155.02 153.78 C 154.55 152.88 153.43 152.52 152.52 153.00 L 151.64 153.46 C 150.73 153.93 150.38 155.04 150.85 155.95 C 151.33 156.85 152.44 157.21 153.35 156.74 Z M 154.52 156.09 L 155.29 155.48 C 156.09 154.84 156.23 153.68 155.60 152.88 C 154.97 152.08 153.80 151.94 153.00 152.58 L 152.23 153.19 C 151.43 153.82 151.30 154.98 151.93 155.78 C 152.56 156.58 153.72 156.72 154.52 156.09 Z M 155.48 155.31 L 156.17 154.59 C 156.88 153.85 156.85 152.69 156.12 151.98 C 155.39 151.27 154.22 151.29 153.51 152.03 L 152.82 152.75 C 152.11 153.48 152.13 154.65 152.87 155.36 C 153.60 156.06 154.77 156.04 155.48 155.31 Z M 156.27 154.47 L 156.89 153.71 C 157.53 152.92 157.40 151.76 156.61 151.12 C 155.82 150.48 154.66 150.60 154.02 151.39 L 153.41 152.15 C 152.77 152.94 152.89 154.10 153.68 154.74 C 154.47 155.38 155.63 155.26 156.27 154.47 Z M 156.96 153.61 L 157.53 152.79 C 158.12 151.96 157.92 150.81 157.08 150.22 C 156.25 149.64 155.10 149.84 154.52 150.67 L 153.94 151.49 C 153.36 152.33 153.56 153.48 154.39 154.06 C 155.23 154.64 156.38 154.44 156.96 153.61 Z M 157.59 152.69 L 158.13 151.82 C 158.66 150.96 158.39 149.82 157.52 149.29 C 156.66 148.76 155.53 149.03 154.99 149.90 L 154.46 150.77 C 153.93 151.63 154.20 152.77 155.06 153.30 C 155.93 153.83 157.06 153.56 157.59 152.69 Z M 158.18 151.73 L 158.66 150.84 C 159.14 149.94 158.81 148.83 157.92 148.35 C 157.03 147.86 155.91 148.20 155.43 149.09 L 154.94 149.99 C 154.46 150.88 154.79 151.99 155.69 152.48 C 156.58 152.96 157.69 152.63 158.18 151.73 Z M 158.71 150.74 L 159.14 149.83 C 159.57 148.91 159.18 147.82 158.26 147.39 C 157.34 146.96 156.25 147.35 155.82 148.27 L 155.39 149.18 C 154.95 150.10 155.35 151.19 156.26 151.62 C 157.18 152.06 158.28 151.66 158.71 150.74 Z M 159.18 149.72 L 159.55 148.79 C 159.92 147.85 159.46 146.79 158.52 146.42 C 157.58 146.04 156.51 146.50 156.14 147.44 L 155.77 148.37 C 155.40 149.31 155.86 150.38 156.80 150.75 C 157.74 151.12 158.81 150.66 159.18 149.72 Z M 159.59 148.67 L 159.88 147.74 C 160.19 146.77 159.65 145.74 158.69 145.44 C 157.72 145.14 156.69 145.67 156.39 146.64 L 156.10 147.57 C 155.79 148.54 156.33 149.56 157.30 149.87 C 158.26 150.17 159.29 149.63 159.59 148.67 Z M 159.92 147.59 L 160.14 146.63 C 160.36 145.65 159.75 144.67 158.76 144.44 C 157.77 144.22 156.79 144.84 156.57 145.82 L 156.35 146.78 C 156.13 147.77 156.75 148.75 157.73 148.97 C 158.72 149.20 159.70 148.58 159.92 147.59 Z M 160.17 146.50 L 160.31 145.52 C 160.46 144.52 159.77 143.59 158.77 143.44 C 157.77 143.29 156.84 143.98 156.69 144.98 L 156.54 145.96 C 156.40 146.96 157.09 147.89 158.09 148.04 C 159.09 148.19 160.02 147.50 160.17 146.50 Z M 160.32 145.41 L 160.41 144.40 C 160.50 143.39 159.75 142.50 158.75 142.41 C 157.74 142.33 156.85 143.07 156.76 144.08 L 156.68 145.09 C 156.59 146.10 157.33 146.99 158.34 147.08 C 159.35 147.16 160.23 146.42 160.32 145.41 Z M 160.42 144.32 L 160.46 143.31 C 160.50 142.30 159.72 141.44 158.71 141.40 C 157.70 141.36 156.85 142.14 156.80 143.15 L 156.76 144.16 C 156.72 145.17 157.50 146.02 158.51 146.07 C 159.52 146.11 160.37 145.33 160.42 144.32 Z M 160.46 143.18 L 160.44 142.17 C 160.41 141.16 159.57 140.36 158.56 140.39 C 157.55 140.41 156.75 141.25 156.78 142.26 L 156.80 143.27 C 156.83 144.29 157.67 145.08 158.68 145.06 C 159.69 145.03 160.49 144.19 160.46 143.18 Z M 160.42 141.96 L 160.28 140.96 C 160.13 139.96 159.21 139.27 158.21 139.41 C 157.21 139.55 156.51 140.48 156.65 141.48 L 156.79 142.47 C 156.94 143.47 157.86 144.17 158.86 144.03 C 159.87 143.88 160.56 142.96 160.42 141.96 Z M 160.20 140.65 L 159.90 139.72 C 159.58 138.76 158.54 138.24 157.58 138.56 C 156.62 138.88 156.10 139.92 156.42 140.88 L 156.73 141.80 C 157.05 142.76 158.08 143.28 159.04 142.96 C 160.00 142.64 160.52 141.61 160.20 140.65 Z M 159.72 139.35 L 159.22 138.53 C 158.70 137.67 157.57 137.40 156.71 137.92 C 155.84 138.45 155.57 139.57 156.10 140.44 L 156.60 141.25 C 157.12 142.12 158.25 142.39 159.11 141.86 C 159.97 141.33 160.25 140.21 159.72 139.35 Z M 158.99 138.23 L 158.31 137.51 C 157.62 136.78 156.46 136.75 155.73 137.44 C 155.00 138.14 154.97 139.29 155.66 140.03 L 156.33 140.74 C 157.03 141.47 158.18 141.50 158.92 140.81 C 159.65 140.12 159.68 138.96 158.99 138.23 Z M 158.07 137.30 L 157.25 136.69 C 156.44 136.09 155.30 136.26 154.70 137.07 C 154.10 137.88 154.27 139.03 155.08 139.63 L 155.90 140.24 C 156.71 140.84 157.85 140.67 158.45 139.86 C 159.05 139.05 158.88 137.90 158.07 137.30 Z M 157.04 136.56 L 156.16 136.09 C 155.28 135.60 154.17 135.93 153.69 136.81 C 153.21 137.69 153.53 138.80 154.42 139.28 L 155.29 139.76 C 156.17 140.24 157.28 139.92 157.76 139.03 C 158.24 138.15 157.92 137.04 157.04 136.56 Z M 155.99 136.01 L 155.13 135.65 C 154.20 135.27 153.14 135.71 152.75 136.63 C 152.37 137.56 152.81 138.62 153.74 139.00 L 154.60 139.36 C 155.52 139.74 156.58 139.31 156.97 138.38 C 157.35 137.45 156.91 136.39 155.99 136.01 Z M 154.97 135.61 L 154.04 135.31 C 153.09 135.01 152.08 135.54 151.78 136.49 C 151.48 137.44 152.01 138.46 152.96 138.76 L 153.89 139.05 C 154.84 139.35 155.85 138.82 156.15 137.87 C 156.45 136.92 155.92 135.91 154.97 135.61 Z M 153.90 135.29 L 152.90 135.05 C 151.93 134.83 150.97 135.43 150.74 136.39 C 150.52 137.36 151.12 138.32 152.08 138.55 L 153.09 138.78 C 154.06 139.01 155.02 138.41 155.24 137.44 C 155.47 136.48 154.87 135.51 153.90 135.29 Z M 152.78 135.04 L 151.70 134.86 C 150.72 134.70 149.81 135.36 149.65 136.33 C 149.49 137.31 150.15 138.22 151.12 138.38 L 152.20 138.56 C 153.17 138.72 154.09 138.06 154.25 137.09 C 154.41 136.12 153.75 135.20 152.78 135.04 Z M 151.60 134.86 L 150.61 134.75 C 149.63 134.65 148.76 135.35 148.65 136.32 C 148.55 137.29 149.25 138.17 150.22 138.27 L 151.22 138.38 C 152.19 138.49 153.06 137.79 153.17 136.82 C 153.27 135.84 152.57 134.97 151.60 134.86 Z M 150.52 134.76 L 149.50 134.70 C 148.53 134.65 147.70 135.38 147.64 136.35 C 147.58 137.31 148.32 138.14 149.29 138.20 L 150.31 138.26 C 151.28 138.32 152.11 137.59 152.16 136.62 C 152.22 135.65 151.48 134.82 150.52 134.76 Z M 149.40 134.72 L 148.38 134.71 C 147.42 134.70 146.64 135.47 146.63 136.43 C 146.62 137.39 147.40 138.17 148.35 138.18 L 149.38 138.19 C 150.34 138.20 151.12 137.42 151.13 136.47 C 151.13 135.51 150.36 134.72 149.40 134.72 Z M 148.27 134.73 L 147.27 134.78 C 146.33 134.83 145.60 135.64 145.65 136.59 C 145.70 137.54 146.51 138.27 147.46 138.22 L 148.46 138.16 C 149.41 138.11 150.13 137.30 150.08 136.35 C 150.03 135.41 149.22 134.68 148.27 134.73 Z M 147.15 134.81 L 146.20 134.93 C 145.27 135.05 144.61 135.91 144.73 136.84 C 144.85 137.77 145.70 138.43 146.63 138.31 L 147.58 138.19 C 148.51 138.07 149.17 137.22 149.05 136.28 C 148.93 135.35 148.08 134.69 147.15 134.81 Z M 146.04 134.98 L 145.01 135.21 C 144.10 135.42 143.54 136.33 143.74 137.23 C 143.95 138.14 144.86 138.71 145.76 138.50 L 146.79 138.26 C 147.70 138.06 148.27 137.15 148.06 136.24 C 147.85 135.34 146.95 134.77 146.04 134.98 Z M 144.85 135.27 L 143.88 135.60 C 143.01 135.90 142.54 136.85 142.84 137.73 C 143.14 138.60 144.09 139.07 144.97 138.77 L 145.93 138.44 C 146.80 138.14 147.27 137.19 146.97 136.32 C 146.67 135.44 145.72 134.98 144.85 135.27 Z M 143.76 135.66 L 142.87 136.06 C 142.03 136.42 141.64 137.40 142.01 138.24 C 142.38 139.08 143.36 139.47 144.20 139.10 L 145.09 138.71 C 145.93 138.34 146.32 137.36 145.95 136.52 C 145.58 135.68 144.60 135.30 143.76 135.66 Z M 142.80 136.10 L 141.94 136.53 C 141.13 136.93 140.80 137.92 141.20 138.74 C 141.61 139.55 142.60 139.88 143.41 139.48 L 144.27 139.05 C 145.08 138.65 145.41 137.66 145.01 136.84 C 144.60 136.03 143.61 135.70 142.80 136.10 Z M 141.92 136.55 L 141.60 136.71 C 140.80 137.13 140.48 138.12 140.90 138.92 C 141.32 139.73 142.31 140.04 143.11 139.62 L 143.43 139.46 C 144.23 139.04 144.55 138.05 144.13 137.25 C 143.72 136.45 142.73 136.13 141.92 136.55 Z"
      fill="black"
      fill-rule="nonzero" /></svg>