<svg xmlns="http://www.w3.org/2000/svg" width="300" height="300" viewBox="0 0 300 300">
<path d="M 139.01 146.91 L 138.45 147.78 C 137.93 148.61 138.17 149.70 138.99 150.22 C 139.82 150.74 140.91 150.50 141.43 149.68 L 141.99 148.80 C 142.51 147.98 142.27 146.89 141.45 146.36 C 140.62 145.84 139.53 146.08 139.01 146.91 Z M 138.42 147.80 L 137.89 148.67 C 137.37 149.51 137.64 150.61 138.47 151.12 C 139.31 151.64 140.41 151.37 140.93 150.54 L 141.46 149.66 C 141.98 148.82 141.71 147.73 140.87 147.21 C 140.03 146.70 138.94 146.96 138.42 147.80 Z M 137.84 148.72 L 137.35 149.57 C 136.86 150.44 137.17 151.54 138.04 152.03 C 138.90 152.52 140.00 152.21 140.49 151.35 L 140.97 150.49 C 141.46 149.62 141.16 148.53 140.29 148.04 C 139.43 147.55 138.33 147.85 137.84 148.72 Z M 137.29 149.66 L 136.87 150.51 C 136.43 151.41 136.80 152.50 137.70 152.95 C 138.60 153.39 139.69 153.02 140.14 152.11 L 140.55 151.26 C 141.00 150.36 140.62 149.27 139.72 148.83 C 138.82 148.39 137.73 148.76 137.29 149.66 Z M 136.79 150.66 L 136.44 151.56 C 136.08 152.51 136.56 153.57 137.50 153.93 C 138.45 154.29 139.51 153.82 139.87 152.87 L 140.22 151.97 C 140.58 151.02 140.10 149.96 139.16 149.60 C 138.21 149.24 137.15 149.71 136.79 150.66 Z M 136.37 151.76 L 136.13 152.70 C 135.87 153.69 136.47 154.69 137.46 154.95 C 138.45 155.20 139.45 154.60 139.71 153.62 L 139.95 152.68 C 140.20 151.69 139.60 150.68 138.62 150.43 C 137.63 150.17 136.62 150.77 136.37 151.76 Z M 136.07 152.90 L 135.93 153.93 C 135.79 154.95 136.50 155.89 137.52 156.03 C 138.54 156.17 139.48 155.46 139.62 154.44 L 139.76 153.41 C 139.90 152.39 139.19 151.45 138.17 151.31 C 137.15 151.17 136.21 151.88 136.07 152.90 Z M 135.90 154.10 L 135.86 155.09 C 135.81 156.12 136.61 157.00 137.64 157.05 C 138.67 157.10 139.55 156.30 139.60 155.26 L 139.65 154.28 C 139.69 153.24 138.90 152.37 137.86 152.32 C 136.83 152.27 135.95 153.07 135.90 154.10 Z M 135.85 155.23 L 135.88 156.25 C 135.92 157.28 136.78 158.10 137.82 158.07 C 138.85 158.03 139.67 157.17 139.64 156.13 L 139.61 155.12 C 139.57 154.08 138.71 153.27 137.67 153.30 C 136.63 153.33 135.82 154.20 135.85 155.23 Z M 135.89 156.41 L 136.01 157.43 C 136.14 158.46 137.07 159.20 138.11 159.08 C 139.14 158.95 139.87 158.02 139.75 156.99 L 139.63 155.97 C 139.50 154.93 138.57 154.20 137.54 154.32 C 136.50 154.44 135.77 155.38 135.89 156.41 Z M 136.05 157.64 L 136.28 158.62 C 136.51 159.63 137.53 160.26 138.54 160.02 C 139.56 159.78 140.18 158.76 139.95 157.75 L 139.72 156.78 C 139.48 155.76 138.46 155.14 137.45 155.37 C 136.44 155.61 135.81 156.63 136.05 157.64 Z M 136.37 158.90 L 136.75 159.84 C 137.15 160.80 138.25 161.26 139.21 160.87 C 140.18 160.47 140.64 159.37 140.24 158.41 L 139.86 157.47 C 139.46 156.50 138.36 156.04 137.39 156.44 C 136.43 156.83 135.97 157.94 136.37 158.90 Z M 136.92 160.16 L 137.47 161.00 C 138.05 161.87 139.21 162.11 140.08 161.53 C 140.95 160.96 141.19 159.79 140.62 158.93 L 140.07 158.09 C 139.50 157.22 138.33 156.98 137.46 157.55 C 136.59 158.12 136.35 159.29 136.92 160.16 Z M 137.70 161.27 L 138.38 161.97 C 139.10 162.72 140.29 162.74 141.04 162.01 C 141.78 161.29 141.80 160.10 141.08 159.36 L 140.40 158.65 C 139.68 157.91 138.49 157.89 137.74 158.61 C 136.99 159.33 136.98 160.52 137.70 161.27 Z M 138.62 162.18 L 139.41 162.76 C 140.24 163.37 141.42 163.19 142.03 162.36 C 142.65 161.52 142.47 160.35 141.63 159.74 L 140.84 159.15 C 140.01 158.54 138.83 158.72 138.22 159.55 C 137.61 160.39 137.78 161.56 138.62 162.18 Z M 139.63 162.89 L 140.48 163.35 C 141.39 163.84 142.52 163.50 143.01 162.60 C 143.50 161.69 143.17 160.55 142.26 160.06 L 141.41 159.60 C 140.50 159.11 139.37 159.45 138.88 160.36 C 138.39 161.26 138.72 162.40 139.63 162.89 Z M 140.67 163.43 L 141.59 163.80 C 142.54 164.18 143.63 163.72 144.01 162.77 C 144.39 161.81 143.93 160.73 142.98 160.34 L 142.06 159.98 C 141.11 159.59 140.02 160.06 139.64 161.01 C 139.26 161.97 139.72 163.05 140.67 163.43 Z M 141.76 163.85 L 142.73 164.14 C 143.71 164.43 144.74 163.87 145.03 162.88 C 145.32 161.90 144.76 160.87 143.78 160.58 L 142.81 160.29 C 141.82 160.00 140.79 160.57 140.50 161.55 C 140.21 162.53 140.77 163.56 141.76 163.85 Z M 142.87 164.17 L 143.88 164.38 C 144.88 164.59 145.86 163.96 146.07 162.96 C 146.28 161.96 145.64 160.98 144.65 160.77 L 143.64 160.55 C 142.64 160.34 141.66 160.98 141.45 161.98 C 141.24 162.97 141.87 163.95 142.87 164.17 Z M 144.00 164.39 L 144.96 164.53 C 145.96 164.67 146.89 163.97 147.03 162.97 C 147.18 161.96 146.48 161.03 145.47 160.89 L 144.52 160.75 C 143.52 160.61 142.59 161.31 142.44 162.32 C 142.30 163.32 143.00 164.25 144.00 164.39 Z M 145.11 164.54 L 146.09 164.59 C 147.09 164.65 147.96 163.88 148.02 162.87 C 148.08 161.87 147.31 161.00 146.30 160.94 L 145.32 160.88 C 144.31 160.82 143.45 161.59 143.39 162.60 C 143.33 163.61 144.10 164.48 145.11 164.54 Z M 146.27 164.59 L 147.28 164.54 C 148.28 164.50 149.06 163.65 149.02 162.64 C 148.97 161.64 148.12 160.86 147.12 160.90 L 146.11 160.95 C 145.11 160.99 144.33 161.84 144.37 162.85 C 144.42 163.85 145.27 164.63 146.27 164.59 Z M 147.49 164.51 L 148.52 164.34 C 149.51 164.18 150.18 163.24 150.01 162.26 C 149.85 161.27 148.92 160.60 147.93 160.77 L 146.90 160.94 C 145.92 161.10 145.25 162.03 145.41 163.02 C 145.57 164.00 146.51 164.67 147.49 164.51 Z M 148.74 164.28 L 149.70 164.00 C 150.65 163.72 151.20 162.71 150.91 161.76 C 150.63 160.80 149.63 160.26 148.68 160.54 L 147.72 160.82 C 146.76 161.11 146.22 162.11 146.50 163.06 C 146.78 164.02 147.78 164.56 148.74 164.28 Z M 149.88 163.92 L 150.81 163.53 C 151.73 163.15 152.16 162.10 151.78 161.19 C 151.40 160.27 150.34 159.84 149.43 160.22 L 148.49 160.61 C 147.58 161.00 147.15 162.05 147.53 162.96 C 147.91 163.87 148.96 164.31 149.88 163.92 Z M 150.97 163.45 L 151.87 162.96 C 152.74 162.49 153.06 161.41 152.59 160.54 C 152.12 159.68 151.04 159.35 150.17 159.82 L 149.27 160.31 C 148.40 160.78 148.08 161.86 148.55 162.73 C 149.02 163.59 150.10 163.92 150.97 163.45 Z M 152.02 162.86 L 152.85 162.30 C 153.66 161.75 153.87 160.64 153.32 159.83 C 152.77 159.02 151.66 158.81 150.85 159.36 L 150.02 159.92 C 149.21 160.47 149.00 161.58 149.55 162.39 C 150.10 163.20 151.21 163.41 152.02 162.86 Z M 153.00 162.17 L 153.74 161.54 C 154.49 160.90 154.57 159.78 153.94 159.04 C 153.30 158.30 152.18 158.21 151.44 158.85 L 150.70 159.49 C 149.96 160.12 149.87 161.24 150.51 161.98 C 151.14 162.72 152.26 162.81 153.00 162.17 Z M 153.91 161.37 L 154.61 160.58 C 155.26 159.85 155.20 158.73 154.47 158.09 C 153.74 157.44 152.62 157.50 151.97 158.23 L 151.27 159.02 C 150.63 159.75 150.69 160.86 151.42 161.51 C 152.15 162.16 153.26 162.09 153.91 161.37 Z M 154.77 160.38 L 155.32 159.55 C 155.86 158.74 155.64 157.64 154.83 157.10 C 154.02 156.56 152.92 156.78 152.38 157.59 L 151.82 158.43 C 151.28 159.24 151.50 160.34 152.31 160.88 C 153.13 161.42 154.22 161.20 154.77 160.38 Z M 155.43 159.36 L 155.87 158.49 C 156.30 157.61 155.95 156.55 155.07 156.11 C 154.20 155.68 153.14 156.04 152.70 156.91 L 152.27 157.78 C 151.83 158.65 152.19 159.72 153.06 160.15 C 153.94 160.59 155.00 160.23 155.43 159.36 Z M 155.94 158.32 L 156.28 157.42 C 156.62 156.50 156.15 155.48 155.24 155.14 C 154.32 154.80 153.30 155.27 152.96 156.18 L 152.63 157.08 C 152.28 158.00 152.75 159.02 153.67 159.36 C 154.58 159.70 155.60 159.23 155.94 158.32 Z M 156.33 157.27 L 156.60 156.27 C 156.86 155.32 156.31 154.35 155.36 154.09 C 154.42 153.83 153.44 154.38 153.18 155.33 L 152.91 156.33 C 152.65 157.28 153.20 158.25 154.15 158.51 C 155.09 158.77 156.07 158.22 156.33 157.27 Z M 156.65 156.13 L 156.84 155.14 C 157.02 154.17 156.38 153.24 155.42 153.05 C 154.45 152.87 153.51 153.50 153.33 154.47 L 153.14 155.46 C 152.96 156.43 153.59 157.37 154.56 157.55 C 155.53 157.74 156.46 157.10 156.65 156.13 Z M 156.86 155.02 L 156.98 154.05 C 157.10 153.07 156.40 152.17 155.42 152.05 C 154.43 151.93 153.54 152.63 153.42 153.62 L 153.30 154.59 C 153.18 155.57 153.88 156.47 154.87 156.58 C 155.85 156.70 156.74 156.00 156.86 155.02 Z M 157.00 153.94 L 157.06 152.95 C 157.12 151.96 156.37 151.10 155.37 151.04 C 154.38 150.98 153.52 151.73 153.46 152.73 L 153.40 153.72 C 153.34 154.72 154.10 155.57 155.09 155.63 C 156.08 155.69 156.94 154.94 157.00 153.94 Z M 157.07 152.80 L 157.05 151.78 C 157.03 150.78 156.21 149.98 155.21 150.00 C 154.21 150.02 153.41 150.85 153.43 151.85 L 153.45 152.87 C 153.47 153.87 154.30 154.67 155.30 154.65 C 156.30 154.63 157.09 153.80 157.07 152.80 Z M 157.03 151.52 L 156.88 150.56 C 156.72 149.57 155.78 148.90 154.79 149.06 C 153.80 149.22 153.13 150.16 153.29 151.15 L 153.45 152.10 C 153.61 153.09 154.55 153.77 155.54 153.60 C 156.53 153.44 157.20 152.51 157.03 151.52 Z M 156.79 150.20 L 156.45 149.31 C 156.09 148.37 155.03 147.91 154.09 148.27 C 153.15 148.63 152.68 149.68 153.04 150.62 L 153.38 151.51 C 153.75 152.44 154.80 152.91 155.74 152.55 C 156.68 152.19 157.15 151.14 156.79 150.20 Z M 156.26 148.96 L 155.73 148.15 C 155.17 147.31 154.04 147.09 153.20 147.64 C 152.36 148.20 152.13 149.34 152.69 150.17 L 153.23 150.98 C 153.79 151.82 154.92 152.04 155.76 151.49 C 156.60 150.93 156.82 149.79 156.26 148.96 Z M 155.52 147.89 L 154.81 147.17 C 154.11 146.45 152.95 146.43 152.23 147.14 C 151.51 147.84 151.50 149.00 152.20 149.72 L 152.90 150.44 C 153.61 151.16 154.76 151.17 155.49 150.47 C 156.21 149.76 156.22 148.61 155.52 147.89 Z M 154.60 146.98 L 153.77 146.36 C 152.96 145.76 151.82 145.93 151.22 146.73 C 150.61 147.54 150.78 148.69 151.59 149.29 L 152.41 149.91 C 153.22 150.51 154.37 150.34 154.97 149.53 C 155.57 148.73 155.41 147.58 154.60 146.98 Z M 153.57 146.23 L 152.73 145.76 C 151.85 145.27 150.74 145.58 150.25 146.46 C 149.75 147.33 150.06 148.45 150.94 148.94 L 151.78 149.42 C 152.66 149.91 153.77 149.60 154.27 148.72 C 154.76 147.84 154.45 146.73 153.57 146.23 Z M 152.56 145.68 L 151.65 145.28 C 150.72 144.88 149.65 145.31 149.25 146.23 C 148.85 147.16 149.27 148.23 150.20 148.63 L 151.11 149.03 C 152.04 149.43 153.11 149.00 153.51 148.08 C 153.91 147.15 153.49 146.08 152.56 145.68 Z M 151.50 145.23 L 150.52 144.90 C 149.57 144.58 148.54 145.10 148.22 146.06 C 147.90 147.01 148.42 148.05 149.37 148.36 L 150.35 148.69 C 151.30 149.00 152.34 148.49 152.65 147.53 C 152.97 146.57 152.45 145.54 151.50 145.23 Z M 150.39 144.87 L 149.41 144.62 C 148.43 144.37 147.44 144.96 147.20 145.94 C 146.95 146.91 147.54 147.90 148.52 148.15 L 149.50 148.40 C 150.48 148.64 151.47 148.05 151.71 147.08 C 151.96 146.10 151.37 145.11 150.39 144.87 Z M 149.30 144.60 L 148.31 144.42 C 147.33 144.23 146.38 144.87 146.19 145.86 C 146.00 146.84 146.65 147.79 147.63 147.97 L 148.62 148.16 C 149.61 148.35 150.55 147.71 150.74 146.72 C 150.93 145.74 150.28 144.79 149.30 144.60 Z M 148.22 144.41 L 147.22 144.27 C 146.24 144.13 145.33 144.82 145.19 145.81 C 145.05 146.79 145.74 147.70 146.72 147.84 L 147.72 147.98 C 148.71 148.12 149.62 147.43 149.75 146.44 C 149.89 145.46 149.20 144.55 148.22 144.41 Z M 147.15 144.27 L 146.17 144.18 C 145.18 144.08 144.31 144.80 144.21 145.79 C 144.12 146.77 144.83 147.64 145.82 147.74 L 146.80 147.84 C 147.78 147.93 148.66 147.21 148.75 146.23 C 148.85 145.25 148.13 144.37 147.15 144.27 Z M 146.09 144.19 L 145.09 144.13 C 144.11 144.08 143.27 144.82 143.21 145.80 C 143.16 146.78 143.90 147.61 144.88 147.67 L 145.89 147.73 C 146.87 147.78 147.70 147.04 147.76 146.06 C 147.82 145.09 147.07 144.25 146.09 144.19 Z M 145.01 144.16 L 144.02 144.14 C 143.05 144.13 142.26 144.90 142.25 145.86 C 142.23 146.82 143.00 147.62 143.96 147.63 L 144.96 147.65 C 145.92 147.66 146.71 146.89 146.73 145.93 C 146.74 144.96 145.97 144.17 145.01 144.16 Z M 143.94 144.17 L 142.95 144.20 C 142.00 144.22 141.26 145.02 141.28 145.97 C 141.31 146.91 142.10 147.66 143.05 147.63 L 144.04 147.60 C 144.99 147.58 145.74 146.78 145.71 145.84 C 145.68 144.89 144.89 144.14 143.94 144.17 Z M 142.88 144.22 L 141.89 144.30 C 140.96 144.36 140.26 145.17 140.32 146.11 C 140.39 147.04 141.20 147.74 142.14 147.68 L 143.12 147.61 C 144.06 147.54 144.76 146.73 144.69 145.79 C 144.62 144.86 143.81 144.16 142.88 144.22 Z M 141.84 144.32 L 140.86 144.42 C 139.94 144.52 139.27 145.34 139.37 146.27 C 139.46 147.19 140.29 147.85 141.21 147.76 L 142.19 147.65 C 143.11 147.56 143.78 146.73 143.68 145.81 C 143.59 144.89 142.76 144.22 141.84 144.32 Z M 140.82 144.44 L 139.83 144.57 C 138.92 144.68 138.27 145.52 138.39 146.43 C 138.50 147.34 139.34 147.98 140.25 147.87 L 141.25 147.74 C 142.16 147.62 142.80 146.79 142.68 145.88 C 142.57 144.97 141.74 144.32 140.82 144.44 Z M 139.81 144.58 L 138.80 144.73 C 137.90 144.85 137.27 145.68 137.40 146.59 C 137.52 147.49 138.36 148.12 139.26 147.99 L 140.27 147.85 C 141.17 147.72 141.80 146.89 141.67 145.99 C 141.54 145.09 140.71 144.46 139.81 144.58 Z M 138.80 144.73 L 138.54 144.77 C 137.65 144.90 137.02 145.73 137.15 146.63 C 137.28 147.52 138.11 148.15 139.01 148.02 L 139.26 147.98 C 140.16 147.85 140.78 147.02 140.65 146.13 C 140.52 145.23 139.69 144.61 138.80 144.73 Z"
      fill="black"
      fill-rule="nonzero" /></svg>