<svg xmlns="http://www.w3.org/2000/svg" width="300" height="300" viewBox="0 0 300 300">
<path d="M 145.24 137.13 L 144.64 137.84 C 143.99 138.59 144.08 139.72 144.82 140.36 C 145.57 141.01 146.70 140.92 147.35 140.17 L 147.96 139.47 C 148.60 138.72 148.52 137.59 147.77 136.95 C 147.02 136.30 145.89 136.39 145.24 137.13 Z M 144.54 137.96 L 143.98 138.74 C 143.40 139.55 143.59 140.67 144.39 141.24 C 145.19 141.82 146.31 141.63 146.89 140.83 L 147.45 140.05 C 148.02 139.25 147.84 138.13 147.03 137.55 C 146.23 136.98 145.11 137.16 144.54 137.96 Z M 143.83 138.99 L 143.37 139.92 C 142.93 140.80 143.29 141.88 144.17 142.32 C 145.06 142.76 146.13 142.40 146.57 141.51 L 147.04 140.58 C 147.48 139.70 147.11 138.62 146.23 138.18 C 145.34 137.74 144.27 138.11 143.83 138.99 Z M 143.25 140.21 L 142.97 141.17 C 142.70 142.12 143.24 143.12 144.19 143.39 C 145.14 143.67 146.13 143.13 146.41 142.18 L 146.69 141.22 C 146.97 140.27 146.42 139.28 145.47 139.00 C 144.52 138.72 143.53 139.27 143.25 140.21 Z M 142.92 141.39 L 142.77 142.34 C 142.62 143.31 143.28 144.23 144.26 144.39 C 145.24 144.54 146.15 143.88 146.31 142.90 L 146.46 141.96 C 146.61 140.98 145.95 140.06 144.97 139.91 C 144.00 139.75 143.08 140.42 142.92 141.39 Z M 142.76 142.48 L 142.68 143.50 C 142.60 144.48 143.34 145.34 144.33 145.42 C 145.31 145.49 146.17 144.76 146.25 143.77 L 146.33 142.75 C 146.40 141.77 145.66 140.91 144.68 140.83 C 143.69 140.76 142.83 141.50 142.76 142.48 Z M 142.67 143.61 L 142.66 144.66 C 142.65 145.64 143.44 146.46 144.42 146.47 C 145.41 146.48 146.22 145.69 146.24 144.70 L 146.25 143.66 C 146.27 142.67 145.48 141.86 144.49 141.84 C 143.50 141.83 142.69 142.62 142.67 143.61 Z M 142.66 144.75 L 142.70 145.78 C 142.74 146.77 143.57 147.54 144.55 147.50 C 145.54 147.47 146.31 146.64 146.28 145.65 L 146.24 144.61 C 146.20 143.63 145.37 142.86 144.38 142.89 C 143.39 142.93 142.62 143.76 142.66 144.75 Z M 142.71 145.87 L 142.80 146.95 C 142.88 147.93 143.75 148.66 144.73 148.57 C 145.72 148.49 146.45 147.62 146.36 146.64 L 146.27 145.56 C 146.18 144.58 145.32 143.85 144.33 143.93 C 143.35 144.02 142.62 144.89 142.71 145.87 Z M 142.81 147.05 L 142.96 148.08 C 143.11 149.05 144.01 149.73 144.99 149.59 C 145.96 149.44 146.64 148.54 146.50 147.56 L 146.35 146.54 C 146.21 145.56 145.30 144.88 144.32 145.03 C 143.35 145.17 142.67 146.07 142.81 147.05 Z M 142.99 148.20 L 143.20 149.16 C 143.41 150.12 144.36 150.73 145.32 150.52 C 146.28 150.31 146.89 149.36 146.68 148.40 L 146.47 147.44 C 146.26 146.48 145.31 145.87 144.35 146.08 C 143.39 146.29 142.78 147.24 142.99 148.20 Z M 143.24 149.30 L 143.51 150.20 C 143.80 151.14 144.80 151.67 145.74 151.38 C 146.68 151.09 147.20 150.10 146.92 149.16 L 146.64 148.26 C 146.35 147.32 145.36 146.79 144.42 147.08 C 143.48 147.37 142.95 148.36 143.24 149.30 Z M 143.58 150.36 L 143.96 151.27 C 144.33 152.17 145.37 152.60 146.28 152.22 C 147.18 151.84 147.61 150.80 147.23 149.90 L 146.85 148.99 C 146.47 148.09 145.44 147.66 144.53 148.04 C 143.63 148.42 143.20 149.46 143.58 150.36 Z M 144.05 151.44 L 144.54 152.33 C 145.01 153.18 146.09 153.49 146.94 153.02 C 147.80 152.54 148.11 151.47 147.63 150.61 L 147.14 149.73 C 146.67 148.87 145.59 148.56 144.73 149.04 C 143.88 149.51 143.57 150.59 144.05 151.44 Z M 144.65 152.50 L 145.23 153.31 C 145.80 154.10 146.90 154.28 147.69 153.71 C 148.48 153.14 148.66 152.04 148.10 151.25 L 147.52 150.44 C 146.95 149.65 145.85 149.47 145.06 150.04 C 144.27 150.61 144.09 151.71 144.65 152.50 Z M 145.36 153.46 L 146.02 154.18 C 146.67 154.90 147.78 154.95 148.50 154.30 C 149.22 153.65 149.27 152.54 148.62 151.82 L 147.96 151.10 C 147.31 150.38 146.20 150.33 145.48 150.98 C 144.77 151.63 144.71 152.74 145.36 153.46 Z M 146.17 154.32 L 146.91 154.95 C 147.63 155.59 148.74 155.51 149.37 154.78 C 150.00 154.05 149.93 152.95 149.20 152.31 L 148.47 151.68 C 147.74 151.05 146.63 151.12 146.00 151.85 C 145.37 152.58 145.44 153.69 146.17 154.32 Z M 147.10 155.09 L 147.92 155.62 C 148.72 156.15 149.80 155.92 150.33 155.11 C 150.85 154.31 150.62 153.23 149.82 152.71 L 149.00 152.18 C 148.20 151.65 147.12 151.88 146.59 152.69 C 146.07 153.49 146.30 154.57 147.10 155.09 Z M 148.17 155.75 L 149.08 156.16 C 149.96 156.54 150.98 156.15 151.37 155.28 C 151.75 154.40 151.36 153.38 150.49 152.99 L 149.57 152.58 C 148.70 152.20 147.67 152.59 147.29 153.46 C 146.90 154.34 147.29 155.36 148.17 155.75 Z M 149.35 156.24 L 150.36 156.50 C 151.28 156.74 152.22 156.18 152.46 155.26 C 152.69 154.34 152.14 153.40 151.22 153.16 L 150.21 152.90 C 149.29 152.67 148.35 153.22 148.12 154.14 C 147.88 155.06 148.43 156.00 149.35 156.24 Z M 150.61 156.54 L 151.59 156.64 C 152.54 156.74 153.38 156.06 153.48 155.12 C 153.58 154.18 152.90 153.33 151.96 153.23 L 150.97 153.13 C 150.03 153.03 149.18 153.71 149.08 154.65 C 148.98 155.59 149.66 156.44 150.61 156.54 Z M 151.80 156.64 L 152.82 156.63 C 153.77 156.61 154.52 155.84 154.51 154.90 C 154.49 153.95 153.72 153.20 152.77 153.21 L 151.75 153.23 C 150.81 153.24 150.05 154.02 150.07 154.96 C 150.08 155.91 150.86 156.66 151.80 156.64 Z M 153.03 156.61 L 154.03 156.47 C 154.96 156.34 155.61 155.49 155.49 154.56 C 155.36 153.63 154.51 152.98 153.58 153.10 L 152.57 153.24 C 151.64 153.36 150.99 154.22 151.11 155.15 C 151.24 156.08 152.10 156.73 153.03 156.61 Z M 154.25 156.42 L 155.19 156.16 C 156.09 155.91 156.62 154.98 156.37 154.08 C 156.13 153.18 155.20 152.65 154.29 152.90 L 153.36 153.15 C 152.46 153.40 151.93 154.33 152.17 155.23 C 152.42 156.13 153.35 156.66 154.25 156.42 Z M 155.46 156.05 L 156.40 155.61 C 157.24 155.22 157.61 154.21 157.21 153.37 C 156.82 152.53 155.82 152.17 154.97 152.56 L 154.03 153.00 C 153.19 153.40 152.82 154.40 153.22 155.24 C 153.61 156.08 154.61 156.45 155.46 156.05 Z M 156.66 155.45 L 157.47 154.88 C 158.22 154.34 158.40 153.29 157.86 152.54 C 157.33 151.78 156.28 151.61 155.52 152.14 L 154.72 152.72 C 153.96 153.26 153.78 154.30 154.32 155.06 C 154.86 155.81 155.90 155.99 156.66 155.45 Z M 157.66 154.71 L 158.36 154.03 C 159.02 153.38 159.03 152.33 158.39 151.66 C 157.75 151.00 156.69 150.99 156.03 151.63 L 155.33 152.31 C 154.67 152.96 154.66 154.02 155.30 154.68 C 155.94 155.34 157.00 155.35 157.66 154.71 Z M 158.49 153.87 L 159.11 153.11 C 159.68 152.39 159.57 151.35 158.86 150.77 C 158.14 150.19 157.09 150.31 156.52 151.02 L 155.90 151.79 C 155.32 152.50 155.44 153.55 156.15 154.12 C 156.87 154.70 157.91 154.59 158.49 153.87 Z M 159.20 152.98 L 159.75 152.15 C 160.26 151.38 160.05 150.35 159.28 149.85 C 158.52 149.34 157.49 149.55 156.98 150.31 L 156.43 151.15 C 155.92 151.91 156.13 152.94 156.89 153.45 C 157.66 153.95 158.69 153.75 159.20 152.98 Z M 159.82 152.03 L 160.30 151.15 C 160.74 150.35 160.45 149.34 159.65 148.90 C 158.85 148.46 157.84 148.75 157.40 149.55 L 156.91 150.43 C 156.47 151.23 156.76 152.24 157.56 152.68 C 158.37 153.12 159.38 152.83 159.82 152.03 Z M 160.35 151.05 L 160.77 150.14 C 161.15 149.31 160.79 148.32 159.96 147.94 C 159.13 147.56 158.14 147.92 157.76 148.75 L 157.34 149.66 C 156.96 150.49 157.32 151.47 158.16 151.86 C 158.99 152.24 159.97 151.88 160.35 151.05 Z M 160.81 150.04 L 161.14 149.19 C 161.47 148.33 161.05 147.37 160.19 147.04 C 159.34 146.72 158.38 147.14 158.05 148.00 L 157.72 148.85 C 157.39 149.71 157.82 150.66 158.67 150.99 C 159.53 151.32 160.48 150.90 160.81 150.04 Z M 161.18 149.08 L 161.45 148.19 C 161.72 147.31 161.23 146.39 160.36 146.12 C 159.48 145.85 158.55 146.34 158.29 147.21 L 158.01 148.10 C 157.74 148.98 158.24 149.91 159.11 150.17 C 159.98 150.44 160.91 149.95 161.18 149.08 Z M 161.48 148.07 L 161.71 147.09 C 161.91 146.20 161.36 145.31 160.46 145.11 C 159.57 144.90 158.68 145.46 158.48 146.35 L 158.25 147.33 C 158.05 148.22 158.61 149.11 159.50 149.32 C 160.39 149.52 161.28 148.96 161.48 148.07 Z M 161.73 146.98 L 161.91 145.87 C 162.05 144.96 161.44 144.11 160.53 143.97 C 159.63 143.82 158.78 144.44 158.64 145.34 L 158.46 146.46 C 158.31 147.36 158.93 148.21 159.83 148.36 C 160.74 148.50 161.59 147.89 161.73 146.98 Z M 161.92 145.78 L 162.02 144.82 C 162.12 143.91 161.46 143.09 160.55 142.99 C 159.64 142.90 158.83 143.55 158.73 144.46 L 158.62 145.43 C 158.53 146.34 159.18 147.15 160.09 147.25 C 161.01 147.35 161.82 146.69 161.92 145.78 Z M 162.03 144.74 L 162.09 143.73 C 162.15 142.82 161.45 142.03 160.54 141.98 C 159.62 141.92 158.83 142.62 158.78 143.53 L 158.72 144.54 C 158.67 145.46 159.36 146.24 160.28 146.30 C 161.19 146.35 161.98 145.66 162.03 144.74 Z M 162.10 143.64 L 162.10 142.60 C 162.10 141.68 161.36 140.94 160.44 140.94 C 159.52 140.94 158.78 141.68 158.78 142.60 L 158.78 143.63 C 158.77 144.55 159.52 145.29 160.43 145.29 C 161.35 145.30 162.10 144.55 162.10 143.64 Z M 162.10 142.48 L 162.02 141.45 C 161.95 140.54 161.16 139.85 160.24 139.92 C 159.32 139.99 158.64 140.78 158.70 141.70 L 158.78 142.72 C 158.85 143.64 159.64 144.32 160.56 144.26 C 161.48 144.19 162.16 143.39 162.10 142.48 Z M 162.00 141.29 L 161.83 140.32 C 161.67 139.41 160.81 138.81 159.90 138.97 C 159.00 139.13 158.39 139.99 158.55 140.90 L 158.72 141.86 C 158.88 142.77 159.74 143.38 160.65 143.22 C 161.56 143.06 162.16 142.19 162.00 141.29 Z M 161.77 140.09 L 161.44 139.08 C 161.15 138.20 160.21 137.73 159.34 138.02 C 158.46 138.30 157.99 139.25 158.28 140.12 L 158.61 141.13 C 158.90 142.00 159.84 142.48 160.71 142.19 C 161.59 141.90 162.06 140.96 161.77 140.09 Z M 161.33 138.82 L 160.84 137.89 C 160.41 137.08 159.40 136.77 158.59 137.21 C 157.77 137.64 157.47 138.65 157.90 139.46 L 158.39 140.38 C 158.82 141.19 159.83 141.50 160.64 141.07 C 161.45 140.64 161.76 139.63 161.33 138.82 Z M 160.70 137.68 L 160.11 136.89 C 159.56 136.15 158.51 136.00 157.78 136.55 C 157.04 137.11 156.89 138.15 157.44 138.88 L 158.04 139.68 C 158.59 140.41 159.63 140.56 160.37 140.01 C 161.10 139.46 161.25 138.41 160.70 137.68 Z M 159.97 136.72 L 159.31 136.05 C 158.67 135.39 157.61 135.38 156.96 136.02 C 156.30 136.67 156.29 137.72 156.93 138.38 L 157.59 139.05 C 158.23 139.71 159.28 139.72 159.94 139.08 C 160.60 138.43 160.61 137.38 159.97 136.72 Z M 159.17 135.93 L 158.42 135.31 C 157.71 134.72 156.66 134.83 156.08 135.54 C 155.49 136.25 155.60 137.30 156.31 137.88 L 157.06 138.50 C 157.77 139.08 158.82 138.98 159.40 138.27 C 159.99 137.56 159.88 136.51 159.17 135.93 Z M 158.27 135.20 L 157.41 134.64 C 156.64 134.14 155.62 134.35 155.11 135.12 C 154.61 135.89 154.83 136.91 155.59 137.42 L 156.45 137.98 C 157.22 138.48 158.25 138.27 158.75 137.50 C 159.25 136.73 159.04 135.71 158.27 135.20 Z M 157.25 134.56 L 156.38 134.11 C 155.56 133.70 154.57 134.02 154.16 134.84 C 153.74 135.65 154.07 136.65 154.88 137.06 L 155.75 137.50 C 156.57 137.91 157.56 137.59 157.97 136.78 C 158.39 135.96 158.06 134.97 157.25 134.56 Z M 156.23 134.05 L 155.34 133.71 C 154.50 133.38 153.54 133.79 153.21 134.64 C 152.88 135.48 153.30 136.44 154.14 136.77 L 155.03 137.12 C 155.88 137.45 156.83 137.03 157.16 136.19 C 157.49 135.34 157.08 134.39 156.23 134.05 Z M 155.22 133.67 L 154.34 133.40 C 153.47 133.14 152.56 133.63 152.29 134.50 C 152.03 135.36 152.52 136.28 153.39 136.54 L 154.27 136.81 C 155.14 137.07 156.05 136.58 156.31 135.71 C 156.57 134.85 156.09 133.93 155.22 133.67 Z M 154.22 133.38 L 153.27 133.17 C 152.40 132.98 151.53 133.53 151.33 134.41 C 151.13 135.29 151.69 136.16 152.57 136.35 L 153.51 136.56 C 154.39 136.76 155.26 136.20 155.45 135.33 C 155.65 134.45 155.09 133.58 154.22 133.38 Z M 153.16 133.16 L 152.13 133.00 C 151.24 132.87 150.42 133.47 150.28 134.36 C 150.15 135.24 150.75 136.07 151.64 136.21 L 152.68 136.36 C 153.56 136.50 154.39 135.89 154.52 135.01 C 154.66 134.12 154.05 133.29 153.16 133.16 Z M 152.04 133.00 L 151.01 132.90 C 150.12 132.81 149.33 133.46 149.25 134.34 C 149.16 135.23 149.81 136.02 150.69 136.11 L 151.72 136.21 C 152.61 136.30 153.40 135.65 153.49 134.76 C 153.58 133.88 152.93 133.09 152.04 133.00 Z M 150.94 132.90 L 149.96 132.84 C 149.07 132.79 148.31 133.47 148.26 134.36 C 148.21 135.24 148.89 136.00 149.78 136.05 L 150.76 136.10 C 151.65 136.15 152.41 135.48 152.46 134.59 C 152.50 133.71 151.83 132.95 150.94 132.90 Z M 149.88 132.85 L 148.86 132.84 C 147.98 132.83 147.26 133.53 147.25 134.42 C 147.24 135.30 147.94 136.02 148.82 136.03 L 149.85 136.04 C 150.73 136.05 151.45 135.35 151.46 134.46 C 151.47 133.58 150.77 132.86 149.88 132.85 Z M 148.77 132.85 L 147.75 132.89 C 146.87 132.93 146.19 133.67 146.23 134.55 C 146.27 135.42 147.01 136.10 147.89 136.07 L 148.91 136.02 C 149.79 135.98 150.47 135.24 150.43 134.37 C 150.39 133.49 149.65 132.81 148.77 132.85 Z M 147.64 132.91 L 146.65 133.02 C 145.79 133.12 145.16 133.90 145.26 134.77 C 145.36 135.63 146.14 136.26 147.01 136.16 L 148.00 136.05 C 148.86 135.95 149.49 135.17 149.39 134.30 C 149.29 133.43 148.51 132.81 147.64 132.91 Z M 146.51 133.05 L 145.48 133.26 C 144.63 133.43 144.08 134.26 144.26 135.12 C 144.43 135.97 145.26 136.52 146.12 136.34 L 147.15 136.13 C 148.00 135.96 148.55 135.13 148.37 134.27 C 148.20 133.42 147.37 132.87 146.51 133.05 Z M 145.35 133.29 L 144.39 133.58 C 143.56 133.83 143.08 134.70 143.33 135.53 C 143.58 136.36 144.45 136.84 145.28 136.59 L 146.25 136.31 C 147.08 136.06 147.55 135.19 147.31 134.35 C 147.06 133.52 146.19 133.05 145.35 133.29 Z M 144.30 133.61 L 143.38 133.95 C 142.57 134.24 142.15 135.14 142.45 135.96 C 142.74 136.77 143.64 137.19 144.46 136.89 L 145.37 136.56 C 146.19 136.26 146.61 135.36 146.31 134.55 C 146.01 133.74 145.11 133.32 144.30 133.61 Z M 143.34 133.97 L 142.44 134.33 C 141.64 134.65 141.25 135.56 141.58 136.36 C 141.90 137.16 142.81 137.55 143.61 137.23 L 144.50 136.87 C 145.30 136.55 145.69 135.64 145.37 134.84 C 145.05 134.04 144.14 133.65 143.34 133.97 Z"
      fill="black"
      fill-rule="nonzero" /></svg>