<svg xmlns="http://www.w3.org/2000/svg" width="300" height="300" viewBox="0 0 300 300">
<path d="M 135.19 134.23 L 134.58 135.03 C 134.02 135.77 134.16 136.82 134.89 137.38 C 135.63 137.95 136.68 137.80 137.24 137.07 L 137.85 136.27 C 138.41 135.53 138.27 134.48 137.54 133.92 C 136.80 133.36 135.75 133.50 135.19 134.23 Z M 134.51 135.10 L 133.94 135.92 C 133.42 136.70 133.62 137.75 134.39 138.28 C 135.17 138.81 136.22 138.61 136.75 137.83 L 137.31 137.01 C 137.84 136.23 137.64 135.18 136.86 134.65 C 136.09 134.12 135.03 134.32 134.51 135.10 Z M 133.83 136.07 L 133.36 136.95 C 132.92 137.79 133.24 138.83 134.08 139.27 C 134.92 139.72 135.96 139.40 136.40 138.56 L 136.87 137.68 C 137.31 136.84 136.99 135.80 136.15 135.36 C 135.31 134.91 134.27 135.23 133.83 136.07 Z M 133.25 137.18 L 132.93 138.08 C 132.61 138.98 133.09 139.97 133.99 140.29 C 134.89 140.61 135.89 140.13 136.20 139.23 L 136.52 138.33 C 136.84 137.42 136.36 136.43 135.46 136.12 C 134.56 135.80 133.57 136.27 133.25 137.18 Z M 132.86 138.29 L 132.65 139.25 C 132.45 140.20 133.05 141.12 133.99 141.33 C 134.93 141.53 135.86 140.93 136.06 139.99 L 136.27 139.02 C 136.47 138.08 135.87 137.15 134.93 136.95 C 133.99 136.75 133.06 137.34 132.86 138.29 Z M 132.62 139.41 L 132.49 140.45 C 132.38 141.41 133.06 142.28 134.02 142.40 C 134.98 142.51 135.86 141.83 135.97 140.87 L 136.10 139.83 C 136.21 138.87 135.53 138.00 134.57 137.88 C 133.61 137.76 132.74 138.45 132.62 139.41 Z M 132.48 140.55 L 132.42 141.51 C 132.36 142.48 133.10 143.31 134.07 143.37 C 135.03 143.43 135.87 142.69 135.93 141.72 L 135.99 140.77 C 136.05 139.80 135.31 138.96 134.34 138.90 C 133.37 138.84 132.54 139.58 132.48 140.55 Z M 132.41 141.58 L 132.39 142.56 C 132.37 143.54 133.15 144.34 134.12 144.36 C 135.10 144.38 135.90 143.61 135.92 142.63 L 135.94 141.65 C 135.96 140.67 135.18 139.87 134.21 139.85 C 133.23 139.83 132.43 140.61 132.41 141.58 Z M 132.39 142.63 L 132.41 143.66 C 132.43 144.63 133.24 145.41 134.21 145.39 C 135.19 145.37 135.96 144.56 135.94 143.58 L 135.92 142.56 C 135.90 141.59 135.10 140.81 134.12 140.83 C 133.14 140.85 132.37 141.66 132.39 142.63 Z M 132.41 143.72 L 132.47 144.76 C 132.52 145.74 133.36 146.49 134.34 146.43 C 135.31 146.37 136.06 145.54 136.01 144.56 L 135.95 143.52 C 135.89 142.54 135.05 141.79 134.08 141.85 C 133.10 141.91 132.35 142.74 132.41 143.72 Z M 132.47 144.83 L 132.56 145.82 C 132.66 146.80 133.53 147.52 134.50 147.42 C 135.48 147.33 136.19 146.46 136.10 145.48 L 136.00 144.49 C 135.91 143.51 135.04 142.80 134.07 142.89 C 133.09 142.99 132.37 143.85 132.47 144.83 Z M 132.58 145.93 L 132.73 146.92 C 132.88 147.89 133.79 148.55 134.76 148.40 C 135.73 148.25 136.39 147.35 136.24 146.38 L 136.09 145.38 C 135.94 144.41 135.03 143.75 134.06 143.90 C 133.09 144.05 132.43 144.96 132.58 145.93 Z M 132.76 147.06 L 132.99 148.04 C 133.22 148.99 134.18 149.58 135.13 149.35 C 136.09 149.12 136.68 148.16 136.45 147.21 L 136.21 146.23 C 135.99 145.28 135.03 144.69 134.07 144.92 C 133.12 145.15 132.53 146.11 132.76 147.06 Z M 133.04 148.22 L 133.38 149.16 C 133.71 150.08 134.73 150.57 135.66 150.23 C 136.58 149.90 137.06 148.88 136.73 147.96 L 136.39 147.02 C 136.06 146.10 135.04 145.62 134.12 145.95 C 133.19 146.28 132.71 147.30 133.04 148.22 Z M 133.47 149.37 L 133.93 150.26 C 134.38 151.14 135.45 151.48 136.33 151.04 C 137.20 150.59 137.55 149.52 137.10 148.64 L 136.64 147.75 C 136.19 146.87 135.12 146.53 134.24 146.97 C 133.37 147.42 133.02 148.50 133.47 149.37 Z M 134.04 150.45 L 134.60 151.28 C 135.16 152.09 136.26 152.30 137.08 151.75 C 137.89 151.20 138.10 150.09 137.55 149.28 L 136.99 148.45 C 136.43 147.64 135.33 147.43 134.51 147.98 C 133.70 148.53 133.49 149.64 134.04 150.45 Z M 134.73 151.44 L 135.38 152.20 C 136.02 152.94 137.14 153.03 137.89 152.38 C 138.63 151.74 138.72 150.62 138.07 149.87 L 137.42 149.12 C 136.78 148.37 135.66 148.29 134.91 148.93 C 134.17 149.57 134.08 150.69 134.73 151.44 Z M 135.51 152.33 L 136.24 153.02 C 136.96 153.69 138.08 153.66 138.75 152.94 C 139.43 152.22 139.39 151.10 138.68 150.42 L 137.94 149.74 C 137.23 149.06 136.10 149.10 135.43 149.82 C 134.75 150.53 134.79 151.66 135.51 152.33 Z M 136.38 153.14 L 137.19 153.76 C 137.97 154.35 139.09 154.20 139.69 153.42 C 140.28 152.64 140.13 151.52 139.35 150.92 L 138.53 150.31 C 137.75 149.71 136.64 149.86 136.04 150.65 C 135.45 151.43 135.60 152.54 136.38 153.14 Z M 137.35 153.86 L 138.21 154.38 C 139.05 154.89 140.14 154.62 140.65 153.78 C 141.16 152.94 140.89 151.85 140.05 151.34 L 139.19 150.82 C 138.35 150.31 137.26 150.58 136.75 151.42 C 136.24 152.26 136.51 153.35 137.35 153.86 Z M 138.39 154.47 L 139.28 154.88 C 140.17 155.29 141.22 154.90 141.63 154.01 C 142.04 153.12 141.65 152.07 140.76 151.66 L 139.87 151.25 C 138.98 150.84 137.93 151.23 137.52 152.12 C 137.11 153.01 137.50 154.06 138.39 154.47 Z M 139.48 154.96 L 140.43 155.26 C 141.36 155.55 142.36 155.04 142.65 154.11 C 142.95 153.18 142.43 152.18 141.50 151.88 L 140.56 151.58 C 139.62 151.29 138.63 151.80 138.33 152.73 C 138.04 153.66 138.55 154.66 139.48 154.96 Z M 140.65 155.30 L 141.63 155.49 C 142.59 155.66 143.51 155.03 143.68 154.07 C 143.86 153.11 143.23 152.19 142.27 152.02 L 141.28 151.84 C 140.33 151.66 139.41 152.29 139.23 153.25 C 139.06 154.21 139.69 155.13 140.65 155.30 Z M 141.83 155.50 L 142.82 155.57 C 143.79 155.64 144.63 154.91 144.69 153.94 C 144.76 152.97 144.03 152.14 143.06 152.07 L 142.07 152.00 C 141.10 151.93 140.27 152.66 140.20 153.63 C 140.13 154.60 140.86 155.44 141.83 155.50 Z M 142.99 155.56 L 143.98 155.54 C 144.94 155.51 145.70 154.71 145.68 153.75 C 145.65 152.78 144.85 152.02 143.89 152.05 L 142.90 152.07 C 141.93 152.10 141.17 152.90 141.20 153.87 C 141.22 154.83 142.02 155.59 142.99 155.56 Z M 144.13 155.52 L 145.12 155.40 C 146.08 155.29 146.76 154.43 146.65 153.48 C 146.54 152.53 145.68 151.84 144.73 151.95 L 143.74 152.07 C 142.78 152.18 142.10 153.04 142.21 153.99 C 142.32 154.95 143.18 155.63 144.13 155.52 Z M 145.33 155.36 L 146.30 155.12 C 147.22 154.90 147.79 153.96 147.57 153.04 C 147.34 152.11 146.41 151.54 145.48 151.77 L 144.52 152.00 C 143.59 152.23 143.02 153.16 143.25 154.09 C 143.47 155.01 144.41 155.58 145.33 155.36 Z M 146.57 155.02 L 147.48 154.63 C 148.35 154.25 148.76 153.25 148.38 152.38 C 148.01 151.51 147.00 151.10 146.13 151.48 L 145.21 151.87 C 144.34 152.24 143.94 153.25 144.31 154.12 C 144.69 154.99 145.70 155.39 146.57 155.02 Z M 147.77 154.46 L 148.56 153.92 C 149.34 153.39 149.54 152.33 149.01 151.55 C 148.48 150.77 147.42 150.57 146.64 151.10 L 145.85 151.64 C 145.07 152.17 144.87 153.23 145.40 154.01 C 145.93 154.79 146.99 154.99 147.77 154.46 Z M 148.78 153.73 L 149.48 153.06 C 150.16 152.41 150.17 151.33 149.52 150.66 C 148.87 149.98 147.80 149.96 147.12 150.61 L 146.42 151.29 C 145.75 151.94 145.73 153.01 146.38 153.69 C 147.03 154.36 148.11 154.38 148.78 153.73 Z M 149.63 152.88 L 150.26 152.09 C 150.84 151.36 150.71 150.29 149.98 149.71 C 149.25 149.13 148.19 149.26 147.61 149.99 L 146.98 150.79 C 146.40 151.52 146.52 152.58 147.25 153.16 C 147.99 153.74 149.05 153.62 149.63 152.88 Z M 150.36 151.93 L 150.91 151.05 C 151.41 150.26 151.17 149.22 150.38 148.73 C 149.59 148.23 148.55 148.47 148.06 149.26 L 147.50 150.15 C 147.01 150.93 147.25 151.97 148.04 152.47 C 148.83 152.96 149.86 152.72 150.36 151.93 Z M 150.98 150.91 L 151.43 150.04 C 151.85 149.21 151.52 148.20 150.69 147.78 C 149.86 147.36 148.85 147.69 148.43 148.52 L 147.99 149.40 C 147.57 150.23 147.90 151.24 148.73 151.66 C 149.56 152.07 150.57 151.74 150.98 150.91 Z M 151.49 149.91 L 151.85 149.00 C 152.20 148.14 151.79 147.16 150.93 146.81 C 150.07 146.46 149.09 146.88 148.74 147.74 L 148.37 148.65 C 148.02 149.51 148.44 150.48 149.30 150.83 C 150.16 151.18 151.14 150.77 151.49 149.91 Z M 151.90 148.87 L 152.20 147.92 C 152.48 147.04 151.99 146.09 151.11 145.81 C 150.22 145.53 149.28 146.02 149.00 146.91 L 148.70 147.86 C 148.42 148.75 148.91 149.69 149.79 149.97 C 150.68 150.25 151.62 149.76 151.90 148.87 Z M 152.23 147.80 L 152.47 146.80 C 152.68 145.90 152.12 144.99 151.22 144.78 C 150.31 144.57 149.41 145.13 149.20 146.03 L 148.97 147.03 C 148.75 147.93 149.31 148.84 150.22 149.05 C 151.12 149.26 152.02 148.70 152.23 147.80 Z M 152.49 146.68 L 152.66 145.67 C 152.80 144.75 152.18 143.89 151.26 143.74 C 150.35 143.60 149.49 144.22 149.34 145.13 L 149.18 146.15 C 149.03 147.07 149.65 147.93 150.57 148.08 C 151.48 148.22 152.35 147.60 152.49 146.68 Z M 152.67 145.54 L 152.76 144.52 C 152.84 143.60 152.15 142.78 151.23 142.70 C 150.30 142.62 149.49 143.31 149.41 144.24 L 149.32 145.26 C 149.24 146.18 149.93 147.00 150.85 147.08 C 151.78 147.16 152.59 146.47 152.67 145.54 Z M 152.77 144.38 L 152.77 143.36 C 152.77 142.43 152.01 141.68 151.08 141.68 C 150.15 141.68 149.40 142.44 149.40 143.37 L 149.40 144.38 C 149.40 145.31 150.16 146.07 151.09 146.06 C 152.02 146.06 152.77 145.31 152.77 144.38 Z M 152.76 143.18 L 152.65 142.20 C 152.55 141.27 151.72 140.60 150.79 140.71 C 149.86 140.81 149.20 141.64 149.30 142.57 L 149.40 143.55 C 149.51 144.47 150.34 145.14 151.27 145.04 C 152.19 144.94 152.86 144.11 152.76 143.18 Z M 152.61 141.97 L 152.38 141.03 C 152.15 140.13 151.23 139.58 150.32 139.81 C 149.42 140.04 148.87 140.96 149.10 141.87 L 149.34 142.80 C 149.57 143.71 150.49 144.25 151.39 144.02 C 152.30 143.79 152.84 142.87 152.61 141.97 Z M 152.28 140.76 L 151.87 139.85 C 151.49 138.99 150.48 138.62 149.63 139.00 C 148.78 139.38 148.40 140.39 148.79 141.24 L 149.20 142.15 C 149.58 143.00 150.58 143.38 151.43 142.99 C 152.29 142.61 152.66 141.61 152.28 140.76 Z M 151.73 139.59 L 151.17 138.78 C 150.65 138.00 149.59 137.80 148.82 138.33 C 148.05 138.86 147.85 139.91 148.38 140.68 L 148.93 141.50 C 149.46 142.27 150.51 142.47 151.28 141.94 C 152.05 141.41 152.25 140.36 151.73 139.59 Z M 151.01 138.57 L 150.33 137.85 C 149.69 137.16 148.62 137.13 147.94 137.76 C 147.26 138.40 147.22 139.47 147.86 140.16 L 148.54 140.88 C 149.18 141.57 150.25 141.60 150.93 140.97 C 151.61 140.33 151.65 139.26 151.01 138.57 Z M 150.18 137.70 L 149.39 137.05 C 148.68 136.45 147.61 136.55 147.01 137.27 C 146.41 137.99 146.51 139.06 147.23 139.66 L 148.01 140.30 C 148.73 140.90 149.80 140.80 150.40 140.08 C 150.99 139.36 150.89 138.30 150.18 137.70 Z M 149.26 136.95 L 148.42 136.38 C 147.65 135.86 146.59 136.07 146.07 136.84 C 145.55 137.61 145.75 138.67 146.53 139.19 L 147.37 139.76 C 148.14 140.28 149.19 140.07 149.72 139.30 C 150.24 138.53 150.03 137.47 149.26 136.95 Z M 148.31 136.32 L 147.42 135.81 C 146.61 135.35 145.58 135.64 145.12 136.45 C 144.66 137.26 144.94 138.29 145.75 138.75 L 146.64 139.26 C 147.45 139.72 148.48 139.43 148.94 138.62 C 149.40 137.81 149.12 136.78 148.31 136.32 Z M 147.32 135.76 L 146.42 135.33 C 145.58 134.92 144.57 135.28 144.17 136.11 C 143.76 136.95 144.11 137.96 144.95 138.37 L 145.85 138.80 C 146.69 139.21 147.70 138.86 148.11 138.02 C 148.51 137.18 148.16 136.17 147.32 135.76 Z M 146.33 135.29 L 145.43 134.92 C 144.57 134.56 143.58 134.97 143.23 135.83 C 142.87 136.69 143.28 137.68 144.14 138.03 L 145.04 138.40 C 145.90 138.76 146.88 138.35 147.24 137.49 C 147.60 136.63 147.19 135.65 146.33 135.29 Z M 145.34 134.89 L 144.33 134.54 C 143.45 134.24 142.49 134.70 142.19 135.57 C 141.89 136.45 142.35 137.41 143.22 137.71 L 144.23 138.06 C 145.11 138.36 146.07 137.90 146.37 137.03 C 146.67 136.15 146.21 135.19 145.34 134.89 Z M 144.22 134.52 L 143.26 134.25 C 142.37 134.01 141.46 134.53 141.21 135.41 C 140.96 136.30 141.48 137.22 142.37 137.46 L 143.33 137.73 C 144.22 137.98 145.13 137.46 145.38 136.57 C 145.63 135.68 145.11 134.77 144.22 134.52 Z M 143.16 134.24 L 142.24 134.04 C 141.34 133.85 140.46 134.42 140.27 135.31 C 140.08 136.20 140.65 137.08 141.54 137.28 L 142.47 137.48 C 143.36 137.67 144.24 137.10 144.43 136.21 C 144.62 135.31 144.06 134.43 143.16 134.24 Z M 142.15 134.04 L 141.21 133.89 C 140.31 133.74 139.47 134.35 139.32 135.24 C 139.18 136.14 139.79 136.98 140.68 137.13 L 141.63 137.28 C 142.52 137.42 143.36 136.82 143.51 135.92 C 143.65 135.03 143.05 134.18 142.15 134.04 Z M 141.13 133.89 L 140.16 133.78 C 139.27 133.68 138.46 134.32 138.36 135.21 C 138.26 136.10 138.90 136.91 139.79 137.01 L 140.76 137.12 C 141.65 137.22 142.46 136.58 142.56 135.69 C 142.66 134.80 142.02 133.99 141.13 133.89 Z M 140.09 133.79 L 139.09 133.72 C 138.20 133.65 137.43 134.32 137.36 135.21 C 137.30 136.09 137.96 136.87 138.85 136.93 L 139.86 137.00 C 140.75 137.07 141.52 136.40 141.58 135.51 C 141.65 134.62 140.98 133.85 140.09 133.79 Z M 139.03 133.73 L 138.01 133.69 C 137.13 133.65 136.39 134.34 136.35 135.22 C 136.31 136.10 137.00 136.84 137.88 136.88 L 138.90 136.92 C 139.79 136.95 140.53 136.27 140.57 135.39 C 140.60 134.51 139.91 133.76 139.03 133.73 Z M 137.95 133.69 L 136.95 133.69 C 136.07 133.69 135.36 134.39 135.36 135.27 C 135.35 136.15 136.06 136.86 136.94 136.86 L 137.94 136.87 C 138.82 136.87 139.53 136.16 139.53 135.29 C 139.54 134.41 138.83 133.70 137.95 133.69 Z M 136.85 133.70 L 135.84 133.76 C 134.97 133.81 134.30 134.55 134.35 135.42 C 134.40 136.29 135.15 136.96 136.02 136.91 L 137.03 136.85 C 137.90 136.80 138.57 136.06 138.52 135.19 C 138.47 134.32 137.73 133.65 136.85 133.70 Z M 135.70 133.78 L 134.71 133.93 C 133.85 134.06 133.26 134.86 133.39 135.72 C 133.52 136.58 134.32 137.17 135.18 137.04 L 136.16 136.89 C 137.02 136.76 137.61 135.96 137.48 135.10 C 137.35 134.24 136.55 133.65 135.70 133.78 Z M 134.51 133.98 L 133.54 134.26 C 132.71 134.50 132.23 135.37 132.47 136.20 C 132.72 137.03 133.58 137.51 134.41 137.27 L 135.38 136.99 C 136.21 136.74 136.69 135.88 136.45 135.05 C 136.20 134.22 135.34 133.74 134.51 133.98 Z M 133.35 134.33 L 132.44 134.73 C 131.64 135.08 131.28 136.00 131.63 136.79 C 131.98 137.58 132.90 137.94 133.69 137.60 L 134.60 137.20 C 135.39 136.85 135.75 135.93 135.41 135.14 C 135.06 134.35 134.14 133.99 133.35 134.33 Z M 132.32 134.79 L 131.45 135.26 C 130.69 135.67 130.41 136.62 130.82 137.38 C 131.23 138.14 132.18 138.42 132.94 138.01 L 133.81 137.54 C 134.56 137.13 134.85 136.18 134.43 135.42 C 134.02 134.66 133.08 134.38 132.32 134.79 Z M 131.40 135.29 L 130.82 135.63 C 130.08 136.06 129.83 137.02 130.27 137.76 C 130.70 138.51 131.66 138.76 132.40 138.32 L 132.98 137.98 C 133.72 137.55 133.97 136.59 133.54 135.85 C 133.10 135.10 132.15 134.85 131.40 135.29 Z"
      fill="black"
      fill-rule="nonzero" /></svg>