<svg xmlns="http://www.w3.org/2000/svg" width="300" height="300" viewBox="0 0 300 300">
<path d="M 160.17 90.64 L 159.37 91.23 C 158.61 91.79 158.45 92.86 159.01 93.62 C 159.58 94.37 160.64 94.53 161.40 93.97 L 162.20 93.37 C 162.96 92.81 163.12 91.74 162.56 90.99 C 161.99 90.23 160.93 90.07 160.17 90.64 Z M 159.34 91.24 L 158.55 91.85 C 157.80 92.42 157.65 93.50 158.23 94.25 C 158.80 95.00 159.88 95.14 160.63 94.57 L 161.42 93.96 C 162.17 93.39 162.32 92.31 161.74 91.56 C 161.17 90.81 160.09 90.67 159.34 91.24 Z M 158.50 91.87 L 157.73 92.50 C 156.99 93.10 156.87 94.18 157.47 94.92 C 158.07 95.66 159.15 95.77 159.89 95.18 L 160.67 94.55 C 161.41 93.95 161.52 92.87 160.92 92.13 C 160.33 91.39 159.24 91.27 158.50 91.87 Z M 157.67 92.54 L 156.92 93.20 C 156.20 93.83 156.13 94.92 156.76 95.64 C 157.39 96.36 158.49 96.43 159.20 95.80 L 159.95 95.13 C 160.67 94.50 160.74 93.41 160.11 92.70 C 159.48 91.98 158.38 91.91 157.67 92.54 Z M 156.86 93.26 L 156.13 93.97 C 155.44 94.63 155.43 95.73 156.09 96.41 C 156.76 97.10 157.85 97.11 158.53 96.45 L 159.26 95.74 C 159.95 95.07 159.96 93.98 159.30 93.30 C 158.63 92.61 157.54 92.60 156.86 93.26 Z M 156.08 94.02 L 155.39 94.75 C 154.74 95.44 154.76 96.53 155.45 97.18 C 156.14 97.84 157.23 97.81 157.88 97.12 L 158.57 96.39 C 159.23 95.71 159.20 94.62 158.52 93.96 C 157.83 93.31 156.74 93.33 156.08 94.02 Z M 155.36 94.79 L 154.70 95.52 C 154.07 96.22 154.13 97.31 154.83 97.94 C 155.53 98.57 156.61 98.52 157.25 97.82 L 157.91 97.08 C 158.54 96.38 158.48 95.30 157.78 94.67 C 157.08 94.03 156.00 94.09 155.36 94.79 Z M 154.69 95.55 L 154.05 96.29 C 153.43 97.00 153.50 98.07 154.21 98.69 C 154.92 99.31 155.99 99.24 156.61 98.53 L 157.26 97.79 C 157.88 97.08 157.80 96.01 157.10 95.39 C 156.39 94.77 155.31 94.84 154.69 95.55 Z M 154.05 96.31 L 153.41 97.05 C 152.80 97.76 152.88 98.83 153.59 99.44 C 154.30 100.05 155.36 99.96 155.97 99.25 L 156.61 98.51 C 157.22 97.80 157.14 96.73 156.43 96.12 C 155.72 95.52 154.65 95.60 154.05 96.31 Z M 153.41 97.07 L 152.77 97.83 C 152.17 98.53 152.26 99.59 152.96 100.19 C 153.67 100.79 154.73 100.70 155.33 99.99 L 155.97 99.24 C 156.57 98.53 156.48 97.47 155.77 96.87 C 155.07 96.27 154.01 96.36 153.41 97.07 Z M 152.77 97.84 L 152.11 98.63 C 151.52 99.33 151.61 100.38 152.32 100.97 C 153.02 101.57 154.07 101.47 154.67 100.77 L 155.33 99.98 C 155.92 99.28 155.83 98.22 155.12 97.63 C 154.42 97.04 153.36 97.13 152.77 97.84 Z M 152.12 98.63 L 151.50 99.37 C 150.91 100.08 151.01 101.12 151.71 101.71 C 152.41 102.30 153.46 102.20 154.05 101.50 L 154.66 100.76 C 155.25 100.06 155.16 99.01 154.45 98.42 C 153.75 97.84 152.70 97.93 152.12 98.63 Z M 151.50 99.38 L 150.86 100.15 C 150.28 100.85 150.38 101.90 151.08 102.48 C 151.78 103.06 152.83 102.96 153.41 102.26 L 154.05 101.49 C 154.63 100.79 154.53 99.74 153.83 99.16 C 153.12 98.58 152.08 98.68 151.50 99.38 Z M 150.86 100.16 L 150.21 100.95 C 149.63 101.66 149.74 102.70 150.45 103.27 C 151.15 103.85 152.19 103.75 152.77 103.04 L 153.42 102.25 C 153.99 101.54 153.89 100.50 153.18 99.92 C 152.47 99.35 151.43 99.45 150.86 100.16 Z M 150.20 100.96 L 149.56 101.76 C 149.00 102.47 149.11 103.51 149.82 104.08 C 150.53 104.65 151.57 104.53 152.14 103.82 L 152.78 103.02 C 153.35 102.31 153.23 101.28 152.52 100.71 C 151.81 100.14 150.77 100.25 150.20 100.96 Z M 149.55 101.78 L 148.93 102.57 C 148.37 103.29 148.50 104.33 149.22 104.89 C 149.94 105.45 150.97 105.32 151.53 104.60 L 152.15 103.81 C 152.71 103.09 152.58 102.05 151.87 101.49 C 151.15 100.93 150.11 101.06 149.55 101.78 Z M 148.92 102.59 L 148.32 103.39 C 147.76 104.11 147.91 105.15 148.63 105.70 C 149.36 106.25 150.39 106.11 150.94 105.38 L 151.55 104.58 C 152.10 103.86 151.95 102.83 151.23 102.28 C 150.51 101.72 149.47 101.87 148.92 102.59 Z M 148.30 103.40 L 147.71 104.20 C 147.17 104.94 147.32 105.97 148.05 106.51 C 148.79 107.05 149.82 106.90 150.36 106.17 L 150.95 105.37 C 151.50 104.63 151.34 103.60 150.61 103.06 C 149.88 102.52 148.84 102.67 148.30 103.40 Z M 147.70 104.22 L 147.11 105.03 C 146.58 105.77 146.75 106.80 147.49 107.33 C 148.22 107.86 149.26 107.70 149.79 106.96 L 150.37 106.15 C 150.91 105.41 150.74 104.38 150.00 103.85 C 149.26 103.31 148.23 103.48 147.70 104.22 Z M 147.10 105.04 L 146.52 105.87 C 145.99 106.62 146.17 107.65 146.92 108.17 C 147.66 108.70 148.69 108.52 149.22 107.77 L 149.80 106.94 C 150.33 106.20 150.15 105.17 149.40 104.64 C 148.66 104.12 147.63 104.29 147.10 105.04 Z M 146.50 105.89 L 145.93 106.72 C 145.41 107.47 145.60 108.50 146.36 109.02 C 147.11 109.54 148.14 109.35 148.66 108.59 L 149.23 107.76 C 149.75 107.01 149.56 105.98 148.80 105.46 C 148.05 104.94 147.02 105.13 146.50 105.89 Z M 145.92 106.73 L 145.36 107.56 C 144.85 108.32 145.06 109.35 145.82 109.86 C 146.58 110.37 147.61 110.17 148.12 109.40 L 148.67 108.58 C 149.18 107.82 148.98 106.79 148.22 106.28 C 147.46 105.77 146.43 105.97 145.92 106.73 Z M 145.35 107.57 L 144.81 108.40 C 144.31 109.17 144.53 110.20 145.29 110.70 C 146.06 111.20 147.09 110.98 147.59 110.22 L 148.13 109.39 C 148.63 108.62 148.42 107.59 147.65 107.09 C 146.88 106.59 145.85 106.81 145.35 107.57 Z M 144.79 108.42 L 144.24 109.30 C 143.75 110.08 143.98 111.11 144.76 111.60 C 145.54 112.09 146.56 111.86 147.06 111.08 L 147.61 110.20 C 148.10 109.42 147.87 108.39 147.09 107.90 C 146.31 107.41 145.28 107.64 144.79 108.42 Z M 144.21 109.33 L 143.70 110.20 C 143.22 110.99 143.48 112.02 144.28 112.49 C 145.07 112.96 146.09 112.70 146.57 111.91 L 147.08 111.04 C 147.55 110.25 147.29 109.23 146.50 108.75 C 145.71 108.28 144.68 108.54 144.21 109.33 Z M 143.66 110.25 L 143.20 111.10 C 142.75 111.91 143.05 112.93 143.86 113.38 C 144.67 113.82 145.69 113.52 146.14 112.71 L 146.60 111.86 C 147.05 111.05 146.75 110.03 145.94 109.58 C 145.12 109.14 144.10 109.44 143.66 110.25 Z M 143.15 111.18 L 142.68 112.17 C 142.28 113.01 142.64 114.01 143.48 114.41 C 144.32 114.81 145.32 114.45 145.72 113.61 L 146.18 112.62 C 146.58 111.79 146.22 110.78 145.39 110.39 C 144.55 109.99 143.54 110.35 143.15 111.18 Z M 142.58 112.42 L 142.29 113.44 C 142.03 114.33 142.54 115.26 143.43 115.52 C 144.33 115.78 145.26 115.27 145.52 114.38 L 145.81 113.36 C 146.07 112.47 145.56 111.54 144.67 111.28 C 143.78 111.02 142.84 111.53 142.58 112.42 Z M 142.26 114.25 L 142.42 115.03 C 142.61 115.94 143.50 116.52 144.41 116.33 C 145.32 116.14 145.90 115.25 145.71 114.34 L 145.55 113.56 C 145.36 112.65 144.47 112.07 143.56 112.26 C 142.65 112.45 142.07 113.34 142.26 114.25 Z M 143.13 116.08 L 143.64 116.43 C 144.42 116.95 145.46 116.74 145.98 115.97 C 146.50 115.19 146.29 114.15 145.52 113.63 L 145.00 113.29 C 144.23 112.77 143.18 112.97 142.67 113.75 C 142.15 114.52 142.36 115.57 143.13 116.08 Z M 144.26 116.68 L 145.07 116.84 C 145.99 117.01 146.87 116.42 147.05 115.50 C 147.22 114.59 146.62 113.71 145.71 113.53 L 144.90 113.38 C 143.99 113.20 143.10 113.80 142.93 114.71 C 142.75 115.63 143.35 116.51 144.26 116.68 Z M 145.38 116.87 L 146.49 116.88 C 147.42 116.88 148.17 116.13 148.18 115.20 C 148.19 114.27 147.44 113.51 146.51 113.51 L 145.40 113.50 C 144.47 113.50 143.71 114.25 143.71 115.18 C 143.70 116.11 144.45 116.86 145.38 116.87 Z M 146.65 116.87 L 148.03 116.74 C 148.95 116.66 149.63 115.84 149.55 114.92 C 149.47 113.99 148.65 113.31 147.72 113.39 L 146.34 113.52 C 145.42 113.60 144.73 114.42 144.82 115.34 C 144.90 116.27 145.72 116.95 146.65 116.87 Z M 148.10 116.74 L 149.06 116.60 C 149.98 116.48 150.63 115.63 150.50 114.71 C 150.38 113.78 149.53 113.14 148.60 113.27 L 147.64 113.40 C 146.72 113.53 146.08 114.38 146.20 115.30 C 146.33 116.22 147.18 116.86 148.10 116.74 Z M 149.10 116.60 L 150.11 116.44 C 151.03 116.29 151.65 115.43 151.51 114.51 C 151.36 113.59 150.50 112.96 149.58 113.11 L 148.57 113.27 C 147.65 113.42 147.02 114.28 147.17 115.20 C 147.32 116.12 148.18 116.75 149.10 116.60 Z M 150.13 116.43 L 151.17 116.25 C 152.09 116.09 152.70 115.22 152.54 114.30 C 152.38 113.38 151.51 112.77 150.59 112.93 L 149.55 113.12 C 148.64 113.28 148.02 114.15 148.18 115.07 C 148.34 115.98 149.22 116.59 150.13 116.43 Z M 151.19 116.25 L 152.22 116.05 C 153.14 115.88 153.74 115.00 153.57 114.09 C 153.40 113.18 152.52 112.57 151.61 112.74 L 150.57 112.94 C 149.66 113.11 149.05 113.99 149.22 114.90 C 149.40 115.81 150.27 116.42 151.19 116.25 Z M 152.23 116.05 L 153.24 115.86 C 154.15 115.68 154.75 114.80 154.57 113.89 C 154.39 112.97 153.51 112.38 152.60 112.55 L 151.60 112.75 C 150.68 112.92 150.09 113.80 150.26 114.72 C 150.44 115.63 151.32 116.23 152.23 116.05 Z M 153.24 115.86 L 154.18 115.68 C 155.09 115.50 155.68 114.61 155.50 113.70 C 155.33 112.79 154.44 112.19 153.53 112.37 L 152.59 112.55 C 151.68 112.73 151.08 113.62 151.26 114.53 C 151.44 115.44 152.33 116.04 153.24 115.86 Z M 154.17 115.67 L 155.25 115.46 C 156.16 115.29 156.76 114.40 156.58 113.49 C 156.40 112.58 155.52 111.98 154.61 112.16 L 153.53 112.37 C 152.62 112.55 152.02 113.43 152.20 114.34 C 152.38 115.25 153.26 115.85 154.17 115.67 Z M 155.24 115.45 L 156.36 115.24 C 157.26 115.07 157.86 114.19 157.69 113.29 C 157.51 112.38 156.64 111.79 155.73 111.96 L 154.62 112.17 C 153.71 112.34 153.12 113.22 153.29 114.13 C 153.46 115.03 154.34 115.63 155.24 115.45 Z M 156.35 115.23 L 157.28 115.05 C 158.18 114.88 158.78 114.01 158.61 113.11 C 158.43 112.21 157.57 111.62 156.67 111.79 L 155.74 111.97 C 154.84 112.14 154.24 113.01 154.42 113.91 C 154.59 114.81 155.45 115.40 156.35 115.23 Z M 157.29 115.04 L 158.12 114.88 C 159.01 114.70 159.59 113.84 159.42 112.95 C 159.24 112.05 158.38 111.47 157.49 111.65 L 156.66 111.81 C 155.77 111.98 155.19 112.85 155.36 113.74 C 155.53 114.63 156.40 115.21 157.29 115.04 Z M 158.14 114.86 L 158.94 114.69 C 159.82 114.51 160.39 113.64 160.20 112.76 C 160.02 111.88 159.15 111.31 158.27 111.50 L 157.47 111.66 C 156.59 111.85 156.02 112.71 156.20 113.60 C 156.39 114.48 157.25 115.05 158.14 114.86 Z M 158.95 114.68 L 159.79 114.50 C 160.67 114.30 161.22 113.44 161.03 112.56 C 160.84 111.69 159.97 111.13 159.10 111.33 L 158.26 111.51 C 157.38 111.70 156.83 112.57 157.02 113.44 C 157.21 114.32 158.08 114.87 158.95 114.68 Z M 159.79 114.49 L 160.73 114.28 C 161.60 114.09 162.15 113.23 161.96 112.36 C 161.77 111.49 160.91 110.94 160.04 111.13 L 159.10 111.34 C 158.23 111.53 157.68 112.39 157.87 113.26 C 158.06 114.13 158.92 114.68 159.79 114.49 Z M 160.72 114.27 L 161.82 114.04 C 162.69 113.85 163.24 113.01 163.06 112.14 C 162.88 111.27 162.03 110.72 161.16 110.90 L 160.06 111.14 C 159.19 111.32 158.64 112.17 158.82 113.04 C 159.00 113.90 159.85 114.45 160.72 114.27 Z M 161.81 114.03 L 162.98 113.80 C 163.85 113.62 164.41 112.78 164.23 111.92 C 164.06 111.06 163.22 110.50 162.36 110.67 L 161.18 110.91 C 160.32 111.08 159.76 111.92 159.93 112.78 C 160.11 113.65 160.94 114.20 161.81 114.03 Z M 162.96 113.79 L 164.12 113.57 C 164.98 113.41 165.55 112.58 165.39 111.72 C 165.23 110.86 164.40 110.30 163.54 110.46 L 162.38 110.68 C 161.52 110.84 160.95 111.67 161.11 112.53 C 161.28 113.39 162.10 113.95 162.96 113.79 Z M 164.10 113.57 L 165.25 113.38 C 166.11 113.23 166.68 112.41 166.54 111.55 C 166.39 110.69 165.57 110.12 164.71 110.26 L 163.57 110.46 C 162.71 110.61 162.13 111.42 162.27 112.28 C 162.42 113.14 163.24 113.72 164.10 113.57 Z M 165.20 113.38 L 166.22 113.23 C 167.08 113.11 167.68 112.31 167.56 111.45 C 167.44 110.59 166.64 109.99 165.78 110.12 L 164.76 110.26 C 163.90 110.38 163.30 111.18 163.42 112.04 C 163.54 112.90 164.34 113.50 165.20 113.38 Z M 166.13 113.24 L 166.92 113.17 C 167.78 113.10 168.42 112.34 168.35 111.48 C 168.27 110.61 167.52 109.97 166.65 110.05 L 165.87 110.11 C 165.01 110.19 164.37 110.94 164.44 111.81 C 164.51 112.67 165.27 113.31 166.13 113.24 Z M 166.44 113.13 L 166.95 113.25 C 167.80 113.44 168.63 112.91 168.82 112.07 C 169.01 111.22 168.48 110.39 167.64 110.20 L 167.13 110.08 C 166.28 109.89 165.45 110.42 165.26 111.27 C 165.07 112.11 165.60 112.95 166.44 113.13 Z M 166.18 110.63 L 165.68 111.14 C 165.08 111.76 165.09 112.75 165.71 113.35 C 166.32 113.96 167.31 113.94 167.92 113.33 L 168.41 112.82 C 169.02 112.20 169.01 111.21 168.39 110.61 C 167.77 110.00 166.78 110.02 166.18 110.63 Z M 165.98 110.91 L 165.01 111.50 C 164.28 111.95 164.05 112.91 164.50 113.65 C 164.95 114.38 165.91 114.61 166.65 114.16 L 167.62 113.57 C 168.35 113.11 168.58 112.15 168.13 111.42 C 167.68 110.68 166.71 110.45 165.98 110.91 Z"
      fill="black"
      fill-rule="nonzero" /><path d="M 139.45 135.54 L 140.16 136.24 C 140.83 136.89 141.91 136.87 142.57 136.20 C 143.22 135.53 143.20 134.45 142.53 133.80 L 141.82 133.10 C 141.14 132.45 140.07 132.46 139.41 133.14 C 138.76 133.81 138.77 134.89 139.45 135.54 Z M 140.26 136.35 L 141.03 136.97 C 141.76 137.57 142.85 137.46 143.44 136.73 C 144.04 135.99 143.93 134.91 143.20 134.31 L 142.43 133.68 C 141.70 133.09 140.61 133.20 140.01 133.93 C 139.42 134.67 139.53 135.75 140.26 136.35 Z M 141.27 137.16 L 142.14 137.64 C 142.98 138.11 144.03 137.81 144.50 136.97 C 144.97 136.14 144.67 135.08 143.83 134.61 L 142.96 134.13 C 142.12 133.66 141.07 133.96 140.60 134.80 C 140.13 135.63 140.43 136.69 141.27 137.16 Z M 142.48 137.80 L 143.35 138.06 C 144.28 138.34 145.25 137.81 145.53 136.89 C 145.80 135.97 145.28 134.99 144.36 134.72 L 143.49 134.46 C 142.56 134.18 141.59 134.70 141.31 135.63 C 141.04 136.55 141.56 137.52 142.48 137.80 Z M 143.64 138.12 L 144.58 138.24 C 145.54 138.36 146.41 137.68 146.53 136.72 C 146.65 135.76 145.96 134.89 145.01 134.77 L 144.07 134.65 C 143.11 134.54 142.24 135.22 142.12 136.17 C 142.00 137.13 142.68 138.00 143.64 138.12 Z M 144.78 138.25 L 145.81 138.26 C 146.77 138.26 147.56 137.49 147.57 136.52 C 147.58 135.56 146.80 134.77 145.83 134.76 L 144.81 134.76 C 143.84 134.75 143.05 135.53 143.05 136.49 C 143.04 137.46 143.82 138.24 144.78 138.25 Z M 145.95 138.25 L 147.05 138.17 C 148.01 138.11 148.74 137.27 148.67 136.31 C 148.60 135.34 147.76 134.62 146.80 134.69 L 145.70 134.77 C 144.73 134.84 144.01 135.67 144.08 136.64 C 144.15 137.60 144.98 138.32 145.95 138.25 Z M 147.14 138.17 L 148.15 138.04 C 149.11 137.93 149.79 137.06 149.68 136.10 C 149.56 135.14 148.69 134.46 147.74 134.58 L 146.72 134.70 C 145.76 134.81 145.08 135.68 145.19 136.64 C 145.31 137.60 146.18 138.28 147.14 138.17 Z M 148.21 138.03 L 149.23 137.88 C 150.18 137.73 150.84 136.84 150.69 135.89 C 150.54 134.94 149.65 134.28 148.70 134.43 L 147.68 134.58 C 146.73 134.73 146.07 135.62 146.22 136.57 C 146.37 137.53 147.26 138.18 148.21 138.03 Z M 149.27 137.87 L 150.28 137.69 C 151.23 137.52 151.86 136.61 151.69 135.67 C 151.52 134.72 150.61 134.09 149.66 134.26 L 148.66 134.44 C 147.71 134.61 147.08 135.51 147.25 136.46 C 147.42 137.41 148.33 138.04 149.27 137.87 Z M 150.31 137.68 L 151.27 137.49 C 152.22 137.30 152.83 136.38 152.64 135.44 C 152.45 134.50 151.53 133.88 150.59 134.07 L 149.63 134.27 C 148.69 134.45 148.08 135.37 148.26 136.32 C 148.45 137.26 149.37 137.87 150.31 137.68 Z M 151.30 137.48 L 152.29 137.26 C 153.23 137.05 153.82 136.13 153.62 135.19 C 153.41 134.25 152.48 133.66 151.54 133.86 L 150.56 134.08 C 149.62 134.29 149.03 135.22 149.23 136.15 C 149.44 137.09 150.37 137.69 151.30 137.48 Z M 152.33 137.25 L 153.34 137.00 C 154.27 136.78 154.84 135.84 154.61 134.91 C 154.39 133.98 153.45 133.41 152.52 133.63 L 151.51 133.88 C 150.58 134.10 150.01 135.04 150.23 135.97 C 150.46 136.90 151.40 137.47 152.33 137.25 Z M 153.38 136.99 L 154.31 136.74 C 155.23 136.49 155.77 135.54 155.53 134.62 C 155.28 133.70 154.33 133.15 153.41 133.40 L 152.48 133.65 C 151.56 133.90 151.02 134.84 151.26 135.76 C 151.51 136.69 152.46 137.23 153.38 136.99 Z M 154.34 136.72 L 155.24 136.46 C 156.15 136.20 156.68 135.24 156.41 134.33 C 156.15 133.42 155.19 132.89 154.28 133.15 L 153.38 133.42 C 152.47 133.68 151.94 134.63 152.21 135.55 C 152.47 136.46 153.42 136.99 154.34 136.72 Z M 155.26 136.45 L 156.17 136.17 C 157.08 135.89 157.59 134.94 157.32 134.03 C 157.04 133.13 156.08 132.61 155.18 132.89 L 154.26 133.17 C 153.36 133.44 152.85 134.40 153.12 135.30 C 153.39 136.21 154.35 136.72 155.26 136.45 Z M 156.18 136.16 L 157.13 135.87 C 158.03 135.59 158.53 134.63 158.26 133.73 C 157.98 132.83 157.02 132.33 156.12 132.60 L 155.17 132.90 C 154.27 133.18 153.77 134.13 154.04 135.03 C 154.32 135.94 155.28 136.44 156.18 136.16 Z M 157.13 135.86 L 158.11 135.56 C 159.00 135.28 159.51 134.33 159.23 133.43 C 158.95 132.53 158.00 132.03 157.10 132.31 L 156.12 132.61 C 155.22 132.89 154.72 133.84 155.00 134.74 C 155.28 135.64 156.23 136.14 157.13 135.86 Z M 158.10 135.56 L 159.05 135.27 C 159.95 135.00 160.46 134.05 160.19 133.15 C 159.91 132.26 158.97 131.75 158.07 132.02 L 157.12 132.31 C 156.22 132.58 155.71 133.53 155.98 134.42 C 156.25 135.32 157.20 135.83 158.10 135.56 Z M 159.04 135.26 L 159.98 134.99 C 160.87 134.72 161.38 133.79 161.12 132.89 C 160.86 132.00 159.92 131.49 159.02 131.75 L 158.09 132.02 C 157.19 132.29 156.68 133.23 156.94 134.12 C 157.21 135.02 158.15 135.53 159.04 135.26 Z M 159.97 134.98 L 160.93 134.70 C 161.82 134.45 162.34 133.51 162.08 132.62 C 161.82 131.73 160.89 131.21 159.99 131.47 L 159.03 131.75 C 158.14 132.01 157.62 132.94 157.88 133.84 C 158.14 134.73 159.08 135.24 159.97 134.98 Z M 160.93 134.70 L 161.92 134.41 C 162.80 134.16 163.32 133.23 163.06 132.34 C 162.81 131.45 161.88 130.94 160.99 131.19 L 160.00 131.48 C 159.11 131.73 158.59 132.66 158.85 133.55 C 159.11 134.44 160.04 134.96 160.93 134.70 Z M 161.91 134.41 L 162.88 134.13 C 163.76 133.87 164.27 132.95 164.02 132.06 C 163.76 131.18 162.84 130.67 161.95 130.92 L 160.99 131.20 C 160.10 131.46 159.59 132.38 159.85 133.27 C 160.10 134.15 161.03 134.66 161.91 134.41 Z M 162.88 134.12 L 163.84 133.84 C 164.72 133.58 165.22 132.66 164.96 131.78 C 164.71 130.90 163.78 130.40 162.90 130.65 L 161.95 130.93 C 161.07 131.19 160.56 132.11 160.82 132.99 C 161.08 133.87 162.00 134.38 162.88 134.12 Z M 163.85 133.83 L 164.81 133.54 C 165.68 133.27 166.18 132.35 165.91 131.48 C 165.65 130.61 164.73 130.11 163.86 130.38 L 162.89 130.67 C 162.02 130.93 161.53 131.85 161.79 132.72 C 162.05 133.60 162.97 134.09 163.85 133.83 Z M 164.83 133.52 L 165.79 133.22 C 166.65 132.95 167.13 132.02 166.86 131.16 C 166.59 130.30 165.67 129.82 164.80 130.09 L 163.84 130.39 C 162.98 130.66 162.50 131.58 162.77 132.45 C 163.04 133.31 163.96 133.79 164.83 133.52 Z M 165.81 133.20 L 166.77 132.88 C 167.63 132.60 168.09 131.67 167.80 130.82 C 167.52 129.96 166.60 129.50 165.74 129.78 L 164.78 130.10 C 163.92 130.39 163.46 131.31 163.75 132.17 C 164.03 133.02 164.96 133.49 165.81 133.20 Z M 166.80 132.86 L 167.75 132.53 C 168.60 132.23 169.04 131.30 168.74 130.45 C 168.44 129.61 167.52 129.16 166.67 129.46 L 165.72 129.80 C 164.87 130.10 164.43 131.03 164.72 131.87 C 165.02 132.72 165.95 133.16 166.80 132.86 Z M 167.77 132.51 L 168.71 132.17 C 169.55 131.86 169.98 130.93 169.67 130.09 C 169.36 129.25 168.43 128.82 167.59 129.13 L 166.65 129.48 C 165.81 129.79 165.38 130.72 165.69 131.56 C 166.00 132.39 166.93 132.82 167.77 132.51 Z M 168.73 132.15 L 169.65 131.80 C 170.48 131.48 170.90 130.55 170.58 129.72 C 170.26 128.89 169.33 128.47 168.50 128.79 L 167.57 129.14 C 166.74 129.46 166.33 130.39 166.65 131.22 C 166.96 132.05 167.90 132.47 168.73 132.15 Z M 169.66 131.79 L 170.59 131.42 C 171.41 131.10 171.82 130.17 171.49 129.35 C 171.17 128.52 170.24 128.11 169.42 128.44 L 168.49 128.80 C 167.66 129.12 167.26 130.06 167.58 130.88 C 167.90 131.70 168.84 132.11 169.66 131.79 Z M 170.59 131.42 L 171.53 131.04 C 172.35 130.71 172.75 129.78 172.43 128.96 C 172.10 128.14 171.17 127.74 170.35 128.07 L 169.41 128.45 C 168.59 128.77 168.19 129.70 168.52 130.52 C 168.84 131.34 169.77 131.74 170.59 131.42 Z M 171.54 131.03 L 172.47 130.66 C 173.28 130.33 173.67 129.40 173.34 128.58 C 173.01 127.77 172.08 127.37 171.27 127.70 L 170.34 128.08 C 169.53 128.41 169.14 129.34 169.47 130.15 C 169.80 130.97 170.72 131.36 171.54 131.03 Z M 172.47 130.65 L 173.38 130.27 C 174.20 129.94 174.58 129.01 174.25 128.20 C 173.92 127.39 172.99 127.00 172.18 127.34 L 171.27 127.71 C 170.45 128.05 170.07 128.97 170.40 129.78 C 170.73 130.59 171.66 130.98 172.47 130.65 Z M 173.39 130.27 L 174.32 129.88 C 175.12 129.55 175.50 128.62 175.17 127.81 C 174.83 127.01 173.91 126.62 173.10 126.96 L 172.18 127.34 C 171.37 127.68 170.99 128.60 171.32 129.41 C 171.66 130.22 172.58 130.60 173.39 130.27 Z M 174.32 129.87 L 175.26 129.48 C 176.06 129.14 176.44 128.22 176.10 127.41 C 175.76 126.61 174.84 126.23 174.03 126.57 L 173.10 126.97 C 172.29 127.30 171.92 128.23 172.25 129.03 C 172.59 129.83 173.52 130.21 174.32 129.87 Z M 175.26 129.47 L 176.18 129.08 C 176.98 128.74 177.35 127.81 177.01 127.01 C 176.67 126.21 175.74 125.84 174.94 126.19 L 174.02 126.58 C 173.23 126.92 172.86 127.85 173.20 128.65 C 173.54 129.44 174.47 129.81 175.26 129.47 Z M 176.20 129.07 L 177.09 128.67 C 177.89 128.33 178.25 127.40 177.90 126.61 C 177.55 125.81 176.62 125.45 175.83 125.80 L 174.93 126.20 C 174.14 126.54 173.78 127.47 174.13 128.26 C 174.48 129.06 175.40 129.42 176.20 129.07 Z M 177.11 128.66 L 178.04 128.24 C 178.83 127.88 179.18 126.95 178.82 126.17 C 178.46 125.38 177.53 125.03 176.74 125.39 L 175.81 125.81 C 175.02 126.17 174.68 127.10 175.03 127.89 C 175.39 128.67 176.32 129.02 177.11 128.66 Z M 178.06 128.23 L 178.98 127.80 C 179.76 127.43 180.09 126.49 179.72 125.71 C 179.35 124.93 178.41 124.60 177.63 124.97 L 176.72 125.40 C 175.94 125.77 175.61 126.70 175.98 127.49 C 176.35 128.27 177.28 128.60 178.06 128.23 Z M 179.00 127.78 L 179.88 127.34 C 180.65 126.95 180.97 126.02 180.58 125.24 C 180.20 124.47 179.26 124.16 178.48 124.54 L 177.60 124.98 C 176.83 125.37 176.52 126.31 176.91 127.08 C 177.29 127.85 178.23 128.17 179.00 127.78 Z M 179.92 127.32 L 180.74 126.88 C 181.51 126.48 181.80 125.53 181.39 124.77 C 180.99 124.01 180.04 123.72 179.28 124.12 L 178.45 124.56 C 177.69 124.97 177.40 125.91 177.80 126.68 C 178.21 127.44 179.15 127.73 179.92 127.32 Z M 180.80 126.85 L 181.59 126.39 C 182.33 125.96 182.59 125.00 182.15 124.26 C 181.72 123.51 180.76 123.26 180.02 123.69 L 179.22 124.15 C 178.48 124.59 178.23 125.54 178.66 126.29 C 179.10 127.03 180.05 127.29 180.80 126.85 Z M 181.66 126.34 L 182.48 125.80 C 183.20 125.33 183.40 124.36 182.92 123.64 C 182.44 122.92 181.48 122.72 180.76 123.20 L 179.94 123.74 C 179.22 124.22 179.02 125.18 179.50 125.90 C 179.98 126.62 180.94 126.82 181.66 126.34 Z M 182.56 125.74 L 183.45 125.07 C 184.13 124.55 184.27 123.57 183.75 122.89 C 183.22 122.20 182.25 122.06 181.56 122.59 L 180.67 123.26 C 179.99 123.78 179.85 124.76 180.37 125.44 C 180.90 126.13 181.88 126.27 182.56 125.74 Z M 183.51 125.02 L 184.21 124.43 C 184.87 123.87 184.96 122.89 184.40 122.23 C 183.85 121.57 182.86 121.49 182.20 122.04 L 181.50 122.64 C 180.84 123.19 180.75 124.18 181.31 124.84 C 181.86 125.49 182.85 125.58 183.51 125.02 Z M 184.25 124.40 L 184.95 123.77 C 185.59 123.20 185.65 122.21 185.07 121.57 C 184.50 120.92 183.51 120.87 182.87 121.44 L 182.17 122.07 C 181.53 122.65 181.47 123.63 182.05 124.28 C 182.62 124.92 183.61 124.97 184.25 124.40 Z M 184.97 123.75 L 185.71 123.07 C 186.34 122.48 186.38 121.49 185.79 120.86 C 185.20 120.23 184.22 120.19 183.58 120.78 L 182.85 121.46 C 182.22 122.05 182.18 123.04 182.77 123.67 C 183.35 124.30 184.34 124.34 184.97 123.75 Z M 185.72 123.05 L 186.48 122.33 C 187.11 121.74 187.13 120.75 186.54 120.12 C 185.94 119.50 184.96 119.47 184.33 120.07 L 183.57 120.79 C 182.95 121.39 182.92 122.37 183.52 123.00 C 184.11 123.62 185.10 123.65 185.72 123.05 Z M 186.49 122.32 L 187.27 121.58 C 187.89 120.98 187.90 119.99 187.31 119.37 C 186.71 118.75 185.72 118.73 185.10 119.33 L 184.32 120.08 C 183.70 120.67 183.69 121.66 184.28 122.28 C 184.88 122.90 185.87 122.92 186.49 122.32 Z M 187.27 121.57 L 187.60 121.25 C 188.22 120.65 188.24 119.66 187.64 119.04 C 187.04 118.42 186.05 118.41 185.43 119.01 L 185.10 119.33 C 184.48 119.93 184.46 120.92 185.06 121.54 C 185.66 122.16 186.65 122.17 187.27 121.57 Z"
      fill="black"
      fill-rule="nonzero" /><path d="M 162.40 103.54 L 161.42 103.68 C 160.46 103.82 159.80 104.70 159.93 105.65 C 160.07 106.60 160.95 107.27 161.90 107.13 L 162.89 106.99 C 163.84 106.86 164.51 105.98 164.37 105.03 C 164.24 104.07 163.36 103.41 162.40 103.54 Z M 161.20 103.70 L 160.26 103.96 C 159.31 104.21 158.76 105.18 159.01 106.12 C 159.26 107.06 160.23 107.62 161.17 107.36 L 162.12 107.11 C 163.06 106.86 163.61 105.89 163.36 104.95 C 163.11 104.01 162.14 103.45 161.20 103.70 Z M 159.84 104.11 L 158.98 104.59 C 158.12 105.07 157.81 106.16 158.30 107.02 C 158.78 107.88 159.87 108.18 160.73 107.70 L 161.59 107.22 C 162.45 106.73 162.75 105.64 162.27 104.79 C 161.78 103.93 160.70 103.62 159.84 104.11 Z M 158.55 104.90 L 157.96 105.52 C 157.27 106.24 157.30 107.38 158.02 108.07 C 158.74 108.75 159.88 108.73 160.56 108.01 L 161.16 107.39 C 161.84 106.67 161.82 105.53 161.10 104.84 C 160.38 104.16 159.24 104.18 158.55 104.90 Z M 157.73 105.81 L 157.28 106.53 C 156.75 107.38 157.01 108.49 157.86 109.02 C 158.71 109.55 159.82 109.29 160.35 108.44 L 160.80 107.72 C 161.33 106.87 161.07 105.76 160.22 105.23 C 159.37 104.70 158.25 104.96 157.73 105.81 Z M 157.16 106.73 L 156.76 107.61 C 156.35 108.52 156.75 109.60 157.66 110.01 C 158.57 110.43 159.65 110.03 160.06 109.12 L 160.46 108.24 C 160.88 107.33 160.48 106.25 159.57 105.84 C 158.65 105.42 157.58 105.82 157.16 106.73 Z M 156.70 107.76 L 156.34 108.78 C 156.00 109.72 156.49 110.76 157.44 111.10 C 158.38 111.44 159.42 110.94 159.76 110.00 L 160.12 108.97 C 160.46 108.03 159.97 106.99 159.02 106.65 C 158.08 106.32 157.04 106.81 156.70 107.76 Z M 156.30 108.87 L 155.96 110.03 C 155.68 110.99 156.23 112.00 157.19 112.29 C 158.16 112.57 159.17 112.02 159.46 111.05 L 159.79 109.90 C 160.08 108.94 159.53 107.92 158.56 107.64 C 157.60 107.36 156.59 107.91 156.30 108.87 Z M 155.94 110.08 L 155.68 111.09 C 155.43 112.06 156.01 113.06 156.99 113.31 C 157.96 113.56 158.96 112.98 159.21 112.00 L 159.47 111.00 C 159.73 110.02 159.14 109.03 158.17 108.78 C 157.19 108.52 156.20 109.11 155.94 110.08 Z M 155.67 111.12 L 155.43 112.12 C 155.20 113.10 155.80 114.09 156.78 114.32 C 157.76 114.55 158.75 113.95 158.98 112.97 L 159.22 111.97 C 159.45 110.99 158.85 110.01 157.87 109.77 C 156.89 109.54 155.91 110.14 155.67 111.12 Z M 155.43 112.15 L 155.20 113.17 C 154.98 114.15 155.59 115.12 156.58 115.35 C 157.56 115.57 158.53 114.95 158.75 113.97 L 158.99 112.95 C 159.21 111.97 158.59 110.99 157.61 110.77 C 156.63 110.55 155.65 111.16 155.43 112.15 Z M 155.20 113.18 L 154.98 114.20 C 154.76 115.18 155.39 116.15 156.37 116.36 C 157.36 116.58 158.33 115.95 158.54 114.97 L 158.76 113.95 C 158.97 112.97 158.35 112.00 157.36 111.79 C 156.38 111.57 155.41 112.20 155.20 113.18 Z M 154.98 114.21 L 154.77 115.19 C 154.56 116.18 155.19 117.14 156.18 117.35 C 157.16 117.56 158.13 116.93 158.33 115.94 L 158.54 114.96 C 158.75 113.97 158.12 113.01 157.13 112.80 C 156.15 112.59 155.18 113.22 154.98 114.21 Z M 154.77 115.20 L 154.57 116.12 C 154.37 117.11 155.00 118.07 155.99 118.28 C 156.97 118.48 157.94 117.85 158.14 116.87 L 158.33 115.94 C 158.54 114.95 157.91 113.99 156.92 113.78 C 155.94 113.58 154.97 114.21 154.77 115.20 Z M 154.58 116.12 L 154.36 117.14 C 154.15 118.13 154.78 119.09 155.77 119.30 C 156.75 119.51 157.72 118.88 157.92 117.89 L 158.14 116.87 C 158.34 115.89 157.72 114.92 156.73 114.71 C 155.75 114.51 154.78 115.14 154.58 116.12 Z M 154.37 117.13 L 154.13 118.21 C 153.92 119.19 154.54 120.16 155.52 120.37 C 156.50 120.59 157.47 119.96 157.68 118.98 L 157.92 117.90 C 158.13 116.92 157.51 115.96 156.53 115.74 C 155.55 115.53 154.58 116.15 154.37 117.13 Z M 154.14 118.20 L 153.92 119.15 C 153.70 120.13 154.32 121.10 155.29 121.32 C 156.27 121.54 157.24 120.93 157.46 119.95 L 157.68 119.00 C 157.90 118.02 157.28 117.05 156.31 116.83 C 155.33 116.61 154.36 117.22 154.14 118.20 Z M 153.93 119.13 L 153.72 120.01 C 153.49 120.99 154.09 121.96 155.07 122.19 C 156.04 122.42 157.01 121.82 157.24 120.85 L 157.45 119.97 C 157.68 119.00 157.08 118.02 156.11 117.79 C 155.14 117.56 154.16 118.16 153.93 119.13 Z M 153.73 120.00 L 153.52 120.87 C 153.28 121.84 153.87 122.81 154.84 123.05 C 155.80 123.29 156.78 122.70 157.02 121.73 L 157.24 120.86 C 157.48 119.90 156.89 118.92 155.92 118.68 C 154.95 118.44 153.97 119.03 153.73 120.00 Z M 153.52 120.85 L 153.29 121.78 C 153.04 122.74 153.62 123.73 154.59 123.97 C 155.55 124.22 156.53 123.63 156.78 122.67 L 157.02 121.75 C 157.26 120.78 156.68 119.80 155.72 119.55 C 154.75 119.31 153.77 119.89 153.52 120.85 Z M 153.29 121.77 L 153.04 122.72 C 152.79 123.69 153.37 124.67 154.33 124.92 C 155.29 125.17 156.28 124.60 156.53 123.63 L 156.78 122.68 C 157.03 121.72 156.45 120.73 155.49 120.48 C 154.53 120.23 153.54 120.81 153.29 121.77 Z M 153.04 122.72 L 152.78 123.71 C 152.53 124.67 153.10 125.65 154.06 125.91 C 155.03 126.16 156.01 125.59 156.26 124.63 L 156.52 123.64 C 156.78 122.68 156.21 121.69 155.24 121.44 C 154.28 121.19 153.30 121.76 153.04 122.72 Z M 152.79 123.70 L 152.52 124.72 C 152.26 125.68 152.83 126.66 153.79 126.92 C 154.75 127.17 155.74 126.60 155.99 125.64 L 156.26 124.63 C 156.52 123.67 155.95 122.68 154.99 122.43 C 154.03 122.17 153.04 122.75 152.79 123.70 Z M 152.52 124.72 L 152.27 125.67 C 152.01 126.63 152.58 127.61 153.54 127.86 C 154.50 128.12 155.48 127.55 155.74 126.59 L 155.99 125.64 C 156.25 124.68 155.67 123.70 154.72 123.44 C 153.76 123.19 152.77 123.76 152.52 124.72 Z M 152.27 125.67 L 152.01 126.63 C 151.76 127.59 152.33 128.57 153.29 128.83 C 154.24 129.08 155.22 128.51 155.48 127.56 L 155.74 126.59 C 155.99 125.63 155.42 124.65 154.46 124.40 C 153.51 124.14 152.52 124.71 152.27 125.67 Z M 152.02 126.63 L 151.76 127.61 C 151.50 128.56 152.07 129.54 153.02 129.80 C 153.98 130.05 154.96 129.49 155.22 128.53 L 155.48 127.56 C 155.73 126.60 155.16 125.62 154.21 125.37 C 153.25 125.11 152.27 125.68 152.02 126.63 Z M 151.76 127.60 L 151.50 128.58 C 151.24 129.53 151.80 130.51 152.76 130.77 C 153.71 131.03 154.69 130.46 154.95 129.51 L 155.21 128.53 C 155.47 127.58 154.90 126.60 153.95 126.34 C 153.00 126.09 152.02 126.65 151.76 127.60 Z M 151.50 128.57 L 151.24 129.54 C 150.98 130.50 151.54 131.48 152.49 131.74 C 153.44 132.00 154.42 131.44 154.68 130.48 L 154.95 129.51 C 155.20 128.56 154.64 127.58 153.69 127.32 C 152.74 127.06 151.76 127.62 151.50 128.57 Z M 151.24 129.54 L 150.97 130.50 C 150.71 131.45 151.27 132.43 152.21 132.70 C 153.16 132.96 154.14 132.40 154.41 131.46 L 154.68 130.49 C 154.94 129.54 154.38 128.56 153.43 128.30 C 152.49 128.03 151.50 128.59 151.24 129.54 Z M 150.98 130.49 L 150.71 131.45 C 150.44 132.40 150.99 133.38 151.93 133.65 C 152.88 133.92 153.86 133.37 154.13 132.42 L 154.40 131.47 C 154.67 130.52 154.12 129.54 153.18 129.27 C 152.23 129.00 151.25 129.55 150.98 130.49 Z M 150.71 131.44 L 150.43 132.40 C 150.16 133.34 150.70 134.32 151.64 134.60 C 152.58 134.88 153.57 134.33 153.84 133.39 L 154.12 132.44 C 154.40 131.49 153.86 130.51 152.92 130.23 C 151.97 129.96 150.99 130.50 150.71 131.44 Z M 150.44 132.38 L 150.15 133.34 C 149.87 134.28 150.40 135.27 151.33 135.55 C 152.27 135.83 153.26 135.30 153.55 134.37 L 153.84 133.41 C 154.12 132.47 153.59 131.48 152.65 131.20 C 151.71 130.91 150.72 131.44 150.44 132.38 Z M 150.16 133.32 L 149.86 134.26 C 149.57 135.20 150.09 136.19 151.02 136.49 C 151.96 136.78 152.95 136.26 153.24 135.32 L 153.54 134.38 C 153.83 133.45 153.31 132.45 152.38 132.16 C 151.45 131.87 150.45 132.39 150.16 133.32 Z M 149.87 134.25 L 149.56 135.20 C 149.26 136.13 149.77 137.12 150.70 137.43 C 151.63 137.73 152.63 137.22 152.93 136.29 L 153.24 135.34 C 153.54 134.41 153.03 133.41 152.10 133.11 C 151.17 132.81 150.17 133.32 149.87 134.25 Z M 149.57 135.19 L 149.25 136.14 C 148.95 137.06 149.45 138.06 150.37 138.37 C 151.30 138.68 152.30 138.18 152.60 137.25 L 152.92 136.30 C 153.23 135.38 152.73 134.38 151.80 134.07 C 150.88 133.76 149.88 134.26 149.57 135.19 Z M 149.26 136.13 L 148.94 137.08 C 148.62 138.00 149.11 139.00 150.04 139.32 C 150.96 139.63 151.96 139.14 152.27 138.22 L 152.60 137.26 C 152.91 136.34 152.42 135.34 151.50 135.03 C 150.58 134.71 149.58 135.20 149.26 136.13 Z M 148.94 137.07 L 148.61 138.02 C 148.29 138.94 148.78 139.94 149.70 140.26 C 150.61 140.58 151.62 140.09 151.94 139.18 L 152.27 138.23 C 152.59 137.31 152.10 136.31 151.18 135.99 C 150.26 135.67 149.26 136.15 148.94 137.07 Z M 148.62 138.01 L 148.28 138.96 C 147.96 139.87 148.44 140.87 149.35 141.20 C 150.27 141.52 151.27 141.04 151.59 140.13 L 151.93 139.18 C 152.25 138.27 151.77 137.27 150.86 136.94 C 149.95 136.62 148.94 137.10 148.62 138.01 Z M 148.29 138.95 L 147.95 139.89 C 147.62 140.80 148.10 141.81 149.01 142.13 C 149.92 142.46 150.92 141.99 151.25 141.08 L 151.59 140.14 C 151.91 139.23 151.44 138.22 150.53 137.89 C 149.62 137.57 148.62 138.04 148.29 138.95 Z M 147.96 139.89 L 147.62 140.83 C 147.29 141.74 147.75 142.74 148.66 143.07 C 149.57 143.40 150.57 142.93 150.90 142.02 L 151.24 141.08 C 151.57 140.18 151.10 139.17 150.20 138.84 C 149.29 138.51 148.29 138.98 147.96 139.89 Z M 147.62 140.82 L 147.28 141.76 C 146.95 142.66 147.41 143.67 148.31 144.00 C 149.22 144.33 150.22 143.87 150.55 142.96 L 150.90 142.03 C 151.23 141.12 150.76 140.12 149.86 139.79 C 148.96 139.46 147.95 139.92 147.62 140.82 Z M 147.28 141.76 L 146.94 142.70 C 146.60 143.60 147.06 144.60 147.96 144.93 C 148.86 145.27 149.86 144.81 150.20 143.91 L 150.55 142.96 C 150.88 142.06 150.42 141.06 149.52 140.73 C 148.62 140.40 147.62 140.86 147.28 141.76 Z M 146.94 142.69 L 146.59 143.63 C 146.25 144.53 146.71 145.53 147.60 145.87 C 148.50 146.20 149.50 145.75 149.84 144.85 L 150.19 143.91 C 150.53 143.02 150.07 142.02 149.18 141.68 C 148.28 141.34 147.28 141.80 146.94 142.69 Z M 146.60 143.62 L 146.24 144.56 C 145.90 145.45 146.35 146.45 147.24 146.79 C 148.13 147.13 149.13 146.69 149.47 145.79 L 149.83 144.86 C 150.17 143.97 149.72 142.97 148.83 142.63 C 147.94 142.29 146.94 142.73 146.60 143.62 Z M 146.25 144.54 L 145.89 145.47 C 145.54 146.35 145.97 147.36 146.86 147.71 C 147.74 148.05 148.74 147.62 149.09 146.73 L 149.46 145.81 C 149.81 144.92 149.37 143.92 148.49 143.57 C 147.60 143.22 146.60 143.66 146.25 144.54 Z M 145.90 145.45 L 145.52 146.37 C 145.17 147.25 145.59 148.25 146.47 148.61 C 147.34 148.97 148.35 148.55 148.71 147.67 L 149.08 146.75 C 149.44 145.87 149.02 144.87 148.14 144.51 C 147.26 144.15 146.26 144.57 145.90 145.45 Z M 145.54 146.35 L 145.15 147.26 C 144.78 148.13 145.19 149.13 146.06 149.50 C 146.93 149.87 147.94 149.47 148.31 148.60 L 148.69 147.69 C 149.06 146.82 148.66 145.81 147.78 145.44 C 146.91 145.07 145.91 145.48 145.54 146.35 Z M 145.17 147.24 L 144.77 148.15 C 144.39 149.01 144.78 150.02 145.65 150.40 C 146.51 150.78 147.52 150.38 147.90 149.52 L 148.29 148.61 C 148.67 147.75 148.28 146.74 147.42 146.36 C 146.55 145.98 145.55 146.38 145.17 147.24 Z M 144.78 148.14 L 144.37 149.05 C 143.99 149.91 144.37 150.91 145.23 151.30 C 146.08 151.68 147.09 151.30 147.47 150.44 L 147.89 149.53 C 148.27 148.67 147.89 147.67 147.03 147.28 C 146.17 146.90 145.17 147.28 144.78 148.14 Z M 144.38 149.04 L 143.96 149.97 C 143.57 150.82 143.94 151.83 144.79 152.22 C 145.65 152.60 146.65 152.23 147.04 151.38 L 147.47 150.45 C 147.85 149.60 147.48 148.59 146.63 148.20 C 145.78 147.82 144.77 148.19 144.38 149.04 Z M 143.97 149.96 L 143.54 150.89 C 143.15 151.73 143.52 152.74 144.36 153.13 C 145.21 153.52 146.22 153.15 146.61 152.30 L 147.03 151.38 C 147.43 150.53 147.06 149.53 146.21 149.14 C 145.36 148.75 144.36 149.12 143.97 149.96 Z M 143.55 150.88 L 143.12 151.81 C 142.72 152.65 143.09 153.65 143.93 154.04 C 144.77 154.44 145.77 154.07 146.17 153.23 L 146.60 152.31 C 146.99 151.47 146.63 150.46 145.79 150.07 C 144.94 149.68 143.94 150.04 143.55 150.88 Z M 143.13 151.80 L 142.69 152.72 C 142.30 153.56 142.65 154.55 143.49 154.95 C 144.33 155.35 145.33 154.99 145.72 154.15 L 146.16 153.24 C 146.55 152.40 146.20 151.40 145.36 151.00 C 144.52 150.61 143.52 150.96 143.13 151.80 Z M 142.70 152.71 L 142.27 153.61 C 141.87 154.44 142.22 155.44 143.05 155.84 C 143.88 156.24 144.88 155.89 145.28 155.06 L 145.71 154.16 C 146.11 153.33 145.76 152.33 144.93 151.93 C 144.10 151.53 143.10 151.88 142.70 152.71 Z M 142.28 153.60 L 141.86 154.46 C 141.45 155.29 141.79 156.29 142.61 156.69 C 143.44 157.10 144.43 156.76 144.84 155.93 L 145.27 155.07 C 145.67 154.25 145.33 153.25 144.51 152.84 C 143.69 152.44 142.69 152.78 142.28 153.60 Z M 141.87 154.45 L 141.39 155.39 C 140.98 156.21 141.31 157.21 142.12 157.62 C 142.94 158.03 143.93 157.71 144.35 156.89 L 144.83 155.95 C 145.24 155.13 144.91 154.14 144.10 153.72 C 143.28 153.31 142.28 153.63 141.87 154.45 Z M 141.41 155.38 L 140.94 156.28 C 140.52 157.09 140.83 158.08 141.64 158.50 C 142.44 158.93 143.44 158.61 143.86 157.81 L 144.33 156.91 C 144.75 156.10 144.44 155.10 143.63 154.68 C 142.83 154.26 141.83 154.57 141.41 155.38 Z M 140.95 156.27 L 140.49 157.13 C 140.06 157.93 140.36 158.92 141.16 159.35 C 141.96 159.78 142.96 159.48 143.39 158.68 L 143.85 157.82 C 144.28 157.02 143.98 156.02 143.18 155.59 C 142.38 155.17 141.38 155.47 140.95 156.27 Z M 140.50 157.12 L 140.05 157.96 C 139.61 158.75 139.91 159.75 140.70 160.18 C 141.49 160.61 142.49 160.32 142.92 159.52 L 143.38 158.69 C 143.81 157.89 143.52 156.90 142.72 156.47 C 141.93 156.03 140.93 156.33 140.50 157.12 Z M 140.06 157.96 L 139.57 158.84 C 139.13 159.63 139.42 160.62 140.21 161.05 C 141.00 161.49 141.99 161.20 142.42 160.41 L 142.91 159.53 C 143.34 158.74 143.06 157.75 142.27 157.31 C 141.48 156.88 140.49 157.17 140.06 157.96 Z M 139.58 158.83 L 139.09 159.71 C 138.65 160.50 138.93 161.48 139.71 161.92 C 140.50 162.36 141.49 162.08 141.92 161.30 L 142.41 160.42 C 142.85 159.63 142.57 158.64 141.79 158.21 C 141.00 157.77 140.02 158.05 139.58 158.83 Z M 139.10 159.71 L 138.61 160.57 C 138.17 161.35 138.44 162.33 139.22 162.78 C 139.99 163.22 140.98 162.94 141.42 162.17 L 141.91 161.30 C 142.35 160.53 142.08 159.54 141.30 159.10 C 140.53 158.66 139.54 158.93 139.10 159.71 Z M 138.62 160.56 L 138.13 161.42 C 137.68 162.19 137.94 163.17 138.71 163.62 C 139.48 164.06 140.47 163.80 140.91 163.03 L 141.41 162.18 C 141.85 161.41 141.59 160.42 140.82 159.98 C 140.05 159.53 139.07 159.79 138.62 160.56 Z M 138.14 161.41 L 137.62 162.29 C 137.17 163.05 137.42 164.04 138.18 164.49 C 138.95 164.94 139.93 164.68 140.38 163.92 L 140.90 163.04 C 141.35 162.28 141.10 161.29 140.34 160.84 C 139.57 160.39 138.59 160.65 138.14 161.41 Z M 137.63 162.28 L 137.11 163.14 C 136.66 163.90 136.90 164.88 137.66 165.34 C 138.41 165.79 139.40 165.55 139.85 164.79 L 140.37 163.93 C 140.82 163.17 140.58 162.19 139.82 161.74 C 139.07 161.28 138.08 161.53 137.63 162.28 Z M 137.12 163.14 L 136.61 163.98 C 136.15 164.73 136.39 165.71 137.14 166.17 C 137.89 166.62 138.87 166.39 139.33 165.63 L 139.84 164.79 C 140.30 164.04 140.06 163.06 139.31 162.61 C 138.56 162.15 137.58 162.39 137.12 163.14 Z M 136.62 163.98 L 136.09 164.83 C 135.64 165.58 135.87 166.55 136.62 167.01 C 137.36 167.47 138.34 167.24 138.80 166.49 L 139.32 165.64 C 139.78 164.89 139.55 163.91 138.80 163.45 C 138.05 163.00 137.08 163.23 136.62 163.98 Z M 136.10 164.83 L 135.57 165.69 C 135.11 166.44 135.34 167.41 136.09 167.87 C 136.83 168.33 137.81 168.10 138.26 167.35 L 138.79 166.49 C 139.25 165.74 139.02 164.77 138.28 164.31 C 137.53 163.86 136.56 164.09 136.10 164.83 Z M 135.57 165.70 L 135.05 166.54 C 134.60 167.28 134.83 168.25 135.57 168.71 C 136.31 169.17 137.29 168.93 137.74 168.19 L 138.26 167.35 C 138.72 166.61 138.48 165.64 137.74 165.18 C 137.00 164.72 136.03 164.96 135.57 165.70 Z M 135.06 166.55 L 134.55 167.37 C 134.10 168.11 134.33 169.08 135.08 169.53 C 135.82 169.98 136.78 169.75 137.24 169.01 L 137.74 168.19 C 138.19 167.45 137.96 166.48 137.22 166.02 C 136.48 165.57 135.51 165.81 135.06 166.55 Z M 134.55 167.37 L 134.07 168.17 C 133.62 168.92 133.85 169.88 134.59 170.33 C 135.33 170.78 136.30 170.55 136.75 169.81 L 137.24 169.00 C 137.69 168.26 137.45 167.30 136.71 166.85 C 135.97 166.40 135.00 166.63 134.55 167.37 Z M 134.07 168.17 L 133.56 169.01 C 133.10 169.74 133.34 170.71 134.07 171.16 C 134.81 171.62 135.78 171.39 136.23 170.65 L 136.74 169.81 C 137.20 169.07 136.97 168.11 136.23 167.66 C 135.49 167.20 134.53 167.43 134.07 168.17 Z M 133.57 168.99 L 133.00 169.90 C 132.54 170.63 132.76 171.60 133.49 172.06 C 134.22 172.52 135.19 172.30 135.65 171.57 L 136.22 170.66 C 136.68 169.93 136.46 168.96 135.73 168.50 C 134.99 168.04 134.03 168.26 133.57 168.99 Z M 133.01 169.89 L 132.47 170.73 C 132.00 171.45 132.21 172.42 132.94 172.89 C 133.66 173.36 134.63 173.15 135.10 172.42 L 135.64 171.58 C 136.11 170.85 135.90 169.89 135.17 169.42 C 134.44 168.95 133.48 169.16 133.01 169.89 Z M 132.47 170.72 L 131.92 171.58 C 131.45 172.30 131.65 173.27 132.37 173.74 C 133.10 174.21 134.07 174.01 134.54 173.28 L 135.09 172.43 C 135.56 171.70 135.36 170.74 134.63 170.26 C 133.91 169.79 132.94 170.00 132.47 170.72 Z M 131.92 171.58 L 131.35 172.44 C 130.89 173.17 131.09 174.14 131.82 174.61 C 132.54 175.07 133.51 174.87 133.98 174.14 L 134.54 173.28 C 135.01 172.56 134.80 171.59 134.08 171.12 C 133.35 170.65 132.38 170.86 131.92 171.58 Z M 131.35 172.46 L 130.81 173.29 C 130.35 174.02 130.56 174.99 131.29 175.45 C 132.02 175.91 132.98 175.70 133.45 174.97 L 133.98 174.13 C 134.45 173.41 134.23 172.44 133.50 171.98 C 132.78 171.51 131.81 171.73 131.35 172.46 Z M 130.80 173.32 L 130.25 174.22 C 129.79 174.95 130.02 175.92 130.76 176.37 C 131.49 176.82 132.45 176.59 132.91 175.85 L 133.46 174.95 C 133.91 174.22 133.68 173.25 132.95 172.80 C 132.21 172.35 131.25 172.58 130.80 173.32 Z M 130.23 174.25 L 129.71 175.14 C 129.27 175.88 129.52 176.84 130.27 177.27 C 131.01 177.71 131.97 177.46 132.40 176.71 L 132.92 175.82 C 133.36 175.08 133.11 174.12 132.36 173.69 C 131.62 173.25 130.66 173.50 130.23 174.25 Z M 129.70 175.16 L 129.23 175.99 C 128.81 176.74 129.08 177.69 129.83 178.11 C 130.58 178.53 131.53 178.27 131.95 177.52 L 132.42 176.69 C 132.84 175.94 132.57 174.99 131.82 174.56 C 131.07 174.14 130.12 174.41 129.70 175.16 Z M 129.23 176.00 L 128.92 176.55 C 128.50 177.31 128.78 178.26 129.53 178.67 C 130.29 179.09 131.24 178.81 131.65 178.06 L 131.96 177.50 C 132.38 176.75 132.10 175.80 131.35 175.38 C 130.59 174.97 129.64 175.24 129.23 176.00 Z"
      fill="black"
      fill-rule="nonzero" /><path d="M 153.09 144.01 L 153.09 145.04 C 153.09 146.00 153.86 146.77 154.82 146.77 C 155.78 146.77 156.56 146.00 156.56 145.04 L 156.56 144.01 C 156.56 143.05 155.78 142.27 154.82 142.27 C 153.86 142.27 153.09 143.05 153.09 144.01 Z M 153.07 145.04 L 153.07 146.06 C 153.07 147.02 153.86 147.81 154.82 147.81 C 155.79 147.81 156.57 147.02 156.57 146.06 L 156.57 145.04 C 156.57 144.07 155.79 143.29 154.82 143.29 C 153.86 143.29 153.07 144.07 153.07 145.04 Z M 153.06 146.06 L 153.06 147.05 C 153.06 148.02 153.85 148.81 154.82 148.81 C 155.80 148.81 156.59 148.02 156.59 147.05 L 156.59 146.06 C 156.59 145.08 155.80 144.29 154.82 144.29 C 153.85 144.29 153.06 145.08 153.06 146.06 Z M 153.04 147.05 L 153.04 148.02 C 153.04 149.00 153.84 149.80 154.82 149.80 C 155.81 149.80 156.60 149.00 156.60 148.02 L 156.60 147.05 C 156.60 146.06 155.81 145.27 154.82 145.27 C 153.84 145.27 153.04 146.06 153.04 147.05 Z M 153.03 148.02 L 153.03 149.06 C 153.03 150.05 153.83 150.86 154.82 150.86 C 155.81 150.86 156.62 150.05 156.62 149.06 L 156.62 148.02 C 156.62 147.03 155.81 146.22 154.82 146.22 C 153.83 146.22 153.03 147.03 153.03 148.02 Z M 153.01 149.06 L 153.01 150.06 C 153.01 151.05 153.82 151.86 154.82 151.86 C 155.82 151.86 156.63 151.05 156.63 150.06 L 156.63 149.06 C 156.63 148.06 155.82 147.25 154.82 147.25 C 153.82 147.25 153.01 148.06 153.01 149.06 Z M 153.00 150.06 L 153.00 151.01 C 153.00 152.02 153.82 152.84 154.82 152.84 C 155.83 152.84 156.64 152.02 156.64 151.01 L 156.64 150.06 C 156.64 149.05 155.83 148.23 154.82 148.23 C 153.82 148.23 153.00 149.05 153.00 150.06 Z M 152.99 151.01 L 152.99 152.01 C 152.99 153.02 153.81 153.84 154.82 153.84 C 155.83 153.84 156.65 153.02 156.65 152.01 L 156.65 151.01 C 156.65 150.00 155.83 149.18 154.82 149.18 C 153.81 149.18 152.99 150.00 152.99 151.01 Z M 152.99 152.01 L 152.99 153.01 C 152.99 154.02 153.81 154.84 154.82 154.84 C 155.83 154.84 156.66 154.02 156.66 153.01 L 156.66 152.01 C 156.66 151.00 155.83 150.17 154.82 150.17 C 153.81 150.17 152.99 151.00 152.99 152.01 Z M 152.99 153.01 L 152.99 154.00 C 152.99 155.02 153.81 155.84 154.82 155.84 C 155.84 155.84 156.66 155.02 156.66 154.00 L 156.66 153.01 C 156.66 151.99 155.84 151.17 154.82 151.17 C 153.81 151.17 152.99 151.99 152.99 153.01 Z M 152.99 154.01 L 152.99 154.98 C 152.99 155.99 153.81 156.81 154.82 156.81 C 155.84 156.81 156.66 155.99 156.66 154.97 L 156.66 154.00 C 156.66 152.99 155.84 152.17 154.82 152.17 C 153.81 152.17 152.99 152.99 152.99 154.01 Z M 152.99 154.98 L 152.99 155.96 C 152.99 156.97 153.82 157.79 154.83 157.79 C 155.84 157.79 156.66 156.96 156.66 155.95 L 156.66 154.97 C 156.65 153.96 155.83 153.14 154.82 153.14 C 153.80 153.14 152.98 153.97 152.99 154.98 Z M 152.99 155.97 L 153.00 156.99 C 153.01 158.01 153.84 158.82 154.85 158.81 C 155.87 158.80 156.68 157.97 156.67 156.96 L 156.66 155.94 C 156.65 154.93 155.82 154.11 154.81 154.12 C 153.80 154.13 152.98 154.96 152.99 155.97 Z M 153.01 157.01 L 153.02 158.00 C 153.04 159.01 153.88 159.81 154.89 159.80 C 155.90 159.78 156.70 158.94 156.68 157.93 L 156.66 156.94 C 156.65 155.93 155.81 155.13 154.80 155.15 C 153.79 155.17 152.99 156.00 153.01 157.01 Z M 153.03 158.02 L 153.06 158.97 C 153.09 159.98 153.93 160.77 154.94 160.74 C 155.94 160.71 156.74 159.87 156.71 158.86 L 156.68 157.91 C 156.65 156.90 155.81 156.11 154.80 156.14 C 153.79 156.17 153.00 157.01 153.03 158.02 Z M 153.07 159.00 L 153.11 160.00 C 153.15 161.00 154.00 161.78 155.01 161.74 C 156.01 161.69 156.79 160.84 156.74 159.84 L 156.70 158.84 C 156.65 157.84 155.81 157.06 154.80 157.10 C 153.80 157.15 153.02 158.00 153.07 159.00 Z M 153.12 160.03 L 153.18 161.08 C 153.24 162.08 154.10 162.84 155.10 162.78 C 156.10 162.72 156.86 161.86 156.80 160.86 L 156.73 159.81 C 156.67 158.81 155.81 158.05 154.82 158.11 C 153.82 158.17 153.06 159.03 153.12 160.03 Z M 153.19 161.11 L 153.27 162.11 C 153.35 163.10 154.22 163.84 155.21 163.77 C 156.21 163.69 156.95 162.82 156.87 161.82 L 156.79 160.83 C 156.71 159.83 155.84 159.09 154.85 159.17 C 153.85 159.25 153.11 160.12 153.19 161.11 Z M 153.28 162.14 L 153.37 163.11 C 153.47 164.09 154.35 164.82 155.33 164.72 C 156.32 164.63 157.05 163.75 156.95 162.76 L 156.86 161.79 C 156.76 160.81 155.89 160.08 154.90 160.18 C 153.91 160.27 153.19 161.15 153.28 162.14 Z M 153.38 163.13 L 153.49 164.13 C 153.60 165.11 154.49 165.82 155.47 165.71 C 156.45 165.60 157.16 164.72 157.05 163.73 L 156.94 162.74 C 156.83 161.76 155.95 161.05 154.97 161.16 C 153.98 161.26 153.28 162.15 153.38 163.13 Z M 153.51 164.15 L 153.63 165.16 C 153.75 166.14 154.64 166.83 155.62 166.71 C 156.59 166.59 157.29 165.70 157.16 164.73 L 157.04 163.71 C 156.92 162.74 156.03 162.04 155.05 162.16 C 154.08 162.28 153.39 163.17 153.51 164.15 Z M 153.64 165.18 L 153.78 166.21 C 153.91 167.18 154.81 167.86 155.78 167.73 C 156.74 167.60 157.42 166.70 157.29 165.73 L 157.15 164.71 C 157.02 163.74 156.13 163.06 155.16 163.19 C 154.19 163.32 153.51 164.21 153.64 165.18 Z M 153.79 166.23 L 153.94 167.21 C 154.08 168.17 154.97 168.84 155.94 168.70 C 156.90 168.56 157.56 167.66 157.42 166.70 L 157.28 165.72 C 157.14 164.75 156.24 164.09 155.28 164.23 C 154.32 164.37 153.65 165.26 153.79 166.23 Z M 153.95 167.23 L 154.11 168.21 C 154.26 169.17 155.15 169.82 156.10 169.67 C 157.06 169.53 157.71 168.63 157.56 167.68 L 157.41 166.69 C 157.26 165.74 156.37 165.08 155.41 165.23 C 154.46 165.38 153.81 166.27 153.95 167.23 Z M 154.12 168.22 L 154.28 169.21 C 154.43 170.16 155.33 170.80 156.27 170.65 C 157.22 170.50 157.86 169.61 157.71 168.66 L 157.55 167.67 C 157.40 166.72 156.50 166.08 155.56 166.23 C 154.61 166.39 153.97 167.28 154.12 168.22 Z M 154.29 169.22 L 154.46 170.21 C 154.61 171.15 155.50 171.78 156.44 171.62 C 157.38 171.47 158.02 170.58 157.86 169.64 L 157.69 168.65 C 157.54 167.71 156.65 167.08 155.71 167.24 C 154.77 167.39 154.14 168.28 154.29 169.22 Z M 154.47 170.21 L 154.64 171.18 C 154.79 172.11 155.68 172.74 156.61 172.58 C 157.54 172.43 158.17 171.54 158.01 170.61 L 157.85 169.64 C 157.69 168.71 156.81 168.08 155.87 168.24 C 154.94 168.39 154.31 169.28 154.47 170.21 Z M 154.65 171.18 L 154.81 172.12 C 154.97 173.05 155.84 173.67 156.77 173.51 C 157.69 173.35 158.32 172.48 158.16 171.55 L 158.00 170.61 C 157.84 169.69 156.96 169.07 156.04 169.22 C 155.11 169.38 154.49 170.26 154.65 171.18 Z M 154.82 172.13 L 154.99 173.08 C 155.15 174.00 156.03 174.61 156.94 174.45 C 157.86 174.29 158.47 173.41 158.31 172.50 L 158.14 171.55 C 157.98 170.63 157.11 170.02 156.19 170.18 C 155.28 170.34 154.66 171.21 154.82 172.13 Z M 155.01 173.09 L 155.18 174.07 C 155.35 174.98 156.22 175.58 157.13 175.41 C 158.04 175.24 158.64 174.37 158.47 173.46 L 158.30 172.49 C 158.13 171.58 157.26 170.98 156.35 171.14 C 155.44 171.31 154.84 172.18 155.01 173.09 Z M 155.20 174.08 L 155.40 175.10 C 155.57 176.00 156.44 176.59 157.34 176.41 C 158.24 176.24 158.83 175.37 158.66 174.47 L 158.46 173.45 C 158.29 172.55 157.42 171.96 156.52 172.14 C 155.62 172.31 155.03 173.18 155.20 174.08 Z M 155.41 175.11 L 155.62 176.15 C 155.80 177.04 156.67 177.61 157.57 177.43 C 158.46 177.25 159.03 176.38 158.85 175.49 L 158.64 174.45 C 158.46 173.56 157.59 172.99 156.70 173.17 C 155.80 173.35 155.23 174.22 155.41 175.11 Z M 155.64 176.16 L 155.85 177.13 C 156.04 178.01 156.91 178.58 157.79 178.39 C 158.67 178.20 159.24 177.33 159.05 176.44 L 158.84 175.47 C 158.65 174.59 157.78 174.03 156.89 174.22 C 156.01 174.41 155.45 175.28 155.64 176.16 Z M 155.86 177.15 L 156.08 178.14 C 156.28 179.02 157.15 179.57 158.03 179.37 C 158.91 179.17 159.46 178.30 159.26 177.42 L 159.03 176.43 C 158.83 175.55 157.96 175.00 157.09 175.20 C 156.21 175.40 155.66 176.27 155.86 177.15 Z M 156.10 178.16 L 156.34 179.16 C 156.54 180.02 157.42 180.56 158.29 180.35 C 159.16 180.14 159.69 179.27 159.48 178.40 L 159.24 177.40 C 159.04 176.53 158.16 176.00 157.29 176.21 C 156.43 176.42 155.89 177.29 156.10 178.16 Z M 156.35 179.17 L 156.60 180.16 C 156.82 181.02 157.70 181.54 158.56 181.32 C 159.42 181.10 159.94 180.23 159.72 179.37 L 159.47 178.38 C 159.25 177.52 158.37 177.00 157.51 177.22 C 156.65 177.44 156.13 178.31 156.35 179.17 Z M 156.62 180.18 L 156.88 181.13 C 157.11 181.98 157.99 182.49 158.84 182.25 C 159.69 182.02 160.19 181.14 159.96 180.29 L 159.70 179.34 C 159.47 178.49 158.59 177.99 157.74 178.22 C 156.89 178.45 156.39 179.33 156.62 180.18 Z M 156.89 181.16 L 157.18 182.15 C 157.43 182.99 158.32 183.47 159.16 183.22 C 160.00 182.97 160.48 182.09 160.23 181.25 L 159.94 180.26 C 159.69 179.42 158.81 178.94 157.97 179.19 C 157.13 179.43 156.64 180.32 156.89 181.16 Z M 157.20 182.18 L 157.53 183.20 C 157.80 184.03 158.69 184.48 159.52 184.21 C 160.36 183.94 160.81 183.05 160.54 182.22 L 160.22 181.21 C 159.95 180.38 159.05 179.92 158.22 180.19 C 157.39 180.46 156.93 181.35 157.20 182.18 Z M 157.55 183.23 L 157.88 184.17 C 158.17 185.00 159.07 185.43 159.89 185.14 C 160.71 184.85 161.14 183.95 160.86 183.13 L 160.52 182.19 C 160.24 181.36 159.34 180.93 158.51 181.22 C 157.69 181.51 157.26 182.41 157.55 183.23 Z M 157.89 184.20 L 158.23 185.10 C 158.53 185.91 159.43 186.33 160.25 186.03 C 161.06 185.73 161.48 184.82 161.17 184.01 L 160.84 183.11 C 160.54 182.29 159.63 181.88 158.82 182.18 C 158.01 182.48 157.59 183.39 157.89 184.20 Z M 158.24 185.11 L 158.58 185.99 C 158.88 186.80 159.79 187.20 160.60 186.89 C 161.40 186.58 161.81 185.68 161.50 184.87 L 161.16 183.99 C 160.85 183.19 159.95 182.78 159.14 183.09 C 158.33 183.40 157.93 184.31 158.24 185.11 Z M 158.58 185.99 L 158.67 186.23 C 158.98 187.03 159.89 187.43 160.69 187.12 C 161.49 186.81 161.89 185.90 161.58 185.10 L 161.49 184.87 C 161.18 184.06 160.28 183.66 159.47 183.97 C 158.67 184.28 158.27 185.19 158.58 185.99 Z"
      fill="black"
      fill-rule="nonzero" /><path d="M 156.18 147.35 L 157.21 147.25 C 158.18 147.16 158.89 146.30 158.79 145.33 C 158.70 144.36 157.84 143.65 156.87 143.75 L 155.85 143.85 C 154.88 143.94 154.17 144.80 154.26 145.77 C 154.36 146.74 155.22 147.44 156.18 147.35 Z M 157.24 147.26 L 158.25 147.15 C 159.22 147.04 159.93 146.16 159.82 145.19 C 159.71 144.21 158.83 143.51 157.85 143.62 L 156.84 143.73 C 155.87 143.84 155.17 144.72 155.28 145.70 C 155.39 146.67 156.26 147.37 157.24 147.26 Z M 158.31 147.16 L 159.30 147.01 C 160.27 146.87 160.95 145.96 160.81 144.98 C 160.67 144.00 159.76 143.33 158.78 143.47 L 157.79 143.61 C 156.81 143.76 156.14 144.67 156.28 145.64 C 156.42 146.62 157.33 147.30 158.31 147.16 Z M 159.39 147.01 L 160.34 146.82 C 161.31 146.63 161.95 145.68 161.75 144.70 C 161.56 143.72 160.61 143.09 159.63 143.28 L 158.68 143.47 C 157.70 143.67 157.07 144.62 157.26 145.60 C 157.46 146.57 158.41 147.21 159.39 147.01 Z M 160.47 146.80 L 161.42 146.54 C 162.39 146.27 162.95 145.27 162.69 144.30 C 162.42 143.34 161.42 142.77 160.45 143.04 L 159.50 143.30 C 158.53 143.57 157.96 144.57 158.23 145.54 C 158.50 146.50 159.50 147.07 160.47 146.80 Z M 161.54 146.50 L 162.47 146.18 C 163.41 145.85 163.91 144.81 163.58 143.86 C 163.24 142.91 162.21 142.41 161.26 142.75 L 160.33 143.07 C 159.39 143.41 158.89 144.44 159.22 145.39 C 159.55 146.34 160.59 146.84 161.54 146.50 Z M 162.54 146.15 L 163.46 145.78 C 164.40 145.40 164.85 144.34 164.47 143.41 C 164.09 142.48 163.03 142.03 162.10 142.40 L 161.18 142.78 C 160.25 143.15 159.80 144.21 160.18 145.14 C 160.55 146.08 161.61 146.53 162.54 146.15 Z M 163.50 145.77 L 164.44 145.36 C 165.36 144.97 165.79 143.90 165.40 142.97 C 165.01 142.05 163.94 141.62 163.01 142.01 L 162.07 142.42 C 161.14 142.81 160.71 143.88 161.11 144.81 C 161.50 145.73 162.57 146.16 163.50 145.77 Z M 164.44 145.37 L 165.31 144.99 C 166.24 144.60 166.67 143.53 166.27 142.61 C 165.88 141.68 164.81 141.25 163.89 141.64 L 163.01 142.01 C 162.09 142.41 161.66 143.48 162.05 144.40 C 162.44 145.33 163.51 145.76 164.44 145.37 Z M 165.30 145.00 L 166.21 144.62 C 167.14 144.24 167.58 143.17 167.19 142.24 C 166.81 141.31 165.74 140.87 164.81 141.26 L 163.90 141.63 C 162.97 142.02 162.53 143.09 162.92 144.02 C 163.30 144.94 164.37 145.39 165.30 145.00 Z M 166.18 144.63 L 167.13 144.26 C 168.06 143.89 168.52 142.83 168.14 141.89 C 167.77 140.96 166.71 140.50 165.78 140.87 L 164.84 141.25 C 163.90 141.62 163.44 142.68 163.82 143.61 C 164.19 144.55 165.25 145.01 166.18 144.63 Z M 167.09 144.27 L 168.06 143.91 C 169.01 143.55 169.48 142.50 169.13 141.56 C 168.77 140.62 167.72 140.14 166.78 140.50 L 165.81 140.86 C 164.87 141.21 164.39 142.27 164.75 143.21 C 165.10 144.15 166.15 144.63 167.09 144.27 Z M 168.02 143.92 L 168.94 143.60 C 169.89 143.27 170.39 142.23 170.05 141.28 C 169.72 140.33 168.68 139.83 167.73 140.16 L 166.82 140.48 C 165.87 140.81 165.37 141.85 165.70 142.80 C 166.03 143.75 167.07 144.25 168.02 143.92 Z M 168.89 143.62 L 169.79 143.33 C 170.75 143.02 171.27 141.99 170.96 141.03 C 170.66 140.07 169.63 139.55 168.67 139.86 L 167.77 140.15 C 166.82 140.46 166.29 141.48 166.60 142.44 C 166.91 143.40 167.94 143.93 168.89 143.62 Z M 169.74 143.34 L 170.68 143.07 C 171.64 142.78 172.20 141.77 171.91 140.80 C 171.63 139.84 170.62 139.28 169.65 139.57 L 168.72 139.84 C 167.75 140.13 167.20 141.14 167.48 142.11 C 167.77 143.07 168.78 143.63 169.74 143.34 Z M 170.63 143.08 L 171.62 142.82 C 172.59 142.56 173.17 141.56 172.91 140.59 C 172.65 139.61 171.65 139.04 170.68 139.29 L 169.70 139.56 C 168.72 139.81 168.14 140.81 168.40 141.79 C 168.66 142.76 169.66 143.34 170.63 143.08 Z M 171.57 142.83 L 172.62 142.58 C 173.60 142.35 174.20 141.36 173.97 140.38 C 173.74 139.41 172.76 138.80 171.78 139.03 L 170.73 139.28 C 169.75 139.52 169.14 140.50 169.38 141.48 C 169.61 142.46 170.59 143.06 171.57 142.83 Z M 172.58 142.59 L 173.57 142.38 C 174.55 142.17 175.18 141.20 174.97 140.22 C 174.76 139.23 173.79 138.60 172.81 138.81 L 171.82 139.02 C 170.83 139.23 170.20 140.20 170.41 141.19 C 170.62 142.17 171.59 142.80 172.58 142.59 Z M 173.53 142.39 L 174.51 142.20 C 175.50 142.01 176.15 141.05 175.96 140.06 C 175.77 139.07 174.81 138.42 173.82 138.61 L 172.84 138.80 C 171.85 138.99 171.20 139.95 171.39 140.94 C 171.58 141.93 172.54 142.58 173.53 142.39 Z M 174.48 142.21 L 175.48 142.03 C 176.47 141.86 177.14 140.92 176.97 139.92 C 176.80 138.93 175.85 138.26 174.86 138.43 L 173.85 138.61 C 172.86 138.78 172.19 139.72 172.36 140.72 C 172.54 141.71 173.48 142.38 174.48 142.21 Z M 175.44 142.04 L 176.46 141.89 C 177.46 141.74 178.14 140.80 177.99 139.81 C 177.84 138.81 176.91 138.12 175.91 138.27 L 174.90 138.43 C 173.90 138.58 173.21 139.51 173.36 140.51 C 173.51 141.51 174.45 142.19 175.44 142.04 Z M 176.42 141.90 L 177.42 141.77 C 178.43 141.64 179.13 140.72 179.00 139.71 C 178.87 138.71 177.95 138.00 176.95 138.13 L 175.95 138.26 C 174.95 138.39 174.24 139.31 174.37 140.32 C 174.50 141.32 175.42 142.03 176.42 141.90 Z M 177.38 141.77 L 178.36 141.67 C 179.36 141.57 180.09 140.66 179.99 139.66 C 179.88 138.65 178.98 137.92 177.98 138.03 L 177.00 138.13 C 175.99 138.23 175.26 139.13 175.37 140.14 C 175.47 141.15 176.37 141.88 177.38 141.77 Z M 178.29 141.68 L 179.41 141.60 C 180.42 141.53 181.18 140.65 181.11 139.64 C 181.04 138.63 180.16 137.87 179.15 137.94 L 178.04 138.02 C 177.03 138.09 176.26 138.97 176.34 139.98 C 176.41 140.99 177.28 141.75 178.29 141.68 Z M 179.32 141.60 L 180.42 141.58 C 181.43 141.55 182.23 140.71 182.21 139.70 C 182.19 138.69 181.35 137.89 180.33 137.91 L 179.24 137.94 C 178.23 137.96 177.42 138.80 177.45 139.81 C 177.47 140.82 178.31 141.63 179.32 141.60 Z M 180.30 141.58 L 181.31 141.62 C 182.32 141.66 183.17 140.88 183.22 139.86 C 183.26 138.85 182.47 138.00 181.46 137.95 L 180.45 137.91 C 179.44 137.87 178.59 138.65 178.54 139.67 C 178.50 140.68 179.29 141.53 180.30 141.58 Z M 181.15 141.61 L 182.06 141.72 C 183.07 141.85 183.99 141.14 184.12 140.14 C 184.25 139.13 183.54 138.21 182.53 138.08 L 181.62 137.97 C 180.61 137.84 179.69 138.55 179.56 139.55 C 179.43 140.56 180.14 141.48 181.15 141.61 Z M 181.85 141.69 L 182.68 141.89 C 183.66 142.13 184.66 141.53 184.90 140.55 C 185.14 139.57 184.54 138.57 183.56 138.33 L 182.74 138.12 C 181.75 137.88 180.76 138.48 180.51 139.46 C 180.27 140.45 180.87 141.44 181.85 141.69 Z M 182.37 141.79 L 183.31 142.20 C 184.23 142.61 185.32 142.19 185.73 141.27 C 186.14 140.34 185.72 139.25 184.79 138.84 L 183.86 138.43 C 182.94 138.02 181.85 138.44 181.44 139.36 C 181.03 140.29 181.45 141.38 182.37 141.79 Z M 182.97 142.01 L 183.76 142.58 C 184.58 143.17 185.73 142.99 186.32 142.17 C 186.91 141.35 186.73 140.20 185.91 139.61 L 185.13 139.04 C 184.31 138.44 183.16 138.62 182.57 139.44 C 181.97 140.26 182.15 141.41 182.97 142.01 Z M 183.51 142.36 L 184.19 143.07 C 184.89 143.80 186.05 143.83 186.79 143.13 C 187.52 142.43 187.54 141.27 186.84 140.54 L 186.16 139.82 C 185.46 139.09 184.30 139.07 183.57 139.77 C 182.84 140.47 182.81 141.63 183.51 142.36 Z M 184.05 142.90 L 184.62 143.66 C 185.22 144.47 186.37 144.64 187.18 144.04 C 187.99 143.43 188.16 142.28 187.56 141.47 L 186.99 140.71 C 186.38 139.90 185.23 139.73 184.42 140.34 C 183.61 140.94 183.45 142.09 184.05 142.90 Z M 184.54 143.54 L 185.03 144.33 C 185.57 145.19 186.70 145.45 187.56 144.92 C 188.41 144.38 188.67 143.25 188.14 142.39 L 187.64 141.60 C 187.10 140.74 185.97 140.48 185.12 141.02 C 184.26 141.55 184.00 142.68 184.54 143.54 Z M 184.97 144.22 L 185.44 145.10 C 185.92 145.99 187.02 146.33 187.91 145.86 C 188.80 145.39 189.14 144.28 188.67 143.39 L 188.20 142.51 C 187.72 141.62 186.62 141.28 185.73 141.75 C 184.84 142.23 184.50 143.33 184.97 144.22 Z M 185.40 145.00 L 185.83 145.96 C 186.25 146.88 187.33 147.29 188.24 146.87 C 189.16 146.46 189.57 145.38 189.15 144.46 L 188.72 143.50 C 188.30 142.58 187.22 142.17 186.30 142.59 C 185.39 143.00 184.98 144.08 185.40 145.00 Z M 185.80 145.87 L 186.18 146.86 C 186.54 147.80 187.59 148.27 188.53 147.90 C 189.47 147.54 189.94 146.49 189.57 145.55 L 189.19 144.56 C 188.83 143.62 187.77 143.15 186.84 143.51 C 185.90 143.88 185.43 144.93 185.80 145.87 Z M 186.16 146.78 L 186.48 147.76 C 186.80 148.71 187.83 149.22 188.78 148.90 C 189.73 148.59 190.24 147.56 189.92 146.61 L 189.60 145.63 C 189.28 144.68 188.25 144.17 187.30 144.49 C 186.35 144.80 185.84 145.83 186.16 146.78 Z M 186.47 147.70 L 186.76 148.69 C 187.05 149.65 188.05 150.19 189.01 149.91 C 189.97 149.63 190.52 148.62 190.23 147.66 L 189.94 146.67 C 189.65 145.71 188.65 145.16 187.69 145.45 C 186.73 145.73 186.18 146.74 186.47 147.70 Z M 186.75 148.64 L 187.01 149.62 C 187.27 150.58 188.26 151.15 189.22 150.89 C 190.19 150.63 190.76 149.64 190.50 148.68 L 190.24 147.71 C 189.98 146.74 188.99 146.17 188.03 146.43 C 187.07 146.69 186.49 147.68 186.75 148.64 Z M 187.01 149.58 L 187.23 150.50 C 187.47 151.47 188.45 152.06 189.41 151.82 C 190.38 151.59 190.97 150.61 190.73 149.64 L 190.51 148.72 C 190.27 147.75 189.30 147.16 188.33 147.40 C 187.36 147.63 186.77 148.61 187.01 149.58 Z M 187.23 150.46 L 187.46 151.51 C 187.68 152.47 188.64 153.08 189.61 152.87 C 190.58 152.65 191.19 151.69 190.97 150.72 L 190.74 149.68 C 190.52 148.71 189.56 148.10 188.59 148.32 C 187.62 148.54 187.01 149.50 187.23 150.46 Z M 187.46 151.47 L 187.66 152.47 C 187.86 153.43 188.80 154.06 189.77 153.87 C 190.74 153.67 191.36 152.73 191.17 151.76 L 190.97 150.76 C 190.78 149.80 189.83 149.17 188.87 149.36 C 187.90 149.56 187.27 150.50 187.46 151.47 Z M 187.67 152.43 L 187.83 153.36 C 188.01 154.33 188.93 154.97 189.90 154.80 C 190.87 154.62 191.51 153.70 191.34 152.73 L 191.17 151.80 C 190.99 150.83 190.07 150.19 189.10 150.36 C 188.13 150.54 187.49 151.46 187.67 152.43 Z M 187.84 153.34 L 187.99 154.25 C 188.15 155.22 189.07 155.87 190.03 155.71 C 191.00 155.54 191.65 154.63 191.49 153.66 L 191.33 152.75 C 191.17 151.78 190.26 151.13 189.29 151.30 C 188.33 151.46 187.67 152.37 187.84 153.34 Z M 188.00 154.24 L 188.15 155.19 C 188.31 156.16 189.22 156.81 190.18 156.65 C 191.14 156.49 191.79 155.58 191.64 154.62 L 191.48 153.67 C 191.32 152.71 190.41 152.06 189.45 152.22 C 188.49 152.37 187.84 153.28 188.00 154.24 Z M 188.16 155.19 L 188.32 156.17 C 188.47 157.13 189.38 157.78 190.34 157.63 C 191.30 157.47 191.95 156.57 191.79 155.61 L 191.63 154.62 C 191.48 153.67 190.57 153.01 189.61 153.17 C 188.65 153.33 188.00 154.23 188.16 155.19 Z M 188.32 156.17 L 188.49 157.20 C 188.65 158.16 189.55 158.81 190.50 158.65 C 191.46 158.49 192.11 157.59 191.95 156.64 L 191.79 155.61 C 191.63 154.65 190.73 154.00 189.77 154.16 C 188.82 154.31 188.17 155.22 188.32 156.17 Z M 188.50 157.20 L 188.66 158.18 C 188.81 159.13 189.71 159.78 190.66 159.62 C 191.62 159.47 192.26 158.57 192.11 157.61 L 191.95 156.64 C 191.79 155.68 190.89 155.04 189.94 155.19 C 188.99 155.35 188.34 156.25 188.50 157.20 Z M 188.66 158.17 L 188.82 159.16 C 188.98 160.11 189.87 160.75 190.82 160.60 C 191.77 160.45 192.41 159.55 192.26 158.60 L 192.10 157.62 C 191.95 156.67 191.05 156.02 190.10 156.18 C 189.15 156.33 188.51 157.23 188.66 158.17 Z M 188.83 159.15 L 188.98 160.15 C 189.13 161.10 190.02 161.74 190.96 161.60 C 191.91 161.45 192.56 160.56 192.41 159.62 L 192.25 158.62 C 192.11 157.67 191.22 157.02 190.27 157.17 C 189.33 157.32 188.68 158.20 188.83 159.15 Z M 188.99 160.13 L 189.13 161.13 C 189.27 162.08 190.15 162.73 191.09 162.59 C 192.04 162.46 192.69 161.58 192.55 160.64 L 192.41 159.63 C 192.27 158.69 191.39 158.04 190.45 158.17 C 189.50 158.31 188.85 159.19 188.99 160.13 Z M 189.14 161.11 L 189.27 162.11 C 189.39 163.05 190.26 163.71 191.20 163.59 C 192.14 163.46 192.80 162.60 192.68 161.66 L 192.55 160.66 C 192.42 159.72 191.56 159.05 190.62 159.18 C 189.68 159.30 189.01 160.17 189.14 161.11 Z M 189.27 162.09 L 189.39 163.08 C 189.51 164.02 190.36 164.69 191.30 164.57 C 192.24 164.46 192.91 163.60 192.80 162.66 L 192.68 161.67 C 192.56 160.73 191.71 160.06 190.77 160.18 C 189.83 160.29 189.16 161.15 189.27 162.09 Z M 189.40 163.07 L 189.51 164.06 C 189.62 164.99 190.47 165.67 191.41 165.56 C 192.35 165.45 193.02 164.60 192.91 163.66 L 192.79 162.67 C 192.68 161.73 191.83 161.06 190.90 161.17 C 189.96 161.28 189.29 162.13 189.40 163.07 Z M 189.52 164.06 L 189.64 165.05 C 189.75 165.99 190.59 166.66 191.53 166.54 C 192.46 166.43 193.13 165.59 193.02 164.65 L 192.90 163.66 C 192.79 162.72 191.94 162.05 191.01 162.17 C 190.07 162.28 189.41 163.12 189.52 164.06 Z M 189.64 165.06 L 189.76 166.05 C 189.88 166.98 190.73 167.64 191.66 167.53 C 192.59 167.41 193.25 166.56 193.14 165.63 L 193.01 164.64 C 192.90 163.71 192.05 163.05 191.12 163.17 C 190.19 163.28 189.53 164.13 189.64 165.06 Z M 189.77 166.06 L 189.90 167.05 C 190.01 167.98 190.86 168.64 191.79 168.52 C 192.72 168.40 193.37 167.55 193.26 166.63 L 193.13 165.63 C 193.01 164.70 192.17 164.04 191.24 164.16 C 190.31 164.28 189.65 165.13 189.77 166.06 Z M 189.90 167.05 L 190.03 168.05 C 190.14 168.97 190.99 169.63 191.91 169.51 C 192.84 169.39 193.49 168.55 193.38 167.62 L 193.25 166.63 C 193.14 165.70 192.29 165.05 191.37 165.16 C 190.44 165.28 189.78 166.13 189.90 167.05 Z M 190.03 168.04 L 190.15 169.03 C 190.27 169.96 191.11 170.61 192.03 170.50 C 192.95 170.39 193.61 169.55 193.50 168.62 L 193.37 167.63 C 193.26 166.71 192.42 166.05 191.50 166.16 C 190.57 166.28 189.92 167.12 190.03 168.04 Z M 190.16 169.02 L 190.27 170.03 C 190.38 170.95 191.21 171.61 192.14 171.50 C 193.06 171.39 193.72 170.56 193.61 169.64 L 193.49 168.63 C 193.38 167.71 192.55 167.05 191.63 167.16 C 190.71 167.27 190.05 168.10 190.16 169.02 Z M 190.28 170.02 L 190.39 171.01 C 190.49 171.93 191.32 172.59 192.24 172.49 C 193.16 172.39 193.82 171.56 193.72 170.64 L 193.61 169.65 C 193.50 168.73 192.67 168.07 191.76 168.17 C 190.84 168.27 190.17 169.10 190.28 170.02 Z M 190.39 171.01 L 190.50 171.99 C 190.60 172.91 191.42 173.57 192.34 173.47 C 193.26 173.37 193.92 172.55 193.82 171.63 L 193.71 170.65 C 193.61 169.73 192.79 169.07 191.87 169.17 C 190.96 169.27 190.29 170.09 190.39 171.01 Z M 190.50 171.99 L 190.61 172.98 C 190.71 173.90 191.53 174.56 192.44 174.46 C 193.36 174.36 194.02 173.54 193.92 172.63 L 193.81 171.63 C 193.72 170.72 192.90 170.06 191.98 170.16 C 191.07 170.25 190.41 171.07 190.50 171.99 Z M 190.61 172.99 L 190.72 173.99 C 190.82 174.90 191.64 175.56 192.55 175.46 C 193.47 175.36 194.12 174.55 194.02 173.63 L 193.92 172.63 C 193.82 171.72 193.00 171.06 192.09 171.16 C 191.17 171.25 190.52 172.07 190.61 172.99 Z M 190.73 174.00 L 190.84 175.00 C 190.95 175.91 191.77 176.56 192.67 176.45 C 193.58 176.35 194.24 175.53 194.13 174.62 L 194.02 173.63 C 193.92 172.72 193.10 172.07 192.19 172.17 C 191.28 172.27 190.63 173.09 190.73 174.00 Z M 190.85 175.01 L 190.97 175.99 C 191.08 176.89 191.90 177.54 192.81 177.43 C 193.71 177.31 194.36 176.49 194.25 175.59 L 194.13 174.61 C 194.02 173.70 193.19 173.06 192.29 173.17 C 191.38 173.28 190.74 174.11 190.85 175.01 Z M 190.98 176.01 L 191.11 177.01 C 191.23 177.91 192.06 178.54 192.96 178.42 C 193.86 178.29 194.50 177.47 194.37 176.56 L 194.24 175.57 C 194.12 174.67 193.29 174.03 192.39 174.16 C 191.49 174.28 190.85 175.11 190.98 176.01 Z M 191.12 177.02 L 191.26 178.01 C 191.39 178.91 192.22 179.53 193.12 179.40 C 194.02 179.27 194.64 178.44 194.51 177.54 L 194.37 176.55 C 194.24 175.65 193.40 175.03 192.51 175.16 C 191.61 175.29 190.99 176.12 191.12 177.02 Z M 191.27 178.01 L 191.41 178.99 C 191.54 179.89 192.37 180.51 193.27 180.37 C 194.16 180.24 194.78 179.41 194.65 178.52 L 194.50 177.54 C 194.37 176.65 193.54 176.03 192.65 176.16 C 191.76 176.29 191.14 177.12 191.27 178.01 Z M 191.41 178.98 L 191.55 179.95 C 191.67 180.85 192.50 181.47 193.39 181.34 C 194.28 181.22 194.90 180.39 194.78 179.50 L 194.64 178.53 C 194.52 177.64 193.70 177.02 192.80 177.14 C 191.91 177.27 191.29 178.09 191.41 178.98 Z M 191.55 179.94 L 191.68 180.90 C 191.79 181.79 192.61 182.42 193.50 182.30 C 194.39 182.19 195.02 181.37 194.90 180.48 L 194.78 179.52 C 194.66 178.63 193.85 178.00 192.96 178.12 C 192.07 178.23 191.44 179.05 191.55 179.94 Z M 191.68 180.89 L 191.80 181.87 C 191.91 182.76 192.72 183.39 193.61 183.28 C 194.49 183.17 195.13 182.37 195.02 181.48 L 194.90 180.49 C 194.79 179.60 193.98 178.97 193.09 179.08 C 192.20 179.19 191.57 180.00 191.68 180.89 Z M 191.81 181.87 L 191.93 182.89 C 192.04 183.78 192.84 184.41 193.73 184.30 C 194.61 184.19 195.24 183.39 195.14 182.51 L 195.01 181.48 C 194.90 180.60 194.10 179.97 193.22 180.07 C 192.33 180.18 191.70 180.99 191.81 181.87 Z M 191.94 182.90 L 192.06 183.87 C 192.17 184.75 192.97 185.37 193.85 185.27 C 194.73 185.16 195.36 184.36 195.25 183.47 L 195.13 182.50 C 195.02 181.62 194.22 181.00 193.34 181.10 C 192.46 181.21 191.83 182.01 191.94 182.90 Z M 192.06 183.86 L 192.17 184.83 C 192.27 185.71 193.07 186.34 193.95 186.23 C 194.83 186.13 195.46 185.34 195.36 184.46 L 195.25 183.49 C 195.14 182.61 194.35 181.98 193.47 182.08 C 192.59 182.18 191.96 182.98 192.06 183.86 Z M 192.17 184.79 L 192.27 185.80 C 192.36 186.68 193.14 187.32 194.02 187.24 C 194.90 187.15 195.54 186.37 195.45 185.49 L 195.36 184.49 C 195.27 183.61 194.49 182.96 193.61 183.05 C 192.73 183.13 192.09 183.92 192.17 184.79 Z M 192.27 185.75 L 192.34 186.78 C 192.40 187.66 193.16 188.33 194.03 188.27 C 194.91 188.21 195.58 187.45 195.52 186.57 L 195.45 185.54 C 195.40 184.66 194.64 183.99 193.76 184.05 C 192.88 184.11 192.21 184.87 192.27 185.75 Z M 192.34 186.72 L 192.36 187.72 C 192.39 188.60 193.12 189.29 194.00 189.27 C 194.88 189.25 195.57 188.52 195.55 187.64 L 195.52 186.64 C 195.50 185.76 194.77 185.06 193.89 185.09 C 193.01 185.11 192.32 185.84 192.34 186.72 Z M 192.37 187.66 L 192.36 188.65 C 192.35 189.53 193.05 190.25 193.93 190.26 C 194.81 190.27 195.53 189.56 195.54 188.68 L 195.55 187.70 C 195.56 186.82 194.85 186.10 193.97 186.09 C 193.09 186.08 192.37 186.79 192.37 187.66 Z M 192.36 188.61 L 192.32 189.61 C 192.29 190.49 192.98 191.23 193.86 191.26 C 194.73 191.29 195.47 190.60 195.50 189.73 L 195.53 188.72 C 195.57 187.85 194.88 187.11 194.00 187.08 C 193.13 187.05 192.39 187.74 192.36 188.61 Z M 192.33 189.59 L 192.27 190.60 C 192.23 191.48 192.90 192.22 193.78 192.27 C 194.65 192.31 195.40 191.64 195.45 190.76 L 195.50 189.75 C 195.54 188.88 194.87 188.13 193.99 188.08 C 193.12 188.04 192.37 188.71 192.33 189.59 Z M 192.28 190.59 L 192.23 191.41 C 192.18 192.28 192.85 193.03 193.72 193.08 C 194.60 193.13 195.35 192.47 195.40 191.59 L 195.44 190.77 C 195.49 189.90 194.83 189.15 193.95 189.10 C 193.08 189.05 192.33 189.71 192.28 190.59 Z"
      fill="black"
      fill-rule="nonzero" /><path d="M 157.77 159.99 L 158.66 160.26 C 159.58 160.54 160.54 160.02 160.82 159.11 C 161.10 158.19 160.58 157.22 159.66 156.94 L 158.77 156.67 C 157.86 156.40 156.89 156.92 156.61 157.83 C 156.33 158.75 156.85 159.72 157.77 159.99 Z M 158.73 160.29 L 159.65 160.53 C 160.58 160.77 161.53 160.21 161.77 159.28 C 162.01 158.34 161.45 157.39 160.52 157.15 L 159.60 156.91 C 158.66 156.67 157.71 157.24 157.47 158.17 C 157.23 159.10 157.79 160.05 158.73 160.29 Z M 159.78 160.57 L 160.76 160.74 C 161.71 160.91 162.62 160.27 162.79 159.32 C 162.96 158.36 162.32 157.45 161.37 157.28 L 160.39 157.11 C 159.43 156.94 158.52 157.58 158.35 158.54 C 158.19 159.49 158.82 160.40 159.78 160.57 Z M 160.94 160.78 L 162.01 160.85 C 162.98 160.92 163.82 160.18 163.89 159.21 C 163.96 158.24 163.23 157.39 162.25 157.33 L 161.19 157.25 C 160.21 157.18 159.37 157.92 159.30 158.89 C 159.23 159.86 159.97 160.71 160.94 160.78 Z M 162.19 160.86 L 163.12 160.83 C 164.10 160.80 164.87 159.98 164.84 159.00 C 164.80 158.02 163.98 157.25 163.01 157.29 L 162.07 157.32 C 161.09 157.35 160.33 158.17 160.36 159.15 C 160.39 160.13 161.21 160.89 162.19 160.86 Z M 163.25 160.82 L 164.13 160.72 C 165.10 160.62 165.81 159.75 165.71 158.78 C 165.60 157.81 164.73 157.10 163.76 157.20 L 162.88 157.30 C 161.91 157.40 161.20 158.27 161.31 159.24 C 161.41 160.21 162.28 160.92 163.25 160.82 Z M 164.21 160.71 L 165.15 160.57 C 166.11 160.42 166.77 159.52 166.63 158.56 C 166.48 157.59 165.58 156.93 164.62 157.08 L 163.68 157.22 C 162.72 157.37 162.06 158.27 162.20 159.23 C 162.35 160.19 163.25 160.85 164.21 160.71 Z M 165.20 160.55 L 166.19 160.37 C 167.15 160.20 167.78 159.28 167.61 158.33 C 167.43 157.37 166.52 156.74 165.56 156.91 L 164.57 157.09 C 163.61 157.26 162.98 158.18 163.15 159.14 C 163.33 160.09 164.24 160.73 165.20 160.55 Z M 166.22 160.36 L 167.26 160.16 C 168.21 159.97 168.83 159.05 168.64 158.10 C 168.45 157.15 167.53 156.53 166.58 156.72 L 165.54 156.92 C 164.59 157.11 163.97 158.03 164.16 158.98 C 164.34 159.93 165.27 160.55 166.22 160.36 Z M 167.27 160.15 L 168.36 159.93 C 169.31 159.74 169.92 158.81 169.73 157.87 C 169.54 156.92 168.61 156.31 167.67 156.50 L 166.57 156.72 C 165.63 156.91 165.02 157.84 165.21 158.78 C 165.40 159.73 166.32 160.34 167.27 160.15 Z M 168.35 159.92 L 169.42 159.71 C 170.36 159.53 170.97 158.61 170.79 157.67 C 170.60 156.72 169.69 156.11 168.74 156.30 L 167.68 156.51 C 166.73 156.69 166.12 157.61 166.31 158.55 C 166.49 159.49 167.41 160.11 168.35 159.92 Z M 169.40 159.70 L 170.40 159.51 C 171.34 159.34 171.96 158.43 171.78 157.50 C 171.61 156.56 170.70 155.94 169.76 156.12 L 168.76 156.31 C 167.82 156.48 167.20 157.39 167.38 158.32 C 167.56 159.26 168.46 159.88 169.40 159.70 Z M 170.39 159.50 L 171.41 159.32 C 172.34 159.15 172.96 158.26 172.79 157.32 C 172.62 156.39 171.73 155.77 170.80 155.94 L 169.78 156.13 C 168.85 156.30 168.23 157.19 168.40 158.12 C 168.56 159.05 169.46 159.67 170.39 159.50 Z M 171.40 159.31 L 172.41 159.13 C 173.34 158.97 173.96 158.08 173.80 157.16 C 173.63 156.23 172.75 155.61 171.83 155.78 L 170.81 155.96 C 169.88 156.12 169.26 157.00 169.43 157.92 C 169.59 158.85 170.47 159.47 171.40 159.31 Z M 172.40 159.12 L 173.41 158.94 C 174.33 158.79 174.95 157.92 174.79 157.00 C 174.64 156.08 173.76 155.46 172.85 155.62 L 171.84 155.79 C 170.92 155.95 170.30 156.82 170.46 157.73 C 170.61 158.65 171.49 159.27 172.40 159.12 Z M 173.40 158.93 L 174.38 158.77 C 175.30 158.62 175.91 157.76 175.76 156.85 C 175.61 155.93 174.75 155.32 173.84 155.47 L 172.86 155.63 C 171.94 155.78 171.33 156.64 171.48 157.55 C 171.63 158.47 172.49 159.08 173.40 158.93 Z M 174.38 158.76 L 175.32 158.60 C 176.23 158.46 176.84 157.61 176.70 156.70 C 176.55 155.80 175.70 155.18 174.79 155.33 L 173.85 155.48 C 172.94 155.63 172.33 156.48 172.47 157.38 C 172.62 158.29 173.47 158.90 174.38 158.76 Z M 175.31 158.59 L 176.27 158.44 C 177.16 158.30 177.78 157.46 177.64 156.56 C 177.50 155.66 176.65 155.05 175.76 155.19 L 174.80 155.34 C 173.90 155.48 173.29 156.32 173.43 157.22 C 173.57 158.12 174.42 158.73 175.31 158.59 Z M 176.26 158.43 L 177.36 158.26 C 178.25 158.12 178.86 157.29 178.73 156.40 C 178.59 155.51 177.76 154.90 176.87 155.04 L 175.77 155.20 C 174.88 155.34 174.26 156.17 174.40 157.06 C 174.54 157.95 175.37 158.56 176.26 158.43 Z M 177.35 158.25 L 178.37 158.10 C 179.26 157.97 179.87 157.15 179.74 156.27 C 179.61 155.38 178.79 154.77 177.91 154.90 L 176.88 155.05 C 176.00 155.18 175.39 156.00 175.52 156.88 C 175.64 157.76 176.47 158.38 177.35 158.25 Z M 178.36 158.09 L 179.32 157.95 C 180.20 157.84 180.81 157.03 180.69 156.15 C 180.57 155.27 179.76 154.66 178.89 154.78 L 177.92 154.91 C 177.05 155.03 176.43 155.84 176.55 156.72 C 176.67 157.59 177.48 158.21 178.36 158.09 Z M 179.30 157.94 L 180.23 157.83 C 181.10 157.72 181.72 156.92 181.61 156.05 C 181.50 155.18 180.70 154.56 179.83 154.67 L 178.91 154.79 C 178.03 154.90 177.42 155.70 177.53 156.57 C 177.64 157.44 178.43 158.05 179.30 157.94 Z M 180.21 157.81 L 181.13 157.71 C 181.99 157.61 182.61 156.83 182.51 155.96 C 182.41 155.10 181.63 154.48 180.77 154.58 L 179.85 154.68 C 178.99 154.78 178.37 155.57 178.47 156.43 C 178.57 157.29 179.35 157.91 180.21 157.81 Z M 181.11 157.71 L 182.07 157.61 C 182.93 157.52 183.56 156.75 183.47 155.88 C 183.38 155.02 182.61 154.40 181.75 154.48 L 180.79 154.58 C 179.92 154.67 179.30 155.44 179.39 156.31 C 179.48 157.17 180.25 157.79 181.11 157.71 Z M 182.06 157.61 L 183.04 157.52 C 183.91 157.44 184.54 156.67 184.46 155.81 C 184.38 154.94 183.62 154.31 182.75 154.39 L 181.76 154.48 C 180.90 154.56 180.26 155.33 180.34 156.19 C 180.42 157.06 181.19 157.69 182.06 157.61 Z M 183.03 157.53 L 184.03 157.44 C 184.90 157.37 185.54 156.60 185.47 155.73 C 185.39 154.86 184.63 154.22 183.76 154.29 L 182.76 154.38 C 181.89 154.45 181.25 155.22 181.32 156.09 C 181.40 156.96 182.16 157.60 183.03 157.53 Z M 184.02 157.45 L 185.03 157.37 C 185.90 157.30 186.55 156.53 186.48 155.66 C 186.41 154.79 185.64 154.13 184.77 154.21 L 183.77 154.29 C 182.89 154.36 182.24 155.12 182.31 155.99 C 182.38 156.87 183.15 157.52 184.02 157.45 Z M 185.02 157.37 L 186.03 157.29 C 186.91 157.23 187.56 156.46 187.49 155.58 C 187.42 154.71 186.66 154.05 185.78 154.12 L 184.77 154.20 C 183.90 154.27 183.24 155.03 183.31 155.91 C 183.38 156.79 184.15 157.44 185.02 157.37 Z M 186.03 157.30 L 186.38 157.27 C 187.25 157.20 187.91 156.44 187.84 155.56 C 187.78 154.68 187.01 154.02 186.13 154.09 L 185.78 154.12 C 184.91 154.18 184.25 154.95 184.32 155.83 C 184.38 156.71 185.15 157.37 186.03 157.30 Z"
      fill="black"
      fill-rule="nonzero" /><path d="M 162.78 174.51 L 163.82 174.51 C 164.69 174.51 165.40 173.80 165.40 172.93 C 165.40 172.05 164.69 171.35 163.82 171.35 L 162.78 171.35 C 161.91 171.35 161.20 172.05 161.20 172.93 C 161.20 173.80 161.91 174.51 162.78 174.51 Z M 163.82 174.54 L 164.84 174.54 C 165.73 174.54 166.45 173.82 166.45 172.93 C 166.45 172.03 165.73 171.31 164.84 171.31 L 163.82 171.31 C 162.92 171.31 162.20 172.03 162.20 172.93 C 162.20 173.82 162.92 174.54 163.82 174.54 Z M 164.84 174.58 L 165.83 174.58 C 166.74 174.58 167.48 173.84 167.48 172.93 C 167.48 172.01 166.74 171.27 165.83 171.27 L 164.84 171.27 C 163.92 171.27 163.18 172.01 163.18 172.93 C 163.18 173.84 163.92 174.58 164.84 174.58 Z M 165.83 174.62 L 166.78 174.62 C 167.72 174.62 168.47 173.86 168.47 172.93 C 168.47 171.99 167.72 171.24 166.78 171.24 L 165.83 171.24 C 164.90 171.24 164.14 171.99 164.14 172.93 C 164.14 173.86 164.90 174.62 165.83 174.62 Z M 166.79 174.63 L 167.84 174.63 C 168.78 174.63 169.54 173.86 169.54 172.92 C 169.54 171.98 168.77 171.22 167.83 171.22 L 166.78 171.22 C 165.84 171.22 165.08 171.99 165.08 172.93 C 165.08 173.87 165.84 174.63 166.79 174.63 Z M 167.86 174.63 L 168.85 174.61 C 169.79 174.60 170.54 173.83 170.53 172.89 C 170.52 171.95 169.75 171.20 168.81 171.21 L 167.81 171.22 C 166.87 171.23 166.12 172.01 166.13 172.95 C 166.15 173.89 166.92 174.64 167.86 174.63 Z M 168.89 174.61 L 169.85 174.57 C 170.79 174.54 171.52 173.75 171.49 172.81 C 171.46 171.88 170.67 171.14 169.73 171.18 L 168.77 171.21 C 167.83 171.25 167.10 172.04 167.13 172.97 C 167.17 173.91 167.95 174.64 168.89 174.61 Z M 169.91 174.56 L 170.82 174.50 C 171.75 174.44 172.46 173.63 172.39 172.70 C 172.33 171.76 171.52 171.06 170.59 171.13 L 169.67 171.19 C 168.74 171.25 168.04 172.06 168.10 172.99 C 168.17 173.93 168.98 174.63 169.91 174.56 Z M 170.88 174.48 L 171.81 174.38 C 172.73 174.28 173.40 173.45 173.30 172.53 C 173.20 171.61 172.37 170.95 171.45 171.05 L 170.52 171.15 C 169.60 171.25 168.94 172.07 169.04 172.99 C 169.14 173.91 169.96 174.58 170.88 174.48 Z M 171.87 174.35 L 172.88 174.21 C 173.78 174.07 174.41 173.23 174.28 172.33 C 174.15 171.42 173.31 170.80 172.40 170.93 L 171.39 171.07 C 170.49 171.20 169.86 172.05 169.99 172.95 C 170.12 173.86 170.96 174.48 171.87 174.35 Z M 172.92 174.18 L 174.01 173.99 C 174.90 173.83 175.50 172.98 175.34 172.09 C 175.18 171.20 174.33 170.60 173.44 170.76 L 172.35 170.95 C 171.46 171.11 170.87 171.96 171.03 172.85 C 171.18 173.74 172.03 174.34 172.92 174.18 Z M 174.04 173.97 L 174.95 173.79 C 175.83 173.61 176.40 172.76 176.23 171.88 C 176.06 171.00 175.20 170.43 174.32 170.60 L 173.41 170.78 C 172.53 170.95 171.96 171.81 172.13 172.69 C 172.31 173.57 173.16 174.14 174.04 173.97 Z M 174.96 173.77 L 175.93 173.58 C 176.80 173.40 177.37 172.54 177.19 171.67 C 177.01 170.80 176.15 170.24 175.28 170.42 L 174.31 170.61 C 173.44 170.79 172.88 171.65 173.06 172.52 C 173.24 173.39 174.09 173.95 174.96 173.77 Z M 175.93 173.56 L 176.94 173.36 C 177.80 173.18 178.36 172.33 178.18 171.46 C 178.00 170.60 177.16 170.04 176.29 170.22 L 175.28 170.43 C 174.42 170.61 173.86 171.45 174.04 172.32 C 174.22 173.19 175.06 173.74 175.93 173.56 Z M 176.93 173.35 L 177.95 173.14 C 178.81 172.96 179.37 172.13 179.19 171.27 C 179.02 170.40 178.18 169.85 177.32 170.02 L 176.30 170.23 C 175.44 170.40 174.88 171.24 175.05 172.10 C 175.23 172.96 176.07 173.52 176.93 173.35 Z M 177.93 173.13 L 178.95 172.94 C 179.81 172.77 180.37 171.95 180.21 171.09 C 180.04 170.23 179.21 169.67 178.36 169.83 L 177.34 170.03 C 176.48 170.19 175.92 171.02 176.08 171.88 C 176.25 172.73 177.08 173.30 177.93 173.13 Z M 178.93 172.94 L 179.94 172.76 C 180.80 172.61 181.37 171.79 181.22 170.93 C 181.07 170.08 180.25 169.51 179.40 169.66 L 178.38 169.84 C 177.53 169.99 176.95 170.80 177.10 171.66 C 177.25 172.51 178.07 173.09 178.93 172.94 Z M 179.92 172.76 L 180.91 172.60 C 181.77 172.46 182.35 171.65 182.21 170.79 C 182.07 169.94 181.27 169.36 180.41 169.50 L 179.42 169.66 C 178.56 169.80 177.98 170.60 178.12 171.46 C 178.26 172.31 179.06 172.90 179.92 172.76 Z M 180.90 172.60 L 181.88 172.45 C 182.73 172.32 183.32 171.52 183.19 170.66 C 183.06 169.81 182.26 169.22 181.41 169.35 L 180.43 169.50 C 179.57 169.63 178.98 170.43 179.11 171.28 C 179.24 172.14 180.04 172.73 180.90 172.60 Z M 181.87 172.45 L 182.84 172.30 C 183.69 172.18 184.28 171.39 184.16 170.53 C 184.03 169.68 183.24 169.08 182.38 169.21 L 181.42 169.35 C 180.56 169.47 179.97 170.27 180.09 171.12 C 180.22 171.98 181.01 172.57 181.87 172.45 Z M 182.83 172.30 L 183.42 172.22 C 184.28 172.10 184.87 171.30 184.75 170.45 C 184.63 169.60 183.84 169.00 182.98 169.13 L 182.39 169.21 C 181.53 169.33 180.94 170.12 181.06 170.98 C 181.19 171.83 181.98 172.42 182.83 172.30 Z"
      fill="black"
      fill-rule="nonzero" /><path d="M 160.56 198.11 L 161.41 198.29 C 162.35 198.49 163.28 197.89 163.48 196.95 C 163.67 196.00 163.07 195.08 162.13 194.88 L 161.28 194.70 C 160.34 194.50 159.41 195.11 159.22 196.05 C 159.02 196.99 159.62 197.92 160.56 198.11 Z M 161.44 198.30 L 162.33 198.47 C 163.28 198.65 164.20 198.03 164.38 197.08 C 164.56 196.13 163.93 195.22 162.99 195.04 L 162.09 194.87 C 161.14 194.69 160.23 195.31 160.05 196.26 C 159.87 197.21 160.49 198.12 161.44 198.30 Z M 162.39 198.49 L 163.38 198.64 C 164.33 198.79 165.23 198.13 165.38 197.17 C 165.52 196.21 164.87 195.32 163.91 195.17 L 162.93 195.02 C 161.97 194.87 161.07 195.53 160.93 196.49 C 160.78 197.45 161.44 198.34 162.39 198.49 Z M 163.45 198.65 L 164.57 198.78 C 165.53 198.88 166.40 198.19 166.51 197.22 C 166.62 196.26 165.92 195.39 164.95 195.28 L 163.83 195.16 C 162.87 195.05 162.00 195.75 161.89 196.71 C 161.79 197.68 162.48 198.55 163.45 198.65 Z M 164.64 198.79 L 165.70 198.86 C 166.68 198.93 167.52 198.20 167.59 197.23 C 167.66 196.26 166.92 195.41 165.95 195.34 L 164.89 195.27 C 163.91 195.20 163.07 195.93 163.00 196.90 C 162.93 197.88 163.67 198.72 164.64 198.79 Z M 165.75 198.88 L 166.74 198.92 C 167.72 198.96 168.55 198.20 168.59 197.22 C 168.63 196.24 167.87 195.42 166.89 195.37 L 165.90 195.33 C 164.92 195.29 164.10 196.05 164.06 197.03 C 164.01 198.01 164.77 198.83 165.75 198.88 Z M 166.78 198.93 L 167.82 198.95 C 168.80 198.97 169.62 198.19 169.64 197.21 C 169.66 196.22 168.88 195.41 167.90 195.39 L 166.86 195.36 C 165.87 195.34 165.06 196.12 165.04 197.11 C 165.02 198.09 165.80 198.91 166.78 198.93 Z M 167.85 198.96 L 168.91 198.97 C 169.90 198.97 170.70 198.17 170.70 197.18 C 170.71 196.19 169.91 195.38 168.92 195.38 L 167.87 195.38 C 166.88 195.37 166.07 196.17 166.07 197.16 C 166.06 198.15 166.86 198.96 167.85 198.96 Z M 168.94 198.98 L 169.97 198.96 C 170.97 198.95 171.76 198.13 171.75 197.13 C 171.74 196.14 170.92 195.34 169.92 195.36 L 168.89 195.37 C 167.89 195.38 167.10 196.20 167.11 197.20 C 167.12 198.19 167.94 198.99 168.94 198.98 Z M 170.00 198.97 L 170.99 198.94 C 171.99 198.91 172.77 198.07 172.74 197.07 C 172.71 196.07 171.87 195.28 170.87 195.32 L 169.89 195.35 C 168.89 195.38 168.10 196.22 168.14 197.22 C 168.17 198.22 169.00 199.00 170.00 198.97 Z M 171.03 198.94 L 172.04 198.89 C 173.04 198.83 173.81 197.97 173.76 196.97 C 173.70 195.97 172.84 195.20 171.84 195.25 L 170.83 195.31 C 169.82 195.37 169.06 196.23 169.11 197.23 C 169.17 198.23 170.03 199.00 171.03 198.94 Z M 172.11 198.89 L 173.25 198.78 C 174.26 198.69 174.99 197.80 174.90 196.80 C 174.81 195.79 173.92 195.06 172.92 195.15 L 171.77 195.26 C 170.77 195.35 170.03 196.24 170.12 197.24 C 170.22 198.24 171.10 198.98 172.11 198.89 Z M 173.34 198.77 L 174.32 198.63 C 175.32 198.49 176.01 197.57 175.87 196.57 C 175.73 195.58 174.81 194.89 173.81 195.02 L 172.83 195.16 C 171.84 195.30 171.14 196.22 171.28 197.22 C 171.42 198.21 172.34 198.91 173.34 198.77 Z M 174.40 198.61 L 175.28 198.45 C 176.27 198.27 176.92 197.32 176.74 196.33 C 176.56 195.35 175.61 194.69 174.62 194.88 L 173.74 195.04 C 172.75 195.22 172.10 196.17 172.28 197.16 C 172.46 198.14 173.41 198.80 174.40 198.61 Z M 175.33 198.44 L 176.19 198.25 C 177.17 198.04 177.79 197.08 177.58 196.10 C 177.37 195.12 176.41 194.49 175.43 194.71 L 174.57 194.89 C 173.59 195.10 172.97 196.07 173.18 197.05 C 173.39 198.03 174.35 198.65 175.33 198.44 Z M 176.21 198.24 L 177.15 198.03 C 178.12 197.81 178.73 196.84 178.51 195.86 C 178.28 194.89 177.31 194.28 176.34 194.50 L 175.40 194.71 C 174.43 194.94 173.82 195.91 174.04 196.88 C 174.27 197.86 175.24 198.47 176.21 198.24 Z M 177.16 198.02 L 178.13 197.79 C 179.10 197.56 179.69 196.58 179.46 195.62 C 179.23 194.65 178.26 194.05 177.29 194.28 L 176.32 194.51 C 175.35 194.74 174.75 195.72 174.99 196.69 C 175.22 197.66 176.19 198.25 177.16 198.02 Z M 178.14 197.78 L 179.13 197.53 C 180.10 197.29 180.68 196.31 180.44 195.35 C 180.20 194.39 179.22 193.80 178.26 194.04 L 177.27 194.29 C 176.30 194.53 175.72 195.51 175.96 196.47 C 176.20 197.44 177.18 198.02 178.14 197.78 Z M 179.15 197.52 L 180.15 197.26 C 181.11 197.01 181.68 196.03 181.43 195.07 C 181.18 194.11 180.19 193.54 179.24 193.79 L 178.24 194.05 C 177.28 194.30 176.71 195.28 176.96 196.24 C 177.21 197.20 178.19 197.77 179.15 197.52 Z M 180.16 197.25 L 181.11 196.99 C 182.06 196.73 182.62 195.75 182.36 194.80 C 182.10 193.84 181.12 193.28 180.17 193.54 L 179.22 193.80 C 178.27 194.06 177.71 195.04 177.97 196.00 C 178.23 196.95 179.21 197.51 180.16 197.25 Z M 181.12 196.98 L 182.08 196.71 C 183.02 196.45 183.58 195.47 183.31 194.52 C 183.05 193.57 182.07 193.02 181.12 193.28 L 180.16 193.55 C 179.21 193.82 178.66 194.80 178.92 195.74 C 179.19 196.69 180.17 197.25 181.12 196.98 Z M 182.08 196.71 L 183.05 196.44 C 183.99 196.17 184.54 195.20 184.28 194.25 C 184.02 193.31 183.04 192.76 182.09 193.02 L 181.12 193.29 C 180.18 193.55 179.63 194.53 179.89 195.48 C 180.15 196.42 181.13 196.97 182.08 196.71 Z M 183.04 196.43 L 184.02 196.16 C 184.96 195.91 185.51 194.93 185.26 193.99 C 185.00 193.05 184.02 192.50 183.08 192.75 L 182.10 193.02 C 181.16 193.28 180.61 194.25 180.87 195.20 C 181.12 196.14 182.10 196.69 183.04 196.43 Z M 184.00 196.16 L 184.96 195.90 C 185.90 195.65 186.45 194.69 186.20 193.75 C 185.95 192.81 184.99 192.26 184.05 192.51 L 183.10 192.76 C 182.16 193.01 181.60 193.97 181.85 194.91 C 182.10 195.85 183.07 196.41 184.00 196.16 Z M 184.94 195.89 L 185.90 195.64 C 186.84 195.40 187.40 194.45 187.15 193.52 C 186.91 192.58 185.96 192.02 185.03 192.27 L 184.07 192.52 C 183.13 192.76 182.57 193.71 182.82 194.64 C 183.06 195.58 184.01 196.14 184.94 195.89 Z M 185.89 195.63 L 186.86 195.39 C 187.79 195.15 188.35 194.20 188.11 193.28 C 187.87 192.35 186.93 191.79 186.00 192.03 L 185.03 192.28 C 184.11 192.52 183.55 193.46 183.79 194.39 C 184.02 195.31 184.97 195.87 185.89 195.63 Z M 186.86 195.37 L 187.84 195.12 C 188.76 194.89 189.31 193.95 189.08 193.03 C 188.84 192.11 187.91 191.56 186.99 191.79 L 186.01 192.04 C 185.09 192.28 184.53 193.21 184.77 194.13 C 185.00 195.05 185.94 195.61 186.86 195.37 Z M 187.84 195.11 L 188.83 194.85 C 189.74 194.62 190.29 193.69 190.05 192.78 C 189.82 191.86 188.89 191.32 187.98 191.55 L 186.99 191.81 C 186.08 192.04 185.53 192.97 185.76 193.88 C 186.00 194.79 186.93 195.34 187.84 195.11 Z M 188.83 194.84 L 189.82 194.58 C 190.72 194.34 191.27 193.42 191.03 192.52 C 190.80 191.61 189.87 191.07 188.97 191.31 L 187.98 191.57 C 187.08 191.80 186.53 192.72 186.77 193.63 C 187.00 194.53 187.93 195.07 188.83 194.84 Z M 189.82 194.56 L 190.80 194.30 C 191.70 194.07 192.23 193.15 192.00 192.26 C 191.76 191.37 190.85 190.83 189.95 191.07 L 188.97 191.33 C 188.08 191.56 187.54 192.48 187.78 193.37 C 188.01 194.26 188.93 194.80 189.82 194.56 Z M 190.80 194.28 L 191.76 194.03 C 192.64 193.80 193.17 192.89 192.94 192.01 C 192.70 191.12 191.80 190.60 190.91 190.83 L 189.95 191.08 C 189.07 191.32 188.54 192.22 188.78 193.11 C 189.01 193.99 189.92 194.52 190.80 194.28 Z M 191.76 194.01 L 192.69 193.77 C 193.57 193.53 194.09 192.64 193.85 191.76 C 193.62 190.89 192.72 190.37 191.85 190.60 L 190.91 190.85 C 190.04 191.08 189.52 191.98 189.75 192.85 C 189.99 193.73 190.88 194.25 191.76 194.01 Z M 192.69 193.75 L 193.72 193.48 C 194.59 193.24 195.10 192.35 194.87 191.49 C 194.64 190.62 193.75 190.11 192.88 190.34 L 191.85 190.61 C 190.98 190.84 190.47 191.73 190.70 192.60 C 190.93 193.47 191.82 193.98 192.69 193.75 Z M 193.72 193.46 L 194.69 193.20 C 195.55 192.97 196.06 192.09 195.83 191.23 C 195.60 190.37 194.72 189.86 193.86 190.09 L 192.89 190.35 C 192.03 190.58 191.52 191.46 191.75 192.32 C 191.97 193.18 192.86 193.69 193.72 193.46 Z M 194.68 193.19 L 195.61 192.95 C 196.46 192.72 196.97 191.85 196.74 190.99 C 196.52 190.14 195.64 189.63 194.79 189.86 L 193.86 190.10 C 193.01 190.33 192.50 191.20 192.73 192.06 C 192.96 192.91 193.83 193.42 194.68 193.19 Z M 195.60 192.93 L 196.51 192.70 C 197.36 192.48 197.86 191.61 197.64 190.77 C 197.42 189.92 196.56 189.41 195.71 189.63 L 194.80 189.87 C 193.95 190.09 193.45 190.96 193.67 191.80 C 193.89 192.65 194.75 193.16 195.60 192.93 Z M 196.50 192.69 L 197.42 192.46 C 198.27 192.24 198.78 191.38 198.56 190.54 C 198.35 189.70 197.49 189.19 196.65 189.40 L 195.72 189.64 C 194.88 189.85 194.37 190.71 194.58 191.55 C 194.80 192.40 195.66 192.91 196.50 192.69 Z M 197.41 192.45 L 198.37 192.22 C 199.21 192.01 199.72 191.16 199.52 190.31 C 199.31 189.47 198.46 188.96 197.61 189.17 L 196.66 189.41 C 195.82 189.61 195.30 190.47 195.51 191.31 C 195.72 192.15 196.57 192.66 197.41 192.45 Z M 198.36 192.21 L 199.38 191.97 C 200.22 191.76 200.74 190.92 200.54 190.08 C 200.34 189.24 199.49 188.72 198.65 188.92 L 197.62 189.17 C 196.78 189.37 196.27 190.22 196.47 191.06 C 196.67 191.90 197.52 192.42 198.36 192.21 Z M 199.38 191.96 L 200.31 191.74 C 201.15 191.55 201.67 190.70 201.47 189.87 C 201.27 189.03 200.43 188.51 199.59 188.70 L 198.66 188.92 C 197.82 189.12 197.30 189.96 197.50 190.80 C 197.70 191.64 198.54 192.16 199.38 191.96 Z M 200.30 191.74 L 201.25 191.52 C 202.09 191.33 202.61 190.49 202.41 189.65 C 202.22 188.81 201.38 188.29 200.54 188.48 L 199.59 188.70 C 198.75 188.90 198.23 189.74 198.43 190.58 C 198.62 191.42 199.46 191.94 200.30 191.74 Z M 201.24 191.53 L 202.23 191.30 C 203.07 191.10 203.60 190.27 203.40 189.43 C 203.21 188.59 202.37 188.06 201.53 188.26 L 200.54 188.48 C 199.70 188.68 199.18 189.51 199.37 190.35 C 199.57 191.19 200.40 191.72 201.24 191.53 Z M 202.23 191.30 L 203.25 191.06 C 204.09 190.87 204.61 190.03 204.42 189.19 C 204.23 188.35 203.39 187.83 202.55 188.02 L 201.53 188.25 C 200.69 188.45 200.17 189.28 200.36 190.12 C 200.55 190.97 201.39 191.49 202.23 191.30 Z M 203.25 191.06 L 203.97 190.90 C 204.81 190.71 205.34 189.87 205.15 189.03 C 204.96 188.19 204.12 187.66 203.28 187.86 L 202.55 188.02 C 201.71 188.21 201.18 189.05 201.38 189.89 C 201.57 190.73 202.41 191.26 203.25 191.06 Z"
      fill="black"
      fill-rule="nonzero" /></svg>