<svg xmlns="http://www.w3.org/2000/svg" width="300" height="300" viewBox="0 0 300 300">
<path d="M 116.76 114.73 L 117.85 114.73 C 118.90 114.73 119.75 113.88 119.75 112.83 C 119.75 111.78 118.90 110.93 117.84 110.93 L 116.76 110.93 C 115.71 110.93 114.86 111.78 114.86 112.83 C 114.86 113.88 115.71 114.73 116.76 114.73 Z M 117.85 114.73 L 118.93 114.73 C 119.98 114.73 120.83 113.87 120.82 112.82 C 120.82 111.77 119.96 110.92 118.91 110.92 L 117.84 110.93 C 116.79 110.93 115.94 111.79 115.94 112.84 C 115.95 113.89 116.80 114.74 117.85 114.73 Z M 118.94 114.73 L 119.99 114.72 C 121.04 114.71 121.89 113.85 121.88 112.80 C 121.87 111.75 121.01 110.90 119.96 110.91 L 118.90 110.92 C 117.85 110.93 117.01 111.79 117.02 112.84 C 117.03 113.89 117.89 114.74 118.94 114.73 Z M 120.01 114.72 L 121.03 114.70 C 122.08 114.68 122.92 113.82 122.90 112.76 C 122.88 111.71 122.01 110.88 120.96 110.90 L 119.94 110.91 C 118.89 110.93 118.05 111.80 118.07 112.85 C 118.09 113.90 118.96 114.74 120.01 114.72 Z M 121.05 114.70 L 122.03 114.67 C 123.09 114.64 123.91 113.76 123.88 112.71 C 123.85 111.66 122.97 110.83 121.92 110.87 L 120.94 110.90 C 119.89 110.93 119.06 111.81 119.09 112.86 C 119.13 113.91 120.00 114.73 121.05 114.70 Z M 122.07 114.67 L 123.00 114.62 C 124.05 114.57 124.86 113.68 124.80 112.63 C 124.75 111.58 123.86 110.77 122.81 110.82 L 121.88 110.87 C 120.83 110.92 120.02 111.81 120.08 112.86 C 120.13 113.91 121.02 114.72 122.07 114.67 Z M 123.04 114.62 L 123.91 114.56 C 124.96 114.48 125.74 113.57 125.67 112.52 C 125.59 111.47 124.68 110.68 123.63 110.76 L 122.76 110.82 C 121.72 110.90 120.93 111.81 121.01 112.86 C 121.08 113.91 121.99 114.70 123.04 114.62 Z M 123.98 114.55 L 125.05 114.43 C 126.10 114.31 126.85 113.37 126.73 112.33 C 126.62 111.28 125.67 110.53 124.63 110.65 L 123.56 110.77 C 122.51 110.88 121.76 111.83 121.88 112.87 C 121.99 113.92 122.94 114.67 123.98 114.55 Z M 125.14 114.42 L 126.14 114.26 C 127.18 114.09 127.88 113.11 127.71 112.08 C 127.55 111.04 126.57 110.33 125.53 110.50 L 124.54 110.66 C 123.50 110.83 122.79 111.81 122.96 112.84 C 123.13 113.88 124.11 114.59 125.14 114.42 Z M 126.23 114.24 L 127.16 114.05 C 128.19 113.83 128.85 112.82 128.63 111.79 C 128.42 110.76 127.41 110.11 126.38 110.32 L 125.45 110.52 C 124.42 110.73 123.76 111.74 123.97 112.77 C 124.19 113.80 125.20 114.46 126.23 114.24 Z M 127.23 114.03 L 128.15 113.80 C 129.17 113.55 129.79 112.52 129.54 111.50 C 129.29 110.48 128.26 109.86 127.24 110.11 L 126.31 110.34 C 125.29 110.59 124.67 111.62 124.92 112.64 C 125.18 113.66 126.21 114.28 127.23 114.03 Z M 128.19 113.79 L 129.15 113.53 C 130.16 113.26 130.76 112.21 130.48 111.20 C 130.21 110.19 129.17 109.59 128.15 109.86 L 127.20 110.12 C 126.18 110.39 125.58 111.44 125.86 112.45 C 126.13 113.47 127.18 114.07 128.19 113.79 Z M 129.16 113.53 L 130.10 113.27 C 131.12 112.99 131.71 111.94 131.43 110.93 C 131.15 109.91 130.10 109.32 129.09 109.60 L 128.14 109.86 C 127.13 110.14 126.53 111.19 126.81 112.20 C 127.10 113.22 128.14 113.81 129.16 113.53 Z M 130.11 113.27 L 131.09 112.99 C 132.10 112.71 132.69 111.66 132.41 110.65 C 132.13 109.63 131.08 109.04 130.06 109.33 L 129.08 109.60 C 128.07 109.88 127.48 110.93 127.76 111.95 C 128.05 112.96 129.10 113.55 130.11 113.27 Z M 131.10 112.99 L 132.09 112.71 C 133.11 112.43 133.70 111.37 133.41 110.36 C 133.12 109.35 132.07 108.76 131.06 109.04 L 130.06 109.33 C 129.05 109.61 128.46 110.66 128.74 111.68 C 129.03 112.69 130.08 113.28 131.10 112.99 Z M 132.10 112.71 L 133.08 112.43 C 134.10 112.14 134.68 111.09 134.40 110.07 C 134.11 109.06 133.05 108.47 132.04 108.76 L 131.05 109.04 C 130.04 109.33 129.45 110.39 129.74 111.40 C 130.03 112.41 131.09 113.00 132.10 112.71 Z M 133.09 112.43 L 134.04 112.16 C 135.05 111.87 135.63 110.81 135.34 109.80 C 135.05 108.78 133.99 108.20 132.98 108.49 L 132.03 108.76 C 131.02 109.05 130.44 110.11 130.73 111.12 C 131.02 112.14 132.08 112.72 133.09 112.43 Z M 134.04 112.16 L 135.02 111.87 C 136.03 111.58 136.62 110.52 136.32 109.50 C 136.03 108.49 134.97 107.91 133.95 108.21 L 132.97 108.49 C 131.96 108.79 131.38 109.85 131.68 110.86 C 131.97 111.87 133.03 112.45 134.04 112.16 Z M 135.03 111.87 L 136.08 111.56 C 137.09 111.26 137.67 110.20 137.37 109.19 C 137.07 108.18 136.01 107.60 135.00 107.90 L 133.95 108.21 C 132.94 108.51 132.36 109.57 132.66 110.58 C 132.96 111.59 134.02 112.17 135.03 111.87 Z M 136.09 111.55 L 137.03 111.27 C 138.04 110.96 138.61 109.90 138.31 108.89 C 138.01 107.89 136.94 107.31 135.94 107.62 L 134.99 107.90 C 133.98 108.21 133.41 109.27 133.71 110.28 C 134.02 111.28 135.08 111.86 136.09 111.55 Z M 137.04 111.26 L 137.92 111.00 C 138.93 110.69 139.50 109.63 139.19 108.62 C 138.89 107.62 137.82 107.05 136.82 107.35 L 135.93 107.62 C 134.93 107.93 134.36 108.99 134.66 109.99 C 134.97 111.00 136.03 111.57 137.04 111.26 Z M 137.92 110.99 L 138.80 110.73 C 139.80 110.42 140.37 109.36 140.07 108.36 C 139.76 107.35 138.70 106.79 137.70 107.09 L 136.82 107.36 C 135.81 107.66 135.25 108.72 135.55 109.73 C 135.85 110.73 136.91 111.30 137.92 110.99 Z M 138.79 110.72 L 139.74 110.44 C 140.74 110.14 141.31 109.08 141.01 108.08 C 140.71 107.08 139.65 106.51 138.65 106.81 L 137.70 107.09 C 136.70 107.39 136.13 108.45 136.43 109.45 C 136.73 110.46 137.79 111.03 138.79 110.72 Z M 139.73 110.44 L 140.69 110.15 C 141.69 109.85 142.26 108.80 141.96 107.80 C 141.66 106.80 140.60 106.23 139.60 106.53 L 138.65 106.81 C 137.65 107.11 137.08 108.17 137.38 109.17 C 137.68 110.17 138.73 110.74 139.73 110.44 Z M 140.69 110.14 L 141.66 109.85 C 142.66 109.55 143.22 108.50 142.92 107.51 C 142.62 106.51 141.57 105.94 140.57 106.24 L 139.60 106.54 C 138.61 106.83 138.04 107.89 138.34 108.88 C 138.64 109.88 139.69 110.44 140.69 110.14 Z M 141.66 109.85 L 142.62 109.55 C 143.62 109.25 144.18 108.20 143.88 107.21 C 143.58 106.22 142.53 105.66 141.53 105.96 L 140.57 106.25 C 139.58 106.55 139.02 107.60 139.32 108.59 C 139.62 109.59 140.67 110.15 141.66 109.85 Z M 142.63 109.55 L 143.58 109.25 C 144.57 108.95 145.13 107.91 144.82 106.92 C 144.52 105.93 143.47 105.37 142.48 105.67 L 141.53 105.96 C 140.54 106.27 139.99 107.31 140.29 108.30 C 140.59 109.29 141.64 109.85 142.63 109.55 Z M 143.58 109.25 L 144.54 108.96 C 145.52 108.65 146.08 107.61 145.78 106.62 C 145.48 105.64 144.43 105.08 143.45 105.39 L 142.49 105.68 C 141.50 105.98 140.95 107.02 141.25 108.01 C 141.55 109.00 142.59 109.55 143.58 109.25 Z M 144.53 108.95 L 145.49 108.66 C 146.48 108.36 147.03 107.32 146.74 106.34 C 146.44 105.36 145.40 104.80 144.42 105.10 L 143.45 105.39 C 142.47 105.69 141.91 106.73 142.21 107.71 C 142.51 108.69 143.55 109.25 144.53 108.95 Z M 145.48 108.66 L 146.45 108.37 C 147.43 108.08 147.99 107.04 147.69 106.06 C 147.40 105.08 146.37 104.52 145.39 104.82 L 144.43 105.10 C 143.44 105.39 142.88 106.43 143.18 107.41 C 143.47 108.39 144.50 108.95 145.48 108.66 Z M 146.43 108.37 L 147.39 108.09 C 148.37 107.80 148.94 106.77 148.65 105.79 C 148.36 104.81 147.34 104.25 146.36 104.54 L 145.40 104.82 C 144.42 105.11 143.86 106.13 144.14 107.11 C 144.43 108.09 145.46 108.65 146.43 108.37 Z M 147.38 108.08 L 148.34 107.81 C 149.32 107.52 149.88 106.51 149.60 105.53 C 149.32 104.55 148.30 103.99 147.33 104.27 L 146.37 104.54 C 145.39 104.82 144.83 105.84 145.11 106.82 C 145.39 107.80 146.41 108.36 147.38 108.08 Z M 148.33 107.80 L 149.30 107.53 C 150.27 107.25 150.84 106.24 150.56 105.26 C 150.28 104.29 149.27 103.72 148.30 104.00 L 147.33 104.27 C 146.36 104.55 145.79 105.56 146.07 106.54 C 146.35 107.51 147.36 108.08 148.33 107.80 Z M 149.29 107.52 L 150.24 107.26 C 151.21 106.98 151.78 105.98 151.50 105.00 C 151.23 104.03 150.22 103.47 149.25 103.74 L 148.30 104.01 C 147.33 104.28 146.77 105.29 147.04 106.26 C 147.31 107.23 148.32 107.79 149.29 107.52 Z M 150.24 107.25 L 151.19 106.98 C 152.15 106.71 152.72 105.71 152.45 104.74 C 152.18 103.77 151.17 103.21 150.20 103.48 L 149.25 103.75 C 148.29 104.02 147.72 105.02 147.99 105.99 C 148.27 106.96 149.27 107.52 150.24 107.25 Z M 151.19 106.97 L 152.15 106.70 C 153.12 106.43 153.67 105.42 153.40 104.46 C 153.13 103.50 152.13 102.94 151.16 103.22 L 150.20 103.49 C 149.24 103.76 148.68 104.76 148.95 105.73 C 149.23 106.69 150.23 107.25 151.19 106.97 Z M 152.16 106.69 L 153.14 106.41 C 154.09 106.13 154.64 105.13 154.37 104.17 C 154.09 103.21 153.09 102.66 152.13 102.94 L 151.15 103.23 C 150.20 103.50 149.65 104.51 149.93 105.46 C 150.20 106.42 151.21 106.97 152.16 106.69 Z M 153.15 106.39 L 154.12 106.10 C 155.07 105.81 155.61 104.81 155.33 103.86 C 155.04 102.91 154.04 102.37 153.09 102.66 L 152.12 102.95 C 151.17 103.24 150.63 104.24 150.91 105.19 C 151.20 106.14 152.20 106.68 153.15 106.39 Z M 154.13 106.09 L 155.10 105.79 C 156.05 105.50 156.58 104.50 156.28 103.55 C 155.99 102.61 154.99 102.08 154.05 102.37 L 153.08 102.67 C 152.14 102.96 151.61 103.96 151.90 104.91 C 152.19 105.85 153.19 106.38 154.13 106.09 Z M 155.10 105.78 L 156.07 105.48 C 157.01 105.19 157.53 104.19 157.24 103.25 C 156.95 102.31 155.95 101.79 155.01 102.08 L 154.05 102.38 C 153.11 102.67 152.59 103.67 152.88 104.61 C 153.17 105.55 154.17 106.07 155.10 105.78 Z M 156.06 105.47 L 157.01 105.18 C 157.94 104.89 158.46 103.90 158.18 102.97 C 157.89 102.04 156.90 101.51 155.96 101.80 L 155.02 102.09 C 154.09 102.38 153.56 103.37 153.85 104.30 C 154.14 105.24 155.13 105.76 156.06 105.47 Z M 156.99 105.18 L 157.96 104.89 C 158.89 104.61 159.42 103.63 159.14 102.70 C 158.87 101.77 157.88 101.24 156.95 101.51 L 155.98 101.80 C 155.05 102.08 154.52 103.06 154.80 103.99 C 155.08 104.93 156.06 105.46 156.99 105.18 Z M 157.94 104.89 L 158.93 104.60 C 159.86 104.33 160.40 103.36 160.13 102.43 C 159.86 101.50 158.89 100.96 157.96 101.23 L 156.97 101.52 C 156.04 101.78 155.50 102.76 155.77 103.69 C 156.04 104.62 157.01 105.15 157.94 104.89 Z M 158.92 104.59 L 159.87 104.32 C 160.80 104.06 161.34 103.09 161.07 102.17 C 160.81 101.24 159.84 100.70 158.92 100.97 L 157.97 101.24 C 157.04 101.50 156.50 102.47 156.77 103.39 C 157.03 104.32 158.00 104.86 158.92 104.59 Z M 159.88 104.31 L 160.80 104.05 C 161.72 103.78 162.25 102.81 161.99 101.89 C 161.72 100.97 160.75 100.44 159.83 100.71 L 158.91 100.98 C 157.99 101.24 157.46 102.21 157.73 103.13 C 158.00 104.05 158.96 104.58 159.88 104.31 Z M 160.82 104.03 L 161.78 103.74 C 162.70 103.46 163.21 102.49 162.93 101.58 C 162.65 100.67 161.69 100.15 160.77 100.43 L 159.81 100.72 C 158.90 101.00 158.39 101.97 158.66 102.88 C 158.94 103.79 159.91 104.31 160.82 104.03 Z M 161.79 103.72 L 162.75 103.42 C 163.66 103.14 164.16 102.17 163.88 101.27 C 163.59 100.36 162.63 99.86 161.72 100.14 L 160.76 100.44 C 159.86 100.73 159.35 101.69 159.64 102.60 C 159.92 103.50 160.89 104.01 161.79 103.72 Z M 162.74 103.42 L 163.69 103.12 C 164.59 102.84 165.10 101.89 164.82 100.98 C 164.54 100.08 163.58 99.58 162.68 99.86 L 161.73 100.15 C 160.83 100.43 160.32 101.39 160.60 102.29 C 160.88 103.19 161.84 103.70 162.74 103.42 Z M 163.66 103.12 L 164.57 102.85 C 165.47 102.59 165.99 101.65 165.72 100.74 C 165.46 99.84 164.52 99.33 163.61 99.59 L 162.70 99.86 C 161.80 100.12 161.29 101.07 161.55 101.97 C 161.81 102.87 162.76 103.39 163.66 103.12 Z M 164.54 102.85 L 165.43 102.61 C 166.33 102.36 166.86 101.43 166.61 100.53 C 166.36 99.63 165.43 99.10 164.53 99.35 L 163.64 99.59 C 162.74 99.84 162.21 100.77 162.46 101.67 C 162.71 102.57 163.64 103.10 164.54 102.85 Z M 165.42 102.60 L 166.37 102.35 C 167.27 102.11 167.80 101.18 167.56 100.28 C 167.32 99.38 166.39 98.85 165.49 99.09 L 164.54 99.35 C 163.64 99.59 163.11 100.52 163.35 101.42 C 163.60 102.32 164.52 102.85 165.42 102.60 Z M 166.38 102.34 L 167.43 102.05 C 168.32 101.81 168.85 100.88 168.61 99.99 C 168.36 99.10 167.44 98.57 166.54 98.81 L 165.49 99.10 C 164.60 99.35 164.07 100.27 164.31 101.16 C 164.56 102.06 165.48 102.58 166.38 102.34 Z M 167.44 102.04 L 168.37 101.78 C 169.26 101.53 169.77 100.60 169.52 99.71 C 169.27 98.82 168.35 98.31 167.46 98.56 L 166.53 98.82 C 165.64 99.08 165.13 100.00 165.38 100.89 C 165.63 101.78 166.56 102.29 167.44 102.04 Z M 168.39 101.77 L 169.31 101.50 C 170.19 101.24 170.70 100.31 170.43 99.42 C 170.17 98.54 169.25 98.04 168.36 98.30 L 167.44 98.57 C 166.56 98.83 166.05 99.76 166.31 100.64 C 166.58 101.53 167.50 102.03 168.39 101.77 Z M 169.33 101.49 L 170.29 101.19 C 171.17 100.91 171.66 99.98 171.39 99.10 C 171.12 98.23 170.19 97.74 169.31 98.01 L 168.34 98.31 C 167.46 98.58 166.97 99.51 167.25 100.39 C 167.52 101.27 168.45 101.76 169.33 101.49 Z M 170.32 101.17 L 171.31 100.85 C 172.18 100.56 172.65 99.63 172.37 98.75 C 172.08 97.88 171.14 97.41 170.27 97.70 L 169.28 98.02 C 168.41 98.31 167.94 99.24 168.22 100.12 C 168.51 100.99 169.45 101.46 170.32 101.17 Z M 171.34 100.84 L 172.33 100.49 C 173.19 100.18 173.65 99.24 173.34 98.38 C 173.04 97.51 172.10 97.06 171.23 97.36 L 170.24 97.71 C 169.38 98.01 168.92 98.96 169.23 99.82 C 169.53 100.68 170.48 101.14 171.34 100.84 Z M 172.37 100.47 L 173.61 99.99 C 174.46 99.66 174.89 98.71 174.56 97.86 C 174.23 97.00 173.28 96.58 172.42 96.91 L 171.19 97.38 C 170.34 97.71 169.91 98.67 170.24 99.52 C 170.57 100.37 171.52 100.79 172.37 100.47 Z M 173.69 99.96 L 174.84 99.44 C 175.67 99.07 176.05 98.10 175.68 97.26 C 175.31 96.43 174.33 96.06 173.50 96.43 L 172.35 96.94 C 171.52 97.31 171.14 98.29 171.51 99.12 C 171.88 99.95 172.86 100.33 173.69 99.96 Z M 175.02 99.34 L 175.75 98.90 C 176.53 98.43 176.78 97.42 176.31 96.65 C 175.84 95.87 174.83 95.62 174.05 96.09 L 173.32 96.53 C 172.55 97.00 172.30 98.01 172.77 98.79 C 173.24 99.56 174.25 99.81 175.02 99.34 Z M 176.48 97.94 L 176.56 97.65 C 176.81 96.78 176.30 95.87 175.43 95.63 C 174.55 95.38 173.65 95.89 173.40 96.76 L 173.32 97.05 C 173.08 97.92 173.58 98.83 174.45 99.07 C 175.33 99.32 176.23 98.81 176.48 97.94 Z M 175.33 95.60 L 174.86 95.50 C 173.97 95.31 173.10 95.87 172.91 96.75 C 172.71 97.63 173.27 98.51 174.16 98.70 L 174.63 98.80 C 175.51 99.00 176.39 98.44 176.58 97.55 C 176.78 96.67 176.22 95.80 175.33 95.60 Z M 174.52 95.46 L 173.65 95.45 C 172.75 95.45 172.01 96.17 172.00 97.08 C 171.99 97.98 172.71 98.72 173.62 98.73 L 174.49 98.74 C 175.40 98.75 176.14 98.02 176.14 97.12 C 176.15 96.21 175.43 95.47 174.52 95.46 Z M 173.55 95.46 L 172.39 95.52 C 171.49 95.56 170.80 96.33 170.84 97.24 C 170.89 98.14 171.66 98.83 172.56 98.79 L 173.72 98.73 C 174.62 98.68 175.32 97.91 175.27 97.01 C 175.22 96.10 174.45 95.41 173.55 95.46 Z M 172.35 95.52 L 171.03 95.62 C 170.13 95.69 169.45 96.48 169.52 97.38 C 169.59 98.28 170.37 98.95 171.28 98.89 L 172.60 98.78 C 173.50 98.72 174.18 97.93 174.11 97.03 C 174.04 96.13 173.26 95.45 172.35 95.52 Z M 171.02 95.62 L 170.34 95.68 C 169.44 95.75 168.77 96.54 168.84 97.44 C 168.91 98.35 169.71 99.02 170.61 98.94 L 171.29 98.88 C 172.19 98.81 172.86 98.02 172.78 97.12 C 172.71 96.22 171.92 95.55 171.02 95.62 Z"
      fill="black"
      fill-rule="nonzero" /><path d="M 140.81 95.29 L 140.57 96.22 C 140.34 97.15 140.90 98.09 141.83 98.33 C 142.76 98.56 143.70 98.00 143.94 97.07 L 144.17 96.14 C 144.41 95.21 143.84 94.27 142.91 94.03 C 141.98 93.80 141.04 94.36 140.81 95.29 Z M 140.53 96.29 L 140.34 97.25 C 140.14 98.20 140.75 99.13 141.70 99.33 C 142.65 99.52 143.58 98.91 143.78 97.96 L 143.98 97.00 C 144.17 96.05 143.56 95.12 142.61 94.92 C 141.66 94.73 140.73 95.34 140.53 96.29 Z M 140.29 97.39 L 140.17 98.42 C 140.05 99.39 140.74 100.28 141.72 100.40 C 142.69 100.52 143.58 99.82 143.70 98.85 L 143.82 97.82 C 143.94 96.84 143.25 95.96 142.27 95.84 C 141.30 95.72 140.41 96.42 140.29 97.39 Z M 140.14 98.59 L 140.12 99.57 C 140.10 100.56 140.88 101.38 141.87 101.40 C 142.86 101.42 143.68 100.64 143.70 99.65 L 143.72 98.67 C 143.75 97.68 142.96 96.86 141.97 96.84 C 140.98 96.82 140.16 97.60 140.14 98.59 Z M 140.12 99.72 L 140.18 100.69 C 140.24 101.68 141.09 102.43 142.08 102.37 C 143.07 102.31 143.83 101.46 143.76 100.47 L 143.70 99.49 C 143.64 98.50 142.79 97.75 141.80 97.81 C 140.81 97.87 140.06 98.73 140.12 99.72 Z M 140.19 100.82 L 140.32 101.82 C 140.46 102.81 141.36 103.50 142.34 103.37 C 143.33 103.24 144.02 102.33 143.89 101.35 L 143.75 100.34 C 143.62 99.36 142.72 98.66 141.73 98.80 C 140.75 98.93 140.06 99.83 140.19 100.82 Z M 140.34 101.94 L 140.55 102.96 C 140.74 103.94 141.69 104.57 142.67 104.37 C 143.64 104.18 144.27 103.23 144.07 102.25 L 143.87 101.23 C 143.67 100.26 142.73 99.63 141.75 99.82 C 140.78 100.02 140.15 100.97 140.34 101.94 Z M 140.58 103.07 L 140.84 104.05 C 141.09 105.01 142.08 105.58 143.03 105.32 C 143.99 105.07 144.56 104.08 144.31 103.13 L 144.05 102.15 C 143.79 101.19 142.81 100.62 141.85 100.87 C 140.89 101.13 140.32 102.11 140.58 103.07 Z M 140.87 104.14 L 141.18 105.08 C 141.48 106.02 142.49 106.53 143.43 106.23 C 144.36 105.93 144.88 104.92 144.58 103.99 L 144.27 103.04 C 143.97 102.10 142.96 101.59 142.02 101.89 C 141.09 102.19 140.57 103.20 140.87 104.14 Z M 141.22 105.14 L 141.56 106.08 C 141.90 107.00 142.92 107.47 143.83 107.14 C 144.75 106.80 145.22 105.78 144.89 104.86 L 144.54 103.92 C 144.20 103.00 143.19 102.53 142.27 102.87 C 141.35 103.21 140.88 104.23 141.22 105.14 Z M 141.59 106.12 L 141.96 107.06 C 142.32 107.96 143.34 108.40 144.24 108.04 C 145.15 107.68 145.59 106.66 145.23 105.75 L 144.86 104.82 C 144.50 103.92 143.47 103.48 142.57 103.84 C 141.67 104.20 141.23 105.22 141.59 106.12 Z M 141.98 107.07 L 142.37 108.02 C 142.74 108.91 143.76 109.33 144.65 108.96 C 145.54 108.59 145.97 107.57 145.60 106.68 L 145.21 105.74 C 144.84 104.85 143.82 104.42 142.93 104.79 C 142.03 105.16 141.61 106.18 141.98 107.07 Z M 142.39 108.02 L 142.80 108.98 C 143.17 109.86 144.19 110.27 145.07 109.90 C 145.94 109.52 146.35 108.51 145.98 107.63 L 145.58 106.67 C 145.20 105.80 144.19 105.39 143.31 105.76 C 142.43 106.13 142.02 107.14 142.39 108.02 Z M 142.83 108.99 L 143.23 109.92 C 143.61 110.78 144.61 111.18 145.48 110.80 C 146.34 110.43 146.74 109.42 146.36 108.56 L 145.96 107.62 C 145.58 106.76 144.58 106.36 143.71 106.74 C 142.85 107.12 142.45 108.12 142.83 108.99 Z M 143.26 109.93 L 143.66 110.82 C 144.04 111.67 145.04 112.05 145.89 111.67 C 146.74 111.29 147.12 110.29 146.74 109.44 L 146.34 108.55 C 145.96 107.70 144.96 107.32 144.11 107.70 C 143.26 108.08 142.88 109.08 143.26 109.93 Z M 143.68 110.84 L 144.10 111.72 C 144.48 112.55 145.48 112.92 146.31 112.53 C 147.15 112.14 147.51 111.14 147.12 110.31 L 146.71 109.43 C 146.32 108.59 145.33 108.23 144.49 108.62 C 143.66 109.01 143.30 110.00 143.68 110.84 Z M 144.12 111.74 L 144.58 112.68 C 144.98 113.51 145.97 113.85 146.80 113.45 C 147.62 113.04 147.96 112.05 147.56 111.23 L 147.10 110.29 C 146.69 109.46 145.70 109.12 144.88 109.53 C 144.06 109.93 143.72 110.92 144.12 111.74 Z M 144.60 112.70 L 145.05 113.58 C 145.46 114.39 146.45 114.72 147.26 114.30 C 148.07 113.89 148.40 112.90 147.98 112.08 L 147.54 111.21 C 147.13 110.40 146.13 110.07 145.32 110.49 C 144.51 110.90 144.19 111.89 144.60 112.70 Z M 145.06 113.59 L 145.50 114.43 C 145.92 115.24 146.91 115.55 147.71 115.13 C 148.52 114.71 148.83 113.72 148.41 112.91 L 147.97 112.07 C 147.55 111.27 146.56 110.96 145.76 111.38 C 144.95 111.80 144.64 112.79 145.06 113.59 Z M 145.50 114.43 L 145.55 114.52 C 145.97 115.32 146.96 115.63 147.76 115.21 C 148.56 114.79 148.87 113.80 148.45 113.00 L 148.40 112.91 C 147.98 112.11 146.99 111.80 146.19 112.22 C 145.39 112.64 145.08 113.63 145.50 114.43 Z"
      fill="black"
      fill-rule="nonzero" /><path d="M 152.27 92.80 L 152.27 93.83 C 152.27 94.80 153.06 95.59 154.03 95.59 C 155.00 95.59 155.79 94.80 155.79 93.83 L 155.79 92.80 C 155.79 91.83 155.00 91.04 154.03 91.04 C 153.05 91.04 152.27 91.83 152.27 92.80 Z M 152.25 93.84 L 152.25 94.86 C 152.25 95.85 153.05 96.64 154.04 96.64 C 155.02 96.63 155.81 95.83 155.81 94.85 L 155.81 93.83 C 155.80 92.84 155.00 92.05 154.02 92.05 C 153.04 92.06 152.25 92.85 152.25 93.84 Z M 152.23 94.87 L 152.24 95.89 C 152.25 96.88 153.06 97.68 154.05 97.67 C 155.04 97.66 155.84 96.85 155.83 95.86 L 155.83 94.84 C 155.82 93.85 155.01 93.05 154.02 93.06 C 153.02 93.07 152.23 93.88 152.23 94.87 Z M 152.23 95.91 L 152.24 96.91 C 152.26 97.91 153.08 98.71 154.08 98.69 C 155.09 98.68 155.88 97.85 155.87 96.85 L 155.85 95.85 C 155.83 94.85 155.01 94.05 154.01 94.06 C 153.01 94.08 152.21 94.91 152.23 95.91 Z M 152.23 96.93 L 152.25 97.92 C 152.28 98.93 153.12 99.73 154.13 99.70 C 155.14 99.67 155.94 98.83 155.91 97.82 L 155.88 96.83 C 155.86 95.82 155.01 95.03 154.00 95.05 C 152.99 95.08 152.20 95.92 152.23 96.93 Z M 152.24 97.95 L 152.28 98.91 C 152.32 99.93 153.18 100.72 154.20 100.68 C 155.22 100.64 156.01 99.78 155.97 98.76 L 155.93 97.79 C 155.88 96.77 155.02 95.98 154.00 96.02 C 152.99 96.07 152.19 96.93 152.24 97.95 Z M 152.27 98.95 L 152.33 99.95 C 152.39 100.97 153.27 101.75 154.30 101.69 C 155.32 101.63 156.10 100.75 156.04 99.72 L 155.98 98.72 C 155.92 97.70 155.04 96.92 154.01 96.98 C 152.98 97.04 152.20 97.92 152.27 98.95 Z M 152.33 99.99 L 152.42 101.08 C 152.50 102.10 153.40 102.86 154.43 102.78 C 155.45 102.69 156.22 101.79 156.13 100.77 L 156.04 99.68 C 155.96 98.65 155.05 97.89 154.03 97.98 C 153.00 98.06 152.24 98.96 152.33 99.99 Z M 152.42 101.11 L 152.53 102.16 C 152.64 103.18 153.55 103.92 154.57 103.81 C 155.60 103.71 156.34 102.79 156.23 101.77 L 156.12 100.73 C 156.02 99.71 155.10 98.97 154.08 99.07 C 153.06 99.18 152.32 100.09 152.42 101.11 Z M 152.54 102.19 L 152.66 103.18 C 152.78 104.20 153.71 104.92 154.72 104.80 C 155.74 104.68 156.47 103.75 156.34 102.74 L 156.22 101.74 C 156.10 100.73 155.18 100.00 154.16 100.12 C 153.14 100.25 152.42 101.17 152.54 102.19 Z M 152.67 103.20 L 152.79 104.15 C 152.93 105.16 153.86 105.87 154.87 105.74 C 155.88 105.60 156.60 104.67 156.46 103.66 L 156.34 102.72 C 156.20 101.70 155.27 100.99 154.26 101.12 C 153.25 101.26 152.53 102.19 152.67 103.20 Z M 152.80 104.16 L 152.92 105.05 C 153.06 106.06 154.00 106.76 155.01 106.62 C 156.02 106.48 156.72 105.55 156.58 104.54 L 156.46 103.65 C 156.32 102.64 155.38 101.93 154.37 102.07 C 153.36 102.21 152.66 103.15 152.80 104.16 Z M 152.93 105.05 L 153.07 106.01 C 153.21 107.02 154.14 107.72 155.14 107.58 C 156.15 107.44 156.85 106.51 156.71 105.50 L 156.57 104.54 C 156.43 103.53 155.50 102.83 154.50 102.97 C 153.49 103.11 152.79 104.04 152.93 105.05 Z M 153.09 106.00 L 153.22 106.96 C 153.35 107.95 154.27 108.65 155.26 108.52 C 156.25 108.38 156.95 107.47 156.81 106.47 L 156.68 105.52 C 156.55 104.52 155.64 103.83 154.64 103.96 C 153.65 104.09 152.95 105.01 153.09 106.00 Z M 153.24 106.94 L 153.36 107.90 C 153.48 108.88 154.38 109.57 155.36 109.45 C 156.34 109.33 157.03 108.43 156.91 107.45 L 156.79 106.50 C 156.67 105.51 155.78 104.82 154.79 104.94 C 153.81 105.06 153.12 105.96 153.24 106.94 Z M 153.38 107.87 L 153.49 108.86 C 153.60 109.83 154.47 110.53 155.44 110.42 C 156.41 110.32 157.11 109.44 157.00 108.47 L 156.89 107.48 C 156.78 106.51 155.91 105.81 154.94 105.92 C 153.97 106.03 153.27 106.90 153.38 107.87 Z M 153.51 108.84 L 153.61 109.87 C 153.70 110.83 154.55 111.53 155.51 111.44 C 156.47 111.35 157.17 110.50 157.08 109.54 L 156.98 108.50 C 156.89 107.54 156.04 106.84 155.08 106.93 C 154.12 107.02 153.42 107.88 153.51 108.84 Z M 153.62 109.85 L 153.69 110.79 C 153.77 111.74 154.61 112.45 155.57 112.37 C 156.52 112.29 157.23 111.45 157.15 110.50 L 157.07 109.56 C 157.00 108.61 156.16 107.90 155.20 107.98 C 154.25 108.06 153.54 108.89 153.62 109.85 Z M 153.69 110.77 L 153.76 111.76 C 153.83 112.71 154.67 113.43 155.62 113.36 C 156.58 113.29 157.30 112.46 157.23 111.51 L 157.15 110.52 C 157.08 109.56 156.25 108.84 155.30 108.91 C 154.34 108.98 153.62 109.81 153.69 110.77 Z M 153.76 111.74 L 153.83 112.76 C 153.89 113.72 154.71 114.45 155.67 114.39 C 156.63 114.33 157.35 113.50 157.29 112.54 L 157.23 111.52 C 157.17 110.57 156.34 109.84 155.39 109.90 C 154.43 109.96 153.70 110.79 153.76 111.74 Z M 153.83 112.75 L 153.88 113.78 C 153.94 114.74 154.75 115.47 155.71 115.42 C 156.67 115.37 157.40 114.55 157.35 113.59 L 157.29 112.56 C 157.24 111.60 156.42 110.87 155.47 110.92 C 154.51 110.97 153.77 111.79 153.83 112.75 Z M 153.88 113.77 L 153.93 114.79 C 153.97 115.75 154.78 116.49 155.74 116.45 C 156.70 116.40 157.44 115.59 157.40 114.63 L 157.35 113.61 C 157.31 112.65 156.50 111.91 155.54 111.95 C 154.58 112.00 153.84 112.81 153.88 113.77 Z M 153.93 114.77 L 153.97 115.81 C 154.00 116.77 154.80 117.52 155.76 117.48 C 156.72 117.45 157.47 116.64 157.43 115.69 L 157.40 114.65 C 157.36 113.69 156.56 112.94 155.60 112.98 C 154.64 113.01 153.90 113.81 153.93 114.77 Z M 153.97 115.79 L 154.00 116.83 C 154.02 117.79 154.81 118.54 155.77 118.52 C 156.72 118.50 157.48 117.70 157.45 116.75 L 157.43 115.70 C 157.41 114.75 156.61 113.99 155.66 114.02 C 154.70 114.04 153.95 114.83 153.97 115.79 Z M 154.01 116.82 L 154.02 117.82 C 154.03 118.77 154.82 119.53 155.77 119.52 C 156.72 119.50 157.48 118.72 157.46 117.77 L 157.45 116.76 C 157.43 115.81 156.65 115.05 155.70 115.07 C 154.75 115.08 153.99 115.87 154.01 116.82 Z M 154.03 117.81 L 154.04 118.79 C 154.04 119.74 154.82 120.50 155.76 120.49 C 156.71 120.48 157.47 119.71 157.46 118.77 L 157.45 117.78 C 157.45 116.84 156.67 116.08 155.73 116.09 C 154.78 116.09 154.02 116.87 154.03 117.81 Z M 154.04 118.78 L 154.05 119.75 C 154.05 120.69 154.81 121.45 155.75 121.45 C 156.70 121.45 157.46 120.68 157.45 119.74 L 157.45 118.78 C 157.45 117.84 156.68 117.07 155.74 117.08 C 154.80 117.08 154.04 117.84 154.04 118.78 Z M 154.06 119.75 L 154.06 120.53 C 154.06 121.46 154.82 122.22 155.75 122.22 C 156.69 122.22 157.45 121.46 157.45 120.52 L 157.45 119.75 C 157.45 118.81 156.69 118.05 155.75 118.05 C 154.81 118.05 154.06 118.81 154.06 119.75 Z"
      fill="black"
      fill-rule="nonzero" /><path d="M 131.56 138.61 L 132.53 138.43 C 133.50 138.23 134.14 137.29 133.95 136.31 C 133.76 135.33 132.81 134.69 131.83 134.88 L 130.87 135.07 C 129.89 135.26 129.25 136.21 129.44 137.19 C 129.64 138.17 130.58 138.81 131.56 138.61 Z M 132.54 138.43 L 133.51 138.23 C 134.49 138.03 135.12 137.08 134.92 136.10 C 134.72 135.12 133.77 134.48 132.78 134.68 L 131.82 134.88 C 130.84 135.08 130.20 136.03 130.40 137.01 C 130.60 138.00 131.56 138.63 132.54 138.43 Z M 133.53 138.24 L 134.50 138.02 C 135.48 137.81 136.11 136.84 135.89 135.86 C 135.68 134.88 134.71 134.26 133.73 134.47 L 132.76 134.68 C 131.78 134.89 131.15 135.86 131.37 136.84 C 131.58 137.83 132.55 138.45 133.53 138.24 Z M 134.54 138.02 L 135.52 137.79 C 136.50 137.55 137.11 136.57 136.87 135.59 C 136.64 134.61 135.66 134.00 134.68 134.24 L 133.69 134.47 C 132.71 134.71 132.11 135.69 132.34 136.67 C 132.58 137.65 133.56 138.26 134.54 138.02 Z M 135.57 137.78 L 136.56 137.52 C 137.54 137.26 138.12 136.26 137.86 135.28 C 137.60 134.30 136.60 133.72 135.62 133.98 L 134.63 134.24 C 133.65 134.50 133.07 135.51 133.33 136.48 C 133.59 137.46 134.59 138.04 135.57 137.78 Z M 136.61 137.50 L 137.61 137.21 C 138.58 136.92 139.13 135.90 138.85 134.93 C 138.56 133.96 137.54 133.41 136.57 133.70 L 135.57 133.99 C 134.60 134.28 134.05 135.30 134.34 136.27 C 134.63 137.24 135.65 137.79 136.61 137.50 Z M 137.65 137.19 L 138.64 136.87 C 139.60 136.56 140.13 135.53 139.82 134.57 C 139.51 133.61 138.48 133.09 137.52 133.40 L 136.53 133.72 C 135.57 134.03 135.04 135.06 135.35 136.01 C 135.66 136.97 136.69 137.50 137.65 137.19 Z M 138.67 136.85 L 139.64 136.52 C 140.59 136.19 141.09 135.16 140.77 134.21 C 140.44 133.26 139.40 132.75 138.45 133.08 L 137.49 133.41 C 136.54 133.74 136.03 134.78 136.36 135.73 C 136.69 136.68 137.72 137.18 138.67 136.85 Z M 139.67 136.51 L 140.59 136.17 C 141.53 135.83 142.01 134.79 141.67 133.84 C 141.33 132.90 140.29 132.42 139.35 132.76 L 138.42 133.10 C 137.48 133.44 137.00 134.48 137.34 135.42 C 137.68 136.36 138.72 136.85 139.67 136.51 Z M 140.61 136.16 L 141.47 135.83 C 142.40 135.47 142.87 134.43 142.52 133.50 C 142.16 132.56 141.12 132.09 140.18 132.45 L 139.32 132.77 C 138.39 133.13 137.92 134.17 138.28 135.11 C 138.63 136.04 139.68 136.51 140.61 136.16 Z M 141.49 135.81 L 142.53 135.40 C 143.45 135.03 143.90 133.99 143.54 133.06 C 143.17 132.14 142.12 131.69 141.20 132.05 L 140.16 132.47 C 139.24 132.83 138.79 133.88 139.15 134.80 C 139.52 135.73 140.57 136.18 141.49 135.81 Z M 142.55 135.38 L 143.48 134.99 C 144.39 134.61 144.82 133.57 144.44 132.65 C 144.06 131.74 143.01 131.31 142.10 131.69 L 141.18 132.08 C 140.26 132.46 139.83 133.50 140.21 134.41 C 140.59 135.33 141.64 135.76 142.55 135.38 Z M 143.49 134.97 L 144.35 134.60 C 145.25 134.21 145.67 133.16 145.28 132.26 C 144.89 131.36 143.84 130.95 142.94 131.34 L 142.08 131.71 C 141.18 132.10 140.77 133.15 141.16 134.05 C 141.55 134.95 142.59 135.36 143.49 134.97 Z M 144.37 134.58 L 145.22 134.20 C 146.11 133.80 146.51 132.76 146.11 131.87 C 145.72 130.98 144.67 130.58 143.78 130.98 L 142.93 131.36 C 142.04 131.75 141.64 132.80 142.04 133.69 C 142.43 134.58 143.48 134.98 144.37 134.58 Z M 145.22 134.19 L 146.11 133.79 C 147.00 133.39 147.39 132.35 146.99 131.47 C 146.59 130.58 145.55 130.19 144.67 130.59 L 143.78 130.99 C 142.90 131.39 142.50 132.43 142.90 133.31 C 143.30 134.19 144.34 134.59 145.22 134.19 Z M 146.11 133.78 L 147.02 133.37 C 147.90 132.97 148.29 131.93 147.89 131.05 C 147.49 130.18 146.46 129.79 145.58 130.18 L 144.67 130.60 C 143.79 131.00 143.40 132.03 143.80 132.91 C 144.20 133.79 145.23 134.18 146.11 133.78 Z M 147.02 133.36 L 147.95 132.94 C 148.83 132.54 149.21 131.51 148.82 130.63 C 148.42 129.76 147.39 129.37 146.52 129.77 L 145.58 130.19 C 144.71 130.59 144.32 131.62 144.72 132.49 C 145.11 133.37 146.14 133.75 147.02 133.36 Z M 147.94 132.93 L 148.85 132.52 C 149.73 132.13 150.11 131.10 149.72 130.23 C 149.33 129.36 148.30 128.97 147.43 129.36 L 146.52 129.77 C 145.65 130.17 145.26 131.19 145.66 132.06 C 146.05 132.93 147.07 133.32 147.94 132.93 Z M 148.85 132.51 L 149.76 132.10 C 150.63 131.71 151.01 130.69 150.62 129.83 C 150.24 128.96 149.22 128.57 148.35 128.96 L 147.44 129.37 C 146.57 129.76 146.18 130.78 146.57 131.65 C 146.96 132.51 147.98 132.90 148.85 132.51 Z M 149.76 132.09 L 150.68 131.68 C 151.54 131.29 151.92 130.27 151.53 129.41 C 151.14 128.55 150.13 128.17 149.27 128.56 L 148.35 128.97 C 147.49 129.36 147.11 130.38 147.50 131.24 C 147.89 132.10 148.90 132.48 149.76 132.09 Z M 150.68 131.66 L 151.59 131.25 C 152.45 130.86 152.82 129.85 152.43 128.99 C 152.04 128.14 151.03 127.76 150.18 128.15 L 149.27 128.57 C 148.41 128.96 148.04 129.97 148.43 130.82 C 148.82 131.68 149.83 132.05 150.68 131.66 Z M 151.60 131.23 L 152.52 130.81 C 153.36 130.41 153.73 129.40 153.34 128.56 C 152.94 127.71 151.94 127.34 151.09 127.74 L 150.17 128.17 C 149.33 128.56 148.96 129.57 149.35 130.41 C 149.75 131.26 150.76 131.63 151.60 131.23 Z M 152.53 130.79 L 153.43 130.36 C 154.27 129.96 154.63 128.96 154.23 128.12 C 153.83 127.28 152.82 126.92 151.98 127.32 L 151.08 127.75 C 150.24 128.15 149.88 129.16 150.28 130.00 C 150.68 130.84 151.69 131.19 152.53 130.79 Z M 153.44 130.35 L 154.33 129.91 C 155.17 129.51 155.51 128.51 155.11 127.67 C 154.70 126.84 153.70 126.50 152.87 126.90 L 151.97 127.34 C 151.14 127.74 150.80 128.74 151.20 129.58 C 151.61 130.41 152.61 130.75 153.44 130.35 Z M 154.34 129.90 L 155.23 129.46 C 156.06 129.05 156.39 128.05 155.98 127.22 C 155.57 126.40 154.57 126.06 153.75 126.47 L 152.86 126.91 C 152.03 127.32 151.70 128.33 152.11 129.15 C 152.52 129.97 153.52 130.31 154.34 129.90 Z M 155.24 129.45 L 156.13 129.00 C 156.95 128.58 157.28 127.58 156.87 126.76 C 156.45 125.94 155.45 125.62 154.63 126.03 L 153.74 126.48 C 152.92 126.90 152.59 127.90 153.01 128.72 C 153.42 129.53 154.42 129.86 155.24 129.45 Z M 156.14 128.99 L 157.03 128.53 C 157.84 128.12 158.17 127.12 157.75 126.31 C 157.34 125.49 156.34 125.17 155.52 125.58 L 154.63 126.04 C 153.82 126.45 153.49 127.45 153.91 128.27 C 154.32 129.08 155.32 129.40 156.14 128.99 Z M 157.02 128.53 L 157.91 128.08 C 158.73 127.67 159.05 126.67 158.64 125.86 C 158.23 125.04 157.23 124.72 156.42 125.13 L 155.53 125.59 C 154.71 126.00 154.39 126.99 154.80 127.81 C 155.22 128.62 156.21 128.94 157.02 128.53 Z M 157.90 128.08 L 158.75 127.65 C 159.57 127.25 159.90 126.26 159.49 125.44 C 159.08 124.63 158.09 124.30 157.28 124.71 L 156.43 125.13 C 155.62 125.54 155.29 126.53 155.69 127.34 C 156.10 128.16 157.09 128.49 157.90 128.08 Z M 158.74 127.66 L 159.57 127.25 C 160.38 126.85 160.72 125.86 160.32 125.05 C 159.91 124.23 158.93 123.90 158.11 124.30 L 157.29 124.71 C 156.47 125.11 156.14 126.09 156.54 126.91 C 156.94 127.72 157.93 128.06 158.74 127.66 Z M 159.56 127.25 L 160.43 126.82 C 161.25 126.43 161.59 125.44 161.19 124.63 C 160.79 123.81 159.81 123.47 158.99 123.87 L 158.12 124.30 C 157.30 124.70 156.97 125.68 157.36 126.50 C 157.76 127.31 158.75 127.65 159.56 127.25 Z M 160.43 126.82 L 161.39 126.36 C 162.20 125.96 162.54 124.97 162.14 124.16 C 161.74 123.35 160.76 123.01 159.95 123.41 L 158.99 123.87 C 158.18 124.27 157.84 125.26 158.24 126.07 C 158.64 126.88 159.62 127.22 160.43 126.82 Z M 161.39 126.35 L 162.33 125.89 C 163.14 125.49 163.48 124.51 163.08 123.70 C 162.68 122.88 161.69 122.55 160.88 122.95 L 159.94 123.41 C 159.13 123.81 158.80 124.79 159.20 125.61 C 159.60 126.42 160.58 126.75 161.39 126.35 Z M 162.33 125.89 L 163.15 125.48 C 163.96 125.08 164.29 124.10 163.89 123.29 C 163.49 122.48 162.51 122.14 161.70 122.55 L 160.88 122.95 C 160.07 123.35 159.74 124.34 160.14 125.15 C 160.54 125.96 161.52 126.29 162.33 125.89 Z M 163.15 125.48 L 164.03 125.05 C 164.84 124.64 165.17 123.66 164.76 122.85 C 164.36 122.04 163.38 121.71 162.57 122.11 L 161.70 122.55 C 160.89 122.95 160.56 123.93 160.96 124.74 C 161.36 125.55 162.34 125.88 163.15 125.48 Z M 164.03 125.05 L 164.94 124.59 C 165.75 124.19 166.08 123.21 165.67 122.40 C 165.27 121.59 164.29 121.26 163.48 121.66 L 162.57 122.12 C 161.76 122.52 161.43 123.50 161.83 124.31 C 162.23 125.12 163.22 125.45 164.03 125.05 Z M 164.94 124.59 L 165.88 124.12 C 166.69 123.72 167.01 122.74 166.61 121.93 C 166.21 121.12 165.22 120.79 164.41 121.19 L 163.48 121.66 C 162.67 122.07 162.34 123.05 162.74 123.86 C 163.15 124.67 164.13 125.00 164.94 124.59 Z M 165.88 124.12 L 166.83 123.65 C 167.64 123.24 167.97 122.26 167.56 121.45 C 167.16 120.64 166.18 120.31 165.37 120.72 L 164.41 121.19 C 163.60 121.60 163.28 122.58 163.68 123.39 C 164.09 124.20 165.07 124.53 165.88 124.12 Z M 166.83 123.64 L 167.23 123.45 C 168.03 123.04 168.36 122.06 167.96 121.25 C 167.55 120.44 166.57 120.12 165.76 120.52 L 165.37 120.72 C 164.56 121.12 164.23 122.10 164.64 122.91 C 165.04 123.72 166.02 124.05 166.83 123.64 Z"
      fill="black"
      fill-rule="nonzero" /><path d="M 158.01 115.24 L 157.07 115.72 C 156.21 116.15 155.86 117.21 156.29 118.07 C 156.73 118.94 157.78 119.28 158.64 118.85 L 159.59 118.38 C 160.45 117.94 160.80 116.89 160.37 116.02 C 159.93 115.16 158.88 114.81 158.01 115.24 Z M 157.05 115.72 L 156.13 116.19 C 155.26 116.64 154.92 117.70 155.37 118.57 C 155.81 119.43 156.88 119.77 157.74 119.33 L 158.66 118.85 C 159.53 118.41 159.87 117.34 159.42 116.48 C 158.98 115.61 157.92 115.27 157.05 115.72 Z M 156.09 116.20 L 155.22 116.67 C 154.35 117.14 154.04 118.22 154.50 119.08 C 154.97 119.94 156.05 120.26 156.91 119.79 L 157.78 119.32 C 158.64 118.85 158.96 117.77 158.49 116.91 C 158.03 116.05 156.95 115.73 156.09 116.20 Z M 155.16 116.70 L 154.35 117.17 C 153.50 117.67 153.22 118.76 153.72 119.61 C 154.22 120.46 155.31 120.74 156.16 120.24 L 156.97 119.77 C 157.82 119.27 158.10 118.18 157.60 117.33 C 157.10 116.48 156.00 116.20 155.16 116.70 Z M 154.25 117.22 L 153.40 117.79 C 152.58 118.34 152.36 119.46 152.92 120.29 C 153.48 121.11 154.59 121.33 155.42 120.77 L 156.26 120.20 C 157.09 119.64 157.30 118.52 156.75 117.70 C 156.19 116.88 155.07 116.66 154.25 117.22 Z M 153.26 117.87 L 152.50 118.49 C 151.72 119.12 151.60 120.27 152.24 121.05 C 152.87 121.83 154.02 121.95 154.79 121.31 L 155.56 120.69 C 156.34 120.06 156.46 118.91 155.82 118.13 C 155.19 117.35 154.04 117.23 153.26 117.87 Z M 152.35 118.60 L 151.66 119.28 C 150.94 120.00 150.94 121.16 151.65 121.88 C 152.37 122.61 153.54 122.61 154.26 121.89 L 154.95 121.21 C 155.67 120.49 155.67 119.32 154.95 118.60 C 154.23 117.88 153.07 117.88 152.35 118.60 Z M 151.53 119.39 L 150.90 120.15 C 150.24 120.93 150.35 122.11 151.14 122.76 C 151.92 123.42 153.10 123.32 153.76 122.53 L 154.38 121.78 C 155.04 120.99 154.94 119.82 154.15 119.16 C 153.36 118.50 152.19 118.60 151.53 119.39 Z M 150.81 120.24 L 150.23 121.05 C 149.62 121.88 149.81 123.05 150.65 123.66 C 151.49 124.26 152.66 124.08 153.26 123.24 L 153.84 122.44 C 154.45 121.60 154.26 120.43 153.43 119.82 C 152.59 119.22 151.42 119.40 150.81 120.24 Z M 150.16 121.13 L 149.62 121.99 C 149.06 122.86 149.31 124.02 150.18 124.58 C 151.06 125.14 152.22 124.89 152.78 124.01 L 153.33 123.16 C 153.89 122.28 153.63 121.12 152.76 120.56 C 151.89 120.00 150.72 120.26 150.16 121.13 Z M 149.56 122.07 L 149.06 122.94 C 148.54 123.85 148.86 125.00 149.77 125.52 C 150.67 126.03 151.82 125.72 152.34 124.81 L 152.84 123.93 C 153.35 123.03 153.04 121.88 152.13 121.36 C 151.22 120.85 150.07 121.16 149.56 122.07 Z M 149.01 123.03 L 148.56 123.92 C 148.10 124.85 148.47 125.99 149.41 126.45 C 150.34 126.92 151.48 126.54 151.94 125.61 L 152.39 124.73 C 152.86 123.79 152.48 122.66 151.55 122.19 C 150.61 121.72 149.48 122.10 149.01 123.03 Z M 148.52 124.00 L 148.13 124.89 C 147.71 125.85 148.14 126.97 149.10 127.39 C 150.05 127.81 151.17 127.38 151.59 126.42 L 151.98 125.53 C 152.41 124.57 151.97 123.46 151.02 123.03 C 150.06 122.61 148.95 123.04 148.52 124.00 Z M 148.10 124.96 L 147.73 125.88 C 147.35 126.85 147.82 127.95 148.79 128.34 C 149.76 128.73 150.86 128.25 151.25 127.28 L 151.62 126.36 C 152.00 125.39 151.53 124.29 150.56 123.90 C 149.59 123.51 148.49 123.99 148.10 124.96 Z M 147.72 125.92 L 147.37 126.86 C 147.00 127.84 147.50 128.93 148.47 129.30 C 149.45 129.66 150.54 129.17 150.91 128.19 L 151.26 127.25 C 151.63 126.27 151.13 125.18 150.15 124.81 C 149.18 124.44 148.09 124.94 147.72 125.92 Z M 147.36 126.88 L 147.05 127.74 C 146.69 128.72 147.20 129.81 148.18 130.16 C 149.16 130.52 150.24 130.02 150.60 129.03 L 150.91 128.17 C 151.27 127.19 150.77 126.11 149.79 125.75 C 148.80 125.39 147.72 125.90 147.36 126.88 Z M 147.05 127.75 L 146.72 128.67 C 146.37 129.65 146.88 130.73 147.86 131.08 C 148.84 131.43 149.92 130.92 150.27 129.94 L 150.60 129.02 C 150.95 128.04 150.44 126.96 149.46 126.61 C 148.48 126.26 147.40 126.77 147.05 127.75 Z M 146.72 128.68 L 146.37 129.65 C 146.03 130.63 146.55 131.71 147.53 132.06 C 148.51 132.40 149.59 131.89 149.93 130.90 L 150.28 129.93 C 150.62 128.95 150.10 127.87 149.12 127.52 C 148.14 127.18 147.06 127.69 146.72 128.68 Z M 146.37 129.66 L 146.02 130.69 C 145.68 131.67 146.20 132.75 147.18 133.09 C 148.17 133.43 149.24 132.91 149.58 131.92 L 149.94 130.89 C 150.28 129.91 149.75 128.84 148.77 128.49 C 147.79 128.15 146.71 128.68 146.37 129.66 Z M 146.02 130.70 L 145.71 131.60 C 145.37 132.59 145.90 133.66 146.88 134.00 C 147.86 134.33 148.93 133.81 149.27 132.82 L 149.58 131.91 C 149.92 130.93 149.39 129.86 148.41 129.52 C 147.42 129.19 146.35 129.71 146.02 130.70 Z M 145.71 131.61 L 145.40 132.53 C 145.06 133.51 145.59 134.58 146.58 134.91 C 147.56 135.24 148.63 134.72 148.96 133.73 L 149.27 132.82 C 149.60 131.83 149.08 130.76 148.09 130.43 C 147.11 130.10 146.04 130.63 145.71 131.61 Z M 145.40 132.53 L 145.08 133.48 C 144.75 134.46 145.28 135.53 146.26 135.86 C 147.25 136.19 148.31 135.66 148.64 134.67 L 148.96 133.73 C 149.29 132.74 148.76 131.68 147.78 131.35 C 146.79 131.02 145.73 131.55 145.40 132.53 Z M 145.08 133.48 L 144.76 134.45 C 144.43 135.43 144.96 136.50 145.94 136.82 C 146.92 137.15 147.99 136.62 148.32 135.64 L 148.64 134.67 C 148.97 133.69 148.44 132.62 147.46 132.29 C 146.47 131.96 145.41 132.50 145.08 133.48 Z M 144.76 134.45 L 144.43 135.44 C 144.10 136.42 144.63 137.49 145.61 137.81 C 146.60 138.14 147.66 137.61 147.99 136.63 L 148.32 135.64 C 148.64 134.65 148.11 133.59 147.13 133.26 C 146.15 132.94 145.08 133.47 144.76 134.45 Z M 144.43 135.44 L 144.10 136.44 C 143.77 137.42 144.30 138.49 145.28 138.81 C 146.26 139.14 147.32 138.61 147.65 137.63 L 147.98 136.63 C 148.31 135.64 147.78 134.58 146.80 134.26 C 145.82 133.93 144.76 134.46 144.43 135.44 Z M 144.10 136.44 L 143.77 137.45 C 143.44 138.43 143.97 139.48 144.95 139.81 C 145.93 140.14 146.99 139.61 147.31 138.63 L 147.65 137.63 C 147.97 136.65 147.44 135.59 146.46 135.26 C 145.48 134.94 144.43 135.47 144.10 136.44 Z M 143.77 137.45 L 143.44 138.44 C 143.12 139.41 143.64 140.47 144.62 140.79 C 145.60 141.12 146.65 140.59 146.98 139.61 L 147.31 138.63 C 147.63 137.65 147.10 136.59 146.13 136.27 C 145.15 135.94 144.10 136.47 143.77 137.45 Z M 143.45 138.44 L 143.13 139.40 C 142.80 140.37 143.33 141.42 144.30 141.75 C 145.28 142.07 146.33 141.54 146.65 140.57 L 146.97 139.61 C 147.30 138.64 146.77 137.59 145.80 137.26 C 144.82 136.94 143.77 137.46 143.45 138.44 Z M 143.13 139.40 L 142.83 140.30 C 142.50 141.28 143.03 142.33 144.00 142.65 C 144.97 142.97 146.02 142.45 146.35 141.48 L 146.65 140.57 C 146.97 139.60 146.45 138.55 145.48 138.22 C 144.51 137.90 143.45 138.42 143.13 139.40 Z M 142.83 140.31 L 142.54 141.19 C 142.21 142.16 142.74 143.21 143.71 143.53 C 144.68 143.86 145.72 143.33 146.05 142.36 L 146.34 141.48 C 146.67 140.51 146.14 139.46 145.17 139.14 C 144.20 138.81 143.16 139.34 142.83 140.31 Z M 142.54 141.20 L 142.19 142.26 C 141.87 143.22 142.39 144.27 143.35 144.59 C 144.32 144.91 145.36 144.39 145.68 143.42 L 146.04 142.36 C 146.36 141.40 145.84 140.35 144.87 140.03 C 143.91 139.71 142.87 140.23 142.54 141.20 Z M 142.20 142.26 L 141.88 143.20 C 141.56 144.16 142.08 145.20 143.03 145.52 C 143.99 145.84 145.03 145.33 145.36 144.37 L 145.67 143.43 C 146.00 142.47 145.48 141.43 144.52 141.10 C 143.56 140.78 142.52 141.30 142.20 142.26 Z M 141.90 143.19 L 141.60 144.07 C 141.27 145.02 141.78 146.05 142.73 146.38 C 143.68 146.71 144.72 146.20 145.04 145.25 L 145.34 144.38 C 145.67 143.42 145.16 142.39 144.21 142.06 C 143.26 141.73 142.22 142.24 141.90 143.19 Z M 141.61 144.05 L 141.30 144.93 C 140.97 145.87 141.46 146.91 142.41 147.24 C 143.35 147.57 144.39 147.08 144.72 146.13 L 145.03 145.26 C 145.36 144.32 144.87 143.28 143.92 142.95 C 142.98 142.61 141.94 143.11 141.61 144.05 Z M 141.31 144.91 L 140.98 145.84 C 140.64 146.78 141.12 147.82 142.06 148.16 C 143.00 148.50 144.03 148.01 144.37 147.08 L 144.71 146.15 C 145.05 145.21 144.57 144.17 143.63 143.83 C 142.69 143.49 141.65 143.98 141.31 144.91 Z M 140.99 145.83 L 140.64 146.77 C 140.29 147.70 140.77 148.74 141.70 149.08 C 142.63 149.43 143.67 148.95 144.01 148.02 L 144.36 147.09 C 144.71 146.15 144.23 145.12 143.30 144.77 C 142.37 144.43 141.33 144.90 140.99 145.83 Z M 140.65 146.76 L 140.29 147.71 C 139.94 148.64 140.41 149.68 141.33 150.03 C 142.26 150.38 143.30 149.91 143.65 148.98 L 144.00 148.03 C 144.36 147.10 143.89 146.07 142.96 145.72 C 142.03 145.37 141.00 145.83 140.65 146.76 Z M 140.30 147.71 L 139.95 148.61 C 139.60 149.54 140.06 150.57 140.99 150.92 C 141.91 151.27 142.94 150.81 143.29 149.89 L 143.64 148.98 C 143.99 148.06 143.53 147.03 142.60 146.68 C 141.68 146.32 140.65 146.79 140.30 147.71 Z M 139.96 148.61 L 139.61 149.53 C 139.26 150.45 139.72 151.48 140.64 151.84 C 141.56 152.19 142.59 151.72 142.94 150.80 L 143.29 149.88 C 143.64 148.96 143.18 147.93 142.26 147.58 C 141.34 147.23 140.31 147.70 139.96 148.61 Z M 139.61 149.54 L 139.25 150.49 C 138.90 151.41 139.36 152.43 140.28 152.78 C 141.20 153.13 142.23 152.67 142.57 151.75 L 142.93 150.80 C 143.28 149.88 142.82 148.86 141.90 148.51 C 140.99 148.16 139.96 148.62 139.61 149.54 Z M 139.25 150.49 L 138.89 151.46 C 138.55 152.38 139.01 153.40 139.92 153.74 C 140.84 154.09 141.86 153.63 142.21 152.71 L 142.57 151.74 C 142.91 150.83 142.45 149.81 141.54 149.46 C 140.62 149.12 139.60 149.58 139.25 150.49 Z M 138.89 151.47 L 138.55 152.40 C 138.21 153.32 138.67 154.33 139.58 154.67 C 140.50 155.01 141.51 154.55 141.85 153.64 L 142.20 152.70 C 142.54 151.79 142.08 150.77 141.16 150.43 C 140.25 150.09 139.23 150.56 138.89 151.47 Z M 138.55 152.41 L 138.20 153.35 C 137.86 154.27 138.33 155.28 139.24 155.61 C 140.15 155.95 141.16 155.49 141.50 154.58 L 141.85 153.63 C 142.19 152.72 141.72 151.71 140.81 151.37 C 139.90 151.03 138.89 151.50 138.55 152.41 Z M 138.21 153.36 L 137.86 154.30 C 137.52 155.21 137.98 156.21 138.89 156.55 C 139.80 156.89 140.80 156.43 141.14 155.52 L 141.49 154.57 C 141.83 153.67 141.37 152.66 140.46 152.32 C 139.55 151.99 138.55 152.45 138.21 153.36 Z M 137.87 154.30 L 137.52 155.23 C 137.18 156.13 137.64 157.14 138.54 157.48 C 139.44 157.81 140.45 157.35 140.78 156.45 L 141.13 155.52 C 141.47 154.62 141.01 153.61 140.11 153.28 C 139.21 152.94 138.20 153.40 137.87 154.30 Z M 137.53 155.23 L 137.17 156.18 C 136.83 157.08 137.28 158.08 138.18 158.42 C 139.08 158.76 140.08 158.30 140.42 157.41 L 140.78 156.46 C 141.11 155.56 140.66 154.56 139.76 154.22 C 138.87 153.88 137.86 154.33 137.53 155.23 Z M 137.17 156.18 L 136.82 157.11 C 136.48 158.01 136.93 159.01 137.83 159.34 C 138.72 159.68 139.72 159.23 140.06 158.34 L 140.41 157.41 C 140.75 156.51 140.30 155.51 139.41 155.18 C 138.51 154.84 137.51 155.29 137.17 156.18 Z M 136.83 157.12 L 136.48 158.04 C 136.14 158.93 136.59 159.93 137.48 160.26 C 138.38 160.60 139.37 160.15 139.71 159.26 L 140.05 158.33 C 140.39 157.44 139.94 156.45 139.05 156.11 C 138.16 155.78 137.16 156.23 136.83 157.12 Z M 136.48 158.05 L 136.14 158.98 C 135.81 159.87 136.26 160.86 137.15 161.19 C 138.04 161.52 139.03 161.06 139.36 160.17 L 139.70 159.25 C 140.03 158.36 139.58 157.37 138.69 157.04 C 137.80 156.71 136.81 157.16 136.48 158.05 Z M 136.14 158.99 L 135.80 159.91 C 135.48 160.80 135.93 161.79 136.82 162.11 C 137.71 162.44 138.69 161.98 139.02 161.09 L 139.36 160.16 C 139.68 159.27 139.22 158.29 138.34 157.97 C 137.45 157.64 136.46 158.10 136.14 158.99 Z M 135.80 159.92 L 135.47 160.86 C 135.15 161.75 135.61 162.73 136.49 163.05 C 137.38 163.37 138.36 162.91 138.68 162.02 L 139.02 161.08 C 139.33 160.19 138.87 159.21 137.99 158.90 C 137.10 158.58 136.12 159.04 135.80 159.92 Z M 135.47 160.87 L 135.13 161.83 C 134.82 162.71 135.28 163.68 136.16 164.00 C 137.05 164.31 138.02 163.85 138.34 162.96 L 138.67 162.01 C 138.99 161.13 138.53 160.15 137.64 159.84 C 136.76 159.52 135.78 159.99 135.47 160.87 Z M 135.13 161.83 L 134.80 162.78 C 134.49 163.67 134.95 164.64 135.84 164.95 C 136.72 165.26 137.69 164.79 138.00 163.91 L 138.33 162.96 C 138.64 162.07 138.18 161.11 137.30 160.80 C 136.41 160.48 135.44 160.95 135.13 161.83 Z M 134.80 162.79 L 134.48 163.73 C 134.17 164.61 134.63 165.58 135.52 165.88 C 136.40 166.19 137.36 165.72 137.67 164.84 L 138.00 163.90 C 138.30 163.02 137.84 162.06 136.96 161.75 C 136.07 161.44 135.11 161.91 134.80 162.79 Z M 134.48 163.73 L 134.15 164.68 C 133.85 165.56 134.31 166.52 135.19 166.82 C 136.07 167.13 137.03 166.66 137.34 165.78 L 137.66 164.84 C 137.97 163.96 137.50 163.00 136.62 162.69 C 135.74 162.39 134.78 162.86 134.48 163.73 Z M 134.16 164.68 L 133.83 165.63 C 133.53 166.51 133.99 167.47 134.87 167.77 C 135.75 168.07 136.70 167.61 137.00 166.73 L 137.33 165.78 C 137.64 164.90 137.17 163.95 136.29 163.64 C 135.42 163.34 134.46 163.81 134.16 164.68 Z M 133.83 165.63 L 133.51 166.58 C 133.20 167.46 133.67 168.41 134.54 168.71 C 135.42 169.02 136.37 168.55 136.67 167.68 L 137.00 166.73 C 137.30 165.85 136.84 164.90 135.96 164.60 C 135.09 164.30 134.13 164.76 133.83 165.63 Z M 133.51 166.59 L 133.18 167.54 C 132.88 168.41 133.34 169.36 134.22 169.66 C 135.09 169.96 136.04 169.50 136.34 168.63 L 136.67 167.68 C 136.97 166.80 136.51 165.85 135.63 165.55 C 134.76 165.25 133.81 165.71 133.51 166.59 Z M 133.19 167.53 L 132.86 168.48 C 132.56 169.35 133.02 170.30 133.89 170.60 C 134.76 170.90 135.71 170.44 136.01 169.57 L 136.34 168.63 C 136.64 167.75 136.18 166.81 135.31 166.50 C 134.44 166.20 133.49 166.66 133.19 167.53 Z M 132.86 168.48 L 132.53 169.42 C 132.23 170.29 132.69 171.24 133.56 171.54 C 134.43 171.84 135.38 171.38 135.68 170.52 L 136.01 169.57 C 136.31 168.71 135.85 167.76 134.98 167.45 C 134.11 167.15 133.16 167.61 132.86 168.48 Z M 132.54 169.42 L 132.21 170.36 C 131.91 171.23 132.36 172.18 133.23 172.48 C 134.09 172.78 135.04 172.33 135.34 171.46 L 135.67 170.52 C 135.98 169.65 135.52 168.70 134.66 168.40 C 133.79 168.10 132.84 168.55 132.54 169.42 Z M 132.21 170.36 L 131.88 171.31 C 131.57 172.17 132.03 173.12 132.89 173.42 C 133.76 173.73 134.70 173.27 135.01 172.41 L 135.34 171.46 C 135.65 170.60 135.19 169.65 134.33 169.35 C 133.46 169.04 132.52 169.50 132.21 170.36 Z M 131.88 171.31 L 131.55 172.26 C 131.25 173.12 131.70 174.06 132.56 174.37 C 133.42 174.67 134.37 174.22 134.67 173.35 L 135.00 172.41 C 135.31 171.55 134.85 170.60 133.99 170.30 C 133.13 170.00 132.18 170.45 131.88 171.31 Z M 131.55 172.26 L 131.22 173.20 C 130.92 174.06 131.38 175.01 132.24 175.31 C 133.10 175.61 134.05 175.15 134.35 174.29 L 134.67 173.35 C 134.97 172.48 134.52 171.54 133.65 171.24 C 132.79 170.94 131.85 171.40 131.55 172.26 Z M 131.22 173.21 L 130.90 174.14 C 130.61 175.01 131.07 175.94 131.93 176.24 C 132.80 176.53 133.73 176.07 134.03 175.21 L 134.35 174.28 C 134.64 173.41 134.18 172.48 133.32 172.18 C 132.45 171.89 131.52 172.35 131.22 173.21 Z M 130.90 174.16 L 130.60 175.08 C 130.31 175.94 130.78 176.88 131.64 177.16 C 132.50 177.45 133.44 176.98 133.72 176.12 L 134.03 175.20 C 134.32 174.33 133.85 173.40 132.99 173.11 C 132.12 172.83 131.19 173.29 130.90 174.16 Z M 130.59 175.09 L 130.29 176.03 C 130.01 176.90 130.48 177.83 131.35 178.11 C 132.21 178.39 133.14 177.91 133.42 177.05 L 133.73 176.11 C 134.00 175.24 133.53 174.31 132.67 174.03 C 131.80 173.75 130.87 174.23 130.59 175.09 Z M 130.29 176.05 L 129.98 177.01 C 129.71 177.88 130.19 178.80 131.06 179.07 C 131.92 179.35 132.85 178.87 133.12 178.00 L 133.42 177.03 C 133.70 176.17 133.22 175.25 132.35 174.97 C 131.48 174.70 130.56 175.18 130.29 176.05 Z M 129.98 177.02 L 129.68 178.01 C 129.41 178.88 129.90 179.80 130.76 180.07 C 131.63 180.33 132.55 179.85 132.81 178.98 L 133.12 177.99 C 133.39 177.12 132.90 176.21 132.03 175.94 C 131.17 175.67 130.25 176.16 129.98 177.02 Z M 129.67 178.03 L 129.38 179.01 C 129.12 179.88 129.61 180.79 130.48 181.05 C 131.35 181.31 132.26 180.82 132.52 179.95 L 132.82 178.97 C 133.08 178.10 132.58 177.19 131.72 176.93 C 130.85 176.67 129.94 177.16 129.67 178.03 Z M 129.38 179.03 L 129.09 180.01 C 128.84 180.88 129.34 181.79 130.21 182.04 C 131.08 182.29 131.99 181.79 132.24 180.92 L 132.53 179.93 C 132.78 179.06 132.27 178.15 131.40 177.90 C 130.53 177.65 129.63 178.16 129.38 179.03 Z M 129.08 180.04 L 128.82 181.01 C 128.59 181.88 129.10 182.78 129.98 183.02 C 130.85 183.25 131.75 182.74 131.99 181.86 L 132.25 180.90 C 132.48 180.02 131.97 179.12 131.09 178.89 C 130.22 178.65 129.32 179.17 129.08 180.04 Z M 128.81 181.05 L 128.59 181.96 C 128.37 182.84 128.91 183.73 129.79 183.94 C 130.67 184.16 131.56 183.62 131.77 182.74 L 132.00 181.82 C 132.21 180.95 131.67 180.06 130.79 179.84 C 129.92 179.63 129.03 180.17 128.81 181.05 Z M 128.58 182.02 L 128.36 183.09 C 128.17 183.98 128.74 184.84 129.63 185.03 C 130.51 185.21 131.38 184.64 131.56 183.75 L 131.78 182.68 C 131.97 181.80 131.40 180.93 130.51 180.75 C 129.63 180.57 128.76 181.14 128.58 182.02 Z M 128.35 183.15 L 128.18 184.14 C 128.03 185.03 128.64 185.87 129.53 186.02 C 130.42 186.17 131.26 185.56 131.41 184.67 L 131.58 183.69 C 131.72 182.80 131.12 181.96 130.23 181.81 C 129.34 181.66 128.49 182.26 128.35 183.15 Z M 128.18 184.18 L 128.05 185.11 C 127.92 186.00 128.55 186.83 129.44 186.95 C 130.34 187.08 131.16 186.45 131.29 185.56 L 131.42 184.63 C 131.54 183.73 130.92 182.91 130.02 182.78 C 129.13 182.66 128.30 183.28 128.18 184.18 Z M 128.04 185.12 L 128.00 185.45 C 127.88 186.35 128.52 187.17 129.41 187.29 C 130.31 187.40 131.13 186.77 131.25 185.87 L 131.29 185.55 C 131.41 184.65 130.78 183.83 129.88 183.71 C 128.98 183.59 128.16 184.22 128.04 185.12 Z"
      fill="black"
      fill-rule="nonzero" /><path d="M 149.23 157.04 L 149.46 157.98 C 149.70 158.94 150.68 159.53 151.64 159.29 C 152.60 159.05 153.19 158.08 152.95 157.11 L 152.72 156.18 C 152.48 155.22 151.51 154.63 150.55 154.87 C 149.58 155.10 149.00 156.08 149.23 157.04 Z M 149.46 157.95 L 149.68 158.91 C 149.90 159.87 150.87 160.48 151.83 160.25 C 152.80 160.03 153.40 159.07 153.18 158.10 L 152.96 157.14 C 152.74 156.17 151.77 155.57 150.80 155.79 C 149.84 156.02 149.23 156.98 149.46 157.95 Z M 149.67 158.86 L 149.87 159.86 C 150.06 160.83 151.01 161.47 151.98 161.27 C 152.96 161.08 153.59 160.13 153.39 159.15 L 153.19 158.15 C 153.00 157.18 152.05 156.54 151.08 156.74 C 150.10 156.93 149.47 157.88 149.67 158.86 Z M 149.85 159.80 L 150.01 160.75 C 150.17 161.73 151.09 162.39 152.07 162.24 C 153.05 162.08 153.72 161.15 153.56 160.17 L 153.41 159.22 C 153.25 158.24 152.32 157.57 151.34 157.73 C 150.36 157.89 149.69 158.82 149.85 159.80 Z M 150.00 160.69 L 150.12 161.61 C 150.25 162.60 151.15 163.30 152.14 163.17 C 153.12 163.04 153.82 162.14 153.69 161.15 L 153.57 160.23 C 153.44 159.24 152.54 158.54 151.55 158.67 C 150.57 158.80 149.87 159.70 150.00 160.69 Z M 150.11 161.58 L 150.22 162.56 C 150.33 163.55 151.21 164.27 152.20 164.16 C 153.19 164.05 153.91 163.16 153.80 162.18 L 153.70 161.19 C 153.59 160.20 152.70 159.48 151.71 159.59 C 150.72 159.70 150.01 160.59 150.11 161.58 Z M 150.22 162.53 L 150.31 163.59 C 150.40 164.58 151.28 165.31 152.28 165.22 C 153.27 165.13 154.00 164.25 153.90 163.26 L 153.81 162.20 C 153.72 161.21 152.84 160.48 151.84 160.57 C 150.85 160.66 150.12 161.54 150.22 162.53 Z M 150.31 163.58 L 150.40 164.62 C 150.48 165.61 151.35 166.35 152.35 166.27 C 153.34 166.18 154.08 165.31 153.99 164.32 L 153.91 163.28 C 153.82 162.28 152.95 161.54 151.96 161.63 C 150.97 161.71 150.23 162.58 150.31 163.58 Z M 150.40 164.61 L 150.47 165.55 C 150.55 166.54 151.42 167.28 152.42 167.20 C 153.41 167.12 154.15 166.25 154.07 165.26 L 153.99 164.32 C 153.91 163.33 153.04 162.59 152.05 162.67 C 151.06 162.75 150.32 163.62 150.40 164.61 Z M 150.47 165.56 L 150.56 166.53 C 150.64 167.53 151.51 168.26 152.51 168.18 C 153.50 168.09 154.24 167.22 154.15 166.23 L 154.07 165.25 C 153.98 164.26 153.11 163.52 152.12 163.61 C 151.13 163.69 150.39 164.56 150.47 165.56 Z M 150.56 166.55 L 150.65 167.56 C 150.75 168.55 151.63 169.28 152.62 169.18 C 153.61 169.09 154.34 168.21 154.24 167.22 L 154.15 166.21 C 154.06 165.22 153.18 164.49 152.19 164.59 C 151.19 164.68 150.47 165.56 150.56 166.55 Z M 150.66 167.58 L 150.77 168.62 C 150.88 169.61 151.76 170.32 152.75 170.21 C 153.74 170.11 154.46 169.22 154.35 168.23 L 154.24 167.20 C 154.13 166.21 153.25 165.49 152.26 165.60 C 151.27 165.70 150.55 166.59 150.66 167.58 Z M 150.77 168.65 L 150.91 169.70 C 151.03 170.69 151.93 171.38 152.92 171.26 C 153.91 171.13 154.61 170.23 154.48 169.25 L 154.35 168.20 C 154.22 167.21 153.32 166.51 152.33 166.64 C 151.35 166.76 150.65 167.66 150.77 168.65 Z M 150.92 169.74 L 151.07 170.77 C 151.22 171.76 152.13 172.43 153.12 172.28 C 154.10 172.14 154.77 171.22 154.63 170.24 L 154.47 169.21 C 154.32 168.22 153.41 167.55 152.43 167.70 C 151.45 167.84 150.77 168.76 150.92 169.74 Z M 151.09 170.81 L 151.26 171.84 C 151.43 172.81 152.36 173.47 153.33 173.30 C 154.30 173.13 154.95 172.21 154.79 171.23 L 154.61 170.21 C 154.44 169.23 153.52 168.58 152.55 168.75 C 151.57 168.91 150.92 169.84 151.09 170.81 Z M 151.28 171.87 L 151.47 172.88 C 151.66 173.85 152.59 174.48 153.55 174.29 C 154.52 174.11 155.15 173.18 154.97 172.21 L 154.77 171.20 C 154.59 170.24 153.65 169.61 152.69 169.79 C 151.73 169.98 151.09 170.91 151.28 171.87 Z M 151.49 172.91 L 151.69 173.89 C 151.90 174.84 152.84 175.45 153.79 175.25 C 154.75 175.05 155.36 174.11 155.16 173.15 L 154.95 172.18 C 154.75 171.22 153.81 170.61 152.85 170.82 C 151.90 171.02 151.29 171.96 151.49 172.91 Z M 151.71 173.92 L 151.92 174.84 C 152.14 175.78 153.09 176.37 154.03 176.16 C 154.98 175.94 155.57 174.99 155.35 174.05 L 155.14 173.12 C 154.92 172.18 153.98 171.59 153.03 171.80 C 152.08 172.02 151.49 172.97 151.71 173.92 Z M 151.95 174.87 L 152.19 175.85 C 152.43 176.78 153.38 177.35 154.32 177.11 C 155.25 176.88 155.82 175.93 155.58 174.99 L 155.33 174.01 C 155.09 173.08 154.14 172.51 153.21 172.75 C 152.27 172.99 151.71 173.94 151.95 174.87 Z M 152.22 175.89 L 152.52 176.93 C 152.78 177.84 153.73 178.38 154.65 178.12 C 155.57 177.86 156.10 176.91 155.84 175.99 L 155.55 174.95 C 155.29 174.03 154.34 173.50 153.42 173.76 C 152.50 174.02 151.97 174.97 152.22 175.89 Z M 152.56 176.97 L 152.85 177.91 C 153.14 178.81 154.09 179.31 154.99 179.02 C 155.89 178.74 156.38 177.78 156.10 176.89 L 155.80 175.94 C 155.52 175.05 154.56 174.55 153.67 174.83 C 152.77 175.12 152.27 176.07 152.56 176.97 Z M 152.89 177.95 L 153.20 178.83 C 153.51 179.71 154.46 180.17 155.34 179.86 C 156.21 179.56 156.67 178.60 156.37 177.73 L 156.06 176.85 C 155.76 175.97 154.80 175.51 153.92 175.82 C 153.05 176.12 152.59 177.08 152.89 177.95 Z M 153.24 178.87 L 153.57 179.75 C 153.89 180.60 154.85 181.03 155.71 180.71 C 156.56 180.38 156.99 179.42 156.67 178.57 L 156.33 177.69 C 156.01 176.83 155.05 176.40 154.20 176.73 C 153.34 177.06 152.91 178.01 153.24 178.87 Z M 153.59 179.78 L 153.97 180.71 C 154.31 181.55 155.27 181.96 156.12 181.61 C 156.96 181.27 157.36 180.31 157.02 179.47 L 156.64 178.54 C 156.30 177.70 155.34 177.29 154.50 177.63 C 153.66 177.97 153.25 178.93 153.59 179.78 Z M 153.98 180.73 L 154.37 181.65 C 154.73 182.49 155.69 182.88 156.53 182.52 C 157.37 182.16 157.75 181.20 157.40 180.36 L 157.01 179.45 C 156.65 178.61 155.69 178.22 154.85 178.58 C 154.02 178.93 153.63 179.90 153.98 180.73 Z M 154.38 181.66 L 154.78 182.58 C 155.14 183.41 156.11 183.78 156.94 183.42 C 157.77 183.06 158.15 182.09 157.79 181.26 L 157.39 180.35 C 157.03 179.52 156.06 179.14 155.23 179.50 C 154.40 179.87 154.02 180.83 154.38 181.66 Z M 154.78 182.58 L 154.91 182.87 C 155.28 183.70 156.25 184.08 157.07 183.71 C 157.90 183.35 158.28 182.38 157.91 181.55 L 157.78 181.26 C 157.42 180.43 156.45 180.06 155.63 180.42 C 154.80 180.78 154.42 181.75 154.78 182.58 Z"
      fill="black"
      fill-rule="nonzero" /><path d="M 151.39 153.59 L 152.36 153.29 C 153.33 152.99 153.87 151.96 153.57 150.99 C 153.27 150.02 152.24 149.48 151.27 149.78 L 150.30 150.08 C 149.33 150.38 148.79 151.41 149.09 152.38 C 149.39 153.35 150.42 153.89 151.39 153.59 Z M 152.34 153.30 L 153.31 153.01 C 154.29 152.72 154.84 151.69 154.55 150.72 C 154.26 149.74 153.23 149.18 152.25 149.47 L 151.29 149.76 C 150.31 150.05 149.75 151.08 150.04 152.06 C 150.33 153.04 151.36 153.59 152.34 153.30 Z M 153.27 153.04 L 154.23 152.77 C 155.22 152.50 155.81 151.48 155.54 150.49 C 155.27 149.50 154.25 148.92 153.26 149.19 L 152.29 149.45 C 151.30 149.72 150.72 150.74 150.99 151.73 C 151.26 152.72 152.28 153.31 153.27 153.04 Z M 154.17 152.80 L 155.13 152.57 C 156.13 152.34 156.76 151.33 156.52 150.33 C 156.29 149.33 155.28 148.70 154.28 148.94 L 153.32 149.16 C 152.31 149.40 151.69 150.40 151.93 151.41 C 152.16 152.41 153.17 153.03 154.17 152.80 Z M 155.04 152.60 L 155.97 152.43 C 156.99 152.24 157.66 151.26 157.47 150.25 C 157.28 149.23 156.31 148.56 155.29 148.75 L 154.36 148.92 C 153.35 149.10 152.68 150.08 152.86 151.10 C 153.05 152.11 154.03 152.78 155.04 152.60 Z M 155.88 152.44 L 156.80 152.31 C 157.82 152.18 158.54 151.24 158.40 150.22 C 158.26 149.20 157.33 148.48 156.30 148.61 L 155.38 148.74 C 154.36 148.87 153.64 149.81 153.78 150.83 C 153.92 151.85 154.85 152.57 155.88 152.44 Z M 156.71 152.31 L 157.68 152.23 C 158.70 152.14 159.45 151.23 159.36 150.21 C 159.27 149.19 158.37 148.44 157.35 148.53 L 156.39 148.61 C 155.36 148.70 154.61 149.61 154.70 150.63 C 154.79 151.65 155.69 152.40 156.71 152.31 Z M 157.61 152.22 L 158.64 152.17 C 159.66 152.11 160.44 151.24 160.39 150.22 C 160.33 149.20 159.46 148.42 158.44 148.48 L 157.41 148.53 C 156.39 148.59 155.61 149.46 155.67 150.48 C 155.72 151.50 156.59 152.28 157.61 152.22 Z M 158.60 152.16 L 159.72 152.12 C 160.74 152.09 161.53 151.24 161.50 150.23 C 161.47 149.21 160.62 148.41 159.60 148.45 L 158.48 148.48 C 157.47 148.52 156.67 149.36 156.70 150.38 C 156.74 151.40 157.58 152.19 158.60 152.16 Z M 159.70 152.12 L 160.64 152.10 C 161.65 152.08 162.46 151.24 162.44 150.23 C 162.42 149.22 161.58 148.42 160.57 148.44 L 159.63 148.45 C 158.62 148.47 157.81 149.31 157.83 150.32 C 157.85 151.33 158.68 152.14 159.70 152.12 Z M 160.62 152.09 L 161.62 152.09 C 162.63 152.08 163.44 151.26 163.43 150.25 C 163.42 149.24 162.60 148.43 161.59 148.43 L 160.59 148.44 C 159.59 148.45 158.77 149.27 158.78 150.28 C 158.79 151.29 159.61 152.10 160.62 152.09 Z M 161.59 152.08 L 162.62 152.09 C 163.62 152.09 164.44 151.28 164.45 150.28 C 164.46 149.27 163.65 148.45 162.64 148.45 L 161.62 148.44 C 160.61 148.43 159.79 149.24 159.78 150.25 C 159.78 151.25 160.59 152.07 161.59 152.08 Z M 162.59 152.08 L 163.62 152.10 C 164.62 152.13 165.45 151.33 165.48 150.33 C 165.50 149.33 164.71 148.50 163.70 148.48 L 162.67 148.45 C 161.67 148.43 160.84 149.22 160.82 150.23 C 160.79 151.23 161.59 152.06 162.59 152.08 Z M 163.59 152.10 L 164.60 152.14 C 165.60 152.18 166.44 151.41 166.49 150.41 C 166.53 149.41 165.75 148.57 164.76 148.53 L 163.74 148.48 C 162.74 148.44 161.90 149.21 161.86 150.21 C 161.81 151.21 162.59 152.06 163.59 152.10 Z M 164.56 152.13 L 165.55 152.20 C 166.54 152.27 167.40 151.52 167.47 150.52 C 167.54 149.53 166.78 148.67 165.79 148.60 L 164.80 148.53 C 163.81 148.47 162.95 149.22 162.88 150.21 C 162.81 151.20 163.56 152.07 164.56 152.13 Z M 165.48 152.19 L 166.60 152.30 C 167.59 152.41 168.47 151.69 168.57 150.70 C 168.68 149.72 167.96 148.83 166.97 148.73 L 165.85 148.61 C 164.87 148.51 163.98 149.23 163.88 150.22 C 163.78 151.20 164.50 152.09 165.48 152.19 Z M 166.53 152.29 L 167.57 152.44 C 168.54 152.58 169.45 151.91 169.60 150.93 C 169.74 149.95 169.06 149.04 168.09 148.90 L 167.05 148.75 C 166.07 148.60 165.16 149.28 165.02 150.26 C 164.87 151.23 165.55 152.14 166.53 152.29 Z M 167.49 152.42 L 168.46 152.61 C 169.42 152.79 170.36 152.16 170.54 151.19 C 170.73 150.23 170.10 149.29 169.13 149.11 L 168.16 148.92 C 167.20 148.73 166.26 149.37 166.08 150.33 C 165.89 151.30 166.52 152.23 167.49 152.42 Z M 168.38 152.58 L 169.28 152.80 C 170.23 153.03 171.19 152.44 171.42 151.49 C 171.65 150.54 171.06 149.58 170.11 149.35 L 169.21 149.13 C 168.26 148.90 167.30 149.49 167.07 150.44 C 166.84 151.39 167.42 152.35 168.38 152.58 Z M 169.20 152.77 L 170.08 153.03 C 171.01 153.31 172.00 152.77 172.27 151.84 C 172.55 150.90 172.01 149.92 171.08 149.64 L 170.19 149.38 C 169.26 149.11 168.28 149.64 168.00 150.58 C 167.73 151.51 168.26 152.49 169.20 152.77 Z M 169.99 152.99 L 171.00 153.35 C 171.91 153.68 172.92 153.21 173.24 152.29 C 173.57 151.38 173.10 150.37 172.18 150.04 L 171.17 149.68 C 170.26 149.35 169.25 149.83 168.92 150.74 C 168.60 151.66 169.07 152.66 169.99 152.99 Z M 170.88 153.30 L 171.81 153.71 C 172.69 154.10 173.72 153.70 174.11 152.82 C 174.50 151.93 174.11 150.90 173.22 150.51 L 172.30 150.10 C 171.41 149.71 170.38 150.11 169.99 150.99 C 169.60 151.87 170.00 152.91 170.88 153.30 Z M 171.68 153.64 L 172.52 154.09 C 173.36 154.55 174.42 154.24 174.88 153.39 C 175.34 152.55 175.03 151.49 174.18 151.03 L 173.35 150.58 C 172.50 150.12 171.45 150.43 170.99 151.28 C 170.53 152.12 170.84 153.18 171.68 153.64 Z M 172.38 154.00 L 173.17 154.53 C 173.96 155.06 175.03 154.85 175.57 154.06 C 176.11 153.27 175.90 152.19 175.11 151.66 L 174.32 151.13 C 173.53 150.59 172.45 150.80 171.92 151.59 C 171.38 152.39 171.59 153.46 172.38 154.00 Z M 173.00 154.39 L 173.73 155.03 C 174.45 155.66 175.54 155.59 176.17 154.88 C 176.79 154.16 176.72 153.08 176.01 152.45 L 175.27 151.80 C 174.56 151.17 173.47 151.24 172.84 151.95 C 172.21 152.67 172.28 153.76 173.00 154.39 Z M 173.54 154.83 L 174.16 155.59 C 174.76 156.32 175.85 156.43 176.58 155.83 C 177.31 155.23 177.42 154.15 176.82 153.41 L 176.20 152.65 C 175.60 151.92 174.52 151.81 173.78 152.41 C 173.05 153.01 172.94 154.09 173.54 154.83 Z M 174.00 155.34 L 174.51 156.23 C 174.97 157.06 176.01 157.35 176.84 156.89 C 177.66 156.42 177.95 155.38 177.49 154.56 L 176.98 153.66 C 176.52 152.84 175.48 152.55 174.65 153.01 C 173.83 153.47 173.54 154.51 174.00 155.34 Z M 174.41 156.01 L 174.76 156.92 C 175.10 157.80 176.08 158.24 176.96 157.90 C 177.84 157.56 178.28 156.57 177.94 155.69 L 177.59 154.78 C 177.25 153.90 176.26 153.47 175.38 153.80 C 174.51 154.14 174.07 155.13 174.41 156.01 Z M 174.70 156.75 L 174.96 157.73 C 175.21 158.64 176.14 159.18 177.05 158.94 C 177.96 158.70 178.50 157.76 178.26 156.86 L 177.99 155.87 C 177.75 154.96 176.82 154.42 175.91 154.66 C 175.00 154.90 174.46 155.84 174.70 156.75 Z M 174.93 157.57 L 175.10 158.58 C 175.25 159.51 176.13 160.13 177.06 159.98 C 177.98 159.82 178.61 158.95 178.46 158.02 L 178.29 157.01 C 178.13 156.09 177.26 155.46 176.33 155.62 C 175.41 155.77 174.78 156.65 174.93 157.57 Z M 175.08 158.41 L 175.15 159.40 C 175.21 160.34 176.02 161.05 176.95 160.99 C 177.89 160.93 178.60 160.12 178.54 159.18 L 178.47 158.19 C 178.41 157.25 177.60 156.54 176.67 156.60 C 175.73 156.66 175.02 157.47 175.08 158.41 Z M 175.15 159.19 L 175.08 160.18 C 175.03 161.12 175.74 161.93 176.67 161.98 C 177.61 162.04 178.42 161.33 178.48 160.39 L 178.54 159.40 C 178.60 158.46 177.88 157.65 176.95 157.60 C 176.01 157.54 175.21 158.25 175.15 159.19 Z M 175.12 159.91 L 174.91 160.85 C 174.70 161.77 175.27 162.68 176.19 162.89 C 177.10 163.10 178.01 162.52 178.22 161.61 L 178.44 160.67 C 178.64 159.75 178.07 158.84 177.16 158.63 C 176.24 158.42 175.33 159.00 175.12 159.91 Z M 175.00 160.58 L 174.61 161.51 C 174.25 162.38 174.66 163.37 175.53 163.73 C 176.40 164.09 177.39 163.68 177.75 162.81 L 178.13 161.88 C 178.49 161.02 178.08 160.02 177.21 159.66 C 176.35 159.31 175.35 159.72 175.00 160.58 Z M 174.71 161.31 L 174.25 162.10 C 173.78 162.91 174.05 163.95 174.86 164.43 C 175.67 164.90 176.71 164.62 177.18 163.81 L 177.65 163.02 C 178.12 162.21 177.84 161.17 177.03 160.70 C 176.22 160.22 175.19 160.50 174.71 161.31 Z M 174.33 161.97 L 173.78 162.74 C 173.24 163.51 173.42 164.57 174.18 165.11 C 174.95 165.66 176.01 165.48 176.55 164.71 L 177.10 163.94 C 177.64 163.18 177.46 162.12 176.70 161.58 C 175.93 161.03 174.87 161.21 174.33 161.97 Z M 173.85 162.66 L 173.21 163.44 C 172.62 164.17 172.73 165.24 173.46 165.83 C 174.18 166.42 175.25 166.31 175.85 165.59 L 176.48 164.80 C 177.08 164.07 176.97 163.00 176.24 162.41 C 175.51 161.82 174.44 161.93 173.85 162.66 Z M 173.26 163.38 L 172.55 164.18 C 171.92 164.88 171.98 165.95 172.68 166.58 C 173.38 167.20 174.46 167.14 175.08 166.44 L 175.79 165.65 C 176.42 164.95 176.36 163.87 175.66 163.25 C 174.96 162.62 173.89 162.68 173.26 163.38 Z M 172.58 164.14 L 171.87 164.89 C 171.22 165.57 171.24 166.65 171.92 167.30 C 172.60 167.94 173.68 167.92 174.33 167.24 L 175.04 166.49 C 175.69 165.81 175.67 164.73 174.99 164.08 C 174.31 163.43 173.23 163.46 172.58 164.14 Z M 171.89 164.86 L 171.21 165.54 C 170.54 166.21 170.54 167.29 171.21 167.95 C 171.87 168.62 172.95 168.62 173.62 167.95 L 174.30 167.27 C 174.97 166.61 174.97 165.53 174.30 164.86 C 173.64 164.19 172.56 164.19 171.89 164.86 Z M 171.23 165.51 L 170.52 166.20 C 169.83 166.85 169.81 167.93 170.47 168.61 C 171.12 169.30 172.20 169.32 172.88 168.66 L 173.59 167.98 C 174.28 167.33 174.30 166.25 173.64 165.56 C 172.99 164.88 171.91 164.86 171.23 165.51 Z M 170.54 166.17 L 169.79 166.86 C 169.10 167.50 169.06 168.58 169.70 169.28 C 170.34 169.97 171.42 170.02 172.12 169.37 L 172.86 168.69 C 173.55 168.05 173.60 166.96 172.96 166.27 C 172.31 165.58 171.23 165.53 170.54 166.17 Z M 169.81 166.84 L 169.05 167.52 C 168.34 168.15 168.28 169.24 168.91 169.94 C 169.54 170.65 170.63 170.71 171.33 170.08 L 172.10 169.40 C 172.81 168.77 172.87 167.68 172.24 166.97 C 171.61 166.27 170.52 166.21 169.81 166.84 Z M 169.07 167.50 L 168.30 168.16 C 167.58 168.78 167.50 169.86 168.12 170.58 C 168.74 171.30 169.83 171.38 170.55 170.76 L 171.31 170.10 C 172.03 169.48 172.11 168.40 171.49 167.68 C 170.87 166.96 169.79 166.88 169.07 167.50 Z M 168.32 168.14 L 167.61 168.73 C 166.88 169.34 166.79 170.43 167.40 171.16 C 168.01 171.89 169.10 171.99 169.83 171.37 L 170.53 170.78 C 171.27 170.17 171.36 169.08 170.75 168.35 C 170.14 167.62 169.05 167.53 168.32 168.14 Z M 167.62 168.71 L 166.89 169.31 C 166.15 169.92 166.05 171.01 166.65 171.75 C 167.26 172.49 168.35 172.59 169.09 171.99 L 169.82 171.39 C 170.56 170.78 170.67 169.69 170.06 168.95 C 169.45 168.21 168.36 168.11 167.62 168.71 Z M 166.90 169.30 L 166.14 169.91 C 165.40 170.51 165.28 171.61 165.88 172.35 C 166.48 173.10 167.58 173.22 168.32 172.61 L 169.08 172.00 C 169.83 171.40 169.95 170.31 169.34 169.56 C 168.74 168.81 167.65 168.70 166.90 169.30 Z M 166.15 169.90 L 165.35 170.53 C 164.60 171.13 164.47 172.23 165.07 172.98 C 165.67 173.74 166.77 173.86 167.52 173.26 L 168.32 172.62 C 169.07 172.02 169.20 170.93 168.60 170.18 C 168.00 169.42 166.90 169.30 166.15 169.90 Z M 165.35 170.53 L 164.51 171.19 C 163.75 171.79 163.63 172.89 164.22 173.65 C 164.82 174.41 165.92 174.53 166.68 173.93 L 167.52 173.27 C 168.28 172.67 168.41 171.57 167.81 170.81 C 167.21 170.05 166.11 169.93 165.35 170.53 Z M 164.51 171.19 L 163.66 171.86 C 162.90 172.46 162.77 173.56 163.37 174.32 C 163.97 175.09 165.07 175.21 165.83 174.61 L 166.68 173.94 C 167.44 173.34 167.57 172.24 166.97 171.48 C 166.37 170.71 165.27 170.59 164.51 171.19 Z M 163.65 171.85 L 162.86 172.48 C 162.09 173.08 161.96 174.19 162.57 174.96 C 163.17 175.72 164.28 175.85 165.05 175.25 L 165.84 174.62 C 166.60 174.02 166.73 172.91 166.13 172.14 C 165.52 171.38 164.41 171.25 163.65 171.85 Z M 162.85 172.47 L 162.04 173.11 C 161.27 173.72 161.14 174.84 161.75 175.61 C 162.36 176.37 163.47 176.50 164.24 175.90 L 165.05 175.25 C 165.82 174.65 165.95 173.53 165.34 172.76 C 164.74 171.99 163.62 171.86 162.85 172.47 Z M 162.03 173.11 L 161.21 173.75 C 160.44 174.37 160.31 175.49 160.92 176.26 C 161.53 177.03 162.65 177.16 163.43 176.55 L 164.25 175.90 C 165.02 175.29 165.15 174.17 164.54 173.40 C 163.93 172.63 162.80 172.49 162.03 173.11 Z M 161.21 173.75 L 160.40 174.39 C 159.62 175.00 159.49 176.13 160.10 176.91 C 160.72 177.69 161.85 177.82 162.62 177.20 L 163.43 176.56 C 164.21 175.95 164.34 174.82 163.73 174.04 C 163.11 173.26 161.98 173.13 161.21 173.75 Z M 160.39 174.38 L 159.60 175.00 C 158.82 175.62 158.69 176.76 159.31 177.54 C 159.93 178.32 161.06 178.45 161.84 177.83 L 162.63 177.21 C 163.41 176.59 163.54 175.46 162.92 174.67 C 162.31 173.89 161.17 173.76 160.39 174.38 Z M 159.60 174.99 L 158.85 175.59 C 158.06 176.21 157.93 177.35 158.55 178.14 C 159.17 178.92 160.32 179.06 161.10 178.43 L 161.85 177.84 C 162.64 177.22 162.77 176.08 162.15 175.29 C 161.52 174.50 160.38 174.37 159.60 174.99 Z M 158.84 175.58 L 158.07 176.19 C 157.28 176.82 157.14 177.97 157.77 178.76 C 158.40 179.55 159.54 179.68 160.33 179.05 L 161.11 178.44 C 161.90 177.82 162.03 176.67 161.41 175.88 C 160.78 175.09 159.63 174.95 158.84 175.58 Z M 158.06 176.19 L 157.17 176.89 C 156.38 177.52 156.24 178.68 156.87 179.47 C 157.50 180.26 158.66 180.40 159.45 179.77 L 160.34 179.06 C 161.13 178.43 161.27 177.28 160.64 176.48 C 160.01 175.69 158.86 175.56 158.06 176.19 Z M 157.16 176.89 L 156.37 177.52 C 155.57 178.16 155.44 179.31 156.07 180.11 C 156.71 180.91 157.86 181.04 158.66 180.41 L 159.46 179.77 C 160.25 179.14 160.39 177.98 159.75 177.18 C 159.12 176.39 157.96 176.25 157.16 176.89 Z M 156.36 177.52 L 155.62 178.11 C 154.83 178.75 154.70 179.91 155.34 180.71 C 155.98 181.51 157.14 181.63 157.94 180.99 L 158.67 180.41 C 159.47 179.77 159.60 178.60 158.96 177.81 C 158.32 177.01 157.15 176.88 156.36 177.52 Z M 155.61 178.11 L 154.91 178.67 C 154.11 179.32 153.99 180.49 154.64 181.29 C 155.29 182.09 156.46 182.21 157.25 181.56 L 157.95 180.99 C 158.75 180.35 158.87 179.18 158.23 178.38 C 157.58 177.58 156.41 177.46 155.61 178.11 Z M 154.89 178.67 L 154.03 179.39 C 153.23 180.05 153.11 181.23 153.77 182.02 C 154.43 182.82 155.61 182.93 156.41 182.28 L 157.27 181.56 C 158.07 180.90 158.18 179.72 157.53 178.93 C 156.87 178.13 155.69 178.02 154.89 178.67 Z M 153.97 179.40 L 153.00 180.25 C 152.21 180.94 152.12 182.14 152.81 182.93 C 153.50 183.72 154.70 183.80 155.49 183.11 L 156.46 182.26 C 157.25 181.57 157.33 180.37 156.65 179.59 C 155.96 178.80 154.76 178.71 153.97 179.40 Z M 152.82 180.39 L 152.27 180.99 C 151.56 181.77 151.62 182.99 152.40 183.71 C 153.19 184.42 154.41 184.36 155.12 183.58 L 155.67 182.98 C 156.38 182.19 156.32 180.97 155.54 180.26 C 154.75 179.54 153.53 179.60 152.82 180.39 Z M 152.32 183.66 L 152.47 183.81 C 153.23 184.57 154.46 184.57 155.23 183.81 C 155.99 183.05 155.99 181.81 155.23 181.05 L 155.08 180.90 C 154.32 180.14 153.08 180.14 152.32 180.90 C 151.56 181.66 151.56 182.90 152.32 183.66 Z M 154.42 184.31 L 155.01 184.13 C 156.05 183.81 156.63 182.71 156.31 181.67 C 155.99 180.63 154.89 180.05 153.86 180.37 L 153.27 180.55 C 152.23 180.87 151.65 181.97 151.97 183.01 C 152.28 184.04 153.38 184.63 154.42 184.31 Z M 155.19 184.07 L 156.09 183.70 C 157.09 183.29 157.57 182.13 157.16 181.12 C 156.74 180.12 155.59 179.64 154.58 180.05 L 153.68 180.42 C 152.67 180.84 152.19 181.99 152.61 183.00 C 153.02 184.01 154.18 184.49 155.19 184.07 Z M 156.14 183.68 L 157.25 183.19 C 158.25 182.74 158.70 181.57 158.25 180.57 C 157.80 179.57 156.63 179.13 155.64 179.57 L 154.53 180.07 C 153.53 180.52 153.08 181.69 153.53 182.69 C 153.97 183.68 155.14 184.13 156.14 183.68 Z M 157.27 183.19 L 158.48 182.64 C 159.48 182.18 159.92 181.00 159.46 180.00 C 159.01 179.01 157.83 178.57 156.83 179.02 L 155.62 179.57 C 154.62 180.03 154.18 181.21 154.64 182.20 C 155.09 183.20 156.27 183.64 157.27 183.19 Z M 158.47 182.64 L 159.53 182.17 C 160.53 181.72 160.98 180.54 160.52 179.54 C 160.07 178.53 158.90 178.09 157.89 178.54 L 156.84 179.01 C 155.84 179.46 155.39 180.64 155.84 181.64 C 156.29 182.65 157.47 183.09 158.47 182.64 Z M 159.51 182.17 L 160.50 181.74 C 161.50 181.30 161.96 180.12 161.51 179.12 C 161.07 178.11 159.90 177.66 158.89 178.10 L 157.91 178.53 C 156.90 178.98 156.45 180.15 156.89 181.16 C 157.33 182.16 158.51 182.62 159.51 182.17 Z M 160.48 181.74 L 161.43 181.33 C 162.44 180.90 162.90 179.73 162.47 178.72 C 162.03 177.71 160.86 177.25 159.86 177.69 L 158.91 178.10 C 157.90 178.53 157.44 179.70 157.87 180.71 C 158.31 181.72 159.48 182.18 160.48 181.74 Z M 161.42 181.34 L 162.32 180.95 C 163.33 180.52 163.80 179.36 163.38 178.35 C 162.95 177.34 161.78 176.87 160.77 177.30 L 159.87 177.68 C 158.86 178.11 158.39 179.28 158.82 180.28 C 159.24 181.29 160.41 181.76 161.42 181.34 Z M 162.31 180.96 L 163.16 180.60 C 164.17 180.18 164.65 179.02 164.23 178.01 C 163.81 177.00 162.65 176.52 161.64 176.94 L 160.79 177.29 C 159.78 177.72 159.30 178.88 159.72 179.89 C 160.14 180.90 161.30 181.38 162.31 180.96 Z M 163.15 180.60 L 164.03 180.24 C 165.04 179.83 165.53 178.68 165.12 177.66 C 164.70 176.65 163.55 176.16 162.54 176.58 L 161.65 176.94 C 160.64 177.35 160.15 178.51 160.57 179.52 C 160.98 180.53 162.13 181.02 163.15 180.60 Z M 164.01 180.24 L 165.02 179.85 C 166.03 179.44 166.52 178.30 166.12 177.28 C 165.72 176.27 164.57 175.78 163.56 176.18 L 162.55 176.58 C 161.54 176.98 161.05 178.13 161.45 179.14 C 161.85 180.15 163.00 180.65 164.01 180.24 Z M 165.00 179.84 L 165.91 179.49 C 166.92 179.10 167.43 177.96 167.03 176.95 C 166.64 175.94 165.51 175.44 164.49 175.83 L 163.58 176.18 C 162.57 176.57 162.07 177.71 162.46 178.72 C 162.85 179.73 163.99 180.23 165.00 179.84 Z M 165.90 179.48 L 166.77 179.15 C 167.78 178.77 168.28 177.64 167.90 176.63 C 167.51 175.62 166.38 175.12 165.38 175.50 L 164.51 175.83 C 163.50 176.22 162.99 177.34 163.38 178.35 C 163.76 179.36 164.89 179.87 165.90 179.48 Z M 166.76 179.14 L 167.64 178.81 C 168.64 178.43 169.15 177.31 168.76 176.30 C 168.38 175.30 167.26 174.80 166.26 175.18 L 165.38 175.51 C 164.38 175.89 163.87 177.01 164.25 178.02 C 164.64 179.02 165.76 179.53 166.76 179.14 Z M 167.64 178.80 L 168.54 178.46 C 169.54 178.07 170.04 176.96 169.66 175.96 C 169.28 174.96 168.16 174.46 167.17 174.84 L 166.26 175.19 C 165.26 175.57 164.76 176.68 165.14 177.68 C 165.52 178.68 166.64 179.18 167.64 178.80 Z M 168.54 178.45 L 169.48 178.09 C 170.47 177.71 170.97 176.60 170.59 175.61 C 170.21 174.61 169.10 174.11 168.10 174.49 L 167.17 174.85 C 166.17 175.23 165.68 176.34 166.05 177.33 C 166.43 178.33 167.55 178.83 168.54 178.45 Z M 169.47 178.09 L 170.43 177.72 C 171.43 177.35 171.92 176.24 171.55 175.25 C 171.18 174.26 170.07 173.76 169.08 174.13 L 168.11 174.50 C 167.12 174.87 166.62 175.98 167.00 176.97 C 167.37 177.96 168.48 178.46 169.47 178.09 Z M 170.42 177.71 L 171.36 177.36 C 172.35 176.99 172.85 175.89 172.48 174.91 C 172.11 173.92 171.01 173.42 170.03 173.79 L 169.09 174.14 C 168.10 174.51 167.60 175.61 167.97 176.59 C 168.34 177.58 169.44 178.08 170.42 177.71 Z M 171.35 177.35 L 172.29 177.00 C 173.27 176.64 173.77 175.55 173.41 174.57 C 173.05 173.59 171.96 173.09 170.98 173.45 L 170.04 173.80 C 169.06 174.16 168.56 175.25 168.92 176.23 C 169.29 177.21 170.37 177.71 171.35 177.35 Z M 172.28 176.99 L 173.23 176.64 C 174.20 176.28 174.70 175.20 174.34 174.23 C 173.98 173.25 172.90 172.76 171.93 173.12 L 170.99 173.47 C 170.01 173.82 169.52 174.90 169.87 175.88 C 170.23 176.85 171.31 177.34 172.28 176.99 Z M 173.22 176.62 L 174.17 176.28 C 175.13 175.92 175.62 174.85 175.27 173.89 C 174.91 172.92 173.85 172.43 172.88 172.78 L 171.94 173.13 C 170.97 173.49 170.48 174.56 170.84 175.52 C 171.19 176.48 172.26 176.98 173.22 176.62 Z M 174.16 176.26 L 175.11 175.91 C 176.07 175.56 176.56 174.50 176.20 173.54 C 175.85 172.59 174.79 172.10 173.83 172.45 L 172.89 172.80 C 171.93 173.15 171.44 174.21 171.79 175.17 C 172.15 176.12 173.21 176.61 174.16 176.26 Z M 175.11 175.89 L 176.05 175.55 C 177.00 175.20 177.48 174.15 177.13 173.20 C 176.78 172.25 175.73 171.77 174.78 172.12 L 173.84 172.46 C 172.89 172.81 172.41 173.87 172.76 174.81 C 173.11 175.76 174.16 176.24 175.11 175.89 Z M 176.04 175.53 L 176.97 175.19 C 177.91 174.84 178.39 173.80 178.05 172.86 C 177.70 171.92 176.66 171.44 175.72 171.79 L 174.79 172.13 C 173.85 172.48 173.37 173.52 173.72 174.46 C 174.06 175.40 175.10 175.88 176.04 175.53 Z M 176.97 175.18 L 177.89 174.84 C 178.83 174.49 179.30 173.46 178.96 172.53 C 178.62 171.60 177.59 171.12 176.66 171.46 L 175.73 171.80 C 174.80 172.14 174.32 173.17 174.66 174.11 C 175.00 175.04 176.03 175.52 176.97 175.18 Z M 177.88 174.82 L 178.82 174.48 C 179.74 174.15 180.22 173.13 179.88 172.20 C 179.55 171.28 178.53 170.80 177.60 171.14 L 176.67 171.48 C 175.75 171.81 175.27 172.83 175.60 173.76 C 175.94 174.68 176.96 175.16 177.88 174.82 Z M 178.81 174.47 L 179.75 174.13 C 180.66 173.80 181.14 172.79 180.81 171.87 C 180.48 170.96 179.47 170.48 178.55 170.81 L 177.61 171.15 C 176.70 171.48 176.22 172.49 176.55 173.41 C 176.88 174.32 177.89 174.80 178.81 174.47 Z M 179.74 174.11 L 180.68 173.78 C 181.59 173.45 182.06 172.45 181.73 171.54 C 181.41 170.64 180.41 170.17 179.50 170.49 L 178.56 170.83 C 177.65 171.15 177.18 172.15 177.51 173.06 C 177.83 173.97 178.83 174.44 179.74 174.11 Z M 180.67 173.76 L 181.62 173.42 C 182.52 173.10 182.99 172.11 182.66 171.21 C 182.34 170.32 181.35 169.85 180.46 170.17 L 179.51 170.51 C 178.61 170.83 178.14 171.82 178.47 172.72 C 178.79 173.61 179.78 174.08 180.67 173.76 Z M 181.61 173.41 L 182.57 173.07 C 183.46 172.75 183.92 171.77 183.60 170.88 C 183.28 169.99 182.30 169.53 181.41 169.84 L 180.46 170.18 C 179.57 170.50 179.11 171.48 179.43 172.37 C 179.74 173.26 180.72 173.73 181.61 173.41 Z M 182.56 173.06 L 183.51 172.72 C 184.39 172.40 184.86 171.43 184.54 170.55 C 184.22 169.66 183.25 169.20 182.37 169.52 L 181.42 169.85 C 180.54 170.17 180.07 171.14 180.39 172.03 C 180.70 172.91 181.68 173.37 182.56 173.06 Z M 183.50 172.71 L 184.45 172.37 C 185.32 172.06 185.78 171.10 185.47 170.22 C 185.16 169.34 184.19 168.88 183.32 169.19 L 182.37 169.53 C 181.50 169.84 181.04 170.80 181.35 171.68 C 181.66 172.56 182.63 173.02 183.50 172.71 Z M 184.44 172.36 L 185.37 172.03 C 186.24 171.72 186.70 170.77 186.39 169.90 C 186.08 169.02 185.12 168.57 184.25 168.87 L 183.32 169.20 C 182.45 169.51 181.99 170.47 182.30 171.34 C 182.61 172.21 183.57 172.67 184.44 172.36 Z M 185.36 172.03 L 186.33 171.69 C 187.20 171.38 187.65 170.43 187.35 169.56 C 187.04 168.70 186.09 168.24 185.23 168.54 L 184.26 168.88 C 183.39 169.19 182.93 170.14 183.24 171.01 C 183.54 171.87 184.49 172.33 185.36 172.03 Z M 186.32 171.68 L 187.27 171.35 C 188.14 171.05 188.60 170.10 188.30 169.24 C 188.00 168.37 187.05 167.92 186.19 168.22 L 185.23 168.55 C 184.37 168.85 183.91 169.79 184.21 170.66 C 184.51 171.52 185.46 171.98 186.32 171.68 Z M 187.27 171.34 L 188.20 171.02 C 189.06 170.73 189.52 169.79 189.23 168.92 C 188.93 168.06 187.99 167.60 187.13 167.90 L 186.19 168.22 C 185.33 168.52 184.87 169.46 185.17 170.32 C 185.47 171.18 186.41 171.64 187.27 171.34 Z M 188.19 171.02 L 189.12 170.70 C 189.98 170.41 190.44 169.48 190.15 168.61 C 189.86 167.75 188.92 167.30 188.06 167.59 L 187.13 167.90 C 186.27 168.20 185.81 169.13 186.11 169.99 C 186.40 170.85 187.33 171.31 188.19 171.02 Z M 189.11 170.70 L 190.07 170.38 C 190.92 170.09 191.39 169.16 191.10 168.30 C 190.81 167.44 189.88 166.98 189.02 167.27 L 188.07 167.59 C 187.21 167.88 186.75 168.81 187.04 169.67 C 187.32 170.53 188.25 170.99 189.11 170.70 Z M 190.05 170.39 L 191.00 170.08 C 191.86 169.80 192.33 168.87 192.05 168.01 C 191.77 167.15 190.84 166.68 189.98 166.96 L 189.03 167.27 C 188.17 167.55 187.70 168.47 187.98 169.33 C 188.26 170.20 189.19 170.67 190.05 170.39 Z M 190.98 170.08 L 191.93 169.79 C 192.79 169.52 193.27 168.60 193.00 167.73 C 192.74 166.87 191.82 166.39 190.95 166.66 L 190.00 166.95 C 189.14 167.22 188.65 168.14 188.92 169.01 C 189.19 169.87 190.11 170.35 190.98 170.08 Z M 191.90 169.79 L 192.85 169.51 C 193.72 169.26 194.22 168.35 193.96 167.48 C 193.70 166.61 192.79 166.12 191.93 166.37 L 190.98 166.65 C 190.11 166.91 189.61 167.82 189.87 168.68 C 190.13 169.55 191.04 170.05 191.90 169.79 Z M 192.83 169.52 L 193.79 169.25 C 194.66 169.00 195.17 168.10 194.93 167.23 C 194.68 166.36 193.78 165.85 192.91 166.10 L 191.95 166.37 C 191.08 166.61 190.57 167.51 190.81 168.39 C 191.06 169.26 191.96 169.76 192.83 169.52 Z M 193.78 169.25 L 194.75 168.99 C 195.62 168.75 196.14 167.85 195.90 166.98 C 195.66 166.10 194.76 165.59 193.89 165.83 L 192.92 166.09 C 192.05 166.33 191.53 167.23 191.77 168.10 C 192.01 168.98 192.91 169.49 193.78 169.25 Z M 194.75 168.99 L 195.43 168.80 C 196.31 168.57 196.82 167.67 196.59 166.80 C 196.35 165.92 195.45 165.41 194.58 165.64 L 193.90 165.83 C 193.02 166.06 192.51 166.96 192.74 167.83 C 192.98 168.71 193.87 169.22 194.75 168.99 Z"
      fill="black"
      fill-rule="nonzero" /></svg>