<svg xmlns="http://www.w3.org/2000/svg" width="300" height="300" viewBox="0 0 300 300">
<path d="M 122.08 111.57 L 123.02 111.84 C 124.01 112.13 125.04 111.55 125.33 110.56 C 125.61 109.57 125.04 108.54 124.05 108.25 L 123.11 107.98 C 122.12 107.70 121.09 108.27 120.80 109.27 C 120.52 110.26 121.09 111.29 122.08 111.57 Z M 123.06 111.88 L 124.02 112.12 C 125.03 112.38 126.06 111.77 126.32 110.76 C 126.58 109.75 125.97 108.72 124.96 108.46 L 124.00 108.22 C 122.99 107.96 121.96 108.57 121.70 109.58 C 121.44 110.59 122.05 111.62 123.06 111.88 Z M 124.12 112.17 L 125.11 112.37 C 126.15 112.58 127.16 111.90 127.36 110.86 C 127.57 109.83 126.90 108.82 125.86 108.61 L 124.86 108.42 C 123.83 108.21 122.82 108.88 122.61 109.92 C 122.41 110.96 123.08 111.96 124.12 112.17 Z M 125.25 112.41 L 126.22 112.53 C 127.27 112.66 128.24 111.91 128.37 110.85 C 128.51 109.80 127.76 108.83 126.70 108.70 L 125.73 108.57 C 124.67 108.44 123.70 109.19 123.57 110.25 C 123.44 111.31 124.19 112.27 125.25 112.41 Z M 126.33 112.55 L 127.29 112.61 C 128.36 112.68 129.28 111.87 129.35 110.80 C 129.42 109.73 128.61 108.81 127.54 108.74 L 126.58 108.68 C 125.51 108.61 124.59 109.42 124.52 110.49 C 124.46 111.55 125.26 112.48 126.33 112.55 Z M 127.37 112.61 L 128.37 112.64 C 129.44 112.67 130.33 111.82 130.36 110.75 C 130.39 109.68 129.54 108.79 128.48 108.77 L 127.47 108.74 C 126.40 108.71 125.51 109.56 125.48 110.62 C 125.45 111.69 126.30 112.58 127.37 112.61 Z M 128.41 112.64 L 129.46 112.64 C 130.53 112.65 131.40 111.79 131.41 110.72 C 131.41 109.65 130.55 108.78 129.48 108.77 L 128.44 108.77 C 127.37 108.76 126.49 109.62 126.49 110.69 C 126.48 111.76 127.34 112.63 128.41 112.64 Z M 129.47 112.64 L 130.47 112.64 C 131.53 112.64 132.40 111.78 132.40 110.71 C 132.40 109.64 131.53 108.77 130.47 108.77 L 129.47 108.77 C 128.40 108.77 127.54 109.64 127.54 110.71 C 127.54 111.78 128.40 112.64 129.47 112.64 Z M 130.47 112.64 L 131.44 112.64 C 132.51 112.64 133.37 111.77 133.37 110.70 C 133.37 109.64 132.51 108.77 131.44 108.77 L 130.46 108.78 C 129.40 108.78 128.53 109.64 128.53 110.71 C 128.53 111.78 129.40 112.64 130.47 112.64 Z M 131.45 112.64 L 132.45 112.63 C 133.51 112.63 134.37 111.76 134.37 110.70 C 134.37 109.63 133.50 108.77 132.43 108.77 L 131.43 108.78 C 130.37 108.78 129.51 109.65 129.51 110.71 C 129.52 111.78 130.38 112.64 131.45 112.64 Z M 132.45 112.63 L 133.48 112.62 C 134.54 112.61 135.40 111.75 135.39 110.68 C 135.38 109.62 134.51 108.76 133.45 108.77 L 132.43 108.78 C 131.36 108.78 130.51 109.65 130.51 110.72 C 130.52 111.78 131.39 112.64 132.45 112.63 Z M 133.48 112.62 L 134.51 112.61 C 135.57 112.59 136.43 111.72 136.41 110.66 C 136.40 109.60 135.53 108.75 134.47 108.76 L 133.44 108.77 C 132.38 108.79 131.53 109.66 131.54 110.72 C 131.55 111.78 132.42 112.63 133.48 112.62 Z M 134.53 112.60 L 135.50 112.59 C 136.56 112.57 137.40 111.69 137.38 110.63 C 137.36 109.57 136.49 108.73 135.43 108.75 L 134.45 108.76 C 133.39 108.78 132.55 109.66 132.57 110.72 C 132.59 111.78 133.47 112.62 134.53 112.60 Z M 135.52 112.58 L 136.51 112.55 C 137.56 112.52 138.40 111.64 138.37 110.58 C 138.34 109.53 137.46 108.69 136.40 108.72 L 135.41 108.75 C 134.35 108.78 133.52 109.66 133.55 110.72 C 133.58 111.78 134.46 112.61 135.52 112.58 Z M 136.53 112.55 L 137.53 112.51 C 138.59 112.47 139.41 111.58 139.37 110.52 C 139.32 109.46 138.43 108.64 137.38 108.68 L 136.37 108.73 C 135.32 108.77 134.50 109.66 134.54 110.72 C 134.58 111.77 135.47 112.59 136.53 112.55 Z M 137.56 112.51 L 138.58 112.45 C 139.63 112.39 140.44 111.49 140.38 110.43 C 140.32 109.38 139.42 108.57 138.36 108.63 L 137.35 108.69 C 136.29 108.75 135.49 109.65 135.55 110.70 C 135.61 111.76 136.51 112.56 137.56 112.51 Z M 138.61 112.44 L 139.63 112.37 C 140.68 112.29 141.47 111.37 141.39 110.32 C 141.31 109.27 140.40 108.48 139.35 108.56 L 138.33 108.64 C 137.28 108.72 136.49 109.63 136.57 110.68 C 136.65 111.73 137.56 112.52 138.61 112.44 Z M 139.66 112.36 L 140.65 112.27 C 141.70 112.17 142.47 111.24 142.38 110.20 C 142.28 109.15 141.35 108.38 140.30 108.47 L 139.31 108.57 C 138.26 108.66 137.49 109.59 137.59 110.64 C 137.69 111.69 138.62 112.46 139.66 112.36 Z M 140.68 112.27 L 141.68 112.16 C 142.73 112.04 143.48 111.10 143.37 110.06 C 143.25 109.01 142.31 108.26 141.27 108.37 L 140.27 108.48 C 139.22 108.59 138.47 109.53 138.58 110.58 C 138.70 111.63 139.64 112.38 140.68 112.27 Z M 141.71 112.15 L 142.70 112.03 C 143.75 111.90 144.49 110.95 144.36 109.91 C 144.23 108.87 143.28 108.12 142.24 108.25 L 141.24 108.37 C 140.20 108.50 139.46 109.45 139.58 110.50 C 139.71 111.54 140.66 112.28 141.71 112.15 Z M 142.72 112.03 L 143.72 111.89 C 144.76 111.76 145.49 110.80 145.35 109.76 C 145.21 108.71 144.25 107.98 143.21 108.12 L 142.22 108.26 C 141.18 108.39 140.44 109.35 140.58 110.39 C 140.72 111.44 141.68 112.17 142.72 112.03 Z M 143.73 111.89 L 144.73 111.75 C 145.77 111.60 146.49 110.64 146.35 109.60 C 146.20 108.56 145.24 107.84 144.20 107.98 L 143.20 108.13 C 142.16 108.27 141.43 109.24 141.58 110.28 C 141.73 111.32 142.69 112.04 143.73 111.89 Z M 144.74 111.75 L 145.79 111.59 C 146.83 111.44 147.55 110.47 147.39 109.43 C 147.24 108.39 146.27 107.68 145.23 107.83 L 144.18 107.99 C 143.14 108.14 142.43 109.11 142.58 110.15 C 142.74 111.19 143.70 111.90 144.74 111.75 Z M 145.80 111.59 L 146.82 111.43 C 147.86 111.27 148.57 110.30 148.41 109.26 C 148.25 108.23 147.28 107.51 146.24 107.67 L 145.22 107.83 C 144.18 107.99 143.47 108.96 143.63 110.00 C 143.79 111.04 144.76 111.75 145.80 111.59 Z M 146.83 111.43 L 147.82 111.27 C 148.85 111.11 149.56 110.14 149.40 109.10 C 149.23 108.06 148.26 107.36 147.23 107.52 L 146.24 107.68 C 145.20 107.84 144.49 108.81 144.66 109.85 C 144.82 110.89 145.79 111.59 146.83 111.43 Z M 147.82 111.27 L 148.76 111.12 C 149.80 110.96 150.50 109.98 150.34 108.95 C 150.17 107.91 149.20 107.21 148.16 107.37 L 147.22 107.52 C 146.19 107.69 145.48 108.66 145.65 109.70 C 145.81 110.73 146.78 111.44 147.82 111.27 Z M 148.76 111.12 L 149.73 110.97 C 150.76 110.80 151.47 109.83 151.31 108.80 C 151.14 107.76 150.17 107.05 149.13 107.22 L 148.16 107.37 C 147.13 107.54 146.42 108.51 146.59 109.54 C 146.75 110.58 147.72 111.29 148.76 111.12 Z M 149.71 110.97 L 150.74 110.82 C 151.78 110.66 152.49 109.69 152.34 108.66 C 152.18 107.62 151.21 106.91 150.18 107.06 L 149.15 107.22 C 148.11 107.37 147.40 108.34 147.55 109.38 C 147.71 110.41 148.68 111.13 149.71 110.97 Z M 150.70 110.82 L 151.67 110.70 C 152.71 110.57 153.45 109.62 153.32 108.58 C 153.19 107.54 152.24 106.80 151.20 106.93 L 150.22 107.06 C 149.18 107.19 148.44 108.14 148.57 109.18 C 148.71 110.22 149.66 110.95 150.70 110.82 Z M 151.59 110.71 L 152.55 110.63 C 153.59 110.54 154.37 109.62 154.28 108.58 C 154.19 107.53 153.27 106.76 152.23 106.84 L 151.27 106.92 C 150.23 107.01 149.45 107.93 149.54 108.98 C 149.63 110.02 150.55 110.80 151.59 110.71 Z M 152.43 110.64 L 153.55 110.61 C 154.60 110.59 155.43 109.72 155.41 108.67 C 155.39 107.62 154.52 106.79 153.47 106.81 L 152.34 106.84 C 151.29 106.86 150.46 107.73 150.49 108.78 C 150.51 109.83 151.38 110.66 152.43 110.64 Z M 153.32 110.61 L 154.44 110.72 C 155.49 110.82 156.42 110.05 156.52 109.01 C 156.63 107.96 155.86 107.02 154.81 106.92 L 153.70 106.81 C 152.65 106.71 151.71 107.48 151.61 108.52 C 151.51 109.57 152.28 110.51 153.32 110.61 Z M 153.84 110.57 L 154.58 110.90 C 155.54 111.33 156.68 110.90 157.11 109.94 C 157.54 108.97 157.11 107.84 156.15 107.41 L 155.41 107.07 C 154.45 106.64 153.31 107.07 152.88 108.03 C 152.44 109.00 152.87 110.13 153.84 110.57 Z M 153.49 109.57 L 153.62 110.16 C 153.86 111.20 154.88 111.85 155.92 111.62 C 156.95 111.38 157.60 110.36 157.37 109.32 L 157.24 108.73 C 157.00 107.70 155.98 107.05 154.94 107.28 C 153.91 107.51 153.26 108.54 153.49 109.57 Z M 153.77 108.91 L 153.38 109.71 C 152.93 110.66 153.33 111.81 154.28 112.27 C 155.23 112.73 156.38 112.33 156.84 111.37 L 157.22 110.58 C 157.68 109.62 157.28 108.48 156.33 108.02 C 155.38 107.56 154.23 107.96 153.77 108.91 Z M 153.60 109.37 L 152.89 110.28 C 152.24 111.12 152.39 112.32 153.22 112.97 C 154.06 113.62 155.26 113.47 155.91 112.63 L 156.62 111.72 C 157.27 110.88 157.12 109.68 156.29 109.03 C 155.45 108.38 154.25 108.53 153.60 109.37 Z M 152.99 110.17 L 152.23 110.99 C 151.52 111.77 151.57 112.98 152.34 113.69 C 153.12 114.40 154.33 114.35 155.04 113.58 L 155.80 112.75 C 156.52 111.98 156.47 110.77 155.69 110.06 C 154.92 109.34 153.71 109.39 152.99 110.17 Z M 152.29 110.94 L 151.61 111.63 C 150.86 112.37 150.87 113.58 151.61 114.32 C 152.36 115.06 153.56 115.06 154.30 114.31 L 154.98 113.63 C 155.73 112.89 155.72 111.68 154.98 110.94 C 154.24 110.20 153.03 110.20 152.29 110.94 Z M 151.65 111.59 L 150.93 112.27 C 150.17 112.99 150.14 114.20 150.86 114.96 C 151.58 115.72 152.79 115.75 153.55 115.03 L 154.26 114.35 C 155.02 113.63 155.05 112.42 154.33 111.66 C 153.61 110.90 152.41 110.87 151.65 111.59 Z M 150.96 112.25 L 150.21 112.94 C 149.43 113.64 149.38 114.84 150.08 115.62 C 150.79 116.39 151.99 116.44 152.76 115.74 L 153.52 115.05 C 154.29 114.35 154.35 113.15 153.64 112.37 C 152.93 111.60 151.73 111.54 150.96 112.25 Z M 150.23 112.92 L 149.46 113.61 C 148.68 114.30 148.61 115.50 149.30 116.28 C 150.00 117.06 151.19 117.13 151.97 116.44 L 152.74 115.75 C 153.52 115.06 153.59 113.86 152.90 113.08 C 152.20 112.30 151.01 112.23 150.23 112.92 Z M 149.47 113.60 L 148.77 114.21 C 147.99 114.90 147.91 116.10 148.60 116.88 C 149.29 117.66 150.48 117.74 151.27 117.05 L 151.96 116.44 C 152.75 115.75 152.82 114.56 152.14 113.77 C 151.45 112.99 150.25 112.91 149.47 113.60 Z M 148.78 114.21 L 148.05 114.85 C 147.27 115.53 147.19 116.72 147.87 117.51 C 148.56 118.29 149.75 118.37 150.53 117.69 L 151.26 117.05 C 152.05 116.37 152.13 115.18 151.44 114.39 C 150.76 113.61 149.56 113.53 148.78 114.21 Z M 148.06 114.85 L 147.30 115.51 C 146.51 116.19 146.43 117.38 147.12 118.16 C 147.80 118.95 148.99 119.03 149.77 118.35 L 150.53 117.69 C 151.32 117.01 151.40 115.82 150.71 115.03 C 150.03 114.25 148.84 114.16 148.06 114.85 Z M 147.30 115.51 L 146.51 116.20 C 145.73 116.88 145.65 118.07 146.33 118.85 C 147.01 119.63 148.20 119.71 148.98 119.03 L 149.77 118.35 C 150.56 117.66 150.64 116.48 149.95 115.69 C 149.27 114.91 148.08 114.83 147.30 115.51 Z M 146.51 116.20 L 145.71 116.90 C 144.93 117.58 144.85 118.77 145.53 119.55 C 146.21 120.33 147.40 120.41 148.18 119.73 L 148.98 119.03 C 149.77 118.35 149.85 117.16 149.16 116.38 C 148.48 115.60 147.29 115.52 146.51 116.20 Z M 145.71 116.91 L 145.04 117.49 C 144.26 118.17 144.18 119.36 144.87 120.14 C 145.55 120.92 146.73 120.99 147.51 120.31 L 148.18 119.73 C 148.96 119.04 149.04 117.86 148.35 117.08 C 147.67 116.30 146.49 116.22 145.71 116.91 Z M 145.04 117.49 L 144.35 118.10 C 143.57 118.78 143.49 119.96 144.17 120.74 C 144.85 121.52 146.04 121.60 146.81 120.92 L 147.51 120.31 C 148.29 119.63 148.36 118.45 147.68 117.67 C 147.00 116.89 145.82 116.81 145.04 117.49 Z M 144.36 118.10 L 143.63 118.73 C 142.85 119.41 142.77 120.59 143.44 121.37 C 144.12 122.15 145.30 122.23 146.08 121.55 L 146.81 120.92 C 147.59 120.24 147.67 119.06 146.99 118.28 C 146.31 117.51 145.13 117.42 144.36 118.10 Z M 143.64 118.73 L 142.88 119.38 C 142.10 120.05 142.01 121.23 142.68 122.01 C 143.35 122.79 144.53 122.88 145.31 122.21 L 146.07 121.56 C 146.85 120.88 146.94 119.71 146.27 118.93 C 145.60 118.14 144.42 118.06 143.64 118.73 Z M 142.89 119.38 L 142.08 120.06 C 141.30 120.72 141.20 121.90 141.86 122.68 C 142.53 123.47 143.70 123.57 144.49 122.90 L 145.29 122.22 C 146.08 121.55 146.18 120.38 145.51 119.59 C 144.85 118.81 143.67 118.71 142.89 119.38 Z M 142.10 120.05 L 141.24 120.76 C 140.45 121.42 140.34 122.59 141.00 123.38 C 141.66 124.17 142.83 124.28 143.62 123.62 L 144.47 122.91 C 145.26 122.25 145.37 121.08 144.71 120.29 C 144.06 119.50 142.89 119.40 142.10 120.05 Z M 141.26 120.76 L 140.45 121.41 C 139.66 122.06 139.54 123.23 140.19 124.02 C 140.84 124.82 142.01 124.93 142.80 124.29 L 143.60 123.63 C 144.40 122.98 144.51 121.81 143.87 121.02 C 143.22 120.22 142.05 120.11 141.26 120.76 Z M 140.46 121.40 L 139.69 122.03 C 138.89 122.67 138.77 123.84 139.41 124.63 C 140.05 125.43 141.22 125.56 142.01 124.92 L 142.79 124.29 C 143.59 123.65 143.71 122.48 143.07 121.69 C 142.43 120.89 141.26 120.76 140.46 121.40 Z M 139.70 122.02 L 138.90 122.65 C 138.10 123.29 137.97 124.45 138.60 125.25 C 139.24 126.06 140.40 126.19 141.21 125.55 L 142.00 124.92 C 142.80 124.29 142.94 123.12 142.30 122.32 C 141.67 121.52 140.50 121.39 139.70 122.02 Z M 138.92 122.65 L 138.10 123.28 C 137.30 123.91 137.16 125.07 137.79 125.88 C 138.42 126.68 139.58 126.82 140.38 126.19 L 141.20 125.56 C 142.00 124.93 142.14 123.77 141.51 122.96 C 140.88 122.16 139.72 122.02 138.92 122.65 Z M 138.12 123.28 L 137.30 123.90 C 136.49 124.53 136.34 125.69 136.97 126.50 C 137.59 127.30 138.75 127.45 139.56 126.83 L 140.37 126.20 C 141.18 125.58 141.33 124.42 140.71 123.61 C 140.08 122.80 138.92 122.65 138.12 123.28 Z M 137.31 123.90 L 136.50 124.52 C 135.69 125.13 135.53 126.29 136.15 127.10 C 136.77 127.91 137.93 128.07 138.74 127.45 L 139.55 126.84 C 140.36 126.22 140.52 125.06 139.90 124.25 C 139.28 123.44 138.12 123.28 137.31 123.90 Z M 136.51 124.51 L 135.72 125.11 C 134.90 125.72 134.74 126.88 135.35 127.69 C 135.96 128.50 137.12 128.67 137.93 128.06 L 138.73 127.46 C 139.54 126.85 139.71 125.69 139.10 124.88 C 138.48 124.06 137.33 123.90 136.51 124.51 Z M 135.73 125.10 L 134.96 125.67 C 134.14 126.28 133.97 127.43 134.57 128.25 C 135.18 129.07 136.33 129.24 137.15 128.63 L 137.92 128.06 C 138.74 127.46 138.91 126.30 138.31 125.49 C 137.70 124.67 136.55 124.50 135.73 125.10 Z M 134.97 125.66 L 134.09 126.30 C 133.27 126.90 133.09 128.05 133.68 128.88 C 134.28 129.70 135.43 129.88 136.26 129.28 L 137.14 128.64 C 137.96 128.04 138.14 126.89 137.54 126.07 C 136.95 125.25 135.79 125.06 134.97 125.66 Z M 134.11 126.29 L 133.22 126.93 C 132.39 127.51 132.19 128.66 132.78 129.49 C 133.37 130.32 134.52 130.52 135.35 129.93 L 136.24 129.29 C 137.07 128.70 137.26 127.55 136.67 126.73 C 136.08 125.90 134.93 125.70 134.11 126.29 Z M 133.23 126.92 L 132.39 127.50 C 131.55 128.08 131.35 129.23 131.93 130.07 C 132.51 130.90 133.66 131.11 134.49 130.52 L 135.34 129.94 C 136.17 129.35 136.38 128.21 135.79 127.37 C 135.21 126.54 134.07 126.33 133.23 126.92 Z M 132.40 127.49 L 131.59 128.05 C 130.75 128.62 130.54 129.77 131.11 130.61 C 131.69 131.44 132.83 131.66 133.67 131.08 L 134.48 130.53 C 135.32 129.96 135.53 128.81 134.96 127.97 C 134.38 127.13 133.24 126.92 132.40 127.49 Z M 131.60 128.04 L 130.83 128.56 C 129.98 129.13 129.76 130.28 130.33 131.12 C 130.90 131.96 132.04 132.18 132.89 131.62 L 133.66 131.09 C 134.51 130.52 134.73 129.38 134.16 128.54 C 133.59 127.69 132.45 127.47 131.60 128.04 Z M 130.83 128.56 L 130.08 129.06 C 129.23 129.63 129.01 130.77 129.57 131.62 C 130.14 132.46 131.28 132.69 132.13 132.12 L 132.88 131.62 C 133.73 131.05 133.95 129.91 133.39 129.07 C 132.82 128.22 131.68 127.99 130.83 128.56 Z M 130.08 129.06 L 129.26 129.61 C 128.42 130.17 128.19 131.32 128.75 132.16 C 129.32 133.01 130.46 133.24 131.30 132.67 L 132.12 132.13 C 132.97 131.56 133.20 130.42 132.63 129.57 C 132.07 128.73 130.93 128.50 130.08 129.06 Z M 129.26 129.61 L 128.39 130.19 C 127.54 130.75 127.31 131.90 127.87 132.74 C 128.44 133.59 129.58 133.82 130.42 133.26 L 131.30 132.67 C 132.15 132.11 132.38 130.97 131.81 130.12 C 131.25 129.28 130.11 129.05 129.26 129.61 Z M 128.39 130.19 L 127.54 130.75 C 126.69 131.31 126.46 132.45 127.01 133.30 C 127.57 134.15 128.71 134.38 129.56 133.82 L 130.42 133.26 C 131.27 132.70 131.50 131.56 130.94 130.71 C 130.38 129.86 129.24 129.63 128.39 130.19 Z M 127.55 130.75 L 126.72 131.28 C 125.87 131.84 125.62 132.97 126.18 133.83 C 126.73 134.68 127.87 134.92 128.72 134.37 L 129.55 133.83 C 130.40 133.28 130.64 132.14 130.09 131.29 C 129.54 130.44 128.40 130.19 127.55 130.75 Z M 126.74 131.27 L 125.94 131.78 C 125.08 132.32 124.82 133.46 125.37 134.32 C 125.91 135.17 127.04 135.43 127.90 134.89 L 128.70 134.38 C 129.56 133.84 129.82 132.70 129.27 131.84 C 128.73 130.99 127.59 130.73 126.74 131.27 Z M 125.96 131.77 L 125.11 132.29 C 124.24 132.82 123.97 133.95 124.50 134.81 C 125.02 135.68 126.16 135.95 127.02 135.42 L 127.88 134.90 C 128.74 134.37 129.02 133.24 128.49 132.38 C 127.96 131.51 126.83 131.24 125.96 131.77 Z M 125.14 132.27 L 124.21 132.81 C 123.33 133.32 123.04 134.44 123.55 135.32 C 124.06 136.20 125.18 136.49 126.06 135.98 L 126.99 135.44 C 127.86 134.93 128.16 133.81 127.65 132.93 C 127.14 132.06 126.02 131.76 125.14 132.27 Z M 124.25 132.79 L 123.37 133.27 C 122.48 133.76 122.16 134.88 122.65 135.76 C 123.14 136.65 124.25 136.98 125.14 136.49 L 126.02 136.01 C 126.91 135.52 127.23 134.40 126.74 133.51 C 126.25 132.62 125.14 132.30 124.25 132.79 Z M 123.41 133.25 L 122.58 133.68 C 121.68 134.15 121.33 135.26 121.80 136.16 C 122.27 137.06 123.38 137.41 124.27 136.94 L 125.10 136.51 C 126.00 136.04 126.35 134.93 125.88 134.03 C 125.42 133.13 124.31 132.78 123.41 133.25 Z M 122.62 133.66 L 121.75 134.09 C 120.84 134.53 120.47 135.63 120.91 136.54 C 121.36 137.45 122.46 137.83 123.37 137.38 L 124.24 136.96 C 125.15 136.51 125.52 135.41 125.08 134.50 C 124.63 133.59 123.53 133.22 122.62 133.66 Z M 121.81 134.06 L 120.87 134.48 C 119.95 134.89 119.53 135.98 119.95 136.90 C 120.36 137.83 121.45 138.24 122.37 137.83 L 123.31 137.41 C 124.23 137.00 124.65 135.91 124.24 134.99 C 123.82 134.06 122.74 133.65 121.81 134.06 Z M 120.97 134.44 L 120.06 134.78 C 119.11 135.14 118.63 136.21 118.99 137.15 C 119.35 138.10 120.42 138.58 121.37 138.22 L 122.28 137.87 C 123.23 137.51 123.70 136.45 123.34 135.50 C 122.98 134.55 121.92 134.08 120.97 134.44 Z M 120.20 134.73 L 119.20 135.02 C 118.22 135.31 117.66 136.33 117.95 137.31 C 118.23 138.29 119.25 138.85 120.23 138.56 L 121.23 138.27 C 122.21 137.99 122.77 136.96 122.48 135.98 C 122.20 135.01 121.17 134.44 120.20 134.73 Z M 119.25 134.98 L 118.12 135.27 C 117.12 135.52 116.51 136.54 116.77 137.54 C 117.02 138.54 118.04 139.15 119.04 138.89 L 120.18 138.60 C 121.18 138.35 121.78 137.33 121.53 136.33 C 121.27 135.33 120.26 134.72 119.25 134.98 Z M 117.63 135.42 L 116.98 135.80 C 116.06 136.32 115.75 137.49 116.28 138.41 C 116.80 139.32 117.97 139.64 118.89 139.11 L 119.54 138.74 C 120.45 138.21 120.77 137.04 120.24 136.13 C 119.71 135.21 118.54 134.90 117.63 135.42 Z M 116.05 137.90 L 116.19 138.51 C 116.44 139.55 117.49 140.19 118.53 139.94 C 119.57 139.69 120.21 138.65 119.96 137.61 L 119.82 137.00 C 119.57 135.96 118.52 135.32 117.48 135.57 C 116.44 135.82 115.80 136.86 116.05 137.90 Z M 116.55 139.26 L 117.22 140.11 C 117.89 140.96 119.11 141.10 119.95 140.44 C 120.79 139.77 120.94 138.55 120.28 137.71 L 119.60 136.85 C 118.94 136.01 117.72 135.87 116.87 136.53 C 116.03 137.19 115.89 138.41 116.55 139.26 Z M 117.19 140.07 L 117.86 140.98 C 118.50 141.85 119.72 142.03 120.58 141.39 C 121.45 140.75 121.63 139.53 120.99 138.67 L 120.31 137.75 C 119.68 136.89 118.46 136.71 117.59 137.35 C 116.73 137.99 116.55 139.20 117.19 140.07 Z M 117.75 140.82 L 118.25 141.66 C 118.80 142.59 120.00 142.89 120.92 142.34 C 121.85 141.79 122.15 140.60 121.60 139.67 L 121.10 138.83 C 120.55 137.91 119.36 137.60 118.43 138.15 C 117.51 138.70 117.20 139.90 117.75 140.82 Z M 118.20 141.56 L 118.66 142.47 C 119.16 143.42 120.33 143.80 121.29 143.30 C 122.24 142.81 122.62 141.63 122.12 140.68 L 121.66 139.78 C 121.16 138.82 119.99 138.45 119.03 138.94 C 118.08 139.43 117.70 140.61 118.20 141.56 Z M 118.64 142.41 L 119.08 143.34 C 119.54 144.31 120.71 144.72 121.68 144.25 C 122.65 143.79 123.06 142.63 122.59 141.66 L 122.15 140.73 C 121.69 139.76 120.52 139.35 119.55 139.82 C 118.58 140.28 118.17 141.44 118.64 142.41 Z M 119.07 143.32 L 119.50 144.22 C 119.95 145.20 121.10 145.62 122.08 145.17 C 123.05 144.71 123.47 143.56 123.02 142.58 L 122.60 141.68 C 122.15 140.70 120.99 140.28 120.02 140.73 C 119.04 141.19 118.62 142.34 119.07 143.32 Z M 119.49 144.20 L 119.90 145.11 C 120.34 146.08 121.49 146.52 122.46 146.08 C 123.44 145.64 123.87 144.49 123.43 143.52 L 123.03 142.61 C 122.59 141.63 121.44 141.20 120.46 141.64 C 119.49 142.08 119.05 143.22 119.49 144.20 Z M 119.89 145.07 L 120.28 145.99 C 120.70 146.97 121.83 147.43 122.82 147.01 C 123.80 146.59 124.26 145.45 123.84 144.47 L 123.45 143.55 C 123.03 142.57 121.89 142.11 120.91 142.53 C 119.93 142.95 119.47 144.09 119.89 145.07 Z M 120.27 145.94 L 120.63 146.86 C 121.02 147.85 122.14 148.33 123.13 147.94 C 124.12 147.55 124.61 146.43 124.21 145.44 L 123.85 144.52 C 123.46 143.53 122.34 143.05 121.35 143.44 C 120.36 143.83 119.87 144.95 120.27 145.94 Z M 120.62 146.81 L 120.95 147.72 C 121.31 148.71 122.41 149.23 123.41 148.87 C 124.41 148.50 124.92 147.40 124.56 146.40 L 124.23 145.49 C 123.86 144.50 122.76 143.98 121.77 144.34 C 120.77 144.71 120.25 145.81 120.62 146.81 Z M 120.94 147.67 L 121.26 148.61 C 121.59 149.61 122.68 150.15 123.68 149.82 C 124.68 149.48 125.22 148.40 124.88 147.40 L 124.57 146.45 C 124.23 145.45 123.15 144.91 122.15 145.25 C 121.14 145.58 120.60 146.67 120.94 147.67 Z M 121.25 148.57 L 121.55 149.55 C 121.87 150.56 122.93 151.12 123.94 150.81 C 124.94 150.50 125.51 149.43 125.19 148.42 L 124.89 147.44 C 124.58 146.44 123.51 145.87 122.51 146.18 C 121.50 146.50 120.94 147.56 121.25 148.57 Z M 121.55 149.51 L 121.82 150.45 C 122.11 151.46 123.16 152.04 124.17 151.75 C 125.18 151.46 125.76 150.41 125.47 149.41 L 125.20 148.46 C 124.91 147.46 123.86 146.87 122.85 147.16 C 121.84 147.45 121.26 148.50 121.55 149.51 Z M 121.82 150.42 L 122.07 151.34 C 122.34 152.35 123.38 152.94 124.38 152.67 C 125.39 152.40 125.99 151.37 125.72 150.36 L 125.47 149.44 C 125.20 148.43 124.16 147.84 123.15 148.11 C 122.15 148.38 121.55 149.41 121.82 150.42 Z M 122.07 151.31 L 122.31 152.27 C 122.57 153.28 123.59 153.89 124.60 153.63 C 125.60 153.38 126.21 152.35 125.96 151.35 L 125.71 150.39 C 125.46 149.38 124.44 148.77 123.43 149.03 C 122.43 149.28 121.82 150.30 122.07 151.31 Z M 122.32 152.24 L 122.56 153.25 C 122.80 154.25 123.81 154.87 124.81 154.63 C 125.81 154.39 126.43 153.38 126.19 152.38 L 125.95 151.37 C 125.71 150.37 124.71 149.75 123.70 149.99 C 122.70 150.23 122.08 151.24 122.32 152.24 Z M 122.56 153.23 L 122.80 154.26 C 123.02 155.26 124.02 155.89 125.02 155.66 C 126.02 155.44 126.65 154.44 126.42 153.44 L 126.19 152.40 C 125.96 151.40 124.97 150.77 123.96 151.00 C 122.96 151.23 122.33 152.22 122.56 153.23 Z M 122.80 154.24 L 123.00 155.18 C 123.22 156.17 124.20 156.81 125.20 156.59 C 126.20 156.38 126.84 155.39 126.62 154.39 L 126.42 153.46 C 126.20 152.46 125.22 151.82 124.22 152.04 C 123.22 152.26 122.59 153.24 122.80 154.24 Z M 123.01 155.16 L 123.21 156.12 C 123.42 157.12 124.39 157.76 125.38 157.55 C 126.38 157.35 127.02 156.38 126.81 155.38 L 126.61 154.41 C 126.41 153.42 125.44 152.78 124.44 152.98 C 123.45 153.19 122.81 154.16 123.01 155.16 Z M 123.22 156.10 L 123.41 157.09 C 123.60 158.08 124.56 158.73 125.56 158.54 C 126.55 158.34 127.19 157.38 127.00 156.39 L 126.81 155.40 C 126.61 154.41 125.65 153.76 124.66 153.96 C 123.67 154.15 123.02 155.11 123.22 156.10 Z M 123.42 157.07 L 123.60 158.08 C 123.78 159.06 124.73 159.72 125.72 159.54 C 126.71 159.35 127.36 158.41 127.18 157.42 L 126.99 156.41 C 126.81 155.43 125.86 154.77 124.88 154.95 C 123.89 155.13 123.24 156.08 123.42 157.07 Z M 123.61 158.05 L 123.78 159.07 C 123.95 160.05 124.88 160.71 125.87 160.54 C 126.85 160.38 127.51 159.44 127.35 158.46 L 127.17 157.44 C 127.00 156.46 126.07 155.80 125.09 155.97 C 124.10 156.13 123.44 157.07 123.61 158.05 Z M 123.79 159.04 L 123.94 160.03 C 124.10 161.01 125.02 161.68 126.00 161.53 C 126.98 161.37 127.65 160.45 127.49 159.47 L 127.34 158.48 C 127.18 157.50 126.26 156.83 125.28 156.99 C 124.30 157.14 123.63 158.06 123.79 159.04 Z M 123.95 160.01 L 124.09 160.99 C 124.23 161.97 125.14 162.65 126.11 162.51 C 127.09 162.37 127.77 161.46 127.63 160.49 L 127.48 159.50 C 127.34 158.52 126.44 157.85 125.46 157.99 C 124.49 158.13 123.81 159.03 123.95 160.01 Z M 124.10 160.97 L 124.23 161.96 C 124.36 162.93 125.25 163.61 126.22 163.49 C 127.19 163.36 127.87 162.47 127.75 161.50 L 127.62 160.51 C 127.49 159.54 126.60 158.86 125.63 158.98 C 124.66 159.11 123.98 160.00 124.10 160.97 Z M 124.24 161.94 L 124.36 162.93 C 124.48 163.90 125.35 164.58 126.32 164.47 C 127.28 164.35 127.97 163.48 127.86 162.51 L 127.74 161.52 C 127.62 160.56 126.75 159.87 125.78 159.98 C 124.82 160.10 124.13 160.97 124.24 161.94 Z M 124.37 162.91 L 124.48 163.91 C 124.58 164.87 125.45 165.56 126.41 165.45 C 127.36 165.35 128.06 164.49 127.95 163.53 L 127.85 162.53 C 127.74 161.57 126.88 160.88 125.92 160.99 C 124.96 161.09 124.27 161.95 124.37 162.91 Z M 124.49 163.89 L 124.59 164.89 C 124.68 165.84 125.53 166.54 126.49 166.45 C 127.44 166.35 128.14 165.50 128.04 164.55 L 127.94 163.55 C 127.85 162.59 127.00 161.90 126.05 161.99 C 125.09 162.09 124.40 162.93 124.49 163.89 Z M 124.60 164.88 L 124.69 165.88 C 124.77 166.83 125.61 167.53 126.56 167.45 C 127.51 167.36 128.21 166.52 128.13 165.57 L 128.03 164.57 C 127.95 163.62 127.11 162.92 126.16 163.00 C 125.21 163.09 124.51 163.93 124.60 164.88 Z M 124.70 165.87 L 124.78 166.88 C 124.86 167.82 125.69 168.52 126.63 168.44 C 127.58 168.36 128.28 167.53 128.20 166.59 L 128.12 165.58 C 128.04 164.64 127.21 163.94 126.26 164.02 C 125.32 164.10 124.62 164.93 124.70 165.87 Z M 124.79 166.87 L 124.87 167.87 C 124.94 168.81 125.76 169.51 126.70 169.43 C 127.64 169.36 128.35 168.54 128.27 167.60 L 128.19 166.60 C 128.12 165.66 127.30 164.96 126.36 165.03 C 125.42 165.11 124.71 165.93 124.79 166.87 Z M 124.88 167.86 L 124.95 168.85 C 125.02 169.79 125.84 170.49 126.78 170.41 C 127.71 170.34 128.41 169.53 128.34 168.59 L 128.26 167.60 C 128.19 166.67 127.37 165.97 126.44 166.04 C 125.50 166.11 124.80 166.93 124.88 167.86 Z M 124.96 168.85 L 125.04 169.85 C 125.11 170.78 125.92 171.48 126.85 171.40 C 127.78 171.33 128.48 170.52 128.41 169.59 L 128.33 168.59 C 128.26 167.66 127.45 166.96 126.52 167.03 C 125.59 167.11 124.89 167.92 124.96 168.85 Z M 125.05 169.86 L 125.13 170.95 C 125.21 171.87 126.02 172.56 126.95 172.49 C 127.87 172.41 128.56 171.60 128.49 170.67 L 128.40 169.58 C 128.32 168.66 127.51 167.97 126.59 168.04 C 125.66 168.12 124.97 168.93 125.05 169.86 Z M 125.14 170.98 L 125.25 172.02 C 125.34 172.94 126.16 173.61 127.08 173.52 C 128.00 173.43 128.68 172.61 128.58 171.69 L 128.48 170.64 C 128.39 169.72 127.57 169.05 126.64 169.14 C 125.72 169.23 125.05 170.06 125.14 170.98 Z M 125.26 172.08 L 125.40 173.06 C 125.52 173.97 126.36 174.61 127.27 174.49 C 128.19 174.36 128.83 173.52 128.70 172.61 L 128.57 171.63 C 128.45 170.72 127.60 170.08 126.69 170.20 C 125.78 170.33 125.14 171.17 125.26 172.08 Z M 125.42 173.15 L 125.59 174.05 C 125.77 174.95 126.64 175.54 127.54 175.36 C 128.45 175.19 129.03 174.31 128.86 173.41 L 128.68 172.52 C 128.51 171.61 127.63 171.03 126.73 171.20 C 125.83 171.38 125.24 172.25 125.42 173.15 Z M 125.64 174.21 L 125.93 175.16 C 126.19 176.04 127.11 176.54 127.99 176.27 C 128.86 176.01 129.36 175.08 129.10 174.21 L 128.81 173.25 C 128.55 172.38 127.62 171.88 126.75 172.15 C 125.87 172.41 125.38 173.33 125.64 174.21 Z M 126.01 175.37 L 126.43 176.30 C 126.81 177.14 127.79 177.50 128.62 177.13 C 129.45 176.75 129.82 175.77 129.44 174.94 L 129.01 174.00 C 128.64 173.17 127.66 172.81 126.83 173.18 C 126.00 173.56 125.63 174.54 126.01 175.37 Z M 126.52 176.47 L 127.02 177.29 C 127.48 178.07 128.49 178.32 129.27 177.85 C 130.05 177.39 130.31 176.38 129.84 175.60 L 129.35 174.78 C 128.88 174.00 127.87 173.74 127.09 174.21 C 126.31 174.68 126.06 175.69 126.52 176.47 Z M 127.07 177.36 L 127.47 177.96 C 127.97 178.71 128.99 178.91 129.75 178.40 C 130.50 177.89 130.70 176.87 130.19 176.12 L 129.79 175.53 C 129.28 174.77 128.26 174.58 127.51 175.08 C 126.76 175.59 126.56 176.61 127.07 177.36 Z"
      fill="black"
      fill-rule="nonzero" /><path d="M 125.02 146.31 L 125.99 146.15 C 126.97 145.98 127.63 145.06 127.47 144.08 C 127.30 143.10 126.37 142.43 125.39 142.60 L 124.42 142.76 C 123.44 142.93 122.78 143.85 122.94 144.83 C 123.11 145.82 124.03 146.48 125.02 146.31 Z M 126.00 146.18 L 126.98 146.01 C 127.98 145.84 128.65 144.89 128.48 143.89 C 128.30 142.89 127.35 142.22 126.36 142.40 L 125.38 142.57 C 124.38 142.74 123.71 143.69 123.88 144.69 C 124.06 145.68 125.01 146.35 126.00 146.18 Z M 127.01 146.04 L 127.99 145.86 C 129.01 145.68 129.68 144.70 129.49 143.69 C 129.31 142.67 128.33 142.00 127.32 142.19 L 126.33 142.37 C 125.32 142.55 124.65 143.53 124.83 144.54 C 125.02 145.56 125.99 146.23 127.01 146.04 Z M 128.03 145.89 L 129.02 145.69 C 130.05 145.49 130.72 144.49 130.52 143.46 C 130.31 142.42 129.31 141.76 128.28 141.96 L 127.28 142.16 C 126.25 142.36 125.58 143.36 125.79 144.39 C 125.99 145.43 126.99 146.09 128.03 145.89 Z M 129.06 145.70 L 129.98 145.50 C 131.01 145.28 131.67 144.26 131.45 143.22 C 131.22 142.18 130.20 141.52 129.16 141.75 L 128.24 141.95 C 127.21 142.17 126.55 143.20 126.77 144.23 C 127.00 145.27 128.02 145.93 129.06 145.70 Z M 130.01 145.50 L 130.94 145.28 C 131.97 145.04 132.62 144.00 132.37 142.97 C 132.13 141.94 131.10 141.30 130.07 141.54 L 129.13 141.76 C 128.10 142.00 127.46 143.03 127.70 144.06 C 127.94 145.10 128.97 145.74 130.01 145.50 Z M 130.97 145.27 L 131.93 145.03 C 132.96 144.78 133.59 143.74 133.34 142.71 C 133.08 141.68 132.04 141.05 131.01 141.30 L 130.04 141.54 C 129.01 141.80 128.38 142.84 128.64 143.87 C 128.89 144.90 129.94 145.53 130.97 145.27 Z M 131.95 145.03 L 132.97 144.77 C 133.99 144.50 134.61 143.45 134.34 142.42 C 134.08 141.39 133.03 140.78 132.00 141.05 L 130.99 141.31 C 129.96 141.58 129.34 142.62 129.61 143.65 C 129.88 144.68 130.93 145.30 131.95 145.03 Z M 132.98 144.76 L 134.01 144.49 C 135.03 144.21 135.64 143.16 135.36 142.13 C 135.09 141.11 134.03 140.50 133.01 140.77 L 131.98 141.05 C 130.96 141.33 130.35 142.38 130.63 143.40 C 130.90 144.43 131.96 145.04 132.98 144.76 Z M 134.02 144.48 L 135.01 144.21 C 136.03 143.93 136.63 142.87 136.35 141.85 C 136.07 140.82 135.01 140.22 133.99 140.51 L 133.00 140.78 C 131.98 141.06 131.38 142.12 131.66 143.14 C 131.94 144.16 133.00 144.76 134.02 144.48 Z M 135.01 144.21 L 136.02 143.93 C 137.04 143.64 137.64 142.58 137.35 141.56 C 137.07 140.54 136.01 139.94 134.99 140.23 L 133.98 140.51 C 132.96 140.79 132.37 141.85 132.65 142.87 C 132.94 143.89 133.99 144.49 135.01 144.21 Z M 136.02 143.92 L 137.01 143.65 C 138.03 143.36 138.62 142.30 138.33 141.28 C 138.05 140.26 136.99 139.67 135.97 139.95 L 134.98 140.23 C 133.96 140.52 133.37 141.58 133.66 142.60 C 133.94 143.62 135.00 144.21 136.02 143.92 Z M 137.00 143.65 L 137.94 143.38 C 138.96 143.10 139.56 142.04 139.27 141.02 C 138.99 140.00 137.93 139.41 136.91 139.69 L 135.97 139.96 C 134.95 140.24 134.36 141.30 134.64 142.32 C 134.93 143.34 135.99 143.93 137.00 143.65 Z M 137.94 143.38 L 138.89 143.12 C 139.91 142.84 140.50 141.78 140.22 140.76 C 139.94 139.74 138.88 139.15 137.86 139.43 L 136.91 139.69 C 135.90 139.98 135.30 141.03 135.58 142.05 C 135.86 143.07 136.92 143.67 137.94 143.38 Z M 138.88 143.12 L 139.95 142.83 C 140.97 142.55 141.57 141.50 141.29 140.48 C 141.01 139.46 139.96 138.86 138.95 139.14 L 137.87 139.43 C 136.86 139.71 136.25 140.76 136.53 141.78 C 136.81 142.79 137.86 143.40 138.88 143.12 Z M 139.94 142.82 L 140.88 142.57 C 141.90 142.30 142.51 141.26 142.23 140.24 C 141.96 139.22 140.92 138.62 139.90 138.89 L 138.96 139.14 C 137.94 139.41 137.33 140.46 137.61 141.47 C 137.88 142.49 138.92 143.10 139.94 142.82 Z M 140.87 142.57 L 141.75 142.34 C 142.76 142.08 143.37 141.04 143.10 140.02 C 142.84 139.00 141.80 138.40 140.78 138.66 L 139.91 138.89 C 138.89 139.16 138.29 140.20 138.55 141.21 C 138.82 142.23 139.86 142.84 140.87 142.57 Z M 141.74 142.34 L 142.67 142.10 C 143.68 141.83 144.29 140.80 144.03 139.78 C 143.76 138.77 142.72 138.16 141.71 138.42 L 140.78 138.67 C 139.77 138.93 139.16 139.97 139.43 140.98 C 139.69 142.00 140.73 142.60 141.74 142.34 Z M 142.67 142.09 L 143.64 141.84 C 144.65 141.58 145.25 140.54 144.99 139.53 C 144.73 138.52 143.69 137.91 142.68 138.17 L 141.71 138.43 C 140.70 138.69 140.09 139.73 140.36 140.74 C 140.62 141.75 141.66 142.36 142.67 142.09 Z M 143.63 141.84 L 144.60 141.58 C 145.61 141.32 146.22 140.29 145.95 139.28 C 145.69 138.27 144.66 137.66 143.65 137.93 L 142.68 138.18 C 141.67 138.44 141.06 139.47 141.33 140.49 C 141.59 141.50 142.62 142.10 143.63 141.84 Z M 144.60 141.58 L 145.57 141.33 C 146.58 141.07 147.18 140.03 146.92 139.03 C 146.66 138.02 145.63 137.41 144.62 137.68 L 143.65 137.93 C 142.64 138.19 142.04 139.22 142.30 140.23 C 142.56 141.24 143.59 141.84 144.60 141.58 Z M 145.56 141.33 L 146.53 141.08 C 147.54 140.82 148.15 139.79 147.89 138.79 C 147.63 137.78 146.61 137.17 145.60 137.43 L 144.63 137.68 C 143.62 137.94 143.01 138.96 143.27 139.97 C 143.53 140.98 144.55 141.59 145.56 141.33 Z M 146.51 141.08 L 147.48 140.84 C 148.49 140.60 149.11 139.58 148.86 138.57 C 148.62 137.56 147.60 136.95 146.59 137.19 L 145.62 137.43 C 144.61 137.67 143.99 138.69 144.24 139.70 C 144.48 140.71 145.50 141.33 146.51 141.08 Z M 147.44 140.85 L 148.37 140.64 C 149.38 140.42 150.02 139.42 149.79 138.41 C 149.57 137.39 148.57 136.76 147.56 136.98 L 146.63 137.19 C 145.62 137.41 144.98 138.41 145.20 139.42 C 145.43 140.44 146.43 141.07 147.44 140.85 Z M 148.32 140.65 L 149.19 140.48 C 150.21 140.28 150.87 139.30 150.67 138.28 C 150.47 137.27 149.49 136.60 148.47 136.80 L 147.60 136.97 C 146.59 137.17 145.92 138.16 146.12 139.17 C 146.32 140.19 147.31 140.85 148.32 140.65 Z M 149.15 140.49 L 150.11 140.32 C 151.13 140.14 151.81 139.18 151.64 138.16 C 151.46 137.14 150.49 136.46 149.47 136.63 L 148.51 136.80 C 147.50 136.97 146.81 137.94 146.99 138.96 C 147.17 139.98 148.13 140.66 149.15 140.49 Z M 150.08 140.32 L 151.19 140.15 C 152.21 139.99 152.91 139.04 152.75 138.02 C 152.59 137.00 151.64 136.30 150.62 136.46 L 149.51 136.63 C 148.49 136.79 147.79 137.74 147.94 138.76 C 148.10 139.78 149.06 140.48 150.08 140.32 Z M 151.17 140.15 L 152.10 140.02 C 153.12 139.87 153.82 138.93 153.68 137.91 C 153.53 136.89 152.59 136.18 151.56 136.32 L 150.64 136.46 C 149.62 136.60 148.91 137.55 149.06 138.57 C 149.20 139.59 150.15 140.30 151.17 140.15 Z M 152.08 140.02 L 152.97 139.90 C 153.99 139.76 154.71 138.83 154.57 137.81 C 154.43 136.78 153.50 136.07 152.48 136.20 L 151.58 136.32 C 150.56 136.46 149.85 137.40 149.98 138.42 C 150.12 139.44 151.06 140.15 152.08 140.02 Z M 152.95 139.90 L 153.91 139.78 C 154.93 139.66 155.66 138.73 155.54 137.71 C 155.41 136.69 154.49 135.96 153.47 136.09 L 152.50 136.20 C 151.48 136.33 150.75 137.25 150.87 138.27 C 151.00 139.30 151.92 140.02 152.95 139.90 Z M 153.88 139.79 L 154.91 139.68 C 155.93 139.57 156.67 138.66 156.57 137.63 C 156.46 136.61 155.55 135.87 154.52 135.98 L 153.50 136.08 C 152.47 136.19 151.73 137.11 151.84 138.13 C 151.94 139.15 152.86 139.89 153.88 139.79 Z M 154.88 139.68 L 155.96 139.59 C 156.98 139.50 157.74 138.60 157.65 137.58 C 157.56 136.55 156.66 135.80 155.64 135.88 L 154.56 135.98 C 153.54 136.06 152.78 136.96 152.86 137.99 C 152.95 139.01 153.85 139.77 154.88 139.68 Z M 155.92 139.59 L 157.04 139.52 C 158.06 139.45 158.84 138.57 158.78 137.55 C 158.71 136.52 157.83 135.75 156.80 135.81 L 155.68 135.88 C 154.66 135.95 153.88 136.83 153.94 137.85 C 154.01 138.88 154.89 139.65 155.92 139.59 Z M 156.99 139.52 L 157.98 139.48 C 159.01 139.44 159.80 138.58 159.76 137.55 C 159.72 136.53 158.86 135.73 157.83 135.77 L 156.85 135.81 C 155.82 135.85 155.03 136.71 155.07 137.74 C 155.11 138.76 155.97 139.56 156.99 139.52 Z M 157.93 139.48 L 158.92 139.47 C 159.94 139.46 160.77 138.62 160.75 137.60 C 160.74 136.57 159.91 135.75 158.88 135.76 L 157.89 135.77 C 156.87 135.78 156.04 136.62 156.05 137.64 C 156.06 138.67 156.90 139.49 157.93 139.48 Z M 158.85 139.47 L 159.85 139.49 C 160.87 139.52 161.73 138.72 161.75 137.69 C 161.78 136.67 160.98 135.82 159.95 135.79 L 158.95 135.76 C 157.93 135.74 157.08 136.54 157.05 137.56 C 157.02 138.59 157.83 139.44 158.85 139.47 Z M 159.77 139.49 L 160.77 139.56 C 161.79 139.64 162.68 138.87 162.75 137.85 C 162.83 136.83 162.06 135.94 161.04 135.87 L 160.04 135.80 C 159.02 135.72 158.13 136.49 158.06 137.51 C 157.98 138.53 158.75 139.41 159.77 139.49 Z M 160.67 139.55 L 161.67 139.68 C 162.68 139.81 163.61 139.10 163.74 138.08 C 163.87 137.07 163.15 136.14 162.14 136.01 L 161.14 135.88 C 160.13 135.75 159.20 136.47 159.07 137.48 C 158.94 138.49 159.66 139.42 160.67 139.55 Z M 161.55 139.66 L 162.53 139.85 C 163.54 140.05 164.51 139.40 164.70 138.39 C 164.90 137.39 164.25 136.42 163.25 136.23 L 162.26 136.03 C 161.26 135.84 160.29 136.49 160.09 137.49 C 159.89 138.49 160.55 139.46 161.55 139.66 Z M 162.40 139.82 L 163.37 140.09 C 164.35 140.36 165.37 139.78 165.64 138.80 C 165.91 137.82 165.34 136.80 164.35 136.53 L 163.38 136.26 C 162.40 135.99 161.38 136.56 161.11 137.55 C 160.84 138.53 161.42 139.55 162.40 139.82 Z M 163.22 140.04 L 164.21 140.40 C 165.17 140.76 166.23 140.27 166.58 139.31 C 166.93 138.36 166.45 137.30 165.49 136.94 L 164.50 136.58 C 163.55 136.22 162.49 136.71 162.13 137.67 C 161.78 138.62 162.27 139.68 163.22 140.04 Z M 164.07 140.35 L 165.03 140.79 C 165.95 141.22 167.04 140.81 167.47 139.89 C 167.90 138.97 167.50 137.87 166.58 137.44 L 165.63 137.00 C 164.70 136.57 163.61 136.97 163.18 137.90 C 162.75 138.82 163.15 139.92 164.07 140.35 Z M 164.90 140.72 L 165.81 141.23 C 166.70 141.72 167.82 141.40 168.31 140.51 C 168.81 139.63 168.49 138.50 167.60 138.01 L 166.70 137.51 C 165.81 137.01 164.69 137.33 164.19 138.22 C 163.70 139.11 164.02 140.23 164.90 140.72 Z M 165.70 141.16 L 166.54 141.71 C 167.39 142.27 168.54 142.03 169.09 141.17 C 169.65 140.32 169.41 139.18 168.55 138.63 L 167.71 138.08 C 166.86 137.52 165.72 137.76 165.16 138.61 C 164.61 139.46 164.85 140.60 165.70 141.16 Z M 166.44 141.64 L 167.22 142.22 C 168.03 142.83 169.19 142.67 169.80 141.86 C 170.41 141.05 170.24 139.89 169.43 139.28 L 168.65 138.70 C 167.84 138.09 166.69 138.25 166.08 139.06 C 165.47 139.87 165.63 141.03 166.44 141.64 Z M 167.12 142.14 L 167.82 142.75 C 168.59 143.41 169.75 143.33 170.42 142.56 C 171.08 141.79 171.00 140.63 170.23 139.96 L 169.53 139.36 C 168.76 138.70 167.60 138.78 166.93 139.55 C 166.27 140.32 166.36 141.48 167.12 142.14 Z M 167.72 142.65 L 168.44 143.38 C 169.16 144.10 170.32 144.10 171.04 143.39 C 171.76 142.67 171.77 141.51 171.05 140.79 L 170.33 140.06 C 169.62 139.34 168.45 139.34 167.73 140.05 C 167.01 140.77 167.01 141.93 167.72 142.65 Z M 168.32 143.25 L 168.99 144.06 C 169.64 144.85 170.79 144.96 171.58 144.32 C 172.36 143.68 172.48 142.52 171.84 141.73 L 171.17 140.92 C 170.52 140.13 169.37 140.02 168.58 140.66 C 167.80 141.30 167.68 142.46 168.32 143.25 Z M 168.88 143.91 L 169.43 144.74 C 169.98 145.58 171.12 145.82 171.97 145.26 C 172.82 144.70 173.05 143.56 172.49 142.71 L 171.95 141.89 C 171.39 141.04 170.25 140.81 169.40 141.36 C 168.56 141.92 168.32 143.06 168.88 143.91 Z M 169.34 144.58 L 169.78 145.43 C 170.26 146.32 171.37 146.67 172.26 146.19 C 173.16 145.72 173.50 144.61 173.03 143.71 L 172.58 142.87 C 172.11 141.97 171.00 141.63 170.10 142.10 C 169.20 142.57 168.86 143.69 169.34 144.58 Z M 169.72 145.29 L 170.09 146.16 C 170.48 147.09 171.56 147.53 172.50 147.13 C 173.43 146.73 173.86 145.65 173.47 144.72 L 173.10 143.85 C 172.70 142.91 171.62 142.48 170.68 142.88 C 169.75 143.28 169.32 144.36 169.72 145.29 Z M 170.04 146.05 L 170.34 146.90 C 170.68 147.85 171.73 148.35 172.69 148.01 C 173.65 147.68 174.15 146.63 173.81 145.67 L 173.51 144.82 C 173.17 143.87 172.12 143.37 171.16 143.71 C 170.21 144.04 169.71 145.09 170.04 146.05 Z M 170.31 146.80 L 170.57 147.67 C 170.86 148.64 171.88 149.19 172.85 148.91 C 173.83 148.62 174.38 147.60 174.09 146.62 L 173.84 145.76 C 173.55 144.79 172.53 144.23 171.55 144.52 C 170.58 144.81 170.03 145.83 170.31 146.80 Z M 170.54 147.57 L 170.76 148.49 C 171.00 149.48 171.99 150.09 172.98 149.85 C 173.97 149.61 174.58 148.62 174.34 147.63 L 174.12 146.71 C 173.88 145.73 172.89 145.12 171.90 145.36 C 170.91 145.59 170.31 146.59 170.54 147.57 Z M 170.75 148.40 L 170.93 149.40 C 171.12 150.40 172.09 151.05 173.08 150.86 C 174.08 150.67 174.73 149.71 174.55 148.71 L 174.36 147.72 C 174.17 146.72 173.21 146.07 172.21 146.26 C 171.21 146.45 170.56 147.41 170.75 148.40 Z M 170.92 149.32 L 171.08 150.41 C 171.23 151.41 172.16 152.11 173.16 151.96 C 174.17 151.82 174.86 150.88 174.72 149.88 L 174.56 148.79 C 174.41 147.79 173.48 147.09 172.48 147.24 C 171.47 147.38 170.78 148.32 170.92 149.32 Z M 171.07 150.34 L 171.19 151.44 C 171.30 152.45 172.21 153.18 173.22 153.07 C 174.23 152.96 174.95 152.05 174.84 151.04 L 174.72 149.94 C 174.61 148.94 173.71 148.21 172.70 148.32 C 171.69 148.43 170.96 149.33 171.07 150.34 Z M 171.19 151.40 L 171.27 152.35 C 171.35 153.36 172.24 154.11 173.25 154.02 C 174.26 153.94 175.01 153.05 174.93 152.04 L 174.85 151.09 C 174.76 150.08 173.88 149.33 172.87 149.41 C 171.85 149.50 171.10 150.38 171.19 151.40 Z M 171.26 152.31 L 171.33 153.30 C 171.39 154.32 172.26 155.09 173.28 155.02 C 174.29 154.96 175.06 154.09 174.99 153.07 L 174.93 152.08 C 174.87 151.06 173.99 150.30 172.98 150.36 C 171.97 150.42 171.20 151.30 171.26 152.31 Z M 171.32 153.27 L 171.37 154.30 C 171.42 155.31 172.28 156.09 173.29 156.05 C 174.30 156.00 175.09 155.14 175.04 154.13 L 174.99 153.11 C 174.95 152.09 174.09 151.31 173.08 151.35 C 172.06 151.40 171.28 152.26 171.32 153.27 Z M 171.37 154.26 L 171.40 155.30 C 171.43 156.31 172.27 157.11 173.29 157.08 C 174.30 157.06 175.10 156.21 175.07 155.20 L 175.04 154.16 C 175.01 153.15 174.17 152.35 173.15 152.38 C 172.14 152.41 171.34 153.25 171.37 154.26 Z M 171.40 155.27 L 171.41 156.30 C 171.42 157.31 172.25 158.13 173.27 158.12 C 174.28 158.11 175.09 157.27 175.08 156.26 L 175.07 155.23 C 175.06 154.21 174.23 153.40 173.22 153.41 C 172.20 153.42 171.39 154.25 171.40 155.27 Z M 171.41 156.27 L 171.40 157.28 C 171.40 158.29 172.21 159.12 173.22 159.13 C 174.24 159.13 175.07 158.32 175.07 157.30 L 175.08 156.29 C 175.09 155.28 174.27 154.45 173.26 154.44 C 172.25 154.44 171.42 155.25 171.41 156.27 Z M 171.40 157.24 L 171.38 158.21 C 171.35 159.23 172.15 160.07 173.16 160.10 C 174.17 160.13 175.02 159.33 175.05 158.31 L 175.07 157.34 C 175.10 156.33 174.30 155.48 173.29 155.45 C 172.28 155.43 171.43 156.23 171.40 157.24 Z M 171.38 158.17 L 171.32 159.29 C 171.27 160.30 172.04 161.17 173.05 161.22 C 174.06 161.28 174.93 160.50 174.98 159.49 L 175.04 158.36 C 175.10 157.35 174.32 156.49 173.31 156.43 C 172.30 156.38 171.44 157.16 171.38 158.17 Z M 171.33 159.23 L 171.24 160.29 C 171.16 161.29 171.90 162.18 172.90 162.27 C 173.91 162.35 174.79 161.61 174.88 160.60 L 174.97 159.55 C 175.06 158.54 174.31 157.66 173.31 157.57 C 172.30 157.49 171.42 158.23 171.33 159.23 Z M 171.26 160.23 L 171.13 161.22 C 171.01 162.22 171.72 163.13 172.72 163.25 C 173.71 163.37 174.62 162.66 174.74 161.66 L 174.86 160.67 C 174.99 159.67 174.28 158.76 173.28 158.64 C 172.28 158.52 171.38 159.23 171.26 160.23 Z M 171.15 161.16 L 171.00 162.10 C 170.84 163.09 171.51 164.02 172.50 164.18 C 173.49 164.34 174.42 163.66 174.57 162.68 L 174.73 161.73 C 174.88 160.74 174.21 159.81 173.23 159.65 C 172.24 159.50 171.31 160.17 171.15 161.16 Z M 171.02 162.03 L 170.84 162.94 C 170.64 163.92 171.27 164.87 172.25 165.07 C 173.23 165.26 174.18 164.63 174.37 163.65 L 174.55 162.74 C 174.75 161.77 174.12 160.82 173.14 160.62 C 172.16 160.42 171.21 161.06 171.02 162.03 Z M 170.86 162.88 L 170.64 163.77 C 170.41 164.74 171.00 165.71 171.97 165.94 C 172.93 166.17 173.90 165.58 174.13 164.62 L 174.35 163.72 C 174.58 162.75 173.99 161.78 173.03 161.55 C 172.06 161.32 171.09 161.91 170.86 162.88 Z M 170.67 163.71 L 170.39 164.69 C 170.12 165.64 170.67 166.63 171.62 166.90 C 172.57 167.17 173.56 166.62 173.83 165.67 L 174.11 164.68 C 174.38 163.73 173.83 162.74 172.87 162.47 C 171.92 162.20 170.93 162.76 170.67 163.71 Z M 170.41 164.63 L 170.10 165.60 C 169.80 166.53 170.31 167.54 171.25 167.84 C 172.19 168.14 173.19 167.63 173.49 166.69 L 173.80 165.73 C 174.11 164.79 173.59 163.79 172.66 163.49 C 171.72 163.18 170.72 163.70 170.41 164.63 Z M 170.13 165.54 L 169.79 166.49 C 169.46 167.41 169.94 168.43 170.86 168.76 C 171.78 169.09 172.80 168.61 173.13 167.69 L 173.47 166.75 C 173.80 165.82 173.32 164.81 172.40 164.47 C 171.48 164.14 170.46 164.62 170.13 165.54 Z M 169.81 166.44 L 169.45 167.36 C 169.10 168.27 169.54 169.30 170.45 169.65 C 171.36 170.01 172.39 169.56 172.74 168.65 L 173.10 167.73 C 173.46 166.82 173.01 165.80 172.10 165.44 C 171.19 165.09 170.17 165.53 169.81 166.44 Z M 169.47 167.33 L 169.10 168.22 C 168.72 169.12 169.14 170.15 170.04 170.53 C 170.94 170.90 171.97 170.48 172.34 169.59 L 172.72 168.69 C 173.10 167.79 172.68 166.76 171.78 166.38 C 170.88 166.01 169.85 166.43 169.47 167.33 Z M 169.12 168.19 L 168.69 169.16 C 168.29 170.04 168.69 171.08 169.57 171.47 C 170.46 171.87 171.49 171.47 171.89 170.59 L 172.32 169.62 C 172.71 168.73 172.32 167.70 171.44 167.30 C 170.55 166.91 169.52 167.31 169.12 168.19 Z M 168.72 169.12 L 168.27 170.06 C 167.85 170.93 168.22 171.97 169.09 172.38 C 169.95 172.80 170.99 172.43 171.41 171.56 L 171.86 170.62 C 172.27 169.76 171.91 168.72 171.04 168.30 C 170.17 167.89 169.13 168.25 168.72 169.12 Z M 168.30 170.01 L 167.84 170.90 C 167.40 171.75 167.73 172.79 168.58 173.23 C 169.43 173.67 170.47 173.34 170.91 172.50 L 171.37 171.61 C 171.81 170.76 171.48 169.72 170.64 169.28 C 169.79 168.83 168.74 169.17 168.30 170.01 Z M 167.88 170.85 L 167.41 171.68 C 166.94 172.50 167.23 173.55 168.05 174.02 C 168.88 174.49 169.93 174.21 170.40 173.38 L 170.87 172.55 C 171.34 171.73 171.05 170.68 170.23 170.21 C 169.41 169.74 168.36 170.02 167.88 170.85 Z M 167.47 171.60 L 166.94 172.43 C 166.43 173.22 166.66 174.28 167.45 174.79 C 168.25 175.30 169.30 175.07 169.81 174.27 L 170.34 173.45 C 170.85 172.66 170.62 171.60 169.83 171.09 C 169.03 170.58 167.98 170.81 167.47 171.60 Z M 167.02 172.33 L 166.38 173.19 C 165.82 173.94 165.97 175.00 166.72 175.56 C 167.47 176.12 168.54 175.97 169.10 175.22 L 169.74 174.37 C 170.30 173.62 170.14 172.55 169.39 171.99 C 168.64 171.43 167.58 171.58 167.02 172.33 Z M 166.48 173.08 L 165.82 173.82 C 165.20 174.51 165.26 175.58 165.95 176.20 C 166.65 176.82 167.71 176.76 168.33 176.07 L 169.00 175.33 C 169.62 174.63 169.56 173.57 168.86 172.95 C 168.17 172.33 167.10 172.38 166.48 173.08 Z M 165.94 173.71 L 165.25 174.34 C 164.57 174.97 164.53 176.03 165.15 176.71 C 165.78 177.39 166.84 177.44 167.52 176.81 L 168.21 176.18 C 168.89 175.55 168.94 174.49 168.31 173.81 C 167.68 173.13 166.62 173.08 165.94 173.71 Z M 165.41 174.23 L 164.61 174.81 C 163.86 175.36 163.70 176.40 164.24 177.14 C 164.79 177.89 165.83 178.05 166.57 177.51 L 167.37 176.92 C 168.11 176.38 168.28 175.34 167.73 174.59 C 167.19 173.85 166.15 173.69 165.41 174.23 Z M 164.78 174.71 L 163.91 175.20 C 163.11 175.64 162.82 176.65 163.26 177.45 C 163.71 178.25 164.72 178.54 165.52 178.10 L 166.39 177.61 C 167.19 177.16 167.48 176.15 167.04 175.35 C 166.59 174.55 165.58 174.27 164.78 174.71 Z M 164.09 175.12 L 163.18 175.49 C 162.33 175.84 161.93 176.80 162.28 177.65 C 162.62 178.49 163.58 178.89 164.43 178.55 L 165.34 178.17 C 166.18 177.83 166.58 176.87 166.24 176.02 C 165.89 175.18 164.93 174.78 164.09 175.12 Z M 163.35 175.44 L 162.40 175.71 C 161.53 175.97 161.02 176.88 161.28 177.75 C 161.53 178.62 162.44 179.12 163.31 178.87 L 164.26 178.60 C 165.13 178.35 165.63 177.44 165.38 176.56 C 165.13 175.69 164.22 175.19 163.35 175.44 Z M 162.55 175.68 L 161.57 175.87 C 160.68 176.03 160.10 176.89 160.27 177.78 C 160.43 178.67 161.29 179.26 162.18 179.09 L 163.16 178.91 C 164.05 178.74 164.64 177.88 164.47 176.99 C 164.30 176.10 163.44 175.51 162.55 175.68 Z M 161.70 175.85 L 160.71 175.95 C 159.81 176.05 159.15 176.86 159.25 177.76 C 159.35 178.66 160.16 179.31 161.06 179.21 L 162.05 179.11 C 162.95 179.01 163.61 178.20 163.51 177.30 C 163.41 176.40 162.60 175.75 161.70 175.85 Z M 160.81 175.95 L 159.82 175.99 C 158.91 176.03 158.21 176.79 158.25 177.70 C 158.29 178.60 159.05 179.30 159.96 179.26 L 160.95 179.22 C 161.86 179.18 162.56 178.42 162.52 177.51 C 162.48 176.61 161.71 175.91 160.81 175.95 Z M 159.93 175.99 L 158.95 175.97 C 158.04 175.94 157.29 176.66 157.27 177.56 C 157.24 178.47 157.96 179.22 158.86 179.24 L 159.85 179.26 C 160.75 179.29 161.50 178.57 161.52 177.67 C 161.55 176.77 160.83 176.01 159.93 175.99 Z M 159.10 175.98 L 158.10 175.86 C 157.20 175.75 156.39 176.39 156.28 177.29 C 156.17 178.19 156.82 179.00 157.71 179.11 L 158.71 179.23 C 159.61 179.34 160.42 178.69 160.53 177.80 C 160.64 176.90 160.00 176.08 159.10 175.98 Z M 158.28 175.89 L 157.31 175.66 C 156.43 175.45 155.55 176.00 155.34 176.88 C 155.13 177.76 155.68 178.64 156.56 178.85 L 157.53 179.08 C 158.41 179.29 159.29 178.74 159.50 177.86 C 159.71 176.98 159.16 176.10 158.28 175.89 Z M 157.48 175.71 L 156.58 175.39 C 155.73 175.09 154.79 175.54 154.49 176.39 C 154.19 177.24 154.64 178.18 155.49 178.48 L 156.39 178.80 C 157.24 179.10 158.17 178.65 158.48 177.80 C 158.78 176.95 158.33 176.01 157.48 175.71 Z M 156.71 175.45 L 155.81 175.03 C 154.98 174.66 154.01 175.02 153.64 175.84 C 153.26 176.67 153.63 177.64 154.45 178.01 L 155.36 178.43 C 156.18 178.80 157.15 178.44 157.53 177.62 C 157.90 176.79 157.54 175.82 156.71 175.45 Z M 155.91 175.08 L 154.99 174.59 C 154.20 174.15 153.20 174.45 152.77 175.24 C 152.34 176.04 152.63 177.03 153.43 177.46 L 154.35 177.96 C 155.14 178.39 156.14 178.10 156.57 177.30 C 157.00 176.51 156.70 175.52 155.91 175.08 Z M 155.07 174.63 L 154.21 174.10 C 153.44 173.63 152.43 173.87 151.96 174.64 C 151.49 175.41 151.73 176.42 152.50 176.90 L 153.35 177.42 C 154.13 177.89 155.13 177.65 155.61 176.88 C 156.08 176.11 155.84 175.10 155.07 174.63 Z M 154.26 174.14 L 153.44 173.59 C 152.69 173.09 151.68 173.29 151.17 174.05 C 150.67 174.80 150.88 175.82 151.63 176.32 L 152.45 176.86 C 153.20 177.36 154.22 177.16 154.72 176.41 C 155.22 175.66 155.02 174.64 154.26 174.14 Z M 153.48 173.61 L 152.65 173.04 C 151.91 172.52 150.89 172.70 150.37 173.44 C 149.85 174.18 150.03 175.20 150.77 175.72 L 151.60 176.30 C 152.34 176.81 153.36 176.64 153.88 175.90 C 154.40 175.15 154.22 174.13 153.48 173.61 Z M 152.67 173.05 L 151.85 172.45 C 151.11 171.92 150.09 172.09 149.56 172.82 C 149.03 173.55 149.19 174.58 149.93 175.11 L 150.75 175.70 C 151.49 176.23 152.51 176.07 153.04 175.34 C 153.57 174.60 153.41 173.58 152.67 173.05 Z M 151.85 172.46 L 151.41 172.14 C 150.68 171.60 149.66 171.76 149.12 172.49 C 148.59 173.22 148.75 174.25 149.48 174.78 L 149.92 175.10 C 150.65 175.63 151.68 175.47 152.21 174.74 C 152.74 174.01 152.58 172.99 151.85 172.46 Z"
      fill="black"
      fill-rule="nonzero" /><path d="M 139.59 148.85 L 139.55 149.81 C 139.51 150.83 140.31 151.68 141.32 151.72 C 142.34 151.76 143.19 150.96 143.23 149.95 L 143.27 148.98 C 143.31 147.97 142.51 147.11 141.50 147.07 C 140.48 147.04 139.63 147.83 139.59 148.85 Z M 139.55 149.84 L 139.52 150.82 C 139.50 151.84 140.30 152.68 141.32 152.71 C 142.34 152.73 143.19 151.93 143.21 150.91 L 143.24 149.92 C 143.26 148.90 142.45 148.06 141.44 148.03 C 140.42 148.01 139.57 148.82 139.55 149.84 Z M 139.52 150.87 L 139.52 151.89 C 139.52 152.91 140.35 153.74 141.38 153.74 C 142.40 153.73 143.22 152.90 143.22 151.88 L 143.22 150.86 C 143.22 149.84 142.39 149.01 141.36 149.01 C 140.34 149.01 139.51 149.85 139.52 150.87 Z M 139.52 151.95 L 139.56 152.96 C 139.59 153.99 140.45 154.78 141.48 154.75 C 142.50 154.71 143.30 153.85 143.26 152.83 L 143.22 151.82 C 143.18 150.80 142.33 150.00 141.30 150.03 C 140.28 150.07 139.48 150.93 139.52 151.95 Z M 139.56 153.02 L 139.63 154.02 C 139.70 155.04 140.59 155.81 141.61 155.74 C 142.63 155.67 143.39 154.78 143.32 153.76 L 143.25 152.77 C 143.18 151.75 142.30 150.98 141.28 151.05 C 140.26 151.12 139.49 152.01 139.56 153.02 Z M 139.64 154.08 L 139.74 155.08 C 139.84 156.10 140.75 156.84 141.76 156.74 C 142.78 156.63 143.51 155.73 143.41 154.72 L 143.31 153.71 C 143.21 152.69 142.31 151.95 141.29 152.06 C 140.28 152.16 139.54 153.06 139.64 154.08 Z M 139.75 155.14 L 139.89 156.14 C 140.02 157.15 140.94 157.86 141.95 157.72 C 142.95 157.59 143.66 156.67 143.53 155.66 L 143.40 154.66 C 143.27 153.66 142.35 152.95 141.34 153.08 C 140.33 153.21 139.62 154.13 139.75 155.14 Z M 139.90 156.20 L 140.07 157.20 C 140.23 158.20 141.17 158.88 142.17 158.71 C 143.17 158.55 143.84 157.61 143.68 156.61 L 143.51 155.60 C 143.35 154.61 142.41 153.93 141.41 154.10 C 140.42 154.26 139.74 155.20 139.90 156.20 Z M 140.10 157.25 L 140.29 158.25 C 140.48 159.23 141.43 159.87 142.41 159.68 C 143.39 159.49 144.03 158.54 143.84 157.56 L 143.65 156.56 C 143.46 155.58 142.51 154.94 141.53 155.13 C 140.55 155.33 139.91 156.27 140.10 157.25 Z M 140.32 158.28 L 140.53 159.24 C 140.74 160.21 141.69 160.82 142.66 160.61 C 143.62 160.40 144.23 159.45 144.02 158.49 L 143.81 157.52 C 143.60 156.56 142.65 155.95 141.69 156.16 C 140.72 156.37 140.11 157.32 140.32 158.28 Z M 140.56 159.26 L 140.78 160.21 C 140.99 161.16 141.94 161.75 142.89 161.54 C 143.84 161.32 144.43 160.37 144.21 159.42 L 144.00 158.47 C 143.78 157.52 142.83 156.93 141.88 157.15 C 140.93 157.36 140.34 158.31 140.56 159.26 Z M 140.80 160.21 L 141.02 161.19 C 141.24 162.13 142.18 162.71 143.11 162.49 C 144.05 162.28 144.63 161.34 144.42 160.41 L 144.19 159.43 C 143.98 158.49 143.04 157.90 142.10 158.12 C 141.17 158.34 140.58 159.27 140.80 160.21 Z M 141.04 161.19 L 141.27 162.16 C 141.48 163.09 142.41 163.67 143.34 163.45 C 144.26 163.24 144.84 162.31 144.62 161.39 L 144.40 160.41 C 144.18 159.48 143.26 158.91 142.33 159.12 C 141.41 159.33 140.83 160.26 141.04 161.19 Z M 141.29 162.16 L 141.52 163.13 C 141.73 164.05 142.64 164.62 143.56 164.40 C 144.47 164.19 145.04 163.27 144.83 162.36 L 144.60 161.39 C 144.39 160.47 143.48 159.90 142.56 160.12 C 141.65 160.33 141.08 161.24 141.29 162.16 Z M 141.53 163.13 L 141.76 164.09 C 141.97 165.00 142.88 165.56 143.79 165.34 C 144.69 165.13 145.25 164.22 145.04 163.32 L 144.81 162.36 C 144.60 161.45 143.69 160.89 142.79 161.11 C 141.88 161.32 141.32 162.23 141.53 163.13 Z M 141.78 164.11 L 142.02 165.07 C 142.24 165.96 143.15 166.50 144.04 166.28 C 144.94 166.06 145.48 165.15 145.26 164.25 L 145.02 163.30 C 144.79 162.40 143.89 161.86 142.99 162.09 C 142.10 162.31 141.56 163.22 141.78 164.11 Z M 142.05 165.12 L 142.32 166.08 C 142.57 166.96 143.49 167.46 144.37 167.21 C 145.25 166.96 145.76 166.04 145.51 165.16 L 145.23 164.20 C 144.98 163.32 144.06 162.81 143.18 163.07 C 142.30 163.32 141.79 164.24 142.05 165.12 Z M 142.36 166.16 L 142.70 167.13 C 142.99 167.98 143.93 168.44 144.79 168.14 C 145.65 167.84 146.10 166.91 145.80 166.05 L 145.47 165.08 C 145.17 164.22 144.23 163.76 143.37 164.06 C 142.52 164.36 142.06 165.30 142.36 166.16 Z M 142.74 167.22 L 143.11 168.10 C 143.45 168.94 144.41 169.34 145.25 168.99 C 146.08 168.64 146.48 167.68 146.13 166.85 L 145.76 165.96 C 145.42 165.12 144.46 164.73 143.62 165.07 C 142.79 165.42 142.39 166.38 142.74 167.22 Z M 143.14 168.17 L 143.56 169.07 C 143.94 169.89 144.91 170.24 145.73 169.86 C 146.55 169.48 146.91 168.50 146.53 167.68 L 146.10 166.78 C 145.72 165.96 144.75 165.61 143.93 165.99 C 143.11 166.37 142.75 167.35 143.14 168.17 Z M 143.58 169.11 L 144.03 170.02 C 144.44 170.83 145.42 171.16 146.23 170.75 C 147.04 170.35 147.37 169.36 146.96 168.55 L 146.51 167.64 C 146.10 166.84 145.12 166.51 144.31 166.91 C 143.50 167.32 143.17 168.30 143.58 169.11 Z M 144.04 170.04 L 144.48 170.89 C 144.90 171.70 145.88 172.01 146.69 171.60 C 147.49 171.18 147.81 170.19 147.39 169.39 L 146.95 168.54 C 146.54 167.73 145.55 167.42 144.75 167.83 C 143.94 168.25 143.63 169.23 144.04 170.04 Z"
      fill="black"
      fill-rule="nonzero" /><path d="M 154.34 146.64 L 155.21 145.81 C 155.94 145.13 155.97 143.99 155.28 143.26 C 154.60 142.54 153.46 142.51 152.73 143.19 L 151.86 144.02 C 151.13 144.71 151.10 145.85 151.79 146.57 C 152.47 147.30 153.62 147.33 154.34 146.64 Z M 154.91 146.12 L 155.67 145.67 C 156.56 145.16 156.87 144.02 156.35 143.13 C 155.84 142.23 154.70 141.93 153.81 142.45 L 153.04 142.89 C 152.15 143.41 151.84 144.55 152.36 145.44 C 152.87 146.33 154.02 146.63 154.91 146.12 Z M 153.88 145.77 L 154.42 146.04 C 155.36 146.51 156.51 146.14 156.99 145.19 C 157.46 144.25 157.08 143.10 156.14 142.63 L 155.60 142.35 C 154.66 141.88 153.51 142.26 153.03 143.20 C 152.56 144.14 152.94 145.29 153.88 145.77 Z M 153.48 145.04 L 153.83 145.93 C 154.22 146.92 155.34 147.42 156.33 147.03 C 157.33 146.64 157.82 145.52 157.43 144.52 L 157.08 143.63 C 156.69 142.64 155.57 142.14 154.58 142.53 C 153.58 142.92 153.09 144.04 153.48 145.04 Z M 153.73 145.63 L 153.97 146.80 C 154.19 147.85 155.22 148.53 156.27 148.31 C 157.32 148.09 158.00 147.06 157.78 146.01 L 157.53 144.83 C 157.31 143.78 156.28 143.11 155.23 143.33 C 154.18 143.54 153.51 144.57 153.73 145.63 Z M 153.95 146.74 L 154.10 147.57 C 154.28 148.63 155.29 149.34 156.35 149.16 C 157.41 148.98 158.12 147.97 157.94 146.91 L 157.80 146.07 C 157.61 145.01 156.60 144.30 155.54 144.49 C 154.48 144.67 153.77 145.68 153.95 146.74 Z M 154.09 147.54 L 154.23 148.45 C 154.40 149.51 155.39 150.24 156.46 150.08 C 157.52 149.91 158.25 148.92 158.09 147.85 L 157.95 146.94 C 157.78 145.88 156.79 145.15 155.72 145.31 C 154.66 145.48 153.93 146.47 154.09 147.54 Z M 154.23 148.41 L 154.37 149.45 C 154.51 150.52 155.50 151.27 156.56 151.12 C 157.63 150.98 158.38 150.00 158.23 148.93 L 158.09 147.89 C 157.95 146.82 156.97 146.08 155.90 146.22 C 154.83 146.36 154.08 147.35 154.23 148.41 Z M 154.37 149.42 L 154.51 150.60 C 154.64 151.67 155.61 152.44 156.68 152.31 C 157.74 152.18 158.51 151.21 158.38 150.14 L 158.24 148.96 C 158.11 147.89 157.14 147.13 156.07 147.26 C 155.00 147.38 154.24 148.35 154.37 149.42 Z M 154.51 150.58 L 154.60 151.48 C 154.72 152.55 155.68 153.32 156.75 153.21 C 157.82 153.09 158.59 152.13 158.48 151.06 L 158.38 150.16 C 158.26 149.09 157.30 148.32 156.23 148.43 C 155.16 148.55 154.39 149.51 154.51 150.58 Z M 154.61 151.47 L 154.70 152.44 C 154.81 153.51 155.77 154.28 156.84 154.17 C 157.91 154.06 158.69 153.11 158.58 152.04 L 158.48 151.07 C 158.37 150.00 157.41 149.22 156.34 149.33 C 155.27 149.44 154.50 150.40 154.61 151.47 Z M 154.71 152.42 L 154.80 153.44 C 154.91 154.51 155.86 155.29 156.93 155.19 C 157.99 155.08 158.78 154.13 158.67 153.07 L 158.58 152.05 C 158.47 150.98 157.52 150.20 156.45 150.30 C 155.38 150.41 154.60 151.36 154.71 152.42 Z M 154.80 153.43 L 154.90 154.47 C 155.00 155.54 155.94 156.32 157.01 156.23 C 158.08 156.13 158.86 155.18 158.77 154.12 L 158.67 153.08 C 158.58 152.01 157.63 151.22 156.56 151.32 C 155.49 151.42 154.71 152.36 154.80 153.43 Z M 154.90 154.46 L 154.99 155.50 C 155.08 156.57 156.02 157.36 157.09 157.27 C 158.15 157.18 158.95 156.24 158.86 155.17 L 158.77 154.13 C 158.68 153.06 157.74 152.27 156.67 152.36 C 155.60 152.45 154.81 153.39 154.90 154.46 Z M 154.99 155.49 L 155.07 156.51 C 155.16 157.58 156.09 158.37 157.16 158.29 C 158.22 158.20 159.02 157.27 158.94 156.20 L 158.85 155.18 C 158.77 154.11 157.84 153.32 156.77 153.40 C 155.70 153.49 154.91 154.42 154.99 155.49 Z M 155.08 156.49 L 155.16 157.63 C 155.24 158.69 156.16 159.49 157.22 159.41 C 158.29 159.34 159.08 158.42 159.01 157.35 L 158.93 156.22 C 158.85 155.15 157.93 154.36 156.86 154.43 C 155.80 154.51 155.00 155.43 155.08 156.49 Z M 155.18 157.61 L 155.25 158.70 C 155.32 159.75 156.23 160.55 157.28 160.48 C 158.33 160.42 159.13 159.51 159.06 158.46 L 158.99 157.37 C 158.92 156.32 158.01 155.52 156.96 155.59 C 155.91 155.66 155.11 156.56 155.18 157.61 Z M 155.27 158.69 L 155.33 159.71 C 155.39 160.75 156.28 161.54 157.32 161.48 C 158.36 161.42 159.16 160.53 159.10 159.49 L 159.04 158.47 C 158.98 157.43 158.09 156.64 157.05 156.70 C 156.01 156.76 155.21 157.65 155.27 158.69 Z M 155.35 159.70 L 155.40 160.64 C 155.46 161.67 156.33 162.46 157.36 162.40 C 158.39 162.35 159.18 161.47 159.13 160.44 L 159.08 159.50 C 159.02 158.47 158.14 157.68 157.12 157.73 C 156.09 157.79 155.30 158.67 155.35 159.70 Z M 155.42 160.63 L 155.46 161.50 C 155.51 162.52 156.38 163.30 157.40 163.25 C 158.42 163.20 159.20 162.33 159.15 161.32 L 159.11 160.45 C 159.06 159.43 158.19 158.65 157.17 158.70 C 156.16 158.75 155.37 159.61 155.42 160.63 Z M 155.49 161.49 L 155.54 162.54 C 155.59 163.54 156.44 164.32 157.44 164.27 C 158.45 164.22 159.22 163.37 159.17 162.37 L 159.12 161.32 C 159.08 160.32 158.22 159.54 157.22 159.59 C 156.22 159.64 155.44 160.49 155.49 161.49 Z M 155.57 162.53 L 155.62 163.57 C 155.67 164.55 156.50 165.31 157.49 165.27 C 158.47 165.22 159.23 164.39 159.19 163.41 L 159.14 162.37 C 159.09 161.39 158.26 160.62 157.28 160.67 C 156.29 160.71 155.53 161.55 155.57 162.53 Z M 155.66 163.56 L 155.70 164.50 C 155.74 165.46 156.56 166.21 157.52 166.17 C 158.49 166.13 159.24 165.31 159.19 164.34 L 159.15 163.41 C 159.11 162.44 158.29 161.70 157.33 161.74 C 156.36 161.78 155.61 162.60 155.66 163.56 Z M 155.73 164.50 L 155.77 165.42 C 155.81 166.36 156.61 167.10 157.56 167.06 C 158.51 167.01 159.24 166.21 159.20 165.27 L 159.16 164.35 C 159.12 163.40 158.32 162.67 157.37 162.71 C 156.42 162.75 155.69 163.55 155.73 164.50 Z M 155.80 165.42 L 155.84 166.41 C 155.88 167.35 156.67 168.07 157.60 168.03 C 158.54 167.99 159.26 167.20 159.22 166.27 L 159.18 165.27 C 159.13 164.34 158.35 163.61 157.41 163.65 C 156.48 163.69 155.75 164.48 155.80 165.42 Z M 155.85 166.41 L 155.90 167.41 C 155.94 168.34 156.72 169.06 157.64 169.02 C 158.57 168.97 159.29 168.19 159.25 167.27 L 159.20 166.27 C 159.16 165.34 158.38 164.63 157.46 164.67 C 156.53 164.71 155.81 165.49 155.85 166.41 Z M 155.91 167.41 L 155.95 168.38 C 155.99 169.30 156.77 170.01 157.69 169.97 C 158.60 169.93 159.31 169.16 159.27 168.24 L 159.23 167.27 C 159.19 166.35 158.42 165.64 157.50 165.68 C 156.58 165.72 155.87 166.50 155.91 167.41 Z M 155.96 168.38 L 156.00 169.26 C 156.04 170.17 156.81 170.88 157.72 170.84 C 158.63 170.80 159.34 170.03 159.30 169.12 L 159.27 168.24 C 159.23 167.33 158.46 166.62 157.55 166.66 C 156.63 166.70 155.92 167.47 155.96 168.38 Z M 156.00 169.24 L 156.03 170.20 C 156.07 171.11 156.83 171.82 157.74 171.79 C 158.65 171.76 159.36 171.00 159.33 170.09 L 159.30 169.13 C 159.27 168.22 158.50 167.51 157.59 167.54 C 156.68 167.57 155.97 168.33 156.00 169.24 Z M 156.04 170.18 L 156.06 171.29 C 156.09 172.20 156.84 172.92 157.75 172.89 C 158.66 172.87 159.38 172.12 159.36 171.21 L 159.33 170.10 C 159.31 169.20 158.55 168.48 157.64 168.50 C 156.74 168.52 156.02 169.27 156.04 170.18 Z M 156.07 171.27 L 156.08 172.28 C 156.09 173.19 156.84 173.92 157.75 173.90 C 158.66 173.89 159.38 173.14 159.37 172.24 L 159.35 171.22 C 159.34 170.32 158.59 169.59 157.69 169.60 C 156.78 169.62 156.05 170.36 156.07 171.27 Z M 156.08 172.27 L 156.09 173.22 C 156.10 174.12 156.84 174.85 157.75 174.85 C 158.65 174.84 159.38 174.10 159.37 173.19 L 159.37 172.25 C 159.36 171.34 158.62 170.61 157.71 170.62 C 156.80 170.63 156.08 171.37 156.08 172.27 Z M 156.09 173.21 L 156.10 174.22 C 156.10 175.12 156.84 175.86 157.74 175.85 C 158.65 175.85 159.38 175.11 159.38 174.20 L 159.37 173.20 C 159.37 172.29 158.63 171.56 157.72 171.56 C 156.82 171.57 156.09 172.31 156.09 173.21 Z M 156.10 174.21 L 156.10 175.26 C 156.10 176.16 156.84 176.89 157.74 176.89 C 158.65 176.89 159.38 176.16 159.38 175.25 L 159.38 174.21 C 159.37 173.30 158.64 172.57 157.73 172.57 C 156.83 172.57 156.10 173.31 156.10 174.21 Z M 156.10 175.25 L 156.10 176.31 C 156.10 177.21 156.84 177.95 157.74 177.94 C 158.65 177.94 159.38 177.21 159.38 176.30 L 159.38 175.25 C 159.38 174.35 158.64 173.61 157.74 173.61 C 156.83 173.62 156.10 174.35 156.10 175.25 Z M 156.10 176.31 L 156.10 177.35 C 156.10 178.26 156.84 178.99 157.74 178.99 C 158.64 178.99 159.38 178.26 159.38 177.35 L 159.38 176.31 C 159.38 175.40 158.64 174.67 157.74 174.67 C 156.84 174.67 156.10 175.40 156.10 176.31 Z M 156.10 177.35 L 156.10 178.39 C 156.10 179.30 156.84 180.03 157.74 180.03 C 158.64 180.03 159.38 179.30 159.38 178.39 L 159.38 177.35 C 159.38 176.45 158.64 175.71 157.74 175.71 C 156.84 175.71 156.10 176.45 156.10 177.35 Z M 156.10 178.39 L 156.10 179.41 C 156.10 180.31 156.84 181.04 157.74 181.04 C 158.64 181.04 159.38 180.31 159.38 179.41 L 159.38 178.39 C 159.38 177.49 158.64 176.76 157.74 176.76 C 156.84 176.76 156.10 177.49 156.10 178.39 Z M 156.10 179.41 L 156.10 180.40 C 156.10 181.30 156.84 182.03 157.74 182.03 C 158.64 182.03 159.38 181.30 159.38 180.40 L 159.38 179.41 C 159.38 178.50 158.64 177.77 157.74 177.77 C 156.84 177.77 156.10 178.50 156.10 179.41 Z M 156.10 180.40 L 156.10 181.37 C 156.10 182.27 156.84 183.01 157.74 183.01 C 158.64 183.01 159.38 182.27 159.38 181.37 L 159.38 180.40 C 159.38 179.49 158.64 178.76 157.74 178.76 C 156.84 178.76 156.10 179.49 156.10 180.40 Z M 156.10 181.37 L 156.10 182.34 C 156.10 183.24 156.84 183.98 157.74 183.98 C 158.64 183.98 159.38 183.24 159.38 182.34 L 159.38 181.37 C 159.38 180.47 158.64 179.73 157.74 179.73 C 156.84 179.73 156.10 180.47 156.10 181.37 Z"
      fill="black"
      fill-rule="nonzero" /></svg>