<svg xmlns="http://www.w3.org/2000/svg" width="300" height="300" viewBox="0 0 300 300">
<path d="M 125.70 99.43 L 124.81 99.95 C 123.93 100.47 123.63 101.59 124.15 102.47 C 124.66 103.35 125.79 103.65 126.67 103.13 L 127.56 102.61 C 128.43 102.10 128.73 100.97 128.22 100.09 C 127.70 99.22 126.57 98.92 125.70 99.43 Z M 124.71 100.00 L 123.87 100.56 C 123.03 101.13 122.80 102.28 123.37 103.13 C 123.94 103.98 125.08 104.21 125.93 103.64 L 126.77 103.08 C 127.62 102.51 127.84 101.36 127.28 100.51 C 126.71 99.66 125.56 99.44 124.71 100.00 Z M 123.68 100.70 L 122.95 101.34 C 122.18 102.02 122.10 103.19 122.78 103.96 C 123.45 104.74 124.63 104.81 125.40 104.14 L 126.13 103.50 C 126.90 102.82 126.98 101.65 126.30 100.88 C 125.63 100.10 124.45 100.03 123.68 100.70 Z M 122.70 101.60 L 122.11 102.36 C 121.49 103.18 121.64 104.35 122.46 104.98 C 123.27 105.61 124.44 105.45 125.07 104.63 L 125.66 103.88 C 126.28 103.06 126.13 101.89 125.31 101.26 C 124.50 100.63 123.32 100.79 122.70 101.60 Z M 121.92 102.66 L 121.48 103.54 C 121.02 104.46 121.39 105.58 122.31 106.05 C 123.24 106.51 124.36 106.14 124.83 105.21 L 125.27 104.34 C 125.73 103.41 125.36 102.29 124.43 101.82 C 123.51 101.36 122.38 101.73 121.92 102.66 Z M 121.37 103.79 L 121.04 104.78 C 120.72 105.76 121.26 106.82 122.24 107.15 C 123.23 107.47 124.29 106.93 124.61 105.95 L 124.94 104.96 C 125.26 103.98 124.72 102.91 123.74 102.59 C 122.75 102.27 121.69 102.80 121.37 103.79 Z M 120.99 104.96 L 120.78 105.89 C 120.56 106.91 121.20 107.91 122.22 108.14 C 123.23 108.36 124.24 107.72 124.46 106.70 L 124.67 105.77 C 124.89 104.75 124.25 103.75 123.24 103.52 C 122.22 103.30 121.21 103.94 120.99 104.96 Z M 120.75 106.02 L 120.61 106.99 C 120.46 108.02 121.17 108.98 122.21 109.13 C 123.24 109.28 124.20 108.57 124.35 107.54 L 124.49 106.57 C 124.64 105.54 123.93 104.58 122.90 104.43 C 121.86 104.28 120.90 104.99 120.75 106.02 Z M 120.59 107.10 L 120.51 108.12 C 120.42 109.16 121.19 110.08 122.23 110.17 C 123.27 110.26 124.19 109.49 124.28 108.44 L 124.37 107.42 C 124.46 106.38 123.69 105.46 122.64 105.37 C 121.60 105.28 120.68 106.06 120.59 107.10 Z M 120.49 108.22 L 120.46 109.28 C 120.42 110.33 121.24 111.21 122.29 111.24 C 123.34 111.28 124.22 110.46 124.26 109.41 L 124.29 108.35 C 124.33 107.30 123.51 106.42 122.46 106.38 C 121.41 106.35 120.53 107.17 120.49 108.22 Z M 120.45 109.38 L 120.47 110.43 C 120.50 111.48 121.37 112.32 122.42 112.30 C 123.47 112.27 124.31 111.40 124.29 110.35 L 124.26 109.30 C 124.24 108.25 123.37 107.41 122.32 107.44 C 121.26 107.46 120.43 108.33 120.45 109.38 Z M 120.48 110.61 L 120.60 111.63 C 120.72 112.68 121.67 113.43 122.72 113.31 C 123.77 113.19 124.52 112.24 124.40 111.19 L 124.28 110.17 C 124.16 109.12 123.21 108.37 122.16 108.49 C 121.11 108.61 120.36 109.56 120.48 110.61 Z M 120.65 111.92 L 120.90 112.85 C 121.19 113.87 122.24 114.47 123.27 114.19 C 124.29 113.91 124.89 112.85 124.61 111.83 L 124.35 110.90 C 124.07 109.88 123.01 109.28 121.99 109.56 C 120.97 109.84 120.37 110.90 120.65 111.92 Z M 121.07 113.28 L 121.52 114.08 C 122.04 115.01 123.21 115.34 124.14 114.82 C 125.07 114.30 125.40 113.13 124.88 112.20 L 124.44 111.40 C 123.92 110.48 122.75 110.14 121.82 110.66 C 120.89 111.18 120.56 112.35 121.07 113.28 Z M 121.87 114.53 L 122.53 115.16 C 123.30 115.90 124.52 115.87 125.25 115.11 C 125.99 114.34 125.96 113.12 125.19 112.38 L 124.53 111.75 C 123.76 111.01 122.54 111.04 121.81 111.81 C 121.07 112.58 121.10 113.80 121.87 114.53 Z M 122.93 115.46 L 123.78 115.93 C 124.71 116.45 125.88 116.11 126.40 115.18 C 126.91 114.25 126.58 113.08 125.65 112.56 L 124.80 112.09 C 123.87 111.57 122.69 111.91 122.18 112.84 C 121.66 113.77 122.00 114.94 122.93 115.46 Z M 124.11 116.08 L 125.12 116.41 C 126.13 116.74 127.22 116.18 127.55 115.17 C 127.88 114.16 127.33 113.07 126.32 112.74 L 125.31 112.41 C 124.30 112.08 123.21 112.63 122.88 113.65 C 122.55 114.66 123.10 115.75 124.11 116.08 Z M 125.37 116.47 L 126.40 116.66 C 127.45 116.86 128.45 116.17 128.65 115.13 C 128.85 114.08 128.16 113.07 127.11 112.88 L 126.08 112.68 C 125.03 112.49 124.03 113.17 123.83 114.22 C 123.63 115.26 124.32 116.27 125.37 116.47 Z M 126.56 116.68 L 127.57 116.78 C 128.63 116.89 129.57 116.12 129.68 115.07 C 129.79 114.01 129.02 113.07 127.96 112.96 L 126.95 112.86 C 125.90 112.75 124.96 113.52 124.85 114.57 C 124.74 115.63 125.51 116.57 126.56 116.68 Z M 127.68 116.79 L 128.72 116.83 C 129.77 116.88 130.67 116.06 130.71 115.00 C 130.76 113.95 129.94 113.05 128.89 113.01 L 127.85 112.96 C 126.80 112.91 125.90 113.73 125.86 114.79 C 125.81 115.84 126.63 116.74 127.68 116.79 Z M 128.80 116.83 L 129.81 116.83 C 130.86 116.83 131.72 115.98 131.72 114.92 C 131.72 113.87 130.87 113.01 129.81 113.01 L 128.80 113.01 C 127.75 113.01 126.89 113.86 126.89 114.92 C 126.89 115.97 127.74 116.83 128.80 116.83 Z M 129.87 116.82 L 130.83 116.79 C 131.88 116.76 132.70 115.88 132.66 114.82 C 132.63 113.77 131.75 112.95 130.70 112.99 L 129.75 113.02 C 128.70 113.05 127.87 113.93 127.91 114.98 C 127.94 116.03 128.82 116.86 129.87 116.82 Z M 130.89 116.77 L 132.00 116.70 C 133.04 116.63 133.83 115.73 133.76 114.69 C 133.69 113.65 132.79 112.86 131.75 112.93 L 130.64 113.01 C 129.60 113.07 128.81 113.97 128.88 115.01 C 128.95 116.05 129.85 116.84 130.89 116.77 Z M 132.08 116.66 L 133.07 116.55 C 134.09 116.43 134.83 115.51 134.71 114.49 C 134.60 113.47 133.68 112.74 132.66 112.85 L 131.67 112.97 C 130.65 113.08 129.91 114.00 130.03 115.02 C 130.14 116.04 131.06 116.78 132.08 116.66 Z M 133.17 116.51 L 134.08 116.36 C 135.08 116.19 135.75 115.25 135.59 114.25 C 135.42 113.25 134.48 112.58 133.48 112.74 L 132.57 112.90 C 131.57 113.06 130.89 114.00 131.06 115.00 C 131.23 116.00 132.17 116.67 133.17 116.51 Z M 134.17 116.31 L 135.10 116.11 C 136.07 115.89 136.69 114.93 136.47 113.96 C 136.26 112.98 135.30 112.37 134.32 112.58 L 133.39 112.79 C 132.42 113.00 131.81 113.97 132.02 114.94 C 132.23 115.91 133.20 116.53 134.17 116.31 Z M 135.18 116.06 L 136.14 115.80 C 137.09 115.54 137.65 114.57 137.39 113.62 C 137.13 112.67 136.16 112.11 135.21 112.37 L 134.25 112.63 C 133.30 112.89 132.74 113.86 133.00 114.81 C 133.25 115.76 134.23 116.31 135.18 116.06 Z M 136.20 115.75 L 137.16 115.45 C 138.08 115.16 138.59 114.18 138.30 113.26 C 138.01 112.34 137.03 111.82 136.11 112.11 L 135.15 112.41 C 134.23 112.70 133.72 113.69 134.01 114.61 C 134.30 115.53 135.28 116.04 136.20 115.75 Z M 137.20 115.41 L 138.14 115.08 C 139.04 114.77 139.51 113.78 139.19 112.88 C 138.88 111.98 137.89 111.51 137.00 111.83 L 136.06 112.16 C 135.16 112.47 134.69 113.46 135.01 114.35 C 135.32 115.25 136.31 115.72 137.20 115.41 Z M 138.17 115.05 L 139.08 114.70 C 139.96 114.37 140.41 113.39 140.07 112.51 C 139.74 111.63 138.76 111.18 137.88 111.52 L 136.96 111.86 C 136.08 112.19 135.64 113.18 135.97 114.06 C 136.31 114.94 137.29 115.38 138.17 115.05 Z M 139.09 114.68 L 140.02 114.31 C 140.89 113.97 141.32 113.00 140.98 112.13 C 140.64 111.26 139.66 110.84 138.80 111.18 L 137.86 111.54 C 137.00 111.88 136.57 112.86 136.91 113.72 C 137.25 114.59 138.23 115.02 139.09 114.68 Z M 140.02 114.30 L 140.98 113.92 C 141.83 113.59 142.26 112.62 141.92 111.76 C 141.59 110.90 140.62 110.48 139.76 110.82 L 138.80 111.19 C 137.95 111.53 137.52 112.49 137.86 113.35 C 138.19 114.21 139.16 114.63 140.02 114.30 Z M 140.96 113.92 L 141.86 113.57 C 142.72 113.24 143.15 112.29 142.82 111.43 C 142.49 110.58 141.54 110.15 140.68 110.48 L 139.78 110.82 C 138.92 111.15 138.50 112.11 138.82 112.96 C 139.15 113.81 140.11 114.24 140.96 113.92 Z M 141.85 113.57 L 142.79 113.22 C 143.64 112.90 144.08 111.94 143.75 111.09 C 143.43 110.24 142.48 109.81 141.63 110.13 L 140.69 110.48 C 139.84 110.80 139.41 111.75 139.73 112.60 C 140.05 113.46 141.00 113.89 141.85 113.57 Z M 142.78 113.21 L 143.74 112.86 C 144.59 112.54 145.03 111.59 144.71 110.74 C 144.39 109.89 143.45 109.46 142.59 109.77 L 141.64 110.13 C 140.79 110.45 140.35 111.39 140.67 112.25 C 140.99 113.10 141.93 113.53 142.78 113.21 Z M 143.74 112.85 L 144.30 112.64 C 145.15 112.33 145.59 111.39 145.27 110.54 C 144.96 109.69 144.01 109.25 143.16 109.57 L 142.60 109.78 C 141.75 110.09 141.31 111.04 141.63 111.89 C 141.94 112.74 142.89 113.17 143.74 112.85 Z"
      fill="black"
      fill-rule="nonzero" /><path d="M 119.41 136.29 L 118.44 137.19 C 117.70 137.88 117.65 139.04 118.34 139.78 C 119.04 140.53 120.20 140.57 120.94 139.88 L 121.91 138.99 C 122.65 138.30 122.70 137.13 122.01 136.39 C 121.31 135.64 120.15 135.60 119.41 136.29 Z M 118.30 137.31 L 117.65 138.05 C 116.97 138.82 117.05 140.00 117.82 140.67 C 118.59 141.35 119.77 141.27 120.44 140.50 L 121.09 139.76 C 121.76 138.98 121.68 137.81 120.91 137.14 C 120.14 136.46 118.97 136.54 118.30 137.31 Z M 117.18 139.19 L 117.16 139.62 C 117.11 140.65 117.91 141.52 118.94 141.57 C 119.97 141.62 120.85 140.82 120.89 139.78 L 120.91 139.36 C 120.96 138.33 120.16 137.45 119.13 137.41 C 118.10 137.36 117.22 138.16 117.18 139.19 Z M 118.86 141.58 L 119.54 141.64 C 120.57 141.73 121.49 140.96 121.58 139.93 C 121.67 138.89 120.91 137.98 119.87 137.89 L 119.19 137.83 C 118.16 137.74 117.24 138.50 117.15 139.54 C 117.06 140.57 117.82 141.48 118.86 141.58 Z M 120.03 141.62 L 121.19 141.42 C 122.22 141.23 122.90 140.25 122.72 139.23 C 122.54 138.20 121.56 137.51 120.53 137.70 L 119.38 137.90 C 118.35 138.08 117.66 139.06 117.84 140.09 C 118.03 141.12 119.01 141.80 120.03 141.62 Z M 121.35 141.39 L 122.52 141.08 C 123.53 140.81 124.13 139.77 123.87 138.76 C 123.60 137.75 122.56 137.14 121.55 137.41 L 120.37 137.73 C 119.36 137.99 118.76 139.03 119.03 140.04 C 119.30 141.05 120.33 141.66 121.35 141.39 Z M 122.60 141.05 L 123.49 140.77 C 124.49 140.46 125.05 139.40 124.74 138.40 C 124.43 137.41 123.37 136.85 122.37 137.16 L 121.47 137.44 C 120.47 137.75 119.92 138.81 120.23 139.81 C 120.54 140.81 121.60 141.36 122.60 141.05 Z M 123.54 140.76 L 124.47 140.44 C 125.46 140.10 125.98 139.03 125.65 138.04 C 125.31 137.05 124.24 136.53 123.25 136.86 L 122.32 137.18 C 121.33 137.51 120.81 138.59 121.14 139.57 C 121.48 140.56 122.55 141.09 123.54 140.76 Z M 124.50 140.42 L 125.46 140.07 C 126.44 139.72 126.95 138.64 126.59 137.66 C 126.24 136.68 125.16 136.17 124.18 136.53 L 123.22 136.88 C 122.24 137.23 121.73 138.31 122.09 139.29 C 122.44 140.27 123.52 140.78 124.50 140.42 Z M 125.49 140.06 L 126.49 139.68 C 127.46 139.31 127.95 138.23 127.58 137.25 C 127.21 136.28 126.12 135.80 125.15 136.16 L 124.15 136.54 C 123.18 136.91 122.69 138.00 123.06 138.97 C 123.43 139.94 124.52 140.43 125.49 140.06 Z M 126.50 139.67 L 127.48 139.29 C 128.44 138.91 128.92 137.82 128.54 136.86 C 128.17 135.89 127.08 135.42 126.11 135.79 L 125.14 136.18 C 124.17 136.55 123.69 137.64 124.07 138.61 C 124.45 139.57 125.54 140.05 126.50 139.67 Z M 127.49 139.28 L 128.46 138.89 C 129.42 138.51 129.88 137.42 129.50 136.46 C 129.12 135.51 128.03 135.04 127.07 135.42 L 126.10 135.80 C 125.14 136.19 124.68 137.27 125.06 138.23 C 125.44 139.19 126.53 139.66 127.49 139.28 Z M 128.46 138.88 L 129.42 138.50 C 130.37 138.12 130.84 137.03 130.45 136.08 C 130.07 135.12 128.99 134.66 128.03 135.04 L 127.07 135.43 C 126.12 135.81 125.65 136.89 126.04 137.85 C 126.42 138.80 127.50 139.27 128.46 138.88 Z M 129.42 138.49 L 130.34 138.12 C 131.29 137.74 131.76 136.66 131.37 135.71 C 130.99 134.76 129.91 134.29 128.96 134.68 L 128.03 135.05 C 127.08 135.43 126.62 136.51 127.00 137.46 C 127.39 138.41 128.47 138.87 129.42 138.49 Z M 130.34 138.12 L 131.20 137.77 C 132.15 137.39 132.62 136.32 132.24 135.37 C 131.86 134.42 130.78 133.96 129.84 134.34 L 128.97 134.68 C 128.02 135.06 127.56 136.13 127.94 137.08 C 128.31 138.03 129.39 138.49 130.34 138.12 Z M 131.19 137.76 L 132.19 137.37 C 133.13 137.01 133.60 135.94 133.23 134.99 C 132.86 134.05 131.79 133.58 130.85 133.95 L 129.85 134.34 C 128.91 134.71 128.44 135.78 128.81 136.72 C 129.18 137.67 130.24 138.13 131.19 137.76 Z M 132.16 137.37 L 133.12 137.00 C 134.06 136.65 134.54 135.59 134.18 134.65 C 133.82 133.71 132.77 133.24 131.83 133.60 L 130.87 133.96 C 129.93 134.32 129.46 135.37 129.81 136.31 C 130.17 137.25 131.22 137.72 132.16 137.37 Z M 133.10 136.99 L 133.98 136.67 C 134.92 136.32 135.40 135.28 135.05 134.35 C 134.71 133.41 133.67 132.94 132.74 133.28 L 131.85 133.61 C 130.92 133.95 130.44 134.99 130.78 135.92 C 131.13 136.86 132.17 137.34 133.10 136.99 Z M 133.97 136.65 L 134.84 136.34 C 135.76 136.00 136.24 134.98 135.91 134.05 C 135.57 133.12 134.54 132.64 133.62 132.98 L 132.75 133.29 C 131.82 133.63 131.34 134.65 131.68 135.58 C 132.02 136.51 133.04 136.99 133.97 136.65 Z M 134.83 136.33 L 135.74 136.00 C 136.67 135.66 137.14 134.65 136.81 133.73 C 136.48 132.80 135.46 132.33 134.54 132.66 L 133.62 132.99 C 132.70 133.32 132.22 134.34 132.56 135.26 C 132.89 136.18 133.91 136.66 134.83 136.33 Z M 135.74 135.99 L 136.68 135.65 C 137.60 135.32 138.07 134.31 137.74 133.39 C 137.42 132.48 136.41 132.00 135.49 132.33 L 134.55 132.67 C 133.63 133.00 133.15 134.01 133.48 134.92 C 133.81 135.84 134.82 136.32 135.74 135.99 Z M 136.67 135.64 L 137.63 135.30 C 138.55 134.98 139.02 133.97 138.70 133.06 C 138.37 132.15 137.37 131.67 136.46 132.00 L 135.50 132.34 C 134.58 132.66 134.11 133.67 134.43 134.58 C 134.76 135.49 135.76 135.97 136.67 135.64 Z M 137.63 135.29 L 138.57 134.96 C 139.48 134.64 139.96 133.64 139.64 132.73 C 139.32 131.83 138.32 131.35 137.41 131.67 L 136.47 132.00 C 135.56 132.32 135.08 133.32 135.40 134.23 C 135.72 135.14 136.72 135.61 137.63 135.29 Z M 138.57 134.95 L 139.51 134.62 C 140.41 134.31 140.89 133.32 140.57 132.41 C 140.26 131.51 139.27 131.03 138.36 131.35 L 137.42 131.68 C 136.52 131.99 136.04 132.98 136.36 133.89 C 136.67 134.79 137.66 135.27 138.57 134.95 Z M 139.50 134.61 L 140.45 134.28 C 141.35 133.97 141.82 132.99 141.51 132.09 C 141.20 131.19 140.22 130.71 139.32 131.03 L 138.37 131.36 C 137.47 131.67 136.99 132.65 137.31 133.55 C 137.62 134.45 138.60 134.93 139.50 134.61 Z M 140.44 134.28 L 141.39 133.95 C 142.29 133.64 142.76 132.66 142.45 131.77 C 142.14 130.87 141.17 130.40 140.27 130.71 L 139.32 131.03 C 138.43 131.34 137.95 132.32 138.26 133.22 C 138.57 134.11 139.55 134.59 140.44 134.28 Z M 141.39 133.94 L 142.31 133.62 C 143.20 133.31 143.67 132.34 143.37 131.45 C 143.06 130.56 142.09 130.09 141.19 130.39 L 140.27 130.71 C 139.38 131.02 138.91 131.99 139.22 132.89 C 139.53 133.78 140.50 134.25 141.39 133.94 Z M 142.31 133.61 L 143.24 133.29 C 144.13 132.98 144.60 132.01 144.29 131.12 C 143.98 130.24 143.01 129.77 142.13 130.08 L 141.20 130.40 C 140.31 130.71 139.84 131.68 140.15 132.57 C 140.46 133.45 141.43 133.92 142.31 133.61 Z M 143.25 133.28 L 144.20 132.94 C 145.08 132.63 145.54 131.67 145.23 130.79 C 144.92 129.91 143.96 129.44 143.08 129.75 L 142.13 130.09 C 141.24 130.40 140.78 131.36 141.09 132.24 C 141.40 133.12 142.37 133.59 143.25 133.28 Z M 144.20 132.93 L 145.17 132.59 C 146.04 132.28 146.50 131.31 146.19 130.44 C 145.88 129.56 144.92 129.11 144.04 129.42 L 143.07 129.76 C 142.20 130.07 141.74 131.04 142.05 131.91 C 142.37 132.79 143.33 133.24 144.20 132.93 Z M 145.17 132.58 L 146.12 132.24 C 146.99 131.92 147.44 130.96 147.13 130.09 C 146.81 129.22 145.85 128.77 144.98 129.09 L 144.04 129.43 C 143.17 129.74 142.72 130.70 143.03 131.57 C 143.34 132.44 144.30 132.89 145.17 132.58 Z M 146.12 132.23 L 147.08 131.88 C 147.94 131.57 148.39 130.61 148.07 129.74 C 147.76 128.88 146.80 128.43 145.93 128.75 L 144.98 129.10 C 144.12 129.41 143.67 130.37 143.99 131.23 C 144.30 132.10 145.26 132.54 146.12 132.23 Z M 147.08 131.87 L 148.02 131.53 C 148.88 131.21 149.32 130.26 149.00 129.40 C 148.69 128.54 147.73 128.10 146.87 128.41 L 145.93 128.76 C 145.07 129.07 144.63 130.03 144.95 130.89 C 145.26 131.75 146.22 132.19 147.08 131.87 Z M 148.02 131.52 L 148.93 131.18 C 149.78 130.87 150.22 129.91 149.90 129.06 C 149.59 128.20 148.64 127.77 147.78 128.08 L 146.87 128.42 C 146.01 128.74 145.58 129.69 145.89 130.54 C 146.21 131.40 147.16 131.84 148.02 131.52 Z M 148.93 131.18 L 149.82 130.85 C 150.67 130.53 151.10 129.58 150.79 128.72 C 150.47 127.87 149.52 127.44 148.66 127.76 L 147.78 128.09 C 146.92 128.41 146.49 129.36 146.81 130.21 C 147.13 131.06 148.08 131.50 148.93 131.18 Z M 149.83 130.84 L 150.72 130.50 C 151.57 130.17 152.00 129.22 151.68 128.37 C 151.35 127.52 150.40 127.10 149.55 127.42 L 148.65 127.76 C 147.80 128.09 147.38 129.04 147.70 129.89 C 148.03 130.74 148.98 131.16 149.83 130.84 Z M 150.74 130.49 L 151.69 130.11 C 152.54 129.78 152.95 128.83 152.62 127.98 C 152.29 127.14 151.34 126.72 150.49 127.05 L 149.54 127.43 C 148.69 127.76 148.28 128.71 148.61 129.56 C 148.94 130.40 149.89 130.82 150.74 130.49 Z M 151.71 130.11 L 152.67 129.72 C 153.51 129.38 153.92 128.42 153.58 127.58 C 153.24 126.74 152.28 126.33 151.44 126.67 L 150.48 127.06 C 149.64 127.40 149.23 128.36 149.57 129.20 C 149.91 130.04 150.87 130.45 151.71 130.11 Z M 152.68 129.71 L 153.55 129.35 C 154.38 129.01 154.78 128.05 154.43 127.21 C 154.09 126.37 153.13 125.98 152.29 126.32 L 151.43 126.68 C 150.59 127.03 150.19 127.99 150.54 128.82 C 150.89 129.66 151.85 130.06 152.68 129.71 Z M 153.56 129.35 L 154.47 128.96 C 155.31 128.60 155.69 127.64 155.34 126.81 C 154.98 125.97 154.02 125.59 153.19 125.94 L 152.27 126.33 C 151.44 126.68 151.05 127.65 151.41 128.48 C 151.76 129.31 152.73 129.70 153.56 129.35 Z M 154.49 128.95 L 155.43 128.54 C 156.26 128.17 156.64 127.20 156.27 126.38 C 155.91 125.55 154.94 125.17 154.11 125.53 L 153.17 125.95 C 152.34 126.31 151.96 127.28 152.33 128.11 C 152.69 128.94 153.66 129.31 154.49 128.95 Z M 155.45 128.53 L 156.40 128.09 C 157.23 127.72 157.59 126.75 157.21 125.92 C 156.84 125.10 155.87 124.74 155.04 125.11 L 154.09 125.54 C 153.27 125.92 152.90 126.89 153.28 127.72 C 153.66 128.54 154.63 128.90 155.45 128.53 Z M 156.43 128.08 L 157.37 127.63 C 158.19 127.24 158.53 126.27 158.14 125.45 C 157.75 124.63 156.78 124.29 155.96 124.67 L 155.02 125.12 C 154.20 125.51 153.85 126.49 154.24 127.31 C 154.63 128.12 155.61 128.47 156.43 128.08 Z M 157.40 127.62 L 158.31 127.16 C 159.12 126.75 159.45 125.77 159.05 124.96 C 158.64 124.15 157.66 123.82 156.85 124.23 L 155.93 124.69 C 155.12 125.09 154.79 126.08 155.20 126.89 C 155.60 127.69 156.59 128.02 157.40 127.62 Z M 158.34 127.15 L 159.23 126.68 C 160.03 126.26 160.35 125.27 159.93 124.47 C 159.51 123.67 158.52 123.36 157.72 123.78 L 156.82 124.24 C 156.02 124.66 155.71 125.65 156.13 126.45 C 156.55 127.25 157.54 127.56 158.34 127.15 Z M 159.25 126.67 L 160.13 126.20 C 160.92 125.77 161.22 124.77 160.79 123.98 C 160.36 123.18 159.37 122.88 158.58 123.31 L 157.70 123.79 C 156.90 124.21 156.60 125.21 157.03 126.00 C 157.46 126.80 158.46 127.10 159.25 126.67 Z M 160.14 126.19 L 161.01 125.71 C 161.80 125.28 162.09 124.28 161.65 123.49 C 161.22 122.70 160.22 122.41 159.43 122.84 L 158.56 123.32 C 157.77 123.76 157.48 124.75 157.92 125.55 C 158.35 126.34 159.35 126.63 160.14 126.19 Z M 161.01 125.71 L 161.87 125.23 C 162.66 124.79 162.95 123.79 162.51 123.00 C 162.07 122.21 161.07 121.93 160.28 122.37 L 159.42 122.85 C 158.63 123.29 158.35 124.29 158.79 125.08 C 159.23 125.87 160.22 126.15 161.01 125.71 Z M 161.87 125.23 L 162.04 125.14 C 162.83 124.70 163.11 123.70 162.67 122.91 C 162.23 122.12 161.23 121.84 160.44 122.28 L 160.28 122.37 C 159.49 122.81 159.21 123.81 159.65 124.60 C 160.09 125.39 161.09 125.67 161.87 125.23 Z"
      fill="black"
      fill-rule="nonzero" /><path d="M 135.31 117.88 L 134.77 118.76 C 134.26 119.60 134.53 120.70 135.38 121.21 C 136.22 121.72 137.32 121.45 137.83 120.61 L 138.37 119.73 C 138.88 118.88 138.61 117.78 137.76 117.27 C 136.92 116.76 135.82 117.03 135.31 117.88 Z M 134.76 118.75 L 134.23 119.63 C 133.72 120.49 134.00 121.59 134.85 122.11 C 135.71 122.62 136.81 122.34 137.33 121.49 L 137.85 120.61 C 138.36 119.75 138.09 118.65 137.23 118.13 C 136.38 117.62 135.27 117.90 134.76 118.75 Z M 134.21 119.64 L 133.70 120.50 C 133.19 121.37 133.48 122.49 134.35 122.99 C 135.21 123.50 136.33 123.21 136.84 122.35 L 137.35 121.48 C 137.86 120.61 137.57 119.50 136.70 118.99 C 135.83 118.48 134.72 118.77 134.21 119.64 Z M 133.68 120.52 L 133.19 121.37 C 132.69 122.25 132.99 123.37 133.87 123.87 C 134.75 124.38 135.87 124.07 136.37 123.19 L 136.86 122.33 C 137.36 121.45 137.06 120.33 136.18 119.83 C 135.30 119.33 134.18 119.64 133.68 120.52 Z M 133.16 121.40 L 132.70 122.23 C 132.21 123.13 132.54 124.25 133.44 124.74 C 134.33 125.23 135.46 124.90 135.95 124.01 L 136.40 123.17 C 136.89 122.27 136.56 121.15 135.67 120.66 C 134.77 120.17 133.65 120.50 133.16 121.40 Z M 132.67 122.27 L 132.23 123.13 C 131.76 124.04 132.12 125.16 133.04 125.63 C 133.95 126.10 135.07 125.74 135.54 124.82 L 135.98 123.97 C 136.45 123.05 136.08 121.93 135.17 121.47 C 134.26 121.00 133.14 121.36 132.67 122.27 Z M 132.20 123.18 L 131.79 124.04 C 131.36 124.97 131.76 126.09 132.69 126.52 C 133.62 126.96 134.73 126.56 135.17 125.63 L 135.57 124.77 C 136.01 123.83 135.61 122.72 134.68 122.29 C 133.75 121.85 132.64 122.25 132.20 123.18 Z M 131.76 124.11 L 131.38 125.01 C 130.98 125.96 131.43 127.06 132.38 127.46 C 133.33 127.86 134.43 127.41 134.83 126.46 L 135.21 125.56 C 135.61 124.61 135.16 123.51 134.21 123.11 C 133.25 122.71 132.16 123.16 131.76 124.11 Z M 131.35 125.08 L 130.99 126.05 C 130.62 127.02 131.12 128.10 132.09 128.46 C 133.06 128.82 134.14 128.33 134.50 127.36 L 134.86 126.39 C 135.22 125.42 134.73 124.34 133.76 123.98 C 132.79 123.61 131.71 124.11 131.35 125.08 Z M 130.96 126.12 L 130.63 127.12 C 130.30 128.11 130.84 129.17 131.83 129.50 C 132.82 129.82 133.88 129.28 134.20 128.29 L 134.53 127.29 C 134.86 126.30 134.32 125.24 133.33 124.92 C 132.34 124.59 131.28 125.13 130.96 126.12 Z M 130.61 127.18 L 130.34 128.08 C 130.05 129.08 130.62 130.13 131.61 130.42 C 132.61 130.72 133.66 130.15 133.95 129.15 L 134.22 128.24 C 134.52 127.24 133.95 126.20 132.95 125.90 C 131.95 125.61 130.90 126.18 130.61 127.18 Z M 130.33 128.12 L 130.07 129.08 C 129.79 130.09 130.39 131.12 131.39 131.40 C 132.40 131.67 133.43 131.07 133.71 130.07 L 133.97 129.11 C 134.24 128.11 133.65 127.07 132.64 126.80 C 131.64 126.52 130.60 127.12 130.33 128.12 Z M 130.06 129.11 L 129.81 130.11 C 129.55 131.12 130.16 132.14 131.17 132.40 C 132.18 132.65 133.21 132.04 133.47 131.03 L 133.72 130.04 C 133.97 129.03 133.36 128.00 132.35 127.75 C 131.34 127.49 130.31 128.10 130.06 129.11 Z M 129.80 130.13 L 129.56 131.14 C 129.32 132.15 129.95 133.17 130.96 133.41 C 131.98 133.65 133.00 133.02 133.24 132.01 L 133.47 131.00 C 133.71 129.99 133.08 128.97 132.07 128.73 C 131.05 128.49 130.04 129.12 129.80 130.13 Z M 129.55 131.16 L 129.33 132.17 C 129.11 133.19 129.75 134.19 130.77 134.42 C 131.79 134.64 132.80 134.00 133.02 132.98 L 133.24 131.98 C 133.47 130.96 132.83 129.95 131.81 129.73 C 130.79 129.50 129.78 130.15 129.55 131.16 Z M 129.33 132.19 L 129.12 133.17 C 128.91 134.19 129.57 135.19 130.59 135.40 C 131.61 135.62 132.61 134.96 132.83 133.94 L 133.03 132.96 C 133.24 131.93 132.58 130.93 131.56 130.72 C 130.54 130.51 129.54 131.17 129.33 132.19 Z M 129.12 133.19 L 128.93 134.14 C 128.74 135.16 129.41 136.16 130.43 136.35 C 131.46 136.55 132.45 135.88 132.65 134.86 L 132.83 133.91 C 133.03 132.89 132.36 131.89 131.33 131.70 C 130.31 131.50 129.32 132.17 129.12 133.19 Z M 128.93 134.16 L 128.76 135.10 C 128.58 136.12 129.26 137.11 130.29 137.29 C 131.32 137.47 132.30 136.79 132.48 135.76 L 132.65 134.83 C 132.84 133.80 132.15 132.82 131.13 132.64 C 130.10 132.45 129.12 133.14 128.93 134.16 Z M 128.76 135.12 L 128.60 136.06 C 128.43 137.09 129.13 138.06 130.16 138.23 C 131.18 138.41 132.16 137.71 132.33 136.68 L 132.49 135.74 C 132.66 134.71 131.96 133.74 130.94 133.57 C 129.91 133.39 128.93 134.09 128.76 135.12 Z M 128.60 136.08 L 128.45 137.05 C 128.29 138.08 128.99 139.05 130.02 139.21 C 131.05 139.37 132.02 138.67 132.18 137.64 L 132.33 136.66 C 132.49 135.63 131.79 134.67 130.76 134.51 C 129.73 134.34 128.76 135.05 128.60 136.08 Z M 128.45 137.07 L 128.30 138.10 C 128.14 139.13 128.85 140.09 129.88 140.24 C 130.92 140.39 131.88 139.68 132.03 138.65 L 132.18 137.62 C 132.33 136.59 131.62 135.63 130.59 135.48 C 129.56 135.33 128.60 136.04 128.45 137.07 Z M 128.29 138.11 L 128.14 139.21 C 127.99 140.24 128.71 141.19 129.74 141.34 C 130.77 141.49 131.72 140.77 131.87 139.74 L 132.03 138.64 C 132.18 137.61 131.46 136.65 130.43 136.51 C 129.40 136.36 128.44 137.07 128.29 138.11 Z M 128.14 139.21 L 128.00 140.19 C 127.86 141.22 128.57 142.18 129.60 142.32 C 130.64 142.46 131.59 141.75 131.73 140.72 L 131.87 139.74 C 132.01 138.70 131.30 137.75 130.27 137.61 C 129.24 137.46 128.28 138.18 128.14 139.21 Z M 128.00 140.20 L 127.86 141.22 C 127.72 142.25 128.44 143.20 129.47 143.34 C 130.50 143.49 131.45 142.77 131.59 141.74 L 131.73 140.71 C 131.87 139.68 131.15 138.73 130.12 138.59 C 129.09 138.45 128.14 139.17 128.00 140.20 Z M 127.86 141.22 L 127.72 142.27 C 127.58 143.30 128.30 144.25 129.33 144.39 C 130.36 144.53 131.30 143.81 131.44 142.78 L 131.59 141.73 C 131.73 140.71 131.01 139.76 129.98 139.62 C 128.95 139.48 128.00 140.20 127.86 141.22 Z M 127.72 142.27 L 127.58 143.32 C 127.44 144.35 128.16 145.29 129.19 145.43 C 130.22 145.57 131.16 144.85 131.30 143.82 L 131.44 142.78 C 131.58 141.75 130.86 140.80 129.83 140.66 C 128.81 140.53 127.86 141.25 127.72 142.27 Z M 127.58 143.32 L 127.44 144.34 C 127.31 145.37 128.03 146.31 129.05 146.45 C 130.08 146.59 131.02 145.87 131.16 144.84 L 131.30 143.82 C 131.44 142.79 130.72 141.85 129.69 141.71 C 128.66 141.57 127.72 142.29 127.58 143.32 Z M 127.45 144.34 L 127.32 145.32 C 127.18 146.34 127.90 147.29 128.93 147.42 C 129.95 147.56 130.89 146.84 131.03 145.81 L 131.16 144.84 C 131.30 143.81 130.58 142.87 129.55 142.73 C 128.52 142.60 127.58 143.32 127.45 144.34 Z M 127.32 145.32 L 127.20 146.22 C 127.06 147.25 127.79 148.19 128.81 148.32 C 129.84 148.46 130.78 147.74 130.91 146.71 L 131.03 145.81 C 131.16 144.78 130.44 143.84 129.42 143.71 C 128.39 143.57 127.45 144.30 127.32 145.32 Z M 127.21 146.23 L 127.06 147.32 C 126.93 148.34 127.65 149.27 128.67 149.41 C 129.69 149.54 130.63 148.82 130.76 147.80 L 130.90 146.71 C 131.04 145.69 130.32 144.75 129.30 144.62 C 128.27 144.49 127.34 145.21 127.21 146.23 Z M 127.08 147.32 L 126.94 148.40 C 126.81 149.42 127.53 150.34 128.54 150.47 C 129.56 150.60 130.48 149.88 130.61 148.87 L 130.75 147.79 C 130.88 146.78 130.16 145.85 129.15 145.72 C 128.13 145.59 127.21 146.31 127.08 147.32 Z M 126.96 148.42 L 126.84 149.36 C 126.72 150.36 127.44 151.28 128.44 151.40 C 129.45 151.52 130.36 150.81 130.48 149.80 L 130.60 148.86 C 130.72 147.85 130.00 146.94 129.00 146.82 C 127.99 146.70 127.08 147.41 126.96 148.42 Z M 126.86 149.37 L 126.76 150.26 C 126.64 151.26 127.36 152.16 128.35 152.27 C 129.35 152.39 130.25 151.67 130.36 150.68 L 130.47 149.79 C 130.58 148.79 129.87 147.89 128.87 147.78 C 127.87 147.66 126.97 148.38 126.86 149.37 Z M 126.77 150.27 L 126.67 151.18 C 126.57 152.17 127.28 153.06 128.27 153.16 C 129.25 153.27 130.14 152.56 130.25 151.57 L 130.35 150.66 C 130.45 149.68 129.74 148.79 128.75 148.68 C 127.77 148.57 126.88 149.29 126.77 150.27 Z M 126.69 151.19 L 126.59 152.09 C 126.49 153.07 127.20 153.95 128.18 154.05 C 129.16 154.16 130.04 153.44 130.14 152.46 L 130.24 151.56 C 130.34 150.58 129.63 149.70 128.65 149.60 C 127.67 149.50 126.79 150.21 126.69 151.19 Z M 126.60 152.10 L 126.50 153.07 C 126.40 154.04 127.12 154.91 128.09 155.01 C 129.07 155.11 129.94 154.40 130.04 153.42 L 130.14 152.46 C 130.23 151.48 129.52 150.61 128.55 150.51 C 127.57 150.41 126.70 151.12 126.60 152.10 Z M 126.51 153.07 L 126.41 154.09 C 126.32 155.06 127.03 155.92 128.00 156.02 C 128.97 156.11 129.84 155.40 129.93 154.43 L 130.03 153.42 C 130.13 152.44 129.41 151.58 128.44 151.48 C 127.47 151.39 126.60 152.10 126.51 153.07 Z M 126.42 154.09 L 126.32 155.13 C 126.23 156.10 126.94 156.96 127.91 157.05 C 128.88 157.14 129.74 156.43 129.83 155.46 L 129.93 154.42 C 130.02 153.45 129.30 152.59 128.34 152.50 C 127.37 152.41 126.51 153.13 126.42 154.09 Z M 126.33 155.14 L 126.24 156.19 C 126.15 157.15 126.86 158.01 127.82 158.09 C 128.79 158.18 129.64 157.47 129.73 156.50 L 129.82 155.45 C 129.91 154.49 129.20 153.64 128.23 153.55 C 127.27 153.47 126.42 154.18 126.33 155.14 Z M 126.25 156.20 L 126.16 157.20 C 126.08 158.16 126.79 159.00 127.75 159.09 C 128.70 159.17 129.55 158.46 129.63 157.50 L 129.72 156.50 C 129.80 155.54 129.09 154.69 128.13 154.61 C 127.17 154.53 126.33 155.24 126.25 156.20 Z M 126.17 157.21 L 126.09 158.20 C 126.01 159.15 126.72 159.99 127.67 160.07 C 128.62 160.15 129.45 159.44 129.53 158.49 L 129.62 157.50 C 129.70 156.54 128.99 155.71 128.04 155.63 C 127.09 155.55 126.25 156.26 126.17 157.21 Z M 126.10 158.21 L 126.02 159.20 C 125.94 160.14 126.65 160.97 127.59 161.05 C 128.53 161.13 129.36 160.42 129.44 159.48 L 129.52 158.49 C 129.60 157.54 128.90 156.72 127.95 156.64 C 127.01 156.56 126.18 157.26 126.10 158.21 Z M 126.03 159.20 L 125.95 160.19 C 125.87 161.13 126.57 161.95 127.51 162.03 C 128.44 162.11 129.27 161.41 129.34 160.47 L 129.43 159.48 C 129.50 158.54 128.81 157.72 127.87 157.64 C 126.93 157.57 126.11 158.26 126.03 159.20 Z M 125.97 160.19 L 125.88 161.19 C 125.80 162.12 126.49 162.93 127.42 163.01 C 128.35 163.09 129.17 162.40 129.25 161.47 L 129.33 160.48 C 129.41 159.55 128.72 158.73 127.79 158.65 C 126.86 158.57 126.04 159.26 125.97 160.19 Z M 125.89 161.18 L 125.81 162.17 C 125.73 163.09 126.41 163.90 127.33 163.98 C 128.25 164.06 129.07 163.38 129.15 162.46 L 129.23 161.48 C 129.31 160.56 128.63 159.74 127.71 159.66 C 126.79 159.58 125.97 160.26 125.89 161.18 Z M 125.81 162.16 L 125.72 163.14 C 125.64 164.05 126.31 164.87 127.23 164.95 C 128.15 165.04 128.96 164.36 129.05 163.44 L 129.14 162.47 C 129.22 161.55 128.55 160.74 127.63 160.65 C 126.71 160.57 125.90 161.24 125.81 162.16 Z M 125.73 163.13 L 125.63 164.11 C 125.54 165.03 126.21 165.84 127.12 165.93 C 128.04 166.02 128.85 165.35 128.94 164.44 L 129.04 163.45 C 129.13 162.54 128.46 161.73 127.55 161.64 C 126.64 161.54 125.82 162.21 125.73 163.13 Z M 125.64 164.10 L 125.54 165.10 C 125.44 166.01 126.10 166.82 127.01 166.92 C 127.92 167.02 128.73 166.36 128.83 165.45 L 128.94 164.45 C 129.03 163.54 128.37 162.73 127.46 162.63 C 126.55 162.53 125.74 163.19 125.64 164.10 Z M 125.54 165.09 L 125.43 166.09 C 125.32 167.00 125.97 167.82 126.88 167.92 C 127.78 168.03 128.60 167.38 128.71 166.47 L 128.82 165.46 C 128.93 164.56 128.28 163.74 127.37 163.64 C 126.47 163.53 125.65 164.18 125.54 165.09 Z M 125.43 166.08 L 125.31 167.09 C 125.19 167.99 125.83 168.82 126.73 168.93 C 127.63 169.04 128.46 168.40 128.57 167.50 L 128.70 166.49 C 128.81 165.59 128.17 164.77 127.27 164.65 C 126.37 164.54 125.55 165.18 125.43 166.08 Z M 125.31 167.08 L 125.18 168.05 C 125.06 168.95 125.69 169.77 126.59 169.90 C 127.48 170.02 128.31 169.39 128.43 168.49 L 128.56 167.52 C 128.69 166.62 128.06 165.79 127.16 165.67 C 126.26 165.55 125.43 166.18 125.31 167.08 Z M 125.18 168.04 L 125.04 169.02 C 124.91 169.92 125.53 170.75 126.43 170.88 C 127.33 171.01 128.16 170.38 128.29 169.49 L 128.43 168.50 C 128.56 167.61 127.94 166.78 127.04 166.65 C 126.14 166.52 125.31 167.14 125.18 168.04 Z M 125.04 169.01 L 124.90 170.00 C 124.76 170.89 125.38 171.73 126.27 171.86 C 127.17 172.00 128.00 171.38 128.14 170.49 L 128.29 169.50 C 128.42 168.60 127.80 167.77 126.91 167.63 C 126.01 167.50 125.18 168.11 125.04 169.01 Z M 124.90 169.99 L 124.74 170.99 C 124.60 171.88 125.22 172.72 126.11 172.86 C 127.01 173.00 127.84 172.38 127.98 171.49 L 128.14 170.49 C 128.27 169.60 127.66 168.76 126.77 168.62 C 125.87 168.49 125.04 169.10 124.90 169.99 Z M 124.74 170.98 L 124.59 171.98 C 124.45 172.88 125.06 173.71 125.95 173.86 C 126.84 174.00 127.68 173.39 127.82 172.49 L 127.98 171.49 C 128.12 170.60 127.51 169.76 126.62 169.62 C 125.72 169.48 124.89 170.09 124.74 170.98 Z M 124.59 171.98 L 124.48 172.67 C 124.34 173.56 124.95 174.40 125.84 174.54 C 126.73 174.69 127.57 174.08 127.71 173.18 L 127.82 172.49 C 127.96 171.60 127.35 170.76 126.46 170.62 C 125.57 170.48 124.73 171.09 124.59 171.98 Z"
      fill="black"
      fill-rule="nonzero" /><path d="M 136.38 146.05 L 136.90 146.86 C 137.45 147.69 138.57 147.93 139.40 147.39 C 140.24 146.84 140.48 145.72 139.94 144.88 L 139.42 144.08 C 138.87 143.24 137.75 143.01 136.91 143.55 C 136.07 144.09 135.84 145.22 136.38 146.05 Z M 136.89 146.84 L 137.41 147.66 C 137.95 148.51 139.07 148.76 139.91 148.22 C 140.76 147.68 141.01 146.56 140.47 145.72 L 139.95 144.90 C 139.41 144.05 138.29 143.81 137.45 144.34 C 136.60 144.88 136.36 146.00 136.89 146.84 Z M 137.40 147.63 L 137.92 148.50 C 138.44 149.35 139.56 149.62 140.41 149.10 C 141.27 148.58 141.54 147.47 141.02 146.62 L 140.49 145.75 C 139.97 144.90 138.85 144.63 138.00 145.15 C 137.15 145.67 136.88 146.78 137.40 147.63 Z M 137.90 148.46 L 138.43 149.37 C 138.92 150.24 140.03 150.54 140.90 150.04 C 141.77 149.54 142.06 148.43 141.56 147.57 L 141.04 146.65 C 140.54 145.79 139.43 145.49 138.57 145.99 C 137.70 146.49 137.40 147.59 137.90 148.46 Z M 138.40 149.34 L 138.89 150.23 C 139.37 151.11 140.48 151.44 141.36 150.96 C 142.24 150.47 142.56 149.37 142.08 148.49 L 141.59 147.60 C 141.11 146.72 140.00 146.39 139.12 146.88 C 138.24 147.36 137.92 148.46 138.40 149.34 Z M 138.88 150.24 L 139.37 151.14 C 139.85 152.03 140.96 152.36 141.85 151.87 C 142.74 151.39 143.06 150.28 142.58 149.39 L 142.09 148.49 C 141.61 147.60 140.50 147.27 139.61 147.76 C 138.72 148.24 138.40 149.35 138.88 150.24 Z M 139.38 151.17 L 139.87 152.05 C 140.37 152.94 141.50 153.25 142.38 152.75 C 143.26 152.25 143.57 151.13 143.07 150.24 L 142.58 149.36 C 142.08 148.48 140.96 148.17 140.07 148.67 C 139.19 149.17 138.88 150.29 139.38 151.17 Z M 139.90 152.12 L 140.40 152.93 C 140.94 153.80 142.08 154.07 142.94 153.53 C 143.81 152.99 144.08 151.85 143.55 150.98 L 143.05 150.18 C 142.51 149.31 141.37 149.04 140.50 149.57 C 139.63 150.11 139.36 151.25 139.90 152.12 Z M 140.47 153.04 L 141.06 153.86 C 141.66 154.68 142.82 154.87 143.65 154.27 C 144.48 153.67 144.66 152.51 144.06 151.68 L 143.47 150.87 C 142.87 150.04 141.71 149.85 140.89 150.45 C 140.06 151.05 139.87 152.21 140.47 153.04 Z M 141.18 153.99 L 141.81 154.71 C 142.49 155.48 143.66 155.55 144.42 154.87 C 145.19 154.19 145.26 153.02 144.58 152.26 L 143.95 151.54 C 143.27 150.78 142.10 150.71 141.34 151.38 C 140.57 152.06 140.50 153.23 141.18 153.99 Z M 141.93 154.83 L 142.65 155.50 C 143.39 156.20 144.56 156.17 145.26 155.42 C 145.96 154.68 145.92 153.51 145.18 152.82 L 144.46 152.14 C 143.72 151.44 142.55 151.48 141.85 152.22 C 141.15 152.96 141.19 154.13 141.93 154.83 Z M 142.74 155.58 L 143.51 156.21 C 144.29 156.86 145.45 156.75 146.10 155.97 C 146.75 155.18 146.64 154.02 145.85 153.37 L 145.09 152.74 C 144.30 152.09 143.14 152.20 142.50 152.99 C 141.85 153.77 141.96 154.93 142.74 155.58 Z M 143.56 156.25 L 144.27 156.79 C 145.08 157.41 146.23 157.26 146.84 156.46 C 147.46 155.66 147.31 154.50 146.51 153.89 L 145.80 153.34 C 144.99 152.72 143.84 152.87 143.23 153.68 C 142.61 154.48 142.76 155.63 143.56 156.25 Z M 144.32 156.81 L 145.10 157.39 C 145.91 157.98 147.05 157.80 147.65 156.99 C 148.24 156.18 148.06 155.04 147.25 154.44 L 146.47 153.87 C 145.65 153.27 144.51 153.45 143.92 154.26 C 143.33 155.08 143.50 156.22 144.32 156.81 Z M 145.13 157.40 L 145.98 157.99 C 146.80 158.57 147.93 158.37 148.51 157.55 C 149.08 156.73 148.88 155.60 148.06 155.02 L 147.22 154.43 C 146.40 153.85 145.26 154.05 144.69 154.87 C 144.11 155.69 144.31 156.82 145.13 157.40 Z M 146.01 158.00 L 146.91 158.61 C 147.74 159.17 148.86 158.95 149.42 158.13 C 149.98 157.30 149.76 156.18 148.93 155.62 L 148.03 155.01 C 147.21 154.45 146.08 154.67 145.53 155.50 C 144.97 156.32 145.19 157.45 146.01 158.00 Z M 146.94 158.62 L 147.84 159.20 C 148.67 159.75 149.78 159.51 150.32 158.68 C 150.87 157.85 150.63 156.74 149.80 156.20 L 148.90 155.61 C 148.08 155.07 146.96 155.31 146.42 156.14 C 145.88 156.96 146.11 158.08 146.94 158.62 Z M 147.87 159.20 L 148.74 159.76 C 149.57 160.28 150.67 160.04 151.20 159.21 C 151.72 158.38 151.48 157.29 150.65 156.76 L 149.78 156.20 C 148.95 155.68 147.85 155.92 147.32 156.75 C 146.80 157.58 147.04 158.68 147.87 159.20 Z M 148.77 159.75 L 149.65 160.30 C 150.47 160.81 151.55 160.56 152.07 159.74 C 152.58 158.91 152.33 157.83 151.51 157.32 L 150.63 156.77 C 149.80 156.26 148.72 156.51 148.21 157.33 C 147.69 158.15 147.94 159.24 148.77 159.75 Z M 149.67 160.29 L 150.53 160.82 C 151.35 161.32 152.42 161.07 152.92 160.25 C 153.42 159.43 153.17 158.36 152.35 157.86 L 151.49 157.33 C 150.67 156.83 149.60 157.08 149.10 157.90 C 148.59 158.72 148.85 159.79 149.67 160.29 Z M 150.55 160.81 L 151.38 161.31 C 152.19 161.81 153.25 161.55 153.74 160.74 C 154.23 159.93 153.98 158.87 153.17 158.38 L 152.34 157.87 C 151.53 157.38 150.47 157.64 149.97 158.45 C 149.48 159.26 149.74 160.31 150.55 160.81 Z M 151.39 161.30 L 152.21 161.79 C 153.01 162.28 154.05 162.02 154.54 161.22 C 155.03 160.42 154.77 159.38 153.97 158.89 L 153.15 158.39 C 152.35 157.91 151.31 158.16 150.82 158.96 C 150.33 159.77 150.59 160.81 151.39 161.30 Z M 152.21 161.78 L 153.18 162.37 C 153.97 162.85 155.01 162.60 155.49 161.81 C 155.98 161.01 155.72 159.98 154.93 159.49 L 153.96 158.90 C 153.17 158.42 152.13 158.67 151.65 159.47 C 151.17 160.26 151.42 161.29 152.21 161.78 Z M 153.18 162.35 L 154.04 162.88 C 154.82 163.37 155.85 163.13 156.34 162.34 C 156.82 161.56 156.58 160.53 155.80 160.04 L 154.93 159.51 C 154.15 159.03 153.12 159.27 152.64 160.05 C 152.15 160.84 152.39 161.86 153.18 162.35 Z M 154.02 162.86 L 154.80 163.35 C 155.57 163.85 156.59 163.62 157.09 162.85 C 157.58 162.08 157.36 161.06 156.59 160.57 L 155.81 160.07 C 155.04 159.58 154.02 159.80 153.52 160.57 C 153.03 161.34 153.25 162.36 154.02 162.86 Z M 154.77 163.32 L 155.53 163.84 C 156.29 164.34 157.31 164.14 157.82 163.39 C 158.32 162.64 158.12 161.62 157.37 161.11 L 156.61 160.60 C 155.86 160.09 154.84 160.29 154.33 161.04 C 153.82 161.79 154.02 162.81 154.77 163.32 Z M 155.50 163.80 L 156.32 164.40 C 157.06 164.93 158.08 164.76 158.61 164.03 C 159.14 163.29 158.97 162.27 158.24 161.74 L 157.41 161.14 C 156.68 160.62 155.65 160.78 155.12 161.52 C 154.60 162.25 154.76 163.27 155.50 163.80 Z M 156.29 164.38 L 157.08 164.97 C 157.80 165.52 158.83 165.38 159.37 164.66 C 159.92 163.93 159.78 162.91 159.06 162.36 L 158.27 161.77 C 157.55 161.22 156.52 161.36 155.98 162.08 C 155.43 162.80 155.57 163.83 156.29 164.38 Z M 157.07 164.96 L 157.72 165.46 C 158.43 166.02 159.46 165.89 160.01 165.17 C 160.57 164.46 160.44 163.43 159.72 162.88 L 159.07 162.37 C 158.36 161.82 157.33 161.95 156.78 162.66 C 156.22 163.38 156.35 164.41 157.07 164.96 Z"
      fill="black"
      fill-rule="nonzero" /><path d="M 164.15 120.35 L 163.92 121.32 C 163.67 122.35 164.31 123.38 165.34 123.63 C 166.37 123.87 167.41 123.23 167.65 122.20 L 167.88 121.23 C 168.12 120.20 167.49 119.17 166.45 118.92 C 165.42 118.68 164.39 119.32 164.15 120.35 Z M 163.91 121.36 L 163.70 122.33 C 163.47 123.37 164.13 124.39 165.17 124.61 C 166.21 124.84 167.23 124.17 167.46 123.14 L 167.66 122.16 C 167.89 121.12 167.23 120.10 166.19 119.88 C 165.15 119.66 164.13 120.32 163.91 121.36 Z M 163.68 122.41 L 163.51 123.40 C 163.33 124.44 164.03 125.44 165.08 125.62 C 166.13 125.80 167.12 125.10 167.30 124.05 L 167.47 123.06 C 167.65 122.01 166.95 121.02 165.90 120.84 C 164.85 120.66 163.86 121.36 163.68 122.41 Z M 163.49 123.51 L 163.38 124.49 C 163.26 125.55 164.03 126.51 165.08 126.62 C 166.14 126.74 167.10 125.98 167.21 124.92 L 167.32 123.94 C 167.44 122.88 166.68 121.92 165.62 121.81 C 164.56 121.69 163.61 122.45 163.49 123.51 Z M 163.37 124.61 L 163.32 125.60 C 163.26 126.66 164.08 127.57 165.15 127.62 C 166.21 127.68 167.12 126.86 167.17 125.79 L 167.22 124.80 C 167.28 123.74 166.46 122.83 165.39 122.78 C 164.33 122.73 163.42 123.55 163.37 124.61 Z M 163.31 125.69 L 163.31 126.70 C 163.31 127.77 164.18 128.63 165.24 128.63 C 166.31 128.63 167.18 127.77 167.18 126.70 L 167.18 125.70 C 167.18 124.63 166.32 123.76 165.25 123.76 C 164.18 123.76 163.31 124.63 163.31 125.69 Z M 163.31 126.77 L 163.35 127.79 C 163.39 128.86 164.29 129.69 165.36 129.65 C 166.43 129.61 167.26 128.71 167.22 127.64 L 167.18 126.63 C 167.14 125.56 166.24 124.73 165.17 124.77 C 164.10 124.81 163.27 125.71 163.31 126.77 Z M 163.36 127.85 L 163.42 128.80 C 163.50 129.87 164.42 130.67 165.49 130.60 C 166.55 130.52 167.35 129.60 167.28 128.53 L 167.21 127.58 C 167.14 126.52 166.21 125.71 165.15 125.79 C 164.08 125.86 163.28 126.79 163.36 127.85 Z M 163.44 128.87 L 163.54 129.84 C 163.65 130.90 164.60 131.67 165.66 131.56 C 166.71 131.44 167.48 130.50 167.37 129.44 L 167.27 128.47 C 167.15 127.41 166.21 126.64 165.15 126.75 C 164.09 126.87 163.32 127.81 163.44 128.87 Z M 163.56 129.92 L 163.70 130.92 C 163.86 131.97 164.83 132.70 165.88 132.54 C 166.93 132.39 167.65 131.41 167.50 130.37 L 167.35 129.36 C 167.20 128.31 166.22 127.59 165.17 127.74 C 164.13 127.90 163.40 128.87 163.56 129.92 Z M 163.72 131.01 L 163.92 132.04 C 164.12 133.08 165.13 133.75 166.16 133.55 C 167.20 133.35 167.88 132.35 167.68 131.32 L 167.48 130.28 C 167.28 129.25 166.28 128.57 165.24 128.77 C 164.20 128.97 163.53 129.97 163.72 131.01 Z M 163.95 132.11 L 164.18 133.09 C 164.42 134.11 165.44 134.75 166.46 134.51 C 167.48 134.27 168.12 133.25 167.88 132.23 L 167.65 131.25 C 167.41 130.22 166.39 129.59 165.37 129.83 C 164.35 130.07 163.71 131.09 163.95 132.11 Z M 164.21 133.14 L 164.47 134.13 C 164.73 135.14 165.76 135.74 166.77 135.48 C 167.77 135.21 168.38 134.19 168.11 133.18 L 167.85 132.18 C 167.59 131.18 166.56 130.57 165.55 130.84 C 164.55 131.10 163.94 132.13 164.21 133.14 Z M 164.49 134.15 L 164.76 135.13 C 165.03 136.12 166.06 136.71 167.06 136.43 C 168.05 136.15 168.64 135.12 168.36 134.13 L 168.09 133.16 C 167.82 132.16 166.79 131.58 165.79 131.85 C 164.80 132.13 164.21 133.16 164.49 134.15 Z M 164.78 135.13 L 165.04 136.06 C 165.32 137.05 166.34 137.62 167.32 137.34 C 168.31 137.06 168.88 136.04 168.61 135.05 L 168.34 134.13 C 168.06 133.14 167.04 132.57 166.06 132.85 C 165.07 133.12 164.50 134.15 164.78 135.13 Z M 165.05 136.05 L 165.32 136.99 C 165.59 137.97 166.60 138.54 167.57 138.27 C 168.55 138.00 169.12 136.99 168.85 136.01 L 168.59 135.07 C 168.32 134.09 167.31 133.52 166.33 133.79 C 165.36 134.06 164.78 135.07 165.05 136.05 Z M 165.33 136.96 L 165.57 137.88 C 165.83 138.85 166.82 139.42 167.78 139.17 C 168.75 138.92 169.33 137.93 169.07 136.96 L 168.83 136.04 C 168.58 135.08 167.59 134.50 166.62 134.75 C 165.66 135.01 165.08 135.99 165.33 136.96 Z M 165.59 137.84 L 165.82 138.80 C 166.06 139.75 167.02 140.34 167.98 140.11 C 168.93 139.88 169.52 138.91 169.29 137.95 L 169.06 137.00 C 168.82 136.04 167.86 135.46 166.90 135.69 C 165.95 135.92 165.36 136.89 165.59 137.84 Z M 165.84 138.76 L 166.07 139.81 C 166.29 140.75 167.23 141.35 168.17 141.14 C 169.12 140.93 169.72 139.99 169.50 139.04 L 169.27 137.99 C 169.06 137.04 168.12 136.45 167.17 136.66 C 166.23 136.87 165.63 137.81 165.84 138.76 Z M 166.09 139.78 L 166.28 140.72 C 166.48 141.66 167.40 142.26 168.34 142.06 C 169.28 141.87 169.88 140.95 169.69 140.01 L 169.49 139.07 C 169.30 138.13 168.37 137.52 167.43 137.72 C 166.49 137.92 165.89 138.84 166.09 139.78 Z M 166.29 140.70 L 166.49 141.70 C 166.68 142.64 167.59 143.25 168.53 143.06 C 169.46 142.87 170.07 141.96 169.88 141.03 L 169.68 140.02 C 169.49 139.09 168.58 138.48 167.65 138.67 C 166.71 138.86 166.11 139.77 166.29 140.70 Z M 166.50 141.69 L 166.70 142.71 C 166.88 143.64 167.78 144.25 168.71 144.07 C 169.64 143.89 170.25 142.99 170.07 142.06 L 169.87 141.04 C 169.69 140.11 168.79 139.50 167.86 139.68 C 166.93 139.86 166.32 140.76 166.50 141.69 Z M 166.71 142.70 L 166.90 143.70 C 167.07 144.62 167.96 145.23 168.89 145.06 C 169.81 144.88 170.42 143.99 170.24 143.07 L 170.06 142.07 C 169.88 141.15 168.99 140.54 168.07 140.72 C 167.15 140.89 166.54 141.78 166.71 142.70 Z M 166.91 143.69 L 167.09 144.68 C 167.26 145.60 168.14 146.20 169.06 146.04 C 169.97 145.87 170.58 144.99 170.41 144.07 L 170.23 143.08 C 170.07 142.16 169.19 141.56 168.27 141.72 C 167.35 141.89 166.74 142.77 166.91 143.69 Z M 167.10 144.67 L 167.30 145.76 C 167.46 146.67 168.33 147.28 169.24 147.12 C 170.15 146.96 170.76 146.08 170.60 145.17 L 170.40 144.08 C 170.24 143.17 169.37 142.56 168.46 142.72 C 167.55 142.89 166.94 143.76 167.10 144.67 Z M 167.31 145.75 L 167.48 146.72 C 167.63 147.62 168.49 148.23 169.40 148.08 C 170.30 147.92 170.91 147.06 170.75 146.16 L 170.59 145.18 C 170.43 144.28 169.57 143.67 168.66 143.83 C 167.76 143.98 167.15 144.84 167.31 145.75 Z M 167.49 146.71 L 167.64 147.61 C 167.79 148.51 168.64 149.12 169.54 148.96 C 170.44 148.81 171.04 147.96 170.89 147.06 L 170.74 146.16 C 170.59 145.27 169.74 144.66 168.84 144.81 C 167.94 144.96 167.34 145.81 167.49 146.71 Z M 167.65 147.61 L 167.71 147.99 C 167.86 148.88 168.71 149.49 169.60 149.34 C 170.49 149.19 171.10 148.34 170.95 147.45 L 170.88 147.07 C 170.73 146.17 169.89 145.57 169.00 145.72 C 168.10 145.87 167.50 146.71 167.65 147.61 Z"
      fill="black"
      fill-rule="nonzero" /><path d="M 170.54 122.52 L 171.39 121.94 C 172.27 121.34 172.50 120.15 171.90 119.27 C 171.31 118.39 170.11 118.16 169.23 118.76 L 168.38 119.33 C 167.50 119.93 167.27 121.12 167.87 122.00 C 168.47 122.88 169.66 123.11 170.54 122.52 Z M 171.24 122.03 L 172.11 121.55 C 173.04 121.04 173.37 119.87 172.86 118.94 C 172.35 118.01 171.19 117.68 170.26 118.19 L 169.38 118.67 C 168.46 119.18 168.12 120.35 168.63 121.27 C 169.14 122.20 170.31 122.54 171.24 122.03 Z M 171.76 121.69 L 172.69 121.40 C 173.69 121.08 174.25 120.00 173.93 118.99 C 173.61 117.99 172.54 117.43 171.53 117.75 L 170.60 118.04 C 169.60 118.36 169.04 119.44 169.36 120.45 C 169.68 121.45 170.75 122.01 171.76 121.69 Z M 172.18 121.47 L 173.10 121.44 C 174.15 121.40 174.96 120.52 174.92 119.47 C 174.89 118.42 174.00 117.60 172.96 117.64 L 172.04 117.68 C 170.99 117.72 170.17 118.60 170.21 119.64 C 170.25 120.69 171.13 121.51 172.18 121.47 Z M 172.68 121.38 L 173.63 121.56 C 174.65 121.75 175.63 121.08 175.82 120.07 C 176.02 119.05 175.35 118.07 174.33 117.88 L 173.38 117.70 C 172.36 117.51 171.38 118.18 171.19 119.19 C 171.00 120.21 171.66 121.19 172.68 121.38 Z M 173.36 121.45 L 174.34 121.81 C 175.29 122.16 176.35 121.66 176.70 120.70 C 177.05 119.75 176.55 118.69 175.59 118.34 L 174.61 117.99 C 173.65 117.64 172.60 118.13 172.25 119.09 C 171.90 120.05 172.40 121.11 173.36 121.45 Z M 174.16 121.71 L 175.10 122.17 C 176.00 122.62 177.09 122.25 177.54 121.35 C 177.99 120.45 177.62 119.36 176.72 118.91 L 175.77 118.45 C 174.87 118.00 173.78 118.37 173.33 119.27 C 172.89 120.17 173.26 121.26 174.16 121.71 Z M 174.98 122.09 L 175.85 122.61 C 176.70 123.13 177.81 122.85 178.32 122.00 C 178.84 121.15 178.56 120.04 177.71 119.53 L 176.84 119.00 C 175.99 118.49 174.88 118.76 174.37 119.61 C 173.85 120.47 174.13 121.57 174.98 122.09 Z M 175.76 122.54 L 176.59 123.12 C 177.40 123.68 178.51 123.48 179.08 122.67 C 179.64 121.87 179.44 120.75 178.64 120.19 L 177.80 119.61 C 177.00 119.04 175.88 119.24 175.32 120.05 C 174.75 120.86 174.95 121.97 175.76 122.54 Z M 176.52 123.04 L 177.29 123.65 C 178.06 124.26 179.17 124.12 179.77 123.36 C 180.38 122.59 180.25 121.48 179.48 120.87 L 178.71 120.26 C 177.94 119.66 176.83 119.79 176.23 120.56 C 175.62 121.32 175.75 122.44 176.52 123.04 Z M 177.22 123.57 L 177.98 124.25 C 178.71 124.90 179.81 124.84 180.46 124.11 C 181.11 123.39 181.04 122.28 180.32 121.64 L 179.56 120.95 C 178.83 120.31 177.72 120.37 177.08 121.09 C 176.43 121.81 176.49 122.92 177.22 123.57 Z M 177.91 124.16 L 178.62 124.89 C 179.29 125.57 180.39 125.59 181.08 124.91 C 181.77 124.24 181.78 123.14 181.10 122.45 L 180.40 121.73 C 179.72 121.04 178.62 121.03 177.93 121.70 C 177.25 122.37 177.23 123.48 177.91 124.16 Z M 178.55 124.80 L 179.18 125.53 C 179.81 126.25 180.90 126.33 181.62 125.71 C 182.35 125.08 182.42 123.99 181.80 123.27 L 181.17 122.54 C 180.54 121.82 179.45 121.74 178.73 122.36 C 178.01 122.98 177.93 124.08 178.55 124.80 Z M 179.14 125.46 L 179.72 126.20 C 180.31 126.95 181.39 127.08 182.13 126.50 C 182.88 125.92 183.01 124.84 182.43 124.09 L 181.85 123.34 C 181.26 122.59 180.18 122.46 179.43 123.05 C 178.69 123.63 178.55 124.71 179.14 125.46 Z M 179.68 126.13 L 180.23 126.91 C 180.77 127.69 181.83 127.88 182.61 127.33 C 183.38 126.79 183.57 125.73 183.03 124.95 L 182.48 124.17 C 181.93 123.39 180.87 123.20 180.10 123.75 C 179.32 124.29 179.13 125.35 179.68 126.13 Z M 180.16 126.80 L 180.68 127.67 C 181.16 128.48 182.20 128.74 183.01 128.26 C 183.82 127.78 184.09 126.74 183.61 125.93 L 183.09 125.06 C 182.61 124.26 181.57 123.99 180.76 124.47 C 179.95 124.95 179.68 125.99 180.16 126.80 Z M 180.61 127.53 L 181.06 128.47 C 181.47 129.31 182.48 129.67 183.33 129.26 C 184.17 128.86 184.53 127.84 184.12 127.00 L 183.67 126.06 C 183.26 125.22 182.25 124.86 181.41 125.27 C 180.56 125.67 180.20 126.69 180.61 127.53 Z M 181.01 128.34 L 181.36 129.24 C 181.69 130.11 182.67 130.54 183.54 130.21 C 184.42 129.87 184.85 128.89 184.51 128.02 L 184.17 127.13 C 183.83 126.25 182.85 125.82 181.98 126.16 C 181.11 126.49 180.68 127.47 181.01 128.34 Z M 181.33 129.13 L 181.62 130.09 C 181.90 130.98 182.85 131.48 183.74 131.20 C 184.63 130.92 185.12 129.98 184.84 129.09 L 184.54 128.13 C 184.27 127.24 183.32 126.74 182.43 127.02 C 181.54 127.30 181.05 128.24 181.33 129.13 Z M 181.60 129.99 L 181.85 130.99 C 182.07 131.89 182.98 132.44 183.88 132.22 C 184.78 132.00 185.33 131.09 185.11 130.19 L 184.87 129.19 C 184.65 128.29 183.74 127.73 182.84 127.96 C 181.93 128.18 181.38 129.09 181.60 129.99 Z M 181.83 130.88 L 182.01 131.90 C 182.17 132.81 183.04 133.42 183.95 133.26 C 184.87 133.10 185.47 132.23 185.31 131.31 L 185.13 130.30 C 184.97 129.38 184.10 128.78 183.19 128.94 C 182.27 129.10 181.67 129.97 181.83 130.88 Z M 182.00 131.78 L 182.10 132.80 C 182.20 133.72 183.02 134.39 183.94 134.29 C 184.86 134.19 185.53 133.37 185.43 132.45 L 185.32 131.43 C 185.23 130.51 184.40 129.85 183.48 129.94 C 182.56 130.04 181.90 130.86 182.00 131.78 Z M 182.10 132.66 L 182.12 133.67 C 182.14 134.59 182.91 135.32 183.83 135.30 C 184.75 135.28 185.48 134.52 185.46 133.59 L 185.44 132.59 C 185.42 131.66 184.65 130.93 183.73 130.95 C 182.81 130.98 182.07 131.74 182.10 132.66 Z M 182.12 133.50 L 182.05 134.48 C 181.98 135.40 182.67 136.20 183.59 136.27 C 184.51 136.34 185.31 135.65 185.38 134.73 L 185.46 133.76 C 185.53 132.83 184.84 132.03 183.92 131.96 C 183.00 131.89 182.19 132.58 182.12 133.50 Z M 182.08 134.29 L 181.89 135.27 C 181.71 136.17 182.30 137.05 183.21 137.23 C 184.11 137.41 184.99 136.81 185.17 135.91 L 185.36 134.93 C 185.53 134.02 184.94 133.14 184.04 132.97 C 183.13 132.79 182.25 133.38 182.08 134.29 Z M 181.94 135.06 L 181.61 136.03 C 181.32 136.91 181.79 137.86 182.67 138.15 C 183.55 138.45 184.50 137.97 184.79 137.09 L 185.12 136.12 C 185.41 135.24 184.93 134.29 184.06 134.00 C 183.18 133.71 182.23 134.18 181.94 135.06 Z M 181.68 135.84 L 181.25 136.74 C 180.86 137.58 181.21 138.58 182.05 138.98 C 182.89 139.38 183.89 139.03 184.29 138.19 L 184.72 137.29 C 185.12 136.45 184.76 135.44 183.92 135.05 C 183.08 134.65 182.08 135.00 181.68 135.84 Z M 181.34 136.57 L 180.83 137.38 C 180.34 138.17 180.58 139.21 181.37 139.71 C 182.16 140.20 183.20 139.96 183.70 139.17 L 184.20 138.36 C 184.70 137.57 184.46 136.53 183.67 136.03 C 182.88 135.54 181.84 135.78 181.34 136.57 Z M 180.94 137.21 L 180.33 137.98 C 179.74 138.70 179.86 139.77 180.59 140.36 C 181.32 140.95 182.38 140.83 182.97 140.10 L 183.59 139.34 C 184.17 138.61 184.06 137.54 183.33 136.96 C 182.60 136.37 181.53 136.48 180.94 137.21 Z M 180.46 137.81 L 179.76 138.49 C 179.09 139.15 179.07 140.23 179.73 140.91 C 180.38 141.58 181.46 141.60 182.14 140.94 L 182.84 140.26 C 183.52 139.61 183.53 138.53 182.87 137.85 C 182.22 137.17 181.14 137.16 180.46 137.81 Z M 179.89 138.37 L 179.09 138.99 C 178.35 139.58 178.22 140.66 178.80 141.41 C 179.39 142.15 180.47 142.28 181.21 141.69 L 182.01 141.07 C 182.76 140.48 182.89 139.40 182.30 138.66 C 181.72 137.91 180.64 137.78 179.89 138.37 Z M 179.19 138.91 L 178.40 139.44 C 177.61 139.97 177.40 141.05 177.94 141.84 C 178.47 142.63 179.54 142.84 180.33 142.31 L 181.12 141.78 C 181.91 141.24 182.12 140.17 181.59 139.38 C 181.05 138.59 179.98 138.38 179.19 138.91 Z M 178.47 139.39 L 177.67 139.87 C 176.85 140.37 176.58 141.44 177.08 142.26 C 177.58 143.08 178.64 143.34 179.47 142.85 L 180.27 142.36 C 181.09 141.86 181.35 140.80 180.86 139.97 C 180.36 139.15 179.29 138.89 178.47 139.39 Z M 177.72 139.83 L 176.84 140.31 C 176.00 140.78 175.69 141.84 176.15 142.69 C 176.62 143.53 177.68 143.84 178.53 143.38 L 179.41 142.89 C 180.26 142.43 180.57 141.36 180.10 140.52 C 179.63 139.67 178.57 139.36 177.72 139.83 Z M 176.89 140.27 L 175.93 140.76 C 175.06 141.20 174.72 142.26 175.15 143.12 C 175.59 143.99 176.65 144.34 177.52 143.90 L 178.48 143.42 C 179.35 142.98 179.70 141.92 179.26 141.05 C 178.82 140.18 177.76 139.83 176.89 140.27 Z M 175.97 140.72 L 175.04 141.16 C 174.15 141.57 173.77 142.63 174.19 143.52 C 174.61 144.41 175.66 144.79 176.55 144.37 L 177.48 143.94 C 178.37 143.52 178.75 142.46 178.33 141.57 C 177.92 140.69 176.86 140.30 175.97 140.72 Z M 175.07 141.11 L 174.18 141.50 C 173.27 141.91 172.85 142.97 173.26 143.89 C 173.66 144.80 174.73 145.21 175.64 144.81 L 176.53 144.42 C 177.44 144.01 177.85 142.95 177.45 142.03 C 177.05 141.12 175.98 140.71 175.07 141.11 Z M 174.20 141.46 L 173.27 141.85 C 172.34 142.24 171.89 143.32 172.29 144.26 C 172.68 145.19 173.76 145.64 174.70 145.24 L 175.62 144.85 C 176.56 144.46 177.00 143.38 176.61 142.44 C 176.21 141.51 175.13 141.07 174.20 141.46 Z M 173.29 141.80 L 172.34 142.18 C 171.38 142.57 170.91 143.66 171.30 144.62 C 171.68 145.58 172.78 146.05 173.74 145.66 L 174.68 145.28 C 175.64 144.90 176.11 143.81 175.73 142.85 C 175.34 141.89 174.25 141.42 173.29 141.80 Z M 172.35 142.14 L 171.39 142.51 C 170.41 142.89 169.92 143.99 170.30 144.98 C 170.68 145.96 171.78 146.45 172.77 146.07 L 173.72 145.71 C 174.71 145.33 175.20 144.22 174.82 143.24 C 174.44 142.26 173.34 141.76 172.35 142.14 Z M 171.40 142.46 L 170.25 142.89 C 169.24 143.26 168.72 144.38 169.10 145.40 C 169.47 146.41 170.59 146.92 171.60 146.55 L 172.76 146.13 C 173.77 145.75 174.29 144.63 173.91 143.62 C 173.54 142.61 172.42 142.09 171.40 142.46 Z M 170.23 142.83 L 169.00 143.28 C 167.95 143.67 167.42 144.83 167.81 145.87 C 168.19 146.92 169.35 147.45 170.40 147.07 L 171.63 146.61 C 172.67 146.22 173.21 145.06 172.82 144.02 C 172.43 142.98 171.27 142.44 170.23 142.83 Z M 168.88 143.25 L 167.97 143.63 C 166.91 144.08 166.41 145.31 166.86 146.37 C 167.31 147.44 168.54 147.93 169.60 147.48 L 170.51 147.10 C 171.57 146.65 172.07 145.42 171.62 144.36 C 171.17 143.30 169.95 142.80 168.88 143.25 Z M 167.49 143.83 L 167.11 144.12 C 166.15 144.83 165.96 146.19 166.67 147.14 C 167.39 148.10 168.74 148.29 169.70 147.58 L 170.08 147.29 C 171.04 146.57 171.24 145.22 170.52 144.26 C 169.80 143.31 168.45 143.11 167.49 143.83 Z M 167.34 147.78 L 167.67 147.96 C 168.74 148.54 170.08 148.15 170.66 147.09 C 171.25 146.02 170.86 144.68 169.79 144.10 L 169.46 143.92 C 168.40 143.33 167.06 143.72 166.47 144.79 C 165.89 145.85 166.28 147.19 167.34 147.78 Z M 168.55 148.23 L 169.50 148.31 C 170.71 148.41 171.78 147.51 171.88 146.29 C 171.99 145.08 171.08 144.01 169.87 143.91 L 168.92 143.83 C 167.71 143.73 166.64 144.63 166.54 145.84 C 166.43 147.06 167.34 148.12 168.55 148.23 Z M 169.65 148.31 L 170.97 148.33 C 172.19 148.35 173.19 147.38 173.21 146.16 C 173.23 144.94 172.26 143.94 171.04 143.92 L 169.72 143.90 C 168.50 143.89 167.50 144.86 167.48 146.08 C 167.46 147.29 168.44 148.30 169.65 148.31 Z M 171.01 148.33 L 172.17 148.33 C 173.38 148.33 174.37 147.34 174.37 146.13 C 174.37 144.92 173.38 143.93 172.17 143.93 L 171.01 143.93 C 169.79 143.93 168.81 144.91 168.81 146.13 C 168.81 147.34 169.79 148.33 171.01 148.33 Z M 172.18 148.31 L 173.15 148.31 C 174.35 148.30 175.33 147.33 175.32 146.12 C 175.32 144.92 174.34 143.94 173.14 143.94 L 172.16 143.95 C 170.96 143.95 169.98 144.93 169.99 146.13 C 169.99 147.34 170.97 148.31 172.18 148.31 Z M 173.16 148.29 L 174.15 148.28 C 175.34 148.27 176.30 147.29 176.29 146.10 C 176.28 144.90 175.30 143.95 174.11 143.96 L 173.12 143.97 C 171.93 143.98 170.97 144.95 170.98 146.15 C 170.99 147.34 171.97 148.30 173.16 148.29 Z M 174.17 148.25 L 175.18 148.23 C 176.36 148.21 177.30 147.23 177.27 146.05 C 177.25 144.87 176.27 143.94 175.09 143.96 L 174.09 143.98 C 172.91 144.00 171.97 144.98 171.99 146.16 C 172.02 147.34 172.99 148.28 174.17 148.25 Z M 175.21 148.21 L 176.24 148.18 C 177.41 148.14 178.32 147.16 178.28 145.99 C 178.24 144.82 177.26 143.91 176.09 143.95 L 175.06 143.98 C 173.90 144.02 172.98 145.00 173.02 146.17 C 173.06 147.34 174.04 148.25 175.21 148.21 Z M 176.27 148.15 L 177.26 148.10 C 178.42 148.04 179.30 147.06 179.25 145.91 C 179.19 144.75 178.20 143.86 177.05 143.92 L 176.06 143.97 C 174.91 144.03 174.02 145.01 174.08 146.17 C 174.13 147.32 175.12 148.21 176.27 148.15 Z M 177.29 148.07 L 178.26 148.01 C 179.39 147.93 180.25 146.95 180.18 145.81 C 180.10 144.67 179.12 143.81 177.98 143.89 L 177.02 143.95 C 175.88 144.03 175.02 145.01 175.10 146.15 C 175.17 147.28 176.15 148.15 177.29 148.07 Z M 178.28 147.97 L 179.26 147.90 C 180.38 147.81 181.22 146.83 181.13 145.71 C 181.04 144.59 180.06 143.75 178.94 143.84 L 177.96 143.92 C 176.84 144.01 176.00 144.99 176.09 146.11 C 176.18 147.23 177.16 148.06 178.28 147.97 Z M 179.28 147.86 L 180.29 147.77 C 181.39 147.67 182.20 146.70 182.10 145.60 C 182.00 144.50 181.03 143.68 179.93 143.78 L 178.92 143.87 C 177.82 143.97 177.01 144.95 177.11 146.05 C 177.21 147.15 178.18 147.96 179.28 147.86 Z M 180.30 147.74 L 181.32 147.64 C 182.41 147.53 183.20 146.56 183.09 145.48 C 182.98 144.40 182.01 143.61 180.93 143.71 L 179.91 143.82 C 178.83 143.92 178.04 144.89 178.14 145.98 C 178.25 147.06 179.22 147.85 180.30 147.74 Z M 181.34 147.61 L 182.37 147.50 C 183.44 147.38 184.21 146.42 184.09 145.36 C 183.98 144.29 183.02 143.52 181.95 143.63 L 180.92 143.75 C 179.85 143.86 179.08 144.82 179.20 145.89 C 179.31 146.95 180.27 147.72 181.34 147.61 Z M 182.38 147.46 L 183.44 147.34 C 184.49 147.22 185.24 146.27 185.12 145.23 C 185.00 144.18 184.05 143.43 183.01 143.55 L 181.94 143.67 C 180.90 143.79 180.14 144.74 180.26 145.78 C 180.39 146.83 181.33 147.58 182.38 147.46 Z M 183.45 147.30 L 184.50 147.18 C 185.53 147.05 186.27 146.12 186.14 145.09 C 186.02 144.07 185.09 143.33 184.06 143.46 L 183.00 143.58 C 181.97 143.70 181.24 144.64 181.36 145.67 C 181.49 146.69 182.42 147.43 183.45 147.30 Z M 184.50 147.14 L 185.54 147.02 C 186.54 146.89 187.26 145.98 187.14 144.97 C 187.02 143.96 186.10 143.24 185.09 143.36 L 184.06 143.49 C 183.05 143.61 182.33 144.53 182.46 145.54 C 182.58 146.55 183.50 147.27 184.50 147.14 Z M 185.53 146.98 L 186.52 146.86 C 187.51 146.74 188.21 145.84 188.09 144.85 C 187.97 143.86 187.07 143.16 186.08 143.28 L 185.09 143.40 C 184.10 143.52 183.40 144.42 183.52 145.41 C 183.64 146.40 184.55 147.10 185.53 146.98 Z M 186.51 146.82 L 187.44 146.71 C 188.41 146.59 189.10 145.71 188.98 144.74 C 188.86 143.77 187.98 143.08 187.01 143.20 L 186.09 143.31 C 185.12 143.43 184.43 144.31 184.55 145.28 C 184.66 146.25 185.54 146.94 186.51 146.82 Z M 187.42 146.68 L 188.40 146.57 C 189.35 146.46 190.04 145.59 189.93 144.64 C 189.82 143.69 188.95 143.01 188.00 143.12 L 187.02 143.23 C 186.07 143.34 185.39 144.21 185.50 145.16 C 185.61 146.11 186.47 146.79 187.42 146.68 Z M 188.39 146.54 L 189.48 146.42 C 190.42 146.32 191.10 145.48 191.00 144.54 C 190.89 143.60 190.05 142.93 189.11 143.03 L 188.02 143.15 C 187.08 143.25 186.40 144.09 186.51 145.03 C 186.61 145.96 187.45 146.64 188.39 146.54 Z M 189.47 146.40 L 190.42 146.30 C 191.35 146.21 192.02 145.39 191.93 144.46 C 191.84 143.54 191.01 142.86 190.09 142.95 L 189.13 143.05 C 188.20 143.14 187.53 143.97 187.62 144.89 C 187.72 145.82 188.54 146.49 189.47 146.40 Z M 190.42 146.28 L 191.31 146.19 C 192.22 146.10 192.88 145.29 192.79 144.38 C 192.70 143.46 191.89 142.80 190.98 142.89 L 190.09 142.98 C 189.18 143.07 188.51 143.88 188.60 144.79 C 188.69 145.71 189.51 146.37 190.42 146.28 Z M 191.31 146.17 L 192.26 146.07 C 193.16 145.98 193.82 145.17 193.72 144.27 C 193.63 143.36 192.82 142.71 191.91 142.81 L 190.97 142.91 C 190.06 143.00 189.41 143.81 189.51 144.71 C 189.60 145.62 190.41 146.27 191.31 146.17 Z M 192.27 146.07 L 193.26 145.96 C 194.16 145.85 194.81 145.04 194.71 144.14 C 194.60 143.24 193.79 142.60 192.89 142.70 L 191.90 142.81 C 191.00 142.91 190.36 143.73 190.46 144.62 C 190.56 145.52 191.37 146.17 192.27 146.07 Z M 193.27 145.95 L 194.27 145.83 C 195.17 145.73 195.81 144.91 195.71 144.02 C 195.60 143.12 194.79 142.48 193.89 142.58 L 192.89 142.70 C 191.99 142.81 191.35 143.62 191.45 144.52 C 191.56 145.42 192.37 146.06 193.27 145.95 Z M 194.28 145.83 L 194.85 145.76 C 195.75 145.66 196.39 144.84 196.28 143.94 C 196.18 143.05 195.36 142.41 194.46 142.51 L 193.89 142.58 C 192.99 142.69 192.35 143.51 192.46 144.40 C 192.56 145.30 193.38 145.94 194.28 145.83 Z"
      fill="black"
      fill-rule="nonzero" /></svg>