<svg xmlns="http://www.w3.org/2000/svg" width="300" height="300" viewBox="0 0 300 300">
<path d="M 134.34 116.58 L 135.30 116.41 C 136.20 116.26 136.80 115.40 136.64 114.50 C 136.48 113.60 135.63 113.00 134.73 113.16 L 133.77 113.32 C 132.87 113.48 132.27 114.34 132.42 115.24 C 132.58 116.14 133.44 116.74 134.34 116.58 Z M 135.30 116.41 L 136.27 116.24 C 137.17 116.09 137.77 115.23 137.62 114.33 C 137.46 113.43 136.60 112.83 135.70 112.99 L 134.73 113.16 C 133.83 113.32 133.23 114.17 133.38 115.07 C 133.54 115.97 134.40 116.57 135.30 116.41 Z M 136.28 116.24 L 137.29 116.06 C 138.19 115.90 138.78 115.04 138.62 114.15 C 138.46 113.25 137.61 112.65 136.71 112.81 L 135.70 112.99 C 134.80 113.15 134.20 114.01 134.36 114.90 C 134.52 115.80 135.38 116.40 136.28 116.24 Z M 137.29 116.06 L 138.23 115.89 C 139.13 115.73 139.72 114.87 139.56 113.97 C 139.40 113.07 138.54 112.48 137.64 112.64 L 136.70 112.81 C 135.81 112.97 135.21 113.83 135.37 114.73 C 135.53 115.63 136.39 116.22 137.29 116.06 Z M 138.24 115.89 L 139.19 115.71 C 140.08 115.54 140.68 114.68 140.51 113.79 C 140.34 112.89 139.48 112.30 138.59 112.47 L 137.63 112.65 C 136.74 112.81 136.15 113.67 136.31 114.57 C 136.48 115.46 137.34 116.05 138.24 115.89 Z M 139.20 115.70 L 140.20 115.51 C 141.09 115.34 141.68 114.48 141.51 113.59 C 141.34 112.70 140.48 112.11 139.58 112.28 L 138.58 112.47 C 137.69 112.64 137.10 113.51 137.28 114.40 C 137.45 115.29 138.31 115.87 139.20 115.70 Z M 140.21 115.51 L 141.25 115.30 C 142.14 115.13 142.71 114.26 142.54 113.37 C 142.36 112.49 141.50 111.91 140.61 112.08 L 139.58 112.29 C 138.69 112.46 138.11 113.33 138.28 114.21 C 138.46 115.10 139.32 115.68 140.21 115.51 Z M 141.26 115.29 L 142.21 115.10 C 143.09 114.92 143.66 114.06 143.48 113.17 C 143.30 112.29 142.44 111.72 141.56 111.90 L 140.61 112.09 C 139.72 112.27 139.15 113.13 139.33 114.02 C 139.51 114.90 140.37 115.47 141.26 115.29 Z M 142.21 115.09 L 143.19 114.89 C 144.07 114.71 144.64 113.85 144.46 112.97 C 144.28 112.09 143.41 111.52 142.53 111.70 L 141.55 111.90 C 140.67 112.08 140.11 112.95 140.29 113.83 C 140.47 114.71 141.33 115.28 142.21 115.09 Z M 143.19 114.89 L 144.19 114.68 C 145.06 114.50 145.63 113.64 145.45 112.76 C 145.27 111.88 144.41 111.32 143.53 111.50 L 142.53 111.71 C 141.66 111.89 141.09 112.75 141.27 113.63 C 141.45 114.50 142.31 115.07 143.19 114.89 Z M 144.18 114.68 L 145.18 114.47 C 146.05 114.29 146.62 113.44 146.44 112.56 C 146.26 111.68 145.40 111.12 144.53 111.30 L 143.53 111.51 C 142.66 111.68 142.09 112.54 142.27 113.42 C 142.45 114.29 143.31 114.86 144.18 114.68 Z M 145.17 114.47 L 146.18 114.26 C 147.05 114.09 147.61 113.24 147.44 112.36 C 147.26 111.49 146.41 110.92 145.54 111.10 L 144.53 111.30 C 143.66 111.48 143.10 112.33 143.27 113.21 C 143.45 114.08 144.30 114.64 145.17 114.47 Z M 146.17 114.26 L 147.16 114.06 C 148.04 113.89 148.60 113.04 148.43 112.17 C 148.25 111.30 147.40 110.73 146.53 110.91 L 145.54 111.10 C 144.67 111.28 144.10 112.13 144.28 113.00 C 144.45 113.87 145.30 114.44 146.17 114.26 Z M 147.17 114.06 L 148.14 113.86 C 149.01 113.68 149.57 112.84 149.40 111.97 C 149.22 111.10 148.37 110.54 147.50 110.71 L 146.53 110.91 C 145.66 111.09 145.10 111.93 145.27 112.80 C 145.45 113.67 146.30 114.24 147.17 114.06 Z M 148.15 113.86 L 149.11 113.66 C 149.98 113.47 150.53 112.63 150.35 111.76 C 150.17 110.89 149.32 110.34 148.46 110.52 L 147.50 110.72 C 146.63 110.90 146.07 111.75 146.25 112.61 C 146.43 113.48 147.28 114.04 148.15 113.86 Z M 149.13 113.65 L 150.11 113.43 C 150.98 113.24 151.52 112.39 151.33 111.53 C 151.15 110.67 150.29 110.12 149.43 110.31 L 148.44 110.52 C 147.58 110.71 147.03 111.56 147.22 112.43 C 147.41 113.29 148.26 113.84 149.13 113.65 Z M 150.13 113.43 L 151.12 113.20 C 151.98 113.00 152.52 112.14 152.32 111.29 C 152.12 110.43 151.26 109.89 150.40 110.09 L 149.41 110.31 C 148.55 110.51 148.02 111.37 148.21 112.23 C 148.41 113.09 149.27 113.62 150.13 113.43 Z M 151.13 113.19 L 152.10 112.96 C 152.96 112.76 153.49 111.89 153.28 111.04 C 153.08 110.18 152.22 109.65 151.36 109.86 L 150.39 110.09 C 149.53 110.30 149.01 111.16 149.21 112.01 C 149.42 112.87 150.28 113.40 151.13 113.19 Z M 152.12 112.96 L 153.06 112.72 C 153.92 112.51 154.44 111.64 154.23 110.79 C 154.01 109.94 153.15 109.42 152.30 109.63 L 151.35 109.86 C 150.50 110.08 149.98 110.94 150.19 111.79 C 150.40 112.65 151.26 113.17 152.12 112.96 Z M 153.08 112.72 L 154.02 112.47 C 154.88 112.25 155.39 111.39 155.17 110.54 C 154.95 109.69 154.09 109.17 153.23 109.39 L 152.29 109.63 C 151.43 109.85 150.92 110.72 151.14 111.57 C 151.36 112.42 152.22 112.93 153.08 112.72 Z M 154.04 112.47 L 154.99 112.22 C 155.83 111.99 156.34 111.12 156.11 110.27 C 155.89 109.42 155.02 108.92 154.17 109.14 L 153.22 109.39 C 152.37 109.62 151.87 110.49 152.09 111.34 C 152.32 112.19 153.19 112.69 154.04 112.47 Z M 155.00 112.21 L 155.96 111.95 C 156.80 111.71 157.30 110.84 157.07 109.99 C 156.83 109.15 155.96 108.65 155.11 108.88 L 154.16 109.15 C 153.31 109.38 152.81 110.26 153.05 111.10 C 153.28 111.95 154.15 112.44 155.00 112.21 Z M 155.97 111.94 L 156.96 111.66 C 157.81 111.42 158.29 110.54 158.05 109.69 C 157.81 108.85 156.93 108.36 156.09 108.61 L 155.10 108.89 C 154.26 109.13 153.77 110.01 154.01 110.85 C 154.25 111.70 155.13 112.18 155.97 111.94 Z M 156.97 111.67 L 158.18 111.32 C 159.03 111.07 159.52 110.18 159.27 109.33 C 159.02 108.48 158.13 108.00 157.28 108.24 L 156.08 108.59 C 155.23 108.84 154.74 109.73 154.99 110.58 C 155.23 111.43 156.12 111.92 156.97 111.67 Z M 158.12 111.37 L 159.20 111.10 C 160.08 110.89 160.62 110.00 160.40 109.13 C 160.19 108.25 159.30 107.71 158.43 107.93 L 157.34 108.19 C 156.46 108.41 155.93 109.29 156.14 110.17 C 156.36 111.05 157.24 111.58 158.12 111.37 Z M 158.91 111.18 L 159.64 111.14 C 160.56 111.09 161.26 110.30 161.21 109.38 C 161.16 108.46 160.38 107.76 159.46 107.81 L 158.72 107.85 C 157.80 107.90 157.10 108.69 157.15 109.61 C 157.20 110.53 157.99 111.23 158.91 111.18 Z M 158.01 110.17 L 158.17 110.54 C 158.56 111.40 159.56 111.77 160.42 111.39 C 161.27 111.00 161.65 110.00 161.26 109.15 L 161.09 108.78 C 160.71 107.92 159.70 107.55 158.85 107.93 C 158.00 108.32 157.62 109.32 158.01 110.17 Z M 158.22 109.00 L 157.76 109.82 C 157.30 110.64 157.59 111.69 158.42 112.15 C 159.24 112.62 160.29 112.33 160.75 111.50 L 161.21 110.69 C 161.68 109.86 161.38 108.82 160.56 108.35 C 159.73 107.89 158.69 108.18 158.22 109.00 Z M 157.86 109.63 L 157.06 110.73 C 156.49 111.50 156.66 112.59 157.43 113.15 C 158.20 113.72 159.29 113.55 159.85 112.78 L 160.66 111.68 C 161.22 110.91 161.05 109.83 160.28 109.26 C 159.51 108.69 158.43 108.86 157.86 109.63 Z M 157.04 110.73 L 156.53 111.43 C 155.96 112.21 156.13 113.30 156.91 113.87 C 157.69 114.44 158.78 114.27 159.35 113.49 L 159.86 112.78 C 160.43 112.00 160.26 110.91 159.48 110.35 C 158.70 109.78 157.61 109.95 157.04 110.73 Z M 156.51 111.45 L 155.97 112.21 C 155.41 112.99 155.60 114.09 156.39 114.65 C 157.17 115.21 158.27 115.02 158.83 114.23 L 159.37 113.47 C 159.93 112.69 159.74 111.59 158.95 111.03 C 158.17 110.47 157.07 110.66 156.51 111.45 Z M 155.96 112.22 L 155.39 113.04 C 154.83 113.84 155.03 114.93 155.83 115.49 C 156.62 116.04 157.72 115.84 158.27 115.04 L 158.84 114.22 C 159.39 113.42 159.20 112.33 158.40 111.78 C 157.60 111.23 156.51 111.42 155.96 112.22 Z M 155.37 113.06 L 154.77 113.95 C 154.22 114.75 154.43 115.84 155.24 116.39 C 156.04 116.93 157.14 116.72 157.68 115.92 L 158.28 115.03 C 158.83 114.23 158.62 113.13 157.81 112.59 C 157.01 112.04 155.92 112.25 155.37 113.06 Z M 154.76 113.96 L 154.14 114.89 C 153.60 115.70 153.82 116.80 154.63 117.33 C 155.44 117.87 156.54 117.65 157.08 116.84 L 157.70 115.91 C 158.23 115.10 158.01 114.00 157.20 113.46 C 156.39 112.93 155.29 113.15 154.76 113.96 Z M 154.13 114.90 L 153.60 115.71 C 153.07 116.53 153.30 117.62 154.12 118.16 C 154.93 118.69 156.03 118.46 156.56 117.64 L 157.09 116.83 C 157.62 116.01 157.39 114.92 156.57 114.39 C 155.75 113.85 154.66 114.09 154.13 114.90 Z M 153.59 115.72 L 153.05 116.57 C 152.53 117.39 152.77 118.48 153.59 119.01 C 154.41 119.53 155.50 119.29 156.03 118.47 L 156.57 117.63 C 157.09 116.81 156.85 115.72 156.03 115.19 C 155.21 114.66 154.12 114.90 153.59 115.72 Z M 153.05 116.58 L 152.50 117.44 C 151.98 118.26 152.23 119.35 153.05 119.88 C 153.88 120.40 154.97 120.15 155.49 119.32 L 156.03 118.46 C 156.55 117.64 156.31 116.55 155.48 116.03 C 154.66 115.51 153.57 115.75 153.05 116.58 Z M 152.50 117.45 L 151.96 118.32 C 151.44 119.15 151.69 120.23 152.52 120.75 C 153.35 121.27 154.44 121.01 154.96 120.18 L 155.50 119.31 C 156.01 118.49 155.76 117.40 154.93 116.88 C 154.10 116.37 153.01 116.62 152.50 117.45 Z M 151.95 118.33 L 151.42 119.19 C 150.91 120.02 151.17 121.11 152.00 121.62 C 152.84 122.13 153.92 121.87 154.43 121.04 L 154.96 120.17 C 155.47 119.34 155.21 118.25 154.38 117.74 C 153.55 117.23 152.46 117.49 151.95 118.33 Z M 151.41 119.20 L 150.90 120.04 C 150.40 120.88 150.67 121.97 151.50 122.47 C 152.34 122.97 153.43 122.71 153.93 121.87 L 154.44 121.03 C 154.94 120.19 154.68 119.10 153.84 118.60 C 153.00 118.09 151.92 118.36 151.41 119.20 Z M 150.90 120.06 L 150.36 120.95 C 149.87 121.79 150.15 122.88 150.99 123.38 C 151.83 123.87 152.91 123.59 153.41 122.75 L 153.94 121.86 C 154.44 121.02 154.16 119.93 153.32 119.44 C 152.48 118.94 151.39 119.22 150.90 120.06 Z M 150.36 120.96 L 149.85 121.84 C 149.36 122.68 149.65 123.76 150.49 124.26 C 151.33 124.75 152.41 124.46 152.91 123.62 L 153.41 122.74 C 153.91 121.90 153.62 120.82 152.78 120.33 C 151.93 119.84 150.85 120.12 150.36 120.96 Z M 149.85 121.85 L 149.35 122.70 C 148.87 123.55 149.16 124.63 150.01 125.12 C 150.85 125.60 151.93 125.31 152.42 124.46 L 152.91 123.61 C 153.40 122.76 153.11 121.68 152.26 121.19 C 151.41 120.71 150.33 121.00 149.85 121.85 Z M 149.35 122.71 L 148.87 123.56 C 148.38 124.40 148.68 125.48 149.52 125.97 C 150.37 126.45 151.45 126.16 151.94 125.31 L 152.42 124.46 C 152.91 123.61 152.61 122.53 151.76 122.05 C 150.92 121.56 149.84 121.86 149.35 122.71 Z M 148.87 123.56 L 148.38 124.41 C 147.89 125.26 148.19 126.34 149.04 126.82 C 149.88 127.30 150.96 127.01 151.45 126.16 L 151.94 125.31 C 152.42 124.46 152.13 123.38 151.28 122.90 C 150.43 122.41 149.35 122.71 148.87 123.56 Z M 148.38 124.40 L 147.88 125.28 C 147.39 126.13 147.68 127.21 148.53 127.69 C 149.38 128.18 150.46 127.89 150.94 127.04 L 151.45 126.17 C 151.93 125.32 151.64 124.24 150.79 123.75 C 149.95 123.27 148.87 123.56 148.38 124.40 Z M 147.88 125.27 L 147.36 126.18 C 146.87 127.02 147.16 128.10 148.00 128.59 C 148.85 129.08 149.93 128.79 150.42 127.95 L 150.94 127.05 C 151.43 126.20 151.14 125.12 150.30 124.63 C 149.45 124.14 148.37 124.43 147.88 125.27 Z M 147.36 126.17 L 146.84 127.07 C 146.35 127.91 146.63 129.00 147.48 129.49 C 148.32 129.98 149.40 129.69 149.89 128.85 L 150.41 127.95 C 150.91 127.11 150.62 126.03 149.78 125.54 C 148.93 125.04 147.85 125.33 147.36 126.17 Z M 146.84 127.07 L 146.33 127.95 C 145.83 128.79 146.12 129.87 146.96 130.37 C 147.80 130.86 148.88 130.57 149.37 129.73 L 149.89 128.85 C 150.38 128.01 150.10 126.93 149.26 126.44 C 148.41 125.94 147.33 126.23 146.84 127.07 Z M 146.33 127.95 L 145.83 128.80 C 145.34 129.64 145.63 130.72 146.47 131.21 C 147.31 131.70 148.39 131.42 148.88 130.58 L 149.37 129.73 C 149.87 128.89 149.58 127.81 148.74 127.32 C 147.90 126.83 146.82 127.11 146.33 127.95 Z M 145.83 128.80 L 145.37 129.59 C 144.88 130.43 145.17 131.51 146.01 132.00 C 146.85 132.49 147.93 132.21 148.42 131.36 L 148.88 130.57 C 149.37 129.73 149.09 128.65 148.24 128.16 C 147.40 127.67 146.32 127.96 145.83 128.80 Z M 145.37 129.59 L 144.80 130.58 C 144.31 131.42 144.60 132.50 145.44 132.99 C 146.29 133.48 147.36 133.19 147.85 132.35 L 148.42 131.36 C 148.91 130.52 148.62 129.44 147.78 128.95 C 146.94 128.47 145.86 128.75 145.37 129.59 Z M 144.80 130.59 L 144.29 131.48 C 143.81 132.32 144.09 133.39 144.93 133.88 C 145.77 134.36 146.85 134.07 147.33 133.23 L 147.85 132.34 C 148.33 131.50 148.04 130.43 147.20 129.94 C 146.36 129.46 145.29 129.75 144.80 130.59 Z M 144.30 131.48 L 143.83 132.28 C 143.34 133.12 143.62 134.19 144.46 134.68 C 145.29 135.16 146.37 134.88 146.85 134.04 L 147.32 133.24 C 147.81 132.40 147.53 131.33 146.69 130.84 C 145.86 130.36 144.78 130.64 144.30 131.48 Z M 143.84 132.27 L 143.39 133.03 C 142.89 133.86 143.16 134.93 143.99 135.43 C 144.82 135.92 145.89 135.65 146.38 134.82 L 146.84 134.06 C 147.33 133.23 147.06 132.16 146.23 131.66 C 145.41 131.17 144.34 131.44 143.84 132.27 Z M 143.40 133.01 L 142.87 133.88 C 142.37 134.69 142.62 135.77 143.44 136.27 C 144.26 136.78 145.33 136.52 145.83 135.70 L 146.37 134.84 C 146.87 134.02 146.62 132.95 145.80 132.45 C 144.98 131.94 143.91 132.20 143.40 133.01 Z M 142.88 133.86 L 142.35 134.70 C 141.84 135.51 142.08 136.59 142.89 137.10 C 143.70 137.61 144.77 137.37 145.29 136.56 L 145.82 135.72 C 146.33 134.91 146.09 133.84 145.28 133.32 C 144.47 132.81 143.40 133.05 142.88 133.86 Z M 142.36 134.70 L 141.82 135.53 C 141.31 136.34 141.55 137.41 142.36 137.93 C 143.16 138.44 144.24 138.21 144.75 137.40 L 145.28 136.56 C 145.80 135.75 145.56 134.68 144.75 134.17 C 143.94 133.65 142.87 133.89 142.36 134.70 Z M 141.82 135.54 L 141.30 136.38 C 140.78 137.19 141.03 138.26 141.83 138.77 C 142.64 139.28 143.71 139.04 144.22 138.23 L 144.75 137.39 C 145.26 136.58 145.02 135.51 144.21 135.00 C 143.40 134.49 142.33 134.73 141.82 135.54 Z M 141.30 136.38 L 140.77 137.23 C 140.26 138.04 140.50 139.10 141.31 139.61 C 142.12 140.12 143.18 139.88 143.69 139.07 L 144.22 138.22 C 144.73 137.41 144.49 136.35 143.68 135.84 C 142.87 135.33 141.80 135.58 141.30 136.38 Z M 140.77 137.23 L 140.23 138.08 C 139.72 138.88 139.96 139.95 140.77 140.46 C 141.57 140.96 142.64 140.73 143.15 139.92 L 143.69 139.07 C 144.19 138.27 143.95 137.20 143.15 136.69 C 142.35 136.18 141.28 136.42 140.77 137.23 Z M 140.24 138.07 L 139.70 138.91 C 139.19 139.71 139.42 140.77 140.22 141.29 C 141.02 141.80 142.08 141.57 142.60 140.77 L 143.14 139.93 C 143.65 139.13 143.42 138.07 142.62 137.55 C 141.82 137.04 140.76 137.27 140.24 138.07 Z M 139.71 138.90 L 139.17 139.73 C 138.65 140.53 138.87 141.59 139.67 142.11 C 140.46 142.63 141.52 142.40 142.04 141.61 L 142.59 140.78 C 143.11 139.98 142.88 138.92 142.09 138.40 C 141.30 137.88 140.23 138.10 139.71 138.90 Z M 139.17 139.73 L 138.62 140.57 C 138.10 141.36 138.32 142.42 139.11 142.94 C 139.91 143.46 140.97 143.24 141.49 142.45 L 142.04 141.61 C 142.56 140.82 142.34 139.76 141.55 139.24 C 140.76 138.72 139.69 138.94 139.17 139.73 Z M 138.62 140.57 L 138.07 141.42 C 137.56 142.21 137.78 143.27 138.57 143.78 C 139.36 144.30 140.42 144.08 140.94 143.29 L 141.49 142.44 C 142.00 141.65 141.78 140.59 140.99 140.08 C 140.20 139.56 139.14 139.78 138.62 140.57 Z M 138.07 141.43 L 137.53 142.26 C 137.02 143.05 137.25 144.11 138.04 144.62 C 138.83 145.13 139.89 144.90 140.40 144.11 L 140.94 143.28 C 141.45 142.49 141.22 141.43 140.43 140.92 C 139.64 140.41 138.58 140.64 138.07 141.43 Z M 137.53 142.27 L 136.99 143.11 C 136.49 143.91 136.72 144.96 137.51 145.46 C 138.30 145.97 139.35 145.74 139.86 144.95 L 140.40 144.11 C 140.91 143.31 140.67 142.26 139.88 141.75 C 139.09 141.25 138.04 141.48 137.53 142.27 Z M 136.99 143.12 L 136.45 143.97 C 135.95 144.76 136.18 145.81 136.97 146.31 C 137.76 146.81 138.81 146.58 139.32 145.79 L 139.86 144.94 C 140.36 144.15 140.13 143.10 139.34 142.60 C 138.55 142.10 137.50 142.33 136.99 143.12 Z M 136.46 143.97 L 135.93 144.80 C 135.43 145.59 135.66 146.64 136.45 147.14 C 137.24 147.64 138.28 147.41 138.79 146.62 L 139.31 145.79 C 139.82 145.00 139.58 143.95 138.79 143.45 C 138.01 142.95 136.96 143.18 136.46 143.97 Z M 135.93 144.80 L 135.40 145.64 C 134.90 146.42 135.14 147.46 135.92 147.97 C 136.71 148.47 137.75 148.23 138.25 147.45 L 138.78 146.62 C 139.28 145.83 139.05 144.79 138.26 144.29 C 137.48 143.79 136.43 144.02 135.93 144.80 Z M 135.41 145.64 L 134.87 146.49 C 134.37 147.27 134.60 148.31 135.38 148.81 C 136.17 149.31 137.21 149.08 137.71 148.29 L 138.25 147.45 C 138.75 146.66 138.51 145.62 137.73 145.12 C 136.95 144.62 135.91 144.85 135.41 145.64 Z M 134.87 146.49 L 134.32 147.35 C 133.83 148.13 134.06 149.17 134.84 149.66 C 135.62 150.16 136.65 149.93 137.15 149.15 L 137.70 148.29 C 138.20 147.51 137.97 146.47 137.19 145.98 C 136.41 145.48 135.37 145.71 134.87 146.49 Z M 134.33 147.35 L 133.79 148.20 C 133.30 148.97 133.52 150.01 134.30 150.50 C 135.08 151.00 136.11 150.77 136.61 149.99 L 137.15 149.15 C 137.64 148.37 137.41 147.34 136.64 146.84 C 135.86 146.35 134.83 146.57 134.33 147.35 Z M 133.79 148.20 L 133.25 149.06 C 132.76 149.83 132.99 150.86 133.77 151.35 C 134.54 151.85 135.57 151.62 136.06 150.84 L 136.61 149.99 C 137.10 149.21 136.87 148.18 136.09 147.69 C 135.32 147.20 134.29 147.43 133.79 148.20 Z M 133.25 149.07 L 132.72 149.91 C 132.23 150.69 132.47 151.71 133.24 152.20 C 134.02 152.69 135.04 152.45 135.53 151.68 L 136.06 150.83 C 136.55 150.05 136.32 149.03 135.54 148.54 C 134.76 148.06 133.74 148.29 133.25 149.07 Z M 132.72 149.93 L 132.19 150.79 C 131.71 151.57 131.95 152.58 132.73 153.06 C 133.50 153.54 134.52 153.30 135.00 152.52 L 135.53 151.66 C 136.01 150.89 135.77 149.87 134.99 149.39 C 134.22 148.91 133.20 149.15 132.72 149.93 Z M 132.19 150.80 L 131.66 151.67 C 131.19 152.45 131.44 153.46 132.22 153.93 C 133.00 154.41 134.01 154.16 134.48 153.38 L 135.01 152.51 C 135.48 151.73 135.23 150.72 134.45 150.25 C 133.67 149.78 132.66 150.02 132.19 150.80 Z M 131.66 151.68 L 131.15 152.53 C 130.69 153.31 130.94 154.32 131.72 154.79 C 132.50 155.25 133.51 154.99 133.98 154.22 L 134.48 153.37 C 134.95 152.59 134.69 151.58 133.91 151.11 C 133.13 150.65 132.12 150.90 131.66 151.68 Z M 131.15 152.54 L 130.66 153.38 C 130.20 154.16 130.45 155.16 131.23 155.62 C 132.01 156.08 133.02 155.83 133.48 155.05 L 133.97 154.21 C 134.43 153.43 134.18 152.42 133.40 151.96 C 132.62 151.50 131.61 151.76 131.15 152.54 Z M 130.66 153.38 L 130.16 154.24 C 129.70 155.02 129.96 156.02 130.73 156.48 C 131.51 156.93 132.51 156.68 132.97 155.90 L 133.47 155.04 C 133.93 154.27 133.67 153.27 132.90 152.81 C 132.12 152.35 131.12 152.61 130.66 153.38 Z M 130.15 154.25 L 129.65 155.11 C 129.20 155.89 129.47 156.89 130.24 157.34 C 131.02 157.79 132.02 157.53 132.47 156.75 L 132.97 155.89 C 133.42 155.11 133.16 154.11 132.38 153.66 C 131.60 153.21 130.61 153.47 130.15 154.25 Z M 129.65 155.13 L 129.15 156.01 C 128.71 156.79 128.99 157.78 129.77 158.22 C 130.55 158.66 131.54 158.39 131.98 157.61 L 132.48 156.73 C 132.92 155.95 132.64 154.96 131.86 154.52 C 131.08 154.08 130.09 154.35 129.65 155.13 Z M 129.14 156.03 L 128.67 156.92 C 128.24 157.70 128.53 158.69 129.32 159.11 C 130.11 159.54 131.09 159.25 131.52 158.46 L 131.99 157.58 C 132.42 156.79 132.13 155.81 131.34 155.38 C 130.55 154.95 129.57 155.25 129.14 156.03 Z M 128.66 156.94 L 128.19 157.83 C 127.78 158.62 128.09 159.60 128.88 160.01 C 129.68 160.42 130.65 160.12 131.06 159.32 L 131.53 158.43 C 131.94 157.64 131.63 156.67 130.84 156.25 C 130.04 155.84 129.07 156.15 128.66 156.94 Z M 128.19 157.85 L 127.74 158.75 C 127.34 159.54 127.66 160.51 128.45 160.91 C 129.25 161.31 130.22 160.99 130.62 160.20 L 131.07 159.30 C 131.47 158.51 131.15 157.54 130.35 157.14 C 129.56 156.74 128.59 157.06 128.19 157.85 Z M 127.73 158.76 L 127.29 159.66 C 126.90 160.46 127.23 161.42 128.03 161.81 C 128.82 162.21 129.79 161.88 130.18 161.08 L 130.62 160.18 C 131.01 159.39 130.69 158.42 129.89 158.03 C 129.09 157.64 128.13 157.97 127.73 158.76 Z M 127.29 159.67 L 126.85 160.57 C 126.47 161.37 126.80 162.33 127.60 162.72 C 128.39 163.11 129.36 162.77 129.74 161.98 L 130.18 161.07 C 130.57 160.27 130.24 159.31 129.44 158.92 C 128.64 158.54 127.68 158.87 127.29 159.67 Z M 126.85 160.59 L 126.42 161.49 C 126.04 162.29 126.38 163.24 127.18 163.62 C 127.98 164.00 128.94 163.66 129.32 162.86 L 129.75 161.96 C 130.12 161.16 129.78 160.21 128.98 159.83 C 128.18 159.45 127.23 159.79 126.85 160.59 Z M 126.42 161.51 L 126.00 162.41 C 125.63 163.21 125.98 164.16 126.78 164.53 C 127.59 164.90 128.54 164.55 128.91 163.75 L 129.32 162.85 C 129.69 162.04 129.34 161.09 128.54 160.72 C 127.74 160.35 126.79 160.71 126.42 161.51 Z M 125.99 162.43 L 125.62 163.28 C 125.26 164.08 125.62 165.03 126.43 165.38 C 127.23 165.74 128.18 165.38 128.54 164.57 L 128.91 163.73 C 129.27 162.92 128.91 161.98 128.10 161.62 C 127.30 161.26 126.35 161.63 125.99 162.43 Z M 125.61 163.30 L 125.25 164.15 C 124.91 164.96 125.28 165.89 126.09 166.24 C 126.90 166.58 127.84 166.20 128.18 165.39 L 128.54 164.55 C 128.89 163.74 128.51 162.80 127.70 162.46 C 126.89 162.12 125.96 162.49 125.61 163.30 Z M 125.24 164.17 L 124.87 165.10 C 124.54 165.91 124.93 166.84 125.75 167.17 C 126.56 167.50 127.49 167.10 127.82 166.29 L 128.19 165.37 C 128.52 164.55 128.13 163.63 127.31 163.30 C 126.50 162.97 125.57 163.36 125.24 164.17 Z M 124.86 165.12 L 124.46 166.16 C 124.15 166.98 124.55 167.90 125.37 168.22 C 126.19 168.53 127.11 168.12 127.43 167.31 L 127.83 166.26 C 128.14 165.45 127.73 164.53 126.92 164.21 C 126.10 163.90 125.18 164.30 124.86 165.12 Z M 124.46 166.18 L 124.11 167.12 C 123.81 167.94 124.23 168.85 125.05 169.15 C 125.87 169.46 126.78 169.04 127.09 168.22 L 127.43 167.28 C 127.73 166.46 127.31 165.55 126.49 165.25 C 125.67 164.94 124.76 165.36 124.46 166.18 Z M 124.11 167.13 L 123.77 168.07 C 123.48 168.89 123.91 169.80 124.73 170.09 C 125.56 170.39 126.46 169.96 126.76 169.13 L 127.09 168.20 C 127.38 167.37 126.95 166.47 126.13 166.17 C 125.31 165.88 124.40 166.31 124.11 167.13 Z M 123.77 168.09 L 123.44 169.06 C 123.15 169.89 123.59 170.79 124.42 171.07 C 125.25 171.35 126.15 170.91 126.43 170.09 L 126.76 169.11 C 127.04 168.29 126.60 167.39 125.78 167.10 C 124.95 166.82 124.05 167.26 123.77 168.09 Z M 123.43 169.09 L 123.11 170.07 C 122.84 170.90 123.30 171.79 124.13 172.06 C 124.96 172.33 125.85 171.88 126.12 171.05 L 126.43 170.06 C 126.70 169.23 126.25 168.34 125.42 168.07 C 124.59 167.80 123.70 168.26 123.43 169.09 Z M 123.10 170.10 L 122.81 171.07 C 122.56 171.90 123.03 172.78 123.86 173.04 C 124.70 173.29 125.58 172.82 125.83 171.98 L 126.12 171.02 C 126.38 170.18 125.90 169.30 125.07 169.05 C 124.23 168.80 123.35 169.27 123.10 170.10 Z M 122.80 171.12 L 122.47 172.36 C 122.24 173.20 122.74 174.06 123.58 174.28 C 124.43 174.51 125.29 174.01 125.51 173.17 L 125.84 171.93 C 126.07 171.09 125.57 170.23 124.73 170.00 C 123.89 169.78 123.02 170.28 122.80 171.12 Z M 122.45 172.45 L 122.20 173.69 C 122.03 174.54 122.58 175.37 123.43 175.54 C 124.28 175.71 125.11 175.16 125.28 174.31 L 125.53 173.07 C 125.70 172.22 125.15 171.39 124.30 171.22 C 123.45 171.05 122.62 171.60 122.45 172.45 Z M 122.17 173.99 L 122.17 174.61 C 122.16 175.48 122.86 176.19 123.73 176.19 C 124.59 176.20 125.30 175.50 125.31 174.63 L 125.31 174.01 C 125.32 173.14 124.62 172.44 123.75 172.43 C 122.88 172.42 122.18 173.12 122.17 173.99 Z M 124.58 175.95 L 124.82 175.79 C 125.55 175.33 125.76 174.36 125.29 173.63 C 124.83 172.90 123.86 172.69 123.13 173.15 L 122.89 173.30 C 122.16 173.77 121.95 174.74 122.41 175.47 C 122.88 176.20 123.85 176.41 124.58 175.95 Z M 125.32 175.27 L 125.66 174.70 C 126.10 173.95 125.85 172.99 125.11 172.55 C 124.36 172.11 123.40 172.36 122.96 173.10 L 122.63 173.68 C 122.19 174.42 122.43 175.38 123.18 175.82 C 123.92 176.26 124.88 176.01 125.32 175.27 Z M 125.71 174.60 L 126.15 173.72 C 126.54 172.95 126.23 172.01 125.45 171.62 C 124.68 171.24 123.74 171.55 123.35 172.32 L 122.91 173.20 C 122.53 173.97 122.84 174.91 123.61 175.30 C 124.38 175.69 125.32 175.37 125.71 174.60 Z M 126.17 173.69 L 126.68 172.60 C 127.05 171.82 126.71 170.89 125.93 170.52 C 125.15 170.15 124.22 170.49 123.85 171.27 L 123.34 172.36 C 122.97 173.14 123.31 174.07 124.09 174.44 C 124.87 174.80 125.80 174.47 126.17 173.69 Z M 126.69 172.58 L 127.24 171.37 C 127.60 170.59 127.25 169.66 126.47 169.30 C 125.68 168.95 124.76 169.29 124.40 170.07 L 123.85 171.28 C 123.49 172.07 123.83 172.99 124.62 173.35 C 125.40 173.71 126.33 173.37 126.69 172.58 Z M 127.24 171.37 L 127.38 171.05 C 127.74 170.27 127.39 169.34 126.61 168.98 C 125.82 168.63 124.90 168.98 124.54 169.76 L 124.40 170.08 C 124.04 170.86 124.39 171.79 125.17 172.15 C 125.96 172.50 126.88 172.16 127.24 171.37 Z"
      fill="black"
      fill-rule="nonzero" /><path d="M 144.59 142.22 L 145.63 141.68 C 146.40 141.28 146.70 140.32 146.29 139.55 C 145.89 138.78 144.94 138.49 144.17 138.89 L 143.14 139.43 C 142.37 139.83 142.07 140.78 142.47 141.55 C 142.87 142.32 143.82 142.62 144.59 142.22 Z M 145.58 141.72 L 146.58 141.24 C 147.37 140.87 147.71 139.92 147.33 139.12 C 146.95 138.33 146.00 137.99 145.21 138.37 L 144.22 138.85 C 143.42 139.22 143.09 140.17 143.46 140.97 C 143.84 141.76 144.79 142.10 145.58 141.72 Z M 146.46 141.31 L 147.38 140.97 C 148.21 140.66 148.63 139.73 148.32 138.90 C 148.01 138.07 147.09 137.65 146.25 137.96 L 145.33 138.30 C 144.50 138.61 144.08 139.54 144.39 140.37 C 144.70 141.20 145.63 141.62 146.46 141.31 Z M 147.11 141.06 L 147.92 140.91 C 148.80 140.75 149.39 139.90 149.22 139.02 C 149.06 138.14 148.21 137.55 147.33 137.72 L 146.52 137.87 C 145.64 138.03 145.06 138.88 145.22 139.76 C 145.38 140.64 146.23 141.22 147.11 141.06 Z M 147.27 140.92 L 148.10 141.11 C 148.99 141.31 149.87 140.75 150.07 139.86 C 150.27 138.98 149.71 138.10 148.82 137.90 L 147.99 137.71 C 147.10 137.51 146.22 138.07 146.02 138.95 C 145.82 139.84 146.38 140.72 147.27 140.92 Z M 147.28 140.68 L 147.94 141.34 C 148.59 141.99 149.65 141.99 150.30 141.34 C 150.95 140.68 150.95 139.63 150.30 138.98 L 149.64 138.32 C 148.99 137.67 147.93 137.67 147.28 138.32 C 146.63 138.98 146.63 140.03 147.28 140.68 Z M 147.58 140.87 L 148.02 141.82 C 148.41 142.67 149.42 143.04 150.27 142.64 C 151.12 142.25 151.49 141.24 151.10 140.39 L 150.66 139.45 C 150.26 138.60 149.26 138.23 148.41 138.62 C 147.56 139.01 147.19 140.02 147.58 140.87 Z M 147.91 141.57 L 148.18 142.53 C 148.43 143.44 149.38 143.97 150.29 143.72 C 151.20 143.46 151.73 142.52 151.48 141.61 L 151.21 140.64 C 150.95 139.73 150.01 139.20 149.09 139.45 C 148.18 139.71 147.65 140.66 147.91 141.57 Z M 148.14 142.39 L 148.32 143.35 C 148.50 144.29 149.40 144.90 150.33 144.72 C 151.27 144.54 151.88 143.64 151.70 142.71 L 151.52 141.75 C 151.34 140.81 150.44 140.20 149.50 140.38 C 148.57 140.56 147.96 141.46 148.14 142.39 Z M 148.30 143.27 L 148.44 144.27 C 148.57 145.21 149.44 145.87 150.38 145.75 C 151.33 145.62 151.99 144.74 151.86 143.80 L 151.72 142.80 C 151.59 141.85 150.72 141.19 149.78 141.32 C 148.83 141.45 148.17 142.32 148.30 143.27 Z M 148.43 144.23 L 148.54 145.24 C 148.65 146.19 149.51 146.87 150.46 146.76 C 151.41 146.65 152.09 145.80 151.98 144.85 L 151.87 143.84 C 151.76 142.89 150.90 142.21 149.95 142.32 C 149.00 142.42 148.32 143.28 148.43 144.23 Z M 148.54 145.23 L 148.65 146.19 C 148.75 147.14 149.60 147.83 150.55 147.72 C 151.51 147.62 152.19 146.77 152.09 145.81 L 151.99 144.86 C 151.88 143.90 151.03 143.22 150.08 143.32 C 149.12 143.42 148.44 144.28 148.54 145.23 Z M 148.64 146.19 L 148.75 147.18 C 148.85 148.13 149.71 148.82 150.66 148.72 C 151.61 148.61 152.30 147.76 152.20 146.81 L 152.09 145.82 C 151.99 144.86 151.13 144.18 150.18 144.28 C 149.23 144.38 148.54 145.24 148.64 146.19 Z M 148.75 147.18 L 148.86 148.21 C 148.97 149.16 149.83 149.84 150.78 149.74 C 151.73 149.63 152.42 148.78 152.31 147.83 L 152.20 146.80 C 152.09 145.85 151.24 145.16 150.28 145.27 C 149.33 145.37 148.65 146.23 148.75 147.18 Z M 148.86 148.21 L 148.98 149.22 C 149.09 150.17 149.95 150.85 150.90 150.74 C 151.85 150.63 152.53 149.77 152.43 148.82 L 152.31 147.82 C 152.20 146.87 151.34 146.18 150.39 146.29 C 149.44 146.40 148.76 147.26 148.86 148.21 Z M 148.98 149.22 L 149.09 150.19 C 149.20 151.15 150.07 151.83 151.02 151.71 C 151.97 151.60 152.65 150.74 152.54 149.79 L 152.42 148.82 C 152.31 147.87 151.45 147.19 150.50 147.30 C 149.55 147.41 148.87 148.27 148.98 149.22 Z M 149.09 150.19 L 149.21 151.18 C 149.32 152.13 150.18 152.82 151.13 152.71 C 152.08 152.60 152.76 151.74 152.65 150.79 L 152.54 149.80 C 152.43 148.84 151.57 148.16 150.62 148.27 C 149.67 148.38 148.99 149.24 149.09 150.19 Z M 149.21 151.17 L 149.32 152.18 C 149.42 153.13 150.27 153.82 151.22 153.72 C 152.17 153.62 152.86 152.76 152.76 151.81 L 152.65 150.80 C 152.55 149.85 151.70 149.16 150.75 149.26 C 149.79 149.36 149.11 150.22 149.21 151.17 Z M 149.31 152.16 L 149.41 153.15 C 149.50 154.11 150.34 154.80 151.30 154.71 C 152.25 154.62 152.95 153.78 152.86 152.83 L 152.76 151.83 C 152.67 150.88 151.82 150.18 150.87 150.27 C 149.92 150.36 149.22 151.21 149.31 152.16 Z M 149.41 153.13 L 149.49 154.03 C 149.56 154.98 150.40 155.68 151.35 155.61 C 152.30 155.53 153.01 154.69 152.93 153.74 L 152.85 152.85 C 152.77 151.90 151.94 151.19 150.99 151.27 C 150.04 151.35 149.33 152.18 149.41 153.13 Z M 149.49 154.01 L 149.56 154.95 C 149.63 155.89 150.46 156.61 151.40 156.53 C 152.35 156.46 153.06 155.64 152.99 154.69 L 152.92 153.76 C 152.85 152.81 152.03 152.10 151.08 152.17 C 150.13 152.24 149.42 153.07 149.49 154.01 Z M 149.56 154.94 L 149.63 155.93 C 149.70 156.88 150.52 157.59 151.47 157.52 C 152.42 157.45 153.13 156.63 153.06 155.68 L 152.99 154.69 C 152.92 153.75 152.10 153.04 151.15 153.10 C 150.21 153.17 149.50 153.99 149.56 154.94 Z M 149.64 155.93 L 149.72 157.00 C 149.79 157.95 150.61 158.65 151.55 158.59 C 152.49 158.52 153.20 157.70 153.13 156.75 L 153.05 155.68 C 152.99 154.74 152.17 154.03 151.22 154.10 C 150.28 154.17 149.57 154.99 149.64 155.93 Z M 149.72 157.01 L 149.81 158.11 C 149.88 159.05 150.70 159.76 151.64 159.69 C 152.58 159.61 153.28 158.79 153.21 157.85 L 153.13 156.75 C 153.05 155.81 152.23 155.11 151.30 155.18 C 150.36 155.25 149.65 156.07 149.72 157.01 Z M 149.81 158.12 L 149.89 159.10 C 149.97 160.03 150.79 160.73 151.72 160.66 C 152.66 160.58 153.36 159.76 153.28 158.82 L 153.20 157.85 C 153.13 156.91 152.31 156.21 151.37 156.29 C 150.44 156.37 149.74 157.19 149.81 158.12 Z M 149.90 159.10 L 149.98 160.12 C 150.06 161.05 150.88 161.74 151.81 161.67 C 152.74 161.59 153.44 160.77 153.36 159.84 L 153.28 158.82 C 153.20 157.89 152.38 157.20 151.45 157.27 C 150.52 157.35 149.82 158.17 149.90 159.10 Z M 149.99 160.12 L 150.08 161.16 C 150.16 162.08 150.97 162.77 151.90 162.70 C 152.83 162.62 153.52 161.80 153.44 160.87 L 153.35 159.84 C 153.28 158.91 152.46 158.22 151.53 158.30 C 150.60 158.38 149.91 159.19 149.99 160.12 Z M 150.09 161.16 L 150.17 162.19 C 150.25 163.11 151.06 163.80 151.99 163.72 C 152.91 163.64 153.60 162.83 153.52 161.90 L 153.43 160.87 C 153.36 159.95 152.54 159.26 151.62 159.34 C 150.69 159.42 150.01 160.23 150.09 161.16 Z M 150.18 162.19 L 150.26 163.19 C 150.34 164.11 151.15 164.79 152.07 164.71 C 152.99 164.64 153.68 163.83 153.60 162.91 L 153.52 161.90 C 153.44 160.98 152.63 160.30 151.71 160.38 C 150.79 160.45 150.10 161.26 150.18 162.19 Z M 150.27 163.18 L 150.35 164.13 C 150.42 165.05 151.23 165.73 152.15 165.66 C 153.06 165.58 153.75 164.77 153.67 163.86 L 153.59 162.91 C 153.52 161.99 152.71 161.31 151.79 161.38 C 150.88 161.46 150.19 162.26 150.27 163.18 Z M 150.36 164.12 L 150.45 165.27 C 150.52 166.19 151.32 166.87 152.23 166.80 C 153.14 166.72 153.82 165.93 153.75 165.01 L 153.66 163.86 C 153.59 162.95 152.79 162.27 151.88 162.34 C 150.97 162.41 150.29 163.21 150.36 164.12 Z M 150.46 165.27 L 150.54 166.34 C 150.61 167.25 151.40 167.93 152.30 167.86 C 153.21 167.79 153.89 167.00 153.82 166.10 L 153.74 165.02 C 153.67 164.12 152.88 163.44 151.98 163.51 C 151.07 163.57 150.39 164.36 150.46 165.27 Z M 150.56 166.34 L 150.63 167.31 C 150.69 168.20 151.47 168.88 152.36 168.81 C 153.26 168.75 153.94 167.97 153.87 167.08 L 153.80 166.11 C 153.74 165.21 152.96 164.54 152.07 164.60 C 151.17 164.66 150.49 165.44 150.56 166.34 Z M 150.64 167.30 L 150.70 168.19 C 150.76 169.08 151.53 169.75 152.42 169.69 C 153.31 169.63 153.98 168.86 153.92 167.97 L 153.86 167.08 C 153.79 166.19 153.03 165.52 152.14 165.58 C 151.25 165.65 150.58 166.42 150.64 167.30 Z M 150.72 168.19 L 150.78 169.09 C 150.84 169.97 151.60 170.63 152.48 170.57 C 153.36 170.51 154.03 169.74 153.97 168.86 L 153.90 167.97 C 153.84 167.09 153.08 166.43 152.20 166.49 C 151.32 166.55 150.66 167.31 150.72 168.19 Z M 150.79 169.09 L 150.86 170.10 C 150.93 170.98 151.69 171.63 152.56 171.57 C 153.43 171.51 154.09 170.75 154.03 169.88 L 153.95 168.86 C 153.89 167.99 153.13 167.33 152.26 167.39 C 151.38 167.46 150.73 168.22 150.79 169.09 Z M 150.87 170.11 L 150.94 171.09 C 151.01 171.96 151.77 172.62 152.64 172.55 C 153.51 172.49 154.16 171.73 154.09 170.86 L 154.02 169.87 C 153.96 169.00 153.20 168.35 152.33 168.42 C 151.46 168.48 150.81 169.24 150.87 170.11 Z M 150.95 171.10 L 151.03 172.08 C 151.09 172.94 151.84 173.59 152.71 173.53 C 153.58 173.46 154.23 172.71 154.16 171.84 L 154.09 170.86 C 154.02 169.99 153.27 169.35 152.40 169.41 C 151.54 169.48 150.89 170.23 150.95 171.10 Z M 151.03 172.08 L 151.10 173.06 C 151.17 173.92 151.92 174.57 152.78 174.50 C 153.64 174.44 154.29 173.69 154.23 172.83 L 154.16 171.84 C 154.09 170.98 153.34 170.33 152.48 170.40 C 151.61 170.46 150.97 171.21 151.03 172.08 Z M 151.11 173.06 L 151.18 174.05 C 151.24 174.91 151.99 175.56 152.85 175.49 C 153.71 175.43 154.36 174.68 154.30 173.82 L 154.23 172.83 C 154.16 171.97 153.41 171.32 152.55 171.38 C 151.69 171.44 151.04 172.19 151.11 173.06 Z M 151.18 174.05 L 151.25 175.05 C 151.31 175.91 152.06 176.56 152.92 176.50 C 153.78 176.43 154.43 175.69 154.37 174.83 L 154.30 173.82 C 154.23 172.96 153.49 172.31 152.63 172.38 C 151.76 172.44 151.12 173.19 151.18 174.05 Z M 151.25 175.05 L 151.32 176.06 C 151.39 176.92 152.13 177.56 152.99 177.50 C 153.85 177.44 154.50 176.69 154.44 175.83 L 154.37 174.83 C 154.31 173.97 153.56 173.32 152.70 173.38 C 151.84 173.44 151.19 174.19 151.25 175.05 Z"
      fill="black"
      fill-rule="nonzero" /><path d="M 153.38 143.25 L 154.11 143.98 C 154.79 144.66 155.90 144.66 156.58 143.97 C 157.26 143.29 157.25 142.18 156.57 141.50 L 155.84 140.78 C 155.16 140.10 154.05 140.10 153.37 140.78 C 152.69 141.47 152.69 142.57 153.38 143.25 Z M 154.12 144.01 L 154.85 144.71 C 155.55 145.38 156.66 145.36 157.33 144.66 C 158.00 143.96 157.98 142.85 157.29 142.18 L 156.55 141.48 C 155.86 140.81 154.75 140.83 154.07 141.53 C 153.40 142.22 153.42 143.33 154.12 144.01 Z M 154.89 144.76 L 155.63 145.42 C 156.35 146.07 157.47 146.01 158.12 145.28 C 158.77 144.56 158.71 143.45 157.98 142.80 L 157.25 142.14 C 156.52 141.48 155.41 141.54 154.76 142.27 C 154.11 142.99 154.17 144.11 154.89 144.76 Z M 155.70 145.49 L 156.45 146.09 C 157.21 146.70 158.32 146.58 158.93 145.82 C 159.54 145.05 159.42 143.94 158.66 143.33 L 157.91 142.73 C 157.15 142.12 156.04 142.24 155.43 143.00 C 154.82 143.76 154.94 144.87 155.70 145.49 Z M 156.56 146.16 L 157.36 146.70 C 158.16 147.25 159.25 147.05 159.80 146.25 C 160.35 145.45 160.15 144.36 159.35 143.81 L 158.55 143.26 C 157.75 142.71 156.66 142.92 156.11 143.72 C 155.56 144.51 155.76 145.61 156.56 146.16 Z M 157.48 146.75 L 158.32 147.24 C 159.14 147.72 160.20 147.45 160.68 146.63 C 161.17 145.80 160.89 144.74 160.07 144.26 L 159.23 143.77 C 158.41 143.28 157.35 143.56 156.86 144.38 C 156.38 145.20 156.65 146.26 157.48 146.75 Z M 158.41 147.26 L 159.32 147.73 C 160.16 148.16 161.18 147.84 161.61 147.00 C 162.04 146.17 161.72 145.14 160.88 144.71 L 159.97 144.24 C 159.14 143.81 158.11 144.13 157.68 144.97 C 157.25 145.81 157.58 146.83 158.41 147.26 Z M 159.38 147.74 L 160.26 148.16 C 161.10 148.56 162.11 148.20 162.50 147.36 C 162.90 146.52 162.54 145.52 161.70 145.12 L 160.82 144.70 C 159.98 144.30 158.98 144.66 158.58 145.50 C 158.18 146.34 158.54 147.34 159.38 147.74 Z M 160.30 148.17 L 161.15 148.55 C 161.99 148.93 162.98 148.55 163.36 147.71 C 163.74 146.86 163.37 145.87 162.52 145.49 L 161.67 145.11 C 160.83 144.73 159.83 145.11 159.45 145.95 C 159.07 146.80 159.45 147.79 160.30 148.17 Z M 161.17 148.56 L 162.08 148.95 C 162.93 149.32 163.92 148.92 164.28 148.07 C 164.65 147.22 164.25 146.23 163.40 145.87 L 162.49 145.48 C 161.64 145.11 160.66 145.51 160.29 146.36 C 159.93 147.21 160.32 148.20 161.17 148.56 Z M 162.11 148.96 L 163.07 149.36 C 163.93 149.71 164.91 149.30 165.26 148.44 C 165.61 147.58 165.20 146.61 164.34 146.25 L 163.38 145.86 C 162.52 145.51 161.54 145.92 161.19 146.77 C 160.84 147.63 161.25 148.61 162.11 148.96 Z M 163.09 149.37 L 164.10 149.76 C 164.96 150.10 165.94 149.68 166.28 148.82 C 166.62 147.96 166.19 146.98 165.33 146.64 L 164.32 146.24 C 163.46 145.90 162.48 146.33 162.14 147.19 C 161.80 148.05 162.23 149.03 163.09 149.37 Z M 164.12 149.78 L 165.09 150.15 C 165.97 150.48 166.94 150.04 167.27 149.17 C 167.60 148.30 167.16 147.33 166.29 147.00 L 165.31 146.63 C 164.44 146.30 163.47 146.74 163.14 147.61 C 162.81 148.48 163.25 149.45 164.12 149.78 Z M 165.10 150.17 L 166.08 150.53 C 166.97 150.85 167.94 150.40 168.27 149.52 C 168.59 148.64 168.14 147.66 167.26 147.33 L 166.28 146.97 C 165.40 146.65 164.42 147.10 164.09 147.99 C 163.77 148.87 164.22 149.85 165.10 150.17 Z M 166.09 150.55 L 167.06 150.90 C 167.95 151.22 168.94 150.76 169.26 149.86 C 169.58 148.97 169.12 147.98 168.22 147.66 L 167.25 147.31 C 166.36 146.99 165.37 147.46 165.05 148.35 C 164.73 149.24 165.19 150.23 166.09 150.55 Z M 167.06 150.92 L 168.00 151.25 C 168.90 151.57 169.89 151.10 170.21 150.19 C 170.53 149.29 170.06 148.29 169.15 147.97 L 168.22 147.64 C 167.31 147.32 166.32 147.80 166.00 148.70 C 165.68 149.61 166.16 150.60 167.06 150.92 Z M 167.99 151.27 L 168.87 151.58 C 169.79 151.90 170.79 151.41 171.11 150.50 C 171.43 149.58 170.95 148.58 170.03 148.26 L 169.16 147.95 C 168.24 147.63 167.24 148.12 166.92 149.03 C 166.60 149.95 167.08 150.95 167.99 151.27 Z M 168.87 151.58 L 169.91 151.94 C 170.83 152.26 171.83 151.78 172.15 150.86 C 172.47 149.94 171.99 148.94 171.07 148.62 L 170.03 148.26 C 169.11 147.93 168.11 148.42 167.79 149.34 C 167.47 150.26 167.95 151.26 168.87 151.58 Z M 169.91 151.94 L 170.88 152.27 C 171.80 152.59 172.80 152.10 173.11 151.19 C 173.43 150.27 172.94 149.27 172.03 148.96 L 171.06 148.62 C 170.14 148.31 169.15 148.79 168.83 149.71 C 168.51 150.62 169.00 151.62 169.91 151.94 Z M 170.90 152.27 L 171.79 152.56 C 172.70 152.87 173.69 152.38 174.00 151.47 C 174.30 150.56 173.81 149.57 172.90 149.26 L 172.01 148.96 C 171.10 148.66 170.11 149.15 169.81 150.06 C 169.50 150.97 169.99 151.96 170.90 152.27 Z M 171.81 152.56 L 172.68 152.84 C 173.59 153.14 174.57 152.64 174.86 151.73 C 175.16 150.82 174.66 149.84 173.75 149.55 L 172.88 149.27 C 171.97 148.97 170.99 149.47 170.70 150.38 C 170.40 151.29 170.90 152.27 171.81 152.56 Z M 172.71 152.84 L 173.64 153.13 C 174.55 153.41 175.51 152.90 175.80 152.00 C 176.08 151.09 175.57 150.13 174.66 149.84 L 173.72 149.55 C 172.82 149.27 171.85 149.78 171.57 150.69 C 171.29 151.59 171.80 152.56 172.71 152.84 Z M 173.66 153.12 L 174.62 153.41 C 175.52 153.68 176.47 153.17 176.74 152.27 C 177.01 151.36 176.50 150.41 175.60 150.14 L 174.65 149.85 C 173.74 149.58 172.79 150.09 172.52 150.99 C 172.25 151.90 172.76 152.85 173.66 153.12 Z M 174.62 153.40 L 175.60 153.69 C 176.50 153.96 177.44 153.45 177.71 152.55 C 177.97 151.65 177.46 150.71 176.57 150.44 L 175.59 150.15 C 174.70 149.88 173.75 150.39 173.49 151.29 C 173.22 152.19 173.73 153.13 174.62 153.40 Z M 175.60 153.67 L 176.54 153.96 C 177.43 154.22 178.36 153.72 178.63 152.83 C 178.90 151.94 178.40 151.01 177.51 150.74 L 176.57 150.46 C 175.68 150.19 174.74 150.69 174.47 151.58 C 174.21 152.47 174.71 153.41 175.60 153.67 Z M 176.54 153.94 L 177.49 154.23 C 178.37 154.50 179.30 154.00 179.56 153.12 C 179.83 152.24 179.33 151.31 178.45 151.04 L 177.51 150.75 C 176.63 150.49 175.70 150.98 175.43 151.86 C 175.16 152.75 175.66 153.68 176.54 153.94 Z M 177.49 154.22 L 178.46 154.51 C 179.33 154.77 180.25 154.28 180.52 153.40 C 180.78 152.53 180.29 151.61 179.42 151.35 L 178.45 151.06 C 177.57 150.79 176.65 151.29 176.39 152.16 C 176.13 153.03 176.62 153.95 177.49 154.22 Z M 178.47 154.49 L 179.45 154.79 C 180.32 155.05 181.23 154.55 181.49 153.69 C 181.75 152.82 181.25 151.91 180.39 151.65 L 179.41 151.36 C 178.54 151.10 177.63 151.59 177.37 152.46 C 177.11 153.33 177.61 154.24 178.47 154.49 Z M 179.47 154.78 L 180.44 155.06 C 181.30 155.31 182.20 154.82 182.45 153.96 C 182.70 153.10 182.21 152.20 181.35 151.95 L 180.37 151.66 C 179.51 151.41 178.61 151.91 178.36 152.77 C 178.11 153.62 178.61 154.53 179.47 154.78 Z M 180.45 155.05 L 181.42 155.33 C 182.27 155.57 183.17 155.08 183.41 154.22 C 183.65 153.37 183.16 152.48 182.30 152.23 L 181.33 151.96 C 180.48 151.71 179.59 152.21 179.34 153.06 C 179.10 153.92 179.59 154.81 180.45 155.05 Z M 181.43 155.32 L 182.39 155.58 C 183.24 155.82 184.12 155.32 184.36 154.47 C 184.59 153.63 184.10 152.75 183.25 152.51 L 182.29 152.24 C 181.44 152.01 180.56 152.50 180.33 153.35 C 180.09 154.20 180.59 155.08 181.43 155.32 Z M 182.41 155.58 L 183.33 155.82 C 184.17 156.05 185.04 155.55 185.27 154.71 C 185.50 153.86 184.99 152.99 184.15 152.76 L 183.23 152.52 C 182.39 152.29 181.52 152.79 181.29 153.63 C 181.06 154.48 181.56 155.35 182.41 155.58 Z M 183.34 155.82 L 184.24 156.06 C 185.08 156.28 185.94 155.77 186.16 154.93 C 186.38 154.09 185.88 153.23 185.04 153.01 L 184.14 152.77 C 183.30 152.55 182.43 153.05 182.21 153.89 C 181.99 154.74 182.49 155.60 183.34 155.82 Z M 184.24 156.05 L 185.18 156.30 C 186.02 156.52 186.88 156.02 187.10 155.18 C 187.32 154.34 186.82 153.48 185.98 153.26 L 185.04 153.01 C 184.20 152.79 183.34 153.29 183.12 154.13 C 182.90 154.97 183.40 155.83 184.24 156.05 Z M 185.18 156.29 L 186.22 156.57 C 187.05 156.79 187.91 156.30 188.13 155.46 C 188.36 154.62 187.86 153.76 187.02 153.54 L 185.98 153.26 C 185.15 153.04 184.29 153.54 184.07 154.37 C 183.84 155.21 184.34 156.07 185.18 156.29 Z M 186.21 156.56 L 187.14 156.82 C 187.97 157.05 188.83 156.56 189.06 155.72 C 189.29 154.89 188.80 154.03 187.96 153.80 L 187.03 153.55 C 186.20 153.32 185.34 153.81 185.11 154.64 C 184.88 155.48 185.37 156.34 186.21 156.56 Z M 187.13 156.82 L 188.03 157.07 C 188.86 157.30 189.72 156.81 189.96 155.98 C 190.19 155.15 189.70 154.29 188.87 154.06 L 187.97 153.80 C 187.14 153.57 186.28 154.06 186.04 154.89 C 185.81 155.72 186.30 156.58 187.13 156.82 Z M 188.03 157.06 L 188.98 157.33 C 189.82 157.57 190.68 157.09 190.91 156.26 C 191.15 155.42 190.66 154.56 189.83 154.33 L 188.87 154.06 C 188.04 153.82 187.18 154.31 186.95 155.14 C 186.71 155.97 187.20 156.83 188.03 157.06 Z M 188.98 157.33 L 189.98 157.62 C 190.81 157.85 191.67 157.37 191.91 156.54 C 192.15 155.71 191.66 154.85 190.83 154.61 L 189.84 154.33 C 189.01 154.09 188.14 154.57 187.91 155.40 C 187.67 156.23 188.15 157.10 188.98 157.33 Z M 189.98 157.62 L 191.00 157.91 C 191.83 158.15 192.70 157.66 192.93 156.84 C 193.17 156.01 192.69 155.14 191.86 154.91 L 190.84 154.61 C 190.01 154.38 189.14 154.86 188.91 155.69 C 188.67 156.52 189.15 157.38 189.98 157.62 Z M 191.00 157.91 L 191.71 158.11 C 192.54 158.35 193.40 157.87 193.64 157.04 C 193.88 156.21 193.40 155.35 192.57 155.11 L 191.86 154.91 C 191.03 154.67 190.17 155.15 189.93 155.98 C 189.70 156.81 190.18 157.67 191.00 157.91 Z"
      fill="black"
      fill-rule="nonzero" /></svg>