<svg xmlns="http://www.w3.org/2000/svg" width="300" height="300" viewBox="0 0 300 300">
<path d="M 113.36 119.80 L 114.23 120.30 C 115.08 120.79 116.16 120.50 116.65 119.66 C 117.13 118.81 116.84 117.73 116.00 117.25 L 115.12 116.74 C 114.28 116.25 113.20 116.54 112.71 117.39 C 112.22 118.23 112.51 119.31 113.36 119.80 Z M 114.27 120.33 L 115.16 120.81 C 116.02 121.27 117.09 120.95 117.55 120.09 C 118.02 119.23 117.70 118.16 116.84 117.70 L 115.96 117.22 C 115.10 116.76 114.03 117.08 113.56 117.93 C 113.10 118.79 113.42 119.86 114.27 120.33 Z M 115.25 120.85 L 116.15 121.27 C 117.03 121.69 118.08 121.31 118.50 120.43 C 118.91 119.54 118.53 118.49 117.65 118.08 L 116.75 117.65 C 115.87 117.24 114.81 117.62 114.40 118.50 C 113.98 119.38 114.36 120.44 115.25 120.85 Z M 116.29 121.33 L 117.21 121.67 C 118.13 122.01 119.14 121.54 119.48 120.63 C 119.81 119.71 119.35 118.70 118.43 118.37 L 117.51 118.02 C 116.59 117.69 115.58 118.15 115.25 119.07 C 114.91 119.98 115.38 120.99 116.29 121.33 Z M 117.36 121.69 L 118.32 121.96 C 119.25 122.21 120.20 121.67 120.46 120.74 C 120.71 119.81 120.17 118.86 119.24 118.60 L 118.28 118.34 C 117.36 118.09 116.40 118.63 116.15 119.56 C 115.89 120.48 116.44 121.44 117.36 121.69 Z M 118.39 121.94 L 119.37 122.17 C 120.28 122.38 121.20 121.81 121.41 120.89 C 121.63 119.98 121.06 119.06 120.14 118.85 L 119.17 118.62 C 118.25 118.41 117.33 118.98 117.12 119.89 C 116.91 120.81 117.48 121.73 118.39 121.94 Z M 119.36 122.13 L 120.34 122.37 C 121.23 122.59 122.14 122.04 122.36 121.14 C 122.57 120.24 122.02 119.34 121.12 119.12 L 120.15 118.88 C 119.25 118.66 118.35 119.21 118.13 120.11 C 117.91 121.01 118.46 121.91 119.36 122.13 Z M 120.26 122.32 L 121.21 122.61 C 122.08 122.87 123.00 122.38 123.26 121.50 C 123.52 120.63 123.03 119.71 122.16 119.45 L 121.20 119.16 C 120.33 118.90 119.41 119.40 119.15 120.27 C 118.89 121.14 119.38 122.06 120.26 122.32 Z M 121.13 122.58 L 122.06 122.91 C 122.92 123.22 123.86 122.78 124.17 121.92 C 124.47 121.07 124.03 120.13 123.18 119.82 L 122.24 119.48 C 121.38 119.17 120.44 119.62 120.13 120.47 C 119.83 121.33 120.27 122.27 121.13 122.58 Z M 122.01 122.89 L 122.94 123.26 C 123.78 123.60 124.74 123.19 125.08 122.35 C 125.41 121.51 125.00 120.55 124.16 120.21 L 123.23 119.84 C 122.39 119.51 121.43 119.91 121.10 120.76 C 120.76 121.60 121.17 122.55 122.01 122.89 Z M 122.92 123.25 L 123.82 123.63 C 124.65 123.98 125.61 123.59 125.96 122.75 C 126.31 121.92 125.92 120.96 125.09 120.61 L 124.19 120.23 C 123.35 119.88 122.39 120.27 122.04 121.10 C 121.69 121.94 122.08 122.90 122.92 123.25 Z"
      fill="black"
      fill-rule="nonzero" /><path d="M 111.69 145.45 L 112.68 145.32 C 113.62 145.19 114.28 144.32 114.16 143.38 C 114.03 142.43 113.16 141.77 112.22 141.90 L 111.22 142.03 C 110.28 142.16 109.62 143.03 109.75 143.97 C 109.87 144.92 110.74 145.58 111.69 145.45 Z M 112.68 145.34 L 113.67 145.20 C 114.63 145.07 115.30 144.19 115.17 143.24 C 115.04 142.28 114.16 141.61 113.20 141.74 L 112.21 141.88 C 111.26 142.01 110.59 142.89 110.72 143.84 C 110.85 144.80 111.72 145.47 112.68 145.34 Z M 113.67 145.22 L 114.67 145.09 C 115.63 144.96 116.31 144.07 116.18 143.10 C 116.05 142.14 115.16 141.46 114.19 141.59 L 113.20 141.72 C 112.23 141.85 111.56 142.74 111.69 143.71 C 111.82 144.68 112.71 145.35 113.67 145.22 Z M 114.67 145.11 L 115.66 144.98 C 116.64 144.84 117.32 143.94 117.19 142.97 C 117.06 141.99 116.16 141.30 115.18 141.43 L 114.19 141.57 C 113.21 141.70 112.52 142.60 112.66 143.58 C 112.79 144.56 113.69 145.24 114.67 145.11 Z M 115.66 145.00 L 116.60 144.87 C 117.59 144.74 118.29 143.82 118.15 142.84 C 118.02 141.85 117.11 141.15 116.12 141.29 L 115.18 141.41 C 114.19 141.55 113.49 142.46 113.63 143.45 C 113.76 144.44 114.67 145.13 115.66 145.00 Z"
      fill="black"
      fill-rule="nonzero" /><path d="M 116.77 172.94 L 116.68 174.30 C 116.62 175.25 117.33 176.07 118.28 176.13 C 119.22 176.19 120.04 175.48 120.10 174.53 L 120.20 173.17 C 120.26 172.23 119.55 171.41 118.60 171.35 C 117.65 171.28 116.84 172.00 116.77 172.94 Z M 116.65 174.35 L 116.61 175.56 C 116.57 176.52 117.32 177.33 118.28 177.37 C 119.24 177.40 120.05 176.65 120.09 175.69 L 120.13 174.49 C 120.17 173.53 119.42 172.72 118.46 172.68 C 117.50 172.64 116.69 173.39 116.65 174.35 Z M 116.58 175.71 L 116.62 176.61 C 116.67 177.59 117.50 178.34 118.47 178.29 C 119.45 178.25 120.20 177.42 120.16 176.44 L 120.11 175.54 C 120.07 174.57 119.24 173.81 118.26 173.86 C 117.29 173.91 116.53 174.74 116.58 175.71 Z M 116.73 177.20 L 116.90 177.64 C 117.27 178.56 118.32 179.00 119.24 178.63 C 120.15 178.26 120.60 177.22 120.23 176.30 L 120.05 175.86 C 119.69 174.94 118.64 174.49 117.72 174.86 C 116.80 175.23 116.36 176.28 116.73 177.20 Z M 119.25 178.63 L 119.63 178.47 C 120.54 178.10 120.98 177.05 120.60 176.13 C 120.22 175.21 119.18 174.78 118.26 175.15 L 117.88 175.31 C 116.97 175.69 116.53 176.74 116.91 177.65 C 117.29 178.57 118.34 179.01 119.25 178.63 Z M 120.35 177.89 L 120.89 177.19 C 121.48 176.41 121.33 175.30 120.55 174.70 C 119.77 174.11 118.66 174.26 118.07 175.04 L 117.53 175.74 C 116.94 176.52 117.09 177.63 117.87 178.22 C 118.65 178.82 119.76 178.67 120.35 177.89 Z M 120.98 177.01 L 121.62 175.93 C 122.11 175.10 121.84 174.03 121.01 173.54 C 120.18 173.05 119.11 173.32 118.61 174.15 L 117.98 175.22 C 117.48 176.05 117.76 177.12 118.58 177.61 C 119.41 178.11 120.49 177.84 120.98 177.01 Z M 121.63 175.86 L 122.27 174.69 C 122.72 173.86 122.41 172.81 121.57 172.35 C 120.74 171.90 119.69 172.21 119.23 173.05 L 118.60 174.22 C 118.15 175.06 118.46 176.10 119.29 176.56 C 120.13 177.01 121.18 176.70 121.63 175.86 Z M 122.26 174.66 L 122.75 173.74 C 123.19 172.91 122.86 171.87 122.03 171.44 C 121.19 171.00 120.16 171.32 119.72 172.15 L 119.24 173.08 C 118.80 173.91 119.12 174.94 119.96 175.38 C 120.79 175.82 121.82 175.50 122.26 174.66 Z M 122.74 173.73 L 123.22 172.80 C 123.65 171.97 123.33 170.94 122.49 170.51 C 121.66 170.08 120.64 170.41 120.21 171.24 L 119.73 172.17 C 119.30 173.00 119.62 174.03 120.46 174.46 C 121.29 174.89 122.31 174.56 122.74 173.73 Z M 123.21 172.79 L 123.68 171.88 C 124.11 171.05 123.78 170.03 122.95 169.61 C 122.12 169.18 121.10 169.51 120.68 170.34 L 120.21 171.25 C 119.79 172.08 120.12 173.10 120.95 173.52 C 121.77 173.94 122.79 173.62 123.21 172.79 Z M 123.67 171.87 L 124.12 171.00 C 124.54 170.17 124.21 169.16 123.39 168.74 C 122.56 168.32 121.55 168.65 121.13 169.47 L 120.69 170.35 C 120.27 171.17 120.60 172.18 121.42 172.60 C 122.24 173.02 123.25 172.69 123.67 171.87 Z M 124.11 170.99 L 124.52 170.18 C 124.94 169.36 124.62 168.36 123.80 167.94 C 122.98 167.52 121.98 167.84 121.56 168.66 L 121.15 169.48 C 120.73 170.29 121.05 171.30 121.87 171.72 C 122.68 172.13 123.69 171.81 124.11 170.99 Z M 124.51 170.19 L 125.03 169.20 C 125.45 168.39 125.13 167.39 124.32 166.96 C 123.51 166.54 122.51 166.86 122.09 167.67 L 121.57 168.66 C 121.15 169.47 121.47 170.47 122.28 170.89 C 123.09 171.31 124.09 171.00 124.51 170.19 Z M 125.02 169.21 L 125.49 168.31 C 125.92 167.50 125.61 166.50 124.81 166.08 C 124.00 165.65 123.00 165.95 122.58 166.76 L 122.10 167.66 C 121.67 168.46 121.98 169.46 122.78 169.89 C 123.59 170.32 124.59 170.01 125.02 169.21 Z M 125.48 168.31 L 125.93 167.49 C 126.36 166.69 126.06 165.69 125.26 165.26 C 124.46 164.83 123.46 165.13 123.03 165.93 L 122.59 166.75 C 122.15 167.55 122.45 168.55 123.25 168.98 C 124.05 169.41 125.05 169.12 125.48 168.31 Z M 125.92 167.49 L 126.36 166.69 C 126.79 165.89 126.50 164.90 125.70 164.46 C 124.90 164.03 123.91 164.32 123.47 165.12 L 123.04 165.93 C 122.60 166.72 122.90 167.72 123.70 168.15 C 124.49 168.58 125.49 168.29 125.92 167.49 Z M 126.36 166.69 L 126.82 165.83 C 127.25 165.04 126.96 164.04 126.16 163.61 C 125.37 163.18 124.37 163.47 123.94 164.27 L 123.47 165.12 C 123.04 165.92 123.34 166.91 124.13 167.35 C 124.93 167.78 125.92 167.48 126.36 166.69 Z M 126.82 165.83 L 127.29 164.96 C 127.72 164.16 127.43 163.17 126.63 162.73 C 125.84 162.30 124.84 162.60 124.41 163.39 L 123.94 164.27 C 123.51 165.07 123.80 166.06 124.60 166.49 C 125.39 166.92 126.39 166.63 126.82 165.83 Z M 127.29 164.95 L 127.78 164.06 C 128.21 163.26 127.91 162.27 127.12 161.84 C 126.32 161.41 125.33 161.71 124.90 162.50 L 124.41 163.40 C 123.98 164.19 124.28 165.19 125.07 165.62 C 125.87 166.05 126.86 165.75 127.29 164.95 Z M 127.78 164.06 L 128.26 163.17 C 128.69 162.38 128.39 161.38 127.59 160.95 C 126.80 160.52 125.80 160.82 125.37 161.62 L 124.90 162.50 C 124.47 163.30 124.76 164.29 125.56 164.72 C 126.36 165.15 127.35 164.85 127.78 164.06 Z M 128.26 163.17 L 128.73 162.30 C 129.16 161.51 128.86 160.51 128.06 160.08 C 127.27 159.65 126.28 159.95 125.85 160.75 L 125.38 161.62 C 124.95 162.41 125.24 163.40 126.04 163.83 C 126.83 164.26 127.83 163.97 128.26 163.17 Z M 128.72 162.31 L 129.20 161.43 C 129.64 160.63 129.34 159.64 128.55 159.20 C 127.75 158.77 126.76 159.07 126.33 159.86 L 125.85 160.74 C 125.42 161.54 125.71 162.53 126.50 162.96 C 127.30 163.39 128.29 163.10 128.72 162.31 Z M 129.20 161.43 L 129.69 160.54 C 130.12 159.75 129.83 158.76 129.04 158.32 C 128.25 157.89 127.25 158.17 126.82 158.97 L 126.33 159.85 C 125.89 160.65 126.18 161.64 126.98 162.08 C 127.77 162.51 128.76 162.22 129.20 161.43 Z M 129.68 160.55 L 130.17 159.69 C 130.61 158.90 130.32 157.90 129.53 157.46 C 128.75 157.02 127.75 157.30 127.31 158.09 L 126.82 158.96 C 126.38 159.75 126.67 160.74 127.46 161.19 C 128.24 161.63 129.24 161.34 129.68 160.55 Z M 130.16 159.69 L 130.65 158.83 C 131.09 158.05 130.81 157.05 130.02 156.60 C 129.23 156.16 128.24 156.44 127.79 157.23 L 127.31 158.09 C 126.87 158.87 127.15 159.87 127.93 160.31 C 128.72 160.76 129.72 160.48 130.16 159.69 Z M 130.65 158.83 L 131.14 157.96 C 131.58 157.17 131.30 156.18 130.51 155.73 C 129.72 155.29 128.72 155.57 128.28 156.36 L 127.79 157.23 C 127.35 158.02 127.63 159.02 128.42 159.46 C 129.21 159.90 130.21 159.62 130.65 158.83 Z M 131.14 157.95 L 131.63 157.06 C 132.07 156.27 131.78 155.27 130.99 154.84 C 130.20 154.40 129.20 154.69 128.76 155.48 L 128.27 156.37 C 127.84 157.16 128.13 158.16 128.92 158.60 C 129.71 159.03 130.70 158.74 131.14 157.95 Z M 131.64 157.04 L 132.12 156.15 C 132.54 155.36 132.24 154.36 131.45 153.94 C 130.65 153.51 129.66 153.81 129.23 154.61 L 128.75 155.50 C 128.33 156.30 128.63 157.29 129.43 157.71 C 130.22 158.14 131.21 157.84 131.64 157.04 Z M 132.13 156.14 L 132.59 155.25 C 133.00 154.45 132.69 153.46 131.89 153.04 C 131.09 152.63 130.10 152.94 129.68 153.74 L 129.22 154.63 C 128.80 155.43 129.12 156.42 129.92 156.83 C 130.72 157.25 131.71 156.94 132.13 156.14 Z M 132.59 155.24 L 133.05 154.34 C 133.46 153.54 133.14 152.55 132.34 152.14 C 131.53 151.73 130.55 152.05 130.14 152.85 L 129.68 153.75 C 129.27 154.55 129.58 155.54 130.39 155.95 C 131.19 156.36 132.18 156.05 132.59 155.24 Z M 133.05 154.34 L 133.51 153.44 C 133.92 152.64 133.59 151.65 132.79 151.24 C 131.98 150.83 131.00 151.15 130.59 151.96 L 130.13 152.86 C 129.72 153.66 130.05 154.65 130.85 155.06 C 131.66 155.47 132.64 155.14 133.05 154.34 Z M 133.51 153.44 L 133.96 152.55 C 134.37 151.74 134.05 150.76 133.24 150.35 C 132.44 149.94 131.45 150.26 131.04 151.07 L 130.59 151.96 C 130.18 152.77 130.50 153.75 131.31 154.16 C 132.11 154.57 133.10 154.25 133.51 153.44 Z M 133.96 152.55 L 134.42 151.64 C 134.84 150.84 134.52 149.85 133.71 149.44 C 132.91 149.03 131.92 149.35 131.51 150.15 L 131.04 151.06 C 130.63 151.87 130.95 152.85 131.76 153.26 C 132.56 153.68 133.55 153.36 133.96 152.55 Z M 134.42 151.64 L 134.88 150.75 C 135.29 149.95 134.97 148.96 134.17 148.55 C 133.36 148.14 132.38 148.46 131.96 149.26 L 131.51 150.15 C 131.10 150.96 131.42 151.94 132.22 152.36 C 133.03 152.77 134.01 152.45 134.42 151.64 Z M 134.88 150.75 L 135.33 149.87 C 135.74 149.06 135.42 148.08 134.61 147.67 C 133.81 147.26 132.82 147.58 132.41 148.38 L 131.96 149.27 C 131.55 150.07 131.87 151.06 132.68 151.47 C 133.49 151.88 134.47 151.56 134.88 150.75 Z M 135.33 149.86 L 135.77 148.98 C 136.18 148.18 135.86 147.19 135.05 146.79 C 134.24 146.38 133.26 146.71 132.85 147.51 L 132.41 148.39 C 132.00 149.20 132.33 150.18 133.14 150.59 C 133.94 151.00 134.93 150.67 135.33 149.86 Z M 135.78 148.97 L 136.22 148.07 C 136.62 147.26 136.29 146.28 135.48 145.88 C 134.67 145.48 133.69 145.81 133.29 146.62 L 132.84 147.52 C 132.44 148.33 132.78 149.31 133.59 149.72 C 134.40 150.12 135.38 149.78 135.78 148.97 Z M 136.23 148.07 L 136.67 147.17 C 137.06 146.36 136.73 145.38 135.91 144.98 C 135.10 144.58 134.12 144.92 133.72 145.73 L 133.29 146.63 C 132.89 147.44 133.23 148.42 134.04 148.82 C 134.85 149.22 135.83 148.88 136.23 148.07 Z M 136.67 147.16 L 137.10 146.26 C 137.50 145.45 137.16 144.47 136.34 144.08 C 135.53 143.68 134.55 144.02 134.16 144.84 L 133.72 145.74 C 133.33 146.55 133.67 147.53 134.48 147.92 C 135.30 148.32 136.28 147.98 136.67 147.16 Z M 137.10 146.26 L 137.47 145.51 C 137.86 144.70 137.52 143.72 136.70 143.33 C 135.89 142.94 134.91 143.28 134.52 144.09 L 134.15 144.84 C 133.76 145.66 134.10 146.63 134.92 147.03 C 135.73 147.42 136.71 147.08 137.10 146.26 Z"
      fill="black"
      fill-rule="nonzero" /><path d="M 149.27 91.55 L 148.79 92.43 C 148.32 93.30 148.65 94.39 149.52 94.85 C 150.39 95.32 151.48 95.00 151.95 94.13 L 152.42 93.25 C 152.89 92.38 152.57 91.29 151.69 90.82 C 150.82 90.35 149.74 90.68 149.27 91.55 Z M 148.77 92.44 L 148.31 93.32 C 147.84 94.21 148.19 95.30 149.07 95.77 C 149.96 96.23 151.05 95.88 151.52 95.00 L 151.98 94.11 C 152.44 93.23 152.09 92.13 151.21 91.67 C 150.32 91.21 149.23 91.55 148.77 92.44 Z M 148.27 93.36 L 147.83 94.26 C 147.39 95.17 147.77 96.26 148.67 96.70 C 149.58 97.15 150.67 96.77 151.11 95.86 L 151.55 94.96 C 152.00 94.05 151.62 92.96 150.71 92.52 C 149.80 92.08 148.71 92.45 148.27 93.36 Z M 147.79 94.32 L 147.39 95.24 C 146.98 96.17 147.40 97.25 148.33 97.66 C 149.26 98.07 150.35 97.65 150.76 96.72 L 151.16 95.80 C 151.57 94.87 151.14 93.78 150.21 93.38 C 149.28 92.97 148.19 93.39 147.79 94.32 Z M 147.35 95.32 L 146.99 96.24 C 146.63 97.19 147.11 98.26 148.06 98.62 C 149.01 98.99 150.08 98.51 150.44 97.56 L 150.80 96.64 C 151.16 95.68 150.68 94.62 149.73 94.25 C 148.78 93.89 147.71 94.36 147.35 95.32 Z M 146.96 96.33 L 146.65 97.28 C 146.34 98.25 146.87 99.29 147.84 99.60 C 148.81 99.92 149.85 99.39 150.17 98.42 L 150.48 97.47 C 150.79 96.50 150.26 95.46 149.29 95.14 C 148.32 94.82 147.28 95.36 146.96 96.33 Z M 146.62 97.37 L 146.36 98.35 C 146.10 99.34 146.69 100.35 147.67 100.61 C 148.66 100.87 149.67 100.29 149.94 99.30 L 150.20 98.32 C 150.46 97.34 149.87 96.32 148.88 96.06 C 147.90 95.80 146.89 96.39 146.62 97.37 Z M 146.34 98.45 L 146.14 99.44 C 145.93 100.44 146.57 101.42 147.57 101.63 C 148.57 101.83 149.55 101.19 149.76 100.19 L 149.96 99.20 C 150.16 98.20 149.52 97.22 148.52 97.02 C 147.52 96.81 146.55 97.45 146.34 98.45 Z M 146.12 99.54 L 145.97 100.54 C 145.82 101.54 146.51 102.49 147.52 102.64 C 148.52 102.79 149.46 102.10 149.62 101.09 L 149.77 100.09 C 149.92 99.09 149.23 98.15 148.22 97.99 C 147.22 97.84 146.28 98.53 146.12 99.54 Z M 145.96 100.62 L 145.85 101.62 C 145.74 102.63 146.47 103.53 147.48 103.65 C 148.49 103.76 149.40 103.03 149.51 102.02 L 149.62 101.02 C 149.73 100.01 149.00 99.10 147.99 98.99 C 146.98 98.88 146.08 99.60 145.96 100.62 Z M 145.85 101.68 L 145.78 102.66 C 145.70 103.67 146.46 104.56 147.47 104.63 C 148.48 104.71 149.36 103.95 149.44 102.94 L 149.51 101.95 C 149.59 100.94 148.83 100.06 147.82 99.99 C 146.81 99.91 145.93 100.67 145.85 101.68 Z M 145.78 102.71 L 145.73 103.72 C 145.68 104.73 146.46 105.59 147.48 105.63 C 148.49 105.68 149.34 104.90 149.39 103.89 L 149.44 102.89 C 149.49 101.88 148.71 101.02 147.70 100.97 C 146.69 100.92 145.83 101.70 145.78 102.71 Z M 145.73 103.76 L 145.71 104.76 C 145.69 105.77 146.48 106.60 147.49 106.63 C 148.50 106.65 149.34 105.85 149.37 104.85 L 149.39 103.85 C 149.41 102.84 148.62 102.00 147.61 101.98 C 146.60 101.95 145.76 102.75 145.73 103.76 Z M 145.71 104.79 L 145.70 105.77 C 145.70 106.78 146.51 107.61 147.51 107.62 C 148.52 107.62 149.35 106.81 149.35 105.81 L 149.36 104.82 C 149.37 103.81 148.56 102.98 147.55 102.98 C 146.54 102.97 145.72 103.78 145.71 104.79 Z M 145.71 105.79 L 145.71 106.79 C 145.71 107.79 146.52 108.61 147.53 108.61 C 148.53 108.61 149.35 107.80 149.35 106.79 L 149.35 105.79 C 149.35 104.79 148.54 103.97 147.53 103.97 C 146.52 103.97 145.71 104.78 145.71 105.79 Z M 145.71 106.79 L 145.71 107.79 C 145.71 108.79 146.52 109.61 147.53 109.61 C 148.54 109.61 149.35 108.79 149.35 107.78 L 149.35 106.79 C 149.35 105.78 148.53 104.97 147.53 104.97 C 146.52 104.97 145.71 105.79 145.71 106.79 Z M 145.71 107.79 L 145.71 108.80 C 145.72 109.80 146.53 110.62 147.54 110.61 C 148.54 110.61 149.35 109.79 149.35 108.79 L 149.35 107.78 C 149.34 106.77 148.53 105.96 147.52 105.97 C 146.52 105.97 145.71 106.79 145.71 107.79 Z M 145.72 108.81 L 145.72 109.81 C 145.73 110.82 146.55 111.62 147.56 111.61 C 148.56 111.61 149.37 110.78 149.36 109.78 L 149.35 108.78 C 149.34 107.77 148.52 106.97 147.52 106.98 C 146.51 106.99 145.71 107.81 145.72 108.81 Z M 145.73 109.83 L 145.74 110.81 C 145.76 111.82 146.59 112.62 147.59 112.60 C 148.59 112.58 149.39 111.75 149.37 110.75 L 149.36 109.77 C 149.34 108.76 148.51 107.96 147.51 107.98 C 146.51 108.00 145.71 108.83 145.73 109.83 Z M 145.75 110.85 L 145.78 111.82 C 145.82 112.82 146.66 113.60 147.67 113.56 C 148.67 113.53 149.45 112.68 149.41 111.68 L 149.37 110.71 C 149.33 109.71 148.49 108.93 147.49 108.97 C 146.49 109.01 145.71 109.85 145.75 110.85 Z M 145.79 111.90 L 145.87 112.88 C 145.95 113.88 146.83 114.62 147.82 114.54 C 148.82 114.46 149.57 113.58 149.48 112.58 L 149.40 111.60 C 149.32 110.60 148.45 109.86 147.45 109.94 C 146.45 110.02 145.71 110.90 145.79 111.90 Z M 145.88 112.99 L 146.03 114.01 C 146.17 115.00 147.09 115.69 148.08 115.55 C 149.07 115.40 149.76 114.49 149.62 113.50 L 149.47 112.47 C 149.33 111.48 148.41 110.80 147.42 110.94 C 146.43 111.08 145.74 112.00 145.88 112.99 Z M 146.05 114.13 L 146.26 115.11 C 146.47 116.09 147.43 116.72 148.41 116.51 C 149.38 116.30 150.01 115.34 149.80 114.36 L 149.59 113.38 C 149.39 112.40 148.43 111.77 147.45 111.98 C 146.47 112.19 145.84 113.15 146.05 114.13 Z M 146.29 115.22 L 146.55 116.19 C 146.82 117.16 147.82 117.72 148.78 117.46 C 149.74 117.19 150.31 116.19 150.04 115.23 L 149.78 114.25 C 149.51 113.29 148.51 112.72 147.55 112.99 C 146.58 113.26 146.02 114.25 146.29 115.22 Z M 146.59 116.29 L 146.92 117.26 C 147.24 118.21 148.27 118.71 149.21 118.39 C 150.16 118.07 150.66 117.04 150.34 116.10 L 150.01 115.13 C 149.69 114.18 148.66 113.68 147.72 114.00 C 146.77 114.32 146.26 115.35 146.59 116.29 Z M 146.96 117.37 L 147.34 118.30 C 147.73 119.22 148.79 119.66 149.71 119.27 C 150.63 118.89 151.07 117.83 150.68 116.91 L 150.30 115.99 C 149.92 115.06 148.86 114.63 147.94 115.01 C 147.01 115.39 146.58 116.45 146.96 117.37 Z M 147.41 118.43 L 147.90 119.37 C 148.35 120.25 149.44 120.60 150.33 120.14 C 151.21 119.68 151.56 118.59 151.10 117.71 L 150.62 116.77 C 150.16 115.89 149.07 115.54 148.18 116.00 C 147.30 116.46 146.95 117.55 147.41 118.43 Z M 148.02 119.56 L 148.63 120.45 C 149.20 121.27 150.31 121.47 151.13 120.91 C 151.95 120.34 152.15 119.23 151.59 118.41 L 150.98 117.52 C 150.41 116.70 149.30 116.50 148.48 117.06 C 147.66 117.62 147.46 118.74 148.02 119.56 Z M 148.85 120.70 L 149.53 121.37 C 150.23 122.07 151.37 122.07 152.06 121.37 C 152.76 120.67 152.75 119.54 152.05 118.84 L 151.37 118.16 C 150.67 117.47 149.54 117.47 148.84 118.17 C 148.15 118.87 148.15 120.00 148.85 120.70 Z M 149.91 121.65 L 150.66 122.08 C 151.51 122.57 152.60 122.28 153.09 121.43 C 153.58 120.58 153.29 119.49 152.44 119.00 L 151.68 118.57 C 150.83 118.08 149.74 118.37 149.25 119.22 C 148.76 120.07 149.06 121.16 149.91 121.65 Z M 151.25 122.28 L 152.14 122.43 C 153.10 122.60 154.01 121.96 154.18 121.00 C 154.34 120.04 153.70 119.13 152.74 118.96 L 151.85 118.81 C 150.89 118.64 149.98 119.28 149.81 120.24 C 149.65 121.20 150.29 122.11 151.25 122.28 Z M 152.81 122.40 L 153.74 122.20 C 154.68 121.99 155.28 121.07 155.08 120.13 C 154.88 119.19 153.95 118.59 153.01 118.79 L 152.07 119.00 C 151.13 119.20 150.54 120.12 150.74 121.06 C 150.94 122.00 151.87 122.60 152.81 122.40 Z M 154.28 121.96 L 155.23 121.37 C 156.04 120.87 156.29 119.81 155.79 119.00 C 155.29 118.20 154.23 117.95 153.42 118.45 L 152.47 119.03 C 151.66 119.53 151.41 120.59 151.91 121.40 C 152.41 122.21 153.47 122.46 154.28 121.96 Z M 155.52 121.12 L 156.17 120.48 C 156.84 119.82 156.85 118.74 156.18 118.07 C 155.52 117.40 154.44 117.40 153.77 118.06 L 153.13 118.70 C 152.46 119.36 152.45 120.44 153.11 121.11 C 153.77 121.78 154.85 121.78 155.52 121.12 Z M 156.29 120.33 L 156.91 119.57 C 157.49 118.84 157.37 117.77 156.64 117.18 C 155.91 116.60 154.84 116.72 154.26 117.45 L 153.64 118.21 C 153.06 118.94 153.18 120.01 153.91 120.60 C 154.64 121.18 155.71 121.06 156.29 120.33 Z M 156.97 119.47 L 157.56 118.62 C 158.09 117.85 157.90 116.80 157.13 116.27 C 156.37 115.74 155.31 115.93 154.78 116.69 L 154.19 117.55 C 153.66 118.31 153.85 119.37 154.62 119.90 C 155.39 120.43 156.44 120.24 156.97 119.47 Z M 157.59 118.56 L 158.16 117.66 C 158.65 116.88 158.42 115.84 157.64 115.34 C 156.85 114.85 155.81 115.08 155.32 115.86 L 154.75 116.76 C 154.25 117.54 154.49 118.58 155.27 119.08 C 156.06 119.57 157.09 119.34 157.59 118.56 Z M 158.17 117.63 L 158.72 116.73 C 159.20 115.94 158.95 114.91 158.16 114.43 C 157.37 113.95 156.34 114.20 155.86 114.99 L 155.31 115.89 C 154.83 116.68 155.08 117.71 155.87 118.19 C 156.66 118.67 157.69 118.42 158.17 117.63 Z M 158.72 116.72 L 159.26 115.82 C 159.74 115.03 159.48 114.00 158.69 113.53 C 157.90 113.05 156.88 113.30 156.40 114.09 L 155.86 115.00 C 155.38 115.79 155.64 116.81 156.42 117.29 C 157.21 117.76 158.24 117.51 158.72 116.72 Z M 159.26 115.82 L 159.78 114.96 C 160.25 114.17 160.00 113.14 159.21 112.67 C 158.42 112.19 157.40 112.45 156.92 113.23 L 156.40 114.09 C 155.93 114.88 156.18 115.91 156.97 116.38 C 157.76 116.86 158.78 116.61 159.26 115.82 Z M 159.77 114.96 L 160.28 114.13 C 160.75 113.35 160.51 112.32 159.72 111.85 C 158.94 111.37 157.91 111.62 157.43 112.40 L 156.93 113.23 C 156.45 114.01 156.70 115.04 157.49 115.52 C 158.27 115.99 159.29 115.75 159.77 114.96 Z M 160.27 114.14 L 160.76 113.34 C 161.25 112.56 161.01 111.54 160.23 111.05 C 159.45 110.57 158.42 110.81 157.94 111.59 L 157.44 112.39 C 156.96 113.17 157.20 114.20 157.98 114.68 C 158.76 115.16 159.78 114.92 160.27 114.14 Z M 160.75 113.36 L 161.31 112.48 C 161.81 111.71 161.58 110.68 160.81 110.19 C 160.03 109.70 159.01 109.92 158.51 110.70 L 157.95 111.57 C 157.46 112.35 157.69 113.37 158.46 113.87 C 159.23 114.36 160.26 114.13 160.75 113.36 Z M 161.30 112.51 L 161.86 111.66 C 162.36 110.90 162.15 109.87 161.39 109.36 C 160.63 108.85 159.59 109.06 159.09 109.83 L 158.53 110.67 C 158.02 111.44 158.23 112.47 158.99 112.97 C 159.76 113.48 160.79 113.27 161.30 112.51 Z M 161.84 111.69 L 162.40 110.89 C 162.92 110.13 162.73 109.10 161.98 108.57 C 161.23 108.05 160.19 108.24 159.67 108.99 L 159.11 109.80 C 158.58 110.55 158.77 111.59 159.52 112.11 C 160.28 112.63 161.31 112.45 161.84 111.69 Z M 162.37 110.92 L 162.95 110.14 C 163.49 109.40 163.33 108.36 162.59 107.82 C 161.85 107.27 160.81 107.43 160.27 108.17 L 159.69 108.96 C 159.15 109.70 159.31 110.74 160.05 111.28 C 160.79 111.82 161.83 111.66 162.37 110.92 Z M 162.91 110.19 L 163.54 109.40 C 164.11 108.68 163.99 107.63 163.27 107.06 C 162.55 106.49 161.50 106.61 160.93 107.33 L 160.30 108.12 C 159.73 108.84 159.85 109.89 160.57 110.46 C 161.29 111.03 162.34 110.91 162.91 110.19 Z M 163.48 109.48 L 164.13 108.74 C 164.75 108.05 164.69 107.00 164.00 106.39 C 163.31 105.77 162.26 105.83 161.65 106.52 L 160.99 107.26 C 160.37 107.94 160.43 109.00 161.12 109.61 C 161.81 110.22 162.86 110.16 163.48 109.48 Z M 164.05 108.84 L 164.76 108.15 C 165.43 107.51 165.45 106.45 164.81 105.78 C 164.17 105.12 163.12 105.10 162.45 105.74 L 161.73 106.42 C 161.07 107.06 161.05 108.12 161.68 108.79 C 162.32 109.45 163.38 109.47 164.05 108.84 Z M 164.66 108.25 L 165.43 107.63 C 166.16 107.05 166.27 105.99 165.69 105.27 C 165.11 104.54 164.06 104.43 163.33 105.01 L 162.56 105.63 C 161.83 106.21 161.72 107.27 162.30 107.99 C 162.88 108.71 163.94 108.83 164.66 108.25 Z M 165.31 107.73 L 166.15 107.18 C 166.93 106.66 167.15 105.62 166.64 104.84 C 166.12 104.06 165.08 103.84 164.30 104.35 L 163.46 104.91 C 162.68 105.42 162.46 106.47 162.97 107.25 C 163.49 108.03 164.53 108.24 165.31 107.73 Z M 166.00 107.28 L 166.89 106.82 C 167.73 106.39 168.06 105.37 167.63 104.53 C 167.21 103.70 166.18 103.36 165.34 103.79 L 164.45 104.25 C 163.61 104.68 163.28 105.70 163.71 106.54 C 164.14 107.38 165.16 107.71 166.00 107.28 Z M 166.69 106.92 L 167.65 106.58 C 168.54 106.26 169.01 105.28 168.69 104.39 C 168.37 103.50 167.39 103.04 166.50 103.35 L 165.55 103.69 C 164.65 104.01 164.19 104.99 164.51 105.88 C 164.82 106.77 165.80 107.24 166.69 106.92 Z M 167.37 106.66 L 168.42 106.48 C 169.35 106.32 169.98 105.42 169.82 104.49 C 169.65 103.55 168.76 102.92 167.82 103.09 L 166.78 103.27 C 165.84 103.43 165.21 104.33 165.38 105.27 C 165.54 106.20 166.44 106.83 167.37 106.66 Z M 168.04 106.52 L 169.03 106.56 C 169.98 106.60 170.79 105.86 170.83 104.90 C 170.88 103.94 170.13 103.14 169.18 103.09 L 168.19 103.05 C 167.24 103.01 166.43 103.75 166.38 104.71 C 166.34 105.67 167.09 106.48 168.04 106.52 Z M 168.53 106.47 L 169.39 106.77 C 170.30 107.09 171.29 106.61 171.61 105.70 C 171.93 104.80 171.45 103.80 170.54 103.48 L 169.68 103.18 C 168.77 102.86 167.77 103.34 167.46 104.25 C 167.14 105.16 167.62 106.15 168.53 106.47 Z M 168.84 106.47 L 169.54 107.05 C 170.28 107.67 171.38 107.56 172.00 106.82 C 172.62 106.08 172.52 104.97 171.77 104.36 L 171.08 103.78 C 170.34 103.16 169.23 103.27 168.62 104.01 C 168.00 104.75 168.10 105.86 168.84 106.47 Z M 169.20 106.68 L 169.75 107.50 C 170.29 108.30 171.38 108.51 172.18 107.97 C 172.98 107.43 173.19 106.34 172.65 105.54 L 172.11 104.72 C 171.56 103.92 170.48 103.71 169.68 104.25 C 168.87 104.79 168.66 105.88 169.20 106.68 Z M 169.60 107.22 L 170.04 108.23 C 170.43 109.11 171.47 109.51 172.35 109.12 C 173.24 108.74 173.64 107.70 173.25 106.82 L 172.81 105.81 C 172.42 104.93 171.38 104.52 170.50 104.91 C 169.61 105.30 169.21 106.34 169.60 107.22 Z M 169.98 108.07 L 170.30 109.02 C 170.60 109.94 171.59 110.44 172.50 110.13 C 173.42 109.83 173.92 108.84 173.62 107.93 L 173.31 106.98 C 173.01 106.06 172.02 105.56 171.10 105.86 C 170.18 106.16 169.68 107.15 169.98 108.07 Z M 170.27 108.92 L 170.53 109.91 C 170.78 110.84 171.73 111.39 172.67 111.15 C 173.60 110.90 174.16 109.94 173.91 109.01 L 173.65 108.02 C 173.40 107.09 172.44 106.54 171.51 106.78 C 170.58 107.03 170.02 107.99 170.27 108.92 Z M 170.51 109.83 L 170.73 110.83 C 170.94 111.77 171.87 112.36 172.81 112.16 C 173.75 111.95 174.35 111.02 174.14 110.08 L 173.92 109.08 C 173.72 108.14 172.79 107.55 171.85 107.75 C 170.90 107.96 170.31 108.89 170.51 109.83 Z M 170.72 110.76 L 170.90 111.73 C 171.07 112.68 171.98 113.30 172.92 113.13 C 173.87 112.96 174.50 112.05 174.33 111.11 L 174.15 110.14 C 173.98 109.19 173.07 108.57 172.13 108.74 C 171.18 108.91 170.55 109.82 170.72 110.76 Z M 170.90 111.67 L 171.05 112.72 C 171.19 113.67 172.07 114.33 173.01 114.19 C 173.96 114.05 174.62 113.17 174.48 112.23 L 174.33 111.17 C 174.19 110.22 173.31 109.57 172.36 109.70 C 171.42 109.84 170.76 110.72 170.90 111.67 Z M 171.06 112.65 L 171.17 113.64 C 171.26 114.58 172.11 115.26 173.05 115.17 C 173.99 115.07 174.67 114.22 174.57 113.28 L 174.47 112.30 C 174.37 111.36 173.53 110.67 172.59 110.77 C 171.65 110.87 170.96 111.71 171.06 112.65 Z M 171.18 113.58 L 171.24 114.53 C 171.31 115.46 172.11 116.17 173.05 116.10 C 173.98 116.04 174.68 115.23 174.62 114.30 L 174.56 113.35 C 174.49 112.42 173.69 111.71 172.75 111.77 C 171.82 111.84 171.12 112.64 171.18 113.58 Z M 171.26 114.48 L 171.30 115.46 C 171.33 116.38 172.11 117.10 173.03 117.07 C 173.96 117.03 174.68 116.26 174.64 115.33 L 174.61 114.35 C 174.57 113.43 173.80 112.70 172.87 112.74 C 171.95 112.77 171.22 113.55 171.26 114.48 Z M 171.31 115.42 L 171.32 116.42 C 171.33 117.34 172.09 118.07 173.01 118.06 C 173.92 118.05 174.66 117.29 174.65 116.37 L 174.63 115.37 C 174.62 114.45 173.87 113.72 172.95 113.73 C 172.03 113.74 171.29 114.50 171.31 115.42 Z M 171.33 116.39 L 171.32 117.39 C 171.32 118.30 172.05 119.05 172.97 119.05 C 173.88 119.06 174.63 118.32 174.63 117.41 L 174.64 116.41 C 174.64 115.49 173.91 114.75 172.99 114.74 C 172.08 114.74 171.34 115.47 171.33 116.39 Z M 171.33 117.36 L 171.31 118.35 C 171.29 119.25 172.01 120.01 172.92 120.03 C 173.82 120.05 174.58 119.33 174.60 118.42 L 174.62 117.44 C 174.64 116.53 173.92 115.77 173.02 115.75 C 172.11 115.73 171.35 116.45 171.33 117.36 Z M 171.32 118.27 L 171.25 119.24 C 171.18 120.15 171.86 120.93 172.76 121.00 C 173.67 121.06 174.45 120.39 174.52 119.48 L 174.59 118.50 C 174.66 117.60 173.98 116.81 173.07 116.75 C 172.17 116.68 171.38 117.36 171.32 118.27 Z M 171.27 119.06 L 171.09 120.05 C 170.93 120.94 171.51 121.79 172.40 121.96 C 173.30 122.12 174.15 121.53 174.31 120.64 L 174.49 119.66 C 174.66 118.77 174.07 117.91 173.18 117.75 C 172.29 117.59 171.43 118.17 171.27 119.06 Z M 171.15 119.81 L 170.83 120.75 C 170.53 121.60 170.99 122.53 171.84 122.83 C 172.70 123.12 173.63 122.67 173.92 121.82 L 174.25 120.88 C 174.54 120.02 174.09 119.09 173.24 118.80 C 172.38 118.50 171.45 118.95 171.15 119.81 Z M 170.93 120.52 L 170.49 121.36 C 170.07 122.16 170.38 123.15 171.18 123.57 C 171.98 123.99 172.97 123.68 173.39 122.88 L 173.83 122.04 C 174.25 121.24 173.94 120.25 173.14 119.83 C 172.34 119.41 171.35 119.72 170.93 120.52 Z M 170.61 121.17 L 170.02 121.98 C 169.50 122.72 169.67 123.74 170.40 124.26 C 171.14 124.79 172.16 124.62 172.68 123.89 L 173.27 123.07 C 173.79 122.34 173.63 121.32 172.89 120.79 C 172.16 120.26 171.13 120.43 170.61 121.17 Z M 170.17 121.80 L 169.45 122.56 C 168.82 123.22 168.85 124.25 169.50 124.88 C 170.15 125.50 171.19 125.48 171.81 124.82 L 172.54 124.06 C 173.16 123.41 173.14 122.37 172.48 121.75 C 171.83 121.13 170.79 121.15 170.17 121.80 Z M 169.61 122.41 L 168.83 123.03 C 168.12 123.59 168.00 124.62 168.56 125.33 C 169.12 126.04 170.15 126.16 170.86 125.60 L 171.65 124.98 C 172.35 124.42 172.47 123.39 171.91 122.68 C 171.35 121.97 170.32 121.85 169.61 122.41 Z M 168.98 122.92 L 168.16 123.44 C 167.39 123.91 167.16 124.92 167.63 125.69 C 168.11 126.46 169.12 126.69 169.89 126.22 L 170.71 125.70 C 171.48 125.22 171.71 124.22 171.23 123.45 C 170.76 122.68 169.75 122.45 168.98 122.92 Z M 168.26 123.38 L 167.38 123.84 C 166.58 124.26 166.27 125.25 166.69 126.05 C 167.10 126.85 168.09 127.16 168.89 126.74 L 169.78 126.28 C 170.58 125.86 170.89 124.87 170.47 124.07 C 170.05 123.27 169.06 122.96 168.26 123.38 Z M 167.44 123.81 L 166.51 124.24 C 165.69 124.62 165.34 125.60 165.72 126.42 C 166.10 127.23 167.08 127.59 167.90 127.21 L 168.83 126.77 C 169.65 126.39 170.00 125.42 169.62 124.60 C 169.24 123.78 168.26 123.42 167.44 123.81 Z M 166.54 124.23 L 165.70 124.60 C 164.87 124.96 164.50 125.93 164.86 126.76 C 165.23 127.58 166.19 127.96 167.02 127.59 L 167.87 127.22 C 168.69 126.86 169.07 125.89 168.70 125.06 C 168.34 124.24 167.37 123.86 166.54 124.23 Z"
      fill="black"
      fill-rule="nonzero" /><path d="M 136.56 104.30 L 135.27 104.27 C 134.29 104.25 133.48 105.02 133.46 105.99 C 133.44 106.97 134.21 107.77 135.18 107.80 L 136.48 107.83 C 137.45 107.85 138.26 107.08 138.29 106.11 C 138.31 105.13 137.54 104.32 136.56 104.30 Z M 135.75 104.33 L 135.03 104.11 C 134.08 103.82 133.09 104.35 132.80 105.29 C 132.51 106.24 133.04 107.23 133.99 107.52 L 134.70 107.74 C 135.65 108.03 136.64 107.50 136.93 106.55 C 137.22 105.61 136.69 104.61 135.75 104.33 Z M 136.15 106.55 L 136.33 106.14 C 136.74 105.23 136.34 104.16 135.43 103.76 C 134.52 103.35 133.46 103.76 133.05 104.66 L 132.86 105.08 C 132.46 105.98 132.86 107.05 133.77 107.46 C 134.68 107.86 135.74 107.46 136.15 106.55 Z M 135.79 106.85 L 136.49 106.31 C 137.29 105.71 137.45 104.57 136.84 103.77 C 136.24 102.97 135.10 102.81 134.30 103.42 L 133.60 103.95 C 132.80 104.56 132.64 105.70 133.25 106.50 C 133.85 107.29 134.99 107.45 135.79 106.85 Z M 136.34 106.43 L 137.38 105.80 C 138.25 105.28 138.53 104.16 138.01 103.30 C 137.49 102.43 136.36 102.15 135.50 102.67 L 134.46 103.30 C 133.59 103.82 133.31 104.94 133.83 105.81 C 134.35 106.67 135.47 106.95 136.34 106.43 Z M 137.31 105.85 L 138.37 105.28 C 139.26 104.80 139.60 103.68 139.11 102.79 C 138.63 101.90 137.52 101.57 136.62 102.05 L 135.57 102.62 C 134.67 103.11 134.34 104.22 134.83 105.11 C 135.31 106.00 136.42 106.34 137.31 105.85 Z M 138.34 105.30 L 139.18 104.87 C 140.09 104.41 140.45 103.30 139.98 102.39 C 139.52 101.49 138.41 101.13 137.51 101.59 L 136.66 102.03 C 135.76 102.49 135.40 103.60 135.86 104.50 C 136.32 105.41 137.43 105.77 138.34 105.30 Z M 139.16 104.88 L 140.04 104.45 C 140.95 104.00 141.32 102.90 140.87 101.99 C 140.42 101.07 139.32 100.70 138.41 101.15 L 137.53 101.58 C 136.62 102.03 136.25 103.14 136.70 104.05 C 137.15 104.96 138.25 105.33 139.16 104.88 Z M 140.02 104.46 L 140.93 104.02 C 141.84 103.58 142.23 102.48 141.79 101.56 C 141.35 100.65 140.25 100.26 139.33 100.71 L 138.42 101.14 C 137.51 101.58 137.13 102.68 137.57 103.60 C 138.01 104.51 139.11 104.90 140.02 104.46 Z M 140.92 104.02 L 141.86 103.57 C 142.78 103.14 143.17 102.04 142.73 101.13 C 142.30 100.21 141.20 99.82 140.28 100.25 L 139.34 100.70 C 138.43 101.14 138.04 102.23 138.47 103.15 C 138.91 104.07 140.00 104.46 140.92 104.02 Z M 141.86 103.57 L 142.82 103.12 C 143.73 102.69 144.12 101.59 143.69 100.68 C 143.26 99.76 142.16 99.37 141.24 99.80 L 140.29 100.25 C 139.37 100.69 138.98 101.78 139.41 102.70 C 139.85 103.62 140.94 104.01 141.86 103.57 Z M 142.81 103.12 L 143.76 102.67 C 144.68 102.23 145.07 101.14 144.64 100.23 C 144.20 99.31 143.11 98.92 142.20 99.36 L 141.25 99.81 C 140.33 100.24 139.94 101.33 140.37 102.25 C 140.81 103.16 141.90 103.55 142.81 103.12 Z M 143.76 102.66 L 144.71 102.22 C 145.62 101.78 146.01 100.70 145.58 99.78 C 145.15 98.87 144.06 98.48 143.15 98.91 L 142.20 99.36 C 141.29 99.79 140.90 100.88 141.33 101.79 C 141.76 102.70 142.85 103.09 143.76 102.66 Z M 144.70 102.21 L 145.63 101.78 C 146.54 101.35 146.93 100.26 146.50 99.35 C 146.07 98.44 144.98 98.05 144.07 98.48 L 143.15 98.91 C 142.24 99.34 141.85 100.43 142.28 101.34 C 142.71 102.25 143.79 102.64 144.70 102.21 Z M 145.62 101.78 L 146.49 101.37 C 147.40 100.94 147.80 99.86 147.37 98.95 C 146.95 98.04 145.86 97.65 144.96 98.07 L 144.08 98.48 C 143.17 98.91 142.78 99.99 143.20 100.90 C 143.63 101.81 144.71 102.20 145.62 101.78 Z M 146.48 101.37 L 147.33 100.98 C 148.24 100.56 148.63 99.48 148.21 98.57 C 147.79 97.66 146.72 97.27 145.81 97.69 L 144.96 98.08 C 144.06 98.50 143.66 99.57 144.08 100.48 C 144.50 101.39 145.58 101.78 146.48 101.37 Z M 147.31 100.97 L 148.35 100.50 C 149.26 100.09 149.66 99.02 149.25 98.12 C 148.84 97.21 147.77 96.81 146.87 97.22 L 145.83 97.69 C 144.92 98.10 144.52 99.17 144.93 100.07 C 145.34 100.98 146.40 101.38 147.31 100.97 Z M 148.34 100.49 L 149.24 100.09 C 150.14 99.69 150.54 98.63 150.14 97.73 C 149.74 96.83 148.68 96.43 147.78 96.83 L 146.88 97.23 C 145.98 97.63 145.58 98.68 145.98 99.59 C 146.38 100.49 147.43 100.89 148.34 100.49 Z M 149.23 100.08 L 150.05 99.71 C 150.94 99.32 151.35 98.27 150.95 97.37 C 150.55 96.48 149.50 96.08 148.61 96.48 L 147.79 96.84 C 146.90 97.24 146.49 98.29 146.89 99.18 C 147.29 100.07 148.34 100.48 149.23 100.08 Z M 150.06 99.70 L 150.91 99.31 C 151.80 98.91 152.19 97.86 151.79 96.98 C 151.38 96.10 150.34 95.70 149.46 96.11 L 148.60 96.49 C 147.72 96.90 147.33 97.94 147.73 98.82 C 148.13 99.71 149.17 100.10 150.06 99.70 Z M 150.91 99.29 L 151.82 98.88 C 152.69 98.48 153.08 97.44 152.67 96.56 C 152.27 95.68 151.23 95.30 150.36 95.70 L 149.45 96.12 C 148.58 96.52 148.19 97.56 148.60 98.44 C 149.00 99.31 150.04 99.70 150.91 99.29 Z M 151.80 98.87 L 152.72 98.46 C 153.59 98.06 153.98 97.03 153.58 96.16 C 153.19 95.29 152.16 94.90 151.29 95.29 L 150.37 95.71 C 149.50 96.10 149.11 97.13 149.50 98.01 C 149.90 98.88 150.93 99.27 151.80 98.87 Z M 152.69 98.46 L 153.53 98.10 C 154.40 97.72 154.80 96.70 154.42 95.83 C 154.04 94.95 153.03 94.55 152.15 94.93 L 151.32 95.29 C 150.44 95.67 150.04 96.69 150.42 97.56 C 150.80 98.44 151.81 98.84 152.69 98.46 Z M 153.49 98.10 L 154.27 97.78 C 155.14 97.42 155.56 96.42 155.21 95.55 C 154.85 94.67 153.85 94.25 152.97 94.61 L 152.19 94.93 C 151.31 95.29 150.89 96.29 151.25 97.16 C 151.61 98.04 152.61 98.46 153.49 98.10 Z M 154.23 97.79 L 155.12 97.44 C 156.00 97.10 156.44 96.12 156.10 95.24 C 155.76 94.36 154.77 93.92 153.90 94.26 L 153.00 94.61 C 152.13 94.95 151.69 95.93 152.03 96.81 C 152.37 97.69 153.35 98.13 154.23 97.79 Z M 155.09 97.44 L 156.16 97.05 C 157.04 96.73 157.49 95.75 157.17 94.87 C 156.84 94.00 155.87 93.55 154.99 93.87 L 153.92 94.26 C 153.05 94.58 152.60 95.56 152.92 96.44 C 153.24 97.31 154.22 97.76 155.09 97.44 Z M 156.14 97.05 L 157.19 96.67 C 158.07 96.36 158.53 95.40 158.22 94.52 C 157.90 93.64 156.94 93.19 156.06 93.50 L 155.01 93.87 C 154.14 94.18 153.68 95.15 153.99 96.02 C 154.30 96.90 155.26 97.36 156.14 97.05 Z M 157.18 96.67 L 158.09 96.35 C 158.97 96.05 159.43 95.09 159.13 94.22 C 158.82 93.34 157.87 92.88 156.99 93.18 L 156.08 93.50 C 155.20 93.80 154.74 94.76 155.04 95.64 C 155.35 96.51 156.30 96.97 157.18 96.67 Z M 158.08 96.35 L 159.06 96.02 C 159.93 95.72 160.40 94.77 160.10 93.90 C 159.80 93.02 158.85 92.55 157.98 92.85 L 157.00 93.18 C 156.13 93.48 155.66 94.43 155.96 95.31 C 156.26 96.18 157.21 96.65 158.08 96.35 Z M 159.04 96.02 L 160.05 95.69 C 160.92 95.40 161.39 94.45 161.10 93.58 C 160.81 92.70 159.87 92.23 159.00 92.52 L 157.99 92.85 C 157.12 93.14 156.64 94.09 156.93 94.96 C 157.22 95.83 158.17 96.31 159.04 96.02 Z M 160.03 95.69 L 161.03 95.37 C 161.90 95.09 162.38 94.15 162.10 93.27 C 161.82 92.40 160.88 91.92 160.01 92.20 L 159.01 92.52 C 158.14 92.80 157.66 93.74 157.94 94.61 C 158.22 95.49 159.15 95.97 160.03 95.69 Z M 161.01 95.37 L 161.96 95.07 C 162.84 94.80 163.33 93.88 163.06 93.00 C 162.79 92.12 161.87 91.63 160.99 91.90 L 160.03 92.20 C 159.15 92.47 158.66 93.39 158.93 94.27 C 159.20 95.15 160.13 95.64 161.01 95.37 Z M 161.93 95.08 L 162.90 94.80 C 163.78 94.55 164.28 93.63 164.03 92.75 C 163.78 91.87 162.86 91.37 161.99 91.62 L 161.02 91.90 C 160.14 92.15 159.64 93.07 159.89 93.94 C 160.14 94.82 161.06 95.33 161.93 95.08 Z M 162.83 94.81 L 164.09 94.51 C 164.98 94.29 165.52 93.40 165.30 92.51 C 165.09 91.63 164.20 91.08 163.31 91.30 L 162.05 91.61 C 161.17 91.82 160.63 92.71 160.84 93.60 C 161.06 94.48 161.95 95.03 162.83 94.81 Z M 163.93 94.53 L 164.94 94.39 C 165.84 94.27 166.47 93.44 166.35 92.54 C 166.23 91.64 165.40 91.01 164.50 91.13 L 163.48 91.27 C 162.58 91.40 161.95 92.23 162.07 93.13 C 162.20 94.03 163.03 94.66 163.93 94.53 Z M 164.61 94.40 L 165.42 94.45 C 166.32 94.52 167.10 93.83 167.16 92.93 C 167.22 92.02 166.54 91.24 165.64 91.18 L 164.83 91.13 C 163.93 91.06 163.14 91.75 163.08 92.65 C 163.02 93.56 163.71 94.34 164.61 94.40 Z M 164.83 94.30 L 165.51 94.62 C 166.33 95.00 167.31 94.65 167.69 93.83 C 168.07 93.01 167.72 92.03 166.90 91.65 L 166.22 91.33 C 165.40 90.95 164.42 91.30 164.04 92.12 C 163.66 92.94 164.01 93.92 164.83 94.30 Z M 164.94 94.17 L 165.53 94.89 C 166.11 95.59 167.14 95.69 167.84 95.12 C 168.53 94.54 168.63 93.51 168.06 92.81 L 167.47 92.10 C 166.90 91.40 165.87 91.30 165.17 91.87 C 164.47 92.44 164.37 93.48 164.94 94.17 Z M 165.31 94.53 L 165.74 95.48 C 166.11 96.30 167.09 96.66 167.91 96.28 C 168.73 95.91 169.09 94.94 168.72 94.12 L 168.28 93.17 C 167.91 92.35 166.94 91.99 166.12 92.36 C 165.29 92.74 164.93 93.71 165.31 94.53 Z M 165.69 95.36 L 165.89 95.89 C 166.20 96.74 167.14 97.17 167.99 96.85 C 168.84 96.54 169.27 95.60 168.96 94.75 L 168.76 94.23 C 168.45 93.38 167.51 92.95 166.66 93.26 C 165.81 93.57 165.38 94.52 165.69 95.36 Z"
      fill="black"
      fill-rule="nonzero" /><path d="M 148.57 139.55 L 148.35 140.57 C 148.17 141.46 148.74 142.33 149.63 142.52 C 150.52 142.71 151.40 142.14 151.58 141.24 L 151.80 140.23 C 151.98 139.34 151.41 138.47 150.52 138.28 C 149.63 138.09 148.75 138.66 148.57 139.55 Z M 148.33 140.56 L 148.12 141.57 C 147.93 142.47 148.51 143.36 149.42 143.55 C 150.33 143.74 151.22 143.16 151.40 142.25 L 151.61 141.24 C 151.80 140.34 151.22 139.45 150.31 139.26 C 149.40 139.07 148.51 139.66 148.33 140.56 Z M 148.09 141.57 L 147.89 142.56 C 147.70 143.48 148.30 144.38 149.22 144.57 C 150.15 144.75 151.05 144.16 151.23 143.23 L 151.43 142.24 C 151.62 141.32 151.02 140.42 150.10 140.24 C 149.17 140.05 148.28 140.65 148.09 141.57 Z M 147.86 142.57 L 147.67 143.53 C 147.49 144.47 148.11 145.38 149.05 145.56 C 149.99 145.74 150.89 145.13 151.08 144.19 L 151.26 143.22 C 151.44 142.28 150.83 141.38 149.89 141.19 C 148.95 141.01 148.04 141.63 147.86 142.57 Z M 147.64 143.55 L 147.47 144.48 C 147.30 145.44 147.94 146.36 148.89 146.53 C 149.85 146.70 150.76 146.07 150.94 145.11 L 151.11 144.17 C 151.28 143.22 150.64 142.30 149.69 142.13 C 148.73 141.96 147.82 142.59 147.64 143.55 Z M 147.46 144.51 L 147.29 145.52 C 147.13 146.49 147.79 147.40 148.75 147.56 C 149.72 147.72 150.63 147.06 150.79 146.10 L 150.95 145.09 C 151.11 144.12 150.46 143.21 149.49 143.05 C 148.53 142.89 147.61 143.54 147.46 144.51 Z M 147.28 145.55 L 147.14 146.54 C 147.00 147.51 147.67 148.41 148.64 148.55 C 149.61 148.69 150.51 148.01 150.65 147.04 L 150.79 146.06 C 150.93 145.09 150.26 144.19 149.29 144.05 C 148.32 143.91 147.42 144.59 147.28 145.55 Z M 147.14 146.57 L 147.02 147.55 C 146.90 148.52 147.59 149.41 148.56 149.53 C 149.53 149.65 150.41 148.96 150.54 147.99 L 150.66 147.01 C 150.78 146.04 150.09 145.15 149.12 145.03 C 148.14 144.91 147.26 145.60 147.14 146.57 Z M 147.01 147.58 L 146.91 148.57 C 146.81 149.54 147.51 150.42 148.49 150.52 C 149.46 150.62 150.33 149.91 150.44 148.94 L 150.54 147.95 C 150.64 146.98 149.93 146.11 148.96 146.00 C 147.99 145.90 147.11 146.61 147.01 147.58 Z M 146.91 148.60 L 146.82 149.54 C 146.74 150.51 147.46 151.38 148.44 151.46 C 149.41 151.55 150.27 150.82 150.36 149.85 L 150.44 148.91 C 150.52 147.93 149.80 147.07 148.83 146.99 C 147.85 146.90 146.99 147.62 146.91 148.60 Z M 146.82 149.56 L 146.75 150.48 C 146.68 151.46 147.42 152.31 148.39 152.38 C 149.37 152.45 150.22 151.72 150.30 150.74 L 150.36 149.82 C 150.43 148.84 149.70 147.99 148.72 147.92 C 147.74 147.85 146.89 148.59 146.82 149.56 Z M 146.75 150.51 L 146.69 151.47 C 146.63 152.45 147.38 153.29 148.36 153.35 C 149.34 153.41 150.19 152.66 150.24 151.68 L 150.30 150.71 C 150.36 149.73 149.61 148.89 148.63 148.83 C 147.65 148.77 146.80 149.52 146.75 150.51 Z M 146.68 151.49 L 146.64 152.51 C 146.59 153.49 147.35 154.33 148.34 154.37 C 149.32 154.42 150.16 153.66 150.20 152.67 L 150.25 151.65 C 150.29 150.67 149.53 149.83 148.55 149.79 C 147.56 149.74 146.73 150.51 146.68 151.49 Z M 146.63 152.53 L 146.60 153.61 C 146.56 154.60 147.34 155.43 148.32 155.46 C 149.31 155.49 150.14 154.72 150.17 153.73 L 150.21 152.65 C 150.24 151.66 149.47 150.84 148.48 150.80 C 147.49 150.77 146.67 151.54 146.63 152.53 Z M 146.59 153.63 L 146.57 154.69 C 146.55 155.67 147.33 156.49 148.32 156.52 C 149.31 156.54 150.13 155.76 150.15 154.77 L 150.18 153.71 C 150.20 152.73 149.42 151.90 148.43 151.88 C 147.44 151.86 146.62 152.64 146.59 153.63 Z M 146.57 154.70 L 146.55 155.68 C 146.54 156.66 147.33 157.48 148.32 157.49 C 149.31 157.51 150.12 156.72 150.14 155.73 L 150.15 154.75 C 150.17 153.76 149.38 152.95 148.39 152.93 C 147.40 152.92 146.58 153.71 146.57 154.70 Z M 146.55 155.68 L 146.54 156.69 C 146.53 157.68 147.33 158.49 148.32 158.50 C 149.31 158.51 150.12 157.72 150.13 156.73 L 150.14 155.72 C 150.15 154.73 149.35 153.92 148.36 153.91 C 147.37 153.90 146.56 154.70 146.55 155.68 Z M 146.54 156.70 L 146.54 157.72 C 146.53 158.71 147.33 159.52 148.32 159.52 C 149.31 159.53 150.11 158.73 150.12 157.74 L 150.13 156.72 C 150.13 155.73 149.33 154.92 148.35 154.92 C 147.36 154.91 146.55 155.71 146.54 156.70 Z M 146.54 157.73 L 146.54 158.75 C 146.53 159.74 147.33 160.54 148.32 160.55 C 149.31 160.55 150.11 159.75 150.12 158.76 L 150.12 157.74 C 150.12 156.75 149.32 155.95 148.33 155.94 C 147.35 155.94 146.54 156.74 146.54 157.73 Z M 146.54 158.75 L 146.53 159.76 C 146.53 160.75 147.33 161.56 148.32 161.56 C 149.31 161.56 150.11 160.76 150.11 159.77 L 150.11 158.76 C 150.12 157.77 149.32 156.97 148.33 156.97 C 147.34 156.97 146.54 157.77 146.54 158.75 Z M 146.54 159.77 L 146.54 160.76 C 146.54 161.75 147.34 162.55 148.32 162.55 C 149.31 162.55 150.11 161.75 150.11 160.76 L 150.11 159.77 C 150.11 158.78 149.31 157.98 148.32 157.98 C 147.34 157.98 146.54 158.78 146.54 159.77 Z M 146.54 160.76 L 146.54 161.90 C 146.54 162.89 147.34 163.68 148.32 163.68 C 149.31 163.68 150.11 162.89 150.11 161.90 L 150.11 160.76 C 150.11 159.78 149.31 158.98 148.32 158.98 C 147.34 158.98 146.54 159.78 146.54 160.76 Z M 146.55 161.90 L 146.55 162.98 C 146.55 163.96 147.35 164.75 148.32 164.75 C 149.30 164.75 150.10 163.96 150.10 162.98 L 150.10 161.90 C 150.10 160.92 149.30 160.13 148.32 160.13 C 147.35 160.13 146.55 160.92 146.55 161.90 Z M 146.56 162.98 L 146.56 163.99 C 146.56 164.96 147.35 165.75 148.32 165.75 C 149.30 165.75 150.08 164.96 150.08 163.99 L 150.08 162.98 C 150.08 162.01 149.30 161.22 148.32 161.22 C 147.35 161.22 146.56 162.01 146.56 162.98 Z M 146.58 163.99 L 146.58 164.92 C 146.58 165.89 147.36 166.67 148.32 166.67 C 149.29 166.67 150.07 165.89 150.07 164.92 L 150.07 163.99 C 150.07 163.02 149.29 162.24 148.32 162.24 C 147.36 162.24 146.58 163.02 146.58 163.99 Z M 146.59 164.92 L 146.59 165.79 C 146.59 166.74 147.36 167.52 148.32 167.52 C 149.28 167.52 150.06 166.74 150.06 165.79 L 150.06 164.92 C 150.06 163.96 149.28 163.19 148.32 163.19 C 147.36 163.19 146.59 163.96 146.59 164.92 Z M 146.60 165.79 L 146.60 166.78 C 146.60 167.73 147.37 168.50 148.33 168.50 C 149.28 168.50 150.05 167.73 150.05 166.78 L 150.05 165.78 C 150.05 164.83 149.28 164.06 148.32 164.06 C 147.37 164.06 146.60 164.83 146.60 165.79 Z M 146.62 166.79 L 146.62 167.76 C 146.63 168.70 147.40 169.46 148.34 169.46 C 149.28 169.45 150.04 168.68 150.04 167.74 L 150.03 166.77 C 150.03 165.83 149.26 165.07 148.31 165.07 C 147.37 165.08 146.61 165.85 146.62 166.79 Z M 146.64 167.78 L 146.66 168.74 C 146.68 169.68 147.45 170.42 148.38 170.40 C 149.31 170.38 150.06 169.61 150.04 168.68 L 150.02 167.72 C 150.00 166.78 149.23 166.04 148.30 166.06 C 147.37 166.08 146.62 166.85 146.64 167.78 Z M 146.68 168.77 L 146.71 169.80 C 146.75 170.72 147.52 171.44 148.44 171.41 C 149.37 171.38 150.09 170.60 150.06 169.68 L 150.02 168.65 C 149.99 167.73 149.21 167.01 148.29 167.04 C 147.37 167.07 146.64 167.85 146.68 168.77 Z M 146.73 169.82 L 146.77 170.69 C 146.82 171.60 147.60 172.31 148.51 172.26 C 149.43 172.22 150.13 171.43 150.09 170.52 L 150.04 169.66 C 150.00 168.74 149.22 168.03 148.30 168.08 C 147.38 168.13 146.68 168.91 146.73 169.82 Z M 146.77 170.70 L 146.83 171.61 C 146.88 172.52 147.67 173.22 148.58 173.16 C 149.50 173.11 150.19 172.32 150.14 171.41 L 150.08 170.50 C 150.03 169.59 149.24 168.89 148.33 168.95 C 147.42 169.00 146.72 169.79 146.77 170.70 Z M 146.83 171.62 L 146.90 172.60 C 146.96 173.51 147.75 174.20 148.66 174.14 C 149.57 174.08 150.26 173.29 150.20 172.38 L 150.13 171.40 C 150.07 170.49 149.28 169.80 148.37 169.86 C 147.46 169.92 146.77 170.71 146.83 171.62 Z M 146.90 172.60 L 146.98 173.65 C 147.04 174.56 147.83 175.25 148.74 175.18 C 149.65 175.12 150.33 174.33 150.27 173.42 L 150.19 172.37 C 150.13 171.46 149.34 170.78 148.43 170.84 C 147.52 170.91 146.84 171.70 146.90 172.60 Z M 146.98 173.66 L 147.06 174.78 C 147.13 175.68 147.91 176.36 148.82 176.30 C 149.73 176.23 150.41 175.44 150.34 174.54 L 150.26 173.42 C 150.20 172.51 149.41 171.83 148.50 171.90 C 147.60 171.96 146.91 172.75 146.98 173.66 Z M 147.06 174.78 L 147.14 175.84 C 147.21 176.74 147.99 177.42 148.90 177.36 C 149.80 177.29 150.48 176.50 150.42 175.60 L 150.34 174.54 C 150.28 173.63 149.49 172.95 148.58 173.02 C 147.68 173.08 147.00 173.87 147.06 174.78 Z M 147.14 175.84 L 147.22 176.83 C 147.28 177.73 148.07 178.41 148.97 178.34 C 149.88 178.28 150.56 177.49 150.49 176.59 L 150.42 175.60 C 150.35 174.69 149.56 174.02 148.66 174.08 C 147.76 174.15 147.08 174.94 147.14 175.84 Z M 147.22 176.83 L 147.29 177.84 C 147.36 178.75 148.15 179.42 149.05 179.35 C 149.96 179.29 150.63 178.50 150.57 177.59 L 150.49 176.58 C 150.42 175.68 149.63 175.00 148.73 175.07 C 147.83 175.14 147.15 175.93 147.22 176.83 Z M 147.29 177.85 L 147.37 178.87 C 147.45 179.77 148.24 180.44 149.14 180.37 C 150.04 180.30 150.72 179.51 150.64 178.61 L 150.56 177.59 C 150.49 176.69 149.70 176.01 148.80 176.08 C 147.90 176.15 147.22 176.94 147.29 177.85 Z M 147.38 178.87 L 147.46 179.89 C 147.54 180.79 148.33 181.46 149.23 181.39 C 150.13 181.31 150.80 180.52 150.73 179.62 L 150.64 178.60 C 150.57 177.70 149.78 177.03 148.87 177.10 C 147.97 177.18 147.30 177.97 147.38 178.87 Z M 147.46 179.90 L 147.55 180.90 C 147.63 181.80 148.43 182.47 149.33 182.39 C 150.23 182.30 150.90 181.51 150.82 180.61 L 150.73 179.61 C 150.65 178.71 149.85 178.04 148.95 178.12 C 148.05 178.20 147.38 179.00 147.46 179.90 Z M 147.55 180.91 L 147.65 181.88 C 147.74 182.78 148.54 183.44 149.44 183.35 C 150.34 183.26 151.00 182.46 150.91 181.56 L 150.81 180.59 C 150.73 179.69 149.92 179.04 149.02 179.12 C 148.12 179.21 147.47 180.01 147.55 180.91 Z M 147.65 181.90 L 147.77 182.96 C 147.87 183.86 148.68 184.51 149.57 184.41 C 150.47 184.31 151.12 183.50 151.02 182.61 L 150.91 181.54 C 150.81 180.65 150.00 180.00 149.10 180.10 C 148.20 180.19 147.55 181.00 147.65 181.90 Z M 147.77 182.98 L 147.90 184.02 C 148.01 184.92 148.82 185.55 149.72 185.44 C 150.62 185.34 151.26 184.52 151.15 183.62 L 151.02 182.59 C 150.91 181.69 150.10 181.05 149.20 181.16 C 148.30 181.27 147.66 182.08 147.77 182.98 Z M 147.90 184.03 L 148.03 185.03 C 148.15 185.93 148.97 186.56 149.87 186.44 C 150.77 186.32 151.40 185.50 151.28 184.60 L 151.15 183.60 C 151.03 182.71 150.20 182.08 149.31 182.20 C 148.41 182.32 147.78 183.14 147.90 184.03 Z M 148.03 185.04 L 148.17 186.01 C 148.30 186.90 149.12 187.52 150.02 187.40 C 150.91 187.27 151.54 186.44 151.41 185.55 L 151.28 184.59 C 151.15 183.69 150.32 183.07 149.43 183.19 C 148.53 183.32 147.91 184.15 148.03 185.04 Z M 148.17 186.02 L 148.31 186.96 C 148.44 187.85 149.27 188.47 150.17 188.34 C 151.06 188.21 151.68 187.38 151.55 186.48 L 151.41 185.54 C 151.28 184.65 150.45 184.03 149.55 184.16 C 148.66 184.29 148.04 185.12 148.17 186.02 Z M 148.31 186.96 L 148.43 187.76 C 148.56 188.66 149.40 189.27 150.29 189.14 C 151.18 189.00 151.80 188.17 151.67 187.28 L 151.55 186.48 C 151.41 185.58 150.58 184.97 149.69 185.10 C 148.79 185.24 148.18 186.07 148.31 186.96 Z"
      fill="black"
      fill-rule="nonzero" /><path d="M 161.95 144.52 L 162.15 145.48 C 162.36 146.45 163.32 147.07 164.29 146.86 C 165.27 146.65 165.88 145.70 165.68 144.72 L 165.47 143.76 C 165.26 142.79 164.30 142.17 163.33 142.38 C 162.36 142.59 161.74 143.54 161.95 144.52 Z M 162.15 145.49 L 162.36 146.45 C 162.58 147.42 163.54 148.04 164.51 147.83 C 165.48 147.61 166.10 146.65 165.89 145.68 L 165.68 144.72 C 165.46 143.74 164.50 143.13 163.53 143.34 C 162.56 143.55 161.94 144.51 162.15 145.49 Z M 162.37 146.46 L 162.58 147.43 C 162.80 148.40 163.77 149.01 164.74 148.79 C 165.71 148.57 166.32 147.61 166.10 146.64 L 165.88 145.67 C 165.67 144.70 164.70 144.09 163.73 144.31 C 162.76 144.53 162.15 145.49 162.37 146.46 Z M 162.59 147.45 L 162.82 148.42 C 163.05 149.40 164.02 149.99 164.99 149.76 C 165.96 149.53 166.56 148.56 166.33 147.59 L 166.10 146.62 C 165.87 145.65 164.90 145.05 163.93 145.28 C 162.96 145.51 162.36 146.48 162.59 147.45 Z M 162.82 148.45 L 163.07 149.43 C 163.32 150.40 164.30 150.99 165.26 150.74 C 166.23 150.50 166.82 149.52 166.58 148.55 L 166.33 147.57 C 166.08 146.60 165.10 146.01 164.13 146.26 C 163.17 146.50 162.58 147.48 162.82 148.45 Z M 163.08 149.46 L 163.34 150.45 C 163.60 151.41 164.60 151.98 165.56 151.72 C 166.52 151.46 167.09 150.47 166.83 149.50 L 166.57 148.52 C 166.31 147.56 165.32 146.99 164.35 147.25 C 163.39 147.51 162.82 148.50 163.08 149.46 Z M 163.35 150.48 L 163.63 151.43 C 163.91 152.39 164.91 152.94 165.87 152.67 C 166.82 152.39 167.38 151.39 167.10 150.43 L 166.82 149.47 C 166.55 148.51 165.55 147.96 164.59 148.24 C 163.63 148.52 163.08 149.52 163.35 150.48 Z M 163.64 151.46 L 163.94 152.42 C 164.23 153.37 165.24 153.91 166.19 153.61 C 167.14 153.32 167.67 152.32 167.38 151.36 L 167.09 150.40 C 166.80 149.45 165.79 148.92 164.84 149.21 C 163.89 149.50 163.35 150.51 163.64 151.46 Z M 163.95 152.44 L 164.26 153.40 C 164.56 154.35 165.58 154.87 166.52 154.56 C 167.47 154.26 167.98 153.24 167.68 152.30 L 167.37 151.34 C 167.07 150.40 166.05 149.88 165.11 150.18 C 164.16 150.49 163.64 151.50 163.95 152.44 Z M 164.27 153.42 L 164.59 154.38 C 164.91 155.32 165.93 155.82 166.86 155.50 C 167.80 155.19 168.31 154.17 167.99 153.23 L 167.67 152.28 C 167.35 151.34 166.33 150.84 165.40 151.15 C 164.46 151.47 163.95 152.49 164.27 153.42 Z M 164.60 154.40 L 164.93 155.34 C 165.26 156.27 166.28 156.76 167.21 156.44 C 168.15 156.11 168.64 155.09 168.31 154.15 L 167.98 153.21 C 167.65 152.28 166.63 151.79 165.70 152.12 C 164.77 152.44 164.28 153.47 164.60 154.40 Z M 164.95 155.36 L 165.28 156.29 C 165.62 157.22 166.65 157.69 167.57 157.36 C 168.50 157.02 168.98 155.99 168.64 155.07 L 168.30 154.14 C 167.96 153.21 166.94 152.73 166.01 153.07 C 165.09 153.41 164.61 154.43 164.95 155.36 Z M 165.30 156.30 L 165.66 157.25 C 166.01 158.17 167.03 158.63 167.95 158.29 C 168.86 157.94 169.32 156.92 168.98 156.00 L 168.62 155.05 C 168.27 154.14 167.25 153.68 166.34 154.02 C 165.42 154.37 164.96 155.39 165.30 156.30 Z M 165.69 157.27 L 166.05 158.20 C 166.40 159.10 167.42 159.55 168.32 159.19 C 169.23 158.84 169.67 157.82 169.32 156.92 L 168.95 155.99 C 168.60 155.09 167.58 154.64 166.68 154.99 C 165.78 155.35 165.33 156.37 165.69 157.27 Z M 166.08 158.21 L 166.45 159.13 C 166.81 160.02 167.82 160.45 168.71 160.09 C 169.60 159.73 170.03 158.72 169.67 157.83 L 169.29 156.91 C 168.93 156.02 167.92 155.59 167.03 155.95 C 166.14 156.31 165.72 157.32 166.08 158.21 Z M 166.47 159.15 L 166.86 160.06 C 167.22 160.94 168.23 161.35 169.11 160.98 C 169.98 160.61 170.39 159.60 170.03 158.73 L 169.64 157.82 C 169.27 156.94 168.27 156.53 167.39 156.90 C 166.52 157.26 166.11 158.27 166.47 159.15 Z M 166.88 160.07 L 167.28 160.98 C 167.65 161.85 168.65 162.24 169.51 161.87 C 170.38 161.49 170.77 160.49 170.40 159.63 L 170.00 158.72 C 169.63 157.86 168.63 157.46 167.76 157.84 C 166.90 158.21 166.51 159.21 166.88 160.07 Z M 167.30 161.00 L 167.72 161.93 C 168.10 162.78 169.10 163.16 169.95 162.78 C 170.79 162.40 171.17 161.40 170.79 160.55 L 170.37 159.62 C 169.99 158.77 169.00 158.39 168.15 158.77 C 167.30 159.15 166.92 160.15 167.30 161.00 Z M 167.74 161.95 L 168.19 162.91 C 168.57 163.75 169.57 164.12 170.41 163.73 C 171.25 163.34 171.61 162.35 171.22 161.51 L 170.78 160.54 C 170.39 159.70 169.39 159.34 168.55 159.72 C 167.72 160.11 167.35 161.11 167.74 161.95 Z M 168.20 162.93 L 168.66 163.88 C 169.06 164.71 170.05 165.06 170.88 164.66 C 171.71 164.27 172.06 163.27 171.66 162.44 L 171.21 161.49 C 170.81 160.66 169.81 160.31 168.98 160.71 C 168.16 161.11 167.81 162.10 168.20 162.93 Z M 168.68 163.91 L 169.14 164.82 C 169.55 165.64 170.54 165.97 171.36 165.56 C 172.18 165.15 172.51 164.15 172.10 163.33 L 171.64 162.42 C 171.23 161.60 170.24 161.27 169.42 161.68 C 168.60 162.09 168.27 163.09 168.68 163.91 Z M 169.16 164.84 L 169.61 165.70 C 170.04 166.50 171.03 166.81 171.84 166.39 C 172.64 165.96 172.95 164.96 172.53 164.16 L 172.08 163.30 C 171.65 162.50 170.65 162.19 169.85 162.62 C 169.04 163.04 168.73 164.04 169.16 164.84 Z M 169.64 165.73 L 170.07 166.51 C 170.52 167.30 171.52 167.58 172.31 167.13 C 173.10 166.69 173.38 165.68 172.94 164.89 L 172.50 164.12 C 172.05 163.33 171.05 163.05 170.26 163.50 C 169.47 163.94 169.19 164.94 169.64 165.73 Z M 170.12 166.57 L 170.72 167.53 C 171.20 168.30 172.21 168.53 172.98 168.05 C 173.74 167.57 173.98 166.56 173.50 165.80 L 172.89 164.83 C 172.41 164.07 171.40 163.83 170.64 164.31 C 169.87 164.79 169.64 165.80 170.12 166.57 Z M 170.77 167.61 L 171.37 168.44 C 171.89 169.18 172.91 169.35 173.65 168.83 C 174.39 168.30 174.56 167.28 174.03 166.55 L 173.44 165.72 C 172.92 164.98 171.90 164.81 171.16 165.33 C 170.42 165.86 170.25 166.88 170.77 167.61 Z M 171.41 168.51 L 171.98 169.23 C 172.54 169.94 173.57 170.06 174.28 169.50 C 174.99 168.94 175.11 167.91 174.55 167.20 L 173.98 166.48 C 173.42 165.77 172.39 165.65 171.68 166.21 C 170.97 166.77 170.85 167.80 171.41 168.51 Z M 172.00 169.26 L 172.39 169.73 C 172.97 170.42 174.00 170.52 174.70 169.94 C 175.39 169.37 175.49 168.33 174.92 167.64 L 174.53 167.17 C 173.95 166.47 172.92 166.37 172.22 166.95 C 171.52 167.53 171.43 168.56 172.00 169.26 Z"
      fill="black"
      fill-rule="nonzero" /><path d="M 181.71 148.12 L 181.71 149.08 C 181.71 150.06 182.50 150.84 183.47 150.84 C 184.44 150.84 185.23 150.06 185.23 149.08 L 185.23 148.12 C 185.23 147.15 184.44 146.36 183.47 146.36 C 182.50 146.36 181.71 147.15 181.71 148.12 Z M 181.70 149.08 L 181.70 150.07 C 181.70 151.04 182.49 151.84 183.47 151.84 C 184.44 151.84 185.24 151.04 185.24 150.07 L 185.24 149.08 C 185.24 148.11 184.44 147.32 183.47 147.32 C 182.49 147.32 181.70 148.11 181.70 149.08 Z M 181.69 150.07 L 181.69 151.09 C 181.69 152.07 182.49 152.87 183.47 152.87 C 184.45 152.87 185.24 152.07 185.24 151.09 L 185.24 150.07 C 185.24 149.09 184.45 148.29 183.47 148.29 C 182.49 148.29 181.69 149.09 181.69 150.07 Z M 181.68 151.09 L 181.68 152.11 C 181.68 153.10 182.48 153.90 183.47 153.90 C 184.45 153.90 185.25 153.10 185.25 152.11 L 185.25 151.09 C 185.25 150.10 184.45 149.30 183.47 149.30 C 182.48 149.30 181.68 150.10 181.68 151.09 Z M 181.66 152.11 L 181.66 153.13 C 181.66 154.13 182.47 154.94 183.47 154.94 C 184.47 154.94 185.28 154.13 185.28 153.13 L 185.28 152.11 C 185.28 151.12 184.47 150.31 183.47 150.31 C 182.47 150.31 181.66 151.12 181.66 152.11 Z M 181.64 153.13 L 181.64 154.15 C 181.64 155.16 182.46 155.98 183.47 155.98 C 184.48 155.98 185.30 155.16 185.30 154.15 L 185.30 153.13 C 185.30 152.12 184.48 151.30 183.47 151.30 C 182.46 151.30 181.64 152.12 181.64 153.13 Z M 181.61 154.15 L 181.61 155.13 C 181.61 156.16 182.44 156.99 183.47 156.99 C 184.49 156.99 185.33 156.16 185.33 155.13 L 185.33 154.15 C 185.33 153.12 184.49 152.29 183.47 152.29 C 182.44 152.29 181.61 153.12 181.61 154.15 Z M 181.59 155.13 L 181.59 156.18 C 181.59 157.21 182.44 158.05 183.47 158.05 C 184.51 158.05 185.35 157.21 185.35 156.17 L 185.35 155.13 C 185.34 154.09 184.50 153.25 183.47 153.25 C 182.43 153.26 181.59 154.10 181.59 155.13 Z M 181.58 156.21 L 181.60 157.22 C 181.62 158.26 182.48 159.09 183.53 159.07 C 184.57 159.05 185.40 158.19 185.38 157.14 L 185.36 156.14 C 185.34 155.09 184.48 154.27 183.43 154.29 C 182.39 154.31 181.56 155.17 181.58 156.21 Z M 181.60 157.30 L 181.66 158.26 C 181.72 159.30 182.62 160.10 183.67 160.03 C 184.71 159.97 185.51 159.07 185.44 158.02 L 185.38 157.06 C 185.32 156.01 184.42 155.22 183.37 155.29 C 182.32 155.35 181.53 156.25 181.60 157.30 Z M 181.66 158.39 L 181.79 159.35 C 181.93 160.39 182.88 161.13 183.93 160.99 C 184.97 160.85 185.70 159.89 185.57 158.85 L 185.44 157.89 C 185.30 156.85 184.34 156.11 183.30 156.25 C 182.26 156.39 181.52 157.35 181.66 158.39 Z M 181.81 159.50 L 182.01 160.47 C 182.23 161.50 183.25 162.16 184.28 161.94 C 185.31 161.72 185.97 160.71 185.75 159.67 L 185.55 158.70 C 185.33 157.67 184.31 157.01 183.28 157.23 C 182.25 157.45 181.59 158.46 181.81 159.50 Z M 182.04 160.61 L 182.32 161.57 C 182.62 162.59 183.68 163.17 184.70 162.88 C 185.72 162.58 186.30 161.52 186.00 160.50 L 185.72 159.53 C 185.43 158.52 184.36 157.93 183.35 158.23 C 182.33 158.53 181.75 159.59 182.04 160.61 Z M 182.36 161.70 L 182.71 162.64 C 183.07 163.63 184.18 164.14 185.17 163.78 C 186.17 163.41 186.68 162.31 186.31 161.31 L 185.97 160.37 C 185.60 159.38 184.50 158.87 183.50 159.23 C 182.51 159.60 182.00 160.70 182.36 161.70 Z M 182.75 162.76 L 183.15 163.65 C 183.58 164.62 184.72 165.06 185.69 164.63 C 186.66 164.19 187.10 163.06 186.67 162.09 L 186.27 161.19 C 185.83 160.22 184.70 159.78 183.73 160.22 C 182.76 160.65 182.32 161.79 182.75 162.76 Z M 183.21 163.78 L 183.68 164.66 C 184.18 165.60 185.35 165.95 186.29 165.45 C 187.22 164.95 187.58 163.79 187.08 162.85 L 186.61 161.96 C 186.11 161.02 184.94 160.67 184.00 161.17 C 183.06 161.67 182.71 162.84 183.21 163.78 Z M 183.75 164.78 L 184.30 165.65 C 184.86 166.55 186.05 166.82 186.95 166.25 C 187.86 165.68 188.13 164.49 187.56 163.59 L 187.01 162.72 C 186.44 161.82 185.25 161.55 184.35 162.12 C 183.45 162.69 183.18 163.88 183.75 164.78 Z M 184.38 165.76 L 184.96 166.55 C 185.59 167.41 186.80 167.59 187.65 166.96 C 188.51 166.32 188.69 165.12 188.06 164.26 L 187.48 163.47 C 186.84 162.62 185.64 162.44 184.78 163.07 C 183.92 163.70 183.74 164.91 184.38 165.76 Z M 185.06 166.68 L 185.72 167.43 C 186.42 168.23 187.64 168.31 188.44 167.61 C 189.24 166.91 189.32 165.69 188.62 164.89 L 187.96 164.14 C 187.26 163.34 186.04 163.26 185.24 163.96 C 184.44 164.66 184.36 165.88 185.06 166.68 Z M 185.85 167.56 L 186.59 168.26 C 187.36 168.98 188.58 168.94 189.31 168.17 C 190.04 167.40 190.00 166.18 189.22 165.45 L 188.49 164.76 C 187.71 164.03 186.49 164.07 185.76 164.84 C 185.04 165.62 185.08 166.83 185.85 167.56 Z M 186.75 168.39 L 187.54 168.98 C 188.39 169.61 189.59 169.44 190.23 168.59 C 190.87 167.74 190.69 166.54 189.84 165.90 L 189.06 165.32 C 188.21 164.68 187.00 164.85 186.37 165.70 C 185.73 166.55 185.91 167.75 186.75 168.39 Z M 187.73 169.10 L 188.57 169.58 C 189.48 170.11 190.65 169.80 191.18 168.88 C 191.71 167.97 191.40 166.80 190.48 166.27 L 189.65 165.79 C 188.74 165.26 187.57 165.57 187.04 166.48 C 186.51 167.40 186.82 168.57 187.73 169.10 Z M 188.77 169.67 L 189.68 170.07 C 190.64 170.48 191.76 170.04 192.18 169.08 C 192.60 168.11 192.16 167.00 191.19 166.58 L 190.28 166.18 C 189.32 165.76 188.20 166.20 187.78 167.17 C 187.36 168.13 187.81 169.25 188.77 169.67 Z M 189.89 170.13 L 190.88 170.43 C 191.88 170.74 192.94 170.18 193.24 169.18 C 193.55 168.18 192.98 167.12 191.98 166.82 L 190.99 166.51 C 189.99 166.21 188.93 166.77 188.63 167.77 C 188.32 168.77 188.89 169.82 189.89 170.13 Z M 191.07 170.47 L 192.07 170.67 C 193.09 170.87 194.07 170.20 194.27 169.18 C 194.47 168.16 193.81 167.18 192.79 166.98 L 191.79 166.78 C 190.78 166.58 189.79 167.24 189.59 168.26 C 189.39 169.28 190.05 170.27 191.07 170.47 Z M 192.21 170.68 L 193.22 170.80 C 194.24 170.92 195.17 170.18 195.29 169.16 C 195.41 168.13 194.68 167.20 193.66 167.08 L 192.65 166.96 C 191.62 166.84 190.69 167.58 190.57 168.60 C 190.45 169.63 191.19 170.56 192.21 170.68 Z M 193.32 170.79 L 194.34 170.86 C 195.36 170.93 196.25 170.15 196.31 169.12 C 196.38 168.10 195.60 167.21 194.58 167.15 L 193.56 167.08 C 192.53 167.02 191.65 167.80 191.58 168.82 C 191.52 169.84 192.29 170.73 193.32 170.79 Z M 194.41 170.85 L 195.41 170.88 C 196.43 170.91 197.28 170.10 197.31 169.08 C 197.33 168.06 196.53 167.21 195.51 167.18 L 194.51 167.16 C 193.49 167.13 192.64 167.93 192.61 168.95 C 192.58 169.98 193.39 170.83 194.41 170.85 Z M 195.45 170.87 L 196.46 170.87 C 197.48 170.87 198.30 170.05 198.30 169.04 C 198.30 168.02 197.48 167.20 196.47 167.20 L 195.46 167.20 C 194.45 167.19 193.62 168.01 193.62 169.03 C 193.62 170.04 194.44 170.86 195.45 170.87 Z M 196.51 170.85 L 197.56 170.82 C 198.56 170.80 199.35 169.96 199.33 168.96 C 199.30 167.96 198.47 167.17 197.47 167.19 L 196.42 167.22 C 195.42 167.25 194.63 168.08 194.65 169.08 C 194.68 170.08 195.51 170.87 196.51 170.85 Z M 197.66 170.79 L 198.63 170.71 C 199.61 170.63 200.35 169.77 200.27 168.79 C 200.19 167.80 199.33 167.07 198.35 167.15 L 197.37 167.23 C 196.39 167.31 195.65 168.17 195.73 169.15 C 195.81 170.13 196.67 170.87 197.66 170.79 Z M 198.77 170.66 L 199.71 170.51 C 200.67 170.36 201.32 169.45 201.16 168.49 C 201.00 167.53 200.10 166.88 199.14 167.04 L 198.20 167.19 C 197.25 167.35 196.60 168.25 196.75 169.21 C 196.91 170.17 197.81 170.82 198.77 170.66 Z M 199.87 170.45 L 200.79 170.21 C 201.71 169.96 202.26 169.01 202.02 168.08 C 201.77 167.16 200.82 166.61 199.89 166.86 L 198.98 167.10 C 198.05 167.35 197.50 168.30 197.75 169.22 C 198.00 170.15 198.95 170.70 199.87 170.45 Z M 200.93 170.14 L 201.85 169.81 C 202.74 169.48 203.19 168.50 202.87 167.61 C 202.55 166.72 201.56 166.26 200.67 166.59 L 199.75 166.92 C 198.86 167.24 198.40 168.23 198.73 169.12 C 199.05 170.01 200.04 170.47 200.93 170.14 Z M 201.95 169.75 L 202.87 169.34 C 203.73 168.96 204.12 167.96 203.74 167.10 C 203.36 166.24 202.36 165.86 201.50 166.23 L 200.57 166.65 C 199.71 167.02 199.33 168.03 199.71 168.88 C 200.09 169.74 201.09 170.13 201.95 169.75 Z M 202.94 169.29 L 203.87 168.82 C 204.70 168.41 205.03 167.40 204.62 166.57 C 204.20 165.74 203.19 165.40 202.36 165.82 L 201.43 166.29 C 200.60 166.70 200.27 167.71 200.68 168.54 C 201.10 169.37 202.11 169.70 202.94 169.29 Z M 203.91 168.79 L 204.75 168.33 C 205.56 167.90 205.86 166.88 205.42 166.07 C 204.98 165.26 203.97 164.96 203.16 165.40 L 202.32 165.85 C 201.51 166.29 201.21 167.30 201.65 168.11 C 202.09 168.92 203.10 169.23 203.91 168.79 Z M 204.77 168.31 L 205.63 167.82 C 206.43 167.37 206.71 166.36 206.26 165.56 C 205.81 164.76 204.79 164.49 204.00 164.94 L 203.14 165.42 C 202.34 165.88 202.06 166.89 202.51 167.68 C 202.96 168.48 203.98 168.76 204.77 168.31 Z M 205.65 167.81 L 206.53 167.29 C 207.31 166.83 207.58 165.82 207.12 165.03 C 206.66 164.25 205.65 163.98 204.86 164.44 L 203.98 164.95 C 203.19 165.42 202.93 166.43 203.39 167.21 C 203.85 168.00 204.86 168.27 205.65 167.81 Z M 206.53 167.28 L 207.43 166.74 C 208.21 166.28 208.47 165.27 208.00 164.49 C 207.54 163.71 206.53 163.46 205.75 163.92 L 204.85 164.45 C 204.07 164.92 203.82 165.93 204.28 166.71 C 204.74 167.49 205.75 167.74 206.53 167.28 Z M 207.43 166.74 L 208.27 166.24 C 209.05 165.77 209.30 164.77 208.84 163.99 C 208.37 163.21 207.37 162.96 206.59 163.42 L 205.75 163.93 C 204.97 164.39 204.72 165.40 205.18 166.17 C 205.65 166.95 206.66 167.20 207.43 166.74 Z M 208.28 166.23 L 209.13 165.72 C 209.90 165.25 210.15 164.25 209.69 163.47 C 209.22 162.70 208.21 162.45 207.44 162.91 L 206.59 163.43 C 205.81 163.89 205.56 164.90 206.03 165.67 C 206.49 166.45 207.50 166.70 208.28 166.23 Z M 209.13 165.72 L 209.99 165.19 C 210.77 164.72 211.01 163.72 210.54 162.94 C 210.07 162.17 209.07 161.92 208.29 162.39 L 207.43 162.92 C 206.66 163.39 206.41 164.39 206.88 165.17 C 207.35 165.94 208.36 166.19 209.13 165.72 Z M 210.00 165.19 L 210.87 164.66 C 211.64 164.18 211.88 163.17 211.40 162.40 C 210.93 161.63 209.92 161.39 209.15 161.87 L 208.28 162.40 C 207.51 162.87 207.27 163.88 207.75 164.65 C 208.22 165.42 209.23 165.66 210.00 165.19 Z M 210.88 164.65 L 211.73 164.11 C 212.50 163.63 212.73 162.62 212.25 161.86 C 211.77 161.09 210.76 160.86 210.00 161.34 L 209.14 161.88 C 208.37 162.36 208.14 163.37 208.62 164.13 C 209.10 164.90 210.11 165.13 210.88 164.65 Z M 211.75 164.10 L 212.60 163.56 C 213.36 163.07 213.58 162.06 213.09 161.30 C 212.61 160.54 211.59 160.31 210.83 160.80 L 209.98 161.35 C 209.22 161.83 209.00 162.85 209.49 163.61 C 209.97 164.37 210.99 164.59 211.75 164.10 Z M 212.61 163.55 L 213.45 163.00 C 214.21 162.51 214.42 161.49 213.92 160.73 C 213.43 159.98 212.41 159.77 211.66 160.26 L 210.82 160.81 C 210.06 161.31 209.85 162.32 210.35 163.08 C 210.84 163.83 211.86 164.05 212.61 163.55 Z M 213.47 162.99 L 214.30 162.43 C 215.05 161.93 215.25 160.91 214.74 160.16 C 214.24 159.41 213.22 159.21 212.47 159.72 L 211.64 160.27 C 210.89 160.78 210.69 161.80 211.20 162.55 C 211.70 163.30 212.72 163.49 213.47 162.99 Z M 214.32 162.42 L 215.13 161.86 C 215.87 161.34 216.05 160.32 215.54 159.58 C 215.02 158.84 214.00 158.65 213.26 159.17 L 212.45 159.73 C 211.71 160.25 211.52 161.27 212.04 162.01 C 212.55 162.75 213.57 162.93 214.32 162.42 Z M 215.15 161.84 L 215.97 161.25 C 216.70 160.73 216.87 159.70 216.34 158.97 C 215.81 158.23 214.79 158.07 214.06 158.59 L 213.24 159.18 C 212.50 159.71 212.34 160.73 212.86 161.47 C 213.39 162.20 214.41 162.37 215.15 161.84 Z M 215.99 161.24 L 216.79 160.64 C 217.52 160.10 217.67 159.08 217.14 158.35 C 216.60 157.63 215.57 157.47 214.85 158.01 L 214.04 158.61 C 213.31 159.14 213.16 160.17 213.70 160.90 C 214.23 161.62 215.26 161.78 215.99 161.24 Z M 216.81 160.63 L 217.60 160.03 C 218.32 159.49 218.47 158.46 217.92 157.74 C 217.38 157.02 216.35 156.87 215.63 157.42 L 214.83 158.02 C 214.11 158.57 213.97 159.59 214.51 160.31 C 215.06 161.03 216.09 161.18 216.81 160.63 Z M 217.61 160.02 L 218.40 159.42 C 219.12 158.87 219.25 157.84 218.70 157.13 C 218.15 156.41 217.13 156.27 216.41 156.82 L 215.62 157.43 C 214.90 157.97 214.77 159.00 215.32 159.72 C 215.86 160.44 216.89 160.57 217.61 160.02 Z M 218.40 159.42 L 218.81 159.10 C 219.53 158.55 219.67 157.52 219.11 156.81 C 218.56 156.09 217.54 155.95 216.82 156.51 L 216.40 156.82 C 215.69 157.38 215.55 158.40 216.11 159.12 C 216.66 159.84 217.68 159.97 218.40 159.42 Z"
      fill="black"
      fill-rule="nonzero" /></svg>