<svg xmlns="http://www.w3.org/2000/svg" width="300" height="300" viewBox="0 0 300 300">
<path d="M 134.17 132.06 L 135.00 131.91 C 135.95 131.74 136.58 130.84 136.42 129.89 C 136.25 128.94 135.34 128.31 134.39 128.48 L 133.56 128.62 C 132.61 128.79 131.98 129.70 132.15 130.65 C 132.32 131.60 133.22 132.23 134.17 132.06 Z M 135.04 131.92 L 135.94 131.74 C 136.89 131.56 137.51 130.63 137.32 129.67 C 137.13 128.72 136.21 128.10 135.25 128.29 L 134.35 128.47 C 133.40 128.66 132.78 129.58 132.97 130.54 C 133.16 131.49 134.08 132.11 135.04 131.92 Z M 135.99 131.75 L 137.03 131.51 C 137.98 131.29 138.58 130.33 138.36 129.38 C 138.14 128.42 137.18 127.83 136.23 128.05 L 135.19 128.29 C 134.24 128.51 133.64 129.46 133.86 130.42 C 134.08 131.37 135.04 131.97 135.99 131.75 Z M 137.09 131.51 L 138.20 131.21 C 139.16 130.96 139.73 129.98 139.48 129.02 C 139.22 128.07 138.24 127.50 137.29 127.75 L 136.17 128.05 C 135.21 128.30 134.65 129.28 134.90 130.24 C 135.15 131.19 136.13 131.76 137.09 131.51 Z M 138.24 131.21 L 139.17 130.94 C 140.12 130.66 140.67 129.67 140.40 128.72 C 140.12 127.77 139.13 127.22 138.18 127.49 L 137.25 127.76 C 136.30 128.03 135.75 129.03 136.02 129.98 C 136.30 130.93 137.29 131.48 138.24 131.21 Z M 139.19 130.93 L 140.18 130.64 C 141.13 130.35 141.66 129.35 141.38 128.40 C 141.09 127.45 140.09 126.91 139.14 127.20 L 138.16 127.50 C 137.21 127.78 136.67 128.78 136.95 129.73 C 137.24 130.68 138.24 131.22 139.19 130.93 Z M 140.19 130.63 L 141.20 130.32 C 142.14 130.03 142.67 129.02 142.38 128.08 C 142.09 127.13 141.08 126.60 140.14 126.89 L 139.13 127.20 C 138.18 127.50 137.65 128.50 137.95 129.45 C 138.24 130.39 139.24 130.92 140.19 130.63 Z M 141.21 130.32 L 142.20 130.00 C 143.14 129.71 143.66 128.70 143.37 127.75 C 143.07 126.81 142.06 126.29 141.12 126.58 L 140.13 126.90 C 139.18 127.19 138.66 128.20 138.96 129.15 C 139.26 130.09 140.26 130.61 141.21 130.32 Z M 142.20 130.00 L 143.13 129.71 C 144.07 129.41 144.59 128.40 144.29 127.45 C 143.99 126.51 142.98 125.99 142.04 126.29 L 141.11 126.59 C 140.17 126.89 139.65 127.89 139.95 128.84 C 140.25 129.78 141.26 130.30 142.20 130.00 Z M 143.13 129.70 L 144.19 129.36 C 145.14 129.06 145.66 128.06 145.35 127.11 C 145.05 126.17 144.05 125.65 143.10 125.95 L 142.04 126.29 C 141.10 126.59 140.58 127.60 140.88 128.54 C 141.18 129.48 142.19 130.00 143.13 129.70 Z M 144.19 129.36 L 145.22 129.03 C 146.16 128.73 146.68 127.72 146.38 126.79 C 146.08 125.85 145.07 125.33 144.13 125.63 L 143.11 125.96 C 142.17 126.26 141.65 127.26 141.95 128.20 C 142.25 129.14 143.25 129.66 144.19 129.36 Z M 145.22 129.02 L 146.11 128.74 C 147.04 128.44 147.56 127.44 147.26 126.50 C 146.96 125.57 145.96 125.05 145.02 125.35 L 144.13 125.64 C 143.20 125.94 142.69 126.94 142.99 127.87 C 143.29 128.81 144.29 129.32 145.22 129.02 Z M 146.11 128.73 L 146.93 128.46 C 147.86 128.16 148.37 127.17 148.07 126.24 C 147.76 125.31 146.77 124.80 145.84 125.10 L 145.02 125.36 C 144.09 125.66 143.58 126.66 143.88 127.59 C 144.18 128.52 145.18 129.03 146.11 128.73 Z M 146.93 128.46 L 147.84 128.16 C 148.77 127.85 149.27 126.86 148.97 125.93 C 148.66 125.01 147.67 124.50 146.74 124.81 L 145.83 125.10 C 144.91 125.41 144.40 126.40 144.71 127.33 C 145.01 128.26 146.01 128.76 146.93 128.46 Z M 147.85 128.15 L 148.80 127.83 C 149.72 127.52 150.21 126.53 149.91 125.61 C 149.60 124.69 148.60 124.19 147.68 124.50 L 146.74 124.81 C 145.81 125.12 145.32 126.12 145.63 127.04 C 145.93 127.96 146.93 128.46 147.85 128.15 Z M 148.81 127.82 L 149.76 127.49 C 150.68 127.18 151.17 126.18 150.85 125.27 C 150.54 124.35 149.54 123.86 148.63 124.18 L 147.67 124.51 C 146.75 124.82 146.27 125.82 146.58 126.73 C 146.90 127.65 147.89 128.14 148.81 127.82 Z M 149.78 127.48 L 150.72 127.15 C 151.63 126.83 152.11 125.83 151.79 124.92 C 151.46 124.01 150.47 123.53 149.56 123.86 L 148.61 124.19 C 147.70 124.51 147.23 125.51 147.55 126.42 C 147.87 127.33 148.87 127.81 149.78 127.48 Z M 150.73 127.14 L 151.66 126.80 C 152.57 126.48 153.04 125.48 152.71 124.57 C 152.38 123.67 151.39 123.20 150.48 123.53 L 149.55 123.86 C 148.64 124.19 148.18 125.19 148.50 126.09 C 148.83 127.00 149.83 127.47 150.73 127.14 Z M 151.66 126.80 L 152.60 126.46 C 153.50 126.14 153.97 125.14 153.65 124.24 C 153.33 123.34 152.33 122.87 151.43 123.19 L 150.49 123.53 C 149.58 123.86 149.12 124.85 149.44 125.75 C 149.76 126.65 150.76 127.12 151.66 126.80 Z M 152.58 126.46 L 153.54 126.13 C 154.44 125.82 154.92 124.83 154.60 123.93 C 154.29 123.03 153.31 122.55 152.40 122.86 L 151.45 123.19 C 150.55 123.51 150.07 124.49 150.38 125.39 C 150.70 126.30 151.68 126.77 152.58 126.46 Z M 153.51 126.13 L 154.44 125.82 C 155.35 125.52 155.84 124.55 155.54 123.65 C 155.24 122.74 154.27 122.25 153.36 122.55 L 152.43 122.86 C 151.53 123.16 151.04 124.13 151.34 125.04 C 151.63 125.94 152.61 126.43 153.51 126.13 Z M 154.43 125.82 L 155.38 125.52 C 156.28 125.23 156.78 124.26 156.49 123.36 C 156.20 122.46 155.23 121.96 154.33 122.25 L 153.38 122.55 C 152.48 122.84 151.98 123.81 152.27 124.71 C 152.56 125.61 153.52 126.11 154.43 125.82 Z M 155.37 125.51 L 156.33 125.20 C 157.23 124.92 157.73 123.96 157.45 123.06 C 157.16 122.16 156.20 121.66 155.30 121.95 L 154.34 122.25 C 153.44 122.54 152.94 123.50 153.22 124.40 C 153.51 125.30 154.47 125.80 155.37 125.51 Z M 156.34 125.20 L 157.30 124.89 C 158.19 124.60 158.68 123.64 158.40 122.75 C 158.11 121.85 157.15 121.36 156.26 121.65 L 155.30 121.96 C 154.40 122.24 153.91 123.20 154.20 124.10 C 154.48 124.99 155.44 125.48 156.34 125.20 Z M 157.30 124.88 L 158.25 124.57 C 159.14 124.28 159.63 123.32 159.34 122.43 C 159.05 121.54 158.09 121.06 157.20 121.35 L 156.25 121.66 C 155.36 121.95 154.88 122.91 155.17 123.80 C 155.46 124.68 156.41 125.17 157.30 124.88 Z M 158.26 124.56 L 159.21 124.24 C 160.09 123.95 160.57 122.99 160.28 122.11 C 159.99 121.23 159.03 120.75 158.15 121.04 L 157.19 121.36 C 156.31 121.65 155.83 122.61 156.13 123.49 C 156.42 124.37 157.38 124.85 158.26 124.56 Z M 159.22 124.23 L 160.16 123.91 C 161.04 123.62 161.52 122.66 161.22 121.79 C 160.92 120.91 159.97 120.43 159.09 120.73 L 158.14 121.05 C 157.26 121.35 156.79 122.30 157.09 123.18 C 157.38 124.06 158.34 124.53 159.22 124.23 Z M 160.17 123.91 L 160.97 123.63 C 161.85 123.33 162.31 122.38 162.02 121.51 C 161.72 120.63 160.77 120.17 159.89 120.46 L 159.09 120.74 C 158.21 121.04 157.75 121.99 158.04 122.86 C 158.34 123.74 159.29 124.20 160.17 123.91 Z M 160.98 123.62 L 161.78 123.35 C 162.65 123.05 163.11 122.10 162.81 121.23 C 162.51 120.36 161.56 119.89 160.69 120.19 L 159.89 120.47 C 159.02 120.77 158.56 121.72 158.86 122.59 C 159.16 123.46 160.11 123.92 160.98 123.62 Z M 161.78 123.34 L 162.68 123.03 C 163.54 122.73 164.00 121.78 163.70 120.91 C 163.39 120.04 162.45 119.59 161.58 119.89 L 160.69 120.20 C 159.82 120.50 159.36 121.45 159.66 122.32 C 159.97 123.19 160.92 123.64 161.78 123.34 Z M 162.68 123.02 L 163.72 122.66 C 164.58 122.35 165.04 121.40 164.73 120.54 C 164.43 119.67 163.48 119.22 162.61 119.53 L 161.57 119.90 C 160.71 120.20 160.26 121.15 160.56 122.01 C 160.87 122.88 161.82 123.33 162.68 123.02 Z M 163.72 122.65 L 164.89 122.23 C 165.75 121.93 166.19 120.98 165.89 120.12 C 165.58 119.26 164.63 118.81 163.77 119.12 L 162.61 119.53 C 161.75 119.84 161.30 120.79 161.61 121.65 C 161.92 122.51 162.86 122.96 163.72 122.65 Z M 164.89 122.23 L 165.77 121.91 C 166.63 121.60 167.08 120.66 166.77 119.80 C 166.46 118.94 165.51 118.49 164.66 118.80 L 163.77 119.12 C 162.91 119.43 162.47 120.38 162.77 121.23 C 163.08 122.09 164.03 122.54 164.89 122.23 Z M 165.77 121.91 L 166.72 121.57 C 167.58 121.26 168.03 120.31 167.72 119.46 C 167.41 118.60 166.46 118.15 165.61 118.46 L 164.66 118.81 C 163.80 119.11 163.35 120.06 163.66 120.92 C 163.97 121.77 164.92 122.22 165.77 121.91 Z M 166.72 121.56 L 167.71 121.21 C 168.57 120.90 169.01 119.96 168.71 119.10 C 168.40 118.24 167.45 117.80 166.60 118.11 L 165.61 118.46 C 164.75 118.77 164.31 119.72 164.62 120.57 C 164.92 121.43 165.87 121.87 166.72 121.56 Z M 167.71 121.21 L 168.71 120.85 C 169.57 120.54 170.01 119.60 169.71 118.74 C 169.40 117.89 168.46 117.44 167.60 117.75 L 166.60 118.11 C 165.74 118.42 165.30 119.36 165.61 120.21 C 165.91 121.07 166.86 121.51 167.71 121.21 Z M 168.71 120.85 L 169.70 120.49 C 170.55 120.19 171.00 119.25 170.69 118.39 C 170.39 117.54 169.45 117.09 168.59 117.40 L 167.61 117.75 C 166.75 118.06 166.31 119.00 166.61 119.85 C 166.92 120.71 167.86 121.15 168.71 120.85 Z M 169.69 120.49 L 170.64 120.16 C 171.49 119.86 171.94 118.92 171.64 118.06 C 171.33 117.21 170.40 116.76 169.54 117.06 L 168.60 117.40 C 167.74 117.70 167.30 118.64 167.60 119.49 C 167.90 120.35 168.84 120.80 169.69 120.49 Z M 170.63 120.16 L 171.50 119.85 C 172.36 119.56 172.81 118.62 172.51 117.77 C 172.21 116.91 171.28 116.46 170.42 116.76 L 169.55 117.06 C 168.69 117.36 168.24 118.30 168.54 119.15 C 168.84 120.01 169.78 120.46 170.63 120.16 Z M 171.49 119.86 L 172.67 119.46 C 173.53 119.17 173.98 118.23 173.69 117.38 C 173.40 116.52 172.47 116.06 171.61 116.35 L 170.44 116.76 C 169.58 117.05 169.12 117.98 169.41 118.83 C 169.70 119.69 170.64 120.15 171.49 119.86 Z M 172.65 119.46 L 173.71 119.12 C 174.57 118.84 175.04 117.91 174.76 117.05 C 174.48 116.19 173.55 115.72 172.69 116.00 L 171.63 116.35 C 170.77 116.63 170.30 117.55 170.59 118.41 C 170.87 119.27 171.79 119.74 172.65 119.46 Z M 173.69 119.13 L 174.57 118.85 C 175.43 118.58 175.91 117.67 175.65 116.80 C 175.38 115.94 174.46 115.46 173.60 115.72 L 172.71 116.00 C 171.85 116.27 171.37 117.18 171.64 118.05 C 171.90 118.91 172.82 119.39 173.69 119.13 Z M 174.55 118.86 L 175.33 118.63 C 176.19 118.37 176.69 117.46 176.43 116.59 C 176.17 115.72 175.26 115.23 174.39 115.49 L 173.62 115.72 C 172.75 115.98 172.26 116.89 172.51 117.75 C 172.77 118.62 173.68 119.11 174.55 118.86 Z M 175.32 118.63 L 175.70 118.51 C 176.57 118.26 177.07 117.35 176.82 116.48 C 176.56 115.62 175.65 115.12 174.79 115.37 L 174.40 115.48 C 173.53 115.74 173.03 116.65 173.29 117.52 C 173.54 118.38 174.45 118.88 175.32 118.63 Z"
      fill="black"
      fill-rule="nonzero" /><path d="M 138.57 161.12 L 139.61 161.01 C 140.56 160.91 141.25 160.05 141.15 159.09 C 141.04 158.14 140.19 157.45 139.23 157.55 L 138.19 157.67 C 137.23 157.77 136.54 158.63 136.65 159.58 C 136.75 160.54 137.61 161.23 138.57 161.12 Z M 139.62 161.02 L 140.64 160.91 C 141.61 160.80 142.30 159.93 142.19 158.97 C 142.08 158.01 141.21 157.32 140.25 157.42 L 139.22 157.54 C 138.26 157.65 137.57 158.52 137.68 159.48 C 137.79 160.44 138.65 161.13 139.62 161.02 Z M 140.66 160.92 L 141.66 160.80 C 142.63 160.68 143.32 159.80 143.20 158.83 C 143.08 157.86 142.20 157.17 141.23 157.29 L 140.23 157.41 C 139.27 157.53 138.58 158.41 138.69 159.38 C 138.81 160.35 139.69 161.04 140.66 160.92 Z M 141.68 160.81 L 142.64 160.68 C 143.62 160.55 144.30 159.65 144.17 158.68 C 144.04 157.70 143.14 157.02 142.17 157.15 L 141.21 157.28 C 140.23 157.41 139.55 158.31 139.68 159.28 C 139.81 160.26 140.71 160.94 141.68 160.81 Z M 142.68 160.69 L 143.60 160.55 C 144.57 160.40 145.25 159.48 145.09 158.50 C 144.94 157.52 144.03 156.85 143.05 157.00 L 142.13 157.14 C 141.15 157.30 140.48 158.21 140.63 159.19 C 140.78 160.17 141.70 160.84 142.68 160.69 Z M 143.64 160.54 L 144.55 160.38 C 145.53 160.20 146.18 159.26 146.00 158.29 C 145.82 157.31 144.88 156.66 143.91 156.84 L 143.00 157.01 C 142.02 157.18 141.38 158.12 141.55 159.10 C 141.73 160.07 142.67 160.72 143.64 160.54 Z M 144.61 160.37 L 145.52 160.17 C 146.49 159.96 147.10 159.01 146.90 158.04 C 146.69 157.07 145.73 156.45 144.76 156.66 L 143.85 156.85 C 142.88 157.06 142.26 158.01 142.47 158.99 C 142.68 159.96 143.63 160.58 144.61 160.37 Z M 145.56 160.16 L 146.54 159.92 C 147.50 159.69 148.09 158.72 147.86 157.75 C 147.62 156.79 146.65 156.20 145.69 156.43 L 144.71 156.67 C 143.75 156.90 143.16 157.87 143.39 158.84 C 143.63 159.80 144.60 160.40 145.56 160.16 Z M 146.57 159.92 L 147.67 159.62 C 148.63 159.37 149.20 158.39 148.95 157.43 C 148.69 156.47 147.71 155.89 146.75 156.15 L 145.65 156.44 C 144.69 156.69 144.12 157.68 144.37 158.64 C 144.63 159.60 145.61 160.17 146.57 159.92 Z M 147.69 159.62 L 148.63 159.36 C 149.59 159.09 150.15 158.10 149.88 157.14 C 149.62 156.19 148.63 155.63 147.67 155.89 L 146.73 156.15 C 145.77 156.42 145.21 157.41 145.48 158.37 C 145.74 159.33 146.73 159.88 147.69 159.62 Z M 148.64 159.35 L 149.62 159.08 C 150.57 158.80 151.12 157.81 150.85 156.85 C 150.58 155.90 149.59 155.35 148.63 155.62 L 147.66 155.90 C 146.70 156.17 146.15 157.16 146.42 158.12 C 146.69 159.07 147.69 159.63 148.64 159.35 Z M 149.62 159.07 L 150.63 158.78 C 151.59 158.50 152.13 157.51 151.86 156.55 C 151.58 155.60 150.58 155.05 149.63 155.33 L 148.62 155.62 C 147.67 155.90 147.12 156.89 147.40 157.85 C 147.67 158.80 148.67 159.35 149.62 159.07 Z M 150.64 158.78 L 151.65 158.48 C 152.60 158.20 153.14 157.21 152.86 156.25 C 152.59 155.30 151.59 154.76 150.63 155.04 L 149.63 155.33 C 148.67 155.61 148.13 156.61 148.41 157.56 C 148.69 158.51 149.69 159.06 150.64 158.78 Z M 151.65 158.48 L 152.62 158.19 C 153.58 157.91 154.12 156.91 153.84 155.96 C 153.56 155.01 152.56 154.47 151.61 154.75 L 150.63 155.04 C 149.68 155.32 149.14 156.32 149.42 157.27 C 149.70 158.22 150.70 158.76 151.65 158.48 Z M 152.63 158.19 L 153.53 157.92 C 154.48 157.64 155.03 156.64 154.74 155.69 C 154.46 154.74 153.46 154.20 152.51 154.48 L 151.60 154.75 C 150.65 155.03 150.11 156.03 150.39 156.98 C 150.68 157.93 151.68 158.47 152.63 158.19 Z M 153.54 157.92 L 154.67 157.58 C 155.61 157.29 156.15 156.30 155.87 155.35 C 155.59 154.40 154.59 153.86 153.64 154.15 L 152.51 154.48 C 151.56 154.77 151.02 155.77 151.31 156.71 C 151.59 157.66 152.59 158.20 153.54 157.92 Z M 154.66 157.57 L 155.69 157.26 C 156.63 156.98 157.17 155.99 156.88 155.04 C 156.60 154.10 155.61 153.57 154.67 153.85 L 153.64 154.15 C 152.70 154.44 152.16 155.43 152.45 156.37 C 152.73 157.32 153.72 157.85 154.66 157.57 Z M 155.68 157.25 L 156.56 156.99 C 157.50 156.72 158.03 155.73 157.75 154.79 C 157.48 153.85 156.49 153.32 155.55 153.60 L 154.67 153.86 C 153.74 154.13 153.20 155.12 153.48 156.06 C 153.76 157.00 154.74 157.53 155.68 157.25 Z M 156.54 156.99 L 157.34 156.76 C 158.28 156.49 158.82 155.51 158.55 154.58 C 158.28 153.64 157.30 153.10 156.36 153.37 L 155.57 153.60 C 154.63 153.87 154.09 154.85 154.36 155.79 C 154.63 156.72 155.61 157.26 156.54 156.99 Z M 157.32 156.75 L 158.26 156.49 C 159.19 156.23 159.73 155.27 159.47 154.34 C 159.21 153.40 158.25 152.86 157.32 153.12 L 156.38 153.38 C 155.45 153.64 154.91 154.60 155.17 155.53 C 155.42 156.47 156.39 157.01 157.32 156.75 Z M 158.24 156.49 L 159.20 156.23 C 160.13 155.98 160.68 155.02 160.43 154.09 C 160.18 153.16 159.22 152.61 158.29 152.86 L 157.33 153.12 C 156.40 153.37 155.85 154.33 156.10 155.26 C 156.35 156.19 157.31 156.74 158.24 156.49 Z M 159.19 156.22 L 160.17 155.96 C 161.09 155.71 161.64 154.76 161.39 153.84 C 161.15 152.91 160.20 152.36 159.27 152.61 L 158.30 152.87 C 157.37 153.12 156.82 154.07 157.07 155.00 C 157.32 155.92 158.27 156.47 159.19 156.22 Z M 160.17 155.95 L 161.02 155.72 C 161.94 155.47 162.48 154.52 162.23 153.60 C 161.98 152.68 161.03 152.14 160.11 152.39 L 159.27 152.62 C 158.35 152.87 157.80 153.82 158.05 154.74 C 158.30 155.66 159.25 156.20 160.17 155.95 Z M 161.02 155.71 L 161.85 155.48 C 162.76 155.23 163.30 154.29 163.05 153.37 C 162.80 152.46 161.85 151.92 160.94 152.17 L 160.11 152.40 C 159.19 152.65 158.66 153.60 158.91 154.51 C 159.16 155.43 160.11 155.96 161.02 155.71 Z M 161.85 155.47 L 162.79 155.21 C 163.70 154.96 164.23 154.02 163.98 153.11 C 163.73 152.20 162.78 151.67 161.87 151.92 L 160.94 152.18 C 160.03 152.43 159.49 153.38 159.75 154.28 C 160.00 155.19 160.94 155.73 161.85 155.47 Z M 162.79 155.21 L 163.89 154.90 C 164.80 154.65 165.33 153.71 165.08 152.81 C 164.83 151.90 163.89 151.37 162.98 151.62 L 161.88 151.93 C 160.97 152.18 160.44 153.12 160.69 154.02 C 160.94 154.93 161.88 155.46 162.79 155.21 Z M 163.89 154.89 L 164.94 154.60 C 165.84 154.35 166.37 153.42 166.12 152.52 C 165.87 151.62 164.94 151.09 164.04 151.34 L 162.99 151.63 C 162.09 151.88 161.56 152.81 161.81 153.71 C 162.06 154.61 162.99 155.14 163.89 154.89 Z M 164.94 154.60 L 165.86 154.34 C 166.76 154.09 167.28 153.16 167.04 152.26 C 166.79 151.37 165.86 150.84 164.96 151.09 L 164.04 151.34 C 163.14 151.59 162.61 152.52 162.86 153.42 C 163.11 154.32 164.04 154.84 164.94 154.60 Z M 165.86 154.34 L 166.83 154.07 C 167.73 153.82 168.26 152.89 168.01 152.00 C 167.76 151.10 166.83 150.57 165.94 150.82 L 164.96 151.09 C 164.06 151.34 163.54 152.27 163.78 153.16 C 164.03 154.06 164.96 154.59 165.86 154.34 Z M 166.83 154.07 L 167.84 153.79 C 168.73 153.54 169.26 152.62 169.01 151.72 C 168.77 150.83 167.84 150.30 166.95 150.55 L 165.94 150.82 C 165.05 151.07 164.52 152.00 164.76 152.89 C 165.01 153.79 165.94 154.31 166.83 154.07 Z M 167.84 153.79 L 168.85 153.51 C 169.74 153.27 170.27 152.34 170.02 151.45 C 169.78 150.56 168.86 150.03 167.97 150.27 L 166.95 150.55 C 166.06 150.79 165.53 151.72 165.78 152.61 C 166.02 153.50 166.94 154.03 167.84 153.79 Z M 168.85 153.51 L 169.84 153.24 C 170.73 153.00 171.26 152.08 171.01 151.19 C 170.77 150.29 169.85 149.77 168.96 150.01 L 167.97 150.28 C 167.08 150.52 166.55 151.44 166.79 152.33 C 167.03 153.22 167.95 153.75 168.85 153.51 Z M 169.83 153.24 L 170.77 152.98 C 171.66 152.74 172.19 151.83 171.95 150.94 C 171.71 150.05 170.80 149.52 169.91 149.76 L 168.97 150.01 C 168.07 150.25 167.55 151.17 167.79 152.06 C 168.03 152.95 168.94 153.47 169.83 153.24 Z M 170.77 152.98 L 171.88 152.68 C 172.77 152.45 173.30 151.54 173.07 150.65 C 172.83 149.76 171.92 149.23 171.03 149.46 L 169.91 149.76 C 169.03 150.00 168.50 150.91 168.73 151.80 C 168.97 152.68 169.88 153.21 170.77 152.98 Z M 171.88 152.68 L 172.91 152.41 C 173.80 152.18 174.33 151.27 174.10 150.39 C 173.87 149.50 172.96 148.97 172.07 149.20 L 171.04 149.47 C 170.15 149.70 169.62 150.61 169.85 151.49 C 170.08 152.38 170.99 152.91 171.88 152.68 Z M 172.90 152.41 L 173.85 152.16 C 174.73 151.94 175.26 151.04 175.04 150.15 C 174.81 149.27 173.91 148.74 173.03 148.96 L 172.08 149.20 C 171.20 149.43 170.66 150.33 170.89 151.21 C 171.12 152.10 172.02 152.63 172.90 152.41 Z M 173.84 152.16 L 174.73 151.94 C 175.61 151.71 176.15 150.82 175.92 149.94 C 175.70 149.05 174.81 148.52 173.92 148.74 L 173.03 148.97 C 172.15 149.19 171.62 150.08 171.84 150.97 C 172.06 151.85 172.96 152.38 173.84 152.16 Z M 174.72 151.93 L 175.58 151.72 C 176.46 151.50 177.00 150.60 176.78 149.73 C 176.56 148.85 175.67 148.31 174.79 148.53 L 173.93 148.75 C 173.05 148.97 172.52 149.86 172.74 150.74 C 172.96 151.62 173.85 152.15 174.72 151.93 Z M 175.58 151.71 L 175.64 151.70 C 176.52 151.48 177.05 150.59 176.83 149.71 C 176.61 148.83 175.73 148.30 174.85 148.52 L 174.79 148.54 C 173.91 148.76 173.38 149.64 173.60 150.52 C 173.82 151.40 174.71 151.93 175.58 151.71 Z"
      fill="black"
      fill-rule="nonzero" /><path d="M 130.84 192.76 L 131.68 192.50 C 132.67 192.20 133.22 191.15 132.92 190.16 C 132.61 189.17 131.56 188.61 130.57 188.92 L 129.74 189.18 C 128.75 189.48 128.19 190.53 128.50 191.52 C 128.80 192.51 129.85 193.06 130.84 192.76 Z M 131.65 192.50 L 132.53 192.24 C 133.52 191.95 134.08 190.91 133.79 189.92 C 133.50 188.94 132.46 188.37 131.47 188.66 L 130.60 188.92 C 129.61 189.21 129.04 190.25 129.34 191.24 C 129.63 192.23 130.66 192.79 131.65 192.50 Z M 132.49 192.25 L 133.44 191.99 C 134.43 191.72 135.02 190.70 134.75 189.71 C 134.48 188.72 133.46 188.13 132.46 188.40 L 131.51 188.66 C 130.52 188.93 129.94 189.95 130.21 190.94 C 130.48 191.93 131.50 192.52 132.49 192.25 Z M 133.39 191.99 L 134.45 191.74 C 135.45 191.49 136.06 190.49 135.82 189.50 C 135.57 188.50 134.57 187.89 133.58 188.14 L 132.51 188.39 C 131.52 188.64 130.91 189.64 131.15 190.63 C 131.39 191.63 132.39 192.24 133.39 191.99 Z M 134.40 191.74 L 135.49 191.51 C 136.48 191.30 137.12 190.31 136.90 189.32 C 136.69 188.32 135.71 187.68 134.71 187.90 L 133.63 188.13 C 132.63 188.34 131.99 189.33 132.21 190.32 C 132.42 191.32 133.40 191.96 134.40 191.74 Z M 135.45 191.52 L 136.42 191.33 C 137.42 191.14 138.08 190.17 137.88 189.17 C 137.69 188.16 136.72 187.51 135.72 187.70 L 134.75 187.89 C 133.74 188.08 133.09 189.05 133.28 190.05 C 133.48 191.06 134.45 191.71 135.45 191.52 Z M 136.40 191.34 L 137.41 191.16 C 138.42 190.98 139.09 190.01 138.91 189.01 C 138.73 188.00 137.77 187.33 136.76 187.51 L 135.74 187.69 C 134.73 187.87 134.06 188.84 134.24 189.84 C 134.42 190.85 135.39 191.52 136.40 191.34 Z M 137.40 191.17 L 138.43 190.99 C 139.45 190.82 140.13 189.86 139.96 188.85 C 139.79 187.83 138.83 187.15 137.81 187.32 L 136.78 187.50 C 135.76 187.67 135.08 188.63 135.25 189.64 C 135.43 190.66 136.38 191.34 137.40 191.17 Z M 138.42 191.00 L 139.44 190.83 C 140.46 190.67 141.15 189.71 140.99 188.70 C 140.82 187.68 139.87 186.99 138.85 187.15 L 137.83 187.32 C 136.81 187.48 136.12 188.44 136.28 189.45 C 136.45 190.47 137.40 191.16 138.42 191.00 Z M 139.43 190.84 L 140.41 190.69 C 141.43 190.53 142.13 189.58 141.97 188.56 C 141.82 187.54 140.86 186.84 139.84 186.99 L 138.86 187.15 C 137.84 187.30 137.14 188.26 137.30 189.28 C 137.46 190.30 138.41 191.00 139.43 190.84 Z M 140.40 190.70 L 141.33 190.56 C 142.35 190.41 143.06 189.45 142.91 188.43 C 142.75 187.40 141.80 186.70 140.78 186.85 L 139.85 186.99 C 138.83 187.14 138.12 188.09 138.27 189.12 C 138.43 190.14 139.38 190.85 140.40 190.70 Z M 141.32 190.56 L 142.49 190.40 C 143.52 190.25 144.23 189.30 144.09 188.27 C 143.94 187.25 142.99 186.53 141.97 186.68 L 140.79 186.85 C 139.76 186.99 139.05 187.94 139.19 188.97 C 139.34 189.99 140.29 190.71 141.32 190.56 Z M 142.48 190.40 L 143.48 190.27 C 144.51 190.13 145.24 189.19 145.10 188.16 C 144.96 187.13 144.02 186.41 142.99 186.54 L 141.98 186.67 C 140.96 186.81 140.23 187.75 140.37 188.78 C 140.50 189.81 141.45 190.53 142.48 190.40 Z M 143.46 190.27 L 144.37 190.16 C 145.40 190.03 146.14 189.10 146.01 188.07 C 145.89 187.04 144.95 186.30 143.92 186.43 L 143.01 186.54 C 141.98 186.66 141.25 187.60 141.37 188.63 C 141.50 189.66 142.43 190.39 143.46 190.27 Z M 144.35 190.16 L 145.23 190.06 C 146.26 189.95 147.00 189.02 146.89 187.99 C 146.77 186.96 145.84 186.21 144.81 186.33 L 143.94 186.42 C 142.90 186.54 142.16 187.47 142.28 188.50 C 142.39 189.53 143.32 190.28 144.35 190.16 Z M 145.22 190.07 L 146.14 189.97 C 147.18 189.86 147.93 188.93 147.82 187.90 C 147.71 186.87 146.78 186.12 145.75 186.23 L 144.82 186.33 C 143.79 186.43 143.04 187.36 143.15 188.39 C 143.26 189.43 144.18 190.18 145.22 190.07 Z M 146.14 189.97 L 147.11 189.87 C 148.14 189.76 148.90 188.84 148.79 187.81 C 148.68 186.77 147.76 186.02 146.73 186.13 L 145.75 186.23 C 144.72 186.33 143.97 187.26 144.07 188.29 C 144.18 189.32 145.10 190.08 146.14 189.97 Z M 147.11 189.87 L 148.12 189.77 C 149.15 189.66 149.91 188.74 149.80 187.70 C 149.70 186.67 148.77 185.92 147.74 186.02 L 146.73 186.13 C 145.69 186.23 144.94 187.16 145.05 188.19 C 145.15 189.22 146.08 189.98 147.11 189.87 Z M 148.13 189.77 L 149.17 189.66 C 150.20 189.55 150.95 188.62 150.84 187.59 C 150.73 186.56 149.81 185.81 148.77 185.91 L 147.73 186.02 C 146.70 186.13 145.95 187.06 146.06 188.09 C 146.16 189.13 147.09 189.88 148.13 189.77 Z M 149.17 189.66 L 150.14 189.55 C 151.17 189.44 151.92 188.51 151.81 187.48 C 151.69 186.44 150.76 185.70 149.73 185.81 L 148.77 185.91 C 147.73 186.03 146.99 186.96 147.10 187.99 C 147.21 189.02 148.14 189.77 149.17 189.66 Z M 150.14 189.55 L 151.10 189.45 C 152.14 189.33 152.88 188.40 152.77 187.37 C 152.65 186.33 151.72 185.59 150.69 185.70 L 149.73 185.81 C 148.69 185.92 147.95 186.85 148.06 187.89 C 148.18 188.92 149.11 189.67 150.14 189.55 Z M 151.10 189.45 L 152.09 189.34 C 153.12 189.23 153.87 188.30 153.76 187.26 C 153.64 186.23 152.72 185.48 151.68 185.60 L 150.69 185.70 C 149.66 185.82 148.91 186.74 149.02 187.78 C 149.14 188.81 150.06 189.56 151.10 189.45 Z M 152.08 189.34 L 153.10 189.23 C 154.14 189.13 154.89 188.20 154.78 187.17 C 154.67 186.13 153.75 185.38 152.71 185.49 L 151.69 185.59 C 150.66 185.70 149.90 186.63 150.01 187.66 C 150.12 188.70 151.04 189.45 152.08 189.34 Z M 153.09 189.24 L 154.12 189.14 C 155.16 189.04 155.92 188.12 155.82 187.08 C 155.72 186.05 154.80 185.29 153.76 185.39 L 152.73 185.49 C 151.69 185.59 150.93 186.51 151.03 187.54 C 151.13 188.58 152.05 189.33 153.09 189.24 Z M 154.11 189.14 L 155.05 189.05 C 156.09 188.96 156.85 188.05 156.76 187.01 C 156.67 185.98 155.76 185.21 154.72 185.30 L 153.78 185.39 C 152.74 185.48 151.98 186.39 152.07 187.43 C 152.16 188.46 153.07 189.23 154.11 189.14 Z M 155.04 189.05 L 156.01 188.97 C 157.05 188.89 157.82 187.98 157.73 186.95 C 157.65 185.91 156.74 185.14 155.71 185.23 L 154.74 185.31 C 153.70 185.39 152.93 186.30 153.02 187.33 C 153.10 188.36 154.00 189.13 155.04 189.05 Z M 156.00 188.97 L 157.00 188.90 C 158.03 188.82 158.81 187.92 158.73 186.89 C 158.65 185.85 157.75 185.08 156.72 185.16 L 155.72 185.23 C 154.69 185.31 153.91 186.21 153.99 187.24 C 154.07 188.27 154.97 189.05 156.00 188.97 Z M 156.99 188.89 L 158.01 188.83 C 159.04 188.76 159.82 187.86 159.75 186.83 C 159.68 185.80 158.79 185.02 157.76 185.09 L 156.73 185.16 C 155.70 185.23 154.92 186.12 154.99 187.15 C 155.06 188.18 155.96 188.96 156.99 188.89 Z M 158.00 188.82 L 159.04 188.76 C 160.08 188.69 160.86 187.81 160.80 186.78 C 160.73 185.74 159.84 184.96 158.81 185.03 L 157.77 185.09 C 156.74 185.15 155.95 186.04 156.02 187.07 C 156.08 188.10 156.97 188.89 158.00 188.82 Z M 159.04 188.76 L 160.01 188.70 C 161.04 188.64 161.83 187.76 161.77 186.73 C 161.71 185.70 160.83 184.91 159.80 184.97 L 158.82 185.03 C 157.79 185.09 157.01 185.97 157.06 187.00 C 157.12 188.03 158.01 188.81 159.04 188.76 Z M 160.01 188.70 L 160.98 188.65 C 162.00 188.59 162.79 187.71 162.74 186.69 C 162.68 185.66 161.81 184.87 160.78 184.92 L 159.81 184.97 C 158.78 185.03 157.99 185.91 158.05 186.93 C 158.10 187.96 158.98 188.75 160.01 188.70 Z M 160.97 188.64 L 161.96 188.59 C 162.98 188.54 163.77 187.67 163.72 186.64 C 163.67 185.61 162.80 184.82 161.77 184.88 L 160.78 184.93 C 159.76 184.98 158.97 185.85 159.02 186.88 C 159.07 187.91 159.95 188.70 160.97 188.64 Z M 161.96 188.59 L 162.96 188.54 C 163.98 188.49 164.77 187.62 164.72 186.59 C 164.67 185.57 163.80 184.78 162.77 184.83 L 161.77 184.88 C 160.75 184.93 159.96 185.80 160.01 186.83 C 160.06 187.85 160.93 188.64 161.96 188.59 Z M 162.96 188.54 L 163.98 188.49 C 165.00 188.43 165.79 187.56 165.74 186.54 C 165.69 185.52 164.82 184.73 163.79 184.78 L 162.77 184.83 C 161.75 184.88 160.96 185.75 161.01 186.78 C 161.06 187.80 161.94 188.59 162.96 188.54 Z M 163.98 188.48 L 165.02 188.43 C 166.04 188.38 166.82 187.51 166.77 186.49 C 166.72 185.46 165.85 184.68 164.83 184.73 L 163.79 184.78 C 162.77 184.84 161.98 185.71 162.04 186.73 C 162.09 187.75 162.96 188.53 163.98 188.48 Z M 165.02 188.43 L 166.01 188.37 C 167.03 188.32 167.81 187.45 167.75 186.43 C 167.70 185.41 166.83 184.63 165.81 184.68 L 164.82 184.74 C 163.81 184.79 163.02 185.66 163.08 186.68 C 163.13 187.70 164.00 188.48 165.02 188.43 Z M 166.01 188.37 L 166.99 188.31 C 168.01 188.26 168.79 187.39 168.73 186.37 C 168.68 185.36 167.81 184.58 166.79 184.63 L 165.81 184.69 C 164.79 184.74 164.01 185.61 164.07 186.63 C 164.13 187.64 164.99 188.42 166.01 188.37 Z M 166.99 188.31 L 167.99 188.25 C 169.00 188.20 169.78 187.33 169.72 186.32 C 169.67 185.31 168.80 184.53 167.79 184.59 L 166.79 184.64 C 165.78 184.70 165.00 185.56 165.06 186.57 C 165.11 187.59 165.98 188.36 166.99 188.31 Z M 167.98 188.25 L 168.99 188.20 C 170.00 188.14 170.77 187.28 170.72 186.27 C 170.67 185.26 169.80 184.48 168.79 184.54 L 167.79 184.59 C 166.78 184.64 166.00 185.51 166.06 186.52 C 166.11 187.53 166.97 188.30 167.98 188.25 Z M 168.98 188.19 L 169.99 188.14 C 171.00 188.09 171.77 187.23 171.72 186.22 C 171.67 185.22 170.81 184.44 169.81 184.49 L 168.80 184.54 C 167.79 184.59 167.01 185.45 167.07 186.46 C 167.12 187.47 167.97 188.24 168.98 188.19 Z M 169.98 188.14 L 171.00 188.09 C 172.00 188.04 172.78 187.19 172.73 186.18 C 172.69 185.18 171.83 184.40 170.83 184.45 L 169.81 184.50 C 168.81 184.54 168.03 185.40 168.08 186.40 C 168.13 187.41 168.98 188.18 169.98 188.14 Z M 170.99 188.08 L 172.00 188.04 C 173.00 188.00 173.78 187.15 173.74 186.15 C 173.70 185.15 172.85 184.37 171.85 184.41 L 170.84 184.45 C 169.84 184.50 169.06 185.34 169.10 186.34 C 169.14 187.35 169.99 188.12 170.99 188.08 Z M 171.99 188.04 L 172.98 188.00 C 173.98 187.96 174.76 187.13 174.73 186.13 C 174.69 185.13 173.85 184.35 172.85 184.38 L 171.86 184.42 C 170.86 184.45 170.08 185.29 170.11 186.29 C 170.15 187.29 170.99 188.07 171.99 188.04 Z M 172.98 187.99 L 173.97 187.96 C 174.97 187.93 175.75 187.10 175.72 186.10 C 175.69 185.11 174.86 184.33 173.86 184.36 L 172.86 184.39 C 171.87 184.42 171.09 185.25 171.12 186.25 C 171.15 187.24 171.98 188.03 172.98 187.99 Z M 173.97 187.96 L 174.97 187.93 C 175.96 187.90 176.74 187.07 176.71 186.08 C 176.68 185.09 175.86 184.31 174.86 184.33 L 173.87 184.36 C 172.87 184.39 172.09 185.22 172.12 186.21 C 172.15 187.20 172.98 187.99 173.97 187.96 Z M 174.96 187.92 L 175.96 187.90 C 176.95 187.87 177.73 187.05 177.70 186.06 C 177.68 185.07 176.85 184.29 175.87 184.31 L 174.87 184.34 C 173.88 184.37 173.10 185.19 173.12 186.18 C 173.15 187.17 173.97 187.95 174.96 187.92 Z M 175.96 187.89 L 176.96 187.86 C 177.95 187.84 178.73 187.02 178.70 186.03 C 178.67 185.04 177.85 184.27 176.87 184.29 L 175.87 184.32 C 174.88 184.35 174.10 185.17 174.13 186.15 C 174.16 187.14 174.98 187.92 175.96 187.89 Z M 176.96 187.86 L 177.97 187.83 C 178.95 187.80 179.72 186.98 179.70 186.00 C 179.67 185.02 178.85 184.24 177.87 184.27 L 176.87 184.30 C 175.88 184.33 175.11 185.14 175.14 186.13 C 175.16 187.11 175.98 187.88 176.96 187.86 Z M 177.97 187.82 L 179.00 187.79 C 179.98 187.76 180.74 186.94 180.72 185.97 C 180.69 184.99 179.87 184.22 178.89 184.25 L 177.87 184.28 C 176.89 184.31 176.12 185.12 176.15 186.10 C 176.18 187.08 176.99 187.85 177.97 187.82 Z M 179.00 187.78 L 180.04 187.75 C 181.01 187.72 181.77 186.90 181.74 185.93 C 181.71 184.95 180.90 184.19 179.92 184.22 L 178.89 184.26 C 177.91 184.29 177.15 185.10 177.18 186.08 C 177.21 187.05 178.03 187.81 179.00 187.78 Z M 180.04 187.74 L 181.07 187.70 C 182.04 187.67 182.79 186.86 182.76 185.89 C 182.73 184.92 181.92 184.16 180.95 184.20 L 179.92 184.23 C 178.95 184.27 178.19 185.08 178.23 186.05 C 178.26 187.01 179.07 187.77 180.04 187.74 Z M 181.07 187.69 L 182.08 187.66 C 183.05 187.62 183.80 186.82 183.77 185.85 C 183.73 184.89 182.92 184.14 181.96 184.17 L 180.95 184.21 C 179.98 184.24 179.23 185.05 179.26 186.01 C 179.30 186.98 180.11 187.73 181.07 187.69 Z M 182.08 187.65 L 183.08 187.61 C 184.03 187.58 184.78 186.77 184.75 185.82 C 184.71 184.86 183.91 184.11 182.95 184.14 L 181.96 184.18 C 181.00 184.21 180.25 185.02 180.29 185.98 C 180.32 186.93 181.13 187.68 182.08 187.65 Z M 183.07 187.60 L 184.04 187.57 C 184.99 187.54 185.74 186.74 185.70 185.78 C 185.67 184.83 184.87 184.08 183.92 184.12 L 182.95 184.15 C 182.00 184.19 181.25 184.99 181.29 185.94 C 181.32 186.89 182.12 187.64 183.07 187.60 Z M 184.04 187.56 L 185.00 187.53 C 185.94 187.50 186.69 186.70 186.65 185.75 C 186.62 184.80 185.83 184.06 184.88 184.09 L 183.92 184.13 C 182.97 184.16 182.23 184.96 182.26 185.90 C 182.29 186.85 183.09 187.59 184.04 187.56 Z M 184.99 187.52 L 186.09 187.49 C 187.03 187.45 187.77 186.67 187.74 185.72 C 187.71 184.78 186.92 184.04 185.98 184.07 L 184.88 184.10 C 183.94 184.13 183.20 184.92 183.23 185.87 C 183.26 186.81 184.05 187.55 184.99 187.52 Z M 186.08 187.48 L 187.12 187.45 C 188.06 187.42 188.80 186.64 188.77 185.70 C 188.75 184.76 187.96 184.02 187.02 184.05 L 185.98 184.08 C 185.04 184.10 184.30 184.89 184.33 185.83 C 184.36 186.77 185.14 187.50 186.08 187.48 Z M 187.12 187.44 L 188.11 187.41 C 189.04 187.39 189.78 186.61 189.76 185.68 C 189.73 184.74 188.96 184.00 188.02 184.03 L 187.03 184.05 C 186.09 184.08 185.36 184.85 185.38 185.79 C 185.40 186.72 186.18 187.46 187.12 187.44 Z M 188.10 187.41 L 189.05 187.39 C 189.98 187.37 190.72 186.60 190.70 185.66 C 190.68 184.73 189.90 183.99 188.97 184.01 L 188.03 184.04 C 187.10 184.06 186.36 184.83 186.38 185.76 C 186.40 186.69 187.17 187.43 188.10 187.41 Z M 189.04 187.38 L 189.95 187.36 C 190.88 187.35 191.61 186.58 191.60 185.66 C 191.58 184.73 190.82 183.99 189.89 184.01 L 188.98 184.02 C 188.06 184.04 187.32 184.80 187.33 185.73 C 187.35 186.66 188.11 187.39 189.04 187.38 Z M 189.94 187.36 L 191.00 187.34 C 191.93 187.33 192.67 186.58 192.66 185.65 C 192.65 184.73 191.89 183.99 190.97 184.00 L 189.90 184.01 C 188.98 184.02 188.24 184.78 188.25 185.70 C 188.26 186.63 189.02 187.37 189.94 187.36 Z M 191.00 187.34 L 192.03 187.33 C 192.95 187.32 193.69 186.57 193.68 185.65 C 193.67 184.74 192.92 183.99 192.00 184.00 L 190.97 184.01 C 190.05 184.01 189.31 184.76 189.32 185.68 C 189.33 186.60 190.08 187.34 191.00 187.34 Z M 192.02 187.33 L 193.00 187.32 C 193.92 187.32 194.66 186.57 194.66 185.66 C 194.66 184.74 193.91 184.00 193.00 184.00 L 192.01 184.01 C 191.09 184.01 190.35 184.75 190.36 185.67 C 190.36 186.59 191.10 187.33 192.02 187.33 Z M 193.00 187.32 L 193.94 187.32 C 194.86 187.32 195.60 186.57 195.59 185.66 C 195.59 184.75 194.85 184.01 193.94 184.01 L 193.00 184.01 C 192.09 184.01 191.35 184.75 191.35 185.66 C 191.35 186.58 192.09 187.32 193.00 187.32 Z M 193.94 187.31 L 194.91 187.31 C 195.82 187.31 196.56 186.57 196.56 185.66 C 196.56 184.75 195.82 184.01 194.91 184.01 L 193.94 184.01 C 193.03 184.01 192.29 184.75 192.29 185.66 C 192.29 186.57 193.03 187.31 193.94 187.31 Z M 194.91 187.31 L 195.89 187.31 C 196.80 187.31 197.53 186.57 197.53 185.66 C 197.53 184.75 196.80 184.02 195.89 184.02 L 194.91 184.02 C 194.00 184.02 193.27 184.75 193.27 185.66 C 193.27 186.57 194.00 187.31 194.91 187.31 Z M 195.89 187.30 L 196.87 187.30 C 197.78 187.30 198.52 186.57 198.52 185.66 C 198.52 184.76 197.78 184.02 196.87 184.02 L 195.89 184.02 C 194.98 184.02 194.25 184.76 194.25 185.66 C 194.25 186.57 194.98 187.30 195.89 187.30 Z M 196.87 187.30 L 197.91 187.30 C 198.81 187.30 199.55 186.57 199.55 185.66 C 199.55 184.76 198.81 184.02 197.91 184.02 L 196.87 184.02 C 195.97 184.02 195.23 184.76 195.23 185.66 C 195.23 186.57 195.97 187.30 196.87 187.30 Z M 197.91 187.30 L 198.85 187.30 C 199.76 187.30 200.49 186.57 200.49 185.66 C 200.49 184.76 199.76 184.02 198.85 184.02 L 197.91 184.02 C 197.00 184.02 196.27 184.76 196.27 185.66 C 196.27 186.57 197.00 187.30 197.91 187.30 Z M 198.85 187.30 L 199.83 187.30 C 200.73 187.30 201.47 186.57 201.47 185.66 C 201.47 184.76 200.73 184.03 199.83 184.03 L 198.85 184.03 C 197.95 184.03 197.22 184.76 197.22 185.66 C 197.22 186.57 197.95 187.30 198.85 187.30 Z M 199.83 187.30 L 200.85 187.30 C 201.75 187.30 202.48 186.57 202.48 185.66 C 202.48 184.76 201.75 184.03 200.85 184.03 L 199.83 184.03 C 198.93 184.03 198.19 184.76 198.19 185.66 C 198.19 186.57 198.93 187.30 199.83 187.30 Z M 200.85 187.30 L 201.88 187.30 C 202.79 187.30 203.52 186.57 203.52 185.66 C 203.52 184.76 202.79 184.03 201.88 184.03 L 200.85 184.03 C 199.94 184.03 199.21 184.76 199.21 185.66 C 199.21 186.57 199.94 187.30 200.85 187.30 Z M 201.88 187.30 L 202.57 187.30 C 203.47 187.30 204.20 186.57 204.20 185.66 C 204.20 184.76 203.47 184.03 202.57 184.03 L 201.88 184.03 C 200.98 184.03 200.25 184.76 200.25 185.66 C 200.25 186.57 200.98 187.30 201.88 187.30 Z"
      fill="black"
      fill-rule="nonzero" /></svg>