<svg xmlns="http://www.w3.org/2000/svg" width="300" height="300" viewBox="0 0 300 300">
<path d="M 111.49 136.29 L 112.55 136.43 C 113.49 136.56 114.35 135.90 114.48 134.96 C 114.61 134.02 113.95 133.15 113.01 133.02 L 111.95 132.88 C 111.01 132.76 110.14 133.42 110.02 134.36 C 109.89 135.30 110.55 136.17 111.49 136.29 Z M 112.54 136.43 L 113.58 136.58 C 114.52 136.71 115.39 136.05 115.52 135.11 C 115.66 134.17 115.00 133.30 114.06 133.17 L 113.01 133.02 C 112.07 132.89 111.20 133.55 111.07 134.49 C 110.94 135.43 111.60 136.30 112.54 136.43 Z M 113.57 136.58 L 114.58 136.73 C 115.52 136.87 116.40 136.22 116.54 135.28 C 116.68 134.33 116.03 133.46 115.09 133.32 L 114.07 133.17 C 113.13 133.03 112.25 133.68 112.11 134.62 C 111.97 135.56 112.62 136.44 113.57 136.58 Z M 114.56 136.73 L 115.53 136.89 C 116.47 137.04 117.36 136.40 117.52 135.46 C 117.67 134.52 117.03 133.63 116.09 133.48 L 115.11 133.32 C 114.17 133.16 113.28 133.80 113.13 134.75 C 112.98 135.69 113.61 136.58 114.56 136.73 Z M 115.49 136.89 L 116.42 137.06 C 117.36 137.23 118.26 136.61 118.44 135.67 C 118.61 134.73 117.99 133.83 117.05 133.65 L 116.13 133.48 C 115.19 133.31 114.28 133.93 114.11 134.87 C 113.93 135.81 114.55 136.71 115.49 136.89 Z M 116.36 137.04 L 117.32 137.25 C 118.25 137.45 119.17 136.87 119.38 135.93 C 119.58 135.00 118.99 134.08 118.06 133.88 L 117.10 133.67 C 116.17 133.46 115.25 134.05 115.05 134.98 C 114.84 135.92 115.43 136.84 116.36 137.04 Z M 117.25 137.21 L 118.29 137.48 C 119.20 137.73 120.13 137.19 120.37 136.28 C 120.62 135.37 120.08 134.44 119.17 134.20 L 118.13 133.92 C 117.22 133.68 116.29 134.22 116.05 135.13 C 115.81 136.03 116.35 136.96 117.25 137.21 Z M 118.24 137.42 L 119.18 137.72 C 120.06 138.00 120.99 137.51 121.26 136.64 C 121.54 135.76 121.05 134.83 120.18 134.56 L 119.23 134.26 C 118.36 133.99 117.43 134.47 117.15 135.34 C 116.88 136.22 117.36 137.15 118.24 137.42 Z M 119.15 137.67 L 120.03 137.98 C 120.88 138.27 121.80 137.83 122.09 136.99 C 122.39 136.14 121.95 135.22 121.10 134.93 L 120.21 134.62 C 119.37 134.32 118.45 134.76 118.16 135.61 C 117.86 136.45 118.30 137.37 119.15 137.67 Z M 120.02 137.93 L 120.72 138.19 C 121.54 138.49 122.45 138.07 122.75 137.25 C 123.05 136.44 122.63 135.53 121.81 135.23 L 121.11 134.97 C 120.30 134.67 119.39 135.09 119.09 135.91 C 118.79 136.72 119.21 137.63 120.02 137.93 Z"
      fill="black"
      fill-rule="nonzero" /><path d="M 110.65 154.92 L 111.61 155.16 C 112.51 155.39 113.42 154.85 113.65 153.95 C 113.88 153.05 113.33 152.14 112.44 151.91 L 111.47 151.67 C 110.57 151.44 109.66 151.99 109.43 152.88 C 109.21 153.78 109.75 154.69 110.65 154.92 Z M 111.69 155.18 L 112.66 155.38 C 113.57 155.57 114.45 154.99 114.64 154.08 C 114.83 153.18 114.25 152.29 113.34 152.10 L 112.37 151.90 C 111.46 151.71 110.58 152.29 110.39 153.20 C 110.20 154.10 110.78 154.99 111.69 155.18 Z M 112.80 155.40 L 113.80 155.52 C 114.72 155.63 115.55 154.98 115.66 154.06 C 115.77 153.14 115.11 152.31 114.19 152.20 L 113.20 152.08 C 112.28 151.97 111.45 152.62 111.34 153.54 C 111.23 154.46 111.89 155.29 112.80 155.40 Z M 113.99 155.53 L 114.90 155.53 C 115.82 155.53 116.57 154.79 116.57 153.87 C 116.57 152.95 115.83 152.20 114.91 152.19 L 114.00 152.19 C 113.08 152.19 112.33 152.93 112.33 153.85 C 112.33 154.78 113.07 155.52 113.99 155.53 Z M 115.09 155.50 L 116.02 155.40 C 116.93 155.30 117.58 154.48 117.48 153.57 C 117.38 152.67 116.56 152.01 115.66 152.12 L 114.72 152.22 C 113.81 152.32 113.16 153.14 113.26 154.05 C 113.36 154.95 114.18 155.60 115.09 155.50 Z M 116.18 155.36 L 117.19 155.14 C 118.07 154.95 118.64 154.08 118.45 153.20 C 118.26 152.32 117.39 151.75 116.51 151.94 L 115.50 152.16 C 114.62 152.35 114.05 153.22 114.24 154.10 C 114.43 154.98 115.30 155.54 116.18 155.36 Z M 117.31 155.09 L 118.35 154.79 C 119.21 154.53 119.70 153.63 119.45 152.78 C 119.19 151.92 118.29 151.43 117.44 151.68 L 116.39 151.99 C 115.54 152.24 115.05 153.14 115.30 154.00 C 115.55 154.86 116.45 155.35 117.31 155.09 Z M 118.42 154.75 L 119.28 154.45 C 120.12 154.16 120.56 153.24 120.27 152.41 C 119.98 151.57 119.06 151.13 118.23 151.42 L 117.37 151.72 C 116.53 152.01 116.09 152.92 116.38 153.76 C 116.67 154.60 117.58 155.04 118.42 154.75 Z M 119.32 154.42 L 120.24 154.08 C 121.06 153.76 121.47 152.84 121.16 152.02 C 120.85 151.20 119.93 150.78 119.10 151.10 L 118.19 151.44 C 117.37 151.76 116.95 152.68 117.26 153.50 C 117.58 154.32 118.50 154.74 119.32 154.42 Z M 120.26 154.06 L 121.21 153.68 C 122.02 153.35 122.42 152.43 122.09 151.61 C 121.76 150.80 120.84 150.41 120.03 150.73 L 119.08 151.12 C 118.27 151.44 117.87 152.36 118.20 153.18 C 118.52 153.99 119.45 154.38 120.26 154.06 Z M 121.22 153.66 L 122.20 153.26 C 123.00 152.92 123.38 152.00 123.05 151.20 C 122.71 150.39 121.79 150.01 120.99 150.35 L 120.02 150.75 C 119.21 151.08 118.83 152.00 119.16 152.81 C 119.50 153.61 120.42 153.99 121.22 153.66 Z M 122.20 153.24 L 123.07 152.88 C 123.87 152.54 124.24 151.63 123.91 150.83 C 123.57 150.03 122.65 149.66 121.86 149.99 L 120.99 150.36 C 120.19 150.69 119.81 151.61 120.15 152.41 C 120.48 153.20 121.40 153.58 122.20 153.24 Z"
      fill="black"
      fill-rule="nonzero" /><path d="M 114.81 171.61 L 114.65 172.56 C 114.51 173.42 115.10 174.23 115.96 174.37 C 116.82 174.51 117.63 173.93 117.77 173.07 L 117.92 172.12 C 118.06 171.26 117.47 170.45 116.62 170.31 C 115.76 170.17 114.95 170.75 114.81 171.61 Z M 114.62 172.54 L 114.45 173.50 C 114.30 174.38 114.89 175.21 115.76 175.37 C 116.64 175.52 117.47 174.93 117.63 174.06 L 117.79 173.09 C 117.95 172.22 117.36 171.38 116.49 171.23 C 115.61 171.08 114.78 171.66 114.62 172.54 Z M 114.43 173.46 L 114.23 174.46 C 114.05 175.35 114.63 176.22 115.52 176.39 C 116.41 176.57 117.27 175.99 117.45 175.10 L 117.65 174.10 C 117.83 173.21 117.25 172.35 116.36 172.17 C 115.47 171.99 114.61 172.57 114.43 173.46 Z M 114.22 174.41 L 113.94 175.60 C 113.73 176.50 114.29 177.39 115.18 177.60 C 116.08 177.81 116.98 177.25 117.18 176.36 L 117.46 175.16 C 117.67 174.26 117.11 173.37 116.22 173.16 C 115.32 172.95 114.43 173.51 114.22 174.41 Z M 113.93 175.59 L 113.64 176.80 C 113.42 177.70 113.98 178.61 114.88 178.83 C 115.78 179.04 116.68 178.49 116.90 177.59 L 117.19 176.37 C 117.41 175.47 116.85 174.57 115.95 174.35 C 115.05 174.13 114.15 174.69 113.93 175.59 Z M 113.60 177.00 L 113.53 177.66 C 113.42 178.58 114.08 179.41 115.00 179.52 C 115.92 179.63 116.75 178.97 116.86 178.05 L 116.94 177.39 C 117.04 176.47 116.38 175.63 115.46 175.53 C 114.54 175.42 113.71 176.08 113.60 177.00 Z M 116.18 179.21 L 116.42 179.04 C 117.17 178.50 117.33 177.45 116.79 176.70 C 116.25 175.95 115.20 175.78 114.45 176.32 L 114.21 176.50 C 113.46 177.04 113.29 178.09 113.84 178.84 C 114.38 179.59 115.43 179.75 116.18 179.21 Z M 116.83 178.59 L 117.30 177.87 C 117.80 177.10 117.58 176.07 116.81 175.57 C 116.04 175.06 115.01 175.28 114.51 176.05 L 114.04 176.77 C 113.53 177.54 113.75 178.57 114.52 179.08 C 115.29 179.58 116.33 179.36 116.83 178.59 Z M 117.32 177.82 L 117.96 176.76 C 118.44 175.98 118.18 174.96 117.40 174.48 C 116.62 174.01 115.60 174.26 115.13 175.04 L 114.48 176.10 C 114.01 176.89 114.26 177.91 115.04 178.38 C 115.83 178.85 116.85 178.60 117.32 177.82 Z M 117.94 176.77 L 118.65 175.63 C 119.13 174.85 118.89 173.84 118.12 173.36 C 117.34 172.88 116.33 173.12 115.85 173.89 L 115.14 175.03 C 114.67 175.81 114.91 176.82 115.68 177.30 C 116.45 177.78 117.47 177.54 117.94 176.77 Z M 118.62 175.65 L 119.19 174.77 C 119.69 174.01 119.47 173.00 118.72 172.51 C 117.97 172.02 116.95 172.23 116.46 172.98 L 115.88 173.87 C 115.39 174.62 115.60 175.63 116.36 176.13 C 117.11 176.62 118.12 176.41 118.62 175.65 Z M 119.16 174.78 L 119.75 173.92 C 120.25 173.19 120.06 172.18 119.32 171.68 C 118.59 171.18 117.58 171.37 117.08 172.10 L 116.49 172.97 C 115.99 173.70 116.18 174.71 116.92 175.21 C 117.66 175.71 118.66 175.52 119.16 174.78 Z M 119.72 173.93 L 120.30 173.11 C 120.81 172.38 120.63 171.39 119.91 170.88 C 119.19 170.37 118.19 170.55 117.68 171.27 L 117.10 172.10 C 116.60 172.82 116.77 173.82 117.50 174.32 C 118.22 174.83 119.22 174.66 119.72 173.93 Z M 120.28 173.11 L 120.83 172.34 C 121.34 171.63 121.18 170.64 120.47 170.13 C 119.76 169.62 118.77 169.78 118.26 170.49 L 117.70 171.27 C 117.20 171.98 117.36 172.97 118.07 173.48 C 118.78 173.99 119.77 173.82 120.28 173.11 Z M 120.82 172.34 L 121.40 171.54 C 121.91 170.84 121.75 169.85 121.05 169.34 C 120.34 168.84 119.36 168.99 118.85 169.69 L 118.27 170.49 C 117.77 171.20 117.92 172.18 118.62 172.69 C 119.33 173.20 120.31 173.04 120.82 172.34 Z M 121.39 171.54 L 122.01 170.68 C 122.52 169.99 122.37 169.01 121.67 168.50 C 120.97 167.99 120.00 168.14 119.49 168.84 L 118.86 169.69 C 118.35 170.39 118.51 171.37 119.20 171.88 C 119.90 172.39 120.88 172.24 121.39 171.54 Z M 122.01 170.69 L 122.58 169.91 C 123.09 169.22 122.95 168.24 122.25 167.73 C 121.56 167.21 120.58 167.36 120.06 168.06 L 119.49 168.83 C 118.98 169.53 119.13 170.51 119.82 171.02 C 120.52 171.53 121.50 171.38 122.01 170.69 Z M 122.58 169.92 L 123.13 169.17 C 123.65 168.48 123.50 167.50 122.81 166.98 C 122.12 166.47 121.14 166.61 120.63 167.30 L 120.07 168.05 C 119.56 168.74 119.70 169.72 120.39 170.24 C 121.08 170.75 122.06 170.61 122.58 169.92 Z M 123.13 169.17 L 123.71 168.40 C 124.23 167.71 124.09 166.74 123.40 166.22 C 122.71 165.70 121.73 165.84 121.21 166.53 L 120.63 167.30 C 120.11 167.99 120.25 168.97 120.94 169.48 C 121.63 170.00 122.61 169.86 123.13 169.17 Z M 123.71 168.41 L 124.30 167.61 C 124.82 166.92 124.69 165.94 124.00 165.43 C 123.31 164.91 122.33 165.04 121.81 165.73 L 121.21 166.53 C 120.69 167.21 120.83 168.19 121.52 168.71 C 122.21 169.23 123.19 169.09 123.71 168.41 Z M 124.31 167.61 L 124.91 166.80 C 125.43 166.11 125.29 165.13 124.61 164.61 C 123.92 164.10 122.94 164.23 122.42 164.92 L 121.81 165.73 C 121.29 166.42 121.43 167.40 122.12 167.92 C 122.81 168.44 123.79 168.30 124.31 167.61 Z M 124.92 166.79 L 125.52 165.98 C 126.04 165.29 125.89 164.32 125.20 163.80 C 124.51 163.29 123.53 163.43 123.02 164.12 L 122.42 164.93 C 121.90 165.62 122.04 166.60 122.73 167.11 C 123.43 167.63 124.40 167.49 124.92 166.79 Z M 125.53 165.98 L 126.11 165.18 C 126.63 164.49 126.48 163.51 125.78 163.00 C 125.09 162.49 124.11 162.64 123.60 163.33 L 123.01 164.13 C 122.50 164.82 122.65 165.80 123.34 166.31 C 124.04 166.82 125.02 166.67 125.53 165.98 Z M 126.12 165.18 L 126.71 164.37 C 127.22 163.68 127.07 162.70 126.37 162.19 C 125.68 161.68 124.70 161.83 124.19 162.53 L 123.60 163.33 C 123.09 164.03 123.24 165.01 123.93 165.51 C 124.63 166.02 125.61 165.87 126.12 165.18 Z M 126.71 164.37 L 127.31 163.55 C 127.81 162.86 127.66 161.88 126.97 161.37 C 126.27 160.86 125.30 161.02 124.79 161.71 L 124.19 162.53 C 123.68 163.22 123.83 164.20 124.53 164.71 C 125.22 165.22 126.20 165.07 126.71 164.37 Z M 127.30 163.56 L 127.89 162.75 C 128.40 162.06 128.25 161.08 127.56 160.57 C 126.86 160.06 125.89 160.21 125.38 160.91 L 124.79 161.71 C 124.28 162.40 124.43 163.38 125.12 163.89 C 125.82 164.40 126.79 164.25 127.30 163.56 Z M 127.89 162.75 L 128.48 161.95 C 128.99 161.26 128.85 160.28 128.15 159.77 C 127.46 159.26 126.48 159.41 125.97 160.10 L 125.38 160.90 C 124.87 161.60 125.02 162.58 125.71 163.09 C 126.40 163.60 127.38 163.45 127.89 162.75 Z M 128.48 161.95 L 129.08 161.15 C 129.59 160.45 129.44 159.47 128.75 158.96 C 128.06 158.45 127.08 158.60 126.57 159.29 L 125.97 160.10 C 125.46 160.79 125.61 161.77 126.30 162.28 C 126.99 162.79 127.97 162.65 128.48 161.95 Z M 129.08 161.15 L 129.68 160.34 C 130.19 159.64 130.04 158.67 129.35 158.15 C 128.66 157.64 127.68 157.79 127.17 158.48 L 126.57 159.29 C 126.05 159.98 126.20 160.96 126.90 161.47 C 127.59 161.99 128.57 161.84 129.08 161.15 Z"
      fill="black"
      fill-rule="nonzero" /><path d="M 146.04 116.79 L 146.83 117.45 C 147.55 118.05 148.62 117.96 149.23 117.24 C 149.83 116.52 149.73 115.44 149.01 114.84 L 148.22 114.18 C 147.50 113.58 146.43 113.67 145.83 114.39 C 145.22 115.11 145.32 116.19 146.04 116.79 Z M 146.93 117.53 L 147.75 118.11 C 148.51 118.66 149.58 118.48 150.12 117.72 C 150.67 116.95 150.49 115.89 149.73 115.34 L 148.91 114.76 C 148.14 114.22 147.08 114.39 146.54 115.16 C 145.99 115.92 146.17 116.98 146.93 117.53 Z M 147.99 118.25 L 148.86 118.68 C 149.70 119.10 150.72 118.75 151.14 117.91 C 151.55 117.06 151.20 116.05 150.36 115.63 L 149.49 115.20 C 148.65 114.79 147.63 115.13 147.21 115.98 C 146.80 116.82 147.14 117.84 147.99 118.25 Z M 149.26 118.82 L 150.18 119.02 C 151.10 119.21 152.00 118.62 152.19 117.71 C 152.39 116.79 151.80 115.88 150.88 115.69 L 149.96 115.49 C 149.04 115.30 148.14 115.88 147.95 116.80 C 147.75 117.72 148.34 118.62 149.26 118.82 Z M 150.58 119.05 L 151.54 119.02 C 152.48 119.00 153.21 118.21 153.19 117.28 C 153.16 116.34 152.38 115.60 151.44 115.63 L 150.48 115.66 C 149.55 115.68 148.81 116.46 148.83 117.40 C 148.86 118.34 149.64 119.08 150.58 119.05 Z M 151.80 118.99 L 152.80 118.81 C 153.72 118.63 154.32 117.75 154.15 116.83 C 153.98 115.91 153.09 115.30 152.17 115.47 L 151.18 115.66 C 150.26 115.83 149.65 116.72 149.82 117.64 C 150.00 118.56 150.88 119.16 151.80 118.99 Z M 152.95 118.76 L 153.96 118.48 C 154.85 118.22 155.37 117.28 155.11 116.38 C 154.85 115.48 153.91 114.97 153.02 115.22 L 152.02 115.51 C 151.12 115.77 150.60 116.71 150.86 117.61 C 151.12 118.51 152.06 119.02 152.95 118.76 Z M 154.04 118.44 L 155.01 118.11 C 155.89 117.80 156.35 116.84 156.05 115.96 C 155.74 115.08 154.78 114.62 153.90 114.92 L 152.93 115.26 C 152.06 115.56 151.59 116.52 151.89 117.40 C 152.20 118.28 153.16 118.75 154.04 118.44 Z M 155.06 118.08 L 155.99 117.72 C 156.86 117.39 157.29 116.42 156.96 115.55 C 156.62 114.69 155.65 114.26 154.79 114.59 L 153.85 114.95 C 152.99 115.28 152.56 116.25 152.89 117.12 C 153.22 117.98 154.19 118.41 155.06 118.08 Z M 156.03 117.69 L 156.95 117.31 C 157.80 116.95 158.20 115.98 157.84 115.13 C 157.49 114.28 156.51 113.88 155.67 114.24 L 154.75 114.62 C 153.90 114.97 153.50 115.95 153.86 116.80 C 154.21 117.65 155.19 118.04 156.03 117.69 Z M 156.98 117.28 L 157.89 116.88 C 158.72 116.50 159.10 115.53 158.72 114.69 C 158.35 113.86 157.37 113.48 156.54 113.86 L 155.63 114.26 C 154.80 114.63 154.43 115.61 154.80 116.45 C 155.17 117.28 156.15 117.65 156.98 117.28 Z M 157.91 116.86 L 158.76 116.46 C 159.58 116.08 159.93 115.10 159.55 114.27 C 159.16 113.45 158.18 113.10 157.36 113.48 L 156.52 113.88 C 155.69 114.26 155.34 115.24 155.72 116.06 C 156.11 116.89 157.09 117.24 157.91 116.86 Z M 158.77 116.45 L 159.62 116.04 C 160.44 115.65 160.79 114.67 160.39 113.85 C 160.00 113.03 159.02 112.69 158.20 113.08 L 157.35 113.49 C 156.53 113.88 156.18 114.86 156.58 115.68 C 156.97 116.50 157.95 116.84 158.77 116.45 Z M 159.63 116.04 L 160.53 115.60 C 161.35 115.21 161.69 114.22 161.29 113.41 C 160.90 112.59 159.91 112.25 159.10 112.65 L 158.20 113.08 C 157.38 113.48 157.04 114.46 157.44 115.28 C 157.83 116.09 158.81 116.43 159.63 116.04 Z M 160.53 115.60 L 161.50 115.13 C 162.31 114.74 162.65 113.76 162.26 112.94 C 161.87 112.13 160.89 111.79 160.07 112.18 L 159.10 112.65 C 158.29 113.04 157.95 114.02 158.34 114.84 C 158.73 115.65 159.71 115.99 160.53 115.60 Z M 161.49 115.13 L 162.41 114.70 C 163.23 114.31 163.57 113.33 163.19 112.51 C 162.80 111.70 161.82 111.35 161.00 111.74 L 160.08 112.18 C 159.27 112.57 158.92 113.54 159.31 114.36 C 159.69 115.18 160.67 115.52 161.49 115.13 Z M 162.40 114.70 L 163.32 114.27 C 164.14 113.89 164.49 112.91 164.11 112.10 C 163.73 111.28 162.75 110.92 161.94 111.31 L 161.02 111.74 C 160.20 112.12 159.84 113.09 160.23 113.91 C 160.61 114.73 161.58 115.08 162.40 114.70 Z M 163.31 114.27 L 164.25 113.85 C 165.07 113.47 165.43 112.50 165.05 111.68 C 164.68 110.86 163.71 110.50 162.89 110.87 L 161.95 111.30 C 161.13 111.68 160.77 112.65 161.14 113.47 C 161.51 114.29 162.48 114.65 163.31 114.27 Z M 164.23 113.85 L 165.16 113.44 C 165.99 113.07 166.36 112.11 165.99 111.28 C 165.63 110.46 164.66 110.09 163.84 110.45 L 162.91 110.86 C 162.08 111.23 161.71 112.20 162.07 113.02 C 162.44 113.85 163.40 114.22 164.23 113.85 Z M 165.14 113.45 L 166.03 113.07 C 166.86 112.72 167.25 111.76 166.90 110.93 C 166.54 110.10 165.59 109.71 164.76 110.06 L 163.86 110.44 C 163.03 110.80 162.64 111.76 163.00 112.59 C 163.35 113.42 164.31 113.80 165.14 113.45 Z M 166.00 113.09 L 167.01 112.68 C 167.85 112.35 168.26 111.40 167.93 110.56 C 167.59 109.72 166.64 109.31 165.80 109.64 L 164.79 110.05 C 163.95 110.38 163.54 111.33 163.87 112.17 C 164.21 113.01 165.16 113.42 166.00 113.09 Z M 166.96 112.71 L 167.95 112.36 C 168.81 112.05 169.25 111.11 168.95 110.26 C 168.64 109.40 167.71 108.96 166.85 109.26 L 165.86 109.62 C 165.00 109.92 164.56 110.86 164.86 111.71 C 165.17 112.57 166.11 113.01 166.96 112.71 Z M 167.88 112.39 L 168.79 112.11 C 169.67 111.85 170.16 110.93 169.89 110.05 C 169.63 109.18 168.71 108.69 167.83 108.95 L 166.92 109.23 C 166.05 109.49 165.56 110.42 165.82 111.29 C 166.09 112.16 167.01 112.65 167.88 112.39 Z M 168.71 112.14 L 169.57 111.93 C 170.46 111.72 171.00 110.82 170.79 109.93 C 170.57 109.04 169.67 108.49 168.78 108.71 L 167.92 108.92 C 167.03 109.14 166.49 110.03 166.70 110.92 C 166.92 111.81 167.82 112.36 168.71 112.14 Z M 169.44 111.98 L 170.53 111.80 C 171.44 111.66 172.06 110.80 171.92 109.89 C 171.77 108.97 170.91 108.35 170.00 108.49 L 168.91 108.67 C 168.00 108.81 167.38 109.67 167.52 110.59 C 167.67 111.50 168.53 112.12 169.44 111.98 Z M 170.21 111.85 L 171.20 111.88 C 172.14 111.91 172.93 111.17 172.95 110.23 C 172.98 109.29 172.24 108.50 171.30 108.48 L 170.31 108.45 C 169.37 108.42 168.59 109.16 168.56 110.10 C 168.53 111.04 169.27 111.82 170.21 111.85 Z M 170.55 111.76 L 171.33 112.11 C 172.20 112.50 173.22 112.10 173.61 111.23 C 174.00 110.36 173.61 109.33 172.73 108.95 L 171.96 108.60 C 171.08 108.21 170.06 108.60 169.67 109.47 C 169.28 110.35 169.67 111.37 170.55 111.76 Z M 170.62 111.57 L 171.13 112.26 C 171.71 113.04 172.80 113.20 173.58 112.63 C 174.36 112.05 174.52 110.96 173.95 110.18 L 173.44 109.49 C 172.87 108.71 171.77 108.54 170.99 109.12 C 170.21 109.69 170.05 110.79 170.62 111.57 Z M 170.87 111.79 L 171.20 112.75 C 171.52 113.68 172.52 114.17 173.44 113.85 C 174.37 113.54 174.86 112.53 174.54 111.61 L 174.21 110.65 C 173.90 109.72 172.89 109.23 171.97 109.55 C 171.05 109.86 170.55 110.87 170.87 111.79 Z M 171.12 112.53 L 171.34 113.62 C 171.53 114.59 172.47 115.21 173.43 115.02 C 174.40 114.83 175.03 113.89 174.83 112.93 L 174.62 111.84 C 174.43 110.87 173.49 110.25 172.52 110.44 C 171.56 110.63 170.93 111.56 171.12 112.53 Z M 171.32 113.54 L 171.46 114.51 C 171.61 115.49 172.52 116.16 173.49 116.02 C 174.47 115.87 175.14 114.96 175.00 113.99 L 174.86 113.01 C 174.71 112.04 173.80 111.36 172.83 111.51 C 171.85 111.65 171.17 112.56 171.32 113.54 Z M 171.45 114.46 L 171.57 115.46 C 171.69 116.45 172.58 117.15 173.57 117.03 C 174.55 116.91 175.25 116.02 175.13 115.04 L 175.01 114.03 C 174.89 113.05 174.00 112.35 173.02 112.47 C 172.04 112.59 171.34 113.48 171.45 114.46 Z M 171.57 115.43 L 171.67 116.44 C 171.77 117.43 172.65 118.14 173.64 118.04 C 174.62 117.94 175.34 117.06 175.24 116.08 L 175.14 115.07 C 175.04 114.08 174.16 113.37 173.17 113.47 C 172.18 113.57 171.47 114.45 171.57 115.43 Z M 171.67 116.42 L 171.75 117.36 C 171.84 118.35 172.72 119.08 173.70 118.99 C 174.69 118.90 175.42 118.02 175.33 117.04 L 175.24 116.10 C 175.15 115.11 174.28 114.38 173.29 114.47 C 172.30 114.56 171.58 115.44 171.67 116.42 Z M 171.75 117.36 L 171.83 118.25 C 171.92 119.24 172.80 119.97 173.78 119.88 C 174.77 119.79 175.50 118.92 175.41 117.93 L 175.33 117.04 C 175.24 116.05 174.37 115.32 173.38 115.41 C 172.39 115.50 171.66 116.37 171.75 117.36 Z M 171.83 118.27 L 171.93 119.23 C 172.03 120.21 172.91 120.93 173.90 120.83 C 174.89 120.73 175.60 119.85 175.51 118.86 L 175.41 117.91 C 175.31 116.92 174.43 116.20 173.44 116.30 C 172.45 116.40 171.73 117.29 171.83 118.27 Z M 171.93 119.26 L 172.06 120.33 C 172.18 121.31 173.07 122.02 174.06 121.90 C 175.04 121.78 175.75 120.89 175.63 119.90 L 175.50 118.83 C 175.38 117.85 174.49 117.14 173.51 117.26 C 172.52 117.38 171.82 118.27 171.93 119.26 Z M 172.06 120.36 L 172.21 121.42 C 172.35 122.40 173.25 123.09 174.24 122.96 C 175.22 122.82 175.91 121.91 175.77 120.93 L 175.62 119.87 C 175.49 118.89 174.58 118.20 173.60 118.33 C 172.62 118.47 171.93 119.38 172.06 120.36 Z M 172.21 121.45 L 172.35 122.36 C 172.50 123.34 173.42 124.01 174.40 123.86 C 175.38 123.72 176.05 122.80 175.91 121.82 L 175.77 120.91 C 175.62 119.93 174.70 119.25 173.72 119.40 C 172.74 119.55 172.07 120.47 172.21 121.45 Z M 172.36 122.37 L 172.51 123.35 C 172.67 124.33 173.59 124.99 174.57 124.83 C 175.55 124.68 176.22 123.76 176.06 122.78 L 175.90 121.80 C 175.75 120.82 174.82 120.16 173.84 120.31 C 172.86 120.47 172.20 121.39 172.36 122.37 Z M 172.51 123.36 L 172.68 124.37 C 172.85 125.35 173.77 126.01 174.75 125.85 C 175.73 125.68 176.39 124.76 176.23 123.78 L 176.06 122.76 C 175.89 121.79 174.97 121.13 173.99 121.29 C 173.01 121.45 172.35 122.38 172.51 123.36 Z M 172.69 124.38 L 172.86 125.41 C 173.03 126.39 173.96 127.05 174.94 126.88 C 175.92 126.71 176.57 125.78 176.40 124.80 L 176.23 123.77 C 176.06 122.79 175.13 122.14 174.15 122.30 C 173.17 122.47 172.52 123.40 172.69 124.38 Z M 172.87 125.42 L 173.05 126.45 C 173.22 127.43 174.16 128.08 175.13 127.91 C 176.11 127.73 176.76 126.80 176.59 125.82 L 176.40 124.79 C 176.23 123.82 175.30 123.17 174.32 123.34 C 173.34 123.51 172.69 124.45 172.87 125.42 Z M 173.05 126.46 L 173.24 127.48 C 173.41 128.45 174.35 129.10 175.32 128.92 C 176.30 128.75 176.95 127.81 176.77 126.84 L 176.59 125.82 C 176.41 124.84 175.47 124.19 174.50 124.37 C 173.52 124.55 172.87 125.48 173.05 126.46 Z M 173.24 127.48 L 173.42 128.49 C 173.61 129.47 174.54 130.11 175.52 129.93 C 176.49 129.75 177.14 128.81 176.96 127.84 L 176.77 126.83 C 176.59 125.85 175.65 125.21 174.67 125.39 C 173.70 125.57 173.06 126.51 173.24 127.48 Z M 173.43 128.50 L 173.61 129.48 C 173.80 130.46 174.74 131.10 175.71 130.91 C 176.69 130.73 177.33 129.79 177.14 128.81 L 176.95 127.83 C 176.77 126.86 175.83 126.22 174.86 126.40 C 173.88 126.59 173.24 127.53 173.43 128.50 Z M 173.62 129.49 L 173.81 130.46 C 174.00 131.43 174.94 132.07 175.91 131.88 C 176.88 131.69 177.52 130.75 177.33 129.77 L 177.14 128.81 C 176.95 127.83 176.01 127.20 175.03 127.39 C 174.06 127.58 173.43 128.52 173.62 129.49 Z M 173.81 130.47 L 174.00 131.43 C 174.20 132.40 175.14 133.03 176.11 132.84 C 177.08 132.64 177.71 131.70 177.52 130.73 L 177.32 129.76 C 177.13 128.79 176.18 128.16 175.21 128.36 C 174.24 128.55 173.61 129.50 173.81 130.47 Z M 174.00 131.44 L 174.21 132.41 C 174.40 133.38 175.35 134.00 176.32 133.80 C 177.29 133.60 177.91 132.66 177.71 131.69 L 177.51 130.72 C 177.31 129.75 176.37 129.13 175.40 129.33 C 174.43 129.53 173.80 130.47 174.00 131.44 Z M 174.21 132.42 L 174.42 133.41 C 174.62 134.38 175.57 135.00 176.54 134.79 C 177.51 134.59 178.13 133.64 177.92 132.67 L 177.71 131.68 C 177.50 130.71 176.55 130.09 175.59 130.30 C 174.62 130.50 174.00 131.45 174.21 132.42 Z M 174.42 133.42 L 174.65 134.46 C 174.86 135.42 175.81 136.03 176.77 135.82 C 177.74 135.61 178.35 134.66 178.14 133.70 L 177.92 132.66 C 177.71 131.70 176.76 131.08 175.79 131.29 C 174.82 131.50 174.21 132.46 174.42 133.42 Z M 174.65 134.46 L 174.88 135.49 C 175.09 136.46 176.04 137.07 177.01 136.85 C 177.97 136.64 178.58 135.69 178.37 134.72 L 178.14 133.69 C 177.93 132.72 176.97 132.11 176.01 132.33 C 175.04 132.54 174.43 133.50 174.65 134.46 Z M 174.88 135.50 L 175.10 136.51 C 175.32 137.47 176.28 138.08 177.24 137.86 C 178.20 137.65 178.81 136.69 178.59 135.73 L 178.37 134.72 C 178.15 133.75 177.20 133.15 176.23 133.36 C 175.27 133.58 174.66 134.53 174.88 135.50 Z M 175.10 136.51 L 175.32 137.48 C 175.54 138.44 176.50 139.04 177.46 138.83 C 178.42 138.61 179.03 137.65 178.81 136.69 L 178.59 135.72 C 178.38 134.76 177.42 134.15 176.46 134.37 C 175.49 134.59 174.89 135.55 175.10 136.51 Z M 175.32 137.48 L 175.53 138.38 C 175.74 139.34 176.70 139.94 177.67 139.73 C 178.63 139.51 179.23 138.55 179.01 137.59 L 178.81 136.69 C 178.59 135.72 177.64 135.12 176.67 135.34 C 175.71 135.56 175.11 136.51 175.32 137.48 Z M 175.53 138.37 L 175.76 139.40 C 175.97 140.36 176.93 140.97 177.89 140.75 C 178.86 140.53 179.46 139.58 179.25 138.61 L 179.01 137.59 C 178.80 136.63 177.84 136.02 176.88 136.24 C 175.91 136.45 175.31 137.41 175.53 138.37 Z M 175.76 139.39 L 175.99 140.46 C 176.21 141.43 177.16 142.04 178.13 141.82 C 179.09 141.61 179.70 140.65 179.48 139.69 L 179.25 138.62 C 179.03 137.65 178.08 137.05 177.11 137.26 C 176.15 137.47 175.54 138.43 175.76 139.39 Z M 175.99 140.46 L 176.20 141.38 C 176.41 142.35 177.36 142.96 178.33 142.75 C 179.29 142.54 179.90 141.58 179.69 140.62 L 179.49 139.69 C 179.27 138.73 178.32 138.12 177.36 138.33 C 176.39 138.54 175.78 139.50 175.99 140.46 Z M 176.20 141.38 L 176.38 142.23 C 176.59 143.19 177.54 143.80 178.51 143.59 C 179.47 143.38 180.08 142.43 179.87 141.47 L 179.69 140.62 C 179.48 139.66 178.53 139.04 177.56 139.25 C 176.60 139.46 175.99 140.42 176.20 141.38 Z M 176.38 142.23 L 176.58 143.17 C 176.79 144.13 177.75 144.75 178.71 144.54 C 179.68 144.33 180.29 143.37 180.08 142.41 L 179.87 141.47 C 179.66 140.50 178.71 139.89 177.75 140.10 C 176.78 140.31 176.17 141.26 176.38 142.23 Z M 176.58 143.17 L 176.79 144.14 C 177.00 145.11 177.96 145.72 178.92 145.51 C 179.89 145.30 180.50 144.35 180.29 143.38 L 180.08 142.41 C 179.87 141.44 178.92 140.83 177.95 141.04 C 176.99 141.25 176.37 142.20 176.58 143.17 Z M 176.79 144.14 L 177.00 145.12 C 177.21 146.09 178.16 146.70 179.13 146.49 C 180.09 146.29 180.71 145.33 180.50 144.37 L 180.29 143.39 C 180.08 142.42 179.13 141.81 178.17 142.01 C 177.20 142.22 176.59 143.17 176.79 144.14 Z M 177.00 145.12 L 177.21 146.09 C 177.42 147.06 178.37 147.68 179.33 147.47 C 180.30 147.27 180.91 146.32 180.71 145.35 L 180.50 144.37 C 180.30 143.41 179.35 142.79 178.38 143.00 C 177.42 143.20 176.80 144.15 177.00 145.12 Z M 177.21 146.08 L 177.41 147.06 C 177.61 148.03 178.56 148.65 179.53 148.45 C 180.49 148.25 181.11 147.30 180.91 146.34 L 180.71 145.36 C 180.51 144.39 179.56 143.77 178.60 143.97 C 177.63 144.17 177.01 145.12 177.21 146.08 Z M 177.41 147.05 L 177.60 148.03 C 177.80 149.00 178.74 149.63 179.71 149.44 C 180.68 149.25 181.31 148.30 181.11 147.33 L 180.92 146.35 C 180.72 145.38 179.78 144.75 178.81 144.95 C 177.84 145.14 177.22 146.08 177.41 147.05 Z M 177.60 148.02 L 177.79 149.00 C 177.97 149.97 178.90 150.61 179.88 150.43 C 180.85 150.25 181.49 149.31 181.30 148.34 L 181.12 147.35 C 180.93 146.38 180.00 145.74 179.03 145.93 C 178.06 146.11 177.42 147.04 177.60 148.02 Z M 177.78 148.98 L 177.96 149.97 C 178.13 150.94 179.06 151.59 180.03 151.42 C 181.01 151.24 181.65 150.32 181.48 149.34 L 181.31 148.36 C 181.13 147.38 180.21 146.74 179.23 146.91 C 178.26 147.08 177.61 148.01 177.78 148.98 Z M 177.95 149.96 L 178.12 150.94 C 178.29 151.92 179.21 152.57 180.19 152.41 C 181.16 152.24 181.82 151.31 181.65 150.34 L 181.48 149.36 C 181.32 148.38 180.39 147.72 179.42 147.89 C 178.44 148.06 177.79 148.98 177.95 149.96 Z M 178.12 150.94 L 178.29 151.92 C 178.45 152.89 179.37 153.55 180.35 153.39 C 181.32 153.23 181.98 152.30 181.82 151.33 L 181.65 150.35 C 181.49 149.37 180.57 148.71 179.59 148.87 C 178.62 149.04 177.96 149.96 178.12 150.94 Z M 178.28 151.92 L 178.45 152.89 C 178.61 153.86 179.53 154.52 180.51 154.36 C 181.48 154.19 182.14 153.27 181.98 152.30 L 181.82 151.33 C 181.65 150.35 180.73 149.69 179.76 149.86 C 178.78 150.02 178.12 150.94 178.28 151.92 Z M 178.45 152.89 L 178.61 153.87 C 178.78 154.85 179.70 155.50 180.68 155.34 C 181.65 155.17 182.31 154.25 182.15 153.27 L 181.98 152.29 C 181.81 151.32 180.89 150.66 179.91 150.82 C 178.94 150.99 178.28 151.91 178.45 152.89 Z M 178.61 153.88 L 178.79 154.89 C 178.96 155.86 179.89 156.51 180.86 156.34 C 181.83 156.18 182.49 155.25 182.32 154.27 L 182.14 153.27 C 181.98 152.29 181.05 151.64 180.07 151.81 C 179.10 151.98 178.45 152.90 178.61 153.88 Z M 178.79 154.89 L 178.95 155.79 C 179.12 156.76 180.05 157.41 181.02 157.24 C 182.00 157.07 182.65 156.14 182.48 155.16 L 182.32 154.27 C 182.15 153.29 181.22 152.64 180.24 152.82 C 179.27 152.99 178.62 153.92 178.79 154.89 Z M 178.95 155.77 L 179.10 156.70 C 179.27 157.68 180.19 158.34 181.17 158.17 C 182.14 158.00 182.80 157.08 182.64 156.10 L 182.48 155.17 C 182.31 154.20 181.39 153.54 180.41 153.71 C 179.44 153.87 178.78 154.80 178.95 155.77 Z M 179.10 156.67 L 179.25 157.68 C 179.40 158.66 180.32 159.33 181.29 159.18 C 182.27 159.04 182.94 158.12 182.79 157.14 L 182.64 156.13 C 182.49 155.16 181.58 154.48 180.60 154.63 C 179.62 154.78 178.95 155.69 179.10 156.67 Z M 179.25 157.64 L 179.39 158.76 C 179.52 159.74 180.41 160.43 181.39 160.31 C 182.38 160.18 183.07 159.29 182.94 158.30 L 182.80 157.19 C 182.67 156.20 181.78 155.51 180.80 155.64 C 179.81 155.76 179.12 156.66 179.25 157.64 Z M 179.38 158.72 L 179.48 159.63 C 179.58 160.61 180.47 161.33 181.45 161.22 C 182.43 161.12 183.15 160.24 183.04 159.25 L 182.95 158.34 C 182.84 157.36 181.96 156.65 180.98 156.75 C 180.00 156.85 179.28 157.74 179.38 158.72 Z M 179.48 159.60 L 179.56 160.56 C 179.65 161.55 180.52 162.27 181.51 162.19 C 182.49 162.10 183.22 161.23 183.13 160.24 L 183.05 159.28 C 182.96 158.29 182.09 157.57 181.10 157.66 C 180.12 157.74 179.39 158.61 179.48 159.60 Z M 179.56 160.54 L 179.64 161.55 C 179.72 162.53 180.58 163.27 181.57 163.19 C 182.55 163.12 183.29 162.25 183.21 161.27 L 183.14 160.26 C 183.06 159.28 182.20 158.54 181.21 158.62 C 180.22 158.69 179.49 159.56 179.56 160.54 Z M 179.64 161.53 L 179.71 162.57 C 179.78 163.56 180.64 164.30 181.62 164.23 C 182.61 164.16 183.36 163.31 183.29 162.32 L 183.22 161.28 C 183.15 160.30 182.29 159.55 181.30 159.62 C 180.32 159.69 179.57 160.55 179.64 161.53 Z M 179.71 162.56 L 179.78 163.61 C 179.84 164.60 180.69 165.35 181.68 165.29 C 182.67 165.22 183.42 164.37 183.35 163.39 L 183.29 162.33 C 183.23 161.35 182.37 160.59 181.39 160.66 C 180.40 160.72 179.65 161.57 179.71 162.56 Z M 179.78 163.60 L 179.84 164.64 C 179.90 165.63 180.74 166.38 181.73 166.32 C 182.72 166.27 183.47 165.42 183.42 164.43 L 183.36 163.39 C 183.30 162.41 182.45 161.65 181.46 161.71 C 180.47 161.77 179.72 162.61 179.78 163.60 Z M 179.84 164.63 L 179.89 165.65 C 179.95 166.64 180.79 167.40 181.78 167.34 C 182.77 167.29 183.52 166.45 183.47 165.46 L 183.42 164.44 C 183.36 163.45 182.52 162.69 181.53 162.75 C 180.54 162.80 179.78 163.64 179.84 164.63 Z M 179.89 165.64 L 179.94 166.65 C 179.99 167.64 180.83 168.40 181.82 168.35 C 182.81 168.31 183.57 167.47 183.52 166.48 L 183.47 165.47 C 183.42 164.48 182.58 163.72 181.59 163.76 C 180.61 163.81 179.84 164.65 179.89 165.64 Z M 179.94 166.64 L 179.98 167.64 C 180.03 168.63 180.86 169.39 181.85 169.35 C 182.84 169.31 183.61 168.47 183.56 167.49 L 183.52 166.49 C 183.48 165.50 182.64 164.73 181.65 164.77 C 180.67 164.82 179.90 165.65 179.94 166.64 Z M 179.98 167.63 L 180.02 168.61 C 180.05 169.60 180.88 170.37 181.87 170.33 C 182.86 170.30 183.63 169.47 183.60 168.48 L 183.56 167.50 C 183.53 166.51 182.70 165.74 181.71 165.77 C 180.72 165.81 179.95 166.64 179.98 167.63 Z M 180.02 168.59 L 180.05 169.58 C 180.07 170.57 180.90 171.35 181.89 171.32 C 182.88 171.29 183.65 170.47 183.63 169.48 L 183.60 168.49 C 183.57 167.50 182.75 166.72 181.76 166.75 C 180.77 166.78 179.99 167.60 180.02 168.59 Z M 180.05 169.56 L 180.07 170.65 C 180.08 171.64 180.90 172.43 181.89 172.41 C 182.88 172.39 183.66 171.57 183.65 170.59 L 183.63 169.50 C 183.61 168.51 182.79 167.72 181.80 167.74 C 180.82 167.76 180.03 168.57 180.05 169.56 Z M 180.07 170.63 L 180.07 171.67 C 180.08 172.66 180.88 173.46 181.87 173.46 C 182.86 173.45 183.66 172.65 183.65 171.66 L 183.65 170.61 C 183.64 169.62 182.84 168.82 181.85 168.83 C 180.86 168.83 180.06 169.64 180.07 170.63 Z M 180.07 171.64 L 180.06 172.64 C 180.05 173.62 180.84 174.44 181.83 174.45 C 182.81 174.46 183.63 173.67 183.64 172.68 L 183.65 171.69 C 183.66 170.70 182.87 169.89 181.88 169.88 C 180.90 169.86 180.08 170.66 180.07 171.64 Z M 180.06 172.60 L 180.03 173.52 C 179.99 174.51 180.77 175.34 181.75 175.37 C 182.74 175.41 183.57 174.64 183.60 173.65 L 183.64 172.72 C 183.67 171.73 182.90 170.91 181.91 170.87 C 180.92 170.84 180.10 171.61 180.06 172.60 Z M 180.03 173.46 L 179.97 174.46 C 179.90 175.44 180.64 176.29 181.63 176.36 C 182.61 176.43 183.46 175.68 183.53 174.70 L 183.60 173.71 C 183.67 172.72 182.92 171.87 181.94 171.80 C 180.95 171.74 180.10 172.48 180.03 173.46 Z M 179.98 174.34 L 179.84 175.39 C 179.71 176.37 180.40 177.26 181.38 177.39 C 182.35 177.52 183.25 176.83 183.38 175.86 L 183.52 174.81 C 183.65 173.83 182.96 172.94 181.98 172.81 C 181.01 172.68 180.11 173.37 179.98 174.34 Z M 179.89 175.19 L 179.66 176.12 C 179.42 177.07 180.00 178.04 180.95 178.28 C 181.90 178.51 182.87 177.93 183.11 176.98 L 183.34 176.05 C 183.57 175.10 182.99 174.14 182.04 173.90 C 181.09 173.66 180.12 174.24 179.89 175.19 Z M 179.75 175.86 L 179.39 176.71 C 179.01 177.61 179.43 178.65 180.33 179.03 C 181.23 179.41 182.27 178.99 182.65 178.09 L 183.01 177.24 C 183.39 176.34 182.97 175.30 182.07 174.92 C 181.17 174.54 180.13 174.96 179.75 175.86 Z M 179.55 176.42 L 179.00 177.26 C 178.46 178.07 178.69 179.17 179.50 179.70 C 180.31 180.24 181.41 180.02 181.94 179.20 L 182.50 178.37 C 183.03 177.55 182.81 176.46 182.00 175.92 C 181.18 175.39 180.09 175.61 179.55 176.42 Z M 179.21 177.01 L 178.51 177.73 C 177.84 178.42 177.86 179.54 178.55 180.21 C 179.25 180.89 180.36 180.87 181.03 180.17 L 181.73 179.45 C 182.41 178.76 182.39 177.65 181.69 176.97 C 181.00 176.30 179.89 176.31 179.21 177.01 Z M 178.78 177.52 L 177.96 178.08 C 177.17 178.63 176.97 179.72 177.52 180.51 C 178.07 181.30 179.16 181.50 179.95 180.95 L 180.77 180.39 C 181.56 179.84 181.76 178.75 181.21 177.96 C 180.66 177.16 179.57 176.97 178.78 177.52 Z M 178.29 177.92 L 177.38 178.30 C 176.50 178.67 176.08 179.68 176.45 180.57 C 176.82 181.45 177.83 181.86 178.71 181.49 L 179.63 181.11 C 180.51 180.74 180.92 179.73 180.55 178.85 C 180.18 177.97 179.17 177.55 178.29 177.92 Z M 177.71 178.23 L 176.74 178.42 C 175.82 178.61 175.22 179.51 175.40 180.43 C 175.59 181.35 176.49 181.95 177.41 181.76 L 178.38 181.57 C 179.30 181.38 179.90 180.49 179.72 179.56 C 179.53 178.64 178.63 178.04 177.71 178.23 Z M 177.04 178.42 L 176.02 178.44 C 175.10 178.46 174.36 179.23 174.39 180.15 C 174.41 181.08 175.17 181.81 176.10 181.79 L 177.11 181.77 C 178.04 181.75 178.77 180.98 178.75 180.06 C 178.73 179.13 177.96 178.40 177.04 178.42 Z M 176.27 178.48 L 175.35 178.36 C 174.45 178.25 173.62 178.89 173.51 179.80 C 173.40 180.70 174.04 181.53 174.94 181.64 L 175.86 181.75 C 176.76 181.87 177.59 181.23 177.70 180.32 C 177.81 179.41 177.17 178.59 176.27 178.48 Z M 175.55 178.42 L 174.62 178.18 C 173.74 177.96 172.86 178.49 172.63 179.36 C 172.41 180.23 172.94 181.12 173.81 181.34 L 174.75 181.58 C 175.62 181.80 176.51 181.28 176.73 180.40 C 176.95 179.53 176.42 178.64 175.55 178.42 Z M 174.77 178.26 L 173.79 177.89 C 172.96 177.58 172.03 178.01 171.72 178.84 C 171.41 179.67 171.84 180.60 172.67 180.91 L 173.65 181.27 C 174.49 181.58 175.41 181.16 175.72 180.32 C 176.03 179.49 175.61 178.57 174.77 178.26 Z M 173.90 177.96 L 172.99 177.53 C 172.20 177.16 171.25 177.51 170.88 178.30 C 170.51 179.10 170.86 180.05 171.65 180.42 L 172.56 180.84 C 173.36 181.21 174.30 180.87 174.67 180.07 C 175.04 179.27 174.70 178.33 173.90 177.96 Z M 173.07 177.58 L 172.26 177.15 C 171.49 176.74 170.53 177.03 170.12 177.80 C 169.71 178.57 170.00 179.53 170.77 179.94 L 171.58 180.37 C 172.35 180.78 173.31 180.49 173.72 179.72 C 174.13 178.95 173.84 177.99 173.07 177.58 Z M 172.32 177.19 L 171.47 176.69 C 170.72 176.25 169.75 176.50 169.31 177.25 C 168.87 178.00 169.12 178.97 169.88 179.41 L 170.72 179.91 C 171.47 180.35 172.44 180.09 172.88 179.34 C 173.32 178.59 173.07 177.63 172.32 177.19 Z M 171.51 176.72 L 170.64 176.17 C 169.90 175.70 168.93 175.92 168.47 176.65 C 168.00 177.39 168.22 178.36 168.95 178.82 L 169.83 179.38 C 170.57 179.84 171.54 179.63 172.00 178.89 C 172.47 178.16 172.25 177.19 171.51 176.72 Z M 170.67 176.19 L 169.76 175.58 C 169.04 175.10 168.07 175.29 167.58 176.00 C 167.10 176.72 167.29 177.70 168.01 178.18 L 168.92 178.79 C 169.64 179.28 170.61 179.09 171.10 178.37 C 171.58 177.65 171.39 176.68 170.67 176.19 Z M 169.79 175.60 L 168.93 175.00 C 168.22 174.50 167.25 174.66 166.75 175.37 C 166.25 176.07 166.42 177.05 167.12 177.55 L 167.98 178.16 C 168.69 178.66 169.66 178.49 170.16 177.78 C 170.66 177.08 170.49 176.10 169.79 175.60 Z M 168.95 175.01 L 168.11 174.40 C 167.42 173.89 166.44 174.04 165.93 174.73 C 165.42 175.43 165.57 176.41 166.26 176.92 L 167.10 177.53 C 167.80 178.04 168.78 177.89 169.29 177.20 C 169.80 176.50 169.65 175.52 168.95 175.01 Z M 168.13 174.41 L 167.30 173.78 C 166.61 173.26 165.63 173.40 165.11 174.09 C 164.59 174.78 164.73 175.76 165.42 176.28 L 166.25 176.90 C 166.93 177.42 167.91 177.29 168.43 176.60 C 168.95 175.91 168.82 174.93 168.13 174.41 Z M 167.31 173.79 L 166.51 173.18 C 165.83 172.65 164.85 172.77 164.32 173.46 C 163.79 174.14 163.92 175.12 164.60 175.65 L 165.40 176.27 C 166.09 176.79 167.07 176.67 167.59 175.99 C 168.12 175.30 168.00 174.32 167.31 173.79 Z M 166.52 173.18 L 165.77 172.59 C 165.09 172.06 164.11 172.18 163.58 172.85 C 163.04 173.53 163.16 174.51 163.84 175.05 L 164.59 175.64 C 165.27 176.17 166.25 176.06 166.78 175.38 C 167.32 174.70 167.20 173.72 166.52 173.18 Z M 165.78 172.60 L 164.99 171.97 C 164.32 171.43 163.34 171.54 162.80 172.22 C 162.26 172.89 162.37 173.87 163.04 174.41 L 163.83 175.04 C 164.50 175.58 165.48 175.47 166.02 174.79 C 166.56 174.12 166.45 173.14 165.78 172.60 Z M 165.00 171.98 L 164.15 171.29 C 163.48 170.74 162.50 170.84 161.96 171.51 C 161.41 172.18 161.51 173.16 162.18 173.71 L 163.03 174.40 C 163.70 174.95 164.68 174.85 165.23 174.18 C 165.77 173.51 165.67 172.53 165.00 171.98 Z M 164.17 171.30 L 163.42 170.68 C 162.76 170.12 161.77 170.21 161.22 170.88 C 160.67 171.54 160.76 172.52 161.42 173.07 L 162.17 173.70 C 162.83 174.25 163.81 174.16 164.37 173.50 C 164.92 172.84 164.83 171.85 164.17 171.30 Z M 163.43 170.69 L 162.74 170.10 C 162.09 169.54 161.10 169.62 160.54 170.27 C 159.98 170.93 160.06 171.92 160.72 172.48 L 161.41 173.06 C 162.06 173.62 163.05 173.54 163.61 172.89 C 164.17 172.23 164.09 171.25 163.43 170.69 Z M 162.76 170.11 L 162.04 169.49 C 161.39 168.92 160.40 168.99 159.84 169.64 C 159.27 170.29 159.34 171.28 159.99 171.84 L 160.71 172.47 C 161.36 173.03 162.34 172.96 162.91 172.31 C 163.47 171.66 163.41 170.68 162.76 170.11 Z M 162.05 169.50 L 161.30 168.83 C 160.65 168.26 159.67 168.33 159.10 168.97 C 158.53 169.62 158.59 170.60 159.23 171.17 L 159.98 171.84 C 160.63 172.41 161.62 172.34 162.19 171.70 C 162.76 171.05 162.69 170.07 162.05 169.50 Z M 161.31 168.84 L 160.56 168.17 C 159.91 167.60 158.93 167.66 158.35 168.30 C 157.78 168.94 157.84 169.93 158.48 170.50 L 159.23 171.17 C 159.87 171.74 160.86 171.69 161.43 171.04 C 162.01 170.40 161.95 169.41 161.31 168.84 Z M 160.56 168.17 L 159.81 167.51 C 159.17 166.93 158.19 166.99 157.61 167.63 C 157.04 168.27 157.09 169.26 157.73 169.83 L 158.48 170.50 C 159.12 171.08 160.11 171.02 160.68 170.38 C 161.26 169.74 161.20 168.75 160.56 168.17 Z M 159.82 167.51 L 159.08 166.85 C 158.44 166.28 157.45 166.33 156.88 166.97 C 156.30 167.62 156.36 168.60 157.00 169.18 L 157.73 169.83 C 158.38 170.41 159.36 170.35 159.94 169.71 C 160.51 169.07 160.46 168.08 159.82 167.51 Z M 159.08 166.85 L 158.34 166.19 C 157.70 165.61 156.71 165.67 156.14 166.31 C 155.56 166.95 155.62 167.94 156.26 168.51 L 157.00 169.18 C 157.64 169.75 158.63 169.70 159.20 169.06 C 159.78 168.41 159.72 167.43 159.08 166.85 Z M 158.34 166.19 L 157.59 165.51 C 156.95 164.93 155.96 164.99 155.38 165.63 C 154.81 166.27 154.86 167.26 155.50 167.83 L 156.26 168.51 C 156.90 169.09 157.88 169.03 158.46 168.39 C 159.04 167.75 158.98 166.76 158.34 166.19 Z M 157.59 165.51 L 156.85 164.85 C 156.21 164.27 155.23 164.32 154.65 164.96 C 154.07 165.60 154.12 166.59 154.76 167.17 L 155.50 167.83 C 156.14 168.41 157.13 168.36 157.70 167.72 C 158.28 167.08 158.23 166.09 157.59 165.51 Z M 156.85 164.85 L 156.12 164.18 C 155.48 163.61 154.49 163.66 153.91 164.30 C 153.33 164.94 153.38 165.92 154.02 166.50 L 154.76 167.17 C 155.40 167.75 156.39 167.69 156.97 167.06 C 157.54 166.42 157.49 165.43 156.85 164.85 Z M 156.12 164.18 L 155.37 163.51 C 154.73 162.93 153.74 162.98 153.16 163.62 C 152.59 164.26 152.64 165.24 153.27 165.82 L 154.02 166.50 C 154.66 167.08 155.65 167.03 156.23 166.39 C 156.81 165.75 156.76 164.76 156.12 164.18 Z M 155.37 163.51 L 154.68 162.88 C 154.04 162.30 153.05 162.35 152.47 162.99 C 151.89 163.63 151.94 164.62 152.58 165.20 L 153.27 165.82 C 153.91 166.40 154.90 166.35 155.48 165.71 C 156.06 165.07 156.01 164.09 155.37 163.51 Z"
      fill="black"
      fill-rule="nonzero" /><path d="M 144.98 140.85 L 144.52 141.75 C 144.09 142.57 144.42 143.58 145.24 144.01 C 146.06 144.43 147.07 144.10 147.50 143.28 L 147.96 142.39 C 148.38 141.56 148.06 140.55 147.23 140.13 C 146.41 139.70 145.40 140.03 144.98 140.85 Z M 144.49 141.78 L 144.05 142.69 C 143.65 143.53 144.00 144.53 144.84 144.94 C 145.68 145.34 146.69 144.99 147.09 144.15 L 147.53 143.25 C 147.93 142.41 147.58 141.40 146.74 140.99 C 145.90 140.59 144.89 140.94 144.49 141.78 Z M 144.01 142.76 L 143.62 143.68 C 143.26 144.55 143.67 145.54 144.54 145.90 C 145.40 146.26 146.40 145.85 146.76 144.99 L 147.14 144.07 C 147.50 143.20 147.09 142.21 146.22 141.85 C 145.36 141.49 144.37 141.90 144.01 142.76 Z M 143.57 143.81 L 143.26 144.75 C 142.97 145.65 143.46 146.61 144.36 146.90 C 145.26 147.19 146.22 146.70 146.51 145.80 L 146.81 144.86 C 147.10 143.97 146.61 143.00 145.71 142.71 C 144.82 142.42 143.86 142.91 143.57 143.81 Z M 143.22 144.90 L 143.01 145.86 C 142.80 146.78 143.38 147.69 144.30 147.90 C 145.22 148.10 146.13 147.52 146.34 146.60 L 146.55 145.65 C 146.76 144.73 146.18 143.81 145.26 143.61 C 144.34 143.40 143.43 143.98 143.22 144.90 Z M 142.98 145.99 L 142.84 146.97 C 142.71 147.90 143.35 148.77 144.28 148.90 C 145.22 149.04 146.08 148.39 146.22 147.46 L 146.36 146.48 C 146.50 145.54 145.85 144.68 144.92 144.54 C 143.98 144.41 143.12 145.05 142.98 145.99 Z M 142.83 147.06 L 142.74 148.08 C 142.66 149.01 143.35 149.84 144.29 149.92 C 145.23 150.01 146.06 149.31 146.14 148.38 L 146.23 147.36 C 146.31 146.43 145.62 145.60 144.68 145.52 C 143.74 145.43 142.91 146.13 142.83 147.06 Z M 142.74 148.14 L 142.69 149.15 C 142.64 150.09 143.37 150.88 144.30 150.93 C 145.24 150.98 146.04 150.26 146.09 149.32 L 146.14 148.31 C 146.19 147.37 145.46 146.57 144.53 146.53 C 143.59 146.48 142.79 147.20 142.74 148.14 Z M 142.69 149.21 L 142.68 150.21 C 142.67 151.14 143.42 151.91 144.35 151.93 C 145.29 151.94 146.06 151.19 146.07 150.25 L 146.08 149.26 C 146.10 148.32 145.35 147.55 144.41 147.54 C 143.48 147.53 142.71 148.27 142.69 149.21 Z M 142.69 150.30 L 142.73 151.30 C 142.77 152.23 143.55 152.96 144.48 152.92 C 145.41 152.88 146.14 152.10 146.10 151.17 L 146.06 150.16 C 146.02 149.23 145.24 148.51 144.31 148.55 C 143.38 148.58 142.65 149.37 142.69 150.30 Z M 142.75 151.42 L 142.86 152.42 C 142.96 153.34 143.79 154.01 144.72 153.90 C 145.64 153.80 146.30 152.97 146.20 152.04 L 146.09 151.05 C 145.98 150.13 145.15 149.46 144.23 149.57 C 143.31 149.67 142.64 150.50 142.75 151.42 Z M 142.89 152.57 L 143.10 153.57 C 143.29 154.47 144.17 155.05 145.07 154.86 C 145.98 154.67 146.56 153.79 146.37 152.89 L 146.16 151.89 C 145.97 150.99 145.09 150.41 144.19 150.60 C 143.29 150.79 142.71 151.67 142.89 152.57 Z M 143.16 153.73 L 143.47 154.70 C 143.75 155.57 144.68 156.05 145.54 155.77 C 146.41 155.50 146.89 154.57 146.62 153.70 L 146.31 152.73 C 146.03 151.86 145.10 151.38 144.23 151.65 C 143.36 151.93 142.88 152.86 143.16 153.73 Z M 143.55 154.85 L 143.95 155.77 C 144.31 156.60 145.27 156.97 146.10 156.61 C 146.92 156.25 147.30 155.29 146.94 154.46 L 146.54 153.55 C 146.18 152.72 145.22 152.34 144.39 152.71 C 143.56 153.07 143.19 154.03 143.55 154.85 Z M 144.05 155.92 L 144.53 156.76 C 144.98 157.54 145.96 157.80 146.73 157.36 C 147.50 156.92 147.77 155.93 147.33 155.16 L 146.84 154.32 C 146.40 153.55 145.42 153.28 144.64 153.72 C 143.87 154.16 143.61 155.15 144.05 155.92 Z M 144.65 156.91 L 145.25 157.72 C 145.77 158.42 146.77 158.57 147.48 158.04 C 148.18 157.52 148.33 156.52 147.80 155.82 L 147.21 155.01 C 146.68 154.31 145.69 154.16 144.98 154.69 C 144.27 155.21 144.13 156.21 144.65 156.91 Z M 145.37 157.84 L 146.05 158.58 C 146.65 159.22 147.65 159.25 148.29 158.66 C 148.93 158.06 148.96 157.06 148.37 156.42 L 147.68 155.69 C 147.09 155.05 146.09 155.01 145.45 155.61 C 144.81 156.20 144.77 157.20 145.37 157.84 Z M 146.14 158.66 L 146.87 159.33 C 147.51 159.92 148.50 159.88 149.09 159.24 C 149.68 158.60 149.64 157.60 149.00 157.02 L 148.28 156.34 C 147.64 155.75 146.64 155.79 146.05 156.43 C 145.46 157.07 145.50 158.07 146.14 158.66 Z M 146.92 159.36 L 147.57 159.92 C 148.22 160.48 149.21 160.41 149.78 159.75 C 150.34 159.10 150.26 158.11 149.61 157.55 L 148.96 156.98 C 148.30 156.42 147.31 156.50 146.75 157.15 C 146.19 157.81 146.26 158.79 146.92 159.36 Z"
      fill="black"
      fill-rule="nonzero" /><path d="M 145.85 137.99 L 146.53 138.74 C 147.16 139.44 148.25 139.50 148.95 138.86 C 149.66 138.23 149.71 137.14 149.08 136.44 L 148.41 135.69 C 147.77 134.99 146.68 134.93 145.98 135.57 C 145.27 136.20 145.22 137.29 145.85 137.99 Z M 146.58 138.79 L 147.28 139.50 C 147.94 140.18 149.03 140.19 149.71 139.52 C 150.38 138.86 150.39 137.77 149.73 137.10 L 149.02 136.38 C 148.36 135.71 147.27 135.70 146.60 136.36 C 145.92 137.03 145.91 138.12 146.58 138.79 Z M 147.39 139.60 L 148.15 140.25 C 148.87 140.86 149.95 140.78 150.56 140.06 C 151.18 139.34 151.09 138.26 150.37 137.64 L 149.61 137.00 C 148.89 136.38 147.81 136.47 147.20 137.19 C 146.59 137.91 146.67 138.99 147.39 139.60 Z M 148.32 140.37 L 149.13 140.91 C 149.91 141.43 150.97 141.21 151.49 140.42 C 152.01 139.64 151.80 138.58 151.01 138.06 L 150.20 137.52 C 149.42 137.00 148.36 137.22 147.84 138.00 C 147.32 138.79 147.53 139.85 148.32 140.37 Z M 149.27 140.98 L 150.15 141.45 C 150.98 141.89 152.01 141.57 152.45 140.74 C 152.89 139.91 152.57 138.88 151.74 138.44 L 150.87 137.98 C 150.04 137.54 149.01 137.86 148.57 138.69 C 148.13 139.52 148.44 140.55 149.27 140.98 Z M 150.24 141.48 L 151.16 141.91 C 152.01 142.30 153.02 141.93 153.41 141.08 C 153.80 140.23 153.43 139.22 152.58 138.83 L 151.65 138.40 C 150.80 138.01 149.80 138.39 149.40 139.24 C 149.01 140.09 149.39 141.09 150.24 141.48 Z M 151.19 141.91 L 152.12 142.32 C 152.98 142.70 153.97 142.31 154.34 141.46 C 154.72 140.60 154.33 139.61 153.48 139.23 L 152.55 138.82 C 151.69 138.45 150.70 138.84 150.32 139.69 C 149.95 140.54 150.34 141.54 151.19 141.91 Z M 152.12 142.31 L 153.04 142.72 C 153.88 143.10 154.87 142.72 155.25 141.87 C 155.63 141.02 155.25 140.03 154.40 139.65 L 153.48 139.25 C 152.64 138.87 151.64 139.25 151.27 140.09 C 150.89 140.94 151.27 141.93 152.12 142.31 Z M 153.01 142.70 L 153.93 143.12 C 154.76 143.51 155.75 143.15 156.14 142.32 C 156.53 141.48 156.17 140.49 155.33 140.10 L 154.42 139.67 C 153.59 139.29 152.59 139.65 152.21 140.48 C 151.82 141.32 152.18 142.31 153.01 142.70 Z M 153.89 143.10 L 154.78 143.54 C 155.60 143.95 156.59 143.61 157.00 142.79 C 157.41 141.98 157.08 140.98 156.26 140.57 L 155.37 140.13 C 154.55 139.72 153.55 140.05 153.15 140.87 C 152.74 141.69 153.07 142.69 153.89 143.10 Z M 154.72 143.50 L 155.63 144.00 C 156.42 144.44 157.43 144.15 157.87 143.35 C 158.31 142.56 158.02 141.56 157.22 141.11 L 156.32 140.61 C 155.52 140.17 154.52 140.46 154.08 141.26 C 153.63 142.05 153.92 143.06 154.72 143.50 Z M 155.54 143.93 L 156.38 144.48 C 157.14 144.97 158.16 144.75 158.65 143.99 C 159.13 143.22 158.92 142.21 158.15 141.72 L 157.31 141.18 C 156.55 140.69 155.54 140.91 155.05 141.67 C 154.56 142.43 154.78 143.44 155.54 143.93 Z M 156.27 144.38 L 157.03 144.98 C 157.74 145.53 158.76 145.41 159.31 144.70 C 159.87 143.99 159.74 142.97 159.04 142.42 L 158.27 141.82 C 157.57 141.27 156.54 141.39 155.99 142.10 C 155.44 142.80 155.56 143.83 156.27 144.38 Z M 156.88 144.83 L 157.59 145.55 C 158.22 146.19 159.25 146.19 159.88 145.57 C 160.52 144.94 160.52 143.91 159.89 143.28 L 159.18 142.56 C 158.55 141.93 157.53 141.92 156.90 142.55 C 156.26 143.18 156.26 144.20 156.88 144.83 Z M 157.43 145.35 L 158.01 146.17 C 158.52 146.89 159.53 147.07 160.26 146.55 C 160.98 146.04 161.15 145.03 160.64 144.31 L 160.06 143.49 C 159.54 142.76 158.54 142.59 157.81 143.10 C 157.09 143.62 156.91 144.62 157.43 145.35 Z M 157.85 145.88 L 158.24 146.77 C 158.60 147.59 159.54 147.96 160.36 147.60 C 161.17 147.25 161.54 146.30 161.19 145.49 L 160.80 144.59 C 160.44 143.78 159.50 143.41 158.68 143.76 C 157.87 144.12 157.50 145.07 157.85 145.88 Z M 158.13 146.40 L 158.29 147.33 C 158.43 148.21 159.26 148.80 160.14 148.65 C 161.02 148.51 161.61 147.68 161.46 146.80 L 161.30 145.86 C 161.15 144.99 160.32 144.40 159.45 144.54 C 158.57 144.69 157.98 145.52 158.13 146.40 Z M 158.26 146.93 L 158.18 147.89 C 158.10 148.78 158.75 149.57 159.64 149.65 C 160.53 149.73 161.32 149.07 161.40 148.18 L 161.48 147.21 C 161.56 146.32 160.90 145.54 160.01 145.46 C 159.12 145.38 158.34 146.04 158.26 146.93 Z M 158.25 147.50 L 157.91 148.48 C 157.61 149.32 158.06 150.25 158.91 150.55 C 159.75 150.85 160.68 150.40 160.98 149.55 L 161.32 148.58 C 161.62 147.73 161.17 146.80 160.32 146.50 C 159.48 146.20 158.55 146.65 158.25 147.50 Z M 158.04 148.16 L 157.55 148.96 C 157.08 149.73 157.32 150.75 158.09 151.22 C 158.87 151.69 159.88 151.45 160.35 150.68 L 160.84 149.87 C 161.32 149.10 161.08 148.09 160.30 147.61 C 159.53 147.14 158.52 147.38 158.04 148.16 Z M 157.67 148.76 L 157.06 149.49 C 156.47 150.20 156.57 151.25 157.28 151.84 C 157.98 152.42 159.03 152.32 159.62 151.62 L 160.23 150.88 C 160.82 150.17 160.72 149.13 160.01 148.54 C 159.31 147.95 158.26 148.05 157.67 148.76 Z M 157.15 149.37 L 156.42 150.09 C 155.77 150.75 155.77 151.82 156.43 152.48 C 157.09 153.13 158.15 153.13 158.81 152.47 L 159.53 151.74 C 160.19 151.09 160.19 150.02 159.53 149.36 C 158.87 148.70 157.80 148.71 157.15 149.37 Z M 156.48 150.01 L 155.67 150.73 C 154.97 151.36 154.91 152.44 155.54 153.14 C 156.17 153.84 157.25 153.90 157.95 153.27 L 158.76 152.55 C 159.46 151.92 159.52 150.84 158.89 150.14 C 158.26 149.44 157.18 149.38 156.48 150.01 Z M 155.70 150.68 L 154.93 151.33 C 154.21 151.95 154.11 153.03 154.73 153.76 C 155.34 154.49 156.43 154.58 157.16 153.97 L 157.93 153.32 C 158.65 152.71 158.75 151.62 158.13 150.89 C 157.52 150.16 156.43 150.07 155.70 150.68 Z M 154.95 151.30 L 154.17 151.94 C 153.43 152.54 153.32 153.64 153.92 154.38 C 154.53 155.13 155.63 155.24 156.37 154.63 L 157.15 154.00 C 157.89 153.39 158.00 152.29 157.39 151.55 C 156.79 150.81 155.69 150.69 154.95 151.30 Z M 154.18 151.92 L 153.39 152.55 C 152.63 153.15 152.51 154.25 153.12 155.01 C 153.72 155.76 154.83 155.89 155.58 155.28 L 156.37 154.65 C 157.12 154.04 157.24 152.94 156.64 152.19 C 156.03 151.43 154.93 151.31 154.18 151.92 Z M 153.38 152.53 L 152.60 153.16 C 151.84 153.77 151.71 154.88 152.32 155.64 C 152.93 156.40 154.04 156.53 154.80 155.92 L 155.59 155.29 C 156.35 154.69 156.47 153.58 155.86 152.81 C 155.26 152.05 154.15 151.93 153.38 152.53 Z M 152.58 153.15 L 151.79 153.79 C 151.02 154.41 150.90 155.53 151.52 156.29 C 152.13 157.06 153.25 157.18 154.02 156.57 L 154.81 155.93 C 155.58 155.31 155.70 154.19 155.09 153.43 C 154.47 152.66 153.35 152.54 152.58 153.15 Z M 151.77 153.79 L 150.97 154.44 C 150.21 155.07 150.09 156.20 150.72 156.97 C 151.35 157.73 152.48 157.85 153.25 157.22 L 154.04 156.57 C 154.81 155.94 154.92 154.81 154.29 154.04 C 153.67 153.27 152.54 153.16 151.77 153.79 Z M 150.95 154.44 L 150.18 155.08 C 149.41 155.73 149.31 156.87 149.95 157.64 C 150.59 158.40 151.74 158.51 152.50 157.86 L 153.27 157.22 C 154.04 156.58 154.14 155.44 153.50 154.67 C 152.86 153.90 151.71 153.80 150.95 154.44 Z M 150.15 155.09 L 149.41 155.72 C 148.64 156.38 148.55 157.53 149.21 158.30 C 149.87 159.07 151.02 159.16 151.79 158.50 L 152.53 157.86 C 153.30 157.20 153.39 156.05 152.73 155.28 C 152.07 154.52 150.92 154.43 150.15 155.09 Z M 149.38 155.73 L 148.53 156.48 C 147.77 157.16 147.70 158.32 148.37 159.08 C 149.05 159.85 150.21 159.92 150.97 159.24 L 151.82 158.49 C 152.58 157.81 152.65 156.65 151.98 155.89 C 151.30 155.12 150.14 155.05 149.38 155.73 Z M 148.46 156.53 L 147.56 157.41 C 146.82 158.12 146.81 159.29 147.52 160.03 C 148.23 160.76 149.40 160.78 150.14 160.07 L 151.04 159.19 C 151.77 158.48 151.79 157.31 151.08 156.57 C 150.37 155.84 149.20 155.82 148.46 156.53 Z M 147.29 157.73 L 146.93 158.29 C 146.37 159.15 146.61 160.30 147.47 160.86 C 148.33 161.41 149.48 161.17 150.04 160.31 L 150.40 159.75 C 150.96 158.89 150.72 157.74 149.86 157.18 C 149.00 156.63 147.85 156.87 147.29 157.73 Z M 147.97 161.07 L 148.26 161.16 C 149.24 161.44 150.26 160.88 150.55 159.91 C 150.84 158.93 150.27 157.90 149.30 157.62 L 149.00 157.53 C 148.02 157.25 147.00 157.81 146.71 158.78 C 146.43 159.76 146.99 160.79 147.97 161.07 Z M 149.30 161.13 L 150.01 160.92 C 150.97 160.64 151.52 159.63 151.23 158.66 C 150.95 157.70 149.94 157.15 148.97 157.43 L 148.26 157.64 C 147.30 157.93 146.75 158.94 147.04 159.90 C 147.32 160.87 148.33 161.42 149.30 161.13 Z M 150.20 160.82 L 151.26 160.36 C 152.16 159.96 152.58 158.91 152.19 158.01 C 151.79 157.10 150.74 156.69 149.83 157.08 L 148.78 157.54 C 147.87 157.93 147.46 158.99 147.85 159.89 C 148.24 160.80 149.30 161.21 150.20 160.82 Z M 151.35 160.28 L 152.68 159.59 C 153.54 159.15 153.88 158.09 153.43 157.23 C 152.99 156.37 151.93 156.03 151.07 156.47 L 149.74 157.16 C 148.88 157.60 148.54 158.66 148.99 159.52 C 149.43 160.39 150.49 160.72 151.35 160.28 Z M 152.73 159.53 L 153.61 159.04 C 154.44 158.56 154.73 157.51 154.25 156.68 C 153.78 155.85 152.73 155.56 151.90 156.03 L 151.02 156.53 C 150.19 157.00 149.90 158.06 150.37 158.89 C 150.84 159.72 151.90 160.01 152.73 159.53 Z M 153.62 159.00 L 154.50 158.47 C 155.31 157.99 155.57 156.95 155.09 156.14 C 154.61 155.33 153.56 155.07 152.76 155.55 L 151.88 156.07 C 151.07 156.55 150.81 157.60 151.29 158.41 C 151.77 159.21 152.82 159.48 153.62 159.00 Z M 154.51 158.44 L 155.40 157.89 C 156.19 157.40 156.44 156.37 155.95 155.58 C 155.46 154.79 154.43 154.55 153.64 155.03 L 152.75 155.59 C 151.96 156.07 151.72 157.10 152.20 157.89 C 152.69 158.68 153.72 158.92 154.51 158.44 Z M 155.41 157.86 L 156.29 157.29 C 157.06 156.81 157.29 155.79 156.81 155.02 C 156.32 154.24 155.30 154.01 154.53 154.50 L 153.64 155.06 C 152.87 155.55 152.64 156.57 153.13 157.34 C 153.61 158.11 154.63 158.34 155.41 157.86 Z M 156.29 157.27 L 157.15 156.71 C 157.91 156.22 158.13 155.22 157.64 154.46 C 157.16 153.71 156.15 153.49 155.39 153.98 L 154.53 154.53 C 153.78 155.02 153.56 156.02 154.04 156.78 C 154.53 157.53 155.54 157.75 156.29 157.27 Z M 157.15 156.68 L 157.96 156.15 C 158.70 155.67 158.91 154.68 158.43 153.94 C 157.95 153.20 156.95 152.99 156.21 153.47 L 155.40 154.00 C 154.66 154.48 154.45 155.48 154.93 156.22 C 155.42 156.96 156.41 157.17 157.15 156.68 Z M 157.95 156.13 L 158.77 155.60 C 159.50 155.12 159.70 154.14 159.22 153.41 C 158.74 152.68 157.76 152.48 157.03 152.96 L 156.22 153.49 C 155.49 153.97 155.29 154.95 155.77 155.68 C 156.25 156.41 157.23 156.61 157.95 156.13 Z M 158.76 155.59 L 159.78 154.91 C 160.51 154.44 160.71 153.46 160.23 152.74 C 159.75 152.02 158.78 151.82 158.06 152.30 L 157.04 152.97 C 156.32 153.45 156.12 154.42 156.59 155.14 C 157.07 155.86 158.04 156.06 158.76 155.59 Z M 159.79 154.91 L 160.64 154.35 C 161.36 153.87 161.55 152.90 161.08 152.18 C 160.60 151.46 159.63 151.26 158.91 151.74 L 158.06 152.30 C 157.34 152.78 157.14 153.75 157.62 154.47 C 158.09 155.19 159.07 155.39 159.79 154.91 Z M 160.64 154.34 L 161.37 153.85 C 162.09 153.38 162.29 152.41 161.81 151.69 C 161.33 150.97 160.36 150.77 159.64 151.25 L 158.91 151.74 C 158.19 152.22 157.99 153.19 158.47 153.91 C 158.95 154.63 159.92 154.82 160.64 154.34 Z M 161.37 153.85 L 162.05 153.40 C 162.77 152.92 162.96 151.95 162.49 151.23 C 162.01 150.52 161.04 150.32 160.32 150.80 L 159.64 151.25 C 158.92 151.73 158.73 152.70 159.21 153.42 C 159.69 154.14 160.66 154.33 161.37 153.85 Z M 162.05 153.40 L 162.88 152.84 C 163.60 152.37 163.79 151.40 163.32 150.68 C 162.84 149.96 161.87 149.77 161.15 150.25 L 160.32 150.80 C 159.60 151.28 159.41 152.25 159.89 152.97 C 160.37 153.68 161.33 153.88 162.05 153.40 Z M 162.88 152.84 L 163.72 152.29 C 164.43 151.81 164.63 150.84 164.15 150.12 C 163.67 149.41 162.70 149.21 161.98 149.69 L 161.15 150.25 C 160.43 150.73 160.24 151.69 160.72 152.41 C 161.20 153.13 162.17 153.32 162.88 152.84 Z M 163.72 152.29 L 164.55 151.73 C 165.26 151.26 165.46 150.29 164.98 149.57 C 164.50 148.85 163.53 148.66 162.82 149.14 L 161.98 149.69 C 161.27 150.17 161.07 151.14 161.55 151.86 C 162.03 152.57 163.00 152.77 163.72 152.29 Z M 164.55 151.73 L 164.84 151.54 C 165.56 151.06 165.75 150.09 165.27 149.38 C 164.79 148.66 163.82 148.46 163.11 148.94 L 162.82 149.14 C 162.10 149.62 161.90 150.58 162.38 151.30 C 162.86 152.02 163.83 152.21 164.55 151.73 Z"
      fill="black"
      fill-rule="nonzero" /></svg>